# .PCD v0.7 - Point Cloud Data file format
VERSION 0.7
FIELDS x y z intensity
SIZE 4 4 4 4
TYPE F F F F
COUNT 1 1 1 1
WIDTH 215
HEIGHT 1
VIEWPOINT 0 0 0 1 0 0 0
POINTS 215
DATA ascii
0.31386098 -0.91138119 0.039136231 155
0.32008761 -0.83295953 0.034595735 161
0.42631021 -0.83214992 0.035014708 166.66667
0.53414351 -0.82894832 0.035859913 169
0.32855445 -0.7218948 0.029537881 175.33333
0.42135856 -0.73841375 0.031326335 179.2
0.51848948 -0.73977673 0.029702507 178.5
0.61515707 -0.73938924 0.031393759 177
0.70772713 -0.70228374 0.027233176 176
0.33681196 -0.60583061 0.026570894 186
0.4147388 -0.63494349 0.031749774 186.5
0.57174838 -0.66744423 0.023926781 186
0.66580826 -0.64882183 0.025998646 185.33333
0.76206541 -0.60677642 0.027685663 185
0.34323665 -0.52604288 0.021825833 183
0.45540804 -0.56151021 0.028248476 185.8
0.55372679 -0.54734832 0.028319871 186.60001
0.62742466 -0.53252214 0.028757475 188.16667
0.74495989 -0.54904848 0.022572452 190
0.81980157 -0.54128784 0.02089311 190
0.35049477 -0.47039074 0.0081776045 179.875
0.43949932 -0.45796439 0.014769895 180.05263
0.54251218 -0.4262225 0.01758071 180.25
0.66843629 -0.48011115 0.027197601 187.16667
0.74503982 -0.43554518 0.029818587 188.42857
0.85438263 -0.45517319 0.021409167 190.75
0.36036122 -0.34893608 0.0013849367 168.3158
0.43893963 -0.33957377 0.011256431 168.90909
0.54815888 -0.34218168 0.018194858 172.92308
0.63359976 -0.34172466 0.018634139 177.625
0.77363372 -0.35730085 0.029222963 186.25
0.84787643 -0.35164896 0.026196441 188.5
0.93411469 -0.31923264 0.020442978 192
0.38036615 -0.23744099 -0.0016471096 165.75999
0.4509522 -0.25556105 -0.0084654056 166.81818
0.54709542 -0.24818148 -0.0026847136 169.05357
0.6531269 -0.24534628 0.016068263 171.39999
0.7226342 -0.23326829 0.018895799 175.75
0.85435551 -0.23632616 0.026003046 186.75
0.96582037 -0.24914376 0.020562869 192
0.38780943 -0.15164332 -0.015762918 165
0.44667324 -0.1405797 -0.0075901966 166.31776
0.54947704 -0.15005253 -0.015328757 169.50981
0.63809377 -0.14639832 -0.00034649565 172.30612
0.74087262 -0.14068432 0.013002895 171.875
0.88834167 -0.14979389 0.022007024 186
0.98159623 -0.13936043 0.02108229 190
0.39616355 -0.053514995 -0.049604129 165.125
0.43868154 -0.040064745 -0.034312241 165.5
0.53763288 -0.04451159 -0.0070894868 168.02531
0.64907628 -0.049829982 -0.010886302 171.92064
0.74354184 -0.049565207 0.012133622 171.05
0.90385222 -0.057010267 0.02127804 185
-0.20895328 0.055417053 -0.0074409489 183
-0.19155587 0.053629097 -0.010775609 182.33333
-0.059784699 0.065381341 -0.025761321 174.61539
0.0588095 0.049590822 -0.005372507 168.46875
0.15115987 0.053503897 -0.035131119 165.61798
0.2555469 0.04900986 -0.060481254 164.86259
0.36528105 0.036393497 -0.059739113 165.50552
0.40799412 0.028095461 -0.0524191 165.20409
-0.16290411 0.15957351 -0.013378002 182.2
-0.037655029 0.15400438 -0.025350409 175.26315
0.053654749 0.14716905 -0.011391136 170.47826
0.16237436 0.13816589 -0.01969338 166.08475
0.25689334 0.13712129 -0.04362772 165.22989
0.35264322 0.14373854 -0.038334809 165.27586
0.40787101 0.15011232 -0.023321597 166.03572
-0.034135245 0.20178533 -0.01886731 176.16667
0.030619901 0.22853403 -0.027656445 172.89999
0.15669553 0.29025951 -0.014687396 171.5
0.26578811 0.25226694 -0.0078611774 169.27272
0.34928602 0.22903305 -0.0089525981 168.58064
0.41421878 0.25838146 -0.0048968638 170
0.065878987 0.33838081 -0.019637449 177.75
0.16285054 0.34758505 -0.025011003 174.31818
0.25786212 0.35848838 -0.024400335 173.48276
0.35561526 0.34887567 -0.021439254 173.09677
0.42703629 0.33953565 -0.019431768 173.54546
0.053727511 0.45225412 -0.019683179 184
0.12274569 0.46428192 -0.016277144 181
0.36751553 0.48702496 -0.015132428 180.8
0.43853033 0.4670625 -0.0092694052 181.5
0.37883818 0.5060302 -0.010892915 182
0.31542569 -0.84826636 0.048527852 157
0.42459226 -0.85477668 0.047116246 160
0.32397315 -0.75391507 0.039082713 168.5
0.33233818 -0.63698202 0.035876296 184.25
0.44439223 -0.61916804 0.037023906 187.8
0.33970308 -0.53255129 0.033522524 184.75
0.41967657 -0.51144582 0.033859026 184.39999
0.56420213 -0.5866617 0.037263669 189.5
0.4696961 -0.4920046 0.033647574 185
0.55559576 -0.45699972 0.033884153 184.125
0.63621479 -0.41170698 0.037007302 184.33333
0.35045511 -0.39725292 0.026283454 177
0.44679436 -0.36268976 0.026303886 175.5
0.52890122 -0.32076603 0.025008243 170
0.66463327 -0.36493373 0.034369323 182.875
0.72713518 -0.33644319 0.03730917 184.2
0.82686186 -0.3374179 0.03629522 189
0.58599955 -0.25458872 0.02466535 168
0.62207508 -0.24940659 0.025368543 168.75
0.75298756 -0.24838069 0.034377687 181.83333
0.86220759 -0.25691774 0.033901718 188.57143
0.91415048 -0.22801013 0.035157688 191
0.66458291 -0.16377543 0.023930641 169
0.77800941 -0.14622216 0.031934611 176.55556
0.84221458 -0.15587927 0.032708537 184.44444
0.92767149 -0.161708 0.03161988 189
0.79080904 -0.040708918 0.026515687 172.14285
0.84082377 -0.049758233 0.030325677 180.3
0.92262876 -0.053624816 0.030474933 186.71428
-0.60711825 0.094148189 0.0079081552 168
-0.55658096 0.089208253 0.0051213992 177
-0.46171436 0.080051169 0.0032958167 191.39999
-0.33634168 0.068317011 0.011332097 190.33333
-0.2324312 0.058364712 0.011817033 186.25
-0.12231576 0.04749671 0.0031304203 180.71428
0.062382046 0.059007876 6.8638816e-05 168.25
-0.74559021 0.10723164 0.0031338623 145
-0.68234301 0.10104851 -0.00055276393 157.5
-0.23958017 0.13461573 0.042328376 179.70589
-0.1667783 0.15694445 3.5297078e-05 183
-0.085365683 0.13691016 0.0025689011 179.3
0.08100035 0.13357134 -0.0018756323 168.8
0.12802643 0.17021011 0.009845024 165.66667
0.23675179 0.16182166 0.084874086 121.16666
-0.43842775 0.28366563 0.0055230679 193.5
-0.34972346 0.25282297 0.0089877145 193.5
-0.25581622 0.22019424 0.011872781 188.71428
-0.066301346 0.2277481 0.013332535 180.72728
0.046865515 0.24044251 0.03685246 172
0.14437768 0.22550018 0.0035704824 169.33333
0.262328 0.2519168 0.00061284844 167.38095
0.34066328 0.24595848 0.0015479345 169.15625
0.40945917 0.23607232 0.0036366081 169.76923
-0.72859579 0.38437137 -0.0016255347 147
-0.64069897 0.35400012 -0.0030214898 161
-0.52992189 0.315411 0.0036828734 178.66667
-0.22132233 0.38511649 0.010534888 191.5
-0.15329735 0.34082428 0.01708073 188.39999
-0.056603029 0.36252898 0.00016849923 183.84616
0.060600389 0.34696251 0.0023807283 180
0.13535304 0.37648439 0.00080367131 178.46153
0.23576838 0.39209038 -0.0029176413 176.5
0.3578231 0.38941425 -0.00085537357 176.60001
0.42450222 0.37912273 0.0061995368 176.57143
-0.33954313 0.46239996 -0.0034835774 194.8
-0.28318861 0.42625594 -0.0027306844 193
-0.15115467 0.43939605 0.0069295685 189.14285
-0.03979532 0.44370887 0.0055424245 186.42857
0.044767126 0.45759037 0.0016415861 185.07692
0.13474844 0.46774185 -0.0031464943 182.76923
0.24441566 0.42727748 0.0028272071 179.3125
0.34058449 0.42727748 0.0025834185 179.07143
0.43227413 0.44302055 0.0039563933 179.60001
-0.52417326 0.58074754 -0.0055146143 167.5
-0.4380309 0.52539843 -0.0034139473 183.75
-0.32673788 0.58688086 -0.0086112237 194.5
-0.25452197 0.52654308 -0.0041252626 195.39999
-0.14441562 0.55534655 -0.0010793984 193.5
-0.022422958 0.54721493 0.0065406482 190.33333
0.06378369 0.5575611 0.0082064467 189.42857
0.16295463 0.53046012 0.0035977229 186.36363
0.24988897 0.5425092 0.0064243036 186.21428
0.34043661 0.52644444 0.0055350261 185.125
0.43890083 0.52345312 0.01313328 185.3
-0.65612745 0.66488957 -0.0033880756 137.5
-0.58149272 0.61711276 -0.0030027677 148.5
-0.43173566 0.6735515 -0.0088962307 176.33333
-0.36112526 0.61456913 -0.0045540836 186.5
-0.2500304 0.66774309 -0.0064133019 195.5
-0.15354247 0.64088625 -0.0047871745 196.5
-0.052202772 0.65447754 -0.0062403721 194
0.028671505 0.6190722 0.0086355358 192
0.12145699 0.62808472 0.0082062194 191.8
0.2489069 0.6400106 0.0080351746 190.8
0.37372336 0.63773382 0.001424959 190.5
0.45124188 0.6357981 0.014683278 190.5
-0.54352951 0.76514751 -0.0052142777 150.33333
-0.49000287 0.72177988 -0.0098624229 162
-0.34756744 0.77158189 -0.011537227 180
-0.28069472 0.70104766 -0.010885954 192
-0.17069472 0.75226188 -0.0069066253 197
-0.036825981 0.74042004 -0.0063197971 197.75
0.076480903 0.74481964 -0.0051027359 195.60001
0.18026803 0.75301433 -0.0054661282 194.8
0.27627993 0.75885481 -0.0064751492 194.75
0.37552851 0.75580549 -0.01169564 194.75
0.46849853 0.75317341 7.0315305e-05 195.33333
-0.43010491 0.85728556 -0.0064905891 160
-0.39801836 0.82465684 -0.011439737 169
-0.250283 0.86124855 -0.010669176 182.33333
-0.12130789 0.89221823 -0.01430369 191
-0.083201393 0.82258743 -0.0079254666 197.33333
0.031640004 0.85540897 -0.0085857417 198
0.15101205 0.86407477 -0.0088026933 194.5
0.26466 0.84619761 -0.0097539769 197
0.37550461 0.84612954 -0.01632807 197.33333
0.47714788 0.82022011 -0.0037144087 198
-0.3014299 0.92748368 -0.00087194308 166
-0.2977297 0.92595935 -0.012081563 169
-0.15171756 0.94430244 -0.011067349 180.66667
-0.012340377 0.96363008 -0.011580086 184.66667
0.12736632 0.95306933 -0.010656674 191
0.2533814 0.9235779 -0.0088084517 192.66667
0.37411466 0.90536553 -0.01409745 194
-0.28996286 0.14564028 0.11241338 174.33333
-0.018941918 0.17965932 0.18224844 160.75
0.030580435 0.1624067 0.15953857 132
0.14591606 0.16598508 0.12398318 122.36667
0.20016959 0.16947629 0.10083318 130
0.038431749 0.20604225 0.12035631 168
0.11020777 0.20689939 0.10736709 171
