# .PCD v0.7 - Point Cloud Data file format
VERSION 0.7
FIELDS x y z intensity
SIZE 4 4 4 4
TYPE F F F F
COUNT 1 1 1 1
WIDTH 724
HEIGHT 1
VIEWPOINT 0 0 0 1 0 0 0
POINTS 724
DATA ascii
-7.2946887 -1.6909283 1.9562967 15
-7.0165186 -1.8979371 1.093822 12
-7.1034403 -1.8108687 1.9067924 15
-7.0571938 -1.873739 1.9408746 15
-3.6316433 1.8944485 0.082479827 8.5
-3.6292603 1.9010744 0.34601477 10.5
-3.637244 1.8812801 0.9704535 15
-3.2692158 -4.448843 0.047389656 7
-3.2964442 -4.4357424 0.3044939 8.5
-3.4996717 -4.2697387 0.27677089 8.333333
-3.3201711 -3.8200531 0.31424993 8.5
-3.5959778 1.9696789 0.13911776 9.5
-3.4473574 2.2397807 0.15919019 9.5
-3.264272 2.5988891 0.13682547 9
-3.3156829 -4.415801 0.70568657 10
-3.5021374 -4.2357793 0.70135659 10.2
-3.272646 -3.7204318 0.74297279 10.5
-3.5947516 1.9734908 0.43099859 11
-3.4548433 2.2295017 0.43905732 11.090909
-3.267776 2.5794673 0.38392165 11
-3.3086827 -4.4157033 1.1151525 12.333333
-3.4915376 -4.2709274 1.125854 12.5
-3.3054962 -3.7812345 1.0388317 12.5
-3.5937893 1.9663291 0.8421582 14
-3.4421382 2.252362 0.8193444 14
-3.2856889 2.5531693 0.79457098 13.75
-3.3570707 -4.3936863 1.5906059 14.5
-3.5219152 -4.2794533 1.5908301 14.5
-3.3304722 -3.8150923 1.4906185 14.5
-3.4271717 2.2816942 1.0491164 15
-3.0119245 -4.6032867 0.062003609 7
-3.0148196 -4.5826435 0.33723068 8.3999996
-3.0987778 -3.3850884 0.33552611 8.5
-2.9216566 -3.0507336 0.25122884 8.5
-3.1699319 2.7792099 0.17133959 9
-3.0141425 2.9404783 0.15075731 9.25
-2.9949651 -4.5910764 0.72634453 10.125
-3.0646544 -3.3228168 0.65275663 11
-2.8738899 -2.9490063 0.60486001 10.75
-3.180686 2.7562828 0.39803869 11
-2.9639041 3.0088499 0.39487681 11
-3.0548191 -4.5520983 1.0990103 12.2
-3.0883718 -3.3821359 0.98608077 12.5
-2.9146609 -2.9987409 0.98322982 13.5
-3.1971591 2.7234523 0.84257942 14
-2.9557574 3.0384912 0.71495932 13.166667
-3.0612946 -4.5512156 1.5719223 14.4
-3.0992548 -3.3721931 1.4548119 15
-2.9469242 -3.0844831 1.2650259 15
-3.2110708 2.6701601 1.0406363 15
-2.9673517 3.0132825 1.0544678 15
-2.4824538 -4.8813224 0.074187636 7
-2.7259111 -4.7376556 0.067044362 7
-2.5245428 -4.8423386 0.35697648 8.25
-2.7373884 -4.7278795 0.35309556 8.333333
-2.7001157 -2.6295674 0.2879425 9
-2.4826424 -2.2141705 0.33839267 9.5
-2.4454637 -0.95232332 0.23414247 10
-2.6099083 3.1231542 0.17096449 9.5
-2.5258992 -4.8377304 0.70983016 10
-2.7180886 -4.7374301 0.70686281 10
-2.6806297 -2.5835469 0.69523656 11.8
-2.4997668 -2.2361684 0.58634597 11.75
-2.4543152 3.0523579 0.47163069 12
-2.7661808 3.2356458 0.31902334 10.5
-2.5573685 -4.8207932 1.1136725 12
-2.7416558 -4.7242155 1.0899274 12
-2.8050566 -2.8162477 1.030757 14
-2.6776876 -2.5571949 1.0011383 14.25
-2.4823644 -2.1758888 0.90754277 14.5
-2.6162961 2.3767886 0.80369228 15
-2.6901898 3.1597378 0.65556401 13
-2.5737824 -4.8043065 1.6158437 14.666667
-2.7657132 -4.7030973 1.587365 14.5
-2.8116851 3.197017 1.0627415 15
-2.2076917 -5.0252962 0.07931342 7
-2.2104189 -5.0064211 0.40836802 8.3999996
-2.3741426 -1.9963769 0.40056434 11
-2.2721465 -1.8003345 0.31955722 10
-2.0817039 -1.4314255 0.31076968 10.5
-2.2246094 -1.0587555 0.28931698 10.6
-2.2204113 -0.70897037 0.28850457 10.8
-2.3573468 3.008419 0.1516573 9
-2.2289388 4.5852947 0.14094147 9
-2.2410667 -4.9866667 0.79471219 10.4
-2.3983388 -2.042815 0.62503493 12.5
-2.2545519 -1.761297 0.60952824 12.714286
-2.0819905 -1.4015309 0.59964651 13.571428
-2.2465007 -1.0146892 0.56412387 13.571428
-2.2705038 -0.74481493 0.54138923 13.5
-2.2942293 2.9779398 0.3058565 10.666667
-2.2010446 4.6193485 0.33124909 10.2
-2.2784321 -4.966763 1.0951898 12
-2.2752807 -1.7875791 0.84941441 15
-2.1953461 4.6384578 0.73925763 12.571428
-2.2705066 -4.9630799 1.6187928 14.6
-2.2039032 4.6436076 1.0113673 14
-2.1912539 -5.0073996 1.8164791 15
-1.7759644 -5.2431951 0.11056863 7
-1.9578367 -5.1555791 0.10145365 7
-1.7552412 -5.2491617 0.41013291 8.333333
-1.94757 -5.1435742 0.45618358 8.5
-1.980283 -1.261896 0.26936179 10.5
-1.8793207 2.7157769 0.24726461 10
-1.7888583 -5.2255669 0.83278352 10.5
-1.9950538 -5.1169553 0.82080239 10.5
-2.001879 -1.3004395 0.56478739 13.5
-1.7941495 2.7118268 0.46539855 12.5
-1.9129256 5.2198691 0.4456321 11
-1.86125 5.2645121 0.41634777 10.5
-1.7661438 -5.2320647 1.1255765 12
-1.9773524 -5.1194868 1.0924762 12
-1.944608 5.2219491 0.81940502 12.5
-1.8623018 5.2874379 0.77730918 12.333333
-1.7908763 -5.2162733 1.5713813 14
-2.0005786 -5.1105161 1.5543188 14
-1.8833935 5.2489114 1.1120548 14
-1.8515466 -5.1840477 1.8360436 15
-1.8926731 5.256958 1.3824605 15
-1.8610595 5.2998495 1.3987335 15
-1.4117514 -5.4328518 0.13039325 7
-1.4364041 -5.4166861 0.42462596 8.375
-1.4607279 -5.3970799 0.83209217 10.333333
-1.3995553 -5.4291286 1.1132393 11.666667
-1.457688 -5.3904028 1.6491243 14.333333
-1.3225652 5.4289055 1.295285 15
-1.4792029 -5.3773093 1.8552052 15
-1.4064622 5.3872089 1.3983281 15
-0.97510213 -5.6951437 0.068865821 6.3333335
-1.1456537 -5.5951657 0.088954195 6.5
-0.99905998 -5.6477375 0.41934946 8.3999996
-1.1117251 -5.5825605 0.41542846 8
-0.96429223 -5.6576977 0.83071303 10
-1.1549574 -5.5628357 0.81245106 10
-0.82376987 3.4269557 0.43910515 12
-0.98841149 -5.6434293 1.1326941 11.6
-1.1836194 -5.5434742 1.109674 11.5
-0.86393839 3.5016646 0.70319051 14
-1.0632868 -5.6011682 1.6579752 14
-1.0398643 5.9687696 0.95746595 13
-1.0330224 -5.6216717 1.8735286 15
-1.1007365 5.9219174 1.5553904 15
-0.65399754 -5.834084 0.17821816 7
-0.65604907 -5.8260131 0.44499409 8.2857141
-0.59958142 0.33970127 -0.0012687258 8
-0.52735603 0.61586314 -0.0019562808 8.25
-0.57646912 0.99833739 -0.0095318137 8
-0.5757851 1.3873994 -0.015104142 8
-0.5664736 1.8162599 -0.028565088 8
-0.68534744 -5.8093548 0.89280647 10.25
-0.51857018 2.0018747 0.41529381 14
-0.61557537 2.0901957 0.33148485 12.666667
-0.6458438 3.4317732 0.45384362 11.888889
-0.65251565 -5.8234096 1.160773 11.571428
-0.6633451 3.5196443 0.78738469 14.4
-0.60027236 3.6676273 0.71781516 14
-0.61620647 -5.8346343 1.728335 14
-0.63605243 -5.8212662 1.9403034 15
-0.032764006 -6.0773091 0.1544378 6.5
-0.18265316 -5.9292226 0.20725617 7
-0.21157342 -5.8324356 0.40745163 8
-0.18313146 0.47858569 0.0038655384 8.5
-0.17384201 1.1322496 -0.0069340216 8
-0.21326445 1.3915355 -0.0093912454 8
-0.1396125 1.7253803 0.055330586 9
-0.014648966 2.7638054 0.013038688 8
-0.29945785 -5.8723965 0.89234555 10
-0.16864012 1.8734951 0.41594821 14.4
-0.05735898 4.733552 0.4941515 11
-0.2857585 8.2892885 0.3401978 9
-0.25096825 -6.0035434 1.1810926 11.5
-0.10033038 -5.7925572 1.1679153 11.5
-0.28742778 8.2791452 0.56313199 10
-0.38475296 -5.9488978 1.767287 14
-0.23537846 -5.8348522 1.7509434 14
-0.22386591 -6.0270271 1.9118383 14.5
-0.15391803 -5.7331533 1.9457831 15
-0.17042372 8.5792284 1.2918169 12
-0.35332388 8.295002 1.8504983 14.5
-0.14213204 8.6440954 1.8386941 14
-0.32009998 8.3008585 2.1427858 15
-0.10641596 8.6579638 2.1743453 15
0.10505985 -6.1880279 0.23369227 7
0.17379968 -2.9055324 0.086052202 7
0.22332397 -2.1686537 0.077195026 7
0.28644642 -1.2746526 0.054872297 7
0.31027043 -0.97715062 0.036783468 7
0.34181416 -0.55828875 0.019390058 6.6666665
0.35964423 -0.35769925 0.0018095158 6
0.38635805 0.35384521 -0.030263295 5
0.380734 0.48827451 -0.017084369 6
0.2328624 -6.1445093 0.41532838 7.6666665
0.27792442 -1.3619835 0.06598556 7
0.33418602 -0.60734767 0.036142573 7
0.35218638 0.38887399 0.0011681169 6
0.20872441 0.55206782 0.0058300542 7.8571429
0.27008399 0.93700081 -0.015826458 6.6666665
0.26046067 1.2770481 -0.015774732 7.3333335
0.24941239 1.7913334 -0.022484468 8
0.071460947 2.2431118 -0.033048667 8
0.25823927 2.6808677 0.077568486 8.8000002
0.35737592 2.9815001 -0.057357568 8
0.27214327 5.9055777 0.11674339 9
0.16607438 -6.1183147 0.95801985 10
0.1711003 3.0086205 0.61422169 14
0.24542874 4.08919 0.47472647 11.5
0.0070523364 4.7802978 0.4763732 11
0.1194986 5.0226049 0.43634585 10.5
0.22407943 -6.081295 1.1912838 11.5
0.075670734 -5.9467921 1.2371975 12
0.23807348 3.2221189 0.7202422 14.5
0.17972371 -6.0928998 1.8850454 14.25
0.03341195 -5.8353958 1.9785872 15
0.056515053 8.9882402 1.8934363 14
0.27085665 9.4127178 1.9601096 14
0.054468703 8.8710279 2.2852664 15
0.25977883 9.147687 2.3557363 15
0.33825153 9.4212284 2.2885311 15
0.77948588 -0.85333204 0.024832994 6
0.41665596 -0.54171681 0.020549918 6.6666665
0.55573696 -0.21779373 -0.0025130515 6
0.42379573 0.3232761 -0.014075072 5.5
0.43825111 0.46290562 -0.0099727074 6
0.74198514 -6.4818153 0.42170653 7.5
0.54348642 -6.2576914 0.44424418 7.6666665
0.40668377 -0.50908589 0.032416999 7
0.44833189 -0.36879876 0.024875568 7
0.42398128 0.37617487 0.0069056186 7
0.43804806 0.49876606 0.0059133191 7
0.49642372 0.98130596 -0.0070840535 7
0.54040033 1.3672255 -0.0067351861 8
0.59203768 1.8134919 -0.0092283748 8
0.62845391 2.1112299 -0.018297244 8
0.68017262 2.5830913 -0.010105385 8
0.74053574 3.3503723 0.092504524 8.666667
0.77008271 3.7786033 0.16528358 9
0.51588696 -6.1163278 0.97013694 10
0.69667047 2.7920513 0.40551999 12
0.52226067 2.9898126 0.54706401 13.333333
0.75315261 3.4152405 0.67642093 13
0.73962212 3.8253663 0.29981369 10
0.55071312 -6.2264199 1.2197893 11.4
0.68813652 3.5502312 0.8033396 14
0.55464727 -6.4342675 2.0924625 14.5
0.67898619 -6.1905203 1.9242854 14
0.4260188 9.6259928 2.1667585 14
0.88944602 -5.8181415 0.24138536 7
0.88752145 -0.80428988 0.027082378 6
0.81325042 -0.53193825 0.016269414 6
0.83769727 -6.5650859 0.39355144 7.5
0.92094576 -5.7598758 0.48642188 8.1999998
1.0422239 -5.5414128 0.29107302 7.5
0.87615329 -6.5749812 1.0640315 10
1.0880558 -6.2402182 0.95724022 10
0.93980843 2.9871092 0.60017759 13.333333
0.89549643 3.4518061 0.66262966 13
0.87065911 6.2263627 0.34934431 10
0.86990428 -6.5292702 1.2786174 11.5
1.0097245 -6.2176251 1.271891 11.5
0.79201019 3.4112754 0.72617394 14
0.87962866 3.6496768 0.69645923 13
0.94059259 -6.1649289 1.8576684 14
0.82105678 -6.5929732 2.2314687 15
1.0963643 -6.2157574 1.8701813 14
1.1073754 -6.7469459 2.3314295 15
0.8372649 -6.6108055 2.3091719 15
1.2100388 -5.6370358 0.2379906 7
1.4178559 -5.5566902 0.18947756 6.6666665
1.2706561 -5.6435251 0.50750649 8.333333
1.4233373 -5.5273919 0.50156617 8.3999996
1.3314701 -6.3381529 0.96543503 10
1.3614869 -5.7176394 0.91134596 10
1.4389882 3.4917314 0.44715551 11.166667
1.4297526 3.8485284 0.54327214 11.5
1.2805247 4.6374846 0.516325 11
1.4613717 5.9850159 0.54507923 10
1.3483121 6.0502119 0.52368814 10
1.4190701 -6.3710885 1.2859275 11
1.2844808 -6.3033886 1.2762846 11.5
1.5470201 3.7966287 0.72792393 13
1.4679395 -6.9326119 2.2067275 14
1.4333072 -6.413938 1.9230518 14
1.2598952 -6.3045993 1.8938251 14
1.4505799 11.629228 1.5599974 12
1.360094 -6.8832326 2.3919103 15
1.3691562 11.336264 2.2718594 14
1.3239839 10.165606 2.6435392 15
1.2853774 11.459505 2.5178158 14
1.8319653 -5.7630539 0.16435322 6.5
1.7517343 -2.9454999 0.083676547 6
1.8071855 -5.7125773 0.54875523 8.333333
1.9573187 -5.0676351 0.54811603 9
1.8929507 -6.7059474 1.0006484 10
1.6300124 3.4543278 0.57704824 12
1.7017964 5.5634694 0.48291299 10.25
1.7607605 -6.5647073 1.3424578 11.333333
1.8104591 3.5930629 0.80173391 13
1.705346 3.7143462 0.9110502 14
1.8353239 -6.7750349 2.0193446 14
1.6244681 -6.5683441 1.9640692 14
1.7476894 -6.94065 2.4579329 15
1.6266302 11.92955 1.7702132 12
1.8194647 12.347689 1.6431828 12
1.7815011 10.043205 2.6501856 15
1.6073974 11.86993 2.5998898 14
1.74665 11.719799 2.8086555 15
2.3805294 -6.1487403 -0.0090133222 6
2.1799896 -5.9830356 0.21419753 7
2.0059435 -5.0374904 0.24109095 7
2.3157077 -6.0139842 0.65940851 9
2.111908 -5.8835678 0.59230709 8.5
2.149996 -5.0295744 0.45582828 8.5
2.1916816 -6.8526759 1.01819 10
2.2361381 -6.7952476 1.4290167 11.666667
2.0278704 -6.7216182 1.3075882 11
2.1522677 -6.8335838 2.0480103 14
2.1827288 12.471933 1.4399399 11.5
2.0643122 -6.8330417 2.4544754 15
2.2972887 -6.6569843 2.4551618 15
2.2673542 12.42175 1.8673447 12
2.3094885 12.660906 2.7629468 14
2.1957264 13.132795 2.5709705 13
2.2306161 12.52963 3.0173695 15
2.4600997 -2.5712066 0.082073279 6
2.6919842 -6.2106872 0.61930859 8.333333
2.7721195 1.1645089 0.24415338 9
2.6878507 1.3948495 0.28134486 9.5
2.7523396 1.6878338 0.30091482 9.5
2.4709594 -6.6252623 1.0055701 10
2.7660701 -3.0502031 0.5983721 10
2.7532818 1.5707297 0.60530221 12.5
2.7384775 1.6883638 0.62341511 12.5
2.5360913 -6.7030787 1.4329463 11.333333
2.728466 1.6187977 0.95358694 15
2.4249592 8.9115982 0.52401662 10
2.5179555 -6.4850492 1.9950823 14
2.704541 -6.2893348 1.9686974 14
2.5735087 -7.578671 2.4215422 14
2.3993194 -6.7230506 2.4561541 15
2.5315609 -6.5666718 2.45541 15
2.5767276 12.496323 1.8966529 12
2.3961265 9.6812668 2.356427 15
2.5734529 13.451342 2.6247654 13
2.9301193 -5.8233166 0.55710632 8
3.1235747 -5.4004893 0.5562889 8.5
3.1498401 -2.9007943 0.43779978 9
3.0142617 -2.5900941 0.36253509 8.333333
3.1776621 -2.1811266 0.31496993 8.5
2.8949749 1.101622 0.23133598 9
2.939671 1.4719825 0.33557922 9.75
2.8029759 1.8118359 0.39047834 10
3.1116283 -6.6371193 1.0274814 10
2.9158053 -5.7717004 0.70110029 9
3.0790284 -5.4660187 0.70973462 9
2.8318665 -2.913183 0.60554898 10
3.0135977 -2.6218128 0.62287927 10.4
3.1420679 -2.1957214 0.65580404 10.8
2.9857976 1.4744208 0.6031599 12.111111
2.7989786 1.8016274 0.57722384 12
2.8950655 -6.8270698 1.3800079 10.8
3.1116805 -6.6782947 1.3706975 11
3.045903 1.4555464 0.95022696 14.666667
2.7910941 1.8142484 0.98853689 15
2.9298043 -6.9853749 2.316596 14
2.9013591 -6.1362376 1.9546304 14
3.0988677 -5.8114195 1.9079134 14
3.0808918 -5.4190173 1.9861569 15
3.08253 11.980886 1.4026949 11
2.8239679 -7.1974411 2.3550608 14
2.8238139 -6.409029 2.4559689 15
3.0163085 -6.2716451 2.4560764 15
3.0626073 11.983644 1.8731401 12
2.8015313 12.128712 1.8708875 12
2.9929748 10.552121 2.398109 14
2.8273284 13.735582 2.9729648 14
3.4218383 -4.8320003 0.25854811 7
3.243681 -5.184444 0.61407107 9
3.3318095 -4.990366 0.52866828 8.3999996
3.5143311 -4.6818652 0.4345659 8
3.2775028 -2.6051676 0.42722741 9
3.2716007 -2.1203485 0.32486251 8.333333
3.4634321 -1.7860715 0.33941859 8.5
3.5258801 -1.4213326 0.46364477 9.5
3.398953 0.63077629 0.31853512 9.1428576
3.5506017 0.86324102 0.30219811 9
3.5002987 1.3423626 0.30647597 9
3.2024858 2.3878586 0.27709666 9
3.2128265 -6.4403687 1.0167648 10
3.3490715 -6.1514716 1.0028318 10
3.4437945 -5.4861932 0.96141946 10
3.5250537 -4.6675839 0.9156372 10
3.2095296 -1.9912812 0.63025576 10.5
3.3454013 -1.7968464 0.62688601 10.75
3.521991 -1.3570603 0.64981669 11
3.3696909 0.68832332 0.51473558 11
3.3860204 1.3333861 0.61045408 11.5
3.216017 2.3585157 0.56371617 11
3.4719224 6.6145864 0.27536327 9
3.2438231 -6.4488759 1.4699088 11.5
3.3928926 -6.1737423 1.4337746 11.4
3.5541725 -5.8152657 1.3255355 11.333333
3.5246816 -4.5989809 1.2393587 11.666667
3.3797681 1.3407726 0.9973985 14.6
3.2045569 2.390626 1.0066428 14
3.2285988 -5.5610118 1.8736304 14
3.3542292 -5.3270402 1.8439338 14
3.4782414 -4.9746799 1.7957519 14
3.24017 2.3461125 1.1968617 15
3.2074239 -5.2135215 1.9611846 15
3.3984017 -4.9536242 1.9886413 15
3.4873536 -4.652257 2.0440438 15
3.3458061 11.849588 1.3960849 11
3.3636138 -6.1388226 2.4446802 15
3.256659 11.883865 1.7671367 12
3.4606898 10.327195 2.3765609 14
3.344089 11.900821 2.3742023 13
3.7682047 -4.1673021 0.20669629 7
3.6129961 -4.4818807 0.44908786 8
3.7380905 -4.1920571 0.45902294 8
3.9059889 -3.9288373 0.39308432 8
3.9501443 -2.453059 0.21084659 7
3.7380912 -2.0256884 0.24646305 7.6666665
3.6525631 -1.3658866 0.30722445 8.333333
3.8244488 -0.96291512 0.23542544 7.5
3.8029594 -0.71153969 0.26813468 8.25
3.6341314 1.0591462 0.28238869 8.75
3.6016102 1.2379309 0.33911496 9
3.7916908 3.4058089 0.28643718 8.666667
3.6345553 -5.5058675 0.97427261 10
3.6112905 -4.4538889 0.79505873 9.5
3.7092993 -4.2331986 0.83511835 10
3.8766265 -3.9263816 0.90393102 10
3.657213 -1.2239387 0.65753222 11
3.7520502 -1.054837 0.61246616 10.333333
3.7708938 1.1272831 0.63124597 11.166667
3.6178851 1.2303816 0.49995223 10.5
3.8280833 3.4002409 0.56020355 10.4
3.6318772 -5.6719398 1.3582578 11.666667
3.7344639 -5.4776688 1.3451962 11.5
3.633136 -4.5089898 1.2840436 12
3.754133 -4.13869 1.2398207 12
3.8897259 -3.9187284 1.1366869 11.5
3.7967703 1.1438972 1.0430695 14
3.8263202 3.5751915 0.982234 12.5
3.5946434 6.6012144 0.67687929 10
3.6879086 -4.8946881 1.811148 14
3.6822534 -4.5302773 1.7468927 14
3.758045 -4.1396966 1.6961933 14
3.9100356 3.3238785 1.3445452 14.5
3.6451683 -5.6508827 2.2864249 15
3.6706388 -4.7866488 1.9500226 15
3.6308489 -4.3948755 1.8691425 15
3.7736206 -4.1641502 1.8551342 15
3.7638464 11.620462 1.7694596 12
3.5656445 11.715186 1.8819795 12
3.7320597 11.660108 2.3409886 13
3.6032376 14.142211 2.9789412 14
3.591336 13.415129 3.2455499 15
3.9963624 -3.90379 0.334497 7.5
4.276999 -1.2082846 0.28578982 8
4.0989132 -0.65171188 0.32101923 8
4.1465807 3.1300359 0.21095969 8.1999998
4.131846 0.97240335 0.70952946 11.166667
4.1405516 3.122251 0.52756929 9.833333
4.0237751 3.2630806 0.69014442 11
4.259213 4.3826842 0.61175948 10
4.3272204 8.5845203 0.54043663 9
4.2083707 -3.9830937 1.4368896 13
4.1034174 -3.9340932 1.3682011 12.5
4.153399 0.96149814 1.0751979 13.833333
4.062252 3.1650083 0.95902628 12.5
3.993197 3.2715576 0.97313803 12.5
4.2866621 4.3727446 0.89459658 11.666667
4.3232012 -4.1000824 1.7923075 14
4.2503786 0.91372234 1.3318065 15
4.0659866 3.153743 1.3621378 14.5
4.0050077 3.2814584 1.36913 14.5
4.2546468 4.3676267 1.2828285 13.5
4.3542213 -4.1150384 1.9644239 15
3.9707081 -3.9048634 1.8492297 15
4.2856956 4.3869324 1.7548004 15
4.1670804 11.408326 1.5091076 11.5
4.0716896 11.462838 1.8901951 12
4.1104841 11.420224 2.3096278 13
4.0952172 13.418149 3.2780488 14
4.5953231 -4.0917602 0.16679344 6.6666665
4.6447563 -3.8605912 0.21655999 7
4.5325356 -3.3277631 0.15102147 7
4.6486392 -3.086864 0.16532494 7
4.420207 -1.5881503 0.11261781 7
4.5245528 -4.1273832 0.4870761 8
4.7574086 -3.7340655 0.40310732 8
4.6636105 -1.3473371 0.41477171 8.333333
4.63551 -1.0972466 0.28759703 8
4.4239187 3.0023911 0.21902372 8
4.5435491 -4.0806928 0.8744173 9.5
4.782331 -3.6378496 0.83604658 10
4.5812435 0.74082673 0.74540645 11.2
4.4020143 0.83050436 0.68272859 11
4.4348211 2.9746876 0.41773489 9
4.5404587 -4.0598693 1.2658775 11.5
4.7057137 -3.7588036 1.3845773 12.5
4.5618382 0.75060409 1.1137185 13.333333
4.4296021 9.3410473 0.55531514 9
4.5443854 -4.0456376 1.6567293 13.5
4.6870484 -3.7867422 1.718737 13.666667
4.54282 0.76948029 1.4048531 15
4.5545416 -4.0247254 1.9944948 15
4.6866245 -3.776093 1.9882222 15
4.5411921 13.213952 3.2662172 14
4.8012333 -3.6301301 0.23696969 7
5.1045756 -2.9997351 0.1144181 6.3333335
5.1638637 -0.070232362 0.1101009 6
5.1544261 0.11308327 0.039523531 6
4.8410139 -3.6328568 0.4193185 8
5.1423669 -2.8782024 0.47202823 8.5
5.1273851 -0.024573622 0.23006311 7.3333335
5.0776334 0.20865589 0.2812531 7.625
4.9184232 0.52864647 0.26683345 7.75
4.9365807 -3.3647358 0.93013316 10
5.1089582 -2.9685738 0.93063408 10.333333
5.016151 0.29632559 0.68112046 10
4.910183 0.55407518 0.75506598 10.8
4.8149924 -3.6123676 1.3246167 12
4.9136791 -3.3811219 1.3137689 12
5.0850201 -3.0761449 1.3389677 12
4.8520823 0.29734269 0.90961915 12
4.9561663 0.54765022 1.135666 13
4.8040977 -3.5964358 1.7075276 13.5
4.9651489 -3.2704289 1.6369803 13.666667
5.1075568 -2.9650033 1.6266285 13.833333
4.8876104 0.59815603 1.4854355 15
4.7925711 -3.5972989 1.988696 15
4.9294643 -3.3583655 1.9907761 15
5.0708909 -3.0474768 1.9902979 15
5.1168957 13.300589 2.9825382 14
5.0783987 11.646034 3.2903311 15
4.8223128 11.774996 3.2888885 15
4.8393626 13.094385 3.2643836 14
5.220408 -2.8186512 0.17736298 7
5.3270922 -2.615747 0.1241208 6.6666665
5.4546423 -2.2178214 0.10582907 6.75
5.4445901 -0.20695581 0.084384941 6
5.2281094 -2.7955761 0.53469235 9
5.3021297 -2.6675055 0.45492131 8.1999998
5.4694424 -0.19437702 0.38385087 8
5.2343755 0.30391338 0.3841044 8.5
5.1880751 -2.8012774 0.92369455 10
5.3216653 -2.5807421 0.93189222 10.5
5.561162 -2.0489399 0.91138768 10
5.3983564 -0.13248438 0.65289873 10
5.3181195 0.28554139 0.66939873 10
5.2011585 -2.8431604 1.1795081 12
5.3097367 -2.5500326 1.2442276 12
5.4085355 -2.2693715 1.1989822 12
5.3796911 0.32255119 1.1799434 12.75
5.190114 -2.7968624 1.5468268 13.5
5.3371086 -2.5261624 1.5829093 13.6
5.4582005 -2.185029 1.5874696 13.6
5.2894139 0.377134 1.5310893 14.666667
5.1785398 -2.8496323 1.9170953 15
5.3441272 -2.5105147 1.9310198 15
5.4378519 -2.253896 1.9395627 15
5.3412395 6.6369386 2.3192382 15
5.3562388 11.005835 2.2771177 13
5.4842863 8.1372089 2.6272757 15
5.4004831 13.11214 2.9637108 14
5.3403969 11.534857 3.2953682 15
5.4514713 12.893641 3.2702324 14
5.121748 12.933358 3.2537851 14
5.7498612 -1.8440353 0.10425837 6.5
5.9642119 -1.2972015 0.039151557 6.5
5.8062234 -0.4664714 0.15189488 7
5.7074738 -1.8726639 0.37952048 8
5.9548731 -1.3016698 0.5062418 8.5
5.9422112 -0.52962923 0.28437796 7.5
5.6613102 -0.31012741 0.33055469 8
5.7602234 -1.7378749 0.91652459 10.5
5.9037809 -1.4272287 0.89240777 10.333333
5.6745658 -0.33282122 0.65049356 10
5.8137145 0.10883391 0.90750617 11
5.6504169 6.8407931 0.31854129 9
5.6088223 -2.0626299 1.2285094 12
5.7053404 -1.7688688 1.1968659 12
5.9050503 -1.4089922 1.1570725 11.5
5.8101702 0.10879769 1.0710057 12
5.6208043 -1.9702387 1.6156754 13.5
5.7351952 -1.7300075 1.6319755 13.5
5.8910475 -1.4639031 1.5781678 13.5
5.9296255 0.049022906 1.3770018 13
5.7527046 0.14158066 1.5351669 13.666667
5.5718288 -2.0443175 1.8523716 15
5.7450824 -1.7167419 1.8881133 15
5.8527002 -1.4870272 1.8732078 14.5
5.7069025 0.1720262 1.7697542 15
5.8356733 7.5090857 2.280623 14
5.7423496 10.800527 2.2587898 13
5.5787458 11.364596 3.2860072 15
5.8841867 11.338927 3.3140764 15
6.2239575 -1.1153907 0.48099974 8
6.0199704 -1.224629 0.867796 10
6.1815052 -1.1115098 0.88778806 10
6.2230787 -0.11100223 0.91111374 10.5
6.1095753 -1.2085671 1.1657349 11.5
6.1829681 -1.1470513 1.2994051 12
6.1968861 -0.09362752 1.1773719 11.5
6.2371669 8.0132093 0.87633365 10
6.0373449 -1.2557731 1.5706786 13.5
6.2092814 -1.1132586 1.5872871 13.5
6.1903148 -0.096395731 1.5969945 13.666667
6.2245989 8.0518904 1.4171184 11
6.1881185 8.0745153 1.3292999 11.5
6.3683949 13.143267 1.168178 10
6.0247111 -1.2282912 1.934921 15
6.2571764 -0.93581355 1.9987792 15
6.1867142 -0.073394619 1.9385 15
6.2113166 8.0207396 1.6882496 12
6.165277 6.0713916 2.326098 15
6.1466136 7.3003116 2.2903786 14
6.1919265 10.708967 2.2622471 13
5.9406371 8.0210047 2.6625009 15
6.0947938 11.120308 3.2941079 15
6.0002232 12.820162 2.9437699 14
6.0497017 12.651114 3.2713497 14
6.4517145 -0.71405405 0.013193256 6
6.5620394 -0.42591593 0.34031877 8
6.6953921 7.55621 0.12560695 8
6.3900552 -0.82696915 0.86162758 10
6.5297298 -0.54685867 0.76476365 9.333333
6.6006517 5.5890102 0.3408708 8
6.7061896 7.5376811 0.41488463 9
6.5107889 7.6746597 0.42754543 9
6.6893129 8.8389511 0.36553505 8.5
6.5648746 11.925989 0.26559785 8
6.5705576 -0.40121853 1.2010975 11.5
6.5201406 -0.27038467 1.1516355 11.5
6.5597844 8.7633219 0.88375098 10
6.5444875 -0.47409114 1.5713984 13
6.5168247 -0.28639823 1.5820459 13.333333
6.6119132 8.9075222 1.3934914 11
6.6764793 12.988497 1.1923058 10
6.4204459 -0.76124668 1.8783013 14
6.4921775 -0.46978661 1.9450001 14.5
6.4221153 -0.19876508 1.8398994 14.5
6.7451024 6.4669113 2.2904947 14
6.4546285 7.7076874 2.1139574 13
6.6756363 8.8805141 2.0099716 13
6.5861912 8.9255466 1.8118564 12
6.5892859 13.05326 1.9096167 11
6.3553782 8.7726784 2.277771 13
6.5296507 13.033863 2.2383382 12
6.5770192 12.496201 2.9216936 14
6.5759635 12.539203 3.0957847 14
6.3418856 12.516513 3.2691548 14
7.0210695 7.3707304 0.12489087 7.3333335
6.9677453 7.414021 0.40685046 8.75
7.1323762 11.650458 0.2768603 8
7.0973868 12.209824 0.24488133 8
7.1548152 12.089338 0.78936499 9
7.1338606 12.786741 0.60287237 9
6.9854083 12.356441 0.92965335 10
6.7950816 12.940788 1.5348934 11
6.889432 12.903468 1.9093786 11
6.9188099 6.8489151 2.2985699 14
7.0684099 10.425502 2.2564399 13
6.9617009 12.792991 2.2452726 12
6.9550304 12.328456 3.0577824 14
7.4050045 7.1335702 0.13619797 7
7.2455006 7.2300463 0.15441704 8
7.3377237 7.1726856 0.49159169 9
7.5373745 -1.3110875 1.3435168 11
7.3316584 7.1848383 0.89638519 9.666667
7.2359605 11.653406 0.57606107 9
7.4541492 12.663602 0.59624189 9
7.3270345 7.1920152 1.296625 10.666667
7.2628436 12.629119 1.1249112 10
7.2760191 7.2414627 1.8129756 12
7.3957219 12.621331 1.5197581 11
7.2951202 7.231298 2.1106546 13
7.3382139 12.666444 1.906477 11
7.5257607 7.1148019 2.3032048 14
7.379437 10.346642 2.2602298 13
7.261713 12.640718 2.2508502 12
7.4628763 12.048282 2.9026952 13
7.4658799 12.001579 3.2050509 14
7.1666427 12.195756 2.9068496 13
7.8030348 -1.0150363 0.19259132 7
7.7082233 -1.2194653 0.27308124 7
7.7891002 -0.91498148 0.39261281 7.5
7.6447821 11.38557 0.032802716 8
7.7688122 -1.250464 1.0246477 10
7.7562604 -0.97763354 0.69885868 9
7.9445982 11.137918 0.24235621 8
7.7208657 11.34779 0.203099 8
7.6433949 11.837335 0.21412048 8
7.6387529 -1.2016144 1.197229 11
7.7832913 -0.97366804 1.1890568 10.6
7.886167 -0.70048183 1.2598796 11
7.8840089 11.124964 0.84907252 9
7.8738217 12.106904 0.58165556 9
7.7203941 -1.2474742 1.5591823 12
7.7957253 -0.98096138 1.6920485 12.5
7.9127669 -0.67371869 1.4493451 11
7.6371646 12.577499 1.1163319 10
7.8498693 11.138497 1.6301748 11
7.850903 11.187851 2.1450479 12
7.7968607 12.457087 1.9090706 11
7.6887503 12.396273 2.2583811 12
7.759181 11.891003 2.895736 13
7.7696404 11.872041 3.2210996 14
8.0928297 12.458876 1.0088344 10
7.9848533 11.118526 1.7189871 11
8.2186632 12.027445 1.8005195 11
8.11098 12.317268 1.9099693 11
8.1247597 12.162793 2.2670133 12
8.059391 11.74345 2.8926711 13
8.3041563 11.598783 3.2097042 14
8.0155077 11.754352 3.188601 14
8.6004601 10.91451 0.15203103 8
8.3795633 11.554596 3.2369533 14
8.8100796 10.784348 -0.042396981 6
8.9890718 10.875992 0.13080113 8
17.640041 28.821192 2.9856844 10
18.399572 28.540751 2.9764092 10
