# .PCD v0.7 - Point Cloud Data file format
VERSION 0.7
FIELDS x y z intensity
SIZE 4 4 4 4
TYPE F F F F
COUNT 1 1 1 1
WIDTH 790
HEIGHT 1
VIEWPOINT 0 0 0 1 0 0 0
POINTS 790
DATA ascii
-6.803997 -2.4481812 0.60735452 9.5
-6.6519771 -2.2322097 0.26924139 7.75
-6.6306639 -1.804293 0.28657392 8.1428576
-6.4972329 -1.5437371 0.14872442 7.5
-6.6151657 -2.1428704 0.62317079 9.5
-6.7082157 -1.7909536 0.642573 9.5
-6.7251239 -1.5473822 0.66011918 9.5
-6.4666743 -3.8667741 1.1011587 11
-6.4302278 -3.5271356 1.1014016 11
-6.6143961 -2.522028 1.0327008 11.5
-6.6628537 -2.1700406 1.0153418 11.2
-6.5831699 -1.8572845 1.0015246 11.333333
-6.7175055 -1.5561053 1.2121469 12
-6.5559926 -4.7268634 1.3418479 12
-6.4261193 -3.7674046 1.4387382 12.5
-6.4166942 -3.4517283 1.3107227 12
-6.7639565 -2.5547659 1.5048851 12.666667
-6.6133695 -2.1670938 1.4111805 12.6
-6.7040405 -1.742396 1.3800321 12.6
-6.5399466 -1.4703593 1.552428 13.5
-6.4870377 -3.8661785 1.7574054 13
-6.7537589 -2.47838 1.7129756 13.5
-6.6606331 -2.1753399 1.737237 14
-6.6071968 -1.7985144 1.7098215 14
-6.6993933 -1.5282776 1.7657988 14
-6.1013231 -4.1498203 0.20248207 8
-6.1060777 -2.3382449 0.30414745 8
-6.3086729 7.8076978 0.10505182 7.5
-6.0071959 -4.1158404 0.82625562 10
-6.0877666 -2.3223927 0.60383511 9.5
-6.3230753 7.7551913 0.52833486 9
-6.149148 -4.1026387 1.0647923 11
-6.3733501 -2.71029 1.1134578 12
-6.0244527 -2.3661578 0.8746146 11
-6.2845292 7.870995 0.82525653 9.5
-6.1639628 -4.6790366 1.5152482 12
-6.1740756 -4.1747723 1.3489822 12
-6.3911724 -3.6265945 1.2863686 12
-6.3756943 -3.2879133 1.4356232 12.666667
-6.3624959 -2.9818752 1.4052258 12.5
-6.3299537 -2.6604822 1.4495285 12.666667
-6.2519655 7.9639888 1.1991003 11
-6.1819491 -4.470139 1.7321579 13
-6.245007 -4.1073632 1.7249819 13
-6.3801255 -3.3375528 1.7196742 14
-6.3506851 -2.9689474 1.70408 14
-6.3272409 -2.6199548 1.6928064 14
-6.2307992 7.7266545 1.8102552 12
-6.1776524 -4.1298957 2.1954217 15
-6.395926 -3.9451554 2.2234554 15
-5.7852917 -4.1297507 0.36319262 8
-5.6833882 -3.6809242 0.23037079 8
-5.6328907 -3.4393208 0.39411008 9
-5.6283879 -3.048094 0.29654789 8.333333
-5.6977253 -2.6005256 0.20941402 7.6666665
-5.7938538 5.9703474 0.28465679 8
-5.813889 6.2376904 0.31445879 8
-5.8139882 6.6014128 0.10659847 8
-5.8210649 -4.1313987 0.64111656 9.333333
-5.6588206 -3.6867447 0.54370302 9
-5.6283078 -3.4089274 0.80967569 10
-5.6109061 -2.9777498 0.65340286 10.166667
-5.702054 -2.5575538 0.52039957 9.333333
-5.7387757 -2.3536499 0.54259592 9.5
-5.7873001 5.8819165 0.4744035 9
-5.7958312 6.2436552 0.59038186 9
-5.8002486 6.6472545 0.48650822 8.666667
-5.8471403 -4.1393766 1.0696168 11
-5.72333 -2.9562678 1.029071 11
-5.7714381 -2.4968653 0.84716207 11
-5.7942839 6.2017097 0.78288233 10
-5.7903047 6.5785913 0.95617783 10.5
-5.8088527 6.8517251 0.92600012 10
-5.7836485 -4.6947021 1.4171064 12
-5.7526336 5.8551717 1.2387463 11
-5.7699995 6.2537489 1.3745011 11.666667
-5.7977099 6.4837604 1.331135 12
-5.7854261 -4.6914301 1.6783034 13
-5.7159772 2.3760591 1.8246514 15
-5.7421136 6.5859613 1.8635193 13
-5.753696 6.8327971 1.6524776 12
-5.7798963 -4.2821164 2.118197 15
-5.6964321 5.9319153 2.2488017 15
-5.7545381 6.3947644 2.0808723 14
-5.7245674 6.6541815 2.1273768 14
-5.8647218 7.540679 2.0396872 13
-5.4436431 -4.1845527 0.24032821 8
-5.5019555 -3.251637 0.2256452 8
-5.3434753 -4.1466842 0.66183478 9.5
-5.5724483 -2.9320264 0.48681703 9
-5.5774608 -2.7369065 0.56780756 10
-5.3461432 -4.191525 1.0152839 11
-5.5814209 -2.6423941 0.82609552 11
-5.4099574 -4.7151995 1.5155054 12.5
-5.3230262 2.3491731 1.5739391 15
-5.3789101 -4.3154001 2.0282853 15
-5.5030026 2.3599291 1.6919422 15
-5.3499308 5.9136524 2.2416203 15
-5.2464495 6.0303025 2.2336833 15
-4.9758034 -4.2147002 0.24342947 7.75
-4.9974632 -3.2465127 0.18987992 8
-4.9495521 -4.1828895 0.67315644 9.666667
-4.9788961 -3.0690787 0.63116544 10
-4.9735689 -4.5014014 1.1436177 12
-5.06916 -4.1671686 0.95608747 11
-5.0574679 -4.7184005 1.4642385 12.75
-4.9279246 -4.3351378 1.9454329 15
-5.0870152 2.3371859 1.6178145 15
-4.8764205 5.8148313 2.2172284 15
-4.5613022 -4.223877 0.24791346 7.8333335
-4.584105 -4.1912823 0.60666323 9.5
-4.62708 -4.4797935 1.1087505 12
-4.600666 -4.1859422 0.91359609 11
-4.7584715 -4.755096 1.4242835 12.5
-4.5890455 2.3117201 1.4568087 15
-4.5874329 -4.3507099 1.8945274 15
-4.5894442 5.950521 2.2013431 15
-4.7704616 6.0657749 2.2053902 15
-4.1628098 -4.2575331 0.18052021 7.75
-4.0622845 2.2520909 0.28753474 8.5
-4.251729 5.1358604 0.27023479 8.5
-4.1897306 -4.2113442 0.59209651 9.5
-4.1457243 2.2645826 0.57680076 10.5
-4.2206593 5.1821074 0.63475496 10
-4.1571321 -4.228756 1.0461836 12
-4.0070734 -4.1732545 1.3617408 14
-4.2060804 2.2900636 1.2753785 14.5
-4.0589433 -4.4381819 1.7856132 15
-4.2199569 -4.2894416 1.8294297 15
-3.8088 -4.2514396 0.23371422 8.25
-3.8472767 2.2421615 0.3147071 9.333333
-3.7507362 5.1448369 0.24044207 8
-3.8829803 -4.2356906 0.57417065 9.5
-3.8123672 2.2472115 0.56490713 11
-3.8015532 5.143981 0.51321745 9.5
-3.7417881 -4.2129588 1.1055793 12.666667
-3.7884645 2.2611146 1.0147818 13.666667
-3.799963 5.1635637 0.95422828 11.5
-3.7715755 -4.2023582 1.3302087 14
-3.7477412 2.2672789 1.2860256 15
-3.7761803 5.1718869 1.3114746 13.333333
-3.7009957 -4.2178898 1.6937562 15
-3.6154382 5.184763 1.6775502 15
-3.3470914 -4.2471833 0.27615842 8.3999996
-3.381171 2.2137208 0.32227951 9.6000004
-3.3432264 5.1265087 0.2753405 8.333333
-3.476064 -4.2291837 0.57716316 9.666667
-3.3758554 2.2204947 0.59880018 11.428572
-3.4004538 5.1414409 0.62864953 10.4
-3.3816171 -4.2133341 1.1255821 13
-3.4211409 2.2371354 0.9503209 13.8
-3.4459085 5.1554141 1.0087851 11.666667
-3.393728 -4.2043381 1.3939722 14.333333
-3.4410901 5.1685772 1.3418018 13.5
-3.3895113 -4.1986098 1.6349829 15
-3.3414409 5.1712713 1.6548238 15
-2.9904552 -4.9457583 0.18049583 7.5
-3.0592482 -4.5804548 0.24053356 8
-3.0712817 -4.2839613 0.29728812 8
-3.0901163 2.2969131 0.32308733 9.5
-3.0728195 2.5385962 0.32699302 9.333333
-2.9662075 5.0599804 0.31518242 9
-3.0671639 -4.4834757 0.70793051 10.5
-3.0892186 -4.2676368 0.60609514 10
-3.0787346 2.3245907 0.57023233 11.5
-2.9971859 2.6110587 0.58040005 11.545455
-2.9253359 3.0297287 0.6023553 11.5
-2.9885693 5.0737205 0.58537042 10
-2.944006 -4.917356 1.1397867 12
-3.0300806 -4.4716001 1.109313 13
-3.1841128 -4.2641182 1.1077042 13
-3.0620453 2.3105717 0.93048328 14
-3.0265517 2.6110663 0.9535256 13.875
-3.0102801 3.0268822 1.0198433 14
-3.0438066 5.1148663 1.0684232 12.5
-2.9697335 -4.861393 1.2875351 13
-3.0290043 -4.5065141 1.4440099 14
-3.0797243 -4.2714572 1.3634813 14
-2.9997082 3.0569522 1.2233888 15
-3.126508 5.1572304 1.3261023 13.5
-3.0098991 -4.8521004 1.6916615 15
-3.0154412 -4.6224976 1.6593148 15
-2.963939 5.1034479 1.6143421 15
-2.7532105 -4.9381409 0.16017041 7.5
-2.6152122 -4.7610312 0.28034946 8
-2.4804735 -3.1610122 0.2020127 8
-2.7858546 2.6910141 0.27006391 9.5
-2.5057006 5.0631213 0.35015365 9
-2.4682517 -4.9702678 0.7281003 10.666667
-2.53756 -2.981071 0.71136421 12
-2.7266452 2.6883583 0.46893314 10.5
-2.5845587 5.049396 0.61570412 10.333333
-2.5790098 -4.9336925 1.1111819 13
-2.6283898 -2.8423789 0.82690597 13
-2.6019697 5.0330253 1.0262543 12.333333
-2.6011205 -4.9328923 1.3734453 13.666667
-2.5907354 5.0595822 1.3624645 14
-2.6241515 -4.8972239 1.6484673 15
-2.4864433 5.0805216 1.5774164 15
-2.0547478 -4.5950837 0.2331101 8
-2.0494449 -3.210304 0.2999866 9
-2.3099945 -2.9255936 0.27394408 9
-2.3097024 5.090682 0.36027724 9
-2.255218 -4.9894643 0.67794579 10.5
-2.1531703 -2.9000518 0.64221108 11.666667
-2.181587 5.0915141 0.51365083 10
-2.1767352 -4.9513054 1.2137592 13
-2.1996884 5.1062307 1.0301399 12.5
-2.1934116 -4.9281101 1.5788646 15
-2.1544876 5.1184373 1.3953272 14.25
-2.391897 -4.9363766 1.6412086 15
-2.2204516 5.1266837 1.5700074 15
-1.7371929 -4.988555 0.20655644 8
-1.9152726 -4.6546693 0.070835479 7
-1.7996315 -3.7234836 0.23069522 8.5
-1.8444227 -3.3373036 0.31523442 9
-1.8208249 -2.9274955 0.2853578 9.333333
-1.9401778 -4.6244569 0.54123634 10
-1.7243375 -3.3882246 0.68029475 12
-1.7764403 -2.897213 0.5495218 11.166667
-1.8478801 5.0717635 0.55681974 10.166667
-1.7934903 -4.9615016 1.1820722 13
-1.7842261 5.0783415 1.0276804 12.5
-1.8106599 -4.9468756 1.5724567 15
-1.8021147 5.0952497 1.3683389 14.5
-1.4232229 -5.0393004 0.028638173 7
-1.3708572 -5.0146174 0.19865428 8
-1.2803828 -3.734993 0.21518204 8.5
-1.4136961 -3.4252067 0.30927017 9.2857141
-1.2140088 -2.9150782 0.21349408 9
-1.5013425 -3.3631661 0.67478108 12
-1.4668092 -2.9699647 0.64330477 12
-1.3947716 5.0416617 0.58812267 10.5
-1.3727423 -4.9871888 1.1539041 13
-1.3506235 5.0550036 1.0224532 12.8
-1.3839711 -4.9659438 1.4662864 14.5
-1.4264026 5.0700097 1.3676147 14.5
-0.8992399 -4.9341369 0.02483809 7
-0.8802197 0.85542631 -0.02309181 7
-0.9097122 -4.9408197 0.15038654 8
-1.1663711 -3.7565978 0.25497615 8.5
-1.1424428 -3.3359931 0.22011699 9
-0.83844239 -3.0822513 0.40580511 10
-0.83103889 -0.30752906 0.008266083 7
-0.90486795 -4.9420719 0.59431851 10.5
-0.92279321 -3.7709532 0.61278015 11.2
-0.9814446 -2.8722522 0.65979385 12.714286
-1.0096399 5.0248675 0.60797828 10.5
-0.98225355 -4.9528069 1.1262612 13
-0.99985731 5.0349216 1.0313295 13
-0.99963778 -4.9466228 1.4410646 14.6
-0.98511511 5.0482793 1.3326781 14.5
-0.55922765 -5.0349855 0.00930434 7
-0.47975817 -0.61418003 0.0034987363 7
-0.48830086 -0.30369857 -0.0032982109 7
-0.62477863 0.23552999 -0.0086525911 7
-0.57948649 0.57702553 -0.029028002 5.8333335
-0.52519983 -5.0403967 0.13699961 7.5
-0.60939002 -3.8290873 0.11378743 8
-0.59471214 -3.2431774 0.196545 8.5
-0.59616989 -3.00471 0.27301279 9.375
-0.50500566 -2.7783954 0.32694742 10
-0.61515659 -1.4913702 0.051120825 8
-0.62041748 -0.97951669 0.028631987 7.5
-0.7450881 -0.43530259 0.0065111783 7
-0.61348814 -0.30493212 0.0061703869 7
-0.774113 -4.9568229 0.60695797 10
-0.66997397 -3.7821033 0.53829306 10.666667
-0.41235587 -3.350126 0.62090886 12
-0.6685487 -2.9209368 0.61098891 12.75
-0.63593835 5.0000482 0.62487227 10.5
-0.56666964 -5.0114985 1.0866383 13
-0.59478885 5.0134501 1.0214427 13
-0.5996471 -4.9774914 1.3749764 14.6
-0.61599541 5.0181985 1.2858669 14.5
-0.088224135 -5.0766258 -0.0045808074 7
-0.3220787 -0.82029337 0.0057300557 7
-0.20505072 -0.58957744 -0.0055593923 6.5714288
-0.34590435 -0.3895787 -0.0040677995 7
-0.31714141 0.4768405 -0.034790605 5
-0.02913978 -5.0541172 0.40957543 9
-0.21486695 -3.7869081 0.25266448 9
-0.18643887 -3.2534733 0.29894403 9.5
-0.14547893 -2.9852269 0.30352342 9.6000004
-0.3594881 -2.788919 0.40220791 11
-0.35616577 -0.8520748 0.027809868 8
-0.2092063 -0.58536077 0.0073413318 7
-0.046122696 -5.0616846 0.48520812 10
-0.23530062 -3.8555362 0.51628411 10.5
-0.2291155 -3.299088 0.61256188 12
-0.18914539 -2.9655812 0.6333105 13
-0.0955052 4.2872972 0.71153122 12
-0.19920395 4.9765272 0.66468275 11
-0.21160123 -5.0257506 1.0056032 12.5
-0.10094529 4.2813816 0.99013865 13.5
-0.19295697 4.9888225 0.97399473 12.8
-0.2060048 -5.0159812 1.3888406 14.6
-0.23893768 5.0033154 1.3506421 14.75
0.20169669 -5.1135979 -0.011772937 7
0.022388941 -0.54817337 0.0010546407 7
0.21847691 -5.1171761 0.28546119 8.3999996
0.25373468 -5.0949183 0.57502419 10.333333
0.047674004 -3.5434246 0.62204212 12
0.08858224 -2.9407959 0.62391198 13
0.21746825 4.9215069 0.65088707 11
0.20840904 -5.0802474 1.0148039 12.5
0.182227 4.9504471 0.97538537 13
0.19623202 -5.0617428 1.3727593 14.6
0.16810934 4.9595084 1.2655996 14.6
0.60028148 -5.1416588 -0.024941038 7
0.5702163 -0.044602729 -0.064119823 4
0.64074409 0.11474766 -0.062939674 4.2857141
0.78820592 0.63995546 -0.075332813 5
0.68305624 -6.5748 0.23730972 7.75
0.42081153 -5.198421 0.076100007 7
0.73382187 -1.8799359 0.29240677 11
0.70562381 -6.5623488 0.56554478 9.333333
0.5191859 -5.1863551 0.67122269 10.25
0.5738821 1.3376575 0.4092707 15
0.42732504 1.8047212 0.47784051 14.333333
0.46617451 2.2333219 0.54885203 13.8
0.46974617 2.5411224 0.63727778 14.5
0.51444834 3.0877056 0.56979382 12.4
0.5286383 3.4200571 0.76304924 13
0.53006232 3.7307794 0.62768084 12
0.57009065 4.5828857 0.5905655 11
0.46139669 4.8302484 0.64065552 11
0.62574196 -6.5180464 1.1527882 12
0.42002934 -5.1702495 1.123939 13
0.51667273 3.2803364 0.82370257 14
0.53728515 3.8242464 0.96032161 14
0.49178767 4.8428922 0.92180568 12.666667
0.68280727 -6.5321708 1.4528435 13.5
0.49009547 -5.1778717 1.4310182 15
0.53102571 4.850935 1.2647732 14.666667
0.73341316 -6.5743837 1.9208052 14.5
0.87878537 -5.1787834 -0.034496184 7
1.1074694 -0.43816045 -0.050797857 6
0.88098598 -0.28270805 -0.026125818 6
1.0277898 0.20050728 -0.05828416 5.4285712
1.0254909 0.63022441 -0.078856304 5.1999998
1.0435797 0.95398033 -0.085272349 5.5
1.1791226 1.2865214 -0.093377195 6
0.94709373 -6.590426 0.40212151 8.666667
0.86342853 -4.5873475 0.28212845 8.666667
0.92993569 -4.1667457 0.22662792 8.5
1.0067395 -3.7552967 0.30635452 9.1999998
0.99950027 -1.9254582 0.31420836 11
1.0912505 -1.2234833 0.29750898 12
1.1534913 -0.9849571 0.29651773 12.333333
0.99338007 -6.5432119 0.60828131 9.5
0.9255079 -4.2257948 0.52563095 10.5
1.0303752 -3.6715834 0.53563547 10.8
1.1326752 -3.3150403 0.79260045 13
1.00376 -1.8669294 0.42885029 12.5
0.94724798 -6.5591865 1.1520774 11.5
1.1425254 -5.2440257 1.0520082 12.5
1.1166991 -3.32863 0.8947233 14
0.99068928 -6.5183287 1.3767984 12.8
1.1810865 -5.2226577 1.3563418 14
1.0023649 -6.5555949 1.7064964 14
0.94994074 -6.5675821 2.0563843 15
1.4103258 -0.62618566 -0.033550765 6.3333335
1.2874202 -0.062673219 -0.076377653 5
1.3200556 0.2679036 -0.074946523 5.6666665
1.3912445 0.5771001 -0.082747132 5.6666665
1.3745506 0.95706612 -0.090005875 5.8000002
1.3308147 1.3996109 -0.098969772 6
1.4089459 1.6807321 -0.076658055 6.5
1.465373 -1.9990307 0.3167046 11
1.3758982 -1.9032395 0.3083263 10.75
1.4182782 -1.3275084 0.35290506 12
1.3607829 -0.9743312 0.29515591 11.888889
1.5006708 1.5560904 0.33233941 11.5
1.3645113 1.7117972 0.13140416 9.25
1.2466991 -3.6774623 0.64280593 12
1.2626816 -3.3306308 0.8104285 13
1.4479505 -2.560534 0.74761403 13.8
1.4447595 -2.1562157 0.64945745 14
1.4382914 -1.8342128 0.5357691 13.363636
1.4446083 -1.408157 0.5154506 14
1.4016234 -0.98687273 0.45965832 14.5
1.5658003 1.8940748 0.42480668 12
1.4742777 2.111608 0.47665572 12.5
1.5636168 3.1619978 0.47491804 11
1.5556432 3.2094646 0.63327295 12
1.2672342 -6.5091047 1.1234627 11.5
1.2320274 -5.2035675 1.090288 12.5
1.3109943 -5.030549 1.0585531 12.666667
1.3589199 -4.5221686 1.075067 13.333333
1.3957982 -3.7568226 1.0531114 14.333333
1.3691274 -3.3870871 0.9090904 13.833333
1.4321527 -2.9926317 0.91851747 14.5
1.4325807 -2.6490204 0.82742667 14.666667
1.2419692 -6.5027614 1.4507651 13
1.2091265 -5.2117114 1.5528182 15
1.3345696 -5.0438957 1.4042438 14.5
1.3839756 -4.5267482 1.3345294 15
1.3989114 -4.1926641 1.2727573 15
1.3043764 -6.4756207 1.8181446 15
1.6202613 -0.75559521 -0.028289745 7
1.6501017 0.37235209 -0.073080763 6
1.7527611 0.68821514 -0.088197835 6
1.721884 1.0949091 -0.10055625 6
1.7392553 1.3208621 -0.063568234 6.6666665
1.7016464 1.6555916 -0.069969073 6.5
1.6284441 -0.87239635 0.28610319 11.5
1.7524459 1.3791388 0.22583929 10
1.6883616 1.7454931 0.20344365 10
1.9496965 2.7864077 0.31315553 10
1.8360302 2.972996 0.37178972 10
1.6387391 -0.86853236 0.50065082 14.5
1.9259202 1.1785903 0.47345707 13
1.8057641 1.4635944 0.48122463 13
1.6778138 1.7585003 0.39129978 12
1.8450537 2.0714447 0.56838173 12.75
1.7883325 3.001678 0.58931744 11.888889
1.7606393 3.3069749 0.6855402 12.5
1.910549 4.8689175 0.59958565 10.333333
1.8230417 3.0359485 0.81482589 13.333333
1.916882 4.8716097 0.99342078 12.5
1.9428751 4.8831277 1.364657 14.666667
2.1721971 -1.0936111 -0.030932179 7
2.0449202 0.28197953 -0.081350937 6
2.184741 0.65032434 -0.10327729 6
2.2237062 1.062192 -0.12735717 6
2.3208892 -1.0042608 0.32559624 10.666667
2.1335015 1.3662726 0.078227066 8.5
2.3389425 -0.99705446 0.58169961 13.333333
2.1918912 1.5045174 0.5727337 13.5
2.3858249 1.8691401 0.5214265 12
2.1798072 2.0673058 0.58418989 12.5
2.0273395 3.0055892 0.62414724 12
2.1753008 4.8510346 0.53962201 10
2.2223046 4.8562317 1.0103099 12.5
2.1727459 4.8694406 1.370836 14.4
2.7290416 1.014176 -0.078778401 6.5
2.5192983 1.2543551 -0.036577452 7
2.6639502 0.79822654 0.34060767 11
2.6542428 0.9905501 0.20899625 9.333333
2.4008985 1.2315445 0.20691991 9
2.6157999 1.7590486 0.16539998 9
2.6464782 2.2744894 0.35948688 10
2.6027048 2.4368603 0.36531991 10
2.6385355 3.4795511 0.32045302 9
2.7196567 0.78536284 0.519283 12
2.7436552 0.94560003 0.62600207 13
2.448787 1.9597836 0.40991083 11
2.4486315 2.8397806 0.51797038 11
2.7910359 0.91224623 0.82651073 15
2.5807407 4.8397474 1.0902976 12.5
2.5991704 4.8504024 1.3559334 14.25
2.5190988 4.861938 1.6159045 15
2.9547071 0.75682223 -0.14090663 6
3.0820971 1.5572506 -0.18974371 6
3.0090747 2.6496603 0.14820108 8.5
3.1443944 4.390378 0.31185943 9
3.1053543 4.6711717 0.32507506 9
2.9680407 0.80162871 0.77267021 14
2.9394989 0.91588157 0.65519643 13.2
2.991838 1.8095083 0.5376761 12
3.1274798 4.4040456 0.72402459 11
2.9330671 0.78151131 0.87908953 15
2.8473735 0.93302953 0.86223239 15
3.1255314 4.404613 0.96763879 12
3.1428549 4.502388 0.99146444 12.333333
3.0324469 4.8184967 0.86763489 12
3.1288118 4.6560922 1.2950423 13.75
2.9585619 4.8386507 1.4267284 14.25
3.1411254 4.6705122 1.605136 15
2.9421055 4.8404312 1.6329948 15
3.528367 0.53310996 -0.16466285 6
3.3590276 -2.0083194 0.25282079 9
3.3753433 -1.7679064 0.24222048 8.75
3.3992691 -1.4181511 0.24623381 8.833333
3.3419192 -1.0857531 0.24809296 9
3.5105567 2.5441222 0.26846561 8.666667
3.4596343 2.8428004 0.32760128 9
3.4224322 -1.3638206 0.60759848 11.714286
3.3409629 -1.0991656 0.60025632 11.833333
3.3673823 1.4599739 0.49646422 11
3.2671108 2.3455522 0.51221853 11
3.2814786 4.413012 0.72500551 11
3.429148 -1.3727725 0.97722554 14.4
3.4182417 -1.0813698 0.97047573 14.5
3.4066072 4.401896 0.92977798 11.833333
3.3195627 4.4102659 1.1222144 13
3.383374 4.4222178 1.4164177 14.25
3.5196576 4.418468 1.5739667 15
3.699213 -1.0349314 0.25739425 9
3.6151526 2.6245487 0.25552815 8.5
3.8419027 4.2480078 0.24574643 8
3.6453135 -1.0595504 0.71429068 12.5
3.6308267 1.8752064 0.53591818 11
3.6443551 -1.0660715 0.90501982 14
3.788569 4.3917003 1.1356021 13
3.8312778 4.3987103 1.3401835 13.666667
3.7281275 4.4132972 1.4289142 14
3.7626622 4.4105721 1.590628 15
4.3287158 3.0655661 0.1134138 8
4.0814161 4.1192851 0.21852212 8
4.3141422 3.1438389 0.47906816 10
4.008604 4.4003544 1.3081239 13
4.3616719 4.7648711 1.8928146 15
4.6643734 1.8557862 -0.11383491 6
4.5494747 -1.149565 0.23087193 8.5
4.7348456 1.349583 0.24663123 9
4.6352925 2.7797785 0.242696 8.333333
4.6049247 3.005827 0.24316311 8.333333
4.588819 -1.1513487 0.67398107 11
4.6936865 1.3492402 0.47716209 10
4.5811114 -1.1266612 0.89013827 12.5
4.6089621 -1.1119193 1.3816692 15
4.574913 4.7516761 1.4471116 13.333333
4.6509094 4.7560611 1.8265853 14.75
4.9537425 1.3429388 -0.27289653 6
5.1729202 2.8216012 -0.039855134 7
4.8686309 2.701483 0.20860831 8
4.8513184 4.6931973 0.17268835 8
4.9617248 4.7207999 0.9348709 11
4.9677677 4.723794 1.3715345 12.8
5.0309958 4.7396097 1.8263947 14.333333
5.1776943 4.733789 1.972636 15
5.5869327 1.5568751 -0.063302048 7
5.24438 1.5111388 0.44461125 9
5.454638 3.4120009 0.75094283 10
5.4916959 3.0812836 0.79195035 11
5.4556565 3.3810389 0.81989425 11
5.2489738 4.7098932 0.91822088 10.5
5.3725576 4.7043958 1.3087248 12.333333
5.3439665 4.7216163 1.6776845 13.666667
5.3877015 4.7134585 1.9924246 15
5.9682198 -1.2255014 0.14771789 8
5.8639193 1.1177282 0.42665809 9
5.61024 1.3278463 0.51636648 9.333333
5.7640719 4.6833196 1.3619337 12.5
5.7546439 4.6998372 1.7134321 13.6
5.6977143 4.6598916 2.0169775 15
6.2119164 0.37375319 -0.12798527 6
6.1892309 0.55023307 -0.083824247 7
6.1818595 0.85250998 -0.045536835 7
6.2580509 3.4203742 -0.25865602 6
6.1189361 0.62888384 0.15154673 8
6.1918731 0.83385056 0.0036725271 7
6.010077 4.6674285 1.3736627 12.5
6.1656761 4.6839542 1.8540444 14
6.2422743 4.6690483 2.3097472 15
6.7414141 -2.7275589 -0.015657634 7
6.6954503 -2.6894269 0.18358138 8
6.4289994 0.39696208 0.2801756 8
6.5449586 0.51062632 0.17427623 8
6.6589355 1.3249642 0.65250248 10
6.6460061 4.6531172 1.815886 13.666667
6.7176409 -1.3062752 2.0777287 15
6.6114502 4.5436201 2.2580423 15
6.9954419 1.1037662 0.52671456 9.5
7.0681739 4.6349502 1.0176659 10.666667
7.0001206 4.6218023 1.5509266 12
6.9920006 2.6256475 1.896824 14.5
7.1136484 4.6439242 1.693298 13
6.8732281 -1.8877256 2.0756979 15
7.1796432 -1.3533158 2.0582016 15
6.9768586 -1.0910498 2.0859601 15
6.9760294 2.571928 1.993392 15
7.0819893 2.9590816 2.0850525 15
6.9238248 4.4087625 2.3560739 15
7.0327482 4.6671333 2.1810329 14
7.3292246 -1.2995511 0.11888505 7
7.494575 4.5973296 1.3145542 11
7.4716444 4.6121035 1.6503594 12.5
7.3887587 -2.0911012 2.0681286 15
7.4757423 4.5815334 2.0932329 13.5
7.4163432 4.392498 2.4290943 15
7.8863106 1.2973102 -0.071501598 7
7.9611535 1.3258514 0.12801114 7.5
7.8815236 4.5656276 1.0441755 10
7.8465805 4.5768156 1.3272444 11
7.82864 4.5805078 1.6054341 12
7.9607697 -2.193656 2.0412776 14
7.7446413 -1.3783485 2.0310812 14
7.6460958 -1.0875884 2.0273247 14
7.7302818 4.5342512 2.2443113 14
7.9398632 4.364747 2.5058379 15
8.2139006 0.95776725 0.21350205 7.5
8.14396 0.98750746 0.51931274 8.5
8.296525 4.5560727 1.049036 10
8.2325869 4.557188 1.3410337 11
8.2256823 4.5617895 1.7917541 12.333333
8.2676239 -1.2153515 2.0675507 14
8.2166405 -0.91120857 2.3586664 15
8.1005831 -0.53107995 2.3655462 15
8.072546 -0.25731689 2.3875232 15
8.2214489 0.2910791 2.3263605 15
8.2101593 0.55708939 2.3346229 15
8.1513453 1.0174613 2.3639195 15
8.1271315 2.046618 2.0920985 14
8.2544956 4.2442322 2.2582858 14
8.0907316 4.5530071 2.0259523 13
8.0816641 -0.94686162 2.4422138 15
8.082612 -0.58942974 2.458571 15
8.1005011 0.10435181 2.437566 15
8.1433201 1.2097753 2.3897436 15
8.1852951 1.4757257 2.4540944 15
8.2050829 1.8140405 2.494112 15
8.2854385 3.7747934 2.4414098 15
8.3038912 4.2212343 2.5337706 15
8.4087391 4.6329751 -0.55885142 5
8.439476 -3.2439308 -0.10174543 7
8.416028 -2.5515363 -0.13128452 6.6666665
8.4533119 -2.2495947 -0.15510692 6.5
8.6881666 -1.3401002 -0.17888539 6
8.4565372 -3.2119491 0.21989879 8
8.4339409 -2.5332437 0.24751458 8
8.4344006 -2.3536203 0.19440569 7.5
8.5278006 -1.8448784 0.08347252 7
8.6965847 -1.3459244 0.20993026 7.6666665
8.4424887 -2.5167103 0.48790395 9
8.4635267 -2.3456707 0.79914153 10
8.7013378 -1.3617051 0.60667604 9
8.4721098 -2.4767289 1.0897288 10.5
8.734436 -1.3085767 1.105827 11
8.7135296 4.5295138 1.0529751 10
8.4796486 -2.3484409 1.3563708 11
8.6495924 4.5431876 1.3584729 11
8.5067005 -2.3195431 1.6253302 12
8.654685 4.5483985 1.8008729 12
8.5690269 -0.23465841 2.3124845 15
8.4564819 0.06458196 2.3182471 15
8.4330654 2.7018161 2.2608898 14
8.7529211 3.5620391 2.2013154 14
8.5623865 3.8213129 2.2221909 14
8.5757427 4.5719538 2.0813279 13
9.0430279 4.50422 1.0278916 10
9.0966015 4.5202498 1.3748925 11
9.1166964 4.5204554 1.8348371 12
9.0297546 4.551713 2.1272371 13
9.2419434 0.81451535 0.3198114 8
9.3964586 4.466074 0.67225277 9
9.3705282 4.4795814 1.0059025 10
9.5846071 4.4989681 1.3945092 11
9.5152197 4.4401278 1.8825029 12
9.3791246 2.0003407 2.031214 13
9.3337584 4.4986305 2.1075644 13
9.6311035 -1.4460211 -0.55743718 5
9.6565418 4.4693437 1.0610352 10
9.684556 -1.3719811 1.63081 12
9.9525824 -1.1445446 1.9242291 12
9.9696884 4.4610343 1.7473943 12
9.6931219 2.0205991 2.0304189 13
9.6248026 4.3290858 2.191941 13
10.215546 4.4435754 1.067044 10
10.077618 4.456933 1.4107666 11
10.266655 -1.6276168 1.9157003 12
10.106815 4.2518973 2.1986811 13
10.413539 4.430675 1.0212549 10
10.647627 4.4272637 1.4334396 11
10.4967 4.4260316 1.7815497 12
10.65682 4.2654953 2.2302885 13
10.931982 1.0669835 0.67813873 9
10.924924 1.5187865 0.74092132 9
11.001677 2.9047041 0.57140583 9
10.903045 1.1533239 1.0351399 10
10.934533 1.3365057 1.1238269 10
10.944965 1.7740066 1.1130267 10
10.986794 2.5411735 0.86634511 9
10.945564 4.3180742 1.0652324 10
10.930169 1.0363107 1.5436913 11
10.93858 1.4213148 1.4011412 11
10.982945 2.2207046 1.3407735 10.5
11.007852 2.6724606 1.2264163 10
11.090678 4.0422106 1.4037857 11
11.073048 -0.97382468 1.8799183 12
10.900494 -0.59417498 1.89984 12
10.852947 -0.23265705 1.9378061 12
10.892404 0.12343581 1.9882208 12
11.053741 0.99552202 1.8459922 12
10.971159 1.3816217 1.7513918 11.5
10.994143 1.7518307 1.9347457 12
11.049233 4.2386246 1.7974191 11
11.107259 1.3516912 2.1887724 13
10.945737 4.4871559 1.9886485 12
10.928776 -1.2235672 2.7735105 14
11.250605 -1.363748 1.8618501 12
11.484331 0.37556073 1.8244377 12
11.319293 0.62906563 1.8340864 12
11.482979 2.6124477 1.7830908 11
11.410944 2.881057 1.8105325 11
11.348855 4.166223 2.3255572 13
11.583755 4.4304962 2.0364261 12
11.259762 -1.0007633 2.8681283 14
11.592591 0.17561686 2.9138267 14
11.569187 2.6291471 2.7813027 14
11.883554 -0.99709117 1.895211 12
11.631473 -0.45480138 1.8963475 12
11.992085 1.845675 1.7383372 11
11.710033 2.2284575 1.7571294 11
11.825237 2.2910182 2.7680802 14
11.9112 -0.53077531 2.9177253 14
11.707633 -0.10198836 2.9125278 14
12.277344 -2.9764166 -0.53525031 6
12.283311 -2.6397483 -0.44224468 6
12.281247 -2.2412825 -0.45495033 6
12.30467 -1.7139612 -0.43242604 6
12.29957 -1.4016598 -0.68385339 5
12.369044 -1.0996201 -0.58271027 5.5
12.38527 -0.51169533 -0.66720676 5.3333335
12.36988 -0.12637338 -0.66311604 6
12.296262 -2.1742899 -0.33565015 6
12.357262 -1.7206733 -0.013529041 7
12.267682 -1.4537646 -0.19309199 6.5
12.376058 -0.8076334 -0.30858478 6
12.38705 -0.65467483 -0.23740847 6.5
12.346402 -2.6026492 0.016336337 7
12.314362 -2.2918506 0.044524774 7
12.215319 -1.6029842 0.34201929 8
12.364225 -1.4414601 0.018115442 7
12.005599 -1.2798885 1.8953354 11
12.346496 -0.72572309 1.8101252 11
12.022532 -0.1270362 2.4235244 13
12.275818 -1.2780522 2.9361019 14
12.423977 -0.70058942 -0.62253779 6
12.549871 -0.22969009 -0.77248818 5
12.529156 0.20064911 -0.7008971 5.3333335
12.705794 0.46752289 -0.63714337 6
12.439097 -1.0997535 -0.34170815 6
12.414942 -0.052263163 -0.31355634 6
12.413188 -1.1611339 0.048869949 7
12.588541 -1.0314684 1.808628 11
12.608257 0.84706211 1.8212618 11
12.524556 3.3839266 2.7071157 13
12.994139 -4.5256071 -0.26063472 6.5
13.084509 -3.4195518 -0.065350093 7
12.816864 0.63373977 -0.18557683 7
13.022724 -4.5885129 0.099062778 7
12.881207 -1.1594994 0.14153697 7
12.973085 -0.29852724 0.17720459 7.5
13.147336 -1.5462582 0.47302881 8
13.029178 -0.33345443 0.59642547 8
12.994409 -1.5387518 0.81508517 9
12.890593 -1.3551102 1.8141458 11
12.828299 0.56561106 1.8184972 11
13.160162 2.1355884 2.3073409 12
13.157589 2.6478221 2.3341997 12
13.14906 2.8597109 2.3471465 12
12.979623 -0.55858034 2.5293801 13
13.035514 0.21429589 2.5830829 12.666667
13.054446 0.67922342 2.5966914 12.5
12.954435 0.95749563 2.7475123 13
12.933402 1.2346976 2.787993 13
13.109257 1.8755107 2.5596681 13
13.142221 2.1760049 2.6078079 13
13.129183 2.4720869 2.6504269 13
13.069072 3.0826437 2.5555971 12.5
13.476172 -0.90269202 0.15843023 7
13.48113 -0.58393866 0.18751179 7
13.598003 0.23593745 0.18178223 7
13.476964 0.54184693 0.21748815 8
13.492304 -1.2782607 0.50634378 8
13.466262 -0.9687928 0.53739935 8
13.492724 -0.70845211 0.54023039 8
13.445141 -0.040717974 0.63353443 8
13.4471 0.27139744 0.66790259 8
13.476073 0.41479069 0.64590496 8
13.485499 1.0430298 0.75031859 9
13.456271 -0.52765077 0.90290773 9
13.455194 -0.048547976 0.88021964 9
13.450191 0.20376171 1.0426691 9
13.475133 0.65343314 1.0976548 9
13.510076 1.1040999 1.1527507 10
13.366591 -1.7550281 1.516103 10
13.384547 -1.4391409 1.5438503 10
13.403506 -1.1204983 1.5739224 10
13.426847 -0.48074156 1.288148 10
13.44432 -0.16395409 1.3834264 10
13.46127 0.10524868 1.3480146 10
13.495878 0.59944874 1.4259924 10
13.510176 1.0025275 1.5427929 10
13.268649 -1.7065822 1.8255501 11
13.426493 -0.88396287 1.6802323 10.5
13.450422 -0.49226645 1.6340455 11
13.411402 -0.1833884 1.7650062 11
13.469339 0.14257863 1.697943 11
13.351774 0.61490655 1.7348979 11
13.629261 -1.1654545 0.39027834 8
32.565548 -0.1674026 0.085928053 7
32.55291 0.76477134 0.10151038 7
32.565651 -1.8500382 1.7102652 9
32.552837 -2.115154 2.3977852 9
32.514034 -3.3759227 2.4310186 9
32.501949 -2.6715674 2.5209169 9
