# .PCD v0.7 - Point Cloud Data file format
VERSION 0.7
FIELDS x y z intensity
SIZE 4 4 4 4
TYPE F F F F
COUNT 1 1 1 1
WIDTH 100
HEIGHT 1
VIEWPOINT 0 0 0 1 0 0 0
POINTS 100
DATA ascii
-6.7284799 -1.7362009 1.2028078 12
-6.6364822 -1.460632 1.3910185 13
-6.4807553 -1.4055129 0.14123973 8
-6.4837103 -1.4054286 0.35360086 9
-6.5321331 -3.8225029 1.3276002 12
-6.5100846 -3.8526745 1.5405518 13
-6.4070778 -3.6280241 1.7340593 14
-6.4214373 -1.3118933 1.7127672 14
-6.4419546 -3.7578681 2.2225518 15
-6.349328 -2.576544 1.3097634 12
-6.3302298 -2.9268594 1.5236677 13
-6.1549191 -4.6588731 1.736927 13
-5.7465844 -2.3521805 0.26323593 8
-5.6133633 -3.3289089 0.60538411 10
-5.5904613 -2.6426325 0.63284135 10
-5.0582757 -4.1671228 0.40961352 9
-5.138917 -4.3372369 1.9814738 15
-4.8050585 2.3241146 1.4049238 15
-4.2367806 -4.2061467 0.35971415 8.5
-4.231194 2.2711394 0.7275176 11
-4.1093006 2.2569392 0.21362129 8
-3.825145 2.2537189 0.94383937 13
-3.804436 5.1890068 1.6931705 15
-3.4857025 5.1417732 0.39652964 9
-3.4960084 -4.1902761 1.6545703 15
-3.2320864 -4.2297802 1.2575356 14
-3.1062667 2.1911974 0.32419243 9.5
-3.0463531 2.7325244 0.30753648 9
-3.0872283 2.2113664 0.51920015 11
-3.0683086 2.5524538 0.38676614 10
-3.0483043 2.6546221 0.47985992 11
-3.0922115 2.2095368 0.59749323 12
-3.1351564 2.2037227 0.85297358 13.5
-3.0412335 2.8118801 0.93043494 14
-3.1351092 2.2186158 1.0856309 15
-3.0320146 -4.239316 1.5905346 15
-3.0294788 5.1706119 1.4745315 14
-2.9296241 5.0155158 0.67646486 10.5
-2.8832614 2.8082285 0.79412061 13
-2.8015785 5.0293417 0.90092063 12
-2.90453 5.0267277 1.128095 13
-2.8418925 -4.9079342 1.682779 15
-2.7693508 2.7472064 0.32926506 10
-2.6836929 4.9954805 0.33850244 9
-2.7732904 2.7572727 0.62226367 12
-2.6884358 5.0376878 1.5821687 15
-2.379149 5.1031795 0.62287104 10.5
-2.3490496 5.1137328 1.0980759 12.5
-2.0814805 5.1186237 1.4281657 14
-1.7414513 -2.8649824 0.52121359 11
-1.7326883 5.0631657 0.40835294 9
-1.791479 5.0891042 1.4136831 15
-1.5335824 5.0573578 0.90380526 12
-1.5769424 -4.9426155 1.4219255 15
-1.2015258 5.0405021 1.1594578 14
-1.0864508 -2.9142795 0.48629051 11
-0.83559442 5.0103993 0.81277889 12
-0.85094589 -4.9166698 1.4246997 15
-0.29594204 -4.9705391 1.4033711 15
-0.015438623 -3.1091793 0.40457726 11
-0.19450657 4.2898321 0.70680928 12
-0.1204371 4.2768841 1.0253607 14
0.18852721 4.9848175 1.368198 15
0.21938728 4.9572763 0.68776059 11
0.25806886 -5.0410233 1.404313 15
0.51337469 4.8184185 0.52803946 10
0.43005821 -5.1780457 1.254892 14
0.66737163 -1.8812747 0.39565024 12
0.82353836 0.70336366 -0.066983089 5
0.97659767 -3.6935437 0.15394634 8
0.97461015 -3.672612 0.22676741 9
0.86585313 -1.9418588 0.26444736 10.5
1.1007403 -1.1533638 0.30042216 12.5
1.1542003 -0.90955305 0.28929687 12.5
1.1703784 -1.87046 0.43399748 12
1.0976862 -3.3315868 0.83199543 14
1.3463399 -1.9016782 0.23014477 10
1.4311997 -0.88776129 0.30008999 12
1.4754157 -2.0117095 0.50849456 13
1.439345 -1.4214411 0.60157031 15
1.4103127 -1.3960803 0.46657425 14
1.4502677 -1.0697467 0.49097162 14.5
1.5776259 3.1511023 0.5089041 11
1.4425476 -2.5030637 0.77687383 14
1.4036796 -3.1999366 0.89616048 14
1.4325885 -2.6859612 0.83665854 15
1.6382401 -0.87190765 0.50379074 15
1.7673458 4.871943 0.430159 10
1.771415 4.8723321 0.75527012 11
1.8084462 4.8771925 0.90777928 12
1.8615186 4.8804173 1.2523223 14
2.7099745 0.77129859 0.43617257 12
2.7266021 4.8505793 1.6231238 15
3.1666205 4.4312596 1.4074281 14
3.3733013 -1.7257655 0.17212507 8
3.3653669 -1.9595377 0.31671959 9
3.3873098 -1.6279503 0.28586131 9
3.2096524 4.4275165 1.5559415 15
8.1393681 0.8244884 2.3350053 15
13.427229 -0.096976332 1.0055696 9
