# .PCD v0.7 - Point Cloud Data file format
VERSION 0.7
FIELDS x y z intensity
SIZE 4 4 4 4
TYPE F F F F
COUNT 1 1 1 1
WIDTH 207
HEIGHT 1
VIEWPOINT 0 0 0 1 0 0 0
POINTS 207
DATA ascii
-0.51204062 -0.5305686 0.054294661 152
-0.57798749 -0.4205777 0.041794129 151
-0.40885696 -0.46922067 0.046407443 165
-0.30150512 -0.40461466 0.041521758 171
0.053370472 -0.42713398 0.028940661 179.42857
0.14568147 -0.4600192 0.034269616 180
0.20696363 -0.40942648 0.042518411 178.33333
-0.80626482 -0.35995662 0.033198252 131
-0.7326287 -0.33708087 0.033188533 139
-0.643722 -0.31105572 0.022943929 150
-0.46587276 -0.37119547 0.035743896 167
-0.33792141 -0.31396902 0.033320855 172
-0.28023085 -0.3914592 0.0420653 172
-0.0050838566 -0.38582468 0.035062183 180
0.051667206 -0.34838015 0.028043507 178.42857
0.15447915 -0.34625357 0.013812464 175.48387
0.23301651 -0.34807563 0.0065248203 173.03999
-0.84023494 -0.21651952 0.0093280422 128
-0.77721632 -0.20459239 0.01336596 134
-0.52740669 -0.27502677 0.022178555 164
-0.44379377 -0.24963626 0.018330408 170.5
-0.36430773 -0.2255647 0.014226954 169.5
-0.21594401 -0.26047546 0.025447529 164
-0.12349091 -0.2230894 0.0030692869 174.75
-0.090334848 -0.20977904 -0.0054088929 177
0.039826099 -0.23253578 -0.015276222 173.16667
0.1307963 -0.22560248 -0.01008577 165.85715
0.25889492 -0.26582637 0.0068372604 166.41667
0.8485797 -0.23796909 0.023419283 189
-0.7364608 -0.19803654 0.0065293238 142
-0.65740025 -0.18431999 0.0013850573 151.66667
-0.5442329 -0.16368058 0.0021814224 160.75
-0.43801615 -0.144164 0.0040675937 169
-0.37204307 -0.13256234 0.00095627457 169.66667
-0.2486622 -0.12904128 0.0080521256 164
-0.14855793 -0.16182148 -0.0070975735 174.90909
-0.034470204 -0.15497874 -0.020702379 175.34285
0.048894763 -0.15129086 -0.038650606 170.8
0.15758382 -0.14841138 -0.012400332 165.10001
0.25131723 -0.14455315 -0.02654418 165.53125
0.32447422 -0.13355817 -0.035771899 165.4375
0.59841508 -0.10567877 -0.04607325 171
0.64918351 -0.12391369 -0.010560165 176.44444
0.75024205 -0.15535174 0.0016174538 181.83333
0.88629562 -0.11573877 0.010606225 189
0.94394034 -0.12934574 0.012386812 191.5
-0.85683107 -0.065230094 -0.010692917 127
-0.76095325 -0.059724752 -0.0083413702 137.66667
-0.6707316 -0.05536323 -0.015358738 151.66667
-0.55491757 -0.04868219 -0.012301127 165.75
-0.44299591 -0.042389218 -0.011256638 171.8
-0.34162596 -0.036178045 -0.004590557 168
-0.24935693 -0.030999225 -0.0038801418 162
-0.16300756 -0.062575258 -0.022278285 174.07692
-0.048121337 -0.051259752 -0.043787986 175.1842
0.059656132 -0.050632391 -0.041515663 169.31429
0.15642294 -0.050874099 -0.036318336 165.04546
0.25394431 -0.052460015 -0.064923495 166.07143
0.35504615 -0.041397274 -0.071498364 166.78546
0.45030534 -0.020019993 -0.044530828 167.65048
0.54221094 -0.048085157 -0.035871547 169.57378
0.64488387 -0.057118572 -0.031753812 174.23729
0.75893527 -0.061888244 -0.0077302931 181.19048
0.85371357 -0.049133342 0.0024751429 186.66667
0.93741524 -0.058331821 0.0042258473 190.66667
-0.85196579 0.085675858 -0.031386156 131.5
-0.74695981 0.078645274 -0.030505795 142.33333
-0.65776658 0.072357111 -0.035458438 153.33333
-0.55135274 0.065325513 -0.033120062 165.5
-0.43141001 0.057656992 -0.026004788 169.60001
-0.33410278 0.051530689 -0.018588822 168.75
-0.24652417 0.045669101 -0.018126935 168
-0.16427025 0.038903996 -0.039937954 176.25
-0.03963225 0.05016901 -0.060890224 174.48485
0.054238696 0.045091938 -0.062693045 169.88889
0.15536463 0.046350434 -0.052510403 166.13699
0.24978155 0.037738886 -0.073676899 166.30188
0.35419524 0.0073582353 -0.077060021 166.76271
0.44209185 0.028161112 -0.051467955 167.43813
0.54105628 0.040587232 -0.04491606 169.76923
0.64675683 0.042184044 -0.04400989 174.3662
0.75663638 0.038523767 -0.021285884 181.11539
0.84706491 0.038867019 -0.012283849 186
0.93072104 0.042510312 -0.010666599 190.5
-0.16436695 0.10805891 -0.036759313 176.25
-0.021415872 0.14759898 -0.063630596 176.47058
0.043637618 0.14306566 -0.08631894 172.42857
0.14860806 0.11288487 -0.061750013 167.05
0.46910533 0.1300845 -0.04646391 168.15555
0.55452061 0.14626044 -0.067691706 171.03773
0.63599777 0.13997476 -0.044042818 175.8125
0.75744355 0.14566547 -0.035919156 182.37038
0.87286824 0.17414171 -0.026562242 189.57143
0.9251458 0.14307898 -0.018074518 192
-0.21670903 0.28365248 -0.053893428 170
-0.13471691 0.24621025 -0.060558036 178.07692
-0.065033324 0.21487467 -0.076184072 179.42857
0.49382961 0.20327167 -0.075758733 169.66667
0.54633141 0.24208167 -0.065210715 175.05556
0.64687639 0.24147941 -0.046878766 179.75
0.7372424 0.24373099 -0.039655279 184.26666
0.85742867 0.24645266 -0.034419358 190.28572
0.93077224 0.24058665 -0.037255865 194.33333
-0.43775937 0.38704854 -0.083548546 170
-0.3441194 0.34327593 -0.071496435 169
-0.27139437 0.30939943 -0.064409487 167
0.55569625 0.33452111 -0.058544721 180.41667
0.64555478 0.34633014 -0.058245096 183.60869
0.74607277 0.35092893 -0.046595458 188.39999
0.82487327 0.33426273 -0.043336775 191.60001
0.9228282 0.33546376 -0.055945907 195
-0.64073759 0.48139191 -0.099162668 154
-0.56693572 0.44726896 -0.096963219 161
-0.46716791 0.40026578 -0.077216774 169
0.58376533 0.41607314 -0.060099553 184.77777
0.65944695 0.45558089 -0.060861852 189.75
0.74681264 0.44376481 -0.062107377 192.42857
0.85352588 0.42873764 -0.066155307 195
-0.74335045 0.52881753 -0.10176348 141.5
-0.67669511 0.49774978 -0.095090762 145
0.63940579 0.53206414 -0.073237143 192.5
0.75179225 0.56062204 -0.084508456 195.8
0.82966214 0.51875168 -0.087249547 195.66667
0.68958867 0.62969637 -0.095857479 196.33333
0.73133057 0.64527798 -0.096328549 198.33333
-0.32427311 -0.89441681 0.13219976 145
-0.1817093 -0.94399595 0.12424097 150.5
-0.027846577 -0.94195372 0.13431892 153.66667
-0.31540194 -0.88647878 0.12245997 148
-0.27428576 -0.83540785 0.11168173 155
-0.14069101 -0.87721545 0.11081089 156
-0.00063789723 -0.87878829 0.12569582 156
0.025686651 -0.81601667 0.1197129 161.66667
-0.22866327 -0.77654427 0.10500463 160
-0.18114929 -0.7133438 0.10261166 162.33333
-0.07221967 -0.75953573 0.10021907 162.60001
0.063108012 -0.73081952 0.10546989 165.8
-0.71685451 -0.64848089 0.086395085 123
-0.65665537 -0.6129753 0.080619179 132.5
-0.12437578 -0.64210016 0.089450933 164.8
-0.026084321 -0.65092719 0.084618755 165
0.064843372 -0.65402621 0.087848775 166.66667
0.11335467 -0.61133844 0.093592487 169.66667
-0.600761 -0.57989848 0.075718835 143
-0.54852867 -0.55007458 0.066467889 150.33333
-0.46312088 -0.49955413 0.058848664 158
-0.041376233 -0.53442705 0.078690998 165.66667
0.0573547 -0.54004854 0.074080229 170.875
0.14933866 -0.53299457 0.074883342 178.54546
-0.75376242 -0.4960548 0.061306316 129
-0.66169071 -0.45498288 0.059098125 138.66667
-0.58622432 -0.42154947 0.056071058 148
-0.4226642 -0.47527236 0.056736644 163.5
-0.33097944 -0.4201602 0.052293304 170.5
-0.040410623 -0.42326266 0.095180839 164.36363
0.048610017 -0.45585304 0.062892385 177.89999
0.13766491 -0.47760376 0.056228671 181
-0.50034541 -0.38407454 0.049623307 158
-0.44547471 -0.360535 0.043375686 167.5
-0.34784368 -0.31704193 0.040631555 173.25
-0.22201543 -0.35337731 0.052513465 169
-0.17345941 -0.32427573 0.049781986 162
-0.014389619 -0.38524735 0.065265991 173.57143
-0.25424266 -0.26248088 0.035331037 167.85715
-0.15060091 -0.23995975 0.037445888 165
-0.042764992 -0.23259723 0.099842101 140
0.15727721 -0.23839241 0.059668142 169
0.28577909 -0.22290352 0.024747603 146
0.78427005 -0.20543787 0.032349046 186.25
0.86531961 -0.24723285 0.033569075 190.5
0.93635464 -0.24069631 0.033381432 194.5
-0.30930567 -0.11967067 0.013220706 168
-0.25197384 -0.16266799 0.01998855 163.83333
-0.18587774 -0.16913617 0.020364057 163.66667
0.066602021 -0.17240103 0.07095813 138
0.17190593 -0.15642975 0.10400151 128.10527
0.25131038 -0.15011521 0.086015463 126.14815
0.30638674 -0.14188145 0.066114545 125.5
0.78151107 -0.16649735 0.023161585 185.2
0.855151 -0.15445268 0.025842782 188.27272
0.91755188 -0.13719252 0.025960378 191.39999
0.79856402 -0.094941273 0.016861578 185.5
0.81631064 -0.053406723 0.013368827 186.33333
0.93480462 -0.057621174 0.012911234 192.66667
-0.044616226 0.086259805 0.011750779 133.66667
0.82722259 0.03314836 0.0010068251 186.72728
0.92485642 0.043026473 -0.00027220586 191.33333
-0.21102443 0.11939023 0.071267448 158.8
-0.18262784 0.11295644 0.025955088 154.46153
-0.014904148 0.1310049 -0.0012272967 145.5
0.0078478474 0.12295587 0.065325998 134.8
0.79499894 0.13758516 -0.010772225 186
0.82043523 0.1283741 -0.0090545565 187.60001
0.91602451 0.14133124 -0.013676571 192
0.75681472 0.24853732 -0.023631506 186.83333
0.73037058 0.32221207 -0.034301706 187
0.8343991 0.32637069 -0.034057129 191.5
0.64465016 0.40720856 -0.043478776 188
0.024687817 -0.30890194 0.17074697 155
0.084229656 -0.20916349 0.16333897 138
0.094673119 -0.18340655 0.15721081 133
0.12994602 -0.15603857 0.15099926 128
-0.40737331 0.15739383 0.092727423 145
-0.30973762 0.13923961 0.11501874 141
-0.24138422 0.12594135 0.10468224 153.77777
-0.014535503 0.12910083 0.14345434 129.20833
0.0017041364 0.12450935 0.097886041 132
