# .PCD v0.7 - Point Cloud Data file format
VERSION 0.7
FIELDS x y z intensity
SIZE 4 4 4 4
TYPE F F F F
COUNT 1 1 1 1
WIDTH 40
HEIGHT 1
VIEWPOINT 0 0 0 1 0 0 0
POINTS 40
DATA ascii
-9.4957838 -2.2938187 1.6452659 11
-9.0785751 -3.1929889 1.3846985 10
-9.0810404 -3.4489305 1.6954989 11
-2.4809287 3.3580003 0.13976072 10
-1.6623453 -0.97848845 0.40570927 11
-1.4588789 -0.90894967 0.54599196 14.5
-1.2259753 -1.8661563 0.50430542 11
-1.3652045 -1.6921082 0.56457537 12
-1.375489 -1.5492816 0.4193691 10
-1.2297626 -1.36313 0.42564049 11
-1.2618302 -0.97489727 0.4455514 12.5
-1.2208341 -1.2534318 0.61003304 14
-1.2762922 -0.97151566 0.53260839 14
-1.1431301 -1.062016 0.5874036 15
-0.92519569 -1.6974657 0.56528127 12
-0.78916317 -1.7452763 0.4866024 11
-0.46091348 -5.2914348 0.43573844 5
-0.57552737 -1.8114113 0.56166482 12.5
-0.58002084 -1.7744837 0.68614244 14
-0.32351762 -5.1544423 1.6434902 12
0.2566568 2.9891813 0.20670792 12
1.0269238 4.7754173 0.051810134 10
1.3801527 3.2884047 0.084890537 11
1.4913409 1.7867789 0.27862149 12.5
1.4288783 2.8688631 0.28959438 12
1.4759091 1.5626029 0.46612188 15
1.4155918 1.7736101 0.45981172 15
1.528743 3.015908 0.45740947 14
1.3995426 3.1169932 0.35674196 13
1.636796 1.59033 0.32171038 13
1.6121666 1.3936296 0.47892326 15
2.6983132 4.8502312 1.0569719 15
2.9237645 -2.4014919 0.38041151 8
4.3077006 -5.0364432 2.4266541 15
4.5535688 -5.0261164 2.1916389 14
5.1437764 -5.0361032 2.5772398 15
5.4933443 -2.1870139 0.16977416 7
5.5068398 -2.4554808 0.36539942 8
5.7255583 -3.0104654 0.14827523 6
10.520231 0.41456786 1.683092 12
