# .PCD v0.7 - Point Cloud Data file format
VERSION 0.7
FIELDS x y z intensity
SIZE 4 4 4 4
TYPE F F F F
COUNT 1 1 1 1
WIDTH 226
HEIGHT 1
VIEWPOINT 0 0 0 1 0 0 0
POINTS 226
DATA ascii
-0.06921421 -0.95043439 -0.0029341641 187
0.064072259 -0.97771066 0.0021205319 186
-0.20206597 -0.8956973 0.00047305066 186
-0.16387421 -0.84020376 -0.0056179063 193.5
-0.010782569 -0.82740694 -0.0014028368 195
0.097561248 -0.87902969 -0.001780884 193
0.11181441 -0.83409375 -0.0002233687 197.5
0.22221635 -0.8795746 -0.0027926245 198
0.34034202 -0.85696381 -0.001044661 196
0.45500904 -0.85640657 -0.0028158589 197.33333
-0.11914728 -0.77147448 -0.004649587 199
-0.098911405 -0.73877084 -0.00072617555 197
0.024833759 -0.75544566 -0.0053051063 195.5
0.14430948 -0.73755032 -0.0031634378 194.66667
0.24735163 -0.74089968 -0.00057246373 194.25
0.34728834 -0.7461496 -0.0048073302 195
0.44473833 -0.74572968 0.0018047175 195.39999
0.54072142 -0.71671075 0.00021166992 196
-0.050439347 -0.6662662 -0.0039647105 195.39999
0.057087615 -0.68972594 -0.0079641333 193.5
0.17866123 -0.6308732 -0.0012443718 190.75
0.35264212 -0.60417157 0.0022348552 188
0.53328162 -0.6835922 0.0010873459 194
0.64598656 -0.65725493 -0.0013431308 194.75
0.71353936 -0.63504189 -0.0015275099 194.5
0.029529363 -0.54438388 -0.0044430369 189
0.1104061 -0.57481188 -0.0023975021 189.66667
0.25749356 -0.50840986 -0.010152334 185.5
0.35888761 -0.52339005 -0.0046804943 185
0.43021694 -0.55056256 -0.0023638241 188
0.54659021 -0.56379217 0.00081675901 188.5
0.64624274 -0.50607359 0.0011720196 189
0.783539 -0.57100981 -0.00067760405 194.5
0.8490631 -0.50858212 -0.0020241542 195
0.087266453 -0.46088213 -0.014646896 185
0.15589234 -0.4508833 -0.019350689 182.9375
0.24726656 -0.46043837 -0.018767631 181.66667
0.34023067 -0.45053604 -0.016398013 180.4375
0.45753577 -0.45547134 -0.01694788 181.89999
0.55442309 -0.42076138 -0.01264537 181.88889
0.63910359 -0.49229085 0.0012671569 189
0.73206794 -0.43422833 -0.00069532724 188
0.885625 -0.4227519 -0.0035798077 193.5
0.16907398 -0.34383866 -0.032451257 176.28572
0.25107652 -0.35292235 -0.034805145 175.37209
0.35069519 -0.3525911 -0.033680636 175.41463
0.44155008 -0.34206921 -0.025058741 176.47223
0.53746867 -0.34132591 -0.0139727 179
0.6528883 -0.3351211 -0.013693322 182.125
0.79594278 -0.34680873 -0.0026671176 188
0.80416381 -0.35438097 -0.00040402298 188
0.9235394 -0.34882006 -0.0071187955 195
0.25773302 -0.2430875 -0.036395237 170.62857
0.34850287 -0.24340756 -0.034712169 170.82001
0.45441091 -0.24917591 -0.046845712 171.96001
0.55343497 -0.24376367 -0.033607658 175.19643
0.63990182 -0.24190284 -0.010851142 179.27777
0.72222841 -0.2421989 -0.014780393 182.25
0.83860254 -0.26287347 -0.002845072 188.39999
0.93413055 -0.26559836 -0.00026323443 194
0.28178993 -0.17432706 -0.03498004 168.11765
0.35073552 -0.14493841 -0.043973111 167.19167
0.44337735 -0.14149621 -0.036892913 168.25743
0.55166423 -0.14759889 -0.052230563 170.94
0.63408142 -0.14868337 -0.027486915 176.15686
0.74595481 -0.17143361 -0.016843192 181.66667
0.3826403 -0.050708391 -0.065986179 167.67407
0.4321869 -0.045606609 -0.050954249 167.86719
0.53442758 -0.077289455 -0.041489072 169.82759
0.60651052 -0.097685181 -0.058508161 171.5
0.1858713 0.095049411 -0.045860618 166.625
0.26179498 0.076852702 -0.064392708 165.70909
0.36946592 0.043772478 -0.066175416 166.52188
0.41586766 0.052077357 -0.055066288 167.35643
-0.019305283 0.18307678 -0.035178982 177.11111
0.037500538 0.16295022 -0.066343717 172.76471
0.14579169 0.13576129 -0.045540154 165.925
0.24569677 0.14052095 -0.045835223 162.98112
0.35378212 0.13986854 -0.052152846 166.85965
0.44213051 0.14556226 -0.060423616 168.88889
0.51417696 0.17999829 -0.086338602 169.75
0.049803536 0.27110335 -0.038017534 177.5
0.15166415 0.26988432 -0.06411203 171.17857
0.25506571 0.25204593 -0.067340374 167.17073
0.34412739 0.25017318 -0.071654022 169.22728
0.44554371 0.25340021 -0.074645802 170.57812
0.5243789 0.247042 -0.055245597 169.1282
-0.45016223 0.36653024 -0.015870813 166
-0.34582466 0.31942528 -0.0023057477 170
-0.11599791 0.39705747 -0.028443646 174.5
-0.042267099 0.34240294 -0.038117096 180.25
0.043864395 0.35963151 -0.048628643 180.41176
0.16026196 0.34100968 -0.047605623 177.04347
0.24997224 0.33891574 -0.048980679 173.39999
0.35470885 0.33546054 -0.045255743 169.20454
0.4549548 0.33468124 -0.042607248 168.26086
0.55373561 0.35176802 -0.046722945 170.25
0.60969204 0.36626256 -0.033619557 177.10001
-0.74456865 0.49438831 -0.019829642 136.5
-0.65193647 0.45451522 -0.021029152 148.66667
-0.57375795 0.42178595 -0.028245263 157.66667
-0.22888912 0.48383859 -0.026558021 167.5
-0.14827521 0.41935512 -0.017612115 167.66667
-0.043567993 0.44029337 -0.025854129 178.27272
0.0643363 0.43764272 -0.044844855 183.375
0.14883818 0.45939723 -0.046110719 183.11765
0.24684662 0.46382165 -0.054204397 181.68182
0.3615723 0.46313265 -0.045921288 181.63158
0.43916285 0.44476894 -0.048834741 180.76471
0.5331111 0.43231264 -0.03450077 179.8421
0.65390086 0.45743233 -0.035519823 187.25
-0.82047915 0.52656204 -0.015421753 129
-0.33459568 0.56549448 -0.02645779 164.75
-0.27396274 0.5180977 -0.024229741 168.5
-0.14968392 0.54878831 -0.032767925 168.57143
-0.024602229 0.5490374 -0.033729658 180
0.063720278 0.54568112 -0.039133523 186.60001
0.16681543 0.55667722 -0.039728552 187.25
0.25025561 0.54938215 -0.040594071 186.66667
0.34183732 0.54171759 -0.039084226 186.88889
0.45019504 0.56302756 -0.046739206 188.25
0.55207992 0.57839137 -0.028749343 181
0.62160075 0.532161 -0.044498805 189.66667
0.73413908 0.56528288 -0.056736648 192
-0.42473882 0.63646674 -0.031836562 158.66667
-0.24431226 0.64441586 -0.035387062 166.2
-0.11468171 0.66862226 -0.039738875 167
-0.075648792 0.61714184 -0.037975196 172.25
0.020589972 0.65569621 -0.042486738 175.83333
0.12832026 0.65275133 -0.04429372 185.39999
0.22854213 0.63359165 -0.043465491 189.66667
0.33963713 0.62696141 -0.041152079 188.14285
0.44651893 0.65182024 -0.053266738 191.33333
0.5864827 0.67164338 -0.058218818 192
0.66974175 0.63705373 -0.05763882 192.60001
0.76416963 0.61765623 -0.053851034 192
-0.34319079 0.74521971 -0.040966012 159.75
-0.16095896 0.72982913 -0.04227455 167.25
-0.036600202 0.75489134 -0.042871423 166.39999
0.08447028 0.7592383 -0.045503914 172
0.14779767 0.74533349 -0.046287127 177.25
0.22398661 0.73919624 -0.050026312 185.39999
0.3054536 0.73573548 -0.052990504 188.8
0.431384 0.73067009 -0.056084067 190.71428
0.52312601 0.74555999 -0.057489134 188.8
0.63988453 0.73770845 -0.062064033 186.33333
-0.43159679 0.83374953 -0.040800806 152.33333
-0.25026149 0.84760582 -0.046326332 160.8
-0.11126605 0.88810253 -0.0504953 161.33333
-0.076208778 0.82459646 -0.04507678 162
0.053961147 0.83188748 -0.044386391 164.25
0.1725601 0.84768456 -0.048450194 171.75
0.29047576 0.8477006 -0.051572833 177
0.40498772 0.84648806 -0.055575795 182.39999
0.51747853 0.84116369 -0.060470052 182
-0.29546234 0.90833443 -0.051186133 157
-0.15847768 0.96841156 -0.047832169 157
0.011019035 0.94085252 -0.052123029 161.33333
0.14540404 0.9566915 -0.055578835 164
0.282314 0.91407055 -0.053174186 173
-0.22994059 -0.93378556 0.010152346 180
-0.083604932 -0.97067189 0.012736394 183
0.059378792 -0.97726327 0.018325696 162
0.2081196 -0.93818539 0.0079253437 190
0.33379567 -0.90235722 0.012936755 194
-0.20098211 -0.88784981 0.013886373 183
-0.15078084 -0.8137238 0.0084379343 190
-0.027486725 -0.85660493 0.007685042 192.5
0.091811866 -0.88477474 0.011169939 192.5
0.22414036 -0.85432154 0.0065291869 195.25
0.33642441 -0.89459085 0.0054697143 196
0.45512661 -0.8893913 0.0057000541 194
-0.13541108 -0.79090303 0.0070460085 194
-0.080225192 -0.70856774 0.0029033599 198
0.034555461 -0.72859681 0.0051271417 196.66667
0.13134266 -0.7687071 0.0060960408 195.5
0.23881005 -0.77238774 0.0084578665 196
0.34300134 -0.78128928 0.0034127815 196
0.54654598 -0.75440395 0.0080950856 196.66667
0.64567959 -0.73004311 0.0077411011 197.5
0.084530413 -0.62300342 0.0070034005 192
0.17492396 -0.63076073 0.011419477 192.66667
0.26414263 -0.63540846 0.0089130485 191.39999
0.34817347 -0.63097513 0.012581871 191.39999
0.43148413 -0.62270766 0.013078594 191.8
0.51470548 -0.6167016 0.014787016 192.33333
0.61941165 -0.65670753 0.007455613 194.5
0.72142637 -0.65578479 0.007820176 196.5
-0.0012910659 -0.5842008 0.011258818 193
0.033249512 -0.57395518 0.0062441984 191.5
0.14050865 -0.54202938 0.0068927733 188.8
0.25479946 -0.53684133 0.011341908 187.63637
0.35384262 -0.5322603 0.010845914 187.2
0.44861072 -0.52934575 0.0094097788 188
0.55669487 -0.55989051 0.008737687 190.44444
0.65668881 -0.53234655 0.011561734 191.2
0.74300236 -0.5175845 0.01050277 194
0.066200852 -0.48282865 0.0075832717 187.5
0.14697181 -0.49344072 0.0054593254 187
0.47222048 -0.48892182 0.0068708682 186
0.56564128 -0.44710711 0.0075143408 185.44444
0.63844579 -0.43384591 0.010875994 187.71428
0.74641293 -0.44943887 0.011270386 191.44444
0.8279348 -0.48662969 0.0018830426 195
0.66709334 -0.3633807 0.0085516078 185.28572
0.73320454 -0.34534475 0.010606071 187.42857
0.8368066 -0.34422821 0.0094325282 191.85715
0.74533719 -0.26210314 0.0072265011 185.39999
0.85596871 -0.23944452 0.0059147263 189.42857
0.77598071 -0.18982218 0.0074118553 186
-0.0090552196 0.17180404 0.011342767 176
0.054099858 0.16292249 0.077672072 144.8
0.15356398 0.13787837 0.079402134 128.76471
0.24337088 0.12321144 0.037134763 122.8421
-0.30042681 0.29913589 0.0022105554 168
-0.23944809 0.26991048 0.02158362 154
-0.15638775 0.22900975 0.055343129 130
-0.023369333 0.23976335 0.021951629 160.33333
0.11089195 0.21237822 0.0088661639 172
0.51017451 0.46835387 0.010411361 109.16666
0.36941621 0.88023704 0.064632475 174.5
0.37390217 0.9055469 0.049866043 205
0.068282053 0.15941477 0.1584523 132.16667
0.10445431 0.14754385 0.10913019 123
0.026238931 0.23315352 0.19226329 155
-0.062384926 0.31214204 0.14932051 169
