# .PCD v0.7 - Point Cloud Data file format
VERSION 0.7
FIELDS x y z intensity
SIZE 4 4 4 4
TYPE F F F F
COUNT 1 1 1 1
WIDTH 65
HEIGHT 1
VIEWPOINT 0 0 0 1 0 0 0
POINTS 65
DATA ascii
-5.0594387 4.7544413 1.3228619 14
-4.3192863 4.8143544 1.2259207 14
-3.8458478 -2.4607875 0.79171675 11
-2.8175831 -2.3991382 0.65561277 11
-2.7360156 -2.5030818 0.88471198 13
-2.1744101 -2.349479 0.55886585 11
-1.2609125 3.5988119 0.31151065 11
-0.68103909 -1.375065 0.37678194 12
-0.72274542 -1.1151392 0.42133689 14
-0.60221678 -2.0813866 0.63537395 13
-0.64003968 -1.6545957 0.59155518 14
-0.66549617 -1.4191403 0.56878138 15
-0.73490649 -1.1244564 0.48390135 15
-0.47402447 -3.4043961 0.54933965 10
-0.5295468 -2.7414851 0.56591791 11
-0.59488058 -2.0677309 0.50893539 12
-0.44241548 -3.6808722 0.8964287 12
-0.4631885 -3.3762271 0.92936742 13
-0.57303381 -2.3522856 0.78047031 14
-0.30236778 2.8727429 0.33719137 12
0.24028586 1.9995468 0.43811706 15
0.2631048 -2.4311547 0.79468232 14
0.52162355 -4.81812 1.067796 11
0.75009441 -4.6750927 0.45107076 8
0.72377181 -4.6739216 0.56121069 9
0.84628236 5.2003603 0.40034017 11
0.7949748 5.2121973 0.49695045 12
1.0620599 1.9294811 0.23339896 12
1.0057501 4.3259912 0.21975334 10
1.1815962 2.202642 0.52248079 15
1.1507698 2.6262434 0.48251978 14
1.1533247 2.6710544 0.60203749 15
1.0946065 3.211405 0.43493706 13
1.0990745 3.2640035 0.57790017 14
1.2566696 1.8996205 0.38463378 13
1.4705235 -2.6634731 0.48644719 10
1.6187696 -0.59299237 0.5383392 15
1.8640696 -0.87936091 0.31021243 10.5
1.8690661 -0.72710139 0.36677644 11.5
1.8721918 -0.67832708 0.45846501 13
2.0107327 -4.5579152 0.48875871 8
2.0462995 -2.1488957 0.51502824 11
2.2699914 -0.65557653 0.33859599 10.5
2.7832546 1.0702634 -0.017949477 7
2.7045166 2.7383544 0.31497392 10.5
2.8136442 1.9242641 -0.056477435 8
2.8540988 -0.48059636 0.34138346 10
2.8725066 -0.43961033 0.85929322 15
3.0894921 1.8630679 0.13346381 9
3.1928489 1.7646005 0.43100449 11
3.1378396 1.9103595 0.32233399 10
3.0904438 2.0791273 0.32904825 11
3.4469521 0.94184721 1.0274518 15
3.4821835 3.8390853 0.79492718 13
3.4842906 4.0433841 1.2913128 15
3.7113976 2.8933156 0.75699168 13
3.7630806 2.3872404 0.90984744 13.5
3.7457299 2.6982136 1.1373948 15
3.7235377 2.9230418 1.0309587 14
3.6694007 3.7579987 1.127659 14
3.7007549 3.4611318 1.2333477 15
3.9250965 1.4944375 0.89953679 14
3.8162868 1.7616571 0.97382832 14.5
3.8003366 2.0671399 1.0674076 15
4.0281553 -2.6100631 0.23299725 7
