# .PCD v0.7 - Point Cloud Data file format
VERSION 0.7
FIELDS x y z intensity
SIZE 4 4 4 4
TYPE F F F F
COUNT 1 1 1 1
WIDTH 68
HEIGHT 1
VIEWPOINT 0 0 0 1 0 0 0
POINTS 68
DATA ascii
-6.0364733 5.0457239 1.361034 13
-5.5253215 5.3989172 1.1444461 13
-4.7262645 -1.8974001 0.61886275 10
-3.7131824 -2.0093937 0.56099987 10
-2.9776368 5.1996188 0.064006843 9
-1.3642286 -2.1434348 0.39390218 10
-1.3607023 -1.8106974 0.40740564 10
-1.3533694 -1.6612473 0.44439372 11.5
-1.3413229 -1.3941883 0.40676996 11
-1.3433961 -1.2628303 0.48797825 13
-1.3408726 -1.0247492 0.40597183 12
-1.3377293 -4.6310921 0.93060243 10
-1.3838673 -2.4446571 0.67020619 11.5
-1.3351408 -1.6350238 0.62328064 13.5
-1.3250407 -1.3623614 0.6264652 15
-1.3295767 -1.033534 0.59475017 15
-1.2423815 3.7590501 0.13829108 10
-1.3784301 -2.2983298 0.77412444 13
-0.92091131 -4.6652565 0.77418977 10
-0.85149854 1.3543694 0.34492683 15
-0.94311816 2.4406183 0.34064814 13
-0.79338378 2.595119 0.31658232 12
-0.21050115 2.1180701 0.43158093 15
-0.28795868 2.3190975 0.32594854 13
-0.1877261 2.1745179 0.33807239 14
0.12019222 -1.0621141 0.3282862 13.5
0.00060986227 1.9523865 0.34143758 14
0.075352192 2.1055901 0.32143304 13
0.11956126 2.1118891 0.46681505 15
0.20769516 -1.0555974 0.28671095 12
0.23371838 5.1199303 0.21743916 10
0.53299671 5.1082301 0.39161536 11
0.41019818 5.1269407 0.54484504 12
0.96603352 1.7153293 0.38793901 14
0.95147705 2.262907 0.55964684 15
0.99380273 3.3835051 0.5527553 14
1.2402742 -1.1221073 0.40389833 12.5
1.3166974 -0.90919363 0.39693579 13
1.7634591 -0.89383298 0.41922641 12.5
1.7131006 -0.85791427 0.54911882 14
2.0329397 -0.96272117 0.33750826 10
2.3587997 -2.7437935 0.4792144 9
2.3468843 -0.98071736 0.28211904 9
2.2820299 -0.96695673 0.39298159 11
2.352128 -0.94969404 0.47576576 12
2.38133 -0.77577841 0.78315246 15
2.5485566 -0.82908541 0.21379031 9
2.4298115 -0.80233502 0.40943411 11
2.4576299 -0.48829204 0.26635909 9.5
2.5128293 -3.1818161 0.73185074 11
2.4257445 -0.68173552 0.48513865 12
2.6155088 1.5642189 0.0012245153 8
2.8721809 1.3538852 0.12484033 9
2.8133514 1.6454175 0.19358256 9.5
2.9036081 3.7068846 0.073305771 9
2.8957219 1.3608035 0.49252498 12
2.835196 1.5265777 0.30613676 11
2.8232052 1.6736405 0.45816886 12
2.8483973 1.6076726 0.52112585 13
3.0223315 3.9716022 0.81925702 13
3.3624253 2.4670014 0.055832222 9
3.2613547 1.4086193 0.29396403 10
3.3969352 3.4500163 0.03653267 9
3.5500829 2.703162 0.72926718 13
3.5590165 1.0217971 1.0202742 15
3.4958687 1.7591201 0.98566985 15
3.5326757 2.4716358 0.89569372 14.5
3.4385095 3.4127996 1.0508361 15
