# .PCD v0.7 - Point Cloud Data file format
VERSION 0.7
FIELDS x y z intensity
SIZE 4 4 4 4
TYPE F F F F
COUNT 1 1 1 1
WIDTH 217
HEIGHT 1
VIEWPOINT 0 0 0 1 0 0 0
POINTS 217
DATA ascii
0.49190071 0.19449247 -0.10098013 172
-0.18510345 -0.90585405 -0.010311021 193
-0.054453474 -0.94748724 -0.0064678555 194.33333
0.083805293 -0.95699167 -0.0075554112 194
-0.30630016 -0.83294427 -0.0080456082 189
-0.13891582 -0.82965177 -0.0036241156 197.5
-0.0080093332 -0.84908599 -0.0085771373 200
0.0068724491 -0.8192606 -0.011917248 198
0.11669584 -0.85233343 -0.0066131135 199
-0.39751205 -0.73050666 -0.0064689931 188
-0.23109561 -0.74144465 -0.0048737079 198
-0.11663558 -0.79827386 -0.011759068 198
-0.080273233 -0.73797631 -0.0058488925 198.33333
0.042634107 -0.73917449 -0.0068024253 197
0.15500817 -0.73497611 -0.010395947 195.39999
-0.47610623 -0.61886716 -0.0024635789 183
-0.31562433 -0.65456057 -0.0077062952 201
-0.28104386 -0.6218425 -0.0059518954 199
-0.14124881 -0.63435954 -0.0072213798 195.60001
-0.034954175 -0.66820568 -0.0098450184 195.39999
0.070906051 -0.68142867 -0.011467878 193.5
0.19375737 -0.61198944 -0.0097011961 191
-0.38335273 -0.55215234 -0.0021207163 198.5
-0.22325951 -0.56811303 -0.0063260137 196.5
-0.14454146 -0.56209689 -0.01099765 194.5
-0.039519429 -0.51142508 -0.0052468027 191.33333
0.039286073 -0.54963243 -0.0073982421 190.16667
0.12026493 -0.57269645 -0.0072851903 190.60001
0.21955384 -0.53081518 -0.010081407 187.66667
-0.10769114 -0.45902693 -0.0013620962 190
-0.041681636 -0.46994087 -0.0030315456 190
0.059459422 -0.43977523 -0.019529486 186.0625
0.15364504 -0.46304855 -0.026169267 184.47368
0.24280037 -0.45365986 -0.024682771 182.36363
-0.61938292 -0.3973985 -0.0066519189 168
-0.53863263 -0.36559886 -0.0073078228 186.33333
-0.43853891 -0.3260299 -0.0069309413 198.25
-0.38892034 -0.30740288 -0.014202575 196
-0.20654224 -0.32348907 -0.0068946215 190
-0.16557504 -0.30010819 -0.00086667354 190
-0.044327494 -0.31420448 -0.027324112 183.2
0.085769832 -0.36506689 -0.017051745 182
0.16107093 -0.34749445 -0.028363079 178.18182
0.25041616 -0.34834379 -0.042368848 176.24445
0.30421704 -0.31118208 -0.063024357 173.75
-0.62336671 -0.26206169 -0.0045797392 173
-0.53627294 -0.24007966 -0.011001989 193
-0.45192829 -0.21784192 -0.0071207038 197.75
-0.34954756 -0.2918053 -0.013783865 194
-0.25182173 -0.25243992 -0.0078142993 190.28572
-0.13726011 -0.24035369 -0.022893816 185.5
-0.029019512 -0.23945038 -0.023729336 180.78572
0.040965386 -0.23752329 -0.048707694 176.24243
0.11137024 -0.20967743 -0.062018067 171.5
0.26200655 -0.2418098 -0.042356797 171.39394
0.31884772 -0.23818512 -0.041311219 171.58824
-0.76836574 -0.15334435 -0.0013059985 154
-0.6704278 -0.14065973 -0.0065443581 171.33333
-0.55590838 -0.1256882 -0.010187382 194
-0.45311046 -0.112246 -0.013271031 196.33333
-0.36620682 -0.1003206 -0.0064560156 193
-0.25314465 -0.16654384 -0.0096070012 187.57143
-0.1692135 -0.14672264 -0.030174775 185.33333
-0.040100396 -0.1423413 -0.040522616 178.2973
0.046774331 -0.1468074 -0.06279961 173.34616
0.15465859 -0.14219515 -0.036947794 169.75
0.25197634 -0.14390649 -0.04497762 168.51546
0.33146057 -0.13990155 -0.049719416 168.11539
0.75133401 -0.11496706 -0.040414691 177.66667
0.85435688 -0.14910634 -0.026772568 182
0.94751972 -0.13449763 -0.03688715 183.60001
-0.86686057 -0.012479384 -0.002471779 140
-0.75481665 -0.011402899 -0.0024549046 152.5
-0.67801166 -0.010814247 -0.0079504298 167.33333
-0.55489522 -0.0097917337 -0.013415274 194
-0.45325226 -0.0089201592 -0.016596021 196.39999
-0.32415935 -0.039869864 -0.0087114871 191.75
-0.2381337 -0.047797505 -0.0086955233 187.8
-0.17113453 -0.041307684 -0.034335114 183.77272
-0.050783444 -0.032712009 -0.049640674 177.09756
0.060247146 -0.040417328 -0.048448849 171.54054
0.15604405 -0.043324754 -0.046150755 169.15555
0.25427431 -0.044659164 -0.072820015 167.9929
0.35666525 -0.036748283 -0.075539634 168.44057
0.45601159 -0.0099502997 -0.057610504 168.91228
0.55322385 -0.02959423 -0.081115097 171.86363
0.63844508 -0.045306094 -0.059289087 174.63637
0.75550264 -0.045892328 -0.045505304 177.62962
0.8543933 -0.061795779 -0.032165442 180.53334
0.95157671 -0.048916679 -0.03875532 177.5
-0.45667058 0.093512535 -0.018415181 195.8
-0.32987526 0.079271607 -0.012244536 191.85715
-0.23050617 0.068142176 -0.013124486 188
-0.1723835 0.061784469 -0.039328076 183.89999
-0.044107713 0.059267342 -0.055048499 177.07408
0.05130684 0.060594022 -0.057862688 172.32143
0.1552316 0.053289738 -0.047562107 169.02942
0.24915181 0.036474224 -0.071874373 167.94872
0.36047673 0.010176655 -0.075668693 168.46017
0.43683174 0.033946041 -0.057861906 168.82069
0.55151016 0.047937144 -0.082507402 171.75
0.6362009 0.04774655 -0.059286613 174.6207
0.75137478 0.047453303 -0.049016885 177.5
0.85072219 0.050750535 -0.032108191 179.60001
0.9401992 0.050497595 -0.03840071 177.16667
-0.84409934 0.13677633 -0.0021412605 140
-0.75441557 0.126784 -0.0080709271 154
-0.67043722 0.11740442 -0.010759274 174.5
-0.55969936 0.10503533 -0.015378439 194
-0.25969073 0.15217146 -0.014725594 189.33333
-0.15557036 0.15461184 -0.034244765 184.80952
-0.046560623 0.13416114 -0.039968673 179.06897
0.038656592 0.13204615 -0.070886187 169.78572
0.45934266 0.13715442 -0.06962198 170.60001
0.55312645 0.1492843 -0.080579832 172.62338
0.63685757 0.14380071 -0.052169401 175.125
0.74162203 0.14874133 -0.042844441 175.83333
0.85010105 0.15540999 -0.036918651 180.5
0.95651215 0.14654672 -0.047854062 177.5
-0.82201761 0.28517947 -0.0086267721 148
-0.73941767 0.26566532 -0.0098357666 158.5
-0.66220409 0.24756953 -0.014846115 174
-0.55333138 0.22176379 -0.014555298 191.25
-0.4803896 0.20436606 -0.011612523 198
0.4776752 0.24212503 -0.079197809 172.85185
0.53824973 0.24086714 -0.057479709 174.12245
0.65666139 0.25048169 -0.050568998 175.03334
0.74451578 0.24621376 -0.034097582 178.30769
0.84464765 0.24247517 -0.038211294 185
0.95181936 0.2470953 -0.051972918 183.5
-0.89035946 0.30130768 -0.0072443937 138
0.48639423 0.33032307 -0.050166525 173.33333
0.55267745 0.35251489 -0.054642897 177.29167
0.63641763 0.34700415 -0.039531153 180.82608
0.75207782 0.34750879 -0.040438518 186.27272
0.84290582 0.33625025 -0.04703854 189.66667
0.92252976 0.34527963 -0.06235471 192
0.53528744 0.43763742 -0.040570688 184
0.65245205 0.46532089 -0.042562176 188.22223
0.73779112 0.43586299 -0.043355707 189.625
0.85574102 0.46313652 -0.06200685 193
0.91125649 0.40170714 -0.062750861 194
0.54576361 0.55266356 -0.049781904 190.16667
0.61959076 0.53831172 -0.050927341 190
0.74503958 0.57236552 -0.065121792 193.33333
0.8144896 0.54451478 -0.062383484 194.66667
0.58028513 0.66399503 -0.066437639 192.8
0.66876447 0.6474002 -0.066004917 193.66667
0.76255012 0.63198376 -0.064383 195
0.58893162 0.70446974 -0.059277307 190
0.6060468 0.7565192 -0.070432678 190
-0.19023268 -0.9062748 0.0059282826 188
-0.068046287 -0.96676677 0.0090226168 189
-0.49109808 -0.81067085 0.01830429 158
-0.33470908 -0.86054069 0.0099819098 178.25
-0.12670766 -0.80640507 0.0046993145 199
-0.012680991 -0.84986526 0.0058811451 197
0.10158212 -0.88958442 0.0045194738 197
-0.43267533 -0.75874048 0.0094669163 174.5
-0.23728149 -0.74518627 0.0052985866 200
0.14059041 -0.76939005 0.0014375309 199
-0.55507916 -0.67128348 0.016937608 158
-0.48972973 -0.62590706 0.009851506 175
-0.33615726 -0.67020607 0.004542015 196.5
-0.15508075 -0.64787841 0.0013188084 198
0.090764135 -0.63141125 3.1401454e-05 194
0.16909634 -0.62036055 0.0037671381 192.8
-0.42567587 -0.58060086 0.0066453326 189
-0.36150789 -0.53413665 0.0082752779 199
-0.23208508 -0.57435268 0.00063878781 198
-0.060811784 -0.53372806 0.0037983349 193
0.012896466 -0.5869801 0.0018846791 193.5
0.13437034 -0.53418601 0.005528403 190.33333
0.21692851 -0.52491504 0.0051149069 188
-0.75975668 -0.45044065 0.011586517 140.33333
-0.67922145 -0.41966394 0.003724124 153.5
-0.26902553 -0.46350437 0.027043452 200
-0.12914459 -0.47713658 0.00523913 192.5
-0.063888364 -0.41440567 0.012017132 190.5
0.039677087 -0.45947403 0.0037797277 188.60001
-0.61249989 -0.39285585 0.0071912478 162
-0.52068251 -0.35674196 0.0060959714 181
-0.1758713 -0.33072719 0.029371176 192.66667
-0.034493394 -0.38452816 0.020755544 187.5
0.016758546 -0.32707024 0.054850455 187
-0.62038815 -0.2601487 0.0075147473 167
-0.55460227 -0.24350353 0.0030757138 183.5
-0.47309613 -0.21655273 0.064668551 163
-0.278164 -0.26169857 0.00080334023 193
-0.15165426 -0.29000387 0.013564608 189.33333
-0.086964913 -0.24158478 0.089044027 191
0.045120727 -0.22655183 0.077459097 180
0.16099799 -0.21259633 0.044661485 164
-0.85109031 -0.164186 0.0010643487 140
-0.74074483 -0.14918597 0.0069878888 154.5
-0.57349652 -0.12717189 0.0040069092 183
-0.3156178 -0.17938606 0.025792187 191
-0.27010536 -0.16776602 0.023908179 139.75
0.17680652 -0.17478222 0.065054275 150.88889
0.21877277 -0.16797107 0.085079744 124.91666
-0.79040951 -0.011535231 0.005525779 147
-0.5839293 -0.0096669635 0.0015908149 181
-0.3362411 -0.051509336 0.00026316929 193
-0.76329696 0.12772009 0.001457387 149
-0.41065365 0.18709476 0.0078412425 197
-0.21909757 0.1392507 0.071774818 179.25
-0.18456189 0.1317044 0.054984268 152.5
-0.036050405 0.14924417 0.068860047 177.33333
-0.072864905 -0.29462755 0.15220624 174.5
0.052856013 -0.23696597 0.1336263 173
-0.3219263 -0.17115429 0.13030376 159.5
-0.004372905 -0.18179975 0.17374945 157.5
0.058016047 -0.17571859 0.16561735 129.60869
0.14783156 -0.17690285 0.1311492 128.11765
0.20605537 -0.17651334 0.1041082 121.5
-0.016094856 0.13439398 0.17174388 145.90909
0.012605138 0.12626296 0.13743256 139.58333
