# .PCD v0.7 - Point Cloud Data file format
VERSION 0.7
FIELDS x y z intensity
SIZE 4 4 4 4
TYPE F F F F
COUNT 1 1 1 1
WIDTH 522
HEIGHT 1
VIEWPOINT 0 0 0 1 0 0 0
POINTS 522
DATA ascii
-13.25266 -3.0550895 2.693778 13
-12.335486 -3.805217 2.475982 12.5
-11.334492 -3.8719835 2.6639173 13
-9.7754707 -3.824631 2.3575015 13
-8.9128103 -3.7994378 0.72584951 9
-8.7793188 -3.8163431 0.85375589 10
-7.4404225 -3.7762005 1.7929177 13
-7.4574914 -3.7670689 2.4522507 15
-7.0064821 -3.7575421 2.3406231 15
-6.5884738 -3.7462397 2.2392795 15
-5.2386408 3.041137 0.29896468 8.5
-5.2506585 3.0087352 0.53981692 9.666667
-4.9196644 -1.8433825 0.34457779 9
-4.9847026 -1.782699 0.60135055 10.333333
-5.1494827 -3.3208427 1.4788463 14
-4.4566793 -3.3505471 0.18940374 8
-4.6167121 -1.6133595 0.35873941 9
-4.4240403 -3.421253 0.59485757 10.166667
-4.6097298 -1.577495 0.46227801 10
-4.4010439 -3.6190813 1.0326586 12
-4.4141679 -3.4174981 1.0318674 12
-4.461803 -1.4482156 0.91905063 13
-4.214828 -3.4542503 0.20931749 8.25
-4.3983269 -3.5741198 0.4481712 9
-4.3974161 -3.4558566 1.0879297 13
-4.0977001 -2.050492 1.1113613 14
-4.0682645 -1.6933972 1.0234803 13.5
-4.398448 -3.4326172 1.3546299 14
-4.1285753 2.1582673 1.3912135 15
-3.9877577 -1.6350987 0.84921235 13
-3.8610542 -1.4590797 0.96009111 13.75
-3.3880353 -3.6757014 0.23883241 8.5
-3.3407056 2.1083696 0.3143059 9.5
-3.3296504 3.0686889 0.32862222 9
-3.3668711 4.1973987 0.26931372 8
-3.3437004 4.5816255 0.28845 8.5
-3.2790256 4.9480672 0.30897036 8.5
-3.3213367 6.4673085 0.36474061 8
-3.5193067 -3.6834064 0.46225679 10
-3.264713 -1.6921943 0.52207994 11
-3.2762272 -1.5957385 0.46974975 10.5
-3.3288846 -0.9780491 0.79754835 14
-3.2195051 2.1897097 0.64283186 11.8
-3.2586601 2.5768762 0.58165437 11
-3.3159945 3.0043621 0.5637244 10.833333
-3.3286233 3.4180799 0.602166 10.5
-3.3431644 3.8074629 0.64634681 10.666667
-3.359107 4.2189898 0.58144373 10
-3.3150301 4.59057 0.58992904 10
-3.3315694 4.9970746 0.64172614 10.5
-3.3901608 5.3857388 0.77218795 11
-3.3932977 6.0628772 0.77829361 10
-3.3503606 6.4516435 0.62825817 9.5
-3.372169 -3.6595666 1.0308105 12.8
-3.5318327 -1.2404947 0.81020582 13
-3.2334266 2.2448623 0.99102068 14.25
-3.2317188 2.5852401 0.97678268 13.8
-3.3047006 2.9982789 0.96619689 13
-3.3186975 3.3875027 0.98559701 12.833333
-3.3329928 3.8075771 1.0067027 12.5
-3.3431475 4.2291431 0.95837116 12.4
-3.3276811 4.5360022 1.0142087 12.333333
-3.3603699 5.0010881 1.1304691 12.5
-3.3788519 5.4290195 0.93118006 11.333333
-3.375268 5.7954335 1.0144771 11.5
-3.3983302 6.179625 0.87093574 11
-3.2928884 6.473774 0.8583163 10.5
-3.2716565 7.7769613 0.92253792 10
-3.4143875 -3.6590321 1.2125785 14
-3.2944834 3.013684 1.2609954 15
-3.3058183 3.4204559 1.2914927 14.666667
-3.3131571 3.8334005 1.3459854 14.5
-3.3242397 4.2082381 1.4178745 14.5
-3.3325813 4.6243243 1.4985148 14.5
-3.3431585 5.0099502 1.4913768 14
-3.3571286 5.4253955 1.3664112 13.2
-3.3738053 5.8339963 1.310724 12.5
-3.3797712 6.257133 1.3652709 12.75
-3.2474406 6.490314 1.3435395 12.5
-3.3356917 7.7933116 1.2337284 11
-3.3361831 5.0489721 1.6647959 15
-3.3442693 5.4367428 1.7442878 15
-3.3483353 5.7719874 1.7247806 14.5
-3.3600955 6.1831832 1.8383217 14.666667
-3.2274957 6.4598293 1.947233 15
-2.9266129 -2.0925009 0.32577223 9.5
-2.935266 -1.8724464 0.30742741 9.666667
-2.821811 -1.1237299 0.36100793 10
-2.9879692 2.162961 0.3372834 9.5
-3.1991696 3.1551423 0.35114372 9
-3.0161736 3.2254343 0.24883674 9
-2.9640408 5.0004711 0.35107058 9
-2.9851315 5.4423065 0.37060264 9
-3.0319588 -2.140141 0.5466494 11.333333
-3.0039608 -1.7973999 0.59232008 11.857142
-2.9128578 -0.99170184 0.56275719 12.25
-3.1245027 2.2464547 0.50430268 10.666667
-3.1015623 2.5890865 0.41383794 10
-2.9931777 3.1364102 0.46926641 10
-3.05305 4.9438972 0.55488175 9.5
-2.9854789 5.3903613 0.60926729 9.666667
-3.0486324 6.4887948 0.77176076 10
-2.8898604 -3.6579974 0.94179529 12.5
-2.8918357 -2.0836604 0.8637017 13.5
-2.9786649 -1.8208718 0.91886336 14.5
-3.143765 -1.6001809 0.85348767 14
-3.1980591 2.2535284 1.0497332 14.5
-3.2006028 2.4221849 1.1420875 15
-3.0900183 4.6182775 0.88917732 12
-3.0663908 6.5035944 0.82440978 10
-2.9681261 6.5326118 1.8578227 14.5
-2.5644498 -2.9129541 0.34773913 10
-2.736145 -1.0770761 0.27775076 9.5
-2.7116745 3.2131052 0.28061271 9
-2.7021799 3.1371131 0.48901474 10
-2.5666971 3.2132447 0.50525594 11
-2.5298746 6.4977894 0.67719716 9.5
-2.474402 6.4917421 0.95925599 11
-2.4874511 6.5049219 1.4158664 13
-2.5747473 6.5211945 1.8383459 14.5
-2.042623 -2.0407152 0.32805568 10.5
-2.0056379 -1.9690033 0.33066207 10
-2.0423131 -1.0607647 0.25786346 10
-2.0837321 -0.6718815 0.33085617 11.5
-2.2854543 -2.9316499 0.42810032 10
-2.0195053 -2.7401617 0.55294198 12
-2.034616 -2.1545854 0.48303908 11.5
-2.0458269 -1.0764093 0.4251937 12
-2.0349107 -0.69393325 0.49850905 14
-2.0539181 4.2681689 0.59522998 11
-2.1063633 6.3905869 0.77761817 10
-2.2408741 6.3854208 0.89332145 11
-2.2238753 6.4219456 0.83477426 11
-2.1771755 6.3860059 1.4023068 13
-2.2844346 6.4296179 1.4031085 13
-2.1909752 6.4293394 1.8051401 14.5
-1.7949983 -3.4482379 0.24552432 8.833333
-1.9489136 -3.0541325 0.2708323 9
-1.9973143 -1.0789541 0.3085539 10.5
-1.9799367 -0.50928289 0.38731861 12.5
-1.7974879 -3.5032175 0.60303122 11.571428
-1.9374502 -3.0127876 0.55029237 11
-1.9660505 -2.572202 0.66787958 13
-1.9771092 -2.2461638 0.59941733 12.5
-1.994188 -1.9310751 0.75122786 14.5
-1.9819455 -0.49261385 0.44120145 13
-1.7906713 4.2867508 0.59195107 11
-1.7591046 5.2565298 0.47436953 9.333333
-1.8094996 -3.4639618 0.94754761 13.8
-1.855881 6.3848119 0.96378487 11.5
-1.7881838 6.4144468 0.9328149 11.2
-1.7574217 6.372117 1.3908439 13
-1.7632177 6.4190211 1.4016074 13
-1.7244588 6.3972006 1.709138 14
-1.8179754 6.4277692 1.8118623 14.666667
-1.3999419 -3.6090341 0.2828933 9
-1.3322989 -3.5927267 0.20694338 9
-1.338834 -3.6036022 0.57591933 11.5
-1.3727447 -3.5932446 0.65973461 12.2
-1.2039258 4.3450336 0.5189482 10
-1.3973759 -3.5898681 0.96332002 13.8
-1.2434992 -2.9306221 0.87249893 15
-1.2633785 6.3687816 0.97247374 11.5
-1.4328407 6.4185801 1.0478531 11.666667
-1.3544303 6.3969193 1.4281117 13
-1.4374441 6.4171281 1.5248872 13.666667
-1.3752214 6.4266129 1.7749088 14.5
-1.0541825 -3.604161 0.17788689 8.333333
-1.0040549 -3.5873322 0.25571501 9
-0.98235857 -3.5852551 0.57562011 11.5
-1.0017891 4.3022738 0.48862663 10
-1.0203623 6.4186816 0.71360415 10
-0.99351662 -3.579129 0.95934129 14
-1.1128832 6.3886857 0.9789142 11.5
-0.92994559 6.4309936 0.96203834 11.333333
-1.1589249 6.3790183 1.4098524 13
-0.94310933 6.4309745 1.4819405 13.333333
-0.93947983 6.4382591 1.8350186 14.666667
-0.47459951 -0.31660119 -0.0065773246 7
-0.57494187 0.22669955 -0.0097916853 6.6666665
-0.6067791 -3.6053517 0.037267242 7
-0.58942199 -3.5792408 0.22119331 8.7142859
-0.66988677 -2.2380095 0.04298804 8
-0.67715305 -1.2629892 0.034999259 8
-0.6007514 -0.97854513 0.024787117 7.8000002
-0.52980083 -0.59816241 0.009374951 7.25
-0.54401219 -0.28145096 0.025831124 8.333333
-0.60347468 -3.5680954 0.61862087 12
-0.58417475 4.3398771 0.51686329 10
-0.72237319 6.470727 0.71688092 10
-0.62127948 -3.5657394 0.94961929 14.2
-0.58165044 6.4562087 1.0150478 11.25
-0.61919272 6.4590092 1.4275134 13
-0.57910585 6.4618669 1.7982329 14.25
-0.021435212 -0.87790531 -0.0085504716 7
-0.16598195 -0.60562468 -0.0092300922 6.5714288
-0.19916713 -3.56617 0.19101126 8.5
-0.29232326 -2.0908117 0.049076516 8
-0.22611168 -1.5312736 0.039098371 8
-0.28696036 -1.0547028 0.015518366 7
-0.21933474 -0.60010719 0.0037927248 7
-0.19377257 -3.5567074 0.6169619 12
-0.33892101 4.3211403 0.51814812 9
-0.18071166 6.4767308 0.75575417 9
-0.19105092 -3.5504787 0.96651733 14.6
-0.2122885 6.4731455 0.97338748 10.333333
-0.199525 6.4766312 1.3816587 11.833333
-0.18443871 6.4713578 1.7745203 13.5
0.14555 -0.57250458 -0.012380349 6.4000001
0.20875941 -3.5520382 0.1888541 8.5
0.0034659212 -1.1825989 0.022168061 8
0.14748546 -0.57432663 0.0041027088 7
0.2208906 -3.5453472 0.60823458 12
0.17128664 6.4977489 0.73103607 9
0.18496178 -3.5394714 0.95668763 14.666667
0.17809148 6.4949331 1.0178872 10.5
0.17291482 6.4886389 1.3646809 12
0.20089303 6.4876938 1.7577176 13.5
0.62142694 -0.038648028 -0.057925843 4.5
0.5991472 0.15922776 -0.06785509 3.8181818
0.7192024 0.65693527 -0.06747593 5
0.76508135 0.87394696 -0.078004718 5
0.60251528 -3.5418916 0.1934759 8.5
0.60046303 -3.5340776 0.59079975 11.75
0.60187209 6.4996939 0.70662612 9
0.61168468 -3.5284438 0.92713344 14.333333
0.58754885 6.4940619 1.0293131 10.5
0.59730184 6.4932814 1.4134413 12.333333
0.57551068 6.4971623 1.8114161 13.8
1.0123439 -0.16980667 -0.03544898 6
0.98914707 0.22875093 -0.051121771 5.5
0.98165005 0.59381706 -0.068286657 5
0.87424242 0.96778113 -0.080018617 5
1.066846 1.3711232 -0.075511351 6
0.95907271 1.7591854 -0.0872458 6
1.0246719 2.2931197 -0.10899154 6
1.1052636 2.5853326 -0.11974797 6
1.0385612 -3.5035064 0.13359277 8.1111107
0.99437207 -3.5238972 0.57851464 11.555555
1.1737019 -1.2423155 0.47443283 14.5
1.1678869 -1.150316 0.43818519 14.5
1.1150033 5.8380742 0.72307938 9.5
0.95312816 6.4752769 0.69464386 9
0.99350452 -3.5222549 0.91256255 14
1.1277295 5.8371058 0.96293938 10.666667
1.0116644 6.1355944 1.0100018 11
0.93392497 6.4839158 1.0392381 10.333333
1.1126798 5.8841572 1.3579115 12.5
0.91305113 6.494391 1.4187196 12.333333
1.0216237 5.9989882 1.6834925 14
0.92901027 6.4989033 1.8132648 13.75
1.4450245 -0.26962104 -0.046355497 6
1.3198436 0.23671937 -0.065222733 5.5999999
1.4555284 0.61543214 -0.068284154 6
1.4431721 1.0151806 -0.076699615 6
1.3907872 1.4183044 -0.084899426 6
1.3435165 1.8193811 -0.10093597 6
1.3200948 2.2050755 -0.11420344 6
1.5429593 2.7342651 -0.13624261 6
1.258989 3.1400857 -0.14261593 6
1.3798789 3.5708745 -0.16547628 6
1.3828826 -3.4013546 0.22964056 8.833333
1.2332177 -1.2349706 0.30224508 12
1.427989 -1.0463847 0.31302467 12.083333
1.5403132 -0.67565596 0.31625968 12.4
1.420911 -3.4141293 0.52677876 11
1.4656357 -1.0251191 0.46044961 14.285714
1.5660766 -0.65239388 0.45080692 14.5
1.4425547 5.8240519 0.65548128 9
1.3930362 -3.408756 0.92241341 14.111111
1.3868122 5.8310847 0.98061556 10.666667
1.3993152 5.833952 1.3550273 12.5
1.3743968 5.8755045 1.7016175 14
1.9846116 -0.50917947 -0.057864293 6
1.7700632 0.24209408 -0.06762071 6
1.9050894 0.56356049 -0.076792136 6
1.8085423 1.0186312 -0.090631828 6
1.754705 1.3704067 -0.098158464 6
1.7723258 1.7922114 -0.10984324 6
1.6683909 2.1967103 -0.12050503 6
1.6684462 3.0316491 -0.14945807 6
1.8374451 3.4301162 -0.170054 6
1.9606876 5.8791537 -0.062485199 7
1.8248218 -3.4998209 0.14677404 8.1999998
1.787771 -0.59840178 0.30975899 11.727273
1.8767965 5.873498 0.21514428 8
1.7835158 -3.4652779 0.54996818 11.125
1.8224021 -0.59408075 0.50114316 14.4
1.7989509 5.8783832 0.66690332 9.8000002
1.7661345 -3.4588096 0.96630234 14
1.7932211 5.872932 0.97398365 11
1.620658 5.8895631 1.5645837 13
1.9397749 6.2198658 1.4014764 13
1.7948922 5.8856235 1.7270435 14.5
2.2377043 0.94927222 -0.10091157 6
2.1575022 1.3739829 -0.1132425 6
2.1862211 1.8028417 -0.12617958 6
2.1031811 2.2208457 -0.13259353 6
2.1453109 2.6176164 -0.14633314 6
2.2107174 3.1276903 -0.16580823 6
2.013262 5.9010291 -0.22004093 6
2.1844389 -3.4956958 0.13612436 8
2.2241035 -0.59818739 0.27788743 10.714286
2.208504 -3.4824026 0.56401694 11
2.2013948 -0.58442074 0.55006361 14
2.1675136 5.8756981 0.54865956 9.5
2.3026178 6.4794741 0.79169738 10
2.2137272 -3.4780669 1.0398976 14.4
2.3405747 -3.4721704 1.2184304 15
2.1419902 5.9437356 1.467074 13.666667
2.1863806 6.0978484 1.4169999 13.25
2.3225794 6.4218469 1.2863574 12
2.2026405 5.8813729 1.7504846 15
2.491348 -0.67349106 -0.02026744 7
2.536082 0.65245724 -0.091670319 6
2.5072708 1.2648762 -0.1105024 6
2.4961369 1.6368247 -0.1330515 6
2.6785738 2.2969751 -0.15586524 6
2.4819798 4.9741569 -0.21515745 6
2.4582629 -3.4807618 0.1990803 8.5
2.5473711 -0.5896886 0.25034359 9.625
2.7565601 5.9322395 0.1781189 8
2.4966385 -3.4739895 0.58780056 11
2.5620556 -0.57528102 0.59393847 13.5
2.5464246 5.9187298 0.51963121 9.333333
2.7706416 6.3700848 0.77249986 10
2.5446243 6.4502764 0.78366292 10
2.5269272 -3.4695067 1.0240322 14
2.57447 6.4661164 1.0407853 11.25
2.4975712 -3.4645452 1.2390032 15
2.6097574 6.0667753 1.464529 13.5
2.5785778 6.4279141 1.2866054 12
2.608639 5.8867526 1.7567043 15
2.7286155 6.0726027 1.6189716 14
2.5862136 6.5923748 2.088309 15
3.0072963 0.4592849 -0.11451502 6
2.9685371 1.139119 -0.12761401 6
3.131793 1.6337098 -0.16016109 6
3.0317719 2.0512733 -0.16977701 6
3.128746 4.7092619 -0.23181592 6
3.1517794 4.8341131 -0.071627997 7
2.8396559 5.9216604 -0.11568363 7
2.9947536 -0.57008809 0.27528068 9.833333
2.9760516 -0.56386775 0.60986346 12.8
2.9810901 5.9157395 0.53777033 9.333333
3.0706258 6.4490805 0.7694577 10
2.9885895 6.4890165 1.0479014 11
2.986285 6.1566477 1.4243195 13
3.1326337 5.9072628 1.7713047 14
3.080606 6.1023593 1.6568331 14
3.0419831 6.4968362 2.0816085 15
3.5151861 -0.59458417 -0.063113093 7
3.5586989 4.1719193 -0.068580881 7
3.3935916 -0.55990756 0.2068713 8.75
3.5256586 4.2250323 0.17459135 8
3.2783015 5.1719322 0.14703687 8
3.282968 5.2116761 0.20696422 8
3.4637775 5.891603 0.38146028 9
3.3570466 -0.55524629 0.64094824 12.4
3.3017452 5.9584661 0.56174892 9
3.4563689 6.4865708 0.76620191 10
3.2926464 -0.55830979 0.87271523 14.5
3.4290833 6.4917932 1.1050116 11
3.4282894 6.1210551 1.4480965 12.666667
3.3618882 5.9180431 1.7011079 14
3.4214799 6.5051227 2.1012709 15
3.8201199 1.0399191 -0.16463134 6
3.7046297 4.2926364 -0.25029713 6
3.7664144 -0.54817331 0.28285092 9
3.8566158 4.2622614 0.2766839 8
3.7823758 -0.54161936 0.6573298 12
3.8109195 4.5037999 0.50171393 9.25
3.7499778 4.8532219 0.46477392 9
3.8690798 5.9295745 0.6088388 9.333333
3.7963676 6.4959207 0.75400949 10
3.7510085 -0.53034014 0.97026151 14
3.8215885 6.5008836 1.0428493 11
3.749634 6.1353102 1.3123512 12.333333
3.7276323 5.9204583 1.7548114 14
3.8171091 6.1101375 1.6145161 13
3.8164771 6.5092015 2.1224413 15
4.3096104 3.9366541 -0.24552538 6
4.2194271 -0.53926975 0.15133901 8
4.1271477 4.1153183 0.244885 8
4.1857181 -0.53392088 0.55521458 11
4.1485343 4.5508766 0.50867558 9.5
4.2256308 5.9009056 0.58131939 9.5
4.2215128 -0.52809989 0.92188442 13.5
4.0880356 5.34302 1.1147934 12
4.2958841 5.8884368 0.97860599 10.666667
4.1546664 6.1020823 1.0595869 11
4.0705795 6.5058985 1.110287 11
4.2599821 -0.5360173 1.2382143 15
4.2656803 5.904036 1.3197577 12.5
4.1228957 6.0642557 1.3398215 12.5
4.2246442 5.9119434 1.6564559 13.333333
4.2894869 6.5489116 1.9484806 14
4.3606625 5.5816383 2.1350327 15
4.2486367 5.6992817 2.1532385 15
4.2184792 6.4909434 2.1409194 15
4.6844788 3.301357 -0.40095681 5
4.738112 -0.54461575 -0.017811095 7
4.6722922 1.8913118 -0.20426139 6
4.6686325 2.5615995 -0.17658128 6.5
4.4577823 3.1766121 -0.17763694 6.5
4.4242854 4.112884 -0.055720791 7
4.5110917 -0.53522831 0.15453479 8
4.655344 3.1218116 0.28225863 8
4.6537247 3.7331042 0.24970403 8.5
4.575469 4.1384454 0.31284308 8.666667
4.5465355 4.5962062 0.39657626 9
4.6980391 -0.52924716 0.66493565 11
4.7138138 3.1256886 0.57180959 9.5
4.6702824 3.2815053 0.56591713 9.5
4.6646795 3.7669375 0.63183653 9.666667
4.6437306 4.1089778 0.68054837 10
4.4761338 4.5996442 0.66239411 10
4.4827733 5.7624846 0.67720795 10
4.5760093 -0.5213328 0.94992316 13
4.7285748 2.797452 0.86538297 12
4.7677746 3.1361301 0.9447456 11.5
4.6682339 3.3476641 0.92357576 11.333333
4.7104616 3.8019724 1.065318 11.666667
4.6510701 4.0436134 1.157907 12
4.5293245 4.5523262 0.92613029 11.333333
4.4430871 5.045434 0.97530836 11.2
4.441319 5.3786111 0.98924416 11
4.4854202 5.6760592 1.0347667 11
4.6759629 -0.51691723 1.3896216 15
4.7112403 3.1346323 1.2870235 13
4.6942039 3.2833366 1.3485162 13.5
4.7355976 3.7943633 1.3818521 13.333333
4.6967874 4.0637326 1.4463935 13.5
4.4508896 4.5830293 1.3980989 13
4.4528418 5.0182767 1.4778725 13
4.4520903 5.4387779 1.4822431 13
4.4037018 5.8488998 1.2134029 12
4.6582065 3.1433349 1.6073649 15
4.7021465 3.4053886 1.6686804 15
4.6575618 3.7882476 1.7470738 15
4.6834841 4.2132502 1.6661217 14
4.6082463 5.3775549 1.7145967 14
4.5461602 5.7904096 1.7321426 13.75
4.6344829 6.5581665 1.9642285 14
4.6196733 5.5195904 2.1446941 15
4.6635098 6.3401785 2.1348617 15
4.494493 6.417942 2.1412036 15
4.9951038 -0.4836148 -0.063819729 7
4.9873743 -0.18277882 -0.033253275 7
4.9817004 0.25345716 -0.015989864 7
4.9798999 0.49877748 0.00024471802 7
4.9747767 1.130352 -0.045980565 7
4.9329371 1.4138504 -0.027556503 7
4.8242693 -6.4785862 0.32730538 8
4.9419117 -0.46730462 0.15212615 8
4.9852095 -0.22508854 0.22487117 8.5
4.9762049 0.20323436 0.20866297 8.1999998
4.970902 0.60027391 0.19326168 8
4.9625549 1.0228515 0.17308584 8
4.9381952 1.4120095 0.20329143 8.5
4.9500694 1.8153545 0.17271288 8
4.9408937 2.1930437 0.22801453 8.1428576
4.9362326 2.5598276 0.19957554 7.8000002
4.9061227 2.9915895 0.26002869 8
4.8402863 3.4824238 0.14042263 8
4.877234 3.6599872 0.29680669 8
4.860631 4.1894059 0.26243636 8.5
4.8853941 4.5438924 0.25465226 8.333333
4.8412733 -6.6377592 0.60323596 9
4.9557853 -0.4642708 0.57760584 10.5
4.9880486 -0.21549565 0.54276627 10.2
4.9903989 0.19654965 0.610789 10.6
4.9770164 0.61869824 0.58782613 10.2
4.9698348 1.0186318 0.56410354 10
4.9663672 1.3997566 0.59017819 10.5
4.9555354 1.7960043 0.61432862 10.5
4.9471922 2.2227182 0.60349154 10.2
4.9441299 2.6074252 0.59638971 10
4.9290752 2.9743135 0.5957433 9.8000002
4.8872194 3.575336 0.61042905 9.5
4.8558602 3.6886458 0.64104474 10
4.9811373 -6.2392697 1.1579401 11
4.9804921 -0.47015056 1.0064881 13
5.0120811 -0.23075376 1.021787 12.833333
5.0056396 0.19557649 1.0251368 13
4.9954038 0.56713665 1.0558122 13
4.9895468 1.0114436 1.0487777 12.714286
4.9746404 1.4195603 1.0121958 12.5
4.9639382 1.7967105 0.99427098 12.4
4.9583282 2.2050707 1.0180777 12.5
4.9538789 2.6040442 0.9639504 12
4.9503922 3.0535152 0.93187702 11.6
4.8361955 3.5029619 0.99754483 11.5
4.8826475 3.7158549 1.0489039 12
4.8505635 4.1723022 0.96393299 11
4.8979945 4.4815931 1.0344698 11
4.9739466 -0.48144835 1.4886022 15
5.0178919 -0.16453171 1.3975005 14.666667
5.0141549 0.19309609 1.3718504 14.5
5.0043964 0.66353941 1.3570616 14.666667
4.9897523 0.99399465 1.2890611 14.333333
4.9841857 1.3737582 1.360272 14.4
4.9702458 1.7866658 1.4338552 14.5
4.9749856 2.1375713 1.3844948 14.333333
4.9675903 2.5923955 1.3717395 14
4.9654593 2.9802895 1.4033023 13.8
4.8824482 3.6756394 1.448547 13.5
4.8889465 4.5460157 1.3822829 12.8
4.8530154 -6.0356522 1.950002 14
4.8659682 -5.7832427 1.9200041 14
4.9776373 2.2296948 1.6231284 15
4.9753089 2.5832059 1.6964754 15
4.9591913 3.192852 1.6566702 15
4.9389224 4.3965039 1.9156234 15
4.9458756 4.6072059 1.964197 15
4.9412127 5.4234781 1.9483004 14
4.9045081 6.4410095 1.9506258 14
4.8690844 -6.5144548 2.2286887 15
4.8660297 -6.2230401 2.1842551 15
4.9488015 4.9344354 2.0404191 15
4.8987093 5.3479261 2.1320744 15
4.9356265 5.8105307 2.0337498 15
