# .PCD v0.7 - Point Cloud Data file format
VERSION 0.7
FIELDS x y z intensity
SIZE 4 4 4 4
TYPE F F F F
COUNT 1 1 1 1
WIDTH 68
HEIGHT 1
VIEWPOINT 0 0 0 1 0 0 0
POINTS 68
DATA ascii
-2.2370739 -2.69293 0.41960606 9
-2.2263622 -2.1987097 0.40971243 9
-2.2283299 -2.121737 0.48789364 10
-2.2184956 -1.8292412 0.48634678 11
-2.2076235 -1.7059131 0.42677322 10
-2.2068896 -1.2847494 0.39699912 10
-2.2769117 -4.0669131 0.81755596 10
-2.2710669 -3.7925003 0.81705862 11
-2.2466044 -2.9032311 0.77899927 11
-2.2307858 -2.6497712 0.73932904 12
-2.2133601 -1.7654345 0.66196102 12
-2.2349646 -2.2857075 0.76662081 12
-2.196949 -1.0882429 0.44945246 11
-2.1918955 -1.1202072 0.48580819 12
-2.1926198 1.6320926 0.3070817 11
-1.6342977 1.3919424 0.49808991 15
-1.090187 -0.72337621 0.41558325 15
-1.0134548 1.5336475 0.41884679 15
-1.0467763 1.9139793 0.30883572 13
-1.1106421 5.1332951 0.25504023 10
-0.85977787 2.025857 0.37265226 14
-0.7818206 2.1204774 0.38309124 14
-0.70644051 2.3100517 0.36851838 13
-0.66775668 2.3280644 0.56771058 15
-0.75312424 5.1732659 0.80856848 13
-0.64695352 5.1935549 0.99379355 14
0.048968825 -4.7289481 0.31250557 7
0.069890134 -1.1141924 0.27546167 12
0.026465455 1.5500764 0.34556663 15
0.52282947 -1.1009638 0.22766617 11
0.54586148 -0.87376046 0.37793338 15
0.80082816 -0.97776085 0.13785921 9
0.99880344 -1.1159171 0.3869639 12
0.89539629 -0.87833065 0.41088626 13.5
1.3910193 -0.8932516 0.5272615 14
1.2517481 4.3424754 0.19676889 10
1.446867 -0.90462673 0.36437598 11.5
1.5950599 -0.35590854 0.36674267 12
1.5833644 -0.10711026 0.31083101 12.5
1.5921029 0.44259229 0.35945478 14
1.5928875 0.70170397 0.28855485 12.5
1.5069159 -0.83240634 0.45726413 13
1.5906842 -0.39644024 0.47024888 14
1.5935154 -0.13200879 0.45019934 15
1.5117035 4.7034922 0.35982373 11
1.463241 4.4128523 0.7420401 13
1.415519 4.4293413 1.0353703 15
1.6364837 0.58112067 0.10121568 9
1.6483308 1.677869 -0.01376226 8
1.6202793 -0.78482008 0.34450826 11
1.6044846 -0.36941028 0.28139991 10
1.600192 0.18822987 0.30291855 13
1.6010623 0.42921048 0.30966854 13
1.6082835 0.23781124 0.42570376 15
1.6086299 0.51408637 0.42781392 15
1.6604235 3.2761052 0.27408347 11
1.9964566 -0.37842941 0.24748123 10
1.8710169 1.5830675 0.17653069 10
1.9423283 1.6865661 0.28276801 11
1.964002 1.5146596 0.36176744 12.5
1.8031671 3.6327627 0.21571583 10
1.8964688 4.1309905 0.81179893 14
2.04199 0.37782601 0.20636356 10
2.0030379 0.42581862 0.28304753 11
2.0110261 1.3487014 0.29084623 11.5
2.3820844 3.7054231 0.17291537 10
2.4885294 2.8657594 0.14537397 10
2.6511059 2.9434378 0.77920437 14
