# .PCD v0.7 - Point Cloud Data file format
VERSION 0.7
FIELDS x y z intensity
SIZE 4 4 4 4
TYPE F F F F
COUNT 1 1 1 1
WIDTH 75
HEIGHT 1
VIEWPOINT 0 0 0 1 0 0 0
POINTS 75
DATA ascii
-4.8836651 2.6154759 0.39393947 9
-4.5534639 2.6249223 0.25917944 8
-4.1422653 7.7802606 0.35389146 8
-3.7150111 2.6726518 0.31831151 9
-3.2242072 2.7135603 0.44449344 10
-2.8111703 -0.8108775 0.35077214 10
-2.8610051 1.6347357 0.31028235 10
-2.8148286 -0.86334682 0.50752842 11
-2.6703708 -1.0286617 0.34006676 9.5
-2.6126256 -1.0325733 0.53844452 11.5
-2.7784574 -0.72049719 0.61818641 12
-2.7341797 -0.56729007 0.81812608 14
-2.7061176 -0.84806269 0.91472524 15
-2.7639997 1.7980756 1.0125785 15
-2.5486369 -1.0197482 0.72475648 13.5
-1.8218577 -0.97021866 0.44877219 12
-1.6143488 -1.0266956 0.40013781 12.5
-1.6714951 -0.96433693 0.32353061 11
-1.3123972 -1.7605432 0.37177512 11
-1.3052868 -0.92458963 0.42311284 14
-1.0220605 -1.7387228 0.33756238 11
-1.0056679 -1.0839345 0.40216404 14
-1.046465 -0.91213846 0.39636225 14
-0.7342307 -1.5945585 0.32640609 11
-0.75738186 2.3151801 0.55094099 14
-0.33273795 -1.2639506 0.11796503 9
-0.23590416 -1.0378937 0.33596864 15
-0.20288098 1.9129353 0.52193755 15
-0.08630646 -1.0936235 0.19668777 11
-0.12301363 -1.5816832 0.37693244 13
0.11578158 -1.9351245 0.22203118 10
0.1426229 -1.5659547 0.33360687 12.5
0.032873597 -1.6869484 0.46382484 14
0.16910996 1.5579878 0.42406303 15
0.55056888 0.99004579 -0.063818425 6
0.7318157 3.8642693 0.44935656 11
1.1554075 -1.6094176 0.24243096 10
1.3686845 -1.5637928 0.34685487 12
1.2916293 -1.4903246 0.53255075 15
1.2100847 3.7415044 0.41007909 11
1.492965 -1.4719771 0.5461269 14
1.4815695 -0.73908573 0.48026109 15
1.7943413 -1.5622237 0.37310126 12
1.7309414 -0.7247557 0.30750316 12
1.7539232 -0.78263849 0.44708273 14
1.8901403 -1.5299215 0.29230589 10.5
1.9543971 -1.3291945 0.30350307 11
1.8162097 -1.0706207 0.22567767 10.5
1.8176205 -0.86807495 0.29165733 11
1.8442223 -1.3996173 0.50751024 13
1.9497976 -0.89927888 0.39231837 13
2.0270061 -0.70242268 0.23703884 10.5
2.1731486 0.86503345 0.26438999 11
2.085115 -0.71297157 0.40561613 13
2.3962607 0.12149508 0.45534721 13
2.37075 0.64491975 0.38440067 12
2.380213 0.65635902 0.61696476 14.5
2.4822035 -0.46326482 0.12405545 9
2.5102177 -0.76335686 0.17153475 9
2.4509211 -0.43948925 0.46270955 12.5
2.4511795 0.39155054 0.4976337 13
2.5198536 0.1104479 0.62247854 14.5
2.4896402 0.36964208 0.65949088 15
2.638133 0.84004885 0.21183053 10
2.924207 0.42285132 0.25945231 10
2.9894595 2.0174072 0.17560276 9
2.9501746 2.7351964 0.16212122 9
2.9674761 2.546124 0.41061309 11
2.9423487 3.1631422 0.45130727 11
2.9269297 3.2380922 0.29112348 10
2.9918387 2.329186 0.61502868 13
2.9767473 2.4342322 0.51707113 12
2.9148729 3.7358744 0.61636448 12
2.9885943 3.0448625 0.93121147 14
3.0474923 0.1330286 0.27173242 10.5
