# .PCD v0.7 - Point Cloud Data file format
VERSION 0.7
FIELDS x y z intensity
SIZE 4 4 4 4
TYPE F F F F
COUNT 1 1 1 1
WIDTH 186
HEIGHT 1
VIEWPOINT 0 0 0 1 0 0 0
POINTS 186
DATA ascii
0.027637046 -0.90262181 0.013003797 125
0.14668667 -0.94406599 0.0080572367 122.66666
0.27529219 -0.9343552 -0.0017315469 125
-0.097811505 -0.8693614 0.02154992 131
0.041279294 -0.86630887 0.014525739 126
0.17432624 -0.83373606 0.0044831815 136.2
0.28649658 -0.83709657 -0.0036344628 136.60001
0.39655536 -0.83707982 -0.011058323 141.5
-0.02826017 -0.74272758 0.016987368 135
0.079605334 -0.76896745 0.010624226 136.66667
0.19427685 -0.75465447 0.0013022396 144
0.25146455 -0.72706884 -0.0037963875 149.16667
0.36924508 -0.73337084 -0.015339063 155.14285
0.03174286 -0.63445961 0.010670081 140.66667
0.1226283 -0.66146767 0.003186817 146.8
0.22059825 -0.65292752 -0.005730052 156.75
0.34908623 -0.6442166 -0.015358093 163.09091
-0.044601772 -0.58620358 0.013075193 140.5
0.091307618 -0.52709436 0.0042108819 158.33333
0.16534483 -0.55203199 0.00062800985 162
0.24546424 -0.5531888 -0.0082035987 170.39999
0.35971391 -0.55140907 -0.017721388 170.93333
0.077517956 -0.42412406 -0.015207366 170.90909
0.15300658 -0.45848829 -0.015905682 174.10527
0.24505694 -0.45930922 -0.034230873 175.22728
0.36418143 -0.45910621 -0.031010684 169.45833
-0.027352545 -0.34175378 -0.014991788 167.375
0.045034405 -0.35023129 -0.019465564 172.90475
0.15487611 -0.34351584 -0.027023761 172.46153
0.25113744 -0.34316814 -0.027860234 161.2
0.35146964 -0.33628315 -0.026197871 149.08109
-0.10636035 -0.23266783 -0.0071582752 158.39999
-0.052054409 -0.25409219 -0.010569271 169.0625
0.048422515 -0.24628451 -0.034891881 171.54286
0.14908676 -0.2564024 -0.048967883 156.77499
0.25279182 -0.2511631 -0.046898678 143.8
0.35167035 -0.25606322 -0.055776913 148.40984
0.40032247 -0.24642301 -0.0728622 152.22223
-0.13649285 -0.1327533 -0.01105906 159.26666
-0.034943841 -0.15655935 -0.024601998 172.52
0.055620067 -0.14240657 -0.045058582 157.08
0.15397891 -0.14557578 -0.033524461 146.96078
0.25165191 -0.14483663 -0.042348236 152.58064
0.35257617 -0.14306021 -0.052006975 156.55284
-0.14917396 -0.041808769 -0.009770642 158.88889
-0.049509499 -0.060423452 -0.035464741 171.14635
0.057456363 -0.051601645 -0.039209049 158.31035
0.15575419 -0.05142187 -0.034523528 150.54118
0.25371304 -0.049787227 -0.065200113 159.47887
0.36134654 -0.038899582 -0.070903234 162.88673
0.45084617 -0.0040856902 -0.049742244 163.08696
0.54548419 -0.010637537 -0.05154305 162.625
0.64740324 -0.018333027 -0.046216022 168.78947
0.75822705 -0.027300358 -0.029528091 179
0.88900691 -0.037770331 -0.027112912 186
0.92233944 -0.040555984 -0.023101823 187.33333
-0.14885853 0.023098597 -0.010171832 160.55556
-0.051109605 0.019990651 -0.036773283 170.57143
0.05516861 0.015977668 -0.038593624 157.46153
0.15167905 0.01197084 -0.035517406 150.26923
0.2475708 0.0080159623 -0.07206209 160.80769
0.37783495 0.013973105 -0.068374947 161.07576
0.434854 0.036658753 -0.056815997 164.03058
0.54237449 0.045318324 -0.061142106 163.02667
0.64084339 0.048462477 -0.0506332 168.7612
0.75842047 0.044650134 -0.034307957 179.28
0.85716623 0.062993705 -0.025375366 184.57143
0.92408514 0.057540741 -0.027035236 186.75
0.39759934 0.14340219 -0.057798781 162.2381
0.44635367 0.14077206 -0.061524648 162.41861
0.55322635 0.14884536 -0.076456115 165.10001
0.63534886 0.14251657 -0.045108661 172.58537
0.75432485 0.14494427 -0.042675622 180.19231
0.84887046 0.14987859 -0.030801356 185.5
0.95517302 0.14332093 -0.039534036 187
0.4463315 0.250442 -0.076866731 167.38333
0.54185224 0.24305789 -0.057709318 172.2963
0.65095556 0.25031349 -0.047868494 178.04347
0.73850644 0.23864408 -0.038859405 182.7619
0.8547014 0.2405106 -0.040147644 187.45454
0.93499941 0.23653024 -0.046216119 190.5
0.3983463 0.36226618 -0.039037213 175.39999
0.44000396 0.33384582 -0.049364991 174.69231
0.54663557 0.35106397 -0.051298354 178.05263
0.64004296 0.34624308 -0.045712009 181.61539
0.7482388 0.3567498 -0.039792378 186.45454
0.82749891 0.33781633 -0.042952795 189.16667
0.91613352 0.33841035 -0.059858546 190.33333
0.39889607 0.49323392 -0.025067845 183.5
0.43483931 0.45833772 -0.046588507 180.29167
0.53987467 0.43490201 -0.038594037 182.05
0.65479636 0.45725653 -0.042322606 186.55556
0.73226774 0.43762404 -0.044591144 188.5
0.84344035 0.44678822 -0.05719227 191.75
0.39924905 0.51416039 -0.023953669 185.5
0.44872999 0.56058645 -0.033600911 187.45454
0.54962838 0.55133986 -0.03959984 187.85715
0.6304844 0.5279842 -0.042250942 189.25
0.74612689 0.56289339 -0.058042422 191.16667
0.81381482 0.53679717 -0.060336076 190.75
0.43851361 0.63989246 -0.033196833 182.2
0.56939173 0.66487277 -0.048831906 189.16667
0.67943114 0.65740103 -0.052681983 178
0.76209491 0.61661565 -0.05301537 185
-0.29338002 -0.9242534 0.04600168 116
-0.13861954 -0.93767393 0.038899802 121.5
-0.007380479 -0.98617381 0.026010722 120.5
0.0177327 -0.92290437 0.022546463 122
-0.43056092 -0.85977179 0.052074127 111
-0.37854332 -0.80369824 0.051480129 113
-0.23627855 -0.84582776 0.041146085 123
-0.10651192 -0.88040495 0.033879988 128.5
-0.076681405 -0.82913649 0.024460971 133
0.060548272 -0.8112753 0.023229854 136
-0.53445232 -0.75492895 0.056530848 115.66666
-0.47204673 -0.70353323 0.050718453 115
-0.33078817 -0.75468582 0.040639326 120.75
-0.15457235 -0.73386216 0.033367041 137.39999
-0.035825707 -0.75351071 0.024817346 137.5
0.083446376 -0.75570506 0.016374009 138.5
-0.62774128 -0.63820952 0.062685065 107.5
-0.42177445 -0.66240335 0.044549815 122
-0.3687492 -0.61929494 0.036553387 132
-0.2349126 -0.6525293 0.034508921 141.60001
-0.11572741 -0.68204868 0.025086837 144
-0.073969916 -0.62388897 0.024127975 142
0.012470241 -0.6655525 0.021715838 140.33333
0.10959109 -0.68783611 0.016288497 142
-0.53669637 -0.58018458 0.057430837 114.33334
-0.4599213 -0.53199118 0.047767099 126.66666
-0.31056124 -0.56983697 0.039333992 140
-0.26909304 -0.53605235 0.033441797 139.33333
-0.14382045 -0.55607623 0.026128549 143.71428
-0.0096613616 -0.53387582 0.02410428 143
0.052477792 -0.54650474 0.017239086 148
0.15293749 -0.5782249 0.011118691 156
-0.36838132 -0.47335497 0.04447211 141
-0.24793324 -0.44783244 0.035428233 147.11111
-0.13698342 -0.42573676 0.029096253 143.16667
-0.04354199 -0.44850489 0.022739677 146.7
0.033132706 -0.46204126 0.014442972 155.5
0.11168144 -0.48719597 0.0097999852 165.5
-0.65209532 -0.34622255 0.053434014 115.5
-0.57958817 -0.32195047 0.045676541 125
-0.20719546 -0.36933595 0.044016995 146.5
-0.13479277 -0.32287765 0.041924067 145.66667
-0.0630126 -0.36508274 0.02070817 150.66667
0.0095241312 -0.39360136 0.012578838 158
-0.64515734 -0.21139197 0.042764008 119.5
-0.45986238 -0.2811411 0.042899508 141.8
-0.36912891 -0.25002405 0.043369707 149.5
-0.2796945 -0.21776207 0.066001505 141
-0.11237033 -0.23266929 0.020610215 145.5
-0.08017306 -0.29032972 0.022723051 153
-0.52128208 -0.18543524 0.037511934 137.25
-0.42800122 -0.1659437 0.032003999 147.75
-0.34706652 -0.14894278 0.029329326 149
-0.24236587 -0.12675868 0.030460116 147
-0.16032577 -0.15554678 0.049144913 144.625
0.05862708 -0.15080675 0.012994447 132.125
-0.64496601 -0.083758563 0.041036632 122.5
-0.5332281 -0.074232087 0.037642453 137.66667
-0.44385305 -0.066647708 0.030782413 147
-0.34810752 -0.058454834 0.029474499 151.75
-0.24924619 -0.049986593 0.028515931 146.5
-0.18209986 -0.044340055 0.017694354 146.2
0.82585239 -0.033065431 -0.013148582 184.60001
0.92197675 -0.040696613 -0.016517119 189
-0.64767057 0.04025057 0.038125299 122.5
-0.52816999 0.036011558 0.03267223 138.25
-0.43717542 0.032821655 0.026930403 151.75
-0.34742033 0.029540172 0.028556364 149.75
-0.25227407 0.026147204 0.02601894 144.25
-0.1823902 0.023797061 0.016769586 146.39999
0.81948298 0.030843936 -0.016615454 183.60001
0.92011642 0.024685809 -0.020014664 188
0.39782587 0.6736396 0.0039637955 121
0.45431578 0.6698755 -0.0057932679 115.625
0.57548326 0.66201663 -0.0093081836 115.5
0.68448752 0.68405145 -0.022627711 117.5
0.39868143 0.77618986 0.013993734 107
0.41786528 0.75325131 -0.0052719424 96.166664
0.59289294 0.72157675 -0.0087261861 116
0.66424936 0.72645372 -0.013466498 120.66666
-0.0028923021 -0.16163993 0.19320714 123
0.010691631 -0.15560807 0.18799914 121
