# .PCD v0.7 - Point Cloud Data file format
VERSION 0.7
FIELDS x y z intensity
SIZE 4 4 4 4
TYPE F F F F
COUNT 1 1 1 1
WIDTH 253
HEIGHT 1
VIEWPOINT 0 0 0 1 0 0 0
POINTS 253
DATA ascii
0.29846871 0.0053738756 -0.10685971 170
-0.11528504 -0.9022429 0.0064039622 159
0.015667999 -0.93392342 0.0050532706 164
0.14997618 -0.93980062 0.0023393088 178
-0.24125938 -0.84536767 0.0099441335 153.66667
-0.10291068 -0.8817575 0.0026464884 156
0.054339424 -0.83416665 0.0065974602 169.33333
0.17513046 -0.83987123 0.00093799992 176
-0.33995211 -0.75358188 0.0099713495 155.5
-0.29926607 -0.71046513 0.011656711 161
-0.15194966 -0.72543246 0.0061011738 170.5
-0.040699944 -0.76778543 0.0044509117 168
0.074741229 -0.78531617 0.002276887 175
0.14864507 -0.73742187 0.0013797131 179.25
0.20725657 -0.71747637 -0.0054216152 184
-0.23381205 -0.64327013 0.0075295311 172
-0.11659428 -0.67636615 0.0085141109 175
-0.085199334 -0.63686126 0.00058398419 180.75
0.024353949 -0.65105677 0.0017028061 183.2
0.12587489 -0.65707964 -0.00070558279 186.33333
0.23289452 -0.60600334 0.0014134402 187
-0.24372046 -0.50461733 0.0068593305 187
-0.15199485 -0.55950427 0.0016623473 181.39999
-0.016475638 -0.54388559 -0.00069752155 185.25
0.077716097 -0.55554169 -0.0010370456 186.25
0.15285961 -0.58906096 -0.0018468554 187
0.25055552 -0.53482467 0.0011857148 184.2
-0.55661857 -0.42787296 0.010178224 151.5
-0.22504212 -0.49046776 0.0031316699 186
-0.13095844 -0.41417158 0.0043111779 186.33333
-0.046298768 -0.44848719 0.0028810138 184.5
0.051104899 -0.43581441 -0.010501366 181.83333
0.15578102 -0.46642497 -0.011763754 181.22223
0.25007963 -0.45835078 -0.019653575 178.94444
-0.61726522 -0.31360838 0.0091892825 145
-0.43803555 -0.37425354 0.0065571018 169
-0.3476131 -0.33359745 0.0023705906 184.75
-0.044394035 -0.3455905 -0.0011039281 181.60001
0.062577419 -0.34493482 -0.013279327 178.11765
0.15707429 -0.34195295 -0.022337032 174.28125
0.25151032 -0.34677297 -0.03178031 171.825
0.31123027 -0.33667269 -0.041067239 170.61539
-0.50158441 -0.27757871 0.0062697399 168
-0.4428899 -0.25930497 0.0047664121 178
-0.37878472 -0.23985258 -0.0010847525 188.66667
-0.24413264 -0.24005936 0.0024073217 186.16667
-0.12950803 -0.23674558 -0.015469761 181.11111
-0.044636637 -0.22206844 -0.0098206168 178.39999
0.032551318 -0.22419062 -0.036575057 172.88889
0.14662275 -0.2516861 -0.041110825 167.35715
0.25790289 -0.24890538 -0.03636305 165.42424
0.32402378 -0.2360698 -0.034982514 167.36
-0.64303881 -0.18764932 0.0074064317 148.5
-0.52300626 -0.16581568 0.0055027921 170
-0.43851832 -0.1506353 0.0020387534 181.5
-0.34969431 -0.13439295 0.0017508436 189
-0.26177016 -0.11843859 3.0654337e-05 185.33333
-0.16495594 -0.14146449 -0.016028306 181.38889
-0.032119099 -0.15638472 -0.026377521 175.03226
0.048346341 -0.14810282 -0.047383405 168.6207
0.15601751 -0.14423735 -0.028660975 162.31482
0.25697109 -0.13275318 -0.041434012 160.77777
0.33500075 -0.13999864 -0.043442577 158.8
-0.66336942 -0.060986243 0.0062057809 145
-0.52884328 -0.053285055 0.0037554798 169.5
-0.43618938 -0.048269358 -0.0031921507 188.33333
-0.35356781 -0.043361932 -0.0011968632 187
-0.2539742 -0.037534926 -0.00044320637 185.39999
-0.15547809 -0.049928047 -0.019837791 180.26666
-0.049505983 -0.05427685 -0.036859028 173.8718
0.058899842 -0.049157541 -0.038307905 166.1875
0.15547509 -0.050802723 -0.037945062 162.55295
0.25357923 -0.04932199 -0.065683946 162.05882
0.35562742 -0.037835795 -0.071092911 163.70764
0.45720756 -0.0095764156 -0.050257128 162.05882
0.55070364 -0.022210132 -0.060665805 161.41304
0.60775369 -0.034964807 -0.060293734 167.40909
-0.72878897 0.07165803 0.0083769765 133
-0.65317392 0.066634029 0.0026239124 148.5
-0.53380436 0.058857188 0.00082739152 167.5
-0.44906959 0.053288244 -0.0024230173 183.75
-0.33669111 0.045992177 -0.0024172738 187
-0.23228423 0.039143521 -0.0055978629 183.8
-0.15041016 0.049253296 -0.023149444 180
-0.047777131 0.053648636 -0.037686363 174.05
0.062859721 0.049307194 -0.039799977 166.08571
0.15379415 0.043608889 -0.039351981 162.44595
0.24786766 0.027874734 -0.071511164 163.61539
0.36506981 0.0078709032 -0.07023716 161.72131
0.43609941 0.036050439 -0.051956207 160.78737
0.54613054 0.050261602 -0.062625557 158.86301
0.60681325 0.050642148 -0.059029628 164.54546
-0.53049564 0.17181556 -0.00065543165 165.5
-0.44321078 0.15536278 -0.0059303571 181
-0.36925957 0.14137433 -0.0049789627 189
-0.25065106 0.14521676 -0.0040388149 186
-0.16311608 0.14267206 -0.019210938 181.66667
-0.039237231 0.13522156 -0.034797873 175.22223
0.031334724 0.11368525 -0.055627503 169.22223
0.45283014 0.13756597 -0.054244749 154.52702
0.55104828 0.14793733 -0.064596526 156.22058
0.6038335 0.14527859 -0.046735454 168.54546
-0.50405401 0.28219649 -0.00027121382 165
-0.44439095 0.26337042 -0.0058935131 178
-0.3536675 0.23445696 -0.0074576642 188.75
-0.26569349 0.20627326 -0.005419658 187.25
0.46546832 0.25088894 -0.056346081 148.46666
0.54005617 0.23517551 -0.0413826 154.17999
-0.8483445 0.39194885 0.0035892604 113.5
-0.75776178 0.36310408 0.0019754095 125
-0.65113926 0.32922855 -0.0019690108 141.75
-0.57759583 0.30590719 -0.0058749286 154
0.4655087 0.3338823 -0.028969167 143.93333
0.54199356 0.35550737 -0.034685057 159.95
0.4799436 0.44249648 -0.034040932 168.18182
0.53841645 0.43932173 -0.025073919 175.3
0.49455506 0.51443893 -0.03516978 178.5
0.50456327 0.5656532 -0.034686163 174.83333
0.52696317 0.66658306 -0.043310661 169.2
0.5432846 0.75670892 -0.038121652 147.39999
0.55441904 0.8157174 -0.036339782 130
-0.30022949 -0.91885138 0.026638819 139
-0.14339751 -0.94592786 0.020322733 152.25
-0.0061034653 -0.97995794 0.017941717 157
0.0059633749 -0.95087504 0.015645282 159
0.1167888 -0.98043001 0.083207913 214.66667
-0.45234352 -0.8659026 0.026758708 125.5
-0.38960895 -0.80075377 0.025125725 133
-0.26005134 -0.86655176 0.020796297 147
-0.072183259 -0.82010102 0.013643705 163
0.053760611 -0.83017057 0.01403402 168
0.16627109 -0.86276656 0.012093937 175
-0.35289845 -0.76328623 0.022106964 148
-0.17339295 -0.75102258 0.014966129 165
-0.032654364 -0.74891776 0.012464042 168.5
0.094323263 -0.72910869 0.01079058 177
0.19641636 -0.74449205 0.0091178054 180
-0.715455 -0.67459184 0.027347719 105
-0.67601341 -0.65067023 0.024849357 102
-0.26142517 -0.66844571 0.019272696 165
0.0027212605 -0.68547463 0.010913751 178
0.13713729 -0.62149429 0.0086144581 189
0.22457889 -0.63169825 0.0082801133 189
-0.80930507 -0.54035008 0.0294639 110
-0.74702132 -0.51251328 0.025395717 115
-0.27486688 -0.52647549 0.019967865 174.2
-0.18050577 -0.58593667 0.012403885 180
-0.040857356 -0.53505701 0.010211912 187.25
0.063065626 -0.57633424 0.0099700401 187.5
0.16166851 -0.51689947 0.010059319 185.2
0.25018194 -0.52453893 0.011439927 184.33333
-0.64840037 -0.46801183 0.021707946 128.33333
-0.57131612 -0.43273562 0.021990219 145
-0.1677523 -0.43796849 0.027842296 182.39999
-0.035603549 -0.43546823 0.0086378902 184.39999
0.039421163 -0.46405247 0.008664798 185.33333
0.11084018 -0.49068978 0.0077197785 185.5
-0.82488251 -0.37717503 0.023799991 109
-0.74763602 -0.35279563 0.024450086 116.5
-0.65327597 -0.32351011 0.021118725 130.66667
-0.47918901 -0.39157492 0.015989846 163.5
-0.37775469 -0.34586877 0.011904972 178
-0.27852598 -0.30030835 0.013326215 188
-0.065010183 -0.35909474 0.011439749 183.83333
-0.82091606 -0.2189229 0.023126928 114
-0.7455225 -0.20551766 0.018188698 122.33334
-0.53393441 -0.28665385 0.015450738 159.66667
-0.42675093 -0.25351867 0.010712644 177
-0.30859905 -0.2160244 0.013642595 189
-0.26419425 -0.25599605 0.011901717 187.2
-0.16495267 -0.24902253 0.0094872909 184.5
0.040117651 -0.20227368 0.049965624 174
0.15421663 -0.22769429 0.036635038 144
-0.66116273 -0.19002034 0.018561298 138
-0.55258906 -0.17039336 0.015366955 158.5
-0.4458383 -0.15126632 0.010328522 177
-0.3105751 -0.12631011 0.01247806 188.5
-0.22363052 -0.13653943 0.0093152439 185.66667
-0.18705156 -0.1784412 0.0084190043 184.33333
0.069099255 -0.17768851 0.083125345 151
0.16213186 -0.16755451 0.081876874 133.60001
0.24417537 -0.14703493 0.033968952 127.14706
-0.83701968 -0.070508048 0.017568598 116
-0.75137311 -0.065620817 0.015516579 126
-0.64082998 -0.059292804 0.013368458 146.5
-0.55825335 -0.054480784 0.013432317 162
-0.46542501 -0.049364302 0.0081048114 179.5
-0.32750908 -0.04124504 0.01004486 188.33333
-0.2277655 -0.035621088 0.0068721427 185.33333
0.58997482 -0.030109527 0.046906315 160.48215
0.60446596 -0.021975746 0.087354563 158.5
-0.8213973 0.077767335 0.013779542 116.5
-0.74603301 0.07292591 0.015349669 124
-0.674716 0.068249442 0.012632526 139
-0.56648195 0.061169177 0.0095227808 160.5
-0.45732525 0.054001052 0.0054967715 179
-0.33220932 0.045913521 0.0069936817 189
-0.22256628 0.038759917 0.0054570856 184.5
0.58807611 0.053799324 0.048133206 160.5965
-0.52410758 0.17045932 0.016547974 164
-0.43173832 0.15311232 0.0036820641 182
-0.32861471 0.13345772 0.022264563 181.25
-0.22405833 0.11384032 0.0047135078 186.33333
-0.19136189 0.18222216 0.0022500854 185
0.58252448 0.14947456 0.051457625 159.70589
0.97050446 0.14168112 0.06380856 141
-0.51510328 0.28547734 0.0058180117 163
-0.28306454 0.2113802 0.0055165445 190
0.58107924 0.26272047 0.028456528 159.18182
0.60244894 0.27476707 0.063053831 169.5
0.5705623 0.35463372 0.047167979 174.68965
0.54376978 0.47010076 0.035617057 173.26666
0.5387826 0.52188331 0.071736872 170.83333
0.54146487 0.79242003 -0.0069219833 99
0.094030842 -0.95982897 0.18070446 209.83333
0.11133959 -0.94515157 0.13284282 208.25
-0.039704181 -0.30193171 0.15731429 161
0.029699603 -0.2373618 0.19109876 141
0.065443948 -0.16698834 0.1478364 129.21739
0.12539469 -0.17376372 0.11323503 126.5
0.75111747 -0.10426226 0.14014076 161
0.83168989 -0.12656538 0.15696214 170.27272
0.59381783 -0.019949004 0.10303105 153
0.63230002 -0.040433675 0.1259494 156.27586
0.76658463 -0.024220401 0.15616316 151.04762
0.81009728 -0.0043799225 0.12969503 180
0.59429902 0.045617666 0.09678217 153.28572
0.62492168 0.062476344 0.1180293 157
0.72379786 0.080019027 0.13708074 143
-0.27689087 0.1226998 0.13605519 158
0.59348631 0.15749094 0.10961901 165
0.62681699 0.13531487 0.1348436 151.87097
0.75337833 0.16422358 0.14794531 175.27777
0.84721833 0.11690558 0.10145067 135
0.9462226 0.14396495 0.14581679 128.77777
0.58727217 0.24014893 0.11833007 168.58333
0.6622811 0.25566629 0.13382119 159.5
0.7402094 0.24629007 0.15817355 180.86957
0.59214556 0.36746347 0.11860324 170.15384
0.63867009 0.3324616 0.13678855 155.39999
0.75415325 0.37029827 0.14834198 183.72728
0.57188028 0.45617288 0.11909358 172.27777
0.64699143 0.43812156 0.13924144 163.16667
0.7137261 0.43157354 0.1476047 192.5
0.55086631 0.57372355 0.11420381 159.5
0.65728801 0.55095965 0.14055951 171.5
0.55079865 0.61997294 0.14529786 147.66667
0.66696137 0.66990042 0.15208253 143
0.49477184 0.79717028 0.16030408 99
0.50638866 0.79816329 0.12024114 103
0.69065785 0.7125321 0.14235209 195
0.49789432 0.8038674 0.15397708 98
0.51598769 0.81516826 0.098311082 141
