# .PCD v0.7 - Point Cloud Data file format
VERSION 0.7
FIELDS x y z intensity
SIZE 4 4 4 4
TYPE F F F F
COUNT 1 1 1 1
WIDTH 204
HEIGHT 1
VIEWPOINT 0 0 0 1 0 0 0
POINTS 204
DATA ascii
0.094562784 -0.32313126 0.0058111283 170.66667
0.14297037 -0.3266229 0.0029315643 165.54546
0.20457819 -0.35340336 0.0041280999 161
-0.023938244 -0.20133288 0.0053370041 172.5
0.060718756 -0.28005171 0.0011741258 170.33333
0.12497965 -0.2903865 -7.4477117e-05 163.5
0.32674494 -0.20392591 -0.0068716449 157.5
-0.029082242 -0.16162503 -0.0055795815 171
0.014835786 -0.16528383 -0.0032990994 168.5
0.1842498 -0.12554097 -0.01132163 149.55556
0.2565262 -0.14357132 -0.025816901 153.19565
0.35015529 -0.14337304 -0.021770574 147.73334
0.42025504 -0.1241026 -0.018982388 146.06451
0.17284925 -0.081467517 -0.020498319 150.39131
0.2564891 -0.068442427 -0.036767948 152.75
0.35682976 -0.042547312 -0.027010564 157.12166
0.41327447 -0.075495556 -0.025278432 156.97298
0.38057217 0.038517486 -0.027842136 149.50943
0.4341335 0.047963262 -0.044669498 151.06731
0.61798829 0.093304075 -0.031834662 143.66667
0.29680055 0.16137801 -0.022119323 138
0.35378161 0.12991641 -0.027456602 140
0.41807598 0.1143571 -0.031109737 144.08
0.58812481 0.14951684 -0.03286336 143
0.60440439 0.12137204 -0.032377291 142.66667
0.19603533 0.34671974 -0.026977047 155.5
-0.25654581 -0.91678429 0.07916192 125.5
-0.11494901 -0.95740908 0.081361353 138.5
-0.083281234 -0.90096676 0.067708723 152
0.03640775 -0.95341349 0.073929124 144
0.17769215 -0.94702464 0.064582959 142.5
-0.42342621 -0.88700169 0.083073877 116.5
-0.35921761 -0.81565452 0.077782027 128.5
-0.20872599 -0.84747458 0.07429722 138.5
-0.19360492 -0.82954299 0.063470908 149
-0.058239099 -0.84600633 0.075255342 153.33333
0.079134032 -0.83147901 0.069284141 159.25
0.19676495 -0.85025972 0.064379118 156.66667
0.20755824 -0.8021841 0.059283465 159
0.3130165 -0.85670304 0.058395151 157
0.42386141 -0.83640391 0.059249341 160.25
0.53425735 -0.82720685 0.056732707 162.66667
-0.68860972 -0.69910306 0.085079744 109
-0.51480228 -0.76297152 0.084331445 118
-0.4629648 -0.71865857 0.079805888 124
-0.31081522 -0.76283121 0.070978664 140
-0.28772581 -0.73933625 0.062733397 153
-0.13511735 -0.74172014 0.064649291 162.75
-0.016994566 -0.76834267 0.064853884 164
0.11547716 -0.7293703 0.063306905 168.25
0.2208771 -0.73687232 0.057446476 168.5
0.32163769 -0.73606902 0.053880237 167.39999
0.41768378 -0.73772687 0.056805588 163.33333
0.51513517 -0.72930396 0.054214429 165
0.61981529 -0.73140043 0.05157892 162
-0.6158554 -0.6509195 0.081769146 112.5
-0.55135286 -0.6081655 0.079009466 118
-0.41954049 -0.68178594 0.075122252 133
-0.37623677 -0.64604658 0.066717789 142.5
-0.23257534 -0.67614895 0.063810162 160.66667
-0.18511161 -0.62332964 0.060157679 167
-0.068282261 -0.64496654 0.057600662 170.8
0.031136794 -0.67300493 0.061073273 169.8
0.14938374 -0.63147533 0.061023597 174.39999
0.24272677 -0.62769967 0.055919573 176.33333
0.32786402 -0.62714052 0.055812873 174.75
0.44582978 -0.62760305 0.059696678 175.66667
0.59050614 -0.64777005 0.054250568 174.66667
0.67239225 -0.65534103 0.055229627 170.2
-0.52881438 -0.59432048 0.07318829 122
-0.45946655 -0.54831755 0.070402205 135.66667
-0.31588358 -0.59301549 0.066695571 155.5
-0.24837314 -0.53561991 0.059708465 165
-0.14193493 -0.57632953 0.053758468 171.25
-0.029386196 -0.54534751 0.060969088 173.25
0.055700041 -0.55460179 0.057641108 176.75
0.16996206 -0.52371705 0.052844211 180
0.26534015 -0.52590239 0.045918636 180.11111
0.3421393 -0.53038192 0.048353385 180.63637
0.43736488 -0.52467275 0.051481441 180.94118
0.55557573 -0.54650873 0.055129167 181.14285
0.63602555 -0.53971386 0.056032881 180.66667
-0.77749479 -0.39858556 0.066711709 109
-0.35121241 -0.47573406 0.069505312 153.25
-0.24199875 -0.4629384 0.061948795 168
-0.13750193 -0.4391757 0.056162756 179.5
-0.037923697 -0.45769706 0.054222655 179.66667
0.043799706 -0.44056785 0.037839934 179.94118
0.14186122 -0.45976937 0.041427735 178.27272
0.25728354 -0.43269706 0.038884133 175.05556
0.36398444 -0.42665738 0.040057331 174.35715
0.45147941 -0.45569336 0.036967929 176.10001
0.55834526 -0.44558865 0.039777566 178.45
0.60731471 -0.48168665 0.055819366 183
-0.7475878 -0.38892671 0.060598671 113
-0.64849663 -0.35399392 0.060108222 121.33334
-0.56333834 -0.3247149 0.05472865 134.5
-0.21217725 -0.37767401 0.089837082 161
-0.12541509 -0.31314462 0.11732604 158
-0.05209313 -0.36862567 0.03984423 180.5
0.056081556 -0.33370328 0.031254653 175.06667
0.15444115 -0.36894292 0.027560007 172.86957
0.2511605 -0.36133826 0.018192571 162.30435
0.35093445 -0.35576963 0.018295014 158.875
0.45602229 -0.35030603 0.024291715 161.72974
0.5363394 -0.33639514 0.032886598 165.85715
-0.37724721 -0.25328314 0.093106918 141
-0.14890064 -0.25598425 0.049053099 178.0625
-0.05122764 -0.21166357 0.023682034 175.5
0.046500705 -0.28680542 0.022144215 172.5
0.15974317 -0.23499194 0.019524246 155.89285
0.25598046 -0.24094762 0.024362132 148.8868
0.35414293 -0.23657621 0.020094471 151.90541
0.44798398 -0.23615928 0.025559211 155.11627
0.51915216 -0.28352809 0.0120883 159
-0.10951794 -0.15834187 0.095845483 171.22223
-0.07461483 -0.15467022 0.037724022 171.2
0.072233126 -0.13768172 0.027565509 157.03847
0.15187831 -0.14686857 0.030079568 141.84616
0.2342902 -0.17837526 0.012850631 148.5
0.37164429 -0.17808242 -0.00020766475 150.125
0.4398478 -0.16335239 0.0072132526 149.47368
0.094605304 -0.099002473 0.0087475497 155.5
0.13652168 -0.090677992 0.0065891948 146.78572
0.38468775 -0.025145158 -0.011163546 152.71428
0.40690875 -0.058199864 -0.010783531 158.33333
0.36590892 0.041705716 -0.012679342 148.84058
0.48313668 0.077246845 -0.013094165 144.38461
0.53328592 0.076045424 -0.012557757 144
0.28284305 0.17691614 0.026652889 131.04167
0.34674767 0.16128571 -0.0041452092 136.88889
0.4533886 0.13750401 -0.01002554 140.48
0.54071343 0.14833874 -0.013514319 142.82979
0.63938594 0.14567158 -0.0066857166 138.32608
0.74347693 0.16257763 -0.00048758576 146.53334
0.84234554 0.18859418 -0.00049342599 160.8
0.24744776 0.27351511 0.022199724 137.33333
0.34938037 0.2727465 0.0068639452 133.9375
0.45863357 0.25390068 -0.0042791194 131.92308
0.54825145 0.24701077 -0.0048361737 133.6875
0.64867747 0.25150588 0.00072657131 142.35001
0.7457189 0.24211884 0.0030549541 155.5
0.86731994 0.25121656 -0.0026798621 161.42857
0.9374705 0.2259703 -0.0079464018 158.5
0.17758074 0.37150955 -0.0069356295 163.41667
0.25852033 0.36506638 -0.011743086 156.20689
0.35860217 0.35197467 -0.0074722623 148.15152
0.45475489 0.34483987 -0.0024625529 146.2258
0.54558867 0.33477452 0.0014936789 148.5
0.64956397 0.359442 -0.0047351266 159.29411
0.74983346 0.34798503 -0.0030918741 164
0.83797389 0.33877265 -0.0090300431 164
0.91860855 0.36249265 -0.021397796 155
0.14823171 0.46808931 0.0091085909 154.95454
0.24683808 0.4364565 0.0014290471 165.86667
0.35922313 0.44699064 -0.0051148515 169.875
0.45112666 0.46614337 -0.0082678646 168.7
0.54697168 0.45346081 -0.0081420522 167.2381
0.64789695 0.44412145 -0.00180937 167.375
0.74546379 0.44227102 -0.0050346912 164.125
0.85501659 0.45548007 -0.014074361 155.39999
0.073797926 0.54425782 0.026221391 133.66667
0.15699944 0.55147755 0.02562766 140
0.24365859 0.53502589 0.012562907 154
0.35233673 0.53249329 0.0051132501 161.09091
0.4595423 0.5492658 0.0064524529 163.125
0.53781104 0.55050522 0.0022313073 161.28572
0.635414 0.52874464 -0.00379656 160.14285
0.7406677 0.55922818 -0.013245402 155.60001
0.81332892 0.54035312 -0.010742893 150.66667
0.018539745 0.64668876 0.019201037 131.8
0.11385319 0.66565287 0.016701017 131.25
0.23149255 0.65839702 0.010818861 136
0.3462069 0.62957317 0.010328176 146
0.47575668 0.65153921 0.0018432551 149.75
0.57387084 0.66738147 -0.0071313004 149.39999
0.66131866 0.63708657 -0.014090656 150
0.7520619 0.61383569 -0.0083958888 145.5
-0.039211188 0.74579847 0.030376766 123.42857
0.071833536 0.76438475 0.028376603 132.75
0.18319428 0.7682094 0.01937384 148.88889
0.28952739 0.75156623 0.014036484 135.66667
0.39020696 0.73855919 0.0023922112 138
0.48932406 0.74888098 0.0045194966 131.39999
0.59717345 0.7428354 -0.013306982 137
0.63560337 0.75347281 -0.014949961 137.66667
-0.077076703 0.80698729 0.046563797 107
0.047324922 0.81122845 0.052770551 103
0.15570167 0.85821176 0.038784448 115.5
0.28073016 0.81397313 0.019855537 130.8
0.38610074 0.82818651 0.023032475 116.57143
0.49396959 0.8080759 0.019918753 109.5
0.50624973 0.84104615 -0.00859138 161
-0.14103146 0.93425685 0.01808813 141
0.0074002058 0.92668998 0.028414439 137
-0.036471426 -0.24637094 0.14826244 149
0.027279992 -0.19842029 0.17083862 134
-0.19927695 -0.18549052 0.12632325 169
-0.16172102 -0.17229137 0.12590963 169.25
-0.006369547 -0.15883586 0.1882941 149.625
0.070306547 -0.16729493 0.14249273 132.78947
0.11554066 -0.15292268 0.10932828 137
0.2722896 0.17720103 0.086304016 117.66666
0.31626937 0.17828146 0.081252076 116
