# .PCD v0.7 - Point Cloud Data file format
VERSION 0.7
FIELDS x y z intensity
SIZE 4 4 4 4
TYPE F F F F
COUNT 1 1 1 1
WIDTH 120
HEIGHT 1
VIEWPOINT 0 0 0 1 0 0 0
POINTS 120
DATA ascii
-3.7135818 2.1089149 0.25394794 9
-3.6258278 3.0455303 0.48069206 10
-3.6309426 3.4917705 0.61407286 11
-3.6081116 4.1917324 0.93215203 12
-3.6137037 2.825608 1.0766486 14
-3.6269305 3.5972927 1.0337225 13
-3.6462553 4.797719 1.2358861 13
-3.6565809 6.0136943 1.4761841 13
-3.5275922 2.1955457 0.39631736 10
-3.5384059 4.9742079 0.25695971 8
-3.5335972 2.2545757 0.50818944 11
-3.554724 2.7068255 0.54157269 11
-3.5205469 2.1493812 0.70400262 12
-3.5162745 4.6856527 0.72880602 11
-3.5560188 2.1430655 0.96512932 13.5
-3.5416698 2.6382086 0.8767671 13
-3.5908358 3.1936405 0.82287884 12
-3.4872606 4.7309828 0.99615121 12
-3.4925029 2.161473 1.1718105 15
-3.5708106 3.2556386 1.244329 14
-3.475646 6.4846106 2.1654916 15
-3.2544081 -1.9788444 0.21625511 9
-3.3313594 4.9677415 0.69530994 10
-3.1606798 2.4746528 0.32113978 9
-2.9378967 3.2126851 0.28218168 9
-2.2820764 -3.1257036 0.23194155 9
-2.2856894 6.4087477 1.5276614 13
-2.3396857 6.4218345 1.6027755 14
-2.147912 -3.4601309 0.90069717 13
-2.0367441 6.3799438 0.90671384 11
-1.8409382 -3.6014497 0.24401526 9
-1.9689082 -3.5836136 0.58864629 11
-1.7849158 -3.5978315 0.47308826 10
-1.7768759 -3.5910749 0.88485724 13
-1.444737 6.3629837 0.9317832 11
-1.5017272 6.3935237 1.1127486 12
-1.4186965 6.3799334 1.3760034 13
-1.4426781 6.371932 1.5341862 14
-1.2647967 6.4217358 0.51177192 9
-0.65371901 6.446496 1.3436353 13
0.57910079 -3.5347564 0.81578279 12
0.72003978 -3.5387354 0.20590132 8
0.77508056 -3.5437446 0.59005678 11
0.7914046 -1.2508609 0.43643868 15
0.77439582 5.8203921 0.7003625 10.5
0.7524178 5.821908 0.92163807 12
0.61312962 -3.5682929 1.0021032 14
0.74645394 5.8328853 1.3067226 13
0.76247519 5.8276553 1.5004877 14
0.97402191 -3.4124722 0.38728663 9
0.85406673 -1.2762742 0.32156175 13
0.86936468 -1.1298772 0.38554549 15
0.92903352 -3.4219072 0.47378531 10
0.90557903 -3.4206417 0.9226681 13.5
1.1803845 -1.1801748 0.43584368 14
1.1950791 -3.4034104 0.97255033 14
1.2749999 -3.4265347 0.12870269 7
1.2020084 -3.4207766 0.23113865 8
1.2043581 -1.1303781 0.31946477 12.5
1.2157165 -0.63782841 0.31942773 13.5
1.2630311 -3.4084754 0.48845348 10
1.2083981 -1.215493 0.46985638 15
1.2450479 -3.4239585 0.60846543 11
1.230402 5.8007627 0.70548749 10
1.3175911 -3.4728708 0.89314747 12.5
1.3674355 5.8517251 1.1769603 13
1.2334719 5.8105621 1.4177827 14
1.5172074 -0.62627053 0.26185641 12
1.7790239 -3.5155032 0.11589144 8
1.690215 -0.6129427 0.37725845 13
1.7130566 -3.506824 0.46142441 9
1.6844274 5.7994819 0.95103842 12
1.7294176 5.826829 0.93317765 11
1.7211298 -3.5469992 1.0619322 14
1.8226833 -0.75797993 0.16766746 9
1.8760389 -3.5179765 0.25357229 9
1.8382025 -0.61394048 0.25221962 11
1.829073 -3.5285699 0.55850345 11
1.9583652 5.8520093 0.49098104 9
1.8033907 5.8491664 0.73139066 10
2.2462134 -0.60191113 0.39563566 12
2.3762081 -0.59787369 0.34574258 11
2.3672333 -0.59726703 0.59964234 14
2.5502539 6.4109716 0.97731316 11
2.6334293 5.9961333 1.5275978 14
3.2733719 5.8441424 0.53417134 9
3.3164322 6.0039697 1.5727679 14
3.5571887 -0.58755428 0.18768096 9
3.4777696 4.4543877 0.50757992 10
3.6393881 6.0773859 1.3489028 12
3.7997732 4.4349132 0.48605016 9
3.8712666 6.4368939 1.1746564 11
3.980443 5.9763832 1.6025898 13
4.1516762 5.0931296 1.3933244 13
4.1954827 5.7333999 1.3043271 12
4.3471355 3.1097448 0.30050117 8.5
4.3241634 3.1529419 0.69400531 11
4.3321815 3.1461818 0.85031921 12
4.3550725 3.6999311 1.345166 14
4.3219504 4.2757034 1.7741833 15
4.5229149 3.9790108 0.59314454 10
4.4411807 3.0704813 0.63469142 10
4.6333852 2.2251816 0.25272468 8
4.6262326 2.7736535 0.30677372 9
4.648387 2.4054692 0.77909082 11
4.6827412 1.2247864 0.92277586 12
4.6425939 1.7280172 0.9008671 12
4.6861324 -0.097143888 1.0182092 13
4.6490259 0.28844935 1.0697453 14
4.6849642 0.49963275 1.0559224 13
4.6848497 0.90586054 1.0867754 13
4.6394415 2.3441749 1.1453884 13
4.6863518 2.6134455 1.0257572 12
4.6641536 -0.092829801 1.2413331 15
4.6508999 0.79534388 1.2597938 15
4.6527867 1.2119154 1.3301688 15
4.630475 2.2634578 1.2383956 14
4.7072883 2.9272888 1.288213 14
4.6465111 2.237047 1.5242878 15
4.6392512 3.1561894 1.5615908 15
