# .PCD v0.7 - Point Cloud Data file format
VERSION 0.7
FIELDS x y z intensity
SIZE 4 4 4 4
TYPE F F F F
COUNT 1 1 1 1
WIDTH 56
HEIGHT 1
VIEWPOINT 0 0 0 1 0 0 0
POINTS 56
DATA ascii
-3.6136417 2.0256722 0.48274684 10
-3.2921364 2.0898075 0.26806846 9
-3.3800895 2.0824275 0.53784585 11
-2.993917 2.1572959 0.3475202 10
-2.6446891 2.2270138 0.2741971 9
-2.0564008 2.3547983 0.38950193 11
-1.8777556 2.3922257 0.33488488 10
-1.6202148 12.796961 2.5698843 14
-1.4235393 2.355912 0.29970285 11
-0.8334282 -1.1039824 0.41404369 14.5
-0.65006411 -1.2251426 0.37047368 13
-0.68185848 -1.1647853 0.41577408 14
-0.48391142 -1.1582274 0.33484223 13
-0.22913161 -1.1114842 0.36038759 14.5
0.1824825 -1.0188624 0.33865541 15
0.5787946 -0.9139756 0.3435069 15
0.53302348 -1.7722696 0.4821828 14
0.70877236 -1.1143683 0.17985132 11
0.70194751 -1.1493686 0.27165523 12.5
0.7313627 -0.87959731 0.32445231 15
0.82837713 -1.0823734 0.33419117 14
0.91653508 -0.84260267 0.36602899 15
1.2986666 -1.0507766 0.25537619 11
1.4124615 1.8285284 0.50036019 14
1.3338788 2.0474367 0.3991428 13
1.408251 1.8175137 0.56879216 15
1.5670379 1.7436557 0.25662836 11
1.5238447 -1.0980899 0.46322632 14
1.4474186 1.8287791 0.36490372 12.5
1.6767437 -1.0234944 0.25288272 11
1.678874 -1.495121 0.57088965 14
1.6928382 -1.0000354 0.46540305 14
1.7374476 1.7648749 0.42047301 13
1.9838539 -0.59538454 0.39792982 13
1.8414855 1.7962499 0.42000031 13
2.0142121 -0.99845135 0.60875082 15
3.1885662 -1.211682 0.039056346 8
3.2031541 -1.1918826 0.32761338 10
3.5234232 -1.1225863 0.40865421 11
3.74103 -0.57636786 0.11453734 9
3.6340399 -0.25215551 0.072522625 8
3.7256756 -1.0885767 0.18642156 9
3.6218941 -0.26974243 0.18175717 9
3.717001 -0.32721838 0.37605709 11
3.8025091 -0.89777386 0.59481657 12
3.9081533 -0.83343035 0.0072339824 8
3.8533115 -0.67770112 -0.026850848 7
3.9628861 0.7160238 -0.068940081 7
3.8122265 -0.38443479 0.27012226 10
3.8788493 -0.79565448 0.39542592 10.5
4.15523 -0.34241185 1.0270066 15
4.3718085 0.2702347 0.04485476 8
4.3094063 0.22912693 0.18346602 9
4.2285681 0.26291052 0.53299254 11
4.4557152 0.83478189 0.22079562 9
4.66961 0.92594922 0.36479017 10
