# .PCD v0.7 - Point Cloud Data file format
VERSION 0.7
FIELDS x y z intensity
SIZE 4 4 4 4
TYPE F F F F
COUNT 1 1 1 1
WIDTH 193
HEIGHT 1
VIEWPOINT 0 0 0 1 0 0 0
POINTS 193
DATA ascii
0.43457004 -0.84935194 -0.015327225 176
0.53978133 -0.82319832 -0.020919455 178.33333
0.42879444 -0.74626106 -0.01673639 185.5
0.52398324 -0.73314935 -0.025306577 186.8
0.62448299 -0.73348606 -0.031985294 185
0.43770042 -0.63938284 -0.015458623 190.2
0.54567045 -0.65433377 -0.033053227 189.60001
0.65770972 -0.65318167 -0.03685689 188.25
0.76762313 -0.60002452 -0.039435972 189
0.44980732 -0.55647153 -0.019674469 187.25
0.5645889 -0.55028385 -0.027243797 188.85715
0.63835722 -0.53440064 -0.032817807 189.57143
0.74724078 -0.56442845 -0.047658693 191.8
0.81988347 -0.52203482 -0.052835476 189.39999
0.44692931 -0.45452052 -0.03420677 181.23077
0.54504299 -0.4335812 -0.026586518 182.88235
0.65962666 -0.45548475 -0.030300105 187
0.73633802 -0.42475855 -0.033819035 187.83333
0.85319221 -0.44058862 -0.051224548 189.5
0.4398497 -0.33215278 -0.034369569 171.40541
0.55093008 -0.35399756 -0.040564351 175.54546
0.636765 -0.34217447 -0.032720845 179
0.75630975 -0.33906853 -0.033920601 185.5
0.85034817 -0.34359446 -0.044333097 188.39999
0.91842645 -0.34644482 -0.056933969 189
0.44987237 -0.25352365 -0.071732208 171.34427
0.53887373 -0.24087738 -0.055578332 173.01923
0.65718484 -0.24653329 -0.048342302 173.09091
0.74327785 -0.23739198 -0.031922776 175.78572
0.84586245 -0.24367106 -0.038938846 181.25
0.92640364 -0.2520341 -0.056579668 187.66667
0.44053993 -0.14124492 -0.061994664 169.16853
0.55330205 -0.14878935 -0.079272024 172.075
0.637649 -0.14163287 -0.055246744 173.75
0.73762006 -0.14305958 -0.046847176 172.17647
0.84343034 -0.15619469 -0.041119229 175.75
0.96000361 -0.14619103 -0.06123687 182.25
-0.53169823 -0.024292119 0.0024735013 168
-0.44059327 -0.022024481 -0.0046089422 188
-0.33383074 -0.019090258 -0.003467825 188
-0.24386895 -0.016609434 -0.0021921701 185.39999
-0.17131028 -0.015324095 -0.025268763 181
-0.055053987 -0.012709842 -0.046183512 177.19048
0.056801602 -0.0094224634 -0.04464449 171.42857
0.15073563 -0.0064998022 -0.047640491 168.56
0.24937423 -0.003615177 -0.078907147 168.5
0.33188045 -0.00056406739 -0.087663047 169.15384
0.43448177 -0.035839431 -0.060161024 168.49843
0.54944128 -0.046370864 -0.086255774 171.60001
0.63216722 -0.046163302 -0.064885572 173.01785
0.74654758 -0.044577222 -0.056605782 173.54286
0.85094446 -0.046708949 -0.04126884 170.30769
0.94684607 -0.053691499 -0.055649128 176.71428
-0.44001409 0.075299859 -0.0043254923 187.5
-0.34981501 0.067091875 -0.0029702031 189
-0.24986807 0.057997096 -0.0036970498 185
-0.16719227 0.050501145 -0.02653384 180.8
-0.050513305 0.064585559 -0.046626426 177.33333
0.054397892 0.05147893 -0.047980972 171.5
0.15460618 0.055401299 -0.04619867 169.06172
0.2536352 0.051728263 -0.071032241 167.46512
0.36364281 0.039365269 -0.072470568 168.11021
0.42576724 0.0048151948 -0.062675856 167.7234
0.55546492 0.011763721 -0.089380704 171.60001
0.63459247 0.01740279 -0.065067612 172.75
0.74597669 0.024989052 -0.055541005 172.14285
0.84811348 0.032317571 -0.042472549 170.125
0.96295029 0.039541584 -0.059996761 179.25
-0.50495368 0.18863131 0.0015482447 174
-0.43497992 0.1738847 -0.0014129598 183.5
-0.39106202 0.16477196 -0.0077782697 191
-0.25438458 0.13560812 -0.0026028391 186.16667
-0.15900852 0.14901035 -0.022808239 181.73914
-0.03727952 0.15697722 -0.036933519 178.79311
0.048755988 0.14958028 -0.060742348 173.23529
0.15696862 0.14662401 -0.043844935 170.3
0.25105542 0.14264813 -0.050371349 167.95653
0.35502023 0.13724689 -0.057134349 167.88785
-0.44509196 0.28199148 -0.00044028167 175
-0.37017155 0.25690752 -0.0068091378 187.25
-0.24818274 0.21520774 -0.0039722482 187
-0.059123024 0.2140781 -0.024177603 182.16667
0.059764955 0.22718865 -0.057225 175.2381
0.1525504 0.22643043 -0.060614012 172.1579
0.2390358 0.22921444 -0.0419035 171.45454
0.37166837 0.25754377 -0.07763359 172.15625
0.39947924 0.24857901 -0.090109408 171
-0.5498389 0.31769484 -0.0014342169 157.5
-0.14970289 0.34008753 -0.0053931396 186.83333
-0.056102846 0.36393118 -0.017850786 186.8
0.046881977 0.36008379 -0.034239493 183
0.1568643 0.34975132 -0.034596436 179.47368
0.25162008 0.34712666 -0.048937816 177.35135
0.35231814 0.33717224 -0.059207898 177.27083
-0.20482226 0.48712558 -0.022515379 189
-0.13733788 0.42970568 -0.012182151 187.42857
-0.044371754 0.45109314 -0.01570441 189.09091
0.052406408 0.43331188 -0.033176657 186.47058
0.15131867 0.46742484 -0.037062641 186.04347
0.24716724 0.46350557 -0.050675899 183.21053
0.35779208 0.4645035 -0.049806014 183.14815
-0.32742986 0.58614677 -0.012427166 172.33333
-0.25104058 0.52405876 -0.016570071 184.16667
-0.14683087 0.56012434 -0.022157153 185
-0.01779034 0.54318935 -0.018252615 192.75
0.052198257 0.54338884 -0.025345223 191.2
0.15681025 0.5607059 -0.028323472 190.57143
0.23727931 0.55397367 -0.02957732 189.85715
0.34404349 0.55651212 -0.03661738 189.23077
-0.42190257 0.66382021 -0.012158049 158.33333
-0.36075199 0.61258668 -0.0071224757 167
-0.24236731 0.65942794 -0.018214919 176.8
-0.14117397 0.65387923 -0.02262252 183
-0.056294519 0.64548874 -0.02933282 193.28572
0.017370457 0.65805978 -0.037833247 195.25
0.1262887 0.63724071 -0.03279997 194.33333
0.23910289 0.6406647 -0.032286085 194.42857
0.34706026 0.62406969 -0.036195479 192.85715
-0.53437734 0.75441766 -0.0016870745 135.5
-0.48303556 0.71325785 -0.0075190319 148
-0.33378729 0.75506055 -0.016992353 159.25
-0.1596356 0.73574305 -0.023766806 176.5
-0.042795513 0.76288539 -0.034539785 177.25
0.084418647 0.74121863 -0.037068751 182.5
0.16039389 0.72946072 -0.046062302 190
0.28726619 0.74402887 -0.046557698 189.8
0.38176876 0.73549962 -0.048535559 187.83333
-0.45353866 0.87867111 -0.0084885536 138
-0.3927201 0.81484312 -0.0084067164 143
-0.23577631 0.83899993 -0.026369905 164.25
-0.11618158 0.89394569 -0.038312621 166.5
-0.076295123 0.82003099 -0.029711243 170.5
0.047824513 0.83084315 -0.038540211 174.25
0.16327634 0.84074128 -0.047023289 178.60001
0.27325332 0.85354257 -0.052406643 179.5
0.38121092 0.83935112 -0.05233907 180
-0.2863999 0.90440887 -0.017626371 151.5
-0.15338376 0.95487744 -0.026756125 161.75
-0.020266358 0.99120098 -0.029900797 142.5
0.0060383775 0.9349612 -0.043345764 167
0.12845685 0.96929497 -0.047669698 164
0.26384035 0.92719531 -0.05636457 175
0.38251466 0.91365337 -0.062312499 174
0.43209141 -0.86460418 -0.00084266055 173
-0.75606722 -0.029941453 0.018818229 122.66666
-0.6604383 -0.027528003 0.011862079 143
-0.54865986 -0.024551351 0.009306835 164
-0.46820894 -0.022423947 0.0071220701 179
-0.33005396 -0.018710667 0.0057355678 188.66667
-0.22453143 -0.015931256 0.0029050747 185.5
-0.66175008 0.095435411 0.011938312 145
-0.54608321 0.084932327 0.0079204645 166
-0.46615794 0.077666745 0.008067851 178
-0.33204392 0.065468796 0.0047071599 190.33333
-0.22142546 0.055402186 0.004497292 185.25
-0.80021304 0.10799156 0.019765578 127
-0.73881739 0.10242301 0.018132409 128
-0.53749484 0.19526803 0.0097381612 162.33333
-0.44111255 0.17490812 0.0072429013 180
-0.32602158 0.15055348 0.005337358 189.33333
-0.25258899 0.13500446 0.0043718498 187
-0.18345186 0.19270541 0.0033644307 185.5
-0.032966089 0.19692303 0.022295451 178
0.065303959 0.16743286 0.073697984 169
0.16976164 0.15805143 0.091996945 151
0.26031262 0.16256984 0.081874982 127
0.31700405 0.15289977 0.057420217 127.71429
-0.8028717 0.25118673 0.019870289 117
-0.73875099 0.23764148 0.018596439 123.5
-0.66135484 0.22145484 0.01195197 139.66667
-0.59940177 0.20840319 0.0094464878 152
-0.4187499 0.27275914 0.0037203503 179
-0.26557478 0.22065093 0.0034068644 188
-0.06815362 0.28415909 0.023039741 183.5
0.049726747 0.22303599 0.051520865 176
0.15729387 0.23111291 0.019921092 173.25
0.24238406 0.23856719 0.018761596 156
-0.75429809 0.38620147 0.014524379 119
-0.64475429 0.3491933 0.010722568 133.75
-0.52122337 0.30733356 0.0082367603 156
-0.20685282 0.37309554 0.019353896 178
-0.190823 0.36363015 0.01390378 182.2
-0.82741082 0.41107005 0.014423721 116
-0.58105528 0.45924699 0.022784319 112
-0.74768895 0.54027253 0.009954622 114.66666
-0.66457725 0.50064856 0.0084616896 114
-0.57496202 0.78684145 0.0035192121 127
-0.019321535 0.17289604 0.19830802 127
0.050292838 0.14735432 0.14305763 131.85001
0.15906364 0.15737088 0.11991622 124.81818
0.21167001 0.16200894 0.10494433 121.44444
-0.069521233 0.27323651 0.10814179 172
0.011525964 0.21499562 0.15554355 156
