# .PCD v0.7 - Point Cloud Data file format
VERSION 0.7
FIELDS x y z intensity
SIZE 4 4 4 4
TYPE F F F F
COUNT 1 1 1 1
WIDTH 603
HEIGHT 1
VIEWPOINT 0 0 0 1 0 0 0
POINTS 603
DATA ascii
-22.152075 -5.7094316 3.3593326 11
-22.157969 -5.1582141 3.3905573 11
-22.203835 -4.6210451 3.4291692 11
-22.13341 -6.0466099 3.9421468 12
-22.087315 -5.4927926 3.9525139 12
-22.093166 -4.962698 3.975147 12
-22.255295 -9.1152468 4.5632505 12
-22.123343 -4.7857013 4.586751 13
-3.2257092 -1.0133973 0.74442601 13
-3.2069852 -2.0423708 0.98746675 14.5
-3.2955909 -1.9829425 0.94313103 14
-3.236033 -0.95017445 0.8902992 14.5
-2.94099 -3.3794842 0.22367443 8.6000004
-2.991931 -3.0486894 0.23825569 8.625
-2.9918056 -2.6014857 0.23385155 8.5
-2.9840198 -2.2077262 0.28259453 9.5
-2.974983 -1.9725411 0.29878312 9.5
-2.9148052 -3.3317375 0.5410977 10.333333
-2.9567108 -2.9795308 0.54883993 11
-2.951833 -2.5963621 0.55498171 11
-2.939764 -2.2042608 0.59562749 11.6
-2.9643922 -1.8470129 0.53173453 11.5
-3.1098335 -1.2467579 0.71825212 13
-2.9766192 -1.0441958 0.59874356 12.4
-3.1217601 4.2279453 0.66537029 11
-2.9483299 -3.6605244 1.095399 14
-2.9961312 -3.489069 0.97180694 13
-3.1386075 -2.5801811 0.99623543 13.75
-3.1404979 -2.1928203 0.94478697 14
-3.1656897 -1.0073422 0.89546424 14.5
-2.9864013 -4.4854851 1.5252323 15
-2.9904344 -4.1638899 1.4768909 15
-2.9586577 -3.7281432 1.409567 15
-2.9820518 -3.4890995 1.3814952 15
-2.6057899 -3.5117292 0.25685439 9
-2.4961963 -1.2779114 0.30173168 10
-2.5356591 -0.98253644 0.33050853 10.6
-2.4106724 -0.78438455 0.27616069 10
-2.5555892 -3.4365299 0.60382915 10.6
-2.6428201 -1.6659347 0.70075607 13.5
-2.4673839 -1.3448476 0.5509041 12.5
-2.597307 -1.1346575 0.56949997 12.857142
-2.4160373 4.3907781 0.59407914 10
-2.7044387 -4.5174017 1.0670049 12.5
-2.5286734 -3.4570341 1.0255978 14
-2.4590037 -1.3594027 0.81949025 15
-2.5784523 -1.1597574 0.83077163 15
-2.0946927 -4.1461639 0.29365313 8.5
-2.1635568 -3.6275365 0.19338787 8.5
-2.2406905 -3.4422855 0.20417595 8.5
-2.1417482 -1.6537104 0.31374085 10.5
-2.3441637 -1.4002461 0.30319124 10.2
-2.1692352 -0.55720311 0.30487406 11
-2.0538406 1.172374 0.36293152 11.5
-2.1890819 -3.6826851 0.63362843 11
-2.2268958 -3.4313834 0.60895443 11.2
-2.1447265 -2.9985368 0.73047197 13
-2.1432827 -2.559058 0.69861156 13
-2.1714942 -2.2167163 0.75980175 13.75
-2.1757526 -1.7161717 0.62241268 13.5
-2.3516095 -1.4150321 0.4574334 12
-2.1328001 -0.5308134 0.53698933 13.8
-2.0157263 1.1192313 0.50759453 13
-2.0048695 1.2040964 0.48055679 13
-2.2012911 3.4373028 0.56406885 11
-2.0872777 3.9070718 0.45000014 10
-2.2860186 4.3803 0.6033408 11
-2.3567653 -4.6259589 1.0447114 12.5
-2.2416313 -3.4893851 0.96568161 13.75
-2.1399083 -2.4068718 0.89625347 15
-2.21363 -2.2141633 0.85667068 14.6
-2.32302 -3.8206341 1.3372252 15
-1.6866398 -4.4795532 0.34494627 9
-1.7201633 -4.1671696 0.2667993 8.666667
-1.6776447 -3.8943949 0.074055947 8
-1.7885982 1.1743873 0.34141466 11.5
-1.9546479 1.2059041 0.34930962 11.5
-1.8575423 3.13695 0.35350883 10
-1.889811 3.9200206 0.38702059 10
-1.7620951 -4.5952497 0.46112555 10
-1.6674954 -4.0663042 0.69367653 11.5
-1.7178985 1.1877097 0.47595003 13.666667
-1.9135492 1.2058185 0.42851982 12.5
-1.6409595 2.4787152 0.40649438 11
-1.8488114 3.9255431 0.42947125 10
-1.7175566 -4.7580113 1.008139 12.5
-1.7241979 -4.2651372 0.97886014 13
-1.5245681 -4.5237088 0.34157225 9
-1.4112337 -4.1365728 0.16057855 8
-1.397295 -3.9054639 0.066567682 7.6666665
-1.3732635 1.1733236 0.37622625 13
-1.3882436 -4.0689411 0.67889571 11.333333
-1.4061801 1.1735762 0.44161898 14
-1.6025028 2.5209577 0.53697592 12.5
-1.3509341 -4.2340641 0.88207263 13
-0.97889775 -4.6397519 0.24366179 8.3999996
-1.0612718 -4.1149378 0.14592737 8
-0.96558332 -3.93413 0.053876333 7
-1.0470942 1.1604342 0.37928373 13.666667
-0.9512527 1.3246559 0.36978507 13.333333
-0.95865965 -4.6529331 0.49632663 10.333333
-1.0329829 -4.1316257 0.63100785 11.2
-1.054216 1.1691751 0.42674682 14.666667
-0.96152806 1.3754973 0.45284897 14.5
-0.98800832 2.7253354 0.49859807 12
-0.98205739 3.010339 0.49628636 11.5
-0.9804818 3.422406 0.47874698 11
-1.058093 -4.1389728 0.86169738 13
-0.47061348 -0.35678607 -0.001421976 7
-0.64687908 -3.1206505 0.20322582 9
-0.40061268 -2.6755321 0.1570929 9
-0.59219855 -2.299545 0.29417098 11
-0.57395309 -1.3659894 0.37510532 14.25
-0.53466886 -1.143874 0.03503751 8
-0.59633112 -0.55926728 0.011223567 7.25
-0.40960279 -0.33057019 0.0039923885 7
-0.53907859 -4.7797365 0.71119356 11
-0.57901061 -4.1138349 0.63875055 11.333333
-0.63950229 -3.920486 0.57983345 11
-0.58702224 -3.5763149 0.79188001 13
-0.59791541 -3.0478628 0.62344474 12.75
-0.59627026 -2.2955232 0.60111213 14.25
-0.60201961 -1.4722838 0.42718074 15
-0.50005096 2.5401618 0.44669712 12
-0.5280261 -4.7413149 0.95595032 12.6
-0.57146853 -3.8823938 1.0722433 14.333333
-0.58408976 -3.5267842 0.8572796 14
-0.58366936 -3.1763122 0.81594461 14
-0.51872939 -4.7636681 1.3486956 14.75
-0.17420046 -4.7944436 -0.043135725 7
-0.16898069 -0.56468034 -0.0051498543 7
-0.063796334 1.0072029 -0.020155625 6.6666665
-0.35977477 1.6762767 -0.043670077 6
-0.3113631 -4.0728459 0.026818795 7
-0.091375075 -2.8235903 0.13609435 8
-0.2019949 -2.5768509 0.23951907 9.7142859
-0.1698935 -2.3384869 0.24685383 9.8000002
-0.10161879 -1.6315213 0.047936682 8
-0.15476365 -1.392174 0.037071232 8
-0.19363587 -0.96302044 0.015078845 7.5
-0.16892932 -0.60882598 0.0073475549 7.3333335
-0.036027838 1.1091244 0.11412997 10
-0.19655037 -4.7944283 0.72691429 11
-0.16128895 -4.0473704 0.61101311 11
-0.23869769 -2.5805964 0.5079205 13
-0.18176259 -4.7901311 0.95456082 12.5
-0.20945048 -4.7814908 1.3460892 14.666667
0.2748175 -4.8064141 -0.054827645 7
0.22783008 -0.88272738 -0.0054231212 7
0.23670885 -0.56771612 -0.011876211 6.5
0.37586987 -0.3625769 -0.025699319 5.5
0.38627902 0.35310787 -0.040840678 5
0.21186543 0.61062658 -0.041101933 5.25
0.2008301 0.97178066 -0.026195489 6.4285712
0.10087083 -4.8057137 0.22936833 8
0.097691379 -2.4552808 0.24271949 9.75
0.23066206 -2.1350589 0.1906752 9.625
0.2598854 -1.7934549 0.21686764 10.538462
0.24973531 -1.4781535 0.03302034 8
0.15785851 -0.95354497 0.0049591209 7
0.22026873 -0.57366216 0.007959174 7.4000001
0.24126533 1.054242 0.14737415 11
0.27330738 1.2968261 0.24696946 12
0.13041508 -2.4977152 0.49653521 13
0.2138499 -2.0556922 0.52289981 14.2
0.30499336 -1.8161815 0.46204242 14
0.045478549 -4.7940726 0.87543118 12
0.026058227 -4.7839522 1.3717209 15
0.49394834 -0.88201994 -0.01963659 6
0.51456791 -0.49322096 -0.015265122 6.25
0.47478792 -0.25388002 -0.051040579 4.1666665
0.55985099 0.18657924 -0.063434891 3.909091
0.58191717 0.56330329 -0.052857231 5
0.55464399 0.92136377 -0.056207024 5.5999999
0.59867191 1.3497556 -0.031545155 6.3333335
0.66610247 2.4775186 -0.10779034 6
0.64760029 -2.8722138 0.24299106 9.5
0.72755563 -2.1346455 0.31046066 10.666667
0.62528557 -1.7613862 0.31317115 11.714286
0.52932894 -1.2938123 0.2307566 11.5
0.59422231 -1.0999521 0.19401619 11.142858
0.52240932 -0.4871667 0.0025635008 7
0.50610441 1.1537501 0.17333345 11.090909
0.48940167 1.2417315 0.069101706 8.5
0.77749586 -2.0421817 0.41732618 12.5
0.56146705 -1.7245119 0.48165962 14.333333
0.54387152 -1.4034841 0.4377991 15
0.71058452 2.7753284 0.53401142 12
0.67028672 2.9566522 0.51661205 12
1.010119 0.29067004 -0.036284678 6
1.0029593 0.60705161 -0.06314873 5.4285712
1.0042201 1.014671 -0.048362061 6.1999998
0.97359633 1.3232237 -0.058357447 6
0.9181878 1.7881956 -0.088073283 6
1.074842 2.1578159 -0.10432189 6
0.81981045 -2.047401 0.27983871 11
0.91697407 -1.8824966 0.24272481 10.25
1.0968032 -1.0629642 0.36105299 14
0.98494941 -1.8529514 0.49572894 13.666667
1.1685044 -1.4729685 0.53367651 15
1.0952905 -1.0475553 0.42536107 15
1.1021584 1.0301067 0.43619773 15
1.0849349 3.1744432 0.52861363 12
1.0738844 3.20402 0.51707613 11
1.1500705 -4.7886848 1.3883368 15
1.4193206 0.36540172 -0.051537745 6
1.4280236 0.60517555 -0.05592718 6
1.4110036 1.015002 -0.043046456 6.5
1.313849 1.402167 -0.047431659 6.3333335
1.3927058 1.8388178 -0.067445591 6.3333335
1.2697183 2.2369294 -0.11699881 6
1.3935386 2.591779 -0.079708397 6.5
1.3665783 3.9875858 -0.11362964 6
1.3760911 4.0704679 -0.079259813 7
1.5723685 -3.2695501 0.21461709 8.5
1.3273164 -2.4370975 0.088193573 8
1.441041 -2.1317244 0.34534201 11
1.2067626 -1.0370917 0.36513728 14
1.4202673 1.0558394 0.2145602 10.5
1.456665 1.4553285 0.18861102 9.8571424
1.4227974 1.9632839 0.056026381 7.5
1.4224874 2.0346119 0.1856406 9.5
1.4009005 2.7260785 0.067369409 8
1.4005659 2.81563 0.18311343 9
1.3824012 4.2435465 0.038254656 7
1.3774985 4.5533743 0.30343091 9
1.5513377 -3.2269275 0.41214949 10
1.4498647 -2.1656923 0.43919668 12
1.2085394 -1.4940342 0.53766745 15
1.4497167 -0.99264175 0.49882662 15
1.4109229 1.0282081 0.49015522 14.666667
1.5284139 1.3832067 0.49728101 14
1.4426013 1.6719195 0.48399246 13.5
1.4241701 2.2149143 0.5052942 12.5
1.4098315 3.0909054 0.5045926 11.5
1.4012535 5.1348429 0.58360755 10.25
1.8628941 0.58415329 -0.054428015 6
1.8534762 0.96216989 -0.050613225 6.3333335
1.9150029 1.2428153 -0.09256985 6
1.8629177 -4.8184438 0.35002697 9
1.7400124 -3.3057415 0.30018952 9.25
1.7806141 -3.0509799 0.22074997 9
1.8257046 -1.3992608 0.25071052 10.25
1.8988656 -1.1067324 0.30660903 11.25
1.6380067 1.4570096 0.36971357 11.666667
1.6325756 1.7385236 0.36681211 11.333333
1.6432078 2.0668204 0.36611024 11
1.9524367 -4.8172884 0.45438132 9.5
1.8091071 -3.3114769 0.44327497 10.5
1.9831967 -3.1384804 0.42365417 10
1.9877728 -1.643607 0.47701961 12
1.7900233 -1.2821313 0.51162541 13.5
1.8221972 -0.93630677 0.54821968 14.5
1.6445336 1.4147432 0.4351154 13
1.6324805 1.8274289 0.40913635 12
1.6429667 2.2230136 0.4344281 11.5
1.6463841 2.5821111 0.4468866 11
1.6528319 3.0233853 0.44335982 10.5
1.657323 3.3889081 0.46171314 10.5
1.6382664 5.1274276 0.5866496 10
1.7330562 -4.8009315 1.2053269 14
2.2742734 -4.8509521 -0.093213774 6.6666665
2.1843429 0.83901185 -0.072636425 6
2.0916262 1.3837694 -0.11267066 6
2.0678837 -4.8167038 0.18799001 8
2.0864229 -1.6605424 0.25057456 9.75
2.1474142 -1.4069446 0.24980177 9.8571424
2.0774248 -4.815608 0.40870532 9
2.2523565 -3.0800812 0.44620398 10
2.1453006 -1.8879734 0.57328147 12.666667
2.1909328 -1.4250454 0.5574882 13.2
2.4568605 -4.835763 -0.091453418 7
2.5526428 0.70448321 -0.075471714 6
2.5410113 -2.4019887 0.49211094 11
2.5443583 -2.307899 0.49288067 11
3.0353756 -4.8424578 -0.072090618 7
3.1879315 -4.8419404 0.21170357 8
2.8904259 1.0098003 0.34441084 10
3.1841726 2.3917024 0.32360402 9
2.9458106 2.7476525 0.034612905 7
2.899452 1.0034541 0.42220715 11
3.3638954 -4.8553395 -0.08409705 7
3.4494298 -4.8499603 0.13760872 7.5
3.4098742 -2.9645247 0.21542966 8
3.5670426 -0.91657209 0.23101819 9
3.3445392 2.4966981 0.18986897 8.666667
3.3889778 -4.8382168 0.48000121 9.333333
3.3930318 -1.3974688 0.64716768 12
3.2481387 2.4786949 0.43283221 10
3.3554306 -1.376775 0.94278663 14.5
3.7578948 -4.8504496 -0.048408028 7
3.7612228 2.7773557 -0.0618986 6.5
3.7126973 -4.8500581 0.22336142 8
3.8519125 -3.6214273 0.047397029 7
3.6803617 -3.4225681 0.1688976 8
3.6070242 -0.92120862 0.10017291 8
3.6959224 -0.65789914 0.23402767 8.8000002
3.9743116 2.3771417 0.34767357 9.5
3.8961256 2.4146981 0.26767829 9
3.8019845 -4.8448772 0.45511425 9
3.9243357 -3.8336644 0.44683096 9
3.6634655 -1.4409744 0.58138037 11
3.7451162 -0.6105963 0.59788966 11.75
3.9541543 2.3835824 0.57718229 11
3.7101269 -0.59251624 0.8045547 13
4.2954087 -4.855546 -0.024051998 7
4.3949709 -4.8620353 0.24406095 8
4.1294484 -0.85838169 0.23345092 9
4.0280991 -0.64076269 0.25671348 9
4.1903276 2.3380511 0.21565509 8.1999998
4.1801395 2.4354382 0.11717128 8
4.2885256 -4.8690281 0.4593136 9
4.3267674 -1.6211785 0.62284464 11
4.3920879 -1.2000718 0.65648097 11
4.0306807 2.4056664 0.44408616 10
4.2526388 -4.8364711 1.3163913 13
4.3397074 -4.8327003 1.6955364 14.5
4.4508905 -4.8345909 0.058993936 7
4.632668 -1.7523109 0.2944124 8.5
4.6847825 -1.0619756 0.24191935 8
4.6229949 2.3447971 0.29320991 8.5
4.4909921 -4.8516264 0.43464091 9
4.7247825 -1.6148874 0.75136775 11
4.6025219 -1.4665048 0.65523976 11
4.6011586 -4.843987 1.3541274 13
4.5688839 -4.8305211 1.7640343 14.666667
4.8560901 2.8142898 -0.13685726 6
4.9369512 2.3154466 0.25261495 8.333333
4.8318257 -2.5795276 0.60829914 10
4.807497 -2.0722578 0.59444517 10
4.9468007 -2.8447483 0.82959121 11
4.9951868 -4.8530684 1.419356 13
4.8332367 -4.8399515 1.7831064 14.5
5.2811608 3.172781 0.30667117 8
5.4847064 -4.8579516 1.4774996 13
5.2862673 -4.8368955 1.9600691 15
5.5193 -4.8393445 2.1087551 15
5.6254749 0.94031149 -0.0034751031 7
5.61448 0.9609288 0.19291043 8
5.9230099 -2.9850183 0.72365487 10
5.6375403 0.95952052 0.48886186 9.5
5.9141722 -3.0677817 0.86274958 11
5.6681194 0.95767093 0.88044554 11.5
5.8602228 -4.8604927 1.5369769 13
5.6781831 0.97099197 1.3171785 13.5
5.8882432 -4.8630767 1.6172342 13
5.7572956 -4.8427777 2.0568781 15
6.169714 -4.8641896 1.4548229 12.5
6.0263138 -4.871521 1.9062486 14
6.144824 -4.8496633 2.1400008 15
6.474947 -4.2794638 -0.15738349 6.5
6.7334404 0.95087123 -0.10134561 7
6.6447544 1.9670519 -0.10709326 6.5
6.4789872 2.8429205 -0.2251703 6
6.4644961 5.0275826 -0.0044648107 7
6.6011333 0.98206085 0.2952936 8.666667
6.7533698 1.959669 0.2660746 8
6.6732411 2.1397855 0.23063472 8
6.7368441 2.6175568 0.16267367 7.5999999
6.7485838 2.9503794 0.23748989 7.6666665
6.5660295 0.98963517 0.67746341 10
6.5587063 2.0963807 0.58781689 9.5
6.5530014 2.992301 0.52114463 9.5
6.5606251 0.96615928 0.97227544 11
6.5369229 -4.6952691 1.3702973 12
6.5786414 0.99636155 1.3039372 12.333333
6.4762502 -4.8489633 1.7690374 13.5
6.5172124 -4.6219764 1.7561896 13.333333
6.5363126 -4.8322349 2.2220254 15
6.5858321 -4.5388684 2.2080307 15
6.7108259 0.96781433 2.0129011 15
6.936595 0.91165096 0.36019984 9
6.9316454 0.93109143 0.783575 10
6.9727521 0.92637563 1.2825842 12
7.1500068 -4.4830356 1.8569711 13.333333
6.9437323 -4.4683728 2.2838778 15
7.0549936 -4.5965118 2.5544386 15
7.5639439 -1.225033 -0.31372029 6
7.5076447 -1.0181265 -0.11751369 7
7.3194466 -4.5227065 0.36743987 8
7.3858428 -1.0996015 0.21819355 8
7.5515652 -0.87314212 0.68535393 9.5
7.5648928 -1.0542698 0.85110462 10
7.4506192 -4.4304948 2.0183053 14
7.2176852 -3.2115765 2.2812302 15
7.3602896 -2.3523164 2.2991846 15
7.3461952 0.75235009 2.0999827 15
7.2117128 1.045655 2.0840383 15
7.9095054 0.90439075 -0.16381741 6.5
7.7386498 -0.9881646 0.15494384 8
7.8586011 0.90522474 0.3338826 8
7.866601 0.93598592 0.58839351 9
7.8716335 0.97304386 1.0662663 11
7.904727 0.95491415 1.3924291 12
7.9167728 0.97799438 1.8192583 13
7.8313575 -2.4059396 2.1988592 15
8.210722 -2.2009087 0.65414798 9
8.1112652 -4.8771572 1.596535 12
8.1743546 -4.8896899 1.9435059 13
8.5374975 0.89881486 -0.25538784 6
8.6898098 1.3245137 -0.22526088 6
8.5771875 0.98772234 0.18138376 7.5
8.6157875 0.82084304 0.58428639 9
8.7598944 0.78443456 0.8296361 10
8.5772295 0.90484321 0.97718525 10.5
8.5797901 0.92594516 1.466229 12
8.4962721 -4.8742995 1.6531348 12
8.6207142 1.0007927 1.7064024 13
8.4960651 -4.8401489 2.1633945 13.5
8.7381296 -2.8738458 2.2488427 14
8.6445599 -2.5241063 2.2457314 14
8.4534531 -0.60274643 2.3556437 15
9.1012402 -4.902072 1.2567225 11
8.936306 -4.88657 1.7189682 12
9.0374098 -4.887907 2.2450533 13.5
9.0251942 -4.7235861 2.5151751 14
9.5875235 0.87115949 -0.36288062 6
9.5972824 -4.9181876 1.3301284 11
9.3993235 -4.8891129 1.78798 12
9.4062643 -4.8061676 2.177712 13
9.3721981 0.74247086 2.0209441 13
9.3062925 -4.790884 2.4505436 14
9.4780273 -4.622201 2.4990222 14
9.7121601 -4.9103642 0.77401978 9
9.7087631 -4.0129199 1.099817 10
9.702343 -3.7523711 1.1191545 10
9.8532295 -3.0608065 1.1914176 10
9.8445129 -2.6419961 1.0092552 10
9.7790174 -4.7502408 1.3764997 11
9.7726555 -3.9266751 1.2708486 10.5
9.8284512 -2.8763742 1.298782 10.5
9.7614098 -2.5531378 1.2234676 11
9.7765179 -1.3512514 1.5557557 12
9.7381907 -2.3686669 1.639557 12
9.8403091 -1.7950161 1.9121625 12
9.9625416 -1.8051602 3.0168471 15
10.087107 -4.8199987 1.2491111 10
10.243206 -4.8004804 1.9161862 12
10.225529 -4.948895 2.3364465 13
10.182255 -3.5498905 2.3530881 13
10.063081 -4.6458912 2.5654361 13.5
10.303352 -4.1356516 3.0942388 15
10.275194 -3.7338297 3.0777414 15
10.329144 -2.789418 3.0148437 15
10.235291 -2.569921 3.0393372 15
10.166329 -2.2886796 3.0198972 15
10.018881 -1.3972842 3.0347896 15
10.361414 -1.114844 2.9941814 15
10.063285 -0.42008004 3.0005281 15
10.306565 0.63151425 2.9701238 15
10.259192 0.86336005 2.9930663 15
10.55222 -4.8616376 1.483632 11
10.545304 -4.8953738 1.6296457 11
10.672076 0.8101576 1.9530542 12
10.649993 0.86352885 1.9695716 12
10.6031 -4.6326857 2.7763245 14
10.78641 -4.1787081 3.0233858 14
10.671211 -3.7504098 3.0242171 14.5
10.419572 -3.0511124 3.0144727 15
10.720036 -2.1120563 2.9825609 15
10.565403 -1.7239532 2.9820857 15
10.457806 -1.3552008 2.992353 15
10.792306 -1.0472649 2.999141 15
10.612189 -0.056978635 2.9912224 15
10.523627 0.28664029 2.9762909 15
10.978351 0.64570093 1.9844707 12
10.851666 -3.2262034 2.033282 12
10.913287 -2.9923499 2.0493739 12
10.929145 -4.69596 2.4784789 13
10.902254 -3.5306971 2.5041931 13
11.039801 -3.1963894 2.9745498 14
10.943926 -2.6569071 2.9933155 14
10.829475 -2.3803947 2.9874246 15
10.906513 -0.56448007 2.9646528 15
10.801106 -0.31532237 2.968554 15
10.976381 0.7439692 2.9652932 15
11.268421 -0.5989458 2.2029059 13
11.552112 -4.6589193 2.6055858 13
11.378312 -4.1215334 2.9998317 14
11.293812 -3.8140752 2.996654 14
11.579606 -2.4655325 2.9516823 14
11.516149 -2.1831849 2.956548 14
11.360243 -1.6267182 2.9673126 14
11.239792 -1.349582 2.9645209 14
11.458372 -0.17092088 2.9700987 14
11.523655 0.26638967 2.9361897 14
11.326512 0.66095394 2.9400361 14
11.910346 -1.1573346 2.2813637 12
11.816348 -0.23469819 2.3010104 13
11.76151 0.28462043 2.3455305 13
11.738739 -4.4251165 2.648818 13
11.73002 -3.365453 2.6859634 13
11.727312 -2.9282653 2.7064571 13
11.723843 -2.6380818 2.7223165 13
11.73366 -2.2154741 2.7511191 14
11.751487 -1.7974231 2.7844059 14
11.77741 0.66049403 2.4069703 13
11.707556 -3.0502026 2.9405491 14
11.692099 -2.7659955 2.9556928 14
11.755314 -1.3805677 2.8190644 14
11.761147 -0.96617323 2.8574543 14
11.734259 -0.41503924 2.9058003 14
11.684816 -0.14129439 2.9237247 14
12.256972 0.8681761 1.8939595 11
12.032796 -1.431968 2.2884855 12
12.596177 0.74373966 1.9029937 11
13.059363 -4.9292464 1.6265908 10
13.144362 0.017957402 1.9149679 11
13.013014 0.54189098 1.9369078 11
12.904279 -4.7928572 2.3310485 12
13.113598 -2.5646183 2.0648425 11
12.840136 -1.0483733 2.1168652 12
13.447152 -2.9980986 1.2872175 10
13.59061 -2.0402701 1.3815224 10
13.474998 -2.829823 1.8967394 11
13.4856 -2.6178501 1.6342267 10
13.369977 -2.1962936 1.9540457 11
13.51788 -0.91844982 1.8754207 11
13.385359 -0.59674168 1.8870748 11
13.434599 -0.1291391 1.8940927 11
13.234105 0.17510173 1.9076955 11
13.450371 -3.0278001 2.1599381 12
13.470899 -2.7335017 2.2004585 12
13.561254 -1.726164 2.1758564 12
13.206032 -0.98865807 2.0775898 12
13.584614 -0.72049212 2.1641734 12
13.673634 -2.0148745 1.7149291 11
13.923979 -1.5936958 1.8673565 11
13.826381 -0.61067605 1.8832071 11
13.721144 -0.42418844 2.2230206 12
13.607654 -0.12100333 2.2465348 12
14.164194 -1.1117979 1.8669587 11
14.598806 -1.4867604 1.8749526 11
14.683316 1.2636077 1.8127778 11
14.877414 -1.860181 1.8680845 11
15.008852 0.93379241 1.8040993 10
15.328414 0.58708972 1.7933871 10
15.787997 0.22988378 1.7964617 10
15.963046 -3.3569348 2.8595867 12
16.040234 0.8100673 2.7184622 12
16.475939 -4.7099552 1.2568588 9
16.502018 -4.1219702 1.4597082 10
16.698633 -0.15532407 1.8372797 10
16.644913 -2.6753078 2.7289944 12
16.656607 -0.64995205 2.6892021 12
16.636818 0.14562608 2.7277427 12
16.58065 0.55968738 2.7555408 12
16.952442 0.25067887 -0.88277501 6
16.946196 1.025862 -0.80439502 6
17.014791 3.1161871 -0.81421471 6
16.865208 -2.0389407 -0.71567851 6
16.872736 -1.7488416 -0.69479716 6
16.879276 -1.4640675 -0.67153585 6
16.919149 -1.0621719 -0.52487689 6
16.928854 -0.57776135 -0.57423657 6
16.936775 0.091411345 -0.50612879 6
16.950144 0.48530337 -0.46467456 6
16.952517 0.87520635 -0.42369705 6
17.001974 3.0262151 -0.61958206 6
17.031116 3.5348692 -0.77783006 6
16.992739 3.7737339 -0.71274734 6
16.906111 -1.9082156 -0.10363959 7
16.915503 -1.5339069 -0.10030275 7
16.923218 -1.0427191 -0.030492919 7
16.961885 1.2662332 -0.38359401 6
17.012939 3.0964146 -0.2243381 7
16.989677 3.2597809 -0.18448219 7
17.011015 3.6711624 -0.14595804 7
16.926315 -1.9769342 0.37456495 8
16.938942 -0.56214219 0.0063057728 7
16.946524 -0.30057487 0.054970816 7
16.953682 0.22091511 0.090663463 7
16.96405 0.61275667 0.13237529 7
16.976576 0.91047478 0.17784372 7
16.981794 1.3946291 0.21407072 7
17.04917 3.5984406 0.031597335 7
16.934689 -1.5852755 0.41776624 8
16.941317 -1.3516704 0.46859923 8
16.951035 -0.86710715 0.49731946 8
16.956806 -0.41439497 0.54788482 8
16.968309 -0.10529629 0.58666825 8
16.974554 0.36570629 0.63591397 8
16.98509 0.65458798 0.67528111 8
16.999979 1.0355338 0.71970612 8
16.995779 1.4287672 0.41560254 8
16.942833 -1.6206024 0.87784314 9
16.942232 -1.2454419 0.9240945 9
16.964624 -0.86539954 0.97193307 9
16.969017 -0.48836508 1.0194157 9
16.987888 -0.092595622 1.0913116 9
16.988804 0.2695736 1.1158507 9
16.992189 0.65057772 1.1638126 9
17.000425 -0.67465538 1.5539439 10
17.006588 1.0266359 1.2111738 9
17.013979 1.407527 1.2601277 9
16.946882 -2.1705184 1.6626449 10
16.973232 -1.7663181 1.7023156 10
16.984587 -1.3651205 1.7416296 10
16.92293 -0.95637387 1.7758399 10
16.900282 -0.55610478 1.8140482 10
17.009214 0.076859199 1.6032752 10
17.02248 0.5330584 1.6542584 10
16.984303 1.2663571 1.753788 10
