# .PCD v0.7 - Point Cloud Data file format
VERSION 0.7
FIELDS x y z intensity
SIZE 4 4 4 4
TYPE F F F F
COUNT 1 1 1 1
WIDTH 565
HEIGHT 1
VIEWPOINT 0 0 0 1 0 0 0
POINTS 565
DATA ascii
-22.962841 -7.057189 3.5429804 11
-3.602258 -3.3512695 0.091463417 8
-3.7710099 -2.0168827 0.75713354 12
-3.8380287 -1.9257302 0.75709879 12
-3.7902842 -1.0112671 0.66411889 12
-3.6433971 -3.8435168 1.0746371 13
-3.615175 -3.393934 1.0480795 13
-3.6748426 -3.0568347 1.1342698 13.666667
-3.7630334 -2.5474486 1.0735101 13.5
-3.7511332 -2.1506038 0.99459475 13.5
-3.8511453 -1.8856087 1.0466619 14
-3.8290644 -1.4151579 1.1651506 15
-3.8198662 -1.1581503 1.1659172 15
-3.6441383 -3.9394095 1.3853928 14
-3.620795 -3.3559203 1.3328496 15
-3.7068348 -3.0129397 1.3702472 15
-3.7622116 -2.6207688 1.3087989 15
-3.7593112 -2.2020502 1.2882767 15
-3.732626 -1.9376031 1.2733066 15
-3.4921744 -3.3418984 0.2017915 8.5
-3.5844035 -3.0065444 0.20845595 8.5
-3.5762165 -2.5893223 0.23515248 8.5
-3.5618126 -2.1784604 0.32434464 9
-3.5503521 -1.9207263 0.33996972 9
-3.4456 -0.77278745 0.31765372 10
-3.437484 3.877039 0.38126728 9
-3.4889231 -3.3765578 0.51740968 9.75
-3.5683527 -2.9770224 0.49615082 10.333333
-3.5478818 -2.5899763 0.50406921 10.5
-3.5323045 -2.3054123 0.5175122 10.5
-3.4447923 -1.7780441 0.54599684 11
-3.411305 -1.5918024 0.48578584 11
-3.4613976 -1.0183272 0.51526517 11
-3.5174224 -0.76050478 0.54985112 11
-3.4252799 3.4047685 0.52223265 10
-3.4583201 -4.4618688 1.0155377 12.5
-3.5563824 -3.9366689 1.0703857 13
-3.5576642 -3.3843036 0.84992838 12
-3.5231676 -3.607513 1.4313608 15
-3.5321491 -3.470691 1.4911779 15
-3.5663249 -3.1326225 1.3521781 15
-2.9331603 -4.1655216 0.2640948 8.3999996
-2.8689828 -3.6184111 0.37796107 9
-3.0360341 -3.495811 0.23398538 8.333333
-2.991168 -1.3335791 0.30003038 9.333333
-3.0409641 -1.0360756 0.26335984 9.25
-3.0259228 -4.5266476 0.60589379 10.4
-2.9616294 -4.2791743 0.66197276 11
-2.8601062 -3.7603469 0.61113912 10.666667
-3.1268864 -3.5020673 0.53220326 10
-2.8879695 -2.0702441 0.7953195 13
-3.0322194 -1.3179878 0.66723722 12.833333
-3.0859511 -1.1308602 0.59661871 12
-2.8183367 3.3743954 0.44052756 10
-3.0763562 -4.4940553 0.95981437 12.333333
-3.003444 -4.091814 0.95000786 12.5
-2.8136504 -3.5152054 0.83354944 12
-2.6002727 -4.1113825 0.26229936 8.3999996
-2.6566377 -3.7741575 0.13557065 7.6666665
-2.7526817 -3.5975313 0.12555316 7.5
-2.7384436 -1.6211283 0.29940099 9.5
-2.5773816 3.0852358 0.30776432 9
-2.6414437 3.4629436 0.32448673 9
-2.568264 3.939321 0.35836944 9
-2.7386534 -4.7638011 0.50464642 10
-2.5669439 -4.034112 0.64311218 11
-2.7867634 -3.6767712 0.64482856 11
-2.726378 -3.0899906 0.64855504 11.5
-2.7262924 -2.5161927 0.69306833 12.333333
-2.7451315 -2.2156396 0.71031362 12.5
-2.7083321 -1.730637 0.57588053 12.25
-2.6925554 -0.53906035 0.43488073 12
-2.6126318 3.5190217 0.41910791 10
-2.5555112 -4.139843 0.85169566 12
-2.1975217 -4.5593066 0.29888552 8.666667
-2.2748518 -4.3775101 0.35041493 9
-2.237654 -3.8875256 0.087655045 7.5
-2.1582615 2.51739 0.31449977 10
-2.2206333 -4.7475452 0.53456366 10
-2.3030257 -4.0531445 0.63968319 11
-2.1111131 2.5328941 0.51173687 11
-2.3493547 -4.7776856 0.88742852 12
-2.3955245 -4.1103354 0.84102446 12
-1.8398032 -4.1724181 0.20699133 8.1999998
-1.8019285 -3.9110165 0.048968971 7
-1.7736516 1.1823981 0.32645971 11.333333
-1.8315727 -4.7617946 0.60992455 10.25
-1.8352233 -4.0623522 0.59673423 11
-1.8405644 -4.0387979 0.8079105 12
-1.2081711 -3.0954852 0.26946679 9
-1.5044717 1.1819056 0.34330851 12
-1.4893733 1.4035999 0.36650392 12
-1.5092566 2.7108603 0.37080166 10.5
-1.5047977 2.9594505 0.38289556 10.5
-1.3891009 -4.6768656 0.59513462 10.5
-1.3727165 -4.1579571 0.58114308 11
-1.2206998 -3.9137671 0.66536188 11.5
-1.1998014 -2.958801 0.78150612 14
-1.5222576 1.1827476 0.40453035 13
-1.5015625 1.379196 0.43835872 13
-1.509119 2.6891954 0.54420501 12
-1.5112655 3.0157394 0.43954673 10.666667
-1.5033062 3.3089573 0.46230742 11
-1.2558112 -4.5570531 1.00079 13
-1.2448654 -4.2078676 1.0202245 13.5
-1.2207716 -3.7590635 0.93607956 13.75
-1.2133435 -3.3954811 0.93635279 14.25
-1.2057431 -3.166842 0.80275768 14
-0.91532671 1.450852 -0.045354456 6
-1.1901027 -3.0774648 0.36227733 10
-0.91530597 -2.5640965 0.23157816 9
-0.82326198 -2.3871272 0.33443114 10.5
-1.1084436 -1.4807277 0.3351739 12
-1.1613388 -4.7640204 0.58721328 10.5
-1.0447158 -4.2014728 0.57059771 11
-1.1764978 -3.0815303 0.49624324 11.5
-1.0836558 -2.560256 0.64229208 13.666667
-1.18391 -2.3672101 0.79541695 15
-1.1298213 -1.4786786 0.49357542 14.5
-1.172187 -4.5733504 1.1568955 14
-1.1447201 -3.8356647 1.0897039 14.666667
-1.137561 -3.3056281 1.0015181 15
-1.1982137 -2.9363306 0.90004754 15
-1.1883483 -2.5801375 0.81960344 15
-0.54994953 -0.47250167 -0.007075503 7
-0.53236461 -0.28861776 -0.0090935891 6.6666665
-0.40647018 0.39312902 -0.023084898 6
-0.55549306 0.66309536 -0.0192561 6.5
-0.56083393 0.97025448 -0.018319324 6.75
-0.72006881 1.2286047 -0.024615061 6.5
-0.65530652 -2.8033316 0.16928343 9
-0.61572021 -2.458931 0.37042925 11
-0.56868947 -2.1829381 0.26668689 10.5
-0.5103544 -0.88261074 0.0257817 8
-0.52657169 -0.64580303 0.011608048 7.1999998
-0.60190636 -0.34984443 0.0042478405 7
-0.68446529 -2.5509434 0.45960981 12
-0.580172 2.6359332 0.46048978 12
-0.36322334 0.37024903 -0.012415698 6
-0.19177693 0.58718193 -0.029198218 5.8000002
-0.3447462 0.81658995 -0.029083742 6
-0.072022215 -4.8260517 0.012539945 7
-0.20443608 -1.7504476 0.28711763 11.666667
-0.21380337 -0.58934128 0.011052121 7.5999999
-0.38226947 -0.32731855 0.0073444205 7
-0.39426526 -2.0184987 0.42688692 13
-0.1939946 -1.7426972 0.45963168 14.4
-0.074128255 2.6205149 0.51362485 13
-0.20139322 -4.8043451 1.1521878 14
-0.38714162 -4.797822 1.1563963 14
0.10669441 -2.8092549 0.16896774 9
0.18618913 -1.8665059 0.30043918 11.555555
0.28896531 -4.821558 0.64383209 11
0.17413004 -1.8918328 0.45224249 13.8
0.17718814 2.7539549 0.52515006 12.333333
0.098795921 2.959306 0.50246638 12
0.037855349 -4.8119102 1.1483144 14
0.76378274 -0.45408389 -0.0082600266 6
0.61918724 -0.15408245 -0.03652988 4.5999999
0.64070731 0.12618507 -0.047434714 4.4000001
0.5882898 -3.6117315 0.083400488 7.5
0.54943895 -3.5642385 0.28884447 9.5
0.79773122 -2.1661737 0.38294637 12
0.40855908 -1.8765246 0.2358731 11
0.61772817 -1.0486252 0.34510633 14
0.76076257 -0.45470104 0.0033525266 6
0.72640002 -0.31886661 0.0015851465 6
0.49038213 -4.8302493 0.53232968 10
0.59659791 -3.6212914 0.4801026 11
0.49754885 -3.5357511 0.43887526 10.5
0.77681279 -2.178757 0.48519194 13
0.69958109 5.1417856 0.62905508 10.25
0.57086158 -4.8264213 1.1521823 14
0.6419701 -4.827282 1.293036 14
0.95592481 -4.8530869 -0.063055567 7
0.838045 -0.48229325 -0.0086208601 6
0.96818471 -0.29932901 -0.011150451 6.5
0.97777927 0.22990908 -0.019330706 6.3333335
1.0902587 0.57733876 -0.023546752 6.4000001
1.0234809 -4.8407836 0.14153518 7.8000002
1.0329129 -3.3328564 0.31459668 9.5
1.1422077 -1.3848815 0.29744208 10.8
1.1256956 -0.86263889 0.16174172 9
0.85136336 -0.18883698 0.004546395 7
1.092514 1.4149939 0.38394576 13
0.96567452 -4.8363142 0.47817054 9.666667
1.0590757 -3.4271817 0.49961427 11
0.92698979 -3.135005 0.46545187 11
1.0799546 -1.3232881 0.45984986 14
1.1851637 0.98254704 0.46619275 15
1.0952766 1.4594387 0.4338567 13.666667
1.0996104 1.7906499 0.44489253 13
1.1109624 2.1964681 0.46662313 12.5
1.1214551 2.5716267 0.47907543 11.8
1.1280342 3.005444 0.49977931 11.5
1.1419919 3.3930588 0.54613066 11.5
1.1526355 3.854939 0.52686179 10.666667
1.1686252 4.2450914 0.61586374 11
1.1640279 4.4166474 0.53381538 10.5
1.0440922 5.0871949 0.60560757 10.285714
1.3110803 0.20085721 -0.025939891 6.3333335
1.3081007 0.62763137 -0.019935444 6.6666665
1.523314 0.80925298 -0.0071142386 7
1.3384658 -4.8554959 0.14938062 7.75
1.2558019 -2.9630177 0.26735616 9
1.5057085 -1.6488706 0.27151337 9.666667
1.3874106 -1.283399 0.2111499 9.25
1.3137286 -1.1041549 0.24733305 10.2
1.5885574 1.1033652 0.0015160204 7
1.3404076 -4.8427863 0.56186742 10
1.3672352 -3.2752304 0.45837557 10.666667
1.3488367 -1.302157 0.50098306 13.75
1.7057734 0.60252845 -0.010256473 7
1.9945787 0.99943501 -0.023955481 7
1.9199812 -4.863379 0.0064476631 7
1.9758089 -2.5693209 0.37771094 9
1.8437798 -1.773375 0.018928569 6
1.670469 1.0417336 0.013337544 7
1.7787956 -3.1459143 0.53371119 10
1.9386605 -2.5270338 0.51982504 11
2.0236335 0.62770915 -0.01144323 7
2.2795897 1.3372426 -0.051299199 7
2.1846764 1.6284581 -0.088978983 6
2.0480366 -4.8629184 0.077915318 7
2.0793679 -2.0782323 0.070211478 6.5
2.3450811 0.96908301 0.35334939 11
2.2758844 -4.8840766 0.52088737 9
2.1117997 -1.8964351 0.54032838 11.5
2.268889 -4.8750906 1.282362 13.25
2.7489753 -4.8780203 -0.0050452254 6
2.5979033 -4.8889027 0.17456354 7
2.7897532 -2.8548236 0.23183678 8
2.7775066 -1.721741 0.20731927 8
2.6927929 2.3323367 0.33598644 9.5
2.5623398 -4.8875494 0.56942707 9
2.6851099 -3.3403554 0.56619829 10
2.7070692 -3.1294844 0.56743449 10
2.671248 -1.817706 0.70767242 12
2.7919555 -1.4443288 0.5358817 11
2.6781261 2.3455508 0.44704556 10.5
2.7124057 2.4625094 0.51500899 11
2.6340156 -4.8783498 1.3382511 13
2.8198175 0.93048251 -0.016150469 7
3.0089586 -4.8854284 0.29363495 7.5
2.828783 -2.9677713 0.24135257 7.5
3.0806632 -0.98378354 0.23698692 8.166667
3.1125941 -0.73306268 0.25299343 9.5
2.8947015 2.3234203 0.19452293 8.5
3.0997834 2.4107387 0.34326878 9.5
3.0280757 -4.8864994 0.55138701 9
2.9929221 -1.4606616 0.66709971 11.666667
3.0087597 -1.0704062 0.52641141 10.666667
3.0766859 -0.71231794 0.58541971 12.5
2.8856366 2.372669 0.60948563 11.75
3.1278992 2.4323192 0.49844614 11
3.185806 -0.6338107 0.87504131 15
2.999469 -4.8846536 1.3831964 13
3.3615363 -4.8890791 0.28489709 7.3333335
3.4615526 -3.7966945 0.18346745 7
3.4744039 -0.72442752 0.33205888 10
3.4237983 2.3260729 0.33985144 9
3.2157168 2.6445284 0.29752868 9
3.2953844 -4.8879042 0.5201152 9
3.4732053 -3.2892423 0.70267379 10
3.3248582 -1.7307312 0.69452673 11
3.334949 -0.65914899 0.62240601 12.333333
3.4773738 2.2934735 0.58854377 11
3.2973909 2.4448485 0.49075642 10.5
3.2627461 -0.57247943 0.81337929 14
3.3520114 -4.8953543 1.456513 13.2
3.5902309 -4.8788638 1.6148371 14
3.6201878 -4.9099298 0.26035252 7
3.7574768 -1.6169082 0.19500375 7.5
3.7511716 -1.3857646 0.12937517 7
3.7171001 0.93600708 0.36992079 10
3.7256534 2.2747161 0.25278908 8.5
3.8625298 3.6202435 0.32885835 9
3.7165389 -3.031219 0.55531073 9
3.8799088 -1.6801438 0.73622882 11
3.825182 -1.3953223 0.73251009 11.333333
3.7342017 0.93236113 0.50040919 11
3.7894001 2.2592008 0.45412752 10
3.901329 -4.920166 1.4084114 12.5
3.7472525 -4.8840508 1.6412816 14
4.095686 0.92937458 -0.046109963 7
4.3703451 2.8043187 -0.12258045 6
4.1202302 -4.6313958 0.27961236 7
4.2270823 -3.6680946 0.24786465 7
4.2035975 2.2510862 0.22316654 8.5
4.2542639 -3.6675575 0.67909425 10
4.2937365 -3.2796504 0.74497569 10
4.2462406 -3.0011594 0.66150314 9.5
4.2384176 -2.6556644 0.71013737 10
4.225008 -2.1908081 0.73229176 10.5
4.147984 -1.706188 0.5034743 9
4.1956153 -1.1801825 0.4870401 9
4.2053981 2.2765381 0.45689318 10
4.3003421 -3.2218716 0.89647722 11
4.3232675 -3.0159991 0.85354668 11
4.1270127 -1.692422 0.86750716 12
4.081933 -1.5339327 0.80607498 11
4.2086101 -4.918067 1.4487087 12.5
4.2513213 -4.8915052 1.7286177 14
4.746727 -3.7599399 -0.037006419 6
4.6325927 -3.2473767 -0.077847138 6
4.420321 2.8465674 -0.075835884 7
4.6197624 -3.7271118 0.016408525 6
4.5366797 -3.2615571 0.031316351 6
4.6356845 -3.1406264 0.068482608 6
4.4852676 -3.6150196 0.69884276 10
4.5922089 -4.9515529 1.5669963 13
4.6313124 -4.9232697 1.7083678 13.5
4.8267202 -3.654412 -0.01830182 6
4.8636208 -3.2775025 0.16094647 7
4.9181242 -1.1716139 0.21465699 8
5.081037 0.87831247 0.27323666 9
5.016458 -4.9426498 0.59976923 8
5.0902104 0.88624597 0.49980879 10
5.030395 -3.2551999 0.95633882 11
5.1353946 -3.1277122 0.98925471 11
5.149981 -1.6484342 0.83774799 10
5.0915155 0.9005006 0.89670205 12
5.0405278 -4.9296088 1.5381049 12
5.1068616 0.87252265 1.3361678 14.5
5.0264416 -4.9193559 1.8767343 14
5.3312263 -3.0539274 0.79100686 10
5.5286818 -4.9782939 0.87910503 9
5.3489742 -4.9351611 1.4228886 11.5
5.9881516 3.9542449 -0.078227535 6.5
5.7621489 4.9171319 0.059951622 7
5.9983439 0.96392047 0.69176811 10
5.8850899 -4.6851196 0.83711803 9
5.9839473 0.88567483 1.0204426 12
5.943531 -4.6510878 1.4153043 11
5.9959717 0.97862256 1.5053816 14
5.7084007 5.1540151 1.4980154 12.5
5.8077335 -4.9281287 1.8193178 13
5.8979731 -4.6555715 1.7698538 12.666667
5.6690116 5.1650944 1.7334042 13.5
5.9435067 -4.6305337 2.0342164 14
6.0083995 2.9789188 -0.14478156 6
6.1959157 0.88257688 0.11774472 7.5
6.2186189 1.82034 0.25483587 8.2857141
6.1670527 2.1891363 0.21188661 8.166667
6.2230048 2.5840294 0.18905364 8
6.1899743 2.9784975 0.16916041 7.5999999
6.2842979 4.5731006 0.27529219 8
6.1223993 0.87065572 0.57780975 9.75
6.0422516 2.2039125 0.69568402 10
6.1897688 2.7375586 0.40891635 9
6.2602272 3.0214853 0.42874366 9
6.2056079 0.89391786 1.0135374 11.5
6.0722919 2.2219086 0.79533654 11
6.0652003 3.1274977 0.99125403 11
6.0073929 0.90510249 1.3841997 13.5
6.1123562 3.177536 1.2306259 12
6.2466402 -4.5979223 1.7849205 12.666667
6.0431128 0.83227807 1.6498635 15
6.0501237 4.2519684 1.6348946 13
6.2275329 -4.5519128 2.0882921 14
6.7629867 -1.3084089 0.28721598 8
6.7913795 -1.1940206 0.17810296 8
6.7726598 -1.0702605 0.57176524 9.5
6.5452471 -4.5615249 1.717221 12
6.6142459 -4.5911417 2.1383159 13.666667
6.949728 -1.2907068 -0.043189164 7
6.9532194 -1.1454638 -0.015605529 7
6.8065395 -1.2182004 0.37863845 9
6.8384581 -1.0778404 0.30891517 8
6.8391271 -1.3261087 0.46330312 9
6.9988613 -0.9493717 0.86416131 11
7.3007779 0.81608975 -0.077495329 7
7.2157502 -1.0165126 0.7027908 10
7.3213925 0.82290357 0.71802557 10
7.3518405 0.83063853 1.2970922 12
7.4494681 -4.975594 1.8942056 12
7.3061509 0.85311198 1.7037437 14
7.3808336 -4.9713135 2.3681812 14
7.5536017 0.69426787 2.2444198 15
7.3815498 0.84556347 2.2174749 15
7.5878534 -4.8872218 2.414417 14
7.7202311 -1.4654938 -0.084018826 7
7.9899526 0.78691196 0.14002953 8
7.9935865 0.83579993 0.97085494 11
7.8355241 -4.9899731 1.9636776 12
7.7066927 -5.0100384 2.175904 13
7.8765702 -3.3755438 2.441355 14
8.3328018 0.78824437 -0.054481823 7
8.1096706 1.2875203 -0.093816027 7
8.0901632 0.71422732 0.39206114 8
8.0484314 0.98659766 0.1630545 8
8.0739641 1.2275723 0.26964965 8
8.0355644 0.73323303 0.59357917 9.5
8.0602093 0.97984147 0.51980215 9
8.0405235 0.77101082 0.87336004 10
8.1023073 0.75595719 1.4493181 12.333333
8.0598373 0.96891069 1.3288125 11.5
8.0230942 0.75819409 1.6061096 13
8.054081 0.94686902 1.6368939 13
8.1480341 -5.0138402 2.1841583 12.666667
8.0734901 0.76011455 2.1164699 14.5
8.2070341 -5.0559559 2.6030827 14
8.0935993 -3.2675529 2.5065801 14
8.0715599 -3.0573065 2.5087836 14
8.145402 -2.669137 2.4054525 14
8.2540836 -0.7155059 2.5009353 15
8.4362221 0.74162591 -0.16896825 6.5
8.4763975 -5.0295649 1.1440345 9
8.7271328 -5.0363212 1.4467038 10
8.6583109 -4.9593096 2.161783 12
8.5350323 -4.8950329 2.5323226 13.5
8.9479113 -5.0192747 1.1635329 9
9.0780668 -4.9490795 1.3834146 10
9.1909122 -3.767277 1.4895703 10
9.1646471 -2.8383269 1.3870648 10.5
9.1849365 -2.9473405 1.7314749 11
9.1560535 -2.6466763 1.9611443 12
9.0515823 0.65435666 2.2092004 14
8.9600697 -4.8287349 2.7074382 14
9.0381784 -4.8227644 2.8501172 14
9.5419121 0.70541257 0.065505944 7
9.2280865 -1.6990401 0.96033716 10
9.4020357 -4.4761353 1.4668775 10
9.2046471 -2.7535009 1.4103558 10
9.2553616 -1.6890525 1.3160697 11
9.4791594 -4.4520283 1.6303781 10
9.4693546 -4.9960375 2.6029205 13
9.4621773 -4.8481331 2.8436975 14
9.8252249 -4.9893923 1.5763837 10
9.964282 -4.8367267 2.9806504 13.666667
10.043467 -3.0741954 2.3832955 12
10.186872 -5.0116401 2.4043887 12
10.070036 -4.758163 2.6828294 13
10.395844 -3.5785134 2.7402079 13
10.373136 -0.71242011 2.5691149 14
10.183986 -3.6333818 2.9110355 14
10.347347 -3.9623694 3.2922628 14
10.652394 -3.3808138 2.2118726 12
10.738317 -2.8584449 2.2486048 12
10.685611 0.61827046 2.2342649 13
10.535845 -4.8601341 3.0569429 13.5
10.724999 -0.15839994 3.1830773 15
10.583385 0.41343021 3.181133 15
10.431452 -4.505652 3.2871187 14
10.658145 -3.0641725 3.2613227 14
10.524037 -2.5353131 3.2607386 15
11.118865 -4.276114 2.5870178 12
11.171376 -1.4255962 2.6955118 14
11.164316 -1.0326108 2.7192347 14
11.114152 -0.65270007 2.604934 13.5
11.189215 -0.26403794 2.7857041 14
11.040232 -4.6411715 2.9664392 13
11.059669 -4.168304 3.008503 13
11.040681 -3.4413691 2.9956183 13.333333
11.068008 -3.0255654 3.0974414 13.666667
11.060323 -2.6392834 2.95819 14
11.091767 -2.2454 2.9870269 14
11.091208 -1.8471323 3.0128932 15
11.13063 -1.4787637 3.0069184 14.5
11.109619 -1.1937091 3.0695112 15
11.134527 -0.41664508 3.1490915 15
11.170838 -0.083279818 2.9948626 14.5
11.185147 0.24706748 2.8322299 14
11.187117 0.50369126 2.8591442 14
11.063004 -2.6153545 3.1982794 15
11.065448 -2.2263801 3.2260442 15
10.997844 -1.5791563 3.2588165 15
11.126452 0.22896025 3.2204008 15
11.052399 0.61650699 3.2515795 15
11.22702 -0.26996201 2.5341556 13
11.225288 0.73960268 3.1413865 15
11.616226 -1.3901538 2.510572 13
11.664077 -0.69547951 2.4965978 13
12.229635 -5.1710029 2.0571933 10
12.28156 0.83692813 2.2266212 12
12.193217 -1.3827642 2.4999225 13
12.164177 -0.99085009 2.5492187 13
12.530468 -3.3582942 2.3107903 11.5
12.700614 -1.8032049 2.2574418 12
12.51104 -1.3560034 2.27828 12
12.49398 -0.80102706 2.3452151 12
12.768672 0.28319979 2.2249317 12
12.467607 0.56404835 2.2177413 12
12.835435 -2.6983328 1.1481954 10
12.861187 -2.2589884 2.2325706 12
13.019743 -0.13952829 2.2100182 12
12.822414 -2.4359102 2.4802017 12
13.195019 -0.26857439 2.5327508 13
13.04546 0.1634963 2.5663376 13
13.472848 -0.62263674 2.2198935 12
13.243788 -0.30972925 2.2225544 12
13.871923 -0.61040461 -0.26180756 7
13.770919 -0.95360523 2.2250717 12
14.109527 -3.7969673 2.2747626 10
14.328145 -2.3170366 2.163965 11
14.049989 -1.2992303 2.2264836 12
14.762556 0.68355501 2.1809638 11
14.54449 0.96557516 2.168308 11
15.071621 0.300713 2.1652734 11
15.196887 -2.2266383 3.1441481 13
15.223602 -0.62002748 3.1938221 13
15.837352 -4.6109643 1.8347785 9
15.840592 -4.4707723 2.1840715 10
15.996983 -3.4269581 2.9584794 12
16.396902 -1.1192703 -0.42490283 6
16.397318 -0.31525773 -0.3224121 6.5
16.381247 0.21183245 -0.27898544 7
16.192646 -2.3442175 0.21924527 7
16.337997 -1.9527625 0.12632547 7.5
16.355579 -1.442111 0.15297003 7.3333335
16.373745 -0.94666684 0.27649033 7.6666665
16.385233 -0.46685836 0.17049336 7
16.288473 -2.1995618 0.67778492 8
16.358725 -1.3106112 0.58548766 8
16.372688 -0.95169103 0.63278562 8
16.392408 -0.4210439 0.40868554 8
16.398357 -0.034002341 0.44830114 8
16.34128 -2.0130479 1.1232759 9
16.359243 -1.648803 1.1681908 9
16.368195 -1.3896638 1.1742507 9
16.367823 -0.88909167 0.82365638 9
16.394783 -0.5145582 0.8667832 9
16.343615 -2.0353749 1.5506752 10
16.372364 -1.9093828 1.2576281 9
16.360205 -1.2836889 1.2142316 9
16.395092 -0.66866094 1.2259173 9
16.354584 -1.674075 1.6032985 10
16.365553 -1.3176197 1.6543305 10
16.384521 -0.97283691 1.7019342 10
16.394489 -0.62122607 1.7513757 10
16.329075 -2.3470793 2.0640628 11
16.347029 -1.9558247 2.1021624 11
16.356977 -1.5692962 2.1376836 11
16.331905 -0.99967915 2.1917856 11
16.292347 -0.59580398 2.2254095 11
16.188446 -0.11327524 2.1513929 11
16.430944 -1.5055854 -0.47050625 6
16.416056 -1.7129536 -0.37966657 6
16.452908 -1.0199928 -0.38779512 6
16.40387 -0.64348888 -0.3443701 6
16.415915 0.19061024 -0.06954731 7
16.427683 0.77788699 -0.22033426 7
16.430695 0.82961875 -0.18992479 7
16.407154 0.26905602 0.25720096 8
16.442068 0.99627751 0.34083542 8
16.479399 3.0910845 0.017262241 7
16.542402 3.4593573 0.11651464 7
16.406614 -0.22963814 0.72587001 8
16.409313 0.35987005 0.48974368 8
16.426266 0.74802667 0.52847761 8
16.450218 1.1419016 0.56991023 8
16.538851 3.0166445 0.5803532 8
16.504814 3.2640331 0.59611017 8
16.401739 -0.13605747 0.91040438 9
16.416697 0.23859333 0.95254755 9
16.426655 0.62193906 0.99775779 9
16.43454 1.0969477 0.97193229 9
16.419325 0.20417023 1.3271184 9.333333
16.424019 0.53732383 1.4488745 10
16.440983 0.90704626 1.4984797 10
16.447947 1.2623533 1.542326 10
16.406458 -0.26588309 1.80328 10
16.425426 0.086482927 1.8548198 10
16.440363 0.79915297 1.9588747 10
16.477293 1.3037959 2.0005598 11
