# .PCD v0.7 - Point Cloud Data file format
VERSION 0.7
FIELDS x y z intensity
SIZE 4 4 4 4
TYPE F F F F
COUNT 1 1 1 1
WIDTH 63
HEIGHT 1
VIEWPOINT 0 0 0 1 0 0 0
POINTS 63
DATA ascii
-3.852711 -1.9091721 1.1710701 15
-3.7693701 -2.9832239 1.3325839 15
-3.5542421 -3.4659119 0.081630021 8
-3.5803547 -2.6156998 0.15597013 8
-3.4750648 -3.453599 0.31371045 9
-3.5581346 -2.8082902 0.39159083 10
-3.5434613 -1.1228269 0.40545723 10
-3.0146687 -0.89229381 0.19814552 9
-3.0034361 -1.395262 0.3681455 10
-3.0283356 -1.3093314 0.5200451 11.5
-3.033195 -1.34859 0.69107914 13
-3.097158 -1.1510776 0.79049045 14
-2.9125731 -1.3080993 0.21339537 9
-2.7201166 -3.6213779 0.20222391 8
-2.7114093 -1.6179514 0.34408119 10
-2.6966586 -0.55963331 0.29642522 10
-2.7198656 -3.6955833 0.50854319 10
-2.6965568 -0.54477859 0.43217987 11
-2.7131057 -1.970517 0.64503896 12
-2.0277293 -4.0364099 0.59581941 11
-1.624926 1.1715831 0.39957291 13
-1.4899824 1.2582178 0.34947723 12
-1.4809948 1.4652727 0.38652447 12
-1.4839578 1.4928024 0.44222325 13
-1.511218 2.8077204 0.44669497 11
-1.49931 3.1263385 0.41056955 10
-1.2006649 -3.20502 0.89383823 14
-1.2036506 -3.0471087 0.95417923 15
-1.1462828 -1.4707685 0.54490465 15
-0.22247529 -1.6204222 0.25819385 12
-0.010441919 -1.6400603 0.29594621 12
-0.14431874 -1.6537991 0.45152655 15
0.0026092124 -1.6916778 0.34813172 13
0.25665975 -1.9004551 0.35901433 12
0.23771945 -1.9319131 0.42775771 13
0.32585266 2.7534764 0.52228773 12
0.47339189 5.1564512 0.55004686 10
0.59246486 5.1434751 0.64105356 11
0.79981023 -2.1575351 0.48672527 13
1.095976 1.640968 0.39356512 13
1.103083 1.3395765 0.45391193 14
1.1050524 1.6704564 0.49985269 14
1.1189241 2.3286147 0.50466889 13
1.1267951 2.8951237 0.48433709 11
1.1367964 3.1203942 0.54573947 12
1.3378062 -2.9753935 0.26982722 9
1.3506134 -1.2165293 0.47687185 13
1.4049267 -3.1869209 0.37017238 10
2.3299806 -4.8847795 0.0005178292 6
2.5621436 -4.8711543 0.21349674 7
2.5798922 2.4801035 0.50263149 11
2.6088295 2.4387794 0.41100216 10
2.9329934 -4.8948026 1.3037125 12.5
3.1843054 -0.8844803 0.16391869 7
3.1222901 -0.72004569 0.18681814 9
3.0493958 -0.98607123 0.25451511 8
3.4308903 2.4346902 0.48741031 10
3.6620901 -4.9221077 1.422218 13
4.2748036 2.2339551 0.323531 9
6.1866865 2.0359986 0.12085839 8
6.1888609 2.2732899 0.40833205 9
6.6794224 -4.6074529 1.9311548 13
15.345692 -0.014554899 2.1738746 11
