# .PCD v0.7 - Point Cloud Data file format
VERSION 0.7
FIELDS x y z intensity
SIZE 4 4 4 4
TYPE F F F F
COUNT 1 1 1 1
WIDTH 500
HEIGHT 1
VIEWPOINT 0 0 0 1 0 0 0
POINTS 500
DATA ascii
-4.4740281 -2.981025 1.1823696 13
-4.4425406 -2.5992539 1.1699697 13
-4.4755363 -2.151139 1.0215725 13
-4.5514483 -1.9822493 0.97198033 12.5
-4.5027785 -3.1035435 1.3836658 14.5
-4.4675641 -2.599153 1.4093432 14.5
-4.4574432 -2.2086799 1.3672255 14.6
-4.4543715 -1.8114609 1.3901291 15
-4.461288 -1.4141957 1.3609024 15
-4.477808 -1.0330808 1.3311603 15
-4.2255173 -3.495033 0.19470519 7.75
-4.3512454 -3.0067067 0.2050263 8.333333
-4.3335948 -2.5731797 0.25330913 8.5
-4.3384132 -2.2461941 0.23126021 8.333333
-4.3396778 -1.9133722 0.25830266 8.333333
-4.2946806 3.4237466 0.30980211 8.5
-4.298687 3.5987768 0.2573829 8
-4.1798511 -3.436579 0.5704211 10
-4.3348875 -3.0644011 0.55136728 10
-4.3075337 -2.6036785 0.58792436 10.5
-4.3124924 -2.2731845 0.61404473 10.666667
-4.2231417 -1.7875494 0.62395275 10.857142
-4.2890935 -1.0687444 0.55456918 10.75
-4.2848158 3.0594156 0.61235279 10
-4.2988319 3.4125805 0.50759047 9.6000004
-4.3101797 3.6770883 0.51411223 10
-4.175571 -4.4998598 1.0302578 12
-4.1814618 -3.4659851 0.99730533 12
-4.2793202 -3.1454694 1.157388 13
-4.3427372 -3.1442773 1.3514638 14.5
-3.6503885 -4.0981674 0.36928901 9
-3.7445552 -3.5026133 0.19731008 7.8000002
-3.7620234 -1.3458242 0.27009472 9
-3.8395243 -1.0283552 0.2557424 8.75
-3.7077174 -4.5392151 0.56391782 10
-3.5973251 -4.1131687 0.46918055 9
-3.7979109 -3.4901943 0.57151985 10.2
-3.7944055 -1.3484776 0.57500517 11
-3.8622205 -1.1627741 0.54847634 11
-3.6492796 3.3754988 0.5121032 10
-3.6292529 -4.7503481 0.99167103 12
-3.8427863 -4.3496284 0.99076551 12
-3.7005157 -3.8142567 0.95451927 12
-3.7685063 -3.447535 0.94892472 12
-3.7817945 -1.3911145 0.83078843 13
-3.2930865 -4.167882 0.27253753 8.5
-3.5264151 -3.7632716 0.17860712 7.8333335
-3.540309 -3.4877834 0.11715614 7.6666665
-3.4831257 -1.6885288 0.3017 9.5
-3.5180924 2.4431176 0.38548619 10
-3.3368919 -4.1488471 0.58962297 10
-3.505229 -3.7535992 0.64292586 10.333333
-3.5430253 -3.5466332 0.59538513 10.5
-3.4749019 -2.4717088 0.723966 12
-3.468452 -2.2527773 0.70226783 12
-3.4817686 -1.7467309 0.66062516 12
-3.3459063 3.0620754 0.40815338 10
-3.5140009 -3.4595315 0.92164326 12
-3.5518043 -2.1125133 0.90179497 13
-2.9314456 -4.1112461 0.19303477 8
-3.1365664 -4.1471095 0.57594872 10
-2.8454041 4.9880199 0.56305933 10
-2.3268054 1.466899 0.34965333 11
-2.3449719 2.7234912 0.36572561 10
-2.3472805 2.9491079 0.34626573 9.666667
-2.3534577 3.4412909 0.29767996 9
-2.1793501 4.1277723 0.34510842 9
-2.3216798 1.4155754 0.48296446 12
-2.3406372 2.7055032 0.50658262 11.5
-2.3547156 2.9453626 0.48582542 10.5
-2.1830883 3.9707806 0.46920747 10
-2.1752381 4.0738683 0.44134459 10
-1.8355961 -4.8086648 0.0075609791 7
-1.8911666 -1.2660321 0.34818676 11
-1.6035949 -2.4124045 0.45251912 11
-1.875504 -2.3690851 0.80036664 14
-1.8598089 -1.7763938 0.7635529 15
-1.8852456 -1.4175965 0.47192731 12.666667
-1.8171744 2.5528071 0.52966076 12
-1.6914886 5.0075502 0.42170587 9
-1.9048084 -2.8558576 0.91089988 14
-1.8963228 -2.5668101 0.86763459 14.666667
-1.903739 -2.1707196 0.8687914 15
-1.8979977 -1.9910798 0.82279807 15
-1.541793 -2.3217771 0.2737979 10
-1.4352818 2.6345708 0.53224522 12
-1.5734489 4.9940948 0.4718869 9.5
-0.82672858 1.0323617 -0.017856965 7
-0.85822761 1.3781607 -0.029825216 6.5
-0.94672191 1.6727767 -0.045007627 6
-0.91370815 2.1641634 -0.066118069 6
-0.9595899 -4.8169308 0.22572818 8.1999998
-1.1381685 -2.0116796 0.3585479 11
-0.92764789 -1.7261412 0.2821615 11.142858
-0.91938823 -1.7824265 0.47484675 13.714286
-0.90052754 5.0673075 0.51506919 10
-0.50695556 -0.2078893 -0.0074560479 7
-0.56465459 0.25680646 -0.010186831 6.6666665
-0.6027869 0.64179313 -0.015916793 6.75
-0.60089004 0.98898298 -0.020047598 6.5714288
-0.63325793 1.3702897 -0.027631365 6.75
-0.70329458 1.8124355 -0.052290116 6
-0.65236562 -4.8185277 0.19990499 8.1999998
-0.45450282 -2.5524292 0.23098905 9.5
-0.6400314 -1.8287284 0.34591332 12.125
-0.55974889 -0.22015311 0.0033244321 7
-0.59675735 0.39860681 0.00051888585 7
-0.6304298 -1.7907817 0.43478808 13.5
-0.77322525 -1.1940982 0.43174621 15
-0.62999415 5.1294971 0.59272063 10.333333
-0.015573672 -4.8367991 -0.032157622 7
-0.30916223 0.39520109 -0.018349001 6
-0.17296296 0.6382345 -0.034307037 5.5999999
-0.15055728 0.95262027 -0.020917991 6.5999999
-0.10299511 -4.8274078 0.17928879 8
-0.19273385 -3.5674984 0.26857662 9.1999998
-0.13938744 -1.1022509 0.3366881 15
-0.14602809 1.0301578 0.072105736 9.1111107
-0.031402037 -4.8197279 0.41914156 10
-0.21812119 -3.5315337 0.40941042 10
-0.1751231 -2.3497932 0.5790903 14
-0.34149128 5.1544752 0.61254615 10.333333
0.32042819 -4.8382173 -0.033533879 7
0.3409141 0.37545916 -0.04646828 4.5
0.18443975 0.60670406 -0.045946404 5
0.18578638 0.96916711 -0.032942884 6.0999999
0.15900606 -4.8278751 0.18071495 8
0.27750117 -3.29882 0.25285631 9
0.31071922 -2.9902654 0.26259863 9.5
0.043847278 -2.1569364 0.33110148 11.5
0.34413955 -1.3892262 0.28789616 12.666667
0.14934434 1.0958865 0.10287999 9.6999998
0.023154741 1.2038039 0.031142492 8
0.18861838 -4.8331804 0.42444056 10
0.30711088 -3.3271222 0.41965023 11
0.26924425 -2.125828 0.57528383 14.666667
0.30978897 -1.9109654 0.57028204 15
0.51262134 -1.2043679 -0.0043294788 7
0.54866904 -0.95373631 -0.015178888 6.75
0.54408735 -0.5598616 -0.017988794 6.2857141
0.582573 -0.17993736 -0.046723925 4.7142859
0.59500498 0.030785309 -0.061385997 4
0.68271911 -3.3578377 0.18010421 9
0.60739195 -3.0519857 0.27709836 9.5
0.6498366 -2.6266868 0.033794675 7
0.59738821 -2.1174047 0.031282071 7
0.55665195 -1.7215098 0.15496556 9.4285717
0.58128017 -1.408338 0.26876196 12.076923
0.52949548 -1.086581 0.25753444 12.8
0.50388491 -0.52984154 0.00038076082 7
0.49285826 -3.2605336 0.42488486 11
0.55997145 -2.1731815 0.56873071 14
0.72695708 -1.331777 0.42836076 15
0.81285769 -0.67145419 -0.01692968 6.5
0.93789202 -0.30734935 -0.015586585 7
1.030212 0.12664041 -0.034380965 6
1.1565112 -4.8387632 0.15526973 8
1.0615233 -2.8344297 0.024997735 7
1.1533713 -1.9958816 0.011447751 7
0.86594254 -1.4293156 0.26856029 11.6
1.1916395 -4.8379006 0.45752668 10
1.127264 -1.7739631 0.54401755 14
0.87822157 -1.500736 0.51970053 15
1.1618592 0.9979291 0.43759778 15
1.098042 -4.8068595 1.4937515 15
1.4505033 0.20708679 -0.031619545 6
1.3397981 -4.8801675 0.17673169 8
1.3836555 -1.8803544 0.34872514 11
1.5388151 0.99603301 0.32786095 12
1.3056333 -4.8313975 0.4632799 10
1.4082026 -2.1449475 0.49207625 12
1.3239931 -1.8180166 0.55504096 14
1.5518519 1.012393 0.4637897 14
1.4763535 2.641206 0.47332945 11.5
1.3508343 2.9829991 0.47894794 11.2
1.2579542 3.2073197 0.52217013 11
1.3714049 5.2592568 0.56088448 10
1.3645554 -4.8149176 1.498666 15
1.8665184 -0.67293423 -0.0048828777 7
1.7628665 2.4810817 0.39400369 11
1.9604944 -3.1318409 0.75144982 13
1.9685656 -1.7730974 0.6154604 13.5
1.9785306 -1.4957355 0.62088418 14
1.9999558 -1.1073377 0.5162949 13
1.8950253 2.3785772 0.44636387 11
1.7828444 2.5191367 0.46077836 11
1.7984622 5.2622032 0.50827563 10
1.7620741 -4.8236809 1.515002 15
2.2505436 -4.9891653 0.20581415 8
2.309087 -3.7780905 0.20638059 8.5
2.2929082 -3.5869458 0.30253869 9
2.2730639 -1.2490073 0.37860259 11
2.2167246 -0.96330166 0.24054781 10
2.282613 -0.68157327 0.27830064 10.5
2.1674137 2.4349561 0.35899273 10
2.1884215 -4.9542642 0.56945539 10
2.3029768 -3.846796 0.50689977 10.5
2.2299562 -3.5542305 0.51502079 11
2.1792614 -2.993185 0.63760364 12
2.1640337 -1.9000026 0.62606198 13.333333
2.0968821 -1.3575314 0.55762798 13.333333
2.1652346 -0.99900597 0.4947668 13
2.2955737 -0.66129708 0.54253793 13.5
2.0210183 2.3769965 0.42461124 11
2.252914 2.4612932 0.44219443 11
2.0544922 -3.0932996 0.86717504 13.666667
2.1677613 -1.6517978 0.80208993 15
2.7954385 -4.8571773 -0.075553872 7
2.763653 0.45691377 -0.070570596 6
2.5296476 -4.8553052 0.18590647 7.8000002
2.5093958 -0.91548347 0.19170922 9
2.6110237 -0.65812904 0.33725613 11
2.7060175 2.3520629 0.34213203 9.5
2.5716028 2.6612675 0.33669123 10
2.6416583 -4.8542461 0.44697902 9.333333
2.7276208 -3.2410414 0.70458996 12
2.6075678 -3.0019183 0.54682118 11
2.4764538 -1.8749522 0.69572443 13
2.4105141 -0.97460353 0.49965149 13
2.5571673 -0.62402689 0.58505678 13.444445
2.7145743 2.3387358 0.43394178 10.5
2.5366595 2.46012 0.42778444 10.5
2.5978758 -4.8447766 0.98467273 12
2.7095389 -3.1452162 0.81184477 13
2.947454 -4.8690085 -0.076062903 7
2.9421031 -1.620899 0.1623954 8.5
2.9083643 0.96976161 0.35561413 10.5
2.9730756 2.2978685 0.30992237 9.333333
2.8077004 -4.8535933 0.54634148 10
2.8325891 -3.2154477 0.71063626 12
2.8382533 -3.0104244 0.56412566 11
3.2004628 -1.6133362 0.72634763 13
2.993783 -1.5006614 0.65847033 12.5
2.8735604 -1.0156951 0.4778038 11.5
2.9039207 0.98624855 0.54041994 12
2.892617 2.3029785 0.42121509 10
3.0711424 -4.8361254 1.6320884 15
3.2121179 -1.8184842 0.30648085 9
3.2877798 2.3347123 0.31678209 9.5
3.3973303 -3.4304848 0.60379207 11
3.4970129 -2.9195435 0.67223197 11.333333
3.408742 -2.6162229 0.58138293 10.666667
3.362736 -2.1784174 0.4838959 10.5
3.390383 -1.6391779 0.4582139 11
3.4937584 -1.5291455 0.53159189 11
3.2990966 2.3185313 0.42184392 10
3.449589 -4.8640766 1.0298556 12
3.5350306 -3.482429 0.9107002 12
3.5594456 -3.0470307 0.8962099 12.5
3.4705095 -4.8480186 1.2839265 13
3.4424355 -4.8520637 1.6825764 15
3.6517642 -4.5387831 0.15599358 8
3.6030231 2.3543975 0.36152643 9
3.6980331 2.3597825 0.40140238 10
3.7534175 -4.8686604 1.0042784 11.666667
3.7695358 -4.8556757 1.3213543 13
3.8332205 -4.8596973 1.7395937 15
4.2543263 0.96238571 0.24313471 8.5
4.3223062 -1.5610064 0.52148306 10.5
4.2823563 0.94697905 0.65238416 11
4.3061919 0.94853795 1.0517629 14
4.1975408 -4.8688879 1.2892914 12.5
4.2027459 -4.8596964 1.7977967 15
4.4510584 -1.7099394 0.64697933 11
4.5372725 -4.8803334 1.0175176 11.666667
4.6363378 -4.8705401 1.3953499 12.75
4.6047797 -4.8624587 1.8667265 15
5.0645547 4.9181232 0.23268773 8
5.1732416 1.0336673 0.55550337 10
5.0219474 -4.9119563 0.93686783 11
5.1814041 1.0120534 0.96590447 12.333333
5.0842862 -4.8766747 1.449577 12.666667
5.1802454 -4.6100445 1.4042839 13
5.053833 -4.8750753 1.9510601 15
5.1939559 -4.6650681 1.7256669 14.333333
5.4656777 0.97068185 -0.1503675 6
5.4055119 1.8687173 -0.010351067 7
5.5482373 0.94983375 0.14392464 7.5
5.3923998 1.8872354 0.25357208 8.3999996
5.3582067 2.2872143 0.18972038 8
5.3617353 2.6115987 0.25280914 8.1999998
5.3737173 3.0218337 0.21930525 8
5.3697858 3.2703326 0.31683221 8.5
5.5870509 -1.3959639 0.43588734 9
5.4379797 0.95294929 0.56781459 10
5.599515 -4.5077457 1.1826925 12
5.2111354 0.97935247 1.0146559 12.5
5.264677 -4.4974718 1.5950849 14
5.403832 0.94685483 1.3697064 14
5.3877606 -4.4927945 1.8060906 14.5
5.9959974 -1.5142763 -0.057062715 7
5.9524517 -1.4301888 0.097139344 7.5
5.9706001 -1.092284 0.32723963 9
5.9845376 -0.99156636 0.49449301 9
5.6143651 0.92950672 1.394686 13.5
5.7692294 -4.4929862 1.7302992 14
5.7118292 -4.4686589 2.0374551 15
6.2276387 -1.2768103 -0.15698624 6
6.141973 -1.1298809 -0.085833184 6.5
6.0611982 -1.2963498 0.15612397 7.8000002
6.0394559 -1.0272454 0.19234924 8
6.2094216 -0.9598819 0.61313325 10
6.2027259 -1.0188265 0.84814554 11
6.6591163 -1.6543683 -0.21636906 6
6.5047979 0.96127594 0.16764246 8
6.6394935 -1.7023219 0.51516318 9
6.5290918 0.91623008 0.71265543 10
6.5381403 0.96006036 0.96319997 11
6.5283084 0.94907504 1.3214675 13
6.564507 0.91797042 1.6883614 14
7.1768274 0.90603381 0.064896472 7.5
6.9781446 -4.9208813 1.3657401 12
7.1962819 0.93045646 1.1989665 12
7.0774059 -4.8522453 2.1883163 14.5
7.2729106 0.80579227 -0.055023801 7
7.3686347 -1.8945265 0.24578726 8
7.4149656 0.78366619 0.0046734968 7
7.2481027 1.1193789 0.20087564 8
7.2856455 1.4326559 0.10920157 7.5
7.3391209 0.80527639 0.43439609 9
7.2363453 0.9498269 0.6294992 9.333333
7.3023682 1.0395032 0.96125007 10.666667
7.3161683 -4.9238334 1.410511 12
7.2612457 0.99499154 1.3159969 12
7.3088012 -4.9056897 1.7778298 12.5
7.2964349 0.9349128 1.8625901 14.25
7.4324374 -4.9070787 2.091346 14
7.316359 -4.7548008 2.1729627 14
7.3952894 -3.2079146 2.3587241 15
7.388875 -2.8992326 2.3506265 15
7.4305038 -2.6175818 2.3583791 15
7.3411899 -2.390079 2.3334901 15
7.4589014 0.7782473 2.1715856 15
7.280467 1.1063691 2.1800354 15
7.3699093 1.480092 2.0387106 15
7.5385814 -4.889492 2.4811938 15
7.6922054 -4.9355149 1.4612572 12
7.7934852 -4.9150286 2.1778047 14
7.9639559 0.71486074 2.1011949 14
7.9216218 -4.8899488 2.5725722 15
8.3668833 -1.977897 0.56350714 9
8.3631954 -2.0938873 0.93227488 10
8.3599443 -1.899062 0.95375693 10
8.2331944 -4.9034629 1.5353111 12
8.0503178 -4.9191747 1.7722411 12
8.0094261 -4.9171171 2.0303681 13
8.2053576 -4.6745658 2.6270854 15
8.5522642 -2.2030656 0.75380921 10
8.4044819 -3.0361948 1.0039481 10
8.7296762 -4.8225207 1.7421997 12
8.4204302 -4.8239713 2.3314455 14
8.6035862 -4.891531 2.4843497 14
8.4338951 -0.63557565 2.4296007 15
8.89009 0.6151371 2.1027248 14
8.9703779 -4.6643391 2.704922 14.5
9.4643393 -4.9550252 1.7086645 12
9.2753372 -3.2803266 2.2441306 13
9.322072 -3.0770485 2.2545156 14
9.5367327 0.8626675 2.0365057 13
9.4292812 -3.1568716 2.4916015 14
9.3914747 -4.6660686 2.9200163 15
9.4062262 0.75716418 2.8598733 15
9.6960115 0.65488923 2.0405655 13
9.624815 -3.4954956 2.6873536 14
10.10521 -3.2218046 2.1268082 13
10.380564 -1.1077884 2.5155444 14
10.381113 -4.1291275 2.966054 14.666667
10.193497 -3.1204312 3.1079507 15
10.397677 -2.551712 2.962878 15
10.011065 -2.0530779 3.0836723 15
10.371224 -1.0382493 3.1081383 15
10.66579 -0.58160204 2.3481717 13
10.60717 -0.10850765 2.3710117 13
10.479701 0.2450836 2.3734374 13
10.431396 0.47639322 2.3842371 13
10.691595 0.95660114 2.0048492 12
10.444209 -2.2544427 2.7952354 14
10.458683 -1.7385402 2.5849817 14
10.413974 -1.3798966 2.6257393 14
10.406274 -0.88591433 2.5301991 14
10.433032 -0.65185422 2.6943874 14
10.417297 -0.12120312 2.6287904 14
10.42145 0.1579687 2.6817594 14.5
10.436869 0.57354558 2.618551 14
10.427401 -4.5832033 3.0039349 14
10.423988 -4.3216376 2.85619 14
10.417072 -3.5624621 3.0756657 15
10.409445 -3.0786858 3.1148725 15
10.420525 -1.6920156 2.942143 15
10.43061 -1.4059474 2.8628163 15
10.417645 -1.0476732 2.8944454 15
10.427044 -0.57857674 2.946981 15
10.444595 -0.22658536 2.9934468 15
10.451964 0.22498621 2.9240079 15
10.470313 0.69084847 2.8572927 15
10.887302 -0.96004003 2.3648539 13
11.425367 1.1122957 1.9577216 12
11.484056 -0.82610613 2.2043853 12
11.870987 0.64235377 1.9420844 12
11.645675 0.87986326 1.949707 12
11.763448 -2.6460934 2.1312978 12
11.745891 -2.2205219 2.1519077 12
11.950727 -0.64299965 2.0106416 12
11.777985 -0.074131563 2.044091 12
11.771626 0.20643044 2.0728922 12
11.808265 0.48819712 2.1088643 12
12.218932 3.8663442 0.16005597 7
12.139807 -2.636137 0.66623122 9
12.120668 -2.3805926 1.136218 10
12.108447 -2.5102651 1.384486 10.5
12.141642 -2.2211626 1.5684025 11
12.157429 -2.7157311 1.8693455 11
12.167318 0.39405271 1.9411764 12
12.198916 -1.4492399 2.2758765 12
12.17184 -1.0553098 2.153677 12
12.71302 -0.13588834 1.9313391 11
12.636394 -1.8965205 1.9970645 12
12.432946 -1.5621507 1.9952024 12
12.949387 -0.41345486 1.9219012 11
13.535187 -1.0184019 1.9080313 11
13.236778 -0.7102955 1.9141381 11
13.461985 1.3740001 1.8722479 11
13.754687 -2.121423 -0.35241625 6
13.853915 -2.0792229 0.30933815 8
13.88362 -1.3450301 1.905705 11
13.77635 1.0981637 1.8659946 11
14.15677 -2.0995524 -0.095182702 7
14.22308 -1.6912873 1.8990023 11
14.093732 0.80954504 1.8571907 11
14.154121 -1.764388 2.9387698 13
14.737598 -2.12063 -0.5573706 6
14.489424 -2.0701134 1.5268145 10
14.529137 0.50674003 1.8586932 11
15.119835 -4.276 0.29750255 8
14.976563 0.1859609 1.8590286 11
15.130347 -0.075596489 2.8769455 12
14.81588 0.26896241 2.8562326 13
15.570419 -1.3145068 -0.8101626 6
15.54058 -2.0584044 -0.41335437 6
15.51626 -1.8700947 -0.57193524 6
15.553786 -1.5027406 -0.5357151 6
15.558307 -1.1295937 -0.49776965 6
15.572223 -0.58039701 -0.53865236 6
15.562037 -0.2387435 -0.69352251 6
15.561111 0.48037228 -0.61788148 6
15.4719 1.4081042 -0.56084597 6
15.552344 -1.7768229 -0.083778031 7
15.574652 -1.2369204 -0.025229886 7
15.569313 -1.0564482 -0.25225264 7
15.575866 -0.70760477 -0.21321027 7
15.586922 -0.014810927 -0.26161993 6.5
15.58541 0.34065089 -0.35271657 6
15.58898 1.4505095 -0.24305147 7
15.569828 -2.0032454 0.34065619 8
15.559471 -1.7555795 0.27886975 7.5
15.577439 -1.0262229 0.13615516 7.5
15.590768 -0.50170338 0.19688247 7.5
15.587264 -0.15652402 0.094978236 7
15.591675 -1.7606286 0.73452395 8
15.582932 -1.303418 0.4260498 8
15.584483 -0.95108891 0.46954453 8
15.600034 -0.59973389 0.51291353 8
15.584295 -1.8128169 0.85816944 9
15.594843 -1.4581308 0.89892125 9
15.202815 -0.43181294 2.8581195 12
15.609412 1.0221405 -0.56617445 6
15.661171 3.4993784 -0.42711613 6
15.601501 0.70152682 -0.18783395 6.5
15.609454 1.0813674 -0.28052872 7
15.665293 3.4657993 -0.24885651 7
15.614036 3.7315309 -0.022382703 7
15.601802 0.20337062 0.13434134 7
15.61035 0.55444181 0.1716368 7
15.612888 0.91332769 0.21088545 7
15.621421 1.2771857 0.2507301 8
15.607585 -0.25037533 0.55604655 8
15.607543 0.14142358 0.50609541 8
15.622478 0.61586934 0.66050059 8
15.633431 1.0075457 0.60750657 8
15.640354 1.493912 0.76738286 8
15.608741 -0.98336059 0.97127557 9
15.610692 -0.56225544 0.99989742 9
15.626554 -0.063707545 1.0630311 9
15.631078 0.30721438 1.1027226 9
15.642138 0.59522164 0.96974134 9
15.645122 1.0501776 1.1812307 9
15.612882 -1.6841724 1.4538394 10
15.616313 -1.2680523 1.4194096 10
15.617737 -0.84245086 1.398212 10
15.634502 -0.62316161 1.5344365 10
15.637821 -0.12910908 1.4801948 10
15.652365 0.22744805 1.5221775 10
15.655908 0.58399051 1.5641644 10
15.650202 0.9966777 1.1989498 9
15.660645 1.4219871 1.2220302 9
15.614244 -1.8901734 1.6586481 10
15.622798 -1.5418062 1.701661 10
15.666376 0.24632072 1.6080463 10
15.665841 1.0350405 1.645244 10
15.678376 1.3975943 1.6834178 10
