# .PCD v0.7 - Point Cloud Data file format
VERSION 0.7
FIELDS x y z intensity
SIZE 4 4 4 4
TYPE F F F F
COUNT 1 1 1 1
WIDTH 53
HEIGHT 1
VIEWPOINT 0 0 0 1 0 0 0
POINTS 53
DATA ascii
-5.4771948 -2.4221876 1.2104036 13
-5.4267168 -1.2756923 1.5430255 15
-5.4447412 -1.8306155 1.6674936 15
-5.3268108 -3.1708879 0.26278415 8
-5.2095356 3.6447072 0.23455179 8
-5.3531451 -2.7833867 0.59056818 10
-5.2810631 -3.3861277 0.75349569 10
-4.8099918 -1.1822118 0.19086222 8
-4.7926722 -1.2723067 0.40358734 9
-4.5172434 -3.5797005 0.17135203 8
-3.2673733 2.9637969 0.34181651 9
-2.8988447 -1.5018423 0.9601813 15
-2.5962527 -4.7916713 0.27200228 8
-1.8008311 -1.7481482 0.51033521 13
-1.7548295 -1.7762035 0.45956382 12
-1.4468746 -1.8436041 0.27888006 10
-0.49341249 -4.8283248 0.0085788639 7
-0.42184788 -1.226684 0.27064723 13
-0.57568812 1.2974778 0.41911167 15
-0.55516493 1.5941501 0.40652335 14
-0.54399985 2.1400363 0.43205941 13
-0.34423092 -4.8338938 0.21524729 8
-0.30476776 -1.2474641 0.32744864 14
-0.11137509 -1.4749525 0.37032121 14
-0.13169944 -1.3102379 0.29049018 13
-0.033073805 1.128994 0.21287258 12
-0.17641087 -1.4207199 0.42930549 15
0.12692453 1.0616904 0.24436961 13
0.20212242 1.0097424 -0.032414217 6
0.31366765 1.0305865 0.055388652 8.5
0.27944246 0.97434592 0.21238157 13
0.25921375 1.001815 0.29161802 15
0.5455364 -4.8283243 -0.053927764 7
0.98474151 -2.8557572 0.30741787 10
0.95864069 -3.1479805 0.83424461 14
1.079825 0.98488307 0.4421638 15
1.3323637 -0.68480074 0.3422623 14
1.2548308 0.97293508 0.42644191 15
1.507494 2.4725251 0.44789824 11
1.8757434 2.3049598 0.43033317 11
2.0837009 2.2823079 0.3367357 10
2.353687 2.3245535 0.39896742 11
2.698698 2.2941444 0.35465634 10
3.3012967 0.95208895 0.94157052 15
4.4169378 2.0540042 0.18694764 8
4.4457273 3.4547305 0.17354304 8
4.4230084 2.0810187 0.32214895 9
4.4266758 2.9111707 0.2872957 9
5.1528411 -1.0715688 0.17989643 8
5.2057152 -1.0756408 0.02222061 7
9.4397326 -2.2553644 2.6062472 15
14.635084 -0.55709422 0.22215678 8
14.684468 -0.10893751 1.5261505 10
