# .PCD v0.7 - Point Cloud Data file format
VERSION 0.7
FIELDS x y z intensity
SIZE 4 4 4 4
TYPE F F F F
COUNT 1 1 1 1
WIDTH 502
HEIGHT 1
VIEWPOINT 0 0 0 1 0 0 0
POINTS 502
DATA ascii
-5.30408 -3.3411548 0.21956255 8
-5.3178082 -3.0037024 0.1795278 7.6666665
-5.3208785 -2.5501239 0.15180905 7.5
-5.3098526 -2.2384531 0.16924237 7.6666665
-5.2932773 -1.8009536 0.28343269 8.666667
-5.2457314 3.1871505 0.33653516 9
-5.2250285 3.3675001 0.31965411 8.666667
-5.331399 -3.3998115 0.72436565 10.333333
-5.3278337 -2.9975128 0.5602687 9.666667
-5.31604 -2.5921819 0.62794405 10
-5.3070674 -2.1816859 0.61726028 10
-5.2877564 -1.7749568 0.70683622 10.5
-5.2187996 3.052202 0.59974313 10
-5.235106 3.3840115 0.55844283 9.75
-5.2104611 3.7348828 0.49321121 9
-5.3963008 -3.0971787 1.0120718 12
-5.527462 -2.157048 0.98793501 12
-5.4689775 -2.5896211 1.4546041 13.5
-5.4617038 -2.1622221 1.4881809 14
-5.4698567 -1.7818224 1.4724581 14.25
-5.4506087 -1.3792143 1.4768445 14.333333
-5.4505658 -1.0548328 1.5404767 15
-5.4787207 -2.609338 1.7244447 15
-5.4675879 -2.2048352 1.7467785 15
-5.4531808 -1.841879 1.7190241 15
-5.4402618 -1.4878008 1.689697 15
-5.4501629 -0.95554656 1.6108711 15
-4.9359899 -3.4687064 0.20470825 8
-4.8078389 -1.2560655 0.2353369 8
-4.8319201 -1.1299728 0.37546784 9
-5.2022548 3.4598522 0.22232203 8
-4.9562922 -3.4976828 0.66769063 10.333333
-4.8128214 -1.2739583 0.62164575 10.5
-4.8422236 -1.137648 0.59765798 10
-5.2002449 3.6401105 0.57343012 10
-4.8040318 -1.4371775 0.86014253 12
-4.5837121 -3.4213824 0.20663024 8
-4.4607019 -1.6427941 0.27042994 8.5
-4.6760979 -1.4012681 0.25008932 8.333333
-4.7742128 -1.0049872 0.25853333 9
-4.4104261 3.0143664 0.37628245 9
-4.5926795 -3.6708302 0.67547756 10.666667
-4.5963345 -3.4368377 0.6310966 10.25
-4.50317 -2.9937179 0.76225406 11
-4.4702611 -2.6172466 0.76255089 11
-4.469698 -2.1302555 0.75640118 11
-4.5151911 -1.6811165 0.68981415 11.4
-4.7345085 -1.2838581 0.5794102 10.5
-4.5395045 3.4441998 0.49171183 9.5
-4.5694551 5.0441613 0.5648458 9
-4.5244584 -3.6842892 0.91317362 11
-4.7896981 -3.5177596 0.94058055 12
-4.4824209 -2.4927049 0.80503142 11
-4.5049119 -2.2570033 0.85899836 12
-4.2148738 3.3005817 0.37736234 9
-3.6839383 -4.0532713 0.84262949 11
-3.2670062 2.7190456 0.32085922 9
-3.2742133 2.8554504 0.32976356 9
-3.2706015 2.7455285 0.45617419 10
-3.2672281 2.9261644 0.4450531 10
-2.9485259 -4.6139479 0.2807036 9
-2.8425491 -4.7958727 0.50845104 9.5
-2.8800163 -2.1135292 1.0003754 14.5
-2.8807931 -1.7831901 0.93136734 14.6
-2.8768115 -1.5575291 0.89602947 14.5
-2.439131 -4.8057928 0.39100769 9
-2.752243 -4.7979922 0.27240694 8
-2.3941126 -4.8096242 0.40661561 9
-2.698123 -4.7906542 0.42935982 9
-2.7186294 -4.1451025 0.43824208 9.5
-2.515177 -4.7614117 1.6172221 15
-2.170228 -4.8079996 0.27060366 9
-2.3022151 -2.6052878 0.23674406 9
-2.1411092 -4.8079591 0.41260055 9
-2.3132248 -4.6598978 0.55251098 10
-2.3691192 -3.9849877 0.75181466 12
-2.0541346 -2.5870359 0.66677117 13
-2.0191967 -4.7732344 1.5709689 15
-1.7812511 -1.737528 0.32752156 10.5
-1.7325099 -2.9241717 0.48035967 11.25
-1.9412421 -2.6802161 0.66196465 13
-1.7778288 -1.8108125 0.52852267 13
-1.7847041 -1.2036952 0.48935992 13
-1.4553107 -2.5526762 0.22006217 9
-1.3715206 -2.0320947 0.34772918 11
-1.4442341 -1.8668053 0.32373869 10.6
-1.392501 -2.0041347 0.42465186 12
-1.4846601 -1.9256516 0.48197222 12.5
-1.2069732 -1.0636302 0.42910993 15
-0.9008106 0.33729365 -0.022206923 6
-0.83131963 1.0503901 -0.025935574 6.3333335
-0.83105159 1.4616519 -0.024187768 6.5
-0.87147731 1.9730309 -0.041349728 6
-0.8806774 2.6963863 -0.053003591 6.5
-0.95527518 -2.1664581 0.3895179 12
-1.0700686 -1.0275245 0.38195464 14
-0.87880355 1.1730266 0.001847594 7
-0.84991437 1.4743342 0.011402396 7
-0.87451553 1.959631 0.0080395779 7
-0.92968845 -2.149461 0.52449834 13.5
-1.1344967 -1.0427524 0.44061884 15
-0.59113812 0.21791944 -0.022308972 6
-0.5305379 0.62944776 -0.042027149 5.5999999
-0.57117695 0.97142857 -0.035109092 6
-0.73254335 1.35137 -0.05242306 6
-0.78694284 1.866999 -0.11230939 5
-0.55599433 -1.3705834 0.30573919 13
-0.55671215 1.2987552 0.39205053 15
-0.58095253 -1.2486488 0.40489495 15
-0.55497384 1.4865996 0.43249872 15
-0.55019009 1.7393435 0.44988218 14.333333
-0.54442364 2.1073787 0.46203175 13.333333
-0.53262621 2.5630324 0.47853124 12.5
-0.52231896 3.0060244 0.48133421 11.5
-0.51406097 3.4837701 0.49034518 11
-0.50364947 3.8675039 0.50740504 11
-0.49421042 4.2226148 0.50288337 10
-0.4994694 4.4205885 0.56504101 11
-0.4851639 4.8414164 0.52512884 10
-0.096901767 -4.8410201 -0.0024237549 7
-0.3262665 0.39309937 -0.041312426 5
-0.17887926 0.59855694 -0.051921807 4.5714288
-0.21478869 0.97853553 -0.034990866 6
-0.18918677 -4.8362579 0.2067212 8.1428576
-0.23464888 -3.2444575 0.30845672 10
-0.27429521 -3.0843573 0.36686525 10.666667
-0.19440724 -1.3963104 0.34796968 14
-0.35763064 -1.1708227 0.33649445 14.5
-0.15200099 1.1076887 0.09920878 9.4444447
-0.17602871 -4.8258204 0.47188938 10
-0.25834906 -3.3568172 0.45474625 11
-0.2977522 -3.1017475 0.4523105 11
-0.10146838 -2.3546391 0.60030007 14
-0.12029873 -1.4929919 0.42791802 15
-0.2127032 -4.8132091 1.0349884 13
0.1286153 -4.8545833 -0.0083195874 7
0.37015721 0.35833189 -0.047612 4.5
0.25208384 0.56033409 -0.054166026 4.375
0.19840702 0.97551638 -0.044735618 5.8888888
0.19389538 -4.8418255 0.23022446 8.3999996
0.021230528 -3.1387239 0.36190811 10
0.2242616 -2.5243263 0.35622784 11
0.39623657 -1.8894478 0.32232842 11.5
0.21053579 1.025026 0.1613626 11.277778
0.18601927 -4.8276868 0.52518106 10.25
0.16794819 -2.4381058 0.54261672 13.333333
0.36953849 -1.9620056 0.54778981 15
0.20317353 -4.8141046 1.0349576 13
0.58310485 -4.853168 -0.018687123 7
0.57726163 -0.88450342 -0.011233839 7
0.55495572 -0.56573361 -0.019336434 6.375
0.58217692 -0.19993484 -0.048854578 4.8461537
0.5709101 0.022809077 -0.064081185 4
0.56381166 -4.8432198 0.14704944 7.8333335
0.78793889 -4.3412395 0.12279889 8
0.61436164 -2.4958119 0.072679229 8
0.5324685 -1.7617832 0.18870538 10
0.58518207 -1.3623194 0.029315218 7.8000002
0.47238371 -0.93260717 0.0087313913 7
0.54571712 -4.8383007 0.50147384 9.8000002
0.40941399 -1.8865595 0.54073232 15
0.60087776 2.550616 0.45748997 12
0.59259695 -4.8201041 1.0309813 13
0.71878648 -4.8117709 1.4728637 15
1.0440795 -4.8408823 -0.02724665 7
0.98947942 -0.85154957 -0.019801967 7
0.84752238 -0.34495112 -0.015453909 7
1.0345591 0.09822806 -0.046381228 6
0.9740963 -4.8483367 0.17790811 8.1999998
1.2023073 -3.7330933 0.2300327 9
1.0355898 -2.9341691 0.29856718 9.8000002
1.0120414 -2.1124721 0.056908138 8
1.0409375 -1.8342608 0.2272172 10.4
1.0010334 -1.3373491 0.19441926 10.8
1.0036649 -4.8384786 0.55836254 10.2
0.94860828 -3.2369535 0.6281181 12
1.0595599 -2.9924729 0.62970722 12.833333
0.98861945 -1.8015053 0.51471621 14
1.1450822 0.97689742 0.4360975 15
0.99627572 2.3914077 0.43360233 12
1.1865683 2.4075038 0.41520384 11
1.0016264 -4.8282342 0.95026106 12.5
1.1394676 -3.0320518 0.84401208 14
1.004284 -4.8115196 1.4700831 15
1.3425882 -4.8496833 -0.034153763 7
1.2160478 -0.90693426 -0.015578368 7
1.2607576 0.13146774 -0.071196482 5
1.3676729 -4.8562651 0.17466848 8
1.4749695 -3.6107359 0.056967027 7.5
1.3262019 -1.3581675 0.074723013 8.5
1.402549 -1.0047184 0.18550877 10.333333
1.4127493 -0.68414253 0.33327582 13
1.4149908 -4.8506975 0.44560301 10
1.4998155 -3.9267035 0.77502483 12
1.3916487 -2.9526916 0.61083013 12
1.3527228 -2.035044 0.47282103 13
1.3364015 -1.9769828 0.41102338 12
1.5051367 -1.3909312 0.53895056 14
1.4311314 -1.0764261 0.52558827 15
1.4779141 -0.68476963 0.43587485 14.666667
1.288339 0.97509414 0.4402658 14.5
1.4174854 2.4738684 0.43984255 11.5
1.2939045 -4.8302717 0.97976536 12.5
1.5847428 -3.9339571 0.97400153 13.5
1.3852975 -4.8172884 1.4745369 15
1.7156041 -4.8641448 -0.043330833 7
1.6684968 -3.6815805 0.11451427 8
1.8710424 -1.8461344 0.2879701 10.333333
1.922781 -1.3351372 0.1484378 9
1.655401 -0.9360711 0.18082502 9.8000002
1.9677625 0.97045267 0.33878878 11
1.8118773 2.3427386 0.36268494 10.5
1.6055342 2.4129865 0.38320377 11
1.98218 -1.639197 0.72205585 15
1.9406867 -1.4926047 0.64691001 14.4
1.7360989 -1.0475402 0.54034293 14.5
1.6767077 -0.6833564 0.45766526 14.5
1.9681321 0.98258609 0.50544035 13.5
1.830536 2.3281651 0.42528799 11
1.6584915 2.4706218 0.44046322 11
1.7009569 -3.9206443 0.95551085 13.666667
1.6837016 -3.2000442 0.80707753 13
1.7424401 -3.0908351 0.84914684 13.5
1.8175765 -4.8260827 1.492171 15
2.1500511 -4.4991293 -0.020401428 7
2.0745244 0.25747475 -0.065263592 6
2.0514598 -4.6098938 0.26060355 9
2.2500155 -1.2573472 0.22984898 9.5
2.1521227 2.3297782 0.33231837 10
2.3881752 -2.2132239 0.5340569 12
2.2931755 -1.7524015 0.50361276 12
2.0827091 -1.4605516 0.64302558 14.25
2.1674657 2.3125288 0.41080204 11
2.2694991 2.4516206 0.41337144 11
2.2450399 -4.8808641 1.0454626 12.666667
2.3911185 -1.5295762 0.85371304 15
2.2076187 -4.8379073 1.5198072 15
2.6694465 -3.2587972 0.088440627 8
2.5952404 2.3147199 0.34356219 9.666667
2.4552791 -3.3209751 0.67083222 12
2.4158421 -2.4770503 0.53796673 11.5
2.4089975 -2.2627721 0.52755618 12
2.4192486 -1.7858367 0.52765405 12
2.7936223 -4.8568749 1.1872976 13
2.5805414 -3.0051293 0.98075354 14
2.5163953 -4.8405066 1.5451139 15
2.8675354 -3.5470166 0.11453867 8
2.9215639 -4.8545384 1.1214733 12.5
3.1237075 -4.8771658 1.2509904 13
3.4397523 -2.0160997 0.085409738 8
3.3347905 0.91810989 0.27164748 9.5
3.2331052 -1.066717 0.50879681 11
3.3363426 0.93263406 0.56046307 12
3.3276691 -3.0896969 0.97281045 13
3.3303328 0.93925548 0.96064138 14.5
3.3616545 -4.8475566 1.2422305 13
3.8389752 -4.9348345 0.16475433 8
3.9412849 -4.9012494 1.894908 15
4.3761516 0.60793322 -0.15055469 6
4.3049812 -1.9054466 0.19327275 8.5
4.2416897 1.0080508 0.3178266 9
4.2766266 -1.9662042 0.55624938 10.5
4.2342525 1.0072063 0.59198338 11
4.2302804 1.0304676 1.0340086 13.833333
4.0993729 -4.9038405 1.3963498 13
4.2471871 -4.5380812 1.382898 13.4
4.1997166 1.0100158 1.2530841 15
4.0520964 -4.8634124 1.7412199 15
4.2106781 -4.6016994 1.7306532 15
4.7173791 -1.3276792 0.34385282 9
4.5753884 0.89674002 0.14659356 8
4.4739728 1.4236237 0.24062832 8.666667
4.4654179 1.7773787 0.2418372 8.3999996
4.4135103 2.202806 0.25387508 8.5
4.4322743 2.5872238 0.19542338 8.5
4.4378939 2.9980986 0.2322972 8.3999996
4.4457812 3.3655984 0.27090421 8.666667
4.4694729 3.6640625 0.26297751 8.5
4.6409345 -1.5861343 0.52327448 10
4.6190195 0.89701146 0.50398654 10.5
4.5647407 -4.4868512 1.4229977 13.5
4.6081071 0.94483244 1.2974327 14.5
4.6010208 -4.4755101 1.7803901 15
4.9126897 -1.7310441 -0.042423483 7
4.9266453 -1.6518173 0.052481607 7.5
4.9727454 -1.3777224 0.21822987 8.25
5.0508327 -1.0946932 0.24761865 8.1999998
4.9908504 -2.3293943 0.68372297 11
5.1249413 -1.0480214 0.54386312 10
4.9693103 -4.4932876 1.493825 13.5
5.5225477 -1.6289049 -0.021664539 7
5.3428621 -1.4324464 -0.074337088 6.6666665
5.5678282 0.86668265 0.21581636 8
5.5711207 0.88426375 0.59900856 10
5.5954428 0.91757983 1.046862 12
5.5939946 -4.8877773 1.5694987 13
5.5883679 -4.8865848 2.0188804 15
5.8702388 -2.2758029 0.78633684 11
5.91573 -2.5330286 0.89023829 11
5.7988653 -4.9002562 1.3915153 12
5.8218989 -4.8948598 1.7416574 13.75
6.3869729 -2.641911 -0.22228344 6
6.1259046 -1.9207828 -0.14561927 6.5
6.3547621 0.76716208 -0.05182638 7
6.2789531 0.96929634 -0.041723292 7
6.1675091 -2.7456245 0.22574493 8
6.2898798 0.77379966 0.10113497 8
6.2933025 1.012875 0.21930827 8.1999998
6.3581409 1.4830302 0.15101334 7.6666665
6.3402886 0.78564537 0.6131863 10
6.2575235 0.99956262 0.52917439 9.5
6.3133965 0.99544722 0.98727679 11.5
6.2592487 1.0296459 1.3476678 13.25
6.2254934 -4.8995004 1.7453845 13.333333
6.3019009 1.0171608 1.6822641 14.5
6.0375576 -4.8483691 2.3171451 15
6.4171157 0.76998204 0.37652987 9
6.6132884 -4.9131451 1.8715976 13.5
6.4255147 -4.8887491 2.1889932 15
7.0623617 -4.9282441 1.9312623 13.5
7.1094551 -4.9128642 2.0715654 14
7.0006351 0.72168875 2.1035798 15
7.2935748 0.80855876 -0.19988996 6
7.3936291 -1.9350628 0.69392174 10
7.4910908 -2.9215901 1.1872467 11
7.3940635 -2.5842257 1.1907665 11
7.4708343 -2.9905059 1.3491808 12
7.4683847 -2.6196597 1.4644777 12.5
7.3973732 -4.9290938 1.9423996 13
7.5053029 -2.6191595 1.810261 13.666667
7.3990974 -2.2671559 1.8273065 14
7.3934574 -4.9225354 2.0549989 14
7.860662 0.67116892 2.0401998 14
7.7663989 0.83421546 2.0317578 14
8.3149261 -3.1905575 2.2790582 14
8.3583136 -2.7866416 2.3045621 14
8.0219574 -0.60939533 2.3791413 15
8.3697958 -3.0224531 2.4392841 15
8.6459742 -3.2680647 2.1908059 14
8.4432392 0.92385781 2.0066218 14
8.4363422 -3.2918639 2.5860133 15
8.9918566 -3.2183652 2.1420546 13
9.1349497 -2.6244969 2.172235 14
9.3553963 0.79644471 1.9550669 13
9.2300787 0.99954891 1.9565244 13
9.3088837 -0.62200189 2.2655053 14
9.4991579 -0.12490562 2.3302994 14
9.4410286 0.28195655 2.3426642 14
9.4390688 0.58524591 2.3626261 14
9.4382324 -1.6493976 2.5468788 14.5
9.4309454 -1.3687598 2.531882 14.333333
9.4229279 -1.0550578 2.7006662 15
9.4141388 -0.52458864 2.7535739 15
9.4366207 -0.23413202 2.6797993 15
9.4574289 0.17371266 2.6181691 15
9.4597845 0.61416328 2.67431 15
9.4065847 -3.3100731 2.8406785 15
9.3980532 -2.9589598 2.864903 15
9.3994484 -2.5693641 2.8736138 15
9.4132204 -2.1110961 2.862895 15
9.4252539 -1.8217039 2.8479269 15
9.409832 -1.5328039 2.8868148 15
9.4512157 0.11042155 2.8422093 15
9.6527271 0.6003058 1.9814692 13
9.755497 -0.97111803 2.342804 14
9.6146584 -0.43998796 2.3385139 14
9.62288 -2.4375083 2.4400551 14
10.290877 1.1075945 1.9170992 12
10.667609 0.63943172 1.9116191 12
10.466236 0.8767705 1.9122472 12
10.503956 -1.3270088 2.2210531 13
10.697283 -0.96196043 2.1029673 12.5
10.642856 -0.66130525 2.1566589 12.5
11.099848 -2.7582018 0.59890634 9
11.149854 -2.9912148 1.3664775 10.5
11.123387 -2.7492278 1.2597113 10
10.972293 -4.9114871 1.8733745 12
11.138577 -2.8944755 1.8127837 11.5
11.123183 -2.5567815 1.9774188 12
11.086518 -2.2039709 1.8452502 11.5
10.948606 -1.8635778 1.9901915 12
11.011202 0.26559314 1.9170456 12
11.166365 -2.8314631 2.2761343 13
11.133557 -2.3401852 2.2367396 13
10.899188 -1.5937166 1.9986153 12
10.831783 -1.3317065 2.0051033 12
11.024194 -0.32426399 1.9974822 12
11.244566 -2.5970309 1.7614218 11
11.503322 -2.0977318 1.8087848 11.5
11.501257 -0.40722457 1.914466 12
11.283821 -0.13134614 1.9127082 12
11.544427 -3.658046 1.9937438 12
11.510956 -3.3546793 2.0001485 12
11.297549 0.4216513 2.1274936 12
11.439596 -4.7018285 2.6294432 13
11.824158 -5.0598269 0.23243928 7.5
11.874351 -2.1424906 0.56006336 8.5
11.815996 -5.0919185 1.1748859 10
11.985078 -5.0078092 1.4316323 10
11.879162 -0.98627084 1.9097135 12
11.703988 -4.0087657 2.0056727 12
12.206878 -5.078444 -0.13885076 7
12.257389 -2.1817458 -0.066031508 7
12.034489 -2.1640761 0.085400499 7
12.350171 -1.6241558 1.9179137 11
12.105653 -1.2964892 1.9123569 12
12.394872 -2.028353 1.9960321 12
12.152726 -4.7096505 2.7697911 13
12.698126 -2.2296994 -0.473151 6
12.476812 -2.1320791 1.729612 11
12.604715 -1.9670579 1.9246448 11
12.76808 -4.0222368 2.0885739 12
12.83472 -2.2009914 0.29265752 8
13.124344 1.4272877 1.8731799 11
13.058097 -2.9289498 2.9654965 13
13.193484 -0.077848502 2.8035815 13
13.118029 0.21802427 2.813154 13
12.996578 0.50572747 2.814738 13
13.581069 -2.1538534 0.79616541 9
13.570821 -1.385951 1.9453919 11
13.294296 -1.0509912 1.9457837 11
13.452793 1.1417753 1.872655 11
13.338961 -0.3785055 2.8094752 13
13.83085 -2.20087 0.44576043 8
13.694693 -3.8538499 1.9397223 11
13.892749 0.51907289 1.8464578 11
13.704266 0.83513796 1.8626109 11
13.628482 -0.69209737 2.8408573 13
13.686679 0.46845552 2.8649344 13
14.35161 1.4549323 -0.15333928 7
14.108486 -4.6526113 0.19107725 7
14.370038 1.4940872 0.43254596 8
14.393395 1.4651061 0.8067444 9
14.155462 -4.6196766 1.4218284 10
14.161913 -4.2552557 1.4486501 10
14.01405 -5.5169921 1.6360705 10
14.103048 -4.7132444 1.9464527 11
14.175255 -4.2493901 1.8678552 10.5
14.214974 -2.1151071 1.9524794 11
14.719422 1.1966751 -0.86374831 5
14.546528 -2.1832707 -0.50570625 6
14.574552 -1.890336 -0.52479655 6
14.600305 -1.3852314 -0.46994764 6
14.61859 -0.94218618 -0.49358669 6
14.656972 -0.38040531 -0.77488273 6
14.618475 -0.042671967 -0.73612505 6
14.664008 0.31736627 -0.61821246 6
14.656403 0.62719816 -0.76113427 6
14.654882 0.97662884 -0.72704709 6
14.620374 1.3206842 -0.69055271 6
14.592159 -2.0923488 -0.17750441 7
14.6011 -1.4531585 -0.24496312 6.5
14.624556 -0.54110318 -0.37823766 6
14.637071 -0.18421714 -0.28887433 6.5
14.642595 0.16495478 -0.2024488 7
14.656309 0.63696164 -0.25331119 7
14.680053 1.1488756 -0.20066074 7
14.407627 -2.2657769 0.0555944 7
14.608336 -1.8025117 0.18109725 7.3333335
14.619112 -1.2480428 0.15495628 7
14.624089 -0.93606877 0.11552281 7
14.632094 -0.63894731 0.082352936 7
14.646439 -0.16977495 0.17887764 7.3333335
14.669055 0.13550915 0.29256016 8
14.676869 0.63554233 0.21385925 7.6666665
14.69163 1.0179232 0.24636382 7.5
14.697186 1.3341856 0.30917895 8
14.601553 -1.9899881 0.485513 8
14.607048 -1.6480948 0.52372015 8
14.622064 -1.347777 0.51006633 8
14.630057 -0.97707605 0.59757513 8
14.640641 -0.74361992 0.54111177 8
14.662066 -0.30441695 0.67464018 8
14.669321 0.19904968 0.73031777 8.5
14.697505 1.1775366 0.39705402 8
14.621881 -1.9948722 0.86866438 9
14.6264 -1.6663659 0.90928686 9
14.647068 -1.3718619 1.0691798 9
14.639441 -1.0133183 0.9900499 9
14.656961 -0.68602371 1.0325273 9
14.671885 -0.22298793 1.0101275 9
14.687531 0.29110041 1.1573942 9
14.693576 0.70416933 0.78919923 9
14.697083 1.0391099 0.82656974 9
14.709579 1.3808942 0.86576402 9
14.637232 -2.0116429 1.2584451 10
14.638764 -1.6896967 1.3033159 10
14.656844 -1.0567019 1.3917276 10
14.678858 -0.64469731 1.3833107 9.666667
14.709008 0.20883395 1.5725086 10
14.708573 0.94765294 1.2426006 9
14.56287 1.4234575 1.296106 10
14.607897 -2.2270601 1.649495 10
14.646387 -1.8836433 1.6838228 10
14.67261 -1.3623708 1.7340742 10
14.68484 -0.84322625 1.7850903 11
14.688321 -0.49502012 1.8210393 11
14.70281 -0.15076785 1.8565 11
14.595286 0.19734898 1.8834867 11
14.588862 0.51847667 1.6812867 10.5
14.722358 1.0024937 1.6858422 10
14.737164 1.4802887 1.7540283 10
