# .PCD v0.7 - Point Cloud Data file format
VERSION 0.7
FIELDS x y z intensity
SIZE 4 4 4 4
TYPE F F F F
COUNT 1 1 1 1
WIDTH 190
HEIGHT 1
VIEWPOINT 0 0 0 1 0 0 0
POINTS 190
DATA ascii
-0.32015303 -0.91894591 -0.01006996 176
-0.14655285 -0.9201625 -0.010776605 187.66667
-0.015951294 -0.96619064 -0.014826214 188.5
0.13854139 -0.92127585 -0.01400462 193
0.2666617 -0.90816092 -0.012764513 198
-0.42641267 -0.8153708 -0.0050353818 171.5
-0.26320007 -0.84561348 -0.011680695 188.25
-0.11380719 -0.86457342 -0.012336583 195
-0.081673034 -0.8086797 -0.011248098 199.33333
0.035728078 -0.84547597 -0.018438809 199.60001
0.15821034 -0.85510653 -0.019684568 198.60001
0.27509195 -0.86745107 -0.022766802 197
-0.60491246 -0.7671048 -0.0018178279 147
-0.52633905 -0.70577723 -4.1937434e-05 160
-0.3566713 -0.74700522 -0.010423395 185
-0.17774425 -0.73509932 -0.012855639 198
-0.046442319 -0.75023842 -0.01558789 198
0.08224602 -0.73533946 -0.019625718 196.8
0.18874781 -0.74390906 -0.020768201 196.39999
0.28928795 -0.75991654 -0.021927474 196.8
-0.50384462 -0.68929249 -0.0040250379 168
-0.45438576 -0.65340465 -0.014262413 178
-0.39383483 -0.60429394 -0.0051224148 188
-0.26480004 -0.65584594 -0.013888057 197.60001
-0.11609092 -0.65504694 -0.012877939 197
-0.048638817 -0.65436608 -0.017787034 195.33333
0.016905818 -0.64211816 -0.017492933 193.66667
0.11971334 -0.64136791 -0.013173835 193.25
0.23758037 -0.63560307 -0.010262544 192.125
0.30589485 -0.61604971 -0.012812191 190.8
-0.35396814 -0.57541168 -0.013544282 196
-0.24760982 -0.54674041 -0.011772129 197
-0.16459459 -0.55666369 -0.018460102 194.25
-0.024991734 -0.53521216 -0.008965957 190.66667
0.069193929 -0.54756194 -0.0087603051 189.875
0.15731081 -0.54808819 -0.0081921313 189.25
0.24562609 -0.52676624 -0.013785172 187.25
0.31646794 -0.5290907 -0.0092059756 187.14285
-0.75633699 -0.49640748 -0.00068510004 144
-0.68139428 -0.46420178 -0.0035470352 156
-0.57867724 -0.41965756 -0.0046021487 171
-0.23826106 -0.48653373 -0.016834375 194
-0.14860013 -0.42885205 -0.007224211 190.75
-0.057506118 -0.44660521 -0.010058326 188.33333
0.049308673 -0.4437831 -0.02210124 185.60001
0.14919494 -0.47025815 -0.026206343 184.7619
0.24806346 -0.45110211 -0.033973075 181.6875
0.33210105 -0.46213141 -0.032072432 181.58333
-0.46082151 -0.36884704 -0.0078397449 193.75
-0.36870903 -0.32925177 -0.011138389 195.39999
-0.1004453 -0.37631944 -0.0025569217 188
-0.044165328 -0.35858682 -0.021700215 185.29411
0.06202944 -0.33762097 -0.029473847 180
0.1567858 -0.34325242 -0.034460444 177.45161
0.25192064 -0.345191 -0.044236369 175.64999
0.33588335 -0.33929542 -0.050939124 175.27272
-0.24663846 -0.27586105 -0.0090669328 190.2
-0.14228097 -0.23246472 -0.023086511 185.08333
-0.075737923 -0.2031014 -0.020293297 181
0.037626557 -0.24467817 -0.037351575 176.59091
0.15485597 -0.26252547 -0.057900168 172.83333
0.25540677 -0.24489599 -0.050648022 170.89743
0.34273562 -0.23738664 -0.052729167 171.125
-0.80813783 -0.19750607 0.00031877399 145
-0.74737912 -0.18794857 -0.0070259231 155
-0.67361736 -0.17617238 -0.013336218 170.5
-0.55699652 -0.15668696 -0.010545684 187.39999
-0.43967745 -0.13744496 -0.012877661 196
-0.33296624 -0.11915909 -0.0035394565 192.75
-0.26459426 -0.14682274 -0.0090093417 188.81818
-0.16159539 -0.16448279 -0.026963487 183.91667
-0.035698902 -0.15294631 -0.036075152 177.72728
0.044643208 -0.14883424 -0.060691219 172.35715
0.15396336 -0.12484586 -0.037276376 166.53847
0.25333133 -0.14489578 -0.045964513 168.03125
0.3454918 -0.14092088 -0.050841831 167.52
-0.84326184 -0.051020078 -0.0019565711 139
-0.75995761 -0.047635838 -0.003578153 150.5
-0.67926174 -0.044462468 -0.0080321701 165
-0.56137508 -0.03968782 -0.010332215 187.2
-0.44907069 -0.035222493 -0.014656069 196
-0.32589078 -0.029848211 -0.0057382141 191
-0.22304401 -0.040450364 -0.010673208 187.10001
-0.16439207 -0.063729554 -0.031680975 182.80952
-0.050254226 -0.046739779 -0.0463911 176.66667
0.058202248 -0.046902932 -0.047776829 170.67647
0.15592785 -0.047957275 -0.044333044 168.11627
0.25411361 -0.047395393 -0.068961486 166.83704
0.3596662 -0.037644394 -0.072039135 167.65634
0.46086434 -0.0047759446 -0.055335633 168.1875
0.55169755 -0.014279904 -0.075472191 170.27586
0.64017862 -0.023601498 -0.054655772 169.60527
0.75527757 -0.035417423 -0.035281539 167.21428
0.85449952 -0.043184869 -0.023483722 171.15384
0.9396798 -0.058547337 -0.030759228 181
-0.83612007 0.097811081 -0.005933959 140
-0.76975703 0.092467599 -0.0059058913 150
-0.67003506 0.084422857 -0.0099880518 168.25
-0.55165768 0.074873321 -0.011695637 187.75
-0.44991133 0.066653304 -0.014855562 196.2
-0.33096024 0.057068776 -0.0081316615 192
-0.23108891 0.048998073 -0.010431923 187.14285
-0.1681307 0.043853961 -0.035226729 182.7
-0.048680607 0.061742015 -0.046978921 176.64999
0.055248585 0.04728061 -0.050404917 170.78572
0.15277222 0.033409141 -0.044557873 167.83673
0.24849832 0.021758966 -0.071997248 167.03922
0.3646456 0.0065544886 -0.072584912 166.96202
0.43369076 0.036352307 -0.056836084 167.61443
0.55055797 0.05209659 -0.078730501 170.45334
0.63561171 0.050897479 -0.054920837 169.7963
0.75481004 0.053081557 -0.038136028 168.34483
0.84903866 0.056232382 -0.024797177 170.10001
0.94117206 0.046988409 -0.031637836 178.66667
-0.86497724 0.10014553 -0.00072579423 133
-0.5479672 0.19106922 -0.011611904 187
-0.44981807 0.17076959 -0.0071872007 197
-0.30605197 0.14132644 -0.010748272 191
-0.24906059 0.12961474 -0.010819234 188.57143
-0.1665692 0.11326012 -0.030591313 183.91667
0.44402641 0.14013641 -0.064999133 169.30263
0.5511961 0.15171953 -0.078730203 170.89873
0.64066124 0.14907488 -0.047820214 169.58974
0.74221456 0.14640173 -0.037848253 168.75862
0.85734719 0.14319684 -0.028927591 175
0.94077682 0.13990745 -0.036433388 183.16667
-0.86311305 0.25561878 -0.005993682 138
-0.75224149 0.23287398 -0.0065703588 151.66667
-0.65477324 0.21300597 -0.011479672 166.33333
0.46086153 0.25166211 -0.074888542 171.43333
0.54486507 0.24038877 -0.051615153 171.18605
0.65528083 0.25269225 -0.042172521 167.72414
0.7331782 0.24263357 -0.027244519 170.85715
0.83818227 0.2505123 -0.033348285 179.72728
0.93250352 0.26185179 -0.04917549 183
0.44747555 0.34055418 -0.043448623 171.96153
0.55343521 0.35031137 -0.044444889 171.38461
0.64118952 0.3332378 -0.035467975 173.38889
0.75162929 0.35123983 -0.034619503 182.45454
0.83342618 0.35046282 -0.036163766 186.5
0.91816282 0.3399438 -0.053764429 186.5
0.46428093 0.44460735 -0.041161858 181.20833
0.55012375 0.43028015 -0.032203797 182.77777
0.64785677 0.44274521 -0.03702642 185.46153
0.74307257 0.44585997 -0.035301719 187.85715
0.8624956 0.44916981 -0.053409982 189.33333
0.44447303 0.55756062 -0.041212995 187.75
0.54903406 0.54572558 -0.043789182 188.33333
0.64973879 0.54288638 -0.044063766 191
0.75835454 0.56214511 -0.058159344 190.83333
0.85451019 0.50308532 -0.048372466 189
0.45499802 0.66210276 -0.046416409 172.8
0.54567903 0.66666865 -0.047793113 169
0.62992692 0.6343956 -0.050280202 176
0.72357136 0.62402362 -0.053600643 176
0.46040195 0.7369774 -0.042979475 162
0.56852102 0.76765501 -0.049602814 155.5
0.66373938 0.72463763 -0.053469948 154.66667
0.46875745 0.82813048 -0.044890415 154.75
0.57369083 0.80351365 -0.040288437 150
-0.31690052 -0.90889663 0.0048713805 171
-0.45229989 -0.83870184 0.0036932277 161
-0.61686927 -0.77407962 0.0078014419 142
-0.54819769 -0.72157896 0.0047388622 154
-0.46081606 -0.65478396 0.00082824897 173
-0.83867329 -0.53163362 0.0035954528 133
0.24087082 -0.52762043 0.0015728067 188
-0.76678866 -0.49950081 0.0095399739 138
-0.65152884 -0.44981393 0.0062153777 157
-0.027551737 -0.41294819 0.0017256807 189
-0.49290743 -0.38098624 0.0048868125 188
-0.8545289 -0.20516305 0.00068126596 141
-0.27846506 -0.28804037 0.0025539105 194
-0.17000553 -0.24095006 0.0019591667 189
0.088143647 -0.22821967 0.0049345721 171
0.10779055 -0.20863719 0.023126081 165
-0.75721782 -0.18894409 0.0022461468 151
-0.68094772 -0.1763733 0.0014507786 165
-0.22893216 -0.17563008 0.057008591 184.14285
-0.18776903 -0.16293256 0.062004745 153.60001
0.077115871 -0.16685793 0.080106497 148.11111
0.1588223 -0.15329526 0.043232817 128
-0.23177262 -0.025733082 0.0013420875 188
-0.23227628 0.049127392 0.001022849 189
-0.32410631 0.14408314 0.021402912 190.66667
-0.28306583 0.13577721 0.017036969 156.66667
-0.23685662 -0.17014988 0.13197745 176.18182
-0.00043853221 -0.19309196 0.18547496 158
0.036320426 -0.17816879 0.1489376 142.51613
0.10037849 -0.14918524 0.1010035 137
