# .PCD v0.7 - Point Cloud Data file format
VERSION 0.7
FIELDS x y z intensity
SIZE 4 4 4 4
TYPE F F F F
COUNT 1 1 1 1
WIDTH 59
HEIGHT 1
VIEWPOINT 0 0 0 1 0 0 0
POINTS 59
DATA ascii
-6.848103 -1.4378408 1.9030542 15
-3.6486475 -4.8144784 1.7893604 15
-2.7917118 -4.8259492 1.511567 15
-2.0534215 2.1700907 0.35454908 10
-2.0484579 2.1985164 0.38617766 11
-2.0339861 3.1270392 0.32087728 10
-2.0596802 1.7540148 0.5722999 13
-2.0448821 2.4838765 0.51728684 12
-2.0297706 3.0185857 0.45183167 11
-2.0553975 -3.3353071 0.62833184 12
-2.0278461 3.7142115 0.6304062 11
-2.0777199 -4.8332853 1.4398206 15
-1.9009037 -1.2070017 0.46340156 12.5
-1.6978267 -3.1200657 0.3599973 10
-1.7919936 -1.1780037 0.31626144 11
-1.6321857 -1.4394345 0.48442361 13
-1.5254291 -1.5309403 0.28968021 11
-0.80389208 2.4964392 0.5463894 13
-0.51322007 2.3793106 0.48578611 12.5
-0.18753868 1.1033381 0.045836866 8.5
0.16460903 1.0426321 0.0034056439 7
0.28780088 1.0477774 0.063625351 9
0.59359723 1.1009941 -0.0013474254 7
0.55133802 1.0604205 0.11534853 10
0.49170509 1.0566856 0.31422082 15
0.59118927 2.4388423 0.49946877 13
0.6942234 0.87470698 -0.069649085 5
0.60982621 1.1464454 -0.027100485 6
0.67877984 1.0712398 0.20164345 12
1.0503249 -4.8549056 1.4598362 15
1.2315917 0.95225817 0.45685112 15
1.8576154 0.91755897 0.34357336 12
1.8541381 0.92900801 0.48244506 13.5
1.8476312 0.9563868 0.60611618 15
2.746562 0.95671463 0.37303606 11
2.7461696 0.95050263 0.7001459 13.5
2.7436397 0.99266028 0.82660449 15
2.9250488 1.2663263 0.33877301 10
2.9017341 2.0726347 0.32170492 9.5
2.8969622 2.5586658 0.37982026 10
2.8947928 2.6533337 0.32979634 9
2.9307895 3.2691817 0.31843549 9
2.8033357 -1.9610136 0.48848504 11
2.9240968 3.0962777 0.40737599 10
2.9763503 4.1720066 0.40815809 9
3.1712935 -1.3232131 0.4665128 11
3.5447848 -0.99912101 0.52354443 11
3.7020221 -0.91218019 0.31054059 9
4.0427012 -0.95749241 0.46889043 10
4.7736363 0.8465929 0.018300869 7
9.3241243 -0.92438805 2.034518 13
10.951826 -0.14987397 1.8894094 12
12.447399 0.099430047 1.8129736 11
12.933272 1.5570866 -0.720963 5
13.108837 -0.62628013 -0.66305786 6
13.112463 1.4897022 -0.45218587 6
13.179523 -0.1838274 0.68860847 9
13.204105 -0.45512319 1.1595007 10
13.216415 0.5900234 1.1878389 10
