# .PCD v0.7 - Point Cloud Data file format
VERSION 0.7
FIELDS x y z intensity
SIZE 4 4 4 4
TYPE F F F F
COUNT 1 1 1 1
WIDTH 517
HEIGHT 1
VIEWPOINT 0 0 0 1 0 0 0
POINTS 517
DATA ascii
-7.463294 -2.2344744 0.0077117728 6
-7.4326591 -3.0017335 0.051626071 6
-7.432353 -2.6447365 0.23179044 6.5
-7.4259377 -2.1257761 0.17563927 6.75
-7.4144206 -1.9009508 0.12106786 6.6666665
-7.4182034 -2.8577735 0.55345535 8
-7.4054465 -2.5249968 0.56285119 8
-7.3976984 -2.1029356 0.62532496 8
-7.3869686 -1.690152 0.66451681 9
-7.548337 -2.0764663 1.4073024 11
-7.571918 -1.9366608 1.4297316 11
-7.560369 -2.0542107 1.83657 13
-7.5356569 -1.652245 1.8527844 13
-7.5009685 -2.1719239 2.1113811 14
-7.5421634 -1.9103419 2.1164536 13.333333
-7.5390267 -1.5091202 2.0649514 14
-6.5752873 -2.5062053 0.71619874 9
-6.5994663 -2.3455665 0.66610104 9
-6.5833974 -1.7097243 0.71405649 9
-6.5877156 -1.7788792 0.82810229 9
-6.072576 -4.7057185 0.74545085 9
-6.041657 -4.6969261 1.5663719 12
-6.3412185 -1.3990337 1.9684873 14
-5.431931 -4.3040981 0.2582562 7
-5.402832 -4.5738287 0.60743797 8
-5.2476983 -4.0272012 1.0952075 11
-5.2661376 -4.1417742 1.7361228 13.5
-5.0729609 -3.7180705 1.0718402 11
-4.9879155 -1.8563621 1.040415 11.5
-4.9803219 -1.4819191 0.93397248 11
-5.0361328 -3.7172961 1.511048 12.666667
-5.0478959 -3.4415417 1.5372672 13
-5.0084786 -2.4085884 1.4976104 14
-5.0092163 -2.2132185 1.4185596 13.5
-4.9888468 -1.7618861 1.4015256 13.4
-4.9875236 -1.3919774 1.4061469 13.333333
-5.0491176 -3.7142456 1.8211602 14
-5.0204821 -3.4340475 1.6875458 14
-5.0102429 -2.4840624 1.6557136 14
-5.0080242 -2.1303523 1.645991 14
-4.7801442 -4.0900111 0.65797526 9
-4.0520825 -1.7091842 0.25223273 7.3333335
-3.7854457 -2.9836226 0.2503064 8
-3.8707218 -1.6704992 0.30267444 7.6666665
-3.8756998 -1.1339633 0.38887382 9
-3.7638037 -3.0116699 0.53476864 9.1999998
-3.9299104 -1.7233636 0.5425871 9.666667
-3.1999357 -0.99751377 0.27154845 8
-3.2315991 -1.4155326 0.7308414 12
-3.2170038 -1.3820651 0.8375988 13
-3.3252168 -1.1235938 0.82357603 13
-3.1748016 -1.0060602 0.38430592 9
-2.9315119 -2.1740956 0.56123435 10.4
-3.1801929 -1.2487868 0.75995326 12.5
-3.1651437 -1.0170133 0.51693702 10.5
-2.8233731 -4.7935052 0.86385632 10
-3.1855032 -1.6988251 1.0672872 14
-3.1929491 -1.4600843 0.8331967 13
-2.500361 -1.0228143 0.32002059 9.5
-2.6408279 1.5693467 0.32962137 10
-2.6320121 1.7876782 0.35010743 10
-2.6114745 2.1992865 0.32984403 9.75
-2.5985739 2.5426068 0.32489875 10
-2.5862925 3.0436299 0.32285708 9.666667
-2.5669174 3.4103539 0.31250057 9.333333
-2.5606577 3.750726 0.32987109 9.333333
-2.5150273 -1.2221348 0.48116624 11
-2.5356972 -1.0952162 0.48936298 11.25
-2.6295843 1.7968099 0.49259794 11.5
-2.6151958 2.2145166 0.49808237 11.2
-2.601301 2.5582669 0.4901326 11.2
-2.5865965 2.9951184 0.50099748 10.5
-2.574652 3.3620069 0.51568317 10.666667
-2.5631914 3.8218617 0.53205419 10.5
-2.5603857 4.0339975 0.61466944 11
-2.614382 -4.8060064 0.84748894 10
-2.2521977 -1.6497818 0.26248875 8.5
-2.2475231 -1.3931092 0.26426327 9
-2.1578031 -1.6542836 0.60933077 12
-2.2491651 -1.4099224 0.57596487 12.25
-2.3923321 -1.1973385 0.67152262 13
-2.1384203 -4.806973 0.8120417 10
-2.0286789 -4.8304014 1.4537199 13.5
-1.715399 2.9927983 0.34101355 10
-1.6873959 2.9634528 0.47173992 11
-1.7978926 -4.8247371 1.4893754 14
-1.3988261 2.5314245 0.53730154 12
-1.5617634 2.9431806 0.42750901 11
-1.3866817 -4.8315086 1.4495296 14
-0.85791057 0.67734826 -0.016097879 7
-0.8051548 0.98810071 -0.018944792 7
-1.0341369 2.3779595 0.37934896 11
-0.89389193 2.4058487 0.39311734 11
-0.99773842 -3.0001578 0.6420182 12
-1.1498216 2.3768151 0.4362615 12
-0.92702162 2.4209089 0.48568225 12.333333
-0.94538653 3.8207641 0.46812841 10.5
-1.0214562 -4.8397827 1.421898 14
-0.59218723 0.24970338 -0.019458249 6
-0.60757011 0.60945719 -0.020832805 6.3333335
-0.5832997 0.97024393 -0.020786969 6.5
-0.47423995 0.94832081 0.061886515 8.75
-0.42372116 1.2778709 0.0031410553 7
-0.61503243 -2.9743962 0.62040037 12
-0.45514873 -1.762228 0.45045117 13
-0.42229244 2.3872192 0.46860877 12.5
-0.66817647 2.5339694 0.48589316 12.25
-0.1603034 0.62766618 -0.033212245 5.5714288
-0.20108987 0.93552518 -0.023580333 6.375
-0.12960842 -1.758615 0.31036058 11.5
-0.20712292 1.0427521 0.076937318 9
-0.16081302 -2.9922283 0.6054408 12.666667
-0.19561079 -1.7762705 0.44778445 13.333333
-0.21985695 2.3210933 0.47198734 12.5
0.37733996 -0.97705764 -0.0098223705 7
0.38279372 -0.57250386 -0.013783617 6.6666665
0.3919636 -0.33548424 -0.037785124 5
0.37745714 0.33629781 -0.042857926 4.5
0.22449829 0.60015041 -0.039411888 5.3333335
0.18696865 0.89296573 -0.028136602 6.3333335
0.30903456 -2.5771403 0.16165614 8.5
0.32130712 -2.2280624 0.16602774 9
0.18501274 -1.7677449 0.28630516 11.5
0.34578043 -1.3649334 0.082386248 8.666667
0.37225276 -1.1073834 0.0025427698 7
0.3775945 -0.58116841 0.0037321637 7
0.19299105 1.01004 0.11249018 10.25
0.079958774 -2.99123 0.60073483 13
0.36161074 -2.5766709 0.57232481 13
0.29517114 -2.089025 0.51236016 14
0.17805728 -1.7872068 0.47482246 14.5
0.27803603 2.3049886 0.48175964 13
0.12928665 2.5631957 0.50938731 12.5
0.5011602 -0.93461812 -0.0040442487 7
0.57311958 -0.56808168 -0.0060547399 7
0.58191615 -0.18344022 -0.033959005 5.3636365
0.61018234 0.021561494 -0.049741011 4.6666665
0.73063141 -3.33441 0.21425469 8.666667
0.67700076 -3.1754651 0.32947794 10
0.68698341 -2.6588104 0.082024768 8
0.69684535 -1.809638 0.15656295 9.5
0.52659637 -1.2986351 0.060659055 8
0.59703434 -0.46112767 0.0049121981 7
0.66811192 -0.37489197 0.0038070874 7
0.79743487 -2.3559556 0.5651719 13
0.75822335 -1.9017448 0.41300046 13
0.61785346 2.3074498 0.48681402 12.666667
0.79425436 -4.8996534 1.3452283 15
0.81505454 -0.33548552 -0.0056333831 7
1.024227 -3.0048978 0.27439862 9.25
0.9813109 -2.6978559 0.36039206 11
0.96916521 -2.0576787 0.26810873 10.4
1.0139594 -1.7443631 0.22844049 10.333333
1.0415162 -1.5088931 0.32304481 12.142858
1.1052647 -1.1197078 0.3633641 14
0.84829545 -0.36439505 0.0054708971 7
1.0814266 -3.1002264 0.44809565 11.333333
1.008588 -2.1512027 0.50650942 13.25
1.0482148 -1.7063283 0.47966212 13.666667
1.0736812 -1.5567011 0.43711138 13.5
1.1640154 3.0094168 0.49587992 11.5
1.0609949 -4.9071579 1.3754243 14.8
1.4756886 -4.9278116 -0.063100033 7
1.4373478 -4.9390898 0.070935383 7.5
1.3817359 -2.9870801 0.29398981 9.5
1.3143531 -2.0098541 0.28295451 10.5
1.3094189 -1.8624806 0.29284337 11
1.2064719 -1.5592098 0.2498026 11
1.2607415 0.88758767 0.36955547 13.5
1.386902 -4.9192214 0.57512778 10
1.4164984 -3.0108678 0.62101072 12.2
1.2913722 -1.8480978 0.48320684 13.25
1.2207376 -1.5779566 0.47214034 14
1.2458149 0.86584222 0.42033532 15
1.4002355 -4.9198236 1.3730801 14.6
1.9870583 -2.4408405 0.17274444 9
1.9827834 -2.4293168 0.63892102 13
1.7491181 4.9490261 0.49413955 10
1.7590407 -4.9342809 1.4271703 14.666667
2.1668582 -4.5383015 0.20846103 8
2.3864863 -4.3177071 0.16951859 8
2.257988 -2.8705833 0.26311296 9
2.3237555 -2.7388694 0.293942 9.5
2.3166242 -2.0312648 0.19261065 9
2.2579651 -1.9562136 0.28137752 9.666667
2.3784831 1.1862595 0.34176201 11
2.356051 1.3982315 0.32364255 10.5
2.3499734 1.7944586 0.30132577 10
2.3441479 2.2617855 0.32873338 10
2.358227 2.6212997 0.34680808 10
2.3721857 2.9116669 0.35847434 10
2.3849559 3.2482877 0.38193151 10
2.3266683 -4.564981 0.75519824 11
2.3931372 -2.8378572 0.43759644 10
2.3306117 -2.7477036 0.45562243 11
2.1525238 -2.176621 0.63113827 12.833333
2.2700257 -1.8944451 0.51276833 12
2.1626475 1.0406799 0.54407346 13.3
2.2670565 1.3910826 0.56070411 13
2.3555965 1.8438243 0.44325063 11.333333
2.3431664 2.1626575 0.47533733 11.333333
2.3620751 2.6028605 0.49415579 11
2.374795 3.0531926 0.50133288 10.666667
2.389318 3.3987625 0.50952733 10.333333
2.3967793 3.7220802 0.54582387 11
2.2450588 4.8971419 0.57454836 10.142858
2.3633714 -4.5430851 0.80211312 12
2.115695 -2.3183653 0.81990868 14
2.0164099 -4.9048381 1.4780835 15
2.1278133 -4.6515031 1.4159164 14.75
2.4173806 -4.2504182 0.12119012 8
2.5302379 -2.9305849 0.21838045 8.5
2.5555243 -2.6515856 0.295582 9.25
2.5843256 -1.3792382 0.24086761 9.5
2.5403495 0.85197747 0.29285687 10
2.4017012 3.5929039 0.38922489 10
2.6677773 -4.5646763 0.72354841 10.666667
2.6262937 -3.6428943 0.45507848 10
2.6502771 -3.3944976 0.57666636 11
2.4767461 -2.5809345 0.46623933 11
2.530051 -1.7089771 0.6605562 13.333333
2.57533 -1.4362977 0.5016731 12
2.5443001 0.86083812 0.62412971 13.5
2.4059784 3.5170963 0.58354092 11
2.4086378 3.8450725 0.50322896 10
2.4721489 4.2888818 0.51789522 10
2.4842529 4.6073589 0.56686449 10.25
2.4678781 4.8291831 0.49492592 9.5
2.7448461 -4.6516294 0.94618326 12
2.583452 -1.9443407 0.84489596 14
2.5601561 -4.5653181 1.4823564 15
2.8801324 -4.2832189 0.24830377 8.5
2.8304601 -1.6653062 0.16636574 8.666667
2.9458573 -1.3732535 0.25583732 9.333333
2.9834974 -1.131832 0.22726963 9.166667
3.0487742 -3.8028071 0.67296904 11
3.1957729 -2.3925107 0.70539963 12
3.0543132 -1.3200748 0.5649637 12
2.9946301 -1.0538921 0.58104199 12.375
3.1422567 -1.0119712 0.87086409 14.5
2.903831 -4.5117893 1.230286 14
3.1396034 -4.9343934 1.6287683 15
3.5488222 -3.8116987 -0.078085661 7
3.5358732 -4.9987311 0.19879764 8.333333
3.3030429 -2.5176418 0.32782066 9.5
3.3133895 -1.6269553 0.12927239 8
3.3672812 -1.5882698 0.059335802 7.5
3.481648 0.79911286 0.22523406 9
3.4746709 0.86487746 0.28957951 9
3.5884845 1.6852314 0.23627983 8.5
3.3343277 -4.9795299 0.46727222 9
3.359241 -3.0765145 0.79041636 12
3.2514029 -2.3790793 0.51909953 11
3.3523855 -1.6591626 0.54687327 11
3.3538487 -1.052475 0.48154071 11
3.4899261 0.84887481 0.50586778 11
3.4930191 -2.8714294 0.84344083 12.5
3.3042498 -2.0235815 0.94817615 14
3.4345026 -1.9815924 0.87603712 13.5
3.2399218 -0.8981815 0.87196124 14.5
3.4852402 0.88213426 0.80635071 13
3.3046832 -4.9519362 1.6873899 15
3.9544847 -3.3347421 -0.055306777 7
3.8543758 -2.9625261 0.19881962 8.333333
3.6120942 1.7284642 0.36233443 10
3.9553926 -3.0686498 0.57349437 10.5
3.7635193 -2.2822011 0.68728852 12
3.6002045 1.6411781 0.40117753 10
3.6617925 -4.9563389 0.89472741 11
3.6362965 -2.8496377 1.1412719 14
3.6564934 -2.6610787 0.851794 12.333333
3.9363785 -4.9563575 1.4141295 13
3.7886226 -5.0006452 1.7485787 15
4.0124145 -3.2281084 -0.045539301 7
4.044641 -2.1887107 -0.028004225 7
4.0356617 -3.3373537 0.10040245 8
4.0394845 -2.8104496 0.29991993 9
4.034616 -2.7467828 0.23760028 8.5
4.2063551 0.75398773 0.26700389 8.75
4.2146492 0.96960157 0.22998068 8.5
4.2382741 1.2506961 0.19852732 8.333333
4.1344314 -3.1005132 0.57547802 10
4.2195706 0.73504078 0.64508951 11.2
4.2138677 1.0637107 0.59824467 11
4.2370892 1.277925 0.60714531 11
4.295876 0.72611892 0.96835458 13.333333
4.2162623 1.0381775 1.0049943 13.666667
4.2452607 1.2934628 0.95429885 13
4.0272083 -4.9627895 1.2591342 13
4.2823329 0.75186038 1.243432 15
4.2076688 1.0348655 1.2892364 15
4.2480812 1.3164307 1.2543149 15
4.1723824 -5.0106506 1.8237901 15
4.728538 -4.8008757 -0.11320221 7
4.7388515 -4.5659695 -0.11913188 6.5
4.5284262 0.74905258 -0.0056888587 7
4.6041059 -4.9707346 0.27565882 8
4.7007794 -4.6571541 0.1982803 8
4.7755847 -4.3282456 0.24843089 8
4.478416 0.76489913 -0.003716737 7
4.6479945 -5.0304446 1.9089569 15
5.0082293 -5.0198669 0.35107929 8
4.9878531 -4.5193753 0.35606399 9
5.0606222 -5.0081043 0.74024332 10
4.946054 -5.0383172 1.9569992 15
5.0956273 -5.0450106 2.0174513 15
5.3547225 -1.7465142 -0.10066925 6.5
5.2937331 -3.4040399 0.1170138 8
5.3332429 -1.4779359 0.098446377 8
5.5090513 -4.9811687 1.1060375 11.5
5.334516 -2.8622072 1.1784749 13
5.3994856 -2.3074927 1.0822873 12.333333
5.3985395 -3.8792326 1.3977053 13
5.4272919 -3.582289 1.3785864 13
5.3651276 -2.9429915 1.4434216 13.75
5.3260951 -2.6516101 1.3907272 13.5
5.3660326 -3.727268 1.9373217 15
5.3588667 -3.5367098 1.9190145 15
5.2941022 -4.9115357 2.0851791 15
5.9423642 -5.0655298 2.2128749 15
6.0625572 -4.9378152 1.8320287 14
6.1073041 -4.9635639 2.2284958 15
7.4267321 -5.1346049 -0.16882809 6.3333335
7.4831948 -5.1564932 0.22733285 8
7.3464589 -5.1073174 1.3806838 11
7.4551067 -5.0222602 2.0122802 13
7.4104924 0.59787732 2.1648352 15
7.8982263 -5.1835461 0.23665817 8
7.8826246 1.0555466 2.1474357 15
7.6833425 -4.5312886 2.5526757 15
7.6795583 -4.1833181 2.5362251 15
8.2389994 0.55668151 2.1432443 14
8.0047483 0.89451605 2.1470039 15
8.2814083 1.3109121 2.1283903 14
8.6529446 -2.7072432 -0.11429094 7
8.4132948 -5.2596502 0.24397515 8
8.4652805 -2.8329728 0.10042743 7
8.6818829 -2.5177727 0.38117099 8
8.4654055 -5.148829 0.41944295 8
8.7997446 -2.9539633 0.42889911 8
8.7985802 -2.7024386 2.2269514 14
8.7492523 -2.2835171 2.2191126 14
8.720952 -1.8877383 2.2195368 14
8.7118731 -1.3867108 2.1936839 14
8.6767797 -0.98721933 2.2314961 14
8.7349815 -0.49929541 2.2993336 14
8.7591457 -0.17862839 2.2171063 14
8.7025414 0.25166494 2.1942801 14
8.7095089 1.1607262 2.1147923 14
8.7168331 -4.7662134 2.8272717 15
8.9777174 -2.5850203 -0.23240015 6
9.0045557 -2.342479 -0.21107292 6.3333335
8.9845715 -2.5925446 0.076412305 7
8.9989977 -2.3697631 0.16268937 8
8.8209448 -2.9085169 0.63681066 9
8.9409275 -2.6582215 0.57065749 8.75
9.019824 -2.2867672 0.50607181 9
8.9947424 -2.8545501 0.9377265 10
9.0078506 -2.5616844 0.99678594 10.25
9.0417585 -2.2577004 0.91244894 10
8.9375401 -5.0677185 1.4781996 11
9.003788 -2.6239774 1.5774244 12
9.0571489 -2.2869132 1.2382768 11
8.8156776 -5.0563312 1.6086491 12
9.0226851 -2.6055799 1.7193754 12
9.0818634 -2.2635486 1.8882201 13
8.8301859 -4.1193032 2.2494328 14
8.8564339 -3.79072 2.24773 14
8.8262453 -3.5578473 2.2375758 14
9.0338497 -2.5829806 2.102071 13
9.0130816 -2.1695275 2.1438999 14
8.8562689 -1.7379336 2.1598799 14
9.0254335 -0.67634523 2.1361089 14
8.8487024 -0.36904693 2.1386342 14
8.9355106 0.1936968 2.3504307 14
9.0643663 0.68685955 2.1121068 14
8.8526487 0.97465181 2.1133294 14
9.1618834 -0.14567491 2.4512484 15
9.1357088 0.14118381 2.4904077 15
9.5789652 -2.3064997 0.17565475 8
9.4384937 -5.1865616 0.47011113 8
9.5727005 -5.1512027 1.5640522 11
9.582159 -2.2102156 1.2982553 11
9.4348564 -5.1451163 1.7049617 12
9.2095499 -2.2286489 1.6329074 12
9.5316792 -1.6693466 2.1250231 13
9.3133364 -1.212912 2.1309795 13
9.2291813 -0.99736768 2.1389461 14
9.545414 -0.037472144 2.1072643 13
9.493886 0.6293546 2.0900426 13
9.6216736 -2.3195343 -0.091882348 7
9.9518881 -2.3282869 0.09098535 7
9.7062798 -2.2670653 0.479911 8.5
9.7279015 -2.2695661 1.9164201 13
9.7280979 -4.4499807 2.3544626 13
9.8110657 -2.1664894 2.131206 13
9.6938753 -1.9188761 2.1320004 13
9.8367558 -0.48364854 2.1084995 13
9.6865807 -0.25591663 2.1069362 13
9.9835072 1.1131852 2.081316 13
9.8363485 1.3318989 2.0877275 13
10.131517 -2.340898 -0.24616775 6
10.066886 -2.2946198 0.99840528 10
10.339193 -2.3128757 1.2597702 10
10.225701 -4.9440145 2.1462567 12
10.280314 -1.2110122 2.1118987 13
10.12212 -0.95997292 2.1091273 13
10.078351 -0.60973775 2.1071002 13
10.331852 0.66121483 2.0807757 13
10.150675 0.89190155 2.0796072 13
10.79967 -2.3621848 -0.12465145 7
10.684312 -2.2377622 1.4154657 11
10.424803 -2.2881975 1.8156199 12
10.697923 -2.0056322 2.1132622 13
10.573719 -1.7359431 2.1147132 13
10.422512 -1.4679009 2.1129768 13
10.669218 0.17933245 2.0776484 13
10.487029 0.4240374 2.0771644 13
11.026427 -2.3445427 0.55709082 8
11.17175 -2.3558755 0.83556134 9
11.17781 -0.59885412 2.076854 12
10.925007 -0.20269027 2.077095 12.5
11.058198 0.19262053 2.0697114 12
10.888007 0.4478963 2.0735092 12
11.481503 -2.4029841 -0.30062827 6
11.47348 -2.3418801 -0.28116253 6
11.242439 -2.3056386 0.59475821 9
11.345046 -2.3431554 1.1068259 10
11.444136 -1.021539 2.0794413 12
11.570674 -0.54143733 2.2099555 12
11.280413 -0.078071557 2.077085 12
11.223051 0.50604236 3.0380037 15
11.843081 -2.3297009 2.0335004 12
11.858701 -1.7641338 2.0795283 12
11.675463 -1.4556853 2.0766606 12
12.337668 -2.4187343 -0.16557948 7
12.350593 1.0060405 -0.33264694 6
12.313204 1.303388 0.16548474 7.5
12.153457 -2.414602 0.53417277 8
12.115524 -2.2866049 1.5689886 11
12.329467 1.3628832 1.3259372 10
12.361897 1.2999983 1.6637993 11
12.092964 -2.0907376 2.0912244 12
12.484229 -2.40676 -0.54807508 6
12.529033 -2.1070538 -0.51903635 6
12.497837 -1.7999406 -0.48498267 6
12.490548 -1.354151 -0.43977389 6
12.518173 -1.1169099 -0.61113507 6
12.576922 -0.76603031 -0.59709412 6
12.563617 -0.25443557 -0.52127886 6
12.548245 0.32333109 -0.45964032 6
12.560056 0.61792934 -0.43017018 6
12.463867 -2.0968568 -0.21555325 6.5
12.478309 -1.8558606 -0.10492008 7
12.49765 -1.4427236 -0.11454759 7
12.508891 -0.90926462 -0.27836823 6.5
12.537178 -0.58830196 -0.25027126 6.5
12.552846 -0.13418184 -0.23782854 6.3333335
12.564487 0.27438733 -0.27922213 6
12.574294 0.57009649 -0.25062272 7
12.55889 1.0333482 -0.29596478 6.5
12.527087 1.4880881 -0.25619373 6.5
12.59651 1.7717835 -0.13393115 7
12.473522 -2.2016144 0.14784013 7.3333335
12.485647 -1.7477525 0.26819924 8
12.507383 -1.4144225 0.26052758 8
12.517997 -0.99676079 0.19941534 7.6666665
12.540543 -0.50756991 0.12710576 7.3333335
12.551205 -0.12902503 0.084106997 7
12.570162 0.15172468 0.23679702 7.5
12.574837 0.44368774 0.14609571 7
12.602467 1.0224801 0.2078055 8
12.588092 1.6050917 0.27103436 8
12.562896 1.6255815 0.10935497 7
12.479899 -2.2053568 0.62573916 8.5
12.516012 -1.7130746 0.61556357 8.5
12.512909 -1.4711064 0.68881541 9
12.527608 -1.00728 0.73491347 9
12.543898 -0.61854947 0.58938986 8.5
12.546686 -0.20828201 0.4573079 8
12.571424 0.20970845 0.50768667 8
12.591011 0.6454004 0.43631533 8
12.598983 0.91263652 0.59242517 8
12.573483 1.4677552 0.52443177 8
12.567304 1.745342 0.55287951 8
12.460838 -2.3498185 0.9173134 9
12.551736 -0.62023044 1.108665 10
12.569252 -0.18653329 0.97448015 9.5
12.5878 0.27635771 0.88637114 9
12.596537 0.69868368 0.93829972 9
12.617964 1.0591221 0.97032636 9
12.513439 1.5181665 0.96218967 9
12.629798 1.8065065 1.0315708 9
12.490294 -2.0969777 1.3446248 10.333333
12.520764 -1.7060914 1.2884852 10
12.514614 -1.4642876 1.3171501 10
12.540402 -1.1443801 1.3456266 10
12.579988 -0.54646081 1.3824326 10
12.591307 0.26779833 1.3290268 10
12.597217 0.50201553 1.4081316 10.5
12.621841 0.93026793 1.3650671 10
12.615359 1.3513669 1.2224675 10
12.609633 1.8138185 1.3341476 10
12.541441 -2.0926626 1.6250973 11
12.511124 -1.7243099 1.5940137 11
12.543508 -1.4967676 1.6450856 11
12.555439 -1.0013233 1.6962593 11
12.577888 -0.54554063 1.7381042 11
12.57824 -0.24450278 1.8101656 11
12.613046 0.59516805 1.7633212 11
12.630718 0.98484308 1.7352537 11
12.592357 1.5378741 1.7889012 11
12.665788 1.7635771 1.8804948 11
12.544821 -1.8871773 2.1011205 12
12.631524 0.97283351 1.9977031 12
12.635782 1.3803766 2.0594375 12
12.541035 1.7801059 2.1102781 12
