# .PCD v0.7 - Point Cloud Data file format
VERSION 0.7
FIELDS x y z intensity
SIZE 4 4 4 4
TYPE F F F F
COUNT 1 1 1 1
WIDTH 565
HEIGHT 1
VIEWPOINT 0 0 0 1 0 0 0
POINTS 565
DATA ascii
-8.065815 -2.8854682 0.35257733 8
-8.0370998 -2.6720946 0.37930095 8
-8.0388584 -2.5643365 0.4879877 8.666667
-8.0241623 -2.2015805 0.55791944 9
-8.0294895 -2.5455976 0.94652492 10
-8.0199852 -1.8749769 0.81890416 10
-8.1252584 -2.0100818 1.8794274 13
-8.1069431 -1.5047032 1.9151895 14
-8.0938997 -1.8690829 2.1838813 14.4
-8.073781 -1.4266862 2.2263036 14.666667
-8.0672636 -1.1232553 2.3273053 15
-7.8856282 -1.6049252 0.29336998 8
-7.4119363 -1.3757161 0.31062311 8
-5.6604896 -4.5721731 0.30867234 8
-5.6777625 -4.3708296 0.32188907 8
-5.6775422 -4.5503745 0.59401405 9.333333
-5.7099266 -4.1965585 0.47588691 9
-5.4010558 -4.0572824 0.60226685 9.5
-5.5662274 -2.1368625 1.5864211 14.333333
-5.5650444 -1.7772971 1.4557868 14
-5.5603867 -1.5621637 1.3737043 13.5
-5.5674567 -1.7799327 1.6216663 15
-5.5269256 -1.5842832 1.7265722 15
-4.9190841 -4.1493583 0.29369754 8
-4.9390564 -2.0471292 0.20077516 8
-4.4644847 -1.726187 0.23412824 8
-4.4902573 -1.1454316 0.30419263 9
-4.5119648 -1.6183128 0.57100159 10.5
-4.640162 -1.5733457 0.6324141 11
-4.476665 -1.1502613 0.47382575 10
-4.3116794 -1.058385 0.20452917 8.25
-4.3936677 -1.3883758 0.7996012 12
-3.9174595 -3.5103135 0.31772131 9
-3.748421 -1.019905 0.32386783 9
-3.9449356 -3.4417288 0.55465746 10.5
-3.731111 -1.0961592 0.72662306 12.5
-3.7675006 -1.2927539 0.89683092 13.5
-3.633539 -4.8022776 1.5456595 14
-3.285464 1.899581 0.3584016 10
-3.2813802 2.1859331 0.3246958 9.5
-3.2673283 2.5551531 0.3431147 9.333333
-3.2497468 3.055867 0.34238929 9.333333
-3.2473764 3.3823249 0.32619646 9
-3.2350361 3.7495997 0.3614212 9
-3.2010355 -1.1684475 0.67624897 13
-3.2671461 1.8948188 0.5326283 11
-3.2608621 2.1899831 0.5659529 11.2
-3.2509003 2.6083603 0.5801599 11
-3.2437222 2.9513495 0.56429994 10.8
-3.2342947 3.4836431 0.59978867 10.5
-3.2318349 3.6868169 0.58551365 10.5
-3.4427907 -4.8123384 1.0215554 12
-3.2588274 -4.7926912 1.0026489 12
-2.9677534 -2.9405487 0.3142865 9
-3.0369432 -1.2663075 0.25833002 9.5
-3.0402143 -1.1504446 0.37009385 10
-3.0536811 -2.9308815 0.48372093 10
-2.947799 -1.2877965 0.59568 12.166667
-3.0676045 -1.1054727 0.51302588 11.6
-3.1967242 2.5706031 0.70015329 12
-3.1903148 2.9687014 0.62729514 11
-3.1726336 3.3924222 0.6678136 11.25
-2.8897069 5.0174575 0.54281533 10
-2.94682 -4.8072534 0.97650778 12
-3.0153255 -4.8001838 0.98395371 12
-2.9239297 -1.1491684 0.934228 15
-2.4201055 3.0885305 0.38135794 10
-2.7978311 -1.2536142 0.84398711 15
-2.7978804 -1.1961818 0.90228397 15
-2.2997992 2.832515 0.28391927 9
-2.2246401 -1.8777398 0.49233592 11.5
-2.3464084 2.8793232 0.52350175 11
-2.1513295 -4.8204093 0.91898483 12
-1.644583 2.358664 0.3950378 11
-1.8042873 2.4798744 0.32364559 10
-1.8967079 3.513232 0.35668546 10
-1.6594107 -3.0220044 0.76187557 13
-1.6374433 -1.6847193 0.4225533 12
-1.7753295 2.3887603 0.48437226 11.5
-1.6918306 2.4150066 0.55370808 12.5
-1.7778492 -4.8278365 0.85941625 12
-1.2837328 -0.60393286 0.35122225 14
-1.4692041 2.4290938 0.34751177 11
-1.3085328 -3.887434 0.77577543 12
-1.4435003 -2.9732029 0.71943575 13
-1.3433628 -0.65613937 0.44518688 15
-1.53812 2.3890502 0.4031634 11
-1.3887596 2.4948511 0.52760935 12.222222
-1.3946916 2.8107283 0.43277442 11
-1.209821 -4.8421082 0.87544149 12
-0.97664201 -0.97196758 0.30884078 13.25
-1.0411201 -0.63987386 0.33721048 14.666667
-0.97588605 2.3363175 0.390044 11.333333
-0.97657853 -2.9412794 0.65128815 13
-0.90129936 2.3533914 0.49391937 12.75
-1.1056271 2.425245 0.4878166 12.5
-1.0122885 3.726192 0.45194533 10.333333
-1.1268423 -4.8396673 0.83941889 12
-0.97927874 -4.8410258 1.4535766 15
-0.40775317 -4.5082169 -0.046750136 7
-0.58613497 -2.5384505 0.034729574 7
-0.41843492 -2.0931025 0.037340928 8
-0.51068878 -1.4256186 0.051865418 8
-0.54995763 -0.94633186 0.033271324 8
-0.53114134 -0.64269924 0.021482553 7.75
-0.63193154 -0.27461246 0.027255369 8.333333
-0.63901776 -3.3264735 0.70028901 13
-0.51746935 -3.0223305 0.64355248 13
-0.59205681 2.3383098 0.49698913 13
-0.5368185 2.4588697 0.53032291 13
-0.52320361 -4.8574448 1.3915247 14.666667
-0.049276814 -0.81819576 -0.012025507 7
-0.14705272 -0.58669221 -0.0049786246 7
-0.047048021 -4.8789597 0.32529014 9
-0.3453128 -4.5152884 0.14339608 8
-0.147893 -3.7458744 0.18946254 8.3999996
-0.15328455 -3.5719945 0.15799434 8.333333
-0.2442892 -2.5810523 0.24131121 10
-0.26799938 -2.2867489 0.30150655 11
-0.2621505 -1.8296647 0.10601323 9
-0.23178343 -1.362651 0.16238452 10.6
-0.29455435 -0.94839066 0.017836634 7.6666665
-0.22530712 -0.57978201 0.0087467525 7.4285712
-0.17194811 -4.8817596 0.51414758 10
-0.1727335 -3.768446 0.54014963 11
-0.19507207 -2.4761007 0.51470661 13
-0.18073228 -2.2271807 0.52180916 13.714286
-0.20809668 -1.8865269 0.5498448 15
-0.22855927 2.3277204 0.49736887 13.2
-0.024871398 2.6091077 0.50775182 12.5
-0.064495139 -4.8693328 1.4394717 15
0.20034051 -0.89141518 -0.013876759 6.5
0.21988037 -0.57443422 -0.014654235 6.375
0.35635057 -0.36718783 -0.024869718 5.5
0.37036651 0.33857307 -0.046103567 4
0.31649196 0.59235007 -0.045177262 5
0.2757048 0.90762377 -0.019255025 6.6666665
0.16195714 -2.9886138 0.26155192 9.666667
0.32695061 -2.0124602 0.29708725 11
0.20453285 -1.7407919 0.21370356 10.5
0.27397096 -1.4539269 0.18429975 10.25
0.17668439 -0.56126189 0.0025080985 7
0.21612111 1.0080521 0.14591379 11.285714
0.024059342 -4.8858471 0.51679564 10
0.20522302 -3.794301 0.5464285 11
0.24195699 -3.1213119 0.47149402 11
0.1837803 -2.5084209 0.57227427 13.5
0.18040843 -2.2454145 0.55980569 14.25
0.2993786 -1.5371035 0.47269115 15
0.06540627 2.4219654 0.54253203 13.5
0.20046079 -4.8787847 1.3266 14.5
0.43521568 -1.4691594 -0.0016677193 7
0.48430747 -0.9861474 -0.021256264 6.3333335
0.45494038 -0.56295335 -0.01939253 6.1999998
0.43564385 -0.30224422 -0.04707757 4.5
0.59557897 0.1785174 -0.067628756 3.909091
0.54987717 0.5576995 -0.052393205 5
0.65261674 0.87197679 -0.064177364 5
0.68286312 1.5427089 -0.057777926 6
0.73063892 1.786828 -0.069055386 6
0.43602276 -3.4589481 0.2210906 9
0.64758736 -2.9478898 0.3008858 9.666667
0.5696857 -2.0637083 0.29040623 10.666667
0.57431251 -1.8420954 0.24935672 10.625
0.52015507 -1.515255 0.24519528 11.4
0.45534933 0.97496068 0.095623188 9.666667
0.71744394 -2.989862 0.5591715 12.5
0.43077794 -2.5090363 0.56548607 13
0.62004793 -2.0309224 0.43668431 13
0.64555925 -1.8313318 0.51362085 14.333333
0.57090843 -1.5629553 0.45966965 14.666667
0.49249214 3.0662737 0.50613695 12
0.62216765 5.1446862 0.63737518 11
0.77742589 -4.9064884 1.180595 14
0.64987487 -3.1701994 0.91367298 15
0.63007808 -4.8910503 1.2774898 14.5
0.95882213 0.21087909 -0.058649153 5.3333335
1.0049816 0.66395718 -0.074065804 5.1999998
1.0297277 0.94801122 -0.069615334 5.6666665
0.99656868 1.3797481 -0.068277441 6
0.9990499 1.8237703 -0.081123948 6
1.1068816 2.1439092 -0.095344648 6
0.85924369 -2.9807827 0.18899994 9
0.83246219 -2.9798119 0.62325895 12.5
0.90180272 -3.1063244 0.94638813 15
1.1584996 -4.9070778 1.3232956 14
1.565285 -4.535377 -0.050351769 7
1.3332931 0.19422942 -0.092578642 5
1.3995103 0.63975114 -0.090200886 5.1999998
1.3766409 0.96995866 -0.057629779 6.25
1.4367368 1.3854933 -0.075888626 6.25
1.3820959 1.7418334 -0.081876688 6.25
1.4749587 2.253984 -0.075652383 6.5
1.2751309 2.6463203 -0.11438223 6
1.3969274 3.0143569 -0.12343971 6
1.4772743 3.3227768 -0.057828192 7
1.5799134 -4.5340619 0.20614149 8.5
1.4041054 -4.3092666 0.21524319 8.5
1.603025 -2.803009 0.24317852 9
1.350008 -2.4419763 0.21588393 9.5
1.4509372 0.94687456 0.13370453 9.333333
1.5566366 1.4033729 0.1805056 9.625
1.5351357 1.8414435 0.13687755 8.75
1.4855895 2.3603547 0.057998009 8
1.4929012 2.5162816 0.28174695 10
1.4809601 3.4579577 0.077210106 8
1.4928604 3.6984985 0.29962778 9.5
1.5956689 -4.5407343 0.69031596 11
1.4466079 -2.4832494 0.6273374 13
1.4639817 -2.2526627 0.55923921 12.875
1.5719913 -1.9686309 0.49442038 13
1.5161555 1.0324814 0.47246674 14.2
1.570887 1.3659416 0.53508198 14.2
1.5625061 1.7403026 0.50899369 13.333333
1.5016385 2.6893618 0.52828646 12
1.5047872 3.9630034 0.54837388 11
1.5563296 4.9946294 0.54310149 10
1.4754068 -4.5521207 1.1271764 13.5
1.3979764 -4.9074411 1.2767568 14
1.4481457 -4.648633 1.3341268 14.5
1.6541775 -4.4532094 -0.037479583 7
1.8451875 -4.2709641 -0.011850338 7
1.606257 0.29217359 -0.094867833 5
1.7590406 0.57446849 -0.10285448 5.3333335
1.7594287 0.87963861 -0.10556114 5.5
1.6538572 -4.5424166 0.071623497 7.5
1.7926081 -4.2919331 0.15747572 8
1.7323426 -2.8721278 0.187162 8.5
1.8297063 -2.6511812 0.21509784 8.8888893
1.6773247 -1.8557613 0.31138161 10.5
1.9639997 -1.3258547 0.30123699 11
1.6795201 1.0203086 0.32183436 11.6
1.7181106 1.3431956 0.30797648 10.75
1.722868 1.658536 0.3410531 11
1.6827221 2.1326618 0.36804888 11
1.8744583 -4.5405293 0.60308123 10.333333
1.6826069 -2.9241452 0.56569022 12
1.7681091 -2.5306344 0.49902445 11.666667
1.7831066 -2.1945553 0.5931859 13
1.7770137 -1.8071922 0.58567101 13.6
1.9153069 -1.4125655 0.47261962 12.8
1.8522694 0.8999868 0.49772751 13.6
1.6924256 1.3569511 0.448567 12.75
1.6830248 1.9345975 0.58564711 13.5
1.7151965 2.2128961 0.55476534 12.555555
1.7417948 2.5868204 0.60692412 12.5
1.7874553 2.8292501 0.76525015 13
1.8005538 3.7664623 0.57358927 11
1.8074334 4.1923575 0.51801735 10.333333
1.851913 4.5868497 0.57429779 10.5
1.7506317 4.8833628 0.58671117 10.5
1.8792177 -4.5319066 0.80954069 12
1.7973632 2.2020402 0.83589613 15
1.8138998 2.557972 0.89770103 15
1.9860233 -4.5363441 1.3986768 15
2.3749113 0.22576053 -0.14601089 5
2.1716743 0.54033554 -0.1350081 5
2.204057 1.0809573 -0.14945744 5
2.066402 -4.4613686 0.38128003 9
2.1476398 -4.253602 0.18783773 8.25
2.0174928 -3.1109469 0.32058322 10
2.0336552 -2.5495234 0.20899753 9
2.2103679 -1.62911 0.19600098 9
2.2122271 -1.3784189 0.24072966 9.7777777
2.3334663 -1.082415 0.24532099 9.75
2.1736343 -4.5417471 0.61879212 10.333333
2.2719188 -1.8795305 0.59433925 13
2.334018 -1.0178332 0.52372396 13
2.2002656 -4.5376329 0.88770187 12
2.1731679 -4.5374427 1.3520843 14.5
2.7163672 0.87689012 -0.092815869 6.5
2.4690976 -4.9579082 0.38961145 9
2.6670461 -2.4340651 0.30886686 9.5
2.5851395 -1.0102898 0.2365032 9.666667
2.7436481 0.90763235 0.06674917 8
2.4922259 -4.9217501 0.74145752 11
2.7455409 -2.9755809 0.78464347 13
2.7440054 -1.9076239 0.6863203 12.5
2.7303975 -1.5671245 0.42270595 11
2.5686617 -0.94646788 0.64091372 13.7
2.724673 -1.9705961 0.84493405 14
2.652663 -0.895491 0.81601351 15
2.628484 -4.9355521 1.4576166 14.5
2.6407187 -4.9398928 1.6618077 15
3.1232831 1.4169985 -0.22419144 5
2.8446562 1.7132664 -0.097329006 6.5
2.9180603 2.2653265 -0.15784176 6
3.0551829 -2.954097 0.13810624 8
2.8286769 -1.0613145 0.38896576 11
2.8361533 0.91062754 0.24463874 9
2.9050598 1.8186568 0.2099198 9
2.9014335 2.1271667 0.12372353 8
2.8826303 -2.8769782 0.73903066 12.5
3.0740266 -2.6479206 0.66882563 11.5
3.1050687 -2.3325562 0.63079476 11.5
2.8408802 -1.8385881 0.62860686 12
2.9984088 -1.5702939 0.43523672 11
2.8622222 0.88274837 0.5515731 12
3.1644483 -4.9614439 1.0696146 12
3.0730963 -2.646508 0.80950791 13
2.9056318 -1.9307246 0.87127656 14
2.8921731 0.90986913 0.85733408 14.5
3.0115371 -4.9578562 1.500623 14.5
2.9217501 -4.9481435 1.6999053 15
3.4734702 0.73789799 -0.24021961 5
3.4806035 1.6269823 -0.10491303 6.5
3.3194554 -3.2946024 0.23334016 8.5
3.4000626 -2.981997 0.15238677 8
3.3611362 -2.7166812 0.039537933 7.3333335
3.5542164 0.78357232 0.19568044 9
3.5668416 1.0298624 0.28538474 9.5
3.5488849 1.41803 0.24450593 9
3.3699455 1.6271483 0.24203998 9
3.4093451 -2.2048304 0.53973007 11
3.5561252 0.79277325 0.44087031 11
3.5531187 0.84082168 0.56023484 11.5
3.5630341 1.3263153 0.53075206 11
3.278784 1.6251599 0.5150792 11.5
3.4684737 -4.9670777 1.1029761 12
3.5983894 0.78193063 0.93207812 14
3.5239806 0.85534638 0.93644094 14.5
3.5295942 1.3087871 0.86111867 14
3.489682 -4.9769902 1.4860311 14
3.3517869 -4.9637575 1.7297117 15
3.8679376 -4.9928455 -0.02348303 7
3.7391243 0.81426334 -0.11735686 6.5
3.8274004 -5.0101581 0.18362804 8
3.6568186 -3.0125892 0.24345656 9
3.7234204 0.74577612 0.23666091 9
3.639817 0.93948317 0.23590724 9
3.6212401 1.394737 0.34723544 9.666667
3.6871188 0.75867581 0.58095735 11.5
3.6173079 1.0798312 0.60236531 11.75
3.6187096 1.4176992 0.6312446 11.714286
3.6326442 1.6141343 0.75946611 12.5
3.6384771 0.76221615 1.0500394 15
3.6211514 1.0141349 1.0990698 15
3.6502748 1.3944482 0.98879802 14
3.9117281 -4.9915051 1.5358685 14
3.840652 -4.9809475 1.7440114 15
4.1464362 -4.9357891 0.13077244 7.5
4.1221581 -4.5144043 0.079545736 7.3333335
4.3096671 -4.9975605 1.3983873 13
4.2248173 -4.9914675 1.7115943 14.666667
4.471149 -5.0193 0.31941187 8
4.7091384 -3.6409814 0.13497278 8
4.8016791 -2.9834352 1.0310973 12
4.7232966 -2.6570914 1.1722436 13
4.7536855 -2.2906368 0.97367591 12
4.5835557 -4.9754181 1.238706 12
4.7162247 -4.0287662 1.2122842 13
4.7349257 -3.7482026 1.3916588 13.5
4.7225947 -3.4491272 1.5591854 15
4.8032303 -2.8425996 1.5169568 15
4.6319499 -4.9753118 1.7717721 14.5
4.7031136 -3.7693462 1.7043988 15
4.715847 -3.5872977 1.6774961 15
4.8300462 -2.8579459 1.114203 12.5
4.8620944 -1.5258569 0.91828358 12
4.8304133 -3.0253065 1.3785642 14
4.8416257 -2.7551343 1.5521578 15
4.8239136 -3.6239812 1.7072449 15
5.3356652 -5.0165334 1.3415179 12
5.4152684 -5.0256505 1.8466744 14.333333
5.9902267 -5.0711651 2.2943931 15
6.4611735 -2.9698224 2.0388658 15
7.0821829 -5.0948119 0.17256157 8
7.5351925 -5.1194496 0.12295037 7.5
7.2957573 -1.876382 2.243715 15
7.292273 -1.5248336 2.2518723 15
7.3836555 0.35303056 2.2416029 15
7.3333445 1.0323762 2.0138466 15
7.902534 -2.6454608 -0.30462322 6
7.884038 0.65074009 1.8415381 14
7.7955823 0.98189503 1.8508185 14
7.6701317 1.3067077 1.8538193 14
7.8662047 -1.4923546 2.2060466 15
7.7273693 0.46966481 1.9965756 14
7.9070082 -4.8468003 2.4762833 15
8.3327322 -3.0921659 -0.15381759 6.5
8.2535973 -2.5305276 -0.1944699 6.6666665
8.3663425 -2.2895281 -0.20031232 6.5
8.2533522 -2.9199638 0.22558612 7.6666665
8.2445965 -2.6048763 0.17583953 7.5
8.3857431 -2.2862728 0.10904054 7.5
8.3884449 -2.9623513 0.62025982 9
8.193469 -5.0149827 0.95097643 10
8.1805983 -5.0094862 1.2225977 11
8.4006252 -1.2111566 1.8346882 13
8.3582382 -0.93162316 1.8382149 13
8.2577257 -0.56344414 1.8368605 13
8.2176256 -0.23222984 1.8921132 13.333333
8.1579657 0.23211974 1.8635513 13.333333
8.252821 1.073428 1.9125837 13.666667
8.2759409 1.4277953 1.8085868 13
8.1680593 -0.021720368 2.0085249 14
8.171834 0.15106784 2.037421 14
8.7178764 -2.1974108 -0.3735137 6
8.4372387 -2.8134325 0.6220724 9
8.4185696 -2.5864248 0.58533722 9
8.419611 -2.3479009 0.66211772 9
8.4124928 -2.8953865 0.89624816 10
8.4343424 -2.5252891 0.95967424 10.333333
8.4642515 -2.3296871 0.98761094 10.5
8.4521856 -2.8366222 1.4366469 11.5
8.487772 -2.5347271 1.4518833 11.5
8.5023508 -2.2263479 1.4674125 11.5
8.4640322 -2.9520416 1.8049685 13
8.4786253 -2.6561682 1.8114347 13
8.4924078 -2.2846079 1.7471222 12.666667
8.4916134 -1.7420307 1.8340528 13
8.4248877 -1.4001651 1.8320196 13
8.4549122 -0.64772713 1.9741231 14
8.6627331 0.61243588 1.7919053 13
8.5025587 0.98179621 1.8009739 13
8.8812637 -2.2064061 0.36259621 8
9.1143646 -2.2196441 0.52502352 9
8.9746799 -2.2133548 1.1644716 11
9.0914803 -2.2015574 1.7903092 12.5
9.006443 -1.7614623 1.9361151 13
9.0403433 -0.2525185 1.9357791 13
9.0873823 1.150059 1.9155549 13
8.9558725 1.4884564 1.8350856 12.5
8.9616089 1.644558 1.7476449 12
9.5190115 -2.2008989 -0.11863481 7
9.390152 -2.192086 0.18267503 8
9.5925083 -2.2471039 0.73291028 9
9.3811264 -2.2352853 0.99585956 10
9.5248718 -2.235657 1.4807073 11
9.5478458 -2.1173594 1.7528157 12
9.4573669 -1.7718462 1.7557713 12
9.318738 -1.3184936 1.7576647 12
9.3513985 -1.0476573 1.8341248 12.5
9.2324553 -0.7244696 1.8464936 12.5
9.5336018 0.59366131 1.806847 12.5
9.3399258 0.9529314 1.7878612 12.333333
9.2041454 1.2546226 1.7346963 12
9.4994268 -0.020704545 2.7329659 15
9.5031309 0.20180881 2.7587945 15
9.5914583 -2.8488855 2.9246213 15
9.5701303 -2.6117392 2.9290645 15
9.6968861 -2.2260766 -0.43403855 6
9.7150373 -2.2285717 1.824905 12
9.866497 -1.8147702 1.8948578 12
9.7531633 -1.5710416 1.9021719 13
9.908905 -0.023241345 1.6979401 12
9.8091993 0.16186951 1.7988999 12.5
9.6902895 0.42415524 1.7107527 12
9.9564896 1.7754593 1.8675154 12
9.9767408 -1.6891382 2.7167416 15
9.9322348 -1.3220613 2.7293184 15
9.8107185 -0.95218277 2.7261677 15
9.7302332 -0.59893543 2.7360935 15
9.6157446 -0.24688269 2.7388465 15
9.6388121 -3.8285406 2.9051397 15
10.330012 -2.2749474 -0.32251281 6
10.354724 -2.2717957 1.0879976 10
10.385231 -0.98244315 1.6806357 12
10.216068 -0.59948248 1.7494354 12
10.030223 -0.25218651 1.6934108 12
10.257914 -4.6862907 2.7247148 14
10.15601 -2.6007895 2.7194748 14
10.135632 -3.7215734 2.8421624 14
10.049837 -2.4244485 2.8596706 15
10.616025 -2.2210796 -0.1479985 7
10.422181 -2.2097185 0.18992354 8
10.765597 -2.2881236 0.79364854 9
10.680996 -2.2692475 1.6299835 11
10.737327 -1.7734697 1.6706054 11
10.621953 -1.5040857 1.6739647 11
10.795898 0.67991251 1.6401289 11
10.546483 1.0184681 1.749121 11.5
11.010385 -2.2724442 -0.56541735 5.5
11.017369 -2.2682719 0.39801008 8
10.853715 -2.05302 1.6680341 11
10.843191 -1.6059194 1.8609679 12
11.082999 0.27949387 1.7271138 11.5
10.921152 0.53252673 1.7360866 11.5
11.350203 -4.6231813 -0.47548875 6
11.357351 -4.6021757 -0.12344514 7
11.458454 -4.5574727 0.20016867 8
11.421217 -2.2973857 0.017515147 7
11.550524 -2.2980855 0.61766285 9
11.441924 -2.2925282 1.4221903 11
11.384547 -0.11628142 1.7214787 11.5
11.836772 -2.2819259 -0.81590933 5
11.932581 -0.70315993 -0.80988008 5
11.703643 1.276493 -0.9499746 5
11.808665 -2.14255 -0.64396358 5.5
11.831656 -1.766293 -0.61697984 5.5
11.833189 -1.4169905 -0.57762015 5.5
11.848468 -1.0218457 -0.59040552 5.3333335
11.878969 -0.57654077 -0.68276727 5.5
11.895412 -0.16156004 -0.64078408 5.5
11.904479 0.19929266 -0.50711781 6
11.924947 0.59120393 -0.48051038 6
11.941526 0.91258907 -0.42664951 6
11.833848 -2.1381912 -0.27480224 6.5
11.847465 -1.8097168 -0.12943208 7
11.857152 -1.3805485 -0.22741918 6.3333335
11.87203 -0.97413164 -0.1694286 6.75
11.882125 -0.53608298 -0.26239991 6.5
11.895618 -0.16398641 -0.24069583 6.5
11.929499 0.33275193 -0.099721834 7
11.941607 0.63087219 -0.053448502 7
11.953158 1.1865845 -0.40166762 6
11.832039 1.3504962 -0.18363982 6.5
11.831875 1.8927495 -0.33689329 6
11.807573 -2.1225374 0.21310057 8
11.867676 -1.8475885 0.18478037 7.5
11.886779 -1.4231234 0.23445272 7.6666665
11.908457 -0.93243945 0.28908861 8
11.910577 -0.56351733 0.22564086 7.6666665
11.920924 -0.23461467 0.16978347 7.5
11.957339 0.23955816 0.3120628 8
11.971826 0.61298215 0.32486111 8
11.970592 1.0811405 0.1637627 7.5
11.952999 1.4633081 0.043169808 7
11.904298 1.7667503 0.15182011 7.3333335
11.761124 2.1176841 0.11064266 7
11.909902 -1.8701391 0.56428242 8.5
11.911205 -1.3977599 0.48930752 8
11.971784 -0.99009418 0.77614707 9
11.938954 -0.48070762 0.53593725 8.5
11.968692 -0.24247903 0.67393732 9
11.97471 0.099743582 0.65930772 9
11.989561 0.56219286 0.65010786 9
11.990582 1.1828806 0.42279619 8
11.702815 1.4329679 0.58006757 8.5
11.864253 1.8484319 0.61546427 8.5
11.836572 2.134999 0.54831469 8.5
11.90491 -2.1260939 0.86580604 9
11.919855 -1.7158747 0.89714336 9
11.951899 -1.3566796 0.98426086 9.5
11.945127 -1.1770902 0.9399516 9
11.981507 -0.69133127 1.0508929 9.5
11.755023 1.4317013 0.98781508 9.5
11.807461 1.8511997 1.0303187 9.5
11.832706 -2.2127645 1.2119668 10
11.953757 -1.8285937 1.3811053 10.5
11.976447 -1.414234 1.4136924 10.5
11.987462 -0.92384964 1.3043699 10
11.995415 -0.52390236 1.3289332 10
11.845192 1.4028397 1.4284338 10.5
11.966771 2.0528865 1.2096534 10
11.987701 -1.2794143 1.7887781 11
11.977157 -0.95912939 1.596756 11
11.845755 -0.66380012 1.6103061 11
11.618354 -0.37459609 1.6151245 11
12.000584 0.58398902 0.75345397 9
12.012029 0.95629823 0.6815111 9
12.020671 1.220721 0.70231855 9
12.000689 -0.16828552 0.86920518 9
12.015961 0.42972246 1.0722648 10
12.036243 0.96182489 1.1203142 10
12.013464 -0.50414747 1.4743327 11
12.020186 -0.086037822 1.4206759 10.333333
12.039358 0.25708294 1.3848255 10
12.044338 0.64197183 1.4131145 10
12.059303 1.0369226 1.4416031 10
12.079247 1.446455 1.4703364 10.5
12.104197 1.8536501 1.5018061 11
12.11083 2.1251395 1.5224597 11
12.100077 1.3096784 1.7444161 11
12.095384 1.8380338 1.8232551 11
