# .PCD v0.7 - Point Cloud Data file format
VERSION 0.7
FIELDS x y z intensity
SIZE 4 4 4 4
TYPE F F F F
COUNT 1 1 1 1
WIDTH 75
HEIGHT 1
VIEWPOINT 0 0 0 1 0 0 0
POINTS 75
DATA ascii
-6.399797 -4.4915709 0.15385173 8
-4.0369744 3.1500602 0.26288265 8.5
-4.0511079 2.2152522 0.43470246 10
-4.0513062 2.41431 0.62993819 11
-2.5372145 2.327723 0.45775512 10.5
-2.0808604 2.4798594 0.53197938 11.5
-1.7124286 -0.63109994 0.33509475 12
-1.5671233 -0.96572697 0.48006782 14
-1.446166 2.2776949 0.45519063 12
-1.4851575 2.2590663 0.60101116 13
-1.2219201 5.1404853 1.557848 15
-1.0531721 2.2897465 0.3750366 11
-1.0942063 2.3168349 0.50924712 13
-0.93386227 -1.2384846 0.39980271 14
-0.90594757 -1.1480283 0.40164414 15
-0.99220967 2.3234313 0.46370402 12
-0.95161521 4.886117 0.47861826 10
-0.79631275 2.4313378 0.50591612 13
-0.79129297 2.4028864 0.60824573 14
-0.53046852 -1.6529652 0.32361141 12
-0.46901324 3.1595802 0.78408641 14
-0.40288743 5.1728692 0.52727038 10
-0.14706071 -1.5540546 0.31033784 12.5
0.049772717 -1.9066498 0.27687371 11
0.30800828 5.2560506 0.96232104 12
0.52238137 0.86670876 0.076696225 9
0.52159637 1.0482193 0.22214752 12
0.525576 1.2309624 0.34819749 14
0.5933575 4.8791051 0.20596436 8
0.54610288 4.8817677 0.40523991 9
0.69283396 0.94727868 -0.024593789 6
0.67500556 -4.2777443 0.16516644 8
0.71237004 1.0394684 0.019414686 7
0.64624208 -2.4063399 0.27399841 10
0.66818285 -4.5276213 1.0929241 14
0.66409689 5.1532845 1.0989825 13
0.71016556 -4.5187335 1.24508 15
0.60011238 5.1077709 1.5427284 15
0.9291048 3.053076 0.49216354 11
0.89336824 4.8991194 0.5606696 10
0.88518345 -4.496038 0.60720026 11
0.91468537 3.4925232 0.60659873 12
1.56134 -1.4401646 0.2041205 10
1.5360727 -1.1595974 0.26615798 11
1.5450788 -1.1749982 0.40229294 13
1.6350094 -1.0980016 0.36171454 12.5
1.6169108 -0.98663872 0.26082239 11
1.8618926 -0.97844887 0.43705779 13
2.077611 0.92382479 0.37534624 11.5
2.1864171 1.6666698 0.32189083 10
2.0820878 0.94280338 0.46022859 13
2.0800703 0.95236742 0.60642523 14
2.2954814 1.5938944 0.39167425 11
2.254473 1.5982271 0.45565525 12
2.2163565 1.7107201 0.63340348 13
2.4094315 1.6260248 0.71081042 14
2.7922208 0.8119083 0.29835659 10
2.7944729 1.6047844 0.36375132 10
2.8222353 0.80293983 0.19755633 9
2.8104639 1.6227427 0.2400105 9
3.0574973 -4.902082 1.7194755 15
7.6817756 -2.9996848 0.70570272 9
7.7028656 -2.0363872 0.79466921 10
7.6958623 -2.0831499 1.5666234 13
7.8937864 -1.9748586 1.1546146 11
10.926225 1.9363469 -0.61803621 5
10.891459 1.6372651 0.12449984 7
10.916448 1.5852326 1.1325191 10
11.184802 1.3016422 -0.30579171 6
11.172504 0.48965278 0.65591329 9
11.167061 -0.1240218 0.98380172 10
11.198709 1.3550119 0.41276535 8
11.215414 -0.48798937 0.82004654 9
11.222465 1.5892023 0.8096565 9
11.26055 1.4478065 1.5732182 11
