# .PCD v0.7 - Point Cloud Data file format
VERSION 0.7
FIELDS x y z intensity
SIZE 4 4 4 4
TYPE F F F F
COUNT 1 1 1 1
WIDTH 210
HEIGHT 1
VIEWPOINT 0 0 0 1 0 0 0
POINTS 210
DATA ascii
0.0057752454 -0.94519556 -0.001512595 155
0.13517211 -0.96676219 -0.0031170624 155.5
0.17200345 -0.82180798 -0.0031069233 160
0.28240395 -0.83023179 -0.0053599263 167
0.39130697 -0.83636576 -0.0073912218 169.66667
0.49822032 -0.82455313 -0.0084870923 174.33333
-0.055069566 -0.78490615 -0.00020298653 163
0.16996062 -0.7346828 -0.006626775 171.5
0.28033781 -0.72761661 -0.011678157 180.5
0.39205587 -0.72924638 -0.015181702 187.25
0.48688972 -0.73799521 -0.011600916 186.60001
0.5878104 -0.73784792 -0.014258492 184.66667
0.64361608 -0.74987382 -0.018867165 181.5
-0.41799608 -0.65729904 -0.00083953148 153
-0.071385495 -0.61750251 -0.0030878896 167
0.021037592 -0.64853537 -0.002965803 169
0.10948908 -0.68910062 -0.011339158 174
0.22309907 -0.62967402 -0.012594123 185.60001
0.34461054 -0.6300692 -0.0082830042 188.54546
0.47359037 -0.64264309 -0.011543228 191
0.5704245 -0.6694023 -0.020232681 191.2
0.65950334 -0.64696896 -0.024489842 190.33333
0.74807781 -0.61949593 -0.02416067 191.66667
-0.14260025 -0.55252558 -0.0024128489 168
-0.052721497 -0.59160227 -0.0020173476 168
0.056114402 -0.53975302 -0.0062767752 181.28572
0.16461772 -0.54787546 -0.0077957995 185.625
0.24914576 -0.52559346 -0.010679999 185.11111
0.35423023 -0.54094154 -0.011363704 185.875
0.46181509 -0.55457103 -0.013501208 186.71428
0.54708159 -0.55397481 -0.016751837 188.25
0.6302399 -0.53170002 -0.017228529 190.25
0.7495206 -0.55287999 -0.031918447 191.8
0.81283033 -0.55230629 -0.028477971 191
-0.053607844 -0.45782983 -0.0009532863 170
0.064147212 -0.43854794 -0.024271168 181.91667
0.15068077 -0.46791717 -0.024444088 182.40909
0.24912378 -0.4572497 -0.038223088 181.0625
0.36433491 -0.46353528 -0.032250434 180.86957
0.45202431 -0.45838997 -0.028097428 181.76923
0.5322684 -0.44016439 -0.020571873 182.82608
0.64874339 -0.45212299 -0.015384559 186.875
0.74083543 -0.43222427 -0.017945688 188.75
0.86102206 -0.47527876 -0.036398571 191.25
0.036997806 -0.38774943 -0.01438887 181
0.15874347 -0.34702584 -0.027365094 177.45833
0.25262436 -0.34240595 -0.043121487 174.18605
0.35466287 -0.33656493 -0.038845763 171.42857
0.45277488 -0.3364459 -0.030889727 172.32143
0.55540735 -0.34468272 -0.03201006 174.33333
0.64673388 -0.34664115 -0.019097339 179.08333
0.74788314 -0.36499399 -0.018372018 186.42857
0.066421583 -0.26531351 -0.046581417 175.77777
0.1285162 -0.22878316 -0.063210241 170.60001
0.2533206 -0.24630092 -0.057934042 167.35001
0.34766415 -0.24501497 -0.06145113 169.60001
0.44900584 -0.25162828 -0.070784286 170.48438
0.54153579 -0.24444599 -0.045821566 172.11111
0.63977855 -0.26184297 -0.033744607 173
0.17583682 -0.1761535 -0.050350577 166.58333
0.25715774 -0.14919892 -0.048358947 166.65883
0.35401729 -0.14120787 -0.051907379 167.75
0.44728777 -0.13879609 -0.056710139 169.35065
0.54207158 -0.16295534 -0.072806671 171.36957
0.28554302 -0.089756534 -0.064430498 166.44444
0.37109554 -0.048913736 -0.065336846 167.47112
0.42395642 -0.04656272 -0.05593599 168.0351
0.375422 0.05205721 -0.065119632 168.08235
0.42464033 0.047094464 -0.057650957 168.57675
0.51501298 0.088819832 -0.073446229 170.39999
0.26786268 0.16106701 -0.051930033 169.06
0.3474969 0.14011815 -0.056618784 168.42592
0.4405728 0.14265417 -0.063844569 169.89536
0.5503214 0.15556094 -0.080834128 173.11111
0.62004483 0.17462833 -0.042021327 177.7
0.1638492 0.2695646 -0.070307769 174.18182
0.25038153 0.24589823 -0.065846331 172.3421
0.34740993 0.24434794 -0.074661277 172.15555
0.45001069 0.25254333 -0.078936599 173.41936
0.53838927 0.2427177 -0.055527087 176.84314
0.65576249 0.25178599 -0.049862664 181.64
0.72726351 0.25671613 -0.037280932 186
0.062142868 0.36769441 -0.051565386 182.22223
0.15329663 0.33187434 -0.048058029 178.10715
0.24872121 0.33809644 -0.057132196 176.8421
0.34198442 0.33813274 -0.058184102 177.42105
0.43630973 0.33336174 -0.046572153 178.63889
0.55157572 0.35945103 -0.0524997 182.3
0.63660866 0.34461612 -0.043155633 185.2
0.7540943 0.34770286 -0.037506521 190.58333
0.83193874 0.33561969 -0.038354512 193.2
0.90886599 0.38972881 -0.06204921 197
-0.034763295 0.47061417 -0.034611333 190
0.052660614 0.43294761 -0.034120191 186.47368
0.14304362 0.44901994 -0.048935577 184
0.25252751 0.46935681 -0.051953956 183.91667
0.34517995 0.45571622 -0.05394762 183.13333
0.43817267 0.45169523 -0.04745635 183.69231
0.54099512 0.43640009 -0.038731489 186.23529
0.65462267 0.46806362 -0.044579372 190.7
0.7399894 0.43648547 -0.043974828 192
0.85293764 0.44732022 -0.053544223 196.2
-0.13099544 0.57975429 -0.044194598 189.2
-0.053105552 0.52232432 -0.031296868 193
0.050582487 0.55165493 -0.036189202 190.66667
0.15838607 0.55746108 -0.035358779 189.11111
0.25334579 0.54697621 -0.034295395 188.54546
0.34045154 0.557567 -0.043758199 189
0.45026347 0.55907893 -0.040574487 189.60001
0.55813158 0.54943722 -0.042955831 192.16667
0.62682128 0.52609897 -0.039301403 194.2
0.74017799 0.56455988 -0.054868318 195.66667
0.81893694 0.53135163 -0.056460898 198
-0.21911998 0.67771214 -0.045185473 176.66667
-0.17942628 0.63361228 -0.044832833 182
-0.053981729 0.64138556 -0.047310319 187.66667
0.044183552 0.66988158 -0.049367119 188.16667
0.1554721 0.64359409 -0.040904786 190.33333
0.24586676 0.64540279 -0.041191868 190.33333
0.33381096 0.63873428 -0.047310714 189.5
0.43120873 0.63762867 -0.04298149 190.60001
0.5676325 0.65910476 -0.054174483 192.71428
0.66476643 0.63943386 -0.054414693 193.16667
0.74053007 0.65577149 -0.057255276 190
-0.3053641 0.77361315 -0.046263918 165
-0.26719239 0.7315622 -0.047317497 173.5
-0.12744774 0.74649179 -0.046166513 176
-0.038590856 0.75203979 -0.054530151 180.66667
0.013238225 0.72897613 -0.048709121 182
0.12549445 0.73291391 -0.052359633 186.2
0.22790246 0.73979819 -0.054929793 190.2
0.32759351 0.73505664 -0.058343749 190
0.41980314 0.73142201 -0.050239064 188.39999
0.51620913 0.73491126 -0.051301938 186
0.61992157 0.74199897 -0.056357209 188
-0.360055 0.83053386 -0.031848922 166.60001
-0.21325882 0.86198729 -0.023256022 152.83333
-0.18858561 0.83800149 -0.057159819 167
-0.052849695 0.85029215 -0.036488973 151
0.075686596 0.86298758 -0.043144178 166.85715
0.14670262 0.85209346 -0.058219567 176
0.20590311 0.84246963 -0.059533078 179.5
0.31947851 0.85170549 -0.069182388 182
0.42406228 0.83203459 -0.052589122 178.5
0.5313825 0.82382792 -0.052385706 177.66667
-0.11939529 0.9731518 -0.025700282 107
-0.087587543 0.92447543 -0.052956749 186
0.037623115 0.95094091 -0.018440872 131.75
0.17791656 0.97314411 -0.065383047 165.66667
0.31407726 0.93957537 -0.080288857 174
-0.3037028 -0.92612249 0.027666582 146
-0.29235807 -0.9129535 0.0200863 150
-0.13902266 -0.92996222 0.015713723 154.5
-0.0024496114 -0.954952 0.017125985 153
0.012290804 -0.92458797 0.0055126757 156
0.12904617 -0.97948891 0.0091403062 157
0.26951349 -0.92700124 0.00017045357 159
-0.42242077 -0.84373748 0.020640796 142.66667
-0.24894901 -0.85633147 0.011007623 155.75
-0.11595913 -0.89228392 0.0061499309 157
-0.086725414 -0.83809561 0.0094030332 159
0.050818652 -0.82495868 0.0094535789 160
0.15833475 -0.86899996 0.0039942274 159.66667
0.27537861 -0.8684141 0.0049855737 161.5
0.38902795 -0.87384129 0.003809938 165
0.49947885 -0.85104024 0.00171705 168
-0.53557277 -0.75046951 0.021456372 141
-0.34811971 -0.76773417 0.008968302 154.25
-0.16002764 -0.73452705 0.011006353 163.2
-0.044247083 -0.76129669 0.0094885211 162.25
0.083926134 -0.74457502 0.0040001185 165
0.1911543 -0.74281102 0.00081961305 168
0.28863415 -0.76436329 0.0015989008 172
0.38832688 -0.75348973 0.0014790798 177.5
-0.44718742 -0.67936301 0.010669706 152.33333
-0.36805859 -0.61413777 0.0097049717 159
-0.24565183 -0.65894604 0.0096062282 162.39999
-0.11757163 -0.67756617 0.0071718767 170
-0.053179886 -0.65575743 0.0092157004 167.2
0.0054458706 -0.67493004 0.0012843153 166
0.13260308 -0.62112433 0.0049288375 180
0.22341447 -0.61553729 0.0012573182 186.5
-0.32635158 -0.58002448 0.0077002463 164.66667
-0.26080856 -0.52447587 0.01537588 168
-0.15950742 -0.56823504 0.0069606975 167.2
-0.011302784 -0.53182858 0.007722015 172.60001
0.056231409 -0.58067 0.0072590304 176.66667
0.12943947 -0.56392038 0.0021939913 184
-0.22133991 -0.49223769 0.01321716 170
-0.16402079 -0.44207159 0.028796831 167
-0.045243919 -0.44689766 0.0077802674 174.2
0.042848613 -0.45914578 0.0030114951 183
-0.10138905 -0.38492709 0.058845162 164
-0.061641276 -0.34889758 0.076596946 152
0.043493032 -0.3516598 0.012827572 181
0.055744935 -0.26357725 0.011602545 156
0.14187893 -0.23444696 0.06058884 160.66667
0.1977874 -0.16860764 0.095873132 128.5
0.20867355 -0.17305569 0.090428106 128.33333
-0.36368689 0.82031798 0.023371533 120.25
-0.22469214 0.85194987 0.055071399 106
-0.0023373233 0.99379021 0.083644904 116
0.13901575 0.97492731 0.096140467 135
-0.011957994 -0.30325565 0.10217644 131
0.16171922 -0.20070495 0.12109628 154
0.1669184 -0.17663978 0.1243739 129.77272
-0.24371409 0.85244823 0.134335 90.428574
0.15195154 0.8500579 0.15959527 127
-0.010485598 0.99097949 0.12220006 107.75
0.13807206 0.91220343 0.15922214 159.125
