# .PCD v0.7 - Point Cloud Data file format
VERSION 0.7
FIELDS x y z intensity
SIZE 4 4 4 4
TYPE F F F F
COUNT 1 1 1 1
WIDTH 67
HEIGHT 1
VIEWPOINT 0 0 0 1 0 0 0
POINTS 67
DATA ascii
-6.0698137 -4.8920889 2.3297031 15
-5.1556888 -4.9171371 2.1538126 15
-4.9006653 3.165787 0.22883344 8
-4.8493218 4.9665089 1.4089429 13
-2.4457395 2.2412241 0.42756906 11
-1.7943405 3.6860065 0.40566054 10
-1.4155003 2.851161 0.57507861 12
-1.447708 2.9454575 0.76169789 14
-1.5126541 2.8447633 0.86938995 15
-1.2870523 3.1722326 0.92911971 15
-0.83779186 -3.0022962 0.26626185 9
-0.80825394 -1.7032732 0.28594691 11
-0.91325098 0.92922384 0.38883153 15
-0.82214749 -1.8939561 0.48051044 14
-0.92392707 -1.632393 0.45711738 13.5
-0.8995114 -1.5889763 0.52330166 15
-0.66688478 -2.9610503 0.35188597 10
-0.66293234 -2.9547744 0.42516622 11
-0.56905431 -2.9664917 0.67358875 13
-0.58406746 -3.0277569 0.82231706 15
-0.061882142 1.0938048 0.17995311 12
0.30021608 1.0630149 -0.069574058 5
0.27589747 -2.7548156 0.32980487 10
0.76431423 -1.314292 0.28314188 12
0.70417285 -1.2608714 0.43258837 15
0.94721228 -1.4548781 0.19470108 10
0.89890701 -0.97398454 0.33296683 14
1.1041977 0.94988757 0.16770552 10
1.033883 -0.98565543 0.40044332 15
1.2482892 0.90524143 0.36668426 13.5
1.2277495 0.89483714 0.46110934 15
1.3621347 1.7032737 0.54355091 14
1.3395177 1.9713289 0.51442635 13
1.3433772 2.1320226 0.44315496 12
1.413988 1.6226022 0.36664078 12
1.4642779 3.042737 0.59332401 12
1.6550176 1.6073954 0.34476122 11
1.6319426 1.6095557 0.47696134 13
1.9719042 1.6482258 0.46867076 12
1.9814905 5.1398339 1.4084834 14
2.0402269 0.83255845 0.32567725 11
2.0946968 0.83781511 0.67517632 15
6.8723536 -2.0375032 -0.13294467 7
6.98208 -1.9610921 0.2117283 8
6.9138794 -2.0211878 0.70102495 10
6.9465013 -1.9596485 1.2684883 12
6.8917265 0.12171208 2.0915871 15
7.0499864 -1.9642181 0.38865447 9
7.0106435 -1.9552877 0.99909884 11
7.0951905 -1.9636742 1.8462229 14
7.2865458 -0.63094771 2.1309156 15
7.7906246 1.1142105 2.0807076 14
9.2889347 2.7696366 -0.038723014 7
9.2085028 -0.53516328 2.0153382 13
9.9090948 3.1408513 0.73957449 9
10.075981 1.6778867 0.27715632 8
10.400401 -1.8492873 -0.59831548 5
10.322216 -0.84357631 -0.48612717 6
10.392286 0.040542975 -0.5920049 5
10.284364 1.5906546 -0.24193685 6
10.369325 1.4579003 0.099660523 7
10.385117 -0.54801971 0.92241782 10
10.355141 2.1405714 0.86993146 9
10.390468 -0.13497908 1.2643328 11
10.431432 1.5541465 1.5405747 11
10.411557 -0.46011892 1.7640067 12
10.424095 1.7448784 1.7630078 12
