# .PCD v0.7 - Point Cloud Data file format
VERSION 0.7
FIELDS x y z intensity
SIZE 4 4 4 4
TYPE F F F F
COUNT 1 1 1 1
WIDTH 59
HEIGHT 1
VIEWPOINT 0 0 0 1 0 0 0
POINTS 59
DATA ascii
-6.5823479 -4.5510321 0.052164387 7
-4.3077688 2.503094 0.24754238 9
-4.3628879 3.1597688 0.2561627 8
-4.3192091 2.5651455 0.54308391 10
-2.8351021 2.2039194 0.51070827 11
-2.3362222 2.3562279 0.57713592 12
-1.9299242 2.1720483 0.39333645 11
-1.7282317 -1.0161712 0.27095374 11
-1.800279 -0.73226041 0.27185589 11
-1.6991767 2.3356764 0.54887903 12.5
-0.77860671 4.8347878 0.56709015 10
-0.41619861 -1.576561 0.31100443 12
-0.58823591 2.9946504 0.51664186 12
-0.57171911 3.0071208 0.84754026 15
-0.45667508 5.0972447 1.2730587 14
-0.34870595 5.089922 0.60754621 10
-0.19913888 -4.909554 -0.047391701 7
-0.16614968 -1.5550925 0.27567726 12
-0.010398682 -1.9179534 0.48696718 14
-0.11144237 -1.6745975 0.48998678 15
0.16230226 5.1131635 0.60000306 10
0.19257681 -2.9449925 0.61821288 13
0.12322151 5.2299342 0.64223456 11
0.059395507 5.2646084 1.2063557 14
0.6073069 1.0918645 0.16309741 11
0.75244147 -4.2515826 0.51278758 10.5
0.68291438 2.0581362 0.51831722 14
0.94885939 -4.4578614 1.2798864 15
1.1057999 -2.8759601 0.45762485 11
1.006471 -1.7132171 0.55441844 15
1.1311907 -4.4462943 1.0508832 13
1.3487475 -1.3326296 0.32281452 12
1.4942291 -0.98393124 0.29658967 11.5
1.646589 -0.83335555 0.37641263 13
1.8410071 -2.387742 0.26172644 10
1.8873024 1.0731752 0.36195856 12
1.893208 0.99175501 0.43574801 13
1.8940417 1.0604367 0.54274392 14
1.8819546 1.0133328 0.60755241 15
2.0826743 1.7161138 0.49350899 12
2.0465763 1.7442067 0.78659773 15
2.4528806 1.7270037 0.57962686 12
2.5995276 0.98918307 0.21687102 9
2.6053636 1.01521 0.32678708 10
2.6081505 1.7599485 0.39043161 11
2.6122489 0.96472132 0.41135952 11
2.6093733 1.7936215 0.92128617 15
7.6286807 -1.6783153 -0.27594414 6
7.6430626 -1.6673137 0.835392 10
7.6928148 -1.7421976 1.0137794 11
7.6881986 -1.7225178 1.4351622 12
8.716692 0.35513008 2.242234 14
10.673751 2.1285162 0.63078773 9
10.993519 2.0761809 1.4831101 11
10.821931 2.4177182 1.849401 12
11.020647 -0.52965844 -0.37829688 6
11.023447 0.5319106 1.0168709 10
10.998044 1.9212641 1.1390895 10
11.036205 0.7205686 1.8494731 12
