# .PCD v0.7 - Point Cloud Data file format
VERSION 0.7
FIELDS x y z intensity
SIZE 4 4 4 4
TYPE F F F F
COUNT 1 1 1 1
WIDTH 215
HEIGHT 1
VIEWPOINT 0 0 0 1 0 0 0
POINTS 215
DATA ascii
-4.0977755 9.3199902 1.1340561 13
-4.2000227 9.3177328 1.3750157 13
-4.2474232 9.2998819 1.7835996 14
-3.7111726 9.4035721 0.45086953 11
-3.7285326 9.3224792 0.89637107 12
-3.8440588 9.4912348 1.4432594 13
-3.9984868 9.3480978 1.7874748 14
-3.239589 9.3608303 0.90515447 12
-3.5383317 9.4999542 1.4558637 13
-3.0970533 9.3524179 -0.085551925 9
-2.8541737 9.3493757 0.51792991 11
-3.1168299 9.3746872 1.1218668 13
-2.8582413 9.5206032 1.3441712 13
-2.8026466 6.9048538 0.049271144 10
-2.7695577 6.4187937 0.5481953 12
-2.6477284 9.4113731 0.49721387 11
-2.5812321 9.0051289 0.98935902 12.5
-2.7761166 9.4967909 1.2523972 13
-2.5882747 9.1182852 1.8611647 15
-2.135879 7.0897136 0.052168634 10
-2.2856824 7.5282369 -0.020898784 9.333333
-2.0931118 8.9835215 -0.066653326 9
-2.2408624 9.0117168 0.62421089 11.666667
-2.2462566 9.0219536 0.99276054 12.5
-2.175071 9.1294222 1.3293139 13.333333
-2.3285124 9.2075405 1.9835024 15
-1.6249405 2.6510448 0.13502558 10.5
-1.6407273 2.918695 0.090010971 10
-1.6248401 2.6744001 0.36407703 12.6
-1.6258311 2.9348943 0.33204317 12.333333
-1.9475981 5.9477262 0.18791844 10
-1.9682914 7.0329266 0.036410742 9.5
-1.8947982 7.3189168 -0.05942576 9.5
-1.6816535 8.7309418 -0.20617637 9
-1.6442038 2.6690328 0.60938329 15
-1.6523619 2.9794922 0.63035756 14
-1.7738134 7.481287 0.48548058 11
-1.907258 9.0440226 0.48505214 11
-1.9715466 9.1052408 1.1739453 13
-1.3961706 -0.41106814 0.37578446 13.5
-1.5315186 -0.3023493 0.37993822 13.5
-1.5486789 1.9939487 0.18897089 11
-1.5605148 2.1958241 0.19068517 11
-1.45499 -0.40862164 0.48020133 15
-1.5307347 -0.29067373 0.47790286 15
-1.5422324 1.9626821 0.39920923 13.5
-1.5463307 2.238533 0.3957898 13.3
-1.5597466 2.5546212 0.38564765 13
-1.5880947 2.9615457 0.39368129 12.5
-1.4817843 3.6080315 0.28302684 11.5
-1.3869758 3.6577044 0.40836751 12
-1.5205759 6.7895021 0.12119335 10
-1.4386859 6.9084034 0.084763944 10
-1.5139719 9.3619223 -0.17371146 9
-1.4422213 2.8136752 0.69434339 15
-1.543538 3.0414374 0.72610903 15
-1.4921111 3.623755 0.58021611 14
-0.8273719 -0.57683003 0.04048273 7
-1.0328428 -0.46765158 0.26638222 12
-0.8730045 6.4525723 -0.025110761 9
-0.61386287 -0.54975641 0.043189876 7
-0.44525257 -0.35375193 0.023192307 7
-0.56984973 -0.51386636 0.048867948 7
-0.47029954 -0.28217685 0.026536608 7
-0.50846368 3.5716853 0.33689049 12
-0.67565244 6.144609 0.0057163327 10
-0.50900275 3.5922239 0.51409012 14
-0.15070568 -0.57413864 0.04235496 7
-0.35578474 -0.35303563 0.021939823 7
-0.089552134 -0.57286251 0.13615401 11
-0.37625408 -0.36048803 0.031942289 7
-0.037908718 1.1761771 -0.093305372 7
-0.12305732 1.4122515 -0.11210614 7
-0.035471521 1.8388684 -0.068548396 8.5
-0.14538313 2.4640291 -0.21076727 7
-0.31312487 1.4491061 0.31089076 15
-0.31588864 3.5888402 0.32764477 12
0.25594234 -0.49227273 0.025016714 6.25
0.35592183 -0.36868536 0.005669069 5.5
0.36649841 0.34144461 -0.060710948 5
0.28004241 0.55325341 -0.07553564 5.75
0.2996023 1.1561335 -0.12616141 6
0.27815744 1.3939246 -0.13930364 7
0.2469627 1.7811236 -0.17350279 7
0.22077584 2.109983 -0.20359698 7
0.18893762 2.5686615 -0.26164979 7
0.16177593 2.9099128 -0.29289919 7
0.13349487 3.3084936 -0.34121993 7
0.1794364 -0.57933313 0.14737095 11.148149
0.23629448 0.62523746 -0.00048703075 9.3999996
0.15546273 1.002175 0.00046353953 9.5
0.053377498 1.4970264 -0.093219452 7.5
0.22761208 1.868328 0.36340794 14.75
0.25361225 2.2236629 0.31866312 13.5
0.44802216 -0.48037991 0.017912395 6
0.45394635 -0.25978187 -0.038021319 3.8333333
0.58911324 0.16687444 -0.067403972 4.4545455
0.59887874 0.56056774 -0.091548465 5.4444447
0.67405939 0.92697084 -0.13823777 5.5
0.65776789 1.3895985 -0.17312761 6
0.60521591 1.7479349 -0.20028318 6.25
0.47571939 -0.56684691 0.1791147 11.727273
0.68025607 0.68872988 0.034139846 9.8571424
0.59235024 1.0414134 0.18871893 14
0.75342011 1.2907132 0.048735034 10
0.45445102 1.8179832 -0.085908189 8.25
0.53049934 2.0990169 0.051734664 10.2
0.47567779 2.4100349 -0.10976795 8
0.4969283 3.5492773 -0.09055502 9
0.51495862 1.8645586 0.37542695 15
0.55588424 2.2066603 0.31797239 13.5
0.95057434 0.23034608 -0.060135122 5.8000002
0.96816152 0.58466196 -0.10261261 5.6666665
0.97693646 0.87667173 -0.14367807 5.6666665
0.85812199 1.3936054 -0.17873354 6
0.95581102 1.6835262 -0.21364222 6
1.1205459 2.2002771 -0.24710388 6.5
0.87612933 2.522593 -0.30203965 6
0.94610184 2.8847528 -0.34381303 6
1.0308691 3.3573594 -0.37742946 6.5
1.1078084 -0.3382242 0.35179448 14.5
1.0128702 0.73973984 0.10223801 10.833333
0.97588682 0.99421608 0.25407672 14
0.96365792 2.0366459 0.085030518 10
1.127477 0.92913675 0.35580894 15
1.3261276 0.25145358 -0.083423078 5.6666665
1.4034569 0.55985326 -0.099227406 6.1999998
1.4495394 0.92658794 -0.1226635 6.5
1.3506798 1.441849 -0.21302891 6
1.4643793 1.6148033 -0.23242748 6
1.3871533 -0.33174103 0.34963906 13.2
1.4389811 0.78716552 0.073464297 9
1.4185601 0.92080659 0.2151978 12
1.482017 1.7935822 0.028315656 9.333333
1.2924161 5.1503644 -0.31310874 8
1.3082457 0.97712219 0.3614431 14.5
1.45383 1.9446119 0.36978263 13.5
1.8918041 0.36413208 -0.10326051 6
1.8167514 0.74651659 -0.13183713 6
1.7114614 0.91320324 -0.15417361 6
1.8141391 2.1601951 -0.26900116 6.5
1.7461094 -0.32482445 0.28775975 11.333333
1.7682203 0.7805261 0.21791162 11
1.7162552 0.96012563 0.2640923 12
1.9337043 1.9156735 0.044567239 9
1.8381665 -0.31293169 0.46018362 13.5
1.7481002 0.78185076 0.41499084 14
1.7488333 1.0095155 0.39916068 13.5
1.9402993 2.1002767 0.42883852 13
2.0846 1.0219783 -0.17676377 6
2.3944492 1.7851428 -0.29268909 6
2.1232231 9.2595711 -0.9047094 7
2.1220887 -0.31475949 0.29530978 10.5
2.1087999 1.019805 0.25736746 11
2.1631293 1.4878738 0.040630594 9
2.1508029 1.6457981 -0.052986275 8
2.0177758 2.0460007 0.17525612 10.5
2.1673322 -0.25280052 0.46979356 13
2.0650377 0.80465287 0.44809315 13.5
2.0297348 1.1249191 0.35530645 13
2.0952475 1.7877553 0.46176109 13.5
2.6374133 1.3007102 -0.20261745 6.3333335
2.6368878 1.9992888 -0.3310796 6
2.5836947 2.5091569 -0.39448982 6
2.5918496 -0.30545485 0.27457783 9.5
2.599503 1.1978769 -0.038066104 8
2.5370924 -0.74168175 0.80561376 15
2.5520754 -0.54017693 0.71837485 14
2.5818627 -0.26242995 0.45211995 11.5
2.4490881 1.6304196 0.42763147 13
2.8067987 0.58380848 -0.17294374 6
2.8547437 2.8196998 -0.44032264 6
3.1864276 5.7771764 -0.66659176 6
3.0956104 -0.29505694 0.25241548 9.5
3.0500157 5.6823626 -0.3891848 7.5
2.8637092 7.6574717 -0.61129349 7
3.3631897 0.73569864 -0.11392451 7
3.3645995 1.1258588 -0.17316093 6.5
3.36728 1.5726458 -0.20518374 6.5
3.2643361 2.5560532 -0.42373684 6
3.3356876 3.3842986 -0.49210262 6
3.4585645 9.2305422 -0.99994725 6
3.4364135 -0.15063033 0.27951488 9.125
3.4369531 0.21303131 0.22013317 9.1428576
3.4286647 0.61230797 0.17967816 9
3.410439 1.0369058 0.16305539 8.8571424
3.39853 1.3045099 0.14660217 8.8000002
3.3732541 1.7631283 0.054992177 9
3.3564219 2.1130056 -0.12865958 7
3.3554699 2.7708931 -0.082316414 8
3.5099461 -0.49929628 0.65725219 12
3.4673955 -0.12185333 0.60636777 12
3.4534609 0.23547149 0.55099624 11.6
3.4442563 0.64798009 0.55782312 12
3.4333367 1.0645139 0.51785582 11.777778
3.4191644 1.4008285 0.48056111 11.6
3.4254243 1.7816533 0.56557041 12.333333
3.3605094 2.9736249 0.44195786 11.5
3.4965141 -1.2609497 1.0240103 14
3.5732572 -1.0919555 1.0694786 14
3.4992952 -0.49119282 0.97797132 14.428572
3.4695306 -0.11428449 0.97157025 14.666667
3.4762688 0.29683718 0.94467694 14.666667
3.4658024 0.72393978 0.89073241 14.6
3.4578924 1.0825919 0.85991621 14.333333
3.4551411 1.4528044 0.83341169 14
3.4532602 1.8683642 0.88899541 14.4
3.4717736 2.1613562 1.0075626 15
3.3854487 3.1671314 0.78777206 13.6
3.3553922 3.3736358 0.7870065 13.4
3.4779551 2.3935571 1.0354156 15
3.4717486 2.7276478 1.0751998 15
3.4616909 3.13134 1.1278346 15
3.4388332 3.3236899 1.0012267 15
4.8339062 9.1957846 -1.0306855 6
