# .PCD v0.7 - Point Cloud Data file format
VERSION 0.7
FIELDS x y z intensity
SIZE 4 4 4 4
TYPE F F F F
COUNT 1 1 1 1
WIDTH 218
HEIGHT 1
VIEWPOINT 0 0 0 1 0 0 0
POINTS 218
DATA ascii
0.61781687 -0.71601629 0.079861902 203
0.33297697 -0.60442638 0.074263401 186.5
0.41526881 -0.64530528 0.08168631 194.5
0.54282898 -0.66506207 0.076762229 195.2
0.66168678 -0.65082324 0.068965159 192.66667
0.33867589 -0.53594726 0.066455655 183.75
0.43987331 -0.55356306 0.067567222 185.75
0.56133097 -0.54505521 0.064545564 187.83333
0.6383301 -0.532731 0.060809273 188.14285
0.75302589 -0.56481218 0.056741606 189.66667
0.82524371 -0.51540738 0.04448672 191
0.35077274 -0.46142989 0.038521327 178.81818
0.44141439 -0.45323706 0.038776424 179.66667
0.54965669 -0.42950955 0.041494228 181.73685
0.66348028 -0.45595846 0.048060168 186.33333
0.74141884 -0.43278265 0.042282417 188
0.85686547 -0.44926366 0.032306012 191.39999
0.36383295 -0.35156697 0.01242901 173.3158
0.44468197 -0.33801478 0.018452236 174.5
0.55712253 -0.35219526 0.018598642 178.29411
0.64475507 -0.34634915 0.023098515 181.48
0.75793594 -0.3467941 0.02991675 186.7
0.84078103 -0.3343693 0.027791228 190
0.91996169 -0.37368909 0.014458872 189
0.3789942 -0.27871659 -0.0014225241 163.75
0.45888364 -0.26192352 -0.021358399 168.71739
0.54287153 -0.24442747 -0.0087082377 171.94118
0.65033346 -0.24814093 0.00022720567 178.09091
0.73764658 -0.24614334 0.012168035 183
0.84122092 -0.25743318 0.013736655 187.22223
0.94570822 -0.25405166 0.00082696456 191
0.38488403 -0.13933423 -0.023599504 155.72223
0.4415642 -0.1470108 -0.032358192 160.13043
0.55160779 -0.15764764 -0.046174161 165.24286
0.63510466 -0.14617667 -0.017980468 173.90475
0.74648714 -0.15928301 -0.011711766 180.78261
0.8549087 -0.14693369 -0.0033803373 186.71428
0.93061888 -0.15228094 -0.0069149435 190.25
-0.5255118 -0.035752926 0.0020700903 151
-0.40978166 -0.030812804 0.0015336465 154
-0.37974671 -0.029495262 0.0017218025 155
-0.24247041 -0.023488207 0.0023906492 144
-0.15254372 -0.022492239 -0.024531147 158.25
-0.045200102 -0.020541066 -0.048728053 172.2
0.051337425 -0.018034231 -0.062067721 155.42857
0.15234248 -0.012297153 -0.045073971 148.73914
0.24862218 -0.01180322 -0.068879686 162.80769
0.37957403 -0.036306813 -0.056774646 161.72549
0.43488416 -0.045274198 -0.047975827 163.74663
0.54894131 -0.062670045 -0.067459948 166.03999
0.63474196 -0.060907535 -0.042772379 171.57692
0.75550145 -0.069858022 -0.027751977 180.22223
0.84976059 -0.056861669 -0.018342018 185.14285
0.92713106 -0.066266954 -0.01671128 188.75
-0.51284271 0.073996246 -0.011879967 143.5
-0.44383174 0.068494245 -0.011685513 149.5
-0.3848885 0.063715257 -0.012613428 150
-0.2568678 0.053813796 -0.0082020545 144
-0.15142167 0.043578781 -0.032644972 158
-0.040452305 0.056692727 -0.056882694 172.97058
0.047370184 0.046816394 -0.073163457 158.06667
0.15490589 0.044747319 -0.05370409 148.78125
0.25447914 0.043476373 -0.066894785 158.41086
0.3643401 0.027048567 -0.065769732 160.38979
0.42908436 0.020071805 -0.057735112 163.7027
0.55220163 -0.0070036319 -0.075789504 167.26666
0.64025784 -0.0038389703 -0.051591963 171.26315
0.76086468 -0.0021788911 -0.039404813 180.30769
0.85815161 -0.00083816401 -0.027434023 186
0.94612545 -0.0012245792 -0.031584628 188.5
-0.22569287 0.12712424 -0.018097885 141
-0.13908014 0.13540034 -0.043586459 159.8
-0.043802835 0.13814066 -0.059539914 173.41176
0.023874003 0.12258666 -0.084851608 167.3
0.16412807 0.14003962 -0.073215134 146.68889
0.25451034 0.13546716 -0.072797135 154.5625
0.3480697 0.13343714 -0.0738649 157.44339
0.4065024 0.13482542 -0.077689782 159
-0.037404876 0.27760476 -0.082886562 173.22223
0.064234942 0.23578556 -0.081615396 171.25
0.15523668 0.2402126 -0.090846986 153.8421
0.25283647 0.2397072 -0.092417918 147.85454
0.3507095 0.24345988 -0.10070588 153.06667
0.41337982 0.24329305 -0.096937843 151.47826
-0.42098838 0.38865748 -0.055260621 150.5
-0.20030673 0.37907347 -0.05730423 142
-0.14590356 0.34420246 -0.053633265 149.875
-0.045144141 0.33438453 -0.070664771 167.69565
0.045988258 0.35319862 -0.099030651 177.28572
0.14922108 0.32249972 -0.085170224 172.43478
0.25039935 0.32732165 -0.080873773 160.77777
0.34027869 0.33556315 -0.080736034 154.48148
0.40810487 0.33054614 -0.076922454 149.36363
-0.52884436 0.4403576 -0.063509643 132
-0.47684202 0.41530949 -0.056265343 138
-0.34375179 0.47125003 -0.069913939 145.25
-0.26160818 0.41887265 -0.067644894 145.83333
-0.14065783 0.44390234 -0.07116092 147.42857
-0.047137741 0.4492102 -0.07461746 156
0.055142775 0.42720026 -0.083390169 175.44444
0.15041767 0.4335449 -0.1061324 178.95238
0.25372756 0.45651489 -0.10569712 179.56522
0.34349909 0.44415209 -0.10272527 172.16667
0.41426301 0.43493256 -0.096222587 170.76923
-0.53447372 0.59377939 -0.086180732 133
-0.47431788 0.55510426 -0.080744833 133.33333
-0.30198982 0.57804716 -0.082935102 144
-0.24019015 0.52710783 -0.081696935 145.71428
-0.1388316 0.57016683 -0.082389399 141
-0.046451848 0.53858733 -0.086309075 142
0.040079992 0.52934361 -0.089550875 161.5
0.15155567 0.54647034 -0.10193177 172.46153
0.25637814 0.53338408 -0.10248515 180
0.41797981 0.54673892 -0.10769352 176.75
-0.61892343 0.64742416 -0.085839495 118
-0.55357867 0.60563231 -0.082655199 125
-0.41155225 0.67007709 -0.097747333 136.5
-0.3577486 0.62554026 -0.09530928 140.33333
-0.21490724 0.65330839 -0.097651295 146.66667
-0.18541873 0.62306398 -0.1014871 147.5
-0.055646017 0.62791997 -0.10271154 150
0.052779511 0.64217949 -0.11141571 153.71428
0.14988074 0.65469706 -0.11727569 163.5
0.25075728 0.63077056 -0.1171312 173.66667
0.32486752 0.68563324 -0.10213923 161
0.42408207 0.64426798 -0.12749434 169.5
-0.52147841 0.76142746 -0.10529576 118
-0.46360666 0.71337336 -0.10161172 128.5
-0.32445031 0.77135265 -0.11138667 132
-0.28235561 0.72741681 -0.11312673 140.33333
-0.12723887 0.72846693 -0.11558899 144
-0.0096714301 0.75712419 -0.11956568 143.66667
0.0092752976 0.72546494 -0.12473767 146.5
0.11783398 0.73908114 -0.12589 151.75
0.22985096 0.72111738 -0.1278812 158.2
0.32282522 0.72932965 -0.11500829 157.5
0.42690429 0.72187167 -0.13655487 165.60001
-0.42483991 0.87900466 -0.12133476 118.5
-0.37280825 0.82334048 -0.11683498 122
-0.22387309 0.8624016 -0.12688087 132.66667
-0.18851046 0.81544787 -0.12981141 138.5
-0.060070712 0.85495293 -0.13824567 138.25
0.08523304 0.82657361 -0.1373466 141
0.19355144 0.88378733 -0.15236899 137
0.20858388 0.81379014 -0.13963328 146.5
0.31760192 0.81961441 -0.13808717 151.25
0.43025497 0.82464117 -0.14734279 152.39999
-0.25756797 0.90796441 -0.12691087 128
-0.11444188 0.95461988 -0.14442593 127
-0.093873993 0.91747558 -0.14341608 131
0.044551857 0.9362908 -0.15253876 132.25
0.18111029 0.93673664 -0.15803321 132.66667
0.3108674 0.9165414 -0.15891987 139
0.59137702 -0.68995732 0.14677304 203.33333
0.63182545 -0.69806731 0.13900483 204.5
0.700755 -0.69320613 0.13630132 203
0.29721621 -0.66848791 0.18062355 202
0.34046254 -0.65661591 0.13496728 200.27272
0.45368853 -0.64888257 0.12320229 199.61905
0.56335741 -0.67895794 0.1468872 203.25
0.33772758 -0.52019 0.072056636 185
0.45398256 -0.53332889 0.071727864 186.375
0.57063252 -0.58085465 0.077635862 190
0.47150391 -0.48481059 0.065013625 183
0.53428209 -0.46686655 0.062159672 185.5
0.35960791 -0.22435229 0.045648977 136
0.3528384 -0.14847758 0.08619833 123.09091
-0.74090517 -0.043203712 0.01908615 116
-0.65318704 -0.039704282 0.016532285 126.25
-0.54605705 -0.035297155 0.01459851 139.33333
-0.44553769 -0.031514302 0.0094207712 153
-0.31941038 -0.025686968 0.012956542 151
-0.25481626 -0.023301503 0.0091416137 147
-0.18676817 -0.020691145 0.0060492684 147.33333
-0.72527534 0.091944255 0.00089860795 116
-0.65159321 0.085649647 -0.004415689 125.33334
-0.55487674 0.078034513 -0.0027071624 138.66667
-0.42792597 0.067693233 -0.0052866018 150.5
-0.32822159 0.05994552 -0.0023112458 147.5
-0.24931118 0.05390228 0.0012253945 144.28572
-0.186067 0.048564646 -0.0026503222 147
-0.20564352 0.14979847 0.021370538 145
-0.17127804 0.15577976 0.021881325 144.39999
0.074214727 0.14878456 0.049261823 140.71428
0.12069912 0.12786759 0.010876156 131.46153
-0.42540386 0.27287287 -0.0076470077 141.25
-0.33044842 0.24124396 0.00062669558 148.5
-0.25174114 0.22580671 -0.0049109226 145.125
-0.74861932 0.38056293 -0.0365601 103
-0.67305017 0.3554047 -0.023672126 104
-0.43186495 0.39347708 -0.045403149 142
-0.33692288 0.34804496 -0.040162686 149
-0.27673987 0.31895632 -0.02894157 148
-0.33376697 0.46200216 -0.034626551 104
-0.067505315 0.48761216 -0.045443773 102.5
0.33521038 0.48268315 -0.045532629 105
-0.091453798 0.51459587 -0.054233842 101
0.32458317 0.53485495 -0.031958472 121.5
-0.66194463 0.67457438 -0.083458915 114
-0.56581312 0.61283398 -0.075652413 124
-0.55389553 0.78746086 -0.10082886 115
-0.29094368 0.93994904 -0.081798002 102
0.27226532 -0.68571723 0.25903755 203.42857
0.36300644 -0.67993069 0.27154157 202.39999
0.45268482 -0.67425138 0.28200907 204
0.67321086 -0.68298173 0.22924508 204
0.28623888 -0.67263108 0.21567124 202
0.37686694 -0.67075098 0.22125939 201.77777
0.46335331 -0.65905488 0.23134841 202.16667
0.55276853 -0.64750797 0.23824087 203.61539
0.65668207 -0.66788453 0.26632193 203.25
-0.22014552 0.13721152 0.11313386 146.16667
-0.048528183 0.20447886 0.12661742 127.5
0.056029182 0.15571098 0.097962953 126.66666
-0.1814338 0.26874778 0.10113824 140
-0.07245113 0.59402078 0.091594175 187.5
-0.096371889 0.621687 0.10770872 155
0.3529534 0.64032096 0.10897686 183.5
