# .PCD v0.7 - Point Cloud Data file format
VERSION 0.7
FIELDS x y z intensity
SIZE 4 4 4 4
TYPE F F F F
COUNT 1 1 1 1
WIDTH 38
HEIGHT 1
VIEWPOINT 0 0 0 1 0 0 0
POINTS 38
DATA ascii
-2.4131832 1.8892537 0.067352228 10
-2.4161184 2.0838108 0.13987786 11
-2.4151437 2.2877638 0.26534149 12
-2.4080899 1.7603589 0.47934878 14
-2.411406 2.2586908 0.38857198 13
-2.4065354 2.2823048 0.47040501 14
-2.3843675 1.470237 0.46758646 14
-2.3844295 1.5769295 0.5587824 15
-1.0442413 -0.46871895 0.40175352 15
-0.43819341 2.1297529 0.20723519 13.5
-0.29270709 3.5239499 0.18196535 12
-0.084678821 2.1504133 0.21124086 13.5
0.047813438 3.3981011 -0.37506086 8
0.30517685 -0.67911905 0.30684793 14.5
0.34711185 0.67842352 0.12842558 15
0.79456449 -0.67463791 0.20247705 10
0.70227051 -0.65741521 0.30824733 13
1.1289388 -0.68476039 0.11453882 8
1.1882758 -0.60917419 0.49470761 15
1.1632119 0.76831865 0.31052992 15
1.2994875 -0.6555295 0.18228698 9
1.3117976 -0.42714331 0.40684983 14
1.2964532 1.7081116 0.16566916 12
1.2674036 1.7264208 0.20247751 13
1.4583884 -0.58857906 0.38509873 12
1.6275928 -0.4025473 0.52925873 15
1.6402928 1.6250544 0.20594202 12
2.5428836 -0.38358474 0.38632444 10.5
2.5269678 1.2132201 0.15371417 10
2.5162101 1.398537 0.12729208 10
2.5437222 -0.36987931 0.47972521 12
2.5258067 1.4106972 0.34822485 12.5
2.5031462 3.1591153 0.062953979 10
2.5543017 -0.27078414 0.75800419 15
2.5747521 0.037672069 0.68770814 14
2.5405777 1.4603071 0.49688178 14
2.5610895 2.4091945 0.74575317 15
2.5088542 3.2175508 0.78254467 15
