# .PCD v0.7 - Point Cloud Data file format
VERSION 0.7
FIELDS x y z intensity
SIZE 4 4 4 4
TYPE F F F F
COUNT 1 1 1 1
WIDTH 116
HEIGHT 1
VIEWPOINT 0 0 0 1 0 0 0
POINTS 116
DATA ascii
-3.5758982 2.2737341 0.64024186 12
-3.5121458 2.216588 0.19306365 9.5
-3.3327744 2.5096502 0.14498322 9
-3.4129062 2.0040038 0.60007423 12
-3.5216258 2.3014154 0.43946084 10.8
-3.2835462 2.5945125 0.43078712 11.166667
-3.4202578 2.0129828 0.93569702 14.25
-3.4356422 2.3279338 0.89102125 14
-3.2508626 2.6558452 0.80910176 13.857142
-3.4412637 2.4692626 1.0722295 15
-3.1184709 1.7816712 0.27427977 10
-3.1484022 2.7151203 0.14176205 9.5
-2.8836615 2.9713938 0.10502239 9.666667
-2.8709648 1.5945005 0.4184328 11.5
-3.0997586 1.7978266 0.41880435 11.5
-3.1097124 2.7783577 0.33908302 11
-2.8881333 2.980166 0.35917974 11.285714
-3.0811276 2.8495827 0.79914266 14
-2.9056137 3.04459 0.73699737 14
-3.1428194 2.8044102 0.99431098 15
-2.925153 3.0613747 0.96953034 15
-2.7232332 3.1360443 -0.03836963 9
-2.6464629 1.4088306 0.46257338 12
-2.7087064 3.1807063 0.27566937 11
-2.6303916 3.2760098 0.35847288 11.5
-2.7410583 3.2428706 0.55873972 13
-2.5271931 3.4759259 0.6719662 14
-2.7321239 3.2846572 0.94920278 15
-2.6661518 3.3646951 0.94723213 15
-1.6573095 4.4577146 -0.032473285 10
-1.2500989 1.7598519 0.35575679 14
-1.4433756 4.6371927 0.0082790656 10.666667
-1.2639396 9.6537676 -0.3614628 10
-1.1020302 1.5897121 0.19218995 12
-1.0244404 1.6095933 0.31186315 14
-1.1237587 1.6738428 0.32570466 14
-0.54402322 0.27693155 -0.018746877 6.75
-0.52844793 0.59794587 -0.07207536 6.5999999
-0.50202471 -0.81804675 0.16925877 8
-0.50693333 -0.63873118 0.13830099 8
-0.47134957 -0.31497794 0.076722383 7.5
-0.7534439 0.39540461 -0.016132476 7
-0.57409108 2.2816727 0.27695385 13.666667
-0.56572735 2.5284977 0.17257379 12.5
-0.58431047 2.9613974 0.1299029 12
-0.33786061 0.4737215 -0.06154846 6.5
-0.29123247 -0.9905169 0.18940789 7
-0.1563734 -0.58040857 0.10191874 7.1666665
-0.3342582 1.8867157 0.24597661 14.25
-0.3197045 2.1977684 0.24633251 14
-0.19748813 2.6500645 0.13740472 12.4
-0.37094674 2.9211113 0.19960329 13
0.21720679 -0.95234525 0.41412318 14
0.041779041 -0.52426708 0.079779305 6.5
0.28405353 1.910494 0.21932591 14.25
0.19708158 2.298789 0.19931126 13.5
0.12131611 2.4914236 0.21149343 13.5
0.62968546 -0.094848648 -0.06893874 4.6666665
0.61824048 0.11772908 -0.10208347 4.375
0.76695883 -0.27318278 0.019187871 7.5
0.73765451 1.2969083 0.19950859 15
0.62618273 1.9169234 0.17782377 13.6
0.89713383 -0.11348415 -0.045718707 6.5
0.9792822 0.20133781 -0.11092635 6
1.0202458 0.51410896 -0.16721216 5.75
1.1374823 0.93811327 -0.23996362 6
0.95181233 -0.097847201 0.1047989 10.75
1.1603342 0.10622051 0.10592983 11
0.85667765 1.1002426 0.21652327 15
1.2660084 0.27943549 -0.1250058 6.3333335
1.3402518 0.60255337 -0.19344638 6
1.4081786 0.95236319 -0.26090345 6
1.3928313 1.4020646 -0.35613713 6
1.3119971 0.29657784 0.13665906 11.857142
1.5245414 0.5722658 0.057369478 10.5
1.4007781 0.38942951 0.30343357 15
1.549374 0.56239861 0.28106466 14.5
1.4509583 3.1128941 0.052419528 11.5
1.4809419 3.1503313 0.4659307 14.75
1.682583 0.93663633 -0.25707617 6.3333335
1.6768113 1.3953462 -0.37855563 6
1.7711185 1.770178 -0.45487979 6
1.6852489 0.69513273 0.15596949 12.2
1.8574374 0.96901566 0.010893241 10
1.6941832 0.73614705 0.28684393 14
1.9127021 0.9970082 0.29628703 13.8
1.9854155 2.6230502 0.23345567 13
2.0420477 1.3984344 -0.40605435 6
2.262239 1.6027207 -0.39013889 6
2.1500332 2.1726131 -0.50960034 6
2.0894918 1.1595999 0.031559046 10.5
2.2484293 1.3409692 0.056999054 10.666667
2.1896896 2.2799706 -0.18071245 8.8571424
2.067235 2.4614918 -0.060216259 10
2.0652447 1.1565285 0.30317718 13.6
2.2729826 1.409501 0.30284366 13.4
2.2624569 2.3997092 0.16017018 12.142858
2.1059892 2.540148 0.16645613 12.5
2.3290977 2.4226174 0.45539922 14.5
2.1550398 2.5593641 0.43518913 14.5
2.4592543 1.5863584 0.023829954 10.5
2.669019 1.8925241 -0.15876397 8.75
2.4020965 2.2324684 -0.071526311 10
2.4493327 1.6203873 0.28533876 13
2.7096179 1.9442968 0.18407297 11.857142
2.5506458 2.1733077 0.22766778 12.5
2.7055984 1.9575398 0.50046778 14.75
2.5924749 2.1998789 0.47666818 14.5
2.8254011 1.9302826 0.2648434 12.5
2.8359623 1.9760135 0.61761612 15
4.2670212 3.4924912 -0.13985102 10
6.1573205 5.0291877 -0.87587315 7
6.859097 6.0227547 -1.0557495 7
7.4355745 5.5279546 -0.97148716 7.5
7.2696319 5.6707587 -0.97585243 8
7.5882325 5.359972 -1.1132848 7
