# .PCD v0.7 - Point Cloud Data file format
VERSION 0.7
FIELDS x y z intensity
SIZE 4 4 4 4
TYPE F F F F
COUNT 1 1 1 1
WIDTH 192
HEIGHT 1
VIEWPOINT 0 0 0 1 0 0 0
POINTS 192
DATA ascii
0.086590573 -0.67693859 -0.011291813 177.66667
0.10555308 -0.63020939 -0.0050569992 159
0.20742951 -0.60625684 -0.0088152764 191.5
0.14670724 -0.5370447 -0.0069275293 169.14285
0.22289772 -0.55824137 -0.015658181 181.14285
0.35456625 -0.51515502 -0.016438311 187.91667
0.18077688 -0.47024804 -0.027627053 176.27272
0.24434608 -0.46074522 -0.034589428 176.70589
0.34744871 -0.46263379 -0.038043309 175.66667
0.45552295 -0.4507179 -0.028319255 180.05556
0.50222462 -0.43156689 -0.036942784 184.5
0.25987762 -0.34485796 -0.029549997 160.80646
0.35378063 -0.34343183 -0.027039357 153.7
0.45264784 -0.3388361 -0.028294712 149.625
0.55174416 -0.35033214 -0.03002635 168.86957
0.63005108 -0.32430008 -0.037731122 182.5
0.28025147 -0.25962988 -0.05628176 149.42105
0.3561106 -0.25706872 -0.059902031 151.10146
0.45706639 -0.24610737 -0.058608361 151.90323
0.54584694 -0.24511306 -0.037373386 150.2683
0.65352255 -0.25228697 -0.034649335 163.92592
0.72974867 -0.23388569 -0.021678621 184.11765
0.36019301 -0.14801404 -0.053865306 156.64131
0.44809419 -0.14251502 -0.068556122 158.58667
0.54651213 -0.14881706 -0.064854674 154.73494
0.64657152 -0.14824508 -0.041091803 154.44118
0.74241441 -0.14500558 -0.023899212 163.875
0.80389029 -0.119328 -0.011401501 188.25
0.3866348 -0.049468122 -0.059229497 163.00926
0.43380404 -0.039858613 -0.061076295 163.48801
0.54915571 -0.065648906 -0.077631712 162.25757
0.63195467 -0.075800076 -0.043331772 151.8
0.71941698 -0.093506202 -0.03775312 152.125
0.093329601 0.099963658 -0.054397512 165
0.15919019 0.082202226 -0.048122909 165.53572
0.2578983 0.068276167 -0.063727982 164.53247
0.36570418 0.042113248 -0.065124899 164.30508
0.41095579 0.04944817 -0.056190245 165.00999
-0.20629583 0.19698842 -0.0078881793 186
-0.15001971 0.17930388 -0.026440369 182.85715
-0.048981033 0.14574233 -0.030332981 177.8
0.068266191 0.13717124 -0.066105366 166.05263
0.15693192 0.14674781 -0.051649243 167.19148
0.25343975 0.1455586 -0.052978229 165.34091
0.34816107 0.14254965 -0.058121383 163.39999
0.43751112 0.14550233 -0.0649672 164.54666
-0.25238138 0.21240896 -0.0074907844 187.66667
-0.038851727 0.27979168 -0.037423689 180.28572
0.057955135 0.2440134 -0.047508683 174.48648
0.14944677 0.25755608 -0.066105098 170.66667
0.25005415 0.24752145 -0.066275254 170.05128
0.34939888 0.25018483 -0.074076749 168.83673
0.45195934 0.25250915 -0.071734995 169.45161
0.51592851 0.24567059 -0.056601282 171.36363
-0.21336262 0.39024863 -0.012679554 187
-0.15230039 0.35047352 -0.013620728 187
-0.051515307 0.34168398 -0.029212622 182.85001
0.052043635 0.35466391 -0.039319161 179.86667
0.15513557 0.3325516 -0.039194655 175.39131
0.24962956 0.33665174 -0.051193759 174.13158
0.34504595 0.34150085 -0.049122889 174.55556
0.4384861 0.33438003 -0.042274743 176.1875
0.55296892 0.36201712 -0.042802628 179.55
-0.62580377 0.48944715 -0.013216824 144
-0.54258788 0.4489921 -0.0121976 154.66667
-0.34536779 0.47767913 -0.020640532 186
-0.2788313 0.43465996 -0.023949597 189.2
-0.13795674 0.44676924 -0.021429546 188.25
-0.040510908 0.45717147 -0.020142768 187
0.062000997 0.43118006 -0.026622817 183.6875
0.14933786 0.44735512 -0.040077567 181.83333
0.25215077 0.46823245 -0.041037727 181.30435
0.34552985 0.45338479 -0.04519381 179.94118
0.44932225 0.45054346 -0.039795216 181.25926
0.54663646 0.42800215 -0.031230256 182.93333
0.62345725 0.47599635 -0.033030976 186.39999
-0.75418407 0.55132622 -0.0096098809 122
-0.66284066 0.50680155 -0.0072572809 130
-0.52114117 0.59122163 -0.01124344 153
-0.45420152 0.54841805 -0.017845666 163.8
-0.3397522 0.56763166 -0.02509726 178
-0.23777774 0.53228676 -0.023400294 183.33333
-0.14103107 0.58397865 -0.031272244 187.39999
-0.059074398 0.53680986 -0.020137697 189.66667
0.041505657 0.54485029 -0.025588542 188.60001
0.15706359 0.5541082 -0.024165576 187.3
0.25910273 0.53906935 -0.023054617 186.5
0.34886748 0.52132469 -0.022751091 186
0.44877255 0.55155343 -0.030713558 187.72728
0.55063403 0.54916334 -0.031775344 189.10001
0.65854746 0.54594237 -0.035350915 190.2
-0.63550907 0.66561329 -0.0088050114 129
-0.56564307 0.62009645 -0.0097878166 142.5
-0.41553682 0.68328446 -0.020191193 158.5
-0.36104974 0.63732898 -0.022871612 171.66667
-0.22742191 0.6784358 -0.027882745 179.33333
-0.18412103 0.63028538 -0.026415182 181
-0.059742365 0.64924663 -0.033287946 187
0.053819712 0.65583265 -0.03571596 191
0.16057578 0.64186883 -0.029592523 191
0.25404286 0.63697076 -0.025490193 190.2
0.42801628 0.64201993 -0.03291573 190.5
0.51972848 0.65415859 -0.040722866 191.75
0.63968188 0.64809579 -0.047392033 191.42857
0.7090804 0.64527112 -0.041438539 190.5
-0.54795295 0.79589301 -0.018530212 137
-0.47402006 0.73214567 -0.014927993 148
-0.31654426 0.77671993 -0.027689897 163.5
-0.27175707 0.72694319 -0.026271252 172
-0.1279313 0.74704355 -0.030629596 177
-0.014762172 0.79056448 -0.037292324 178.66667
0.020916607 0.71864486 -0.032518871 185.33333
0.12867652 0.73784363 -0.038519174 186.66667
0.2352301 0.74341416 -0.039861787 189
0.43633333 0.74136674 -0.042284273 188.2
0.53761727 0.74250996 -0.042466402 185
0.63672119 0.72118819 -0.044772781 185.5
-0.5586763 0.80320191 -0.009033341 134
-0.41868243 0.88756591 -0.020451223 144
-0.36293519 0.82600123 -0.02021382 151.33333
-0.20914645 0.86389011 -0.028527141 163.33333
-0.19062582 0.84143192 -0.041396391 170
-0.036871314 0.82998735 -0.029069869 174.5
0.089245886 0.84601432 -0.033853225 174.66667
0.10264656 0.81198508 -0.039535604 176
0.21517791 0.83875656 -0.039219923 176.8
0.32180846 0.83761966 -0.0047927205 177
0.44276035 0.83507848 -0.045094151 180.33333
0.55496842 0.82676756 -0.045290124 175
-0.25459015 0.928303 -0.024489487 155.5
-0.11260895 0.97896904 -0.03115692 158.5
-0.077453114 0.91209859 -0.0351508 164.66667
0.055899378 0.94482803 -0.040843092 163.33333
0.19110113 0.96148086 -0.045638114 163.33333
0.32067758 0.91768461 -0.024187742 169
0.045476187 -0.72546405 0.074324176 196.75
0.071277224 -0.69366258 0.023110481 196.71428
0.1855132 -0.62482572 0.061647907 189.53847
0.20266064 -0.6078527 0.0094904527 190.66667
0.12376412 -0.58416265 0.003132873 159
0.28708491 -0.54620355 0.051815357 188.39999
0.35530576 -0.54576081 0.043293849 186.61111
0.42907348 -0.50913024 0.055631138 184.75
0.47258395 -0.44880849 0.045167606 184.78947
0.53080946 -0.40589187 0.070388295 183.5
0.56086963 -0.37080431 0.047788937 183.3793
0.62858778 -0.32047272 0.056309354 183.43478
0.66723889 -0.28617322 0.05468256 183.16667
0.75199533 -0.25150132 0.042606913 184.96428
0.8295908 -0.20061387 0.094897635 187
0.78886211 -0.17565417 0.013310295 186
0.82546502 -0.15507352 0.053998616 188.63333
-0.21390367 0.19478434 0.067993328 180
0.078418739 0.13549142 0.062899113 139.66667
0.1062603 0.12945493 0.037604742 129.5
-0.28017354 0.22016014 0.017471977 187
-0.42521223 0.38957956 0.012437678 160
-0.37298262 0.36304063 0.02440168 157
-0.2673943 0.3081567 0.060778409 160
0.33940685 0.49525002 0.024692111 114
0.33063743 0.53521287 0.049384918 162
-0.63788468 0.66070324 0.036069401 163.75
-0.59624165 0.63178164 0.047959045 109
0.32140782 0.61675137 0.063533373 174
0.32195404 0.72955602 0.027197862 180
0.2994023 0.85374033 0.084761553 158
-0.29162821 0.95054889 0.068208613 131
0.040571935 0.95385617 0.010420304 124
0.01637755 -0.75119036 0.1510845 196.75
0.15764101 -0.64925194 0.15043423 189.71428
0.26042607 -0.57072258 0.14921731 185.22223
0.34110054 -0.56175244 0.15135042 181.77777
0.39611012 -0.4880479 0.18348224 179.60001
0.44314373 -0.46618921 0.14609784 181.16129
0.54174393 -0.4225426 0.15758066 180.13333
0.57763767 -0.39211294 0.12168197 181.33333
0.64692068 -0.34357953 0.14824015 181.125
0.72607893 -0.25885931 0.15152861 183.11429
0.83082491 -0.2059662 0.14907661 185.4375
0.87354553 -0.1478669 0.15010628 187.75
-0.13872883 0.16703835 0.10870162 171
-0.03320232 0.13649766 0.17415586 148.33333
0.057586417 0.14389688 0.12660205 125.64286
-0.11568897 0.2285426 0.12056684 157
-0.074996978 0.20750709 0.13343544 154
0.29654944 0.59184033 0.17579515 190.5
0.29511929 0.61541891 0.17471564 182.8
-0.20730639 0.79358405 0.17130223 159
-0.19659925 0.7893092 0.13822761 97
-0.21345165 0.81572282 0.13224265 106.25
-0.0030919123 0.97798091 0.15877961 181.5
0.0036006402 0.95673025 0.16230875 210.5
