# .PCD v0.7 - Point Cloud Data file format
VERSION 0.7
FIELDS x y z intensity
SIZE 4 4 4 4
TYPE F F F F
COUNT 1 1 1 1
WIDTH 172
HEIGHT 1
VIEWPOINT 0 0 0 1 0 0 0
POINTS 172
DATA ascii
-3.6708853 2.3335464 0.83224773 12
-3.619827 2.2703471 1.2154356 15
-3.3124592 2.9562407 0.36217192 9.25
-3.5308952 2.3955176 0.76917404 12
-3.3784163 2.658885 0.63694739 11.4
-3.3180175 2.953959 0.60585761 11
-3.5183663 2.3638692 0.9569869 13.5
-3.367373 2.6161389 0.92376035 13.5
-3.2858655 2.9688644 0.98208082 13.5
-3.5008285 2.3132408 1.2105032 15
-3.3797395 2.6001253 1.2520316 15
-3.2873161 2.9965351 1.3117702 15
-2.9464543 2.2382457 0.37247273 10
-3.1589582 2.5225885 0.35734281 10
-3.1163082 3.1263731 0.26408538 9
-2.9209774 3.2871163 0.25350395 9
-2.9231784 2.2235782 0.54470003 11.5
-3.1349328 2.493238 0.52604175 11
-3.1161525 3.1237273 0.60682499 11
-2.9410248 3.2606118 0.49137735 10.333333
-2.810869 1.7057136 0.91878337 15
-3.0596507 3.1469183 1.035547 13.833333
-2.9292541 3.2623177 0.90176421 12.75
-3.1113138 3.1316831 1.3269871 15
-2.882333 3.2827091 1.2101471 15
-2.5249572 1.708186 0.33418766 10.333333
-2.763958 2.0287361 0.34322384 10
-2.7814741 3.3353789 0.27372268 9
-2.4369049 1.4628365 0.67700183 14
-2.5237234 1.7708465 0.56135964 12.4
-2.7504346 2.0176783 0.49800867 11.5
-2.6693499 3.4169078 0.63135415 11.142858
-2.6640036 3.4277623 0.91053861 13
-2.7738311 3.3922994 1.2243156 15
-2.0669475 1.1567065 0.38329825 12
-2.197706 1.3024224 0.33159447 11
-2.1264637 3.858428 0.36320809 9
-2.023911 1.1848848 0.62639445 15
-2.2112036 1.3616009 0.53374618 12.888889
-2.0869441 3.9074652 0.49147382 10
-1.9429622 3.9946284 0.37804681 9
-1.9639499 3.9864285 0.45461869 10
-1.7589526 4.1515274 0.44271296 10
-1.2272063 4.6055856 -0.098722845 6.5
-1.2829064 1.8874348 0.68054396 15
-1.5459535 4.3222642 0.44256306 10
-1.3608589 4.472765 0.52274299 10.5
-1.4598713 2.7358053 0.93769228 15
-0.91991401 1.1115756 -0.010907625 7
-0.89475805 1.4129913 -0.021536188 7
-0.82976544 2.3831959 -0.037347104 7
-0.96417516 2.6423936 -0.029979089 7
-1.0949533 2.3283463 0.3810114 11
-1.0919466 2.2986679 0.42679527 12
-0.95706612 2.6526237 0.52708256 12.333333
-0.49889851 0.64571297 -0.01333633 6.6666665
-0.56666899 0.97835261 -0.013233917 6.8000002
-0.73704273 1.237419 -0.015203593 7
-0.54055035 1.8153726 -0.031411976 7
-0.67125916 2.0746195 -0.03976633 7
-0.71062225 3.0911837 -0.01461227 7
-0.6114735 0.64420944 0.030773701 8
-0.73794973 1.906689 0.3947162 13
-0.43393973 1.4335934 0.44253185 15
-0.74110645 1.8386554 0.45653665 13.666667
-0.62144423 2.9285755 0.45966089 11.333333
-0.1713839 0.62473869 -0.0297415 5.5999999
-0.24341631 0.99342227 -0.022521431 6.3333335
-0.19077504 1.3230646 -0.021401498 6.75
-0.0040446003 1.8857858 -0.035411574 7
-0.073965423 2.2311761 -0.044260278 6.5
-0.14597383 2.5882876 -0.054623067 6
-0.22798876 2.9919207 -0.063721158 6
-0.20148167 0.78984654 0.15746881 12.5
-0.10618223 0.96747297 0.1117257 10.2
-0.10687967 2.1520462 0.16377094 9
-0.20060243 2.5726783 0.18891568 9
-0.27046838 3.1219444 0.00095258467 7
-0.319278 1.3489689 0.40917316 15
-0.20942789 1.8439077 0.53564936 15
-0.33826914 2.1324344 0.49129736 13.666667
-0.06376861 2.6968153 0.51211661 12.5
-0.21893467 2.972712 0.52533913 12
0.27693611 -0.49702626 -0.02021165 6.25
0.36274099 -0.36433998 -0.027085096 5.5
0.36719111 0.34072784 -0.04343782 4
0.1777776 0.55037409 -0.038282152 4.75
0.20366864 1.002174 -0.038643077 6
0.1605159 1.3588084 -0.030770248 6
0.030836059 1.7134616 -0.030984614 7
0.28638843 -0.57890224 0.10720428 11.727273
0.31805101 0.58234757 0.088158041 10.7
0.18442938 0.94201338 0.10603438 10
0.17712843 1.8961754 0.28549981 11
0.17438932 2.2324615 0.19578798 9.5
0.16295618 2.6693115 0.11230143 8
0.32939535 1.9075367 0.46851763 14
0.34106439 2.1155324 0.49218333 14
0.071648173 2.6267986 0.51013988 12.5
0.46119055 -0.45392972 -0.025754776 6
0.58010584 -0.19999096 -0.044082146 5
0.49732217 0.25196257 -0.06652762 2.8571429
0.58017671 0.55830675 -0.043410748 5.125
0.45554093 0.96500409 -0.065221757 5
0.57633018 1.4057786 -0.034706205 6.5
0.75788873 1.8234688 -0.067376859 6
0.59495735 3.0817044 -0.10124265 6
0.65284926 3.9084039 -0.12979907 6
0.65561545 4.0522141 -0.10391125 6
0.47788772 -0.45541355 0.089639403 11
0.63747561 -0.32652131 0.08595039 10.625
0.58043462 1.0256274 0.25222757 13
0.50033844 1.3551574 0.11693007 9.166667
0.5086838 1.6895908 0.22927324 10.666667
0.59281111 1.8638701 0.49469054 14.125
0.80054557 -0.11828412 -0.012910482 7
0.88219446 0.98973143 -0.052569892 6
0.99360096 1.4370356 -0.064775623 6
0.97666782 1.6999208 -0.070123762 6
0.96339804 2.0848372 -0.082755551 6
0.9017216 2.5167317 -0.093883283 6
0.9818753 2.9024179 -0.10919473 6
1.0785753 3.3938916 -0.10562313 6
0.84329474 -0.17180137 0.14310211 12.076923
1.1567986 0.17056005 0.32403266 14.5
1.3147748 1.8477454 -0.084840626 6
1.3246008 2.2316837 -0.097724117 6
1.3041967 2.6307628 -0.11158922 6
1.3617514 0.32458863 0.34828889 14
1.5357949 0.46934846 0.31260625 12.5
1.4240646 0.37233645 0.43953243 15
1.5138137 0.43970808 0.43486202 14.5
1.6701307 2.5528679 -0.11048225 6
1.7621297 0.65093988 0.32408354 11.833333
1.9730467 0.81844383 0.33546388 11.5
1.7872028 0.65588921 0.50474042 14.222222
1.9690615 0.80245519 0.43073699 13
1.9542196 2.4745543 0.62096047 12.5
1.7105035 2.9643021 0.59485859 12
1.9801234 2.4756393 0.89379996 15
2.2273762 1.0270422 0.312666 10.666667
2.3470416 1.9560311 0.33303416 10
2.307045 2.0288358 0.35858127 10
2.1973336 0.98069984 0.58550596 13.7
2.3694119 1.9467187 0.5780043 12.5
2.181092 2.1847198 0.6033079 12.5
2.0150709 2.4078898 0.5442062 11.5
2.3663723 1.9614356 0.87094015 14.5
2.2160308 2.158067 0.86008781 14.666667
2.5760431 1.2786407 0.32641545 10.333333
2.4966681 1.7752836 0.33926928 10
2.762902 7.0091085 0.043432198 7
2.6510084 1.4053916 0.60193074 12.571428
2.5354846 1.7389226 0.59227365 12.5
2.6733553 4.8637657 0.50204706 10
2.5011165 1.1934413 0.80601877 15
2.7399278 1.4923732 0.89148194 15
2.5452468 1.7394441 0.86138427 14.5
2.949033 4.0668206 0.34670407 9
2.8021116 1.3928983 0.78060377 14
4.3828259 8.4245291 0.73950583 9
4.3605342 8.4243631 0.83520782 10
4.8100376 5.2704191 0.41359335 9
6.363018 6.3065367 0.31535333 8
6.2270203 6.4622936 0.33511016 8
6.2290297 6.5510411 0.40117753 8
6.7110004 3.883091 0.12360692 8
6.4650264 6.2083082 0.37000185 8
7.8839617 4.4261394 -0.11242636 7
7.9139881 4.3395982 0.054430999 7
7.8610053 4.435163 0.1726938 8
8.0785093 4.19701 0.18481581 7.5
