# .PCD v0.7 - Point Cloud Data file format
VERSION 0.7
FIELDS x y z intensity
SIZE 4 4 4 4
TYPE F F F F
COUNT 1 1 1 1
WIDTH 216
HEIGHT 1
VIEWPOINT 0 0 0 1 0 0 0
POINTS 216
DATA ascii
0.29359174 -0.0037130967 -0.10932356 172
0.30282557 -0.010312999 -0.11188701 171.5
0.30688673 0.0093904976 -0.10929269 170
-0.8448264 -0.50649619 0.012625754 193
-0.75832963 -0.46936351 0.02137698 130
-0.24990635 -0.47795716 0.011232086 193
0.69670594 -0.44852921 -0.011327292 186
0.73818249 -0.44458884 -0.0085505554 187.25
0.88501447 -0.42389864 -0.021404762 177.33333
-0.56169355 -0.38902158 0.013924167 151
-0.46645874 -0.35005033 0.010782155 169.33333
-0.37225288 -0.31180194 0.005686902 182.25
-0.053488296 -0.33345237 -0.0086780069 181.14285
0.59279883 -0.30085912 -0.0073778694 148
0.62844479 -0.33037728 -0.01059337 158
0.75831854 -0.36269116 -0.0099300351 169.25
0.86181688 -0.35589805 -0.014768586 170.5
0.90532058 -0.33692762 -0.020681161 171
-0.32233736 -0.29112658 0.0057462566 185
-0.23549262 -0.25541222 0.0041232002 185.75
-0.13412276 -0.21657412 -0.016976818 181.5
-0.061501082 -0.27412346 -0.0042140814 179.5
0.051337004 -0.25695303 -0.022494555 172.25
0.11051637 -0.21792388 -0.048272543 164.60001
0.56497169 -0.2360557 -0.023614082 148.66667
0.64489836 -0.24604838 -0.015189975 148.40909
0.72305948 -0.21949755 -0.013837026 152
0.83066487 -0.24346733 -0.013068838 167
0.93626827 -0.26459727 -0.021244135 172
-0.75065947 -0.15859501 0.008584274 131.66667
-0.65140051 -0.14510214 0.0029730087 145
-0.5436734 -0.13009174 0.0016503888 164
-0.439726 -0.11582347 -0.0022955271 181.8
-0.35649109 -0.10378523 0.0023563616 188.5
-0.20991762 -0.16050407 0.0060748388 185
-0.15988302 -0.14959578 -0.017910844 181.41667
-0.038137201 -0.14540888 -0.026466995 175.34375
0.044035323 -0.14292766 -0.0520734 167.39285
0.15400884 -0.1423424 -0.031724658 162.84
0.22658421 -0.12029678 -0.041780759 162.8
0.48332107 -0.11941746 -0.051533632 155.47058
0.55222106 -0.15038024 -0.056532793 151.16176
0.63455504 -0.14863349 -0.029230015 153.05128
0.72118992 -0.13420619 -0.022600478 146.66667
0.93582296 -0.14056817 -0.021407271 166.85715
-0.91841507 -0.015463709 0.00091738498 110
-0.8334617 -0.014384339 0.0027620115 117
-0.74258786 -0.013314568 0.0029448546 126.5
-0.67075491 -0.012820937 -0.0044439156 143.66667
-0.55408269 -0.011394114 -0.0028006337 161.5
-0.44287971 -0.010369502 -0.0082869092 185
-0.31963342 -0.04192121 -0.00094925967 188.625
-0.24105151 -0.048094824 -0.0027629049 185.28572
-0.16673438 -0.04496925 -0.025375478 181.13043
-0.04870088 -0.034721278 -0.04156018 174.30769
0.057946209 -0.04338662 -0.04786789 165.76923
0.1571629 -0.044569604 -0.041318472 162.73863
0.25159582 -0.047436427 -0.068846568 163.30435
0.34386638 -0.024344718 -0.080070861 165.02899
0.44460383 -0.031565186 -0.053989988 161.47
0.54437906 -0.050530177 -0.064465635 160.09302
0.63894045 -0.050865971 -0.04346 155.63792
0.74259484 -0.045133796 -0.028104011 150.59091
0.87076199 -0.064346351 -0.018376142 160.33333
0.9529804 -0.039589696 -0.028109623 167
-0.44134334 0.093133152 -0.01483914 184.60001
-0.33243284 0.080788426 -0.0091269752 188.8
-0.24556075 0.070840634 -0.011066756 186
-0.16728252 0.061623737 -0.029659921 181.45454
-0.04182101 0.056000475 -0.046276603 174.20833
0.050313443 0.060761143 -0.056210898 167.10001
0.15556094 0.052628394 -0.045060221 163.9375
0.25366792 0.05069945 -0.067426801 161.50406
0.35624549 0.028138811 -0.071591415 162.45421
0.44410989 0.021643423 -0.056045514 160.7683
0.54771334 0.048107479 -0.070486732 158.2262
0.63635838 0.048781492 -0.047168937 155.11864
0.74689507 0.04601565 -0.030246399 149.75999
0.85425836 0.058802787 -0.020965556 155.63637
0.92918545 0.057142559 -0.029354604 165
-0.91609347 0.14748749 -0.00093720801 111
-0.85630322 0.1406045 -0.0056170216 117
-0.75013858 0.12847741 -0.0074045653 129.66667
-0.64899474 0.11688938 -0.011018433 147.33333
-0.54101491 0.10457522 -0.010680667 166.75
-0.41639143 0.19448054 -0.018373907 185.33333
-0.35190147 0.17874826 -0.019546153 189.25
-0.25701693 0.15551029 -0.015511517 186.57143
-0.16293608 0.13276535 -0.029404812 182.08333
-0.042535365 0.13156585 -0.036036424 176.44444
0.041276325 0.13331178 -0.065481141 168.94118
0.14740154 0.1578445 -0.050430097 162.05263
0.25737619 0.14525774 -0.051044576 161.30769
0.31342596 0.11841817 -0.05742735 158.7
0.5728668 0.13161203 -0.066318899 153.79411
0.64267939 0.15069717 -0.042130586 152.11429
0.73929632 0.14016303 -0.030023677 150.58621
0.84504384 0.15411644 -0.025084903 159.375
0.95687497 0.14093368 -0.041209221 167
-0.80207866 0.28856197 -0.013369755 121
-0.73925322 0.27323529 -0.013749993 132
-0.64582711 0.25051874 -0.019257145 147.5
-0.53231835 0.22276771 -0.016939815 164.66667
-0.48197749 0.21056046 -0.022300391 177.5
-0.12693748 0.27386388 -0.021998484 184.375
-0.029427823 0.26990002 -0.031620905 180.33333
0.063064508 0.25265071 -0.050848909 173.86667
0.14553393 0.25091448 -0.070066579 168.79411
0.22794881 0.24120897 -0.064607419 167.88461
0.66887915 0.23116682 -0.037501052 148
0.73647493 0.24453601 -0.027977981 156.29411
0.84747028 0.24339314 -0.032194227 165.39999
0.94856483 0.25823617 -0.049446456 168.5
-0.87165082 0.30552453 -0.012540936 115.5
-0.32688668 0.38210309 -0.032484747 189.2
-0.23537312 0.33239678 -0.025785606 189.2
-0.15335175 0.35001361 -0.031084467 187
-0.0455909 0.3437314 -0.038455863 182.95
0.047469143 0.35138637 -0.051164679 179.84616
0.1553551 0.32843214 -0.047676932 174.92308
0.20240939 0.30322707 -0.069055185 171.5
0.78277695 0.32600081 -0.037663903 165
0.84401351 0.35113814 -0.044521607 169
0.92216921 0.3353667 -0.048601024 164.5
-0.87122697 0.48112938 -0.023011304 109
-0.78105468 0.44595626 -0.011354914 105
-0.40364903 0.42238048 -0.021460164 171.66667
-0.37462446 0.40733629 -0.027791487 184
-0.2755968 0.47071165 -0.022002783 180
-0.11177787 0.46253502 -0.031343829 189.33333
-0.057771258 0.44511726 -0.037311662 187
0.052700028 0.4383617 -0.038367655 184.375
0.11814979 0.43112954 -0.054645538 181.10001
0.8877334 0.40913862 -0.055228367 165
-0.4464004 0.59556711 -0.044884067 161
-0.35619292 0.52979767 -0.034149058 178
-0.22160077 0.56674379 -0.04325176 180.66667
-0.17764474 0.52671736 -0.048072204 189
-0.053578552 0.53233689 -0.042802393 189
0.044603154 0.54292262 -0.041307453 188.66667
-0.53544021 0.65784585 -0.034615517 145.33333
-0.46457252 0.60736281 -0.035537973 160.5
-0.32867068 0.66710955 -0.047820158 174
-0.27764195 0.61945868 -0.046685446 177
-0.14102249 0.63966548 -0.051026106 183.57143
-0.025860339 0.65930456 -0.056918152 186
0.0028089788 0.61415702 -0.05742038 189
-0.61639798 0.71545827 -0.033130258 129.5
-0.42708331 0.75789803 -0.043706764 153.33333
-0.3790634 0.71456486 -0.051209796 168
-0.24991721 0.77231014 -0.056938346 167.5
-0.15039288 0.74704343 -0.057849769 172.5
-0.078560457 0.74320209 -0.058768149 177.25
-0.50364333 0.82820028 -0.038677201 137
-0.48795593 0.81480271 -0.045432016 142
-0.3305105 0.86902618 -0.055192079 155
-0.29435593 0.82512498 -0.053813346 161
-0.15157403 0.86122233 -0.066830881 161.66667
-0.37102383 0.91826719 -0.056940291 148
-0.20569523 0.94498014 -0.061229464 153
-0.18181901 0.90815264 -0.064084031 154
-0.30554828 -0.50177377 0.08814203 199.66667
-0.65947115 -0.42803368 0.023916269 136.66667
-0.30510688 -0.49598736 0.11087508 199.5
-0.27648935 -0.4890613 0.049102917 200.5
-0.16836639 -0.41354027 0.021446256 187.39999
0.68597901 -0.44919106 0.043343134 189.58333
0.77672023 -0.44960523 0.037558436 193.875
-0.58979684 -0.39954644 0.02142019 145
-0.44869816 -0.34158736 0.018223645 169
-0.1225699 -0.37967661 0.017533854 186.33333
-0.078688405 -0.34639281 0.017253937 183.8
0.66392183 -0.35084593 0.001817535 167.27272
0.75429225 -0.33688143 -0.0034283451 167.5
0.80850893 -0.36168545 -0.0047724941 169
-0.40460914 -0.21094948 0.02785388 171.66667
-0.27154139 -0.26892802 0.013575229 188.33333
-0.17189631 -0.22819121 0.010077705 184.5
-0.050909318 -0.2424358 0.036079638 178.71428
0.083844751 -0.22143796 0.022726743 161
0.10132644 -0.20747188 0.025419265 148
0.69110072 -0.26223689 -0.0031558089 155.33333
0.73565 -0.2561301 -0.0017995978 160.5
0.84656292 -0.25507125 -0.0064679645 167.14285
-0.79677969 -0.16364206 0.026843561 124
-0.32272452 -0.18520719 0.058951981 165.5
-0.24832721 -0.16475527 0.061086655 175
-0.19267702 -0.15313089 0.029994352 132.5
0.056856662 -0.17378758 0.070833169 158
0.11971738 -0.15718524 0.068570174 127
0.76610219 -0.15739146 -0.0066293278 151.46153
0.84585452 -0.15399815 -0.008616657 160.33333
0.78507662 -0.061460845 -0.010816549 152.66667
0.83493155 -0.055431284 -0.010032603 156.85715
0.2087047 0.091674045 0.011162656 125.25
0.78516233 0.022682996 -0.013718164 149.5
0.80790067 0.02392745 -0.013842984 149.5
0.039283603 0.15091485 0.063393228 153.5
0.13507833 0.12793116 0.058829047 134.28
0.21810164 0.11465526 0.01302504 130.125
-0.34889668 0.38929129 0.02188061 163
-0.12724558 0.35904056 0.02343897 146.22223
-0.52038974 0.83781409 -0.0048237951 125
-0.31718767 -0.50067097 0.1296532 197.5
-0.31083784 -0.49193752 0.14596587 197
0.66898197 -0.45460969 0.14554746 189
0.77467883 -0.46352813 0.14373712 191.92308
0.87366277 -0.44353178 0.16261722 195.5
-0.30616537 -0.17128244 0.14303991 176.5
-0.28833702 -0.1686455 0.12327536 185
0.0030515848 -0.17969362 0.20195132 149
0.035371631 -0.16695784 0.17133501 139.09525
0.040391333 0.12823825 0.13268435 130.60715
0.10793091 0.13733685 0.10079609 125
-0.048011027 0.21641162 0.15489022 154
-0.11758523 0.43230855 0.17133868 184.42857
