# .PCD v0.7 - Point Cloud Data file format
VERSION 0.7
FIELDS x y z intensity
SIZE 4 4 4 4
TYPE F F F F
COUNT 1 1 1 1
WIDTH 174
HEIGHT 1
VIEWPOINT 0 0 0 1 0 0 0
POINTS 174
DATA ascii
0.1422154 -0.52896136 -0.0013025458 193
0.25609499 -0.520257 -0.0045795124 190.22223
0.35185525 -0.51469207 -0.0061312318 187.8
0.44550857 -0.50864875 -0.005148435 187
0.56028712 -0.540654 -0.014423247 191
0.66074097 -0.52980077 -0.014299174 191.83333
0.7682271 -0.54450411 -0.026396198 191.8
0.84712964 -0.50468856 -0.028603323 190
0.055570591 -0.43596447 -0.010595214 183.35715
0.14904286 -0.45764369 -0.021188444 181
0.24738561 -0.46165699 -0.024883287 179.83333
0.3436805 -0.46471855 -0.027547076 180
0.46257046 -0.4542453 -0.026691526 180.84616
0.54942411 -0.43102238 -0.020753106 182.38461
0.645064 -0.44257087 -0.02048667 186.45454
0.73982203 -0.43655449 -0.019162774 189.55556
0.8476612 -0.45606282 -0.035031691 191.2
0.090439774 -0.3606672 -0.011053289 178.75
0.15301329 -0.3340435 -0.025971491 174.56667
0.24863881 -0.34492677 -0.039176069 173
0.35172659 -0.34271818 -0.041879263 173.38637
0.44204125 -0.33913052 -0.034448188 175.35484
0.55281478 -0.35511112 -0.037216023 178.56
0.65104717 -0.33606076 -0.031311523 182.21739
0.75668579 -0.34853482 -0.022666411 186.3
0.85083777 -0.33999979 -0.023805656 190.39999
0.92932278 -0.35458112 -0.042703766 189
0.17272869 -0.27572829 -0.055985771 168.25
0.25224811 -0.24187899 -0.048281685 168.28206
0.3548713 -0.24793662 -0.057182778 168.66
0.45815068 -0.25299141 -0.067587458 168.24562
0.5473901 -0.24230541 -0.047307763 172.9796
0.64921838 -0.24787018 -0.043192107 177.77777
0.72842443 -0.24682717 -0.031237088 182.83333
0.82939851 -0.29048336 -0.029212669 187.25
0.27087358 -0.16551338 -0.044400401 165.325
0.34936041 -0.14445929 -0.052433062 162.81818
0.44345888 -0.14171252 -0.061099082 163.92941
0.55205333 -0.15204976 -0.076490141 167.41333
0.62897533 -0.16727281 -0.043011248 174.71428
0.3767705 -0.049549807 -0.066893719 164.16853
0.42894304 -0.048840992 -0.060898829 165.04327
0.52445424 -0.085307539 -0.076311484 162.61539
0.27349713 0.083439589 -0.062972948 155.85185
0.37047353 0.04339781 -0.06776987 161.84042
0.41989008 0.053435456 -0.064258642 163.26315
0.088409431 0.19137725 -0.067626186 157.5
0.16305071 0.15860292 -0.060028575 147.96875
0.25335824 0.14431748 -0.059043054 154.01163
0.35069379 0.13842203 -0.063683979 156.39473
0.4445869 0.14187945 -0.076540522 158.01266
0.51899844 0.16990201 -0.084010728 154.75862
0.064118654 0.26130196 -0.053581621 172.44444
0.14980461 0.25293446 -0.063709959 157.25
0.25008422 0.25210783 -0.066400401 145.37038
0.34912708 0.25579649 -0.075327158 150.92064
0.44710779 0.24318939 -0.074726053 151.85527
0.54131496 0.24745505 -0.052314911 150.78572
0.61288697 0.29276592 -0.048002098 146.66667
-0.24542376 0.38276049 -0.01053037 148
-0.10752624 0.39240682 -0.021029834 157
-0.039130218 0.3512457 -0.033753596 170.88889
0.041770723 0.3561148 -0.049562659 176.42105
0.15594816 0.34658435 -0.050234955 172.88889
0.24851312 0.34125164 -0.046287481 160.92592
0.3529256 0.33684444 -0.04519951 151.29411
0.46254373 0.34380305 -0.048360441 147.375
0.55752838 0.34614909 -0.046639312 149.83333
0.63449907 0.34596574 -0.038380675 156.92857
-0.25132951 0.45115459 -0.014262723 151.71428
-0.14607273 0.4212634 -0.014724511 150.14285
-0.047635321 0.44205824 -0.017400138 156.55556
0.063768275 0.43469983 -0.042288534 173.625
0.14720857 0.45419762 -0.049454596 177.95
0.2475265 0.45697102 -0.059433747 176.83333
0.36393881 0.4542006 -0.055510599 172
0.44938657 0.44014183 -0.050547458 166.33333
0.53666288 0.44286218 -0.044046044 167.5
0.64935857 0.43991435 -0.045546576 165.875
0.71938384 0.43569151 -0.047336817 167.5
-0.54400867 0.56101799 -0.0030069556 129.5
-0.49749801 0.5330925 -0.0032735665 140
-0.32679078 0.5626871 -0.013146558 149
-0.27456349 0.52244866 -0.016473934 151.5
-0.1439524 0.5407235 -0.0227932 149.14285
-0.031699549 0.55403483 -0.027281601 151.8
0.059705961 0.53558606 -0.030570313 162
0.16247071 0.55677557 -0.039023686 172.22223
0.24161436 0.56076509 -0.045224335 178.125
0.35634449 0.5561924 -0.049480949 177.75
0.46379706 0.55377823 -0.052719958 176.875
0.54521263 0.53620595 -0.052938875 172
0.63262486 0.54463875 -0.058938667 169.60001
0.74481714 0.55024517 -0.069042131 167.375
0.807585 0.54804289 -0.063058197 164.5
-0.62612396 0.60997796 -0.00051002298 119
-0.50103503 0.69732994 -0.0037909574 127
-0.45336035 0.66234517 -0.014792955 131.75
-0.39618593 0.61846805 -0.019242056 140
-0.24304356 0.64025414 -0.021343865 144.5
-0.13054392 0.68431216 -0.030691816 144
-0.064115845 0.63025099 -0.026804229 144.60001
0.021547318 0.64278102 -0.032045864 149.39999
0.11777012 0.66538471 -0.041185271 155.83333
0.21689558 0.65176517 -0.046382073 165.8
0.34540799 0.64431584 -0.050400421 169.66667
0.479601 0.66350603 -0.061939683 168
0.5663498 0.64634228 -0.064004377 164.33333
0.65862423 0.64430857 -0.06762217 161.16667
0.74794722 0.62205142 -0.067438222 159
-0.60896754 0.78186387 -0.0030860989 112
-0.55874759 0.74306315 -0.0058403015 120.5
-0.35753906 0.75536674 -0.020063356 134.2
-0.16895321 0.73236609 -0.02490294 142.66667
-0.036721442 0.74391311 -0.03291139 138.25
0.077650242 0.75975615 -0.038495976 142
0.18871981 0.7526381 -0.044961013 149
0.25746477 0.73313683 -0.047303628 155.39999
0.36925155 0.72928768 -0.056372013 160.75
0.49090824 0.75608784 -0.062505424 157
0.58826494 0.72638446 -0.068758197 157.5
0.60029984 0.77483034 -0.067263454 153.33333
-0.45731959 0.8543666 -0.01421126 121
-0.24684596 0.83474284 -0.026831217 132.39999
-0.10800136 0.8685078 -0.035856444 135.5
-0.081426956 0.82380235 -0.03842546 134.5
0.035959072 0.85708731 -0.034634624 127
0.16759811 0.83081198 -0.046503905 141
0.28466597 0.83037412 -0.050960388 146
0.39067402 0.83783495 -0.056884665 149.5
0.49749714 0.82121915 -0.058021467 148
-0.30038539 0.90184069 -0.019073062 125
-0.14541161 0.9313466 -0.032040916 132.33333
0.014374892 0.91149473 -0.038737252 132.33333
0.13763271 0.94311738 -0.050129861 130.5
0.27220979 0.93607634 -0.057903066 136.66667
0.78144157 -0.60646826 0.082030378 200.66667
0.044460919 -0.50885099 0.077491418 192.18182
0.15002315 -0.53883648 0.062222108 191.88889
0.25592697 -0.55463326 0.043467682 192.2
0.34772563 -0.55986619 0.050432291 192.72223
0.44682655 -0.54216039 0.054972231 194.375
0.57137895 -0.56802922 0.041916765 196.07692
0.66122454 -0.56538075 0.05114945 198.5
-0.015267133 -0.46150151 0.068076424 194.07143
0.048106927 -0.47321942 0.022555303 191.15384
0.090809956 0.16603841 0.073818944 134.63637
0.11615498 0.15485196 0.049632512 131.44444
-0.10026807 0.28770483 0.034746926 136
-0.036377326 0.24307877 0.070921242 135
0.0064719934 0.21323889 0.094654344 130
-0.27222201 0.39163104 0.031666249 122.16666
-0.15793262 0.3261576 0.012742285 139.66667
-0.31035033 0.41521487 0.027845891 139
-0.29850405 0.40640923 0.037641458 136
-0.57257438 0.57685483 0.0048353458 123
-0.73213971 0.67245144 0.0070670885 110
-0.67301613 0.63735902 0.0043068407 115.5
-0.0052662333 0.89498407 0.057714239 103.75
-0.16603757 0.93837243 0.02813556 135
-0.0076446561 0.90667892 0.048612662 109.66666
0.0035943836 0.91231966 -0.00080363255 127
-0.00042348029 -0.52133995 0.20611289 189
0.05081467 -0.53386593 0.159523 191
0.15980248 -0.55734944 0.15023708 189.88889
0.24353038 -0.56704754 0.15659228 189.6875
0.35323909 -0.57914597 0.15453663 190.54839
0.46543398 -0.56999373 0.14737859 192.11765
0.53849471 -0.54418206 0.15125041 194.53334
0.64034814 -0.57619441 0.14766295 196.25
0.73651367 -0.56920838 0.15177272 199.27272
-0.048881635 -0.47045547 0.15739682 192.375
0.086303122 0.16444741 0.099094145 122
-0.044611335 0.94856679 0.11946779 78.75
