# .PCD v0.7 - Point Cloud Data file format
VERSION 0.7
FIELDS x y z intensity
SIZE 4 4 4 4
TYPE F F F F
COUNT 1 1 1 1
WIDTH 19
HEIGHT 1
VIEWPOINT 0 0 0 1 0 0 0
POINTS 19
DATA ascii
-2.1023765 2.0509841 0.80200857 15
-1.9125332 1.9897418 0.36465985 11
-1.8913637 2.0524681 0.5337317 12.5
-0.54971653 2.4845428 0.39588374 12
0.14553523 1.971638 0.5092479 15
0.525729 -0.55622667 0.21346632 15
0.71754491 -0.56665927 0.21426949 14
1.0624183 -0.65090299 0.27262133 13
1.0316982 -0.43577632 0.29427859 15
1.7330998 0.11979092 0.30955115 12.5
1.9077892 0.85259354 0.46987098 14
1.899721 4.3963265 0.55789745 11
2.1779947 4.3846312 0.94365507 13
2.3415546 4.2210865 0.33118209 10
2.4007163 3.2998154 0.76574075 13
2.3645005 4.2114668 0.70182747 12
2.5515559 4.194593 1.023387 14
3.6667109 1.2908471 0.27155405 10
3.6994114 1.419716 0.20195206 9
