# .PCD v0.7 - Point Cloud Data file format
VERSION 0.7
FIELDS x y z intensity
SIZE 4 4 4 4
TYPE F F F F
COUNT 1 1 1 1
WIDTH 43
HEIGHT 1
VIEWPOINT 0 0 0 1 0 0 0
POINTS 43
DATA ascii
-2.3135846 2.2415674 0.41516876 11
-2.3834794 2.3278081 0.74770021 13
-2.0378778 2.421463 0.2886067 10
-2.0625639 -7.4094386 0.38146573 9
-2.0433619 1.802634 0.73580974 15
-1.8757763 1.517978 0.4611842 12.5
-1.6956587 1.237613 0.62136835 15
-1.6761018 2.9438624 0.67386985 13
-1.1985477 2.9342201 0.40136719 11
-0.43899599 1.601668 0.50272113 15
-0.43862319 2.0467558 0.43018457 13
-0.057802591 2.1005774 0.46209094 13
0.093808927 -4.0283899 0.27095914 8
0.12708208 -4.0935249 0.40020069 9
0.14280829 1.8924102 0.5344997 15
0.038839489 2.2574074 0.5231126 14
0.31899154 2.394037 0.49505576 13
0.66739458 -3.3909068 0.68861473 12
1.1077118 -2.8532031 0.27324951 9
1.3301704 -2.9552362 0.19453865 8
1.5617676 1.7766155 0.17486799 9
1.4995031 -0.039959639 0.44502741 15
1.7762362 1.6833404 0.4668158 12
1.953004 4.8087201 1.1661587 13
2.175997 -1.9066881 0.56424004 12
2.1901426 -1.5361553 0.53304189 12.5
2.3022444 -1.4647768 0.27945453 10
2.2533319 4.3445883 1.1161681 13
3.3886054 2.4895799 0.74676454 12
3.3728633 1.9820327 0.88512456 13
3.5670407 2.0153682 0.32511488 9
3.5204606 2.0421872 0.4268598 10
3.5445967 2.2264185 0.57645386 11
3.4470036 1.9844658 0.68435019 12
3.5560825 2.2095227 1.01975 14
3.7218161 1.6028404 0.37127846 9
3.7560511 1.5207319 0.50751793 10
3.7343225 1.5837172 0.6349808 11
3.6425824 1.7126712 0.93936312 13
3.665035 1.8942553 1.2095189 15
3.7329888 1.4098219 1.2252457 15
3.8400652 1.4411867 1.0352463 14
4.2537913 -5.2060676 -0.048901595 7
