# .PCD v0.7 - Point Cloud Data file format
VERSION 0.7
FIELDS x y z intensity
SIZE 4 4 4 4
TYPE F F F F
COUNT 1 1 1 1
WIDTH 199
HEIGHT 1
VIEWPOINT 0 0 0 1 0 0 0
POINTS 199
DATA ascii
0.28638572 -0.015678223 -0.10177603 172.5
-0.21759923 -0.52789158 0.066603377 187
-0.1941521 -0.5053317 0.068709008 188
-0.10975757 -0.43180808 0.059141058 186.5
0.79459947 -0.40775293 0.042462416 179
0.85087425 -0.46346301 0.046915531 195.28572
0.90630817 -0.40596506 0.034295302 176
-0.024944656 -0.36565188 0.032185581 181.5
0.032051973 -0.311454 0.035763577 178.39999
0.69181699 -0.30648264 0.039824467 158.66667
0.75496334 -0.34302789 0.039138447 164.89999
0.85482639 -0.36588281 0.029598346 169.16667
0.91806066 -0.32135329 0.017146176 167.66667
-0.25383732 -0.23677616 0.028660085 186
-0.13274534 -0.23936766 0.017667834 181.2
-0.036637519 -0.22261584 0.012606076 177.14285
0.061890513 -0.26512086 0.010351816 173.64706
0.13745072 -0.22951616 0.00075947028 161.5
0.59586191 -0.20778912 0.0027639375 157
0.65396219 -0.24176079 0.016648972 150.33333
0.74016088 -0.24032417 0.029482121 153.14285
0.8447544 -0.24553198 0.022196656 161.44444
0.94687229 -0.25409764 0.0072122058 161
-0.14820817 -0.15690501 -0.0017696028 180.5
-0.043101393 -0.13549076 -0.010320948 175.05556
0.053098667 -0.16090223 -0.025893252 169.28125
0.16285561 -0.14037837 -0.011278465 164.17021
0.23720649 -0.13074178 -0.019194346 162.57777
0.56119406 -0.14286822 -0.030097682 155.29825
0.64812624 -0.15402266 -0.0056204451 154.2973
0.73835868 -0.14075628 0.0056391382 150.55173
0.83421499 -0.15825438 0.013904523 153.75
0.95475274 -0.15269896 -0.0038112658 156.77777
-0.30653265 -0.0017910561 -0.0054243617 186
-0.20260128 -0.048973512 -0.0035408654 181.33333
-0.15772811 -0.033297569 -0.015293959 180.14999
-0.051520079 -0.036141004 -0.033590212 173.875
0.054613855 -0.046980694 -0.033041436 167.13043
0.15536554 -0.04578257 -0.029413329 163.20653
0.25419885 -0.053735785 -0.053368468 163.21428
0.34686777 -0.034738798 -0.059175745 163.74692
0.45067573 -0.033023577 -0.042977475 163.81097
0.5535931 -0.059085101 -0.054923888 161.64516
0.63616705 -0.055305589 -0.02585559 152.22449
0.74679536 -0.050683528 -0.013074406 151.13333
0.85182345 -0.06377396 -0.0013345941 152.08333
0.95451516 -0.044971053 -0.015076662 155.60001
-0.20419441 0.067279644 -0.018609554 182
-0.16173857 0.060916886 -0.027809149 180.60001
-0.046252146 0.052995201 -0.04746601 173.875
0.05194192 0.054023966 -0.049913459 168.03334
0.15555844 0.0492828 -0.042913422 163.97144
0.25516301 0.044849519 -0.066535547 163.92537
0.35598844 0.016153285 -0.062920377 162.67612
0.44522238 0.017013257 -0.049539227 162.0108
0.55492973 0.038252898 -0.069321074 159.78351
0.63971537 0.040329024 -0.039213754 148.61539
0.74103284 0.046042424 -0.02679741 148.11765
0.84611368 0.043564763 -0.016900377 149.61539
0.9509216 0.053292006 -0.033146407 155.625
-0.40889719 0.18881971 -0.034925546 190
-0.28433359 0.15902488 -0.028794978 186
-0.14701982 0.14672063 -0.044413138 180.66667
-0.043521889 0.1307714 -0.045297232 175.57576
0.044310383 0.14849597 -0.069849685 169.58824
0.15493645 0.13635512 -0.054021966 164.68852
0.2454633 0.12873907 -0.05813105 163.0145
0.30362266 0.095032401 -0.058349166 157.5
0.5658434 0.1263106 -0.068141028 152.03773
0.64949131 0.13966687 -0.048970085 149.08824
0.73938203 0.14293708 -0.03070703 147.20833
0.83643162 0.15273894 -0.031887665 150.09091
0.95514435 0.15468095 -0.050555162 156.8
-0.3782835 0.28035924 -0.047706813 188
-0.1305245 0.2213522 -0.052041624 181.25
-0.034352485 0.2096841 -0.047867373 177.45454
0.060993318 0.22908823 -0.073063336 172.32143
0.15383102 0.22640243 -0.077717677 167.8
0.206929 0.1976849 -0.064401932 167.5
0.65940356 0.22969292 -0.053826895 147.64285
0.75196761 0.24185736 -0.042948168 152.2
0.84819418 0.24583013 -0.051007662 159.33333
0.9448173 0.240514 -0.067485251 161.2
-0.036371388 0.35883275 -0.055279791 183.60001
0.051870175 0.36424956 -0.070828401 180
0.74368489 0.33455297 -0.062302731 160.875
0.84581238 0.34244174 -0.073827684 162
0.92732787 0.33401969 -0.076007493 161
-0.26682767 0.43222693 -0.067494422 190.66667
-0.1172463 0.42828253 -0.068052471 187.33333
-0.052189834 0.45744425 -0.070600413 187
0.014218266 0.4049069 -0.072710805 183.16667
0.84815514 0.4260332 -0.093316436 162.5
-0.24548265 0.53830618 -0.086367637 189.75
-0.14494549 0.55527526 -0.089497186 188.5
-0.075781912 0.50173271 -0.073758185 189
-0.41325292 0.68208408 -0.10783775 160
-0.3147063 0.59747458 -0.09283036 176
-0.22501561 0.66609669 -0.10503532 181
-0.18924971 0.62678182 -0.098157428 186
-0.31623414 0.7659893 -0.11961513 162.5
-0.54379642 -0.79834491 0.13430013 135
-0.52063805 -0.78038019 0.12672047 136
-0.45128587 -0.71972924 0.11934645 139.66667
-0.40104875 -0.67759275 0.10999485 150
-0.34166434 -0.62879229 0.096701965 162.8
-0.44430059 -0.55154002 0.089974195 147.5
-0.36930847 -0.50317496 0.078289375 168.33333
-0.24862115 -0.54980433 0.08153104 180.2
-0.75395012 -0.41486812 0.072967157 132
-0.30849758 -0.45923784 0.081220478 178
-0.26623052 -0.42667037 0.088586845 177
-0.14214978 -0.45687613 0.069851011 188.8
-0.086360112 -0.40907735 0.061725006 186
0.84078646 -0.46182421 0.12550573 199.63637
-0.65051502 -0.37671733 0.068419494 136.75
-0.54648978 -0.33973184 0.058962058 152.66667
-0.47588754 -0.31511223 0.050854292 166
-0.21837497 -0.31576788 0.066686377 185.28572
-0.17043787 -0.31235141 0.083760187 183.5
-0.054210104 -0.38010061 0.060227372 184.2
-0.7243439 -0.25882822 0.053596731 131.5
-0.6505214 -0.24292915 0.044845179 139
-0.54032981 -0.21693137 0.041231014 157.25
-0.4505578 -0.24837223 0.04384771 173.5
-0.3693324 -0.27410248 0.052300926 181
-0.23012863 -0.22967659 0.060311213 181.125
-0.16990776 -0.24023443 0.055754025 179.93333
0.13689078 -0.21143974 0.042720642 141.5
-0.73292947 -0.12968601 0.033155918 129.5
-0.65201658 -0.12093023 0.02806869 139.66667
-0.54335463 -0.10814769 0.026286937 158.75
-0.44383559 -0.14574242 0.025702165 178.625
-0.34363049 -0.17194363 0.02898364 188.60001
-0.25027987 -0.14989488 0.026094791 185.71428
-0.1884682 -0.13563713 0.022758983 182.66667
0.081392899 -0.17988653 0.09364561 150.71428
0.13304742 -0.16017497 0.060955644 129.25
-0.73673731 0.0017081625 0.013736247 123.5
-0.65733457 0.00096570083 0.0095587168 137
-0.55243492 0.0006999647 0.0083202869 157.5
-0.45057228 -0.016546762 0.0036444515 182.16667
-0.3392342 -0.042338721 0.012234646 188.58333
-0.23442569 -0.039051797 0.0107201 184.2
0.17030726 -0.075055733 0.026890401 160
-0.43883801 0.096262984 -0.013909518 182
-0.33058751 0.084258109 -0.0059569608 188.8
-0.24412052 0.073865786 -0.0055462136 183.71428
-0.74082166 0.13377178 -0.0059619579 125.5
-0.66609401 0.12412378 -0.010707655 139
-0.54394424 0.10960388 -0.0090868948 158.2
-0.42921552 0.19465448 -0.026159599 183
-0.33873296 0.17305844 -0.021257713 188.75
-0.25151724 0.15210527 -0.017884856 186.16667
-0.19357717 0.1378981 -0.018525515 183.33333
0.0085422602 0.19081482 0.062194195 158
0.20019017 0.18882735 0.057406828 147
-0.73697191 0.26995522 -0.023863729 125
-0.64484578 0.24716391 -0.027148463 137.25
-0.5287981 0.21899441 -0.025759963 163.5
-0.43401513 0.24766412 -0.028209085 182
-0.35754582 0.27335209 -0.036150984 189.5
-0.25509989 0.23555589 -0.028959675 187
-0.17728922 0.20676818 -0.024776671 184.60001
-0.058095831 0.25472984 0.0031415264 179
0.040530872 0.22697209 -0.0022094254 160
0.12805125 0.24152198 0.017970599 164.5
-0.649499 0.38188499 -0.043208931 133
-0.56030941 0.34866974 -0.042095955 149.66667
-0.46818417 0.314495 -0.03874325 170.75
-0.1669673 0.36548832 -0.044454746 187.83333
-0.073263995 0.36699969 -0.043916859 186
0.052167986 0.31696507 -0.031646915 180
-0.73752111 0.41465628 -0.044340868 120.5
-0.32635254 0.47152716 -0.051723365 172.83333
-0.25766164 0.42602009 -0.060404755 190.5
-0.1482566 0.45430824 -0.063714862 189.5
-0.013916525 0.43349433 -0.059880819 186.33333
-0.25823647 0.54876626 -0.080870129 187
-0.082618862 0.50877076 -0.071307637 189
-0.41144499 0.67968458 -0.094757192 153
-0.34211135 0.62040991 -0.088007338 170.66667
-0.16519466 0.59969181 -0.088408545 184
-0.5336628 0.78432882 -0.10920954 127
-0.46206477 0.722844 -0.097981267 142
-0.32228476 0.7706694 -0.10521341 158
-0.25755501 0.7006312 -0.10154225 173.5
-0.54637933 0.79463416 -0.10195464 125
-0.37952453 0.83362085 -0.11651638 145.66667
0.8124879 -0.44483009 0.22965662 197.07143
-0.074275322 -0.23227154 0.16801333 161.60001
0.025823146 -0.18631954 0.17973883 141
-0.03130484 -0.15871868 0.1985323 145.25
0.054457143 -0.16990651 0.16143766 139.29411
0.041272335 0.17964582 0.13587813 130.875
0.14810261 0.18289895 0.10851096 121.32
0.20179467 0.18270914 0.091231592 121.33334
-0.067330129 0.29663938 0.11723746 158
0.0063197622 0.24699533 0.16020502 143
