# .PCD v0.7 - Point Cloud Data file format
VERSION 0.7
FIELDS x y z intensity
SIZE 4 4 4 4
TYPE F F F F
COUNT 1 1 1 1
WIDTH 35
HEIGHT 1
VIEWPOINT 0 0 0 1 0 0 0
POINTS 35
DATA ascii
-3.1797357 8.5116386 0.67634064 13
-3.1197057 8.5462971 0.78862232 14
-3.1784952 8.5729055 1.124144 15
-2.6208427 8.9017134 -0.5805189 9
-1.6853607 2.7195396 0.25820628 13
-1.2556145 1.0792062 0.15003029 13
-1.2490199 1.0551476 0.23472792 14
-0.86009276 -0.71053612 0.4208391 15
-0.79709011 3.3103104 0.014813006 11
-0.74380654 3.3472936 0.22896735 13
-0.71667367 3.3907647 0.50955278 15
-0.47874859 3.4483969 0.042119294 12
0.15020579 3.6190732 0.032985825 11
0.2748926 2.1673315 0.22839628 14
0.23117478 3.6458628 0.14980781 12
0.42394733 1.8697659 0.28577691 15
0.5761714 2.2998176 0.23052815 14
0.71829778 2.2346601 0.1724287 13
0.96790099 -0.45778659 0.11977636 8
0.88094181 1.7856466 0.29853299 15
0.91838783 2.4015048 0.15203246 12
1.1079741 -0.23258784 0.38560551 15
1.0123731 2.4469144 0.20762672 13
1.2975217 2.3879342 0.14883539 12
1.422399 -0.32392091 0.14823116 9
1.5335993 1.1277779 0.27374431 13
1.6677533 -0.24176341 0.093894385 8
1.8161856 -0.064468957 0.3038584 11
3.6485651 1.7175008 0.00037381719 8
3.9264219 0.67263532 0.52623934 11
3.9616258 0.5673117 0.64229792 12
3.9217453 0.71115166 0.85441244 13
3.7985668 1.2810342 0.80625212 14
3.9277835 0.7962929 1.0776601 15
3.8088589 1.3355649 0.95924407 15
