# .PCD v0.7 - Point Cloud Data file format
VERSION 0.7
FIELDS x y z intensity
SIZE 4 4 4 4
TYPE F F F F
COUNT 1 1 1 1
WIDTH 42
HEIGHT 1
VIEWPOINT 0 0 0 1 0 0 0
POINTS 42
DATA ascii
-2.2170413 2.7244492 0.50136453 13
-2.2103736 2.2571969 0.67106056 15
-2.1440465 1.4585328 0.24989639 11
-2.1157999 2.2840998 0.07788869 10
-2.0724261 -0.39184782 0.57023221 14
-2.1521473 1.85981 0.24898189 11
-2.1438441 2.2884312 0.2815932 11.5
-2.1348178 1.5286416 0.53256142 14
-2.1111698 1.826192 0.63614947 15
-2.0979083 2.0304666 0.51829302 14
-2.0968111 2.0498266 0.47995275 13
-2.0790544 2.4100604 0.53669977 14
-1.4469148 -0.41902226 0.38181925 14
-1.1579242 -0.41102365 0.38486916 15
-0.93578768 1.441152 0.34354928 14.5
0.028370939 0.8298924 0.14189419 14
0.2159775 1.2140037 0.085338436 11
0.90415543 -0.52809006 0.070164621 8
0.97158593 -0.493404 0.38107446 15
1.0147092 -0.50889677 0.18811108 11
1.1779889 0.80539584 0.30378163 14
1.2408065 0.82407874 0.37064663 15
1.543918 0.84372705 0.32711461 13
2.7927179 1.5181576 0.33914605 11
2.9376948 -0.26402426 0.14375354 8
2.8562171 -0.25231394 0.3220599 10
2.8423882 -0.043210924 0.23732194 9
2.8971028 0.037341364 0.33736125 10
2.8942599 0.30348253 0.25265771 10
2.8480351 0.65541631 0.30293915 10.5
2.8050802 0.92556739 0.26029634 10
2.8512652 1.2091682 0.16332904 9
2.7999711 1.2815567 0.26680225 10
2.8907516 0.4302825 0.43121725 12
2.8637609 1.1362158 0.35991964 11
2.804409 1.3212868 0.47433978 12
2.8900397 0.3696458 0.70425344 14
2.8881392 0.64204472 0.64078546 14
2.8811557 0.82398587 0.61714864 13
2.8710413 0.91183835 0.65123165 14
2.8672514 1.1907104 0.54596049 13
2.9077287 0.18883738 0.83802676 15
