# .PCD v0.7 - Point Cloud Data file format
VERSION 0.7
FIELDS x y z intensity
SIZE 4 4 4 4
TYPE F F F F
COUNT 1 1 1 1
WIDTH 164
HEIGHT 1
VIEWPOINT 0 0 0 1 0 0 0
POINTS 164
DATA ascii
-3.760184 6.5775003 0.18253295 10
-2.0835986 -0.4246141 0.35666785 11.5
-2.0668976 1.220579 0.21671477 11
-2.1261601 1.4606763 0.20888257 10.666667
-2.1329715 1.803033 0.18849903 10.5
-2.1754532 2.2062495 0.14278373 10
-2.1971776 2.6406655 0.13837107 10
-2.1841254 2.9414096 0.13685291 10
-2.075361 -0.41859373 0.5482704 13.5
-2.1005507 1.2380117 0.46038979 13.5
-2.1268487 1.4513899 0.47414285 13.5
-2.1406052 1.8318193 0.42051396 12.818182
-2.1557012 2.2403667 0.39683938 12.5
-2.199805 2.6577976 0.33400843 12
-2.1909888 2.8861291 0.39124939 12.2
-2.1542983 1.9877982 0.66873676 15
-2.2004976 2.328681 0.71079147 15
-2.1571007 2.7273293 0.58601087 14
-2.1623137 2.9306972 0.583812 14
-1.8394966 -0.43940297 0.36705202 12
-1.826811 -0.42545417 0.49924153 14
-1.2837269 1.8507346 -0.26415128 6
-1.3657421 2.5215578 -0.33923373 6
-1.3901967 3.4119449 -0.41602296 6
-1.4163306 -0.42377031 0.38198355 13.5
-1.5111564 -0.4177236 0.47225076 15
-0.88228035 1.3976917 -0.15983373 6
-0.88169301 1.8120166 -0.20064057 6
-1.1881262 2.2643473 -0.30103326 6
-0.93141794 2.5369148 -0.33176425 6
-1.1850227 3.0302241 -0.40512276 6
-1.1302017 -0.4096925 0.36389312 14.5
-0.91433901 1.4417773 0.26908186 14
-0.86809564 1.4665215 0.33178008 14.5
-0.43772551 0.65385097 -0.098957628 5.6666665
-0.5448088 0.95480937 -0.13121231 5.8000002
-0.59262633 1.4133704 -0.1754 6
-0.53477883 1.7657485 -0.21815525 6
-0.58080697 2.206439 -0.28166059 6
-0.56723952 2.6181068 -0.34517646 6
-0.42470297 0.68046856 0.044618655 11
-0.1585792 0.61002153 -0.10133538 4.8000002
-0.19551377 0.90197563 -0.12538357 5.5999999
-0.3405517 1.3891213 -0.16539316 6
-0.14169516 1.7889773 -0.22798342 6
-0.19535598 2.1561663 -0.27762237 6
-0.2035722 2.6320379 -0.3450751 6
-0.31160495 3.1276278 -0.4194892 6
-0.39081204 3.4430914 -0.41951883 6
-0.059301518 -0.56505537 0.16684707 13
-0.37202963 0.63429171 0.057149924 11
-0.055268258 0.82905239 -0.068781883 7
-0.10806324 1.94669 0.0022036138 10
-0.13818549 2.0640173 0.0051536141 10
0.29600036 -0.48990443 0.022803025 6.25
0.38608161 -0.34096992 0.0010577643 5.5
0.35524878 0.36472639 -0.074880481 4.5
0.18572098 0.59242529 -0.089866795 5.3333335
0.19062093 1.0322433 -0.15014832 5.1999998
0.087779507 1.3249902 -0.17812017 5.6666665
0.019761316 1.6212858 -0.20699404 6
0.1724539 -0.56081253 0.14866719 11.8
0.18550161 0.73168617 0.050784335 10.8
0.20022143 0.99788946 0.14089721 13.222222
0.20354104 1.2724186 0.10878997 12
0.38499087 1.9909577 0.056872841 10
0.5433147 -0.43894339 0.021670235 6.3333335
0.56324548 -0.21157214 -0.018089797 5.2142859
0.54426438 0.25176707 -0.083908923 3.4000001
0.62626755 0.5665403 -0.091153853 5.3333335
0.59890139 1.0273796 -0.15091321 5.4285712
0.63556308 1.4827482 -0.19863823 6
0.5222733 1.7295139 -0.22433127 6
0.76867682 2.2581956 -0.30166835 6
0.48793203 2.6392317 -0.34432501 6
0.49720818 2.880549 -0.37367493 6
0.5134483 3.2493649 -0.42706168 6
0.50520271 3.6275003 -0.3789269 6.5
0.59699684 -0.53369671 0.17769261 11.777778
0.72923821 -0.27169901 0.02710567 7
0.68718898 0.74229026 0.0091609564 9
0.66534066 0.97807169 0.1274872 11.888889
0.72741973 1.2214272 -0.048753254 8
0.69831669 2.1605446 -0.075998783 8.5
0.48355255 3.654259 -0.28850919 7
0.55720156 1.5674661 0.3374474 15
0.43961686 1.6546611 0.36071533 15
0.612652 2.1180217 0.30342916 13
0.89463013 0.64996952 -0.11273538 5.5999999
0.97187227 0.94552267 -0.13541888 6
1.1033485 1.3677942 -0.19930626 6
1.0900275 2.3356478 -0.26869792 6
0.8255828 2.5861399 -0.34765315 6
0.88745892 2.950943 -0.39314702 6
0.99082464 3.6212544 -0.43575713 6
1.0042942 -0.51335567 0.21529621 11.529411
1.1159999 -0.32211152 0.34517005 14.5
0.96588349 0.97004843 0.20346573 12.875
1.0207016 2.2461815 -0.097585529 8.333333
1.167366 0.82535046 0.34798244 15
1.1826532 1.1844891 0.39317718 15
1.2764045 1.125738 -0.13227887 6.5
1.2831349 1.3731171 -0.18947196 6
1.4690295 1.7580674 -0.26293233 6
1.2346755 -0.51864117 0.15010948 9.5
1.3609997 -0.31575072 0.35563347 13.5
1.2139978 0.79448247 0.30149198 14
1.5145974 0.97641164 0.30969068 13
1.3358132 1.2331429 -0.056322347 7.5
1.4414822 1.8165312 -0.046531986 8.5
1.2371336 2.0749996 0.030974567 9
1.4825557 -0.30074459 0.44779089 14.666667
1.2842886 0.82837611 0.37691703 15
1.3808365 0.93675107 0.37977672 14.5
1.4578762 1.6075892 0.49681947 15
1.3861523 1.9302139 0.38037255 13.5
1.7297499 2.1775587 -0.32846549 6
1.8729497 2.4078641 -0.36465222 6
1.6848569 7.7052431 -0.95047003 6
1.926566 9.4011946 -0.97984332 6.5
1.7788427 -0.30287614 0.33185849 11.714286
1.672083 1.3218615 0.21919711 11
1.8025301 1.7071917 0.15557186 10.5
1.8325474 -0.26861545 0.4984138 14.2
1.7235968 0.95900804 0.43671232 14
1.8789232 1.8028564 0.34796599 12.5
2.0460165 2.6864188 -0.40794381 5
2.2324634 2.988651 -0.45021343 6
2.2469053 6.1186118 -0.73208809 6
2.1559641 -0.28845012 0.32543376 11
2.1554091 -0.25277868 0.49896088 13.333333
2.5218756 3.4635048 -0.50416571 5.5
2.5393116 -0.27967373 0.28883663 9.8000002
2.7899933 1.2035323 0.26603225 10
2.7959504 1.3555808 0.26739436 10
2.5658395 2.8222687 -0.11925244 8
2.5643556 3.6714163 -0.23025931 7.5
2.5720704 -0.2415121 0.50046337 12.333333
2.796797 1.2220252 0.33774498 11
2.7916358 1.4869455 0.37306696 11.5
2.5601225 3.0460129 0.47775558 12
2.7815967 2.2907181 0.65430659 13.5
2.7616901 2.6387482 0.66412038 13.5
2.6896508 2.9728544 0.63782632 13.333333
2.8851464 -0.15130165 0.28021392 9.5
2.8634429 0.23169822 0.23548202 9.5714283
2.8638837 0.64171642 0.21161501 9.5555553
2.8593223 1.016701 0.1709359 9.333333
2.8582516 1.3927183 0.16638584 9.5
2.988095 -0.38260767 0.75609887 14
2.8767688 -0.13542029 0.63880438 13.2
2.8546679 0.25536528 0.57441556 12.818182
2.8418794 0.63788956 0.53841972 12.555555
2.8221405 1.0463102 0.50759649 12.5
2.8282268 1.3890067 0.49594006 12.285714
2.8458824 2.1546865 0.5918225 13
2.8847694 -0.47732428 0.88757664 15
2.8888636 -0.122845 0.88021207 15
2.8706553 0.25650319 0.81279176 15
2.8618598 0.68608975 0.81637341 15
2.8666282 1.0916126 0.78024548 15
2.8559551 1.3774909 0.76396602 15
2.8326063 2.2463498 0.81147987 14.666667
2.8199649 2.6575894 0.88761806 15
