# .PCD v0.7 - Point Cloud Data file format
VERSION 0.7
FIELDS x y z intensity
SIZE 4 4 4 4
TYPE F F F F
COUNT 1 1 1 1
WIDTH 77
HEIGHT 1
VIEWPOINT 0 0 0 1 0 0 0
POINTS 77
DATA ascii
-6.1480498 -1.7936705 0.075665087 7
-6.1430707 -1.6774741 0.58221769 10
-6.1739535 3.029171 0.63401788 10
-6.10291 4.9047489 0.71261066 9.5
-6.1739659 3.4011257 1.0827712 11
-6.0999417 4.2393093 1.0146233 11
-6.1729751 3.5257673 1.3355094 12
-6.1009536 4.1432028 1.218585 12
-6.0449309 5.2002821 1.3148222 12
-6.0619965 3.0674925 1.5441557 13
-6.1499639 4.1167126 1.4299314 13
-6.0590024 3.0129855 1.6453586 14
-6.082983 3.8593669 1.6930199 14
-6.1620135 3.3160384 2.0223424 15
-6.0649862 4.3811522 2.0268841 15
-5.9769506 5.9263763 2.1094601 14
-5.5249295 3.5087683 0.39877141 9
-5.0771036 -1.1930817 1.5351104 15
-4.8819413 6.5800886 2.2679107 15
-4.6318941 6.6572766 1.310277 12
-4.6649079 6.5750408 1.5662719 13
-4.0189195 6.5425758 1.7769333 14
-3.8088927 6.5829782 1.2580491 12
-3.4019179 6.565959 1.7666901 14
-3.5889342 6.6251273 2.1364222 15
-3.0068939 6.6004195 1.280338 12
-3.1119084 6.5546312 1.5598617 13
-1.9039124 4.5926609 0.60619897 11
-1.616886 5.8943958 0.74504167 11
-1.641903 5.9394569 1.1231536 12
-1.6159204 5.8871999 1.4562951 14
-1.4158794 5.8756485 0.59976292 10
-1.3090347 -0.58521575 0.41098538 15
-1.1005299 -0.58979356 0.31525961 14.5
-0.8628841 5.9097614 0.71772301 10
-0.91991693 6.1575222 1.5282075 14
-0.73893142 6.1757302 1.8366141 15
-0.42288762 5.9226141 0.79483837 11
-0.54290414 5.9144392 1.1383238 12
-0.53191006 5.9048829 1.2509906 13
-0.064875185 -0.88263327 0.20750736 14
0.34811419 5.997654 0.79888958 11
0.56321299 -0.88950682 0.2142548 13
0.69706774 -0.88212997 0.11160371 10
0.72842681 -0.87698734 0.32390842 14.5
0.64111632 5.8002687 0.64819199 10
0.75607389 6.0162249 1.6472337 15
0.98808211 4.4119873 0.63391674 11
1.0410789 4.0170245 0.48456484 10
1.1200751 6.0078583 1.6079683 14
1.3039663 -0.6495468 0.35098562 14
1.282068 5.9935093 1.7603549 15
1.4309686 -0.67040545 0.29005691 12
1.6979674 -0.67904508 0.3157208 12
1.7810575 3.0250914 0.39924517 10
1.7750391 3.0058939 0.77565348 13
1.7840557 5.1988983 1.5839897 15
1.9663526 0.71110636 0.11306844 9
1.9626077 1.271284 0.056858141 8
1.9244709 -0.65545177 0.26620048 11
1.9800063 0.72780943 0.25521356 10
1.9226264 -0.6494441 0.49204364 14
1.8630701 3.8606322 0.57856089 11
1.9525973 0.77685112 0.60771334 15
1.8050373 3.0670948 0.84447616 14
1.8610429 3.9274402 1.1939839 15
2.0270278 1.7005152 0.31609571 10
2.0190136 1.4472346 0.48700425 13
2.0525298 2.0866525 0.47597092 11.5
2.08005 2.7214949 0.41100162 10
2.0430493 2.9076223 0.5130145 11
2.0280039 1.5088642 0.71099305 15
2.0530221 2.2186944 0.70492405 14
2.0800295 2.442344 0.67951554 13
2.0510411 2.937922 0.69192863 12.5
2.074018 2.2767687 0.82473862 15
2.1100302 2.9119964 0.91946435 14
