# .PCD v0.7 - Point Cloud Data file format
VERSION 0.7
FIELDS x y z intensity
SIZE 4 4 4 4
TYPE F F F F
COUNT 1 1 1 1
WIDTH 220
HEIGHT 1
VIEWPOINT 0 0 0 1 0 0 0
POINTS 220
DATA ascii
-0.18071219 -0.93162936 -0.0065289731 211.5
0.1186609 -0.93988514 -0.014264313 210
0.25558874 -0.93192232 -0.012348085 207.66667
-0.51162136 -0.84687358 -0.0031772954 152
-0.32957235 -0.88047534 -0.0092264004 177
-0.27911213 -0.81813776 -0.0081768911 167.33333
-0.14526132 -0.87735647 -0.014490193 172.33333
-0.0061726454 -0.89923787 -0.013947872 176
0.026497949 -0.8224864 -0.010364673 175.5
0.14287321 -0.85586083 -0.014326451 183
0.2688224 -0.85343462 -0.019126086 182
0.38293505 -0.85724431 -0.019113056 180
0.49515721 -0.80246872 -0.01622065 180
0.50119531 -0.8448509 -0.017869115 175.5
-0.40972239 -0.74991596 -0.00043409682 152
-0.37941206 -0.72437447 -0.011043964 162
-0.22213335 -0.74714661 -0.0053687776 168.5
-0.19455145 -0.71543944 -0.011168812 174.5
-0.077552147 -0.76413685 -0.010264515 174.8
0.069246829 -0.72621238 -0.011810522 181.60001
0.17562525 -0.7428903 -0.015101301 181
0.28422964 -0.75061041 -0.021544484 186.75
0.38376787 -0.75096226 -0.018606992 186.8
0.48456982 -0.72837347 -0.013251177 186.60001
0.58720124 -0.72935009 -0.011398124 181.5
0.64522302 -0.74245965 -0.016628861 180.5
-0.46132931 -0.61291695 -0.0082921926 153
-0.32982084 -0.67568314 -0.0044799028 168
-0.27673697 -0.62711686 -0.0097571732 176.25
-0.13268811 -0.63952208 -0.011237836 181.5
-0.017502818 -0.66609132 -0.011333122 181.60001
0.051367257 -0.65030813 -0.015004038 185.5
0.15079069 -0.659069 -0.012537241 189.25
0.24687278 -0.62417084 -0.0061672004 188.57143
0.36196202 -0.62312675 -0.0097180214 188.625
0.4717665 -0.63760251 -0.010217492 189.5
0.57269144 -0.67019957 -0.016718891 187.60001
0.6643877 -0.64929885 -0.017216934 185.8
0.75542152 -0.61821443 -0.020003378 189
-0.42204285 -0.58338058 -0.0031009912 163
-0.34795362 -0.53072155 -0.0068213707 170.5
-0.20797321 -0.56114918 -0.0060059708 183.66667
-0.17675403 -0.53434503 -0.015195535 184
-0.051112939 -0.53854781 -0.0090138298 187.16667
0.052559957 -0.55015785 -0.0095006255 187
0.13350579 -0.5767895 -0.0071148574 187.33333
0.23069334 -0.54054797 -0.0045466968 186
0.3464992 -0.53554887 -0.0072574196 185.57143
0.46394035 -0.57219899 -0.012803081 187.39999
0.53792971 -0.55050063 -0.0094617223 188
0.62726647 -0.53905028 -0.012364629 189.375
0.72880006 -0.57138222 -0.023061635 190
-0.25302184 -0.46203369 -0.0061691743 186.75
-0.11708242 -0.47387192 -0.00076723279 183.5
-0.059456099 -0.45888373 -0.0078291818 185.5
0.050281689 -0.43533394 -0.016313154 182.84616
0.14967105 -0.46370846 -0.022529369 181.5
0.24773429 -0.46134642 -0.025797522 179.875
0.35795909 -0.46250364 -0.02791719 179.70833
0.45201582 -0.45697942 -0.023924047 180.61539
0.53956097 -0.44048613 -0.016187798 182.45454
0.65601999 -0.45431161 -0.010207843 186.88889
-0.017416744 -0.38455895 -0.017276177 182.66667
0.055963863 -0.33667618 -0.021644041 178.61539
0.15337333 -0.33754182 -0.02857109 175.32259
0.25304097 -0.34703434 -0.038146734 173.36586
0.35703978 -0.34014878 -0.041843306 173.21277
0.45559323 -0.3346498 -0.028797854 175.42857
0.54649615 -0.34955934 -0.028796449 178.27777
0.61162943 -0.37187517 -0.024265928 181.5
-0.22943988 -0.23772208 -0.0079533234 185
-0.13212904 -0.23105054 -0.021069743 181.375
-0.03397049 -0.23017193 -0.022155643 177.76923
0.053435348 -0.24784888 -0.041584861 173.5
0.15587504 -0.25545114 -0.054741502 169.48276
0.253916 -0.24393982 -0.045200828 168.46153
0.35675615 -0.24287458 -0.050593637 167.78723
0.45492661 -0.25024229 -0.062851869 167.9796
0.52823961 -0.25401965 -0.04353581 172.75676
-0.10429431 -0.19269477 -0.032225437 180
-0.035594728 -0.16575474 -0.028751045 175.8
0.043967344 -0.15125099 -0.055258486 167.42857
0.15656759 -0.14161806 -0.034807634 162.43396
0.25306496 -0.1438176 -0.040706974 163.32967
0.35294071 -0.14269599 -0.045614097 160.45529
0.44425404 -0.14200148 -0.051528525 163
0.5132702 -0.1820311 -0.072777033 166.875
0.16978076 -0.087151013 -0.038096633 163.82353
0.26056072 -0.07139986 -0.058396395 161.39706
0.36650407 -0.042742588 -0.062360998 163.31165
0.41713417 -0.053883735 -0.051691685 163.64894
0.38411239 0.042328231 -0.054817755 159.18823
0.43322358 0.047262773 -0.050438508 161.85585
0.54937285 0.076618001 -0.064468548 157.25714
0.6079095 0.094452724 -0.035981823 149.25
0.28458792 0.17696768 -0.049399097 153.76923
0.35331905 0.14461748 -0.050715405 157.00926
0.44480217 0.14008003 -0.056589976 159.48148
0.54994106 0.14829309 -0.059608184 152.70886
0.64397293 0.14762948 -0.033211771 150.625
0.73345691 0.16173808 -0.021855118 149.63158
0.82667035 0.19241989 -0.015336029 154.66667
0.25741604 0.25388935 -0.054103013 147.7
0.35368127 0.25675541 -0.061159577 151.63077
0.4574466 0.24941693 -0.056965984 153.16129
0.54319781 0.24051911 -0.035264183 149.72093
0.64929336 0.2502802 -0.028927021 148.68965
0.73995614 0.24043934 -0.013562892 153.28572
0.85139841 0.25138968 -0.020886527 163.44444
0.95331019 0.24586122 -0.029427234 165.5
0.17763078 0.33758608 -0.038874295 170.71428
0.25749028 0.34088299 -0.036054779 162.84848
0.3560957 0.34027293 -0.030166885 154.25
0.44909841 0.34126136 -0.028453711 151.33333
0.55187768 0.34716633 -0.028496658 153.78261
0.64455229 0.34098026 -0.019287672 160.23529
0.74970651 0.34428918 -0.022276767 165.39999
0.85334671 0.36596483 -0.0324178 166.33333
0.92782605 0.32087699 -0.035296328 167.33333
0.088289343 0.46536815 -0.018895539 175.5
0.15286228 0.44851023 -0.041357648 177.79167
0.24325173 0.46526656 -0.043368358 178.5
0.34593096 0.46257523 -0.040361635 176.19231
0.45972222 0.44202325 -0.030027581 169.95454
0.55217141 0.44067055 -0.020929096 170.10001
0.6411202 0.44045267 -0.024214247 172
0.7265597 0.43377647 -0.02467737 171
0.83726484 0.4577015 -0.040549554 166.8
0.9027074 0.40504584 -0.03304296 166
0.041262992 0.53562737 -0.015155633 157.875
0.13465582 0.56162381 -0.023552267 168.66667
0.25279355 0.56410611 -0.030057011 175.85715
0.36305442 0.55434811 -0.030467166 180
0.44687018 0.56387085 -0.032281283 178
0.54123974 0.53913093 -0.030254753 175.72728
0.65378708 0.54123139 -0.036883872 172.39999
0.75416791 0.54923654 -0.043186635 168.14285
0.81386346 0.56492263 -0.043303527 158
-0.026687536 0.64160913 -0.019418228 145
0.074541643 0.66666979 -0.024688369 148.39999
0.16796347 0.65697932 -0.028629899 160.85715
0.27738377 0.65511096 -0.033817869 168.25
0.36941892 0.64259446 -0.033510741 172.75
0.45846847 0.66150773 -0.04063103 169.75
0.55282497 0.66350865 -0.040190283 163.39999
0.64214951 0.64020848 -0.043061689 167.16667
0.73426503 0.61987913 -0.041410293 166.5
-0.12402459 0.79113805 -0.020713745 141
-0.082972914 0.72636533 -0.016506409 141.75
0.030791521 0.75705969 -0.023091109 141.8
0.15098871 0.74998415 -0.027901053 147.25
0.26328355 0.73307687 -0.033626974 157.60001
0.36642936 0.7350859 -0.035842933 162
0.46491894 0.739245 -0.037936632 159.39999
0.57618165 0.76255053 -0.040236138 154.60001
0.67571265 0.72461939 -0.047267713 155.5
-0.16636579 0.85596502 -0.020819264 132.75
-0.019000296 0.86469072 -0.028836722 139
0.12282564 0.83601832 -0.02702035 135.75
0.24644867 0.82324153 -0.03168178 143.5
0.36194134 0.84166527 -0.035085808 148
0.47210547 0.82230645 -0.036112662 150.66667
-0.21111812 0.9202624 -0.011904159 124.5
-0.060187154 0.94623429 -0.021744724 130.25
0.091035694 0.93673736 -0.029947506 131
0.226851 0.93926769 -0.036155272 133.5
-0.1858286 -0.92240167 0.029296437 211
-0.036867723 -0.9046979 0.080909543 207.25
0.11084048 -0.93244135 0.019230001 208.60001
0.24439524 -0.94280648 0.020082265 207.75
-0.52036679 -0.8405695 0.047350835 217.28572
-0.33366597 -0.86253768 0.052714478 213.44444
-0.15443943 -0.84195745 0.088087089 210.66667
-0.015141261 -0.88988787 0.029894348 210.57143
0.10584217 -0.89198625 0.075188749 207.5
0.23616411 -0.88418657 0.075981118 207.75
0.35493755 -0.88318366 0.074234754 207.39999
-0.61486661 -0.71975416 0.0096979979 130
-0.5946033 -0.70656091 0.0032791838 135
-0.44446254 -0.78151 0.003695508 150
-0.37752804 -0.71890372 0.0017515227 157
0.28152803 -0.72188818 0.0013927935 185
-0.53322715 -0.66167367 0.0057780729 138
-0.47829753 -0.62274182 0.002504397 147
0.29664966 -0.61768454 0.00055488507 189
-0.36616197 -0.54111773 0.0054002516 164.5
-0.038528521 -0.519238 0.0013929397 190
0.032801062 -0.57740563 0.0010731353 189
0.15993492 -0.51048905 0.001922188 186
0.45160285 -0.50874108 0.0006707767 186
-0.82394874 -0.46457663 0.0071734451 115
-0.30052862 -0.49459484 0.0015513493 177
-0.28021389 -0.479738 0.002393028 182
-0.15333314 -0.44312388 0.0038808403 186
-0.045941971 -0.40500584 0.005222457 186
0.055517774 -0.46489447 0.0024729585 186
0.45014864 -0.49710163 0.00040156985 186
-0.13411596 -0.36950904 0.023471158 185.5
-0.038436651 -0.39834958 0.0037388413 185
-0.20365058 -0.21467732 0.092998281 179.5
-0.1656318 -0.23584096 0.035055432 179
-0.072008118 -0.27468383 0.057849322 174.5
0.011478567 -0.24719407 0.099830225 165
0.095009543 -0.18883099 0.090999089 136
0.12356337 -0.17862217 0.044065859 142.21739
-0.045521934 -0.90393597 0.11105966 206.5
-0.35549325 -0.86504906 0.11830375 210
-0.16840881 -0.83786583 0.14309166 208.875
-0.055985395 -0.89300698 0.16231386 205.375
0.08647152 -0.8785401 0.15334354 206.3
0.10076591 -0.88257605 0.10136172 208
0.21601774 -0.8784411 0.14652114 207.27272
0.33260152 -0.87984276 0.14940473 207.27272
0.45182148 -0.88278008 0.16453195 207
-0.37432656 -0.27702212 0.11886635 134
-0.21189311 -0.21316406 0.12911516 168.5
-0.027551666 -0.20525326 0.1018394 170
0.053608932 -0.21204133 0.12084927 135.33333
-0.0070101875 -0.17991598 0.18393582 155.71428
0.028366793 -0.17810012 0.14379236 138.42857
