# .PCD v0.7 - Point Cloud Data file format
VERSION 0.7
FIELDS x y z intensity
SIZE 4 4 4 4
TYPE F F F F
COUNT 1 1 1 1
WIDTH 363
HEIGHT 1
VIEWPOINT 0 0 0 1 0 0 0
POINTS 363
DATA ascii
-11.256196 -3.297492 2.3487296 13
-10.529191 -3.3500929 2.2084613 13
-9.8791399 -3.09428 1.2562704 11
-9.9301767 -3.303225 1.8948469 12
-9.9441671 -3.0907559 1.836864 12
-8.0631247 -2.9451566 1.0467069 11
-8.0221567 -2.7787802 1.7970214 13
-8.0211935 -2.7454889 2.5484097 15
-7.7280898 -2.9125013 0.31638139 8
-7.7200842 -2.6679463 0.3347896 8
-7.6810966 -2.8193982 0.50488454 9
-7.7160935 -2.5889025 0.57724565 9
-7.9161158 -2.8987253 0.8579151 10
-7.8536396 -2.7905016 1.4138716 11.5
-7.8821669 -2.9889717 1.894568 13
-6.8290615 -2.1871445 0.11178778 7.6666665
-6.8730583 -1.9703444 0.14598443 8
-6.1633058 -1.7346696 0.24418907 8.5
-6.117054 -1.5001185 0.32258311 9
-6.161931 3.3980231 0.3566792 8.5
-6.081408 4.2195897 0.31775245 8
-6.0228996 4.4837284 0.29068065 8
-6.0998864 5.0471225 0.30245483 8
-6.0885715 -1.7636912 0.53707492 9.5
-6.136951 3.1004875 0.61894858 9.5
-6.1300683 3.4009581 0.6069569 9.5
-6.1629348 3.9470196 0.7154792 10
-6.1417537 4.1645503 0.54311454 9.333333
-6.1214128 4.5917501 0.60713249 9.5
-6.0933957 5.0513592 0.49912667 9
-6.025888 5.2678156 0.4456574 9
-6.0553546 6.5455093 0.44560742 8.5
-6.029089 -1.7085389 0.94007814 11
-6.1327972 3.4447217 1.0776217 11.666667
-6.1310344 3.7312608 0.95806366 10.833333
-6.1145434 4.1306429 1.0119952 10.8
-6.0889316 4.6028094 1.0127918 11
-6.0739222 4.9739766 1.0009729 10.75
-6.0441589 5.3399286 0.93354756 10.5
-6.0485702 5.747839 1.0395569 10.666667
-6.0503941 6.1253061 1.0360512 10.5
-6.0748801 6.4806027 0.92125696 10
-6.1504879 3.4306624 1.5562128 13
-6.1264696 3.8369794 1.3941889 12.5
-6.1184545 4.3342366 1.3509043 12.5
-6.1141987 4.6551967 1.39036 12.5
-6.095942 4.9872231 1.4361871 12.5
-6.0799279 5.3280978 1.3282176 12
-6.0492511 5.8570766 1.3866295 12
-6.0089102 6.1126494 1.3623848 11.5
-6.0459032 6.454422 1.3889879 11.5
-6.1060052 3.1426287 1.7647343 14
-6.1098757 3.3695755 1.7986456 14.5
-6.1051154 3.8323138 1.8108778 14.25
-6.067183 4.2179852 1.8480657 14.2
-6.0499716 4.5976286 1.8354223 14
-6.0274663 5.0259929 1.9437317 14
-6.1099434 5.3520894 1.6388216 13
-6.0944347 5.8649983 1.7288698 13
-6.0749273 6.2717185 1.8015819 13
-6.0809226 6.5772147 1.8575547 13
-6.144505 3.8111463 2.1263602 15
-6.1309977 4.3429036 2.2438622 15
-6.0469804 4.6924329 2.0724759 15
-6.0274711 5.0395851 2.0669947 14.5
-6.0066323 5.3789544 2.1163099 14.666667
-5.9521756 3.5554457 0.32707179 8.5
-5.9329114 3.9418423 0.2404553 8
-5.830905 4.2945266 0.28097132 8
-5.9618979 4.6076732 0.2985779 8
-5.8113818 5.2752104 0.31536674 8
-5.6608639 5.8228483 0.22805381 8
-5.9529114 5.0053768 0.79274064 10
-5.7432661 5.3478417 0.56297022 9.25
-5.6338811 5.7856145 0.57861871 9
-5.9970899 -1.7344725 0.93796003 11
-5.8479204 4.9999371 0.99656039 11
-5.9826455 6.6236572 1.3366233 11.5
-5.8648934 6.8611894 1.4069867 11.333333
-5.9469194 6.7463832 1.8829955 13
-5.954905 6.8189316 1.623816 12
-5.99896 5.5381255 2.1049495 14
-5.9882917 5.8160677 2.2042699 14.666667
-5.9636154 6.2615986 2.2502692 14.333333
-5.9437776 6.5716171 2.3007457 14.333333
-5.9299407 6.9266009 2.4224496 14.5
-5.5814247 3.5133371 0.29406253 8.5
-5.3899317 6.6661463 2.0888996 14
-5.1890597 -1.643579 0.36778173 9
-4.8469439 2.6230536 0.20941594 8
-5.1760855 -1.7494479 0.83647931 11
-5.0101128 -1.6619638 1.4725342 15
-5.0546064 -1.3895929 1.4837176 15
-5.0415626 6.7045441 1.3861266 12
-5.1921258 -1.8118682 1.6548914 15
-4.9929199 6.5861864 1.816388 13
-4.9316006 6.6137242 2.1114759 14.333333
-4.7984443 2.6021609 0.21143183 8
-4.5439014 4.4446831 0.30518588 8
-4.5528722 5.3832197 0.18164879 8
-4.6418424 6.637712 0.23621091 8
-4.5239115 4.5443664 0.56163067 9.666667
-4.5628967 6.639092 1.3503922 11.75
-4.6134195 6.5733972 1.8012674 13
-4.5741854 6.6583023 2.157999 14.75
-4.0608964 4.5356565 0.23560055 8
-4.1502476 4.5112796 0.59929311 9.666667
-4.197886 5.5567036 0.57224309 9.5
-4.0878611 6.6343846 0.6145615 9
-4.2163982 6.6250987 1.3765897 12.333333
-4.244267 6.6331553 2.1200659 14.666667
-3.8206987 4.5797534 0.31425714 8.6000004
-3.9348898 4.8383064 0.26504862 8
-3.8658848 5.2866526 0.39767697 9
-3.7718508 6.5652127 0.36953506 8
-3.7692461 4.5080371 0.56904006 9.833333
-3.8558908 5.3841882 0.57865489 9.5
-3.7358606 6.5795221 0.57942593 9
-3.7992096 6.5708981 0.89600009 10.333333
-3.7714038 6.5596471 1.4640729 12.666667
-3.7512581 6.5370321 1.9008409 14
-3.8339348 6.6207604 2.1434376 15
-3.272897 4.5634565 0.27223182 8
-3.2268882 4.9634523 0.2962904 8
-3.5411632 4.5595636 0.60111719 10
-3.4518614 6.6312456 0.62378436 9.5
-3.3198714 6.6145248 0.82926697 10
-3.3815255 6.5970616 1.4220612 12.5
-3.4889271 6.5620799 1.9575939 14
-3.4369338 6.6341696 2.1344986 15
-2.9298983 4.616714 0.32752222 9
-3.1018512 6.5760331 0.37993911 9
-2.9719832 4.4957619 0.54481781 9.8571424
-2.8863564 6.6258707 0.51790822 9
-3.018872 6.5884895 0.81959611 10
-2.962899 6.5970435 1.3835113 12.333333
-2.9606676 6.5622787 1.7574557 14
-3.0651834 6.6204605 2.1144824 15
-2.7528601 6.2496357 0.39700675 9
-2.6392899 4.5229187 0.62608075 10.5
-2.661026 6.59273 0.56160009 9.333333
-2.5433731 6.5964828 0.84929055 10.5
-2.5662713 6.6006174 1.3318797 12.5
-2.5384171 6.5602865 1.7509415 14
-2.5657661 6.6170926 2.1012595 15
-2.3213995 4.6406841 0.36670437 9
-2.1588724 4.5385389 0.61619562 10.5
-2.2371604 6.607233 0.59133816 9.3999996
-2.1968777 6.5674086 0.92537504 11
-2.1820424 6.5775137 1.3920122 12.571428
-2.1734178 6.5380411 1.7432418 14
-2.2081821 6.5991321 2.0782115 15
-1.9189136 4.6391573 0.659145 11
-1.9092381 4.9627557 0.64713013 10.333333
-1.6578742 5.915956 0.51194423 9.5
-1.9743694 6.5906568 0.7680378 10
-1.6928896 5.9066629 0.82709634 11
-1.6909102 5.8903794 1.2461606 13
-1.7129019 6.2062774 1.2409379 13
-1.9584019 6.5738711 1.4418747 13
-1.6329339 5.8824735 1.7377523 15
-1.7129288 6.1361809 1.7638067 14.5
-1.9509282 6.5883532 1.9900508 15
-1.3768637 -0.55313772 0.34022146 13.5
-1.4037853 -0.55533248 0.43674302 15
-1.3800235 5.8776188 0.62319297 10
-1.4355725 5.8989792 1.1622666 12.333333
-1.4150406 5.8775167 1.3559242 13.5
-1.4141833 5.9222703 1.7418064 14.75
-1.2719284 6.2198853 1.8046429 15
-0.92241848 2.7632132 -0.046758883 7
-1.0385474 -0.55639756 0.25955164 12.8
-1.0373535 5.8750854 0.64033985 10.166667
-1.0309615 5.877861 1.1493886 12.333333
-1.0177472 5.8695092 1.3091494 13.333333
-1.0481849 5.9108768 1.7694098 15
-0.8459307 6.1518002 1.8095495 15
-0.41588274 -0.66664827 -0.0017672082 7
-0.56187481 1.4587874 -0.015822973 7
-0.49332607 1.8545668 -0.02743667 7
-0.65825218 2.2044966 -0.035965074 7
-0.56206077 2.5688438 -0.045706276 7
-0.57739639 3.0236061 -0.058115665 7
-0.65120423 5.8478255 -0.06235677 7
-0.61087978 -0.84139162 0.040454634 8
-0.59122908 -0.70331866 0.0068764952 7
-0.60113364 5.8742418 0.68508273 10.333333
-0.70957261 5.8597264 1.1438049 12.5
-0.613415 5.9216814 1.3622975 13.5
-0.6134187 6.098597 1.5281689 14
-0.45489702 6.4554396 1.2710456 12.5
-0.52392977 5.947844 1.6882783 15
-0.50293255 6.0552487 1.7999396 15
-0.20879926 -0.84188241 -0.0091458987 7
-0.13685317 -0.60398573 -0.0091733038 6.6666665
-0.083701305 0.99536479 -0.02177739 6.3333335
-0.14488603 1.4232024 -0.02303263 7
-0.23212482 1.7439768 -0.031571101 6.75
-0.28944829 2.1177158 -0.038607631 7
-0.068757646 2.6147518 -0.059054635 6
-0.138878 3.0210483 -0.069815174 6
-0.20395169 3.402221 -0.082286283 6
-0.1866336 -0.87324977 0.09292046 9.818182
-0.24810769 -0.58409458 0.0022773391 7
-0.17200682 5.8538127 0.63446176 10
-0.046382084 6.1839957 0.81982696 11
-0.23509212 6.4435849 0.9902851 11.5
-0.20517012 6.0443215 1.5354952 14
-0.25189739 6.4457617 1.2761002 12.666667
-0.20334747 6.0562382 1.7652403 15
0.19286355 -0.85442877 -0.016144834 6.5
0.24471688 -0.59946144 -0.016380936 6.3333335
0.37842146 -0.35841382 -0.028036591 5.5
0.38088229 0.32789025 -0.031360827 5
0.22122936 0.58092612 -0.032938875 5.4000001
0.19330218 1.8620211 -0.04050396 6
0.1606406 2.2149849 -0.048349597 6
0.29741299 2.5759289 -0.053175956 6
0.28892973 2.9127278 -0.070298634 6
0.27234992 3.3885913 -0.079055987 6
0.22940233 4.6296306 -0.10283794 6.3333335
0.1987471 -0.88949114 0.13800231 11.105263
0.19954261 -0.62734133 0.0015170777 7
0.17140177 4.7334766 0.078114465 8
0.11844654 5.7739711 0.115262 7.5
0.20211729 5.8402138 0.6469425 10
0.2001188 6.2606273 0.83999145 11
0.21385874 6.4239044 1.1398607 12
0.18957871 6.041451 1.5550623 14
0.20643303 6.4245648 1.3272035 13
0.20381962 6.0349498 1.7426335 15
0.63301098 -0.86434531 -0.017620536 6.5
0.53581464 -0.56356001 -0.015144166 6.4285712
0.50750715 -0.2596539 -0.047597855 4.5714288
0.58853024 0.18862486 -0.044132177 4.909091
0.5131169 0.5761444 -0.044466428 5
0.76551116 1.5600319 -0.046204209 6
0.64343464 1.7833315 -0.049546868 6
0.60887122 2.2259192 -0.058713369 6
0.65574348 2.7050517 -0.067135394 6
0.67788333 2.9385347 -0.068881214 6
0.70721322 3.2394676 -0.073797502 6
0.76298171 3.7675893 -0.096874744 6
0.59738415 -0.89538157 0.18034793 11.5
0.45087579 -0.50292134 0.0005374375 7
0.7372601 4.2709579 0.14664358 8
0.61561739 5.8103924 0.63245612 10
0.57561636 6.1838121 0.85257208 11
0.60860741 6.4105911 1.15414 12
0.63725042 6.1484051 1.5088894 13.666667
0.54259801 6.4092712 1.3488789 13
0.60123491 6.0193453 1.7647783 15
0.94755018 0.25988305 -0.024892511 6.25
1.1058129 0.58750355 -0.050062962 6
1.0314947 0.99757493 -0.047834437 6
1.0823095 1.3987955 -0.054163534 6
0.99102443 1.7669009 -0.059139378 6
0.92076683 2.2002807 -0.062268831 6
1.0005913 2.5292048 -0.070742249 6
1.1249712 3.0440934 -0.082071647 6
0.80361104 4.2508168 -0.083000295 6.5
0.86056805 -0.89291304 0.16521698 10.5
1.0575778 -0.64835411 0.3152388 14.2
0.82101899 5.7749124 0.33384222 9
1.1658716 3.9867249 0.45032352 10
1.0550792 4.3329506 0.63782024 11
1.0445858 4.5898266 0.64176506 10.5
0.97861588 5.7963653 0.65126401 10
0.99611801 6.0134449 0.72629094 10
1.09711 5.8991394 0.82498902 11
0.98103034 6.3902011 1.0182825 11.5
0.80811197 6.4048896 1.0635661 12
0.9593128 6.262588 1.4287763 13.333333
1.0243198 6.0080209 1.7207944 15
1.2807488 0.38680297 -0.047891062 6
1.3748884 0.5862841 -0.050063785 6
1.3591548 0.99187744 -0.058488954 6
1.4782896 1.3316677 -0.071028285 6
1.3303654 1.6985948 -0.071150482 6
1.3786961 2.0987535 -0.080585368 6
1.4196463 2.6404948 -0.086965226 6
1.5873218 3.0696094 -0.099534191 6
1.2054596 3.3782723 -0.088623561 6
1.3264862 3.9184864 -0.068656169 6.5
1.4215777 -0.665236 0.3101747 12.714286
1.2732898 3.9173124 0.1093787 8
1.448045 -0.67226213 0.44050068 14.666667
1.4260789 3.9826758 0.46029797 10
1.3921906 4.2586408 0.60526317 10.666667
1.3750862 4.4118304 0.54326576 10
1.2430718 4.3816876 0.82668883 12
1.5180945 5.7917724 1.0944283 12
1.4013577 6.3772202 1.1363071 12
1.5610809 5.7835507 1.3714384 13.333333
1.4532634 6.3535786 1.3469946 13
1.4290719 5.9626346 1.6590488 14.333333
1.4120743 6.0111732 1.6305424 14
1.7561674 0.66230989 -0.046663221 6.3333335
1.798905 0.96791685 -0.053842872 6.25
1.8741189 1.4361757 -0.057758793 6.5
1.8173347 1.6738743 -0.052910637 6.5
1.815309 2.1040041 -0.078514777 6.3333335
1.7423863 2.4401443 -0.099689379 6
1.9509205 2.8348219 -0.078937151 6.5
1.6696906 3.3310764 -0.040742263 7
1.8512288 -0.5947637 0.29650658 11.384615
1.9455122 -0.20454325 0.30457142 11.5
1.9631448 0.18144128 0.3009938 11.285714
1.9744713 0.60758293 0.26406971 10.666667
1.9789336 0.98270762 0.25625816 10.428572
1.9695579 1.3005534 0.15317349 9
1.9574497 1.6840755 0.16042802 9
1.9612914 2.202672 0.15602484 8.666667
1.8519558 2.7927542 0.17535144 9
1.904753 2.9047523 0.27905703 9.25
1.682736 3.5237339 0.16252205 8.5
1.7275021 3.752327 0.30545118 9
1.8540031 -0.61123717 0.48965329 14.125
1.9483222 -0.20298716 0.48907781 14
1.9672743 0.2025166 0.48585501 14
1.98044 0.60469258 0.53168458 14.142858
1.9947839 0.9560492 0.49608555 13.166667
1.9649593 1.8709127 0.72708881 15
1.8582467 2.9715922 0.60262382 11.8
1.9125279 3.4943528 0.56723487 11
1.8399004 3.8477576 0.6387009 11.166667
1.7299103 4.2284141 0.62894344 10.833333
1.7997103 4.5115881 0.6065594 10.5
1.7200896 4.9026275 0.74146146 11
1.8738962 2.972086 0.96134681 14.6
1.8892064 3.4838872 1.0160247 14.25
1.8593003 3.8205147 0.97183621 13.5
1.7980596 4.2825284 1.0308145 13.25
1.8027335 4.513834 0.9957521 12.888889
1.7537466 5.0190458 0.99556005 12.333333
1.7850912 5.4498777 0.98942536 12
1.7125933 5.7166123 1.0828575 12
1.9390318 3.5368276 1.2173961 15
1.8960348 3.7734621 1.2680857 15
1.8235431 4.3185949 1.3874478 15
1.8150504 4.543673 1.3599434 15
1.7590581 4.9347782 1.4020624 15
1.7640667 5.3784828 1.4562347 14
1.6885738 5.7292995 1.4941665 14
1.7265633 5.7161417 1.7007453 15
2.0039277 1.0706407 0.3398636 11.333333
2.0135314 1.4015689 0.3495867 11
2.035321 1.8026656 0.34499055 10.5
2.0473709 2.1458127 0.35149089 10.333333
2.062798 2.586653 0.35772586 10
2.0060833 1.0552182 0.55777013 13.714286
2.0204501 1.4089557 0.5758273 13.5
2.0455666 1.8195604 0.61565983 13.2
2.0620074 2.1836116 0.61989105 12.777778
2.0812452 2.6035914 0.61334258 12.25
2.0593483 2.9125941 0.54027325 11.2
2.06201 1.9142597 0.80721629 15
2.0761831 2.2402034 0.84953982 14.666667
2.0959401 2.6200006 0.90049756 14.5
2.1070273 2.942456 0.99263668 14.666667
2.0090456 3.5342412 0.90887147 13.5
2.0390632 4.418921 1.0356892 13
2.0340309 3.5197082 1.2173513 15
