# .PCD v0.7 - Point Cloud Data file format
VERSION 0.7
FIELDS x y z intensity
SIZE 4 4 4 4
TYPE F F F F
COUNT 1 1 1 1
WIDTH 147
HEIGHT 1
VIEWPOINT 0 0 0 1 0 0 0
POINTS 147
DATA ascii
-3.2616534 2.2032566 0.25028071 9.5
-3.2490306 2.2131007 0.60310698 12
-3.1899087 1.842417 0.79023463 13
-3.2330873 2.2158973 0.94230688 14.2
-3.1246943 2.3621254 0.26055193 9.5
-2.9445906 2.5731812 0.23903334 9.3999996
-3.0047445 1.8262796 0.5271855 11.75
-3.1206841 2.3768492 0.57011604 11.75
-2.9502113 2.5823936 0.50130165 11.5
-3.1407332 1.9429767 0.86202502 14
-3.1120934 2.3957679 0.93859017 14.333333
-2.932826 2.6090455 0.91497558 14.5
-2.7560456 2.7359004 0.23332359 9.5
-2.5550013 2.9804976 0.20010331 9.5
-2.7057495 1.572132 0.43012691 11.5
-2.7423875 2.762625 0.53719717 12
-2.5319188 3.0042355 0.51737511 11.8
-2.7710502 2.8172746 0.90975213 14.5
-2.5546734 3.0614648 0.89688319 14.25
-2.3820341 3.2801878 0.8988378 14
-2.3594186 3.2150083 0.1458344 9
-2.3655124 3.2070787 0.4782888 11.5
-2.3174405 3.2683582 0.41905558 11
-2.0084908 3.7424903 0.61989474 12
-2.3745751 3.1774714 0.67795402 13
-2.2914784 3.3933902 0.92529756 14.25
-2.2187541 3.4776227 1.0627476 15
-1.9517359 3.7050211 0.36291826 11
-1.3295206 2.4351578 0.68235809 15
-0.80905205 0.59236467 -0.02174929 7
-0.84766549 0.81975204 -0.045543652 7
-0.84092164 1.3615341 -0.097558916 6
-0.83524609 1.5452223 0.28912833 13
-1.0254771 1.715591 0.30143073 12
-0.84994578 1.6015137 0.3888225 14.5
-0.99461895 1.7108251 0.40856728 14
-0.86156881 2.6334231 0.671924 15
-0.56071931 0.20804165 -0.0084930528 7
-0.56195539 0.59488058 -0.039528575 6.6666665
-0.55550951 1.1122198 -0.078694418 6.5
-0.62520456 1.2720289 -0.090392694 6.5
-0.63037282 1.9827827 -0.13718764 7
-0.63724041 2.2216625 -0.16105716 6.6666665
-0.53831977 2.577647 -0.21429577 6
-0.70137805 3.0372543 -0.2576485 6
-0.47554499 0.72927183 0.016205722 9
-0.68848419 1.5106965 0.3010579 13
-0.66209698 1.4918993 0.36908063 14.666667
-0.37361163 0.37836871 -0.027597656 6
-0.16628571 0.55437058 -0.05041853 6
-0.27149251 1.0243342 -0.077604391 6.5
-0.11144271 1.3835812 -0.11420301 6
-0.16096833 1.8233443 -0.14786665 6.1999998
-0.22363532 2.0893908 -0.14754154 6.5
-0.12584625 0.54200715 0.058778618 11.666667
-0.21781006 1.1392376 -0.0026972215 8.666667
-0.2575556 1.2174935 -0.0093119973 8.5
-0.077440947 1.9949883 -0.060284361 8
-0.10088334 2.030391 -0.0031491492 9
-0.24559245 2.718502 -0.078019172 8
0.23670776 -0.88656801 0.039071236 7
0.30590841 -0.53983843 0.0087429006 6.25
0.36047599 -0.36204094 -0.015229131 5.5
0.36012095 0.36019212 -0.061135139 5
0.22431871 0.6005162 -0.077829972 5.1666665
0.16640209 1.0486407 -0.094568469 6.25
0.17429733 1.3892753 -0.11701261 6
0.16546498 1.6594995 -0.12908348 6.3333335
0.20080549 2.0949264 -0.1639339 7
0.38250047 -1.3613878 0.3072567 12
0.28535908 -1.0983105 0.065334916 7
0.27526429 -0.57006276 0.029781494 7
0.21359095 0.74791878 0.04566453 10.4
0.29270822 0.96581763 0.11300474 12.166667
0.32314339 1.7965778 0.099704593 10.333333
0.38565284 1.8567673 0.38902053 15
0.39804623 2.3514984 0.35090676 13
0.55381179 -0.55698651 0.0074355481 6.5
0.58099926 -0.19674018 -0.04022108 5
0.44322106 0.2891764 -0.076668538 4.5
0.46229926 0.54890412 -0.085597068 5.1999998
0.56353384 0.99975121 -0.12433518 5.75
0.63769513 1.4068832 -0.13534352 6.3333335
0.63111639 1.7620727 -0.17116345 6
0.7681728 2.1132824 -0.21190025 6
0.51333654 2.6697459 -0.23624516 6
0.44266531 -1.3131009 0.074973799 7
0.66297764 -0.99571872 0.25787067 11.857142
0.78987741 -0.69217157 0.34050867 15
0.73431289 -0.35346738 0.0077385409 7
0.48393148 1.0084323 0.19009857 14
0.55014193 1.7873691 0.15423921 11.5
0.44785455 2.0762832 -0.051800951 8.5
0.71560407 1.5455303 0.38846195 15
0.6343922 1.8699423 0.35880098 14
0.44647896 2.2252893 0.34920901 13
0.86222595 -0.57299685 0.010313108 7
0.96233338 -0.18107377 -0.021776162 6.8000002
0.81433272 2.3688083 -0.23594786 6
0.85071105 2.5715253 -0.25417483 6
0.95642835 3.1517789 -0.31193686 6
0.98520035 3.3625422 -0.29902282 6.5
0.85078984 -0.8224746 0.25432914 12
1.0252715 -0.59641403 0.20201387 11.318182
0.92981666 -0.24854997 0.10390522 9.666667
1.00784 1.3065009 0.30307189 14
1.0977846 1.1444551 0.35111046 14.666667
0.98099619 1.4244915 0.35529435 14.5
0.96088898 1.8610759 0.35788867 13.5
1.3000672 -0.12216701 -0.047082614 6.5
1.3320396 -0.1881447 0.19846539 11.315789
1.4780746 0.11922932 0.32545877 14
1.356003 -0.026160894 0.37874708 15
1.5636246 0.22228588 0.38045055 14.666667
1.6694974 0.34664446 0.25144079 12
1.8436466 0.56347698 0.2586726 11.875
1.6673251 0.35505313 0.4033722 14.5
1.863179 0.59219354 0.42739588 14.1
1.6774478 3.0861862 0.34523454 12
2.0288467 0.78130352 0.23641239 11
2.2012668 0.9910832 0.22065097 10.8
2.2094655 2.636493 0.17178214 10
2.0271153 0.79223359 0.44947395 14
2.2209888 1.0258764 0.48412117 13.777778
2.2064362 2.684638 0.47177345 12.6
2.2296579 2.6742966 0.72756654 14.6
2.6181185 1.4843984 0.14413247 9.5
2.7700467 1.6822517 0.16638002 9.5
2.5515163 1.4216821 0.46302709 12.8
2.7767475 1.7025754 0.42084619 12
2.6849952 2.2770383 0.39090526 11.727273
2.6006351 1.4859234 0.72699869 15
2.7909327 1.7207756 0.72346365 14.5
2.7561548 2.2454376 0.73140001 14.333333
2.4197395 2.543112 0.85100871 15
3.0612798 1.9259696 0.12174717 9.5
3.0262301 1.9905899 0.44367507 11.8
2.927609 2.0911419 0.44640416 12
3.041918 2.0106769 0.78268617 14.5
2.9276123 2.1287708 0.76999044 14.25
5.3623405 4.2462258 -0.20704052 8
6.3477907 5.1866374 -0.25976354 8
7.0783291 6.1781583 -0.40436822 7
7.506741 5.8495679 -0.38311177 7
7.2728705 6.055994 -0.42683527 7
7.6565237 4.9615445 -0.15993589 8
7.6318569 5.7252498 -0.30308482 7.5
