# .PCD v0.7 - Point Cloud Data file format
VERSION 0.7
FIELDS x y z intensity
SIZE 4 4 4 4
TYPE F F F F
COUNT 1 1 1 1
WIDTH 37
HEIGHT 1
VIEWPOINT 0 0 0 1 0 0 0
POINTS 37
DATA ascii
-3.2317336 2.2430894 0.79256296 13
-3.2928758 2.1719046 1.007906 14.5
-2.6928775 2.7914879 0.18282855 9
-2.661556 2.817652 0.687837 13
-1.0411282 1.7025176 0.2698853 12
-1.0855325 1.772998 0.39635602 14
-0.71479028 1.494094 0.31109998 13.5
-0.51718974 1.408363 0.36445335 15
0.38835859 0.970788 0.065856606 11
0.24604651 0.82450163 0.17801729 15
0.56813318 0.97943163 -0.12221518 6
0.55252957 -1.1910645 0.21621345 10
0.56573123 -1.1698024 0.15117572 9.333333
0.54253018 -1.0208372 0.38055047 14.5
0.73519731 -0.90755147 0.30426908 13
0.86747485 -0.77577531 0.063549504 8
0.83980346 -0.82936537 0.31724241 13.5
0.89843762 1.4221612 0.38052318 15
1.0725873 -0.53772497 0.25788066 13
1.236987 -0.28210595 0.1144908 9.5
1.2540579 -0.29965505 0.28553876 13
1.2928441 -0.1189083 0.27515247 13
1.6707962 0.34972784 0.28560698 12.5
1.7255902 0.42198902 0.20022851 11
1.822108 0.54875034 0.46756139 15
1.9605054 0.70937812 0.38488466 13.5
1.9721144 2.8391788 0.28101829 11
2.0375273 0.7969566 0.18775752 11
2.1569581 0.91689324 0.15658826 10
2.1293702 0.91169488 0.32417971 12
2.128794 0.91547155 0.54087174 15
2.2740014 1.0932081 0.4485814 13
2.2343421 1.0440919 0.51552731 14
2.4910736 1.3495072 0.34760922 11.5
2.5631099 2.3692906 0.42960036 12
2.7057843 2.3019152 0.31534493 11
2.6877422 1.5850286 0.57045484 14
