# .PCD v0.7 - Point Cloud Data file format
VERSION 0.7
FIELDS x y z intensity
SIZE 4 4 4 4
TYPE F F F F
COUNT 1 1 1 1
WIDTH 128
HEIGHT 1
VIEWPOINT 0 0 0 1 0 0 0
POINTS 128
DATA ascii
-2.0013573 1.1714863 0.65845859 15
-2.1938422 1.467539 0.70281148 14.6
-2.1863072 1.7816453 0.69608408 14
-2.1287897 2.0997207 0.63113946 13
-2.2806983 2.2902012 0.8554309 14.5
-1.9291366 1.1474868 0.35485169 11.5
-1.9438781 1.3719664 0.35755438 11.333333
-1.9740888 1.8061682 0.36033946 11
-1.9892704 2.0775249 0.38700926 11
-1.9368073 1.1954656 0.45389658 13
-1.9427155 1.4224881 0.50159705 13.142858
-1.9683957 1.7837245 0.52713138 12.8
-1.1757035 -0.38503754 0.32844737 14
-0.51473683 -0.17358218 -0.0010619973 7
-0.52157909 0.28740817 -0.0035828277 7
-0.56257862 -0.18169028 0.012308575 7
-0.58703351 0.30778471 0.0062118717 7
-0.78348464 1.1322459 0.35456261 14.5
-0.76711786 1.1616567 0.40606147 15
-0.78889686 1.3453715 0.43695945 14.5
-0.12132699 -0.47003815 0.13008459 14
0.21785055 -0.47054464 0.10150326 12.272727
0.66960347 -0.028554499 -0.042362839 5.25
0.57526773 0.15214634 -0.065054692 4.181818
0.64132506 0.56647074 -0.060516711 5
0.70145285 1.8113049 -0.061326366 6
0.76351905 2.1706498 -0.070582636 6
0.5259847 1.5560735 0.41511357 14
0.51300448 1.7418532 0.48794487 15
0.53076166 2.5543323 0.52241755 13
0.93868959 -0.11954724 -0.036775347 6
0.97156173 0.1865617 -0.046766467 6.1999998
1.1734177 0.59451967 -0.065367974 6
1.0349923 1.015224 -0.060588557 6
1.0148878 1.3994075 -0.06523595 6
0.93133062 1.7132626 -0.067903012 6
1.0961637 2.2322357 -0.085365154 6
1.0992612 -0.19618198 0.31493711 15
1.0136551 4.6749978 0.71241784 11.5
1.3763499 -0.26613975 -0.048299421 6.5
1.3655198 0.19317053 -0.066360608 6
1.3915641 0.58867091 -0.065561406 6
1.3833585 0.98613912 -0.066752031 6
1.3745291 1.3320128 -0.073568963 6
1.3812791 1.800392 -0.090860963 6
1.3911428 2.1355197 -0.0996712 6
1.581911 2.5415556 -0.11620017 6
1.3399682 2.9990485 -0.11205563 6
1.5032561 3.515455 -0.12694621 6
1.5539538 3.6972494 -0.10895804 7
1.4707066 -0.24872716 0.2589342 12.333333
1.5449692 3.7403412 -0.032787718 7
1.5229117 -0.25511235 0.43175909 15
1.8440845 -0.13914561 -0.046440758 6.6666665
1.8290567 0.27735734 -0.054185379 6.6666665
1.7324996 0.66115683 -0.066330455 6.25
1.7402874 1.0372555 -0.072449066 6.3333335
1.7856605 1.3948928 -0.079125896 6.3333335
1.7092838 1.8042669 -0.08142177 6.5
1.7199891 2.0808578 -0.086679272 6.5
1.6564044 2.7164423 -0.097231872 6.5
1.9674222 -0.017960565 0.10121979 9
1.9584121 0.28575793 0.097729594 9
1.7078278 -0.16196971 0.48638406 15
1.9363015 1.357761 0.59607738 14.333333
1.9428807 1.6215012 0.64438945 14.5
1.7988442 2.5217006 0.58268017 13
1.823837 3.7994683 0.94825447 14
2.0768974 0.63616902 -0.066186942 6
2.1738806 0.94029915 -0.09070541 6
2.1794908 1.370461 -0.10711856 6
2.1983638 2.1344218 -0.13791484 6
2.0849712 -0.18118267 0.23434038 10.6
2.0994022 0.15610951 0.30844739 11.5
2.0880184 0.56431508 0.231261 10.5
2.0944209 -0.10209236 0.48033717 13.666667
2.0648661 0.19406976 0.4930965 13.875
2.0382583 0.61563832 0.52337593 14.142858
2.0442312 1.0325042 0.53473115 13.75
2.0293112 1.3237313 0.57133979 13.8
2.8716085 1.3031498 -0.14695118 6
3.4877744 2.1952314 -0.043118104 7
3.5156636 2.2576792 0.19620933 8.5
3.4261808 2.2902377 0.5762682 11.5
3.6380286 1.9573383 0.19817543 8.5
3.6464159 2.2225423 0.29908347 9
3.764662 1.8951685 0.5085932 11
3.702323 3.2215116 0.55916739 11
4.047965 11.784573 -0.12550747 7
4.3420429 -0.55352145 0.81478655 12
4.2340698 9.9963989 2.7900207 15
4.6601462 4.1391435 0.1361223 8
4.4530668 9.9910755 2.6479852 14
4.5217409 9.99646 2.7426999 14
4.9064307 5.5004082 0.15370359 8
5.166997 11.899058 1.3642803 10
5.4653873 6.8116622 0.30242729 8
5.2263007 11.920145 1.8291497 11
5.951014 6.6173897 -0.23410149 6.5
6.0002861 1.89502 0.29665962 9
5.9567428 2.1209025 0.31367376 9
5.7498722 2.1121819 0.50591409 10
6.360476 2.2578092 -0.14527018 7
6.7428751 -0.30488425 -0.18166642 6
6.7044287 2.5190897 0.82862526 11
7.1111007 3.5352211 -0.33338371 6
7.0152826 5.9145942 0.14314657 7.5
7.0485678 8.0928707 0.19095689 8
7.0062089 8.3993034 1.1774138 10
7.0011034 8.4339314 1.2900547 11
7.4390044 7.6883445 0.098783001 7.5
7.4037395 8.0410833 0.20163585 8
7.228487 5.9094868 0.31213593 8
7.5714755 6.6241989 0.3076328 8
7.4803119 3.978636 1.0698763 11
7.2202005 6.5716577 0.92245537 10
7.591888 2.9056377 1.1904444 11.5
7.2288885 6.6366248 1.1235777 11
7.8631811 1.5718027 -0.28731632 6
7.8477836 1.7840426 -0.20293573 6.3333335
7.8261223 2.2387242 -0.2265728 6.5
7.865624 1.8947433 0.091174006 7.5
7.8294635 2.1979432 0.10329545 7.5
7.6831803 1.8954246 1.4488814 12
8.0547266 -0.84233439 -0.065305524 7
8.0434361 -0.67704332 -0.31782794 6
8.0690413 -0.86605698 0.19004887 8
8.0488119 -0.64455509 0.040190417 7.3333335
