# .PCD v0.7 - Point Cloud Data file format
VERSION 0.7
FIELDS x y z intensity
SIZE 4 4 4 4
TYPE F F F F
COUNT 1 1 1 1
WIDTH 28
HEIGHT 1
VIEWPOINT 0 0 0 1 0 0 0
POINTS 28
DATA ascii
-1.8537849 2.2314434 0.72891468 13
-1.6483368 2.0109532 0.31258479 9
-1.4653732 2.2928908 0.34694773 10
-1.4298515 2.7991374 0.79111469 13
-1.521903 2.7389128 0.83911991 14
-1.3470747 2.4656312 0.53421545 11.5
-0.0060971151 1.0456817 0.13244581 11
-0.12953269 2.0936856 0.49599272 13.5
0.1373653 -0.71461493 0.21352731 15
0.14579003 0.88380504 0.22934809 14
0.35981077 0.97964275 0.31547073 15
0.47152039 -0.9636147 0.16925295 12
0.63781816 -1.0636381 0.15847379 10.5
1.212661 -0.79746115 0.31580484 13
1.4961354 -0.37974578 0.33953249 13.5
1.9534655 0.289316 0.49765974 14
3.1032779 3.6127224 0.67398429 11
3.3286879 3.4907258 0.29277971 9
3.3854442 3.3645647 0.51930815 10
3.2388337 2.237107 1.0866358 15
3.5428128 -0.30979338 0.17594668 8
3.5581264 -0.30808923 0.34892449 9.5
3.3992603 3.3478439 0.69055527 11
3.4170365 3.3241894 0.89823705 12.5
3.4587243 3.3308609 1.1881902 14
3.4694355 3.316489 1.4564209 15
3.7502124 0.049578499 0.26958185 9.5
6.0034966 2.1679277 0.4718017 9
