# .PCD v0.7 - Point Cloud Data file format
VERSION 0.7
FIELDS x y z intensity
SIZE 4 4 4 4
TYPE F F F F
COUNT 1 1 1 1
WIDTH 67
HEIGHT 1
VIEWPOINT 0 0 0 1 0 0 0
POINTS 67
DATA ascii
-3.4575357 -4.9910173 0.083375104 7
-2.8107467 -2.6665444 0.27802184 9
-2.8678668 -1.3521621 0.38715565 11
-2.8328872 -1.1495893 0.27761725 10
-2.8299031 -0.9497329 0.39941823 11
-2.8238928 -1.0271378 0.54016393 12
-2.8321319 1.5320652 0.53348327 12
-2.8272622 2.9183047 0.42263535 10
-2.8508704 -1.2471448 0.71911424 14
-2.830883 -1.1324337 0.62819207 13
-2.8508892 -0.99812061 0.90929306 15
-2.6427593 -2.470984 0.57758182 12
-2.4207323 -2.8254569 0.29309446 9
-2.4967368 -2.6771462 0.74208009 13
-2.3657372 -2.7739947 0.31742832 10
-2.3137186 -2.8877945 0.70156586 12
-1.6863283 3.8077199 1.2419653 15
-1.398579 0.93311334 0.36452186 13.5
-1.3910781 0.93461263 0.45233265 15
-1.17608 0.9442445 0.3809658 14
-1.1640787 0.93640852 0.40419438 15
-0.88380694 -2.0336356 0.22635709 10
-0.91179413 -2.106293 0.53236049 13.5
-0.87320215 2.2801223 0.46246293 12.5
-0.66120428 2.3044062 0.46588796 12.5
-0.57630688 -2.0279815 0.25069949 10.5
-0.53179598 -2.0903819 0.5273844 13.333333
-0.53514099 1.6329252 0.51737016 15
-0.35176393 -2.4288552 0.5473364 12
1.2816849 3.5036333 0.44977352 10
1.4036673 3.7147455 0.56184834 11
1.9808971 1.4671725 0.12025917 8
1.9627427 1.8953116 0.22151598 9
1.9730489 -0.42765456 0.44207457 13.5
1.928046 -0.37639987 0.53487915 15
1.9640204 -0.10728477 0.4958134 14
1.9939818 0.32954273 0.60287589 15
1.890689 3.5257533 0.7596308 12
1.8926713 3.6803732 0.60502875 11
2.0850148 -0.076561928 0.37058705 12
2.1069937 0.12194373 0.25300425 10.5
2.0699468 0.64424229 0.30691847 11
2.099838 1.8320568 0.38819763 11
2.0800068 0.010910246 0.40530834 13
2.0449848 0.25820115 0.42606232 13
2.1659691 0.44346529 0.52696252 14
2.071949 0.64724392 0.44074014 13
2.1299288 0.89320403 0.58119273 14
2.1378875 1.311377 0.42110145 12
2.0868752 1.4526322 0.502599 13
2.1498475 1.7518753 0.46011457 12
2.1538148 2.1056399 0.49169135 12
2.1147666 2.6307409 0.50565386 11
2.1697395 2.9398396 0.59026343 12
2.1636875 3.4794791 0.46697822 10
2.1399634 0.53660965 0.6399262 15
2.130924 0.96174937 0.65593594 15
2.1039035 1.1874386 0.67207044 14.5
2.1098552 1.7008986 0.63225114 14
2.1308188 2.121259 0.7463935 14
2.085778 2.5416789 0.6762194 13
2.1796949 3.4233181 0.61532128 11
2.1798074 2.2788646 0.93461287 15
2.1847517 2.902504 1.0168611 15
2.865227 -2.4149914 0.15910403 8
3.2992375 -2.4630179 0.4574869 10
8.5913801 -4.1666889 -0.26179993 6
