# .PCD v0.7 - Point Cloud Data file format
VERSION 0.7
FIELDS x y z intensity
SIZE 4 4 4 4
TYPE F F F F
COUNT 1 1 1 1
WIDTH 470
HEIGHT 1
VIEWPOINT 0 0 0 1 0 0 0
POINTS 470
DATA ascii
-4.5160699 -1.2965424 0.97811025 14
-4.5077791 -1.3226981 1.2312571 15
-4.2123222 -7.5330095 0.27180225 9
-4.2996116 -1.4294523 0.91319716 13.8
-4.1173902 -1.6209403 1.1573271 15
-4.3645663 -1.4396631 1.1602128 15
-3.6977417 -6.9057817 0.066548444 8
-3.6493244 -6.948751 0.38174015 9.5
-3.8050103 -1.7897807 0.74384367 13
-3.8413763 -1.8362299 1.110834 15
-3.5496733 -7.0252032 0.065991312 8
-3.3144963 -2.1947613 0.21260376 9.5
-3.3266766 -5.6934295 0.30569181 9
-3.311672 -2.2231913 0.41530037 11
-3.2368503 1.8640727 0.54570162 12
-3.3705795 -2.1793725 0.90045559 14
-3.601799 -1.9700631 0.88143194 14.5
-3.5363472 -2.0823159 1.0640825 15
-2.815218 -4.1088877 0.043246381 8
-3.182219 -2.3174479 0.16114794 9
-3.0864661 1.5940109 0.27140138 10
-2.966249 1.7528424 0.25956342 9.5
-2.9356911 -8.0356665 0.56368381 10
-3.1814327 -2.324935 0.47186962 11.5
-2.969624 1.734863 0.40307957 11
-2.9113631 2.2244618 0.55827141 11.8
-3.1937952 -2.3215957 0.90228426 14.333333
-2.9022739 2.2657733 0.92783391 14.5
-2.5528092 -8.7953806 0.044377893 8
-2.5263891 -8.0425568 0.06740357 8
-2.6560128 -4.2175951 0.038422424 8
-2.4220159 -2.9265261 0.14674518 9
-2.7199674 -2.6862988 0.076058216 8.5
-2.7856598 1.9743291 0.25132275 10
-2.6029737 2.2111616 0.29180083 10
-2.4303355 2.4308653 0.28109074 9.5
-2.4888935 -9.0496149 0.44096491 9
-2.5484686 -8.790081 0.46017122 9
-2.6443946 -8.125351 0.45945656 9
-2.6601334 -4.2113333 0.46923184 11
-2.7882779 1.9725666 0.43575981 11
-2.7218311 2.1563823 0.4147552 11
-2.465987 2.594517 0.48877871 11.333333
-2.438452 2.9686239 0.55005431 11
-2.6232429 -9.2117901 0.61379063 10
-2.8183532 2.3002887 0.81694543 13.5
-2.183929 -9.0785894 0.052596115 8
-2.1316509 -8.0923796 0.081775382 8
-2.1588154 -3.3423049 0.14219682 9
-2.2604406 -3.0583544 0.14152591 9.166667
-2.0930529 -1.2958124 0.21815641 10.5
-2.2017407 -1.0435131 0.22664 10.666667
-2.0312116 -0.78706843 0.20213147 11
-2.2753744 2.6109366 0.29489547 9.6000004
-2.0731609 2.851444 0.31563529 10
-2.1239388 -9.3784819 0.41360071 9
-2.1919243 -9.0789232 0.36427146 8.5
-2.245311 -8.1155453 0.49566782 9.5
-2.0865519 -3.3335021 0.44661954 10.8
-2.2409635 -3.1007445 0.53961194 12
-2.082427 -1.2913815 0.45229661 13.333333
-2.0505328 -1.0594783 0.36706516 12.5
-2.2321875 2.6697376 0.4518584 11
-2.134572 2.9078906 0.58226299 11.75
-2.1484756 -3.2679374 0.89909625 14.25
-2.1963258 -3.1263151 0.78330278 13.5
-2.1996574 2.9413803 0.90874064 14.333333
-2.212465 -9.2864647 1.0210454 11
-2.4080455 -9.1528645 1.0049119 11
-1.6622427 -3.6116261 0.063979857 8
-1.7326074 -3.5427861 0.075198174 8
-1.9126865 -0.98864472 0.23733224 11.142858
-1.6773405 -0.66836983 0.24515249 12
-1.9333897 2.9815922 0.34232214 10
-1.766212 -9.4556017 0.37508941 8.6000004
-2.0038829 -9.2039356 0.36518523 8.5
-1.6669041 -3.6124032 0.47968486 11
-1.784183 -3.5103707 0.48753297 11.25
-1.9577757 -1.0177046 0.46283945 13.875
-1.6781622 -0.77409041 0.37013045 14
-1.7733387 1.0355437 0.51443255 15
-1.8504851 2.9600539 0.60518354 12
-1.9963634 -9.6405411 0.69092673 10
-1.9156058 -3.4314132 0.90368783 14.2
-1.8763083 2.9605854 0.9103753 14.428572
-2.0304904 -9.4121132 1.2538949 11
-1.34917 2.0216501 -0.13202673 6
-1.4146174 -3.7359638 0.19028744 8.75
-1.4321653 -0.5945347 0.3157337 13.6
-1.444577 2.7051718 0.37101743 10.5
-1.6076744 2.8335137 0.37232488 10
-1.3683001 -9.6969042 0.40259045 8.666667
-1.3870603 -3.7575421 0.47377229 11
-1.6026615 -3.584574 0.43998164 11
-1.5211617 -0.63401639 0.4060066 14.5
-1.2341617 0.94681507 0.41789195 15
-1.3897983 2.6304374 0.55467516 12.285714
-1.595721 2.7951782 0.60374117 12
-1.2456659 -6.7497902 1.0216005 12
-1.4072962 -3.7295618 0.84073567 13.6
-1.5941566 -3.5884151 0.83396685 13.5
-1.4080683 2.6252892 0.83060235 15
-0.86751199 0.65210485 -0.045946933 6
-0.95314127 1.0095041 -0.06360355 6
-0.99658966 1.4009306 -0.081023365 6
-1.1051164 1.7333734 -0.10170587 6
-1.1826737 -9.734478 0.089176252 8
-1.1721514 -5.0981727 -0.069948561 7
-0.94794917 -0.97239888 0.30584863 14.285714
-0.96996582 -0.77722955 0.29235607 14.5
-0.82462448 1.780437 0.01965308 7
-0.98102272 2.2815294 0.39069444 11.333333
-1.1882807 2.4272232 0.3967078 11
-1.2088346 -9.7518044 0.29097944 8
-0.82471716 -5.9899621 0.47506765 10
-0.94919759 2.2378006 0.56474203 13.6
-1.1488712 2.4164481 0.6464923 13.666667
-1.0537196 -6.9096007 0.99267966 11.666667
-1.1707352 2.4334617 0.80596358 15
-0.49523565 0.21043359 -0.01969797 7
-0.6148358 0.60434711 -0.034152586 6
-0.60353035 1.0213023 -0.041805249 6
-0.58827794 1.3680043 -0.054535117 6
-0.74916673 1.7025844 -0.062223706 6
-0.61007559 -6.7704201 -0.10467655 7
-0.63881683 -5.8352838 -0.043492414 7
-0.79686671 -1.0538597 0.32326046 14.5
-0.40468532 1.4960651 0.12104079 9
-0.76142794 2.0976171 0.40646607 12
-0.56045836 -6.1244502 0.46995425 10
-0.65831554 -5.9522209 0.40987024 9.333333
-0.62657493 -4.4881458 0.54623133 11
-0.50447822 -4.3876433 0.54539514 11
-0.57477552 1.9167783 0.49384904 13.8
-0.73393852 2.0622084 0.54388434 13.8
-0.81189388 -7.0559449 1.0670533 12
-0.55151278 -6.2169132 0.9968248 12
-0.10140877 0.68082511 -0.021479649 6
-0.18602724 1.046162 -0.024589719 6
-0.21843135 1.3434042 -0.027846774 6
-0.15497641 -7.1341772 -0.10272157 7
-0.28769049 -6.1137185 0.10415511 8
-0.059677135 -4.6207652 -0.00064042106 7.5
-0.18112379 1.3782407 0.11082633 8.75
-0.260616 -5.8633723 0.39886284 9.5
-0.19142655 -4.5219412 0.49308231 10.666667
-0.35899746 -1.3325511 0.38214958 15
-0.13751693 1.5628088 0.46561143 15
-0.28401393 1.6810011 0.48938292 14.666667
-0.30634221 -5.1343837 0.90157014 12
-0.03439587 -4.4112215 0.84527642 13
-0.38570157 -7.4076691 1.2625895 12
-0.42290044 -6.1147275 1.1104994 13
0.37955222 -0.33887067 0.00089016155 7
0.35860831 0.36306986 0.00016705395 6
0.18170686 0.63014418 0.0013474588 6.4285712
0.19627808 0.94886106 0.001009883 6.5
0.12123217 1.3049531 -0.0097909393 6
0.19447251 -4.5098166 0.2122774 8.666667
0.22926299 -0.8877815 0.092618793 10.2
0.25541401 -0.60872847 0.079971224 10.5
0.35634297 -0.36773431 0.013467728 7.5
0.2085233 0.56592965 0.017620469 7
0.28400168 1.0524179 0.1737693 10.692307
0.078507818 1.2868061 0.15956596 10
0.18571366 -4.5096316 0.50740886 10.6
0.045938831 -4.4279265 0.76974338 12
0.20601904 -4.3677583 0.90227628 13.2
0.53847307 -0.13381411 0.0040247212 6.5
0.46431243 0.2935518 0.005262279 6.5
0.47308385 0.52895224 0.014048112 6.6666665
0.45544097 0.8532775 0.015487245 6.5
0.6820069 -6.669991 0.17547838 8
0.59593606 -2.6388664 0.27656722 10.142858
0.6262089 -0.96890914 0.063491151 8.6000004
0.52435523 -0.59436792 0.10244348 10.666667
0.53240812 -0.28608665 0.032898758 8
0.40097931 0.36967555 0.017970698 7
0.54033846 0.6306923 0.037414908 7.5
0.54343605 0.90175045 0.19094211 11.111111
0.58434343 -8.5611095 0.3181468 8
0.50237548 -8.1300201 0.48207009 9
0.77660352 -6.6391764 0.58435482 10
0.45265916 -4.5688381 0.52176225 10.5
0.51523834 -2.8335259 0.4462676 12
0.63887137 -2.6648505 0.56936926 13
0.40511292 -4.3935933 0.80250746 13
0.6105141 -2.6887567 0.79235756 15
0.59297663 -8.5507469 1.3975546 12
1.1606573 -8.5647554 0.28373393 8
0.93191749 -8.217124 0.27337101 8
0.94810504 -2.5583115 0.32309532 10.5
1.0283256 -1.6934866 0.098433681 8
0.89290637 -1.3409001 0.082745656 8
1.1625195 -1.0845989 0.10099273 9
1.184655 0.58294845 0.42619213 15
0.96968704 -8.5388966 0.49342901 9
0.89219916 -8.2669954 0.39463264 9
0.89649069 -2.4928002 0.54939348 13
1.0327535 -3.4256206 0.87771845 14
0.85857725 -9.3302326 1.2632126 11
0.98857313 -8.5880899 1.4166722 12
0.84244877 -9.2782402 1.6614861 12
0.97459644 -8.485466 1.5639188 13
1.4694402 -5.6611247 0.34220448 9
1.3868542 -2.616919 0.12551802 8
1.2099165 -2.160326 0.11090883 8
1.2542397 0.68481046 0.42494878 14.5
1.2680092 -8.5829868 0.50361896 9
1.4377357 -2.6540666 0.78963292 14
1.3678144 -3.2951055 0.91427881 14
1.4229125 -2.6094828 0.85495478 15
1.2533643 -8.6454945 1.5093468 12
1.1769016 -8.5970802 1.5892934 13
1.7001749 -2.511894 0.3545537 10.5
1.9687411 -1.6388562 0.42474848 11
1.7276876 -5.6056972 0.4696508 9
1.6244671 -2.5102746 0.63969612 13
1.9337645 -1.6822037 0.58742201 13
1.7045991 -2.5841334 0.89154321 15
2.3009846 -2.0319049 0.26670969 9.333333
2.2650082 -1.8588064 0.34555611 10
2.2164404 -2.0808353 0.58711177 12.333333
2.2224653 -1.8058386 0.54632771 12
2.04492 -1.5565848 0.58460659 13
2.477386 -2.1200731 0.24483225 9
2.5259249 -1.8243327 0.30435359 9.4285717
2.7150552 -3.6978884 0.6622749 11
2.737546 -2.7403395 0.66748118 12
2.5577252 -1.8327969 0.60078537 12.2
2.3810465 -6.9133863 1.4795197 13
2.5734999 -6.7098141 1.468541 13
3.0267482 -6.8014126 0.19289432 8
3.0839272 -0.58001751 0.4406437 10
3.1480079 -0.10806463 0.35912776 9.5
3.1671066 0.060975824 0.36519289 9.5
3.1691227 -3.1994138 0.45590782 10
2.9345901 -2.5466413 0.66994405 11.5
2.8408127 -1.8692495 0.68632257 12.333333
3.1464829 -0.89292127 0.73383528 12.5
3.1257236 -0.64823604 0.67750335 12
3.1354315 0.091328591 0.55940431 11
2.9148433 -6.6294413 1.4464223 12.666667
3.0035739 -6.3475156 1.3840866 12.5
3.0135524 -6.1980629 1.6073117 14
3.2483256 -3.1555967 0.41781667 9
3.5892518 -1.6969888 0.18611667 7.5
3.2699685 -0.027231073 0.39550203 10
3.2966716 0.14955211 0.332618 8.875
3.2991071 -2.9530153 0.6044631 10.5
3.4578402 -1.3574307 0.76020491 12.25
3.356734 -1.0546628 0.71889645 12.111111
3.2438745 -0.72634983 0.78343034 13
3.3858447 -0.37279794 0.71163929 12
3.3600402 0.21958125 0.67715698 11.714286
3.5526602 -1.6771798 0.91105813 13
3.2992058 -0.98141009 0.89258277 14
3.4895794 0.36499867 1.0045478 14
3.4455748 0.4501178 0.92235881 14
3.3442731 -6.0785422 1.4907272 13
3.3909507 -5.8506813 1.5293771 13.4
3.1487145 -6.0604558 1.7688918 14
3.778533 -3.6265988 0.088502355 7
3.8879349 -3.5465624 0.20868687 8
3.8362191 -2.9888086 0.086297929 7
3.6008348 -2.7704086 0.079932973 7
3.6129508 -1.7157029 0.30023906 8.666667
3.6892357 -1.5833075 0.1394455 7
3.7382095 -2.887774 0.82440829 12
3.7784774 -2.4929883 0.71959805 11
3.5829923 -1.6917619 0.73635751 12
3.6395845 -1.5024753 0.88285583 13
3.719389 -0.71374887 0.82857603 12
3.7905583 -0.22198066 0.70876348 11.5
3.8725936 0.16497754 0.70795822 11.333333
3.5849416 -3.0262156 0.89588386 12
3.6083782 -1.6127757 0.92148113 13
3.7222028 -1.4775987 0.96244478 13
3.7367389 -0.70265144 1.0931629 14
3.6662767 0.30601537 0.93480706 13
3.6092734 -5.7311168 1.4963989 13
3.7277045 -5.3997221 1.4809356 13.142858
4.2000146 -1.7312154 0.2891975 8.25
4.1999183 -1.4362553 0.326626 8.5
4.3801732 -0.65409356 0.45195565 9
4.264564 0.19014083 0.14582948 7
4.0844421 0.49674395 0.40027949 9
4.3416023 -4.7263284 0.6477654 9.5
4.1201825 -1.7279866 0.55751956 10
4.0444016 -1.3272491 0.63472003 11
4.361177 -0.92159355 0.71297085 11
4.3525867 -0.71043593 0.73323578 11
4.2571535 0.1936707 0.78313529 11
4.0716963 -0.24088185 1.0723779 13.6
3.9890287 -5.2272396 1.5126278 13
4.1771669 -4.9984288 1.5489799 13.5
4.3078241 -4.6979771 1.4774333 13.5
4.4420071 -4.6246753 0.4066453 9
4.4269357 -1.3623691 0.16157663 7
4.4125357 -0.76436257 0.44002435 9
4.6845946 -0.30660579 0.1488923 7
4.6071668 0.11500625 0.19657643 7
4.5061574 0.51673687 0.29577041 8.1999998
4.6556377 -4.3849216 0.75154251 10
4.4643011 -1.6695921 0.60839635 10
4.6006846 -1.4170647 0.69757795 10
4.4230595 -0.67118073 0.64781922 10.666667
4.5797319 -0.28694934 0.82697314 11.333333
4.6448207 0.21250451 0.76721764 11
4.5413599 -4.6356478 1.0071199 11
4.5293803 -0.14670193 1.0244802 12.5
4.4566827 -4.5276861 1.4482497 13.25
4.6364927 -4.3575025 1.4785515 13.5
4.4161716 -4.5617952 1.8295732 15
4.6574621 -4.2863936 1.8578297 15
5.1676302 -3.763274 0.072963931 7
5.0714993 -2.8619552 0.080061629 7
5.0507236 -0.52708524 0.099900462 7
5.1100163 -2.8391414 0.27177402 8
5.1855645 -1.7435726 0.24917033 8
4.9806786 -0.51060534 0.30974042 8
5.0789132 1.4336531 0.31689292 8
5.1264839 -2.8056431 0.86978185 11
5.1481752 -3.7577674 0.94136721 11
4.8058109 -0.85202676 1.1589699 13
4.8585958 -0.65668666 1.069254 12.666667
4.9826097 1.3991317 1.2774807 13
4.8246284 -4.1308093 1.6203296 14
5.0681725 -3.814162 1.6514658 14
5.1364651 -3.1621644 1.394231 13
4.8253965 -4.0828547 1.8799206 15
5.0612588 -3.8218546 1.8433144 14.8
5.2509685 -3.6531036 0.096485965 7
5.2506194 -0.24398978 0.12415119 7
5.2194448 0.33243063 0.099314176 7
5.4313812 1.1042312 0.17397885 7
5.2570729 -3.652143 0.25732771 7.5
5.3690538 -3.4579227 0.30438226 7.8333335
5.3862691 -3.1009793 0.26202521 7.8000002
5.3608379 -2.693574 0.41894463 8.333333
5.4705563 -2.3040407 0.21828288 7.3333335
5.361835 -1.4501119 0.49066266 9
5.3508081 -0.72222537 0.43462706 8.333333
5.2476788 -0.3182022 0.51582694 9
5.4540939 -3.3797436 0.71656483 9.5
5.2665601 -3.0190291 0.80274385 10
5.3709831 -2.7004123 0.68028355 9.8000002
5.2998357 -2.3807356 0.8526783 11
5.404376 -0.6108582 0.62116808 9.75
5.4404488 -0.36515963 0.64103752 9.5
5.2387724 -3.65148 0.95650786 11
5.4386992 -3.3878691 1.0576257 11.5
5.2992549 -2.9560378 1.0379179 11.333333
5.4599562 -2.7068961 1.1006281 11.666667
5.4627781 1.0381678 1.1133896 11.6
5.333724 1.2900996 1.1800283 12.5
5.34764 -3.4808085 1.543407 13.5
5.3276949 -2.9364257 1.5154456 13.4
5.4569039 -2.6780989 1.7154083 14
5.3063273 0.9888407 1.3882588 13
5.3750362 1.2551204 1.465798 14
5.1866012 -3.6552684 1.8478943 15
5.3974342 -3.388813 1.8332479 14.75
5.3453417 -2.8279667 1.9284557 15
5.4460006 -2.693027 1.8104793 15
5.6808648 -2.1547673 0.24491535 8
5.6238284 -1.2506876 0.24954051 7.5
5.7059216 0.93549359 0.3402088 7.5
5.587286 -3.1978955 0.55305743 9
5.6479802 -2.4671965 0.66600388 10
5.5981359 -3.1737962 1.0836605 11.5
5.582952 -2.5394142 1.0722708 11.5
5.9350095 0.75350565 1.0131029 11
5.5877852 0.98813701 1.2352093 12.333333
5.6039333 1.2224457 1.3411416 13
5.9069414 0.80440837 1.6390331 14
5.5814295 -3.15446 1.8126779 14.5
5.5890827 -2.5315845 1.7943078 14.5
5.7423992 -2.3080037 1.836588 14.5
5.9409223 0.46338496 1.9341065 15
6.3430595 -2.1814165 1.4306034 12
6.1305146 0.63604718 1.5735726 13.5
5.98452 0.81629902 1.6541142 14
6.1803303 -2.5323489 1.9757839 15
6.3168526 -2.2610438 1.9510739 14.333333
6.2001333 0.20585187 1.8314042 14
6.1738501 0.55388743 1.8090956 14
6.6486788 -1.9248903 0.069820702 7
6.5398502 -2.0824416 0.26701897 7.5
6.7205219 -1.8538761 0.32267109 7.75
6.5488501 -2.1102717 0.78422117 10
6.7678189 -1.8613055 0.82260305 10
6.6459188 -2.0368805 1.7360443 13
6.6349869 0.2303355 1.5912049 13
6.4810028 -2.0980189 1.9685707 14.5
6.5958242 -1.83443 2.043113 15
6.5617204 -0.17098582 2.1770458 15
6.5854888 -1.8536001 2.177001 15
6.8522449 -1.6889327 0.088302746 7
7.1949267 -1.2665354 0.13880536 7
6.808105 -1.7213584 0.53536731 8.5
7.0801077 -1.4047587 0.45883322 8.1999998
6.8080873 -0.87508202 0.19518211 7
7.0627618 -0.29963729 0.57367873 9
6.8435035 -1.7967079 0.850824 10
6.9353123 -1.5311124 0.61347693 9
7.0731854 -1.3107342 1.2447075 11
6.9514441 0.021759065 1.3720263 12
6.8173447 -1.6401141 1.46387 12
7.0010376 -1.3668219 1.5327405 12.333333
7.1382442 -1.1873726 1.7369009 13
6.7836623 -0.081892416 1.5588273 13
6.8804202 0.022486664 1.7000967 13
6.8506527 -1.7878984 1.9789417 14
6.9296522 -1.5570209 2.0797629 14.5
7.0113506 0.026031509 1.9014394 14
6.9469419 -1.3864012 2.2437356 15
7.0884809 -1.1754028 2.3851643 15
7.3325067 -1.122918 0.15538712 7
7.2070217 -1.3373064 0.26689216 7
7.2849402 -1.1566249 0.48506087 8.5
7.2201891 -1.0910367 1.6090868 12
7.2089653 -1.3687332 2.091068 14
7.4169912 -1.0156157 2.0567362 13.666667
7.2652121 -0.11489459 2.0405185 14
7.2218776 -1.0208917 2.2763903 15
7.4650331 -0.70933735 2.3749721 15
7.5475507 -0.45456958 2.4261329 15
8.3864536 0.39785931 1.6252289 12
8.3315783 0.46069553 2.7698798 15
9.0081224 1.0677159 0.79498953 9
8.8479176 0.8899523 1.2910141 10
8.9330359 1.0180761 1.5845647 11
9.075923 1.2565374 1.7393456 11.5
8.8839197 2.8275619 2.5813384 14
9.5579243 7.0248199 0.27998409 7
9.4411135 7.0795541 0.58419144 7.5
9.4014444 1.5426487 0.97328466 9
9.4394894 7.1020384 1.048067 9
9.4014702 1.440349 1.3824474 10
9.4767141 7.0165329 1.4348944 10
9.3350439 1.6537178 2.4471877 13
9.5212994 2.3449874 2.6091003 14
9.8879347 6.7128391 0.52946091 7.5
9.6490145 6.8867984 0.55684692 7.5
9.8821583 2.1467924 0.87795526 9
9.9083195 6.6223569 0.9600274 8
9.7277517 6.8242188 0.97681868 8
9.8756914 2.0967309 1.2650548 9.333333
9.7974596 6.7094007 1.3891866 9.5
9.6970797 6.8756804 1.3599379 9
9.6961422 2.1704502 1.8608522 11
9.5520601 1.7604001 3.2385752 15
10.317855 3.1244955 2.6067214 13
10.150554 3.327563 2.614994 13
10.034066 3.0806532 3.1534648 14
10.776814 3.0969863 0.743182 8
10.763975 3.0903857 1.0003521 9
10.722694 3.2025709 1.370677 10
10.716126 3.2986071 1.8166016 11
10.808364 2.9358358 1.3159552 9
11.536226 4.2279024 1.1406301 9
11.808722 4.1913738 0.47160026 7
11.740967 4.4599466 0.75932372 8
11.572573 4.1599236 1.1295009 9
11.729903 4.5995665 1.1888038 9
11.713576 4.6944289 1.7251353 10
12.913447 3.3646784 0.7890563 8
12.848769 3.6459513 0.64749753 7
12.842339 3.4489248 1.1859845 9
