# .PCD v0.7 - Point Cloud Data file format
VERSION 0.7
FIELDS x y z intensity
SIZE 4 4 4 4
TYPE F F F F
COUNT 1 1 1 1
WIDTH 226
HEIGHT 1
VIEWPOINT 0 0 0 1 0 0 0
POINTS 226
DATA ascii
-0.1003613 -0.94419515 -0.012367097 189
-0.083389029 -0.9111352 -0.011825405 194
0.037568364 -0.97063774 -0.01053568 190
0.17600036 -0.98005825 -0.0074924408 191
-0.35940364 -0.81952232 -0.0035956525 149
-0.20575926 -0.85292774 -0.011781768 159
-0.1791693 -0.81266677 -0.0069057695 162
-0.042481057 -0.82989663 -0.0078446949 198
0.082141332 -0.84486079 -0.0075166035 197.25
0.19393255 -0.89233255 -0.0040922975 200.5
0.20477174 -0.84616905 -0.0069833803 199
-0.31059676 -0.76807785 -0.010139999 158.5
-0.26531094 -0.71605581 -0.0034166013 166
-0.12854059 -0.7399168 -0.0066220257 171.33333
-0.018806957 -0.78514719 -0.0094393836 198.5
0.013058788 -0.72134703 -0.0054514343 196.33333
0.1231985 -0.73172653 -0.0080308029 194.75
0.22894718 -0.73633146 -0.0085069751 194
-0.22114216 -0.67004812 -0.010961768 175.66667
-0.16805987 -0.60918915 -0.0034307165 175
-0.069401227 -0.6558724 -0.0084438492 177.16667
0.031910084 -0.68906897 -0.0125033 194.5
0.16685846 -0.60558146 -0.0015951955 191
-0.30959228 -0.59318745 -0.010546182 174.5
-0.23581608 -0.53031218 -0.009818228 181
-0.13986914 -0.58169645 -0.013825379 178.5
-0.026886579 -0.59391105 -0.0062102387 178
0.040544063 -0.5389272 -0.0063450979 185.85715
0.17356406 -0.58923107 -0.0042623882 190.5
0.24673304 -0.50723881 -0.011825611 185.11111
-0.85787344 -0.42160472 -0.0048294952 125
-0.1360094 -0.44494092 -0.0076528075 186.66667
-0.04772009 -0.47885203 -0.0091469511 185.60001
0.050060198 -0.42942789 -0.016570505 181.66667
0.14743242 -0.45856538 -0.020513544 183.58333
0.25938019 -0.45294788 -0.017355697 181.125
-0.76055926 -0.38855645 -0.0039674928 125
-0.63093311 -0.34503257 -0.0070391838 141.33333
-0.52758884 -0.31003129 -0.0068240622 157.5
-0.035390094 -0.36214232 -0.018030848 181.89999
0.059919499 -0.34349692 -0.018194297 178.07143
0.15235369 -0.34086907 -0.027821267 176.20589
0.24673016 -0.34937215 -0.036022309 174.76315
0.31670219 -0.35820201 -0.030283079 175.10527
-0.76394045 -0.24036583 -0.0032350549 119
-0.64870673 -0.21686965 -0.010002499 143
-0.44622728 -0.28279701 -0.0093767205 176
-0.3621448 -0.25481012 -0.013337183 185.39999
-0.25439948 -0.21777032 -0.0082859183 186.60001
-0.12401678 -0.25032789 -0.019808283 182.11111
-0.048864383 -0.21387376 -0.019983379 178.375
0.063816279 -0.22834857 -0.046338372 170.53334
0.16443031 -0.26469341 -0.045822795 170.73685
0.25472853 -0.2428004 -0.029466936 169.82051
0.32815623 -0.23666193 -0.023995271 170.03448
-0.53094196 -0.19225974 -0.0093202218 163.25
-0.43289155 -0.17211948 -0.01304136 180.60001
-0.33697817 -0.15163323 -0.006837538 188
-0.25101188 -0.14468853 -0.0078354953 185.57143
-0.1597745 -0.15150253 -0.024946289 181.66667
-0.03080623 -0.15669657 -0.030579923 175.5
0.045061592 -0.14854623 -0.053465113 168.80646
0.15164696 -0.13672674 -0.034520268 164.31111
0.26318595 -0.14065407 -0.044342533 166.80263
0.33841583 -0.14110611 -0.044861961 166.90721
0.85633391 -0.11482538 -0.013259429 181.75
0.95891941 -0.13946013 -0.024133204 188.33333
-0.82422876 -0.099764608 -0.0066798078 118
-0.74123025 -0.093001448 -0.0072036618 129
-0.665609 -0.086787738 -0.0064506889 139.66667
-0.54738456 -0.077299774 -0.010153132 165
-0.44303167 -0.06897413 -0.014319967 184.2
-0.32635394 -0.059269872 -0.01014453 187.39999
-0.23784368 -0.051907517 -0.0069637117 185.5
-0.17087735 -0.047362257 -0.027415419 181.18182
-0.047649115 -0.062749639 -0.040475063 174.52632
0.051693756 -0.053479884 -0.049018834 166.63333
0.1555603 -0.053004969 -0.039811898 163.5921
0.25382635 -0.050342094 -0.06847585 165.61417
0.35950479 -0.037891548 -0.075604312 167.63
0.45416629 -0.0088920044 -0.047580369 168
0.54909045 -0.026678376 -0.0617995 170.5
0.64214665 -0.045170806 -0.048954405 173.5641
0.75588441 -0.065726392 -0.028169604 171.88889
0.85114956 -0.055533543 -0.012838963 176
0.946518 -0.06690646 -0.020421214 185
-0.82466257 0.04966978 -0.0058515305 117
-0.74336499 0.046261329 -0.006893286 128
-0.65906042 0.042713232 -0.0087919794 142.25
-0.53334761 0.037413266 -0.011714931 168.33333
-0.44430929 0.033651367 -0.01389726 184.39999
-0.32946968 0.028895278 -0.0082479371 188.5
-0.22682245 0.046735432 -0.0060736919 185.2
-0.16704427 0.056632176 -0.028437663 180.90909
-0.04897058 0.044982508 -0.040620182 174.58974
0.05682129 0.044888794 -0.049402367 166.64865
0.15261318 0.03912697 -0.041143976 163.45833
0.24938308 0.024788426 -0.069729157 165.1375
0.36127982 0.0082588764 -0.075503305 167.54082
0.43621269 0.035595994 -0.049237244 167.2697
0.54433364 0.044500113 -0.057803024 170.10667
0.63791388 0.042035617 -0.048728079 173.31944
0.75330997 0.04408925 -0.028633595 172.3421
0.84875154 0.028505191 -0.011395828 174.39999
0.94060194 0.041021381 -0.017321123 183.85715
-0.51570576 0.14854141 -0.010634571 168
-0.43917224 0.13587676 -0.012657623 185.2
-0.36766618 0.12389345 -0.0075489376 190
-0.25344545 0.16819169 -0.0098413657 187.11111
-0.16122015 0.16005835 -0.024685403 182.41667
-0.043111145 0.12607101 -0.035258297 175.72223
0.022827666 0.10845265 -0.063582636 169.11111
0.44913387 0.14202896 -0.044912148 168.08974
0.55603045 0.15027733 -0.06343352 169.56061
0.63647968 0.14245424 -0.034256168 171.72501
0.7443859 0.1541623 -0.020750461 169.19231
0.85154229 0.14829183 -0.011591589 178.84616
0.93571359 0.14015891 -0.019693635 185.66667
-0.62588787 0.29557869 -0.010316583 147.5
-0.54073137 0.27069131 -0.011927827 163
-0.43635327 0.24020375 -0.01433925 182.8
-0.34758908 0.21415517 -0.014247189 189
0.46591678 0.25997001 -0.059339713 169.71794
0.54217392 0.24255198 -0.041253258 168.57143
0.6547792 0.2490533 -0.025104046 165.78572
0.74214381 0.24021636 -0.011036274 170.11765
0.84128791 0.25696287 -0.014803943 183.14285
0.936342 0.24580328 -0.023698784 187.60001
-0.86027259 0.36413741 -0.0073755295 112
-0.76810193 0.33712882 -0.0075932783 121.5
-0.68956757 0.31413394 -0.0081672911 134.5
0.46014717 0.33348769 -0.025183657 164.4762
0.54856455 0.35423294 -0.030729402 171.05882
0.63896543 0.34529871 -0.017622923 174.22728
0.74832052 0.34714958 -0.012107935 183.44444
0.83388466 0.33419907 -0.015215312 185.42857
0.91363275 0.37585106 -0.030158373 187
0.46445656 0.44378829 -0.021612408 165.63637
0.54606724 0.4268544 -0.020045634 181.88889
0.65264285 0.44861415 -0.015372931 185.88889
0.74001306 0.44119057 -0.018175695 187.85715
0.85760242 0.43519062 -0.026498361 186
0.48259073 0.55407411 -0.021128485 171
0.56009883 0.54718822 -0.024846472 188.5
0.63708526 0.53563309 -0.024409283 189.16667
0.74941814 0.56568754 -0.033765305 190.60001
0.82493359 0.52124363 -0.033824425 188
0.49562761 0.62638324 -0.024805656 169
0.52283174 0.67011154 -0.030897137 167.8
0.64922619 0.65509874 -0.033457704 186.88889
0.76984262 0.60211676 -0.025601223 188
0.51884001 0.75894111 -0.029409954 153.75
0.62100089 0.73657972 -0.03406278 181.5
0.52606672 0.81371582 -0.023436822 143.5
-0.25497657 -0.91664416 0.0040809638 143
-0.11155839 -0.95896614 -0.00061015168 184
0.02916665 -0.98394436 0.0014160228 183
0.18716951 -0.91216677 0.0041683251 201
-0.3829037 -0.84252739 0.0048258072 139
-0.21460141 -0.85977215 0.001665473 153.5
-0.054585632 -0.84868091 1.8593923e-05 196
0.065448895 -0.88196015 0.0033985591 195
-0.50944233 -0.75037026 0.037652038 90.5
-0.48520321 -0.73087537 0.033432197 93
-0.32025704 -0.77428919 0.0029968817 153
-0.14730549 -0.76276219 0.002755505 167
0.11006 -0.75981122 0.0019159029 198
0.21741508 -0.77638459 0.0011160269 197.5
-0.43821856 -0.69271123 0.026695184 95
-0.35222837 -0.622051 0.01750201 131
-0.24042042 -0.68776268 -0.00061499653 169
0.062115174 -0.62156725 0.0033619187 193
0.15506682 -0.63382828 0.0036912488 193
0.2485664 -0.62824208 0.0038740546 191.60001
-0.74047261 -0.54621404 -8.6985174e-06 123
-0.65204376 -0.50309074 0.0013875093 129
-0.32864881 -0.59935653 0.027624227 99
-0.057323053 -0.52940077 0.002178814 184.66667
0.062568553 -0.57340193 0.0041834312 190
0.16057569 -0.51832539 0.0092714252 188.85715
0.25674343 -0.53308725 0.0095178289 187.42857
-0.62674725 -0.49143049 -0.0025030223 129
-0.55054802 -0.45392084 0.00096308888 134
-0.150682 -0.45487195 0.002006453 187
-0.025973642 -0.45163396 0.00073542132 186.33333
0.058284208 -0.46775362 0.002868003 185
0.13042046 -0.48895368 0.004656326 187
-0.79260641 -0.39897671 -0.00025541129 123
-0.66623288 -0.35608926 0.00064939848 134.5
-0.50759894 -0.30241239 0.00052415172 161
-0.41496503 -0.3834869 0.030593434 133
-0.10640542 -0.30664486 0.070438564 170
-0.070912704 -0.38685149 0.0029067746 185
-0.85128814 -0.25850525 -0.0021547438 111
-0.75752747 -0.23884745 -0.00096157979 118.5
-0.64633298 -0.21575058 -0.0021934134 137
-0.27867159 -0.22471251 0.0026159624 189
-0.16151705 -0.26339704 0.012695937 183.42857
-0.091745071 -0.25756499 0.077772886 172
0.077888504 -0.25433987 0.02569492 168.5
0.11971138 -0.20696436 0.070786864 148
-0.84076703 -0.10074886 0.0015854228 113
-0.31285393 -0.14611979 -0.00078090728 189
-0.21243449 -0.12515062 -0.00026398516 185
-0.17628682 -0.19035667 0.00017522647 184
0.092592716 -0.17422251 0.082253695 139.42857
0.16115935 -0.16338687 0.066235989 131.92
0.23094209 -0.1413864 0.02524114 127.8421
-0.75204253 -0.093493134 0.0015583542 123
-0.55514604 -0.077510439 -0.0007924785 159
-0.33694845 -0.059717927 -0.00099039497 188
-0.8516646 0.050857514 -0.00040861071 115
-0.76173121 0.04710361 -0.00032863632 124
-0.5568133 0.038528904 -0.0004453494 160
-0.22000453 0.098625161 0.027525477 115
-0.52580196 0.14987412 0.0053916108 165.5
-0.45743281 0.1376953 0.044064313 159
-0.33477545 0.11625779 0.094309643 152
-0.26587507 0.10646936 0.016887048 151.2
-0.11345242 -0.21967131 0.14209135 137
-0.026307356 -0.24513482 0.1152 166
0.012877859 -0.20788789 0.17186777 157.33333
-0.043408226 -0.18199724 0.16557172 128
0.06184626 -0.1784512 0.13496178 132.81818
0.14079854 -0.15918933 0.10202038 123.5
-0.31313735 0.11196616 0.12661923 165.83333
