# .PCD v0.7 - Point Cloud Data file format
VERSION 0.7
FIELDS x y z intensity
SIZE 4 4 4 4
TYPE F F F F
COUNT 1 1 1 1
WIDTH 686
HEIGHT 1
VIEWPOINT 0 0 0 1 0 0 0
POINTS 686
DATA ascii
-14.543981 -24.0567 4.7808156 12
-14.254663 -24.214764 4.0551395 12
-14.314354 -24.114279 5.4613786 13
-13.996538 -24.344584 4.7640505 12
-13.82906 -24.462885 5.4526453 12
-13.461235 -24.649635 4.7548928 11
-13.123187 -24.813616 4.0444593 11
-12.930076 -24.976944 4.7538309 11
-12.358559 -25.310478 3.8569007 10
-12.32947 -25.1525 4.7275825 11
-11.780191 -25.559332 3.7893386 10
-11.829046 -25.55098 4.0548515 11
-5.9520493 -1.5732278 1.1122106 13
-4.8861194 -6.4871068 0.18102366 8
-5.0642195 -6.3931551 0.18407451 8
-5.0089731 -7.3665261 0.50804257 9
-4.8742886 -6.5142889 0.47827911 9
-4.9017611 -6.4837813 0.65428811 10
-5.0579247 -6.3801699 0.661026 10
-4.8280091 -2.0591042 1.1243168 14
-4.9614668 -1.9717153 1.1474937 14
-4.676569 -6.6457171 0.071943969 8
-4.659297 -6.6400895 0.41320592 9
-4.4142332 -2.3106375 0.37550819 10
-4.6358495 -7.9355865 0.89297497 10
-4.7626095 -6.6097274 0.64833885 10
-4.5491018 -2.2157698 1.0785441 14
-4.7035837 -2.1467526 1.1029578 14
-4.1861424 -6.8808804 0.09612336 8
-4.1628532 -2.5205288 0.11765862 8.3999996
-4.2295408 -6.8577914 0.40503284 9
-4.162087 -6.7091508 0.62604386 10
-4.1290197 -2.4945629 0.45925659 10.5
-4.3080201 -2.393774 0.36550716 10
-4.0182528 -0.955616 0.53311807 11.5
-4.1829004 -8.1700277 0.87445027 9
-4.4145899 -7.9576545 0.88099474 9
-4.1228571 -6.7423286 0.83323032 11
-4.1115408 -2.5026431 0.88980377 13
-4.325882 -2.3675086 0.93278807 13
-4.1753507 -6.724721 1.2431393 12
-4.172967 -6.7200427 1.6604191 14
-3.8093064 -7.1149788 0.11509329 7
-3.8023865 -2.7123497 0.15774213 8.5
-3.7566407 1.9476115 0.25829744 9
-3.6690645 2.1194437 0.2170143 8.8000002
-3.8505573 -7.6595502 0.38875961 8
-3.8698356 -7.0483341 0.46030971 8.5
-3.6200576 -2.8310175 0.65144831 12
-3.8381665 -2.6693318 0.48399562 10.5
-3.7420802 1.9743314 0.44668013 10.5
-3.7197068 2.1399093 0.56544453 11.25
-3.6850865 2.5108335 0.71697509 12
-3.7985475 -8.3078232 0.85981363 9
-3.8664212 -2.6304548 0.84094566 12.666667
-3.7378063 -8.2477579 1.3671491 11
-3.711436 -8.227562 1.8126302 12
-3.7799704 -8.2365417 2.0331376 13
-3.4282272 -7.308763 0.17979085 7
-3.3494518 -2.9583876 0.15914746 8.5555553
-3.4451215 -1.8929627 0.15554421 9
-3.2187591 -1.5810672 0.13510361 9
-3.556494 2.3406327 0.18796578 8.333333
-3.4318123 2.5499794 0.2108106 8.666667
-3.2206814 -7.616169 0.40090436 8
-3.3829708 -7.3276043 0.38544127 8
-3.420083 -2.9070644 0.50468272 11
-3.5499392 2.312396 0.52001292 11
-3.3854725 2.5926073 0.55548626 11.111111
-3.3907988 -8.6513109 0.85286129 9
-3.3514791 -8.0441217 0.83050489 9
-3.4163771 -2.9005861 0.72621399 12
-3.2925148 2.7253234 1.0572306 14.5
-3.2615244 -8.5142412 1.3856927 11
-3.4009275 2.5656321 1.2034817 15
-3.3884768 -8.4316092 1.7099845 12
-3.4666619 -8.3689432 1.5910374 11.333333
-3.342242 -8.4554319 2.0264668 13
-3.5142758 -8.3589735 2.0259228 13
-2.8295126 -7.6706343 0.066974871 6.5
-3.0741427 -7.5136294 0.07054425 6.5
-2.8571112 -3.2259336 0.17160441 8.5
-3.0408473 -3.1230462 0.19371675 8.8571424
-3.2014709 -1.6082532 0.11973973 9
-2.9069419 -1.4348286 0.25635141 10
-3.0168812 2.5708799 0.27301994 9
-2.8096783 -7.629725 0.4045994 8
-2.9816651 -7.5440421 0.40163043 8
-2.8869915 -4.4882398 0.55893141 11
-2.8612113 -3.226053 0.53315753 11
-3.0263903 -3.1236744 0.56038898 11
-2.9985716 2.5742311 0.42057005 10
-2.824455 -8.9095821 0.84134185 9
-3.1056144 -8.7747984 0.84636772 9
-2.8625891 -4.5180378 0.70173067 11
-2.824404 -4.3800263 0.964692 13
-3.0273173 2.6688523 1.0264816 14.666667
-3.1880424 2.9601688 1.0988351 14
-2.9991226 -8.6509399 1.4083182 11
-3.1339097 -7.6623411 1.2911948 11
-2.8325806 -4.4072533 1.2484629 14
-3.0265763 -8.636302 1.7204424 12
-3.084223 -8.6023617 2.0290055 13
-2.4919727 -8.2099295 0.058725536 6.5
-2.723309 -7.9411426 0.059074178 6.5
-2.4299214 -3.6624858 0.27836451 9
-2.7286863 -3.296212 0.20489018 9
-2.6923859 -1.4155236 0.28247252 10.5
-2.7147954 -1.1929439 0.24802388 10
-2.7749033 2.4422412 0.30490741 9.5
-2.7296324 -8.624423 0.63038307 8
-2.6193225 -8.2539902 0.41040534 8
-2.7710295 -7.6413622 0.45169085 8.5
-2.7617831 -4.5680766 0.43975484 10
-2.451617 -3.6539476 0.53531855 11
-2.7097828 -3.3153303 0.53237879 11
-2.7119792 -1.3759528 0.5300194 12.555555
-2.6187313 -1.120113 0.52553868 12.75
-2.6054497 -0.64729643 0.6089952 14
-2.4961405 2.2586524 0.58680534 12.333333
-2.5971789 2.2739353 0.89834523 15
-2.6100037 2.4103427 0.94227147 15
-2.5875618 -8.8918114 1.4245086 11
-2.6230886 -4.5313797 1.1149129 14
-2.4603589 -3.6718156 1.1239486 15
-2.5577807 -8.9029789 1.8477709 12
-2.8296347 -8.7478075 1.8359756 12
-2.558795 -8.9040747 2.0402834 13
-2.8232305 -8.7535191 2.0330606 13
-2.15973 -8.937253 0.20522223 7
-2.2479019 -8.2474003 0.11675879 6.6666665
-2.3941691 -3.6848693 0.073311381 8
-2.2283769 -0.48160383 0.31484705 11.666667
-2.282748 -0.39688948 0.35222879 12
-2.2608993 2.1056471 0.33963671 10.5
-2.1666093 -8.9082327 0.63662976 8
-2.2653813 -8.3199482 0.37170482 8
-2.3942616 -3.678298 0.40706706 10
-2.1278968 -0.47894928 0.52685201 14
-2.0884609 1.9865338 0.64690208 14
-2.220717 2.1043963 0.52723068 12.2
-2.3192639 -8.3081799 0.80301332 9
-2.3447754 -3.7126844 1.0112321 14
-2.1927607 2.1341209 0.88027841 15
-2.2480192 -9.0407724 1.40826 11
-2.4073925 -3.6793325 1.2358997 15
-2.1014421 -9.1731339 1.6712805 11
-2.1940138 -9.112915 1.9614772 12.5
-1.8678951 -9.1364632 0.21865386 7
-1.7802982 1.8543469 0.34058392 11
-1.8006779 -9.1259098 0.48119298 8
-1.7786089 -8.2710705 0.43391412 8.333333
-1.8046737 1.8719729 0.50558871 12.857142
-1.8460699 -9.3043184 0.8325097 9
-1.872087 1.9194289 0.7933414 15
-1.8249897 -9.2846947 1.4856253 11
-1.9144579 -9.2641325 1.97595 12.5
-1.2113509 -9.5380907 -0.18532853 6
-1.3542725 -9.4116144 0.24632204 7
-1.218874 -5.26021 0.026354991 6.5
-1.2641526 1.5535021 0.31246436 12
-1.453946 1.656577 0.35332119 12
-1.3851167 -9.3969536 0.45650214 8
-1.2711995 1.5646002 0.47923279 14
-1.4460887 1.661788 0.55750036 14.333333
-1.5549545 -9.3704004 1.4868482 11
-1.1199118 -9.4498186 0.11947695 7
-0.90430182 -5.6071801 0.055579286 7
-0.97846216 -5.3447595 0.0066782739 6.3333335
-1.0750415 -5.1954503 -0.018495556 6
-0.98446029 1.3977565 0.36331588 13
-1.0253453 -9.4937611 0.36358199 8
-1.0725155 -8.6051779 0.63892007 9
-1.0765109 -1.294356 0.41260311 15
-1.0059744 1.4123772 0.45918238 14.5
-0.83488142 -6.8658323 1.0847569 11
-0.9774549 -6.8678856 1.3614421 12
-1.1680069 -6.7685208 1.1973957 11
-0.92583305 -6.8922501 1.6294042 13
-1.0646977 -6.8137136 1.6200475 13
-0.56365168 -6.0644813 0.026893815 7
-0.51016092 -5.967195 0.21887402 7.6666665
-0.61211592 -4.911315 0.26133233 8
-0.55883729 -4.3505797 0.13224667 7
-0.42516822 -0.64943212 0.016948747 8
-0.48012266 -0.20942086 0.025400475 9
-0.51416469 0.30450565 0.014531069 8
-0.53695649 0.66546988 0.013487247 7.75
-0.60927254 0.86133963 0.018466426 8
-0.6653524 1.2740523 0.38601074 14.5
-0.6109271 -5.9521112 0.50635046 9
-0.78104627 -4.9573188 0.58509785 9.5
-0.48381183 -4.3351202 0.5149439 9.5
-0.73045045 1.3094999 0.43159968 15
-0.62174964 2.9935815 0.49107343 11.333333
-0.5337019 -7.0277076 1.0790564 11
-0.62107474 -7.0125217 1.290292 11.4
-0.63100296 -7.069705 1.6154876 13
-0.14533323 -4.4590554 -0.055042926 6
-0.24859269 0.6061365 -0.0017961445 7
-0.27271727 -5.9565229 0.032268174 7
-0.18524459 -4.4459071 0.15880783 7.5
-0.15553007 -4.3340073 0.3107481 8.666667
-0.34832236 -0.66923279 0.024503116 8
-0.19186834 0.56492031 0.051597487 9.416667
-0.18057826 -4.3443604 0.51592976 9.6000004
-0.018479079 2.3267331 0.55434906 13.5
-0.2960256 -6.084342 0.98144037 11
-0.12016471 -4.2221107 0.92929053 12.666667
-0.37786219 -7.1010375 1.3637924 12
0.14700782 -2.5239904 0.26418775 9.25
0.27372357 -2.2837167 0.23549905 9.166667
0.15402117 -2.5374429 0.54604727 12.285714
0.30484042 -2.2691691 0.5043568 12.5
0.10764287 2.3067465 0.6071921 14
0.03095266 -4.1834826 0.86000931 12.5
0.62796307 -0.12767932 -0.017800208 5.5999999
0.64594686 0.10749885 -0.019655012 5.5
0.65781265 -2.4876516 0.20161293 8
0.53315377 -2.2895598 0.24631268 9
0.69646639 -6.4341168 0.47338343 8.5
0.7235533 -4.4008021 0.61608839 10
0.62081581 -3.2367041 0.72790474 12.5
0.73027915 -3.1742871 0.75777709 13
0.54772538 -2.252424 0.44508225 11.666667
0.69917208 1.831376 0.54308707 14
0.63211548 2.7228541 0.66842228 13.222222
0.48453623 2.7998164 0.70477504 13.5
0.53197157 -3.2391477 0.94688368 14
0.70383352 -3.1634071 0.86404055 13.5
0.61997634 2.7358253 0.86048752 15
0.46980584 2.8132772 0.867805 15
0.57829773 -7.7708392 1.7255596 12.5
1.112222 -0.90511078 0.0041846749 7
0.87249911 -0.60468185 0.0019412519 7
1.0697558 -0.21491045 -0.0031651743 6.3333335
1.0045205 0.19884016 -0.0018356306 6.5
0.80496955 0.4063158 0.0054454408 7
0.99923044 -8.5642958 0.068741232 7
0.81791329 -6.4146614 0.28548077 8
0.9955532 -1.7304683 0.29470089 11
1.0448409 -0.82680184 0.018192945 7
0.9256953 -0.67505741 0.0113241 7
0.99950838 -8.6430359 0.4376919 8
0.82351953 -4.3797059 0.61866713 10
0.91511714 -2.9707129 0.60910517 11.5
1.1033975 -2.6145701 0.55822772 12
1.1235121 -2.2250605 0.68125367 14.5
1.0468519 -1.7229581 0.58008754 15
0.95919365 2.5138354 0.65630734 13.3
0.93179756 -3.0045679 0.90330195 14
0.79421329 2.6470203 0.84984702 15
0.9343521 -7.8762078 1.3705535 11.5
0.80226558 -7.866015 1.8123343 13
1.4079807 -1.2776089 0.010891017 7
1.2352406 -1.0601956 0.007350794 7
1.2208962 -0.45324293 -0.0080311215 6
1.3582383 0.25701952 -0.0032750177 6.3333335
1.369963 0.54555571 -0.01162291 6
1.4515408 0.93667775 -0.0096015492 6
1.2187128 -8.5936136 0.15413 6.5
1.5585685 -8.1736431 0.16156743 6.5
1.5388855 -6.2129474 0.29185554 8
1.3477609 -5.3484955 0.18008159 7
1.3752091 -1.137416 0.39421338 13
1.4704882 -7.8056231 0.49079615 8
1.2582821 -5.6556864 0.48205686 9
1.2997153 -4.7578087 0.6154741 10
1.2460012 -2.1445997 0.74164486 15
1.5787479 -1.7445831 0.61110163 14
1.5421276 -1.2250317 0.56529993 15
1.4158351 -1.1068727 0.46958315 14
1.2093897 2.5178268 0.65330738 13
1.2554154 2.525774 0.89880902 15
1.7657088 0.27823192 -0.0050114323 6
1.7375319 0.64488691 -0.008767603 6
1.8682435 0.99876022 -0.025976911 6
1.7522038 1.3003569 -0.036444705 6
1.7445884 -8.1212492 0.16175938 6.5
1.8104106 -1.865381 0.21133609 9
1.8046808 -1.423496 0.26041523 10
1.6860714 -5.3649092 0.63198608 9.5
1.8250713 -2.1665323 0.74326819 14
1.5966444 -1.7294294 0.52212048 13
1.818487 -1.3648305 0.52738339 13.285714
1.5946337 -1.2031374 0.53786379 14
2.0094345 0.6540888 -0.0080377981 6
2.0691512 0.93865496 -0.02230341 6
2.3184097 1.4170474 -0.063896954 6
2.3544607 -2.4719543 0.0372504 7
2.0662622 -1.6859727 0.23785985 9
2.0812466 -1.377085 0.31082371 10.333333
2.2373838 0.050423268 0.38249177 11
2.2462132 0.59476411 0.26151359 9.5
2.3241575 0.82935643 0.22992584 9
2.2957208 -7.2178931 0.75459749 9
2.1598146 -2.1687794 0.5001632 11.75
2.206465 -1.8044596 0.65639132 13.4
2.1097445 -1.3550344 0.57310867 13.375
2.03175 -1.171695 0.64479214 14.5
2.3493004 -0.14409348 0.5677765 13.5
2.2491601 0.038379144 0.53193408 13
2.14007 0.6072762 0.44887695 12
2.2922616 0.90561515 0.61074692 13.333333
2.2365735 -7.2962689 1.748958 12.5
2.3191409 -7.1705637 1.7175592 12.666667
2.5415311 0.57180947 -0.021524053 6
2.5664554 1.5967706 -0.081171513 6
2.5227206 -2.7467506 0.18972604 8
2.5600967 -0.46249238 0.35070744 10.5
2.7458484 0.66404867 0.37016654 10.25
2.4852073 0.8758679 0.35093313 10.5
2.4468369 -6.9511518 0.69255054 9
2.6218452 -6.711194 0.68256438 9
2.7562227 -6.3846669 0.72424114 9
2.4298427 -3.2309062 0.4963482 10
2.5423756 -3.0432482 0.5076859 11
2.5500348 -2.2859697 0.75289184 13
2.5891418 -0.52495909 0.49868095 12
2.4267631 -0.26906076 0.51224208 12.333333
2.457989 0.2054054 0.53264815 12.666667
2.7723677 0.49503082 0.49407196 11
2.5353005 0.91128546 0.62220794 12.75
2.5603793 -3.3451066 0.90739858 13
2.6520009 -0.66347772 0.87409222 15
2.6524878 0.92590439 0.86629057 15
2.4667459 -6.9030595 1.6835418 12.5
2.603348 -6.6637673 1.6976928 12.75
2.6780441 -6.993515 2.1629908 14
2.8921032 1.3979697 -0.0071337144 6
2.9141619 -2.5175252 0.26780042 8.75
3.1070199 -1.8650919 0.30323237 9.25
2.926811 -1.0510653 0.31986734 10
3.0605409 1.2646185 0.26155022 9
3.1357801 -1.819891 0.52170831 11
2.8791385 -0.89987797 0.67277539 13
2.9197195 -0.19194429 0.50934404 11.5
3.0494838 0.29187247 0.60154057 12.25
3.0024803 0.61078465 0.69010544 12.8
2.8908608 0.98882264 0.51877803 11
3.1296303 -2.7136145 0.94833851 13
3.1598771 -2.2648051 0.90602362 13
2.9314461 -1.1251289 0.86684823 14
3.1664464 0.30518475 0.93327308 15
2.8216605 -6.6052432 1.3602071 11
3.0410497 -6.2138138 1.5019145 12.5
3.1622558 -5.9597363 1.4896091 13
2.8295701 -6.2604275 1.7047805 13
3.0530667 -5.8642607 1.6761993 14
2.8334382 -6.6869698 2.112812 14
3.0832386 -6.2137966 2.0398555 15
3.2098694 -1.5400183 -0.036215466 6
3.3740666 0.78945994 -0.077834301 6
3.2959034 -3.0955203 0.30800939 9
3.2501938 -2.0025055 0.090732574 7
3.50318 -1.9959061 0.17590599 8
3.4342535 -0.91057378 0.23057234 8.5
3.3780828 -0.62043518 0.25067484 8.6000004
3.5634222 0.047591094 0.33770335 9
3.5514469 0.61291569 0.44105646 10
3.3342547 -1.8540756 0.69871306 12
3.3993962 -0.89315081 0.45516494 10
3.4283984 -0.41100812 0.67039126 12
3.5058808 0.21198289 0.49018618 10.333333
3.3212316 0.53207332 0.72173309 12.6
3.236223 -1.8711283 0.90971971 14
3.4949315 -1.0251464 0.8935008 13.5
3.2170005 -0.61464566 0.91112512 14
3.1971583 0.37988973 0.94869775 15
3.2241066 0.52350736 0.92317879 14.5
3.2423742 -5.8022666 1.4825165 13
3.5035071 -5.315866 1.3091161 13
3.5755501 -5.1710763 1.3062619 13
3.3368855 -5.3797898 1.6618396 14
3.5236938 -5.0485034 1.6529783 14.666667
3.4219575 7.1031556 2.2199662 14
3.6600962 0.44435364 -0.08724983 6
3.6081834 2.3645711 -0.071837887 6
3.965054 -3.4753804 0.17552465 8
3.6689663 -0.89450967 0.28941995 8.5
3.8719208 -0.6052174 0.4146266 9.5
3.6587293 0.051634192 0.40212849 9.5
3.8316388 0.46614197 0.1183399 7
3.871747 1.4061939 0.089254618 7
3.6040254 2.391824 0.11888316 7
3.8338878 -0.45570284 0.62946922 11
3.9371898 0.28320611 0.74453384 11.666667
3.690496 0.61787623 0.68614686 11.6
3.5996518 0.94017637 0.59188652 11
3.8687236 -4.5940027 1.143852 12
3.6376519 -1.0051928 0.88258612 13
3.7778435 2.3714528 1.0092547 13
3.7443612 2.457799 1.0346224 13
3.6651244 -5.0130115 1.4112253 13.666667
3.8718712 -4.6127543 1.3825401 13.5
3.6084809 -4.8946958 1.6367468 15
3.758219 -4.6334167 1.6456633 15
3.928257 -4.3472586 1.6472924 15
3.7325728 6.922174 2.2088995 14
3.6473687 7.8001003 2.193635 14
4.242084 -3.8491468 0.28570893 8
4.2486858 0.35664627 0.21731901 8
4.2882004 0.47566813 0.32548407 8.5
4.1544056 2.1613662 0.81928259 11.5
4.0990219 -4.1726227 1.0712972 12.5
4.2687707 -3.7975407 1.0697315 12.5
4.342864 -3.6077816 0.89931834 11
4.2749586 1.9738402 1.1203911 13
4.0463643 2.1512506 1.0562304 13
4.0996814 -4.1808901 1.3721466 13.4
4.2269001 -3.9479039 1.4743971 14
4.0627856 -4.112133 1.654091 15
4.2215233 -3.8360751 1.6767153 15
4.3639503 -3.5969732 1.6617352 15
4.1919441 8.6783972 2.1596406 13
4.3530617 5.8740411 2.3426893 15
4.2401609 6.1813459 2.4158313 15
4.1968851 6.6662297 2.198179 14
4.0334816 7.6802711 2.1919844 14
4.7554154 -2.8841126 -0.0098206466 7
4.7342324 -1.4245312 0.042458791 7
4.6205807 -3.1605232 0.24353421 8
4.6595025 -1.793488 0.22183588 7.75
4.763021 -1.4482647 0.20059425 7.6666665
4.5722094 -0.55439472 0.37279475 8.666667
4.5874553 0.2769776 0.3159177 8.5
4.5100298 0.59329659 0.33036539 8.3999996
4.5418282 1.990787 0.19840962 8
4.5787516 -1.9362092 0.51003236 10
4.4913106 -0.53152418 0.59946167 10
4.4070172 1.974134 0.84441781 11
4.6776915 10.069377 0.68688709 8
4.4746017 -3.480525 1.0233616 12
4.4009552 1.9164337 1.1222037 13
4.4157729 2.099498 1.0303627 12.5
4.5676284 10.112081 1.127291 9
4.5478859 -3.3524182 1.5005285 14
4.7008834 10.065959 1.5806297 10.5
4.4594355 -3.423346 1.6893278 15
4.7458792 -2.9428086 1.7183801 15
4.5161481 8.5702477 2.1523438 13
4.6577702 10.099742 2.0518489 12
4.565012 5.7200556 2.3212676 15
4.5837903 6.4488635 2.1904459 14
4.5745463 7.4263992 2.1772194 13.666667
4.8977423 -2.6027675 0.025977261 7
5.0261979 -2.3044984 0.013308639 7
4.8760653 -1.7273136 0.00070201827 7
4.8699594 -1.3404952 0.057998542 7
5.0152621 0.62662524 -0.14739075 6
4.9160523 -2.5851772 0.25037256 8.1428576
5.0779834 -2.3130028 0.30416471 8.333333
4.901659 -1.7513214 0.28702486 8.125
5.0597901 -1.5272084 0.45404071 9
4.9660673 -2.5206616 0.59900016 10
5.1000113 -2.2834699 0.64045972 10
4.9053159 -1.8354896 0.67923146 10.4
5.0162878 9.8752165 0.65896267 8
4.9392204 -2.5773184 1.095675 12.5
5.1027827 -2.297971 1.1278986 12.333333
4.9182272 -1.8114222 1.1069189 12.6
5.1139708 -1.4701668 1.1837968 12.5
5.0748978 1.5776684 1.1343448 12
5.0062661 1.6677951 1.2223644 13
4.9728756 9.8984766 1.1923454 9.333333
4.7983994 10.002707 1.1428442 9.5
4.9647307 -2.5627027 1.4444896 14.25
5.1207819 -2.2841949 1.5389253 14.666667
4.9422946 -1.7770226 1.4227823 14.5
5.1361942 -1.4312785 1.450888 14.2
5.1529999 1.5605062 1.4583362 14
4.9838939 1.7034984 1.5527343 14.666667
4.9872165 9.9051256 1.5206584 10.333333
4.7996898 -2.8289905 1.7282711 15
4.8982868 -2.6702092 1.7499337 15
5.1014037 7.1340313 2.1557899 13
4.9162917 7.2187996 2.1595228 13
5.0525751 8.3680687 2.1355472 13
4.8473353 8.4680462 2.1459563 13
4.9950595 9.9139719 2.0406394 12
5.0330057 5.4526396 2.3006997 15
4.8275304 5.6236115 2.3234637 15
4.9733238 6.2295403 2.1848569 14
5.1894193 1.6094036 0.88740391 11
5.5783195 9.5532408 0.61023986 8
5.2690864 9.7279997 0.75568819 8.5
5.2131853 -1.2902694 1.1714264 13
5.2123618 1.521345 1.2202364 12.5
5.5639896 9.5781651 1.3950504 10
5.3695297 9.6864233 1.1162198 9
5.2032461 -2.1389179 1.5312817 14.5
5.2222471 -1.2742479 1.4967561 14.5
5.2690511 -1.1679435 1.5617704 14.5
5.3462462 1.4158084 1.5756594 14.666667
5.3230891 9.7138681 1.5140818 10.333333
5.4672065 1.4656545 1.7794465 15
5.3879967 7.0174618 2.1542659 13
5.4948545 8.2081194 2.1256113 13
5.3088732 9.734643 2.0004261 11.666667
5.3850617 5.3035707 2.30215 15
5.3594885 5.9092097 2.355577 14.5
5.2821736 6.0441413 2.1792305 14
5.9451466 -0.7438249 -0.0023342462 7
5.8539214 -0.9130004 0.26630551 7.8333335
5.9256964 -0.79553461 0.40612605 9
5.8456464 1.2750697 0.33590308 8
5.8934484 5.3113651 0.26222226 7
5.8017392 9.4252977 0.590433 8
5.6982508 9.4808645 0.75271428 8.5
5.6982322 -1.2506315 1.0634211 11.5
5.7374501 -1.1209229 0.91373193 11
5.6321125 1.4464742 1.2109867 12.5
5.7880516 9.4417973 1.2167801 9.5
5.688077 -1.2612528 1.4280227 13
5.8454628 -1.0145377 1.4555581 13.6
5.969944 -0.79763651 1.5435389 14
5.9377036 1.0923522 1.3213217 13
5.745379 1.2881032 1.554885 14
5.7334332 9.4707613 1.6745465 11
5.7978864 -1.0240129 1.7661968 15
5.9261336 -0.79298782 1.8066396 15
5.7216682 5.4805398 1.7968692 13
5.888618 5.6432657 2.1638179 14
5.8398561 6.7717652 2.1407988 13
5.6447868 6.8548093 2.1421061 13
5.8464603 8.1073818 2.1238241 12.5
5.8113389 9.1417112 2.2036736 12
5.7821951 9.4672995 2.0030825 11.5
5.6549821 5.7909055 2.1678698 14
5.6361299 9.3358536 2.2118776 12
5.8863845 6.148942 2.7749882 15
5.663445 8.1623468 3.1909547 15
6.0651417 -0.54719782 0.05218254 7
6.1973519 -0.28675979 0.03965297 7
6.2895679 0.047405705 -0.0099410908 6
6.1073589 -0.49954563 0.36899269 8.5
6.2494712 -0.21516077 0.26589215 7.8333335
6.3379936 0.02563007 0.22208597 7.5
6.1416621 0.96344095 0.39515853 8
6.3274317 4.7507806 0.26796475 7
6.3158641 5.1035485 0.38726434 7.6666665
6.1119714 5.2735462 0.56074011 8
6.2505903 9.1705294 0.54999471 8
6.0271516 9.2993355 0.57092309 8
6.3290696 5.1378126 0.72288549 9
6.1485009 5.3032279 0.78380734 9.1999998
6.3807797 5.8930883 0.73283172 9
6.2929144 -0.19575217 1.1108291 11.666667
6.3613987 0.019106273 1.0769948 11
6.033493 1.1691304 1.1687323 12
6.2958174 5.1594901 1.0101058 10
6.0874 5.459115 1.028545 10
6.3196874 5.7797823 1.1218432 10.5
6.2269154 9.1868954 1.3536853 10
6.1141992 9.2543249 1.2451584 9.666667
6.1046634 -0.56024581 1.5088083 13.6
6.2834682 -0.25204825 1.5405295 13.5
6.0698752 1.0831137 1.5323411 13
6.3588099 5.127974 1.5044346 11.5
6.1858573 5.3460832 1.575146 11.6
6.2914476 9.1606998 1.654049 11
6.0604815 -0.59391397 1.7871751 14.666667
6.3037524 -0.23486707 1.839988 15
6.3610945 5.118947 1.8724989 13
6.1530371 5.3756218 1.9811312 13.333333
6.2010207 5.8049483 1.8144985 12
6.1185255 6.6259456 2.1352854 13
6.1871824 7.9771614 2.1159444 12
6.2835956 9.0237436 2.0488241 11.666667
6.1178312 9.2708626 1.9866577 11.5
6.1387248 7.91359 3.1820512 15
6.5065813 0.20791128 0.080562219 7
6.4705439 0.17956197 0.38385266 8
6.5752411 8.9822283 0.54629207 8
6.5771379 4.9391146 0.66825104 9
6.473712 6.1224413 0.73542273 8.5
6.721889 6.5151787 0.77947205 9
6.6142554 8.9716024 1.0116577 9
6.5483985 0.21881683 1.259655 12
6.6281395 4.9659991 1.2436785 10.5
6.4363165 6.0414472 1.0862412 10
6.6947598 6.4347506 1.0609472 10
6.5370731 9.0160732 1.2397069 9.666667
6.400948 -0.056828797 1.5136094 13.5
6.5322413 0.16338599 1.5653803 13.5
6.6604939 0.3923935 1.6192604 13.5
6.5624142 4.9969454 1.5153849 11.5
6.5560479 6.1203504 1.539629 11
6.5489554 9.0247784 1.4653506 10
6.4961929 0.12161472 1.956098 15
6.7130132 0.47570923 1.8919376 14.5
6.7253127 0.82207376 2.1192727 15
6.5996561 4.9994717 1.9065374 13
6.5494494 6.1516356 1.9921871 12.666667
6.543025 6.5904455 2.0299165 12.5
6.5293965 7.8383169 2.1084716 12
6.653048 8.427021 2.1785338 12
6.5678043 9.0163975 1.9669596 11.5
6.5969472 4.9866943 2.3769124 14
7.1644206 8.6538467 0.46241972 8
6.8364711 6.7624526 0.91090959 9
6.8613291 6.812644 0.64458472 8
7.14183 7.2633815 0.83504939 9
7.0274129 8.7333317 0.87186021 8.5
6.8426957 8.8347359 0.99076945 9
6.8977275 4.8084459 1.3522131 11
7.1212907 7.1769829 1.1390615 10
7.0718479 8.7033749 1.1774157 9.5
6.8742838 8.8259935 1.3150197 10
6.8780885 4.7951732 1.6063374 12
6.9810114 6.8841672 1.6760347 11
6.7659039 0.55174792 2.08952 15
6.8879495 4.9210873 2.0316069 13.333333
6.9257889 6.7329211 1.9355826 12
6.9886966 7.6406684 2.0979254 12
6.838244 8.057106 2.1726241 12
7.0218315 8.7597332 1.971761 11
6.800611 8.8801556 1.9260577 11
6.790956 4.8840313 2.3790588 14
7.5021424 1.9159782 -0.065118223 6
7.3549004 7.7085662 0.39105663 8
7.3015518 7.6002698 0.68453056 8
7.3541794 8.5393419 0.84815592 8.5
7.4810753 1.8587277 1.1990287 11
7.4494452 2.0207524 1.2318568 11
7.2237196 7.4323621 1.223931 10
7.4155807 8.5125656 1.3063847 10
7.4321256 7.6450648 1.8044631 11
7.4085507 8.5188942 1.6092145 11
7.3040977 7.4450707 2.0804858 12
7.2444921 7.9766493 2.1634026 12
7.3668718 8.5475073 1.947127 11
7.446445 6.2366219 3.0590842 15
7.2488685 6.5198956 3.1139045 15
7.6666527 8.2746248 0.81363195 8.5
7.6811743 8.3424015 1.0311177 9
7.5738187 7.9466586 1.5460814 10
7.6417642 8.3915024 1.6007553 10
7.8802857 4.1030216 2.1035767 13
7.7248874 8.3442049 1.9239031 11
7.7618032 2.3880742 2.4721522 15
7.8000507 5.9594717 3.1410713 15
7.6646957 6.2385793 3.1021588 15
7.6036868 6.8067713 3.1520345 15
8.3681545 3.4828298 0.3125056 7
8.3481703 3.5344024 0.91358995 9
8.3704529 3.5083592 1.2273259 10
8.330574 3.5906851 1.3292193 11
8.3552532 3.5556734 1.5116892 11
8.3282623 3.704304 1.8384103 12
8.0713081 3.9812579 2.1051757 13
8.3315554 5.2950244 2.0828922 12
8.1796703 3.4245286 2.5292695 14
8.2192869 5.4427514 3.1362705 15
8.2592506 5.797451 3.1357112 15
8.0071259 6.0390544 3.13816 15
8.4676743 4.4918571 -0.06411799 6
8.7819939 4.3610559 0.372455 8
8.7411652 4.1632113 0.80267406 9
8.5326767 4.6034942 0.62060654 8
8.596571 4.6999989 1.1739712 9.5
8.4182758 3.4929345 2.0594132 13
8.5725861 5.1804681 2.0843332 12
8.6458998 5.8703022 2.1168377 12
8.366847 3.3993473 2.3023999 14
8.6310472 4.2427001 2.5058465 14
8.6674185 4.3536353 2.8136361 15
8.5502272 4.6317406 2.8389804 14.666667
8.6350842 5.3896275 3.0420446 15
8.9788208 4.6981611 0.052159101 7
8.8676434 4.4532919 0.50114173 8
8.9529743 4.6297064 0.78362936 8.5
8.9711208 4.816361 0.85641432 9
8.8446522 4.2534914 1.6526985 11
9.0314035 4.6011639 1.7199667 11
9.027153 5.3470888 3.0970666 15
8.9276304 5.6733704 3.122004 15
9.4770432 6.760025 0.42231804 7.5
9.515317 6.8546782 0.8415001 8
9.1749535 5.9850092 3.1039293 14
9.9106207 6.4356012 0.49527201 8
9.8053865 6.6199408 0.75212491 8
9.8365936 6.6037731 1.1520587 9
9.7948074 6.6195583 1.4686118 10
10.229134 6.3145323 0.47104165 8
10.235408 6.4229035 1.4961888 10
