# .PCD v0.7 - Point Cloud Data file format
VERSION 0.7
FIELDS x y z intensity
SIZE 4 4 4 4
TYPE F F F F
COUNT 1 1 1 1
WIDTH 664
HEIGHT 1
VIEWPOINT 0 0 0 1 0 0 0
POINTS 664
DATA ascii
-9.735817 -4.5840278 0.24911962 8
-9.797924 -1.9600461 0.16463163 8
-9.7983227 -4.5484443 0.63062239 9
-9.2138567 -3.7183938 0.69696975 9
-9.2739468 -2.0600135 2.4390237 14
-8.8838444 -3.9340336 0.28016007 8
-9.0538492 -3.8890121 0.60840917 9
-8.1428242 -4.9353652 1.9271382 13
-8.0898628 -4.0862131 2.4112735 14
-8.1798973 -3.2321041 2.4115205 15
-8.180419 -2.700377 2.4081502 15
-8.2279348 -2.301111 2.4215426 15
-8.2369556 -1.8005098 2.4340603 15
-7.7498407 -4.4416475 1.8506947 13
-7.2128892 -2.8215187 0.30150515 8
-7.4059 -2.8694046 1.3835529 12
-7.4475784 -2.6327312 1.5007273 12.333333
-7.4139376 -1.9498165 1.4088192 12
-7.33283 -4.6976757 1.7855797 13
-7.4378586 -3.9996772 1.6269968 13
-7.4019046 -2.8910813 1.7888725 13
-7.432085 -2.533587 1.7421658 13.333333
-7.4470587 -2.1795111 1.7589651 13.5
-7.4584475 -1.8154624 1.827413 14
-7.2908273 -4.9154363 2.2800679 14
-7.4185061 -4.6152201 2.2071486 14
-7.4783568 -4.1709967 2.1623375 14
-7.3924141 -2.6893141 2.0075994 14
-7.3919306 -2.2956614 2.0132649 14
-7.4079494 -1.8233206 2.0304327 15
-7.4589648 -1.4599053 2.0571291 15
-7.2488298 -4.8877358 2.4596758 15
-6.9338794 -2.9842911 0.14791679 7.5
-6.8618984 -2.6266408 0.47307032 9
-6.8868237 -4.9946465 2.2020266 14
-6.60882 -4.9796553 1.9107285 14
-6.5578232 -4.9876051 2.1353924 14
-6.7908263 -4.9577131 2.4220307 15
-6.0208945 -2.7033117 0.29058522 8
-6.0099201 -2.1347783 0.47900009 9
-6.3068166 -4.9801188 1.6306609 13
-6.235323 -4.9779501 2.1849067 14.5
-5.9668875 -2.8016872 0.087347426 7
-5.7379246 -2.0961909 0.73546553 10
-5.6199245 -2.1321063 0.97488862 12
-5.8273168 -4.9613132 1.5583956 13
-5.6808219 -4.9719429 1.9640412 14
-5.8273239 -4.9401345 2.0635636 14.5
-5.4369116 -2.3352051 0.56261188 10
-5.3998165 -4.9568515 1.4964873 13
-5.4148211 -4.962729 1.9127774 14
-5.2783256 -4.9009748 2.1357751 15
-4.8739352 -1.7662035 0.59697855 10
-4.8964553 -1.3099108 0.68876183 11
-5.0048165 -4.9482064 1.4416302 13
-4.9318204 -4.9551535 1.8250566 14
-5.0808272 -4.8981786 2.1210048 15
-4.7104445 -1.5036705 0.37027758 9
-4.6099472 -1.5109085 0.74359626 11
-4.6892257 5.2130485 1.164556 12
-4.5001507 -4.9383402 1.437955 13.333333
-4.4968195 -4.9532266 1.7507558 14
-4.6388245 -4.8884211 2.0360644 15
-4.3642206 5.1359458 1.0300274 11.333333
-4.2362256 5.2159252 1.1659131 12
-4.3082299 5.2400289 1.3753041 13
-4.1768193 -4.9308825 1.6950322 14
-3.6289575 -1.3560433 1.0634422 15
-3.7973189 -4.9252334 1.6357847 14
-3.2834673 -0.91571867 0.33340624 9.5
-3.3508844 -3.0111859 0.58939588 11
-3.3076143 -1.5198522 0.75696379 13
-3.3754663 -1.0034927 0.62902403 12
-3.4339044 -1.4623309 0.95431578 14.285714
-2.9714653 -0.94017196 0.28362301 10
-2.9691503 3.6001487 0.36574078 9
-2.9956534 3.6384757 0.4655464 10
-3.1469455 -1.6036193 0.94495559 15
-2.895987 -0.55861568 0.8574264 15
-2.946821 -4.8706398 1.6176959 15
-2.7219629 -0.97732496 0.24829797 9.5
-2.7769742 -0.72323537 0.30978215 10
-2.7111418 3.3829942 0.37078294 9
-2.7121515 3.6632421 0.26859692 9
-2.6348083 -4.897428 0.56189853 10
-2.520457 -1.2675078 0.74097931 14.5
-2.7422192 -0.89230752 0.47775042 11.5
-2.7749786 -0.71729988 0.66152215 13.5
-2.5351541 3.6880982 0.43006814 10
-2.56581 -4.9194751 0.85335577 11
-2.4349532 -1.3878253 0.81787944 15
-2.6199863 -4.8798323 1.5151516 14.5
-2.034097 2.2821288 0.35387999 10
-2.1681445 3.460294 0.31463641 9
-2.2261546 3.7224076 0.32106009 9
-2.1957049 4.9378781 0.37344256 9
-2.023922 -2.1234479 0.70803005 14
-2.0334294 -1.9455489 0.7153793 14
-2.1969919 -1.425025 0.75648636 15
-2.1569631 -1.0459385 0.45520088 12
-2.0775998 2.318629 0.50433111 11.5
-2.288151 3.5986404 0.41189662 10
-2.285656 3.7099757 0.45755309 10
-2.1891232 4.9368987 0.5019998 10
-2.1974852 -4.8773704 1.3933818 14.4
-1.6748018 -4.8818073 -0.01839827 7
-1.6661373 -4.8563123 0.10151616 8
-1.9228156 -4.5325737 0.00054346042 7
-1.8768531 -3.671984 0.20604381 8.333333
-1.6478671 -3.3363419 0.20421234 9
-1.6692159 -2.9632394 0.26195869 9
-1.7319372 -1.6373527 0.30633423 11
-1.9286095 2.599741 0.34282288 10
-1.9852049 4.936666 0.39193168 9
-1.9448627 -3.598701 0.7426753 12
-1.9679385 -1.7195656 0.71241105 15
-1.9669449 -1.5631912 0.71867591 15
-1.8339663 -1.0129991 0.62486637 15
-1.8795937 2.5584755 0.51967174 11.8
-1.7796285 2.9948864 0.56170124 12
-1.8782057 4.9193759 0.49359369 10
-1.8173709 -3.4579692 0.95807236 14
-1.7921528 -4.8559146 1.4375037 15
-1.4128023 -4.8745723 -0.0114807 7
-1.3655039 -4.8595734 0.11724098 7.5999999
-1.3045081 -2.9568911 0.27086848 9.5
-1.3362689 -1.6805615 0.3209359 11.333333
-1.3870662 -1.5442312 0.30824801 11
-1.3767675 -4.8605824 0.56131345 10.25
-1.3314091 -2.9782846 0.53472859 11.571428
-1.3862371 -2.5386899 0.60782665 13
-1.3849126 -2.3331187 0.60519475 13
-1.2154394 -1.6299336 0.49558672 14
-1.2990774 -1.5179278 0.53175461 14.4
-1.3643156 -4.8696961 1.1217526 13
-1.4225526 -4.8460636 1.3626137 14.6
-1.1598023 -4.8694439 -0.0038098365 7
-1.0048047 -4.8515062 0.16908193 8
-0.99786681 -3.3714662 0.27854645 9
-1.10013 -3.0250232 0.23923619 9.25
-1.1067915 -1.8026488 0.29712319 11
-1.1736068 -1.5576386 0.27750662 11.5
-1.0444348 -4.8540888 0.57196134 10.25
-1.0209965 -3.319972 0.53228539 11.25
-1.0653532 -2.9565976 0.57853448 12.2
-1.1402837 -1.7774748 0.50004023 13.6
-1.1748152 -4.8677812 1.1184595 13
-1.0788827 -3.1486926 0.87852913 14
-1.0305965 -4.8439837 1.3235064 14.666667
-0.65880483 -4.8520932 0.14483953 8
-0.60031533 -4.5709062 0.072480768 7.5
-0.44882879 -4.2289691 0.064357139 7
-0.42215666 -2.3614216 0.21374795 9.5
-0.55170459 -1.210322 0.038442578 8
-0.46147513 -0.97378367 0.028969269 8
-0.54792446 -0.49153739 0.018045142 7.75
-0.54785681 -0.25901258 0.011346444 7.5
-0.65447652 -4.8472733 0.57265979 10.333333
-0.44783518 -4.2260909 0.55422443 11
-0.46728617 -2.3381734 0.55032611 13.5
-0.7222206 5.1994472 0.85271156 12
-0.70981985 -4.8379307 1.3889816 15
-0.1128185 -4.4640951 -0.02795173 7
-0.2708194 -4.4599271 0.033488028 7
-0.36549589 -4.2527494 0.1474417 8
-0.14020468 -3.3072877 0.059433453 8
-0.12631124 -2.6524253 0.23120573 9.5
-0.32590613 -2.3783004 0.20340361 9
-0.078827843 -1.3938481 0.058701731 8.5
-0.23676661 -0.91778386 0.013702194 7
-0.19517857 -0.59953594 0.01603171 7.6666665
-0.36896169 -0.34228659 0.020602217 8
-0.35083479 -4.2269282 0.53196472 11
-0.086107537 -2.618355 0.49337825 12.5
-0.3549192 -2.1495688 0.56186306 14
-0.18267217 -1.8110435 0.50185782 14.6
-0.12808558 1.9855943 0.45814389 14
-0.12944107 2.5023873 0.53825271 13
-0.15517974 4.2592325 0.61444777 11
-0.11171149 5.039628 0.6121031 10.5
-0.12689133 -2.9188418 0.84380132 15
-0.1461702 3.9479668 0.85692948 13
-0.15718672 4.282907 1.0947356 14
-0.089091226 5.0584736 0.95180207 12.5
-0.049834296 -4.461164 1.3135467 15
-0.11322 5.048275 1.3325692 14.333333
0.25556418 -0.52129036 -0.016811211 6.4000001
0.37284666 -0.36162227 -0.021271864 6
0.37017807 -4.4075851 0.084122293 8
0.26323882 -2.9781742 0.18118922 9
0.20403931 -2.5683939 0.24463481 9.75
0.25230452 -1.3687673 0.07983204 9
0.073890083 -1.0219202 0.13797307 10.2
0.12339445 -0.5818311 0.0063693249 7
0.16817474 -4.4333129 0.47283652 10
0.2783829 -3.4350567 0.54636842 11.5
0.24211681 -3.0094013 0.48145708 11.4
0.16810159 -2.6465156 0.52757418 13
0.23098275 5.1722989 0.62627292 10.4
0.18602887 5.1661377 0.9851827 12.5
0.19460739 5.1761117 1.382442 14.5
0.60419726 -4.8438897 -0.048057202 7
0.57518166 -4.472693 -0.014882422 7
0.62937158 -0.017198598 -0.043200672 5
0.58208609 0.20134476 -0.051420119 4.5
0.56675839 0.55500454 -0.026057804 6.1999998
0.66121173 0.91858536 -0.031385131 6
0.62821519 1.3776764 -0.040899906 6.1999998
0.59723282 1.7804922 -0.056150313 6
0.55401957 2.1422548 -0.070717223 6
0.59420854 2.6332126 -0.088638648 6
0.6606949 -4.8256416 0.097172022 7.5
0.59568381 -4.5613456 0.10637698 8
0.67964119 -3.5413086 0.22584654 9
0.49861008 -2.7934103 0.27573594 10
0.75709289 -2.3780992 0.31070656 11
0.7363869 1.0539039 0.0046499115 7
0.74732095 1.9180285 0.091821119 8.5
0.75130278 2.0694494 0.20501195 9.666667
0.5981341 -3.458931 0.54399544 11.5
0.59311545 -2.9836125 0.50410956 12
0.65391403 -2.1395452 0.53756148 13.5
0.69007391 -1.9747914 0.54743898 14
0.7800504 -1.372672 0.45107704 15
0.5751577 5.1806726 0.60490292 10.166667
0.60948735 5.1780996 0.93450302 12
0.5902319 5.184958 1.3937933 14.5
1.0131969 -4.8383808 -0.068542324 7
1.0070035 0.17457782 -0.029027371 6
1.0184752 0.6925838 -0.036545902 6
0.99974835 0.99303192 -0.026233168 6.4000001
1.0394593 1.3598475 -0.044658612 6
1.0317461 1.876018 -0.065657422 6
0.96736598 2.1047106 -0.073326766 6
1.1351947 -4.8319349 0.12864813 8
0.85068536 -4.6039491 0.14027232 8
0.9301396 -3.5098703 0.23668972 9
0.88208908 -2.2739897 0.29102895 10
0.96337295 -1.0744308 0.33951211 13.6
0.96423417 1.1542653 0.13006352 9.4285717
1.1269976 1.2148051 0.16839693 9.75
0.92367524 1.7399253 0.19850989 9.75
1.0281904 -4.8333392 0.51198602 10
0.85963684 -3.5039752 0.48014569 11
0.94983226 -2.1788678 0.53173083 13.25
0.81805927 -1.6076151 0.50332779 15
0.99371469 -1.3177859 0.46653789 14.666667
0.94304067 -1.1251411 0.43929225 15
1.1729531 1.0253745 0.46122566 15
1.0362154 1.8066082 0.51514632 13.875
1.0182607 2.2135563 0.54952693 13.142858
1.1548814 2.7594967 0.57690132 12.5
1.1115402 2.9482818 0.59605521 12.333333
1.1142551 3.3838754 0.65717334 12.2
1.1147137 3.7984035 0.62650132 11.5
1.1103231 4.1892805 0.5894019 10.5
1.1108049 4.6360149 0.60314649 10.666667
0.97206002 5.1800151 0.64459443 10.333333
0.97793305 -4.8331199 1.1324742 13.5
0.90211302 -3.0456629 0.93528414 15
0.98577785 5.186564 1.0005354 12.5
1.0026809 -4.8281207 1.3179566 14.6
0.99177319 5.1912661 1.3966132 14.5
1.4022503 0.31221369 -0.040221155 6
1.3574991 0.60023463 -0.038300108 6
1.3529414 0.98765063 -0.033461623 6.25
1.2477174 1.3300651 -0.032638464 7
1.4353665 1.6311175 -0.0011434121 7
1.3959037 -4.8378758 0.085419551 7.5
1.389636 -3.4096675 0.21402517 8.5
1.3834554 -3.0677614 0.2332601 9
1.390205 -2.6501179 0.24044178 9.3999996
1.5099697 -1.388308 0.30847624 11.5
1.5005442 -1.1828773 0.33496737 12
1.4403647 1.0146762 0.12852119 8.833333
1.4043032 1.2591265 0.13385773 9
1.4206134 1.7098777 0.23522027 9.8571424
1.3376917 -4.837173 0.44781771 10
1.4776313 -3.3657382 0.47415522 10.5
1.4521191 -3.0495393 0.42465165 11
1.4410751 -2.0621939 0.75673604 15
1.4234463 -1.2771972 0.5115456 14.5
1.4487091 -1.17156 0.47289705 14
1.3587213 1.084174 0.52173251 15
1.4227968 1.3890059 0.5352093 14.5
1.3028537 1.6976099 0.55986828 14.25
1.2293942 2.3874419 0.78057724 15
1.2453793 2.7660875 0.74363983 14
1.478183 -4.8234572 1.1318798 13
1.4388434 3.5783556 0.97403568 14
1.3453344 3.8101592 0.9561559 13.5
1.2078273 4.014864 0.85392517 13
1.3195271 5.1970468 1.0299623 12.5
1.3237777 5.2019587 0.98296255 12.5
1.4060552 -4.8117552 1.3240372 14.5
1.379173 5.1942821 1.410015 14.4
1.4865232 5.204638 1.3617582 14.5
1.8119625 0.58495182 -0.043430641 6
1.8256776 0.96318829 -0.033381052 6.3333335
1.8673614 -4.8190732 0.086976349 7.5
1.7641119 -2.831974 0.28553158 9.333333
1.6546059 -2.688488 0.2622067 9.5
1.8945686 -1.768411 0.28350499 10
1.7510521 -1.3639736 0.29063767 11
1.7588499 1.0076762 0.24347441 10.333333
1.682189 1.4045523 0.3639715 11.5
1.6739278 1.6720015 0.35856587 11
1.7991911 -4.8269529 0.44049156 9.5
1.8261067 -2.7475514 0.42631742 11
1.8760755 -2.0030975 0.50903207 12
1.6530679 -1.8120295 0.49480131 13
1.6854661 0.99336278 0.49000862 14
1.6753577 1.3835825 0.43730512 12.8
1.6727612 1.6510667 0.44308415 12.5
1.6178218 4.058702 1.1754882 15
1.6541798 -4.8152251 1.3685683 15
1.6293128 4.2571073 1.2633719 15
1.6289216 4.6410499 1.3140736 14.5
1.6274447 5.0683479 1.3922462 14.333333
2.0272915 0.45609462 -0.046450686 6
2.2748823 1.0516782 -0.090604007 6
2.1240904 -2.3055544 0.2942819 10
2.5338359 1.0284677 -0.074704707 6
2.7361639 -4.1056032 0.25082073 8.333333
2.7980621 -1.7366379 0.76376826 14
2.7871766 -4.7967062 1.5662143 15
2.8940852 0.69307429 -0.1086496 6
2.980166 -4.1402316 0.21508665 8
2.9480891 -2.2429643 0.19733295 8.5
2.9190726 -1.8555462 0.24077342 9
2.9820547 -1.3663019 0.12752748 8
2.8961315 -3.3689439 0.45111519 10
2.9530976 -2.6191058 0.7731958 12.5
2.8384075 -2.0497537 0.77100378 13
2.8835106 -1.8138098 0.66314024 12.666667
2.9721084 -2.8940544 0.81055021 13
2.947598 -2.6426806 0.81416821 13
2.9549072 -2.0868196 0.95035702 14.333333
2.9380665 -1.8698665 0.81619734 14
2.9896739 -4.7289367 1.5889922 15
2.9781628 -4.3708358 1.2922268 14
2.8708069 -3.8412714 1.3248554 14.666667
2.861177 -4.8130102 1.6095749 15
3.5011196 0.4760572 -0.13988608 6
3.9561937 -4.8198156 0.17948326 8
4.2235346 1.0569793 -0.19227026 6
4.6251917 -4.8276911 0.38703746 9
4.7901897 -4.7888112 0.39877746 9
4.6261902 -4.8264813 0.49395117 9
4.6861863 -4.7978377 0.6907962 10
4.6481767 -4.8019538 1.5686158 14
4.9931884 -4.7466602 0.3917743 9
5.1371865 -4.8124514 0.72026169 10
4.9616752 -4.7972021 1.6170347 14
5.20719 -4.7857103 0.42332801 9
5.9126892 -4.757247 0.28776515 8
5.6931906 -4.8070326 0.4499703 9
5.8101869 -4.7895536 0.66007447 9.5
5.6771832 -4.7911248 0.96961129 11
5.7681766 -4.7863688 1.5483432 13
5.7801743 -4.7951427 1.7547773 14
5.9281664 -4.7370377 2.2502973 15
6.2381048 -2.5057466 -0.19920483 6
6.1940951 -2.319653 -0.025931576 7
6.2200971 -2.4411206 0.20040524 8
6.3255906 -2.3144248 0.26906663 8
6.3900952 -2.5175295 0.62531501 10
6.384089 -2.3438313 0.56517613 9.5
6.0151777 -4.705338 1.1270152 11
6.2501588 -4.5423007 2.2475927 15
6.6991878 -4.5814686 -0.14227961 7
6.4974403 -2.5923326 -0.099182419 6.6666665
6.6005921 -2.2191548 -0.18680501 6
6.6150813 -1.9665021 -0.16036943 6
6.4421911 -4.7016253 0.010432788 7
6.5456085 -2.7506959 0.28697026 8.5
6.5582523 -2.136548 0.11240203 7.5
6.5265746 -1.8882214 0.14268036 7.5
6.5636835 -4.6868577 0.55209678 9
6.5751081 -2.8465929 0.68132645 10
6.5978522 -2.6746199 0.53108323 9.5
6.567081 -2.1456251 0.54618508 9.5
6.6285696 -1.8803815 0.57472658 9.5
6.5946789 -4.6859312 0.94956619 10.5
6.5575957 -2.6028645 0.89453655 11
6.5537024 -2.1756079 1.0120289 11.5
6.5823154 -1.9043458 1.0177935 11.5
6.6060905 -2.609334 1.3366414 12.4
6.6065717 -2.1535163 1.3989563 12.75
6.6830602 -1.8722346 1.4051743 12.5
6.4741693 -4.681119 1.8702625 14
6.583086 -2.6376555 1.8200272 14
6.5780697 -2.2122865 1.7376562 14
6.661057 -1.8877826 1.7513018 14
6.5596123 -3.4075413 2.2343428 15
6.5820813 -2.5856671 2.0091109 15
6.5850687 -2.2546387 2.0037 15
6.7988782 2.3934023 2.1824088 15
7.0066934 -4.7634549 0.0054992861 7
7.0305743 -1.8706648 0.13926084 7.5
7.002686 -4.7329588 0.57121819 9
6.8910704 -1.866217 0.47823 9
7.0266819 -4.7702112 0.98876148 10.5
7.0205617 -1.8236188 1.0731082 11.5
6.8881707 -4.7586336 1.9535851 14
6.9900546 -1.8764454 1.9163481 14
7.158052 -1.8703363 2.1497593 15
7.1559324 1.0530736 2.1799414 15
7.1538954 1.964853 2.1780779 15
7.017889 2.1083407 2.1742265 15
7.0158749 2.4429376 2.2478106 15
7.0883369 3.3777776 2.2426851 15
7.3450766 -1.8315064 -0.18538401 6
7.3171892 -4.6979194 0.15542494 7.5
7.3471828 -4.65451 0.53887933 9
7.3950682 -1.8591638 0.61203998 9.5
7.2360644 -1.8809178 1.0012335 11
7.2551761 -4.7079568 1.2828304 11
7.4480581 -1.830002 1.397681 12.5
7.2811184 -3.5448291 2.2036924 15
7.4670486 -1.810262 2.1277952 14.5
7.3257799 -1.3659278 2.2017677 15
7.2680144 -0.98548859 2.2000473 15
7.2150049 -0.73693264 2.1977859 15
7.5359654 0.239527 2.1775355 15
7.3872848 0.56912923 2.1783309 15
7.2419386 0.89580494 2.1811233 15
7.4989138 1.5029433 2.1747603 15
7.3209047 1.7350701 2.1750495 15
7.4485536 3.1091566 2.1939464 14.666667
7.7590728 -1.8273124 0.13290977 7.5
7.9788566 3.4564247 0.30013636 8
7.9575663 -1.8098741 0.64618987 9.5
7.8590636 -1.863614 1.0667806 11
7.9210577 -1.8525898 1.5183479 12
7.6420531 -1.7884723 1.7466633 13
7.8344975 -0.56066239 2.181273 15
7.707983 -0.19576406 2.1789379 15
7.6079721 0.067125916 2.1789074 15
7.9869499 0.6377399 2.1580689 15
7.7139273 1.1711349 2.1700068 15
7.7419176 1.3932437 2.2033355 15
7.6359024 1.7529179 2.2401564 15
7.6258559 2.9112873 2.2398238 15
7.91782 3.793978 2.2203536 14
8.0160761 -1.8132702 -0.21944137 6
8.3340721 -1.8592838 0.26251826 8
8.1340694 -1.8463742 0.52293521 9
8.0505533 -1.8284681 1.8153725 13.5
8.1340446 -1.7234528 2.1891322 14
8.017024 -1.221694 2.1836588 15
8.1899843 -0.24841674 2.2315156 15
8.2854681 0.17383491 2.1671014 14
8.2414503 0.62464243 2.1957741 14
8.1959362 0.95777756 2.2188196 15
8.2248802 2.3114572 2.2359941 14
8.2508335 3.4810028 2.2098136 14
8.0928288 3.6452539 2.2175307 14
8.5460758 -1.8593566 -0.012466516 7
8.7423658 3.3846872 -0.21565562 6
8.7078514 3.7265956 -0.18601243 6
8.7476091 3.4361055 0.18072525 7.5
8.719347 3.7080901 0.26400855 7.5
8.7621632 4.1408648 0.25710049 7.6666665
8.7558584 3.3729038 0.42504135 8
8.7658262 4.1399245 0.42083207 8
8.6870651 -1.8555104 0.98315459 10.5
8.7400541 -1.8153812 1.7237849 12.5
8.7830238 -1.2017157 2.2354274 14
8.7480145 -0.95806247 2.1610606 14
8.5553331 -0.62877911 2.1839762 14
8.4544849 -0.22302878 2.1630645 14
8.6289015 1.7993554 2.2229314 14
8.6248474 3.1699302 2.2085681 14
8.4348392 3.3280685 2.2084973 14
8.6957998 4.3235164 2.1059277 13
9.1011953 -4.7049432 -0.32032523 6
8.8780775 -1.8037573 -0.26462176 6
8.9508772 3.1098316 -0.25836471 6
9.0861883 -4.6551285 0.18124485 7.5
8.9217749 3.0259933 0.18549065 7.5999999
8.9024591 4.774013 0.060700379 7
9.1211805 -4.6376319 0.66683173 9
8.9530687 -1.8427433 0.55158126 9
8.9538651 3.198535 0.54301715 9
8.985858 3.3398664 0.64063835 9
8.9216375 4.824863 0.42000014 8
9.097064 -1.8608726 0.9442355 10
8.9262142 4.8911281 0.99043703 9.5
9.1380577 -1.844879 1.4548222 11
8.906146 4.9441805 1.5653495 11
8.9420395 -1.6189284 2.1871362 14
8.8930321 -1.4009976 2.1590226 14
8.8310223 -1.1777235 2.1617701 14
8.8569708 0.059923641 2.2223661 14
9.1629324 1.0559994 2.206496 14
8.9599199 1.3429097 2.2118797 14
9.0592575 2.5515501 2.1285999 13.5
8.900856 2.9167788 2.2072556 14
9.192831 3.5979054 2.101032 13
9.0008183 3.8683572 2.1009059 13
8.8238068 4.145401 2.1045961 13
9.4831867 -4.593812 -0.097416125 7
9.5230761 -1.8596619 -0.03465613 7
9.4612026 -5.1098328 0.32283241 8
9.4401855 -4.6403751 0.34720683 8
9.3595695 -1.8067008 0.26534018 8
9.4401989 -5.0690403 0.66114855 9
9.40518 -4.5728264 0.63486159 9
9.5658655 3.1721983 0.5277586 9
9.5568323 3.9381068 0.6956538 9
9.5458231 4.1697803 0.6329366 9
9.427804 4.6420784 0.68384129 9
9.565176 -4.5768714 0.91489214 10
9.5368547 3.2887113 1.0149599 9.5
9.546834 3.8089037 1.0613161 10
9.4771881 -5.0425653 1.3855275 11
9.4381771 -4.7515745 1.3863679 11
9.525856 3.1121595 1.5519361 11
9.5343475 3.3480303 1.4418813 11
9.4675331 3.8348081 1.4255557 10.75
9.5443134 4.2034144 1.406526 10.5
9.4167957 4.653203 1.3016152 11
9.4801855 -5.0618048 1.6954529 12
9.5301666 -4.6312146 1.908532 12
9.2231627 -4.622026 2.1413038 13
9.3041372 -0.92731488 2.1549797 13.5
9.4599485 0.65810591 2.2068682 14
9.3029385 0.85878092 2.2048759 14
9.5478821 2.2780094 2.2047741 13
9.5528526 3.0301945 2.0980513 13
9.3618412 3.3123631 2.0968199 13
9.4648027 4.2761121 2.0649633 13
9.7962952 1.4282556 -0.61184138 5
9.8390732 -1.7567387 -0.11961056 6.6666665
9.9830608 -1.4643362 -0.0051157437 7
9.7564993 1.4251416 -0.20506319 6
9.9889097 2.2852404 -0.068706632 7
9.7036734 2.5427823 -0.16943046 6.5
9.9808779 3.013618 -0.0030396075 7
9.9950695 -1.784601 0.27858526 8
9.9913874 -1.3615061 0.21410401 7.6666665
9.9897032 -0.97013515 0.25122246 7.6666665
9.9835253 -0.63315088 0.085034758 7
9.9840117 -0.28320339 0.12320188 7
9.9859905 0.19307041 0.17458673 8
9.9909821 0.42971826 0.20009965 8
9.8384218 1.8931208 0.22194134 7.5
9.9714108 2.1873825 0.17482987 7.5
9.9695625 2.5519161 0.15885374 7.3333335
9.8428793 2.9137406 0.21960418 7.5
9.9195662 -1.792469 0.59441417 9
9.9960394 -1.1546494 0.64261538 9
9.9920177 -0.59467334 0.68898422 9
9.9900064 -0.27176544 0.51841325 8.333333
9.9884844 0.2434174 0.61326855 8.5
9.9919729 0.52899605 0.496113 8
9.7309141 1.9114256 0.70913547 9
9.9849024 2.2637038 0.57769698 8.666667
9.8776865 2.6123111 0.61858916 8.6000004
9.97787 3.0567746 0.5078004 8
9.6388111 4.4745417 0.66162694 9
9.6700659 -1.8507235 0.87697065 10
9.722909 1.9716388 0.97827905 10
9.7854023 2.1469853 0.93999517 10
9.9738865 2.5398703 0.98132628 10
9.8661194 2.9735813 0.98678499 9.5
9.7518578 3.2065744 1.128193 10
9.6263065 4.5075545 0.92245448 9.5
9.6381588 -4.3295727 1.4201303 11
9.6740599 -1.86619 1.2558438 11
9.9489021 1.9965688 1.4315243 11
9.9968948 2.2030933 1.3894454 11
9.8235455 2.5847063 1.4517424 11
9.9793587 3.0609324 1.5049688 11
9.6348038 4.4818501 1.2859918 10
9.643178 -4.917201 1.774332 12
9.6130552 -1.8507637 1.7794554 12
9.8512878 1.4536501 1.8264322 12
9.9628029 4.3302751 1.7663028 12
9.6067982 4.5276909 1.6158513 11
9.8325481 -1.7265339 2.1066818 13
9.6540327 -1.4243441 2.2025459 13
9.6399546 0.44901043 2.2118742 14
9.8198681 2.6468327 2.1031978 13
9.6718607 2.8348413 2.0976636 13
10.104064 -1.4329367 -0.45761001 6
10.124045 -0.96671003 -0.40642929 6
10.076067 -1.6207317 -0.0028209011 7
10.063562 -1.4524339 -0.29175159 6
10.052543 -0.97145349 -0.24181384 6
10.079278 -0.58384717 -0.32173762 6
10.060261 -0.19658066 -0.24432084 6.5
10.04366 0.22753634 -0.18084291 6.6666665
10.046314 0.54854506 -0.18947665 6.3333335
10.041837 0.99398357 -0.15037151 6.5
10.035946 1.3459601 -0.10188733 7
10.015927 1.8132142 -0.11353566 7
10.069055 -1.4088724 0.31180352 8
10.067539 -1.0529666 0.20866778 7.5
10.061026 -0.72991133 0.39467868 8
10.04199 0.19717486 0.11968364 7.5
10.043967 0.78044367 0.13159306 7
10.037955 1.0391954 0.29121646 8
10.032942 1.3792974 0.17157006 7.6666665
10.02643 1.6523573 0.28910351 8
10.00106 -1.6157209 0.60716498 9
10.040547 -1.3414048 0.6377238 9
10.000031 -0.92721134 0.66097432 9
10.053015 -0.58461994 0.71839964 9
10.052502 -0.19842616 0.60632533 8.5
10.026967 0.59528041 0.77757227 9
10.040956 0.94420356 0.5471856 8.666667
10.040933 1.448597 0.61874843 9
10.037919 1.8350922 0.52366567 9
10.015058 -1.6963948 0.90867591 10
10.015379 -1.429583 0.96804303 10
10.006362 -0.97608304 1.0022447 10
10.004014 -0.59724253 0.98178232 10
10.005499 -0.27061877 1.0045465 10
10.02598 0.20897003 0.91984969 9.5
10.04563 0.62951738 1.0296504 9.666667
10.038451 0.95244145 0.8770439 10
10.037185 1.3236071 0.96687233 9.75
10.038414 1.8134141 0.99999613 10
10.029054 -1.70075 1.3039974 11
10.026041 -1.4240788 1.4152515 11
10.05002 -0.91768706 1.408994 11
10.02001 -0.65104812 1.3862499 11
10.037993 -0.25775364 1.3712236 11
10.026729 0.1697951 1.3658674 10.75
10.041456 0.66515058 1.4553103 11
10.030693 0.98099858 1.5173168 11
10.030925 1.4352646 1.4567622 11
10.01891 1.8424476 1.343945 11
10.065547 -1.6902136 1.843136 12
10.034535 -1.3813422 1.8627521 12
10.038686 -1.0068229 1.7945964 12
10.046498 -0.51146781 1.9077096 12
10.041486 -0.16661869 1.8148237 12.25
10.046638 0.16925097 1.8340023 12.666667
10.032621 0.59338933 1.8193376 12.333333
10.034607 0.96526349 1.8510833 12.333333
10.03692 1.4544975 1.8214369 12
10.024906 1.796604 1.8536224 12
10.03089 2.1482806 1.8899837 12
10.028124 2.5965211 1.9483124 12
10.039856 2.9846871 1.9827782 12
10.044827 3.7757115 1.8797317 12
10.039308 4.1770806 1.9341716 12
10.045791 4.5919905 1.9932657 12
10.099037 -1.4790033 2.0796211 13
10.090517 -1.0169636 2.12375 13
10.079998 -0.55788493 2.17155 13
10.053433 1.0304459 2.0553555 13
10.046168 1.4152492 2.0654938 13
10.018902 1.8390346 2.1407666 13
10.030391 2.1242783 2.0890417 13
10.000876 2.4600933 2.1149282 13
10.02985 3.1120474 2.0625982 13
10.03517 3.4369035 2.0638297 12.333333
10.013815 3.9882617 2.0967367 13
10.006783 4.7971067 2.0129621 12
10.039779 4.8722367 2.0331006 12
