# .PCD v0.7 - Point Cloud Data file format
VERSION 0.7
FIELDS x y z intensity
SIZE 4 4 4 4
TYPE F F F F
COUNT 1 1 1 1
WIDTH 92
HEIGHT 1
VIEWPOINT 0 0 0 1 0 0 0
POINTS 92
DATA ascii
-1.4815005 6.9689002 0.34908468 9
-0.97844595 -1.3580068 0.35922918 13
-0.98459303 -1.130264 0.38311082 14
-0.97470891 -0.71058029 0.33661255 15
-0.87446284 1.6862603 0.3177402 13
-0.9471913 -1.3736795 0.51742446 15
-0.89532107 1.2154312 0.36295566 15
-0.87686169 1.6409234 0.38957185 14
-0.82566452 2.0670474 0.48121756 14
-0.68879288 16.160034 1.7796531 11
-0.21387357 -1.4163146 0.35460135 13
0.36617833 -1.7276555 0.15005746 9
0.32969096 -1.7352655 0.29123488 11
0.56733304 -1.7121038 0.20775366 10
0.57092321 -1.4385084 0.27020073 11
0.68843371 -1.4499317 0.29648396 12
0.88195425 -1.454151 0.2973254 11.5
1.1851059 -1.4703419 0.42073402 13
1.2923652 -1.6924471 0.1760852 9
1.3028073 -1.4790056 0.59102881 15
1.7056656 -1.4960269 0.3459098 11
1.8765404 -1.5184553 0.25152341 9
1.8841633 -1.5060433 0.7836144 15
2.0068347 -1.5209173 0.2889989 10
2.0511999 -1.514739 0.56119323 12.333333
2.3551919 6.5028405 0.40366676 9
2.541502 -1.5329713 0.20877017 8
2.5507717 -1.541321 0.32320729 9.5
2.4858487 6.6529188 0.83224535 10.5
2.3800607 6.6558037 1.2305101 12
2.4721959 6.6688294 1.7884334 14
2.6403525 -1.2617527 0.24220847 8.5
2.6385946 -1.2597765 0.40922198 10.5
2.7135985 -1.2343445 0.61474341 12
2.6541991 -1.5432665 0.78939962 13.5
2.659467 -1.2414035 0.82607228 14
2.6558764 -1.249521 0.90761507 15
2.7407317 6.6696053 1.9173785 15
2.8078341 6.6699414 1.4000745 13
3.3775423 6.6815219 0.44640988 9
3.4770153 6.6714492 0.7820549 10
3.4120266 6.6921005 1.0884011 11
3.6433406 -0.9295916 0.27723047 8
3.6690354 -0.65244395 0.13845769 7
3.6688952 -0.59191567 0.1967444 8
3.6364515 -0.92516446 0.37402883 9
3.6587813 -0.58260727 0.30502203 9
3.6818335 6.6751571 1.2035463 12
3.8372993 6.6935825 2.0014572 15
4.1101022 -0.41315225 0.65132082 11
4.1136804 6.6510735 0.95929492 11
4.2043772 3.6358132 0.36954606 9
4.4678254 6.6436105 1.3142382 12
4.5358057 6.6473017 1.5209771 13
4.7111611 6.4023495 0.58234179 9
4.6181331 6.6633067 2.0689545 14
5.0116973 6.6160436 0.8647688 10
5.1343546 6.130188 2.0641694 14
5.5396657 1.1290267 0.06775143 7
5.5891666 2.1579823 0.039430439 7
5.5529475 1.6238304 0.2056967 8
5.5770574 1.3323672 0.56011862 9
5.5759811 1.1256059 0.7696982 10
5.5707316 1.2509867 0.78207183 11
5.5576005 1.670643 0.68486565 10
5.5179048 6.6018729 1.3205125 12
5.5984325 2.1518648 0.33350471 8
5.6042829 2.1187134 0.49516103 9
5.6134572 2.1585162 0.69127983 10
5.5822549 1.6945921 1.0103755 12
5.6223865 2.0954645 0.95153886 11
5.6456704 6.5791416 1.0262401 11
5.7255135 -0.63382745 1.5182406 14
5.7142758 -0.54335231 1.3762549 13
5.7713475 0.5820083 1.3184742 13
5.6266069 2.0839272 1.3505139 13
5.6160188 1.0067998 1.7426772 15
5.6354651 1.8112757 1.7175667 15
5.8916774 1.2782853 1.4031698 13
5.8911185 1.2540262 1.6369503 14
5.902225 5.3673396 2.0806329 14
6.0126653 3.3390267 0.065700598 7
5.9967184 0.13870642 0.68774402 10
6.1525269 0.83724016 0.90201253 11
6.1010036 0.59481865 1.2367215 12
6.3747239 3.2957242 0.57905746 9
6.360167 3.3116639 0.81254411 10
6.2798162 4.3272491 0.72407317 10
6.304976 4.3344479 1.1775875 11
6.3519673 3.4920948 1.847527 14
6.3966117 5.233304 1.2456965 11
6.4244356 4.6441698 2.0771561 14
