# .PCD v0.7 - Point Cloud Data file format
VERSION 0.7
FIELDS x y z intensity
SIZE 4 4 4 4
TYPE F F F F
COUNT 1 1 1 1
WIDTH 582
HEIGHT 1
VIEWPOINT 0 0 0 1 0 0 0
POINTS 582
DATA ascii
-3.4372325 8.2676811 1.2352339 12
-3.4220018 10.415838 1.3708811 11
-3.3802834 10.54293 1.5134999 12
-3.3111477 11.405067 1.581537 11.5
-3.3004436 11.841386 1.5698793 11.5
-3.2789166 12.31092 1.6185275 11
-3.272445 12.31009 1.7482325 12
-3.2426884 12.772295 1.7596244 12
-3.2851672 14.133062 1.6770902 11
-2.8402846 8.1518068 0.29555115 9
-3.147928 8.2594433 1.2480972 12
-3.080992 8.7899885 1.224799 12
-3.0032146 8.9234858 1.339107 12
-3.1263368 8.2722244 2.115205 15
-3.080658 8.7808142 1.7716875 13
-3.183593 13.150271 1.7797924 11.5
-3.1721275 14.494893 1.9314009 11.5
-3.1120059 15.87971 1.9728713 11
-3.06499 8.691083 2.19929 15
-3.1432457 15.18879 2.0381999 11
-3.0399065 15.617624 2.1743524 12
-2.9318409 13.399466 2.8965437 14
-2.5920892 5.7828045 1.6025115 15
-2.5848355 16.24472 2.1732566 11
-2.4694633 16.675116 2.0514817 11
-2.7289062 13.421906 2.5941598 13
-2.7119071 18.283329 2.5284178 12
-2.6000021 13.409039 2.9079876 14
-2.1908646 5.7628174 0.51828641 10
-2.105844 6.772171 0.58335704 10
-2.1577148 6.816864 0.32830742 9
-2.0833044 6.6248889 0.74436879 11
-2.0938463 5.7508268 1.2874053 14
-2.1809809 5.7679191 1.4472221 14
-2.1919222 16.21151 2.1816356 12
-2.1008282 16.890772 2.0730934 11
-1.9647472 5.7756386 0.56568462 10
-1.7940073 6.6860189 0.4690038 9.5
-1.6112196 6.8113708 0.33389553 9
-1.6842431 8.3791981 0.43218958 9
-1.6707696 8.6018496 0.35610449 9
-1.668617 7.7708497 0.65842241 10
-1.796195 5.6763988 1.3596811 14.5
-1.6656141 16.181396 0.83801126 9
-1.7405405 5.7066765 1.506005 15
-1.7279981 10.470457 2.3612084 14
-1.8572402 12.369801 3.1869419 15
-1.5435126 6.8145986 0.60591638 10
-1.4851024 8.7310247 0.37458912 9
-1.5110266 7.7548857 0.65538412 10
-1.2873979 16.203997 0.83054906 9
-1.438058 5.7048335 1.3752745 14.5
-1.3726089 16.190506 1.0200269 9.5
-1.4764972 5.6502972 1.5578109 15
-1.5419544 16.248615 1.9075212 11
-1.4648863 10.408975 2.3582122 14
-1.3928423 11.075897 2.2520914 13
-1.418121 16.188171 2.1994293 12
-1.5170311 10.50137 2.5699267 15
-1.0878643 6.8412151 -0.18416809 7
-0.90296096 -1.3674984 0.35008258 13
-0.98479283 -1.043443 0.35891184 14
-0.9785279 -0.69533646 0.3272498 15
-0.90921533 1.0242157 0.35157338 15
-0.8885271 1.4370968 0.33874142 13.666667
-0.87839854 1.6152129 0.31461444 13
-0.92156774 -1.3091426 0.43936941 14.5
-0.97438711 -1.0285076 0.41873077 15
-0.90249091 1.1441904 0.37180915 15
-0.8895027 1.4137474 0.39565128 14.5
-0.8644532 1.8219707 0.45365778 14.142858
-0.84139323 2.0424089 0.49286607 14
-0.9413228 6.5640969 0.44900116 10
-0.88931125 5.6743259 0.96430492 12.5
-1.0567081 7.3367505 0.67038184 10
-0.85561687 16.1453 0.99997991 9.5
-1.1508015 16.218243 1.8266914 11
-1.2048111 10.356349 2.3570421 14
-0.98093557 10.985374 2.2611678 13.5
-1.1057857 14.873341 2.1892743 12
-0.95768678 12.115279 3.1168408 15
-1.1711733 13.173102 3.1365201 14
-0.5248158 1.8334053 -0.076072648 7
-0.52105969 2.61274 -0.11023081 7
-0.61458021 2.8842208 -0.12344126 7
-0.74004704 3.2506218 -0.14426433 7
-0.45859841 4.0068226 -0.18537584 6
-0.77407503 5.5132484 -0.25893962 6
-0.63466889 -1.392647 0.34241769 13.090909
-0.51659387 -0.97265148 0.051457867 8
-0.42693454 -0.54487908 0.018518737 8
-0.66023648 -1.39528 0.45993823 15
-0.48560798 5.6534462 0.41954169 10
-0.55032384 5.5968175 0.89158815 12.5
-0.64895552 5.7161698 0.8970176 12
-0.78568149 7.047658 0.67253208 10
-0.75502551 14.83227 2.2050946 12
-0.7575224 13.356382 2.6964447 13
-0.67984968 12.180077 3.1277018 15
-0.85804117 13.135901 3.1328943 14
-0.66284215 13.370559 2.9700813 14
-0.17596853 -0.48554927 0.0062999106 7
-0.16173379 1.1014589 -0.048007634 6.5
-0.20671853 1.4013623 -0.055399045 7
-0.1617614 1.8256611 -0.077969015 6.6666665
-0.066152439 2.1354718 -0.096291453 6
-0.1556026 2.5551927 -0.11063752 6
-0.23951158 2.9560261 -0.13030548 6
-0.35271776 3.4984503 -0.15828303 6
-0.25596252 7.6900659 -0.29378545 7
-0.20115821 -1.4160585 0.34453875 13.333333
-0.2089086 -0.93248266 0.042911574 7.75
-0.15080535 -0.61005962 0.022234457 7.6666665
-0.30540055 7.5502062 -0.051823024 7
-0.20597357 -1.4219358 0.45809275 15
-0.16791196 5.6193042 0.95103735 12
-0.18301733 5.6294451 1.0331671 13
-0.32902691 9.6623859 0.76370651 10
-0.035701893 10.814954 0.66951728 9
-0.031475153 5.6234593 1.0837729 13
-0.19234042 16.091116 1.0949701 9.666667
-0.20076221 16.147474 1.8854184 11
-0.23283453 18.271133 2.5745468 12
-0.2516939 12.169248 3.1239178 15
-0.34509334 13.377647 2.9860296 14
0.27719551 -0.85221851 0.0076852399 6.6666665
0.25054294 -0.56144065 -0.0046696682 6.1111112
0.37662134 -0.35761887 -0.014048382 5.5
0.29720786 0.53833193 -0.052014891 4.6666665
0.31722263 0.88916081 -0.065930769 5
0.22884391 1.9207648 -0.094846532 6
0.1996464 2.2822964 -0.1118561 6
0.15987873 2.7619216 -0.13042788 6
0.1368604 3.0520084 -0.1456852 6
0.10991573 3.3844557 -0.16098209 6
0.074483924 3.8305454 -0.18432383 6
0.029526345 4.392499 -0.21248329 6
0.26606575 -1.7118973 0.20422119 10
0.16542605 -1.4143114 0.29097277 12.285714
0.075055361 -0.90562892 0.026982073 7
0.043339632 -0.53113115 0.020801542 7.5
0.18430874 -1.4378868 0.46456498 15
0.16496709 7.608067 0.49304008 9
0.1348885 7.7928014 0.70130688 10
0.28412169 16.09094 1.9988078 11
0.19851786 13.30422 2.7551301 13
0.2994177 18.207439 2.6951835 12
0.17183203 12.071842 3.1013775 15
0.071102478 12.808953 3.0843077 14
0.12826009 13.322599 2.998327 14
0.6822719 -1.3304329 0.018978819 7
0.47624373 -0.51614863 -0.017157273 5.6666665
0.50315887 -0.24977061 -0.042940132 4
0.58241671 0.188023 -0.056872264 3.6363637
0.5428158 0.58510661 -0.049129046 5.3333335
0.53289592 0.94030911 -0.066845514 5.5
0.77629691 1.2728031 -0.086130507 6
0.69951802 1.8146092 -0.1085888 6
0.66558987 2.1116776 -0.12314271 6
0.50204849 2.5902638 -0.13502413 6
0.51752269 2.9412086 -0.1506069 6
0.53273219 3.2672851 -0.16829424 6
0.57294518 4.147862 -0.21276039 6
0.61164141 4.939229 -0.26258203 6
0.65278488 -1.7101785 0.22473899 10
0.59850168 -1.4487374 0.34271607 12.5
0.59864146 -1.4473543 0.4779225 14.5
0.73144591 18.630171 1.3636217 10
0.55758017 16.114817 1.8753481 11
0.5170095 13.332112 2.7842197 14
0.61769366 18.220346 2.6071877 12
0.45410523 12.016228 3.0902925 15
0.66566235 12.619415 3.0619662 14
1.1645278 17.407516 -0.82936686 6
1.0608933 -1.6811515 0.033220004 7
1.0142031 -1.5569758 0.017282661 7
0.99715674 0.32888675 -0.041449655 5.5
0.9722513 0.60191405 -0.063596189 5
1.0048637 1.0304488 -0.078948461 5.6666665
0.93950921 1.4639597 -0.10110515 6
1.0204521 1.679926 -0.11597905 5.5
1.050354 2.1634481 -0.13995714 6
1.0173172 2.6222706 -0.15914699 6
0.8998661 2.9738886 -0.16941522 6
0.98885089 3.4859314 -0.1981726 6
1.1787555 4.5748916 -0.2618697 6
0.95295841 -1.7069329 0.18877645 9.333333
0.97175449 -1.4640152 0.36548662 12.285714
1.0248194 17.371622 -0.29663855 7
1.0213249 -1.4648612 0.51624608 14.2
1.099905 18.619568 0.8310042 9
0.83976531 18.626328 1.0406957 9
1.0834128 18.608324 1.3175532 10
1.0361928 16.071972 2.0025415 11
0.93317682 18.579929 1.9435204 11
0.83075011 13.28487 2.8007143 14
0.93531179 18.189764 2.5017846 12
1.3160012 -1.6723913 0.033944868 7
1.3537719 0.56786478 -0.04406859 5.8000002
1.4919565 1.1208688 -0.068465427 6
1.3110502 1.3896514 -0.11619805 5
1.4723264 1.7773275 -0.15113008 5
1.3598207 2.1606302 -0.16014832 5
1.4806627 2.4298093 -0.17634043 5
1.2773831 2.9032717 -0.18223675 6
1.3830539 3.2450335 -0.20479277 6
1.5095872 3.6556866 -0.23022224 6
1.3179529 5.3765497 -0.30645755 6
1.2946205 -1.6916887 0.16516659 8.5
1.3949425 -1.4866532 0.34533656 11
1.3955213 -1.4807522 0.57401073 14.142858
1.2728337 18.599983 1.0414941 9
1.414204 16.079453 2.0056324 11
1.3065609 13.285363 2.8406985 14
1.1487268 18.15855 2.7390461 12
1.2867945 11.8668 3.0635195 15
1.5361186 12.406512 3.0477059 14
1.2249037 13.2887 3.0530281 14
1.8401387 0.68133509 -0.036424577 6
1.8143612 0.95754218 -0.064858325 6
1.7323046 1.3578357 -0.10337405 6
1.7643088 1.743607 -0.15246281 5
1.7784696 2.2765448 -0.19271526 5
1.7327281 2.986371 -0.21818247 5
1.9007756 3.3580089 -0.24510825 5
1.957463 5.2828641 -0.12732203 6.5
1.8617735 8.7538252 -0.33139598 6
1.8317503 8.8544884 -0.15536819 7
1.8001977 -1.5059693 0.35864604 10.714286
1.8925903 9.7376842 0.14899683 8
1.8218337 -1.5011858 0.63859403 13.75
1.9785962 18.611933 0.80416054 9
1.706885 18.601694 1.0430938 9
1.599508 18.595118 1.4202833 10
1.7903961 16.006435 1.9996723 11
1.8067621 18.537571 1.9221679 11
1.8036797 8.5749521 2.494765 15
1.7833558 13.283765 2.8815 14
1.7889344 18.179667 2.529489 12
1.7004905 11.812938 3.0576842 15
2.2452228 1.2900023 -0.11312033 6
2.0984504 1.7246547 -0.13506673 6
2.0166752 2.0615337 -0.18087828 5
2.3953094 2.5383928 -0.22387183 5
2.186656 2.9423208 -0.24775699 5
2.1405091 3.8856175 -0.28772792 5
2.0242803 5.2562952 -0.4112227 5
2.1967852 -1.5274706 0.29766318 9.375
2.2033062 6.2623 0.024902042 7.5
2.2532504 6.6401639 0.2543416 8
2.1996098 -1.519434 0.66320235 13.222222
2.2413588 6.6707034 0.56012392 9.5
2.166208 6.8363194 0.50251746 9
2.3267922 7.5582843 0.42068768 9
2.3689787 8.8145189 0.61284941 9
2.2125127 6.7441864 1.0003346 11.5
2.3210783 7.5736008 0.89300251 10.5
2.3794982 8.5343361 0.84349287 10
2.1484077 18.66048 0.7640565 9
2.2567599 6.6807075 1.2959167 12.5
2.193953 6.9041371 1.3872828 13
2.332361 7.5982656 1.1605281 12
2.247272 6.7394657 1.8205595 14.5
2.1902111 7.6592569 2.1408088 15
2.2183332 8.2228422 2.1331084 15
2.2816935 8.6640368 2.1139162 14
2.1240466 8.9339991 2.1447399 14
2.1713929 16.020882 2.0035148 11
2.1712422 17.811672 1.8520209 11
2.0950525 13.229263 2.9002478 14
2.1078243 18.155621 2.6664951 12
2.1113203 11.721557 3.0450442 15
2.1174822 12.885446 3.033325 14
2.5528402 1.00981 -0.08277522 6
2.6100395 1.3589568 -0.13361023 6
2.4429517 1.625855 -0.1346547 6
2.5942581 2.2217982 -0.17634511 6
2.651829 2.8616314 -0.25248411 5
2.462194 3.3893385 -0.29026839 5
2.6240075 -1.3931944 0.30143112 9.166667
2.5803695 13.607352 -0.12689313 7
2.5811245 -1.446007 0.67442834 12.714286
2.5653088 6.6429043 0.55312169 9.5
2.4844508 8.6653318 0.53894377 9
2.6355462 -1.4270134 0.91066509 15
2.5882168 6.6474676 0.91268545 11
2.4762332 8.6235161 0.88340193 10.5
2.45837 9.791893 0.79577351 9.5
2.6582301 14.73982 0.68742591 9
2.5666006 14.877173 0.76966506 9
2.5665815 18.568235 0.81077641 9
2.5920413 6.6603327 1.3104793 12.5
2.520031 8.6772165 1.3042147 11.5
2.4660099 9.8101473 1.1731539 11
2.5542889 13.937007 1.2498025 10
2.5944302 6.6692009 1.8545123 14.666667
2.443398 8.6484785 1.5410912 12.5
2.4557946 9.8215055 1.5942283 12
2.7424238 17.459948 1.439177 10
2.7201824 18.415903 1.2946447 10
2.3895786 8.0935917 2.1225815 15
2.4657593 8.544939 2.1126912 14
2.7028348 11.514184 1.9996588 12
2.4744146 11.775181 2.0181596 12
2.6376109 13.872307 1.9777279 11.5
2.4778934 14.437485 1.9856197 11
2.5484486 15.996424 2.0044134 11
2.4155715 13.214068 2.9281044 14
2.4254637 18.139347 2.8163111 12
2.3932903 11.709632 3.0493569 15
2.3738425 12.092408 3.0197222 14
3.0219197 5.7826023 -0.51478475 5
2.8661189 1.5144444 -0.15187092 5
2.9388545 2.0161057 -0.16959298 6
3.0452371 2.6736488 -0.21512884 6
2.9908757 5.8300171 -0.31914261 5.5
3.1789968 -1.4584957 0.24067487 8
3.0390306 6.2558374 0.1975199 8
2.9321582 -1.2961847 0.75926596 13
2.9856913 6.6933393 0.50326681 9.333333
3.0243554 6.7013822 0.88827735 10.8
3.01421 6.7140536 1.3143419 12.333333
2.8708496 17.53824 1.0082214 9
2.9177234 6.7093577 1.8681636 14.333333
3.0386894 6.7214274 1.9479458 15
2.9667358 11.440568 2.0075319 12
3.0411441 13.777974 1.9289697 11
2.7439134 13.247237 2.964947 14
3.3737831 1.3900611 -0.12028312 6
3.6019568 1.9611285 -0.20494618 5
3.314641 -1.3554832 0.342931 9
3.2411928 6.6948185 0.15182602 7.5
3.3825345 -1.3234714 0.67706889 11.777778
3.4180989 6.6772652 0.48664728 9.333333
3.3604398 -1.3497418 0.96281207 14
3.4129503 6.685554 0.83598334 10.5
3.4815431 13.671758 0.63138008 9
3.3846731 6.6930532 1.3497984 12.5
3.506588 13.687123 1.2957765 10
3.3097126 6.7083297 1.8981537 14
3.5431225 13.682101 1.7814656 11
3.3628299 6.7013483 1.9567919 15
3.2209861 13.751441 1.7850984 11
3.9163885 -1.1760544 0.073087968 7
3.8807662 1.6240339 -0.15047868 6
3.7642994 2.6650941 -0.2305059 6
3.8995037 4.5169349 -0.14958476 6
3.9174089 -1.205439 0.30287093 8.5
3.7968926 -0.99692941 0.2923615 8.5555553
3.7949572 -0.5549382 0.2644836 8.4444447
3.9545913 -0.37870365 0.31700844 9
3.908987 6.6633768 0.32631227 8
3.7122092 -1.2456775 0.63593853 11.333333
3.9262249 -1.1723691 0.66265118 11
3.9805255 -0.47531283 0.52601379 10
3.8943088 3.740485 0.50962931 10
3.8372736 6.6608324 0.48179546 9.333333
3.7910569 -1.2170343 1.0887808 14
3.9434521 -1.1399342 1.0441426 13
3.7320056 6.6720543 0.92860991 10.6
3.796658 6.6761489 1.3802739 12.5
3.5896254 6.6910467 1.9310414 14
3.7295678 6.6943593 1.9738029 14.5
4.2750249 6.3604302 -0.50267875 5
4.1569529 -1.3931464 0.098393276 7
4.0752916 4.7584362 -0.11096018 7
4.2885737 6.5341787 -0.16522245 6.5
4.1423454 -1.4202071 0.28327408 8.1999998
4.0751948 -0.84876233 0.49371564 10
4.328887 -0.15782599 0.24074782 8
4.3243046 0.16048656 0.19267549 7.75
4.0237007 2.9673171 0.21595925 8
4.232933 3.4141903 0.21386595 8
4.2311502 3.8057208 0.27842084 8.666667
4.2534366 4.1359539 0.23733553 8
4.2457194 4.4218326 0.24753889 8
4.1036 4.8582225 0.072608404 7
4.2811828 5.3922071 0.27241758 8
4.2439671 6.642797 0.21405242 7.6666665
4.1548047 -1.3965516 0.54177636 10
4.1210074 -1.0463303 0.70948011 11.333333
4.0778575 -0.61034042 0.63997751 11
4.1881242 3.4846129 0.45972234 9
4.1332283 6.6494331 0.53836441 9.333333
4.1866417 -1.3892108 1.0990636 13.2
4.1327395 -1.1253513 1.1337157 13.5
4.1591053 6.6573782 0.97638768 10.5
4.1975646 -1.317626 1.4515605 15
4.185359 6.6634746 1.3930008 12.5
4.1112885 6.6363463 2.0305054 14.5
4.5557036 -0.19800173 0.26529664 8
4.4621687 0.25462252 0.23915669 8
4.6140337 4.3512158 0.040323548 7
4.6120038 6.5778146 0.2812525 8
4.5356569 -1.1687043 0.76603246 11
4.5899267 6.591908 0.50284958 9
4.455337 -1.386201 1.0044926 12
4.5023303 -1.1491439 1.1412364 13.333333
4.5991054 6.6386352 0.96149337 10.5
4.7368736 -1.1508586 1.5942619 15
4.6060824 6.6426167 1.3707774 12.333333
4.614892 5.5683022 2.1358311 15
4.3907943 5.6871991 2.1382661 15
4.5846453 6.31532 2.0946534 15
4.5771909 6.6427054 2.0656035 14
4.8148799 3.5347717 -0.10109579 6
4.9397163 -0.41775879 0.32027277 8
4.8367982 2.443459 0.30645591 8
5.1369615 6.2202048 0.19038062 7.6666665
5.0080223 6.6044168 0.30971488 8
4.8617377 -1.1844751 0.83347559 11
5.089201 6.6009774 0.58334541 9
4.9518733 -1.1921043 1.0837458 12
4.9586415 6.6157808 0.9888463 10.75
4.9117041 -1.1712743 1.3483787 14
4.9704614 6.6244354 1.3891412 12
5.1592588 6.7611251 1.6200256 13
4.9637098 5.39083 2.1362824 15
5.0048003 6.2384977 2.0739274 14.333333
4.7770004 6.5672979 2.0775766 14
4.8222013 37.66954 2.5890758 10
5.4569039 -0.41388661 0.059359841 7
5.4785051 -0.16760349 0.079261631 7
5.5349107 0.28594977 0.0063844575 7
5.5313191 0.67044681 0.035527255 7
5.5589809 0.93513685 0.052353196 7
5.5535045 1.2669436 0.075713836 7
5.56247 1.8619503 0.024530228 7
5.454113 2.358403 -0.1754605 5.5
5.2824664 6.2236681 -0.40836349 6
5.4838905 -0.45331511 0.29970628 8
5.4800811 -0.13742697 0.32654104 8
5.5193863 0.18112966 0.44360346 8.666667
5.5419722 0.63271594 0.30562663 8.166667
5.5639782 1.0283267 0.29258871 8
5.5848722 1.4286325 0.29766136 8.1999998
5.5634971 1.7984266 0.25401559 7.8333335
5.5939789 2.0849681 0.17749992 7.5
5.2410889 4.7696157 0.18596682 8
5.3718185 -1.2047223 0.88563412 11
5.441617 -1.1011298 0.89629817 11
5.5359488 -0.53097272 0.59654272 9.5
5.5484962 0.22834881 0.51504058 9
5.5895295 1.5067589 0.4842377 9
5.5748601 1.8162535 0.64136577 9.833333
5.4297929 6.5842028 0.58203638 9
5.3422899 -1.231408 1.1432335 12.5
5.464159 -1.0720187 1.1563886 12.333333
5.5691943 1.3649246 0.98870885 11.333333
5.4194751 6.5973516 0.97627413 10.5
5.3898106 -1.1914611 1.4245452 14
5.4945717 -1.0011103 1.4628674 14
5.3995919 -1.2000908 1.7691386 15
5.4967241 -0.98877323 1.801106 15
5.5335598 -0.69656813 1.821854 15
5.3079333 6.6129875 1.5733286 12
5.3731222 5.140521 2.1326778 15
5.4440284 5.9308076 2.0845439 14
5.4131498 6.1186171 2.0775013 14
6.0081577 5.6449814 -0.45983514 5
5.6431112 3.221056 -0.22286342 5.6666665
5.600204 1.5499421 0.090712331 7
5.7897196 -0.16033249 0.64808822 10
5.9565411 0.38813859 0.64443636 10
5.7009931 0.48981568 0.54151875 9
5.788671 1.1328685 0.61676377 9.666667
5.6067362 1.4458582 0.69048363 10.333333
5.5910311 1.9622315 0.76478821 10.5
5.6018996 2.0852954 0.71995318 10
5.8258071 6.568481 0.49547213 8.5
5.9685173 -0.85994184 1.3160394 13
5.7856741 -0.48483977 1.2794389 12.5
5.7386169 -0.206692 1.2554389 13
5.7452345 0.052724145 1.2743449 13
5.8301873 0.55820805 1.2760433 13
5.7846799 1.0887207 1.0436938 11.6
5.6008806 1.5566018 0.95328504 11.5
5.5913167 1.8517685 0.98121232 11.5
5.6191235 2.0850732 0.96501559 11.5
5.8212123 6.5787396 1.0001395 10.333333
5.7135692 -0.87394649 1.4390842 13.5
5.7243943 -0.5525288 1.4677093 13.6
5.7386332 -0.19213709 1.4647479 13.6
5.762372 0.2226342 1.5147244 13.833333
5.7772055 0.61987084 1.4666755 13.666667
5.7913547 1.0247347 1.4810199 13.6
5.7557015 1.4810379 1.5409729 13.833333
5.6221437 1.8135941 1.5096021 13.5
5.6356483 2.0817688 1.6047729 14
5.8560319 6.5847001 1.3686185 12
5.7595835 0.62959981 1.7162366 15
5.6254854 1.0076469 1.7444539 15
5.6849618 1.4665955 1.7790519 15
5.6374526 1.812719 1.7182517 15
5.7636895 2.2064576 1.8086408 15
5.7898722 6.5930281 1.6068746 12
5.8714414 3.8946187 2.150598 15
5.8943133 4.7947197 2.1290388 15
5.6757078 4.9512801 2.1318104 15
5.8681931 5.5385337 2.081424 14
5.6381016 5.755127 2.0832443 14
6.0195665 4.4142761 -0.51033139 5
6.3076429 2.9492614 0.019603418 7
6.1049881 3.2080765 0.050450478 7
6.0780749 5.7816658 -0.21990328 6
6.2904692 2.6440873 0.22410224 7.5999999
6.3233328 3.0171859 0.22005473 7.5999999
6.2490311 3.4047413 0.26175869 7.6666665
6.3072782 3.7398422 0.16409825 7.5
6.32265 4.1875935 0.13105361 7.5
6.3156729 4.5706511 0.16702312 7.6666665
6.3798332 4.8967237 0.15850456 7.5
6.0776057 -0.40565678 0.72159612 9.5
6.0789132 0.26209441 0.79137415 10.5
6.1260629 0.63429844 0.72108561 10
6.1429291 0.95929039 0.68610746 9.6000004
6.0413389 2.3626451 0.54705417 9
6.2904038 2.6426623 0.64787167 9.5
6.3172674 3.0221868 0.67962652 9.5
6.3236971 3.4260528 0.68852788 9.5
6.3387961 3.8049231 0.68242162 9.5
6.3121023 4.2206559 0.60755283 9
6.3523006 4.6077952 0.66067928 9.25
6.3815479 5.030302 0.63418823 9
6.2100744 6.554266 0.58380467 9
6.0884099 -0.84247422 1.1175823 12
6.1028714 -0.46485826 1.0672389 11.5
6.1183214 -0.15664636 1.0882828 11.5
6.1319618 0.23301996 1.2274582 12
6.1069326 0.59268677 1.080202 11.5
6.1497011 0.98353833 0.95671988 11
6.1448536 2.4100111 0.93171406 11
6.2447257 2.6706426 1.1097254 11.5
6.3282437 3.0658035 1.110229 11.5
6.3322792 3.4349751 1.0624855 11
6.3445415 3.8366191 1.0222796 10.666667
6.3369746 4.1869493 1.0117607 10.5
6.3555841 4.611176 1.0435306 10.5
6.1569967 6.563386 0.91201872 10
6.2827244 1.9530702 1.6588629 14
6.0497637 2.3673372 1.5508026 13
6.1636024 2.7513015 1.4469297 12.5
6.1780124 2.9824355 1.5817962 13
6.3331695 3.4347796 1.3928354 12.333333
6.2384973 3.7883542 1.3666881 12.333333
6.3478389 4.2078762 1.3648443 12
6.2457552 4.7017236 1.3993727 12
6.0671506 6.5734644 1.3645819 11
6.0796175 -0.56173384 1.9775915 15
6.1539712 -0.3533521 2.010833 15
6.3225918 2.6715343 1.8775445 14.333333
6.2692709 2.9865606 1.9269127 14.5
6.3509173 3.4802983 1.8372866 13.75
6.3603754 3.8510804 1.7999858 13.5
6.3616371 4.264451 1.8622503 13.5
6.3477926 4.452282 1.8022703 13
6.0517154 4.9150071 1.738416 13
6.171905 6.5789809 1.6345376 12
6.3362832 3.1696258 2.0885289 15
6.3117328 3.4690833 2.1412165 15
6.0589886 3.7357206 2.150506 15
6.163095 4.6134629 2.1305676 15
6.2318821 5.103756 2.0851245 14
6.2102761 5.302578 2.0812016 14
6.4017925 3.9542747 0.061134815 7
6.3971734 5.0689721 0.75594068 10
6.4211149 5.5371394 0.75776148 10
6.545187 6.4797988 0.57304639 9
6.384088 4.9866056 1.0937562 10.5
6.4107571 5.3746271 1.0072451 10
6.5619416 6.4589443 0.94470304 10
6.3949685 4.761354 1.4339033 12
6.4026256 5.0951047 1.399249 11.666667
6.4287858 5.5161996 1.4028784 11.5
6.5621662 5.8529916 1.5759404 12
6.4879451 6.5253358 1.3858403 11.25
6.3768973 3.8881381 1.978385 14
6.3759041 4.1150036 1.8747964 13.5
6.5635061 6.1240559 1.6089692 12
6.5191526 6.5011439 1.6511543 12
6.369575 4.2261853 2.0450487 14.5
6.3937383 4.7944608 2.0608554 14
