# .PCD v0.7 - Point Cloud Data file format
VERSION 0.7
FIELDS x y z intensity
SIZE 4 4 4 4
TYPE F F F F
COUNT 1 1 1 1
WIDTH 69
HEIGHT 1
VIEWPOINT 0 0 0 1 0 0 0
POINTS 69
DATA ascii
-9.2164755 -1.1373032 2.7960918 15
-5.1840181 4.7933192 1.6349949 14
-4.3862977 -5.1997423 1.5034806 13
-4.3200188 4.8538303 1.5670025 14
-2.7679703 2.1539137 0.62781233 12
-2.2579198 2.4440043 0.35512826 10
-2.0147388 3.4301741 0.43551227 10
-2.0803518 3.5195739 0.72232872 12
-1.9170752 2.1452296 0.5323534 12
-1.6633735 2.6047084 0.72047299 14
-1.329242 2.9559519 0.46034908 11
-1.3281077 4.8825374 0.44580027 10
-1.3179909 2.9617279 0.70478725 13
-1.0830352 -1.6156478 0.26766336 10.5
-1.0255877 0.91047764 0.39684653 15
-1.1689045 4.8611517 0.67172748 11
-0.81866831 -1.8038949 0.34345227 12
-0.84061474 -1.7561134 0.34419462 12
-0.65106261 -2.9983222 0.28192705 10
-0.62793344 -2.9918592 0.40355471 11
-0.75360626 -1.8969487 0.50894976 14
-0.58676565 -3.0349905 0.61890525 13
-0.20952886 1.7861158 0.47751126 14
0.13388702 5.1206403 1.1712472 13
0.5804534 5.1523204 0.70329022 11
0.61337084 5.1532807 0.61977661 10
0.67008048 5.1257024 1.3577309 14
0.82964844 5.1621523 0.88656914 12
0.93127245 5.1289654 1.5452437 15
1.039328 1.7577056 0.16368489 9
1.0441736 1.8146893 0.24011394 10
1.1415336 0.987472 0.42942601 15
1.1845489 1.834033 0.50020653 14
1.1640131 2.2341101 0.51823151 13
1.278289 1.6989945 0.39118198 12
1.2153972 1.7480448 0.4444893 13
1.2435001 3.5533752 0.53314817 11
1.3565192 1.679791 0.64161617 15
1.2036171 1.8024632 0.60315204 15
1.2515178 3.4776549 0.63481039 12
1.2480736 3.8029833 0.82712781 13
1.7974969 1.7485743 0.54275697 13
1.8649025 0.96110249 0.3274135 11.5
1.8986434 1.1946 0.30768552 11
1.8366112 1.0246851 0.46453229 13
1.8921932 1.5068206 0.50849813 13
1.8204085 1.7422374 0.46139401 12
2.081975 -2.9465137 0.2586028 9
2.0715396 0.95054692 0.47553667 13
6.8077869 -2.0055666 0.01639132 7
6.9825449 -1.6541641 0.88050365 10.5
7.0435166 -1.5663098 0.2554726 8
7.0877266 -1.5885248 0.48945761 9
7.015903 -2.5232148 0.7072292 10
7.0095 -1.6457908 1.3246746 12
7.0321217 -2.0921967 1.4430842 13
7.111877 -1.6167369 1.6675271 14
8.5556164 2.3714364 1.9576365 13
9.0586729 3.2221351 0.067422315 7
9.9240417 2.3362482 0.42221072 8
9.933115 2.2305346 0.61392993 9
9.9524775 2.2207439 0.9874258 10
9.9921417 2.8190782 1.9811363 12
10.11301 3.5107005 1.0803256 10
10.218059 1.8207519 0.016350372 7
10.320014 0.42338899 0.52771348 9
10.294354 1.2957644 0.89477175 10
10.282919 2.0743024 1.588939 11
10.407767 -0.45229623 1.2570854 11
