# .PCD v0.7 - Point Cloud Data file format
VERSION 0.7
FIELDS x y z intensity
SIZE 4 4 4 4
TYPE F F F F
COUNT 1 1 1 1
WIDTH 216
HEIGHT 1
VIEWPOINT 0 0 0 1 0 0 0
POINTS 216
DATA ascii
-0.13779506 -0.93433291 -0.010839539 191
-0.0048465156 -0.98308146 -0.010206341 190
0.0072141574 -0.95391905 -0.011666394 193
0.15002742 -0.94233555 -0.0068384092 193
0.28286797 -0.95672572 -0.015508464 193
-0.25694618 -0.85203207 -0.0046397527 189
-0.10940634 -0.87969267 -0.0028793223 198
-0.074791968 -0.82001466 -0.0065177036 200
0.054389235 -0.83458757 -0.010180192 198.66667
0.17268033 -0.85899824 -0.012821653 198.25
0.29250926 -0.87021452 -0.015623591 198
0.41346133 -0.86170882 -0.032814056 198.2
0.52358997 -0.82486564 -0.025044294 198
-0.17616603 -0.74454969 -0.0037008126 199.66667
-0.029771106 -0.74018717 -0.0070093907 197
0.09013617 -0.74304879 -0.0075386879 196.66667
0.17251737 -0.75063634 -0.0100262 196.5
0.20791408 -0.72448814 -0.017957784 194
0.30579492 -0.75837439 -0.01862835 196
0.40950319 -0.74608374 -0.028100038 196
0.50885606 -0.73790503 -0.02204269 196.33333
0.61269563 -0.73091364 -0.02352215 197
-0.24402292 -0.64078909 -0.0076258522 199.5
-0.12100001 -0.67142421 -0.0037635835 197
-0.085876457 -0.62665266 -0.0083828988 195
0.010375896 -0.67113715 -0.011561436 194.66667
0.1139685 -0.68594229 -0.011160713 194
0.23209606 -0.61522096 -0.0069122496 190
0.31841272 -0.6219551 -0.010031624 191.5
0.43834892 -0.63382989 -0.017658645 192.7
0.58741927 -0.645643 -0.02518966 194
0.6718787 -0.6513086 -0.028200466 196
0.75556213 -0.64221662 -0.028134076 198.33333
-0.17300494 -0.56813979 -0.0060613276 195
-0.024557026 -0.54405946 -0.0051193931 191
0.060959376 -0.55079114 -0.008884985 189.66667
0.16127887 -0.56829375 -0.012569015 188.75
0.25813931 -0.52153075 -0.015856866 186.85715
0.34458384 -0.52770305 -0.012079424 187.33333
0.44652134 -0.55255485 -0.018770905 189.16667
0.55786282 -0.55422664 -0.018685102 190.71428
0.63176829 -0.53051513 -0.018954735 191.57143
0.74046415 -0.55398339 -0.028486047 195.39999
0.82906979 -0.52313048 -0.037372932 196.5
-0.027401438 -0.42232761 -0.013330365 186.57143
0.062846281 -0.43535328 -0.023758519 184.39999
0.15335357 -0.47082579 -0.023751067 184.61111
0.25316435 -0.45069405 -0.02934646 181.60001
0.34240118 -0.46531841 -0.033340089 182.10001
0.43753979 -0.46001741 -0.035047211 183.16
0.54879594 -0.4337405 -0.022289734 185
0.66767973 -0.45634416 -0.020681024 190.11111
0.74959451 -0.43162259 -0.024523256 191.42857
0.80740142 -0.49766463 -0.035264842 195
0.063779674 -0.33249179 -0.023111828 179.76471
0.15313633 -0.34373462 -0.033037223 177.47058
0.25136212 -0.3483063 -0.043240964 175.75
0.34115165 -0.34362528 -0.047704618 175.63158
0.44089541 -0.3345274 -0.037997179 177.81395
0.54741406 -0.3531169 -0.034674 180.93333
0.64505839 -0.34755149 -0.03014899 184.33333
0.71902722 -0.39281332 -0.029581621 189
-0.10464846 -0.29178327 -0.0086406004 185
-0.042914789 -0.25691587 -0.018490953 181.14285
0.03141186 -0.21846919 -0.050236136 175.13333
0.1537011 -0.27366686 -0.054873999 171.41176
0.25502309 -0.24249925 -0.043182589 170.91891
0.34413537 -0.23515718 -0.045857642 171.05
0.44626695 -0.25389823 -0.06649261 172.80769
0.54508531 -0.24317536 -0.050284643 176.52632
0.61908835 -0.2712248 -0.032307014 180.2
0.083458602 -0.18807375 -0.053824421 171.25
0.16469356 -0.14728795 -0.034091078 167.87097
0.25305989 -0.14451931 -0.045417335 167.59184
0.35035062 -0.14005746 -0.050365008 167.30089
0.44251093 -0.14363015 -0.05284337 169.36264
0.53374296 -0.16717412 -0.075813301 171.96153
0.27085555 -0.083468311 -0.066865772 166.46428
0.3673394 -0.046877604 -0.07154154 167.57677
0.4199208 -0.050251491 -0.057619583 168.3092
0.37805906 0.046846546 -0.065647997 166.91257
0.42761314 0.048413362 -0.058772549 168.29469
0.52580184 0.085926004 -0.082150415 171.25
0.26898915 0.16011347 -0.054099094 167.5238
0.34908494 0.14308755 -0.057750441 167.85715
0.4428646 0.13986887 -0.066197731 170.01282
0.55236477 0.15065594 -0.082468353 172.53522
0.63964254 0.17039447 -0.053440273 170.875
0.1628177 0.2725291 -0.068206735 171.66667
0.24921194 0.2503159 -0.069759101 166.86957
0.35214132 0.25580859 -0.080041155 170
0.45831314 0.25376365 -0.078163251 172.4762
0.54912645 0.24315616 -0.057756364 170.4375
0.65374637 0.24728511 -0.042508513 155.63333
0.74112177 0.24534465 -0.031071819 155
0.82506794 0.28412038 -0.037781205 162.33333
0.066332512 0.36825329 -0.047733895 180
0.15292794 0.32935655 -0.045312949 176.57692
0.2526783 0.33920434 -0.048105963 173.48572
0.35018733 0.33920917 -0.04972297 171.89189
0.44213894 0.34240693 -0.047530495 168.89285
0.54240125 0.34973931 -0.041222595 157.65384
0.64081299 0.34039551 -0.030951055 159.125
0.74757487 0.34300429 -0.037076768 162.72728
0.85022259 0.36427993 -0.053983148 167.25
0.91745162 0.34096271 -0.057768509 164.5
-0.036995597 0.47165388 -0.017443759 175.875
0.053867571 0.43451357 -0.03006492 183.14999
0.1507307 0.44832566 -0.049397085 181.95
0.25369614 0.47266221 -0.046830647 181.11111
0.34366524 0.45540142 -0.051094931 178.63158
0.45217499 0.44360098 -0.041336969 171
0.55541867 0.43738419 -0.035595722 171.63637
0.64783913 0.45098758 -0.037847377 171.63637
0.74860537 0.43935636 -0.043234341 170.8
0.85135335 0.4517504 -0.056757472 169.57143
-0.13270034 0.57692826 -0.017932495 167.2
-0.058507133 0.53928387 -0.016220253 169.66667
0.039614301 0.54543334 -0.021735981 175.75
0.1477813 0.56011206 -0.029422265 174.23077
0.25465113 0.54310375 -0.031324051 176.25
0.35538083 0.55418897 -0.037053991 178.75
0.4301098 0.55245149 -0.041975327 178.375
0.540263 0.54434246 -0.044814266 176.09091
0.687693 0.57418072 -0.059818778 171.8
0.76812619 0.54087311 -0.057155248 171
-0.22569832 0.67906976 -0.018005937 169.33333
-0.18354264 0.6327852 -0.018016852 169
-0.051714152 0.64017159 -0.023985783 160.71428
0.053740099 0.65937185 -0.02548122 148.33333
0.15889521 0.66022885 -0.031587157 158
0.25753918 0.65299976 -0.035288606 168.60001
0.34940997 0.63676625 -0.03686735 172.25
0.43820959 0.65659434 -0.047847129 169.2
0.53059244 0.6568538 -0.055062845 170.16667
0.62027699 0.64158303 -0.056958672 171.16667
0.71798062 0.63610226 -0.057491548 163.33333
-0.32375148 0.78561282 -0.014679819 154.33333
-0.27763963 0.73672765 -0.019854482 166
-0.11772592 0.73085976 -0.014378094 139.33333
-0.039095066 0.75410068 -0.019375563 138.66667
0.010201633 0.7446323 -0.026813261 138.66667
0.12706454 0.74878669 -0.030925972 149.60001
0.239167 0.73986453 -0.035131607 160
0.3440429 0.7347036 -0.042666715 163.33333
0.44368237 0.74703467 -0.047671191 161.60001
0.55104649 0.76015079 -0.054714564 158.39999
0.65305918 0.73369068 -0.061042711 160
-0.41830248 0.88715404 -0.0079119429 116
-0.37268469 0.83676267 -0.0070322212 120
-0.21749093 0.87531722 -0.016904837 126.5
-0.17900895 0.82281435 -0.023333231 135
-0.052983493 0.86897713 -0.029841589 133.66667
0.086261787 0.86410654 -0.032310497 138
0.10330141 0.81102872 -0.02577991 141
0.2132313 0.849397 -0.025571654 115.28571
0.3360745 0.83570063 -0.040358543 151.75
0.44888341 0.83342677 -0.047477409 156.33333
0.56027311 0.81461054 -0.049195975 151
-0.25353149 0.92507064 -0.012219422 120.5
-0.11105869 0.97561705 -0.01944083 131
-0.084100723 0.92629409 -0.024575338 128.5
0.059379201 0.93559211 -0.027815714 121.2
0.33199686 0.91173232 -0.045243263 144
-0.31161413 -0.91799343 0.01210249 173
-0.14274043 -0.93455708 0.0056338045 186.5
-0.005909469 -0.97611535 0.0029715893 191
-0.4445163 -0.836182 0.020147311 162.33333
-0.26408234 -0.8556726 0.010278395 181.5
-0.083766386 -0.83026743 0.004456324 202
0.035481095 -0.87480992 -0.00036527822 199.5
0.1606383 -0.89256167 -0.00038148864 195
-0.61541325 -0.77167767 0.03683966 150.33333
-0.53780359 -0.71301502 0.028595332 154
-0.36023453 -0.75310349 0.011565152 182.25
-0.21986766 -0.79941648 0.0041923788 195
-0.19180819 -0.76028496 0.0091204382 199
-0.021705169 -0.72225505 -0.00012103569 198
0.088814452 -0.74195486 -0.0015039258 197
-0.50128967 -0.68594372 0.022480823 161
-0.45248815 -0.64918864 0.016762795 176.66667
-0.26496473 -0.65761101 0.0071393196 198.25
-0.1114605 -0.65620524 0.0028180606 198
0.03936442 -0.61362702 -0.00014765578 193
0.13702622 -0.61959112 0.00052555848 193
0.22384696 -0.63973749 0.00033844047 194
0.31243172 -0.65115362 -0.0005593439 194
-0.35611153 -0.57490343 0.012723706 195.39999
-0.25835398 -0.52751368 0.0078543844 197.2
-0.16336229 -0.55469328 0.0060063484 195.5
-0.028432319 -0.5445177 0.006880492 192.33333
0.069829874 -0.55815309 0.0022785198 191.33333
0.17600468 -0.52002662 0.0029592854 188.5
0.24890818 -0.5392254 0.00074640836 189
0.32528099 -0.53386503 -0.0001411027 189
-0.22542457 -0.47480664 0.0046012145 195.5
-0.14405239 -0.4473612 0.014345432 191.83333
-0.047201138 -0.43716303 0.0042295791 188
0.034151636 -0.46301815 0.0030017111 188.5
0.10997345 -0.48687273 0.001952394 188
-0.11804394 -0.3863852 0.02413889 191
-0.066644132 -0.34053904 0.048429381 188
-0.10343498 -0.28743851 0.011146697 185.5
-0.05905471 -0.2533839 0.053229317 185
0.097312018 -0.20425288 0.083471499 147.71428
0.17807862 -0.20702095 0.0064641465 127
0.14665359 -0.17697722 0.041877374 132.42308
0.1954499 0.88314253 0.010703528 82.333336
0.037954822 0.96941137 0.0037314193 130.66667
0.18758875 0.90094966 0.02465074 94
-0.00011303749 -0.20984742 0.099888526 184
0.065918244 -0.21996522 0.12097102 146.25
0.00038137773 -0.19198844 0.19565944 155
0.043348603 -0.18756199 0.15053241 139.34616
0.10572842 -0.18260883 0.14763138 124
0.26070395 0.94714165 0.18994243 67
