# .PCD v0.7 - Point Cloud Data file format
VERSION 0.7
FIELDS x y z intensity
SIZE 4 4 4 4
TYPE F F F F
COUNT 1 1 1 1
WIDTH 220
HEIGHT 1
VIEWPOINT 0 0 0 1 0 0 0
POINTS 220
DATA ascii
0.37326086 -0.74587709 0.0040571531 191.5
0.46375054 -0.71223181 0.0043686144 192
0.56615967 -0.7341904 0.0038767834 195
0.65489507 -0.70018768 0.0060744444 186
0.092339329 -0.68737251 0.0063518323 188
0.37459949 -0.60241324 0.0067745848 186
0.4583813 -0.67385763 0.0080208937 188
0.55447412 -0.68090534 -0.00090745988 186
0.64009953 -0.65563452 -0.001822993 184
0.72483206 -0.62372875 -0.0016770466 179
0.14166012 -0.57298779 0.0035695452 186
0.24534586 -0.50349802 -0.0036545412 180.5
0.34536552 -0.50430489 -0.0011277142 181
0.44737899 -0.56955373 0.0060804193 185.5
0.55258423 -0.55036497 0.003804235 186.71428
0.65443248 -0.53990614 0.0058817128 189.5
0.75929564 -0.55539244 -0.0092042889 185.71428
0.86144131 -0.50657922 -0.012938827 188
0.058531072 -0.42667705 -0.0099626184 180.16667
0.15372211 -0.46281576 -0.0084169097 180.29411
0.2475151 -0.44531646 -0.0064446316 178.41667
0.35180861 -0.46066648 -0.010339385 178.88889
0.46508223 -0.45210052 -0.01080729 179.7619
0.55148661 -0.43789503 -0.0048364424 182.16667
0.64469284 -0.44854939 -0.00056800339 185.8
0.73305041 -0.44542018 -0.0024876045 189.14285
0.84470606 -0.46306637 -0.018317919 192.39999
-0.0058617173 -0.39559144 -0.0071343402 180.75
0.065649852 -0.33480015 -0.0089928955 176.875
0.15726545 -0.34301791 -0.014662107 174.16129
0.25241113 -0.34871152 -0.024775224 171.93333
0.35526124 -0.34606397 -0.026238732 172.36734
0.4501591 -0.33802918 -0.018540399 174.79411
0.55455327 -0.34779078 -0.014193914 178.58333
0.65330535 -0.34051424 -0.012684569 181.95454
0.75277036 -0.35229909 -0.0084762573 185.41667
0.83079189 -0.36857224 -0.010191665 189.75
0.098742388 -0.29629561 -0.025843205 174
0.15571468 -0.26031104 -0.03507214 168.39999
0.2548281 -0.2380536 -0.024920171 166.14635
0.35439181 -0.23998469 -0.029743688 167.83333
0.45582706 -0.24724767 -0.048807755 169.02325
0.54360074 -0.24584727 -0.031742889 173.10345
0.6502164 -0.25083858 -0.025043514 178.10527
0.71516335 -0.2716617 -0.010838136 182.5
0.19538313 -0.19748436 -0.022337168 163
0.26352948 -0.15554568 -0.029834716 162.40845
0.35202852 -0.14253704 -0.036449712 160.29231
0.44610032 -0.14090076 -0.040480141 162.54256
0.55094022 -0.15747575 -0.05906342 166.7193
0.61570406 -0.18531831 -0.024160761 175
0.29956138 -0.098385751 -0.045911636 157
0.3756178 -0.047518063 -0.05460031 161.14679
0.42900765 -0.052237839 -0.046191022 163.89714
0.50922674 -0.091463879 -0.04723902 160.75
0.28702503 0.089993037 -0.049213745 154.2
0.37351856 0.044402607 -0.053721208 159.32089
0.42422074 0.056918137 -0.046319883 161.60431
0.17730618 0.17357215 -0.037642028 145.28572
0.25730106 0.14777935 -0.04120886 152.89412
0.35305229 0.14210816 -0.046194125 153.85715
0.44904476 0.13138913 -0.05017658 156.02899
0.5335474 0.16849092 -0.056351606 151
0.087255284 0.24276924 -0.050196603 163.83333
0.15597214 0.23408417 -0.04955709 151.60001
0.2536422 0.23337378 -0.043532431 143.66667
0.34051874 0.22263892 -0.050676372 146.18182
0.47191048 0.26419148 -0.034577653 145.61539
0.54570526 0.24203569 -0.03175018 148.10869
0.63454038 0.2676526 -0.022866413 147.75
-0.00030071675 0.3862004 -0.012897311 168
0.031914774 0.36863691 -0.027786497 174.22223
0.1482302 0.3604674 -0.020332538 175.42857
0.25974953 0.37022722 -0.024408812 166.77777
0.36364362 0.35861176 -0.028863348 151.05882
0.45213023 0.34652609 -0.033195484 144
0.5514251 0.3520309 -0.026988626 150.39999
0.64146954 0.33313859 -0.014803374 153.66667
0.73083907 0.37546289 -0.016355043 165.83333
-0.0010501394 0.49350223 -0.0068677082 152
0.05515942 0.43590117 -0.022137834 170.625
0.14943734 0.46011129 -0.032262057 175.82608
0.24640678 0.45564175 -0.04690076 175.94118
0.35399383 0.45972306 -0.040710948 170.20833
0.46230406 0.43566224 -0.034537554 165.73685
0.54591268 0.4465206 -0.024502913 168.36363
0.64375621 0.43777972 -0.022163266 167.3
0.72948539 0.44905844 -0.024471626 167.75
0.82126874 0.4682284 -0.035459753 164.5
-0.051613767 0.55879253 -0.010685797 150.25
0.060703181 0.54829478 -0.014247357 160
0.14911148 0.55511826 -0.023809653 168.875
0.23313428 0.54430884 -0.029054673 177.125
0.34365976 0.55551773 -0.035489146 173.35715
0.45271632 0.55323052 -0.042386644 177.42857
0.545003 0.53382152 -0.039837621 171.88889
0.65727866 0.53794295 -0.038599215 168.25
0.74473757 0.55594939 -0.044816691 166
0.82830203 0.53943115 -0.040832371 160
-0.14496328 0.67785478 -0.014008456 154
-0.0343934 0.64224869 -0.012491637 159.33333
0.04412169 0.65424216 -0.02488205 156.8
0.13651757 0.64212757 -0.02811417 163.5
0.25756016 0.62706435 -0.030495295 170.77777
0.37822145 0.64051133 -0.041486688 172
0.46586183 0.65640622 -0.052137811 172
0.55296946 0.64975941 -0.057205319 175.16667
0.63315558 0.63051671 -0.048090324 167.33333
0.72341454 0.62102079 -0.041349459 169
-0.16217747 0.70011389 -0.015398679 195
-0.041685484 0.72061235 -0.019670656 201.66667
0.075135499 0.72388864 -0.025528757 200.5
0.18075894 0.7210198 -0.029943954 196.16667
0.28046271 0.72496963 -0.033339318 198.83333
0.37485483 0.72988737 -0.039643124 198
0.47274756 0.74919039 -0.044787981 201.71428
0.57101119 0.75268692 -0.038322888 203
0.66615301 0.73282367 -0.032222465 201
0.44935381 -0.84494501 0.099708639 177.33333
-0.33703253 -0.71993697 0.019328028 158
-0.17543836 -0.71411872 0.02699529 178.33333
-0.034978773 -0.70312631 0.029911077 181
0.078814678 -0.71596837 0.010898098 189.66667
0.17644846 -0.72629809 0.017189512 190.33333
0.27670351 -0.72555965 0.011147229 189.5
0.36957002 -0.74888933 0.016014995 196
0.44914645 -0.73911816 0.062031709 183.10001
0.55710584 -0.7634238 0.057205252 199.60001
0.65348542 -0.73732567 0.05764807 201.2
-0.27143508 -0.65438795 0.018137643 174.8
-0.12217138 -0.64627343 0.0245084 182
-0.042086091 -0.65723938 0.014627846 183
0.046970431 -0.65716863 0.027707988 186
0.14616351 -0.64050239 0.02040977 188.39999
0.25317541 -0.62992066 0.020321434 182.58333
0.37067252 -0.63666975 0.017987352 188.66667
0.44612288 -0.65595978 0.041727923 194
0.53445023 -0.61579072 0.012100714 187
0.72052681 -0.67259258 0.098756529 195.66667
-0.21407375 -0.58263206 0.061911449 184.60001
-0.16285543 -0.54773593 0.010453724 187.2
-0.032827295 -0.53186065 0.02184326 185.28572
0.050666891 -0.55838341 0.026696179 187.22223
0.15452446 -0.55632323 0.043605149 187.77777
0.25182435 -0.5405705 0.040957954 184.26666
0.34516922 -0.52958554 0.027701445 184.21428
0.44270948 -0.54751027 0.013368784 185.8
0.54775953 -0.5438754 0.011071024 187.2
-0.10775026 -0.48925993 0.020051502 188
-0.057974234 -0.44183862 0.011950797 184.7
0.047610182 -0.46205688 0.017787538 183.81818
0.13796888 -0.48608667 0.010925491 182.75
0.43734005 -0.49768922 0.012766382 183
0.52517301 -0.47260645 0.010456728 184.60001
0.6152615 -0.4279047 0.0097385077 186
-0.013926707 -0.39700466 0.013675889 183
0.053282548 -0.33260897 0.0037145531 179
0.10585642 -0.35870156 0.0065548979 176.5
0.17463894 0.15888762 0.095952265 126
0.2402757 0.16893138 0.095138855 121
0.35058826 0.17336613 0.072660349 119.33334
0.40976572 0.18228234 0.055877503 125
0.088663071 0.20590046 0.09799882 142
0.13392989 0.24042405 0.032400947 144.5
0.24861526 0.26591223 0.036242485 141.2
0.34865794 0.27550817 0.021656999 141.2
0.41326535 0.23457821 0.014430856 132.33333
-0.0091033205 0.39128003 -0.0012764658 163.33333
0.19204521 0.31937107 0.0075566247 166
0.26793596 0.3088783 0.015546032 159
-0.10789029 0.48609716 0.0060938862 152
-0.057676461 0.43738431 0.004042278 153.66667
0.029257298 0.45264485 -0.00019422993 157
-0.20622571 0.58282739 0.0057443413 154
-0.15828261 0.53664017 0.0027589712 149.16667
-0.022607241 0.51838183 -0.00093605492 153.33333
-0.24578266 0.62089241 0.0083483988 152.25
-0.14099751 0.66934794 -0.0050615449 179.5
-0.094713189 0.60967094 -0.0017617336 150.5
-0.20352116 0.71553242 0.078427859 205.33333
-0.18064798 0.70458233 0.032688249 204.75
-0.067067102 0.73111808 0.042105019 202.16667
0.050231487 0.73249519 0.04331338 200.46153
0.15800002 0.72014159 0.045383204 199
0.25789702 0.7153334 0.045686506 199
0.34952423 0.72383004 0.044154633 199.16667
0.44594121 0.74648452 0.042220369 200.25
0.54811591 0.76580817 0.046391148 201.60001
0.64527565 0.75237763 0.059154894 203.11111
0.44753307 -0.88223773 0.11916392 171
0.237233 -0.60106945 0.19934571 189
0.68850005 -0.67609721 0.20918974 148
0.70795667 -0.68271476 0.15752083 186.90909
-0.22619908 -0.57018346 0.13844411 196.5
-0.10204186 -0.55383891 0.18734801 192
-0.0920178 -0.55773705 0.14597039 194.61539
0.047423795 -0.53928655 0.16555949 192.59091
0.15026408 -0.56905019 0.14702711 190.73077
0.25471798 -0.58611721 0.14936383 189.39999
0.32981607 -0.5863682 0.15446761 188.61111
0.089765511 0.19761613 0.12862824 135
0.15919346 0.17167157 0.11333807 127.38461
0.25571075 0.17169432 0.11479582 118.92857
0.30212361 0.16883507 0.11067399 118.25
0.081287228 0.20624074 0.11979198 143.16667
0.2459617 0.20890498 0.10427064 140
0.025296483 0.3041898 0.1716056 203
0.13252568 0.6970188 0.15122981 200.66667
0.22962369 0.69674993 0.14798464 198.71428
0.32659361 0.69831884 0.15901615 198.5
-0.21738358 0.71536678 0.12357876 202.85715
-0.10613219 0.73480159 0.16175848 201.39999
-0.092604123 0.73276043 0.1217909 202
0.017570268 0.73605353 0.14473119 200
0.13221459 0.70961344 0.13996255 200
0.22974676 0.70283133 0.1443918 198.66667
0.33156225 0.70521951 0.14757013 198.57143
0.41315472 0.71846348 0.14052963 198.8
0.51491541 0.75377327 0.14558598 199.58333
0.62066823 0.76825374 0.15797828 201.55556
