# .PCD v0.7 - Point Cloud Data file format
VERSION 0.7
FIELDS x y z intensity
SIZE 4 4 4 4
TYPE F F F F
COUNT 1 1 1 1
WIDTH 212
HEIGHT 1
VIEWPOINT 0 0 0 1 0 0 0
POINTS 212
DATA ascii
0.26312029 -0.73157436 -0.089050807 189.33333
0.35830656 -0.74699926 -0.099249087 195.5
0.45732784 -0.73933858 -0.1073805 193.75
0.55383587 -0.72962683 -0.11124676 193.75
0.65990198 -0.72994488 -0.12277391 199
0.2767092 -0.64763069 -0.08120577 188
0.36122206 -0.64684784 -0.087740332 188
0.45265704 -0.68948692 -0.10353007 188
0.53904545 -0.663203 -0.10686278 188.33333
0.63135052 -0.65454561 -0.11297358 186.16667
0.71713376 -0.62180996 -0.11700585 183.5
0.32596776 -0.53228664 -0.075923182 183.60001
0.44146904 -0.58193183 -0.090223402 186.33333
0.55064088 -0.54962951 -0.095383391 187.25
0.66543519 -0.52592653 -0.10224976 189.5
0.7575196 -0.5475322 -0.12117738 188.8
0.82405412 -0.53543174 -0.12188409 190
0.3438243 -0.459896 -0.085599877 179.13637
0.4582842 -0.45033631 -0.093081072 179.95454
0.54784238 -0.42827907 -0.093173325 181.3
0.6405772 -0.4322502 -0.093789317 185.16667
0.72548997 -0.43914634 -0.1016262 188.57143
0.84043527 -0.45869932 -0.12523647 190.2
0.89564556 -0.41718543 -0.12907159 191
0.35456899 -0.34320921 -0.090584069 172.58537
0.44207853 -0.33932367 -0.087819591 174.64516
0.54724431 -0.34508559 -0.092681468 177.60869
0.64950913 -0.33574581 -0.094291195 181.36363
0.75302106 -0.35401353 -0.098663516 186.2
0.83970159 -0.34302673 -0.10470829 189.83333
0.9243899 -0.33663833 -0.12844437 191
0.36711964 -0.24279599 -0.093920738 168.2
0.44948336 -0.2452433 -0.10979785 167.94118
0.54142922 -0.2422033 -0.097667374 172.92728
0.64232028 -0.24688056 -0.096196555 177.66667
0.72779161 -0.24224089 -0.094355546 182.3
0.84140408 -0.24566972 -0.099053025 187.36363
0.92203385 -0.24973926 -0.11157992 191
0.37510377 -0.14484163 -0.083074972 160.94
0.43926281 -0.13593672 -0.089583471 162.04301
0.54594702 -0.14495024 -0.11643956 166.42857
0.62916404 -0.14372678 -0.093040735 173.54546
0.7473008 -0.14575315 -0.096373588 180.85185
0.84150261 -0.15305944 -0.09004952 186.11111
0.9300223 -0.13824175 -0.099849291 189.75
0.38856375 -0.034321576 -0.088283956 160.04347
0.43162337 -0.033806689 -0.085486859 163.50165
0.53803736 -0.04214783 -0.10485047 164.01334
0.63320827 -0.045516752 -0.097861841 170.07692
0.75423139 -0.046941083 -0.089253865 179.30769
0.84760851 -0.060410451 -0.085070729 185.46153
0.92339939 -0.044721335 -0.091688432 188.5
-0.64935231 0.031960744 0.051618908 131
-0.51808643 0.028465658 0.040251896 149.5
-0.41801387 0.025947072 0.030416159 154
-0.3884486 0.025157435 0.027903501 152.5
-0.24958353 0.059200611 0.023411129 147
-0.1534023 0.056146961 -0.0090541393 160.04762
-0.051073853 0.047250848 -0.038072124 172.64102
0.053772971 0.050975788 -0.05209301 159.97058
0.15294313 0.04897942 -0.048861425 152.6375
0.24973342 0.052142702 -0.073362239 157.10638
0.3581385 0.041615032 -0.086819358 161.16231
0.39954168 0.060810763 -0.08025898 162.7619
-0.40830269 0.12283713 0.040378034 153
-0.37423974 0.11802474 0.035082672 153.66667
-0.235871 0.17699929 0.029988306 151
-0.14428096 0.1548868 -0.00021531383 161
-0.031531449 0.14538749 -0.023760596 173.65384
0.033653587 0.14478716 -0.054261856 166.11111
0.15200937 0.14677934 -0.042679057 146.32143
0.25161034 0.14899445 -0.052977972 150.53488
0.34884635 0.14570315 -0.066229783 152.83051
0.4108105 0.15104181 -0.077010609 156.26315
-0.60546231 0.28000054 0.069987074 129
-0.57007879 0.27073655 0.062595561 133.5
-0.47603118 0.24449326 0.052589789 145
-0.35735339 0.21118991 0.041114993 153.25
-0.11484084 0.29016998 0.032102298 154
-0.086321622 0.27544829 0.021005362 158.8
0.059688151 0.26249474 -0.026963649 172.21053
0.1457338 0.25554875 -0.046279553 156.40475
0.24994963 0.25531581 -0.052270833 142.7551
0.34639215 0.26070538 -0.063184448 144.92308
0.41665649 0.2537002 -0.0770026 149
-0.26203078 0.37662056 0.043445036 147.66667
-0.14326435 0.34385246 0.033360191 150
-0.038053088 0.34596619 0.0064058267 166.35001
0.04144273 0.35527009 -0.014272202 174.77777
0.15503629 0.34252247 -0.022235479 171.45454
0.25263983 0.34129128 -0.027970023 157.68965
0.35590574 0.33957937 -0.031742007 146.48276
0.42983139 0.34299713 -0.037060291 145.08333
-0.42387798 0.46939418 0.065879829 146
-0.34736863 0.42537272 0.05598814 148
-0.22622547 0.46737292 0.043524127 148.16667
-0.15720126 0.4131079 0.041470967 146
-0.057858147 0.45175377 0.029807065 152.55556
0.052207071 0.4359571 0.0017105052 171.94118
0.1485962 0.46121576 -0.01195204 178.47826
0.24496463 0.45718893 -0.03171213 177.2
0.35479134 0.45623815 -0.033213932 170.875
0.44307852 0.44522905 -0.034270339 167.27272
-0.50324517 0.51764017 0.064883389 142
-0.48686922 0.50430989 0.079841398 137
-0.34273106 0.55529875 0.06072697 149
-0.24670215 0.55079406 0.048130561 149.5
-0.15216792 0.53292733 0.039477531 146.83333
-0.046936449 0.55887491 0.02931584 152.57143
0.069546096 0.54140383 0.017820541 165.125
0.15292898 0.55633307 0.0053095263 173
0.23563462 0.55532408 -0.0048103505 177.5
0.35110417 0.55187398 -0.018205024 176.93333
0.45698819 0.55700237 -0.028962146 176
-0.51375228 0.68658596 0.077709019 210
-0.44686627 0.63659 0.065998957 155
-0.3172926 0.69530272 0.064279705 206.33333
-0.24888799 0.62839931 0.05285383 163.5
-0.13980846 0.67771834 0.045217786 192.75
-0.063280314 0.6333341 0.037924543 161.66667
0.015649706 0.63526165 0.02322951 157.25
0.11614122 0.6436851 0.012697664 162.75
0.24114518 0.64291996 4.355278e-05 170.83333
0.34961399 0.62733096 -0.011766092 174.85715
0.47168019 0.6635043 -0.031465352 172.25
-0.028130265 0.70581323 0.039646134 201.75
0.085404322 0.71384162 0.02337485 199.60001
0.19082113 0.71259636 0.014338708 197.5
0.28672451 0.72067291 0.0051029022 197.14285
0.3831372 0.73207355 -0.0063498113 198.14285
0.4797996 0.75111669 -0.013810842 200.625
0.35075271 -0.74902636 -0.063327365 202.25
0.44502637 -0.71692437 -0.058857117 200
0.53805423 -0.72201455 -0.049382772 200.875
0.64312327 -0.72802585 -0.056290492 201.60001
0.26441956 -0.65701169 -0.027387194 194.61539
0.35026872 -0.64829594 -0.035246082 192.75
0.43628281 -0.66667724 -0.036496304 196
0.52372992 -0.65323615 -0.049164325 195.5
0.29185411 -0.5400728 -0.059695322 185.2
0.35277948 -0.5222891 -0.068119116 183.83333
0.43547103 -0.54201144 -0.07682655 185.5
0.53673995 -0.55095333 -0.084084906 188.33333
0.62880754 -0.54517239 -0.094794229 189.5
0.47209588 -0.48198354 -0.074583076 183.66667
0.53259945 -0.4750725 -0.078235067 185.2
0.61441374 -0.43310788 -0.08430557 185.25
0.72382176 -0.47628474 -0.097160466 190
0.74026084 -0.25994781 -0.080376245 184
-0.73210084 0.03251937 0.072643787 116.5
-0.64201534 0.030593859 0.060808234 128.66667
-0.54109371 0.02778426 0.053065423 142
-0.43883681 0.025425302 0.041199926 151.66667
-0.32454517 0.021930151 0.035177451 154
-0.24990088 0.050146282 0.043712549 139.83333
-0.18431017 0.048716404 0.020847229 150
0.21123028 0.097020157 0.010519668 120
-0.72498316 0.16823782 0.08533366 115
-0.63391602 0.15391457 0.081217401 124
-0.44890779 0.12648353 0.061308894 143.5
-0.30265814 0.099919565 0.079711817 133.75
-0.26170939 0.15137859 0.03799551 147
-0.17264573 0.15857486 0.027916249 152.5
-0.018111547 0.17129503 0.018753998 168
0.068448097 0.14281927 0.084148936 140.5
0.13373372 0.13361828 0.058201805 134.57692
0.20582408 0.10103889 0.0073816823 122.75
-0.64137292 0.28921744 0.078597941 125
-0.45094088 0.23569538 0.060582008 148
-0.38471928 0.21731335 0.052975938 156
-0.10338577 0.28335229 0.031604789 153
-0.014870297 0.22593729 0.048419397 155
-0.74460733 0.31739423 0.093408272 114
-0.69476759 0.30404922 0.084715821 119
-0.15507011 0.3592816 0.042948868 147
-0.51782578 0.67432284 0.13587917 210.14285
-0.33423623 0.68972725 0.13748556 206.42857
-0.16216162 0.68133694 0.11488006 204.08333
0.1767848 0.68895698 0.1000289 198.2
0.26680404 0.68932909 0.11209342 199
-0.33291349 0.6969763 0.1101062 207
-0.053100582 0.717188 0.11019574 201.92308
0.067198761 0.71232849 0.099145204 199.61539
0.17549351 0.70677519 0.086040959 199.42857
0.27158651 0.70503277 0.081872612 198.60001
0.36616066 0.72150117 0.0737774 199.63637
0.46207306 0.74794441 0.072531112 200.36363
0.23052408 -0.71499407 0.091361523 198
0.4084076 -0.7182337 0.10909651 199
0.41051695 -0.71522915 0.098407008 199
0.61881196 -0.71904743 0.031000722 200.625
0.71578699 -0.7196784 0.078189857 201
0.23782124 -0.69766921 0.070242792 197.23077
0.32609814 -0.69689572 0.068755358 196.8
0.44489139 -0.69637132 0.062675126 198.9375
0.53891492 -0.69586068 0.049853269 200.39999
-0.27004248 0.086876966 0.13349122 108
0.061330318 0.11112864 0.14571643 122.875
0.11483039 0.13382724 0.10791002 121
-0.021112947 0.19513395 0.19952016 141
-0.33912998 0.67644566 0.19578487 206
-0.19294754 0.68270355 0.22048454 202.75
-0.18254866 0.68273264 0.1834823 203.66667
0.15825179 0.6732071 0.19614519 199.21428
0.25190401 0.6780504 0.18520287 198.57143
0.34041691 0.68031132 0.19424212 198.14285
-0.18861172 0.68892485 0.1886556 203
-0.083385751 0.70631093 0.24820812 200
-0.075044744 0.71380842 0.20059498 201.375
0.044617262 0.70257252 0.20581651 200.30769
0.34695485 0.69168758 0.16369289 198.14285
0.43555102 0.70400542 0.17549132 198.5
