# .PCD v0.7 - Point Cloud Data file format
VERSION 0.7
FIELDS x y z intensity
SIZE 4 4 4 4
TYPE F F F F
COUNT 1 1 1 1
WIDTH 58
HEIGHT 1
VIEWPOINT 0 0 0 1 0 0 0
POINTS 58
DATA ascii
-7.3332272 -3.4790199 0.75137889 9
-7.3143115 -2.2274234 1.0810176 9.666667
-6.7547297 -2.4434538 1.0324987 10
-5.2107892 -1.2470381 0.74633449 9
-4.6849594 -1.751497 0.47454569 8
-4.113956 -1.4006414 0.47028247 8.8000002
-4.0291257 -1.3815233 0.64479721 10
-3.9132879 -1.0832283 0.53885853 9
-1.5971183 -0.59156471 0.60908788 15
-0.98913866 0.68643171 0.49155605 15
-0.49591315 0.25016305 0.053982724 7
-0.48326844 0.58516705 0.079115406 7
-0.49577576 0.24805824 0.066221066 7
-0.52015167 0.68566734 0.10021867 7
-0.18802893 0.59585941 0.048832454 6.5
-0.13719124 0.7055071 0.098718554 8.25
0.34825906 -0.56135952 -0.085631952 6.6666665
0.363096 -0.36982667 -0.072194375 6.5
0.38597077 0.3730799 -0.032024123 5.5
0.24249227 0.59925926 -0.0013416163 5.6999998
0.095198222 -0.99525326 0.20941229 15
0.31343216 -0.66748464 0.018429322 10.636364
0.21437609 0.6927982 0.15124784 11.444445
0.60560751 -0.52951896 -0.098592386 7
0.58394206 -0.19116355 -0.094589829 5.5
0.4279184 0.31299365 -0.048317458 5
0.46528184 0.63055444 -0.021564746 5.8000002
0.58920139 -0.68513709 0.03420008 11
0.73822051 -0.29277492 -0.083435923 7
0.44978431 0.72890019 0.1210969 10.5
0.95318687 -0.15803255 -0.10608099 6.6666665
1.0396103 -0.66854984 0.084453456 11.95
1.1368395 0.74081403 0.36622769 15
1.3339205 -0.14646855 -0.14137839 6.75
1.4066938 -0.58917707 0.11526927 12.066667
1.4717011 0.75398636 0.29789323 13
1.4891604 -0.50605261 0.26252615 14.666667
1.4638374 0.74947208 0.39015585 14.5
1.7532988 -0.26354083 -0.17851087 7
1.7805049 -0.53755122 0.049620707 10.5
1.8120586 0.76337969 0.23949014 11.8
1.8604771 -0.49784219 0.2866638 14.2
1.8179492 0.75323343 0.40302238 14
1.9600004 0.75464582 0.46125752 14.5
2.2331939 -0.48487085 0.035467099 10.333333
2.3200796 0.74135864 0.1828334 11
2.1943159 0.77715206 0.21206218 11
2.2332094 -0.49599037 0.34693962 14.142858
2.3185868 0.72578722 0.44164252 13.666667
2.199193 0.76134074 0.45222354 13.714286
2.5392675 -0.44116643 -0.0076028854 9.5
2.5478859 -0.20375119 0.0046564438 9.375
2.5449958 0.1845869 0.067031316 10
2.5312037 0.57880878 0.11991297 10
2.5569665 -0.48253441 0.29983655 13
2.5832992 -0.23675796 0.36035672 13.555555
2.5720103 0.16420902 0.39014524 13.555555
2.5566502 0.52690607 0.4353497 13.555555
