# .PCD v0.7 - Point Cloud Data file format
VERSION 0.7
FIELDS x y z intensity
SIZE 4 4 4 4
TYPE F F F F
COUNT 1 1 1 1
WIDTH 53
HEIGHT 1
VIEWPOINT 0 0 0 1 0 0 0
POINTS 53
DATA ascii
-7.8198252 -2.1572967 1.0460919 9
-7.6442733 -1.37374 2.7505777 15
-7.2397294 -2.1738758 0.97274446 9
-5.1491208 -1.6387645 0.61305356 9
-5.1533899 -1.5935423 0.43939084 8
-4.5065732 -1.3394979 0.53696841 8.5
-1.9836236 -0.58552974 0.67965275 14.6
-1.94978 -0.61047029 0.67520112 14.333333
-1.9350755 -0.38866383 0.67532659 15
-1.0469484 -0.43438512 0.36786497 14.5
-1.0993636 -0.41273463 0.39501894 15
-0.99599797 0.70076019 0.48281035 14.5
-1.1547254 0.69287527 0.55931717 15
-0.56776249 -0.97395122 0.28109187 14.5
-0.51970673 -0.65932441 0.027513321 8.5
-0.54117626 -0.32512513 0.042425022 8.333333
-0.14676997 -0.66354954 0.024044665 9.7692308
0.27601317 -0.51840287 -0.076655827 6.4000001
0.35426959 -0.37261087 -0.070369042 5
0.35985425 0.35315716 -0.038887247 5
0.31829935 0.55554032 -0.0071076336 5.6666665
0.18761881 -0.68933958 0.026210524 10.75
0.27405635 0.68909651 0.22077462 13.714286
0.51995552 -0.55692559 -0.10120854 5.75
0.45018318 -0.26418811 -0.093306996 4.1999998
0.57658899 0.20556059 -0.072989777 4.25
0.57563496 0.55675769 -0.022165755 6.25
0.53731358 -0.71638501 0.016753552 10.4
0.64695323 0.69171661 0.16411836 11.461538
0.97771913 0.21269202 -0.078017183 5.75
0.92983651 0.54534316 -0.057842925 6
1.0659312 -0.53588307 0.19897479 13.666667
1.0002371 0.58533949 0.12780534 10.523809
1.1907318 0.71216935 0.370866 15
1.366987 0.31003731 -0.10791796 5.3333335
1.4185153 0.49936348 -0.098944649 6.5
1.4345559 -0.53800225 0.16926666 12
1.3523525 0.65780973 0.19869421 11.5
1.4479761 -0.54601097 0.26705775 14
1.4882313 0.71041846 0.40025693 14.666667
1.8255903 -0.53593749 0.12372987 10.714286
1.708871 0.29707053 -0.029036669 7
1.7585263 0.63919371 0.10901309 9.5384617
1.849843 -0.54727805 0.29450768 13.2
1.8605893 0.69316971 0.42277694 14.142858
2.1204987 -0.49476147 0.097863019 10
2.1543233 -0.22042349 0.12050074 10
2.1516025 0.18057415 0.13976388 10
2.1341779 0.5524469 0.19348471 10.5
2.1700807 -0.49322873 0.30584678 12.5
2.1785331 -0.25349948 0.34419408 13
2.1720047 0.14855488 0.38338456 13
2.1565461 0.55226099 0.39612082 12.875
