# .PCD v0.7 - Point Cloud Data file format
VERSION 0.7
FIELDS x y z intensity
SIZE 4 4 4 4
TYPE F F F F
COUNT 1 1 1 1
WIDTH 15
HEIGHT 1
VIEWPOINT 0 0 0 1 0 0 0
POINTS 15
DATA ascii
-1.0245619 -0.79513192 0.36654752 14.5
-1.025245 -0.6025756 0.35437992 14.5
-1.0391498 0.67464173 0.45452714 15
-0.066197626 0.74007338 0.25070888 14.5
0.18120697 -0.68212789 0.15383172 15
0.27858928 0.59885991 0.21898928 15
0.57307768 0.77319384 0.21295488 13
0.75751847 -0.66432369 0.049414579 11
0.67864954 -0.65667868 0.1581488 14.5
1.1729378 -0.46853536 0.24245492 14.5
1.6842883 -0.44150987 0.19868925 12.5
1.7217795 -0.3652083 0.14397433 11
1.6439294 0.73378664 0.27364278 12
1.7129283 -0.4454779 0.35199279 14.5
1.6449162 0.7496134 0.41606739 14
