# .PCD v0.7 - Point Cloud Data file format
VERSION 0.7
FIELDS x y z intensity
SIZE 4 4 4 4
TYPE F F F F
COUNT 1 1 1 1
WIDTH 53
HEIGHT 1
VIEWPOINT 0 0 0 1 0 0 0
POINTS 53
DATA ascii
-8.0578384 -2.2769678 0.81764424 9
-6.4269214 -1.6882972 0.699018 9
-4.7699027 -1.3274312 0.74203473 10
-2.4379613 -0.6438787 0.79814619 14.5
-1.6297621 -0.47511613 0.46020761 14
-1.5921893 -0.48816574 0.54071534 15
-1.3387955 -0.46713746 0.41974026 14.333333
-1.5103562 -0.48114634 0.48193091 14.5
-1.0924134 -0.61743224 0.37048107 14.5
-0.96293783 0.67359757 0.45616534 15
-1.0383292 -0.82650906 0.41567418 15
-0.6246652 -0.96216625 0.32674128 15
-0.5809235 -0.53925067 0.036350332 8
-0.42638442 -0.38506633 0.022467986 8
-0.12556164 -0.65078324 0.03027395 9.5
-0.3821499 -0.36374021 0.024591377 8
0.2596727 -0.57132852 -0.061330669 6.4285712
0.37850466 -0.34552196 -0.050917052 6.5
0.39559132 0.39817023 -0.033029959 5
0.23847918 0.58129668 -0.0051946626 6
0.20217068 -0.6661737 0.049139179 11
0.26931378 0.63179624 0.13810134 11.666667
0.51107752 -0.54575545 -0.077245764 6.4285712
0.51143616 -0.24938866 -0.087355591 4.625
0.59936076 0.20051512 -0.068448588 4.6666665
0.59876531 0.55262172 -0.032764714 6
0.59622681 -0.66216445 0.052274715 11.157895
0.57342345 0.59067047 0.13690406 11.483871
0.67565715 0.78339255 0.31856626 15
0.98764527 0.29928738 -0.058288258 6.5
1.0100185 0.58743113 -0.0487535 6.5
1.0848843 -0.46897814 0.23148854 14.666667
0.94453853 0.61478668 0.10140399 9.8571424
1.108614 0.82344991 0.26540035 12.6
1.218365 0.79181272 0.40036201 15
1.2637727 0.37999043 -0.075699396 6
1.2419063 0.57959074 -0.074608475 6
1.2542753 0.8580758 -0.052743439 6
1.4152094 -0.45737863 0.23070014 13.5
1.2294775 0.36545992 0.027296433 8.5
1.3550156 0.63619637 0.15131372 10.35
1.3051813 0.819978 0.20668077 11
1.5132135 -0.45964053 0.30916932 14.666667
1.5077912 0.75659341 0.41322142 14.5
1.3973682 0.79644436 0.40543243 14.5
1.652025 -0.44079983 0.19935519 12.5
1.7011287 -0.21626717 0.21772747 12.5
1.6761016 0.16451372 0.24009295 12.5
1.6590624 0.53366983 0.26963803 12.2
1.6395419 -0.45451108 0.33824202 15
1.71383 -0.22621754 0.33908215 14.5
1.6839528 0.18046749 0.36107028 14.5
1.6573292 0.59985471 0.39966863 14.2
