# .PCD v0.7 - Point Cloud Data file format
VERSION 0.7
FIELDS x y z intensity
SIZE 4 4 4 4
TYPE F F F F
COUNT 1 1 1 1
WIDTH 205
HEIGHT 1
VIEWPOINT 0 0 0 1 0 0 0
POINTS 205
DATA ascii
0.091743976 -0.75035012 -0.050574232 199
0.20503086 -0.7300514 -0.064075015 180.33333
0.30652317 -0.71942806 -0.072940558 183.5
0.40185446 -0.72061473 -0.085061446 191.33333
0.49805215 -0.72413939 -0.095357396 196.5
0.59764791 -0.71651548 -0.10648314 200
0.027022753 -0.65098602 -0.037711117 147
0.12467939 -0.66476887 -0.048106287 151.5
0.21876045 -0.67292809 -0.061095752 159.66667
0.32869393 -0.62160045 -0.060767483 167.16667
0.44994426 -0.65920866 -0.08320161 170.57143
0.57991326 -0.66013247 -0.096330442 177.66667
0.67143667 -0.64398372 -0.10143868 180.42857
0.75782102 -0.60907388 -0.10671742 163
0.091344148 -0.53289098 -0.038009562 159
0.16984633 -0.54744899 -0.044698119 164
0.24835473 -0.54786932 -0.051608302 169.44444
0.35191986 -0.54472625 -0.062792778 174.69231
0.45073342 -0.56121528 -0.075639479 172.36363
0.54372448 -0.54148972 -0.080607049 172.14285
0.6321618 -0.52928889 -0.089623705 174
0.7318759 -0.56497478 -0.10672868 169
0.076156877 -0.42638701 -0.052396297 174
0.15295455 -0.459198 -0.053822998 175.3125
0.2430976 -0.46391848 -0.072154708 177
0.35485542 -0.46497196 -0.0730085 176.0625
0.43493778 -0.44806224 -0.07890214 171.8
0.53367269 -0.4320713 -0.070227623 169.58824
0.65007776 -0.45220202 -0.081142865 170.875
0.030064765 -0.3772378 -0.042533074 172.8
0.14816916 -0.36970833 -0.041682824 175.5
0.26272741 -0.38068178 -0.049901392 172.5
0.37327349 -0.3639448 -0.057291433 159.46153
0.45811462 -0.33606076 -0.067026526 147.8
0.55226666 -0.3485173 -0.074195474 152.77272
0.60891598 -0.3703821 -0.066173717 162.16667
-0.11054395 -0.233421 -0.023754925 162
-0.066868678 -0.21245378 -0.028556529 168.33333
0.051331636 -0.21974421 -0.064350225 165.85715
0.14927854 -0.22624624 -0.06802249 152.40909
0.24857606 -0.23541676 -0.066533342 145.92308
0.32202163 -0.2195944 -0.072963484 151.64999
0.45303684 -0.24425489 -0.092550896 150.58182
0.52286875 -0.24925588 -0.076023512 148.82857
-0.016933516 -0.18853611 -0.036656141 173
0.047225814 -0.16805054 -0.065436579 163.35001
0.15203957 -0.1422276 -0.048037365 147.88
0.24897313 -0.14184082 -0.059054345 152.26042
0.35065946 -0.14017178 -0.071608745 154.1057
0.44292337 -0.14132643 -0.090495758 157.875
0.50608152 -0.17792042 -0.10920085 154.44444
0.1851718 -0.092178762 -0.049558848 154.75
0.25871709 -0.071854368 -0.071634665 156.35001
0.36318374 -0.040734828 -0.081752285 160.76334
0.41340587 -0.04898721 -0.078480825 162.08081
0.38313332 0.048037648 -0.076384924 162.52318
0.43007016 0.048914373 -0.069764435 163.98723
0.53482097 0.078790851 -0.084285878 164.09677
0.60482091 0.096906446 -0.085128538 168.33333
0.28933409 0.1875011 -0.052112136 162.375
0.35573399 0.14758028 -0.061134059 161.91304
0.44396681 0.14368616 -0.068467222 163.7561
0.54965818 0.15475419 -0.085949734 166.81944
0.63357294 0.14286019 -0.061073724 173.39473
0.7422995 0.16847038 -0.064712837 180.58824
0.83302015 0.19561553 -0.061375987 186.66667
0.26656711 0.25904739 -0.058238134 169.44444
0.34317097 0.24551047 -0.063800648 168.04546
0.44328469 0.25741374 -0.076259695 168.61667
0.54133826 0.24711616 -0.05995236 173.16667
0.65328687 0.25772652 -0.057466146 178.81818
0.73318988 0.24139091 -0.051853646 182.42857
0.85695446 0.2473681 -0.056621168 188.58333
0.92305934 0.23426515 -0.054376572 189
0.18690185 0.36588839 -0.017553845 176.5
0.24763401 0.34411946 -0.039071262 173.55263
0.35147533 0.34419325 -0.044953894 174.13637
0.44690296 0.33149004 -0.043059595 175
0.55068958 0.35474861 -0.050931089 178.83333
0.63831776 0.35264078 -0.045755573 182.29167
0.74952435 0.35347679 -0.045268342 185.89999
0.82280999 0.33834049 -0.05218605 188.16667
0.92057788 0.33886337 -0.067878664 191.5
0.15120612 0.46594453 -0.0088228714 182.7
0.25147152 0.46017671 -0.027037324 180.19048
0.35919145 0.46091935 -0.028197739 180.22728
0.44329405 0.45513576 -0.035894837 181.16667
0.53616035 0.43772465 -0.031487875 182.95238
0.65527713 0.45243055 -0.035460245 186.75
0.73839104 0.43726072 -0.041274611 188.625
0.8527776 0.46229181 -0.060553957 192
0.079851836 0.55854106 0.0074834609 188
0.17035949 0.55286008 0.0022436148 187
0.25210422 0.5437631 -0.003204721 186.42857
0.35787418 0.54069901 -0.010590799 186.27272
0.45945728 0.55831617 -0.019260552 188
0.54673773 0.55744231 -0.023224341 192.625
0.62363827 0.52794284 -0.026892848 192
0.7429384 0.57308513 -0.043172281 196.57143
0.81039673 0.54105866 -0.052212793 192
0.028535288 0.65629536 0.0061031915 188.60001
0.1362801 0.64551944 0.00033607299 190.5
0.23229413 0.62617397 0.0012111483 198.39999
0.34752515 0.61568648 -0.0021350554 197.125
0.45176169 0.61543465 -0.013455177 197.66667
0.75736231 0.61567253 -0.059454761 203
-0.020908382 0.74465734 0.019719349 204.33333
0.086865537 0.77651876 0.0039586788 205
0.11297305 0.70934081 -0.0017621591 191
-0.15761428 -0.74019694 0.010119822 188.18182
-0.022725323 -0.72991675 0.0096023288 191.41667
0.094190381 -0.71942574 0.011459073 195.7
0.10868447 -0.70119071 -0.036381371 158
-0.61913353 -0.6396246 0.03698571 114
-0.21622796 -0.63578027 0.011253926 139.8
-0.15229824 -0.64841098 -0.013982336 141.5
-0.069451094 -0.6228168 -0.018981257 141.60001
0.027296931 -0.6486817 -0.030894758 144.39999
0.16518414 -0.66035789 0.0051013697 173.75
0.24707304 -0.66973555 0.010379869 192.3125
0.36733556 -0.6616748 0.00036620334 194.57143
0.47017097 -0.65262347 -0.0015986287 195.63637
0.56247193 -0.65526628 -0.014185004 196.39999
0.6670894 -0.67024451 -0.02497451 197.83333
-0.53578454 -0.58610511 0.030990852 119.33334
-0.46620047 -0.54167384 0.019986225 128.66667
-0.13539253 -0.55099392 -0.0071477713 140.42857
-0.021674305 -0.55651194 -0.019951316 145
0.05132708 -0.54101121 -0.024374316 151.5
0.1565202 -0.57669902 -0.032269783 153
0.23458266 -0.59848267 -0.044600319 163
-0.62437373 -0.48014626 0.046582796 114.5
-0.54938829 -0.4441798 0.033842392 123.25
-0.4708057 -0.40636191 0.031769589 133
-0.36477223 -0.47634318 0.017083069 142
-0.28069663 -0.42232001 0.011438442 150
-0.039544147 -0.44785088 -0.0078400895 148.7
0.040964548 -0.45493579 -0.021907181 159.875
0.11846889 -0.48002562 -0.026491309 168.5
-0.43102208 -0.38726658 0.025659725 140
-0.34038413 -0.34368053 0.019067897 149.16667
-0.24580857 -0.36444241 0.012334233 146.33333
-0.15636384 -0.34175101 0.019111285 141
0.035988018 -0.36767825 -0.016970729 165.66667
0.1621969 -0.32665896 -0.015079704 171
0.26295921 -0.32490894 -0.012742113 166.75
0.34405997 -0.31730336 -0.021902217 159.5
-0.2257559 -0.28844333 0.021247275 147.25
-0.14705023 -0.25064981 0.0098018441 148.63637
0.098747246 -0.2502721 0.048914969 161.33333
0.14385349 -0.24849944 0.015422627 146
0.23984851 -0.26717395 0.0045425524 142.2
0.34281543 -0.27976686 0.0055435053 142
0.085897595 -0.18508475 0.028815089 128
0.18219967 -0.1801749 0.04900445 125.5
0.2456598 -0.17886117 0.068913139 123
0.32541022 -0.17906053 0.041297529 121
0.27957365 0.57849896 0.1003559 196.85715
0.36740118 0.57690239 0.080117665 196.36363
0.45482081 0.58123529 0.092001766 196.5
0.53225577 0.55038279 0.052840341 195.45454
0.6475659 0.56799018 0.051241923 198.05
0.7214852 0.57433796 0.017254371 201
0.19985354 0.68792045 0.096132688 205
0.22337356 0.61003125 0.066800915 198.2
0.34144592 0.61047214 0.032861229 196.75
0.46857151 0.61493069 0.043347843 197.33333
-0.045147292 0.76229548 0.092088275 206.63637
0.072358012 0.77274269 0.083870389 205.54546
0.18062086 0.7641176 0.10521993 206.16667
0.066476077 0.80064476 0.061331488 206
-0.16934365 -0.73997712 0.10070704 199.875
-0.043775592 -0.74152499 0.11203253 197.41667
0.087653458 -0.71551001 0.063618377 195.5
0.086427569 -0.69759881 0.11662652 196
0.18955326 -0.68263292 0.10217856 194.46153
0.28130588 -0.68321735 0.097066112 192.85715
0.36889353 -0.67907494 0.094290279 192
0.45470366 -0.66630352 0.091280565 192.21428
0.54166132 -0.65063864 0.085915379 193.35715
0.63474512 -0.64626509 0.084401771 195
0.7489211 -0.66688621 0.097693995 196.33333
0.0035253998 -0.38289589 0.14207275 160
0.047229942 -0.33271196 0.167206 208
0.099639423 -0.22402811 0.089681625 151.5
0.1126702 -0.21189444 0.10480611 141.83333
0.24407233 -0.21799974 0.083378807 144.66667
0.30977133 -0.212813 0.083085723 128
0.16038705 -0.18092507 0.10280471 123.33334
0.25656122 -0.18087682 0.092852056 118.76471
0.32389522 -0.18246537 0.089046545 118
0.29098275 0.58197212 0.16061471 195.28572
0.36726961 0.57941091 0.15757219 195.5
0.44199869 0.57239765 0.15904374 196
0.56270653 0.54528344 0.14430676 193.76471
0.68311095 0.56778365 0.13659029 197.625
0.80863595 0.57648426 0.18187797 200
0.81390131 0.5803684 0.16443554 201
0.28086701 0.59195465 0.21022549 195
0.35896695 0.59270644 0.20683005 195
0.53475279 0.62065786 0.16754949 193
-0.063227363 0.75759917 0.19165413 204
0.055222213 0.76277924 0.18854415 204.75
0.16715762 0.75931448 0.18112195 205.25
0.57498401 0.77479023 0.20406146 201
