# .PCD v0.7 - Point Cloud Data file format
VERSION 0.7
FIELDS x y z intensity
SIZE 4 4 4 4
TYPE F F F F
COUNT 1 1 1 1
WIDTH 119
HEIGHT 1
VIEWPOINT 0 0 0 1 0 0 0
POINTS 119
DATA ascii
-7.4521966 4.0343652 0.27610248 10
-7.5311742 3.7304599 1.6497028 15
-7.5768976 3.6495161 1.7587512 15
-6.8514585 4.8343511 0.57966971 12
-6.9685516 4.7255878 1.3867385 14
-6.5569973 4.8132563 -0.44601265 8
-6.5708852 5.4380636 -0.53196388 8
-6.733542 5.1415663 -0.30244821 9
-6.641263 5.3248167 -0.29566926 9
-6.7729096 5.0992684 0.04117259 10
-6.6498513 5.366981 0.11505567 10
-6.7479577 5.1681042 0.55020648 12
-6.597775 5.4544973 0.72090679 12
-6.5933075 5.5206509 1.6520143 15
-6.3790755 4.4698105 -0.28549463 9
-5.8086505 3.1937389 0.10837961 10
-5.7711058 3.3458967 0.10991053 10
-6.013052 5.9682751 -0.1480311 9
-5.8502479 6.1843367 -0.14226028 9.5
-5.6917672 5.3812618 0.13392627 10
-5.8151851 6.2549953 0.090072915 10
-5.8370581 6.274467 0.39331913 11
-5.3540921 2.9970114 -0.092963882 9
-5.3232827 4.7178869 -0.061060514 9.5
-5.5950284 5.5059657 -0.35523164 9
-5.5608735 6.5880814 -0.3803924 9
-5.6153793 5.4784751 0.098763019 10
-5.6046529 6.5382304 0.08399988 10
-4.9341979 4.4562287 -0.3160533 8
-4.7312131 3.5266254 -0.43158638 8
-4.707643 3.6877661 -0.4314574 8
-4.4767189 3.4472833 0.2577413 11
-4.5857768 3.7096136 0.15133524 10
-4.4805617 2.9114714 0.62101346 12.5
-4.5753279 2.863549 0.86136955 14
-4.5015588 3.0281515 0.79124516 13.5
-4.0275068 4.2604012 -0.34335807 8
-4.2506227 5.4037361 -0.41657841 8
-4.1165457 2.856359 0.34308389 12
-4.0967202 4.3066669 -0.16505788 9
-4.0531626 4.4658642 -0.16408014 9
-4.2873163 5.2448692 0.0083249463 10
-4.0537958 2.4458647 0.4867183 12
-4.2361474 2.9828455 0.44605026 12.5
-4.2278562 5.2444139 0.15517606 11
-3.9183915 2.0897262 -0.0088619888 9
-3.7113743 2.7047012 -0.087140277 9
-3.6615467 2.7988589 -0.24373348 8
-3.7459888 2.4058285 0.2038082 11
-3.997839 2.5134175 0.19554949 11
-3.7353234 2.3270161 0.56861264 13.5
-3.8900833 3.9215817 0.38321099 12
-3.6172957 2.4105227 0.20954165 11
-3.5321696 2.5532098 0.14421251 10.5
-2.1056378 1.3171467 0.10760296 11
-2.2057741 1.2305744 0.49193284 15
-2.1362441 1.2827224 0.32831952 13.5
-1.7909075 1.3885021 0.090336703 11
-1.8877579 1.6852502 0.092408396 10.5
-1.8142264 1.4917697 0.34282616 14
-1.8299829 1.7374275 0.37515807 13.857142
-1.4672487 1.5928423 0.16303362 12
-1.5364119 1.6605955 0.13310269 11.5
-1.5779457 2.0355902 0.081895791 11
-1.326077 1.636582 0.31542462 14
-1.4950401 1.8206304 0.338202 14
-1.5814607 2.1045208 0.31592342 13.6
-1.0618553 1.4769225 0.18173447 13
-1.0026237 1.7675164 0.1710531 12.333333
-0.98412848 1.4558488 0.27614781 14.666667
-1.0514084 1.7964237 0.2973814 14.142858
-0.46471599 -0.55876815 0.055693895 8
-0.44578394 -0.28401238 0.019791668 8
-0.78058141 1.6104295 0.20709403 13
-0.60468304 1.4871025 0.2691606 14.75
-0.19067633 -0.6060515 0.044201665 7
-0.043937821 -0.82555205 0.14077425 9.5
-0.21150097 -0.63319355 0.075088158 8
0.19818394 -0.90933853 0.066734277 6
0.2189973 -0.60013533 0.050667711 6.3333335
0.36001879 -0.36978972 0.041857254 6.5
0.36585131 0.3679221 -0.019607173 7
0.31940293 0.48533124 -0.033462465 7
0.20981888 -0.95386499 0.20003603 10.071428
0.040333431 -0.53181881 0.05585302 7
0.36262387 0.38570023 -0.012639346 7.5
0.25672945 0.65071565 0.054372944 10.947369
0.073374189 0.82381284 0.075235479 12
0.66824287 -1.204535 0.12458511 7
0.60741764 -0.89218765 0.090561546 6.5
0.47580719 -0.58452868 0.059258632 6.5
0.45358622 -0.26295277 0.021915432 5.75
0.61135316 0.19831797 -0.011293662 6
0.48307773 0.44117332 -0.023365276 7
0.7718181 -1.1802703 0.40755165 12.5
0.55396438 -1.0585752 0.32535136 11.777778
0.69733763 0.25994608 0.10578139 10.421053
0.56920034 0.51422065 0.10041893 11.3
0.86010945 -1.2203729 0.11598527 6
0.96941555 -1.2241404 0.39969534 11.4
0.88077974 -1.0245254 0.47678274 14
0.90234721 0.15507255 0.19000927 11.4
1.0629419 -1.2006079 0.60572791 14.666667
1.1935999 -1.1762106 0.46460238 12
1.3616961 -0.94374728 0.46687201 12.363636
1.5290067 -0.67292231 0.46564454 12.5
1.4883431 -0.0098521663 0.41172466 13.5
1.3741297 0.18425426 0.38309988 13.7
1.1936103 -1.1607265 0.62470639 14.5
1.3541838 -0.93332738 0.59545147 14.5
1.5253547 -0.67183661 0.58894855 14.5
1.528108 -0.036033228 0.49779472 14.5
1.4090904 0.15479909 0.46514973 15
1.6361622 -0.52845931 0.44424132 12
1.7476553 -0.15777071 0.41264364 12.1
1.6514188 0.10943346 0.38084725 12.5
1.6554297 -0.47967452 0.58258575 14.2
1.7164869 -0.1846353 0.57079709 14.666667
1.6550407 0.11877664 0.47403613 14
