# .PCD v0.7 - Point Cloud Data file format
VERSION 0.7
FIELDS x y z intensity
SIZE 4 4 4 4
TYPE F F F F
COUNT 1 1 1 1
WIDTH 202
HEIGHT 1
VIEWPOINT 0 0 0 1 0 0 0
POINTS 202
DATA ascii
0.090267271 -0.91017342 0.058357213 154
0.22021419 -0.93468297 0.063581049 144.5
0.34775347 -0.90947217 0.074978627 139
-0.15597388 -0.8097738 0.058673881 207
-0.028218631 -0.8446157 0.065125108 191.66667
0.089887388 -0.89053982 0.078658342 208.5
0.10908335 -0.84328169 0.063025549 144.5
0.23503065 -0.83004653 0.068438999 138.66667
0.34870654 -0.83397985 0.076149389 140
0.46114656 -0.82581097 0.081223123 137.33333
0.57315326 -0.80188996 0.084661804 143
-0.25405449 -0.72764003 0.049479391 205
-0.12171604 -0.7573145 0.056905232 172
-0.095268652 -0.71866459 0.052028414 142
0.013674157 -0.75785542 0.059797339 139
0.13402338 -0.76305193 0.061028223 136.75
0.25131536 -0.73637968 0.062728748 142.8
0.35219374 -0.73756582 0.069780484 148
0.45421565 -0.74739468 0.07247211 150
0.563012 -0.75383574 0.075337321 147
0.66356552 -0.71923858 0.074671708 146
-0.34388837 -0.63629609 0.040514562 162
-0.21501482 -0.68034309 0.05294086 154
-0.18990061 -0.65385824 0.045673862 144
-0.044467941 -0.63909841 0.052780107 136.39999
0.063129708 -0.6538533 0.055781603 138.5
0.166664 -0.65984493 0.056701917 147.33333
0.26634645 -0.64976853 0.057576306 156.5
0.35547769 -0.64996648 0.063638836 159.75
0.44633275 -0.66098225 0.06377288 159.8
0.54158449 -0.66251355 0.065890074 160.8
0.63208103 -0.63813239 0.06681487 158.16667
-0.50737298 -0.59646028 0.023164254 195.5
-0.44401735 -0.55152369 0.030410733 144
-0.27114743 -0.57203889 0.037940793 140
-0.13127141 -0.54667908 0.0430739 138.75
-0.050658926 -0.56345385 0.043980647 139
0.070556268 -0.54270518 0.052260693 147
0.15385319 -0.55180055 0.049767341 159.55556
0.25799152 -0.54573464 0.052035522 166.75
0.35902002 -0.54892349 0.057509638 170.33333
0.43419251 -0.55280399 0.061210863 169
0.54754674 -0.54012913 0.06255424 170
-0.79203188 -0.40833688 0.00078165071 204
-0.17374022 -0.48599938 0.034465335 138
-0.016086606 -0.45233315 0.039328519 147
0.066951387 -0.435002 0.035052475 160.5
0.15021998 -0.44534034 0.023560891 170.73685
0.24929303 -0.47088858 0.030964406 173.17647
0.34023368 -0.46138003 0.029884346 171.83333
0.45980752 -0.45125037 0.045894388 168.39131
0.54862565 -0.43100598 0.05949267 166.85715
-0.013209312 -0.3499667 0.011606112 161.71428
0.052224491 -0.36179787 0.012219582 167.64285
0.15003568 -0.33014807 0.01247518 168.57692
0.24983898 -0.33853287 0.019017888 155.27272
0.34620002 -0.34047785 0.032608792 148.6875
0.43877456 -0.33920902 0.044433277 145.95653
0.5208922 -0.35522863 0.04602851 151.2
-0.03711275 -0.27755058 0.022543598 161.39999
0.074099019 -0.27608567 -0.00067016465 167.375
0.15679857 -0.25472116 -0.0073928605 150.55173
0.25362328 -0.24550447 0.0051912474 140.28572
0.3484765 -0.24837865 0.0073159942 145.60001
0.45030662 -0.25725672 0.01454554 143.89062
-0.1360345 -0.1460737 -0.0056283674 154.81818
-0.032218885 -0.15308087 -0.01096002 166.71428
0.043998308 -0.15234657 -0.02364633 161.36667
0.1547596 -0.15494703 0.0025132131 142.04762
0.25589511 -0.14620596 -0.001406143 146.81915
0.34986985 -0.14307961 -0.00049184088 149.93805
0.42398551 -0.1465776 0.0070446162 150.47693
-0.10522979 -0.099465884 0.0040178676 156
-0.048852719 -0.090605676 -0.019457828 167
0.060470488 -0.072469302 -0.017286608 155.625
0.15798861 -0.065606087 -0.0073819961 146.69643
0.25688165 -0.061057467 -0.033726729 151.8772
0.36541131 -0.043451183 -0.038503852 158.22984
0.41113797 -0.061952766 -0.021089735 158.55225
0.39270934 0.034539249 -0.038166188 158.18349
0.43881276 0.040525749 -0.024636708 160.94649
0.53754878 0.055870529 -0.0018220145 159.16394
0.64197206 0.061517205 -0.0026360319 166.61111
0.76679319 0.066730529 0.021273214 178.85715
0.36466229 0.14412129 -0.022233199 155.38202
0.44234452 0.1419636 -0.012398755 158.00847
0.54840958 0.14561084 -0.016245108 161.20409
0.6273334 0.1433904 -0.0055301241 169.85715
0.76152551 0.14683484 0.012611737 179.42857
0.29335129 0.27567187 -0.022486443 165.66667
0.34394395 0.2379602 -0.015939927 166
0.44323012 0.24382165 -0.017726975 167.32608
0.55249697 0.24049877 -0.019268896 170.93024
0.66624886 0.25783139 0.0030768134 178.8
0.73197621 0.23747568 -2.6830428e-05 183.5
0.27176055 0.34640962 -0.037497263 168.53334
0.34726426 0.3479391 -0.036852729 169.25
0.43957266 0.33003905 -0.029757157 171.125
0.53611779 0.34007213 -0.016478481 174.90909
0.63880199 0.35189605 -0.0073172865 179.25
0.26858971 0.4918626 -0.037591293 180.33333
0.36167973 0.47921106 -0.032334413 179.33333
0.43736967 0.46171483 -0.028259179 177.8
0.54346323 0.42454726 -0.018196179 178.39999
0.36048666 0.49933568 -0.033034232 180
0.067403518 -0.90179688 0.13984545 205
0.18958813 -0.9249658 0.17091545 207
0.20493811 -0.91928196 0.12258565 207.60001
-0.043166324 -0.83139104 0.1300665 204.39999
-0.25638056 -0.70607996 0.10796688 204.33333
-0.14808021 -0.76600033 0.11839656 204.11111
-0.36683202 -0.64204252 0.084898278 200.27272
-0.14660496 -0.60081786 0.050924387 141
-0.043061543 -0.63358939 0.059071403 138
-0.44681829 -0.53647542 0.093403563 205.85715
-0.3982245 -0.51837951 0.038118161 141
-0.24383168 -0.54545128 0.044352774 145.66667
-0.16473897 -0.54382253 0.046885546 141.5
-0.068714745 -0.51060796 0.0478325 140
0.027642697 -0.52550679 0.055102725 143.2
0.10712349 -0.55641443 0.059257127 148
-0.35222661 -0.48735347 0.037422203 139
-0.26008993 -0.42441091 0.038979392 143
-0.12130595 -0.43514064 0.046242021 138.66667
-0.049683444 -0.45092639 0.048057165 142.28572
0.045277774 -0.43396303 0.046390805 153
0.54469609 -0.42543596 0.066026218 164
-0.65510142 -0.35746706 0.01835628 127
-0.56136292 -0.3250159 0.016407618 130.33333
-0.14587852 -0.34509352 0.045726519 141.75
-0.058599979 -0.35343364 0.041168541 147.63637
-0.70919722 -0.22594011 0.01219335 116
-0.64834404 -0.21281143 0.014458663 118
-0.45346421 -0.28639546 0.021580897 136
-0.35586399 -0.25213358 0.022265665 144.8
-0.24771328 -0.21284448 0.030806823 140.83333
-0.04897264 -0.28318462 0.031486686 156.16667
0.022447001 -0.23321854 0.037244298 160
-0.55610615 -0.19146162 0.029266475 125
-0.3491981 -0.14734243 0.032681972 143.16667
-0.24865043 -0.12468921 0.043853689 129.5
-0.16595761 -0.14911284 0.024634413 140.29411
0.049316097 -0.17746681 0.060595077 139.5
0.15572664 -0.13322333 0.073816769 128.64
0.68440694 0.082927838 0.025876274 174.71428
0.74050206 0.063538231 0.03078747 177.33333
0.83597285 0.085001722 0.080669597 188.3158
0.66882026 0.16148822 0.019394346 175.07143
0.77449787 0.16975504 0.054010306 185.16667
0.82718515 0.14542736 0.075245544 187.60001
0.29736137 0.25625026 -0.010842213 163
0.32348794 0.22722881 -0.0066865222 165
0.58425736 0.27249673 0.0079044672 175
0.64993143 0.26333821 0.045269348 180.45946
0.72513622 0.22926392 0.06065179 184.30769
0.25177363 0.38848951 -0.018280856 174.75
0.33228907 0.3871125 -0.013694796 174
0.44241068 0.37458965 -0.0058667539 173.5
0.53316259 0.33749598 0.00038018334 175.125
0.64298695 0.34662005 0.026207147 181.85715
0.24603337 0.45039785 -0.022327645 178.61539
0.33814552 0.41900632 -0.012413252 175.5
0.46366146 0.45942816 -0.011630216 179.46666
0.55547583 0.46808267 0.0091155283 187.46153
0.63734108 0.44372389 0.040293124 192.65625
0.1883911 0.56610739 -0.017892588 186.25
0.25580618 0.52715737 -0.016897188 183.25
0.35288149 0.52994227 -0.013477589 183.3
0.44750929 0.54532415 0.022116872 192.0303
0.55392247 0.51771057 0.05383072 195.57143
0.16687308 0.62937862 -0.021755742 187.2
0.24653399 0.66095984 0.0017355457 196.5
0.33880305 0.64810163 0.0080271354 196
0.11803321 0.77109951 -0.027755011 200.27272
0.090611286 0.82195038 0.0094213421 202.5
0.050817754 -0.8896386 0.20486984 204
0.16597539 -0.93812853 0.24295673 205.8
-0.061690502 -0.80337626 0.22707553 203
0.044261165 -0.86509216 0.24973471 203.57143
-0.26634467 -0.68924356 0.17662576 202.60001
-0.16092008 -0.74267673 0.20057294 202.375
-0.37861311 -0.63080007 0.1502274 202
-0.25815827 -0.1184829 0.10859296 114.75
0.068289183 -0.12630056 0.13731624 124.45454
0.12338185 -0.14162752 0.12322192 122
0.87860036 0.10352694 0.18182074 189
0.75215447 0.19530268 0.17044488 184
0.81389087 0.15653534 0.17132638 185.92857
0.68720448 0.28381643 0.12095638 182
0.72055483 0.26714021 0.15831687 182.74193
0.65921825 0.34265476 0.12989593 182.86667
0.71171582 0.37131476 0.17758113 183.23077
0.66221505 0.48074615 0.12408948 194.8
0.70469964 0.46239141 0.16181417 189.5
0.38758326 0.606776 0.13304719 195.85715
0.44700062 0.58636093 0.10751132 195.5
0.54670942 0.55661762 0.12070114 194.52942
0.61746275 0.53033525 0.13983902 194.16667
0.21707274 0.70223749 0.080009103 199.72728
0.31587318 0.6780811 0.10239368 196.46666
0.20123321 0.71688443 0.12803704 199.66667
0.073721446 0.82531744 0.071744189 203.08333
