# .PCD v0.7 - Point Cloud Data file format
VERSION 0.7
FIELDS x y z intensity
SIZE 4 4 4 4
TYPE F F F F
COUNT 1 1 1 1
WIDTH 558
HEIGHT 1
VIEWPOINT 0 0 0 1 0 0 0
POINTS 558
DATA ascii
-4.1226568 7.4021988 0.70616317 9
-4.1067519 7.9186683 0.50881505 9
-4.0866294 8.1850805 0.76267499 9
-4.1055207 6.6931767 0.98795909 11
-4.1104417 7.9389858 1.1478945 11
-4.0664835 8.1466084 1.0637236 10.5
-4.0433431 6.2290683 1.351772 12
-4.0013428 10.410314 1.3524325 10
-4.1192074 6.6894574 1.6342058 13
-4.0629082 7.4409957 2.2489886 14
-4.072958 8.0667372 2.1474848 14
-3.9816096 7.5617085 0.80297387 10
-3.7196691 8.269228 0.67900783 9.5
-3.9785903 7.9891601 0.84164184 10
-3.763824 8.2713499 1.0482959 10.333333
-3.719507 8.7530127 1.0135958 10
-3.8063066 8.2551126 1.4277833 11.5
-3.6882718 8.7808027 1.4994457 12
-3.9233515 13.05369 1.3340529 10
-3.7046359 8.2728996 1.779927 12.5
-3.8770814 10.243322 1.8912045 12
-3.9701462 10.737088 1.7566345 11
-3.8560417 10.922362 1.973426 12
-3.9370418 12.331772 1.9718958 11
-3.9011738 12.725407 1.6992238 11
-3.909941 8.2328281 2.1816218 14
-3.7910042 11.57595 2.0495219 12
-3.8819079 12.373889 2.2479343 12
-3.8039289 13.054117 2.2038553 11.5
-3.7358949 13.409313 2.27353 12
-3.9916945 8.0504637 2.68942 15
-3.7756839 8.502039 2.7117677 15
-3.8277626 12.504903 2.5468271 13
-3.6086972 13.394138 2.6816041 13
-3.6705697 11.725261 2.9459162 14
-3.227632 5.8003526 0.75752831 10
-3.4242146 8.2335844 0.58640897 9
-3.4254205 4.9749579 1.1935557 13
-3.3875048 5.7187529 1.0196966 11.5
-3.3314593 17.963396 1.108384 9
-3.2742476 5.2893929 1.5498691 14
-3.3881059 5.732646 1.3270968 12.5
-3.5952468 9.1464052 1.5497187 12
-3.3482299 16.392073 1.581919 10
-3.4011765 5.127593 1.6965423 15
-3.2406626 5.2883296 1.7249953 15
-3.2052 5.7640815 1.6476126 14
-3.5761707 8.8936052 1.7074618 12
-3.390738 9.0252867 2.5996747 15
-3.2757032 13.391607 2.6690488 13
-3.0797739 5.7339878 0.46535954 9
-3.0758266 5.7177076 1.0434263 11.666667
-3.0298569 5.6891799 1.323338 13
-2.9092367 16.175203 1.5675313 10
-2.986155 5.8040724 1.7414957 14.5
-3.0906932 8.5518227 2.6912742 15
-3.1856406 18.307884 2.7969756 11
-2.9694691 12.602738 3.1525693 14
-2.9176161 18.34218 2.8463283 11
-2.7607596 5.7940063 0.49362648 9
-2.5791938 6.674963 0.62918228 9.5
-2.5615807 6.5954542 0.86255777 11
-2.5844815 16.181826 1.0635153 9
-2.7253342 5.7561598 1.3717617 13
-2.6372914 16.186743 1.4554749 9.5
-2.7861073 5.8628039 1.8386652 15
-2.0126119 5.6674213 0.79825747 11
-2.1487105 6.7990851 0.59489852 9
-2.2406342 6.865675 0.75208861 10
-2.0757143 8.6757126 0.58641291 9
-2.3056011 6.5975246 0.82037753 10
-2.3235681 6.9066343 0.88803852 11
-2.2403381 7.8035941 0.84678322 10
-2.193469 16.169643 1.0890479 9
-2.1916151 5.6778746 1.3074603 13
-2.2137792 16.168543 1.4807665 9.5
-2.1896677 5.7444296 1.7137408 14.5
-2.2901349 16.184942 1.7779301 10
-2.1977119 8.5392742 2.6530581 15
-2.1777542 8.9487534 2.5656426 15
-2.2025218 18.305353 3.041975 12
-1.9596676 5.6731844 0.68409693 10
-1.8952414 7.001265 0.53061664 9
-1.8226801 7.5198464 0.65684193 9
-1.9346725 8.7116394 0.67228734 9
-1.9110943 7.9179373 0.83402884 10
-1.8994943 8.8626356 1.0390837 10
-1.8064573 16.158695 1.112717 9
-1.8287029 5.6408129 1.2979274 13.333333
-1.7442368 16.153994 1.5674196 10
-1.9162053 5.7562284 1.6369708 15
-1.7590269 12.224229 2.0021372 12
-1.8889347 12.044114 2.1919227 12
-1.8702035 8.6403685 2.6706822 15
-1.9527539 8.9547081 2.5662553 15
-1.6037987 18.273882 2.4697533 11
-1.6624795 12.353591 3.129822 14
-1.9804763 12.425187 3.137639 14
-1.7635298 18.249968 3.024982 12
-1.3141193 2.1652572 -0.10741695 6
-1.2738129 2.7699831 -0.12757619 6
-1.4989052 3.1486087 -0.14996234 6
-1.2970114 3.8654633 -0.18277708 6
-1.2351843 5.5167065 -0.15716587 6
-1.345969 -1.3397796 0.328062 12
-1.444257 -0.96245009 0.35051927 12.8
-1.4244051 -0.58426416 0.34888986 13.285714
-1.414629 -0.34281734 0.33580482 13.5
-1.3458066 0.78396893 0.39894372 14
-1.3366519 0.95973033 0.37427974 13.333333
-1.353153 1.4160314 0.37140176 12.5
-1.3628222 1.8000884 0.36637527 12
-1.2688241 2.0787604 0.36230284 11
-1.3660738 -1.3257501 0.48981199 14
-1.4386292 -1.0103106 0.4781374 14.5
-1.4378592 -0.59463102 0.42329854 14.5
-1.4140402 -0.34875932 0.43304554 15
-1.380432 0.97302985 0.45760843 14.4
-1.3714465 1.3970619 0.47689795 14
-1.3597856 1.7946823 0.54921663 13.875
-1.346974 2.0456457 0.56889951 13.5
-1.2796108 5.631834 0.80064344 11
-1.3536758 7.0886102 0.66583735 10
-1.3827566 5.6393409 1.0152773 12
-1.4194453 16.147631 1.1373792 9
-1.3444071 5.6122355 1.2203629 13
-1.4742832 16.141346 1.4720782 9.5
-1.517148 16.144899 1.7505451 10
-1.4512253 8.5078487 2.6252191 15
-1.2807586 8.9075384 2.5561874 15
-1.1997228 13.471954 2.6284139 13
-1.201812 13.749086 2.4443974 12
-1.3780768 18.270802 2.9275954 11.5
-0.89375681 0.54656637 -0.019982528 6.5
-0.95770401 1.0687108 -0.048832729 6
-1.0192168 1.3820802 -0.06391079 6
-1.0110309 1.7766252 -0.082763083 6
-0.87511688 2.1029172 -0.097195528 6
-1.1259247 2.5234456 -0.1186067 6
-0.89731067 2.9402075 -0.13046733 6
-1.0700319 3.3400364 -0.15306938 6
-0.81455958 4.1439133 -0.19535737 6
-0.83954471 7.7345605 -0.24031791 6
-0.97085875 -1.3954408 0.28897879 11.875
-0.88150769 7.5776238 0.044527393 7
-0.9589349 -1.3939441 0.45113373 14.4
-1.0846523 5.6291466 0.71460265 11
-1.0934572 5.593483 1.1172396 13
-1.0654111 5.6071205 1.212557 13
-1.138154 16.140385 1.7377269 10
-0.95775712 8.90662 2.5594451 15
-1.0147429 13.346025 2.5868843 13
-0.86981893 13.655138 2.4298372 12
-1.1647896 18.234264 2.4889181 11
-1.0494794 12.264785 3.1308582 14
-0.45370343 0.24361995 -0.0211107 6
-0.70926577 0.63721287 -0.024499828 6
-0.70738435 0.99025434 -0.039487258 6
-0.64586848 1.4303522 -0.058366098 6
-0.71379751 1.8317789 -0.081766374 6
-0.54966915 2.140157 -0.093856059 6
-0.72262526 2.5382936 -0.11224879 6
-0.47938782 2.9751573 -0.13159974 6
-0.63896537 3.5285313 -0.15806675 6
-0.57685453 -1.4145359 0.30326089 12.625
-0.65351278 -1.4064432 0.4211365 14.6
-0.60160989 5.6315932 0.80230016 11
-0.74851054 5.6098056 1.007238 12
-0.69870991 8.7744617 2.6566372 15
-0.51307827 8.8238411 2.5842927 15
-0.55672389 13.329181 2.6259217 13
-0.54782039 13.640366 2.4268854 12
-0.73277789 18.24242 2.5128639 11
-0.59148806 12.095717 3.1126802 14
-0.55661452 18.204641 2.8496804 11
-0.098630801 17.416059 -0.43422294 6
-0.21852025 0.57203847 -0.036062431 5.1999998
-0.15403946 0.95005965 -0.056416411 5
-0.16833867 1.9006569 -0.085313387 6
-0.31085247 2.3962941 -0.11070367 6
-0.19751936 2.626116 -0.11608048 6
-0.075829357 2.9539073 -0.13100363 6
-0.12623663 3.2796071 -0.1452488 6
-0.19434763 3.7248323 -0.16807118 6
-0.27947986 4.278162 -0.19441158 6
-0.14033028 17.393127 -0.25573307 7
-0.19556725 -1.4226671 0.32785457 13.5
-0.33042663 0.41299972 0.0017534525 7
-0.17954925 -1.4251219 0.41453993 15
-0.39162806 7.7687039 0.76384705 10
-0.29356998 7.8347783 0.88361228 10
-0.16361065 18.669504 1.8264562 10
-0.20676428 8.7900333 2.5444586 15
-0.072713166 8.8205786 2.6498311 15
-0.31723714 13.308798 2.5986581 12.5
-0.29676598 18.237427 2.537231 11
-0.12560788 18.218094 2.8631883 12
-0.22242135 18.118109 3.2480052 12
0.28857163 -0.82366633 -0.0021738755 7
0.3355532 -0.54344141 -0.01986354 6.25
0.35589406 -0.37071556 -0.023346094 6
0.34295881 0.36552575 -0.04846143 3.5
0.2840766 0.60690659 -0.047073394 5
0.178302 0.9931199 -0.061037593 5
0.27606222 1.2410091 -0.073672324 5
0.20650886 1.9630028 -0.093717285 6
0.13727801 2.1715009 -0.10257773 6
0.32312864 2.581315 -0.12090847 6
0.31422934 2.9502358 -0.1353495 6
0.30277285 3.4801548 -0.16169031 6
0.29248318 3.9356129 -0.18247056 6
0.2789267 4.5592227 -0.21317284 6
0.25916284 -1.7215111 0.16289662 9.5
0.2000019 -1.4198543 0.24486186 11.846154
0.24158041 -1.0440644 0.014977535 7.6666665
0.25793651 -0.68366498 0.0029232292 7
0.21364342 -1.4474425 0.41093263 15
0.20322026 18.64677 1.4775155 9
0.14685051 18.65053 1.7459414 10
0.17324972 8.7175207 2.5732675 15
0.13628486 8.8200665 2.6456382 15
0.22128622 13.280765 2.6468787 13
0.13424182 18.171999 2.5532739 11
0.14050674 11.889471 3.1019545 14
0.35042295 18.210896 2.9265535 12
0.74213225 -0.8390637 -0.019016409 7
0.52128053 -0.56276935 -0.018036887 6.4285712
0.57910514 -0.20081772 -0.039971799 5.2857141
0.45190996 0.30642349 -0.057601433 3
0.4936839 0.55907583 -0.047563199 4.5999999
0.57071018 0.96374315 -0.064924806 5.3333335
0.65655643 1.3192244 -0.078905635 5.5
0.67327064 1.6960818 -0.092503391 6
0.61791265 2.2007172 -0.11585976 6
0.65547866 2.558898 -0.13013798 6
0.69136882 2.9020185 -0.14340825 6
0.77370673 3.6625004 -0.18463269 6
0.61699468 -1.6709878 0.036092717 8
0.5703423 -1.4337784 0.2262516 11.181818
0.59697187 -1.4555563 0.41507357 14.5
0.63722879 18.625999 1.4949355 9
0.58184916 18.645803 1.7431438 10
0.69025332 8.7106028 2.5802372 15
0.55227882 8.8014126 2.6331046 15
0.69029194 13.244592 2.6583877 13
0.56225723 18.242699 2.5847957 11
0.70150477 11.73379 3.097939 14
0.73140728 18.25654 2.8946257 12
1.0642178 -0.87676954 -0.012225571 7
0.90698522 -0.15640627 -0.020196194 6.25
0.85287499 1.966787 -0.11265446 6
0.91014445 2.2050557 -0.12634771 6
1.0205235 2.6720209 -0.14527635 6
1.0976164 2.9898252 -0.1665329 6
1.1847459 3.3520937 -0.18758008 6
0.82691061 4.1615357 -0.20819345 6
0.89350688 4.7899771 -0.23615906 6
0.99137974 -1.7107061 0.17868499 10
0.97455215 -1.4680287 0.31393802 12.285714
1.0501184 -1.4684114 0.46452105 14.2
0.94968754 18.623688 1.4098907 9
1.0153503 18.653503 1.745881 10
0.91922492 8.5383415 2.5219953 15
1.0242361 13.390449 2.5434282 12.5
0.99426609 18.186085 2.6029129 11
0.97249568 11.577929 3.0789325 14
1.1604093 18.185604 2.8979149 12
1.2916696 3.7977643 -0.21234712 6
1.5873232 5.2180281 -0.09972968 6.5
1.3418844 9.7204781 -0.14270094 6.5
1.3538046 -1.6916301 0.089577183 8.5
1.4058493 -1.4868931 0.29157239 11
1.5845717 5.3426428 0.031984247 7
1.3067052 9.7236423 0.0070640487 7
1.4053662 -1.4808109 0.50285566 14
1.5924032 6.8159862 0.82781869 10
1.2085098 18.507917 1.0431883 9
1.4508451 18.606457 1.7349354 10
1.5970589 7.4429722 2.1800013 15
1.3581663 13.421961 2.3995123 12
1.2911507 16.046055 2.3657722 11
1.3425742 8.5657358 2.5548227 15
1.3113029 13.232771 2.6808305 13
1.4232775 18.175137 2.6265616 11
1.3845006 11.500632 3.0890148 14.5
1.5854124 18.134403 2.9046037 12
1.650455 -0.47482035 -0.02868598 7
1.6469114 5.2720032 -0.30085373 5
1.8101201 -1.663021 0.092654124 8.5
1.8084351 -1.5042207 0.26740906 10.333333
1.843763 6.6687398 0.20847303 7.5
1.7128334 -1.6694583 0.53538483 13.666667
1.8136994 -1.4964827 0.54033011 13.5
1.9467903 6.618001 0.59515852 9.5
1.856334 7.5796838 0.68496853 9.5
1.9233316 8.7760496 0.67922354 9
1.7900383 6.6947136 0.84867018 10.5
1.8324701 8.6910667 0.96512401 10
1.7344918 8.9918985 1.0096608 10
1.9603946 9.7847099 0.80941266 9
1.8244742 6.6910486 1.386942 12.8
1.8646628 8.6591015 1.3621453 11.5
1.955763 17.535004 1.565653 10
1.8249416 6.6885285 1.9384388 15
1.8718189 8.61308 1.6839434 12.5
1.8739088 9.8568754 1.8688141 12.5
1.7593188 18.622063 1.6807704 10
1.7869853 6.7017741 2.0287039 15
1.6790102 6.9726157 2.0796871 15
1.7371014 7.3779426 2.2677522 15
1.9480348 9.8202944 2.1292698 13
1.8180867 10.4833 2.2358127 13
1.9690075 11.207167 2.0725806 12
1.9490029 11.861166 2.062139 12
1.695013 12.08724 2.0835962 12
1.9849875 12.888432 2.0303915 11
1.7015861 13.373013 2.2337599 11.5
1.6402122 8.8160181 2.4953372 15
1.7753125 13.22981 2.7008965 13
1.85329 18.189129 2.6522226 11
1.9415567 12.042181 3.2041876 14
1.6495655 12.08529 3.2226453 14
2.1808386 -1.3689886 0.24319954 9.8666668
2.082762 -1.6409173 0.61036223 14
2.1754069 -1.3634652 0.56017363 13.333333
2.2122667 6.6428065 0.54615736 9
2.0342832 8.6269464 0.57952166 9
2.1862936 6.7021379 0.85995382 10.5
2.3189511 17.475851 0.92270339 8.5
2.1833494 6.7139287 1.4041113 12.833333
2.2336524 17.477009 1.3373917 9
2.2528675 17.456573 1.7806401 10
2.2125123 6.72047 2.0841491 15
2.01542 18.147612 2.9200966 12
2.7661147 -1.354061 0.20709071 9.166667
2.7354627 -1.3540614 0.56472039 12.555555
2.5762584 6.6975026 0.52893287 9
2.7784274 -1.3761121 0.88143587 15
2.5842893 6.7317734 0.93687457 10.8
2.590421 6.7466197 1.3803817 12.5
2.573786 6.7331243 2.1333537 15
2.9824748 -1.3235162 0.23421659 9.166667
3.1772707 -0.87068838 0.21366329 9
3.1943483 -0.60848337 0.30567861 9.8000002
2.9658225 -1.2778524 0.57925856 12.25
3.1812019 -0.84913719 0.41554999 11
3.1902089 -0.67462504 0.43013155 11
2.9473023 6.6879911 0.61976969 9
2.9909275 -1.2535444 0.88123411 14.666667
2.9545953 6.7113256 0.96671253 10.75
3.0251832 6.7338762 1.4053463 12.4
3.0939491 6.718853 1.9535837 14
3.0282147 6.6467876 2.1577656 15
3.5880754 -1.2295636 0.15472692 8
3.3904402 -1.0453866 0.22060859 8.833333
3.3412433 -0.55036515 0.20886777 8.8000002
3.484093 -0.35261428 0.19147173 7.5
3.543335 -1.2027004 0.68985939 12
3.4620595 -1.0496163 0.56475228 11.571428
3.4797745 -0.61277378 0.56638312 11.8
3.4792268 -0.33357143 0.46676007 10
3.3692753 6.670516 0.56422955 9
3.3794627 -1.3015387 0.95296395 14.5
3.5101926 -0.99557328 0.96881127 14.333333
3.4414852 6.6895247 0.9961459 10.6
3.4648674 6.7033234 1.4411546 12.333333
3.363632 6.6965837 1.8150213 13.5
3.4855399 6.278069 2.1412642 15
3.3935471 6.5025048 2.1553936 15
3.6811011 -1.3835044 0.20728548 8.5
3.8811157 -0.21552172 0.2375966 7.6666665
3.8563526 0.14610828 0.20912777 7.5
3.8321528 0.43833694 0.31428441 8
3.7926807 3.4464769 0.36984992 8
3.8271518 3.6505375 0.31093848 7.5
3.834136 4.2343059 0.27737328 7
3.7771487 4.6883802 0.30418468 7
3.9441843 6.6388683 0.3761169 8
3.6633062 -1.3616252 0.63059896 11.666667
3.8473172 -1.1100594 0.65392321 11.666667
3.6233344 -0.54665923 0.68885064 12.333333
3.6283529 -0.38925624 0.72688049 12
3.7727859 2.6703486 0.58612067 10
3.787298 3.0696559 0.61180538 10
3.8122668 3.836942 0.54757172 9
3.8461967 4.0902834 0.40195641 8
3.8172314 5.1634665 0.47350916 9
3.8922737 6.6518545 0.56003708 9
3.673594 -1.2870289 0.96574301 14
3.7571998 -1.0934137 0.92686391 13.75
3.8365068 6.6826019 1.040915 10.666667
3.8353796 6.695725 1.4649019 12.333333
3.7503891 6.6855369 1.8291092 13.5
3.7872894 6.1543694 2.1394846 15
4.0625873 -0.20980521 0.17851803 7
4.1131124 0.40204766 0.23118362 8
4.2241864 2.4980867 0.38221478 8
4.1156211 4.1432724 0.24707377 7
4.0501404 4.8063927 0.28610983 7
4.2111726 6.5713 0.35168794 8
4.2593656 -1.1318785 0.75349045 12
4.1242776 2.4139657 0.56950819 9
4.2562561 6.6106672 0.52566093 9
4.1502504 -1.1124521 1.0318977 14
4.1988144 6.6806011 0.98794907 10.333333
4.2846017 -1.1138806 1.2411792 15
4.1892209 6.6829977 1.4824955 12.333333
4.1329155 6.6681457 1.8838143 13.666667
4.1942945 5.9198899 2.149925 15
4.0360456 6.0943551 2.1524947 15
4.5910287 -0.3830131 0.059325777 6
4.5791521 6.3033466 0.3099947 8
4.5681591 6.6089001 0.32383442 8
4.5862346 6.2566175 0.47960359 9
4.5692472 6.52526 0.50710791 9
4.4704986 -1.1318187 1.0273826 13
4.5637465 6.6555791 1.0207531 10.5
4.7625818 -1.1568278 1.2004908 14
4.6377249 6.678318 1.4911128 12
4.5824051 6.6555552 1.8620937 13.5
4.580379 5.6970062 2.1519587 14.333333
5.0299735 -0.27690858 -0.055965714 6
5.0859947 0.18578547 -0.013055659 6
5.1359921 1.69838 -0.018270973 6
5.0620446 -0.43336824 0.092284307 7
5.0173373 -0.19578663 0.17874537 7
5.047647 0.19637737 0.096631795 6.5999999
5.0639215 0.60778624 0.18084504 7.1666665
5.0943685 1.0017101 0.20020387 7
5.0910187 1.4123756 0.24568127 7.4000001
5.1023927 1.8103765 0.21964958 7.1428571
5.1610808 2.1141758 0.16654503 7
4.8011894 4.9098592 0.3879256 8
5.0423117 -0.44235432 0.64270562 9.5
5.0171795 -0.22126891 0.57396513 9.3999996
5.0625954 0.22337221 0.53956598 9
5.0637431 0.62174267 0.50159937 8.666667
5.0883522 1.0060982 0.520432 8.8000002
5.0954623 1.3721309 0.60961372 9.3999996
5.0685759 1.8336923 0.56764531 9.1999998
5.0834374 2.0310543 0.55490631 9
5.0882201 6.1720357 0.44997847 8
5.1923423 6.6497951 0.70118731 9
4.9159827 -1.1204656 0.99580389 12.5
5.1519876 1.1696367 1.0040698 11.5
5.077745 1.3898901 1.0194465 11.5
5.0872426 1.8019668 0.95655406 11
5.1172438 2.0789599 1.016749 11.5
4.9664917 6.6492071 1.0111401 10.333333
4.9823174 -0.99403954 1.3408906 14.666667
5.1027465 1.2027568 1.537444 14
5.1021051 1.8094409 1.3942709 13.142858
5.0926714 2.057514 1.3830897 13
4.9722328 6.6661663 1.5081139 12
5.1262841 1.8666486 1.6158152 14
5.1287994 2.1242063 1.647508 14
4.9612279 6.6301455 1.8395262 13.333333
4.9880428 5.4473734 2.1488955 14
4.8370414 5.6068621 2.143436 14
5.4915199 2.9787722 0.038903397 6
5.5700297 3.4044166 0.059184384 6
5.590384 -0.23606783 0.79182345 10
5.3683314 0.31819651 0.68176675 10
5.4213448 0.56872952 0.70905864 10
5.3338342 0.98180944 0.68760639 9.5
5.4403343 6.6424232 0.68707931 8
5.4235802 -0.89637172 1.1954484 13
5.2524309 -0.50869757 0.88891441 11
5.5773883 -0.11323866 0.80066061 10
5.5743928 0.0084778871 0.81036532 10
5.5324111 0.49459058 0.84709311 10
5.272501 1.166707 1.0323648 11.5
5.5635066 2.4765599 1.0417657 11
5.3878446 6.6084895 1.0504943 9.666667
5.3236852 -0.82837528 1.4117399 14.5
5.2542944 -0.61613345 1.379934 14
5.2402711 -0.17690818 1.4187766 13.5
5.2496991 0.19391412 1.4408883 13.5
5.3139844 0.62311673 1.4089921 13.4
5.3344121 0.99661046 1.396628 13.2
5.3730998 1.4544282 1.4089719 13.166667
5.4656949 6.6210856 1.4288822 10.5
5.3457842 1.4715933 1.615211 14
5.4053688 6.6024885 1.7862675 12
5.4136281 5.0234704 2.1514132 14
5.3090448 5.203783 2.1528175 14
5.5890732 6.3813515 2.2106721 13
5.4470291 6.5543332 2.1173596 13
5.8479891 2.6252766 -0.024223875 6
5.7879109 2.6723397 0.22849596 7
5.81779 3.0188057 0.25160199 7.1666665
5.8451247 3.5832806 0.25396806 7
5.8894167 3.8190403 0.17035033 6.6666665
5.8786354 4.2046289 0.27606171 7
5.9001412 4.6673646 0.2895298 7
5.9531608 5.0867543 0.32820451 7
5.6073804 -0.36211523 0.78460926 10
5.6560178 0.99356586 0.72345799 9.666667
5.7892966 2.6517444 0.60983521 8.5
5.8460941 3.011333 0.60414702 8.6000004
5.7976308 3.3246675 0.60947853 8.333333
5.8496089 3.7495081 0.56571114 8.333333
5.8140578 4.1730666 0.63238269 8.25
5.8033032 4.6213903 0.62347144 8
5.8523202 4.915514 0.65679955 8.25
5.8222694 5.3653307 0.5523845 8
5.8773437 5.6359434 0.70499825 9
5.816824 6.6209412 0.66465282 8
5.6074972 -0.43920648 1.0260928 11.5
5.6283865 -0.19462591 1.0536866 11.5
5.6343994 0.18019818 0.99423122 11
5.6517987 0.64956957 0.9591468 10.666667
5.6738939 0.94976246 1.0177846 11
5.8109941 2.6880317 1.0151268 10.5
5.8452158 3.0439353 0.95836085 10.25
5.8254704 3.4432545 0.96691436 10
5.8098421 3.7923386 0.90826386 9.6000004
5.8017139 4.2020268 0.95470798 9.5
5.813477 4.6030717 0.98060429 9.5
5.8351974 5.0423007 1.0904456 9.666667
5.8659611 5.3342295 0.94782573 9.333333
5.8430076 6.6050034 1.041625 9.333333
5.6141062 -0.54433596 1.2495716 12.5
5.6351089 -0.19574295 1.2552612 12
5.6405854 0.33609387 1.2076011 12
5.6506042 0.63290274 1.2458063 12
5.6831064 0.98793328 1.2482406 12
5.7006207 1.5091217 1.2781067 12
5.8226714 2.625658 1.3825374 12.5
5.8150172 3.0077908 1.2705697 11.4
5.8419042 3.4701777 1.3480577 11.5
5.8320494 3.8409793 1.3876781 11.5
5.8345675 4.2233248 1.4255426 11.5
5.8206825 4.5472422 1.4048829 11.333333
5.8519483 5.0138578 1.4355208 11.25
5.8471489 5.4461079 1.3347582 10.5
5.807704 6.6065578 1.448866 10.5
5.6738386 1.8587639 1.726406 14
5.7840095 2.6825435 1.736294 13.333333
5.8100276 2.9770734 1.7732081 13.5
5.8165183 3.4162443 1.8381402 13.5
5.8152385 3.7734115 1.8641858 13.333333
5.8184199 4.2261968 1.8946735 13
5.833374 4.5711465 1.7994457 12.5
5.8992333 4.9402137 1.8530059 12.666667
5.8988671 5.3561716 1.7841805 12
5.9989038 5.7145572 1.8607736 12
5.7718787 6.5932713 1.8081416 12
5.8352571 4.1826944 2.0729787 14
5.7720337 4.6325669 2.1282442 14
5.8740277 4.9199772 2.1171677 14
5.9129777 5.3514738 2.0142779 13
5.8620691 6.2414651 2.201154 13
6.0629697 6.4860225 0.96348149 9
6.0856991 6.5004916 1.4366421 10.5
6.0893607 6.2260456 1.7710717 12
6.0650539 6.0237217 2.1691465 13
6.0099912 6.6095409 2.0396624 12
