# .PCD v0.7 - Point Cloud Data file format
VERSION 0.7
FIELDS x y z intensity
SIZE 4 4 4 4
TYPE F F F F
COUNT 1 1 1 1
WIDTH 119
HEIGHT 1
VIEWPOINT 0 0 0 1 0 0 0
POINTS 119
DATA ascii
-6.422359 -3.404259 0.18887496 8
-3.9103527 -3.3536768 0.10134383 8
-3.3073847 -3.6436453 0.49245459 9.5
-2.8227804 2.1117086 0.46725726 11
-2.8217833 2.1009109 0.80741078 14
-2.8507845 2.0990241 1.0569789 15
-2.6837776 2.1265953 0.24343224 9
-2.6982808 2.1187665 0.63833457 12.5
-2.7337005 2.8866341 0.75660622 12.5
-2.6467297 2.6111324 0.91123933 14
-2.7456317 3.5410547 0.80076456 12
-2.7585974 3.8764133 0.93487459 13
-2.6485062 4.7462854 0.99645203 12
-2.6447313 2.6092362 1.1023871 15
-2.7366493 3.3972538 1.2749602 15
-2.7575169 4.6705494 1.574541 15
-2.7724338 5.4540911 1.433323 14
-2.274755 2.3446882 0.34729412 10
-2.3944807 4.9740729 0.70261198 11
-2.3514297 5.4585257 0.61094743 10
-2.1606591 3.2563152 0.31318203 9
-2.1356659 3.1972854 0.40175286 10
-1.9526689 3.1748676 0.47056717 11
-1.7753294 6.441813 1.2351558 12
-1.4413162 -2.9980268 0.34068239 10
-1.4692253 -2.1283791 0.40424484 11
-1.558339 6.3807778 1.9499935 15
-1.3473659 -3.4770274 0.17817403 8
-1.3273655 -3.4700174 0.27873668 9
-1.3024566 5.1945906 0.46834421 10
-1.0733706 -3.5168753 0.29122141 9.5
-1.1883674 -3.4768362 0.51059008 11
-1.0468743 -3.5306163 0.73929918 12.5
-1.1173359 6.3796611 1.2488251 13
-0.72437996 -3.5715172 1.0531657 15
-0.67634088 6.3572187 1.802125 15
-0.45751494 0.91744113 -0.014093883 7
-0.41055456 4.2713366 0.64812928 11
-0.58133847 6.3541656 1.2175574 12
-0.54233968 6.3607831 1.6554997 14
0.070627674 -3.5395892 0.1444667 8
0.12362491 -3.5478511 0.55543393 11
0.073666535 6.4271998 1.797482 15
0.22162218 -3.5505421 1.0788773 15
0.57462806 -3.5339041 0.18041444 8
0.83667368 6.4662962 1.1384362 12
0.98766923 6.453001 1.7915438 15
1.0846289 -3.5316257 0.060836043 8
1.598637 -3.4532974 0.0874127 8
1.4036268 -3.529052 0.57383865 11
1.5996108 5.853374 0.85805976 11
1.7716402 -3.4134779 0.2916511 9
1.7878647 -1.2765582 0.27030951 11
1.7788868 -1.0632024 0.33028147 12
1.7336282 -3.5230792 0.41542014 10
1.6656255 -3.5312645 0.78409028 13
1.6126074 5.8316555 1.0548754 12
1.6096081 5.8482847 1.2845174 13
1.6746038 5.817801 1.5205668 14
1.8308867 -1.0685087 0.223882 10
1.8426386 -3.4164672 0.57533461 11
1.8156385 -3.410713 0.72812164 12
1.9618818 -1.0964246 0.68082845 15
1.9176339 -3.438477 1.1337163 15
1.9056021 5.8063402 1.6571813 15
2.1556413 -3.3970988 0.33090076 9
2.0878894 -1.0354953 0.26312068 10.5
2.1419365 -0.58985543 0.31651998 11
2.1586406 -3.4005787 0.44329244 10
2.0818901 -1.0240302 0.48408201 13
2.1174357 -0.59058821 0.50361055 13.5
2.1336088 5.8224316 0.48770154 9
2.1208413 -1.4797083 0.71015906 15
2.1009326 -0.6125598 0.62737 15
2.0036371 -3.4224498 0.80023849 13
2.1276064 5.8145704 0.90375227 11
2.2946312 -3.503983 0.11455224 8
2.526629 -3.5007031 0.65936661 11.5
2.5426118 5.8564868 0.65599555 10
2.5676043 5.8070927 1.1909298 12
2.5426311 6.0915737 1.8890046 15
2.9874377 -0.58252746 0.31070325 10
2.9629452 5.9314437 0.39744666 9
2.9516296 -3.4886107 0.89703053 13
3.0146255 -3.5088084 1.2733198 15
3.1246266 6.0471969 1.7386209 14
3.2289362 -0.57978147 0.6051535 12
3.3696132 5.867456 0.63114417 10
4.3304801 4.6034288 0.68825424 10
4.3144732 4.5482965 0.84477955 11
4.4064283 4.1104403 0.474704 9
4.7406726 6.4613805 1.1006429 11
4.6406722 6.4655786 1.3499365 12
4.7186289 6.0774889 1.8118006 14
5.0790887 5.6768909 1.4875193 12.5
5.1094499 4.3743277 1.844154 15
5.2013311 3.1675777 0.16562451 8
5.2173305 3.182667 0.72545695 10
5.2223897 3.7447176 0.65019912 10
5.2103305 3.1909394 0.91581607 11
5.2153225 3.1271999 1.1186445 12
5.2094159 4.0198755 1.2585129 12
5.5760107 0.10170185 -0.1285013 6
5.5172977 2.8588548 0.48698363 9
5.4903669 3.5257158 0.55329007 9
5.535181 1.760028 0.74530047 11
5.5321946 1.9023643 0.95988262 12
5.5431247 1.2428814 1.1916023 13
5.5222845 2.761384 1.0614463 12
5.5640388 0.43825117 1.3322917 14
5.552094 0.95325351 1.3047446 14
5.5431595 1.5852586 1.3426749 14
5.528245 2.3867905 1.2026188 13
5.5212498 2.4383168 1.3850993 14
5.5630646 0.68458611 1.5030082 15
5.5491533 1.5339116 1.5429684 15
5.4943218 3.143543 1.6594951 14
5.4903622 3.5291543 1.7694472 15
5.5452867 2.8197737 1.8803253 15
