# .PCD v0.7 - Point Cloud Data file format
VERSION 0.7
FIELDS x y z intensity
SIZE 4 4 4 4
TYPE F F F F
COUNT 1 1 1 1
WIDTH 206
HEIGHT 1
VIEWPOINT 0 0 0 1 0 0 0
POINTS 206
DATA ascii
0.51522905 -0.44845548 0.029303255 179
0.48089278 -0.32228771 0.0075810594 171.55556
0.52219713 -0.31155512 0.015215455 173
0.63750386 -0.34871343 0.017003614 177
0.72430509 -0.32349372 0.014424027 189
-0.112876 -0.21587756 0.018346962 153
-0.09906067 -0.2098854 0.017208166 158
0.46676546 -0.23921955 0.0010040385 167.95454
0.54318017 -0.25371528 -0.0043243179 170.89743
0.62426406 -0.22792496 0.0029154946 173.60001
0.73997307 -0.2488919 0.0040706941 183.33333
-0.13090453 -0.15275645 0.010173084 151.5
-0.029859416 -0.14869554 -0.010417744 168.875
0.03979044 -0.14002059 -0.018613745 161.6842
0.12585458 -0.11224067 0.0013053213 147
0.45547152 -0.1428926 -0.0086092371 155.41861
0.54723704 -0.14957917 -0.016104598 158.92157
0.62548804 -0.15029019 -0.016288217 169.96153
0.75556862 -0.16777091 -0.0044658319 179.875
0.80759317 -0.10889363 -0.014637409 188.5
-0.1518994 -0.05524667 0.0019911912 151.875
-0.046932664 -0.044831403 -0.02334537 166.77777
0.063372448 -0.050780296 -0.013839906 153.37837
0.15697558 -0.048019584 -0.016169667 143.43011
0.24717057 -0.039985053 -0.058003288 154.42857
0.35089627 -0.019532885 -0.070523843 160.19048
0.44150007 -0.045264918 -0.044615895 160.90625
0.53701413 -0.055135701 -0.020613551 156.625
0.63940585 -0.061265014 -0.031472556 164.77499
0.77640462 -0.07526172 -0.014350758 178.625
0.81679821 -0.055613883 -0.016562514 187
-0.1523948 0.045473266 -0.0068100486 153
-0.044608828 0.061806757 -0.034266558 166.69698
0.058155473 0.048026428 -0.025347667 153.10715
0.15546291 0.049640041 -0.024645088 141.85001
0.25379902 0.046657737 -0.057862457 148.62411
0.35740751 0.02575968 -0.068565495 156.21629
0.45187441 0.0071230689 -0.048042841 161.44037
0.54052585 0.025984162 -0.031541195 157.98438
0.63925886 0.03739322 -0.043393798 164.2963
0.7755031 0.03835078 -0.026107144 178.27272
0.8184644 -0.0011122586 -0.019728556 185
-0.12729406 0.14600395 -0.019805182 152.55556
-0.027202558 0.15460624 -0.036956914 166.85001
0.046278324 0.1470229 -0.047225073 158.96552
0.14568587 0.11911897 -0.028356235 144.53334
0.25468412 0.14286071 -0.039170872 145.28999
0.32848036 0.13162845 -0.04557981 146.76811
0.65006906 0.09949176 -0.043017991 171.25
0.76326275 0.12728743 -0.037401333 178.55556
-0.72250879 0.23272467 -0.0099052172 208
-0.056020062 0.29383895 -0.030949896 154
0.072657444 0.2744697 -0.053447831 168.66667
0.1562552 0.25148878 -0.055309691 152.16667
0.25087073 0.23941071 -0.044043928 141.25581
0.310119 0.22489169 -0.042049665 143.41667
-0.012277963 0.34610015 -0.045708515 163
0.060560577 0.34376395 -0.044028353 169.1875
0.15160407 0.33627692 -0.053776782 168.13792
0.24958262 0.33895236 -0.057361443 157.64706
0.073324673 0.42639434 -0.052285392 168.14285
0.15537983 0.44121501 -0.061897814 170.75
0.2311638 0.45722851 -0.063507967 174
-0.44973603 0.55496925 -0.043505717 138
0.18893838 0.5702163 -0.059315786 163
-0.55531967 0.62570655 -0.053654864 209
-0.36950514 0.65317905 -0.054497398 137
0.15753746 0.66110158 -0.066757403 146
0.078984134 0.89065605 -0.088892646 127
0.069450021 0.91753697 -0.090113074 123
0.54798013 -0.61577344 0.10877068 197.58333
0.55893385 -0.53039026 0.094046898 190
0.55559415 -0.46132517 0.059968222 184.63333
0.65884465 -0.42746711 0.090300292 191.04167
-0.65431267 -0.30360189 0.075317614 117.5
0.48671159 -0.36264989 0.035984017 173.88889
0.54736376 -0.33759144 0.031632494 175
0.66004401 -0.37436241 0.041266955 184.05
0.72522825 -0.33331436 0.066279717 187.58824
-0.60567069 -0.28941455 0.07055416 125
-0.56220913 -0.27674648 0.066222869 128
-0.45840156 -0.24559438 0.062366672 139.8
-0.35912976 -0.21616434 0.055995654 141.75
-0.23158589 -0.2420397 0.067219771 141.39999
-0.14265051 -0.22300556 0.054848131 141.07692
0.57339132 -0.27669165 0.021230768 174.42857
0.63528329 -0.2446384 0.020794641 175.64999
0.75036252 -0.2465068 0.056124561 186.30302
-0.7010017 -0.17874345 0.057632241 121
-0.63261682 -0.16689351 0.058118448 122.5
-0.54241377 -0.15193149 0.052386917 132.75
-0.4400692 -0.13482313 0.047076367 142
-0.35695124 -0.12088037 0.043175746 142.25
-0.24575654 -0.14053975 0.053033467 141.08333
-0.15548056 -0.15616997 0.040055804 140.45454
-0.064158514 -0.16348054 0.022410307 162.53847
0.66162306 -0.15428539 0.0086098118 174.31818
0.77421582 -0.14506321 0.046348877 185.13043
0.80614394 -0.10828112 0.037365358 186.66667
-0.73268372 -0.044476897 0.037213173 133
-0.6396246 -0.040195491 0.039665405 127.33334
-0.52797723 -0.035467692 0.037043009 137.5
-0.44352308 -0.031401947 0.041585807 141
-0.31739184 -0.025238758 0.049520832 141.5
-0.24318025 -0.03431756 0.048565786 129.83333
-0.15799265 -0.053999323 0.023506677 143.94444
-0.087761968 -0.053597685 0.010943362 158.8
0.1665895 -0.034789667 0.0036076112 136.5
0.68231016 -0.063814901 -0.0021194357 174.11111
0.71663457 -0.058482725 -0.00062674022 176.125
0.82637334 -0.0548204 0.038302239 187.2
-0.74985141 0.095743626 0.019760946 210
-0.65880358 0.088357285 0.022281207 137.66667
-0.53528571 0.07827238 0.024084194 138.25
-0.43169501 0.069714136 0.023130734 145.25
-0.35283506 0.063306339 0.024798675 149.66667
-0.25303215 0.055251867 0.028109796 142.75
-0.16223761 0.04711201 0.012362594 145.55556
-0.082968377 0.073543653 -0.0035630348 161.28572
0.14561205 0.050592866 -0.0077073188 140
0.68431491 0.0344081 -0.013330245 174.75
0.73263073 0.037043344 -0.013640721 176.78572
0.84834695 0.034218527 0.027904684 188.79411
-0.51834434 0.19025743 0.01284846 135.33333
-0.43312305 0.17240682 0.011381042 144.25
-0.36419782 0.15795927 0.0090039605 147
-0.25147098 0.14424661 0.019794552 141
-0.16269551 0.15354504 0.0096118953 141
-0.041386954 0.17018643 -0.01142451 160.8
0.0613201 0.17937833 0.06028137 139
0.16031203 0.14172316 0.059536781 132.61905
0.67613637 0.11351123 -0.021065181 174.66667
0.77870286 0.13550621 -0.020785853 180.11111
0.83585054 0.14950101 0.021129996 191.3125
-0.72559589 0.23350397 0.0011127165 209
-0.63997638 0.21570387 0.011556306 161
-0.23719059 0.21320876 0.034871049 138.83333
-0.047672354 0.28685009 -0.016703857 151
0.043805677 0.21989533 0.046519645 144
-0.41892871 0.39653853 -0.0088221254 138
-0.3678847 0.37091178 -0.00072784588 135
-0.21705818 0.39891094 -0.019306565 135
-0.14066075 0.34709486 -0.0058190487 138.875
-0.056796107 0.34690788 -0.01509419 146.42857
0.029620541 0.39785454 -0.032381568 161
-0.52405804 0.44932452 -0.025532033 142
-0.44500804 0.40943897 -0.0097634178 139
-0.35198104 0.48891091 -0.028625561 139.33333
-0.26826876 0.43302521 -0.022411188 141.60001
-0.13682012 0.44929707 -0.023799293 139.16667
-0.038263302 0.45545211 -0.021255 138.5
0.047349241 0.43934482 -0.028437318 155
0.14125179 0.48264396 -0.039019205 167
0.21554463 0.48913661 -0.046958458 170
-0.50803167 0.58912569 -0.0018770958 197
-0.45759374 0.55732292 -0.016198929 162
-0.31113136 0.60009581 -0.034380563 136
-0.24881786 0.54665947 -0.033627409 139.66667
-0.13412549 0.55550045 -0.037581731 137.33333
-0.033008147 0.55698472 -0.038544256 136.33333
0.046861555 0.53507 -0.03399181 144.42857
0.15217867 0.54794008 -0.044006806 157.2
0.20900272 0.5055595 -0.044685598 168.33333
-0.54353201 0.6161567 -0.036604397 208
-0.41387388 0.68340862 -0.0047078435 190.83333
-0.39058521 0.67111105 -0.053808343 136
-0.21472882 0.67029041 -0.044482172 138
-0.18092366 0.63371831 -0.04782673 138.5
-0.054500666 0.6423654 -0.047055021 136.5
0.054709442 0.6559509 -0.054188296 139
0.15731363 0.65591598 -0.058025647 145.60001
-0.45466775 0.71942347 -0.011763952 196.75
-0.31580982 0.78558487 -0.061248228 134
-0.28104496 0.74661422 -0.058561545 131
-0.11700095 0.73454148 -0.05531941 134.33333
-0.0032073001 0.76998967 -0.060066998 131.5
0.012546564 0.7418347 -0.064925142 131.5
0.12320382 0.75668412 -0.06926246 134.75
-0.37164631 0.8386392 -0.022471851 198.10001
-0.21317458 0.87684375 -0.069535032 127
-0.17689069 0.82430172 -0.067861661 132.66667
-0.046356048 0.86050588 -0.076996632 128.33333
0.094789401 0.83854455 -0.075513341 131
0.106302 0.80236518 -0.068445228 134
-0.2303617 0.90117896 -0.068542808 127
-0.10316657 0.97114694 -0.08003629 123
-0.081174567 0.92862463 -0.079554379 124.5
0.05586217 0.95404136 -0.089134902 126
0.53306985 -0.64116186 0.20117138 198.07143
0.5798502 -0.52440238 0.18965609 194.5
0.64370489 -0.48833925 0.21081887 192
0.6674549 -0.45244944 0.1794786 191.70833
0.70184958 -0.42631701 0.15744354 190.8
0.72644436 -0.3517234 0.16505852 188.73334
0.74121678 -0.24160121 0.16185628 187.23529
0.77989882 -0.13060409 0.14878669 186.05882
0.81969422 -0.031048646 0.1467867 186.95653
0.87399465 0.05223624 0.11802166 188.52174
-0.17765023 0.19164982 0.086182155 136
-0.081453137 0.18787852 0.1466323 167.5
0.088747226 0.13891001 0.11707391 122.42857
0.13411224 0.15542784 0.092947833 128.57143
0.87282932 0.16486646 0.10662422 191.56
0.86576408 0.21408848 0.139414 193.71428
-0.28675738 0.32613793 0.079053603 211
-0.38845262 0.84360594 0.038960233 206
