# .PCD v0.7 - Point Cloud Data file format
VERSION 0.7
FIELDS x y z intensity
SIZE 4 4 4 4
TYPE F F F F
COUNT 1 1 1 1
WIDTH 166
HEIGHT 1
VIEWPOINT 0 0 0 1 0 0 0
POINTS 166
DATA ascii
-1.2436153 -0.47176719 0.36710164 14
-1.3310574 -0.32447323 0.38995954 14.5
-1.3355236 -0.30525357 0.43060583 15
-0.92225218 -0.95841223 0.37414202 14.125
-1.1316588 -0.64275336 0.37019762 14.2
-0.93076545 -0.94565588 0.4370482 15
-0.73631728 -1.210196 0.41429257 14.5
-0.60670984 -1.097308 0.32044461 13.333333
-0.47694737 -0.72254735 0.073465444 9
-0.70899415 -1.1915121 0.46047083 15
-0.78391445 -1.173869 0.46627244 15
-0.28447899 -0.9587391 0.25020841 13
-0.14499067 -0.6671946 0.10302954 10.5
-0.022888208 0.66847032 0.0063615534 7.6666665
0.31829247 -0.47365752 -0.0017137639 7
0.39279827 -0.32900828 0.00019862571 7
0.36525446 0.36407623 -0.027194936 6
0.23853879 0.64959216 -0.023768296 6.6666665
0.2986626 0.91945374 -0.034847233 7
0.1596068 -0.82459837 0.1703641 12.333333
0.23143974 -0.64759898 0.09857253 10.5
0.37185773 -0.37154552 0.012622066 7.5
0.19920984 0.61717939 -0.0039791763 7.6666665
0.23639551 0.88792294 0.096909665 10.428572
0.45846757 -0.45438594 -0.0053622746 7
0.47949997 -0.2061916 -0.012539896 6.5
0.58490896 0.20060337 -0.03689396 5.375
0.53079373 0.64726043 -0.030858112 6.6666665
0.63365203 1.0121177 -0.05022388 6.6666665
0.57446158 -0.55867678 0.14110062 11.809524
0.48081753 -0.30183399 0.010313828 7.5
0.69681299 0.26020554 -0.0065818867 7.3333335
0.57811862 0.45865479 -0.0040804185 8
0.55678028 1.0599056 0.14951804 11
0.71270943 1.3379781 0.15149632 10
0.74611622 1.4355863 0.39391977 14.5
1.0443062 0.59575164 -0.040010434 7
0.96524096 0.99914634 -0.055649076 6.8000002
1.0639753 1.265168 -0.076629855 6.3333335
1.1273149 -0.11594236 0.31664285 15
0.84876782 0.28053558 -0.015464336 7
1.0082977 1.1459587 0.15605426 10.571428
0.9047727 1.2872099 0.17908682 10.888889
0.99893177 1.2866558 0.40293208 14.5
1.2533939 0.67915809 -0.04745188 7
1.3960553 1.0147239 -0.063073963 7
1.3299857 1.3942072 -0.068416663 7
1.2501715 -0.032935441 0.32209694 14.5
1.4325823 0.081678629 0.30904624 13.5
1.2602725 1.1885182 0.12522587 9.5
1.3325541 1.3314022 0.33242902 12.333333
1.5446464 0.13983372 0.39569646 14.5
1.4222686 1.3826886 0.4562929 14
1.7788024 0.9951762 -0.084258027 6.6666665
1.7410249 1.3586241 -0.097800352 6.3333335
1.8156393 0.31664348 0.2890276 12
1.983791 0.4357419 0.21078354 10.5
1.8053429 0.29630136 0.44868356 14.333333
1.9414166 0.43543619 0.43394053 14
2.222939 1.0873929 -0.12250943 6
2.0483952 1.290795 -0.11303158 6
2.115227 1.7339435 -0.11341254 6.5
2.2176874 0.57447284 0.26985574 10.875
2.1877053 1.8244554 0.27842823 10.5
2.2365253 0.56883752 0.55145025 14.222222
2.2091997 1.8898661 0.52051967 12.727273
2.1558774 2.022202 0.42899892 11.5
2.2359715 1.935398 0.75799024 15
2.1856637 2.0247357 0.77000862 15
2.5712547 1.4786577 -0.14722492 6
2.7056091 2.3121133 -0.19842753 6
2.443902 0.73362273 0.31559613 11
2.6935527 1.0238402 0.13970844 9
2.7836611 1.4415902 0.02100292 7.5
2.7654204 1.6979638 0.20348839 9.5
2.4692607 0.72203994 0.55515993 13.5
2.7687082 0.98545057 0.47203144 12
2.7875533 1.5649654 0.60998589 13
2.7770073 1.6837634 0.52086973 12
2.7541273 1.0299013 0.82181185 15
2.7812877 1.4544103 0.79961067 15
2.7161329 1.6522837 0.73694324 14
2.9487143 1.9827527 -0.19068848 6
2.8233914 0.90702718 0.23692569 10
2.9052684 1.4821225 0.14236701 9
2.8764589 1.6240708 0.26060322 9.5
2.8276694 0.9292652 0.55447388 13
2.9532061 1.4440383 0.5536052 12.5
2.8480005 1.7734094 0.58121669 12.5
2.8330009 0.95215344 0.81405276 15
2.902874 1.4066931 0.87728781 15
2.8598433 1.805388 0.84548599 14.75
3.3576052 2.2967279 -0.22751789 6
3.8342404 2.7412596 0.14146098 8.5
3.8356144 2.946836 0.092104316 8
3.9533744 3.6362791 0.06485299 8
3.8268299 2.7646043 0.46820888 10.5
3.9142003 2.9900184 0.48886037 10.666667
3.7863443 2.9388192 0.78641707 12
4.0493813 3.6572723 -0.26547492 6
4.0461531 2.2064569 0.10188723 8
4.0556808 3.0891654 0.16334407 9
4.0429568 3.6882191 -0.10318037 7
4.2759023 3.0655828 0.32073897 9.666667
4.7050142 3.2785807 0.60604823 11
4.7329965 3.7751718 0.52193171 10
4.9593148 3.5402968 -0.29489169 6.5
5.174088 2.4073877 0.2714583 9
5.0523252 3.525228 0.12100936 8
5.1757059 4.5672984 0.12346962 8
4.9317808 2.4521177 0.39281446 10
4.8636098 3.1906359 0.64943069 11
5.0479531 3.5706787 0.30744264 9
5.3810239 3.9024129 -0.11740746 7
5.3895903 4.4037461 0.18877716 9
5.3463697 4.5201507 0.15286498 8.5
5.2687273 2.382158 0.38824087 10
5.8137331 2.4525025 -0.044579402 7
5.9509869 2.8413339 -0.036328495 8
5.9233856 5.6577997 0.18119089 8
5.7044897 2.3838885 0.36824387 9
5.6687341 2.4506898 0.38437045 9
6.6856394 2.1572137 0.091999456 8
6.6389384 2.2166286 0.32612565 9
7.0121408 2.478647 0.070527762 7.6666665
6.9912705 2.477793 0.34139925 9
7.119339 5.1602764 1.3535861 12
6.9062071 5.5017977 1.1239083 11
7.145678 5.1322112 1.5743027 12.5
6.9931941 5.380815 1.6100252 12.6
7.1467886 5.1294651 1.956647 14
6.9692388 5.412663 1.9835167 14
7.1626077 5.1755819 2.2277808 15
7.0246434 5.4322929 2.261034 15
7.2045264 4.1172771 -0.24973813 7
7.3213501 3.6038337 0.17639065 8
7.3093495 4.809413 0.50537175 9
7.2655821 4.8637419 0.69926065 10
7.3228364 4.8352914 1.3237436 12
7.3810034 4.7625623 1.4082181 12
7.269156 4.9479432 1.5581878 12.5
7.3599873 4.7791595 2.0485353 14.5
7.2556167 4.989068 1.9468186 14
7.2532716 5.0076618 2.2069523 15
7.9929867 3.7104497 0.14332806 8
7.9444823 3.4323871 2.395813 15
8.1621542 3.3716478 -0.28970632 6.6666665
8.1646957 3.3977132 -0.0052044559 7.5
8.3863735 3.0970819 0.610008 10
8.2482738 3.2771409 0.35030791 9
8.3393755 3.151545 0.89440006 11
8.1906338 3.3913 0.71233231 10.25
8.0749702 3.6431227 0.92743945 11
8.33887 3.1798279 1.214252 11.5
8.1817589 3.4403596 1.2370951 11.75
8.0912619 3.6330106 1.0910251 11
8.3654852 3.1417797 1.6332103 12.5
8.1788311 3.4894996 1.5977261 13
8.2831326 3.1987894 2.0173345 14
8.1932335 3.4566596 1.9240766 13.666667
8.1241055 3.6452885 1.9349195 14
8.1560287 3.0778532 2.3699808 15
8.0592918 3.2603948 2.3853002 15
8.6200094 2.7326713 -0.4074741 6.5
8.4799328 2.9070837 -0.38029003 6.5
8.4621239 3.0627158 2.0185065 14
