# .PCD v0.7 - Point Cloud Data file format
VERSION 0.7
FIELDS x y z intensity
SIZE 4 4 4 4
TYPE F F F F
COUNT 1 1 1 1
WIDTH 175
HEIGHT 1
VIEWPOINT 0 0 0 1 0 0 0
POINTS 175
DATA ascii
0.15526216 -0.82668132 0.037833489 204.5
0.2589376 -0.82187116 0.038895547 207.39999
0.36323878 -0.81890726 0.021095039 208.39999
0.45482934 -0.8110671 0.02293532 208.75
0.56716961 -0.80684966 -0.0094475066 209
0.18451576 -0.72986364 0.017957693 185.8
0.27270544 -0.74660259 0.020968026 187.25
0.36718699 -0.73970795 0.005725177 190.75
0.45154056 -0.74234569 0.0036935464 188.2
0.55412841 -0.75975722 0.0020049335 196.14285
0.65349144 -0.74378264 -0.02337778 187
0.19773619 -0.68756628 0.0072957785 189
0.26276115 -0.62909937 0.019233555 189
0.36807114 -0.6367771 0.0067323055 189
0.44171166 -0.64323384 0.0023758267 188
0.5326736 -0.65623927 -0.012924585 189.25
0.64569789 -0.64480829 -0.027794432 188.66667
0.73454273 -0.63666886 -0.037488207 187.33333
0.25651821 -0.55274475 0.012139624 186.09091
0.35096595 -0.53550148 0.0041009067 185
0.44359645 -0.55594295 -0.003838059 186.85715
0.54572523 -0.55427724 -0.016378522 187.75
0.6516605 -0.53779745 -0.030281622 190.25
0.75691271 -0.56088752 -0.051665042 189.8
0.82674348 -0.51780242 -0.062655702 188
0.25904372 -0.46700364 -0.014931714 180.07692
0.34658635 -0.46628678 -0.019606991 179.625
0.45630261 -0.45865783 -0.023189487 180.92
0.55325764 -0.43092698 -0.029381054 182.17647
0.6515013 -0.46289745 -0.038860343 186.3
0.73287189 -0.44016004 -0.045815416 188.42857
0.85643137 -0.4543671 -0.073877983 189
0.2872346 -0.3641724 -0.024098273 173.72728
0.34751037 -0.34263682 -0.042333305 172.78723
0.44186032 -0.33831558 -0.038762122 174.42857
0.54745454 -0.35404179 -0.047029704 177.72728
0.64243615 -0.34525928 -0.051352639 181.33333
0.750727 -0.35426468 -0.055226479 185.2
0.83070928 -0.33412716 -0.068879701 186.14285
0.92600316 -0.34603056 -0.097050689 186
0.35460892 -0.25104687 -0.060739625 168.14583
0.4523381 -0.25780073 -0.072676159 167.7037
0.54019302 -0.24355175 -0.066320784 171.84314
0.65136176 -0.25191033 -0.066098355 177.95833
0.73574728 -0.24467507 -0.064100817 183.05
0.8463428 -0.24952763 -0.078132302 186.28572
0.92319918 -0.24938984 -0.097773887 187.33333
0.36691797 -0.15061684 -0.06323728 160.29167
0.43863341 -0.14452001 -0.070754036 161.71428
0.5484215 -0.15597968 -0.094613552 165.11111
0.63160539 -0.14547385 -0.075898327 172.95
0.74628913 -0.14967576 -0.082646295 180.92857
0.84361362 -0.15987073 -0.084839135 185.58333
0.92552233 -0.15375614 -0.099227749 186
0.38556695 -0.044086002 -0.084291182 158.64151
0.42894483 -0.048045281 -0.080525361 162.55719
0.53613657 -0.068944201 -0.099990666 163.375
0.62820899 -0.080198422 -0.091589354 168.66667
0.73051095 -0.098402783 -0.097505093 178.5
0.052151341 0.081282675 -0.04858375 161.5
0.15338013 0.069480561 -0.050098173 149.72093
0.25800186 0.05249121 -0.085263856 155.72151
0.35900143 0.03442619 -0.095504068 160.24796
0.40131849 0.058546882 -0.093979806 162.62163
-0.13832666 0.1276668 -0.0075193746 159.16667
-0.042365141 0.11071739 -0.037097577 170.73914
0.044244848 0.12694989 -0.056599017 163.86667
0.14672031 0.15660907 -0.054446749 146.03226
0.25404704 0.14714761 -0.071907431 151.49397
0.34554395 0.13703418 -0.08455082 152.0963
0.41414586 0.13939945 -0.094457813 154.60976
-0.10282566 0.25086105 -0.027397165 164
-0.054532319 0.26038104 -0.032696452 170.09091
0.051390562 0.24896899 -0.064011805 170.63158
0.14977026 0.24671172 -0.079887159 154.90909
0.24773419 0.24303156 -0.081660613 143.34616
0.34856242 0.24629988 -0.098182686 147.17647
0.43176377 0.24759473 -0.11119413 146.82979
-0.045329876 0.32804233 -0.042465437 167.27272
0.048295997 0.34370437 -0.055083089 174.53334
0.14406224 0.33577442 -0.071100406 172.11765
0.24593824 0.34085929 -0.080071144 160.86111
0.34735513 0.33609581 -0.082901768 148.23077
0.44410408 0.33738157 -0.090491384 144.75
0.059815191 0.4194864 -0.063601159 170.60001
0.1542477 0.45483884 -0.077921696 175.0625
0.23956977 0.4557834 -0.094898723 176.19048
0.35239154 0.4602623 -0.10061115 172.13043
0.45696843 0.4410702 -0.10473467 167.68182
0.49821353 0.48170516 -0.10448347 176.66667
0.15595618 0.56001192 -0.071633212 166.5
0.23607069 0.55227041 -0.081755504 174.25
0.34682995 0.54463667 -0.09286882 175.53334
0.44723618 0.56157517 -0.11108601 175
0.51504296 0.55056512 -0.11574141 173.14285
0.21135664 0.64177233 -0.084957026 190
0.3444804 0.61840689 -0.097425133 174.57143
0.45217735 0.62233317 -0.10958393 174.33333
0.53892851 0.64698529 -0.13310547 172.25
0.13359778 -0.83940893 0.11931737 209.33333
0.24190761 -0.83615977 0.10973259 208.54546
0.34769198 -0.83435017 0.097171962 208.25
0.44279498 -0.82787269 0.094382912 208.16667
0.55054969 -0.80665606 0.082382098 208.39999
0.55429417 -0.79298186 0.044042192 209
0.10228644 0.10566591 0.076570131 127
0.18212572 0.10319736 0.036839925 120
0.23762791 0.085744068 -0.018468726 122.625
-0.41512388 0.19471017 0.053266916 153
-0.35342288 0.17996456 0.049011301 157.25
-0.24215005 0.15342423 0.043513201 147.25
-0.16831033 0.13543512 0.022286667 148.375
-0.074918121 0.1127139 -0.0020066174 169
0.045036532 0.14223437 0.023860501 157
0.14807767 0.12034062 0.05166737 131.91304
-0.61850303 0.24352744 0.076085478 122.5
-0.52430505 0.22095929 0.067652553 135.75
-0.47982383 0.21012214 0.05531019 144
-0.20183209 0.30000022 0.022520689 146
-0.13333805 0.26530793 0.012761987 149.92308
-0.031340264 0.21386139 -0.010345707 166.5
-0.62441462 0.37178648 0.068004489 119
-0.56476253 0.34994239 0.065642081 123
-0.45578402 0.31001768 0.077700101 117
-0.22026411 0.30944636 0.021231698 147.5
-0.15002392 0.35304353 0.0064523835 148.39999
-0.062264793 0.34744301 -0.01309131 155.28572
0.016495122 0.39814687 -0.039203752 167
-0.34085751 0.47897574 0.010571548 150
-0.26222685 0.42711943 0.0082774274 149.60001
-0.1449426 0.44772717 -0.0079552243 147.125
-0.044583526 0.45026007 -0.018512111 150
0.036533356 0.44455338 -0.034541611 158.53847
0.1280289 0.48189953 -0.050708443 167.85715
-0.45128065 0.55086565 0.030507695 184.2
-0.34652382 0.54713529 0.0066088312 164.25
-0.26481524 0.54654199 0.021831511 178.09091
-0.15690775 0.57874233 0.0059715561 179.30769
-0.040902805 0.56555659 0.0054564569 179.58333
0.049105927 0.56905639 -0.018962165 171.35294
0.15130006 0.54270142 -0.061582182 166.28572
0.2454536 0.51324785 -0.072463885 177
-0.18450186 0.61276209 -0.025603089 198
-0.070957474 0.62898707 -0.048402708 181.33333
0.043169778 0.61323947 -0.039916709 184.75
0.13027033 0.6150893 -0.019748401 187.92857
0.24455097 0.6289621 -0.032547299 188.45833
0.35032165 0.6437977 -0.050455425 191.125
0.43843099 0.62829375 -0.041179076 190.71428
0.51592058 0.62274784 -0.051392797 192.27272
0.10794594 -0.84223127 0.22967999 208
0.2018878 -0.84484345 0.22883567 208.25
0.26666543 -0.84973133 0.20777611 208.22223
0.35360277 -0.85200405 0.19921689 208.54546
0.42761391 -0.84798771 0.18378036 207.625
0.53694344 -0.82411987 0.18000507 208.36363
0.092713095 0.1091656 0.095323391 119.5
0.071691617 0.12141615 0.11171438 124.125
0.12464553 0.1316655 0.078534782 120.5
-0.22489175 0.22539683 0.13016298 108
-0.2938543 0.56388563 0.10101946 197.66667
-0.2874943 0.56039792 0.080208637 198.5
-0.17988972 0.5914197 0.094624981 195.33333
-0.059483942 0.58404535 0.10186995 193.07143
0.057997711 0.60601705 0.095017225 190.69231
0.16032511 0.60037798 0.08411248 189.47058
0.27083689 0.607844 0.083227344 188.2
0.48554796 0.60920244 0.073495992 187.8
0.012212496 0.61949915 0.13789275 189
0.020976823 0.61612636 0.09327627 190.33333
0.16123384 0.61351776 0.044083871 189.14285
0.27286899 0.62009364 0.062733449 188.66667
0.34233463 0.62688845 0.062198237 188.69231
0.44267291 0.64781862 0.046084166 189.22223
0.50623167 0.63171077 0.00099468639 189
