# .PCD v0.7 - Point Cloud Data file format
VERSION 0.7
FIELDS x y z intensity
SIZE 4 4 4 4
TYPE F F F F
COUNT 1 1 1 1
WIDTH 124
HEIGHT 1
VIEWPOINT 0 0 0 1 0 0 0
POINTS 124
DATA ascii
-1.2046419 -0.53953153 0.50731778 14
-1.238067 -0.27610594 0.49171716 14.5
-1.1967653 -0.57847559 0.58374792 15
-1.2538816 -0.24488071 0.5447244 15
-0.97755045 -0.65606576 0.48926583 14.5
-0.43462241 0.53896278 0.046265617 9
-0.17802578 0.55933219 -0.0062832348 8.666667
0.31094033 -0.82491088 0.028764203 6
0.2983948 -0.55177552 0.0067746933 6.1999998
0.37504619 -0.34662008 -0.040693436 5
0.29227063 0.53618306 -0.095342256 6.4000001
0.28923547 -0.83405942 0.25693616 13.125
0.18757342 0.61066449 0.016613225 11.192307
0.45656693 -0.81622976 0.016620237 6
0.48483333 -0.5415597 -0.014952458 6
0.5740304 -0.21498974 -0.070318192 5.1428571
0.44261441 0.28984734 -0.10153618 5.5
0.49505579 0.56308019 -0.11728051 6.5
0.56286418 -0.81095761 0.1933457 11.428572
0.73574811 -0.77038115 0.17319007 11.1
0.46803153 0.6307714 0.012989915 11.555555
0.86836576 -0.78062135 0.17847687 11
1.0294237 -0.70751536 0.18734579 11.578947
1.1348306 -0.74113023 0.38213956 15
1.3528134 -0.70137256 -0.082022317 7
1.4203372 -0.60300934 0.18695195 11.6
1.4923785 0.73129839 0.14341828 13
1.4775202 -0.46946281 0.33616087 14.666667
1.4748733 0.78080231 0.22861542 14.5
1.3990743 0.91226888 0.22452082 14.5
1.8063974 -0.51528138 0.11124059 10.384615
1.7916864 0.67444754 0.099054448 11.8
1.8294419 -0.43329415 0.33810228 14
1.8437142 0.68870074 0.24700323 14
2.2176104 -0.44539806 0.057129338 9.666667
2.2607584 -0.38537472 0.3691808 13.714286
2.485872 -0.38405743 0.10816141 10.5
2.5195308 -0.36023211 0.082531393 10
2.7645676 0.69911855 -0.076158494 9.5
2.5143192 -0.36859277 0.3763504 13.5
2.5277085 -0.32284978 0.40185565 13.666667
2.8149824 0.73099691 0.23855989 12.6
2.8251202 0.93739796 0.17679219 12
2.9270105 -0.38025725 0.067576289 9.5
2.9204841 -0.28157562 0.076248601 10
2.8212938 0.79225206 0.047323532 11
2.9635003 -0.37969777 0.33042929 12.5
2.9658303 -0.26238805 0.35126895 12.75
3.2213931 0.12477919 0.37554121 13
2.8616524 0.80964279 0.24562059 12.6
2.8520706 0.9039706 0.24650501 12.6
3.0306492 -0.17477114 0.59809947 15
2.8929381 0.77341044 0.48130283 15
3.3798594 -0.033366039 -0.041940089 9.25
3.3278568 0.1688845 -0.067538351 9.25
3.4150453 -0.073857151 0.31749618 12.181818
3.3726385 0.21773756 0.28108704 12.222222
3.4162252 -0.074050136 0.6133545 14.666667
3.5089784 0.24214438 0.59324825 14.8
3.6600518 0.48887062 0.41610223 13
4.7246828 0.58134985 -0.52169263 7
4.5673499 0.82319796 -0.50569439 7
4.6495042 0.64727271 -0.23941764 8.25
4.722753 0.87758851 -0.32665786 8
4.7543039 1.0220207 0.071413323 10.5
5.1506476 0.80107582 -0.34135228 8
5.0982695 1.0855014 -0.28398505 8.5
4.9942889 1.0763265 -0.15218784 9
5.4277449 0.72329748 -0.20361292 9
5.9243951 -0.20461184 -0.31891745 8
5.7063141 0.79635262 -0.011894223 9.5
5.7149677 0.9535417 0.025336625 10.333333
5.9255786 1.3827339 -0.1818864 9
6.1442227 -0.38469917 -0.29678193 8
6.1635876 0.86551189 -0.60891002 7
6.5717454 1.4379638 -0.89333898 6
6.6492782 1.8112741 -0.68710864 7.3333335
6.665113 2.0307901 -0.68712944 7.5
6.8753667 -0.96220273 -0.72235566 6
6.7700667 0.13745001 -0.68251479 7
6.9445815 -0.96411693 -0.44194815 7.5
7.3267255 0.51421934 1.3814738 15
7.3338203 0.81580526 1.4026761 15
7.2697105 1.5821538 1.2680577 15
7.3368163 -0.98972917 -0.66103822 7
7.3260455 -0.88843131 -0.5372529 7
7.2296224 1.657941 -0.69418555 8
7.4225073 0.98007393 1.4274216 15
8.3400326 0.69937402 -0.04045834 10
8.7429686 -0.8774417 -1.0105306 6
8.7335148 -0.60967445 -0.91358811 6.6666665
8.5747414 0.92754555 -0.97069299 7
8.7624311 -0.50107151 -0.71055758 7
8.7056084 0.93117124 -0.2945213 9
8.7501812 0.87972522 0.07942012 10.5
8.7438402 1.0423776 0.075117789 10.5
8.7238369 1.4882504 0.20046166 11
8.6899872 1.890166 0.2125821 11
8.8121443 1.1732565 0.59111035 11.666667
8.7435637 1.6477023 0.44933087 12
8.6999187 1.8867314 0.36577412 11.5
8.6500664 0.78102696 1.0645913 13.5
8.8386507 1.2192401 1.0050455 13
8.7788363 1.5413951 0.8923555 12.666667
8.7594633 1.8956621 0.84758103 12.6
8.879406 -0.69736922 1.5342522 14
8.8270197 -0.14148334 1.5515226 15
8.7255821 0.54495293 1.3712999 14
8.6050568 0.87680054 1.1707801 14
8.8045435 1.2295139 1.3168555 14.5
8.7791672 1.6456848 1.3133332 14.4
8.7191029 1.9960946 1.3146297 14.5
8.6724358 1.8626819 1.6739435 15
8.745389 -0.84880179 -1.0392342 6
8.7631168 -0.67643404 -1.0108582 6
8.8176985 -0.82811505 -0.47134501 7.5
8.8272619 -0.62692988 -0.4335424 8
8.8791027 -0.84727859 -0.089170992 9
8.8845778 -0.72260278 -0.073808685 9
8.9092627 -0.71471304 0.15312162 10
8.9398823 -0.6865623 0.36791453 11
8.9844055 -0.85548109 0.58203185 11
8.9970303 -0.72990358 1.0728436 12.5
9.0984783 -0.71378434 1.3708094 14
