# .PCD v0.7 - Point Cloud Data file format
VERSION 0.7
FIELDS x y z intensity
SIZE 4 4 4 4
TYPE F F F F
COUNT 1 1 1 1
WIDTH 172
HEIGHT 1
VIEWPOINT 0 0 0 1 0 0 0
POINTS 172
DATA ascii
-1.7491851 -0.57753319 0.30165672 12.5
-1.7888545 -0.36210433 0.28360441 12
-1.756479 -0.55317128 0.42939413 14.2
-1.7888491 -0.37011799 0.46410829 14.5
-1.4093893 -0.68141347 0.29555452 13
-1.4505155 -0.67676961 0.39994037 14.666667
-0.80211771 -0.50861722 -0.025568761 7
-0.87514275 -0.36893857 -0.029471701 7
-1.0354239 -0.6353752 0.23345953 12.8
-0.80185145 -0.34691679 -0.021105755 7
-1.1859632 -0.67059058 0.36786717 15
-0.64127302 -0.44049367 -0.027666662 6.5
-0.52920735 -0.30635387 -0.022764362 6.6666665
-0.62070912 0.19524406 -0.029015256 6
-0.47747335 -0.83485961 -0.016171493 7
-0.6495626 -0.53052062 -0.017904447 7
-0.71277428 -0.32079828 -0.018240074 7
-0.17125157 -0.62622291 -0.0189743 7
-0.38675377 -0.33121437 -0.019238515 7
-0.0851463 -0.82425028 0.096001916 10.833333
-0.14908189 -0.61519057 -0.0078834901 7.3333335
0.24490552 -0.82499474 -0.012951411 7
0.19174847 -0.49261919 -0.016704718 6.5
0.3186914 -0.39495707 -0.0060625402 7
0.13198592 -0.82357061 0.10765263 11
0.17815314 -0.64615637 0.028685937 8.3999996
0.31689453 -0.39738098 -0.0016329048 7
0.69247109 -0.040372267 -0.0056331707 6.5
0.57799435 0.18660961 -0.026209552 5.090909
0.60699594 0.59559321 -0.019802017 5.75
0.65894806 0.74296111 0.18585007 11.857142
0.69190061 0.92638832 0.3352257 14.2
1.0207549 -0.095045626 0.0045881118 7
1.029725 0.20229037 0.00070941105 6.3333335
0.95368999 0.62093002 -0.0033924058 6.1999998
1.0711455 -0.49426579 0.33729002 14.666667
0.81112617 -0.064187862 0.019656301 7
0.96108317 0.64214623 0.18243372 10.909091
1.3345302 -0.089178465 0.0066605965 7
1.3366035 0.2579647 0.0033948855 6.5
1.3599762 0.58389646 0.01047893 6.6666665
1.422698 -0.46478727 0.34152788 13.142858
1.335166 0.63806838 0.24952544 11.25
1.464954 -0.46070436 0.46878025 15
1.3856661 0.65033883 0.47274527 14.666667
1.8011938 0.29885596 0.026027054 7
1.6230747 0.5927949 0.017675806 7
1.8403009 -0.43134907 0.3345539 11.714286
1.7636714 -0.43640494 0.50715888 14.5
2.072674 -0.25288513 0.026149454 7
2.0131717 0.55141157 0.023249272 7
2.361918 0.94946134 0.0461764 7
2.3330238 -0.26639107 0.34610671 11
2.2961321 0.67138636 0.2876994 9.666667
2.3087485 -0.42988345 0.54549456 13.4
2.3561084 -0.31958812 0.63675296 14
2.2374895 0.68520844 0.62679607 13.8
2.2792506 0.9097591 0.66188538 13.833333
2.7272961 0.49405041 0.035568152 7
2.3982654 -0.44182891 0.63222468 14
2.4603498 -0.34802565 0.60172522 13.333333
2.9920266 -0.22095709 0.32710066 9.75
3.0165563 -0.17830598 0.66057873 12.7
3.012115 -0.19382039 0.91682369 15
3.1464932 0.1179589 0.92413223 15
3.2305675 -0.1209761 0.26137832 9
3.262666 -0.0053831781 0.37365285 10
3.2607658 -0.02554754 0.63944185 12
4.2037997 0.64968556 0.3739509 9.1999998
4.2105494 0.84680176 0.27880087 8.5
4.144886 0.64538723 0.65081561 10.6
4.2232914 0.86864907 0.7742216 11.25
4.1875248 0.87621647 1.1205463 14
4.4810462 0.94546777 0.47111404 9
4.6153121 1.5835421 0.40264013 9
4.5900731 0.097744778 0.63480949 10
4.6550455 1.0773739 0.63526082 10
4.7082324 1.2278088 0.67959464 10
5.1033115 2.2588289 0.053223465 6.5
4.8253841 1.7546958 0.2376496 8
5.1139302 2.2918234 0.24636903 8
4.8279986 0.13606131 0.72234756 10.5
5.0677872 0.57218063 0.77339399 11
5.0781326 1.206329 0.68844628 10
4.9081082 1.7140605 0.57888192 10
5.1637926 0.76400858 0.97961503 11.5
5.1287351 0.88952678 0.98220962 12
5.3713484 2.135015 0.1355053 7
5.4238296 2.1810014 0.32675102 8
5.4382949 1.2427566 0.84564185 11
5.3787341 1.3549327 1.0380607 12
5.7065058 1.3568989 0.13135043 7
5.9136777 -0.016376972 0.34321228 8
5.8376608 0.14321153 0.37029031 8
5.6545796 0.84145254 0.50742602 9
5.8663368 1.4090519 0.28428441 7.5
5.9158959 -0.015895022 0.54834843 9
5.7720366 0.15306138 0.97304827 11.25
6.1605916 0.27390239 0.07847742 7
6.1086469 0.42402062 0.047604557 6.5
6.3721185 -1.267454 0.37992558 8
6.3899608 -1.0948997 0.3883357 8
6.1634078 -0.053364735 0.25172108 8
6.121911 0.28410169 0.38623351 8
6.0467839 0.40121365 0.39221087 8
6.2375264 1.7410125 0.3650322 8
6.3411379 -1.2362868 0.70389909 10
6.151515 -0.068438418 0.51703095 9
6.3179693 0.13973367 0.54782945 9
6.287416 1.7308633 0.5748561 9
6.2639093 -0.10511354 1.0391445 11.5
6.6525726 -1.2568332 0.086621545 7
6.7943954 0.32135132 -0.067800179 6
6.4023194 -1.2466908 0.36925945 8
6.5194488 1.5102581 0.52137768 9
6.4332418 -1.2539351 0.53646982 9
6.3927789 -1.1027886 0.64230138 9.5
6.5646696 0.3082 0.59321404 9
6.7713089 -0.90430325 0.915016 10
7.0223274 -1.3585802 -0.059223879 6
6.819387 0.93399119 0.47423089 8
6.8687015 0.49818426 0.64823353 9
7.4984145 0.65465748 0.045532111 7
7.4154029 2.7171886 0.42162251 8
7.3530083 2.8858125 0.44214112 8
7.3699536 2.838232 0.71654594 9
7.8359447 -0.089862049 0.075430408 7
7.7272172 0.17666739 0.11339384 7
7.7680802 0.53025216 0.066356197 6.5
7.8182569 0.8339389 0.029650247 6.5
7.8502598 -0.0097446032 0.16673857 7
7.8237391 0.67997748 0.41060248 8
7.907299 1.5974885 0.26231629 7
7.8029799 2.5348687 0.23145676 7
7.7783914 0.52844739 0.86317325 10
7.9261055 2.9502239 0.71324211 9
7.7778296 0.29323009 1.4906508 11.666667
7.7426805 0.53421068 1.389528 12
7.7858253 0.17008625 1.946779 13.4
7.7460213 0.56828016 1.8049359 13
7.792346 -0.11094832 2.3855469 15
7.7689729 0.12486897 2.3238103 15
7.7498741 0.46957421 2.2741673 14.5
8.1195192 1.7133428 -0.010426955 6
8.3110991 -1.6380295 0.12828498 7
8.3456917 -1.4421085 0.15038641 7
8.3380976 -1.1311738 0.39895511 8
8.1397781 0.97104168 0.46514601 8
8.120491 1.2789166 0.48001456 8
8.2993412 -1.0901917 0.65649498 9
8.1595306 0.7324903 0.91300428 10
8.1467447 0.89555651 0.76549375 9.5
8.0322857 2.5383904 0.67804855 9
8.0168743 2.8642843 0.67254281 9
8.1294222 0.92552388 1.2708434 11
8.122097 1.275023 0.98954111 10
8.1014538 0.72625136 1.5675493 12
8.1166048 0.99958545 1.6132976 12
8.0878887 1.2495401 1.7599914 13
8.0398064 1.9038268 1.5187354 11.5
8.0127926 2.0943155 1.5460079 11.5
8.1505604 0.74100381 1.8876634 13
8.1147671 0.97796601 2.0045004 13.5
8.0784779 1.4203339 2.012321 13.5
8.0426941 1.764596 1.9996779 13.25
8.031743 2.0089009 2.0191524 13.333333
8.081789 0.93340772 2.3759995 14.5
8.0460768 1.4352463 2.3998868 15
8.0129147 1.8202718 2.4619498 15
7.9899611 2.114974 2.5130272 15
8.0635452 0.93611264 2.6467199 15
8.023531 1.8798034 2.6997759 15
