# .PCD v0.7 - Point Cloud Data file format
VERSION 0.7
FIELDS x y z intensity
SIZE 4 4 4 4
TYPE F F F F
COUNT 1 1 1 1
WIDTH 25
HEIGHT 1
VIEWPOINT 0 0 0 1 0 0 0
POINTS 25
DATA ascii
-1.7378844 -0.64138782 0.30422527 12.5
-1.7570846 -0.64605719 0.42340398 14.5
-1.5356848 -0.69308704 0.24110079 12
-1.5425093 -0.69698381 0.44848505 15
-1.2399743 -0.66561157 0.25950211 13
-0.96194994 -0.65247375 0.31495276 15
-0.04240609 -0.80278319 0.19825035 15
0.18200466 -0.8029896 0.20056173 14
0.71677232 0.79823452 -0.025268802 6
0.78902489 0.75437659 0.063510381 8
0.97749418 0.78868324 0.41479808 15
1.0403692 0.59348238 0.23025274 12
1.1101496 -0.49089372 0.32838303 14.5
1.037306 0.61058503 0.30912584 14
1.278223 -0.47500497 0.380173 15
1.2910947 0.62903786 0.28083307 12
1.306662 0.64440143 0.46321645 15
1.4549707 -0.46526304 0.31410086 12.5
1.7012372 -0.44109014 0.49171489 14
1.9795305 -0.41994715 0.34276244 11.5
1.8768073 -0.42843315 0.46239009 13
2.289326 0.79208332 0.54449886 13
2.2895591 0.7454772 0.72177356 14.5
3.0666718 -0.068571299 0.80555743 14
3.2369831 -0.063329026 0.32918438 9.5
