# .PCD v0.7 - Point Cloud Data file format
VERSION 0.7
FIELDS x y z intensity
SIZE 4 4 4 4
TYPE F F F F
COUNT 1 1 1 1
WIDTH 14
HEIGHT 1
VIEWPOINT 0 0 0 1 0 0 0
POINTS 14
DATA ascii
-2.4835849 -0.54142094 0.23839591 10.5
-2.444881 -0.6777671 0.47766379 13
-2.478097 -0.5684399 0.36499509 12
-2.4904127 -0.56668174 0.60481584 14.5
-2.2415626 -0.72493756 0.20786799 10
-1.675065 -0.66738719 0.49537224 15
-1.5097159 -0.66219693 0.31749764 13
1.3024893 -0.45507136 0.35794306 14
1.3305906 -0.44969955 0.41465685 15
1.5608952 0.61055678 0.48921564 14.5
2.3478255 -0.52980286 0.15348954 9
2.3467402 -0.54764193 0.35068417 11
7.0461636 0.341901 1.8685141 14
7.0240564 0.5128606 2.0633497 15
