# .PCD v0.7 - Point Cloud Data file format
VERSION 0.7
FIELDS x y z intensity
SIZE 4 4 4 4
TYPE F F F F
COUNT 1 1 1 1
WIDTH 215
HEIGHT 1
VIEWPOINT 0 0 0 1 0 0 0
POINTS 215
DATA ascii
-0.34805855 -0.75815183 -0.02151797 166
-0.70732754 -0.67250633 -0.025972914 123
-0.63654983 -0.62844825 -0.021413356 128.5
-0.080875829 -0.62438595 -0.0123978 182
-0.8199653 -0.54839694 -0.028396977 134
-0.74484235 -0.51404715 -0.025190139 125
-0.55702364 -0.58022624 -0.02316343 143
-0.47396332 -0.52859789 -0.018176874 146.5
-0.16436061 -0.56805408 -0.014550478 183.5
-0.8884927 -0.40051469 -0.030683257 110
-0.63982767 -0.46609956 -0.021175323 134.33333
-0.55620301 -0.42891425 -0.025135491 153.66667
-0.038285363 -0.43878007 -0.013645432 183.25
0.064419836 -0.43513659 -0.020701893 180.66667
0.13409495 -0.4533987 -0.015470188 180.14285
-0.8397786 -0.38527864 -0.030178456 111
-0.76213545 -0.36065599 -0.025860282 115.5
-0.65570933 -0.32699034 -0.020762589 132.33333
-0.59379244 -0.30776757 -0.021513855 148
-0.45957559 -0.38497382 -0.022644944 171.25
-0.35808343 -0.33933389 -0.023674535 186.5
-0.27665049 -0.30095732 -0.011822148 191
-0.041036725 -0.34444398 -0.018449804 181.60001
0.058501344 -0.34587505 -0.015280015 177.3125
0.15865235 -0.34101549 -0.021021221 173.07692
0.2124275 -0.32666227 -0.037547443 167.77777
-0.94076377 -0.24537353 -0.042195018 109
-0.8374204 -0.22626816 -0.038589455 117
-0.72709078 -0.20588258 -0.034859981 130
-0.52572477 -0.28674722 -0.023446279 163.33333
-0.43768242 -0.25985283 -0.028916555 182.60001
-0.36739281 -0.23831609 -0.032571543 191.33333
-0.25448453 -0.24539991 -0.018594651 187.08333
-0.1314266 -0.2372224 -0.02466231 182.41667
-0.063656367 -0.20600493 -0.020149827 179
0.03727226 -0.22086313 -0.042006724 172.64706
0.1434498 -0.23127079 -0.033387251 162.45454
0.24355493 -0.26249212 -0.021030877 161.10001
-0.64942223 -0.19180745 -0.03677348 147
-0.54254079 -0.17207731 -0.033273708 170.25
-0.4426811 -0.15390474 -0.034276731 186
-0.35117596 -0.13694063 -0.02992917 189
-0.24783602 -0.13489586 -0.021460859 185.88889
-0.16340126 -0.14139898 -0.031393047 181.77272
-0.031245118 -0.15700029 -0.03485918 175.36667
0.050236825 -0.14531827 -0.05087534 168.83333
0.15830103 -0.14300589 -0.027410319 162.57143
0.25039053 -0.13831179 -0.034288701 161.98851
0.3226355 -0.11301827 -0.043003935 157.05
0.59024638 -0.106653 -0.036453962 154
0.64199549 -0.12714216 -0.0037775023 152.92
0.71544105 -0.16171771 0.0032181924 149.60001
-0.94110149 -0.080901116 -0.045671586 109
-0.83000273 -0.074110746 -0.039433099 116
-0.74589306 -0.069037415 -0.037392922 132
-0.6720112 -0.064715952 -0.041012626 145.66667
-0.54701871 -0.057137221 -0.035829876 171
-0.44014436 -0.050829876 -0.038202655 187.8
-0.33045584 -0.044028029 -0.027105639 189.2
-0.24200417 -0.038693365 -0.024315754 185.28572
-0.15541936 -0.043658007 -0.038046192 180.61539
-0.044419572 -0.054423645 -0.045304757 174.1579
0.058047708 -0.047565728 -0.047431227 165.41936
0.15706362 -0.049674261 -0.036564343 162.2561
0.25522706 -0.047736388 -0.05958477 161.97794
0.3516897 -0.033298686 -0.064226069 163.48582
0.45264059 -0.016609991 -0.033675533 161.36893
0.54848313 -0.038888086 -0.036258176 157.49397
0.63945127 -0.044129614 -0.013993099 152.24286
0.73057657 -0.050459795 0.0046839211 148.75
-0.95366025 0.082651682 -0.045766406 110
-0.84765679 0.076056004 -0.041642584 116.5
-0.74249196 0.069524132 -0.039152943 134.66667
-0.65016186 0.063832037 -0.04151788 152.66667
-0.54427618 0.057230361 -0.037670657 172.5
-0.44226635 0.050894804 -0.0368695 185.8
-0.33509454 0.044150744 -0.027590223 188.60001
-0.24565822 0.038573127 -0.024783753 185.57143
-0.15652971 0.046922632 -0.039511506 180.64285
-0.044344854 0.052633569 -0.044204019 174.72974
0.055085286 0.049089331 -0.05150627 165.15625
0.1560552 0.049054626 -0.037460025 163.2
0.25243899 0.046091568 -0.055546142 160.53488
0.36098272 0.016021093 -0.058808081 161.41011
0.4426195 0.034712598 -0.032990687 159.49438
0.54471517 0.052302238 -0.034318045 158.21622
0.63820451 0.055114985 -0.014784435 154.03572
0.73551476 0.058649477 0.0056512235 149.08333
-0.2293856 0.19369768 -0.029377893 186.33333
-0.15860815 0.14298189 -0.033728182 181.55
-0.035360515 0.13381514 -0.038989726 176.05882
0.050090954 0.14849864 -0.061367653 169.42424
0.14963147 0.13335185 -0.038121499 165.13889
0.21494302 0.10981409 -0.039212465 163.375
0.47260779 0.13512497 -0.029098181 153.94444
0.55597055 0.15139127 -0.034973733 152.39726
0.63963884 0.14471373 -0.00148997 151.55
0.72141254 0.13980955 0.0046078097 149.81818
0.98270726 0.13809867 0.017473722 169
-0.51718193 0.28447074 -0.037589394 171
-0.45448279 0.26504037 -0.040107567 179.5
-0.36366314 0.23645557 -0.03828644 186.60001
-0.26873752 0.20566477 -0.024946576 188
-0.10429919 0.29992795 -0.018691653 184
-0.056008365 0.27292407 -0.033677641 181.07143
0.037236519 0.21795812 -0.04450909 174.33333
0.54260105 0.23976837 -0.012444448 147.64
0.64872485 0.24785975 0.0022691765 147.28
0.70285946 0.21594086 0.0071801422 150
0.83585972 0.23071519 0.015953347 167
0.95077258 0.2602838 0.01297667 166
-0.83936518 0.3861219 -0.047625776 121
-0.74787062 0.3572076 -0.044125374 131
-0.6445657 0.32485116 -0.043852352 147.5
-0.57213962 0.30222297 -0.044410523 162
-0.2178926 0.37039402 -0.026223833 189.33333
-0.15424892 0.33128601 -0.024338383 186.57143
0.56641644 0.34346154 0.0013914647 151
0.63552815 0.34243974 0.010124827 158.64285
0.7431646 0.35822672 0.012158238 167.625
0.85994399 0.36673087 0.014202431 169
0.92591822 0.36582488 0.0062812185 167
-0.40936491 0.48895639 -0.037420232 173
-0.34797055 0.4513683 -0.036499206 180.2
-0.2820802 0.41157785 -0.038943097 189.66667
0.58688343 0.40440607 0.012236713 161.5
0.64824849 0.45352256 0.0050245174 170.55556
0.74180144 0.44641137 0.0080164159 170.60001
0.85113472 0.46046248 -0.0012761235 166.83333
-0.53936309 0.5694527 -0.045044988 159
-0.45442194 0.5172357 -0.042421013 170
0.66351527 0.54724842 -0.0014957674 172.60001
0.76075435 0.5475415 -0.0018425714 167.83333
0.84041065 0.5124076 0.0059249257 161
-0.61651993 0.6138252 -0.028417001 204
-0.59883094 0.60060042 -0.013236296 213
0.69526774 0.60873371 -0.003448053 167
0.71268421 0.64402956 -0.0019285781 165
-0.22580013 -0.80406791 0.018164342 211.5
-0.092171699 -0.80570328 0.07103315 208
-0.36545175 -0.77095848 -0.0055092168 188.33333
-0.23168336 -0.78164244 0.035954915 206.77777
-0.1614785 -0.72800106 -0.0045017321 179.75
-0.059446502 -0.77449149 0.022028314 202.27272
-0.24107948 -0.64428455 -0.0073284693 173.39999
-0.11346793 -0.663468 -0.0022489184 181
-0.048273642 -0.66343421 -0.0034364909 180.75
0.016605008 -0.65476358 -0.0045340611 184.33333
-0.5431788 -0.57068586 -0.017310213 142.5
-0.15189967 -0.55226362 -0.0047923224 184.25
-0.024323005 -0.54412043 0.00074531749 185.42857
0.063450813 -0.54861456 0.0048119975 185.88889
-0.38051328 -0.46688423 0.0069242925 143
-0.046318021 -0.44241542 0.0010795331 185.55556
0.041163187 -0.45634127 0.0031581309 183.83333
0.11910297 -0.47064012 0.0016297958 182.33333
-0.054735351 -0.35790631 0.01176931 181.44444
0.14092767 -0.37385491 -0.0014878807 176.5
0.94083279 -0.30758241 0.011490805 165.5
-0.5063197 -0.27929434 -0.0090047903 163
-0.17509972 -0.25438851 -0.0063375658 185
0.065994814 -0.2378777 0.070069157 175
0.13467306 -0.24573995 0.037516817 152.5
0.21006735 -0.21844783 0.036729284 123
0.77014399 -0.21597765 0.027121622 162.33333
0.85092545 -0.24963783 0.028410478 168.14285
0.92422289 -0.21857259 0.027780466 169
0.068291239 -0.18277209 0.06146143 166
0.17286797 -0.16283433 0.090430051 127.2
0.24883023 -0.15669729 0.062529154 128.38889
0.30500951 -0.13009143 0.020696441 122.5
0.69038057 -0.14131701 0.010543828 148.39999
0.75461555 -0.14713947 0.02309465 153
0.84876692 -0.15397206 0.029264381 165.15384
0.93499798 -0.1477555 0.028601862 164.66667
0.69302988 -0.0049826354 0.011897017 151
0.76410192 -0.037532534 0.020517014 151.16667
0.84942031 -0.036758564 0.029663745 162.28572
0.93878692 -0.043631546 0.029058442 166.875
0.69933635 0.033676211 0.012939749 146
0.7712785 0.067240305 0.022420995 153.38461
0.84732646 0.05594568 0.029145572 163.625
0.94076318 0.059021439 0.030281397 169.25
-0.22928195 0.11023624 0.053350795 178.94444
-0.18234493 0.10353108 0.0090708537 157
0.066898063 0.13304245 0.082056515 139.78572
0.75702482 0.16348831 0.021827918 154.21428
0.85584265 0.14124122 0.026914351 164.64285
0.92352808 0.1491745 0.028053224 168.33333
0.68987048 0.27102488 0.019304298 151.33333
0.74789554 0.2444558 0.023278035 158.60001
0.84807998 0.25894997 0.024024859 166.57143
0.66742706 0.34409335 0.017842157 162
0.77280587 0.34364012 0.020828271 167
0.8411296 0.31246686 0.024914546 168.33333
0.58998531 0.41342112 0.017115394 164
0.64555317 0.57198226 0.09848389 193.5
-0.61265731 0.60076594 0.038088355 211.33333
-0.10369086 -0.80316955 0.11332932 207
-0.09613955 -0.80507177 0.085152343 207
-0.23942418 -0.78148389 0.11869995 209.33333
-0.11186676 -0.79717892 0.15115084 205.57143
-0.098291963 -0.80076146 0.10015845 207.5
-0.094482377 -0.44871435 0.13895126 219
0.020081623 -0.31410074 0.19479781 214
-0.12029149 -0.28732118 0.11824464 136
0.05412085 -0.2278816 0.15039526 151.5
0.076172374 -0.17321244 0.12868609 133.55556
0.13310748 -0.17127369 0.10997505 127.33334
-0.309737 0.12153522 0.13305235 170
-0.27645934 0.11630807 0.11268652 184.8
-0.010986751 0.15563738 0.18876898 151.71428
0.022983022 0.14616714 0.13882093 144.88
0.62644905 0.57844728 0.1715358 190.35715
0.75471014 0.62260985 0.18668899 188.5
