# .PCD v0.7 - Point Cloud Data file format
VERSION 0.7
FIELDS x y z intensity
SIZE 4 4 4 4
TYPE F F F F
COUNT 1 1 1 1
WIDTH 214
HEIGHT 1
VIEWPOINT 0 0 0 1 0 0 0
POINTS 214
DATA ascii
0.49316213 -0.83091921 -0.0097349929 167
0.47853306 -0.7259022 -0.0050549954 181.33333
0.58021295 -0.73243427 -0.0046016895 177.25
0.47388992 -0.68247336 -0.0078101633 182.5
0.56686842 -0.67431939 -0.011131324 183.66667
0.65641469 -0.6555627 -0.0064849504 192.5
0.74693167 -0.62162167 -0.016445618 197
0.46059969 -0.58430803 -0.0048070531 185.66667
0.54845488 -0.54435372 -0.0018721785 186.25
0.6343087 -0.53292972 -0.002683138 188.66667
0.75059611 -0.5445354 -0.010843545 194.5
0.81391543 -0.55461234 -0.011166194 195.66667
0.45206454 -0.44759953 -0.017040811 178.54546
0.53184628 -0.43103278 -0.014737537 179.84616
0.66416788 -0.48175466 -0.0076731942 189.25
0.72204405 -0.43701822 -0.0048813424 188.5
0.86395723 -0.47456422 -0.013318506 195.5
0.9137454 -0.40272716 -0.01624037 194
0.45641205 -0.33915937 -0.021863783 173.67647
0.54159027 -0.3330189 -0.012676243 176.11765
0.64151847 -0.34704468 -0.013937471 182.09525
0.77211809 -0.36252132 -0.0022494858 187.75
0.84093434 -0.34960711 -0.0036405663 192
0.91974795 -0.30974752 -0.0091843856 194
0.45236599 -0.27019766 -0.036298651 169.26666
0.55254316 -0.25102359 -0.023530342 172.37778
0.64484876 -0.24475814 -0.012978324 179.6842
0.73238641 -0.2324255 -0.013670367 183.30769
0.85654134 -0.23400396 -0.0059834127 189.375
0.93220043 -0.23020041 -0.0053291069 193
-0.13845293 -0.13694414 -0.011718945 157.5
-0.045966703 -0.11275042 -0.029882498 170.19048
0.44572997 -0.12071095 -0.030169781 157.09836
0.55559182 -0.14635925 -0.044546455 161.94643
0.63939333 -0.14625572 -0.02131846 175.75555
0.75837874 -0.13942733 -0.016107891 182.31818
0.85337579 -0.14413203 -0.002868453 189
0.92090124 -0.15085393 -0.0015880238 192.75
-0.14504273 -0.035603277 -0.011001689 158.60001
-0.051629722 -0.030661838 -0.035218757 170.56097
0.055999503 -0.042188201 -0.034564823 159.58537
0.14822416 -0.037588295 -0.026453465 148.86885
0.24836193 -0.026916046 -0.065430075 160.37038
0.36275154 -0.0083822217 -0.063770376 159.95775
0.43858898 -0.038626362 -0.04182405 162.75504
0.54189444 -0.043587632 -0.042255364 162.37975
0.64565164 -0.042968422 -0.036765229 173.38028
0.76151806 -0.038847908 -0.018418377 181.8
0.84698921 -0.032602649 -0.0032339189 188.375
0.923895 -0.046417862 -0.0049844692 191.5
-0.14100206 0.062302832 -0.012260489 159
-0.047641709 0.055821244 -0.034198012 170.5238
0.064107157 0.055407256 -0.032329489 156.59091
0.16041498 0.045779612 -0.029219011 148.91765
0.25432846 0.045996308 -0.055203069 155.99338
0.36018834 0.034788061 -0.058357373 159.17514
0.44309264 0.0081757922 -0.040902402 161.50793
0.54736185 0.027457632 -0.048462972 164
0.64735204 0.043430235 -0.038728934 174.14635
0.76601678 0.064340115 -0.022722138 182.39131
0.83013976 0.059463762 -0.0034042231 188
0.92536604 0.055468369 -0.0085357483 192
-0.14170776 0.1306574 -0.01447852 158
-0.043072034 0.12927334 -0.02477294 170.66667
0.051128376 0.15655935 -0.047020916 162.57692
0.15600424 0.1448959 -0.024972653 146.48215
0.2518799 0.14403039 -0.030886564 149.3871
0.33977389 0.14072819 -0.034166116 150.60785
0.87156379 0.11100826 -0.011604444 189
0.92505026 0.12302916 -0.0080818217 193.66667
-0.1024974 0.26097068 -0.003643191 157.5
-0.043198295 0.24465244 -0.016672295 168.64706
0.049418736 0.24647823 -0.03426348 170.91891
0.14801419 0.25271276 -0.043459363 154.43333
0.25116649 0.24393257 -0.031838074 142.85417
0.33403954 0.25172833 -0.034929182 145.89999
-0.031890087 0.34196237 -0.014621287 166.5
0.052162003 0.34536895 -0.023033286 174.57143
0.15245365 0.3326413 -0.02449338 170.60715
0.2547484 0.34254986 -0.022514507 157.52777
0.32968441 0.34314963 -0.014561087 150.75
0.056955595 0.42235708 -0.012678585 171.55556
0.14922227 0.45214859 -0.023758061 175.90909
0.24641089 0.46424475 -0.021083308 174.8
0.31139651 0.46616337 -0.02462876 174.54546
-0.089409187 0.5672797 -0.00052388821 144
0.052962378 0.52456141 0.00018875995 156
0.12547305 0.56207049 -0.003538697 160.33333
0.25539953 0.5461629 -0.0025576074 168.2
-0.36877102 0.69308603 -0.00072964653 137
-0.18068175 0.67539054 0.00049018738 144
-0.005969021 0.61804622 -0.0016862346 144
0.17844725 0.66092384 -0.0030079177 152.25
0.27416471 0.64081323 -0.0022174958 161.75
-0.25666019 0.76582271 0.00017245159 140
-0.073459022 0.72291094 0.00061671529 139
0.14849448 0.75217509 0.0007733262 139.75
0.25841972 0.72940421 -0.0014691263 148.8
-0.1493956 0.84452534 -0.0042310115 138
0.12091532 0.83899111 0.0013253392 134
0.23940441 0.83674681 -0.00082179281 136
0.082505144 0.9623763 -0.00049186242 127
0.10041521 0.90902382 -0.0039766277 127
0.22060433 0.94522607 -0.001574596 129
0.4809832 -0.75738662 -2.2915819e-05 177
0.46249872 -0.61686093 0.0025565866 188.33333
0.54435509 -0.60657662 0.004247088 186
0.45061752 -0.52669442 0.0041835629 185.33333
0.52966613 -0.54932153 0.0028372719 186.5
0.63649285 -0.53420073 0.0044278186 190.39999
0.44643685 -0.49140933 0.0032200695 183.33333
0.54556006 -0.46181512 0.0055554942 183.7
0.63949996 -0.4170101 0.0030312533 187.39999
0.7553615 -0.443537 0.0051730415 192.16667
0.81790262 -0.43296072 0.0012305193 193
0.67377681 -0.36267465 0.0067184223 185.83333
0.72817475 -0.34483463 0.0071367659 187.8
0.8273856 -0.34087446 0.0033256107 192
-0.64032137 -0.2706455 0.027616061 117.33334
-0.54918361 -0.24623808 0.024460688 131
-0.45912796 -0.22208513 0.022143347 140.75
-0.39138219 -0.20403138 0.016968977 149.33333
0.4309549 -0.20444517 0.0263102 129
0.75807917 -0.25581181 0.0055093043 186.33333
0.86569971 -0.28046846 0.0030683624 192
0.90095478 -0.21802072 0.0021507218 192
-0.70285642 -0.15021259 0.021988014 113
-0.62732953 -0.13950838 0.022342928 121
-0.52710187 -0.1252968 0.024125399 134
-0.43901524 -0.11280981 0.019263461 145.60001
-0.35024095 -0.16045085 0.019051462 149.66667
-0.25919467 -0.16816059 0.025090355 145.83333
-0.17162238 -0.14478801 0.019227093 144.88889
0.38712162 -0.13976514 0.082070455 119.7
0.43989536 -0.15385409 0.055039968 123
0.78578758 -0.1692287 0.0035313333 186
0.81090176 -0.14997402 0.0070692985 187.75
-0.71331966 -0.014576796 0.020247649 115
-0.64112121 -0.013393709 0.019442568 119.66666
-0.53007561 -0.011622343 0.019907989 135.25
-0.43386105 -0.010015994 0.01829052 150
-0.33895802 -0.038315479 0.02380928 150.33333
-0.2506718 -0.046691712 0.024024684 144.3125
-0.17396776 -0.043323357 0.012576742 147.53847
0.79705441 -0.061846387 0.0052245571 186
0.82150018 -0.04750976 0.0043134419 187.33333
-0.43938908 0.093195207 0.016420377 148.25
-0.35160133 0.083376266 0.018907322 152
-0.25827911 0.072997533 0.020718589 147.71428
-0.18166168 0.065096974 0.012925261 148.57143
0.055302542 0.080238648 0.017508576 135.3
-0.72554761 0.12460039 0.017805681 116
-0.64337009 0.115431 0.019592058 121.33334
-0.53774148 0.10392176 0.01782175 135.25
-0.21762282 0.14120369 0.059469499 138.66667
-0.17730618 0.13248995 0.050622769 138.33333
0.03539139 0.12346247 0.076210096 129.5
-0.70729816 0.26174882 0.023768978 116
-0.66105247 0.25051868 0.025581736 118
-0.13134077 0.27241427 0.016883638 147.33333
-0.32701957 0.37562892 0.016682699 150.75
-0.24795696 0.33382994 0.017290426 148.60001
-0.15228532 0.35408723 0.01854373 143.88889
-0.059738759 0.34805322 0.012030872 153.7
-0.52141023 0.47896463 0.012192297 129.66667
-0.42875624 0.4294498 0.015737686 137.66667
-0.39910045 0.41524592 0.0079272864 147
-0.2608034 0.45424902 0.011421863 148.33333
-0.14750904 0.4562234 0.013180309 143.25
-0.050773304 0.44824749 0.012114998 147.72728
0.049027734 0.45062101 0.0077110352 161.55556
0.15721983 0.48845425 0.0048144758 170
-0.70908874 0.57574177 0.024304608 115
-0.65173137 0.54588759 0.022101099 115
-0.58512753 0.51136446 0.018774888 122
-0.45321599 0.58992708 0.0093544088 128.33333
-0.36074135 0.52456301 0.011003741 139.25
-0.23455484 0.56740147 0.0089837322 144
-0.14549507 0.55384362 0.0073982286 144.83333
-0.049470808 0.51445842 0.013699597 144
0.070394143 0.56352162 0.046316072 120.35714
0.12107094 0.56084633 0.012662083 140.66667
0.20065914 0.58420724 0.0035487607 163
-0.5484491 0.65536577 0.01570843 118.5
-0.32369056 0.64889282 0.0092201577 143
-0.28428143 0.61182308 0.012631972 144.5
-0.16747934 0.65624106 0.0096862447 143.75
-0.029913377 0.65164667 0.006511644 140.25
0.095651388 0.60077786 0.034818079 94
0.18946168 0.6182161 0.0050919354 155
0.27476481 0.62648094 0.0041156365 160
-0.62765181 0.70974135 0.021224855 111
-0.43929943 0.75421077 0.010834228 131
-0.38920549 0.70928639 0.0077261892 135
-0.25863913 0.76544857 0.0074283849 141
-0.12260347 0.79905099 0.0027315791 138
-0.092244163 0.74875659 0.0080942921 141.5
0.15961926 0.71152401 0.0063880049 140
-0.51437098 0.82190496 0.014255461 123
-0.49098897 0.80184466 0.0097194053 126
-0.33951899 0.86168009 0.0071958103 131.66667
-0.16120675 0.85786623 0.0064268396 137
0.12597123 0.81484532 0.0097593516 134
0.2354655 0.84462422 0.0076380516 134
-0.38802248 0.91778177 0.011345273 127
-0.21567003 0.94095969 0.011410815 125.5
-0.18999554 0.90278429 0.0070225983 125
0.087010622 0.94214606 0.0056903451 126
0.21353151 0.97422969 0.0049860324 121
-0.21151945 0.13217413 0.13347512 137.5
-0.16714257 0.12307073 0.11890294 138.2
-0.013069335 0.12554413 0.1907523 127
0.023692181 0.12033592 0.12983446 129
0.068382308 0.5801909 0.15478745 125.25
