# .PCD v0.7 - Point Cloud Data file format
VERSION 0.7
FIELDS x y z intensity
SIZE 4 4 4 4
TYPE F F F F
COUNT 1 1 1 1
WIDTH 599
HEIGHT 1
VIEWPOINT 0 0 0 1 0 0 0
POINTS 599
DATA ascii
-5.0453687 -4.5256939 1.4156271 13
-4.7720308 -4.8040643 -0.027631346 7
-4.6148858 -4.6245694 1.0351791 11.5
-4.5147533 -4.6237998 1.3482593 13
-4.4935207 -4.6342039 1.7110261 14
-4.1820245 -4.8830504 -0.025122134 7
-4.2663321 -4.8839607 0.81280112 11
-4.1574421 -4.6909051 1.1305976 12
-4.1628346 -4.6925678 1.3076507 13
-4.2073598 -4.687181 1.666889 14
-3.8240216 -4.9366221 -0.024158081 7
-3.8628967 -4.8130789 0.037939522 7
-3.7642605 -4.7596359 1.0959525 12
-3.7961137 -4.7614603 1.4162917 13.5
-3.475013 -4.9713244 -0.020932678 7
-3.2799268 -4.9183011 0.1457269 7.5
-3.2767785 -4.0913053 0.098398611 8
-3.2533391 -2.8579082 0.32051876 9
-3.3272989 -2.6780567 0.34104383 9
-3.293226 -4.8692861 0.61687773 10
-3.4378095 -4.8191929 1.0710925 12
-3.3955586 -4.8408937 1.3932996 13.6
-3.5844531 -4.7958674 1.247877 13
-2.9335797 -8.8927803 -0.068312615 7
-2.9920039 -5.0313253 -0.016957315 7
-3.0307837 -4.9829135 0.092602447 7.3333335
-3.1304462 -2.0694585 0.27000234 9
-2.9770501 -8.8522491 0.44213051 8
-2.9613683 -5.0059838 0.62815261 10
-2.4039447 -5.1194568 0.011658673 7
-2.6329675 -5.0266328 0.14954127 7.5999999
-2.7637806 -3.7253265 0.098074399 7.5
-2.523339 -3.4621587 0.25576451 8.75
-2.6041424 -3.1116781 0.25144029 8.666667
-2.5853291 -2.7000296 0.32535169 9.5
-2.6094396 -8.9649782 0.49596098 8.5
-2.598073 -5.0051866 0.49340862 9.3999996
-2.4517395 -4.0307655 0.61248714 11
-2.5537834 -3.8942683 0.59115726 11
-2.4669077 -3.3450487 0.53165716 10.75
-2.4755945 -3.0689187 0.56387448 11
-2.5590653 -2.7477429 0.45557699 10
-2.4638257 1.3841971 0.58913207 13
-2.1964815 -5.1585755 -0.0070062699 7
-2.2448292 -5.0911794 0.23373125 8
-2.3706028 -2.8575673 0.18886748 8
-2.2388794 -2.5506752 0.26755172 9.1999998
-2.215152 -2.1456311 0.29056743 9.5
-2.1956682 -1.8808919 0.26983252 9.666667
-2.1137862 1.3188632 0.36011478 11.5
-2.2709682 -9.0453758 0.48118728 8
-2.2164276 -5.1034493 0.49463439 9.5
-2.2727759 -3.5233018 0.59592289 11
-2.2500739 -2.5055594 0.57576478 12
-2.1838405 -2.1283581 0.56873977 12.25
-2.1576977 -1.920351 0.6402446 13
-2.1807952 1.3470954 0.58282769 13.5
-1.9304764 -5.2203283 -0.0048148721 7
-1.8779036 -5.1407843 0.27895543 8
-1.6193146 1.1115782 0.34504569 12
-1.8151697 -5.2195935 0.51819903 10
-1.8051093 -5.1596279 0.42460367 9
-1.6416209 1.1484993 0.44112131 13.5
-1.9058158 1.3122691 0.59304857 14
-1.6288815 9.7254381 1.0851848 9
-1.7881544 10.060658 1.9420742 12
-1.7127143 10.213921 2.1605453 12
-1.416584 1.0568703 0.34881774 12.666667
-1.5100133 -5.2609267 0.4713797 9
-1.3623114 1.0745171 0.44535652 14.2
-1.3143849 9.0252295 0.83312464 9
-1.3067874 9.7580986 1.1317201 9
-1.3269898 9.7748032 1.2792647 10
-1.3336887 9.6542044 1.6753109 11
-1.5554384 9.9600935 2.296212 13
-1.3390546 10.240729 2.2392612 12.25
-0.80765951 -0.53251994 6.4886131e-05 7
-1.0647423 1.0665855 0.35520926 13.666667
-0.95384991 1.3004459 0.36875755 13.5
-0.95114768 -2.7234681 0.41342267 11
-1.0380348 1.1039875 0.44177681 15
-0.93902016 1.3981841 0.44979191 14.5
-0.8074156 1.6568159 0.46126691 14
-1.0355141 9.7293921 0.77126521 8
-0.96466273 9.7498751 1.0280041 9
-0.9989363 9.697875 1.3052063 10
-0.90255666 9.9825668 1.7416763 11
-1.1525584 10.059214 1.7412235 11
-0.97139347 10.199227 2.3186796 12.5
-0.58492947 -1.8743978 0.0028379795 7
-0.54791766 -0.49295861 -0.0011245353 7
-0.47715411 -0.26043957 -0.0036347646 7
-0.55204868 0.35098886 -0.0016812567 7
-0.48251 -1.6736915 0.0072719017 7
-0.66834056 -1.3378476 0.32253772 13
-0.64035767 -0.56981748 0.0050802049 7
-0.67787093 0.39806074 0.0026792157 7
-0.6522404 1.6224838 0.38268608 13
-0.42913887 1.5948491 0.43257508 14.5
-0.64074963 1.6306759 0.44737414 14.2
-0.68425131 9.8568668 0.81927937 8.333333
-0.52381587 10.067194 1.1180454 9
-0.47433794 9.9172926 1.3538984 10
-0.79225558 10.109237 1.3959916 10
-0.4235169 9.9560232 1.7607149 11
-0.66652703 10.007961 1.7563034 11
-0.55774784 10.12165 2.2415013 12.4
-0.065363973 -0.87722945 -0.010875332 6.5
-0.12566327 -0.63466984 -0.0087234313 6.75
-0.38732406 -0.34501517 -0.00066691887 7
-0.33099866 -1.3787931 0.010371784 7
-0.091303319 -1.0018436 0.11137965 10.25
-0.14247961 -0.60489553 0.095163547 11
-0.27149585 1.5709667 0.44417521 14.333333
-0.10109209 1.7052954 0.4558692 14
-0.18811221 9.929594 0.97034353 8.5
-0.076218322 9.9781246 1.4131966 10
-0.31123099 10.018148 1.4073522 10
-0.18650323 9.9129 1.7671939 11
-0.19903137 10.081204 2.2489588 12
0.10997464 -0.89028174 -0.010541524 6.5
0.16953813 -0.58739799 -0.011157146 6.5714288
0.098210715 -0.99446553 0.13009208 10.666667
0.14193437 -0.56206 0.0059882523 7.1999998
0.1789757 9.811368 0.76546675 8
0.16891286 9.7591276 0.98183304 8.666667
0.16332978 9.8672962 1.3538834 10
0.1660046 9.8097277 1.7703283 11
0.25095582 9.9150229 2.2418878 12.5
0.15944754 10.016956 2.2380791 12
0.60712689 -0.052514132 -0.028331043 5.8000002
0.58462936 0.13705298 -0.04517623 5
0.65140194 0.59638709 -0.027063709 6.3333335
0.62552178 0.98688281 -0.037354849 6
0.57832235 1.2229939 -0.03463709 6
0.66839433 1.8292837 -0.032598045 7
0.72381365 2.1842737 -0.040490575 7
0.78888714 2.5981357 -0.051258422 7
0.78598177 -0.13065143 0.0054656491 7
0.78964996 0.085208565 0.00037266221 7
0.63946909 9.8907404 0.76188838 8
0.58159435 9.9108801 0.98930633 9
0.68022859 9.9011335 1.3858988 10
0.73193687 -8.1919641 1.9199815 14
0.6576553 9.8974457 1.8447182 11
0.63166273 -9.1879463 2.2760892 14
0.65167975 9.8078098 2.2280798 12.5
1.0223014 -0.20624511 -0.009702784 7
1.0457315 0.22077073 -0.020564957 6.5714288
1.0172877 0.59279823 -0.030329777 6.3333335
1.003407 0.99246794 -0.031988684 6.1999998
1.03205 1.4166692 -0.027368369 7
1.011934 1.7898833 -0.033479992 7
1.0332582 2.1463294 -0.040151451 7
1.162523 2.5706003 -0.051910296 7
0.83316964 2.8779457 -0.059506491 7
0.88473564 3.2065897 -0.067689121 7
0.94875079 3.6150832 -0.077587992 7
1.0752786 -3.138948 0.18772811 8.75
0.80524749 -0.078046508 0.013063407 8
0.96086472 -3.4110494 0.53904122 11
1.0332829 -3.0174148 0.51355076 11.666667
1.1140841 -2.6263709 0.52653462 12
1.0338204 9.8312283 0.68780345 8
0.94886523 9.8447294 0.95770562 9
0.96477419 9.8519659 1.4078435 10
1.0234421 -8.2572498 1.9222046 13.5
1.0376611 9.8517599 1.8470789 11
0.83964777 -8.5176783 2.2707658 14
1.1836016 9.5527782 2.3117394 13
0.96037143 9.8091898 2.1989198 12.25
1.3959606 -0.32725012 -0.0039647762 7
1.3273418 0.27857146 -0.027995544 6.5
1.3254117 0.59981048 -0.027463943 6.6666665
1.4894468 0.98916101 -0.027845493 7
1.4250091 1.4103764 -0.034079105 7
1.3475004 1.7719445 -0.039067492 7
1.3795372 2.1616328 -0.047026761 7
1.2996821 3.0210247 -0.064147666 7
1.4777199 3.6074378 -0.078287125 7
1.4108158 0.15500973 0.22955637 11.666667
1.4547433 0.47441372 0.36831948 13.5
1.5441273 -5.1437454 0.53855789 10
1.5571198 -4.739646 0.53622288 10
1.2371061 -2.5312896 0.53759044 12
1.3010888 -2.1074972 0.5304445 13
1.4505788 -1.8421837 0.52627134 13
1.4268725 0.23955807 0.43159124 15
1.4725692 0.47602591 0.44719249 15
1.3563834 9.7789202 0.71844512 8
1.2171578 -3.9873557 1.0533365 14
1.4119653 9.7744865 1.1304424 9
1.4154557 9.7721767 1.4145668 10
1.424462 -8.3530684 1.9311506 13
1.3686281 9.7897387 1.8302252 11
1.364679 -9.2594595 2.2832263 14
1.2236942 -8.5858822 2.2930996 14
1.399597 9.4916153 2.3090665 13
1.4185991 9.7869167 2.1460853 12
1.7889986 0.63109714 -0.021513283 7
1.7360586 1.0165266 -0.03127059 7
1.8263043 1.4756303 -0.044943742 7
1.7901478 1.8864378 -0.052593153 7
1.7289882 2.0944009 -0.05336893 7
1.6490265 2.7453954 -0.062728174 7
1.7938743 3.0602477 -0.069516316 7
1.9934047 3.4918115 -0.082148485 7
1.6624702 4.2118192 -0.09709774 7
1.8491083 9.5593729 -0.116085 7
1.7164135 -3.9209802 0.18912607 8
1.8965119 -2.0907271 0.24422778 10
1.8270428 -1.781091 0.28533134 10.285714
1.6399207 -0.23299216 0.078171581 8
1.7095221 0.26625788 0.16535537 10.142858
1.9534528 0.58129853 0.23365109 10.333333
1.9096351 1.0353034 0.22584325 10.333333
1.8391129 -5.0201159 0.53151232 10
1.8300962 -4.6205101 0.52465945 10
1.8189411 -1.7665361 0.50972259 12.875
1.9752409 -1.5789977 0.60702187 14
1.8661647 -0.44910112 0.57339978 15
1.9239899 -0.15141658 0.54276937 14.666667
1.973563 0.084091306 0.52479237 14.5
1.9523405 0.50739455 0.41604894 13
1.9256579 0.979101 0.49240905 13.5
1.7679148 9.7116041 0.73327619 8.5
1.8548149 9.6978521 0.93136394 9.5
1.8664697 9.6920948 1.4209189 11
1.8450012 -8.4686747 1.9497892 13
1.826847 9.7120037 1.8140152 12
1.6726568 -9.1967564 2.2719316 14
1.8776499 -9.1621685 2.2685812 14
1.6115791 9.3990307 2.2996449 13
1.8738766 9.6958151 2.1999595 13
1.9052856 -9.0516148 2.5837822 15
2.3705242 -0.64132774 -0.0067596035 7
2.2250204 1.645613 -0.054127421 7
2.1130686 2.0281467 -0.062216084 7
2.0144622 2.5391629 -0.06482669 7
2.2135563 2.848805 -0.073973939 7
2.097949 -1.6519138 0.25587767 9.75
2.2237651 -1.5907706 0.37098226 11
2.2256224 -0.66703838 0.30372959 11
2.2921519 0.66931409 0.002303822 7
2.1224339 0.96686965 0.2222496 9.8571424
2.1991253 1.264479 0.19679828 9.5
2.2567189 2.2894938 0.19092248 9
2.1101847 -2.308517 0.57641089 12
2.115696 -1.6233499 0.58451337 13.5
2.1724634 -1.5604298 0.5521009 13
2.3603394 -0.8117615 0.65818638 14
2.2640998 -0.66294032 0.54006022 13.5
2.3657072 -0.22759965 0.51211923 13
2.2092223 0.27818915 0.59587193 14.4
2.1467531 0.59398228 0.55875474 14
2.1524675 0.90960753 0.57927424 14
2.2053242 9.6441412 0.68786669 9
2.1795607 9.6400728 1.0524887 10
2.1482625 9.6412659 1.400376 11
2.2171078 -8.7467594 2.0010712 13
2.2392924 -8.1871653 1.847014 13
2.1586206 9.6703072 1.825256 12
2.1891458 -9.1161575 2.2663724 14
2.2405562 9.1828918 2.2867761 14
2.0335627 9.2529936 2.2904935 14
2.150667 9.6502285 2.095794 13
2.1383963 -9.2131538 2.6376197 15
2.4228299 -6.662993 -0.11010293 7
2.6471312 2.0221848 -0.069797523 7
2.7868209 3.7410071 -0.098988749 7
2.4595201 -7.5521603 0.22821598 8
2.7465844 -1.0497886 0.20027387 9
2.5104864 0.76273358 0.14035733 9
2.6491601 0.82276684 0.23350699 10
2.7729244 2.1763837 0.076918215 8
2.5921204 -0.96792656 0.61070269 13.375
2.5073633 -0.69037735 0.67030668 14
2.6715202 0.037457999 0.50273263 12.5
2.7062578 0.78395587 0.62313586 13
2.6432908 1.0110444 0.52471685 12.4
2.5131235 1.2580651 0.43467766 11.5
2.6892614 9.5596237 0.65594459 9
2.7021308 2.2574193 0.89567268 14
2.573225 9.5757265 1.1334184 10
2.6603858 9.5614052 1.37793 11
2.4249251 9.602993 1.4803619 11
2.641115 -8.7190704 2.0045135 13
2.7988656 -8.2876577 1.8822739 13
2.6659255 9.5616961 1.9754664 13
2.5056279 9.6094303 1.8283948 12
2.6574538 -9.649972 2.1687286 13
2.482619 -8.9933119 2.2531948 14
2.6235213 -8.7208357 2.2057481 14
2.5465486 9.0796127 2.282439 14
2.6643646 9.5615168 2.19297 13
2.4393687 9.6045694 2.1955218 13
2.4787178 -9.792819 2.7946012 15
2.5925498 -9.3782816 2.7127395 15
2.7054055 -9.010437 2.6424491 15
2.9846466 -9.2120523 -0.21087375 6
3.1666005 -2.4242373 0.28559572 9
3.1427784 -2.1701603 0.25086886 9
3.1583452 -1.9084706 0.24331853 9
3.1332059 -0.81343645 0.20582958 9
3.0583825 -0.638749 0.18414582 8.75
2.9563487 0.19390069 0.33546063 10.333333
3.1428468 0.57872844 0.0040518078 7
2.8326256 2.2192225 0.037123229 7
3.0782166 -2.0620666 0.53024191 11
3.1585448 -1.8983306 0.6934278 12.5
3.0928724 -0.83770406 0.42603025 11
2.9462609 -0.60209399 0.53674799 12
2.9399683 -0.3528569 0.72315598 14
2.8788104 0.20379265 0.39923003 11
2.855607 0.67086065 0.71294606 14
2.8439159 1.154871 0.45497319 11
3.124866 1.4919891 0.43104199 11
3.093586 2.1562593 0.790039 13
2.9826853 9.5155745 0.6178894 9
2.9106686 -0.4687967 0.82171649 15
3.0477536 -0.30001205 0.8643328 14.666667
3.023711 2.2496252 0.93478584 14
3.0159538 2.4526942 0.97347474 14
2.9577274 9.5038366 1.0512519 10
2.9869497 9.4947853 1.4915382 11
3.0501056 -8.6158934 1.9998416 13
3.1519887 -8.2627268 1.9429333 13
3.0009351 9.4984064 1.73212 12
2.9377854 -8.6944952 2.2122734 13.75
3.131423 -8.3204775 2.1576593 14
2.9655502 7.0038195 2.2754841 15
2.9555392 8.9386806 2.2769423 14
3.008862 9.5057583 2.1911838 13
2.8753865 -8.8895531 2.6333156 15
3.0868042 -8.5968151 2.5931709 15
3.3998997 -9.0015411 -0.084973097 7
3.2003679 9.3107491 -0.18569827 7
3.4274204 -9.9622869 0.16932592 7
3.2210162 -2.174546 0.36854503 10
3.4202185 -1.8930143 0.18056783 8.333333
3.3511159 -0.60197914 0.29958212 9.5
3.2512746 0.61102921 0.11869702 8.5
3.3737962 0.9497962 0.18795656 8.5
3.5568926 -2.7404037 0.75879681 12
3.3482709 -1.8196402 0.61147237 11.8
3.405076 -1.0106127 0.62525618 12.5
3.3286245 -0.61196178 0.5109961 11.25
3.490844 -0.29250553 0.41350994 10
3.2759049 1.1635263 0.44908735 11
3.2379186 1.2301755 0.456081 11
3.4254963 2.1864347 0.59387404 11.5
3.5494432 5.9316034 0.48470145 9
3.5366118 6.5077748 0.57034838 9.5
3.5670402 7.068902 0.53679866 9
3.3301446 9.4585238 0.59731317 9
3.4227288 -1.8373871 0.84628713 13
3.5207417 5.9238744 0.88011253 10.5
3.4885149 6.3014588 0.93430007 10.666667
3.5110259 7.2620544 1.0256341 11
3.4290617 9.4323578 0.92733407 9.75
3.5313852 5.94136 1.1988853 12
3.3529587 6.0102978 1.4833722 13
3.5853903 6.5218811 1.2033441 12
3.3745172 9.4364862 1.4418637 11
3.3280787 -8.624404 1.9861838 13
3.2893395 -7.777308 1.8704591 13
3.4187062 -7.3331442 1.8061874 13
3.507544 -7.0305142 1.8920043 13.666667
3.5755527 -6.7956409 1.7318095 13
3.5741861 6.097558 1.5960182 13
3.4683917 9.4148645 1.7096628 12
3.5961404 -8.428731 2.0169621 13
3.2273202 -8.0084486 2.1079569 14
3.3129179 -7.7363853 2.1572497 14.5
3.4180276 -7.375351 2.1301386 14.666667
3.5010164 -6.9399405 2.2087593 15
3.3375413 6.9428954 2.2705107 15
3.4575219 8.7408524 2.2670102 14
3.2555239 8.8092031 2.2684953 14
3.4698577 9.4194193 2.1880438 13
3.2251377 -8.1381149 2.5124826 15
3.8092556 5.3345509 -0.13880712 7
3.6364338 7.0649767 -0.15650705 7
3.7384243 -9.38375 0.17302936 8
3.6331489 -1.892638 0.31109825 9.5
3.9997857 -0.66156757 0.38270253 10
3.6317139 0.94994301 0.35315382 10
3.8640211 5.5410347 0.11532263 8
3.7941048 5.7483377 0.26916999 8.5
3.6745358 7.353229 0.15479171 8
3.953953 -10.011796 0.43226406 8
3.7495844 -2.7258129 0.77121973 12
3.7271569 -1.8287518 0.56271225 11
3.9839942 -0.61294222 0.48619881 11
3.8524961 2.178576 0.74483532 12
3.9159632 5.5881405 0.49297518 9.5
3.7665579 5.8447905 0.54107785 9.333333
3.6763804 7.1107888 0.70520246 10
3.6911473 7.6741023 0.59188449 9
3.7372596 8.3832006 0.64991313 9
3.8111987 8.4380932 0.62003642 9
3.7162805 9.3956718 0.66358197 9
3.795629 2.1199291 0.81048465 12.5
3.7873533 5.8591013 0.97618604 11
3.6090958 6.6972632 1.0579849 11
3.643749 6.8948174 0.88704276 10
3.7240257 7.4029665 1.025844 10.5
3.8889697 8.3142433 1.0009232 10
3.9315557 8.6164122 0.79708546 10
3.7231898 8.8760529 1.112362 10
3.8051419 9.3686905 0.96658784 9.5
3.9092748 -5.6629906 1.5979228 14
3.9136491 2.1358721 1.3156639 15
3.805702 5.8261003 1.4171294 12.75
3.628531 6.4632587 1.2728225 12
3.732697 7.0554242 1.3571137 12
3.8456204 7.8838439 1.3219434 11.5
3.9428382 8.5701227 1.4320397 11
3.805393 9.3608713 1.3796369 11
3.6544023 -6.5369687 1.8231622 13.666667
3.7676282 -6.1562343 1.7715226 14
3.857511 -5.8466387 1.8382767 14.5
3.9567015 -5.4760699 1.8100457 14.333333
3.76296 5.8312588 1.7306423 14
3.6665261 6.5375495 1.7659668 13.5
3.7537351 7.0819016 1.8712941 13.5
3.8222544 7.4685273 1.6346458 13
3.8938413 7.8920131 1.9265404 13
3.9625051 8.239934 1.761322 13
3.8276949 9.3525133 1.8592943 12.666667
3.8301978 -8.46031 2.04496 13
3.6443629 -6.6010857 2.133786 15
3.7361453 -6.2758822 2.0269136 15
3.9065151 5.7970672 2.0052385 15
3.6461794 6.1820145 2.0882885 15
3.7684882 6.775847 2.2432342 15
3.6255429 6.9035201 2.2707863 15
3.8551452 7.6164341 2.0761302 14
3.9934528 8.378459 2.2308991 14
3.7510135 8.6210117 2.2622397 14
3.8153596 9.359333 2.1887624 13
4.0076098 -0.62301958 0.29562864 9
4.1099944 -0.066670015 0.24072109 9
4.118506 0.091224022 0.24672011 9
4.1765957 5.7265286 0.31101757 8
4.0220242 -0.48335457 0.5015288 11
4.0693736 -0.21063621 0.46915418 10.5
4.1169376 0.16796957 0.460949 10
4.2755327 5.7757373 0.69313514 9.666667
4.1726623 5.7828999 1.0871096 11.6
4.0521102 9.2450876 1.0740014 10
4.3300204 -4.1945238 1.4768473 14
4.0076056 1.9612217 1.2937032 15
4.0096502 2.0733619 1.3160946 15
4.2146263 5.7582626 1.5644562 13
4.0131302 8.5951834 1.5768703 12
4.0199981 9.3206692 1.5140675 11
4.0140653 -7.8969412 1.9816593 13
4.095953 -7.4554462 1.9272367 13
4.1718078 -7.0211191 1.8568686 13
4.2536917 -6.6126308 1.8005359 13
4.0118899 -5.3015656 1.9035239 15
4.0588441 -5.1197333 1.8817445 15
4.206418 -4.6417966 1.8368927 15
4.3335128 -4.2069163 1.7208339 15
4.2330041 5.7588954 1.7518044 14
4.0723352 9.3108854 1.6809747 12
4.2665257 5.7289443 2.0100074 15
4.0481534 8.7382755 2.0842431 13
4.0433545 9.3022623 2.1855445 13
4.6057959 -2.9397681 -0.11596304 6
4.6418719 -2.7459159 -0.077883139 7
4.6268353 -1.271567 -0.090884008 7
4.6094503 -1.3324349 0.21359481 8.5
4.6040568 -0.82336634 0.26859039 9
4.6966219 -0.54532385 0.30146006 9
4.6696725 -0.33591789 0.32741788 9
4.604413 -6.6547699 0.67196286 9
4.7880301 -5.1051664 0.48724657 9
4.6808877 -1.4668921 0.42958871 10
4.7573681 1.6059213 0.58736229 10.5
4.7821693 -3.7919734 0.80904353 11
4.7922888 2.0462456 1.1360639 13
4.4412332 -3.8188875 1.459601 14
4.5769534 -3.3598197 1.4464335 14
4.6937151 -2.9726369 1.4944121 14.333333
4.7680998 -2.7250631 1.5210104 14.5
4.6298366 -1.8091346 1.394033 15
4.7403908 -1.421255 1.4220496 15
4.4894938 2.026139 1.238011 14
4.4619303 5.7158828 1.4672768 12.5
4.4045753 -5.7552414 1.7460748 14
4.4687843 -5.422132 1.7266365 14
4.5374889 -5.0049963 1.7055979 14
4.717443 -4.0332165 1.6863296 15
4.5482979 -3.7951441 1.6154462 15
4.5692639 -3.3750608 1.6000574 15
4.5545416 5.7251511 1.770305 14
4.5520406 5.6827269 2.0170276 15
5.041573 -2.5762124 -0.10139767 6.5
5.0659289 -2.2671347 -0.048503779 7
4.8889732 -0.49106562 -0.019767215 7
5.024961 -2.4842277 0.21479049 8
5.0796399 -2.2051642 0.1980093 8.1428576
5.1510677 -1.7291673 0.17067041 8
4.8527594 -0.95002639 0.36783245 9
4.9050112 -0.58739424 -0.0015443363 7
5.0490422 -0.18305504 0.015018404 7
5.0840945 1.9309897 0.29649878 8.5
5.0319262 -2.4567308 0.4451341 9
5.1016135 -2.194726 0.53883165 9.833333
5.1667948 -1.8066561 0.5060367 10
4.9473324 -0.55976325 0.40548006 9
5.0747828 1.7543584 0.38881034 9
5.0179968 -2.4739428 0.97533894 12
5.0898094 -2.2383771 0.99329787 12.333333
5.1711779 -1.8313106 1.0670418 12.5
4.8732958 1.9361193 1.1389202 13
4.8284574 -2.5153637 1.4511577 15
4.8889642 -2.1594117 1.4555907 15
4.819942 -1.1469432 1.4482082 15
4.8815169 1.8052984 1.2482238 14
4.8377728 -3.3819587 1.603898 15
4.9102654 -3.0322487 1.6015223 15
4.9702635 -2.6939354 1.6018453 15
4.8977618 -2.2614772 1.6025511 15
5.1283145 -1.8684847 1.6296747 15
5.0473299 2.2607183 1.6524855 15
4.8365068 5.704587 2.2476511 15
5.36097 -0.46477169 -0.021622723 7
5.2106915 -1.5792288 0.33157793 9
5.3469977 -0.40502474 -0.0074418569 7
5.3861761 -0.18743722 0.17544709 8
5.4626074 0.15013178 0.17212351 8
5.5394197 0.6358912 0.16325559 7.8333335
5.5621643 0.81881279 0.078714073 7.5
5.3678689 -0.4300898 0.42357224 9
5.4389405 -0.058871362 0.46051368 10
5.4428115 0.097774431 0.39655197 9
5.5318708 0.58419073 0.42801911 9
5.4377546 -0.13140555 1.0282578 12.666667
5.472434 0.18209139 1.0150235 12.5
5.5182233 0.45450824 1.0974189 13
5.2794261 -0.98086256 1.5644568 15
5.4175997 -0.4030984 1.2806547 14
5.427784 -0.18834734 1.3727567 14.25
5.4822569 0.099504165 1.3602519 14
5.3935223 -0.61934131 1.6129985 15
5.4039855 5.4204173 2.2353783 15
5.9611583 3.538558 0.58001041 9.5
5.978056 3.9849226 0.53133327 9
5.9436669 2.756397 1.0771824 11.5
5.9896092 3.9755325 0.80511659 10
5.6891541 1.1768388 1.5605938 15
5.7230821 1.3959882 1.5256538 14.5
5.7770195 1.6306721 1.4955415 14
5.9426003 3.802907 1.3776698 12.666667
5.9696159 4.0209556 1.3040093 12
5.7291541 1.3971654 1.6851461 15
5.717351 1.708812 1.6600369 15
6.0375853 3.5787785 0.29662311 8
6.0346727 3.7970068 0.15515308 7.5
6.1999474 5.1114354 0.23329811 7.5
6.0251827 3.45842 0.59183711 9.333333
6.0583792 3.7923076 0.62873864 9.5
6.0541439 4.4569073 0.57621664 9
6.2342129 5.0930057 0.61270767 9
6.1173115 5.3341627 0.66259521 9.333333
6.0667353 3.4737997 0.86615497 11
6.2450509 4.311377 0.91441333 10.666667
6.0726838 4.4371834 0.84372211 10
6.2489653 5.06078 0.98538059 10.6
6.1098075 5.3630137 0.90840268 10.5
6.0735459 3.4742343 1.4328234 12.666667
6.1209016 3.7373857 1.4442087 12.5
6.0374217 4.509778 1.4571545 12.5
6.1724896 3.7057743 1.73541 14
6.2466831 4.162446 1.8328574 14
6.2515874 5.0518961 1.7885448 13
6.0862174 5.306191 1.6066258 13
6.2471313 4.1975188 2.054548 15
6.2679262 7.4078627 2.2121179 14
6.3671541 8.7158566 2.0819283 13
6.4656625 5.48419 -0.012158409 7
6.463438 8.531868 0.24113676 8
6.5217924 6.740427 0.4097034 8
6.7016191 8.3309727 0.5772931 8.5
6.5681033 8.5239305 0.57029206 8.5
6.6516628 8.4901705 1.342541 10.333333
6.7836595 8.4107389 1.8353459 12
6.8278131 8.2737522 0.92068672 10
6.8869834 8.2521858 1.500075 11
6.9285975 8.1918745 1.8039972 12
7.5442238 8.2433491 0.13315129 7
7.5938277 8.2400637 0.43175265 8
7.4177947 8.4005985 0.91141373 9
7.8878956 8.2541609 0.46506014 8
7.7027693 8.2284203 0.89792067 9
7.8239465 8.1304073 1.4806827 11
