# .PCD v0.7 - Point Cloud Data file format
VERSION 0.7
FIELDS x y z intensity
SIZE 4 4 4 4
TYPE F F F F
COUNT 1 1 1 1
WIDTH 226
HEIGHT 1
VIEWPOINT 0 0 0 1 0 0 0
POINTS 226
DATA ascii
-0.11635067 -0.9737078 -0.0071699256 179
-0.089042649 -0.92406917 -0.012680907 181.66667
0.052909426 -0.952133 -0.015281913 184.66667
0.19182961 -0.96076524 -0.005978954 166.5
-0.04081095 -0.82874513 -0.0091534024 190.33333
0.085817702 -0.85681242 -0.012613245 191
0.1022051 -0.81236911 -0.014891014 196
0.21416545 -0.85751027 -0.010628643 193
-0.014213638 -0.78009462 -0.013997627 194.5
0.013725796 -0.72256732 -0.0079593677 196
0.12645511 -0.74220335 -0.013033199 194.8
0.23768838 -0.7422421 -0.01108357 194.60001
-0.69687265 -0.66650724 0.0024796843 112
-0.24256152 -0.6729213 -0.0009623433 188.5
0.040169906 -0.67319554 -0.011053531 194.25
0.15958883 -0.6460228 -0.01015622 191.5
0.26181591 -0.61571217 -0.0059244693 190
-0.80765951 -0.53251994 6.5251174e-05 124
-0.53876477 -0.57097465 -0.00746002 155.5
-0.47078192 -0.52842933 -0.0042092972 185
0.066260859 -0.55578822 -0.0063874144 189.5
0.15699548 -0.56735194 -0.0054272027 189
0.25607252 -0.5146054 -0.010610338 185.90909
-0.7155624 -0.49140409 6.4654974e-05 119
-0.64117342 -0.45841938 -0.0014329163 131
-0.57720786 -0.4301053 -0.0030298403 141.66667
-0.41615215 -0.49453512 -0.0030857064 190
-0.36023343 -0.4603321 -0.0044303094 192.66667
-0.29067558 -0.41802448 -0.0073067104 194.5
-0.063334189 -0.48173663 -0.003854322 189.25
0.07777638 -0.44235861 -0.020282857 183.77777
0.15157843 -0.46213982 -0.01909334 183.54546
0.24978581 -0.46522784 -0.024406889 181.46153
0.30297983 -0.41573909 -0.0085372003 179
-0.50430334 -0.39690062 0.001465579 158
-0.46369657 -0.38023528 -0.0083483094 191.25
-0.36413175 -0.33583564 -0.0085361628 194.60001
-0.29239652 -0.30260971 -0.00033668007 193
-0.14683431 -0.32976294 -0.0093587823 186.5
-0.050457846 -0.30988294 -0.012308906 182.75
0.006413233 -0.31098577 -0.0087282658 181
0.15215999 -0.35817283 -0.015035717 177.94444
0.2480353 -0.34903124 -0.036500152 174.88571
0.32287776 -0.35315499 -0.03383046 175.3
-0.37682244 -0.22766657 -0.0069151749 194.33333
-0.2317619 -0.27618611 -0.0045892922 188.75
-0.13194449 -0.23409982 -0.021206968 183.44444
-0.043524779 -0.25432441 -0.016179802 180.83333
0.045877501 -0.25341901 -0.036882661 175.72223
0.1482048 -0.24587902 -0.037506741 171.16
0.26576698 -0.25602353 -0.030432209 168.08333
0.32982621 -0.23395003 -0.025521928 170.41379
-0.74834681 -0.18237126 -0.0059652692 143
-0.66220111 -0.16835153 -0.0026115903 139.33333
-0.55390447 -0.15117979 -0.0048400927 158.33333
-0.45215532 -0.13511693 -0.0078407703 186.2
-0.32830811 -0.11506107 -0.0041922065 190.75
-0.27676088 -0.17474455 -0.0069052298 188.5
-0.15505394 -0.16330519 -0.021486955 183.8
-0.036504075 -0.15614039 -0.031030437 176.90625
0.049472202 -0.14831756 -0.041511346 171.39131
0.15556827 -0.14344378 -0.025031459 167.73215
0.25351751 -0.14657843 -0.040973067 166.80412
0.33929846 -0.14131106 -0.045177672 166.15958
0.74026388 -0.11488698 -0.00849084 169.60001
0.87894738 -0.16022533 -0.0038016248 186
-0.82789576 -0.036486663 -0.0031239185 118
-0.74560434 -0.034112271 -0.0043026805 131
-0.67005879 -0.031889394 -0.0040300549 141
-0.55433494 -0.028487325 -0.003538772 158.33333
-0.45205575 -0.025584215 -0.0059063369 183.8
-0.31706905 -0.021623226 -0.0050941906 189.66667
-0.22302561 -0.031812865 -0.0089076348 185.83333
-0.16115299 -0.058883913 -0.021078477 182.57143
-0.05306153 -0.043239474 -0.037384421 175.86487
0.062791802 -0.046511337 -0.025818326 169.5
0.15407623 -0.045829095 -0.039792746 166.34065
0.25452536 -0.046602536 -0.070444837 165.61069
0.35897455 -0.037580479 -0.076127969 166.94862
0.45785627 -0.010951259 -0.041900959 166.16418
0.5442782 -0.027825521 -0.035451431 168.31111
0.64708191 -0.048220396 -0.032989904 170.98305
0.75186098 -0.041093577 -0.012380681 170.77272
0.93332142 -0.051690463 -0.0046378127 187
-0.6026454 0.097458303 -0.003642553 150
-0.52551627 0.08974985 -0.0065791537 168.66667
-0.44929892 0.082128704 -0.0098070754 184.5
-0.33313462 0.070516832 -0.0047089444 191.25
-0.25390172 0.06259308 -0.0051789233 187.66667
-0.16292275 0.053495917 -0.020175805 182.81818
-0.049038049 0.056308631 -0.041214105 175.33333
0.054747771 0.053859171 -0.02779006 169.79311
0.1524069 0.053819284 -0.037927046 166.21519
0.24905042 0.035523348 -0.071102969 165.75641
0.36118975 0.010407265 -0.075681336 166.59435
0.4353334 0.036299348 -0.049339127 166.40126
0.54057616 0.050009951 -0.042419147 168.71014
0.64426023 0.050153553 -0.038163576 171.81035
0.75172085 0.053043406 -0.014783783 170.61905
0.93384749 0.042135414 -0.0033574384 188.5
-0.8485173 0.12200299 -0.0017472181 114
-0.74084574 0.11125866 -0.0024383629 125.66666
-0.65963066 0.10314834 -0.006280493 139
-0.15753375 0.1456679 -0.023651037 182.8
-0.050203055 0.1379078 -0.029148431 177.5
0.058822528 0.12321944 -0.030550234 170.76923
0.10778872 0.10408335 -0.018758668 168
0.44702667 0.13894002 -0.042120256 168.11392
0.55530697 0.15260941 -0.060294636 169.61403
0.63529736 0.14307453 -0.031097103 171.5
0.74069715 0.14721623 -0.019290566 169
0.88445097 0.14610612 -0.0040580188 187
0.94689965 0.14191824 -0.0055025443 190.33333
-0.40744513 0.29670158 -0.0041323211 180
-0.36927623 0.28271818 -0.0097261928 189.75
-0.25678447 0.23992558 -0.0038052471 190.33333
-0.16024779 0.20432854 -0.014580177 184.66667
0.46317983 0.25547302 -0.058723506 169.41861
0.54414272 0.24424629 -0.040842965 169.54716
0.65226847 0.24722691 -0.02258957 168
0.73481852 0.24350993 -0.013776905 173.92308
0.85762239 0.24954885 -0.007589729 186.85715
0.94505501 0.23720494 -0.013755155 189.5
-0.64183897 0.3849307 -0.0034802787 137.5
-0.56779975 0.35724905 -0.0062977523 151.33333
-0.47328669 0.321715 -0.0071595726 172.75
0.46022031 0.33389375 -0.027114505 169.36363
0.55919963 0.35250109 -0.029039977 171.82353
0.64258778 0.34368834 -0.016580813 176.95238
0.75346571 0.35079986 -0.011056235 185
0.84187919 0.32760659 -0.0081120338 188
0.91867232 0.36207211 -0.022794291 190
-0.83100665 0.45614421 -0.0033955919 110
-0.75556201 0.42763767 -0.001923818 115.5
0.46190098 0.45209643 -0.032297771 180.92308
0.54162204 0.43263733 -0.021970497 181.77777
0.65891719 0.45540926 -0.017014416 186.66667
0.7477476 0.42549255 -0.016021771 188.39999
0.83911383 0.44183931 -0.027569748 190
0.4765214 0.56040949 -0.026269529 187.28572
0.55605918 0.55292147 -0.024927594 187.875
0.63775563 0.54197407 -0.024532575 189
0.74638623 0.55680573 -0.029355537 189.83333
0.83378738 0.52177089 -0.031774133 189.75
0.48912129 0.63931763 -0.028718652 190.33333
0.57930106 0.6782583 -0.035321496 186.16667
0.68218768 0.63484877 -0.031962864 187.25
0.7418552 0.64608252 -0.029109458 185
0.50457734 0.73207057 -0.033894073 185.25
0.61613643 0.74552882 -0.034451611 182
0.52005202 0.8290782 -0.037028596 180.5
0.03733442 -0.93723291 0.054926369 204
0.1686177 -0.97372073 0.063531116 137
-0.62885618 -0.62423068 0.0042186235 118.5
-0.22938582 -0.63916576 0.05924125 197
-0.14775223 -0.63170844 0.05948136 186.5
-0.077859208 -0.61279994 0.096324839 199.5
0.071803018 -0.60448414 0.001972436 192
0.16525161 -0.62004656 0.0017111686 192.33333
0.25500649 -0.63465416 0.0041435398 192.66667
-0.76767856 -0.51300287 0.011349502 113.5
-0.53902966 -0.56879359 0.0045099859 144.5
-0.14118423 -0.55022484 0.042041432 165
-0.03179995 -0.56472147 0.056329668 185.35715
0.025126945 -0.53525841 0.0095925266 180.2
0.16926801 -0.52665025 0.005085119 188
0.25007549 -0.52772486 0.0067518582 187.66667
-0.65319455 -0.46256757 0.006791818 125
-0.42198348 -0.49654958 0.0049720886 186
-0.31986731 -0.43340048 0.0060254345 196.5
-0.059756793 -0.47027758 0.019524354 157.22223
0.042318244 -0.45543599 0.0060034236 187
0.12959567 -0.49133176 0.0042155981 187
-0.21796672 -0.37050512 0.0064828284 192.75
-0.12625431 -0.31433335 0.0046471874 187.60001
0.033776946 -0.36637771 0.030600822 184.5
-0.32004684 -0.20978381 0.0024728626 194
-0.26961973 -0.25798678 0.006027224 192.33333
-0.16578414 -0.2453941 0.0045036124 187.25
0.15273897 -0.23203401 0.077532575 147.78572
0.22723728 -0.21346579 0.054138958 130.91667
-0.74326068 -0.17978115 0.019641401 100.33334
-0.54263389 -0.14864607 0.0056307027 156
-0.33522552 -0.11557513 0.0042586052 193.5
-0.23729642 -0.16969177 0.04506167 176
-0.18787937 -0.17029712 0.0043655494 186.66667
0.1742186 -0.19630682 0.090000369 131
0.24214247 -0.19063628 0.040673707 123.93333
0.78489751 -0.13034429 0.0061818305 176
0.84776318 -0.15095928 0.0097888131 184.71428
0.93664598 -0.14040825 0.006097123 189.5
-0.85585403 -0.037125137 0.0022147114 117
-0.75354707 -0.034013562 0.0053322669 124
-0.5552066 -0.028301381 0.0025390727 158
-0.34803951 -0.02218526 0.0046223002 193
-0.22819954 -0.052511197 0.0049550799 187.85715
0.79274637 -0.048016574 0.0057902909 173.75
0.83603024 -0.056086212 0.0077489074 180.27272
0.92231607 -0.051535055 0.0039897324 188.33333
-0.5512715 0.092330925 0.003904355 157
-0.34047279 0.071257971 0.0035577086 193.5
-0.22269243 0.059478849 0.0028865824 187.5
0.79121512 0.058651686 0.0025793582 173
0.83239192 0.058317143 0.0043954258 181.2
0.92253995 0.041485652 0.0016059942 188.33333
-0.22682242 0.13919882 0.06174257 183.28572
-0.18090869 0.12977609 0.023233969 133.25
0.7727474 0.17180671 -0.00039514783 175.39999
0.8273977 0.14223704 0.002311826 184.2
0.91847777 0.13696124 -0.00031960796 189.33333
-0.29367968 0.2532033 0.0050005252 193
-0.18363 0.21183282 0.0038247111 187.33333
0.75313586 0.23862241 0.00051307725 179
0.80946994 0.21516101 -0.001621715 185
-0.67787099 0.39806074 0.0026806423 127
0.73171884 0.31383786 0.00035945076 184
-0.0016456185 -0.93113136 0.19360468 206
0.015367177 -0.92355847 0.14524581 207.77777
-0.2423936 -0.63143367 0.12578556 188.85715
-0.12703547 -0.65994525 0.14895295 198.54546
-0.069803253 -0.59405333 0.11366732 199
0.068145134 -0.21894711 0.15643863 142.53334
0.14042392 -0.22486353 0.11392155 129
-0.24753843 -0.17468411 0.12876506 178.81818
0.10969199 -0.1931839 0.12419844 121
-0.27202529 0.14756092 0.12625293 174.5
