# .PCD v0.7 - Point Cloud Data file format
VERSION 0.7
FIELDS x y z intensity
SIZE 4 4 4 4
TYPE F F F F
COUNT 1 1 1 1
WIDTH 215
HEIGHT 1
VIEWPOINT 0 0 0 1 0 0 0
POINTS 215
DATA ascii
-0.24217601 -0.94597363 -0.011590202 170.66667
-0.071904384 -0.9479273 -0.012951518 186.66667
-0.53985119 -0.8198719 -0.017692707 148.5
-0.34278595 -0.83577925 -0.015073249 172.25
-0.1888037 -0.86859697 -0.017593799 185
-0.01886946 -0.83665222 -0.0094631827 194.5
-0.44247127 -0.73368919 -0.016464751 169.25
-0.30553463 -0.79752713 -0.027431294 185
-0.24517615 -0.72490388 -0.016676595 195.33333
-0.12376027 -0.76943481 -0.014108137 196
-0.081488319 -0.70376498 -0.0091268718 197
0.033037171 -0.72870088 -0.0076140589 196.60001
-0.4000715 -0.69946414 -0.028116524 184
-0.32377389 -0.62963957 -0.018627379 192.75
-0.21331257 -0.68962419 -0.019837692 199
-0.16370514 -0.63082188 -0.013554975 196.25
-0.048343021 -0.65541524 -0.0121971 194.60001
0.060690843 -0.6721155 -0.0081457682 195
-0.75308198 -0.57233912 -0.021660175 135.5
-0.64454633 -0.5175736 -0.018513048 146.33333
-0.2349548 -0.55061364 -0.015911479 196.2
-0.14893872 -0.56528509 -0.018438552 193.66667
-0.069503359 -0.51936227 -0.0022202577 191.33333
0.032140985 -0.53125566 -0.0046942579 189
0.10580757 -0.57606691 -0.0029731288 189
-0.86119211 -0.44034261 -0.023715321 127.5
-0.76599258 -0.40677562 -0.022489684 142
-0.52803731 -0.45733425 -0.0061230729 154
-0.44315404 -0.41584685 -0.011909837 179.25
-0.1280244 -0.4532294 -0.0043590413 190.33333
-0.062453978 -0.47102898 -0.0063058445 188.66667
0.052967038 -0.43553379 -0.018951342 184.53847
0.1504498 -0.45477667 -0.013800506 182.76923
-0.70144105 -0.38394606 -0.021063939 152
-0.64507985 -0.36475256 -0.025963727 165
-0.53206903 -0.32474864 -0.023085343 188.25
-0.47491008 -0.30503434 -0.02592751 197
-0.35713312 -0.37410489 -0.019601868 195.39999
-0.24679893 -0.31740573 -0.0099391695 191.33333
-0.063037939 -0.30600676 -0.026339889 182.5
0.077836119 -0.35343334 -0.009098432 180.42857
0.15528473 -0.34406164 -0.022613576 176.75862
0.22353426 -0.35012829 -0.030646399 174.47058
-0.4305917 -0.28893968 -0.021389682 196.5
-0.37267786 -0.26875624 -0.022504367 194.5
-0.2534802 -0.23671593 -0.0115067 189.625
-0.13624039 -0.25609788 -0.016711872 185.16667
-0.030979369 -0.22822616 -0.02151764 179.23529
0.043952018 -0.24463217 -0.037260231 175.34782
0.13974251 -0.23486589 -0.033443417 171.16667
0.25268486 -0.23946325 -0.016906247 168.08824
-0.94014627 -0.11468799 -0.029447114 129.5
-0.83766848 -0.10586549 -0.027493959 140
-0.44418705 -0.17849284 -0.016682312 196.2
-0.34955007 -0.15806007 -0.013451011 192.75
-0.25881243 -0.13849276 -0.010629173 188.85715
-0.16098528 -0.15465955 -0.0239089 184.04347
-0.043808281 -0.14784434 -0.030491879 177.45
0.05230625 -0.15218402 -0.037762459 171.73334
0.15671042 -0.14067519 -0.02512921 167.12727
0.25657091 -0.14641382 -0.040500756 166.32631
0.32138041 -0.13316815 -0.049468085 165.10869
0.58757758 -0.10502594 -0.040208757 170
0.63698161 -0.12227996 -0.022866812 172.28572
0.73676735 -0.1545836 -0.0018741458 170.5
-0.74942833 -0.098268315 -0.025722167 154.5
-0.66596371 -0.091241427 -0.027351195 170
-0.55889773 -0.082076617 -0.026116937 188.5
-0.44770527 -0.072545625 -0.024434548 195.39999
-0.33232221 -0.062058717 -0.010014596 192
-0.23934792 -0.054186743 -0.01059794 187.11111
-0.1668815 -0.049003318 -0.031400956 182.66667
-0.051511001 -0.06602037 -0.040012229 176.02942
0.057960477 -0.04917432 -0.025565138 170.53572
0.15198387 -0.053219717 -0.037853397 166.5
0.25403893 -0.051477216 -0.067877442 165.256
0.35415584 -0.035408199 -0.075636029 166.59677
0.45510724 -0.018742951 -0.041558288 166.2963
0.54144359 -0.047006357 -0.023959512 168.42622
0.64278722 -0.057574108 -0.030104576 171.30435
0.77125591 -0.071671925 -0.0037654485 171
-0.94284344 0.051704776 -0.029469237 131.5
-0.84528697 0.047836095 -0.028940868 144
-0.75722724 0.044354498 -0.02740394 154.5
-0.66900402 0.040839687 -0.027553549 170.33333
-0.56078392 0.036546096 -0.025985679 189.5
-0.44645712 0.032023199 -0.022964913 195.8
-0.32567805 0.027378757 -0.0098501323 191.39999
-0.22257617 0.036854424 -0.0086991265 187
-0.16640846 0.061879937 -0.028790353 182.6842
-0.054931857 0.043751299 -0.039008852 176.35135
0.061025806 0.046452049 -0.028676463 170.16667
0.15404882 0.045147561 -0.040346511 166.68132
0.25239366 0.043076757 -0.068492316 165.4127
0.35666555 0.01573045 -0.075510301 166.51973
0.44257486 0.033801265 -0.045011353 165.94771
0.53882909 0.042499714 -0.023948072 168.1875
0.64484042 0.041461248 -0.030063432 170.54099
0.75246227 0.048444141 -0.0032965078 166.69231
-0.25471574 0.15619798 -0.012663172 189.10001
-0.16181743 0.16321251 -0.025186893 184.41667
-0.035178643 0.15232132 -0.034728043 177.23529
0.052152347 0.14684832 -0.044765469 171.86957
0.14818472 0.12862273 -0.027640073 168.41463
0.21413675 0.10823338 -0.049650636 166.88889
0.46649009 0.13567188 -0.022898333 167.10909
0.55040121 0.14835799 -0.035710651 169.35417
0.6311658 0.1378362 -0.024403544 171.94595
0.74021244 0.15905067 -0.0050077243 168.89999
-0.54375082 0.27748495 -0.028557828 190
-0.44355243 0.2474509 -0.026659872 197.2
-0.34957021 0.21898736 -0.019518452 194
-0.29541188 0.20224337 -0.0090844585 192
-0.12716375 0.22658032 -0.026339058 184.125
-0.083898261 0.20736146 -0.024859069 183
0.045184098 0.20858304 -0.048038334 173.375
0.48905224 0.22019541 -0.038839281 169.39999
0.54189408 0.2452464 -0.028758092 168.92
0.64546144 0.24523029 -0.0078546749 172
0.71388239 0.24410927 -0.0019479385 172.5
-0.82535607 0.36163688 -0.029656239 128.66667
-0.71917874 0.32988775 -0.028776534 157.5
-0.64243931 0.30716461 -0.032325048 173.66667
-0.21651472 0.36080503 -0.0097884238 192.33333
-0.17577875 0.33565521 -0.0049335472 191
0.55967295 0.35735252 -0.0093785962 174.5
0.63944107 0.35242066 -0.0079702381 178.27272
0.94126624 0.31128255 -7.1150585e-05 189
-0.42442477 0.48847091 -0.029246394 198
-0.33410507 0.4336535 -0.025688589 198
-0.28841749 0.40670553 -0.029843152 194
0.56385893 0.41361618 -0.0086802738 179.5
0.66400242 0.46640831 -3.0679788e-05 187
0.86091918 0.46137488 -0.0010026885 192
-0.51673156 0.5433889 -0.024502045 156.25
0.60876703 0.52255327 -0.0024021734 186
0.75466484 0.5603292 -0.0038024562 187.66667
0.81372052 0.53765929 -0.0053909053 186.5
0.66332793 0.64651489 -0.0073013497 187
0.74824423 0.60630745 -0.00081294595 187
0.086241648 -0.6113683 0.0051351832 192
-0.07126718 -0.51986784 0.0021413406 192
0.03185581 -0.56774652 0.0034374697 191.25
0.12611295 -0.52935284 0.0050174007 188.66667
-0.4323844 -0.40772873 0.0049949195 171
-0.12918735 -0.45261759 0.0016907901 191
-0.0095107593 -0.44844025 0.0047928919 188.33333
0.049750753 -0.45603433 0.004163113 187.33333
0.14174755 -0.4954924 0.007722775 185.5
-0.051275775 -0.37994236 0.016437998 187
0.19087553 -0.39827004 0.0010965137 179
0.93891412 -0.30229932 0.0087676533 190
-0.15635633 -0.27035177 0.0015312157 188
-0.0014944911 -0.25070313 0.040350452 183
0.04587194 -0.24190299 0.086821541 181.5
0.14573632 -0.21512379 0.062838003 147.08333
0.77054077 -0.21235622 0.019991621 180.625
0.86064172 -0.26119882 0.019742638 187.5
0.91310662 -0.20798737 0.023980467 189
-0.43078002 -0.1729089 0.016483156 190
-0.315099 -0.14262298 0.085017264 172.8
0.17391625 -0.18970692 0.07379844 132.46153
0.22010137 -0.17200717 0.044354867 128.21428
0.67308688 -0.1424323 0.0059127407 170.5
0.76240295 -0.14425947 0.011088766 174.5625
0.84813881 -0.15256391 0.020706968 184.30769
0.92950636 -0.13777775 0.020880932 188.39999
0.69011009 -0.05643985 0.0037235462 171.66667
0.74880522 -0.0644181 0.0054374784 169.38889
0.84857166 -0.05641792 0.020508718 183
0.93790853 -0.067310512 0.022575473 188.5
-0.21513651 0.098009504 0.044423398 142.33333
0.68708622 0.049206924 0.0038172877 168.44444
0.75591004 0.034320123 0.0071570505 170.4375
0.83877635 0.027413255 0.020117916 180.85715
0.93612391 0.04094252 0.018985361 188.09091
-0.24819958 0.10305614 0.068163678 186.63637
-0.020486845 0.16919774 0.086957328 181
0.09511359 0.16048813 0.08809755 139.83333
0.11606283 0.14734425 0.092341252 131.16667
0.66493487 0.15786761 0.0041403384 166.875
0.77654719 0.14225669 0.013371336 174.84616
0.84191674 0.14732851 0.019419393 183
0.92211455 0.14241289 0.020673381 187.75
-0.078733683 0.23398945 0.038099013 184.5
0.015183763 0.20738798 0.096820273 177
0.56948769 0.26915237 0.0029422655 165.75
0.63303477 0.23841318 0.0049740309 167.71428
0.75361872 0.24275145 0.017230244 180.25
0.86213696 0.24385959 0.017955795 186.55556
0.92182928 0.21947056 0.020444909 189.5
-0.13119017 0.30697399 0.0091684246 188
0.53983635 0.32083124 0.0030847741 171.72728
0.6640842 0.35711572 0.011404504 181.92308
0.7429629 0.34270164 0.015542776 184.60001
0.83713579 0.33863527 0.013890538 187.8
0.9059363 0.38667148 0.0014326216 192
0.5755071 0.45142448 0.0069151591 183.85715
0.64859754 0.44581729 0.010195763 185.14285
0.7471028 0.44005522 0.010294975 187.5
0.81497091 0.4209725 0.012838304 190
0.63991278 0.54434037 0.0082337437 189
0.71008158 0.54511541 0.0040038163 189
0.81850255 0.54859257 0.0077367523 182.5
0.6726467 0.67530894 0.002852432 183.33333
0.75180584 0.61678928 0.0083601959 182.5
0.022200828 -0.21357098 0.17581131 157.375
0.11903431 -0.20305802 0.11519673 131
-0.32194087 -0.14094914 0.12329228 170.66667
0.058594815 -0.18645068 0.15423866 133.63637
0.12588176 -0.19592823 0.1192378 129
-0.30231109 0.11048651 0.14763385 156
-0.28066668 0.10737301 0.12332577 176.875
0.042912874 0.15320681 0.14002316 134.96428
-0.053932104 0.23864368 0.17548408 142
