# .PCD v0.7 - Point Cloud Data file format
VERSION 0.7
FIELDS x y z intensity
SIZE 4 4 4 4
TYPE F F F F
COUNT 1 1 1 1
WIDTH 70
HEIGHT 1
VIEWPOINT 0 0 0 1 0 0 0
POINTS 70
DATA ascii
-3.2383497 -3.2315927 0.88837373 13
-2.9731166 4.2549791 0.5739997 10
-2.9011362 4.3149071 0.6366533 11
-2.8252544 4.3629646 0.99803734 12
-2.971261 4.2644248 1.0132948 13
-2.8204358 4.3664236 1.5453943 15
-2.4671919 2.7482023 0.72375107 13
-2.2390897 2.2926829 0.39187086 11
-2.3241484 2.436492 0.57740527 12
-2.1250782 2.0488622 0.34234512 10
-2.0371835 1.9104097 0.65504074 14
-1.8521109 1.5424826 0.41530231 12
-1.9741672 1.7930864 0.60061562 13
-1.6416016 1.1484572 0.36682317 12.5
-1.7261622 1.3177196 0.55845064 14.5
-1.5021094 0.86829859 0.37637833 13
-1.4981344 0.86570793 0.45211464 14.5
-1.1240997 -2.3072388 0.18170981 9
-1.1631399 -2.3232822 0.30214235 10.5
-1.0532311 -2.3436363 0.57520664 13
-0.32011831 1.6942865 0.44722214 14.5
-0.1766932 -1.0868665 0.11195175 10
-0.070123315 1.8581712 0.47060445 14.5
0.11987337 -1.07583 0.32767966 15
0.1488713 1.5660028 0.47118264 15
0.050881967 1.7440227 0.44831029 14
0.31778786 -2.0346105 0.53538996 14
0.46786299 -5.267323 0.13834026 8
0.47188666 -2.8065743 0.19652894 9
0.47777969 -2.7782693 0.52125973 12
1.6499007 -2.0627682 0.19299142 9
1.6548398 -3.9255412 0.2794778 9
1.6938705 -2.078634 0.28275174 10
1.8328997 -1.9009798 0.20451516 9
2.1984904 7.0249867 1.9101415 14
2.3366163 6.9834113 1.5284585 13
2.4797199 6.8180466 1.2043633 12
2.6495478 6.4922514 1.7090269 14
3.3937232 6.795042 1.1948409 12
5.6169124 6.4934316 0.60620701 9
5.6568155 6.5944309 0.90446645 10
5.6847014 7.935061 1.3220741 11
5.9249244 0.14580415 0.23828943 8
5.9200006 6.2993598 0.32805678 8
5.910841 0.25054434 0.4971956 9.5
5.9816079 0.83707738 1.2292498 13
5.8075271 7.885077 1.8448915 12
6.0048499 0.91471416 0.50232321 9
6.0477262 0.2161044 0.84109157 11
6.038712 0.92071819 0.92006153 11
6.0356622 0.73626828 1.0629947 12
6.1025438 0.94882262 1.4301219 14
6.0744019 0.91208667 1.8598061 15
6.0672717 6.4931607 2.5452857 15
6.3498316 1.1140741 0.56980395 10
6.3295603 0.17967366 1.3434378 13
6.2114601 0.35974109 1.6542065 14
6.8633242 6.5963073 2.391799 14
7.0663428 5.7035222 0.77528131 9.5
7.0976524 5.9018779 1.3602644 11
7.2493572 5.701376 2.245672 14
7.4860048 5.5591164 0.27753764 8
7.5946631 5.3062239 1.2966179 11
7.4594464 5.5786338 1.9690465 13
7.4462233 4.0712981 2.5657783 15
7.9103827 4.659883 2.1121707 14
8.1711206 4.4560437 -0.13030788 7
8.0324793 4.4321103 1.8127707 13
8.5440397 3.491868 0.063715518 7
8.4425859 3.6280305 1.44796 12
