# .PCD v0.7 - Point Cloud Data file format
VERSION 0.7
FIELDS x y z intensity
SIZE 4 4 4 4
TYPE F F F F
COUNT 1 1 1 1
WIDTH 189
HEIGHT 1
VIEWPOINT 0 0 0 1 0 0 0
POINTS 189
DATA ascii
0.21085916 -0.37546501 -0.0043629413 172.75
-0.014135025 -0.23255509 -0.0053114519 174.5
0.031570353 -0.24942411 -0.0044361036 172.63637
0.25707123 -0.20325291 -0.0095110871 163.5
-0.038996696 -0.15341124 -0.0062932633 173.58824
0.16270547 -0.13756126 -0.015940206 163.61818
0.25166094 -0.14796391 -0.030229891 163
0.31801262 -0.14082958 -0.03019925 162.51282
0.64975333 -0.10215377 -0.0055024056 168.33333
-0.067209072 -0.051397368 -0.0090715233 173.6842
0.089738704 -0.041987814 -0.0064802011 165
0.1534777 -0.050228886 -0.032689046 163.63829
0.25808236 -0.045903303 -0.025289869 163.16891
0.343667 -0.031862885 -0.014697138 162.80867
0.45851955 -0.013694369 -0.039151028 164.54651
0.53989559 -0.031826191 -0.007984546 166.25757
0.64231229 -0.044770364 -0.019470561 167.59091
-0.062195428 0.05631559 -0.011745735 173.57143
0.089879535 0.03999516 -0.0063951062 165.11765
0.15331526 0.049746852 -0.035212997 163.93549
0.2506665 0.035770789 -0.043036077 163.77142
0.3625195 0.011098541 -0.040118996 163.85542
0.44473684 0.037270322 -0.036870554 163.32782
0.5240801 0.040670909 -0.0063694865 165.18919
0.64464086 0.055716679 -0.014188683 168.41936
-0.040065356 0.15541527 -0.016122561 174.61905
0.014620455 0.14477028 -0.011119838 171.5
0.13785608 0.10868052 -0.016863314 164.875
0.45591238 0.12474576 -0.014326373 162.36734
0.5831697 0.14945984 -0.0056533241 166.77777
0.62516147 0.14689261 -0.012267507 168.66667
-0.14234574 0.23005311 -0.003044901 182
0.57417905 0.21809758 -0.0066720867 164.16667
-0.23022398 -0.96420121 0.034365002 155.5
-0.062084764 -0.94105273 0.027354619 176
-0.50790673 -0.85166532 0.037649188 135
-0.33671436 -0.87513638 0.044992838 151.25
-0.28968582 -0.82089168 0.034494385 171
-0.18105204 -0.88818651 0.029339235 173
-0.012830796 -0.8333497 0.030594358 184.66667
-0.44458729 -0.78969008 0.040247425 149
-0.38922301 -0.73718685 0.036787856 165
-0.23097476 -0.74825817 0.034619197 183.5
-0.11887486 -0.78773916 0.032078266 186.66667
-0.077886581 -0.72194493 0.0330013 194
0.029150346 -0.74354374 0.030233197 191.5
-0.31522065 -0.66487509 0.03944267 182
-0.28026643 -0.63270813 0.033937268 187
-0.14810219 -0.64617437 0.033627655 194
-0.038102396 -0.65859401 0.032828242 192.75
0.074857742 -0.64030939 0.038387485 191.25
-0.2261585 -0.57987136 0.035777066 193.5
-0.18432733 -0.53982341 0.034480523 192
-0.060109545 -0.53449821 0.041414015 189.33333
0.044825107 -0.55661827 0.040675733 188
0.1301896 -0.52301461 0.036180533 185.625
-0.61525249 -0.42148197 0.05731298 183
-0.57121009 -0.40545827 0.036776267 149
-0.13526988 -0.46933913 0.04698576 190.66667
-0.045010492 -0.43508044 0.04843621 186.66667
0.05042965 -0.45543188 0.029259253 182.88889
0.16454324 -0.43977433 0.028766267 180.10001
-0.71908718 -0.32882568 0.035854634 140
-0.64662379 -0.30731148 0.03289406 152
-0.55423802 -0.39516723 0.05805783 110
-0.47105855 -0.36149698 0.04348829 174
-0.14485519 -0.37856758 0.086585626 192.5
-0.029800588 -0.38672736 0.047233958 183
0.065057598 -0.3641533 0.041542388 179.83333
0.15539961 -0.37601429 0.019423395 175.71428
0.22145276 -0.34368679 0.0097491117 171.28572
-0.53072011 -0.27203476 0.036423888 168.33333
-0.44138896 -0.2454295 0.033674676 186.5
-0.33044884 -0.22550148 0.044661622 189.33333
-0.22953156 -0.24691743 0.065346859 177
-0.14541736 -0.25801843 0.028009562 183.25
-0.049614545 -0.24176793 0.027196381 179
0.04759071 -0.25763926 0.014833806 173.05882
0.15384896 -0.22768588 0.025377981 166.84375
0.22766221 -0.22756627 0.038906485 152.39999
0.9388482 -0.21637321 0.019776609 185
-0.7494396 -0.19751249 0.028379356 141
-0.65385556 -0.18046343 0.032025684 151.66667
-0.54310334 -0.16084827 0.034356691 168.33333
-0.45383528 -0.14536098 0.031790189 188
-0.3347601 -0.12413883 0.036370337 190.16667
-0.22421241 -0.13960999 0.035108563 185.60001
-0.16717607 -0.14484383 0.018134622 181.45454
-0.070295945 -0.16574304 0.016295897 177.47058
0.06228321 -0.14071818 0.016535686 168.7742
0.13714698 -0.16835228 0.013653529 164.54546
0.25747257 -0.18950067 0.076648273 125.1
0.67233682 -0.11258088 0.013602543 161.77777
0.7616986 -0.13361162 0.021657694 165.53334
0.84588099 -0.15286104 0.028362952 179.53847
0.92133737 -0.13831125 0.027007135 184.25
-0.75556099 -0.062358875 0.027357511 138
-0.66121781 -0.057020716 0.030798798 148.33333
-0.55399299 -0.051058721 0.032109119 170
-0.45182088 -0.045521125 0.029861867 190.60001
-0.3324098 -0.038749222 0.03512837 190
-0.23160428 -0.033523012 0.027163278 184.89999
-0.12788992 -0.051687662 0.019033691 179.16667
-0.056720987 -0.063886784 0.0086066481 174.28572
0.051715109 -0.05362808 0.01161057 167.54762
0.35623333 -0.041541643 0.0016581308 162.83333
0.5420559 -0.011226115 0.0011095909 165.81818
0.68016708 -0.04304558 0.012211284 162.85715
0.74886215 -0.042646218 0.018614259 161.42857
0.83168536 -0.035504773 0.031135453 176.61539
0.93449688 -0.038285669 0.026619649 183.90909
-0.75328684 0.071309112 0.028581541 134
-0.66844851 0.065959699 0.029301818 147.66667
-0.56367761 0.059343163 0.029439386 169.33333
-0.45746556 0.0526172 0.028125003 188.60001
-0.33946145 0.04518041 0.032490879 190.8
-0.23058808 0.038222421 0.024578879 184.36363
-0.12871234 0.057726815 0.015925338 179.55556
-0.065549396 0.054756775 0.0060272287 175.33333
0.051702425 0.053046487 0.0077030584 168.30769
0.49710721 0.095826127 0.00018492604 162
0.54403543 0.058379862 0.0045141312 165.46428
0.67749482 0.058093462 0.013196871 163
0.75524491 0.062952645 0.021330258 162.7619
0.83116978 0.058504097 0.031229358 177
0.93443424 0.056825243 0.028799428 186.8
-0.64446568 0.18141729 0.025282448 154
-0.5570035 0.16583315 0.026574604 171.5
-0.45084611 0.14697979 0.025175512 190.5
-0.3316085 0.12562896 0.03091646 190.66667
-0.22541131 0.11483073 0.031142702 185.77777
-0.17139311 0.15600322 0.015904728 180.57143
-0.072433755 0.16386025 0.010789313 178.81818
0.065180115 0.12573898 0.0056884638 169
0.1067573 0.12048228 0.0013668955 166
0.47554275 0.15925238 0.010744433 163.20512
0.52734363 0.14226639 0.0090294573 165.1628
0.65598071 0.15196177 0.019298492 160.38235
0.75632256 0.15663713 0.02320284 168.75
0.84762841 0.1426159 0.033437841 182.39999
0.91709852 0.14431424 0.031522669 186.33333
-0.55008507 0.28092173 0.022499496 172
-0.44458368 0.24899665 0.021059345 190.8
-0.32788336 0.21312872 0.029384319 191.75
-0.26458028 0.2683903 0.023625497 190
-0.161733 0.23660403 0.01885049 184.77777
-0.082744151 0.20221224 0.015349571 181.5
0.48058671 0.23236506 0.017479125 159.83333
0.55509853 0.25535953 0.014925025 157.72501
0.63996607 0.23783211 0.028288264 165.04546
0.74349517 0.25392386 0.027937757 176.1579
0.83883727 0.25213432 0.031224748 183.75
0.93745917 0.2457926 0.021889435 186.33333
-0.74323463 0.33960071 0.020629356 135.66667
-0.6439563 0.30956253 0.019427106 154.5
-0.46351761 0.36913639 0.019936323 183.60001
-0.36129647 0.32435367 0.018401766 194
0.53584111 0.3358238 0.028157461 169.55556
0.66157728 0.34973329 0.025755234 178.89473
0.73883903 0.344414 0.036397044 183.5
0.83967096 0.35092086 0.028139638 184.375
0.92161596 0.35019767 0.018551981 165
-0.72610193 0.4845857 0.01896828 131.5
-0.63819957 0.44586283 0.020175057 147.5
-0.57871974 0.42011109 0.015978301 159.5
0.56166577 0.45750549 0.032487087 181.63637
0.62918288 0.43272939 0.033719782 182.75
0.74945843 0.45012319 0.029985799 185
0.85752648 0.46305001 0.024528669 154.2
-0.81600082 0.52449065 0.014355615 120
0.59398025 0.53701228 0.033228587 185
0.64150554 0.54623961 0.038364273 185.77777
0.76678962 0.55820829 0.032446168 154.83333
0.84846252 0.50489885 0.036276583 149
0.63603932 0.64598441 0.041613229 164.39999
0.71937388 0.61731112 0.04008884 150.33333
0.66376621 0.71403867 0.041855752 143
-0.26959398 -0.76165432 0.12706949 200.66667
-0.071193218 -0.31465644 0.12289631 188
-0.24028739 -0.25425071 0.10113073 165
-0.13889791 -0.26921552 0.18945967 180
-0.0062170476 -0.22790323 0.15362433 174.5
0.045329664 -0.22193891 0.17071103 149.77777
0.16023383 -0.20295992 0.13247029 124.88889
0.22438513 -0.20518802 0.10545655 127.4
0.07638897 -0.19106357 0.156371 127
0.15435587 -0.19037665 0.1262189 129.14999
-0.36465222 0.1295626 0.11628471 151
-0.27243632 0.11232743 0.15253693 123
