# .PCD v0.7 - Point Cloud Data file format
VERSION 0.7
FIELDS x y z intensity
SIZE 4 4 4 4
TYPE F F F F
COUNT 1 1 1 1
WIDTH 231
HEIGHT 1
VIEWPOINT 0 0 0 1 0 0 0
POINTS 231
DATA ascii
0.50903606 -0.82814568 -0.0015590541 175
0.39501742 -0.72308528 -0.0012851626 186
0.49202904 -0.71487582 -0.0034027214 186
0.69420624 -0.70990849 0.00080472959 181
0.39259085 -0.60542721 -0.00049320946 186
0.48745421 -0.68496203 -0.0035268764 189
0.57910991 -0.67397261 -0.0018679881 189.33333
0.66669816 -0.64532852 -0.0031479124 188.5
0.75736088 -0.61677229 -0.0021582777 186.33333
0.18433428 -0.50151962 -0.0041354573 183
0.25642127 -0.50912327 -0.0070594614 182.66667
0.3583619 -0.51907283 -0.0066055078 183.625
0.47152889 -0.58546603 -0.00092267286 187.5
0.5467099 -0.56057888 -0.0050317645 186
0.60886276 -0.51416427 -0.002791459 187
0.74861139 -0.55808562 -0.010596382 189
0.81849754 -0.53873289 -0.011296054 187.25
-0.0025024749 -0.40141457 -0.0057369652 179
0.067019455 -0.42975399 -0.013150758 179.83333
0.15313114 -0.47037914 -0.015209385 180.61539
0.24993247 -0.44884729 -0.012435617 179.85715
0.36477634 -0.45692009 -0.01483256 180
0.45498282 -0.45702305 -0.01382826 180.60001
0.53127605 -0.43259734 -0.010141399 180.75
0.66891378 -0.4706476 -0.0035913219 186.5
0.73767918 -0.44118693 -0.0015044775 188.25
0.83766705 -0.43487179 -0.0062137498 190.33333
-0.036340781 -0.33803642 -0.0095280148 177.28572
0.06285169 -0.34118208 -0.016851537 176.6875
0.15622295 -0.34283903 -0.026157968 174.86208
0.25191727 -0.3560017 -0.027059866 173.83784
0.35756302 -0.34430632 -0.026475975 170.58
0.45781428 -0.33924636 -0.011269881 171.29033
0.54763818 -0.33821571 -0.0089340657 174.39999
0.63167143 -0.34845257 -0.012492322 178.53334
0.76447225 -0.36641827 0.0014674291 186
0.05358329 -0.26851577 -0.029185098 174.55
0.15274529 -0.24638985 -0.02917706 169.73334
0.25380132 -0.24157158 -0.022343535 165.75
0.35462472 -0.24153517 -0.027379755 167.15384
0.45462888 -0.25000465 -0.039734323 168.97562
0.544671 -0.24667403 -0.030566797 170.1228
0.63811016 -0.25406405 -0.010293202 172.77272
0.17275964 -0.17463402 -0.016868317 164.36842
0.25554976 -0.14936866 -0.036793984 164.66667
0.35265231 -0.14445628 -0.04056989 165.64493
0.4461723 -0.14066423 -0.031545144 167.5625
0.54445946 -0.16014598 -0.046623703 170.35135
0.28640187 -0.090019144 -0.063129894 164.5
0.37133214 -0.049480848 -0.066885546 166.15625
0.42499515 -0.048276175 -0.050446242 166.82967
0.37454632 0.052540313 -0.068158232 166.90805
0.42721173 0.048978612 -0.052396201 167.03479
0.51058531 0.091920175 -0.024442423 168.75
0.264505 0.15913226 -0.037730366 167.51471
0.35439721 0.14280573 -0.04259634 166.69403
0.44633397 0.13957465 -0.030036161 168.02971
0.54773784 0.1518537 -0.041286081 171.19565
0.62215286 0.17519392 -0.025221517 176.46666
0.15008907 0.25379965 -0.039292485 172.54167
0.2455854 0.21624285 -0.022424409 168.39999
0.35799846 0.22720855 -0.027587142 169.88889
0.45072934 0.25212318 -0.045883287 172.10527
0.54638588 0.24909765 -0.03746663 175.44444
0.63553196 0.23917677 -0.014266721 179.66667
0.72694308 0.25502017 -0.012942737 184.11111
0.16913237 0.39108938 -0.0014280827 181
0.24866396 0.38931772 -0.010272338 179.75
0.38272062 0.36642021 -0.016778599 178.06667
0.45939857 0.33503449 -0.026606457 177.62857
0.54461741 0.32712778 -0.012395285 180.13333
0.64438879 0.35164934 -0.016373655 183.80952
0.75256777 0.34241137 -0.0078441575 187.28572
0.83646309 0.33729184 -0.0050964835 191.25
0.91767496 0.39513776 -0.01824408 195
-0.067867994 0.47655246 -0.01314062 190.60001
0.058648802 0.44536188 -0.008194143 187
0.1434979 0.47402477 -0.016906301 185.66667
0.24682629 0.46664158 -0.030763283 183.05556
0.35926545 0.4553698 -0.022048043 182
0.43953514 0.46397045 -0.024254529 183.26315
0.54146022 0.43131807 -0.017040087 183.61111
0.66300428 0.47657138 -0.0086853113 189.83333
0.73503298 0.43792945 -0.0048247837 191.14285
0.84555632 0.44332877 -0.011812394 195.33333
-0.15138778 0.56693965 -0.022787413 195.2
-0.029762905 0.53644139 -0.008850663 192.39999
0.053883921 0.55092376 -0.016309636 190.77777
0.17308952 0.55346096 -0.017015792 190.14285
0.25458062 0.5356912 -0.0087311827 188.125
0.34999672 0.52177936 -0.0082085701 187.30769
0.45329717 0.56606317 -0.012531922 189.89999
0.54694599 0.54931682 -0.0085017821 190.83333
0.63417083 0.52462316 -0.0054306597 191.60001
0.72851151 0.55698216 -0.016230552 195.33333
0.81956506 0.53812045 -0.020050842 195.75
-0.24826466 0.6708414 -0.030087277 199.25
-0.15137231 0.64583182 -0.020691691 197.5
-0.077120006 0.63651884 -0.023325682 196
0.027216459 0.66289681 -0.026245622 195
0.13820882 0.65178478 -0.028850257 193.75
0.23259468 0.63061571 -0.012234222 192.39999
0.31826952 0.62483686 -0.0092040403 191.33333
0.43399167 0.63096023 -0.0094037233 192.875
0.58035761 0.65406299 -0.017304411 195
0.67602098 0.6492514 -0.017424978 196.8
0.76329458 0.61234307 -0.018464817 197.33333
-0.34151575 0.769297 -0.030753937 188
-0.28029284 0.70241719 -0.02116649 198
-0.16469888 0.75765479 -0.026239153 200.60001
-0.01877806 0.74778378 -0.02679746 198.33333
0.051361691 0.73062313 -0.028765328 196
0.11176204 0.72493947 -0.035536863 196.33333
0.20827822 0.74416524 -0.024561027 196.2
0.30824462 0.75035524 -0.021819621 195.8
0.40791616 0.74347025 -0.019442195 196.2
0.53169322 0.72493166 -0.020867974 196.14285
0.60767925 0.74535424 -0.017319271 198
0.7034834 0.71034741 -0.017497797 199
-0.42947957 0.85991758 -0.022204518 150.33333
-0.3903155 0.82062453 -0.030306673 179
-0.24316385 0.86658323 -0.030070202 190.33333
-0.068309195 0.84145635 -0.032530893 198.75
0.072121374 0.83163697 -0.040772848 198.75
0.18225752 0.85783708 -0.029843342 199.75
0.29604906 0.88696462 -0.030108592 200.66667
0.30138153 0.8333869 -0.029159386 198
0.41587162 0.87646174 -0.035874814 200.33333
0.52379668 0.83032042 -0.029183969 199
-0.27863795 0.91151333 -0.018443754 147
-0.12587373 0.94605047 -0.029407388 165.25
0.028998243 0.94647437 -0.044454437 177.75
0.1601637 0.94703406 -0.026959639 178.5
0.29020914 0.94182158 -0.029486254 197
-0.29510605 -0.90796453 0.038017958 143.5
-0.15832998 -0.95860392 0.029238295 146
-0.0065194825 -0.97124833 0.024654934 150
0.0044026314 -0.94918859 0.014951956 152
0.13931142 -0.95978218 0.018023543 153
-0.43568069 -0.83820665 0.072583653 188
-0.39856872 -0.8035183 0.054315183 211
-0.11863809 -0.88952816 0.023045728 155.66667
-0.076583877 -0.81117344 0.028798161 162
0.045422383 -0.84158254 0.019774314 159.25
0.16722876 -0.84477723 0.019811716 159.75
0.27173615 -0.84703916 0.052648406 137.83333
0.39488086 -0.85163254 0.0096101873 167.39999
0.50855023 -0.84607565 0.011987418 168
-0.52747989 -0.72827381 0.042568162 122
-0.36123228 -0.76876312 0.035291176 169.85715
-0.15079957 -0.71594495 0.022204401 165.5
-0.050699774 -0.7677229 0.020949826 165.5
0.082915813 -0.74730629 0.01739146 163.75
0.17254129 -0.74377477 0.01580047 166.2
0.27776012 -0.73965883 0.011465319 172.33333
0.3923963 -0.74582255 0.011464871 177
0.49486443 -0.74766326 0.005811132 181
0.59115243 -0.72380584 0.008717523 181
0.60624188 -0.77137172 0.0038848368 176
-0.44153756 -0.66157365 0.024535256 151.33333
-0.38206607 -0.61300457 0.025691655 160
-0.24648327 -0.65052819 0.025265949 166.25
-0.1338181 -0.68147993 0.058346361 134.375
-0.055311549 -0.64142787 0.022464907 166
0.014358832 -0.65227193 0.0161082 167.25
0.12332759 -0.64575827 0.014739552 172
0.22039285 -0.63468677 0.01403948 181.28572
0.34131026 -0.63142824 0.011208724 187.08333
0.47454491 -0.61770612 0.0071226163 189.5
0.57159674 -0.65582532 0.0072923284 188.5
0.67731714 -0.67472243 0.0065680598 181
-0.34211448 -0.58121604 0.021696521 164
-0.25838125 -0.51220584 0.026842827 168.25
-0.16409688 -0.56459767 0.022455711 168.16667
-0.017094422 -0.53242594 0.025471656 167.83333
0.066168711 -0.55708957 0.020016331 172.42857
0.16291191 -0.54667282 0.011584972 182.11111
0.2451825 -0.53516328 0.01308985 184.42857
0.3497082 -0.53417039 0.010586632 185.09091
0.46090326 -0.528817 0.0070764986 185.75
0.54128242 -0.55360746 0.0090217879 188
0.64210206 -0.53867966 0.0058333138 189.14285
-0.22687094 -0.48855406 0.015607619 168.5
-0.14310992 -0.43460059 0.027002499 166.28572
-0.040251639 -0.43468732 0.021394042 170.15384
0.045781936 -0.46101481 0.018510358 176.3
0.12176654 -0.4835709 0.014024559 181.66667
0.45516756 -0.49118516 0.0069405432 184
0.55413425 -0.46013972 0.007983299 185.10001
0.64263028 -0.43172464 0.0074588554 185.75
0.74371308 -0.45002469 0.0029940337 189
-0.10551636 -0.38780877 0.027176123 167
-0.069982842 -0.36035076 0.019005636 169.625
0.052441403 -0.32417053 0.0015964069 177.60001
0.14223875 -0.37721899 0.00078128168 177.85715
0.53234017 -0.34323934 0.0032264658 176
0.66744524 -0.3675133 0.0065239165 183.55556
0.74009544 -0.34441769 0.00762092 185.44444
0.01332244 -0.29567969 0.0017640198 176
0.23938906 0.17069507 0.075956255 128.5
0.33377314 0.18138508 0.071866632 128.5
0.14722086 0.23451392 0.050213519 161
0.23916347 0.26867804 0.079036742 172.5
0.38718104 0.27659473 0.010420381 172.66667
0.75583547 0.27982292 0.0078936955 188
0.035538439 0.35558027 0.035844382 186
0.14468601 0.36587563 0.015264352 182
0.28146037 0.34375644 0.018789669 174
0.34300128 0.33797485 0.013022344 174
0.66163868 0.37249282 0.0023959628 186.25
0.73733205 0.34352225 0.0054001473 188
0.84028649 0.34154284 0.0036894276 193
-0.01625918 0.41804078 0.0036981169 188.5
0.55696893 0.45934531 0.0045680315 188.39999
0.63502055 0.41352376 0.0041635409 188
0.55385458 0.58112848 0.00237206 194
0.62107432 0.53705311 0.001885643 193
-0.1584032 -0.90088576 0.1669503 167
0.096163519 -0.98405969 0.17481372 208.5
0.10075425 -0.97983235 0.15985873 209
0.24528433 -0.93503433 0.121792 203.60001
-0.10959363 -0.8214944 0.14620648 200
0.24877618 -0.88176179 0.13250051 152.5
-0.10319307 -0.79826933 0.17396267 162
-0.091830119 -0.79712093 0.12788866 172
0.17878787 0.17814714 0.14396659 123.4
0.25021893 0.18221934 0.12572409 123.44444
0.30983576 0.17804626 0.11997718 117
0.1737664 0.22050926 0.13077445 165
0.25372228 0.21008474 0.12645708 136
0.31635061 0.22210594 0.11299267 143.5
