# .PCD v0.7 - Point Cloud Data file format
VERSION 0.7
FIELDS x y z intensity
SIZE 4 4 4 4
TYPE F F F F
COUNT 1 1 1 1
WIDTH 123
HEIGHT 1
VIEWPOINT 0 0 0 1 0 0 0
POINTS 123
DATA ascii
-8.7938519 -3.3767002 2.4560597 14
-8.2169399 -9.1169682 2.7618113 13
-4.9280715 2.7011645 0.90787554 12
-4.3066521 2.4999707 0.28594983 9
-4.1741943 2.3746078 0.15109831 8
-4.1914511 2.2730756 0.417054 10
-4.2243886 3.9446559 1.3556304 14
-3.869055 4.2018647 1.5804653 15
-3.3819211 4.4354591 1.1096419 13
-3.2756197 4.5074263 1.2605222 14
-2.8546839 4.847693 0.74929523 11
-2.9167883 4.821135 1.4613906 15
-2.6678035 -2.2542861 0.54927367 11
-2.6469882 4.9801078 1.3388771 14
-2.5105586 -2.2346768 0.29032299 9
-2.0717938 2.7970347 0.50931507 11
-2.1603825 2.7080431 0.5795399 12
-1.839699 5.5086074 0.43232873 9
-1.7716463 5.5567098 0.92714572 12
-1.5788752 3.1113834 0.58338368 12
-1.5778356 5.6549435 1.3890101 14
-1.256168 5.1488662 1.1868976 13
-1.1864747 5.1497879 0.90935451 11.5
-1.0506167 -3.5954003 0.97236019 14
-1.0538374 5.2568259 1.3355885 14
-1.1492299 5.1703653 1.4805949 15
-0.75420845 5.4201307 0.88762063 12
-0.79897332 5.407968 1.2107108 13
-0.54609185 0.95872492 -0.053413738 6
-0.47513226 5.5996785 0.62778789 10
-0.44377881 5.6252069 0.90305179 11
-0.49770328 5.9274416 1.6300749 15
-0.25291869 -2.2080989 0.4141683 13
-0.29674742 5.7197428 0.98114669 12
-0.15859507 -5.2495027 -0.0019627041 7
-0.020407505 -5.2898149 0.32694492 9
-0.11518162 6.1266813 1.393376 13
-0.096094906 6.1383348 1.555653 14
0.12246506 6.7174664 1.0852036 11
0.28658172 0.9749611 -0.070314288 5
0.58576185 -3.7380347 0.28223696 9
0.38179687 6.4614506 1.3390564 13
0.65113169 6.6140184 1.6936927 14
0.93867469 -3.9765832 0.46600336 10
1.0925303 7.329134 0.89197081 10
1.0828035 -4.3402648 1.1490755 14
1.1328944 7.2772875 1.2130373 11
1.0655376 6.897748 1.6651735 13
1.3211421 -4.3237801 0.055704646 7
1.3612264 -4.2193193 0.96141165 13
1.4867381 -4.262331 0.52833557 10
1.7629136 5.5694985 0.57148695 9
1.7312787 6.9204998 1.3915372 12
1.7309965 6.9059701 1.6952195 13
1.7869953 6.8931227 0.86500967 10
1.8173648 6.816411 1.1040096 11
2.1571698 6.1554966 0.78072298 10
2.2986445 5.9362345 0.90031946 11
2.2353666 6.1052904 1.6081066 13.5
2.584595 -0.084026709 0.2608816 9
2.5262673 -0.66676927 0.33570853 10
2.6117091 -0.063437127 0.40079367 10.5
2.6219494 -0.7966277 0.53788918 12
2.5971041 -0.091373518 0.55217224 12.5
2.6184647 -0.090327516 0.76609087 14.5
2.6035733 -3.6595027 0.95748866 13
2.8338761 -0.48317438 0.35875109 10
2.9503658 5.2336674 0.5035345 9
2.8091705 -0.47216338 0.55351394 12
2.8370814 -0.54236579 0.7737174 13.5
2.8267713 -0.42252305 0.90009743 15
2.7822444 5.9781113 1.2530038 12
3.1940515 -3.1464131 0.30411449 9
3.0926294 0.24799153 0.37084287 10
3.1602128 0.30814722 0.51021588 11
3.0146735 -0.74168026 0.96671003 15
2.9726279 5.2543106 0.99072886 11
3.2818744 0.36820975 0.27272078 9
3.2327697 0.35625398 0.609851 12
3.3011491 4.7142625 0.5888167 9
3.2561305 4.7689505 0.81455064 10.5
3.2652054 4.7519188 1.0828431 12
3.2169225 4.8396044 1.2552317 13
3.260977 4.7579384 1.5493878 14
3.5366762 0.55516309 0.85526133 13
3.5154865 0.52863789 1.0165232 14
3.6496055 -2.75892 0.22225741 8
3.7726877 4.494103 0.41870281 8
3.698735 -2.8498807 0.76341307 11
3.7137902 4.6090522 1.2386802 12
3.7425714 4.6650338 1.5359203 14
3.8156812 -2.602658 0.37826335 9
3.7942195 -2.6686943 0.4842805 10
3.9458063 0.82273418 0.58959883 10
3.7942648 -2.7497849 0.81981176 12
3.9148176 -2.5410399 0.74445623 11
3.8040483 -2.6527727 1.3638484 15
3.8029251 4.5485272 1.4871993 13
4.1173201 -2.4312513 0.26213044 8
4.1511264 0.95829678 0.86188203 12
4.0191584 -2.5242796 1.1463928 13
4.1076174 3.995512 1.4944875 14
4.0904903 4.0090404 1.3324455 13
4.3818622 1.0821285 0.28622514 8
4.2911158 -2.4186609 0.43830481 9
4.2155075 0.97534966 0.4299697 9
4.3575921 -2.4278841 0.54459602 10
4.1966319 3.8372993 0.88046229 11
4.2650914 -2.4812136 0.9833082 12
4.3048573 -2.5265887 1.2456912 14
4.5753164 -2.2167776 0.92059654 12
4.3723888 3.5781868 1.2821752 13
4.5064635 -2.2939451 1.532208 15
4.7352777 -2.1479948 0.046816066 7
4.7042546 -2.1429849 0.50452501 9
4.6210847 -2.186878 0.84584183 11
4.7058268 3.0346189 1.0503496 12
4.6741872 -2.3231106 1.1413175 13
4.7303004 -2.1860473 1.4203138 14
4.9010296 2.8768828 1.8436114 15
5.1883078 2.2724938 0.16596246 7
5.0018106 2.6002409 0.83055586 11
5.3764687 2.072135 1.8783126 15
