# .PCD v0.7 - Point Cloud Data file format
VERSION 0.7
FIELDS x y z intensity
SIZE 4 4 4 4
TYPE F F F F
COUNT 1 1 1 1
WIDTH 115
HEIGHT 1
VIEWPOINT 0 0 0 1 0 0 0
POINTS 115
DATA ascii
-5.4650545 2.4486718 1.747481 15
-5.2379055 4.9404173 0.29533291 8
-5.243916 4.9240389 0.46458894 9
-5.3584805 2.9099729 0.74097139 10.5
-5.3419714 3.3811693 0.78015971 11
-5.3499517 3.838779 0.61877769 10
-5.2769427 4.7646666 0.80898529 10
-5.2930017 2.98876 1.1025068 12
-5.2749653 4.6425562 1.1367246 12
-5.3110309 2.5914726 1.4151961 14
-5.3510361 3.0170846 1.6528509 15
-5.3660254 3.4441063 1.6449103 14
-5.3460279 3.7225494 1.7832377 15
-5.2340136 4.0226998 1.6663345 14
-5.0219655 2.5489998 0.38069186 9
-5.1989503 5.3443937 1.146817 11
-5.1349406 6.0872378 1.2595556 12
-5.1119723 5.2305117 1.4564165 13
-5.0609956 5.5796037 1.9527776 14
-5.1860061 5.4494772 2.0629849 15
-4.9609485 2.8107352 0.21483475 8
-4.9269829 6.8283429 2.1970255 14
-4.7919102 5.3445005 0.51934463 9
-4.4570889 -3.349782 0.18318433 8
-4.5551066 -3.2920439 0.48123267 9
-4.4681187 -3.3517141 0.65031129 10
-4.0479932 6.5610442 2.2585285 15
-3.967937 6.5925927 1.3870436 12
-3.7529533 6.6734819 1.6768243 13
-3.6289654 6.6692395 1.870719 14
-3.1009758 6.6386395 2.0241942 15
-2.7529376 6.4616833 1.3532095 12.5
-2.5129535 6.5461488 1.6383868 14
-2.3449736 6.5713787 1.9637579 15
-2.0469251 4.3574295 0.39346099 9
-2.0749388 6.4095984 1.3590611 13
-1.6819316 6.3982954 1.2439059 12
-1.7979541 6.4891481 1.6265252 14
-1.6519718 6.4981985 1.9106613 15
-0.96204156 -0.7770282 0.37275371 15
-0.66890502 5.6655622 0.55430055 10
-0.78592002 5.6718225 0.79477149 11
-0.64993519 5.6871324 1.0353431 12
-0.74494827 5.6522732 1.2325821 13
-0.56696326 5.7130466 1.4887108 14
-0.24492221 5.5915828 0.80024111 11
-0.21297798 5.5829868 1.6734935 15
-0.18797736 -1.2279317 0.12510218 10
-0.16668163 -1.1983191 0.089565597 9
-0.004953438 5.5940809 1.289071 14
0.0055321623 -1.1586304 0.14227444 11
0.21106721 5.5794888 0.95896477 12
0.32507503 5.628036 0.85705084 11
0.31005016 5.585885 1.231698 13
0.28803235 5.9270086 1.6354346 15
0.47129074 -1.1796751 0.11077541 10
0.43182465 -1.1936582 0.28239623 13
0.42895958 -0.92448139 0.30067584 15
0.65410858 -1.2580022 0.079881571 9
0.78217471 -1.2410917 0.2547695 12
0.79495913 -0.94371235 0.30140305 14
0.88104004 5.766449 1.4549559 14
0.82803053 5.7787929 1.6115559 15
1.0859593 -0.96883142 0.2883212 12.5
1.1130836 5.9822407 0.85146308 11
1.3933436 -1.1931744 0.27671218 11
1.3639483 -1.0042175 0.45228258 15
1.2440635 6.067348 1.1981529 13
1.2760258 5.6603355 1.6416214 15
1.4574561 -1.0097636 0.31866401 12.5
1.5789481 -1.0269372 0.44855011 14
1.659037 -1.102466 0.24350584 10.5
1.7450621 3.8984532 0.43204528 10
1.8409476 -1.0557346 0.4450953 13
2.167052 3.5801034 0.47426808 10
2.1980159 5.5800996 1.763957 15
2.3599503 -1.0811371 0.39674091 11
2.2630315 5.618432 1.5379245 14
2.4619668 -1.0517267 0.14445415 9
2.4529598 -1.0733505 0.24861398 10
2.5240343 2.5821035 0.38921246 10
2.41594 -1.0959362 0.54453576 12.5
2.5459514 -0.56620467 0.55352145 13
2.5899639 -0.056028169 0.55762547 13
2.4939301 -1.0795472 0.70515782 14.5
2.509944 -0.51719815 0.6984275 15
2.585953 -0.25409773 0.64655441 14
2.5205152 2.5376396 0.67444062 12.5
2.47104 3.8690515 0.77604693 12
2.5200002 2.5940275 0.93355387 14
2.4810102 3.978658 1.2787834 15
2.6950047 1.2697593 0.38006139 11
2.7510226 1.8578115 0.32304901 10
2.6370392 2.5232928 0.30054235 9
2.6359708 0.31818947 0.5866335 13
2.7060018 1.4706089 0.50198185 12
2.7590156 1.8603739 0.42710447 11
2.6790221 2.5275505 0.56596327 11
2.6329577 0.20764866 0.75158685 15
2.6609738 0.54264843 0.60463387 13
2.6929719 0.74168092 0.7082063 14
2.6959791 0.84291965 0.62875414 13
2.7189841 1.1032395 0.65007102 13
2.7029893 1.4110956 0.67812413 13
2.6869755 1.339619 0.86994618 15
2.7159836 1.5695143 0.82615328 14
2.7309787 1.6743003 0.93447673 15
2.7659917 2.0144606 0.86167502 14
2.7989929 2.3925228 0.97575426 14
2.6650331 5.1739197 1.348377 14
2.8130326 2.4057007 0.35688239 10
2.8310156 2.2621634 0.57829344 12
2.8119984 1.9056809 0.71963507 13
2.8600054 2.3222303 0.75676906 13
2.8989871 2.4761693 1.1006719 15
