# .PCD v0.7 - Point Cloud Data file format
VERSION 0.7
FIELDS x y z intensity
SIZE 4 4 4 4
TYPE F F F F
COUNT 1 1 1 1
WIDTH 215
HEIGHT 1
VIEWPOINT 0 0 0 1 0 0 0
POINTS 215
DATA ascii
0.055451844 -0.42377347 -0.0027892846 180.66667
0.12686728 -0.44391006 -0.00369367 179.71428
-0.012170709 -0.3916316 -0.005757431 181
0.0046040793 -0.37487429 -0.0047202557 180
0.15793683 -0.33692998 -0.015973875 172.92592
0.21228713 -0.31389117 -0.033894204 166.14285
0.91190398 -0.33756679 0.0037560719 163.5
-0.12319981 -0.24138248 -0.0061216219 180.10001
-0.036104266 -0.24193886 -0.0082142754 176.75
0.04466923 -0.23771808 -0.028564781 171.41379
0.16841391 -0.25896189 -0.025333777 163.7
0.23804756 -0.23130463 -0.013566557 162.62962
0.69948578 -0.2017905 0.0033124089 145
0.94052088 -0.26341614 0.0058709355 165.33333
-0.16058026 -0.14799275 -0.0065184548 180.39999
-0.036232352 -0.14148128 -0.023107274 173.25
0.054612689 -0.1457307 -0.024960691 166.39131
0.1544743 -0.14315376 -0.012778993 157.93221
0.25284451 -0.14553063 -0.028563425 161.86139
0.31730509 -0.12438501 -0.039064564 157.34616
0.58069259 -0.11996993 -0.033146914 147.30769
0.63709366 -0.13834274 -0.0041855276 147.53125
0.71840948 -0.12823543 0.0026453559 143.8
0.84990501 -0.1524431 0.0078836493 157
0.9504444 -0.1469676 0.0032876753 164.25
-0.20765473 -0.0087117599 -0.0048030578 181
-0.17542702 -0.039726589 -0.0084194252 180.55556
-0.054495595 -0.033864621 -0.026311744 172.83333
0.062316187 -0.043741021 -0.015499223 163.64444
0.15586351 -0.044581469 -0.027324429 159.20833
0.2539978 -0.045589719 -0.05938245 161.27083
0.35021779 -0.034632981 -0.062869452 162.41772
0.45131877 -0.019256877 -0.030541738 158.56
0.54511207 -0.047794588 -0.030263033 152.33766
0.64142817 -0.048498444 -0.01545593 149.55173
0.73198271 -0.046272188 0.0012765116 145.33333
0.97303802 -0.039228126 0.002071959 164
-0.17561282 0.061842062 -0.0081904903 180.16667
-0.04653639 0.057345141 -0.029107129 172.28572
0.056602228 0.056658186 -0.018594276 164.03226
0.15470356 0.054690573 -0.02736738 159.98718
0.25352797 0.051102847 -0.056771662 160.01613
0.35963145 0.016430562 -0.059867255 160.73796
0.44207141 0.033658583 -0.035124697 159.14397
0.54500437 0.046604663 -0.033914723 154.3158
0.63942486 0.049283553 -0.01694553 148.16667
0.7363801 0.04849077 -0.0022892405 145.92308
0.88427722 0.029559864 0.0083478624 159
0.97263092 0.034380555 0.0023093172 161
-0.14556171 0.15268563 -0.0093894834 179.90909
-0.039675746 0.13408524 -0.024829496 173.32001
0.056285959 0.14910845 -0.02815189 166.55556
0.15205148 0.13884549 -0.017698703 160.90741
0.22258577 0.11674538 -0.033410888 161.17647
0.47524178 0.13163674 -0.033032935 152.54286
0.55595064 0.14739345 -0.039525241 150.10606
0.63867408 0.14398351 -0.0084808413 147.8718
0.72373468 0.13255936 -0.0016365881 143.5
0.85925001 0.15183474 0.005802684 161
0.94411385 0.14681923 -0.0013421779 163.60001
-0.12811634 0.24355757 -0.011297935 180.83333
-0.032974776 0.22104345 -0.014970034 176.18182
0.039536119 0.23696618 -0.028569324 172.34782
0.54604447 0.23597144 -0.020035293 145.82692
0.64924532 0.24717583 -0.0049971328 146
0.70826483 0.20540676 0.0028282795 142
0.84480554 0.23916757 0.0049879816 164
0.9373908 0.25581309 -0.0052808975 163.5
-0.063995771 0.31640282 -0.014500264 180.33333
0.57289976 0.35372385 -0.0088929366 153.92308
0.62798756 0.32386535 -0.0053729792 154.18182
0.75655079 0.35635558 -0.00070384541 165.44444
0.84938806 0.35893962 -0.0040867073 165.75
0.92366165 0.33842307 -0.010889386 165.5
0.59643877 0.40462533 0.0014010516 165
0.66047239 0.447321 -0.0063884663 167.25
0.73559284 0.4497467 -0.0052532372 170.33333
0.85426402 0.45653331 -0.019784169 164.66667
0.67439264 0.54255623 -0.016977364 166.2
0.76446337 0.54979247 -0.019012418 165.42857
0.85783857 0.50367749 -0.015309198 161
0.71790051 0.62539071 -0.017546332 160.66667
-0.34780264 -0.92346025 0.0359753 131
-0.1757703 -0.94131637 0.030991253 149.33333
-0.48302615 -0.83746415 0.041394487 117
-0.30984589 -0.87600738 0.033350457 140
-0.26001796 -0.81504565 0.026655877 153.66667
-0.12906829 -0.86624789 0.022538092 159
-0.58007997 -0.71743232 0.033326447 116
-0.42232117 -0.77912992 0.037976373 128
-0.36788881 -0.72841948 0.029909348 143.33333
-0.21253003 -0.75356358 0.028559791 160
-0.18037425 -0.71391636 0.02499835 167
-0.071715184 -0.76833653 0.022786869 167.25
-0.51540679 -0.66822499 0.035817839 124
-0.45527235 -0.62501484 0.027972048 141
-0.31637466 -0.67804438 0.029772038 159
-0.26978803 -0.63381618 0.025487512 169
-0.12485935 -0.64545572 0.018884236 178.2
-0.029611932 -0.66499317 0.01856079 175.83333
0.015282065 -0.62139422 0.02023299 179
-0.35593688 -0.5498386 0.030227887 162
-0.21162009 -0.57676595 0.025880007 179
-0.17584042 -0.54414815 0.018358439 182.25
-0.036191806 -0.53143364 0.020549424 186.14285
0.052905284 -0.55568212 0.023130337 184.14285
-0.73688209 -0.4560557 0.026710041 110
-0.66488951 -0.42627251 0.028716588 122
-0.23902227 -0.4558928 0.054737631 173.5
-0.10929106 -0.4766337 0.025858294 186
-0.057773888 -0.42702058 0.023327872 184.66667
0.050935674 -0.46426991 0.020922648 183.54546
0.10630114 -0.47201836 0.0093412204 181.66667
-0.56832415 -0.38492972 0.04075107 131
-0.22339027 -0.3406775 0.031536657 182.125
-0.16530569 -0.30956805 0.021764902 184.33333
-0.021814324 -0.39493632 0.013541332 182
0.065663561 -0.35259444 0.01376089 178.5
0.13841666 -0.36794025 0.0075067948 176.71428
0.8642903 -0.30892199 0.015924752 165
-0.70552504 -0.29044434 0.028684223 119.5
-0.6337806 -0.27137244 0.02684539 128.5
-0.54011577 -0.2463693 0.025460415 148.25
-0.43545201 -0.21882883 0.020330939 174
-0.38282612 -0.2053155 0.01473234 182
-0.23647277 -0.25246438 0.018219784 185.5
-0.15242955 -0.24386379 0.037903678 172.17647
-0.031211922 -0.23628904 0.0064400043 177.39999
0.040652346 -0.26209512 0.031013943 174.16667
0.14480489 -0.21278945 0.073036276 139.33333
0.69763571 -0.20222706 0.014424596 148
0.74277943 -0.23182285 0.019415513 154.89999
0.83710629 -0.24535681 0.01836082 162.89999
-0.72164488 -0.15225378 0.023708351 119
-0.65139997 -0.14267735 0.021590892 128
-0.55381835 -0.12916119 0.021698892 147.25
-0.4497596 -0.11512654 0.016667677 173.2
-0.34223986 -0.15450513 0.022108965 187.2
-0.25296453 -0.16985038 0.020344768 185.14285
-0.17522638 -0.14999028 0.011169217 181.5
-0.07448522 -0.16151778 0.0049774284 177.3
0.18083414 -0.18687454 0.04288784 135.46153
0.65809691 -0.15177101 0.010162935 142.5
0.75741148 -0.15360889 0.017292948 150.8125
0.8536852 -0.15413268 0.015410854 159.66667
0.91437054 -0.10301422 0.01054549 165
-0.73839557 -0.014621131 0.018416716 117
-0.65589774 -0.013696394 0.014622449 131.33333
-0.54112518 -0.01216702 0.016180215 154.5
-0.44075558 -0.011056879 0.01159282 178.2
-0.32826036 -0.042323336 0.017668182 188
-0.23765774 -0.051351234 0.014266149 183.44444
-0.12643602 -0.040188897 0.0036278465 178.875
-0.096073031 -0.067098223 0.004387062 177.66667
0.77494693 -0.055965047 0.015960481 150.39999
0.84904188 -0.056463748 0.016635675 157.14285
0.91168982 -0.03493806 0.018220691 158
-0.50041747 0.098401874 0.015102723 165
-0.43524814 0.091075115 0.012855452 179.60001
-0.33135402 0.079404794 0.015416249 187.8
-0.23227414 0.068269022 0.016432835 184
-0.13878359 0.057735056 0.003375733 178.75
-0.09274932 0.052572563 0.0042409566 178
0.7655707 0.041414473 0.014166395 147.54546
0.84693146 0.057538606 0.01544795 156.92857
0.91655964 0.065439068 0.012786701 164
-0.72985655 0.12416224 0.020211406 118.5
-0.64477623 0.11461244 0.017361986 132.66667
-0.54436225 0.10334492 0.018979557 152
-0.26579335 0.15414925 0.047328271 179.72223
-0.1906912 0.13734682 0.0069863908 181.75
-0.078073144 0.14134097 0.0025898032 177.2
0.68541622 0.1414067 0.0085322177 142
0.7646113 0.15663642 0.01151132 149.53847
0.82763541 0.14243872 0.011126358 155
-0.40712106 0.29621291 0.016931979 174
-0.36470932 0.28078532 0.0085740089 181.60001
-0.26075459 0.24123003 0.013155409 186.66667
-0.1593571 0.24553758 0.011212268 183.13333
-0.021741007 0.24285124 0.0012039172 176.71428
0.0027285507 0.26701459 0.00087455491 176
0.69486159 0.25932118 0.0097538605 153.5
0.7409693 0.24798664 0.010606397 155
0.84336513 0.25327888 0.0098732589 164.5
-0.6473437 0.38670048 0.019082008 126
-0.579189 0.36141413 0.012992192 142
-0.47528002 0.32214126 0.013949215 164
-0.34929594 0.3847912 0.018227806 176.42857
-0.24516048 0.33034262 0.012062091 186.5
-0.19244717 0.30225068 0.013765604 185
-0.076347344 0.32087454 0.012614247 180.25
0.66233093 0.3452175 0.0075808349 160.625
0.74754447 0.3415432 0.0068436353 162
-0.73396939 0.41947651 0.017635727 115
-0.52762467 0.4794431 0.015786748 140.66667
-0.4249365 0.42324647 0.032634482 153
-0.38982791 0.4052633 0.027182046 165
0.59879714 0.41089121 0.0043888986 167
0.60470152 0.42192185 0.0039933273 167
-0.71046013 0.57608104 0.016753629 115
-0.63668537 0.53733009 0.014185462 121
-0.77136219 0.60873604 0.012822993 110
-0.10465917 -0.34144124 0.10880162 170
-0.33902982 -0.28156742 0.10409451 139
-0.17629375 -0.21203242 0.1235362 162.89999
-0.052351572 -0.24690031 0.16131037 154.60001
0.06371709 -0.20682611 0.14138092 140.68182
0.14623576 -0.20069158 0.10685895 125
-0.0133716 -0.19143704 0.18306836 143
0.031965461 -0.18518452 0.16546643 132.66667
0.099958062 -0.18513583 0.11925992 130
-0.30843011 0.1620573 0.11956464 169.83333
-0.29619518 0.15870567 0.13166945 163
0.069437042 0.19497269 0.16138242 124.57143
0.039039481 0.21457072 0.17312218 145.14285
