# .PCD v0.7 - Point Cloud Data file format
VERSION 0.7
FIELDS x y z intensity
SIZE 4 4 4 4
TYPE F F F F
COUNT 1 1 1 1
WIDTH 210
HEIGHT 1
VIEWPOINT 0 0 0 1 0 0 0
POINTS 210
DATA ascii
0.45735762 -0.45783275 -0.010818864 179.16667
0.52464104 -0.43113813 -0.0082238372 178.5
0.45332596 -0.33018357 -0.020711817 172.28
0.54306877 -0.34280354 -0.010302803 175.125
0.64498806 -0.3448312 -0.0069997325 178.25
0.44996053 -0.24415615 -0.02658633 167.37837
0.54550916 -0.24544261 -0.024633234 170.66667
0.63627172 -0.25651938 -0.0074746469 176
0.72240734 -0.23197512 -0.00580581 179.28572
-0.13296531 -0.10729127 -0.014405563 153.28572
0.44572368 -0.14228514 -0.022683535 156.83186
0.54922968 -0.14873941 -0.030776653 159.78847
0.62419254 -0.1422469 -0.021990402 169.03125
0.76386654 -0.14542976 -0.0062998948 178.66667
-0.63924313 -0.090860449 0.00045178493 121
-0.38517529 -0.067313813 0.00017820134 150
-0.14443183 -0.044824023 -0.014365048 154.5
-0.048523631 -0.06180612 -0.034387719 168.8718
0.056034967 -0.04753913 -0.031988759 154.03703
0.1545895 -0.031680286 -0.025441196 145.96227
0.2499086 -0.018901031 -0.063100278 157.83018
0.36170965 -0.0068929079 -0.063859068 160.71642
0.44023004 -0.038924724 -0.040990531 161.5
0.53936768 -0.047053643 -0.020777427 155.94872
0.63787079 -0.049367007 -0.026685439 164.06122
0.77923638 -0.038702078 -0.0054757698 178.42857
-0.63111353 0.029512648 -0.0011546609 124.5
-0.51323265 0.026509175 -0.00066377135 140
-0.39334437 0.023554634 -0.0022896735 147
-0.15009589 0.048413914 -0.016408276 154.35294
-0.04990007 0.043473862 -0.036560532 168.82927
0.062414452 0.044312678 -0.032206342 155.73529
0.1585265 0.047482289 -0.027128201 147.86021
0.25555551 0.048691943 -0.054448761 154.03424
0.36022705 0.035731353 -0.059647057 158.23677
0.4501285 0.0077486108 -0.039071366 160.80702
0.5431419 0.018630479 -0.021252194 156.80646
0.64470702 0.030393047 -0.024608606 164.47058
0.78036052 0.044965185 -0.0070719174 178.75
-0.80767506 0.1776187 -0.0014573885 110
-0.73770028 0.16727936 0.00019966904 114
-0.63761973 0.15303022 -0.004533499 122.33334
-0.51132572 0.13465604 -0.0051885904 141
-0.44735631 0.12506181 -0.0016597904 145.33333
-0.37131843 0.11398212 -0.0017268169 145
-0.13557731 0.14765994 -0.018649196 156.44444
-0.032154854 0.13448149 -0.033263322 170.25
0.046902921 0.14749375 -0.04898322 162.46428
0.15696944 0.14484291 -0.024725609 146.16667
0.2521154 0.14261696 -0.030535862 150.10204
0.33850434 0.14129114 -0.032541592 148.18628
-0.64197326 0.28453887 -0.0049756011 123.5
-0.56983614 0.26516372 -0.0080889389 133
-0.48205256 0.24089883 -0.0055981674 140.66667
-0.36560872 0.20870952 -0.0022180846 145
-0.054249983 0.25660169 -0.020929284 164.93333
0.048747405 0.24243431 -0.037624232 171.48718
0.14775811 0.25146186 -0.04408684 155.63637
0.25119269 0.24311133 -0.030914195 144.06
0.33174053 0.25159323 -0.033631206 142.8158
-0.74346077 0.311876 -0.001260835 113
-0.30586845 0.38875118 -0.0011609106 149.5
-0.27364591 0.37183189 -0.0067563206 147
-0.11694209 0.36931464 -8.1457301e-06 147.33333
-0.039240479 0.34241086 -0.013787233 161.26315
0.041810531 0.34616822 -0.030004201 173.2
0.15322563 0.33336392 -0.028047565 170.39285
0.25529388 0.34214354 -0.024177892 158.44118
0.32780492 0.34313652 -0.017043665 150.3125
-0.43276522 0.46047506 -0.0059925597 139.66667
-0.37418106 0.42771256 -0.0056151347 143.5
-0.24102522 0.46149012 -0.0066827904 144.83333
-0.14019427 0.45843628 -0.0035950858 144.33333
-0.040615205 0.44498649 -0.0031163569 150.5
0.057746023 0.43275678 -0.015386446 167.6875
0.14808373 0.45264104 -0.027195757 173.78261
0.24286447 0.46257472 -0.028548377 176.33333
0.30989018 0.46644965 -0.031263437 174.7
-0.65764797 0.58537245 -0.0027657128 114
-0.54618102 0.52387345 -0.0065439818 126
-0.34440216 0.53713113 -0.0074164197 141.8
-0.23301588 0.58813059 -0.012308121 143
-0.16023506 0.54019326 -0.0066102142 141.83333
-0.069704063 0.55719668 -0.0059409505 144
0.0525437 0.52979118 -0.006796475 153.8
0.13918354 0.55364037 -0.006991372 161.33333
0.25331554 0.5495559 -0.010511965 169.52942
-0.73546946 0.62835002 -0.00031320134 108.5
-0.51216644 0.65957862 -0.0072790822 123
-0.45073742 0.61588299 -0.012130669 129
-0.33891138 0.68886709 -0.015879441 133
-0.26923755 0.6205923 -0.0068434062 140
-0.16038522 0.66859496 -0.0092572197 142
-0.019674834 0.64558053 -0.010815211 141.39999
0.065576106 0.65812457 -0.013197699 145.16667
0.16579406 0.64460295 -0.012628498 154.39999
0.27166548 0.64685982 -0.012234202 172
-0.63357067 0.74782127 -0.0055816644 113
-0.58094835 0.70983803 -0.0074387263 116
-0.42314672 0.76738125 -0.013283602 123
-0.3590242 0.70554876 -0.0083366018 131
-0.24093966 0.76892149 -0.015843993 133
-0.11576985 0.79978865 -0.016529655 138
-0.073281683 0.7301721 -0.011024468 137
0.035826653 0.75861692 -0.0142686 137.75
0.15331024 0.74397689 -0.017677417 159.60001
0.25668678 0.7344144 -0.015247493 153.60001
-0.50324422 0.84109712 -0.0076367329 115
-0.48272809 0.82334906 -0.012888268 118
-0.31430984 0.85476327 -0.0071544354 126
-0.28560486 0.82129663 -0.010867123 128
-0.14753734 0.84940404 -0.015596398 133
-0.0051530576 0.84810036 -0.017097849 156
0.011420098 0.80926752 -0.011863856 158
0.12664148 0.82447904 -0.014525671 136
0.23845409 0.8359133 -0.015864603 137
-0.3638196 0.91666538 -0.011830327 116
-0.20737216 0.94117814 -0.010356965 139
-0.18609667 0.91068673 -0.016661249 131
-0.045953412 0.93544894 -0.017229136 136
0.088090748 0.95039022 -0.020182135 128
0.10471105 0.90212846 -0.02416469 128
0.2202516 0.94227934 -0.019585032 127.66666
0.4928717 -0.84426147 0.0093595767 167.75
0.47956204 -0.74292433 0.0095639275 183.5
0.57223785 -0.72092396 0.016694572 182
0.46411002 -0.63871777 0.015683657 188.2
0.55675739 -0.65786159 0.012327612 185.33333
0.65213263 -0.66264445 0.015226479 180.66667
0.73765516 -0.62749273 0.016019216 180.75
0.45246476 -0.54717982 0.014468389 185.28572
0.53550887 -0.55167353 0.01660811 186.11111
0.6359911 -0.53707635 0.019450182 187.88889
0.74564517 -0.55612397 0.012320939 188
0.80574667 -0.56801909 0.012917326 184.5
0.4441193 -0.46359208 0.0054456354 180.33333
0.54395467 -0.45840454 0.012437163 182.125
0.63969994 -0.43230271 0.016898258 184.45454
0.74787915 -0.44378522 0.018465282 187.5
0.84580523 -0.45071632 0.014612379 188.25
0.90237153 -0.41792473 0.013057694 190
0.4598757 -0.37273869 0.0031397203 174.54546
0.53979778 -0.32877856 0.0039943922 175.16667
0.65493786 -0.35256451 0.0082541341 180.47058
0.73503441 -0.34525096 0.020930558 184.5
0.83529603 -0.34311742 0.020567795 188.25
0.91261572 -0.32908031 0.017081002 190
-0.71996409 -0.23282535 0.019812537 113
-0.6536777 -0.218761 0.01091395 117.75
-0.58672547 -0.20448817 0.0050560092 132
0.57440943 -0.27799502 0.0041768611 175.11111
0.63411206 -0.23568703 0.0067601865 176.1875
0.74521619 -0.25694805 0.014858308 181.625
0.85010856 -0.24663322 0.020015063 186.33333
0.92817867 -0.25286499 0.019488569 188
-0.7438271 -0.10070106 0.014400654 112
-0.51466745 -0.18889743 0.0099287247 136
-0.43286523 -0.17133702 0.0083785346 145.25
-0.35223633 -0.1540027 0.0079707988 144.75
-0.24520737 -0.13079563 0.017194049 138.42857
-0.1681297 -0.11434281 0.010843313 140.85715
0.6606108 -0.15835516 0.004145599 174.78947
0.75857198 -0.15009436 0.0092969444 179.52632
0.84778982 -0.15738259 0.021107718 183.75
0.92723989 -0.13462815 0.023562897 188.28572
-0.72376066 -0.098774955 0.0083544012 114
-0.64293778 -0.091278143 0.0069577666 120.66666
-0.52572894 -0.080439419 0.0082786772 133.66667
-0.44378474 -0.072826818 0.0067435643 144.5
-0.35006475 -0.064186767 0.010845121 147.33333
-0.2562184 -0.055531353 0.014786629 141.57143
-0.18011881 -0.048427243 0.010823391 143.16667
0.68167686 -0.058597382 0.0049315826 174.1875
0.73132908 -0.050271802 0.0069337012 176.36363
0.82598186 -0.056855485 0.017951217 182.88889
0.93106139 -0.046002429 0.018602706 186.71428
-0.74180001 0.032081127 0.0044591543 114
-0.661228 0.02998841 0.0055405563 119
-0.55063093 0.027188392 0.0055109276 132
-0.428334 0.02411852 0.0050596115 146.25
-0.33002687 0.021422502 0.010092363 145.66667
-0.25190961 0.064609289 0.012141529 139.89999
-0.182209 0.051538214 0.0098327063 142.3
0.68870938 0.041725103 0.0041364185 174.66667
0.74374384 0.040488333 0.0043564206 177.61539
0.83271688 0.049319141 0.017787948 183.06667
0.92778665 0.061108526 0.017166916 186.60001
-0.639768 0.15287623 0.0016651186 120
-0.52901477 0.1366078 0.0031298769 135
-0.41038537 0.11899815 0.0072447681 150
-0.30999121 0.14865887 0.0087615065 144
-0.2501128 0.16506836 0.010063315 141.125
-0.17278807 0.15503435 0.0067742891 146.39999
0.017236277 0.1435516 0.067104876 140.39999
-0.51053667 0.24770293 0.003293053 137
-0.41646674 0.22211939 0.0021805528 148
-0.38886565 0.21426952 0.0049780263 145
-0.1273852 0.28784737 0.0057487469 149
-0.096951224 0.27092373 0.0054134051 151
-0.79494804 0.32551211 0.0027705559 110
-0.21346943 0.33589461 0.0057025547 147
-0.1600765 0.33563867 0.0067652641 143.83333
-0.078930691 0.34032434 0.005184717 153
-0.32779926 0.40041891 0.0018439497 147
-0.16094369 0.40087518 0.0023673337 144
-0.064908899 0.46190891 0.0036722112 147.33333
0.031409714 0.43135774 0.0019783953 160.5
0.043691278 0.53944129 0.0021564609 150.5
-0.012942273 0.13926411 0.1797938 130.81818
0.012945272 0.13932498 0.10774059 123
