# .PCD v0.7 - Point Cloud Data file format
VERSION 0.7
FIELDS x y z intensity
SIZE 4 4 4 4
TYPE F F F F
COUNT 1 1 1 1
WIDTH 113
HEIGHT 1
VIEWPOINT 0 0 0 1 0 0 0
POINTS 113
DATA ascii
-2.8720524 2.3823671 0.36345059 10
-2.8349805 2.588021 0.28368798 9
-2.967319 1.8807275 0.69497317 13
-2.8702412 2.3109756 0.63261414 12
-2.8444984 2.3572283 1.0154797 15
-2.6079609 3.6489577 0.38295725 9
-2.7131541 3.0853684 0.5987705 11
-2.6900308 3.2420425 0.43618646 10
-2.7692323 2.8121159 0.67902899 12
-2.6091919 3.5490673 0.70999616 12
-2.6613443 3.4695857 0.92366588 13
-2.7394948 2.856245 1.0707004 15
-2.4973915 -2.1433687 0.31457728 10
-2.4212806 -1.6781909 0.20723677 9
-2.4162557 -0.60048318 0.30142099 11
-2.5731571 3.7232597 0.67967099 11
-2.4322004 4.3884583 0.82350266 12
-2.4101853 4.437849 0.80759853 11
-2.5354707 3.7730954 1.1456537 14
-2.4843643 4.366364 1.0615779 13
-2.4326754 4.4106236 1.5238401 15
-2.269222 -0.85153532 0.22234561 10
-2.2392712 -0.71201998 0.31059858 10.5
-2.2258704 -0.67915165 0.46093014 12.5
-2.4004121 -0.52781993 0.53945053 13
-2.3810363 4.4284101 0.58768892 10
-2.2675321 -0.70570385 0.69441575 15
-2.3715117 4.4575181 1.2889127 14
-2.0803514 -2.2502027 0.24286945 9
-2.061574 -2.2502458 0.56946617 12
-2.1944571 -0.7316947 0.581303 14
-1.895919 4.3128276 0.40202492 9
-1.8689781 4.3248348 0.49025193 10
-1.8780947 4.3183537 0.66078299 11
-1.6855323 -2.281302 0.50430501 12
-1.7232795 4.2746153 0.92649943 13
-1.368673 -2.3368523 0.70412576 14
-1.1449709 4.1613483 0.45996371 10
-1.0533655 4.1457558 1.036639 14
-0.99923491 4.1397395 0.84540403 13
-0.74273026 -2.4972632 0.76891047 15
-0.52937275 -2.5033615 0.24413018 10
-0.41201624 4.0238986 0.5105952 10
-0.26631543 4.0029511 0.9465189 14
-0.065413058 -2.6154778 0.28972057 10.5
-0.16004416 -2.5843501 0.48562053 12.5
-0.014690842 -2.5982957 0.69916075 15
0.011655675 -2.6421046 0.18560201 9
0.076177277 -3.3362343 0.80331314 14
0.20766623 1.1600337 -0.069778576 5
0.36062932 -3.440203 0.1280897 8
0.36538395 -3.4166131 0.49093398 11
0.57236385 -0.90167028 0.0021627322 7
0.55262202 -3.0205848 0.18944068 9
0.54803962 -3.4270093 0.99474716 15
0.65469033 -3.0825582 0.081869915 8
0.76667541 -1.6149417 0.28095847 12
0.77437335 -3.4736552 0.49961525 11.5
0.91566944 -1.4413545 0.31111428 12
0.82343411 -3.4729538 0.41053078 10
0.92389721 3.7459216 0.60432261 11
0.86281389 3.7624674 0.72834301 12
0.92005748 -3.4455981 0.96644217 15
0.89618969 3.7645826 0.91057664 13.5
0.91449213 3.7730947 1.2014651 15
1.1115777 -3.1414003 0.24004297 9.5
1.2884007 -3.5148656 0.45493525 11
1.3885338 -1.4601982 0.50762892 14
1.3996696 -1.5088556 0.30289873 11
1.5934691 -1.3827412 0.61233371 15
1.7006447 -1.4871145 0.34214872 11.5
1.6739728 6.4769959 0.82378787 10
2.1726742 -1.6123329 0.28427801 10
2.024317 -3.6096232 0.5664162 11
2.0171559 6.5343304 0.56215453 9
2.1984556 -1.5559409 0.61097252 14
2.0269296 -3.6199844 1.1336125 15
2.2454851 6.506772 1.5436291 13
2.650836 -3.8277307 1.2458234 15
2.7933691 6.4051318 1.7014836 14
3.3824849 6.2843285 1.5172462 13
3.2600312 6.2449236 2.1784523 15
3.4448953 6.2442675 0.91044414 11
3.4413586 6.2641778 1.7002047 14
4.0548182 -0.88010567 0.1616158 8
4.1748753 5.3888617 0.83585638 10
4.3215017 5.3552098 1.3800421 13
4.5109248 -0.34341815 0.070652612 7
4.4975662 -2.6061058 0.32329753 9
4.5861478 -2.2517087 0.97909403 13
4.7229276 -1.6315222 -0.089344613 7
4.6934419 -1.7145411 0.61377674 11
4.6570101 -2.2749901 1.1788003 14
4.7430925 -1.5340837 1.1467136 14
4.7869506 -1.6325219 1.3429286 15
4.6414175 3.7840171 1.3142909 13
4.8087416 -0.96368808 0.26444501 9
4.9077377 -0.33001328 0.34679887 9
4.8786645 -0.46945056 0.43697098 10
4.9004955 -0.37536579 0.69686997 11
4.948297 -0.61320454 0.95909274 12
4.8862867 -0.49590981 0.9880197 13
4.9693995 -0.075124867 0.87304473 12
4.9531617 -0.26072267 1.2003042 14
4.9742837 -0.050728034 1.046489 13
4.8619709 -1.1990651 1.3666402 15
4.9240661 -0.72995794 1.2839795 14
4.9870458 -0.11814592 1.387731 15
4.9619889 5.9572277 2.2056825 15
5.015182 5.8187971 1.9059461 14
7.672574 1.8861105 2.3238685 15
11.961316 1.482603 2.6527123 13
14.853248 1.3508044 1.274206 9
