# .PCD v0.7 - Point Cloud Data file format
VERSION 0.7
FIELDS x y z intensity
SIZE 4 4 4 4
TYPE F F F F
COUNT 1 1 1 1
WIDTH 114
HEIGHT 1
VIEWPOINT 0 0 0 1 0 0 0
POINTS 114
DATA ascii
-3.8355596 3.2095773 0.86350304 12
-3.7840695 3.7321763 0.93279797 12
-3.4833314 2.0693526 0.72151619 12
-3.3123069 5.5828815 1.5952101 14
-2.892998 5.7296867 1.0044333 12
-2.7081897 -4.6100316 0.17933875 8
-2.7822061 2.4533424 0.32346565 10
-2.2883208 5.8430953 1.0218017 12
-2.2659683 5.8449483 1.3043225 13
-2.3444927 5.8378572 1.4679611 14
-2.3443136 5.8445644 1.767998 15
-2.1894855 -4.5929031 0.744317 11
-1.6444143 6.1000042 1.5234996 14
-1.4590485 6.1486697 1.6903172 15
-0.85497391 -2.6514628 0.5673517 13
-0.53749603 6.4339609 1.4786954 13
-0.11125222 -3.9265206 0.078017652 8
-0.0099075371 -3.8894477 0.56906837 11
-0.042579468 -3.9322424 0.96854568 14
0.014604602 -3.890743 0.6215229 12
0.0090175103 5.8947845 0.66733456 10
0.0083967149 5.9176073 1.0499279 12
0.31463495 6.0268927 1.6473792 15
0.50171757 -3.7255344 0.47589001 11
0.44842631 -3.7387319 0.61584318 12
0.70314497 -3.6618679 0.20643948 9
0.61587423 -3.6888771 0.98715669 14
0.63318998 6.5158134 1.5034437 13
0.8674584 -3.624445 0.060385961 7
0.993343 -3.6459508 0.61100429 12
0.97017521 6.276485 1.5488503 14
1.0139936 -3.6425924 0.22070789 9
1.0481708 -3.62554 0.51929647 11
1.0031381 6.1849203 0.71487945 10
1.0085351 -3.6306663 1.1217778 15
1.3445102 -3.4710636 0.45724723 10
1.5025461 -3.4186842 0.55173039 11
1.3981316 -3.4817564 1.1405008 15
1.712369 6.6388249 1.1475263 12
1.9699777 -0.86708516 0.37832558 11.5
1.9182478 -3.2909641 0.56306899 11
1.9956481 -0.77817482 0.50476724 13
1.9674482 -3.2756934 0.75277168 13
2.1716814 -0.39749208 0.32818025 11
2.1389771 -0.25184587 0.34196332 11
2.027118 -0.80163658 0.56566203 14
2.1568263 -0.2488946 0.53558409 14
2.1158855 -0.80755341 0.69873846 15
2.0360277 7.0939975 0.78492868 10
2.0546582 7.0772338 1.5749191 13
2.1373703 6.5577703 1.6976473 14
2.2538843 -0.73127598 0.36576828 11
2.2026362 -0.5000155 0.2444206 10
2.2536824 -0.63042271 0.47630373 12.5
2.2634189 -0.58184993 0.60271323 14
2.2433434 -0.6085732 0.72217804 15
2.2524407 -0.13365364 0.62810075 15
2.4160717 -0.49682659 0.19840749 9
2.494633 -3.138433 0.337621 9.5
2.5037313 -3.1214271 0.69793302 12
2.7541151 -2.934751 0.30491513 9
2.7362654 -2.9243462 0.6072529 11
2.6503704 -2.9538968 0.81442612 13
2.6515672 -3.054986 1.2383301 15
2.7017126 7.0010381 1.3720707 12
2.8100026 -2.9257586 0.42238304 10
2.9636045 -2.7585738 0.75650972 12
2.9485793 7.1096406 0.83449131 10
2.8052359 -2.904753 1.0344181 14
2.839751 6.9481888 1.1643854 11
2.8305504 6.908761 1.7266902 13
3.1333389 5.7612071 1.0987661 12
3.0762069 6.0014787 1.3905164 13
3.0380671 7.4869061 2.2112095 15
3.3833377 -2.8280318 0.90602028 13
3.2192914 7.5220876 1.9683211 14
3.5494561 -2.7881291 0.67364419 11
3.5655003 5.8526678 0.74717301 10
3.5121126 -2.7729518 1.1345574 14
3.3839557 6.6947503 1.1898195 11
3.4002085 -2.8089283 1.2369393 15
3.4971151 5.4608803 1.8180178 15
3.687592 5.3992305 1.0314552 11
3.8446777 -2.5073476 0.92218745 13
3.8600621 4.549612 1.6657909 15
3.8472822 5.4535275 1.6964114 14
3.7765582 6.8514247 1.9540328 14
4.178956 4.2692294 0.66027474 10
4.1794639 4.2731714 1.0325142 12
4.0575371 4.836091 1.0315964 11
4.2363229 4.1947589 0.31421086 8
4.2592378 4.1773467 0.5399822 9
4.2590261 4.2293639 0.98054558 11
4.2164221 4.4222016 1.3311173 13
4.1855087 4.280304 1.5603433 14
4.7679305 3.2166207 0.31756902 8
4.7530565 2.9485939 0.45800239 9
4.6656332 3.6347046 0.48855641 9
4.5997286 3.9088604 0.75010848 10
4.6819835 3.3539588 0.92794734 11.5
4.5900283 3.9336128 1.0341228 12
4.7167692 3.1161246 1.3133043 13
4.993175 2.3254895 0.12926193 7
4.973114 2.522789 0.84830874 11
4.9058785 2.6754365 1.5937121 15
5.1406374 1.8202785 0.16969611 8
5.1444664 1.9317394 0.91576093 12
5.1413422 1.9899197 1.1323856 13
5.1263261 2.0732124 1.3328249 14
5.2821236 1.6241722 0.046310592 7
5.2143755 1.8316457 0.62310261 10
5.3706384 1.4041814 0.77788287 11
5.3276362 1.5711727 1.2824603 13
5.4446797 0.72689426 0.039029546 7
