# .PCD v0.7 - Point Cloud Data file format
VERSION 0.7
FIELDS x y z intensity
SIZE 4 4 4 4
TYPE F F F F
COUNT 1 1 1 1
WIDTH 527
HEIGHT 1
VIEWPOINT 0 0 0 1 0 0 0
POINTS 527
DATA ascii
-5.9167089 4.3700447 0.14352019 8
-5.9118953 4.6576757 0.097387202 8
-5.8930006 5.0307169 0.12115782 8.333333
-5.8150721 5.4409642 0.10619695 8
-5.6811028 5.8407378 0.13607973 8
-5.801898 7.4033208 0.14766543 8
-5.6757102 8.0398092 -0.030800868 8
-5.9100866 4.2880268 0.35112125 9.333333
-5.9114799 4.6534624 0.39541304 9.5
-5.8952799 5.0269709 0.47191894 9.666667
-5.8554311 5.3609753 0.33092305 9.333333
-5.7727308 5.7793579 0.31017074 9
-5.8547077 6.1287103 0.47482982 9
-5.7031012 8.2476072 0.43714282 9
-5.9225659 3.9666951 0.75091207 11
-5.9131494 4.2536817 0.89459515 11.4
-5.9038515 4.6609001 0.72817594 10.666667
-5.8888535 4.9837089 0.90444428 11
-5.8327346 5.4058704 0.77159345 10.5
-5.7211084 5.7346344 0.79261649 10.5
-5.8185062 6.4359803 0.68659484 10
-5.8023081 7.445147 0.61735094 10
-5.7906837 8.2235279 0.60855579 9.5
-5.9092445 4.2892227 1.29087 12.666667
-5.9067402 4.5884686 1.0525229 12
-5.889236 5.024364 1.0932838 12
-5.8243532 5.419292 1.2390577 12.5
-5.7597375 5.6950459 1.2046022 12
-5.8556566 6.1696792 1.1049304 11.333333
-5.8003812 7.37851 1.2546824 11.666667
-5.6767297 8.2586174 1.3103194 12
-5.9175053 3.9491429 1.6972119 14
-5.9077926 4.1785469 1.6987917 14.5
-5.895 4.5776272 1.6676255 14
-5.8888235 4.9263635 1.5731783 13.333333
-5.872385 5.2858334 1.6596994 13.5
-5.7728066 8.2262878 1.3696586 12
-5.6617947 10.705546 1.6432498 12
-5.6587486 11.655432 1.4149529 11
-5.6348977 12.309482 1.4777062 11
-5.9190483 3.9327228 1.8392754 15
-5.8975739 4.5846786 1.8532681 15
-5.8735747 5.0780511 1.8848968 14.666667
-5.8370075 5.390739 1.8970393 14.5
-5.773478 7.5049167 1.9117082 13
-5.6335106 11.62117 1.7929342 12
-5.8203321 6.8825531 2.2397997 15
-5.798028 7.4469447 2.1657586 14
-5.7674766 8.259985 2.524231 15
-5.6950803 10.483818 2.4414849 14
-5.6557813 12.309122 2.0854969 12
-5.669107 13.611884 2.0445018 12
-5.4981346 8.194416 -0.0059069311 8
-5.2875905 5.8553505 0.30645809 9
-5.2792568 6.3190885 0.34259111 9
-5.4885941 8.234046 0.32701427 8.5
-5.289855 4.9932551 0.93774915 11.5
-5.4162388 5.7583799 0.62103796 10
-5.5413985 8.2341537 0.7065829 10
-5.398807 5.7840877 1.2673445 12.5
-5.4018931 8.2840929 1.3218445 12
-5.3281398 8.4371328 1.1124986 11
-5.3419318 8.893096 1.1554892 11
-5.3276749 16.196093 1.0395572 9
-5.270452 5.1606765 1.641191 14.5
-5.4084997 8.32759 1.38344 12
-5.3683243 8.9208288 1.4564018 12
-5.5649967 12.923639 1.5382423 11
-5.3372855 9.0667744 1.9010215 13
-5.583272 13.76915 1.9423618 11
-5.5642819 14.291269 1.9976767 11
-5.546742 14.614426 2.0227294 11
-5.5822635 8.3377752 2.5138235 15
-5.4727163 8.5283461 2.5396402 15
-5.3617206 8.917964 2.148875 14
-5.562583 13.810364 2.0715687 12
-5.5417485 14.23207 2.1358316 12
-5.5135331 14.641868 2.1789119 12
-5.423604 14.929456 2.2388484 12
-5.5063791 15.559288 2.1122627 11
-5.386095 16.168808 2.179765 11
-5.4465384 8.6393299 2.5855465 15
-5.4652691 9.3584089 2.6802719 15
-5.4871197 10.446417 2.7249057 14
-5.4204717 11.84361 2.6858735 14
-5.452487 16.758335 2.4509976 12
-5.3291316 17.070854 2.5432148 12
-5.2925706 17.632421 2.5666552 12
-5.1848764 5.0981569 0.99550778 12
-4.9628339 5.7139049 0.99358475 12
-4.9806809 5.6940985 1.2083989 12.5
-5.1083703 16.21393 0.99653566 9
-4.9127216 16.449759 1.0732199 10
-5.0738268 5.1479135 1.775612 15
-4.9946589 5.3065057 1.6734871 14.333333
-4.8302517 5.778666 1.5765488 14
-5.0320368 5.2144876 1.8434306 15
-4.9615512 5.3885832 1.8724058 15
-5.0045471 16.275007 2.1802778 11
-4.8975768 9.062768 2.6473753 15
-5.0391846 13.390685 2.6415405 13
-5.1111803 17.814495 2.6577377 12
-4.6061153 5.7251153 0.43529588 9.666667
-4.770432 5.7126131 0.8611834 11
-4.6771774 5.7268867 1.2573696 12.666667
-4.7570529 16.434597 1.0372727 9
-4.5716457 5.7252197 1.8803594 15
-4.6760521 16.880714 2.2099037 11
-4.8078103 18.374594 2.750144 12
-4.5234394 18.270582 3.0673816 12
-4.2172947 6.6540322 0.10203298 8
-4.2239223 5.7471824 0.22304431 9
-4.2461963 6.7450495 0.4032883 9.5
-4.1264091 13.495359 0.2879684 8
-4.1983767 5.7662988 0.6396209 10
-4.1456923 6.6764412 0.65548229 10
-4.053628 10.685437 0.81047332 10
-4.0429239 5.7064133 1.3420432 13
-4.0772557 5.6623673 1.5279658 14
-4.3036275 5.6823502 1.8818138 15
-4.1097116 8.0439739 2.385221 15
-4.2355876 16.815407 2.1880412 11
-4.107307 18.299328 2.6726143 12
-4.3329239 11.490484 3.2244408 15
-4.3869457 12.097554 3.2237327 15
-4.1998081 12.68465 3.2162678 14
-3.8686016 6.7483187 0.15000865 8
-3.7717948 7.0036864 0.16105895 8
-3.9146085 6.7698317 0.41525644 9.5
-3.840169 7.0296068 0.40473965 9.5
-3.7103961 8.2460012 0.19217446 8
-3.9598334 8.6391344 0.32510251 9
-3.7616727 9.9345245 0.37058437 9
-3.7924609 5.7324357 0.78771126 11
-3.8732474 6.8109212 0.63278395 10
-3.8933187 7.0209894 0.69193518 10.5
-3.6775961 10.723172 0.8119849 10
-3.7413411 5.7086759 1.3401314 13
-3.8252532 5.7264619 1.5299312 14
-3.6740866 16.2479 1.8871907 11
-3.8769543 10.418536 2.3950272 14
-3.6895823 11.100735 2.2625048 13
-3.8182762 16.815554 2.1744151 11
-3.8890822 11.552338 3.2371521 15
-3.7269874 11.792309 3.2327304 15
-3.866312 12.679732 3.1915798 14
-3.5075922 2.3981586 0.27513361 10
-3.5153031 2.5016544 0.23070601 9
-3.2603223 6.5125699 0.19629495 9
-3.4325607 2.3897283 0.32990733 10
-3.4961474 2.4259188 0.41789004 11
-3.3529694 5.6355057 0.28963441 9
-3.3253198 6.4903612 0.41906902 9.5
-3.3530004 7.9115109 0.28577867 8.5
-3.3285158 8.5103846 0.70434833 10
-3.4907846 5.6585565 1.5069135 14
-3.5826719 10.367131 2.3820117 14
-3.3976254 11.098757 2.2675304 13
-3.5280824 12.035981 2.122014 13
-3.4797165 14.885795 2.3184757 12
-3.3999403 16.811823 2.1594083 11
-3.448801 13.345293 2.6623888 13
-3.4309371 11.536505 3.2331917 15
-3.465483 12.179243 3.094202 14.5
-3.6530724 13.371533 2.9549394 14
-3.4215765 18.30924 2.8055241 12
-3.0384316 -1.3317009 0.25620219 9.3999996
-3.1660552 -0.98570156 0.24365669 9.5
-3.1574483 -0.74235708 0.28719842 10
-3.0685799 1.7944368 0.21932065 9.5
-3.051791 2.0096629 0.17954478 9
-3.0113242 -1.3305659 0.60681331 12.444445
-3.1626947 -1.0066227 0.53278691 11.777778
-3.1525471 -0.69842356 0.49749243 12
-3.0651889 1.7966586 0.48842794 11.75
-3.056993 2.0365798 0.63757908 13
-2.9741347 6.899519 0.5784483 10
-3.105011 -1.2851772 0.88831341 14.75
-3.1610322 -1.0198474 0.87348634 14.6
-3.1630158 -0.72917324 0.84017348 14.5
-3.0640728 1.806522 0.85084015 14.5
-3.197258 5.606606 1.0334058 12
-2.9646826 5.6464624 0.72394013 11
-3.0280812 7.0563149 0.64440668 10
-2.958257 5.6156173 1.1471696 13
-3.1435204 5.724174 1.1040983 12.5
-3.2421627 8.3468781 2.4174037 15
-3.1860943 10.8169 2.4638891 14
-3.151087 11.229086 2.2952173 13
-3.105978 14.887687 2.336416 12
-3.054986 16.177498 2.1665809 11
-2.9946642 16.821819 2.1475716 11
-3.1129265 13.354954 2.6723971 13
-3.2094667 18.279167 2.6896567 12
-3.1044133 11.729801 3.2063699 15
-3.1562197 12.220469 3.1938937 15
-3.2489872 12.809844 3.1786335 14
-2.9418297 12.863308 3.1724651 14
-2.9829311 13.363919 2.9530938 14
-2.963707 18.23353 2.8170989 12
-2.5873096 -1.3940138 0.25691068 9.8571424
-2.5605042 -1.3849387 0.57063025 12.727273
-2.5766759 6.8815632 0.27712771 9
-2.5850017 -1.3792746 0.8461476 15
-2.6172497 7.4585652 0.64255226 10
-2.5838158 9.7052507 0.79465443 10
-2.6017888 5.6277924 1.0683306 13
-2.7366583 16.144703 1.07595 9.5
-2.4815605 37.783043 0.86609924 8
-2.6035588 16.915279 2.144953 11
-2.7749486 13.328004 2.676719 13
-2.7544177 18.213524 2.6911438 12
-2.6698632 11.762168 3.2073793 15
-2.5549076 12.262019 3.1817298 15
-2.6499729 12.992471 3.1827497 14
-2.5051451 13.285206 3.1929212 14
-2.525089 18.255911 2.8423002 12
-2.2108502 -1.410516 0.27012554 10
-2.2049918 -1.3989977 0.59561461 13.555555
-2.1861336 7.135169 0.5289982 10
-2.0899193 7.99196 0.34821606 9
-2.2784133 8.2169313 0.48528236 9
-2.0755348 11.163569 0.54253286 9
-2.3493133 5.7468519 1.0437107 13
-2.3613751 7.2912049 0.65227175 10
-2.0955813 13.328875 0.53965545 9
-2.371779 5.650692 1.0697447 13
-2.2531343 12.178002 0.96294689 10
-2.3076243 16.124538 1.0918884 9.5
-2.1174099 18.664745 1.1871018 9
-2.2724609 16.136702 1.6416354 11
-2.3040535 18.684778 1.3330679 10
-2.2064123 16.995913 2.140136 11
-2.2795997 13.313543 2.6896477 13
-2.2250185 11.712767 3.1922355 15
-2.2669196 12.31149 3.184866 15
-2.3347116 13.018378 3.1709156 14
-2.083286 18.19791 2.857394 12
-1.7764305 -1.4234493 0.30210763 10.8
-1.8153224 -1.4153206 0.5335598 13.5
-1.9133896 7.9710464 0.40404317 9
-1.7597295 8.0272598 0.452205 9
-1.9983395 9.9820547 0.479352 9
-1.8906131 8.2188187 0.75127846 10
-1.789533 8.4889965 0.77496576 10
-1.7686831 18.667004 1.121695 9
-1.7710459 18.65453 1.3933238 10
-1.8914666 16.146358 2.1480596 11
-1.8000773 16.954967 2.1251607 11
-1.7952572 13.303061 2.7027838 13
-2.0471635 13.217171 3.1982391 14
-1.9996561 13.315139 2.9466467 14
-1.6597898 18.267847 2.8891592 12
-1.3919735 -1.4337212 0.31697303 11.5
-1.4291509 -1.427843 0.48325154 13.714286
-1.4322742 11.591573 0.47682989 9
-1.2383884 18.635546 1.1938429 9
-1.4147359 18.641041 1.3792334 10
-1.3279831 18.641512 1.8965484 11
-1.4328811 8.9601879 2.5280905 15
-1.4527005 9.4065781 2.5167217 15
-1.4171876 17.145729 2.1342762 11
-1.4162552 10.193519 2.8254027 15
-1.4794946 13.326143 2.7188201 13
-1.3808959 11.719293 3.1929286 15
-1.3755574 12.349579 3.1725168 15
-1.4744748 13.213573 3.1648982 14
-1.0415044 -1.4445 0.34079021 12.2
-1.0466651 -1.4421785 0.47259292 14.2
-0.94402361 18.039598 1.0099813 9
-0.97407496 18.620943 1.4021724 10
-0.89027363 18.634251 1.9167159 11
-0.96359843 13.547778 2.5052466 13
-1.0150951 17.245161 2.1324599 11
-1.1534771 13.269247 2.7208951 13
-1.0268261 18.177668 2.72949 12
-1.095606 11.654853 3.1794348 15
-1.1603119 13.224847 3.1585968 14
-1.2209593 18.204973 2.9026999 12
-0.42948762 -0.55412793 0.00061871432 7
-0.5518102 -0.26652217 -0.0091690905 7
-0.56062144 0.24681048 -0.019212661 7
-0.5340811 0.69585764 -0.026045762 7
-0.44410211 0.92584032 -0.026943462 7
-0.59233916 -1.4637799 0.33486 12.714286
-0.62796509 -0.89033884 0.021056838 7.3333335
-0.55374873 -0.59621596 0.013504976 7.4000001
-0.5905748 -0.32926333 0.00012700283 7
-0.55321783 0.3339968 0.00087116606 7.5
-0.64105052 0.62448275 -0.015507546 7
-0.59543622 0.99279428 -0.025025206 7
-0.71577138 1.3317029 -0.036142722 7
-0.66846055 -1.4589798 0.46646649 14.666667
-0.64666897 18.313154 0.65702218 9
-0.79734337 18.612093 1.1953378 9
-0.65180486 18.634296 1.6133701 10
-0.63356423 13.423617 2.5066018 13
-0.60793972 17.300726 2.1272888 11
-0.84072828 13.290241 2.7376704 13
-0.67800844 11.634188 3.1777768 15
-0.63725555 12.350987 3.162251 15
-0.69562995 13.23688 3.1525536 14
-0.46109563 13.290081 3.1525984 14
-0.79328203 18.196514 2.924577 12
-0.27451274 -0.56247377 0.00069174811 7
-0.14481317 0.63633567 -0.024016479 6.75
-0.33640066 0.87697065 -0.030401584 7
-0.21657249 -1.4745265 0.32943332 12.714286
-0.31920406 -0.50213552 0.010681858 7.5
-0.20801988 -1.4742259 0.43296725 15
-0.039454084 6.6387396 0.56733149 10
-0.068033248 6.7028852 0.76684552 11
-0.097826026 6.7254252 1.2576729 13
0.20736504 -1.4912394 0.33822763 12.714286
0.19183968 -1.4885819 0.46118006 15
0.13804942 6.6942225 0.56859767 10
0.20095843 6.6913619 0.91638476 11.5
0.18226621 6.6965103 1.302981 13
0.17211309 6.704474 1.7104152 14.666667
0.17668013 6.7092323 1.8882461 15
0.74498117 -0.45864606 0.0062155304 6.5
0.62234163 -0.14041679 -0.025524328 5.1666665
0.65396291 0.10192944 -0.036056127 4.875
0.55469936 -1.3754733 0.37423894 13.363636
0.52051258 -1.166995 0.34196261 13.666667
0.68885726 -1.3800112 0.46438757 14.666667
0.47240421 6.7074742 0.60759383 10
0.6071676 6.7264099 0.8118794 10.8
0.57391411 6.7181849 1.267053 12.6
0.53591144 6.7202244 1.5014659 14
0.53386456 6.737854 1.8950299 15
1.1003656 -0.94152492 0.016808791 7
0.96532446 -0.61663944 0.0082597574 6.6666665
0.96830744 -0.2026892 0.0044960375 6.8000002
0.99125308 0.18801527 -0.011100841 6.1999998
0.97568023 0.47620088 -0.029071702 6
0.96740299 -1.3816336 0.37763685 12.625
0.91358441 -1.1938767 0.31359997 12
0.99270511 -1.4223272 0.48165789 14.125
1.0108286 6.7353315 0.53976023 9.5
0.97417867 6.7378559 0.88713217 11.2
0.99812245 6.7384005 1.2563654 12.5
0.9475944 6.7545943 1.6693987 14.5
0.97326791 6.751802 1.9043103 15
1.3371677 -1.2546393 0.021807928 7
1.2557188 -1.0117637 0.021358827 7
1.3795483 -0.13143238 0.0029482113 6.75
1.4263457 0.31043777 -0.017254246 6.3333335
1.3905214 0.61787295 -0.018430417 6.5
1.4781888 0.88520598 -0.018899608 7
1.5716774 -1.650169 0.23464245 9
1.4153738 -1.3876247 0.25231242 10
1.4388572 -0.87925118 0.2274449 10
1.4754528 -0.62998998 0.29766813 11.545455
1.3673954 -1.3568408 0.53635573 14
1.4675215 -0.82985681 0.4980835 14.5
1.4915831 -0.58132112 0.47313744 14.5
1.358325 6.7226 0.59197974 9.666667
1.365169 6.7222915 0.91728264 11.333333
1.3655292 6.7232332 1.2788706 12.5
1.3654815 6.7448277 1.677145 14.5
1.3362445 6.7429647 1.9089063 15
1.8270729 -0.24822408 0.010621622 7
1.7894787 0.58827531 -0.011411214 7
1.7292469 0.91605818 -0.020058788 6.6666665
1.9622569 1.2684366 -0.059470896 6
1.895926 -1.4186592 0.31836087 10
1.7351241 -1.1354877 0.35584298 11
1.7211435 -0.50343955 0.27888808 10.666667
1.8069224 -0.34559759 0.32486388 11.4
1.8512003 -1.4384807 0.60083359 13.416667
1.73803 -1.1269755 0.60318041 14.25
1.7821755 -0.49782899 0.54548985 14.666667
1.7800016 -0.33797434 0.49145561 14
1.9830762 2.7347503 0.56539547 12
1.975233 2.8224151 0.5284071 11.5
1.9670169 3.4452045 0.56680679 11
1.991508 3.6268764 0.37154713 10
1.989686 4.2489324 0.47181222 10
1.7621998 6.7064037 0.58399481 9.666667
1.8270656 6.7088146 0.92351353 11.4
1.7992795 6.7104063 1.2757834 12.5
1.7636722 6.7191038 1.6515046 14
1.7856455 6.7259922 1.9184963 15
2.2372115 0.29426232 -0.0056908261 6.3333335
2.1073072 0.63862419 -0.018370446 6.3333335
2.233505 1.1417705 -0.063013643 6
2.2733221 1.5163648 -0.077527583 6
2.2414267 -0.29101822 0.3181228 10.75
2.161124 0.18698935 0.28080979 10
2.2270026 0.45055726 0.35380059 11
2.0771155 -0.50911587 0.5999226 14
2.0867622 -0.17874193 0.47929654 13
2.0685337 0.3577199 0.63892543 15
2.0140991 2.6055372 0.5367586 11.5
2.0408437 2.9189355 0.49463725 11
2.0192947 3.4159331 0.44011712 10
1.9989079 3.7569232 0.51656485 11
1.9952403 4.3512468 0.38477722 10
2.0344589 4.6478295 0.48392475 10
2.1726062 6.6944475 0.54174882 9.5
2.2076042 6.6938577 0.94715482 11
2.1599605 6.7001925 1.3038231 12.5
2.2279525 6.7183924 1.7843159 14.333333
2.1610601 6.7034941 1.9267042 15
2.6258497 1.0310708 -0.068052195 6
2.7191062 1.8718433 -0.10251668 6
2.7403207 -0.42191783 0.23794302 8.5
2.5143046 -0.2462185 0.30631527 9.75
2.6069603 2.4722843 0.57808679 12
2.542712 6.6187024 0.56447393 9.6000004
2.5292919 6.6898041 1.0326741 11.333333
2.6047859 6.6822805 1.317634 12.5
2.592418 6.6977954 1.7430099 14
2.5963135 6.6969819 1.9443901 15
2.8720527 1.5333856 -0.093084134 6
3.1842914 2.2551725 -0.069273621 6
3.1720948 -0.14250521 0.096539691 7
3.1867156 0.55449903 0.12930892 7.5
3.1814325 0.91751713 0.12532742 7.5
3.1957352 1.3103677 0.07194113 7
2.8853233 4.3310828 0.33231574 9
2.8905578 4.2637787 0.43113759 10
2.9728634 4.6417842 0.44180277 9.5
3.0311882 4.9726248 0.45127538 9
2.9693804 6.6656485 0.99447191 11.4
2.955302 6.6687188 1.3524821 12.666667
2.9667509 6.6857352 1.7696823 14
2.9760175 6.6802835 2.0201991 15
3.2135248 -0.141011 -0.03008257 6
3.215076 0.55349267 -0.029063532 6
3.2120094 0.91488022 -0.037279207 6
3.2174814 1.3047694 -0.063915111 6
3.2422168 1.7652342 -0.079968542 6
3.2424526 2.31671 9.6880067e-05 7
3.2679017 -0.4115372 0.25917923 8.5
3.2859185 -0.2052539 0.27589232 9
3.3151872 0.22034763 0.27804884 9
3.3337445 0.61526203 0.28198785 9.1428576
3.3492882 0.97868782 0.30082113 9.3999996
3.3682249 1.4122773 0.28876823 9
3.3447816 1.7703307 0.2913934 8.8888893
3.3721211 2.0833309 0.26967344 8.5
3.300029 -0.50044316 0.66964048 12.2
3.337712 -0.19110818 0.68053114 12.222222
3.3449235 0.18640672 0.64470834 12
3.3304913 0.64839959 0.56402004 11.2
3.3730922 0.96558177 0.60533535 11.333333
3.3708408 1.42609 0.64954644 11.9
3.3584673 1.8264706 0.59121412 11.375
3.379092 2.1254327 0.60874724 11.25
3.2014585 6.2314043 0.49053365 9
3.3274689 6.6546268 0.68550986 10
3.4375398 1.1815917 0.964068 14
3.3623044 1.4331334 0.95091921 13.888889
3.3504598 1.7967945 1.0053656 14
3.3706818 2.0992241 1.0272807 14
3.3706596 6.6539984 0.9452492 10.666667
3.4225366 6.6449146 1.2505298 12
3.3396208 6.6607418 1.6686429 13.5
3.358645 6.6698384 2.0723996 15
3.9488146 2.8029552 0.2063911 8
3.8327129 2.8199103 0.12298261 7.5
3.8583255 3.2696111 0.23175213 8
3.8658292 -0.41004723 0.85511321 13
3.8535416 -0.33948284 0.84295094 13
3.686785 0.21670504 0.82651842 13
3.6895883 0.60103428 0.81797147 13
3.9228632 0.86534238 0.82265389 12
3.864814 -0.80688518 1.2199718 15
3.8692594 -0.5280838 1.1634418 14.666667
3.8846161 -0.21112177 1.0936096 14.25
3.8967946 0.26247278 1.0301673 14
3.9069042 0.61141372 1.0582573 14
3.8553255 1.0446569 1.0412261 14
3.8469825 3.0330458 1.0889065 13
3.742357 6.6357446 0.91897088 10.5
3.830265 6.6323996 1.3252538 12
3.7213011 6.6444693 1.6899093 13.5
3.7550755 6.6531892 2.1496854 15
4.0677681 2.7549186 0.26597565 8.5
4.1023436 3.030129 0.28010291 8.666667
4.0959425 3.3409719 0.29230842 8.666667
4.0928359 3.8493755 0.31562173 8.666667
4.0797305 4.236659 0.2925131 8.333333
4.0822334 4.5929289 0.31948304 8.5
4.1426435 5.0510712 0.26801768 8
4.0535102 2.8090158 0.78290135 11
4.0931931 3.0187817 0.67762059 10.4
4.0850163 3.4441721 0.63234502 10.25
4.0923176 3.7876396 0.61284745 10.4
4.0855904 4.2415729 0.60760498 10.25
4.0739279 4.652153 0.58772308 10
4.1296659 4.9766951 0.40651044 9
4.1310334 5.3929515 0.45479211 9
4.0724635 2.7988577 1.0370516 12.5
4.092958 3.0360029 0.9997496 12.2
4.0861869 3.4137964 1.0045934 12.166667
4.0796838 3.8111115 1.0363197 12
4.0706563 4.2429061 1.0017985 11.75
4.1025381 4.7610064 0.94459504 11.5
4.1216383 5.0156808 0.89663124 11
4.1126533 5.3924789 0.96460062 11.5
4.168457 6.5984182 0.95456237 10.666667
4.0631413 2.7852786 1.3343301 14.5
4.07547 3.0408158 1.3936975 14.6
4.0829372 3.4295621 1.4616151 14.4
4.0726795 3.7928257 1.4345711 14
4.0884075 4.1825299 1.3930817 13.5
4.1064506 4.6963391 1.3965181 13.5
4.1185613 5.0748053 1.3448517 12.8
4.118434 5.4006572 1.3400046 12.5
4.2221417 6.6002383 1.3357081 12
4.0762806 3.8638551 1.6312125 15
4.081243 4.1409926 1.688568 15
4.1176724 4.6912575 1.7194045 14.5
4.1186466 5.0359139 1.7898208 14.5
4.1249743 5.4154358 1.8683934 14.5
4.2438002 5.881557 1.8780954 14
4.3079953 6.103548 1.8112873 14
4.1230888 6.6184325 1.7124299 13.5
4.2129259 6.6043959 2.0924466 14.666667
4.7595253 6.9104319 0.27566499 8
4.6335659 6.762403 1.4456432 12
4.587388 6.6990323 2.069711 14
4.8003869 6.9097877 0.45125189 9
9.8153677 -1.4613544 1.746662 11
