# .PCD v0.7 - Point Cloud Data file format
VERSION 0.7
FIELDS x y z intensity
SIZE 4 4 4 4
TYPE F F F F
COUNT 1 1 1 1
WIDTH 108
HEIGHT 1
VIEWPOINT 0 0 0 1 0 0 0
POINTS 108
DATA ascii
-4.5537772 2.8725021 0.50926024 9
-4.4654279 4.6565018 0.49973106 8
-4.4785123 2.4049747 0.6945768 10
-4.5428562 3.463433 0.77088493 10
-4.4584866 2.6241696 0.89827389 11
-4.4502516 4.6705594 0.85093182 10
-4.4803753 2.5149844 1.0351987 12
-4.541707 3.5065565 1.0898416 11.5
-4.4884963 5.7719102 1.1479481 11
-4.4733257 2.6630869 1.2353662 13
-4.5150824 4.7140141 1.2087443 11
-4.5140872 4.8544345 1.2971917 12
-4.548202 2.8435099 1.6016437 14
-4.5104289 3.3642716 1.5264295 14
-4.5098171 4.4758801 1.5547197 13
-4.4894409 6.1101604 1.4919199 12
-4.4873285 6.3934045 1.9078217 13
-4.3461866 6.4493909 2.220696 14
-4.1037097 2.2915962 0.23246999 7
-4.1116753 5.005147 0.26559126 7
-4.104589 4.9680524 0.40615734 8
-3.4086468 -3.4053614 0.23402844 8
-3.3737388 -3.0531564 0.30367762 9
-3.3829517 -1.5257832 0.96026963 14
-3.2493656 6.3796039 1.8248833 13
-3.0515749 -3.6548204 0.19870915 8
-3.0135348 6.3817453 1.498662 12
-3.0362072 6.4124918 2.1540699 14
-2.9184892 -3.6536787 0.3649677 9
-2.9322515 -3.6417248 0.83377856 12
-2.6443303 -3.0060322 1.125827 15
-2.2338355 6.3044782 0.86340749 10
-2.2416224 6.3041549 1.2753361 11
-2.2685213 6.3112164 1.4756373 12
-2.2554598 6.3276668 1.6065412 13
-2.1264954 -3.6595383 0.34870812 9
-2.1403487 4.2445831 0.3631371 8
-1.91117 -3.6449006 0.9879387 14
-1.6662803 -3.6685073 0.75832438 12
-1.4021856 -3.6581573 0.9487865 14
-1.433831 6.3604193 0.9110018 11
-1.4975313 6.3618646 1.4918886 13.5
-1.1504428 -3.6705587 0.44251993 10
-1.0327811 6.3730536 1.0160468 12
-0.90641731 -3.6676412 0.49410442 11
-0.08274392 5.6881919 0.60859215 10
-0.064095266 5.6892023 0.8967756 11.5
-0.086444683 5.6925769 1.1903033 13
-0.059355799 5.6883588 1.3589967 14
0.0076005463 -1.0662929 0.079764463 9
0.23862819 -1.0728139 0.28768766 14
0.51016504 -1.0778208 0.10777155 9.5
0.52928096 5.6886234 0.65664864 10
0.42841053 5.6523547 0.88198334 11
0.529733 5.6889477 1.5309762 15
0.6977939 -1.0306345 0.18290408 11
0.76145309 -0.78902495 0.32359013 15
0.70161515 5.9744196 1.5028563 14
0.89439929 5.6799879 0.87951446 11.5
1.167603 5.8684864 1.4052116 14
1.2394892 -0.78269964 0.39761367 15
1.4444306 -0.80439383 0.2689769 12
1.539789 -0.78930193 0.32782057 12.666667
1.6208258 4.4617639 0.014583408 7
1.635546 -0.78730476 0.50360417 15
1.7042 6.1494489 0.82235825 11
1.6972814 6.2443142 1.0463308 12
1.7528785 5.6748147 1.8015494 15
1.9174036 -0.79649019 0.22131695 10
1.9995135 -0.7932902 0.43720728 13
2.1004524 -0.79501098 0.31808817 11
2.3053818 -0.8130784 0.16772942 9
2.5956414 4.5388479 0.54906762 10
2.5708361 4.3427849 0.78832889 11
2.6467929 3.8523819 0.36150324 9
2.8216925 -0.79708487 0.77975905 15
2.9088063 6.2323971 1.0855113 11.5
3.0197179 5.8285732 1.598794 14
3.2438965 2.859154 0.12547262 8
3.3459866 3.8686934 0.74583125 11
3.2721074 4.4213371 1.366502 14
3.3596604 5.4574571 1.2275023 12
3.298723 5.5443048 1.4092413 13
3.5793731 -0.81927782 0.14712957 8
3.5554256 -0.81462067 0.25044361 9
3.4101629 2.8414283 0.36909679 9
3.4742482 2.8101921 0.51134461 10
3.5060563 3.4086411 0.5603283 10
3.4152961 2.882607 0.65407377 11
3.4291651 3.4885247 0.82483763 12
3.4175489 2.8281333 1.1057999 14
3.4066536 2.8744192 1.3400325 15
3.6303036 -0.77916408 0.040134192 7
3.6715963 1.2780503 0.11192662 8
3.6224463 -0.7727381 0.32092768 10
3.6814594 1.9084274 0.2886641 9
3.6992326 2.6120746 0.34228367 9
3.6235077 -0.67629892 0.50681025 11
3.7043118 2.5689528 0.4660081 10
3.6301312 -0.7692517 0.68042666 12.5
3.6568935 1.4137971 0.78200686 13
3.698426 2.564059 0.68197888 11
3.6127284 -0.78504872 0.85731733 14
3.6296661 -0.4465394 0.97367287 15
3.6818144 1.9119174 0.97804052 14
3.7019937 2.69098 0.90326422 12.5
3.6644819 0.25162664 1.1061944 15
3.6601398 1.2744156 1.1610441 15
