# .PCD v0.7 - Point Cloud Data file format
VERSION 0.7
FIELDS x y z intensity
SIZE 4 4 4 4
TYPE F F F F
COUNT 1 1 1 1
WIDTH 176
HEIGHT 1
VIEWPOINT 0 0 0 1 0 0 0
POINTS 176
DATA ascii
0.28549999 -0.01144533 -0.10068277 172.8
0.28594226 0.0044066068 -0.09772823 170
0.5340631 0.076725453 -0.093854912 167.60001
0.4930203 0.17630252 -0.097333267 168.66667
0.52221525 0.13234681 -0.095277756 167
0.4834789 0.198844 -0.097035222 170
-0.073237069 -0.95440859 0.0023842915 125.33334
0.082934551 -0.93873787 -0.013050703 123
0.21677074 -0.94874817 -0.020639468 126
0.34969872 -0.90792674 -0.031965997 133
-0.16029921 -0.83417529 0.00088382367 132
-0.028314639 -0.86277217 -0.0029543096 128.5
0.11657581 -0.83096874 -0.0090799006 127.33334
0.23634209 -0.83950192 -0.020483993 137.39999
0.35175562 -0.8286348 -0.026139684 143.75
-0.13827083 -0.79891902 0.0041418732 132
-0.085870557 -0.71821028 0.0038104418 141.5
0.025084881 -0.74986589 -0.0018636758 138.2
0.14056766 -0.75899637 -0.012381802 139
0.25619277 -0.72723746 -0.019255305 147
0.3564578 -0.73580021 -0.028256705 158
-0.029946435 -0.63366956 -0.00061345514 142.60001
0.071425319 -0.65474516 -0.0062253964 148.83333
0.16985701 -0.6698997 -0.014821391 152.66667
0.27153361 -0.6464504 -0.022436565 166
0.36065897 -0.66130227 -0.031568162 169
-0.10818921 -0.5748446 0.0043100328 145
-0.098687954 -0.56575632 -0.0028483288 144
0.038191099 -0.52876139 -0.001074334 154
0.1389897 -0.56292999 -0.010373245 165.58333
0.25434303 -0.55392313 -0.022127889 175.42857
0.36434013 -0.56078899 -0.028150002 176.77777
-0.010175809 -0.45960456 0.0030005947 152.66667
0.058648199 -0.43210426 -0.013540681 173.25
0.15376435 -0.44793019 -0.03563235 178.27272
0.24536856 -0.4667241 -0.03580416 179
0.34391692 -0.45627218 -0.041070513 175.41667
-0.028667364 -0.33950916 -0.017504031 170.61539
0.051771168 -0.34787861 -0.031026252 176.16667
0.15294504 -0.32878548 -0.031736825 172.72
0.25559825 -0.34013245 -0.032595251 163.09677
0.35002527 -0.34287769 -0.030940145 154.19231
-0.021723529 -0.28287113 -0.017700136 175
0.055153571 -0.26347977 -0.026210088 174
0.15363526 -0.26378855 -0.037872463 163.26315
0.24852891 -0.26564297 -0.035006486 146.95653
0.3478162 -0.26498556 -0.03690774 151.14285
-0.13429633 -0.15220219 -0.014479467 162.16667
-0.047092479 -0.13676779 -0.025598519 172.52942
0.053259175 -0.12914714 -0.052944951 163.4375
0.15597051 -0.12576766 -0.034154497 150.83333
0.25456211 -0.12652873 -0.043894555 154.56863
0.33736214 -0.1148297 -0.050321639 154.43243
0.99467325 -0.10227862 -0.034756802 187
-0.14822026 -0.058194343 -0.012612182 159.125
-0.044989619 -0.058038335 -0.042081039 171.35715
0.052144904 -0.058405876 -0.046232294 160.65517
0.15676607 -0.052788056 -0.034972139 151.56339
0.2545273 -0.053340741 -0.057447068 160.25984
0.36301219 -0.038076729 -0.059721038 163.18405
0.44827521 -0.0060036401 -0.046714555 162.70454
0.5561499 -0.015296726 -0.06519258 165.75
0.64323157 -0.025739331 -0.039352573 171.97223
0.7583856 -0.038986787 -0.028546995 180.25
0.85646296 -0.052675657 -0.01798901 185
0.94439644 -0.048949946 -0.024397051 188.66667
-0.14667378 0.041058265 -0.015204584 159.66667
-0.0541729 0.03025333 -0.033975072 171.68571
0.037196077 0.012680938 -0.045488268 154.66667
0.15266177 0.020304464 -0.034562305 150.63266
0.24887305 0.01427419 -0.06369824 162.17308
0.36106497 0.0041369325 -0.060447268 160.8
0.43538588 0.034902357 -0.056593426 164.29492
0.55424738 0.04998127 -0.077304058 166.92105
0.63656592 0.050297271 -0.046521738 172.15384
0.7559126 0.05110725 -0.036082219 180.03847
0.85836643 0.062727548 -0.029324112 184
0.94960713 0.042642586 -0.033693753 186.66667
0.44618905 0.13776115 -0.071627453 166.33803
0.55201107 0.14883757 -0.074314088 170.12329
0.64142132 0.14755343 -0.047021717 174.88571
0.74293071 0.14523529 -0.039710589 180.71428
0.86059624 0.14804944 -0.034902446 186
0.94884926 0.14019619 -0.045824029 186.2
0.45906708 0.25052029 -0.069267504 170.19698
0.54442167 0.23719728 -0.049045436 173.76744
0.65849459 0.25425637 -0.049376082 179.65384
0.73490679 0.23737568 -0.03516018 183.92857
0.83914614 0.24166876 -0.038461238 186.5
0.9505831 0.26304924 -0.059067357 189.5
0.44388747 0.34048212 -0.038074609 176.58333
0.55861545 0.35584342 -0.046142481 179.41667
0.64365637 0.33688018 -0.039270319 182.8
0.75673687 0.34822327 -0.04329402 187.27272
0.84689444 0.35620734 -0.052120354 188.60001
0.91981864 0.33183277 -0.06389612 191
0.46348763 0.44497803 -0.036403805 181.23077
0.55202401 0.43107331 -0.030288015 183.2
0.65172517 0.44663969 -0.037478801 186.45454
0.74004304 0.4439024 -0.040576901 189.33333
0.85651141 0.45889169 -0.060197696 192.85715
0.90486979 0.42200425 -0.056270741 193
0.44091123 0.55300188 -0.026204659 187.25
0.54818678 0.54258072 -0.031539027 188.42857
0.66238517 0.54735124 -0.041678343 190.75
0.76997083 0.54946828 -0.059643224 192.8
0.80195612 0.56683964 -0.052406929 197
0.44841707 0.63187319 -0.026779264 189.66667
0.54854834 0.67506665 -0.04244693 189.2
0.63794249 0.64882058 -0.046681706 190.60001
0.72481763 0.61609674 -0.050284881 193.75
0.46032423 0.73106754 -0.036975902 191
0.56525499 0.74930364 -0.040946044 184.33333
0.66591281 0.72103214 -0.049901783 186.5
0.47075337 0.83454239 -0.039775867 185.66667
0.58054066 0.80802774 -0.047780365 180
-0.40156329 -0.91437864 0.026565958 124
-0.23323038 -0.94199866 0.012867086 127.5
-0.34498522 -0.84987402 0.019009374 127.25
-0.20412864 -0.89813745 0.010228804 131
-0.1733948 -0.85056561 0.010637113 131.5
-0.26138619 -0.75326598 0.012190743 136.25
-0.10979062 -0.75147808 0.013109245 136
-0.094948493 -0.72858298 0.013102951 138
-0.20097768 -0.6802572 0.018038934 141
-0.17345938 -0.65045756 0.0090325093 142
-0.041737404 -0.64803016 0.0091771055 143.5
-0.61575615 -0.51927221 0.041722845 119
-0.5977146 -0.51052707 0.035414971 121
-0.22003318 -0.53628224 0.037781257 142.60001
-0.16444448 -0.53604817 0.015001785 143
-0.066240549 -0.52381331 0.0094968108 144
0.030440183 -0.53709704 0.008161949 150.5
-0.53726614 -0.47898713 0.032245565 128
-0.43432203 -0.4251647 0.027667023 141.60001
-0.12705809 -0.45175743 0.037829772 144
-0.05917101 -0.45124105 0.013687693 145.875
0.012721913 -0.4306778 0.0094687724 158
-0.63218844 -0.37860602 0.036677361 124
-0.57493496 -0.3572616 0.032329373 127.66666
-0.46974227 -0.31775549 0.027700208 141.39999
-0.33319446 -0.37177661 0.027253848 151.5
-0.25662258 -0.33049241 0.033844844 149.66667
-0.040290799 -0.37850586 0.012950998 155.33333
-0.37043157 -0.28064534 0.020979501 155.2
-0.25287014 -0.23551941 0.02727307 147.57143
-0.17744488 -0.22211553 0.033926912 142.2
-0.031102939 -0.27860013 0.045847546 150.85715
0.089674011 -0.20061545 0.0086022485 165
0.26493689 -0.20054896 0.016164437 138.5
0.34395766 -0.20128107 0.010626835 142
-0.64127839 -0.11507279 0.027697416 124
-0.54635483 -0.10405659 0.027360361 136.75
-0.41446465 -0.18801682 0.055445053 150.77777
-0.36365715 -0.17682531 0.029899901 144
-0.2523036 -0.14976178 0.028940665 146.625
-0.16090679 -0.15864304 0.01458492 148.92857
0.15901235 -0.1323165 0.086246446 131.60001
0.26100728 -0.13713162 0.072897747 123.16666
0.32904568 -0.13044088 0.076614507 124.83334
-0.44233951 -0.092020757 0.022867739 148.60001
-0.34472108 -0.080646887 0.02547455 153
-0.24747945 -0.069325127 0.026824698 146.875
-0.17912665 -0.061493024 0.015420322 145.83333
-0.64480293 0.012013793 0.020648301 125.33334
-0.53689939 0.011102665 0.020236833 139.5
-0.43976611 0.010414676 0.014869931 149.60001
-0.33729455 0.0094039198 0.02088481 153
-0.23251891 0.043132279 0.047189586 153.9375
-0.18162704 0.04759071 0.023103079 148.83333
0.083149686 0.040473606 0.040314294 130.8
0.10615425 0.03847694 0.021888662 132.33333
0.033366248 -0.27153367 0.19052514 146
-0.40978727 -0.18471456 0.1023725 129
0.11611784 -0.12193736 0.12761146 124.44444
-0.2515423 0.079314455 0.11963703 155.10001
