# .PCD v0.7 - Point Cloud Data file format
VERSION 0.7
FIELDS x y z intensity
SIZE 4 4 4 4
TYPE F F F F
COUNT 1 1 1 1
WIDTH 593
HEIGHT 1
VIEWPOINT 0 0 0 1 0 0 0
POINTS 593
DATA ascii
-9.8218956 11.053428 3.0936928 14
-9.9595461 12.293239 3.3450184 14
-9.4035597 10.227336 2.5130792 13
-9.3195181 10.034678 2.86764 14
-9.6015882 12.432563 3.3541765 14
-9.1944408 10.432296 0.64549553 9
-8.9450846 10.190439 1.6438527 11
-8.8665915 13.149303 1.7526727 11
-9.1899405 12.703234 2.9641016 13
-9.2166328 14.071217 3.2222691 13
-8.8091288 13.178773 1.9067721 11
-8.6474752 13.233308 1.8701657 11
-8.7189608 8.9850597 2.6307833 14
-8.4466877 10.068517 2.9462495 14
-8.7725992 14.122808 3.2252557 13
-8.2331219 13.424918 1.8573194 11
-8.3841972 8.2246275 2.8085594 14
-8.2770405 9.6717405 2.7778032 14
-8.3034277 10.383704 3.0002873 14
-7.6904621 7.5642352 1.3069469 11
-7.6753449 6.6629767 1.5172888 12
-7.7354226 7.0050516 1.4702764 12
-7.6724682 6.648304 1.8256159 13
-7.8869839 13.573664 1.8859267 11
-7.7533131 13.498675 2.2964692 12
-7.937593 13.506464 3.0951324 13
-7.5682368 7.3112345 1.0468216 10
-7.3749833 13.804841 1.9263314 11
-7.5446491 13.568467 3.1034405 13
-6.8381019 16.812691 0.9927246 9
-7.131897 13.917369 1.9261123 11
-7.0688534 16.815847 2.3012187 11
-7.0492306 16.557137 3.2209599 13
-6.5776668 5.164681 0.12096554 8
-6.4428773 5.4632864 0.14260978 8
-6.5384779 6.3891678 0.20226263 8
-6.4671254 4.7205329 0.4390938 9
-6.7214384 5.1574016 0.28655171 9
-6.4738193 5.3471093 0.31649971 9
-6.5694175 6.3366361 0.43796283 9
-6.4309239 15.986812 0.18053971 8
-6.5964103 5.0209436 0.79434657 10.5
-6.5805264 5.382205 0.90136969 10.5
-6.5807428 6.2579355 0.75664216 10
-6.4758687 4.6110005 1.26404 12.5
-6.5495329 5.3712535 1.1577506 11.75
-6.4820905 5.8997846 1.0701648 11
-6.7105026 6.3397694 1.1648968 11
-6.5718637 17.113245 1.0487157 9
-6.643074 5.138453 1.529856 13
-6.5694866 8.6948442 2.5522566 14
-6.5095277 16.295635 2.272625 11
-6.6091671 9.3997316 2.9125898 15
-6.5306926 10.226757 3.0870521 15
-6.604197 11.119521 3.0498731 14
-6.7032661 16.29632 3.6408269 13
-6.2576766 5.5304618 0.073572606 8
-6.2814488 5.5461197 0.42150402 9
-6.1444993 16.213749 0.34399903 8
-6.3638968 4.6135945 0.81494045 10.5
-6.3011785 5.484376 0.70467538 10
-6.228322 5.6770682 0.71896112 10
-6.4063554 5.5289302 1.0770568 11
-6.1148615 17.324638 1.0578642 9
-6.0315781 4.1155796 1.7191896 14.5
-6.1556983 17.121624 1.4640446 10
-6.3924537 5.7394967 1.9923013 14
-6.2475219 16.216555 2.2723439 11
-6.4266744 16.985909 2.7219357 12
-6.3768201 11.23467 3.0622559 14
-6.182076 11.315333 3.081383 14
-6.2030773 15.641823 3.0743484 13
-5.6854372 16.315693 0.3467184 8
-5.9733872 17.343437 0.97072285 9
-5.8374405 3.610512 1.6992555 15
-6.0033512 3.8993471 1.7603498 15
-5.9073281 8.1614571 2.3835762 14
-5.8538647 16.046238 2.2617378 11
-5.6909819 16.195921 2.6053336 12
-5.7624087 11.501426 3.1097748 14
-5.6666183 15.388313 3.0444243 13
-5.3312044 5.0197287 0.22015393 8
-5.2789631 3.9077716 0.29734477 9
-5.2082009 6.6259699 0.5642795 10
-5.3393221 3.3128474 1.4475359 14
-5.3319154 16.356649 1.0422667 9
-5.5408854 8.207902 2.3912473 14
-5.3692894 15.876439 2.256727 11
-5.4232683 11.589527 3.1867876 14.333333
-4.8597479 6.9997659 0.067745566 8
-4.9279237 9.1843462 0.13502951 8
-5.1545057 6.3340907 0.57543689 10
-5.0860209 6.7333851 0.4669109 9.5
-4.9731164 16.761505 0.34506562 8
-4.9561338 3.4182236 0.83965516 12
-4.8388638 5.7677617 0.94621861 11
-4.9949064 3.5159338 1.3703911 14
-4.8718357 4.5388699 1.1530491 13
-4.8498931 3.5174065 1.5515544 15
-4.9511995 15.553218 2.2463686 11
-4.9681373 11.75224 3.1367412 14.333333
-4.7435203 4.8890891 0.18040416 8
-4.7273259 3.5061498 0.55428267 10
-4.4254575 3.6339531 0.44755179 10
-4.6024323 4.731432 0.47334686 9.5
-4.5397911 4.8978772 0.4998031 9.75
-4.4588656 13.945115 0.32059056 8
-4.4818316 3.4922178 0.76712358 11
-4.5465302 4.77141 0.75182337 11
-4.5431132 5.1102262 0.94647813 12
-4.7281942 5.8252583 1.0288172 11
-4.6999063 16.854048 0.57808805 8
-4.6813536 3.4751303 1.3687911 14
-4.4821773 3.6896553 1.4256386 14.5
-4.7353754 4.6141949 1.1283634 12.5
-4.5366545 13.7644 1.2663751 10
-4.7040782 3.427042 1.5013165 15
-4.6217165 3.6225553 1.4853829 15
-4.5506048 11.630608 3.135056 15
-4.6462111 11.885333 3.2076671 14.5
-4.6137505 13.073779 3.0004194 14
-4.1689858 3.8023837 0.24491175 9
-4.1396613 4.9698224 0.075553916 8
-4.0299993 5.5885773 0.11300781 8
-4.2002277 3.7589552 0.43884447 10
-4.3312283 5.0338316 0.4712674 9.5
-4.4048357 8.3345947 0.53353506 9
-4.3124681 10.140894 0.31854427 8.5
-4.2486739 3.6265266 1.0040574 13
-4.3902774 5.165391 0.95909399 12
-4.4056296 6.0969563 1.0046079 11
-4.0849566 13.099892 0.96964663 10
-4.252533 13.872979 0.96305871 9
-4.3499408 3.7653337 1.4145038 14.5
-4.2711506 5.4647236 1.2615185 12.666667
-4.1777749 12.984426 2.1597793 12
-4.2476788 11.666369 3.1430132 15
-4.2499685 12.190659 3.1139171 14
-3.6791983 4.7597394 0.22670634 8.5
-3.6175931 4.8184853 0.13204956 8
-3.7524033 4.7010527 0.35739717 9
-3.7717171 5.008183 0.62516916 10
-3.8205767 3.9243169 0.87569189 12.333333
-3.898277 13.145578 0.93148077 9
-3.8861454 3.8723881 1.2979654 14.5
-3.6958055 4.0425544 1.4190584 15
-3.8256485 13.20234 1.9198864 11.5
-3.7101715 13.019643 2.6704638 13
-3.9235258 11.631424 3.135524 15
-3.9114411 11.870726 3.1368032 15
-3.9265041 12.305999 3.0615168 14
-3.3721006 5.2205191 0.1751747 8
-3.4115763 4.0691676 0.42938396 9.5
-3.3258436 5.4668136 0.45271328 9.5
-3.2688785 5.7998743 0.59958631 10
-3.4076977 4.1235361 1.402045 15
-3.3260696 7.0463858 1.1855114 12
-3.3577018 6.8428373 1.9409126 15
-3.3362777 13.257616 1.9632707 12
-3.457902 11.59835 3.1310992 15
-3.5790689 11.810136 3.1155729 15
-3.4836402 12.292993 3.1031821 14
-2.9666367 4.2924705 0.27689621 9
-3.1385412 5.407311 0.20859353 9
-3.1336505 6.3424911 0.2397487 9
-2.9494581 6.5401716 0.26498696 9
-3.0403125 4.2956042 0.46768036 10
-3.1530299 5.6941695 0.54666483 10
-3.1270087 6.3569694 0.4726041 9.5
-3.0065207 6.4752164 0.56781042 10
-2.9648533 6.9946632 0.60179889 10
-2.9500337 7.2450418 0.58924544 10
-3.0369322 4.2332721 0.87241018 12.25
-3.1427448 6.3738999 0.78836119 11
-3.0155518 6.4546332 0.87026036 11
-3.100121 7.0515494 0.82914245 11
-2.9114182 4.2042432 1.3763942 15
-3.1272514 6.2342777 1.1767718 12.5
-3.0445075 7.0397358 1.2441362 12.333333
-3.2022743 6.9012761 1.5565103 13
-3.0405967 10.65071 2.7600026 14
-2.9881208 11.511147 3.1157789 15
-3.0345616 12.378483 3.1044347 14
-2.5499368 4.4688087 0.24279547 9
-2.7671363 4.3516541 0.37046525 9.5
-2.4180171 4.5265522 0.461099 10
-2.8026197 10.646329 0.44385773 8.5
-2.6274364 13.579977 0.48109394 8
-2.7977614 4.3387465 0.88946295 12.5
-2.5233982 4.4760127 0.91863549 12.5
-2.6814551 4.3300614 1.3235853 14.5
-2.5971589 4.4395084 1.4298009 15
-2.7083054 11.556206 3.1304073 15
-2.209106 9.3767672 0.41468719 9
-2.3653793 4.5553489 0.90581566 13
-2.2635031 9.3452864 0.83894116 10
-2.383683 4.6305137 1.4681263 15
-2.0876479 9.4199581 1.3531179 11
-2.0713062 9.4325581 1.5137392 12
-2.335825 9.2670126 2.0204122 13
-2.3819368 9.2693272 2.4485083 15
-1.7407062 8.4787083 0.49139851 9
-1.7470746 8.5202246 0.85603678 10.333333
-1.7617064 8.6060848 1.4584845 12
-1.8342608 8.2088022 1.8423392 14
-1.8946108 8.6530409 2.1757696 14
-1.7788997 8.1459408 2.3615692 15
-1.4980288 0.98558128 0.32639298 12.666667
-1.4717948 0.92499143 0.42138785 14.5
-1.316521 7.3279958 0.51385528 9
-1.5764675 8.4073143 0.77774876 10
-1.5234716 8.5136414 0.78123087 10
-1.3497437 7.3145967 1.3700601 13
-1.5996237 8.338439 1.3875757 12
-1.5145587 8.4266119 1.4469513 12
-1.4210535 7.2966604 1.6888677 14
-1.4366994 7.7955971 2.2076252 15
-1.5377586 8.4722424 2.1226535 14
-0.91397107 6.525187 0.58347738 9.5
-0.92927164 6.5073361 0.90222055 11
-0.95769006 6.5993261 1.2007152 12.5
-1.2121464 7.3773403 1.2766037 12
-0.99709815 6.4751492 1.5530553 14
-0.9310329 6.6718411 1.9162896 15
-1.1177658 7.4326105 2.1595643 15
-0.44367844 -1.7094129 0.047349434 8
-0.44178873 -1.3074081 0.28937793 12.8
-0.5561837 -1.0478467 0.20288762 11.857142
-0.49439895 -0.45637915 0.031884745 8.666667
-0.48751599 -0.32442445 0.028557006 9
-0.63954687 6.6405578 0.6234982 9.666667
-0.65119618 6.6314449 0.80686277 11
-0.63278258 6.6295533 1.1871775 12.5
-0.63978815 6.6515236 1.7106431 14.4
-0.46117628 6.716259 1.9299875 15
-0.010935369 -1.2157619 0.0057492484 7
-0.080270112 -0.86867493 0.00077219197 7
-0.082405314 -0.62524378 0.001106528 7
-0.04104729 -2.0946138 0.24079561 10
-0.20645452 -1.8262396 0.29129583 11.4
-0.34689507 -1.4429901 0.2939302 12.5
-0.29412299 -1.0426348 0.01819887 7.4000001
-0.16155733 -0.57800168 0.018488361 7.8333335
-0.35012087 -0.38055387 0.028609095 9
-0.068765268 -2.048501 0.59758794 14.666667
-0.20363396 -1.8249553 0.52652377 14.571428
-0.35959628 -1.5298212 0.4747577 15
-0.098667726 6.9637904 0.7039873 10
-0.3687591 6.8080182 0.7634089 11
-0.18247055 6.9302917 0.77337354 10.5
-0.36835828 6.7584286 1.2801602 13
-0.18106422 6.9208255 1.2682544 12.5
-0.40961513 6.7416067 1.8370361 15
-0.21200682 6.9069118 1.7662174 14.333333
-0.23475198 6.8800969 1.9708327 15
0.15368542 -1.2725754 -0.0011252115 6
0.2142518 -0.96718037 -0.01499932 6.3333335
0.21241519 -0.59005469 -0.019834027 5.7777777
0.36669925 -0.36399055 -0.031534817 5
0.12663817 -2.0730848 0.22491361 9.8000002
0.22828929 -1.9550955 0.26926422 10.375
0.030440195 -0.53709704 0.0081627006 7
0.15145981 -2.0285056 0.56044841 14
0.21745493 -1.9448559 0.56261694 14.5
0.30730432 7.1423521 0.71371835 10
0.15697733 7.0954237 0.79121494 10.5
0.16293764 7.0786443 1.2932178 12.4
0.16865873 7.0977998 1.8146082 14.333333
0.16649072 7.0816045 2.0250895 15
0.62631685 -0.024295816 -0.042233758 4.4000001
0.60135782 0.16817158 -0.058053993 3.8333333
0.68698293 0.53844935 -0.043341111 5.5
0.66517437 1.669677 -0.047111675 6.5
0.5918873 2.0868044 -0.052033179 7
0.63403839 2.5124068 -0.059956387 7
0.66617221 2.8402746 -0.064739719 7
0.59007621 -1.7870673 0.32182309 11.545455
0.58630729 -1.7992973 0.54586846 14.5
0.65786946 7.3285513 0.60715622 9.333333
0.59350711 7.2842774 0.87630689 10.6
0.42818734 7.1986222 1.3859429 13
0.61711979 7.2993917 1.3339815 12.5
0.45026666 7.2132568 1.8034455 14
0.65944701 7.344666 1.8278723 14
0.60498363 7.2788172 2.049396 15
0.95988733 -0.097110458 -0.021320244 6
1.0082595 0.17282344 -0.046691079 5.3333335
1.0088623 0.591892 -0.065560922 5.1999998
1.0222218 0.86254323 -0.063227929 5.5
1.0339873 1.4080533 -0.066670947 6
0.98031944 1.9095733 -0.069012232 6
0.90395463 2.1861522 -0.068408251 6
0.99038738 2.5494757 -0.078302912 6
0.92972064 -1.6323217 0.33236861 11.6
1.1071794 -1.5485568 0.32838443 11.5
1.0655373 7.6865139 0.160219 8
0.95543092 -1.6350687 0.55206484 14.5
1.123908 -1.5580986 0.5483408 14.5
1.0784655 7.5208964 0.64505219 9.5
0.9659794 7.4560986 0.9397763 10.6
0.99233544 7.453074 1.3642682 12.4
0.9948073 7.4542465 1.841946 14
0.96592051 7.4424 2.0353551 15
1.3527806 -0.10496856 -0.046513412 5.6666665
1.5184851 0.25304833 -0.065188095 5.3333335
1.4287316 0.60546219 -0.071070291 5.1999998
1.4075017 0.95127773 -0.072298385 5.75
1.3458911 1.5080081 -0.08693298 6
1.3948659 1.8438485 -0.094723433 6
1.2499889 2.2444282 -0.090418562 6
1.3738877 2.5646117 -0.1032348 6
1.5270382 2.9612584 -0.11778618 6
1.3987161 -1.4112463 0.34601268 11.5
1.5962203 5.5104804 0.22682917 8
1.4164112 -1.4106418 0.54997909 14.222222
1.2775645 7.5769219 0.65727532 9.5
1.5796031 7.7538671 0.66208029 9.5
1.2354779 7.5668631 1.0835792 11
1.4271044 7.6688433 0.92958933 10.666667
1.281714 7.5876245 1.4317266 12.5
1.4962331 7.6901393 1.3848259 12.333333
1.2825402 7.5760074 1.8636048 14
1.3542742 7.5189424 2.1649098 15
1.3844138 7.6784163 1.9952492 14.5
1.8601192 -0.25508121 -0.035108384 6
1.6272383 0.24372952 -0.064152896 6
1.6856134 0.56545496 -0.074620731 5.5
1.7811526 0.99586231 -0.089167066 6
1.7549471 1.3258779 -0.1019662 6
1.7480049 1.7019554 -0.11465815 6
1.7979405 2.2106326 -0.12734227 6
1.8177701 2.6127999 -0.13456558 6
1.8244736 3.731858 -0.14564317 6
1.6688229 5.505168 -0.062085036 7
1.7671553 -1.2430496 0.30477777 10.5
1.9295876 -1.1688594 0.28634498 10
1.663316 5.6044254 0.049192742 7
1.7502464 -1.2522013 0.55086732 13.666667
1.9381901 -1.1600505 0.56662613 13.5
1.9056289 4.4500446 0.59633899 11
1.9460734 5.3232279 0.45255902 9
1.8259857 7.8580952 0.61371809 9
1.765499 7.8244953 0.96544856 10.5
1.7341739 7.7954974 1.4132483 12
1.7755907 7.8083701 1.7904668 13.666667
1.8162618 7.3612337 2.1502841 15
1.9297864 7.9299917 2.1345305 14.5
2.2673917 0.36777022 -0.090181343 6
2.0482254 0.6183145 -0.086966626 5.6666665
2.1192112 1.0834705 -0.10659005 5
2.121274 1.4092543 -0.14252491 5
2.2201376 1.9311222 -0.14832319 5
2.1428969 2.3956993 -0.15413487 6
2.3229811 3.5299547 -0.18517342 6
2.3842402 5.2127199 -0.15285555 6
2.2528455 -1.0231507 0.28098738 9.666667
2.0880065 4.6164236 0.12770608 7.5
2.2346215 -1.0322473 0.62100154 13.5
2.324966 4.5977345 0.41304839 9
2.1882458 4.9417586 0.46432838 9.5
1.9940448 5.2352266 0.51263118 10
2.0123575 7.9469934 0.74579167 10
2.2260153 8.0452766 0.65028644 9.333333
2.0732958 7.96141 0.99136639 10.5
2.2977343 8.061923 0.99958074 10.5
2.0498099 7.9361935 1.4414717 12
2.2705591 8.0349579 1.4610037 12
2.0854914 7.9443302 1.7624031 13.5
2.3758805 8.0775576 1.6243826 13
2.1918521 7.4023495 2.1791544 15
2.1464987 7.9660978 2.1244891 14
2.2621517 8.0714226 2.1792111 14.5
2.4225869 0.39776579 -0.098403603 5
2.5268354 0.99879736 -0.11486601 6
2.6334128 1.3989822 -0.16748239 5
2.4710114 1.6919156 -0.17248793 5
2.620693 2.3524418 -0.17703256 5
2.6282187 3.0541382 -0.20024662 6
2.5878265 -0.87389451 0.2964378 9.5
2.7620618 -0.79152018 0.42018446 11
2.5807431 -0.87541175 0.64876986 13.222222
2.7799339 -0.78689903 0.48839909 11
2.6073747 8.223321 0.67665535 9.333333
2.6756582 -0.85252225 0.88393295 15
2.7656937 6.9966779 0.98492795 11
2.6351917 8.2189827 1.0015382 10.5
2.5674763 8.169673 1.3967022 12
2.6044729 8.1803074 1.6535372 13
2.5353761 7.3083787 2.1780946 15
2.6169419 8.2309008 2.0885713 14.333333
3.0052109 -0.45661512 -0.051766384 6
3.0379248 0.86224276 -0.1368248 5
3.1658423 1.2913398 -0.1880369 5
3.1919959 1.7451181 -0.21130005 5
2.9553246 2.0840204 -0.21059218 5
2.8227599 2.5672805 -0.18294029 6
3.0192571 -0.62771231 0.30585966 9.272727
3.1367373 -0.32729745 0.30442175 9
3.0451689 -0.61311489 0.67680055 12.727273
3.1236527 -0.34391564 0.60684764 12
2.8210714 6.7811098 0.45075583 9
3.1435575 8.304944 0.75254941 10
3.0287945 -0.63872027 0.96461666 15
2.7928486 6.9644451 0.83137137 10
3.0176952 8.3703041 0.92564154 10
3.0229745 8.3126278 1.3892686 11.333333
2.9579043 8.3081408 1.6940594 13
3.0518632 7.1635871 2.1793747 15
2.7914071 7.2299614 2.1762769 15
2.9591906 7.9504113 2.1493802 14
2.78794 8.0640373 2.1660273 14
2.919477 8.3572769 2.3834755 15
3.2749884 0.20585003 -0.11014481 6
3.328311 2.3851292 -0.24415018 5
3.5836644 4.4144893 -0.10852478 6.5
3.3170769 5.3950391 -0.15714949 6
3.2729173 -0.4670791 0.30109289 9
3.311692 5.5035806 0.093226403 7.5
3.2209427 -0.53565753 0.69090205 12.8
3.3842766 -0.24443577 0.72795808 12.5
3.4369681 5.9410572 0.52398169 9
3.4851074 7.1009898 0.69065779 10
3.3507469 7.4599543 0.69054163 9.5
3.1985857 8.0540686 0.56397963 9
3.2214403 -0.55872744 1.0097387 15
3.2616227 -0.2668905 1.0368636 15
3.5471003 7.007585 1.0205164 10.5
3.4160504 7.2457786 0.93829757 10.5
3.4876893 7.0546622 1.2970128 11.666667
3.3408399 7.3904328 1.3156102 11.666667
3.5537868 7.0937653 1.7947311 13
3.4521968 7.3255577 1.8355519 14
3.3392854 7.9045687 1.663718 13
3.2060158 8.1123829 1.6842784 13
3.3973818 7.0634198 2.1583853 15
3.4140213 7.3659267 2.0878546 14.333333
3.2542317 7.8856158 2.1476929 14
3.6418138 -0.17300981 -0.015546417 6
3.9587519 0.25375089 -0.16789414 5
3.7125432 0.64903933 -0.10573736 5.5
3.6875322 1.0765268 -0.11115882 5.5
3.9248238 1.6475601 -0.19434167 5
3.9672627 3.790343 -0.19308366 5.6666665
3.7495077 -0.15249392 0.31384826 8.8888893
3.8627262 0.042928658 0.3057366 8.75
3.7841187 0.61936766 0.26179907 8.5555553
3.9111989 0.98997068 0.26591945 8.4285717
3.9264443 1.7832639 0.2333284 8
3.9661484 3.8911204 0.1874489 7.5
3.9462953 5.045217 0.25210547 8
3.84656 6.2319713 0.37252519 8.5
3.7048635 6.5024552 0.39025664 9
3.7534745 -0.14342086 0.67030501 11.75
3.8579113 0.064679228 0.60136867 11
3.9568391 0.93737113 0.54909736 11
3.9799416 6.0022979 0.61569107 9
3.9466889 6.1280107 0.63394797 10
3.6470549 6.69838 0.53402096 9.5
3.7433987 -0.13469553 1.0319942 14.285714
3.8370473 0.047843605 1.0242982 14
3.8824134 6.2089739 0.89308333 10.4
3.7189867 6.6405387 1.0191139 10.75
3.6234217 6.8360462 0.90689892 10.5
3.8632929 6.2419109 1.2825942 12
3.6958449 6.6391301 1.3889129 12.333333
3.6008184 6.8712482 1.365654 12
3.856693 6.2974591 1.8347327 14
3.7468901 6.6881938 1.8598043 13.666667
3.6443861 6.8570065 1.7531836 13
3.8669641 6.2194934 2.1251771 15
3.7022135 6.6303878 2.0593154 15
3.6210265 6.9787016 2.0790396 14.5
4.2444968 1.8127767 -0.056898516 6
4.3583579 3.2458949 -0.19321424 5.5
4.2175751 0.36078337 0.34116182 9
4.1860023 0.41066831 0.28640735 8.5
4.3156071 1.4287689 0.16925707 7.5999999
4.1796675 1.7956855 0.14192145 7.3333335
4.3174477 3.2728479 0.10541879 7
4.2706971 3.8310342 0.28971586 8.5
4.1698523 4.0646152 0.27062863 8
4.0235357 5.0841355 0.057210747 7
4.3182368 5.4602489 0.31540626 8
4.1384768 5.6179447 0.33372346 8
4.1566453 0.25286174 0.63884211 11.2
4.1769433 0.62786388 0.62682664 10.666667
4.0689015 0.96587205 0.65946233 10.8
4.2888041 3.8090904 0.62924266 9.8000002
4.3848295 5.1877928 0.54421848 9
4.259676 5.4724016 0.63520873 9.25
4.0763884 5.8416538 0.70583463 9.5
4.1630759 0.29294482 1.0818803 14
4.2633672 0.4621686 1.0796293 13.5
4.298367 3.8018382 0.94162983 11.5
4.2164407 4.0297666 0.83705258 11
4.3017545 5.4146171 1.0299135 11.2
4.1303911 5.7688088 0.95722288 10.6
3.9954808 6.0501781 0.88580972 11
4.1811948 0.33663768 1.2969166 15
4.3599095 3.5466146 1.2790192 13
4.3119974 3.817667 1.3485162 13.5
4.3025317 5.4468408 1.3815116 12.666667
4.11871 5.8130245 1.4210718 12.6
4.3035927 3.8590808 1.7278241 15
4.2237196 4.0576754 1.7849866 15
4.3588324 5.1809597 1.8087451 14
4.3736124 5.3531842 1.7061278 14
4.1585445 5.7818089 1.8702658 14.5
4.0336652 6.0495195 1.718441 13.5
4.2894645 5.5190296 2.1102653 15
4.1416593 5.8501992 2.16624 15
3.9947217 6.0604091 2.1968966 15
4.4613962 0.28860527 -0.056681182 6
4.6461024 2.6678503 -0.18247883 5.5
4.5348148 0.21176478 0.22910605 8
4.4860816 1.3803964 0.24929549 8
4.7489967 2.7289119 0.26835084 8
4.6829801 2.9916492 0.31730834 8.3999996
4.4668417 3.4820309 0.29610282 8.25
4.6202741 4.7069612 0.38626778 8.5
4.5113835 4.9995933 0.32623151 8
4.5029011 0.21743259 0.57116663 10.333333
4.5714016 0.52148998 0.70515883 11.25
4.7908182 2.7784507 0.48508739 9
4.6713047 3.0576115 0.55243349 9.5
4.5324268 3.3597231 0.63330102 10
4.6343136 4.7040734 0.63998073 9.5
4.5204663 4.974782 0.65945804 9.5
4.4055581 5.2188668 0.8025201 10
4.5084634 0.2019147 1.0540086 13.166667
4.5732546 0.57249075 1.1019121 13.333333
4.6501374 3.1170251 0.95551074 12
4.5686269 3.3912592 1.0710425 12
4.6253347 4.6913724 1.0449146 11.5
4.5024748 5.0078044 1.073907 11.5
4.5434246 0.26553366 1.3444537 15
4.4321799 0.51442826 1.3346695 15
4.6735601 3.1168096 1.4121559 13.5
4.6021729 3.5604837 1.5670046 14
4.6092458 3.8949361 1.6317029 14
4.4632163 4.3340049 1.4329108 13.5
4.644453 4.7112412 1.4903582 13.5
4.5154753 4.9967065 1.4250937 13
4.3849292 5.2638021 1.3836132 13
4.5903316 3.5000365 1.7214134 15
4.5429325 3.7956514 1.6624764 14.5
4.5277877 4.6106973 1.8280305 14.5
4.5299144 4.9594069 1.8395709 14.666667
4.450954 5.1143417 2.0414286 15
4.4034824 5.290771 2.0740635 15
4.8231602 1.5666538 0.25218329 8
5.1500511 1.9182979 0.1502824 7
4.9947195 2.2476125 0.22247258 7.8333335
4.898417 2.5265803 0.33036023 8.5
5.0156107 0.72202015 0.74669302 10.666667
5.1613884 1.9249775 0.51173234 9
5.0138083 2.2607572 0.52411431 9.333333
4.8899846 2.551887 0.46995294 9
5.1091485 3.0835922 0.5962764 10
4.9218726 0.66444272 1.1102495 13
4.9977837 3.5379858 1.171441 12
5.0389619 0.70553035 1.4482219 14.666667
4.905889 0.88684428 1.4950557 15
5.1062713 2.5971997 1.4918253 14.2
4.9300432 2.9816916 1.4660078 13.8
4.8124585 3.4051878 1.507285 13.666667
4.9912305 3.6476254 1.2678647 13
4.915307 3.0287337 1.6681197 15
4.7906547 3.3012636 1.6934021 15
5.3167996 1.5808696 0.45916128 9
5.2804093 1.6940227 0.12384451 7
5.3794312 1.5537761 0.60161346 10
5.3161674 1.7598922 0.56970286 9.5
5.3310499 2.2120018 0.67161721 10
5.4205108 2.6417241 0.74620205 10
5.3210502 2.9583905 0.73624498 10.25
5.4844294 0.98635375 1.1213403 12.142858
5.5224938 2.5934615 1.0505685 11.5
5.345984 2.9822636 1.070768 11.5
5.2052755 3.298743 1.0920767 11.5
5.5376654 1.0486327 1.3988869 13.666667
5.5241456 1.441134 1.4002666 13.333333
5.4096751 1.8711386 1.5393167 14.333333
5.325685 2.225436 1.4858464 14
5.3387299 2.5071976 1.3010718 13
5.8414273 1.8491042 0.80416709 10.666667
5.6835184 2.2118993 0.73666823 10
5.8403749 1.4394827 1.1179338 12
5.8747382 1.8211 1.1113714 11.833333
5.6978197 2.200717 1.009473 11.5
5.6298018 1.4150178 1.4211303 13.5
5.688076 2.1769669 1.289555 13
6.0020237 1.5121325 1.2327226 12
