# .PCD v0.7 - Point Cloud Data file format
VERSION 0.7
FIELDS x y z intensity
SIZE 4 4 4 4
TYPE F F F F
COUNT 1 1 1 1
WIDTH 108
HEIGHT 1
VIEWPOINT 0 0 0 1 0 0 0
POINTS 108
DATA ascii
-3.949959 5.0329032 0.44319835 9
-3.9444206 5.57236 0.6588679 10
-3.7135491 5.6799045 0.25114572 8
-3.6718884 5.8575196 0.410128 9
-3.4733617 5.9321218 0.63181168 10
-3.3077102 5.2165279 1.7309282 15
-2.9111533 8.5461063 1.4698849 12
-2.7662997 5.7455268 1.0714874 12
-2.2295339 -1.4795994 0.24785647 10
-2.2122269 -1.4553823 0.57195991 13
-2.1998425 -1.4945937 0.39215681 11
-2.082576 -0.88978988 0.26737264 10
-2.1540282 -1.4746364 0.47919014 12
-2.0780683 -0.95925486 0.49783373 13
-2.0271993 -0.67143226 0.55906874 14
-2.1600599 -1.4838167 0.72781354 14.5
-1.6435511 -1.5700941 0.25656283 10
-1.7796675 1.1150784 0.3100906 11
-1.6368107 1.8513359 0.37707457 11
-1.6462262 -1.5740927 0.57226175 14
-1.758438 1.2270372 0.43661749 12.5
-1.7214869 1.4584645 0.45945448 12.5
-1.684119 1.7084588 0.52123481 13
-1.6863561 1.6077709 0.63220263 15
-1.6314338 1.8723483 0.66855288 15
-1.4959352 -1.602332 0.43633828 13
-1.3875326 -1.620392 0.24815829 10
-1.2260257 -1.6465672 0.47902486 14
0.15547851 -1.1755602 0.019415366 7
0.21000658 -2.2525296 0.13713443 9
0.359541 -1.9624929 0.2155807 10
0.57454658 1.208146 -0.058471374 6
0.4682216 -1.9589683 0.36525428 12
0.96266693 -2.0509331 0.62532425 15
1.1757116 12.854424 2.4719849 13
1.2778645 -2.1231706 0.29928994 10.5
1.2261062 -2.1223266 0.42011046 12
1.3798423 -1.8891438 0.54359365 13
1.358996 -2.1277773 0.70572013 14.5
1.4408325 -1.8495032 0.31428704 10.5
1.4470918 -1.8461738 0.42696574 12
1.4475967 -1.8462936 0.65854663 15
1.9844317 -1.9542094 0.26836321 10
1.9863951 -1.9560325 0.75349283 14.5
1.9827492 6.1880665 1.5214891 14
2.1085408 6.1298685 0.68317097 10
2.0020633 6.0712714 0.9066208 11
2.1024084 6.0895343 1.213082 12
2.1199436 6.0377154 1.4305475 13
2.16433 6.0471625 1.7177244 15
2.5136843 -1.6693767 0.15103446 8
2.4273605 -1.6708001 0.30239302 10
2.4964671 -1.3183254 0.25230503 9.5
2.5071127 -1.2658781 0.41811064 11
2.4178648 5.9957166 0.53207779 9
2.50208 5.9665256 0.89936608 11
2.7874131 -1.2291522 0.27804238 10
2.6645126 5.9390631 0.69710273 10
2.7390993 -1.9007443 0.89252216 14
2.622746 5.9672437 1.0557829 12
2.8247056 -1.2319275 0.60907495 13
3.2677984 -1.9908074 1.0340718 15
3.440316 5.8974876 1.725962 14
3.5585625 5.8791089 2.0784869 15
4.0222845 5.7512221 0.33751261 8
4.1394129 5.7305412 1.2133677 12
4.2121553 5.7239819 0.39814293 9
4.334877 5.726377 1.9322428 15
4.4595246 -0.99096376 0.6953572 11
4.4132771 5.7077479 0.8095001 10
4.7562628 1.0993638 0.11578672 7.5
4.6593242 0.71566105 0.32106012 9
4.7742534 1.166893 0.35437509 9
4.7509484 1.0866439 0.49690902 10
4.6616011 0.67076236 0.65913397 11
4.7595286 1.103767 0.69328409 11
4.6665368 0.21565357 0.92366946 12.5
4.7601566 1.0580943 0.8671335 12
4.6588149 0.63847476 1.026878 13
4.6910238 -0.49872282 1.397324 15
4.6802549 0.65084881 1.2891779 15
4.615972 -1.2598919 1.4221989 15
4.7609382 -0.091599926 1.4374248 15
4.7798858 1.0916444 1.4621999 15
4.805686 1.1851588 1.0876275 13
4.8228688 5.6138163 1.0006856 11
4.9921598 -1.3108693 1.3344238 14
4.8493347 1.1335882 1.251811 14
5.0179 -0.92666155 0.98808742 12
5.0321436 -0.53760815 0.87389195 12
5.1527534 -0.43325871 1.0566254 13
5.1122394 -0.68015015 1.2972835 14
5.0626187 5.578083 1.5860386 13
5.0988016 5.607542 1.9681957 14
5.5435028 2.2582221 0.23800758 8
5.6131611 2.0359478 0.39822868 9
5.6948485 2.0662796 1.0121797 12
5.6748519 2.5578313 1.0106905 12
5.7133503 2.6903257 1.2448999 13
5.7554212 3.2309003 1.2120675 12
5.7869959 3.3282936 1.4109083 13
5.6182513 1.9650722 1.7593075 15
5.6902261 2.4993837 1.7711124 15
5.7877388 3.1330702 1.9990965 15
5.9683104 4.1703486 1.2638907 12
5.814734 2.9997034 1.53333 14
5.9767528 4.1798615 1.5248184 13
5.798326 4.3891792 2.1915412 15
