# .PCD v0.7 - Point Cloud Data file format
VERSION 0.7
FIELDS x y z intensity
SIZE 4 4 4 4
TYPE F F F F
COUNT 1 1 1 1
WIDTH 79
HEIGHT 1
VIEWPOINT 0 0 0 1 0 0 0
POINTS 79
DATA ascii
-6.9941106 -5.958786 1.4608684 11
-6.564187 -6.1994529 0.91067684 10
-5.6615176 -7.0618172 1.5533053 12
-5.7464256 -2.497632 1.5405747 14
-5.7637272 -2.1202395 1.6481309 15
-5.3061638 -2.9200878 0.39626008 9
-5.2318387 -2.5622945 0.63550645 10
-5.2944884 -2.5797253 1.742353 15
-5.1769691 -3.2130878 0.67578363 10
-5.1717253 -7.5650315 1.1220872 10
-4.891552 -7.7397556 0.3546485 8
-4.9339919 -7.4680438 0.85965365 9
-4.934216 -7.5556712 1.5494626 12
-4.9222832 -7.5346751 2.0298488 13
-4.7726231 -7.8122206 1.4098648 11
-4.7774687 -7.4628487 2.2352164 14
-4.6249952 -7.5779734 2.6707902 15
-4.5335541 -8.0308437 0.27406052 7
-4.0484729 -8.3695393 2.657747 15
-3.6435399 3.3099585 0.36663204 10
-3.6204479 -7.5858569 0.81986618 9
-3.7494793 -8.2229805 1.7989248 12
-3.5874557 -8.7274055 1.3440586 11
-3.5449491 -8.4149761 2.0427651 13
-3.0342472 3.2963214 0.15268205 9
-3.1521089 -8.558238 1.2112236 10
-2.9567451 -7.9482598 0.20211078 7
-2.8008018 -8.8387804 1.3857712 11
-2.5926666 -8.6573076 2.601048 15
-2.2214811 -9.4383974 1.2887943 10
-1.0417894 3.5027075 0.49087417 12
-0.95837641 3.4632075 0.45377895 11
-0.70492488 3.9225578 0.39274204 10.5
-0.53346151 1.2783651 0.057189923 9
-0.26758084 1.3478557 0.3765294 15
-0.22257866 2.7566876 0.69676042 15
-0.018310163 -1.4264283 0.37475911 14
-0.20350465 2.8313818 0.40175194 12
-0.095726825 2.7626257 0.61627835 14
0.060114298 2.8422415 0.10181232 9
0.0055864369 -1.4040337 0.2887567 12
0.14429575 2.7229538 0.4270902 12
0.18500178 2.6554873 0.64807034 15
0.35345927 -1.4822782 0.25435334 11
0.37956932 -1.2576827 0.38114336 14
0.26892263 -1.0971724 0.34020799 15
0.20814565 2.7477403 0.5356437 13
0.3340123 5.1897449 0.54044086 11
0.40255457 -1.259693 0.2877537 12
0.52528244 -1.4610453 0.5127542 15
0.64964646 -1.0888387 0.18953159 11
0.62564427 -1.4484235 0.38340893 13
0.78340471 -1.597873 0.50829041 14
0.83003229 -1.5689764 0.54271233 15
0.91813928 -1.3490031 0.52366292 15
1.0384046 -1.260082 0.40037936 13.5
1.2564452 -1.1172025 0.34411016 12
1.4774275 0.40450835 0.32995248 13
1.7083395 -0.039818607 0.26339087 11
1.6348869 0.06993863 0.30133957 12
1.7595422 -0.078494951 0.43601882 14
1.9636393 -0.23904559 0.62461603 15
2.1520596 -0.39693648 0.21249665 9
2.0399973 -0.2997629 0.2136623 10
2.0889904 -0.33986306 0.40622374 12.5
2.1324298 1.1092736 0.30333012 11
2.0731158 -0.33038956 0.58379775 14
2.0758049 1.1517754 0.4555313 13
2.1390955 1.0816363 0.62123221 14
2.1115003 3.4222851 0.76836163 13
2.4262552 -0.61692041 0.29964492 10
2.9847536 2.2307773 0.22955866 9
4.2622118 -2.9427829 0.41202271 9
4.3375678 -2.835063 1.6087455 15
4.6298871 2.0307012 0.32898459 9
5.1688199 3.9886103 1.8697944 15
5.0264535 7.6474414 2.1288097 14
5.6169519 7.1461992 2.1057398 14
6.3801794 8.9890776 1.1552005 10
