# .PCD v0.7 - Point Cloud Data file format
VERSION 0.7
FIELDS x y z intensity
SIZE 4 4 4 4
TYPE F F F F
COUNT 1 1 1 1
WIDTH 786
HEIGHT 1
VIEWPOINT 0 0 0 1 0 0 0
POINTS 786
DATA ascii
-9.4116011 -3.3452487 0.90898675 10
-9.3992634 -2.8491955 1.1408261 10
-9.3493366 -2.7465811 0.85888135 10
-9.3107834 -2.9324088 1.8591177 13
-9.3767376 -2.834549 2.1351151 13
-9.0323677 -3.9188027 0.15334471 8
-9.0576105 -3.7905138 0.64570004 9
-8.9940109 -3.3921468 0.66721225 9
-9.0969582 -3.5934832 1.0500968 10
-9.1001673 -3.4721079 0.87489772 10
-9.1067734 -3.381022 1.8782645 13
-9.0641108 -3.7046096 2.1142449 13
-9.1002254 -3.5015433 2.2113183 13
-7.6463022 -5.1377854 1.2509053 11
-7.6446233 -5.0745764 2.4184494 14
-7.2499332 -5.8971028 0.015363585 7
-7.2284851 -5.8037138 0.39633474 8
-7.2291179 -5.700891 0.68957108 9
-7.4007835 -5.3674197 1.0939367 10.5
-7.4311829 -4.7571864 1.2245697 11
-7.4060488 -5.3485441 1.6168888 12
-7.5218859 -4.9157634 1.8674024 13
-7.3837934 -5.3395014 2.3047042 13.666667
-7.0086546 -6.1147265 -0.00058700383 7
-6.8662152 -6.1156802 0.43333641 8
-7.0364094 -5.9764032 0.44498676 8
-6.9269104 -4.2629795 0.42052397 8
-6.8686466 -6.1063709 0.60065365 9
-7.0607538 -5.8441558 0.66194409 9
-6.937922 -5.3475161 0.46750048 8
-6.9546971 -5.8174305 1.0201246 10.333333
-6.8447018 -4.168118 1.1569321 11
-6.8189125 -6.0939841 1.4486594 11
-7.0847268 -5.8828902 1.5631876 11.5
-7.0732303 -5.4686947 1.4510511 11
-6.8674493 -6.042717 1.6871901 12
-7.1006956 -5.7527866 1.7920825 12.5
-7.0210814 -5.3949952 1.7189238 12
-7.0020537 -5.7247186 2.2291 13.5
-7.2089405 -5.5006337 2.3738823 14
-7.1242366 -4.508522 2.2655141 14
-6.9144168 -5.3114119 2.6976371 15
-6.5146194 -6.5209084 -0.031573784 7
-6.7783718 -6.33534 -0.016941443 7
-6.6343708 -6.3074298 0.36251497 8
-6.4607611 -4.7670836 0.050258584 7
-6.4926634 -6.4180999 0.53818959 8.5
-6.6123939 -6.2752786 0.58503819 8.666667
-6.6443315 -5.0052381 0.68343693 9
-6.5350862 -6.2268653 0.99742091 10
-6.5044155 -6.36867 1.5098549 11
-6.6424284 -6.255167 1.5687537 11.666667
-6.5116353 -4.8112555 1.5595417 12
-6.4733052 -4.7518191 1.6209354 13
-6.7721639 -4.168623 1.4861799 12
-6.4903736 -6.2378378 2.0701823 13
-6.5003042 -3.8786051 1.8686501 14
-6.593595 -6.1171017 2.2438419 13.666667
-6.7815194 -5.9334731 2.212029 13.5
-6.6118855 -3.983151 2.1176116 15
-6.4970527 -6.0248938 2.6954808 15
-6.6586738 -5.7583389 2.6948831 15
-6.8102927 -5.4877043 2.6937799 15
-6.2698493 -6.7254944 -0.047234863 7
-6.2275443 -6.6454473 0.30051765 8
-6.2331061 -4.4990387 0.3578077 8
-6.013587 -6.8193784 0.50299799 8
-6.1789594 -6.6278043 0.6433211 8.8000002
-6.1925364 -4.447834 0.68166131 9
-6.1206126 -4.3515072 0.59023315 9
-6.1885991 -6.5656042 1.1572617 10
-6.3783345 -3.6911876 1.104345 11
-6.0187769 -6.7738967 1.4688251 11
-6.2637568 -6.5663528 1.5423387 11.6
-6.060389 -4.2531753 1.4674031 12.5
-6.2884965 -3.6586549 1.4038061 12
-6.1921067 -6.5182271 2.0583193 13
-6.1330786 -3.49189 1.8801661 14.5
-6.1527052 -6.5399108 2.3063078 14
-6.3669119 -6.3367257 2.3161261 14
-6.2264571 -6.4802222 2.7071426 15
-6.4231129 -6.2392411 2.7107437 15
-5.7521596 -7.0276318 0.40929383 8
-5.9208121 -4.1840901 0.12823285 7
-5.7387228 -3.8917389 0.25077537 7.5
-5.6473742 -2.6375194 0.11752561 8
-5.7941227 -6.9713545 0.75135815 9.25
-5.7214012 -3.8656874 0.58334535 9.333333
-5.7619276 -2.535495 0.73501205 10.5
-5.9907532 -1.9006088 0.69037139 10
-5.792222 -6.9543405 1.1400787 10
-5.6655588 -3.7703638 1.2277594 12
-5.9820309 -3.2845058 1.0603216 11
-5.6417556 -2.9324932 0.92604274 11.5
-5.8967738 -2.4727905 0.81198472 11
-5.8463154 -6.9164433 1.4890333 11.2
-5.7074337 -3.8143775 1.4074364 12.5
-5.996161 -3.334733 1.549639 13
-5.6490722 -2.5799217 1.416108 13.5
-5.8221517 -2.0791607 1.4331268 13.666667
-5.8060179 -6.8959889 1.9254582 12.5
-5.8298578 -3.1708627 1.8947213 15
-5.6684117 -2.1980698 1.7169749 15
-5.7308722 -6.9505334 2.2942295 14
-5.9435282 -6.7453756 2.2992308 14
-5.8455911 -6.8280468 2.6891382 15
-5.7306108 -6.431675 2.6748278 15
-5.918819 -6.2067909 2.6839976 15
-5.5369196 -3.6146457 0.021413622 7
-5.3672071 -7.3529916 0.39802054 8
-5.5872703 -3.7602682 0.15553366 8
-5.2866864 -3.3855217 0.18076889 8
-5.3635459 -2.930778 0.21110255 8
-5.3031864 -2.5125725 0.23868072 8
-5.3747201 -7.3813496 0.77076173 9
-5.5058494 -3.5936167 0.67883009 10
-5.3574357 -3.4160383 0.53776932 9.5
-5.3112645 -2.9100702 0.59526551 9.5
-5.3111 -2.5630243 0.6045478 10.166667
-5.4831653 -2.1917939 0.64952129 10
-5.6014619 -1.9268048 0.66580468 10
-5.3923931 -7.3478842 1.1276587 10
-5.3371887 -3.3702002 1.1773715 12
-5.2787313 -2.901963 1.1618656 12
-5.4612136 -2.5486016 1.0334538 12
-5.5453782 -2.2060268 0.89163703 11.333333
-5.5832601 -1.9635051 0.8382771 11
-5.3848562 -7.3081398 1.4786942 11.25
-5.5696731 -7.1437402 1.4770418 11
-5.3738246 -3.4186833 1.4295129 13
-5.341785 -2.8372412 1.4012905 13.5
-5.4521971 -2.6485541 1.503105 14
-5.5726399 -2.3211615 1.3645086 13.5
-5.356319 -7.3345618 1.9275535 12.5
-5.583909 -7.1166978 1.9255862 12.5
-5.5340948 -2.8508341 1.8101395 15
-5.4407959 -2.4288588 1.764414 15
-5.5382133 -2.335212 1.6096652 15
-5.3788457 -7.2991414 2.292592 14
-5.2484117 -6.7703471 2.6728351 15
-5.417469 -6.6489725 2.6722207 15
-5.0498166 -7.6101995 0.37352374 8
-4.8645678 -7.4836535 0.34547609 8
-5.1463308 -3.1352353 0.2162635 8
-4.8929524 -7.786406 0.86956185 9
-4.8332782 -7.5559597 0.60607857 9
-5.1538472 -3.0373447 0.59351391 9.666667
-5.1496186 -2.354171 0.41632226 9
-4.8474898 -7.8177748 1.1121585 10
-4.8544674 -7.456439 1.0946965 10
-5.1019387 -3.050921 1.1413128 12
-4.9160523 -7.6921711 1.3973356 11
-5.1494231 -7.5193577 1.4951994 11.5
-5.1492367 -3.0122519 1.35771 13.5
-4.9722123 -7.6933417 1.9346486 12.5
-5.1615615 -7.5233426 2.0545549 13
-5.0890412 -7.5733237 2.2926257 14
-4.9001412 -7.2883053 2.6709812 15
-5.0896087 -6.9589238 2.6687007 15
-4.6231632 -8.015357 0.33087766 8
-4.7189474 -7.8883724 0.30444649 7.5
-4.5899186 -7.9188423 0.778584 9
-4.5132742 -8.0575733 1.1035835 10
-4.6653728 -7.9123507 1.1059501 10
-4.4640651 -8.0246849 1.3674884 11
-4.6801777 -7.8958006 1.3716264 11
-4.4208517 -8.1312151 1.8268585 12
-4.6633549 -7.902081 1.8953137 12.333333
-4.7815795 -7.500596 1.7723857 12
-4.5684295 -7.6746345 2.2415936 14
-4.6059756 -7.7858315 2.6778154 15
-4.3547788 -4.9205847 0.069591813 7
-4.0521464 -8.4069424 0.25388083 7
-4.2060695 -8.2707663 0.28750607 7.5
-4.2347832 -7.908092 0.29229963 7.5
-4.2646623 -8.3994884 0.87126446 9
-4.403718 -8.203434 0.86761957 9
-4.1297441 2.7137797 0.55117995 10.5
-4.1488094 -8.0964384 1.1579098 10.333333
-4.1984539 -7.8876777 1.3051234 11
-4.0428123 -8.2126236 1.3537767 11
-4.1256428 -8.4513779 2.0120661 12.666667
-4.2770548 -8.1784563 1.9438705 12.5
-4.4060516 -7.8568778 2.0242755 13
-4.128901 -8.0910683 2.258779 14
-4.3514156 -7.8846192 2.2502387 14
-4.2851863 -8.1493006 2.6674676 15
-4.3297806 -7.8591766 2.6638405 15
-3.7279291 -8.4931583 0.23866583 7
-3.8175313 -7.8081498 0.36132288 8
-3.7825987 3.154115 0.23560539 9
-3.6444731 3.3187551 0.26499179 9
-3.7804539 3.144172 0.36477688 10
-3.6750584 3.2758312 0.4726052 10.5
-3.7377574 -8.5285339 1.3318603 10.666667
-3.900131 -8.2545118 1.196509 10.5
-3.7474465 -8.4431829 2.2800529 13
-3.7642977 -8.5189762 2.6489913 14.333333
-3.9410486 -8.2057085 2.6586022 15
-3.2530146 -8.1941357 0.23657268 7
-3.4136512 -7.6873064 0.36967981 8
-3.3984339 3.1266835 0.27064508 9.5
-3.5997758 3.3897762 0.19595446 9
-3.4092667 -7.7106767 0.74573964 9
-3.4726341 3.3173261 0.3761678 10
-3.4845421 -8.8137255 1.2614592 10
-3.464422 -8.6013298 1.2886888 10.5
-3.5435565 3.3924379 1.315028 15
-3.3313117 -8.6261959 1.9131098 12.333333
-3.3696508 -8.856781 2.3189678 13
-3.5965147 -8.6050663 2.2941515 13
-3.4590018 -8.8659983 2.6371374 14
-3.4031796 -8.5067902 2.6392181 14.666667
-3.5311904 -8.2998705 2.6307092 15
-3.0079465 -7.9163647 0.34631279 7.6666665
-3.1629395 3.1526358 0.22387607 9
-3.0252321 3.301959 0.1985317 9
-2.9522686 -7.9941344 0.82365841 9
-3.120156 -7.8519106 0.71103489 9
-3.0594511 3.063473 0.40340137 10.666667
-3.0332839 3.3265088 0.45567331 10.6
-2.8320408 -8.817626 1.2649112 10.5
-3.067986 -8.630619 1.2980583 10.666667
-2.8511407 3.5480905 0.98766905 14
-3.1849763 3.752429 1.0566261 14
-3.1793916 3.2220423 1.1185504 15
-3.1456261 3.3379409 1.1361125 15
-3.0209804 -8.9930477 1.8829859 12
-3.080508 -9.2784233 2.3722525 13
-2.9252298 -9.3068466 2.6328619 14
-3.1988533 -9.0923729 2.6341038 14
-3.0764582 -8.5577297 2.62199 14.666667
-2.4111257 -8.1680059 0.15548949 7
-2.4976375 -8.479702 0.40683505 8
-2.629636 -8.1225595 0.27211729 7.5
-2.6857121 -7.9841352 0.29693839 8
-2.4072337 -8.9142914 0.86218143 9
-2.4912071 -8.473299 0.84054422 9
-2.7242343 -8.2286453 0.83155972 9
-2.5618157 2.592871 0.58727157 12.666667
-2.7353499 3.4803231 0.37785387 10.333333
-2.7565854 3.6663618 0.45552394 11
-2.566031 -9.0446424 1.2654939 10.4
-2.7551363 3.6425459 0.98372149 14
-2.4438777 -9.1326942 1.4073782 11
-2.7381103 -9.1821117 1.9048882 12
-2.4819548 -9.0956955 1.8877783 12
-2.7567902 -9.3089008 2.3546224 13
-2.4320173 -8.9524488 2.2678299 13
-2.4495444 -9.6648169 2.6329577 14
-2.6466358 -9.529665 2.634886 14
-2.7858286 -8.9152136 2.6263883 14
-2.6270776 -8.5279274 2.6027856 15
-2.071651 -8.4185333 0.12282636 7
-2.2438843 -8.2957582 0.13889164 7
-2.048928 -8.5080509 0.34299806 7.5
-2.2047262 -8.300436 0.21922678 7
-2.087172 -8.5270605 0.84160441 9
-2.0596139 2.4117439 0.61006278 13
-2.3241858 2.8057003 0.64629519 13
-2.2255342 -9.3339081 1.2261579 10.333333
-2.0424285 2.1327915 0.79432076 15
-2.0770047 -9.4361362 1.4341986 11
-2.255892 -9.0888557 1.8827715 12
-2.109987 -8.6393232 2.395853 14
-2.1404006 -9.8326721 2.6280458 14
-2.3966024 -9.0771923 2.6138401 14
-2.2535832 -8.5311375 2.5896473 15
-1.8058246 -9.2793446 0.17720717 7
-1.7590163 -8.8643246 0.083102562 7
-1.9113611 -8.6083879 0.10418402 7
-1.8059639 -8.304493 0.43400311 8
-1.9640129 -7.6028805 0.31315172 8
-1.6338965 2.436255 0.25821468 10
-1.8381388 -8.3489799 0.83225799 9
-1.8032384 2.2372372 0.44069225 12.333333
-1.7987396 2.5742128 0.47271466 12.25
-1.8323905 -9.3688974 1.2476693 10
-1.7324227 -9.3891554 1.4262688 11
-1.6770601 -8.4572287 1.7799764 12
-1.6617044 5.7163019 1.0505512 13
-1.8624574 -8.6059284 2.0446682 12.666667
-1.8182074 -9.9697962 2.6171923 14
-1.796289 -9.2785044 2.5956924 14
-1.7613553 -8.5608492 2.5718489 15
-1.9994004 -9.2232389 2.6029127 14
-1.5568173 -8.9288731 0.067944705 7
-1.4425263 -8.8094292 0.32078764 7
-1.2169765 -8.5570107 0.25908846 7
-1.5168072 2.2459688 0.30589002 11
-1.5851036 -8.1002569 0.81972045 9
-1.3310694 -7.7789092 0.80415231 9
-1.5910066 2.1446416 0.3762157 12
-1.5720053 2.5611153 0.50098366 12.5
-1.354974 -9.6144924 1.2527626 10
-1.562058 -9.5276985 1.255949 10
-1.4420575 -9.6115456 1.4500586 11
-1.4267502 -8.2080011 1.7413368 12
-1.6137589 5.7378016 1.2450246 14
-1.3535663 -8.1239386 2.053129 13
-1.5576651 -9.8293848 2.5611308 14
-1.3279176 -9.4248962 2.5216799 14
-1.3742188 -8.5748577 2.5614965 15
-0.82772034 3.243942 -0.096438147 7
-0.97337115 3.6331923 -0.10617512 7
-1.1917187 -8.5426245 0.32906029 8
-1.0027977 0.80356979 0.32133996 15
-0.94045019 0.97422206 0.32891068 14.5
-0.85152131 5.2769899 -0.10095004 7
-0.84385663 -5.196187 0.7720589 11
-1.0503998 0.89886242 0.37423956 15
-0.93453372 3.522953 0.49160761 11.8
-0.93362349 3.6593204 0.35825321 10.333333
-1.1309885 -9.3454561 1.1489455 10
-0.9127363 -9.1030121 1.2582619 10.5
-0.97620636 3.5037408 0.72073233 13
-0.84813744 4.4008112 1.0567693 14
-0.97843915 4.4777718 0.94849229 13.4
-1.1683846 6.3401065 0.9963392 12
-1.1999456 -9.4589634 1.4341611 11
-1.1440884 -7.6871748 1.6579025 12
-0.89490414 6.606472 1.4157283 14
-0.86087936 -7.995266 2.1274734 14
-1.0788667 -7.7468443 1.829657 13
-1.1251389 6.3229489 1.6071653 14.666667
-0.94074428 6.5465703 1.6402982 14.5
-1.1638277 -9.3422604 2.557996 14
-0.99059826 -8.566824 2.5517259 15
-0.45778972 3.6517715 -0.12613842 7
-0.5561344 -2.1606061 0.15129842 8.5
-0.40561923 -1.4295089 0.10391673 8
-0.57243556 -0.61899227 0.065848418 9
-0.48726109 1.3512206 0.12735936 10.333333
-0.46864992 2.26826 -0.047099177 7
-0.55491817 2.5014262 -0.056974228 7
-0.67222404 2.8204815 -0.073575154 7
-0.49167317 1.4123598 0.38140643 14.5
-0.56191748 3.4690311 0.57822448 12.5
-0.72719854 3.8179746 0.47053191 11.2
-0.66429269 4.0280423 0.51838118 11
-0.70854294 -8.86971 1.373582 11
-0.60204828 4.2018051 0.9155708 13.5
-0.6482451 -7.7420864 2.0576742 14
-0.77816045 6.7432599 1.5773354 14.5
-0.70912796 -8.6041508 2.5576074 15
-0.078381866 1.9830561 -0.050465152 7
-0.13930637 2.2520852 -0.063646063 7
-0.2199953 2.6103268 -0.083003379 7
-0.2902157 2.9218175 -0.099592395 7
-0.38501325 3.3446114 -0.12422966 7
-0.13792646 -1.6996672 0.12926489 8.666667
-0.086745515 -1.373818 0.27501497 12
-0.1022604 -0.9997071 0.073981032 8.5
-0.09821701 -0.60681355 0.058118924 9.25
-0.010611645 0.55616701 0.001166668 8
-0.17998953 1.0294933 -0.0073575731 8
-0.1923375 1.3510481 -0.010051234 8
-0.1552528 1.7620771 -0.030156394 7
-0.39644989 2.0729668 -0.038602393 7
-0.30396855 2.8296719 0.04666537 8
-0.39551425 1.3069881 0.37124574 15
-0.1118129 2.7562091 0.56607634 13.6
-0.22421139 2.8756819 0.46684346 12.5
-0.40003198 3.3043826 0.52569366 12
0.28655434 -0.48283875 0.0065420908 6.6666665
0.36839977 -0.36378047 0.00025623094 6.5
0.3996352 0.3350637 -0.038326323 5
0.23859584 1.0304179 -0.044909455 6.3333335
0.1986488 1.3529248 -0.061402798 6.3333335
0.21598209 1.8328781 -0.10270873 6
0.19438079 2.0882332 -0.12310912 6
0.075817071 3.1195016 -0.078720652 7
0.21418466 -1.3495519 0.26124316 11.833333
0.18908596 -1.0164742 0.19427903 11.3
0.17137443 -0.57626176 0.041927423 8.375
0.37037441 -0.38795164 0.017598396 7
0.16199638 0.61451787 0.0004192577 7.8000002
0.082892992 0.9372502 -0.01211841 7.3333335
0.043347534 1.4490618 -0.027638502 7
0.041952617 2.8445206 0.17420758 9.5
0.39294595 -1.3309919 0.44353607 15
0.19400175 2.700242 0.53737718 13.25
0.34706056 2.9126472 0.4424912 12
0.31523448 5.1978207 0.51891965 11
0.30317232 3.620301 0.78156114 14
0.45274916 -0.47510004 0.0061487514 7
0.50574732 -0.21656263 -0.014903812 5.8000002
0.59099936 0.18294553 -0.021846835 5.8888888
0.58057487 0.74591297 -0.021794107 7
0.56611675 0.99439991 -0.035409298 6.8000002
0.5841856 1.3886868 -0.048903164 7
0.55860001 1.8613782 -0.06692151 7
0.59752268 2.2213686 -0.086871251 7
0.57938409 2.6199365 -0.10804574 6.6666665
0.48553073 3.0830698 -0.12944178 6
0.61822635 -1.6421425 0.27054289 10.666667
0.5638122 -1.4003681 0.33458021 12.666667
0.59405655 -0.99017406 0.19908501 11.2
0.52098328 -0.61327046 0.062027156 8.5
0.71136141 0.20180662 0.010631124 7
0.57650524 0.53706563 0.0010572752 7.5
0.45995292 3.4863226 0.010493354 7.5
0.73228794 -1.6100934 0.51963669 14
0.60939121 -1.4798822 0.49226105 14.6
0.54048842 2.5126574 0.54168677 13.6
0.60706663 3.1720288 0.57472682 12.5
0.46085417 5.3437629 0.549595 11
0.59597623 8.5839243 0.59129375 10
0.7676276 3.3999791 0.7501083 14
0.75993919 8.7379532 0.68422788 10
0.73211896 8.5864878 2.0980041 15
1.0684066 -1.6081599 0.047473315 7
0.92901087 -1.2822887 0.039320778 7
0.98694628 0.36511827 -0.0073611704 7
0.99413121 0.63022429 -0.025108321 6.5999999
0.98298788 0.87421292 -0.028226322 7
1.1365076 1.4617378 -0.068169884 6
1.0516032 2.2321665 -0.10923972 6
1.1298431 2.4860523 -0.12946559 6
0.84719825 2.8673785 -0.12780593 6
0.94108582 3.4588561 -0.14545202 6
0.84672332 -1.7295289 0.29142901 10.666667
1.0000887 -1.3754199 0.32383361 11.857142
0.87560862 -1.1580335 0.037277501 7
0.85929072 0.2909373 0.0098172789 7
0.86736596 3.3095531 0.057689015 8
0.96536326 -1.3728191 0.50073701 14.6
1.0798893 -1.1805494 0.44616246 14
0.88158339 2.8726757 0.51607645 12.5
0.98153895 3.4100959 0.65235537 13
0.94849372 6.7914 0.62000394 10
0.83531767 6.8321657 0.53935975 10
0.90715605 8.9607973 0.55991238 9.333333
0.93661183 3.4262223 0.75139779 14
1.0699638 9.0713673 0.66940606 10
0.88372302 8.8272963 1.1763986 11
1.116299 9.0727797 1.2075409 11
1.124951 9.070529 2.0955665 14
0.8067432 8.6858721 2.2249184 15
1.0340937 8.9333172 2.2772937 15
1.2683728 0.6092757 -0.012190957 7
1.4212081 1.0251343 -0.054194573 6.25
1.2459265 1.4332983 -0.066697918 6
1.5358001 1.9067113 -0.1043678 6
1.3748689 2.2277613 -0.12778091 6
1.3580476 2.6382196 -0.15104537 6
1.3291972 3.1375854 -0.17573543 6
1.4626436 3.575645 -0.20451729 6
1.5932796 4.0124331 -0.22365217 6
1.3752729 -1.3068351 0.33707857 11.6
1.2490338 -1.1391202 0.33658776 12
1.403446 0.28689635 0.3486422 14
1.4979903 0.50037205 0.36754686 14
1.3748794 3.5271513 0.086619854 8
1.4214773 3.6018963 -0.0122445 7
1.4031631 -1.3796582 0.58065325 14.5
1.2638725 -1.1424255 0.49463624 14.5
1.5162202 0.36471128 0.43067387 14.5
1.522662 0.44908431 0.43268466 14.5
1.2004201 3.1809516 0.49641043 12
1.3578 3.4196312 0.46553573 11.333333
1.5078135 4.2886572 0.65119499 11.5
1.289502 3.9148037 0.7429511 13
1.5282463 4.2888894 0.80012685 13
1.3687881 9.3840618 1.2442346 11
1.5047942 8.5434742 1.6598907 13
1.3661186 9.4332695 1.4006623 12
1.2577848 9.0497208 2.3029239 15
1.4932591 9.4365139 2.3376811 14.5
1.6220301 0.74540085 -0.018236801 7
1.816009 1.1132914 -0.064782344 6
1.8029404 1.3946588 -0.11364871 6
1.7407385 1.71498 -0.10418507 6
1.7597419 2.6381328 -0.16265024 6
1.7973901 3.1634803 -0.20096564 6
1.8384694 -0.14404468 0.32714289 11.833333
1.6467166 0.048676092 0.32377648 12
1.9423347 5.3719673 -0.056155186 7
1.8540105 -0.16763085 0.5131532 14.375
1.6535773 0.057030402 0.45802778 14.5
1.8200686 3.3561873 0.56125563 11.75
1.8380158 3.6622653 0.50769204 11
1.6709435 4.3663936 0.66015309 11.5
1.9479568 5.6044941 0.44164509 10
1.911751 3.3305852 0.74737448 13
1.7700918 4.3923249 0.8354972 13
1.8690376 8.9315233 1.5273298 12
1.8433194 9.9617195 2.5015264 15
2.2198076 1.0962156 -0.07355921 6
2.2071471 1.7869905 -0.16010717 6
2.1485686 2.2241542 -0.1499088 6
2.101289 2.8290284 -0.18060292 6
2.3670084 3.2629607 -0.21516277 6
2.0307024 3.6798732 -0.24188454 6
2.3770597 4.4447508 -0.3055402 6
2.2303076 -0.50196081 0.33288777 10.857142
2.0924881 -0.34184581 0.29576185 10.5
2.1000524 1.1232748 0.32259324 11
2.2409132 -0.56970292 0.59822297 13.8
2.0649443 -0.32007682 0.56398493 14.25
2.1578069 1.0762819 0.57373315 13.5
2.015547 3.4913385 0.66550922 12
2.0677001 3.7043138 0.49972683 10.5
2.320575 5.3339286 0.55475205 10.333333
2.317492 6.3966084 0.35916877 9
2.1733675 6.4588704 0.36768198 9
2.0635252 3.428524 0.76544631 13
2.3875597 5.2780972 0.78047925 11
2.1505847 9.216135 1.5597463 12
2.6567261 1.3541539 -0.10399316 6
2.4034569 2.5417564 -0.18036401 6
2.7261822 3.8495321 -0.26181558 6
2.7098396 -2.8941102 0.34216666 9
2.791579 -1.2028304 0.39062902 10
2.6386228 -0.83540082 0.30360332 9.8000002
2.5385551 -0.70810074 0.28693175 9.7142859
2.6339588 5.3244467 0.17620106 8
2.6493242 -0.95137566 0.66724652 13.333333
2.5062845 -0.68070918 0.62926304 13.4
2.5189574 5.3432093 0.50283355 10
2.4971881 6.4734969 0.52821654 9.5
2.7634001 -0.88632959 0.86895859 15
2.517544 5.2478132 0.78394461 11
2.697289 6.4035821 0.85512054 11
2.3841507 8.9131279 1.330018 12
2.4481771 9.484026 1.588708 12
2.7628741 9.6159973 2.1834438 14
2.8324559 2.4045105 -0.19076094 6
3.1384497 3.4595025 -0.26236901 6
3.1478684 6.2516952 -0.26981777 6
3.0445335 -2.9793272 0.37663934 8.5
2.855093 -2.5950673 0.30622631 8.5
2.9737208 -1.378896 0.38560221 10
2.9442081 -1.0357292 0.26764077 9
3.0011168 2.2168686 0.29067987 9
2.9443161 -3.1009316 0.78181183 11.5
3.0181262 -1.3089322 0.65303314 12.25
2.9343951 -1.0295049 0.68642932 12.714286
2.991637 5.2596846 0.39722478 9
2.8795776 6.0414028 0.42635697 9
3.0129988 -1.0915345 0.91708666 14.5
3.1129513 7.0417933 2.1919844 15
3.0701413 8.8863831 2.1906328 14
2.9699395 9.4977713 2.183253 14
2.9356945 9.7801361 2.8591657 15
3.3850474 1.7836492 -0.15773432 6
3.5776882 -3.6607704 0.3461349 8.5
3.3052826 -1.706426 0.44288388 10
3.4033022 -1.4077083 0.2507517 8.5
3.5689199 -3.6567783 0.84626454 11
3.4287496 -1.7946707 0.68784511 11.5
3.3236749 -1.3455453 0.67531103 12
3.3967292 -1.4659245 0.99852663 14
3.213196 8.2500324 0.97836214 11
3.5468545 -3.7068539 1.4719008 14.5
3.516736 8.0330009 1.2228355 12
3.2463443 6.8911924 2.1617756 15
3.4255435 8.5968857 2.1664338 14
3.4412985 9.1035757 2.1682551 14
3.1779604 9.3892107 2.1870186 14
3.9268029 -3.2498071 0.034780566 6.5
3.9835649 -3.1704588 0.10180466 7
3.6922526 -1.8402383 0.049737453 7
3.639775 -3.5978136 0.28805599 8
3.8156488 -3.3928163 0.33186194 8.333333
3.991554 -3.1841397 0.48335806 9
3.7708168 -1.734789 0.26277772 8.1999998
3.6208889 -1.590588 0.38201517 9
3.7895069 1.0774839 0.23487841 8.75
3.9629781 1.3400742 0.20362969 8.5
3.6041558 -3.6274567 0.91778171 11
3.8537157 -3.3536184 0.75933766 10.4
3.84725 -2.2288661 0.56595534 10
3.7509184 -1.6910869 0.66906518 11
3.8125694 1.0862291 0.46616489 10.5
3.9763193 1.4275409 0.50005227 10
3.7254395 9.7989101 0.32235253 8
3.8498116 -3.3610013 1.0354789 12.333333
3.6852016 -2.015075 0.94054151 13
3.7901204 -1.7257288 1.094805 14
3.8434727 7.7114735 0.97823197 11
3.652168 -3.5924582 1.4852962 14.5
3.9656401 -3.2439182 1.4985938 14.5
3.9810686 -1.891397 1.3293214 15
3.7919219 7.8102741 1.2160416 12
3.8632824 8.1820278 1.6412168 13
3.7392657 8.6878033 2.1590698 14
3.9183419 8.9034204 1.9851612 13
4.1624975 -2.9471672 0.020508543 6.5
4.2571807 -2.6214535 0.0055882679 6.3333335
4.245595 -2.3658199 -0.028816322 6
4.3663697 2.3956571 -0.012900822 7
3.9970622 -3.2137556 0.43635237 9
4.1488242 -2.9774559 0.31321499 8
4.3041773 -2.6993816 0.31024316 8
4.1482477 -2.0098982 0.32097539 8.5
4.0536785 -1.9338411 0.22886012 8
4.1263485 1.4102414 0.24941064 8.5
4.2935767 1.6189731 0.3741549 9
4.3749638 9.1787996 -0.12747115 7
4.1687069 -2.9828889 0.71445984 10.4
4.3424182 -2.6897924 0.7145642 10.5
4.1340938 -2.0220139 0.81095487 11.5
4.083262 -1.9582399 0.60207099 10.5
4.0003829 -3.199652 1.1651478 13
4.177557 -2.9771616 1.1005151 12.5
4.2492008 -2.0989492 1.0895721 13
4.1935792 -2.9683187 1.5318058 14.6
4.292778 -2.5285256 1.575554 15
4.149375 -2.026861 1.4968554 15
4.2410035 7.7723999 1.5921004 13
4.1611013 7.9853544 2.1432891 14
4.097415 8.3109179 2.146899 14
4.1818643 8.7210636 2.0396581 13.333333
4.4501519 -2.5277741 0.052817475 7
4.417769 -2.2703593 0.046498153 7
4.6918125 9.7041178 -0.4809989 6
4.5043235 -2.5263293 0.31382501 8.25
4.4141016 -2.261611 0.29948238 8.5
4.5596771 1.8609121 0.21924959 8.125
4.6743827 2.1484318 0.1584553 7.75
4.4484391 2.4746273 0.18057154 8
4.7497864 4.3199058 0.1471765 8
4.4805837 -2.5804942 0.66326028 10
4.4353743 -2.2928417 0.65486723 10.5
4.5078936 1.8357176 0.52591115 10
4.6016178 2.1076543 0.54106939 10
4.6984897 4.3733983 0.5526728 9.5
4.4904132 -2.5802305 1.1029435 12.5
4.4491735 -2.3319755 1.0556271 12.5
4.7498684 4.3529921 0.89786303 11.5
4.5190277 -2.5750604 1.5549765 14.5
4.4547529 -2.2990429 1.5215251 15
4.7704773 7.2066646 1.2888921 12
4.4729495 7.5071731 1.3248069 12
4.7210116 7.3239717 1.6603751 12.5
4.6525803 7.8526621 2.1376526 14
4.4765768 8.1745768 2.1392305 14
4.5485439 8.6698246 1.9792833 13
5.1623073 3.7007749 -0.23482786 6
5.0567832 3.8439002 0.21461055 8.1428576
5.0918102 3.8366776 0.71692479 10
5.1553946 3.9461176 0.99846971 11.5
5.1767879 3.9734318 1.6835496 14
4.8453755 4.3225017 1.6112673 14
4.8429627 7.1956978 1.5287167 12
5.092032 7.5034804 2.1276667 14
4.8653884 7.7838922 2.128227 14
4.9695616 9.7651501 2.9307895 15
5.3432007 8.1873217 -0.4539187 6
5.524672 3.4607003 0.15095492 7.6666665
5.2974219 3.6516259 0.21303755 8
5.3097405 5.0685205 0.12278269 8
5.2797761 8.2715616 -0.011327185 7
5.2909656 9.1093102 0.21498072 8
5.2323408 5.0839014 0.58712214 9.5
5.4379835 8.9261656 0.38003615 8.666667
5.2979088 5.0781384 0.89787239 10.666667
5.5177312 9.8086462 0.87357068 10
5.4171596 5.0713482 1.7929826 14
5.5543952 4.7141676 2.0714228 15
5.4528289 7.1711421 2.1154671 14
5.3251996 7.2939014 2.1219516 14
5.4290638 9.5089445 2.8963253 15
5.7565575 3.183939 -0.32083359 6
5.8051567 3.2173212 -0.29360294 5.5
5.7205791 3.3075681 0.2323312 8.1999998
5.8070054 8.1317978 0.16025852 8
5.7618103 3.2940872 0.54430306 9.5
5.7251949 3.3679843 1.0031776 11
5.7374091 9.5002317 0.91846174 10
5.7926655 9.6661835 0.7923823 9
5.7092085 3.4104912 1.3425748 12.5
5.6978607 9.5403118 1.1585193 10
5.6848297 3.4541121 1.721253 14.5
5.8193121 4.694737 1.8914814 14
5.6850648 8.0637398 1.6765392 12
5.8435297 9.4374609 1.4563069 11
5.7203755 4.6344543 2.0775304 15
5.8237009 6.7151666 2.1014936 14
5.5759978 6.9932513 2.1076365 14
5.7158942 8.2086239 1.9716508 13
5.890409 8.4386845 2.9586751 15
5.829833 9.1557713 2.840338 15
6.3115625 7.5175805 -0.3252793 6
6.0826674 2.980731 0.19850166 7.75
6.2768273 7.5706859 -0.028874855 7
6.1393981 2.9512174 0.62932408 9.6000004
6.2568393 7.8571935 0.28517202 8
6.3918176 8.4703465 0.35678548 8
6.2105699 9.2819614 0.34501341 8
6.2967486 2.8249726 1.0771387 11
6.1583962 2.9336874 1.0103203 11.5
6.241786 9.1557207 0.85233992 9.5
6.0782495 9.4054632 0.79685199 9
6.3081555 2.8109894 1.5139571 13
6.176126 2.9235651 1.5113757 13
6.1880889 9.1454229 1.1562115 10
5.9949856 9.3097305 1.1579796 10
6.3639231 2.7986891 1.6319096 14
6.2015266 2.9148736 1.7112405 14
6.2663102 9.102725 1.4698946 11
6.0839558 9.265811 1.4480474 11
6.1855636 5.2408795 2.0364175 14
6.3316798 6.0419278 2.0870898 14
6.1510167 6.2803316 2.0916147 14
6.0883141 6.5548143 2.0988479 14
6.2520576 7.9730592 1.9691182 13
6.0439682 8.0779619 1.9720317 13
6.2113266 7.3289385 2.7304087 15
6.2310038 8.2925987 2.9576993 15
6.3102541 8.7102537 2.7742686 15
6.4310942 7.6973023 0.26856178 8
6.5807028 2.6090541 0.74381357 10
6.4504619 8.4154425 0.58318466 9
6.5855184 8.4344311 0.43522578 8.5
6.5030951 9.0076456 0.3083072 8
6.5742226 2.2887361 1.1986177 12
6.5261912 2.5737126 1.1181011 11.25
6.5623336 8.6248989 0.8245908 9.5
6.4829469 8.924407 0.8481285 9.5
6.5172157 2.6488559 1.4924721 13
6.7793655 8.6875343 1.1524019 10
6.52175 8.8832588 1.2961776 10.5
6.5629864 2.3375432 1.9788337 15
6.5789456 2.5484328 1.7759665 14
6.7479024 8.7060862 1.480388 11
6.6044235 8.9359064 1.6577857 11.5
6.3832588 5.6769633 2.1428483 14
6.6001787 6.5647125 2.066489 13.5
6.57517 7.8215876 1.9664352 13
6.6829538 8.3478384 2.7251327 15
7.0938344 7.1219196 0.036149237 7
6.8575845 7.3381777 0.14445296 7.5
7.1842198 8.2126398 0.23876144 8
7.0682211 1.7753072 0.74837387 10
6.9647069 2.2840636 0.6800707 9.75
6.9244032 7.0659847 0.3635408 8
7.1696115 8.0394602 0.39872974 8
7.0164819 1.8445492 1.0765158 11.25
6.9187284 2.3225234 1.1035129 11
6.96137 7.0721245 0.88897222 9.5
7.0290766 8.5710936 0.80621058 9
6.9914451 1.8923748 1.4656655 12.333333
6.9169955 2.2448392 1.437598 12.5
7.0534806 7.11518 1.209566 11
6.8604507 8.6164112 1.4327302 11
6.8954983 2.0383668 1.9921421 15
6.9783587 2.2818539 1.7344296 13.5
6.9505606 8.6897774 1.7046522 11.666667
6.9939365 1.6992735 2.1553757 15
7.1255465 6.0062628 2.0105934 13
6.8724184 6.1904516 2.0136502 13
6.9828877 7.5844059 1.9578784 13
6.9868894 7.8741922 2.9428475 15
7.3023486 6.7743888 -0.58174098 6
7.272665 6.8223 -0.27959079 6
7.2549281 6.8561921 -0.078513503 7
7.2809687 1.5583783 0.73520511 10
7.2165556 1.6339729 0.96084541 11
7.4046659 8.2445354 0.86103356 9.666667
7.2283387 1.6797595 1.5018936 12.5
7.44663 8.2226744 1.4355581 11
7.2626271 1.6608478 1.8078662 14
7.3971009 8.2824774 1.7678365 12
7.2148228 8.465354 1.7855752 12
7.312582 5.8948007 2.0128551 13
7.311501 7.4203024 1.9560438 13
7.3972006 7.5949969 2.9272506 15
7.201014 7.7444077 2.937597 15
7.7854309 6.613503 0.075989813 7.5
7.6058002 8.1404676 0.37888721 8
7.6368022 8.0875921 0.76092011 9
7.7199774 6.5314426 1.8554963 12
7.8517718 7.8250465 1.7259672 12
7.5793657 8.1014977 1.751285 12
7.6934595 7.3671565 2.9139051 15
8.1241608 7.5524817 1.7020292 12
8.0445919 7.1272907 1.9635979 12
7.9717817 7.1176968 2.895272 15
8.4682674 6.9666977 0.10390811 8
8.5825701 6.9409842 1.9763854 12
19.026417 23.518097 2.483357 10
19.194168 23.262762 0.90421087 8
19.50675 23.038452 2.4742765 10
19.391806 23.023516 3.4190593 11
