# .PCD v0.7 - Point Cloud Data file format
VERSION 0.7
FIELDS x y z intensity
SIZE 4 4 4 4
TYPE F F F F
COUNT 1 1 1 1
WIDTH 169
HEIGHT 1
VIEWPOINT 0 0 0 1 0 0 0
POINTS 169
DATA ascii
-10.513515 -5.756741 -0.084478788 7
-10.430761 -5.8125963 0.77910274 9
-10.45248 -5.7922082 0.96959323 9
-8.4591808 -4.749558 0.085217103 7
-8.4863605 -4.7553525 0.39850241 8
-8.5022306 -4.7822542 0.89562368 10
-8.5821524 -4.7610316 1.9375579 13
-8.2911272 -4.2264819 -0.20034151 6
-8.3292818 -4.4180093 0.1086838 7
-8.2330637 -4.1483564 0.13632326 7.3333335
-8.1261206 -3.8516312 0.059743676 7
-8.3269978 -4.4073739 0.56388146 8.5
-8.244216 -4.1515384 0.61974543 8.666667
-8.1276369 -3.8357632 0.72791648 9
-8.35427 -4.4439564 1.0356901 10.5
-8.2570181 -4.1519847 0.96540642 10
-8.3128204 -4.2663417 1.8440611 12.666667
-8.1123543 -3.7266495 1.714875 13
-8.1661901 -4.471139 2.2109737 14
-8.1925459 -3.8749216 2.0327363 13
-7.7076769 -3.0367041 -0.066539779 7
-7.8909502 -3.13129 2.1323586 14
-7.9068012 -3.8439865 2.632252 15
-7.2633615 -4.0628653 2.2532039 15
-7.3198695 -3.7582357 2.2517397 15
-7.5977674 -2.3788009 2.0759401 14
-5.77388 -4.4987707 0.0073495987 7
-5.3619785 3.4940495 0.21099645 8.333333
-5.2640119 3.7175846 0.26186576 8.333333
-5.3537908 3.502527 0.69230735 10
-5.2521453 3.7480273 0.51833791 9.333333
-5.3709269 3.4642286 0.9059369 11.333333
-5.2453175 3.7808785 0.98425448 11.5
-5.3922858 3.4086833 1.4227315 13.5
-5.2561822 3.7585611 1.4246718 13.5
-5.4773388 3.196559 1.6381193 14
-5.3679028 3.4833605 1.6523439 14.5
-5.24331 3.8153811 1.7125849 15
-5.1847472 3.9160874 0.277915 8.5
-5.1844974 3.9359508 0.52127314 9.666667
-5.0775723 4.24369 0.89220887 11
-5.1776509 3.9755502 1.447371 13.5
-5.0756288 4.231257 1.4387038 13.666667
-5.014976 4.4628601 1.2628722 13
-5.1905327 3.9496167 1.681897 14.5
-5.0930882 4.2341371 1.7268926 14.75
-5.0325017 4.452529 1.6682782 14
-4.6444259 5.4260368 1.0623389 11.666667
-4.5011044 5.7905574 1.0839808 11.5
-4.6945224 5.330152 1.3989122 13
-4.4816413 5.7945299 1.1601294 12
-4.4013977 6.0534706 1.0925312 11.5
-4.2138939 6.550703 1.0423015 11
-3.6782243 3.0267251 0.28461257 9
-3.8257365 3.0516019 0.55295414 10.4
-3.8239675 -1.1557963 0.79419303 13
-3.7112219 3.0485518 0.90369332 12.666667
-3.8417356 5.0493369 0.928985 11
-3.8626435 7.5597305 1.2750942 11.5
-3.7450492 7.7944522 1.2476342 11.5
-3.5344388 2.9748368 0.34260839 9
-3.5029101 2.9814072 0.57388765 10.8
-3.5139759 -1.3346829 1.0647089 15
-2.8120162 1.5685568 0.51296967 12
-2.9720273 1.8729095 0.64496022 12.5
-3.0816541 2.01126 0.54417717 11.5
-2.9505141 4.5130739 0.47918761 10
-3.0985489 4.5573378 0.88634682 12
-2.8502529 9.5452986 0.75250244 9
-2.6880374 1.5951576 0.51850396 12
-2.7479906 1.6489834 0.50533521 12
-2.4313257 3.0861161 0.57896936 11
-2.1322496 1.2111948 0.314437 11
-2.1484869 2.647023 0.29507115 10
-2.1183312 1.1920193 0.51360303 13.333333
-2.0581725 1.2793218 0.64766496 15
-2.1363235 2.4909685 0.71832842 13.5
-1.6621014 2.5393527 0.52686799 12
-1.7877572 3.3835175 0.69154072 12.5
-1.5790787 2.6161599 0.52014756 12
-1.4351392 2.9862552 0.53232419 12
-1.2875148 4.5702577 0.61480874 11
-0.84370935 -1.0783201 0.0029149314 7
-0.87825149 0.5035919 -0.030567337 6
-0.96305227 -0.97280151 0.30529431 13.111111
-0.98083115 -0.99469692 0.41909429 15
-0.60411179 -1.1183841 0.0038089682 7
-0.45359221 -0.56856591 -0.00095945608 7
-0.5618329 -0.23486152 -0.0079678111 6.6666665
-0.50597566 0.30844706 -0.02128916 6
-0.70129859 0.43252277 -0.022010542 6
-0.48379067 -1.2799958 0.26231638 12.5
-0.6204654 -1.0895365 0.28828061 13.125
-0.54484981 -0.65831393 0.0069806748 7
-0.51122361 -0.32260352 0.026262078 8.5
-0.7193228 0.59996992 0.033626352 8
-0.71949339 -1.1190263 0.40795651 15
-0.75717771 3.7579463 0.53525478 11
-0.25779963 -0.82197922 -0.0010365503 7
-0.16667221 -0.60695332 -0.0037183103 6.8000002
-0.26958367 0.47245368 -0.014240315 6.5
-0.25001341 -1.2729772 0.33060983 14
-0.19039886 -0.54974645 0.0082290489 7.3333335
-0.31038204 0.49527627 0.027647249 8.5
0.03151352 -0.52155536 2.8102082e-05 7
0.009933833 -0.55059254 0.0061955503 7
0.57958961 -0.083930075 -0.01735827 6
0.58525586 0.14560686 -0.019051623 6.125
0.59530783 -0.88321543 0.32774702 15
0.71047592 -0.15618931 0.013147338 7.3333335
0.60480732 0.19128513 0.10413463 11.769231
0.76948702 -1.2401767 0.41725495 15
1.1388493 -0.49638912 0.0051506334 7
0.91556239 -0.34991828 0.0044548656 7
0.9974001 -1.3247981 0.32620442 12.363636
1.033246 -0.42858249 0.014855617 7
0.9366945 -0.21435562 0.016968342 7.25
0.94580889 0.061760291 0.17603269 12.375
0.9919365 -1.2316275 0.46424329 15
1.2852614 -0.083793081 -0.0018136692 7
1.4192221 -1.3396072 0.3128446 11.428572
1.3752906 -0.65439057 0.027049018 7
1.4287277 -0.077633545 0.2173367 11.4
1.3123453 0.027851231 0.33844319 14
1.4510641 -1.355477 0.4963496 13.875
1.5240889 -0.052702297 0.44473788 15
1.8125546 -1.507079 0.32313809 11
1.811901 -0.16666666 0.33274451 12.2
1.7930382 -1.5030171 0.58568943 14
1.810071 -0.16395549 0.48449728 14.5
2.2161798 -1.6638073 0.26281348 9.666667
2.0122607 -1.5871241 0.21800826 9
2.2133012 -0.33052486 0.28710884 10.625
2.2463825 -1.6799572 0.62545431 13.2
2.0145102 -1.5897634 0.59451014 13.666667
2.2179253 -0.31958425 0.58101988 14
2.6242318 -1.8206686 0.22947216 9
2.6888144 -1.5165887 0.042147275 7
2.6486516 -0.55283356 0.25318506 9.625
2.5582769 -1.7991277 0.57116717 12.166667
2.6406872 -0.4806768 0.62475461 13.5
2.7478628 -1.9222385 0.86021858 14
2.7858319 -0.53633946 0.85293734 15
3.1952317 -2.0472844 0.23302189 9
2.9064369 -1.9317468 0.17675789 8.5
3.0244679 -0.63026011 0.28691244 9.5
3.0944393 -2.0151877 0.53159273 11
2.8339133 -1.9147995 0.58106381 11.5
2.9980149 -0.61459768 0.60618776 12.5
3.1835978 -2.2137387 1.2003101 15
3.0171535 -0.62689579 0.90178853 15
3.2589853 -2.0386767 0.16563489 8
3.3594613 -1.7616426 0.2222459 8.636364
3.4556327 -1.3868263 0.24980302 8.875
3.4907069 -1.0438787 0.25841412 9
3.388361 -0.76193237 0.31744772 10
3.2489252 -2.0311518 0.61317307 11.5
3.3454258 -1.7703301 0.63677973 11.7
3.486346 -1.3912209 0.63038337 11.75
3.5204434 -0.98780876 0.63046575 11.75
3.3286684 -0.7421214 0.63405502 12.333333
3.2384846 -2.0847387 0.9706586 14
3.3560874 -1.7466165 1.0008664 14.6
3.4928949 -1.362628 0.97528535 14.2
3.5514662 -1.0397518 0.95710719 14
3.4284401 -0.7749036 0.9608233 15
3.6163306 -1.0254561 0.29584101 9.25
3.6309412 -0.9909181 0.63115311 11.75
3.6204679 -1.0083735 0.98304778 14.2
