# .PCD v0.7 - Point Cloud Data file format
VERSION 0.7
FIELDS x y z intensity
SIZE 4 4 4 4
TYPE F F F F
COUNT 1 1 1 1
WIDTH 30
HEIGHT 1
VIEWPOINT 0 0 0 1 0 0 0
POINTS 30
DATA ascii
-4.9010754 -7.36554 0.072474509 7
-3.1825347 -1.149586 0.85353619 14
-3.0940845 -0.79434282 0.41314009 10
-3.1025953 -0.77162451 0.66200638 12
-3.1492171 -0.74787605 0.98373204 15
-1.0552958 -0.74503016 0.37886176 15
0.49157205 -1.0439892 0.3126609 15
0.86095423 -0.43766406 0.21996661 14
1.0391239 -0.41633031 0.087336063 10
1.154677 -0.36847386 0.15114959 11
1.3833755 1.0750394 0.11240425 9
1.2696319 -0.31289536 0.3505671 15
1.3536886 -0.16655828 0.31363323 14.5
1.4531569 1.1806029 0.53373861 15
1.69391 -0.063589163 0.28028297 12.5
1.7737374 1.2818658 0.55268389 14
2.3001504 1.4727075 0.41011566 12
2.5197413 1.4803429 0.54484016 13
2.5331779 1.4821309 0.79120851 15
2.6647751 1.3930825 0.31365889 10
2.7318101 0.88619602 0.3479147 11
2.6546676 1.1288066 0.38394526 11
2.6146507 1.24935 0.46148843 12
2.660413 1.393389 0.37644327 11
2.8018222 0.73018682 0.65250039 14
2.8076694 0.72298181 0.7614404 15
2.8718929 0.49469525 0.28835443 10.5
2.8939378 0.3301191 0.46066788 12.5
2.8953917 0.31348944 0.66941315 14
2.8873928 0.49641177 0.74779356 15
