# .PCD v0.7 - Point Cloud Data file format
VERSION 0.7
FIELDS x y z intensity
SIZE 4 4 4 4
TYPE F F F F
COUNT 1 1 1 1
WIDTH 71
HEIGHT 1
VIEWPOINT 0 0 0 1 0 0 0
POINTS 71
DATA ascii
-7.5335593 3.071053 2.0386953 15
-7.4875808 3.4552541 2.0172446 15
-7.4548359 3.7104821 2.0161867 14.666667
-4.4694872 2.5022233 0.20982589 9
-4.5044341 2.472147 0.45390058 10.5
-4.2710161 2.4983509 0.089845501 8
-4.3676004 2.4463563 0.46368378 11
-1.8249564 1.0090066 0.31863925 12
-1.8533674 1.0694867 0.50943321 14.6
-1.8562117 1.243201 0.52694786 14.5
-1.3810736 1.1198862 0.30077586 12.666667
-1.3703797 1.130988 0.39684537 14.2
-1.0195501 1.097654 0.29792506 13.5
-1.0060886 1.0963296 0.38228804 15
-0.67473429 -0.41114023 -0.0054203849 7
-0.52396864 -0.28965595 -0.0070452797 7
-0.54935342 0.2599304 -0.025894843 7
-0.75360745 -0.43945736 0.0076711006 7
-0.56898737 -0.35675383 -0.001324245 7
-0.4798595 0.23997922 -0.0078152595 7
-0.25995567 -0.47127774 -0.00093511329 7
0.25599217 -0.47287029 0.0075723771 6.6666665
0.34116191 -0.37221724 0.0036037038 6
0.27293307 -0.48936623 0.089810833 10.555555
0.33465001 -0.38865426 0.017911512 7
0.37907791 0.98659104 0.23739944 14
0.60129243 -0.043529823 -0.0075717773 6.3333335
0.56699842 0.12955575 -0.019952765 5.7142859
0.61011767 0.60842484 -0.011042392 6.75
0.60948914 0.94011927 -0.022977814 6.75
0.76685596 -0.063094817 0.030822843 8
0.73274183 0.15783407 0.023276817 7.6666665
0.73132974 0.66884524 0.0015172048 7
0.59199739 0.98873067 0.15576859 11.388889
1.1435326 -0.073585518 0.02310057 7
1.0645065 0.35536638 0.0097066332 7
1.001545 0.60080659 0.00092199887 7
0.94000059 0.84769046 -0.020331053 6.5
1.0215554 -0.23780712 0.18899399 11
0.98795438 0.20455384 0.025406443 7.3333335
1.0049132 0.69980496 0.076136947 8.666667
0.93657577 0.91376603 0.22234119 11.928572
1.0485352 0.9065218 0.41464156 15
1.2985815 0.15373157 0.01574978 7
1.4591783 0.57015085 0.0069598285 7
1.4405234 -0.40530717 0.38636863 13.6
1.3210804 -0.33579019 0.25161967 11.666667
1.5907694 0.35966358 0.029964713 7
1.3026747 0.70177281 0.11997949 9.333333
1.4287025 0.87018651 0.35969391 13
1.4841967 -0.40887961 0.45232853 15
1.4023522 0.87250715 0.46286646 14.5
1.6390309 0.20219359 0.025793508 7
1.7892439 -0.4387922 0.36276728 12
1.8319253 -0.33182752 0.053095795 7
1.9105167 0.25335395 0.10786349 8.5
1.887392 0.58783191 0.092000477 8.1999998
1.8021891 0.83795345 0.34617108 11.5
1.8257977 -0.44151095 0.53744352 14.5
1.9423275 0.80758303 0.55801982 14
1.7688545 0.83104265 0.51074177 14
2.1822002 -0.42345181 0.2660203 9.8571424
2.2029026 -0.23904538 0.29624429 10.461538
2.2333405 0.14780971 0.2777172 10.142858
2.2057996 0.639943 0.32483989 10.777778
2.0259657 0.81382239 0.34625682 11
2.17294 -0.44855136 0.57099807 13.5
2.1976326 -0.23571752 0.60668719 14.1
2.2347903 0.21152021 0.55914843 13.5
2.2057488 0.65308517 0.58802766 13.769231
2.0460207 0.83355552 0.58226901 14
