# .PCD v0.7 - Point Cloud Data file format
VERSION 0.7
FIELDS x y z intensity
SIZE 4 4 4 4
TYPE F F F F
COUNT 1 1 1 1
WIDTH 16
HEIGHT 1
VIEWPOINT 0 0 0 1 0 0 0
POINTS 16
DATA ascii
-1.3195932 1.0597829 0.75272483 13
-1.2222209 -0.49849084 0.46689984 15
-1.2818085 -0.3470377 0.46361667 14
-1.0820192 1.0289165 0.72613901 14
0.22415556 0.65051651 0.27702713 15
0.35665417 -0.6308369 0.060730215 15
0.63276291 0.58363539 0.21055681 14
1.0159671 0.8204602 0.38573915 15
1.1037623 0.33023486 -0.036352862 9
1.1370764 0.45588869 0.026783958 10
1.3607838 0.75505847 0.39704734 15
1.4429032 -0.57640511 0.021077914 12.5
1.507001 -0.44302809 0.079631649 13.5
1.5701841 0.63122481 0.26081944 13
1.5206743 -0.50477618 0.17606655 15
1.5769867 0.66035873 0.3620345 14.5
