# .PCD v0.7 - Point Cloud Data file format
VERSION 0.7
FIELDS x y z intensity
SIZE 4 4 4 4
TYPE F F F F
COUNT 1 1 1 1
WIDTH 48
HEIGHT 1
VIEWPOINT 0 0 0 1 0 0 0
POINTS 48
DATA ascii
-2.0212405 1.1082116 1.2011577 15
-1.6598761 1.1180472 0.7772938 12
-1.779231 1.148173 0.78269863 11.333333
-1.6398027 1.059607 0.91617841 14
-1.8332604 1.134704 0.91034389 13
-1.2349354 -0.46805733 0.4365761 14
-1.2537358 -0.37888575 0.4849712 14.5
-1.3766986 1.0817822 0.73052156 12.666667
-1.3168838 0.98027676 0.80167848 14.333333
-0.93577391 0.95547742 0.65483314 14.2
-0.99577683 0.96950918 0.72042441 14.75
-0.57805288 -0.48815811 0.025765909 8
-0.47325417 -0.3216773 0.032261334 8
-0.11641958 -0.57497376 0.0092473999 11
-0.3926518 -0.3195765 0.020124435 8
0.3280488 -0.48661116 -0.12219949 7
0.37508672 -0.35536969 -0.11143228 7
0.27865103 0.55693257 0.040612157 6.75
0.20880459 -0.56878543 -0.021078052 11.263158
0.36144981 -0.38280362 -0.10123605 7.5
0.26734856 0.63491523 0.16854067 11
0.14619817 0.83283973 0.26329505 11.8
0.41496748 -0.46401328 -0.13000174 7
0.43129179 -0.28843808 -0.11663735 6.5
0.55748612 0.16277438 -0.070095941 6.125
0.54924309 0.5685935 0.005766823 6.75
0.46650219 -0.58872402 -0.042975146 11
0.45277825 -0.33938703 -0.1056492 7.5
0.68369848 0.20044191 -0.049716558 7.5
0.60016465 0.6044054 0.10982984 10.421053
0.56016254 0.80300874 0.1945422 10.666667
0.95619762 0.55207163 -0.047100276 7
0.96018654 0.85908163 -0.015025184 6.6666665
1.0821618 -0.5311957 0.094918981 14.666667
1.0434713 0.29042438 -0.0095868176 9.1999998
1.0672935 0.59172285 0.053716585 9.5
1.039049 0.82572097 0.17928864 11.285714
1.1938329 0.76807386 0.38661316 15
1.3804717 -0.53572941 0.061576873 13.5
1.5090681 -0.24870883 0.081586123 13
1.4519973 0.18766339 0.076337881 11.666667
1.4857774 0.55131632 0.22580437 13
1.3631898 0.75934863 0.25470826 13
1.4888961 -0.48546857 0.13924091 15
1.5266989 -0.26083949 0.18056451 15
1.5678934 0.16891015 0.25238436 14.666667
1.5292436 0.58103728 0.33746207 14.5
1.3461101 0.74530488 0.39680243 15
