# .PCD v0.7 - Point Cloud Data file format
VERSION 0.7
FIELDS x y z intensity
SIZE 4 4 4 4
TYPE F F F F
COUNT 1 1 1 1
WIDTH 207
HEIGHT 1
VIEWPOINT 0 0 0 1 0 0 0
POINTS 207
DATA ascii
0.026741726 -0.41370007 -0.066184759 179.5
0.15059018 -0.47587347 -0.094133079 180
-0.018660137 -0.36317113 -0.050983436 179
0.1433347 -0.32678777 -0.083325021 170.2381
0.24219792 -0.34131089 -0.099627808 167.38461
0.33378443 -0.34238777 -0.11004365 165.63637
0.43071139 -0.32339728 -0.11973903 166.35001
0.49128452 -0.31165567 -0.12648661 170
0.15075383 -0.28262967 -0.074219316 166
0.22988246 -0.2626332 -0.076594643 163.75
0.32411474 -0.21561958 -0.084823109 164
0.45513245 -0.26598027 -0.11383338 167.71428
0.53838634 -0.24800096 -0.1219202 169.22223
0.61535072 -0.19815253 -0.12252118 171
0.26323351 -0.11338289 -0.096625179 153.27272
0.34700173 -0.12486355 -0.098000325 150.69231
0.41369042 -0.12128596 -0.09292829 149.72414
0.58646059 -0.17386234 -0.11402318 170
0.5982818 -0.18358456 -0.11824936 169.66667
0.28110558 -0.087711349 -0.10844376 154.75
0.36008433 -0.037681084 -0.11559337 158.6239
0.41635096 -0.048388932 -0.10992952 158.90271
0.27707753 0.09378469 -0.063479982 143.5
0.36168677 0.049441159 -0.090984911 151.01083
0.41628101 0.063870393 -0.090263166 154.36055
0.26112309 0.13986918 -0.034557126 142
0.3451063 0.13795984 -0.048980176 142.99207
0.43937966 0.13967973 -0.053908326 146.06087
0.53380609 0.16627693 -0.070334859 144.92592
0.068862841 0.26540333 0.0091283591 165.70589
0.14444682 0.25810802 0.0025677758 154.10527
0.25017759 0.26253766 -0.0049488326 143.54546
0.36528668 0.25066268 -0.02126959 137.48
0.44807446 0.24196735 -0.039982263 140.19148
0.53505403 0.22420555 -0.061593652 144.95238
0.067624964 0.33220324 0.034345545 166.14285
0.16348848 0.3341012 0.0086139673 166.47368
0.25694335 0.33740392 -0.0010863303 152.88461
0.34846631 0.32214677 -0.011617552 140.625
0.42431313 0.30506256 -0.019234791 131
0.58616948 0.35102901 -0.036403038 147
0.071151756 0.41142231 0.044796627 165.66667
0.16497068 0.45051584 0.035020016 168.7
0.2514261 0.46894386 0.0239348 170.66667
0.36494517 0.47158018 0.0064865341 170.36363
0.45726219 0.44753557 -0.0068855477 166.2
0.52785015 0.41926911 -0.0214561 161.5
0.83019382 0.44905776 -0.058435366 161
0.25365862 0.49557826 0.034390017 170
0.5044409 0.85328239 0.04454387 196
-0.16348135 0.96007717 0.1621199 213
-0.010914819 0.97031665 0.14388549 211
-0.22011787 -0.54652643 -0.026067428 192
-0.19509533 -0.52375335 -0.030769277 187
-0.061773919 -0.51641059 -0.043574445 188.5
0.042483885 -0.51021975 0.013906217 187.66667
0.12442208 -0.52080321 -0.038952865 186.13333
0.23216844 -0.51318812 -0.084669709 183.64706
0.34767812 -0.51143014 -0.11332241 182.8
0.43123269 -0.50769424 -0.11981547 185
-0.14427009 -0.47756574 0.0038289316 190.18182
-0.041687172 -0.46280959 -0.008735951 188.08333
0.048990827 -0.46817878 -0.043830689 184.32001
0.1500479 -0.44799078 -0.076877668 178.27272
0.24605863 -0.46854627 -0.056286454 181.7
0.3312026 -0.45147511 -0.074673451 179.08333
0.44056708 -0.46653995 -0.094550431 181.16129
0.54433495 -0.45801461 -0.10727581 182.47826
0.62686771 -0.44793546 -0.094932415 186.65384
0.74736512 -0.43490779 -0.11492614 190.89999
0.85240591 -0.41986197 -0.11848801 194.66667
-0.038450528 -0.38121647 -0.035175249 181
0.053138141 -0.33275378 -0.042589299 176.05556
0.13414061 -0.36844799 -0.061049163 175.23077
0.22412528 -0.38163835 -0.080887146 173.60001
0.34056479 -0.37702811 -0.096616447 172.23077
0.43123147 -0.36748594 -0.09959197 169.5
0.5258047 -0.33575639 -0.10732984 172.28572
0.64818871 -0.35194838 -0.11948364 178.05556
0.72576344 -0.34317094 -0.11114734 183.33333
0.80853903 -0.37514174 -0.13152489 187.2
0.076535136 -0.27652025 -0.030930471 167
0.16066611 -0.24317864 -0.037116624 152.2
0.25291374 -0.24490933 -0.06855645 157.36363
0.33766943 -0.24100772 -0.080098316 162.65117
0.42803606 -0.23115024 -0.089948416 165.72093
0.55311948 -0.25634959 -0.10933536 170.35001
0.62397701 -0.24130905 -0.10371469 173.62962
0.71017307 -0.28760082 -0.1174456 176.83333
0.20369425 -0.16079807 0.045534294 122.6
0.2529977 -0.14780521 -0.0013574701 126.66666
0.34172207 -0.16051237 -0.048009545 137.13637
0.45194638 -0.15203544 -0.082763962 152.21127
0.52238107 -0.15061423 -0.087342091 161.39024
0.60620272 -0.19140966 -0.11647145 170
0.47749117 -0.090933673 -0.079284079 150.55556
0.4761585 0.098249711 -0.056175046 144
0.17458944 0.16860974 0.0074061444 140.08333
0.23314627 0.16406149 -0.0044359243 137.14815
0.34819031 0.17600244 -0.023451284 140.47058
0.41642293 0.17503637 -0.035668936 144.5
0.0060383338 0.28876042 0.057308074 160
0.028326854 0.27276197 0.046916701 165.71428
0.1730682 0.21563143 0.0096859792 145.8
0.25864708 0.22576356 -0.00098661077 138.44444
0.34093517 0.23658225 -0.013310743 138.45161
0.47133154 0.27902296 -0.020808734 131.33333
0.56058979 0.24864428 -0.032936763 136.46428
0.63685942 0.26223749 -0.041974194 141.25
-0.10628319 0.36884809 0.11121428 133.2
-0.026767012 0.34270164 0.078042828 145.85001
0.062008571 0.33629635 0.047363102 164.75
0.14780042 0.35721773 0.036428448 169.90909
0.26122785 0.37617838 0.021047745 167.3
0.36338258 0.3635394 0.0068222284 154.26315
0.45116836 0.33954746 -0.0062467987 146.53847
0.54760587 0.33523473 -0.01966659 148.70589
0.64877576 0.34336489 -0.026795583 158.04762
0.74048585 0.35986581 -0.037312478 165.39999
-0.22297996 0.46182409 0.13257235 140.39999
-0.1378497 0.43188894 0.11984551 137
-0.036605734 0.43811405 0.10497845 136.88889
0.063338697 0.43734291 0.078353241 152.71428
0.15326069 0.45977876 0.05754786 165.09091
0.25541666 0.40728098 0.029042378 170.33333
0.34848052 0.45190656 0.021147007 166.75
0.45709264 0.44998175 0.0072585084 167
0.54260117 0.44196501 -0.0028839563 167.0625
0.64460957 0.45179734 -0.01419396 167.71428
0.74040896 0.43026966 -0.033307374 164.71428
0.85358405 0.4723784 -0.055113304 158
-0.32168356 0.53953767 0.15392454 134
-0.20412256 0.58516335 0.14001423 135
-0.15036668 0.53001118 0.12712799 138.2
-0.039923154 0.54689592 0.11180977 137.16667
0.072413824 0.53318411 0.09507028 143.14285
0.16194777 0.52946293 0.080735087 154.875
0.24488913 0.5392732 0.062418379 162.76923
0.35311139 0.52576202 0.042286608 168.06667
0.45791167 0.54842073 0.02715647 168.42857
0.55629045 0.53247499 0.0092508318 167.18182
0.64803141 0.53420633 -0.0024571223 163.5
0.75569499 0.54334867 -0.028935449 158.71428
0.8071782 0.54939711 -0.029145543 154
-0.49571246 0.67352265 0.20236997 128
-0.43239924 0.62606484 0.18018016 125.5
-0.3005957 0.68473345 0.16129629 130
-0.23564212 0.61599296 0.15232415 137
-0.124754 0.66008812 0.1361405 138.25
-0.015907578 0.63942742 0.12032935 139.5
0.072719365 0.65225786 0.10524655 139.39999
0.16016926 0.63254386 0.091064267 143.39999
0.29157135 0.61717999 0.068109743 155.42857
0.3861877 0.62003613 0.05234744 161
0.47165313 0.64123863 0.036100179 163
0.56429142 0.65468627 0.020019477 161.60001
0.64971966 0.63321805 0.0050028637 157.2
0.73705405 0.60827941 -0.011189569 160.5
-0.57801956 0.73777997 0.22216804 127
-0.55062181 0.7176674 0.21105511 126
-0.38719952 0.77138478 0.18902835 134.5
-0.33076075 0.71426332 0.17300752 132.5
-0.19427912 0.75346678 0.1544096 142
-0.15958786 0.70467842 0.15131484 141
-0.044166066 0.74218875 0.1327533 140
0.071864471 0.7561366 0.11926535 139.25
0.19044544 0.72612625 0.098130032 141.2
0.29106373 0.72589606 0.080897942 143.2
0.38843119 0.7210353 0.060255107 149.60001
0.48353615 0.72269517 0.045263026 157
0.5894478 0.74328685 0.027755562 158
0.68161297 0.70695984 0.0060920026 152
-0.45819023 0.84178561 0.21376187 185.5
-0.24232195 0.81769377 0.16785918 145.66667
-0.104633 0.85078216 0.15184544 150
0.038980961 0.83832061 0.13430415 149
0.1655384 0.82296014 0.11552095 143.33333
0.27930316 0.82640523 0.095361881 146.33333
0.38993722 0.83057499 0.075371422 148.75
0.49498969 0.8409915 0.10605117 200.25
-0.31184509 0.89956552 0.21774162 215.85715
-0.17489186 0.95299804 0.22924556 212.2
-0.17112724 0.96758699 0.17886288 214
-0.014272222 0.9536925 0.19080389 206.11111
0.12604178 0.92985988 0.2017455 212.66667
0.13576208 0.92754966 0.15034246 204.28572
0.2600556 0.93501556 0.1520374 206.3
0.054795377 -0.53452837 0.071651287 186.92
0.11264839 -0.53427285 0.028693939 185.28572
0.32276404 -0.52322096 0.067009903 180.33333
-0.16838185 -0.49966672 0.093974657 194.45454
-0.047103144 -0.49497432 0.083444402 190.4375
0.19705099 -0.50060731 0.064453185 182.60001
0.25621825 -0.49693576 0.035715643 182.70833
0.36392769 -0.49731138 0.023993053 182.08109
0.46533337 -0.48223183 0.021416649 183.03999
0.55008984 -0.47903758 0.0041969367 185.16667
0.65321672 -0.48159862 -0.022553429 187.59091
0.72787559 -0.433157 -0.013196473 191.2
0.84167206 -0.43368065 -0.037040934 194
0.19099846 -0.17246199 0.05781493 123.5
0.48196322 0.83222264 0.20129934 205.36363
-0.18360892 0.93893152 0.30057126 211.2
-0.035401501 0.95537615 0.2933158 212
0.11556478 0.92333347 0.26854163 212.5
0.23862505 0.93682528 0.28562492 212
0.24662137 0.93808001 0.23461698 213
