# .PCD v0.7 - Point Cloud Data file format
VERSION 0.7
FIELDS x y z intensity
SIZE 4 4 4 4
TYPE F F F F
COUNT 1 1 1 1
WIDTH 102
HEIGHT 1
VIEWPOINT 0 0 0 1 0 0 0
POINTS 102
DATA ascii
-7.1808505 4.6499333 0.94018978 10.5
-7.0883241 3.4275911 1.4951855 13
-7.1004171 3.638912 1.5219132 13
-7.087388 3.5253003 1.7956003 14
-7.0424566 2.6917255 2.0958073 15
-7.0477495 2.9815028 2.1790724 15
-7.0938573 3.4374423 2.1394424 14.5
-6.4357543 -4.2851539 0.19420426 8
-6.5246592 -2.6449072 0.73441869 10
-6.5778303 -2.3160245 0.50091171 9
-6.435205 -4.2604561 0.88578194 10
-6.6496615 -1.6615758 1.441705 13
-6.6314626 -1.5497173 1.5268635 13
-6.6289077 -1.6423597 1.7934049 14.5
-6.6464396 -1.4818441 1.8025829 14.5
-6.6828132 -1.152446 1.9085027 15
-6.6782608 -1.5749413 2.0342133 15
-6.2740679 -5.6917071 0.2806991 8
-6.293232 -5.5310283 0.32714355 8
-6.3057756 -5.4039655 0.62188798 9
-6.276824 -2.48387 0.49943155 9
-6.301846 -5.6668286 0.92336553 10
-6.3413835 -5.4481249 0.93424797 10
-5.9248266 -2.5447757 0.50059193 9
-4.5952759 -1.1387435 0.20889188 8.5
-4.5687728 -2.4902067 0.77004796 11
-4.1592083 2.2063849 0.61944836 11
-3.9115551 -1.7322742 0.1468156 8
-3.6813126 1.8179991 0.22576289 8.5
-3.9345989 -0.90592438 0.72481591 12
-3.5686738 1.9106655 0.28098401 9.333333
-3.2524376 -1.1905389 0.39787799 10
-3.2179422 -0.66363215 0.54128379 12
-3.5210898 2.7339032 0.58786082 11
-3.1722155 -1.0930954 0.33557513 10
-2.8196986 -0.54812074 0.75558352 14.5
-3.1213303 2.1876454 0.5144583 11
-2.8559897 -0.58643389 0.83755505 15
-0.82970786 -0.86083144 0.33786401 15
-0.96945387 0.98621815 0.36312798 14.666667
-0.50105613 -0.13338599 0.033552192 9
-0.53408945 0.33077317 0.022140965 8.333333
-0.58186239 0.57206011 0.014551395 8
-0.44899547 0.90653467 0.051856834 9
-0.17287394 0.92199481 -0.0073818439 7
-0.36188632 0.3687025 0.022558995 8
-0.19596198 0.61970896 0.020659264 8.1428576
-0.16022454 0.92334414 0.094385765 10.166667
0.39860946 -0.32417664 -0.001757376 7
0.28830487 0.47345272 -0.0058708624 7
0.37296167 -0.92715549 0.16468643 11.6
0.37934598 -0.64047277 0.10558397 10.666667
0.39560887 -0.36496434 0.01420093 7.5
0.34989831 0.37421161 0.0081428373 7.5
0.19999816 0.61514205 0.015384173 7.75
0.18416907 0.94877523 0.11934754 10.764706
0.45655853 -0.32504404 -7.7156321e-05 7
0.60906422 -1.002635 0.25751752 12.818182
0.57880795 -0.54670137 0.1470715 11.958333
0.62550753 -0.24323577 0.074728325 9.5
0.58469164 0.024375081 0.01292001 7.5
0.87128693 -0.50234437 0.21904539 12.625
1.0157489 -0.33095831 0.18510833 11.533334
0.99623889 0.070743605 0.052838326 8
1.0818876 1.0132337 0.43018323 15
1.4042227 -0.29178649 0.25782326 11.9
1.4362489 1.0354881 0.35729146 12.666667
1.4655176 -0.20321627 0.42052555 14.666667
1.4334568 1.0414892 0.46323684 14.2
1.7421497 -0.1903697 0.31326512 12.125
1.794626 1.0696203 0.35500923 11.8
1.8074628 -0.18264039 0.4602268 14.166667
1.7869344 1.0726726 0.54067111 14.142858
2.1198819 -0.17185807 0.30593506 10.857142
2.2577686 0.20948786 0.065907598 8
2.2015657 1.0961455 0.31643289 10.5
2.2351317 -0.14684813 0.53097367 13.714286
2.1818011 1.1047373 0.57394713 13.555555
2.5683892 -0.12575634 0.2897324 9.8000002
2.6649342 1.1409829 0.30738667 10
2.6181374 -0.11592516 0.60046417 13.5
2.5857177 1.1403027 0.57193828 12.555555
2.6390607 1.1513039 0.83583915 15
2.9804547 -0.10021308 0.3000254 10
3.1605871 0.73087144 0.21738377 8.5
3.0485196 1.0389524 0.27072707 9.4444447
3.0743613 -0.092173092 0.65570986 13
3.1936176 0.76002806 0.53798902 11.5
3.0930762 1.0525078 0.61266083 12.333333
3.1814833 0.77345604 0.9991439 15
3.096252 1.0577859 0.90017146 14.5
3.2840328 -0.043954644 0.2426952 9
3.2609522 0.20937267 0.23268121 9.1428576
3.2271061 0.57528603 0.25120836 9
3.2724671 -0.036563966 0.56369668 12
3.2556777 0.19999523 0.63376147 12.5
3.2226615 0.57390571 0.61167079 12.222222
3.2006388 0.86460179 0.57929581 12
3.2743561 -0.043336552 0.89270777 14.5
3.2616127 0.20863678 0.90323663 14.5
3.2211161 0.63243783 0.89905584 14.666667
3.2003601 0.83322674 0.89294344 14.5
