# .PCD v0.7 - Point Cloud Data file format
VERSION 0.7
FIELDS x y z intensity
SIZE 4 4 4 4
TYPE F F F F
COUNT 1 1 1 1
WIDTH 503
HEIGHT 1
VIEWPOINT 0 0 0 1 0 0 0
POINTS 503
DATA ascii
-8.7696819 28.815437 1.1076124 8
-6.9248829 9.5889206 0.09275423 8
-6.7238135 7.1815987 0.55277002 9
-6.4609537 4.7876329 1.1286207 11
-6.4994087 5.0268812 1.2207165 11.5
-6.4307251 5.2867761 1.3001318 12
-6.6245737 6.1880116 1.4319785 12
-6.6043825 6.4960046 1.4629017 12
-6.6623592 7.2293887 1.2731377 11
-6.4406104 5.4366746 1.6713793 13
-6.6388178 5.8002295 1.548715 12
-6.6108851 6.604775 1.6067373 12
-6.6715727 7.005939 1.578578 12
-6.4637566 7.2563109 1.6937793 12
-6.4391074 4.5437632 2.1914723 15
-6.5020561 4.9455171 2.188175 15
-6.4513559 5.3867688 1.9965961 14.333333
-6.5245214 5.8713226 2.1414194 14.5
-6.5708303 6.1943941 2.076725 14
-6.6275563 6.5356283 2.1472626 14
-6.6652756 6.8799515 2.2173371 14
-6.5072403 5.458909 2.3035443 15
-6.5882182 6.2452927 2.4001629 15
-6.6764121 7.0081582 2.4216447 14.5
-6.7649741 7.418685 2.6197932 15
-6.5950856 7.1382308 2.7730308 15
-6.6641927 7.8047991 2.7860217 15
-6.6269326 8.1364231 2.7628992 15
-6.1674585 3.6315124 1.0776569 12
-6.1622777 3.5765083 1.3462937 13
-6.259284 4.1851382 1.3491981 12.666667
-6.3233309 4.6361117 1.2123348 12
-6.382349 5.0142298 1.2633022 12
-6.0914373 2.6150737 1.7865475 15
-6.2037468 3.0645359 1.7699231 15
-6.2111168 3.4673896 1.8070759 14.5
-6.2214584 3.8635063 1.8414369 15
-6.2651019 4.1337748 1.7449071 14.333333
-6.3396316 4.6359825 1.7655666 14
-6.3863688 5.0107884 1.8374252 14
-6.0683608 2.7458191 1.9230736 15
-6.3001347 3.6984131 1.9047709 15
-6.3479786 4.3000979 2.0355434 15
-6.3421693 4.6553564 2.0076752 15
-6.3999949 5.0292225 2.0878656 15
-6.2811694 7.4566426 2.307267 14
-6.2102118 7.9994707 2.6957006 15
-6.3686352 9.4303284 3.0281591 15
-6.045608 9.3864632 3.2178526 15
-5.6803241 -9.7575808 1.6724044 11
-5.6842666 7.7491035 2.4640977 14.5
-5.772366 9.4394588 3.1964231 15
-5.3841643 -9.6989117 0.32364479 8
-5.3965101 -1.8007342 0.20272827 8
-5.4446783 -1.3198001 0.12537405 8
-5.2287207 -2.9053974 0.45702296 9
-5.3738489 -1.7663968 0.37834185 9
-5.4135518 -9.8050537 0.88457704 9
-5.2704325 -2.938544 1.0490823 12
-5.3275185 -2.6317625 1.0584329 12
-5.3678074 -9.7247963 1.6249909 11
-5.2362185 -2.9429777 1.5057689 14
-5.2778587 -2.6775846 1.3293952 13.666667
-5.3544145 -2.1973908 1.4319407 14
-5.5796924 -9.8107052 1.7078038 11
-5.4008064 -2.077409 1.5650324 15
-5.3831687 -1.8670392 1.6006746 15
-5.5558395 7.3830318 1.9930906 14
-5.2882724 7.5307608 2.5134115 15
-5.1505313 -9.7799683 -0.02200757 7
-5.1408391 -9.6520996 0.2941705 8
-4.8135905 -9.5607872 0.27253518 8
-5.0133133 -4.4296851 0.17364106 8
-4.8661752 -5.4503164 0.68106568 9.5
-4.997684 -4.4362407 0.54285961 9.5
-5.0224576 -4.3241243 0.54550242 9.5
-4.8862796 6.2017679 0.31623131 9
-4.9207401 -9.6783018 0.85805255 9
-4.8917928 -5.346633 1.0741793 11
-5.1562953 -3.0476551 1.0361394 12
-4.9664536 -9.6182489 1.5937521 11
-5.0006862 -4.4286456 1.3300273 12.5
-5.0315132 -4.3503242 1.4329934 13
-5.1393604 -3.0222633 1.2333384 13
-4.8945184 7.4830737 1.2987491 12
-4.8430309 -9.6792231 1.9354129 12
-4.8846436 7.4809647 1.6286561 12.666667
-4.8666034 -5.4938755 2.200129 15
-5.0607834 7.4502611 1.9906633 14
-5.0537305 7.8682885 2.3214562 14
-4.6302004 -9.6311321 -0.002521687 7
-4.5193124 -7.3798809 -0.028344303 7
-4.5705104 -7.0964012 -0.008441072 7
-4.6411715 -9.5394278 0.28124607 8
-4.4617038 -7.7971277 0.19806367 7.5
-4.5519533 -7.3728566 0.25517514 7.6666665
-4.6507645 -7.1374903 0.3966848 8
-4.5542731 -2.4872727 0.20518674 8.5
-4.6947827 6.306232 0.17489438 8
-4.5109587 -7.6112614 0.79526901 10
-4.5479784 -7.3612008 0.63920879 9.333333
-4.6289062 -7.0757732 0.79217219 10
-4.5830512 -2.7539163 0.44491267 10
-4.7188945 9.0709925 0.29378173 8
-4.6075416 -9.5885353 0.84112906 9
-4.5410495 -7.4414291 1.1861289 11
-4.6068659 -7.1589413 1.1695449 11
-4.4175787 -3.7828319 0.96821135 12
-4.6304207 10.126972 0.87393314 9.5
-4.668509 -9.5676279 1.5531995 11
-4.5625505 -7.3970423 1.4247814 12
-4.695581 -6.3354545 1.3366168 12
-4.6775784 7.53585 1.3058847 12
-4.4200978 10.171283 1.3690778 11
-4.5417142 -9.6193838 1.9069889 12
-4.5667362 -7.3767934 1.8717344 13
-4.6380534 7.5231919 1.6374456 12.5
-4.526762 10.124899 1.6224062 12
-4.7157855 7.5107603 1.9929571 14
-4.6805658 10.09055 1.9842428 12
-4.4901838 7.9927716 2.3205764 15
-4.2428646 -9.1540976 0.3036015 8
-4.2843289 9.1375637 0.24234831 8
-4.2002339 -9.2793446 0.81537044 9
-4.2028666 2.6565473 0.45459363 10
-4.2669125 3.0311337 0.46033946 10
-4.3286219 3.3074353 0.48134705 10
-4.2234039 9.162405 0.3453635 8
-4.0156322 9.2817688 0.36886021 8
-4.1825614 -2.8476377 1.0357164 12.666667
-4.3210988 2.8313496 0.9537524 13
-4.0633054 5.8639059 0.70287704 10
-4.1137514 10.267243 1.0519135 10
-4.3078594 -9.4929371 1.5411354 11
-4.2634883 -2.8642809 1.3144218 14.333333
-4.1795645 10.257229 1.1926569 10.333333
-4.3723078 7.5553722 1.5678412 13
-4.2527776 10.14399 1.6253901 12
-4.2627883 7.576335 1.9959421 14
-4.1296244 10.18754 1.9454607 12.5
-4.0601845 8.0945702 2.3233218 15
-3.6720381 -1.4665471 0.35908738 10
-3.8604581 -2.8458316 0.48705289 10
-3.7391675 -1.5243031 0.46616885 10.5
-3.8793657 4.318306 0.41629317 10
-3.7666969 4.9644289 0.64223558 10
-3.7984335 9.6027842 0.35248378 8
-3.6411054 9.629941 0.41752532 9
-3.6553378 10.358568 0.443021 9
-3.690537 6.7792497 0.82663941 10
-3.7131507 7.6619849 0.84150523 10
-3.7625546 10.347954 1.0353882 10
-3.809685 7.6639075 1.3211727 12
-3.7590859 10.27134 1.3083134 10.666667
-3.7880168 7.6444907 1.5436275 12.5
-3.8738854 10.236569 1.6381452 12
-3.7586226 -6.3905239 2.203655 15
-3.9176519 -6.3094592 2.2059665 15
-3.8313291 7.6480389 2.0024006 14
-3.6886506 8.8230791 1.9916198 13
-3.8775234 10.235312 2.1043465 12.75
-3.7653339 8.2188463 2.3397243 15
-3.8998356 9.3048353 2.344312 14
-3.4222927 -1.7291602 0.19265436 8.333333
-3.4202676 -1.4597459 0.25515503 9
-3.3122826 -1.1533767 0.2427132 9.5
-3.303062 4.9383583 0.20247413 8
-3.5535214 -1.7148981 0.45229819 10.333333
-3.5561287 -1.5725703 0.46322712 11
-3.3965759 4.3786879 0.43913746 10
-3.5680506 6.602129 0.30311853 9
-3.56022 9.9098825 0.33478114 8
-3.5004506 10.367007 0.45463979 8.5
-3.4095769 10.437624 0.46746686 9
-3.4192784 7.7228718 0.90317547 10
-3.5516632 7.694984 1.225203 11.5
-3.381073 10.330626 1.2298185 10.333333
-3.449683 7.7130208 1.6569244 13
-3.3584766 10.316328 1.6499019 12
-3.406389 -6.5820837 2.2061822 15
-3.5198901 7.706387 2.0101407 14
-3.3567836 10.320516 1.9653294 12.5
-3.3514023 8.3254471 2.3488717 15
-3.3978593 9.3385468 2.3493006 14
-3.4815729 10.296658 2.278326 13
-3.1174932 -1.434629 0.27437142 9.5
-2.9121425 5.1875801 0.30873549 9
-3.0362401 -1.6950378 0.49984512 11
-3.0086753 1.9215064 0.62993115 12
-3.0620816 2.2600906 0.6700229 12.5
-2.8525605 3.4113123 0.62677467 11.333333
-2.8250072 3.71264 0.67095369 12
-2.8483846 5.5887709 0.42946246 9
-3.0851917 5.9430957 0.60220027 10
-2.959348 6.0144897 0.42731878 9
-2.9568934 10.483323 0.40484762 8
-2.8771136 3.4575927 0.94191009 13.5
-3.0388 5.9547396 0.75591916 11
-2.9545028 10.359806 1.2016484 10.5
-2.9116619 10.377926 1.7655783 12
-2.9646955 -6.7901034 2.2128499 15
-3.1296942 -6.7258248 2.2122266 15
-3.1033254 10.343801 2.0661666 13
-2.9080207 7.7946892 2.4077284 15
-3.0203323 8.3459711 2.3440607 15
-2.8345068 8.4457912 2.3621368 15
-3.0334115 9.3718805 2.3563256 14
-3.0877569 10.352241 2.2981937 13
-2.6360273 -6.2277961 0.29354027 8
-2.7260227 -2.6972387 0.26140052 9
-2.6372654 -1.981203 0.19299921 9
-2.6337099 1.5157737 0.29948124 10.333333
-2.5987453 1.7442913 0.2881856 10.333333
-2.6857297 -6.3995228 0.59793186 9.5
-2.4124024 -6.1696758 0.66458273 10
-2.7279267 -1.86139 0.49465147 11.5
-2.4355621 -1.2953242 0.52759916 12.5
-2.6566489 -1.1433157 0.5910607 13
-2.4342585 -0.62234098 0.67670667 14.5
-2.5706067 1.4859192 0.52142602 12.428572
-2.5002737 1.7576641 0.4027299 11
-2.643306 2.279948 0.66983116 13
-2.5148032 2.4973805 0.69509512 13
-2.4944975 2.8257537 0.52452683 11
-2.7624381 3.5322762 0.63999128 11.5
-2.7295599 3.821244 0.67698282 11.5
-2.6793282 5.1835799 0.70919347 11
-2.5625806 5.4305105 0.3534911 9
-2.6675174 10.057481 0.55927801 9
-2.4352138 10.476112 0.62887311 9
-2.587034 -6.3593545 1.1257123 11.666667
-2.5297141 -2.8304555 1.0908529 15
-2.5337307 -2.6449087 0.98196816 14.333333
-2.6811121 -1.15674 0.84966952 15
-2.5581665 1.3608373 0.77190435 15
-2.6179392 2.4621544 0.80279374 14
-2.8072052 3.5578611 0.92762679 13.5
-2.7240772 3.7796364 0.9455018 13.2
-2.425194 9.8231268 0.71940559 9
-2.6026552 -6.3955283 1.5450875 13
-2.4234269 -6.3537927 1.5244386 13
-2.6179934 10.217986 1.2415705 10.666667
-2.5074031 10.450754 1.1233728 10
-2.6591723 10.412643 1.768061 12
-2.4721236 10.4329 1.6691381 12
-2.5388114 10.435762 2.0682232 13
-2.6124167 8.4388247 2.3546357 15
-2.6694257 9.3809738 2.3596454 14
-2.6889272 10.385846 2.3166785 13
-2.4340985 10.432435 2.3345923 14
-2.1419981 -6.3201303 0.0067200796 7
-2.2240224 -6.2017899 0.27945453 8
-2.3122861 -5.9305768 0.035151783 7
-2.2880497 -2.6470141 0.26654634 9
-2.1655121 -1.3587435 0.25371787 10
-2.0997379 3.1216986 0.26472938 9
-2.0801301 3.6093078 0.30454248 9.5
-2.2087929 -6.2575045 0.58325148 9.5
-2.2885258 -2.592025 0.45528093 11
-2.3388398 -1.4444388 0.52210182 12.666667
-2.0403788 -0.91826797 0.5934431 14.666667
-2.1655028 -0.58916634 0.58234042 14.5
-2.2192228 1.7517555 0.55830115 13
-2.0609038 2.1633263 0.56244081 13
-2.2479968 2.5545926 0.60396725 12.666667
-2.2253695 3.022552 0.51461041 11.4
-2.1779318 3.4892993 0.49433833 10.8
-2.1057708 3.6275759 0.55634803 11
-2.2010655 -6.3039975 1.0741018 11.5
-2.1826427 -2.5496404 0.94408476 14.5
-2.1746805 -6.3269138 1.5023648 13
-2.4122493 10.240211 1.2036027 11
-2.2947216 10.502257 1.2822601 10.666667
-2.0655544 -6.2952976 2.0156643 15
-2.3472338 10.454865 1.8711133 12
-2.2920866 -6.3396072 2.0650468 15
-2.3366926 10.445912 2.1056824 13
-2.3074844 8.5036316 2.3630257 15
-2.1889212 9.3722267 2.3617013 14
-2.1782465 10.467209 2.3501964 14
-1.6388513 -7.1602612 -0.056226667 7
-1.698139 -6.7389631 -0.027127117 7
-1.8174349 -6.3167782 0.0024476752 7
-1.6405421 -7.2747893 0.29527479 8
-1.6931818 -6.9609938 0.21438959 8
-1.7294387 -6.7090416 0.19220605 8
-1.8936005 -6.2404747 0.256652 8
-1.7947254 -2.5914867 0.14306068 8
-1.9467382 -1.38807 0.28025639 10.5
-1.8613847 -1.1461618 0.32363608 11.5
-1.7617617 -0.62088138 0.34667447 12.666667
-2.0012405 3.1797795 0.31347302 10
-1.9713198 3.2966142 0.32174197 10
-1.6215004 -7.3398476 0.6726166 9
-1.6796023 -6.917552 0.58864057 9.5
-1.7394996 -6.5388784 0.58029401 9.5
-1.9402322 -6.2871408 0.57874984 9.5
-1.845974 -1.0415028 0.52216685 14.166667
-1.9580233 -0.57366508 0.4343856 13.333333
-1.8935286 3.3163688 0.60921001 12
-1.9163074 3.6360688 0.60858387 12
-1.6501179 -7.31991 1.1447693 11.333333
-1.7221243 -6.8292184 1.0201192 11
-1.7511764 -6.546349 1.0977925 11.5
-1.8722241 -6.2794476 1.0632164 11.666667
-1.8233392 3.3548958 0.91599184 14.2
-1.6742264 -7.0476699 1.5059875 12.5
-1.7384059 -6.6709852 1.5245428 13
-1.7848566 -6.3102016 1.4735973 13
-1.8439147 10.581415 1.2716383 11
-1.8961941 -6.2672548 1.9823216 15
-1.6564951 -7.3031759 2.1982229 15
-1.7340468 -6.7870674 2.0620847 15
-1.7554013 -6.6007686 2.0966547 15
-1.8874506 8.528348 2.3621292 15
-1.7899535 10.4964 2.3721046 14
-1.3529762 -9.3894482 0.042117517 7
-1.5735309 -7.6395354 -0.088688426 7
-1.2536837 -9.6221933 0.20444521 7.5
-1.3733002 -8.9090223 0.31365138 8
-1.4289358 -8.7193499 0.13642918 7
-1.5032625 -8.1640615 0.20156212 7.6666665
-1.5868615 -7.6889081 0.22867832 8
-1.5959569 -7.553627 0.14299814 7
-1.4995116 -0.57836801 0.32438374 12.75
-1.4508944 -0.35361582 0.36220092 14
-1.278275 -9.5924473 0.73776746 9
-1.3720146 -8.8666868 0.71582484 9
-1.4618039 -8.2762041 0.69800538 9
-1.538622 -7.7453561 0.68274957 9
-1.5208906 -0.53516501 0.45599583 15
-1.5223964 -0.35620901 0.40971237 14.5
-1.3407851 -9.5940056 1.1675977 10
-1.3867736 -9.0463753 1.2642077 11
-1.446746 -8.5935459 1.1680096 10.5
-1.5109046 -8.2100677 1.0892148 11
-1.5896057 -7.6990952 1.0626739 11
-1.2672724 -9.6449223 1.3096167 11
-1.3550131 -9.2887783 1.3814865 11
-1.4384992 -8.4372444 1.6221653 12
-1.5528934 -7.8231778 1.4235785 12
-1.6166449 -7.4664335 1.6396549 13
-1.2502642 -9.6601257 1.8811432 12.5
-1.3602681 -9.03016 1.7885127 12.5
-1.4591411 -8.4114075 1.7787709 13
-1.5403163 -7.8988891 1.7020657 13
-1.4229616 -8.0886335 2.2879472 15
-1.4770997 -7.6634703 2.2551453 15
-1.4840547 8.5968523 2.3744783 15
-1.0501792 -9.6229706 0.014307002 7
-1.0792159 -9.6171789 0.25613722 8
-0.87016159 -9.5900755 0.20449153 7.5
-0.98131937 -9.6353083 0.67977095 8.666667
-1.0080349 -9.617321 1.145354 10
-0.96786231 -9.6168051 1.3199077 11
-0.96715111 -9.6482325 1.9037147 12.666667
-1.1685551 -8.2725153 2.2973447 15
-0.93708962 -7.8845816 2.3036492 15
-0.89749116 -7.5305395 2.2961247 15
-1.1725304 8.6023045 2.3738241 15
-0.59293014 -9.5567341 -0.0067392159 7
-0.5169161 -9.5429401 0.25469097 7.75
-0.49847144 0.35570961 0.036270365 9
-0.52704495 0.56762332 0.040519346 9.1999998
-0.62215441 -9.581768 0.72973794 9
-0.57039368 -9.5581141 1.1662524 10.333333
-0.75175995 -9.6003389 1.5021043 11.5
-0.66181499 -9.6017523 1.8416491 12.333333
-0.61450666 -8.4976387 2.2945695 14
-0.59262139 -8.0054111 2.30792 15
-0.56849974 -7.5958204 2.298357 15
-0.14619952 -9.4972305 -0.026128791 7
-0.259455 -9.5199871 0.3313843 8
-0.34967679 0.36647904 0.049704388 10
-0.10278214 0.62325978 0.090196788 11.416667
-0.055984266 0.89741653 0.1600033 12.5
-0.29459426 -9.5336905 0.72594011 9
-0.22614691 5.9069014 0.5650292 10
-0.19025327 -9.5090847 1.170994 10.5
-0.18039072 5.9158077 0.85087997 11.5
-0.17765555 -9.5086517 1.4478828 11
-0.27575412 -9.5419559 1.8619881 12.5
-0.13504575 -8.6816597 2.2999403 14
-0.23914135 -8.0994606 2.3112364 15
-0.2375391 -7.6523781 2.3035922 15
0.18595757 -9.4511414 -0.039155241 7
0.15220714 -9.4554281 0.27068239 7.75
0.3243348 -1.2317865 0.054096006 8
0.24054685 -0.95358646 0.17787355 11.7
0.22771555 -0.58902657 0.080432273 10.416667
0.35136726 -0.37748435 0.024895662 8
0.34936085 0.37252501 0.021548636 8
0.23060173 0.5923444 0.048169445 9.375
0.22105514 0.86686468 0.15264237 12.25
0.15616222 -9.4681139 0.65645432 9
0.1870715 5.9743638 0.59438711 10
0.13492732 -9.4624958 1.1556858 10.5
0.17676188 5.9677663 0.85432255 11.5
0.35798526 6.0201097 0.88988018 11.5
0.33225921 -9.4441862 1.5066831 11.5
0.14605685 -9.4777327 1.8587099 12.5
0.3643848 -8.8425264 2.3084295 14
0.16348475 -8.7520742 2.298264 14
0.12180699 -8.184288 2.3176689 15
0.18096028 -7.6773005 2.3057156 15
0.51410276 -9.4036713 -0.051063988 7
0.57275689 -9.4048996 0.26838425 8
0.62212205 -1.0838637 0.24129239 11.888889
0.47040123 -0.56031662 0.052978776 8.666667
0.57113612 -0.17950389 0.040118311 8.4444447
0.44238544 0.33379352 0.032068282 8.5
0.50888371 0.61143792 0.042585708 8.5
0.52257937 0.87775981 0.13178797 11.090909
0.54140657 -9.4203358 0.68307948 9
0.61711717 6.0502353 0.62443715 10
0.52260321 -9.40938 1.1093928 10
0.53195351 5.9951959 0.98905414 12
0.59721678 6.0250869 0.89025968 11.333333
0.66661435 -9.393734 1.4747949 11.25
0.53860229 -9.4212189 1.8407674 12.333333
0.5683763 -8.8827362 2.3101254 14
0.53551883 -8.243803 2.3231919 15
0.60239369 -7.6999054 2.3141642 15
0.84124118 -9.3502378 -0.062320523 7
0.99771023 -9.3367853 0.27538198 8
0.99779153 -1.0370191 0.28321639 12
0.98972994 -0.60127878 0.26173851 12.8
0.98530656 -0.31606269 0.23526938 12.692307
1.179925 0.95420575 0.39932376 14
1.1255912 -0.85145807 0.42244038 15
1.0835954 -0.76796943 0.42222363 15
1.0417364 0.93378222 0.41648296 15
0.96417147 6.1093907 0.66903174 10
0.86975461 -9.3623114 1.0334086 10
0.95606393 6.0931525 0.92399442 11.6
0.97337234 -9.3493557 1.4520046 11
0.8818332 -8.9493961 2.3155627 14
1.3504114 -0.23275135 0.27779835 12.071428
1.4235342 0.99054921 0.36174604 12.8
1.4317545 -0.17441776 0.43550101 15
1.4345741 0.98754054 0.49153009 14.6
1.8095585 1.0477816 0.34262452 11.5
1.8103703 1.0333189 0.51269257 13.714286
2.1733704 -0.16396463 0.33186647 11.142858
2.1672645 1.1031054 0.31315804 10.5
2.211859 -0.17689024 0.58855575 14
2.1756358 1.0886633 0.58112395 13.555555
2.5508425 -0.10198818 0.31408572 10.333333
2.6397619 1.1754839 0.31622308 10
2.609339 -0.1200376 0.60080552 13
2.5125916 1.1345415 0.63769287 13.166667
2.5884004 1.1674769 0.83928281 15
2.9523492 -0.053579528 0.32766113 10
3.0139942 1.1427655 0.26016432 9.25
2.970016 1.2264478 0.25818738 9.5
2.9818349 -0.091234863 0.65092993 13
2.9608889 1.1834663 0.66113234 12.8
2.9795818 1.2270255 0.56994247 11.666667
2.8840089 1.1667416 0.92581773 15
3.1715922 1.2577789 0.91983515 14
3.2051125 -0.010618881 0.29219785 9
3.401787 0.019025965 0.18133844 8
3.2674584 1.1239555 0.1694186 8
3.3199754 1.2756783 0.40719405 10
3.3094609 -0.045615375 0.66472 12.5
3.4846287 0.026575178 0.53069311 11
3.4424636 1.2585465 0.6712088 11.75
3.3013742 -0.16193889 1.0300419 15
3.4438949 1.2583135 1.0354469 14.5
3.7649205 0.069142945 0.21838917 8.5
3.9174662 0.96275079 0.12360509 8
3.9099867 1.3230634 0.34586746 9.666667
3.6574483 0.0021637704 0.45332056 10
3.8982317 0.056475949 0.71393955 12
3.9769969 1.3616661 0.59973109 11
3.8795934 1.337126 1.0549406 14.25
3.951973 1.3244303 1.2694923 15
4.3748317 0.27729097 0.20717114 8.25
4.3288755 0.59796971 0.19632609 8
4.2368269 1.010974 0.28588855 8.5
4.181582 1.2722709 0.30617657 8.5
4.3412633 0.18919602 0.6185047 10.75
4.3692689 0.63355011 0.59153992 10.6
4.3063302 0.97090191 0.59962368 10.5
4.180285 1.3020016 0.68444949 11.166667
4.3768811 0.23898865 0.9414956 13
4.3639793 0.66065198 1.0468398 13.2
4.306181 0.99200046 1.0296018 13.285714
4.2057619 1.2753279 1.014037 13.2
4.3819928 0.23577529 1.2646894 15
4.3681808 0.6485405 1.2963363 15
4.318985 0.97818112 1.2924627 15
4.2082009 1.2661364 1.2963904 15
4.4168487 0.16182449 0.038311731 7
4.4059191 0.18214133 0.12698966 8
4.449079 0.23975155 0.65729201 11
4.4120264 0.47838697 0.57127076 10.5
4.4787359 -0.071666062 1.121352 13.5
4.4272823 0.22165839 1.0623529 13.5
4.3967366 0.50041336 1.0202333 13
4.4808688 -0.12147573 1.2753227 15
4.4312258 0.23099621 1.2825351 15
4.3917451 0.48557034 1.2895378 15
