# .PCD v0.7 - Point Cloud Data file format
VERSION 0.7
FIELDS x y z intensity
SIZE 4 4 4 4
TYPE F F F F
COUNT 1 1 1 1
WIDTH 52
HEIGHT 1
VIEWPOINT 0 0 0 1 0 0 0
POINTS 52
DATA ascii
-6.4822092 5.5734286 2.205852 15
-2.7470891 -6.3773956 1.1088915 11
-2.5837536 1.6836809 0.35237625 11
-2.5836883 -6.3689332 2.1207776 15
-2.3072243 -6.0147328 0.267342 8
-2.3777392 -6.0544925 0.50669271 9
-2.1412604 -2.524682 0.86025578 14
-1.8161793 -6.2665529 0.64598233 10
-1.9611652 -6.2988043 1.0252501 11
-1.8145829 -6.2719784 1.0659931 12
-1.9289249 -6.2888813 1.4794867 13
-1.7736599 -6.3101616 0.21494707 8
-1.7483926 3.4657722 0.71216244 13
-1.7772387 -6.3843179 1.9866573 15
-0.98347545 -8.3248692 2.2904491 14
-0.37771463 -9.5269127 1.2616301 11
0.028957391 -9.4776649 0.72298419 9
0.48938209 -9.4119673 0.39904103 8
0.55053395 -0.94937968 0.32905182 15
0.47930628 0.87593001 0.23862638 14
0.63244832 -9.4057293 1.9196104 13
0.9744823 -0.67285252 0.16355602 11
0.83345759 -0.91383487 0.33798292 14
0.92354745 -0.39719149 0.31962121 15
0.92551869 -0.38289174 0.24328113 13
1.058323 -9.3301506 -0.068878882 7
1.0266674 -0.32309562 0.20861456 12
1.065788 -1.0624013 0.30461338 12.5
1.0590398 -0.89098781 0.37911242 14
1.1173792 -0.75361294 0.34770161 14
1.1046156 -0.87232852 0.41990063 15
1.3039923 0.97308415 0.39366758 14
1.4679813 -0.2191283 0.33184791 13
1.4851211 0.99968922 0.38242546 13
1.4445075 -0.18744917 0.43519261 15
1.4006758 0.9662286 0.51969635 15
1.7605979 1.0088371 0.52921426 14
2.0919333 1.0889951 0.49933857 13
2.5921922 1.1270581 0.85897905 15
2.9798956 1.2223563 0.41279301 11
3.1337926 1.0937018 0.23207003 9
3.143152 1.2038945 0.77066535 13
4.2165694 0.88073587 0.25799355 9
4.3219976 0.62728274 0.50260574 10
4.3293285 0.99026889 0.56818372 10
4.2955165 0.77547854 0.64457649 11
4.3326521 0.52793574 0.91679996 12.5
4.3500533 0.42351702 1.068886 14
4.3075995 0.697716 1.208595 15
4.3382788 0.88346553 1.0494506 13
4.305182 1.073958 1.1547985 14
4.2984352 1.1368989 1.3217114 15
