# .PCD v0.7 - Point Cloud Data file format
VERSION 0.7
FIELDS x y z intensity
SIZE 4 4 4 4
TYPE F F F F
COUNT 1 1 1 1
WIDTH 693
HEIGHT 1
VIEWPOINT 0 0 0 1 0 0 0
POINTS 693
DATA ascii
-30.413481 -9.8870935 2.1092451 9
-30.142763 -10.541546 2.0007267 9
-29.888464 -10.921165 4.3169432 11
-12.151701 -4.5350404 1.0153888 9
-12.074189 -4.277863 1.5778028 11
-12.03394 -4.3035903 2.4623232 13
-11.615744 -3.9099321 0.50018901 8
-11.674851 -5.2669024 0.88222396 9
-11.954409 -4.7678289 0.96781611 9
-11.765702 -4.9769931 1.8404329 11
-11.944525 -4.6279731 1.9236815 11
-11.613794 -5.3396358 2.2869616 12
-11.730685 -5.0534034 2.2350845 12
-11.899657 -4.648056 1.9566895 12
-11.77766 -4.8641295 2.447242 12.5
-11.935649 -4.5660486 2.4177842 13
-11.687571 -3.7801542 3.5054486 15
-11.315585 -3.2914045 -0.062131688 7
-11.295483 -3.6978178 -0.049928527 7
-11.344848 -3.3566799 0.12272943 7.5
-11.522873 -3.2040722 -0.0030431147 7
-11.358994 -3.5259812 0.5257104 8
-11.455181 -3.8565879 0.83371997 9
-11.383228 -3.4831686 0.81185514 9
-11.274858 -6.1769366 1.436283 10
-11.477798 -5.7100101 1.7333641 11
-11.535948 -5.3748837 1.8558955 11
-11.294975 -6.1243553 2.1648493 12
-11.400245 -5.8603048 2.2045152 12
-11.518153 -5.5822415 2.157686 12
-11.483542 -5.4782076 2.4751818 13
-11.59574 -5.1855774 2.4951189 13
-11.51219 -4.1809778 3.4519944 15
-11.32782 -4.6140552 3.6394491 15
-10.809772 -4.9259439 0.12942718 7
-11.072774 -4.2526336 0.18637362 8
-10.823893 -4.8248219 0.38340539 8
-10.88757 -4.650434 0.52720106 8.5
-11.082796 -4.1965752 0.53915989 8.333333
-11.201906 -3.266999 0.71696693 9
-10.8801 -4.6197586 0.8845349 9
-10.906928 -5.655345 3.5238955 15
-10.999122 -5.3870144 3.5449965 15
-11.105338 -5.1285868 3.5728948 15
-10.523123 -5.7723494 2.6399517 13
-10.532222 -5.4595499 2.635572 13
-10.579901 -5.0181785 2.638073 13.5
-10.509611 -4.2425675 2.6181769 14
-10.456249 -3.7978461 2.6104286 14
-10.4686 -6.664691 3.3029947 14.5
-10.691115 -6.1093988 3.3739924 15
-10.808737 -5.9175959 3.5025501 15
-10.537555 -6.5341063 3.6333516 15
-10.668336 -6.1334119 3.6633046 15
-10.402892 -3.363534 2.6054466 14
-10.351198 -6.9972324 3.2384455 14
-10.238564 -4.4437122 3.3312738 15
-10.322549 -7.0197468 3.6171145 15
-9.2737331 -4.1485119 2.6408346 14
-9.3794336 -3.8157632 2.6581128 15
-9.587328 -3.2768097 2.7020054 15
-8.9164963 -2.3508615 0.19055586 7.5
-8.8914118 -5.2717748 1.4906957 11
-8.9996614 -4.9205728 1.5177584 11
-8.8445139 -5.3127418 1.753875 12
-8.9207201 -5.0957279 1.7829173 12
-8.8777294 -5.0667195 2.017302 13
-8.9320803 -5.8475499 2.6405365 14
-8.9696693 -5.4463015 2.6251149 14
-9.0433264 -4.9437051 2.6168063 14
-9.1304827 -4.5944319 2.6225691 14
-9.1905966 -4.3665786 2.6288185 14
-8.7634439 -5.3367972 1.504496 11
-8.5585241 -5.8074288 2.2712369 13
-8.7377596 -5.3459077 2.2852001 13
-8.7608776 -6.3161154 2.6347511 14
-7.3655095 -5.4097695 2.7052991 15
-7.203588 -5.6868978 2.7489009 15
-6.7842679 -3.9314389 0.1653253 8
-6.6783328 -3.8232634 0.52391785 9
-6.665379 -3.6935906 1.1113818 11
-6.4707279 -7.5175099 2.5947607 14.5
-6.2618489 -7.538835 2.037498 13
-6.0457172 -7.4245973 2.4673007 14
-5.7331743 -7.3039937 2.4469891 15
-5.5218587 -3.0436814 0.46273342 9
-5.3734698 -3.3837256 1.1075842 12
-5.3839593 -3.4080548 1.2249651 13
-5.2751908 -2.3962612 1.1890709 13
-5.0331526 -2.8648992 0.12485099 7.6666665
-5.048173 -2.5948431 0.26233092 8.3999996
-5.0239682 -2.5180707 0.50142658 9.75
-5.1264787 -3.4113379 1.1128261 12
-5.1427636 -3.4195378 1.1802623 13
-4.879827 -6.9062362 2.2137768 14
-4.6782556 -6.8612714 2.1933882 14.5
-4.5775328 -6.797749 2.1355402 14
-4.1442747 -2.907481 0.081111968 8
-4.159317 -2.5220387 0.29152706 9
-4.1928515 -2.5782075 0.42207146 10
-4.1975346 -2.8976974 0.84665281 12
-4.1860604 -6.6564326 2.0717366 14.5
-3.8298781 -6.4782534 0.073113978 7
-3.3046944 6.1465044 0.31123543 8
-3.3475821 6.092155 0.99524707 11
-3.343436 6.0971622 1.3523897 12.333333
-3.3365021 -6.2865438 1.8502368 14
-3.355104 6.1776576 1.8157535 14.25
-2.9060037 -4.7662883 -0.048637692 7
-2.9518001 -4.8768616 0.14828426 8
-3.1577969 6.2210436 0.32895932 8
-2.8742068 -4.0059438 0.40139377 9
-2.844301 6.3037786 0.55841088 9.5
-2.9531262 4.7374496 0.93178201 12
-2.8636043 4.8706517 0.95403463 12
-3.032058 6.2556715 1.0343018 11
-2.8348432 4.3212247 1.4515822 15
-2.9874232 4.7545238 1.5488644 15
-2.9153528 4.8393722 1.4202282 14
-2.9929645 6.2726521 1.3988706 12.6
-3.0269408 -6.1804318 1.8268945 13.5
-3.0015972 6.3142734 1.8028463 14.5
-2.4244301 -4.2293444 0.0044578789 7
-2.4557438 -3.9821219 0.2912074 9
-2.4630604 -4.1806479 0.57952571 10.333333
-2.7610035 4.2820411 0.78732371 11
-2.4508886 3.446548 1.071017 14.5
-2.5623944 3.6391244 1.1724957 14
-2.7617829 6.2471342 1.029869 11
-2.5107703 3.5274904 1.2709787 15
-2.6592555 3.8891671 1.352533 15
-2.7025247 4.0689368 1.2819986 14.5
-2.6833782 -6.04424 1.8007988 14
-2.4835415 -5.9422131 1.7127844 13.5
-2.0720966 -3.1058843 0.17907128 8.5
-2.1975873 5.1588907 0.37683558 9
-2.3058693 -5.8517227 0.72371471 9
-2.3951168 -4.1588516 0.39492244 9
-2.0911887 2.5699439 0.69162661 13
-2.1804748 3.0700848 0.70219439 12.4
-2.2880108 3.4144468 0.63263106 11.333333
-2.1504354 5.1540227 0.62394851 10.2
-2.0438275 2.3739886 0.91836709 15
-2.1586967 2.6535606 0.94073725 14.666667
-2.2435434 3.0489514 0.90821606 13.714286
-2.2111778 3.2584348 0.92125899 13.5
-2.0994411 5.1572113 1.0484418 12.5
-2.1564946 -5.7861915 1.5709143 13
-2.3943727 3.2314703 1.2043099 15
-2.1095903 5.1554852 1.4365225 14.333333
-2.2552423 -5.8375401 1.6336056 13.666667
-1.8740834 -5.6620784 0.052471623 6
-1.7021304 -3.1281755 0.30736575 10
-1.8488127 -5.6782846 0.57833529 8.75
-1.656817 -3.3054688 0.6023441 11
-1.6354477 -3.0463097 0.49235788 11
-1.6913798 -1.1915478 0.42763764 13
-1.665789 1.5407242 0.57314992 14
-1.7485318 1.787457 0.59330595 13.75
-1.9279573 2.1771078 0.65319395 13.666667
-1.9924439 2.406821 0.5901435 12
-1.8900701 5.150876 0.58001065 10
-1.7361134 5.2286873 0.55421609 10
-1.9832723 2.2321899 0.80067569 15
-1.8393153 5.1727223 1.0180082 12.333333
-1.6853048 5.2309179 1.0694554 12.5
-1.9743607 -5.7394276 1.5355514 13
-1.8516809 5.1591606 1.4187458 14.333333
-1.7168096 5.2261329 1.4433916 14.333333
-1.9559231 -5.7281599 1.6669445 14
-1.3441329 -4.9023762 0.095117085 6.6666665
-1.4062508 -3.2095253 0.10834721 7
-1.2996492 -1.7939708 0.29110613 11
-1.2579082 -1.3531315 0.31911656 12
-1.4038218 -1.1418072 0.31873152 12
-1.2642124 0.77943319 0.33019915 13.5
-1.2597357 0.97825664 0.35709295 13.333333
-1.3982294 1.925064 0.34898356 11.333333
-1.348379 -4.9012117 0.55475914 9.25
-1.504257 -3.4390988 0.60061705 11
-1.2377908 -2.1940362 0.61510623 14
-1.3225664 -1.7750509 0.5245766 13.8
-1.3116477 -1.3222021 0.49091035 14.25
-1.4366831 -1.1670237 0.48557854 14.2
-1.2700493 0.77835041 0.40962362 15
-1.3632025 1.0675514 0.47123075 14.6
-1.4906561 1.3112034 0.47463176 13.75
-1.5459925 1.7812498 0.42341438 12
-1.3603939 5.3605771 0.98154354 12
-1.2253783 -5.0581474 1.4803652 14
-1.3682032 5.359849 1.3809477 14
-0.88473547 -4.4958487 0.10349645 7
-1.087809 -1.3480891 0.31854111 12.25
-1.1368738 0.91810793 0.32666427 13.5
-0.96429789 -4.876687 0.59309751 10
-1.1541253 -3.3520646 0.56253785 11
-1.0305083 -2.5540731 0.58134335 12.333333
-1.0947125 -2.3637986 0.61222738 13
-1.1901597 -1.5036429 0.40495947 13
-1.0292488 1.9804697 0.42777461 12.333333
-0.98274177 2.0437965 0.45966521 13
-0.94330066 3.49208 0.52027977 11
-1.027348 3.7385018 0.48956349 10.666667
-0.97643393 4.2793794 0.46140921 10
-1.1868458 -2.9281785 0.92915076 14
-0.95363003 5.4874678 1.0069664 12
-0.88371348 -4.83148 1.304319 14.5
-1.0254021 5.479321 1.4047414 14
-0.81497991 5.5780187 1.6106092 15
-0.46519828 0.57753944 -0.0064781965 7
-0.45099184 -2.6844168 0.23754953 10
-0.48139566 -1.7133249 0.24549001 10
-0.57987928 -1.3855686 0.31201756 12.333333
-0.54853356 -0.97294396 0.042824171 8
-0.51929975 -0.55500621 0.025774401 8
-0.54577929 -0.34519216 0.014540696 8
-0.59614915 0.63462204 0.0077765407 7.3333335
-0.60351044 0.90978914 0.0096149137 7
-0.78192222 -4.8053288 0.64558989 11
-0.61719596 -4.7410402 0.58709717 10.75
-0.46211284 -3.6353953 0.58646214 12
-0.56501001 -1.363409 0.43686596 14.5
-0.59680003 3.3963394 0.52942359 11
-0.56251109 3.7124262 0.49204695 10.666667
-0.61624163 4.2006888 0.50239688 10.5
-0.75032854 5.6012926 0.51468939 10
-0.5412336 -4.7033572 1.1807857 14
-0.63360399 5.6553564 1.0453116 12
-0.41073728 -4.8120022 1.3091761 15
-0.62678039 -4.7193975 1.2811865 14.5
-0.77579796 5.5885587 1.4493667 14
-0.59949046 5.6899433 1.4206371 14
-0.50464183 5.7339468 1.6353737 15
-0.2546643 0.5935809 -0.0063034203 7
-0.099179208 -3.5650902 0.12609047 8
-0.21064833 -2.5742052 0.21933863 9.4444447
-0.098356955 -1.6121579 0.22815254 11
-0.33504596 -1.4385395 0.29574388 12
-0.19945605 -0.62207013 0.01454701 6.8333335
-0.36034694 -0.36733276 0.022758598 8.5
-0.35579467 0.39904344 0.0058898828 7
-0.25531816 0.53704906 0.0038579013 7.25
-0.32814839 -4.9462328 0.63408923 11
-0.007214135 -2.949568 0.54973054 12
-0.15770471 -2.6696231 0.48301363 12.333333
-0.32134503 -1.6830814 0.46641389 15
-0.27790192 3.5399964 0.5412342 11
-0.096775182 3.607343 0.56452495 11
-0.29036871 4.4564104 0.51012635 10
-0.39721793 -4.8845987 1.1936421 14
-0.026594827 -2.9425881 0.87385505 15
-0.22929479 5.8252831 1.0052321 11.6
-0.31511238 -4.9573703 1.3518707 14.75
-0.1779671 5.856832 1.4428399 14.2
-0.10035475 5.8901601 1.6723204 15
0.27119219 -2.9209008 0.21704529 9.25
0.053435262 -2.6431844 0.23907918 9.666667
0.26272669 -2.0288436 0.24658687 10.5
0.18746835 -1.9399056 0.22080097 10
0.18483105 -2.8783967 0.56454927 12.6
0.14963783 -2.7330904 0.4479771 12
0.18267578 -2.0752647 0.49774134 13.5
0.067224815 3.6155875 0.56420052 11
0.32477716 6.0870757 0.74262375 10.5
0.38804686 -4.7246976 1.1186403 14
0.14063786 -3.0286574 0.88602126 15
0.020478705 5.9397602 1.001743 11.5
0.24519578 6.0533824 0.98021472 11.333333
0.084799923 5.9891181 1.3923078 14
0.21323673 6.0328584 1.4623755 14
0.092598602 5.981946 1.6755422 15
0.26610249 6.0581565 1.7073479 15
0.58394039 -4.651576 -0.038421366 7
0.6237691 -0.12580478 -0.031454619 5.375
0.63983256 0.1015354 -0.045395423 4.8333335
0.61059201 -4.6363516 0.12060096 7.75
0.62840694 -4.6302834 0.57908422 10.6
0.59510422 6.2184429 0.75251436 10.333333
0.61626172 -4.6383557 1.1393141 14
0.61475062 6.2028933 1.05663 11.6
0.63943511 -4.6259871 1.2934704 15
0.5666014 6.1839757 1.4814487 14
0.60584456 6.2002726 1.7167928 14.75
1.0049043 -4.4886436 -0.043569308 7
1.0440619 -0.50533968 -0.022802358 6
1.002978 -0.056479201 -0.016460573 6.3333335
0.95699906 0.13289315 -0.022143636 6.25
0.95761013 -4.5018568 0.10505865 7.5
1.0196394 -4.469945 0.58941257 10.8
0.79625791 6.2642031 0.7910378 11
0.96880907 -4.4896111 1.0959758 14
1.1029396 6.3430753 1.0162981 11.333333
1.0011152 -4.477694 1.2777895 15
1.0637207 6.3310895 1.4412063 13.25
0.98574114 6.3170533 1.7706763 15
1.3724606 -0.28326446 -0.008377213 7
1.3212644 0.14195788 -0.041982092 6
1.4375544 0.57244337 -0.037995722 6
1.5181247 1.0814415 -0.056295183 6
1.211362 -4.4152942 0.077765681 8
1.2678143 -4.3781109 0.20339817 8
1.2318032 -3.6920457 0.14448392 8
1.2633712 -3.5975587 0.2376806 9
1.2086576 -4.4037261 0.71278048 11
1.3584148 -4.3415537 0.70584637 11
1.4288031 5.8562779 0.73998743 10.333333
1.2162397 6.156002 0.80586195 11
1.2323859 -4.3861103 1.1280313 14
1.4547073 5.8687677 1.0162827 11.75
1.2467822 6.1013908 1.0360885 11.5
1.3550944 -4.3386784 1.2840636 14.666667
1.4091494 5.8825397 1.4792961 13.666667
1.2284393 6.0313859 1.4757842 14
1.4200871 5.9271412 1.7447355 15
1.2255906 6.0323458 1.6753438 15
1.6650765 0.27439654 -0.032525353 6
1.7342591 0.6554395 -0.039744794 6
1.7240838 0.9455936 -0.04983405 6
1.7962204 1.3964325 -0.082937203 6
1.7621932 5.9392667 0.71989906 10
1.9939393 6.0951958 0.64863497 10
1.7805017 5.939867 1.0294306 11.5
1.7445464 5.9371357 1.4012887 13.25
1.9766778 6.0591159 1.4188339 13
1.7512224 5.9546785 1.7111912 15
1.8323649 6.0251975 1.7304174 14.5
2.128052 0.84558278 -0.048996039 6
2.2246246 1.35592 -0.093520217 6
2.2382259 -3.8907311 0.21198788 8.5
2.2227161 -3.8973808 0.61016524 11
2.3200569 -3.2002947 0.74868703 12
2.1404457 6.1610103 0.75898165 10
2.2569323 -3.9069774 1.0763301 13.666667
2.312222 -3.1873975 1.0614901 14.5
2.1755135 6.1227474 0.98180974 11.333333
2.2607939 -3.8839831 1.2832092 15
2.2450113 6.2461677 1.4711239 13.25
2.2471361 6.4893937 1.3906024 12.5
2.2526813 6.1574888 1.8802048 15
2.1413975 6.4398046 1.686343 14
2.630177 1.0849733 -0.092704147 6
2.7037776 1.4916542 -0.11663403 6
2.5823727 1.8331416 -0.12521815 6
2.6502399 -3.7958417 0.1848042 8.1111107
2.6131351 -3.8031695 0.63095737 11
2.481421 6.269311 0.52071661 9
2.536171 -3.8337233 1.1318944 13.666667
2.7321858 7.0080023 0.98062533 10.5
2.5817833 -3.8222494 1.3397053 15
2.6632996 6.5766387 1.384474 12.333333
2.5777719 6.4728694 1.7138495 14
2.7204196 7.0104499 2.1015477 15
2.9706607 -3.6663296 0.1962193 8
3.135618 -3.5946693 0.18344939 8
2.9448879 -3.6695614 0.6358459 11
3.12866 -3.5940621 0.64385188 11
3.0155075 6.5833454 0.55167758 9
3.0021534 -3.6459093 1.041729 13
3.1687632 -3.5779185 0.85349387 12
2.9422362 7.0562525 0.96503568 10.333333
3.152492 7.2049937 0.89196926 10
3.0304315 -3.6326742 1.3672327 15
3.1579378 -3.5842645 1.2833194 14.5
3.0268459 6.7009706 1.4417238 12.5
2.8630567 7.0513444 1.2428063 12
3.0226481 6.626678 1.730108 13.75
3.0481558 7.1369596 2.1530354 15
3.5403774 -3.4428065 -0.0079587149 7
3.2305436 0.96899563 -0.10379487 6
3.3961396 1.9338983 -0.16281739 6
3.2643015 2.3979518 -0.17607747 6
3.3995082 -3.4879031 0.18549307 8
3.3859234 -3.48735 0.58861446 10.6
3.4171023 6.7179871 0.5574531 9
3.4887021 6.8174849 0.64286375 9
3.3985448 -3.4825311 0.99468488 12.5
3.3659699 7.2662702 1.0097698 10.666667
3.3807421 -3.4921384 1.3451008 14.6
3.3791623 6.8517241 1.4720808 12.5
3.4433188 7.2796025 1.2795001 11.5
3.4014318 6.6665511 1.7546228 13.6
3.4833782 7.245851 2.209384 15
3.845897 -3.3147452 -0.023365147 7
3.6864526 0.2902661 -0.14039832 6
3.6139429 1.5570129 -0.1462992 6
3.7783391 -3.3333397 0.14296852 8
3.9008777 -0.66457164 0.13585255 7.6666665
3.8264887 -3.3081324 0.54239428 10
3.6717503 6.7813058 0.63521284 9
3.9237347 6.8726745 0.63124508 9
3.8106811 -3.3160439 1.0466366 12.5
3.7515333 7.4204397 0.86422747 10
3.7957487 -3.3187404 1.3640649 14.5
3.809392 7.0167003 1.4826659 12.333333
3.7987101 7.3759866 1.2972265 11
3.8139601 7.0966763 2.204252 15
4.0959158 -3.2071013 -0.036950167 7
4.3493209 -3.106801 -0.023206508 7
4.0729394 -0.13067634 -0.069049455 6
4.0109377 0.76894981 -0.12742697 6
4.3208656 2.5272663 -0.20462683 6
4.2002921 3.1769929 -0.22535157 6
4.0366163 -3.2178357 0.21081619 8.5
4.2400193 -3.1306295 0.19858399 8.1999998
4.3724813 -0.86030298 0.20826544 8
4.2040567 -0.51844954 0.25259733 8.75
4.2205052 -0.18178399 0.22523633 8.5
4.3884802 0.068434134 0.12563553 8
4.3124151 5.5058413 0.35918978 8
4.1881728 5.840694 0.3859638 8.5
4.0462818 -3.2235703 0.58388692 10.5
4.2004023 -3.1496654 0.57285494 10.2
4.2291937 -0.55204052 0.63449121 10.857142
4.2144475 -0.18314865 0.61608922 11.166667
4.2819929 0.035467241 0.59564722 11
4.3302665 5.7419076 0.60819173 9.333333
3.9957969 6.3840084 0.42516208 9
4.2121735 7.0136247 0.67273557 9.333333
4.0200267 -3.2320645 1.0561991 12.5
4.2201004 -3.1434519 0.99224514 12
4.3473992 -0.59507781 0.96816146 13.25
4.2130666 -0.21177734 1.020309 13.857142
4.3549423 0.064644814 1.0363488 13.666667
4.2572737 7.1002698 0.83756626 10
4.1221881 7.3739896 1.008984 10.5
4.0268154 -3.2284172 1.3996724 14.5
4.2421169 -3.1369903 1.391629 14.2
4.3347526 -0.46929342 1.2855803 15
4.2043042 -0.21302412 1.2501558 15
4.2076283 0.0067213401 1.2718055 15
4.2319484 7.0814118 1.4644277 11.666667
4.1072111 7.3548346 1.2994823 11
4.0828366 6.9259481 1.7786986 13
4.1455412 6.9459534 2.1994405 15
4.3319025 7.6699171 2.0498595 13.5
4.5564961 -2.9825714 -0.016070759 7
4.4463921 1.9590286 -0.16426675 6
4.6072803 -2.9705796 0.19050978 8
4.4449291 -0.90370625 0.34231591 9
4.411078 -0.62718034 0.047342237 7
4.5990171 0.15625253 0.25642505 8.5
4.5740986 5.3463273 0.33085519 8
4.580616 -2.9969983 0.58019102 10.4
4.4715896 -0.86522859 0.65394783 11
4.4029641 -0.75166553 0.79073149 12
4.6050882 0.16075918 0.60180438 10.833333
4.5059185 5.5882158 0.58658189 9
4.6939535 6.720634 0.59487569 9
4.5735888 6.9948268 0.71478599 9.5
4.6080627 -2.9887166 0.99767405 12
4.4810119 -0.82746661 1.0216081 13.5
4.4286222 -0.67327958 1.0995362 13.666667
4.5940347 0.15456742 1.0226152 13.2
4.7508321 6.5765181 1.0675292 10.333333
4.4048991 7.0267844 1.0498768 11
4.6120205 -2.9888349 1.4252702 14
4.5056024 -0.8603974 1.2972536 14.5
4.4333377 -0.65262485 1.2821264 15
4.5961404 0.15786906 1.3738841 15
4.7002459 6.6933994 1.2342844 11
4.5517755 6.9979224 1.4741069 11.666667
4.5332055 6.7101197 2.1825187 15
4.6701694 7.7522631 2.0980451 13.5
5.0300708 -2.7031641 0.00094698626 7
4.8778572 0.39268059 -0.10334711 6
4.875422 -2.8521922 0.22548246 8
4.9966416 -2.7050755 0.23914808 8.166667
5.0008545 0.31728372 0.20455234 8.1999998
4.9127245 5.3308473 0.30320209 8
4.8439803 -2.8850062 0.62632132 10.5
4.9992256 -2.707036 0.65092641 10.5
4.9841218 0.31733251 0.60032535 10.5
5.0584445 5.7366805 0.59785968 9.25
4.8630176 -2.8766184 1.028344 12
5.0257058 -2.6974978 0.99788374 12.25
4.9700475 0.30590171 1.0305274 12.75
5.140655 5.4620681 1.188908 11
5.0356874 5.8308139 1.0317724 10.5
4.9026108 6.1915107 1.0526301 10.6
4.8395653 -2.9019048 1.3132777 14
4.9393954 -2.74471 1.3786119 14
5.022809 0.33436993 1.3586547 14.666667
5.063056 5.7502089 1.3640984 12
4.9180965 6.1157079 1.4390802 12
4.7982759 6.4220786 1.4868437 12
4.8672266 -2.8325727 1.6219991 15
4.9491305 -2.7405808 1.6365316 15
5.1387491 5.9119577 1.7749004 13
5.0440583 6.1589575 1.7974312 13
5.1566429 6.7365351 1.9611901 13.5
5.0634227 6.9689503 1.9918623 13.333333
4.9746995 7.2104411 2.0224798 13
4.9948802 5.0932846 2.1697865 15
5.1055903 6.9965653 2.0675843 14
4.9049306 7.3886576 2.0696735 13.666667
4.8180933 7.6419635 2.1260769 13.5
5.4730935 -2.621031 -0.050012134 6.6666665
5.4688368 -2.6092057 0.30733502 8.6000004
5.4236221 0.48912877 0.19777396 7.8000002
5.5474291 5.3671818 0.25336635 8
5.5501719 5.7879934 0.27624941 8
5.4802752 -2.6138315 0.65150267 10.333333
5.3656921 0.47554001 0.66839433 10.333333
5.3472099 5.4691725 0.6481998 9
5.5107679 5.6804256 0.49824321 9
5.4157839 -2.612174 1.1194298 12.5
5.4290004 0.50507015 0.96571887 12
5.5059323 5.1528745 0.97715032 10.5
5.4691634 5.4116025 0.97817922 10.666667
5.5035748 5.8062415 1.0322685 10.5
5.4311867 -2.6442747 1.4981387 14
5.4194708 0.49843153 1.4436154 14.25
5.5133996 5.3815727 1.3172185 12
5.4133387 5.728931 1.3787707 12
5.4345865 -2.5753801 1.7310672 15
5.5072117 5.0357218 1.7452675 13.5
5.3586454 5.4612374 1.7811811 13.75
5.3585701 5.7984848 1.8275295 13.5
5.3289452 6.2077141 1.8985667 13.666667
5.2252808 6.5653925 1.9442313 13.666667
5.5840745 4.7621789 2.1549923 15
5.2719603 4.9501362 2.1644061 15
5.7745323 -2.4949372 -0.06584236 6.5
5.7765613 4.5185618 -0.14860673 6
5.8051319 -2.4785948 0.29148597 8.5
5.8155661 0.6562016 0.21238121 8
5.7182145 4.6041684 0.1373506 7.5
5.8262501 5.0186505 0.20971638 8
5.7492099 5.2087264 0.31959918 8
5.7748866 -2.4922955 0.67387319 10.25
5.8657432 0.68259633 0.59976345 9.5
5.8715715 4.6669283 0.69481421 9.5
5.7867723 5.0897093 0.60953009 9
5.6763153 5.414897 0.62889308 9
5.8528872 -2.4676661 1.0244741 11.75
5.8969641 0.68472219 1.0182023 11.5
5.8509054 4.6930017 1.025532 11
5.8155427 5.0495782 0.96112955 10.5
5.6352253 5.4104018 0.88555217 10
5.8012223 -2.4869688 1.4057637 13.4
5.7849951 0.64530486 1.3670299 13.5
5.8022084 4.6697807 1.5443153 12.5
5.7944646 5.0591555 1.2921939 12
5.6442871 5.4058957 1.3418756 12
5.7552838 -2.5083783 1.81669 15
5.8015819 0.64426488 1.6993985 15
5.7445292 4.6899781 1.7412778 13.666667
5.7329073 4.889051 1.7476078 13.5
5.5988541 5.3991456 1.679334 13
5.8451133 4.6371946 2.1575408 15
6.0627341 -2.3678172 -0.065318346 6.5
6.138844 3.7125556 -0.1491264 6
6.0890059 -2.3543766 0.22251043 8
6.0938344 0.76380318 0.21872097 8
6.3217735 0.86301214 0.22466993 8
6.3587537 3.8058393 0.20099092 7.5
6.1899009 4.2168918 0.22332785 7.4000001
6.0972872 4.4646921 0.3687602 8
6.1993942 -2.2839279 0.51710874 9.333333
6.2455592 0.83675677 0.74750203 10
6.3547206 3.8296609 0.55937535 9.333333
6.1982093 4.2164183 0.65250272 9.6000004
6.0795941 4.5216699 0.64406002 9.5
6.0669255 0.76232898 0.90292197 11
6.290451 0.86485994 1.0059611 11
6.3697314 3.8269598 0.9884088 10.333333
6.1670437 4.3059368 1.1460928 11.25
6.0428295 4.6147237 0.93322808 10.5
6.0034628 -2.4044368 1.530664 14
6.130754 -2.3396828 1.2996457 12.666667
6.0039563 0.72886819 1.3690271 13
6.2403231 0.83838505 1.2735134 13
6.336647 3.8275077 1.4000059 12
6.2025809 4.1817093 1.4776914 12.4
6.0388227 4.5896816 1.4466056 12.333333
6.0957603 -2.3609245 1.8098286 14.5
6.2859254 0.86446887 1.8349423 15
6.3291759 3.8205321 1.6877329 13.5
6.1895676 4.1710572 1.7404709 13.6
6.0585575 4.5006332 1.7716626 13.5
6.2305284 3.5052176 2.1622899 15
6.318707 3.9977365 2.0763762 15
6.2184291 4.2529287 2.1185141 15
6.0871873 4.4877453 2.1540184 15
6.7978654 2.181587 -0.17259587 6
6.7871356 2.7680168 -0.030207299 7
6.6182837 2.9912593 -0.040152527 6.6666665
6.5927286 3.2378573 0.022981599 7
6.5192022 0.9460994 0.23457786 8
6.7795548 2.7824836 0.3402063 8
6.7129931 2.9417882 0.30117208 8
6.4998231 3.4729583 0.23846009 7.8000002
6.4110613 -2.1852293 0.66546714 10
6.6801939 1.0269072 0.73883176 9.666667
6.7073226 2.9722216 0.67181069 9.25
6.5603857 3.3274705 0.62478405 9.25
6.4446149 3.6289241 0.48485303 9
6.4347563 0.89785993 1.1667123 12
6.790729 2.777297 1.0054808 11
6.6941848 3.0071771 0.97152901 10.6
6.5452876 3.3772628 1.0078652 10.6
6.4263492 3.6753812 1.1310886 11
6.4288416 0.92117876 1.4974097 13.5
6.7369304 2.7589478 1.430143 12
6.6337476 3.05953 1.4067596 12.333333
6.4661841 3.4458408 1.4650327 12.333333
6.7709527 2.6971629 1.6655577 13
6.6563687 3.0555241 1.7705249 13.333333
6.5199766 3.4347472 1.828774 13.6
6.4307036 3.7115445 1.8678383 14.333333
6.7167997 1.0180905 2.0870907 15
6.6319733 2.3649755 2.1605623 15
6.7488904 2.9339819 2.1293843 15
6.5305901 3.2923148 2.1674268 15
7.1492939 1.8829548 -0.14417009 6
7.0176682 2.1989686 -0.10401605 6.6666665
6.8771038 2.5388465 -0.060667194 7
6.9936318 1.1375508 0.11727135 7.5
7.0617919 1.4199568 0.096016981 7
7.151948 1.8458785 0.1855285 7.5
7.0044112 2.2306838 0.21222365 7.5999999
6.8659048 2.5697789 0.33590606 8
7.1542759 1.8779954 0.68379265 9.5
6.9988661 2.2471576 0.66834593 9.5
6.8550615 2.6021302 0.67825615 9.5
6.923008 1.1081269 1.0895233 11
7.1042094 1.2067263 1.0337535 11
7.1481524 1.8629081 1.0473512 10.75
7.0165019 2.2275572 1.1086866 11
6.8470502 2.6328404 0.94285327 10.666667
7.0196366 1.1419256 1.4093322 12.5
7.1490207 1.7747033 1.3411198 12
6.9821005 2.1897178 1.4022081 12.333333
6.8499408 2.4989612 1.451108 12.333333
6.9896379 1.1536498 1.7606823 14
7.1395164 1.8898478 1.7237452 13.5
7.018919 2.205411 1.7650661 13.6
6.8718042 2.586946 1.7693303 13.5
6.7908168 2.8650219 1.9177059 14
6.9782019 -1.714074 2.1202176 15
6.9084239 1.2059593 2.1590524 15
7.0381818 1.8732466 2.1564786 15
6.8342304 2.1945729 2.1347115 15
6.8540902 2.7055771 2.1031108 15
7.3383727 1.4124047 -0.19847478 6
7.2201366 1.6524903 -0.1647941 6
7.5874224 -1.6908026 0.18595515 7.5
7.3184695 1.4121811 0.20989402 7.8333335
7.229495 1.6607751 0.22072202 7.6666665
7.5654421 -1.7216502 0.77192086 10
7.3312845 1.429867 0.58506525 9
7.2284732 1.6777793 0.57720029 9.5
7.3136134 1.4337555 1.00729 10.5
7.2216806 1.6501564 0.88357842 10
7.2840171 1.4348289 1.441211 12.5
7.2556539 -2.6585023 1.9815675 14
7.3275208 1.5080236 1.8748755 14
7.2176323 1.6959126 1.7141334 13.5
7.3303895 1.4221468 2.1487882 15
7.1982865 1.6472356 2.1523843 15
7.9677024 -1.8839437 0.020564245 7
7.9646306 -1.9260719 0.27634108 8
7.7411532 -1.7767392 0.61017001 9.333333
7.9861917 -1.9279165 1.3208277 12
8.3324995 -2.5547366 -0.10616294 6.5
8.1636591 -2.1835482 -0.059552342 6.75
8.2815828 -2.5233729 0.22431436 8
8.1491461 -2.1364844 0.1743475 7.6666665
8.0569553 -1.8738598 0.19542743 8
8.3199358 -2.5543871 0.49672452 9
8.1436272 -2.1786544 0.65315253 9.5
8.2974052 -2.4789603 0.85029811 10
8.2030096 -2.1532991 0.91360563 10
8.3313007 -2.4920905 1.5811892 12
8.2015371 -2.2368345 1.4441541 11.5
8.0792551 -1.9029169 1.538819 12
8.3055782 -2.6141536 1.9974104 13
8.2038326 -2.2172136 1.8551761 13.4
8.1514301 -1.8421824 1.7278168 13
8.7689638 -3.2218754 -0.15457927 6
8.5226984 -3.0193834 -0.11088988 7
8.4783554 -2.6936541 -0.13768911 6.3333335
8.5417032 -2.9712353 0.11916909 7.5
8.4882431 -2.6841285 0.20164184 8
8.7731256 -3.2644064 0.75192606 9
8.6062565 -3.1036015 0.47155991 8
8.7506485 -3.156013 0.85464197 10
8.457427 -2.6895261 0.86419594 10
8.413372 -2.6444805 1.3434355 11
8.7561941 -3.1236291 1.8991867 13
8.5667524 -2.7746239 1.7362599 12
8.8665457 -3.2271428 1.5909262 12
8.8523531 -3.2928276 1.6423274 12
