# .PCD v0.7 - Point Cloud Data file format
VERSION 0.7
FIELDS x y z intensity
SIZE 4 4 4 4
TYPE F F F F
COUNT 1 1 1 1
WIDTH 114
HEIGHT 1
VIEWPOINT 0 0 0 1 0 0 0
POINTS 114
DATA ascii
-4.5194368 -2.6173196 0.18926832 8
-3.1724794 -1.5458413 0.27465788 9
-3.0818448 2.6791909 0.44484657 10
-3.0665848 2.6827028 0.67037326 11.5
-3.0833073 2.6794496 0.91023016 13
-2.9449773 2.6789646 0.32983235 9
-2.8259554 3.19332 0.40786463 10
-2.8596401 3.1707838 0.67815042 12
-2.8966472 3.3582637 0.69376206 11
-2.8027847 4.4354248 0.69870949 11
-2.8982179 2.688122 0.98861796 14
-2.8512838 3.1568475 0.98568583 14
-2.8731189 2.6878717 1.074175 15
-2.8230915 3.1539648 1.1515015 15
-2.8492243 3.9932323 1.1329246 14
-2.7855089 4.2768636 0.91928524 12
-2.6515424 5.7665424 1.0615858 12
-2.757149 4.9838228 1.3127639 14
-2.6750882 5.7236776 1.4502774 13
-2.6310658 5.9677415 1.4978023 14
-2.4817753 5.1736326 0.79142547 11
-2.2383595 -2.5059049 0.26752582 9
-2.2183316 -1.8034093 0.37240165 11
-2.2702715 5.4751115 0.39644659 9
-2.1553862 -3.0465605 0.18205507 8
-2.1792564 -3.0649426 0.29267749 9
-2.0890951 3.6468489 0.33883435 9
-2.1488724 -3.0617754 0.62541735 12
-1.8873026 -3.2071669 0.23589389 9
-1.9106629 -3.2005739 0.79070544 13
-1.8298781 -3.2002459 0.60430878 12
-1.9935656 -3.074513 0.88961339 14
-1.4019774 6.8309603 1.6730304 14
-1.2570249 4.6738772 0.51716745 10
-1.366164 6.8108535 1.0757802 11.5
-0.41272569 6.657804 1.0043256 11
-0.43714753 6.6786871 1.5074782 13
-0.50204039 6.7024064 1.6030831 14
-0.39067185 -3.3356669 0.76658398 13
-0.34367469 6.6485715 1.0474501 12
0.56068981 6.6428509 1.3619785 13
0.43696094 6.6486807 1.5975164 14
0.95212346 0.64691383 -0.041762915 6
0.93275797 -1.1256127 0.14598052 10
0.82091731 -3.4442494 0.39751273 10
0.9315154 -1.2273208 0.37625721 14
0.90057212 -3.3389878 0.54358 11.5
0.87049955 -3.3378379 0.91391909 14.5
1.171699 -3.3660879 0.21716875 9
1.0975243 -1.2161433 0.31346577 12
1.1440363 -1.0822541 0.33913356 13.5
1.0497003 -1.1806251 0.46990198 15
1.1875979 -3.3693223 0.99536598 15
1.232842 -3.3728697 0.34017095 10
1.2350618 -3.3657236 0.53140122 11
1.3947158 -1.0768993 0.49510658 15
1.2194346 -3.3658919 0.85422343 13.5
1.2069694 6.5852785 1.597024 14
1.4535499 -1.011116 0.35893726 13
1.4644618 -0.98314792 0.28574753 12
1.4974331 -0.63794976 0.30066407 12
1.5109543 -0.59244955 0.32426822 13
1.4975793 -0.59192467 0.43262684 15
1.7580481 5.8825183 0.71787798 10
1.7423263 5.9015436 0.96092504 11
1.7986146 5.8678746 1.2065957 13
1.9056383 -3.5485137 0.14293054 8
1.9579799 -3.5519516 0.43858662 10
1.9252012 -3.5419521 0.63120937 12
1.8049295 5.8642068 1.4791111 14
2.4254267 -0.68841654 0.2889564 10
2.58111 5.8195701 0.76371169 10
2.7327883 6.0526829 1.3778794 13
2.6449745 6.0692477 1.5411409 14
2.8173051 5.7776375 0.9275943 11
3.0938616 5.7270083 0.53739929 9
3.339586 6.4672356 2.1161442 15
3.969017 5.8403792 1.5512614 13
4.0299129 5.7386198 0.58303082 9
4.3081722 4.348865 0.64771032 10
4.4069271 3.7890332 0.37054393 9
4.6980534 5.7979236 1.5775182 13
4.8665705 6.1685691 1.202014 11
5.1270218 0.89727622 0.11952899 8
5.0319376 2.7994833 0.26553452 8
5.0341921 2.7226191 0.47684664 9
5.1576104 1.1644166 0.66038531 11
5.111392 3.5642574 0.7475161 10
5.1058512 0.72748291 0.81723958 12
5.0277128 2.7892058 0.93512946 12
5.116518 3.6565585 0.86742926 11
5.017529 4.347929 0.95599324 11
5.0693073 0.30873832 1.1656337 14
5.1191864 0.54283613 1.08705 13
5.1490412 1.1339961 1.0294087 13
5.0285659 -0.10231135 1.3417137 15
5.1324878 0.87430716 1.3868965 15
5.0341134 2.8292928 1.2874603 13
5.1848068 5.3793602 1.3149267 12
5.0314512 2.798408 1.5768478 15
5.1201739 3.6566341 1.434517 13
5.1890545 5.3467789 1.5265428 13
5.2167549 1.611222 -0.029130228 7
5.2159929 1.675146 0.18406242 8
5.2302032 1.840354 0.38427585 9
5.2919383 2.3474343 0.21371342 8
5.3123546 2.5409627 0.59662724 10
5.2205095 2.7256851 0.7519784 11
5.2198892 1.8221818 0.97738165 12
5.2547054 2.0488465 0.84352696 11
5.215076 1.7373718 1.1293226 13
5.2602463 2.1311491 1.3218222 14
5.2951188 2.4095271 1.2435621 13
5.2366843 1.5405825 1.6333556 15
