# .PCD v0.7 - Point Cloud Data file format
VERSION 0.7
FIELDS x y z intensity
SIZE 4 4 4 4
TYPE F F F F
COUNT 1 1 1 1
WIDTH 207
HEIGHT 1
VIEWPOINT 0 0 0 1 0 0 0
POINTS 207
DATA ascii
0.16653265 -0.71342152 -0.0023731675 174
0.26282176 -0.71846986 -0.0025826397 182
0.35638002 -0.72424686 -0.0041327616 185.5
0.44997951 -0.71840888 -0.0058736913 191
0.5447017 -0.71494603 -0.0053215912 191.5
0.28213826 -0.6080088 -0.0073750848 186
0.36041278 -0.6093272 -0.0041423496 187
0.53695965 -0.67881799 -0.0072321268 190.5
0.64180696 -0.66228878 -0.0091663031 190
0.71866429 -0.6444661 -0.0080264499 190.39999
0.055540588 -0.53206456 -0.0010627679 180
0.12723809 -0.56892878 -0.002109932 184.5
0.24716502 -0.55030447 -0.0041850349 184.85715
0.33960792 -0.52250719 -0.013889244 184.3
0.43538409 -0.56557322 -0.0048499554 186.75
0.55001086 -0.54765868 -0.0075401538 188
0.65657127 -0.52533203 -0.0072770789 189.75
0.773166 -0.56039417 -0.010152577 192
0.84558731 -0.51315027 -0.014890862 194
0.058056556 -0.43125004 -0.019568061 180.89999
0.15116705 -0.4577446 -0.024253665 180.94737
0.24351931 -0.45841303 -0.023437174 180.53847
0.34500828 -0.45977622 -0.026731109 180.6875
0.45640263 -0.45903769 -0.02056714 181.35001
0.55116087 -0.42383265 -0.01216664 181.81818
0.65431386 -0.46986851 -0.0089359246 187
0.74183697 -0.44228184 -0.0036697437 189.39999
0.86603642 -0.44378772 -0.015164226 192.75
0.081546463 -0.3808642 -0.023050122 179.66667
0.15281521 -0.33679572 -0.03045468 176.32353
0.25202489 -0.34874141 -0.037115503 174.0238
0.34976923 -0.34422415 -0.033788994 172.63637
0.44249001 -0.33757824 -0.021971595 173.16216
0.54456282 -0.34959236 -0.016145786 176.43478
0.64145315 -0.33335367 -0.0138407 179.33333
0.77265698 -0.3670474 -0.0040706783 186.66667
0.83184475 -0.34482777 -0.0016175326 189.5
0.92478591 -0.36079985 -0.017969767 191
0.17473368 -0.27260289 -0.053160116 170.63637
0.25192711 -0.2420873 -0.042272974 168.32558
0.35060167 -0.24788742 -0.046029121 169.21277
0.45649326 -0.25659943 -0.053257719 170.61111
0.54921609 -0.24133635 -0.038165309 171.5
0.64838773 -0.24562062 -0.01710172 170.54546
0.72424364 -0.23861037 -0.011294344 174.72728
0.82554042 -0.29587987 -0.0069060563 186.5
0.27102005 -0.16377856 -0.04027516 167.09525
0.3490431 -0.14374748 -0.045937169 167.3307
0.44208407 -0.14100057 -0.040701237 168.59
0.55271506 -0.15088943 -0.058177955 170.58928
0.62504005 -0.16896908 -0.029440884 172.07692
0.37772426 -0.050728898 -0.066179693 167.19162
0.42909464 -0.046911851 -0.051504426 167.46321
0.51765621 -0.086474247 -0.044115167 169.3
0.28404751 0.089215845 -0.065560773 166.33333
0.37107351 0.049709294 -0.070538692 167.80176
0.41936001 0.048775591 -0.056080386 168
0.18893182 0.19193541 -0.039669074 171
0.26665378 0.15423214 -0.04332969 168
0.34825933 0.1417542 -0.049117789 168.03252
0.44110063 0.14064157 -0.046580005 169.42268
0.53441089 0.17050794 -0.070734881 171.84
-0.013694536 0.29789805 -0.04109589 183
0.055923883 0.26929995 -0.041830868 178
0.14996277 0.25482365 -0.062319383 173.48276
0.25300702 0.23994005 -0.050140239 171.7
0.35100767 0.24705048 -0.055747744 171.8125
0.45751035 0.25549224 -0.066511743 173.27777
0.54772562 0.24230067 -0.048376683 176.44444
0.62930924 0.27619937 -0.039288234 181.39999
-0.14121303 0.38965303 -0.027990965 189
-0.044648256 0.35479635 -0.034906473 186.13637
0.05016442 0.34762743 -0.045474112 181.54546
0.15513094 0.33115375 -0.042544052 177.26666
0.25148001 0.34449533 -0.050415009 176.45238
0.35002172 0.34160849 -0.049165946 176.86842
0.44121477 0.33234504 -0.040163592 178.42424
0.54944414 0.35112658 -0.036632203 181.35001
0.64795578 0.34391186 -0.030710679 184.79167
0.71644008 0.38056448 -0.024509082 189
-0.25368705 0.47381628 -0.035707839 195
-0.15956293 0.42909342 -0.021407148 193
-0.064846881 0.45445374 -0.030350376 190
0.057145815 0.43813398 -0.034621157 187.29411
0.15136425 0.45422098 -0.043308381 184.31818
0.24534906 0.46608251 -0.045999881 183.90909
0.34098783 0.46215379 -0.045353718 183.21739
0.45747688 0.45488822 -0.037954185 184.03703
0.5544557 0.42739874 -0.028340399 185.5
0.6534875 0.45722657 -0.028695481 189.375
0.7388472 0.44176498 -0.02503721 192.55556
0.8170433 0.49166274 -0.042063236 196
-0.40133214 0.58220977 -0.033097897 200
-0.34935197 0.54489571 -0.039164621 198.39999
-0.21632865 0.57582361 -0.0404604 197.5
-0.17491788 0.53681511 -0.041787315 194.75
-0.045260075 0.53224647 -0.037966598 192.16667
0.041513644 0.55193096 -0.030619802 191.85715
0.13306539 0.54919577 -0.026134012 190.57143
0.2547749 0.53802055 -0.027344262 189.1875
0.3615351 0.54851186 -0.027720498 189.375
0.44132441 0.54539055 -0.027037608 190.14285
0.54627579 0.55743617 -0.027860681 192.07692
0.65403408 0.53361744 -0.028374787 194
0.76925397 0.56477952 -0.040024925 197.33333
0.83707136 0.51449472 -0.042777993 197.5
-0.54084271 0.6863628 -0.041204467 178.5
-0.47491348 0.63823551 -0.044006586 188.66667
-0.3056365 0.66077995 -0.041411065 201.5
-0.2700642 0.62846279 -0.048055086 199
-0.12855101 0.63801527 -0.051857173 197.5
-0.022534028 0.65832353 -0.042708561 196.60001
0.078518473 0.67769587 -0.047209587 195.5
0.16379452 0.61448997 -0.027039532 193.83333
0.27640235 0.62325644 -0.028178381 193.2
0.35774833 0.63330007 -0.028863482 193.5
0.44006154 0.63627845 -0.0314104 193.60001
0.52838689 0.6521613 -0.038804553 195.5
0.63649237 0.657426 -0.042498376 197.33333
0.71461868 0.64779925 -0.043114673 197.75
-0.63045752 0.75157529 -0.036187071 159
-0.56232822 0.70043379 -0.030505124 168
-0.42991164 0.77823901 -0.039241511 186.5
-0.37768668 0.73125988 -0.051133778 194.33333
-0.21481849 0.74454492 -0.05555167 199.66667
-0.13282439 0.765194 -0.051517375 200
-0.073294602 0.74113786 -0.04820637 200.33333
0.050872996 0.73621106 -0.044881474 198.39999
0.15896906 0.74099469 -0.047426824 197.16667
0.25931141 0.74090165 -0.044738274 197
0.35601473 0.7394551 -0.042801473 196.8
0.45223045 0.75068212 -0.043492194 197.2
0.54774445 0.7378704 -0.043676168 198
0.64194793 0.71904063 -0.038456071 197
-0.50399423 0.85011292 -0.046518166 173
-0.45569777 0.8054145 -0.05172373 182
-0.33528355 0.89369321 -0.062064029 185
-0.28269956 0.82981431 -0.063543327 195
-0.15799993 0.8774913 -0.052404165 196
-0.016060701 0.88411933 -0.051417928 199
0.0081089558 0.83112788 -0.049885307 200
0.12290388 0.85951632 -0.05272764 201.25
0.24026428 0.86257589 -0.056025311 200.75
0.35289255 0.86482942 -0.054667048 201
0.4625307 0.85682791 -0.050456453 200.66667
-0.36032206 0.9224447 -0.055490006 180
-0.20838608 0.95915878 -0.056395743 187
-0.046454474 0.95231593 -0.056400303 192.66667
0.089227855 0.97210836 -0.060194518 198.66667
0.229513 0.91898942 -0.053144816 203
0.35010889 0.93589944 -0.057093464 202
-0.20996501 -0.95839316 0.024791772 150
-0.04159794 -0.93769217 0.018925479 158.66667
0.082379401 -0.97829658 0.017666128 153.66667
0.1001836 -0.92205048 0.013681917 160
0.21926583 -0.97263932 0.0049308687 157
0.34596202 -0.93296522 0.0091684945 161
-0.33203939 -0.8868674 0.028668974 146.5
-0.28150785 -0.8253547 0.021230517 154.66667
-0.15479307 -0.86969709 0.019697152 160.25
-0.013101639 -0.87385881 0.018413359 164
0.011088034 -0.82010239 0.017152717 165
0.12254071 -0.8475582 0.013637464 164
0.23623846 -0.85999805 0.011476769 163.39999
0.34873259 -0.86064392 0.0080867438 167
0.45892182 -0.850016 0.0086973719 170.25
0.56509566 -0.80975455 -0.00057473074 177
-0.23780063 -0.77069443 0.019911945 165
-0.19310971 -0.71371746 0.022386415 167.33333
-0.083007075 -0.75279862 0.017022379 168.2
0.049484067 -0.73614353 0.012532745 166.8
0.15344936 -0.74764705 0.0096462276 169.60001
0.25391906 -0.75893456 0.0069520767 173.25
0.35262576 -0.7658323 0.0055887136 178.25
0.45123857 -0.75864285 0.0047771279 181.5
0.55085015 -0.75093025 0.0031716116 185
0.64348686 -0.71604365 0.0017142795 183
-0.13074979 -0.63719481 0.015318573 169
-0.026558427 -0.66262281 0.010271449 169.39999
0.05920244 -0.66127366 0.0044170152 171.75
0.17686874 -0.62846565 0.0085091684 180.42857
0.27428094 -0.63664877 0.0059229969 187.39999
0.35683686 -0.63533741 0.0070734164 188.39999
0.43996575 -0.63879418 0.0047515212 190.5
0.51793915 -0.61083752 0.0078996755 190.5
-0.048430108 -0.53468889 0.011249829 170.375
0.042863879 -0.54826552 0.011193294 176.57143
0.13205059 -0.55283016 0.0080075944 182.25
0.25405741 -0.52250701 0.0054711238 184.22223
0.3611123 -0.53073388 0.0045987912 186.5
0.44930393 -0.52982157 0.0045296685 186.71428
0.56518382 -0.57794386 0.0026409163 189.83333
0.65879893 -0.53318858 0.00050720328 190
-0.013033102 -0.49270523 0.0021388242 177
0.052134495 -0.45986491 0.0069030467 181.81818
0.16030256 -0.49132481 0.0041958676 183
0.49070862 -0.4854663 0.0030392725 186.33333
0.56994355 -0.44703168 0.0038108439 184.8
0.63799226 -0.42549554 0.0040980293 186.25
0.74259669 -0.4566927 0.00080918241 190.25
0.67300057 -0.36308914 0.0036066517 183.71428
0.74378133 -0.34191763 0.005234397 186
0.84581065 -0.33191249 0.0016002932 189.75
0.7398771 -0.26922461 0.0035333224 181.88889
0.24421549 0.098732777 0.020700188 122.5
0.18279803 0.13733852 0.056406952 131.09091
0.23338792 0.11563469 0.028413912 125.25806
