# .PCD v0.7 - Point Cloud Data file format
VERSION 0.7
FIELDS x y z intensity
SIZE 4 4 4 4
TYPE F F F F
COUNT 1 1 1 1
WIDTH 561
HEIGHT 1
VIEWPOINT 0 0 0 1 0 0 0
POINTS 561
DATA ascii
-9.7502117 5.0621934 0.40474021 8
-9.7444658 5.2809091 0.21154 7.5
-8.4399757 -2.5717096 0.59621769 9
-8.5074482 -2.559339 1.9213185 13
-8.3037786 -2.5929272 0.76372409 10
-8.192111 -2.5822399 1.7771713 13
-7.8660574 -2.6145113 2.2533555 15
-7.6066899 3.4760907 2.4056749 15
-7.6287875 4.0355277 2.3855641 15
-7.2223973 4.6492262 0.19583386 8
-7.3572216 3.6905084 2.402545 15
-7.4048138 4.1584411 2.3769646 15
-7.1586771 3.1777461 2.3822498 15
-7.0707626 3.876977 2.3889494 15
-6.7073393 -2.7352839 1.9936732 15
-6.4842138 -2.7243631 2.103513 15
-6.5938134 4.269742 2.3894434 15
-5.6406584 -2.4450674 1.7504441 15
-4.8222079 -2.5137572 0.39953861 9
-5.0546665 2.9963474 0.20389302 8
-4.8101306 3.3353631 0.27422199 8
-4.808197 3.6492059 0.2526561 8
-4.8924313 -2.4966652 0.64191264 10.5
-4.8186016 3.4073718 0.54749113 9.666667
-4.8069863 3.6394393 0.4337891 9
-4.9266291 -2.5307305 0.89922464 12
-4.8245902 3.3704667 0.96214664 11.75
-4.8758378 -2.5138865 1.586129 15
-4.7999511 3.4771204 1.3116591 13
-4.8565216 3.2966614 1.6636441 15
-4.6733255 -2.6452596 0.28310952 8.666667
-4.7901378 3.4320097 0.27880797 8
-4.7744927 3.7804976 0.29984945 8
-4.751102 -2.8367465 0.45516929 9
-4.7529244 -2.6465638 0.62995988 10.5
-4.7959661 3.4943218 0.43439871 9
-4.7867351 3.7831199 0.45135188 9
-4.7494268 -2.8476429 1.038059 12
-4.7536983 -2.6412072 0.97030264 12.333333
-4.7938852 3.4397275 1.0761443 12.333333
-4.7931738 -2.8160584 1.2604944 13
-4.752974 -2.5896187 1.4596714 14.333333
-4.7805181 3.4155681 1.6799152 15
-4.0072284 -3.0212791 0.32325196 9
-4.0429516 -3.0080934 0.5646106 10.5
-4.2358522 -1.1625509 0.86304021 13
-3.8121393 -3.0361991 0.22482954 8.3999996
-3.641067 -1.1502407 0.67748737 12
-3.7744579 2.8533401 0.58350927 10.5
-3.8680692 -3.0073538 1.0399181 12.666667
-3.7608569 2.8619246 1.0327563 13
-3.8068471 -3.0094192 1.3470107 14.6
-3.7678804 2.8588996 1.3013357 15
-3.2193367 -1.5625662 0.39658698 10
-3.3375051 -1.0633861 0.30821243 9.333333
-3.2976911 -3.0477312 0.78458059 12
-3.232141 -1.5519137 0.56710553 11.5
-3.2634826 -1.1278272 0.6085704 12
-3.2974269 -3.0806599 1.0095056 13.5
-3.248791 -1.3724121 0.89095712 14
-3.3776689 -1.1773908 1.0193911 15
-3.0955465 -1.3928661 0.30666381 9.5
-2.9682167 2.7137482 0.34312132 9.5
-2.841959 3.0705104 0.39054853 10
-2.8871031 3.5075967 0.31591725 9
-2.8635759 3.7074361 0.362663 9
-3.0725822 -1.3552016 0.62476748 12.111111
-3.1685097 -1.0912645 0.58936781 12
-2.9013908 2.7230966 0.55401522 11
-2.8579726 3.0079834 0.58808327 11.166667
-2.8792756 3.3978536 0.5868569 11
-2.8614588 3.8065386 0.64419687 11
-2.8290148 4.1990438 0.6887297 11
-3.0139949 -1.4281558 0.8520605 14
-2.9941423 2.6992288 0.98352331 14
-2.8544695 2.9914329 0.99112976 14
-2.8675666 3.3740411 1.0255065 13.8
-2.8514347 3.7887077 1.0139728 13.2
-2.818182 4.1777306 1.0179597 13
-2.8221722 -3.1240435 1.2250586 15
-2.839957 2.9592593 1.2458791 15
-2.8679798 3.4682782 1.2846606 15
-2.8349426 3.8168855 1.3568977 15
-2.8171754 4.2573743 1.2060524 14
-2.5716012 -2.4235809 0.28439525 9.5
-2.6396797 2.742306 0.30572423 9.333333
-2.5530651 2.9870727 0.28898749 9
-2.6226077 3.7382822 0.33865485 9
-2.7737644 2.738477 0.5211392 11
-2.5504777 3.6709876 0.44351548 10
-2.7825942 4.622035 0.59630054 10.333333
-2.683404 5.0735674 0.59649289 10
-2.5360534 5.4232645 0.50755364 9.5
-2.4470849 6.0916753 0.62917882 10
-2.4442933 7.0301299 0.55655956 9.5
-2.7963371 4.2224011 1.0618004 13
-2.7707949 4.5211253 1.024659 12.5
-2.6949797 5.0007992 1.0273367 12.166667
-2.7022715 5.3328338 0.95794964 11.666667
-2.6601305 5.7443118 0.98286629 11.5
-2.6179414 6.1429815 1.0485423 11.666667
-2.5803764 6.6109915 1.0139738 11.333333
-2.5053868 6.9471836 1.0437028 11.333333
-2.7888017 4.1806469 1.5205938 15
-2.777868 4.5732131 1.3641422 14.333333
-2.7611387 4.858644 1.3067313 14
-2.709717 5.4034691 1.3885189 13.6
-2.6691027 5.828486 1.4498211 13.5
-2.6257989 6.1984706 1.5389789 13
-2.7447321 4.685554 1.6393749 15
-2.7081833 5.0183201 1.7197694 15
-2.6706283 5.3872213 1.8095586 15
-2.6265645 5.8023224 1.9129725 15
-2.6178703 6.1423287 1.6870613 14
-2.5705581 6.6309524 1.7251405 13.666667
-2.5051491 6.9678569 1.7573167 13.5
-2.5258996 8.3448343 1.9154117 13
-2.5784929 6.2603879 2.0276082 15
-2.5414371 6.6033568 2.1152773 15
-2.5003765 6.9716592 2.2100263 15
-2.1971204 -3.0064652 0.2003713 8.5
-2.2361016 -2.6091404 0.26224476 9
-2.2263312 -1.7249793 0.3818734 11
-2.201462 -1.5346627 0.29048231 10
-2.090605 -0.70230126 0.26235008 10
-2.2489011 3.6596069 0.36389521 9.666667
-2.1483483 -3.0613041 0.58453596 11.571428
-2.2709317 -2.6362033 0.62326807 12
-2.2493591 -2.1942177 0.59220988 12.333333
-2.1776338 -1.8036922 0.54380459 12.25
-2.1830585 -1.5102022 0.64292836 14
-2.2656326 5.479166 0.51729685 9.5
-2.249649 5.8437648 0.54464638 9.5
-2.2531857 6.1959414 0.55390036 9.5
-2.3531067 7.0277948 0.71783513 10
-2.1909924 -3.035033 0.95756096 14.166667
-2.2987008 -2.2737625 0.86470139 15
-2.2418029 8.3082886 1.1287905 11
-2.3774104 7.0533385 1.3242893 12
-2.1868191 7.0222402 1.8325022 14
-2.2583582 7.0994554 2.2402699 15
-1.6422433 4.5165944 -0.28684705 5
-1.7776252 -3.216506 0.26807398 9
-1.9600786 -3.1554434 0.2914069 9
-1.7588204 -3.20856 0.65318209 12.2
-1.9098623 -3.1524355 0.62346631 11.8
-1.6607881 -3.2102048 0.96977293 14.666667
-1.8364431 -3.1781392 0.98357004 14.5
-1.6056741 6.9514475 1.0834541 11.5
-1.6460891 6.9765735 1.5931808 13
-1.7478839 6.9766197 1.7709175 14
-1.2229939 1.9930826 -0.11190543 6
-1.4179688 2.2378135 -0.1344309 6
-1.2220554 2.5931163 -0.11329663 6
-1.4684358 2.9961863 -0.14310901 6
-1.2218524 5.1398211 -0.064127244 7
-1.3839489 -3.2512605 0.27226153 9
-1.3920121 -3.2372494 0.61600727 12
-1.4002633 4.6892896 0.52926713 10
-1.4099115 -3.230418 0.94704109 14.6
-1.5796381 -2.5464447 0.88736743 15
-1.237745 6.7968564 1.0039372 11
-1.3736727 6.835578 1.0712178 11.5
-1.3609717 6.8252172 1.5327852 13
-1.3719991 6.8446569 1.6555101 14
-0.8404578 1.1684445 -0.042442657 6
-1.005154 1.445739 -0.065590173 6
-1.0257438 1.7467498 -0.093541861 6
-0.96808869 2.1782 -0.084098503 6
-0.83461136 2.6793258 -0.10456868 6
-1.0252879 3.1070523 -0.13576467 6
-0.99451321 4.4516835 -0.10912681 6
-0.98002356 -3.2857735 0.2411525 9
-0.99412286 -3.2744319 0.59985 12
-0.99498707 4.6599588 0.54833686 10
-0.91512752 6.7190361 0.66379219 10
-1.0371358 6.8093305 0.66677064 10
-1.0262634 -3.2645977 0.92699009 14.6
-0.99779034 6.7713737 1.0700824 11.5
-0.99740005 6.7777562 1.5170647 13
-0.94100362 6.7696204 1.6429312 14
-1.1110015 6.8016849 1.6485091 14
-0.53899729 1.0002029 -0.054073405 5.3333335
-0.61388427 1.3972036 -0.055308871 6
-0.59399867 1.815801 -0.061992541 6
-0.6052919 2.168659 -0.074408762 6
-0.56839436 2.5168846 -0.098048203 6
-0.49277085 2.8605917 -0.11263143 6
-0.62971377 3.3197355 -0.14469889 6
-0.72300637 6.5159144 -0.24627495 6
-0.59491593 -3.3262398 0.2058178 8.7142859
-0.52600425 4.9613714 0.092079684 7.5
-0.59412819 -3.3162303 0.59018397 12
-0.58398968 4.6081834 0.53984648 10
-0.60009855 -3.3087468 0.90186757 14.5
-0.63991648 6.7392302 1.0651557 11.5
-0.69383657 6.7677131 1.4987102 13
-0.59148288 6.7396836 1.6572922 14
-0.20657352 0.60231966 -0.044030804 5
-0.16560861 0.96054107 -0.05703751 5
-0.31950739 1.538834 -0.049811184 6
-0.13374211 1.6771369 -0.055637084 6
-0.20716324 2.2630129 -0.084714629 6
-0.061578788 2.6195829 -0.10459445 6
-0.13394186 3.0534928 -0.12580597 6
-0.20057186 3.4550116 -0.14684227 6
-0.22617604 -3.3635263 0.21827471 9
-0.087776065 -1.2360138 0.037586655 8
-0.26519012 -0.98531431 0.027618263 7.6666665
-0.047437929 -0.58773667 0.0095011937 7.3333335
-0.18518919 -3.3595595 0.51147276 11.428572
-0.35401478 4.554656 0.51179916 10
-0.24110787 6.671361 0.67487818 10
-0.19088373 -3.3528168 0.89856452 14.5
-0.16457486 6.687499 1.0228275 11.4
-0.2085246 6.6879878 1.4707286 13
-0.17531726 6.6932912 1.6507884 14
0.26675189 -0.49822143 -0.015925268 6.25
0.36437109 -0.36595458 -0.022116441 6
0.36222732 0.34951171 -0.042885162 4.5
0.26646376 0.59513319 -0.047517911 4.75
0.1975439 0.98540264 -0.060552232 5
0.26094139 1.2173135 -0.071573213 5
0.17710245 1.9740027 -0.072608694 6
0.29503337 2.2641485 -0.088609479 6
0.2841565 2.5413826 -0.097782515 6
0.26885694 2.9823084 -0.12083195 6
0.24829909 3.5698655 -0.1508351 6
0.2269897 4.2288976 -0.19188812 6
0.19660009 4.4113288 -0.099839464 6.5
0.10305502 6.5476651 -0.12972546 6
0.21000315 -3.3980789 0.18878716 8.666667
0.24908616 -0.88837451 0.013418707 7.5
0.13977234 -0.57214373 0.0054913 7.25
0.11091279 4.5403705 0.23588695 8.5
0.056437764 6.5218778 0.071990833 7
0.19106655 -3.3925128 0.56913573 12
0.29352418 4.522871 0.54145306 10
0.11924614 6.6930995 0.69504172 10
0.23050968 -3.3887897 0.91716665 14.6
0.20515791 6.6790752 1.0211097 11.4
0.21581101 6.6816001 1.4716102 13.2
0.18005814 6.6838474 1.6859136 14
0.47600281 -0.54865277 -0.013524785 6.6666665
0.56309313 -0.22484244 -0.029546974 5.6363635
0.5673461 0.26762071 -0.04614969 4.5555553
0.54417449 0.50429285 -0.045138139 5
0.54221898 0.99782145 -0.06473361 5
0.64808875 1.7240678 -0.067072913 6
0.5877164 2.2734914 -0.089767128 6
0.61607343 2.5813403 -0.10314162 6
0.67251074 3.1862574 -0.13246137 6
0.70941049 3.5859382 -0.15018831 6
0.75831831 4.1129732 -0.1746273 6
0.79340118 4.7521791 -0.10164364 6
0.61125523 -3.41031 0.18702395 8.5
0.55999917 -0.46445954 0.0012185429 7
0.69134152 -0.37502354 0.0034334806 7
0.72494769 4.6947761 0.16813362 8
0.59818786 -3.4255602 0.52595574 11.5
0.57194841 6.6437573 0.71995157 10
0.60404408 -3.4225402 0.91762662 14.5
0.61399865 6.648304 1.0237347 11.4
0.62578052 6.6517181 1.4415379 13
0.62079555 6.6504154 1.6707882 14
0.94357145 0.63710892 -0.041639525 6
0.9728899 0.85157061 -0.054313425 5.5
1.1897874 1.5800871 -0.076910779 6
1.0757275 1.9226639 -0.083493061 6
0.97460723 2.2232635 -0.09817715 6
0.96320593 2.6096981 -0.11528138 6
1.0200561 2.8651571 -0.12561496 6
1.1014835 3.2256591 -0.1453111 6
1.1871567 3.6109645 -0.16058694 6
1.0266603 -3.3962479 0.22322597 8.833333
0.97069854 -1.2630104 0.23928833 11.428572
1.0592542 -1.1098316 0.21517549 11.181818
0.84491557 -0.31009212 0.00099784904 7
0.89650977 6.5391965 0.080847628 7
0.97760069 -3.3747735 0.51015097 11.125
1.0309824 -1.1391718 0.42159194 14.666667
0.89895964 6.5804954 0.6002866 9.666667
0.9878301 -3.3654356 0.92037082 14.333333
1.0355233 6.6154933 0.96673274 11
1.0249454 6.6161437 1.4716549 13.25
1.0268412 6.61518 1.7061002 14
1.2818937 1.0232973 -0.049814258 6
1.3952832 1.3569858 -0.071920887 6
1.4102814 1.8240101 -0.095009722 6
1.408043 2.3411052 -0.11591689 6
1.2972661 2.5285058 -0.1195512 6
1.5012853 3.091855 -0.14457037 6
1.4440396 -3.4843571 0.18883926 8.5714283
1.3766003 -1.3324898 0.18346626 9.8888893
1.4173948 -1.0140318 0.24707784 11.25
1.4905648 -0.71205622 0.23693728 11.25
1.5650359 5.8155775 0.22986387 8
1.3764277 -3.4644356 0.53896785 11.25
1.4090122 -1.2784079 0.51821333 15
1.4136198 -1.0046743 0.46785325 14.6
1.4900706 -0.6948247 0.43415466 14.5
1.5127916 5.8392434 0.47326538 9
1.3950174 6.5631838 0.76995403 10
1.436321 -3.4850888 0.94827622 14
1.4247981 6.5673018 1.0134156 11.333333
1.4091097 6.5739927 1.3920867 13
1.4064174 6.5648627 1.6938772 14
1.6147448 1.397573 -0.079287179 6
1.7696123 1.7884572 -0.1021689 6
1.8364327 2.121747 -0.11882414 6
1.7279617 2.6255505 -0.13683371 6
1.896863 2.9532096 -0.15659866 6
1.669039 3.5507224 -0.17169316 6
1.6818051 5.8065033 -0.27519882 5.5
1.6635078 -3.6770797 0.28400436 9.5
1.7951646 -3.5375416 0.14290072 8
1.7929291 -0.62432986 0.32249808 12
1.6073132 5.8123937 0.047192395 7
1.7845906 -3.532954 0.53646284 11
1.7745471 -0.61737305 0.48825729 14.4
1.9109191 5.8382015 0.60096705 9.5
1.7023506 6.5403996 0.76676154 10
1.777222 -3.5238695 0.98166585 14
1.8568853 5.8593783 1.0070738 11.666667
1.7588359 6.509037 1.0392345 11.5
1.8142761 5.8934212 1.3496675 13
1.7941422 6.5134468 1.4493409 13.333333
1.8190709 5.9002881 1.6058288 14
1.7551234 6.5277233 1.723403 14
2.1225002 1.9697356 -0.11932006 6
2.3063462 2.1773114 -0.1321927 6
2.1604428 2.5935855 -0.14492583 6
2.3877661 2.9242835 -0.16423431 6
2.1048236 3.3571928 -0.17973369 6
2.1010823 -3.5702672 0.14002128 8
2.1727493 -0.66709405 0.26131931 10.285714
2.3497269 5.7927737 0.2914792 8
2.097724 -3.5591948 0.55287951 11
2.2086115 -0.66087413 0.52403325 13.666667
2.2024744 5.7974811 0.58192641 9.5
2.1415029 -3.551996 1.0358768 14
2.1708891 5.8103633 1.0624027 11.8
2.2199824 5.8189158 1.4109632 13.5
2.2165942 5.8728175 1.6226977 14
2.7972705 2.7321365 -0.16445969 6
2.6995704 3.3770373 -0.19320741 6
2.516638 4.1697855 -0.19815677 6
2.43066 5.7319336 -0.14713491 6
2.520777 -3.5727334 0.26015869 9
2.5900767 -0.70423734 0.27258554 10
2.4019108 5.7742062 0.039881218 7
2.5205817 -3.5758204 0.52368659 10.5
2.570359 -0.69497323 0.60031593 13.714286
2.5977609 5.8061361 0.54611653 9.3999996
2.6177654 5.7779269 0.9655509 11.25
2.5397832 5.9826474 1.3656266 13
2.6822383 6.1780162 1.349244 12.5
2.5221255 5.9732437 1.6606448 14
2.7161455 6.0576062 1.6877192 14
2.6625924 6.6384211 2.1416185 15
2.9666574 -0.74422896 0.26522142 9.5
3.183655 5.7202778 0.2809608 8
3.020613 -0.73929536 0.61713338 12.8
2.9805303 5.7425756 0.46890241 9
3.1429501 6.1351261 0.66111684 10
3.0145864 -0.7339747 0.85438597 15
3.1512358 6.3242588 0.93019849 10.5
2.9276743 5.8715267 1.4317418 13.2
2.9765966 6.2050781 1.2292798 12
3.0341592 5.9417014 1.6862057 14
3.018929 6.5986476 2.1400964 15
3.4303474 4.4930611 -0.098540649 6.5
3.2779918 5.6954131 -0.18153869 6
3.5362954 -0.79994649 0.16138799 8
3.3513947 -0.7791872 0.25022909 9.25
3.4020982 4.5084858 0.071207374 7.5
3.2209103 5.7036948 0.083663583 7
3.4217789 -0.77293342 0.58312654 12
3.4056127 5.775466 0.58740121 9.6000004
3.4116106 6.2987342 1.0045886 11
3.3632586 5.9059744 1.4793041 13
3.3935924 6.3118424 1.2376435 12
3.3936844 5.9035912 1.7035985 14
3.46557 6.3308096 2.0864432 15
3.8348546 -0.82841367 0.20947756 8.5
3.9689867 4.1561055 0.147782 7.5
3.8996441 5.6560707 0.34054872 8
3.6968176 -0.79513061 0.61403733 12
3.8291991 5.692831 0.53678 9.333333
3.7417583 -0.81085652 0.99484336 14.5
3.7136657 -0.77888018 0.91765028 13.5
3.7950683 6.2601824 1.0660872 11.333333
4.0012746 -5.4407096 1.34148 13
3.7982738 5.8728313 1.4882263 13
3.7595856 6.2718439 1.2268496 12
3.8324621 5.8111157 1.7166054 14
3.7500806 6.3083649 2.0929706 15
4.0632682 4.1592927 -0.26172835 5.5
4.1696196 -6.6345124 0.20359959 8
4.2063332 -0.86449087 0.18706314 8.5
4.382731 3.8718193 0.21033452 8
4.2960696 4.104075 0.31400087 8.5
4.1887016 4.5583138 0.26417506 8
4.1233506 5.6654992 0.3290416 8
4.172718 -6.6518641 0.61145413 9.5
4.1947556 -0.84244728 0.55536878 11
4.3105597 4.1879554 0.53084242 9.5
4.3351021 4.4207077 0.59490401 9.5
4.353899 4.9662294 0.48140672 9
4.2731771 5.6808734 0.58786631 9.5
4.019042 -5.3164787 1.1549968 12
4.0140347 -0.83448464 0.79828161 13
4.0872355 -0.78260237 0.9777028 14
4.1543078 6.2231054 0.98020548 10.857142
4.2718554 -6.6222353 1.4195393 12
4.0222216 -5.209712 1.3219838 13
4.1752901 5.8334837 1.4623052 12.5
4.0415812 6.241961 1.2198921 12
4.3098321 -6.6276956 1.6874367 13
4.1902356 5.7156324 1.7253155 14
4.3677635 5.7524943 2.187855 15
4.1390972 6.2689524 2.1023657 15
4.4690347 -6.3341618 0.16444522 8
4.6585793 -0.91917181 0.1769149 8.5
4.6847043 3.7732289 0.17592682 8
4.4158068 4.012085 0.29168266 8
4.4657278 -6.4513383 0.75164163 10
4.4350357 -0.88915235 0.79220045 12
4.6322074 3.8706148 0.40605956 9
4.4475918 4.1281891 0.55242974 9.5
4.6294341 5.5914454 0.58396244 9.5
4.52284 5.6035848 0.50421619 9
4.7891493 -0.90977877 0.88800812 12
4.7729053 5.45575 0.94113189 10.5
4.4891839 6.1896219 0.86890912 10.333333
4.4665761 -6.4314351 1.4883287 12
4.4816694 -0.8918792 1.3407692 15
4.5341802 5.8046427 1.4717517 12.5
4.5605736 6.1906276 1.2070477 11.5
4.5367599 5.6514292 1.7398274 14
4.6037693 5.6426587 2.1798673 15
4.4486127 6.2449803 2.1132126 15
4.9534202 -0.86679685 -0.027627075 7
4.9720564 -0.61833853 -0.024868868 7
5.0050344 -0.37369519 -0.01553696 7
5.1488571 0.67291725 -0.049587455 7
5.1533175 1.0020939 -0.045887642 7
5.1802735 1.2821125 -0.052173991 7
4.9225349 -0.86953813 0.21633704 8.5
4.9732437 -0.61695915 0.24616309 8.5
5.0186725 -0.21558574 0.15759018 7.875
5.0574646 0.19589654 0.20577602 8
5.101624 0.59642571 0.17301928 8.166667
5.1492033 1.0403913 0.24544084 8.666667
5.1817317 1.3912411 0.24969408 8.5
5.0968275 2.7547181 0.16487239 7.5
5.0969057 3.3034563 0.29604393 8
5.1739278 3.6181338 0.35104203 9
4.9232078 -0.86113095 0.58357072 10.5
4.9870863 -0.5279879 0.58887857 10.285714
5.0107088 -0.25110191 0.54641569 10.125
5.0584669 0.2304602 0.55824703 10.2
5.1012883 0.59449351 0.53156412 10
5.1376967 0.99754822 0.60716301 10.5
5.1793528 1.4223499 0.63970613 10.4
5.0610113 2.734935 0.60991555 10
5.133256 3.37606 0.60844737 9.5
5.0945387 3.8157632 0.61369723 10
5.0296636 4.18292 0.62054944 9.75
5.0398884 5.4975314 0.62014717 9.3999996
4.8181133 5.6037107 0.7410937 10
4.9437499 -0.84232974 0.98292416 12.5
4.9868741 -0.56457531 1.0145375 12.875
5.0184669 -0.22543119 0.98919046 12.875
5.0582509 0.19520925 0.95868307 12.5
5.1020899 0.56287259 1.0356328 12.8
5.1436257 0.99969745 1.0004534 12.4
5.1744556 1.3828298 0.98452747 12.333333
5.1669197 2.7459424 1.1100451 12
5.0957766 2.9857152 1.0136534 12
5.1381221 3.3220091 0.91870129 11.5
5.1157403 3.6515512 1.0592113 12
5.0280318 4.155118 1.0229688 11.4
5.0438704 4.5297637 1.0559623 11.5
5.092485 4.9459229 0.98641878 11
5.1235676 5.4467177 1.1156309 11
4.9003153 5.7650518 1.150773 11
4.9754453 -0.85675216 1.3668407 14.5
4.9938197 -0.60889637 1.3592861 14.666667
5.0393605 -0.1690214 1.372852 14.666667
5.0590138 0.16641873 1.3277662 14.5
5.112113 0.60067755 1.3484349 14.6
5.142941 1.0103139 1.361618 14.5
5.184001 1.4169018 1.3736323 14.2
5.0534158 2.7484229 1.3232591 13.5
5.1691413 3.0539074 1.3375683 13
5.1517406 3.3323119 1.4552828 13.5
5.1407361 3.6789601 1.4915781 13.5
5.0063357 4.2103271 1.3506999 13
5.0525107 4.6342154 1.4059836 13
5.1124349 5.053421 1.3887519 12.5
5.0044355 5.5252924 1.4442973 12.5
4.865437 5.7662416 1.4727744 12.5
5.182694 1.3110336 1.6157967 15
5.0886431 2.7369547 1.7355632 15
5.1195297 3.4068465 1.7141117 15
5.1415749 3.7722356 1.7954375 15
4.9873838 4.111721 1.6698757 14
5.1504383 4.4558182 1.7565255 14
5.0922608 4.9718881 1.6617249 14
4.978291 5.5459352 1.7542825 14
4.9170942 5.7193017 1.6030298 13
5.0011177 5.4563942 2.1708634 15
5.0896478 6.1678848 2.1343863 15
5.2067609 1.4784591 -0.039092459 7
5.2367444 1.8174355 -0.014346999 7
5.2065153 1.5266192 0.18579555 8
5.2230854 1.7618171 0.27446142 8.5
5.2730055 2.1715274 0.17986634 7.8333335
5.2874522 2.5939734 0.14575948 7.5
5.3537807 3.1340685 0.16803466 7.5
5.2906075 3.3347626 0.25779319 8.25
5.3653264 3.8511672 0.28962314 8.333333
5.4433589 4.1417928 0.35195863 8.5
5.2244492 1.820857 0.59597147 10
5.2716041 2.1972284 0.55705094 9.833333
5.2740588 2.5771601 0.6089853 10
5.2990532 3.0752568 0.54140878 9.333333
5.2686281 3.3878844 0.58473551 9.6000004
5.4260683 4.0735087 0.52554959 9
5.2059169 1.3554279 0.94727397 12
5.2293973 1.7975519 0.98116183 12
5.2806706 2.2037566 1.0242697 12
5.2977796 2.6107695 0.97311616 11.6
5.3320069 3.1119423 1.0109787 11.5
5.2873154 3.3832767 0.8763113 11
5.3306794 3.7552228 1.0180829 11.5
5.3934178 4.1110978 1.0488578 11.5
5.2095537 1.5987902 1.5265903 15
5.2276845 1.8000538 1.4160229 14.142858
5.2736468 2.2164876 1.3543879 13.5
5.3140931 2.6083601 1.3883985 13.833333
5.3163214 3.0790448 1.4965527 14
5.2913189 3.3823087 1.4207356 13.25
5.4419017 3.9201188 1.2292249 12
5.3591533 4.1339107 1.4720101 13
5.2621512 1.9025806 1.6467822 15
5.2791233 2.2061777 1.6579573 15
5.3046207 2.6198149 1.7025439 15
5.3365312 3.1289685 1.6838579 15
5.3475518 3.3017864 1.720811 15
5.3653765 3.6357055 1.6079742 14
5.3928442 4.1755347 1.7865547 14.333333
5.4635291 4.9661107 1.8932686 14
5.2132955 5.3170242 1.7314259 14
5.54073 4.580802 2.0229602 15
5.5757813 4.9436684 2.1084993 15
5.439312 5.2901216 2.1756392 15
5.4306688 6.1245131 2.1473885 14
5.611588 5.3524175 1.9890573 14
5.6571479 5.8018141 2.0920742 14
