# .PCD v0.7 - Point Cloud Data file format
VERSION 0.7
FIELDS x y z intensity
SIZE 4 4 4 4
TYPE F F F F
COUNT 1 1 1 1
WIDTH 113
HEIGHT 1
VIEWPOINT 0 0 0 1 0 0 0
POINTS 113
DATA ascii
-3.7059884 -3.6592405 0.32644406 9
-3.2799881 -3.6611805 0.10864613 8
-2.8520086 2.0979774 0.8876828 14
-2.729008 2.1255717 0.27457732 9.5
-2.7505078 2.1142433 0.53559828 11.5
-2.6370094 2.6039145 0.45916772 11
-2.7380116 3.2101679 0.59371024 11
-2.7370079 2.1089993 0.71274447 13
-2.66501 2.7063766 0.60347128 12
-2.7620142 3.983283 0.76448864 12
-2.7660148 4.1081109 0.68989545 11
-2.7330089 2.1017659 0.93145126 15
-2.6490104 2.652698 0.92334569 14
-2.6510103 2.6165056 1.0146697 15
-2.7460139 3.6265297 1.1001955 14
-2.766016 4.2144418 1.1529545 13
-2.7810183 5.0193577 1.1351838 13
-2.7600172 4.5393929 1.2898389 14
-2.426995 -1.7832061 0.38041553 11
-2.4110172 4.9690852 0.35757416 9
-2.5560088 2.3376629 0.67081672 13
-2.5610168 4.6884251 0.76389802 11
-2.470017 4.6827421 0.91127747 12
-2.1210115 3.2522299 0.31171843 9
-1.4709936 -2.1576962 0.34533402 11
-1.5060236 6.3882933 1.6356609 14
-1.3909923 -2.5970759 0.50589013 12
-1.3140244 6.396874 1.9821802 15
-1.1234891 -3.5311754 0.50909168 11
-1.0569897 -3.575799 0.82905066 13
-0.95098913 -3.5748236 0.51188684 11
-0.68999165 -2.9956028 0.90404624 15
-0.66302359 6.361794 1.588148 14
-0.59702313 6.3716841 1.2388201 13
0.14101134 -3.5391669 0.18279013 9
0.18101029 -3.5515587 0.81183034 13
0.46301073 -3.5443449 0.5598824 12
0.96351105 -3.5291743 0.35472381 9.5
0.82698333 4.7782984 0.57832658 10
0.80397642 6.4543791 1.3716767 13
0.98397601 6.4498706 1.617908 14
1.2930104 -3.5370154 0.87502724 14
1.4100109 -3.5245898 0.39607054 10
1.594979 5.8477006 1.0819684 12
1.5989789 5.8452201 1.2529007 13
1.6230115 -3.5269592 0.16512638 8
1.767011 -3.4050622 0.21507819 9
1.7590035 -1.1911812 0.34906739 12
1.7480102 -3.5162146 0.89465916 13
1.6079783 5.8396683 1.516129 14
1.960011 -3.3928444 0.17223294 8
1.8180035 -1.1222537 0.24104196 10.5
1.8360103 -3.4059556 0.49397698 10.5
1.8780029 -1.1455356 0.60537505 15
1.8020098 -3.4207358 0.8880415 14
1.8710095 -3.4235189 1.1032561 15
1.8189782 5.8043351 1.6337453 15
2.1430016 -0.59233773 0.17752232 9
2.0790029 -1.0472082 0.29390624 11
2.1080015 -0.59353864 0.30999783 11
2.0875027 -1.0564662 0.52244145 13.5
2.1000013 -0.60907102 0.47918847 13.5
2.0579803 5.8281403 0.49238768 9
2.1270041 -1.5622349 0.76161551 15
2.1050024 -1.0024505 0.62162089 15
2.138001 -0.59077954 0.64910012 15
2.1339796 5.8195901 0.7220155 10
2.03601 -3.4297822 0.80435699 13
2.1839788 5.8061047 1.5271915 14
2.32201 -3.5168142 1.1836663 15
2.4220114 -3.4911737 0.23592035 9
2.4980106 -3.4987471 0.63286841 11
2.5284791 5.8496432 1.0575265 11.5
2.7890112 -3.477808 0.20026448 8
2.638011 -3.4831767 0.42020327 10
2.7710099 -3.4968638 1.0934061 14
2.8300102 -3.5010524 0.98613334 13
3.0200112 -3.4659226 0.25206009 9
3.172009 -3.4666235 1.3438274 15
3.5109773 6.0481405 1.7920724 14
3.6039801 5.8721247 0.53697574 9
4.1649828 5.0663452 0.47003448 9
4.0469794 5.8713999 0.62653345 10
4.2399845 4.519464 0.26912215 8
4.3419843 4.5430193 0.75040305 10
4.4489861 4.10675 0.40066198 9
4.4129772 6.0671992 1.6674589 13
4.6359768 6.4693403 1.2727615 12
5.0539794 5.5600748 1.3957978 12
5.0219822 4.7837172 1.4774466 13
5.0449781 5.7624788 1.6468329 13
5.0739779 5.7305093 1.8534919 14
5.2119884 3.1955969 0.63124627 10
5.2159858 3.6957653 0.98567063 11
5.2299886 3.0999732 1.0316784 12
5.224988 3.1309788 1.4010465 14
5.2559767 5.7944813 2.358784 15
5.4869881 3.6542115 0.10234421 7
5.5119901 2.8326206 0.25005311 8
5.5109916 2.2977266 0.4091647 9
5.4989891 3.038228 0.5246411 9
5.4699874 3.6531434 0.51216346 9
5.5329947 1.418967 0.73027682 11
5.5249901 2.7577822 0.69529605 10
5.5199919 2.199434 0.82337672 11
5.5219884 3.0908649 0.8482697 11
5.5549955 0.76626438 1.122965 13
5.5429931 1.5519129 1.3234574 14
5.5529947 0.84511471 1.5132108 15
5.5369906 2.1201441 1.414133 14
5.5189872 3.1473644 1.4322325 13
5.5349898 2.3332582 1.6181121 15
5.5519872 3.0216389 1.8985354 15
