# .PCD v0.7 - Point Cloud Data file format
VERSION 0.7
FIELDS x y z intensity
SIZE 4 4 4 4
TYPE F F F F
COUNT 1 1 1 1
WIDTH 206
HEIGHT 1
VIEWPOINT 0 0 0 1 0 0 0
POINTS 206
DATA ascii
0.19318722 -0.71171123 -0.0008544802 151
0.28793201 -0.74194926 -0.0074593006 159
0.38572955 -0.72468531 -0.0094424728 167.39999
0.48088405 -0.72787011 -0.0072849635 173.39999
0.58186221 -0.7329554 -0.0071006571 185
0.68407202 -0.71779972 -0.014204603 185
0.13871533 -0.67742831 -0.0034187331 148.33333
0.25098291 -0.66832352 -0.0055090669 161.5
0.36158457 -0.62551928 -0.0059618521 173
0.47287011 -0.65604085 -0.014113029 170.25
0.56382221 -0.65665805 -0.018051103 171.66667
0.65332901 -0.64029378 -0.020561606 171
0.74082017 -0.6147911 -0.015908167 162
0.080763981 -0.52907175 -0.003722074 162.66667
0.15893142 -0.54469413 -0.0023982949 169.5
0.23804381 -0.54729706 -0.0074342513 175.2
0.34581134 -0.54806083 -0.012249143 177.22223
0.46117756 -0.56565684 -0.01590075 178.375
0.54221982 -0.54352403 -0.017443256 178.875
0.62788719 -0.53104663 -0.016035013 175.75
0.75492895 -0.55046815 -0.026561907 167.25
0.81283224 -0.55784637 -0.020636348 165.5
0.063244738 -0.42831764 -0.018983372 173
0.15480374 -0.46329856 -0.025765531 178.09091
0.24750674 -0.45886248 -0.037955504 177.83333
0.36145371 -0.46508622 -0.034208994 177.08696
0.45532474 -0.44735909 -0.028168419 174.25
0.53225869 -0.44018078 -0.014218214 174.38889
0.64529312 -0.4503265 -0.013195557 175.375
0.73152995 -0.43546647 -0.017518884 173.71428
0.8409875 -0.45868567 -0.027829885 171
0.9062978 -0.40709129 -0.029271983 171
0.098151095 -0.38208425 -0.020396274 177
0.16499117 -0.35899314 -0.020816369 175.91667
0.26415554 -0.35534927 -0.027784562 167.83333
0.35338658 -0.33914497 -0.027611563 154.56757
0.45808986 -0.34158984 -0.024825292 150.08696
0.55483621 -0.34416801 -0.023699796 153.82608
0.64526105 -0.34532586 -0.013356796 164.2
0.75356817 -0.34604892 -0.014434991 169.8
0.84284937 -0.35863885 -0.020639427 172.33333
0.15560481 -0.24360566 -0.055068448 154.28572
0.2800478 -0.26792103 -0.035852619 150.8
0.35355267 -0.25509912 -0.059040684 153.15384
0.45317137 -0.24684586 -0.059171591 153.84058
0.54615027 -0.24341381 -0.032902159 150.63043
0.65148014 -0.24765447 -0.023584751 150.93333
0.72707701 -0.26937634 -0.0091042081 157.16667
0.26174858 -0.15666005 -0.047751587 153.61905
0.35360417 -0.14190067 -0.053298261 158.20689
0.4485628 -0.14094242 -0.063917041 160.12987
0.54327899 -0.15360834 -0.064257145 156.56
0.62000436 -0.17982355 -0.034230746 156.85715
0.29787743 -0.098071761 -0.052629132 158
0.37454575 -0.049117319 -0.060715787 163.08333
0.42876452 -0.04692053 -0.05809252 163.9893
0.51589757 -0.088813841 -0.074348129 166.2
0.29117119 0.092766248 -0.05965028 159.33333
0.3727681 0.047635168 -0.062012963 163.34862
0.42397946 0.051050674 -0.057749141 163.73685
0.5027706 0.098176174 -0.075209185 167
0.18394759 0.18374422 -0.059655551 168.85715
0.25989527 0.15097073 -0.056262873 164.84508
0.34767058 0.14218538 -0.060422048 161.63725
0.44369417 0.1435823 -0.072112486 164.7
0.54239058 0.16222629 -0.07776913 168.85454
0.6006366 0.19885413 -0.044556297 175
0.075482421 0.27427873 -0.04669011 175.84616
0.15189953 0.25680995 -0.070074454 171.58537
0.25060242 0.24893469 -0.071983896 170.41861
0.34884197 0.24991398 -0.080881342 168.03999
0.44660288 0.25043592 -0.072596252 165.59091
0.53752071 0.24208012 -0.052701175 173.02174
0.64682162 0.25823984 -0.047229975 179.17392
0.70242482 0.2990579 -0.028339926 186
-0.029465454 0.36356339 -0.040175587 183.41667
0.049161669 0.36047512 -0.052294407 180.3125
0.15330611 0.33311105 -0.047986336 176.05
0.24885757 0.33482578 -0.054644179 174.2
0.34163988 0.34012929 -0.053592585 175.05714
0.44147354 0.33300126 -0.046089146 175.92857
0.55414313 0.35919911 -0.055169102 179.61905
0.63655871 0.34487271 -0.040065881 182.65218
0.74864805 0.35673413 -0.037079696 186.45454
-0.12903203 0.44850245 -0.03443319 189.33333
-0.048574623 0.46182743 -0.037347011 187.88889
0.060072038 0.43547788 -0.033658143 184.39999
0.14793696 0.44100255 -0.051497877 181.7
0.25377092 0.46325403 -0.050893255 181.75
0.34433582 0.45802924 -0.053101007 181.05882
0.44068801 0.44719237 -0.048554063 181.51724
0.54099256 0.43002295 -0.040073901 183.375
0.65329307 0.46426034 -0.042401209 187.72728
0.74902374 0.43782347 -0.041671023 189.85715
0.85967886 0.44262198 -0.052344199 190
-0.23500097 0.54189676 -0.043165646 185.33333
-0.14238225 0.56725717 -0.049498733 187.8
-0.082564428 0.52693623 -0.038831197 190.5
0.046461526 0.54581982 -0.037927769 188.88889
0.15784022 0.5532704 -0.039522868 187.7
0.25546941 0.54599082 -0.037613548 187.3
0.34284806 0.56523412 -0.043616127 187.16667
0.45315289 0.5623036 -0.043816876 187.92857
0.56202102 0.544366 -0.043015901 189
0.63786507 0.53419238 -0.043994728 190.39999
0.74893409 0.56545365 -0.055689104 194.66667
0.82055962 0.52226257 -0.051255889 192.5
-0.40565273 0.68903869 -0.040729865 159.5
-0.33488232 0.62846804 -0.044006918 170.60001
-0.21589667 0.676741 -0.043907769 172.33333
-0.17421694 0.63116777 -0.047165081 182.66667
-0.050278947 0.64135844 -0.050320942 185.14285
0.050036084 0.66727757 -0.055402059 189.16667
0.16280322 0.63103914 -0.041269805 190.33333
0.24924035 0.64738733 -0.045228355 191
0.33686805 0.63478059 -0.043869834 190.25
0.4216117 0.65353233 -0.049109537 190.5
0.5399074 0.65740854 -0.058435168 192
0.65474182 0.64599609 -0.055454399 194.5
0.7472952 0.65354759 -0.055566948 195.5
-0.47561967 0.74986655 -0.042269427 146.66667
-0.30504864 0.77682263 -0.046945252 165.5
-0.27771619 0.74842393 -0.054807257 169
-0.1173095 0.73848152 -0.050960466 175
-0.013525515 0.79167008 -0.05823547 177.33333
0.014607011 0.73590147 -0.055449318 181.5
0.13144898 0.72901893 -0.058489069 185.8
0.23247723 0.73519999 -0.056173939 190
0.33038017 0.74170488 -0.055364557 190.5
0.42675054 0.74310154 -0.054117192 184.60001
0.5227083 0.73322189 -0.054015655 187.5
0.62596834 0.73691499 -0.05759709 188.33333
-0.54652601 0.81064451 -0.039478116 135.5
-0.36094192 0.83886659 -0.046150938 154
-0.20125723 0.85906321 -0.048629608 167
-0.18055314 0.83263153 -0.058900598 169.33333
-0.046185307 0.85653967 -0.061730754 176.5
0.094789609 0.83058602 -0.058919426 178.66667
0.10628463 0.80400831 -0.066767372 181
0.21000539 0.84638751 -0.064774871 180.8
0.32251909 0.84624469 -0.060215008 179.33333
0.43252763 0.84978753 -0.058563784 181.5
0.53911769 0.81929505 -0.059310194 180
-0.24459514 0.92271376 -0.051529203 156
-0.1140466 0.98317021 -0.0512603 155
-0.079167821 0.92022336 -0.061286271 167
0.057240088 0.9405176 -0.068243355 167.75
0.18607107 0.96096849 -0.070349239 171
0.31855217 0.91343468 -0.067826763 175
-0.44268805 -0.8402186 0.03937652 119
-0.30025545 -0.89191782 0.055985868 208
-0.28323862 -0.87304366 0.043227229 195.77777
-0.1115275 -0.84519166 0.053772341 194.44444
-0.080152899 -0.80441713 0.018035047 147
0.031206379 -0.83627707 0.036537059 190.625
0.16051438 -0.8072834 0.030946184 193
0.2689234 -0.80163139 0.040426306 200
-0.36026046 -0.75872868 0.022995843 132.60001
-0.21372771 -0.78877997 0.014530263 140
-0.16369009 -0.71953416 0.021914072 142.33333
-0.050015099 -0.75285774 0.013916899 146.5
0.063241631 -0.76365721 0.025840266 158.2
0.16606563 -0.77245224 0.046198383 178.66667
0.27357569 -0.77197015 0.036740951 186.89999
0.37394768 -0.7769922 0.040548619 197.18182
0.47242984 -0.76110619 0.046596639 198.89999
0.57047951 -0.74432278 0.053177495 199.10001
0.66685396 -0.72125161 0.063675955 200
-0.29967177 -0.6977073 0.015770361 136
-0.2344085 -0.62976211 0.017542494 142
-0.12917885 -0.67617482 0.012617891 139.33333
-0.058193386 -0.63627124 0.013189614 146.5
0.038005114 -0.6561653 0.0068458952 146.71428
0.12108435 -0.63236177 0.0068683513 151.66667
0.23786645 -0.62177694 0.0036876046 163.5
-0.15646289 -0.55085802 0.0099372249 145.83333
-0.027884688 -0.54126966 0.010329255 148.5
0.060056645 -0.56101859 0.007534157 157
0.15121098 -0.55981469 0.0042611128 165
-0.10533135 -0.49726892 0.012859253 151
-0.05358661 -0.4440746 0.011352749 149.55556
0.038124982 -0.46952063 0.0049873176 158.875
0.10741869 -0.47949952 0.002391173 172
-0.0097407531 -0.39920074 0.0092399791 157
0.031091427 -0.3535206 0.024114832 159.16667
0.13534777 -0.32358071 0.0082153771 176
0.16105239 -0.25542143 0.044152066 157
0.23116283 -0.27512458 0.014091224 153
0.18549094 -0.17735863 0.095672734 138
0.26456159 -0.17962761 0.081494756 122.16666
-0.29174468 -0.8611474 0.11919461 206.66667
-0.13120006 -0.84510076 0.13864514 202
0.13635635 -0.80035299 0.14068584 198.33333
0.025773901 -0.78384084 0.15042922 200.91667
0.13487168 -0.7942729 0.15370423 198.125
0.24743351 -0.77016121 0.14747699 197.16667
0.34773743 -0.73010188 0.14946544 196.25
0.44122377 -0.71122509 0.14882037 196.27272
0.54204756 -0.7158162 0.13959111 196.25
0.64090282 -0.7104823 0.15351653 197.09091
0.42724818 -0.69511241 0.19814837 196
0.52400678 -0.69246089 0.18850815 195.66667
0.12536702 -0.23746848 0.10412475 138
0.20312081 -0.2008585 0.11270044 145
0.18296124 -0.17395078 0.12139751 125.18182
0.2187655 -0.17993 0.11291581 126.77778
