# .PCD v0.7 - Point Cloud Data file format
VERSION 0.7
FIELDS x y z intensity
SIZE 4 4 4 4
TYPE F F F F
COUNT 1 1 1 1
WIDTH 207
HEIGHT 1
VIEWPOINT 0 0 0 1 0 0 0
POINTS 207
DATA ascii
-0.39840993 -0.71012431 -0.0051245359 163
-0.22788388 -0.72324497 -0.0058655464 188
-0.086543366 -0.74263853 -0.0095704235 189.33333
0.050034493 -0.7268132 -0.010068914 192
0.16009267 -0.73736554 -0.014052901 194.5
0.26958951 -0.7354359 -0.017523408 195.8
0.36865148 -0.73780686 -0.016985733 194.33333
0.47115207 -0.7309792 -0.012616699 196
0.57257956 -0.72770488 -0.012501477 197.25
0.67237979 -0.71365261 -0.004849398 203
-0.34401214 -0.66120774 -0.0062241913 166.66667
-0.28649986 -0.61074245 -0.011884922 177.5
-0.1524958 -0.63574195 -0.0092964945 180.16667
-0.032770138 -0.65924644 -0.011281262 184.33333
0.081832848 -0.66066539 -0.013579282 188.33333
0.17342128 -0.62606162 -0.0053336564 189
0.28712037 -0.60893911 -0.0067095617 187.33333
0.36948624 -0.62900555 -0.0091352388 188.16667
0.46130264 -0.65007234 -0.010102785 190.5
0.55820918 -0.66281092 -0.019182701 189.5
0.65583861 -0.66164929 -0.019014087 187.33333
0.73845512 -0.61580044 -0.018204106 190
-0.22221863 -0.55088884 -0.0057941736 183.75
-0.16315846 -0.54528201 -0.014725979 186.33333
-0.061090246 -0.52734709 -0.0070261811 187
0.038068514 -0.54696792 -0.0084323082 187.28572
0.12196156 -0.5725264 -0.010795281 186.75
0.24861002 -0.55166906 -0.0073736208 185.5
0.34471437 -0.52343881 -0.0084307725 184.10001
0.45109376 -0.56264311 -0.0089241322 187
0.54510218 -0.55035156 -0.013586699 187.77777
0.63533413 -0.53825802 -0.009161287 189.25
0.75452054 -0.55090046 -0.024012743 191
0.81235522 -0.55365938 -0.020465257 191
-0.41717732 -0.41252515 -0.004432302 170
-0.12454327 -0.46199203 -0.0039234958 187.5
-0.05143838 -0.45220953 -0.0074081407 186.33333
0.055382505 -0.43652222 -0.015788419 183.125
0.15372828 -0.46166936 -0.025580626 181.78947
0.24404386 -0.46256655 -0.027377812 180.16667
0.34848884 -0.46494511 -0.029163726 179.90909
0.45087081 -0.45399034 -0.025670743 179.9375
0.53278774 -0.44368714 -0.016501328 182.39131
0.64411831 -0.45202771 -0.011707533 186.375
0.72597414 -0.44277832 -0.013084855 188.57143
-0.34329662 -0.37534758 -0.008895793 183.5
-0.23321623 -0.31832653 -0.0057337428 187.8
-0.19951133 -0.30208486 -0.012097508 186
-0.023785869 -0.37354562 -0.013823375 182.875
0.057772353 -0.36370692 -0.023924254 179.57143
0.15157475 -0.33493331 -0.029769596 175.12903
0.25069723 -0.34554783 -0.039606236 173.37778
0.35407633 -0.34270456 -0.040980037 173.17778
0.45173728 -0.33841076 -0.029157432 175.25
0.55115634 -0.34391224 -0.030345386 178.05882
0.63617575 -0.35510921 -0.022045787 181.65218
-0.12395929 -0.26477897 -0.021030987 182.27272
-0.027912375 -0.21600127 -0.024504356 177.75
0.047962017 -0.2410592 -0.040184032 173.91667
0.16265836 -0.26355577 -0.057595327 169.3125
0.25415373 -0.2411001 -0.047414128 168.27026
0.35846466 -0.24665408 -0.053889334 167.50981
0.45783368 -0.25082785 -0.062093917 168.13043
0.53858566 -0.24707296 -0.041082837 172.59616
0.60435528 -0.27819854 -0.024866425 178
0.04745261 -0.18216302 -0.054927722 170.73685
0.16343394 -0.14131419 -0.035755757 163.13333
0.2541455 -0.14418805 -0.042536076 164.24445
0.35150695 -0.14293325 -0.04713406 162.03391
0.44661549 -0.14133246 -0.052566536 163.08434
0.52668345 -0.17162195 -0.069131419 166
0.26363954 -0.079615891 -0.058382947 162.5
0.36763963 -0.044495881 -0.061715148 163.37314
0.42097035 -0.052655648 -0.052615553 164.82927
0.38082758 0.044818603 -0.057699174 160.30257
0.43175361 0.04910804 -0.052026901 162.30653
0.53767139 0.082931906 -0.068134733 158.73685
0.27692151 0.16466312 -0.054741595 154.70967
0.35247862 0.14269242 -0.054355331 156.07143
0.44754526 0.14188914 -0.062361248 159.51315
0.54984528 0.14767143 -0.060445577 153.66667
0.64124686 0.15832797 -0.030233279 149.15384
0.71423537 0.18740377 -0.015078317 149.2
0.17739736 0.27186495 -0.056770127 155
0.25241897 0.25120011 -0.061058316 148
0.35061145 0.25915807 -0.065424673 152.6842
0.44932151 0.24355197 -0.063449807 153.85294
0.54384947 0.24343371 -0.038753856 152.55814
0.65305686 0.24928688 -0.026815321 150.53334
0.74784619 0.24412483 -0.013236106 154.78572
0.83946699 0.2588076 -0.015949372 161
0.084521987 0.38509452 -0.060679317 176.75
0.15641172 0.33697283 -0.042449951 171.4762
0.25546235 0.34020495 -0.038834803 161.6207
0.3552275 0.33907667 -0.034589168 152.82353
0.45848024 0.34442541 -0.034169346 150.57692
0.55753672 0.34461012 -0.030336803 151.96001
0.64503634 0.34436315 -0.018911187 159.25
0.74988043 0.34849128 -0.018453315 163.77777
0.85098946 0.3496016 -0.028165335 164
0.92682403 0.33032176 -0.031766865 162.25
-0.0103091 0.48584661 -0.025505643 159.5
0.052334115 0.43002757 -0.034537662 175.86667
0.15182744 0.4532302 -0.04346551 179.20833
0.24777544 0.4526642 -0.049503449 177.47058
0.3571901 0.46277437 -0.043297172 176.39131
0.44556659 0.44766659 -0.033374492 171.08333
0.53418505 0.43978068 -0.0241706 171.11111
0.64445949 0.44271588 -0.023302255 170.85715
0.72345805 0.4313421 -0.024447851 169
0.84299415 0.44624099 -0.035706028 167.60001
-0.10244776 0.59385532 -0.019046618 146
-0.064333528 0.550466 -0.025181571 148.14285
0.055648077 0.54030108 -0.026312912 167.125
0.14140581 0.55496252 -0.02767461 173.88889
0.24192958 0.56059325 -0.031986736 178.89999
0.34573507 0.54997587 -0.033235889 179.85715
0.45992926 0.56254053 -0.037253361 177.85715
0.53577173 0.54781824 -0.034024768 177
0.62544757 0.53407615 -0.033772059 174.66667
0.74199545 0.55120301 -0.045189179 168.85715
0.80770195 0.53418595 -0.040984299 167
-0.15302975 0.65714639 -0.026307279 140.39999
-0.01628978 0.6560204 -0.028493395 148.25
0.063788079 0.6626606 -0.033834681 159.71428
0.17043422 0.66710937 -0.03579206 164.75
0.25535786 0.62951183 -0.029056745 169.71428
0.3829338 0.64670157 -0.036170192 171
0.47285053 0.6622014 -0.042401254 168.8
0.5676915 0.65886581 -0.04504377 168.8
0.65927142 0.6436609 -0.043898273 163.5
0.7547431 0.62428981 -0.04420023 162.5
-0.2365496 0.75936532 -0.032143742 135.75
-0.070148215 0.74262476 -0.030111713 140.60001
0.049397778 0.75924975 -0.031463586 142.25
0.17010829 0.74163514 -0.031894274 149.8
0.27689603 0.7383939 -0.035783418 158
0.38161913 0.73812127 -0.037862387 159.60001
0.48107901 0.74049628 -0.040033285 156.5
0.58872771 0.7442342 -0.041766413 155.5
0.59986591 0.78174955 -0.04673871 152
-0.32220176 0.85966152 -0.025915354 126
-0.27517021 0.80312437 -0.025392048 128
-0.14065008 0.85702288 -0.034370463 135.5
-0.009633461 0.89779425 -0.045275349 139
0.019558424 0.82435876 -0.031012857 139.5
0.14050345 0.83943588 -0.032238282 143.25
0.25965416 0.84352148 -0.034877781 145.75
0.37957552 0.83442426 -0.037493847 147.75
0.48992342 0.81733865 -0.040358543 149
-0.37326464 0.9207238 -0.025614422 118
-0.18815196 0.93051517 -0.029874431 129
-0.037627392 0.95053643 -0.032281809 132.39999
0.1067932 0.96106082 -0.043053057 158
0.2441901 0.94671941 -0.038928967 133.66667
-0.44469103 -0.73885548 0.042268064 204.10001
-0.26000038 -0.74307156 0.044531759 203.60001
-0.10715967 -0.73768365 0.069571733 203.60001
-0.096870154 -0.73957789 0.031299628 204.60001
0.024075033 -0.74665874 0.045925044 201.5
0.14343034 -0.75140083 0.027263062 201.2
0.25690165 -0.73690414 0.024360467 200.39999
0.35719189 -0.72466683 0.022872502 200.39999
0.45939559 -0.7257182 0.024926793 201.75
0.56209099 -0.72912037 0.023829587 201
0.66599786 -0.72082692 0.025947934 202.8
-0.30718011 -0.62502748 0.0040453719 172
0.15019555 -0.67285895 0.086486705 200
0.2602081 -0.66154033 0.054829691 195.33333
0.34580439 -0.66933131 0.066607289 196.66667
0.43465772 -0.66295117 0.084357813 198.60001
0.5231688 -0.6491695 0.086696565 199.25
0.6311031 -0.6761865 0.082708627 199.75
-0.7453174 -0.57901287 0.0074889218 119
-0.64771944 -0.52932769 0.0049011135 127
0.032038402 -0.5522806 0.00036477175 188
0.1354038 -0.5349409 0.002681585 186.66667
0.22059941 -0.52777135 0.0013070763 185.66667
0.36959255 -0.52807593 0.0003286415 186
-0.54172122 -0.4748567 0.0052070334 139.33333
-0.45208305 -0.4285768 0.0068044928 155.33333
-0.13308373 -0.46845353 0.00063433114 189
0.042500068 -0.46266797 0.00021515286 186
-0.24777801 -0.32473823 0.00065760349 188
-0.050483983 -0.3933028 0.002086868 186.5
0.046258628 -0.3032358 0.01099323 178
-0.14961998 -0.27429256 0.0010530085 186
0.069472544 -0.23624729 0.052562922 172.5
0.13271993 -0.20790142 0.072356008 136
0.074813724 -0.19647655 0.081097767 158
0.16858459 -0.1845644 0.038634367 137.29167
-0.46191415 -0.73785013 0.1021341 205
-0.26488316 -0.71860284 0.12934314 202.5
-0.11570768 -0.71401316 0.14840843 200.27272
-0.0032400077 -0.7070533 0.19902733 196
0.0097487541 -0.7127738 0.14660014 199.66667
0.21637607 -0.7031222 0.17918642 197.66667
0.31075189 -0.70204985 0.18109927 197.5
0.13054101 -0.67728639 0.14783219 198.5
0.23053509 -0.68824315 0.13983236 197.66667
0.32661298 -0.68868643 0.12917729 197.44444
0.4315123 -0.68057966 0.15726227 197.64706
0.54358053 -0.65232193 0.15418822 198.05263
0.60709107 -0.64749992 0.12442912 200.25
0.7183373 -0.67529088 0.15867881 200.77777
0.030132614 -0.2073296 0.17366999 144.52942
0.067463391 -0.19218819 0.12450362 141.94444
