# .PCD v0.7 - Point Cloud Data file format
VERSION 0.7
FIELDS x y z intensity
SIZE 4 4 4 4
TYPE F F F F
COUNT 1 1 1 1
WIDTH 421
HEIGHT 1
VIEWPOINT 0 0 0 1 0 0 0
POINTS 421
DATA ascii
-15.673489 8.6758852 2.5718069 11
-15.280266 9.3388195 2.7409997 11
-15.392082 8.1631927 3.3160768 12
-14.978297 10.345737 1.1297907 9
-15.061709 9.8277216 2.5298338 11
-14.8487 10.189681 2.5601716 11
-14.831978 9.2011986 3.4447529 13
-14.513729 8.9753456 0.23879011 7
-14.582936 9.1388283 0.6898334 8
-14.575634 10.332747 2.0521903 10
-14.647305 10.399117 2.7936726 11
-14.489305 10.799634 2.8217273 11
-14.662938 9.5590029 3.492799 13
-14.4889 9.9150639 3.5386109 13
-14.313616 9.3156462 0.32461718 7.6666665
-14.092147 9.6864967 0.33419144 7.5
-14.117463 9.6192732 0.4318659 8
-14.373314 9.1342421 1.0354095 9
-14.316305 9.4183855 1.0596324 9
-14.271162 8.3649836 2.7300575 12
-14.292864 10.260205 3.583061 13
-14.091824 10.609197 3.6289749 13
-13.804498 10.102114 0.44543031 8
-13.921664 9.9386349 0.89726985 9
-13.817288 10.041563 1.1120088 9
-13.951843 10.029147 1.9135714 10
-13.703197 10.054019 2.2737229 11
-13.894168 8.5882168 2.7412884 12
-13.573438 10.704382 0.52094531 8
-13.492418 10.910885 0.545798 8
-13.510031 7.2759485 1.6157176 10
-13.529535 7.2399163 1.8883995 11
-12.999297 8.4679585 2.660635 12
-12.74628 8.7335358 2.6882977 12
-12.499264 8.9971256 2.7157311 12
-11.538262 8.7150755 0.47686535 8
-11.513197 8.7706795 2.1808577 11
-11.441444 8.6606445 2.5904734 12
-11.335135 5.4781179 3.0934315 14
-11.47304 5.0688372 3.3956823 15
-11.274559 5.4528117 3.4105804 15
-11.07313 5.8493176 3.1222813 14
-11.036329 6.4928741 3.0565853 14
-11.067081 5.8336892 3.4260948 15
-10.88123 6.1527472 3.3656676 14.5
-10.675751 8.3420544 0.1793195 7
-10.408716 8.5425348 0.21217075 7
-10.707962 8.2820234 0.61280555 8.5
-10.664931 8.3740511 1.7455008 11
-10.641063 8.3821268 2.227926 12
-10.647508 6.6366844 3.152529 14
-10.688689 6.5096221 3.4130552 15
-10.456605 6.9880548 3.4922111 15
-10.525243 6.2147584 3.6394632 15
-10.376764 8.6646423 0.19365448 7
-10.187745 8.9279852 0.22317769 7
-10.312156 8.700016 0.53375536 8
-10.189291 8.9567509 0.47647426 8
-10.295584 8.5930023 2.5076754 12
-10.172544 8.8959579 2.5511794 12
-10.34131 7.1547937 3.1132956 14
-10.216261 7.4401526 3.1607101 14
-10.065218 7.7098703 3.204169 14
-10.365814 7.1476712 3.388479 15
-10.219401 7.402452 3.4122081 14.6
-10.086779 7.6806622 3.4454467 15
-10.000725 9.1893435 0.25246421 8
-9.7830305 9.6655531 0.67033482 8
-9.9768877 9.1888342 1.27175 10
-9.8705215 9.2866974 2.0358598 11
-9.9573555 7.886096 3.4166951 14.5
-9.7323866 8.084939 3.4131618 14.5
-9.2534866 3.7486024 2.775506 15
-9.1996784 8.0525808 3.5261307 15
-8.9700327 4.772481 0.32528561 8
-9.1143141 7.2756214 2.5636179 13
-8.8813286 7.3457642 3.1156304 15
-8.556426 7.1681366 2.4941893 13
-8.6084681 5.5122499 2.9092782 15
-8.1974058 7.5303841 2.5303409 13
-7.0238571 6.385891 0.53419787 9
-6.9582648 6.4177351 1.4193242 11
-6.9757576 6.4088993 1.7003313 12
-6.9342208 6.2366529 2.540647 15
-6.4936504 3.8134949 1.0226153 11
-6.5496144 4.0598416 1.059592 11
-6.4212084 3.8999391 1.2736943 12
-6.5797377 6.1413779 2.5244391 15
-6.0225186 3.4711578 0.23893902 8
-6.3739042 3.8980324 0.33255637 8
-6.2381644 3.5236974 0.53176582 9.333333
-6.2493749 3.7573967 0.61631995 9.666667
-6.2573023 4.035696 0.67638427 10
-6.212142 5.9380722 0.62154466 9
-6.3000212 3.8541617 0.81968224 10
-6.1496272 5.9645414 1.463719 11.5
-6.0114484 6.0603924 1.2917427 11
-6.1210642 5.9521918 2.0524521 14
-6.2602592 6.0563865 2.5065181 15
-6.1343093 6.4003386 2.5026007 15
-5.8831353 3.1863086 0.15383548 8
-5.9997172 3.3701959 0.39892358 9
-5.9001527 5.7973123 0.32793537 8
-5.8367424 6.2425504 0.21686046 7.6666665
-5.9754858 5.9766512 0.71039844 9
-5.9046612 5.8326941 0.88020003 10
-5.9560513 6.1244879 0.96195513 10
-5.9291782 5.9654522 1.4352239 12
-5.9410424 6.14217 1.5231218 12
-5.9694738 5.9488893 2.3791499 15
-5.0400581 5.3477106 0.62550467 9.5
-5.0283089 5.3449407 1.3181726 12
-5.0006795 5.4117246 2.2267368 15
-4.4589572 4.8814187 0.37056565 9
-4.3986597 2.1115553 1.4503862 15
-4.4260435 4.9280162 1.9908544 15
-4.2597985 4.8867345 0.27381024 8.333333
-4.0082331 5.532001 0.26316473 8
-4.2638645 2.3705213 0.80055565 12
-4.1967001 4.9748254 0.61181784 9.666667
-4.034832 5.3990302 0.61478072 9.5
-4.2740107 2.385921 0.99785519 13
-4.2200503 4.9438629 1.0163215 11.5
-4.0243449 5.423965 0.88723403 11
-4.2020736 4.9963384 1.3466016 13
-4.0306878 5.3224387 1.3826352 13
-4.2075992 4.8923154 1.9569234 15
-4.0435219 5.2676044 1.7482188 14
-3.9515436 4.756855 0.31326377 8.5
-3.8441367 5.0302424 0.28069112 8
-3.9841785 5.5893168 0.29725704 8
-3.8079154 5.7410717 0.31455326 8
-3.6321406 6.2630157 0.36508295 8
-3.9318976 4.9863296 0.41051301 9
-3.9784155 5.411036 0.43028423 9
-3.8407342 5.7817445 0.60334462 9.5
-3.6634767 6.157866 0.7261194 10
-3.8802609 5.7544188 0.95631593 11
-3.6804388 6.1258249 0.92977583 10.666667
-3.9785058 5.5330043 1.4058497 13
-3.8389435 5.7947016 1.3432633 12.5
-3.6490774 6.1375427 1.3774846 12.666667
-3.808172 5.8624115 1.7064788 14
-3.6783729 6.1116457 1.8900303 14
-3.4941485 5.6432905 0.31700277 8
-3.5641921 6.3763137 0.34442741 8
-3.4536543 6.5917945 0.38038641 8.5
-3.2671714 6.9412847 0.39516094 8
-3.3678522 5.4917111 0.47067124 9
-3.5735898 6.3462176 0.67623281 9.5
-3.4098649 6.6419811 0.7292015 9.666667
-3.2940061 6.8778043 0.48271468 9
-3.5661798 6.347847 0.90406722 11
-3.4542692 6.5481081 0.93780345 10.75
-3.2416241 6.9575343 0.88495225 10.333333
-3.5718155 6.2982788 1.3800713 12.5
-3.3969784 6.6240726 1.3815473 12.5
-3.2656922 6.8551593 1.4872251 12.5
-3.5496776 6.3317256 1.7361325 14
-3.4388554 6.5558119 1.8376005 14
-3.283411 6.8543549 1.9203004 14
-3.1648288 5.4522099 0.48062947 9
-3.0710843 7.086287 0.45365852 9
-3.0309176 7.3308825 0.56327772 9
-3.087194 7.0420051 0.94425577 10.333333
-2.9982228 7.4107366 1.0237801 10.75
-2.8153279 7.7091627 0.91641307 10
-3.1399486 7.111454 1.4550681 12.333333
-2.9980013 7.3609614 1.4900528 12.25
-2.8504941 7.6556172 1.375369 11.5
-2.9556658 7.4476261 1.8204548 13.666667
-2.822227 7.6849389 1.8029419 13.5
-3.1902211 6.9775429 2.0342638 14
-2.9841404 7.3926334 2.1083167 14
-2.5969975 7.3633556 0.52075601 9
-2.7137752 7.9267001 0.68368763 9
-2.7592232 7.8346653 0.98354912 10.333333
-2.6009221 8.1359844 1.0329192 10.5
-2.4211562 8.4593353 1.0639321 10.5
-2.7814744 7.8150988 1.3975726 12
-2.5172253 8.2851334 1.3838212 11.333333
-2.704695 7.8762836 1.6492792 12.666667
-2.5436432 8.1704617 1.6987032 12.666667
-2.4847398 7.1722193 2.314419 15
-2.7287095 7.8941302 2.1051059 14
-2.6021643 8.1208563 2.1459227 14
-2.3840816 7.7223625 0.49919644 9
-2.3717096 8.6045532 0.76714396 9
-2.2574289 8.6495981 1.0647596 10.25
-2.1427245 8.7266788 1.3224347 11
-2.2689729 8.6063175 1.7309589 12.4
-2.1697347 7.3706574 2.3308194 15
-2.2164602 8.3889637 2.2774024 14
-2.2952156 8.6801519 2.156163 14
-1.7468437 5.9885902 0.50873995 9
-1.6937331 8.4253101 0.74118984 9
-1.8640782 8.5249748 1.8511901 13
-1.7620285 7.4434772 2.311445 15
-1.6970028 8.3823013 2.2529879 14
-1.9099814 8.4078779 2.2665443 14
-1.4428067 5.756741 0.51268798 9.333333
-1.4253054 8.1609535 0.68225586 9
-1.3889232 8.13797 1.0312079 10.75
-1.448398 8.2025948 1.4657327 12
-1.4888408 8.3542233 1.7858504 13
-1.5489541 8.4017382 1.7262373 13
-1.3583126 7.5166879 2.2971621 15
-1.397717 8.1768541 2.1192863 14
-0.83146262 0.93744475 -0.0086273737 7
-0.84270304 1.42321 -0.024578756 6.5
-0.91349787 1.7046082 -0.034557689 7
-0.89033556 2.2353678 -0.059181947 6
-0.82551616 2.9711282 -0.088292636 6
-1.0731944 5.5771499 0.56196052 10
-0.96725583 7.8903279 0.96755564 10.333333
-0.91146654 7.8780146 1.4048121 12
-1.1823229 8.0317612 1.4954363 12
-0.97830033 7.9230852 1.8469301 13.5
-1.1379964 8.0100136 1.6750447 13
-0.99534553 7.5643067 2.2821209 15
-0.45366433 -0.2905941 0.00027320211 7
-0.5104503 0.25841436 -0.0073033627 7
-0.55659807 0.65617949 -0.013445721 6.75
-0.59709561 0.99173015 -0.017879158 6.5999999
-0.59215796 1.3766171 -0.030445151 6.25
-0.57786119 1.8287544 -0.050136164 6
-0.66166174 2.1592748 -0.060831271 6
-0.67158669 2.5957351 -0.08016745 6
-0.54932278 -0.30090025 0.0092766834 7.4000001
-0.48082575 7.5525651 0.62728292 9
-0.61978918 7.6969185 0.65810663 9
-0.64653152 7.7120233 0.96852076 10.6
-0.66679692 7.7558026 1.3976305 12
-0.42492667 7.5938792 1.6838075 13
-0.64576793 7.7533221 1.7830887 13.6
-0.5670101 7.6150637 2.1939759 15
-0.16558842 0.59953898 -0.024841959 5.8571429
-0.044443272 1.0650493 -0.045025036 6
-0.185504 1.4026397 -0.043654591 6
-0.32995445 1.758222 -0.055971697 6
-0.18475884 7.4577107 0.65756804 9.5
-0.25025129 7.5003295 0.98854172 10.833333
-0.10620303 7.4507146 1.3351647 12
-0.16810952 7.490417 1.8125572 13.857142
-0.1739437 7.5264235 2.2241652 15
-0.35890397 7.5996866 2.2515023 15
0.12487451 0.59214693 -0.037608884 5.4000001
0.030163359 0.88685733 -0.046251483 5.5
0.21392119 7.272418 0.74420702 10
0.15719125 7.3063087 0.96561301 10.75
0.16819148 7.3209262 1.4522532 12.5
0.18527833 7.3224392 1.7779658 13.8
0.18630287 7.3460937 2.1630654 15
0.73903006 -0.96390927 -0.013815781 7
0.65367472 -0.56555355 -0.019669758 6.5
0.59479749 -0.19963144 -0.046350423 5
0.63901526 0.048817426 -0.060521688 4.1666665
0.66545552 -1.0159135 0.3195442 14.75
0.59550619 7.1017981 0.66806012 9.3999996
0.66913915 7.065021 1.0581104 11.25
0.57538569 7.1207509 1.407007 12.5
0.60435891 7.1076999 1.7517104 14
0.61286861 7.1159482 2.0904422 15
0.87482929 -1.3450552 -0.0059815068 7
0.85284156 -0.97831303 -0.015555102 7
0.85868472 -0.58729076 -0.027181782 6.5
0.98769766 -0.19625604 -0.039916962 6
1.0434368 0.21132419 -0.058265604 5.4285712
1.0271732 -1.4052651 0.17566472 10
0.9420048 -1.1585917 0.33647826 13.666667
1.1068377 -1.2558893 0.44494003 14.5
0.91391718 -1.1609136 0.42640188 15
1.00082 6.8987904 0.66111308 9.5
1.1731119 6.7794876 1.0917524 11.5
0.96152246 6.9118037 1.0514951 11.25
0.99065405 6.9031458 1.3619025 12.571428
1.0083305 6.896996 1.6376305 14
0.97653848 6.9195452 2.0317554 15
1.3108537 -1.3152994 -0.021230511 7
1.3702065 -0.92906392 -0.024425825 7
1.5416458 -0.73896742 -0.033300448 7
1.3840059 -0.068880089 -0.047808629 6
1.2821797 0.25168172 -0.069277197 5.5999999
1.4398496 0.46353319 -0.066959083 6
1.3687257 -1.6568382 0.084164739 8
1.4148281 -1.4039446 0.29791281 11.5
1.3819933 -1.3837564 0.48340994 14
1.4117602 5.8920965 0.71079624 10.333333
1.2253073 6.7439232 0.64287937 9.5
1.4672982 5.8626561 0.96410549 11.6
1.2760462 6.3588872 1.0255363 12
1.3163375 6.7033577 0.93420184 11
1.4146897 5.9235096 1.4214549 13.5
1.3110671 6.7215796 1.4326823 13
1.4442794 5.9383941 1.6801915 15
1.2861634 6.7484937 1.811542 14.5
1.6589389 0.22537415 -0.067543074 6
1.8182855 0.53236705 -0.078884333 6
1.6622654 -1.3414271 0.22623853 10.1
1.8313524 -1.0161123 0.22142243 10.071428
1.9719181 -0.76225561 0.18656565 9.5
1.6562859 -1.3520603 0.5049597 13.714286
1.8313383 -1.0202063 0.504614 14
1.9757073 -0.74143434 0.53503901 14.25
1.7937665 5.7041836 0.63928163 10
1.971047 5.5917354 0.9716903 12
1.789115 5.7026353 0.96187627 11.6
1.7692907 5.7375474 1.3715198 13.5
1.7590755 5.7465811 1.7382411 15
1.8591822 6.4820032 1.6639091 14
2.0920279 -0.56259191 -0.019450456 7
2.3010719 -0.13670294 -0.057446301 6
2.3973231 0.10893505 -0.072665095 6
2.276854 0.69467187 -0.10371032 6
2.0789723 -0.56793535 0.22919357 10
2.2475932 -0.25204086 0.21987338 9.7894735
2.3847263 0.026045902 0.31000432 11
2.080302 -0.5604161 0.52779418 13.9
2.2624841 -0.21554242 0.53373802 13.666667
2.3778965 0.013425558 0.4960711 13
2.207504 5.4964805 0.52482522 9.5
2.1453764 5.7006545 0.60715652 9.666667
2.1416466 5.5644493 1.0249895 12
2.3250718 5.7678881 0.99740899 12
2.2578988 5.5390139 1.4402333 14
2.2090905 5.7937427 1.4537342 13.6
2.2205944 5.5195894 1.6859981 15
2.1899087 6.4545774 2.0649235 15
2.5075295 0.37375337 -0.056254625 6
2.6918912 0.70104158 -0.060945377 6
2.498975 0.22852767 0.22165032 9.4615383
2.7080381 0.62962365 0.21870752 9.3000002
2.4920964 0.20321783 0.57851487 13.5
2.7098072 0.59250659 0.59582931 13
2.6025927 5.2767372 0.41968995 9
2.6641376 5.9102912 0.67373186 10
2.7374015 0.62206393 0.81840932 15
2.689297 5.9017687 0.99268299 11.25
2.4668612 6.0096378 0.89748353 11
2.6191907 5.5050745 1.3916501 13.5
2.5792897 5.8130703 1.3062866 12.666667
2.795542 5.1985331 1.7727528 15
2.6003246 5.4177666 1.6676923 15
2.8767552 1.0955369 -0.075600289 6
2.8081985 0.78704208 0.1628568 9
2.9332879 1.0564491 0.23169024 9
3.1290979 1.3858399 0.29664835 9.3999996
3.1262314 1.7956526 0.2516478 9
2.9771459 3.0198903 0.29033396 9
2.9801934 3.3396986 0.3389509 9
2.8370695 5.1444592 0.39720568 9
2.8088286 0.78537804 0.51218843 12
2.9503531 1.0364873 0.59883344 12.363636
3.136863 1.3835571 0.57322353 11.75
3.1100984 1.8085556 0.59490389 11.5
3.0239453 3.4051759 0.4831199 10
3.0839372 5.0428562 0.50130361 9.333333
2.955209 5.4186687 0.63240397 10
2.8745935 5.7702804 0.73177892 10
2.8103878 0.76677209 0.82118982 15
2.9662671 1.0457892 0.86618549 14.75
3.1413004 1.3681849 0.90716428 14.5
3.137517 1.8117739 0.96612006 14.5
2.9904981 5.740067 1.0095525 11.4
2.9719524 5.3191032 1.398512 13.6
2.9174507 5.7736192 1.2075524 12
3.0120304 5.0954347 1.7588704 15
2.9443073 5.3065467 1.6500766 15
2.9487541 5.8326321 1.9348615 15
3.2548137 1.7337493 0.29277396 9
3.4184415 2.3138673 0.28089261 8.666667
3.5082824 2.5853276 0.33497053 9
3.4532802 3.0329568 0.36508718 9
3.3082986 3.3143685 0.3953903 9
3.4170032 4.8033247 0.33571351 9
3.2190967 1.5267375 0.62016547 12
3.2504148 1.7228445 0.55148029 11.2
3.3853881 2.2760804 0.59165692 11
3.4685984 2.6237185 0.63161653 11.142858
3.5537343 3.0163002 0.61597282 10.75
3.2845483 3.2807229 0.53187907 10
3.5297449 4.7707324 0.46754879 9
3.4123566 5.0102267 0.54661781 9.5
3.4584026 5.4715662 0.69707251 10
3.2327478 1.533782 0.93569183 14.5
3.3083894 1.7407107 0.98268288 14.5
3.4007077 2.3023763 1.0266011 14
3.5404639 2.6277313 0.99353367 13.5
3.5500937 3.0687716 1.0038481 13
3.4549327 5.4926877 1.0664955 11.4
3.247431 5.6021562 1.1841799 12
3.5209048 2.6171076 1.2373096 15
3.5430098 3.0286264 1.3243599 15
3.4356072 5.0683074 1.3138694 13.25
3.205049 5.2134061 1.4998225 14
3.4551654 4.9841695 1.6591754 14.4
3.8286169 3.1398208 0.2819002 8.5
3.789264 3.0853465 0.63725054 11
3.7376261 3.4560511 0.58652961 10.333333
3.9939342 3.9023018 0.78866589 11
3.7438767 4.714582 0.50546652 9.666667
3.8281422 5.2838826 0.63153952 10
3.8136518 3.1107123 1.0205342 13.2
3.7535543 3.4833262 0.91868734 12.333333
3.9703696 3.8308415 1.0253359 12.5
3.791383 5.3132792 1.044399 11.4
3.9219296 3.1139321 1.3779838 14.666667
3.6549675 3.27917 1.3182251 14.5
3.8887229 3.6994081 1.3968805 14.333333
3.9764478 4.7856822 1.4128937 13.5
3.801779 4.8826337 1.3953589 13.5
3.8254902 4.6436548 1.7042083 15
4.2031889 3.8679733 0.37314969 9
4.1357036 4.124404 0.67628896 10
4.1946406 4.3265104 0.93300104 11.333333
4.0891414 4.4697585 0.94381964 11.5
4.2116027 5.0646071 1.0191371 11.4
4.1608796 4.2095523 1.4456552 13.8
4.0893378 4.5591316 1.4286872 13.333333
4.5746837 4.9361806 2.0164447 15
4.8530278 4.7886786 2.0115113 15
