# .PCD v0.7 - Point Cloud Data file format
VERSION 0.7
FIELDS x y z intensity
SIZE 4 4 4 4
TYPE F F F F
COUNT 1 1 1 1
WIDTH 86
HEIGHT 1
VIEWPOINT 0 0 0 1 0 0 0
POINTS 86
DATA ascii
-5.9106302 11.412751 2.8618393 14
-1.2732003 0.86737359 0.33512202 14
-1.214417 6.6196728 0.62611079 10
-1.2588574 6.5755205 0.68169451 11
-1.3735541 6.5951524 1.2662834 13
-1.1028184 6.6050711 0.40408239 9
-0.85051864 6.7706327 1.8340749 15
-0.69036514 7.0100317 0.681463 10
-0.68704903 6.8889542 1.1435477 12
-0.75906992 6.8314128 1.6597191 14
-0.067320652 7.3260121 1.0151194 11
-0.073038027 7.2658563 1.9581624 15
0.11517226 -1.6381431 0.3866145 13
0.0023730299 -1.3195597 0.38617405 15
0.040702317 7.3340607 1.7328461 14
0.3074863 -1.8489196 0.37058103 12
0.26401222 -1.8661729 0.58761454 15
0.27903441 7.4981008 1.2491887 12
0.53799701 7.8322597 1.4227017 13
0.65942192 -1.8702185 0.13379624 8
0.79059279 -1.5983509 0.25995886 10
0.87264484 -1.7453384 0.18666193 9
0.97261262 -1.5077962 0.4631893 14
1.0625855 8.051424 0.53564042 9
1.0256519 7.9301076 1.0469787 11
1.1218219 7.9144382 2.2758987 15
1.2747587 -1.3240103 0.34683752 12
1.3181015 8.0625858 1.4746745 12
1.1649655 7.9420495 1.8332962 14
1.5144241 -1.3806258 0.15349178 8
1.4774024 -1.2087301 0.28714493 10
1.5191278 -1.1801715 0.61810935 15
1.7851095 -1.0213338 0.54700083 14
1.945652 -1.1301662 0.25483251 9
1.8570209 -0.98504359 0.43294048 12
1.9760201 -0.90481365 0.67574137 15
2.1562073 -0.82031292 0.35423681 11
2.0484827 -0.87140501 0.57949656 14
2.1853235 4.9211993 0.43211174 9
2.2016423 -0.79924405 0.29825649 10
2.4482431 -0.64946234 0.34137875 10.5
2.4392576 -0.73279721 0.8363018 15
2.6864231 -0.55901515 0.21388143 8.5
2.9752972 -0.32051015 0.4547084 11
2.9256465 -0.42988396 0.55659634 12
3.0334771 -0.36832291 0.3274135 9
3.0994911 7.6453233 0.9917388 11
3.1295228 7.6039319 1.5473881 13
3.3772795 -0.04659415 0.22916603 8
3.3868971 -0.13728571 0.44113666 10
3.3142903 0.08383017 0.66982228 12
3.4262757 -0.042090572 0.34956571 9
3.4111474 0.20381798 0.40125829 10
3.4167876 0.14660768 0.77256566 13
3.39957 0.13696697 0.94009954 14
3.5033178 7.0816631 2.3024106 15
3.6740117 6.5762076 0.47004703 9
3.7535906 6.4450746 0.9621622 11
3.6100755 6.7898889 1.8669717 14
3.9828696 1.0037463 0.28271335 8
3.8234994 1.2831649 0.22366138 8
3.8481522 1.2210528 0.35553718 9
3.8154988 6.141561 1.2767364 12
3.9447796 6.1240716 1.4260097 13
3.9963307 4.6110659 0.32634014 8
4.0109777 4.6060658 0.4599607 9
4.0525904 4.5593133 0.71357971 10
4.0136275 5.9999499 0.7920351 10
4.1259499 4.4797816 0.89715052 11
4.0542617 4.4429016 1.1217986 12
4.0974565 5.9270511 1.0369202 11
4.1578727 4.4811773 1.6575228 14
3.9804742 6.1698046 2.1569512 15
4.2145867 4.3115001 1.2266527 13
4.2102423 5.7879133 1.7201402 14
4.4945669 3.7483292 0.2590113 8
4.5207429 3.7453284 0.65063214 10
4.4647422 3.8654211 1.6093968 14
4.430954 3.9758673 1.7630197 15
4.6522908 3.6626165 0.8272863 11
5.0954518 2.703897 0.16203892 7
4.969491 3.3704607 1.3727872 13
5.3304067 2.6880662 1.4809409 14
5.2504115 2.4568806 1.8317528 15
5.6108871 2.7749844 1.3483005 13
5.8281221 2.6618557 1.0994353 11
