# .PCD v0.7 - Point Cloud Data file format
VERSION 0.7
FIELDS x y z intensity
SIZE 4 4 4 4
TYPE F F F F
COUNT 1 1 1 1
WIDTH 209
HEIGHT 1
VIEWPOINT 0 0 0 1 0 0 0
POINTS 209
DATA ascii
-0.2275084 -0.84167999 0.005563593 159
-0.1435184 -0.72591037 0.0059402082 172.5
-0.23273721 -0.65512973 0.0056908284 176
-0.11980118 -0.69315851 0.0061844187 171
-0.079555176 -0.64037091 0.00030048052 184.25
-0.23118956 -0.50739908 0.0018093231 188
-0.15606612 -0.5748409 0.0023452435 183.66667
-0.016777081 -0.55296844 0.0025330118 187
0.013993846 -0.5115996 0.00029045698 186.5
-0.20589709 -0.48632571 0.0027268194 185
-0.12729196 -0.42191231 0.0016701285 186.33333
-0.060460299 -0.47379538 0.00082135305 186
0.052654393 -0.4267787 -0.012981261 181.9375
-0.040003669 -0.34407306 -0.013085425 181.44444
0.058597211 -0.33993506 -0.012815191 178.13333
0.14552955 -0.33038056 -0.025522189 174.25
0.85591811 -0.31864128 0.0083819581 169.66667
0.91607195 -0.35744157 -0.0029415267 169
-0.65112025 -0.21110979 -0.0049848617 146
-0.11722377 -0.24155667 -0.018917412 180.8
-0.04981374 -0.25415623 -0.0085939104 179.11111
0.05265747 -0.2494387 -0.033167671 173.125
0.15089282 -0.25581843 -0.046150409 168.54286
0.22434151 -0.23547651 -0.041545209 166.39999
0.68499148 -0.20140517 -0.0056240759 152
0.72209018 -0.2277635 0.0032825428 155
0.82936943 -0.26365289 0.0096929409 166.83333
0.94234169 -0.26558989 0.00096348161 169.5
-0.51442224 -0.18327239 -0.0037511045 167.5
-0.41882041 -0.16423194 -0.0072962567 185.33333
-0.34938714 -0.14999419 -0.0055526197 189.5
-0.29104593 -0.13816266 -0.005455351 186
-0.15496476 -0.13872926 -0.02154422 179
-0.035161953 -0.15615088 -0.025760777 175.30435
0.061122544 -0.13270885 -0.042308923 163.95238
0.1568118 -0.14399768 -0.029525161 163
0.24994162 -0.14270632 -0.036965124 162.27472
0.31237325 -0.11597763 -0.047024358 157.75
0.58203232 -0.11744694 -0.039555486 151.54546
0.64911133 -0.14277136 -0.0095994491 152.21622
0.71851707 -0.13778456 0.0006093813 148.5
0.86687505 -0.14706367 0.0081143249 163.375
0.9497214 -0.13457994 -0.0011823518 168.33333
-0.65898168 -0.082880303 -0.0078953076 145
-0.53583163 -0.073135167 -0.0063108439 167.66667
-0.42997414 -0.065124169 -0.010871469 186.33333
-0.33283019 -0.057339873 -0.0078197317 187.33333
-0.27955791 -0.053237852 -0.008883357 185.5
-0.16726501 -0.045199294 -0.021347454 180.5
-0.049438808 -0.064929441 -0.03605146 173.97437
0.058417574 -0.050324563 -0.038084984 165.90625
0.15588467 -0.053277578 -0.0352147 162.93506
0.25502127 -0.051184855 -0.060549002 163.39259
0.34975812 -0.033005141 -0.064319089 164.28181
0.4509981 -0.020775013 -0.039613076 161.45454
0.5476284 -0.05233907 -0.047394447 158.45334
0.63581705 -0.055245832 -0.024108252 152.7451
0.74102992 -0.063036248 -0.0043637571 150
0.86905295 -0.05649263 0.0072072973 158.60001
0.94053787 -0.064909153 0.0031067359 165
-0.85615015 0.050868303 -0.015033586 124
-0.7619319 0.046993956 -0.01266728 122.5
-0.67930907 0.043457497 -0.015686462 141.66667
-0.54853028 0.038083076 -0.01175596 165.60001
-0.43968585 0.033409107 -0.015674988 184
-0.32566553 0.028844479 -0.007274094 188.5
-0.2420544 0.052104674 -0.01243953 185.25
-0.16499017 0.054487083 -0.029025843 181.04167
-0.047958411 0.041806459 -0.040688064 174.21622
0.057993896 0.046847243 -0.042503763 166.125
0.15596162 0.045870766 -0.036606003 162.94186
0.25406042 0.044787839 -0.061315365 162.31973
0.35724199 0.017184217 -0.064802647 163.24738
0.44290909 0.027786603 -0.049947791 161.90475
0.54934263 0.045100309 -0.063884534 160.09
0.63550699 0.0386732 -0.033736136 153.73438
0.7499308 0.044104479 -0.016226633 153.2381
0.85459697 0.028958512 -0.003334715 160.66667
0.93970054 0.029163089 -0.0099382298 172.71428
-0.33609939 0.13673669 -0.018836964 182.25
-0.25948322 0.15283456 -0.017305801 186.54546
-0.15912014 0.15461622 -0.026282204 181.83333
-0.037649266 0.14641891 -0.032825571 175.2258
0.045249887 0.15157616 -0.055114653 168.625
0.15398736 0.13890222 -0.034364577 163.4151
0.226988 0.11557877 -0.04100341 161.86957
0.48226663 0.11479451 -0.067719981 159
0.55016625 0.14592367 -0.064030439 155.04819
0.6465112 0.14867337 -0.041953936 153.32353
0.73657179 0.14956535 -0.02348008 151.48148
0.84731656 0.14208266 -0.011513552 158.53847
0.94097394 0.15313828 -0.023047302 164.5
-0.62974304 0.28821906 -0.020838654 147
-0.53995067 0.26264825 -0.019697158 165
-0.43431565 0.2326341 -0.020251071 181.60001
-0.35650325 0.24297301 -0.025834594 188.33333
-0.24211444 0.26416296 -0.017051326 187.57143
-0.13979195 0.22152118 -0.023236347 182.91667
-0.048048742 0.24635728 -0.027722366 180
0.026509773 0.23337135 -0.035396848 174.71428
0.56413382 0.23790105 -0.039318711 150.08333
0.65305072 0.24583355 -0.034063224 150.34375
0.74340022 0.25475678 -0.022672104 155
0.83218765 0.24041149 -0.028245475 159.125
0.94951922 0.2554594 -0.041385334 163.14285
-0.90202832 0.36573485 -0.024389759 135
-0.86385024 0.35501003 -0.027437912 132
-0.75402242 0.32351667 -0.020255873 130.33333
-0.68332988 0.30349609 -0.022002507 137
-0.54989499 0.39526299 -0.035440717 156
-0.45563856 0.35489678 -0.026910992 171.8
-0.36073259 0.31483695 -0.026051106 185.5
-0.12955424 0.38112453 -0.02245339 186.8
-0.060910042 0.33169118 -0.029922321 182.72728
0.59870011 0.30766347 -0.03618278 146
0.63990772 0.33824605 -0.025400378 155.375
0.75114399 0.35486722 -0.033201534 164
0.85789877 0.33805135 -0.042742945 163.2
0.91267359 0.35792616 -0.045311999 164.5
-0.72966623 0.47099343 -0.035384133 139
-0.64437741 0.43471789 -0.030836165 140
-0.58485532 0.40974957 -0.032248568 150
-0.24982633 0.47172886 -0.034190878 185.8
-0.17404528 0.41370875 -0.020953074 189.33333
0.67972344 0.43142462 -0.033637922 171
0.75560707 0.43913049 -0.039745733 169.2
0.85026383 0.44644678 -0.048953302 166
-0.84389269 0.51930743 -0.038026422 123
-0.7977249 0.49983373 -0.037649274 120
-0.32258511 0.52426338 -0.026968386 169
-0.29001054 0.50056392 -0.029075755 182
0.75815713 0.54090768 -0.053311002 168.39999
0.84935206 0.5202198 -0.054810859 162
0.79936606 0.59973162 -0.061004177 160
-0.27870268 -0.90474224 0.022287006 143
-0.4432148 -0.87188244 0.025460053 134
-0.38977948 -0.8144294 0.02739495 137.5
-0.2390217 -0.85210353 0.017811671 151
-0.19950481 -0.80116111 0.01002198 161
-0.55256259 -0.7633726 0.032941945 115.66666
-0.4861688 -0.70948231 0.030118849 126
-0.33780089 -0.76191407 0.019595051 149
-0.29928029 -0.72276574 0.014482718 158
-0.16343167 -0.74924135 0.015144886 166
-0.64257365 -0.64451438 0.032418352 113.33334
-0.43463677 -0.66985464 0.019982576 143.75
-0.36652997 -0.61380559 0.019899849 157
-0.24282619 -0.66298383 0.013916874 169
-0.1842816 -0.60082471 0.013805823 181
-0.098028131 -0.66073042 0.011739147 179
-0.53505081 -0.57781094 0.025852911 135.66667
-0.46438113 -0.53323734 0.02489239 151
-0.3307232 -0.58573788 0.014801889 168
-0.2641623 -0.53148657 0.012845913 179.25
-0.13162042 -0.546027 0.010508263 186
-0.016532652 -0.54863131 0.011572325 188.33333
-0.40204954 -0.49390265 0.024150116 162
-0.34480596 -0.45864981 0.019535415 173.2
-0.28332257 -0.42055765 0.0156262 181.5
-0.15289351 -0.43953788 0.014135439 185.75
-0.044037953 -0.45290819 0.010690391 186.28572
0.031986549 -0.4527812 0.0091378214 185
-0.76919335 -0.38248229 0.013497526 113.5
-0.6759007 -0.35111678 0.016018834 124
-0.23559341 -0.38870049 0.02296268 184.5
-0.14099684 -0.32698056 0.031073621 185.8
-0.073244698 -0.36250073 0.0087439427 183.71428
-0.80157691 -0.24027127 0.0093575716 112
-0.74752212 -0.22960763 0.0061439392 121
-0.64918518 -0.20989428 0.0036594339 141
-0.1241162 -0.2380127 0.020337477 181.28572
-0.089694127 -0.25469241 0.046780698 178.75
0.75394464 -0.23477596 0.015360696 158.125
0.85318631 -0.24137972 0.012867152 168
-0.54406863 -0.18841965 0.0052907583 159.5
-0.45542395 -0.17092168 0.00033225326 177
-0.32893661 -0.14494507 0.0038951694 189.5
-0.21726914 -0.1662707 0.048322316 183.07143
-0.17020336 -0.18181841 0.024876917 171.83333
0.072245508 -0.14423193 0.024354473 140.61539
0.75495076 -0.16594604 0.013328766 153.23077
0.83555341 -0.14433382 0.013063841 159.60001
0.90772378 -0.1951472 0.012403264 169
-0.82499182 -0.095347606 0.0013961141 117
-0.74201816 -0.08887177 0.00079496956 124
-0.64130747 -0.081127636 -0.0017845035 145
-0.55773067 -0.074130513 0.0056306231 157
-0.45876774 -0.066729389 -0.00015472628 179
-0.32775849 -0.056339029 0.0021486001 188.33333
-0.224301 -0.048386194 -0.00015165303 184.75
0.78239 -0.06568969 0.011144075 152
0.80998355 -0.066575043 0.012521971 154.33333
-0.33103231 0.029266238 -2.1738591e-05 189
-0.22021139 0.024559207 -0.001810248 185
-0.35220537 0.11747108 0.048635218 192.08333
0.092792965 0.15880635 0.048315324 139
0.14883839 0.14893083 0.08734186 130.04546
0.057096157 0.23666443 0.020393733 177
-0.30772698 0.50885683 0.000944575 163
-0.32376108 -0.22143982 0.11094938 140
-0.072931334 -0.19937061 0.10335294 168
-0.22903565 -0.18893772 0.11852359 167.66667
-0.021552913 -0.16360836 0.16926277 155.70589
0.0034567153 -0.15166044 0.16987909 129.5
-0.36608821 0.11933116 0.11047931 178.8
0.076628208 0.15700172 0.14316669 131.35001
0.12890176 0.14575954 0.10502038 122
-0.024902835 0.27643865 0.15009248 158
0.046550382 0.21746801 0.18935429 144
