# .PCD v0.7 - Point Cloud Data file format
VERSION 0.7
FIELDS x y z intensity
SIZE 4 4 4 4
TYPE F F F F
COUNT 1 1 1 1
WIDTH 100
HEIGHT 1
VIEWPOINT 0 0 0 1 0 0 0
POINTS 100
DATA ascii
-2.4976599 -1.410056 0.31030557 10
-2.4955826 -1.4116763 0.42171055 11
-2.5159171 -1.2171205 0.49826404 12
-2.5250149 -1.0503837 0.56129563 13
-2.4757679 -1.4057293 0.66425771 13.5
-2.4790695 -1.2471517 0.73916727 15
-2.3581963 -0.90996426 0.28323808 10
-2.291863 -0.66924965 0.30241033 11
-2.2308319 -0.4425849 0.26187173 11
-2.2832539 -0.51772225 0.47916448 13
-2.3265526 -0.72512728 0.65112782 15
-2.307327 -0.45154694 0.63746864 15
-2.1928988 -1.5336673 0.21129505 9
-2.0876801 -1.5129061 0.60493195 14
-1.9578863 -1.5626509 0.56021059 13
-1.690912 1.1159639 0.26671574 12
-1.6862996 1.4042201 0.28837037 12
-1.614495 -1.669708 0.54081583 13
-1.756816 1.0784353 0.46343124 14
-1.7107719 1.325171 0.43158892 13.5
-1.6997586 1.3654079 0.54665399 15
-1.6517544 5.5976195 1.3456048 14
-1.5897847 1.7623535 0.31629342 12
-1.5921384 1.7528327 0.39471418 13
-1.6004407 1.7063746 0.58604306 15
-1.5355489 1.9002892 0.53439713 14
-1.3308902 -1.7672747 0.30578476 10.5
-1.3106697 -1.6884586 0.4377645 13
-1.1604067 -1.8184631 0.30834723 11
-0.35882762 -2.0722728 0.22453502 9
0.14436907 -2.2013705 0.21784499 9
0.12447972 -2.2451069 0.55893791 13
0.44571701 -2.3037598 0.43227184 11
0.77828246 -2.4611084 0.40285063 11
0.59829813 -2.345582 0.28421137 10
0.76087248 -2.4471781 0.74498737 14.5
0.85818726 -2.4318659 0.23522265 9
0.8829819 -2.3003812 0.36278 10
0.82896858 -2.4241796 0.59514517 13
0.96017122 -2.2360756 0.69981945 14
1.0829464 -2.1777716 0.25037315 9
1.0529236 -2.1724572 0.42518556 11
1.0478538 -2.1753805 0.48711094 12
1.0454866 -2.1774983 0.74005735 15
1.5654672 -2.4188368 0.80429149 14
1.654204 -2.3497975 0.58838129 12
1.6270213 -2.3529646 0.94629467 15
2.1386192 -2.0274918 0.451781 11
2.1513879 -1.9774756 0.34928566 10
2.179095 -1.8389581 0.53985947 12
2.1489942 -2.5213921 0.72115201 12
2.3708272 -1.9928942 0.20993133 8
2.2216754 -1.7417307 0.448428 11
2.5283198 -1.6720871 0.47144252 11
2.5221918 -1.7597821 0.65283167 12
2.4396443 -2.2085643 0.74306428 13
2.5160158 5.6668396 1.3367687 14
2.6593707 -1.761724 0.75950491 13
2.6201115 5.5827293 0.81106973 11
2.9324062 -1.5742276 0.29588702 9
2.9348919 5.5387864 1.6954472 15
3.1125484 5.3574443 0.90650725 12
3.0927794 12.383536 2.5525591 13
3.2088892 5.4885621 0.82929635 11
3.2038956 5.3412046 1.3506165 14
3.9189906 5.1497531 1.8731116 15
4.3312206 5.1618357 0.70485449 10
4.2890277 5.0047011 1.5270178 14
4.5108886 -0.71202821 0.27910462 8
4.532321 -0.32576144 0.25316581 8
4.5149441 -0.68060774 0.39169821 9
4.5418277 -0.25818682 0.39744782 9
4.4169383 -0.88028443 0.68134475 11
4.5629096 -0.040267967 0.68191707 11
4.4351444 -0.61697686 1.0163279 13
4.5288472 -0.38236463 0.91783559 12
4.4686551 -0.60816467 1.2186949 14
4.4776464 4.9262605 1.8985286 15
4.6508231 -0.28766409 0.10915601 7
4.7226248 0.41553864 0.58263725 10
4.7413096 0.4589898 0.71672994 11
4.759088 4.7781425 0.65942276 10
4.7733788 5.0263591 0.9316051 11
4.6042514 -0.26413566 1.300197 14
4.7695427 -0.4945735 1.5170934 15
4.8806968 -1.1507163 1.279349 14
4.8700237 -1.2946966 1.4924445 15
4.9236455 4.7334304 1.2658391 12
5.4024076 0.67137063 0.021060366 7
5.6392441 0.30241024 -0.024248904 6
5.7432437 1.5354996 1.3053131 13
5.7043276 1.3458967 1.648185 15
5.7444563 4.4545236 1.979715 15
5.9272132 1.2716621 1.4831636 14
5.9126525 2.1451671 1.8026688 15
6.0203314 4.6205115 1.5834123 13
6.26862 3.242475 2.1520107 15
6.4250417 2.727572 1.7828882 14
6.4696646 4.17343 2.0326328 14
6.6684566 4.4228945 1.350619 12
