# .PCD v0.7 - Point Cloud Data file format
VERSION 0.7
FIELDS x y z intensity
SIZE 4 4 4 4
TYPE F F F F
COUNT 1 1 1 1
WIDTH 572
HEIGHT 1
VIEWPOINT 0 0 0 1 0 0 0
POINTS 572
DATA ascii
-2.8464506 2.610275 0.17977509 10
-2.9598446 3.0234232 0.083693579 9
-2.8518791 2.6582046 0.38332605 11
-2.9182565 3.0650535 0.40383288 11
-2.8464458 2.6782727 0.78067738 14
-2.91518 3.0061662 0.78626627 13.833333
-2.8799057 3.2297213 0.97986209 15
-2.483254 1.4840844 0.23714882 10.666667
-2.5996337 1.831619 0.186314 10
-2.6873426 2.1037555 0.17636858 10
-2.6373169 3.2689996 0.11254711 9.333333
-2.4692674 1.4553154 0.49468476 13.222222
-2.5916758 1.8428748 0.44701922 12.555555
-2.708539 2.2050629 0.41363582 11.714286
-2.7818224 2.4500301 0.34170473 11.5
-2.6119423 3.29214 0.34224516 11
-2.4835086 1.51931 0.74779266 15
-2.5952885 1.8788599 0.77829498 15
-2.7200835 2.2862926 0.7445972 14.2
-2.7996814 2.5137408 0.71345568 14
-2.8083062 3.2526157 0.85612839 14
-2.5992579 3.3152499 0.7516259 13.6
-2.5686586 3.329916 0.97627705 15
-2.2126141 3.4069786 0.11708635 9.5
-2.2359753 3.4104502 0.36431292 11.125
-2.179343 3.4455266 0.75158775 14
-2.1774318 3.4571609 0.97399914 15
-1.6614012 -0.96156228 0.35968339 11.8
-1.7631238 -0.5595845 0.35611072 12.285714
-1.6200116 3.601558 0.13998605 10
-1.6605862 -0.93528581 0.51830214 14
-1.7882767 -0.5460757 0.4905566 14
-1.8187817 3.5474982 0.33481801 11
-1.8010088 3.567363 0.71166629 14
-1.9484768 3.5379231 0.97579658 15
-1.5184664 -1.3794693 0.41191453 11.8
-1.4714525 -1.0094273 0.39713681 12.5
-1.4915934 -0.76897842 0.37926796 13
-1.5721618 -0.33840564 0.36387005 13
-1.5291024 3.6261454 0.14925987 10
-1.5162514 -1.4135273 0.58543921 13.875
-1.4698334 -1.036478 0.51791888 14.125
-1.5814049 -0.33478102 0.44664794 14.5
-1.587567 3.6167581 0.31314376 11
-1.3667388 3.6867554 0.34022021 11.285714
-1.5767529 3.6363635 0.7424891 14
-1.4026692 3.696322 0.73659045 14
-0.88031125 -1.0399513 0.40194118 14
-0.898682 -1.0300041 0.46132961 15
-0.98596185 3.8086605 0.35238513 11.363636
-0.97825444 3.832968 0.73417282 14.111111
-0.64464253 3.8954666 -0.26818711 7
-0.46612942 -1.1965972 0.38056621 14
-0.62778008 -1.0209615 0.39631978 14.666667
-0.57443494 0.32623848 -0.0050969464 8
-0.54773968 0.63960761 -0.023017073 8
-0.55577117 0.98798269 -0.038339343 8
-0.56659329 1.369764 -0.059173178 8
-0.5435375 1.8209213 -0.085699551 7.6666665
-0.51257986 2.1735849 -0.10584906 7
-0.64766657 2.5048125 -0.12895542 7
-0.41490042 2.9817896 -0.16364953 7
-0.65970069 3.9086258 -0.22938795 7
-0.45776749 -2.7449136 0.89807832 14
-0.62436837 3.9302194 0.38463798 11.5
-0.46492946 -2.7485764 1.0280297 15
-0.52993423 -2.7416186 1.0278597 15
-0.63882172 3.9438596 0.72915196 14
-0.016630586 -1.342391 0.079720519 7
-0.12982275 4.0345984 -0.26763889 7
-0.036496792 -2.1183574 0.42721388 11
-0.14505799 -1.7442995 0.39161488 11.666667
-0.22589821 -1.3917198 0.38856572 13.1
-0.37657604 -1.1659604 0.40312421 14.5
-0.15793581 0.61770028 -0.028001396 7.5
-0.1748028 1.0297164 -0.044642657 8
-0.24884588 1.2982453 -0.058075987 8
-0.27022654 1.8054779 -0.089398764 7
-0.19471148 2.154299 -0.11048267 7
-0.30169019 2.5551558 -0.13517271 7
-0.033147544 3.2069712 -0.18187018 7
-0.1698994 4.1182461 -0.17486477 7.5
-0.2749463 -2.706471 0.84854901 14
-0.053333826 -2.0701473 0.6484611 14
-0.14266945 -1.7667862 0.60444552 14.5
-0.20058322 -1.4162672 0.50163168 14.75
-0.37422198 4.0132799 0.39878121 11.5
-0.18897779 4.0715094 0.40186477 11.5
-0.35257897 4.0364237 0.73080051 14
-0.17760216 4.0886827 0.71745372 14
-0.3024407 4.0558672 0.95190907 15
-0.02667479 4.1540017 0.97418237 15
0.08235313 -1.3282156 0.080771729 7
0.19909991 -0.95976371 0.053214382 7
0.26634485 -0.58131284 0.028851144 6.75
0.3604261 -0.38375559 0.015367634 6.5
0.3845627 0.37227809 -0.029009309 7
0.34669349 0.47784814 -0.05541807 5.5
0.20637356 -2.5783741 0.40117347 9.7142859
0.16040735 -1.7363508 0.39455086 11.6
0.24428315 -1.3997259 0.35009676 12.4
0.05621938 -1.0951381 0.06891565 7
0.28748026 -0.53163528 0.039996628 7
0.055915266 0.60447711 -0.024189876 8
0.21838121 1.8565705 -0.094228931 7
0.095261738 2.2076728 -0.11734802 7
0.25749326 2.5971022 -0.14790905 7
0.18562226 2.920249 -0.16600767 7
0.35766697 3.3650606 -0.20231582 7
0.27539447 4.6946254 -0.048756804 8.5
0.32231998 7.3338342 -0.43441179 7
0.16735317 -2.5470285 0.74903238 13.5
-0.0027366912 -2.2729495 0.64847326 13
0.081128225 -1.6873744 0.52146703 14
0.26869059 -1.5597101 0.50863051 14
0.13316923 4.1770926 0.45738217 11.666667
0.21084283 -3.1626151 1.1341143 15
0.33609515 -3.119693 1.1600529 15
0.14979576 4.192296 0.78074908 14
0.21114522 4.2167969 0.99202943 15
0.47276148 -0.47067282 0.018062217 6.5
0.56811827 -0.21017806 -0.011501958 5.5454545
0.45448342 0.28892812 -0.043769281 5.5
0.52094752 0.5920468 -0.046068378 6.5
0.62402177 0.94591397 -0.060473524 7
0.73741436 1.4084153 -0.080203958 7
0.78787035 1.6106867 -0.091569938 7
0.78089178 3.3731306 -0.2007852 7
0.57356054 -2.4691815 0.39056948 9.625
0.49897575 -1.7041131 0.18353635 8
0.55289847 -1.380379 0.3904404 12.857142
0.55977565 -0.45504785 0.036389835 7
0.71064723 1.3026118 -0.073091909 7
0.60662752 1.9024465 -0.10669281 7
0.62775254 2.0900698 -0.11515754 7
0.68414694 2.568387 -0.14485954 7
0.73008811 2.9591987 -0.16868629 7
0.61767912 -2.4180896 0.71614766 13.428572
0.39947107 4.6641874 0.26275051 10
0.69496518 7.4324365 0.17519024 9
0.58874476 -3.0370967 1.1215311 15
0.60951424 7.4116702 0.61724067 11
0.63217527 7.4362626 0.93320084 12.5
0.61987329 7.4421172 1.3575219 13.666667
0.70833766 7.477634 1.5834684 15
0.94424647 -0.20241377 0.013941334 7
0.86056679 1.8982565 -0.11073993 7
1.0032054 2.4686761 -0.14389969 7
0.82922816 3.7882943 -0.22458813 7
0.89504761 4.3478341 -0.25882041 7
0.8731522 -2.5188236 0.34480813 9
1.0129045 -2.3116574 0.39329642 9.75
0.82521492 -0.11104283 0.014311364 7
0.81150997 1.7060099 -0.096495576 7
0.94749135 2.2500153 -0.127956 7
1.0480363 2.6545756 -0.14954098 7
1.1162437 2.9273031 -0.16542102 7
0.88557869 -2.4601409 0.60785472 11.75
0.99104118 -2.3041165 0.68434727 13
0.9321903 7.5060616 0.22172037 9.333333
0.95403928 -2.8724134 1.1126423 15
1.0003237 7.5387483 0.5498336 10.5
1.0308887 7.5638037 0.93238461 12.5
0.96145785 7.5478563 1.3329129 13.6
0.99715346 7.5797348 1.6278807 15
1.41084 -2.0278556 0.084429912 6
1.2869415 7.6888714 -0.45957062 7
1.2113425 -2.4112053 0.25564519 8
1.4168705 -2.1983635 0.38167465 9.666667
1.3091669 3.6968501 -0.21166857 7
1.4434156 4.2340779 -0.24259821 7
1.2506311 7.6912322 -0.34240726 7.5
1.4266846 -2.1639733 0.68319756 12.888889
1.2371494 7.6129136 0.14759593 9
1.4984009 7.6898422 0.17249618 9
1.372703 -2.7856863 1.1165398 15
1.5446835 -2.7303505 1.1351961 15
1.2550927 7.6207237 0.51662034 10.5
1.4739046 7.6893721 0.50709397 10.5
1.3502787 7.6586194 0.80145431 12
1.491456 7.702311 0.83584517 12
1.3040357 7.65488 1.3312622 13.5
1.4963624 7.7222056 1.3479686 13.5
1.3252027 7.6691236 1.5912504 14.5
1.4838542 7.7314587 1.683497 15
1.8031354 -2.0794408 0.39239421 9.7142859
1.7822959 -2.069984 0.67763573 12.444445
1.8027738 7.7866988 0.18292826 9
1.6870793 -2.5221956 1.0918417 15
1.7585264 7.7814083 0.48993379 10.333333
1.8044349 7.8073149 0.87601143 12
1.7866862 7.8138785 1.37813 13.5
1.7647871 7.8163853 1.6877568 15
2.0922844 -2.0467362 0.37102738 9.25
2.2127821 -1.9037532 0.37073576 9.3999996
2.3335567 7.9831109 -0.31252208 8
2.0440855 -2.0035098 0.76771134 13
2.2060032 -1.891945 0.72701931 12.6
2.3771305 -0.40043807 0.60357749 13.5
2.3356938 7.3695493 0.21617794 9
2.2225087 7.9206433 0.11113127 8.75
2.3516798 -1.9675184 0.99729651 15
2.2684467 7.2158322 0.69838518 11
2.2688136 7.2749557 0.76598907 12
2.1957779 7.9150252 0.45680305 10.333333
2.3433206 7.2355809 0.82343662 12
2.1946583 7.9173689 0.81911528 11.5
2.1675825 7.9354601 1.2593452 13
2.1544533 7.9362245 1.655309 14.5
2.4841027 -1.8279971 0.36565357 9.333333
2.7540243 -0.55822265 0.28129798 9.25
2.4160109 -1.9633133 0.72819608 12
2.5136347 -1.8033159 0.74624473 12.6
2.5790021 -0.95885277 0.6182422 12.333333
2.4898815 -0.58566898 0.6115641 13.2
2.6568742 -0.2853744 0.58088636 12.666667
2.6489129 7.9749475 0.19857603 9.333333
2.5567183 7.9633989 0.44384313 10.333333
2.5476439 7.1986856 1.5163141 14
2.5728941 7.3492618 1.2013445 13
2.4929266 8.0296259 1.273312 13
2.6232243 7.2270851 1.6178393 15
2.4651256 7.3147402 1.6236013 15
2.5523217 8.0223589 1.7883267 15
3.1185677 -0.48732132 0.19960156 8
2.9980283 -0.44494098 0.53637004 11.5
2.9977551 -0.18707542 0.5533278 12
3.1943669 6.8004322 0.063053131 9
3.1362274 6.9516253 0.18214697 9
2.9469748 7.5627737 0.17742994 9.5
3.0674036 7.1282125 0.71136808 11
2.8911157 7.8237691 0.37114024 10
3.1199563 7.0288491 0.99014807 12.333333
2.9752171 7.5948997 0.85627705 11.666667
2.7926893 8.0213976 1.0781517 12
3.0289352 7.285058 1.2021294 13
3.1403234 6.9367113 1.6243639 15
3.3929784 -2.1916299 0.34869745 8.3999996
3.4214947 -1.9048418 0.1718038 7
3.3417132 -0.46035635 0.23874637 8.5
3.3617265 -0.11580465 0.28314379 9
3.4472446 -2.2249465 0.7497521 11.166667
3.3106687 -0.039977569 0.52873129 11.5
3.4063265 -2.2050374 1.1493056 14
3.5549583 5.5289969 0.73561138 12
3.509795 6.0354857 0.50361365 10
3.3552153 8.280818 0.56151843 10
3.4319758 -2.1816242 1.417313 15
3.4878213 5.88906 1.0667971 13
3.3958757 6.2226715 1.0986737 13
3.2395165 6.8559642 1.1606718 13
3.5549393 6.0202165 1.4938738 14
3.3967576 6.3150444 1.423529 14
3.3478384 6.7001071 1.580206 14
3.2158163 7.0148854 1.565534 14
3.5343223 5.8527632 1.6831683 15
3.3363967 8.3159161 1.6563593 13.5
3.7481542 -2.1043847 0.39870304 8.75
3.7547626 -1.8209701 0.19483447 7.25
3.6237597 -0.84340858 0.19913919 8
3.917623 -0.46899673 0.14019364 8
3.967159 0.1131262 0.29200625 9
3.7797649 -2.1127157 0.72570765 10.9
3.9646492 -0.24773403 0.51680607 10
3.9275813 0.15423167 0.50311464 10.5
3.7930372 -2.0770457 1.1742797 13.75
3.7059417 5.1487384 0.64641303 11
3.690201 5.543673 0.75020599 11.5
3.6501377 8.4543629 0.56236356 10
3.918591 -1.9841313 1.507935 15
3.6735587 5.3223119 1.0149963 13
3.9678693 8.5174103 0.92555034 11
3.6706815 8.5203714 1.8386968 14
4.3877001 -1.8887048 0.15232709 7
4.0659885 -1.9802128 0.45861736 9
4.3204298 -1.908132 0.37873575 8.5
4.1492281 -0.63702422 0.25006041 8
4.2125449 0.18385188 0.24627474 8.666667
4.0278602 -2.0165331 0.75399685 11
4.171927 -1.9369725 0.74301118 10.8
4.2240005 -0.63711274 0.49916321 10
4.077467 0.28514767 0.62136656 11
4.2383409 6.6953664 0.29958838 9
4.0206404 -1.9663428 1.0550879 13
4.2294054 -1.8995545 1.0415223 12.666667
4.3663969 6.8042078 0.51151252 10
4.0691986 8.5285845 0.33005428 10
4.0638852 -1.9682243 1.4190079 15
4.2100792 -1.885517 1.5053326 15
4.08358 8.5236273 0.95800442 11
4.0948963 8.5574245 1.5912181 13
4.6379895 -1.8166739 0.09870211 6.6666665
4.6422644 -1.8021028 0.34918514 8.2857141
4.4651518 -0.58712494 0.36902341 9
4.6735034 0.18141519 0.12268537 8
4.4325066 0.47387844 0.16182461 8
4.7328176 5.4284825 -0.020153102 8
4.4952559 6.5671067 -0.018236965 8
4.6139164 -1.819374 0.62826806 10
4.4419923 -0.61087841 0.49965054 10
4.6331129 5.7079697 0.26692095 9
4.5398121 6.6437054 0.32077053 9.5
4.6446071 8.7234163 0.2209564 9
4.5972323 -1.7811567 1.1308442 12.666667
4.4535556 6.5973139 0.50509816 10
4.7710829 8.7603054 0.55735165 10
4.5950804 -1.746062 1.5602603 14.8
4.6791749 8.7354193 0.9948439 11
4.7669382 8.7755489 1.1312301 12
4.6764259 8.7552557 2.3063138 15
4.9678025 -1.6951373 0.077507481 6.5
5.1158929 -0.37660733 0.054655988 7
4.9437962 -1.6806445 0.35655844 8.333333
4.8741245 -0.53977942 0.37145844 9
4.9010868 -0.18686403 0.077953562 7
4.951417 5.2290397 0.036153488 8
5.1359963 8.8056707 -0.10389996 8
5.0431113 -1.6251283 0.65407246 10
5.0255446 -0.52584136 0.51989126 9.75
4.9709349 5.3856921 0.30522659 9.1999998
4.9151244 8.7896223 0.10505828 8.5
4.9768114 -1.6225289 1.1525191 12.333333
4.849885 -1.6464614 1.5732259 15
4.9760375 8.80758 1.0077593 11
5.1519942 -1.5703033 1.7817706 15
5.1058044 8.8964977 1.141387 12
4.9383516 8.7378788 2.3166425 15
5.2739439 -1.6111134 0.1144968 7
5.4103847 -1.5482748 0.0067203962 6
5.2535753 1.3761495 -0.057133652 7
5.3830075 1.9415306 -0.078735754 7
5.2284837 -1.5882136 0.38792494 8.5
5.4691553 -1.5269274 0.36289912 8.1999998
5.2803478 1.4585755 -0.036005359 7
5.2961349 1.6942087 0.14307435 8
5.438786 2.3953021 -0.077523932 7
5.3727531 2.5634601 0.11262433 7.75
5.279942 5.1022639 -0.04227202 8
5.5528188 -1.4010717 0.77552849 10.333333
5.5095463 2.8305774 0.3735306 9
5.1990271 8.8178244 0.11576673 9
5.3930869 -1.5519766 1.1012902 12
5.5215268 -1.4483137 1.1102823 12
5.2710085 -1.5313565 1.6669199 15
5.4270539 -1.3654318 1.5829425 14
5.2835884 8.6863031 1.0098639 11
5.3625121 -1.5090224 1.8333449 15
5.3553686 8.5598888 1.6557072 13
5.4988604 6.4175868 2.160768 15
5.398345 8.5861683 1.9922341 14
5.6254458 1.0713848 -0.080803707 7
5.925653 2.1428542 -0.103093 7
5.8661566 2.4201727 -0.11832482 7
5.80441 -1.4136312 0.42690235 8.5
5.9324131 2.2172031 0.19908006 8.3999996
5.8202257 2.4498708 0.039794832 7.5
5.9927964 5.2066183 0.1112444 8
5.9259048 2.2389603 0.49679762 9.5
5.7286282 2.6236677 0.44605568 9.5
5.6503124 2.8910708 0.56468499 10
5.8253946 -1.3721302 1.2269516 12.5
5.9256401 2.2626691 0.89743507 11.6
5.7457471 2.6259203 0.89911956 11.6
5.6404538 2.9498391 0.82501853 11.5
5.9412737 2.2934427 1.3696486 13.5
5.7552104 2.663624 1.3332603 13.333333
5.6631179 2.9623318 1.4205123 14
5.6555099 -1.4153696 1.8299624 15
5.9080272 2.4038534 1.6286867 14.5
5.7586226 2.6550872 1.6041017 14.75
5.6699338 2.9320238 1.6288251 14.666667
5.726965 8.716259 1.6942912 13
5.840344 6.5078793 2.2152216 15
5.6713738 8.5506649 2.3271706 15
5.8963928 8.8193998 2.0885723 14
6.1677971 0.099831678 0.04505755 7
6.3380799 -0.44654414 0.37800097 8
6.2105532 -0.016529005 0.41374248 9
6.3226295 0.56694865 0.26332256 8
6.2708845 1.0322307 0.17296673 7.5
6.1850915 1.4156196 0.16659988 7.8571429
6.0735383 1.7754997 0.2089024 8.5
6.2503953 5.1008768 0.02315815 8
6.0556812 5.5093603 0.10862194 8
6.049509 6.7196403 -0.047462698 8
6.3574848 -0.50228792 0.55921376 9
6.307282 0.6331948 0.70820814 10
6.3265567 1.0261831 0.59741789 9.8000002
6.1908841 1.4386109 0.55159861 9.5
6.0785832 1.7970335 0.58752549 9.666667
5.9974999 2.0577521 0.64486408 10
6.3114033 5.1699405 0.38190377 9
6.3179851 1.0920917 1.0245041 11.5
6.2062612 1.441956 1.0260241 11.5
6.0517421 1.8984686 0.9616158 11.5
6.3288465 1.0986537 1.4275495 13.333333
6.1950183 1.5028037 1.3710556 13
6.0865502 1.8502753 1.3425424 13.166667
5.9996762 2.1427176 1.5144279 14
6.0536418 8.7389355 1.0604123 11
6.344234 1.1028954 1.8433683 15
6.1727967 1.6127186 1.697094 15
6.0905228 1.8654579 1.7698687 15
5.9856639 2.2097983 1.7356445 15
6.5223761 0.27553731 -0.083167508 6.5
6.4426794 0.63291103 -0.08033447 6.5
6.5187645 0.39730805 0.034677844 7
6.4623117 0.58791512 0.2091051 7.8000002
6.5473351 0.31982666 0.6639874 9.666667
6.4346614 0.67974538 0.55230677 9.333333
6.4241366 4.9522171 0.42366514 9
6.4157767 5.4301496 0.43875265 9
6.5925078 5.8455138 0.44779497 9
6.40418 7.0125775 0.087180562 8
6.768816 -0.35540488 0.96324164 11
6.7017531 -0.13329069 0.95821095 11
6.5879841 0.22417641 0.95039368 11
6.456182 0.64662391 1.0358231 11.5
6.7609525 -0.30271086 1.6154307 13
6.7014437 -0.086592332 1.474373 13
6.5885491 0.27335441 1.4326016 13
6.4573894 0.68465942 1.4255859 13.142858
6.7365375 -0.13183007 1.9505339 14.666667
6.5734849 0.38438547 1.8913648 14.666667
6.4727707 0.69020253 1.9173501 15
6.5310545 6.7973042 2.3471472 15
6.4223771 9.286356 2.179909 14
6.9846601 -1.0528874 -0.098778971 6
7.0124145 -1.2748538 0.38726363 8
7.0423651 -1.2785348 0.56062132 9
7.0609322 -1.255723 1.1849039 11.333333
6.9578104 -0.90122682 1.1795108 11.333333
6.8321381 -0.54413193 1.0492483 11
7.1783056 -1.3425264 1.5207688 12
6.9688139 -0.91843778 1.6641222 13
6.8153553 -0.43645662 1.6335742 13
6.9629259 -1.1333199 1.7746159 14
7.0024657 -0.95852214 1.8914654 14.333333
6.8461585 -0.44827044 1.8797567 14.333333
7.1395702 -1.2436535 2.3236682 15
6.982079 -0.89398336 2.2477152 15
7.1229248 5.1713285 2.3937843 15
7.1435885 7.801682 2.125838 14
7.3599172 7.7357678 -0.252334 7
7.2840714 -1.6432836 1.3396846 11
7.1960788 -1.4493647 1.3282963 12
7.277741 -1.5902064 1.3738132 12
7.453959 9.650444 0.98341006 11
7.2146626 -1.3378534 1.8158911 13
7.2281685 -1.5715165 2.3301685 15
7.1872306 -1.3892603 2.3135033 15
7.8619504 9.6878672 0.98424917 10
7.9626532 7.552 2.1354535 13.5
7.890317 7.9104958 2.1165459 13.333333
7.9434094 8.1602478 2.2422781 14
7.8443322 9.7829208 2.2769814 13
7.6018844 9.4059772 2.3457534 14
8.0924616 6.2499843 0.10335742 8
8.1414652 7.2931442 2.170871 14
8.0915651 7.5196152 2.1474669 13.5
8.1003275 9.6604872 2.2850688 13
8.2088337 9.6959257 2.4504149 14
8.7735195 6.4561386 0.42412996 9
8.4567461 9.9411774 0.99648184 10
8.4639616 9.9629812 1.3063796 11
8.6759453 10.038669 1.640316 12
8.7604237 7.4566998 2.0578132 13
8.4614267 9.6913986 2.4974825 14
8.668355 9.7968788 2.444942 13.5
9.0716515 6.3577452 0.41597924 9
8.8462038 8.2391424 0.4778353 9
8.9806604 10.075663 1.0010746 10
8.954566 10.070257 1.3471378 11
8.9295168 9.8591547 2.4804978 13
9.105711 8.0822506 2.8881874 15
8.8906708 8.4608727 2.9276302 15
9.4612951 6.15029 -0.42525432 7
9.4863396 5.9965615 0.024717338 8
9.4510574 6.1700821 -0.064540528 8
9.4485464 10.236292 1.3428054 11
9.3847637 8.2206421 1.8710157 12
9.4107161 10.346887 2.0998216 12
9.2168808 9.9511948 2.436398 13
9.5130796 6.1325698 2.9511538 15
9.5559063 7.7241421 2.8871148 15
9.3726883 7.9406209 2.8992479 15
9.6855783 5.9744678 -0.4466446 7
9.6424026 6.3274093 -0.33405238 7
9.9126024 5.9413333 0.00022015166 8
9.7831278 10.340443 1.1620967 10
9.6308441 8.056571 1.8715503 12
9.6846876 8.0783749 2.3351359 13
9.9532595 10.460822 2.1474464 12
9.6899366 8.0788784 2.5305591 14
9.69736 10.121944 2.4878216 13
9.9011984 5.773901 2.9585102 15
9.6851988 5.9425673 2.9484968 15
9.672348 10.115676 2.7126284 14
10.193452 10.47078 1.4559462 11
10.111211 5.5993004 2.967118 15
10.733335 10.706564 0.67725462 9
10.547503 10.587801 1.2781738 10.5
10.532777 10.578649 2.1976349 12
10.758887 8.5715609 2.7384546 14
10.68259 8.7329044 2.651118 13
10.710352 8.6051769 2.7961035 14
11.13727 7.4121375 -0.034346644 8
11.013149 10.732951 1.0329318 10
10.889832 10.698297 1.5166514 11
11.144762 7.3466878 2.7067299 14
11.068671 7.5663686 2.6493824 13.5
10.94171 7.9344587 2.5970774 13.25
10.837453 8.3047628 2.6152298 13.333333
10.978482 6.7700734 2.9352095 14
11.500079 10.967707 0.69549096 9
11.300566 10.835165 1.3175144 10.5
11.462389 6.1852856 2.9225724 14
11.439437 6.3223948 2.6865206 13
11.342301 6.7609262 2.6038239 13
11.24193 7.1406579 2.6433542 13.5
11.301149 6.4418225 2.9352603 14
11.605968 6.8968573 0.25200298 8
11.659134 10.961549 1.5841218 11
11.760778 10.794019 2.3034413 12
12.019928 7.0810924 -0.19826211 7
12.025074 11.06465 1.2518619 10
12.787788 11.152638 0.7239002 9
12.703054 11.308346 1.0208381 10
12.488395 11.227586 1.656299 11
13.177362 10.016199 0.721466 9
12.964073 10.947913 1.0389779 10
13.14253 10.168988 1.4764895 10
12.79778 11.229078 1.2794746 10
13.109321 10.38865 1.4881456 10
12.846534 11.111996 1.5925719 11
13.559202 8.9336357 0.90947264 9
13.440801 9.3227863 0.93336898 9
13.490258 9.1682081 1.4491248 10
13.3475 9.6492958 1.3404809 10
13.224596 9.9996719 1.4782565 10
13.231139 10.851641 1.7078762 11
13.203806 10.963108 1.5158541 10
13.772757 8.2636909 0.88389134 9
13.699584 8.5634623 0.88689172 9
13.759245 8.3155613 1.3291141 10
13.698604 8.5144653 1.4459907 10
13.730865 10.756741 1.7458088 11
14.367366 8.9447546 1.7878854 11
14.130506 9.7367363 1.841493 11
14.348797 10.243266 1.7831526 11
14.208621 10.623837 1.782306 11
14.690632 8.6131306 1.7772239 11
14.673057 9.512681 1.7940526 11
14.427027 9.8207989 1.779974 11
14.889366 8.6313534 1.4715251 10
14.979016 9.2443457 1.8140172 11
14.951061 11.413473 2.5888355 12
15.458097 8.6071396 1.8408216 11
15.466013 9.7305822 2.4611278 12
15.306252 10.37154 2.5120273 12
15.737981 8.443737 -0.25902933 7
15.900676 9.021637 -0.25455186 7
15.76001 8.4225445 0.18570819 8
15.755529 8.5142422 0.34635159 8
15.800721 8.9100142 0.19278011 8
15.911266 8.5655251 2.3843732 11
15.744869 8.9426146 2.4081316 11
15.641389 9.3563747 2.4396234 12
16.2773 8.7614202 0.92006886 9
16.18322 9.0843782 0.91172761 9
16.326298 8.6675396 1.5956771 10
16.18504 9.0646677 1.6028097 10
