# .PCD v0.7 - Point Cloud Data file format
VERSION 0.7
FIELDS x y z intensity
SIZE 4 4 4 4
TYPE F F F F
COUNT 1 1 1 1
WIDTH 550
HEIGHT 1
VIEWPOINT 0 0 0 1 0 0 0
POINTS 550
DATA ascii
-1.8281268 -0.84043479 0.33581111 11.666667
-1.7787529 -0.62179846 0.36492562 12.444445
-1.9179403 1.1407725 0.3207871 11.5
-1.9207171 1.3687395 0.32327199 11.333333
-1.9204109 1.8099016 0.32186496 11
-1.9232576 2.2157085 0.30006859 10.5
-1.9246855 2.5949392 0.28105864 10
-1.9217256 3.1120276 0.3059608 10
-1.923751 3.4406388 0.31620559 10
-1.8611104 -0.85644937 0.52164268 14
-1.8089216 -0.59150982 0.49110484 14
-1.8649344 -0.384776 0.42112711 13
-1.9157995 1.1494943 0.52504301 14.25
-1.917809 1.4187492 0.52108073 13.75
-1.9154577 1.7898259 0.55591077 13.555555
-1.9166889 2.2270749 0.56475526 13
-1.9205309 2.6140614 0.49521753 12
-1.9208004 3.0089593 0.51157659 11.6
-1.9223007 3.3811693 0.53047079 11.428572
-1.8270528 3.9026649 0.50725615 11
-1.9114549 2.2869663 0.76799947 15
-1.9106026 2.6078579 0.80016816 14.5
-1.9095703 3.0440652 0.90929151 14.6
-1.9155365 3.4365668 0.89299482 14
-1.8234866 3.8876562 0.93141067 13.875
-1.824219 3.9132755 1.1727196 15
-1.2972585 3.9159157 -0.17338407 6
-1.4759228 -0.59297341 0.35605562 13.333333
-1.2427399 -2.4101942 0.80722636 14.5
-1.4154123 -0.6037963 0.47606888 15
-1.4009631 4.0041652 0.48736531 11
-1.3941342 4.0131788 0.9561848 14
-1.5972418 4.0216761 0.99836868 14
-1.4142281 4.0197525 1.1685052 15
-0.88669711 0.98854566 -0.043299638 7
-0.95132327 1.3350265 -0.05896249 6.5
-0.98845327 1.7701128 -0.077646703 6
-0.94745058 2.255142 -0.098503388 6
-1.1760989 2.6460514 -0.12324633 6
-0.95130777 3.11182 -0.1432309 6
-0.83652419 -0.89040923 0.35653362 14.5
-1.0323893 -0.66213435 0.35761499 14.666667
-0.99942845 -2.4318295 0.76748002 14.5
-0.99149072 4.0053525 0.49016899 11
-0.85127091 4.0165572 0.63800472 12
-0.99305212 4.0149407 0.93870968 14
-1.1047293 4.0202746 1.1534547 15
-0.59490997 0.29667073 -0.010517519 7
-0.5368582 0.64120013 -0.027496537 6.5999999
-0.60230827 0.98654121 -0.035919216 7
-0.59512252 1.4315406 -0.05248956 7
-0.59199423 1.8203876 -0.070723832 7
-0.53454417 2.1304686 -0.082730182 7
-0.72728252 2.5832272 -0.10862165 6
-0.42236665 2.8213203 -0.11594223 6
-0.5917272 3.4415898 -0.17285921 6
-0.7457338 3.9551799 -0.16073525 6
-0.61927432 -2.4225991 0.37014267 10.5
-0.61939418 -1.7281569 0.35384002 11.875
-0.63695526 -1.3525254 0.36275771 13.5
-0.68535471 -1.0373416 0.34743702 14.2
-0.76607883 3.9403279 -0.054472432 7
-0.61665434 -2.4191375 0.65213591 13.666667
-0.62665331 -1.742619 0.48339882 13.666667
-0.58117706 -1.4645191 0.46614417 14.666667
-0.60534763 4.0088959 0.54756337 11.5
-0.47010779 4.0156751 0.59852028 12
-0.69367725 -3.0129988 0.97327751 15
-0.61110914 4.0168896 0.92577744 14
-0.63774616 4.0260472 0.9553377 14
-0.26619419 0.64301437 -0.034375113 6
-0.2192359 1.0472387 -0.043114565 6.1999998
-0.2043104 1.367761 -0.049467169 7
-0.21429615 1.7864463 -0.066282548 7
-0.25528058 2.2298462 -0.085748427 7
-0.18244973 2.5967805 -0.10395535 6
-0.061814513 2.9394119 -0.12147978 6
-0.13955268 3.4891105 -0.16576119 6
-0.2039654 3.9164329 -0.1832577 6
-0.17345844 -2.4337871 0.29323316 9.8571424
-0.16879247 -1.5154169 0.36347839 13
-0.25126469 3.9814608 -0.026550161 7
-0.18735398 -2.4217107 0.65583229 13.666667
-0.13933949 -1.5218649 0.46204564 15
-0.193023 4.0109653 0.61064261 12
-0.21714291 4.0185122 0.68173432 12.5
-0.34149536 4.0195379 0.95533001 14.5
-0.16060793 4.0246825 0.89359069 14
0.37261397 0.35769874 -0.035565387 5.5
0.28917393 0.547795 -0.0287183 6.3333335
0.2234073 0.99042499 -0.052139204 6
0.20662795 1.3548341 -0.055056643 6.25
0.22526787 1.8012996 -0.068626367 7
0.18891601 2.2298143 -0.082576156 7
0.32506931 2.73579 -0.11246316 6
0.31995872 3.1409295 -0.14232771 6
0.31288829 3.5576553 -0.16540881 6
0.3038125 3.9477258 -0.17666583 6
0.22788836 -2.4285996 0.31936374 10.125
0.14614329 -1.4128611 0.35960659 13.5
0.26459774 4.0101633 -0.019465901 7
0.19883245 -2.4274714 0.62554115 13.428572
0.030159969 -1.5072235 0.47153413 15
0.095727749 4.0110106 0.61877269 12
0.20903209 4.0193677 0.61233974 12
0.15905014 -2.8179202 0.89404982 15
0.36179483 -2.7584512 0.88406545 15
0.18296461 4.0303473 0.91125876 14.142858
0.44925645 -0.94369364 0.018007539 7
0.49775484 -0.56205595 -0.0015131823 6.75
0.56208634 -0.18596464 -0.02728672 5.6666665
0.57044065 0.016137857 -0.042680033 5
0.57141042 -2.4432249 0.31098327 10
0.62814665 -1.8324689 0.056835819 7
0.47864535 -1.4222337 0.049646534 7
0.49618888 -1.0074064 0.034044448 7.3333335
0.4283106 -0.66372406 0.015603703 7
0.7220118 -0.27092084 0.0073765884 7
0.5982753 -2.4182596 0.57442385 13
0.41772667 4.012579 0.60834807 12
0.59689039 4.0252943 0.58349752 11.571428
0.56764817 -2.9738758 0.91627401 15
0.61507177 4.0323009 0.93935162 14.166667
1.0007172 -0.10788865 -0.017950337 6.5
0.99033731 0.064795353 -0.032263272 6
0.96134561 -2.452801 0.30885881 9.875
0.8532148 -2.3411407 0.068844445 7
0.99739033 -2.4264143 0.59671319 12.75
1.0096492 4.0279083 0.52317524 11
0.8585642 -2.9581392 0.92661488 15
1.0139443 -2.5590758 0.87144709 15
1.0019891 4.0330944 0.94887358 14
1.4232446 0.1118165 -0.040488988 6
1.3775873 -2.4100437 0.32181486 10
1.4783859 -2.3885043 0.32424414 10
1.4138088 -2.4489977 0.6467678 13
1.5309962 -2.3817542 0.65965855 13
1.3436543 4.034173 0.55890143 11.2
1.4207669 -2.4078834 0.8895762 15
1.5162655 -2.3817031 0.89617175 15
1.3561573 4.0340066 0.99913478 14.2
1.7952771 -2.4336758 0.3054134 9.666667
1.641721 -2.3889968 0.3460387 10
1.8262488 -2.3980823 0.67826664 12.8
1.7341288 -2.3839002 0.5849449 12.333333
1.6196976 4.2692947 0.50426483 11
1.8529358 -2.3837652 0.94048971 15
1.6946003 -2.378902 0.91854548 15
2.1496243 -2.7900209 0.36766216 10
2.3751566 -1.6122123 0.32716233 10
2.3601141 -1.0977793 0.30825111 10
2.1701818 -1.6704599 0.57536691 12.5
2.1662393 -1.3717885 0.55302155 12.666667
2.2033987 -1.0478375 0.57522517 13.333333
2.4917014 -3.228502 0.13589378 8
2.6284933 -2.9898441 0.28384206 8.75
2.4881196 -1.2710063 0.20817535 9
2.6141064 -1.0461664 0.26967198 10
2.6518023 -3.0571613 0.68029684 11.333333
2.538125 -0.95726204 0.58157146 13
2.7294841 6.9839458 0.56354249 10
2.6421013 -3.0361843 1.0990289 14.2
2.7270105 6.9701686 0.87471586 10.5
2.7335384 6.9814177 1.2220579 12.5
2.7195666 6.9792318 1.5655457 13.5
2.7116001 6.995605 1.9847553 15
2.9735191 -2.9946356 0.34214455 9.1999998
3.0447419 -2.7521982 0.24552907 8.5
3.0197895 -1.3832042 0.13459991 8
3.0772734 -1.0024859 0.2390836 8.8000002
3.0254457 -3.0626917 0.68442422 11
3.1176155 -0.95716745 0.46545288 11
3.0414777 6.975379 0.47857398 9.333333
3.0071168 -3.0477402 1.1377497 14
3.0365071 6.9764738 0.83951581 10.5
3.067868 6.9891548 1.1884646 12
2.9883173 6.9819155 1.579106 13.5
3.0060999 7.0025444 1.9909502 15
3.4677508 -2.955178 0.15007293 7.5
3.2401655 -1.7789863 0.26443103 9
3.278146 -1.5221883 0.28181288 9
3.3204343 -0.98964131 0.25599796 9
3.376657 -3.0284965 0.69691133 11
3.3293078 6.984026 0.44423801 9.333333
3.4548309 -3.0024712 1.0894294 13.2
3.4415102 6.9834099 0.8810004 10.666667
3.4456806 -2.992882 1.2876902 14.666667
3.4245403 6.9858356 1.2487345 12
3.3278177 6.9860353 1.5896628 13.5
3.4116135 6.9631581 2.1221464 15
3.9502459 -3.0322063 0.016201843 7
3.8046181 -3.0219028 0.20955651 7.8571429
3.7924993 -1.7991331 0.25441077 8.666667
3.6126342 -1.5675873 0.092828475 7.5
3.8447661 -0.95341295 0.27096292 9
3.7975461 -3.0115268 0.65104783 10.75
3.8751104 -0.93337542 0.42404661 10
3.7932291 6.9795523 0.49768341 9.25
3.7759988 -3.0193379 1.0868098 13
3.8641672 6.9801264 0.76338553 10.333333
3.8137276 -2.9970634 1.3557317 14.5
3.850533 6.9858356 1.1619322 11.333333
3.7603207 6.9890299 1.6253493 13.5
3.8852828 6.9496317 2.1405158 15
4.1132369 -2.9215448 0.015192015 7
4.1295915 -2.968142 0.22995347 8
4.0816693 -1.7821764 0.31453684 9
4.2161198 -1.4020146 0.085712075 7
4.2354565 6.9825706 0.22659896 8
4.0921321 -2.9543905 0.72896749 11
4.1031814 -1.7856057 0.44433773 10
4.1631169 -0.89902192 0.53297907 10
4.1761465 6.9855375 0.50846457 9.333333
4.2946439 -2.957705 0.88623321 11.666667
4.3385744 6.3392973 1.0315838 11
4.2919946 6.9901433 0.70371455 10
4.0648546 -2.9611831 1.4083316 14.666667
4.1884108 6.9917212 1.2042391 11.5
4.1741967 6.9893622 1.6474549 13.5
4.3122854 6.9352717 2.1604812 14.666667
4.5822434 -3.0036972 0.017990489 7
4.7711458 -1.7812785 0.029650867 7
4.5898466 -3.0045061 0.25893813 8.166667
4.6630068 -1.8394606 0.3049044 8.333333
4.4620924 -0.99084443 0.1549412 8
4.5689545 6.9807563 0.19975534 8
4.4832711 -2.9708507 0.57380676 10
4.7911897 -1.8681376 0.47622305 9
4.6341195 -0.9136104 0.55861264 10
4.4065461 6.2906408 0.64381289 10
4.6308126 6.9621754 0.48783028 9
4.6698155 -2.9665883 0.93597931 11.5
4.4095788 6.2710438 1.0207331 11
4.5324941 6.9824004 0.68080902 10
4.5428615 -2.9790046 1.480708 14.4
4.5866199 6.1904655 1.4397794 13
4.5875368 6.9904718 1.213249 11.5
4.6171346 6.1556931 1.5915703 13.25
4.5933261 6.9825926 1.6865627 13.25
4.673665 6.3219256 2.1202266 15
4.6166158 6.9583969 2.1471889 14.5
4.8902426 -2.9881501 0.018512303 7
4.9988666 -2.9930532 0.3088553 8.3999996
4.8381767 -1.8084333 0.38168994 9
4.9170933 -1.0617547 0.090525895 7
4.9892797 -2.9865439 0.47492766 9
5.0547175 4.2142501 0.69542909 10
5.0756617 4.8627172 0.65273184 10
5.1145158 6.4148755 0.3968845 9
4.8739872 6.8751116 0.50272053 9
5.0013199 -2.9669342 0.98742038 11.5
5.0917912 3.5271823 0.91314918 12
5.1027312 4.2197618 0.86146349 11.333333
5.1260037 5.0109186 0.89601237 11
5.1085982 5.9876137 0.98127592 11
5.06459 6.0917902 0.97963631 11
5.0735559 6.5382648 1.0021675 11
5.0430231 6.8700562 0.9303239 10.5
4.9683676 -2.9835215 1.5478034 14.25
5.0887265 4.6602354 1.2505516 13
5.0707035 5.0374203 1.3344963 12.666667
5.1526299 5.9434915 1.3170481 12.5
5.0406075 6.1180606 1.2244669 12
5.099565 6.4892116 1.0706246 11
4.9980435 6.8963251 1.200281 11.5
4.9373817 -2.9667311 1.7442011 15
5.1517153 5.0766678 1.5132806 13
5.1046667 5.7972708 1.6185005 13
5.1767931 4.6096044 1.9982159 15
4.8056087 6.9378633 2.0411026 14
4.8836269 6.9496136 2.2754273 15
5.4742618 -0.17289439 -0.029184522 7
5.5559897 0.11517552 -0.010438474 7
5.5509996 0.20557694 0.19105579 8
5.205657 4.4501786 0.1853575 8
5.2198219 -2.9538319 1.022378 11.5
5.2787285 4.2885995 0.89680529 11
5.289371 -2.9474998 1.622479 14
5.3003783 -2.9556568 1.7141212 15
5.9488072 -1.8119984 -0.060960505 6.6666665
5.6860423 -0.60134125 -0.081087537 7
5.953198 -2.1325278 0.31702477 8.5
5.9411621 -1.6892399 0.31277454 8.333333
5.8999372 0.788396 0.011116937 7
5.878592 0.98680538 0.053736858 7.3333335
5.8895102 -2.1909833 0.78265685 10
5.8109846 7.0200162 0.61209589 9.5
5.9416218 -3.0628245 0.87468737 11
5.8199034 -3.0880029 1.8822416 15
5.6915841 6.9932547 1.7892847 13
5.6316075 7.0182304 2.1023281 14
6.3049827 -1.4130057 -0.08051832 6.5
6.3650742 -1.0952742 -0.17626238 6
6.31603 -0.48581693 -0.12034516 6
6.2730093 -0.11059022 -0.0034296089 7
6.3034701 0.3211582 -0.054731842 7
6.3277779 0.61661971 -0.076446049 6.6666665
6.2857723 -3.1276882 0.24914879 8
6.3001366 -1.3590572 0.32766637 8.333333
6.3496637 -1.0220526 0.17995799 7.5999999
6.3419685 -0.57896495 0.2725344 8.1999998
6.3368363 -0.18699047 0.26419139 8.3999996
6.3279967 0.19613634 0.14783247 8
6.2952194 0.59186912 0.20624703 8
6.1494303 1.0974278 0.22741356 8
6.3237228 3.6044867 0.16099787 8
6.2222009 3.7859476 0.064833477 7.5
6.1746039 5.0849581 0.16633101 7.6666665
6.2832975 -3.1057436 0.57243633 9
6.3642449 -2.1895032 0.83689868 10
6.359199 -1.7257184 0.73151863 10
6.3486509 -1.4052213 0.46106425 9
6.3536682 -0.97623402 0.58728701 9.5
6.351933 -0.578309 0.65060794 9.666667
6.3441486 -0.18413466 0.60401088 9.666667
6.3373179 0.20600337 0.60017669 10
6.3070807 0.62099636 0.58083576 9.833333
6.2377152 1.0191518 0.58288157 9.666667
6.3392301 3.77917 0.41915676 9
6.1407032 4.1532393 0.4520542 9
6.2443061 5.048152 0.54788941 9.333333
6.1021218 5.2227526 0.5152781 9
6.1809812 7.0005422 0.54077148 9
6.3637037 -2.9631662 1.095208 11.25
6.3734937 -2.5492058 1.0692638 11.4
6.3702693 -2.2353308 1.0841655 11.4
6.3702307 -1.7775174 1.063637 11.5
6.3672013 -1.4102669 1.0663642 11.4
6.3628979 -0.99807686 1.02001 11.4
6.3572507 -0.5791961 0.96185511 11.5
6.3580136 -0.17401212 1.0078537 11.5
6.3548965 0.27031356 1.0401371 11.666667
6.3169055 0.63163674 0.98619634 11.5
6.2701244 1.007135 0.97223979 11.5
6.2564964 7.0157752 0.7436198 10
6.3873668 -3.0024378 1.5294533 13
6.3813181 -2.6471143 1.2825805 12
6.378294 -2.1922562 1.422278 12.75
6.3747568 -1.7564652 1.4028895 12.8
6.3732228 -1.4085411 1.3285358 12.5
6.370997 -0.9765048 1.4441934 13.4
6.3659968 -0.56094277 1.4397498 13.5
6.3605895 -0.16862488 1.4326637 13.5
6.3570981 0.19427672 1.3851589 13.25
6.3311191 0.59962332 1.3611063 13.333333
6.2798295 1.0536151 1.3860247 13.2
6.3325276 7.0535979 1.1560893 11
6.3122315 -3.006146 1.9082202 14.5
6.3814549 -2.5624447 1.8601655 14.4
6.3764424 -2.117039 1.7907146 14.5
6.3776665 -1.7540861 1.8268795 14.5
6.3766727 -1.3468512 1.7962435 14.5
6.3745995 -0.95214891 1.7971424 14.5
6.3705258 -0.5034321 1.8483317 15
6.369421 -0.17635453 1.9132786 15
6.3656273 0.25964436 1.811904 14.666667
6.3239226 0.6815691 1.7515861 14.666667
6.292058 1.0510734 1.7397926 15
6.2780409 1.2456682 1.7200563 15
6.3880715 7.026196 1.6764398 12.5
6.3884211 -3.0229273 2.1665757 15
6.5627151 3.4262416 -0.10658492 7
6.5986915 3.7436123 -0.09445253 7
6.474328 -3.6668315 0.40476409 8
6.4972343 3.4435534 0.14237854 8
6.4037361 3.6721587 0.388854 9
6.5137081 4.1303835 0.48490983 9
6.4524894 6.9752913 0.62264103 9
6.4861264 -3.4489319 1.1956159 11.5
6.7977219 4.2619543 0.79250067 10
6.40452 6.9953923 1.0145899 11
6.4995279 6.9905252 1.1035383 11
6.5044365 -3.48034 1.9067678 14
6.5105824 7.0008831 1.7839439 13
6.9517202 3.3233356 -0.15258619 7
7.1904335 7.0091734 -0.027278718 7
6.8596101 5.35988 0.50630862 9
7.0689735 7.002851 0.45298597 8.5
7.1126423 6.9575567 2.4689784 14
6.9506741 6.7991376 2.6963596 15
7.5377207 3.3167164 -0.15129088 7
7.4725204 3.0422595 0.18633415 7.75
7.3489637 3.5756865 0.01757906 7.5
7.4067831 6.9783468 0.14046729 7.6666665
7.4567652 3.2651732 0.339021 8
7.4769688 7.0081077 0.39568809 8.5
7.5575447 6.7018495 1.0363902 10
7.5665731 6.672401 1.3409705 11
7.4477816 7.0178661 1.1700034 10.75
7.3738227 4.5273967 2.2792342 15
7.3546495 6.8733964 2.4766212 14
7.2566776 6.7876196 2.7313597 15
7.7227335 3.0537417 -0.24996057 6
7.6007233 3.2073658 -0.22855926 6
7.6157908 2.9059772 0.30309173 8
7.6602993 3.0891957 0.58647233 9
7.7607384 3.6085851 0.35222563 8
7.6105514 6.6129971 1.0204661 10
7.667604 6.6594787 1.7115141 12
7.6976304 6.5992851 1.9718142 13
7.9329243 3.5145962 2.5286579 15
7.9568825 4.0351024 2.5294449 15
7.8718662 4.2455454 2.5404444 15
7.9643464 4.593967 2.6441152 15
7.9748244 4.9487481 2.7192848 15
8.0824823 6.6604877 0.21414819 8
8.2211084 6.6482306 1.7590815 12
8.1416302 6.6736512 2.032474 13
8.2280531 1.9006695 2.5180075 15
8.143981 2.7464435 2.4518335 15
8.1514597 3.0641105 2.5011828 15
8.2909184 3.557013 2.4966872 15
8.1129026 3.7922754 2.5106788 15
7.9998755 4.1114249 2.5199876 15
8.0016794 6.5014038 2.468513 14
8.455636 6.6191487 2.0651858 13
8.425992 2.6245747 2.4948969 15
8.4209309 3.4008026 2.491106 15
8.4796333 6.8791556 2.2791133 13
9.4577608 3.2828462 0.29940352 8
9.3248224 4.5285482 2.2691243 13
9.9264526 6.6950603 -0.1101866 7
9.9394264 7.0480018 -0.091983125 7
9.9187498 5.3084054 2.1490638 13
9.998826 4.5764651 2.3632984 13
9.9167891 5.0996499 2.437727 13
10.382212 3.3482382 -0.24839142 6.5
10.338683 3.6031122 -0.33495933 6
10.331443 7.0109205 0.078136683 8
10.32854 7.0131245 1.2722809 10
10.198763 5.1484261 2.1511323 13
10.546295 4.7099409 2.1394184 12.5
10.439976 2.8069274 2.4516447 14
11.106736 3.0444622 -0.22506352 7
10.835771 3.0486252 0.1854115 8
11.110828 2.676806 0.53713942 9
10.949537 7.0881009 1.2968065 10
11.063097 7.0350842 1.9879507 11.5
10.96215 6.8409004 2.4474199 13
11.167617 7.0936046 2.2872486 12
11.010033 2.7294183 3.0614071 15
11.147936 3.9485989 3.0853105 15
10.96492 4.1492834 3.0883079 15
10.992785 5.7799525 3.0423141 14
10.904766 6.0466151 3.079035 14
11.281753 2.8062639 -0.25492591 7
11.295755 3.8024104 0.74815714 9
11.512654 6.8844786 2.5497136 13
11.211061 2.3692808 3.0600519 15
11.438951 3.774591 3.1070805 14
11.512815 5.4130239 3.0538182 14
11.330687 6.8573046 2.911823 14
11.63077 3.6082056 0.73071897 9
11.800555 7.0540423 1.4872868 10
11.713589 7.0571256 1.9086922 11
11.600815 4.9877477 2.633414 13
11.683622 7.0684724 2.3279037 12
11.913019 2.8813832 3.0448632 14
11.751341 5.0530386 3.0258431 14
11.875694 6.8183436 2.9701872 13
12.035542 7.0563478 1.3236834 10
12.212093 7.0497041 1.9631792 11
12.19963 7.0177674 2.362987 12
12.238039 2.643347 3.0687704 14
12.269865 4.7961621 3.0624213 14
12.70154 7.0765014 1.3437282 10
12.442556 7.0581741 1.5067368 10
12.78196 2.8783593 2.3319471 12
12.560973 2.839437 2.4496791 13
12.791899 3.805737 2.5050712 12.5
12.778886 4.1470356 2.6597958 13
12.786799 5.0408759 2.4848561 12
12.485734 5.6582699 2.290343 12
12.743643 6.9129839 2.4213023 12
12.786985 3.1224489 2.8759308 13
12.783923 4.0378852 3.0177119 14
12.667904 4.3126063 3.0441859 14
12.633862 4.6850438 2.9075656 13.5
12.795815 5.1518269 2.8125196 13
12.422704 6.7563977 3.0272586 13
12.90167 3.8878014 -0.22029614 7
12.844699 3.9237227 0.16921538 8
12.883773 3.4228292 0.57539278 8
13.175557 7.0781341 1.5287664 10
13.024593 7.0718589 1.9834114 11
12.802951 3.2021487 2.531148 13
12.805922 3.4992661 2.4744267 12.5
13.165836 4.4333353 2.3597569 12
12.894816 4.6860523 2.3649504 12
12.80577 5.3571005 2.4481339 12
12.809659 6.6458712 2.3639367 12
12.800862 4.4834604 2.7125266 13
13.302517 7.0941582 1.0570085 9
13.79573 3.9935572 0.61730123 8
13.812748 3.922714 0.76297414 9
13.976558 7.0939207 1.5523823 10
13.754599 7.0738091 2.024745 11
14.142711 3.151372 -0.44780418 6
14.274501 7.102294 0.87583202 9
14.122028 7.0895 1.2197794 9.5
14.213801 4.5976958 2.0836453 11
14.318774 4.9995027 2.1358712 11
14.10464 6.8488631 2.3248222 12
14.546429 8.0735722 0.95181787 9
14.5456 7.0724792 2.0687602 11
14.996515 7.102355 1.0566705 9
14.853558 7.1124992 1.5782806 10
15.559624 5.6356139 0.92101967 9
15.440013 7.0145755 0.924743 9
15.587798 3.7995777 1.2519907 9
15.589771 4.1806774 1.2900954 9
15.591727 4.6234679 1.1936705 9
15.578706 4.9756622 1.2997379 9.5
15.579685 5.3621864 1.4142616 10
15.577649 5.7618418 1.3773407 9.5
15.569555 6.9527516 1.4074755 10
15.575825 3.9883416 1.756274 10
15.587626 6.1758294 1.4986296 10
15.570565 7.0199189 1.590064 10
15.550601 7.1295776 2.1316631 11
15.600741 4.5705347 1.3310851 10
15.609797 4.3735242 1.8038287 10
15.77459 6.674459 1.5575141 10
15.601927 3.0940092 2.1371832 11
16.353802 4.4533873 1.9102358 10
16.278732 5.3578701 1.96048 10
16.233677 6.1635494 2.0541062 11
16.275618 7.0466514 2.2177749 11
17.144684 3.9566042 -0.0057666679 7
16.850817 3.8148072 1.5026362 10
16.887835 3.9210846 1.8268147 10
17.519669 3.4525394 -0.6833117 6
17.47871 3.6771262 0.050677888 7
17.549807 5.4363956 2.9651632 12
17.707888 3.9014564 2.4257603 11
17.66386 4.2947912 2.4721274 11
17.67683 4.7054453 2.5262511 11
17.6828 5.1200781 2.5807734 11
17.732775 5.5619802 2.6440477 11
17.729935 3.6869328 2.7721336 12
17.723902 4.1310177 2.8235722 12
17.67787 4.5684338 2.8713317 12
17.655838 5.0124183 2.9237661 12
17.60078 5.6733165 2.8571944 12
17.66671 6.3968115 2.7476256 11
18.163763 3.7717187 0.75853968 8
18.16123 4.13237 0.75992829 8
18.144823 3.5380898 1.3060136 9
18.133297 3.8293855 1.2572542 9
18.125854 3.7836707 1.8853227 10
