# .PCD v0.7 - Point Cloud Data file format
VERSION 0.7
FIELDS x y z intensity
SIZE 4 4 4 4
TYPE F F F F
COUNT 1 1 1 1
WIDTH 100
HEIGHT 1
VIEWPOINT 0 0 0 1 0 0 0
POINTS 100
DATA ascii
-2.2679527 -0.88024741 0.3019664 10.5
-2.2499702 -0.5156619 0.35697982 11
-2.323091 1.9872822 0.38147831 11
-2.3311136 2.4492884 0.34765825 10
-2.3371449 3.0894179 0.33607784 9.5
-2.2639685 -0.51598567 0.47221524 12.5
-2.3160727 1.6619442 0.57315505 13
-2.3231237 2.6925523 0.51087284 11.5
-2.3321474 3.171479 0.48304898 11
-2.3141842 3.9463172 0.4861384 10.5
-2.3040702 1.6650919 0.75372928 15
-2.3120863 1.9779882 0.70356286 14
-2.3110919 2.0940924 0.67479122 13
-2.3181102 2.493577 0.7716198 14
-2.3261497 3.2651834 0.62080431 12
-2.3131297 2.9009702 0.79184866 13
-2.3221405 3.1534214 0.89774138 14
-2.3026793 3.9657626 0.89865136 12.5
-2.245177 3.9797409 1.1418966 14
-2.2931752 3.9774396 1.26546 15
-2.0041885 3.9865499 0.36547416 9
-2.0419641 -0.55684304 0.63306618 15
-1.5289617 -0.67757261 0.3773863 13.5
-1.520961 -0.66710377 0.45612413 15
-1.4641845 3.9826674 0.64992201 12
-1.5351779 3.991626 1.1352121 15
-1.2269496 -0.94022691 0.34631008 13.5
-1.2449626 -0.66659451 0.33939523 14
-1.2259514 -0.87755281 0.43062019 15
-1.217962 -0.65990102 0.41165283 15
-1.0589203 -1.5576915 0.27998513 11
-1.0309416 -1.1242832 0.26699823 12
-1.0499482 -0.96346664 0.32548061 13.5
-1.1959633 -0.67702997 0.30797729 13
-1.0619483 -0.94374895 0.41989303 15
-0.96787137 -2.4275947 0.77373517 15
-0.70218694 3.9875035 0.47026181 10
-0.4351708 0.98637497 -0.015685674 7
-0.41687837 -2.4563413 0.19049166 9
0.12112068 -2.4349465 0.1798833 9
0.72812158 -2.4522653 0.18188298 9
0.70114136 3.986985 0.059250876 8
0.65372777 3.9922733 0.22046837 9
0.7161237 -2.4329298 0.41367212 12
0.61112761 -2.4319928 0.69969994 15
0.96812505 -2.4564576 0.41696966 11
1.0821195 -2.4105036 0.16056065 9
1.0291201 -2.4035146 0.23889476 10
1.0196232 -2.39885 0.48860818 12.5
1.071812 4.0096054 0.4627319 10
1.0761247 -2.392555 0.63783497 14
1.036815 4.0041771 0.67804855 11.5
1.0628179 4.0113864 0.905909 13
1.1123205 4.014442 1.1045934 14.5
1.5661196 -2.4131603 0.16628256 9
1.5021216 -2.4171965 0.30474547 10
1.5661241 -2.4065967 0.52511352 12
1.5341259 -2.4039943 0.67575818 14
1.5251285 -2.4061134 0.84967929 15
1.8550563 -1.0165889 0.50196689 14
2.1521382 -2.8129468 0.13283294 8
2.0900643 -1.2521044 0.24199459 10
2.193054 -0.9670915 0.50067335 13
2.546155 -3.0519109 0.49513054 10.5
2.6011341 -2.7168059 0.14602624 8
2.7501607 -3.1049154 0.73007441 12
2.7671652 -3.0708845 1.1729773 15
2.7316778 6.9665108 1.1460905 12
2.7846866 6.9675593 1.7945579 14
2.9871535 -3.0245843 0.48974478 10
3.1316724 6.9664521 0.75747079 10
3.1796744 6.9706206 0.9119876 11
3.0416822 6.9647632 1.4640137 13
3.2456696 6.9682088 0.5694108 9
3.3611631 -3.0046129 1.2612181 15
3.4466989 6.8528748 2.2785323 15
3.6711464 -2.9828203 0.13115542 8
3.7756667 6.9771008 0.37210581 8
3.6116881 6.9699197 1.9216667 14
4.2836676 6.9828415 0.50464815 9
4.7057323 5.8299637 1.1376141 11
5.1379933 0.13765544 0.023120558 7
5.5139637 0.74146909 -0.009305032 7
5.6978006 4.1885495 0.28513744 8
5.8499594 0.88584322 0.17763089 8
5.8559651 0.81959707 0.36623725 9
5.8609729 0.71232605 0.54402876 10
5.9720931 -1.7066476 0.76689458 11
5.8229532 1.1820209 0.77285892 11
5.9741364 -2.5738804 0.83107531 11
5.9354 -0.99558353 0.89210135 11
5.9459815 0.62220651 0.88590151 11
5.968987 0.59095365 1.1198566 12
5.888978 0.78143126 1.1440389 13
5.9357119 -0.30462426 1.5731475 14
5.8999777 0.86409879 1.471792 14
5.9614367 -1.0647879 1.766458 15
5.9328589 -0.31202465 1.7600089 15
5.9169831 0.85055387 1.804456 15
6.0201411 -2.350239 1.9544576 15
