# .PCD v0.7 - Point Cloud Data file format
VERSION 0.7
FIELDS x y z intensity
SIZE 4 4 4 4
TYPE F F F F
COUNT 1 1 1 1
WIDTH 617
HEIGHT 1
VIEWPOINT 0 0 0 1 0 0 0
POINTS 617
DATA ascii
-2.6346796 -0.82561719 0.33130187 10
-2.5770071 -0.66719353 0.35019234 10.75
-2.702831 1.562197 0.27126586 10
-2.699949 1.8066486 0.23533401 10
-2.6941814 2.2267308 0.2482352 10
-2.6928575 2.6016395 0.26960656 10
-2.6966095 3.0123065 0.21207388 9.5
-2.6942165 3.4228101 0.21739425 9.5
-2.6419787 3.8852997 0.16856878 9
-2.4550064 4.0085278 0.18894589 9
-2.6272948 -0.86699873 0.67935675 13.8
-2.5867395 -0.66534376 0.58342665 12.857142
-2.6899595 1.5595756 0.53024656 12.5
-2.6932998 1.8044165 0.54876077 12.5
-2.6874697 2.2128127 0.5044477 11.777778
-2.6870275 2.5871546 0.51885754 11.571428
-2.6919785 3.033494 0.52248043 11.5
-2.6884153 3.3991361 0.50061625 11
-2.6129551 3.8686845 0.43588507 10.75
-2.4119103 4.0175486 0.50696385 11
-2.6836495 1.5425419 0.84526062 15
-2.6864114 1.860588 0.81149119 14.666667
-2.6743193 2.1965091 0.85864019 14.6
-2.6723371 2.6012523 0.88019127 14.333333
-2.6767511 3.0498984 0.88833243 14
-2.6696353 3.4302588 0.89537674 13.714286
-2.5919986 3.8934703 0.83536655 12.888889
-2.6464865 3.1094043 1.1033316 15
-2.6565859 3.5092113 1.1231449 15
-2.607455 3.8993101 1.1633289 15
-2.209723 -0.61024082 0.37456012 11.5
-2.2529988 4.0033765 0.20799954 9
-2.0669961 4.0124307 0.2253035 9
-2.0771184 -2.4137354 0.78317404 13
-2.1878874 -2.3359573 0.78883654 13
-2.2176857 -0.94363815 0.75014341 15
-2.3208568 -0.58052468 0.61595464 13.8
-2.1908221 4.0079865 0.47981781 11
-2.1886308 4.0178714 0.8745991 13.166667
-2.2212136 4.0192442 1.1492995 15
-1.6062375 -2.4089217 0.400956 10
-1.6262177 -0.8603676 0.3558082 12
-1.7848167 -0.68073094 0.34789619 12
-1.8244873 4.0065284 0.24728899 9.5
-1.7372084 -2.4582336 0.81426162 13.666667
-1.7604604 -1.2552428 0.67072386 15
-1.7533791 -0.92640364 0.57020921 14.4
-1.787032 -0.66215295 0.49849492 14
-1.8085374 4.0051932 0.47153851 11
-1.6248622 -3.0026672 1.1093949 15
-1.7542614 4.0099392 0.80498618 13.333333
-1.7852299 4.0190501 1.0959313 15
-1.3392965 -2.4351854 0.40312874 10.2
-1.4563409 -2.0585437 0.36715198 10.5
-1.4507687 -1.7772604 0.35708225 10.8
-1.4176359 -1.4030252 0.36043042 11.5
-1.4778216 -1.0278412 0.3643049 12.2
-1.5876844 -0.7794717 0.35436326 12
-1.5929809 4.0047832 0.26763812 10
-1.4236802 -2.4376173 0.72467655 13.4
-1.4492927 -2.0348222 0.5444299 12.5
-1.4550231 -1.748934 0.58383441 13.666667
-1.4328042 -1.3638619 0.57603252 14.285714
-1.4783394 -0.98600888 0.50584888 14.2
-1.4052335 4.0061197 0.45283118 11
-1.510366 -3.0045226 1.0966439 15
-1.3732625 4.0148253 0.87869465 13.8
-1.4562356 4.0223126 1.0797976 15
-1.0058126 -2.4422493 0.361047 9.8571424
-1.0064849 -1.3799694 0.34877312 12
-0.82098883 -1.0015844 0.038251642 7
-0.82319403 -0.48392275 0.022932678 7
-0.9811489 -2.4398546 0.64442414 13
-0.915106 -1.405931 0.47415134 14
-1.0259753 4.0044212 0.43968409 11
-1.0249023 -2.9581456 1.0175411 15
-0.85600567 -2.6652319 0.93419623 15
-1.0188924 4.0126648 0.8782832 14
-0.68774569 -2.0249639 0.053997356 7
-0.54575986 -1.7563733 0.047597803 7
-0.54314208 -0.30681053 0.0071024303 7
-0.60105199 -2.4466462 0.32806897 9.75
-0.61087501 -1.3495817 0.30203289 11.8
-0.62152219 -0.99246544 0.038620893 7
-0.58389324 -0.61838812 0.025672784 7
-0.58062565 -0.27713642 0.013832387 7
-0.59130275 -2.4401011 0.61308271 13
-0.64708978 -1.4238751 0.51175296 15
-0.62517548 4.006814 0.44870275 11
-0.44593143 4.0160933 0.43791947 11
-0.61152476 -2.8345971 0.94285768 15
-0.47297984 -2.7629564 0.93345529 15
-0.58904183 4.0128517 0.85597396 14
-0.039001059 -1.8658478 0.042319834 7
-0.095985912 -1.2836058 0.037909355 7
-0.11336124 -0.95231026 0.021083165 7
-0.18624817 -0.60946804 0.0058635827 6.5
-0.17193054 -2.4440479 0.34630466 10.125
-0.29780295 -1.2826622 0.044208948 7
-0.26199239 -1.0537691 0.041145295 7
-0.28258851 -0.42407808 0.021253506 7
-0.19181207 -2.4776249 0.66693497 13.555555
-0.17247567 4.0054598 0.50210863 11.8
-0.1929028 -3.0083318 0.97301835 15
-0.20903222 4.0178137 0.85693574 14
0.23854962 -1.6306473 0.033238288 7
0.16941498 -1.3801777 0.027538953 7
0.16963053 -0.95387471 0.008023669 6.4000001
0.24250512 -0.55045241 -0.0062535987 6
0.35818511 -0.36265311 -0.023346012 5
0.36101907 0.41701859 -0.055385672 5
0.31676891 0.87779611 -0.054989949 6
0.21869951 1.932245 -0.068078458 7
0.19157164 2.2696638 -0.086717524 7
0.16691355 2.5529451 -0.095964998 7
0.17516938 -2.4441485 0.33900532 10
0.20824748 -2.4340134 0.64894533 13.5
0.20372824 4.0059915 0.54139841 12
0.18996483 4.0158324 0.87957191 14
0.47727957 -2.1327951 0.031415809 7
0.4644545 -1.8177441 0.024236802 7
0.44108936 -1.2671349 0.014900409 7
0.41486797 -0.56732404 -0.0094071785 6
0.52594888 -0.17206696 -0.041117609 5
0.5853079 0.17919558 -0.059317693 4.4545455
0.56224519 0.50886327 -0.063671418 5
0.59635019 1.0202261 -0.065111212 6
0.78167152 1.2059152 -0.071246386 6
0.62645215 1.7887794 -0.075637996 7
0.64013135 2.2571805 -0.0922281 7
0.50524485 2.6136723 -0.10013824 7
0.53061175 3.1011391 -0.12881987 7
0.55086541 3.506675 -0.14982378 7
0.57401174 3.98822 -0.17172666 7
0.59110254 4.4227734 -0.17874144 7
0.68715233 6.7654929 -0.2296181 7
0.59968531 -2.4305332 0.33956665 10
0.47886071 4.007339 0.15014327 9
0.60356462 -2.4209149 0.64873528 13.5
0.55131644 4.0047398 0.52922893 11.8
0.58485156 4.0136051 0.88158685 14
1.0041032 0.19039571 -0.046314273 6
1.1731445 0.40965804 -0.06199789 6
0.96893597 1.4332432 -0.079617895 6.5
1.0471673 1.6532176 -0.086977683 7
1.0749806 2.120369 -0.10051338 7
0.84256381 2.5056827 -0.10964647 7
0.94663 3.0908847 -0.12604226 7
1.0013679 3.4003689 -0.13372298 7
1.0791547 3.8314698 -0.14951313 7
1.0003018 -2.4289188 0.33362329 9.8571424
0.9780975 -2.4161162 0.6711573 13.5
0.90849543 4.3773718 0.51109558 11.5
1.0078251 4.5271478 0.4935686 11.25
1.376533 0.21658595 -0.06269037 6
1.3302903 0.60204488 -0.069128238 6
1.4673263 0.97976035 -0.079366222 6
1.393746 1.3382832 -0.08772245 6
1.3242712 1.7660987 -0.099575378 6.3333335
1.4943362 2.3245785 -0.12270722 7
1.2351301 2.6132159 -0.12307296 7
1.3649698 3.0155499 -0.13856713 7
1.2572234 4.7718596 -0.21171127 7
1.5443571 -3.0952709 0.38687924 9.5
1.5895649 -1.6278473 0.43185541 12
1.5719055 -1.1385105 0.33611131 11.5
1.5533621 -3.0797517 0.68808246 12
1.3604484 -1.6686717 0.55983114 13.5
1.408671 -1.4175067 0.55262941 14.166667
1.4799725 -1.0843103 0.53362393 14.25
1.495832 6.9060292 0.19551051 9
1.5474648 -3.0581493 1.0415299 14.666667
1.5623488 6.9454684 0.62513638 10
1.4986961 6.9489617 1.2152612 12.666667
1.4948791 6.9646959 1.5537157 14.5
1.557712 6.9565001 1.8167461 15
1.7117747 0.63177216 -0.076662786 6
1.8424994 1.0138638 -0.093421638 6
1.8321851 1.3057806 -0.10293623 6
1.7869211 1.7974373 -0.11396512 6
1.7963183 2.169081 -0.12721552 6
1.603183 2.5526426 -0.13471103 7
1.8839135 3.1425881 -0.16310979 7
1.7033458 4.0600319 -0.18303327 7
1.6382215 6.8692856 -0.29690918 7
1.8032709 -3.0672188 0.33362123 9
1.7313956 -1.2011019 0.2497068 10
1.7966161 -1.0871965 0.25173107 10
1.7807775 -3.0931439 0.67207044 11.5
1.9805274 -1.4079374 0.50037271 12
1.7574482 -0.99759781 0.56094283 14.333333
1.8777975 6.940763 0.45411894 9.666667
1.8467718 -3.0776119 1.0293911 14.333333
1.8336678 6.9488268 0.85172451 11.5
1.8086482 6.9522047 1.1978773 12.5
1.7886173 6.9650984 1.515924 14
1.810714 6.9578981 1.8243153 15
2.0977981 0.29789093 -0.083054148 6
2.2059116 0.95333171 -0.10492019 6
2.2685997 1.3098948 -0.12163757 6
2.1940522 1.633381 -0.12476859 6
2.1990614 2.121182 -0.13966392 6
2.1106718 2.6519845 -0.1557793 6
2.3109863 2.9607289 -0.17196007 6
2.0819871 3.5583344 -0.18388397 7
2.3135021 4.0468392 -0.20438364 7
2.2027819 -3.0490761 0.36358705 9.166667
2.3305547 -2.7380087 0.25333431 8.5
2.3679321 -1.3417674 0.24709088 9
2.3279006 -1.0383626 0.29777199 9.8000002
2.139159 -3.0919707 0.69492263 11.5
2.1586466 -1.3426446 0.51100928 12.2
2.2211754 -1.0112255 0.51045942 12.833333
2.1967959 6.9342747 0.44273114 9.5
2.2156401 -3.087255 1.0444586 14
2.2099175 6.9470019 0.8506856 11.5
2.1732781 6.9513893 1.2137469 12.5
2.2016342 6.9629536 1.5696412 14
2.1552172 6.9575186 1.8352108 15
2.5394306 0.80826986 -0.11452784 6
2.6633952 1.3838975 -0.1342487 6
2.5564494 1.9614805 -0.14661554 6
2.6218517 2.6165709 -0.16932844 6
2.6256061 6.9086308 -0.30236098 7
2.575772 -3.0621209 0.41021839 9.333333
2.4503703 -1.7249746 0.25733361 9
2.4454994 -1.5794147 0.26117751 9
2.4681103 -0.99732167 0.31141225 10
2.560359 6.9171214 -0.081150569 8
2.5687346 -3.0736148 0.54958332 10
2.427593 -1.6509919 0.50281584 11
2.5275836 -0.97550881 0.51418716 12
2.5571671 6.9278994 0.42498162 9.5
2.5867302 -3.0405979 1.105985 14
2.5922849 6.9409428 0.82090992 11.25
2.6132102 6.9517322 1.2644963 12.666667
2.5620117 6.9544511 1.4885579 13.6
2.6844075 6.958447 1.9112476 15
3.0962605 2.4500389 -0.17971443 6
2.9085789 2.9527895 -0.18880482 6
2.8994517 3.8670256 -0.22089264 6
2.9932497 -3.0679982 0.33184123 8.5
3.0195589 -1.8013417 0.26344004 9
3.0564184 -1.3169689 0.22395948 8.666667
3.0584908 -1.0239588 0.24651074 9
2.9848161 -3.0592723 0.55690533 10
3.1096342 -1.8539827 0.46154216 10
2.8785317 -1.4310764 0.49200517 11
3.0454159 -0.96405441 0.52038342 11.333333
2.9801664 6.9239383 0.44640997 9.3999996
2.9735999 -3.0445077 1.0583609 13.6
3.0131533 6.9317002 0.7903378 11
2.927217 -3.0535412 1.3222402 15
3.0422897 6.9449186 1.2452629 12.5
2.9836464 6.952281 1.5997269 13.666667
2.9592779 6.9657855 2.0389671 15
3.5749149 1.6725523 -0.17051953 6
3.4415042 2.129267 -0.18179291 6
3.3693886 -3.0025365 0.29639831 8.3000002
3.2484491 -1.8162305 0.25457364 8.333333
3.4373181 -0.97154158 0.19566455 8.5
3.3800268 6.5023332 0.003492303 8
3.5349176 6.8788409 0.063034043 8
3.3049667 -2.984446 0.56776953 10
3.4954188 -0.98488545 0.51119703 11
3.4077969 6.9247069 0.43696672 9.3999996
3.3653407 -2.9963949 1.1245627 13.4
3.5715671 6.3205385 0.79506397 11
3.3926566 6.9382715 0.80786014 11
3.5162337 -2.9991782 1.4242338 15
3.4290013 6.9527035 1.1271119 12
3.4078853 6.9541965 1.5640755 13.5
3.3974378 6.9607224 2.0122733 15
3.7843626 -0.030880872 -0.14306255 6
3.6459489 1.2234544 -0.17258206 6
3.6598275 6.8861446 -0.32578215 7
3.756871 -3.032146 0.21454279 7.5
3.6670728 -1.8756843 0.24309619 8
3.6958416 -1.130239 0.13485768 7.5
3.6584828 -3.0164535 0.59293032 10
3.6966763 -1.9910336 0.48034438 10
3.8366742 -1.9745914 0.4877761 10
3.7414217 -0.98189336 0.52342731 11
3.8082938 6.9260902 0.42922655 9.3999996
3.794143 -3.0286729 1.1030433 13
3.8299019 6.1670294 0.79409307 11
3.6684089 6.9443703 0.81910032 11
3.8327391 -3.0234106 1.4209813 14.5
3.8011029 6.2217321 1.3678428 13
3.8285036 6.9526014 1.1350021 12
3.8753643 6.0975118 1.5693219 14
3.7991412 6.9490075 1.5798008 13.5
3.9809549 6.2243648 1.9740405 15
3.7874477 6.9563065 2.0405316 15
4.0365911 3.2995434 -0.24233101 6
4.1506562 -3.0450742 0.31918091 8.25
4.086349 4.4362373 -0.0090875737 8
4.303194 3.8111303 0.66818875 11
4.3659172 4.7264695 0.55740088 10
4.0391965 5.9313512 0.29527974 9
4.1063657 6.8192658 0.57196999 10
4.2098141 6.8417044 0.42358589 9.5
4.2486691 -3.0217245 1.1931064 13
4.3783784 3.4717503 0.97545165 13
4.3481703 3.9908671 0.74732101 11
4.3451605 4.1627145 0.86442173 12
4.3989034 5.0460939 0.79146761 11
4.340178 5.9064107 0.79732466 11
4.3396029 6.229485 0.83343619 11
4.3224239 6.8224139 0.76392293 11
4.267447 6.8338351 0.8502835 11
4.0842762 -3.0228298 1.5399125 15
4.3875008 4.6176224 1.28095 13.333333
4.3535318 5.1522422 1.2993126 13
4.342803 5.6961465 1.023675 12
4.2797837 6.0531068 1.2704464 12.666667
4.3555951 6.835475 1.3312703 12
4.0865269 6.8601775 1.1307555 12
4.3520694 5.4449444 1.6730614 15
4.3704729 5.7592378 1.6325948 14.5
4.027925 6.0969491 1.7689991 15
4.0746837 6.956223 1.7245338 14
4.1618319 6.8541684 2.1180425 15
4.054287 6.9113951 2.0212445 15
4.4553695 -3.0535626 0.19183707 7.5
4.7390018 0.10141031 0.093893304 8
4.4388371 5.0294285 0.56008554 10
4.4077411 5.269629 0.45485383 10
4.4445443 5.8791213 0.34010664 9
4.4286284 4.2346592 0.82307327 11.5
4.4028873 4.9432626 0.64884937 11
4.508194 -2.9929678 1.2999706 13
4.4397669 4.9282608 1.329162 13.333333
4.4568453 5.9469142 1.3781151 13
4.4106436 6.3738976 1.0906399 12
4.420155 5.0451775 1.6075547 14
5.110785 0.73769134 -0.061762761 7
5.1039696 1.0083469 -0.043086458 7
5.0049882 5.4511065 -0.22965948 7
5.1361356 -2.1345916 0.22321887 8
5.1018386 0.73498291 0.11067237 8
5.1007957 0.9092443 0.12106992 8
5.010313 4.4187632 0.45429608 10
5.17939 -3.1713274 1.7859224 15
5.480422 -1.6969796 -0.092558689 6
5.588882 -1.523892 -0.074270025 6
5.4347529 -0.99107158 -0.032100603 7
5.4204965 -0.61606371 -0.0024330728 7
5.5823855 0.27772322 -0.13222674 6
5.5481606 0.51259768 -0.11863103 6.6666665
5.3414035 3.4619162 -0.25810435 6.5
5.4855485 -1.6674891 0.34574372 8.5
5.5441666 -1.3908732 0.31708956 8.3999996
5.5394526 -0.9950822 0.20712973 8
5.5370412 -0.59542722 0.27034172 8.3999996
5.5321941 -0.19320443 0.19338964 8
5.5357242 0.22391248 0.22543812 8.1428576
5.493896 0.60049409 0.17828782 8
5.4513216 0.99627846 0.28149849 9
5.5240078 3.8012829 0.056539159 8
5.4127178 4.9591541 0.10881615 8
5.5682607 -2.0109153 0.73848021 10
5.5536585 -1.6137142 0.74802524 10
5.4322896 -1.2882807 0.64509338 10.25
5.565959 -0.98598599 0.64192665 10.2
5.5515137 -0.5908947 0.61996895 10
5.5461712 -0.15060335 0.60897833 10.166667
5.5412498 0.23225638 0.54613352 9.8571424
5.5032873 0.63744444 0.55584317 10
5.4660721 1.0004281 0.55425376 10.166667
5.4333234 5.040153 0.52381194 9.75
5.443656 5.456676 0.34055144 9
5.4963093 6.9224343 0.47623128 9
5.4411759 -3.1838379 1.0769756 11
5.5637569 -2.9208453 1.026582 11.333333
5.5590334 -2.641211 1.0827782 12
5.5528812 -2.0735633 1.0777844 12
5.5592976 -1.8219332 1.0212373 11.666667
5.5701694 -1.3625475 1.0012388 11.6
5.5612254 -0.97131091 0.97986948 12
5.566668 -0.572914 1.0300381 12.2
5.5683279 -0.11503923 0.96543634 12
5.5623236 0.22329724 0.97370297 12
5.5144749 0.64236516 1.0168334 12.4
5.4977374 1.0271015 0.98050237 12
5.4598427 5.1132078 0.64847606 10
5.4621439 6.9518733 0.77600318 10.5
5.528255 -3.1797442 1.3373206 13
5.5842552 -2.9831657 1.5097967 13.5
5.5797634 -2.5045753 1.4050661 13.333333
5.580018 -2.127455 1.4770801 13.666667
5.5761509 -1.760275 1.4118098 13.5
5.5794082 -1.3814497 1.4384713 13.8
5.5799532 -0.9472186 1.4711897 14
5.581974 -0.54048866 1.4837055 14.25
5.5857368 -0.17118302 1.4355619 14
5.5823646 0.24479395 1.3993299 14
5.5031834 0.58459073 1.40018 14.333333
5.5255647 1.0104351 1.4090583 14.4
5.5860982 -2.9302015 1.8558097 15
5.5887399 -2.5579636 1.8269998 15
5.5891213 -2.14025 1.8004575 15
5.587759 -1.7396328 1.7799323 15
5.5909038 -1.3595021 1.7668791 15
5.5868273 -1.0807171 1.7589173 15
5.5831113 -0.42407548 1.6217513 15
5.58354 -0.14724118 1.6301796 15
5.5839329 0.27977201 1.6488826 15
5.5338387 0.64376122 1.6592662 15
5.5122161 1.0010426 1.5696599 15
5.5146494 6.9395533 1.5991023 13
5.7751489 3.330404 0.10314171 8
5.7391615 3.6074874 0.38667446 9
5.7690859 3.9018493 0.39564011 9
5.8038969 4.1304469 0.52009124 9.666667
5.6863208 -3.6822577 1.1171281 11
5.6772699 -3.5000255 1.1111668 11
5.609993 -2.7030315 0.8965891 11
5.6014676 -0.48821449 1.0985575 13
5.606885 -0.13384919 1.1384391 13
5.6013041 0.21752483 1.1780598 13
5.7034845 -3.7676017 1.5768903 13
5.6924024 -3.4821939 1.5564657 13
5.6145616 -1.7646425 1.3875259 13.333333
5.6128011 -1.3819891 1.4140174 13.5
5.6180868 -1.0336887 1.5602788 14.666667
5.6070867 -0.53054267 1.4522011 14.5
5.606483 -0.12975813 1.4572067 14.333333
5.6080694 0.25825599 1.5347011 14.666667
5.8798251 7.0607505 1.1929543 11.5
5.7265739 -3.8712251 1.7780333 14
5.6106668 -0.63505799 1.6236569 15
5.7143216 7.010108 1.530913 12.5
6.0057187 3.9426537 -0.22656366 7
6.2982211 6.9804792 -0.28478649 7
6.3561411 3.1830773 -0.045611463 7
6.2391963 6.9127574 0.099668734 8
6.1677847 6.9403815 0.41133931 9
6.2854524 6.9373865 0.95615625 11
6.1388655 6.988327 2.3430896 15
6.6578507 3.0577106 -0.012128499 7.3333335
6.6585994 3.4433906 0.042571999 7.5
6.5521832 6.9311576 0.074087717 8
6.500948 6.9116411 0.9186703 10.5
6.5254836 4.474762 2.182832 15
6.8992023 2.8692517 -0.11672274 7
6.9657173 5.0526562 0.19086368 8
6.9298558 3.0391121 0.52791059 9
6.8299341 6.9379697 0.89428753 10
6.8454657 6.9171376 0.98228902 11
7.0964131 6.654233 1.670047 12.666667
6.8836818 6.9061475 1.6739991 12.5
6.8335009 4.4560242 2.2252443 15
7.1659026 6.5720091 2.1041338 14
7.404562 6.4087124 -0.25526994 7
7.2968359 4.5640335 0.15455365 8
7.4227533 4.8819485 0.15854387 8
7.3252773 6.4433131 0.087656058 8
7.2491779 3.4971514 0.34428895 9
7.2827835 6.5348988 1.6841911 13
7.5982709 5.3049641 2.2087402 14
7.3885698 4.3679218 2.3743775 15
7.2604942 4.7282219 2.440428 15
7.256361 5.2351775 2.4406054 15
7.286972 6.661417 2.4101634 15
7.83602 2.6656554 2.3686967 15
7.6628428 3.3997152 2.422652 15
7.7186856 3.9536445 2.3913264 15
7.6516414 4.1437063 2.4101713 15
8.6926966 3.3809533 0.29990086 8
8.5394335 6.9628692 0.91248947 10
8.5707026 7.0238938 1.8454869 12
8.4279957 6.7535329 2.5635021 14
8.8664484 6.9034796 0.91515857 10
8.9972668 5.1013436 2.1471364 13.5
8.8317375 6.9064755 1.8570986 12
8.9800453 2.6704221 2.4540718 15
8.945241 5.6899486 2.4451432 14
9.3342752 3.0367785 0.26572633 8
9.4821987 3.3166883 0.2568098 8
9.3831406 6.8034654 -0.17707472 7
9.3001308 3.6246231 0.30469272 8
9.2757645 5.3716383 0.61988199 9
9.2802544 5.4293971 0.63653517 9
9.3449097 6.9524088 0.82295412 9.5
9.5196552 6.9536762 1.626133 11.5
9.4128456 5.0607824 2.0834794 13
9.3857946 6.8697877 2.0122871 13
9.3807316 6.9978409 1.9151949 12
9.6509018 3.7390404 -0.3408514 6
9.8994713 7.0424013 1.244381 10.5
9.9486675 6.926538 1.6446723 11
9.8139067 4.6280408 2.0647972 13
9.8302803 6.9268026 2.0101564 12
9.7209339 6.7714396 2.3759239 13
9.9993029 2.3247049 2.9943714 15
9.9032183 2.6463118 2.9957504 15
9.9388847 3.876606 2.9730697 15
9.899828 4.1195574 2.9955802 15
9.9306278 4.7976227 2.9340851 15
10.169247 2.7117038 -0.10865233 7
10.320554 3.0507555 -0.44563454 6
10.100192 2.9451277 -0.091994442 7
10.25646 2.6660466 0.54383385 9
10.318518 6.9168472 1.1537867 10
10.382457 4.4824834 2.1059425 13
10.194949 6.7654309 2.4224195 13
10.307085 3.1088939 2.9652638 15
10.07194 3.6665154 2.9765251 15
10.298738 4.3963065 2.9436352 15
10.134552 5.1156111 2.9601417 15
10.091413 5.6121459 2.9418418 15
10.216051 6.8157721 2.7952998 14
10.591357 2.6704903 0.21081959 8
10.544233 3.165138 0.23652574 8
10.711239 3.5472648 0.58148754 9
10.635223 3.65256 0.6279726 9
10.789306 4.7481217 1.83918 12
10.589176 6.9681506 1.70938 11
10.5868 6.936698 2.0875807 12
10.702965 6.7669606 2.4745896 13
10.689298 2.3226662 2.9738853 15
10.570236 2.5450661 2.9674985 15
10.754912 3.7331526 2.9400301 15
10.428796 4.1701632 2.9356322 15
10.598549 5.0973859 2.9347842 14
10.951535 6.9528995 1.2415968 10
11.028679 6.9318242 1.6899587 11
10.830232 5.282299 2.06512 12
10.923837 6.9230657 2.1971946 12
11.176099 3.0268042 2.9366319 14
11.086836 4.0290322 2.9440112 14
10.878777 4.2470713 2.9412837 14
10.988664 4.6548429 2.9281311 14
11.107102 6.7348595 2.8952646 14
11.401531 6.9325628 1.2060181 10
11.236935 6.7673588 2.3750622 12.5
11.392696 2.6647236 2.9391623 14
11.365355 3.9364545 2.930207 14
11.289755 4.3187585 2.9264076 14
11.541137 6.6587596 2.9395878 14
11.989537 6.93822 1.2344333 10
11.63918 6.9706502 1.7293322 11
11.921816 6.949007 2.1449487 12
11.702917 6.7086172 2.2743399 12
12.06918 3.3224416 0.1987388 8
12.022277 3.398047 0.58090365 9
12.287552 7.0045476 1.3365777 10
12.294696 6.9382706 1.745325 11
12.219032 4.3467503 2.2323685 12
12.396766 6.9217229 1.9666945 11
12.063023 2.7135251 2.4177134 13
12.086931 3.1298707 2.4776289 13
12.056837 3.5387614 2.5308793 13
12.069776 3.8251424 2.573277 13
12.057712 4.1077962 2.6123416 13
12.096492 4.5886278 2.3065121 12
12.010217 5.5311675 2.2282972 12
12.07005 6.2220154 2.2833722 12
12.058968 6.5572343 2.3070092 12
12.054081 3.0328801 2.8816645 14
12.079648 4.4097657 2.6601317 13
12.080581 4.7099123 2.7057593 13
12.075517 5.0101466 2.7503924 13
12.089448 5.320169 2.797893 13
12.505125 3.0153832 -0.24418743 7
12.641546 6.9425454 1.2667255 10
12.941897 6.9670668 0.79746181 9
12.982555 7.0191717 1.3547081 10
13.180776 6.9619083 2.0252049 11
13.279246 7.0632744 0.39175043 8
13.494385 6.9200768 0.71732706 9
13.329557 6.9408164 1.2994738 10
13.340201 5.5086255 2.1575978 12
13.546712 6.9858375 1.8464979 11
13.533922 6.6977053 2.2777886 12
13.885798 6.9268098 2.072062 11
14.201729 4.4752884 -0.27621734 7
14.25139 6.9126878 0.7234503 9
14.091567 6.9457273 1.3368009 10
14.535563 7.0300922 1.3943131 10
14.629826 6.8785076 2.12075 11
14.857144 3.964325 0.63307589 8
14.846992 4.5379744 0.6396575 9
14.832808 5.2582536 0.66824764 9
14.827248 5.6678023 0.82193875 9
14.846841 3.8438253 1.1780807 9.5
14.861255 4.280479 1.2694113 10
14.850165 4.5630217 1.2246398 9.5
14.832071 4.9989376 1.2958376 10
14.852443 5.4872394 1.2913446 10
14.859881 5.7531853 1.3264151 10
15.044771 6.1953917 1.3554364 10
15.02319 6.515626 1.3611865 10
14.850591 6.9025593 1.3728871 10
14.865502 3.8416886 1.6959007 10.5
15.157879 6.6979909 2.1427534 11
15.570046 6.0345693 2.1080194 11
15.73513 5.2754469 1.7245754 10
16.179901 6.7036071 2.2182055 11
16.554909 3.5690708 -0.47763613 6
16.634598 4.7147102 2.7659159 12
16.960678 4.0177336 2.4180341 11
17.022575 4.43928 2.4533 11
16.962481 4.8336964 2.47717 11
16.954376 5.2517691 2.5061278 11
16.984274 5.6843534 2.5413764 11
16.969168 6.1132932 2.5723021 11
16.936886 3.6121082 2.7475784 12
16.84479 3.9809437 2.7541378 12
16.895689 4.3890705 2.7821965 12
16.993063 6.5585599 2.6116862 11
17.419701 3.7291033 0.609411 8
17.395115 4.068655 0.62941968 8
17.380417 3.7852564 1.370333 9
17.398315 4.1913557 1.38718 9
17.37598 3.974565 1.7439705 10
