# .PCD v0.7 - Point Cloud Data file format
VERSION 0.7
FIELDS x y z intensity
SIZE 4 4 4 4
TYPE F F F F
COUNT 1 1 1 1
WIDTH 190
HEIGHT 1
VIEWPOINT 0 0 0 1 0 0 0
POINTS 190
DATA ascii
0.08358372 -0.95395803 -0.018943341 161.66667
0.21782659 -0.96388042 -0.023951717 168
0.34553733 -0.93119979 -0.020127356 169
0.11985771 -0.84073871 -0.018423695 173.33333
0.23842438 -0.84573931 -0.021362644 177
0.3497622 -0.85315144 -0.021494139 174.8
0.46447495 -0.84672678 -0.026855426 179
0.56937915 -0.80579823 -0.024853233 174
0.15147817 -0.74315798 -0.019212881 183
0.2562108 -0.75077903 -0.023488171 186.66667
0.35511464 -0.73774469 -0.020528561 185.60001
0.45296034 -0.73070496 -0.02098589 189.8
0.55264288 -0.73674965 -0.019501835 183
0.65744102 -0.72963452 -0.023266448 184
0.18318972 -0.64021832 -0.014463034 187.5
0.27669013 -0.6249277 -0.015853317 187.8
0.35912332 -0.6214422 -0.014945462 188.5
0.4420884 -0.63165677 -0.012525901 190
0.53611016 -0.65686309 -0.022764578 189.60001
0.63139755 -0.65558577 -0.026028359 189.33333
0.7235027 -0.63054228 -0.033795826 189.8
0.19780418 -0.59778303 -0.017795227 187
0.26125219 -0.53760213 -0.013612729 185
0.35319179 -0.53424865 -0.012824184 185.71428
0.43650013 -0.55632359 -0.015174085 186.42857
0.54867113 -0.54503661 -0.017401459 187.92857
0.66497779 -0.52430582 -0.022940231 190.5
0.7694996 -0.5572266 -0.029825574 191.57143
0.85289019 -0.5029074 -0.027415648 193
0.24357374 -0.4700003 -0.034125175 180.25
0.34408534 -0.46584526 -0.034188036 179.91667
0.46243185 -0.45318136 -0.030075116 181.10715
0.54946893 -0.43076614 -0.025535425 182.23077
0.64339632 -0.44258031 -0.023796426 186.18182
0.73607075 -0.44503525 -0.017691499 189
0.85779589 -0.45606977 -0.034704749 190.2
0.90003049 -0.42665103 -0.029861534 191
0.28164098 -0.35584766 -0.039625756 174.22223
0.35281247 -0.34106085 -0.047832225 173.73914
0.44461024 -0.33588934 -0.037423704 175.54839
0.55744082 -0.35224056 -0.037028316 179.125
0.65429091 -0.33636856 -0.028584769 182.04546
0.7561298 -0.3592613 -0.021929407 186.60001
0.83867663 -0.34528953 -0.021217424 190.5
0.91889906 -0.33816102 -0.034773413 192
0.3587372 -0.24214564 -0.0591162 167.04167
0.45972314 -0.2476159 -0.070285752 168.71428
0.54627776 -0.24362983 -0.045689218 173.84314
0.65359873 -0.24873996 -0.040262442 178
0.73089761 -0.24306332 -0.02612306 182.47826
0.8464101 -0.25082338 -0.023668965 187.72728
0.92890543 -0.25609195 -0.030378364 191
0.37113449 -0.14643575 -0.054916251 162.95714
0.44512132 -0.13984081 -0.062537596 164.18988
0.55175668 -0.14875984 -0.073043853 167.96153
0.63644761 -0.14644089 -0.038641613 174.37837
0.75188994 -0.14575052 -0.031719916 181.57692
0.85486871 -0.15264308 -0.022620071 186.89999
0.94108391 -0.13743342 -0.029258151 190.2
0.39091328 -0.044099335 -0.060465779 163.82353
0.43471336 -0.038597021 -0.057315089 165.25368
0.54796588 -0.056116734 -0.077950306 168.7612
0.63774002 -0.066502146 -0.051378835 173.13637
0.75226378 -0.069408156 -0.034734074 180.07692
0.84877306 -0.089841425 -0.024649922 185.85715
-0.22258897 0.099713556 -0.0042332169 146
-0.15030396 0.090268835 -0.026522603 159.9375
-0.037143249 0.074312277 -0.04913025 171.82353
0.057478942 0.069070078 -0.06518995 156.10527
0.15715408 0.063524246 -0.049981494 151.78432
0.2561976 0.057406288 -0.061057176 159.03738
0.36544427 0.039353263 -0.063766174 163.04347
0.40909085 0.057493504 -0.061136778 164.08
-0.36812711 0.12304778 -0.0084328251 151
-0.24672799 0.16749741 -0.0056531765 146.33333
-0.14227329 0.15842755 -0.026742933 161.125
-0.033294212 0.1558333 -0.040827289 173.06897
0.042932145 0.14229934 -0.066992246 163.96774
0.16161411 0.1509988 -0.058346763 145.72728
0.25260252 0.14557643 -0.058298264 157.18605
0.34800655 0.140692 -0.060731295 160
0.42358848 0.14784837 -0.072376736 161.16982
-0.62262952 0.29380178 -0.0027328408 130
-0.55525184 0.27484688 -0.0064006578 136
-0.4503648 0.24454737 -0.0056868531 147.5
-0.36258289 0.21961227 -0.0084543405 151.60001
-0.10829391 0.29462963 -0.0073136967 158
-0.085053191 0.28029966 -0.0041749189 155.33333
0.06708394 0.25981715 -0.045794472 171.86667
0.15160742 0.25285983 -0.05721901 154.75555
0.25233507 0.25181738 -0.063574739 149.63461
0.35063586 0.25537089 -0.072041422 153.07936
0.43919727 0.24665669 -0.067756325 154.2742
-0.68266499 0.31065983 0.00081174681 122
-0.2488462 0.37868437 -0.013895543 147.75
-0.14008519 0.34934843 -0.0096734446 152.38461
-0.037648849 0.343106 -0.033042826 169.625
0.043414798 0.35565326 -0.047419194 176.38095
0.15468989 0.34703398 -0.044544347 174.375
0.25159854 0.33781701 -0.040111497 163.25
0.35577527 0.33841631 -0.039156694 151.26471
0.46203697 0.34441486 -0.041692439 149.91304
0.5026499 0.38983011 -0.045716297 158.66667
-0.40494341 0.46805593 -0.002171156 148
-0.35994291 0.44349107 -0.011310625 149.2
-0.24663475 0.45240295 -0.013776576 148.16667
-0.16788852 0.4334299 -0.015269271 149.25
-0.047941457 0.44182935 -0.017654214 160.3
0.060499154 0.43807906 -0.035615738 173.88235
0.14824823 0.4576892 -0.041160855 178.38095
0.24801621 0.45486328 -0.051151313 178.5
0.36368269 0.4550209 -0.044595771 174.90475
0.44169617 0.43872505 -0.038213421 169.57143
0.51185733 0.43790796 -0.032328442 171.22223
-0.55137616 0.55485231 -0.0053109727 125
-0.48609143 0.51843137 -0.014843318 136.66667
-0.33053368 0.55874193 -0.014554686 142.5
-0.27469963 0.51595396 -0.015680464 145
-0.14577806 0.54055405 -0.020029694 146.71428
-0.031200385 0.55247051 -0.024355996 153.5
0.065847829 0.54546356 -0.026194906 164.75
0.16247781 0.55957031 -0.034118235 174.75
0.24635366 0.5571807 -0.037210587 179.75
0.35801911 0.55463189 -0.040747814 179.46666
0.46296233 0.5621562 -0.045792613 179.625
0.54162055 0.53779095 -0.041606728 175
-0.50219846 0.68885422 -0.0055214865 130
-0.4438999 0.64694065 -0.017322857 135.60001
-0.23628972 0.6308949 -0.019243725 143
-0.12510581 0.67422068 -0.024229636 142.5
-0.074692294 0.60712951 -0.020093838 147.66667
0.020518554 0.64496875 -0.028169749 152.83333
0.12077171 0.65998179 -0.034909405 163.83333
0.22166419 0.65151769 -0.039666858 169.60001
0.34080932 0.63402539 -0.041526001 176
0.45144552 0.6738134 -0.055610429 173.28572
0.5755319 0.64955157 -0.054304734 171.33333
-0.5712148 0.74209887 -0.0054506795 115.33334
-0.34992641 0.74448359 -0.018771091 133.33333
-0.21211804 0.78889942 -0.028673053 136
-0.16499291 0.72429317 -0.020213451 140.5
-0.03654018 0.74266332 -0.027210515 145.39999
0.078306288 0.75749147 -0.02935788 147.5
0.19101985 0.76334471 -0.038142987 155
0.24123205 0.73511648 -0.039709404 160.2
0.35147944 0.72326666 -0.045544043 167.25
0.47084737 0.73781836 -0.051544994 165.25
0.52623272 0.76734895 -0.054174323 159.5
0.6068055 0.76548856 -0.054218795 158.75
-0.44817552 0.84133321 -0.014187571 119
-0.25778502 0.84421623 -0.019201646 133
-0.10876322 0.86539233 -0.024301631 134.5
-0.087545663 0.83301735 -0.032010898 135.5
0.035848856 0.86363351 -0.03564525 139.5
0.17434916 0.82170409 -0.035141014 144.25
0.28745863 0.83143836 -0.042388078 149.75
0.39769265 0.82870609 -0.040998872 151.5
0.40061769 0.85369408 -0.050819322 148
0.50649762 0.8237868 -0.045601226 151
-0.31200576 0.9136669 -0.01709611 123
-0.14976974 0.93512446 -0.022748977 125.66666
-0.019783301 0.99185634 -0.029117825 129
0.011686167 0.91745186 -0.0302558 131.66667
0.14453413 0.93712115 -0.03965972 133.75
0.27521041 0.9370141 -0.048389208 138
0.070027947 -0.98631406 -0.008216992 153
0.10863446 -0.86698365 -0.0089410096 170
0.22886457 -0.87965059 -0.0097181285 170.5
0.19218801 -0.60504603 -0.0065704575 189
0.27245399 -0.6321696 -0.0058774166 189
0.35622767 -0.62645203 -0.0059595834 190
0.23596312 -0.52494001 -0.0038832817 186
0.31128556 -0.22572722 0.00086445227 145
-0.21968958 0.090772599 0.091344133 116.5
-0.19523983 0.094591126 0.0048577301 147
-0.71575481 0.17499763 0.02473337 111
-0.66121846 0.16650161 0.023366144 117.5
-0.5754115 0.15206645 0.033346985 123
-0.35009894 0.11561292 0.043368522 137
-0.27536654 0.12098598 0.0093553895 146
-0.022919334 0.17380361 0.027750341 160
0.079459473 0.15540026 0.08641202 129.72728
0.1416713 0.13716921 0.04126475 133.3
-0.48537812 0.25338972 0.0043005305 141
-0.01740629 0.23174231 0.037864424 153
-0.74547654 0.32805204 0.0065325554 114.66666
-0.24906121 0.093806513 0.10942537 139.60001
-0.0013909048 0.14138322 0.1693293 146
0.041908156 0.12562042 0.15197279 124
-0.11084574 0.25970834 0.1674882 137
