# .PCD v0.7 - Point Cloud Data file format
VERSION 0.7
FIELDS x y z intensity
SIZE 4 4 4 4
TYPE F F F F
COUNT 1 1 1 1
WIDTH 106
HEIGHT 1
VIEWPOINT 0 0 0 1 0 0 0
POINTS 106
DATA ascii
-3.7745986 4.0030136 0.23910457 8
-3.7828062 2.1153445 0.24842772 8
-3.776742 2.7965591 0.31534398 9
-3.7756972 3.3426049 0.4112123 9
-3.7206168 3.9835565 0.3444486 9
-3.7777147 3.3316643 0.52073956 10
-3.7508867 2.0844321 0.75491524 12
-3.7657752 3.2207046 0.83762968 12
-3.7691846 3.9463358 0.76426888 10.5
-3.7538555 2.7026193 0.9948861 13
-3.7597065 3.9676659 0.92564869 12
-3.7628648 2.8430312 1.1563988 14
-3.7637596 3.9185004 1.2408936 13
-3.7219255 2.5724511 1.3636554 15
-3.7737706 3.9481907 1.3337711 14
-3.7157984 3.9653158 1.5258725 15
-3.4314189 -2.2377088 1.1479833 15
-3.2356741 3.9853415 0.72225446 11
-3.1266503 3.9872346 0.56810749 10
-3.1654367 -2.4301782 1.1307908 15
-2.9687521 3.9893939 1.2386092 14
-2.7181377 -0.88316888 0.27255571 9.5
-2.7036211 -0.67873514 0.30909383 10.5
-2.7321668 -0.94073796 0.42415118 11
-2.7061462 -0.70790786 0.45599538 12
-2.6482143 -0.96882772 0.71806955 14
-2.6602519 -1.1716224 0.81347054 15
-2.5572293 -1.8656449 0.1685065 9
-2.5611572 -1.1605912 0.20133679 9
-2.5956323 3.9881673 0.45023456 9
-2.5421689 -0.95575565 0.4231385 12
-2.5291977 -0.98685205 0.59147966 13
-2.5476654 3.991456 0.66971207 11
-2.1583135 -2.4475374 0.3049899 10
-2.0066569 3.9880862 0.61282009 11
-1.8506303 3.98458 0.43170065 9
-1.8383772 -2.4460652 0.72208846 14
-1.8207039 3.9882181 0.92171717 13
-1.7407552 3.9838483 1.256223 15
-1.5603133 -2.4517441 0.29845849 10
-1.203325 -2.4496069 0.37854555 11
-1.1503705 -2.4564795 0.67233217 14
-0.85736859 -2.4557414 0.659361 15
-0.52228266 -2.42382 0.11572842 9
-0.50631225 -2.4224999 0.31272641 11
-0.40464824 3.9805942 0.54847628 10
-0.48168677 3.9892402 0.81004709 12
-0.297654 4.0410366 0.6304391 11
-0.3157258 3.9829562 1.0625514 14
-0.30569366 4.0076647 0.86709857 13
-0.28774357 4.0337873 1.2148477 15
0.12064959 -3.111778 0.068184249 8
0.078712203 -2.4456909 0.1350424 9
0.056683354 -2.441844 0.3283425 11
0.059670862 -2.4405699 0.41128042 12.5
0.12754904 -3.096858 0.74141508 14
0.25998202 1.2451144 -0.013470504 6
0.38558143 -3.1474574 0.49129543 12
0.21457458 6.9077353 1.189086 11
0.23349711 6.9048376 1.6973836 13
0.26546541 6.8981361 1.9013618 14
0.43560925 -3.0887706 0.34995177 11
0.48182878 -1.1446139 0.30395022 14
0.60781783 -1.2583896 0.29446808 13
0.76484162 -1.0413245 0.293899 14
0.85478157 -1.3699002 0.45286077 15
1.1603361 -1.0358207 0.33458519 13.5
1.3868434 -0.99303031 0.31675589 13
1.4255881 -3.0584943 0.51170903 12
1.6106545 6.9198956 0.67118835 9
1.9718512 -1.0262135 0.24166396 10
1.9678421 -0.99687922 0.32238221 11
1.8815796 -3.1050773 0.53468472 12
1.9808162 -0.98136681 0.50416237 14
1.8084753 6.899703 1.8372378 14
2.1435242 6.9068131 1.5193249 13
2.5875149 -2.0292993 0.22591361 9
2.6905265 6.909235 1.5086447 12
2.6834414 6.2000079 1.5580052 13
3.1646578 6.8059549 0.56603742 9
3.2473466 5.1337328 1.4132935 13
3.3152916 4.9616346 1.6531992 14
3.6689744 0.14763118 0.27731794 9
4.1209083 -0.80671573 0.022739941 7
4.0700455 0.72778571 0.21945612 8
4.3740168 0.61741179 0.33259499 9
4.3789997 0.66509575 0.47840109 10
4.3120337 1.0418699 0.52789581 10
4.3829832 0.82286644 0.70486647 11
4.3879299 0.64785391 0.92922366 13
4.3819771 1.0985655 0.93988818 12.5
4.3889446 1.038576 1.1128564 14
4.3918719 0.59728134 1.26951 15
4.457747 -1.1182375 0.8613202 12
4.4879103 0.37363443 0.86045176 12
4.5027733 -0.56945294 1.0847431 14
4.5008221 -0.048116777 1.1398873 14
4.5018592 0.36544433 1.1934148 14
4.4324789 -1.0658691 1.351459 15
4.4587607 -0.50747782 1.2072626 15
4.5048094 0.15730429 1.3647947 15
4.6253276 3.3720956 0.27130505 8
5.4643168 3.0660317 0.11755698 7
8.6595144 6.9384079 1.6014386 11
8.871419 6.8711472 2.1817112 12
9.8095274 6.913547 1.5094113 10
