# .PCD v0.7 - Point Cloud Data file format
VERSION 0.7
FIELDS x y z intensity
SIZE 4 4 4 4
TYPE F F F F
COUNT 1 1 1 1
WIDTH 596
HEIGHT 1
VIEWPOINT 0 0 0 1 0 0 0
POINTS 596
DATA ascii
-4.4768806 2.3644724 0.36187318 9
-4.4767742 2.5991714 0.29969099 8.5
-4.4829259 3.0569453 0.29076627 8.3999996
-4.4700541 3.4250309 0.31589276 8.5
-4.4695282 3.7558417 0.29038247 8.25
-4.4728932 2.3379622 0.46481279 9.5
-4.4712811 2.5374732 0.58353257 10.166667
-4.4734621 3.0146394 0.59948921 10.2
-4.4662189 3.4053009 0.67371511 10.5
-4.4640522 3.7909002 0.53331625 9.5
-4.462945 2.3237867 0.9223119 12
-4.4607081 2.6309826 0.98202205 12.333333
-4.4597383 3.0238566 0.99457788 12
-4.4554877 3.3486643 1.0361629 12.4
-4.4541068 3.7480857 1.0032643 11.833333
-4.4048367 4.0024886 0.9714269 12
-4.4589944 2.3569336 1.4036182 15
-4.4584379 2.5742946 1.3868277 14.5
-4.451951 3.0369895 1.424664 14.166667
-4.4465179 3.3511808 1.4577492 14.166667
-4.442214 3.7545679 1.5241438 14.2
-4.4499288 3.7172956 1.6361687 15
-4.3177743 3.9936271 0.39648288 9
-4.1455975 4.0105033 0.31970593 8.333333
-4.2446008 4.0045934 0.64841503 10
-4.1133304 -3.0958934 1.0951935 13
-4.0618358 -2.2068381 0.93739426 13
-4.0357652 -1.8354999 0.97600484 13.2
-4.0292158 -1.4259828 1.08014 14
-4.0074348 -1.0624691 1.0261152 14
-4.1955104 4.0094218 1.0400876 12
-4.0487885 -2.1600125 1.2961922 15
-4.0197659 -1.8539816 1.2770398 15
-4.0102477 -1.5862938 1.2735665 15
-4.1482964 4.0066113 1.5175585 14.4
-4.2534127 4.0032806 1.6663613 15
-3.6051917 -2.4502707 0.23338397 9
-3.8414316 4.0135169 0.32870612 8.666667
-3.7013941 -2.4509215 0.55733222 11
-3.742142 -0.93488634 0.71602106 12
-3.8082948 4.0062761 0.59735632 10
-3.8181081 -2.484354 0.97258824 13.333333
-3.999213 -1.3140709 1.1345448 15
-3.9899807 -1.0368536 1.0036356 14
-3.8319435 4.0105085 1.042827 12.2
-3.7493422 -2.9246173 1.3131695 15
-3.7934821 -2.5511496 1.3027869 15
-3.9973085 -2.3831799 1.3372337 15
-3.9932194 -1.2510173 1.2234286 15
-3.9887099 -1.0978338 1.2358063 15
-3.7920151 4.0081124 1.4634669 14.5
-3.396528 -2.4521651 0.25753278 9
-3.2776694 -2.1310635 0.22909191 9
-3.2700927 -1.8466921 0.21193548 8.666667
-3.251224 -1.4165795 0.25847083 9.3999996
-3.3074555 -1.0093607 0.27054104 9.4285717
-3.3757656 4.0043144 0.33142915 8.5
-3.4917338 -2.4550152 0.61548185 11.25
-3.2625284 -2.0792248 0.49450597 10.666667
-3.25179 -1.8197705 0.50220245 11
-3.2656584 -1.3953971 0.58438438 11.75
-3.3213742 -1.018324 0.5900237 11.888889
-3.3008077 3.9901235 0.70573783 10.5
-3.4219604 4.0012059 0.58707809 10
-3.6003206 -3.0122962 1.0647908 14
-3.4022598 -2.4562922 0.85281318 13
-3.3191845 -1.2396747 0.91136128 14.5
-3.3646741 -1.1005762 0.90542871 14.333333
-3.3623111 4.0044522 1.0486156 12.6
-3.4423454 -3.0479972 1.2653792 15
-3.4043884 4.0040679 1.448868 14.5
-2.9707637 -2.44625 0.23931302 9
-3.025449 -1.3028088 0.24971041 9.333333
-3.0042622 4.0110621 0.30461958 9
-3.0264325 -2.441401 0.61045182 11.4
-3.1501384 -1.3410807 0.43530822 11
-2.9797912 3.9927287 0.55518579 10.333333
-3.0084224 4.0000191 0.61894852 10.5
-2.8743348 -3.0422821 1.1708934 15
-2.9360166 -2.5358651 0.85965365 13.5
-2.9584415 4.0049472 1.024761 12.8
-3.1123397 -3.0509002 1.2100807 15
-2.9869998 3.9978859 1.4464744 14.666667
-2.6141937 -2.4616456 0.24160112 9
-2.6024578 -1.4002173 0.26834199 9.666667
-2.7022653 4.0085917 0.33509129 9
-2.5790081 -2.4530604 0.58234215 11.777778
-2.5448067 -1.344769 0.44532049 11.333333
-2.6107974 4.0022182 0.6215812 10.571428
-2.5468276 -3.0197151 1.1194143 15
-2.6364446 -2.6612945 0.88571566 14
-2.5797453 4.0044374 1.0324178 13
-2.5483854 3.9990704 1.4191166 15
-2.1975718 -2.4609663 0.27526957 9.5
-2.1992726 4.0047302 0.39553288 9
-2.218751 -2.4570987 0.55142212 12
-2.1860516 3.9918771 0.65113878 11
-2.1938946 3.9969432 0.59169441 10.6
-2.337326 -3.0391912 1.0927014 15
-2.1520891 -2.4607136 0.80751073 14
-2.1692076 4.0022845 1.017012 13.2
-2.2033768 4.0028 1.3380437 15
-1.7870713 -2.4601381 0.2716445 9.5
-1.6187778 3.9943597 0.43622801 10
-1.9717736 4.0004973 0.40471509 9
-1.7903322 -2.4621356 0.55893582 12.5
-1.7891743 3.9905734 0.63097352 11
-1.9307983 3.999063 0.6248768 11
-1.9472533 -2.4694281 0.78270233 14
-1.7745044 3.9991643 0.98451728 13.2
-1.818622 3.9993248 1.2967955 15
-1.4106445 -2.4589255 0.25636753 9.8000002
-1.3977251 -2.4619575 0.53117907 12.5
-1.4104191 3.990422 0.5825938 10.75
-1.3765306 3.9971774 0.61770523 11
-1.501835 3.9887495 0.95183146 13
-1.3591489 3.9958372 1.0350426 13.833333
-1.3661213 3.996608 1.2884281 15
-1.2695234 6.9089756 1.4323399 12.5
-1.3027288 6.9144716 1.7865088 14
-1.2342728 6.8499117 2.1507301 15
-0.8876406 0.6257453 -0.01962645 6
-0.84106427 1.0432463 -0.012310689 7
-0.84015101 1.3464872 -0.01172159 7
-0.85256433 1.7731402 -0.015310942 7
-0.82870322 2.3406777 -0.024558455 7
-0.96979487 2.6163926 -0.033991307 6
-0.87493008 3.4727457 -0.046472389 6
-1.1904887 4.3689075 -0.090674184 6
-1.0871595 6.6967621 -0.096561044 6.5
-1.0013025 -2.4364703 0.24041438 10
-1.0023143 -2.4339526 0.58223677 13.5
-1.0969244 3.9849429 0.62843198 11
-1.0659887 4.1502171 0.63003367 11
-0.91447324 4.5193334 0.64511716 10.75
-1.0836266 6.8991289 0.85072458 10
-1.0505025 3.9838057 0.95863688 13
-1.0478419 4.0680757 1.0636855 14
-0.97381353 4.4463382 1.0386888 13
-0.95229411 4.8876662 1.1344618 13
-0.84614837 6.7863946 0.97877139 10.5
-0.88664448 6.80024 0.9518286 11
-1.0141979 4.1681066 1.3349133 15
-0.95483881 4.812397 1.4957682 15
-0.99756372 6.8539162 1.388775 12.5
-0.97399497 6.8661079 1.9080715 14.5
-0.95327061 6.8188415 2.1104152 15
-0.57066458 0.32806763 -0.0068340763 6.6666665
-0.48798665 0.69012642 -0.014617301 6.3333335
-0.56963164 0.99972302 -0.010856315 6.8000002
-0.60745496 1.3764801 -0.011920056 7
-0.56211674 1.8248111 -0.015333558 7
-0.59046668 2.2277122 -0.024191001 6.5
-0.53312039 2.5295615 -0.031844489 6
-0.73912239 3.0987778 -0.041609555 6
-0.4354994 3.7323506 -0.05299899 6
-0.57615793 4.3828139 -0.070329413 6
-0.5552336 -3.0717752 0.23371845 9.1999998
-0.6845926 -2.6015763 0.25078663 10
-0.55846888 -3.0437062 0.57250917 12.6
-0.67277032 -2.5920956 0.55887842 13.2
-0.7540983 4.5226626 0.64594775 10.666667
-0.59594697 6.8657341 0.71197701 9.333333
-0.78163809 6.7839613 0.88316506 10
-0.59913731 6.836411 0.90883845 10.666667
-0.61393708 6.8569465 1.3730803 12.5
-0.54957378 6.8888497 1.8797368 14.333333
-0.55476689 6.904377 2.1271436 15
-0.31561455 0.61217171 -0.018670848 6
-0.3010664 1.0435435 -0.013764184 6.3333335
-0.36583674 1.4476159 -0.01294413 7
-0.19927503 1.8464886 -0.020704839 6
-0.19619353 2.1789064 -0.028758343 6
-0.16023442 2.4812977 -0.035352454 6
-0.27243501 2.9927645 -0.043695327 6
-0.34662914 3.330318 -0.048709929 6
-0.19751896 6.8080063 -0.07933034 6.5
-0.36694103 -3.2937558 0.053825222 8
-0.17580369 -3.0832427 0.25761619 9.6000004
-0.10631167 -2.1954157 0.0020920178 7
-0.24712588 -1.7944051 0.20713995 10.6
-0.088115439 -1.236328 0.067802653 8.5
-0.11884661 -1.1277494 0.20971403 12.333333
-0.24968021 6.820549 0.091897443 7
-0.18856369 -3.1063077 0.56142932 12.5
-0.20916207 -1.6572932 0.45399228 15
-0.18862528 6.9094567 0.84461212 10
-0.19638263 6.9079442 0.91046685 10.5
-0.20427059 6.9134221 1.411952 12.5
-0.19099544 6.9206018 1.9442508 14.5
-0.18676595 6.9177389 2.128927 15
0.14488731 -0.9579339 -0.015928494 7
0.25843105 -0.56774533 -0.019497596 6.5
0.3620488 -0.36088353 -0.030655261 5.5
0.36430573 0.34206483 -0.033356693 5
0.27423599 0.55259562 -0.03880281 4.75
0.10155708 1.2973323 -0.022781763 6
0.11594275 1.8029102 -0.021310154 6
0.20041169 2.1632648 -0.026004862 6
0.16416728 2.6275272 -0.043194216 6
0.11804381 3.1690781 -0.050353505 6
0.087245919 3.5301991 -0.054980643 6
0.04671343 4.0139933 -0.063610017 6
0.21309736 -2.9841421 0.2037538 9.2222223
0.39078966 -2.7754915 0.2046327 9
0.17191443 -1.3061773 0.2228968 12
0.053497717 -1.0119666 0.097919941 9.666667
0.24330503 -0.52582043 -0.0036010654 7
0.23001717 -3.1258814 0.5721876 12.5
0.17437638 6.9078188 0.82864314 10
0.21836419 6.9082613 0.94013822 11
0.21522786 6.9098215 1.4226542 12.666667
0.15675557 6.9177375 1.9338347 14.333333
0.17773396 6.9152355 2.1286447 15
0.53291595 -0.54120815 -0.019866692 6.5
0.57675248 -0.19923481 -0.0396327 5.0833335
0.46524188 0.26767588 -0.053905282 4.1999998
0.51973844 0.56956124 -0.039508171 5.3333335
0.70993608 1.0017889 -0.039323729 6
0.78498662 1.2466881 -0.033774596 6
0.55064648 1.8458269 -0.029537469 6
0.62015057 2.1905961 -0.033100724 6
0.49833077 2.6055911 -0.03665261 6
0.51526922 3.0005128 -0.041519456 6
0.54761457 3.6632802 -0.062888958 6
0.5707193 4.1807919 -0.072315305 6
0.68647027 6.8708 -0.10659341 6.5
0.58386546 -2.9451709 0.21610315 9.375
0.49620527 -2.7532485 0.22770949 9.5
0.51947731 -1.3334745 0.23506846 11.8
0.67232925 -1.0128762 0.32290134 14.6
0.48275685 -0.49455109 -0.0037764676 7
0.68917233 -0.36285263 -0.0033226055 7
0.60330617 6.8500366 0.17130551 7.5
0.61805904 -3.1184769 0.57431102 12.4
0.52632326 -1.7484647 0.53044969 15
0.61571223 6.909472 0.80672508 10
0.58136338 6.9107394 0.94806725 11
0.60206032 6.9083529 1.4305484 12.5
0.56892371 6.9194951 1.9201626 14.333333
0.62273341 6.9146237 2.1331553 15
0.990408 -0.22369935 -0.014163653 7
0.84673268 1.4388891 -0.039173923 6
0.96729535 1.8214725 -0.041989531 6
1.099431 2.2386863 -0.047331002 6
0.94443572 2.4991183 -0.043974821 6
0.90090394 2.898216 -0.045332793 6
0.95980662 3.2277021 -0.05136697 6
1.027199 3.608885 -0.055798993 6
0.90301263 -3.2837105 0.17668526 8.5
0.84701198 -3.1075571 0.25121114 9.5
0.96193546 -1.7592974 0.19083656 10
1.109971 -1.2267425 0.16877621 10
0.9182058 -1.0949967 0.27360916 12.666667
0.85219806 -0.33389172 -0.0016363655 7
0.83561438 -3.2705247 0.39399943 11
0.87856168 -3.0951445 0.56578231 12.333333
0.9249301 -2.1556358 0.44884107 13
1.1888845 -1.0358808 0.41303012 15
1.0142734 6.9098945 0.7576943 9.666667
0.94984728 6.9104066 1.0937868 11
0.97777706 6.9077306 1.4288481 12.6
0.9549247 6.9186053 1.9113528 14.333333
0.99023265 6.9123373 2.138952 15
1.3575228 -0.24420784 -0.0064631309 7
1.2350605 2.6644359 -0.055478673 6
1.4332832 3.2863774 -0.067700647 6
1.5730875 3.7244873 -0.076892212 6
1.5858127 6.87988 -0.027031479 7
1.3489668 -1.7783768 0.29741567 11.2
1.3162475 -1.3797168 0.2198538 10.666667
1.3704972 -1.0139997 0.29742455 12.3
1.5310541 6.865036 0.14985704 7.5
1.2646533 -3.279947 0.48951921 11
1.3432494 -2.0409591 0.51348752 13
1.4489498 -1.7983543 0.46701953 13
1.3707846 -1.3664978 0.49670812 14.166667
1.3247689 -0.99766636 0.42773545 14.6
1.3923895 6.911181 0.71354949 9.5
1.4098504 6.9086828 1.0668094 11
1.4056013 6.9054079 1.4350924 12.5
1.4029255 6.9162583 1.9033692 14.333333
1.4412313 6.9069848 2.1488974 15
1.74597 4.268002 -0.086401425 6
1.6266984 6.8748512 -0.168522 6
1.8179392 -3.2364187 0.21156894 8.666667
1.6429962 -2.0884209 0.20703764 9.5
1.8364636 -1.8423406 0.21255225 9.5
1.6269482 -1.5072075 0.039374065 8
1.844538 -1.0188333 0.20986135 10
1.7500285 -3.2201931 0.4087382 10.5
1.6841701 -3.1932526 0.58326495 11.5
1.9198219 -1.9598855 0.41485521 12
1.9682676 -1.2412854 0.42522949 12
1.8558841 -1.0520202 0.53191966 14.25
1.9203572 6.5525818 0.78479248 10
1.7941911 6.906508 0.69370246 9.3999996
1.8383112 6.2220511 0.99991578 11
1.8145555 6.9117551 1.0221301 10.6
1.7815572 6.9068131 1.4567492 12.5
1.9912288 6.0867925 1.6670554 14
1.8045923 6.9133987 1.8993471 14.333333
1.8192297 6.9016371 2.1588349 15
2.323463 -3.2002013 0.27977791 9
2.1887226 -1.7210305 0.15313995 8.666667
2.0249128 -0.87290186 0.25686035 10.5
2.2723198 -3.1753595 0.3936477 10
2.013942 -1.6301233 0.38974589 11
2.2811086 -1.2960687 0.48820102 12.5
2.2327228 -1.0555162 0.48485893 12.666667
2.2288857 6.8740873 0.72218186 9.5
2.2644422 6.8607068 1.1150708 11.2
2.2932262 6.028049 1.6533937 14
2.2529655 6.8587742 1.5053856 12.666667
2.1072192 6.0577226 1.7353884 14.5
2.1062551 6.8964272 1.9237292 14.5
2.1967268 6.8685246 2.165158 15
2.6320953 -3.0932148 0.26102164 9.333333
2.6087496 -3.056561 0.39520633 10
2.4943762 -0.99147147 0.51678467 12.5
2.5251935 4.1552529 0.79826432 11.5
2.5987296 4.6862822 0.79756576 11
2.5783198 5.5283556 0.49523392 9
2.5643411 5.8678765 0.51321006 9
2.5953751 6.6517339 0.68130541 9.5
2.4413893 6.807137 0.64958233 9
2.6586676 -3.0852208 1.1266321 15
2.565119 3.4524939 1.0413362 14
2.5361617 3.7876322 0.86058229 12
2.586334 4.1398625 1.028797 12.666667
2.5812681 5.7601581 1.1082858 11.5
2.5262921 6.0428858 1.0628958 11.5
2.557358 6.783659 0.92285156 10
2.511344 6.8017416 1.0628514 11
2.554147 4.5575471 1.465027 14.5
2.5729332 5.0503554 1.4442198 14
2.6302257 5.5618582 1.3688742 13
2.5927517 5.9148235 1.3533024 12.5
2.6272902 6.5154338 1.3719933 12
2.550971 6.8028421 1.4184738 12.333333
2.6211379 4.7417078 1.6654843 15
2.6261728 5.340044 1.7171544 15
2.6054366 5.7049575 1.8150767 15
2.565222 6.7937183 2.162523 15
2.9849088 -3.2671285 0.23039258 8.5
2.9666002 0.069365494 0.26996461 9.5
2.8866534 -3.2165885 1.1751066 15
3.4448185 -2.4219675 0.16025639 8
3.3658521 -2.2170784 0.14713778 8.125
3.4012511 -1.7912211 0.21603437 9
3.4969399 -0.73395914 0.099149831 8
3.2979774 -0.103255 0.14240345 8
3.3578017 0.70460719 0.21474406 8.666667
3.4301629 0.92036849 0.22323096 8.75
3.3330367 -2.1744082 0.45089808 10.4
3.3470831 -1.7753927 0.51259017 11.25
3.5355203 -1.3389993 0.50696397 11
3.5840187 1.0339155 0.46644127 10.5
3.7558982 -1.5483276 -0.024477743 7
3.7402332 -3.1807492 0.20865335 8.5
3.7252676 -1.6637077 0.18326274 8.3999996
3.7211697 -1.3919387 0.2015973 8.7142859
3.7400603 -0.98640394 0.22623798 8.75
3.7388194 -0.58570403 0.19854042 8.7142859
3.7402842 -0.17902437 0.22461262 8.7142859
3.7452419 0.26079878 0.23560525 9
3.6970668 0.56644177 0.24867719 9
3.6541944 0.99217469 0.35840753 9.666667
3.8541987 3.434284 0.30724567 8.5
3.7892091 3.7938187 0.43295074 9
3.7188783 -3.2189786 0.40050304 9.5
3.7225604 -1.7732943 0.63272685 11.5
3.7106044 -1.3618129 0.59729558 11.428572
3.7468638 -1.0024314 0.62066031 11.714286
3.7457025 -0.57362813 0.57484728 11.375
3.7499781 -0.18662322 0.6231938 12
3.7471368 0.2019587 0.58625633 11.5
3.7081845 0.58415729 0.63143349 11.714286
3.6700115 0.97019261 0.64695269 12
3.9752023 4.1706038 0.73009646 10
3.7192307 6.9213662 0.65082169 9.333333
3.754837 -2.6028013 1.0186315 13.5
3.7610018 -2.2010581 1.0062691 13.714286
3.760458 -1.8223507 1.0300004 14.166667
3.7503834 -1.3639349 0.97989386 14.166667
3.7590957 -1.0417418 0.98064679 14.142858
3.7567861 -0.59993482 0.94494653 14
3.7547486 -0.1959081 0.95519739 14.2
3.7601435 0.17643678 0.96618068 14
3.7082853 0.60879827 0.96187431 14.2
3.6805303 0.98836297 0.98104459 14
3.6663303 6.9169745 1.2539616 11
3.7717087 -2.2581389 1.2566158 15
3.7727418 -1.7993766 1.2417109 15
3.6823134 6.9271455 1.4120995 12
4.1424994 3.4171269 0.58934182 9.666667
4.2451859 4.1474676 0.8612389 11
4.3663654 6.9143443 0.93301952 10
4.3932204 6.937963 2.262192 15
4.7301822 3.0778134 0.23901251 8
4.665185 3.5323586 0.49280372 9
4.4888973 6.8919683 0.62456459 9
4.4773574 6.8928828 0.99326611 10
4.4482632 6.9019423 1.8571602 13
4.4612298 6.905683 2.1576586 14
4.470191 6.9150858 2.5153661 15
4.9934802 2.9370599 0.27725673 8.25
4.8646989 3.3831291 0.2737309 8
5.0686402 2.9884861 0.56743604 9.666667
5.0031857 3.5328288 0.48130816 9
5.3373904 6.4654727 0.42998195 8
5.2031784 3.4530182 0.50169981 9
5.3613625 6.497489 0.70693475 9
5.373076 6.5012946 1.0311399 10.5
5.2687716 6.5199552 1.5453383 12
5.4512491 6.4987588 1.7352124 12.5
5.3881898 6.5184312 2.2813137 14
5.4271703 6.6474276 2.5492113 15
5.6972904 4.7411041 0.28219566 8
5.6032896 4.9302778 0.40160328 8
5.891397 6.4990101 0.38903382 8
5.7132773 4.8411698 0.45859051 9
5.9283738 6.2817817 0.46967164 8
5.7458754 6.5030165 0.59072131 8.5
5.7138128 6.4972548 1.1501544 10.5
5.7942863 6.4978514 1.3973087 11.5
5.7065697 6.5003014 1.8510777 13
5.8646989 6.5122561 2.196866 13.5
5.7481627 6.5828056 2.5690737 15
6.382339 6.8808098 1.1588173 10
6.1302886 6.6730595 1.4766289 11
6.3892713 6.8804059 1.7739122 12
6.378098 5.2425117 2.3331604 15
6.3681889 6.7681847 2.4500802 14
6.2701941 6.7931457 2.4210484 14
6.1901598 6.6395073 2.6329796 15
6.7822466 3.6410565 -0.0060894522 7
6.7972317 3.5853362 0.096578576 7
6.5943151 5.0390706 0.2316754 7.6666665
6.6323299 5.2696395 0.24219787 8
6.7864432 6.9158106 0.22355793 8
6.735178 3.5625694 0.5736236 9
6.7581968 3.6729968 0.46900576 9
6.5092688 5.1930819 0.76063842 9
6.6203341 6.8854179 1.200791 10.5
6.5242968 6.8848 1.5425597 11.5
6.6782689 6.8821578 1.7913182 12
6.6760941 5.2504778 2.3725533 15
6.5972238 6.8674788 2.1907554 13
6.6136541 6.6420779 2.6827784 15
6.6551933 6.8928113 2.4764225 14
6.906168 3.1514757 0.40819314 8
6.8182144 3.6442347 0.29484287 8
7.0227675 6.8837333 0.28395042 7.6666665
7.0766759 6.8842325 1.1270752 9.666667
6.9717937 6.8833971 1.5686495 11.5
6.8872547 6.9000297 1.9328336 12
7.0357184 6.8309374 2.2117662 13
7.0671487 6.6431394 2.7364171 15
7.0436883 6.9025226 2.5372303 14
7.4061666 3.1013303 0.39617851 8
7.2403078 5.0502129 0.30849928 8
7.5342507 5.2541537 0.95728803 10
7.3550105 6.8810606 1.1048459 9.666667
7.4007964 6.8837695 1.538496 11
7.391252 6.8974776 1.9522257 12
7.3713031 4.543004 2.3087764 14
7.487072 4.8444571 2.3228214 14
7.5221004 5.2563996 2.3189692 14
7.521215 6.818409 2.2419586 13
7.3731437 6.6345043 2.7716331 15
7.3776841 6.8251529 2.527199 14
7.7408323 6.8719134 1.207234 10
7.8072891 6.8864331 1.6069603 11
7.9442501 6.9071698 1.9782597 12
7.7090402 4.3602376 2.3162868 14
7.7730508 4.5472188 2.3285334 14
7.9820938 4.9602809 2.1998014 13
7.9322138 6.8696532 2.2819562 13
7.7708254 6.6568241 2.6542456 14.333333
8.345192 2.9112787 0.060447123 7
8.1161594 3.2237713 0.5417859 9
8.2962942 6.8944941 1.5642009 11
8.335247 6.9096479 1.9977893 12
8.1800318 4.3127079 2.3636024 14
8.3212109 6.8789034 2.3114431 13
8.0781698 6.67769 2.56355 14
8.1571913 6.9009538 2.5139647 13
8.3470402 5.6784525 3.1202519 15
8.5908928 2.9950047 -0.210987 6.3333335
8.4261703 2.6866012 0.10532945 7.5
8.6413298 6.8765793 1.2291255 10
8.6822939 6.893177 1.5741597 11
8.577261 6.8890328 1.8655504 11.5
8.4050894 4.9653502 2.2458916 13
8.7392082 6.8897476 2.344166 13
8.5116568 6.6360998 2.6504591 14
8.6505251 5.4441104 3.1114635 15
8.8906641 3.4680686 0.65183324 8.5
9.0828314 6.8692827 1.2191521 10
9.0133047 6.8886008 1.4697344 11
9.0941048 4.765234 1.9778981 12
8.9111156 4.9328732 1.9916313 12
9.1512432 6.8771801 2.0299635 12
9.1690521 4.3635187 2.2130182 13
9.0510731 4.8139038 2.2857513 13
9.1732044 6.8906751 2.3755996 13
8.9001808 6.8380146 2.5633404 13
9.1950006 5.0498457 3.1070967 15
8.9980106 5.2232189 3.1155245 15
8.8561249 6.6726089 2.966356 14
9.2071428 3.371381 0.79407966 9
9.5083303 6.8777699 1.2273667 10
9.4932909 6.8654919 1.5928377 11
9.4071617 6.6513391 2.6298597 13
9.5938826 3.2582901 3.0725901 15
9.5289793 4.6566672 3.0751147 15
9.3119888 4.8271084 3.0750904 15
9.2381191 6.6478043 3.0095603 14
9.9783754 6.8943663 0.83629245 9
9.9683304 6.8659682 1.2248765 10
9.9562893 6.8629193 1.6046591 11
9.6227531 6.8672934 1.9314183 11.5
9.6270456 4.3224554 2.2571404 13
9.7935925 5.4537945 2.5098145 13
9.9569521 4.2911243 3.0709438 15
9.8199654 4.5139055 3.0948858 15
10.21423 3.7755105 0.25334167 7.5
10.289828 3.3266149 0.57459223 8.333333
10.339188 6.7067337 2.4324687 12
10.089215 6.8680134 2.258805 12.5
10.277197 3.3443019 2.5413287 13.5
10.279224 3.8056095 2.574656 13.75
10.247991 4.2204928 2.6760566 14
10.251679 4.497498 2.66556 13.666667
10.258299 5.0303836 2.6403046 13.5
10.241042 5.2187099 2.8397818 14
10.038161 6.6340718 2.6266787 13
10.333902 3.3352938 2.9455547 15
10.255922 3.7160892 3.006712 15
10.131942 4.0848999 3.0592458 15
10.292056 5.5328903 2.9129562 14
10.593394 5.3761611 -0.26785228 6
10.469331 6.8630891 1.2235529 10
10.525751 6.8587856 1.9460489 11
10.765027 4.2721395 2.379806 13
10.591039 4.4777188 2.3964622 13
10.730163 6.2780218 2.3867919 12
10.667178 6.5762086 2.4356852 12
10.654958 3.4758835 2.5161479 13
10.500972 3.6889601 2.5216815 13
10.926306 6.8673444 1.465682 10
10.973241 6.8573122 2.0346529 11
11.263222 4.0591178 0.48350069 8
11.517238 6.8541365 2.0665736 11
11.998327 4.3148255 -0.3191196 6
11.727069 4.5223355 2.1694562 12
11.741084 4.8400912 2.2229228 12
11.869226 6.8901396 2.1771884 11
12.250285 6.916975 1.6765083 10
12.090234 6.8389301 2.0979412 11
12.558224 6.8931212 2.2159791 11
13.039863 6.5479994 0.73408699 8
13.04418 4.2436066 0.98673564 9
13.049198 4.5001254 0.97222805 9
13.059256 5.4669113 1.0481633 9
13.062774 5.8662019 1.1298903 9
13.060315 6.5577483 1.1820961 9
13.034141 4.2089882 1.330139 10
13.048156 4.5369606 1.3748516 10
13.056173 4.8688984 1.4200792 10
13.047199 5.372262 1.4886293 10
13.061228 5.8944645 1.5596341 10
13.060266 6.6177115 1.658825 10
13.047167 5.1568251 1.6562216 10
12.866282 6.885982 1.6896904 10
13.10222 6.6729712 2.1329303 11
13.2853 6.2918472 1.1485174 9
13.26034 6.4937301 0.91461784 9
13.260252 6.3494401 1.6279603 10
13.520144 5.4582973 2.0515001 11
13.427203 6.3383756 2.0692437 11
13.285218 6.8876505 2.2577078 11
13.758119 4.9875374 1.9957937 11
13.956146 5.4907269 2.0345964 11
13.775173 5.9108405 2.0610271 11
13.701189 6.1686468 2.0870147 11
14.029094 4.5251837 1.9452187 11
14.047214 6.8650613 2.2992287 11
14.256531 5.3681755 3.0301414 12.5
14.769436 5.6995678 -0.45316353 6
14.754116 5.0654573 2.0630317 11
14.513016 5.0128422 2.9476125 12
15.192039 4.6744199 2.5103488 11
15.16908 5.440484 2.6292288 12
15.024 4.8141055 2.9712162 12
