# .PCD v0.7 - Point Cloud Data file format
VERSION 0.7
FIELDS x y z intensity
SIZE 4 4 4 4
TYPE F F F F
COUNT 1 1 1 1
WIDTH 193
HEIGHT 1
VIEWPOINT 0 0 0 1 0 0 0
POINTS 193
DATA ascii
0.4108243 -0.83879012 0.0056323446 145
0.5175789 -0.81504434 0.0050185639 150.5
0.31108984 -0.73350906 0.0030724958 158
0.40734345 -0.72984761 0.0031213344 159
0.50798112 -0.74823612 -0.0021543121 158.2
0.61496365 -0.7589671 -0.0058737663 152
-0.36263901 -0.6491431 0.0068204845 133
0.042899922 -0.65112025 0.0053520515 144.33333
0.1326208 -0.68024224 0.0056996467 154
0.22476944 -0.68436503 0.0075777126 154
0.31985423 -0.6378352 0.0039422088 167
0.44329068 -0.64278358 -0.0023986818 170.22223
0.57371676 -0.66591865 -0.0095959036 167
0.67333317 -0.63563949 -0.014483998 166.8
0.73851174 -0.66304827 -0.018369107 160
-0.19320288 -0.50070357 0.0045399498 140
0.095917344 -0.54934311 0.0028604283 157
0.1770075 -0.55911231 0.0032783612 164.66667
0.25267673 -0.56442004 0.0035925002 172.2
0.33682972 -0.54150867 -0.0010457798 177.39999
0.44145912 -0.55311424 -0.004840659 175.13333
0.55175406 -0.55025113 -0.0085258661 175
0.62735403 -0.53658813 -0.0098802028 170.83333
0.73785865 -0.56720829 -0.021942221 165.5
-0.17512883 -0.48530689 0.0021525314 140.5
0.061643302 -0.42057607 -0.017043088 174.07692
0.14668347 -0.45250452 -0.019458476 174.73334
0.24913079 -0.46823165 -0.019848859 177.44
0.34267873 -0.46555293 -0.023477651 176.72728
0.43220279 -0.45458382 -0.019128749 172.95833
0.53940159 -0.43693736 -0.0081783263 172.58824
0.65158701 -0.45809028 -0.010919632 170
-0.034473866 -0.33341476 -0.017363572 167.07143
0.05810301 -0.34221151 -0.019871632 175.2
0.15262917 -0.33748326 -0.023317847 173.32143
0.25013208 -0.34290311 -0.025447993 164.67567
0.35302335 -0.33836707 -0.019141622 154.72093
0.45907041 -0.34029707 -0.015967935 153.5
0.55423379 -0.3509585 -0.018316029 155.60869
0.61401719 -0.37213051 -0.0075781732 163.66667
-0.032440897 -0.28128111 -0.025487257 172.33333
0.056431916 -0.24861233 -0.038406841 170.88571
0.15292794 -0.25698715 -0.046718687 157.14285
0.25307816 -0.24592368 -0.038666707 146.22223
0.34717783 -0.25310123 -0.044046372 152.84314
0.44554925 -0.24999103 -0.050184537 152.5
0.52708668 -0.25167912 -0.030233091 151.83333
0.092852153 -0.16069502 -0.036646865 148.25
0.15736468 -0.14578058 -0.031799011 146.05769
0.25245747 -0.14587179 -0.034804467 153.20833
0.35297507 -0.14173767 -0.041154735 156.32812
0.44437394 -0.14571337 -0.051075395 157.5
0.50959301 -0.18008503 -0.064485706 152.22223
0.19584058 -0.095612444 -0.030666318 153.66667
0.26148561 -0.077958189 -0.048889633 154.39285
0.36720502 -0.044792823 -0.059658881 161.44595
0.41709262 -0.052990098 -0.051996324 162.90291
0.38641888 0.043286785 -0.056764152 161.58553
0.43290883 0.047244452 -0.046036966 162.625
0.53296512 0.076694459 -0.045499042 161.25
0.60423559 0.096420474 -0.058997646 163.2
0.36242113 0.13593119 -0.051034138 160.6129
0.44702417 0.14019154 -0.05178022 161.09302
0.550919 0.1518387 -0.058641333 164.63077
0.63386983 0.146556 -0.027509246 172.65909
0.74962634 0.17080407 -0.020766363 180.57143
0.81704777 0.19875701 -0.012881961 186
0.26397511 0.27677932 -0.04825275 167.28572
0.36112368 0.25193566 -0.065231249 166.46666
0.44747949 0.25182107 -0.071328811 167.43333
0.54398918 0.2436492 -0.041437112 172.16949
0.64493883 0.25073999 -0.024793699 177.3
0.72873306 0.23694497 -0.018979296 180.53334
0.84685647 0.2480657 -0.013155104 186.89999
0.92298096 0.24600624 -0.021922221 187.5
0.18758452 0.36257496 -0.034184549 176.55556
0.25342137 0.34366062 -0.047819085 173.77777
0.35358 0.33868274 -0.04999071 174.10869
0.4530347 0.32930705 -0.040693231 175.34616
0.54870033 0.34722 -0.038582902 178.05556
0.64527285 0.34858727 -0.024540471 181.59259
0.75378269 0.35694522 -0.012697461 186.18182
0.84600347 0.34127885 -0.0090942075 189.33333
0.92526966 0.33299598 -0.022007637 191
0.15116534 0.46692029 -0.032611605 183.14285
0.24830274 0.45746189 -0.042157371 180.45454
0.36585021 0.46031711 -0.043539658 180.42308
0.45456287 0.44689262 -0.042861372 180.64285
0.53594553 0.43581939 -0.032520287 182.54546
0.65122414 0.45008171 -0.018377518 186.7
0.73488837 0.44303155 -0.019558733 188.57143
0.85329425 0.4618485 -0.024573155 191.83333
0.075445287 0.55986297 -0.024396447 188.28572
0.16401364 0.55916905 -0.023719341 187.71428
0.24776226 0.54665589 -0.025832193 186.5
0.35753965 0.54731143 -0.028121347 186
0.46800828 0.55859721 -0.033404645 187.5
0.54597151 0.54323012 -0.033993185 188.66667
0.63103682 0.53815275 -0.024930384 189.625
0.75799698 0.55565232 -0.037628628 190
0.80669457 0.55050927 -0.029441144 189.66667
0.019048028 0.66572386 -0.035208419 187
0.12798177 0.65635264 -0.035245202 189.5
0.22960474 0.61657709 -0.024521029 189.8
0.35351926 0.63236564 -0.029782301 189.60001
0.48367068 0.65464348 -0.042033013 191
0.57640857 0.67112589 -0.047365736 189.39999
0.65788931 0.64637589 -0.036841407 187.8
0.73867232 0.61154896 -0.027351856 187
-0.030364187 0.75360227 -0.032757055 178.8
0.086846069 0.76184052 -0.038939778 182
0.14960529 0.74313629 -0.038241107 184.25
0.23645817 0.74502051 -0.044225086 189.33333
0.35771883 0.73815137 -0.04244661 191
0.47514486 0.72509336 -0.045586225 189.2
0.54552013 0.74941057 -0.045433842 185
0.63288099 0.75260389 -0.049537227 179
-0.10971019 0.89602637 -0.031967688 160
-0.075502239 0.83537042 -0.03413067 170
0.055800159 0.84005868 -0.039292239 172.25
0.17432654 0.84939748 -0.041881297 174.5
0.28962386 0.84862369 -0.045779116 175.25
0.40125135 0.84442002 -0.049285531 179.66667
0.50898254 0.82420391 -0.047239412 176
-0.13792022 0.94900548 -0.03739671 158.5
0.015434993 0.94424641 -0.044012494 162.33333
0.14678811 0.96590191 -0.051022444 165
0.28171733 0.92259258 -0.049946912 168
0.40289721 0.90504843 -0.053540789 171
-0.26828408 -0.92420739 0.033695731 122
-0.12128238 -0.95833033 0.030531373 121.5
-0.096215554 -0.91068643 0.028287232 128
0.033941161 -0.93817014 0.028571635 128.25
0.16112497 -0.94438004 0.029761087 128
0.28903377 -0.94070482 0.01427327 130
-0.42310175 -0.89115047 0.042576559 114
-0.37093854 -0.83384496 0.037220899 118
-0.22762577 -0.86702812 0.029026814 130
-0.19317521 -0.81904674 0.023700541 128.5
-0.065783866 -0.85523099 0.020399017 130.5
0.069361359 -0.83983094 0.029073954 135
0.18511419 -0.83939826 0.02794062 134
0.2951929 -0.85737216 0.021144981 135.33333
0.30137071 -0.81477469 0.011929654 141
0.40912983 -0.84792149 0.014221448 143
-0.51196671 -0.77653086 0.025520954 110.5
-0.45233834 -0.72483933 0.022097688 119
-0.32228231 -0.78013343 0.033193279 122
-0.28531361 -0.74009764 0.027200608 129
-0.13611612 -0.736202 0.024716763 139.75
-0.017708076 -0.76231831 0.019412186 134
0.066680983 -0.77552658 0.020378541 137
0.13446462 -0.74040645 0.021370025 140.5
0.21265148 -0.72497541 0.020150241 146.39999
0.30807993 -0.73348475 0.015711721 152
-0.63900071 -0.68433529 0.027567342 108
-0.55322403 -0.62686694 0.023157218 114.66666
-0.41611761 -0.69378948 0.018299667 122
-0.38387927 -0.66626102 0.014385254 128
-0.21509822 -0.66028214 0.030047886 138.33333
-0.16094603 -0.65401119 0.018882608 146.33333
-0.060477488 -0.62944543 0.017120022 140.83333
0.035952069 -0.65936702 0.016693709 143.75
0.13641357 -0.66494775 0.012976813 151.25
0.23534282 -0.62656206 0.017664086 161.5
0.31968257 -0.62230653 0.010763577 169.66667
-0.46273711 -0.56681311 0.014772652 126.75
-0.34100351 -0.55124426 0.022439728 136
-0.2448518 -0.54421943 0.013719443 142.14285
-0.12716861 -0.56414813 0.019188117 141.5
-0.035253767 -0.54423386 0.019344045 141.33333
0.048801295 -0.53603071 0.016277865 150.33333
0.15770057 -0.54129583 0.011637834 163.39999
0.25342172 -0.55188143 0.012264621 170.2
-0.3483955 -0.48928431 0.014730772 137.33333
-0.26100102 -0.42999476 0.014869843 143.16667
-0.12207195 -0.43594936 0.015510716 141.33333
-0.05359748 -0.4467406 0.018288111 144
0.040456779 -0.44207942 0.013023219 159.09091
0.12877892 -0.48181841 0.010961659 165
-0.14845462 -0.3532699 0.017449701 143.55556
-0.063082427 -0.34777352 0.01146475 150.89999
0.020880336 -0.39988735 0.010078755 162
-0.066914417 -0.29958472 0.007085504 150
0.07496956 -0.14579852 0.062641516 141.80769
0.10048584 -0.13714316 0.024931023 136.5
0.28203756 0.15394355 0.070709929 120.53846
0.31783476 0.15118878 0.053254209 125.86957
0.29344404 0.2154074 0.011105816 139
0.74345791 0.26167089 -0.00054842245 182.85715
0.8608883 0.29610282 -0.0034328806 190
0.81473637 0.34882015 -0.0025716536 188.66667
0.030361233 -0.15856487 0.15073571 132.82608
