# .PCD v0.7 - Point Cloud Data file format
VERSION 0.7
FIELDS x y z intensity
SIZE 4 4 4 4
TYPE F F F F
COUNT 1 1 1 1
WIDTH 111
HEIGHT 1
VIEWPOINT 0 0 0 1 0 0 0
POINTS 111
DATA ascii
-4.9822621 2.8314412 0.9239704 12
-5.0052395 2.6549237 1.2686191 14
-4.9365344 3.4623322 0.41150898 10
-4.8508716 3.5548575 1.115979 13
-4.961833 2.6949713 1.4343512 15
-4.8530335 3.5933497 1.4880993 15
-4.5848041 3.7332726 1.3396959 14
-4.4986734 2.2863157 0.22808695 8.5
-4.4728775 3.6782546 0.16200668 9
-4.4698968 2.3327982 0.40799102 10
-4.4635458 3.6722183 0.40180135 10
-4.4606075 3.6760774 0.74029869 12
-4.4637089 3.9261305 1.414656 15
-3.9765837 4.909514 1.3608526 14
-3.6105378 5.3291893 0.21534525 9
-3.5929828 5.4513345 1.2192142 14
-3.5226827 -1.2219195 0.79591417 12
-3.4676106 5.6305523 0.92604208 13
-3.214689 5.8682742 0.23446611 10
-3.122684 -1.5068444 0.51061165 9.5
-3.1165175 -1.51967 0.6495828 11
-3.1761084 6.0190482 0.48105234 11
-2.8180256 -1.8482116 0.66900539 11
-2.783566 6.6409321 1.3207239 14
-2.6573021 6.6976972 0.078249991 9
-2.6756589 6.6162467 0.25554609 10
-2.609719 6.6979184 0.9330492 13
-2.5131266 6.7547216 0.83976316 12
-2.3209345 6.4992666 0.43152037 11
-2.2719071 6.8600769 1.6387842 15
-1.7926124 -0.29545188 0.38352758 12
-1.8052032 6.1217537 1.063918 14
-1.6720531 -2.6082859 0.39869571 8
-1.6917262 -2.5011649 0.5423674 9.5
-1.7449774 6.1344976 0.086669251 9
-1.3957189 5.9248705 0.13275664 10
-1.4809781 5.9464812 0.31312776 11
-1.3028772 -0.58992559 0.37129399 13
-1.2014272 -0.42348635 0.38459271 14
-1.2898139 -0.24511029 0.40640512 14
-1.2782462 6.0062346 0.79186577 13
-1.1092832 -1.4340411 0.51708621 13
-1.1367229 -1.4224663 0.57636571 14
-1.1095159 5.8704672 0.70563769 12
-0.81634516 -1.7627021 0.51562464 12
-0.84355611 5.597703 0.32576141 11
-0.627895 -1.8483874 0.37990952 10
-0.73996395 5.4663863 0.1593385 10
-0.39313409 -1.3231988 0.47378746 14
-0.47719002 5.3990827 0.75432497 13
-0.12383926 4.977232 0.46602535 12
0.20816855 -2.691427 0.57286781 11
0.19069558 4.7944808 0.18174772 10
0.20067634 4.8870697 0.67195362 13
0.21519633 -2.7039125 0.53611571 10
0.40585789 -2.4009418 0.44063652 10
0.25018531 -3.2691693 0.96008468 13
0.24442095 4.8029661 0.35990375 11
0.29665592 4.8012142 0.51964873 12
0.36904764 4.8176398 0.72267497 14
0.45094281 -2.3716583 0.480721 11
0.800547 -2.573657 0.46404132 10
0.65244943 -2.4369974 0.38456044 9
0.79314977 4.9744654 0.18839723 10
0.70606166 -2.6677628 0.82704216 13
0.7435813 -2.1642933 0.80106544 15
0.68034703 5.2370782 0.68595546 13
0.66617155 5.1600142 1.0215181 15
0.98591059 -2.3447385 0.32054797 9
0.88032919 -2.2811182 0.52624172 11
0.94004351 -2.2606037 0.70374185 13
0.96251673 -2.3372335 0.83610821 14
0.88669574 4.9988036 0.3211107 11
1.1803863 -2.0476501 0.29380634 9
1.2050316 -2.0315824 0.5070889 12
1.1637552 -0.74862719 0.44072101 15
1.0461469 -2.2285659 0.81942534 15
1.3588269 -1.8161713 0.30479112 10
1.2540047 -2.0530345 0.46785319 11
1.2761085 -2.0522947 0.73662984 14
1.2947595 7.5762086 0.015711116 9
1.5704201 -1.5247883 0.50964272 13
1.6297303 -1.5158149 0.7477451 15
2.0758445 -0.84518033 0.39558598 12
2.0834146 -0.70734763 0.28250948 10.5
2.0592396 -0.81319833 0.50499415 13.5
2.1036854 -0.66426933 0.42444903 12.5
2.1564331 -0.58771741 0.60247576 15
2.0365243 6.933939 0.0062998286 9
2.2015088 6.8789043 0.38311064 11
2.0928721 6.9911036 0.62395841 12
2.252357 -0.47402483 0.36941448 12
2.218292 -0.54090011 0.55774724 14
2.2402661 6.831677 0.14682621 10
2.2282825 6.9041238 0.90409559 13
2.3354115 6.8706942 1.173203 14
2.2780497 6.9365063 1.3486801 15
2.7864683 2.1647835 0.29053542 11
2.8287976 6.5289531 1.2620208 14
2.8721156 6.4728699 -0.12716262 9
3.2035234 6.2406621 0.076644138 10
3.1290689 6.3163471 1.3092765 15
3.2281566 6.2807088 0.55425221 12
3.4655409 6.1290851 1.0602751 14
3.6995835 5.9254098 0.87236238 13
3.7551663 5.891562 1.2729717 15
4.3382196 5.4252067 -0.089555867 9
4.5307026 0.30736774 0.15174848 9
4.4787397 0.35234836 0.41832411 11
6.7793827 3.6670313 1.5385921 14
7.4790125 2.6327784 1.8332789 15
