# .PCD v0.7 - Point Cloud Data file format
VERSION 0.7
FIELDS x y z intensity
SIZE 4 4 4 4
TYPE F F F F
COUNT 1 1 1 1
WIDTH 526
HEIGHT 1
VIEWPOINT 0 0 0 1 0 0 0
POINTS 526
DATA ascii
-12.841004 -3.673568 2.8428116 13
-13.161006 -3.6765864 3.2604537 14
-11.972004 -3.639385 3.0020502 14
-10.098004 -3.8199604 2.0103042 12
-10.022005 -3.8080525 2.5798252 14
-9.3760042 -3.8107553 2.4435227 14
-8.8200006 -3.7744527 -0.07121484 7
-9.0700035 -3.794719 2.1100447 13
-9.0290041 -2.7657106 2.8233581 15
-8.513999 -3.7716086 -0.044683132 7
-8.4670029 -3.7823043 1.9987313 13
-8.7790031 -3.8027411 2.3185844 14
-8.2370005 -3.7480061 -0.06500341 7
-8.0889997 -3.7528601 0.15902676 8
-8.2370043 -3.7920725 2.2050452 14
-7.9500003 -3.7622437 -0.030459022 7
-7.9280038 -3.76934 1.8995707 13
-7.7670035 -1.7299367 2.3277891 15
-7.2870007 -3.7413561 0.32258111 8
-7.4380031 -3.7565811 1.8104578 13
-7.2700028 -3.7611806 2.0073233 14
-7.1360006 -3.7346568 0.69304734 10
-6.9255033 -3.7470789 1.8277204 13.5
-6.5350003 -3.3424261 -0.01206815 7
-6.2130008 -3.3615289 -0.012356612 7
-6.338501 -3.3656178 0.088378198 7.5
-6.2865005 -2.5083082 0.05375858 7
-5.4850035 -3.7200656 1.850117 15
-4.6400003 2.6653221 0.21727653 8
-4.6549997 3.0443377 0.24409162 8
-4.6585002 3.2702389 0.25848797 8.5
-4.437501 -1.7610765 0.43293962 9.5
-4.6631265 3.0205133 0.48031327 9.5
-4.6715007 3.2426164 0.53768915 10
-4.427002 -3.2995934 1.520584 14.5
-4.6240025 2.6133566 1.3645558 14.5
-4.577003 -3.2975421 1.6497582 15
-4.2625003 -1.8325797 0.23445275 8.5
-4.0430007 -1.5081074 0.30429816 9
-4.3810005 -1.81989 0.4424676 10
-3.7072003 -3.6495762 0.21298486 8.1999998
-3.7583337 -3.4331284 0.14428517 7.6666665
-3.9810007 -1.6496252 0.291767 9
-3.769001 -3.6579051 0.60158217 10.25
-3.8632507 -3.5153644 0.57847959 10.5
-3.7690012 -3.6602397 0.93419462 12
-3.8620009 -3.4976723 0.82436574 12
-3.908252 -3.3474298 1.4161067 14.5
-3.4558008 -3.6466186 0.20850703 8.1999998
-3.4393008 -3.650353 0.64963222 10.8
-3.5085011 -1.8571841 0.79352885 13
-3.2905011 -1.4252372 0.74891704 13
-3.3880014 -3.6481977 1.0076649 13
-3.5200014 -1.8281549 0.97254115 14
-3.5430009 2.2027454 0.97535408 13.5
-3.469002 -3.6613936 1.3739693 14.5
-2.8469999 2.1127796 0.29720846 9
-3.0940008 -1.2013093 0.75879496 13
-2.8820012 -0.74467981 0.71413761 14
-2.8510005 2.1037731 0.4220278 10
-2.8440001 7.7592258 0.65774202 9
-3.0745015 -1.0361917 0.96403724 15
-2.8390007 2.1011133 0.90770203 14.5
-2.8020005 6.3154235 0.93691087 11
-2.8520007 7.7750211 1.0947757 11
-2.8040013 6.2306404 1.548157 13
-2.8720019 7.7706685 1.9035708 13.5
-2.5220003 -2.1826453 0.36851254 10
-2.4723508 -1.7272123 0.35090622 10.5
-2.7640004 -1.5322663 0.32505715 10
-2.568167 2.1961224 0.30213794 9.666667
-2.7430003 3.0986965 0.31536412 9
-2.5913336 3.2305474 0.30921522 9.333333
-2.6949999 4.6396012 0.31683791 9
-2.5839999 4.961081 0.34049276 9
-2.5120008 -3.6341441 0.7031588 12
-2.4890006 -2.1943507 0.62848073 12.5
-2.4802229 -1.7506312 0.60666418 12.833333
-2.7210004 -1.5061648 0.50119847 11.5
-2.5470006 -0.71162343 0.58617502 13.5
-2.6113169 2.1988277 0.57485628 12
-2.6457717 2.5839577 0.60891783 11.75
-2.6944449 3.038331 0.55866516 11
-2.7337224 3.3703289 0.6319918 11.166667
-2.7560005 3.8059902 0.71981829 11.5
-2.7615006 4.1585546 0.71435976 11
-2.7031879 4.6234779 0.58420551 10.125
-2.5927002 4.9772644 0.51619345 9.6000004
-2.5990002 6.5328465 0.79189622 10
-2.6757503 7.8049355 0.72973198 9.5
-2.469224 -3.6425908 1.084613 14
-2.6390011 -1.7722334 0.9327004 15
-2.636126 2.2296288 0.90624321 14.5
-2.6507511 2.5823133 0.96522081 14.5
-2.7303579 2.973526 0.99246329 14
-2.7421262 3.4083378 0.98121989 13.5
-2.755801 3.8182859 1.0603642 13.4
-2.7640007 4.1403661 0.93829274 12.5
-2.7171674 4.5883541 0.91634744 12.166667
-2.7090011 4.9967694 0.95921427 12
-2.7885008 5.5111847 1.0200661 12
-2.7950008 5.9070892 1.001493 11.666667
-2.7955005 6.273541 1.046183 11.5
-2.6197505 6.4893742 0.95612299 11
-2.6400011 7.8461576 1.1187979 11
-2.5607519 -3.6341445 1.2440482 15
-2.736501 3.4045141 1.2708447 15
-2.746001 3.8057845 1.3595188 15
-2.7523766 4.2334228 1.3401979 14.5
-2.7670014 4.6198368 1.3509078 14
-2.7730017 4.9939051 1.4048256 14
-2.7740014 5.3725967 1.4426814 14
-2.7896678 5.7831049 1.3837332 13
-2.7840016 6.131331 1.5865446 14
-2.7515013 6.4548941 1.4404783 12.5
-2.638001 7.8055177 1.4043194 12
-2.7690017 5.0878592 1.6531085 15
-2.7700019 5.3787727 1.7214252 15
-2.7750018 5.7029629 1.7977834 15
-2.7865016 6.188426 1.75207 14.5
-2.6243351 6.4704223 1.870681 14.666667
-2.5905015 7.866303 1.8330123 13.5
-2.2695003 -1.1152395 0.25799817 10
-2.2852499 2.3125949 0.3170217 10
-2.2725 2.4883897 0.28961924 9.5
-2.0570004 3.1759026 0.38510901 10
-2.3210833 3.2476008 0.33415863 9.5
-2.392 5.8221149 0.391938 9
-2.2625008 -1.0938034 0.50206947 13
-2.0709999 3.167882 0.45162714 10
-2.2619998 3.22943 0.40062809 10
-2.3585 5.0691757 0.56756604 10
-2.3693333 5.3839512 0.50899351 9.333333
-2.3610001 5.652441 0.62127537 10
-2.319 6.0269575 0.40555802 9
-2.2880008 -2.0988948 0.80165339 14
-2.3940012 7.8063731 1.3443241 12
-2.1645019 6.5170336 1.9881061 15
-1.9200004 -2.8664434 0.20044661 9
-1.8143753 6.4671264 0.60392815 9.75
-1.6320007 6.3842926 1.000615 11
-1.8720009 6.4888768 1.0437782 11.666667
-1.6385016 6.3927932 1.4856203 13
-1.8285016 6.4748726 1.5065968 13
-1.658002 6.3881359 1.7832026 14.5
-1.8170019 6.4672098 1.759498 14.333333
-1.2690005 -3.4756627 0.22972783 9
-1.3645005 -3.0160632 0.29269969 9.5
-1.4120008 -2.2094018 0.34816462 11
-1.4110006 -1.2133528 0.35746944 12
-1.4325562 -1.0255204 0.32281688 12
-1.5560006 -0.57144135 0.36335531 13
-1.2787509 -3.4783735 0.54945254 11.5
-1.414501 -2.5193081 0.50418741 12
-1.4263896 -2.1731832 0.46360826 12.333333
-1.4205009 -1.8766543 0.56656873 13.5
-1.5150008 -1.2247683 0.5273242 15
-1.4190007 -0.91441995 0.50128913 15
-1.4628893 -0.58347237 0.43621701 14.666667
-1.4290005 -0.33903307 0.44073376 15
-1.2610004 5.2335601 0.56170392 10
-1.319335 -3.4813492 0.96256709 14.25
-1.4080017 -3.1830945 0.97208989 15
-1.5420009 6.3935871 0.99871397 11
-1.3957924 6.4146852 1.0276984 11.5
-1.3590014 6.3967719 1.4735099 13
-1.2900014 6.4182544 1.4791219 13
-1.4060018 6.3912024 1.8037177 14.5
-1.336002 6.4043975 1.7861711 14.5
-0.98658377 -3.5467167 0.14237745 8.1999998
-0.99557042 -3.5439017 0.51001936 11
-1.0685003 5.2958651 0.59213156 10
-1.0183334 6.4259834 0.61029989 9.666667
-1.0975516 -3.5201926 0.95265865 14.25
-1.1530008 6.3717308 1.0212603 12
-0.9652009 6.4260941 1.0123037 11.4
-1.1540016 6.3756976 1.5334183 13.5
-0.95400143 6.4186711 1.4610424 13
-1.1940022 6.3822751 1.9612824 15
-0.99083507 6.4111409 1.7539136 14.333333
-0.54028654 -0.87253898 -0.0020858448 7
-0.53757101 -0.61564666 -0.010250443 6.75
-0.6474092 -0.28368267 -0.0052543916 7
-0.46823183 0.34800604 -0.010450147 6.5
-0.56801099 0.62137902 -0.011588988 6.75
-0.59212542 -3.5681014 0.18389578 8.5
-0.48088264 -1.249247 0.0083695035 7
-0.56714875 -1.0325443 0.005836871 7
-0.72135413 -0.55898899 0.0030888936 7
-0.5383957 -0.33257911 0.01366085 7.6666665
-0.47394934 0.34850356 0.0021521484 7
-0.70304781 0.44081104 0.0015458446 7
-0.74869788 0.83429283 0.0053720223 7
-0.60830647 -3.5694022 0.50791025 11
-0.65800112 -2.8899527 0.75461912 14
-0.50950038 4.3188143 0.58537018 11
-0.62047768 -3.5385478 0.95372856 14.571428
-0.70100141 -2.9417074 0.90399772 15
-0.59725082 6.3683944 0.99567759 11.5
-0.46100089 6.4024725 1.0169101 12
-0.56525141 6.3865662 1.4370269 13
-0.63275176 6.3811469 1.6594777 14
-0.29237425 -0.95104808 -0.0096416492 7
-0.17204551 -0.59829956 -0.012336862 6.5
-0.29992354 0.50890297 -0.012641597 6.5
-0.20312279 -3.5543032 0.22260283 9
-0.17088984 -3.5559535 0.49510938 11
-0.30750039 4.3256626 0.54389197 10.5
-0.25100043 5.1796308 0.62470233 10
-0.083667025 6.4682641 0.64947754 10
-0.19979326 -3.5631921 0.97095644 14.666667
-0.20079251 6.4467621 0.99278879 11.5
-0.23425126 6.4460664 1.3361747 13
-0.2310017 6.4279695 1.6449792 14
0.017711606 -0.53057146 -0.013329238 6.5
0.21425986 -3.5481389 0.18297783 8.5
0.22445728 -3.5480897 0.55751407 11.5
0.25649953 4.3412547 0.60671103 11
0.08099968 6.4741845 0.62266034 10
0.19085081 -3.5544345 0.9535768 14.428572
0.17162415 6.4546924 1.0157789 11.5
0.17916538 6.4470429 1.3587042 13
0.20133162 6.4388952 1.6615734 14
0.63907135 -0.10832912 -0.041256465 5
0.63185591 0.12535083 -0.052374259 4.5555553
0.5534876 -3.5398858 0.18427481 8.4285717
0.78298748 -0.24459805 8.4226172e-05 7
0.61020732 -3.5410404 0.56927276 11.5
0.66799939 4.3838601 0.69192481 11
0.7359997 6.5200782 0.65136158 10
0.60847342 -3.549931 0.97437781 14.5
0.61474913 6.4890213 0.99977404 11.5
0.61574858 6.4724984 1.367566 13
0.57774824 6.4534402 1.6906074 14
1.0437946 -0.51600099 -0.021097878 6.5999999
0.95640349 -0.20232381 -0.016335018 6.5
0.9789933 0.22211507 -0.023723336 6
1.0056981 0.58913267 -0.02998133 6
1.1491947 0.96643442 -0.033249144 6
0.99938482 -3.5321221 0.22007982 8.5
0.95245725 -3.5350087 0.61053157 11.666667
0.95574945 4.3674827 0.64814973 11
0.97899956 4.7685471 0.5756402 10
1.1579995 4.8090377 0.5739755 10
0.97649962 6.5052371 0.64705426 10
0.98806095 -3.5423794 0.98996127 14.5
0.99249917 6.4807563 1.0244627 11.5
1.0541652 6.4801073 1.4033179 13
0.97124827 6.4592848 1.6797296 14
1.5011203 -0.89550138 -0.017446475 7
1.3737288 -0.66293633 -0.018113591 6.6666665
1.4203402 -0.057651207 -0.030707549 6
1.3626981 0.23622413 -0.030091813 6.3333335
1.3183341 0.56770355 -0.031121256 6
1.4468446 1.2846173 -0.028254082 7
1.3947215 -3.5254083 0.27728507 9
1.3876865 -3.5300732 0.67470956 12
1.3549994 4.3930488 0.665838 11
1.2139996 4.5466475 0.56147468 10
1.3714998 6.4985261 0.55861557 9
1.439365 -3.5377162 1.0246193 14.4
1.595499 5.893918 0.98681688 11.5
1.3969992 6.4816933 1.0212189 11.5
1.5879986 6.0871906 1.476475 14
1.444332 6.4733915 1.4562283 13
1.4130818 6.4600091 1.7036555 14
1.8422916 -1.0218846 -0.028146269 7
1.8979148 -0.68637812 -0.0099497158 7
1.6196079 0.56440091 -0.011805 7
1.7145752 1.062696 -0.028103074 7
1.7577766 1.4069053 -0.034741655 7
1.7999341 1.7054832 -0.040245302 7
1.7840469 -3.4628153 0.25245723 9
1.8541796 -1.2767563 0.22823718 9.8000002
1.8114769 -1.1060139 0.28097951 10.75
1.8298987 -3.449759 0.67036837 11.8
1.8199974 -1.2512909 0.52347291 14
1.8738047 -1.091887 0.51100773 13.833333
1.8559998 5.8253636 0.60808694 9.8000002
1.6039999 6.4856272 0.54446989 9
1.8191383 -3.4598262 1.0108652 14.2
1.8081993 5.8233786 0.98375064 11.6
1.8016654 5.8188872 1.4144437 13.6
1.6019984 6.2182212 1.4590353 13
1.7299982 5.8088741 1.6378179 15
1.5999981 6.163712 1.7022591 15
2.3471127 1.5646427 -0.046102948 7
2.1546826 1.8108913 -0.048341755 7
2.0364215 2.1702611 -0.052646279 7
2.1894517 -3.4262669 0.26578599 8.8571424
2.0555439 -1.3577168 0.036271166 7
2.0923698 -0.99670827 0.26333213 10.222222
2.158217 -0.6576128 0.24181545 10.090909
2.1931238 -3.4623177 0.60842842 11.25
2.1103325 -1.5024859 0.66003758 14
2.0885825 -0.94613779 0.53291881 13.666667
2.1692779 -0.6450597 0.53928989 13.818182
2.2483997 5.8448286 0.60620421 9.6000004
2.2162127 -3.4543993 1.0176104 14
2.1865659 5.8379278 0.99060893 11.6
2.1511655 5.8203707 1.3962911 13.333333
2.1689982 5.8142605 1.6641525 15
2.7957122 1.9206843 -0.058427341 7
2.5489624 2.2127302 -0.059491992 7
2.4040866 2.6527472 -0.060673676 7
2.6815109 3.0156953 -0.070447177 7
2.6284578 -3.4837365 0.20827906 8.5
2.6176071 -0.59897333 0.25011447 9.5
2.572582 -3.4904087 0.54276055 10.5
2.6002491 -0.59538341 0.60473055 13.5
2.6176996 5.8699865 0.58717954 9.6000004
2.605165 -3.5005922 0.9467383 13
2.4659994 5.8621798 0.96183914 11.5
2.6205814 -3.5042555 1.2353754 15
2.5724988 5.8372192 1.2398503 13
2.6394985 6.2132144 1.4629655 13
2.7389984 5.898962 1.717678 14
2.6027482 6.0983558 1.7117548 14
3.1286654 2.8042598 -0.07272128 7
2.9538665 -3.4752352 0.21977985 8.3999996
2.9929998 -0.58470041 0.27283761 9.5714283
3.0043743 -3.4781737 0.57285893 10.5
3.0244992 -0.58710641 0.62553823 13
2.9702494 5.8766561 0.56194693 9.5
3.0049987 -3.4934549 0.98847663 13
2.9924991 -0.58950412 0.87235957 15
3.0649996 6.0494428 0.81218094 10
3.0726662 6.4527273 1.0122306 11
2.9737482 -3.4995811 1.2975492 15
2.989749 6.15903 1.5030177 13.25
3.0989988 6.4489622 1.3246936 12
3.0484986 6.0376596 1.7661304 14
3.4502335 2.4408932 -0.072089106 7
3.4457495 -3.451438 0.25506637 8.5
3.3424995 -0.57480901 0.17409781 8.5
3.4424989 -0.57979047 0.57377577 11.6
3.4529996 4.6875138 0.49586928 9
3.4193332 5.8743258 0.60493612 9.5
3.4357488 -0.58611596 0.9027341 14.5
3.3839991 6.3079882 0.88163155 11
3.434499 6.4666591 1.073506 11
3.3763316 6.1935849 1.4795694 13
3.3462489 6.4500732 1.2737101 12
3.3774981 6.0412054 1.7471689 14
3.4689977 6.4705758 2.2146814 15
3.9817667 4.7047348 -0.15651025 6
3.7666001 -0.56519425 0.17455263 8.3999996
3.9664304 4.7580962 0.08942204 7
3.8124995 -0.56994718 0.52847886 11
3.8463333 5.8858948 0.5688538 9.333333
3.7954986 -0.57043093 0.99401879 14.25
3.8909996 6.0307369 0.84618741 10
3.8139992 6.4607797 1.0763232 11
3.8449988 6.1103578 1.4702063 13
3.8269989 6.4556375 1.2839504 12
3.8309984 6.0492444 1.7633315 13.666667
3.7679975 6.4621906 2.2257576 15
4.1804862 1.7204667 -0.091875851 6
4.1589994 -0.55683225 0.23384726 8.666667
4.276999 4.3796182 0.25931072 8
4.2444992 4.6630554 0.27686742 8
4.0359998 4.9798036 0.31052744 8
4.2489986 5.5097179 0.31801808 8
4.3569989 -0.56002921 0.47755066 10.5
4.3829994 4.3670125 0.49751475 9
4.2989993 4.5981107 0.59097672 9.5
4.2076659 5.0088577 0.52622348 9
4.2554994 5.4199967 0.53584391 9
4.1874995 5.876308 0.60798812 9.666667
4.2599974 -0.56249243 1.036777 14
4.3119988 4.5083332 0.82075679 11
4.1553316 6.463737 1.0434412 11
4.3579979 6.1085176 1.4750214 13
4.2187486 6.4632998 1.3060271 12
4.2109976 6.055923 1.7587655 13.5
4.195497 6.4698009 2.2503457 15
4.5849991 -0.55188632 0.17333812 8
4.5101695 4.2090039 0.1964898 7.75
4.4249983 -0.56256688 0.74920046 12
4.5574994 4.1550694 0.45785794 9
4.6047487 4.4709878 0.70445013 10
4.5319991 5.9008641 0.64519566 9.5
4.448998 -0.53390598 1.1213073 14
4.7539983 5.9062719 0.94701391 10.666667
4.7289982 6.126513 1.0501206 11
4.494998 6.4757786 1.0312955 11
4.6924987 -0.57113463 1.2880499 14.5
4.7809978 5.8831286 1.5566272 13
4.7429981 6.1616111 1.3980743 12.25
4.5319982 6.4691424 1.316049 12
4.7574973 5.9534187 1.7756163 13.5
4.5464978 6.0501251 1.8799431 14
4.645997 6.4738355 2.2795396 15
4.9449663 3.6294138 -0.10017364 6.5
5.1379995 -5.0193758 0.16245331 8
5.1223321 -4.6150913 0.164868 7.6666665
5.0836654 -4.3100262 0.18822208 8
4.8229995 -0.54249895 0.031441782 7
5.1505108 3.8177695 0.041189861 7
4.8409996 4.1265512 0.19455092 8
5.1313314 -4.919826 0.53975034 9.333333
5.1256642 -4.5872951 0.6137569 9.666667
5.0719986 -4.2781568 0.58522564 9.5
5.0119987 -0.54607791 0.56233126 10.5
5.1039987 4.3562088 0.70823783 10
5.0594993 4.5817499 0.67550212 9.5
5.0599995 5.7594929 0.79434526 10
5.1589985 -5.0757489 0.88892919 10.666667
5.1417975 -4.6243768 1.0098329 11.4
5.0814981 -4.2199574 0.90448844 11
4.9669986 -0.55085903 0.90270662 12.5
5.0709991 4.3574677 0.86904484 11
5.0262489 4.5773153 1.0171783 11.25
5.0324988 5.0330105 1.0784204 11.25
5.0309982 5.4209356 0.97914511 11
4.9839983 5.8038254 0.94876283 10.75
5.1449971 -4.8910856 1.5377008 13
5.1359973 -4.5636797 1.5122114 13
5.080997 -4.2132354 1.4794277 13
5.0289979 4.3998075 1.4200758 13
5.0266652 4.5272527 1.3056763 12.333333
5.0308733 4.9590092 1.4060425 12.5
5.0333309 5.3643003 1.4460564 12.333333
4.9576645 5.772964 1.36204 12
5.1589966 -4.9385276 1.8726803 14.5
5.1472473 -4.6170335 1.8283479 14.5
5.1066632 -4.2688756 1.757097 14.333333
5.0319977 4.3779364 1.6098222 14
5.0343313 4.5948906 1.7179046 14.333333
5.0329976 5.002708 1.7244382 14
5.036664 5.409903 1.7305614 13.666667
4.9396644 5.8269506 1.7301501 13.333333
5.0099969 6.4817638 2.3056769 15
5.3914995 -0.53251755 -0.026277643 7
5.4436426 -0.23799852 -0.05201311 6.6666665
5.3155942 0.32069862 -0.11017282 6
5.559 0.5101558 -0.11962936 6
5.4663253 0.9485023 -0.10324468 6.5
5.445394 1.4463292 -0.080437921 6.6666665
5.5340004 1.7785524 -0.025864236 7
5.403657 2.1511729 -0.079191238 6.5
5.2176332 2.946419 -0.13494472 6
5.4792213 -0.48181182 0.26695684 8.666667
5.5494995 -0.16934198 0.19097525 8
5.5447998 0.16909906 0.19087531 7.8000002
5.5366664 0.64331305 0.17803486 7.8333335
5.5379987 1.0175779 0.23143916 8.3999996
5.5350833 1.3974831 0.26124898 8.5
5.5282993 1.7656357 0.23078513 8.1999998
5.4995961 2.1902649 0.16369811 7.6666665
5.5174665 2.596967 0.20639578 7.8000002
5.4224472 3.0353346 0.21465233 7.875
5.4623337 3.5082059 0.25496355 8
5.362999 3.7046428 0.27703774 8.3999996
5.3489995 4.1041837 0.23248002 8
5.4769998 4.462882 0.15351911 8
5.4812489 -0.51021725 0.56564873 10
5.5575938 -0.23683038 0.6062876 10.142858
5.5462489 0.20050083 0.56545031 10
5.5423117 0.58359867 0.592345 10
5.5415707 1.0061195 0.58441293 10
5.5341988 1.4293311 0.63080233 10.2
5.5313115 1.8225913 0.60192227 10
5.5257134 2.2154908 0.61069828 10
5.5239987 2.5642831 0.63478041 10
5.4154987 3.045953 0.60799879 9.5
5.4119987 3.5775354 0.74226725 10
5.3667989 3.7593889 0.60656112 9.6000004
5.330749 4.1605477 0.55999923 9.5
5.4544988 4.5780087 0.51439613 9
5.540998 -0.51823795 0.98092502 12.5
5.5600724 -0.22839729 0.98495102 12.2
5.5561657 0.22446194 0.98419106 12
5.5519991 0.60130942 1.0115842 12.333333
5.5492988 0.99149066 1.016663 12.2
5.5405703 1.4229249 0.9902634 12
5.536232 1.7766154 1.0096002 11.8
5.5316987 2.2130673 1.0016912 11.6
5.5278978 2.6236947 1.0002372 11.6
5.4364977 3.0400116 0.9524312 11.5
5.3554983 3.4295144 1.0697776 11.75
5.3632126 3.8413353 1.0497725 11.428572
5.2369986 4.0086308 0.97202605 11
5.444665 4.4725103 1.0538126 11
5.550499 -0.45981023 1.4451747 14.333333
5.5726223 -0.20650126 1.4372751 14.5
5.5695972 0.20152129 1.4662617 14.4
5.5609984 0.66359013 1.3613887 14
5.5565219 0.96909863 1.4072678 14
5.5496655 1.3466601 1.4216765 14
5.538898 1.8068922 1.3730383 13.6
5.5404987 2.1949978 1.353911 13.5
5.5317893 2.622551 1.4264908 13.5
5.4164152 3.0473614 1.3892019 13.333333
5.4622478 3.4769168 1.4054916 13.5
5.3183651 3.7951605 1.4208993 13.4
5.4659977 4.3737807 1.3393805 12.5
5.4468317 4.5045319 1.4050044 12.666667
5.3544965 -5.8482232 1.96167 14
5.5634971 -0.49480152 1.6699353 15
5.5749974 -0.20002508 1.6853342 15
5.5632467 0.64766628 1.6281509 15
5.5529976 1.0299611 1.6674482 15
5.5492477 1.4176992 1.6678678 15
5.5464978 1.7624257 1.7033907 15
5.5414982 2.2010345 1.72883 15
5.5389972 2.620647 1.8282772 15
5.4835973 3.0479925 1.7708722 14.8
5.4194975 3.4701462 1.7519222 14.5
5.3031983 3.8597836 1.8043933 14.4
5.4769974 4.3714414 1.8558143 14
5.4779978 4.5654283 1.6837996 14
5.3599963 -5.9033422 2.0220058 14
5.4019971 -5.5830445 2.0304093 14
5.3819971 4.3074422 2.0273864 15
5.5264974 4.5527496 2.1189108 15
5.5222473 4.9886274 2.2150316 15
5.5103307 5.4959979 2.2556443 15
5.5059977 6.1573548 2.2645469 15
5.3844962 6.4775386 2.3323636 15
5.599999 -6.267767 -0.001168563 7
5.6059999 0.74154407 -0.13403319 6
5.7114987 -6.1682372 0.096448369 7.5
5.7139983 -6.045167 0.70052534 9
5.6812477 -6.1424503 0.94765639 10
5.7249975 -5.9977331 1.0255408 11
