# .PCD v0.7 - Point Cloud Data file format
VERSION 0.7
FIELDS x y z intensity
SIZE 4 4 4 4
TYPE F F F F
COUNT 1 1 1 1
WIDTH 120
HEIGHT 1
VIEWPOINT 0 0 0 1 0 0 0
POINTS 120
DATA ascii
-4.1545701 5.3235168 1.5191305 13.5
-3.408088 -1.710488 0.2858558 9
-3.543963 2.7002242 0.32339531 9
-3.5668135 3.4338858 0.36925262 9
-3.5980265 4.3789339 0.30400631 9
-3.5620337 3.0463476 0.6087212 11
-3.5810494 3.5291929 0.60400152 10
-3.5587869 3.8369215 0.68432713 11
-3.5699654 4.0658541 0.62966102 10
-3.5575449 4.6155777 0.75854152 11
-3.5657477 2.267036 1.0036352 14
-3.5260179 2.5566566 0.92068189 13
-3.5452452 5.5784392 0.8502996 11
-3.5175683 2.7277596 1.0585274 14
-3.5732846 3.3337283 1.1458979 14
-3.4466124 5.7348394 1.0445246 12
-3.5321267 5.4751892 1.8077531 15
-3.3427255 -1.7134875 0.39705256 10
-3.3162024 5.7696328 1.4771041 13
-3.3917739 5.748179 1.6087459 14
-2.8390186 -1.6766076 0.61319232 12
-2.6917975 -2.0986621 0.37391654 10
-2.7144144 -1.7057956 0.33801362 9.5
-2.7090797 -2.0751595 0.59421164 12
-2.4290957 -1.9163266 0.89586538 15
-2.5243499 5.0282221 0.81666785 11
-2.5610762 5.6796088 1.8215201 15
-2.2958319 -2.0984902 0.36257815 10
-2.3661687 -1.9343057 0.25922886 9
-2.3979328 4.4166255 0.33069664 9
-2.3051286 -2.1026802 0.57859212 12
-2.3908365 -2.0950549 0.66836959 13
-2.3874238 -1.786726 0.79514247 14
-2.3744619 5.6962285 1.3959525 13
-2.1255221 1.1999122 0.45693126 12
-2.1283374 5.2381291 0.81986243 11
-2.0802662 5.6800671 1.455524 14
-1.8110998 5.0943346 0.58548689 10
-1.7127082 -2.0875766 0.24616987 9.5
-1.7956766 5.1553817 0.40834168 9
-1.6723987 -2.080754 0.80161935 15
-1.6950356 5.8866887 0.91164261 11
-1.5510722 6.12607 1.5141706 14
-1.2508982 6.1414165 0.95316428 11
-1.2904944 6.1321602 1.3841511 13
-1.0109564 -1.2998353 0.32218871 12
-1.0036286 -1.2824496 0.42287657 14
-1.0953953 6.1560392 0.49323046 9
-0.83121741 -2.0647643 0.24194689 10
-0.98902017 -1.8991498 0.30266511 11
-0.99813539 -1.7243384 0.26731908 11
-0.91980642 -1.2831111 0.36815545 13
-0.86845058 -2.0752573 0.47744974 13
-0.85106707 5.869288 0.59371841 10
-0.81799698 5.8720288 0.92216897 12
-0.80910218 5.8611884 1.503841 14
-0.63966125 -2.0656984 0.41237968 12
-0.72489828 6.1826038 0.95225459 11
-0.78579211 5.8930702 1.2920368 13
-0.54350346 -2.063345 0.4606719 13
-0.4433462 -1.9854537 0.50874972 14
-0.52189028 -2.055218 0.64883095 15
-0.29250345 -1.9828415 0.46023545 13
-0.098508514 -1.9847115 0.45837736 12
0.12859958 -2.007776 0.49117911 13
1.220984 6.1829195 1.5269121 14
1.5031292 6.1904821 1.2640893 13
1.768793 -3.3652756 0.54811317 11
1.8085512 6.1840534 1.0861397 12
1.8190258 6.1812878 1.5388688 14
2.2619088 -0.81735379 0.27549073 10
2.2631009 -0.90672243 0.48802376 13
2.2620909 -0.83977908 0.63835031 15
2.528229 6.1834354 0.98605728 11
2.692595 6.1898198 1.7122176 14
2.8899448 2.9116967 0.28495458 9
2.8832338 3.7088187 0.37344328 9
2.9185879 2.7314787 0.48221084 10.5
2.8814542 3.812655 0.44100633 10
2.877655 4.714633 0.50251734 10
2.8734534 5.0289721 0.44073033 9
2.9359875 2.7559648 0.75838912 12.5
2.8909695 3.3862977 0.59938455 11
2.8883836 3.7298546 0.7262817 12
2.8810947 4.6132026 0.63761026 11
2.8651807 6.0972705 0.66373247 10
2.9032018 2.7488835 0.97766453 14
2.8825796 5.6398792 0.7862252 11
2.9125581 2.7370617 1.0870022 15
2.8836508 3.5794969 1.1154324 14
2.8952503 4.8817086 0.99226207 12
2.9089367 4.4562454 1.2030883 14
2.881669 6.1717863 1.4275652 13
2.8644891 -11.295835 1.6823945 10
3.4127576 2.7461715 0.22658183 9
3.4527059 2.7366686 1.1315122 14
5.1680727 -0.040236317 0.62802452 11
5.1659217 -0.067779578 0.88859832 12
5.5561457 -3.6780555 1.5713948 14
5.5437427 -3.4901118 1.7545785 15
5.7319541 2.6165681 -0.023725672 7
5.6997867 2.6651456 0.2317787 8
5.7272944 2.5703239 0.38770565 9
5.7113838 2.4102495 0.72238934 10
5.7200155 2.4479392 0.91607207 11
5.7389331 2.5940881 1.197958 13
5.7533069 2.462086 1.6194053 14
5.7488227 2.3871281 1.7777667 15
5.843749 -0.37050021 -0.086506076 7
5.8474269 -0.27812392 0.12166232 8
5.850471 -0.2341397 0.44195929 9
5.8066278 3.2288764 0.4898659 9
5.8142748 3.0847628 0.68840504 10
5.8468213 2.1883447 1.1631026 12
5.8564229 0.66742748 1.3481472 14
5.8459821 1.8734162 1.2127548 13
5.8601665 1.1793293 1.5763259 15
5.8597393 1.3387139 1.4450005 14
5.9301724 -7.5903287 2.1936486 13
5.9816666 -6.074893 2.0379682 14
