# .PCD v0.7 - Point Cloud Data file format
VERSION 0.7
FIELDS x y z intensity
SIZE 4 4 4 4
TYPE F F F F
COUNT 1 1 1 1
WIDTH 690
HEIGHT 1
VIEWPOINT 0 0 0 1 0 0 0
POINTS 690
DATA ascii
-5.6018167 -1.9607662 1.2936634 13
-5.6222005 -1.7823538 1.7898958 15
-5.5386143 -2.1659701 0.6394279 10
-5.5021892 -2.1352732 1.025685 12
-5.5492668 -1.9880852 0.8482756 11
-5.5151916 -2.2005227 1.383145 13.5
-5.5175714 -1.8182698 1.4455264 14
-5.4852872 -2.1538014 1.7629963 15
-4.2594204 2.1146843 0.1845489 8
-4.2485113 -1.986207 0.61771506 10.5
-4.1559305 -0.94651574 0.64220566 11
-4.1642847 -2.0769656 1.1479827 13.666667
-4.2327409 -1.934495 0.95649713 12.666667
-4.2494612 -1.2420855 1.0936509 14
-4.1465192 -1.0275146 1.1267071 14.333333
-4.0387759 2.2621787 1.1495942 14
-4.1412005 3.9641542 1.1723596 13
-4.0881262 4.1064744 1.1949217 13
-4.1584244 4.6639509 1.1034715 12
-4.1612096 5.123394 1.1694549 12
-4.1663857 -2.0941653 1.346841 15
-4.2460542 -1.1912751 1.2184095 15
-4.1697388 2.1281013 1.3145221 15
-4.1526589 3.9617577 1.3387512 14
-4.1362896 4.2003326 1.3369799 13.5
-4.153368 4.6706657 1.3895621 13.5
-4.1550431 4.9883552 1.4251119 13.333333
-4.0909691 5.3757915 1.365971 12.8
-3.6294384 -1.6393422 0.25515103 8.5
-3.8213804 1.6661348 0.19595385 8
-3.9142945 2.2591133 0.22251697 8
-3.6031048 3.9931159 0.2799111 9
-3.6123321 4.341629 0.21006653 8
-3.6100676 5.0333867 0.29120123 8.5
-3.6011992 5.2369976 0.2506164 8
-3.7853577 2.2647569 0.66326064 11.5
-3.6076961 5.0991721 0.5586803 9.5
-3.7951524 -2.1118934 1.0854603 13.666667
-3.7907135 2.2619202 1.0147175 13.5
-3.8563831 4.1674151 0.96218538 12
-3.714479 4.5318041 0.93247491 12
-3.6002417 5.3302345 1.0051168 12
-3.7569647 -2.1204164 1.2452661 15
-3.7018416 2.2595954 1.2821062 15
-3.6591449 3.3188934 1.4958317 15
-3.7138603 3.6922898 1.5831039 15
-3.8758934 4.3328686 1.5731876 15
-3.7850215 5.4038939 1.4412682 13.2
-3.7137303 3.8688502 1.6229441 15
-3.736222 4.6141529 1.6253607 15
-3.7406919 4.9459491 1.7881384 15
-3.7137163 5.3168306 1.780708 15
-3.3956769 -1.6861184 0.30981794 9.333333
-3.5709431 3.0627406 0.32950711 9
-3.5704095 3.3386505 0.33996996 9
-3.5885611 3.67169 0.2933431 8.5
-3.5904417 4.2314019 0.32997134 9
-3.5823479 4.6412783 0.28199354 8.5
-3.5718508 5.2657194 0.35759664 9
-3.3725178 -1.6962941 0.58362335 11.2
-3.5651877 2.3047597 0.56185097 11
-3.5332623 2.5957196 0.53875357 10.6
-3.5555122 2.9458735 0.59831297 10.833333
-3.5666175 3.4421051 0.64425015 10.8
-3.5701778 3.8223042 0.56434345 10
-3.5797679 4.1660886 0.65177083 10.5
-3.5783544 4.5513878 0.63287455 10.2
-3.5682464 4.974257 0.74795651 10.333333
-3.5755033 5.427629 0.77128977 10
-3.3731055 -2.109952 1.0784062 14.4
-3.534601 2.3505516 0.97179693 13.5
-3.520189 2.568573 1.05255 13.8
-3.5543194 2.9772079 1.0414795 13.333333
-3.5769827 3.36342 0.93140715 12.5
-3.5682251 3.8196886 0.85702688 12
-3.5737734 4.6475911 0.84189159 11
-3.5823925 5.1084881 0.80536467 11
-3.5644493 5.4640536 0.94140673 11.5
-3.4200096 5.7018132 0.92255986 11.2
-3.5288184 2.4006836 1.2890306 15
-3.503036 2.7478545 1.221935 15
-3.5091219 3.0022058 1.2724304 15
-3.5296347 3.3616641 1.3453704 15
-3.5613596 5.4748521 1.5060022 13.5
-3.4832222 5.6596236 1.4712886 13
-3.4355769 5.6911583 1.7716885 14.666667
-3.0202808 -1.6979002 0.30775005 9.1999998
-3.1058826 4.921073 0.34720054 8.666667
-2.9628735 -1.6908849 0.63230991 12
-3.0676029 4.9354935 0.43300804 9
-3.0212986 -2.1034994 1.0188136 14.6
-3.0040457 5.7074633 0.97890067 11.666667
-2.9966571 5.6921263 1.4776695 13.5
-3.005033 5.6841698 1.8355837 15
-2.6434073 -2.0646644 0.30172873 9.5
-2.654603 -1.8543196 0.3260524 9.6000004
-2.5626342 -2.0617039 0.59919643 12
-2.6596189 -1.8413866 0.57839257 11.857142
-2.4926727 -0.63940454 0.56507725 13.333333
-2.6382816 4.1082916 0.530918 10
-2.7264397 4.6123862 0.48260057 10
-2.5950959 4.8910499 0.55714762 9.8000002
-2.4010813 -2.0920544 0.90033299 15
-2.3991263 -1.7994305 0.88632172 15
-2.6255116 5.70085 1.0741099 12
-2.6221337 5.6918745 1.4331667 13.5
-2.7350616 5.6821222 1.826409 15
-2.2144008 -2.0928743 0.26901197 9.333333
-2.3528478 -1.9851562 0.35793436 10
-2.1719244 -0.65887004 0.33369502 11
-2.3218374 1.4849277 0.36036235 10.5
-2.1841376 4.9734464 0.36980733 9
-2.1944599 -2.0930679 0.61090755 12.5
-2.3656445 -1.9048449 0.67616707 13
-2.1132493 -0.83368361 0.61782575 14.5
-2.092674 -0.63324136 0.56416154 14
-2.0701547 1.1119815 0.64629877 15
-2.0968843 1.4133303 0.69104701 15
-2.2739573 2.0062349 0.63053042 13
-2.391537 4.4441543 0.45221108 9.5
-2.2286596 4.9612312 0.56779414 10
-2.1954267 -2.0886469 0.87061208 15
-2.3521292 -1.9513828 0.88546139 15
-2.2753775 5.0394254 0.85912347 11.333333
-2.2818038 5.4313831 0.98399121 12
-2.1264148 5.7608671 0.9878577 11.75
-2.0963252 6.0061746 1.1303513 12
-2.1788843 5.6890903 1.4092455 13.4
-2.0644271 6.1193705 1.4828372 13.5
-2.1856039 5.6734715 1.8125292 15
-2.0737519 6.1148763 1.9203252 15
-1.813761 -2.0878704 0.30265304 10
-1.956697 -0.45924929 0.32645503 11.5
-1.8322499 -2.0877228 0.57908952 12.5
-1.8915652 5.097527 0.44264573 9.5
-1.7947655 5.3892822 0.53444743 10
-1.7382579 5.9065394 0.53653884 10
-1.7564642 6.1040177 0.5345906 9.6000004
-1.8360837 -2.0858443 0.82194448 15
-1.8096277 5.8496089 0.93485177 11.333333
-1.7361207 6.0667462 1.0391207 11.666667
-1.6718435 5.8977337 1.4311445 13.5
-1.9413924 6.1319494 1.4932255 13.5
-1.9117448 6.1276717 1.9223052 15
-1.3655705 -2.0795562 0.669846 14.333333
-1.4401888 5.9200997 0.5572958 10
-1.374037 6.1285205 0.5270313 9.5
-1.488737 5.8733711 1.0030466 12
-1.4156853 6.1270308 0.96761996 11.333333
-1.392338 5.9135957 1.4323463 13.5
-1.4278061 6.087028 1.4421071 13.5
-0.88833755 -2.0583723 0.25630754 10
-0.97043705 -1.8163779 0.29842731 11
-0.95381671 -1.4087528 0.31907725 12.2
-0.95914811 -2.0720196 0.55338788 13.833333
-0.92002583 -1.7971538 0.45435807 13.2
-0.91676742 -1.4387909 0.44833326 14.333333
-0.89899743 5.8788753 0.61513644 10
-1.0985125 6.1493034 0.61075664 10
-0.93142259 5.9234452 0.99636495 12
-1.1055094 6.1543441 0.96981317 11.5
-0.79970992 5.8760214 1.3172674 13
-1.0605228 6.1051278 1.4518441 13.5
-0.40289003 -0.60839707 0.0011210288 7
-0.53522515 0.25072885 -0.00056444207 7
-0.61527431 -2.0620916 0.26066336 10.285714
-0.40583014 -1.8522475 0.36013407 12
-0.56811941 -0.82497746 0.022909349 8
-0.54236633 -0.68500674 0.027472081 8
-0.58187807 0.32300979 0.0096069956 7.5
-0.63151026 -2.0633204 0.51305604 13.5
-0.44607991 -1.9871141 0.43707678 13
-0.58795154 6.1708374 0.62865216 10
-0.77488041 5.9886484 0.95785892 12
-0.5563401 6.1714931 0.93912542 11.6
-0.76820588 5.9424405 1.4719574 14
-0.58877373 6.1790323 1.4379159 13.5
-0.18423839 -0.59335935 -0.0026627323 7
-0.19224153 -1.7563 0.3244051 11.666667
-0.25723147 -1.5961739 0.23664413 11
-0.13203406 -0.94288129 0.068285331 8.75
-0.21913995 -0.67167634 0.036039863 8
-0.21154343 -1.9827503 0.46963575 13
-0.19205984 6.1791439 0.64595705 10
-0.16008113 6.179153 0.94635165 11.6
-0.2013758 6.1820493 1.4188005 13.5
-0.13783875 6.1818285 1.5835671 14
0.094776191 -0.58608919 -0.0098563703 5.6666665
0.11019658 -4.0986342 0.36781478 9
0.13880183 -2.0200849 0.24629337 9.5
0.037012272 -1.8000258 0.23430268 9.75
0.037925694 -0.80048698 0.0032341669 6
0.082632899 -9.3105955 0.80972636 8
0.14155495 -2.0041585 0.47746512 13
0.082720883 -1.9499021 0.45180148 12.5
0.23642462 6.1835861 0.6660586 10
0.32612202 -12.854338 0.96012032 8
0.12571578 -4.2256079 1.141243 14
0.19100881 6.1820941 0.94273388 11.6
0.20594534 6.1833282 1.401556 13.5
0.15908726 -9.2843094 1.8701004 11.666667
0.1859449 6.1820655 1.5933639 14
0.32434264 -11.637982 2.2556589 11
0.64654636 -0.087158702 -0.053002719 4.6666665
0.6010744 0.14729536 -0.064605519 4
0.62543344 -14.087316 0.59502357 7
0.58045197 6.1852984 0.67394882 10
0.73607737 -14.027838 0.94598615 8
0.65027785 -13.993758 1.0076542 8
0.58848804 6.1825852 0.94931656 11.666667
0.61858177 6.1853089 1.4044298 13.5
0.61524779 6.1846123 1.6088775 14
0.52799845 -13.889085 2.1500287 10
0.69022334 -12.613447 2.2185819 11
0.65848172 -11.398884 2.2977197 11.5
0.47529268 -10.635374 2.2398658 12
0.95434827 -0.19748746 -0.029625619 6.3333335
1.0242361 0.18849365 -0.040143587 6
1.1394552 1.5445062 -0.059561007 6
1.1956855 1.6578358 -0.065911829 6
1.1247842 -12.901206 0.24117737 6
1.1070101 -14.01767 0.61773396 7
0.93167478 -13.867621 0.51508206 7
1.0117317 6.1896372 0.73354852 10.5
0.96627283 -13.976524 1.0056257 8
1.0179546 6.1877093 0.96570241 11.6
1.0185015 6.1884542 1.3791047 13.2
0.9757961 6.1833029 1.6231558 14
1.0050975 -13.829309 2.179651 10
1.1781433 -13.167458 2.1932893 11
0.96542263 -11.374498 2.2791073 11.666667
1.389957 -0.53118706 -0.038381543 6
1.2808255 0.2862739 -0.047214426 6
1.399949 0.57414138 -0.052651174 6
1.4894657 1.0078274 -0.055856995 6
1.3910577 1.3935117 -0.06846986 6
1.3962564 1.7604855 -0.074540131 6
1.3889912 2.0515158 -0.079154409 6
1.4277351 -12.922649 0.22559275 6
1.3990386 -13.690512 0.62595892 7
1.2663542 -13.347433 0.72301787 8
1.5691044 -6.8652806 0.64466953 9
1.4483207 6.1935968 0.67064786 10
1.4222485 -13.815636 0.99733752 8
1.4004979 6.1903682 0.95530379 11.5
1.4115679 -32.947495 1.405811 7
1.4180777 6.1908431 1.4018453 13.25
1.4855567 -13.890475 2.0128343 10
1.4163623 6.1848578 1.6427954 14
1.4721107 -13.128085 2.1828537 11
1.3616623 -12.180935 2.1986613 11
1.4065101 -11.297344 2.3051794 12
1.842687 -12.920472 -0.40378478 5
1.9311632 -9.8832788 -0.25824896 5
1.7735246 -6.9355412 -0.1475758 5
1.8580914 -6.7647338 -0.076130249 5.6666665
1.8968967 -0.80411839 -0.036174532 7
1.6745832 -0.68443924 -0.036971539 6.5
1.652514 0.32217509 -0.048846856 6
1.7112662 0.60795122 -0.052213229 6
1.8146466 0.88067514 -0.052433155 6
1.8211707 1.4173506 -0.078055814 6
1.7143614 1.7685531 -0.08486741 6
1.8888702 2.2746015 -0.10531551 6
1.7245462 -12.893641 0.32065988 6.5
1.8208727 -7.093339 0.26620746 7
1.9518796 -6.5806093 0.26802853 7
1.8928039 -3.3857191 0.19313361 8.333333
1.9295912 -3.1946685 0.1789529 8
1.7105452 -7.0727334 0.47287327 8
1.6542788 -6.6913438 0.69802117 9
1.8779985 -3.2725601 0.55347264 11.25
1.9313843 -3.1794245 0.42238185 10
1.7872607 6.1986346 0.61318409 9.5
1.9082717 -13.932356 1.0037105 8
1.9870167 -3.4466431 0.92348582 14
1.8087519 6.1926861 0.96360964 11.4
1.819751 6.1944656 1.3521291 13
1.8095253 -13.899474 2.0026681 10
1.8269349 6.1917305 1.6644151 14
1.8691314 -11.834066 2.1883595 11
1.7238977 -13.408957 2.7310538 12
1.8431811 -12.091356 2.5106657 12
2.1915951 -13.267616 -0.43255168 5
2.2667575 -13.193932 -0.38287207 5
2.1782398 -9.9711657 -0.23512934 5
2.0286193 -8.9386578 -0.1185647 6
2.092618 -6.8151264 -0.11938779 5.5
2.1821806 -0.95463765 -0.052699272 6
2.2707109 -0.57996678 -0.049437862 7
2.2528474 0.24085036 -0.055700328 6
2.1155989 0.6672442 -0.057816401 6
2.1524644 1.0837846 -0.086949676 6
2.3326416 1.3709924 -0.097438164 6
2.1799273 1.8451968 -0.099068098 6
2.0910118 2.5766287 -0.1264948 6
2.3389378 2.9476652 -0.15073916 6
2.1496103 -13.700651 0.18635347 6
2.0707939 -2.9580128 0.2024346 8.5
2.3241484 -2.2183242 0.24164692 9.1999998
2.2348275 -0.9433459 0.22004561 9.5714283
2.2572987 -0.7931264 0.39514348 12
2.2793646 -13.953246 0.57112873 7
2.3173113 -8.5815392 0.70723265 8
2.3093762 -6.3366566 0.57337308 8.5
2.0534015 -5.8331795 0.42786431 8
2.1153953 -5.1704564 0.42585671 8
2.1544855 -3.377826 0.60663539 11.333333
2.2686665 -0.85985565 0.50810266 13
2.2562089 -0.79671067 0.6746341 15
2.1695993 6.2018781 0.61785686 9.5714283
2.2252753 -13.901338 1.0043031 8
2.0910087 -3.3547482 0.92083699 14
2.1832173 6.1928582 0.95234126 11.2
2.1990786 6.1931839 1.4009182 13.166667
2.1354868 -13.874999 1.9903811 10
2.171241 6.1823449 1.6810714 14
2.0120757 -13.015162 2.1711829 11
2.2852914 -11.418531 2.2367523 11.5
2.318953 -13.401006 2.7471647 12
2.7149608 -11.293311 -0.32148314 5
2.6849163 -8.7023983 -0.18209676 5
2.7990384 0.92687631 -0.1097201 6
2.7570286 1.6682777 -0.11981238 6
2.7706032 2.1625776 -0.12592587 6
2.6612432 2.6637306 -0.092125297 6.3333335
2.6664269 3.4525261 -0.14041913 6
2.5805707 -13.356471 0.17346825 6
2.6707413 -8.5009098 0.22469425 7
2.6084766 -5.2331223 0.14303365 7
2.5607018 -5.1164851 0.058701672 7
2.47141 -3.0701232 0.19909669 8.5
2.5400455 -2.0237525 0.26614949 9.5
2.6761069 -1.9013803 0.18239485 8.666667
2.6425347 -0.86314446 0.22069058 9.333333
2.6701887 -0.78898633 0.25835788 9.666667
2.7116141 2.7693193 0.083259627 7.5
2.6401629 3.4950845 0.097134061 7.5
2.5845959 4.6231546 0.12621126 7.6666665
2.5601091 -13.22468 0.49205887 7
2.4734771 -8.4919052 0.75801575 8.5
2.4697492 -7.3331933 0.63652217 8.333333
2.6789074 -7.0254378 0.73604357 9
2.5174458 -6.0275745 0.59435058 8.5
2.6390183 -5.980804 0.69307882 9
2.5344093 -5.1710386 0.42945775 8
2.6189451 -3.744468 0.59349638 11
2.7319398 -2.9252069 0.5915609 11.5
2.6065502 -2.5656745 0.62558359 12
2.5224955 -2.120286 0.45541674 11
2.6475294 -0.82759917 0.5749473 13
2.6708999 -0.78282744 0.65578121 13.75
2.5797801 6.2023191 0.60257715 9.6000004
2.5412827 -13.877501 1.0060695 8
2.6583078 3.8172646 0.94081223 13
2.6965528 6.1924691 0.98287684 11.333333
2.5982928 6.1963038 1.3739733 12.8
2.6249542 -13.859814 1.9794927 10
2.5275614 6.1840324 1.7020078 14
2.522049 -12.486691 2.1620374 11
2.5915947 -11.31664 2.226897 11.333333
2.6209953 -13.40661 2.7596195 12
3.1305881 -9.733181 -0.12976751 6
2.8946199 1.3356819 -0.12554121 6
3.1537905 2.5151598 -0.11469901 6
3.1382957 -1.6613626 0.086038098 8
3.1793189 -1.5927163 0.092949755 8
3.159025 -0.85015911 0.30975008 9.5
3.0081706 2.7427509 0.3028453 9.333333
2.8895376 3.0327251 0.31324837 9
2.886308 3.3929491 0.31951731 9
2.8815746 3.7598615 0.32456195 9
2.8801284 4.1485977 0.3409659 9
2.874686 4.5865245 0.35862201 9
2.8742335 4.9674325 0.37309748 9
3.1442366 -2.4395831 0.68191749 12
3.0415852 -2.2083266 0.63562536 12
3.0999494 -1.7899708 0.44009212 10.5
3.1786375 -0.86704314 0.54876506 12
3.0674508 -0.78451037 0.64523047 13
3.0445871 2.7405133 0.57388037 11.2
2.8943355 2.9873683 0.5582853 10.857142
2.8944557 3.3520365 0.56098133 10.833333
2.8901627 3.797632 0.56648308 10.6
2.8878188 4.2507906 0.55299109 10.2
2.8852537 4.5845227 0.60956454 10.5
2.8797336 5.0504251 0.60331702 10.25
2.8702021 5.4073129 0.46565357 9.333333
2.873733 5.8254213 0.52634847 9.5
2.8450911 6.1678381 0.48278543 9
2.8927991 -13.850976 1.0105532 8
2.9457321 -9.5080462 0.83563739 8
3.0718353 -0.81942844 0.86565036 15
3.1458991 -0.77338624 0.88490587 15
3.0216761 2.7444115 0.96962214 13.833333
2.9051862 3.0121865 0.98023105 13.714286
2.9043865 3.3923414 0.99049628 13.285714
2.9028168 3.7786279 1.0128702 13
2.9035022 4.1638818 1.0389272 12.8
2.8963876 4.5733595 1.034457 12.333333
2.8911719 4.9988046 0.96825343 11.5
2.8880103 5.3838053 0.99504828 11.5
2.8850896 5.7902164 1.0195713 11.5
2.8348856 6.1911974 0.88024837 10.5
3.0619695 2.7338045 1.2129978 15
2.9104939 3.4870825 1.2207975 15
2.9100873 3.8718798 1.2493216 14.666667
2.9099841 4.2406464 1.2943398 14.5
2.9055319 4.6247935 1.3856456 14.333333
2.904875 4.9829388 1.3373759 13.5
2.9001868 5.3684573 1.3819408 13.333333
2.8999548 5.767725 1.4130007 13.333333
2.8858604 6.0835943 1.3839806 13
2.8499565 -12.55212 1.8260646 10
3.1374848 -11.276614 1.680739 10
2.912885 5.7764716 1.6474085 14
2.8586314 6.1915174 1.7229514 14
3.2030072 -11.660686 2.1479676 11
2.9732258 -11.28087 2.2154183 11
2.9045846 6.0957499 2.0156403 15
2.9240348 -13.393987 2.7711887 12
3.4120231 0.7631622 -0.12979862 6
3.4072413 2.1236999 -0.15438248 6
3.2975075 2.6505592 -0.094699591 7
3.4964998 -3.5919092 0.14839716 8
3.575841 -2.1241136 0.25284925 9
3.4160597 -0.81299722 0.24316907 9
3.4636021 -0.77029902 0.17943023 9
3.4200988 2.3865118 0.33137217 9
3.3763127 2.6493018 0.21912241 8.6000004
3.5816545 -3.4234538 0.65620708 11
3.4394813 -0.81856823 0.59342217 12
3.4799726 -0.78037775 0.60006958 12
3.5494845 2.3675659 0.44955164 10
3.3965771 2.6422288 0.57590532 10.818182
3.4843981 -0.8001138 0.88419217 14.5
3.3986604 2.7379673 0.93348885 13.2
3.3968165 2.7314925 1.2423453 15
3.422487 -11.275739 1.6809204 10
3.2463317 -11.300839 2.247427 11
3.3786728 -13.399754 2.7616472 11.666667
3.8444731 1.3257794 -0.1637046 6
3.6325657 -10.874033 0.16974136 6
3.9119098 -5.2227945 0.2739118 8
3.97349 -5.0848494 0.144904 8
3.8446217 -3.8837962 0.23653355 8.333333
3.8177805 -2.40892 0.23375662 9
3.7687869 -2.1009223 0.18469565 8.1999998
3.8416815 -1.8928037 0.12657608 7.75
3.976645 -0.89076829 0.030575685 7
3.6119363 -3.3288991 0.74271399 11.5
3.8819294 -1.9279836 0.48394939 10.333333
3.9901187 -0.82902676 0.64405125 12
3.7292902 2.6833851 0.69644517 11.5
3.8372121 -33.054199 0.98566931 7
3.8996136 -0.8568995 0.79613328 13
3.7697725 -0.76067489 1.1521896 15
3.7694302 2.7391384 0.95859677 13
3.7891974 2.7410438 1.2819583 15
3.8560126 -11.284791 1.6880116 10
3.9332047 -11.272227 2.2072637 11
3.9024434 -9.9708815 2.280468 12
3.7550175 -13.359287 2.7644968 12
4.100996 1.9745952 -0.19166557 6
4.1555014 -4.840898 0.14825808 7.5
4.1374221 -4.7974854 0.12370683 8
4.037991 -3.7476652 0.29852295 9
4.0100608 -2.3495934 0.31963119 9
4.070025 -0.85499167 0.25713122 9
4.2069254 -0.78088003 0.2006876 8.5
4.3161016 -5.7691402 0.79299259 10
4.139534 -4.914804 0.77194989 10.5
4.1630487 -4.746449 0.77651805 10.5
4.0276175 -2.1923013 0.64385825 11
4.0719652 -1.9441758 0.59705228 11
4.0787373 -0.85912442 0.52696025 11
4.0985203 -0.77163881 0.61367923 11.5
4.3629389 -11.262689 0.89705664 8
4.3836737 -5.7405066 0.81475806 10
4.1366568 -2.9246345 0.80956858 12
4.0395532 -2.0450816 0.85440534 12.5
4.1114292 -0.84742516 0.99507409 14
4.1871777 -0.78010428 0.96882629 13.5
4.0890031 -0.74487698 1.2224764 15
4.2955413 -11.274855 1.6963038 10
4.2570171 -9.9011202 2.3025987 12
4.2017779 -13.331622 2.690269 11.5
4.1662593 -13.362065 2.8383462 12
4.5232167 -2.8778749 0.36674783 9
4.6493874 -0.81618196 0.11178773 8
4.6018515 -0.77646536 0.25403777 8.5
4.5396118 -5.7030654 0.79548413 10
4.6863012 -0.81319916 0.54547107 10.5
4.6167712 -5.6605186 0.84452534 10
4.6606913 -0.81707525 1.0235268 13
4.6946049 -0.76589215 1.0992292 14
4.7464709 -0.78198308 1.3649976 15
4.5975714 -11.278007 1.7050189 10
4.5448332 -12.077594 2.0926797 11
4.6296735 -11.604415 2.3502858 11
4.5547814 -11.067576 2.3832943 12
4.6062379 -13.343368 2.6775053 11
4.4843283 -13.350492 2.8588052 12
5.1826878 -3.658653 -0.10355049 7
5.1737094 -3.3711238 -0.096979789 6.6666665
5.1894927 -3.7228889 0.14362845 8
5.1753335 -3.5525219 0.094688363 7.5
5.0485845 -0.75426996 0.32516292 9
5.0160131 -0.75874329 0.61018938 10.5
5.184371 -0.11036807 0.71942431 11
5.0308304 -11.243829 0.86285979 8
4.9157381 -0.75477254 0.98654115 12.5
5.1705828 -0.11081855 0.93790531 12.5
5.0687532 -0.45336664 1.4508235 15
5.1171288 -0.22288106 1.4127589 15
4.8975992 -11.261937 1.7129743 10
4.9482527 -13.335777 2.8348551 12
5.5732207 -5.8691049 -0.24730937 6
5.285841 -4.2089005 -0.05666811 7
5.5174155 -3.2592599 -0.18767773 6
5.4278226 -0.75770432 -0.063109972 7
5.472949 2.7096012 -0.1883993 6
5.4822993 3.576808 -0.26652348 6
5.5210705 3.613524 -0.20484945 6
5.3700252 -4.1982756 0.20440976 8
5.5087533 -3.7732959 0.29978734 8.5
5.2403989 -0.7532618 0.11422238 8
5.5240388 3.6700912 0.15853195 7.5
5.5185051 -3.6896687 0.76063883 10
5.5135241 -3.4270952 0.7667864 10
5.2836876 -11.395686 0.97209507 8
5.5230899 -3.7901571 0.97890466 11.25
5.5243177 -3.3800325 0.97175604 11.5
5.5466061 2.8887467 1.1162244 12
5.5546036 -4.0582557 1.4049727 13
5.5475574 -3.7635868 1.3907269 13
5.5505595 -3.4092107 1.4682803 13.5
5.4727497 -0.77262998 1.295766 13.5
5.2124314 -0.38092968 1.352125 14
5.2706923 -11.399277 1.740958 10
5.5554848 -4.043067 1.8291297 14.5
5.5426168 -3.7952795 1.818298 14.666667
5.5528169 -3.3859634 1.8795339 15
5.504457 -0.79046673 1.6666124 15
5.4008975 -11.855531 2.1109045 11
5.8745937 -5.4699302 -0.28654826 6
5.7957959 -4.4309039 -0.071280688 7
5.7411189 -0.54348952 -0.07491482 7
5.8381362 -0.20049633 -0.044395648 7
5.6967206 0.020037772 -0.1580738 6
5.8442211 0.64843214 -0.14654531 6.3333335
5.8395495 1.1751716 -0.14784098 6
5.7572126 1.3855864 -0.13328686 6.6666665
5.8185258 1.8182459 -0.07863377 7
5.7556882 2.1374409 -0.087107703 6.75
5.7199216 2.4546227 -0.033620682 7
5.9107056 -5.3346334 0.20796674 8
5.9104452 -5.0203061 0.12804177 7.5
5.7433548 -4.3593955 0.10038938 7
5.7716222 -0.5446884 0.18156119 8.3999996
5.8361893 -0.15294273 0.15106589 8
5.8361697 0.20565529 0.18865803 8
5.8366237 0.61780542 0.20757441 8
5.8316092 0.99163091 0.15572815 7.8571429
5.828711 1.3508234 0.20880194 8.1428576
5.8216295 1.8062458 0.24755599 8.5
5.8016548 2.2416379 0.24251746 8.333333
5.7131271 2.5985754 0.10612393 7.5
5.7961097 2.9920614 0.14657184 7.5999999
5.7878923 3.4127474 0.14877298 7.5
5.7726088 3.7111185 0.17702496 7.5
5.9325414 -5.044322 0.77155757 10
5.7429419 -0.59425646 0.56512177 10
5.8536606 -0.21073072 0.60266006 10
5.8406549 0.1743024 0.52430195 9.666667
5.8456435 0.60485047 0.54617673 9.833333
5.8413734 1.0365522 0.59115088 10
5.8385148 1.4131026 0.58984548 10
5.8296638 1.8179654 0.65441787 10.25
5.8039918 2.2387412 0.50955874 9.3999996
5.7211404 2.6225727 0.53242368 9.5
5.813046 3.0356901 0.54131472 9.5
5.7994452 3.4452281 0.61796689 9.6000004
5.7751422 3.7505395 0.64781755 9.5
5.9530864 -8.3765764 0.93943053 10
5.9335957 -5.3149843 0.94168174 10.5
5.9359727 -5.1857128 0.90397704 10
5.938457 -4.5204854 1.0524794 11
5.8121748 -3.2540522 0.96583593 11
5.9153128 -2.9173794 1.0080118 11
5.7669168 -0.63754153 1.0143845 12
5.7795587 -0.15658189 1.0063199 12
5.8631034 0.21342953 0.97229296 12
5.8533354 0.55341083 0.98369062 11.8
5.8506336 0.97023726 0.99088335 11.75
5.8463845 1.3987881 0.96354729 11.857142
5.83916 1.7796764 0.94754916 11.5
5.8302369 2.2186913 0.98384506 11.5
5.727376 2.6378441 1.0266755 11.5
5.8095794 2.974606 0.98661929 11.333333
5.8102975 3.3839142 0.92563552 11.25
5.8023477 3.7008193 1.0179595 11.5
5.9658313 -5.458159 1.3209823 12
5.9656043 -4.941649 1.4047269 12.5
5.9608865 -4.5890942 1.491405 13
5.8008375 -3.2471585 1.4764889 13.333333
5.9287043 -3.0268877 1.4351214 13
5.7690969 -0.57164705 1.3635587 13.75
5.8822613 -0.22573416 1.3755728 13.75
5.8796597 0.15935673 1.4720597 14.333333
5.8642902 0.61187297 1.3075732 13.6
5.8656621 0.99810898 1.344785 13.5
5.8626571 1.3884122 1.3946882 13.5
5.851511 1.8176618 1.405656 13.4
5.8265576 2.2471261 1.3281407 13.4
5.749331 2.6244037 1.3965595 13.5
5.8347239 3.0126598 1.3888791 13.166667
5.8244877 3.4109325 1.3368896 12.6
5.8289361 3.7048285 1.5051606 13
6.0044489 -7.0429935 1.664567 12
5.9963598 -6.711524 1.6370212 12
5.9941039 -6.2108335 1.7118686 12.5
5.9908509 -5.7525558 1.7877853 13
5.9773564 -5.38943 1.8659155 13.5
5.969089 -4.8784027 1.8605229 13.666667
5.9573789 -4.5642824 1.9494281 14.5
5.8753943 -3.2372689 1.7495943 14.666667
5.9399815 -2.9976988 1.7119969 14.5
5.7866883 -0.71326852 1.7371737 15
5.8924227 -0.094563812 1.6553527 15
5.882205 0.28684136 1.5883627 15
5.8770132 0.60849106 1.6316463 15
5.8791471 0.95535147 1.723927 15
5.8601403 1.411087 1.670635 15
5.871594 1.7586719 1.7416865 15
5.8566332 2.2582045 1.6812403 14.5
5.7582359 2.6527719 1.7512528 14.75
5.8477025 3.0396564 1.8174863 15
5.8353667 3.3882899 1.7144394 14.5
5.8332939 3.663353 1.7686096 14.5
5.8578911 -11.584297 2.4150977 12
5.9983878 -8.0552168 2.2597189 13
5.9131432 -7.3335152 2.1845601 14
5.916029 -7.0042105 2.149677 14
5.9484096 -6.5750065 2.1128232 14
5.9758058 -6.1735511 2.0807855 14
5.9742365 -5.7129107 2.0593081 14
5.9668026 -5.247117 2.0797358 14.5
5.9728508 -4.9840436 2.0944645 15
5.9666495 -4.7356315 2.0325024 14.5
5.8245759 -4.3770242 2.0100868 15
5.6378131 -13.351306 2.6988885 11
5.8949947 -12.96419 2.7540305 11.5
5.9106565 -12.404266 2.6500022 11
5.8587809 -11.97778 2.6881146 12
5.8437676 -11.404385 2.6839349 13
5.8314047 -10.594889 2.5725214 13
5.8157177 -10.174834 2.5151169 13
5.8914862 -9.5392437 2.4439325 13
6.0182562 -9.7993927 0.99181968 9
6.0212913 -9.395216 1.0024687 9.666667
6.0131845 -8.7456102 0.96944851 10
6.0249557 -8.3603144 1.5130012 11
6.0058413 -7.9222298 1.4778601 11
6.0087514 -7.538415 1.4503772 11
6.0552273 -9.5358353 1.9036176 12
6.0510693 -9.0559273 1.8552103 12
6.0329151 -8.5871754 1.8075533 12
6.0277824 -8.1686068 1.7670569 12
6.0245485 -7.6822562 1.8482804 12.5
6.0154328 -7.3181615 1.812986 12.5
6.0172067 -6.9161983 1.89688 13
6.0131087 -6.6065793 1.8667587 13
6.0070195 -6.3103385 1.8391018 13
6.0838828 -11.396767 2.4121943 12
6.0924335 -10.265965 2.2739613 12
6.0547867 -8.966712 2.3821828 13
6.0275764 -8.4959822 2.3176708 13
6.0436563 -8.3720045 2.3422294 13
6.0319843 -7.8845024 2.2891994 14
6.0354595 -9.3036938 2.4353495 13
6.6523542 4.6131272 1.9392707 14
6.867373 4.5268421 1.9445592 14
8.768981 5.940762 -0.021268632 7
8.6871223 5.9421573 0.63664204 9
8.6562128 5.9260898 0.97114974 10
8.6951885 5.8800888 1.5777986 11
8.6616821 5.8298588 2.0361791 12.5
8.8077669 5.9219537 0.83424461 9
8.8650007 5.9232888 1.8269801 12
