# .PCD v0.7 - Point Cloud Data file format
VERSION 0.7
FIELDS x y z intensity
SIZE 4 4 4 4
TYPE F F F F
COUNT 1 1 1 1
WIDTH 122
HEIGHT 1
VIEWPOINT 0 0 0 1 0 0 0
POINTS 122
DATA ascii
-5.2599211 5.4471364 1.2138292 12
-5.3449755 -1.1229535 1.3989545 15
-5.0519533 -2.0767767 1.1734422 14
-4.8708668 3.9857183 1.7172546 15
-4.8864942 4.9540868 1.8822241 15
-4.6725268 2.8089807 0.15454303 8
-4.7007847 3.460387 0.21141352 8
-4.6998682 3.9141147 0.35188487 9
-4.6590137 2.8694844 0.49586782 10
-4.6756968 3.0370321 0.39006004 9
-4.7011166 3.877003 0.59107125 10
-4.6725402 3.1977932 1.1122043 13
-4.6829052 2.3122652 1.2656178 14
-4.7619853 2.3026812 1.3595096 15
-4.6579723 2.8303549 1.4511526 15
-4.5156741 5.7852712 1.2106668 12
-4.5574632 5.7776308 1.6107787 13
-4.2932243 -1.649772 0.10017408 8
-4.1457663 -1.6438247 0.536686 11
-3.8460073 -1.8815805 0.049666561 8
-3.8419461 -1.8865166 0.50269759 11
-3.6051111 -2.0730808 0.83189201 14
-3.5135319 4.9982767 0.85071677 11
-3.5057774 5.7130227 1.2720379 12
-3.4577217 5.6972919 1.5891092 14
-3.2759838 4.9286108 0.60048527 10
-3.1814649 5.8637557 2.0361729 15
-2.9751182 5.093008 0.3819761 9
-2.9131703 -2.0664637 0.75102663 14
-2.7366862 6.1213222 0.91165596 11
-2.3551183 6.1308737 1.3457366 12.5
-2.0870674 -2.0604608 0.11732737 9
-2.1617343 -1.7356058 0.14683911 9
-2.1453948 -1.4190791 0.22262642 10
-2.0656838 -1.2975932 0.23664075 11
-2.1576524 -1.8650867 0.32548982 11
-2.1652491 -2.0649378 0.67167443 14
-2.0997233 5.8936486 1.7863274 15
-1.8831601 -3.9751556 0.14693013 8.5
-1.9078968 5.8887105 0.79363167 10.5
-1.7068609 -3.9709883 -0.069872767 7
-1.6330272 -1.9935389 0.62179691 15
-1.6957268 6.1879158 1.2895308 12
-1.756093 6.1764979 1.3967063 13
-1.7960105 6.1870708 1.711555 14
-1.4423763 -1.6073263 0.18394172 10
-1.5151591 -1.9832442 0.53795069 14
-1.6219672 6.1654005 2.030545 15
-1.3989943 -1.6036241 0.25816643 11
-1.3213656 -1.9834137 0.45832071 13
-1.3778936 -1.9928492 0.57293528 15
-1.009074 -2.0186942 0.26615849 11
-1.1016694 -1.6460711 0.20105104 11
-1.0476233 -2.0345883 0.51866454 14
-1.0422788 -2.0057905 0.36628303 12
-1.1114981 6.1862793 0.64741403 9
-1.0599825 -1.9888879 0.58047658 15
-1.0721372 6.1907034 1.5885305 14
-0.072647326 6.1611066 1.896215 15
0.87106574 -3.0360808 0.28060859 10
0.91855353 -3.455797 0.76033819 13
1.1174693 6.1621442 1.2202897 12
1.1139734 6.1548753 1.8809536 15
1.239302 -2.2557368 0.22816242 10
1.4967451 3.8017948 0.16262613 7
1.4586612 -2.1050041 0.57878321 14
1.4895278 6.1566114 1.5863388 13
1.783846 2.7148848 0.48185447 10
1.7678114 2.7224278 0.61998487 12
1.7683133 3.4610636 0.59696841 11
1.7607427 3.9624109 0.62279981 10
1.7629882 2.7394421 0.74859756 13
1.7697899 3.3402028 0.75759411 12
1.7660381 4.7202044 0.79155403 11
1.7635787 2.7325976 0.9951697 15
1.7693591 3.5730519 0.95950323 13
1.7717115 3.7174845 1.0801671 14
1.7484475 4.2550001 1.0006814 12
1.751874 3.4587588 1.3004907 15
1.8151507 2.7166238 0.60504127 11
1.7953926 2.6959405 0.91284609 14
2.0080576 -0.86516875 0.56650937 14
2.1761694 2.7183208 0.60815394 11
2.1012573 2.6982844 0.74005079 12
2.3060012 2.5008333 0.66285038 12
2.2492805 2.6614368 0.5127396 10
2.3469155 2.6926954 0.94065237 14
2.4258695 2.7272968 1.2170798 15
2.6636217 2.7260599 0.91194445 13
2.9286482 -0.81789511 0.27620155 9
3.3635108 -0.81291181 0.37839651 10
3.9825027 -0.062043853 0.97791475 13
4.5804095 -0.74816984 0.30521247 8
4.5799551 2.5758207 0.37083051 8
4.5798879 2.383456 0.69298899 10
4.5705123 2.7196832 0.89226162 11
4.5732675 2.538007 1.0402052 12
4.5586038 2.5632532 1.2526237 13
4.5581355 2.6529996 1.5018271 14
4.703228 -0.29718989 0.26913598 8
4.6938982 0.91872472 0.1926945 7
4.7028961 1.9096642 0.1926939 7
4.6878028 -0.46131098 0.47071061 9
4.6943369 1.2850772 0.40051803 9
4.6794386 3.3924112 0.44091552 8
4.6890903 -0.47286525 0.59437484 10
4.695796 2.3308022 0.5617339 9
4.6774478 2.9174237 0.57725614 9
4.6834607 -0.5160678 0.80531758 11
4.6884756 2.3180315 0.84972233 11
4.6714797 3.3720293 0.803581 10
4.6930985 2.1099586 1.1404444 12
4.6862025 3.1705384 1.3177392 13
4.6783986 -0.53523862 1.400599 15
4.6793623 2.1677794 1.4929131 14
4.6748557 0.64582646 1.5618001 15
4.5713139 2.392844 1.6761957 15
4.6761513 3.4120393 1.5934154 14
4.6764092 3.2783597 1.9007081 15
5.7470236 5.6787615 0.42550951 8
5.918407 5.6776237 0.82011229 9
7.4994802 6.1540403 0.33267632 7
