# .PCD v0.7 - Point Cloud Data file format
VERSION 0.7
FIELDS x y z intensity
SIZE 4 4 4 4
TYPE F F F F
COUNT 1 1 1 1
WIDTH 124
HEIGHT 1
VIEWPOINT 0 0 0 1 0 0 0
POINTS 124
DATA ascii
-3.6167917 6.1271491 2.1140614 15
-3.4371626 2.755569 0.55421531 11
-3.4540434 2.960916 0.7391302 12
-3.4996588 4.6635885 0.74398559 11
-3.4240301 2.6772339 0.93658316 13
-3.483835 3.4731147 0.97716081 13
-3.5067904 3.7753851 0.91792381 12
-3.4575813 4.6737189 0.93556023 12
-3.4825904 3.6412539 1.5040742 15
-3.5402901 4.5473094 1.750317 15
-3.306421 1.937435 0.3638716 10
-3.279326 2.1395471 0.49197495 11
-3.382148 1.8396525 1.1166066 15
-3.3021185 2.1425962 1.0181309 14
-3.3199966 2.3859591 1.1884919 15
-3.3885682 4.4562149 1.0936372 13
-3.0378418 -3.9109609 0.098836385 8
-3.1812737 1.9427594 0.73714727 13
-3.1482897 2.0009756 0.66357452 12
-3.1786866 4.7171488 0.64154357 10
-3.1490862 -2.0707831 0.96839124 14
-3.0424407 -3.9037809 1.1170179 13
-2.9369004 2.1056681 0.3210668 9.5
-2.6821647 2.9346535 0.44559637 10
-2.7877886 6.2862267 2.0291913 15
-2.5001135 6.1530776 1.2782507 12.5
-1.8404084 -2.4960666 0.39085948 11
-1.9430288 -0.64435434 0.2958571 11
-1.7587417 -3.4866219 0.11024641 8
-1.5145005 -3.6766381 0.83361405 13
-1.4450843 6.1897254 1.3311349 13
-1.4219801 6.1921148 1.5953119 14
-1.3217497 -3.756778 0.24471796 9
-1.3785814 -3.7685044 0.68046767 11.5
-1.3639222 6.2151413 1.7300155 15
-1.0938785 4.1749854 0.46361312 10
-1.1423686 6.3018131 0.54277366 9
-0.76960623 -3.726356 0.59266061 11
-0.62539685 -3.7208447 1.1230813 15
-0.6380595 6.3121877 1.3244525 13
-0.22977227 -3.6684389 0.13611497 8
-0.35079965 4.2234516 0.63638711 11
-0.033876289 6.3781772 1.7532146 15
0.13125272 -3.6345882 0.18035387 8
0.54822534 -3.6104889 0.096484266 8
0.52671194 5.7482967 0.25554308 8
0.64451957 -3.6037762 0.84261715 14
0.75562596 5.7858863 0.82435513 11
0.76571208 5.7769427 1.0488954 12
0.7819559 5.7765546 1.6703106 15
0.93953305 0.3897388 -0.047506258 6
0.84575665 5.7902884 1.1552283 13
0.85182798 5.7764812 1.3449372 14
1.1535878 -1.2401472 0.076551929 8
1.138675 -1.3221561 0.29698104 11.5
1.3101946 -1.1407079 0.30063307 12
1.2918925 -1.2176867 0.42397898 14
1.321938 -1.077996 0.4599472 15
1.332556 5.8001971 0.63751554 10
1.2206579 5.7914567 0.90241444 11
1.3616277 -3.5649989 1.095819 15
1.4553428 -3.4779305 0.31912276 9.5
1.5398812 -1.1068863 0.33148661 12
1.5699097 -0.80790287 0.2325516 11
1.4804157 -3.4268303 0.47585693 11
1.4749249 -1.126678 0.45402202 14
1.5890472 -0.64553577 0.48982912 15
1.4724842 -3.4289117 0.65187609 12
1.4305444 -3.4368935 0.81007338 13
1.4486043 -3.507499 1.0030026 14
1.4490225 5.8409867 1.8027329 15
1.6612978 -3.4096215 0.16562074 8
1.6218812 -1.0478034 0.29795441 11.333333
1.6039979 -0.602166 0.33893004 13
1.659469 -0.59427154 0.26079312 11.5
1.6214602 -1.0378511 0.49388784 14.5
1.7030283 -0.59392864 0.41240841 14
1.7215178 5.8667469 0.50236863 9
1.7845663 -3.4138429 0.85200554 13
1.694764 5.8266773 1.1522545 12
1.9843792 -3.4874771 0.41799897 10
1.8075789 -3.413707 0.88424522 14
1.8086956 5.9011188 0.93556565 11
1.8596667 -3.4134855 1.1078604 15
2.1743226 -3.4677348 0.26217285 9
2.1269674 -0.57069731 0.24382332 10
2.1576207 5.932373 0.72567105 10
2.3420107 -0.55356467 0.34351274 11
2.2874537 -3.4731104 0.59890938 11
2.2350762 -0.56765759 0.51912725 13
2.2460794 6.001544 1.8560452 15
2.5756478 -3.4518383 1.0818231 14
2.5240533 6.1074719 1.7287084 14
2.7375603 5.9455557 0.56488264 10
2.7109499 6.504179 1.2365868 12
2.8499918 -0.5118193 0.27180979 10
2.8168893 6.5337982 1.0658664 11
3.5542531 4.5664997 0.5725736 10
3.5271304 -0.47120884 0.60179752 12
3.5106218 5.9986496 0.69086319 10
3.5469422 6.5854435 1.1705358 12
3.6361117 4.2289958 0.40594792 9
3.6540899 6.2011619 1.7677937 14
4.1889381 5.9168859 1.5429565 13
4.2438335 5.8060999 1.3422327 12
4.2477384 4.8496299 1.6479434 14
4.4919171 3.2759311 0.45591834 9
4.5181217 3.2537055 0.99109608 12
4.5241852 3.2489662 1.1557102 13
4.5308175 3.2771623 1.4773954 14.5
4.7827802 3.2407002 0.12924722 8
4.7180495 3.2753747 0.79420179 11
4.737123 3.7681277 0.70050192 10
4.6234384 4.3805079 1.1520898 12
4.8624969 2.1247358 0.045035813 7
4.8246655 2.6002445 0.20310271 8
4.8199573 3.1509755 0.63110209 10
4.9257479 1.5829964 0.99600542 13
4.8529544 2.6293073 0.92274505 12
4.9736705 0.91797251 1.1817223 14
4.8669424 2.3593307 1.0483274 13
4.8859987 2.2607222 1.2479527 14
4.8542657 3.0514503 1.4732313 14
5.0453734 -0.027263088 0.96801859 12
