# .PCD v0.7 - Point Cloud Data file format
VERSION 0.7
FIELDS x y z intensity
SIZE 4 4 4 4
TYPE F F F F
COUNT 1 1 1 1
WIDTH 563
HEIGHT 1
VIEWPOINT 0 0 0 1 0 0 0
POINTS 563
DATA ascii
-16.068514 31.120171 1.2287891 8
-12.673814 -4.0008235 2.7707851 13
-12.518676 -3.3487654 2.7506335 13
-12.227933 -3.2153401 2.0192394 12
-12.252773 -3.1076586 2.3626065 12
-12.339944 -4.2297459 2.5718327 13
-12.321476 -2.4302707 2.7343848 13
-11.822553 -4.6316338 2.5247014 12.5
-11.178179 -4.5376039 2.1485178 12
-10.910063 -4.5326638 2.4411159 13
-9.3246613 -3.8214693 3.0550823 15
-9.0753832 -4.3605518 0.25332239 8
-9.020731 -4.3779225 0.65209037 9
-8.7791729 -4.3488913 2.0565753 13
-8.2064867 -2.0930576 2.5096405 15
-6.973629 -4.2030492 0.80941057 10
-6.9253631 -4.2120986 1.4942335 12
-6.9570765 -4.219686 2.225595 15
-6.7745566 -2.8820117 0.23634185 8
-6.7949986 -4.2054915 2.4166088 15
-6.2735825 -4.1651468 2.1810548 15
-5.2472434 -1.664508 0.33522972 9
-5.297204 -1.6579973 0.43172088 9
-4.8303885 -2.1837575 0.26340991 8
-4.9303255 -1.9611901 0.29733053 9
-4.9132233 -2.0597837 0.61379826 10
-4.9682269 -1.988416 0.56501001 10
-4.4863086 -2.0305188 0.3784543 9
-4.4885149 -1.8532771 0.39126244 9
-4.4845662 -3.6251054 0.6384567 10
-4.567318 -2.2244787 0.46690327 10
-4.5214348 -3.6259966 0.97175962 12
-4.5901594 -3.6357865 1.6797023 15
-4.0878787 -4.0047879 0.060712323 7
-4.1384411 -3.7514722 0.26471844 8.1999998
-4.2691693 -3.4580319 0.27979797 8.5
-4.201623 -3.8265426 0.60802388 10
-4.2582374 -3.3533728 0.47270826 9.333333
-4.0454845 -4.0157638 1.070644 12
-4.2391634 -3.7754052 1.0210567 12.285714
-4.3349762 -1.768265 1.0768111 14
-4.0608644 -0.87254554 0.84828311 13
-4.1913786 -3.908654 1.2770013 13
-4.1947145 -3.770236 1.6160082 15
-3.9667466 -3.7667937 0.25857803 8
-3.6850109 7.4979615 0.76950079 10
-3.7670317 7.6326079 0.63870668 9
-3.949332 -2.0793397 0.98477495 13.5
-3.7775309 -1.7767949 0.941616 13.5
-3.6266942 -1.4653168 0.98314261 14
-3.6053996 5.151619 1.1241728 12
-3.6203268 5.3781066 1.179687 12
-3.6023088 5.0863757 1.3938009 13.5
-3.6215785 5.4465671 1.3484286 13
-3.6545081 5.8690591 1.2862307 12.333333
-3.6403203 6.1395569 1.3971508 12.5
-3.6897311 7.4928408 1.4845302 12
-3.622143 5.3852162 1.6428689 14
-3.634057 5.6705012 1.6994271 14
-3.6669528 6.0105495 1.7696466 14
-3.6181569 5.7536345 2.0332727 15
-3.4840436 -2.7414391 0.18661696 8
-3.3688447 1.8977792 0.29795155 9.333333
-3.4452279 2.776243 0.37440008 9
-3.3490906 2.9229026 0.35752076 9.333333
-3.568897 4.2499394 0.37383711 9
-3.4335742 4.683444 0.30971599 8.5
-3.2007432 5.0322747 0.31693727 9
-3.2366345 5.483357 0.33507365 9
-3.3493857 -2.6135716 0.51674694 10.5
-3.2767503 -2.0435669 0.5340727 11
-3.2301118 -1.7290704 0.70744628 13
-3.4338813 -0.82264513 0.77550542 13
-3.2158895 1.9289266 0.45094642 10.5
-3.3101816 2.2516251 0.58167136 11.25
-3.4118176 2.5919955 0.61715084 11.285714
-3.4011893 2.9056883 0.58064693 10.857142
-3.4974627 3.4174418 0.68288612 11
-3.5423822 3.9485769 0.58426845 10.5
-3.547498 4.2518349 0.62512964 10.4
-3.3937714 4.6500435 0.62320757 10.25
-3.2232764 5.0981441 0.62000877 10
-3.2292109 5.3852577 0.62239456 10
-3.5953383 6.2209201 0.66788018 10
-3.4660034 7.5041795 0.78427178 10
-3.2164915 -3.9190247 0.99739623 12.5
-3.2175846 -2.0420473 0.95576483 14
-3.4581392 -1.1138827 0.92296427 14
-3.2816467 1.8706957 1.101175 15
-3.3111997 2.2264886 1.0178237 14
-3.4027085 2.6148605 0.94147807 13.166667
-3.4479949 3.0021265 1.0094038 13.2
-3.4787087 3.3663781 0.93512225 12.5
-3.5084524 3.79601 1.0025012 12.6
-3.481389 4.2376781 1.0385611 12.5
-3.5035686 4.554966 1.0350782 12
-3.5924735 4.8914642 1.0847449 12
-3.3059936 2.3611219 1.2106732 15
-3.4044127 2.6151271 1.272054 15
-3.435544 3.0068314 1.3482485 15
-3.4662967 3.3844035 1.3387188 14.5
-3.5059109 3.8721514 1.4046723 14.333333
-3.5314579 4.2242804 1.507654 14.5
-3.567379 4.6091781 1.4878454 14
-3.5888529 4.9256563 1.3734119 13.5
-3.5530934 6.2223926 1.2905176 12
-3.5207193 7.5068493 1.5057985 12
-3.5234005 4.2376251 1.6454892 15
-3.543792 4.5777249 1.727797 15
-3.5731506 5.0008311 1.8442894 15
-3.5890403 5.3597569 1.9208076 15
-3.5858996 6.1920114 1.8015671 14
-3.3387682 6.2149506 2.1245456 15
-3.148129 -3.9105108 0.21509945 8.333333
-2.9683013 -2.0323815 0.39882728 10
-3.110429 -1.7184165 0.3180452 9.333333
-2.9600642 -0.74077326 0.26244479 9.5
-3.0176921 1.9391818 0.31008935 9.5
-2.9492922 2.1942554 0.33334646 9.5
-3.0054438 2.9876351 0.34105366 9
-3.0897942 3.7876582 0.26378873 9
-2.997714 -2.0968606 0.65717733 12.2
-3.0866823 -1.8508282 0.59753019 11.5
-3.0500269 -1.3416477 0.70171291 13
-3.0562947 -1.0321206 0.690853 13
-3.1529574 -0.72340029 0.52397436 12
-3.1512923 1.9672911 0.67563051 12.5
-3.0091453 2.9401374 0.49170282 10.5
-3.1696637 4.7803807 0.66427225 10.5
-3.1775925 5.0052996 0.71606964 10.5
-3.1954634 5.4440527 0.7946583 11
-2.819387 6.2661047 0.51692182 9
-3.0588586 -3.9133375 0.90670115 12.333333
-2.9851413 -2.1880391 0.89627808 14
-3.0658154 -3.9140825 1.4406196 15
-2.8160722 6.27702 1.3119431 12
-2.9042768 6.2580509 2.0751917 15
-2.6703179 -1.3218329 0.26707214 9.75
-2.6892209 3.0071576 0.26195708 9
-2.7321153 -1.3787005 0.498703 12
-2.7489018 2.9211421 0.48679948 10.5
-2.7263269 6.245101 0.68256497 10
-2.6150053 -3.8875771 0.94405866 12.5
-2.5839117 6.2038713 1.3382087 12.666667
-2.597919 6.1854334 1.7564301 14.333333
-2.5988107 6.1839957 2.0329132 15
-2.3825946 -3.112931 0.27035326 9
-2.0345592 -0.8496834 0.33660612 11.5
-2.0119972 -0.46012694 0.27176023 11
-2.1806958 4.0921369 0.69374526 11.333333
-2.0626628 5.0180659 0.52968675 10
-2.1851454 6.183455 1.3609385 12.857142
-2.2037592 6.1817422 1.8460313 14.75
-1.700727 -3.6559751 0.24492258 9
-1.7495807 -3.2226617 0.36869624 10
-1.8153077 -3.0500727 0.32833824 9.5
-1.8773903 -2.4219918 0.39476746 11
-1.8883939 -2.1589866 0.23510431 9
-1.9656492 -1.2314343 0.32606101 11.5
-1.9605041 -0.59365362 0.33068249 11.333333
-1.9249434 4.0181804 0.38759914 10
-1.6775925 -3.6830664 0.60324764 11
-1.7543355 -3.391211 0.66532242 12
-1.8174039 -2.8362668 0.59761679 12
-1.8197089 -2.6303585 0.55227149 11.666667
-1.8737059 -2.1760502 0.72331655 14
-1.9339424 -0.62829691 0.50796753 14
-1.6759419 3.989439 0.40821677 10
-1.8487937 4.1995602 0.66527838 11
-1.8495424 5.084847 0.54340148 9.8000002
-1.698456 -3.6761036 0.94655687 14
-1.9301089 -1.929516 0.8298623 15
-1.8185732 6.2264185 1.3384149 12.8
-1.782498 6.2254515 1.7858024 14.8
-1.3634857 -3.7141449 0.19174697 8.5
-1.3769438 -3.7141492 0.57458705 11
-1.3891641 4.1558061 0.59621114 10.666667
-1.2638583 6.2913175 0.57579887 9.5
-1.3962405 -3.7065396 0.8766768 13.5
-1.2611178 6.2709742 1.1998494 12
-1.4819444 6.2108426 1.3576164 13
-1.3866366 6.2217603 1.8171927 14.75
-0.81056988 3.2345057 -0.019735007 7
-1.0260693 6.3085537 -0.10282286 7
-0.98808318 -3.7346463 0.17822632 8.5
-0.98170394 -3.7359111 0.56134778 11
-1.0175805 4.1804414 0.61312288 11
-1.1106756 5.0201859 0.4960199 10
-1.1388406 6.3163528 0.60596704 10
-0.9861818 -3.7400818 0.91753191 13.8
-1.0693669 -3.0802569 0.8318246 14
-1.0011132 6.308054 1.1903754 12
-0.99781996 6.3002257 1.4108976 13.5
-0.96726245 6.2910662 1.7750334 14.75
-0.43209514 -0.89701706 -0.0063204356 7
-0.44141895 -0.70169061 -0.0014696645 7
-0.43806124 1.0322011 -0.0085624764 7
-0.60904032 2.2371461 -0.0044599492 7
-0.57280892 2.5868552 -0.0098600527 7
-0.68017602 2.8797061 -0.014804392 7
-0.53826886 4.1295137 -0.068148836 6.5
-0.56220716 -3.6975636 0.2128567 8.833333
-0.72938609 -2.1433854 0.0020375957 7
-0.55872113 -1.8112624 0.0082674269 7
-0.5938459 -1.3921986 0.012172124 7
-0.60523629 -1.0334858 0.011107374 7
-0.54220736 1.4408184 0.0066259368 7
-0.55363107 1.7792025 0.0025392792 7
-0.59159017 -3.7025723 0.61977321 11.5
-0.55341727 4.221622 0.62068439 11.166667
-0.40332779 6.3898253 0.59642601 10
-0.45431173 6.4180984 0.62100559 10
-0.64476007 -3.7139177 0.95789665 14.2
-0.54681516 6.3552647 1.0727659 11.666667
-0.61038548 6.3314252 1.4384395 13.5
-0.56352967 6.3257575 1.8174272 15
-0.098419771 -1.3220495 -0.001082645 7
-0.1433515 -0.99612123 -0.013452872 6.8000002
-0.19475003 -0.61642772 -0.01418855 6.5
-0.1338463 0.644449 -0.020032676 6
-0.15777376 0.95036095 -0.028112765 6
-0.17262234 1.5087193 -0.0079154149 7
-0.2722953 1.7740358 -0.004447625 7
-0.19870764 2.1487241 -0.014555397 7
-0.19731018 2.5761836 -0.02062746 7
-0.28849888 2.9804542 -0.024782717 7
-0.019829633 4.5688586 -0.066848092 6.6666665
-0.20130077 6.3723521 -0.020562582 7
-0.1796695 -3.6902351 0.18500736 8.333333
-0.31505027 -1.9077485 0.0069892104 7
-0.23624401 -1.4054437 0.0054649296 7
-0.3044062 -0.98315012 0.0020982311 7
-0.3663969 -0.4891215 0.0049330578 7
-0.38442865 1.4584575 0.002810867 7
-0.23409766 6.3087506 0.10995512 8
-0.17893612 -3.668191 0.59142751 11.555555
-0.32877886 4.2025204 0.70134062 12
-0.25332394 6.390698 0.60554177 10
-0.13081305 6.4097843 0.62240326 10
-0.19919984 -3.6768954 0.9626171 14.5
-0.19196299 6.383379 0.99855232 11.5
-0.085207462 6.4111934 0.89048266 11
-0.20099515 6.3750687 1.4521555 13.5
-0.24698213 6.3626661 1.7755961 14.666667
0.14609247 -1.3517182 -0.008851165 7
0.18969978 -0.90796578 -0.023931433 6.3333335
0.20163946 -0.56710368 -0.018406412 6.25
0.36086482 -0.37102318 -0.028391672 5.5
0.36196372 0.36302954 -0.036658317 5
0.2063383 0.59870124 -0.036433693 5.1999998
0.21059179 1.0064161 -0.034279376 6
0.13763925 1.3562315 -0.020150229 6.3333335
0.2322614 1.688291 -0.013349658 7
0.18501963 2.225728 -0.022667991 7
0.14725684 2.6641247 -0.032853153 7
0.078498296 3.4412408 -0.044758733 7
0.21787064 -3.6349819 0.17775662 8.2857141
0.18136999 -3.6400342 0.61584324 11.714286
0.18043999 4.6811333 0.55950791 10
0.34267986 6.4250031 0.59535849 10
0.20824128 -3.6432745 0.95260918 14.5
0.13679357 6.3983507 0.9004364 11
0.21557251 6.4211316 1.032025 11.666667
0.18680462 6.3941755 1.4404005 13.4
0.17800088 6.4127073 1.4203781 13
0.19675015 6.3907466 1.7497355 14.5
0.342204 6.4045959 1.942602 15
0.68488443 -1.6481494 -0.019774113 7
0.54878432 -1.4088074 -0.021351743 7
0.57781053 -0.9542622 -0.032853115 6
0.55109829 -0.56284463 -0.02375607 6.1666665
0.5431785 -0.27431589 -0.045595724 4.7777777
0.56618208 0.22482145 -0.065414183 3.909091
0.56376779 0.56840497 -0.053632744 4.8000002
0.55193102 0.92386204 -0.055427089 5.3333335
0.44368333 1.2867609 -0.03321176 6
0.5854038 1.7656312 -0.030516958 7
0.69743848 2.1846187 -0.041799616 6.75
0.49147803 2.5277326 -0.036344681 7
0.50641495 2.8862226 -0.041052248 7
0.52963233 3.3407269 -0.061442237 7
0.64404601 5.7931066 -0.13477421 6.6666665
0.54364312 -3.644068 0.14596173 8.1428576
0.71894681 -3.5919166 0.22540566 8.666667
0.53576118 5.7607026 0.226578 8.5
0.57160419 -3.6115284 0.63788271 12
0.73497635 -3.5960484 0.72818667 12.5
0.40121832 4.4867706 0.53087407 10
0.77453458 5.7889519 0.59003043 10
0.68968922 6.434804 0.61353648 10
0.60284013 -3.614002 0.90079325 14
0.72552162 -3.5979571 0.84429634 14
0.71573085 5.9146233 1.0181724 12
0.72078449 6.3189349 0.92288011 11
0.58859402 6.4381528 1.0057942 11.5
0.74092764 6.037436 1.4489607 13.5
0.57385027 6.424262 1.4545296 13.333333
0.79893833 5.7693048 1.6301481 15
0.56715667 6.4177957 1.814513 14.666667
1.071492 -2.1276989 -0.03286868 7
1.0579653 -1.6944904 -0.030757274 7
1.0525954 -1.4034969 -0.032862194 7
1.1270717 -0.87741566 -0.023707371 7
0.88012856 0.34681091 -0.048559632 5.5
0.93226308 0.56146401 -0.060471188 5.3333335
0.80154181 0.86221963 -0.068590313 5
1.032927 1.4646868 -0.047830813 6
0.99017948 1.8915094 -0.052929994 6
1.0557026 2.0984004 -0.056437209 6
1.0148156 2.5348387 -0.056977615 6.5
0.92130357 3.0251548 -0.057519712 7
0.98041195 3.3607335 -0.062633954 7
0.99966234 -3.7738428 0.19408424 8
1.0077606 -3.57447 0.19283201 8.5
1.1495101 -1.2896949 0.19353408 10.2
1.0072552 -3.5756056 0.57715738 11.5
1.0180609 5.8011746 0.64996105 10
0.84158498 -3.6004963 1.007121 15
0.98185033 -3.5847137 0.91001105 14
1.0152406 5.791482 0.99199295 11.857142
1.0519279 5.781961 1.3839675 13.833333
1.04831 5.7995338 1.7102515 15
1.378372 0.70296425 -0.059758183 6
1.4474136 0.96654594 -0.058406208 6
1.4414127 1.439389 -0.061184295 6
1.3667305 1.7813594 -0.063722916 6
1.3739858 2.106801 -0.06880153 6
1.4074528 2.626317 -0.071140803 6
1.3633604 3.0705395 -0.07219214 6
1.4991721 3.493078 -0.086078264 6
1.4257402 5.8747683 -0.10936363 6.5
1.4242141 -3.486546 0.25016654 9
1.4210311 -1.3335254 0.21071677 10.166667
1.4380654 -1.099946 0.30020791 11.714286
1.5911601 -0.679362 0.32646209 12.5
1.3177365 5.8614202 0.24747802 8.333333
1.3914959 -3.5128553 0.51727903 11
1.2793505 -1.2575241 0.44956344 14
1.3960589 -1.1175464 0.47223717 14.5
1.5935739 -0.68797112 0.45540062 14.5
1.4560534 5.834578 0.61106235 9.666667
1.3920609 -3.5153425 0.96746784 14
1.3759129 5.8217363 1.0243593 11.8
1.3334978 5.8021388 1.3371106 13.666667
1.5509059 6.1541829 1.3267624 13
1.3269901 5.8198056 1.7322353 15
1.5670543 6.1106663 1.729443 15
1.8239 1.0207479 -0.074246846 6
1.7996804 1.4108891 -0.075497888 6
1.7322375 1.8288577 -0.07393878 6
1.734215 2.1014516 -0.076266259 6
1.8214262 2.6030452 -0.0823147 6
1.7565064 4.319695 -0.085093379 7
1.8532395 -3.4415081 0.21782404 8.5714283
1.6470506 -1.5727391 0.17307261 9
1.6132824 -0.99395239 0.29206255 11.5
1.7685703 -0.63756108 0.30817187 11.777778
1.7949572 -3.4457147 0.53161037 11
1.6090509 -1.0060141 0.47475132 14.2
1.7457731 -0.6186623 0.47925583 14.285714
1.8175656 5.8737125 0.62029308 9.666667
1.7671288 -3.4450626 0.95898855 13.833333
1.6644475 5.8737664 0.95599073 11.5
1.7855482 5.8783607 1.4223499 13.333333
1.6899819 6.1857204 1.5020807 13.333333
1.8695247 5.926661 1.7595247 15
1.7312435 6.1024666 1.7915148 14.666667
2.0361745 1.1716795 -0.083417624 6
2.2863104 1.7460412 -0.098924905 6
2.1992769 2.1533647 -0.094560295 6
2.1727476 2.7875578 -0.094308108 6
2.2868884 5.9997749 -0.1078527 7
2.2014153 -3.4703994 0.14659652 8
2.188736 -0.56747019 0.2900193 11
2.1638534 5.9496894 0.25421333 8.333333
2.2173035 -3.4762104 0.57256877 11
2.2145662 -0.56704646 0.54613113 13.875
2.2495537 5.9173994 0.56456208 9.5
2.1796794 -3.4896264 1.0422422 14
2.1900971 6.4753513 0.99231887 11.25
2.2657113 -3.4802632 1.2598128 15
2.1694369 6.0691113 1.4545239 13
2.1869605 6.4690504 1.2840801 12.333333
2.3890691 5.9627924 1.8513211 15
2.2029438 6.0616693 1.730052 14.6
2.4672616 1.4790241 -0.098397888 6
2.6991146 2.125833 -0.11770573 6
2.7438698 2.8017755 -0.11706313 6
2.6178441 4.7917337 -0.10038145 7
2.640739 4.8052149 -0.15645866 6
2.574337 -3.4459209 0.14485092 8
2.6103547 -0.53760135 0.25645027 9.625
2.6563263 5.0822153 0.21899606 8
2.6010981 -3.4436252 0.59685171 11
2.5937138 -0.54176992 0.6001786 13.5
2.5539813 5.9406099 0.62136334 9.6000004
2.5662718 -3.4549131 1.0588933 13.8
2.5217795 6.3654947 0.88351691 11
2.5321395 6.5008292 1.085162 11.5
2.619472 -3.4536841 1.2717851 15
2.6129534 6.0954571 1.4814601 13
2.525655 6.4904203 1.3427707 12.666667
2.5450664 5.9484992 1.8525624 15
2.6783848 6.1077251 1.7234783 14.333333
2.9831641 1.8443884 -0.12735005 6
2.952646 -0.51003647 0.23799284 9.5
3.1902854 5.0665488 0.36909688 9
3.1349699 5.9829445 0.0022622708 7
3.127176 6.0518088 0.13481358 8
3.1445408 -3.3874557 0.7720961 12
2.9927602 -0.51126266 0.59090441 12.571428
3.0020316 5.9577336 0.48416409 9
2.9416382 6.0280333 0.71576577 10
2.8106623 -3.4316895 1.1063256 14
2.9302089 -0.51969308 0.82985026 15
3.0011258 6.5395317 1.0283409 11.25
2.9519684 6.1213408 1.5040984 13
2.9809773 6.523519 1.2955613 12.333333
3.0410697 5.9364243 1.8680485 15
2.985316 6.1444368 1.7385362 14
3.0323265 6.5268536 2.1839957 15
3.2961757 4.5419283 -0.1475292 6.5
3.3649769 -0.48107123 0.21716052 8.75
3.2136374 4.517942 0.077638455 7.5
3.3910139 -0.48203561 0.62924832 12.25
3.5157349 4.5819392 0.5166586 9.5
3.4671509 4.9532828 0.51565939 9.333333
3.4203913 5.3313313 0.48655134 9
3.3535664 5.8854494 0.61507553 9.5
3.3411119 6.0856457 0.61504275 9.5
3.334729 -0.49184448 0.86529177 14.5
3.5453925 4.7260499 0.83657247 11
3.4588873 6.5728569 1.0391161 11.25
3.3629889 6.161345 1.5326933 13
3.3459761 6.5189357 1.296554 12.333333
3.4090841 5.9598804 1.8898797 15
3.3728323 6.1700497 1.7654046 14
3.3193407 6.5491552 2.2072279 15
3.7229817 -0.45199689 0.21141952 8.6000004
3.9040895 4.2332711 0.34760967 8.666667
3.6051307 4.4834719 0.30871999 9
3.826632 -0.44969672 0.59395748 11.75
3.7996271 4.2747836 0.41845915 9
3.7157121 4.5096521 0.50069374 9.5
3.7886186 6.0182862 0.67147332 10
3.7287934 -0.4632608 1.0116221 14.5
3.8894179 6.0755787 0.97648752 11
3.7894003 6.6019344 1.0540845 11
3.9828849 5.9981308 1.3624582 12
3.8193455 6.1823487 1.4733652 12.5
3.8629632 6.5577712 1.2406126 12
3.9901037 5.9835982 1.925766 15
3.8162527 6.1350513 1.7950175 14
3.716861 6.5786748 2.2413626 15
4.2170248 3.5266752 -0.1717298 6
4.2274098 4.5855932 -0.1304533 6.5
4.1187353 -0.42321524 0.20447104 8.5
4.1220584 4.2615781 0.25156167 8
4.368453 4.8415895 0.10574856 8
4.2333026 -0.41736525 0.5838573 11
4.3772492 4.3265023 0.70248222 10
4.2853184 4.5589204 0.74379885 10.333333
4.2139163 4.9457183 0.77165675 10
4.2016301 5.9102468 0.76254636 10
4.210784 -0.42155343 0.96535695 13.5
4.2653122 3.9410295 1.1247782 13
4.2939095 4.5696478 0.96878064 11.5
4.2288795 4.968452 0.98616469 11.5
4.1999521 5.4567056 0.99325162 11.333333
4.1399236 5.9301591 0.99018866 11
4.2003846 -0.43278602 1.2256374 15
4.2492547 4.6328378 1.3881254 13.333333
4.2326703 5.0577593 1.3530742 12.666667
4.2145061 5.3519406 1.4040768 12.75
4.1322317 5.8676257 1.4698887 12.666667
4.2536993 4.6624875 1.6545887 14
4.2367964 4.9809303 1.7201827 14
4.2898936 5.2906971 1.7907486 14
4.21627 5.796854 1.8220861 14
4.1318793 6.5998874 2.2775114 15
4.5940223 2.9994044 -0.15452097 6.3333335
4.4756694 3.7916243 -0.088803485 7
4.4950643 -0.40200832 0.39323002 10
4.6039872 -0.38785973 0.18790789 8.5
4.5413475 3.3150599 0.25866577 8.25
4.5975738 3.8028543 0.22251876 8
4.4967108 4.174232 0.26506791 8.333333
4.6566663 4.6720695 0.29179141 8.5
4.6521111 3.3247464 0.60414398 9.75
4.6177626 3.8384056 0.59058374 9.5
4.5230122 4.2021947 0.67636245 10
4.673254 4.6096892 0.55017632 9
4.5143151 -0.40912166 1.0370001 14
4.6207552 3.3452561 0.88929147 11.4
4.6087327 3.792176 0.96499538 11.5
4.5735846 4.1869135 0.9993372 11.5
4.6504388 4.5593295 1.0500841 11.333333
4.612462 3.3063631 1.4034964 13.833333
4.6524138 3.7895124 1.4275528 13.6
4.5613585 4.1323199 1.5148462 13.666667
4.6581459 4.692307 1.5024171 13
4.6571789 3.790041 1.6801975 15
4.514636 4.2057552 1.7552147 15
4.5626116 4.6430573 1.7617966 14.5
4.5799236 5.1153903 1.9659195 15
4.411118 6.0022326 1.9540473 14
4.7040505 5.5050306 2.0672414 15
4.6901264 5.7481384 2.1227446 15
4.66575 6.1388717 2.211159 15
4.5048666 6.5233855 2.2888002 15
4.9785962 -0.23932749 -0.043781567 7
5.000699 0.17851745 -0.021615651 7
4.9442425 1.1522632 -0.043028519 7
4.9315624 1.4217787 -0.018588115 7
5.0200319 -0.21787862 0.20401894 8.3999996
4.998054 0.20406686 0.17880103 8.125
4.9711833 0.59102798 0.17980257 8
4.9447403 0.97454822 0.17366208 7.8571429
4.9164786 1.4014846 0.20199071 8.5
4.8908558 1.8119764 0.16878858 8
4.862639 2.1764779 0.19530948 8
4.8361745 2.561928 0.24867308 8.166667
4.8140936 3.0235572 0.20226957 8
5.185729 -6.5167966 0.49882019 9
5.1847939 -6.4006438 0.59642529 9
4.9907861 -0.25449193 0.63738877 10.666667
5.0048623 0.23771057 0.57383239 10.5
4.9817872 0.59674668 0.60071766 10.5
4.9511642 1.0350608 0.58905131 10.2
4.9281292 1.3913231 0.5909555 10.166667
4.8988452 1.7953663 0.59253448 10.5
4.8676243 2.2231874 0.56848156 10.2
4.8440199 2.5829668 0.60619229 10.2
4.8227386 2.9660168 0.6021347 10
4.9956937 -0.21727285 0.98066968 12.714286
5.0248241 0.18224241 1.0028816 12.833333
4.9999599 0.5776248 1.0001693 12.625
4.9693899 0.97576582 1.0284731 12.8
4.9452147 1.3783019 1.0291522 12.5
4.9072008 1.8033925 0.96072257 12
4.8826342 2.1965201 0.99167675 12.333333
4.8563604 2.5815904 1.027158 12.5
4.8379779 3.0139344 1.0166643 12.2
4.8196759 3.3112841 1.0976448 12.5
4.8054438 -0.40392604 1.3608446 15
5.0432701 -0.26822701 1.349251 14.6
5.0348248 0.1940258 1.3513913 14.5
5.0093403 0.56801152 1.3907399 14.5
4.9753942 0.98821688 1.2855428 14
4.9504218 1.3957443 1.335608 14.5
4.9174581 1.8113637 1.4003757 14.5
4.8961411 2.1579347 1.4151478 14.2
4.8693175 2.6688969 1.4000764 14
4.8388696 3.0334795 1.3243487 13.666667
4.82725 3.2312462 1.331241 13.5
5.1774268 -5.8037534 1.8654977 14
4.8787146 2.5708516 1.6184908 15
4.8565855 2.9680917 1.6988751 15
4.8354316 3.2833087 1.7640818 15
5.1365037 -5.7997236 2.0619068 14.5
5.2100024 -6.2580247 1.0467246 11
5.3101268 -6.0950809 1.2697957 12
5.2004957 -5.8727059 2.0822947 14
