# .PCD v0.7 - Point Cloud Data file format
VERSION 0.7
FIELDS x y z intensity
SIZE 4 4 4 4
TYPE F F F F
COUNT 1 1 1 1
WIDTH 189
HEIGHT 1
VIEWPOINT 0 0 0 1 0 0 0
POINTS 189
DATA ascii
-0.26429039 -0.93166554 -0.017447958 179.33333
-0.11760309 -0.97443712 -0.022092732 186
-0.092227295 -0.92963529 -0.028698573 188.66667
0.034800455 -0.97657919 -0.029505553 189.66667
0.18217444 -0.94206911 -0.028043456 194
0.31092867 -0.90800917 -0.021051116 200
-0.40894014 -0.87104595 -0.010250361 166
-0.37285963 -0.83601713 -0.023585394 179.66667
-0.21545871 -0.86626989 -0.027123736 190.66667
-0.043227203 -0.8328886 -0.023547852 198
0.078143165 -0.85680097 -0.027245477 198
0.19558848 -0.87876505 -0.025439514 197.33333
0.2089231 -0.82228673 -0.027729195 198.5
0.31732306 -0.86224365 -0.028951002 198.5
0.42985067 -0.86083454 -0.030040871 199
0.53792214 -0.82265329 -0.02763061 199
-0.33062357 -0.78989881 -0.02375821 188
-0.26330107 -0.71582103 -0.022312731 198.33333
-0.14355654 -0.76333553 -0.025835829 199.2
-0.016849227 -0.7850222 -0.028152153 198
0.016278604 -0.71770376 -0.02133585 197
0.12098874 -0.73799741 -0.024540747 196.60001
0.22623332 -0.74223948 -0.025638038 195.8
0.32593423 -0.74671948 -0.023531016 195.8
0.42253023 -0.73873425 -0.022488277 196.39999
0.52179897 -0.74053925 -0.021891342 196.39999
0.62419009 -0.73744637 -0.020940276 197.5
-0.22978494 -0.68185836 -0.030387461 200
-0.18419208 -0.62929982 -0.022192661 198.5
-0.067999519 -0.6556049 -0.025508067 196
0.046086539 -0.66260159 -0.02478734 194.25
0.15465598 -0.64112061 -0.018093629 193.25
0.24924664 -0.62662143 -0.015953781 191.66667
0.33327842 -0.62349784 -0.011596611 191.66667
0.43748111 -0.62068886 -0.010639689 193
0.53836524 -0.66239375 -0.024223592 193.66667
0.64780724 -0.65809464 -0.023626335 196
0.74060839 -0.64011294 -0.016959047 199.5
-0.14621496 -0.58914387 -0.026298717 195.5
-0.055397343 -0.53779227 -0.012137828 192.8
0.052111786 -0.55471331 -0.016329346 190.5
0.16771045 -0.55026174 -0.011605525 189.33333
0.25741878 -0.52151841 -0.012868398 187.10001
0.34161809 -0.52799654 -0.011399101 187.75
0.44942173 -0.54939854 -0.014100893 189.21428
0.5650785 -0.55576724 -0.014927279 191.28572
0.63609123 -0.52955937 -0.013807769 191.85715
0.75059366 -0.56461382 -0.020400224 195.8
0.82744753 -0.5203976 -0.025256999 196.33333
-0.039451551 -0.4693014 -0.016907137 189
0.052464325 -0.43706211 -0.02651171 185.66667
0.14594065 -0.4581905 -0.030690514 184.64706
0.25229549 -0.47394207 -0.037054297 183.5
0.34612322 -0.45306468 -0.033578549 182.30769
0.44456846 -0.45853403 -0.029311301 183
0.55376476 -0.43432608 -0.018837566 184.81818
0.67043996 -0.45800918 -0.01374309 190.5
0.7476452 -0.44380531 -0.013529831 192.625
0.86196321 -0.43383417 -0.023021316 195.5
0.071235426 -0.35280252 -0.03090726 180.89999
0.1558975 -0.33354992 -0.039176241 177.06451
0.24916604 -0.34310934 -0.047543142 176.125
0.3436574 -0.34519836 -0.046419073 176.41463
0.44077861 -0.33489022 -0.035326812 177.80952
0.54448748 -0.35163116 -0.029355025 181
0.64780915 -0.34927085 -0.023731241 184.61539
0.74771011 -0.3411139 -0.012150327 188.77777
0.82999068 -0.34080961 -0.012619055 192.8
0.9204784 -0.37584713 -0.027279491 195
0.15218799 -0.28801978 -0.057442773 172.33333
0.25596067 -0.24435697 -0.04921031 171.38235
0.34555101 -0.23956774 -0.049423594 171.47728
0.45222908 -0.25483528 -0.064078562 172.67308
0.54571676 -0.24300216 -0.045652792 175.92857
0.65159464 -0.24683188 -0.029223377 180.89999
0.73087192 -0.25737467 -0.019706346 185.17647
0.26864991 -0.15952742 -0.043210421 167.98039
0.34762707 -0.14151105 -0.049258981 167.57018
0.44091833 -0.14112799 -0.047764488 169.09091
0.55490261 -0.15301082 -0.066730514 172.39655
0.62221199 -0.16924119 -0.034518007 177.22728
0.37592784 -0.049402583 -0.066641882 167.61714
0.42859218 -0.048730679 -0.053739458 168.49074
0.51628011 -0.087550484 -0.051708627 170.44444
0.28070033 0.08752232 -0.064106166 166.8421
0.37102854 0.045357794 -0.065167695 166.77733
0.41928685 0.052086696 -0.054879118 167.72847
0.15969934 0.15991296 -0.053263687 166.14999
0.25399891 0.14443439 -0.050486695 166.87209
0.34738097 0.14154334 -0.052165452 167.45615
0.44099322 0.1412303 -0.055215459 169.06451
0.53487146 0.16995482 -0.075599566 170.71428
0.057624515 0.23061669 -0.055483788 174.5
0.16047038 0.26942384 -0.064399861 170.86957
0.25194851 0.24766359 -0.061789997 166.15909
0.34871623 0.25165007 -0.066801265 169.04082
0.45106503 0.25822827 -0.067652322 170.57378
0.5408206 0.23961832 -0.049444787 172.2963
0.62643838 0.27717808 -0.041444246 171.2
-0.034767378 0.36477387 -0.027571514 181.69231
0.05129889 0.3587504 -0.045349751 180.25
0.15476607 0.33751231 -0.040676881 177.07408
0.25075725 0.33673286 -0.044969153 172.33333
0.34302554 0.3417533 -0.041099567 171.10527
0.43737608 0.33711538 -0.033186819 171.21213
0.55478382 0.35525107 -0.039813999 175.5238
0.6443094 0.34460294 -0.026761368 180.52
0.72233874 0.39735654 -0.026021957 188
-0.33479467 0.47276247 -0.0093303211 174
-0.27858269 0.43520483 -0.0045302114 172.5
-0.13792697 0.4477784 -0.012003941 174.42857
-0.048055694 0.45913756 -0.01479806 180.63637
0.054139856 0.43619344 -0.028048608 183.10001
0.14771305 0.45422372 -0.039780699 182.5
0.25199425 0.47399685 -0.041917596 182.625
0.34716243 0.45929879 -0.039079677 180.78572
0.44447336 0.45531091 -0.03517428 181.67999
0.54639077 0.4271898 -0.023873232 182.77777
0.6634956 0.45766935 -0.025255131 188
0.7381146 0.43750992 -0.021817341 189.66667
0.80694991 0.49262059 -0.043414824 192
-0.45622343 0.55230373 -0.012210143 165
-0.35031122 0.55152762 -0.011586523 170.25
-0.23478721 0.53057808 -0.01563793 171.66667
-0.13693301 0.57905412 -0.017456619 174.66667
-0.039301492 0.56070268 -0.014291174 177.33333
0.050659761 0.55254811 -0.018879833 185.18182
0.16177812 0.56086874 -0.025358304 187.2
0.26085299 0.54845625 -0.024066715 186.88889
0.34361759 0.54327285 -0.024789874 186.83333
0.4552592 0.55402666 -0.027516708 187.76923
0.56479371 0.54813623 -0.027923705 189.375
0.64109939 0.53669327 -0.027955011 191.16667
0.75866604 0.57159245 -0.040994838 193
0.82963836 0.52024257 -0.042306617 193.66667
-0.42250392 0.68921441 -0.015866125 164
-0.35047859 0.62793911 -0.014267379 170.66667
-0.22678582 0.6764794 -0.015192444 169.25
-0.18780185 0.63467675 -0.017545298 172
-0.063732482 0.64921886 -0.019154133 173
0.044797998 0.66446376 -0.022557834 179.66667
0.15536636 0.64310771 -0.021945648 190
0.24810807 0.64044309 -0.023664577 189.8
0.33637375 0.62583256 -0.025275104 190.16667
0.44079033 0.62397426 -0.025349684 191
0.54133189 0.66330433 -0.039271794 192.33333
0.64973229 0.65743101 -0.038888697 193.75
0.74332434 0.6414662 -0.034014318 192
-0.54919732 0.79478455 -0.010393008 145
-0.48185787 0.73782647 -0.010155669 156.33333
-0.32102767 0.77984142 -0.016279159 164
-0.27444664 0.72849578 -0.014989151 166
-0.13572788 0.750664 -0.016970951 170.8
-0.017973201 0.78565484 -0.025092656 174
0.011142709 0.72568232 -0.01740583 176
0.12134623 0.73815078 -0.025333781 179
0.22521152 0.75039101 -0.030017259 184.16667
0.32787099 0.74557948 -0.032871518 188.66667
0.42510507 0.7444092 -0.034914307 189.66667
0.52254492 0.73398858 -0.034134291 189.2
0.62493229 0.73286223 -0.034914032 191.5
-0.5665068 0.8074739 -0.0031732393 144
-0.40633115 0.86967957 -0.0063021732 153
-0.37960219 0.84300715 -0.013777215 156.5
-0.20835984 0.85495591 -0.019248215 163.66667
-0.03959107 0.82130182 -0.015439113 168.33333
0.08278577 0.83995795 -0.021948131 169.5
0.19729942 0.8602066 -0.019523367 170
0.20548302 0.83829552 -0.030367235 172.5
0.31623444 0.85352057 -0.026416365 175.2
0.42827281 0.84882098 -0.031489618 180.75
0.53917104 0.8219806 -0.038560946 183.5
-0.25958204 0.92425543 -0.01110144 157.33333
-0.1182589 0.97262472 -0.017689679 161
-0.088321209 0.91725039 -0.020660372 164.66667
0.040393256 0.95630282 -0.02367845 165
0.1769965 0.9582895 -0.025679465 165.66667
0.18323471 -0.21549296 0.012950594 134
0.21124756 -0.18079028 0.024696419 123.375
0.081257068 0.18282472 0.082125597 147.5
0.16131817 0.17542392 0.045004591 131.46153
0.083206736 0.25150579 0.022837993 175
0.1156047 0.21500887 0.056830056 150
-0.17576279 0.36072791 0.031387612 165
-0.24224184 0.41024348 0.0017697442 169
0.074156761 0.17786649 0.12726191 129.36363
-0.11381058 0.29640737 0.1443678 165
-0.029550036 0.24153376 0.14486341 149.5
0.026210079 0.20644546 0.13943541 130
