# .PCD v0.7 - Point Cloud Data file format
VERSION 0.7
FIELDS x y z intensity
SIZE 4 4 4 4
TYPE F F F F
COUNT 1 1 1 1
WIDTH 179
HEIGHT 1
VIEWPOINT 0 0 0 1 0 0 0
POINTS 179
DATA ascii
0.19731146 -0.9440313 -0.012209263 167
0.32612598 -0.92834985 -0.012766404 166
0.21509266 -0.85305768 -0.01000836 173.8
0.33080146 -0.85563761 -0.011955238 175
0.44400623 -0.84474105 -0.014447315 178.39999
0.55374163 -0.82596868 -0.015682023 182
0.23771966 -0.74741691 -0.014149975 184.8
0.338164 -0.75409102 -0.013659107 185.2
0.43595025 -0.73250419 -0.011723016 188
0.53613019 -0.74388391 -0.01117778 182.60001
0.63582242 -0.72296178 -0.012758689 182
0.25854665 -0.63592994 -0.0082756802 189.33333
0.3445389 -0.6296283 -0.0068728579 188.5
0.42841917 -0.63866371 -0.0068129087 189.2
0.51941121 -0.65729111 -0.012716617 189.75
0.62932259 -0.65271747 -0.018452482 188.33333
0.70562929 -0.63666528 -0.01453002 187.75
0.27808186 -0.5374105 -0.0069941734 184.57143
0.35035428 -0.54526335 -0.0074043362 185.42857
0.44399509 -0.54393429 -0.0092185903 186.5
0.54467273 -0.5599317 -0.0094975932 188.41667
0.6530506 -0.53238833 -0.011621096 189.33333
0.76846707 -0.56114066 -0.01984567 190.14285
0.84454829 -0.51380885 -0.024865786 189.33333
0.29385942 -0.4889099 -0.027326491 181
0.34573522 -0.45708069 -0.027877608 179.77777
0.45197019 -0.45673668 -0.024625823 180.80769
0.54995084 -0.43340272 -0.01613592 182.375
0.65284383 -0.44678861 -0.013381104 186
0.74851751 -0.43664354 -0.012426223 189.5
0.85993952 -0.44491705 -0.030255156 189.66667
0.34891823 -0.34499997 -0.039992008 173.70732
0.43988183 -0.33558577 -0.031908076 175.05714
0.54818702 -0.35070306 -0.028239565 178.12
0.65006667 -0.33774233 -0.023883192 181.66667
0.75786406 -0.34755641 -0.015442471 186.7
0.83818519 -0.34507796 -0.012608946 190
0.91726065 -0.35068336 -0.030212533 188
0.36649621 -0.24922647 -0.058349557 168.28125
0.45624888 -0.25267869 -0.063224271 168.29825
0.54646933 -0.23968594 -0.041640479 172
0.65566945 -0.24977702 -0.033265766 177.94737
0.72798109 -0.24372543 -0.019923788 182.11111
0.83710235 -0.25133619 -0.017340561 187.15384
0.93873626 -0.27238792 -0.027429665 190.5
0.37752253 -0.14793412 -0.04955202 162.42554
0.44242975 -0.14072253 -0.054481413 162.21838
0.55083656 -0.14979698 -0.06610775 164.30556
0.63530087 -0.14728056 -0.033823598 172.92857
0.75335467 -0.14888109 -0.027866406 181.14815
0.87151861 -0.13990137 -0.018753691 185.83333
0.9446761 -0.14801021 -0.022764254 188.2
0.39314374 -0.041763317 -0.056731697 162.07692
0.43556717 -0.03779608 -0.053345699 164.51021
0.54761386 -0.048801698 -0.071606047 164.53847
0.63787055 -0.051355142 -0.047466461 170.5
0.76035094 -0.053259671 -0.032474224 180.03999
0.84416687 -0.055768829 -0.019121075 184.8
0.93856895 -0.047943618 -0.022803435 188
-0.66266733 0.055662423 -0.0067672352 158
-0.54780096 0.050117765 -0.0093797157 173
-0.44684669 0.045076471 -0.0078927651 178.2
-0.34107921 0.039661612 -0.0033666852 173.5
-0.24691939 0.035134211 -0.0056280177 174.5
-0.15931074 0.044230033 -0.035240322 179.4375
-0.043171238 0.053441271 -0.049055774 174.4359
0.050553743 0.049475361 -0.0665062 157.3793
0.15324089 0.047787312 -0.046926141 148.57747
0.25523618 0.048444435 -0.05559773 147.48032
0.36487666 0.036615308 -0.063047871 162.03804
0.40528938 0.055982325 -0.056679204 163.10345
-0.37170184 0.13510354 -0.0076589738 175
-0.24228768 0.13504112 -0.0080044717 174.63637
-0.16144876 0.14347184 -0.028341111 179.48
-0.03803806 0.13706625 -0.042752743 175.375
0.040258177 0.14650503 -0.064824052 164.54054
0.15316163 0.15364377 -0.054662704 143.55556
0.25379422 0.14412443 -0.051933289 146.1125
0.34707111 0.1413036 -0.056855723 158.06863
0.41354007 0.14402992 -0.063343756 160.54054
-0.52470887 0.28092319 -0.0041231434 168.33333
-0.47801825 0.26752007 -0.011207431 174
-0.36116728 0.23136389 -0.0063490537 176.33333
-0.26142019 0.20100386 -0.0065208334 174
-0.067311876 0.28678393 -0.037767202 178.3
0.07031922 0.26593596 -0.04604831 172.5
0.1536448 0.25222108 -0.059097655 155.90475
0.25356299 0.24760847 -0.059470173 147.13208
0.34894389 0.25275829 -0.07024695 154
0.42492652 0.25240606 -0.066629708 152.78261
-0.81762505 0.37036324 -0.0056234533 135
-0.71612233 0.33894983 -0.0015130653 145
-0.64434522 0.31804213 -0.0098732719 156
-0.21640684 0.37232396 -0.01030298 177.5
-0.1514437 0.33395606 -0.016761109 179.5
-0.04305166 0.34762996 -0.032841872 176.8125
0.04289107 0.35823664 -0.045275457 175.8421
0.15096675 0.34170505 -0.044958867 173.95238
0.24366572 0.334135 -0.040078979 163.92308
0.33419392 0.33721083 -0.037271686 153.96552
0.42728832 0.34344426 -0.037810601 149.90909
-0.41049182 0.49224114 -0.01730324 172
-0.34054133 0.44889221 -0.014143088 174.25
-0.26173228 0.44122127 -0.025134794 177
-0.1369468 0.42502406 -0.019309659 176
-0.045091014 0.45543775 -0.017579367 168.8
0.061469372 0.43792784 -0.032704327 172.4375
0.14645742 0.44867459 -0.044581089 178.27777
0.25298285 0.46201286 -0.049452581 178.81482
0.34705225 0.45586583 -0.045759879 176.46153
0.4324007 0.44416618 -0.041367821 171
-0.52575362 0.56227529 -0.015563255 159.66667
-0.45983866 0.52234626 -0.017167283 169.5
-0.33439171 0.58328944 -0.021057423 173
-0.25740954 0.52142847 -0.019763671 174.39999
-0.1481 0.56455028 -0.023890743 173
-0.036137901 0.5814786 -0.025201265 148
0.052930642 0.53470248 -0.021752078 161.54546
0.16383351 0.54345608 -0.02978838 174
0.25746897 0.55978274 -0.037382849 179.28572
0.33335218 0.56056011 -0.039034873 180.75
0.44174191 0.55308896 -0.04112367 178.13333
-0.64182061 0.63164467 -0.0080314996 143
-0.5948233 0.60353935 -0.011006002 151
-0.43103307 0.66087109 -0.02236568 164
-0.36556807 0.60661596 -0.014820925 171
-0.24155882 0.6617139 -0.024016479 171
-0.11281113 0.68718034 -0.030564718 172.5
-0.073415138 0.63132912 -0.024088483 171
0.032437239 0.65238088 -0.02869169 151.71428
0.13799727 0.65248567 -0.032920662 161.33333
0.23678659 0.64520496 -0.03914018 170.8
0.32418367 0.64838105 -0.041468207 174
0.43850273 0.64175695 -0.04638778 173
0.50406128 0.67987645 -0.052264843 168.25
-0.54772907 0.75197619 -0.013816385 148.75
-0.48073015 0.69990259 -0.019644579 158
-0.33413121 0.75801253 -0.02431557 166
-0.15400779 0.74181217 -0.028244341 170
-0.021868272 0.74936628 -0.027419245 142
0.087369666 0.7810244 -0.033481449 144
0.11354107 0.71134496 -0.028927024 152.5
0.21354282 0.73827654 -0.038770553 158.16667
0.31567538 0.72817206 -0.04316292 166.2
0.41253176 0.7305789 -0.045850962 165.60001
0.51624149 0.76326191 -0.050285947 158.60001
-0.41932911 0.84562683 -0.021453869 157
-0.22702423 0.84102529 -0.029885912 166.25
-0.062300093 0.82374412 -0.030466279 152
0.060501374 0.84855658 -0.032908481 139
0.18796945 0.83784395 -0.036067419 145.25
0.29833928 0.87380564 -0.040283274 144
0.30517843 0.81948274 -0.042598061 156.25
0.41513062 0.84157526 -0.047433473 153
0.52277768 0.81691217 -0.04464291 152
-0.30763423 0.94484776 -0.017920675 161
-0.28745669 0.92148805 -0.027257411 161
-0.11490701 0.92212725 -0.037383977 166
0.026584186 0.93616134 -0.03529435 131.5
0.1632133 0.94436759 -0.041930217 136.33333
0.29379156 0.93651438 -0.048882477 139
0.34163773 -0.63549 0.0016075886 189
0.28008151 -0.51720089 6.3815605e-05 184
-0.75538427 0.05969166 0.0052134739 135.5
-0.6935187 0.056604832 0.0058605941 146
-0.57128698 0.050731685 0.0023889693 166
-0.32379979 0.038455967 0.0042832321 175.33333
-0.31621671 0.12472805 0.0020414803 175
-0.25223655 0.10838082 0.068015456 148.14285
0.07176017 0.13861893 0.078687236 135.61539
0.15634306 0.13336827 0.044261552 128.48276
0.20273882 0.11112525 0.011868582 122.5
-0.41582018 0.24724621 0.0002371812 177
-0.27755359 0.20505014 0.00095249421 175
0.030215845 0.21576525 0.018975521 166
-0.72762883 0.34143934 0.0073019392 143
-0.63416165 0.31371012 0.00074633223 156
-0.27261198 0.10774706 0.12015689 166.22223
0.057837095 0.13265298 0.11108737 126.33334
