# .PCD v0.7 - Point Cloud Data file format
VERSION 0.7
FIELDS x y z intensity
SIZE 4 4 4 4
TYPE F F F F
COUNT 1 1 1 1
WIDTH 459
HEIGHT 1
VIEWPOINT 0 0 0 1 0 0 0
POINTS 459
DATA ascii
-11.514453 -3.4862616 2.0885627 12
-11.217509 -2.6802044 3.3580141 15
-10.960244 -3.0694046 3.1628306 15
-10.972021 -3.162292 3.398411 15
-10.525824 -3.5846167 1.2661955 10
-10.599988 -3.4673824 2.9368038 14.5
-10.29608 -3.2155743 3.2021589 15
-9.5871181 -3.4171095 2.7905824 15
-8.6592798 -3.4944029 2.3777254 14
-8.6071224 -3.4623909 2.7056324 15
-8.3355627 -2.3388927 0.32409224 8
-8.2082386 -3.5680034 2.3232131 14
-7.6829405 -3.5443785 1.1290926 11
-7.6623764 -3.5257924 2.1526692 14
-7.9361949 -3.4935563 2.5264046 15
-6.8538685 -2.9164147 0.56365383 9
-6.7315044 -2.9056582 0.34176207 8.5
-6.4039807 -1.6291108 0.79213637 10
-6.6253786 -3.1512883 1.0262023 11.5
-6.5416198 -3.185462 1.4229076 12.5
-6.6777925 -3.1084945 2.1282918 15
-6.1280794 -1.7795432 0.36284664 9
-6.2498989 -2.8503363 0.6215719 9.5
-6.3612876 -3.1920133 1.1152871 11
-6.3210816 -3.1839004 1.490934 13
-6.3959188 -3.1291165 1.8712815 14
-6.2982626 -3.1596365 2.091646 15
-5.7275958 -3.5364945 0.282112 7.3333335
-5.8000493 -2.896976 0.27669966 8.5
-5.650311 -3.5331657 0.49448615 8.333333
-5.8795109 -2.9488132 0.55001312 9.333333
-5.8068233 -3.5298967 1.0062665 10.2
-5.9094567 -3.1871147 0.82749534 11
-5.7747374 -3.5885768 1.4095196 12
-5.8276911 -3.3757095 1.8525181 13.857142
-5.4390736 -3.5695469 0.2660087 7.3333335
-5.3392401 -3.5930018 0.51828068 8.5
-5.4105039 -3.555033 0.9963153 10.5
-5.4612927 -1.6496254 1.086154 12.5
-5.5158372 -1.5850412 1.1181548 13
-5.4877658 -3.5840237 1.365553 12
-5.4065466 -3.5448203 1.8177792 13.666667
-4.9864173 -3.5660305 0.25134957 7
-5.1166506 -2.3192298 0.19961062 8
-4.8874493 -2.1887317 0.77497053 11
-4.942143 -1.5826974 0.58521044 10
-4.8800449 -3.5403342 0.94937652 11
-4.8443208 -2.22981 0.93215346 12
-4.8674107 -1.5695397 1.0153298 12.5
-4.6491547 -1.7565206 0.26925695 8.666667
-4.6474943 -1.4436564 0.20290816 8
-4.6390605 2.2417634 0.18708894 8
-4.5786271 2.9518414 0.39658144 9
-4.4915066 3.2853343 0.29623336 8.5
-4.5085797 3.9113743 0.35009587 9
-4.5351639 4.1684132 0.34552625 8.666667
-4.5732708 4.6332469 0.36065447 8.5
-4.4781508 4.9713364 0.26538813 8.333333
-4.524395 -1.8057773 0.63960534 10.75
-4.696404 -1.3390576 0.53787649 10
-4.50565 2.6125069 0.65928936 10.5
-4.5792103 3.0325685 0.60726422 10.5
-4.5514727 3.3033848 0.60440278 10.25
-4.583602 3.8009808 0.71085733 10.666667
-4.5727258 4.1783175 0.5456779 9.666667
-4.5267453 4.5891781 0.54995811 9.5
-4.4885201 5.004529 0.55243492 9.5
-4.4560113 6.5618567 0.57253522 9
-4.6575198 -2.0406671 0.90195745 12
-4.5369792 -1.7933751 0.95285285 12.666667
-4.5134397 2.580121 0.97367883 12
-4.5608969 2.9674838 0.92491043 12
-4.5727491 3.3883755 0.92364132 12
-4.5685868 3.7958379 1.0211303 12.2
-4.5658917 4.204329 0.95745891 11.5
-4.552516 4.6019535 0.97518986 11.5
-4.560194 5.0153232 1.1430255 12
-4.553844 5.3852901 1.0695434 11.5
-4.536005 5.8371625 1.1132035 11.333333
-4.5473018 6.121563 1.0739837 11
-4.4816403 6.5031977 1.1255074 11
-4.75383 -3.5840433 1.2542505 12
-4.733737 -1.6246227 1.2266637 14
-4.4842572 2.631798 1.3819512 14.333333
-4.5557261 3.041918 1.352172 14
-4.5596194 3.3719783 1.4146183 14
-4.5473881 3.7042804 1.5073175 14.333333
-4.5690861 4.1883416 1.3951545 13.333333
-4.5687537 4.6430197 1.2859796 13
-4.5585546 5.0508246 1.4499843 13
-4.5604372 5.3782849 1.3321819 12.666667
-4.546371 5.8496547 1.3700544 12.5
-4.5383744 6.2044048 1.3795961 12.333333
-4.4925308 6.5459909 1.3913857 12
-4.5333347 7.8923841 1.3845004 11.5
-4.5541592 3.7254536 1.6532407 15
-4.5403223 4.2018099 1.7353622 15
-4.5264378 4.5753994 1.725852 14.333333
-4.5357428 4.9412732 1.8114517 14.5
-4.5136108 5.3639011 1.8818828 14.333333
-4.537518 5.7274098 1.7823772 13.5
-4.5268645 6.1311779 1.8587675 13.5
-4.4857712 6.5162716 1.797914 13
-4.5196328 7.936204 1.8125682 13
-4.5261612 5.5176792 2.0557227 15
-4.5283861 5.7898455 2.1207821 15
-4.5027628 6.2219477 2.1920178 15
-4.4805474 6.5108042 2.1815155 14.5
-4.4072833 6.8709321 2.3780022 15
-4.0845203 -1.0276848 0.27686656 9
-4.1855655 2.2840889 0.25013542 8.333333
-4.1242366 2.483495 0.28841311 9
-4.1539941 3.29019 0.32529417 9
-4.1943998 5.0576396 0.26737663 8.333333
-4.1630802 5.4403882 0.30663553 8.5
-4.1409311 5.8164577 0.32881156 8.5
-4.133945 2.2937448 0.47806326 10
-4.1321201 2.4838941 0.49243417 10
-4.2688479 3.2702663 0.54808962 10
-4.2357674 5.0369072 0.61156523 9.75
-4.1496181 5.3719354 0.56529075 9.5
-4.1134648 5.7504158 0.59681308 9.5
-4.1308856 -3.5786214 1.1638252 12
-4.316226 4.9318123 0.94644552 11.333333
-4.1227918 6.5400643 0.9227187 10
-4.1472759 -3.5378094 1.426614 13
-4.357656 6.6129732 1.285217 12
-4.2403884 6.5639086 2.11045 14.5
-3.8513803 3.3945239 0.26212692 8.5
-3.6753583 3.6106157 0.2276343 8
-3.7941217 -3.5589237 0.78170508 10
-3.9158101 -2.9458573 0.61248034 9.5
-3.9077861 3.2069306 0.54977214 10
-3.9037836 6.5295944 0.91929138 10
-3.7757871 -3.5414126 1.3994006 13.333333
-3.7976644 6.5683303 2.0729079 15
-3.393779 -3.3210759 0.26382026 7.4000001
-3.4569488 -2.985399 0.30068994 8
-3.3405249 -2.4089797 0.26588196 8
-3.4364727 -1.9176857 0.31311572 9
-3.3723185 -1.0379375 0.31845343 9.5
-3.326956 2.1977291 0.29469755 9
-3.5041714 2.4244468 0.30101123 9
-3.3183248 -3.4457066 0.61624777 9.666667
-3.4264719 -2.9981115 0.67773485 10.25
-3.3831367 -2.5594931 0.69228959 10.666667
-3.4234533 -2.2259572 0.70199168 11
-3.4401934 -1.967597 0.71855903 11.5
-3.4020193 -1.185178 0.59533501 11.5
-3.3160765 -3.4498415 1.0458422 12
-3.4347398 -1.8461787 0.84349316 13
-3.3996522 -1.3980399 0.87787777 14
-3.3586762 -0.82428867 0.93143749 15
-3.3427558 -0.73753995 0.93886763 15
-3.3705964 6.472939 1.1508101 11.5
-3.4099474 -3.4149568 1.3321433 14
-3.3908594 -2.9690759 1.364252 14
-3.361799 -2.5803347 1.2507979 14
-3.4126928 6.475791 1.4254062 12.5
-3.4342959 6.5065417 1.7360884 14
-3.3940818 6.4955554 2.0933158 15
-2.9918823 -3.5372646 0.21349774 7.1666665
-3.1720665 2.3034906 0.27914435 9
-3.1551628 2.4073575 0.2866239 9
-2.8345358 4.8913035 0.33015209 9
-2.9248159 5.2130747 0.38413161 9
-3.0079687 -3.5476148 0.60025221 9.8000002
-2.9753189 4.3498631 0.67187351 11
-2.9698908 4.4009862 0.6322059 10
-3.0302348 5.2626991 0.61077613 10
-2.9717393 -3.5418754 0.95463127 11.6
-2.8655577 6.4398603 1.1615831 12
-2.9576917 -3.5423331 1.2711443 13.666667
-3.0041704 6.4629903 1.4427199 12.5
-2.9332643 6.4534106 1.7001268 14
-2.9463544 6.4772725 2.0220597 15
-2.5890281 -3.5772884 0.18157642 7
-2.7690001 -2.9590712 0.25454229 8
-2.7279565 4.3065662 0.35624972 9
-2.6737905 4.6396227 0.33443671 9
-2.6292963 -3.5697999 0.57210213 9.8000002
-2.7672982 -2.9406555 0.64052349 10.5
-2.6471846 4.3645763 0.64001602 10.666667
-2.5908253 -3.564625 0.9986816 12.166667
-2.6684623 -2.9061096 0.99648744 13
-2.5920627 6.4505835 1.170747 12
-2.6397204 -3.5408256 1.2234315 14
-2.5737767 6.448061 1.3769159 12.666667
-2.5988953 6.4712973 1.7937145 14.333333
-2.6088393 6.4701228 2.0358231 15
-2.207449 -3.5796797 0.16944309 7
-2.152493 4.3527656 0.36998892 9
-2.3647559 5.1519761 0.38544387 9
-2.2418039 5.2089596 0.39827579 9
-2.2046094 -3.5697186 0.56359488 10
-2.2006454 4.3361702 0.54257631 10.2
-2.2067177 5.1884708 0.51413208 9.5
-2.1992471 5.205225 0.49079871 9.5
-2.2117054 -3.5583904 0.98404819 12.6
-2.3005102 6.397666 1.1732299 12
-2.1445484 6.4446325 1.1858385 12
-2.1994333 6.4350247 1.3715618 12.75
-2.1811895 6.4516721 1.8287069 14.5
-2.0080771 6.4554935 2.0321352 15
-1.7436393 -3.580621 0.18431346 7.1999998
-1.7796344 -3.5714624 0.56798565 10.285714
-1.7054459 4.3484597 0.59134519 10.75
-1.7422287 6.4534688 0.68826491 9.666667
-1.7696542 -3.5572319 0.98900503 13
-1.9805682 6.4708781 1.1949351 12
-1.8102791 6.4670153 1.3451375 12.6
-1.7962455 6.474153 1.7676561 14.333333
-1.8841083 6.4799275 2.018378 15
-1.2719126 5.9824653 -0.16406646 6
-1.3579739 -3.5795288 0.27124062 8
-1.3712651 -3.568465 0.58386552 10.5
-1.4212497 4.3308735 0.53988403 10.5
-1.3963838 6.4759941 0.64813238 9.5
-1.3873384 -3.5577731 0.96735352 13
-1.3996425 6.4780326 1.3688983 12.666667
-1.3475971 6.475822 1.7376682 14.333333
-1.4931142 6.4767008 2.0021083 15
-0.83635515 0.70421976 -0.010591255 7
-0.83817774 0.92533457 -0.019688144 7
-0.86751974 1.4104173 -0.021901358 7
-0.90982562 2.1994092 -0.051291667 6
-0.83360487 2.8862689 -0.08993151 6
-1.0401914 -3.5808825 0.24217696 7.8571429
-1.1080867 -3.5711193 0.52652538 10
-1.0046993 4.3591118 0.60289347 11
-1.0135922 6.4732952 0.71649915 10
-1.0471321 -3.5629628 0.94905645 13.166667
-0.84582198 6.5022745 0.80108851 11
-0.98942578 6.4789653 1.3605034 12.833333
-1.0293933 6.4686699 1.7909789 14.5
-0.56849682 0.26318711 -0.0085097179 7
-0.59061217 0.63841772 -0.020785354 6.4000001
-0.61878324 0.95214319 -0.022897117 6.5999999
-0.57703942 1.4462852 -0.026412532 6.5999999
-0.66932291 1.7883413 -0.035859156 6.6666665
-0.56167537 2.2410669 -0.067445979 6
-0.71065426 2.5933461 -0.078045949 6
-0.44187373 2.9901404 -0.08519651 6
-0.5060851 -3.4871209 0.085556649 7
-0.56425267 -0.23527181 0.016996352 8
-0.79986537 4.3427472 0.57585013 11
-0.60656798 6.4731112 0.75862825 10
-0.65332139 -3.559123 1.0127063 13.666667
-0.61830604 6.470541 0.99490327 11.5
-0.61552167 6.4741287 1.3983254 13.2
-0.62303823 6.4617319 1.8167233 14.666667
-0.2579816 0.62396324 -0.030268934 5.6666665
-0.32686093 0.9136923 -0.0246015 6
-0.14567964 1.5151415 -0.043418646 6
-0.18994065 1.7761378 -0.051891785 6
-0.2031486 2.1290772 -0.061991304 6
-0.33294842 2.596514 -0.073910266 6
-0.21101372 -3.5059516 0.25188112 8
-0.19557565 -1.2821487 0.32811889 13
-0.10098271 -1.1497245 0.30588466 13.5
-0.13391864 -3.4750268 0.59351742 11
-0.036680035 5.7913089 0.72233874 10.5
-0.17448136 6.0866933 0.69409931 10
-0.31982654 6.4721375 0.74169463 10
-0.18620156 -3.4468884 0.82749486 13
-0.038925666 5.8025632 1.1885424 13
-0.3499327 6.4664612 0.98478466 11.5
-0.013768519 5.8025413 1.4645081 14
-0.17005856 6.1419139 1.5307282 14
-0.27844426 6.4659624 1.4028507 13.5
-0.3014738 6.4639115 1.9332712 15
0.19629247 0.59610927 -0.038735695 5.3333335
0.075473815 0.95862603 -0.044402778 5.6666665
0.01752915 1.3290739 -0.036592536 6
0.094514735 -3.4627829 0.30161685 9
0.1234699 -1.2977341 0.381419 14
0.095178828 -1.0467107 0.29588097 14
0.18081355 5.7750258 0.6831255 10.333333
0.15358068 5.7801666 0.98566967 11.8
0.23614773 5.7863069 1.387311 13.833333
0.15052325 5.8064485 1.6908258 15
0.6161145 -0.84502459 -0.0092699127 7
0.59053475 -0.54012418 -0.011651822 6.8000002
0.58286172 -0.18922538 -0.037923459 5.1428571
0.62133747 0.042023242 -0.046604633 4.8000002
0.62817818 -0.92400247 0.17736742 11.3125
0.60191733 -0.46223399 0.0008165621 7
0.70458108 -0.33867291 0.0019981198 7
0.62567258 5.8098135 0.68936658 10.333333
0.56582004 5.8073602 0.96849692 11.625
0.50867993 5.85426 1.4613225 14
0.68794012 6.2287216 1.3824723 13.5
0.48535869 5.8114967 1.7029564 15
0.76205379 6.0928235 1.6440309 15
1.0178651 -0.19891076 -0.010641797 7
0.99473292 0.15242562 -0.028475408 6.25
1.0097423 -0.89963704 0.21467808 11.266666
1.0524623 -0.6715616 0.32195833 14.2
0.80924708 -0.22216064 0.00038656281 7
1.1109095 -0.9118517 0.42803848 15
0.92471641 5.84549 0.63101518 10
1.0512638 6.3784432 0.73952693 10
1.0699301 6.3278389 0.94627559 11.333333
1.0605121 5.9465513 1.4198108 13.666667
0.95103645 6.2035589 1.3620077 13.25
1.0507839 5.8991871 1.719189 15
0.85714608 6.0641327 1.757346 15
1.3144866 -0.1754463 -0.024121474 6.5
1.4405261 0.22332285 -0.04083598 6
1.3671585 -0.87025458 0.18556249 10.142858
1.376179 -0.67393643 0.32281905 13
1.5012301 -0.67580158 0.42820635 14.5
1.5297058 5.8135719 0.55775428 9.5
1.3332049 6.2399917 0.69392848 10
1.4140168 6.3857322 1.020575 11.4
1.4578553 5.9862943 1.4064252 13.666667
1.3153652 6.0917912 1.3101282 13
1.3772614 5.9265742 1.7262973 15
1.6408505 0.23392791 -0.031160269 7
1.6939626 0.40784627 -0.047977999 6
1.654997 -0.84111017 0.18348658 9.5
1.8024915 -0.67772913 0.2974968 11.5
1.8156967 -0.67128223 0.47391793 14
1.7841927 5.8184032 0.54255038 9.5
1.7580881 6.289392 0.7189849 10
1.8259339 6.3845735 1.0485572 11.4
1.8109007 5.9772315 1.3972001 13.5
1.8998572 5.8162947 1.7070982 15
1.7081043 6.212707 1.9348348 15
1.9149479 6.4067626 1.9893229 15
2.1189897 0.2146429 -0.04518377 6.5
2.0745347 0.52500159 -0.064212464 6
2.1598046 -0.71047366 0.22991084 10
2.2237775 -0.67345625 0.55071026 13.75
2.1366663 5.825459 0.50824189 9.333333
2.2003102 6.313128 0.70920563 10
2.2185652 6.3781486 1.0481681 11.5
2.1674287 5.9751668 1.3990231 13.2
2.266248 5.8998427 1.6559855 14.5
2.0729604 6.3955159 1.9918866 15
2.2359612 6.3996787 2.0003352 15
2.5938642 -0.69525826 0.255568 9.666667
2.5395808 4.2928419 0.392281 9
2.6131916 -0.67764246 0.61232483 13.5
2.738097 4.3841286 0.57640171 10
2.5577445 4.5275555 0.55172104 10
2.5718722 5.7842402 0.50666535 9.333333
2.5550516 6.3724971 0.64830178 9.666667
2.5839155 6.3792796 1.0056657 11.333333
2.5938001 5.9698706 1.3383626 12.6
2.6119635 5.8637757 1.6806087 14.666667
2.7591145 6.0077591 1.6041995 14
2.6112239 6.3967347 2.0170982 15
3.1204453 0.84457237 -0.15676472 6
2.9616191 -0.68291098 0.21893889 9.166667
2.8453102 4.033998 0.35682327 9
2.8778503 4.5213227 0.37528735 9
2.9803002 -0.67559046 0.60921085 12.8
2.9472537 4.3227339 0.45369145 9.333333
2.9911706 5.7915683 0.63246274 9.8000002
3.033154 -0.6781891 0.87417018 15
3.0639527 5.7923946 0.95352197 11.333333
2.9320176 6.2677588 0.99644208 11.2
3.0276449 5.8576427 1.3603346 12.714286
3.053674 5.9988761 1.6925713 14
3.0019829 6.3998384 2.038105 15
3.5735135 -0.20179813 -0.073107138 6
3.5742159 0.19500294 -0.071083643 6
3.5706377 0.58672267 -0.08703389 6
3.5742481 0.98857975 -0.086044855 6
3.4703271 -0.60899323 0.26943213 9
3.5912335 -0.22680557 0.24040498 9.25
3.5955477 0.090591073 0.23323119 9
3.584867 0.99703574 0.021301866 7
3.4725707 3.0614507 0.33545437 9
3.4820905 3.5771689 0.36608821 9
3.4904792 3.864357 0.36513084 9
3.4593434 4.0119805 0.37691361 9
3.4312212 -0.61704034 0.55127907 11.571428
3.5993738 -0.13456663 0.42565227 10
3.4869628 3.0438311 0.55541754 10.666667
3.4892974 3.5467787 0.6055842 10.5
3.4100692 3.8258061 0.63350046 10.6
3.3531654 4.2455344 0.60614312 10.25
3.3079267 4.5573893 0.57008994 10
3.2667806 4.8382959 0.7899614 11
3.2703979 5.2149768 0.75682509 11
3.3336895 -0.68243933 0.92834646 14.5
3.4228396 3.0171003 0.9672569 13
3.4987588 3.4506443 1.0335959 12.8
3.4562063 3.8338938 1.1232613 13.2
3.2734256 4.2464685 0.92002594 11.5
3.2694461 4.6349583 1.0283266 12
3.2770569 4.9823971 0.93424773 11.333333
3.288444 5.3126836 1.0032859 11.5
3.2975748 5.672039 0.96352357 11.5
3.4538751 2.9714777 1.3039957 15
3.4813588 3.5833163 1.4341764 15
3.4705381 3.8897638 1.390313 14.5
3.2697728 4.2831182 1.3719184 14
3.3296478 4.5429425 1.3727454 13.5
3.2755754 5.0273623 1.4094267 13.5
3.3011708 5.4342813 1.3160882 12.666667
3.2747784 5.7105641 1.3872005 13
3.4326355 4.4405284 1.6171708 15
3.4622219 4.9355769 1.7302427 15
3.4336505 5.5000882 1.6845288 14
3.3525138 5.6603994 1.7160068 14
3.4061553 6.0863004 1.8096423 14
3.3609972 6.3981686 2.0588095 15
3.6441462 -0.55880702 0.18467173 8.5
3.6393502 -0.17206866 0.18683229 8.4285717
3.6284094 0.20597871 0.20346195 8.7142859
3.6293776 0.60698253 0.22709489 8.7142859
3.6553698 1.0105045 0.26102909 9
3.6587832 1.3978078 0.22902022 8.5
3.6670473 1.8071761 0.21719825 8.5
3.675318 2.202353 0.22699918 8.5
3.6822994 2.5949628 0.23845546 8.3999996
3.6637123 2.8739374 0.26587036 8.5
3.6598127 3.4768457 0.29309577 9
3.6759837 4.3396869 0.30045629 9
3.6599154 4.4612269 0.38664082 9
3.6236949 -0.56003463 0.64397436 12.142858
3.6113784 -0.22536048 0.59244853 11.714286
3.6200724 0.20498233 0.60122639 11.777778
3.6260881 0.60876024 0.59792751 11.777778
3.6459987 1.0064244 0.58345258 11.5
3.6585488 1.395474 0.57023776 11
3.6838129 1.816504 0.60092598 11
3.6917627 2.225462 0.60915059 11
3.6955376 2.585098 0.58257455 10.6
3.6735427 2.890027 0.58072239 10.666667
3.6387262 3.4866998 0.59748018 10.5
3.6621094 4.4672136 0.73788339 11
3.6314545 -0.52648705 0.95536232 14.2
3.6419134 -0.19484165 0.92452198 14
3.641794 0.17326276 0.95280981 14.2
3.6477416 0.623043 0.94107342 14.333333
3.6370151 1.010269 0.95611185 14
3.6678531 1.4099503 0.98290622 14
3.6792049 1.8238006 1.0096881 14
3.6730931 2.2353792 1.0228145 13.8
3.6786673 2.5987902 0.96540505 13
3.672267 2.9722438 1.0171809 13
3.6347678 3.5028923 1.1375577 13.5
3.6982493 4.3791027 0.83399981 11
3.6553082 4.4539237 1.0651515 12
3.7194026 1.8683302 1.2367377 15
3.7238905 2.1763074 1.2993129 15
3.7231944 2.614567 1.2587497 15
3.7318881 2.9751246 1.3321961 15
3.6453474 3.5589583 1.3722023 14.5
3.6081073 3.8893969 1.5112962 15
3.6805429 4.3298569 1.2672321 13
3.642477 4.4647326 1.3804731 13.5
3.6787252 4.3462448 1.6157032 15
3.8045774 5.7223039 1.9326705 15
3.754791 6.2620831 2.0528703 15
