# .PCD v0.7 - Point Cloud Data file format
VERSION 0.7
FIELDS x y z intensity
SIZE 4 4 4 4
TYPE F F F F
COUNT 1 1 1 1
WIDTH 203
HEIGHT 1
VIEWPOINT 0 0 0 1 0 0 0
POINTS 203
DATA ascii
-0.30182201 -0.90114117 -0.0017832255 156
-0.13969034 -0.91800672 -0.0075886655 167.33333
-0.0025718207 -0.95131963 -0.01867328 170
0.1366971 -0.95034194 -0.016497957 193
0.26861051 -0.95209378 -0.020674445 191.5
-0.25431067 -0.8420102 -0.0098101273 162.33333
-0.11943081 -0.88856566 -0.01882094 165
-0.094317496 -0.84101766 -0.011556793 167
0.041764013 -0.84098387 -0.014462975 174
0.1652647 -0.84655571 -0.019567855 177.25
0.28117514 -0.8548584 -0.020809537 176.60001
0.39406106 -0.85014415 -0.023662485 176
0.50477564 -0.83303016 -0.022399344 174.5
-0.40160599 -0.79602128 -0.0014322372 150
-0.33577839 -0.73117054 -0.0070921374 163
-0.20238571 -0.77295566 -0.0073717982 170
-0.1693262 -0.73019975 -0.0088752499 176.66667
-0.04735744 -0.75964439 -0.012424667 176.16667
0.087102145 -0.73262388 -0.016370764 182.39999
0.19027056 -0.75003189 -0.017187949 180
0.26385283 -0.74029934 -0.023653651 184.33333
0.37808058 -0.73807025 -0.02252393 187.33333
0.48966318 -0.73076349 -0.018171562 184.25
0.56034672 -0.75128597 -0.021058889 180.33333
0.60341537 -0.77061933 -0.024037123 179
-0.4320856 -0.63967407 -0.0054376926 158
-0.2515029 -0.64596099 -0.0072321445 176.8
-0.12619968 -0.67454612 -0.011143547 184.66667
-0.070618406 -0.63746291 -0.016060529 186
0.013678451 -0.65637457 -0.018348878 188.25
0.12428406 -0.64181155 -0.015266183 189.60001
0.22158852 -0.62954438 -0.014621576 189
0.34365922 -0.62997019 -0.0089765154 189
0.48023713 -0.65811688 -0.01961218 189
0.57576704 -0.66870588 -0.024851806 187.8
0.66821033 -0.65615559 -0.024959425 189.5
0.74829829 -0.61003429 -0.025088292 191
-0.33128667 -0.56162101 -0.0083606681 178
-0.26884007 -0.51112044 -0.0012931223 180
-0.15889186 -0.55314052 -0.010025674 184
-0.022942567 -0.53808284 -0.0084797619 188.66667
0.055893153 -0.54723495 -0.013763341 187.5
0.16133051 -0.54852563 -0.010332566 186.42857
0.24545965 -0.53675866 -0.011903149 185.25
0.35473382 -0.55042511 -0.013556608 185.5
0.46525696 -0.5575583 -0.015192457 187.125
0.54345113 -0.55819994 -0.018004091 188
0.62749475 -0.53714645 -0.016163066 189.57143
0.7219283 -0.56351298 -0.027431471 192.33333
-0.23619667 -0.48810232 -0.011564245 183
-0.15284595 -0.42166036 -0.0061142114 186.39999
-0.056694489 -0.44899303 -0.0075686299 186.39999
0.056143835 -0.43889835 -0.020083226 182.91667
0.151879 -0.46664274 -0.025441371 181.89999
0.25123158 -0.45735905 -0.034324709 179.66667
0.36482593 -0.46400183 -0.030787928 179.79167
0.4543699 -0.45196664 -0.027162055 180.30769
0.53546464 -0.43601117 -0.02191535 181.86957
0.64637297 -0.46626213 -0.018314948 186.7
-0.34256494 -0.32065624 -0.0038547425 186.75
-0.11275093 -0.38994938 -0.0045353011 186
-0.04335716 -0.35200417 -0.018578166 182.35715
0.049370751 -0.35198173 -0.026652448 179.14999
0.15815549 -0.33976424 -0.030593371 174.96552
0.25007334 -0.34402213 -0.041428968 173.175
0.35332552 -0.34266016 -0.042492472 173.5625
0.450362 -0.3341462 -0.033575673 175.13792
0.55241418 -0.34345576 -0.03321996 178.125
0.61123973 -0.37445447 -0.025854448 181.5
-0.2301624 -0.27127993 -0.0041375263 186.5
-0.12961274 -0.22984987 -0.023360029 180.75
-0.081073001 -0.20824948 -0.021686237 179.5
0.060637247 -0.26528698 -0.037322469 174.72728
0.14958103 -0.25303668 -0.055696648 169.55
0.25469112 -0.24796797 -0.051208738 168.7027
0.34494695 -0.23833834 -0.052215409 166.7561
0.44775423 -0.25274721 -0.063260056 167.91936
0.52732074 -0.25299272 -0.045271136 172.64865
-0.028706625 -0.18555345 -0.024254231 176.33333
0.026783943 -0.1650877 -0.052342068 169.09091
0.15806383 -0.14008503 -0.036455292 163.97873
0.25337711 -0.14396431 -0.043696713 163.1134
0.35370874 -0.14200078 -0.047313958 158.62903
0.44369894 -0.14328502 -0.054327272 161.9315
0.51381975 -0.18374102 -0.075237833 165.625
0.1840992 -0.093762591 -0.042706467 165.33333
0.26099485 -0.074342206 -0.05892415 162.10715
0.36711118 -0.043890305 -0.062147427 163.0204
0.41719067 -0.053570844 -0.052390002 163.8421
0.38469356 0.041607019 -0.056157626 157.83333
0.43175295 0.047673475 -0.055096861 161.97156
0.54677778 0.080350734 -0.074587837 159.8
0.2890586 0.17293689 -0.051975135 150.89999
0.35347065 0.14376269 -0.05409687 157.36449
0.44667569 0.14156908 -0.064928375 158.16867
0.54700655 0.14910476 -0.065073356 154.7738
0.6421054 0.15036395 -0.040152963 152.29411
0.73361236 0.16983008 -0.024058459 150.92308
0.25666896 0.26932999 -0.030557722 146.60001
0.3545709 0.25496456 -0.065834083 152.37878
0.45439774 0.25011069 -0.058030188 152.04546
0.54623604 0.24082047 -0.040928338 153.61905
0.65223885 0.24804565 -0.033346504 152.46428
0.73188084 0.23874533 -0.018764118 155.125
0.83425623 0.24754559 -0.023768786 158.60001
0.94697911 0.2719658 -0.043882944 165.66667
0.17349522 0.34677315 -0.037248116 172.27272
0.26073566 0.34095037 -0.036230519 162.34483
0.35177547 0.33887771 -0.032882452 153.53334
0.44650459 0.33944237 -0.032297242 151.56
0.55010891 0.35508189 -0.032598358 155.03847
0.639319 0.33479816 -0.022563241 160.05263
0.74573052 0.35079828 -0.023788599 170.54546
0.84201288 0.34771013 -0.03152689 166.8
0.91892481 0.34649515 -0.037105627 163.75
0.087545626 0.4709475 -0.017932268 171.2
0.1513568 0.45176384 -0.042355321 177.96001
0.2427204 0.45546317 -0.045817748 178.39999
0.34436759 0.46013865 -0.041288998 176.08
0.45703468 0.44427967 -0.033073165 171.41667
0.54641259 0.43379861 -0.022686321 171.375
0.64335304 0.44459936 -0.028037315 174.10001
0.73028433 0.44041425 -0.024764044 178.39999
0.84508628 0.44695193 -0.0393597 166.85715
0.046391279 0.53392816 -0.016426565 159.71428
0.13611861 0.55944848 -0.021857683 165.77777
0.25296962 0.55426317 -0.028359082 177.6875
0.35795113 0.55049056 -0.030441402 180.625
0.43992516 0.56394649 -0.033726159 178
0.54388249 0.54258484 -0.034009308 177.28572
0.67020029 0.53621161 -0.03773693 174.75
0.76131105 0.54986382 -0.042021416 169.71428
0.84726316 0.50239432 -0.036372282 163
-0.024186438 0.64437431 -0.019120665 146
0.068775885 0.65115792 -0.024640476 152.28572
0.18188803 0.65146387 -0.027925175 161
0.27503607 0.6440621 -0.029036343 171.25
0.36226082 0.64630282 -0.032969907 171.2
0.44948325 0.66363066 -0.038929239 172
0.54091889 0.6696257 -0.040345587 170.5
0.62548637 0.63772631 -0.042498242 172.66667
0.71520501 0.62164551 -0.041713055 182.5
-0.11906219 0.79094648 -0.018807491 140
-0.080006726 0.72925365 -0.016060166 142.5
0.033204675 0.75430965 -0.021335425 143
0.15413398 0.73483592 -0.025936445 152.8
0.25895444 0.73270023 -0.030011099 161.16667
0.35764536 0.73105812 -0.031797912 163
0.45429495 0.73822367 -0.034981519 163.25
0.56152785 0.76659554 -0.039313965 158
0.65680635 0.72454995 -0.043159515 161.66667
-0.16130178 0.85637611 -0.019044911 135
-0.024917867 0.87730354 -0.022968976 137
0.003074181 0.81636596 -0.019495254 139
0.12361985 0.82654929 -0.023850378 140.25
0.23965433 0.83207643 -0.026901044 146
0.35239625 0.84412628 -0.033376142 162.60001
0.4608252 0.82379669 -0.033929229 157.25
0.56578207 0.80033082 -0.029124344 154
-0.20750535 0.92417318 -0.011319542 126.5
-0.055456534 0.94066221 -0.021841029 132
0.086854875 0.94225276 -0.027014883 132
0.22156696 0.93773645 -0.031787243 134.66667
0.34763354 0.90963572 -0.02852322 190
-0.32218796 -0.92397243 0.0080272341 185
-0.20287225 -0.97299862 0.098107725 209
-0.17921717 -0.95902234 0.045834195 213.77777
-0.014833641 -0.90829706 0.08209981 211.66667
0.11773714 -0.94442093 0.052560788 211.11111
0.24852592 -0.9507072 0.047510475 209.81818
-0.42885548 -0.82124674 0.0061758645 149
-0.24659812 -0.82704741 0.0024536261 164
-0.56050646 -0.73557895 0.012986086 124.33334
-0.36047241 -0.75250298 0.0047482899 155
-0.50277519 -0.69164884 0.008069111 135
-0.46330824 -0.66148943 0.0052452674 147
-0.78553569 -0.5124526 0.017035181 107
-0.35860795 -0.57977742 0.0048263124 166.5
-0.71912193 -0.48249531 0.022154119 109
-0.65344739 -0.45435569 0.016956298 116.66666
-0.56605697 -0.41688016 0.010297346 139
-0.1642181 -0.4287025 0.0015041088 188
0.10763381 -0.48289418 0.0002544841 187
-0.50144929 -0.38828394 0.011552836 156
-0.44759008 -0.36527088 0.0069213277 169
-0.37859178 -0.33494014 0.006863825 178.5
-0.084666163 -0.36663464 0.0011198649 185.5
-0.2619414 -0.28368488 0.0066525214 188.66667
-0.16294126 -0.24076028 0.0025019627 183.8
0.077954888 -0.16988175 0.071936771 148.88235
0.12000855 -0.15226632 0.031388476 141.46666
0.26699623 0.18773974 0.042540699 123
0.2414514 0.25213677 0.0080979038 137.5
-0.21087049 -0.96592832 0.13846242 209.33333
-0.033302911 -0.90630794 0.14687669 210.10001
0.085356899 -0.95644778 0.15069485 207.88889
0.1002533 -0.95666885 0.10037517 211
0.21640441 -0.96383566 0.14989261 208.39999
-0.16560346 -0.30293947 0.13823664 149
-0.12787217 -0.27946186 0.14310449 148
-0.060617127 -0.23608321 0.15987079 147
-0.00074391451 -0.19877782 0.16787384 142
0.042521849 -0.1783817 0.13906583 137.91304
