# .PCD v0.7 - Point Cloud Data file format
VERSION 0.7
FIELDS x y z intensity
SIZE 4 4 4 4
TYPE F F F F
COUNT 1 1 1 1
WIDTH 184
HEIGHT 1
VIEWPOINT 0 0 0 1 0 0 0
POINTS 184
DATA ascii
0.29076087 -0.020966716 -0.10680218 173.75
0.30465716 -0.013376361 -0.10954487 175.5
0.62245363 -0.72774214 -0.01686451 182.5
0.59622031 -0.63745815 -0.025441647 190
0.64904577 -0.65603143 -0.023012033 187.25
0.71526676 -0.68746334 -0.025712615 188
0.56474715 -0.55100322 -0.012394303 188.28572
0.64186472 -0.53765506 -0.01492365 188.16667
0.75301981 -0.56321371 -0.025051037 189.66667
0.82938099 -0.51884586 -0.030165285 189.75
0.5488494 -0.43428421 -0.017156443 182
0.65952432 -0.45885688 -0.018446971 186.60001
0.74146444 -0.43789691 -0.017065244 188.66667
0.85864931 -0.44799748 -0.03652877 189.39999
0.49419901 -0.31957451 -0.0246462 176.125
0.55355346 -0.35322607 -0.02988844 178.47368
0.64226687 -0.34293833 -0.025801629 181.375
0.7470094 -0.3534852 -0.021437824 185.39999
0.82769406 -0.33828813 -0.023344677 189.66667
0.90802413 -0.36218765 -0.041634917 191
-0.11634566 -0.21215616 -0.021455662 159.66667
-0.093920127 -0.20344855 -0.033138927 166.5
0.48267791 -0.25262496 -0.059498433 168.5238
0.54152364 -0.23980069 -0.043051574 171.62746
0.65521884 -0.24915212 -0.035937175 178.13043
0.7366122 -0.24349017 -0.025628777 182.78947
0.84141296 -0.25531903 -0.028914934 187.55556
0.94054663 -0.26219878 -0.042464979 189.66667
-0.13741635 -0.15017998 -0.022727167 157.77777
-0.035252094 -0.14589627 -0.037784204 172.26471
0.038219046 -0.13532144 -0.065846957 164.13637
0.12576349 -0.11028633 -0.042855598 147.10001
0.46452236 -0.13934958 -0.05759427 163.68628
0.55451959 -0.14807265 -0.067971312 165.60811
0.63780075 -0.14330143 -0.03854306 174.18919
0.74512607 -0.15617618 -0.034539372 180.375
0.85826015 -0.14343205 -0.027969599 186.66667
0.95351136 -0.13672511 -0.038305879 189
-0.14879484 -0.050337583 -0.023785358 159.43478
-0.044858631 -0.041527994 -0.046929438 172
0.056587975 -0.044424683 -0.057946458 154.47368
0.15671404 -0.044247054 -0.043639917 149.55421
0.24600929 -0.032324299 -0.062297799 158.39394
0.34917879 -0.011573823 -0.071496464 163.5955
0.4394761 -0.035186965 -0.05398592 164.53726
0.54943585 -0.05200405 -0.076832503 167.89189
0.63496888 -0.053815696 -0.052109648 172.09616
0.75491005 -0.063836768 -0.039701417 179.92308
0.85370773 -0.053788178 -0.029567657 185.28572
0.92676014 -0.062696554 -0.031153727 188.33333
-0.40773037 0.067099206 -0.00055610656 151
-0.39369538 0.066123441 -0.0031853814 152
-0.15538891 0.048338532 -0.025766868 161
-0.041043755 0.064111464 -0.045585521 171.41667
0.049405031 0.056226138 -0.061179165 155
0.15404518 0.052487839 -0.045180503 148.94029
0.2546176 0.052486524 -0.059869941 157.50769
0.35905632 0.033071272 -0.063455038 161.17143
0.44692871 0.011131709 -0.056368209 163.08888
0.55503583 0.033487201 -0.080339141 168.06061
0.63620007 0.042493969 -0.053906064 172.3125
0.75223255 0.046471868 -0.042586513 179.8158
0.85451835 0.032336053 -0.032410391 184.92857
0.93800145 0.032636609 -0.037439302 188.71428
-0.13461076 0.14475456 -0.027711237 163.66667
-0.039728619 0.14406054 -0.040128723 173.83333
0.028004404 0.13034961 -0.058163498 159
0.1615579 0.14670533 -0.050236382 146.59184
0.25440273 0.1451135 -0.051991172 155.2561
0.32925341 0.13838728 -0.054329708 157.16667
0.67403805 0.10942123 -0.047105022 175.5
0.75112176 0.13563153 -0.040398356 180.85715
0.84943801 0.14703438 -0.03548051 185.5
0.92302215 0.15212128 -0.040267501 186.25
-0.036353771 0.28517076 -0.042956159 174.875
0.060545679 0.24692729 -0.047644541 170.75
0.15381253 0.25300854 -0.056890495 154.83333
0.25341356 0.24997169 -0.058251172 148.37737
0.31514359 0.24590611 -0.072930112 154.46666
0.96533245 0.21960151 -0.056404658 187.5
-0.40798235 0.38680309 -0.0036341809 146
-0.21419749 0.39304525 -0.0079154707 144
-0.14642969 0.34890434 -0.0068494864 149.625
-0.046652041 0.34062532 -0.024540156 167.63637
0.05136567 0.3559804 -0.049198259 176.92857
0.15157427 0.33765468 -0.041443422 173.25
0.24667598 0.33882806 -0.039530907 163.13792
-0.53135347 0.44687018 -0.0065381974 130.5
-0.34559742 0.47846901 -0.0092440834 145.5
-0.26472649 0.42629045 -0.010293777 145.39999
-0.1441101 0.45228091 -0.011371518 145.875
-0.045815133 0.45370635 -0.01509306 156.8
0.054565575 0.43157527 -0.027573908 175.42105
0.14578795 0.44735187 -0.04579486 178.05
0.2278114 0.46290967 -0.047488239 178.30769
-0.5291208 0.59681052 -0.0064736246 124
-0.46551979 0.5563668 -0.010124831 134
-0.34368238 0.54392117 -0.0053540692 146
-0.24764828 0.53997314 -0.012733513 146.66667
-0.12669107 0.56680828 -0.019088842 145.16667
-0.039392862 0.5627262 -0.023588274 147.66667
0.044844832 0.54149961 -0.020535076 168.22223
0.1539139 0.5542506 -0.028923973 171.33333
0.20537715 0.50601858 -0.025828015 180.5
-0.61888808 0.65385777 -0.0011201509 118
-0.54972214 0.60922462 -0.0020472049 120
-0.41503787 0.68095595 -0.011986844 134
-0.36274058 0.63798702 -0.016252158 137.33333
-0.21865988 0.66566068 -0.015114526 142.66667
-0.18971474 0.63697362 -0.023519773 143
-0.05798088 0.64029855 -0.02351203 147.66667
0.047758549 0.65886885 -0.028594717 161.33333
0.14963023 0.66030717 -0.031107347 159.5
-0.52467257 0.77218568 -0.0073122238 117
-0.46370253 0.72112697 -0.0087060658 125
-0.31011829 0.765607 -0.016011603 135
-0.28366241 0.73997033 -0.025419237 138
-0.12855309 0.73960525 -0.022042086 141.2
-0.012280326 0.77000707 -0.023764355 147.66667
0.010278852 0.73012185 -0.028836817 162.5
0.11343214 0.75651532 -0.029713014 143
-0.56719267 0.80690038 -0.0029941062 115
-0.41735795 0.88521922 -0.024189653 153
-0.37124938 0.8320052 -0.015402549 132
-0.22923799 0.88361561 -0.025333872 184.5
-0.19279294 0.83272737 -0.027001252 140.5
-0.059878495 0.86200798 -0.026738025 134
0.080138929 0.8461017 -0.029831937 135
-0.26328212 0.92918187 -0.01923316 151.5
-0.11497091 0.96305686 -0.020719903 125.5
-0.095638871 0.92914641 -0.025526691 129
0.049409404 0.92977577 -0.031179637 133.33333
-0.63386565 -0.43052217 0.030624744 116.33334
-0.56918561 -0.40338773 0.022266574 124.5
-0.52904451 -0.38635042 0.019541236 131
-0.45375511 -0.35421389 0.016659841 139.60001
-0.35105237 -0.31040072 0.012331666 149
-0.32564631 -0.20087335 0.084855981 187
-0.2420349 -0.26324221 0.015925067 147.28572
-0.15161973 -0.22490184 0.0091337087 148.33333
-0.72579068 -0.18152362 0.018401662 114
-0.63797534 -0.16678913 0.021557514 122
-0.53492212 -0.14956801 0.018672377 135
-0.43824834 -0.13344972 0.011990532 150.2
-0.32339534 -0.16829818 0.047996331 172.90909
-0.26187989 -0.15921366 0.019518577 146.125
-0.1691218 -0.15807223 0.0098819425 151
-0.72190899 -0.043855481 0.020298121 115
-0.64562052 -0.04048077 0.014983858 127
-0.53023499 -0.035472389 0.011788742 144.25
-0.43794778 -0.031458683 0.0091940081 149.25
-0.35629994 -0.027965127 0.0097407605 151
-0.24381918 -0.041754797 0.010481927 146.08333
-0.18383479 -0.060518041 0.0060220612 148.42857
-0.71393621 0.090581506 0.017411588 116.5
-0.64472693 0.085443124 0.010108777 126.33334
-0.53954011 0.077106655 0.0088578155 141.5
-0.44432792 0.069611587 0.0069077555 150.5
-0.32671076 0.060009025 0.010919525 151.66667
-0.24838907 0.053900309 0.0084080538 145.25
-0.18606159 0.049171109 0.0039640274 148.33333
-0.20970875 0.1177203 0.087312065 155.25
-0.17325427 0.14950491 0.030602416 146.10527
0.074632503 0.14176218 0.068252854 140.26315
0.11261074 0.12892941 0.034130424 130.22223
-0.46065846 0.28385639 0.029202841 139.33333
-0.34297094 0.24404483 0.031388275 148.42857
-0.24797271 0.21312277 0.023457339 150.83333
-0.52402151 0.30549085 0.026445745 133
-0.42853695 0.39570752 0.0025440229 143
-0.33669215 0.35011896 0.0099869752 146.33333
-0.25551456 0.30734038 0.031578284 142
-0.16109654 0.35683772 0.00056384562 146
-0.60761875 0.48153296 0.0066391747 121
-0.56618112 0.46204227 0.0034497078 126.5
-0.46870878 0.41528437 0.0014887255 138
-0.63588226 0.66330433 0.0062933965 114
-0.57422465 0.62435472 0.0014990886 125
-0.69336271 0.70154727 0.0016427509 110
-0.31221509 -0.19539055 0.11926716 162.2
-0.22819847 0.12395519 0.12863955 146.41667
-0.069776036 0.19154346 0.18923448 131
0.057936911 0.14209749 0.11527359 125.85714
-0.091045484 0.21535593 0.1074065 136
