# .PCD v0.7 - Point Cloud Data file format
VERSION 0.7
FIELDS x y z intensity
SIZE 4 4 4 4
TYPE F F F F
COUNT 1 1 1 1
WIDTH 383
HEIGHT 1
VIEWPOINT 0 0 0 1 0 0 0
POINTS 383
DATA ascii
-12.406363 -2.5914893 3.5443895 15
-11.263988 -3.5201366 1.8895477 12
-10.919504 -3.4549775 2.8631318 14
-10.716501 -3.532486 0.93484551 9
-10.74073 -3.4946961 2.3918691 13
-10.625506 -3.5174196 2.7647564 14
-10.311383 -3.5380659 1.1424084 10
-10.003243 -3.5237124 1.4179095 11
-9.9758081 -3.5047593 2.2380621 13
-9.8816605 -3.5616994 2.4184813 14
-9.3225346 -3.497164 2.7472115 15
-8.2293243 -3.1035533 1.9126291 13
-8.1551199 -3.1464467 2.2186468 14
-7.4421434 -3.1675479 0.32704842 8
-7.3882008 -3.4452572 0.7049799 9.5
-7.3960805 -3.0164216 0.67360771 9.75
-7.3764958 -3.415472 1.1220394 11
-7.4337564 -3.1725106 1.0224521 10.666667
-7.3513246 -3.3915527 1.4708973 12.5
-7.4820251 -3.1407757 1.4911553 12.5
-7.3220906 -3.4130898 1.862618 14
-7.3250413 -3.3567026 2.0381343 14
-7.5082436 -3.1130314 2.0459864 14
-7.1710906 -3.2451861 0.30441365 8
-7.1589704 -3.2859368 0.45863596 9
-7.1052732 -3.5515823 1.3169687 12
-6.619915 -2.3033824 0.25346047 8
-6.603775 -2.3076274 0.50172788 9
-6.0007071 -2.5940266 0.18274903 8
-6.2245722 -1.7881373 0.30476829 8.25
-6.0027418 -1.3907624 0.15261109 8
-6.0860529 3.8343203 0.35677969 8
-6.0671988 4.5787945 0.32669342 8.5
-6.0781426 5.0129933 0.1881946 7.5
-6.0264788 -1.6923318 0.62138975 9.5
-6.1248007 -1.5761682 0.67021394 10
-6.0803823 3.1208911 0.47621006 9
-6.0643649 3.2407937 0.69311732 10
-6.0829177 3.8259835 0.58878189 9.333333
-6.0669956 4.188416 0.70030463 9.666667
-6.0556588 4.5969138 0.4270778 9
-6.0483494 4.8972745 0.54236758 9
-6.0459743 6.2330689 0.5533917 9
-6.0321999 6.5144877 0.57523686 9
-6.1857443 -2.0424905 0.96184796 11.333333
-6.054987 -1.7825589 0.92042255 11.333333
-6.0553417 3.428268 1.0230582 11.5
-6.0556684 3.8427114 1.0668737 11.666667
-6.0477772 4.1501913 0.98006129 11
-6.0472302 4.5521116 0.98581123 10.833333
-6.0251966 5.0029526 0.9816668 10.5
-6.0296488 5.4159164 1.0986257 10.666667
-6.0283217 5.78863 1.0545193 11
-6.0232201 6.2550716 1.0475671 10.5
-6.0354209 3.067091 1.5350238 13.666667
-6.0349841 3.3196838 1.5048848 13
-6.0245881 3.7959526 1.4436321 12.666667
-6.0319457 4.2922211 1.2540288 12
-6.0162358 4.5843177 1.4782737 12.666667
-6.0235386 5.0449786 1.3347383 12
-6.0232563 5.2994776 1.3291714 12
-6.0145807 5.7642341 1.4552222 12
-6.0093851 6.1590943 1.5093886 12
-6.0066853 6.4303069 1.3819449 11.5
-6.023705 3.0959597 1.6687683 14
-6.0204926 3.4255776 1.6521145 14
-6.0169787 3.7658818 1.7472947 14
-6.01122 4.1630888 1.768085 13.833333
-6.0091796 4.5167918 1.7806929 13.666667
-6.0052228 4.8669324 1.6335573 13
-5.7090821 3.2659709 0.33633482 8.5
-5.8697085 4.0427279 0.39234999 9
-6.0018363 4.7542 0.34679851 8
-5.7776279 5.0659342 0.29611552 8
-5.6574225 5.3619518 0.21640886 8
-5.8415065 6.5687871 0.10120428 7
-5.9720697 -1.8209479 0.71311408 10
-5.7950764 3.2538602 0.63106096 9.666667
-5.8356981 5.0418639 0.58510005 9.25
-5.6470947 5.2551074 0.64720827 9
-5.9940023 -1.8037004 0.8622666 11
-5.7914152 4.6825385 1.000787 11
-5.9938211 5.1228037 0.94019914 10
-6.0038929 6.5087023 1.1244775 11
-5.8858209 6.6033382 1.4012235 11.5
-5.9984927 4.2212882 1.9676479 15
-5.9970231 4.7833571 1.867226 14
-5.9971747 4.9531078 1.8544601 14
-5.983849 5.4489088 1.8442444 13.5
-5.9781823 5.7941308 1.9216343 13.666667
-5.974164 6.1284099 1.8642449 13
-5.9110699 6.5423489 1.7633761 12.333333
-5.9972177 4.5271182 2.0292099 15
-5.98703 4.9528213 2.1157997 15
-5.9728642 5.4087648 2.210566 15
-5.9746947 5.7736311 2.1709712 14.5
-5.9643593 6.1765838 2.188674 14.333333
-5.8663559 6.5279951 2.1304359 14
-5.9640188 6.3081241 2.4036379 15
-5.9181962 6.5491257 2.451812 15
-5.3254933 3.0569742 0.17590697 8
-5.3740101 3.3209941 0.24974981 8.333333
-5.4502997 4.0607796 0.25374234 8
-5.6006856 5.7271504 0.29969978 8
-5.2974839 6.5784264 0.15841781 8
-5.330337 3.2150383 0.70262623 10
-5.3803921 6.5673299 2.1247907 14
-4.8788552 -1.2221268 0.20646262 8
-5.0725336 3.5018756 0.1800448 8
-5.1469636 3.6581318 0.24527226 8
-4.9344859 -2.4658782 0.78070492 11
-4.9420481 6.4319596 0.72371697 10
-4.9419737 -1.757251 0.98503006 12.5
-4.8538203 6.4359536 1.1421486 11
-4.8222108 -2.3828163 1.4080919 14.5
-4.9468927 -1.7042931 1.2140219 14
-4.8830457 -1.4210057 1.3710307 14.5
-4.8477464 -1.1896893 1.3616377 14.5
-4.9450598 6.4537749 1.3417776 11.666667
-4.8545604 6.4488821 1.6362522 13
-4.9427757 6.4973831 2.2273695 14.5
-4.6238723 2.320399 0.17021474 8
-4.6321387 2.4966269 0.26097432 8.333333
-4.5079536 4.289062 0.32548231 8.5
-4.4230757 4.9781537 0.25392351 8
-4.6703243 6.4280052 0.21541028 8
-4.5298095 4.3699703 0.71095777 10
-4.6108174 6.4363146 1.1490841 11
-4.7894535 -0.87736297 1.4657468 15
-4.5930195 6.4365845 1.2367358 11.5
-4.6105647 6.4525456 1.6325058 13
-4.6310091 6.4500151 2.1836812 14.5
-4.1263256 4.1710825 0.37496442 9
-4.2726078 4.5144858 0.39129528 9
-4.1083078 4.3635988 0.70387077 10
-4.3688641 4.8285398 0.40909019 9
-4.2161818 5.3233399 0.59180266 9.5
-4.1491528 6.4442902 0.55144024 9
-4.2548041 6.4261055 1.1566861 11
-4.1492844 6.4422431 1.2177391 12
-4.2455578 6.439178 1.624612 13
-4.2253084 6.4544635 2.1003518 14.5
-3.9335568 4.3201337 0.18431486 8
-3.9222035 4.5787692 0.31572166 8.5
-3.9595675 4.9706206 0.25674149 8
-3.7363529 4.3232579 0.55951077 10
-3.8615925 5.1771598 0.52836299 9.5
-3.8410852 6.3879266 0.58649379 9.5
-3.6591508 6.4248037 0.52409267 9
-3.8009367 6.379118 0.84351242 10
-3.7415102 6.411869 1.0623029 11
-3.637635 6.4153538 1.4460808 13
-3.7810254 6.4111776 1.9419073 14.333333
-3.7628312 6.4236484 2.0112207 15
-3.4733381 4.720808 0.28924802 8.5
-3.2599301 4.8238363 0.27987888 8
-3.5448825 4.3642168 0.56877434 10
-3.3998721 6.4368658 0.59487832 9.25
-3.4191976 6.4456534 1.0765754 11.333333
-3.4267237 6.4409938 1.3246404 12.5
-3.4197061 6.4437895 1.8151244 14
-3.4668562 6.4488635 2.0045002 15
-3.1445155 4.4107871 0.39819723 9
-2.8169532 6.0957508 0.37658539 9
-3.168236 6.4179916 0.35826576 8
-2.9289732 4.3365941 0.51157296 10
-3.022157 6.4162436 0.4989742 9
-3.0187945 6.4380331 1.1910607 12
-2.9982295 6.4436836 1.3176343 12.5
-3.0567348 6.4550738 1.930613 14.666667
-2.7481384 6.3245988 0.39205396 9
-2.6510069 4.3568187 0.63310564 10.666667
-2.5936446 6.4784222 0.61673909 9.5
-2.6337495 6.4635305 1.310977 12.5
-2.6072326 6.4685221 1.8046088 14.333333
-2.3545232 4.3872981 0.34750834 9
-2.1621156 4.3560724 0.63549453 11
-2.2214062 4.4108138 0.59602576 10
-2.1710329 6.467093 0.57455534 9.5
-2.2469745 6.474194 0.91918439 11
-2.2157018 6.4540725 1.3075489 12.5
-2.2330103 6.4605012 1.817499 14.5
-1.9583549 4.3650527 0.61803418 11
-1.8758005 4.5871186 0.60422134 10.5
-1.8443606 4.9560766 0.60815793 10
-1.6575249 5.7872109 0.679066 10
-1.9461226 6.4580445 0.62493855 9.5
-1.6164278 5.7828946 0.84874344 11
-1.9919573 6.4455462 0.90574205 11
-1.8622268 6.4319339 1.3033893 12.5
-1.6951593 6.1189704 1.853263 15
-1.9204717 6.4526973 1.7989788 14.5
-1.2649986 -0.67160362 0.33370572 13.5
-1.2567091 -0.67206585 0.40440363 15
-1.3902509 5.7651067 0.63764268 10
-1.3643548 5.7679715 1.0790504 12.2
-1.4207789 5.7884698 1.4301342 13.666667
-1.3672669 5.8073268 1.7835667 15
-0.82355481 1.2013707 -0.008788377 7
-0.87788188 1.629186 -0.025945922 7
-0.83750266 2.0937657 -0.043897532 6
-0.94169933 3.170104 -0.090815909 6
-1.1517543 5.7015843 -0.19372568 6
-1.0750299 -0.68148226 0.32998553 14.25
-1.1642007 -0.68465459 0.40081051 15
-1.0022429 5.7721953 0.713844 10.5
-1.0026064 5.7753887 1.1174637 12.5
-0.99262708 5.8739281 1.534423 14
-1.0089817 5.8408217 1.7475863 15
-0.46477732 0.24623367 -0.0049737557 7
-0.54594421 0.66265965 -0.0096728262 6.8000002
-0.60705316 0.98727417 -0.011503235 7
-0.60806453 1.3736895 -0.022088304 6.75
-0.5896396 1.8576748 -0.043210559 6
-0.58863556 2.322912 -0.060694974 6
-0.67693043 2.5334294 -0.066314019 6
-0.62833613 2.9787855 -0.088836417 6
-0.69259322 3.9891553 -0.12689777 6
-0.40940577 5.6878266 -0.054365542 7
-0.51008141 0.25834095 0.0022904025 7
-0.76496887 0.67222273 0.0023759266 7
-0.59801233 5.8120995 0.67858976 10.4
-0.44795227 6.3658624 0.7913776 11
-0.67788136 5.7752905 1.1224718 12.666667
-0.44575673 6.3629136 1.1415426 12
-0.46517581 5.9546876 1.5697554 14
-0.52689427 6.2713714 1.3571855 13
-0.47505152 5.950418 1.7888267 15
-0.72091359 6.0784345 1.7822675 15
-0.26779437 0.63984704 -0.019403113 6
-0.32758424 0.92132562 -0.016851883 7
-0.31753552 1.4154552 -0.035246331 6.5
-0.20302786 1.721301 -0.051416609 6
-0.18851912 2.1260395 -0.069163889 6
-0.30971715 2.571408 -0.08064118 6
-0.20173365 2.9862802 -0.10357839 6
-0.081508525 3.5606196 -0.13723503 6
-0.17580543 4.2114334 -0.13219427 6
-0.37761414 5.7089524 -0.17158622 6
-0.25258723 5.8686366 0.6894806 10
-0.18814822 6.2810364 0.75831449 10.5
-0.22285013 6.3637404 0.97328621 11.5
-0.25218758 5.9778748 1.5834926 14
-0.20108037 6.3631544 1.2350858 12.5
-0.20042542 5.9768753 1.7556616 15
0.19948305 -0.85777754 -0.0089534223 7
0.29138044 -0.55480564 -0.015691126 6.4000001
0.37250578 -0.3615208 -0.028298207 5.5
0.39675441 0.39104658 -0.05336874 4
0.21178545 0.60142225 -0.048935939 4.75
0.28450844 0.9376446 -0.059477311 5
0.39206946 1.8583534 -0.08274401 6
0.24215247 2.2017097 -0.085201748 6
0.27564543 2.6305377 -0.10556392 6
0.2022958 2.9196408 -0.11251002 6
0.39146721 3.2910721 -0.12677878 6
0.37655511 5.7028208 -0.15387709 6.5
0.20486985 -0.96946889 0.16587859 11.588235
0.21069917 -0.60682166 0.0018902405 7
0.28291816 5.688252 0.16277175 8
0.12996884 5.777441 0.65053284 10
0.13269801 6.1649799 0.75493574 10.5
0.17134328 6.3004789 0.92410249 11.333333
0.24381265 5.9807334 1.5880464 14
0.19621684 6.3622313 1.2435704 12.5
0.19819073 5.9421878 1.7612064 15
0.60888004 -0.9185161 -0.018627314 6.5
0.5570668 -0.58546782 -0.018848449 6.2857141
0.57625508 -0.20908825 -0.047772314 4.7857141
0.46103379 0.25678456 -0.06668175 3.5
0.54745537 0.5943594 -0.052391328 5.25
0.61653054 1.0232443 -0.072033435 5.1999998
0.75919068 1.355473 -0.083077103 6
0.64632565 1.9260449 -0.099553302 6
0.67493796 2.1378112 -0.1101037 6
0.72957122 2.5586975 -0.12353538 6
0.77206564 2.886883 -0.13365164 6
0.39743087 3.8951187 -0.16629528 6
0.39984569 4.5022459 -0.19393653 6
0.59282553 -0.9544906 0.17844994 11.333333
0.79393017 3.9676645 0.23195508 9
0.79569238 4.1806207 0.31270769 9
0.58357513 5.8591571 0.66630381 10
0.5251351 6.2621164 0.78930986 11
0.60853899 6.3548493 0.984514 11.5
0.56380481 5.9828482 1.5767611 14
0.61248535 6.3515921 1.2603559 12.5
0.60924268 5.8708682 1.7455375 15
1.0052732 -0.85898459 -0.022639152 7
0.94532841 -0.18361001 -0.041188929 6
0.81185365 1.5510885 -0.090415724 6
0.87392795 1.778223 -0.10208894 6
0.99305797 2.2162931 -0.12262387 6
1.0708154 2.5013573 -0.13679375 6
0.81454664 3.2037306 -0.14833088 6
0.86946809 3.9114864 -0.046146289 7
0.91948748 4.0022502 -0.1781574 6
0.99228287 -0.92512637 0.19673805 11
1.0409498 -0.69741642 0.31836048 14.2
0.8231225 3.9188817 0.11342834 8
1.1568109 -0.69563907 0.40250361 15
1.1275127 4.3347979 0.63134134 11
1.0704525 5.7662506 0.60324335 10
0.94160479 6.2482171 0.71307731 10.25
1.0065835 6.3538351 1.0174214 11.4
1.0278071 5.9700551 1.5605621 14
1.0129967 6.295434 1.2699414 12.5
1.0184453 5.903336 1.7086447 15
1.3678806 -0.92549765 -0.022453772 7
1.552405 -0.74330801 -0.033652443 7
1.2064351 3.0008404 -0.15951739 6
1.2880275 3.3042338 -0.17067337 6
1.5276617 4.2659173 -0.14192463 6.3333335
1.3672253 -0.90609598 0.16909337 9.75
1.4020495 -0.69982398 0.31003547 12.714286
1.428337 4.2357616 0.16714652 8.25
1.4352236 -0.70130205 0.42463773 14.5
1.4323344 4.2629333 0.49841583 10
1.2349507 5.773118 0.61000764 10
1.5583704 5.7536674 1.0392241 12
1.3918602 6.3480158 1.0264063 11.333333
1.4558178 5.90064 1.4728421 13.75
1.3434172 6.2307057 1.252686 12.333333
1.4056261 5.8447504 1.7198346 15
1.7437831 -0.87080252 -0.014581231 7
1.6408719 -0.2458185 -0.050111149 6
1.681547 -0.86377698 0.14253122 9
1.7851135 -0.70092261 0.3075642 11.8
1.8766826 2.9950638 0.39339232 10
1.8135769 -0.69971418 0.48945382 14.142858
1.9234489 2.9635501 0.52553946 11
1.9213217 3.5334165 0.56506032 11
1.9390775 3.8306313 0.57810575 10.75
1.8313274 4.2838802 0.63911098 11
1.8016837 4.5582819 0.61863953 10.8
1.7753091 4.8777108 0.79275757 11
1.9399753 2.9803965 0.90166873 14
1.945905 3.4838684 1.0027608 14
1.946748 3.7983017 0.98922932 13.25
1.7662628 4.2515569 0.95680189 13
1.878822 4.4694252 1.0969915 13
1.7847111 4.9548464 1.0357356 12.666667
1.8041762 5.4250221 0.93806881 11.5
1.7565949 5.6724644 1.0192285 12
1.9644384 3.8304389 1.2344133 15
1.8408258 4.183156 1.2683045 14.666667
1.8179133 4.5127034 1.3286297 14.5
1.7880806 4.9563484 1.4060777 14.5
1.8087445 5.3387961 1.3836974 14
1.7439644 5.689394 1.4132656 13.666667
1.8015873 5.0880857 1.6208887 15
1.7923956 5.6774168 1.7244557 15
2.1051366 -0.56715357 -0.039667323 7
2.0559242 -0.82204056 0.13623947 8.5
2.0995681 -0.5863151 0.22101592 9.916667
2.1145129 -0.2548205 0.23194478 10
2.1264842 0.19945234 0.29257482 11
2.1330335 0.6005522 0.31588092 11
2.1397932 0.99588835 0.30593866 10.5
2.1508565 1.3901439 0.3304908 10.5
2.1628976 1.8547493 0.34280294 10.333333
2.1656017 2.183789 0.36133337 10
2.1745791 2.6109037 0.3707878 10
2.1798182 2.8368156 0.39626813 10
2.1151254 -0.58072692 0.51534027 13.666667
2.1298656 -0.2005091 0.54289877 14.25
2.1338542 0.19881162 0.51702029 13.8
2.141444 0.63150769 0.54403645 13.75
2.1474359 0.98423702 0.54613239 13.555555
2.1618423 1.3877771 0.58380449 13.3
2.169569 1.7947508 0.55413491 12.5
2.1781688 2.1622536 0.60106397 12.555555
2.185102 2.5993528 0.62156683 12.25
2.1246786 2.905472 0.55025166 11.428572
2.0493851 3.4676816 0.57920808 11
2.1054957 4.4560447 0.48282376 10
2.1814415 1.7988721 0.8400948 15
2.1868234 2.2185502 0.86756861 14.666667
2.198386 2.5811946 0.93323386 14.5
2.1513064 2.9515324 0.95375597 14.166667
2.088917 3.5348608 1.0427281 14
2.0782616 4.4585295 0.96938974 12.5
2.086972 4.4643803 1.3593905 14.5
