# .PCD v0.7 - Point Cloud Data file format
VERSION 0.7
FIELDS x y z intensity
SIZE 4 4 4 4
TYPE F F F F
COUNT 1 1 1 1
WIDTH 90
HEIGHT 1
VIEWPOINT 0 0 0 1 0 0 0
POINTS 90
DATA ascii
-5.3098569 4.1445861 0.80588138 11
-5.259222 4.1935968 1.0446869 12
-5.3903875 3.8430359 1.9044027 15
-5.019455 4.9065371 0.97018516 11
-5.0380278 5.1951118 1.951285 15
-4.9947877 4.75387 1.5311829 13
-4.9941216 4.6532936 1.5805982 14
-4.8549318 5.8702455 1.6453249 13
-4.7207189 5.7275591 0.90995836 11
-4.6349125 6.4670081 1.3463264 12
-4.693347 5.6762266 1.7016355 14
-4.6110187 6.6074657 2.2354395 15
-4.4386196 4.7572694 0.6445452 10
-4.5708675 6.3478389 0.64155895 10
-4.585237 6.6176109 1.5861931 13
-4.3155718 6.4723182 1.1171945 11
-4.2291989 6.9148335 1.9481151 14
-3.9803615 6.6928582 0.75576627 10
-3.7601464 8.1634531 2.211935 14
-3.0872624 7.5813823 2.187592 15
-3.0032897 7.6139622 1.6793469 13
-2.4637053 7.6834383 2.1017334 14
-2.1588995 7.2604494 2.1023047 15
-1.6757389 7.3534856 1.2239399 12
-1.7201786 7.3778315 1.9889929 14
-1.4084344 -0.26372415 0.39342386 15
-1.5430402 5.1278639 0.58298218 10
-1.4359764 7.1397133 1.4203545 13
-1.302912 -0.2645674 0.3038038 13.5
-1.2113788 7.2449975 2.0143714 15
-1.093977 -0.34024012 0.30958039 15
-1.0119668 7.1502423 1.248861 12
-0.82809228 7.1439018 0.75467789 10
-0.90240484 7.1390944 1.8393615 14
-0.60684794 7.0322719 1.9078902 15
-0.015380042 6.1014252 0.72344959 10
-0.097059913 6.068821 1.1813484 13
0.16325165 -1.0897875 0.25849247 14
0.036482237 6.0846505 0.74592006 11
0.099397153 6.0791006 1.1041671 12
0.17109567 6.070147 1.4993231 14
0.16444248 6.0763927 1.7840434 15
0.37276593 -1.1743408 0.068671845 9
0.31651792 -1.107643 0.25207955 13
0.50159705 -1.2061216 0.22994328 12
0.58393109 5.8883944 0.9986065 12
0.73132133 5.8891201 1.4477351 14
0.91757709 5.8057394 0.8819133 11
0.97190797 5.7498002 1.1645932 13
0.87023479 6.110991 1.8245525 15
1.1057466 -1.2898102 0.32995525 12
1.1870672 -1.0602947 0.42321223 14
1.0533652 5.8179603 1.0916421 12
1.4856052 -1.3620535 0.16511884 9
1.4943973 -1.2882626 0.31812647 11.5
1.5610205 -1.1857886 0.3363806 11.5
1.4449617 5.8154564 1.6777823 15
1.7833253 -0.74935746 0.2339507 10
1.6259153 -1.1239953 0.5314768 14.5
1.9530544 -0.13469306 0.17914975 9
1.848477 -0.36825246 0.23790291 10
1.8598899 5.4738035 0.80445641 11
2.191993 0.634426 0.40209073 12
2.0348811 0.21076907 0.55899739 15
2.167712 0.56086409 0.44451782 13
2.0032103 3.9114673 0.4533492 10
2.0846853 3.8893838 0.71405053 12
2.0890055 5.5788407 1.6532762 15
2.2454252 0.78687966 0.3400594 11
2.3317258 1.049879 0.30956531 10.5
2.2833664 0.9528783 0.53536946 13
2.323725 1.0220182 0.47941527 12
2.3956754 3.3847651 0.50447839 10
2.2466309 0.69050479 0.64075756 15
2.2187583 0.80282599 0.62783641 14
2.3247759 5.5974979 1.5229421 14
2.4360716 1.3686678 0.27577552 10
2.4721215 2.3144157 0.34272367 10
2.4237497 1.3138063 0.49877188 12
2.4721854 1.4743246 0.43666822 11
2.5507805 1.6745692 0.52250451 12
2.4780178 2.2989283 0.53125584 11
2.4697137 1.3276455 0.67795259 14
2.5187697 2.3031361 0.66040826 12.5
2.5102694 2.2509463 1.0000709 15
2.6245732 1.8642796 0.40159708 10
2.6982834 2.1301332 0.30087072 9
2.7368138 2.1391034 0.55445743 11.5
2.7544138 2.0717037 0.78972697 13
2.921144 5.2888665 1.7806097 15
