# .PCD v0.7 - Point Cloud Data file format
VERSION 0.7
FIELDS x y z intensity
SIZE 4 4 4 4
TYPE F F F F
COUNT 1 1 1 1
WIDTH 392
HEIGHT 1
VIEWPOINT 0 0 0 1 0 0 0
POINTS 392
DATA ascii
-16.663172 7.6521268 1.1061721 9
-15.627539 7.4538121 0.81258887 9
-15.952973 7.7770791 3.4910476 13
-15.868999 8.1875505 3.528527 13
-15.533869 7.8124042 0.38265392 8
-15.428816 8.3777103 0.59084582 8
-15.288879 8.598279 0.44783035 8
-15.586007 7.6092825 0.73372686 8
-15.292429 8.6212339 0.88765162 9
-15.212376 8.8467407 0.89695281 9
-15.236076 7.8547339 2.6575379 12
-14.247396 7.3074007 0.7805289 9
-12.851771 7.0539932 2.3763959 12
-12.107594 6.4883871 0.41167098 8
-12.031467 6.6597118 0.74783415 9
-12.121523 6.4376655 2.6302934 13
-11.682254 7.246871 0.24298996 8
-11.811014 6.9351711 0.52070767 8
-11.772584 7.0413952 0.79901338 9
-11.738676 7.2589927 0.83227634 9
-11.630488 7.0422807 2.5020168 12
-11.703989 5.217555 3.6460958 15
-11.421822 7.9679289 0.22698689 8
-11.518782 7.5192008 0.87172556 9
-11.471473 7.9754176 0.85503763 9
-11.609221 6.5225167 2.5870457 13
-11.533594 7.3633513 2.546006 12
-11.615133 5.5229044 3.6952081 15
-10.947566 6.0336037 2.6090233 13
-10.601333 6.1669917 2.5806751 13
-10.565382 6.4762506 2.6138301 13
-8.1860733 5.2185764 0.23253457 8
-8.3463221 4.8860164 1.6239861 12
-8.1221304 5.3394575 1.799361 12
-8.140892 5.3599544 2.1038425 13
-7.2344337 4.8799357 0.27015191 8
-7.266602 4.8970375 0.47242802 9
-7.2047863 4.9403472 0.85161692 10
-7.5793104 4.655148 1.4337044 12
-7.2663283 4.9682012 1.8063309 13
-7.4845095 4.5313463 2.3178275 15
-7.0528097 4.6946812 0.32057795 8
-7.0593019 5.1902719 0.10081071 8
-6.9902601 5.2130332 0.095880218 8
-7.0542569 4.7021003 0.57021952 9
-6.938035 4.8618455 0.71689892 10
-7.0527596 4.6106677 0.82115322 10
-7.0707288 5.1276593 1.0288894 11
-7.1051359 5.0775528 1.6964724 13
-6.0571232 4.4948192 0.70538622 10
-6.19274 4.2376361 1.3063259 12
-6.2239447 4.167397 1.8516716 14
-6.2092676 4.1863561 2.0806303 15
-5.9734125 4.5604949 1.7062637 13.5
-5.237186 4.1650414 0.34849152 9
-5.3290892 4.0855203 0.53161418 9.6000004
-5.4271641 3.9264579 1.0127712 12
-5.2637267 4.1980081 1.0456915 12
-5.2253404 4.5722871 1.0951943 12
-5.3863826 3.9316902 1.4520767 13.666667
-5.2619448 4.1861649 1.2542742 12.5
-5.2072859 4.7012663 1.4400538 13
-5.3314562 3.9842856 1.9276779 15
-5.2866778 4.1882792 1.7672668 14.75
-5.2626185 4.5091233 1.8256559 15
-5.1159992 3.9657164 0.12898183 8
-4.9398818 4.1274085 0.25106731 8.25
-4.8154583 5.1145697 0.30032122 8
-4.8064442 5.6086769 0.33728799 8
-4.987277 4.2205224 0.5198741 9.5
-5.1096182 4.5642405 0.66989952 10
-4.9519467 5.0426602 0.57862866 9.666667
-4.843359 5.5529509 0.575899 9.5
-5.1274867 4.2360692 0.89325672 11
-5.0788045 4.6805353 0.96925557 11.25
-5.0249372 4.9874501 0.94482821 11
-4.8475409 5.3943024 0.93836135 11
-5.1254787 4.2670684 1.4960536 13.666667
-5.0328526 4.5191078 1.5235398 13.5
-4.9498963 4.9412003 1.5649204 13
-4.9759502 5.3688102 1.3072007 12.5
-4.8534431 5.7603574 1.3233407 12.333333
-5.0743146 4.4029722 1.5935082 14
-5.1095338 4.6167779 1.7341793 14.5
-5.0268154 4.9598126 1.7671142 14.5
-4.827117 5.3038111 1.632156 14
-5.0961294 5.0010886 2.1251471 15
-4.9572177 5.4790416 2.0068533 15
-4.8389864 5.869122 2.0843966 15
-4.5870361 4.9523463 0.30140427 8.5
-4.6540565 5.7118387 0.33675164 8.333333
-4.5982351 6.3621058 0.36211237 8
-4.5171247 6.6201401 0.19200926 8
-4.7693458 4.3921733 0.39551383 9
-4.4912534 4.9245734 0.50863463 9.5
-4.7000537 5.8287172 0.58024967 9.3999996
-4.6280317 6.1930652 0.571356 9.5
-4.4564009 6.5754304 0.57980454 9.5
-4.7966514 5.5433841 0.88346553 11
-4.6768336 5.8667264 0.99836022 11
-4.554738 6.2201157 0.99600393 11
-4.777029 5.9853978 1.4994138 13
-4.7122202 6.2244682 1.4226259 12.5
-4.5679832 6.6920156 1.3766404 12
-4.4560914 7.0349832 1.4228319 12
-4.7644415 5.4598126 1.7005239 14
-4.6016254 5.909977 1.7683903 14
-4.5715585 6.2245717 1.7821734 13.666667
-4.6433377 6.5203772 1.7675978 13
-4.4821162 6.9663024 1.7080487 13
-4.7147841 6.2855349 2.1691508 15
-4.5137992 6.9668555 2.3127153 15
-4.0927405 3.6507227 0.23430352 8
-4.2021503 4.8695693 0.14370473 8
-4.2812924 5.6496077 0.31605795 8
-4.2187867 6.6881475 0.22606276 8
-4.2103062 6.6779132 0.48649302 9
-4.041677 7.8684449 0.55956429 9
-4.3470311 6.5945587 1.0339315 11
-4.2858067 6.9570637 1.1103606 11
-4.1462865 7.3644886 1.139745 11
-4.0301189 7.9228811 0.8118819 10
-4.238894 7.3993082 1.3327057 11.5
-4.1532383 7.7587619 1.4206638 11.666667
-4.0134296 8.070549 1.5648445 12
-4.3360705 6.6321211 1.903366 14
-4.3235149 7.4289775 1.6993327 13
-4.1996484 7.8093147 1.7530832 13
-4.1027322 8.0590124 1.7875322 13
-4.145371 7.1507235 1.9969509 14
-4.0528564 7.4083185 2.0580006 14
-4.3566856 7.4543123 2.418242 15
-4.2390175 7.8580403 2.507988 15
-4.116169 8.0704384 2.5512228 15
-3.9431956 3.8324511 0.2701681 8.666667
-3.9417887 5.0413127 0.18187977 8
-3.9688745 6.7636304 0.67768061 10
-3.9094083 6.9994888 0.64529508 9.333333
-3.8018181 7.2166743 0.70462346 10
-3.9896853 7.9725947 0.74151993 10
-3.9652722 8.0578232 0.67732424 9
-3.805167 8.1715069 1.270456 11
-3.9133348 7.7682619 2.1265259 14
-3.8290026 8.006752 2.1746686 14
-3.2556748 7.85818 1.0765929 11
-3.388464 7.7648683 2.2359593 15
-3.3567874 8.0840521 2.1881938 14
-3.1991196 5.5801826 0.28389865 8
-2.9693704 5.4399519 0.48854271 9
-3.0390196 7.7242432 1.3549299 11.666667
-2.9067438 7.5226736 2.2662332 15
-2.9473619 7.9516625 2.1485848 14
-3.1558845 8.0270433 2.1578829 14
-3.1994348 7.5914521 2.3895648 15
-2.6144803 5.4520521 0.33747748 9
-2.6014152 5.7516618 0.35020861 9
-2.5028923 5.40832 0.57713544 10
-2.5969589 6.3780694 0.49360752 9
-2.5304799 6.4712133 0.59074008 10
-2.7326345 7.5423799 1.3898761 12
-2.5293455 7.670887 1.2363946 11.333333
-2.6626706 7.5155954 1.651962 13
-2.561583 7.4201717 2.2313306 15
-2.7027817 7.7776837 2.1216683 14
-2.2326005 5.3291593 0.58587676 10
-2.3086801 6.199337 0.56130195 9.5
-2.0433533 7.4079885 0.64516425 9.5
-2.2042782 7.5534697 1.159138 11
-2.1440172 7.482554 1.2806826 12
-2.2215104 7.3616757 1.6134909 13
-2.1959059 7.4466386 2.1468387 14.666667
-2.3804722 7.657249 2.0598128 14
-1.7105825 5.1569576 0.59202296 10
-1.8166929 5.2712045 0.40488946 9
-1.7958524 7.3502445 0.6410991 9.5
-1.7315038 5.0372314 0.82685339 12
-1.7561675 7.3384461 1.1242292 11
-1.8424379 7.3601055 1.3097622 12.2
-1.8118161 7.3615389 1.8105936 13.666667
-1.8678926 7.4542913 2.0315092 14.5
-1.2776794 -0.27923524 0.33724689 14.5
-1.5832253 5.1211052 0.61416662 10
-1.5470433 5.401556 0.43338671 9
-1.5019852 5.7030172 0.4475342 9
-1.2387012 7.18823 0.51786757 9
-1.4149718 7.2826319 0.65736753 9.666667
-1.3910601 7.2969432 1.1035347 11
-1.4165732 7.1465206 1.5235069 13
-1.4378203 7.3004279 1.2343528 12
-1.4121897 7.3105969 1.900514 14.333333
-1.4994367 7.3386283 2.0309236 15
-1.1306329 -0.33813912 0.32212162 14.5
-0.88197887 4.8572783 0.72472155 11
-0.98992872 6.7615776 0.52371424 9
-1.02715 7.1336536 0.65572464 9.5
-1.0169597 7.1637712 1.0767177 11
-1.0138274 7.1086087 1.3433278 12.5
-0.96474838 7.1618419 1.8427219 14.333333
-1.1470184 7.2273855 1.9512084 15
-0.93332297 7.1478367 1.9978422 15
-0.58688545 0.28925842 0.033967368 9
-0.60116309 0.44274259 0.039513148 9
-0.50556344 1.0383278 0.042290386 8
-0.53428137 1.4310477 0.036542274 8
-0.55920422 1.8221939 0.032995336 8
-0.76056337 5.0782118 0.67127633 11
-0.59596491 5.255579 0.75488257 11
-0.60447288 7.0223203 0.67357492 9.6000004
-0.56810272 7.0328083 1.00629 11
-0.6086337 6.9837875 1.3299032 12.5
-0.57559663 7.0402999 1.899768 14.6
-0.14046803 0.63192999 0.032263484 8.75
-0.25407219 1.0105193 0.034834806 8
-0.22862589 1.3978993 0.033989169 8
-0.17898172 1.8515823 0.029646551 7.6666665
-0.071341574 2.1951954 0.028156701 7
-0.16015108 2.6312811 0.026876772 7
-0.25556904 3.1028678 0.023471719 7
-0.26692197 6.8872576 0.70658892 9.666667
-0.16262703 6.8533406 1.0403419 11.25
-0.035563406 6.0625558 1.2675744 13
-0.22484222 6.8001204 1.373775 13
-0.30370599 6.875906 1.334659 12.5
-0.25731528 6.929009 1.826292 14.4
0.26959354 -0.92918861 -0.019565327 6.25
0.28205064 -0.62580985 -0.010410744 6.5999999
0.36658302 -0.36883914 -0.0099898623 6.5
0.32215202 0.47539771 -0.0088139698 6.5
0.051766738 5.9948325 -0.044964232 7
0.23306605 -1.0978347 0.27504772 13.8
0.29379699 -0.60361093 0.011493295 7.4000001
0.38713187 -0.39448363 0.0041631348 7
0.35454297 0.37751123 0.0072407592 7.5
0.23736674 0.5943377 0.016487889 7.6666665
0.23213911 1.0572253 0.023231681 7.5
0.097060889 1.3662637 0.032014024 8
0.15820713 1.6807621 0.031234162 8
0.25206882 2.1757379 0.025719361 7
0.22837529 2.5851867 0.02540704 7
0.20368657 3.0238001 0.02281037 7
0.17744768 3.5445185 0.0096507743 7
0.0078940596 5.954565 0.10696606 8
0.35185614 5.9645319 0.67298347 10
0.17888358 6.0307178 0.70170158 10.333333
0.35495189 5.9811559 1.0590444 12
0.17060553 6.0437093 1.0313652 11.8
0.24346772 5.958406 1.2547475 13
0.2898435 6.025589 1.5395108 14
0.0068605458 6.8343534 1.2563574 12
0.259197 6.0336733 1.737193 15
0.12023632 6.4217677 1.6750101 14
0.03057899 6.8077421 1.9044299 15
0.49510172 -0.42908606 -0.0098982165 6
0.59056532 -0.17694707 -0.017125152 6
0.43288493 0.28384632 -0.0086847451 6.5
0.44116184 0.45997337 -0.0070225052 6.5
0.61537457 -1.2333804 0.25268307 12
0.61395222 -1.0844814 0.22207493 11.8
0.51434571 -0.53488988 0.015446895 7.5999999
0.64363855 -0.27760985 0.010705508 7.25
0.44095632 0.33597291 0.011414791 7.5
0.48962229 0.59655076 0.016975356 7.5
0.6036312 0.99407244 0.030506425 8
0.6946522 1.4113218 0.044429753 8
0.76844323 1.7441773 0.051614773 8
0.53416169 2.1014457 0.065111473 8
0.57208395 2.5711648 0.063749172 8
0.60809976 3.0301621 0.065848105 8
0.63483149 3.3875072 0.071786232 8
0.76792574 5.7547588 0.25596645 8.5
0.55805063 5.9126549 0.68377084 10.333333
0.61024332 5.9047332 1.0466228 12
0.59086603 5.8859892 1.3964307 13.5
0.61770737 5.9049873 1.7261797 15
1.1385075 -0.10680278 -0.012835864 7
1.0003954 -1.2901759 0.2587381 11.272727
0.97413176 -1.0289856 0.35055327 13.857142
0.87755382 -0.12465369 0.0078405552 7
0.86917347 2.1975119 0.060638614 8
0.9639129 2.6228492 0.068353057 8
1.0680847 3.0865769 0.073874831 8
0.81033623 5.7368622 0.11170322 7.5
0.81717968 -1.253464 0.44918284 15
1.0072321 -0.99996912 0.42055574 15
0.95661527 5.7935944 0.67397559 10.333333
0.98375338 5.8029418 1.0579145 12.2
0.96483797 5.8732038 1.4156464 13.666667
1.0968311 6.1828699 1.556506 14
1.1511554 5.8810883 1.7347637 15
0.97584289 6.1010723 1.7195804 14.666667
1.442026 -1.2474178 0.27943707 11
1.4184206 -1.1404186 0.32270238 12
1.2149873 3.7182455 0.064963937 8
1.3453557 4.298655 0.071934827 7
1.3564067 4.5211306 0.20252749 8.5
1.5654136 5.4791498 0.23435576 8
1.4185438 -1.279207 0.5818485 15
1.4528065 -1.1258316 0.48079032 14.2
1.4551514 4.5348387 0.51156265 10
1.526893 5.5940242 0.64062446 10
1.3736061 5.6486225 0.66521937 10.333333
1.587745 5.6644206 0.84377545 11
1.4376857 6.2005453 1.0681304 11.75
1.4084376 5.8334789 1.5543336 14
1.4516027 6.2236013 1.3207384 13.25
1.4364825 5.8174229 1.7603009 15
1.6568573 -1.0074098 0.24934976 10.5
1.792743 -0.58582038 0.26589012 10.8
1.9207323 -0.21981719 0.24757142 10.333333
1.9903089 0.025217336 0.3559393 12
1.6063564 5.5063157 0.12016081 8
1.6513121 -0.98168933 0.48400119 14
1.7822822 -0.58170021 0.4799557 14
1.9290822 -0.17243665 0.49595052 14.2
1.9875499 0.0079081235 0.4277105 13
1.7367092 5.5208678 0.6955533 10.333333
1.8081372 5.507308 0.82175452 11
1.8860048 5.9795284 0.99700481 12
1.7806648 6.1066952 1.108274 12
1.8087521 5.7075543 1.5343283 14
1.8440318 6.0944796 1.3261824 13
1.7922164 5.696094 1.7544314 15
2.0547087 0.21143937 0.310137 11
2.1952765 0.62763929 0.32839647 10.875
2.3346817 1.0094731 0.33181897 10.5
2.3850346 1.2053006 0.26903799 10
2.0739424 0.24022727 0.51832163 13.875
2.1981747 0.59136671 0.56135339 13.818182
2.3408401 1.0001136 0.58913088 13.3
2.1704233 3.4812644 0.47843537 10.333333
2.1964946 3.8103905 0.62620312 11.111111
2.1767673 5.3597689 0.62633872 10
2.1920917 3.8818696 0.98772436 13
2.1648848 5.8682108 1.0525607 12
2.2205558 5.8722463 1.3674712 13.25
2.0813928 6.0111318 1.4490994 13
2.2041984 5.5408001 1.7463422 15
2.0322793 5.6069617 1.7801833 15
2.4662731 1.4073216 0.28737208 10
2.6124513 1.8696095 0.33686703 9.666667
2.6364057 2.2221017 0.34440207 9.666667
2.7106891 2.9604478 0.35471916 9.333333
2.6310849 3.5468342 0.39044759 9.5
2.4108257 1.1449885 0.64406204 13.5
2.4856672 1.4050484 0.57132047 12.555555
2.6033819 1.779215 0.61529994 12.363636
2.6147442 2.2396784 0.61283612 11.857142
2.5661476 2.5101967 0.46873817 10.333333
2.7168722 2.9248362 0.5925889 11.25
2.565135 3.5089705 0.58629 10.75
2.5630605 3.6650517 0.69037622 11.333333
2.6049995 5.1788535 0.67839581 10.5
2.5234478 5.253603 0.63565719 10
2.5082738 1.3905402 0.84482604 15
2.6496053 1.7684758 0.88711184 14.6
2.6575365 2.1975687 0.93600053 14.5
2.7661226 2.7140522 1.0342772 14.333333
2.6545341 2.9365256 0.93801963 13.5
2.7710607 3.435045 0.9017846 12.333333
2.6671548 5.2741866 0.91726756 11
2.6072674 5.8087077 1.047793 11.5
2.6098187 5.7740426 1.369347 13
2.6008048 5.3974829 1.7321248 15
3.0466077 3.7124295 0.37223122 9
2.8168466 2.7862241 0.60056621 11.5
2.8216145 3.1079249 0.58013618 11
2.9152746 3.5559092 0.67452842 11
3.0858343 3.6822767 0.61750799 10.666667
2.9513378 4.03584 0.78801244 11
2.8041511 2.2095928 1.0180026 15
2.8570518 2.7540615 0.94970727 13.5
2.8271849 3.1008587 0.99728632 13.5
2.8630681 3.4095254 1.1280624 14
2.9700634 3.771111 1.0473928 13
3.0125704 4.3424983 1.0591928 12.666667
3.1289244 5.0001802 1.1082883 12.5
2.8642333 5.5726347 1.1001394 12
2.797195 5.7673984 1.1220227 12
2.817323 3.4796634 1.2615674 15
3.0074387 3.7438173 1.3922076 15
3.059145 4.1937861 1.3498719 14.5
3.122977 5.0058541 1.3289913 13.333333
3.0256801 5.581491 1.5402511 14
2.9452584 5.6573625 1.4179218 13.333333
3.149714 4.4354877 1.6154732 15
3.1399581 5.0311098 1.7067658 15
3.0215495 5.2527065 1.708391 15
3.2573411 4.8754587 1.0271571 12
3.2123163 3.5977921 1.445194 15
3.2837591 4.8615975 1.4127319 13.666667
3.2306564 5.5572515 1.4569789 13.5
3.284301 4.8650308 1.720994 15
