# .PCD v0.7 - Point Cloud Data file format
VERSION 0.7
FIELDS x y z intensity
SIZE 4 4 4 4
TYPE F F F F
COUNT 1 1 1 1
WIDTH 557
HEIGHT 1
VIEWPOINT 0 0 0 1 0 0 0
POINTS 557
DATA ascii
-6.7767434 17.227617 3.0874112 12
-6.1707892 10.806123 0.53133911 8
-6.1817203 10.786222 1.1291698 10
-6.1298881 11.014027 1.8794873 11
-6.150269 10.96978 2.1239376 12
-6.202302 11.35281 2.1463497 12
-6.2437124 11.758393 2.0893898 11.5
-6.0774055 17.108583 2.2283647 11
-5.7416072 15.270458 1.3899317 9.5
-5.8607678 9.1698685 1.7970523 12
-5.9149303 9.5148001 1.9025356 12
-5.9770193 9.8542519 1.9610277 12
-5.985074 10.134032 1.9963782 12
-5.7795768 10.530518 2.962415 14
-5.6678576 17.416319 3.1619849 12
-5.4445419 6.4739017 0.36151305 8
-5.5052767 7.0665751 0.19237801 8
-5.3401647 5.5363445 0.75849736 10
-5.3321977 5.6466103 0.7797097 10
-5.5546818 6.9555478 0.61261493 9
-5.2871099 7.7976193 0.73002064 9
-5.2240963 8.1148577 0.72160667 9
-5.2646222 5.1515183 1.0511241 11.5
-5.4697413 6.2311225 0.8098911 10
-5.5356541 6.9482961 1.076212 10.666667
-5.34128 7.247015 0.83752388 10
-5.2752733 7.6895566 0.83397973 10
-5.3224344 8.0285292 0.93876368 10
-5.3369284 5.6842752 1.249463 12
-5.5600057 6.9471364 1.4625866 12
-5.3399 7.2509408 1.5565454 12
-5.4750838 15.302932 1.3755867 10
-5.2784805 7.8014741 1.6101779 12
-5.4626284 6.2196674 2.3423202 15
-5.3197336 6.264956 2.4103794 15
-5.3341556 7.4972143 2.6841302 15
-5.2372327 7.7399921 2.7343686 15
-5.4677844 17.452143 3.1152058 12
-5.2388954 17.500053 3.1867332 12
-5.0164647 4.9798155 0.30796078 8
-4.881886 7.3721075 0.26400834 8
-4.8217235 4.9962692 0.47437945 9
-4.8896704 7.4256201 0.44661367 9
-5.1006999 8.1240654 0.46709844 9
-5.0857129 4.4639945 1.1079257 12
-4.8080716 4.8689933 1.3394178 13
-5.1743321 7.3618898 1.513128 12
-5.1176515 15.363333 1.4185908 10
-5.0670075 4.510922 1.9393539 15
-5.1837144 7.2732415 1.7583452 13
-5.1204877 7.3157725 2.2549684 14
-4.9664602 7.8408756 2.7206306 15
-4.8201141 10.721023 3.3088834 15
-4.5974956 4.8032961 0.32785618 9
-4.4581027 4.8877602 0.71781033 10
-4.4346733 4.0890603 1.0818732 12
-4.4853544 4.0832157 1.1984224 13
-4.7658396 4.7991748 1.1901702 12
-4.6606412 4.8415523 1.2769588 12.666667
-4.5817037 15.433294 1.4534458 10
-4.4713044 4.2063985 1.8083115 15
-4.4546232 15.504433 2.3649702 11
-4.6442056 7.9223471 2.7177522 15
-4.596808 17.579237 3.131712 12
-4.7889142 17.51277 3.1990211 12
-4.1377931 4.9114895 0.51921833 9.5
-4.4015608 4.1158104 1.0095822 12
-4.1858211 4.8836188 1.0191096 11.5
-4.1764817 4.9053178 1.3465444 13.2
-4.2072368 15.501759 1.4752821 10
-4.347403 4.3312149 1.7118481 14.5
-4.2196522 4.4375405 1.7113769 14.5
-4.0189462 4.8847237 1.9014516 15
-4.2093463 11.320455 2.1758101 12
-4.3311725 15.676803 2.0765352 11
-4.1713171 16.552795 2.1711285 11
-4.0226693 12.692093 3.0294454 14
-4.163816 17.613991 3.1365292 12
-4.0100646 10.953406 3.2784266 15
-4.3519378 17.539152 3.214931 12
-3.8905814 4.9427762 0.38385209 9
-3.7909546 6.1766815 0.30600226 8
-3.7625594 8.0110388 0.37816557 8
-3.8202391 5.0268922 0.48512891 9.5
-3.7757881 6.1262903 0.68019229 10
-3.6670876 7.1511564 0.7149061 10
-3.8225737 7.7441607 0.38654432 8
-3.7296033 8.0177717 0.40621072 8
-3.7244651 7.1403871 0.95724648 10
-3.7173131 8.1627769 0.8626008 10
-3.7987044 5.0129533 1.4258759 13.5
-3.7436063 18.160578 1.719913 10
-3.6685646 10.430903 2.3143346 13
-3.9513891 11.45507 2.2043426 12
-3.7222915 16.405712 2.1553037 11
-3.9268389 7.4218655 2.4819679 15
-3.7686398 8.1448717 2.6771591 15
-3.8067484 9.7342358 2.4304805 14
-3.7076705 12.730298 3.030462 14
-3.7850616 17.706953 2.9739749 11.5
-3.8008342 37.518055 3.2033772 10
-3.5804191 5.0669608 0.28030232 8
-3.4010282 6.2681146 0.35342747 8.666667
-3.5380354 5.0299025 0.67576182 10
-3.5659363 6.1443982 0.6152032 9.5
-3.5111163 6.5217633 0.73177189 10
-3.2556641 7.9799128 0.44574079 9
-3.5566359 8.1451559 0.42770621 8
-3.296438 5.0947614 0.93463224 11
-3.5203693 6.420857 0.89395463 11
-3.3873527 7.1943011 0.88564581 10
-3.2493675 7.3351374 0.89559847 10
-3.4962363 18.278467 0.84107089 8
-3.3259397 5.0548825 1.417008 13.5
-3.4073081 18.210585 1.5290101 9
-3.3106503 18.221636 1.7490144 10
-3.4095824 10.491993 2.3260481 13
-3.5507426 9.7508307 2.426815 14
-3.430856 10.13279 2.5007284 14
-3.5372372 12.771502 2.7526488 13
-3.2172515 12.805661 2.762255 13
-3.4066827 12.805881 3.0389328 14
-3.4874177 17.766268 2.8823123 11.5
-3.2060282 11.181746 3.2565427 15
-3.4539778 12.391684 3.227159 14
-3.0741785 5.0730104 0.76823175 11
-2.8048055 5.9959316 0.53121793 9
-2.8752184 6.8301215 0.79872322 10
-3.0138128 5.0939894 1.3893412 13.666667
-2.9802871 18.272648 1.5159241 9
-2.9611583 18.270414 1.7543657 10
-2.9336131 8.3609066 2.6614096 15
-2.9092734 12.863418 2.7766683 13
-2.9792387 17.809208 2.7678754 11
-3.0906858 12.8369 3.0411086 14
-2.8948615 17.790779 3.1676354 12
-2.8519549 12.451877 3.2131162 14
-2.7307928 6.0603232 0.52339876 9
-2.4458144 6.4312129 0.53834271 9
-2.6689892 7.8212147 0.65433156 9
-2.4868333 5.1280189 0.97510535 12
-2.5026863 5.2993379 1.0952022 12
-2.7205353 6.6528368 0.8415302 10.5
-2.6392355 18.051096 0.84048086 8
-2.494338 5.1125355 1.1922879 13
-2.5502651 18.340784 1.5025603 9
-2.534694 18.348249 1.7779036 10
-2.5272985 16.434505 2.1605976 11
-2.6150942 8.4051762 2.649559 15
-2.5949376 13.388477 2.5627966 12
-2.564225 17.903921 2.7596698 11
-2.6205606 12.908916 2.9614663 13.666667
-2.5589528 12.500367 3.2123032 14
-2.472877 17.859053 3.1784453 12
-2.2898283 6.4744296 0.54776531 9
-2.1858616 6.9052763 0.57058096 9
-2.2869246 8.0849295 0.61385083 9
-2.2857442 5.1617846 0.97163874 12
-2.2707303 18.485449 0.94553196 8.666667
-2.2488389 5.1487546 1.1929594 13
-2.0197871 18.43783 1.8382272 10
-2.1162755 16.297354 2.1458974 11
-2.297576 8.4423199 2.6383674 15
-2.1118891 13.064057 2.5309222 13
-2.1472061 17.960783 2.7479627 11
-2.2245016 12.940658 2.9239051 13.5
-2.3005636 17.935427 2.9773369 12
-2.3909857 11.348166 3.2303164 15
-2.0418744 17.821085 3.1766045 12
-1.6744829 1.0568068 0.36529538 12.333333
-1.7331001 1.4092268 0.38786706 12
-1.7465551 1.6619613 0.35968643 11
-1.6803257 1.1080488 0.47851393 14
-1.7254182 1.3959883 0.5431692 14.142858
-1.7597704 1.62033 0.49770889 13
-1.6521587 5.3004951 0.75727952 11
-1.8897597 6.6981878 0.50456423 9
-1.7978616 7.6682954 0.57267249 9
-1.8921334 11.317769 0.75710315 9
-1.7071491 5.2977066 1.0720774 13
-1.7674435 7.7915568 0.94677186 10
-1.8058906 18.56735 0.94208741 8.5
-1.8860631 8.5062723 2.6305184 15
-1.7251875 18.02062 2.736618 11
-1.772042 13.055909 2.9504323 13.5
-1.8855619 17.974861 2.9766419 12
-1.8409503 11.416377 3.2080846 15
-1.8094146 12.522486 3.1884127 14
-1.2345459 -1.6679924 0.31826699 11.5
-1.2912649 -1.383521 0.31741786 11.8
-1.3531201 -0.97551918 0.33649209 12.8
-1.4061816 -0.64365906 0.33850735 13.166667
-1.4535345 -0.33584309 0.34121925 13.5
-1.2352334 -1.6813533 0.54582602 14.25
-1.2870907 -1.4093593 0.4796007 14
-1.350878 -1.0023441 0.45839059 14.5
-1.4082822 -0.65531862 0.42976564 14.6
-1.4568273 -0.3211568 0.42218822 15
-1.528859 7.6842847 0.57130486 9
-1.5734652 7.8795156 0.96108323 11
-1.2394266 17.44561 0.96284199 9
-1.4715496 18.494312 1.0441778 9
-1.2375842 17.418476 1.7058569 10
-1.5838284 18.48102 1.865203 10
-1.3232473 16.119371 2.1279318 11
-1.5800588 8.5579796 2.6280944 15
-1.4374428 13.196909 2.5664392 13
-1.4042387 13.10029 3.0771453 14
-1.4665668 18.050043 2.9802134 12
-0.84692395 1.0569545 -0.02659763 7
-0.87849754 1.4016714 -0.038817938 6
-0.91988218 1.8859639 -0.055870838 6
-0.95374554 2.6027241 -0.074211955 6
-0.81318027 3.3398788 -0.10410725 6
-0.97306049 3.7856162 -0.11850067 6
-1.000026 -1.7171352 0.28156713 11
-1.0094746 -1.7165847 0.49800244 14.142858
-0.93530273 13.688911 2.1570706 12
-1.0143338 14.769775 2.1800394 11
-1.0615326 8.5862207 2.6116235 15
-1.0372316 13.174598 2.5915945 13
-1.0678838 12.541034 3.1691191 14
-0.94575989 13.178757 3.0912406 14
-0.59253985 0.70591396 -0.01750697 6.6666665
-0.60699278 0.97339785 -0.026577022 6.25
-0.64813292 1.3675399 -0.037917677 6
-0.55414021 1.828958 -0.056182567 6
-0.57747376 2.2234154 -0.07154914 6
-0.53693706 2.5681555 -0.077280149 6
-0.67957485 2.9655042 -0.089756772 6
-0.41485786 3.7174993 -0.12890905 6
-0.54811287 4.3459716 -0.15764183 6
-0.58339202 -1.6557877 0.32627031 12.285714
-0.62765634 -1.659783 0.46668082 14.2
-0.50338817 10.871557 2.2046146 13
-0.43638852 11.590363 2.206811 12
-0.65534246 12.524082 2.179796 12
-0.65001523 8.605689 2.6009896 15
-0.77588266 12.576376 3.1687517 14
-0.63477743 13.230791 3.1029632 14
-0.3129608 0.46265274 -0.013978625 6.5
-0.18223955 1.8381722 -0.061725244 6
-0.22995621 2.1545422 -0.076840974 6
-0.17219386 2.5913317 -0.090341642 6
-0.25037464 2.9506412 -0.10012717 6
-0.32412043 3.2950578 -0.11348543 6
-0.26230881 7.5387573 -0.16431153 6.5
-0.200693 -1.7035124 0.22401781 10.8
-0.1162473 -1.5190029 0.22522925 11.142858
-0.028236279 -1.1105847 0.021340918 8
-0.34888184 0.36035481 0.011612564 8
-0.29836538 -1.6113944 0.45926848 14.5
-0.14647685 -1.5867252 0.43014708 14.5
-0.11542848 9.8617535 0.94383258 10
-0.053849842 9.8687572 1.2146609 11
-0.11198587 9.9066687 1.9441867 13
-0.057456855 8.4451132 2.2423799 15
-0.15544346 9.0129137 2.235383 14
-0.031398155 9.5841923 2.207998 14
-0.26745087 9.7976103 2.2421329 14
-0.25541106 10.901035 2.219593 13
-0.36335033 12.600021 2.1852741 12
-0.2420115 8.6432571 2.5990536 15
0.088291712 -0.81383437 -0.0047288216 7
0.24924488 -0.57049817 -0.012483777 6.5
0.36143157 -0.359283 -0.026768383 5.5
0.23822249 0.56889009 -0.044049256 4.8000002
0.25801191 0.89517623 -0.05593225 5
0.24136174 1.7881376 -0.070746168 6
0.20974524 2.1727514 -0.083972633 6
0.18939887 2.4125922 -0.090106994 6
0.14993596 2.9104698 -0.11210547 6
0.12346332 3.2447989 -0.1269615 6
0.091582522 3.6401083 -0.14258359 6
0.053164467 4.1062489 -0.15823932 6
0.21592265 -1.7909149 0.17242111 9.666667
0.18704453 -1.4928041 0.21461049 11
0.12888084 -0.9589045 0.005847719 7
0.21900146 -0.57887095 0.0057292809 7
0.2076004 -1.5306319 0.43089473 15
0.1604117 8.7597218 0.72277027 9
0.02090502 8.9489689 0.72748643 9
0.34539965 6.7644525 1.0461725 11.5
0.17845841 8.670435 1.0135241 10.5
0.0054993564 8.9874191 0.98784405 10
0.38962978 6.7594028 1.5406196 13
0.29333156 6.8569002 1.4110996 13
0.10272842 8.6908236 1.4823663 12
0.35539907 6.8031673 1.6887882 14
0.13130687 8.6787262 1.7528805 13
0.034059815 9.0302896 1.9124626 13
0.12853822 7.8235712 2.2441149 15
0.19385651 8.6814947 2.0423398 14
0.5442037 -0.54533851 -0.010013118 6.5999999
0.58700818 -0.19894071 -0.041081466 4.9285712
0.4716638 0.27699098 -0.053960059 4.1999998
0.53592879 0.58995026 -0.049179319 5.1666665
0.65410393 0.94354343 -0.062260609 5.5
0.57321805 1.5868253 -0.070377596 6
0.59570169 1.7580761 -0.077504084 6
0.59306371 2.2093458 -0.094539024 6
0.52033854 2.6456096 -0.10847443 6
0.53742021 3.0056043 -0.11894738 6
0.5551396 3.3514526 -0.13338777 6
0.67622846 6.0949392 -0.18263471 6.5
0.66187787 6.8569889 -0.035469066 7
0.55893368 -1.7205298 0.12541161 8.8000002
0.56887281 -1.4638025 0.23061162 11.181818
0.45534319 -0.50363189 0.0034151031 7
0.62151361 6.8743682 0.1021458 8
0.59754121 -1.4738499 0.4323867 14.5
0.54768044 6.780395 0.70572919 10
0.77587718 6.8317232 0.7401492 10
0.54304779 6.7813349 0.95130974 11
0.65548646 6.8068619 0.9907825 11
0.5094862 6.7841744 1.4723821 13.25
0.70847875 6.819859 1.3169459 12.5
0.46193904 6.7881103 1.9842482 15
0.75098479 6.832171 1.7945768 14.5
0.92453259 -0.23788831 -0.010498686 7
0.8420217 1.3968332 -0.066939041 6
0.95895302 1.756814 -0.081369542 6
1.0115707 2.2603118 -0.1015873 6
0.89725345 2.7715495 -0.11598854 6
0.95139635 3.0646825 -0.1282181 6
0.98311555 -1.6496781 0.15006116 9
1.0431517 -1.4096121 0.31092885 12
1.0270418 -1.4089159 0.46509573 14.5
1.0387268 6.9168839 0.6231463 9.333333
1.0402517 6.9225006 0.98158336 11
1.0091293 6.9210029 1.3813349 12.75
1.0543095 6.9316101 1.6402304 13.666667
1.0559036 6.9566169 2.0077765 15
1.2043896 2.5099797 -0.11426422 6
1.3748411 3.035105 -0.13496619 6
1.514173 3.4581261 -0.15840542 6
1.4485803 5.8951669 -0.16047834 6.5
1.4450626 6.0688605 -0.048474696 7
1.4134706 -1.4349192 0.26130036 10.666667
1.5680602 7.0590844 0.11098348 8
1.4488182 -1.3714008 0.50617474 14.142858
1.3790835 6.9928718 0.60856408 9.333333
1.424165 6.9987774 0.94154042 10.6
1.3561094 6.996047 1.3408861 12.333333
1.3911511 6.9931936 1.6887565 13.5
1.4058908 7.0155792 2.0163572 15
1.8105702 -1.3471069 0.24156538 10
1.8037226 -1.312896 0.53149843 13.625
1.7854145 7.0522637 0.6372152 9.5
1.7727526 7.0512142 0.94994503 10.6
1.8134596 7.0646563 1.4109148 12.5
1.7885199 7.0539136 1.6932143 13.5
1.8415419 7.0753083 2.134095 15
2.1547439 5.5805683 -0.080443494 7
2.2144394 5.650476 -0.20689201 6
2.1938832 -1.2503285 0.24078667 9.7142859
2.3135264 -1.0221978 0.24184826 9.625
2.1728456 -1.2463994 0.56600583 13.5
2.3246248 -1.0239136 0.58340138 13.6
2.2958565 7.12923 0.59532005 9.25
2.1538386 7.1100812 0.95936829 10.6
2.2066987 7.1217122 1.3383913 12
2.1597872 7.110909 1.7626895 13.666667
2.1756928 7.0972776 2.1446192 15
2.641005 7.1761718 -0.037480798 7
2.5105107 -1.0456887 0.23303308 9.5
2.6143847 7.235589 0.11370249 7.5
2.5719664 -0.91514766 0.66297638 14
2.6251018 7.174408 0.59840667 9.333333
2.5918279 7.1781926 0.93483496 10.5
2.7782931 7.2039833 1.1179633 11
2.538059 7.1694498 1.428437 12.5
2.5837693 7.1747179 1.7750682 13.5
2.7911978 7.2148261 1.8212107 14
2.5956948 7.0636086 2.1432745 15
2.9202182 -0.97236133 0.23086993 9.1428576
3.1921229 -0.051730275 0.24452014 9
2.9194806 4.063179 0.34702063 9
2.858439 4.6368861 0.37502632 9
2.910646 -0.93807197 0.59436405 12.555555
3.1883063 -0.061710127 0.44792983 11
3.190295 0.0079162 0.45522502 11
3.1152081 3.053757 0.51905918 10
2.8817008 4.2572112 0.5271942 10
2.8802528 4.4706144 0.49421823 10
3.1285341 7.2526731 0.64242488 9
3.0624466 -0.92526859 0.92088342 15
2.9966679 7.2464323 0.8776359 10.333333
3.0280073 7.2569094 1.3016552 11.5
2.966264 7.2383561 1.7789695 13.333333
2.9091461 6.8957767 2.1746154 15
3.0607953 7.2767076 2.0797696 14
3.2152598 -0.8698014 0.26134849 9
3.4857066 -0.61160052 0.21855664 8.727273
3.2387161 -0.23388799 0.22262844 9
3.3799531 0.08549504 0.26837027 9.1999998
3.214855 -0.83438557 0.57465899 12
3.3761277 -0.62911904 0.60854357 12.111111
3.4676638 -0.1869382 0.58496779 11.857142
3.5054197 0.087058537 0.5896917 12
3.3946002 7.2985086 0.60046661 9
3.2280726 -0.8290512 0.91646367 14.5
3.4925733 -0.61196953 0.9174484 14
3.597707 0.10694513 0.83323377 14
3.3735189 7.2988267 0.8132174 10
3.40395 7.3133578 1.339098 11.666667
3.3524699 7.3017983 1.7542356 13.333333
3.4946098 6.8950377 2.1986024 15
3.39627 7.3281498 2.0964949 14
3.8167644 -0.86548418 0.20957562 8.5
3.8134189 -0.7434473 0.26676705 9
3.8213997 0.2727204 0.3890782 10
3.7337074 0.64945453 0.19248347 8.25
3.7226617 1.0264113 0.22296341 8.5
3.7024937 5.4736929 0.34315124 9
3.6514745 5.6826439 0.35589314 9
3.7714193 6.9116983 0.39482144 8
3.8486092 -0.89118373 0.57265282 11
3.7337496 -0.60570449 0.68360656 12.125
3.6311018 -0.13011761 0.5789392 11.5
3.6384428 0.15364948 0.68226326 12
3.72686 0.52286738 0.41522276 10
3.7386816 7.3463473 0.65588397 9.333333
3.8563519 -0.89296305 1.0586205 14.5
3.818512 -0.58825111 1.0212144 14.2
3.8905785 7.3738937 0.93618309 10.333333
3.8032479 7.3697801 1.3085121 11.5
3.7746177 7.3532305 1.8739845 13.5
3.9406171 6.7758665 2.1936526 15
3.7666116 6.8318281 2.1970308 15
3.8602326 7.3912344 2.1213541 14
4.3221617 0.32558382 0.22092766 8.5
4.00982 0.48811954 0.11997209 8
4.2058325 -0.45926148 0.75158501 12
4.2256927 7.4149013 0.70249563 9
4.2208204 -0.45179135 0.97338504 13.666667
4.2334661 7.4337997 1.0086467 10
4.0341153 -0.49098572 1.2118001 15
4.199069 7.4270711 1.2635896 11.25
4.2009215 7.4297686 1.7859172 13
4.2186184 6.7049723 2.1931884 15
4.2902989 7.4451904 2.0791085 14
4.7849984 1.506915 0.19570366 8.25
4.7394276 1.798714 0.19268458 8
4.6898279 2.1648762 0.22666134 8
4.6065397 2.5529258 0.19866952 8
4.5531983 2.910665 0.20514062 8
4.7891374 5.4626732 0.25138283 8
4.7466087 5.8077922 0.27080148 8
4.7235889 6.0659909 0.28442165 8
4.5967641 -0.40704319 0.79568034 12
4.7869029 1.4892608 0.49765646 10
4.7441931 1.7823548 0.52652526 10
4.6874704 2.2492323 0.60666829 10.2
4.605422 2.5594666 0.6063748 10
4.5650601 2.8712087 0.6150372 10
4.7990298 5.4695549 0.64145499 10
4.7579746 5.9595885 0.6786527 10
4.7210345 6.1162148 0.64036447 9
4.4663906 7.4512148 0.73615277 9.5
4.6165948 -0.40195221 0.90508276 13
4.6796327 2.2067142 0.99427372 12.5
4.6087508 2.6070175 0.96207535 12
4.5684905 2.8066895 0.98030758 12
4.7882323 5.4168901 0.93963462 10.666667
4.7526908 5.7810931 0.94048381 10.5
4.7058825 6.1586189 0.95205128 10.333333
4.6723595 6.4864058 1.0746579 11
4.5800362 7.4392343 1.0705951 10.333333
4.4079094 -0.42014983 1.3446966 15
4.7268276 1.9809805 1.4043036 14.5
4.6960964 2.3791058 1.3930484 14.5
4.5995989 2.649642 1.3516284 14
4.5630589 2.8726823 1.3644775 14
4.7849131 5.3559413 1.3580236 12
4.7693315 5.7206678 1.4115443 12
4.6952314 6.1821499 1.4770104 12
4.6403799 7.4108171 1.2781172 11.333333
4.7638502 5.8041749 1.7205924 13.5
4.7262602 6.1657686 1.7792441 13.5
4.7121878 6.524632 1.8270332 13.5
4.6857028 7.0276766 1.8184716 13
4.6160021 7.4252119 1.7346596 12.333333
4.6304193 5.7703972 2.157963 15
4.5856233 6.5871725 2.1892862 15
4.599483 7.4213052 2.1215584 14
4.841011 1.4320873 0.00014230351 7
4.9055762 0.59515268 0.18534292 8
4.853796 1.0196755 0.13756567 7.75
4.8153138 1.3368719 0.12722637 8
5.1470699 3.551234 0.28997263 8
5.1063032 3.773479 0.30104193 8
4.9990888 4.2008796 0.27922592 8.333333
4.9710603 4.6160197 0.29899028 8.6000004
4.8685446 5.0725379 0.30974007 8.5
4.9725671 0.35359532 0.60369003 10.5
5.0135145 0.62717795 0.6387307 10.6
4.9531708 0.96660036 0.6248129 10.6
4.8398032 1.2857124 0.56209975 10.5
5.1365857 3.510216 0.60028303 9.5
5.1211143 3.7888293 0.60950875 9.5
5.0766664 4.1604967 0.65755945 9.666667
4.9530978 4.5835023 0.75637919 10
4.8856874 5.0137477 0.64667714 9.666667
4.8013721 5.313499 0.42144126 9
4.8183479 5.6600251 0.43759552 9
4.9742732 -0.30528319 1.111655 13.25
4.8212805 1.9932697 1.1133586 13
5.1398001 3.4679832 0.998254 11.666667
5.1234174 3.7860057 1.0303031 11.5
5.0616541 4.1562839 0.98718816 11.333333
4.9728937 4.5455074 1.047711 11
4.8827291 5.0378184 0.91364843 10.75
4.8287439 5.2160788 0.82478893 10
4.9627824 -0.40158072 1.4263266 15
4.9997792 -0.21910816 1.429 14.75
5.1969461 0.33076191 1.3236462 14
5.1533446 0.54031676 1.4960938 14.666667
5.0933671 1.0373881 1.3756536 14.666667
5.0113306 1.3905567 1.4007117 14.5
4.9472051 1.7573291 1.4820532 14.666667
4.990366 2.232717 1.380338 14.333333
5.0337901 3.4206426 1.4318687 13.333333
5.1239352 3.7852719 1.4469377 13.333333
5.0529203 4.1836834 1.4151937 13
4.9661841 4.590044 1.3250886 12.333333
4.88306 5.0410624 1.4239956 12.5
4.8145514 5.5718584 1.5912648 13
4.9644675 2.2688291 1.636372 15
4.8704443 2.4145954 1.6510828 15
5.1442695 3.5781 1.767032 15
5.0988498 3.7931662 1.715807 14.5
5.041347 4.2162976 1.7988831 14.5
4.9615793 4.6157928 1.8275954 14.4
4.902544 5.0552044 1.8084441 14
4.8346577 5.3036842 1.6824464 13.5
4.8127494 5.6741195 1.7852292 14
4.8968201 5.0190969 2.059258 15
4.830637 5.550281 2.17786 15
5.5253296 0.51717079 0.75723529 11
5.3757801 1.1013273 0.7903769 11
5.3079195 1.8041162 0.70283765 11
5.2858682 2.0423343 0.73623335 11
5.3851771 -0.00089842005 1.1746349 13
5.5606399 0.33803102 1.0393202 12.5
5.5155983 0.6252926 1.0346678 12.4
5.4544473 1.0119053 1.0577109 12.333333
5.3653131 1.4409562 0.96236771 11.8
5.3430066 1.7885762 1.0214872 12
5.2783961 2.0605655 1.0395116 12.5
5.3449979 0.18545534 1.3966904 14.166667
5.5235038 0.63118625 1.2877065 13.5
5.3986287 0.96106553 1.3151672 14
5.40241 1.4287661 1.2426865 13
5.3194985 1.8603381 1.2943349 13.333333
5.5985093 0.2520363 0.96240997 12
5.6071005 0.11510773 1.2240559 13
