# .PCD v0.7 - Point Cloud Data file format
VERSION 0.7
FIELDS x y z intensity
SIZE 4 4 4 4
TYPE F F F F
COUNT 1 1 1 1
WIDTH 566
HEIGHT 1
VIEWPOINT 0 0 0 1 0 0 0
POINTS 566
DATA ascii
-5.7556896 11.280762 0.68891275 9
-5.6928048 11.806401 0.97300714 9
-5.6800599 15.805715 1.2978395 9
-5.9527659 17.427525 1.4789912 9
-5.6315303 10.058045 1.7890894 11.5
-5.8761292 13.488594 1.8189948 11
-5.6652703 11.594629 2.1062145 12
-5.676404 11.949041 2.1404848 12
-5.7270827 12.225297 2.0592613 11.5
-5.9245367 14.47606 1.9239786 11
-5.9289584 15.484268 2.0325625 11
-5.7084184 13.599023 2.4003758 12
-5.770854 16.801756 2.7698774 12
-5.7175846 17.361948 2.95628 12
-5.6280637 17.830946 3.0788224 12
-5.3820219 4.3896976 0.25565612 8
-5.3964081 4.5933838 0.22701742 8
-5.3583837 4.9391317 0.26382613 8
-5.3222394 5.2348628 0.31224146 8
-5.5515752 7.0452251 0.14607514 8
-5.5356269 7.3119569 0.15964809 8
-5.2578173 7.741713 0.2093873 8
-5.362946 4.2025619 0.61697692 10
-5.3887043 4.6392198 0.55608135 9.666667
-5.334321 4.9820585 0.58623898 9.666667
-5.3069897 5.3330884 0.50297445 9.333333
-5.4414864 5.6428175 0.62920308 10
-5.5276127 7.172534 0.40970558 9
-5.5084639 7.4986639 0.62604469 9
-5.347105 7.7557187 0.66272086 9
-5.3479781 4.2191935 1.0374259 11.5
-5.3697457 4.6481376 1.0110098 11.25
-5.3423738 4.9087081 0.98036474 11
-5.3116822 5.2259169 0.93243128 11
-5.4919662 5.906002 1.0050496 11
-5.4473109 6.7262526 1.0939054 11
-5.5074787 7.1239042 1.137056 11
-5.2050724 7.7524686 0.78170311 10
-5.3468556 4.3864565 1.4826993 13
-5.3603721 4.6398592 1.3601933 12.5
-5.3518786 4.8943415 1.3622394 12.5
-5.4524274 5.6040201 1.3757011 12
-5.426753 5.7249684 1.3315232 12
-5.4011788 6.042233 1.3132768 12
-5.4795303 7.1863704 1.4042093 12
-5.4822626 7.4172735 1.3365072 11.5
-5.4363332 7.7997112 1.3551443 11.5
-5.5393896 15.812099 1.3816966 10
-5.3140664 4.2299709 1.8531885 15
-5.3358779 4.61026 1.805866 14.5
-5.2969875 5.0017195 1.8557317 14.333333
-5.4200697 6.1190939 1.7933524 13
-5.4350634 7.5053582 1.7939901 13
-5.4661059 7.7471113 1.5512539 12
-5.5965023 10.241364 1.9092876 12
-5.5107822 15.97922 1.7355685 10
-5.3298101 4.7503538 1.9792993 15
-5.2853723 5.0042052 1.9955088 15
-5.3740916 6.1417704 2.3066249 15
-5.427218 6.586967 2.3392432 15
-5.492734 7.0351152 2.2171109 14
-5.5881443 10.501782 2.3263218 13
-5.4446168 15.854659 2.0741744 11
-5.4924946 6.5676951 2.4092259 15
-5.4238443 7.251884 2.4994128 15
-5.2529483 8.4241228 2.7818711 15
-5.2295346 9.0228395 2.9313731 15
-5.4297953 9.7942743 2.9350371 14.5
-5.3251963 10.112191 2.9740617 14.5
-5.3887224 10.80495 2.9816675 14
-5.4283199 11.519053 3.1343198 14
-5.4353347 11.832072 2.8848937 13
-5.213335 17.861671 2.8947654 12
-5.3738351 10.792128 3.2641456 15
-5.1097875 5.3404078 0.1980368 8
-5.0928864 7.8273139 0.22707498 8
-5.1616468 7.7832141 0.67370814 9
-5.161334 8.1652126 0.72181427 9
-4.9030666 4.6408625 1.0298703 12
-4.9421744 5.3185663 0.80425221 10
-5.157999 8.1580963 0.89064199 10
-5.1542974 8.4917183 0.83998728 10
-4.8743095 15.788881 1.1087658 9
-4.850553 5.3186016 1.4081908 13
-5.1279302 7.824883 1.5072961 12
-4.9563403 15.854966 1.3703709 9.5
-5.1317191 8.1484852 1.5812917 12
-5.1344738 8.5848904 1.6463068 12
-4.8177285 15.764278 2.4844198 11
-5.0995693 11.41769 3.4520013 15
-4.744338 5.755527 0.33903822 9
-4.7732 4.6750636 0.55614591 10
-4.6852179 4.6288905 1.0685965 12
-4.6151481 5.3385367 0.798307 10
-4.702569 4.5996475 1.2845966 13
-4.4876771 5.3441415 1.3136837 12.5
-4.5344028 15.810927 1.3870298 10
-4.5857549 4.7537994 1.7973832 14.666667
-4.4610929 4.8706846 1.7991824 14.5
-4.4412861 5.3100662 1.5950643 14
-4.521533 15.86223 2.4356039 11
-4.7663031 17.887894 2.8875055 12
-4.7834873 11.44133 3.4318421 15
-4.3390245 7.0161109 0.26223001 8
-4.1334128 5.3532767 0.57036245 9.666667
-4.213583 5.303968 1.2901911 12.5
-4.2604089 15.815836 1.3891853 10
-4.2328796 5.3755565 1.6615874 14
-4.1907749 5.3354783 1.973545 15
-4.109446 15.811061 2.41414 11
-4.0719051 17.925596 3.0416334 12
-4.0141401 12.866067 3.3474355 14
-3.7849758 5.4060779 0.2486759 8
-3.7391472 6.4217048 0.29388928 8
-3.772934 5.3853335 0.74567246 10
-3.6965327 6.4927778 0.58224076 9.5
-3.7449217 8.0976257 0.36612296 8
-3.7059872 6.5300722 0.88809097 11
-3.650351 7.4657354 0.85504538 10
-3.797821 10.366904 0.97859854 10
-3.8072929 5.3182697 1.4711603 13.5
-3.8765152 15.868141 1.4169388 10
-3.9082508 5.4159122 1.5873679 14
-3.6371348 15.877171 2.0824134 11
-3.8082519 8.0353899 2.607286 15
-3.7658005 10.108285 2.495986 14
-3.808938 14.529745 2.5376225 12
-3.9639904 8.6949596 2.7954018 15
-3.635931 17.959129 3.049279 12
-3.8472278 11.448214 3.3678727 15
-3.9763017 11.988565 3.3871338 15
-3.8343303 17.942225 3.150224 12
-3.4082897 6.5554605 0.33093894 8
-3.4001732 6.5606637 0.55525446 9.333333
-3.4074452 5.4049921 0.87626326 11
-3.5391152 6.5064096 0.79386532 10
-3.5646152 6.8227596 0.921296 11
-3.3656771 5.3774977 1.4427292 13.333333
-3.5241761 5.411159 1.5691977 14
-3.254159 15.923853 2.0893703 11
-3.2347586 10.120714 2.4864409 14
-3.3473995 10.905395 2.3963501 13
-3.4242496 15.882457 2.3657715 11
-3.3983922 13.063112 2.9899404 13.666667
-3.2681472 11.514148 3.3486526 15
-3.3499761 12.816714 3.3070419 14
-3.3963909 17.954622 3.1664846 12
-3.0055604 6.3759961 0.65389174 10
-3.0409286 6.935812 0.74828285 10
-3.1771331 8.3232937 0.54823309 9
-2.8201056 6.7444077 0.79326349 10
-3.126281 5.4033217 1.4696748 13.5
-3.0927002 15.896046 1.4655693 10
-2.8285344 18.463831 1.4280007 9
-3.2037451 5.3742523 1.7141517 15
-3.1557794 17.412382 2.2493823 11
-3.1050744 10.534171 2.5674219 14
-3.1165257 11.073851 2.4290009 13
-2.8794224 15.939863 2.4108622 11
-2.9860332 13.070415 2.94191 13.5
-3.2069645 17.999502 3.0587018 12
-2.9781024 11.540716 3.3377943 15
-3.0690901 12.092673 3.3354034 15
-3.0449603 12.863563 3.303643 14
-2.9704874 18.020304 3.1919377 12
-2.4814138 5.4495492 0.48944187 9.5
-2.7579401 6.7453027 0.75132757 10
-2.6180253 9.5878973 0.52384633 9
-2.7124479 5.3517981 1.1320434 12.5
-2.6130068 6.8460355 0.7686885 10
-2.4342122 7.3664351 0.82207209 10
-2.6771958 5.4949584 1.1952024 13
-2.6585186 15.915959 1.4202713 9.666667
-2.7305725 18.46834 1.6916862 10
-2.7087119 8.7326832 2.7272274 15
-2.4993651 15.972854 2.3970816 11
-2.6650405 13.080841 2.9443915 13.5
-2.6810148 11.518201 3.3162012 15
-2.4188716 12.876389 3.2824371 14
-2.5275285 17.998055 3.2031677 12
-2.1406446 -1.4044473 0.31058258 10.5
-2.1734562 -1.0091776 0.32427496 11
-2.1938987 -0.61569226 0.32156077 11.166667
-2.2995703 1.4279106 0.31695688 10.5
-2.3066337 1.716679 0.34237269 10.666667
-2.0116272 -1.5996554 0.40659499 12
-2.1331673 -1.4110322 0.59087139 13.5
-2.1640182 -0.99931407 0.55015373 13.555555
-2.1887381 -0.61604565 0.53168029 13.5
-2.2905459 1.4234773 0.59182453 13.444445
-2.298815 1.7157793 0.62802035 13.428572
-2.298203 7.657073 0.5665701 9
-2.1585238 8.3189964 0.64940441 9
-2.3160009 5.3819504 0.89247334 11.5
-2.286746 9.5631809 0.96122968 10
-2.4024463 15.916657 0.89480793 9
-2.3016365 5.3800273 1.1807522 13
-2.3854663 18.471991 1.4115696 9
-2.1580746 18.480488 1.6933464 10
-2.2791388 13.47777 2.5900214 13
-2.1896894 15.895082 2.3529806 11
-2.2610683 13.108186 2.9100776 13.333333
-2.0314326 37.606476 2.7026913 9
-2.2634876 11.57296 3.3101423 15
-2.1879618 12.232553 3.3048604 15
-2.1046193 18.050827 3.2271018 12
-2.2005489 37.630344 3.2394185 10
-1.7691388 -1.5839772 0.32121858 10.8
-1.8089484 -1.582291 0.55909687 13.555555
-1.795845 7.7783642 0.56156218 9
-1.9065171 5.468708 1.1513799 13
-1.6895581 7.879796 0.91210169 10
-1.9906931 5.4463754 1.1957614 13
-1.9504058 18.479916 1.3970939 9
-1.8517681 18.490931 1.7430913 10
-1.9512017 13.497117 2.6066599 13
-1.7292081 15.928353 2.3586776 11
-1.777125 13.142662 2.8408344 13
-1.8379138 11.57776 3.292243 15
-1.6756805 18.0471 3.2434587 12
-1.4221814 -1.5674902 0.30308184 11.2
-1.4012378 -1.5615373 0.51791424 13.875
-1.5207245 7.7351213 0.57370847 9
-1.3949211 11.463112 0.75657433 9
-1.2135675 18.332199 0.9317137 9
-1.5183418 18.506073 1.3817127 9
-1.501194 18.505281 1.7250049 10
-1.5280662 15.935619 2.3230672 11
-1.4276457 13.27291 2.5931282 13
-1.3481417 15.941478 2.342582 11
-1.3294064 10.091468 2.9083552 15
-1.3460912 13.166489 3.0869441 14
-1.2657536 11.504107 3.2526779 15
-1.3008209 12.326512 3.2709954 15
-1.2417154 18.011934 3.2531466 12
-1.3217705 37.755817 3.2977967 10
-0.99138004 -1.5477613 0.30365881 11.5
-1.03395 -1.5431817 0.4820604 14.2
-1.063555 15.951153 2.3211727 11
-0.94218636 13.200854 2.6042509 13
-1.0048459 13.175989 2.9407275 13.333333
-1.0600621 18.063543 3.087723 12
-1.1514102 37.655655 2.6988101 9
-0.99274355 11.529633 3.2506919 15
-1.189702 12.866582 3.2418375 14
-0.81676614 17.985361 3.2668214 12
-0.45223543 0.36783341 -0.0036849307 7
-0.56657773 0.41778633 -0.0053216405 7
-0.60562521 -1.527871 0.31615135 12.5
-0.50408286 -1.0187933 0.03564018 8
-0.52321446 -0.6241554 0.027407169 8
-0.48982388 -0.17646325 0.0080400603 8
-0.47082284 0.37465921 0.0046677995 7.5
-0.63449395 0.53175962 0.012093036 7.6666665
-0.62568682 -1.5254142 0.45627296 14.5
-0.80371606 18.687252 0.97073823 9
-0.71410906 18.584766 1.8320212 10
-0.58801913 15.964402 2.3130147 11
-0.62323773 13.186316 2.6179063 13
-0.72412592 13.214923 3.0970612 14
-0.63912666 18.146271 3.1050777 12
-0.57919931 11.534058 3.240253 15
-0.58363229 12.859726 3.2253032 14
-0.069842383 -0.5816921 0.0014187618 7
-0.2328627 -1.4709705 0.28085086 12.125
-0.20175686 -0.96390843 0.024021769 7.75
-0.17231007 -0.59585363 0.011121195 7.5
-0.19835292 -1.5039611 0.42529407 15
-0.033789862 14.056024 1.4914249 10
-0.19294347 17.526661 1.2816941 9
-0.007717195 14.001385 1.7267818 11
-0.28661206 18.434504 1.706429 10
-0.010912146 9.2133894 2.2764664 14
-0.078753442 12.353642 2.240972 12
-0.1895541 15.098494 2.1944001 11
-0.4069666 15.985128 2.3000381 11
-0.30829915 13.176515 2.6341119 13
-0.25414893 13.72756 2.5969491 13
-0.16663945 11.512776 3.2258031 15
-0.26160377 12.314563 3.217819 14
0.058824331 -0.5721221 -0.0023462172 7
0.2181803 -1.4859718 0.3123799 12.714286
0.032819591 -0.58820522 0.01148777 7.6666665
0.2604413 -1.4898816 0.42203867 14.666667
0.3353765 6.6984959 0.67700702 10
0.2134154 8.7787638 0.6701225 9
0.25678 8.7192678 1.0851969 11
0.20757861 9.8451395 0.88415599 10
0.0036500774 13.958177 0.87204927 9
0.10266217 14.008883 0.86929578 9
0.33188435 6.716538 1.3096039 12.5
0.32798567 6.7204475 1.7915444 14.5
0.2804333 8.9442759 1.9351079 13
0.13710698 7.6648264 2.2694929 15
0.18714485 8.218585 2.2608206 15
0.20524479 9.0127344 2.2367849 14
0.13021907 9.7437592 2.2442808 14
0.041279562 10.730998 2.2302766 13
0.088200994 11.515841 2.2515805 13
0.20821533 12.381981 2.2494369 12
0.1680097 13.997945 2.0502541 11
0.64942378 -0.10319581 -0.045719657 4.75
0.61796957 0.12305765 -0.05243149 4.375
0.60255426 -1.4670167 0.31689435 12.5
0.59706813 -1.469378 0.4342095 14.5
0.64819145 6.7163405 0.66119307 10
0.59495795 6.7179055 1.0375813 11.5
0.54190564 6.719799 1.5161146 13.333333
0.60323727 6.7222409 1.7599918 14.5
0.78003621 6.7331996 2.0334244 15
1.1134301 -0.46917334 -0.027397709 6
0.99287558 -0.18646601 -0.028571239 6
1.024273 0.17758976 -0.034486677 6
1.0004587 -1.4497619 0.3147791 12
0.99671167 -1.4486178 0.46628824 14.5
0.94786692 6.8002329 0.55386615 9
1.0793104 6.8094468 0.69540393 10
0.86679667 6.7525325 0.95220804 11
1.0585071 6.8106017 1.0261887 11.25
0.87678528 6.7535229 1.4628079 13
1.0995771 6.8163285 1.3892132 12.5
0.92403632 6.7681007 1.6529659 14
1.1367069 6.825089 1.7794244 14.333333
0.94797337 6.7988186 2.0497987 15
1.1139445 6.8241787 2.0574393 15
1.4975235 -0.58377308 -0.019677091 7
1.4086642 0.25822735 -0.037603427 6
1.4261903 0.57395637 -0.043262806 6
1.5305648 0.97915691 -0.05095543 6
1.4080908 1.3461885 -0.076970562 6
1.4278858 1.6823639 -0.094316803 6
1.4151379 -1.3973339 0.29980356 11.222222
1.5154672 -1.1364361 0.30775267 11.5
1.4168366 -1.3837543 0.50789708 14.1
1.5103297 -1.1391028 0.48160502 14
1.3977575 6.8296394 0.58256286 9.333333
1.4064362 6.8294749 0.93915087 10.833333
1.367942 6.8306828 1.4135503 12.5
1.3497342 6.8359466 1.744727 14.333333
1.3654252 6.8407731 2.0628839 15
1.678082 -0.84151101 -0.017691465 7
1.8055621 -0.6896013 -0.025154825 7
1.7217909 -0.1103229 -0.03581031 6
1.7093281 0.38354361 -0.041754592 6
1.7404519 0.6764493 -0.04963382 6
1.8036 0.99433362 -0.06366875 6
1.7808831 1.4575934 -0.093286052 6
1.9126555 1.889713 -0.11925507 6
1.7287061 2.1637959 -0.12493158 6
1.9858832 -1.3682278 0.28524813 10
1.7864604 -1.1418861 0.26557183 10.5
1.9866241 -1.366286 0.52022868 13
1.7400619 -1.1372113 0.58873826 14.75
1.8214419 6.8515449 0.56833082 9.25
1.7540838 6.850966 0.94470686 10.833333
1.7869982 6.8540568 1.3683865 12.333333
1.8309625 6.8610654 1.7752167 14.2
1.8341265 6.8645878 2.0763195 15
2.181633 -1.1686742 -0.032653175 7
2.371645 -0.67788655 -0.010574824 7
2.3614347 0.31914502 -0.063037209 6
2.1641815 0.63231707 -0.056414511 6
2.0859323 1.2735766 -0.09770716 6
2.2487044 1.7915016 -0.12536016 6
2.3496571 2.4274862 -0.15575176 6
2.3820527 3.2539055 -0.076500662 7
2.2809956 -1.2558705 0.23481865 9.375
2.2229378 -1.1410476 0.31100345 10.5
2.3823574 -0.55859458 0.081793502 7.5
2.084393 -1.2808305 0.54540789 13.25
2.2013178 -1.1391158 0.56472057 13.375
2.21615 6.8678226 0.61155415 9.5
2.1585743 6.868113 0.97517365 11
2.2343848 6.876698 1.3558443 12.333333
2.2266881 6.8736806 1.6807401 13.5
2.2283299 6.8794055 2.0889149 15
2.706408 -0.19398578 -0.063901052 6
2.5456648 1.063697 -0.10285698 6
2.450819 1.5444645 -0.12539847 6
2.7204993 2.2421641 -0.16270477 6
2.6655047 -0.95424646 0.28803968 10
2.461967 -0.58485162 0.2685726 9.8571424
2.6191323 -0.25911415 0.24459201 9.636364
2.7423241 3.0257583 0.20466575 8.5
2.6379194 3.7954764 0.31272817 8.75
2.5315104 4.4893527 0.39008743 9
2.5947845 -1.0302132 0.6435926 13.5
2.5461252 -0.61186004 0.47993103 12.333333
2.6308527 -0.30969882 0.49332327 12.333333
2.6273043 3.5249906 0.44101971 10
2.6062131 3.6309879 0.46438172 10
2.7937021 6.6165819 0.59910738 9
2.5391834 6.8793941 0.68834478 9.666667
2.588048 6.8913183 1.0824109 11.25
2.5755916 6.8847675 1.38867 12.5
2.5927682 6.8888001 1.7668397 13.666667
2.5937767 6.8950133 2.1032512 15
3.097816 1.5474391 -0.15781778 6
3.0123951 1.9611797 -0.16909011 6
2.8147454 3.0151799 -0.14210424 6
2.9704368 -1.2659407 0.20320387 8.75
2.9743659 -1.1335443 0.24968085 9.1999998
2.9490552 -0.11741034 0.24540728 9
3.0403583 0.20928152 0.32148075 10
2.9333336 4.2143793 0.069383256 7
3.1387331 4.6398296 0.29816255 8.5
2.9688613 -1.2691755 0.54671699 11.75
2.9683056 -0.98318005 0.58950257 12.222222
2.8336093 -0.48547223 0.64680529 13.333333
2.9063809 -0.24224301 0.6666826 13.5
2.8551109 2.6798031 0.48926485 11
2.8682582 6.6844831 0.71203232 10
3.0429823 6.8951087 0.5923233 9.25
2.9532039 -1.2666814 0.96740896 15
2.964663 -1.0315261 0.90224743 14.75
2.8778062 -0.2588608 0.81591558 15
2.9792767 6.9079843 1.0252382 11
2.9089203 6.906157 1.3058952 12
3.0749815 6.9205031 1.7982811 13.5
2.972703 6.9145694 2.122632 15
3.2840521 0.83272791 -0.1320609 6
3.4032605 2.8961303 -0.20867598 6
3.4185374 -0.10206489 0.25089401 9
3.308954 0.094984286 0.15853064 8
3.2371757 0.68009913 0.21661936 9
3.4267859 4.5218792 0.32190165 9
3.3592925 -0.92684543 0.69253606 12.333333
3.3662848 -0.10019238 0.4416942 11
3.4384975 6.5577335 0.39845538 9
3.38958 6.926157 0.63171166 9.333333
3.4340436 -0.87208903 0.94613749 14.25
3.4185851 6.9296265 1.0535742 11
3.2893286 6.9212389 1.3722469 12.333333
3.4118044 6.9316554 1.7593797 13.333333
3.3686292 6.9300947 2.1421125 15
3.9749398 1.5157961 -0.10928227 6
3.9601965 2.0504701 -0.10399631 6
3.8290732 2.568902 -0.22238256 6
3.6281843 -0.10169248 0.21400878 9
3.9909632 1.5346189 0.035665188 7
3.9663253 2.0726848 0.048943553 7
3.9324083 6.9473619 0.67642915 10
3.6899292 -0.8624385 1.0391353 14.5
3.8014264 6.9518743 0.98879778 10.5
3.769958 6.9484291 1.3826835 12
3.7919781 6.9554706 1.8324965 13.5
3.7880197 6.1291981 2.1696019 15
3.7655683 6.9147706 2.1585007 15
4.1047792 0.140881 -0.11313479 6
4.0576329 0.59010667 -0.084389001 6
4.0100274 1.0444561 -0.075928681 6
4.0947256 3.590764 -0.10990281 6
4.2148986 4.7810483 -0.11240942 6.5
4.1995368 -0.040297024 0.17670994 8
4.1984687 0.24815485 0.17534573 8.125
4.1661854 0.66627508 0.20650649 8.5
4.1265516 1.0716146 0.20671888 8.25
4.1609063 1.408258 0.22750022 8.1428576
4.1416917 1.8380297 0.23727328 8.333333
4.0980306 2.2232006 0.22579806 8.5
4.1114388 2.4254668 0.15444013 8
4.1149611 3.6704667 0.15998848 7.5
4.2793436 5.002398 0.36771426 9
4.2776923 6.9613109 0.35120258 8
4.2642708 -0.14943078 0.61013806 11
4.2396927 0.19124156 0.530662 10.333333
4.2291079 0.64365286 0.53169501 10.5
4.1927471 0.96512687 0.49691576 10.25
4.1971374 1.4621779 0.61046892 10.833333
4.1615553 1.7913699 0.6399433 10.8
4.1046839 2.2058101 0.58535993 10.333333
4.3229322 5.09655 0.50249684 9
4.2228336 6.9648552 0.69589156 9.333333
4.1778464 -0.84620219 0.97667217 13.666667
4.2579226 -0.74069309 1.04199 14
4.2817678 1.5535641 1.0007496 13.333333
4.1861558 1.8432248 1.0421691 13.375
4.1232252 2.2394152 1.0331554 13
4.125669 2.5151558 1.1113503 13
4.2145467 6.9691286 1.0226433 10.5
4.1773739 -0.84062225 1.2444577 15
4.2630091 -0.66710073 1.274107 15
4.384944 1.1016016 1.2937404 15
4.3552275 1.4364328 1.3490603 15
4.2644248 1.9270923 1.3629246 15
4.1261516 2.2147231 1.2845291 14.666667
4.1381059 2.4629147 1.3174846 14.5
4.3287883 5.3724594 1.4182961 13
4.2256422 6.9710693 1.4636377 12
4.1677728 6.9753084 1.8958193 13.666667
4.2380652 5.9197745 2.1585124 15
4.0135379 6.0286202 2.1652968 15
4.2155924 6.7782021 2.1528933 15
4.04357 6.8499498 2.1585755 15
4.5232215 3.111969 -0.10961617 6
4.6478224 3.1331484 0.15909712 7.5
4.7599525 3.3965573 0.2169667 8
4.6930141 3.762275 0.26542485 8.3999996
4.6708331 4.1884141 0.28008398 8.5
4.6342607 4.5822091 0.2992177 8.5
4.5990286 5.4312482 0.26401073 8
4.5699568 5.7955189 0.28274864 8
4.6236954 1.002843 0.68008542 11
4.666791 1.4384516 0.7693513 11.666667
4.6635275 2.9840236 0.59059095 9.8000002
4.7596703 3.4083326 0.57436758 9.5
4.7170415 3.75652 0.63920766 9.666667
4.6725221 4.1725593 0.72903264 10.333333
4.6273346 4.6351295 0.73501629 10
4.6331887 5.0123963 0.73023862 10
4.5986123 5.3933167 0.62353861 10
4.5884709 5.9145799 0.66016972 10
4.6565762 6.1089787 0.6337924 9
4.5588517 6.9604268 0.69200057 9.5
4.6837711 0.67160022 0.82993513 12
4.7873654 0.98269874 1.028744 12.75
4.710947 1.4108878 1.0400128 12.857142
4.7480431 3.0970373 0.96746564 11.8
4.7563443 3.38659 0.96375382 11.666667
4.7166796 3.8175969 1.0104585 11.6
4.6295056 4.2152281 1.0507827 11.6
4.6485538 4.5980072 1.0179557 11.25
4.6123199 5.0750308 0.91919273 11
4.5970612 5.4130187 0.89036721 10.5
4.581347 5.7652097 0.94508326 10.666667
4.6051469 6.9262724 0.99778622 10.333333
4.4572897 -0.49689996 1.3304771 15
4.4693389 -0.16317336 1.3609145 15
4.6080604 0.12973042 1.3899533 15
4.5141015 0.74093187 1.2531642 15
4.537766 0.98428398 1.2543064 14.666667
4.6641102 1.3802174 1.2525178 14
4.455771 1.7742981 1.3386315 14.666667
4.7594576 3.084727 1.4209436 14
4.7504206 3.3941171 1.3780241 13.5
4.7269855 3.8131814 1.4466808 13.5
4.6937809 4.138679 1.4248847 13.333333
4.6474643 4.6087279 1.3365945 12.666667
4.6298227 4.9993234 1.3310987 12.333333
4.6229634 5.4145799 1.4227425 12.5
4.6047583 5.7781663 1.4754226 12.5
4.5840788 6.9456677 1.4382582 11.666667
4.740849 3.3694878 1.6393538 15
4.726738 3.8133075 1.7313659 15
4.7086921 4.2120309 1.7439324 14.666667
4.6867843 4.5187869 1.8054872 14.666667
4.6591454 5.0037413 1.8411676 14.333333
4.6369448 5.3866291 1.8082418 14
4.6271968 5.731915 1.8718243 14
4.731586 6.188087 1.6470948 13
4.7053399 6.6076059 1.7100464 13
4.5091696 6.9694185 1.7535124 13
4.6538897 5.3970041 2.0759847 15
4.5430875 5.7770739 2.1531284 15
4.5716324 6.6405511 2.1432652 15
4.5857105 6.9888644 1.996959 14
4.8154678 0.23003793 0.77942485 11.5
4.8068361 0.48230073 0.81336176 12
4.8497348 -0.14751086 1.0316155 13
4.8319807 0.22413516 1.01185 12.857142
4.8115492 0.61307156 1.0412717 13
4.8022342 0.93648034 1.1358342 13.333333
4.8301892 0.25614804 1.2308055 14
4.8162417 0.78739953 1.2184992 14
4.8111811 0.99802053 1.2339985 14
4.7971215 1.2096348 1.2495786 14
