# .PCD v0.7 - Point Cloud Data file format
VERSION 0.7
FIELDS x y z intensity
SIZE 4 4 4 4
TYPE F F F F
COUNT 1 1 1 1
WIDTH 214
HEIGHT 1
VIEWPOINT 0 0 0 1 0 0 0
POINTS 214
DATA ascii
0.20842886 -0.96015841 -0.0079677608 162
0.23236369 -0.83083612 -0.0074377418 175.5
0.34027043 -0.83926493 -0.008276294 170
0.45252705 -0.83282173 -0.012773267 176.66667
0.55841696 -0.81884754 -0.011420415 176.5
0.25235775 -0.72962528 -0.011325717 185.25
0.34753409 -0.73821104 -0.013632785 187
0.44491848 -0.74187773 -0.010562798 185.66667
0.54267645 -0.74610305 -0.0092126951 179.66667
0.64465123 -0.7351585 -0.01220688 177.5
-0.11603263 -0.60011423 -0.005089459 180
0.27358267 -0.60781556 -0.0064487047 187
0.44140354 -0.69506663 -0.010789419 190
0.53142428 -0.68325871 -0.015186008 183.33333
0.63312966 -0.65572399 -0.014255198 183.66667
0.71372944 -0.64817387 -0.014383095 182.25
-0.58826602 -0.52409136 -0.0039939019 133
0.27097529 -0.51860261 -0.0094233183 182.14285
0.35763061 -0.53532422 -0.009451082 182.66667
0.43211785 -0.58265406 -0.0085621495 187
0.54639751 -0.55652082 -0.0099552199 186.88889
0.65684605 -0.537494 -0.0091881175 187.33333
0.77163708 -0.56491458 -0.020963475 188
-0.52354628 -0.49014249 -0.0092658829 148
-0.44324791 -0.44695202 -0.0093054548 168.75
-0.3858135 -0.41609755 -0.0095524425 180
0.061150372 -0.43526354 -0.014846303 181.10001
0.14925541 -0.45632541 -0.014154595 180.22223
0.24615575 -0.45780253 -0.014346105 178.81818
0.33971325 -0.45913261 -0.023713764 178.83333
0.45661205 -0.45223907 -0.021451706 179.30435
0.55469751 -0.42432413 -0.017149942 180.73334
0.6568538 -0.45886296 -0.013646054 186.33333
0.70776743 -0.4744575 -0.010872591 189.25
-0.33286056 -0.38813302 -0.012674887 181.25
-0.21282573 -0.32280731 -0.0080636768 186.33333
-0.18999264 -0.31087843 -0.010190536 187
0.076715462 -0.37189603 -0.011359097 178.66667
0.15234795 -0.34247929 -0.017308488 174.4762
0.25614816 -0.34931576 -0.030431207 172.07692
0.35054064 -0.34880069 -0.035316091 172.54762
0.44466972 -0.33822352 -0.029197933 174.16667
0.54950786 -0.34836894 -0.022961328 177.59091
0.62941599 -0.35383117 -0.02010984 180.69231
-0.11767115 -0.27269483 -0.014561929 181.71428
-0.038506392 -0.2310192 -0.020269722 177.53847
0.044677366 -0.23228952 -0.039355382 172.80769
0.14445066 -0.23153442 -0.037407625 165.64285
0.23613866 -0.22702581 -0.021115927 161.33333
0.35001484 -0.25944394 -0.039102752 168.43333
0.46064106 -0.26188466 -0.05245655 168.43182
0.53960305 -0.24527721 -0.040466875 171.19048
0.062127583 -0.18186133 -0.051655278 168.83333
0.16475804 -0.14974575 -0.028402815 163.76923
0.25398302 -0.1450561 -0.035359722 162.17172
0.34034264 -0.12618464 -0.042149376 158.23376
0.44574589 -0.13225572 -0.04284114 158.45714
0.51951373 -0.17841759 -0.066869721 161
0.26548186 -0.08119271 -0.058048643 160.78572
0.36783484 -0.044179421 -0.062479995 162.61092
0.41815618 -0.054717254 -0.050967172 163.90598
0.38296366 0.044652116 -0.05591847 160.95918
0.43106976 0.050909106 -0.045486573 161.34467
0.5278064 0.085564852 -0.050414551 155.3125
0.27998334 0.1726674 -0.048540018 152.78261
0.35295376 0.14189105 -0.047992922 154.3983
0.44792968 0.14299481 -0.051242858 153.89412
0.55161482 0.15041101 -0.048980821 147.89743
0.63847709 0.1648062 -0.019379344 147.67999
0.70745158 0.19199413 -0.0092905806 145.75
0.18934304 0.28681591 -0.04887094 154.5
0.25540262 0.25480685 -0.052994009 145.71428
0.34713992 0.25515285 -0.058484998 150.81818
0.44904637 0.24821386 -0.056007788 150.86842
0.54674673 0.24145637 -0.02684026 145.93182
0.65149748 0.25157413 -0.014477244 145.19231
0.73290473 0.24611324 -0.0013589069 152.89999
0.82993549 0.26550025 -0.0053109187 160.83333
0.15866876 0.34660718 -0.038003448 172.3
0.24894549 0.34141722 -0.033550244 162.44827
0.35434437 0.33681232 -0.028793763 148.94872
0.45728678 0.33960339 -0.026423804 147.54546
0.55080628 0.34917632 -0.026855774 151.18518
0.63968921 0.34370846 -0.010233441 159.05882
0.75370091 0.34140718 -0.0077549964 163.83333
0.86430764 0.35567519 -0.017822191 163.16667
0.93275368 0.32375926 -0.022022178 167
0.066151097 0.4444904 -0.026338104 171.5
0.15426208 0.4571538 -0.035363417 178.10527
0.24969542 0.46122962 -0.041579857 177.625
0.35895967 0.46658409 -0.035986502 173.22223
0.43472454 0.44151443 -0.034116946 167.9375
0.53707558 0.43852514 -0.022204906 166.47058
0.6504519 0.45152879 -0.0230365 168.33333
0.72875547 0.43086612 -0.017458234 164.75
0.84323543 0.45730907 -0.024732109 164.75
0.90865403 0.40480813 -0.022375431 164
-0.029271873 0.56855875 -0.014390566 151
0.057854004 0.5403778 -0.013035554 160.77777
0.14937027 0.55378348 -0.023793535 170.45454
0.25052568 0.55850863 -0.027365839 177.42857
0.35894123 0.55590212 -0.027902165 175.66667
0.46170455 0.55300617 -0.02994355 176.44444
0.54404324 0.54576808 -0.032959633 174.83333
0.63284045 0.53622121 -0.03914617 171.83333
0.74894375 0.55101597 -0.039115936 164.875
0.80711627 0.54447478 -0.028320113 162
-0.11407956 0.68388617 -0.015956631 143
-0.069548674 0.62161738 -0.011065665 145
0.030551998 0.64779443 -0.01934682 147
0.12748341 0.66356093 -0.02394793 158.39999
0.22743486 0.6464805 -0.025411837 167.16667
0.34200093 0.63038635 -0.025345977 171.33333
0.455681 0.67356408 -0.038336851 166.875
0.57692933 0.65516597 -0.042391319 166.33333
0.66266048 0.63351536 -0.048922949 165.39999
0.75411075 0.62104172 -0.043644868 162
-0.15509178 0.73777807 -0.012266546 140.25
-0.025923619 0.74863952 -0.018768059 140.2
0.079303823 0.78225273 -0.021721905 140.75
0.15020831 0.74493766 -0.022655921 146.75
0.24480698 0.73829573 -0.024978574 159.8
0.30610856 0.72286785 -0.034110144 172
0.43249533 0.73400712 -0.03365327 160.5
0.53581393 0.76335669 -0.04274486 156
0.64302456 0.74325222 -0.047782429 154
-0.23677841 0.84767324 -0.010976373 128.39999
-0.10556457 0.88972968 -0.015949536 129
-0.082866527 0.8528322 -0.022777434 132
0.0478043 0.86379033 -0.025488818 137
0.17807284 0.83615863 -0.022847988 140.75
0.2901153 0.84795761 -0.032236043 164.75
0.40293884 0.83104008 -0.035181586 151.75
0.50714213 0.81858861 -0.032118104 147.66667
-0.30297107 0.93649358 -0.0093781287 120
-0.14243397 0.95650309 -0.017296355 127.66666
-0.0040688971 0.99193972 -0.023625271 125
0.022465894 0.924555 -0.022158375 131
0.15254128 0.93990344 -0.026386173 133
0.27832603 0.9484151 -0.034313273 149
-0.22618464 -0.94219303 0.031967714 141
-0.19882382 -0.90132171 0.027650468 149
-0.067202657 -0.94071579 0.025813589 156.5
0.066779718 -0.96366942 0.014108824 159
0.33361679 -0.91273665 0.0002263964 164
-0.17120034 -0.86194497 0.019215643 158.33333
-0.012929645 -0.82866061 0.021244738 173
0.093225703 -0.87614208 0.021110715 167
0.10957483 -0.8347311 0.011412079 172.5
0.22161309 -0.87694114 -0.00011684268 169.66667
0.33602101 -0.86790586 0.00063059543 171
0.45081308 -0.85484999 -0.0013498651 172
-0.63874775 -0.72415239 0.017769821 115.5
-0.11801455 -0.77900559 0.01839011 170
-0.087925307 -0.73469841 0.012272046 176.5
0.034737382 -0.73046386 0.016883576 181
0.14243144 -0.73680264 0.0081539424 182.2
0.24247196 -0.76499331 -0.00014036649 180.5
0.34287563 -0.76721877 -0.003393898 179
0.44270557 -0.73948944 -0.003725009 185
0.53398758 -0.71434379 -0.0021705397 182
-0.762995 -0.61663175 0.0049922257 108
-0.55453259 -0.66523308 0.013096309 126.33334
-0.47367704 -0.60910064 0.0066031762 148.66667
-0.14965548 -0.63414907 0.012259056 176
-0.038156595 -0.65736896 0.010895183 183.33333
0.073893212 -0.64918178 0.014282388 186.75
0.17567852 -0.63430041 0.0085957432 187
0.26701778 -0.63026637 0.0016606698 188
0.34876877 -0.63064188 0.0025815768 188.33333
0.43232799 -0.6248436 0.0016610136 188.75
0.51235068 -0.61095905 -0.0015517146 188.5
-0.72631913 -0.59737748 0.002060743 113
-0.64714152 -0.55494726 0.00099283282 123
-0.41556206 -0.56756747 0.0074941297 160
-0.36426109 -0.53191644 0.0035756619 171
-0.13170183 -0.59535742 0.061204683 169
-0.057278041 -0.52496141 0.0088484241 186.83333
0.037585653 -0.55672616 0.013609268 187.25
0.13723674 -0.55646801 0.012870477 186.22223
0.2451181 -0.52537119 0.0080047613 184.54546
0.35451457 -0.53312337 0.0015514847 184.16667
0.4442741 -0.52900052 0.00086284522 185.28572
0.55674905 -0.57072341 -0.00087458023 188.33333
-0.54179591 -0.49827862 0.00090707059 141
-0.30149347 -0.48624757 0.0083398046 180
-0.25452438 -0.45257506 0.0095753092 180
-0.18634142 -0.4006612 0.025492953 170
-0.020661743 -0.48245767 0.0052935472 186.5
0.046414532 -0.45765948 0.0089909444 183.83333
0.16157521 -0.46938896 0.0047139176 181.71428
0.44419104 -0.49167749 -0.00074893393 183.33333
0.56210804 -0.46111268 -0.00055674824 185.25
0.60736948 -0.44255075 -0.0026189287 185
-0.25580865 -0.34437639 0.0012888183 185
-0.094001628 -0.32491884 0.072354861 161
0.088831589 -0.35385466 -0.0013172532 178.5
0.15062183 -0.38316032 0.0013308813 178
0.20403621 -0.38343883 -0.0019392801 176.5
0.65416801 -0.39863977 -0.0023168027 185
-0.1499718 -0.28755414 0.00065618218 185.33333
0.066971406 -0.23274198 0.054932289 159.66667
0.16500805 -0.24321347 0.053790383 153
0.21768743 -0.2436669 0.037764911 128
0.17492004 -0.17509791 0.08636269 126.25
0.24973781 -0.16917422 0.07361117 127.78378
0.34964409 -0.15044273 0.037989914 124.18
0.43771765 -0.15700172 0.0034207208 122
0.74752533 0.21824391 0.0046964562 152.66667
0.01985522 -0.38144979 0.15378143 166
0.085493498 -0.23299205 0.12164354 156.14285
0.10739047 -0.21755603 0.13970821 143.39999
0.14704667 -0.18491374 0.12972532 128.31818
0.20326285 -0.18103398 0.10019242 122
