# .PCD v0.7 - Point Cloud Data file format
VERSION 0.7
FIELDS x y z intensity
SIZE 4 4 4 4
TYPE F F F F
COUNT 1 1 1 1
WIDTH 104
HEIGHT 1
VIEWPOINT 0 0 0 1 0 0 0
POINTS 104
DATA ascii
-3.0087533 -0.70931667 0.34911889 10
-3.0433855 1.5721945 0.26018795 9
-3.0335698 2.2448566 0.2477912 9
-3.01473 -0.67819339 0.54826105 12
-3.0373816 3.5146968 0.45257333 10.5
-3.0063608 1.7196156 0.67109567 13
-3.0246291 2.7010322 0.65675426 12
-3.0024755 2.2479806 0.85317087 14
-3.0306275 2.7625947 0.77354074 13
-3.030318 3.502038 0.83624488 12.5
-2.9919295 3.5401714 0.19079971 9
-2.9956524 -0.94708604 0.58338588 12
-2.9587159 -0.70261467 0.60106194 13
-2.8205526 -1.1093185 0.93582147 15
-2.8766873 -0.68113732 0.81629932 15
-3.0003488 1.7374045 0.78345418 14
-2.999382 1.9434232 0.92288625 15
-2.976799 3.5539587 1.0485351 14
-2.9957466 3.5114775 1.3095895 15
-2.7347326 -0.73143148 0.43930146 11
-2.6735003 -1.3435346 0.8668834 15
-2.2321208 -1.1086339 0.50308746 12.5
-2.3330734 -2.8970354 0.90372998 13
-2.1799171 3.542192 0.27226752 9
-2.1038678 3.5433569 0.5889774 12
-2.0538042 3.5578196 1.0226228 15
-1.8174151 -2.0333428 0.21603215 9
-1.9705855 -1.3312275 0.34434202 10.5
-1.9751318 -1.155764 0.3535406 11.5
-1.8024646 -1.7171724 0.44901714 12
-1.8005471 -1.4082197 0.45512766 12
-1.966598 -1.1682626 0.54676193 13
-1.8608279 3.5473166 0.84864849 14
-1.7391826 -2.8858833 0.2283169 9
-1.7815291 -1.5217599 0.37529734 11
-1.7945035 -1.5253159 0.52972525 13
-1.757831 3.5498483 0.83380902 13
-1.0308994 3.5352275 0.37387192 10
-1.1348567 3.5392721 0.65170723 13
-0.95307809 -2.9036827 0.86360508 14
-0.96981776 3.5467873 0.91577268 15
0.39111519 3.5369997 0.46927378 11
0.21091779 -2.9138646 0.81813699 14
0.34913749 3.5393157 0.615255 13
0.37817937 3.5452857 0.89426553 15
0.45415848 3.5637276 0.79158604 14
0.75083327 -2.8836303 0.33161142 9.5
0.79386318 -2.8803527 0.52792919 12
0.74689013 -2.8729062 0.71262372 13
0.8298493 -2.883821 0.43309268 11
0.80890769 -2.8740063 0.82306206 14
0.95732796 6.4779201 0.53032845 10
0.81292599 -2.8668823 0.95142919 15
1.1929519 6.4420471 0.39281806 9
1.3545123 -1.7103941 0.31041786 11
1.3970342 -3.5421288 0.4739722 10
1.7765425 -3.5478442 0.51654375 10.5
1.6683962 6.4826021 0.97291446 12
1.8998864 -3.1921632 0.13536805 8
1.9739192 -3.1973386 0.33585083 9
1.860503 6.5009742 1.6863464 15
2.1714406 -1.4399327 0.32153234 10
2.1760287 -3.5106945 0.49308866 10
2.0154662 -1.4481007 0.47149998 12
2.2321062 -3.5001976 1.005735 13
2.4903181 6.4666862 0.44649228 9
2.5173984 6.477354 0.97725302 12
2.4645123 6.5003786 1.7434657 15
2.8784609 -1.3523852 0.60062569 12
2.8244426 6.4873571 1.2767222 13
2.819499 6.4897418 1.6408103 14
3.0351038 -3.4268689 1.1175319 13
3.551137 -3.4877417 1.223853 14
3.4086981 5.6996493 1.5437285 14
3.9658182 5.3298011 1.674082 15
4.0680137 4.5220251 1.522032 14
4.6943302 -1.1960441 0.033141889 7
4.7679443 0.23889413 0.056598339 7
4.7859149 0.41866928 0.17729214 8
4.9646177 -1.8204948 0.79212457 11
5.1270013 0.16986413 0.30283746 9
5.0728979 0.57935697 0.3482717 9
5.1330214 0.18968813 0.4646515 10
5.1230464 3.7604291 0.4186267 9
5.1552563 -0.3909187 0.62005353 10
5.1330228 0.27558899 0.61907625 11
5.1330285 0.39224446 0.85701847 12
5.1409655 0.72181529 1.0270334 13
5.178369 -1.0588764 1.2500767 14
5.1989951 0.75797606 1.275923 14
5.1541066 0.49489301 1.5317638 15
5.3872337 3.0230694 0.33598271 9
5.2033048 -0.74782348 0.65127409 11
5.2196107 -1.7198696 0.92085356 12
5.237237 -0.31015444 0.97493827 12
5.2405272 -1.3258939 1.0702405 13
5.2411561 0.076450005 1.1276035 13
5.2394381 -0.9119243 1.2206479 13
5.2381711 0.09333095 1.2489175 14
5.2360177 -2.8819194 1.5089346 14
5.2519941 -2.7132118 1.6496168 15
5.2388353 -2.1661751 1.5873337 15
5.225481 -0.94549561 1.433352 15
11.686602 2.8331065 2.3499355 13
