# .PCD v0.7 - Point Cloud Data file format
VERSION 0.7
FIELDS x y z intensity
SIZE 4 4 4 4
TYPE F F F F
COUNT 1 1 1 1
WIDTH 141
HEIGHT 1
VIEWPOINT 0 0 0 1 0 0 0
POINTS 141
DATA ascii
-4.1259432 4.0813818 1.522469 15
-3.6493921 4.4013429 1.0606093 13
-3.6881623 4.1629033 1.3055942 14
-3.481936 2.7335963 0.25960723 9
-3.3910809 -0.80470836 0.65566909 11
-3.4330671 2.809607 0.5929243 11
-3.4854329 3.0109875 0.48002255 10
-3.3972454 2.62199 0.7215386 12
-3.5079968 3.2507491 0.76608425 12
-3.4559562 4.5865064 1.5465002 15
-3.2213583 -1.3193431 0.3047981 8
-3.3520241 2.2920101 0.45727712 10
-3.2764707 1.9801091 0.67759186 12
-3.1888478 -1.1311864 0.32180095 9
-2.823281 3.7908933 0.34083858 9
-2.3954279 -3.2428472 1.2357471 14
-2.3871756 3.9672461 0.94732279 13
-2.4598463 4.6656847 1.1633197 14
-2.2319343 3.9237907 0.37779835 10
-2.2252743 4.0246763 0.73856938 12
-2.2443001 4.6945353 1.3140134 15
-2.142462 -2.7724204 0.63913953 10.5
-1.9679681 -2.7389271 0.29796261 8
-1.9278532 -2.7438931 0.40278211 9
-1.8830514 4.1867566 0.40283582 10
-1.8923103 4.258328 0.52966189 11
-1.7961304 5.2528772 0.94148153 13
-1.8533868 5.2442207 1.3058974 14
-1.6126537 5.2874112 0.48115036 10
-1.5926353 5.2992334 1.3952233 15
-1.4722564 -3.0437679 0.28054851 8
-1.4426093 -3.053185 0.42044091 9.5
-1.4089391 -0.51652193 0.39459613 13
-1.4307222 -3.0486472 0.70411122 11.5
-1.5292709 -2.668206 0.55203617 11
-1.4126934 5.3357344 0.54459804 11
-1.4494686 -3.0470579 1.0175539 14
-1.5164485 5.3041954 0.82511383 12
-1.3059945 -0.77022851 0.42475721 13.5
-1.3718491 -0.46163288 0.39715019 14
-1.2306684 -0.7820074 0.50235528 15
-1.289656 -0.50815976 0.47009251 15
-1.3526351 5.3465328 0.30879638 9
-1.3081127 -3.0370688 0.82446122 13
-1.3444824 5.3442225 1.0583655 13
-1.0838785 -0.99489796 0.35747108 13
-1.0616038 -2.9824898 0.63505286 11
-1.014393 -1.6694334 0.67673248 15
-1.1211259 5.0995069 0.45771202 10
-1.0312687 5.1987233 0.82391393 12
-1.086395 5.1301994 1.1249563 14
-1.0137539 5.1291327 1.3486238 15
-0.91753387 -2.9503949 0.95681107 14.5
-0.83787876 5.4835095 0.63150132 11
-0.84933114 5.4806633 1.056301 13
-0.64003521 -2.902492 0.61431277 12
-0.49827838 -2.8052018 0.23182261 8
-0.2818087 5.5811157 1.1333827 14
0.20551585 -2.5996122 0.2485297 9
0.10557881 -1.9429539 0.354359 11
0.37544733 -1.2681897 0.020356406 7
0.34267142 1.1523254 -0.049436305 7
0.65126145 -2.6273804 0.2671333 9
0.69286495 -2.6228542 0.35464123 10
0.72705919 -2.6075397 0.56376618 12
0.78074902 -2.5300212 0.65409458 13
0.80418652 -2.5300131 0.73623425 14.5
0.76778865 5.7957363 1.1044869 14
0.81881428 -2.2938597 0.31757125 10
1.1623573 -2.447794 0.58452368 12.5
1.1903768 5.8759646 1.3889598 15
1.3420223 -2.4064825 0.79054826 15
1.5414298 5.934732 0.4719103 10
1.445085 5.9207869 0.93542737 13
1.4561563 5.9304605 1.1407415 14
2.3982496 6.1098146 0.21644361 9
2.5570495 5.8522968 0.44392908 10
2.5326533 6.0350938 0.66798496 11
2.4992764 6.1114058 0.99422055 12.5
2.5801358 6.0769477 1.4281688 14
2.5265887 6.1405129 1.5797219 15
2.7437181 4.821712 0.25964895 10
2.7667916 4.7298698 0.43089887 11
2.7054932 5.2701063 0.99760473 13
2.7986495 4.9173183 1.2380283 15
2.868715 4.1457853 0.15546091 9
3.0006466 3.519068 0.25202957 10
2.9372694 3.8930957 0.37598351 11
3.0163434 3.5526021 0.61385 12
2.9877458 3.7933271 0.86503077 13.5
2.8543193 4.4571629 0.88711715 13
3.0134027 3.7580099 1.0560583 15
3.1243377 2.8067462 0.10362878 9
3.1551468 2.7499137 0.29970726 10
3.0490229 3.193084 0.33139011 11
3.1668634 2.7432575 0.42530364 11
3.1379685 2.9583135 0.56487781 12
3.1641841 2.8356674 0.673181 13
3.0909879 3.3888149 0.80357879 13
3.1832926 2.8921022 1.0488911 15
3.3748276 -3.3182905 0.10994846 8
3.4007459 -3.167563 0.3438535 9
3.2717566 -0.8561005 0.8900708 15
3.2914066 2.7555976 0.91564399 14
3.7614491 2.6815026 0.16553792 9
3.7547905 2.5955207 0.24478953 10
3.7118509 -0.76358294 0.64996314 13
3.7684178 2.6897562 0.4351103 11
3.7824292 2.8469672 0.72313052 12.5
3.9100838 2.8690202 1.0987396 15
5.9244976 3.1096532 -0.23660606 7
5.8711963 3.8382599 -0.21139629 7
5.9562354 3.0104442 0.092398815 9
5.9686866 3.0300648 0.3105638 10
5.9360023 0.38097864 0.55576354 11
5.9972773 3.0550027 0.7023989 11
6.0328145 2.9877629 1.0922359 13
5.9788256 3.2520034 0.9244715 12
6.1345181 2.7672887 0.031367134 8
6.2275629 2.7871172 0.97910094 12
6.0569515 3.0383747 1.2996312 14
6.0684495 3.0167196 1.5193444 15
6.2569828 1.9243042 -0.32787877 7
6.3461652 1.9334221 0.79376131 12
6.3707952 -10.898813 1.5793554 10
6.2938838 2.3015709 1.0223112 13
6.4269176 1.8202085 1.3932242 14
6.3338575 2.5484574 1.4948809 14
6.5998988 0.51694065 0.30569518 9
6.4805613 1.158429 0.56743956 11
6.5430403 1.1189859 1.0903643 13
6.5749774 1.3287181 1.5278921 14
6.6215615 1.1548151 1.6483148 15
6.4870372 1.8630853 1.6671733 15
6.7037096 0.28856236 1.008165 12
7.0707703 -3.3478694 1.204003 12
7.1065912 -3.4387164 1.4341977 13
7.1508837 -3.3960278 1.781893 14
7.9989562 -5.8485246 1.3631001 11
7.8703961 -5.2331929 1.4481984 12
7.8574772 -5.0785842 1.7558708 13
