# .PCD v0.7 - Point Cloud Data file format
VERSION 0.7
FIELDS x y z intensity
SIZE 4 4 4 4
TYPE F F F F
COUNT 1 1 1 1
WIDTH 625
HEIGHT 1
VIEWPOINT 0 0 0 1 0 0 0
POINTS 625
DATA ascii
-4.2249637 -3.6156754 0.88045675 10.25
-4.1551304 -3.6638813 1.068332 11
-4.1009393 -3.6167555 1.683181 14
-4.1328578 -3.4814787 1.68656 14
-4.0349483 3.1640563 1.3930421 14.5
-4.0815554 3.4557536 1.4665965 14.666667
-4.1811762 3.7916286 1.3233241 13.666667
-4.0531678 4.0994997 1.3953466 14
-4.1209726 3.8004794 1.6395665 15
-3.967345 4.109148 1.6757584 15
-3.6390529 -3.7830012 0.38634047 8
-3.6829708 3.8916163 0.29648289 9
-3.7259834 4.0467453 0.29685336 9
-3.9154572 -3.9105253 0.71502626 9
-3.657974 3.863749 0.59207803 10.5
-3.6803863 4.07236 0.62097341 10
-3.8400638 2.7633593 1.1743333 14
-3.6973677 2.9927118 1.1283183 14
-3.6212981 3.3254375 1.0960516 13
-3.6244431 3.8153684 0.88869333 12.333333
-3.6767955 4.1081729 0.88913411 12
-3.5751042 4.5188394 1.0693809 13
-3.7242994 4.2390933 1.4176135 14.428572
-3.5905604 4.481029 1.291031 13.5
-3.2618167 -1.7312748 0.32327113 8
-3.2398741 -1.4081411 0.33827749 8.8000002
-3.2919192 -0.98463112 0.4244591 9.333333
-3.2691429 1.8351949 0.34153929 9
-3.3306909 2.1749806 0.34544116 9.5
-3.4032853 2.5445204 0.34792563 9.25
-3.5068033 2.9886725 0.27318799 9
-3.5722046 3.4315238 0.2807982 9
-3.2842588 3.7340491 0.31450605 9
-3.318758 -0.89617163 0.68281204 11.5
-3.3633482 -0.73984003 0.74355859 12
-3.2827659 1.9573309 0.57745194 11
-3.3218017 2.2108612 0.62219435 11.5
-3.4027183 2.6190133 0.60219222 11
-3.4913366 3.0526602 0.60428572 11
-3.5477576 3.4393041 0.58604234 10.5
-3.4052351 3.718878 0.55394685 10.4
-3.2910569 -0.96516985 0.95938843 14
-3.3154702 2.2531595 0.95767516 13.75
-3.3654008 2.5756652 0.8962217 13.333333
-3.4576857 3.0469456 0.86026686 12.5
-3.522433 3.5085275 0.89847916 12.666667
-3.1934226 3.7424374 0.78141123 12
-3.332305 4.5406928 1.0590357 13
-3.3706686 4.5290232 1.3992432 14.2
-2.9169049 -3.310302 0.46581918 8.5
-3.081382 -2.2519317 0.362975 8.333333
-3.118335 -1.9143945 0.35420358 9
-3.1866243 1.5735927 0.33222684 9
-3.1937535 1.6589828 0.26036081 9
-3.0432596 3.7804918 0.32788575 9
-2.9380064 -3.2795305 0.77742189 10.8
-2.9995499 3.7836154 0.60023999 11
-2.8361757 -3.288142 1.3409883 14
-3.0500994 -2.4688647 1.3588901 15
-3.0305271 4.5760841 1.0470905 13
-2.9649775 4.5868526 1.4214873 14.5
-2.5614896 3.0214901 0.32909775 10
-2.5887153 3.8644609 0.22969961 9
-2.5973458 3.3302939 0.51531547 11
-2.5801387 3.8542652 0.55565441 11
-2.6017723 -3.2867651 1.2863163 14
-2.4315848 4.0630908 0.76499498 12
-2.4018409 4.634347 0.89187688 12.5
-2.3815086 5.1306715 0.8018375 12
-2.5382094 4.6543493 1.3171616 14.5
-2.0670207 -2.7627876 0.40479231 9
-2.045414 -1.0212909 0.35353997 10
-2.2330689 3.9296956 0.2548376 9
-2.06915 4.1340103 0.26681554 9
-2.1362071 5.196454 0.26702648 9
-2.0843608 -2.7520657 0.73478115 11.5
-2.0356698 -1.4313285 0.61998874 12.8
-2.0856476 -0.64666116 0.60889012 13.5
-2.2734249 3.0996561 0.50759953 11
-2.3576329 3.4217591 0.49088416 10.666667
-2.2187381 3.9319663 0.53163368 11
-2.0784869 4.125988 0.48679468 10.666667
-2.0038905 5.0778804 0.41102591 10
-2.1663456 -3.1986825 1.1815978 14
-2.2867491 3.9941795 0.88413721 13
-2.2073255 4.1647148 0.8382684 13
-2.249881 4.624433 0.85441458 12.333333
-2.1258404 5.0765319 0.88406587 12.5
-2.2516601 4.7397289 1.3019991 14.5
-2.1888216 5.1822443 1.3764478 14.5
-1.79001 -2.8309159 0.39534321 9
-1.8098687 -2.7290547 0.39713857 9
-1.7893778 -1.3487037 0.40421665 10.833333
-1.7475756 -1.1011828 0.41125327 11.666667
-1.9439238 -0.57583606 0.47064459 12
-1.8987515 4.1632662 0.27781302 9
-1.9598711 4.5359793 0.27508166 9
-1.8195926 -2.8192441 0.71447939 12
-1.7750819 -2.702004 0.68726188 11.6
-1.9275796 -1.6214796 0.59936267 12.5
-1.9228853 -1.4341503 0.70195782 14
-1.9528608 4.1457987 0.44409752 10.5
-1.9431733 4.5118332 0.48455691 10.666667
-1.7711021 5.1350689 0.47944221 10.166667
-1.7573814 5.26615 0.44848543 10
-1.7464477 -3.1133244 1.0902432 14
-1.7848065 5.1075387 0.89853382 12.5
-1.8487998 5.2474055 0.81807566 12
-1.7752175 5.0962286 1.3006462 14.571428
-1.5971465 5.298841 1.1749401 13.5
-1.3877369 -2.9535723 0.37433949 9
-1.5433309 -2.689784 0.38663134 9
-1.5152398 -1.2840626 0.41899651 12
-1.3626238 -1.0053582 0.38147518 12.166667
-1.3389961 -0.60187018 0.41642928 13.666667
-1.3924044 -2.9664412 0.6847862 11.75
-1.5023659 -2.6991785 0.69503456 12
-1.2407069 -1.648043 0.70330977 15
-1.4387739 -1.3405164 0.59150147 14
-1.2516196 -0.61152756 0.47488612 15
-1.4229569 5.3299088 0.47151533 10.2
-1.3549761 -2.9239588 0.99909449 14.333333
-1.5497172 5.1896052 0.81638008 12
-1.3791834 5.3384967 0.88709259 12.5
-1.4403155 5.1482749 1.1667389 14
-1.3254582 5.325532 1.2641851 14.2
-1.0113623 -2.9562118 0.36863241 9.1111107
-1.0098345 -1.3027335 0.38573712 12.5
-1.0438803 -1.0421054 0.4041431 13.5
-1.0236683 -2.9316278 0.72979331 12.363636
-1.1171708 -2.7135797 0.9215501 15
-1.1178946 -1.6293769 0.68670344 15
-1.1251895 5.1316881 0.50641149 10.5
-0.9588505 5.4162979 0.50558215 10.4
-1.0100214 -2.90767 0.95865047 14.666667
-1.1323158 -2.7245414 0.95068699 15
-1.0973452 5.1246943 0.86451966 12.5
-0.91465253 5.4540505 0.89407647 12.5
-1.065686 5.156239 1.2671156 14.5
-0.92140049 5.4636283 1.2495925 14.166667
-0.51962024 5.5395284 -0.23067811 7
-0.57278055 -2.8812399 0.37567082 9.5
-0.57421899 -2.6011393 0.25773138 8.666667
-0.45564565 0.25584483 0.035378408 9
-0.44892091 0.6724183 0.022455201 8
-0.49487689 0.9808411 0.018443651 8
-0.55841047 1.3503351 0.010668278 8
-0.49858803 1.7706119 -0.0077825282 8
-0.56859577 2.1238685 -0.0158634 8
-0.56294554 -2.8815253 0.7288543 12.777778
-0.57583481 5.5302987 0.50790823 10.5
-0.60904086 -2.8908648 0.93516833 15
-0.60812485 5.5197563 0.84402418 12.166667
-0.58322906 5.5287662 1.2089734 14
-0.45144948 5.5483251 1.4187524 15
-0.21120958 -2.8109188 0.34633374 9.2857141
-0.050163914 -2.7786238 0.34331894 9.5
-0.24384975 0.61146986 0.0084804669 8.1999998
-0.17943239 1.0112298 -0.0058961925 8
-0.25272018 1.3449849 -0.010064212 8
-0.23627147 1.650596 -0.025757488 7.5
-0.27836424 2.1933255 -0.047575314 7
-0.15256862 2.5543756 -0.073025569 7
-0.10977221 2.9728012 -0.093173318 7
-0.22892524 3.6856267 -0.11080105 7
-0.20256743 -2.8069468 0.70237356 13
-0.01240484 -2.7672453 0.73649412 13.5
-0.21663977 5.598268 0.4740195 10.5
-0.048063066 5.6294751 0.46992505 10.5
-0.19248623 5.6001701 0.91034281 12.5
-0.015574369 5.6446295 0.96824563 13
-0.19986084 5.6047583 1.2512962 14.142858
0.019744257 5.6519866 1.2830889 14
-0.16430007 5.6075406 1.4280858 15
0.37507892 -1.4404423 0.021195481 7
0.3791016 -1.0179607 0.0073317108 7
0.38261321 -0.58333439 -0.0050406405 6.3333335
0.38831696 -0.35496569 -0.027321402 5.5
0.36141083 0.36398566 -0.04263939 6
0.34667987 0.58292896 -0.051028781 6.1999998
0.35452747 0.9244777 -0.05520314 6.6666665
0.34134066 1.215445 -0.055269852 7
0.29054609 2.6028967 -0.10169602 7
0.19039407 5.7046585 -0.25602588 7
0.26623437 -2.6323812 0.34410715 9.8000002
0.21983367 -2.2083516 0.26266921 9.75
0.10894372 -1.9400623 0.37935436 11.5
0.05830976 0.53586394 -0.0072553516 8
0.33211693 1.4131947 -0.054362539 7
0.24509735 1.7567878 -0.061642539 7
0.16009265 2.222209 -0.078419492 7
0.27640849 2.9737694 -0.11194752 7
0.25849476 3.4362688 -0.12364326 7
0.15247321 5.6938996 -0.10991874 8
0.22785474 -2.7182319 0.71406716 13.5
0.11408614 -1.981835 0.54057097 14
0.22743435 5.6827254 0.47006071 10.5
0.21599892 5.6802769 0.81975895 12
0.22779989 5.6870332 1.243263 14.142858
0.060255911 5.6480336 1.435172 15
0.25409886 5.688961 1.4439559 15
0.54221606 -1.2801477 0.0099396156 7
0.59571624 -0.82152271 -0.00564447 6.5
0.56990743 -0.60005784 -0.015027077 6.3333335
0.56572455 -0.20006378 -0.056126088 4.7272725
0.63025522 -2.6076765 0.32366353 9.666667
0.76844633 -2.2603445 0.25513491 9
0.56138927 -1.3537971 0.11310717 8.6000004
0.63981026 -2.6153138 0.6709584 13.3
0.58278924 5.7534904 0.4388234 10.25
0.60918587 5.7580304 0.78423679 12
0.59954184 5.7606311 1.2720228 14.25
0.63159412 5.7627721 1.4383014 15
0.8985787 -1.2906375 -0.014696443 6
0.98150265 -0.15224749 -0.068023451 6
1.0540365 -2.4791443 0.37500337 10.666667
0.97184843 -2.2141278 0.29003888 9.6000004
0.89187229 -1.3239316 0.063652344 7.5
1.0133042 -2.4836421 0.67760187 13.5
1.0152811 -2.3198628 0.4817726 12
0.97618085 5.8309121 0.42660454 10.333333
1.0114416 5.8375607 0.78272218 12.111111
1.0432454 5.8469605 1.1362296 13.6
1.0355802 5.8416667 1.4488611 15
1.3506591 -0.22084083 -0.11341783 5
1.2738101 -2.4039271 0.39518791 11
1.2893871 -2.434593 0.66708434 13.4
1.3984447 5.9095759 0.45081142 10.4
1.3409746 -2.4211094 0.85660851 15
1.4105306 5.916801 0.76065767 12
1.4475806 5.9273367 1.2059917 13.75
1.4373665 5.9237523 1.4780805 15
1.829428 5.999589 0.38305151 9.666667
2.0043812 6.0326495 0.46351454 10
1.809159 5.9958401 0.77189034 11.5
1.9881009 6.0379171 0.55580878 11
1.8509419 6.0077767 1.154803 13.4
1.8530107 6.0077353 1.5022814 15
2.1816113 -0.17486061 -0.15430331 6
2.2026172 6.0721211 0.32056305 9.5
2.2262509 6.077559 0.71533942 11.333333
2.0423946 6.0315614 0.93720186 12
2.208194 6.0743675 1.0746529 12.833333
2.103698 6.0557041 1.4203728 15
2.2989535 6.0900712 1.5164108 14.666667
2.776628 4.6598411 0.28979558 9.666667
2.7127931 5.0181475 0.32491243 9.833333
2.6275365 5.4448404 0.3658762 10
2.5364428 5.8780499 0.24323989 9.333333
2.4982195 6.1027536 0.45084313 10
2.7948191 4.716711 0.72752619 12
2.7358248 5.0585518 0.73177767 12
2.6613348 5.4371409 0.74349439 11.75
2.5867324 5.8083482 0.74856406 11.666667
2.4863069 6.1048117 0.52165157 11
2.8107817 4.7747149 1.0729648 14
2.7563136 5.0782242 1.069523 13.666667
2.683779 5.4404459 1.1346809 13.5
2.6020088 5.8756008 1.072217 13
2.4809124 6.1299624 1.2021625 13.5
2.8072915 4.95611 1.3781116 15
2.7104418 5.4345827 1.4133507 14.666667
2.6398053 5.842957 1.483537 14.666667
3.1781242 2.7300236 0.095532313 9
3.0961978 3.0059216 0.11080875 9
3.0045097 3.4379206 0.12881812 9
2.9401026 3.7869849 0.14174899 9
2.8587177 4.2049966 0.15575755 9
3.1746173 2.7582891 0.40559918 11
3.114795 3.0085018 0.43532145 11
3.0373895 3.4149716 0.41351712 10.857142
2.9545994 3.7903459 0.38001099 10.6
2.871377 4.2209754 0.3724781 10.5
2.820631 4.466774 0.32851499 10
3.1702678 2.7802281 0.79430503 13.5
3.1331475 3.048821 0.79529619 13.5
3.0591853 3.40113 0.74306285 13
2.9928629 3.7815444 0.78851593 13
2.9078965 4.2173805 0.76178455 12.5
2.841907 4.5225835 0.75497836 12.5
3.1958048 2.7810941 1.0320793 15
3.1486113 3.0849769 1.0773166 15
3.0839272 3.4395673 1.1316384 15
3.0114784 3.8371427 1.1941019 15
2.9275494 4.2183948 1.1248298 14.666667
2.8588364 4.5860572 1.2036394 14.666667
3.5260315 -2.9433217 -0.020355901 7
3.3436542 -3.2877007 0.16169438 7.75
3.446023 -3.0696681 0.12706545 7.875
3.5420778 -2.2141807 0.16036926 8.333333
3.4752364 2.7894056 0.061161101 9
3.2901649 -3.2914135 0.51182246 10
3.4456911 2.7819142 0.42385226 11
3.4768 -3.4174714 0.84668583 12
3.3790169 -0.82562977 0.87475789 14.666667
3.4359353 2.7864711 0.80170566 13.333333
3.3982947 2.7749274 1.0456501 15
3.7902977 -6.7194123 -0.10390664 6
3.6041431 -2.8724887 -0.017662544 7
3.9383783 -0.77940464 -0.15539055 7
3.7985461 -7.1901999 0.39458522 8
3.8463111 -7.107584 0.19987611 7
3.8310902 -6.7080436 0.31151757 7.5
3.9329925 -5.1623616 0.34219041 8
3.7949886 -2.9646063 0.25205237 8.5
3.7033041 -2.6626718 0.22343874 8.666667
3.7209017 -2.0489788 0.23279147 8.666667
3.6534266 -1.9287869 0.059903558 8
3.9065714 -0.78416711 0.081484623 8
3.7149823 2.5921049 0.11649226 8.666667
3.8072181 2.8501227 0.021856114 8
3.6591997 -6.9443264 0.58823156 9
3.7054882 -2.3890576 0.43299091 10
3.7705686 -0.78233534 0.64788461 12
3.6876678 -0.73536092 0.54262877 12
3.6819072 2.7113838 0.33734262 10.5
3.8754733 -0.71797138 0.84912926 13.666667
3.8301251 2.8689754 0.81930387 13
3.677228 2.8175709 1.0731485 15
3.8267322 2.8575149 1.1895865 15
3.933809 -6.8229761 2.5000584 15
4.4051042 -8.8795595 0.13198575 7
4.0737948 -7.1374922 0.060593072 7
4.0428996 -6.6276908 -0.10409869 6
4.3148956 -5.0096607 -0.055753108 6.5
4.405488 -7.1185231 0.38372332 8
4.0167928 -6.5426302 0.23119839 7
4.3317819 -6.1354218 0.3789086 8
4.2331061 -5.066576 0.25710228 8
4.4022017 -4.764503 0.37661558 9
4.1744747 -3.275964 0.35696679 9
4.2334094 -2.0715456 0.32131538 9
4.1904659 -1.7465594 0.31575641 9.25
4.2267461 -0.68339264 0.14254038 8.333333
4.2063484 -2.9158161 0.48797193 10
4.1225147 -2.7195055 0.49504963 10
4.2683015 -2.2111373 0.44675055 10.25
4.1794343 -0.66625249 0.51905715 11.25
4.1379642 -0.69141263 0.90704149 14
4.1174073 2.9088385 0.83594447 13
4.1548314 2.915962 1.0528133 14.5
4.475636 -8.8387346 -0.020253344 6
4.4608526 -4.8492308 -0.076082364 7
4.7099628 -1.9191414 -0.072925515 7
4.5279937 -8.8259192 0.19414681 7
4.5674648 -7.0152946 0.38066024 8
4.5191026 -4.8768611 0.227586 8
4.7631869 -1.872304 0.024185792 7.6666665
4.4105482 -1.5200611 0.18864666 9
4.6501389 -7.2171655 0.605075 9
4.7270851 -6.9852991 0.60238218 9
4.5292482 -5.8958712 0.57812524 9
4.5712132 -0.59483564 0.46918604 10.666667
4.689786 -0.5787521 0.95500022 13.333333
4.6006207 -0.57205433 1.1707228 14.666667
4.742321 -8.3548298 2.7237642 14
4.9641695 -3.3776937 -0.08816348 7
4.8621168 -1.7825072 -0.1205565 7
4.8878303 -8.3935299 0.38684368 8
5.120748 -3.0925341 0.014500691 7
5.0234818 -2.1574783 0.024352049 7.5
4.9629455 -1.8061503 0.0074907793 8
5.0769582 -0.51135635 0.19392771 8.666667
5.0222931 -3.1035199 0.48231879 9.5
5.1212864 -1.8554658 0.48620689 10
5.0297017 -0.52564645 0.51571542 10.5
5.019402 -0.48859203 0.90246379 12.666667
4.9996428 -0.48565879 1.1708722 14.5
5.1005354 -8.3026237 2.7427015 14
5.102437 -8.3082943 2.9931705 15
5.2085834 -8.4084101 0.10300394 7
5.2690644 -3.6530113 -0.045725234 7
5.3137164 -3.5963001 0.077242739 8
5.4378362 -0.44660768 0.074353926 8
5.5770426 -0.38436478 0.087815799 8
5.6113067 -9.2767038 0.66204888 8
5.3776674 -2.102463 0.33004457 9
5.5295839 -0.4275758 1.3927945 15
5.4760237 -5.6834993 2.2488804 15
5.4400535 -5.2493863 2.1662745 15
5.4562225 -8.2257528 2.760793 14
5.5504408 -8.1953125 3.0206308 15
5.9051743 -4.4467187 -0.25533432 6
5.7267323 -9.0313482 0.16739006 7
5.9875369 -4.4900064 -0.0074219937 7
5.9473195 3.0634198 -0.048428711 8
5.9274664 3.3937449 -0.11471008 7.5
5.9050422 3.7142239 -0.13824266 7.3333335
5.8809137 -4.3854461 0.5146417 9
5.6228218 -0.46585855 0.48567951 10.5
5.8444352 -0.33650306 0.40743235 10
5.9047265 0.4628045 0.47928911 10
5.9629483 3.1061141 0.32521474 9.666667
5.986299 3.4996223 0.29765308 9.666667
5.9198761 3.8022749 0.28888625 9.5
5.8517809 -0.32373971 0.7856434 11.666667
5.9354725 0.43209887 0.63943219 11
5.9905267 3.1560786 0.81257635 11.5
5.9872708 3.4230297 0.75348234 11
5.9511533 3.8630862 0.7843374 11
5.8981199 4.0872397 0.71655959 11.5
5.9945049 -12.18264 1.6583185 10
5.8937936 -11.013988 1.5608495 10
5.6726456 -0.38205057 1.0882062 13
5.8913364 0.022008648 1.2610869 14
5.8944592 0.22709307 1.1808281 13.666667
6.0190148 3.1615977 1.0486499 12.5
5.9974942 3.461226 1.0485904 12.5
5.9763827 3.8663571 1.1047803 12.5
5.9118633 4.1445117 1.0292456 12
6.0135813 -12.005766 2.0161304 11
5.6474581 -0.38090995 1.4545122 15
5.8898444 0.18150575 1.4307823 15
6.0224347 3.1795285 1.3166378 14
6.0295391 3.3523979 1.4555864 14.5
5.9919257 3.8972702 1.4190682 14
5.9759631 -5.1400428 2.2400246 15
5.6720514 -5.1030817 2.1798546 15
6.0104771 -4.033411 2.08887 15
5.9765735 -3.7072248 2.0422318 15
5.9918246 3.4913249 1.7536256 15
5.8656287 3.8560941 1.7248125 15
5.9453659 -8.1207504 2.7923846 14
5.9711318 -8.0216942 3.0379767 15
6.2473788 -13.324496 -0.22913611 6
6.0438194 -13.207097 0.025795598 7
6.0284977 -12.67889 0.11722637 7
6.3897958 -10.326849 -0.078540519 6
6.0069594 -4.4095297 -0.12868279 7
6.3649683 1.4855421 -0.36426291 7
6.3064961 1.7063755 -0.34531325 7
6.2185192 2.2342315 -0.30882624 7
6.1504631 2.5473046 -0.29248077 7
6.154407 -0.28863132 0.12555151 8.5
6.3728318 1.4800484 -0.098292336 7.5999999
6.2998967 1.8742505 -0.032519411 8
6.2310066 2.2283261 -0.010496841 8
6.1450834 2.6323891 -0.020847173 8.1999998
6.0916424 2.873879 -0.076466471 8
6.3530984 -0.25265154 0.51831406 10.5
6.232378 0.38420054 0.36102781 9.5
6.3967109 1.513554 0.30903393 9.5
6.3392467 1.8143721 0.34385636 9.5
6.2610083 2.1988485 0.35430071 9.5
6.1863098 2.6070197 0.38012013 9.5
6.0087051 3.389358 0.10791966 9
6.1951575 -10.951248 1.018852 9
6.3749347 -0.25500622 0.91857654 12
6.4035497 1.5599535 0.56862539 11
6.3828931 1.7852627 0.72463888 11.25
6.2882524 2.234292 0.73865747 11.5
6.2119198 2.6069024 0.74982136 11.4
6.0569258 2.9391983 0.7684595 11.333333
6.0293698 3.43015 0.73928714 11
6.3115711 -10.928203 1.5725901 10
6.0854797 0.14116982 1.178604 13
6.3951178 1.8322009 1.0891547 12.6
6.3223891 2.2256155 1.1460526 12.666667
6.247735 2.5965104 1.119772 12.8
6.1424003 2.9548888 1.1216838 13
6.0448914 3.503217 1.0698266 12.5
6.4617081 -11.560264 1.9804194 11
6.1325135 -6.8068967 1.9499674 13
6.4267421 -0.22799388 1.4866095 14
6.4084296 1.9490746 1.495563 14.5
6.3659682 2.2555437 1.5471548 14.5
6.275619 2.6837785 1.5893203 14.5
6.1526499 2.9967871 1.5586724 14.333333
6.0530062 3.5322299 1.3697401 14
6.0738583 -4.2913346 2.134402 15
6.0738111 3.1786013 1.7347227 15
6.3324981 -8.0507097 2.8250315 14
6.2611847 -7.6635947 3.0020378 15
6.462965 -7.385314 2.9749913 15
6.6700883 -10.266819 -0.072700389 6
6.7888837 -3.7095404 -0.074367903 7
6.5546942 -3.0943592 -0.26276794 6.5
6.4913869 0.1666366 -0.34472713 6.25
6.4272952 1.1883553 -0.38829541 6
6.3950453 1.4219915 -0.37907553 6
6.5872474 -0.095566295 0.016676016 8
6.5998378 0.18032342 -0.040789649 7.5
6.5471883 0.58814973 -0.093965217 7.5
6.4733038 1.0016607 -0.010278366 8
6.4199033 1.2675929 -0.046013135 7.6666665
6.529099 -13.589675 0.77218449 8
6.6081562 -0.12668917 0.33897352 9.5
6.6285963 0.18085831 0.37925905 9.6000004
6.5744224 0.65387934 0.39587298 9.5
6.5024109 1.0202605 0.42229438 9.75
6.4363289 1.3919405 0.43782014 10
6.454453 -13.506879 1.1237851 9
6.6292734 -10.871758 1.0333408 9
6.6421642 -0.055709586 0.78441936 11.5
6.6859035 0.22826844 0.76679593 11.333333
6.6144099 0.64026415 0.78992498 11.6
6.5317216 1.0398152 0.79620677 11.5
6.4679585 1.3869784 0.86709321 11.666667
6.6019387 -10.86037 1.5808022 10
6.767272 -0.19423337 1.1611286 13
6.6898322 0.45193705 1.283476 13
6.6396708 0.73770481 1.2198343 13.25
6.5846047 1.0249552 1.2407012 13.4
6.4918509 1.4050641 1.1977984 13.333333
6.730638 -11.420907 1.9742459 11
6.502789 -9.5723381 2.0524011 12
6.762217 -9.4976158 2.0631161 12
6.5503311 -6.8316851 2.0052917 13
6.7207456 -0.094862632 1.6094388 14.5
6.738977 0.33773729 1.6033323 14.666667
6.6782017 0.64452136 1.5745846 14.666667
6.614819 1.0218388 1.6189145 14.75
6.5174985 1.4690007 1.5736164 14.8
6.4573712 1.7522101 1.4841988 14.5
6.7357693 -8.3937445 2.2187533 13
6.5078306 -4.8550315 2.2956583 15
6.8329897 -3.2708287 2.1879561 15
6.7155986 -7.9519763 2.8567169 14
6.6138225 -7.2245297 2.9681017 15
6.9472828 -3.322084 0.02629566 7.3333335
6.9060669 -0.98973137 0.16987954 8
6.9818215 -3.1704311 0.69958711 10
6.9277687 -3.0199769 0.51263696 9.5
7.0279555 -1.4937494 0.39835709 9
6.908915 -0.99947965 0.36776546 9
7.0519776 -3.4019837 0.88972616 11
6.9426589 -2.9211476 0.83031911 10.666667
6.9030724 -2.7047164 0.87895989 11
7.0676694 -1.5171729 0.68937236 10
7.0025249 -1.0413371 0.89458543 11
6.9306788 -10.784622 1.601101 10
7.2137933 -10.742147 1.6008508 10
7.0775318 -3.3260233 1.2973565 12
6.9901314 -2.9672759 1.3125581 12.4
7.0314465 -2.6580167 1.2281904 12.333333
6.9885345 -11.261369 1.9670976 11
7.2344413 -11.087795 1.9604903 11
7.0277648 -9.4332781 2.0777895 12
6.955749 -8.9055929 2.0112123 12
7.1032634 -3.1874712 1.7618299 14
7.0381026 -2.9628642 1.6673404 13.666667
7.0310936 -2.6197898 1.6862861 13.666667
7.0813255 -9.2491617 2.3669221 12
6.9431806 -8.2868004 2.2297225 13
7.0255909 -3.0188665 2.2141707 15
7.045404 -2.5018802 1.8994416 15
7.1452351 -7.8919673 2.9058306 14
7.5289364 -4.3033004 -0.23645954 6.5
7.2497053 -8.9769373 0.14404602 7
7.5665841 -4.2950974 0.038727842 7
7.3639064 -10.721865 1.0609794 9
7.6190619 -4.2205501 0.93406785 10
7.4408703 -10.69089 1.617058 10
7.6261554 -4.0728812 1.2757004 12
7.5752602 -3.8466196 1.3310316 12
7.3365746 -2.5656242 1.2619781 12.5
7.6045957 -3.8390861 1.7565097 13.5
7.2923226 -2.5763147 1.6263385 13.5
7.4604874 -12.851916 2.532125 11
7.5086074 -12.766019 2.8909011 12
7.5620289 -4.3905478 2.4564917 15
7.5108461 -4.1221719 2.41751 15
7.6310005 -4.476995 0.52541858 9
7.6801944 -10.576593 1.1085725 9
7.9664717 -5.9038615 0.97482622 10
7.6652336 -4.4669533 0.93891603 10
7.8337913 -10.601259 1.6255925 10
7.9904895 -5.7784605 1.4603232 11.666667
7.903563 -5.3970437 1.3911542 11.333333
7.8093042 -4.9349861 1.4068519 11.666667
7.7198973 -4.5481043 1.3778785 11.666667
7.671607 -4.2681942 1.3408771 11.5
7.809752 -4.8045006 1.7323315 13
7.7690849 -4.5416288 1.7106441 13
7.6911941 -4.149446 1.7836045 13.5
7.8424358 -7.7304702 2.2764182 13
8.0308094 -6.8059049 2.2026656 13
7.9594274 -6.4536433 2.1573384 13
7.9213696 -6.1444974 2.1224301 13
7.9499774 -5.7686734 2.0922091 13
7.9766688 -5.4071379 2.0648496 13
7.9426656 -12.565444 2.9036117 12
7.9648223 -6.3086996 2.7799175 15
7.9561367 -6.6185231 2.8241825 15
8.3564024 -7.7643332 1.0324367 10
8.2719498 -7.3504963 1.0188224 10
8.1805067 -6.9467106 1.0055664 10
8.1051626 -6.5833712 0.99543244 10
8.0338097 -6.2350626 0.98491007 10
8.318181 -10.745322 1.6653209 10
8.4199553 -7.827353 1.4900773 11
8.3169537 -7.3747907 1.4582065 11
8.2431459 -6.9709854 1.4323823 11
8.1362543 -6.5588727 1.4042248 11
8.0665798 -6.1965961 1.3827888 11
8.4460564 -11.215331 1.7602382 10
8.4148664 -7.6696835 1.690347 11
8.3493271 -7.1630168 1.9782248 12
8.2480812 -6.8454418 1.7686888 11.5
8.1457891 -6.431397 1.7156258 11.666667
8.0963516 -6.1556973 1.6454196 12
8.1476803 -12.715691 2.5625174 11
8.4187269 -8.6468334 2.1244419 12
8.425703 -8.2796402 2.0901122 12
8.3138714 -7.5787597 2.1659067 12.5
8.1194191 -7.1949658 2.2554071 13
8.0956964 -12.210626 2.8689351 12
8.6119518 -10.466337 1.1120157 9
8.6995277 -10.477845 1.6717083 10
8.8518353 -9.9401731 1.6465352 10
8.7243938 -9.3458347 1.6003013 10
8.4936714 -8.2463751 1.5296741 10.5
8.4458809 -7.0486865 1.2940812 10
8.6537771 -10.458647 1.748485 10.5
8.848114 -9.8824844 1.7238271 11
8.7183628 -9.2499762 1.7009788 11
8.6135321 -8.6361961 1.7089384 11
8.7590952 -10.317263 2.3331692 12
8.6327286 -9.7132444 2.2555952 12
8.5135574 -9.1489325 2.1844819 12
8.9104576 -10.364794 1.1248537 9
9.0586519 -11.501344 2.109442 11
8.8918066 -10.216533 1.7800517 11
9.0673656 -12.078259 2.1666877 11
8.8755693 -10.951681 2.4144812 12
