# .PCD v0.7 - Point Cloud Data file format
VERSION 0.7
FIELDS x y z intensity
SIZE 4 4 4 4
TYPE F F F F
COUNT 1 1 1 1
WIDTH 222
HEIGHT 1
VIEWPOINT 0 0 0 1 0 0 0
POINTS 222
DATA ascii
0.32677618 -0.011137132 -0.10231583 169
-0.051191274 -0.92353922 -0.0082459124 159.5
0.079880536 -0.9515906 -0.014670296 193
0.21195027 -0.94784343 -0.0098333722 197
0.33602795 -0.90125835 -0.0068080649 199.5
-0.31658521 -0.83859593 -0.0020943633 149
-0.28266796 -0.80063993 -0.009177655 155
-0.15978299 -0.85103589 -0.0054385704 161.66667
-0.018038394 -0.85450763 -0.009465375 182.5
0.00083070126 -0.81851906 -0.015403575 198
0.10921336 -0.85967326 -0.012756711 198
0.22957647 -0.85886484 -0.013484828 199.25
0.34080037 -0.85047144 -0.013118511 199.33333
-0.37839907 -0.71173543 -0.011264534 154
-0.26397142 -0.77893484 -0.010913135 160
-0.10457035 -0.76324373 -0.0016148891 169
-0.084595196 -0.73528773 -0.0083693871 175.66667
0.037198227 -0.73850596 -0.0099360999 196.60001
0.14714985 -0.74237275 -0.012020868 196
0.24942395 -0.74880719 -0.011469396 196
0.34510377 -0.76052111 -0.010400144 196.75
-0.3456817 -0.68022692 -0.0072570085 161
-0.28372374 -0.62307721 -0.0085440902 169.66667
-0.14919531 -0.6414693 -0.0098670125 177.375
-0.034973104 -0.66052192 -0.013784186 194.5
0.066550687 -0.67894924 -0.013512503 194
0.18688685 -0.61435741 -0.0056825122 191.66667
0.27008802 -0.62640363 -0.0045485697 191.5
0.35287756 -0.61034143 -0.0079282802 190.5
-0.32503018 -0.51009375 -0.0018909076 178
-0.22562139 -0.56854469 -0.0064337323 179.33333
-0.19129878 -0.53906375 -0.014820701 185
-0.050601851 -0.52415967 -0.01112969 189.39999
0.038047403 -0.54343694 -0.0066832486 190.33333
0.13075972 -0.57110989 -0.0072695888 189.66667
0.2604664 -0.51622367 -0.01208421 187.18182
0.35067081 -0.51702964 -0.014049249 186.28572
-0.6383239 -0.40710866 -0.0029628214 135
-0.25600687 -0.46207589 -0.0087524215 182
-0.11563756 -0.46675634 -0.0075154291 186.75
-0.066652492 -0.42078549 -0.005773989 189.66667
0.057411939 -0.44184023 -0.020000514 186
0.15208066 -0.45518306 -0.02563281 183.27777
0.2428769 -0.46035019 -0.025891097 182
0.33919218 -0.45847243 -0.026345531 181.46666
-0.5646947 -0.37824258 -0.0059431824 151
-0.45920125 -0.3364763 -0.0070616752 171.25
-0.38439354 -0.30695891 -0.0085813496 183.33333
-0.14493917 -0.38241681 -0.0090750875 186.75
-0.038126394 -0.36805093 -0.017847847 185.92308
0.057388909 -0.33734047 -0.021426361 181.06667
0.15222429 -0.33547118 -0.035265718 177.08824
0.25118712 -0.35185951 -0.039325938 176.06818
0.34968692 -0.35143581 -0.037305903 176.04651
-0.39999199 -0.20743017 -0.0093230531 184
-0.36964351 -0.24977945 -0.016637836 185.5
-0.2543757 -0.25526807 -0.0082331607 187.8
-0.1482553 -0.21528028 -0.024727153 184.41667
-0.012869894 -0.22154434 -0.022197276 179.75
0.052152637 -0.24962756 -0.048084795 175.94444
0.15495673 -0.26775357 -0.052527618 172.46666
0.24950914 -0.2371337 -0.033133201 171.05
0.34854943 -0.24130528 -0.032855738 171.34782
-0.81417745 -0.16450109 -0.0032647033 117
-0.73168486 -0.15326041 -0.0039414125 124
-0.66331893 -0.14401084 -0.0055631315 137.66667
-0.54178119 -0.12756161 -0.0082181385 164.25
-0.43906629 -0.11383166 -0.013212092 185.2
-0.3428168 -0.1449372 -0.0085764127 188.75
-0.26854825 -0.17312175 -0.011610357 187
-0.16521248 -0.14750393 -0.027861802 183.83333
-0.0403722 -0.14199245 -0.037760153 177.97144
0.047632828 -0.15081556 -0.054719079 172.72
0.14799829 -0.13325103 -0.029880857 168.09091
0.26314718 -0.14393897 -0.042521462 166.2
0.34944445 -0.14239059 -0.045390807 167.85715
-0.82733721 -0.019841604 -0.0059402618 116
-0.74407965 -0.018541409 -0.0065145241 128
-0.67351282 -0.0174581 -0.0075800195 141.33333
-0.54843879 -0.015469434 -0.0066266572 165.2
-0.44245625 -0.013976566 -0.012699445 187.2
-0.3282944 -0.040449273 -0.0068871379 189
-0.25005534 -0.049998555 -0.011284012 186.35715
-0.17397487 -0.049356256 -0.030289333 184.09525
-0.055416446 -0.035805844 -0.045135859 177.25
0.060692344 -0.042962365 -0.039155148 170.8
0.15564649 -0.044057399 -0.043012138 168.13043
0.25405604 -0.045323435 -0.073587261 167.46478
0.36260042 -0.038181089 -0.076566026 168.07143
0.45946777 -0.0048340256 -0.045628574 168.47058
0.54665071 -0.0082602743 -0.054127548 170.66667
0.64806169 -0.015122964 -0.04486315 174.05
0.76323372 -0.022547089 -0.02248206 178.23077
0.85215485 -0.028067509 -0.0084904758 182.33333
0.92553443 -0.032565061 -0.0086986041 188.5
-0.54202163 0.096388556 -0.0093269097 169.75
-0.44337666 0.086056463 -0.013186277 183.60001
-0.33622107 0.074775659 -0.0074719945 189.2
-0.23589015 0.064251021 -0.0093295993 186.55556
-0.17168407 0.05765184 -0.034154538 184.66667
-0.054900989 0.045528192 -0.0439573 177.5
0.058433112 0.033817694 -0.039407752 171
0.15301801 0.024411555 -0.044075258 167.96001
0.24822672 0.015780052 -0.077514194 167.75999
0.37937826 0.017195156 -0.069195449 167.3125
0.43525329 0.036814913 -0.050614234 167.96085
0.54327559 0.048112266 -0.056371067 170.64383
0.64031774 0.051359504 -0.047258355 173.70149
0.7555989 0.046512753 -0.02405446 177.74074
0.84875488 0.056302886 -0.0078862244 182.64285
0.93027741 0.050824385 -0.010023059 188
-0.81926864 0.12541631 -0.0028734419 117
-0.71936876 0.11495687 -0.0042279311 129
-0.64470023 0.10715526 -0.0087902267 145.66667
0.39792153 0.14472437 -0.045244053 167.68182
0.44699636 0.13900526 -0.046937332 169.02438
0.55614376 0.15296324 -0.067723989 170.98508
0.63570696 0.14549036 -0.035165537 174.5641
0.74972332 0.14893147 -0.024740282 177.12122
0.85200453 0.15333723 -0.011960361 184.57143
0.94180739 0.14260025 -0.014776413 189.39999
0.44706714 0.2530309 -0.065923169 170.46666
0.54240942 0.24456796 -0.042567726 172.08772
0.65452236 0.25146747 -0.03089243 173.5
0.73434246 0.24163905 -0.012619134 179.11111
0.84690076 0.24799085 -0.013976092 187.5
0.92653376 0.24179088 -0.019922838 191
0.39651901 0.3533828 -0.029262749 172
0.44762567 0.32897207 -0.033228368 170.67741
0.5535928 0.34649956 -0.034609303 173.72223
0.64114416 0.34838259 -0.020038938 179.72
0.75386316 0.35416377 -0.015288762 186.39999
0.83097434 0.34933972 -0.016174633 189.66667
0.9246859 0.32344738 -0.028572787 191
0.39758414 0.47193983 -0.028537305 182.16667
0.44154269 0.45578486 -0.036147963 181.33333
0.53901744 0.43635425 -0.023775987 182.90909
0.6519115 0.45295021 -0.020997167 187
0.73439896 0.43612441 -0.019180043 188.85715
0.84340119 0.45845449 -0.030863756 193.33333
0.9092598 0.40692851 -0.033563048 193
0.39765966 0.54673427 -0.02633605 186.83333
0.47000405 0.56526303 -0.026902156 187.85715
0.54386121 0.55365628 -0.026964171 189
0.63466382 0.53152776 -0.025782468 189.5
0.74566692 0.56392181 -0.041447062 192
0.81104577 0.54697037 -0.036335811 193.5
0.39798889 0.61335802 -0.025377246 190
0.45022964 0.66163695 -0.03289498 191.8
0.57755977 0.66636467 -0.03662638 192.39999
0.66871643 0.65351909 -0.037458967 191
0.75202674 0.61922479 -0.034506343 190.66667
0.44849664 0.73853713 -0.035226461 190.2
0.56217808 0.74654067 -0.03258989 187.66667
0.60619283 0.76974839 -0.037908003 187
0.4024626 0.84371901 -0.033652883 180
0.50950742 0.83931357 -0.033802107 182
0.40208828 0.90161335 -0.030748786 171
-0.21678391 -0.93589526 0.002971801 149
-0.070532374 -0.95767963 0.0022067414 154.5
0.062666848 -0.99184954 -0.00087699707 188
-0.50811267 -0.82611167 0.010094777 117
-0.498128 -0.8195411 0.00055995473 125
-0.34075043 -0.86481482 0.0052395603 139
-0.28549954 -0.80016744 0.0015007718 156
-0.18057014 -0.87820965 0.005694753 153
-0.0057373354 -0.82085174 0.002858778 178
0.2199012 -0.89009303 -0.00049577409 198
-0.4305979 -0.75637835 0.0022043509 138
-0.37257293 -0.70222151 0.0032176552 149
-0.21495572 -0.71632296 0.00035076169 165.5
-0.11210158 -0.77222955 0.004254634 168
-0.29989097 -0.63441199 0.0044062133 168
-0.049523178 -0.67703664 -0.00063042145 180
0.093647361 -0.61144882 0.003078352 193.5
0.17751889 -0.63490862 0.0033435107 194
0.26644996 -0.63411534 0.0028773909 193
0.34746984 -0.64185399 0.0042595277 192.60001
-0.33281663 -0.51428664 0.0043745893 172
-0.058938179 -0.52996457 0.0003798797 192
0.011793723 -0.58005309 0.0024983613 193
0.13168597 -0.52984464 0.0054150061 189.66667
0.24751177 -0.53204411 0.0052454039 189.125
0.35365993 -0.53296083 0.0041199294 188.75
-0.83112776 -0.48294124 0.0031278899 108
-0.76100749 -0.45512667 0.0026833483 115
-0.67777807 -0.42208198 0.0024119844 125
-0.25858098 -0.45891726 0.013700283 178.25
-0.14435478 -0.45112863 0.00017588538 188.33333
-0.028578267 -0.4352183 0.0010243749 189
0.036583923 -0.46052489 0.0011457799 188.8
0.15025851 -0.49366236 0.00071277283 186
-0.59520143 -0.38958129 8.3086697e-06 139
-0.49602103 -0.3497164 0.0034686252 164
-0.16592105 -0.39509937 0.0016019616 188
-0.092138164 -0.34208435 0.0018006437 188
-0.26905721 -0.25994191 0.00053856371 189.5
-0.17621301 -0.22312407 6.4433036e-05 186
-0.011966405 -0.24683602 0.017919976 182
0.059333771 -0.21482788 0.084809184 180
0.16160752 -0.2030703 0.013429941 153
-0.84287 -0.16813064 0.0017318517 114
-0.75086731 -0.15550989 0.0023659125 121
-0.54950917 -0.12805904 0.0011432311 159
-0.30614534 -0.18182127 0.00082454161 190
-0.23928805 -0.15740734 0.073353492 165.57143
-0.19550851 -0.15281141 0.00029058824 185
0.03893774 -0.17755863 0.067853339 177
0.15142907 -0.15636609 0.070210613 135.5
0.22065215 -0.13477823 0.027724672 127.92593
-0.8438921 -0.019886376 0.0023341158 112
-0.75488824 -0.018480491 0.0022522046 121
-0.33853376 -0.012028031 -0.00049480307 189
-0.2259801 -0.010243789 0.0006951713 186.5
-0.85750765 0.12940638 -0.00037516272 114
-0.7650941 0.11972374 2.0213576e-05 122
-0.12038255 -0.24374647 0.18853056 138
-0.069372825 -0.29439914 0.14239569 164
0.0098675787 -0.22860047 0.18238428 151
-0.26946247 -0.16019012 0.12795189 180.11111
0.047151826 -0.15895405 0.14896777 128.96001
0.11727463 -0.16771181 0.10946926 126.14286
