# .PCD v0.7 - Point Cloud Data file format
VERSION 0.7
FIELDS x y z intensity
SIZE 4 4 4 4
TYPE F F F F
COUNT 1 1 1 1
WIDTH 743
HEIGHT 1
VIEWPOINT 0 0 0 1 0 0 0
POINTS 743
DATA ascii
-5.3963304 -3.2948949 0.21138003 8
-5.3067846 -3.3289721 0.50656372 9
-5.369802 -3.183203 0.51724625 9
-5.3755484 -3.4312778 1.1636491 12
-5.3846707 -3.1866813 1.0809729 12
-5.4412584 -3.0426557 1.2459285 12.666667
-5.394824 -3.3698363 1.8287519 15
-4.8841157 3.805326 1.0424508 11.5
-4.942555 4.0121131 1.0031796 12
-5.1516666 4.6772561 1.0751565 11
-4.8210292 3.1242108 1.3108296 13.5
-4.8483624 3.3871207 1.3646092 13.5
-4.8896456 3.7389815 1.3857604 13.333333
-4.8773699 4.2028041 1.3695198 12.75
-4.6685472 2.7790675 0.99884552 12.5
-4.7715774 3.0384984 1.179778 13
-4.5370536 3.2803082 0.89447027 11.666667
-4.7804942 3.7127123 0.9637816 12
-4.4554582 4.3750587 0.94002783 11.5
-4.4069676 4.4952641 0.9457401 11.5
-4.5152812 2.6952305 1.4744196 15
-4.7821307 3.0353286 1.3772547 14
-4.5012751 3.3629439 1.470824 14.333333
-4.5828133 3.7906599 1.4949797 14
-4.562355 4.2644248 1.4132661 13.666667
-4.4159088 4.4243884 1.2327443 13
-4.4345088 3.4459066 1.621784 15
-4.4911251 3.7585495 1.6972177 15
-4.5467858 4.1905904 1.8013635 15
-4.4636731 4.4166994 1.7279019 14.5
-4.1095276 -3.0489707 0.34016323 9
-4.2184405 -2.1907341 0.28328609 8.75
-4.0734429 2.2229931 0.28293747 9
-4.1264048 2.5978434 0.31242371 9
-4.2127895 2.9872465 0.34573761 9
-4.2236786 3.3784974 0.32700616 8.666667
-4.1616807 3.8147733 0.32808334 8.666667
-4.2874179 4.0157547 0.26616997 8
-4.1110849 -3.0647688 0.48531684 10
-4.194293 -2.1772795 0.51202446 10.25
-4.2408681 -1.4178247 0.56031829 10.666667
-4.1232014 2.2155588 0.45070007 10
-4.1455832 2.5601051 0.61155903 10.8
-4.2061849 2.9860284 0.60174435 10.5
-4.2632098 3.4671628 0.64943111 10.4
-4.3071132 3.806663 0.60828298 10
-4.3771234 4.1421142 0.61529279 9.666667
-4.2386193 4.7067089 0.72050536 10
-4.1122413 -3.036783 0.96526486 12.5
-4.1901016 -2.133678 0.96440905 12.833333
-4.1677513 -1.8161759 1.0075649 13.333333
-4.2026577 -1.4057328 1.0272729 13.583333
-4.2157321 -0.96734369 1.1205351 14
-4.0906415 2.2274172 1.060704 13.333333
-4.2807846 2.7027709 0.82841337 12
-4.2423162 2.884599 0.84920442 12
-4.3872733 4.1352949 0.82063556 11
-4.2145762 4.7040319 0.95243341 11.4
-4.2473874 4.8103633 0.89436471 11
-4.0301414 -3.0876436 1.3873384 14.5
-4.1520119 -2.1471224 1.3022238 15
-4.155508 -1.7790859 1.2996377 15
-4.1779532 -1.4334202 1.2643979 15
-4.2371974 -1.0621086 1.206129 15
-4.3772764 2.7670407 1.4723347 15
-4.3798518 2.9993622 1.5209 15
-4.3111229 4.6449766 1.3712143 13.25
-4.2152882 4.8135114 1.478116 14
-4.3539772 4.6252017 1.7633997 14.5
-4.1869683 4.8188906 1.9200833 15
-3.8514798 3.9927876 0.3063457 9
-3.6789598 4.0150185 0.29371557 8.5
-3.8761649 -3.1252797 0.75431949 11
-3.7148137 4.0096068 0.52320188 10
-3.7444332 -3.0832717 0.92790645 12.5
-3.8480191 4.7823081 0.98020446 11.5
-3.7016482 4.7997689 1.0641701 12
-3.7463603 -3.0972662 1.3133904 14.333333
-3.8281999 4.7743907 1.3675148 13.5
-3.6615005 4.7885718 1.6169627 15
-3.3054724 -2.6254232 0.30506259 9
-3.365958 3.5321455 0.29255357 8.5
-3.4177692 4.0389371 0.2784062 8.333333
-3.230648 -2.5814018 0.41886455 10
-3.3367701 3.395 0.49544704 10
-3.2197769 3.9863493 0.4999634 10
-3.3740761 4.0704899 0.56381643 10.2
-3.3645942 -3.03794 0.90341073 12.8
-3.3816423 4.8380857 1.0602833 12
-3.4488275 -3.0578911 1.3467904 15
-3.3588793 4.8259902 1.4087282 13.8
-2.968168 -2.5999041 0.26991737 9
-2.9878502 -1.3465667 0.33387899 10
-2.9630306 -1.0698637 0.34224388 10
-3.0279579 3.4419725 0.29312584 9
-2.9851947 4.122344 0.2842389 8.75
-2.8925467 5.2429256 0.34993225 9
-2.9686849 -2.9736142 0.76772308 12
-2.9683704 -2.5589192 0.45509732 10.333333
-3.0779972 -1.3613234 0.50996065 11.5
-3.1207767 -1.1672451 0.50185931 11.5
-2.9630535 4.1688576 0.571127 10.166667
-2.9505947 4.5405207 0.70568728 11
-2.9304047 4.9511385 0.68996072 10.666667
-2.9314282 5.3300295 0.59727967 10
-3.0043337 -2.9909451 0.91826153 13.333333
-3.0302968 4.2312946 0.83682173 12
-2.9348097 4.9364796 0.97478163 12
-2.8907733 5.328742 1.1452407 12.5
-2.9574323 -2.9890842 1.2524492 15
-3.0149353 4.8883858 1.4361625 14
-2.9119802 5.2990098 1.4417927 13.5
-2.9300864 5.3193393 1.6729439 15
-2.5535316 -2.9082 0.23636898 9
-2.623332 -2.6360688 0.28676173 9.333333
-2.7743144 -1.3156972 0.20264956 9
-2.7149832 -1.0761468 0.311634 10
-2.7564971 4.3058796 0.31812528 9
-2.6425352 4.5829158 0.34312344 9
-2.5833371 5.330935 0.37628686 9
-2.5786719 -2.9229922 0.59745657 11.25
-2.6075082 -2.5725365 0.57177603 11.5
-2.7326779 -1.5047265 0.43850601 11
-2.4926889 -1.1216887 0.44543451 12
-2.6794362 4.2928696 0.44107327 9.5
-2.5970614 4.5998654 0.46817657 9.666667
-2.6176617 5.1488628 0.58706123 10
-2.5632415 5.3774252 0.63865423 10.5
-2.6426177 -2.9369223 0.94045562 14
-2.6371405 5.0959778 0.99485272 12
-2.6496646 5.323472 1.0754533 12.5
-2.7218642 -2.953913 1.2082534 15
-2.5457911 5.1630526 1.3740095 13.666667
-2.7008266 5.222086 1.5047412 14
-2.575484 5.1123977 1.6068702 15
-2.546556 5.3444657 1.6534376 15
-2.2125008 -2.8687608 0.24323052 9
-2.3359516 -2.7771227 0.29278541 9.5
-2.0594261 -1.2156599 0.27542904 10
-2.1327362 -1.0571941 0.28731298 10.5
-2.2640066 -0.60372937 0.32738683 11.166667
-2.1898 -2.8646381 0.57278794 11.5
-2.2716734 -2.652317 0.65278572 12.333333
-2.1435556 -1.4050606 0.56491148 13.4
-2.1387849 -0.98195004 0.61587161 14.333333
-2.2058275 -0.58406746 0.48940754 13
-2.2788227 5.1888213 0.52963156 10
-2.1533651 5.3949909 0.58785981 10
-2.1584938 -2.8703008 0.96869493 14.6
-2.2708995 -2.7150693 0.90772039 14
-2.3289735 5.1598692 1.0599641 12.333333
-2.1650991 5.4322619 1.0330911 12
-2.3124814 5.1791234 1.6053635 15
-2.1771514 5.3704209 1.3265351 13.6
-2.1732998 5.4280853 1.6498861 15
-1.780356 -2.8164392 0.3175953 9.8000002
-1.6774087 -2.7950277 0.26516455 9
-1.9928911 -1.2249603 0.25273359 10
-1.8290009 -2.8252161 0.55661434 11.714286
-1.6619724 -2.7923918 0.63071346 13
-1.77641 5.364305 0.58652943 10
-1.8352923 -2.8255868 0.9193033 14.5
-1.7838418 5.4023671 1.0610511 12.2
-1.7841941 5.3628254 1.4194349 14
-1.662033 5.505547 1.6392449 15
-1.5156658 -2.7596664 0.26973966 9.5
-1.4140134 -2.766849 0.56756037 12.333333
-1.3956959 5.5705624 0.60208583 10
-1.3925124 -2.7655835 0.87317526 15
-1.3584118 5.5720749 1.0203747 12
-1.4493296 5.5613933 1.3992419 13.833333
-1.3715347 5.5759706 1.6404999 15
-0.83027869 -2.5530987 0.28934914 10
-0.93157059 -2.1985128 0.28916463 10.5
-0.91898149 -1.9231867 0.31253806 11.5
-0.83353734 -1.1313485 -0.00069017103 7
-0.82672566 -0.66250849 0.0033782269 7
-0.95617914 -2.6965075 0.60335368 13
-1.1287638 5.5835228 0.49203938 9
-0.98728234 5.6227679 0.63035029 10.333333
-1.0317698 -2.716193 0.82411134 15
-0.97139215 5.621531 1.0078795 12
-1.1577622 5.5935826 1.4639089 14
-0.99095482 5.6217546 1.3944709 13.8
-0.972525 5.6243887 1.6344451 15
-0.6383239 -0.40710866 -0.0029631287 7
-0.48149619 -0.3452988 -0.0067920289 7
-0.59099132 -2.6361964 0.21133964 9.333333
-0.50387877 -1.344208 0.086499847 9
-0.60207146 -0.97723764 0.0077460953 7
-0.71649337 -0.43739623 0.0029675614 7
-0.54561108 -0.36964881 0.001738234 7
-0.61706114 -2.6273119 0.52989113 12.545455
-0.57926053 5.6755838 0.65241224 10.333333
-0.58413321 5.6705527 0.94814909 12
-0.60249698 5.6694655 1.4158549 14
-0.54501659 5.6691809 1.6292497 15
-0.10587852 -0.84268731 -0.010064798 7
-0.15526938 -0.58785099 -0.01018288 6.6666665
-0.38385168 -2.6130438 0.22897337 9.5
-0.19013369 -2.1516011 0.22191298 10
-0.0040653325 -1.8769492 0.13548796 9
-0.14695893 -1.3666147 0.071197264 8.333333
-0.20786878 -1.0517066 0.0116816 7.25
-0.17358863 -0.60400057 0.0020409592 7
-0.2773152 -2.5565665 0.54870814 12.875
-0.22690733 5.7204623 0.65051997 10.4
-0.22697128 5.7170477 0.91543245 11.666667
-0.20589516 5.7208776 1.4425808 14.333333
-0.15001842 5.7254963 1.6307025 15
0.15115206 -0.9171381 -0.017805118 6.5
0.22830936 -0.54334474 -0.015491611 6.2857141
0.34665281 -0.37710637 -0.020048384 6
0.077663355 -4.7411046 0.12582019 8
0.39044446 -4.3536363 0.038398229 7.5
0.26423845 -3.3554237 0.17139632 8.5
0.16110264 -2.4670165 0.20486002 9.5
0.089938037 -2.1919811 0.25759286 10.666667
0.28371948 -1.6535479 0.024730191 8
0.18687131 -0.54631937 0.0034256531 7
0.36697024 5.8017612 0.22325982 8
0.36116979 -4.2982359 0.54079837 11
0.18007191 -2.5081975 0.45471692 12.25
0.057567567 -2.3434505 0.4978739 13
0.14257857 5.7679291 0.66001928 10.4
0.36838362 -4.3052053 1.0507369 14
0.27350101 -3.3498394 0.97402829 15
0.17971553 5.769434 0.91172165 11.5
0.32414573 -4.3523045 1.2050924 15
0.21045475 5.7758641 1.4630581 14.428572
0.31547406 5.7959609 1.6360103 15
0.56103355 -5.5716891 -0.018663615 7
0.62169915 -0.013260824 -0.043137468 5.1666665
0.58516961 0.18137603 -0.049665034 4.6363635
0.48707926 0.59856534 -0.037233725 5.5
0.57321596 1.0205055 -0.035097431 6
0.66253316 1.3277823 -0.023787955 6.6666665
0.47615722 1.7509025 -0.022456994 7
0.55340147 2.2203038 -0.035287417 7
0.64393926 2.6101553 -0.03983577 7
0.57778043 -5.564559 0.14544211 8
0.48279399 -4.4622831 0.13607013 8
0.40171018 5.8003688 0.10672228 8
0.57830673 -5.5708313 0.66888839 10.666667
0.56949258 5.8256493 0.65113199 10
0.58931434 5.8255372 0.9397682 11.6
0.56052113 -5.5782399 1.2867004 13.5
0.42910001 -4.5140924 1.2348282 15
0.63204682 5.8299212 1.4268205 14
0.63342535 5.8326955 1.6676917 15
1.0612776 -9.6629047 -0.17482536 7
1.0049195 -0.037444007 -0.026198549 6
0.99416649 0.21906795 -0.028322611 6
0.99403793 0.63095915 -0.036309466 6
0.99084568 0.88964254 -0.040117938 6
1.0352718 1.3726085 -0.029079199 6.3333335
1.0707561 1.8373188 -0.031309046 7
0.99923497 2.2114022 -0.037458081 7
1.1371415 2.7121322 -0.042116079 7
0.81424546 3.0508437 -0.046478257 7
0.86358815 3.4018793 -0.05177933 7
1.1186794 5.9230227 0.24344873 8.5
1.0715016 -9.7067442 0.65299338 9
1.0063895 5.8886089 0.60348368 9.666667
1.0466686 -9.7039433 0.86889327 10
1.0054168 5.8803296 0.97094429 11.666667
0.99873954 5.874186 1.4642833 14
1.0271759 -9.735754 1.8371664 12
0.96118903 5.8736033 1.659097 15
1.0638975 -9.6933565 2.0177071 13
1.1694514 -9.5730858 2.3071134 14
1.3397532 0.31290379 -0.034751143 6.3333335
1.4621439 0.5411793 -0.031485606 6.25
1.3440301 0.97049206 -0.028740531 6.5999999
1.3534247 1.3774743 -0.030679306 7
1.3710651 1.690854 -0.037486315 6
1.3904428 2.1147549 -0.04546712 6.3333335
1.4729235 2.5677378 -0.054595418 6
1.2266607 3.0314107 -0.050405417 7
1.3221675 3.3769579 -0.054758418 7
1.2329803 5.9345598 -0.13487118 6.3333335
1.3208878 -10.560037 0.72731501 9
1.3736902 5.929275 0.68578517 10
1.3952314 5.9305191 0.98333794 11.666667
1.3912557 5.927803 1.4541529 13.5
1.3921152 5.9286356 1.6532285 15
1.4774611 -11.42662 2.3019838 13
1.4944786 -10.8066 2.2902076 13
1.3494447 -9.5267487 2.3115482 14
1.7737604 -13.282048 -0.26955333 6.6666665
1.6049105 0.22113687 -0.023355428 7
1.8094358 0.98458314 -0.032625958 6.6666665
1.7483267 1.3803854 -0.031215837 7
1.8323029 1.6574985 -0.036541194 7
1.7613422 2.3513529 -0.068996884 6
1.894689 2.5802362 -0.073594593 6
1.6510694 2.9883542 -0.063341558 6
1.8552907 3.4637833 -0.082806528 6
1.9637367 3.7322528 -0.070778221 7
1.758917 4.9403858 -0.089955986 6.5
1.9280812 3.7944732 0.13555798 8
1.7169559 4.9845972 0.091222011 7.5
1.8822031 -13.369099 0.52458626 8
1.9819438 5.3898411 0.68420392 10
1.8316141 5.9162698 0.63812053 9.6000004
1.9690176 5.498105 0.96037376 12
1.8276234 5.9027529 0.98418194 11.571428
1.9230113 -14.081259 1.2978982 10
1.6940677 -13.187186 1.2608354 10
1.9917532 5.5457377 1.456363 14
1.847944 5.8828306 1.461915 13.6
1.8948491 5.9996662 1.3938698 13
1.7528284 5.9774837 1.7314576 15
1.7599599 -13.014517 2.3036196 12
1.7704039 -11.659833 2.3393908 13
2.1021552 -13.262348 -0.30928618 6.3333335
2.3042483 -13.197483 -0.15294343 7
2.1816308 0.67911845 -0.032253526 7
2.3142719 1.1651589 -0.045687374 6
2.1896534 1.4170922 -0.0403364 7
2.30321 1.9409945 -0.0475212 7
2.0401654 2.1571703 -0.053698868 6
2.3246055 2.5275979 -0.063557401 6.5
2.1106348 2.9632657 -0.057246208 7
2.3277802 -6.9940653 0.14755951 8
2.2215042 -3.370753 0.21703443 8.75
2.3696377 -3.1637447 0.23838823 9
2.3390713 -2.5020282 0.28100497 9.5
2.189049 -1.0141907 0.29453459 10.5
2.343858 2.6252573 0.11876094 8
2.0748346 3.0296571 0.18994124 8.75
2.3112087 -14.131305 0.52167118 8
2.3923314 -7.3370004 0.43917596 9
2.3138118 -7.0628643 0.77583373 10
2.1214561 -3.7064753 0.68037874 11.5
2.197304 -3.3608849 0.57624966 11.25
2.3403347 -2.5137792 0.43471757 11
2.2386422 -1.0172789 0.55869043 13.5
2.3465533 2.6695955 0.59925902 11.714286
2.3098981 2.9735985 0.60687351 11.555555
2.2543571 3.383589 0.63352782 11.222222
2.1989908 3.8015997 0.54649991 10.5
2.1369383 4.2141409 0.60723841 10.5
2.0898058 4.5884757 0.61177808 10.5
2.0331016 4.9903297 0.66311598 10.5
2.0485191 5.4084401 0.63520157 10
2.005486 5.7125702 0.6567235 10
2.0697124 -14.486067 0.84360754 9
2.3542039 -14.232167 1.1733122 9
2.3005774 -7.0220289 0.92789721 11
2.1948254 -3.5522308 0.98161608 14
2.369518 2.6965258 0.96181852 14.5
2.3349013 2.9796138 1.0102057 14.5
2.2913148 3.4055421 1.0390843 14
2.2273531 3.8213792 1.0320382 13.444445
2.1880097 4.1507883 0.96632308 12.666667
2.1233318 4.5768309 1.0004165 12.5
2.0574465 4.9811463 1.0069157 12.333333
2.0474386 5.3779883 1.0117893 12
2.2131302 3.7913628 1.2128768 15
2.1624222 4.1906953 1.266308 14.5
2.1104147 4.5850582 1.3521237 14.5
2.0600026 5.0346284 1.4245712 14.2
2.0177543 5.3594346 1.4557769 14.2
1.9993466 5.5850062 1.7200942 15
2.2124774 -12.986887 2.2925854 12
2.0324092 -11.632182 2.3361249 13
2.2944095 -11.600927 2.3363228 13
2.1471436 -13.71034 3.1580455 14
2.6069074 -13.178776 -0.25597152 6.5
2.6092527 -6.9832745 -0.15846419 6
2.6826429 1.0290984 -0.049447533 6
2.5073118 2.147568 -0.052357119 7
2.5818825 -6.951695 0.081604935 7.5
2.7757342 -6.7770495 0.17781977 8
2.4757631 -3.0271676 0.22181162 8.8000002
2.4451501 -2.4778838 0.22997141 9
2.5881221 -2.144906 0.20743395 9
2.751822 -1.9712775 0.11837895 8
2.4807093 -1.0160766 0.19098563 9
2.66097 2.3484559 0.090346687 8
2.4592681 2.6274252 0.36766851 10
2.479234 -13.1671 0.50488156 8
2.4393346 -6.9044962 0.43674621 9
2.577338 -6.7762499 0.43451294 9
2.7266438 -3.6381423 0.55920541 11
2.5236635 -3.4001994 0.5460645 10.75
2.6095521 -2.6226149 0.61793691 11.666667
2.6718678 -2.2501442 0.52109808 11.666667
2.7963808 -0.98872465 0.40436894 11
2.5965014 2.5936573 0.6052196 11.7
2.4143209 -14.225917 1.0976028 9
2.59776 -13.641966 0.81268054 9
2.6419764 2.5914557 1.0072023 14.5
2.7629099 -14.147693 1.3646106 10
2.5164895 -12.954658 2.2849069 12
2.5614049 -11.588144 2.3393059 13
2.5667963 -13.669053 3.1671014 13.666667
2.9053898 -13.120201 -0.24431624 6.5
3.0072849 -10.050033 -0.1778768 7
2.9761963 -9.1221008 -0.12082887 7
2.893261 -7.0002193 -0.16362539 6
3.1061723 -6.2052517 -0.10634767 7
2.9950933 1.5752196 -0.067405835 6
2.8010852 1.8960595 -0.058488328 6
2.8751447 2.5379825 -0.002605021 7
3.0073991 -6.2173753 0.070840456 7
3.0172243 -5.4241834 0.1835016 8
2.940753 -3.2185173 0.16406137 8.5
2.8088627 -2.459734 0.092464104 8
2.8494592 -2.1976974 0.20976737 9
2.900806 -1.9393103 0.12906757 8
2.8639398 -0.99299574 0.25820541 9.666667
2.9743118 2.3270416 0.28537396 9
2.9862852 2.6236548 0.30253521 9
2.9202418 -13.802174 0.50041032 8
3.0912602 -13.054149 0.48841116 8
2.8990602 -6.496511 0.61480653 10
3.092936 -6.1602883 0.695526 10
3.0950694 -5.9582772 0.60891736 10
3.0023434 -5.371315 0.43072802 9
3.1753271 -4.1132002 0.44083267 9
2.9469242 -3.9285679 0.70183337 11
2.8828685 -2.7642808 0.73737067 12
3.0507317 -2.2123499 0.60986823 12
3.0840924 -1.9616594 0.59206057 12
3.0284166 -0.90953791 0.59743458 12.333333
2.9837289 2.2987254 0.5014239 10.75
2.9108629 2.5203133 0.62372768 11.5
2.876766 -14.093835 0.80921423 9
2.923758 -13.682398 0.81428188 9
3.1927276 -7.4865499 0.83114231 10
3.1621892 -6.1335101 0.85556787 11
2.9907982 -0.91216695 0.89064431 14.666667
3.0068505 2.6424451 1.0171366 14.166667
3.0758913 -14.102762 1.376634 10
2.9844887 -12.961231 2.2858317 12
2.9609015 -11.539516 2.3418403 13
3.1311193 -13.644684 3.1746466 13
3.0330844 -13.607166 3.1972189 14
3.5863798 -13.329433 -0.2376305 6.5
3.2098751 -13.090595 -0.23468409 6.5
3.5701566 -8.8369999 -0.095111862 7
3.3111892 -6.2105417 0.099178135 7.3333335
3.3797226 -1.6003052 0.18336558 8
3.2998228 -0.90362477 0.27980062 9.5
3.4159689 -8.5968256 0.67551816 9
3.246063 -5.9184513 0.61301452 10
3.445056 -0.88957638 0.6152612 11.8
3.3928454 -14.074265 1.0824019 9
3.3256497 -8.6664848 0.88245308 10
3.3486857 -6.1075811 0.85801983 11
3.2394044 -2.5056107 0.82228684 13
3.4558582 -0.90715647 0.90599465 14.5
3.2697508 2.6746545 1.1358281 14.5
3.3044214 -14.058037 1.3572711 10
3.4614835 -12.961099 2.2896054 12
3.3563998 -11.458519 2.343291 13
3.749059 -8.7621651 -0.031278767 7
3.6214616 1.4486543 -0.076051496 6
3.764868 2.0390632 -0.090959981 6
3.8449326 -4.1477232 0.048763927 7
3.9331098 -2.4711187 0.25727174 8.5
3.8263285 -2.2590268 0.27751112 8.5
3.6192656 -13.871799 0.48591867 8
3.8332784 -13.385107 0.47727787 8
3.8698514 -11.393865 0.75315994 9
3.6908252 -4.1550117 0.76695806 11
3.7928252 -3.4013753 0.76662111 11
3.6333559 -3.0212455 0.42198348 10
3.7933707 -2.2064848 0.41208649 10
3.9579754 -1.9738653 0.66848135 11
3.6802905 -13.989455 1.1184063 9
3.9058986 -0.87339616 0.87983906 13.5
3.703845 -14.011642 1.406883 10
3.8589528 -13.956755 1.3372699 10
3.8760524 -11.422021 1.2715869 10
3.7614961 -12.872434 2.2817729 12
3.754889 -11.388298 2.3504806 13
3.7340865 -13.541433 3.1962667 13
4.0030174 -3.8689141 -0.0065494673 7
4.2953625 0.23390652 -0.07599245 6
4.2208328 1.1868035 -0.082694322 6
4.3987374 -4.8865161 0.17584462 8
4.3924408 -4.7549047 0.36823958 9
4.0469365 -3.8155725 0.20808305 8
4.178051 -0.77052999 0.2946654 9
4.2046714 -3.8327777 0.43407443 9.333333
4.0582867 -2.4831264 0.46680585 10
4.0211968 -2.0136867 0.52467859 10
4.0962019 -1.9730115 0.52171034 10
4.2164407 -0.77617919 0.52826697 10.5
4.0032773 -13.949124 1.1268603 9
4.3162413 -2.8840692 0.8211388 12
4.1367531 -2.0720937 0.81289637 12
4.0279264 -0.84520155 1.0242682 14
4.1756687 -0.75693065 0.86704892 13
4.0138206 -13.958142 1.4229726 10
4.1220317 -11.331937 1.2850012 10
4.2639804 -0.7722528 1.3136284 15
4.1154609 -12.976937 2.3047955 12
4.2985492 -12.518531 2.2473121 12
4.1563711 -11.320668 2.3623953 13
4.2184248 -13.422812 2.9767861 13
4.1170301 -13.434977 3.232547 14
4.7581277 -4.8646078 -0.076815002 7
4.6615925 0.77555245 -0.083864622 6
4.6404247 -4.8196235 0.37883896 9
4.5047216 -4.7829218 0.18565832 8
4.5793447 -0.74796671 0.21241046 8
4.6151218 -0.71007782 0.64577276 11
4.7756448 -5.7378893 0.8852945 10
4.5753975 -0.69978535 1.0429009 13
4.6629786 -11.26859 1.3197782 10
4.6645823 -0.68899864 1.3556615 14.666667
4.6285286 -12.534247 2.2610102 12
4.4573379 -11.346413 2.3838887 13
4.469552 -7.359797 2.2429347 14
4.7115612 -7.0699425 2.2374601 14
4.6742439 -9.9403162 2.4444025 13
4.6264625 -13.259972 3.2769046 14
4.9341097 -0.27261969 -0.091711283 6
5.1743889 2.1472833 -0.088697985 7
4.9682307 2.7716382 -0.088869512 6.5
4.9112821 3.5619037 -0.068819061 6.5
4.9615965 -0.65655756 0.26599115 8.5
5.1668582 2.1764736 0.13300022 8
5.1797137 2.6831324 0.1882679 8
5.0916014 2.8694942 0.17486733 8
5.1817551 3.4088449 0.32338989 8.5
5.0578804 3.685497 0.22106889 8
4.8332896 -3.5023909 0.46572068 9
5.0846014 -0.64944988 0.5869174 10.5
5.1885958 2.6003389 0.58919549 9.5
5.1575809 2.8681564 0.59873796 9.5
5.1877022 3.4007947 0.6815722 10
5.14888 3.7159526 0.62049514 9.666667
4.8924313 -0.66005898 1.0212998 13
4.98068 0.065597527 1.076035 13
5.1845837 2.7536521 0.92126256 11
5.1655693 2.8875105 0.93055594 11
5.1907916 3.4149559 0.94877374 11
5.1552997 3.810004 1.0238686 11.5
4.8618674 -0.66427463 1.3871989 15
4.9441886 -0.29763198 1.5032026 15
5.1648259 2.3501072 1.3201772 14
5.1864266 2.7181816 1.3471099 13
5.1663389 2.9010975 1.4042122 13.5
5.1930995 3.5080125 1.3966411 13.5
5.1607509 3.7695243 1.4608203 13.5
5.1944542 2.8634906 1.6540376 15
5.1741462 3.8001709 1.8537196 15
5.0415463 -12.309155 2.2498913 12
5.1741753 -9.8681335 2.489264 13
4.8533621 -13.381403 3.0180919 13
4.958982 -13.345033 3.264493 14
5.0339432 -13.080152 3.289959 14
5.2561116 -5.521719 -0.065760143 7
5.5892792 -4.0565319 -0.1751512 6
5.4624419 -3.5189624 -0.0649224 7
5.5738263 0.58052313 -0.045415375 7
5.4529305 0.91987872 -0.049041703 7
5.2795777 1.517301 -0.078936361 7
5.5739188 -4.0075436 0.058502827 7
5.5679431 -3.9794288 0.042791214 7
5.460979 -3.2855122 0.019714791 7
5.3603601 -0.57606071 0.20290874 8
5.5896244 -0.33235428 0.13954912 7.5
5.5696478 0.59367222 0.23210362 8.5
5.515162 1.0240403 0.22268248 8.1999998
5.4631634 1.4048923 0.22190842 8
5.4073076 1.8089559 0.19280384 7.5999999
5.3742204 2.1757672 0.13830383 7.5714288
5.2744145 2.6017778 0.22069106 8
5.2104859 3.0908933 0.33591965 8.666667
5.4324403 -0.58597517 0.58329684 10.333333
5.586134 -0.29974768 0.56616002 10
5.5746665 0.62202984 0.60932118 10.2
5.5302191 0.95994508 0.61791432 10.333333
5.4720707 1.3912458 0.60594034 10.333333
5.4234605 1.8112082 0.56908661 9.7777777
5.3586745 2.2093859 0.53848433 9.5
5.2854261 2.5188527 0.59113014 9.666667
5.2202554 3.119231 0.59361583 9.5
5.2443156 3.4404254 0.44622928 9
5.2583575 -11.223344 1.0743669 10
5.5612464 -4.0344582 1.1432427 12
5.4379086 -0.61118203 1.0364313 12.5
5.5739069 0.70749944 1.0372651 12
5.5475068 1.0054346 1.026404 12
5.4939094 1.3663609 0.98097748 11.833333
5.4435353 1.7587501 0.95329106 11.6
5.4040074 2.1675279 0.98504674 11.625
5.3334575 2.5020137 1.0033765 11.5
5.24401 3.0539782 1.0769727 11.666667
5.2284908 3.3532038 1.0892057 11.666667
5.3914709 -0.60644978 1.428671 14.333333
5.5084391 0.36124584 1.2957609 14
5.5760226 0.7263881 1.2864054 13
5.5581317 0.97916412 1.3777472 14
5.5036249 1.4041046 1.4139295 14.2
5.4415126 1.8176249 1.357058 13.6
5.3851771 2.1888075 1.3705947 13.714286
5.2813964 2.574508 1.4321728 14
5.2289662 3.0002277 1.429868 13.666667
5.2188454 3.2807262 1.3996044 13.5
5.206109 3.6277921 1.2287123 12
5.5804639 0.74755889 1.6486638 15
5.5501728 0.97448951 1.6753699 15
5.5043492 1.3303474 1.7228611 15
5.4609666 1.7761463 1.646611 15
5.4043655 2.1688888 1.7116942 15
5.2905006 2.6244495 1.7861369 15
5.2693729 3.0686581 1.7064523 15
5.223012 3.4275877 1.7782453 15
5.4625535 -12.108978 2.2448044 12
5.3401933 -9.6621437 2.4774427 13
5.5307031 -13.271049 3.1217952 13
5.5839114 -13.229684 3.3107977 14
5.2789521 -12.89002 3.2843795 14
5.5139604 -12.69282 3.2786412 14
5.7122645 -3.9549222 -0.16555411 6
5.6181297 0.29208151 -0.079876311 7
5.6599498 0.6001578 -0.12549208 6
5.9079461 -4.0426908 0.041621264 7
5.8095713 -3.9263272 0.28439677 8
5.9706893 -2.3200274 0.20711455 8
5.8649621 -1.5089698 0.19207326 7.5
5.6242838 -0.5304634 0.30686852 8.5
5.6603098 -0.14943273 0.12811707 7.3333335
5.6270852 0.19652906 0.19166957 7.75
5.6500034 0.49874565 0.16407175 7.5
5.7471313 -3.7944415 0.56917268 9.25
5.98107 -2.3298857 0.60890681 10
5.8966627 -1.5497706 0.54830378 9.5
5.6134677 -0.46967575 0.56623578 10
5.6591897 -0.16486079 0.61605287 10.2
5.6379037 0.19028933 0.60746384 10
5.6091933 0.43980825 0.63550824 10
5.767858 -3.6553493 1.0710576 11.5
5.8273144 -3.4607887 1.0989796 12
5.8971777 -3.0565732 1.1878256 12
5.9914222 -2.2956629 1.0291885 12
5.6199698 -0.52979439 0.99730265 12
5.658052 -0.23391446 1.024615 12
5.6517425 0.2922703 0.98205674 11.75
5.6271234 0.53889912 1.0587837 12.5
5.8092098 -3.8256595 1.4915531 13
5.8199539 -3.4955225 1.3334863 13
5.9267054 -3.0537813 1.4944792 13
5.6525259 -0.49498969 1.2852092 13.5
5.6703596 -0.20691185 1.405439 14
5.6663294 0.25933197 1.4115916 14
5.6239748 0.55654132 1.3174182 13.666667
5.8047791 -3.7681787 1.7710944 14.5
5.7751617 -3.5785146 1.847142 15
5.6474581 -0.54958904 1.653296 15
5.6763844 -0.039556041 1.7006204 15
5.6548643 0.15174119 1.7139139 15
5.6094942 0.55252337 1.6288798 15
5.7355571 -11.961629 2.2431011 12
5.8198242 -3.8239005 2.0660343 15
5.9926581 4.7459617 2.1696517 15
5.8857384 -13.316183 2.7747903 12
5.7441545 -11.493828 2.5038459 13
5.7912703 -13.222358 3.0782843 13
5.7559586 -12.520658 3.2799256 14
6.0452385 -5.721137 -0.14737062 7
6.3740907 -5.3398499 -0.051863372 7
6.3390555 -5.0625715 -0.029080138 7
6.3050399 -4.7767062 -0.018845499 7
6.0405192 -2.2811615 0.31775945 8
6.3743 -5.1497192 0.46101898 9
6.1362796 -4.1680713 0.47394601 9
6.0349813 -2.2099173 0.66597873 10
6.0219545 -2.2447391 1.0082636 11.5
6.338078 -4.846725 1.2536196 12
6.296546 -4.4980235 1.5984488 13
6.2740974 -4.3797646 1.2411298 12
6.0590339 -2.2891712 1.2809433 13
6.3226995 -4.6534677 1.823278 14
6.0553217 -4.1319852 1.7435999 14
6.0445385 -11.892511 2.2550547 12
6.3793426 -5.7390494 2.3796666 15
6.3724232 -5.2601624 2.3274176 15
6.3756003 -4.9740677 2.2123091 14.666667
6.3285255 -4.6802869 2.2607682 15
6.2835894 -4.340229 2.2191827 15
6.1108618 -8.7120914 2.6925733 14
6.1054206 -8.2747202 2.6543896 14
6.326858 -12.994052 3.3458056 14
6.5752611 -6.6653309 -0.16131049 7
6.4144197 -5.4362254 1.0325209 11
6.726913 -7.6787834 1.3621383 11
6.6789374 -7.2929525 1.3457929 11
6.4380407 -5.6345315 1.2782967 11
6.764092 -7.8879943 1.8947334 12
6.7021632 -7.4400992 1.8486828 12
6.6332288 -7.0157642 1.8057845 12
6.5386457 -6.2591338 1.8589057 12.5
6.4688993 -5.7760777 1.6942351 13
6.4104557 -5.3182368 1.6574664 13
6.7386923 -7.751493 2.1541891 13
6.6705537 -7.4330444 2.2439163 13.5
6.5999165 -6.9547954 2.2242334 13.666667
6.5782185 -6.5408945 2.1363068 13.5
6.5306001 -6.171998 2.2130952 14
6.4680099 -5.8884859 2.2713556 14.5
6.4346361 -5.4188361 2.1888878 14.333333
6.7868934 -9.6677103 2.6734309 13
6.6120319 -8.1061592 2.5826006 14
6.6118588 -7.6825962 2.6943581 15
6.6575732 -7.4592481 2.6639903 14.666667
6.6625543 -7.0711884 2.5677381 14.5
6.6137652 -6.6090679 2.5385599 15
6.5012369 -6.1101055 2.4483061 15
6.5269041 -13.034691 3.3159559 13
6.6158657 -12.673558 3.3411286 14
6.5494628 -11.850814 3.2779603 14
7.1846724 -10.829232 1.5204704 10
7.0617318 -10.136352 1.4811237 10
6.9939265 -8.8836823 1.3541844 10
6.8618503 -8.5663929 1.4038768 11
6.8309088 -7.1340151 1.3644626 11
6.8420105 -8.3811417 1.9483697 12
7.057725 -10.058103 2.1344533 12
6.9698358 -9.4326611 2.0617247 12
6.8661904 -8.974288 2.1564243 12.5
6.8795042 -8.70438 2.2766068 13
6.8126011 -8.2160969 2.2133257 13
7.089828 -12.118037 2.7166862 13
7.0749555 -11.47625 2.63398 13
7.1431379 -10.471381 2.5152204 13
6.8597555 -10.253914 2.7630262 13
6.9463201 -9.6831989 2.3967464 13
6.8990097 -8.955205 2.5975564 14
6.8711038 -8.5145435 2.5365689 14
7.0266538 -13.019596 2.830965 12
7.2269964 -11.142541 2.6075373 13
7.6683817 6.1749425 2.3500636 14
8.1660528 6.4889994 1.2659361 10
8.0275202 6.2878237 2.2596505 13
8.277729 6.4595056 2.124882 13
