# .PCD v0.7 - Point Cloud Data file format
VERSION 0.7
FIELDS x y z intensity
SIZE 4 4 4 4
TYPE F F F F
COUNT 1 1 1 1
WIDTH 537
HEIGHT 1
VIEWPOINT 0 0 0 1 0 0 0
POINTS 537
DATA ascii
-7.657145 -3.4750543 0.083849818 8
-7.6501565 -3.3917594 1.4768817 12
-7.6362815 -3.4802988 1.7043841 13
-7.6535568 3.7507102 2.275177 15
-7.7305121 4.1209512 2.2702436 14.333333
-7.7869477 4.512126 2.317023 14
-7.4953809 -3.8073943 0.038093522 7.6666665
-7.4840708 -3.8007562 0.52602464 9.3999996
-7.5475512 -3.5518987 0.50242406 9
-7.4528427 -3.8977895 1.3502153 11.75
-7.5599008 -3.5353208 1.3427551 12
-7.2641039 3.7322979 1.3720548 12
-7.5914311 -3.5338776 1.9347768 14
-7.5672927 3.3831828 2.2112894 14.666667
-7.4462752 3.7603493 2.3530335 15
-7.5253124 4.2620492 2.3570411 15
-7.3879962 4.5364151 2.2170331 14.25
-6.9928346 3.4868965 0.059566867 7
-7.059628 3.7604675 0.67964399 9.5
-7.0284171 4.1532607 0.76461101 10
-7.0539479 3.7735567 0.8211357 10
-6.9919019 4.1203322 0.99513221 10.666667
-7.0939136 3.8979704 1.4061233 12
-7.0560746 4.1196299 1.3701926 12
-6.9605975 3.5554781 1.8543838 14
-7.0672193 4.0176768 1.7066495 13
-6.8548722 2.8849761 1.9907304 15
-6.9798164 3.4131637 1.9846954 14
-6.9336219 4.1475954 2.3393788 15
-7.0259671 4.6361399 2.2424164 14.75
-6.5272779 -1.6870003 -0.10918373 7
-6.5041595 -1.7492284 0.14575419 8
-6.5298762 3.4986532 0.280305 8
-6.4818907 -1.7542282 0.45615914 9.666667
-6.5085931 3.4996021 0.46421835 9
-6.4947944 -1.7769941 0.8561877 10.666667
-6.6436362 4.2670045 1.0397866 10.666667
-6.4177523 -2.1366642 1.3334279 13
-6.4585819 -1.8418078 1.3866264 13.333333
-6.5072017 -1.48953 1.3817703 13
-6.6153131 4.2473059 1.3266184 12
-6.4717584 -1.8105559 1.6284404 14.5
-6.4827366 -1.5999532 1.5459565 14
-6.5947604 4.2654834 1.7135389 13
-6.6496158 4.7377396 2.2155588 14.666667
-6.4629297 4.7804646 2.3214667 15
-6.3001151 -3.0421011 -0.12670289 7
-6.3234696 -2.9861193 -0.0085647767 7
-6.3133187 -2.584841 0.029159361 7.5
-6.370852 -2.3420331 0.0059751966 7.5
-6.1014757 3.5489488 0.27514836 8.333333
-6.3409238 -2.7263682 0.44168943 9
-6.3886476 -2.0523412 0.68008524 10
-6.2397404 3.5571752 0.48139709 9
-6.2395 -3.309906 0.8245194 11
-6.3191872 -2.9964213 0.84451014 11
-6.3197727 -2.6209455 0.94319987 11.333333
-6.3688111 -2.2195785 0.88488954 11
-6.2169361 4.3394961 1.0918497 11
-6.0102177 4.3936911 0.85531414 10
-6.0703597 -3.6331804 1.3452559 12.5
-6.1980491 -3.5159247 1.3651016 12.5
-6.3476286 -2.6190989 1.3094879 13
-6.3596435 -2.241194 1.3112845 13
-6.3451838 -1.9732491 1.1660529 12
-6.247406 4.3342977 1.3829061 12.5
-6.1698713 -3.5664098 1.6673671 14
-6.3495669 -2.5369906 1.6882017 14
-6.3240237 -2.2847288 1.6839387 14
-6.3821583 -1.9881343 1.698369 15
-6.159503 -3.4724975 1.9492018 15
-6.26618 -3.0133851 1.9680049 15
-6.3097734 -2.7169452 1.9780107 15
-6.2302427 4.8181992 2.14201 14.5
-5.6306057 -3.0401049 0.19655751 8
-5.884028 3.5266516 0.24615768 8.5
-5.7972755 3.6472814 0.27299184 8.5
-5.7308278 4.8452544 0.28006139 8
-5.6153107 2.8767974 0.43769598 9
-5.7354546 3.8297799 0.66737926 10
-5.8538556 4.3071437 0.71017122 10
-5.7172484 4.497005 0.6460802 9.5
-5.752203 4.8953896 0.48066589 9
-5.6935816 -3.5417209 0.94273883 11.5
-5.7323027 4.4720325 1.0933336 11.25
-5.7738466 4.8806238 1.0847609 11
-5.7743969 -3.5568509 1.1901507 12.5
-5.8026786 4.464272 1.3553083 12.6
-5.7695689 4.8747435 1.3583988 12.333333
-5.8525758 -3.5686028 1.7441834 14.5
-5.6889315 4.4794679 1.6826857 14
-5.7907166 4.8777814 1.7666349 14
-5.7960701 4.9317045 2.2326815 15
-5.3464766 -3.0426357 0.15726739 8
-5.4727511 3.7838242 0.27224836 8.25
-5.285162 4.1691098 0.26374611 8
-5.3090391 4.7255363 0.30450037 8
-5.3356624 4.946167 0.31776363 8
-5.2892776 -3.024729 0.46640155 9.666667
-5.2635741 -1.8269379 0.46365172 10
-5.3024306 -1.5483019 0.34122369 9
-5.4357362 3.8703923 0.48489425 9.333333
-5.3230009 4.2767305 0.46044302 9
-5.325572 4.7159538 0.46851209 9
-5.3184128 4.8329115 0.58540761 9.5
-5.2271447 -3.445504 0.95173776 12
-5.3892779 4.6630073 0.8649193 10.5
-5.3104515 4.8849602 1.0982373 11
-5.5013628 -3.4946773 1.2412646 12.5
-5.3610845 4.7480159 1.3797702 12.666667
-5.2294703 4.9068942 1.314734 12
-5.3971634 -3.4641526 1.6487547 14.5
-5.323081 4.7115626 1.7006257 14
-5.3435187 4.9464078 1.7475995 14
-5.5081258 4.9917889 2.2043049 15
-4.9802604 -1.7951181 0.14585865 8.333333
-5.0410948 -1.4878786 0.092403583 8
-4.9784508 4.9917288 0.35032091 8
-4.8766322 -2.9669297 0.36356956 9
-4.9130468 -1.8391877 0.46228182 10
-5.0267811 4.7731686 0.59940547 9.5
-4.9651098 4.981451 0.62615258 9.5
-5.1962285 -2.9887295 0.74707425 11
-5.1032691 4.7414742 0.86534834 11
-4.9990458 4.9749541 0.94928455 11
-5.1021433 -3.4167385 1.3803734 13.5
-5.01828 4.9503479 1.341181 12.571428
-4.9488859 -3.3601165 1.6747565 15
-4.9996939 4.9340463 1.8036503 14.333333
-5.0688782 5.079596 2.1621749 15
-4.717443 -3.0607848 0.19529539 8.333333
-4.4378791 -1.7698863 0.07187929 8
-4.6060119 -1.459217 0.13909088 8
-4.4892001 -1.0593996 0.21368062 9
-4.4746022 5.0161295 0.26191756 8.25
-4.4575367 -3.2871227 0.6762231 11
-4.7423434 -3.0123465 0.50055087 10
-4.4223948 -1.8004242 0.44828159 10
-4.4239268 -1.3036855 0.61274648 11
-4.4590144 -1.2000574 0.62207401 11
-4.5103989 5.0564876 0.61467499 9.75
-4.4601064 -3.2740366 0.95129442 12.5
-4.5814881 -3.189728 0.88463461 12
-4.5348048 4.9657211 0.87203968 11
-4.634625 -3.3104525 1.3271624 13.666667
-4.5578694 4.998898 1.31783 12.6
-4.477139 5.2015014 1.2830101 12
-4.5931106 -3.2833686 1.5933987 15
-4.6137486 5.0350194 1.8828005 14.666667
-4.4633951 5.2139468 1.7387121 14
-4.2754474 -1.3324877 0.2526772 8.666667
-4.2854753 5.234036 0.32071638 8.333333
-4.1623197 -3.2213373 0.65438372 11
-4.3675218 -3.0720296 0.67521781 11
-4.3024206 -1.7745209 0.55874133 11
-4.377759 -1.5191354 0.59480232 11
-4.1929994 5.2557173 0.60033268 9.5
-4.1500483 -3.2104745 0.83952272 12
-4.2574244 -3.110971 0.87940502 12.5
-4.1764407 5.2675962 0.88853663 11
-4.1352739 -3.1996193 1.2919981 14
-4.2072845 5.2477727 1.3265716 12.5
-4.2804513 -3.2173758 1.5243392 15
-4.405818 4.9256215 1.6769501 14
-4.2455783 5.255084 1.866473 14.5
-3.7577446 5.3529239 0.33429164 8
-3.7670398 -3.128897 0.62640899 11
-3.8071597 5.3431563 0.61935556 9.5
-3.7392464 -3.1089046 0.91629416 12.75
-3.7954035 5.3455863 1.0148733 11.6
-3.8303642 -3.1240575 1.3031477 14.666667
-3.7972019 5.3359852 1.4001004 13.333333
-3.792285 5.3543863 1.9086244 14.666667
-3.3488522 -10.20659 0.067006767 8
-3.2401004 -4.9558482 0.018257437 7.5
-3.4471147 5.4263024 0.3486529 8.5
-3.2779284 -4.9873028 0.40110177 9
-3.3237288 -3.0334551 0.59524465 11
-3.3505745 5.4389772 0.63922209 9.75
-3.3895762 -3.0317595 0.89977872 13
-3.4095984 5.4321074 1.0027978 11.5
-3.4160619 -3.0378189 1.1657566 15
-3.412312 5.4229903 1.4405348 13.5
-3.4551389 5.414855 1.716167 14
-3.225682 -10.124784 1.8694636 12
-2.9937549 -4.9068723 0.098396882 8
-3.0341332 -2.6536765 0.27144486 9.5
-3.0973167 -2.246443 0.17813551 8.5
-2.9977829 5.5192447 0.42237476 9
-2.9780717 -4.9040513 0.47139037 9.5
-2.9422746 -2.9332564 0.5752266 11.25
-2.9693961 -2.6381974 0.45457354 11
-3.050014 -2.3099287 0.41354701 10.5
-3.0054846 5.5119972 0.73475826 10.2
-3.0265064 -2.9482138 0.9399302 13.714286
-3.0251672 5.512177 0.99868423 11.5
-3.010879 -10.117209 1.1421492 11
-3.0126114 5.5133152 1.4566221 13.5
-2.9765074 -10.107035 1.8519447 12
-2.8470461 5.5405884 1.7092054 15
-3.0593445 -10.085153 2.0482423 13
-2.5206416 -10.055824 -0.16559108 7
-2.6351807 -4.8319001 0.092233188 8
-2.4103365 -4.7564979 0.23492587 9
-2.7481546 -2.6633732 0.32268378 10
-2.6904531 -4.8380299 0.46010301 9.5
-2.7238307 -2.8841288 0.59573621 11.75
-2.4473143 -2.7451732 0.60873306 12.5
-2.7261963 5.5697598 0.65527171 10
-2.559402 5.6121459 0.63651073 9.833333
-2.5238874 -10.02317 0.82422334 10
-2.7004948 -2.8743443 0.93008643 14
-2.5010219 -2.7713869 0.89830929 14
-2.712709 5.5707569 1.13846 12
-2.5967326 5.6007609 1.070206 11.666667
-2.7290907 -10.044435 1.3803521 11
-2.4139798 -4.7380352 1.2672461 14.5
-2.7926986 5.556673 1.4581419 13.5
-2.5722859 5.6096187 1.4685405 13.5
-2.6072321 -10.056027 1.8243054 12
-2.7020266 5.5732288 1.7078112 15
-2.558013 5.6027637 1.7070059 15
-2.795984 -10.038057 2.1179526 13
-2.5954721 -10.008524 2.0998545 13.333333
-2.5382335 -8.6920118 2.4146941 15
-2.2577674 -10.024158 -0.15088198 7
-2.0310571 -4.670558 -0.11432955 7
-2.2338984 -8.5479755 0.13211758 8
-2.2201121 -7.8142047 0.048621126 7.5
-2.1738596 -7.3456497 -0.031277597 7
-2.1893368 -4.7119584 0.10215653 8
-2.0378873 -2.6171486 0.17692903 8.75
-2.147285 -2.325619 0.23623447 9.3999996
-2.267221 -9.9752111 0.43299493 8.5
-2.0990136 -8.4472303 0.51991791 9
-2.1816254 -8.1914291 0.58521903 9.5
-2.2750905 -7.8362255 0.58133936 9.5
-2.2926164 -7.3386059 0.50418001 9.5
-2.2152603 -4.7104759 0.53548664 10.5
-2.2219048 -2.6664069 0.54306811 12
-2.1907818 5.6855464 0.65175688 10
-2.2401073 -4.718874 0.9472208 12.5
-2.1857772 -2.6757634 0.90581745 14.6
-2.1909456 5.6835756 1.005752 11.666667
-2.1940923 -4.6975069 1.2402318 14.5
-2.2434669 5.6759286 1.4805828 13.5
-2.2410154 5.6800761 1.7088329 15
-2.2126727 -8.7111216 2.4096627 15
-1.9142225 -4.6755514 0.10611795 8
-1.8034197 -3.5126975 0.14062534 8
-1.9453447 -2.6160872 0.21117988 9.1999998
-1.9293793 -4.6552525 0.53624827 10.5
-1.8159921 -3.5141284 0.48732257 11
-1.8667712 -2.8289096 0.4996995 12
-1.9178852 -2.6541967 0.56534231 12.4
-1.7953298 5.7681141 0.5976215 9.5714283
-1.9152977 -4.6744337 0.98256338 13
-1.8349081 -3.5217717 0.88862026 13.5
-1.9086239 -2.6941302 0.85856968 14.5
-1.7891233 5.7707415 0.99994308 11.625
-1.9631263 -4.6485467 1.2048517 14.5
-1.7637236 5.7791409 1.4443882 13.4
-1.8217566 5.7676935 1.7099504 15
-1.5179795 -4.7686267 0.57555056 11
-1.432318 5.843832 0.58892465 9.6000004
-1.5509454 -4.7677503 1.0534973 13.5
-1.4154506 5.8454185 1.0064696 11.6
-1.4379274 5.8471308 1.435668 13.6
-1.4082688 5.8550167 1.7132446 15
-0.84683466 0.52173752 -0.022972407 6.5
-0.81120682 1.1811849 -0.018250179 7
-0.87649548 1.2452064 -0.018499253 7
-0.86096823 1.6043164 -0.033824157 6
-0.90044791 2.2116926 -0.060953833 6
-0.89176452 -13.684464 0.066275582 8
-0.90283376 -9.6696959 0.43381685 8.666667
-1.0484108 5.9211736 0.6507107 10
-1.0313727 5.9282427 1.0249673 11.6
-1.0558661 5.9288192 1.4666505 13.666667
-0.99426311 5.9219193 1.7146028 15
-0.98195666 -9.6603594 2.0703063 13.5
-0.57419991 -0.21217357 -0.013761128 7
-0.50299573 0.25207967 -0.019606512 6
-0.63651735 0.59714383 -0.023872448 6.25
-0.62821913 1.0239722 -0.0229572 6.1999998
-0.61497509 1.4095558 -0.026962437 6
-0.61163551 1.7099752 -0.036617469 6
-0.76165855 -9.6657 -0.048191313 7
-0.55462694 -0.61960632 0.0036643264 7.5999999
-0.68025964 -0.37495282 -0.004954739 7
-0.52414459 0.38278705 0.0028554902 7
-0.74150252 6.0086379 0.75121129 10.5
-0.44668165 3.9265387 1.0912018 14.5
-0.57677919 4.3224487 1.1548989 14
-0.63407725 4.7009749 1.079792 13.5
-0.74297458 5.087111 1.175684 13
-0.75739521 5.4977384 1.0068669 12
-0.70392609 6.0056458 1.0643783 12
-0.44617546 -9.7850914 1.7214127 12
-0.80691123 -9.6464891 2.0127454 13
-0.63658762 -8.6101141 2.4079735 15
-0.11014902 0.62773496 -0.024795085 5.75
-0.21448019 0.97139901 -0.032297611 5.8000002
-0.35788965 1.277596 -0.030672733 6
-0.35669506 -9.7638369 0.17160925 8
-0.35725763 -0.48895293 -0.0014216385 7.5
-0.24086362 -10.664853 0.51061463 9
-0.093387857 2.5942032 0.64321017 13.5
-0.32309625 3.1714098 0.97494423 15
-0.39810011 3.5384312 0.97531992 14
-0.27125409 -10.66358 1.8369814 12
-0.2841098 -10.725127 2.0355206 13
-0.23208132 -14.458508 2.3507879 12
0.054104373 0.5785085 -0.026366353 5.3333335
0.15784036 -3.3454757 0.28266937 9.75
0.34301144 -3.0867546 0.21190526 9
0.16595079 -3.3240004 0.52070081 11.857142
0.25880623 -2.4836032 0.50162518 13
0.37882614 2.3528645 0.55763155 13
0.23151672 2.5911119 0.6449784 13.5
0.15405028 -3.6507516 0.90226704 14
0.20889379 -3.4946177 0.92296904 14.6
-0.01133965 -12.862624 3.451365 15
0.28070521 -12.740777 3.4479976 15
0.75241125 -0.68918884 -0.0044187368 7
0.59879494 -0.16594294 -0.024439575 5.6666665
0.62822717 0.064634494 -0.029830985 5.2857141
0.72846001 -3.2203701 0.1655751 9
0.53352624 -2.1885583 0.29224777 11.25
0.67037982 -1.9559592 0.26415113 10.666667
0.70867682 -1.027737 0.35821849 15
0.72404975 -0.6422137 0.0067330026 7
0.70633686 -0.25877571 0.011788557 7.3333335
0.62973899 -3.5297091 0.45616347 11
0.5714494 -2.6623423 0.70171922 14.5
0.53765899 -2.1593213 0.41190088 12.4
0.47014865 2.3766439 0.52354658 12.5
0.56628942 2.6565416 0.70541823 13.75
0.66496056 2.7585614 0.86608392 15
1.0423709 -6.104898 -0.14699678 7
0.86520588 -0.90160936 -0.0064888508 7
0.90396631 -0.09691456 0.00041174743 7
1.0466051 0.24670619 -0.00072178524 6.5999999
1.142682 0.45957956 -0.0044726869 6.5
0.79941994 -3.1825664 0.17022344 9
1.1812636 -1.6152216 0.29712629 11
1.110371 -1.4295202 0.079335012 8
0.97744131 -0.97935617 0.17816553 10.636364
1.0628966 -0.7778151 0.33654255 14
0.89209849 -0.19042638 0.016007766 7.4000001
0.91534054 0.065329961 0.012843006 7
1.1433992 -6.041019 0.49284363 10
1.1805971 -5.965579 0.47188658 10
1.0000616 -5.2516236 0.52896214 10
1.1206272 -5.1744461 0.36199099 9
1.0555017 -2.22086 0.71660841 15
1.0009637 -1.8046747 0.48880389 13.5
1.1818118 -1.5994385 0.4525438 14
0.87556219 -2.8649461 0.79795969 15
1.5433578 -0.076605618 0.0014486286 7
1.3924872 0.28199565 0.0049725026 6.6666665
1.3537154 0.52648771 -0.00010176337 6.75
1.4201387 -2.9138494 0.20345251 9
1.4151759 -2.0059757 0.095687091 8
1.3728076 -1.8982532 0.050460696 7.75
1.2087805 -1.5988375 0.34897575 12
1.4304892 -4.965415 0.37837842 9
1.2019215 -1.6271443 0.54792714 15
1.1988904 -1.587224 0.44422969 13
1.5548548 6.0856771 0.77729416 10
1.4378395 -2.4893701 0.82475328 15
1.5616469 6.0892301 1.1742587 12
1.5469078 6.1034279 1.520983 13
1.6546431 -5.0951457 -0.065377101 7
1.7385088 0.63889599 0.015283132 7
1.9024647 0.91686654 -0.00044082134 7
1.9779055 -5.8467455 0.33565471 9
1.7769127 -4.0663424 0.14809085 8.25
1.805714 -3.8570855 0.19643143 8.5
1.9141088 -3.2673264 0.28006393 9
1.7819142 -1.8082875 0.31804967 10.428572
1.7488761 -0.89468068 0.125966 8.5
1.852738 -0.71012801 0.19831604 9.5
1.7634014 -5.1571178 0.60330236 10
1.9885164 -3.7846766 0.48611513 10
1.9921097 -3.4599988 0.69101214 12
1.8470719 -3.1883314 0.6964851 13
1.8282771 -2.0573854 0.43725434 11.333333
1.838125 -1.8163948 0.5456928 13.153846
1.9154721 -0.8258602 0.58995163 14.5
1.8212136 -0.68197262 0.47664535 14
1.7725029 6.1183457 0.69109213 9.5
1.7738283 -2.6036291 0.82742417 14.333333
1.8087966 6.1104212 1.0657587 11.5
1.7709504 6.1151891 1.5460148 13.4
1.7966083 6.1217074 1.9824342 15
1.9395404 -13.947068 1.9736161 11
1.7283442 -13.999451 2.3147526 12
1.648909 -12.041148 3.4331684 15
1.895056 -11.839224 3.4187686 15
2.0671077 0.51885462 0.023977367 7
2.1502376 1.0654482 -0.0033501207 7
2.226516 -3.6180813 0.27329528 9
2.2814989 -3.3207796 0.38268766 10
2.0443075 -3.1571958 0.29515705 9
2.1991229 -0.59271473 0.32371747 10.888889
2.1534128 0.31905344 0.029016815 7
2.1226711 -3.6897471 0.48364368 10.5
2.2620134 -3.5788012 0.48787588 10.5
2.1647537 -0.57307994 0.55739832 14
2.387903 4.4711485 0.66761243 10
2.3550668 6.0770473 0.81187445 10.5
2.0957575 5.9786906 1.0042567 11
2.2148504 6.0731945 1.0662733 11.333333
2.1448328 5.9675612 1.6387463 14
2.2316766 6.0555158 1.6202425 13.666667
2.3367755 6.1776385 1.7530259 14
2.1940072 -13.881846 2.0854831 11.5
2.2263958 -11.248994 2.0997188 13
2.1788352 -13.892897 2.3179069 12
2.1313076 -12.031004 2.4292743 13
2.2855301 -11.225961 2.5138679 14
2.6832533 1.0221944 -0.0071969847 7
2.6610892 1.3708187 -0.017493842 6.5
2.5396187 -5.3057604 0.048219156 7
2.6761672 -0.48534048 0.28190461 9.7142859
2.7366536 -0.38940936 0.37070748 11
2.7774374 0.25306979 0.28750753 10
2.7808504 2.7379587 0.40599933 9.5
2.621546 3.0008426 0.38451669 9
2.6323256 3.4319239 0.4085311 9
2.5741482 3.6976633 0.42745879 9
2.4909089 4.0608487 0.45297351 9
2.7760789 -3.2175148 0.53712922 11
2.6147265 -0.48138073 0.58344352 13
2.7217054 -0.39310101 0.61486566 13.333333
2.6438825 0.28038287 0.6674701 13.666667
2.7346547 2.7576506 0.6052081 11
2.6100361 3.0048831 0.66335273 11.142858
2.6219749 3.420768 0.61251765 10.666667
2.5475075 3.7987154 0.6595667 10.833333
2.4737928 4.101192 0.60810816 10
2.5897593 6.1153569 0.71207643 9.5
2.6258931 -0.50953561 0.81973594 15
2.7789071 2.6951027 1.0422091 14
2.6247628 2.9940436 1.0686951 14.111111
2.6138837 3.4583929 0.99109191 13
2.5489712 3.754699 1.0797584 13.166667
2.4564788 4.1045718 1.0074303 12.5
2.6193366 6.1134939 1.1053858 11.5
2.592638 3.4487431 1.3384157 15
2.5245163 3.8181353 1.3692627 14.666667
2.4540195 4.117178 1.4044957 14.5
2.4915931 6.0897274 1.5322858 13.25
2.5124457 6.1185985 1.8961596 14.666667
2.8175323 -4.6276841 -0.013891866 7
2.8511178 -0.91125286 0.26753101 9.5
2.9562726 -0.37774616 0.29654363 9.5
3.1539814 1.0162791 0.23763981 8.5
3.0503044 1.4276056 0.24756017 8.5714283
2.9975853 1.8001885 0.316836 9.3999996
2.9108393 2.1938283 0.36048445 9.5
2.8338141 2.5384619 0.37425455 9.333333
3.0270898 -0.37032047 0.63589287 12.6
3.1535578 1.0170898 0.62498671 12
3.0713475 1.4111372 0.6345579 11.777778
2.9900093 1.7718227 0.67135453 12
2.9010282 2.1939731 0.66807508 12
2.8211353 2.5448768 0.68901128 11.714286
3.0337708 6.2572441 0.72639477 9.5
3.0242958 -0.34949893 0.89211178 15
3.1490426 1.0083599 0.93073517 14.5
3.0702403 1.3963783 0.98004794 14.6
2.9855182 1.7915921 0.98195767 14.333333
2.9050736 2.1569009 1.0352315 14.6
2.8259664 2.5467987 1.0627333 14.25
2.9219608 6.2215838 1.1069838 11.25
2.9199715 6.2416415 1.6277246 13.333333
3.1497045 5.7181602 2.0852549 15
2.9631793 6.2701111 1.8554915 14.333333
3.1723378 -11.036411 2.0034873 12
3.2403793 -5.6979966 -0.13726567 7
3.3252499 0.16644818 0.02479694 7
3.385339 -5.1609507 0.082312033 8
3.3774855 -3.2989683 0.21974114 8.5
3.5716343 -2.865171 0.053455267 7
3.5749643 -2.5427997 0.018402129 7
3.2861331 -0.17731954 0.23659091 8.75
3.3258717 0.19926192 0.24904822 8.75
3.2550361 0.59339011 0.23256727 8.7777777
3.203207 0.84816349 0.26115936 9
3.3018019 -0.19723281 0.65499687 12.444445
3.3163385 0.20055169 0.66654968 12.444445
3.2501199 0.59059787 0.64317209 12.222222
3.1987834 0.87487131 0.73471546 13
3.4256091 6.3506303 0.7589947 9.666667
3.2946465 -0.18949336 0.91401041 14.5
3.3117661 0.21059501 0.91053659 14.5
3.2399404 0.62930644 0.92603666 14.666667
3.1993296 0.83967036 0.97956324 15
3.3570769 6.3434997 1.1368638 11
3.5243855 6.4099655 1.265229 12
3.5865231 -2.7872767 1.2430925 15
3.2538531 6.3346262 1.7490449 14
3.486397 6.4003973 1.9596353 14.5
3.4610579 -10.949413 1.9813634 12
3.6822674 -2.7552936 -0.01371144 7
3.895632 -2.2353013 -0.033472065 7
3.6122279 -2.839895 0.20419635 8.5
3.794076 -2.6146035 0.1744542 8
3.879513 -2.2184341 0.22897059 8.5
3.6260376 -2.8568134 0.72531378 11.5
3.8350499 -2.6386635 0.62095332 11
3.8822122 -2.1900878 0.61807615 11
3.646956 -1.217743 0.77011251 13
3.595196 6.3792109 0.64347506 9
3.6587403 -2.9891105 0.95809829 12.5
3.8916135 -2.6073482 1.0470167 13.25
3.8836436 -2.1816323 1.0001431 13.5
3.6702669 -1.2154132 1.0581266 15
3.6513374 -1.1690309 0.99699664 14
3.6372154 6.4046383 1.0698854 11
3.6207688 -2.9305427 1.2703831 15
3.8204086 -2.6610045 1.2654897 14.5
3.9181273 -2.3191369 1.2338941 14.5
3.8285561 -11.233714 2.4112546 13
4.0102773 -2.6704862 1.3784846 15
4.5284967 -13.275066 0.27792424 8
4.7502112 -6.0384688 0.6368283 10
4.6445012 -5.6321917 1.5691277 13
4.6344228 -5.5697279 1.3634344 12
4.392766 -4.4072657 1.7548267 15
4.7145557 -5.9057903 1.9916016 15
4.6359296 -12.859936 3.0159881 13
5.1934023 -7.8462148 2.3298361 14
5.2302008 -10.579277 2.4563353 13
5.7820349 -12.601585 3.1173148 14
