# .PCD v0.7 - Point Cloud Data file format
VERSION 0.7
FIELDS x y z intensity
SIZE 4 4 4 4
TYPE F F F F
COUNT 1 1 1 1
WIDTH 95
HEIGHT 1
VIEWPOINT 0 0 0 1 0 0 0
POINTS 95
DATA ascii
-7.9078555 4.3168249 1.4622018 12
-7.3854847 -2.6996288 0.98585379 11
-7.3953304 -2.2020032 1.2387986 12
-7.3429403 -2.4158859 2.0030599 15
-7.4118638 -1.4615026 2.1312037 15
-7.1089416 4.8327179 2.2962072 15
-6.82692 3.6045802 0.3826175 9
-6.748065 3.7139199 0.67567003 10
-6.4217253 3.7881286 0.22180507 8
-5.4596176 4.9012413 1.0315032 11
-5.5980825 -10.327394 2.0076444 12
-5.4858742 5.0135808 2.1570942 15
-5.3577132 4.9843211 0.22723262 8
-5.3620777 5.2102308 0.41376653 9
-5.3508997 5.2359929 1.3438857 12
-5.4054832 4.9197392 1.5586535 13
-5.1867294 5.2577925 0.09449856 7
-5.1557584 5.2628107 0.78006524 10
-4.9342027 5.3075051 0.2963993 8
-4.856308 5.3368616 1.6741853 14
-4.7503796 5.3623543 1.5481836 13
-4.1608233 5.4591937 0.38424054 9
-4.1814642 5.4841037 1.5620769 13
-4.180871 5.4688487 1.6175832 14
-3.8725979 5.5136862 0.62735736 10
-3.6740503 5.5607476 0.2809687 8
-3.4695659 5.6126628 1.5789101 14
-2.9175215 -2.6941743 0.18945402 9
-2.9255624 5.7176089 0.55836833 9.5
-2.8635454 -2.7454946 0.60168076 12
-1.0057949 -1.1342258 0.37426236 14
-1.06089 2.5473082 0.39690498 11
-1.119329 2.5516319 0.45653048 12
-1.1167012 2.5453904 0.68901294 14
-0.98621613 -1.1209757 0.29545191 13
-0.86097986 2.599735 0.54633522 13
-0.78555512 2.6022239 0.48872513 12
-0.78787637 2.6071303 0.66883504 14
-0.67306799 2.6123621 0.8316958 15
-0.55054587 2.3071508 0.48752642 13
-0.46588391 2.5184398 0.67080337 14
-0.50617683 5.8477206 0.71952695 10
-0.52279186 5.8585262 0.93962276 11
-0.40025169 2.3285387 0.44803914 12
-0.39724553 2.6809387 0.58445674 13
-0.2921513 2.7133837 0.70841885 14
-0.12061246 2.7653077 0.63573247 13
0.040400393 5.9443331 0.77941144 11
0.40755564 6.0444722 1.4414467 13
0.71665615 -1.9003749 0.24885206 10.5
0.70775151 -1.8732555 0.44036183 13
0.80596924 -3.4977722 -0.0022537769 7
0.80564892 -1.8069743 0.3185755 12
0.82298559 -1.771793 0.27284035 11
0.98477978 -1.8227423 0.57397616 15
0.91968834 -1.7875866 0.44998753 13.5
0.87285167 6.0972705 1.6755596 14
1.0438949 -1.7047458 0.28617033 11
1.168278 -0.59972429 0.37373191 15
1.2782577 -0.60507059 0.37687176 14
1.3093717 -0.56171358 0.36153954 14
1.5854707 3.781085 0.76972872 12
1.5319728 4.0378923 0.70175898 11
1.5205888 4.0547919 0.89041418 13
1.5292709 4.0557303 1.0700912 14
1.5258125 4.0410795 1.2688357 15
1.6266474 -0.62021631 0.32503122 12
1.7415683 -0.4658266 0.47292623 14
1.6798248 2.8378634 0.44658318 11
1.6916381 2.7710488 0.74456358 13
1.6430153 3.0508516 0.69372499 12
1.6433365 3.5322995 0.65121114 11
1.6254644 3.0879912 0.90512419 14
1.6453371 2.9793987 1.0585965 15
1.9933681 1.9111574 0.37121293 11
1.8299652 2.6670282 0.42757586 10
1.8364302 2.6454947 0.50046283 11
1.7977695 6.1315799 0.59975845 9
1.982211 1.9572475 0.80162805 15
1.8393364 2.644336 0.6495741 12
1.8490971 2.6774001 0.95492935 14.5
2.0695999 1.5171157 0.3388885 10
2.0919001 1.6186785 0.70715559 14
2.2161806 0.75602466 0.15856138 9
2.3495462 -0.37041989 0.27395174 10.5
2.2811985 -0.061843775 0.34467542 11
2.204478 0.76793408 0.2875874 10
2.3269479 -0.42122555 0.51425862 13
2.2766614 -0.064768545 0.46325201 13
2.3226953 -0.39378193 0.73054975 15
2.2844584 -0.075915627 0.62723964 15
2.2758696 0.668679 0.70949626 15
2.3997662 0.055081952 0.17716429 9
2.4095728 -0.011349102 0.61231923 14
2.7977004 -1.7703745 0.18264477 9
