# .PCD v0.7 - Point Cloud Data file format
VERSION 0.7
FIELDS x y z intensity
SIZE 4 4 4 4
TYPE F F F F
COUNT 1 1 1 1
WIDTH 505
HEIGHT 1
VIEWPOINT 0 0 0 1 0 0 0
POINTS 505
DATA ascii
-8.5573263 -3.7345619 0.13936479 8
-8.5974693 -3.5173395 0.15913698 8
-8.5009079 -3.7054877 0.49143526 9
-8.5880251 -3.3467269 0.50801826 9
-8.4719095 -3.7851839 1.0369428 11
-8.6011333 -3.3748882 1.0679586 11
-8.5189915 -3.73069 1.3204554 11
-8.5800076 -3.4100976 1.3574957 11.5
-8.6351995 -3.7556405 1.7575368 13
-8.6688194 -3.3968806 1.7745124 13
-8.6680336 -3.4190984 2.2808719 14
-8.5649719 3.9606185 2.2925682 14
-8.62642 4.2298737 2.3542166 14
-8.4803362 3.5575478 2.4779544 15
-8.6808729 4.5040874 2.416558 14
-8.0135384 3.8824193 0.46333775 9
-8.0273876 3.8916099 0.85164398 10
-8.0165539 4.1184921 0.87505805 10
-8.1340332 3.9149075 1.4846199 12
-8.0165701 3.9372489 1.8307201 13
-8.0196371 4.0091329 1.7038766 13
-8.2195511 3.8915658 2.5090115 15
-8.3386736 4.5813575 2.3907588 14
-8.0007572 4.1174555 0.49387249 9
-7.9221206 4.2519274 1.0210971 10.5
-7.9675226 4.1752472 1.3481355 11.5
-7.8661284 4.297215 1.7722294 13
-7.8799949 4.5658464 1.8909513 13
-7.8694119 4.0574827 2.4917264 15
-7.2766409 -3.1588938 -0.084233798 7
-7.383584 -2.1670794 -0.08966893 7
-7.3218808 -2.9724028 0.051139668 7.5
-7.3103633 -2.5775709 0.083832264 7.5
-7.4770551 -1.77099 0.17976329 8
-7.2364101 -3.3907342 0.70181304 10
-7.281518 -3.2031343 0.71670377 10
-7.3367891 -2.6253281 0.48256925 9
-7.2361379 -3.4343238 0.93717206 11
-7.344182 -2.9208076 0.73970079 10
-7.359179 -2.5604086 0.87651813 10.5
-7.3657041 -2.1659548 0.89448339 10.6
-7.4382777 -1.8931184 0.91412818 10.666667
-7.3678379 4.335021 1.0530695 11
-7.2389016 -3.4634225 1.1774108 12
-7.3603859 -2.6404369 1.2452949 12
-7.3759708 -2.1710837 1.2240384 12
-7.360703 4.3532643 1.5117762 12
-7.2802434 -3.3586371 1.7694881 14
-7.3613749 -2.9804733 1.7881241 14
-7.3856082 -2.5855951 1.7300164 13.666667
-7.3663225 -2.2511034 1.7375143 13.666667
-7.452939 4.3246164 1.7478873 13
-7.3150315 -3.3742578 2.1493855 14.666667
-7.3736129 -3.0108986 2.2292929 15
-7.3867335 -2.6353638 2.1558208 15
-7.4216204 -2.135479 2.1303098 15
-7.4831076 -1.7670697 2.1179948 15
-7.5284328 -1.4554741 2.0721385 15
-7.5856104 -1.1950471 2.0968776 15
-7.6074419 4.2576556 2.4973903 15
-7.3434477 4.4431443 2.4996545 15
-6.9632597 3.6058414 0.22396888 8
-6.8421373 4.8859434 0.14309433 8
-7.151557 4.3733635 0.74299151 10
-6.8445354 4.4275713 0.67310774 9.5
-7.1159139 -3.5515177 0.97480756 11
-7.1756563 4.3630233 0.89273238 10
-6.9715929 4.4171557 1.021238 11
-6.8742599 4.8615541 0.97741079 10.5
-7.0006785 -3.5430424 1.147671 12
-7.0176935 4.4208593 1.4438903 12
-6.8352742 4.9106927 1.5248044 12
-7.1614399 -3.5434737 1.5235693 13
-7.1133385 4.3413806 1.9401093 14
-6.9836373 4.4595084 1.7997257 13.333333
-6.8680639 4.8543987 1.632228 13
-7.0773001 -3.6261697 2.1860652 15
-7.1028337 -3.4353342 2.0774882 14.666667
-7.2049384 -2.9293728 2.1382353 15
-6.9624777 3.0815077 2.2287881 15
-6.8217626 4.878346 2.2729647 15
-7.1405826 4.6575794 2.5193365 15
-6.5572853 -3.0527809 0.2110846 8
-6.5491886 3.7432792 0.28430295 8
-6.7572079 4.8812022 0.28931844 8
-6.6020942 3.8125246 0.58494318 9.3999996
-6.5852766 4.1802635 0.50180709 9
-6.549509 4.5437436 0.67099196 9.333333
-6.6187663 3.7575424 0.90814561 11
-6.6712213 4.4656901 0.97174674 10.5
-6.654439 4.903594 1.0709373 11
-6.4866495 -3.4112725 1.4185877 13
-6.6222353 4.4999599 1.3829216 12.25
-6.6509089 -3.4487188 1.8622695 14
-6.6526661 4.4550219 1.7822464 13.5
-6.5529804 4.8749051 1.8265194 13.5
-6.6374378 -3.5865786 2.0703902 15
-6.7265 3.2823038 2.2333333 15
-6.6587176 4.8792267 2.1310854 14.5
-6.1463366 -3.0071216 0.083378755 7.5
-6.1510248 -1.8419237 0.18030778 8.5
-6.2948742 3.9206309 0.24292235 8
-6.2094073 4.1299987 0.22562508 8
-6.29739 4.7685828 0.24735159 8
-6.0052738 5.0482187 0.16521139 8
-6.3715663 -2.9646785 0.454777 9
-6.2518053 4.7426248 0.57658488 9
-6.2161803 4.823957 0.69628525 10
-6.3801594 -3.4106343 1.0796285 12
-6.2839618 4.7355437 0.8023172 10
-6.182775 4.8044019 1.0499556 11
-6.2899346 4.7697439 1.4803001 12
-6.1183896 4.9140162 1.4069693 12
-6.1774492 -3.3461287 1.665255 14
-6.2145329 4.8661866 1.8008999 13.5
-6.4100614 -3.3933539 2.020448 15
-6.1668835 4.9886537 2.2239919 15
-5.7325416 -2.9971926 0.18097655 8
-5.9377208 -1.917347 0.0712668 8
-5.7026525 -1.5509015 0.13204879 8
-5.9741359 4.7875814 0.14580053 8
-5.7916656 5.0852528 0.21947354 8
-5.7542539 -2.947401 0.55073065 9.666667
-5.9854069 4.7772298 0.59159309 9.5
-5.8756919 4.9849515 0.63130122 9.6000004
-5.8617234 -3.3059351 1.0223731 12
-5.8678446 5.0026441 0.92492068 10.75
-5.8315744 -3.2801247 1.4111382 13.5
-5.8659391 5.0223703 1.4558299 12.6
-5.8941665 -3.2896171 1.90053 15
-5.8609385 5.0191722 1.8465017 13.666667
-5.742053 4.9992094 2.1805792 15
-5.4462719 -1.7832137 0.28484625 9
-5.4112678 -1.5162499 0.080693394 7.5
-5.3488698 5.0810137 0.24889621 8
-5.2750716 5.2315531 0.27700201 8
-5.4475684 -3.226877 0.5939818 10
-5.4286227 -3.0413544 0.6020149 10
-5.3018217 -1.8467901 0.49649048 10
-5.374064 -1.5008183 0.53018111 10
-5.3780193 5.0800118 0.63274491 9.666667
-5.3051658 5.2341385 0.63055271 9.5
-5.4337754 -3.2214739 0.89494359 11.666667
-5.4239798 -3.0303886 0.82102698 11
-5.3898911 4.8979592 0.9327687 11
-5.3886571 5.2206292 0.96977895 11
-5.3444705 -3.1800375 1.3308713 13.5
-5.3217607 4.9589915 1.3924232 12.5
-5.3813348 5.2358699 1.5392718 13
-5.3977828 -10.325009 1.6948091 12
-5.4443908 -3.198108 1.7966939 15
-5.3233986 4.8995876 1.6837016 14
-5.3168626 5.2268119 1.6797448 13.5
-5.2788792 -10.301471 1.9810761 12
-5.4080939 5.1760559 2.1877835 15
-5.4742074 -10.337611 2.2976434 13
-4.8504553 -10.353657 -0.11996697 7
-5.021822 5.2860889 0.21004325 7.5
-5.0113845 -3.1347337 0.57079852 10
-5.0044813 5.2928391 0.60670757 9.5
-4.9525375 -3.1359186 0.81913823 11.333333
-5.0797153 5.280221 0.95631939 10.666667
-5.1154189 -3.2599249 1.5289233 14
-4.9219537 -3.0956309 1.2622172 13.5
-5.0354466 5.3020849 1.4538339 12.5
-4.8510237 -10.366817 1.8658395 12
-4.9658346 -3.1624963 1.6205369 15
-5.0390205 5.2717867 1.8386136 14.5
-4.9837484 -10.253703 2.1463997 12.666667
-5.1930027 5.2150578 2.1762624 15
-4.5572844 -2.2976105 0.15214452 8
-4.599524 5.3687692 0.34157914 8
-4.6273513 -3.0535886 0.63605791 10.5
-4.5502486 5.3858867 0.60411787 9.3999996
-4.5016665 -10.156701 1.0011846 10
-4.6457477 -3.0564625 0.99680263 12.5
-4.60461 5.3805037 0.95694852 11
-4.4800482 -3.0061288 1.3451176 14.5
-4.6100559 5.3862829 1.4705077 12.5
-4.5386305 -10.297245 1.8136152 12
-4.6921177 -3.0452735 1.6263838 15
-4.6111321 5.3597569 1.8012661 14.4
-4.5854282 -10.176285 2.0588486 12.5
-4.643054 -8.9444885 2.2835073 14
-4.6017795 5.3321552 2.1483734 15
-4.5071754 -9.1592665 2.3000479 14
-4.0470519 -2.6244633 0.22744723 8.666667
-4.088778 -2.2814198 0.17583062 8.333333
-4.1812444 5.4594512 0.3052184 8.25
-4.2864237 -2.9988549 0.62464106 10.666667
-4.0367823 -2.6670253 0.35718897 9.5
-4.0485477 -2.3174088 0.39431646 10
-4.2245235 5.4514232 0.5930137 9.666667
-4.2025986 -2.9585786 0.92155802 12.333333
-4.2480288 5.4553885 1.0117313 11.2
-4.1750169 -2.9787195 1.3419989 14.666667
-4.2009282 5.4740205 1.5911316 13.5
-4.3181758 -10.266699 1.8207017 12
-4.3158407 5.4207673 1.8399396 14.666667
-4.3853374 -9.4100389 2.321907 14
-3.8121133 -2.478724 0.13113098 8
-3.9124362 5.5089788 0.33251283 8.5
-3.6688728 -10.035956 0.48748565 9
-3.8618701 -2.9006972 0.57374871 10.5
-3.7420695 5.5485258 0.53316623 9.333333
-3.8528905 -2.8831007 0.91742992 12.5
-3.8218865 5.5375781 1.0417805 11.5
-3.8912492 -2.917516 1.2841105 14.666667
-3.8137891 5.5417209 1.4943238 13.4
-3.644546 5.588737 1.5755355 14
-3.7912326 5.5047212 1.9409636 15
-3.439317 -7.3863268 0.21521138 8
-3.5278635 -6.9199862 0.22252452 8
-3.2028813 -2.7616324 0.10097771 8
-3.2821085 -2.3277037 0.20096561 8.5
-3.2132099 -1.5497663 0.14895298 9
-3.5061893 5.5936556 0.30058011 8
-3.3463206 5.6347556 0.31917694 8
-3.3524685 -8.2414904 0.43836075 9
-3.4244528 -7.6565957 0.43745309 9
-3.5739191 -2.8320463 0.64979374 11
-3.5639966 5.5874295 0.68303752 10
-3.3678014 5.6282654 0.53610063 9.333333
-3.3832877 -2.7013836 0.97365451 13.333333
-3.5966499 5.5753574 1.1808864 12
-3.3773782 5.6236687 1.0595541 11.5
-3.3740597 -2.7228291 1.2152246 15
-3.3792305 5.6266923 1.4426823 13.333333
-3.4932315 5.5686302 1.9421002 15
-3.2708957 5.6134696 1.7609725 15
-3.1994081 -7.3568244 0.02415939 7
-2.9172697 -2.8298395 0.15474261 8
-2.9869313 -2.6269236 0.20734635 8.8888893
-3.0660319 -2.341958 0.2366707 9
-3.0220785 5.6958709 0.35568979 8.5
-3.0361331 -2.6047993 0.56225115 11.5
-3.0117118 5.7004657 0.59201908 9.6000004
-2.979923 -2.655184 1.019341 14.5
-3.0172422 5.6983457 1.0311973 11.5
-3.0104902 5.7022195 1.4853514 13.5
-3.0520811 5.653645 1.8552585 15
-2.561455 -4.7925205 0.44868839 10
-2.7829969 5.715735 1.7767898 15
-2.1692512 -9.6952868 2.1812291 14
-2.1906714 -13.908607 2.3634295 12
-1.9197458 -12.222404 2.379107 13
-1.2748954 1.3168679 -0.10170421 5
-1.3059134 1.7419362 -0.11639621 5
-1.3729845 2.3642557 -0.14498459 5
-1.5044904 2.538348 -0.14654352 6
-1.298161 -12.340714 0.39293116 8
-1.3511623 -10.7078 0.39731288 8
-1.3444667 -10.696047 0.71148163 9
-1.3942963 -10.689609 1.9149461 12
-1.2514941 -10.914311 2.3507462 13
-1.46332 -10.737951 2.3266556 13
-0.88175225 -0.445739 -0.018462092 7
-0.90610945 0.77553374 -0.056940679 6
-0.99887472 0.99254668 -0.071241245 6
-1.0220968 1.3557302 -0.085946731 5.75
-0.9429245 1.7794183 -0.092720956 6
-1.0448185 2.1964092 -0.097253636 5.5
-1.0576934 2.5430233 -0.055716101 6
-1.0674918 5.6236405 -0.13780716 6
-1.0112509 -1.0718741 0.34566015 14
-0.89103037 2.2199032 0.016657136 7
-0.96446699 2.5716963 0.40782985 11
-0.99420393 -1.1185037 0.43007988 15
-0.95050389 2.574074 0.59672302 13.181818
-0.96153873 2.5653715 0.82651788 15
-0.79613286 -0.41607422 -0.021126358 7
-0.5806005 -0.28181782 -0.021972056 6.4000001
-0.45552558 0.36973846 -0.041160475 5
-0.61803406 0.60620385 -0.048758596 5.4000001
-0.57164544 0.98009801 -0.057825707 5.4000001
-0.59722251 1.4059473 -0.064727351 6
-0.63227385 1.8095492 -0.08059518 6
-0.49755713 2.2021353 -0.094431981 6
-0.67305338 2.6249731 -0.085806005 6
-0.43300277 3.2121909 -0.13138779 6
-0.54927742 3.6766727 -0.15653378 6
-0.44254506 -7.0404739 0.32636657 9
-0.43262678 -3.3193655 0.34755313 10
-0.59119684 -2.9857616 0.28926268 10
-0.65289968 -0.99791074 0.30839166 14.6
-0.71814066 2.6495018 0.054986533 7.5
-0.46560392 -6.9432521 0.47088686 9
-0.501688 -3.7559423 0.53621089 11.333333
-0.60570413 -3.3308954 0.44831651 11.333333
-0.5492081 2.3535209 0.48024812 12.333333
-0.61343372 2.5612595 0.60288924 13.307693
-0.46017823 5.8557816 0.71990019 10
-0.69505697 -3.5294628 0.94991362 14.5
-0.77006805 2.6032457 0.83131588 15
-0.49329945 5.8594046 1.0770925 12
-0.47402596 5.832211 1.5168946 14
-0.43303123 5.8104544 1.6540383 15
-0.73552758 -8.9742804 2.6350403 15
-0.3869926 0.33931938 -0.036450505 5
-0.2239444 0.60945642 -0.050875772 4.5714288
-0.17950515 0.9977231 -0.056195851 5
-0.17806047 1.4036865 -0.056422651 5.8000002
-0.21338059 1.8151804 -0.065582596 6
-0.18438536 2.2176881 -0.076222084 6
-0.34773931 2.8736587 -0.11515771 6
-0.39659271 -6.9046998 0.19706532 8
-0.1451398 -3.2636821 0.2596502 9.5
-0.25172713 -2.0560112 0.36528188 12
-0.30323201 -1.9488449 0.20702305 10.333333
-0.37011516 -1.0246661 0.28421238 15
-0.3136571 -7.16084 0.47810566 9
-0.3515245 -3.4508348 0.4017075 10.5
-0.12145362 -2.874181 0.73521835 14
-0.16088691 -2.488215 0.65887046 15
-0.17738101 -2.1747911 0.52254039 14
-0.27658838 2.6956193 0.6682781 13.666667
-0.18840881 5.9051747 0.77518153 10.333333
-0.30666083 2.6975782 0.84592587 15
-0.1986199 5.9133105 1.0538342 11.8
-0.23528254 5.868741 1.5869061 14
-0.19817561 5.8652205 1.6747035 15
-0.32309127 -8.8746662 2.5773573 15
-0.1188631 -8.8080454 2.5471494 15
0.19777654 0.5734024 -0.03220062 5.1111112
0.11645004 1.0166806 -0.04891213 5.5
0.03819076 1.3519733 -0.053142507 5.6666665
0.32028472 -5.2922201 0.084453523 8
0.32358944 -5.0076237 0.043692321 8
0.04594329 -1.6260597 0.23071973 11.5
0.34514669 -5.0274177 0.47892347 10
0.39561042 -2.9766266 0.45549923 12
0.23694351 -2.5157261 0.72881347 15
0.37939578 -2.1795719 0.62314773 15
0.092944637 5.9652162 0.75090587 10
0.28592888 6.0059333 0.77658677 10
0.13061161 5.9678717 1.0690984 12
0.27708426 6.0084014 1.0620867 11.75
0.15082605 5.9475722 1.5169262 13.666667
0.21580519 5.9978786 1.5429096 14
0.1776081 5.9419584 1.7058027 15
0.3864665 5.9924784 1.7259792 15
0.084670804 -8.5687094 2.4757781 15
0.70473266 -4.0684834 -0.062795661 7
0.53732896 -0.45668867 -0.013977011 6.5
0.56991047 -0.17898658 -0.028217474 5.5833335
0.61371154 0.050844461 -0.03319037 5.2857141
0.63932544 -5.9097633 0.07840807 7.5
0.44228283 -5.2700181 0.085199103 8
0.51328504 -5.0907803 0.15380727 8.5
0.75290644 -4.0559959 0.095473915 8
0.42997196 -2.9737451 0.17915644 9
0.62788117 -2.0163968 0.21754403 10
0.72159845 -1.9192716 0.27077812 11
0.64976817 -0.90887773 0.15005632 11
0.61112839 -0.62752175 0.011648164 7.5
0.76378071 -0.23172204 0.016604658 7.5
0.7940318 0.10865992 0.016112084 7
0.76981479 -5.9343538 0.42104644 9
0.52653027 -5.062191 0.46129745 10
0.54595971 -2.9447222 0.49182636 11.666667
0.64797437 -2.5718594 0.68052733 14.5
0.58419186 -2.0595045 0.48163375 13.75
0.73551333 -1.8432438 0.46394789 13.8
0.5823909 6.0508699 0.76783216 10.333333
0.68341053 -2.6448803 0.8027553 15
0.5706982 6.0502405 1.0954664 11.8
0.60074455 6.0386248 1.4693891 13.333333
0.64052814 6.0434103 1.7186422 14.666667
0.77426261 -12.023457 2.3883429 13
0.66002196 -11.387678 2.4224546 13
0.80369651 -6.0684414 -0.10832801 7
1.1914438 -0.094716221 -0.0018646437 7
1.0238467 0.24033675 -0.0059839105 6.6666665
0.87805581 -4.0843878 0.12094977 8
1.0375918 -3.5108008 0.027337832 7.3333335
0.95646024 -1.8061516 0.24323285 10.545455
0.8579554 -1.5558442 0.061617523 8
0.89742601 -0.96924758 0.14039104 10.125
1.0378323 -0.64647442 0.13723932 10.333333
0.8684355 -0.15974948 0.01838785 7.6666665
0.92976391 0.10660247 0.013147084 7
0.90673184 -5.9206371 0.43290323 9
1.1204972 -5.2437854 0.60381395 10
1.0241281 -3.7821836 0.52140558 11
1.0530181 -3.4956954 0.57132709 11.75
1.0939252 -2.8089767 0.55191547 12
0.85038602 -2.6981528 0.76111549 15
1.0116295 -1.8207319 0.53146553 14.222222
1.0820967 5.8051434 0.61978889 10
0.95567101 6.0886273 0.79170793 10.5
1.1665392 -3.8152101 1.0110185 14
1.0157763 -2.8187115 0.84452772 15
0.82488364 -2.7060227 0.8294872 15
1.1155279 5.7595744 0.94723344 11.333333
0.92686492 6.0899429 1.0832568 11.666667
0.91515082 6.0867844 1.4531729 13.333333
0.94950449 6.080595 1.7231209 14.5
0.91541266 -13.079148 2.3655889 12
0.90503311 -11.359144 2.4218979 13
1.2964704 0.22592688 -0.0096815191 6.5
1.5831398 0.4818055 0.0041248617 7
1.2279881 -3.4428148 -0.0031309503 7
1.5532792 -2.6329172 0.2348884 9
1.4635915 -2.1810741 0.22223362 10
1.2729057 -1.949526 0.2508541 10.5
1.3351321 -0.93516093 0.23887865 11.5
1.3689609 -0.59683222 0.27019638 12.363636
1.467147 -0.26953179 0.033868026 8
1.555761 0.15249996 0.027159348 7.5
1.2047001 -3.4449141 0.58128607 12
1.5668021 -2.650661 0.57084835 12
1.3414469 -2.0499561 0.55187166 13.333333
1.3101966 -1.8968973 0.6544891 15
1.4634985 -0.578062 0.43567747 14.666667
1.5683901 3.8599694 0.64452946 11
1.5201527 4.035356 0.6771425 11
1.3993778 6.0271273 0.76498264 10
1.5710051 3.8718853 1.0923668 14
1.5450574 3.9970422 0.96277624 13
1.4831386 6.057375 1.025139 11.333333
1.5522667 3.966949 1.343124 15
1.4515634 6.0407152 1.4896293 13.333333
1.3977352 6.0379119 1.7159245 14.333333
1.5465012 -13.907622 2.0128415 11.5
1.1952833 -12.227512 2.1139183 12
1.3565513 -8.5256281 2.4286766 15
1.8746248 0.59935474 0.007449328 7
1.739722 -2.3400245 0.13849173 8.5
1.8871973 -1.0184149 0.2517179 10.5
1.7294782 -0.58884674 0.28754672 11.384615
1.9650657 -0.18598656 0.046031363 8
1.7187439 0.23690152 0.25833833 11
1.9967217 0.42425844 0.03061338 7
1.9260752 2.323271 0.41199377 11
1.83349 2.6125298 0.42407268 10.5
1.6020038 -2.621887 0.54357368 12
1.7464224 -0.53769237 0.49017286 14.4
1.7092907 0.18344998 0.51241237 15
1.9859928 1.9415632 0.58147836 12.5
1.9377407 2.1821485 0.63078618 12.818182
1.8285129 2.6219046 0.64812452 12.466666
1.6553944 2.9532611 0.63205379 12
1.6600342 3.4289753 0.63259453 11.375
1.6052318 3.6796167 0.63169301 11
1.7884191 6.0994363 0.71552396 10
1.9856569 1.9484779 0.87715423 15
1.940781 2.1855054 0.90617925 15
1.8212576 2.6162601 0.91917688 14.6
1.6665367 2.9867592 0.9746654 14.5
1.6724286 3.4170959 0.9987281 14
1.6138599 3.6732931 1.0572295 14
1.7444577 6.1049528 1.028177 11.333333
1.6667489 6.0640736 1.5560811 14
1.7034471 6.0792494 1.7791505 14.666667
2.268075 -3.0470514 0.21398334 9
2.1487956 -0.52911735 0.24379671 10.1
2.3099682 -0.21446973 0.27324587 10.25
2.3203816 0.22352979 0.23854576 9.666667
2.2602127 0.60543346 0.23612599 9.8000002
2.1836047 0.99100959 0.34429255 10.714286
2.1055019 1.3733896 0.36326721 10.5
2.0440996 1.7132424 0.40746319 11
2.216732 -1.0211556 0.45087492 12
2.1033244 -0.44685587 0.51893353 13.666667
2.2968457 -0.23860756 0.55979329 13.6
2.3462183 0.1917161 0.57113665 13.6
2.2648776 0.58667439 0.58066642 13.6
2.1857994 0.96647185 0.59809154 13.6875
2.1025615 1.383058 0.62553811 13.555555
2.0329266 1.768509 0.61496204 13
2.0646901 6.1887617 0.70256656 9.666667
2.0191128 1.7797606 0.84874171 15
2.1142302 6.2098041 1.0153958 11.333333
2.0499928 6.18295 1.7971418 14.5
2.5627918 -2.9141839 0.2031953 8.5
2.5734701 -2.7037437 0.26229319 9.5
2.7937818 -1.8255571 0.21681255 8.666667
2.4168289 0.0027773851 0.16849846 9
2.6704998 -3.3386736 0.68243998 12
2.6518395 -3.0152431 0.61656189 11.666667
2.5444896 -2.7283807 0.46248069 11
2.6609695 -1.2334846 0.41957647 11
3.1154749 -5.1257982 -0.067087531 7
2.9223919 -2.510581 -0.049448282 7
2.871115 -2.227206 -0.011106203 7
3.0992682 -5.1561737 0.097258851 8
2.9322374 -2.4847181 0.18758152 8.5
2.8710988 -2.1867049 0.14702868 8.1428576
2.8151929 -1.9156828 0.14076072 8.25
2.9212205 -2.5047398 0.65548438 12
2.884819 -2.3894937 0.62865907 12
2.9350631 -2.4675887 1.0137336 14.5
2.9161084 -2.2258983 0.98506677 14.6
2.8346281 -1.8323201 0.8740356 14.333333
2.8279855 -10.910546 2.4366331 13
3.2196445 -5.0937967 0.11479214 8
3.7579536 -6.5058537 0.20711288 8
3.731298 -6.219336 0.50166667 9
3.6463737 -5.906569 0.76440352 10
3.6991224 -6.448256 0.79748815 10
3.6415737 -5.6001625 1.146902 12
3.7001767 -5.7941298 1.3369948 13
3.6501741 -5.5336437 1.4742278 13
3.6170444 -6.074235 1.7629527 14
3.6532326 -5.9832044 1.7376978 14
