# .PCD v0.7 - Point Cloud Data file format
VERSION 0.7
FIELDS x y z intensity
SIZE 4 4 4 4
TYPE F F F F
COUNT 1 1 1 1
WIDTH 233
HEIGHT 1
VIEWPOINT 0 0 0 1 0 0 0
POINTS 233
DATA ascii
0.32962763 0.0066177635 -0.10274895 169
0.55078191 -0.74897057 -0.0043275021 184.75
0.65074968 -0.72290462 -0.0048746201 186.5
0.53361571 -0.67028928 -0.0068440251 191
0.62962621 -0.66241169 -0.010677243 190.39999
0.72441018 -0.63417906 -0.012132251 192.8
0.55407304 -0.54624999 -0.0046917419 188
0.66949791 -0.53342599 -0.008434264 190.60001
0.78261852 -0.54847461 -0.01946686 193
0.80513424 -0.58137739 -0.013930575 193.5
0.48587689 -0.45072448 -0.013932098 181.39999
0.54983097 -0.42381296 -0.012163833 181.375
0.62696981 -0.4551138 -0.0060570105 186.25
0.73771673 -0.45403668 -0.0047813058 190.42857
0.85993922 -0.45008332 -0.022028947 192
0.46234903 -0.33391106 -0.013806595 171.58824
0.54468632 -0.34922996 -0.012688567 176.69565
0.65191758 -0.32783377 -0.011848724 177.35715
0.78155017 -0.32190549 -0.0082680611 185
0.83202243 -0.33832094 -0.005866203 189
0.92729378 -0.33250344 -0.018069861 193
-0.26467451 -0.20151089 -0.0018937055 189
0.46997127 -0.25755191 -0.042245045 170.05556
0.55176753 -0.24318144 -0.033920366 172.25999
0.64558148 -0.24840875 -0.019096484 176.21053
0.72411573 -0.23713918 -0.015233542 180.53847
0.85456657 -0.24387415 -0.0096864086 187.44444
0.93602639 -0.24696349 -0.014906071 191
-0.67087191 -0.18412156 0.0010403317 177.5
-0.55077022 -0.16343093 -0.0017494239 197.5
-0.44172579 -0.14458252 -0.0033274649 196.33333
-0.34825462 -0.12812959 -0.00063397246 192
-0.24956752 -0.11108039 -0.0021079259 189
-0.16734913 -0.14541747 -0.017474446 184.29411
-0.042977687 -0.13653438 -0.035139553 177.63158
0.039922491 -0.11136254 -0.040798973 172.5
0.45078325 -0.14033408 -0.032593481 168.01234
0.55273229 -0.14823382 -0.05362238 170.77359
0.63725996 -0.1474214 -0.031380869 174.40425
0.75352156 -0.14422989 -0.019939907 179.56
0.84875113 -0.15285598 -0.0076271375 186.2
0.94120085 -0.16757432 -0.013919747 192
-0.71528268 -0.049981929 -0.0061487686 172
-0.65942615 -0.047253501 -6.7890578e-05 179
-0.55241227 -0.042509172 -0.00055595423 194.75
-0.45176381 -0.038222477 -0.0052766185 196.2
-0.31665197 -0.032196872 -0.0046059908 191.33333
-0.20502768 -0.027669745 -0.015454451 185.75
-0.14895974 -0.051846627 -0.023420108 182.76923
-0.055576857 -0.051576652 -0.040272046 176.84616
0.063470207 -0.045497097 -0.029849531 170.64706
0.1513703 -0.044247355 -0.0422724 168
0.24878684 -0.028421668 -0.078369677 167.67105
0.34288764 -0.010936542 -0.086786754 168.2
0.4392913 -0.036739372 -0.049220856 167.58904
0.54009444 -0.044283316 -0.04874827 170.19444
0.64226592 -0.047625843 -0.0471026 173.70769
0.75500458 -0.039976824 -0.026753917 177.85185
0.84869349 -0.045102648 -0.013069074 184.61539
0.93406844 -0.052357409 -0.013199884 173.22223
-0.77201122 0.096385419 0.0010962152 157
-0.69054455 0.089500569 -0.0041224537 172
-0.54662514 0.077380404 -0.0037226288 197.66667
-0.44323677 0.068647794 -0.0066003175 196.25
-0.31138217 0.057552066 -0.0021881366 191.33333
-0.20826836 0.048808299 -0.010329086 185.75
-0.16003104 0.044665065 -0.0250894 183.22223
-0.052931376 0.064544953 -0.040329657 176.6842
0.057007745 0.047606573 -0.031323623 170.85185
0.15095384 0.05216502 -0.041057523 168.15854
0.25364122 0.050642401 -0.07264971 167.10318
0.36293012 0.036000919 -0.076670341 167.52812
0.44011718 0.010673319 -0.052870035 167.82828
0.54737902 0.033767123 -0.059387658 170.90244
0.6386345 0.051626179 -0.052095231 174.01819
0.75914884 0.058102172 -0.032622192 177.48148
0.83663291 0.054933265 -0.015234358 182
0.91983229 0.048200704 -0.018866224 189.5
-0.20452882 0.12535645 -0.0006231931 188
-0.15860499 0.15336785 -0.021913668 184.33333
-0.036226548 0.15547943 -0.035063986 177.6842
0.050859272 0.14963028 -0.042986918 172.19354
0.1598057 0.14537983 -0.029532457 169.22807
0.25355151 0.14796291 -0.042689659 167.97
0.34002736 0.14235666 -0.046872158 167.06796
0.68118185 0.10431313 -0.034178611 176.25
0.75411689 0.13058761 -0.032959994 178.69231
0.86428148 0.14299691 -0.024437593 185.25
0.93807638 0.13947396 -0.027719794 191
-0.4210369 0.28321245 -0.0089105768 197.33333
-0.36854345 0.26492569 -0.012844846 195.33333
-0.25103325 0.24107966 -0.005447011 190.60001
-0.13109629 0.26094133 -0.021272538 185.54546
-0.029432772 0.22846189 -0.019474424 180.33333
0.038450673 0.23930028 -0.041692495 176
0.15427916 0.24626018 -0.042123958 172.04167
0.24997486 0.23879467 -0.02890325 170.86487
0.32888529 0.240014 -0.0264358 171.2
0.94953012 0.20041277 -0.037338369 191
-0.71067661 0.38532501 -0.0068329442 162
-0.63799906 0.35970849 -0.007376642 175.33333
-0.53221422 0.32244176 -0.0085550388 195.75
-0.47221971 0.30141452 -0.010974579 199
-0.34852225 0.36980623 -0.0096510807 196.8
-0.24442218 0.31656179 -0.0042649279 192
-0.078490056 0.31579721 -0.020988135 185
0.073290884 0.36245972 -0.016593259 181.66667
0.16984691 0.34515101 -0.03423309 177.04347
0.25199786 0.35058448 -0.038235161 175.84616
0.32772791 0.35517305 -0.036977239 175.95
-0.88563675 0.44686246 -0.0036804604 137
-0.7867465 0.41198602 -0.0039497176 148
-0.44022897 0.41621497 -0.0095262183 201
-0.15872012 0.48116207 -0.0017279624 194
-0.03694113 0.4901993 -0.014516136 189.5
0.054557346 0.44412223 -0.01889894 186.58824
0.15075779 0.45514026 -0.027321 183.8
0.24832603 0.45955679 -0.025505537 182.39999
0.30790484 0.45121613 -0.024919992 181.28572
-0.24150872 0.55763221 -0.015221038 197.2
-0.1582205 0.55330348 -0.020463135 194
-0.063249938 0.5193854 -0.0089880629 191
0.037088256 0.55094171 -0.010169845 191.5
0.12628956 0.58176619 -0.014598726 191
0.257734 0.52631694 -0.012254353 187.76923
0.30095619 0.50033832 -0.03199834 184
-0.33238202 0.6391747 -0.017844232 200.5
-0.20849566 0.69237918 -0.023483522 200
-0.15392229 0.62743443 -0.018255573 197
-0.0418544 0.65477479 -0.018368281 196.16667
0.078171507 0.64300692 -0.013340377 194.66667
0.18234593 0.63414103 -0.010425296 193.2
0.27551395 0.61721528 -0.01064307 191.33333
-0.66268998 0.71152943 -0.0048963549 152.5
-0.44010779 0.73475909 -0.015486427 182.60001
-0.25106046 0.7413066 -0.020985626 199
-0.11742986 0.77227759 -0.022694593 200.33333
-0.089785524 0.73010111 -0.023408365 198
0.036674276 0.73477101 -0.022442441 197.39999
0.148984 0.74812764 -0.022060599 196.8
0.25537166 0.75013775 -0.023540486 197
-0.51659423 0.80164152 -0.0088394312 164
-0.34438431 0.84885693 -0.016571013 181.39999
-0.17214742 0.85609055 -0.022223972 198
-0.015003243 0.84542739 -0.026302854 200.25
0.1137614 0.86298436 -0.026834251 201.5
0.23672661 0.86220199 -0.027229641 200.25
-0.23324962 0.94710964 -0.014368625 184
-0.19939084 0.90160537 -0.032772858 196
-0.065252274 0.95268369 -0.029335909 194
0.081970662 0.96360028 -0.026965342 193.5
0.22671585 0.91004843 -0.020006537 202
0.54474562 -0.72989792 0.0030622347 184
0.51638132 -0.60727412 0.0060446979 190
0.49631977 -0.51586545 0.0038017698 186.5
0.55206269 -0.57870555 0.004170869 189.5
0.66095328 -0.5222705 0.0025404948 190
0.49083522 -0.49120009 0.0035335431 185
0.5530529 -0.46453297 0.0026774709 186
0.63486528 -0.41649091 0.0039637587 185.8
0.66551799 -0.36359698 0.015017539 154.83333
0.74612844 -0.32921043 0.014403119 173.8
0.83042973 -0.36282793 -0.0010326857 190
-0.80310148 -0.20597759 0.016790569 148
-0.76906711 -0.20029511 0.013486647 157
-0.31618309 -0.21579501 0.012914533 194
-0.28056061 -0.20556107 0.0058660945 191
0.74850011 -0.25921094 0.001676009 184.125
0.85627979 -0.29121503 -0.00028107114 190
-0.74534607 -0.19657356 0.0079535404 163
-0.69191593 -0.18699627 0.0116941 170
-0.57551521 -0.16684707 0.010234405 185.5
-0.47485626 -0.14959115 0.0067996946 198.5
-0.32594115 -0.12353863 0.0089173568 193
-0.22532776 -0.15002622 0.040140279 175.08333
-0.1931725 -0.17826772 0.0082353931 188.66667
0.78744912 -0.1818369 0.0027762463 183
-0.82084614 -0.053965949 0.012343821 149
-0.77103096 -0.051938426 0.0073342454 156.5
-0.6986925 -0.048591919 0.010386432 167
-0.58605969 -0.043469772 0.013008472 186
-0.34279218 -0.032884292 0.0072561693 194
-0.23230211 -0.028043399 0.0056453263 188.16667
0.8409338 -0.076363362 7.5604279e-05 186
0.93110549 -0.020244261 0.021278752 79.666664
-0.74085903 0.093813002 0.01030743 159
-0.6109221 0.082845889 0.0048475568 183
-0.58541495 0.080686465 0.0028879815 189
-0.47858399 0.071679845 0.0021967397 199
-0.34511748 0.060447186 0.0060637123 194
-0.23736157 0.051358044 0.0061710775 189
-0.85322487 0.1032326 0.0041202777 146
-0.23606659 0.130698 0.051009588 179.88889
-0.18331307 0.19837023 0.0053645107 187
0.14571097 0.19388042 0.079575673 122.14286
-0.26345542 0.22676094 0.0038892359 192.33333
-0.16820912 0.25521719 0.003058451 188.25
-0.0084811375 0.25280353 0.084140942 185
0.15826739 0.22467637 0.066053942 135.45454
-0.71750838 0.38708091 0.0034496759 158
-0.36242226 0.37584093 0.00020002668 199
-0.2414723 0.31422895 0.0039917561 192
-0.071950495 0.34010836 0.024015684 188
-0.79985303 0.41600433 0.0055454588 144
-0.42272291 0.40507847 0.01282911 200
-0.12926723 0.45353523 0.0052227662 192.5
-0.049314976 0.43433201 0.010166898 190.5
0.0049734265 0.43743458 0.00053142902 189
0.14575261 0.49505237 -0.0014419672 188
-0.059352405 0.51213413 0.0013273983 192
0.13605011 0.51457518 0.00035579331 188.5
0.24264008 0.53002572 0.0017931259 189
-0.56165814 0.64150965 0.0032491633 160.5
0.26986268 0.63572043 -0.00028895892 193.5
0.73605669 -0.30758247 0.1162501 125.5
0.82797712 -0.33447599 0.12860905 128.5
0.91860068 -0.34731725 0.13549416 154.5
-0.36586487 -0.21805184 0.13115706 150
0.71590543 -0.29080901 0.11362081 180
0.82030147 -0.29180682 0.1723648 57
-0.24539326 -0.18122661 0.12698661 168.5
0.94895858 -0.17978577 0.17366923 228
0.84781641 -0.080179632 0.13794237 100.33334
0.93548959 -0.094595388 0.12796409 84
-0.30822435 0.14411972 0.12561323 176
-0.28883508 0.14003789 0.12252217 180
-0.016132856 0.18124948 0.18993282 159
0.0592 0.19609943 0.15701514 138.57143
0.13771385 0.19545384 0.10745914 127
-0.13036916 0.24447343 0.1368735 193
0.048772831 0.21247235 0.16636313 143
0.11218578 0.21635829 0.1167138 136.81818
-0.10880832 0.31118983 0.15288268 159
