# .PCD v0.7 - Point Cloud Data file format
VERSION 0.7
FIELDS x y z intensity
SIZE 4 4 4 4
TYPE F F F F
COUNT 1 1 1 1
WIDTH 92
HEIGHT 1
VIEWPOINT 0 0 0 1 0 0 0
POINTS 92
DATA ascii
-3.4069419 -1.0563521 0.28171656 9
-3.3029399 -1.1011151 0.36898559 10
-3.241116 1.9957526 0.29720077 9
-3.2899337 -1.2237868 0.42570826 11
-3.1079278 -1.2932988 0.18364635 9
-3.1179214 -1.4378297 0.40493569 10
-3.1496236 2.0984271 0.46066782 10.5
-1.4029554 -0.84153873 0.42244652 14
-1.5473123 5.400763 0.46905822 9
-1.2795117 8.7292337 1.6258342 12
-0.86393422 -1.2070658 0.38844478 14
-0.92309451 1.5840496 0.48829192 15
-0.9945026 8.6592417 0.98686033 10
-0.88650304 8.6482058 1.1285584 11
-0.9505111 8.6468229 2.1507437 14
-0.51492965 -1.2762569 0.33175451 13.5
-0.49392661 -1.3436371 0.41025275 15
-0.11049725 8.6079931 0.68555963 9
-0.12500158 8.6259251 1.1006916 10.5
-0.14750518 8.6336193 1.5004876 12
-0.13350788 8.6491852 1.7138858 13
0.013489331 8.657443 2.0130258 14
0.27807146 -1.2874309 0.26191548 12
0.41907227 -1.3001249 0.25031257 11
0.64407337 -1.3294609 0.31828988 12.5
0.70349652 8.7108326 0.7352289 9
0.74449199 8.5794363 2.2342792 14
0.96507162 -1.3046013 0.35452676 12
0.8264932 8.7189407 1.0857201 11
1.179329 -1.504763 0.10554296 8
1.150209 -1.5203129 0.22989786 9
1.003073 -1.3123647 0.25185916 10
1.3260721 -1.2955879 0.2548897 10
1.2840708 -1.2980214 0.40870443 12
1.5180713 -1.2938247 0.3155371 11
1.5480696 -1.2821503 0.46098062 13
1.4714845 8.7266903 2.1160581 14
1.6540686 -1.2851239 0.60264343 14
2.0362267 -1.410185 0.14480235 8
2.1950679 -1.2687004 0.55023319 12
2.1780663 -1.2677885 0.75984979 14
2.1005313 8.1082993 0.69581664 9
2.1725314 8.0882063 0.8374297 10
2.2465703 -1.2753485 0.30467156 9.5
2.297436 1.0781733 0.33312035 10.5
2.3200679 -1.2593355 0.50603676 11
2.3639393 1.004303 0.44457883 12
2.3195298 8.0794449 1.1022859 11
2.3895261 8.0959988 1.3994043 12
2.3835232 8.1025572 1.7376215 13
2.4713337 1.1533602 0.13403858 8
2.5513968 -1.147416 0.29357383 9.666667
2.4780619 -1.1482161 0.52850074 12
2.4139373 1.0114087 0.59450769 13
2.5850594 -1.1460584 0.7946732 15
2.478935 1.0409 0.70080256 14
2.6659451 0.93464333 0.19544855 9
2.6824584 0.68492258 0.357721 10.5
2.6279404 1.0003133 0.29401883 10
2.6560612 -1.1382989 0.49645776 12
2.669956 0.69779474 0.52244645 12.5
2.6519425 0.94320905 0.42512566 11
2.6399019 1.6555525 0.46921849 11.5
2.665453 0.72857326 0.69738907 14.5
2.6509016 1.6256325 0.70483112 13
2.6349008 1.6289119 0.8029291 14
2.8639593 0.68223375 0.25062919 9
2.9365289 8.1581354 0.6504575 9
3.0635297 8.0992117 0.98883706 10
3.3800666 -1.2236453 0.42774746 10
4.0275187 8.1862755 1.6288632 12
4.4655056 8.4816761 1.1840279 11
4.8786049 6.8350716 0.48891181 9
4.8217049 4.8629842 2.0752375 15
5.009491 8.7648764 1.0409018 10
5.0185986 6.7223325 2.0838854 14
5.2340612 -1.0818663 0.063099883 7
5.2877374 4.3026447 2.0529985 15
5.5560613 -1.0972269 0.14887829 8
5.5540609 -1.1052555 0.29899672 9
5.5650573 -1.0997803 0.58772844 10
5.585537 7.9745355 0.97985029 10
5.7490306 -0.62667722 0.50678259 10
5.7396855 5.4232183 0.54530275 9
5.6586523 -0.54512912 0.87004364 11
5.7506838 5.4170685 0.81349528 10
5.7876797 5.4337392 1.2516419 12
5.6788754 0.10072281 1.4573178 14
6.0497212 4.8609223 0.1048223 7
6.0367122 4.9939218 0.25482249 8
6.0537238 4.7457576 0.7174412 10
6.0636816 5.4121833 1.0546449 11
