# .PCD v0.7 - Point Cloud Data file format
VERSION 0.7
FIELDS x y z intensity
SIZE 4 4 4 4
TYPE F F F F
COUNT 1 1 1 1
WIDTH 225
HEIGHT 1
VIEWPOINT 0 0 0 1 0 0 0
POINTS 225
DATA ascii
-0.030284647 -0.94532984 -0.0021012479 158
0.09537407 -0.9823395 -0.0024582141 158
0.10479551 -0.95035428 -0.0030206158 161
-0.15275761 -0.89340764 -0.0010841029 157
0.14351436 -0.81496453 -0.00045350962 167.5
0.25154853 -0.83743757 -0.0020339559 168.5
0.36140397 -0.83772975 -0.0053664586 173.33333
0.47236121 -0.8379997 -0.0090663657 176.66667
0.57745063 -0.80182385 -0.015246478 181
-0.071878001 -0.75744867 -0.00050220249 167
0.17114165 -0.72235477 -0.0035295354 177
0.26997057 -0.72796386 -0.0083814049 183.66667
0.36529943 -0.7363838 -0.011240005 185.66667
0.4622879 -0.74299276 -0.0092214122 188.8
0.55960971 -0.73228186 -0.010466767 186.75
0.65745378 -0.71673226 -0.011338356 185
-0.035167951 -0.6342333 -0.0021889836 169.66667
0.045923185 -0.65385449 -0.0035437648 171.5
0.18098934 -0.69105959 -0.0067319795 178
0.26624277 -0.61464846 -0.0058402033 187.75
0.36634371 -0.63184798 -0.0047401609 188.25
0.45075205 -0.63576406 -0.0086197434 189.60001
0.54163647 -0.65593582 -0.011927897 190.5
0.63666582 -0.65832824 -0.017497817 189
0.72412223 -0.62753642 -0.017855177 189.8
-0.013433107 -0.5047062 -0.0056729014 177.5
0.056772977 -0.54298896 -0.0041684802 182.33333
0.13091975 -0.57522291 -0.0040324084 184.66667
0.24357928 -0.54698497 -0.0095696757 185.125
0.34063476 -0.5257293 -0.011321256 185.27272
0.44129828 -0.54789019 -0.0080223912 186.60001
0.55500126 -0.55421567 -0.010277042 188.16667
0.6597749 -0.54615301 -0.0087918835 190.8
0.78094184 -0.54904294 -0.023305548 191.5
0.82971954 -0.54365194 -0.022058878 191
0.051931329 -0.42515901 -0.020169526 181.25
0.14909701 -0.4640539 -0.02439598 181.42857
0.2491667 -0.452007 -0.023394072 180.81818
0.34957343 -0.46859568 -0.027271908 181
0.46606004 -0.45719373 -0.020130457 182.13043
0.55093074 -0.43871 -0.010630987 183.30769
0.64668125 -0.46357626 -0.010625656 186.83333
0.73655385 -0.44578734 -0.010155967 189.875
0.84502304 -0.46228904 -0.027658636 192.25
0.048547108 -0.34644771 -0.013485654 178.70589
0.15002337 -0.34470537 -0.0242966 176.59259
0.25023559 -0.36026546 -0.021805881 175.59259
0.35246575 -0.36697578 -0.014866488 175.30435
0.44382951 -0.35054469 -0.012946967 174.80952
0.54969758 -0.34956664 -0.017803598 177.25
0.64960879 -0.33378544 -0.014902965 180.36842
0.75258869 -0.35454613 -0.0088366335 186.55556
0.82157594 -0.36652988 -0.006919363 190.66667
0.089199223 -0.29205891 -0.01906991 176.25
0.27971455 -0.21626921 -0.017674197 164.33333
0.34820706 -0.2114483 -0.027623732 165.82353
0.48775697 -0.25680685 -0.031508058 169.92857
0.55186349 -0.24060903 -0.037402455 172.21568
0.64802307 -0.24837726 -0.024103697 173.19048
0.71609426 -0.27737966 -0.010038934 181.75
0.19237997 -0.19039349 -0.021207213 163.39999
0.26094651 -0.15571883 -0.038411207 166.14285
0.34951258 -0.14339486 -0.043463569 166.82945
0.44380891 -0.13849139 -0.0376064 167.82979
0.55023587 -0.15705581 -0.05874902 171.04082
0.61184335 -0.18594919 -0.028248927 174.42857
0.29569927 -0.098879285 -0.063074149 166
0.37376851 -0.050748456 -0.06816785 166.905
0.42657623 -0.048128508 -0.05198817 167.65025
0.5056932 -0.093177162 -0.041276742 171
0.2951026 0.095387414 -0.064080648 166.33333
0.37307924 0.05159172 -0.06935814 167.38889
0.42461628 0.049741853 -0.054249752 167.47804
0.18566452 0.18663108 -0.03016934 169.5
0.2617403 0.15294111 -0.04066642 167.83951
0.34796464 0.14310035 -0.04491768 167.26401
0.43867722 0.14127144 -0.033731371 168.28319
0.54169989 0.1582021 -0.047004752 171.10257
0.60260755 0.19577654 -0.033206772 176.25
0.080043569 0.28543493 -0.041715614 176.46153
0.15349755 0.25129384 -0.050574131 172.16
0.24849495 0.24117102 -0.036274128 170.90244
0.3447924 0.23923469 -0.033108626 171.15909
0.44859636 0.25019953 -0.047281742 171.97917
0.5481326 0.24748588 -0.037921768 175.49123
0.63816243 0.24667335 -0.01620982 180.14999
0.70553249 0.29489234 -0.0091992719 184.5
-0.028684728 0.38007724 -0.018301364 185.72728
0.054102249 0.33847538 -0.020857753 181
0.1531623 0.33855256 -0.034012679 177.2973
0.25179085 0.34812948 -0.040284134 175.875
0.34670475 0.35060865 -0.038291104 175.95
0.44585103 0.33623955 -0.028727241 177.33333
0.54795188 0.34715238 -0.017753422 180.6875
0.64473277 0.34583661 -0.019363312 183.38889
0.76448977 0.36619207 -0.0052027544 189.8
0.80096257 0.38339421 -0.0015966742 193
-0.1168068 0.45904687 -0.0094247488 191.60001
-0.045322411 0.4590449 -0.013156304 189.60001
0.05493268 0.44287577 -0.019802706 186.38095
0.15014543 0.46519488 -0.029420083 184.06667
0.25068855 0.47313008 -0.03007547 182.8
0.34039906 0.45177215 -0.025783837 181.71428
0.45197842 0.46270654 -0.023067808 183.33333
0.55345297 0.42998573 -0.017397933 184.29411
0.66403961 0.45187521 -0.0066339835 189.8
0.73805034 0.44439226 -0.0078491988 191.875
0.86583692 0.43941736 -0.016392106 196
-0.22589737 0.56090254 -0.017754056 197.2
-0.15025425 0.53544837 -0.01959506 194.66667
-0.054446898 0.51806903 -0.0088918218 192.2
0.035465658 0.55630422 -0.012151174 191.375
0.13784678 0.57707381 -0.016462587 189.83333
0.25886086 0.52694046 -0.0094957044 187.66667
0.35245124 0.5278942 -0.011222498 188
0.43388444 0.54428285 -0.0096233515 189.16667
0.54334348 0.56741327 -0.010660134 191.83333
0.64424223 0.53353894 -0.0097070253 192.14285
0.75029659 0.55623543 -0.014185959 196
0.82978922 0.52088565 -0.019670859 197
-0.33157679 0.65811568 -0.018870698 197.75
-0.29021224 0.62135869 -0.024590027 199
-0.1503884 0.63511437 -0.021660751 197.33333
-0.041623075 0.65962154 -0.022889599 195.39999
0.073930621 0.64914209 -0.0195581 194
0.17670837 0.63182348 -0.013786533 192.5
0.26336807 0.62548423 -0.0077865217 191.8
0.34634787 0.62518138 -0.0099649346 192.16667
0.42750767 0.62269539 -0.0086304359 193
0.51482362 0.64576244 -0.013367563 194.66667
0.64181471 0.65894413 -0.021573331 196.5
0.72867697 0.65059251 -0.016967582 198.75
-0.44737005 0.76389569 -0.016625099 174.25
-0.39990631 0.71927017 -0.011513353 183
-0.23322818 0.73338687 -0.02253191 200.75
-0.11821903 0.77947342 -0.028052038 199.75
-0.077687763 0.71534216 -0.023361782 199
0.036832206 0.72820175 -0.023320222 197.5
0.14264178 0.74343348 -0.024849044 196.66667
0.24336605 0.75236017 -0.025638644 196.8
0.3426432 0.74388731 -0.023929851 196.5
0.43885612 0.74019188 -0.020977382 196.60001
0.53584331 0.74025238 -0.021203127 197.2
0.63328362 0.72775185 -0.017384253 199
-0.52998227 0.83929503 -0.014722371 157
-0.33037984 0.84836501 -0.02257321 187.39999
-0.18009016 0.87584049 -0.030983031 197.66667
-0.015610243 0.83993286 -0.028547095 198.66667
0.048255879 0.84849244 -0.028732283 199.5
0.10666694 0.85688871 -0.030396516 200
0.22277041 0.86548865 -0.029927159 200
0.33702588 0.85873806 -0.02885139 200.39999
0.4493812 0.85561562 -0.030422881 200.66667
0.5521332 0.81678933 -0.024413489 199
-0.24061225 0.96669823 -0.024440916 183.5
-0.20000859 0.90216076 -0.018936593 194
-0.067308389 0.94963539 -0.032784536 194.75
0.066626363 0.98161739 -0.034394771 194.66667
0.21106067 0.92131495 -0.025536671 200
-0.32846862 -0.90058827 0.022157999 145
-0.20386508 -0.97146386 0.018844334 148
-0.18234187 -0.93796802 0.012066603 154.5
-0.028521186 -0.93549329 0.0086544286 159.66667
0.095259108 -0.97100979 0.012020446 156
0.23743267 -0.91967297 0.0039389217 163
-0.31008947 -0.88009179 0.011609616 152.5
-0.26756096 -0.82660019 0.0080279578 159.5
-0.14029643 -0.86913139 0.00761302 161.5
0.01920145 -0.82569307 0.0084858369 167.66667
0.12847382 -0.86070967 0.0070015639 165.33333
0.24478017 -0.86876529 0.0061135003 167.5
0.35825273 -0.88233089 0.003278608 167
0.47201541 -0.86087835 0.0026019476 169
-0.23963794 -0.79160696 0.0052335989 165
-0.1873356 -0.72232163 0.012848988 167.33333
-0.080377094 -0.76873463 0.0071977936 167.75
0.056261007 -0.74287778 0.0037964706 168.39999
0.16128752 -0.74697465 0.0079444079 171.5
0.26170453 -0.76342815 0.0033644813 174
0.36176756 -0.7605806 0.0010821378 179
-0.12911132 -0.64882368 0.0088287899 169.60001
-0.0421381 -0.65778047 0.0067877397 169.25
0.090332396 -0.66464418 0.0034032199 173.5
0.15309529 -0.6237691 0.0077606435 181.5
0.2488125 -0.62985629 0.0047277939 187.8
0.36438647 -0.64066428 0.0025381816 189
0.44769678 -0.62682718 0.00017715886 190
-0.037289981 -0.53115046 0.008571092 174
0.047385134 -0.55401951 0.0080219069 178
0.14289913 -0.54282558 0.0049547646 184.60001
0.25650498 -0.52960569 0.0038426083 186.14285
0.34536451 -0.52079266 0.0018071057 185.33333
0.43495426 -0.51692736 0.0047597219 187
0.50230455 -0.50413287 0.00037178156 186
0.051237717 -0.46120536 0.0057020453 182.75
0.13182633 -0.48279977 0.0014064092 183.5
0.62433803 -0.41774136 0.0018563365 185.25
-0.019624339 -0.38652697 0.042965639 167
0.0074181175 -0.36106265 0.036407124 174.875
0.33281359 -0.30851737 0.001641157 171
0.65845251 -0.38592198 0.0007801177 186
0.74349064 -0.30240431 0.00017735273 185
0.14656118 -0.25878027 0.0098392526 171.5
0.25953507 -0.24428464 0.044070598 156.875
0.35714325 -0.26956818 0.028476095 159.85715
0.43085924 -0.25788492 0.022780614 159.83333
0.1757894 -0.1814248 0.091616265 153
0.25335461 -0.16041455 0.076160908 128.92857
0.34528655 -0.17226124 0.06878747 138.11111
0.42206433 -0.16549537 0.075025171 130.60001
0.66548729 0.3702426 0.0022216509 186.8
0.72628182 0.31615812 0.0022009723 186.5
0.80479753 0.38795382 0.0036443521 194
0.14166504 0.49820665 0.00077087281 190
0.5719021 0.44984564 0.0023331658 188
0.64754909 0.40607452 0.0019339838 188
0.7309522 0.46708393 0.0024573447 194
0.137043 0.50713319 0.0021556281 189
0.20757788 0.52612925 0.0025979888 189
0.45024487 0.51135445 0.00061390211 189
0.043878522 -0.30809134 0.11195271 153
0.094917908 -0.24785072 0.15471135 138
0.19506297 -0.15948725 0.10425652 118
0.24296568 -0.16599938 0.10307524 120
0.32052594 -0.17045303 0.10486015 122.3
