# .PCD v0.7 - Point Cloud Data file format
VERSION 0.7
FIELDS x y z intensity
SIZE 4 4 4 4
TYPE F F F F
COUNT 1 1 1 1
WIDTH 223
HEIGHT 1
VIEWPOINT 0 0 0 1 0 0 0
POINTS 223
DATA ascii
0.28995481 -0.012183854 -0.10508437 173.25
0.3060824 -0.016767886 -0.10203793 170.5
0.29554373 0.0027038443 -0.10768759 174
0.30844274 0.0026690818 -0.10141742 170
-0.30596101 -0.78617316 -0.0029425379 157
-0.27822423 -0.75374478 -0.0003568379 161
-0.34995097 -0.64717084 -0.0029685509 165
-0.21471761 -0.68272996 -0.0037964082 175.5
-0.1712227 -0.63288176 -0.0026416127 180
-0.23226827 -0.5438922 -0.0039929505 181.75
-0.13973656 -0.5690521 -0.0075725033 185.39999
-0.55723912 -0.47666389 -0.00071578042 147
-0.43949944 -0.41756719 -0.0036363138 170.5
-0.113315 -0.43923309 -0.0040446748 186.5
-0.052321475 -0.47313359 -0.0031625612 185.60001
0.028021857 -0.41187012 -0.018774249 181.625
0.87629807 -0.42839652 -0.026603669 167.25
-0.57647049 -0.34507489 -0.0025869999 150
-0.45439371 -0.34013781 -0.0032411981 173.33333
-0.33994213 -0.36779425 -0.0072647226 183.25
-0.23897801 -0.31683433 -0.007969779 187.5
-0.046971988 -0.33685434 -0.014027767 181.89999
0.077966496 -0.35431427 -0.016744403 178.71428
0.11691733 -0.31388849 -0.028330708 174.5
0.76234114 -0.33112061 -0.012075488 167.57143
0.84984779 -0.34859011 -0.019274812 169.8
0.91834992 -0.35925224 -0.027348381 169
-0.61863136 -0.22603793 -0.0028647543 147
-0.52297163 -0.20475048 -0.0055156876 167.5
-0.39114308 -0.27882963 -0.0043583382 188
-0.21984841 -0.21744272 -0.0046007568 183.66667
-0.14270249 -0.25132185 -0.014241654 183.42857
-0.032090895 -0.23162471 -0.020289933 178.25
0.072394282 -0.21340142 -0.057932578 169.42857
0.14671993 -0.25530806 -0.05251576 168.73334
0.20904298 -0.21064109 -0.034653421 165
0.66691345 -0.23150271 -0.021440534 150.5
0.7344566 -0.2457546 -0.010855171 156.14285
0.83190709 -0.25349742 -0.014385656 164.72728
0.95132375 -0.24442492 -0.031342447 165.16667
-0.65001601 -0.10180007 -0.0058162198 146.5
-0.43880948 -0.18603066 -0.007882732 180.75
-0.36141604 -0.16856408 -0.0070745172 190
-0.2570954 -0.14517504 -0.0077664424 186.5
-0.15535976 -0.15640479 -0.025904421 181.72728
-0.047742568 -0.13669284 -0.029270396 176.16
0.04629039 -0.15593794 -0.053992439 170.2
0.15861194 -0.14397311 -0.036039554 164.4035
0.24623971 -0.13746133 -0.041180547 163.56165
0.30417123 -0.10634547 -0.051949099 159.25
0.56746197 -0.1308087 -0.054318596 153.83333
0.64145356 -0.1497587 -0.03067481 151
0.7412709 -0.14980847 -0.017168863 150.5
0.86134696 -0.14033663 -0.016271358 158.58333
0.96479356 -0.13162611 -0.031451311 161.5
-0.53736269 -0.090913631 -0.0084141344 169
-0.44685748 -0.082171291 -0.01044364 183.66667
-0.33218285 -0.070748962 -0.0061145783 189.8
-0.2419048 -0.062068142 -0.0088256961 185.125
-0.1645976 -0.055589676 -0.030233441 180.81818
-0.039584361 -0.062003482 -0.045484994 173.96666
0.052468754 -0.057988163 -0.05115379 166.86208
0.15460132 -0.052934464 -0.04103063 163.75
0.25293419 -0.053163342 -0.063223116 163.368
0.34798214 -0.030422505 -0.068814099 163.83684
0.44980082 -0.024172271 -0.052063935 161.56644
0.55139667 -0.051521037 -0.067215167 160.41861
0.63673592 -0.053599764 -0.038075998 149.71739
0.74885887 -0.05946935 -0.024894601 149.67857
0.84266061 -0.054582257 -0.015519979 153.71428
0.94404334 -0.057433035 -0.028531158 159.75
-0.81200343 0.029832819 -0.00097148609 117
-0.73546231 0.027859636 -0.0032778641 132
-0.66566914 0.025975905 -0.010109737 145.5
-0.54956692 0.023047566 -0.0090419399 167.75
-0.4454934 0.020320937 -0.013557233 183.8
-0.33264861 0.017521393 -0.0091792317 188.83333
-0.24060579 0.050803173 -0.009754885 185.61539
-0.16794497 0.048772927 -0.03029649 181.34782
-0.049928926 0.036456712 -0.044707473 174.8718
0.054791495 0.04289953 -0.054457773 167.17949
0.15579861 0.039903261 -0.043256469 163.75949
0.25372308 0.046724774 -0.064764999 163.40845
0.35623917 0.022786403 -0.065457031 161.87665
0.4447304 0.028697457 -0.050766736 160.01463
0.55211395 0.044959504 -0.067326561 157.91667
0.63644338 0.043857481 -0.039179791 149.01819
0.74425995 0.04593955 -0.026758472 147.23077
0.85229725 0.03760181 -0.017761527 152
0.94198596 0.049635343 -0.028806267 157.42857
-0.81472361 0.17744377 -0.0011696985 116
-0.7314254 0.16508898 -0.0018134582 127
-0.6527015 0.15348552 -0.0073842742 146.33333
-0.52441853 0.13443881 -0.0080367047 171
-0.43869463 0.1218211 -0.016145045 186.5
-0.3209559 0.13383541 -0.0061804918 189.33333
-0.25453562 0.16646816 -0.010670585 186.88889
-0.15678102 0.14994913 -0.027785163 182.33333
-0.041144684 0.11863732 -0.039458122 175.66667
0.035451297 0.13840143 -0.057362594 170.14815
0.17001484 0.15193927 -0.044031441 163
0.23872112 0.13084733 -0.048011724 164.64815
0.49056244 0.11402052 -0.060110565 159.16667
0.55615878 0.14509232 -0.058038697 151.76811
0.64747107 0.14341761 -0.035701893 147.86111
0.74397904 0.14976653 -0.020853687 148.77272
0.8417812 0.15114668 -0.020688787 153
0.94493943 0.14986081 -0.036659263 156.66667
-0.64193702 0.28312573 -0.009010409 145.33333
-0.53569913 0.25377381 -0.0091140606 165.75
-0.43593672 0.22640288 -0.013283905 185.2
-0.37781116 0.21063723 -0.019503852 191.5
-0.11445452 0.28404459 -0.017362198 184.57143
-0.051020831 0.25012383 -0.034310039 180.41667
0.055926055 0.25239712 -0.040933464 175.26666
0.13206133 0.24148493 -0.064509258 170.85185
0.5745635 0.22137795 -0.034365397 152.45454
0.6511479 0.24833591 -0.030196119 147.48485
0.74828064 0.24505299 -0.02003072 154.66667
0.8405416 0.24289356 -0.026194988 160.57143
0.93403727 0.24724345 -0.041175526 160.83333
-0.87018561 0.34584999 -0.0023981356 110
-0.74426138 0.31122935 -0.0056451606 128
-0.30278963 0.39273882 -0.030661909 190
-0.22877146 0.34915078 -0.018431572 189.16667
-0.14718983 0.3559916 -0.024484949 186.85715
-0.040398967 0.34811169 -0.03251892 183.21053
0.037895579 0.34014094 -0.0405026 179.90909
0.6597687 0.33716086 -0.021842893 157.7
0.75273126 0.34171474 -0.02557981 164.33333
0.84977424 0.33921692 -0.03625568 166.75
0.915447 0.36220321 -0.042095967 166.5
-0.43449578 0.46645102 -0.021272227 174.75
-0.34255132 0.41437855 -0.022851977 188.2
-0.24874835 0.47591719 -0.029291773 190.5
-0.14431867 0.43183091 -0.019838754 189.16667
-0.064702675 0.43523201 -0.024148496 187
0.74952871 0.4438991 -0.03584677 170.5
0.85501289 0.44200173 -0.045433637 169.2
-0.65386671 0.59090948 -0.019439399 208.33333
-0.54181582 0.52745759 -0.021309236 160.5
-0.41378832 0.59547287 -0.0068530091 210
-0.35223523 0.55272704 -0.026151465 183
-0.20881504 0.57476574 -0.027351227 188.5
-0.16889924 0.53789425 -0.03447514 191.2
0.81229365 0.51808184 -0.047070891 168.66667
-0.41676196 0.59981227 -0.019410906 208
-0.26983318 0.63255554 -0.022865236 202.16667
-0.5366478 -0.80614877 0.016747678 121
-0.40232354 -0.88926536 0.015830204 133
-0.34980097 -0.83049423 0.013071734 146.33333
-0.50608993 -0.77985787 0.014506558 124
-0.44709951 -0.72862554 0.011965795 140
-0.30698389 -0.78334814 0.0086133806 155
-0.23949407 -0.70637763 0.0093001882 167
-0.4076862 -0.69609058 0.0040080827 157
-0.33077011 -0.62808657 0.0051779035 167.33333
-0.22854804 -0.6956141 0.0044293199 171
-0.16678886 -0.62694877 -5.8115835e-05 180
-0.67863041 -0.53577006 0.013535271 115.5
-0.24421304 -0.55244416 0.0032415339 179.5
-0.06763833 -0.51224482 0.0056686266 188
-0.77336138 -0.41373381 0.01362334 115
-0.6039148 -0.49814221 0.01239325 126
-0.54168272 -0.46785107 0.0050396631 146
-0.46539405 -0.42900217 0.0065438333 160.5
-0.13573681 -0.45624343 0.0060059889 187.25
-0.029010743 -0.42952415 0.0045216447 185.33333
0.0085863974 -0.42668596 0.0024139211 185
-0.70843047 -0.39050806 0.013029047 121
-0.63287187 -0.36414587 0.0069218427 134
-0.51844728 -0.32301915 0.0075923302 156
-0.49266872 -0.31385323 0.0069416864 163
-0.37059128 -0.38183013 0.0017030057 180
-0.24664722 -0.31911173 0.0018086624 189
-0.057460621 -0.35678974 0.0050294534 183.5
0.020165175 -0.31656072 0.015092471 179
-0.81104875 -0.26819476 0.010511093 114
-0.73958713 -0.25251806 0.0057417317 124.33334
-0.64910352 -0.23232155 0.0038440663 139.5
-0.55345964 -0.21081308 0.0037954322 158.5
-0.43298396 -0.29316595 0.0010868426 178
-0.3572782 -0.26473114 0.011608008 183
-0.22167854 -0.21263605 0.039976213 178.39999
-0.17280459 -0.23752005 0.014809451 157
-0.045254927 -0.28213224 0.039582562 181.5
0.060959391 -0.23569854 0.05185423 169.75
-0.83142018 -0.11898021 0.0057171341 113
-0.7497946 -0.11107913 0.0038747636 122.33334
-0.66795689 -0.10300781 0.0050663301 136
-0.44602537 -0.18693975 0.00046248297 177
-0.31052783 -0.15646859 0.00061426201 190
-0.25327101 -0.14363068 0.00024043217 187
0.078259282 -0.19338404 0.064183436 165
0.12948565 -0.17384267 0.076685086 130.57143
-0.56418186 -0.093003348 0.0021299282 158
-0.8408789 0.030642835 0.0038674376 114
-0.75001508 0.02835637 0.0043181786 125
-0.682289 0.026594114 0.0014044156 141
-0.55822092 0.023424847 -1.8356968e-06 161
0.14949445 0.096351206 0.0017875427 133
-0.85652971 0.18362264 0.00042658258 112
-0.76364744 0.16983153 0.00078323251 122
-0.64956117 0.15289523 0.00062538194 142
-0.54581994 0.13743261 0.0040896796 161
0.074100226 0.13075018 0.072941095 138.85715
0.15664396 0.11916886 0.042457562 126.57143
-0.80826443 0.32857957 0.0010229854 116
-0.65825546 0.58882087 0.017505109 212.33333
-0.42389756 0.5935573 0.049239956 209.375
-0.43413001 0.60179597 0.045747742 209.5
-0.28753027 0.63296169 0.052010398 205.39999
-0.1822914 -0.25874153 0.17171581 137
0.032584783 -0.20527215 0.15393238 153.25
0.120718 -0.2033225 0.1065395 136
0.056219008 -0.18596393 0.16965283 134.88235
0.14976199 -0.17873818 0.10275859 121.33334
-0.0053797318 0.14467894 0.18374263 140.42857
0.029975658 0.13405842 0.13599089 138.52
-0.13636518 0.27125138 0.18674986 216
-0.43794283 0.59398317 0.10877535 206
-0.30576593 0.63205409 0.1349556 202
-0.29500231 0.62746155 0.10906383 203.5
