# .PCD v0.7 - Point Cloud Data file format
VERSION 0.7
FIELDS x y z intensity
SIZE 4 4 4 4
TYPE F F F F
COUNT 1 1 1 1
WIDTH 203
HEIGHT 1
VIEWPOINT 0 0 0 1 0 0 0
POINTS 203
DATA ascii
-7.0437303 -1.82015 1.3127114 12
-7.1096916 -1.9039488 2.1137471 15
-6.4000988 -1.8446872 0.68769914 10
-6.5698295 -1.8913147 1.845956 15
-6.2335896 -1.8294913 0.52384019 9
-6.32902 -1.8674155 0.98181093 11.5
-6.3713832 -1.867336 1.3931611 13
-5.7290668 -1.7877886 0.64019895 10
-5.6583614 -1.7940308 1.0355161 12
-5.6901336 -1.8028961 1.2750862 13
-5.687748 -1.8143318 1.770296 15
-5.5664763 -1.8091615 0.77912915 11
-4.8803568 -1.4054286 0.21334486 8.666667
-4.9411106 -1.4770691 0.5912171 10.75
-4.8451004 -1.1681838 0.52530849 10
-4.644558 -1.5120456 0.20759977 8.3999996
-4.730886 -1.129559 0.28303468 9
-4.676054 -1.4702229 0.5195694 10.333333
-4.6638823 -1.1931509 0.47751677 10
-4.6182613 -1.4417015 1.001497 13
-4.2236409 -1.6342746 0.15731956 8.333333
-4.374198 -1.5738118 0.23299327 9
-4.253406 -1.6294254 0.57616675 10.8
-4.354588 -1.5690552 0.49853858 10.5
-4.2007842 -1.6449931 0.9432075 13.2
-4.3329291 -1.562483 0.94931096 13
-4.1876197 -1.6621895 1.3278613 15
-4.2558908 -1.5676373 1.3441072 15
-3.6788058 -1.6157587 0.14542815 8
-3.786778 -1.5958058 0.27392188 9
-3.85605 -1.6192904 0.52319664 10.75
-3.6902456 -1.5944858 0.56547475 11
-3.9404104 -1.6288327 0.94030827 13.5
-3.7276189 -1.6040419 0.83566606 13
-3.4177732 -1.5702587 0.20543526 8.666667
-3.3814745 -1.5619035 0.49187973 10.8
-3.4098175 -1.5768459 0.87751907 13.666667
-3.0148344 -1.5262707 0.28252023 9.5
-2.9969006 -1.5338423 0.61497611 12.285714
-2.980947 -1.5346878 0.83824825 14.333333
-2.5639911 -1.4899977 0.29317868 10
-2.6031721 -1.4964541 0.59118706 12.5
-2.5702941 -1.5027316 0.82119322 15
-2.1788282 -1.4537911 0.29541221 10.2
-2.1908412 -1.4600642 0.58041382 13.3
-1.8093661 -1.4171474 0.31587681 11
-1.8270205 -1.4249767 0.56710762 14
-1.3747108 -1.2604992 0.31802741 12
-1.3724198 -1.2717178 0.51339924 14.5
-0.98852086 -1.2949705 0.31725782 12.5
-1.0102582 -1.2891582 0.43859318 14.5
-0.47529519 0.61414063 -0.0065377569 7
-0.39086786 -5.298677 0.047129285 7
-0.47818998 -4.5888367 0.063581772 7.5
-0.59923983 -1.2919922 0.32671371 13.5
-0.46696091 0.51014858 0.011323024 7.6666665
-0.4520674 -4.6094832 0.49378964 10.5
-0.5064286 -4.3415146 0.41719604 10
-0.74348396 -1.3044227 0.44374594 15
-0.4325977 -4.8648753 1.1328442 14
-0.46259508 -4.5346551 1.0542722 13.5
-0.39228216 -5.2446227 1.3006544 14
-0.022272721 -0.94766986 -0.0080069136 7
-0.19363111 0.5859853 -0.0057849726 7
-0.35671028 -5.0771461 0.10621939 8
-0.13271393 -1.6253598 0.1861482 10
-0.1663685 -1.3809764 0.22245379 11.5
-0.09307196 -1.1033715 0.0036279643 7
-0.34061971 0.38989332 0.0086983573 8
-0.19238175 0.62831497 0.017432699 7.7142859
-0.076388523 -1.5039062 0.43397215 15
-0.38695276 -5.0721264 1.0817689 13
-0.25187981 -6.6270733 1.5330321 14
-0.13925518 -6.6243358 1.9466844 15
0.022580791 -1.2790915 -0.0033745645 7
0.2169169 -0.90720618 -0.0088686682 6.75
0.23449285 -0.59696686 -0.0098161176 6.8000002
0.37619686 -0.36342442 -0.021235848 6
0.23820262 0.59441048 -0.014654361 6.3333335
0.22912432 -1.419681 0.16808081 10.230769
0.14531943 -1.0722455 0.23932913 12.75
0.19189923 -0.56337321 0.0064406088 7.3333335
0.19367225 0.71168119 0.10656298 11.210526
0.34381717 -10.791841 2.0946262 13
0.18827733 -8.6680975 2.2961962 14
0.53544772 -0.86977154 -0.018014042 6.3333335
0.59952575 -0.46873197 -0.00681759 7
0.58928704 -0.21473533 -0.028190421 5.6666665
0.47708839 0.25468767 -0.034353215 5.1666665
0.54693961 0.59761333 -0.016658651 6.375
0.69393831 0.80807275 -0.018577185 6.5
0.5839113 -1.3365095 0.19335669 10.6
0.54240251 -1.126959 0.35827696 15
0.51251024 -0.48556539 0.001765608 7
0.55561918 0.76028681 0.13147438 11
0.60685134 -9.9581442 2.11148 13
0.74585235 -8.4450312 2.2714379 15
0.86176199 -0.19695513 -0.012852211 7
0.98230863 -1.2968035 0.13339409 9.333333
0.84500778 -1.461208 0.45131055 14
0.81558615 -9.8164635 2.0939662 13
1.0714206 -9.51647 2.2387438 14
0.92166466 -8.3432236 2.2580755 15
0.90824986 -7.9460249 2.2591572 15
1.442403 -0.92325509 -0.020189369 7
1.422595 -0.60881317 -0.022162495 7
1.4230379 -1.359046 0.22312827 10
1.3762891 -1.0508873 0.2579442 11.333333
1.4247116 -1.0705752 0.44598433 13.75
1.2376642 0.83248121 0.43380526 15
1.5554705 -9.0611372 2.2115896 14
1.4862062 -8.53234 2.2268808 14
1.4396523 -8.0934858 2.2409499 15
1.4059261 -7.7784443 2.2421227 15
1.9461843 -2.8131473 0.14702457 8
1.8985219 -2.527833 0.28926784 9.666667
1.8920444 -2.2540028 0.3242597 10.2
1.7979828 -1.8413231 0.26583752 9.8888893
1.7335547 -1.3846959 0.25716886 10.125
1.7829883 -0.99368536 0.26173347 10.6
1.8689374 -0.5760234 0.21596122 10
1.8123256 -0.18092945 0.31305203 11.8
1.8012826 0.17813973 0.33232757 12.125
1.7571087 0.60052782 0.34732544 12.142858
1.6966112 0.96261597 0.33265194 11.5
1.92409 -2.5914688 0.58588064 12.428572
1.8944503 -2.2160881 0.61503226 13
1.8284843 -1.7836026 0.59020078 13.545455
1.7680504 -1.4638283 0.54282367 13.571428
1.7866393 -0.99379176 0.507388 14
1.8878503 -0.60758936 0.49752274 14
1.8355998 -0.20101875 0.49917388 14.5
1.7992663 0.20388781 0.46144024 14.111111
1.7599815 0.64366925 0.4891364 14.333333
1.7205187 0.99198586 0.51975578 14.25
1.9335957 -2.6470213 0.90318227 14.5
1.8947239 -2.254575 0.84435189 15
1.8409165 -9.5227594 2.095273 13
1.9258556 -8.7911358 2.2110682 14
1.830181 -8.2868776 2.2162654 14
1.8326355 -7.7432213 2.2310507 15
2.3615212 -4.1645379 0.31682765 9
2.2787349 -3.8942149 0.215922 8.333333
2.3329782 -4.7433071 0.57975876 10
2.244688 -3.996851 0.45205313 10
2.3445659 -3.893122 0.56846178 10.666667
2.0106943 -2.7021422 0.76077938 13
2.3800972 -5.2497787 1.1966385 13
2.3533344 -4.9893532 1.095547 12.5
2.2975998 -4.4522157 1.0962741 13
2.3110914 -4.2124438 0.98290598 12.833333
2.3382757 -3.8842056 0.98946607 13
2.4018333 -5.3437605 1.3414832 13
2.3560505 -4.9122343 1.2786208 14
2.3193851 -4.5474973 1.2268599 14
2.2873149 -4.1647987 1.2850596 15
2.3178174 -3.8998041 1.2516768 15
2.1401873 -9.4277925 2.0995901 13
2.2691584 -8.479414 2.2064371 14
2.0752606 -8.0902548 2.2075109 14
2.2359972 -7.9739156 2.2069373 14
2.198719 -7.4351954 2.2199986 15
2.6447709 -6.8400526 0.2832104 8
2.4167264 -4.6693606 0.30287763 9
2.5174775 -3.8505061 0.24716192 8.666667
2.6341729 -6.86098 0.62941766 9.5
2.4889212 -3.8659036 0.51796186 10.5
2.6838908 -6.9745131 1.0953196 11
2.4701428 -5.6722136 1.0225139 11.5
2.5084279 -5.4047747 0.9023214 11
2.475708 -5.1076093 0.91392916 11.5
2.423681 -4.6687999 0.919918 12
2.5324185 -3.8535776 0.9632836 12.75
2.5968041 -6.9181204 1.4142686 12.4
2.4249995 -5.7347631 1.260094 13
2.4135318 -5.4216409 1.4862268 14
2.4717081 -3.8790309 1.2707684 15
2.6162698 -6.9955788 1.7500652 14
2.630707 -6.2198224 1.9868109 15
2.5764987 -5.7908816 1.9034653 15
2.4655488 -4.760685 1.6276362 15
2.6447053 -10.261783 2.0689139 13
2.4995635 -8.2040682 2.196063 14
2.7340629 -7.9886932 2.1986065 14
2.51928 -7.3390865 2.2111714 15
2.6958368 -6.9540091 2.1542044 15
2.6279726 -6.4213862 2.0460675 15
2.8508193 -6.8123102 0.24991652 8
2.8419032 -6.7920713 1.1165693 11
3.0607474 -12.144122 1.8509485 11
3.2015905 -11.541268 1.7831506 11
2.8109174 -6.8337841 1.7450099 14
2.9855211 -10.192934 2.0777576 13
2.8626306 -7.7824264 2.1866336 14
3.4845283 -11.512223 1.7824804 11
3.4484782 -11.432073 2.0438657 12
3.2870717 -9.9775333 2.0648949 13
3.7547939 -11.450206 -0.15172738 7
3.9166541 -11.425886 0.17604057 7.5
3.8463237 -11.43127 1.4871434 11
3.7654436 -11.479692 1.786254 11
3.7012751 -11.341698 2.0434587 12
4.0520253 -11.416648 1.4165065 10.5
