# .PCD v0.7 - Point Cloud Data file format
VERSION 0.7
FIELDS x y z intensity
SIZE 4 4 4 4
TYPE F F F F
COUNT 1 1 1 1
WIDTH 200
HEIGHT 1
VIEWPOINT 0 0 0 1 0 0 0
POINTS 200
DATA ascii
0.63805246 -0.34728491 0.024364086 176.66667
-0.009949632 -0.21610212 -0.017392345 164.66667
0.032418869 -0.23269579 -0.01831067 164.125
0.56390566 -0.23203306 0.0064436407 170.88
0.6339826 -0.22328289 0.026747689 174
0.72447431 -0.23555456 0.029996447 180
-0.026559478 -0.13440013 -0.023293981 163.25
0.038966015 -0.15285943 -0.013251026 159.69231
0.19050638 -0.10861488 -0.0030309872 141.375
0.22727235 -0.11315586 -0.012481484 145.1875
0.47983986 -0.12681846 0.011851837 156.92308
0.54577649 -0.14290375 0.0065931054 160.4151
0.62614846 -0.1440296 0.012586957 170.21875
0.75073338 -0.1646798 0.032988306 177.5
-0.15123385 -0.013699844 -0.01025885 145
-0.044506062 -0.034338795 -0.025976634 165.92592
0.050890163 -0.038234185 -0.0046543968 155.78787
0.16755258 -0.033329435 -0.012567978 144.67606
0.2544848 -0.042776421 -0.038072161 155.70064
0.35315254 -0.016679205 -0.037714846 159.43661
0.44971305 -0.033788893 -0.012821482 160.73061
0.53554839 -0.048749976 0.015058566 155.94203
0.63959658 -0.049237855 0.010768462 164.66667
0.77562922 -0.0400085 0.036758065 177.92308
0.80004901 -7.7704339e-05 0.042615261 181
0.99286044 -0.0015796006 0.055003043 187
-0.041331932 0.069469735 -0.027262906 167
0.056875817 0.052621197 -0.010854513 153.85715
0.15593402 0.053898633 -0.0072684302 145.46341
0.25657168 0.054924902 -0.036367491 152.67154
0.35566571 0.031129073 -0.039666522 157.37906
0.45392495 0.022954702 -0.0096757626 159.82777
0.53766596 0.042873077 0.019374486 154.82143
0.63845938 0.048433769 0.013253435 163.39622
0.77512687 0.069503963 0.037626352 178.63637
0.80032879 0.050285578 0.034557838 178
-0.13291751 0.15073223 -0.0094891964 155
-0.029867033 0.16111796 -0.019163746 169.52
0.052145381 0.15092649 -0.024558472 162.23334
0.15898755 0.14466964 -0.0020632716 145.33899
0.2502102 0.14306606 -0.0087740347 149.08247
0.31154066 0.1146185 -0.013353249 146
0.57474333 0.11947992 0.010848186 157.46153
0.63164914 0.13914812 0.021442287 169.71428
0.74825221 0.15647388 0.037825961 178.16667
-0.10848518 0.24168503 -0.0038909705 158.5
-0.049568113 0.24568932 -0.0046632434 167.70589
0.038836811 0.2337067 -0.0258328 170.57895
0.16522241 0.26573858 -0.019283766 152.16
0.22350757 0.2303995 -0.0044168215 141.93333
0.68186229 0.20240097 0.042239882 176
0.72680187 0.23111701 0.037268393 179.2
0.81578243 0.29165232 0.051701523 186
0.95682061 0.25115579 0.052808732 187
0.056969624 0.35896549 -0.006102609 173.64285
0.1382494 0.3318758 -0.0084465723 171
0.90634888 0.35088354 0.051407136 190
0.063135587 0.43320894 -0.00052243343 171.15384
0.10151703 0.4074257 -0.016883882 175
-0.12226245 0.54300648 0.0048634391 142.5
-0.04089595 0.58866972 0.0066427081 144
-0.21341106 0.64032406 0.0014605012 146.5
-0.149353 0.64866775 0.005396964 144.5
-0.068537198 0.62483174 0.0092945257 144.33333
-0.32815841 0.76546741 -0.0090695601 186
-0.28744462 0.7206493 -0.0043460331 146
-0.15708625 0.74765003 0.0045849518 141.33333
-0.22419307 0.84160578 -0.00064556609 163.66667
-0.2745873 0.90917778 0.0010793061 210
-0.49177611 -0.61832601 0.035908394 104
0.78399521 -0.61528724 0.056031168 176
-0.4362942 -0.57787877 0.040476892 110.5
-0.37021869 -0.5295617 0.046775345 118.5
0.74626553 -0.55653042 0.051945079 186.16667
0.83071899 -0.52461874 0.051297605 186
-0.28371432 -0.46377045 0.070077166 125
0.66779679 -0.43863684 0.05083546 184.875
0.75069833 -0.44820207 0.054250453 188
0.85818207 -0.43336204 0.054707699 188.33333
-0.46013165 -0.33741003 0.024097653 128.75
-0.38845423 -0.30819389 0.026044864 139.5
-0.26494384 -0.3485994 0.050141048 137.5
0.58715189 -0.31127691 0.0384406 175.66667
0.65665025 -0.35337648 0.04094338 180.22223
0.75068855 -0.3455193 0.055840425 184.54546
0.84066159 -0.33656523 0.057760302 187
0.92266816 -0.37799352 0.049078226 189
-0.61223525 -0.27159217 0.0080122128 119
-0.54146427 -0.25186038 0.012985961 126.66666
-0.46512249 -0.23071763 0.013462247 134.66667
-0.37026125 -0.24481495 0.01844899 143
-0.25082687 -0.25170276 0.035149734 144.83333
-0.14237458 -0.24008787 0.039836407 140.25
-0.040734153 -0.24347204 0.01929391 150.77272
0.035969429 -0.24518394 0.01003909 160.10001
0.58061373 -0.2680386 0.031481218 174.2
0.64258373 -0.2431583 0.038707424 176.09091
0.75124592 -0.24593632 0.050978921 181.89473
0.85011947 -0.26073441 0.057378277 187
0.92680925 -0.22936229 0.060795676 188
-0.62092197 -0.1513097 0.0039589158 121
-0.52912223 -0.13715978 0.011972904 131.66667
-0.43583781 -0.12270444 0.012637098 142.60001
-0.34291041 -0.12970233 0.019237461 150.5
-0.24986364 -0.17056806 0.031923603 145.14285
-0.14743434 -0.1511423 0.01840722 138.66667
-0.062917195 -0.15069064 0.0096890852 155.39999
0.0830447 -0.13842672 0.0055344678 149.27272
0.14662698 -0.13938665 0.013304421 143.16364
0.20817785 -0.12281217 0.009360333 143
0.66159332 -0.14818834 0.040793844 174.2381
0.76208377 -0.14006963 0.046974458 179.64285
0.85018069 -0.1489163 0.059699267 184.28572
0.93941259 -0.14010553 0.0631392 187.5
-0.64132559 -0.032011509 0.00088048604 124.5
-0.53812367 -0.028616205 0.0077937455 134.75
-0.43921527 -0.025164017 0.010437253 144.75
-0.33974612 -0.021937152 0.018318845 147.60001
-0.24686472 -0.059526902 0.028678786 144.23077
-0.16160733 -0.046559736 0.013419022 141
-0.082537778 -0.046338018 0.0075965906 156.76923
0.085121058 -0.063476875 0.0063964929 148.25
0.13916473 -0.058789726 0.012498533 141.08109
0.68061996 -0.044128165 0.041451413 174.07143
0.72429127 -0.042235538 0.044295989 176.23077
0.83143222 -0.026281698 0.058362052 182.46666
0.92120641 -0.037938666 0.062329229 185.33333
-0.64651257 0.089857057 -0.0024541363 129
-0.529773 0.079754531 0.0044093998 137.75
-0.4314484 0.07147266 0.0076570213 148.25
-0.33998182 0.063277781 0.016381418 151
-0.24996844 0.055522885 0.021467701 144.28572
-0.15782447 0.04917492 0.0084452387 146
-0.082184933 0.052775763 0.003792552 162.33333
0.1357203 0.068844005 0.012013564 142.5
0.68441832 0.058049124 0.042817354 174.42857
0.72549653 0.06864883 0.045636013 176.375
0.82737374 0.058644753 0.05839422 182.11111
0.9314115 0.064737394 0.062459163 185.39999
-0.36555073 0.15480639 0.033513378 143.2
-0.22169253 0.12367117 0.0481035 126.88889
-0.16205709 0.14663096 0.016132286 140.35001
-0.083504386 0.13095537 0.0030816859 161.33333
0.13888343 0.18892258 0.065605439 135.13333
0.66989714 0.14913158 0.045061294 174.8
0.7649973 0.16660753 0.055047449 180.77777
0.85048252 0.14107005 0.061262637 184.46153
0.92017031 0.15659893 0.065469928 184.60001
-0.45474261 0.28452435 -0.0006018735 146.25
-0.34984657 0.24861336 0.0067860573 149.60001
-0.23724043 0.23808381 0.018843563 144.88889
-0.14455192 0.25382081 0.018465843 146.36363
-0.060394827 0.28409433 0.019028369 154.39999
0.0082883509 0.25758642 0.080982231 141.5
0.1062281 0.20654657 0.092842363 142.8
0.68694633 0.20614596 0.044853684 176
0.76038605 0.24029937 0.059310786 182.875
0.84644431 0.24840748 0.058567677 185.28572
0.90103978 0.26583505 0.06246113 186
-0.56042546 0.31713918 0.012936405 191.14285
-0.43077445 0.38835838 0.021220818 167.8
-0.33523703 0.34554893 0.010694468 153.2
-0.26721659 0.31229785 0.015883364 150.5
-0.063657023 0.36865005 0.024858033 151
0.012135941 0.39622319 0.017641777 163
0.84849244 0.3146199 0.061883438 188.66667
-0.47243863 0.40581048 0.031387478 206.75
-0.21435742 0.49896565 0.0042197253 149
-0.15191746 0.44424775 0.014914039 145.16667
-0.049819507 0.44862884 0.018113494 151
0.029841803 0.44629258 0.0201046 159.16667
-0.45307773 0.51869833 0.065760188 204.60001
-0.31809038 0.58376819 0.0044724857 147
-0.24925542 0.52641785 0.0074827974 148.75
-0.1455047 0.56447875 0.011947627 146.66667
-0.037597597 0.52841514 0.019847786 146.66667
0.0091138044 0.51406604 0.019201078 151
-0.40922078 0.63385296 0.076898403 206.25
-0.38416451 0.63034999 0.026614899 207.71428
-0.23642202 0.6614427 0.0088083334 147
-0.072145097 0.62707579 0.014326066 145
-0.31828991 0.72835225 0.054555286 209.375
-0.13606362 0.71526027 0.011816079 140
-0.28831339 0.89118528 0.070466824 208.2
-0.28673583 0.90474325 0.040726226 210
-0.20317359 -0.40140247 0.098386601 131
-0.22063623 -0.2320337 0.13995481 133.5
-0.15550682 -0.28243181 0.10106659 149
-0.039954141 -0.21036337 0.17378663 131
-0.27502677 0.12581712 0.11620905 148.57143
0.046469498 0.17436714 0.1742644 121.83334
0.10946354 0.19040623 0.13279508 130
-0.15704046 0.22572628 0.17372058 205
-0.031110726 0.21814702 0.19288325 173.5
0.066943705 0.23148802 0.11426651 126
0.097766921 0.20617467 0.11448281 139
-0.14129497 0.29754436 0.15632191 205
-0.42304727 0.6376093 0.099280603 204
-0.32878539 0.71325999 0.11681214 206.75
-0.30171978 0.87925154 0.12760743 207
