# .PCD v0.7 - Point Cloud Data file format
VERSION 0.7
FIELDS x y z intensity
SIZE 4 4 4 4
TYPE F F F F
COUNT 1 1 1 1
WIDTH 50
HEIGHT 1
VIEWPOINT 0 0 0 1 0 0 0
POINTS 50
DATA ascii
-1.2212622 1.8611577 0.31294131 11
-1.2273226 1.8539281 0.43737504 13
-1.2252625 1.8452208 0.59580702 15
-1.1837138 1.8812681 0.46967894 13
-0.93117619 2.0026259 0.34451452 12
-0.73574728 1.7212957 0.45068261 14
-0.78109115 2.4919865 0.3951681 12
-0.73539859 2.6298916 0.59913945 14
-0.67152739 2.8775275 0.57605445 13
-0.72574389 2.688921 0.78811395 15
-0.59402072 3.1457226 0.45048314 12
-0.52909815 3.2969158 0.43660456 11
-0.42013088 3.554821 0.72503489 13
-0.4444119 3.4880428 0.92535478 15
-0.29818928 4.7330685 0.48855919 10
-0.22429252 4.71911 0.7421996 12
-0.18816361 4.7203364 0.4949058 11
-0.13393314 4.8237162 1.1335956 14
0.12881489 5.5486674 0.53348553 10
0.63855428 1.2542456 0.077276982 9
0.87814802 1.1339341 0.0083647314 7.5
0.87436759 -0.85762334 0.3398622 13.5
0.91584009 1.1596349 0.28984806 12.666667
1.2793754 1.0137751 0.11432737 9
1.4804438 0.95168936 0.087479167 9
1.523692 0.90019476 0.32288712 12.5
1.5934193 0.80480945 0.4439508 14
1.5584375 0.95124006 0.45707953 14
1.6176909 0.92191958 0.5272463 15
1.8916835 0.70718557 0.37106058 12.5
1.9648837 0.69341695 0.56893152 15
2.2138786 0.70850807 0.28410587 11
2.2257109 0.70741874 0.52018595 14
2.7162104 0.54000986 0.65206915 14
2.7817533 0.50630528 0.80419451 15
2.9067402 0.44566673 0.51304805 12
3.2489378 0.29995364 0.2767441 10
3.2853982 0.30966246 0.69177341 13
3.5756528 0.18329954 0.47271663 11
3.4900432 0.23551743 0.87042195 14.5
3.7918303 0.083143413 0.23348874 9
3.6250134 0.17986752 0.57472539 12
4.0007124 -2.8213089 0.892923 12
4.1693039 -2.4925036 1.3623205 15
4.3654451 -1.8330573 0.018881062 7
4.3884063 -0.13145846 0.38428286 10
4.5516987 -0.20494343 0.17914002 8
4.676589 -0.20161113 0.99932313 13
4.6213646 -1.3856318 1.4390363 15
6.4714394 -7.1826148 2.2765591 12
