# .PCD v0.7 - Point Cloud Data file format
VERSION 0.7
FIELDS x y z intensity
SIZE 4 4 4 4
TYPE F F F F
COUNT 1 1 1 1
WIDTH 70
HEIGHT 1
VIEWPOINT 0 0 0 1 0 0 0
POINTS 70
DATA ascii
-2.6856675 3.9349117 0.70993185 10
-2.6584675 4.0622215 0.63911998 9
-2.6615949 3.9767816 0.83417934 11
-2.764694 3.9083488 1.0373158 12
-2.6074018 4.0783467 1.4281226 14
-2.4346895 2.0559852 0.43298253 10
-2.4358354 2.5873501 0.49490455 10
-2.4310341 2.4586487 0.64469862 11.5
-2.4169953 2.4765944 0.85508674 13
-2.4110572 2.4347591 0.95328331 14
-2.3743746 1.6204901 0.68265349 13
-2.371182 1.7364762 0.81295693 14
-2.3691213 1.7709193 0.92775422 15
-2.3922067 2.3364809 1.1003615 15
-1.9803168 -0.83107543 0.32327726 12
-1.9623086 -0.82829803 0.39893433 13
-1.510306 -0.82452095 0.31642687 13
-1.3513013 -0.82094866 0.28916806 13
-1.3652989 -0.82223141 0.38796428 15
-1.1583025 -0.82066923 0.2572695 13
-1.0752903 -0.81508678 0.32226792 15
-0.66149086 1.0428652 0.093873315 8
-0.69726592 -0.79854268 0.27146614 15
-0.43364275 1.0460248 0.11429353 8
-0.30145615 1.1273205 0.1759823 9.5
-0.16548024 1.1959711 0.23763451 11
-0.022216374 -1.0566385 0.14823383 13
0.1449067 1.1281265 0.12308059 8.5
0.16139494 1.1804682 0.28612766 12
0.28655824 -1.0559661 0.069952905 10
0.24672548 -1.0343885 0.21109851 14
0.33273992 1.0365039 0.26165521 12
0.54056054 1.0243208 0.0074716164 6
0.51333076 1.0686464 0.12527603 9
0.54221332 1.0554729 0.36109883 14
0.64813685 1.0454489 0.15125802 9.5
0.81725127 -1.1028311 0.31829989 15
1.0069046 1.1725793 0.52056754 15
1.2738923 1.1671569 0.43435061 13
1.2359185 1.1812043 0.50996584 14
1.5219104 1.1790103 0.41112348 12
1.4118958 1.1652175 0.56404346 15
1.7419106 1.1740096 0.56873018 14
1.9919016 1.1623778 0.75766706 15
2.1954257 1.1836098 0.55632323 12.5
2.2139342 1.1851202 0.67339748 14
2.5194342 1.1941925 0.37952247 10
2.436913 1.1675762 0.80440009 15
2.8839188 1.1694677 0.85257733 14
3.3179543 1.2031164 0.47067395 10
3.3599689 1.1915463 1.1298263 15
3.6589656 1.2125189 0.3860932 9
3.7297902 1.0956972 0.61418873 11
3.7278314 1.1185275 0.7086395 12
4.1616654 -0.24855399 1.1676359 15
4.0831652 -1.1854265 1.1707511 15
4.151876 -0.74156445 1.164326 15
4.2415853 0.98373735 0.1079094 7
4.7899952 -5.6219668 -0.195371 8
5.1720581 -0.59319216 0.022914775 7
5.3238034 -4.5075278 0.26991037 9.5
5.3363338 -4.8290501 1.1675049 13
5.4065027 -5.950458 0.4644765 10
5.4580684 -6.8539157 0.689897 11
5.4491601 -5.5522537 0.84096289 11
5.4568458 -4.4989462 0.83770019 11.5
5.4216738 -5.866652 1.1872916 12
5.493536 -5.3488598 1.8450463 15
5.9189653 -4.4557543 1.8393129 15
7.2198381 -3.9234314 2.2155509 15
