# .PCD v0.7 - Point Cloud Data file format
VERSION 0.7
FIELDS x y z intensity
SIZE 4 4 4 4
TYPE F F F F
COUNT 1 1 1 1
WIDTH 500
HEIGHT 1
VIEWPOINT 0 0 0 1 0 0 0
POINTS 500
DATA ascii
-4.0357294 3.4533803 0.44239962 9
-4.0290198 3.4207463 0.71662676 10.25
-4.0046425 3.4154427 1.1205591 12.5
-3.9719822 3.149893 0.41513821 9
-3.9556253 3.5510004 0.45838761 9
-3.9435081 3.0428863 0.64042747 10
-3.9769783 3.3573401 0.70101875 10.2
-3.9379287 3.0783067 1.0883808 12.666667
-3.9600253 3.3755996 1.1330378 12.6
-3.9138775 3.0896103 1.4247321 14
-3.8928337 3.5402009 1.3582795 14
-3.2226086 2.1198354 0.39635229 9.333333
-3.2160511 2.1191149 0.74998528 12.25
-3.2073712 2.1331809 0.9526704 13.5
-2.8093653 -0.66691262 0.32789743 10.5
-3.1522856 1.8674973 0.384298 9.5
-2.8073392 -0.67663503 0.65968817 14
-3.1594057 1.9113919 0.65949053 11.5
-3.190345 2.1013789 0.80596983 12
-2.8088865 -0.83321881 0.83314526 15
-2.832289 -0.72580147 0.84540671 15
-3.08409 1.7570796 0.94933242 14
-3.184572 2.1268094 1.1037579 14.666667
-2.7461276 -0.98817527 0.2782295 10
-2.7917249 -0.77758276 0.31219432 10.5
-2.7284229 -1.0002429 0.58309162 12.777778
-2.7901824 -0.74190068 0.56080365 12.6
-2.7178195 -1.0108665 0.8059358 15
-2.7788498 -0.82162291 0.84295881 15
-2.1256051 -0.96894211 0.30337563 11
-2.1377156 -0.97220093 0.4828862 13.166667
-1.7905933 -0.90474468 0.28183994 11.25
-1.8032677 -0.907956 0.47549498 13.8
-1.4268402 -0.83299309 0.30958134 12.666667
-1.2367326 -0.7964139 0.3106328 13.5
-1.4180565 -0.83326924 0.4143607 14.5
-1.2477616 -0.79947746 0.38229939 15
-1.3408523 1.1128293 0.49446514 14.5
-1.0452861 -0.75969851 0.31339949 14.2
-0.96869481 1.2191424 0.41029534 13.5
-1.1467611 -0.7803303 0.37890658 15
-1.0439011 1.1669859 0.46861163 15
-0.95800227 1.219278 0.50711936 15
-0.46346831 0.55981565 0.015805114 7
-0.53299427 -0.56438971 0.018570939 8.25
-0.52878976 -0.29936922 0.017568171 8.25
-0.56406343 0.26026255 0.038508616 8.5
-0.5427289 0.58031732 0.034279395 7.5
-0.64152622 0.93911654 0.045669146 7
-0.75131762 1.2670486 0.47725376 15
-0.21371849 0.58374405 0.017089505 7
-0.36316788 -0.82483149 0.029632842 9
-0.23769683 -0.60703945 0.018895769 8.75
-0.35914013 -0.37322843 0.015381181 8.5
-0.31706184 0.39882299 0.028608732 8
-0.25741002 0.5508588 0.024408791 7.25
0.39327553 -1.0200118 0.2700921 15
0.39547059 1.503708 0.52586257 15
0.61495745 -0.13135235 -0.037471797 5.5999999
0.64740294 0.11899212 -0.038542148 5.1666665
0.77809364 0.40714809 -0.0045543252 7
0.40001792 -1.225353 0.22389209 13
0.7897954 -0.18796991 -0.0046372092 7
0.42038825 -1.3350462 0.3625913 15
0.6228379 1.5410054 0.51158851 14.5
1.0877955 -0.43558607 -0.04191054 6
1.0935488 -0.12937473 -0.022145227 7
0.96930969 0.21174932 -0.014076378 6.4000001
1.1022977 1.630742 0.44637012 13
0.82133293 1.574872 0.54857343 14.5
1.0144483 1.612039 0.53946847 14
1.3444107 -0.30106226 -0.036779419 7
1.4145172 0.28453368 -0.031954005 6
1.4318308 0.62128174 -0.027798014 6
1.3893732 0.94177616 -0.025468327 6
1.4177622 1.6897475 0.42391545 11.5
1.4001837 1.6845995 0.59800959 13.875
1.7981368 0.26549587 -0.03007815 6.5
1.832255 0.52832323 -0.021680038 6.3333335
1.8472209 1.0291451 -0.035314728 6
1.8747354 -7.7338829 0.0053848806 8
1.8305954 1.7695317 0.43578017 11
1.9245201 -7.7473435 0.26020497 9
1.8230392 1.7623172 0.65212023 13.538462
1.9506783 1.7795174 0.86272323 15
1.9148329 -7.7375655 1.0026027 12
2.2114758 0.6993975 -0.029079009 6.5
2.0923748 1.3577403 -0.056467876 6
2.2489362 1.9152933 0.019469475 7
2.0060837 -7.7311363 0.11674511 8
2.1915712 1.8715252 0.29104087 9.166667
2.305932 -8.3565388 0.17926696 8.5
2.0925677 -6.3513436 0.3477717 10
2.2148757 1.8364687 0.65428066 12.75
2.2809515 -8.3507881 0.50612921 10
2.1984894 1.8262442 0.90054888 15
2.3013563 -8.361392 1.2816936 12
2.6642156 0.71953034 -0.065057158 6
2.5193868 1.3028135 -0.071289688 6
2.4664545 1.6530886 -0.075124167 6
2.411412 -8.348506 0.010170571 8
2.6098413 1.919546 0.38855195 9.666667
2.5629835 -8.3167095 0.18824132 8.5
2.8000998 1.3537298 0.75127369 13
2.5965145 1.9086156 0.68761724 12.5
2.7780979 1.29216 0.92239881 15
2.5880647 1.9020227 0.96423471 14.666667
2.8986137 1.1416463 -0.079456195 6
2.9327071 1.8659705 -0.027734512 6.3333335
2.969286 1.9717143 0.30095401 9
2.9607954 2.0139859 0.31183249 9
2.8551652 1.2748255 0.78637475 13.5
2.9848473 1.95322 0.6699506 11.833333
3.0445859 1.9965783 0.63163221 11.5
2.8343718 1.3206044 0.84451556 14
3.0248463 1.930125 0.99529684 14.2
3.0059226 1.9762237 0.98482877 14
3.0516469 -8.2120495 1.6690814 13
3.0372186 -8.2217617 1.854846 14
3.4989703 0.58126634 -0.10227674 6
3.2993324 1.3240341 -0.069497608 6
3.2748287 1.765861 -0.054199424 6
3.5598614 1.0219501 0.30355713 9.333333
3.5001819 1.3694091 0.29110509 9
3.3313043 1.8599837 0.22824593 8
3.5703733 0.91378301 0.59484249 11.5
3.5385768 1.2651569 0.65123188 12
3.3772659 1.8231242 0.66146934 11.428572
3.5316761 1.0168939 0.9606638 14
3.5210285 1.3879684 1.0427074 14.5
3.3590939 1.9156936 1.0341399 14
3.5348668 -8.1128683 1.3996991 12
3.9683454 -5.8772678 -0.29396862 7
3.6274335 -0.19658214 -0.095100731 6
3.8728495 -5.9482489 0.041893091 8
3.9261281 -1.1828738 0.2844373 9
3.8914187 -0.58397406 0.23269741 8.666667
3.8255141 -0.2970354 0.17190666 8.75
3.6270354 0.61164129 0.21813785 8.5
3.6775529 1.4911331 0.22756593 8.5
3.6574533 1.7426355 0.23995672 8.333333
3.9149005 -5.8661213 0.36527801 9
3.8945951 -0.88583511 0.66502064 12
3.8609505 -0.60356218 0.62186158 11.666667
3.7997103 -0.23900099 0.61663318 11.75
3.7453477 0.19658922 0.60699713 11.666667
3.6950908 0.4490419 0.58662206 11.333333
3.6296492 1.070531 0.49461246 11
3.9640758 2.2450349 0.60191011 10.5
3.9718001 -0.96057755 1.0660654 15
3.8673096 -0.65530938 0.85386389 13.333333
3.8033648 -0.26408893 0.96986443 14.2
3.7850122 0.15818745 0.94371289 14
3.6728816 0.54633278 1.0382318 14.666667
3.6389658 1.0047973 1.010367 14.5
3.7211068 1.1792392 1.1048688 14.5
3.8482711 -8.0496454 1.517913 13
3.8595376 -8.0369263 1.9231768 14
4.0579548 -5.7002921 -0.29043475 7
4.3572598 -3.5837507 -0.24882481 6
4.2501364 -5.6718764 0.084342517 8
4.3015676 -3.770824 -0.1163921 7
4.020401 -1.2162539 0.018027408 8
4.2158046 2.2358499 0.33545423 9
4.1737518 -5.8419175 0.39331803 9.5
4.0443425 -1.436596 0.36010084 10
4.1795096 2.2175558 0.64620441 10.75
4.0620389 -1.2508628 0.87277621 13
4.0514112 -0.94878507 0.85841501 13.5
4.1734495 2.2086532 1.1378032 13.333333
4.3674698 2.2337344 1.3543389 14
4.0828075 -8.0184593 1.845426 13.5
4.6326175 -6.2975869 -0.2931833 7
4.7522478 -3.5022798 -0.26768035 6
4.6396661 -0.41111004 -0.041517541 7
4.5084968 -6.4906545 0.024238786 8
4.44769 -3.6330564 -0.10193573 7
4.5997291 -3.5852518 -0.097979113 7
4.5341125 -0.31144428 0.020795532 7.5
4.773417 0.53813285 0.13776679 7.6666665
4.5942788 2.3055501 0.31430766 8.5
4.7585297 -5.7560735 0.22503553 9
4.6173248 2.2989213 0.65208352 10
4.48735 2.266835 1.0681634 12.75
4.6650624 -7.8853173 1.9028816 13.5
4.9734354 -4.9648156 -0.26862344 7
4.9936314 -4.7521477 -0.24362858 7
4.9432068 -0.79369807 -0.12130552 7
5.1596813 -5.0026488 -0.18298446 7
5.0813479 -4.5403852 -0.050973106 8
5.1869335 -1.0042143 0.14977768 8
5.0337791 -0.66143048 0.36054942 9
4.8736377 -0.042705335 0.36589226 9
4.9998808 0.19726507 0.20001814 8.125
4.8575063 0.55920839 0.21598747 8.25
5.1944232 0.89173424 0.29046398 9
5.1372619 -4.502213 0.23616734 9
5.0174918 -0.51834518 0.40365177 9.5
4.8351617 -0.15427315 0.39365393 9
4.9741845 0.20929696 0.44316331 9.666667
4.8638558 0.5184859 0.49692497 9.666667
5.0407944 0.79362249 0.42744598 9
5.0529852 0.49060562 0.86495954 12
4.9581542 -7.8339396 1.5044638 12.6
5.0330896 -7.822773 2.0608015 14
5.5465569 -5.1537557 -0.19657645 7
5.2942696 -3.8556466 -0.19890592 7
5.3203049 -3.4525115 -0.25961432 6
5.4041619 -4.5133004 -0.051572274 7.5999999
5.3138509 -3.7847285 -0.024205422 7.75
5.4411483 -3.4553008 0.012299789 7.75
5.241993 -0.91532272 0.15267295 8.333333
5.3063288 -4.4548159 0.24911773 9
5.54459 -3.4504144 0.47531277 9.5
5.4470687 -1.0351131 0.35924235 9
5.4621148 -0.18711504 0.46381125 9.75
5.4050021 2.4666159 0.67803812 10
5.3886023 -7.7446165 0.8169291 10.666667
5.5088797 0.27100047 0.8532455 11
5.3841333 2.4413524 0.88568801 11
5.3325677 -7.7651606 1.4798459 12.5
5.3380151 -7.7621102 1.8643898 14
5.372335 -7.4640603 2.0752127 14
5.5044742 -7.1621294 2.065711 14
5.8844085 -7.7249255 -0.42939678 7
5.8848443 -6.8922033 -0.43773517 6.5
5.8476024 -6.5285735 -0.41990182 6.5
5.8121562 -6.2360859 -0.37419909 6.5
5.8459253 -4.404705 -0.2122829 7
5.6742558 -3.4763315 -0.27148163 6
5.8888283 1.8157014 -0.1165677 6.5
5.9721136 2.080327 -0.02251753 7
5.8745894 -6.6360598 0.077904724 8
5.8599625 -6.1878648 0.11796108 8
5.6491575 -4.4548044 0.032510098 8
5.8556232 -4.3803639 0.0080679106 8
5.6304646 -3.677109 0.15329476 8.5
5.6802235 -3.3360033 0.095116466 8
5.9143372 -1.0094092 -0.042489484 7
5.9240713 1.8776754 0.16110393 7.5
5.9449649 2.1626961 0.23701565 8
5.779952 -7.7662573 0.39640746 9
5.8593245 -6.1877918 0.23436375 9
5.8978715 -5.8582134 0.51233137 9.5
5.968049 -4.8623018 0.39157867 9.5
5.9088264 -4.5634894 0.42771226 9.5
5.8447762 -4.2301917 0.43254852 9.5
5.699883 -3.8531601 0.48037547 9.5
5.735343 -3.4166679 0.49669641 9.666667
5.8590503 -0.76253521 0.46475661 10
5.6858945 0.26111135 0.55400932 10
5.9199166 2.2053499 0.61551207 9.5
5.785696 2.4778402 0.73767555 10.333333
5.9333305 -4.6207519 0.76079553 11
5.8777013 -4.2041831 0.91310972 11.666667
5.7143121 -3.8547721 0.77953041 11
5.7156353 -3.3912799 0.84064668 11.25
5.9348435 2.1884887 1.0509014 11.333333
5.8615117 2.4792905 0.99946451 11.5
5.9760361 -5.0123596 1.2132412 12
5.9107566 -4.2594543 1.3161426 13
5.76441 -3.8450809 1.2916116 13
5.6802883 -3.4403179 1.3413007 13.333333
5.9225097 2.2528059 1.3612162 13
5.8892632 2.4562342 1.3257253 12.5
5.8073325 -7.7273288 1.6381454 13
5.9955029 -4.8695683 1.6650808 14
5.9522843 -4.6823063 1.5613142 13.5
5.8909669 -4.3572321 1.5620772 13.75
5.7099838 -3.7956035 1.4680009 14
5.6987052 -3.4823585 1.5632534 14.5
5.9485316 2.1652429 1.7052585 14
5.7517195 -6.7232041 2.0660841 14
5.827888 -6.2582717 2.037123 15
5.9650803 -5.891427 2.0331709 15
5.9975424 -4.5838089 1.9484727 15
5.9371309 -4.2463346 1.9167548 15
6.1602697 -7.6654005 -0.48521823 6.5
6.0256033 -6.1730142 -0.32250449 7
6.3110499 -1.2322899 -0.095638245 7
6.3877578 0.37583509 -0.14166728 6
6.0440435 -6.1333408 0.14140847 8
6.0899291 -5.8141193 0.039910052 8
6.0967312 -5.5681453 -0.067505844 8
6.2680206 -1.1251173 0.19749726 8
6.1177673 2.1860008 0.16860595 8
6.232069 -7.6651831 0.41535199 9
6.3495884 -6.9420238 0.45334136 9
6.2759614 -6.5489383 0.50320268 9.5
6.1379547 -5.8304114 0.53365147 9.5
6.0971756 -5.5494881 0.39387462 9.5
6.0135064 -5.0871201 0.4181315 9.5
6.4004941 -1.4255351 0.40328574 9
6.3649077 -6.9439111 0.55623347 10
6.3775744 -6.8013606 0.74541062 10
6.1976089 -6.1398258 0.63856745 10
6.1741962 -5.741199 0.75644386 10
6.1071439 -5.3569279 0.99265271 11
6.060554 -5.1432633 0.76498431 11
6.398181 -6.9125595 1.1655359 11
6.3594565 -6.6552801 1.0030407 11
6.2906446 -6.2994976 1.0000104 11
6.1969895 -5.7771244 1.1252455 11.333333
6.0135312 -4.7881827 1.3376535 13
6.1530528 2.1626973 1.5514193 13
6.2056742 -7.7236085 1.5856527 12.5
6.3973384 -6.9814196 1.6666149 13
6.3214669 -6.5882502 1.6380595 13
6.2927818 -6.3481145 1.588879 12.666667
6.1987553 -5.8888445 1.6060215 13
6.1221256 -5.5279131 1.6609157 13.666667
6.0264006 -5.1068993 1.5694363 13.333333
6.2042437 2.1709564 1.9330949 15
6.2089186 -7.728478 1.9869336 14
6.3930407 -7.6131306 2.0053709 14
6.3354311 -6.3173585 1.8998681 14
6.0441818 -5.7239084 2.0357687 15
6.1598344 -5.4805036 2.0414824 15
6.1064315 -5.0924602 2.0034575 15
6.0564914 -4.8383684 1.9774333 15
6.4656372 -3.2967656 -0.18211924 7
6.4713798 -3.3288851 0.062840678 8
6.4436741 -1.3790958 0.13105994 8
6.5810151 -0.86586213 0.14891547 8
6.4713483 1.0882068 0.22918244 8
6.7602878 2.0992894 0.35050321 8
6.4422975 -7.3882613 0.43916225 9
6.6353707 -1.3532907 0.67191917 10
6.5156665 -1.1969509 0.57874489 10
6.4629164 -7.4441137 0.64799082 9.5
6.4473453 -7.2007732 0.74264866 10
6.5187268 -3.2865319 0.81014419 11
6.5161133 -1.2745329 0.94673073 11
6.5571918 -8.9856129 1.0116159 11
6.4058928 -7.6569047 1.0005947 11
6.5290413 -7.4720244 1.0148742 11
6.4292607 -7.0376792 1.0079913 11
6.5606713 -3.280087 1.1126225 12
6.4180613 -7.6834002 1.702861 13
6.4943295 -7.5231581 1.5995821 12.5
6.4840889 -7.2024155 1.5281051 12
6.4117551 -6.8284841 1.4515606 12
6.5529633 -3.3077929 1.8552437 15
6.5538802 2.2227118 1.8065119 14
6.5302758 -7.5204773 1.9035163 13.5
6.4782572 -7.0653348 1.9771554 14
6.4083433 -6.6803555 1.9361722 14
6.4463744 -3.4090753 2.005758 15
7.1353812 0.26777023 -0.25798604 6
6.9274096 -8.9070578 0.74543285 10
6.7993069 -8.9126577 1.0354146 11
6.9902506 -3.7987046 2.0344632 15
7.2033811 -3.4609907 2.0156195 15
7.1460724 -3.1522954 2.0224199 15
7.5775852 -3.4297328 -0.49869898 6
7.2639761 -4.0887585 1.9975289 14
7.4649358 -3.0857673 2.0198507 14.333333
7.8121219 -4.4856019 -0.45956543 6
7.7576895 -4.2287445 -0.3228071 6.4000001
7.6451859 -3.7899394 -0.34825343 6.3333335
7.5982709 -3.4078996 -0.28180861 7
7.714653 -3.0528765 -0.22276774 7
7.6558647 1.3544524 -0.11955364 6.5
7.7748427 -4.2177887 0.046336044 7.5
7.6548309 -3.7130253 0.1137469 8
7.6301775 -3.4756002 -0.031678885 7.3333335
7.7243571 -3.0434463 0.002343161 8
7.6869783 1.2489278 0.079522073 7
7.9232016 1.8636618 0.20196481 7.5
7.7006087 -3.8504872 0.38821372 9
7.6507692 -3.5164804 0.43385389 9
7.6800303 -3.7505 0.82792526 10.5
7.6687269 -3.4920301 0.84497404 10.333333
7.7368808 -3.6958389 1.2527465 12
7.6846652 -3.3837664 1.1274745 11.5
7.6700039 -3.7667544 1.7135913 13
7.7246623 -3.5422609 1.6375319 13
7.9294019 -4.5438037 1.8932074 13
7.8420181 -4.3169923 1.8898637 14
7.759727 -3.8729777 1.8781937 14
7.7024212 -3.4934127 1.8729327 14
7.8186779 -2.9871223 2.3477364 15
8.2838964 -0.23696129 -0.32596934 6
8.1037111 0.015807219 -0.10890669 7
8.1295977 -0.27085468 0.098943435 7.4000001
8.074194 1.7533237 0.37963995 8
8.3984623 1.7301955 0.7920326 10
8.3416386 1.4312621 2.2288456 14
8.5142994 1.5636743 0.76875997 9
8.4028759 1.8219129 0.58669519 9
8.6007547 0.91374785 2.210608 14
8.5389175 1.222326 2.3155754 15
8.8969574 -2.9032731 1.133942 11
8.9183884 -1.2256732 2.2597146 14
8.8309469 0.73496342 2.0899425 14
9.2885294 2.2273989 0.40129396 8
9.3302794 2.2448432 0.63970232 9
9.2680044 0.57131469 2.1369927 14
9.4713392 1.4419018 2.0889063 13
9.9164476 -0.98197603 -0.017918916 7
9.7549467 -3.3323593 2.0327234 13
9.8482628 2.9731014 2.7555876 14
9.9813433 -3.1497223 2.9089348 15
9.911809 -2.1877997 2.887044 15
9.7911263 -1.7444932 2.9104652 15
9.8227539 0.9495979 2.952842 15
9.7624702 2.2524631 2.9511805 15
10.079439 1.1172291 1.8563056 12
10.071691 1.3488132 1.8964785 12
10.157757 -3.4563122 1.9941385 13
10.338019 -3.4841309 2.8638227 15
10.217433 -1.1319187 2.8994145 15
10.253618 1.1570753 2.8720491 15
10.675554 3.4433267 1.155443 10
10.647269 1.6651981 2.025027 12
10.654166 -3.6114178 1.9618796 12
10.693692 2.1018846 2.4046826 13
10.733741 -2.198482 2.8656898 15
10.589213 -1.4493279 2.8847396 15
10.499345 -1.2061348 2.883451 15
11.072519 -3.8858032 -0.12188225 7
11.012285 -2.4172132 1.793366 12
10.972971 -3.540431 2.8571761 14
11.101295 -1.1989101 2.8655529 14
10.887914 3.0354578 2.9524381 14
11.316568 3.5728977 0.81340343 9
11.587271 0.47249973 2.2360306 13
11.482133 0.84522629 2.2868619 13
11.408021 1.2188336 2.3448207 13
11.31104 1.9930098 2.2127788 12.5
11.304459 2.4396863 2.2679243 12.333333
11.590901 0.20878692 2.4863894 13
11.286813 1.9598606 2.4677896 13
11.593389 -2.6318753 2.8289297 14
11.500575 -2.334183 2.8351338 14
11.532832 -2.0643682 2.8700128 14
11.497126 -1.3518181 2.8374836 14
11.423311 -1.0792364 2.8488252 14
11.707445 3.6538334 0.75905418 9
11.88737 -1.2959216 2.262059 13
11.694839 -0.77650142 2.3203347 13
11.829831 -0.036015891 2.1853762 12
11.982493 -1.4278917 2.6470437 13
11.766155 -0.53260446 2.3783817 13
11.693397 -0.28264698 2.4114947 13
11.664659 -0.035922464 2.4520671 13
12.12816 3.7121682 1.6220862 10
12.070659 -0.30109406 2.1767244 12
12.105297 -1.7353272 2.6382184 13
12.735425 -3.0853145 -0.61948955 6
12.756727 -3.1493633 -0.18928261 7
13.096128 -5.0945339 -0.67875004 6
12.943441 -4.1829634 -0.4192892 6.5
13.013548 -4.1137037 -0.075223111 7
13.059176 -4.5174789 1.1642447 10
12.956426 -4.2579646 1.3414596 10
12.872158 -4.1157012 1.7304473 11
12.832562 -2.9757864 1.657271 11
12.888909 1.4935855 1.9358369 11
12.836204 1.7927814 1.9775769 11
13.576377 3.781467 -0.25395972 6
13.339792 4.0709114 -0.29905969 6
13.276266 3.944833 1.2905374 10
13.221663 -1.8637847 1.8122387 11
13.786591 3.6466467 0.80427963 8
13.70292 3.9712408 0.85209715 9
13.911777 2.9480979 1.1489242 9
13.772094 3.7482147 1.2695214 9
13.962285 2.629432 1.5307486 10
13.921618 2.9413757 1.581524 10
13.741761 -1.9737765 1.5405002 10
13.98281 2.7725699 1.99528 11
14.138311 1.6967534 1.38381 10
14.032965 2.3221045 1.4826257 10
14.354881 0.95829868 1.6981734 10
14.054143 2.162457 1.8898339 11
14.026476 2.467015 1.9424551 11
14.013357 3.6151605 1.6994398 10
14.53223 -1.7487849 1.6501037 10
14.5739 -0.039155755 1.8820795 11
14.549224 3.4102807 1.692196 10
14.859625 -1.4404343 1.721473 11
15.594547 0.36656317 1.6942824 10
15.881245 0.029973166 1.6571388 10
15.917716 -1.9025464 2.1532907 11
15.956129 3.5106437 2.2855377 11
15.875282 3.1171227 2.7264295 12
15.974349 3.7777975 2.6297417 11
16.392057 1.4931026 2.2986348 11
16.402927 1.0273776 2.6632202 12
16.206192 2.6380289 2.4604723 11
16.056019 2.7795765 2.7026136 12
16.788218 -1.9368494 2.6402214 12
16.787506 -0.47881812 2.4738147 11
16.605223 0.28183907 2.5686536 12
16.494476 0.98297226 2.5254624 11
16.898766 -1.2528068 2.3740759 11
16.848145 -0.86292839 2.4248855 11
17.548269 -2.0232711 1.3846517 9
17.270374 -1.0869706 1.5739578 10
