# .PCD v0.7 - Point Cloud Data file format
VERSION 0.7
FIELDS x y z intensity
SIZE 4 4 4 4
TYPE F F F F
COUNT 1 1 1 1
WIDTH 75
HEIGHT 1
VIEWPOINT 0 0 0 1 0 0 0
POINTS 75
DATA ascii
-8.8075438 -2.5261984 1.7746907 12
-7.891808 -2.2990854 2.2104254 14
-7.6217165 -2.2442455 0.67711556 9
-7.6931043 -2.3224051 1.0981475 10
-7.3291736 -2.778271 2.3523092 15
-7.1567912 -2.8406818 0.38388181 8
-6.9756579 -3.4440789 1.7095785 12
-6.4045711 -4.8175378 2.6721368 15
-6.2854505 -4.1064315 1.6219832 12
-6.2936497 -5.0132389 2.1437213 14
-6.022778 -5.1375775 1.870863 13
-5.5526757 -5.7185683 1.3971862 11
-5.5038109 -5.636167 1.841126 12.5
-5.5320759 -5.6173921 2.5950081 15
-4.8727021 -6.4254074 1.8058251 12
-4.592 -6.5635872 2.0345218 13
-4.7103724 -6.4458585 2.5945203 15
-4.3980064 -6.7987232 1.3799726 11
-2.5816605 4.4216051 0.76447558 12
-2.4105771 -5.7983789 1.311054 12
-1.9940561 4.8991523 0.82126313 12
-1.8710876 1.1007715 0.51015377 14
-1.8431756 1.0853168 0.63185859 15
-1.9530277 4.9413443 0.50402737 11
-1.7521974 5.069983 1.0750202 14
-1.4300296 1.452765 0.33464122 12
-1.3992846 1.079365 0.42866319 14
-1.4349054 1.4368122 0.47020045 14
-1.4491079 4.7333188 0.29262719 10
-1.48348 5.2041674 0.29132384 9
-1.5758121 5.2154689 1.4260021 15
-1.3164648 -4.4348378 0.47616318 9
-1.3913707 1.1517514 0.29822329 12
-1.2718319 1.5806437 0.35214883 12
-1.3868778 1.0821375 0.45480475 15
-1.2377288 1.5997782 0.44493207 14
-1.3709718 4.7611499 0.49454337 11
-1.1853687 -4.6120071 1.1144097 13
-1.1817074 0.99519813 0.33172518 13
-1.014371 -4.4710937 0.99129987 12
-0.38033786 3.5612247 0.47064567 12
-0.37065825 3.5410976 0.70566314 14
-0.30043262 -6.5188751 2.1036716 15
-0.017453164 3.1416862 0.76129293 15
0.17047755 2.7591183 0.48067021 13
0.16599752 3.0026493 0.46144199 12
0.2019195 2.7147744 0.63497853 15
0.28327221 2.2893257 0.18375416 10
0.22380945 2.7973449 0.63166821 14
0.56487942 2.2147782 0.25775999 11
0.44341353 2.486829 0.42949361 12.5
0.47247666 2.4885414 0.56168443 14.5
0.64193958 -1.456718 0.30703321 12
0.62721068 2.434212 0.38045406 12
0.64093268 2.4623055 0.55629909 14
0.82349277 2.1533751 0.57617378 15
1.2358952 1.5747334 0.079713456 9
1.2254981 1.5873948 0.1547343 10
1.4581119 -0.79086471 0.34324217 13
1.4233108 -0.72450936 0.29526457 12
1.47252 -0.73559153 0.4360823 14
1.7593242 -1.92056 0.30101755 10
1.7143092 1.06776 0.24944301 11
1.6124672 0.25578979 0.41438764 15
1.8530469 -2.6759903 0.82408464 14
1.9461166 -2.146574 0.8529036 15
2.0324957 -0.3131687 0.25771245 11
2.0786843 0.64636999 0.18657735 10
2.1860068 0.56728286 0.523426 14
2.0127254 0.71575177 0.51375717 15
2.3643641 0.08442051 0.26548263 11
2.2639968 0.29984108 0.25287667 10.5
2.2774944 0.20170967 0.40838099 13
2.2746682 0.3359428 0.39382088 12.5
3.7180498 -1.2191924 0.30130315 9
