# .PCD v0.7 - Point Cloud Data file format
VERSION 0.7
FIELDS x y z intensity
SIZE 4 4 4 4
TYPE F F F F
COUNT 1 1 1 1
WIDTH 554
HEIGHT 1
VIEWPOINT 0 0 0 1 0 0 0
POINTS 554
DATA ascii
-9.2874956 -1.2842834 2.8988512 15
-8.8679514 -1.7680596 2.8433318 15
-9.0843906 -1.5024871 2.9256713 15
-8.434268 -2.8780653 1.7086048 12
-8.6179237 -2.704037 1.7404342 12
-8.5001545 -2.2126029 1.9723929 13
-8.5025406 -1.9591367 2.4408169 14
-8.5018148 -1.6282976 2.3747785 14
-8.5925341 -1.5354626 2.2054746 14
-8.6504936 -2.0257463 2.7626548 15
-8.0370989 -1.9673525 0.5406996 8
-8.1244793 -2.953913 1.5607466 11.5
-8.1338844 -2.5044026 1.4919796 11
-8.0121717 -3.2648337 1.8856964 12
-8.167511 -2.9898262 1.9101704 12.5
-8.166276 -2.6595078 1.908824 13
-8.0530119 -2.1585886 2.0769215 13
-8.1635771 -2.0960565 2.3652327 14
-8.2124166 -1.8193811 2.3890188 14.5
-8.3324413 -1.4983211 2.5318167 15
-7.6325736 -2.4455326 0.48438814 8
-7.7531118 -2.1374846 0.43335357 8
-7.6334386 -2.4097044 0.68722206 9
-7.832149 -2.0795827 0.94746208 10
-7.6035342 -2.4274256 1.2573917 11
-7.6936755 -3.5729287 1.8362614 12
-7.7513566 -3.5378065 1.6022757 12
-7.8935013 -2.6249573 1.4447691 11
-7.7414765 -3.3036013 1.9263213 12.5
-7.7644491 -2.9266043 2.0422757 13
-7.7884517 -2.4895127 2.0737212 13.333333
-7.6766658 -2.5068312 2.3523839 14.25
-7.7772651 -2.1365001 2.5086324 15
-7.2689843 -2.9020791 0.43358111 8
-7.3912435 -2.6441197 0.38731858 8
-7.557672 -2.3825424 0.4163371 8
-7.2651205 -2.8487697 0.61976981 9
-7.3683043 -2.5666931 0.77720112 9.5
-7.5688028 -2.256654 0.92717385 10
-7.269887 -2.7785966 1.1834537 10.5
-7.3311181 -2.7210944 1.2038909 11
-7.3477755 -2.8972185 2.0302391 13.666667
-7.2783322 -3.1392546 2.3246186 14
-7.4128122 -2.9292324 2.2834764 14.333333
-7.5532546 -2.6743546 2.4179156 15
-7.1862798 -4.1249323 2.7938681 15
-7.0740805 -4.1252947 0.40006942 7.5
-7.1876645 -3.9028494 0.59856409 8
-6.834425 -3.2694116 0.5770095 8
-6.9860902 -3.0835648 0.43736884 8
-6.8653641 -3.2516148 0.9027372 9.5
-7.0200615 -2.9654572 0.78290874 9.3999996
-6.8629971 -4.3356104 1.0673505 10
-6.8381343 -3.2705023 1.1729693 10.5
-7.0695968 -3.0398016 1.2201866 10.75
-6.8095422 -3.6566732 1.5773547 12
-6.8873115 -4.125771 2.1029308 13.4
-6.9953952 -3.7672524 2.0320327 13.5
-6.83147 -3.1968067 2.0529668 13.5
-6.9944911 -3.1200678 1.8640939 13
-6.8521719 -4.5190997 2.7473581 15
-7.0524678 -4.2828264 2.7732339 15
-6.5338612 -4.7484517 0.41253376 7.5
-6.6048551 -4.0440288 0.41473961 7.5
-6.6233068 -4.5923281 0.96934414 9.5
-6.7428298 -4.2556639 0.82438105 9
-6.6295786 -3.5998139 0.80649453 9
-6.7263684 -3.3875284 0.89494622 9.5
-6.4284911 -4.9059639 1.4543787 11
-6.4326997 -3.9697156 1.4211856 11
-6.5845585 -4.7676039 1.5861115 11.5
-6.5426655 -4.4328284 1.7551529 12.5
-6.4093404 -3.9730968 1.6363435 12
-6.6156135 -3.7784326 1.6617615 12
-6.4840341 -4.8194618 2.1617889 14
-6.5521417 -4.5531197 2.0911047 13.4
-6.3829932 -3.9964011 1.8497485 13
-6.552247 -3.5443847 2.0165753 13.5
-6.6944394 -3.3652985 2.0886748 13.666667
-6.5563769 -4.6816597 2.6921704 15
-6.091898 -5.2930541 0.25258172 7
-6.0625219 -7.667428 0.74141991 8
-6.046576 -5.3382425 0.39907205 7.5
-6.2723174 -5.0268645 0.46423313 7.6666665
-6.2459078 -4.6099906 0.38173854 7.5
-6.376987 -4.2994227 0.42443642 7.5
-5.9962411 -5.3258281 0.99810272 10
-6.1799779 -5.1004276 0.89882177 9.5
-6.066596 -5.2567253 1.428215 11
-6.2646022 -5.0332904 1.4399068 11
-6.332727 -4.1264963 1.4112148 11
-6.0945082 -5.1658673 1.7270266 12
-6.2426209 -4.9762368 1.7619776 12
-6.1948881 -4.9869051 2.056725 13.25
-5.9778843 -5.2306237 2.6290815 15
-6.1882586 -5.0234094 2.6486125 15
-5.6857352 -5.6707687 0.241987 7
-5.8055129 -5.5330467 0.26368505 7
-5.8205791 -7.8950152 0.72517151 8
-5.7448878 -5.6598315 0.48977596 8
-5.8594275 -5.3827319 0.50124323 8
-5.6016808 -3.1215904 0.30135679 8
-5.6682687 -8.0021324 0.80295169 8
-5.6770725 -5.7286797 0.73075312 9
-5.7517896 -3.3821559 0.86057693 10
-5.7046599 -5.5927124 1.4053231 11
-5.8745737 -5.4822431 1.4174422 11
-5.624218 -5.5545053 1.7556478 12
-5.8238254 -5.4328756 1.7079564 12
-5.8299136 -5.3605185 1.9569949 13
-5.7738791 -5.4425535 2.6177788 15
-5.4256835 -3.8331752 0.52274472 8
-5.4425793 -2.9118981 0.47692484 8.666667
-5.2789536 -3.1888537 0.72719026 9.5
-5.3666024 -2.9322653 0.74651819 10
-5.2705789 -5.9959707 1.3880893 11
-5.4285655 -5.8751016 1.3958931 11
-5.3014913 -2.8995581 1.0273508 11
-5.262392 -6.0048089 1.8165716 12.5
-5.3986459 -5.85076 1.7658964 12.333333
-5.371294 -8.1058989 2.0128598 12
-5.5063648 -5.6508384 1.9011401 13
-5.3523221 -5.8491802 2.5989475 15
-4.8912148 -6.8727417 0.43679684 7
-5.0807543 -6.6371307 0.44688934 8
-4.9924555 -3.2710617 0.38416752 8
-5.1373863 -3.1930861 0.44154552 8
-4.8628054 -4.2447205 0.68346566 9
-4.9554482 -3.7681355 0.6976186 9
-4.9401627 -3.3910491 0.84058601 10.333333
-5.1099668 -3.1061957 0.98557967 11
-4.846343 -6.4060669 1.3804613 11
-5.0231032 -6.1572537 1.3769296 11
-4.824872 -8.4376211 1.8275094 11
-4.8820672 -6.5036139 1.8108187 12
-5.0697989 -6.2277899 1.8318545 12
-4.8540726 -8.3783312 2.330919 13
-5.0014763 -6.1540427 2.042624 13
-4.9731297 -6.1536698 2.5831666 15
-4.4007587 -5.0082259 0.45426616 8
-4.4732223 -5.2374392 0.79914242 9
-4.5420532 -4.1387196 0.67012244 9
-4.5858722 -3.7524886 0.79656267 9.75
-4.7467852 -3.5135241 0.91088748 10
-4.4867673 -8.6282072 1.5659938 11
-4.6217117 -6.598196 1.37806 11
-4.5292544 -8.6111803 1.8245831 11
-4.7643909 -6.7209859 1.8109411 12
-4.6187806 -8.6153164 2.336555 13
-4.6014576 -6.5738134 2.0368054 13
-4.494082 -6.6488538 2.6018584 15
-4.3617887 -6.3964057 0.64295095 8
-4.1003194 -6.2301254 0.4222264 8
-4.1780367 -4.8703265 0.24878223 7
-4.2245498 -4.6440535 0.35521069 7.5
-4.1385388 -4.2047968 0.33325729 7.3333335
-4.1449933 -6.6083903 0.71425539 9
-4.1238694 -5.3058472 0.75168008 9
-4.2250118 -4.6953697 0.64392811 9
-4.1996899 -4.1432548 0.76270366 9.75
-4.1723313 -7.1932497 1.4028846 11
-4.2637887 -6.9568424 1.3854116 11
-4.2051744 -7.3050423 1.7446477 12
-4.2861681 -6.9017491 2.0374167 13
-4.2688313 -6.8386335 2.6071768 15
-3.9353757 -6.5355778 0.65949154 8
-3.9682987 -6.1226902 0.62007767 8
-3.6566834 -5.9436316 0.60142243 8
-3.6590416 -4.9710546 0.6245116 9
-3.8442488 -4.6453514 0.53183466 8.5
-3.8993671 -4.2927232 0.25272363 7
-3.6687677 -4.9620304 0.70674282 9
-3.8464789 -4.4838662 0.6209808 9
-3.6602755 -7.6342335 1.6381677 11
-3.9523637 -7.190412 1.7198904 12
-3.701092 -6.9410348 1.6188643 12
-3.5676289 -7.6745801 2.061877 13
-3.5696821 -7.6310287 2.7020361 15
-3.8146188 -7.4417357 2.6849391 15
-3.548666 -6.0756674 0.59545219 8
-3.2039685 3.9542096 0.21423638 8.5
-3.5244327 -6.1533875 0.67072809 9
-3.457339 -7.673852 1.6305947 11
-3.3316514 -6.6196041 1.5311925 12
-3.2826703 -7.4999285 2.0011032 13
-3.2521322 -7.4261518 2.6162372 15
-2.9912705 4.134306 0.20173551 8.75
-3.1643159 3.9791572 0.32114893 9
-2.9685872 4.1458678 0.44239953 10.125
-3.1377351 -7.3439045 1.361744 11
-2.9901235 -6.3166394 1.4483989 12
-2.9640117 4.1771789 0.8990947 12.666667
-3.1716676 -6.4825597 1.5354041 12
-2.8549652 -6.206543 1.4627372 12
-2.9063468 4.2421856 1.2469512 14.6
-2.9165454 -7.1057968 1.8966213 13
-2.85765 -7.0015144 2.471765 15
-2.4781168 -4.6253562 0.44507602 8.333333
-2.7244971 4.346981 0.1951928 9
-2.5586023 4.4856467 0.20973936 9
-2.4363434 3.1042881 0.4647069 11
-2.7117007 4.3470383 0.43596771 10
-2.4841092 4.5409656 0.41983807 10
-2.430913 -6.6012273 1.2516606 11
-2.5790868 -6.1506996 1.2950672 11.5
-2.7194901 4.3632936 0.87795323 12.5
-2.5135031 4.5617075 0.91434538 12.75
-2.593178 -6.759975 1.8057364 13
-2.7040753 4.41609 1.2517499 14.5
-2.5205884 4.579607 1.2572582 14.4
-2.5177779 -6.6439829 2.3495035 15
-2.2053354 -4.9460549 0.47360584 8.6000004
-2.2728295 -4.7747216 0.57244629 9
-2.1851881 -3.7777264 0.40349138 9
-2.0824461 -3.4470224 0.20936856 7
-2.2911272 4.7018471 0.23234637 9
-2.0944839 4.8645124 0.24771373 9
-2.1293499 2.73402 0.50849879 12
-2.2610683 4.7100773 0.50893414 10.75
-2.0476592 4.8724093 0.4716675 10.333333
-2.1348536 -6.2811847 1.2041658 11
-2.2363944 -5.6526852 1.2962102 12
-2.0622067 -5.498024 1.2821341 12
-2.2487533 4.7672663 0.87206483 12.333333
-2.0860498 4.8813977 0.88567579 12.5
-2.3085699 -6.4634581 1.7283007 13
-2.0438719 -6.1794229 1.6561306 13
-2.2394199 4.8045135 1.2230299 14
-2.0798757 4.9171076 1.3154948 14.5
-2.2077274 -6.3064294 2.2380438 15
-1.7460312 -7.3026958 0.17910121 7
-1.7361439 -7.3024683 0.42840567 7.5
-1.7849106 -4.4499521 0.38634068 8
-1.683125 -4.259181 0.38083968 8.333333
-1.7911329 -3.8620217 0.27165887 8
-1.9715554 -3.4504137 0.20131961 7
-1.7637093 1.1145023 0.35782671 12
-1.654339 2.1471677 0.34943077 11
-1.7884638 1.1450012 0.52310389 14
-1.9858077 2.6216326 0.60102177 13
-1.8344204 5.0388803 0.40552717 10
-1.8656663 -5.9888315 1.1637551 11
-1.6293762 -5.7400284 1.1281601 11
-1.8374108 -5.2917643 1.1808417 12
-1.6478381 -5.1312118 1.191622 12
-1.8255478 5.0571623 0.88142437 12.333333
-1.9262967 5.0344219 1.252746 14
-1.9462608 -6.0441184 2.1500108 15
-1.6997311 -5.7831569 2.0661116 15
-1.4238358 -4.3324928 0.13729148 7
-1.3798164 -7.3493819 0.44440714 8
-1.5168396 -7.1259518 0.42252108 7.5
-1.2928476 -4.526907 0.36150905 8
-1.4309313 -4.2519264 0.44153202 8.666667
-1.3546686 1.0517744 0.34098351 12.8
-1.3713328 1.4808733 0.31429705 11.666667
-1.391471 1.111455 0.44543362 14.5
-1.3624859 1.4266533 0.45815915 14
-1.3206197 1.7806317 0.52528852 14.333333
-1.4259681 4.7573633 0.46295902 10.5
-1.5850774 5.0126128 0.50135893 11
-1.3604419 5.2615442 0.44949546 10.2
-1.4179614 -5.5238957 1.0991913 11
-1.4878702 -4.9501128 1.1541013 12.333333
-1.3148578 -4.7252812 1.1107525 12.5
-1.3040984 4.7999697 0.80849475 12.5
-1.5207326 5.0663495 0.84623873 12
-1.3773624 5.2665424 0.8527047 12.4
-1.3142211 5.3290458 1.0823168 13
-0.87904429 2.8673327 -0.10745272 7
-1.1237209 -7.1608219 0.39330608 8
-1.0603013 -4.5528522 0.43628439 8.666667
-1.0763559 5.453186 0.46185973 10.4
-0.86969876 5.6964779 0.32788637 10
-0.85454112 -4.7989106 1.2202053 13
-1.0071058 -4.5456929 1.0742186 12.666667
-1.0711515 5.4246402 0.88627553 12.333333
-0.92802924 5.7027369 0.78856528 11.5
-0.87608778 5.7211919 1.1060255 13
-0.61614186 2.2620289 -0.070863396 7
-0.73939621 2.5465999 -0.089735769 7
-0.48230737 2.9892175 -0.11227521 7
-0.55995017 -6.54111 0.48371917 8.25
-0.44542867 0.33681244 0.031813212 9
-0.55898058 0.73189825 0.019522903 8
-0.59088916 1.0127268 0.010153715 8
-0.5923472 1.3814862 -0.0061486163 8
-0.42736876 1.82479 -0.038932517 7
-0.50719255 2.0091391 -0.051251862 7
-0.57953548 3.2442355 -0.009485228 8
-0.41480932 3.5693836 0.63349265 13
-0.5967871 3.8162277 0.5357694 12
-0.76806003 5.7470255 0.498757 10.5
-0.47832966 -6.5823421 1.1464256 11
-0.58813256 -4.6167946 1.160305 13.111111
-0.47955 3.857373 0.72842675 13
-0.69033319 5.7479568 0.89762682 12
-0.355977 2.5474377 -0.090708494 7
-0.38589945 -6.4935813 0.34353122 8
-0.15217566 -2.2351608 0.32535574 10.5
-0.0325763 -1.9365002 0.23020479 9.5
-0.37193638 -1.4646262 0.12034561 8
-0.078792542 -0.89398879 0.06891492 8.333333
-0.017909037 -0.77821511 0.052350748 8
-0.18950063 0.58045399 0.0078885332 8.333333
-0.24245419 0.9740653 -0.0070860451 8
-0.18046923 1.3950758 -0.024304062 7.25
-0.21517815 1.7498114 -0.039103553 7
-0.23860013 2.1297889 -0.060589053 7
-0.040464014 2.588908 0.054422654 8.6000004
-0.056540444 3.2119663 0.37444034 11
-0.16553161 3.3952718 0.51970494 12.285714
-0.33004433 -6.5025153 1.2475537 11.5
-0.19075361 3.3992162 0.75556743 14.5
-0.19502538 -6.4696174 2.1313336 15
0.25371596 -0.46604958 0.0034244889 6.6666665
0.35881954 -0.3688243 -0.0060661542 6.5
0.37983683 0.35703263 -0.040572993 5
0.32608503 0.49398211 -0.036425412 5
0.35745922 1.4192022 -0.05813355 7
0.3507762 1.8103073 -0.070717283 7
0.24259143 2.2130864 -0.086909987 7
0.16035295 -3.1356761 0.14948654 7
0.20408839 -2.039906 0.2440666 9.5
0.24336919 -1.7990242 0.37497097 12
0.11644249 -1.2556725 0.080376849 8
0.21944141 -0.8761729 0.047496106 7.6666665
0.20518708 -0.58755094 0.032831281 7.75
0.35439628 -0.38243389 0.0097600985 7
0.2420579 0.59524578 -0.0076452424 7.8000002
0.15991491 1.4550256 -0.04619211 7
0.11011631 1.7823753 -0.054449808 7
0.24015735 2.2517326 0.06432078 8.75
0.33626392 2.4045022 -0.070001066 7
0.28794339 2.6811409 0.52318752 13.555555
0.12091719 3.0863943 0.60093927 13.25
0.23873232 -6.5491776 1.3548576 12
0.061272476 3.0929472 0.70870942 14.666667
0.24834552 -6.5221038 1.5397135 13
0.69049877 -0.89310133 0.014556048 7
0.48253381 -0.57502151 0.0063983579 6.6666665
0.55372405 -0.18218605 -0.023473985 5.7777777
0.53088915 0.2901012 -0.038766742 5.2857141
0.65801489 0.57003087 -0.043313947 6
0.63303715 1.0241549 -0.065530568 6
0.64554691 1.3965614 -0.07388033 7
0.59393251 1.7863228 -0.083211131 7
0.62801564 2.054333 -0.10371029 7
0.77981055 -9.5815868 0.42624271 7
0.53741288 -9.013648 0.42948273 7
0.75429147 -2.9582539 0.35386947 9.5
0.45896313 -1.7818745 0.34655187 11.6
0.60951436 -1.4556729 0.34902787 12.375
0.43886411 -0.89474177 0.033040754 7
0.47537863 -0.54154551 0.02128767 7.5999999
0.6559301 -0.24248968 0.0050422475 7.4000001
0.53473002 0.52399707 -0.01501242 7.5
0.5989511 2.1765394 0.086600848 9
0.6157186 -1.4621906 0.45319256 14.333333
0.73401618 2.3112586 0.46859866 13.333333
0.56213921 2.4871864 0.5007661 13.5
0.80405432 0.74128091 -0.058379829 6
0.92123008 1.0087276 -0.079838246 5.8000002
1.0152137 1.3861554 -0.096366182 6.3333335
0.91128993 1.727285 -0.10530917 6.3333335
1.0148931 -9.7619524 0.42117164 7
1.1462379 -9.4954624 0.3907415 7
0.90711528 -8.8639994 0.54291052 8
0.87478864 -2.9407089 0.41772759 10
0.98292857 -2.6970632 0.43739948 11
1.1147625 -2.1374619 0.34618396 10.666667
0.85068965 -1.3922476 0.087784074 8
1.1248043 -1.0227183 0.24299239 11.5
0.96754795 1.8353786 0.10504392 9.333333
1.1985053 -3.9991345 0.5393489 10
1.1759185 -2.0761833 0.59293979 13
0.84507149 -1.2774407 0.45069984 15
1.1655332 -0.95209104 0.45045537 15
1.0842742 1.8742999 0.44022697 13.846154
0.86053044 2.1592028 0.49457157 13.857142
1.1857874 -11.97094 1.591478 10
0.97609335 -12.142284 2.2460978 11
1.2465327 1.5064398 -0.12938166 5
1.4040655 -11.336719 0.4187586 7
1.4053575 -9.7939768 0.38220385 7
1.4007689 -9.5292788 0.5494855 8
1.3790188 -3.8596501 0.3449502 8.5
1.5743525 -2.319176 0.33352074 9.5
1.3316731 -0.8316977 0.33553508 13
1.5049275 -0.67075509 0.30135497 12.375
1.34172 1.4841875 0.18691263 10.625
1.2282802 1.646463 0.31021038 12
1.4572382 -8.3162651 0.76489204 9
1.466081 -4.167109 0.78008735 11.333333
1.5722994 -3.902493 0.59196192 10
1.4955964 -2.6650548 0.79849547 14
1.4110237 -2.1205144 0.60110587 13
1.3539081 -1.2002211 0.49338219 14
1.4086207 -0.90052491 0.47262514 14.75
1.5210608 -0.65379083 0.46892712 14.666667
1.4264188 1.447832 0.45377058 14.181818
1.2496253 1.6722114 0.45433223 14.25
1.4431008 -11.758246 1.5554736 10
1.3239601 -4.1441298 0.97767502 13
1.4899805 -2.7590926 0.8828789 14
1.4907253 -11.7051 1.7901486 10
1.323365 -11.859674 2.1137919 11
1.587196 -8.9284849 2.592525 14
1.8664494 -11.294539 0.47385356 7.5
1.8303046 -8.7510138 0.55319077 8
1.8915808 -3.1983979 0.38426301 9
1.9023168 -3.1669643 0.36871856 9
1.7334125 -2.2179561 0.30795664 9.625
1.8339896 -1.9059513 0.29838103 9.833333
1.7247539 -0.57958621 0.27742842 11.5
1.9675729 0.76286525 0.28470066 11.5
1.7871252 0.98588532 0.27478349 11.5
1.9686205 -12.151117 1.0528715 9
1.9076471 -11.320233 0.77364874 8
1.7717361 -3.8312566 0.55763257 10
1.7197788 -3.3288589 0.58456784 11
1.8570992 -2.9367287 0.68676198 12.5
1.8331101 -2.6375077 0.70181775 12.8
1.8386387 -2.1481173 0.5865919 12.714286
1.885944 -1.8752337 0.58037019 12.833333
1.7798394 -0.50331604 0.45570746 14
1.8692225 -0.30699745 0.48765126 14.333333
1.6130514 0.26706102 0.38824153 14.5
1.9708837 0.78318357 0.48329708 14.25
1.7809103 1.0098746 0.46706966 14.181818
1.7135457 -4.0045695 1.1150221 13
1.7313917 -2.781316 0.9063068 14
1.8775855 -2.6455779 0.94542003 14.666667
1.9848384 -2.0021043 0.84158093 15
1.8105981 -6.990871 1.6818982 13
1.9085602 -12.122667 2.5262856 12
1.785726 -8.8359337 2.5652213 14
2.0171731 -3.1221864 0.360717 9
2.1306341 -1.8358968 0.28693762 9.75
2.2851322 -0.81895947 0.20844077 10
2.1895823 -0.59853399 0.28061715 11
2.1846809 -0.26290655 0.27786934 11
2.3008475 0.21960768 0.28253332 11
2.1428196 0.54496288 0.26001072 11
2.3893182 -4.2711444 0.78793806 11
2.1434619 -2.6601417 0.80107099 13.5
2.1657352 -1.7945806 0.55165631 12.285714
2.1138151 -1.5567816 0.53941941 13
2.1714346 -0.1636873 0.50472778 13.909091
2.3229933 0.23803371 0.49946865 13.555555
2.1481602 0.56436849 0.45947134 13.5
2.1793327 -2.6058035 0.95547861 14.333333
2.0222504 -2.1423039 0.86111146 15
2.2638705 -1.8897181 0.84770703 15
2.1399539 -11.962562 2.1082597 11
2.376652 -11.712987 2.0988231 11
2.2621448 -11.775269 2.4812362 12
2.370177 -7.8508034 2.5079274 15
2.6473851 -5.286768 0.30971473 7.6666665
2.7382433 -5.1139488 0.36156881 8
2.4947438 -0.7506789 0.030186864 8
2.6239092 -0.13891909 0.24508414 10
2.4636495 -4.3616824 0.64760196 10
2.7690582 -2.5936005 0.62909353 11
2.6033835 -2.075743 0.58537394 12
2.7515926 -0.11227349 0.44421339 12
2.4130945 0.088166527 0.48319572 13
2.6256886 -11.574224 2.1058025 11
2.578896 -11.564206 2.5048909 12
2.649025 -8.4287243 2.4686315 14
2.6597307 -8.1845694 2.7819724 15
3.0109608 -7.1091371 0.34304708 7.6666665
2.8678601 -5.237474 0.49049589 9
2.9382796 -4.9943042 0.2156056 7.25
2.9838734 -3.9148576 0.31478471 8
2.9115078 -2.3037519 0.67725217 12
3.0796018 -0.40776855 0.81315589 14.5
3.1308808 -0.15165557 0.81069458 14.5
3.0066922 -8.5363035 2.5035083 14
3.2931089 -2.855932 0.1668016 8
3.5266593 -2.2192616 0.037985235 7
3.4078689 -3.2562041 0.70890903 11
3.5426214 -9.2174168 2.9115858 14
3.4825933 -9.2649031 3.1325536 15
3.7193274 -2.1854444 0.016785549 7
3.81359 -2.1481974 0.20266931 8.2857141
3.9163833 -1.7970519 0.23607032 8.6000004
3.7481825 -1.4426744 0.22686371 8.75
3.9372537 -2.0258126 0.65942526 11
3.9121263 -1.9041636 0.65718603 11
3.8992746 -1.3132193 1.0583079 14.666667
3.9710793 -0.92920291 0.89232105 13.5
4.0092945 -0.99221492 1.2235979 15
4.0760679 -1.7494186 0.17037095 8
4.1392288 -1.705846 0.54313213 11
4.131031 -1.3467864 0.60811865 11.333333
4.2841311 -1.7400895 0.98310876 13.5
4.1003828 -1.531008 1.1388967 14
4.0739026 -1.0231636 0.9398815 14
4.3556166 -2.307796 1.500013 15
4.2845659 -1.7824483 1.3137341 15
4.1031036 -1.5304267 1.2493198 15
4.2669721 -8.5345306 3.0249705 15
4.7357054 -4.5189939 -0.013240232 7
4.599256 -3.7725534 0.67736018 10
4.4277515 -2.4755785 1.2436098 14
4.6647515 -2.1436357 1.3857658 15
5.1263108 -4.1586165 0.18850112 8
5.1247244 -4.2266417 0.65573871 10
5.3620663 -3.7778008 -0.15230475 6
5.3612103 -7.5671859 2.9491398 15
5.5060101 -7.4261389 2.9418867 15
5.7567487 -3.6014245 -0.12170576 6
5.8514032 -3.5281549 1.160305 12
5.891264 -3.3891125 1.927434 15
5.6639395 -7.3027883 2.9419458 15
6.2697926 -3.998543 1.2238935 12
6.3217797 -3.8576641 2.0632627 15
6.4929109 -4.8678017 0.098021165 7
6.7875586 -4.5789385 1.3056166 11
6.842063 -4.7081513 2.4861915 15
7.0666857 -5.5732503 0.045698099 7
6.8167744 -4.9309487 0.21201321 8
6.8569984 -4.7970605 0.61733419 9
7.1275296 -6.230557 2.5059457 14
7.0148306 -6.4311323 2.5166337 14
6.9786787 -6.0978498 2.7153766 15
7.4751511 -4.2036872 1.0032657 10
7.3864751 -5.2140217 1.6503999 12
7.2242875 -3.9442027 1.2507453 11
7.4095125 -5.2081194 1.9095204 13
7.4079108 -12.724011 2.3490603 11
7.5020413 -5.2657638 2.4532084 14
7.2493458 -6.0416164 2.5021496 14
7.3606772 -5.3376412 2.6841512 15
7.7553716 -6.4311428 -0.020473141 7
7.7964778 -5.013967 0.28297505 8
7.9806948 -5.1674833 0.57245278 9
7.8969202 -4.5578489 1.3211744 11
7.9671035 -12.179962 3.0242934 12
7.8539882 -5.8107009 2.4853551 14
7.8920908 -4.8421674 2.4733365 14
8.0728178 -6.5521464 -0.32087743 6
8.0499878 -5.2243476 0.67274123 9
8.2590504 -5.396965 0.98553646 10
8.1656055 -6.0737643 1.8044904 12
8.1345854 -4.8243985 2.4399447 14
8.1592131 -11.980395 3.0072572 12
8.3461742 -11.770015 2.9811904 12
8.5109186 -5.6008172 1.3221036 11
8.7389727 -5.3257151 1.4098746 11
8.5382357 -5.3827085 2.452069 14
9.4522667 -10.574436 2.970891 13
9.9603825 -7.0077381 1.2828643 10
