# .PCD v0.7 - Point Cloud Data file format
VERSION 0.7
FIELDS x y z intensity
SIZE 4 4 4 4
TYPE F F F F
COUNT 1 1 1 1
WIDTH 203
HEIGHT 1
VIEWPOINT 0 0 0 1 0 0 0
POINTS 203
DATA ascii
0.44295514 0.22340788 -0.10516906 171
0.32784197 -0.87976134 -0.025757061 197.5
0.44199008 -0.85907269 -0.032066584 199.75
0.14496961 -0.732252 -0.022360884 195
0.243241 -0.73285151 -0.022283044 195
0.33764693 -0.74161613 -0.02618696 194.75
0.43379533 -0.74261683 -0.027190041 195.66667
0.53042227 -0.75059402 -0.032296788 196.75
0.62407935 -0.72678792 -0.03402843 197
0.18624313 -0.60401094 -0.017366983 189
0.42495269 -0.60021544 -0.025623817 190
0.54365033 -0.66675562 -0.032730039 194
0.65691429 -0.65375042 -0.038916439 195.2
0.74031526 -0.64335197 -0.037737597 197.75
0.19024965 -0.59352463 -0.019336771 189
0.25542125 -0.5074715 -0.028373411 185.10001
0.35453206 -0.50640756 -0.027955668 184.25
0.45852202 -0.55043763 -0.027245518 189
0.55290794 -0.55796605 -0.029392 190.8
0.64174187 -0.53997707 -0.033947773 191.25
0.74303538 -0.55810732 -0.039557427 195.5
0.82861698 -0.52882612 -0.053846519 195.5
0.25179684 -0.45943025 -0.034132034 181.2
0.34015626 -0.44815633 -0.034233604 180.78572
0.45056707 -0.45596948 -0.041881166 182.42857
0.5534268 -0.42747647 -0.036844887 183.46666
0.67276531 -0.46785241 -0.031270862 190.85715
0.74150252 -0.44555289 -0.033425003 193
0.84686548 -0.45727605 -0.049931079 196.25
0.27724925 -0.35537189 -0.050161228 175.5
0.34690726 -0.35150105 -0.050640069 175.67442
0.44603962 -0.33620447 -0.044684328 177.42223
0.54960001 -0.35026804 -0.039945386 180.5
0.64758933 -0.35149708 -0.041015409 184.24001
0.75285035 -0.35189444 -0.035020694 189.27272
0.82857609 -0.33450034 -0.036998119 191.875
0.92335713 -0.34392136 -0.052665364 196
0.34580392 -0.24153571 -0.050851028 171.2653
0.45180544 -0.25339594 -0.069853842 172.92
0.54627782 -0.24295825 -0.058444098 176
0.65315557 -0.25103143 -0.045011435 181.13043
0.73975164 -0.23905784 -0.036693338 184.90475
0.86313885 -0.2458394 -0.036271479 191.10001
0.93491894 -0.22571628 -0.044957254 194.5
0.36553684 -0.14728177 -0.055200584 168.1842
0.44068712 -0.14181821 -0.056715846 169.35577
0.5538612 -0.1498245 -0.078477144 172.33333
0.63624609 -0.14264883 -0.048919182 177.28572
0.75680029 -0.14613983 -0.04487171 183.38461
0.84759462 -0.1504366 -0.038099483 188
0.91566259 -0.14825845 -0.036172692 193.66667
0.38898742 -0.048335414 -0.073331907 168.20253
0.43256965 -0.040235274 -0.062287714 168.66446
0.5393374 -0.061737362 -0.066473454 170.60785
0.63498151 -0.074895792 -0.063818932 175.06451
0.7237879 -0.091578096 -0.047867194 180.75
0.055687476 0.087841384 -0.046660826 170.07692
0.15780377 0.073620439 -0.045139682 166.48781
0.25489801 0.066661917 -0.070827968 166.73958
0.36527374 0.041718669 -0.074322507 167.24556
0.40630808 0.054883372 -0.065508746 168.14285
-0.4016169 0.19354196 0.011493 181
-0.38175935 0.18874852 0.010855014 182
-0.26145485 0.159924 0.0051278854 171.5
-0.14758867 0.14925048 -0.020326152 179.28572
-0.041675359 0.1364848 -0.036994319 176.32433
0.046683278 0.16351484 -0.060847178 172.35484
0.151474 0.13305551 -0.04413804 165.71428
0.26201639 0.14272021 -0.053607907 164.39999
0.34616691 0.1425541 -0.061723731 168.27928
0.42221764 0.14647213 -0.072795779 169.44444
-0.64581335 0.25284737 0.016360121 160
-0.51895398 0.2219335 0.01471217 174
-0.35919812 0.27924111 0.013373367 178
-0.14632325 0.20297383 -0.011809695 180.71428
-0.040188588 0.29983839 -0.037530344 181.5
0.069563836 0.2734459 -0.038998671 177
0.15233777 0.26525512 -0.066242695 171.31035
0.24880293 0.25210771 -0.071011722 168.74467
0.34731117 0.2584213 -0.085015126 170.19231
0.44344175 0.25683329 -0.084406927 172.14999
-0.61728734 0.37604293 0.014555622 161
-0.47728637 0.32356539 0.01365958 176
-0.15454687 0.37012166 -0.0024440929 179.66667
-0.047638007 0.34767041 -0.021913948 182.17392
0.055281945 0.34812182 -0.042083364 180.41667
0.15424813 0.33146468 -0.045059029 177.08333
0.25141019 0.33732125 -0.050628684 173.82353
0.33822462 0.34099734 -0.050010938 170.9697
0.43769041 0.33750165 -0.053646315 170.93549
0.50581861 0.37973964 -0.062072746 175.28572
-0.3124187 0.47603145 0.0065363818 177
-0.26292974 0.44399321 -0.0013955028 177.16667
-0.12427173 0.44885132 -0.0018557141 179.39999
-0.054265369 0.46102291 -0.015914246 182.88889
0.050643928 0.43253526 -0.029332811 183.95
0.14747986 0.44557601 -0.049331773 182.33333
0.25309247 0.46802196 -0.050545759 182.56522
0.34290904 0.45705235 -0.054940112 181.26666
0.43445003 0.44700408 -0.052339554 181.64
0.51667315 0.43410304 -0.044249855 182.77777
-0.47269908 0.58675712 0.0015756644 166.33333
-0.37583703 0.52021128 0.0029411006 176.5
-0.23980415 0.55116999 -0.0040929103 173.33333
-0.14662854 0.55722243 -0.015388296 176.33333
-0.058401573 0.53732073 -0.013649163 180.25
0.04490827 0.54783714 -0.025461288 186.89999
0.15088433 0.56218803 -0.038636252 188
0.25222921 0.5441283 -0.037953421 187.11111
0.33781451 0.55742443 -0.047305029 187.16667
0.44569832 0.55814552 -0.052016035 188.35715
0.54942447 0.53774166 -0.056464836 188.66667
-0.50046551 0.60286188 0.014294583 163
-0.40638798 0.69470751 0.0070239422 164
-0.33527973 0.63438666 -0.0011385628 172.5
-0.21402766 0.67988819 -0.012515338 173
-0.16999239 0.6298033 -0.011423809 173.66667
-0.048935406 0.64096022 -0.024131998 175.83333
0.052805558 0.65932804 -0.032192435 181.16667
0.15718713 0.64238322 -0.037096292 190.5
0.24717434 0.63372552 -0.038653795 191
0.32976383 0.63218546 -0.046051435 190.8
0.42962608 0.64304757 -0.056329586 191.60001
0.55898327 0.66178447 -0.071553685 192
-0.4558281 0.7393927 0.0028511297 159.75
-0.31345972 0.79096615 -0.0091338456 169
-0.25722516 0.72743291 -0.0089821089 172.66667
-0.12476761 0.74982703 -0.020455217 169.25
-0.031976573 0.76395732 -0.029493187 169.25
0.015825558 0.73061514 -0.031443488 172
0.12421127 0.73295945 -0.038382299 181
0.22393782 0.74153143 -0.044620428 187.83333
0.32044891 0.74316686 -0.053905245 192.33333
0.41792923 0.74053949 -0.06219545 190.2
0.51242954 0.73727024 -0.067585684 187
0.61500281 0.74898899 -0.077451929 187
-0.54700565 0.81732363 0.011250774 149
-0.36258262 0.84356982 -0.00086025888 159.33333
-0.21233694 0.87401396 -0.012687611 166
-0.19040857 0.8470394 -0.024166858 165.66667
-0.041254085 0.84012926 -0.029402124 167
0.085828453 0.83477807 -0.035255641 166.5
0.1953862 0.8550387 -0.036359567 171.5
0.20347203 0.83343083 -0.047398631 176.5
0.30912834 0.84698749 -0.051858261 181.75
0.42081279 0.85123605 -0.062552534 181.60001
0.52519393 0.81708205 -0.06990958 179.33333
-0.25970331 0.94347006 -0.013763414 159.66667
-0.11500624 0.9852863 -0.033282757 160
-0.078922339 0.91402733 -0.030957608 162
0.041504912 0.95888233 -0.040126167 162.25
0.17342477 0.95858997 -0.043464974 163
0.30242828 0.9135806 -0.052609216 173
0.05912688 -0.97839969 -0.0072407615 188.33333
0.20485178 -0.91387278 -0.012916776 195
0.32172933 -0.90692717 -0.010288253 194
0.0904762 -0.88434911 -0.0075720362 194
0.10973068 -0.83014238 -0.01221112 198
0.21689263 -0.85410041 -0.013640823 197
0.32873696 -0.84278965 -0.019505095 196.66667
0.13450634 -0.75324136 -0.009276215 196.5
0.23439969 -0.76788414 -0.015212586 197
0.33307573 -0.77321106 -0.017507823 197
0.43401167 -0.77218777 -0.021632269 199
0.52624816 -0.73663348 -0.026558923 196
0.17227478 -0.63774866 -0.0069955187 191.66667
0.25899813 -0.63733011 -0.010536798 191.5
0.3414475 -0.62892574 -0.011129642 192
0.42409176 -0.63480836 -0.015011083 192.66667
0.50130254 -0.61600918 -0.017064283 193.5
0.24867406 -0.5330469 -0.0047944197 187.5
0.34722203 -0.54375166 -0.01051202 189
0.44764617 -0.5282408 -0.014984746 188.55556
0.56734598 -0.56129128 -0.019969376 192.75
0.63914585 -0.54239309 -0.020952778 193.66667
0.47675899 -0.48290116 -0.01753022 185.5
0.55424052 -0.45682642 -0.018348249 187.66667
0.62443942 -0.43796855 -0.02096072 189
0.63672727 -0.39775664 -0.018484356 186
0.7716946 -0.21874705 -0.019967386 186
-0.42221636 0.19798279 0.016821768 181.5
-0.32466444 0.17385033 0.018813876 179.33333
-0.25364214 0.1568477 0.015312168 173.2
-0.19115587 0.14213893 0.010031214 177
0.085769467 0.14191929 0.081406325 133.625
0.14415002 0.14697412 0.066653118 133.55556
0.23468059 0.12420412 0.019270074 122.82353
-0.73099858 0.27180842 0.033363424 147
-0.66602689 0.25654584 0.027441943 160
-0.54383332 0.22666113 0.026767362 169.33333
-0.46899056 0.20932086 0.01792606 178
-0.35620743 0.27675453 0.022635262 178.33333
-0.24455808 0.23326808 0.033118654 174.5
-0.18077162 0.21096189 0.021873863 174.25
0.071641773 0.20168017 0.058059286 174
-0.62611425 0.37723139 0.029062646 157
-0.53621089 0.34417307 0.024095966 168
-0.45717701 0.31486186 0.021467147 177
-0.77028316 0.430904 0.032597285 139
-0.69590968 0.40288129 0.033044517 148.5
0.070714332 0.14051138 0.13173734 124.85714
0.12025564 0.15800388 0.10406336 136
-0.044491839 0.25322184 0.18109587 164
