# .PCD v0.7 - Point Cloud Data file format
VERSION 0.7
FIELDS x y z intensity
SIZE 4 4 4 4
TYPE F F F F
COUNT 1 1 1 1
WIDTH 698
HEIGHT 1
VIEWPOINT 0 0 0 1 0 0 0
POINTS 698
DATA ascii
-2.7000165 -4.8883624 0.34008977 9
-2.5780156 -4.8823476 0.59020579 10.5
-2.6679218 -4.8714375 0.96667701 12
-2.6659741 -4.8716059 1.3232378 14
-2.654917 -4.8774786 1.6131297 15
-2.29182 11.794196 -0.19045357 6
-2.1592815 -4.8458776 0.18409255 8.5
-2.1888211 -4.8429723 0.57150877 10.5
-2.2148974 -4.840209 0.8274554 12
-2.2283959 -4.8119321 0.9154411 12
-2.1057487 -4.8561649 1.3521196 14.333333
-2.1343741 -4.8125782 1.3942735 15
-1.9001696 -4.8756456 0.2166689 8.5
-1.649215 -3.2496269 0.15153414 9
-1.6690434 -2.8425243 0.27952936 9.5
-1.6670095 -2.5971339 0.29702783 10
-1.6525245 -2.1863644 0.29601812 10.333333
-1.6684254 -1.407329 0.34260657 11.5
-1.6776968 -1.0147254 0.35001433 12
-1.6813526 -0.62887949 0.34667847 12.2
-1.6771755 -0.36570758 0.37549013 12.5
-1.6735609 1.0242897 0.37813115 12
-1.6658995 1.2347175 0.41682568 12
-1.9199672 -4.8653574 0.56169999 10.5
-1.632038 -3.2263184 0.57476091 12
-1.6492081 -2.8624957 0.63054389 12.666667
-1.6568297 -2.5730531 0.58036369 12.555555
-1.6501713 -2.217979 0.57307065 13
-1.661339 -1.4143829 0.52320337 13.5
-1.6717513 -1.0146729 0.5065853 14
-1.671901 -0.64092767 0.48937371 14.2
-1.6718022 -0.36204886 0.49783757 14.5
-1.6659857 1.0437031 0.53235 13.8
-1.6549184 1.2463894 0.57139558 14
-1.6670506 1.9188769 0.66076517 13.5
-1.6568033 3.2763855 0.8157292 12.5
-1.6547577 3.8443549 0.745897 11
-1.6338953 7.0970721 0.97751534 10
-1.8794535 -4.8762083 0.87712514 12
-1.6143634 -3.2327509 1.0058728 15
-1.6261344 -2.9113262 0.96896929 15
-1.6302186 2.2838914 0.91553849 15
-1.6237842 2.3879929 0.93626451 15
-1.6207546 3.3539703 1.0331107 14
-1.6196347 3.7349336 1.0626605 13.666667
-1.6263827 6.7931023 1.0978109 11
-1.603285 7.376503 1.1499546 11
-1.6315962 7.8175178 1.0394728 10
-1.6134101 8.2521086 1.1438094 10.5
-1.8663952 -4.8686838 1.2468387 14
-1.5907283 3.6937296 1.3212267 15
-1.6002371 6.6010146 1.4397168 12
-1.587163 7.0238824 1.562699 12.5
-1.5940813 7.233808 1.5426775 12
-1.5736398 7.9424129 1.659148 12
-1.585161 8.3706903 1.5384227 11
-1.6105008 10.947617 1.8567866 11
-1.5677404 7.1922288 2.1332858 14
-1.5681102 10.844954 2.0665967 12
-1.5655508 6.6063614 2.1903822 15
-1.5692743 6.826705 2.2035985 15
-1.5582361 7.9522066 2.3007288 14
-1.431021 -4.9923983 0.16933207 8.4285717
-1.5801296 -4.5649157 0.25104061 9
-1.5720264 -1.7965493 0.28500992 10.5
-1.5802127 -1.551643 0.32597345 11.5
-1.5470266 1.4398887 0.42140922 12
-1.4323666 1.7154005 0.4517394 12
-1.3847327 -4.9727793 0.57136518 10.666667
-1.5750935 -4.6003575 0.52405792 10.333333
-1.5604091 -1.815915 0.55433452 13.5
-1.5671686 -1.5674525 0.52344489 13.5
-1.4694201 1.46662 0.58123368 14
-1.2193564 1.7109356 0.53379059 13.5
-1.3670995 4.0832682 0.71687162 11.2
-1.4049045 -4.9784002 0.83466798 12
-1.5519285 -4.5398893 0.83491421 12
-1.2954956 4.1392493 1.1120856 13.6
-1.2258908 4.4398155 1.141842 13.5
-1.2185475 4.8960519 1.158053 13
-1.367527 -4.994782 1.3430915 14.5
-1.5328628 -4.5182915 1.1729956 14
-1.3486146 4.0944581 1.4317309 15
-1.2213262 4.5916414 1.5517784 15
-1.1775169 4.8884268 1.4703057 14
-1.5494159 7.7838144 1.7654104 13
-1.5520618 8.2162237 1.6865083 12
-1.5490706 7.2240677 2.3566504 15
-1.4615997 7.7808576 2.4738803 15
-1.2785149 9.3797112 2.7867525 14.5
-0.80472165 1.0376254 0.035042912 7
-0.82218283 1.3499305 0.035680536 7
-0.85616165 1.7918515 0.033817697 7
-0.82483798 2.3468482 -0.0071225502 6
-0.93053138 2.5505269 -0.0048469459 6
-0.97724766 5.8881669 -0.0064552599 6
-1.0139257 -5.0016408 0.17125687 8.5
-1.0527711 0.92150104 0.40470108 14
-1.0052811 1.574019 0.40352404 12.5
-1.0317786 1.6083844 0.4039115 12
-0.96651012 -5.0026913 0.55572432 10.5
-0.98354191 1.5655748 0.52646941 14
-1.1303959 1.7207365 0.54292303 13.75
-1.0025513 -5.0341897 0.8154695 12
-0.98474401 -5.0262361 1.361437 14.6
-0.99198115 9.3413372 2.8141062 14.6
-0.54728693 0.34980419 0.014106413 7
-0.46039653 0.69937193 0.0060193711 6.5
-0.567586 0.99426585 0.016973987 6.8000002
-0.62989545 1.3494459 0.021455059 6.6666665
-0.7190724 2.1402321 -0.0044041723 6
-0.77176255 3.120641 0.019941663 6.5
-0.46322402 3.7159028 -0.047894798 6
-0.58717453 -5.0062027 0.12239216 8.2857141
-0.49332112 0.32868767 0.019808324 7
-0.69299257 0.40255663 0.027776662 7
-0.41038972 1.5109667 0.05030394 7
-0.46461841 1.6154737 0.051449541 7
-0.5906468 -5.0009952 0.54925013 10.5
-0.63629502 1.5660691 0.49676508 14.5
-0.630059 1.6208847 0.5155654 14.333333
-0.6079073 -5.0430517 0.77835149 12
-0.58321822 -5.0396252 1.342525 14.6
-0.61364651 9.2992783 2.797462 14.666667
-0.1980564 0.58263147 -0.0091686882 6
-0.16537173 1.0140181 -0.025921669 5.5999999
-0.31180415 1.4554515 0.0043027154 6.5
-0.037410103 1.8228678 -0.004675224 6
-0.13510068 2.2789838 -0.032636948 6
-0.20392992 2.5797765 -0.035334639 6
-0.29840055 2.9337609 0.0096426215 6.5
-0.36675707 3.2924633 -0.042604055 6
-0.075589433 4.3441463 0.025752326 7
-0.32442173 6.6793051 0.048644338 6.5
-0.21967511 -5.0060525 0.073761404 8
-0.19168001 1.5027859 0.075235933 8
-0.30025521 2.8030951 0.12433642 8
-0.1504935 4.6119204 0.19651358 8
-0.23631532 -5.0049272 0.53947085 10.4
-0.2053117 1.5814357 0.48148522 14.666667
-0.2002268 1.6041718 0.50144893 14.666667
-0.045479137 2.751179 0.74276632 14
-0.16718446 3.0384412 0.57610983 11.6
-0.30137804 3.8000267 0.69010746 11.5
-0.12500182 -5.0344625 0.75281507 12
-0.14862025 -5.0386829 1.3307009 14.8
-0.039103448 9.2399139 2.7696123 14.666667
0.24095123 -0.59492087 -0.023991106 6.8000002
0.35133979 -0.37668428 -0.029544083 6
0.24423245 0.65237361 -0.052500356 4.6666665
0.20437351 1.0253341 -0.047473188 5.1999998
0.19916414 1.3979886 -0.036676746 5.75
0.0036388347 1.626761 0.010753009 7
0.16829666 2.1837804 -0.044769321 6
0.12702124 2.5962846 -0.05049926 6
0.076113552 2.984107 -0.012056074 6.5
0.17032313 -5.0123606 0.027164208 7.8333335
0.25303289 -3.2225704 0.19141254 9
0.27297825 -3.1843197 0.28432688 10
0.18029431 -2.2246325 0.16971242 9.5
0.33612272 -1.9493157 0.22957747 11
0.1968376 -1.3905594 0.013820762 8
0.18994583 -0.96452242 -0.0058937375 7.6666665
0.21242988 -0.62835753 -0.0075013577 7.4000001
0.058084153 2.8933825 0.087376565 7
0.17634197 -5.00876 0.62248695 11.333333
0.28440216 -3.5916753 0.59189755 12
0.26858693 -2.1931877 0.55260867 15
0.34677765 -1.9470992 0.49382174 14.5
0.14224473 2.7416866 0.67650861 13.4
0.25119507 2.8582399 0.72103804 13.5
0.19216003 -5.0033369 0.74926722 12
0.31841761 2.9925439 0.87757492 15
0.29991338 3.6924894 0.94917589 14
0.23560356 -5.0109181 1.3366058 15
0.18612388 7.5711927 2.4434977 15
0.11444741 8.3668051 2.4116082 14
0.44280425 -0.86356509 -0.034065094 7
0.50208724 -0.43196326 -0.048368789 5.5
0.52980328 -0.20329788 -0.065723136 4.4000001
0.46105787 0.31462196 -0.064545564 4
0.52384061 0.57542419 -0.062206306 4.8333335
0.65282142 1.0530368 -0.07987836 5
0.52829695 1.4250195 -0.054889195 5.5999999
0.68434691 1.8444028 -0.082222931 5.6666665
0.75362849 2.3269997 -0.067904085 5.75
0.4631851 2.6259313 -0.056542896 6
0.50255513 3.5925615 -0.11302586 6
0.4993397 3.7214067 -0.089557886 6
0.51645279 4.900569 -0.045177326 6.3333335
0.60969687 -2.1859486 0.13373497 9.5
0.59210402 -1.7745433 0.19461861 10.769231
0.56460136 -1.4700906 0.028608423 8.6000004
0.44123784 -0.89740032 -0.021127084 7
0.41658902 -0.5138067 -0.013815102 7
0.41333479 1.533859 0.02694991 7
0.5878647 1.6685191 0.17405018 9.3999996
0.43808854 3.7457793 0.13709857 8
0.42058745 5.9712405 0.40388045 8
0.56432998 -1.8083272 0.48444235 14.75
0.70894706 1.5529014 0.51625204 15
0.72490758 2.7988565 0.56170458 12
0.63195103 3.4222898 0.77762932 12.6
0.62043321 3.4397032 0.91892081 13.75
0.42045203 3.6002328 0.87797803 13
0.70131594 7.3799644 2.3994892 15
0.65490687 8.0191755 2.3801973 14.5
0.83266985 1.5196764 -0.074930005 5.5
0.92058754 1.8243061 -0.081187651 5.5
1.049625 2.2447577 -0.11860545 5
1.1394379 2.619339 -0.057973847 6.5
1.0284194 -2.1808398 0.17288417 9.75
1.0017704 -1.9033339 0.26558289 11.333333
0.83169228 1.7348652 0.15640585 9
1.0113214 -1.9079174 0.49238887 14.142858
1.0061369 1.5594856 0.47435749 14.25
1.1100345 2.5712633 0.4920074 12
1.0451468 2.9578912 0.66551614 12.5
0.98218352 3.2404008 0.67981583 12.25
1.1012309 3.1431522 0.86040586 14
0.96393555 3.2621653 0.87160522 14
0.87754911 7.4003372 2.4088068 15
1.1036786 9.3011827 2.6035821 14
1.4394919 1.5755869 0.39106563 12
1.2325338 1.6170244 0.39521804 12
1.24506 -1.9412988 0.56498706 15
1.4884012 1.5686146 0.57772064 14.5
1.286902 2.6708899 0.48378533 11
1.491454 3.4634497 0.62753934 11
1.3321513 9.2451887 2.9111049 15
1.8942249 3.0396066 0.42097151 10
2.3206503 3.9002395 0.53238761 10
2.0636585 4.14783 0.67903119 11.333333
2.3722789 9.2324305 2.9542408 15
2.7675014 -5.4984927 0.51651472 10
2.6969173 -5.4964318 0.75894755 11
2.6144876 12.159981 2.3384125 12
2.6055672 9.2554741 2.7421701 14.666667
2.6035504 9.2413492 2.9648211 15
3.1098313 -5.4538407 -0.2304136 7
2.9467673 -5.4602289 0.16520253 8.5
2.9791088 -5.4658294 0.30484101 9
3.1240184 -5.4233637 0.85562152 12
3.1468775 14.654821 1.776243 10
3.1952605 -5.4158955 1.7043269 15
2.950808 13.040805 2.1105847 11
3.0088389 14.631373 2.0152268 10
3.3689525 -5.446279 -0.23929788 7
3.4766359 -5.4337192 0.083524339 8.25
3.4542882 -5.4465065 0.36235473 9.333333
3.4141762 -5.4319329 0.83024788 11.75
3.2482259 14.63932 1.4567177 9
3.6013172 -5.4719648 1.6070517 15
3.6023974 9.2727652 2.6837301 14.5
3.4591446 14.187447 2.7913394 12
3.5437484 9.2519979 3.0123615 15
3.8008077 -5.4466281 -0.23877151 7
3.7971585 -5.4305897 0.13713185 8.5
3.8542087 -5.4594984 0.45014974 9.666667
3.8287988 -5.4492025 0.77391523 11.333333
3.8177021 -5.4760909 1.5693636 14.5
3.8171995 9.7066603 2.4085457 13
3.9123676 9.2536564 2.5593679 14
3.8003302 14.16143 2.7966781 12
3.9117417 9.2531471 3.0321147 15
4.2331576 -5.44976 -0.30633911 6.6666665
4.1750178 -5.4285846 0.14442502 8.5
4.1954827 2.7161915 0.24180704 8.5
4.0794702 2.8386624 0.21845157 8
4.2352262 -5.4627857 0.46293864 9.666667
4.2366276 2.7375572 0.57750016 10.5
4.0971007 2.8452542 0.51446813 10
4.1599531 -5.4454875 0.82969898 11.5
4.2896848 2.7382059 0.91479796 12.5
4.1185703 2.8893559 0.93304032 12.666667
4.4109769 -5.4106941 1.1826292 13
4.3376002 2.7273796 1.3231853 14.333333
4.1432095 2.8593822 1.3543458 14.5
4.2741818 6.0181699 1.3028425 12
4.3376021 10.987691 1.4644439 10
4.1674719 -5.485239 1.5606723 14.333333
4.2803988 9.3954086 2.0303261 12
4.1139736 9.6048727 2.0595384 12
4.2464209 10.985198 2.03124 12
4.2237215 -5.4823856 1.8592793 15
4.0810533 9.691102 2.3988008 13
4.2924109 9.2568026 2.7330511 14
4.2584023 9.1909275 3.0362334 15
4.6694112 -5.4355197 -0.33868489 6.6666665
4.5779281 -5.4364228 0.15383637 8.5
4.6240416 2.7420442 0.24014975 8.333333
4.7007456 4.7063174 0.27245489 8
4.5833635 -5.4735651 0.54573137 10
4.5884156 2.7434304 0.52969134 10
4.6574416 4.7142363 0.61747175 9.5
4.538106 -5.4352198 0.84764755 11.333333
4.6167188 2.7398593 1.0067869 12.333333
4.7100749 4.7104344 0.88658422 11
4.6642432 -5.4307995 1.0178761 12
4.6068616 2.7350602 1.3807838 14.5
4.734221 4.7153454 1.3242246 12.5
4.6171846 -5.4952245 1.6499592 14.5
4.7521243 4.7191496 1.7982076 14.5
4.7564564 9.8215189 1.8364705 12
4.6071711 -5.4918103 1.9246895 15
4.5687914 9.2498503 2.7643425 14
4.501606 9.1639223 3.0434783 15
4.9065342 -5.341258 -0.33528978 6.5
4.9357271 -5.1308703 -0.30245557 7
4.878088 -5.3313646 0.05061328 8.5
4.8941789 -5.1613035 0.054752436 8.5
5.1103706 2.170341 0.059478249 7.5
5.1386971 2.5558765 0.038806748 7.5
5.0409956 2.8053432 0.13781129 8
4.8292441 4.6951623 0.29495695 8
4.85636 -5.3334661 0.37506521 9.5
4.9868407 -5.170341 0.56424367 10
4.9575405 2.8093827 0.59567642 10.333333
4.8215985 4.7005596 0.62321121 9.5
4.8999419 -5.4789238 0.76162601 11
4.8858566 -5.21065 0.75762576 11
5.0922694 2.8201272 0.88450503 11.333333
4.9110279 4.6884532 1.1934553 12
4.9338646 -5.3916211 1.020844 12
5.0020809 -5.1271734 1.0064985 12
4.866199 2.7611644 1.3942311 14
5.0611567 2.8122029 1.3961509 14.25
4.9180918 -5.3693695 1.5825106 14
4.929986 4.6706467 1.801741 14.5
5.0857539 12.726851 1.9900367 11
5.0549092 -5.503674 1.875596 15
5.4353185 -5.3597159 -0.3112433 6.6666665
5.4902983 -5.177022 -0.37667143 6.5
5.4376364 -5.3708391 0.15084077 8.333333
5.36306 2.8021626 0.18543832 8
5.3906665 -5.3534441 0.21659473 9
5.5246921 -5.1392803 0.28818661 9
5.373733 2.8130686 0.52874202 9.5
5.4119139 -5.3571119 0.72295332 10.666667
5.4954772 -5.202704 0.58942848 10
5.4215322 2.8185329 0.92555636 11.5
5.4974117 -5.409687 1.0650989 12
5.5384536 -5.1698713 1.1144974 12
5.3989596 2.8149109 1.2654687 13.333333
5.3448324 -5.1944952 1.5218588 13.5
5.4524684 2.7958889 1.5925102 14.5
5.3829045 8.9698572 1.9952924 12
5.4987979 14.692789 1.8436383 10
5.4312735 -5.5202665 1.8731203 15
5.8350902 -5.2195272 -0.29444614 7
5.7840095 -5.1631351 -0.4414492 6
5.8842182 -4.686399 -0.33687589 6.3333335
5.9037228 -4.3800263 -0.36091337 6.5
5.7264638 -5.279098 0.15549153 8
5.8976798 -5.1939545 0.16401845 8
5.8763824 -4.5781646 -0.041649602 7.6666665
5.9321694 -4.3555145 -0.10040434 8
5.7973218 2.804045 0.24129146 8
5.8578935 -5.1096983 0.31826493 9
5.8932872 2.8135495 0.47805119 9.5
5.6318693 -5.2468386 0.6817705 10
5.7596164 -5.1791372 0.71303934 10.5
5.8342266 2.8115396 0.9305898 11.333333
5.7820506 -5.2023411 1.0926695 12
5.939199 2.8102772 1.2393804 13
5.8854227 -5.4874115 1.7319171 14
5.7395916 2.8066983 1.707092 14.666667
5.8718543 4.700604 1.9052829 14
6.0274272 8.6650791 1.9657792 12
5.8372736 9.8173771 1.8643217 11
5.8001609 -5.5231881 1.9357176 15
5.7913823 4.5775218 1.9912519 15
6.2992454 -5.3656664 -0.40354964 6.6666665
6.1986918 -4.2629504 -0.41337195 6.4000001
6.3479581 -1.0138725 -0.30739784 6
6.3555546 -0.42801607 -0.18335718 7
6.3271999 -0.20914429 -0.1521558 7
6.3322787 0.27968335 -0.24441496 6.5
6.3645477 0.63692087 -0.13621481 7
6.2817774 1.0218089 -0.22019874 6.5
6.1849041 -4.2439904 -0.11576015 7.6666665
6.3028054 -1.3100953 0.16465238 8.5
6.3370867 -1.0328331 0.10585991 8
6.2483497 -0.59065795 0.14319354 8.3999996
6.2352414 -0.20982236 0.09337952 8.1999998
6.2553191 0.19430414 0.12703855 8.1999998
6.214767 0.52780145 0.061454009 7.75
6.2355328 0.97905868 0.18351255 8.333333
6.2704635 1.4028506 0.11590214 7.6666665
6.1368289 2.7978063 0.21411707 8
6.1642842 4.7164364 0.067532979 7
6.3707185 -5.3986964 0.20888355 8.5
6.2760372 -4.9813714 0.34469453 9.5
6.2288489 -4.5833511 0.30615959 9.25
6.1962376 -4.2868247 0.2352125 9
6.3035288 -1.4081826 0.24717429 9
6.1855016 0.42778292 0.29443702 9
6.1487575 2.8141487 0.52179772 9.5
6.2563996 -5.3867159 0.74538708 10.5
6.2394762 -5.0441723 0.70923597 10.333333
6.2249408 2.8197653 1.0564475 12
6.2356343 -5.3468547 1.2116649 12
6.2946877 -4.9753294 1.2613945 12.333333
6.1987371 2.815383 1.4539132 13
6.3928561 -4.9366932 1.3641793 13
6.3913808 2.6242297 1.9137062 15
6.1710286 2.8087285 1.739452 14.333333
6.1945124 -5.4426289 1.9244512 14.666667
6.3082829 -5.0204659 1.98394 15
6.3906832 -4.7391114 1.9782681 15
6.3519902 2.7837739 1.9432706 15
6.1681676 4.5479312 1.9890245 14.5
6.6012845 -4.19519 -0.43710321 6.3333335
6.601388 -3.7074556 -0.36044613 6.5
6.7249036 -3.418354 -0.36107659 6.5
6.4154587 -0.52496153 -0.28426293 6
6.7970266 -0.0026038203 -0.16544318 7
6.511425 0.67612904 -0.28727037 6
6.6067181 -4.175313 -0.065305844 7.6666665
6.5500941 -3.7215295 0.080870338 8
6.6017675 -3.4282649 -0.079058141 8
6.696794 2.6969378 0.15878239 8
6.5222836 2.7989192 0.18399709 8
6.6031861 -4.9695773 0.46809369 10
6.5194664 -4.2999673 0.2427561 9
6.6016765 2.6332898 0.3456932 9
6.5624967 2.8141174 0.47307611 9.333333
6.5833039 -4.9679523 0.88509911 11
6.6606941 2.8162239 0.94429892 11
6.4578862 -5.3229094 1.1735516 12
6.6204772 -4.9560614 1.2718084 12.5
6.7008533 2.802213 1.4223565 12.666667
6.7962947 -5.0079541 1.3809806 13
6.7871065 2.2487471 1.8965138 15
6.5565791 2.4285631 1.8975939 15
6.649241 -5.5339828 1.8588605 14
6.4506869 -4.5634661 1.9777378 15
6.5206676 -4.2917252 1.9760103 15
6.6031008 -3.8328156 1.9718373 15
6.675107 -3.3854995 1.9712852 15
6.7046165 -3.0295415 1.9712622 15
6.7407498 -2.6875803 1.977193 15
6.7676229 1.4457743 1.9216846 15
6.4928422 1.7724649 1.9349707 15
7.0148072 -4.2125182 -0.48019689 6.3333335
6.9129872 0.070903905 -0.40796295 6
7.1620808 1.0348657 -0.16702367 7
6.9194608 2.4003017 -0.14666706 7
6.8925314 2.5514493 -0.19095895 6.6666665
6.9458885 -4.1429691 -0.028729456 8
7.1717 1.0527575 -0.065674782 7
7.1418467 1.2968729 -0.034389496 7
6.9112844 2.5484912 0.072330214 7.75
6.986897 2.8133574 0.59156471 10
7.1750898 9.801877 0.6445787 8.5
7.0709934 -5.0359912 0.93279934 11
6.9058685 2.8190434 0.83046877 11
7.0246916 9.8478842 1.1058514 10
6.9112415 -4.9635835 1.3293217 12
7.1520205 2.8092098 1.3139095 12
6.947896 -4.9648004 1.4081947 13
6.9708033 2.7985289 1.6724651 13.666667
7.100698 9.8547649 1.8235434 11
7.1253734 -5.4008489 1.9319918 14
7.1887317 -5.0570579 1.9244809 14
7.1611867 -1.0640634 1.92138 15
6.9305515 -0.64740551 1.9172357 15
7.1822648 -0.12260044 1.9007089 15
6.9763255 0.18082096 1.905713 15
7.105763 0.98458719 1.9010891 15
6.9264688 1.239011 1.9127152 15
7.2270546 1.8454123 1.8895922 15
7.049283 2.0648348 1.9022722 15
7.3364682 2.3889906 -0.24639517 6.5
7.5743542 2.3541226 -0.06285473 7
7.4590778 2.8034821 0.61919236 9.5
7.5915232 -5.0051346 0.56968659 10
7.3482718 2.8198507 0.96479994 10.5
7.2694478 9.7953749 1.0437707 9
7.394598 -5.0441942 1.1259166 11.5
7.2401843 2.7887132 1.1293261 12
7.3280149 9.7890224 1.4533291 10
7.4527907 -5.0996504 1.4936483 13
7.5462713 1.4650502 1.8727994 14
7.3936157 2.8002787 1.6749942 13.333333
7.3058057 9.7914658 1.8026832 11
7.2777262 -4.6268539 1.9231621 14
7.3372598 -4.3099985 1.9240249 14
7.4319987 -3.907223 1.9343466 14
7.4731221 -3.6005466 1.9397032 14
7.4379802 -3.1611552 1.9331913 15
7.4366355 -2.6586797 1.9404976 15
7.398212 -2.2601519 1.9444093 15
7.4986076 -1.8299441 1.882405 15
7.257206 -1.2930056 1.8974364 15
7.6047277 -0.95290315 1.8708367 15
7.4643188 -0.69169497 1.8765529 15
7.3357377 -0.36153263 1.8978866 15
7.5448246 0.32328641 1.8756995 15
7.3945069 0.56519371 1.8859512 15
7.3619699 1.699321 1.8841909 14
7.6466179 -4.0332246 -0.52785039 6
7.6655278 -3.7867062 -0.40076151 6.5
7.6652274 -3.4287488 -0.37335795 6.5
7.6551332 -2.9895067 -0.42377186 6
7.6695161 -2.5809655 -0.4256855 6.5
7.6571798 -2.2586164 -0.4154177 6.4000001
7.7043824 -1.7654482 -0.41115588 6.4000001
7.6629715 -1.5704361 -0.22456235 7
7.9410863 -0.5238561 -0.43771377 6
7.7962594 2.3389575 -0.30908012 6.5
7.6872649 -4.3633566 -0.20991234 7
7.681406 -3.7251101 0.0041940864 7.6666665
7.6838365 -3.4023004 -0.0072157322 8
7.6677222 -2.9870567 -0.080531605 7.5
7.6781492 -2.5689762 0.02347225 7.6666665
7.6704688 -2.2141099 0.00039697165 7.8000002
7.6547265 -1.8621303 -0.044607297 8
7.67346 -1.5929096 -0.0097579304 8
7.6523795 -4.8834929 0.29879075 9
7.8292828 -4.6633763 0.3880128 9
7.7084355 -4.2620587 0.28872231 9
7.8483429 -3.8728099 0.31865582 9
7.9539533 -3.5857036 0.34665573 9
7.7160439 -2.4662795 0.35315725 9
7.696137 -2.1350458 0.42153931 9.333333
7.693902 -1.8214803 0.43618998 9.5
7.6740785 -4.897018 0.66718388 10
7.8118877 -4.6864653 0.63261002 10
7.7454886 -2.61742 0.90084863 11
7.7007079 -2.2500618 0.7451418 10.5
7.7147141 -1.8637587 0.8399145 11
7.820879 2.8158948 0.96497256 10.5
7.6568422 -4.9769225 1.1587943 11.5
7.8520193 -4.6443992 1.0130934 11
7.9274192 -4.323369 1.1195967 11.333333
7.9342303 -3.8261077 1.0544306 11
7.9762559 -3.3757825 1.2155038 11.5
7.9318514 -2.9704845 1.2515466 12
7.7352953 -2.2419951 1.2266985 12
7.7343268 -1.826849 1.0844382 11.5
7.754425 2.8100753 1.2312346 11.5
7.6387625 -5.0060635 1.4424509 12
7.8390079 -4.6288218 1.3921312 12.25
7.8106956 -4.2370992 1.4532073 12.666667
7.8007259 -3.8418486 1.42272 12.333333
7.7658863 -3.2346501 1.3986356 13
7.7650852 -3.0259054 1.4081215 13
7.762033 -2.7073567 1.4534692 13
7.7625551 -2.2799807 1.4543542 13
7.7779536 -1.7588475 1.497049 13
8.0082216 -1.622152 1.4116545 13
7.865541 1.0600824 1.8585696 14
7.7386179 1.2254064 1.8635073 14
8.0212517 2.7428799 1.8904631 14
7.8702068 2.8061147 1.7222747 13.5
7.8398538 -3.485698 1.9832867 14
8.0276041 -3.0698431 1.8611153 14
7.9604325 -1.7069714 1.8531955 14
7.8765259 -1.5115241 1.8584865 14
7.6916351 -1.1342086 1.8654729 14
7.8535814 -0.18965682 1.8609885 14
7.6467509 0.15697251 1.8711429 15
7.9924464 0.88881797 1.8527874 14
7.9766498 1.9018607 1.9102455 14
7.8397269 2.1444712 1.9152656 14
7.7028265 2.3808601 1.9214219 14
8.3356953 -0.32423156 -0.6282205 6
8.3326664 -1.4066195 -0.3838535 6.5
8.2597847 -1.0540268 -0.38352084 6.3333335
8.0600567 -0.75524157 -0.36852923 6
8.35215 -0.0030521324 -0.41520166 6
8.2690849 0.54849094 -0.51337343 6
8.3026991 0.97954303 -0.31691736 6.5
8.3088884 1.5032907 -0.52344733 6
8.3153591 1.7041252 -0.50109422 6
8.3540077 -1.2138766 -0.18224917 7
8.3650331 -0.88059914 -0.15732777 7
8.3804359 -0.727938 -0.1622148 7
8.3200207 -0.13561103 -0.085841797 7
8.3505335 0.1624029 0.034012984 7.3333335
8.3180532 1.6974938 -0.084851734 7
8.1386557 2.8137105 0.28063783 8
8.296772 -4.1094308 0.47820973 9
8.3107319 -3.6584051 0.52384955 9
8.1649046 -3.37572 0.43776697 9.333333
8.2176838 -3.0612648 0.41064754 9
8.3343506 -1.4919759 0.38504219 9.166667
8.3720818 -1.1294695 0.37963247 9.333333
8.3753662 -0.64165169 0.4568243 9.5
8.3694162 -0.21098331 0.31561193 8.5
8.3734999 0.15335536 0.36731991 9
8.322484 0.61023349 0.39090255 9
8.3507156 1.0159122 0.40635967 9
8.3662825 1.3811305 0.45234573 9.25
8.3494101 1.7057688 0.41070166 9
8.1787529 2.8076439 0.59616244 9
8.2655764 -4.6456881 0.66075265 10
8.3091698 -4.1378469 0.68859351 10
8.3110409 -3.8094366 0.73018879 10
8.3133268 -3.4280384 0.80759555 10.666667
8.3096418 -3.0684977 0.74277121 10.333333
8.1852846 -2.626019 0.93438572 11
8.3889303 -1.4374818 0.92683893 11
8.3653574 -0.97991771 0.71735942 10.333333
8.4002037 -0.55766004 0.78395474 10.5
8.3750582 -0.20037362 0.81304485 10.5
8.3973217 0.21246102 0.87316114 10.5
8.3431578 0.55767411 0.85395306 10.333333
8.3865004 0.99078172 0.92556137 10.666667
8.3883905 1.36921 0.90422148 10.666667
8.3844385 1.6704234 0.81865084 10.5
8.4162836 2.7998261 0.8345744 10
8.0293303 -2.5967472 1.1297151 12
8.4025898 -1.4902231 1.1857672 12
8.4157209 -1.1878252 1.2395939 12
8.4155178 -0.64686888 1.2177449 12
8.4044657 -0.15173528 1.2911408 12
8.3763514 0.18831627 1.1981257 12
8.3938046 0.46313059 1.2433944 12
8.3925505 0.95212638 1.2131706 11.5
8.3788586 1.3422534 1.3097477 11.666667
8.3498878 1.634068 1.1996223 12
8.332654 2.8032417 1.2601099 11.5
8.35005 -5.4776974 1.6403906 13
8.3743877 -5.2345824 1.6562577 13
8.3408155 -3.8918946 1.6048616 13
8.3718357 -3.5692241 1.6293728 13
8.384449 -3.1421103 1.6585082 13
8.4176378 -1.4384005 1.6666362 13
8.4169254 -1.0865699 1.6802967 13
8.4179983 -0.72355688 1.7076325 13
8.4185896 -0.21662746 1.6480114 13.333333
8.4245176 0.18289472 1.6244503 13
8.3040895 0.67844534 1.6729132 13.333333
8.4107141 0.98359388 1.6337482 13
8.4308271 1.3256521 1.6268942 13
8.4232349 1.6918401 1.6942632 13
8.165966 2.6560907 1.8513614 13.5
8.3640413 -5.4528809 1.735561 13
8.3833923 -3.7624483 1.8411053 13.5
8.1725588 -3.4293377 1.857496 14
8.388751 -2.6796029 1.8403478 14
8.1837635 -2.2263472 1.8428905 14
8.4167318 -1.4412644 1.8147578 14
8.3398485 -1.0478799 1.8450089 14
8.1349869 -0.6545825 1.8536744 14
8.3791971 0.34348917 1.8368948 14
8.2522726 0.53002644 1.8418175 14
8.4153605 1.0708591 1.8920574 14
8.2535124 1.4145182 1.9008501 14
8.1514988 1.5804049 1.9013064 14
8.220458 2.6068397 1.8982812 14
8.4348488 1.8617542 -0.38318613 6
8.4633856 1.9263252 -0.070511892 7
8.4648781 2.1355515 0.21631354 8
8.4543056 2.5942664 0.23678683 8
8.4094696 -0.43538275 0.3657175 9
8.4802313 1.8965918 0.47247562 9
8.4662714 2.6140285 0.4564279 8.75
8.4247007 -0.45423064 0.90321434 11
8.4248848 0.18517599 0.95975715 11
8.4222908 1.8080769 0.69144446 10
8.5107918 2.641418 0.8100813 10
8.4334869 -0.98828757 1.228188 12
8.4373589 -0.45053932 1.3176851 12
8.4349937 1.2969192 1.3954121 12
8.5139465 1.8670254 1.2485069 12
8.5557127 2.0779109 1.284685 12
8.5148849 2.6126547 1.2931937 11.666667
8.6192856 -2.5933323 1.7437381 13
8.5477867 -2.1602826 1.7684025 13
8.5140352 -1.9518194 1.780557 14
8.5409975 -1.6372609 1.6347796 13
8.4379482 -0.76660007 1.5374334 13
8.4435492 -0.33680409 1.7575321 14
8.4568281 0.16500707 1.6270416 13
8.4375668 1.510515 1.6621253 13
8.5634823 1.9083995 1.7524266 13
8.4896975 2.1110651 1.6995995 12.666667
8.4403582 2.4523706 1.8434409 13
8.48036 2.7775023 1.6514114 13
8.4840317 -3.0161226 1.8289093 14
8.5579386 -2.6105878 1.8939514 14
8.5164585 -1.7526834 1.8007327 14
8.4537916 0.7049827 1.8644992 14
8.4923458 2.2769001 1.89015 14
9.8338556 2.7423909 -0.58929378 6
9.743495 2.5629215 -0.1027326 7
9.7860317 2.5498548 0.50901771 9
9.7738762 2.8146675 0.60930067 9
9.8915825 2.3566043 0.90542221 10
9.8630571 2.5668988 0.80861902 10
9.7936907 2.7818813 0.83961904 10
9.897522 2.28145 1.117884 11
9.8892984 2.4730146 1.1311442 11
9.8448458 2.8109062 1.1816219 11
9.8893776 2.6456442 1.7572985 12
