# .PCD v0.7 - Point Cloud Data file format
VERSION 0.7
FIELDS x y z intensity
SIZE 4 4 4 4
TYPE F F F F
COUNT 1 1 1 1
WIDTH 113
HEIGHT 1
VIEWPOINT 0 0 0 1 0 0 0
POINTS 113
DATA ascii
-4.324132 -4.9273787 1.0998014 12
-3.2271972 -4.8590488 0.50057352 9
-3.2649639 -4.9212122 1.5730673 14
-3.1165497 3.8141274 0.42133525 10
-3.0089371 -0.90865707 0.8365196 15
-2.9464071 -2.3950493 0.28258976 9
-2.8511326 -1.9363852 0.24936467 9
-2.8667967 -1.6538707 0.26940617 9.5
-2.9443133 -2.9344625 0.51584744 11
-2.9514253 -2.369803 0.40715075 10
-2.8632727 -1.9970021 0.51114368 11
-2.8746195 -1.599425 0.49232259 11.5
-2.999121 -1.1040694 0.61438525 13
-2.9597063 -2.7858889 0.93091965 14
-2.9817958 -2.1202917 0.81935298 13
-2.8760881 -1.9912601 0.91673011 14.5
-2.9954455 -1.5420585 0.89880133 14.5
-2.9715486 -2.901787 1.1563001 15
-2.7081819 4.1108437 0.25573963 9
-2.0410464 1.5677692 0.4866752 13
-1.7456414 3.0715077 0.31589368 10
-1.5858036 1.644779 0.45879567 13
-1.3990793 1.6031767 0.6156534 15
-1.0139401 -1.9439659 0.23333947 10
-1.0460603 -1.9486306 0.61495656 15
-1.1731187 2.7532775 0.74370241 14
-0.69266576 -1.6046065 0.32340464 12
-0.66509026 -1.5731968 0.37546268 13
-0.70163363 -1.7272598 0.56415075 15
-0.6554653 -1.5682834 0.42137802 14
-0.48150292 -1.9296548 0.30437502 11
-0.57124424 -1.6470587 0.27232993 11
-0.47343239 -1.9258199 0.47930163 14
-0.070337281 -5.4082994 0.40831006 9
-0.097628392 -1.9243248 0.32127762 11.5
-0.078403659 -1.9331219 0.53856742 14.5
-0.013454665 5.8056436 0.54466724 10
0.053190157 1.5830556 0.46626338 15
0.21302861 -5.3833561 0.24235344 8
0.45752057 3.989152 0.54971296 11
0.68360299 0.93660885 0.0075911125 7
0.7651751 3.9332235 0.59324086 11
0.75069016 -5.3853455 1.5094627 15
1.1559187 -5.3816972 1.2384582 13
2.0343428 -5.3764467 1.5571826 14
2.2126663 -5.3732653 1.3959726 13
2.5618784 -5.3591828 0.27030593 8
2.4912322 -5.3670354 1.4502723 14
2.6693823 2.9393644 0.45336345 10.5
2.7306516 3.7139177 0.42063427 10
2.7539454 4.9869065 0.38472721 9
2.7734859 2.6678052 0.68585086 12
2.6618845 2.9721038 0.63660973 12
2.7660015 5.0038033 0.7449761 11
2.6541035 2.9053564 0.85446358 13
2.6394246 3.0375829 1.1821673 15
2.6726573 -5.3677902 1.8884156 15
2.8726046 -5.3443527 0.42747325 9
2.7996373 2.7996917 0.30036524 9
3.1744914 -5.3598371 0.80959845 10
3.1910481 2.8122571 0.86348689 13
3.1762388 2.7997985 1.2071357 15
3.2655182 -5.3930163 -0.049768399 7
3.4986618 -5.3536878 0.30071929 8
3.490109 -5.3468523 0.49060643 9
3.4414217 4.7888284 0.45161593 9
3.5686312 -5.3496623 1.1611452 12
3.4834573 -5.3607798 1.6714197 14
3.7500679 -5.0548286 0.0072844387 7
3.7435787 2.1311352 0.31145737 9
3.7227445 -5.0515418 0.65852284 10
3.7767477 2.1089952 0.5356642 10
3.7775331 2.6863394 0.43952674 10
3.6662185 -5.0453663 0.84492511 11
3.6267395 -5.3581662 1.8822 15
3.7982256 2.8102682 0.59953731 11
4.0408902 2.9024129 1.3756747 15
4.3296027 2.9153399 0.92261535 12
4.3283305 2.9129403 1.0783156 13
4.6856117 -4.574626 0.06687241 7
4.5886846 -5.0934954 1.6480923 13
4.9147453 2.9172647 1.5193336 14
4.8353992 -5.0268455 2.0510705 15
5.0070543 -4.0779853 0.13636991 7
5.0547171 -4.0788879 0.42245454 9
5.7660928 1.4417905 0.62388289 10
5.6486731 2.5324998 0.55225682 9
6.0891666 2.9273045 1.7172372 14
5.9856796 2.9343297 2.021091 15
6.1619253 -4.9703674 2.1145496 14
6.3597193 -2.024411 0.42746809 9
6.3349857 -2.4108274 1.2513021 12
6.3406467 -1.6215129 1.2927355 12
6.2289915 -4.9188085 1.4949563 12
6.3378358 -1.5090338 1.5141629 13.5
6.33742 -2.1227024 2.0545399 15
6.4111052 -2.9938631 0.13581277 7
6.4014168 -2.5665958 0.21996745 8
6.3897805 -1.4434936 2.0105221 15
6.5905046 -4.1263204 1.9230647 14
6.979094 -0.91368622 1.2406226 12
6.9667406 -0.26948121 1.2837186 12
6.9841657 -4.414587 1.5990406 12
6.9480577 -0.4905262 1.6119505 13
6.880847 0.6936397 1.5150073 13
6.9069643 1.8045601 1.6229322 13
6.8422551 -0.053549666 1.6662152 14
6.8726544 0.69335032 1.6608249 14
6.9280152 1.6204385 1.7392771 14
6.9496727 -0.61151493 2.026058 15
6.9002042 0.58420783 1.9607482 15
6.8615518 1.4966457 1.9180396 15
6.8655486 -5.3143125 2.5304775 15
