# .PCD v0.7 - Point Cloud Data file format
VERSION 0.7
FIELDS x y z intensity
SIZE 4 4 4 4
TYPE F F F F
COUNT 1 1 1 1
WIDTH 232
HEIGHT 1
VIEWPOINT 0 0 0 1 0 0 0
POINTS 232
DATA ascii
0.029256592 -0.95235682 -0.0042674434 151
0.16220045 -0.95660079 0.00021573798 153.33333
0.075695872 -0.82396787 4.0072249e-05 155.75
0.19246668 -0.82285547 0.001420368 159.5
0.30199185 -0.82974356 0.0045623085 162
0.409969 -0.83271003 0.0085364366 163
0.096512184 -0.76910257 -0.0020808196 160
0.1192223 -0.70417035 0.0032856138 161.5
0.21756902 -0.71429771 0.00025155599 169
0.31283987 -0.72385067 0.00098460284 175.5
0.40686306 -0.72362524 0.004872499 180
0.50103194 -0.71445167 0.0070015895 179.5
0.1287666 -0.6833204 -0.0041802027 165
0.23590621 -0.63241333 0.0018492154 179.33333
0.32039842 -0.63887292 0.0028309058 183
0.44939923 -0.64283442 0.0048250412 185
0.17591582 -0.55295247 0.00036290076 182
0.26049379 -0.53011078 -0.0028562325 183
0.33993635 -0.52464247 -0.0028551077 183.33333
0.42747211 -0.55747783 0.001885516 185
0.19907837 -0.4964512 -0.0087006819 182.5
0.24834998 -0.45773509 -0.019062655 179.94444
0.35430655 -0.44319916 -0.0091543049 179
0.43436405 -0.47066998 -0.0097387461 180.38461
0.53442758 -0.42848477 0.00066172419 179.33333
0.26511294 -0.35792586 -0.023665061 173.64
0.35479695 -0.34636801 -0.020271409 169.89131
0.44811395 -0.32059923 -0.01054183 165.35001
0.56249338 -0.39528376 0.0025149358 177
0.61437309 -0.37325105 0.0054205158 178.66667
0.29086298 -0.26004374 -0.023630807 164.39999
0.35461885 -0.24165916 -0.017697778 165.80769
0.45372468 -0.24704179 -0.019374788 167.5
0.53814757 -0.24671546 -0.016739752 167.74359
0.60181451 -0.20515019 -0.0069455258 169
0.36502615 -0.15096916 -0.032273103 165.75893
0.44705629 -0.14155972 -0.016393121 166.56075
0.54649061 -0.14673674 -0.013439631 168.80769
0.63104868 -0.13868022 -0.01185588 170.79311
0.38876763 -0.053540405 -0.059721865 165.58139
0.43639138 -0.041860085 -0.043053284 165.72955
0.53465974 -0.062173281 -0.0063139903 167.75438
0.63797474 -0.07590127 -0.015966387 170.7
0.08213973 0.095526375 -0.02196198 169.14285
0.16148137 0.079131246 -0.036270987 166.41667
0.25778496 0.066258885 -0.064272121 165.175
0.36511648 0.042348247 -0.066610135 166.29897
0.41046512 0.046344969 -0.060067225 166.45631
-0.22321793 0.19118121 -0.016430382 188
-0.15891413 0.17146695 -0.026755156 184
-0.036053475 0.15758128 -0.033043806 177.06897
0.046667337 0.14794095 -0.038732328 171.45833
0.15446252 0.14313041 -0.020445241 167.15625
0.25885066 0.13816299 -0.043085445 165.25
0.3529017 0.14530094 -0.039129347 165.81757
0.42998728 0.14787267 -0.021239351 166.96385
-0.53061551 0.28937283 -0.040709004 192
-0.4398205 0.26050389 -0.036033947 197
-0.36715978 0.23748353 -0.033889517 194.66667
-0.27735043 0.20844968 -0.020277178 190.39999
-0.12415648 0.2335283 -0.028365379 183.375
-0.065187648 0.20548522 -0.016082032 181.5
0.038620118 0.21743505 -0.041066475 173.63637
0.14578901 0.2782928 -0.034687325 172.23077
0.2552568 0.23912498 -0.011771598 169
0.35058224 0.2390807 -0.0069153053 169.46297
0.44239014 0.23758091 -0.0059215035 171
0.50662118 0.28098407 -0.022699472 173.66667
-0.80659884 0.3770169 -0.053323384 150
-0.71448922 0.34770823 -0.047965251 160
-0.63305998 0.32206136 -0.048236668 175.33333
-0.21614473 0.37067711 -0.011357746 193
-0.18904725 0.35335904 -0.0069735087 191
-0.052282162 0.3527016 -0.016154606 184.75
0.059757207 0.33508119 -0.021865344 179.22223
0.15546933 0.34884873 -0.021238228 176.58824
0.25141177 0.35491008 -0.026452301 174
0.3549802 0.34986863 -0.024832776 173.81081
0.45407116 0.3350597 -0.020089045 174.82608
0.51766121 0.31303671 -0.012933613 175.33333
-0.89476806 0.40518337 -0.060588822 143
-0.34380963 0.45107689 -0.022992281 194.28572
-0.24897565 0.45107985 -0.031880163 193.25
-0.14253758 0.42533708 -0.015701283 190.33333
-0.043689612 0.44507143 -0.012437297 187.66667
0.053006791 0.43756473 -0.019344861 184.2
0.14980303 0.46355513 -0.017178863 182.76923
0.23343353 0.45058027 -0.011164279 181.14285
0.35363641 0.48049849 -0.011320396 181.42857
0.45089176 0.47622225 -0.0056591039 182.75
0.52689904 0.44406396 -0.0025896213 181.33333
-0.32178363 0.57398421 -0.038841113 199
-0.26319581 0.52526039 -0.0305229 197
-0.15434588 0.56278265 -0.023880878 194.5
-0.016583975 0.54003286 -0.0091084745 191
0.059452649 0.54626828 -0.0091145243 189
0.16414602 0.54807544 -0.0085295355 187.75
0.2547487 0.50584722 -0.010646482 183
0.36243293 0.50638533 -0.0066524451 184.2
-0.44382241 0.67335099 -0.044428162 183.66667
-0.36373001 0.60791147 -0.039504956 197.66667
-0.25177187 0.66599083 -0.032100711 198.60001
-0.11665209 0.67933685 -0.022883251 198
-0.063679203 0.64148414 -0.022582412 194.39999
0.013250404 0.66588438 -0.020083608 194
0.11802789 0.66107893 -0.0052374727 195
-0.54253489 0.75272566 -0.043458007 165.25
-0.34412512 0.76364177 -0.039130092 185.66667
-0.16790691 0.75004917 -0.027910866 197.25
-0.030390214 0.74426061 -0.021333439 196.5
0.08737544 0.74175262 -0.012185411 196.25
0.16964352 0.73862374 -0.010956793 194.75
0.27094227 0.73231262 -0.0074776281 194
0.39250931 0.76716828 -0.0091387611 193
-0.42701235 0.84905684 -0.03618484 170
-0.39501286 0.81682634 -0.040419005 178
-0.23925312 0.84814799 -0.033864088 187.33333
-0.077483989 0.82942772 -0.024046244 196
0.046228006 0.84824872 -0.018507697 195
0.16582665 0.85601068 -0.014052081 196
0.2802344 0.86037439 -0.008644999 194.66667
0.39317527 0.88505995 -0.0062950887 193
-0.29160693 0.91846037 -0.032979656 177
-0.13041589 0.92625809 -0.029678093 189.33333
-0.0029654624 0.96908784 -0.01530758 186
0.0060142758 0.95336956 -0.026398003 185.5
0.14521585 0.93495041 -0.012409409 191
0.2738415 0.90862072 -0.0062045357 201
0.29275954 -0.91444027 0.0097191045 150
0.18413018 -0.84899873 0.011041879 156.5
0.29709333 -0.85669106 0.014179779 157
0.40876988 -0.84819347 0.015741453 161
0.51810449 -0.83211923 0.018681802 166.5
0.11076733 -0.7241838 0.0075732125 163
0.20810738 -0.74709797 0.0082393773 163
0.30762812 -0.74828553 0.012813044 170.33333
0.40565488 -0.75486183 0.014444485 174
0.54073316 -0.73264271 0.019602804 178.2
0.65427178 -0.7310915 0.021560917 179
0.14879128 -0.62002325 0.0096962508 169.5
0.23457932 -0.62840849 0.010958386 179.66667
0.33876669 -0.63198525 0.014949284 186.25
0.44171706 -0.62216008 0.014438594 187.125
0.57920831 -0.6541329 0.017033633 182
0.67436409 -0.64892727 0.018612182 183.8
0.75639904 -0.6100598 0.029047173 181.33333
0.17858881 -0.53955179 0.0096890498 180.33333
0.2553986 -0.54066461 0.0079762833 184.5
0.37154087 -0.52875865 0.012715727 184.875
0.46800679 -0.53447294 0.017534049 185.2
0.54916859 -0.55699468 0.017670499 186.16667
0.64226234 -0.53459311 0.024066407 188
0.73379141 -0.57058847 0.020550266 188.66667
0.81514531 -0.5372054 0.026634185 186.5
0.46173352 -0.48924693 0.012036847 183.33333
0.55417436 -0.45821899 0.019406984 183.46153
0.65049791 -0.45391446 0.025626741 185.55556
0.74086529 -0.44711408 0.029587308 188
0.83214635 -0.43308872 0.034448788 189.75
0.39371777 -0.38476625 0.008663944 176.33333
0.46724179 -0.36310193 0.010500845 174.93333
0.55152804 -0.33086434 0.015243559 172.8
0.65891629 -0.35481653 0.020732069 180.5
0.73856074 -0.34452632 0.034977105 184.54546
0.83751255 -0.33941343 0.038457502 187.83333
0.92805672 -0.35447025 0.029709304 190
0.56482315 -0.27074072 0.013440923 163.60001
0.63990575 -0.24292761 0.02031716 169.75999
0.75280184 -0.24448881 0.031986788 180.40909
0.86692911 -0.25425488 0.041249998 187.25
0.91925591 -0.21961348 0.043342508 190
0.66107094 -0.15257095 0.020079924 166.60869
0.75787753 -0.14702906 0.024735922 174.45
0.82746226 -0.14428659 0.043403309 183.76923
0.9332518 -0.1482873 0.04150727 188.60001
0.68156326 -0.079958715 0.020460026 168.33333
0.7218976 -0.091099411 0.026669184 168.2
-0.038864344 0.18545492 0.072080709 183
0.063627347 0.19219132 0.032210473 169
0.15492465 0.16748554 0.085382536 135.8
0.22856385 0.15650436 0.046991166 127.17857
-0.11904719 0.2278122 0.0089100851 184
-0.073695064 0.27482462 0.048075195 187
0.045119055 0.26715651 0.023013033 179
0.17244518 0.21090993 0.028964642 149
0.36912921 0.22385305 0.0036734899 169
0.46403566 0.23562825 0.0024669629 172
-0.142553 0.32216445 0.011739238 190.5
0.26207301 0.39183393 0.00083451904 178.33333
0.37471554 0.38882461 0.0046024467 177.60001
0.46057293 0.37167323 0.010477795 177.85715
0.52468163 0.34576499 0.014259242 178.7
-0.32663512 0.43436474 0.023140533 180
-0.025134765 0.42341605 -0.0025528653 187.33333
0.057340682 0.46698347 0.0030577409 187.5
0.10853548 0.48668143 0.0016745958 186.33333
0.27508616 0.41273177 0.0040529654 179.39999
0.35466021 0.41701457 0.0059008733 179.55556
0.45292822 0.43349859 0.006482543 181.2
0.54469281 0.46394891 0.019145658 185.17647
-0.011008277 0.53083545 -0.0038328564 190
0.05547246 0.58235013 -0.00081735878 191
0.17152651 0.52089721 0.0059613893 186.66667
0.24169455 0.53773355 0.0092204642 187
0.34660673 0.53936684 0.013621683 187.35294
0.45271415 0.52956825 0.017579399 187.66667
0.54047173 0.55282974 0.024215642 189.28572
0.61071205 0.55637407 0.027654298 190.60001
0.043682959 0.60317886 -0.00035811658 194
0.13493483 0.61456072 0.0019523643 192
0.23211737 0.63926148 0.0038619463 191.33333
0.35401055 0.62686878 0.016056783 190.5
0.46557233 0.62684333 0.021698909 191.60001
0.55085433 0.62979263 0.02601999 193
0.6542123 0.65645719 0.023825938 194.8
0.18361011 0.77410185 -0.00096625421 198
0.28816605 0.77835685 -0.00079766958 196.5
0.38896099 0.7498948 0.0044743805 194.66667
0.48595655 0.7466175 0.0084669916 195.25
0.58091348 0.73063523 0.018514736 196.39999
0.67962366 0.71747071 0.026042344 196
0.15708652 0.87986475 -0.0032488238 193
0.39096349 0.84780371 0.00094243226 194.33333
0.49611276 0.81316525 0.0058864495 197
0.50052655 0.85321826 0.011248457 191
0.27056101 0.9294228 -0.0030099663 190
0.3900485 0.90478653 0.0073667807 191
-0.0023526768 0.16600294 0.10266261 168
0.055317476 0.15762368 0.1387118 132.75
0.11800181 0.15617085 0.10986499 127.6
-0.039386608 0.23861495 0.16158333 165.5
0.019815017 0.20909394 0.10831921 175
