# .PCD v0.7 - Point Cloud Data file format
VERSION 0.7
FIELDS x y z intensity
SIZE 4 4 4 4
TYPE F F F F
COUNT 1 1 1 1
WIDTH 154
HEIGHT 1
VIEWPOINT 0 0 0 1 0 0 0
POINTS 154
DATA ascii
-5.6506629 -1.4303005 1.7679899 15
-5.2746682 -1.6345599 1.5230647 14
-4.9734273 0.6388098 1.6286095 15
-4.7930551 -1.4027482 0.90339804 11
-4.7636433 1.224532 1.5512208 15
-4.7059669 -1.8927826 0.9172591 11
-4.7447567 -1.8349171 1.5047394 15
-4.3748121 2.2398434 1.6887685 15
-4.2708406 1.8693768 0.34263003 8
-4.3467441 -1.8727151 0.62872016 10
-4.3590155 -2.0378745 0.9918865 12
-4.2068467 -2.1103616 1.2088004 13.5
-4.2689209 -1.8052959 1.116491 13
-4.2353559 -2.0663846 1.4999235 15
-3.6694827 2.4712458 0.39133728 8
-3.5938971 2.4476767 1.3033985 14.5
-3.5851605 2.6174986 0.49085039 9
-3.4146693 2.9520943 0.45524916 9
-3.5760472 2.6078534 0.60942066 10
-3.4177482 2.9291053 0.62591851 10
-3.5757878 2.5663366 0.84708714 11
-3.3939042 2.9425507 0.82402384 11
-3.3863416 -2.4651113 1.0383962 14
-3.3947771 2.8258929 1.31589 14
-3.3061669 3.1804101 1.1121384 13
-3.1611507 3.3365829 1.4625455 15
-3.2544751 4.6045046 1.5543962 14
-3.2611637 4.5357103 1.7349083 15
-3.0824924 3.8346477 0.36791548 8
-3.0400217 -1.8690896 0.45349446 10
-3.1429605 -2.5850368 0.54925317 10
-3.1325252 3.57885 0.9671936 12
-3.1508472 3.3514867 1.4137632 14
-2.8714128 4.1642504 0.84048516 11
-2.900811 4.10741 1.0012391 12
-2.769887 4.6646638 1.7097311 15
-2.8042161 5.5073934 1.7285448 14
-2.6472592 4.7287116 0.45444369 8
-2.6366289 -2.7207856 0.60349309 11
-2.5884607 -2.7287905 0.80985868 13
-2.7242279 5.4904428 1.5526114 13
-2.5685742 -2.0079281 0.19324659 8
-2.5048611 -2.7770543 0.36111271 9.5
-2.5641861 -2.7408626 0.701217 12
-2.533422 -2.742311 1.0121776 14
-2.469425 5.1517015 1.0393331 11
-2.5349312 -2.7333372 1.1135296 15
-2.4854281 5.2885489 1.8543929 15
-2.2391748 -2.9720433 0.25420037 9
-2.2641327 -2.8759062 0.46160299 10
-2.2009442 -2.8861194 0.75504613 13
-2.0204711 -2.6222222 0.16652441 8
-2.0671237 4.6207361 0.56055409 9
-2.1398771 -2.9284632 0.55194318 11
-2.1588142 4.6626639 0.71717048 10
-2.0945754 -2.9439132 0.646209 12
-2.0726106 -3.0054679 0.96113682 14
-2.0587554 -2.9396586 1.0457073 15
-2.0121565 5.5357018 1.3412539 13
-1.9304658 5.488728 1.2135777 12
-1.9333848 5.5011196 1.5347302 14
-1.9289351 5.548192 1.8675838 15
-1.5493023 4.3833766 0.71224809 11
-1.2965102 4.2514319 0.4949213 9
-1.2105805 4.2304325 0.54859698 10
-1.1542751 4.3455963 0.67602974 11
-0.98494965 4.9939747 1.109048 12
-0.97770041 5.0245662 0.71195042 10
-0.82584798 4.9196582 1.3961962 14
-0.92310971 4.9789205 1.594855 15
-0.72909689 5.1202774 0.75721163 11
-0.38886634 4.9045739 0.95348954 12
-0.22955237 -4.8634787 0.69611657 12
-0.15469794 4.8364978 0.72054166 11
-0.074592277 4.8340955 1.503561 15
0.14151652 4.9832468 1.4210635 14
0.33940181 4.557178 0.56098062 10
0.28881937 4.6000581 0.77794147 11.5
0.41088849 4.5646849 1.0082003 13
0.37109071 4.5936241 1.4208741 15
0.71640575 -0.23521312 -0.2614249 0
0.77812141 -0.012422814 -0.2657721 0
0.67582154 4.7508655 0.74733776 11
0.70857775 4.7515869 0.94233149 12
0.87256634 0.39245355 -0.31202781 0
0.83034694 0.59808975 -0.30778632 0
1.3714262 0.091178156 -0.31548741 2
1.1900121 0.50917542 -0.32553387 1
1.603448 -3.3608954 0.56918889 12
2.3619776 0.19311486 0.02272827 8
2.3841531 0.18015288 0.17170216 10
2.3659141 0.20617682 0.25279546 11
2.4038615 0.19000335 0.48160627 14
2.3935888 0.20626266 0.41655168 13
2.2727802 4.0471263 0.89793426 13
2.4057434 0.16476089 0.10108392 9
2.4152379 0.17257026 0.31809279 12
2.518553 0.48575693 0.36466804 12
2.4226127 0.22198711 0.6198504 15
2.5736156 0.55656052 0.58492285 14.5
2.7988265 -0.3948769 -0.0085515445 8
2.7915292 -0.05315575 0.22574608 10
2.7811253 -0.15523274 0.38452265 12
2.752475 0.93276381 0.66250408 14.5
2.8174701 1.1097457 0.55128181 13
2.6428168 3.8965044 1.0902158 14
2.8538549 -5.8771605 -0.42069706 6
2.9612665 3.7879658 0.12090841 8
2.84589 -0.061191328 0.20605376 10
2.888772 1.3389395 0.27692962 10
2.822875 1.1585796 0.36194083 11
2.9281845 1.3761969 0.49199378 12
2.9860976 1.4385388 0.72207308 14
2.9967237 1.4670523 0.82777584 15
3.1762917 2.0233023 0.049056791 8
3.0700943 1.761755 0.15232843 9
3.1163571 1.7701036 0.6803692 13
3.218297 1.9409404 0.82719243 14
3.2492018 2.1141436 0.40994668 10.5
3.3961318 -3.274435 0.50293076 11
3.2543912 -0.18736517 0.64345825 14
3.2377353 2.0389748 0.55335039 12
3.3291118 -3.3111963 0.71935248 12.5
3.5526493 -4.0923123 -0.090570338 8
3.5033147 3.4742663 0.12075806 8
3.4324529 2.5438921 0.18217704 9
3.4585767 2.3583465 1.1342809 15
3.710623 -3.8800719 -0.30413491 6.5
3.6812499 3.3966742 0.31584895 9
3.8002505 3.3430829 0.4567492 10
3.811785 3.3216441 0.6160143 11
3.817131 3.3049948 0.77010596 12
3.9305685 -3.3824806 -0.36548835 6
3.8440902 3.3028932 0.97096592 13
3.8746898 3.304122 1.277257 14
3.8949337 3.2999308 1.4285434 15
4.0377641 -3.2118101 -0.095594555 8
4.328805 -2.6580286 0.41081747 11
4.311686 -2.8722713 0.97943777 14
4.4728208 -2.650224 1.306226 15
4.6389227 -1.6721491 -0.4145799 6
4.7813315 -1.2629706 -0.027870853 8
4.7965178 -1.7625577 0.071978733 9
4.757916 -1.8747716 1.1559339 15
4.8018003 -1.1379198 -0.2999652 6
4.8261242 -1.1575179 -0.14694805 7
4.8768044 -1.390918 0.21149583 9
4.8617458 -1.1594982 0.24662681 10
4.9053273 -1.085737 0.46769682 11
4.8745747 -1.3040787 0.69972932 12
4.9014854 -1.2466178 0.84329832 13
4.9542985 -1.1083757 0.98622775 14
4.914927 -1.5240738 1.0493044 14
4.9795594 -1.1137148 1.1957853 15
