# .PCD v0.7 - Point Cloud Data file format
VERSION 0.7
FIELDS x y z intensity
SIZE 4 4 4 4
TYPE F F F F
COUNT 1 1 1 1
WIDTH 706
HEIGHT 1
VIEWPOINT 0 0 0 1 0 0 0
POINTS 706
DATA ascii
-21.358685 -27.54879 2.6709135 9
-20.715866 -28.069414 2.617856 9
-10.135449 -11.017599 0.50055796 8
-9.9516745 -12.1919 2.6938777 12
-9.8363047 -11.184995 0.46804303 8
-9.8062286 -12.399452 1.7084211 10
-9.6399593 -12.337345 2.6489482 12
-9.6915894 -11.677957 3.8675537 14
-9.2678223 -11.549788 0.40878615 8
-9.251462 -11.377674 1.3269331 10
-9.3776665 -12.692206 1.7328247 10
-9.359911 -11.317307 1.6669834 10
-9.1760788 -11.445004 2.1244252 11
-9.3678017 -12.536005 2.6168711 12
-9.2399006 -12.065907 3.5531573 14
-9.136795 -11.294817 3.8282259 14
-8.9935379 -11.742942 0.38046792 8
-9.1125116 -12.135685 0.78662586 8
-9.1371222 -11.627039 0.80560327 9
-9.0196762 -12.864762 1.3248057 9
-8.8067484 -12.880613 1.7277014 10
-9.0454025 -12.956005 2.1789198 11
-8.8135424 -12.905885 2.5512993 12
-9.0966177 -12.728728 2.5856886 12
-8.7847443 -11.926148 3.8439164 14
-8.883379 -11.507644 3.8038378 14
-8.449975 -12.124156 0.32372996 8
-8.4966393 -7.4495692 0.22553211 7
-8.4444723 -12.331412 0.71509677 8
-8.6028337 -11.99297 0.74128932 8
-8.5049181 -10.353382 0.78959244 9
-8.4905109 -7.4137483 0.79433626 8.666667
-8.5536356 -12.618675 1.3798696 9.5
-8.54037 -13.143919 2.1247358 11
-8.5442286 -13.101161 2.5238545 12
-8.635253 -12.451623 3.4977138 14
-8.6029978 -12.253351 3.8579814 14
-8.079505 -7.7261181 0.27677372 7.5
-8.0565042 -12.340936 0.67815506 8
-7.9913177 -7.8087997 0.83451223 9
-8.1188745 -13.53206 1.2648823 9
-8.1013155 -13.436144 1.6765332 10
-8.1107473 -13.434004 2.0876484 11
-8.1228104 -13.376248 2.4811349 12
-7.9672108 -12.509465 3.7788055 14
-8.2240238 -12.292941 3.7917137 14
-7.8762808 -12.463646 0.27099565 8
-7.7798581 -9.266634 0.4147107 8
-7.7257624 -7.9611034 0.63952804 8.5
-7.8192554 -13.625039 2.0651124 11
-7.7004271 -13.045906 3.424459 13.5
-7.827486 -11.873144 3.2808683 14
-7.4857445 -13.01456 3.7770128 14
-7.6906533 -12.695703 3.7584889 14
-7.2740431 -8.4702902 0.73320055 9
-7.2443109 -8.4908228 1.1042984 10
-7.3115382 -8.4363298 1.4208499 11
-7.2289023 -8.48629 2.0214367 12
-7.1831303 -13.386899 3.4047842 13.5
-7.1823316 -13.159908 3.7526026 14
-7.0294595 -8.3414288 2.6755772 14
-6.7607059 -7.1645322 2.7388985 15
-6.575129 -7.3296609 0.70572484 9
-6.6586785 -11.369443 1.217888 10
-6.4584432 -11.448053 2.0964074 12
-6.6565914 -7.6895761 2.7330134 14
-6.4098024 -6.9131756 2.6460116 15
-6.5486746 -13.824185 3.4009986 14
-6.27459 -13.60008 3.6940255 14
-6.4819422 -13.264229 3.662884 14
-6.3067374 -11.577146 1.7620964 11
-5.9648061 0.9355526 2.0488138 15
-5.9754872 -11.741074 2.0535247 12
-6.2238913 -11.609985 2.0770123 12
-6.1650648 -7.1206927 2.6166255 15
-6.1232162 -11.558698 2.8989203 13
-6.070056 -8.294446 3.0366807 15
-6.2552547 -14.047376 3.4050772 14
-6.0944562 -11.795605 3.3407972 14
-5.9383965 -13.673985 3.663682 14
-5.8528743 -6.2635875 0.13180086 7
-5.7874937 -6.1779442 0.66872239 9
-5.648994 -0.8696602 1.6033784 14
-5.8036633 -0.76303774 1.6463881 14
-5.9183002 1.0623953 2.0645952 15
-5.7255654 1.3186769 1.8332739 15
-5.6990447 -11.894231 2.9211481 13
-5.6688757 -8.5983362 3.0016015 15
-5.5358152 -5.6606421 0.16586363 7
-5.2736459 -1.165053 0.46383789 9
-5.1893001 -1.2186667 0.55932873 9
-5.1927271 -1.1906679 1.3359376 13
-5.1782126 2.1958396 1.1505123 11.5
-5.3538504 -1.060764 1.5218986 14
-5.5307698 1.5410579 1.8173735 15
-5.3427448 1.87488 1.7173896 14.5
-5.2313032 2.0990176 1.6497818 14.2
-5.3782005 1.7707218 1.9222696 15
-5.1849365 -12.642252 2.8026395 13
-5.1974649 -8.8916416 2.9575572 15
-5.2857895 -8.6115961 2.9243493 15
-5.2495637 -13.734779 3.5877476 14
-4.9299159 -6.0654063 0.088406213 7
-5.0070748 -4.9963474 0.30467945 8.333333
-4.9610271 -1.3466215 0.43598405 8.6000004
-4.9490972 2.56827 0.51560491 8.6000004
-4.9127169 -1.3818756 0.74455708 10.5
-5.0467978 2.5217061 0.66851461 9
-4.8338995 2.8192313 0.97276938 11
-4.7737412 -7.269012 0.94992304 10
-4.9168277 -4.8834405 1.1200393 11.333333
-4.8510556 -1.4112285 1.1494242 12.75
-5.1527448 -1.2159525 1.1883433 13
-5.1218019 2.3016043 1.2068779 12
-4.9384432 2.6056652 1.1430547 11.833333
-4.8083158 2.8250167 1.2669415 12.5
-5.0914469 -9.1468763 1.2001749 10
-4.9887848 -1.3111793 1.4239435 14
-5.0918694 2.2737253 1.68104 14.333333
-4.9387145 2.5255313 1.637239 14
-4.7914824 2.810231 1.6266769 14.5
-4.8122249 -12.53986 1.6794052 11
-4.7810173 -12.559817 1.9767296 12
-5.0227895 -12.393915 1.9898708 12
-4.7895436 -13.314255 2.7978036 13
-4.9917545 -12.978185 2.799881 13
-4.9082346 -12.425941 2.8214676 13
-4.9099302 -9.0621758 2.9366126 15
-4.4757056 -7.4570312 0.27143681 8
-4.463306 -4.1897464 0.19298917 7.6666665
-4.7599111 -3.7995403 0.36606786 8.5
-4.7347713 -1.4001112 0.30156454 8
-4.4476609 -1.1165988 0.27467531 8
-4.6595912 2.4016669 0.41791937 8
-4.7087646 3.0018651 0.4952457 8.333333
-4.461792 3.3638079 0.48368281 8.3999996
-4.4868321 -7.2230268 0.50491726 9
-4.4826241 -4.2012014 0.61224604 10
-4.6945734 -3.8553097 0.6514681 10
-4.4669285 -1.6732391 0.73149967 11
-4.6715598 -1.5457722 0.70131224 10.5
-4.6526408 3.0240319 0.99960768 11
-4.4710169 3.2969697 0.96991998 10.5
-4.6572232 -7.2694135 0.96305251 10.5
-4.4530902 -4.2074294 1.0799557 12
-4.5609174 -3.9630945 1.066 11.666667
-4.4523883 -1.6801882 1.1558082 13
-4.6681957 -1.5213342 1.1479108 13
-4.6678424 2.9952183 1.2077645 12
-4.4480252 3.3190539 1.2032531 12
-4.4526391 -4.1361256 1.3132111 13
-4.661622 -1.531067 1.339635 14
-4.6021318 3.0387912 1.703671 14.428572
-4.4054799 3.3060057 1.6965475 14.5
-4.4916444 -3.9847071 1.8561746 15
-4.5322862 -12.718501 1.9623737 11
-4.5027447 -13.451937 2.7558653 13
-4.4171271 -12.777089 2.7820101 13
-4.4899507 -11.116755 2.7097695 14
-4.443233 -9.3739147 2.9153337 15
-4.6351404 -9.2549334 2.9229944 15
-4.2989435 -3.9193704 0.32629967 8.5
-4.0859609 -1.8150022 0.35811931 8.5
-4.0715256 -1.4701451 0.30610764 8.333333
-4.3569622 3.4674079 0.50465769 8.5
-4.1657515 -7.4093575 0.46991515 9
-4.2080507 -1.8456973 0.70336133 10.875
-4.3207622 -3.9409328 1.0253295 11.5
-4.1861353 -1.8501415 1.0799592 13
-4.3455 3.4480522 1.2089311 12
-4.2404799 -8.2184591 1.3146569 11
-4.283185 3.494714 1.6023002 14
-4.2509232 -3.9438078 1.7861006 15
-4.0965843 -13.269875 1.9675754 11
-4.2834039 -12.889921 1.9522328 11
-4.1021371 -13.213551 2.6533263 13
-4.1617274 -9.56357 2.9080012 15
-3.699043 -6.978435 0.13823801 7.5
-3.9640448 -5.9123144 0.041046064 7
-3.7805333 -3.1292737 0.33575961 8.333333
-3.7712286 -2.1338749 0.29534388 8.333333
-3.953789 -1.8773712 0.28088698 8.333333
-3.8806446 -1.3189541 0.33923692 8.75
-3.7829959 3.1645308 0.54796225 9
-3.6714337 3.3248661 0.44790605 8.333333
-3.7701304 -3.1275997 0.76112312 11
-3.748565 -2.1102059 0.65663445 11
-3.9635673 -2.0104697 0.66533077 11
-3.8002982 3.1686192 0.6563189 10
-3.6460919 3.3267186 0.72815925 10.333333
-3.757592 -3.1455541 0.93704331 12.5
-3.7724767 -2.1059012 1.0323315 13.2
-3.9406793 -2.0205472 1.0412118 13
-3.6917496 3.3130398 1.0936154 12.25
-3.6015131 3.3350589 1.5568491 14.5
-3.7790666 -9.8176031 2.9025223 15
-3.4849086 -7.2088914 0.22284581 8
-3.2416236 -5.9466009 0.011275679 7
-3.2769425 -2.5269506 0.30749705 9
-3.4403594 -2.2915993 0.34273303 9
-3.3087001 1.4084376 0.39454365 9
-3.3735573 1.8246969 0.38870278 8.75
-3.5299091 3.501013 0.45114371 8.5
-3.3358428 3.8180895 0.42425424 8.333333
-3.220876 4.0024281 0.46612906 8.5
-3.2523618 -6.242599 0.71588892 10
-3.2471302 -2.5575433 0.67752641 11.333333
-3.443238 -2.2690616 0.69678462 11.285714
-3.207293 1.3551157 0.70088208 11.5
-3.2334948 2.0563715 0.58126915 10
-3.5036845 3.5104837 0.77624345 10.5
-3.3532887 3.7893693 0.74956137 10.142858
-3.2022285 4.0370808 0.82108951 10.5
-3.5375767 -7.1090012 0.96505964 11
-3.2323294 -2.5465133 0.95151305 13.5
-3.3907511 -2.2956057 1.0009595 13.6
-3.5180535 3.4638605 1.2323586 13
-3.3573856 3.7373121 1.1841589 12.714286
-3.1761098 4.0581317 1.1894928 12.5
-3.4538529 4.6598539 1.1567637 11.5
-3.2676554 4.9310484 1.2329658 11.666667
-3.2373357 -2.3838782 1.267705 15
-3.5195522 3.4399602 1.6556025 15
-3.4279351 3.6870706 1.6512103 14.666667
-3.3616135 4.1205196 1.6344951 14.4
-3.3789065 4.7116151 1.4418365 13
-3.3075686 4.2320685 1.8379763 15
-3.5097477 -13.3831 1.9219162 11
-3.1658981 -12.648145 2.5646431 13
-3.2816732 -10.116714 2.9012303 15
-3.4780014 -9.9838505 2.8969007 15
-2.8936102 -6.6564193 0.024826244 7
-3.11309 -2.1329997 0.16643809 8
-3.0723884 1.8337495 0.34479573 9
-2.9329813 2.0979204 0.48219162 9.5
-3.09268 4.1936507 0.48574314 8.5
-2.866286 4.5218372 0.52116823 8.5
-3.0892668 -6.4782743 0.71252084 10
-3.1093018 -6.3350849 0.74306667 10
-3.1555991 1.4890249 0.66131282 11
-3.0269206 1.7167363 0.62983501 11
-3.0538449 2.1890976 0.59417522 10.333333
-3.0512002 4.2571082 0.70562595 9.75
-2.918047 4.5722661 0.77947658 10.2
-2.8625741 4.9415193 0.8326205 10
-2.8908126 5.502203 0.99474543 11
-3.1528504 -2.4413669 1.2504041 15
-3.140609 5.1059041 1.1015677 11
-2.9709325 5.3715258 1.2292882 11.4
-2.7950346 5.6111493 1.4116665 12
-3.1437616 4.1512775 1.6093339 14
-3.0044067 4.66395 1.5019423 13.6
-2.8186777 4.8411961 1.5868109 14
-3.0049932 4.5893817 1.8952295 15
-2.8155615 4.8335938 1.9113243 15
-2.9358516 -12.268152 2.3337991 13
-2.7224028 -11.971362 2.4058955 13
-2.7235255 -8.880641 2.3585963 15
-3.0862441 -10.258067 2.9084041 15
-2.4051354 -11.675397 0.017488793 8
-2.644752 -7.4507246 -0.024052516 7
-2.7745893 4.6616321 0.50542808 8.5
-2.5257127 5.0081453 0.52437121 9
-2.4935284 -6.5571365 0.63514042 10
-2.7518742 2.2067719 0.58839327 10.666667
-2.715755 4.759851 0.76383495 10
-2.6251748 4.9975414 0.73148894 9.5
-2.5963042 5.3688169 0.85661173 10
-2.7051651 5.757524 0.97028565 10.5
-2.5767295 -6.3150396 1.0138137 12
-2.4325211 5.4612269 1.3891144 13
-2.6358593 5.8599658 1.1352556 11
-2.5413272 5.9993272 1.0538065 11
-2.6789925 5.0456557 1.621936 14
-2.5114295 5.2939491 1.6361039 13.8
-2.5918109 5.8401623 1.4520456 12
-2.6523883 4.9555588 1.9153162 15
-2.3778205 5.2786942 1.8733699 15
-2.367516 6.223002 2.2459919 15
-2.4871535 -11.122748 2.8009026 14
-2.1056373 -5.4333706 0.013318928 7.5
-2.2000077 -4.7116151 -0.029451028 7
-2.2802322 5.3616929 0.56113273 9
-2.0475562 5.7399507 0.59686095 9
-2.0361109 -4.3481412 0.70006627 11
-2.2986171 5.3209438 0.63724488 9
-2.0559082 5.7423048 0.82042241 9.666667
-2.1296413 -4.496119 0.91773289 12.666667
-1.9951553 -4.3407178 0.81499475 12
-2.124964 5.8691874 1.2270246 11.5
-2.2745309 5.984601 1.1891133 11
-2.1496723 5.7983518 1.5803385 13.4
-2.3032188 5.9818397 1.4323465 12
-2.2519448 5.3683848 1.9199654 15
-2.0296295 5.6424127 1.8489344 15
-2.1549709 6.5392075 2.2968376 15
-2.0607011 -10.929612 3.160037 15
-1.8096595 -7.1674538 0.28963533 9
-1.7249614 -4.5384564 0.14633413 8.333333
-1.7550174 -4.3692846 0.23036276 8.333333
-1.9027271 -3.7483108 0.1333607 8
-1.8476045 -3.4291101 0.19164558 8.25
-1.8376584 -7.2231708 0.49382588 9
-1.7459645 -7.1197686 0.57239693 10
-1.7994721 -4.4788432 0.55217564 10.5
-1.8999602 -4.3588195 0.51376736 10
-1.801869 5.9142809 0.79897237 9.5
-1.7989964 -4.5826497 0.87125784 12.5
-1.8903915 -4.3641315 0.80598193 12
-1.7936765 5.9227076 1.2146907 11.5
-1.7992659 5.9097042 1.5462464 13.333333
-1.674004 5.9672761 1.6320745 14
-1.6838772 5.9711218 1.8988736 15
-1.5530351 6.3945498 2.1316879 15
-1.6950159 6.5003843 2.2530088 15
-1.4934605 -4.6399183 0.1202655 8
-1.3510337 -6.1074858 0.51956224 10
-1.2054801 -5.0643649 0.69409859 11
-1.3849716 -4.4547076 0.66226429 11
-1.4407068 -4.1353693 0.64627218 12
-1.2244848 4.7005644 0.70151925 10.5
-1.3357079 4.8023996 0.56692863 9
-1.4552964 -4.7263937 0.7961567 12
-1.2031718 5.5566883 1.2920012 12.5
-1.3805459 5.6982617 1.2496113 12.25
-1.3762872 5.7183294 1.533392 13.6
-1.1944318 5.7742147 1.813084 15
-1.3054339 6.2251377 2.1426079 15
-1.4608289 -10.194558 2.7475665 15
-0.97078443 -3.7956879 -0.060188565 7
-1.0366462 -5.67799 0.26873478 9
-0.95687473 -3.841825 0.13586371 8.333333
-1.0708144 -5.1930895 0.49034411 10.5
-0.8716104 -4.3159533 0.72440803 12
-0.91200411 -3.9856825 0.51383853 11
-1.0605563 4.6491413 0.63261914 10
-0.87168449 4.8909349 0.59012157 10
-0.95695138 5.3655782 0.83879036 10.5
-0.94869369 -9.5274315 0.99975693 11
-0.91254628 -4.480155 0.82687169 13
-0.96479398 5.3904991 1.2454864 12.5
-0.7811892 -9.3008537 1.3069115 12
-0.97232902 5.4539652 1.5916041 14.2
-0.90193105 -9.3058443 1.7253634 13
-0.90894455 5.4489126 1.8177969 15
-0.72368938 -9.2470579 2.4895833 15
-0.43892652 -1.0157573 -0.1700388 3
-0.42699835 -0.65873653 -0.19299833 0.5
-0.55929202 -4.9141555 -0.097949862 7
-0.5715307 -2.8270581 0.041760087 8
-0.74167824 -2.6981511 0.217439 9.5
-0.67268485 -4.0324364 0.60601491 12
-0.73359644 -2.6702662 0.45374259 12
-0.59273881 5.1050696 0.7153216 10.2
-0.63732123 5.3336368 0.83666778 10.666667
-0.49899802 5.5872431 0.90575659 11
-0.56981677 5.1584773 1.2079797 12.666667
-0.48973307 5.4567652 1.1889493 12.25
-0.51530576 5.6039109 1.3353903 13
-0.7365126 -9.2391462 1.1515466 11
-0.53434378 -8.9243269 1.1867077 11.5
-0.57116872 5.137085 1.5673813 14.5
-0.56873512 5.2888269 1.5347002 14
-0.45364907 5.5988822 1.5286859 14
-0.66797429 -8.969368 1.6518645 13
-0.48796156 -8.6684408 1.5219847 13
-0.43818036 5.4552083 1.7737343 15
-0.67509955 -9.2453737 2.1555281 14
-0.48370969 -8.9424295 2.2555609 15
-0.50047404 -8.8180952 2.3813312 15
-0.18667698 -3.0875719 -0.11736041 7
-0.027099296 -2.2154541 -0.14263301 6
-0.18875955 -1.7976543 -0.1551955 5
-0.12902761 -1.4005274 -0.16799168 4.25
-0.23854889 -0.97394341 -0.18185042 2.375
-0.22328784 -0.66241032 -0.19503251 0.33333334
-0.040995959 1.0046844 -0.26346958 0
-0.056784101 1.5471567 -0.25550455 2
-0.12258477 1.7808192 -0.26140726 2
-0.23807992 2.1934001 -0.27530602 3
-0.25811228 2.7015905 -0.29463005 3
-0.089876495 3.1405945 -0.31307936 3
-0.22701281 -4.8447433 0.036943562 8
-0.30864695 -4.5175848 0.082878128 8
-0.34918812 -3.988816 0.14828897 8.5
-0.25112563 -3.1054757 0.087963052 8.5
-0.16538267 -5.1472106 0.47349581 10
-0.29343781 -4.58532 0.36523145 10
-0.3196418 -3.9711897 0.42685413 10.5
-0.20722894 5.0920091 0.75878936 10.333333
-0.20580712 5.3117657 0.87319535 11
-0.04361007 -3.125911 0.83665991 15
-0.091752805 5.0983424 1.1975666 13
-0.084218912 5.2290359 1.149976 12.333333
-0.32763904 -8.6182718 1.1496702 11.5
-0.083064206 5.1207867 1.4985533 14.333333
-0.21183686 5.3823323 1.5257254 14.166667
-0.28184506 -8.427969 1.4668657 13
0.32261124 3.0653708 -0.34153464 3
0.31547219 3.5525734 -0.37097591 3
0.12731519 -5.4045658 -0.18655004 7
0.0030247343 -4.8226471 -0.12623002 7
0.19106032 -3.239023 -0.10312086 7
0.21040624 -2.9060676 -0.11444562 7
0.23277147 -2.5202191 -0.12731655 6
0.25508556 -2.1355572 -0.14025711 6
0.13259399 -1.8452713 -0.15339327 5.4000001
0.20908864 -1.4165148 -0.17095625 4.5
0.19883612 -1.0033948 -0.2000127 2.3333333
0.25825036 -0.65283906 -0.21561646 0.2
0.19596688 1.0115515 -0.25850153 0
0.23450184 1.4425186 -0.26805958 1.3333334
0.2286301 1.7979116 -0.27936628 2
0.14334287 2.2504613 -0.29050079 3
0.16536799 2.5203252 -0.2977123 3
0.10261011 -3.350734 0.090178616 8.6000004
0.066928029 -4.9120169 0.48192456 10.5
0.067732885 -4.7479572 0.65379763 12
0.39545032 -3.4768732 0.6579771 13
0.19487359 4.9972682 0.76880544 10.6
0.31198546 -6.9663954 0.85914397 11.5
0.090480745 -4.69276 0.86588043 13
0.36045167 -3.4682968 0.74635994 14
0.24414437 4.970758 1.1405898 13
0.2361802 -6.9239411 1.2172142 13
0.25208819 5.0121436 1.5517172 15
0.27193543 -6.9202232 1.4869781 14
0.30710068 -7.0389352 1.8765144 15
0.75436157 -6.4405942 -0.21066003 7
0.60507441 -5.2371101 -0.19940051 7
0.63232368 -3.6025963 -0.1357298 7
0.58757031 -2.9802248 -0.1442876 6.5
0.5572561 -2.5513623 -0.1528091 6
0.61765671 -2.1645327 -0.16581164 6
0.62054032 -1.7831225 -0.17212988 5.25
0.57479227 -1.3661336 -0.19251508 4.5
0.57029718 -0.98049486 -0.21276723 2.7777777
0.57315093 -0.62525231 -0.22372083 1
0.56270236 -0.37151816 -0.23697878 0
0.77180541 0.23727097 -0.25263762 0
0.66364694 0.64846951 -0.26851931 0
0.61856699 0.9756586 -0.27597502 0.40000001
0.62197423 1.4096907 -0.29043674 1.5
0.63347888 1.8089594 -0.31320894 2
0.62281847 2.2181821 -0.32988268 2.5
0.66183782 2.6498864 -0.31065887 3.5
0.65218091 -6.5648613 0.076121338 8.166667
0.54347974 2.3633101 0.13779201 8
0.61587459 -6.6408796 0.47076175 9.666667
0.47454864 -3.4986215 0.65918607 13
0.5822286 4.6711116 0.69976509 10.4
0.57751548 4.8714948 0.81912792 11
0.67819476 -6.6365252 0.82716078 11.5
0.57483691 -3.6598527 0.89726079 14.5
0.44754377 -3.4796345 0.77660728 14
0.61919409 4.6726847 1.0857588 12.857142
0.72202963 4.8063841 1.1130937 13
0.56135356 -6.607965 1.2650031 13.5
0.68371671 4.6836853 1.4533488 15
0.62301916 4.8503423 1.5045317 15
0.73211533 -6.6312981 1.7464482 15
0.86179894 4.3111486 -0.48554686 3
0.86908382 4.5608654 -0.39810696 4
1.1730314 -3.9223449 -0.1719255 7
1.0684435 -3.4080477 -0.17528827 7
0.98886925 -3.0163808 -0.17823212 6
0.89943331 -2.5880425 -0.16942282 6
0.98124146 -2.2491999 -0.17286783 6
0.92463231 -1.6311134 -0.18307874 5
1.0032417 -1.4695739 -0.18676022 5.25
0.85339117 -0.98373711 -0.21088591 3.6666667
0.96656185 0.27743688 -0.26951846 0.25
0.992396 0.59862608 -0.27914286 0.75
0.98178446 0.97873181 -0.29097021 1.2857143
1.0370547 1.4205371 -0.29685953 2.2
0.97870398 1.7834246 -0.30206499 3
0.98090506 2.1596067 -0.31582183 3
0.93885285 2.4774077 -0.20288289 4.5
0.9672358 -6.5476069 0.032421105 8
1.1433282 4.5042543 0.4628686 9
0.95186925 -6.5797882 0.43042302 9.75
1.0255022 -3.9192376 0.36495492 10.5
1.0429106 4.579308 0.71944827 11
0.98053259 -6.6218524 0.82266438 11.285714
1.0369157 4.5921674 1.0660261 13
0.96992368 -6.5264583 1.1151822 13
1.0721951 4.5915995 1.4155412 15
1.0829544 -6.5451865 1.6980212 15
0.9708454 -6.7191978 1.8111111 15
1.5364035 3.0969486 -0.3838388 4
1.2849139 -4.9786353 -0.21205914 7
1.3754013 -2.9723761 -0.16503097 7
1.2683374 -2.6543412 -0.16840635 6
1.2638955 -1.8451114 -0.1784032 6
1.3030331 0.3445982 -0.28866443 1.6666666
1.3476166 0.60059017 -0.2858229 2
1.384599 0.94000071 -0.2907711 2.5
1.4157587 1.3969595 -0.33338538 2.5
1.3187182 1.7969304 -0.323466 3
1.3417442 2.1590364 -0.33797336 3
1.3467065 2.5909984 -0.35225439 3.5
1.3909621 4.5944524 -0.064512074 6
1.4274616 -5.8646564 0.012842626 8.333333
1.3236121 -4.8610187 0.10141388 8.5
1.4615294 -4.5121083 0.18921989 9
1.3963525 4.3215728 0.42744607 9
1.3063759 4.5807614 0.31857514 8.333333
1.4142907 -5.8749294 0.57259387 11
1.3323742 -4.121861 0.41148931 11
1.4398556 4.2996378 0.65805542 10.857142
1.2646496 4.4176016 0.68070209 11
1.5112653 -5.7849622 0.86354446 12
1.4269375 -4.1155443 0.96674567 14
1.4475188 4.3066549 1.0173848 13
1.2929556 4.4195247 1.051846 13
1.4720436 -5.7942638 1.2859876 14
1.461259 -4.1663742 1.091655 15
1.5515571 4.2606835 1.3280262 15
1.3302786 4.4216862 1.3551722 15
1.7379367 3.6318936 -0.42210352 4
1.9097039 4.1199045 -0.39601266 4
1.7582448 -4.1014085 -0.16692357 7
1.7275869 0.63850361 -0.30106843 3
1.7193012 1.0372728 -0.31860986 3
1.7805614 1.3912742 -0.32957 3
1.7966939 1.7918032 -0.36417213 3
1.7207168 2.2132268 -0.38257542 3
1.7415274 2.6022484 -0.38369516 4
1.8968233 4.2134986 -0.15978231 5.5
1.8833084 -4.5841403 -0.034996368 7.5
1.7084441 -4.3650541 0.11157469 8.5
1.9008543 -0.86852646 0.048217565 9
1.949814 -0.62030876 0.1574226 10.5
1.8398093 -0.12645824 0.17439575 10.75
1.9425074 0.13693781 0.20236675 10.7
1.9521018 3.9364519 0.34672251 9
1.8216399 4.186892 0.3152869 8.6000004
1.9075243 -4.8265147 0.31506085 10
1.9822044 -0.66216421 0.35691553 13
1.879084 -0.17251314 0.41669726 14.285714
1.9645188 0.1608101 0.43686599 14
1.9473799 3.9515605 0.62774205 11
1.775197 4.0652895 0.64435685 11
2.0133951 -3.8254015 0.88656139 14
1.9674603 3.9497514 1.0288881 13.5
1.8297585 4.0516739 1.0803399 13.8
1.7505507 -4.3934236 1.1504176 15
2.0250676 -3.7638454 1.0821264 15
2.0156429 3.9294548 1.3105835 15
1.7860914 4.1024399 1.2732749 15
1.9964423 2.3170879 -0.41997948 3
2.2310822 2.6517568 -0.4561128 3
1.9915421 3.0744495 -0.42969343 4
2.2097673 3.4919095 -0.45605448 4
2.3557155 3.7952535 -0.41085505 4
2.2076867 -4.5180259 -0.21335819 7
2.0160539 0.61333627 -0.31956562 3
2.1822054 1.0265648 -0.3550759 3.3333333
2.0510228 1.4683888 -0.3457104 4
2.0552909 1.8738828 -0.36568195 4
2.2464802 2.0874143 -0.38494089 4
2.3454623 3.8686399 -0.16766991 5.5
2.2260034 -4.4909716 0.092909053 8.666667
2.2844214 -4.3853602 0.037464079 8.333333
2.1612124 -0.55369711 0.13346653 10
2.0770996 -0.35004589 0.1412466 10
2.0618858 0.31506056 0.18956085 10.4
2.2442286 0.57771838 0.19268601 10
2.4003685 0.8155517 0.30251318 11
2.2475514 3.8167999 0.3061972 8.875
2.1924481 -4.5134768 0.37144542 10.5
2.3212399 -4.3879471 0.37991577 10.5
2.1471379 -0.53904909 0.42316675 13.625
2.0955215 -0.34404111 0.44177675 14
2.0625465 0.30595908 0.47858512 14.25
2.2507646 0.57361084 0.47945422 13.538462
2.4117868 0.81418628 0.56277072 14
2.194931 3.7751276 0.59230942 10.9
2.2240834 -4.5146728 0.82318091 12.8
2.319927 -4.3903642 0.80121166 13
2.1114221 -3.7311347 0.86754233 14
2.235456 3.7710915 1.0267936 13.375
2.2021129 -4.5387459 1.2154574 15
2.2732058 -4.4137731 1.145702 14.5
2.2550676 3.7672677 1.3311728 15
2.5378344 3.0894229 -0.50284159 4
2.3967354 -4.4057713 -0.31579918 6
2.5635929 -4.1576915 -0.2652407 6.5999999
2.7181985 -3.930176 -0.25721237 6.5
2.6991651 0.87659717 -0.2417962 5
2.3881204 1.3754152 -0.3702884 4
2.4197779 1.7921807 -0.3776055 4
2.6088102 2.2118542 -0.41068316 4
2.7803204 3.533241 -0.19573472 5.5
2.5445416 -4.1913457 0.062920049 8.4285717
2.7427385 -3.9015439 0.0798226 8.5
2.4874854 -0.62740934 0.021076629 8.5
2.5696483 1.0062225 0.15754412 9.2666664
2.7155304 1.2693036 0.1797692 9.3999996
2.6908548 3.500319 0.24221639 8.3999996
2.4175465 3.6168323 0.37641266 9
2.580708 -4.158742 0.41047066 10.714286
2.7397869 -3.9288507 0.3766222 10.5
2.5443206 1.0038049 0.54742223 13.444445
2.7344539 1.2940749 0.49592441 12.5
2.6604855 3.4619508 0.59704733 10.9
2.4541111 3.6010559 0.58190215 11
2.5909741 -4.1713376 0.85529077 13.285714
2.7796319 -3.888201 0.88312739 13.5
2.5854051 1.012881 0.7413156 15
2.7426074 1.2737032 0.77743828 15
2.6441882 3.4918852 1.0150223 13.5
2.5013824 3.5962758 0.98324293 13
2.5955851 -4.1577621 1.1768049 14.75
2.7517304 -3.9244063 1.1159667 14.5
2.6448328 3.5063965 1.2750024 15
2.4711444 3.6225016 1.2984712 15
3.1379797 3.0842781 -0.46918947 4
2.8002882 3.4929769 -0.44054767 4
2.8479183 -3.7386689 -0.26490724 7
3.0842175 -3.3770845 -0.24410589 6.75
3.1031504 1.4251232 -0.26624244 5.1999998
2.8975172 1.724007 -0.41457245 4
3.1842039 3.2208524 -0.080548845 6.5
2.9012852 -3.6601303 -0.031689472 8
3.0729747 -3.4004641 0.021658026 8.333333
2.9298563 1.4959931 0.10888109 8.6000004
3.0763152 1.8025771 0.15492524 9
3.1286485 3.126241 0.20690499 8.5
3.0186393 3.2361922 0.19117309 8.25
2.8932824 -3.7012739 0.37161306 10.5
3.0690024 -3.435746 0.43686825 11
2.8635271 1.4736867 0.53734577 12.5
3.0443363 1.7490704 0.52771384 12
3.1159351 3.1508632 0.58499449 11
2.9690099 3.2545147 0.60316068 11.166667
2.9101021 -3.7022367 0.86116457 13.333333
3.0747745 -3.455374 0.85135204 13.428572
2.8964987 1.4887466 0.86230808 15
3.072108 1.769111 0.85395575 14.285714
3.176579 3.1270299 0.97561556 13.333333
2.9724858 3.2718294 1.0352367 13.666667
2.9117465 -3.7017012 1.1314697 15
3.0677645 -3.4671922 1.0888332 15
3.1606338 3.1446862 1.2065427 15
3.0101736 3.2531245 1.2264174 15
3.462219 2.7066031 -0.47315806 4
3.3586657 -2.959209 -0.24804822 6.5
3.5095613 -2.7368526 -0.24323544 6.5
3.3900766 2.9987152 -0.39869705 5
3.2083893 -3.2150183 0.14440794 9
3.3481486 -2.9780359 -0.0020104919 8.1111107
3.5490825 -2.6825705 0.006347294 8.5
3.378916 2.2394168 0.13795958 8.3999996
3.5703862 2.5120816 0.17566755 8.5
3.3918309 2.9561815 0.14514841 8.2857141
3.353996 -3.0046651 0.40088928 10.888889
3.5771463 -2.664639 0.39681149 11
3.3533659 2.1989105 0.5150857 11
3.5707262 2.5084896 0.52141523 10.5
3.4005837 2.9584038 0.57123417 11
3.3876772 -2.9864068 0.78651518 13.142858
3.5578101 -2.7256205 0.76006442 13
3.3867888 2.2061069 0.92369348 13.666667
3.577297 2.488292 0.89790595 13
3.4244361 2.9622135 0.98677188 13.333333
3.403543 -2.9699345 1.078791 15
3.5803258 -2.7133727 1.0925606 15
3.5002398 2.3823385 1.1783916 15
3.4701281 2.9415202 1.2602384 14.75
3.7104027 2.280513 -0.48328847 4
3.6558046 -2.5095899 -0.26459697 6.5
3.794271 -2.1176667 -0.25752333 6.3333335
3.8288863 2.382329 -0.32507303 5
3.8567021 2.4177561 -0.19414219 6
3.6059177 2.8716784 -0.24932168 5.5
3.6537738 -2.5159209 -0.048128378 8
3.8323717 -2.2306969 -0.011505428 8.1000004
3.9231362 -1.9114511 -0.038437843 8
3.7092195 2.5818989 0.14351943 8
3.6191168 2.7974615 0.33163613 9
3.6938641 -2.4906971 0.40121305 11
3.8585296 -2.2358692 0.41725752 11
3.9487112 -1.9214505 0.41870859 11
3.6452649 2.6360669 0.57661349 11
3.6334147 2.799854 0.5518983 10.5
3.6901212 -2.5393577 0.94113177 14.5
3.889585 -2.2433984 0.84999633 13.833333
3.9640684 -1.9300785 0.86727732 14
3.696893 2.6768136 1.0960401 14
3.6446173 2.8120873 0.87176371 12.5
3.7048554 -2.5310428 1.0646722 15
3.8925707 -2.2473791 1.058798 15
4.0086036 -1.8928486 1.1487876 15
3.6656644 2.6208434 1.2497529 15
3.7136557 2.7807965 1.2217535 14.5
4.1351643 -1.6858203 0.029288804 8.5
4.1412477 -1.6982757 0.43303698 11
4.3209453 -1.5367377 0.53782588 11.5
4.2033281 -1.6917458 0.80047667 13.2
4.3319511 -1.5688682 0.80102366 13
4.1929374 -1.6905297 1.0560268 15
4.4017105 -1.4748068 1.0781119 14.5
4.5209565 -1.2026792 -0.24182564 7
4.4982114 -1.3323526 1.0711861 14.5
4.58639 -1.2005358 1.1716907 15
