# .PCD v0.7 - Point Cloud Data file format
VERSION 0.7
FIELDS x y z intensity
SIZE 4 4 4 4
TYPE F F F F
COUNT 1 1 1 1
WIDTH 142
HEIGHT 1
VIEWPOINT 0 0 0 1 0 0 0
POINTS 142
DATA ascii
-6.0062466 1.9185011 1.9111979 15
-5.9712687 2.1745834 1.6223667 14
-5.6861601 2.4219558 1.5127358 13
-5.2511292 2.7925377 1.340528 13
-5.192884 -0.46182933 1.5539135 15
-5.3057122 2.5968637 1.6530361 14
-4.816442 -1.0238377 1.3389165 14
-4.8888612 3.1138251 1.7038805 15
-4.6247816 -1.1706243 0.44666353 9
-4.7145867 -1.1444348 0.57490587 10
-4.7426443 -1.1108719 0.80401355 11
-4.7609053 -1.074257 1.4269993 15
-4.7077088 3.3917763 1.482106 14
-4.2096686 -1.4645765 0.62063736 11
-4.252708 -1.3440065 1.2574633 15
-4.0548358 -1.6406261 0.3760576 9
-4.1881466 -1.4943087 0.5344758 10
-4.1791968 -1.543474 0.76281917 12
-4.071341 -1.649245 1.0423303 13
-4.1043868 -1.5182133 1.2151091 14
-4.0057621 -1.7658885 1.3059564 15
-3.8914804 -1.8340124 0.68309164 11
-3.7400358 1.5374836 0.59603155 10.5
-3.5458374 1.6627361 0.75198787 12
-3.3966331 3.8460526 0.26248774 8
-3.2018993 2.0417795 0.4593659 10
-3.3555484 3.8580675 0.44104788 9
-3.3304205 3.8727825 0.62226886 10
-3.3686957 3.7982538 1.1275662 13
-3.3641272 3.7758946 1.5079926 15
-3.2477722 3.9005628 1.4128861 14
-3.0023718 4.1631198 0.56718343 10
-3.1692779 3.9952919 0.86219722 11
-2.9816399 4.1740642 0.49362129 9
-2.92506 4.2122393 0.93283921 12
-2.8424482 4.2656717 1.4897496 15
-2.8650405 4.6799378 1.5756314 14
-2.6898925 4.5603223 0.36437058 8
-2.587209 4.6033058 0.98310268 12
-2.6875632 4.4709692 1.1939727 13
-2.4970589 2.720413 0.68260962 12
-2.1605887 5.030911 0.61388791 10
-2.0002024 5.3478298 1.6523396 14.5
-1.6244437 5.5071459 0.68035799 10
-1.6964036 6.3350215 1.4449638 13
-1.4881473 6.4377832 1.2272065 12
-1.5298858 5.945425 1.6435603 14
-1.1303428 6.1691542 1.8476871 15
-0.59029633 4.8518949 0.6734845 10
-0.66584879 6.114933 1.176248 12
-0.41421127 5.6271439 1.2641623 13
-0.21486105 4.9063454 0.63805175 10
-0.12688896 0.9621194 -0.22622713 0
-0.095984481 -6.0399542 1.2750405 13
0.016406842 1.0037307 -0.23609795 0
0.11073545 5.1724749 0.96225387 12
0.045087676 -4.2068644 1.1802301 15
0.13082647 5.216579 1.6633104 15
0.41582003 -4.6657019 1.1569728 14
0.53675848 -0.45583677 -0.22805461 0
0.55995238 -4.6275249 0.062538221 8
0.65862924 -0.66777474 -0.23974155 0.5
0.64459741 -4.852797 -0.018953318 7
0.72608602 4.7724104 0.79942322 11
0.73836422 4.8393731 0.98997563 12
0.77914673 4.7820339 1.3821872 15
0.79813099 -4.9672179 1.3425987 15
0.96483612 4.4673786 0.95374525 13
1.0693643 -4.8519788 0.07979615 8
1.0620526 4.373415 0.55880135 10
1.1041669 -4.8342605 0.64782506 11
1.1359519 4.3239698 0.75469577 11.5
1.1981714 4.324883 1.3754824 15
1.1937982 -4.7725072 1.3218143 15
1.2921062 -0.089527532 -0.27995399 1
1.3505565 -4.6820626 -0.083679236 7
1.375597 -0.49887127 0.26895759 13
1.309399 -4.7794733 0.48618656 10
1.384666 -0.52225369 0.36925063 15
1.4142743 4.5110645 1.0336627 13
1.4015478 -4.743957 1.1898791 14
1.5777259 -1.2203615 0.074355379 9
1.5004594 -0.9680441 0.12002658 9.666667
1.5234187 -0.66036439 0.12050903 9.5
1.4121321 -0.55197287 0.16388905 11
1.5166048 -1.0856893 0.24306698 11
1.5597817 -0.9611448 0.2541768 12
1.5877672 -0.72523117 0.25543052 12
1.4674577 -0.4199205 0.35748452 14
1.5087867 4.3700151 0.53951854 10
1.5466321 4.3516645 0.70392036 11
1.7291579 -0.97279227 -0.015468805 7
1.7675828 -0.11465669 0.13332394 10
1.6282345 -0.27118507 0.34461242 14
1.7986107 4.0451703 0.40766066 9
1.6914886 -0.90604639 0.38150573 13.5
1.7018356 -4.2557898 0.62920338 12
1.9537778 0.064822093 0.086840369 9
1.8522923 -0.997908 0.22293757 11
1.9173584 0.033336114 0.46825024 14.5
1.8288391 4.0526624 0.76848072 12
1.8806266 -4.209353 0.78986907 13
1.866941 3.9806879 0.8892653 13
1.8794349 4.0268068 1.0921248 14
1.8320421 4.0440879 1.3597293 15
2.1572216 -3.80462 0.13046949 9
2.0513139 0.16473988 0.23396342 11
2.2027652 0.29831439 0.31810781 12
2.0793211 -3.9158161 0.41771132 10
2.0486789 0.16653351 0.42905015 13
2.1713164 0.2593731 0.52380854 14.5
2.0901482 -3.8879666 0.5896486 11
2.2973969 0.37569246 0.29669449 11
2.3031378 0.41379291 0.22404882 10
2.4006264 3.4620078 0.977198 14
2.5349715 0.63918942 0.098730527 8.5
2.5579989 0.66620451 0.3901583 12
2.4812531 3.3589959 0.66407681 12
2.6971254 0.73301107 0.51289219 13
2.9064834 -2.9195805 -0.14186729 7
2.8121395 0.89420629 0.28247118 10
2.9192932 2.8828993 0.19422482 8
2.8620911 -3.162076 0.47094202 11
2.9751096 1.0347835 0.39663696 11
2.9007742 -3.2707748 0.75562578 13
2.9214065 2.9337287 1.128647 15
3.0587873 -2.7705252 -0.0081988983 8
3.0079279 1.1014361 0.038734343 8
3.0504513 -2.9543939 0.23143214 9.5
3.0794358 -2.7983255 0.72447139 13
3.2121747 -2.6086545 -0.043384194 7
3.3193278 -2.5238826 0.081330955 8
3.2087357 1.297081 0.25964203 9
3.2106318 1.2134895 0.60051554 12
3.4397583 2.3648207 0.79116219 13
3.5042744 2.3065298 1.1676948 15
3.772737 1.787939 0.43359339 10
3.7961619 1.8152381 0.5741604 11
3.7058814 2.1519871 1.083688 14
3.838119 1.9204714 0.050761443 8
3.8464844 1.9264935 0.30376282 9
3.8728244 1.908131 0.72876519 12
