# .PCD v0.7 - Point Cloud Data file format
VERSION 0.7
FIELDS x y z intensity
SIZE 4 4 4 4
TYPE F F F F
COUNT 1 1 1 1
WIDTH 20
HEIGHT 1
VIEWPOINT 0 0 0 1 0 0 0
POINTS 20
DATA ascii
-0.18951996 -0.93587017 -0.16472687 123
-0.06424664 -0.99570471 -0.1602878 126
-0.19609666 -0.33794293 -0.17943344 147
-0.18626781 -0.330504 -0.16897932 145.66667
-0.14173199 -0.27010423 -0.16129792 140.60001
0.086706147 -0.23424831 -0.1789071 165
0.11540554 -0.20629153 -0.14991127 148
-0.30823737 -0.10718305 -0.13418487 166.28572
0.092398554 -0.16712937 -0.1244635 138.23077
0.15674248 -0.16535363 -0.14616652 131.60869
0.24528277 -0.15124391 -0.18317871 123.33334
-0.28339192 -0.1046976 -0.1482003 113
-0.39468983 0.38985771 -0.2015508 131
-0.05895431 -0.2433933 -0.082608946 137
-0.31015363 -0.10472148 -0.096047416 154.66667
-0.044838417 -0.16451447 -0.019901933 131.5
0.067218579 -0.16632555 -0.046130612 130.30769
-0.020780893 0.17900524 -0.034977034 129
-0.096353658 0.22181809 -0.070256747 134
0.071389601 -0.15020604 0.026978092 118
