# .PCD v0.7 - Point Cloud Data file format
VERSION 0.7
FIELDS x y z intensity
SIZE 4 4 4 4
TYPE F F F F
COUNT 1 1 1 1
WIDTH 562
HEIGHT 1
VIEWPOINT 0 0 0 1 0 0 0
POINTS 562
DATA ascii
-15.762252 -4.6201015 3.0140343 13
-15.077799 -5.7023687 0.32616949 8
-14.963891 -4.5659981 2.4644942 12
-15.181776 -3.5679381 2.3419132 12
-15.219906 -6.6491351 3.4045413 13
-14.996938 -5.5893111 3.4582658 13
-14.647167 -4.0859928 2.4228349 12
-14.672668 -3.7114799 2.4314313 12
-14.807075 -7.1475163 3.4741561 13
-14.44432 -3.2862725 2.406167 12
-13.655942 -4.4668622 1.644828 11
-13.728356 -4.1615605 1.6515387 11
-13.690124 -4.5420666 2.2801392 12
-13.706443 -4.363348 2.6630638 13
-13.212795 -6.5866647 0.12624831 7
-13.510593 -4.8015609 1.4757984 10
-13.590255 -4.4840579 1.4923892 10
-13.467727 -5.3083768 2.1029916 11.5
-13.593275 -4.4651346 2.034929 11
-13.392741 -5.6809516 2.6377754 12
-13.064385 -6.6854653 3.1177926 13
-11.358629 -6.1179018 2.3377407 12
-11.316624 -2.4787068 2.6809268 14
-11.333222 -1.708747 2.8271656 14.5
-11.42245 -1.3406773 2.8447413 15
-11.280351 -1.8912181 3.1936135 15
-11.348347 -1.6462927 3.2265031 15
-11.442473 -1.2672255 3.0099978 15
-10.931015 -5.9844966 2.6050351 13
-10.922898 -2.1258628 2.6023796 14
-10.915913 -3.5625808 2.8157666 14
-11.041852 -3.3019965 2.8034086 14
-11.102138 -2.9318259 2.8027799 14
-11.200711 -2.4440098 2.810061 14
-11.231322 -2.1325691 2.8808527 14.666667
-11.052052 -2.8723745 3.0900002 15
-11.159378 -2.507936 3.1324356 15
-11.243626 -2.1401575 3.1716866 15
-10.668847 -6.0075941 1.8926836 12
-10.467085 -5.9520149 2.1952522 12
-10.700115 -5.9293923 2.9022379 14
-10.791574 -5.5378084 2.8243589 14
-10.781818 -4.0676394 2.7878194 14
-10.838241 -3.8136475 2.7966485 14
-10.808398 -4.1071739 3.1883996 15
-10.04074 -5.9798274 0.64326745 9
-10.095671 -6.1681714 1.3549547 10.333333
-10.241914 -5.9070468 2.4814343 13
-10.120196 -6.0690403 2.8753293 14
-9.650876 -5.7864375 2.0659933 12
-10.055847 -5.8554645 2.7712486 14
-9.4519405 -4.0278373 2.3070092 14
-9.6273479 -3.8820152 2.525789 14
-8.5243225 1.0687221 2.2551095 15
-8.3377819 -5.537919 1.8611916 12
-8.1985321 -5.4955249 2.247488 13.5
-8.2785349 -3.7671196 2.5044053 15
-7.7939973 -3.3433425 0.30496222 8
-7.9357409 -5.5103192 0.5702197 9
-7.6538253 -2.3894241 0.60281628 10
-7.9923186 -1.9099716 0.35372275 9
-7.6387129 -5.4705701 1.1136448 10
-7.7646031 -5.4186258 1.7734463 12
-7.6896715 -5.4013591 2.1520901 13.5
-7.2870789 -5.6200166 2.0139637 13
-7.2547007 -5.3154931 1.6968904 12
-7.5321751 -5.6336322 2.3492503 14
-7.3417349 1.0867827 1.9938053 15
-7.1666508 -5.3724561 1.0719004 10
-7.2325664 -5.3198366 1.9419764 13
-7.001503 -5.5680842 2.1586328 14
-7.208447 -5.3010917 2.1870315 14
-6.5717611 -3.0161359 -0.076116629 7
-6.4121633 -4.6410198 0.24464788 8
-6.6085987 -2.9732571 0.082169041 8
-6.6660595 6.2850132 1.6412368 13
-6.3391948 -4.6663332 -0.0026491976 7
-6.3339005 -4.7411737 0.11268089 7
-6.0699205 -3.256691 0.069363527 7
-6.0872073 -2.9803073 0.23919319 8.1999998
-6.1939287 5.1218796 -0.15707697 8
-6.2886777 -4.5860772 0.51618218 9
-6.3630066 -3.2023485 0.52662086 9
-6.1655173 -2.1265419 0.72461063 11
-6.2238698 5.0239625 0.23954901 9
-6.0611653 -4.7500758 0.96162504 10
-6.0567217 3.9119632 0.62542617 11
-6.1318474 4.2741442 0.65991086 11
-6.2296171 4.6780376 0.69884467 11
-6.1340089 -4.7252736 1.2871765 12
-6.0713844 3.9256346 1.2365093 13
-6.0457382 4.3470831 1.0712442 12.333333
-6.1146445 4.6859865 1.1183203 12.5
-6.1814337 5.0607743 1.1342832 12.4
-6.1061583 -4.9331937 1.7593067 13
-6.0891643 -4.6785073 1.9185072 14
-6.0600858 3.8584256 1.4349294 14
-6.1354647 4.2189817 1.5008909 14
-6.2252731 4.5955315 1.4589347 13.5
-6.1942015 5.0563006 1.6502441 14
-6.1350222 4.1707864 1.9219712 15
-6.1732607 4.7199836 1.8931627 15
-6.1537695 5.0843344 2.0490379 15
-5.9901104 -4.4202156 0.28222165 8
-5.956161 -3.212882 0.32969734 9
-5.9293561 -3.0198572 0.29025373 8
-5.7487803 -2.0193572 0.3199406 9
-5.7302699 -1.7469999 0.019087428 7.3333335
-5.7286773 -1.498438 0.069837525 7.75
-5.739614 2.7020764 0.079228915 8
-5.7957702 2.9884546 0.09679278 9
-5.7834258 3.4284525 0.016406879 8.25
-5.7595692 3.6297894 -0.077620141 8
-5.6551108 4.1804953 -0.029615058 8.5
-5.7104344 4.406065 -0.14910704 8
-5.6772203 -4.3449383 0.49674678 9
-5.6592689 -1.773508 0.52129155 10
-5.7471919 -1.3317215 0.46124223 9.5
-5.6214123 2.3443859 0.20876001 9
-5.7389917 2.6613827 0.34134087 9.75
-5.799778 2.9595661 0.37960476 9.75
-5.7998686 3.3026888 0.32031366 9.5
-5.7935214 3.669265 0.33590925 9.666667
-5.653698 4.2475157 0.20136411 9
-5.853992 -4.9086094 0.92021 10
-5.8202734 -1.6183878 0.82751662 11
-5.8703494 -1.4046851 0.9345122 12
-5.6758637 2.3625093 0.83130848 12
-5.7190633 2.6778986 0.79777902 11.5
-5.8044691 3.0606496 0.74929446 11.5
-5.90798 3.5173252 0.76180208 11.666667
-5.9740214 3.8796678 0.70249778 11
-5.9102082 5.1797066 0.48189443 10
-5.6687632 2.252254 1.1801107 13.5
-5.7510991 2.659652 1.1279871 13.5
-5.818048 3.1153691 1.1000925 13
-5.8827462 3.5301735 1.0995743 13
-5.9491673 3.8567212 1.0503193 12.333333
-5.9867315 -4.8926086 1.9502466 14
-5.7017345 2.7646415 1.542834 15
-5.7773547 2.9892907 1.5699434 14.666667
-5.9195671 3.4612381 1.4693477 14.333333
-5.8483825 5.1269493 1.6388198 14
-5.9910445 3.5188477 1.7786007 15
-5.9208803 3.9066825 1.7810619 15
-5.9915967 4.2675719 1.8612156 15
-6.0421896 4.5265417 1.9187812 15
-5.253983 -4.8810058 0.0083783073 7
-5.4179454 -4.4794407 0.012912126 7
-5.2683048 -4.9685078 0.27475423 8
-5.3868513 -4.4816895 0.19715741 8
-5.5385532 -4.3465362 0.26203603 8
-5.5784354 -2.6145663 0.24317013 8
-5.506454 -1.7257985 0.23733689 8.5
-5.5816884 2.6315191 -0.12213747 8
-5.2877245 2.8844872 -0.083433822 8
-5.5478039 3.8252776 -0.09235961 8
-5.2674546 5.2459168 -0.16972874 8
-5.3690734 -4.980689 0.63971007 9.5
-5.5184321 -4.5393496 0.4928337 9
-5.2735543 -3.3843307 0.73521215 10
-5.400341 -1.8198533 0.508053 10
-5.5813851 -1.4129215 0.36958969 9
-5.5487275 3.7948301 0.21825041 9.333333
-5.6064568 4.0920706 0.3220045 10
-5.36376 -5.0166082 0.91989911 10
-5.3598728 -4.9292526 1.5685309 12.666667
-5.4992938 -4.6414862 1.5126173 12.5
-5.2964005 1.0804074 1.3475757 15
-5.4056807 1.4981694 1.3341929 15
-5.5472193 1.8860064 1.3426329 14.666667
-5.4158411 5.2215471 1.0969638 12.5
-5.2541599 5.3067503 1.1094539 12.5
-5.3469753 -4.7686853 1.7972279 14
-5.5004144 -4.6115165 1.808697 14
-5.3204379 1.2031945 1.4596434 15
-5.5073547 1.8496407 1.4750531 15
-5.5965915 2.2576585 1.4708714 15
-5.6396194 2.5040843 1.5887998 15
-5.5216341 5.1993279 1.6300957 14
-5.272016 5.174407 1.8166687 15
-5.0487804 -5.018785 0.0067932634 7
-5.090508 -5.0494537 0.20448901 7.5
-4.8260865 -3.7214534 0.064293958 7
-5.0067697 2.125247 0.046153065 8.3999996
-5.1675758 2.6618507 -0.081093088 8
-4.9497361 5.2580395 -0.19625007 7.5
-4.9280739 -5.0216665 0.64633054 9.5
-5.1548347 -2.8256741 0.73052073 11
-5.0774298 -2.5602424 0.72694385 11
-5.0711188 -1.3840685 0.50967348 10
-5.0611115 -4.9433732 0.89410782 10
-5.0773473 -2.4287698 0.90706468 12
-5.0338793 -2.2303846 0.84002715 11.333333
-4.9168596 5.2760453 0.5387916 10.5
-5.0537558 -4.8886151 1.48255 12.5
-5.0225635 5.2998552 1.1015346 12.666667
-5.103303 -5.0359588 1.7493577 13.75
-5.1306462 5.1932135 1.4999126 14.25
-4.8558607 5.2686048 1.6036236 15
-4.883553 5.2541838 1.7994989 15
-4.7620616 -5.0821738 -0.017744139 7
-4.4777646 -4.8591003 0.21647505 8
-4.7257428 -3.8810027 0.13968799 8
-4.5888381 -3.2148976 0.29095864 8
-4.5511942 -3.0446346 0.26610002 8.333333
-4.7941332 -2.7132099 0.28480104 9
-4.5353374 -1.8075696 0.058996815 8
-4.6201296 5.2396116 -0.21700945 7
-4.5957355 -4.9125543 0.66054958 9.333333
-4.6694427 -3.3776617 0.63327646 10
-4.5253816 -2.9993916 0.72470254 10.666667
-4.709518 -2.6498952 0.4667699 10
-4.4411664 -2.1158128 0.6051352 11
-4.6717381 -1.9723243 0.621647 11
-4.4852219 3.1817584 0.3129153 10
-4.4276958 -4.7816525 1.1295424 12
-4.521996 -2.9859262 1.0002718 12
-4.5655894 5.3375473 0.6271106 11
-4.7905917 -5.0361342 1.6295931 13
-4.624083 5.3822284 1.0836499 12.666667
-4.7459483 -5.0377703 1.6867353 14
-4.588882 5.3321905 1.5013925 14.5
-4.3860245 -4.9595728 0.064728409 7
-4.3464856 -4.8940573 0.29097274 8
-4.156301 3.0988469 0.030791191 8
-4.1195631 3.224771 0.038174994 8
-4.2060008 3.82952 -0.01257378 8.333333
-4.3196487 -4.8091741 0.83772999 10
-4.3655734 -3.1186423 0.7801258 11
-4.3509479 -2.1953835 0.59964108 11
-4.2241721 3.2918482 0.35913756 10
-4.1586132 5.3653207 0.70859033 11.666667
-4.3103528 5.463933 1.1029973 13
-4.0866814 5.4035811 1.4967813 14.5
-3.6191812 -1.2841827 0.088496208 8
-3.6625233 -1.0181397 0.34406647 10
-3.6766655 3.4076676 0.069734395 8.666667
-3.7801178 4.219326 0.096258514 9
-3.7456505 5.509644 0.015170863 8
-3.6682801 -1.0140462 0.66748422 12
-3.8539555 3.3771143 0.36574578 10.333333
-3.8211484 4.205121 0.18091659 9
-3.7288346 5.5335336 0.36531892 9.666667
-3.7940075 -4.6376791 1.2289956 12
-3.6591921 -1.7856822 1.063965 14.5
-3.6291592 -1.2683043 0.93174613 14
-3.6882341 -1.0033646 1.0056678 14.666667
-3.8203642 5.4963417 0.68592709 11.5
-3.7063158 -1.7183259 1.1811382 15
-3.8532009 5.5280409 1.1105022 13
-3.8532226 5.495296 1.5087718 14.5
-3.2947769 -2.9948881 0.3108409 8.666667
-3.4085202 -2.1801598 0.22411691 8.666667
-3.5693882 -1.4663386 0.22867261 9
-3.4186413 3.4895298 0.055307496 8.666667
-3.4518809 4.1433344 0.019716082 8.25
-3.4161861 5.5752749 0.053292248 8.666667
-3.3511729 -4.6011934 0.61427426 10
-3.2598357 -2.9809041 0.60527605 10.666667
-3.4255674 -1.9760947 0.58789462 11
-3.5603201 -1.3933178 0.68254542 12
-3.4164286 3.4307091 0.37372661 10.6
-3.4875569 5.5844674 0.3735595 10
-3.3156309 5.6249981 0.47474208 10
-3.3918736 -4.5585532 1.1839926 12
-3.4233162 -2.6234148 0.97351867 13
-3.4505978 -2.1631832 0.88684911 13.5
-3.493921 -1.7882793 0.96712232 14
-3.5660381 -1.3942729 0.96275675 14.25
-3.5518205 5.5772781 0.6899513 11.5
-3.291647 5.6464882 0.53064525 11
-3.3355963 -4.546505 1.4021556 13.5
-3.2484744 -3.5154111 1.3026774 14
-3.4706848 5.6320362 1.1215624 13
-3.2909255 5.6699996 1.1325459 13
-3.5189583 5.5844631 1.488497 14.333333
-2.9247785 -4.3258009 0.010085406 7
-2.9613907 -4.4143262 0.33004642 8.5
-2.8612287 -4.3543096 0.19742993 7.5
-3.0970747 -3.9332287 0.36247829 8.5
-2.9165511 3.5623629 0.030906178 8.5
-2.8135118 3.6925807 -0.0049353526 8
-2.9239533 4.4635739 -0.01242328 8
-2.9308889 5.5590219 -0.0083972793 8
-2.9761059 5.7083178 0.064893529 8.666667
-3.0137675 -4.5748987 0.61098868 10
-3.0112484 -4.0263386 0.60317695 10
-3.0994465 -3.7773635 0.66503072 10.5
-3.2060933 -3.2921183 0.61268121 11
-2.9927423 3.5500541 0.36515492 10.666667
-3.0270593 5.7223253 0.36781624 10
-3.0129116 -4.3567243 1.2671317 13
-2.9980166 -4.1636262 1.1543014 13
-3.0289783 -3.7866416 1.2202721 14
-3.1836042 -3.4051027 1.0863416 13.5
-3.0189986 5.7182174 0.70969993 11.5
-3.1023359 -3.9930685 1.3556012 14
-3.1527097 -3.7228298 1.3202609 14
-2.977263 5.7498498 1.1594322 13.333333
-3.0368159 5.710362 1.5364758 15
-2.5232863 -4.4571319 0.081989482 7
-2.5452251 -4.4382544 0.3219389 8.333333
-2.6701088 -4.3781137 0.32063103 8.333333
-2.4330692 -3.7964101 0.42843249 9
-2.7245078 3.5854187 0.10367355 9
-2.6553214 3.6717162 0.093968101 8.5
-2.5569937 5.8154144 0.034009427 8
-2.591162 -4.4250345 0.67292935 10
-2.7225754 -4.3441477 0.65128291 10.5
-2.6775959 3.5920019 0.30584809 10.5
-2.5513299 3.6732819 0.31105757 10.333333
-2.5617893 5.8146753 0.25907871 9.3999996
-2.5846705 -4.3834953 1.1031568 12.666667
-2.6906741 -4.3188062 0.96784079 12
-2.4696608 -3.681412 1.0330694 13
-2.6082871 5.81463 0.65475291 11.4
-2.606251 -4.3675766 1.3595134 14
-2.6136167 5.8256502 1.1728885 13.6
-2.6724083 5.7911248 1.4691265 15
-2.2986038 -4.4374838 0.07645674 7
-2.1615014 -4.3817821 0.092920996 7
-2.3484561 -4.3968396 0.38129652 8.5
-2.1756716 -4.3583708 0.40503708 8.666667
-2.0312629 4.4158955 0.17959625 9
-2.2976623 -4.4308581 0.60016358 9.666667
-2.1453962 -4.3419676 0.69236916 10
-2.177489 3.8029265 0.31108785 10
-2.0515311 4.3892956 0.23310041 10
-2.2137558 5.8856797 0.24846511 9.5
-2.2534328 -4.4352679 1.1753434 13
-2.2400548 -4.3252048 1.114511 12.833333
-2.3276362 -3.7521369 1.0916195 13.666667
-2.2492642 5.8833961 0.70388907 11.5
-2.3110828 -4.3364301 1.3237536 14
-2.2669921 5.9012408 1.1471747 13.4
-2.2554905 5.888937 1.4952984 15
-1.7842081 -4.3248749 0.086873211 7
-1.9513941 -4.3847647 0.50823772 9
-1.7739215 -4.2846398 0.35813561 8.3999996
-1.6197386 5.3058858 0.13430572 9
-1.8118021 -4.2738037 0.63117683 10
-1.8562758 3.8677442 0.29356936 10
-1.7017266 5.2994504 0.2477428 9.5
-1.8517563 -4.2478046 1.1101995 13
-1.8198955 5.439929 0.65565139 11.5
-1.6754066 5.3463063 0.99457377 13
-1.9094861 5.7492046 1.1491114 14
-1.8157525 5.312417 1.3838712 15
-1.8128263 6.0105591 1.5316032 15
-1.4196732 -4.2362709 0.097388566 7
-1.4123698 -4.2224364 0.38039565 8.7142859
-1.3628333 5.3550758 0.16061918 9
-1.3908217 -4.1761322 0.67217278 10.8
-1.4519489 5.3380632 0.25878194 9.5
-1.4363177 -4.1643028 1.0977533 13.090909
-1.4266125 5.3596678 0.67198503 11.5
-1.4547091 5.3758578 1.054098 13.5
-1.3602511 5.448082 1.4266753 15
-0.93884575 -4.157454 0.11480237 7
-1.0066887 -4.1354151 0.33038542 8.5
-1.057467 -4.1204658 0.67001456 10.75
-1.0065534 5.46592 0.24703223 9.5
-1.0360147 -4.0923343 1.0781245 13.4
-1.0821922 5.4836292 0.67549348 11.333333
-0.86805338 5.8947196 0.84689891 12
-1.178025 5.4668031 1.0642139 13.5
-0.99488574 5.7973075 1.1585395 13.6
-1.0330589 6.0742893 1.0584581 13
-1.037626 5.7632041 1.5091491 15
-0.45009148 -1.3417168 -0.13633084 4
-0.43718565 -1.0216061 -0.16777985 2
-0.44974169 -0.72294807 -0.19637598 0.5
-0.64926589 0.37215421 -0.25742337 0
-0.71045136 0.3952091 -0.26708698 0
-0.43464497 -1.653425 0.19954745 10
-0.45504308 -1.446576 0.2093146 10
-0.62230605 5.5473251 0.27958405 9.5
-0.71385223 -4.0126343 1.0831017 13.5
-0.79636574 5.8191533 0.65459514 11
-0.62794536 6.1684132 0.79482865 11.5
-0.60195225 5.8269482 1.1650923 13.6
-0.63875818 6.165216 1.0581685 13
-0.31051522 -4.0050344 0.082837611 7
-0.38644117 -1.6742162 -0.11307019 4
-0.25697008 -1.3560712 -0.13832521 3.3333333
-0.20223306 -0.9824841 -0.16853453 1.3636364
-0.21211818 -0.73541421 -0.19280006 0
-0.37284023 -3.986866 0.15764587 7
-0.2620222 -1.6262641 0.21648422 10
-0.21791026 -1.4215591 0.30889463 12.235294
-0.048680767 -0.99122441 0.31434527 14.666667
-0.30688027 5.6112189 0.35482422 10
-0.18082209 5.6449995 0.3296555 9.666667
-0.20615101 6.2431808 0.803307 11.6
-0.2536658 5.8494353 1.1698126 13.5
-0.27422017 6.2399459 1.0585746 13
0.025140109 -0.80926013 -0.17628005 0
0.05451294 -0.7513122 -0.18679304 0
0.19601883 -0.88561606 0.28308308 14.5
0.26466423 5.7338738 0.34896055 9.666667
0.18455489 6.3289733 0.77162862 11.5
0.14445674 5.9420681 1.2012919 13.5
0.17175509 6.3332152 1.0619751 13
0.76685166 -0.19539973 -0.20701542 0
0.78501487 0.14904776 -0.22401957 0
0.76247203 0.5710991 -0.2635617 0
0.55810869 -0.80935836 0.30524394 14.5
0.74126613 -0.76830792 0.29352984 13.5
0.73547888 1.5623952 0.31451437 13
0.58793032 1.7971394 0.28643197 12
0.56458199 5.8018456 0.32601029 9.333333
0.57100332 6.1732302 0.49136171 10
0.77077532 6.4441347 0.52245218 10
0.56443381 6.4024868 0.75456655 11.5
0.75358516 6.4521408 0.73852026 11
0.56102592 6.0227065 1.2077857 13.5
0.53731281 6.2907701 1.1417842 13
1.1507255 -0.44077796 -0.20206596 1
0.99499208 -0.23283243 -0.20772308 0.5
1.0215374 0.20112321 -0.23321159 0.33333334
1.0102453 0.5964219 -0.25928226 0.75
1.0253208 0.89435089 -0.2817969 1.2
1.0131133 -0.70548016 0.3060801 12.818182
1.1844639 4.3935809 0.39716598 10
1.109327 4.5378575 0.39738509 10
0.93483263 5.1721296 0.27054343 9
0.9956941 5.8996596 0.36163923 9.666667
0.9573884 6.4906988 0.77923769 11.5
0.97035676 6.0945034 1.2418073 13.5
0.87717134 6.4689956 1.0696107 13
1.4273382 -0.52443361 -0.18276569 2.5999999
1.3798831 -0.21021332 -0.20874499 1.75
1.3818933 0.20140705 -0.22739288 1.6666666
1.3845805 0.54947305 -0.24296136 2.1666667
1.3736918 1.0132731 -0.27560133 2.5999999
1.4336493 1.4434081 -0.32389611 3
1.4035034 -0.62271887 0.30433121 11.625
1.4086965 -0.61918253 0.50820327 15
1.3312589 4.5145035 0.47732878 10.8
1.3431491 5.9609957 0.54997903 10.5
1.3642226 5.972857 0.82630587 11.8
1.2229849 6.2185898 0.73491746 11.333333
1.4044902 5.9741383 1.2730825 13.666667
1.2707677 6.1691079 1.2050357 13.333333
1.8269014 -0.61100954 -0.14322032 3.75
1.9120463 -0.14195468 -0.19266671 3
1.8490517 0.24266163 -0.208105 3
1.8272265 0.59116584 -0.23494598 3
1.7309811 0.94496351 -0.27112281 3
1.7855238 1.3783537 -0.31066936 3
1.7597762 1.7375754 -0.34781981 3
1.9111824 2.1121695 -0.38193685 3.5
1.7805569 -0.59427708 0.26078445 9.9375
1.7712498 -0.53496867 0.54290873 14.142858
1.8218733 4.6106615 0.52683479 10.857142
1.8240387 4.8601155 0.44942972 10.5
1.8275079 4.6703596 0.89067531 12.8
1.7603297 5.0655961 0.88886446 12.4
1.6835588 5.474731 0.82364357 12
1.6118752 5.9129734 0.92077643 12.5
1.849746 4.6563258 1.1620059 14.5
1.7662798 5.0705414 1.2385305 14.333333
1.6896509 5.490037 1.1844174 13.5
1.6393541 5.8926187 1.3398099 14
2.3620093 -0.56603324 -0.043814316 5.5
2.1387262 0.47540802 -0.22904316 4
2.1825638 1.0514467 -0.29941198 3
2.122153 1.4558105 -0.3150546 4
2.3616486 1.6563108 -0.34248644 4
2.3077242 2.0638504 -0.37560904 4
2.1959922 -0.46938002 0.28656402 9.75
2.2615643 3.3626003 0.20931056 9
2.3428867 3.8466778 0.10894371 8.25
2.1521289 4.1947551 0.22050723 9
2.1631269 -0.45204738 0.63800335 14.142858
2.3003378 3.3362904 0.51441216 11
2.2423339 3.9073126 0.5003103 10.833333
2.103102 4.2277393 0.51895529 10.833333
2.1281748 4.6732435 0.47421467 10.5
2.3014789 3.4050803 0.91705441 13.8
2.2116165 3.867352 0.87881243 13.166667
2.1914198 4.1601477 0.95251119 13.2
2.187746 4.7569513 0.83779961 12.166667
2.1665111 4.8441715 1.0183978 13
2.2462711 3.9410093 1.1415887 15
2.1433485 4.1936741 1.1707761 15
2.1911061 4.7741461 1.2359726 14.5
2.4511285 -0.58443218 -0.16678825 4
2.5207324 0.18927662 -0.21676883 4
2.4559083 0.99682313 -0.30206397 4
2.561003 1.401644 -0.32862699 4
2.6427071 2.1467509 -0.37886226 4
2.4703765 -0.39888832 0.32564628 10
2.6054265 -0.36595261 0.29334083 9.5714283
2.7715805 2.3163564 0.30720606 9.5
2.7136536 2.5957875 0.27299678 9.3999996
2.6385653 2.9828417 0.30673742 9.5
2.5850184 3.3222287 0.10200541 8
2.4108179 3.87112 0.20517589 9
2.4734857 4.2234321 0.12464919 8
2.4729671 -0.39665699 0.64860636 13.5
2.6517258 -0.35163888 0.68023074 13.5
2.7720952 2.3313127 0.57032609 11.5
2.7208381 2.5951641 0.54621333 11.285714
2.6370888 3.0215187 0.49600002 11
2.5376196 3.2924361 0.55047822 11.2
2.4267008 3.8443131 0.42665461 10.333333
2.4259822 4.2395225 0.31693181 9
2.761811 -0.32958916 0.92761731 15
2.7563818 2.3628647 0.81792414 13.5
2.7255833 2.5970795 0.91641545 14
2.6320174 3.0732305 0.92894077 14
2.5477037 3.3810837 0.95130891 13.857142
2.438478 3.8477101 0.85315263 12.666667
2.4506342 3.8780086 1.1517518 15
3.0609646 -0.41135317 -0.095448531 5
3.202486 -0.085363194 -0.22623038 4
3.1716876 0.50358039 -0.098236062 5.5
2.9332342 0.87176448 -0.28432998 4
3.1347437 1.3333534 -0.31344607 4
3.1219039 1.8023449 -0.20509525 5
2.979378 2.1855276 -0.3692669 4
2.8932559 2.7089789 -0.40157208 4
3.0297458 -0.40952832 0.11895244 7
2.9731712 -0.28865102 0.29396674 9.2857141
3.182379 0.35445151 0.30311492 9
3.1334381 0.60575956 0.26631376 8.8000002
3.0587459 0.96887344 0.23120639 8.75
2.9707661 1.3786895 0.26317352 9.125
2.9168756 1.8084167 0.23192763 8.7142859
2.8663785 2.1744087 0.19296074 8.5
2.905201 2.8863058 0.078483507 7.5
2.9539309 -0.28475299 0.64999491 12.444445
3.1757636 0.37919039 0.67903894 12.5
3.1297677 0.60851908 0.63893211 12.25
3.0449579 1.0374705 0.65071732 12.444445
2.9725845 1.3816932 0.61946499 12.166667
2.8792989 1.8423322 0.57969046 11.777778
2.8166094 2.1491218 0.60506117 11.833333
2.9850705 -0.26476657 0.92783231 15
3.1740429 0.38383693 0.94187146 15
3.1287062 0.63216257 0.9199695 14.5
3.044728 1.0413426 0.91685981 14.5
2.9681244 1.4136264 0.88857716 14.4
2.8838556 1.8276882 0.93491918 14.5
2.8067179 2.2070775 0.95027882 14.5
3.4933712 -0.088820413 -0.057055619 5.5
3.3135426 0.24378298 -0.037694551 6
3.3721733 0.6524049 -0.085929498 5.5
3.28743 1.0132735 -0.15968357 5
3.2267549 1.4116533 -0.12578125 5.5
3.2991624 -0.13689956 0.24635495 8.4285717
3.216989 0.19932599 0.28494141 9
3.3050027 1.0525266 0.090984441 7
3.2189028 1.4396229 0.059003714 7
3.303118 -0.10208785 0.73619682 12.571428
3.2377791 0.22166109 0.71679544 12.555555
3.3660729 0.71293408 0.57220948 11
3.2717724 -0.10492799 0.95946008 14.5
3.2102492 0.20265447 0.97076231 15
3.1828842 0.48847365 0.98696047 15
