# .PCD v0.7 - Point Cloud Data file format
VERSION 0.7
FIELDS x y z intensity
SIZE 4 4 4 4
TYPE F F F F
COUNT 1 1 1 1
WIDTH 128
HEIGHT 1
VIEWPOINT 0 0 0 1 0 0 0
POINTS 128
DATA ascii
-4.4682961 6.1747122 0.95677394 12
-3.8085072 6.1338758 0.91187418 13
-3.5651276 7.3483424 -0.15184338 9
-3.244801 6.1901245 0.74258721 12
-2.6536958 -0.91845149 0.36876148 9
-2.6921823 2.4881139 0.027927104 8
-2.6486955 -0.89359295 0.54508585 10.5
-2.6796 2.4796119 0.19348802 9
-2.6784678 -0.85603189 0.71326822 12.5
-2.6844304 2.3838072 0.38134187 10.5
-2.6761155 -0.84199697 0.94505751 14
-2.6639321 -0.45631382 0.90040141 15
-2.6824956 1.8371295 0.55619544 12
-2.6756611 2.3467622 0.58362836 12
-2.6219172 -0.85709262 1.0100471 15
-2.6642573 1.3919337 0.76404381 14
-2.6743071 2.3243721 0.74335557 13
-2.6481645 2.458607 0.85856599 14
-2.0131304 -0.8993088 0.46250451 11
-2.0103128 -0.8691873 0.72203815 14
-1.8046905 -0.89736682 0.50152892 12
-1.8770518 -0.86957353 0.72754079 15
-1.7595644 -0.91075706 0.3867276 10
-1.628492 -0.88501215 0.65187317 14
-1.4840207 -0.91767788 0.33929664 10
-1.3309615 -0.90989155 0.39728981 11
-1.1268346 -0.90424049 0.45652923 13
-1.1566563 -0.88701248 0.57987767 15
-0.74412775 -0.91957366 0.35331911 12
-0.29075164 -0.82360464 -0.14907575 0
-0.25355157 0.84500128 -0.30471596 0
-0.038640704 0.73792267 -0.29221302 0
-0.0098126093 -1.1205547 -0.0054991245 4
0.0012794877 -0.81999916 -0.14284089 0
0.14706211 -0.74268383 -0.14591548 0
0.13744049 0.74239933 -0.31006414 0
0.0001353682 0.94231838 -0.32430485 1
0.16966175 -1.0936702 -0.073678322 2.5
0.12423668 7.2597404 -0.13961667 10
0.20187068 7.3071928 0.82313263 13
0.30570057 0.68611783 -0.31135467 0
0.37328568 -1.0759348 0.21237598 9.5
0.23568697 7.2451863 -0.18662648 9
0.4403016 -0.87559378 -0.12892975 1
0.43261746 -0.76757228 -0.13814272 0
0.53169882 -0.46459082 -0.18114023 0
0.55764312 0.57020712 -0.29831332 0
0.48832676 0.65170979 -0.31520417 0
0.50280279 0.77679938 -0.31637189 1
0.53014696 0.97938031 -0.33252949 2
0.47606763 -1.1299419 0.028209308 5.3333335
0.48763385 7.2841001 0.24975581 11
0.47433367 7.3231239 0.92024672 14
0.61379915 -0.69499707 -0.16211279 1
0.68708581 0.19460464 -0.26356411 0
0.73673415 0.55646068 -0.30637443 0
0.60327679 -1.15965 -0.067758046 3
0.7104255 -1.1536729 0.15913858 8
0.78818911 -0.9263829 0.3074964 12
0.80183476 0.49337456 -0.30202612 1
0.84009194 0.73104352 -0.32805783 2
0.93946069 0.90407318 -0.3405818 3
0.93801993 -1.1762973 -0.069724523 4
0.97922164 -0.96867365 0.0033795722 6
0.92343295 -0.89289659 0.20732404 10.5
1.0009903 -1.0823265 0.30628324 11
0.86742204 -0.92701238 0.38219848 14
0.94053197 -0.63302183 0.32927281 14.5
0.85459256 7.357018 0.53466529 12
0.89011568 7.3787537 0.8149842 13
1.1057118 -1.1215687 -0.12420277 3
1.1255565 -0.86312282 0.12497728 8.333333
1.0411004 -0.62369967 0.22544943 12
1.0595163 -0.62202507 0.31141192 13.5
1.5502018 -0.62433457 0.19024253 10
1.5368164 -0.87368786 0.28101552 11
1.5464524 -0.63093394 0.33136615 12.5
1.5273144 -0.6193139 0.46027395 15
1.5166134 7.388504 0.93707997 14
1.7609891 7.3244958 0.029257519 10
1.9281127 -0.2908769 0.10443803 9
1.9424376 0.0032146357 0.098362178 9
1.8329833 -0.62313646 0.26777428 11
1.9279599 -0.27400506 0.24712685 11
1.9380419 0.052289162 0.26185805 11.5
1.9290042 7.2933111 -0.38616088 9
2.2157183 -0.50799876 0.60281909 15
2.0405564 7.3608646 0.63178331 13
2.2076933 -0.47297934 0.067250021 8
2.2325501 0.27448416 0.038103923 8.5
2.2186003 0.17585371 0.14867038 10
2.2223475 0.31475621 0.22267799 11
2.2204719 0.26233095 0.31801981 12
2.3941922 0.14401582 0.57956326 15
2.4707668 7.4023237 1.3393755 15
2.6595118 7.3534889 0.29456371 11
3.185791 7.3811512 0.9736889 14
3.3160291 7.3556046 0.38751271 12
3.2937975 7.3725762 0.79479498 13
3.5960777 7.4218264 1.5358424 15
3.7399096 0.85366541 -0.19971769 7
3.7431772 1.555402 -0.11024062 8
3.7560189 1.6227182 -0.26677078 7
3.7458022 2.8846421 -0.25048572 8
3.7160649 2.3377674 -0.12460009 9
3.7434623 2.8890324 -0.14226717 9
3.7353797 2.6136255 0.017983625 10
3.7550316 2.0894046 0.36069074 12
3.744127 2.6383195 0.30525476 11
3.7457235 2.6952195 0.37910473 12
3.8111265 1.9819404 0.51629263 13
3.7630825 2.8569593 0.52904749 13
3.7450218 2.0851181 0.71620667 14
3.7507937 2.600112 0.65269363 14
3.7676282 2.7593141 0.90568632 15
3.8710186 1.2415286 0.46212888 12
4.0565672 3.8993542 -0.40485287 8
4.0734425 3.9993696 -0.2067868 9
4.2886271 5.0968385 -0.26262122 9
4.3913703 4.3931308 0.031557679 10
4.3023062 5.0658293 -0.06341204 10
4.3433623 1.0441657 0.94856656 15
4.3633509 1.8709689 0.69712329 13
4.3773718 1.8078945 0.96738833 14.5
4.4008393 4.816998 0.64501458 13
4.4120822 4.5854483 0.81227589 14
4.3965387 6.0760593 0.7180959 13
4.3937135 5.7224593 0.89000416 14
