# .PCD v0.7 - Point Cloud Data file format
VERSION 0.7
FIELDS x y z intensity
SIZE 4 4 4 4
TYPE F F F F
COUNT 1 1 1 1
WIDTH 104
HEIGHT 1
VIEWPOINT 0 0 0 1 0 0 0
POINTS 104
DATA ascii
-3.1815131 1.3239295 0.61000371 12
-3.1599827 1.3393953 0.71930712 13
-2.8983936 1.8021672 0.17450038 8
-2.9541786 1.6059672 0.87952352 14
-2.7806094 1.8728213 0.89993334 15
-2.4618342 7.5057597 0.18881384 8
-2.1969974 2.7642133 0.17544082 9
-2.2295983 2.671329 0.80063093 14
-1.9737281 8.1128321 0.44267583 9
-1.4555926 -0.47075316 0.25512111 11
-1.5473568 -0.36505297 0.26550558 11
-1.5884676 3.6517403 0.227212 9
-1.4782548 3.7727146 0.40748626 10.5
-1.4982082 3.731951 0.62677985 12
-1.4482121 3.7950542 0.79884773 13
-1.4219002 3.8097692 0.98529124 14
-1.4778008 7.6068687 1.7815561 14
-0.59718817 -1.0784432 0.39789838 15
-0.48660627 -1.0446032 0.29154664 13
-0.31830651 0.85421306 -0.22432773 1
-0.26760259 -0.92968988 0.28820854 14
-0.19381094 0.70073807 -0.22691606 0
-0.11604645 -1.2873713 0.22689535 11
0.0022010561 -1.4262244 0.41080049 14
-0.12427016 -1.3543906 0.30454662 12.5
-0.010676822 -1.4545852 0.45981902 15
0.064826086 -1.3544122 0.21985516 11
0.17326617 -1.2337275 0.32333073 13.5
0.40270185 -1.4116093 0.21106152 10
0.38616049 -1.4168109 0.33951217 12.5
0.45514953 -1.4211951 0.27327374 12
0.47634241 -1.4190804 0.45471355 15
0.69033444 -0.28227159 -0.23699938 0
0.75973141 0.029645955 -0.25327983 0
0.69866031 -1.1681961 0.30491257 13
0.76539576 -1.9327593 0.50138855 13
0.85791457 -1.8371183 0.17528574 9
0.88664335 -1.8376987 0.24988015 10
0.81746167 -1.4893386 0.23986189 11
0.84805781 -1.0484048 0.30494654 13
0.91329074 -0.86072391 0.2693657 13
1.1302646 0.073840015 -0.28770873 1
1.1658126 -0.97796756 0.20338631 11
1.1807562 -0.97733968 0.28744158 12
1.2357496 -0.85346061 0.15546127 10
1.2758697 -0.8590588 0.24692461 11.5
1.248556 -0.958718 0.45118055 15
1.4375103 -0.015431577 -0.30535415 2
2.9026515 -1.1647931 0.48130715 12
2.9902933 8.4168482 2.3339479 15
3.332494 -0.58026361 0.42125469 11
3.3052683 9.9968033 0.10563274 8
3.2869949 -1.7076657 0.97306257 15
3.5989494 5.9767461 0.20910642 9
3.5304391 -0.38188118 0.71825355 13
3.4586744 -1.3233359 0.8672629 14
3.5195568 -0.27439448 0.80926585 14
3.5968962 -1.3689036 1.0056728 15
3.5900302 -0.64108288 1.0054142 15
3.6696122 -0.12597854 0.028593682 8
3.6424649 -0.065466084 0.15200835 9
3.7018163 5.9119697 0.029349767 8
3.6747305 -0.027261732 0.37953505 11
3.6512682 -0.04577684 0.61993945 12.5
3.6347215 5.9683886 0.37222153 10
3.7760861 -0.65243071 0.83244205 14
3.7848566 -1.049307 1.0424268 15
3.732687 -0.014883083 1.026932 15
3.7540059 5.9871364 1.7698333 15
3.9309776 0.31361485 -0.0056454991 7.5
3.9037654 0.2632246 0.28928307 10
3.95363 0.34871408 0.41210854 11
3.8792968 -0.85829186 0.84212637 13
3.8767495 5.8415747 1.4118336 14
4.00811 0.39474872 0.17189674 9
4.1770024 5.6746879 0.25061008 9
4.0200167 0.40349692 0.64431882 12
4.0573354 5.7033577 1.0029392 12
4.1149082 5.6929359 1.2005138 13
4.4785738 5.5782504 1.7895496 15
4.8455901 5.2370391 1.355536 14
5.1223168 0.93824643 -0.0099575976 8
5.3175559 1.143127 0.81984937 12
5.3608708 4.8532419 0.88826066 12
5.3838363 1.2457445 1.0903978 13
5.4258733 1.3153582 0.18079536 9
5.4694238 1.3620243 1.3305726 15
5.7303801 1.8380263 0.10816599 8
5.7399645 1.7957603 0.56712973 11
5.6428652 4.5232673 0.45418125 10
5.7492433 1.7893885 0.92582625 12
5.6575346 4.6393318 1.3054644 13
5.8098798 4.340847 1.7979015 15
6.0735488 4.4144583 1.0431911 12
6.2018929 2.4121647 1.3335036 14
6.127346 2.2908428 1.5284138 15
6.0816102 4.4765143 1.6519157 14
6.3380003 2.5982144 0.6849798 11
6.4034715 2.7342646 0.9635005 12
6.2839203 4.2539935 0.8415156 11
6.3511324 3.7053394 1.8079911 15
6.5703831 3.991564 1.0337952 12
6.5502748 4.0425949 1.5056444 14
7.09445 14.989494 1.0677074 10
