# .PCD v0.7 - Point Cloud Data file format
VERSION 0.7
FIELDS x y z intensity
SIZE 4 4 4 4
TYPE F F F F
COUNT 1 1 1 1
WIDTH 723
HEIGHT 1
VIEWPOINT 0 0 0 1 0 0 0
POINTS 723
DATA ascii
-3.3288751 2.626394 0.30405527 9.5
-3.2915893 2.7570388 0.66485 11.5
-3.3339918 2.7440109 1.1806966 15
-2.8229566 1.5822419 0.19057611 9
-2.9498882 1.8054929 0.21590269 9.333333
-2.9799352 2.1958058 0.27173606 9.5
-2.9793415 2.5910869 0.30078757 9.5
-3.0390143 2.9647424 0.29261631 9.1999998
-2.8715096 2.218051 0.62152237 12.2
-2.9913673 2.5929656 0.60858703 11.8
-2.9888797 3.0315948 0.58829665 11.272727
-2.9224775 1.8671618 0.91439593 15
-2.920615 2.2294886 0.94266319 14.5
-3.0401154 2.577733 0.99575311 14.285714
-3.0324132 3.0077784 0.9884997 13.875
-3.0453842 2.9955192 1.223858 15
-2.4843304 1.1237632 0.2629568 10.25
-2.5581048 1.3551657 0.22983076 9.625
-2.6546271 1.7417492 0.24517155 9.5
-2.7967076 2.1130419 0.26928094 9.5
-2.6205728 3.0998101 0.30869156 9.1999998
-2.6305759 3.2678428 0.33111557 9
-2.4512813 1.1399899 0.57802147 13.5
-2.5535221 1.3853475 0.54851198 12.6
-2.6792209 1.7620081 0.56152892 12.3
-2.7860801 2.0621974 0.55799335 12
-2.593842 3.119112 0.65319937 11.666667
-2.604995 3.2599483 0.60978365 11.25
-2.6104281 1.440946 0.82577878 15
-2.6841457 1.7562047 0.91351509 15
-2.7854836 2.0305724 0.89326727 14.5
-2.6290731 3.1081836 1.1915479 15
-2.6356337 3.2409768 1.0241934 14
-2.7683794 3.0312955 1.203998 15
-2.6016691 3.2314553 1.2638949 15
-2.3691099 0.98593706 0.28274876 10.5
-2.2356381 3.3730061 0.33509174 9.6000004
-2.3869107 1.0203692 0.56026459 13.5
-2.2309382 3.3835146 0.58659381 11.125
-2.2392039 3.3964188 1.0088396 13.875
-2.2777278 3.2833602 1.2247674 15
-1.6188304 -0.83812857 0.21734416 11
-1.6876714 -0.62379277 0.23275855 11.5
-1.7728093 -0.39286304 0.24410909 11.5
-1.8996953 3.5073006 0.3517282 9.333333
-1.6544236 3.6061425 0.37969381 9.5
-1.6180294 -0.81820172 0.43761578 14.5
-1.6915629 -0.62152386 0.43205646 14.5
-1.806981 -0.38998556 0.43261379 14
-1.8666544 3.5473535 0.56222349 10.8
-1.6896605 3.6240053 0.5937475 11
-1.8619163 3.5413837 0.99346638 13.833333
-1.704114 3.6064653 1.0216333 14
-1.6467888 3.6182554 1.2339382 15
-1.3397563 -1.3743066 0.22844741 11.222222
-1.4049895 -1.0060104 0.24488638 11.882353
-1.4809103 -0.64838243 0.24479073 12.125
-1.5391812 -0.35902503 0.26914087 12.5
-1.4979246 3.6859105 0.42660165 10
-1.3072914 -1.3719158 0.40856051 14
-1.4507104 -1.0134498 0.40181097 14.1
-1.503499 -0.62240833 0.43717471 15
-1.5157694 -0.35183269 0.42619178 15
-1.4101022 3.7334077 0.62167192 11.111111
-1.3922285 3.7324951 0.99846607 13.75
-1.3776639 3.7399881 1.2511498 15
-1.1281011 -1.6418574 0.22692826 11.25
-1.1423192 -1.4181367 0.26618358 12
-1.0258675 -1.0563127 0.24196324 12.5
-1.0508815 3.9232099 0.42919818 10
-1.1365486 -1.6337078 0.42254415 13.5
-1.1721249 -1.3715373 0.41761619 14.333333
-1.1508645 -1.0473558 0.40551394 15
-1.0381521 3.8781555 0.76993531 12.333333
-1.0220759 3.8828487 1.0137926 13.666667
-1.0074965 3.9309015 1.2725059 15
-0.91761672 3.9767399 1.2788687 15
-0.4743976 -0.47781932 -0.20968206 0
-0.61462939 -1.0277346 0.24605687 13.538462
-0.51094979 1.6162086 0.39686057 13
-0.77919412 3.9794419 0.76319647 12
-0.56703782 4.0980444 0.73562253 11.666667
-0.62087721 4.0414748 1.033474 13.666667
-0.59041882 4.13942 1.3034147 15
-0.081957586 -1.3500179 -0.21506289 3.5
-0.16344829 -0.90958935 -0.21263359 1
-0.18210235 -0.71497726 -0.21456318 0
-0.10138355 1.0540104 -0.22820614 0.66666669
-0.12922107 1.3733141 -0.22727233 1.8
-0.0076152938 2.3556039 -0.24708872 4
-0.043462098 2.5640826 -0.25085953 4
-0.11241716 2.9656579 -0.25840479 4
-0.018677574 -1.6330606 0.18415171 10.666667
-0.10471123 -1.3969951 0.20928273 12
-0.23435822 -1.1126616 0.23910576 13.555555
-0.25155661 1.3999207 0.4049215 14.8
-0.065231204 -2.7242947 0.64822382 14
-0.28290012 4.2360044 0.72380674 11.5
-0.049483217 7.769783 0.73267883 9
-0.23828627 4.1903419 1.0465428 13.5
-0.36820573 7.5626841 1.1244414 10.5
-0.20046651 7.6495032 1.1077776 10.333333
-0.2974937 4.2736435 1.3249151 15
-0.25340298 7.4751816 2.3006804 15
0.2332603 4.9150686 -0.36007449 4.5
0.37235612 -2.1540837 -0.16055723 5.3333335
0.25884339 -1.7571647 -0.18605277 4.25
0.24978204 -1.4159259 -0.20384358 3.3333333
0.23626389 -0.96239233 -0.21239404 1.25
0.26368129 -0.67396164 -0.21149275 0
0.18490875 1.0263888 -0.2372355 0.33333334
0.24890755 1.3654839 -0.23493366 1.6666666
0.23405264 1.7949603 -0.24152552 2.8
0.22192301 2.1719368 -0.2473733 3
0.303967 2.607985 -0.26650414 4
0.28930661 2.9853308 -0.27214646 4
0.26941341 3.5856459 -0.29182628 4
0.34093404 -2.4621885 0.19729331 10
0.15951063 -2.1041567 0.22366516 10.666667
0.096207224 -1.8123417 0.22729672 11.272727
0.098380454 -1.4105376 0.24496727 12.428572
0.1955507 -2.571079 0.56639612 13.6
0.21667612 -1.8033854 0.4577848 14.666667
0.13109861 -1.5023857 0.40701202 15
0.075679071 4.3149099 0.75517446 11.5
0.13318792 4.8450212 0.70924139 11
0.20039415 7.8941865 0.77474964 9
0.0019060539 4.2752843 1.0610942 13.5
0.32536542 7.5494547 1.1515474 11
0.077421643 7.7968564 1.1005646 10.25
0.25572133 7.5134039 1.6327759 13
0.17475849 7.8200464 1.4485716 12
0.21750689 7.5089335 1.8231958 13
0.14374284 7.5313168 2.3776302 15
0.18686648 7.7458215 2.2740321 14.666667
0.69726717 -2.4968967 -0.1446657 5.5
0.67488676 -2.1434076 -0.21572025 5
0.62865609 -1.7937515 -0.21073659 4
0.6782639 -1.3998353 -0.21025641 3.5
0.6083827 -1.0007788 -0.21388818 2
0.58588326 -0.61490786 -0.21056154 0.40000001
0.62451249 -0.38670042 -0.20794475 0
0.77699339 0.25440291 -0.219559 0
0.67998606 0.66682607 -0.24438329 0
0.5975467 1.009482 -0.24511489 0.5
0.63372576 1.3481209 -0.24281807 1.6666666
0.58219779 1.7519243 -0.24697693 2.6666667
0.62942451 2.2115524 -0.25523371 3
0.66860169 2.5948703 -0.26146799 3.5
0.70752591 2.9748476 -0.26791933 4
0.74289346 3.3155992 -0.27513668 4
0.80329949 3.8671076 -0.29665786 4
0.51661468 -2.442848 0.18401034 9.625
0.59650522 -2.3415351 0.20457822 10
0.5347842 -2.4957106 0.61490792 14.25
0.64885741 -2.3667367 0.50751698 13.2
0.39287379 7.5790534 0.94811314 10
0.41748714 7.9834166 0.82936627 9
0.64993519 8.1219425 0.81141746 9
0.40659302 7.578547 1.0968059 11
0.59972078 7.6537971 1.0647384 10.5
0.37615883 7.5663595 1.5236552 12
0.59639317 7.6554704 1.6172067 12.5
0.65898508 8.0658808 1.4885284 12
0.60431868 7.6587176 1.7678103 13
0.4717375 7.4852176 2.4041932 15
0.55800599 7.7781582 2.4075978 15
0.61795503 8.0136499 2.1913264 14
1.0388436 -2.4009922 -0.17241488 5
0.99996722 -2.2782061 -0.15512764 5.4000001
1.0113715 -1.7682265 -0.21865167 4
1.0361155 -1.3638409 -0.21303017 3.5999999
0.91561061 -1.0180653 -0.21229881 2.5999999
0.82827747 -0.73042083 -0.21107276 1.5
0.99401182 0.28734705 -0.23469305 0.25
1.0042403 0.60414106 -0.24593353 0.42857143
1.0017078 0.99947685 -0.24315196 1.5
1.0139699 1.3744894 -0.24760893 2
0.96072155 1.7555778 -0.25527802 2.75
1.0257468 2.1628098 -0.26281464 3
1.0208368 2.5627644 -0.2675406 4
1.1441963 3.079073 -0.27441934 4
0.8493464 4.3330469 -0.29931781 4
1.0221411 -2.2355292 0.16213922 9.3076925
0.97744972 -2.5440211 0.72671181 15
0.99772757 -2.2554064 0.53538895 13.333333
1.1415291 7.7073522 0.7906673 9
0.9602713 8.2768631 0.83332932 9
0.95994669 7.7905374 1.1167337 10.666667
1.0376985 7.8214259 1.6570174 12.333333
0.96617222 8.2129555 1.6643009 12
1.0908146 7.8425031 1.8183457 13
0.96189231 7.7231512 2.5153887 15
1.019079 8.213623 2.3482785 14.333333
1.4730251 4.4497156 -0.29684389 5
1.22376 8.0304928 -0.34837151 5
1.303745 -2.192286 -0.15143216 5.4000001
1.4906473 -1.8513914 -0.21812902 4.3333335
1.2948256 -1.5225071 -0.21134581 4
1.2171766 0.35150301 -0.23933546 1
1.369262 0.58738232 -0.24491172 1.6666666
1.3772818 1.0013645 -0.24670495 2
1.3714209 1.3474747 -0.24978867 2.75
1.3548347 1.712227 -0.258396 3
1.4382355 2.2109725 -0.26833346 3
1.4338263 2.640507 -0.2678442 4
1.2256472 3.4201593 -0.27882811 4
1.3300492 3.8560174 -0.28545055 4
1.3762548 -2.1191359 0.17591937 9.083333
1.5830618 -1.9917114 0.21424372 9.666667
1.2388239 -2.6538579 0.7732057 15
1.3657492 -2.161329 0.59570593 13.555555
1.3855186 8.4232159 0.70206386 9
1.3281345 -2.6251214 0.78272384 15
1.2601272 7.9041233 1.1343354 10.666667
1.5115377 8.0006332 1.144774 10.5
1.4362589 7.55023 1.5761254 12
1.2857375 7.9156847 1.7106626 12.5
1.2871381 8.3382416 1.5333465 12
1.2963763 7.9238839 1.8403039 13
1.4256747 7.9767261 1.7828691 13
1.3235445 8.3295221 2.3530011 14.5
1.5113206 8.4444046 2.4782155 14
1.9318582 3.9193499 -0.29007336 4
1.6213006 -2.1228263 -0.12779355 5.5
1.7676369 0.69876295 -0.24781753 2.5
1.8157613 0.97364724 -0.25565609 3
1.7785949 1.4070259 -0.26039642 3
1.8311205 1.6587538 -0.26454571 3
1.7676604 2.2227242 -0.26784313 3.3333333
1.8707922 2.6476622 -0.27134129 4
1.7455887 3.4411714 -0.28161332 4
1.8070587 -1.9023782 0.21059111 9.4444447
1.8192629 -2.5345962 0.77085811 14
1.7490882 -2.0842984 0.67536527 14
1.8231765 -1.9106512 0.55827594 12.777778
1.8231484 7.7390928 0.86064863 9
1.5966994 8.4559984 0.69615459 9
1.9506226 8.7996836 0.83879471 9
1.7867904 -2.5500758 0.84852266 15
1.9248512 -2.2353861 0.84676468 15
1.8595694 -1.942114 0.81303549 15
1.9117689 7.4298525 1.0943993 10.5
1.8826643 7.8287363 1.2905681 11
1.7834477 8.1097546 1.1629801 10.5
1.9049002 7.5034914 1.7334626 13
1.6762135 8.0787477 1.7157876 12
1.8325545 8.1303616 1.8680037 13
1.7233279 8.126379 2.7071528 15
2.2156928 4.6426096 -0.30932972 5
2.328655 8.1204309 -0.27927911 5
2.162746 0.76604956 -0.25829259 3
2.273828 1.1139779 -0.2682856 3
2.1296692 1.3607069 -0.27052242 3
2.2321651 1.8723433 -0.27434972 3.5
2.0665712 2.2291887 -0.27233022 4
2.0351794 2.9449925 -0.27665803 4
2.1578991 -1.7545758 0.22728665 9.2857141
2.337899 -1.5924236 0.28210014 10
2.0937881 -2.2976136 0.76101565 13.75
2.1588254 -1.7650459 0.63035601 13.142858
2.2973504 -1.6034242 0.4649924 12
1.996168 -2.4688435 0.87887645 15
2.0160341 -1.8543537 0.83883941 15
2.3617687 6.8462501 1.1569518 11
2.0682821 7.4239297 1.1445805 10.666667
2.3510463 6.8772273 1.5064362 12
2.1498957 7.3711591 1.6573666 12.5
2.04228 7.7166877 1.626882 12
2.0052958 8.1684036 1.7608178 12
2.0066316 8.793417 1.6087278 11
2.1804919 8.5451069 2.726711 15
2.7016804 3.0836365 -0.28888127 4
2.5244195 3.8279715 -0.29569888 4
2.5812442 -1.4293768 0.019875353 7
2.6357131 0.97340316 -0.26830986 4
2.6301706 1.3269707 -0.27826923 4
2.4405377 1.6070513 -0.27791402 4
2.5371892 2.1844227 -0.286192 4
2.4455478 2.7389076 -0.28251302 4
2.44625 -1.6384239 0.22824949 9
2.6237323 -1.5163116 0.22194463 8.833333
2.686722 -0.84376895 0.40591049 11
2.599036 -0.59728426 0.42238578 11
2.5596271 -0.22137105 0.43038717 11.4
2.4485593 -1.6267167 0.6534338 13
2.6002345 -1.5061058 0.62559909 12.555555
2.6428874 -0.67768228 0.48821473 12
2.5494661 -0.17371528 0.48276624 12
2.7653961 5.9523225 0.7270084 9
2.4855461 6.5994396 0.67076647 9
2.6384819 9.1729183 0.87477243 9
2.4272163 -1.6303685 0.83474588 15
2.6224737 -1.5187248 0.87035102 15
2.5080245 6.6295633 1.215278 11.5
2.4449337 6.8393202 1.33153 12
2.6554234 7.379168 1.1070316 10
2.6538687 9.1567831 1.1970495 10
2.5704355 6.9974079 1.7174186 13
2.5450513 7.3655844 1.7339076 12.5
2.6510029 6.3827491 2.0106189 14
2.7036304 8.8130655 2.6125603 14
2.5477436 8.6842365 2.7870636 15
2.9435565 2.003505 -0.29781461 4
3.0958393 2.7579014 -0.30242664 4
3.1523058 1.6388644 -0.29387531 4
2.9059975 -1.2693655 0.24564518 9
2.8313389 -0.65606946 0.2434146 9
2.903518 -0.29604319 0.19022548 8
3.1348133 0.092076883 0.42775837 10
2.8436701 -1.3710971 0.59953755 12
2.7977812 0.012681861 0.49356288 11
2.8237143 -1.3472359 0.8840307 14.5
2.9045274 5.9768105 1.0395095 11
2.7791493 6.0863252 1.0550555 11
3.075774 6.5880003 1.0518421 10
2.8629308 8.5401821 1.2428578 10
3.1260972 6.169416 1.5818077 13
2.9526834 6.5606503 1.6130581 13
2.7705564 7.3898344 1.7134898 12
2.9313321 9.2010174 1.4507257 11
2.8417253 6.3994784 2.0252454 14
2.8188698 8.5083265 1.9696411 13
2.8395841 8.2882929 2.8887269 15
3.1022456 8.3893242 2.9520562 15
3.4287491 -1.7372925 -0.015744893 6.5
3.4971459 -1.8643539 0.18609315 8
3.3871558 -0.11416563 0.41540265 10
3.3556092 0.23758267 0.3486678 9
3.3639061 0.54563391 0.13103101 7
3.463599 5.4287691 0.86225277 10
3.3551714 5.8720818 0.87151194 10
3.3973725 7.3774242 0.687388 9
3.3020344 9.5577049 0.76588982 8.5
3.5188999 -1.8657458 1.1784722 15
3.3375976 5.7996898 1.011224 11
3.5161488 8.7897663 1.2850504 10
3.5441906 8.8121986 2.0078745 12
3.3780406 9.0715265 3.1669822 15
3.937341 3.6245947 -0.31870615 5
3.6609867 -1.6017364 -0.0015426178 7
3.8647988 -1.4740053 0.0090040704 7
3.7812691 -1.8200824 0.23637789 8.25
3.9238856 -1.5028824 0.1642492 8
3.6927035 -0.4660638 0.14554773 8
3.7497077 6.5752096 0.49634811 8
3.9817517 8.2922125 0.58458 8
3.8268533 -1.8371451 0.64061832 11.125
3.9463775 -1.5039775 0.70819056 11
3.8503783 9.427784 0.96033949 9
3.7212985 9.6325865 1.0527291 9
3.7736742 -1.813715 1.071756 13.857142
3.8474357 -1.5764086 1.1347125 14.5
3.6617892 8.8079214 1.3029202 10
3.9157619 9.4032803 1.0795556 9
3.7806246 9.5819387 1.2651166 10
3.8959906 -1.7550143 1.2689114 15
3.6355412 8.8261604 2.0835459 12
3.8227408 9.5065756 2.5734928 13
3.5688152 9.2046518 2.7489395 14
3.7948873 9.2006044 3.2462161 15
4.1438317 -0.95679784 -0.0016035193 6.5
4.1787233 -1.6955477 0.42374864 9
4.2743907 -1.4184475 0.3111113 8.333333
4.1685743 -0.93245769 0.11217061 7
4.3896284 -0.2783682 0.29217058 8
4.0547996 0.5920741 0.24905239 8
4.093483 0.98418015 0.20279901 7.5
4.2387896 6.3333616 0.4531959 8
4.1822224 6.7258935 0.51153058 8
3.9952695 9.4452963 0.64987409 8
4.157742 -1.6718334 0.64448857 10.8
4.2378788 -1.4471745 0.66145581 10.8
4.0238156 0.53494745 0.50466102 10
4.0709004 9.4180746 0.80327499 9
4.1170626 -1.6767513 1.0566403 13.333333
4.2081351 -1.5396926 1.1567919 13.8
4.0615973 9.4206066 1.450791 10
4.0496955 -1.6694077 1.3064731 15
4.2876749 -1.4825808 1.3549738 15
4.1395292 9.400569 1.7264379 11
4.2466745 9.4172707 1.9927086 12
3.964757 8.7238817 3.1642416 15
4.690506 -1.4731183 -0.013874483 7
4.6645613 1.2504479 0.069272481 6.5
4.6152091 -1.4947783 0.30436599 8.5
4.4933324 -1.1521548 0.3987295 9
4.5662427 -0.18498662 0.20575477 7.3333335
4.6229753 0.27737287 0.32338396 8
4.6071229 1.3872023 0.13354808 7
4.6873617 6.5399122 0.5676772 8
4.4786329 -1.5265222 0.71764112 11
4.5719252 -1.1217377 0.58776134 10
4.4477038 9.70222 0.81590813 8
4.635766 -1.4525114 1.0422658 12.8
4.5687885 9.1324558 1.3690062 10
4.5614915 -1.4660416 1.3719145 14.5
4.4809461 -1.2037286 1.4123018 15
4.5246825 9.649312 1.7686526 11
4.637495 9.6720037 2.0500233 12
4.3849206 8.8232832 3.2065837 15
4.4678607 9.2257586 3.0737128 15
4.9151568 -1.289643 0.0040711495 7
4.9875064 -0.86618495 -0.011646025 6.6666665
5.1440821 -0.69552964 -0.058935922 6
5.1631708 0.57161307 0.093600966 7
4.8866062 1.4629213 0.024047263 6
5.1868873 2.5553718 0.10337092 7
5.0935402 4.9333448 -0.0022328456 6.5
4.9325113 -1.2992767 0.25988582 8
4.9200311 -0.92400044 0.39404571 8.5
5.1481652 -0.74795312 0.36760437 9
5.132473 -0.056109548 0.23910986 7.5
5.15237 0.51315516 0.28079396 8
4.8448343 0.83177722 0.42182273 9
5.1682577 3.9142523 0.21990693 7
5.0583415 6.2086086 0.54309547 8
4.9516606 6.5735259 0.5569976 8
4.8182316 -1.3835995 0.76949638 11
4.9316187 -0.96453863 0.69212908 10
5.1151309 -0.72754818 0.64038527 10
5.0925579 10.392095 0.82847488 8
4.9368715 -1.2764478 1.1114296 13
5.064467 -1.0607301 1.0553133 12.5
4.8172097 8.8805637 1.3870548 10
4.8968759 -1.3201703 1.4806442 14.666667
5.0267477 -1.0913957 1.5402713 14.75
4.923655 8.9117174 2.1830182 12
4.7844501 9.74615 2.3251908 12
5.0938816 7.9690514 2.8101337 15
5.5320215 2.2475026 -0.30425999 5
5.3211203 2.9363379 -0.34980997 5
5.5041013 -1.0961698 0.012774297 7
5.5086932 -0.54882085 -0.060199622 6
5.3367443 2.9840958 -0.17041995 5.5
5.5510983 3.3336592 0.14177273 7
5.2783561 -1.2414004 0.36119413 8
5.5075436 -1.1495831 0.28716707 8
5.4067702 -0.66318327 0.38817731 9
5.2047358 0.43735653 0.34038335 8
5.4888844 3.403841 0.36951828 7.6666665
5.249815 3.7540128 0.39207238 8
5.5021515 -0.67506593 0.77947032 10
5.4774513 3.3720918 0.80408877 9.6000004
5.2621994 3.7442844 0.85774636 10
5.4020443 -1.1388255 1.0858701 12.333333
5.2512403 -0.7468918 0.99921846 12
5.5002265 3.3117449 1.2321918 11.333333
5.285634 3.7094009 1.1553656 11
5.5187974 9.1282606 1.4583304 10
5.3881464 -1.1288966 1.5149932 14.25
5.4327607 -0.76611912 1.6115546 15
5.5642695 3.1464927 1.4475393 13
5.4525938 3.411525 1.5066394 13
5.3274751 3.6664917 1.615881 13
5.4484663 3.4091165 1.9689306 14.5
5.283299 3.7530229 1.8269497 14
5.2754993 9.1367483 2.2388611 12
5.4991555 7.0463557 2.6226354 14
5.1864305 7.8075757 2.5149372 14
5.3572536 7.4127378 2.7820683 14.333333
5.18471 7.775568 3.0229743 15
5.6304827 3.0902271 -0.50386387 4
5.7810931 -1.0079213 0.016060038 7
5.6575012 -0.46068105 -0.0047186571 6.5
5.9471049 2.5632877 0.071176291 6.5
5.6640716 2.959245 0.099584296 7
5.8432312 -0.99094445 0.2142144 8
5.7296362 -0.51014215 0.42020336 9
5.9322515 -0.39497161 0.41701958 8
5.8632255 2.6466763 0.42359671 7.75
5.7399426 2.9762836 0.30242696 7.5
5.6139336 3.2154114 0.35389167 7.5
5.7637558 -0.49901712 0.73205465 10
5.9711485 2.2847385 0.74964446 9.666667
5.8711123 2.5974514 0.76095152 9.5
5.7242646 2.9044662 0.80698901 9.6000004
5.6290441 3.1995411 0.77921283 9.5
5.6835446 5.6957779 0.84351683 9
5.7825117 -0.98906642 1.0950611 12
5.7458987 -0.54655874 1.2461512 13
5.8697734 2.5966897 1.1970235 11.5
5.6899734 2.9592254 1.2211815 11.6
5.7621918 5.6893544 1.0867417 10
5.8155694 -0.95732135 1.3984052 13.5
5.9512324 2.3644326 1.4095474 12
5.8758736 2.5851977 1.4321315 12.5
5.7484431 2.9514868 1.6118587 13.5
5.6004171 3.2726836 1.6674324 13.5
5.6944351 -1.0032198 1.7428008 15
5.6851587 -0.6119988 1.8224484 15
5.9563832 2.3607922 1.8555443 14
5.8753681 2.5519831 1.9727482 14.6
5.7159696 2.9031792 2.0442679 14.75
5.5648475 9.1371269 2.2715628 12
5.7122531 3.662082 2.2640624 15
5.7671652 6.563601 2.5354218 14
5.5752506 6.8110104 2.5742996 14
5.7713399 7.4627972 2.4807444 14
5.8607574 6.9646478 2.995671 15
5.7112641 7.304213 3.0950575 15
6.0707526 2.4682009 -0.41023219 4
6.2276516 5.9969134 -0.32444501 5
6.0310459 -0.32105413 -0.16129351 6
6.2188387 1.7454665 0.16360217 7
6.1335106 2.2289822 0.052212246 6.5
6.0148773 2.4460437 0.022574171 6
6.0066833 5.9463878 0.18854229 7
6.0676522 -0.28515765 0.30960014 8
6.3549514 0.11736051 0.3438479 8
6.1809354 0.56515545 0.20607229 7
6.3309665 0.98609459 0.22824512 7.5
6.2846074 1.3407438 0.37922901 7.75
6.1878171 1.8261987 0.42666876 8.1999998
6.1358776 2.118144 0.38020849 8
6.0079384 2.471379 0.24612282 7
6.0512204 8.8786306 0.67577714 8
6.1716757 0.96716607 0.62454414 9
6.3134203 1.4218043 0.78404385 9.5
6.2094388 1.7951338 0.81991684 9.6000004
6.054718 2.074595 0.89115554 10
6.3019085 1.4879955 1.2257851 11.5
6.2110209 1.8442309 1.1285729 11
6.0838194 2.1888542 1.203657 11.5
6.1904869 11.04624 1.2954819 9
6.0173869 -0.87184054 1.6804065 14
6.1993847 -0.31934813 1.3646344 13
6.2742252 1.5562053 1.3695202 12
6.2242742 1.8138312 1.449317 12.333333
6.0916171 2.1960132 1.4981134 12.6
5.9878087 2.4973781 1.5647472 13
6.0498085 -0.86410075 1.8427823 15
6.1675563 -0.38858739 1.9905266 15
6.3219318 1.4594162 1.9721153 14.5
6.2018852 1.7787635 1.9685892 14.5
6.041007 2.1831746 1.9417297 14.6
6.2418814 6.0298367 2.4638329 14
6.0007215 6.3634787 2.5131536 14
6.267612 5.9460669 2.8839514 15
6.2040324 6.123208 2.8865676 15
6.016973 6.5648122 2.9430625 15
6.4326925 0.19982076 0.15256234 7
6.4046631 0.7933026 0.17519106 7
6.436687 1.3171355 0.26416019 7.5
6.5742517 7.5372281 0.54656243 8
6.722455 0.34072062 0.77751929 10
6.6119828 0.62910086 0.79715049 10
6.4497476 1.0483278 0.77515674 9.666667
6.4659886 1.3168757 0.77150601 9.5
6.4580612 11.103373 0.81954741 8
6.7644706 0.28931159 1.3206766 12
6.6486545 0.59126139 1.2019045 11.4
6.4949517 0.98809576 1.1928468 11.5
6.503428 1.3101379 1.2002614 11.4
6.4027896 1.6744829 1.2772706 11.5
6.6909647 0.58047527 1.6818608 13
6.7067719 1.0928497 1.5088142 13
6.4950967 1.364581 1.604513 13.333333
6.4239011 1.6543522 1.5667983 13
6.5097852 -0.79155356 1.803481 14
6.6730232 0.60599393 1.9563203 14.5
6.5289602 0.9551844 1.996599 14.6
6.3886552 1.2997037 2.1214714 15
6.6358824 5.8416047 2.4684815 14
6.4835563 5.9796801 2.481359 14
6.6458855 8.9035006 2.327467 12
6.6586447 4.9169126 2.6848154 15
6.5222759 5.3297372 2.7671959 15
6.438972 5.5539885 2.8249335 15
7.081975 -0.61302447 0.26149791 8
7.1913724 0.21705432 0.1979823 7
6.9417987 7.3594999 0.34505597 7
7.0710635 -0.5223012 0.91371316 10
6.9248033 -0.10619845 0.94583589 10
6.7976723 0.19375189 0.768767 10
7.0759287 -0.56698519 1.1689888 11.333333
6.9856014 -0.24922946 1.1256677 11
6.822648 0.15867269 1.2342948 11.5
7.0080166 0.4873333 1.0719221 11
6.7790303 0.9644925 1.1132644 11
6.8647051 -0.70514458 1.7203668 13
6.9985938 -0.19510372 1.6354467 13
6.8496156 0.18086432 1.6548382 13
7.005322 0.50710893 1.586323 12.666667
6.8043432 0.907601 1.6881106 13
7.0256472 10.157279 1.570598 10
6.9611034 11.38533 1.683009 10
7.1107016 -0.5486061 1.9644476 14
7.0271354 -0.24213348 2.0155969 14.428572
6.8700933 0.16277635 2.0636075 14.6
6.852941 0.50465649 2.0697405 14.5
7.0718646 11.350624 2.057317 11
6.9566426 4.5885243 2.6208193 15
6.7994781 4.657155 2.7622583 15
7.2913833 -0.95459908 0.3817212 7.6666665
7.2104621 -0.79354936 0.24115917 7
7.3853488 -0.096221656 0.32248777 7.6666665
7.3821473 6.7258167 0.92380422 9
7.2904382 -0.88634777 1.1035671 11
7.2489791 -0.81964719 1.3048586 12
7.1786571 0.15433341 1.0453721 11
7.273778 11.534272 1.5198255 9
7.3989558 -0.96781218 1.6248095 13
7.2102814 0.11257511 1.4250275 12
7.4681287 10.274876 1.5988041 10
7.3300495 -0.92594177 1.8008205 13
7.2061539 -0.71139753 1.9754791 14
7.1905212 0.13595083 2.0025065 14
7.3059063 -0.88047719 2.1691995 15
7.221158 -0.71137446 2.1565919 15
7.2177939 8.554369 2.5196137 13
7.2894034 10.295896 2.5804574 12
7.2173738 11.40123 2.44329 11
7.213047 11.047378 3.0472343 13
7.9026284 7.8499928 0.49836233 8
7.6955194 11.886827 1.1733632 9
7.9354973 10.515793 1.4963114 9
7.8530536 11.835608 1.5585184 9
7.8796582 8.5550766 2.107141 11
7.8352394 8.2870064 2.4161494 12
7.7692699 8.5112963 2.4136794 12
7.7113528 11.575329 2.4946582 11
7.7576499 9.5507822 3.1190205 13
8.331089 12.06791 1.1995456 9
8.1886158 10.564884 1.7652771 10
8.2215204 9.6800814 2.224232 11
8.0004883 8.0797863 2.4070361 12
8.0916824 8.3679762 2.398777 12
8.0512228 10.422935 2.732672 12
8.2024717 11.711931 2.5397198 11
8.130249 9.3082256 3.0964253 13
8.4621429 10.673954 1.5178987 9
8.4982367 12.182918 1.6020544 9
8.5954342 10.722441 1.6871799 10
8.6550798 12.246768 1.9729574 10
8.5903015 11.672076 2.5518124 11
8.4829884 9.0362358 3.0672636 13
8.6602001 10.547968 2.8307335 12
8.8726482 7.7754264 0.23669657 7
8.862195 6.9491878 0.49255231 7
8.9640474 8.490571 0.49002007 7
8.9538736 12.597525 0.89839536 8
9.0419645 10.937723 1.4640013 9
8.7774096 10.791478 1.8260665 10
8.8834133 7.288208 3.0780492 14
8.9618568 8.8876925 3.0788205 13
8.9629498 10.676132 2.8452086 12
9.5625868 6.4740124 0.83784306 8
9.5417747 7.5126004 0.96315318 8
9.4171143 11.048914 1.8912752 10
9.3535547 12.589972 1.7322952 9.5
9.2192945 7.0437059 3.064976 14
9.3068018 10.808537 2.9460185 12
9.9263592 9.122508 0.2591272 7
9.9366264 8.9724503 0.47372478 7
9.8144283 12.879061 1.2445278 8
9.8178635 11.2568 1.5898032 9
9.9574699 12.942612 1.6968887 9
10.106729 11.317961 1.9612266 10
10.205847 9.16434 2.73033 12
10.065832 8.2421732 3.0479491 13
10.271879 9.0318346 2.8203473 12
10.140287 9.3389473 2.8451567 12
10.503381 11.487106 1.6189096 9
10.657395 11.549784 1.8461752 10
10.737248 7.8144145 2.7202928 12
10.626661 8.1114864 2.7451746 12
10.435389 8.5959997 2.7545433 12
10.46534 7.9622264 3.0298193 13
10.915187 7.7668185 0.95928293 8
10.872158 11.632433 2.0402026 10
10.839845 7.1520438 2.6503086 12
10.842802 7.5140948 2.6968668 12
11.080501 7.823133 2.6220376 12
10.785551 8.0017395 2.6162136 12
11.300536 12.350196 0.66826957 7
11.543439 11.93633 1.1289167 8
11.400686 12.166536 1.1836479 8
11.308475 12.848644 1.2136943 8
11.240786 11.772993 1.5402716 9
11.302797 12.746839 1.6972573 9
11.830245 11.398171 1.073773 8
11.754431 11.538147 1.5849887 9
11.668585 11.9247 2.1197937 10
12.05138 10.919652 1.07095 8
12.315771 10.515611 1.486986 9
12.162085 11.874853 2.1479743 10
12.506855 9.6009579 -0.45769644 5
12.724326 10.526106 1.239941 8
12.58912 10.930326 1.2923627 8
12.750643 10.435909 1.8147055 9
12.614846 10.82253 1.8484991 9
12.473047 11.205051 1.8825979 9
12.45292 11.725081 1.9325171 9
12.619708 10.971218 2.1036642 10
12.495075 11.636984 2.1524267 10
13.033577 9.7520599 1.1427749 8
12.882006 10.095838 1.4833202 9
13.057672 9.675209 1.8859924 9.5
12.909563 10.035215 1.9112548 9.5
12.792166 10.379158 2.063215 10
13.397425 9.0214272 1.6982226 9
13.188823 9.3053665 1.8584777 9.5
13.33549 13.024661 3.0009291 11
13.772698 12.260662 2.9069817 11
13.595442 12.677613 2.9612622 11
14.081665 11.199359 0.10651813 6
14.210265 11.09551 0.39784425 7
14.215752 11.867426 0.14818723 6
13.977822 11.877244 2.8590076 11
14.807201 11.462177 -0.37307605 6
14.682926 11.424016 1.0065687 8
14.377707 11.977594 1.1932346 8
14.705604 11.06599 3.2405617 11
14.595867 11.339026 3.1590939 11
15.055016 10.251614 3.1366339 11
14.882834 10.657951 3.1875248 11
15.514764 10.384188 2.2472608 10
15.179695 9.9455853 2.8361108 11
15.180347 9.8148518 3.0784416 11
15.653941 10.060725 1.1094086 8
15.646918 10.019816 1.8801837 9
15.681348 9.9841623 2.2233853 10
