# .PCD v0.7 - Point Cloud Data file format
VERSION 0.7
FIELDS x y z intensity
SIZE 4 4 4 4
TYPE F F F F
COUNT 1 1 1 1
WIDTH 118
HEIGHT 1
VIEWPOINT 0 0 0 1 0 0 0
POINTS 118
DATA ascii
-2.9411073 3.6156819 0.37581635 9
-2.9224637 3.6852875 0.51349896 10
-2.8790257 3.0240021 0.76532406 12
-2.8903973 3.7063613 0.70236325 11.5
-2.9790504 3.5499463 0.97865152 13
-2.9045258 3.6733947 1.1519338 14
-2.6393354 1.829476 0.16222934 9
-2.7533121 2.5554845 0.25929767 9.5
-2.6362498 1.7490636 0.44704035 12
-2.6486325 1.9987568 0.42318809 11
-2.6823213 2.2123249 0.50472087 12
-2.776473 2.8030584 0.53033304 11
-2.717236 2.1592662 0.6295234 13
-2.6297596 1.9592311 0.84155095 15
-2.7115059 2.5289733 0.9343124 14.5
-2.53847 1.2975099 0.49467489 13
-2.6067801 1.8360027 0.74915653 14
-2.4666994 1.1292624 0.76018918 15
-2.2550764 -0.74953228 0.5196299 14
-2.2678652 -0.5304293 0.54096687 15
-2.4110911 3.7960835 0.69871438 11
-2.4300148 3.7492521 0.88753635 13
-2.2916646 3.8238063 1.195369 15
-2.1719329 -0.71066624 0.10235586 9
-2.068439 -1.0855502 0.15792756 10
-2.1552513 -0.70316994 0.22921658 11
-2.1853507 -0.52206856 0.20778528 10.5
-2.0886605 3.8264828 0.37161887 9
-2.1530619 -0.73632783 0.39334616 13
-2.1547668 3.8060675 1.0102575 14
-1.9286112 -0.46967986 0.31465259 13
-1.7930477 3.8875947 0.51478022 10
-1.3934008 -0.76066148 0.23628598 12
-1.0560308 -0.97179121 0.20672695 12
-1.1106707 -0.7200349 0.26190779 13.5
-1.081516 -0.94409347 0.36440647 15
-1.1848601 -2.5245359 0.74901241 15
-0.82905293 -1.4845675 0.266978 12
-0.82149589 -1.2337958 0.1499417 11
-0.89484441 -1.0243016 0.25188375 13
-0.91317028 -0.95954174 0.25031787 13.666667
-0.84515625 -1.3531973 0.3950856 15
-0.74189031 -1.7249379 0.07625629 9
-0.79063553 -1.7110534 0.16255876 10
-0.70823503 4.0749331 0.53478241 9
-0.56023413 -2.4080145 0.16466837 10
-0.48001015 -2.3865156 0.60364783 15
0.0042752721 -0.67006403 -0.21510074 0
-0.095577553 -2.3519065 0.054795641 8
0.20011637 -0.73588747 -0.21708578 0
0.40374672 -0.85211319 -0.21071707 1
0.31353694 -0.61803389 -0.20334275 0
0.40357187 -0.59451622 -0.21101089 0
0.40315437 -1.1656728 -0.20817269 3
0.59323329 0.7593165 -0.25932032 0
0.5192256 1.1097661 -0.25174811 0
0.42470628 4.270062 0.55132967 10
0.47898692 4.2805943 0.76567692 11
0.49575382 4.2721605 0.94839317 12.5
0.52312809 4.2807999 1.1752689 14
0.53963774 4.2714305 1.3502678 15
0.83101898 1.0860951 -0.26104283 1
0.94165015 -2.1751006 0.44261667 12
0.91105133 7.3356776 0.72114831 9
0.9669888 -2.221647 0.62377524 14
1.2612269 0.14574324 -0.24770635 1
1.4070772 -2.0552578 0.11643082 8
1.3973399 -2.0760746 0.23544702 10
1.667743 -2.013535 0.1304847 8
1.7388387 -2.027796 0.25599182 10
1.6943382 -1.9968902 0.42969131 12
1.6931764 -2.1282334 0.73902792 14.5
1.9102149 -1.9888494 0.18248877 8.5
1.9460566 -1.958142 0.37838405 11
1.9855298 7.571435 1.5458078 12
2.3520446 7.6166348 1.0574937 10
2.5779226 -2.4235022 0.018519484 7
2.3849719 7.5615315 2.0469682 13
2.9865751 -2.1722038 0.1273302 8
2.917011 6.9556904 1.5550853 12
3.1386552 -2.0971143 0.094174303 7
3.1753986 -2.5329344 0.30073029 9
3.3480957 -2.3928342 0.4380137 10
3.2726007 -2.4253058 0.80287951 12
3.2723563 -2.5807943 1.2265519 15
3.5171759 -2.3581817 0.40576327 9
3.7836225 -2.3311987 -0.049862873 6
3.7054935 6.4563541 1.0832087 10
3.5979667 -2.5726907 1.1803244 14
3.8255694 5.6143413 1.0644748 11
3.8895922 5.8647971 1.5695153 12
3.8089311 7.5314288 2.5481479 15
4.1472111 -2.1956754 0.28473347 8
4.006978 5.0628762 0.99964154 10
5.649209 1.8514612 0.27497399 7
5.6878371 1.6957917 0.60790026 9
5.6351757 1.9391993 0.43337899 8
5.6015563 2.1463132 0.86257297 10
5.6916561 1.6937325 1.1543243 12
5.630795 2.042644 1.0479399 11
5.6065159 2.1486335 1.2772948 12
5.683517 1.8174617 1.538233 13
5.7079148 1.9247589 2.0329981 15
5.9406481 0.66447031 1.3658731 13
5.9079084 0.19739036 1.7780204 14
5.8086476 1.5647917 1.7309016 14
6.0106187 0.19240345 0.9621675 11
5.9909186 0.30648831 1.141278 12
6.0877652 -0.3970449 1.3666952 13
6.0159373 -0.97150582 1.6704761 14
6.095118 -0.28829685 1.6549324 14
5.9903007 0.41828963 1.8904977 15
5.9016089 7.1016655 3.1070321 15
6.2212291 -1.059734 1.443241 13
6.3236299 -1.7094625 1.6652019 13
6.1759906 -0.76433867 1.8905549 15
8.9992571 6.1022482 2.2290967 12
14.111842 7.8512287 1.4677478 9
