# .PCD v0.7 - Point Cloud Data file format
VERSION 0.7
FIELDS x y z intensity
SIZE 4 4 4 4
TYPE F F F F
COUNT 1 1 1 1
WIDTH 23
HEIGHT 1
VIEWPOINT 0 0 0 1 0 0 0
POINTS 23
DATA ascii
-0.11988421 -0.94312036 -0.18746634 120.66666
0.027117928 -0.94842184 -0.19408129 127.33334
0.16113026 -0.95910549 -0.19548875 128
-0.069752984 -0.85436064 -0.19598556 133
0.067354374 -0.8447938 -0.19619313 131.5
0.19083801 -0.83408368 -0.1950047 135
-0.024140842 -0.7693786 -0.19480452 140
0.048319798 -0.75185281 -0.19734101 141
0.11579034 -0.7206853 -0.19967668 144
0.031928688 -0.66642332 -0.19653673 146
0.12469194 -0.6963321 -0.1979869 139
0.090682946 -0.55866146 -0.19856589 155
0.16971232 -0.57886559 -0.19797456 160
0.13545279 0.18845579 -0.13779403 140.22223
-0.099130295 0.29503864 -0.19651066 185
-0.020772696 0.27744782 -0.15273374 177.5
0.05256946 0.22885737 -0.10720625 163
0.11305766 0.20285492 -0.11579704 141
-0.068510279 0.36360139 -0.19401404 184
0.041202515 0.18897958 -0.037197191 147.86363
0.12606573 0.18649554 -0.081726171 126
0.055223562 0.20948914 -0.061978787 150
0.027106076 0.19245735 0.0068289102 138.5
