# .PCD v0.7 - Point Cloud Data file format
VERSION 0.7
FIELDS x y z intensity
SIZE 4 4 4 4
TYPE F F F F
COUNT 1 1 1 1
WIDTH 718
HEIGHT 1
VIEWPOINT 0 0 0 1 0 0 0
POINTS 718
DATA ascii
-4.212852 -1.3121903 1.1932136 15
-4.1481953 -1.1067796 1.171048 15
-3.6784365 -0.97237414 1.0659977 15
-3.7024918 -0.69074357 0.98951864 15
-3.341527 -0.92991203 0.21181412 9.3999996
-3.269778 1.4123648 0.24530791 9.5
-3.3760593 -0.89548498 0.55070442 12
-3.2366371 -0.7417953 0.63088822 13
-3.2765737 1.4034111 0.58820248 12.166667
-3.5382669 -1.4449661 1.0359812 15
-3.5674415 -0.84726095 0.94025332 15
-3.2812345 1.3529319 0.88090724 14.333333
-3.0118036 -1.0708004 0.2073129 9.4285717
-3.0104368 -0.67770612 0.23059386 9.5
-3.1150558 1.4609812 0.26633108 9.5
-3.0030546 1.7969707 0.24987428 9.3999996
-2.8945489 2.2093997 0.25282145 9.5
-3.0489814 -1.0423011 0.5321418 12
-3.013952 -0.76515812 0.49773219 12
-3.1014516 1.4766793 0.53186303 11.714286
-3.0547938 1.7749103 0.56244481 11.9
-2.8866322 2.2212408 0.60089231 12
-2.9999919 -1.6534553 0.94680578 15
-3.0637851 -1.3821088 0.89644384 15
-3.1091924 -1.1838528 0.85893428 15
-3.1414292 1.4269223 0.90372002 14.8
-3.069581 1.8024068 0.86309499 14.285714
-2.8797503 2.2044618 0.89564741 14.142858
-2.5786724 -1.3147879 0.24407098 10
-2.7710128 1.8136226 0.25788885 9.666667
-2.6882303 2.6339517 0.25204319 9.1999998
-2.5209165 2.9681151 0.28804886 9.1999998
-2.6102676 -1.2882168 0.48621091 12
-2.7774777 -1.1907874 0.56221479 12.666667
-2.751534 1.8822467 0.56497866 12
-2.6973157 2.5988257 0.5743373 11.777778
-2.4993374 3.0005074 0.57462561 11.444445
-2.6486638 -1.416991 0.83057874 15
-2.7483969 1.882798 0.84917164 14.5
-2.8036866 2.3731713 0.96909696 15
-2.6748154 2.6295092 0.9484207 14.333333
-2.5071359 2.962677 0.97573513 14.2
-2.1839619 -1.5193795 0.22518465 9.8571424
-2.2890925 3.4195557 0.30188665 9.3999996
-2.132498 3.7202141 0.31549427 9.333333
-2.1382022 -1.6192003 0.76618916 15
-2.2223108 -1.4874653 0.54453486 13
-2.4000809 3.1883826 0.64159751 12
-2.2947021 3.3957286 0.51892865 11
-2.1012812 3.7730281 0.57266808 11
-2.2442575 -1.5752637 0.78794861 15
-2.3882761 3.1756117 1.0404706 14.5
-2.2732136 3.4352241 0.97320575 14
-2.1165094 3.732466 1.0367254 14
-1.7638524 -1.7306643 0.21578348 10
-1.8779011 4.232111 0.31787702 9
-1.631202 4.7104712 0.34053507 9
-1.8092419 -1.698902 0.52600986 13.333333
-2.003509 3.940994 0.72244686 12
-1.8997968 4.1751146 0.61215812 11
-1.7124107 4.5673118 0.66570228 11
-2.0020101 3.9147875 1.1666409 14.5
-1.8451815 4.2389297 0.98445499 13
-1.7119482 4.5112238 0.81236053 12
-1.9783616 3.9553957 1.1931167 15
-1.8390627 4.2418318 1.2365111 14.6
-1.6874213 4.5353947 1.2922927 14.333333
-1.3685174 -1.9087082 0.23940171 10.222222
-1.5155729 4.9350061 0.36016032 9
-1.4584868 -1.8662252 0.55231267 13.777778
-1.4746954 5.0164943 0.59109288 10.25
-1.2401985 5.2346406 0.65934509 10.5
-1.5830193 4.7511673 0.84749168 12
-1.4275464 5.0518637 0.87627298 11.75
-1.2871767 5.2690601 0.97095674 12
-1.5693424 4.7448416 1.33687 14.5
-1.4427365 5.0030584 1.4171772 14.6
-1.2976335 5.2464619 1.3979828 14.5
-0.95129365 -2.8899317 0.19381417 9
-0.98886681 -2.1078167 0.222837 10
-1.1766324 -1.9936907 0.22920559 10
-0.87961233 1.7645577 0.34041995 12
-0.91534209 -2.8804851 0.5297091 12.2
-0.99380875 -2.7932625 0.71824294 14
-0.97418064 -2.1178787 0.53252989 13.5
-1.1852957 -1.978205 0.55552542 14
-0.83511084 1.7573769 0.4012987 13
-1.0091192 5.1281838 0.53746265 9.8000002
-0.96232033 -2.8625779 0.85153902 15
-0.9772442 5.1218133 0.94526321 12
-1.1752621 5.2206502 0.94065511 12
-0.99196517 5.1496639 1.4581399 14.666667
-1.1402243 5.2361999 1.4470264 14.5
-0.67492646 -3.0658092 -0.02195414 7
-0.47626561 0.70049912 -0.22724135 0
-0.44888997 1.0117506 -0.23510477 1
-0.47687179 1.3729481 -0.24047054 2.5
-0.53604388 1.6891651 -0.24694628 3
-0.60453278 -2.9953401 0.18711935 8.75
-0.50884885 -2.7998593 0.20142838 9
-0.77735174 -2.234421 0.29323995 11
-0.59093243 1.7923466 0.38855171 13
-0.75723702 2.0247331 0.31843448 11
-0.6560297 -3.0172882 0.56295681 12.363636
-0.79469216 -2.1817381 0.55952716 14
-0.70600003 1.6836462 0.39679667 13
-0.60880321 4.9347506 0.64508098 10.428572
-0.64588702 -3.0163689 0.880696 15
-0.6272471 4.9400387 0.97567117 12.571428
-0.6051318 4.9644608 1.3836457 14.6
-0.095444381 4.9024005 -0.42890042 4
-0.0093974695 -3.4534447 -0.052274048 7
-0.23275396 -2.5725875 -0.16027051 5
-0.13686778 -2.1777999 -0.16689803 5
-0.23256315 -1.7890366 -0.16363892 4.75
-0.14020011 -1.3725365 -0.17506279 3.6666667
-0.027941031 -1.0851622 -0.18356024 2.5
-0.19132489 0.78152823 -0.24178313 0
-0.20593686 1.0307913 -0.24120045 0.71428573
-0.18469603 1.3779018 -0.24488364 2
-0.18891859 1.8512864 -0.26291481 3
-0.14105412 2.2418807 -0.2870985 3
-0.2015868 2.4917619 -0.2903797 4
-0.27365968 2.8036323 -0.30874085 4
-0.13395366 -3.3031051 0.21735509 9
-0.20457155 -2.9814913 0.17808077 8.875
-0.2868166 -2.7627974 0.044079248 7.5
-0.097419269 -1.6519502 0.27458522 12
-0.18630192 -3.2774336 0.50974345 11.5
-0.35499197 -3.1662667 0.57393622 12.5
-0.16302595 -1.6586398 0.46200261 14.666667
-0.16450557 4.7121844 0.67370379 10.833333
-0.3854942 4.8406377 0.76803803 11
-0.17562799 4.7203379 1.011436 13
-0.35215628 4.8149123 0.90332198 12
-0.17550325 4.7424259 1.3988736 15
-0.32254264 4.8189702 1.3504305 14.666667
0.28260091 -3.4281967 -0.040845405 7
0.08544156 -2.8351727 -0.17130873 5
0.11949421 -2.4967198 -0.16540667 5
0.15293966 -2.178036 -0.16536023 5
0.2034329 -1.6975554 -0.16557837 4.5
0.13001455 -1.3957804 -0.1712959 3.7142856
0.19449082 -0.98792106 -0.19893628 1.5454545
0.15428805 -0.7237798 -0.2048637 0
0.2036209 1.0520487 -0.25920618 0.33333334
0.14292425 1.3639467 -0.26018107 1.6
0.16951352 1.7377279 -0.26712134 2.5999999
0.17161106 2.1500251 -0.28068674 3
0.13300113 2.5290718 -0.29365987 4
0.10087212 2.8240526 -0.29533401 4
0.063072339 3.2113438 -0.31529012 4
0.22091189 -3.4179924 0.17479801 8.5555553
0.060830306 -2.9902217 0.16176836 8.666667
0.32771403 -1.6027201 0.26408935 12
0.24413744 -1.3616414 0.20433168 11.333333
0.18466236 -3.3961468 0.4916932 11.142858
0.1224418 -1.7912205 0.47504947 14.5
0.19304259 -1.5775172 0.43685201 14.5
0.17302886 4.5348029 0.65036172 10.9
0.16050969 4.5537791 0.98788327 13
0.15747038 4.5720706 1.3599135 15
0.54613745 4.5209246 -0.41507888 4
0.52087682 -3.6998317 -0.076088086 6.6666665
0.54483396 -3.5755332 -0.050792154 7
0.60288697 -2.4153278 -0.14477396 5.5
0.62109876 -2.1489801 -0.13076384 5.5
0.57706356 -1.7932646 -0.18097228 4.1999998
0.55776668 -1.4036422 -0.19221905 3.3333333
0.56610984 -1.007586 -0.20915115 1.9
0.59426522 -0.64543813 -0.22501197 0.33333334
0.75298464 -0.23837279 -0.22574757 0
0.6491698 0.64248437 -0.24814217 0
0.61104906 0.97760713 -0.26005515 0.5
0.53856671 1.3865843 -0.2660124 1.8
0.57172823 1.8110183 -0.2749742 2.75
0.60297674 2.1785178 -0.28658888 3
0.57846522 2.540298 -0.2962186 3.6666667
0.48725942 3.0500431 -0.31305704 4
0.49856573 3.4100318 -0.32558894 4
0.63951457 -3.6274593 0.20137127 8.75
0.54793459 -3.5838768 0.23675083 9
0.602337 -2.2061987 0.18462813 9.3999996
0.72783172 -1.7126009 0.22633599 10.5
0.64623278 -1.3974713 0.22236477 11.2
0.63267893 -3.6186645 0.5480634 11.5
0.48711008 -3.5617321 0.5029788 11
0.58621931 -2.0789948 0.46961954 13
0.73243618 -1.8510852 0.46655494 13.666667
0.69918364 -1.4248102 0.46148404 15
0.62346816 4.3033938 0.62712169 10.857142
0.4312242 4.4003282 0.69645536 11.5
0.62922662 4.309339 0.9808495 13.285714
0.43821961 4.4174995 1.0181047 13.5
0.63755083 4.3135548 1.2795355 15
0.44681844 4.4184761 1.3322288 15
0.83467418 -2.8421955 -0.15356138 6
1.1529208 -1.6983671 -0.21025747 4
0.89123344 -1.4650792 -0.1562928 4.5
0.98905003 -0.98757631 -0.22596197 2.2857144
1.0145569 -0.61998558 -0.24093735 1.2
0.97190124 -0.26907951 -0.24415669 0
0.84087449 0.71471226 -0.25667474 0
0.95354992 1.0318992 -0.26273826 1.6
0.98231059 1.3647199 -0.2744289 2
1.0134915 1.7714536 -0.28513744 3
1.0494345 2.1657386 -0.30204892 3
0.82481718 2.6169305 -0.3060503 4
0.92093116 3.2004099 -0.32688731 4
1.0837467 4.1808043 -0.36715567 4
1.0716621 -3.7799025 0.23123233 8.666667
1.1486934 -2.4810655 0.23310578 9.5
0.96268964 -2.2675798 0.13739212 8.8000002
0.95350331 -1.6930542 0.12409154 8.666667
0.96622854 -1.4843502 0.2871438 11.5
0.9683035 4.3207211 0.17724784 8
0.99321657 -3.7832472 0.54857576 11
0.91548425 -2.1584947 0.46091282 12.5
0.93467742 -1.7437654 0.46822312 13.6
1.0005862 -1.5055652 0.47224015 14
0.96229959 4.1309485 0.60243106 10.888889
1.0132221 -3.7850456 1.12538 15
0.97296947 4.1352515 0.98596334 13.444445
0.95880717 4.1469164 1.2555856 15
1.5697495 3.8817017 -0.37874466 4
1.3732195 -2.2159519 -0.15745647 5.25
1.5022022 -1.8004783 -0.22127928 4
1.3382131 -1.3969357 -0.22504592 3.6666667
1.3847461 -0.95311862 -0.23688951 2.8
1.3994168 -0.57699764 -0.25372839 1.6666666
1.3605509 -0.39338461 -0.25790718 0.5
1.2709806 1.4154598 -0.2793881 2.5
1.3919826 1.7780509 -0.29438171 3
1.3509053 2.1108963 -0.30781394 3
1.433117 2.5904825 -0.32691529 4
1.3009675 2.9969108 -0.33724365 4
1.4372412 3.4413717 -0.36304444 4
1.5537043 3.9933498 -0.18688394 5.5
1.5448728 -4.0609684 0.23758127 8.5
1.3409256 -3.9324532 0.24591985 8.5
1.3196671 -2.5789752 0.27799064 9.6000004
1.4507027 -2.1455991 0.10197215 8
1.5110205 -1.8652542 0.22290786 9.5
1.3956074 3.8997333 0.4141736 10
1.4559324 4.0488777 0.26219016 8.5
1.4727051 -4.0612788 0.55256432 11
1.316636 -3.961833 0.5523563 11
1.364622 -1.6546044 0.49519002 13.333333
1.200314 -1.5708153 0.4612014 13
1.4219252 3.8948052 0.63051474 11
1.2057002 4.0074592 0.6418072 11
1.4932296 -4.0601025 1.154557 14
1.27626 -3.9394641 1.144882 14.5
1.4224193 3.9084799 1.0507981 13.833333
1.2257408 4.0030537 0.96094906 13.5
1.4826281 -4.0498815 1.2292521 15
1.307375 3.9735057 1.233907 15
1.2172823 4.014019 1.2388133 15
1.8693211 -3.2928746 -0.20628679 5
1.6881697 -2.8918331 -0.20322812 5
1.9991376 -2.6013772 -0.23098199 5
1.6831034 -2.0935736 -0.22072577 5
1.7946032 -1.7317333 -0.22790778 4
1.7455142 -1.4060591 -0.23950973 4
1.7997909 -1.0378596 -0.25360689 3.3333333
1.7608055 -0.62270921 -0.26278722 2.3333333
1.7206776 2.142256 -0.3164278 3.5
1.7819412 3.0571084 -0.36140937 4
1.7851639 -4.2258592 0.20352703 8.333333
1.7419564 -2.1164722 0.1978541 9
1.7169931 -1.8562123 0.24749596 9.5
1.7691749 3.7929494 0.34423596 9
1.9808139 4.0952163 0.39166453 9
1.59653 -4.1125336 0.56992304 11
1.678075 -1.7569888 0.5327509 13
1.7445902 3.766551 0.63554335 11.25
1.6903077 3.784513 1.0495658 13.857142
1.7812587 -4.2031813 1.2817464 15
2.3397737 3.1424906 -0.3681207 4
2.0580585 3.6792276 -0.36806217 4
2.1019773 -2.8169782 -0.10038392 6.5
2.1064994 -2.7799392 -0.21836576 5
2.1635468 -2.2117462 -0.1374384 5.75
2.1500146 -1.6771328 -0.25110829 4
2.1442585 -0.97733307 -0.27093294 3.5
2.3170071 -0.77568519 -0.28097019 2
2.1103837 2.7719285 -0.34885657 4
2.016412 3.7172678 -0.13876347 5.5
2.0908279 -2.8699355 0.088482924 8
2.2175865 -2.0507071 0.14686385 8
2.3627839 -1.9142121 0.12523058 8
2.20857 4.0930309 0.37254059 9
2.0281575 -2.5789981 0.44749799 11
2.2764571 -2.0823579 0.48125395 11
2.0156553 -1.9697319 0.458206 11
2.1691477 4.1943808 0.54229331 10
2.0750909 4.1482863 1.3738333 15
2.8020031 -3.8342898 -0.037797701 7
2.4949887 -2.6010206 -0.20710519 5
2.4447289 -1.9625388 -0.23129073 5
2.4298465 -1.4997035 -0.2680206 4
2.4523945 -0.98731798 -0.28180811 3.5
2.7226713 3.8460593 -0.19888534 5.3333335
2.534219 -4.9582343 0.14841351 8
2.7706633 -3.93084 0.16541649 8
2.5370741 -2.2421508 0.21958624 8.5
2.4124079 -1.8536611 0.07236667 7.5
2.7261977 -4.0822482 0.57649344 10.5
2.687968 -4.8127751 1.5417711 15
2.7737565 -4.7873993 1.558061 15
2.8083212 3.9098828 -0.38261536 4
3.037756 -3.3062644 -0.042134225 7
3.2032695 -2.0661991 -0.28835371 5
2.8975124 -1.8421093 -0.28124461 4
3.1219652 -1.5189891 -0.2979483 4
2.9352508 -3.7280798 0.25997791 8.333333
3.0782599 -3.4601901 0.29717019 9
2.8912957 -3.8435726 0.50328887 10
3.1447518 -4.2107348 1.1301165 13
3.1813424 -3.995286 0.83072197 12
3.1115313 6.1908298 1.0039021 10.5
2.8873641 -4.5887456 1.5404505 15
3.0802 -4.2055221 1.5227976 15
3.1423268 6.1867127 1.3025548 12
3.3890388 -3.3799284 -0.10703909 6.25
3.5680122 -2.6266985 -0.011999653 7
3.5710654 -2.3548138 -0.16977079 6
3.4173837 -1.6830896 -0.30178809 5
3.2230866 -1.1368952 -0.31602839 3
3.4273312 -3.4011414 0.27555317 8.3999996
3.5180383 -3.1567609 0.29316008 8.5
3.5342085 -1.791711 0.13267478 7.5
3.3174853 6.0949726 0.40962213 8
3.2304845 -3.8863454 0.81431991 11.5
3.4754131 -3.4099948 0.81856894 12
3.4074886 6.1255641 0.64998174 9.333333
3.2922361 -3.8204994 0.93885911 12.333333
3.4706259 -3.4734197 0.92927104 12.4
3.3039973 6.096611 0.98555595 10.666667
3.2662277 -3.8401165 1.5173839 15
3.4816775 -3.4306114 1.5028406 15
3.3696916 6.1232057 1.4588224 12.666667
3.3408093 6.1093431 1.9262532 14.666667
3.344501 6.1362176 2.0974033 15
3.6641645 -3.0545998 -0.056514218 6.3333335
3.7660267 -2.5029652 -0.031368248 6.6666665
3.8387041 -2.3053451 -0.10172097 6
3.7338305 -1.867767 -0.21939829 5
3.7798383 -1.3626308 -0.27584189 4
3.6895785 -2.9818025 0.257337 8.25
3.8845463 -2.606178 0.19592224 8
3.6291807 -1.7498455 0.093175188 7
3.8410816 5.9528003 0.35836253 8
3.6738434 6.0493813 0.38520592 8
3.6554065 -3.2933462 0.61794919 10.5
3.7193792 -2.9834392 0.67229509 10.833333
3.9118347 -2.5921469 0.58780038 10.6
3.8739834 5.9419937 0.66226006 9.666667
3.6761603 6.042789 0.66195542 9.5
3.5938237 -3.2890599 1.0017618 13
3.7187252 -2.9917467 1.0027072 13
3.911278 -2.6064239 1.0122101 13
3.8563147 5.9585595 1.0372739 11
3.6696489 6.0511761 1.0449127 11
3.6123719 -3.2686274 1.4398423 15
3.7679596 -2.9752059 1.4463115 15
3.9355276 -2.619525 1.4581097 15
3.8743815 5.9523773 1.5153875 12.5
3.692601 6.0493317 1.471727 12.5
3.8950007 5.9455881 1.908811 14.5
3.6853104 6.0552835 1.9443099 14.666667
3.6404803 5.9569907 2.1096256 15
4.0562568 -2.238004 -0.034146495 6.3333335
4.2708821 -1.7630986 -0.045901533 6.5
4.0830488 -2.2100897 0.22386388 8
4.2685652 -1.8391157 0.25033545 8.3999996
4.223505 5.7518544 0.32974923 8
4.1269011 -2.160291 0.62971568 10.833333
4.2984734 -1.8109013 0.67108023 10.857142
4.1419263 5.8023915 0.58477497 9.25
4.0131202 -2.4326134 1.1803803 14
4.1503944 -2.1670551 1.0100551 12.888889
4.3063807 -1.812651 1.0304208 13
4.1817293 5.7890477 1.0382628 10.6
4.1506405 5.8169427 1.4827751 12.5
4.1910625 5.7945418 1.9029797 14.5
4.2196412 5.6856999 2.1134531 15
4.4704108 -1.385559 -0.051935803 5.5
4.6167626 -1.0279495 -0.016207164 5.5
4.4607739 -1.354248 0.25722641 7.1666665
4.6026607 -1.028926 0.22680597 7
4.6738119 5.5271544 0.28526428 8
4.4211721 5.6588588 0.38240913 8.5
4.4534903 -1.3750368 0.60199624 9.333333
4.6094952 -1.0381014 0.66333443 10
4.6041312 5.5617428 0.63314569 9
4.4566092 5.6336198 0.50971776 9
4.4045663 -1.617137 1.1072067 12.5
4.4623737 -1.406399 1.0423477 12
4.5963674 -1.0845234 1.0813016 12.285714
4.7015042 1.5914553 0.87740284 11
4.6932902 1.7089263 0.88880742 11
4.6836524 5.5248394 0.99611235 10.5
4.4553957 5.6448808 1.0094008 10.5
4.4762683 -1.3237754 1.2783989 13
4.6490417 -0.98742062 1.3216289 13.5
4.6391139 5.5582919 1.4602168 12.5
4.460855 5.6539617 1.4820247 12.5
4.6581802 5.5537105 1.99875 14
4.4913511 5.6437778 1.898999 14.5
4.6039805 5.4960608 2.1380744 15
4.9983354 5.3639216 0.32685649 8
4.9970345 2.2257047 0.71177131 9
4.9562235 5.3793368 0.74945974 9.3999996
4.8438597 1.9745849 0.99204671 11
5.0101614 2.2814066 0.93379766 10.5
4.9711008 5.3720984 1.0228411 10.666667
4.9788251 5.3831301 1.425666 12.4
4.962615 5.3976884 2.0000067 14
4.9695148 5.3065848 2.2004397 15
5.4892874 0.64432794 -0.0069462415 5.6666665
5.5112967 0.63841599 0.14038949 6.6666665
5.4681025 5.1159606 0.34044829 7.3333335
5.2375913 5.2228322 0.45545289 8
5.3286028 2.7060068 0.57759303 8
5.3661976 2.9316676 0.63972521 8.5
5.3573198 4.4571586 0.65622646 8.5
5.4327984 5.1351619 0.69927937 9
5.222198 5.2435799 0.74779326 9.5
5.1901069 2.2217214 0.88177949 10
5.3304114 2.7799456 1.153085 11
5.408535 3.0569577 1.0797315 10.5
5.4914312 5.1119847 1.079221 11
5.2437491 5.2324724 1.0865306 11
5.2718892 2.6527927 1.4021637 12.5
5.3696752 2.9223933 1.3666807 12
5.4756808 4.2300749 1.4944561 11.5
5.4356303 5.1535745 1.3225 11.5
5.2006035 5.2647786 1.3378868 12
5.2439299 2.5624609 1.7655087 14
5.5462265 4.3713899 2.0579681 14
5.4448361 5.1393142 1.9106032 13
5.2582321 5.2426572 1.8926138 13.5
5.5666142 4.2943215 2.1111648 14
5.4487596 5.1292548 2.2996373 14
5.2925835 5.2347264 2.3077314 15
5.8352246 0.55554932 -0.16984828 5
5.7632732 1.32655 -0.09099745 5
5.6154952 3.4922569 0.066708632 6
5.9354692 0.9988091 0.27266335 7
5.9038701 1.4562976 0.24471357 6.6666665
5.8880272 1.7475159 0.27146703 7
5.6280336 3.5132375 0.26394355 7
5.8251209 3.7567921 0.32673088 7
5.7910352 4.9614701 0.25875273 6.4000001
5.7822738 3.821517 0.75391215 9
5.9861712 4.1800599 0.86677855 9
5.9776664 4.7574015 0.55717146 8
5.661993 5.0299578 0.7371307 8.5
5.705658 3.5103953 1.1805453 10.5
5.7892332 3.7898519 1.1479534 10.333333
5.9829416 4.0937409 0.96993226 10
5.8373928 4.9526463 1.1324762 10
5.8567352 3.7150581 1.4470509 11.5
5.6464853 4.0580082 1.4893911 11.5
5.7859807 4.9707174 1.4261405 11
5.627955 4.2518349 1.8446667 13
5.74824 4.9929967 1.8938169 12.5
5.7106347 5.0421562 2.288739 14
6.379878 0.54240686 0.34514427 7
6.0764894 1.0419101 0.35027388 7
6.1762433 1.5219089 0.38769531 7.5
6.0543103 4.7064633 0.25337151 6.5
6.2410622 1.7112043 0.51418906 8
6.0929914 4.6862082 0.6962415 8.333333
6.0815659 4.2828388 1.0721302 10
6.0803118 4.7284489 1.1312594 10
6.0297728 4.7718549 1.997583 13
6.1718173 4.7565188 2.1566558 13
6.0207496 4.8856359 2.3158679 14
6.6753411 0.40605345 -0.0056502502 6
6.4682283 0.99170285 0.054149758 6
6.4661674 0.3984327 0.32941034 7
6.4145265 0.46158275 0.17635977 6.5
6.5812359 0.87077069 0.38219658 7
6.4726806 1.3998548 0.44075188 8
6.5577922 0.30702484 0.64648509 8.5
6.4892578 0.46422282 0.64114869 8.5
6.5838547 0.83767927 0.49502867 8
6.5563378 1.7903688 2.1406884 14
6.6829605 4.2421484 2.4953725 14
7.045579 1.5901735 0.080881946 6
7.0725093 0.26989388 0.31192914 7
7.1660094 1.5766444 0.20867275 6
7.0676394 4.3460379 0.58625787 8
7.0682926 1.5093759 2.2014365 14
6.8256278 1.6188359 2.1676402 14
6.9047999 4.157711 2.5138681 14
7.507328 4.1114469 -0.018768327 6
7.506084 2.5686283 0.39803845 7
7.5455847 0.74682826 2.3790476 14
7.4592533 3.9646633 2.3693633 13.5
7.5317006 4.153295 2.3648686 13
7.5115991 3.8260744 2.5498734 14
7.6987481 3.9790561 -0.044871747 6
7.6470852 4.021903 -0.074471883 5
7.6303802 1.373548 0.43314886 7
7.6638737 3.994168 0.42716047 7
7.8153996 3.9601803 1.1120757 9.5
7.6224046 4.0284567 1.1473604 9.5
7.6863303 0.50974643 2.3716166 14
7.8896713 1.1401198 2.113507 13
7.8964396 1.3445438 2.3101821 13.666667
8.0741968 0.96360809 -0.33459121 5
8.069294 1.6230794 0.028059563 6
8.3925285 -0.65588933 0.20263915 6
8.0586653 1.4719323 0.16643475 6
8.0491543 3.8885012 0.73425663 8
8.1022882 3.8370438 1.2898345 10
8.0777035 1.0395651 2.278059 13.666667
8.2385387 1.9398448 2.2484682 13
8.1394978 2.2658918 2.3560939 13.5
8.211648 2.4231756 2.3769424 13
8.2809658 3.4970529 2.3801198 13
8.2430487 3.4900837 2.6150947 14
8.5962191 -0.14647472 -0.09788616 5.5
8.574111 0.12345102 -0.028749142 5.6666665
8.4461575 3.6272399 -0.13659593 5
8.5011597 -0.46379176 0.22370841 6
8.5448742 -0.12958369 0.31126565 7
8.5389757 0.12858407 0.29038742 7
8.4384604 3.5191631 0.4480091 7
8.4079838 3.639734 0.27914453 6.5
8.745471 3.0768416 0.91353601 8
8.4303885 3.4492934 0.65844154 8
8.4689617 3.6072483 0.68550771 8
8.5984459 1.7004242 2.1089256 12
8.5181084 3.5577693 1.8035749 11
8.4706945 -1.1720362 2.3083265 13
8.4181662 0.81950688 2.1730859 13
8.4355059 1.8278899 2.3383262 13
8.7376537 2.6591399 2.3682821 13
8.9188156 2.701627 -0.30268028 5
8.9322081 2.6567655 -0.090401351 5.5
8.8850927 -0.90197325 0.1722382 6
8.7945728 2.9684606 0.91081452 8
8.9865685 1.6576046 2.1033831 12
8.8732672 1.5337905 2.1330252 12
9.2501554 -0.97048855 -0.31038398 5
9.5519581 -1.6240785 -0.059490155 5.5
9.5408201 -1.457086 0.024007067 6
9.2885408 1.352639 0.10942579 6
9.5458832 -1.0041811 0.43983275 7
9.3973589 -0.67413163 0.43817636 7
9.5307331 0.25791451 2.0810859 12
9.4693918 0.48451084 2.09727 12
9.2816477 -1.5820585 2.2565415 12
9.5097971 0.71379942 2.1341894 12
9.5433912 2.9586775 2.3800073 12
9.3055573 -1.5281217 2.9860249 14
9.7835779 -1.7467825 -0.42399618 4
9.8574667 -1.3407593 -0.41418195 4.5
9.6138344 -1.3775601 -0.18190993 5
9.9241247 -1.8368927 0.22159593 6
9.9774742 0.98680282 0.70047826 8
9.9868908 2.7801931 0.57978743 7
9.9225187 2.8549099 0.92782706 8
9.8219376 2.9881158 1.1553479 8.666667
9.8180571 3.0630982 1.6788344 10
9.5870056 0.84777302 2.1114047 12
9.9041634 2.8688765 1.8412917 11
9.774394 0.15010256 2.2360222 12.5
9.5940657 0.41475692 2.2886977 12
9.6556501 1.0197436 2.1723175 12
9.7416201 1.4424546 2.2755415 12
9.7863712 2.683218 2.4769154 13
9.8984222 0.33761016 2.9096999 14
10.123385 2.7606483 -0.38430142 5
10.061741 2.7698386 0.029229194 6
10.171422 -1.336169 0.29564852 7
10.245775 2.6947091 0.91704237 8
10.20103 2.7088459 1.2175239 9
10.062745 2.8761058 1.2314651 9
10.206969 2.7580035 1.6227245 10
10.052045 2.8970432 1.6894007 10
10.214184 2.7083201 1.8494459 11
10.111426 2.6411371 2.3692441 12
10.129682 2.9308603 2.2810209 12
10.229537 -0.089600846 2.9234271 14
10.127279 0.12766001 2.9329128 14
10.664392 2.056711 -0.46770921 4
10.674632 2.5078111 -0.10645852 5
10.50438 -1.3465968 0.42241588 7
10.466914 2.5676131 0.18858972 6
10.505866 2.5606461 1.2397388 9
10.56064 2.5274622 1.5416423 10
10.686991 0.68783379 2.0467572 11
10.375056 0.91919923 2.0281909 11
10.535258 2.5179012 2.2839935 11.333333
10.639048 -0.78135723 2.9185023 13
10.391633 -0.31549224 2.9277205 14
10.554928 0.78214282 2.6100154 13
10.460875 2.3304448 2.5383501 12
10.913342 2.3475237 0.89242077 8
11.027129 2.2907987 1.2349684 9
11.097264 2.249639 1.5486714 10
10.882159 2.3683915 1.872081 10
11.075908 2.2956564 2.219178 11
10.882458 -1.2685579 2.9106269 13
11.154245 -0.14915392 2.875078 13
11.064881 0.10049815 2.8917515 13
10.833344 0.58139277 2.9100788 13
11.047825 1.4472837 2.9109898 13
11.151698 1.8769882 2.9009268 13
10.888387 2.1340342 2.911833 13
11.545523 -1.4425362 0.099933878 6
11.538971 -1.7416885 0.40043116 7
11.291638 2.1604366 0.87999833 8
11.32054 2.1437721 1.2108333 9
11.486335 2.0501797 1.5550057 9
11.211226 2.1738579 1.8782833 10
11.450611 -2.0759134 2.4580398 12
11.428844 2.1069808 2.2354689 11
11.320968 -2.0657187 2.9111629 13
11.205701 -1.7968689 2.9188068 13
11.434368 -0.5357784 2.8856373 13
11.442029 -0.029273288 2.8884192 13
11.456261 0.4749856 2.9257703 13
11.30689 0.96980357 2.9307101 13
11.672775 1.9645176 -0.56843966 4
11.772313 -2.3102827 -0.00055956549 6
11.699952 1.9644367 0.86684382 8
11.733727 1.9312928 1.2088009 9
11.596217 1.9766374 1.8908902 10
11.809736 -2.1221151 2.251189 11
11.64019 -1.7938536 2.345119 11.333333
11.758197 -1.4042302 2.2995377 11
11.956068 -1.1025454 2.3770821 11
11.754472 0.47034353 2.1862066 11
11.745861 1.9017799 2.2462494 11
11.639393 -1.7195206 2.7815657 12
11.763099 -1.418265 2.7309194 12.5
11.630722 -0.93339032 2.8776803 13
11.769837 -0.54773843 2.9311271 13
11.718229 1.8597814 2.8624618 12
12.137942 1.6998292 1.2053175 8
12.3225 1.695138 1.5642439 9
12.026146 1.7727532 1.9092739 10
12.114229 -0.82789046 2.4321508 11
12.176874 -0.58807206 2.4494851 11
12.26852 -0.35530397 2.4673133 11
12.333075 1.4475484 2.2547579 11
12.060917 1.6828063 2.2542946 11
11.999764 -0.94999766 2.6761248 12
12.202486 -0.64624768 2.765573 12
12.299252 -0.26572135 2.8067775 12
12.095384 1.4956357 2.7092187 12
12.616115 1.4609712 1.2058636 8
12.753465 1.5473725 1.5769849 9
12.420175 1.546512 1.9204183 10
12.398475 -0.25205034 2.5471888 11
12.46372 0.19922638 2.2642157 11
12.683102 1.2121035 2.2662361 11
12.499262 0.25733873 2.8623509 12
13.128305 1.2020403 1.2063621 8
12.797558 1.3739998 1.5782557 9
12.860175 1.3078984 1.9346308 10
13.028181 0.9579215 2.2743282 11
13.292621 1.1168079 1.5888346 9
13.519109 -1.3621075 1.9934448 10
13.381067 1.0591736 1.9586687 10
13.838701 0.83657527 1.5992095 9
13.666161 -1.0764102 2.0567958 10
14.406107 0.63046646 -0.51326764 5
14.193515 0.68893981 0.093941487 6
14.202158 -2.8151541 0.85679102 7
14.371485 -2.49524 0.89643353 7
14.222672 -2.7961867 1.217122 8
14.378933 -2.4850793 1.2625679 8
14.234426 -2.7414055 1.556582 9
13.978975 -0.79691315 2.1405725 10
14.004878 0.7925356 1.9908307 10
14.441061 -1.722795 -0.39476669 5
14.531811 -2.1682615 0.93583107 8
14.665431 0.44847265 0.75928992 7
14.700094 -1.8335854 0.97829431 8
14.416574 -2.4445345 1.6116713 9
14.459863 -2.2167892 1.4166651 8
14.579823 0.49373266 2.0133727 10
14.810339 -1.6241872 0.94912291 8
15.066593 -1.1506872 1.0682884 8
14.913376 0.31004992 1.2148169 8
14.869707 -1.4258835 1.5140032 9
15.049715 -1.1873894 1.4625881 8
15.069825 0.2089763 1.6274792 9
15.000034 0.43512014 1.6797798 9
15.023219 -2.4651494 1.8866732 9
15.119912 -1.1847304 1.8497307 9
15.585407 -0.57664257 0.65595257 7
15.481711 -0.81224805 1.1253489 8
15.541828 -0.56002581 1.1441865 8
15.224862 -0.84798056 1.5157981 9
15.499248 -0.60021305 1.6354841 9
15.464057 -1.9128083 1.7951685 9
15.459294 -1.5626026 1.8394312 9
15.230714 0.17116575 2.0419748 10
15.596234 -0.073691159 1.2090393 8
15.847444 -2.3240178 1.7863274 9
15.604793 -0.50743556 1.5878006 9
15.581053 -0.14285499 1.629576 9
15.600003 0.1061893 1.7019278 9
16.17444 -0.13932081 2.1653712 10
16.657061 -3.20836 -0.63075274 5
16.488993 -2.9479778 2.5816777 10
16.665062 -2.5606868 2.6388061 10
16.785234 -2.4264879 2.2971408 10
16.952139 -2.0783768 2.3694642 10
17.654766 2.8361044 1.2789333 8
