# .PCD v0.7 - Point Cloud Data file format
VERSION 0.7
FIELDS x y z intensity
SIZE 4 4 4 4
TYPE F F F F
COUNT 1 1 1 1
WIDTH 152
HEIGHT 1
VIEWPOINT 0 0 0 1 0 0 0
POINTS 152
DATA ascii
-5.9089637 1.0018305 1.8088007 15
-4.9039841 -1.0843465 1.3507527 15
-4.9749675 1.5194559 1.4169334 15
-4.6089969 -1.1717434 0.6220454 11
-4.6509924 -1.0749503 0.8885498 12
-4.6509891 -1.0976604 1.0852457 13
-4.4519739 2.1140885 0.82082248 12
-4.4219928 -1.4552485 1.0018351 13
-4.2760086 -1.5346572 0.056528762 7
-4.3219819 2.2397509 0.25479311 9
-4.3090019 -1.4832748 0.49080324 10
-4.3309779 2.2367985 0.48811772 10
-4.2560058 -2.6824856 0.65442038 11
-4.3139973 -1.4778063 0.72111428 12
-4.3409743 2.2259321 0.67012584 11
-4.2320027 -2.7552803 0.85716373 12
-4.3069887 -1.5347966 1.2772914 14.5
-4.3359652 2.2272782 1.2353518 14
-4.1410074 -1.7203995 0.18521671 8
-4.1930051 -1.644588 0.33335823 9
-4.024498 -1.9195535 0.85116285 12.5
-4.1589675 2.4047103 1.0502585 13
-4.0539904 -1.9058629 1.2889508 15
-4.0539942 -3.0177412 1.4550409 15
-3.847981 2.5963583 0.17087199 8
-3.8769796 2.5643764 0.26068974 9
-3.8579643 2.5597193 1.1847773 14
-3.8379619 2.5714765 1.3211653 15
-3.7000184 -2.9724536 0.035246782 7
-3.7229762 3.0520701 0.27164847 8.5
-3.7040091 -3.4043615 0.74363691 11
-3.7070024 -3.4205606 1.1536462 13
-3.7879994 -3.3321173 1.2972682 14
-3.790998 -3.373323 1.4051108 15
-3.5199592 3.1665483 1.2811089 15
-3.3400137 -3.9215181 0.64702731 11
-3.2190039 -4.0729823 1.3267816 14
-3.2180021 -4.0511141 1.4210778 15
-3.1880066 -4.1150589 1.1494691 13
-2.9729743 3.5865643 0.17845131 8
-2.8680151 -4.6477108 0.85558647 12
-2.917007 -4.5358877 1.2981565 14
-2.9769573 3.5483549 1.2304424 14
-2.8280056 -4.7162499 1.4657689 15
-2.6420102 -4.9688807 1.2595403 13.5
-2.2850075 -5.6539054 1.7072494 15
-2.1280105 -2.0561855 0.15476903 9
-2.1150107 -5.9044094 1.6045201 14
-1.7650145 -2.620836 0.11790343 8
-1.6580087 -2.6186082 0.45861861 11
-1.5450149 -2.8718009 0.19440693 9
-1.2169539 4.8159962 0.97533071 13
-1.3260152 -5.4172778 1.1314203 13
-1.1860265 -4.7605782 0.20436566 8
-1.0469596 4.9434729 0.56967139 10
-1.0919588 4.9008241 0.63100749 11
-1.0399535 4.9268584 0.94135517 12
-1.0279449 4.8974419 1.4776906 15
-0.95996267 4.8664784 0.40627789 9
-0.6319949 0.49562499 -0.23775259 0
-0.7800284 -5.0103393 0.18733771 8
-0.75701475 -4.9975467 1.0168338 13
-0.76900774 -5.0209851 1.4451082 15
-0.53096521 4.2734265 0.48383406 10.5
-0.46101812 -4.7837539 0.72230446 11
-0.4779608 4.1854248 0.78345311 12
-0.53695941 4.2633147 0.83917904 13
-0.20428257 0.84427118 -0.2166456 0
-0.28402174 -4.6653328 0.45858151 10
-0.38601106 -4.7472148 1.1376646 14
-0.094434083 0.92350388 -0.21985708 0.5
-0.11196991 3.6818817 0.42357987 10
-0.088959455 3.620863 1.0799954 15
0.13631813 0.85233682 -0.21280681 0
0.1595598 1.0114646 -0.20733047 1
0.05031009 -3.4539666 -0.085878059 6
0.042978548 -3.5452163 0.048719268 7
0.11397636 -4.345613 0.22114183 9
0.11002908 3.3740168 0.47912106 11
0.021031233 3.4927175 0.56394225 12
0.15398401 -4.3281212 0.67751712 11
0.11903373 3.3478768 0.77109128 14
0.13398701 -4.349 0.8673833 13
0.09098921 -4.388164 1.0167699 14
0.27122217 -0.87357104 -0.25038195 0
0.24598426 -4.2782769 0.67345333 12
0.36203042 3.0132782 0.69750327 14
0.20503223 3.2382526 0.71959639 13
0.42221826 -0.60129064 -0.22324449 0
0.47679839 0.49188972 -0.20665401 0
0.46919003 0.72140962 -0.21313885 0
0.43586418 1.1808757 -0.19744308 3
0.44102579 2.9191747 0.45046017 11
0.63969094 -0.54055965 -0.20449267 0
0.6342088 -0.38678184 -0.21401434 0
0.79802752 2.4036543 0.75795251 15
0.92073232 -0.63862383 -0.21781453 2
0.90577114 -0.48385668 -0.21385394 1
0.99053228 -0.33211663 -0.21028204 1
0.9870196 2.1607778 0.37058893 11.5
0.88098538 -3.8169327 0.57294858 11
0.94802284 2.2078607 0.54397267 13
0.97198963 -3.6472986 0.76161093 13
0.93299538 -3.7852182 1.1619803 15
1.0159786 -3.6079879 0.076388605 8
1.0164816 -3.6003501 0.26364952 9.5
1.0090232 2.1542549 0.59592825 14
1.1019884 -3.5414264 0.63537508 12
1.0230254 2.1653085 0.7130937 15
1.1809933 -3.4901137 0.91150224 14
1.2139649 -0.11367682 -0.19704479 2
1.3159881 -3.3835983 0.56274319 11
1.2860239 2.3524146 0.55636114 13
1.2949967 -3.4233868 1.1099151 15
1.512982 -3.3678935 0.18188131 8
1.4379839 -3.304446 0.28219926 9.5
1.4530231 2.4681156 0.46555629 12
1.4729897 -3.3569562 0.64250368 12
1.5620236 2.1688197 0.60875529 13
1.4220262 2.4150229 0.66362524 14
1.5149926 -3.4174781 0.84370482 13
1.4620277 2.2741477 0.81283337 15
1.7520188 2.2471974 0.29286343 10
1.681021 2.2058578 0.42687938 11
2.9110091 -0.83932859 0.88863885 15
3.1730316 4.0972009 0.35374469 9
3.3360269 3.70031 0.24545111 8
3.4930282 3.4969366 0.36999831 9
3.4910302 3.477473 0.51470888 10
3.4780326 3.4952226 0.65987796 11
3.4595361 3.5180902 0.88372546 12.5
3.479043 3.4682972 1.284144 14
3.4170461 3.5387855 1.4346656 15
3.7770233 3.3026342 0.18540637 8
3.6379867 -2.8763409 0.2985312 9
4.3180165 2.559166 0.044382472 7
4.2740374 2.5310297 1.3302619 15
4.5150208 1.2187359 0.81948924 12
4.5810294 2.1166 0.98314923 13
4.465023 0.28177914 1.3058233 15
4.7080364 1.8995211 1.4636157 15
5.1530066 1.3987571 -0.080441825 7
5.1340127 1.3938107 0.23624374 8
5.1090159 1.4262338 0.41843563 9
5.1260214 1.395974 0.76127851 11
5.1380343 1.3157167 1.5855986 15
5.3275075 0.94312787 0.12297447 7.5
5.2970119 0.96770978 0.37019554 9
6.5219984 -7.7493162 2.8706341 15
6.9509926 -7.503787 2.4298506 14
7.3600035 -7.1151271 2.8987427 15
8.3390093 -6.4243855 3.0676315 15
