# .PCD v0.7 - Point Cloud Data file format
VERSION 0.7
FIELDS x y z intensity
SIZE 4 4 4 4
TYPE F F F F
COUNT 1 1 1 1
WIDTH 24
HEIGHT 1
VIEWPOINT 0 0 0 1 0 0 0
POINTS 24
DATA ascii
0.65012276 -0.41852254 -0.19879133 189
0.82253063 -0.41063234 -0.19800358 195
0.69298172 -0.37231129 -0.19809224 188
0.7339229 -0.32870707 -0.19657601 187.33333
0.84667403 -0.35446265 -0.19703799 193.39999
0.77681005 -0.25195685 -0.19578743 187
0.86669564 -0.25427938 -0.19541319 191.5
0.9232052 -0.21731789 -0.19224547 193.33333
0.79578054 -0.16695616 -0.19644713 186
0.82472795 -0.14094579 -0.19159624 187.25
0.93969208 -0.14830479 -0.19348034 192.8
0.84495151 -0.066064842 -0.19305468 187.39999
0.93327665 -0.077393427 -0.19477212 191.33333
-0.24034634 0.1253176 -0.19310337 109
0.064668462 0.196356 -0.15009762 172
0.16140458 0.17188977 -0.12237829 132.38095
0.24282196 0.15619433 -0.15584648 126.11111
0.084347434 0.23624447 -0.13433397 166
0.16147724 0.23297296 -0.17037418 170
0.019443784 0.30505946 -0.19142665 178
0.53300083 0.8401612 -0.19512561 164
0.086931698 0.1680097 -0.075856283 124.85714
0.11936586 0.16640733 -0.094872683 125.875
0.043523058 0.24779002 -0.038885292 142
