# .PCD v0.7 - Point Cloud Data file format
VERSION 0.7
FIELDS x y z intensity
SIZE 4 4 4 4
TYPE F F F F
COUNT 1 1 1 1
WIDTH 568
HEIGHT 1
VIEWPOINT 0 0 0 1 0 0 0
POINTS 568
DATA ascii
-15.312218 9.4174004 2.8563206 13
-15.078678 10.175942 -0.47250465 7
-15.111823 10.08567 -0.09163551 7
-15.194926 9.9732876 0.28875324 9
-14.968609 8.1272831 2.8229074 13
-15.032347 9.9293118 2.6518168 13
-14.697721 8.7226496 2.4841366 12
-14.098995 7.5357633 2.1865118 12
-14.405931 8.6569309 2.8689661 13
-14.160531 10.896637 2.7083447 12
-13.673996 8.0648079 1.7337779 11
-13.962542 8.1427698 2.5860016 13
-13.45362 12.105212 -0.062374733 8
-13.237957 12.582253 1.0314281 9
-13.23988 12.670742 1.4651241 10
-13.409795 8.3976898 2.2194352 12
-13.483513 11.193377 2.8784592 12
-13.627161 11.565075 2.7607567 12
-12.914034 9.0166578 1.1423544 9.5
-13.170256 12.668647 0.8178665 9
-13.155004 12.698 1.3590243 10
-12.961698 12.914371 1.0496069 9
-12.891521 13.024243 1.3527857 10
-12.87751 12.386624 2.6350946 12
-12.783697 13.227427 -0.051269677 8
-12.674385 9.3688021 1.0535463 9
-12.556187 13.518136 1.2139782 10
-12.693153 13.296679 1.4855932 10
-12.556923 12.733686 2.1517794 11
-12.831971 11.995915 2.7690704 12
-12.584146 12.671826 2.6511877 12
-12.35446 12.082356 -0.87797928 6
-12.241194 12.306149 -0.1475171 7
-12.238794 9.8254547 1.2392073 10
-12.154492 13.709352 1.2115117 10
-12.212196 6.3726463 2.2274673 13
-12.324479 13.643892 1.3380891 10
-12.296752 13.071342 2.1790936 11
-12.296842 12.97086 2.6708906 12
-11.807808 12.686652 -0.8445245 6
-11.970821 12.54577 -0.58431643 7
-11.657138 12.937463 -0.51192135 7
-11.782505 12.73061 0.37921053 8
-11.933867 10.176976 1.0613257 10
-11.872936 5.9354019 1.9432635 12
-11.565528 13.033978 -0.83192086 6
-11.514503 12.96924 0.21566266 8
-11.414063 13.107541 1.0590827 10
-11.590861 5.7074089 2.0980282 13
-11.420703 10.789025 1.8982998 11
-11.573288 6.7915668 2.5001814 14
-11.385615 7.0317736 2.4891973 14
-11.154208 13.514897 -0.50514948 7
-10.828333 5.0202589 1.9517395 13
-10.697829 4.5821509 0.37119016 9
-10.654089 4.8354526 2.0775979 13
-10.178264 7.917377 2.8480737 14
-10.284435 6.9789729 3.0608053 14
-9.6468134 11.137528 -0.40009278 7
-9.9024458 8.3060722 2.3293114 13
-10.029706 8.7381144 2.2696857 12
-10.022993 8.1947231 2.8756218 14
-9.7603483 8.3833618 2.8788462 14
-9.965457 7.1139617 3.036932 14
-9.4460497 11.38158 0.96081942 10
-9.4145584 11.443051 1.1221999 10
-9.2752275 10.3402 1.7727334 11
-9.3363199 4.8500547 2.5681746 15
-9.3883781 8.8693752 2.2654243 13
-9.3867979 9.1860437 2.2484705 12.5
-9.1947546 4.6911163 -0.22943079 8
-8.8941221 10.514953 -0.57843375 7
-8.8322983 10.627433 -0.12002143 8
-8.9859924 10.490843 -0.012707867 8
-9.0733852 4.9054809 0.95217925 11
-9.0361614 10.465203 0.81861299 9
-8.9379339 4.9136448 2.5125518 15
-9.1342621 9.1705589 2.2489021 13
-8.9358006 9.4075994 2.2628894 13
-8.9501095 9.8916359 2.083565 12
-9.0462751 8.5722313 2.8349011 14
-8.4457693 5.07726 -0.1886003 8
-8.5786371 10.573346 -0.76016253 6
-8.5230465 10.847299 -0.30813578 7
-8.7655087 10.736807 0.80382895 9
-8.639595 10.704859 1.3970835 11
-8.8274336 5.2871695 2.2629628 15
-8.5805693 5.4284506 2.2507832 15
-8.5039043 9.9476871 1.7046164 11
-8.7168322 9.632987 2.2210996 13
-8.5750246 9.9222069 2.184355 12.5
-8.6580524 8.614686 2.8022127 14
-8.2539902 7.3414607 -0.34050724 6.5
-8.2781391 10.98006 -0.72704566 6.3333335
-8.1518202 4.9866729 0.2981849 9
-8.3146 7.7219887 0.054521095 8
-8.2425718 11.025934 -0.28320861 7
-8.2038736 7.5883045 0.34445548 9
-8.3778362 5.5901546 2.2492077 15
-8.396512 9.9790106 2.22964 13
-8.1490688 10.273932 2.2918551 13
-8.2243118 8.8026772 2.7953639 14
-7.6899638 11.645583 -0.67046374 6.3333335
-8.0111732 11.267742 -0.26270464 7
-7.9836087 7.8439765 0.26240307 8
-7.7865186 8.970746 2.7865996 14
-7.529891 3.2094421 -0.1314557 8
-7.2400045 4.6517134 -0.06833864 8
-7.3278279 4.2455955 0.10981152 9
-7.334662 4.5690222 0.024026262 8
-7.3438787 4.0118318 0.62466341 10.5
-7.2510276 5.7042499 0.63942307 10
-7.4283342 8.995738 2.7618327 14
-7.1619377 4.6703925 -0.31006294 6.5
-7.1800342 5.9545908 0.58887291 9.5
-7.0682974 8.5783806 1.8079711 12
-7.120923 9.3346815 2.0697744 13
-7.0274901 9.3974457 2.1226213 13
-6.7735562 2.7254889 -0.066892691 8
-6.1327839 2.7440829 0.11203293 8.666667
-6.2271218 2.9302125 -0.041441925 8
-6.1726246 3.2561016 -0.16562867 8
-6.1515679 2.9117918 0.35979939 10
-6.1956506 2.8405201 0.61433023 11
-6.3243394 3.637723 0.64415407 11
-6.3539019 4.7982531 0.46986032 9
-5.9218493 2.8059759 0.069402188 8
-5.6344275 4.648015 -0.12680236 7
-5.7207475 7.8289208 -0.28452948 7
-5.930171 2.8270025 0.44777188 10
-5.8863797 2.9863114 0.24715272 9.333333
-5.8336954 4.5683336 0.150023 8
-5.7643056 7.8614416 0.061045866 8
-5.9047947 2.9585974 0.60793167 11
-5.7587771 3.6263213 0.69953078 11
-5.8516011 3.7721732 0.53347301 11
-5.8900404 4.415235 0.56674862 10
-5.7107611 7.7390261 0.42711407 9
-5.6637626 4.7565031 0.81119746 11
-5.7303886 7.8988471 0.69685709 10
-5.8343282 8.0392456 1.8129411 13
-5.5672641 4.3755932 0.026003491 8
-5.4592586 4.6356802 -0.027769601 7
-5.5658045 4.8219886 -0.11893466 7
-5.4907498 3.0991721 0.46049514 10
-5.225996 3.4789989 0.41176495 9.5
-5.5559835 3.6609206 0.48666748 10
-5.5126057 4.5456905 0.030563058 8
-5.4844599 3.7221243 0.52924019 10
-5.6102161 4.4547338 0.46490896 9
-5.4694133 4.9966383 0.54947442 10
-5.4315023 7.949852 1.795629 13
-5.0588293 3.5964267 -0.091806367 7
-4.8364091 7.0085211 -0.38104802 7
-5.1979194 3.9769089 0.30054322 9
-5.0555205 7.2062068 -0.06416215 8
-4.828845 2.3593912 0.62670618 11.5
-4.9163942 7.0060863 0.42408955 9
-4.99716 2.0869777 1.2945925 15
-4.8718634 2.2663157 1.262488 14.666667
-4.9582458 7.1576915 0.80763412 10.5
-4.9092302 7.3513393 0.67986041 10
-5.0685186 2.0661674 1.4551783 15
-5.0572371 7.1969457 1.287961 12
-4.8858356 7.0964813 1.724166 14
-4.9532886 7.552372 1.7973422 14
-4.998642 7.9016557 1.7660191 13
-4.5715623 2.6141212 0.035832752 8.6000004
-4.67237 4.2509036 -0.047328349 7
-4.5450339 4.5290537 -0.066035941 7.3333335
-4.5045037 2.6958718 0.36601287 10.333333
-4.5946994 4.3721023 0.081249252 8
-4.763556 7.0559478 -0.027755961 8
-4.7548575 7.3273044 0.066326745 8
-4.5456185 2.5652471 0.84767991 12.5
-4.7918038 2.4037914 1.1892911 14
-4.5966907 2.6300159 1.1112945 14.333333
-4.4365597 3.1004398 1.0192554 13
-4.6954112 7.406374 0.69032389 10
-4.8284473 7.5117803 1.7093816 13
-4.8107896 8.0109148 1.7613193 13
-4.1591487 3.0726109 0.028156878 7.5
-4.1208501 3.2433171 -0.012447638 7
-4.1908288 3.0348542 0.43106049 10
-4.1542234 6.3265414 0.20207115 9
-4.0202107 6.4411254 0.17763934 9
-4.3757753 2.7952127 0.70390069 12.5
-4.1723523 3.0774369 0.69004548 11.6
-4.3804102 2.8536785 1.0530477 14
-4.1996384 3.1142018 1.069752 13.25
-4.0929756 3.3232787 1.0228007 13
-3.9202011 3.3959861 0.11267734 8
-3.9202929 3.35936 0.26528037 9
-3.9436023 3.3948271 0.62001342 11
-3.9385364 6.5578771 0.65244406 10
-3.8551116 3.494894 1.0810677 13.333333
-3.9878774 6.5083704 0.70172489 11
-3.6542103 5.8627815 1.4507762 14
-3.8721936 6.635426 1.5192111 14
-3.4243541 5.7968798 -0.18904747 7
-3.3846464 5.8695641 0.1294701 8.3999996
-3.4077759 5.856658 0.56756938 10.25
-3.3738961 5.8873496 0.92098159 12
-3.3011415 5.9815116 1.3335631 13.5
-3.0993149 6.1709061 -0.1346657 7.3333335
-2.8572979 6.512157 -0.16740602 7
-3.0370245 6.2285013 0.093005635 8.3999996
-2.8607075 6.499557 0.055225644 8.5
-3.1779761 6.0046496 0.64766961 11
-3.0578275 6.2261157 0.55662149 10.5
-2.8792715 6.507112 0.57953739 10.5
-3.1169775 6.2812781 0.95603526 12
-2.8925612 6.6049023 0.99605775 12
-3.1639256 6.001832 1.3915244 14
-3.0239029 6.30404 1.3464551 13.5
-2.9168289 6.577641 1.2628651 13
-2.7356021 6.6563082 -0.16150285 7
-2.5460889 6.8824873 -0.15111315 7.5
-2.7185044 6.6727366 0.083210431 8.5
-2.5150616 6.911314 0.089637838 8.5
-2.7581809 6.6799893 0.55326331 10.333333
-2.4970355 7.0336723 0.50325787 10
-2.6605103 6.7501903 0.78846294 11.25
-2.4823606 7.0087223 0.89165139 11.5
-2.6663516 6.7413898 1.3625398 13.25
-2.5159676 7.0736356 1.4090523 13
-2.548456 6.8288913 1.5155977 14
-2.3231306 7.1257863 0.063866124 8.5
-2.1286514 7.3658562 0.023449445 8.3999996
-2.230809 7.3650842 0.5253216 10
-2.3566124 7.055315 0.73876673 11
-2.0839257 7.3733726 0.7682597 11
-2.3261027 7.1526113 1.2939683 12.666667
-2.1840501 7.4203534 1.2334267 12.5
-2.2571983 7.1620069 1.5626531 14
-2.092382 7.4748759 1.5489231 13.5
-1.9876273 7.5280032 0.068619825 8.5
-1.8104908 7.6523395 0.056911562 8.5
-1.7172588 7.9803796 0.56802607 10
-1.9111918 7.5774803 0.71922016 10.5
-1.7223939 7.7855282 0.73891932 10.5
-1.9559312 7.5183268 1.4310222 13
-1.9409893 7.7646813 1.1565398 12
-1.6261626 8.1470509 1.2144849 12
-1.8609107 7.5951815 1.643739 14
-1.8067821 7.7823439 1.4754034 13
-1.6691098 8.1367188 1.5560235 13
-1.5247428 7.8065763 0.0074293441 8.333333
-1.500082 8.0286846 -0.037520617 8
-1.5492253 8.0086308 0.21339713 9
-1.399107 8.2419987 0.34443131 9.333333
-1.5775757 7.9502921 0.76502454 10.666667
-1.3953714 8.1546688 0.7002275 10.333333
-1.4618176 8.359107 1.2470131 12
-1.2864465 8.5591965 1.2790664 12
-1.4224924 7.5746241 1.6401871 14
-1.4931707 8.027009 1.47122 13
-1.3296659 8.2217474 1.4889004 13
-0.83852071 6.380022 0.0098467609 8
-1.0055512 6.4755664 -0.0070650801 8
-1.0754874 8.616992 -0.052429888 8
-0.9594503 8.683342 0.24706936 9
-1.1828185 8.3894119 0.89643878 11
-1.0231873 8.6250048 0.75667733 10.5
-1.1081737 8.7921104 1.3157102 12
-1.0896574 7.5658646 1.6432977 14
-1.1591722 8.4214954 1.5068793 13
-1.1035106 8.6355906 1.5020281 13
-0.91990799 9.0239973 1.3533926 12
-0.49767599 -0.5898636 -0.16350286 0
-0.59583509 -0.34314701 -0.17566197 0
-0.58529472 0.35975301 -0.24545519 0
-0.61971068 0.47346365 -0.25309944 0
-0.64245695 9.020545 0.035738319 8
-0.59166133 9.0441151 0.25638562 9
-0.82196367 8.805398 0.9443652 11
-0.62611175 9.0504837 0.71017206 10.25
-0.6315859 9.0298185 0.9706971 11
-0.56002128 7.385437 1.6479394 14
-0.71205026 7.7724643 1.6285083 14
-0.69562054 8.8223495 1.5356948 13
-0.17399281 -0.91138548 -0.13116074 1
-0.25847667 -0.68777925 -0.15729752 0
-0.051104099 -0.8733536 0.32333916 15
-0.073309176 8.5952444 0.051258877 8.5
-0.095679343 8.5363626 0.50930279 10
-0.3359994 9.1251383 0.76952976 10.5
-0.052651819 8.4432516 1.3322064 13
-0.42394117 9.1445389 0.98895365 11
-0.13132817 7.2948532 1.6463113 14
-0.21131971 7.5662117 1.6275012 14
-0.26433039 8.7654219 1.5159178 13
0.34772885 -1.2082934 0.3825179 13.5
0.16619223 -1.0478845 0.36192468 14.285714
0.2299837 8.265851 0.086746201 8
0.018816359 8.4735193 0.0047092908 8
0.24540552 8.2695751 0.47918043 9.666667
0.10055791 8.4996014 0.25994852 9
0.055135574 8.4361105 0.82086223 10.666667
0.33397213 8.1532707 1.3217291 13
0.18847623 7.5977244 1.6079074 14
0.17599954 8.112711 1.5567197 14
0.14950885 8.6973591 1.4927073 13
0.75742847 -0.18636011 -0.21041985 0
0.78854489 0.041670267 -0.23733963 0
0.78090078 0.56168389 -0.31763738 0
0.76939857 -1.590017 0.40026322 11
0.59134537 -1.3902855 0.40887639 12.625
0.71652371 1.4751257 0.21528877 12
0.77089322 -1.5808944 0.62947714 15
0.59855282 -1.4151839 0.55699855 14.75
0.63864875 7.9004025 0.1064058 8.333333
0.63048363 7.9615469 0.42010829 9.333333
0.46482629 8.1115808 0.42582464 9.5
0.62234229 7.9509177 0.77469712 10.5
0.47535479 8.1918268 0.92464471 11
0.51927727 8.007719 1.317396 13
0.62720883 8.1678314 1.4080386 13
0.53670716 7.5127535 1.6003484 14
0.59164172 8.057209 1.553645 14
0.44162753 8.3482485 1.4370553 13
1.0514606 -0.4536626 -0.22349721 0.5
1.0060403 -0.21642232 -0.22848231 0.40000001
1.0098605 0.15598445 -0.27288416 0.2
1.0266571 0.6207118 -0.33189568 0.42857143
1.0445457 0.90736991 -0.36306894 0.66666669
1.0944389 1.4194002 -0.11377717 7
0.97693467 -1.6143481 0.37846094 10.909091
1.0841365 -1.4998661 0.38861871 11.142858
0.96836823 1.4405717 0.14448534 10.5
1.1662391 1.6077828 -0.047214612 8
0.99837345 -1.6093529 0.62174791 14.2
1.0479218 -1.4986563 0.58530611 14
0.97767025 4.877212 0.075077899 8
0.9878844 7.5340347 0.079457156 8
0.82763755 7.7021999 0.07256718 8
1.0266323 7.5777879 0.48384148 9.666667
0.84615135 7.7779756 0.45877874 9.5
1.065222 7.6191363 0.83004224 11
0.86920047 7.8557343 0.89818561 11.5
1.0890038 7.6170621 1.3167158 13
0.89546186 7.9339299 1.3706794 13
1.004776 7.3850312 1.5920353 14
1.0068369 7.8531094 1.517465 13.5
1.3885034 -0.63153476 -0.21065871 2
1.3944595 -0.23668343 -0.25716963 1.6
1.4181166 0.20604503 -0.30135542 1.4
1.3894429 0.58985376 -0.33927414 1.6
1.3623598 0.95792389 -0.37979394 1.6
1.4540967 1.2586902 -0.41574958 2
1.2695699 -1.3246646 0.3661285 11
1.4969984 -1.0526123 0.33352274 10.75
1.261216 -1.3304268 0.61035407 14.5
1.5461321 -1.0024855 0.55825555 14.2
1.4887036 7.1695328 0.062409882 8
1.3027438 7.3479767 0.10659743 8.25
1.5032225 7.222074 0.45282087 10
1.319874 7.3884883 0.42904636 9.5
1.5388601 7.2707877 0.94568437 12
1.3260298 7.4401336 0.84418863 11.4
1.4595306 7.3363781 1.3731201 13
1.3866341 7.2823772 1.5736618 14
1.2677479 7.5139103 1.4835413 13.5
1.7360504 -0.90267569 -0.19221726 3
1.7626424 -0.55579168 -0.22868434 3
1.8400974 -0.32853907 -0.2628876 2.5
1.7113125 0.19003515 -0.30715945 2
1.7552545 0.51805633 -0.3458499 2
1.8478398 1.0152477 -0.40413028 2.3333333
1.8337519 1.4404135 -0.44592339 3
1.6697963 -0.86126423 0.33155364 10.833333
1.8710595 -0.62735206 0.31400391 10.722222
1.6726544 -0.84965616 0.54760689 14
1.8648906 -0.62476248 0.55411536 14
1.9315345 6.8221684 0.040173531 8
1.7473541 6.9921479 0.15190263 8.3999996
1.7682317 7.0184903 0.47951645 10
1.7725341 7.0691309 0.8645097 11.4
1.9199935 6.8740387 1.4747143 14
1.7527671 7.1382165 1.3879849 13.25
1.7880827 7.1440024 1.5810384 14
2.2451003 2.4520559 -0.57311797 4
2.0353992 -0.82553017 -0.11583971 5
2.2414665 -0.58943689 -0.1836955 4.25
2.0207713 -0.1639156 -0.29065508 3
2.1362665 0.14787354 -0.33026579 3
2.1635251 0.57314086 -0.37179151 3
2.1092572 0.99112225 -0.41499165 3
2.1423542 1.3446033 -0.45299566 3
2.1570923 1.770671 -0.49645743 3
2.07212 -0.46280658 0.24608776 9.666667
2.2425127 -0.20445955 0.25275245 9.8571424
2.048636 -0.41235483 0.56824982 14
2.2382123 -0.20062576 0.567155 13.75
2.346519 5.5942092 0.12396445 8.5
2.3790517 6.4321556 0.17813689 9
2.1857486 6.6332426 0.16602187 8.5
2.2484968 6.6388993 0.51913047 10.333333
2.3543434 5.6942644 0.87266135 12
2.209379 6.7065182 0.87069714 11.5
2.2589812 5.7391567 1.2504176 14
2.2587597 6.1560211 1.3052946 14
2.2282593 6.7400231 1.3808805 13.4
2.0094676 6.9728928 1.4000939 13
2.1448619 6.8593659 1.5515367 14
2.677536 1.3296175 -0.4765172 3
2.6196151 2.2456942 -0.56288832 3.5
2.7235622 3.095562 -0.66152954 4
2.4024472 -0.43873814 -0.16265453 5
2.5811501 -0.19770572 -0.17779663 5
2.6556253 0.194975 -0.34558433 3.5
2.5356562 0.90443939 -0.42416251 3
2.4492428 1.5871257 -0.48983881 3
2.4222715 -0.010758731 0.25845069 10
2.5984783 0.19861239 0.25661579 9.833333
2.7694862 0.43559331 0.21249358 9
2.4222679 -0.00037770765 0.62037766 14
2.6230743 0.22443317 0.60864687 13.461538
2.7562351 5.2160583 0.063435614 8
2.5711102 5.3982844 0.22676158 8.875
2.4491446 6.3948941 0.17546421 8.5
2.5503199 5.4717827 0.61086279 10.8
2.4038332 5.9720817 0.75915927 11
2.4858973 6.4250145 0.54364127 10
2.3859456 6.5216599 0.63298148 11
2.605834 5.5001712 1.0415912 12.6
2.4625595 6.4557633 0.86427683 11.5
2.5749197 5.48036 1.2545828 14
2.4081924 5.7274837 1.2291186 13
2.5888524 6.4399362 1.3817121 13.5
2.4483378 6.5845485 1.4394475 13.5
3.1440761 0.78197497 -0.44043559 3
3.1972578 1.6392748 -0.53256691 4
2.9599755 1.9870825 -0.56120759 4
3.0401535 2.6764171 -0.62598282 4
2.858907 0.10331663 -0.095205091 6
3.1270587 0.45444477 -0.21523775 5.5
2.7973149 0.40692037 0.3535341 11
2.9822547 0.64538628 0.18601537 8.9333334
3.1526396 0.98206586 0.15812267 8.7142859
3.1722817 1.3118386 0.057420254 8
3.0240588 5.1358209 -0.22718336 7
2.8155468 0.42446619 0.55375838 13
2.9964762 0.65466118 0.60735041 12.75
3.1359732 1.1270177 0.53425497 12.25
3.179426 1.3193455 0.61548978 13
2.938488 5.1311121 0.23706478 9
2.8363829 0.4560031 0.79671985 15
3.0575235 0.72250336 0.82264906 14.666667
3.1434081 1.1367213 0.8471036 14.333333
3.1381354 1.3336253 0.87636846 14.5
3.0198424 5.1125612 0.59222901 10.333333
2.964215 5.3757396 0.68687159 10.666667
3.0629351 5.1698523 1.1173518 13
2.9352407 5.4049597 1.0042992 12.5
2.9898818 5.1973033 1.3383708 14
2.7906575 5.4118643 1.3575488 14
3.3068423 0.83305967 -0.43824875 4
3.2461107 1.2142944 -0.48868829 4
3.450501 2.381165 -0.60253263 4
3.3299334 0.88082111 -0.24679813 5.5
3.3989267 2.4849515 -0.20089835 7
3.2343149 1.0151719 0.15343945 8.7142859
3.5829372 1.5913414 0.15667954 9
3.5212009 1.651891 0.12791094 8.5
3.4554031 2.3194318 -0.0091669383 8
3.3655286 2.6033328 0.057838086 8.333333
3.4673789 3.0767965 0.02981448 8
3.586772 4.5159483 -0.080882907 8
3.1945224 0.84876662 0.70135152 13
3.2799001 1.0471737 0.57067227 12.142858
3.447866 1.5059919 0.52756286 12
3.5439632 1.6627725 0.54210699 11.5
3.5085316 2.7471104 0.35400003 10.5
3.4114299 2.8659744 0.35519299 10.5
3.508008 4.8139105 0.17590381 9
3.5068049 5.3906732 0.26299378 9
3.2994933 1.0957013 0.89760786 14.666667
3.3934429 1.5681516 0.90899581 14.5
3.524977 1.7612157 0.90429616 14
3.2984943 5.1712065 0.73674363 11
3.4520166 5.3606124 0.67666084 11.333333
3.4418929 4.7892675 1.2310632 14.333333
3.3953822 5.0438972 1.0884345 13.25
3.1823292 5.4112659 1.0515246 12
3.2948973 4.9111881 1.3200341 15
3.531734 5.7257524 1.6331509 14
3.9580164 2.0938118 -0.61049581 4
3.7019613 1.4778521 -0.27619413 6
3.988112 2.2028329 -0.31469503 6
3.6279082 4.5701704 -0.35868639 7
3.6289196 1.5472766 0.18718198 9
3.7102585 1.8835559 0.1176583 8.5
3.7661703 2.2817843 0.046008512 8
3.6683831 2.5820808 0.18971105 9
3.8309691 4.2973804 -0.038293116 8
3.5997546 4.5651927 -0.069588043 8.5
3.6236119 1.5813669 0.5997383 11.5
3.7358136 1.9048861 0.47192997 11
3.8165555 2.2784185 0.41547886 10.833333
3.9339354 4.4013286 0.15592495 9
3.8110735 4.6620369 0.16260387 9
3.799783 5.0764694 0.30754197 9.75
3.6467142 5.2724895 0.2599901 9.5
3.6342795 1.597724 0.92281765 14
3.7197564 1.8901032 0.9520666 14.166667
3.8690221 2.3166585 0.84871095 13
3.7795131 4.7109995 0.88917506 13
3.8307135 5.1414928 0.63361216 11.5
3.6722288 5.2852163 0.63024616 11.5
3.9332142 2.3619697 1.1776745 15
3.8693051 4.4371066 1.2581073 14.5
3.8104763 4.6997747 1.0879725 13.5
3.6071451 4.911644 1.1775695 14
3.602515 4.6412339 1.3058258 15
3.8262184 5.4909263 1.6270092 15
3.6519077 5.6369734 1.6319609 15
4.2800279 3.9337187 -0.84054869 4
4.2812476 3.959152 -0.78603393 4
4.1771312 4.047543 -0.32944465 7
4.1860633 2.2968533 0.018730154 8
4.0205388 2.5588789 0.17811702 9
4.2757616 3.9370687 0.071442485 8.5
4.0777483 4.0535998 -0.067129679 8
4.1717896 2.333425 0.59969079 11
4.0824161 2.5908449 0.3876622 10.5
4.3843689 2.9016957 0.30167907 10
4.3765383 3.9424984 0.18294571 9
4.1927538 4.2441993 0.15284063 9
4.1811757 4.5869474 0.26399606 9.5
4.0496016 4.9409356 0.37181875 10
4.1931667 2.3108509 0.8682813 12.666667
4.1082358 2.5864291 0.91837656 13
4.3478909 4.2200713 0.89172107 12
4.2469096 4.7855687 0.67025328 11.666667
4.0636048 4.9524961 0.63804913 11.5
4.2328172 2.3410687 1.1714118 14.666667
4.0924187 2.6859057 1.1457015 14.6
4.2650146 4.0703664 1.2920277 14
4.1729841 4.2884688 1.1294627 13.714286
4.0143094 4.5218086 1.0679058 13.5
4.3407803 4.8338261 1.5846424 15
4.0978212 5.1122918 1.5983093 15
4.4158015 2.9345326 0.47571275 11
4.7471905 3.3842292 0.33977371 10
4.4332237 3.9545455 0.33217901 10
4.637743 4.3730068 0.27350658 9.5
4.5017152 4.5489802 0.44793499 10.666667
4.425118 3.016423 0.76802641 11.666667
4.7280145 3.5713732 0.78227109 11.5
4.6570411 3.9463472 0.89369893 12
4.575346 4.2558823 0.71767229 11.5
4.5210528 4.5537367 0.61307538 11.333333
4.4745831 3.0033555 1.1783087 14
4.7209854 3.6219666 1.2073617 13.5
4.6142197 3.8904428 1.1917722 13.5
4.4514165 4.1418247 0.96297354 13
4.7735262 4.4445167 1.5808471 15
4.5561562 4.640192 1.582284 15
4.7968888 3.3508394 0.49679655 10
4.9387369 4.1705246 0.51900196 10
4.817275 3.1156914 0.97052324 13
4.8008986 3.4048965 0.83028948 11.666667
4.9126272 4.2213206 0.74005014 11.2
4.8187232 3.4590511 1.1851811 13.5
4.8419428 3.2776186 1.4277894 15
4.9618368 4.2727141 1.5812975 15
5.351923 3.9281838 1.586525 15
