# .PCD v0.7 - Point Cloud Data file format
VERSION 0.7
FIELDS x y z intensity
SIZE 4 4 4 4
TYPE F F F F
COUNT 1 1 1 1
WIDTH 578
HEIGHT 1
VIEWPOINT 0 0 0 1 0 0 0
POINTS 578
DATA ascii
-7.3755107 17.265295 0.69660473 9
-7.2726245 15.49871 1.2075089 10
-7.2239351 16.532202 2.114491 11
-6.890645 11.961977 0.46489826 9
-6.840023 12.177191 0.72521335 9
-7.0941372 15.575673 0.63111776 9
-6.8671827 15.77206 0.78207684 9
-6.8597627 15.762417 1.1779126 10
-6.8871932 12.420315 1.6728935 11
-6.932199 12.802973 1.6634692 11
-6.9609308 13.00018 1.3760699 10
-7.0145559 13.394956 1.755614 11
-6.8990049 17.704182 2.1575265 11
-6.6761398 11.101851 0.40261742 8
-6.661819 10.637465 0.87406313 9.5
-6.696135 10.876748 0.57212812 9
-6.6783381 11.266959 0.69363368 9
-6.7260427 15.82021 0.47640488 8
-6.4948072 9.6654091 1.3061841 11
-6.6545806 10.555429 1.1600254 10
-6.6971364 11.205863 1.2183267 10
-6.4861269 9.9608154 1.4106634 11
-6.6728163 10.630019 1.4470237 11
-6.6826558 11.051848 1.4637244 11
-6.5988965 10.634665 2.0874226 12
-6.2084293 7.0160356 0.11841515 8
-6.0118847 5.8753567 0.55938089 9.5
-6.1012177 6.5641174 0.65326834 10
-6.1968527 7.0462074 0.53912014 9
-6.235446 7.507524 0.43168277 9
-6.2198033 7.6162515 0.53438073 9
-6.0905919 6.7002921 0.75258845 10
-6.1806231 7.1462612 0.90116805 10.5
-6.2162147 7.5018177 0.79668075 10
-6.1835246 7.6410222 0.906201 10
-6.2477727 15.642102 0.68653613 9
-6.1813807 7.0644064 1.1063294 11
-6.1117778 7.5535121 1.2753788 11.5
-6.3606939 15.623212 1.1907167 10
-6.0667133 15.680769 1.1853728 10
-6.1310015 7.1892362 1.8191149 13
-6.1631804 7.6677294 1.615835 12
-6.0637283 6.5964899 2.0404119 14
-6.1814971 7.6062007 1.8923576 13
-6.1161709 8.7431011 2.4102945 14
-6.0897894 8.8820772 2.4696035 14
-6.2796421 10.508642 2.7846782 14
-6.1136346 11.226181 2.9329944 14
-5.7915545 4.7723365 0.31064814 9
-5.8262811 5.2971311 0.18011169 8
-5.8661056 7.6540952 0.15610889 8
-5.9589939 8.1647968 0.16321188 8
-5.7972322 4.7390933 0.52750975 9.5
-5.7728615 4.838017 0.42227975 9
-5.9405665 5.5738678 0.61807859 10
-5.9952683 5.9281502 0.49550432 9
-5.9112916 7.8123899 0.40831316 8.5
-5.9539528 8.3385143 0.41130719 8.5
-5.9257503 8.4493752 0.35993221 9
-5.8098493 4.7565689 0.86209828 10.666667
-5.9338684 5.5429306 0.85542679 10.5
-5.9860201 5.972775 0.94372123 10.5
-5.9052854 7.7466564 0.86033511 10
-5.9179068 8.2357845 0.82973009 10
-5.8669114 15.701613 0.62057471 8.5
-5.7616863 4.8321114 1.268492 12.5
-5.7335496 5.0544276 1.4492571 13
-5.9660063 5.4729419 1.2022991 12
-5.9396348 7.7218699 1.1309178 11
-5.912674 8.2854481 1.1935668 11
-5.8156381 15.717258 1.1958606 10
-5.7793803 4.7497687 1.7017456 13.666667
-5.7039895 4.8921142 1.7078348 14
-5.9646378 7.7099352 2.1932585 14
-5.7978086 8.0356274 2.4845011 15
-5.9647555 11.739912 2.9012396 14
-5.2165079 4.5096335 0.32225525 9
-5.5560756 5.1802645 0.46064326 9
-5.2120533 5.2423387 1.0340515 11
-5.5669508 15.733667 0.81668663 9
-5.4103899 5.1947999 1.1442416 12
-5.248374 5.2719994 1.1445911 12
-5.3348665 4.6811843 1.5679228 14
-5.327528 14.446273 1.8948497 11
-5.4508767 8.1261225 2.4704244 15
-5.3211355 17.952673 2.2891383 11
-5.2356319 37.776428 1.5184784 9
-5.1837826 9.8947744 2.608916 14
-5.2236624 12.46347 2.7347043 13
-4.8197937 5.3092103 0.25648981 8
-5.1325202 4.5519938 0.64623892 10
-4.9678597 5.2619658 0.41060185 9
-5.1602216 4.4074006 0.86165172 11
-5.1279807 4.5034552 0.89874744 11
-4.9958715 5.1956377 0.90069687 11
-4.9893045 5.2587919 0.828327 11
-5.0151334 4.7486558 1.3584375 13
-4.9318628 5.0146961 1.3963722 13
-4.9274983 5.2803216 1.2865763 12.5
-5.0173879 4.6901765 1.6449976 14.4
-4.8777246 4.9495702 1.583708 14
-5.069953 14.543156 1.9040279 11
-4.9105906 10.979425 2.4515624 13
-4.982779 17.970881 2.2641983 11
-4.9184022 37.742977 1.7192851 9
-4.51898 5.2913737 0.22532646 8.5
-4.4318433 6.7171731 0.21567549 8
-4.4725571 8.0350504 0.069430865 8
-4.4820194 6.6388917 0.35216475 9
-4.4106183 8.4491339 0.54052269 9
-4.7342958 5.2353864 0.8295598 11
-4.6510768 15.874146 0.79034472 9
-4.7495375 5.2280388 1.1172607 12
-4.5225196 5.3318467 1.1172407 12
-4.6468158 15.878614 0.99617749 9.5
-4.4839125 18.491402 0.92151111 9
-4.6884165 5.2376142 1.6271129 14
-4.624495 5.4786463 1.6904051 14
-4.7560639 15.872418 1.2830552 10
-4.398489 10.134589 1.9951363 13
-4.7765293 14.53565 1.8909733 11
-4.5164461 8.0631514 2.3758364 15
-4.5860305 13.09466 2.4946904 13
-4.764327 18.023125 2.3361597 11
-4.6738892 11.897506 2.7084892 13.5
-4.283155 5.360466 0.031074125 8
-4.0677042 6.5543127 0.077366494 8
-4.3844361 8.3341112 0.082358867 8
-4.1903081 8.4478045 0.10005821 8
-4.2666149 5.3640428 0.44619778 9.5
-4.3366952 6.5531979 0.57013208 9.5
-4.0020099 7.3195295 0.50056869 9
-4.3851361 8.5327196 0.4539136 9
-4.1485863 15.933309 0.37703475 8
-4.2461586 18.626118 0.22369407 8
-4.2579184 15.915804 0.8140198 9
-4.0463405 18.533218 0.5220108 8
-4.0427227 5.3804197 1.245019 12.666667
-4.2572947 15.932461 0.99743056 9.5
-4.1266851 18.525454 0.9567346 9
-4.1524267 5.3694205 1.6208467 14
-4.2531619 17.130539 1.4010313 10
-4.3278437 18.518391 1.2586566 10
-4.1543603 10.242208 2.0129557 13
-4.0627522 10.755146 2.1005151 13
-4.1299281 13.315916 2.0147555 12
-4.2144241 18.100891 2.3171182 11
-4.3526483 37.905155 1.5103025 9
-4.1897478 11.635106 2.8176205 14
-4.1472807 12.175183 2.8000793 14
-4.2639022 13.188142 2.5126936 13
-3.7396197 5.3787231 0.52524865 10
-3.824687 7.2006531 0.55544937 10
-3.7889602 18.630884 0.25450858 8
-3.8287303 5.4322176 1.1602535 12.5
-3.684551 18.583055 0.97610718 9
-3.8067822 5.4983807 1.6405849 14
-3.8918896 18.592424 1.247991 10
-3.8069546 13.362519 2.0081892 12
-3.8289654 18.132383 1.8998734 11
-3.8253877 8.3332386 2.377296 15
-3.8105628 8.8227196 2.3375165 14
-3.6775692 18.211653 2.2892497 11
-3.7473359 11.700704 2.8005853 14
-3.8598394 12.404266 2.7026486 14
-3.7547784 13.240853 2.5301864 13
-3.1963933 5.4501863 0.64075965 10
-3.348696 6.9715772 0.47593856 9.5
-3.2443502 10.679366 0.20373461 8
-3.4072871 11.937292 0.34986556 8
-3.3638554 13.307204 0.22615422 8
-3.305788 18.490067 0.28433326 8
-3.3657553 5.5084577 0.98940617 12
-3.2055852 5.6393762 0.93210751 12
-3.4638669 18.578424 0.43336281 8
-3.5858066 5.4798622 1.2276086 13
-3.3630815 5.5486441 1.7526714 15
-3.4298117 17.2878 1.4521972 10
-3.4489529 18.65461 1.2351474 10
-3.4700463 13.346689 1.992568 12
-3.5044439 8.3908634 2.3657672 15
-3.3036966 8.7777863 2.3150671 15
-3.386734 8.8866158 2.3068709 14
-3.4464326 11.70915 2.7834814 14
-3.2495024 12.359471 2.7569318 14
-3.2556431 13.30044 2.5494001 13
-3.0237536 5.4577565 0.58115929 10
-3.0751953 11.053363 0.22030406 8
-2.8975761 18.735231 0.31226528 8
-2.8716888 5.568368 0.91575986 12
-3.0446045 5.6597385 0.9280448 12
-3.0228682 18.699718 1.0012814 9
-2.9219241 16.830278 1.4426119 10
-3.0110106 18.713711 1.2230449 10
-2.9781408 13.360538 1.9753162 12
-2.9012313 16.117262 1.7350917 11
-2.9417756 8.7471371 2.3018973 15
-2.9038899 8.8626604 2.2805429 15
-2.8034792 18.299465 2.2993245 11
-3.0184739 11.782592 2.7738128 14
-2.8819954 12.298567 2.6765492 14
-2.9384692 13.404304 2.5744512 13
-3.0107846 18.266577 2.4139807 11
-2.4037108 1.165872 0.19198228 9
-2.4282694 1.4200256 0.26991639 10
-2.4769559 1.7820219 0.28594518 10
-2.6788685 6.999702 0.19978625 8
-2.6817563 7.5304899 0.20624737 8
-2.5146556 7.6315312 0.21989082 8
-2.4183133 1.4205933 0.57673317 13.111111
-2.465332 1.8009291 0.60763258 13
-2.5923281 7.7762284 0.54290563 9.666667
-2.4593837 18.816605 0.34045967 8
-2.4209692 1.4755955 0.79674983 15
-2.4596822 1.7960367 0.83660144 15
-2.630589 5.5315022 0.76862568 11
-2.5700924 18.746027 1.2073641 10
-2.5420096 13.62658 1.9894994 12
-2.5943184 8.7345753 2.2940571 15
-2.4609108 8.9121389 2.2745228 15
-2.595448 13.373632 2.5774674 13
-2.5796332 18.327429 2.4362414 11
-2.029599 -1.3379538 0.31897715 10.285714
-2.0848777 -0.97787416 0.3186906 10.5
-2.1308625 -0.63056511 0.29755303 10.625
-2.1694593 -0.38847354 0.26726905 10
-2.3724172 1.0272931 0.29205918 10.5
-2.0237994 -1.341462 0.61249179 13.555555
-2.0769103 -0.98587286 0.57343036 13.5
-2.1255598 -0.61650324 0.57016689 13.875
-2.3673699 1.0714147 0.59896725 13.8
-2.3894515 1.2996593 0.66726023 14
-2.0399747 16.295147 1.4434301 10
-2.1301498 18.82324 1.1949681 10
-2.1971555 13.536089 1.9667053 12
-2.2459059 8.6864614 2.2798057 15
-2.2526729 10.312125 2.4450018 14
-2.2705603 18.358665 2.2012639 11
-2.1466765 11.821635 2.737057 14
-2.3596432 12.562623 2.7266829 14
-2.2683439 13.409089 2.5929177 13
-2.1465025 18.374535 2.4551699 12
-1.8170009 -1.4476484 0.31029376 10.285714
-1.7963134 -1.426167 0.59648597 13.7
-1.9802504 18.731665 1.0165496 9
-1.6130314 15.971695 1.4400994 10
-1.9026128 7.9957004 2.178652 15
-1.8841677 13.603599 1.9621949 12
-1.742283 8.6016607 2.2593479 15
-1.7900345 8.9027109 2.2524507 15
-1.9403614 18.399935 2.3136878 11
-1.7246946 11.885646 2.7315474 14
-1.9451344 12.164428 2.6540139 14
-1.5883954 13.251567 2.5857925 13
-1.9332924 13.395059 2.6005843 13
-1.3955711 -1.3861362 0.30999315 10.857142
-1.4710785 -1.3845736 0.55151689 13.909091
-1.2791362 14.290576 0.96926051 10
-1.205847 14.328731 1.5058749 11
-1.3839337 8.6613617 2.2731538 15
-1.5710599 8.9080372 2.2476044 15
-1.4348094 11.852095 2.712513 14
-1.4419705 12.583459 2.6698279 14
-0.95889819 -1.3245968 0.30562335 11.7
-1.0013597 -1.3240836 0.49150893 14.5
-1.1168188 12.048568 1.7247579 12
-1.0339315 12.687529 1.6917934 12
-1.0207014 8.7060814 2.2544427 15
-1.1411252 8.8877382 2.2360113 15
-1.1498427 11.873624 2.7057955 14
-1.1449896 12.650069 2.664325 14
-0.43042305 -0.94127578 -0.14509781 2.5
-0.46005628 -0.61347842 -0.17624891 0.2
-0.60042584 -1.277615 0.31140667 12.461538
-0.68565059 -1.2877133 0.45864534 14.666667
-0.6699158 10.165523 0.76885176 10
-0.52765149 8.9542513 1.1657424 11.5
-0.71972311 10.19417 1.2902421 11
-0.70335811 10.187919 1.5135627 12
-0.4621571 7.1605105 1.940492 15
-0.42519519 7.4922929 1.9267176 15
-0.57234627 7.8843074 1.8936955 14
-0.76388437 8.6613216 2.2794108 15
-0.14497358 -1.3072848 -0.11114839 3.8
-0.18477121 -0.99488825 -0.1525681 2
-0.26242954 -0.67784309 -0.17182486 0.25
-0.18140407 -1.2272447 0.30781624 13.222222
-0.29624599 7.0251369 0.62063485 10
-0.13634659 7.0721483 0.84791011 11
-0.21833755 7.0784154 1.1355594 12
-0.22402701 7.0943847 1.5946946 14
-0.19282463 7.1182175 1.9132146 15
0.23447931 -1.3311359 -0.10978059 4
0.19447704 -0.98915941 -0.15588477 2
0.25551906 -0.68395519 -0.17948985 0.25
0.3523936 0.76842594 -0.27464274 0
0.33834642 1.0260472 -0.28389567 0.33333334
0.31913114 1.4232122 -0.30876702 2
0.3030214 1.7802 -0.336207 2.5
0.28511903 2.1835573 -0.36854231 3
0.13749236 -1.2346759 0.2422623 12
0.23867217 -1.1669325 0.28413337 13.125
0.11306284 1.2081509 -0.020996111 7
0.17404619 7.1417627 0.86873066 11
0.24183962 7.1703238 1.1611086 12
0.19729836 7.1841331 1.6036996 14
0.38582677 7.2500458 1.6063266 14
0.22824004 7.0921774 1.9026347 15
0.59175915 -1.3407029 -0.076650798 5.125
0.56124538 -1.0144259 -0.15296856 2.75
0.49434599 -0.65600282 -0.18113621 0.60000002
0.77335572 0.20877016 -0.23648037 0
0.65418661 0.63439852 -0.26302561 0.2
0.61023116 1.0475515 -0.1936329 3.1333334
0.76301157 1.3092048 -0.24323665 3
0.7668705 1.7724905 -0.34979349 3
0.5657053 -1.3314271 0.11570885 9
0.62443215 -1.1126778 0.28783807 12.818182
0.50496948 0.98706043 0.08387924 9.6000004
0.59443325 1.2561015 -0.019699117 7.5
0.77749473 -1.0861816 0.4298321 15
0.63797629 7.2549028 0.85333788 11
0.43074292 7.2267551 1.1025547 12
0.6292389 7.2634645 1.1821969 12
0.66244203 7.2868013 1.6506714 14
0.60971254 6.9476619 1.920673 15
0.71345329 7.3110604 1.8698272 15
1.1826094 3.7029517 -0.51962036 4
0.99643081 0.20344102 -0.25308651 0.33333334
1.0092719 0.58020365 -0.27015921 1
0.93648458 0.96230465 -0.19952387 3.5555556
0.80605233 1.2535866 -0.20959803 3.5
0.81262469 1.9843338 -0.36898604 3
0.86748469 2.2407355 -0.39004064 3
0.93976951 2.5765479 -0.41943437 3
0.99872988 2.851846 -0.44228008 4
1.07148 3.1914985 -0.47049719 4
0.99739009 -1.0567485 0.28183737 12.25
0.86153656 1.0710579 -0.028497279 7
0.81551337 7.0799603 -0.10337115 7
0.99219245 -1.0572624 0.44447404 15
1.007229 7.302701 0.79704499 10.666667
0.98573244 7.3137517 1.1516683 12
0.98632234 7.3448458 1.7242169 14.25
1.0505978 7.3026185 1.8925802 15
1.3679115 0.22549686 -0.25809523 1.8
1.3423951 0.57054645 -0.26788208 2.1666667
1.4191877 0.92228746 -0.29337806 2.5999999
1.3849391 1.3912405 -0.32821193 3
1.5845865 1.7919654 -0.35740113 3
1.417984 -0.97564155 0.26420474 11.117647
1.5505464 -0.70684355 0.27570078 11.5
1.4498053 -0.95848149 0.47078675 14.6
1.5626726 -0.69758922 0.46818531 14.5
1.4438335 7.3609056 0.83331841 10.8
1.4301844 7.3733845 1.1888001 12.5
1.4033347 7.4011388 1.7101326 14
1.5348693 7.0925541 1.8585312 15
1.3184661 7.2637849 1.8711663 15
1.6375548 3.5401351 -0.5117889 4
1.7632408 0.28367317 -0.25022581 3
1.8071496 0.61249799 -0.26636189 3.3333333
1.8442888 1.0103896 -0.31353292 3
1.9282044 1.3812958 -0.34837779 3.5
1.7997777 1.7691308 -0.38436502 3.3333333
1.8498482 2.1886497 -0.3971045 4
1.6521302 -0.88876224 0.23237205 10.4
1.724062 -0.67234772 0.26513872 11
1.6494927 -0.88819736 0.42230394 13
1.7709854 -0.6702016 0.49761274 14.25
1.8587357 7.4208412 0.84740394 10.5
1.8202301 7.4327807 1.193719 12.5
1.8879316 7.4661865 1.7775054 14
1.8654695 6.9842772 1.8353828 15
2.1285679 0.22245955 -0.25083151 4
2.1543105 0.44382757 -0.26386294 4
2.1746554 1.0928839 -0.32756799 4
2.1920991 1.8264512 -0.40172079 3.5
2.2613525 2.1425354 -0.44442633 4
2.219914 2.7440567 -0.4474456 4
2.2640665 5.5865941 -0.29998511 6
2.1583953 -0.8204416 0.29439986 10.666667
2.1628065 -0.67146498 0.26742819 10.333333
2.2995098 3.7709951 0.23704295 9
2.2488024 4.163353 0.19442369 9
2.0720866 5.0564513 0.22144651 9
2.171267 -0.79408783 0.62700111 14.5
2.178812 -0.63994342 0.53385973 13.8
2.2465191 7.4814844 0.82585955 10.6
2.2026215 7.486515 1.1531901 12
2.1660869 7.1943488 1.8081352 15
2.2129662 7.5037651 1.7268699 14
2.307215 6.9451427 1.8342267 15
2.5186834 2.4368255 -0.48129439 4
2.7933004 3.6062319 -0.52133745 4
2.5675936 0.84318858 -0.31774986 4
2.5284224 1.309983 -0.35188422 4
2.7373466 1.6453767 -0.36474359 4
2.4679434 3.1170411 -0.47932395 4
2.7334888 3.5871398 -0.33474725 6
2.7075129 3.5998662 -0.20064622 6
2.6595566 4.6981974 -0.25429839 6
2.4753456 -0.58438218 0.18913925 9.2222223
2.6344168 -0.21356966 0.2038185 9.3999996
2.5716035 0.22775495 0.20137694 9.5384617
2.6844161 0.42480144 0.2137773 10
2.5546227 3.29284 0.22452076 9
2.6569428 4.7754083 -0.095231161 7
2.6303005 4.8621993 0.1783271 8.5
2.7452037 7.2719407 0.016584052 7.5
2.5110025 -0.53373599 0.57959986 13.6
2.779788 -0.26425791 0.52131367 12.5
2.7588513 0.19060966 0.47388726 12
2.6652169 7.2904077 0.36851639 9
2.7830064 -0.32094154 0.81708622 15
2.6300571 7.5259786 0.8135494 10.5
2.599159 7.5377493 1.2659922 12
2.6999526 7.5863442 1.6122338 13
2.7309477 6.2643223 1.8862238 15
2.6256123 6.9591141 1.8433268 15
2.7011371 7.5713553 1.806183 14
3.1713729 3.1869524 -0.56285858 4
2.993397 7.2859135 -0.98093551 4
3.1172297 0.35300714 -0.3127467 4
3.1155272 1.0570129 -0.35247064 4
2.86268 2.2228479 -0.44441175 4
2.8035896 3.7807198 -0.12116655 7
3.0345201 -0.56375819 0.17558333 8.6999998
3.0253026 -0.53877902 0.51538765 11.833333
2.941467 -0.24233569 0.583592 12.875
2.8301301 0.23021115 0.57959813 13
3.0268962 -0.51136333 0.8843233 15
3.0039799 -0.28804365 0.85227793 15
3.0754247 7.5895 0.87088674 10.5
3.0923169 7.6072187 1.288697 12
2.9149752 7.6070294 1.614904 13
3.145026 7.6484284 1.6214679 13
3.0209262 6.1482611 1.8844298 15
2.9723158 6.8078823 1.8517277 15
3.0071771 7.5710983 1.8118248 14
3.2559688 2.576679 -0.48620698 4
3.2290354 0.71692216 -0.33973387 4
3.3957634 1.38043 -0.38655117 4.5
3.3544095 2.0732503 -0.44143316 4
3.4207661 4.5861688 -0.51016444 5
3.4296496 4.8136482 0.029189808 7.5
3.2366076 -0.46585315 0.42679468 11
3.40046 -0.25337932 0.60177416 12.25
3.4535227 -0.23014951 0.89750051 14.5
3.2280557 7.6077595 0.97315794 11
3.4587181 7.6439962 0.80744594 10.333333
3.4015915 7.6496229 1.2227124 11.5
3.3820691 7.6889267 1.6268986 13
3.4568908 5.9659066 1.8814474 15
3.2384028 6.0574269 1.8819699 15
3.4506118 6.7283998 1.8459122 14.666667
3.3614326 7.533102 1.8125668 14
3.9747212 2.2372644 0.086626515 8
3.9154623 2.5986009 0.12203845 8.1428576
3.853312 2.9928362 0.1561583 8.5
3.9826753 2.3022926 0.455309 10.5
3.9203048 2.6383257 0.50549883 10.833333
3.8643479 2.9750319 0.50515103 10.833333
3.9894502 6.5357647 0.56887823 10
3.7558882 7.3599653 0.47343868 9
3.9277418 -0.16383488 1.0938087 15
3.9734399 2.2975669 0.82559717 12.333333
3.924284 2.6515737 0.90918458 12.857142
3.864289 3.0555437 0.8497625 12.6
4.0023246 6.6383424 0.8729229 11
3.8399899 7.6940227 0.87686247 10.666667
3.9320593 2.6833992 1.2044647 14.5
3.8879058 3.0329421 1.26705 14.666667
3.787214 7.7105956 1.1993041 11.5
3.7893193 7.7298236 1.5566565 12.666667
3.7836227 5.8231025 1.8806446 15
3.7732587 6.6433268 1.8436953 14.5
3.9031219 7.406981 1.8037562 14
4.2703857 0.59339756 -0.1811133 6
4.2004976 0.98773599 -0.16281997 6.3333335
4.2073917 1.4780031 -0.19128096 6
4.2399125 2.1015503 -0.2261491 6
4.2063799 2.7136846 -0.29577956 5.5
4.1511974 0.73396528 0.17743073 8.3999996
4.1346707 0.97278059 0.15316558 8.4285717
4.0821428 1.4128233 0.11539427 8
4.0252829 1.8188457 0.088495128 8
4.2106719 2.7651587 -0.050587248 7
4.3774867 4.1810336 0.11543484 8.25
4.3044362 4.6298809 0.11789642 8.25
4.2230029 5.0402575 0.038006105 8
4.1526217 5.3323712 0.051238816 8
4.2049708 0.67415684 0.51224321 10.666667
4.1765738 1.0614794 0.42045361 10.333333
4.1578727 1.4165465 0.47627404 10.5
4.1981077 1.7529716 0.4831185 10.333333
4.0421734 2.1792495 0.51218575 10.333333
4.3912544 3.8976228 0.43124139 10
4.3843465 4.2053957 0.46676019 10
4.3091583 4.6262355 0.39954999 9.5
4.2143221 5.0731421 0.43699342 9.5
4.1369281 5.4069295 0.46755546 9.5
4.100142 5.8095469 0.57525843 10
4.0525284 6.2355399 0.58806664 10
4.2274003 -0.077417508 1.0895094 14.333333
4.2745404 0.13026142 1.0532838 14
4.3261833 1.4951687 1.1276129 14
4.1789351 2.229665 0.90752107 12.833333
4.1228046 2.6014919 1.0415365 13.5
4.2120209 2.9676619 0.96889722 13
4.3765168 4.2637348 0.95648849 12
4.3154383 4.6106415 0.79077888 11.333333
4.2297211 5.0795069 0.78123361 11.333333
4.1324034 5.4448161 0.80312127 11.333333
4.1191993 5.8161116 0.81602579 11.333333
4.0510249 6.2156596 0.83330089 11
4.0208817 6.4454427 0.64143783 10
4.0275922 7.6182146 0.73119426 10
4.2767086 0.12542488 1.2443454 15
4.3840137 1.0053825 1.2332212 15
4.3138885 1.4552004 1.2439195 15
4.2633271 1.8279866 1.1642724 14.5
4.2039914 2.1869957 1.1764537 14.5
4.1805668 2.5838664 1.2153002 14.6
4.3747473 4.2569036 1.2667588 13.666667
4.2905807 4.6968074 1.1208903 12.666667
4.2388206 5.0461679 1.1525304 12.5
4.1560874 5.4614177 1.1869632 12.333333
4.1214523 5.8694887 1.2374951 12.333333
4.0854173 6.2096958 1.306172 12.5
4.0376501 6.473114 1.2567573 12
4.1100631 6.9367585 1.3136121 12
4.0509505 7.4094048 1.3666037 12
4.0429664 7.6475368 1.1186446 11
4.3826742 4.3335023 1.5799074 14.666667
4.3351393 4.6402426 1.6015538 14.5
4.2634225 5.0482712 1.6593814 14.6
4.1989217 5.4178863 1.6920279 14.5
4.159831 5.8399935 1.6270621 14
4.102489 6.1947784 1.6861262 14.25
4.0324364 6.5549331 1.546877 13.5
4.0788007 7.1194782 1.7571706 14
4.1981969 5.5236659 1.8573297 15
4.151463 5.7299223 1.896381 15
4.0940804 6.3318868 1.8205597 15
4.0592599 6.5878248 1.8441876 14
4.4585094 3.646235 -0.66380656 4
4.6502247 4.9112978 -0.66777611 4.5
4.4454083 3.7084453 -0.3633616 5.5
4.6482596 5.0021801 -0.36673793 6
4.4128857 3.8599579 0.099359438 8.333333
4.6938758 4.0027695 -0.10357224 7
4.6469884 5.0845337 -0.095902324 7
4.7753415 0.80300587 0.6770972 11
4.7363248 1.0607417 0.69595504 11.333333
4.5856113 1.3889312 0.6269235 11.25
4.6040549 1.9541669 0.60514855 11
4.5362425 2.1719418 0.57628047 10.666667
4.423058 3.869962 0.45419177 10
4.4049702 4.1240053 0.54316801 10
4.7869792 0.75591791 0.94594115 13
4.7488513 1.0463846 0.98672432 13
4.6629272 1.4170314 0.97363693 13
4.6362686 1.8336179 0.91103441 12.714286
4.5881133 2.158704 0.95065725 12.833333
4.4224834 3.9156077 0.8496592 11.666667
4.4247189 4.0498328 0.99404961 12
4.4804082 0.28053725 1.1910985 15
4.4310865 0.57122505 1.213861 15
4.6145196 0.89483368 1.1951479 14.5
4.6222482 1.3193731 1.1411785 14
4.4392505 3.9486861 1.3556627 14
4.4157524 4.0588083 1.3264656 13.5
4.4247446 3.9625094 1.572381 15
4.4189506 4.2721186 1.5175741 15
4.8131161 4.1273961 -0.046099667 7
4.8345132 0.39957073 1.0410715 13
4.814909 0.63014811 1.0461138 13.333333
