# .PCD v0.7 - Point Cloud Data file format
VERSION 0.7
FIELDS x y z intensity
SIZE 4 4 4 4
TYPE F F F F
COUNT 1 1 1 1
WIDTH 112
HEIGHT 1
VIEWPOINT 0 0 0 1 0 0 0
POINTS 112
DATA ascii
-5.2777767 6.0942225 0.4534148 9
-3.5388942 16.927622 1.3851776 10
-3.1441829 -0.68268561 0.21766329 8
-3.1126111 -0.83409315 0.31864345 9
-3.1142998 -0.78099519 0.46027234 10
-3.0987849 -0.65762126 0.58155274 11.5
-3.0568902 -0.77400637 0.85615796 14
-3.0934596 -0.678895 0.75686336 13
-3.0861738 -0.77109504 1.0243928 15
-2.84393 -0.84221303 0.54440838 11
-2.8334546 1.2129802 0.51979792 12
-2.8020833 1.4414837 0.59840429 13
-2.7423339 2.5931923 0.24282871 9.5
-2.7866344 1.6150213 0.55959606 12
-2.7741504 2.1991568 0.3885065 11
-2.7199168 2.5943172 0.51592702 11.5
-2.7319889 2.036159 0.64992213 13
-2.6615973 2.5608709 0.65983403 13
-2.7783496 1.5834625 0.94923866 15
-2.7293675 2.4646714 0.80085427 14
-2.6943269 2.6611011 1.045424 15
-2.5270045 -0.88423592 0.60020554 13
-2.3076861 -0.90721065 0.58784389 13
-2.0436091 -0.95375699 0.34418231 10.5
-2.0057752 -0.93197483 0.67332619 15
-1.7906656 -0.97259772 0.43192226 12
-1.5185537 -1.0067677 0.37569666 12
-1.4149889 -1.0163252 0.53378844 14
-1.3942595 8.9913883 2.2340934 15
-1.3652865 -1.0417289 0.26815653 10
-0.23966376 -1.1687402 0.23903647 11
0.087396801 0.87858671 -0.25611416 0
0.12262466 -1.2164289 0.37892964 15
0.3324101 -0.67650616 -0.20124762 0
0.31535867 1.2567216 -0.33441442 1
0.29584301 -1.3970593 0.14940491 9
0.34746298 -1.3030512 0.15422055 9.5
0.51173872 -1.1234051 -0.17051251 2.5
0.48900265 -0.57946056 -0.20823298 0
0.52020752 0.94523847 -0.31068435 0
0.4734863 -1.2435464 0.3888666 14
0.50916743 -0.97455513 0.27930149 13
0.66567367 -0.89950055 -0.19267036 1.5
0.67905313 -0.48364154 -0.20974308 0
0.74669731 -0.050548162 -0.23827823 0
0.62860149 -1.13634 -0.010636264 6
0.61219823 -0.96275276 0.28006974 13.5
0.76741493 6.9923306 1.0733832 13
0.90693468 6.9320526 0.23977005 9
0.88170177 6.9720607 0.84322721 12
1.1582381 -0.087102503 -0.23836616 2
1.060477 -1.2921747 0.33328316 12
1.1220692 -1.0236048 0.31597939 12.5
1.1008774 -1.0235325 0.44348234 15
1.0247908 6.9331231 0.41551918 10
1.3776436 -0.22875676 -0.23633146 3
1.3936554 -1.0671502 0.18102838 9.5
1.3880143 -1.075676 0.29632035 11.5
1.5177363 -0.73648334 0.17636365 10
1.5268316 -0.73218322 0.27486762 11.5
1.5809182 -0.33113751 0.25896007 12
1.4585313 -1.055233 0.48187605 14.5
1.5152047 7.0126438 1.7962517 15
1.8330392 -0.51174253 0.062085517 8.5
1.8762317 -0.19264108 0.1279521 9
1.8745722 -0.26130632 0.27457941 11.5
1.8844761 -0.1815275 0.23553127 10.5
1.9422845 -0.51345134 0.57223171 15
1.9068248 6.9259734 1.1531296 13
2.07271 -0.34779939 0.59314889 15
2.1170824 6.9258256 1.662361 15
2.5927901 6.8429956 1.147596 13
2.9637897 6.7943659 0.7746399 11
3.1247313 6.746572 0.5235157 10
3.0624354 6.8073559 1.6177577 14
3.3634844 4.4995484 0.0084036244 8
3.3089027 6.7733369 1.1506461 13
3.5642531 0.86036056 -0.097606391 7
3.5258458 0.15726215 0.45281142 11
3.5900788 0.6866073 0.39095551 11
3.6054082 1.2053112 0.64506191 13
3.6018233 1.6835873 0.59634697 12
3.6288974 1.5527176 -0.076462924 7
3.6788592 2.211381 -0.034650996 8
3.6962054 2.229109 0.10991675 9
3.6455729 1.7097238 0.33234438 10.5
3.6926048 2.2447557 0.31986722 10.5
3.7552607 1.1614778 0.57399964 12
3.7146459 2.1689723 0.6335898 12
3.6192787 1.4237024 0.87865353 14
3.7227967 2.2648919 0.70217472 13
3.8082182 1.1696593 0.94196099 14
3.6769207 1.6227169 0.97458792 15
3.7704666 2.1918907 0.99262851 14
3.7354803 2.2040863 1.0553443 15
3.7582371 6.743751 1.7871385 15
3.9986982 0.25664699 0.68471563 12
4.2099867 0.85558784 0.87072533 13
4.2006111 0.77700567 1.0352587 14.5
4.1892729 1.0617745 1.0688056 15
4.0649576 6.6717591 1.1505489 13
4.3547006 3.3773937 -0.080527686 8
4.3694386 6.296844 1.8064407 15
4.5026717 3.6593149 0.094687052 9
4.4913783 3.539793 0.32726836 10
4.5232596 3.3927369 0.75663084 12
4.5718164 4.3359795 0.82780206 12
4.5904889 3.6937547 1.0098853 13
4.5480323 3.6316817 1.3548162 15
4.6583724 4.0329719 1.3644381 14
4.6286087 4.4102836 1.5550157 15
4.7593527 5.553721 1.6937283 15
