# .PCD v0.7 - Point Cloud Data file format
VERSION 0.7
FIELDS x y z intensity
SIZE 4 4 4 4
TYPE F F F F
COUNT 1 1 1 1
WIDTH 527
HEIGHT 1
VIEWPOINT 0 0 0 1 0 0 0
POINTS 527
DATA ascii
-3.781951 6.7250323 0.51630133 9
-3.6198421 1.0454087 1.0463469 15
-3.8393624 6.6057186 1.0789505 11
-3.6740246 6.8483019 1.1195103 11
-3.897068 6.5661211 1.6018984 12.5
-3.803319 6.6182966 1.8590605 13
-3.6890464 6.8101053 1.8883777 13.5
-3.7976136 6.6118221 2.4305277 15
-3.7168968 6.8626857 2.5057175 15
-3.3411756 1.4377719 0.23646308 9.2857141
-3.2241652 1.6477022 0.24694386 9
-3.5439932 7.1762428 0.40972897 8
-3.3487556 1.4004412 0.54107314 11.6
-3.2347376 1.6164362 0.60157716 12
-3.6043155 7.1157255 0.59784579 9
-3.4212167 7.3555813 0.60949302 9
-3.2557213 7.7527466 0.68470949 9
-3.5780098 1.1238371 1.0567428 15
-3.3830912 1.4118353 0.93750125 14.428572
-3.2516379 1.640844 0.95621818 14.5
-3.563556 7.0424256 1.1518863 11
-3.3820806 7.362608 1.1994857 11
-3.6208816 7.0831962 1.5968164 12
-3.5101798 7.2832623 1.5021665 12
-3.30738 7.6538048 1.602893 12
-3.5677609 7.0196314 1.9408498 13.333333
-3.4042487 7.3147407 1.9907516 13.4
-3.2487106 7.5887318 2.1053867 14
-3.1320305 1.8092145 0.2549637 9
-2.954618 2.1385472 0.2744723 9.25
-3.1365891 1.7888619 0.59609038 11.777778
-2.9205389 2.1827726 0.59433734 11.777778
-2.8094835 2.3906519 0.47225979 11
-3.1251531 1.8418236 0.89303404 14
-2.9838762 2.0849547 0.898956 13.833333
-3.0760138 7.8032303 1.2721046 11
-2.8848405 8.0378847 1.3222179 11
-3.1075213 7.8234591 1.6042095 12
-2.9631906 8.3117018 1.6275674 12
-3.1111774 7.7798877 2.0987399 13.5
-2.8570993 8.1010818 2.13399 13
-2.9491217 7.9195828 2.1902757 14
-2.6950598 2.6127207 0.29972094 9.1999998
-2.504425 2.9598722 0.33848777 9.1999998
-2.6796949 2.6284835 0.63997418 11.8
-2.4973824 2.9656887 0.6401062 11.428572
-2.6915596 8.0002546 0.68195599 9
-2.6932924 8.6809378 0.72770023 9
-2.664814 2.6474383 0.96289742 14
-2.4899023 2.9860144 0.95947766 13.6
-2.7407312 8.0120897 1.2602403 11
-2.798883 8.419076 1.384555 11
-2.5114236 7.2940927 1.6386523 12
-2.7388208 8.6190348 1.5534232 11.5
-2.5338106 7.3163395 1.9166145 13.5
-2.7486894 8.6526861 1.887403 12
-2.485796 9.3261042 2.0135713 12
-2.6781743 8.5612106 2.2279224 13
-2.0656583 -0.45481211 0.22515163 10.666667
-2.2949705 3.345289 0.3964422 9.333333
-2.0321627 -0.46916315 0.55746317 15
-2.3986604 3.1415496 0.66110915 11.5
-2.2724645 3.3686092 0.64136726 11.111111
-2.1354752 3.5910423 0.71247005 11
-2.1308215 7.6984596 0.58619869 9
-2.3826187 3.1650038 1.0572252 14
-2.2650065 3.386193 1.0390027 13.6
-2.2793784 7.8026166 1.2998507 11
-2.1963339 7.5500436 1.524071 12
-2.0805707 7.4306054 1.8222903 13
-2.2923653 9.5053625 2.0487328 12
-2.2876666 9.3489285 2.4916704 14
-1.8070331 -0.59908694 0.23326334 11.285714
-1.8114356 -0.58953667 0.44666055 14.166667
-1.9789203 7.5920148 1.3035978 11
-1.8769988 10.231748 1.3532678 10
-1.8812159 7.4519215 1.5195507 12
-1.7233971 10.165169 1.4906533 10
-1.7294054 9.9683027 2.5138681 13
-1.7132689 10.335527 2.4515536 13
-1.6819978 9.9175606 2.7467949 14
-1.3447013 -0.85691339 0.23152621 12.125
-1.5142574 -0.75416934 0.24170479 12
-1.3582433 -0.85967547 0.43051195 15
-1.5388745 -0.74565297 0.41575146 14.5
-1.3694184 10.140696 1.0397201 9
-1.3306563 7.0907822 1.3197232 12
-1.4799452 7.3374949 1.2604787 11
-1.5034534 10.101211 1.2109655 10
-1.3112658 10.52589 1.2614256 10
-1.3910936 7.115447 1.5717596 12.666667
-1.4696097 7.2040596 1.6294174 12.5
-1.2820072 10.57166 1.5316663 10
-1.4886014 10.260565 2.5004621 13
-1.5131919 10.227675 2.8465171 14
-1.0280889 -1.0272452 0.22976384 12.384615
-0.86096233 1.1161294 0.36675701 14
-1.042488 -1.0439311 0.38757175 15
-0.88660085 1.1145434 0.4312911 15
-1.1446472 7.0521016 0.80860841 10
-1.2056032 10.539851 1.0540265 9
-0.96943778 11.863545 0.94087178 9
-1.0541983 7.0257993 1.295696 11.5
-1.117319 7.1696558 1.3028679 11
-1.1384457 10.623707 1.1030903 9
-1.0722823 6.9880586 1.4707587 12
-1.0082206 10.716587 1.6323934 10.5
-0.83572334 11.948616 1.6414802 10
-0.89864677 6.9753623 1.9765048 14
-0.83764899 11.899858 1.9213604 11
-0.98936749 12.01199 2.5304761 12.5
-0.46940979 4.6034942 -0.3178589 4
-0.54181439 0.62727779 -0.20874052 0
-0.48829108 1.8536428 -0.25126055 3
-0.47104096 2.6413927 -0.25650886 4
-0.64191139 3.171587 -0.27692416 4
-0.45672795 -1.3090236 0.24998686 13
-0.6082356 -1.083087 0.22435959 13.083333
-0.63315696 1.0740283 0.38589793 15
-0.74964112 1.3767532 0.322597 12
-0.77465129 -1.1564689 0.36463642 15
-0.66880298 6.7523575 0.81985968 10
-0.51979667 6.8731785 0.76463944 9
-0.75109977 6.7395086 1.0066005 11
-0.66766155 6.8253822 1.0966989 11
-0.64355242 6.8520465 1.7735335 14
-0.68354917 6.8323116 2.0004404 14
-0.64473337 12.161432 2.0147822 11
-0.57722872 8.187439 2.3325822 14
-0.60998076 9.9674282 2.6133201 14
-0.72793257 10.470107 2.5556769 13
-0.62381059 11.789102 2.6144333 13
-0.026960086 -1.5586375 -0.095976062 6
-0.17957327 0.7662313 -0.21417281 0
-0.23701817 0.98190117 -0.21243267 0.5
-0.1544999 1.3591992 -0.22243071 1.8
-0.19729641 1.804298 -0.23666798 2.5
-0.17598274 2.2177274 -0.25055715 3
-0.10092434 2.6345654 -0.26377481 3.5
-0.18784438 3.1045539 -0.27997556 4
-0.24548995 3.3996291 -0.28044289 4
-0.32747638 3.831147 -0.28841922 4
-0.18459797 -1.3910547 0.23404329 12.565217
-0.39325345 -1.0137792 0.17553392 13
-0.20174277 -1.4606724 0.35881427 15
-0.34042868 6.6256142 0.80069208 10
-0.14900714 13.48626 1.1039882 9
-0.020610562 6.4168615 1.0401561 11
-0.042542696 13.461756 1.4197237 9
0.16994701 4.1666875 -0.29741395 4
0.37999457 -1.8147082 -0.08565601 6.5
0.17123714 -1.347429 -0.16135524 4.1999998
0.20917329 -0.95783955 -0.19701277 2
0.26153165 -0.67089528 -0.19803232 0.40000001
0.2109828 1.0473518 -0.22607195 0.33333334
0.2242797 1.3930315 -0.22793372 1.5
0.14795563 1.8262405 -0.23853777 2.5999999
0.27248371 2.2484899 -0.24897859 3
0.25189006 2.6782141 -0.26736432 3
0.23726834 2.946501 -0.27325499 4
0.2105169 3.3984706 -0.27646461 4
0.21923657 -1.7023858 0.2598179 12.142858
0.18104614 -1.4390154 0.23860273 12.5
0.22460239 -1.7060171 0.38412294 14
0.19528891 -1.4674256 0.36757568 15
0.0423069 6.4438972 0.98866391 11
0.22172123 13.793926 1.4374489 9
0.017945871 13.523894 1.7910372 10
0.35038787 13.937763 1.8281984 10
0.097487338 9.7561312 2.7338386 14
0.044228725 13.068716 3.052398 13
0.0080333846 13.395508 2.8092158 12
0.34105685 13.998399 2.9281354 12
0.71863812 4.1750183 -0.32623428 4
0.77726507 4.9239092 -0.35092106 4
0.47483489 -1.3262391 -0.14942902 4.5
0.63171309 -0.98291337 -0.13916306 3.8571429
0.59006304 -0.58519638 -0.19446459 0.80000001
0.67869985 -0.28731143 -0.19967887 0.16666667
0.58280468 0.7353878 -0.23364472 0
0.59919906 0.99902219 -0.23526388 0.5
0.60889548 1.3802667 -0.24009325 1.6
0.65150899 1.8016548 -0.25290745 2.25
0.56808329 2.2430441 -0.26469567 3
0.59687394 2.6100724 -0.27699119 3
0.62209105 2.964824 -0.28059667 3.5
0.65789616 3.4519761 -0.28927144 4
0.59655535 -1.826498 0.19497252 10.533334
0.60466105 -1.3659246 0.13504957 10
0.63764244 -1.0315036 0.16713835 11.333333
0.73966742 -0.78424466 0.25932091 14
0.59415275 -1.8430742 0.42793259 13.888889
0.6401915 14.59697 1.561395 9
0.6105271 14.876022 1.771307 10
0.55240786 9.4034128 2.5980461 14
0.61183476 11.468643 2.5297945 12.5
0.44341084 14.705458 2.6287587 11
0.55793172 14.385235 2.8257604 12
1.1548994 3.6615427 -0.30988193 4
1.0026234 -0.98958021 -0.14790095 3.8888888
0.99360347 -0.57933128 -0.1951724 2.090909
0.97402585 -0.25340295 -0.20539989 1
0.81047326 1.2015151 -0.23457506 2
0.88227379 1.4101579 -0.23998949 2
1.0096053 1.7795736 -0.25026056 2.5
1.0061721 2.2183244 -0.26417521 3
0.93320912 2.5960894 -0.27544731 3
1.0190314 3.013546 -0.28564724 3.5
1.0166056 -0.95270938 0.19836086 11.130435
1.0513281 -0.78993678 0.24895808 12.5
0.88686043 15.016066 1.5280538 9
1.0288913 15.26726 1.642797 9
1.110538 15.221037 1.9477826 10
0.96258098 11.667463 2.093358 11
1.0521624 14.67974 2.363631 11
0.91453552 15.022273 2.1725798 10
0.8743192 9.3751497 2.5488572 14
0.90400654 9.8488283 2.3421969 13
1.0015298 11.245698 2.4923205 12.5
1.0095268 11.681307 2.3814006 12
0.84879929 14.430193 2.4947836 11
0.9532221 12.791895 3.1444573 13
0.9131006 14.580657 2.8772979 12
1.3714761 4.7275167 -0.32776058 4
1.3853346 -0.98348504 -0.19582438 3.6666667
1.3710167 -0.61608618 -0.19298707 3.1666667
1.3024951 -0.32256448 -0.21020141 2
1.3455226 2.754997 -0.27651477 4
1.4451557 3.0466676 -0.28179502 4
1.5370243 -1.2026957 0.013045684 7
1.3933897 -1.0342034 0.20545359 10.428572
1.5099522 -1.0692418 0.46468231 14
1.4633456 16.081991 1.7394409 9
1.4955758 11.474113 2.097194 11
1.2335374 11.583572 2.0977643 11
1.3203443 15.612696 2.247442 10
1.3704454 9.0374117 2.5440199 14
1.3421921 9.386446 2.5318081 14
1.3320484 11.073593 2.4077857 12
1.4199948 11.584049 2.3862705 12
1.6470188 -1.2639512 -0.13155003 5
1.7525793 -1.0425252 -0.19963679 4
1.7291799 -0.64480257 -0.19960614 3.6666667
1.6558484 -0.36462158 -0.20241164 3
1.8576092 -1.221579 0.088126749 8
1.6499902 -1.1163343 0.17902236 10
1.5988598 16.349663 1.4854184 9
1.942681 16.955372 1.8435878 9
1.7644149 11.436712 2.1084878 11
1.7415453 16.024641 2.2990241 10
1.7337608 17.030647 2.122122 10
1.9265087 9.0062914 2.545125 14
1.7795155 9.2452536 2.5164506 14
1.5552182 12.650162 3.1491067 13
1.730132 13.479146 3.132076 13
2.0948434 -1.3026255 -0.20920826 5
2.154146 -1.0333861 -0.22072722 4
2.1095579 -0.49460146 -0.21189462 4
2.3914788 -1.6431544 0.22213662 9
2.2772372 -1.4458445 0.1935599 9
2.3399675 -1.4251859 0.54601014 12.75
1.9855372 12.66179 1.8833055 10
2.3660245 17.127092 1.8857162 9
2.2846291 17.204462 1.9079424 9.5
2.1411419 12.774277 2.1353717 11
2.0161862 14.071368 2.3101995 11
2.2418065 16.891344 2.4076009 10
2.2678163 8.496789 2.5844469 14
2.069875 8.8577328 2.4961951 14
2.1124325 12.788765 3.0288904 13
2.1701705 13.31448 2.9620965 12
2.478369 -1.6087848 -0.16376601 5
2.564146 -1.3713778 -0.11116871 5.8000002
2.7027352 -1.001528 -0.17729768 4.75
2.4089355 -1.6209403 0.086170994 7.5
2.4609902 -1.3456737 0.19881158 9
2.6432273 -1.0248685 0.20448044 8.875
2.78228 -0.78145212 0.1745065 8.5
2.7192481 1.5270869 0.41715387 10
2.6471996 1.6211318 0.40562588 9.5
2.7018225 1.9911513 0.44400677 10
2.5036185 -1.2746965 0.5873282 12.857142
2.6314588 -1.0438242 0.57207364 12.444445
2.7690229 -0.77143902 0.53987592 12
2.6442993 6.3023977 0.84046108 9.5
2.7501531 6.2604837 1.247633 11.5
2.7350478 6.2846675 1.6519047 13
2.6354208 6.2806168 1.8573469 14
2.6321409 6.4100523 2.1015575 15
2.4787691 8.4896603 2.4751925 14
2.5039263 13.82655 2.6690941 11.5
2.7095048 11.772127 3.1377285 13
2.4255462 12.331751 3.1362054 13
2.4868727 13.096227 3.122735 13
2.6914926 13.413596 2.9774392 12
2.9848952 -0.75594878 -0.141142 5
2.8796375 -0.60298091 0.25337806 9.181818
3.0814419 -0.2497315 0.26953059 9.3000002
3.0482519 1.3559818 0.39037833 9.5
2.9917707 2.5728419 0.31076473 8
2.9238181 6.1422348 0.58490533 9
3.0521154 -1.0040758 0.76089525 13.75
2.885325 -0.6434257 0.60034227 12.555555
3.0767915 -0.24485399 0.62844682 12.333333
2.952101 6.1356983 0.83447319 9.5
3.1197455 16.7258 1.2800196 8
2.8405318 -1.7921784 0.92577887 14.666667
3.0376194 -1.4417596 0.96983111 14.8
3.0869753 -1.1611178 0.93175876 15
3.1567409 -0.094176084 0.89523506 14.5
2.9516821 6.1496334 1.3096977 11.4
2.9580088 6.1379237 1.6871837 13.125
2.8846335 16.989628 1.826335 9
3.002475 6.1426215 1.9704076 14.5
2.9557519 13.661112 2.2838254 11
3.0045602 8.105979 2.5462768 14
2.9938715 8.3821039 2.416328 14
2.9033566 13.628395 2.6090248 11.333333
2.9886024 11.701578 3.1341534 13
2.9446959 12.950835 3.1359313 13
3.0247962 13.356974 2.9627359 12
3.3836699 0.37008503 0.050730251 7
3.5071232 0.56877047 0.06513872 7
3.2053051 -0.040017121 0.27604187 9
3.3244858 0.19429243 0.31141105 9.1111107
3.5045929 0.56536162 0.3139213 8.8000002
3.5906534 3.6481619 0.35760501 8
3.447046 5.9369006 0.54684281 8
3.2090528 -1.2242017 0.81429112 14
3.5000958 -0.58382124 0.78031152 13
3.2455554 -0.13234836 0.66932517 12.333333
3.3185091 0.21702924 0.64148539 11.9
3.5117838 0.58364755 0.65346098 11.5
3.4610164 5.9333267 0.79513937 9.5
3.2892973 6.0351019 0.78772789 9.5
3.4337456 16.550423 1.2816684 8
3.2987282 -0.98336601 0.97243851 14.666667
3.4864762 -0.6470834 0.98380661 14.6
3.3708527 -0.31140581 0.96341616 14.6
3.3055894 0.20295329 0.97522891 14.6
3.4764447 0.51991212 1.0513169 14.6
3.5105875 5.9209485 1.2276297 11
3.308356 6.0325546 1.2396837 11.25
3.5417395 5.924068 1.503685 12
3.4203725 5.98489 1.6091994 12.5
3.3628581 16.595697 1.7300642 9
3.2924073 17.671099 1.9891161 9
3.4784849 5.8980131 1.8303599 14
3.3157492 5.9877424 1.8428839 14
3.561224 13.357756 2.2604167 11
3.1715903 18.668598 2.2680361 10
3.2078059 8.3525114 2.4217525 14
3.4104195 13.337854 2.6461275 11.5
3.446564 19.000381 2.6721652 10
3.2598462 11.587804 3.1219795 13
3.4914384 11.942356 2.9786518 13
3.3777139 13.403172 2.9707713 12
3.610492 0.71461278 0.32091698 8.5
3.8084011 4.0604424 0.37633252 8
3.7852004 5.7524352 0.5114969 8
3.6137307 0.72135782 0.50652009 10
3.8035073 5.744915 0.79994023 9.5
3.847769 16.337343 1.2258683 8
3.6049762 -0.4849081 0.96879196 14.5
3.6032619 0.68085134 1.1585844 15
3.7817252 5.7719655 1.2165294 11
3.7647853 5.7858119 1.5804245 12.5
3.7259824 17.693275 2.0172393 9
3.7467849 5.7415924 1.8431284 14
3.8623817 13.234192 2.2533786 11
3.6783636 17.613482 2.1652944 10
3.6820633 13.266117 2.4976449 11
3.8681424 18.758303 2.6415029 10
3.7201645 11.264081 3.1344414 14
3.5626082 11.593223 3.138226 13
3.9250979 12.366506 3.1182215 13
3.6654902 13.189877 2.9278851 12
4.2049909 5.5220022 0.46880257 8
4.2501583 5.4968028 0.83248293 9.333333
4.0468879 5.6104336 0.87203825 9.5
4.1012864 16.152758 1.2544051 8
4.2641721 5.5001974 1.1984417 11
4.1170583 5.5758257 1.2040844 11
4.2312088 5.4903121 1.6795676 12.666667
4.0290656 5.6195912 1.6487525 12.5
4.2059269 16.903723 2.1335726 10
4.0654025 17.326973 2.0793746 9.5
4.3306565 4.7261357 2.1339235 15
4.112514 4.8352752 2.1407802 15
4.1933041 5.4801626 1.844403 14
3.9947903 5.6005163 1.8441746 14
4.1726961 12.931219 2.5777371 11.333333
4.1040025 11.679028 3.1210976 13
4.2278399 12.287914 3.1350994 13
4.2764688 12.925156 2.8759484 12
3.9996829 13.148487 2.9195116 12
4.5565114 1.116556 0.036609724 7
4.5831513 1.4211457 0.068628542 7
4.5877242 1.0809572 0.34692502 8.5
4.720468 1.3061715 0.35929725 8.5
4.5249071 3.3631101 0.26434171 8
4.7172804 5.0694928 0.56790668 8
4.586463 5.3065562 0.47249544 8.25
4.6039929 1.1035328 0.69462991 10.75
4.717536 1.3485668 0.70552123 10.4
4.5392427 5.3412623 0.85931504 9.5
4.5018315 15.935306 1.1972109 8
4.5464683 1.0783135 1.1006554 13
4.6929512 1.3526921 1.1519953 13
4.5499859 5.3459764 1.278888 11.4
4.4302936 16.016817 1.7111589 9
4.611537 1.0986474 1.4387734 15
4.6919584 1.3303453 1.4548142 14.666667
4.5674953 5.3068423 1.7049408 12.6
4.4183784 16.962099 1.996351 9
4.4847016 4.6559997 2.1322544 15
4.5783134 5.2638564 1.8530858 13.75
4.6019101 12.890047 2.2277699 11
4.6931396 18.31822 2.5894568 10
4.5078516 18.43844 2.206708 9
4.6202207 12.658516 2.6354928 11.5
4.3850698 11.302155 3.1174326 13
4.4712038 12.056947 3.1150904 13
4.5740333 12.767649 2.8455892 12
5.0124993 1.9150828 0.084030017 7
5.1217017 2.1808786 0.10354944 7
5.1689057 2.4102633 0.12211589 7
4.8201632 1.5132707 0.39771387 8.5
4.9282393 1.7771918 0.3817113 8.333333
5.1232977 2.2000561 0.29729536 8
5.1713824 2.4259005 0.32268104 8
5.0911741 5.0215664 0.57695347 8
4.8221064 1.5391735 0.67134017 10
4.900629 1.7696747 0.72424591 10.166667
5.1114383 2.1004367 0.77213401 10.2
5.042078 5.0560827 0.83251029 9.3999996
4.8115225 5.1780739 0.95381004 10
4.9123688 15.741041 1.1406128 8
4.8095541 1.5435684 1.1293355 13
4.9338632 1.8087684 1.1599022 12.4
5.0926714 2.1180158 1.1855029 12.25
5.067975 5.0463305 1.1571153 11
4.8437662 5.1715684 1.1677799 11
4.7745829 1.4984753 1.5537798 15
4.9316373 1.7954433 1.5396008 14.5
5.1020184 2.1053057 1.4857395 13.75
5.1742992 2.3734829 1.4080164 13
4.9734082 5.0800686 1.6936244 12.5
5.0532041 15.701509 1.890536 9
4.9533987 16.624508 1.9979501 9
5.0762959 17.234154 2.1222684 10
5.1588297 2.1692073 1.7747128 15
4.9841118 4.4059281 2.12604 15
4.9635839 5.0586638 1.8753946 13.5
5.0877037 18.068926 2.559267 10
4.9236569 12.565457 2.5843327 11.333333
4.7511253 11.936418 3.1212754 13
5.4127603 2.7042818 0.13430479 7
5.4966445 2.890275 0.14275573 7
5.4182477 2.7225382 0.33430186 8
5.514987 2.9371188 0.351282 8
5.3077335 4.9129229 0.54638004 8
5.2185378 2.3572011 0.76898557 10
5.3281655 2.5538003 0.72587663 9.666667
5.5104437 2.8012366 0.75110978 9.5
5.5677538 4.7616286 0.66037947 9
5.3742533 4.8740478 0.82299602 9.5
5.3359118 2.5506902 1.1101375 11.666667
5.5012612 2.8156333 1.0175177 11
5.5015311 4.8126497 1.3554314 11
5.1836128 2.296207 1.5604819 14
5.3984876 2.656976 1.543173 13.5
5.4723964 2.829464 1.5216292 13
5.3445201 4.9061222 1.582817 12
5.4247437 15.548939 1.862214 9
5.4077702 16.080713 1.9775274 9
5.3766031 16.781561 2.1046298 10
5.2328906 2.3472152 1.8298329 15
5.3845267 2.5691977 1.9100583 15
5.5142169 2.792613 1.9870772 15
5.4357085 3.4349411 2.1329432 15
5.3424263 4.22053 2.1244473 15
5.5086956 4.7419205 1.8576936 13
5.3492537 4.8680673 1.9533087 13.5
5.4871917 17.857368 2.5337729 10
5.6908355 3.2340372 0.3632119 8
5.6433973 3.0351634 0.78475422 9.5
5.7563558 3.2716391 0.81792104 9.5
5.757935 4.6529937 0.84452373 9.3999996
5.9739008 18.030571 1.3041546 8
5.6257601 3.043427 1.1906548 11.5
5.7810678 3.2964072 1.1476469 11
5.8314714 4.619935 1.2524461 10.6
5.6164122 3.0708086 1.580336 13
5.7557759 3.2999437 1.6191099 13
5.7914395 4.6793771 1.589939 12
5.7782798 15.377137 1.8337439 9
5.8246636 16.10784 2.1011455 10
5.6341662 2.9955533 1.9638015 14.5
5.7120371 3.2834268 2.0778232 14.666667
5.6664495 4.0428286 2.1249149 15
5.8008008 4.6151996 1.9744011 13.5
5.5756822 4.7841716 2.029989 14
5.9005995 17.690609 2.5131752 10
6.3024402 4.3581495 0.83398378 9.333333
6.0773406 4.4996977 0.82902926 9
6.3755083 17.820042 1.2717731 8
6.1591115 4.4385514 1.2121835 10.5
6.2182388 17.945969 1.570895 8
6.2217135 4.3531532 1.6899788 12
6.0368929 4.5413938 1.5939288 12
6.0924182 15.382343 1.8855506 9
6.163877 15.874693 2.0905883 10
5.9889469 16.077095 2.0863116 10
6.1281714 3.6999366 2.0194397 13.666667
6.2887316 4.165525 1.873284 13
6.105298 4.4646602 1.9881771 13.666667
6.5263953 4.2274609 0.828233 9
6.498877 4.2389841 1.1577635 10.333333
6.6206717 17.734953 1.5485675 8
6.4686356 4.2471046 1.6390911 12
6.458848 4.2262731 1.9870346 13.333333
6.8622284 4.1094713 0.81151164 9
6.8823233 17.569326 1.1715525 8
6.8451433 4.1350331 1.1861236 10.5
7.0070953 17.507675 1.5265694 8
6.8248754 4.074439 1.6843567 12
