# .PCD v0.7 - Point Cloud Data file format
VERSION 0.7
FIELDS x y z intensity
SIZE 4 4 4 4
TYPE F F F F
COUNT 1 1 1 1
WIDTH 101
HEIGHT 1
VIEWPOINT 0 0 0 1 0 0 0
POINTS 101
DATA ascii
-2.6747317 1.2290478 0.12410048 9
-2.6408668 1.4631294 0.7697112 15
-2.5326531 2.8109362 0.21119323 9
-2.4618409 3.6715059 0.28115442 9
-2.5692019 2.4543147 0.54019988 12
-2.5531204 2.644798 0.42065236 11
-2.4996161 3.3035815 0.39165533 10
-2.4810753 3.4428642 0.52067679 11
-2.4241755 4.2886667 0.51161009 10
-2.5908225 2.0962954 0.6070326 13
-2.5222719 2.8443427 0.72654682 13
-2.5129654 3.015734 0.63657343 12
-2.4291298 3.9644196 0.78016216 12
-2.5044167 3.3542423 0.95128959 14
-2.4514074 3.7122703 0.87014812 13
-2.5428648 2.4834747 0.98174047 15
-2.4408364 3.9265332 1.1482012 14
-2.3301675 4.5618401 0.35668048 9
-2.384203 4.5636311 0.66026068 11
-2.3692157 4.5627766 1.4941077 15
-2.1334362 4.5558825 0.48318139 10
-2.0676987 4.5659733 1.1755129 14
-1.8647507 -1.9203527 0.71634471 15
-1.621832 -1.9345282 0.079036079 9
-1.6234636 -1.9285688 0.33005759 12
-1.6912519 -1.5809138 0.20196694 10
-1.6687253 -1.3476973 0.21643919 11
-1.7655742 -0.41600877 0.34593952 13
-1.7441223 -0.38590151 0.23395339 11.5
-1.6650908 -1.4541342 0.38351554 12.5
-1.7378922 -0.38822678 0.39577821 14
-1.5978241 -0.85874063 0.17539339 11
-1.5871176 -0.71358192 0.29792613 13
-1.5797672 -0.49781686 0.24340791 12.333333
-1.6062844 -0.72657067 0.41780084 15
-1.5776671 -0.44233671 0.42812163 15
-1.4494654 -1.9423008 0.5598774 14
-0.31985456 0.832048 -0.26439494 0
-0.16111019 -2.070225 0.14892983 10
-0.095354371 4.396122 1.2291183 15
0.014068651 1.1227764 -0.26429445 0
0.31600186 -2.1332841 0.30347916 11
0.29050681 -2.1256602 0.62473434 15
0.64912605 -0.61762691 -0.22412248 0
0.61826283 -0.40017298 -0.20574127 0
0.74458069 -0.30264282 -0.20764039 0
0.78068191 0.15219803 -0.21883035 0
0.76065075 -2.1452577 0.095627643 8
0.9232437 -0.94580793 -0.19834664 3
0.933294 -2.167901 0.14964136 9
0.90984273 -2.1504958 0.26083308 10.5
0.90304613 -2.1438336 0.65057141 14.5
1.038803 -0.67783517 -0.20696333 2
1.1294892 -0.069550328 -0.22921228 1
1.0620793 4.2788749 0.58605224 10.5
1.0920479 4.3046403 0.94700867 12.5
1.0907207 4.2959652 1.205678 14
1.0375092 4.2937894 1.2887552 15
1.341275 -0.087792821 -0.22756727 2
1.2365386 4.6743174 0.48887089 9
1.3745379 -1.1607265 0.47089025 14
1.4406067 -2.5220869 0.15019321 8
1.524471 -1.0839715 0.17120746 9.5
1.5787467 -2.8848913 0.75848198 13
1.5382178 -2.8987434 0.89180702 15
1.6165838 -2.8532622 0.8403843 14
1.9747971 -2.5548332 0.169503 8.5
1.8333226 -2.9017456 0.30479097 9.5
1.8029433 -2.8713367 0.4886764 11
1.9635657 -2.9233727 0.80891657 13
2.1876116 -2.8782289 0.54431969 11
2.2065606 -2.8581209 1.0006075 15
2.6808524 -2.9235184 0.23946382 9
2.8126018 7.0842032 0.5443123 8
2.8368752 7.0867925 1.1780397 11
2.844187 7.100626 1.6584146 13
3.0828452 -2.8862891 0.2065741 8
2.984957 -2.8705466 1.2233214 15
3.2291417 7.0648394 1.6658177 12
3.8766024 -2.986598 1.4776156 15
4.1801252 6.2761846 1.3508037 11
4.4264789 6.9354367 0.45907509 8
4.7682505 -0.066042788 0.092443481 7
5.4686775 0.59276098 0.11279402 7
5.4538703 -0.093732804 0.229948 8
5.4839921 0.90177864 0.36119628 8
5.5182252 1.0638037 0.50173092 9
5.4655142 0.82056135 0.79695928 10
5.4909234 0.12010843 1.0202866 12
5.4853745 0.93672752 1.0657352 11.5
5.5256305 1.109517 1.2810252 13
5.387454 -1.1066916 1.3972369 14
5.4285307 -0.97782803 1.3549176 13
5.4624715 -0.18038361 1.4205528 14
5.5454946 0.35170922 1.5258399 14
5.4655261 0.66615075 1.7078663 15
5.3586125 -1.8903917 1.7442927 15
5.6082277 0.22557102 0.88477916 11
5.6161242 0.2456883 1.2889171 13
7.4109688 3.929178 2.6111481 15
15.144178 4.3684354 1.4485011 9
