# .PCD v0.7 - Point Cloud Data file format
VERSION 0.7
FIELDS x y z intensity
SIZE 4 4 4 4
TYPE F F F F
COUNT 1 1 1 1
WIDTH 628
HEIGHT 1
VIEWPOINT 0 0 0 1 0 0 0
POINTS 628
DATA ascii
-3.2189777 1.3392744 0.24658112 9.5
-3.2185974 1.343605 0.38395739 11
-3.4240654 -2.47593 1.0352539 14.5
-3.4039056 -2.3192463 1.022789 14.5
-3.2695715 -1.465773 0.86087579 14.333333
-3.2201798 1.2699392 0.78386599 14
-3.188592 1.5057259 0.24136686 9.5
-3.1449261 1.7891287 0.21051255 9
-3.0865715 2.1987598 0.21300445 9
-3.0254064 2.6023102 0.28249288 9.5
-2.9661107 3.0411098 0.20620921 8.8000002
-2.9090505 3.3865108 0.22392569 8.5
-2.8312793 3.8851764 0.26684949 8.666667
-2.8073261 4.0844941 0.19414672 8
-3.1834412 1.4842877 0.57955575 12.2
-3.128654 1.8056674 0.53266364 11.555555
-3.0756686 2.1694436 0.4927195 11
-3.0116565 2.6097827 0.55093366 11.222222
-2.9560351 2.9550738 0.56132865 11.25
-2.8903558 3.3770623 0.5975585 11
-2.8337243 3.8031113 0.57011056 10.5
-3.0051646 -1.7446038 0.89770055 14.75
-3.1695952 -1.4006082 0.90066361 14.75
-3.140389 -1.1070629 0.83691812 14.666667
-3.0577226 1.0843673 0.89767873 15
-3.1837804 1.4068313 0.85796607 14.5
-3.113147 1.8022382 0.87804842 14.2
-3.0526717 2.1840687 0.91052991 14.25
-2.9983308 2.5666711 0.92981994 14
-2.9347239 2.972481 0.96626669 14
-2.8759937 3.3699894 0.98484665 13.5
-2.8296945 3.6712618 1.1166714 14
-2.8533428 3.3802845 1.2108538 15
-2.6263111 -1.8222593 0.24548168 9.6000004
-2.4163501 -1.4637687 0.21882807 10
-2.7837875 4.1934457 0.28560242 8.666667
-2.6208029 4.6631832 0.30360308 8.5
-2.6169984 -1.8014745 0.50661755 12.181818
-2.4230721 -1.4782059 0.51945633 12.5
-2.4274659 -0.67454523 0.57942569 14
-2.8109334 3.8906801 0.71669948 11.5
-2.7757678 4.1223621 0.65392405 11
-2.6167696 4.6233253 0.6025486 10.333333
-2.5468833 -2.4013698 0.93579662 15
-2.6394513 -1.8658744 0.81313616 14.666667
-2.8038645 3.8394542 1.0031877 13.25
-2.769479 4.0796223 1.0161146 13
-2.6550336 4.6096601 0.96629286 12.25
-2.792043 3.8213251 1.2624309 14.666667
-2.7239594 4.2197256 1.3200319 14.5
-2.5860198 4.5830879 1.4020954 14.5
-2.2189381 -1.8733917 0.2211421 9.666667
-2.3813081 -1.3432574 0.20296626 9.75
-2.3302886 -0.99627393 0.20433019 9.75
-2.262805 -0.6165722 0.23151924 10.5
-2.014606 4.5965619 0.30741826 9
-2.2059238 -1.8714777 0.51075971 12.5
-2.3668959 -1.3408481 0.46762228 12.6
-2.326509 -0.97431189 0.48462018 13.142858
-2.2662301 -0.64317155 0.46058899 13.125
-2.1520998 4.6272202 0.65481752 10.666667
-2.04231 -2.2684555 0.84568584 15
-2.2296436 -1.9092764 0.77291888 15
-2.2302454 4.6350784 0.92040503 12
-2.1948791 4.6233745 1.3951485 14.6
-1.7880542 -1.9560072 0.21081407 9.8571424
-1.7490448 4.5601535 0.33399215 9
-1.8166355 -1.9513972 0.52392614 13
-1.8611534 4.5778809 0.57804388 10.428572
-1.9468552 -2.1589665 0.81974918 15
-1.8367701 4.5780478 0.89552361 12.4
-1.8417443 4.5779018 1.3372966 14.5
-1.3689618 -2.0195274 0.21448369 10.125
-1.5229679 -1.9961718 0.22439064 10.2
-1.4290224 4.5073938 0.36352828 9
-1.3691887 -2.0184751 0.54083329 13.666667
-1.5173402 -1.9911495 0.54406697 13.5
-1.4117925 4.5108609 0.59317541 10.5
-1.4743825 -2.5373945 0.80973506 15
-1.4433162 -2.3063517 0.77402717 15
-1.4178106 4.5154386 0.96748674 12.833333
-1.4218185 4.5290418 1.2750973 14.5
-1.0101513 -2.0676315 0.24477416 10.5
-1.0370128 1.5002578 0.32829046 12.5
-0.9698742 1.8159585 0.37429878 12.25
-1.0710421 4.4473281 0.3958697 9
-0.99598855 -2.068856 0.51605821 13.555555
-1.1746906 1.5129893 0.40374649 13
-0.97323996 1.7609986 0.41900742 13
-0.99492121 4.4403653 0.59160745 10.666667
-1.0239282 4.4545808 0.99368501 13
-1.0209738 4.4645529 1.2647825 14.5
-0.46975538 -1.8264991 -0.20652078 4
-0.45355818 -1.3185687 -0.19456011 3
-0.47069269 -1.0320314 -0.1908107 3
-0.47653791 -0.47272575 -0.17436466 0
-0.48270801 -0.34804633 -0.18019743 0
-0.5585202 -2.1266992 0.20261043 10
-0.80233794 2.0858772 0.32072636 11
-0.59939605 -2.126472 0.50128084 13.666667
-0.5653441 4.375493 0.62987179 10.833333
-0.72104502 4.4000125 0.60180813 10.666667
-0.53976911 4.3718238 0.96921694 13
-0.71372408 4.4071536 1.0484282 13.25
-0.51036757 4.3752208 1.2861691 15
-0.6586464 4.4038615 1.3161184 15
-0.027015785 -2.2690477 -0.21486844 4.5
-0.22952314 -1.7482116 -0.21919762 3.75
-0.1786733 -1.3831487 -0.21441253 3
-0.19529538 -1.0127242 -0.21113811 1.5555556
-0.25376034 -0.63627124 -0.19622692 0
-0.16373126 -2.171922 0.19116423 9.7857141
-0.22244969 -2.1575465 0.51911843 14.142858
-0.22145219 4.3250775 0.63946211 11
-0.25045866 4.3341446 1.0285095 13.5
-0.23446669 4.3374772 1.3037753 15
0.019555317 -2.0528436 -0.23878954 4
0.062355164 -1.8070368 -0.22683741 4
0.1301235 -1.3722664 -0.22844236 2.6666667
0.15324149 -0.99279851 -0.23267338 0.85714287
0.1772656 -0.75171238 -0.23355564 0
0.27150458 -2.8979518 0.2160036 9.5
0.062013589 -2.2219672 0.25272453 10.6
0.31177858 -2.9206553 0.55103403 12.5
0.093167968 -2.2460032 0.53108978 14
0.20780484 4.2615581 0.66059023 11
0.27414536 -2.9126892 0.82990503 15
0.18832643 4.2679543 1.018808 13.5
0.17426538 4.2718639 1.2929193 15
0.78146148 -0.11486575 -0.22724539 0
0.69582129 0.66167474 -0.24478722 0
0.76230192 0.948044 -0.24255434 0.66666669
0.58616817 -2.9351954 0.17954879 8.818182
0.64585847 -2.7553735 0.12787181 8.5
0.67329562 -1.499498 0.27660096 12
0.74416935 -1.0254259 0.28849447 13.5
0.6197418 -2.980428 0.56454229 12.5
0.62010276 -1.4156623 0.4282411 14.75
0.57404464 4.2024703 0.66557068 11
0.56383383 -2.9710052 0.82436675 15
0.60020572 4.2022619 1.0693316 13.6
0.58019835 4.2039676 1.283201 15
1.076317 -0.16256799 -0.24436715 0.25
1.0207052 0.20772976 -0.25742757 0
1.0080324 0.63084644 -0.25820473 0.42857143
0.97469318 0.97511262 -0.25048345 1.2857143
1.0263803 1.3647108 -0.25036898 2.5
1.0631545 1.740775 -0.25044286 3
0.97319102 -2.9844103 0.18731169 8.8888893
1.1446874 -2.7134194 0.14047933 8.5
1.0778755 -1.6515546 0.39411801 13
1.1426325 -1.275805 0.40600649 13.5
1.0339262 -1.0334985 0.23918487 11.375
0.98789495 -3.0297992 0.64478904 12.818182
0.92013824 -1.6654946 0.44916111 13.5
0.92002326 -1.3275864 0.44892141 14.666667
1.1191244 -1.0042905 0.44691375 14.666667
0.89473814 4.5807848 0.5930838 10.5
1.4052955 -0.18643925 -0.25154415 1.4
1.4202875 0.26464006 -0.27080065 0.83333331
1.3988684 0.61118937 -0.27355844 1.25
1.4042592 1.017478 -0.26466826 2
1.4098004 1.4067922 -0.27114752 2.75
1.4471167 1.760105 -0.2706399 3
1.3821833 2.1343334 -0.26544833 4
1.3733163 2.5527837 -0.26596862 4
1.4723269 2.8121562 -0.27068701 4
1.4914522 -3.0671384 0.21823785 8.833333
1.2831249 -2.7524788 0.15925542 8.5
1.5196805 -1.6539892 0.37362272 12
1.4734677 -1.3376181 0.27734974 10.5
1.5086001 -1.0171191 0.2528365 10.8
1.3741168 4.6326737 0.2393769 8
1.3557365 -3.083812 0.5059768 11.2
1.403281 -0.96196926 0.47635373 14.5
1.3893026 -3.0561512 0.81521207 14
1.4374809 6.9136271 1.0599663 11
1.4192733 6.9241886 1.4552799 12.666667
1.4396583 6.9282308 1.8812437 14.333333
1.4408852 6.9146414 2.1408706 15
1.8277318 -0.17612517 -0.26336318 2
1.8702787 0.18780245 -0.27695054 2
1.8803525 0.60013402 -0.28483182 2.25
1.8015434 0.99237955 -0.28922096 2.3333333
1.7868582 1.4857233 -0.29399538 3
1.6591594 1.7475222 -0.28430599 3
1.7819265 2.2120888 -0.29107553 3.5
1.9681731 2.9027469 -0.30178609 4
1.7482222 3.5342264 -0.2848193 5
1.9359072 4.0266948 -0.29260841 5
1.8259912 -3.1185844 0.19743289 8.5555553
1.8692522 -1.6153532 0.12724534 8
1.7427884 -1.0270706 0.29181874 10.8
1.769411 -3.0901067 0.47292015 11
1.6575897 -0.94777769 0.50920945 14.5
1.7558523 6.9925966 0.75932324 9.5
1.7730105 6.9913578 1.0682814 10.666667
1.7427847 6.9867158 1.4438283 12.4
1.7672803 6.9658351 1.9556721 14.5
1.6603787 6.9688587 2.2730341 15
2.3769422 1.265206 -0.34573081 3
2.0947063 -3.1437888 -0.036572151 7
2.1255994 -0.50186568 -0.26248664 3
2.2853215 -0.306234 -0.27260822 3
2.2111473 1.0030639 -0.3109026 3
2.1389415 1.4515651 -0.31877044 3
2.1691658 1.8955542 -0.31519869 3
2.202317 2.1919823 -0.31731373 4
2.1676407 3.2717142 -0.31258261 4
2.084341 -3.1246095 0.21286905 8.6000004
2.2049823 -1.8634127 0.27380955 9.333333
2.1698582 -1.4018092 0.26306403 9.5
2.2466288 -1.1206124 0.30537194 10.166667
2.2070851 6.9284286 0.72908163 9.333333
2.1620116 6.9309835 1.0648348 10.6
2.1591737 6.9277101 1.4959202 12.5
2.1536682 6.9276981 1.9181817 14
2.1524546 6.91327 2.2227814 15
2.765789 1.5150454 -0.36793375 3
2.5946779 1.8321781 -0.34663463 3
2.4717507 2.8727844 -0.3341485 4
2.761436 3.2743785 -0.35069191 4
2.4252512 3.7481184 -0.32675785 4
2.5864205 -1.1631597 0.034221541 7
2.4116802 -0.58421522 -0.27164763 3
2.6172028 -0.35934454 -0.2837452 3
2.5347021 0.5798372 -0.3087948 3
2.6667726 -3.256505 0.23087756 8.333333
2.6591508 -3.1803133 0.28760561 9
2.6948135 -2.1072505 0.27647233 9
2.435117 -1.9368814 0.17473772 8
2.5989749 -1.3705777 0.29078242 9.333333
2.541981 -1.1407236 0.2661908 9.5
2.3994732 -1.0571994 0.49912265 12
2.5787776 6.86725 0.7416656 9.5
2.5928891 -3.1912656 1.0094992 14
2.6327498 6.863205 1.1111315 10.75
2.5480871 6.8686481 1.4598166 12.333333
2.5415151 6.8666096 1.9271762 14
2.5069025 6.870687 2.2562985 15
3.1711407 0.23953746 -0.34252724 3
3.1745307 0.58786595 -0.33964786 3
2.976191 1.2294983 -0.38380593 3
3.1631222 2.3070443 -0.38076478 4
2.8580089 2.6333604 -0.35552153 4
3.1369052 3.7951202 -0.37151584 4
2.8088756 4.4551134 -0.35287133 5
3.0901566 -0.89796555 0.045671258 7
2.8178751 -0.7009632 -0.28655544 4
2.8746133 -0.087455451 -0.3168478 3
2.9956138 -3.2897596 0.17762809 8
2.9398525 -2.1421509 0.29738823 9
3.0300243 -1.2392366 0.18377814 8.333333
2.9742756 -1.1051408 0.195563 8.333333
2.9258623 6.8223329 0.43891948 8.5
3.1050804 6.7863913 0.75927323 9.5
2.9234264 6.8103271 0.76495641 9.5
2.9827988 -3.2427952 1.0193437 13.5
3.0834863 6.7828803 1.2364103 11
2.9185507 6.8134856 1.0731803 10.666667
3.1127925 6.7858682 1.4566866 12
2.8904986 6.8185101 1.4603664 12.333333
3.1485929 6.7715726 1.7565441 13
2.8849461 6.8119893 1.937757 14
2.974638 6.7594795 2.1989253 15
2.9406824 6.8012533 2.1164305 15
3.4370697 1.0278547 -0.39393005 3
3.3981247 1.9201585 -0.4109641 3
3.3003254 -1.2134492 -0.0050850394 7
3.3284309 -3.3647468 0.21081382 8.1999998
3.3222528 -1.3888469 0.37107563 10
3.3871467 6.7551389 0.48378909 8
3.393075 6.7461514 0.7436775 9.5
3.3082206 -3.3036702 1.0807115 13.5
3.3667927 6.7476654 1.1190163 10.75
3.3514192 6.748795 1.5582963 12
3.3669946 6.733624 1.8566487 13.5
3.414279 6.6565161 2.2335119 15
3.6722698 1.5622869 -0.43026945 3
3.8311241 2.1978757 -0.43853953 4
3.7010169 3.5362344 -0.40501195 4
3.9552305 6.6149626 -0.33441299 5
3.9335153 6.6123252 -0.25649807 6
3.859833 6.6814456 0.45428291 8
3.8899844 5.9886551 0.76724458 10
3.7598786 6.6891012 0.74594349 9.5
3.9322231 5.9521003 0.96603507 10
3.7951739 6.679388 1.1443259 10.5
3.7592192 -3.4640691 1.5617455 15
3.7207355 6.6854486 1.5119406 12
3.7999225 6.6732616 1.8355832 13.333333
3.8108008 6.2766323 2.3427122 15
3.7300072 6.644948 2.2817171 14.5
4.225637 -0.13425025 -0.32385349 4
4.1677833 3.1452775 -0.44575369 4
4.1718011 -0.50072628 -0.13444306 5.5
4.1698413 -2.2733464 0.17334293 7.75
4.3493791 6.5700727 0.42024428 8
4.3074937 3.7451835 0.72676057 10
4.1113458 6.6323619 0.62795413 9
4.2695727 3.667691 1.0654838 12
4.3648124 4.2154474 1.1438861 12
4.1258268 6.6261759 1.1802244 10.666667
4.181551 5.7656488 1.5335677 12.6
4.1278567 6.6254821 1.5198489 12
4.1787562 6.6064439 1.8803927 13.5
4.1693058 5.8584604 2.278523 15
3.966094 6.2525854 2.3294549 15
4.0134368 6.6323891 2.3016174 14.5
4.6745353 -1.2325983 -0.37552834 4
4.5285072 0.3595356 -0.32399085 4
4.6057911 -2.0373774 0.057804517 7
4.6601419 -1.3071342 -0.088899828 6
4.7517147 -0.99225754 -0.0045830552 6.5
4.6339769 -0.71083403 -0.059856631 6
4.4498835 -0.14570835 -0.17291017 5
4.5883369 0.36524805 -0.28453788 5
4.5194979 3.5314524 -0.045318104 6
4.6024456 -2.0107915 0.18016048 8
4.633193 -1.8061415 0.27995983 8.5
4.7057009 -1.4146755 0.33082747 8.5
4.7700868 -0.98112726 0.23964445 7.8333335
4.6106272 -0.63031769 0.15943803 7.5
4.7501965 6.3951621 0.52762038 8
4.5157661 6.4748468 0.40408149 8
4.6607871 -1.7129807 0.67072982 10.5
4.7192326 -1.3777913 0.6790396 10.6
4.7684798 -1.0095383 0.63549799 10.2
4.5278993 3.7779019 0.77528983 10
4.4042139 4.3659701 0.59425241 9
4.4755569 4.6348186 0.62216347 9
4.5936694 5.4318681 0.91059023 10
4.5205183 5.6739554 0.80625612 10
4.564199 6.494256 0.72454804 9
4.498188 -3.8620903 1.2401412 13
4.4708939 -3.3946037 1.0982665 12.25
4.46 -2.9828479 1.061715 12.5
4.539845 -2.5957708 1.0981561 12.6
4.5755525 -2.216615 1.073779 12.6
4.6501622 -1.8223069 1.1261841 13
4.7221241 -1.3976665 1.1186384 13.142858
4.7584329 -1.0822521 1.1476494 13.25
4.4059768 4.3778105 1.18373 12
4.4730263 4.6967778 1.2255771 12
4.522058 5.3000097 1.1030124 11
4.5661049 5.6370277 1.0393488 10.5
4.6759415 6.0573235 1.0900162 10.5
4.5675831 6.4803987 1.1321276 10.5
4.5143676 -3.4247868 1.3895427 14
4.5740137 -3.0603826 1.3856709 14
4.626812 -2.6546624 1.3857292 14
4.6807861 -2.2340076 1.3892457 14
4.7253785 -1.7567526 1.3718894 14
4.7182021 -1.3352536 1.3302343 14
4.7534428 -1.1273528 1.3647373 14
4.4707551 4.5446491 1.4713293 13.333333
4.3973837 4.798625 1.3607905 12
4.5837317 5.4272075 1.4321719 12.333333
4.6053767 5.5962443 1.3414075 12
4.5911164 -3.4045782 1.7571447 15
4.4171391 4.1647773 1.9420793 15
4.6826611 6.4046011 1.9875021 14
4.4228916 6.5322795 2.336838 14.5
5.1192307 0.99986541 -0.47703984 4
5.0427036 1.5730194 -0.48601127 4
4.9372239 6.3203449 -0.39401796 5
4.8077283 -0.68670493 0.026335239 6.5
4.9399981 -0.16810116 -0.01424099 6.5
4.9066296 0.19685929 -0.035313565 6.3333335
4.9667668 0.50821942 -0.049083557 6
5.1959863 2.4329739 0.089078464 7
4.8594627 6.3437486 -0.031696357 6
4.8273587 -0.58893436 0.25565726 8
4.8852634 -0.18900251 0.263843 8
4.8978477 0.19054919 0.28241527 8
4.9377074 0.60176486 0.26037186 8
4.8048501 -0.93165338 0.70880949 10.8
4.8370743 -0.60119247 0.69271743 10.833333
4.8938355 -0.21402995 0.6515522 10.5
4.9102416 0.15245272 0.72275954 10.8
4.9810152 0.56210077 0.72454226 10.333333
4.8409686 -1.3584964 1.0414172 12
4.7929258 -0.87312871 1.149143 13
4.8495817 -0.64141023 1.0927351 13
4.9476571 -0.2216222 1.1376152 12.833333
4.9062285 0.20882004 1.106454 12.833333
4.9497771 0.53044534 1.0809821 12.75
4.8563471 5.1783609 0.95893836 10
4.8674588 5.2121305 1.035485 11
4.8242922 -1.2099044 1.4280589 15
4.8164878 -0.97732145 1.385144 14.666667
4.8473835 -0.57330662 1.4105623 14.5
4.9176831 -0.20071933 1.4203839 14.666667
4.9129815 0.1958369 1.4857353 15
4.9462543 0.58419114 1.5530206 15
4.7861781 6.2983027 2.5415118 15
4.9990468 6.2522488 2.5517249 15
5.4033413 2.4212749 -0.28753611 5
5.3545012 3.1785116 -0.51401895 4
5.3992872 3.2327957 -0.36338317 5
5.3223848 2.3428137 0.071800262 7
5.4269485 2.4397101 -0.23024294 5
5.5889606 3.0134518 0.2882773 8
5.4737267 3.2416458 0.34572998 8
5.5569496 4.6688232 0.45345989 8
5.7882452 2.5741053 -0.56963956 4
5.673769 2.8402908 0.30389112 8
5.7862883 3.4984605 0.40415227 8
5.9545026 6.2539873 0.53949803 8
5.9597425 3.564451 0.70813978 9
5.9230661 6.2688122 0.712834 9
5.6603503 6.3802323 1.0166795 10
5.7142496 6.3751884 1.652369 12
5.8854036 3.8428304 2.2133853 15
6.1658258 2.9498084 -0.041511197 6.5
6.1922135 2.5949378 0.34466246 7.6666665
6.1402221 2.9997406 0.41143829 8
6.1843562 6.3365779 0.39275259 7.5
6.3401198 2.631887 0.65173602 9
6.1825132 6.3202772 1.1459378 10.5
6.1798124 3.7556643 2.3020401 15
6.1104569 6.0795083 2.6504214 15
6.517436 2.935348 -0.51438212 4
6.6641431 2.5898926 0.35297528 8
6.4348087 2.9429746 0.46367374 8
6.4417348 6.2940602 0.37653399 7.5
6.7577643 6.2902555 0.9029038 9
6.528542 6.2639952 1.1929939 10.333333
6.5819592 3.7262566 2.1677339 14
6.422668 6.2661438 2.3748293 14
7.0751867 2.2707546 -0.50984424 4
7.1158404 5.67556 -0.31416756 5
7.1131287 2.3330786 0.087828346 7
6.8982401 2.6038606 0.21854299 7
7.1025572 3.7953815 0.46007779 8
7.1462679 6.1001935 0.20309268 7
7.1597004 6.1439691 0.6779089 9
7.0162153 6.1230941 1.5553826 11
6.8927026 6.1781645 1.8550972 12
7.1518149 1.9303282 2.2296298 15
7.084774 2.9574671 2.3868563 15
7.0272393 5.9306979 2.9895191 15
7.3917456 3.8999636 0.030283865 7
7.3620367 4.2310185 0.05823639 7
7.5217042 4.6733623 -0.021628397 6
7.4135184 5.9869614 -0.045608401 6
7.3575511 6.0024395 0.24189395 7
7.3194909 6.0119004 0.43252233 8
7.1858053 5.9382601 1.8065734 12
7.1874986 6.1449194 1.8695241 12
7.2522473 2.5330272 2.4276476 15
7.4631324 3.4994159 2.3700521 14.5
7.270658 3.7990587 2.4417942 14.666667
7.2414789 4.0274849 2.5059536 15
7.3729491 4.6165309 2.4315321 14
7.428134 4.9374061 2.5535705 14
7.172791 6.1026459 2.432559 14
7.3342285 4.3685431 2.615674 15
7.9165611 5.4695358 0.10725749 7
7.7122974 5.6825404 0.79562271 8.5
7.7817822 5.6472502 1.0341702 10
7.7720962 5.6747518 1.6466246 11.5
7.6440473 1.7454813 2.3845897 15
7.659513 3.4625015 2.2873437 14
7.9453874 4.3793936 2.1930325 13
7.6669364 4.4653883 2.4741228 14
8.3405542 2.7892551 0.013919516 6.5
8.305294 2.961369 -0.12164859 6
8.2897825 2.6606667 0.30674168 7.5
8.2514629 2.9813361 0.34075657 8
8.3237047 2.6183584 0.6009391 8
8.3956394 2.1494753 0.25048155 7
8.7231703 6.0255952 0.43520501 8
8.6707392 6.0011225 0.77291799 9
8.7485085 5.970242 1.9936528 12
8.6257019 1.5636457 2.5744438 15
9.1117373 5.6335931 -0.48091239 5
8.8080711 1.8156067 -0.0017781557 6
9.0154743 5.9228468 0.057427369 7
8.9222937 2.0587184 0.2235844 7
9.1391802 2.575655 0.27007458 7
8.8799133 5.9026151 0.61092162 8
8.8981009 5.9050269 0.96856451 9
8.8864784 5.9096918 1.315847 10
8.8597689 5.9063363 1.6154222 11
9.0870447 3.4163964 2.1693528 13
8.8275242 5.8953099 1.943149 12
9.0722551 3.754169 2.2276988 13
8.818593 5.7907386 2.4145703 13
9.4350853 1.9877739 0.13645235 7
9.3762264 5.8425612 0.023685718 7
9.266428 5.8729796 0.95580137 9
9.2490625 5.8662152 1.2899063 10
9.2332687 5.8734584 1.5935744 11
9.4119101 3.2670803 1.8209269 12
9.3662176 5.7884336 1.9673471 11.5
9.1808538 4.0382757 2.2945862 13
9.1555691 5.5851631 2.5820646 13
9.3476048 5.8250384 2.3130641 12
9.9740181 1.7677022 -0.37377197 5
9.8293381 1.5358859 0.13919054 7
9.7759113 1.8532358 -0.004994065 6.5
9.9205723 1.4430312 0.39267135 7.5
9.6414776 5.7936282 1.3263313 10
9.7111378 3.9475496 2.0247283 12
9.891099 5.7041693 2.3481574 12
9.5768509 1.6768063 2.7825491 14
9.7142477 3.2031069 2.8264241 14
9.5716982 5.5557017 2.6325612 13
9.5858564 1.4942373 3.049638 15
9.8462763 2.6017079 3.0524981 15
9.6517487 2.9043612 3.0701339 15
9.906086 4.1013136 3.0748224 14
10.17549 1.734889 0.024161132 6.3333335
10.079826 5.712678 0.94707525 9
10.053107 5.7560344 1.193168 9.5
10.257275 3.901166 2.0765235 12
9.9677944 5.6900034 1.9978616 11
10.162184 5.5554781 2.3502915 12
9.9733353 2.5309961 2.7901661 14
10.243727 4.6787257 2.8187792 13
10.210929 2.091764 3.0356009 15
10.337407 3.4493148 3.0272827 14
10.124232 3.779778 3.0516748 14
10.13363 5.4109259 3.0652754 14
10.466314 2.1523106 0.18226892 7
10.509131 2.2514219 0.55686682 8
10.492167 5.6695008 1.2097744 9.5
10.513467 5.6228757 1.6546937 10
10.611425 5.6400065 2.1034811 11.5
10.505067 5.4318461 2.3630669 12
10.449045 4.4687643 2.8097563 13
10.565413 3.252454 3.0344961 14
11.066743 5.6166139 1.1208472 9
11.019272 5.5546446 1.6716474 10
10.828856 3.1335056 1.967338 11
10.873156 5.5395389 2.0440831 11
10.964526 5.3531008 2.3979549 12
10.955768 2.8184466 3.0313954 14
10.823874 3.443006 2.7977176 13
10.825974 4.6452003 3.0221639 14
10.778493 3.04493 3.0380366 14
11.37562 5.5546989 0.97453272 9
11.430575 5.5100713 1.3459762 9
11.465395 5.4993958 1.7234267 10
11.314184 4.0652485 2.1656277 11.5
11.384083 5.4110293 2.1612742 11.5
11.454905 5.2738614 2.4374006 12
11.279426 2.3448901 3.0128589 14
11.15194 2.5933173 3.0303304 14
11.496712 3.9684131 3.0082488 13
11.280422 4.2018189 3.0150397 13
11.295807 5.2730184 2.8084011 13
11.764195 1.9532424 0.52112395 8
11.955585 5.4301038 1.3527074 9
11.876445 5.4385304 1.7788588 10
11.824945 1.7967349 2.2709217 12
11.846403 2.2011559 2.3410599 12
11.873777 2.6141212 2.4154367 12
11.908599 2.8986027 2.4698782 12
11.913488 5.1595383 2.4666822 12
11.895545 5.2702756 2.3031175 11
11.725881 1.798064 2.9031825 13.666667
11.846025 2.2435062 2.7796307 13
11.882843 2.548208 2.833689 13
11.913336 3.4745567 2.992897 13
11.668739 2.144635 3.0579946 14
12.077976 5.4174089 0.91371804 8
12.107888 5.3910561 1.7065496 10
12.232745 2.6663356 2.1042614 11
12.139389 2.9339118 2.1147625 11
12.055978 3.2001169 2.1283011 11
12.083577 3.7926857 2.1859794 11
11.995089 5.4168978 2.1141357 11
12.013186 3.3421333 2.559238 12
12.083632 3.8857834 2.4692395 12
11.956393 3.0217962 2.9238088 13
12.538572 5.3531427 1.3609269 9
12.740615 5.3093576 1.7292218 10
12.613465 5.3500085 2.1545775 11
13.00883 5.2663636 1.826597 10
13.342504 2.0394423 -0.63683283 5
13.401351 5.2095661 1.7521122 10
13.173093 5.2280588 2.1827788 11
13.925695 2.8191261 -0.61005425 5
13.813616 5.1644354 1.3759656 9
13.608555 5.161325 1.8496701 10
13.748804 5.0834341 2.2073567 11
13.9931 5.1299024 0.88079262 8
14.109123 5.0939283 1.7738556 10
14.729509 2.7999444 0.61488301 8
14.714513 2.6324954 0.88144648 8
14.759238 3.0134733 0.93841916 8
14.660025 2.1764443 1.4701042 9
14.735845 2.6455042 1.4936316 9
14.475654 5.0862164 1.4349377 9
14.430304 4.9517264 2.243675 11
14.840519 3.546515 0.70002848 8
14.875667 3.6235564 0.53313297 7
14.903913 3.8378589 0.88195157 8
15.056372 4.2438741 0.92705131 8
15.053022 4.9760184 1.0041333 8
14.828553 3.331903 1.1763812 9
14.884435 3.7048542 1.225473 9
14.943304 4.0817738 1.2751328 9
15.109118 4.6010642 1.482306 9
15.077994 4.863647 1.3763676 9
14.796652 3.0310962 1.5464618 9
14.883403 3.4264917 1.6020554 9
15.027758 4.6182156 1.7623069 10
14.951327 4.9555821 1.8537166 10
15.189777 4.4406629 0.56062907 7
15.250867 4.5400243 1.3409979 9
15.26653 4.2920027 1.7328976 10
15.797219 2.9546402 1.6857061 9
15.721192 3.3047132 1.729346 10
15.694116 3.6626153 1.7759329 10
15.720914 4.0191731 1.724543 9
16.114388 4.6525087 2.0535877 10
16.481213 3.5782647 -0.21366309 6
16.689766 4.4464397 2.3596675 10
16.941225 2.873311 2.3282406 10
16.919512 2.71614 2.6323032 11
16.923164 3.1097331 2.6921377 11
16.958227 3.2793858 2.3697667 10
17.090918 3.7118843 2.4279859 10
16.964619 3.5252664 2.7625744 11
17.154739 4.1431313 2.4786854 10
