# .PCD v0.7 - Point Cloud Data file format
VERSION 0.7
FIELDS x y z intensity
SIZE 4 4 4 4
TYPE F F F F
COUNT 1 1 1 1
WIDTH 152
HEIGHT 1
VIEWPOINT 0 0 0 1 0 0 0
POINTS 152
DATA ascii
-5.2485576 -1.2069031 0.82858515 12
-5.068284 -0.68359292 1.3262331 15
-4.8723865 2.0988221 0.28181389 9
-4.8830662 1.9900367 0.77801919 12
-4.848268 2.255666 1.0145023 13
-5.0091524 -2.1050928 1.2500299 14
-4.7388997 2.7270303 0.16910121 8
-4.4543819 3.9864783 0.20031776 8
-4.46662 3.9249189 0.73772138 11
-4.6043882 3.2222166 0.94583493 12
-4.4930682 3.5908868 1.0693054 13
-4.6126242 3.2834978 1.2598553 14
-4.4348812 4.1170816 1.3499666 14
-4.498951 3.5740006 1.5801588 15
-4.3753848 -1.0715039 0.0046332544 7
-4.2895498 4.6945872 0.061790679 7.5
-4.3698134 -1.161256 0.18543699 8.5
-4.3373938 -1.0317774 0.45062488 10
-4.2349105 4.8999958 0.38470715 9
-4.2478991 4.8740492 0.90339684 11
-4.0353961 -1.7001805 0.45629364 10
-4.1762891 4.9363327 0.56142223 10
-4.0445461 -1.70514 0.61581385 11
-4.1952391 4.9301648 1.0028901 12
-4.1884484 4.9523778 1.3152224 13
-4.1731148 4.930522 1.5132657 14
-4.221509 4.8218632 1.8396403 15
-3.9948285 -1.720013 0.11768337 8
-3.6109447 4.8160577 0.24345233 8
-3.473392 -1.8475815 0.089508042 8
-3.4545286 4.7741809 0.3622556 9
-3.4416354 -1.8387649 0.40452349 10
-3.311609 -1.8749266 0.18098059 9
-3.3722849 -1.869241 0.52762008 11
-3.0465801 -1.9558433 0.10683765 8
-3.0806177 4.6884031 0.81714416 11
-2.8721366 -1.9800482 0.14948496 9
-2.8664916 -1.9929568 0.32433209 10
-2.9097025 -1.9508562 0.41371521 11
-2.9650812 4.6599817 0.85241991 12
-2.8592761 -1.9105971 0.97585791 15
-3.0129838 4.6688342 1.4385189 14
-2.7961659 4.6198258 0.34061882 9
-2.7510459 4.6204672 0.48040712 10
-2.6615171 4.5867758 1.406723 15
-2.2940421 -2.0921166 0.29537737 10
-2.4101632 -2.0409861 0.8969633 15
-2.1689572 -2.1226935 0.067430452 8
-2.0355501 -2.7642725 0.33829099 10
-2.1837308 -2.1251519 0.19896638 9
-2.0394044 -2.166687 0.84381032 15
-2.1041043 4.4653435 1.3062223 14
-1.8622303 -2.9282837 0.24238124 9
-1.9918 -2.1682384 0.27979308 10
-2.0014603 4.4445605 0.59134799 11
-2.0058205 4.4323401 0.84073651 12
-1.9486052 4.4527769 1.0476874 13
-1.9467543 4.4099984 1.3558103 15
-1.4261709 -2.8153758 0.24028075 10
-1.3351556 -2.5813928 0.015921978 8
-1.398621 4.3275518 1.2016263 14
-1.1075263 4.2367873 0.38069779 9
-0.92711246 -1.3356402 0.45429924 15
-0.84917414 4.1838126 0.50502187 10.5
-0.8531186 4.190845 0.79766077 12
-0.95782596 4.1891856 0.84946418 13
-0.88585865 4.1664557 1.2235471 15
-0.6816861 4.7287784 0.98657435 13
-0.56123316 0.55908728 -0.24359146 0
-0.46465942 -1.0665582 0.27396464 14
-0.50017673 4.6760159 0.57919407 10.5
-0.48069274 7.0841327 0.60517198 9
-0.60330802 5.0954533 0.9571467 12
-0.38776204 0.7915085 -0.26101771 0
-0.27039146 0.8721962 -0.26451033 0
-0.048550099 -3.2427304 0.13149686 8
-0.15306379 -1.1433356 0.30647042 14.5
-0.038393211 -1.8457464 0.48374942 15
-0.12880231 6.9047618 1.8039685 14
0.087334394 -3.155417 -0.0078937784 7
0.10248102 -1.9395359 0.19766548 10
0.18798465 -1.4085624 0.232343 12
0.02565402 -2.0113935 0.40732956 13
0.12251934 6.8405848 0.59475654 9
0.024420742 6.8572035 0.74974525 10
-0.0019545008 6.8700347 0.99997252 11
0.0033088785 6.8737259 1.2031096 12
-0.02527206 6.8780189 1.9138838 15
0.30608127 -2.0620899 0.22934256 10
0.24034503 -1.2352155 0.25451675 13
0.49962997 -1.23939 0.33408931 14
0.69055873 -0.081974931 -0.1999277 0
0.62462449 -1.3116782 0.26149777 12
0.90995377 -1.8486545 0.16755724 9
0.84384859 -1.3353856 0.46910998 15
0.8741374 6.7967658 1.3704642 13
0.90759164 6.7646909 1.6339923 14
1.0108441 0.068160236 -0.21699931 1
1.1921072 0.55509883 -0.22907935 2
1.1642056 -1.3723603 0.51917195 15
1.2205122 0.30907452 -0.22368731 2
1.7270218 6.582839 1.9053928 15
2.1120477 -2.3791821 0.17144392 8
2.185812 -0.70096457 0.14363675 8.5
1.9981807 -2.9161208 0.31202883 9
2.2849903 -0.48228455 -0.17520401 5
2.198112 -0.72980767 0.23290758 10
2.3082266 -2.0029817 0.67700917 13
2.4517961 -2.5053291 0.017268892 7
2.5371301 -2.064851 0.018137045 7
2.5855949 -2.2316942 0.20746101 9
2.4663322 -2.0400944 0.076743953 8
2.5253067 -1.4976853 0.076215729 8
2.4851618 -2.1070032 0.3125101 10
2.5433509 5.7434282 0.77763158 10
2.470608 6.413373 1.051428 11
2.6697788 -1.9091856 0.19271548 9
2.6386056 -2.0856106 0.57732385 12
2.7343667 -1.4904392 0.51840967 12
2.6124067 -2.0418847 0.81430417 14
2.762821 -1.5376469 0.78198284 14
2.7266407 -1.5366001 0.86932057 15
2.7573891 6.3500228 1.3668479 12
2.9511297 -0.21661644 0.23401931 9
2.9604661 -0.19706644 0.13479917 8
2.9632707 -0.19235311 0.29771301 10
2.8899429 -0.83795846 0.62172925 13
2.9335039 -0.77317703 0.58006603 12
2.9566283 -0.1877894 0.49374372 11
2.8963702 -0.9890542 0.81347573 14
2.9900436 -0.57194614 0.68778503 13
2.954586 -0.19274248 0.64529669 13
2.9615555 -0.17666465 0.87017429 15
3.0359786 0.15244265 0.16969982 8
3.0943511 0.37605834 0.36392069 10
3.0433731 5.196754 0.41119468 9
3.0329483 -0.3173717 0.61958772 12
3.0632555 0.19031353 0.44597468 11
3.0853252 -0.32679802 0.77599621 14
3.0551209 0.021334674 0.82779795 14
3.0792992 0.35307333 0.73881555 13.5
3.0604343 0.33033559 0.95140702 15
4.468257 2.1787384 0.073943637 7
4.6675386 2.0137901 0.72315538 11
5.5126934 5.0273223 0.18223336 7
5.6763482 5.6341257 2.2837605 15
6.090373 5.1878581 1.1738257 11
6.0897651 5.186841 2.1836755 14
7.5099425 3.2944951 2.2641385 14
8.1533852 5.1451869 1.5581031 11
7.988749 2.6940653 2.2847705 14
8.8843708 4.9925523 2.3813314 13
