# .PCD v0.7 - Point Cloud Data file format
VERSION 0.7
FIELDS x y z intensity
SIZE 4 4 4 4
TYPE F F F F
COUNT 1 1 1 1
WIDTH 56
HEIGHT 1
VIEWPOINT 0 0 0 1 0 0 0
POINTS 56
DATA ascii
-0.38149837 -0.90734255 -0.19266832 116
-0.210256 -0.92480582 -0.1903674 117
-0.075541779 -0.96397376 -0.17688665 119.33334
0.075029373 -0.94677728 -0.17890485 126.66666
0.21166725 -0.93893111 -0.18621379 131.66667
0.33875224 -0.92577976 -0.18644999 129
-0.50105119 -0.81445175 -0.19019291 109
-0.32943484 -0.84734213 -0.19579457 120.66666
-0.15742932 -0.84626794 -0.19691768 130.75
-0.028400743 -0.87034702 -0.18532625 133.75
0.093643747 -0.89399481 -0.18364447 135
0.11674307 -0.82031739 -0.17901461 133.66667
0.23197186 -0.83083475 -0.18614015 137.75
0.34263211 -0.84223491 -0.18440412 139.75
-0.44454718 -0.76414919 -0.19486238 117
-0.39051771 -0.71571791 -0.19792393 123
-0.24939102 -0.75455731 -0.19883858 131
-0.10596615 -0.76561415 -0.19285236 140
-0.079523385 -0.72623754 -0.1959756 138.66667
0.026726896 -0.75726181 -0.18849032 139.8
0.14494428 -0.73978454 -0.18545561 139
0.25143257 -0.73334777 -0.19055134 146.60001
0.34938714 -0.73839992 -0.18945341 151.8
-0.34861332 -0.6787535 -0.20286505 129.66667
-0.27208582 -0.60706782 -0.1940529 140.5
-0.16240342 -0.6525898 -0.19841385 140
-0.035388682 -0.65917534 -0.19780472 144.25
0.077361099 -0.65415066 -0.19279173 143
0.17524311 -0.65148222 -0.19006398 150
0.2695221 -0.63686043 -0.19028921 160.2
0.35552746 -0.62872452 -0.19080713 165.2
-0.23692319 -0.57671368 -0.20104741 143
-0.15149729 -0.55014902 -0.19819503 143.39999
-0.058955017 -0.5310064 -0.19685389 143
0.046999384 -0.53197604 -0.19611025 151
0.14724357 -0.55834299 -0.19261596 158.54546
0.25029573 -0.53362417 -0.19470637 172.61539
0.36134604 -0.54023868 -0.1952026 175.5
-0.12503389 -0.4744738 -0.1991743 143.66667
-0.046345945 -0.44859171 -0.19567584 147.66667
0.048307423 -0.45022663 -0.19751674 157.60001
0.15575522 -0.49347067 -0.1973832 167.5
-0.13315089 -0.3697716 -0.17183302 141.57143
-0.064747795 -0.3510136 -0.19292347 149.3
0.09821555 -0.20866095 -0.18273605 162
0.15372396 -0.14006183 -0.12267076 125.70588
0.25331393 -0.14160196 -0.14652707 121.91666
0.33660588 -0.14399837 -0.17176107 120.85714
0.84806329 -0.024680858 -0.18614358 185
0.8460443 0.031070998 -0.18696061 185
0.95161337 0.039642259 -0.18424064 189
-0.042144846 -0.2488337 -0.05647324 134.5
0.065577477 -0.20471182 -0.033806022 122
0.07698676 -0.14994395 -0.034695286 125.8
0.10921989 -0.13982926 -0.087015435 119.66666
0.10894779 -0.16368188 0.024041323 130.625
