# .PCD v0.7 - Point Cloud Data file format
VERSION 0.7
FIELDS x y z intensity
SIZE 4 4 4 4
TYPE F F F F
COUNT 1 1 1 1
WIDTH 702
HEIGHT 1
VIEWPOINT 0 0 0 1 0 0 0
POINTS 702
DATA ascii
-6.2621398 -1.6981716 0.87741983 11
-6.0815349 -1.1918057 1.3724355 14
-5.7318435 -1.398139 0.16825666 8
-5.6229277 2.2529006 0.035187449 8
-5.7554235 -1.4048963 0.55984652 10.333333
-5.6505442 2.1710997 0.48603234 9.8000002
-5.8466077 -1.8616037 0.93246913 11.666667
-5.8379149 -1.4378653 0.95597631 12
-5.6439466 2.2422369 0.93067777 12
-5.6347666 -2.0356467 1.2525849 13
-5.8532705 -1.8444108 1.2193747 13.4
-5.8874521 -1.4239038 1.2894734 13.666667
-5.7475748 1.8988075 1.3666267 14
-5.6705704 2.1993337 1.3690723 13.5
-5.7692842 -1.5745813 1.6867239 15
-5.9532175 0.67950851 1.697107 15
-5.8031106 0.96408892 1.5606285 15
-5.8550806 1.2771772 1.6268046 15
-5.7700272 1.7796365 1.6109511 15
-5.6878238 2.1708176 1.5842947 15
-5.4152727 -1.4777811 0.15210676 8.3999996
-5.5818038 2.3105695 0.093988851 8
-5.5265846 2.6008852 0.059872024 7.6666665
-5.4395981 2.9274566 0.063737452 7.6666665
-5.3197007 3.3851945 0.19620119 8.333333
-5.2534957 3.609442 0.085370056 8
-5.4677129 -1.4612216 0.49240622 10
-5.248632 -1.145946 0.32530805 9
-5.6047921 2.3458643 0.55708647 10
-5.5546923 2.539094 0.57210267 10
-5.4183002 3.0515606 0.59717238 10.333333
-5.3460894 3.3517652 0.63008189 10.333333
-5.2272878 3.7594182 0.48698172 9.5
-5.3684249 -2.0959365 0.95818502 12.25
-5.5883241 2.3736315 1.0564557 12
-5.5281196 2.6622782 0.91664004 11.833333
-5.4364119 3.0250921 0.91902989 11.5
-5.3424563 3.3829942 0.90866518 11.6
-5.2448735 3.7309902 0.89908558 11.333333
-5.4815068 -2.0632203 1.2363017 13.666667
-5.5836964 1.4060721 1.4717644 15
-5.6219878 2.386739 1.4315822 14
-5.5502 2.5973227 1.3289405 13.5
-5.4367671 3.0226276 1.3382952 13.5
-5.3325481 3.4112239 1.362313 13.5
-5.257163 3.6542876 1.2562622 13
-5.3586688 -1.6700099 1.5821025 15
-5.5762296 2.5655849 1.625863 15
-5.4511147 3.0249112 1.6299131 15
-5.3635807 3.3608587 1.6233772 14.5
-5.2661376 3.7311735 1.677482 14.75
-4.8194809 -1.6399093 0.11626296 8
-5.0311422 -1.5683873 0.17551273 8.5
-5.1750479 3.9103055 0.21304455 8.333333
-5.0972862 4.1857014 0.2176239 8.5
-4.9875121 4.6046314 0.21866292 8.2857141
-4.8828659 4.9381833 0.12223586 7.5
-4.8998809 -1.6111858 0.50676572 10.5
-5.0638518 -1.5510154 0.47088468 10
-5.1722751 3.9470205 0.45477435 9.5
-5.1110001 4.1819434 0.50498921 9.75
-5.0227904 4.5168638 0.59163338 10
-4.9058843 4.9608483 0.44370678 9.333333
-5.024292 -2.1855845 0.95963651 12.5
-5.1992283 3.92484 0.99792528 12
-5.1261182 4.2001581 0.97109139 11.5
-5.0008969 4.6223297 0.9309752 11.333333
-4.9519453 4.8961825 1.0377443 11.5
-5.0417037 -2.197171 1.1191978 13
-5.0133529 -1.7639657 1.4968414 15
-5.1946945 3.8825266 1.2935555 13
-5.1134772 4.2033367 1.3483533 13
-5.0197706 4.5291052 1.403965 13
-4.9589453 4.7954125 1.4510754 13
-5.207407 3.9425759 1.6723995 14.5
-5.1344156 4.2300415 1.7087545 14.5
-5.029695 4.6220021 1.7573578 14.4
-4.9416327 4.938467 1.7848972 14.666667
-4.58813 -1.6966819 0.1771114 8.5
-4.4922786 5.0076151 0.0867448 8
-4.6090055 -1.6820723 0.48356998 10.5
-4.612113 5.0140042 0.57186627 9.75
-4.6284432 -2.2228713 0.93924087 12.5
-4.6604342 5.0228009 0.94899952 11.25
-4.6936626 -1.841369 1.4198331 15
-4.7139297 5.0316858 1.3873042 13
-4.5763216 5.0071678 1.7674966 14.666667
-4.1677141 -1.8012594 0.18514036 8.5
-4.216682 4.9349985 0.11501407 8
-4.1933918 -1.7930775 0.45943052 10.571428
-4.1902785 4.9045377 0.48580447 9.5
-4.2188888 4.9076266 0.9567672 11.666667
-4.3268476 -1.9398543 1.3348292 15
-4.260457 4.9120927 1.2591137 13
-4.2440886 4.9134364 1.742884 14.666667
-3.7784784 -1.8950044 0.17176183 8.5
-3.6594195 1.7322618 0.21137153 8.5
-3.6171484 2.0361607 0.19590893 9
-3.7193689 4.7947397 0.16330169 8
-3.9570415 4.8566804 0.14030702 8
-3.7356663 -1.9184984 0.44392514 10.333333
-3.6539726 4.7647777 0.5017308 9.5
-3.8318305 4.8133531 0.55758893 9.5
-3.7118435 -1.9288595 0.87542605 13.333333
-3.7124403 4.7736735 0.92988133 11.5
-4.0033145 4.85287 0.95311725 11.5
-3.8552504 -2.072129 1.2315217 15
-3.8280561 -1.8851981 1.2202302 15
-3.6901498 4.7622757 1.3083063 13.5
-3.9214318 4.8236752 1.3256613 13.5
-3.8603826 4.8151193 1.6541247 14.5
-3.216326 -2.0023839 0.2479831 9
-3.3714352 -1.9871937 0.26519635 9.333333
-3.3815987 1.8513402 0.21738362 8.8000002
-3.3718514 2.250597 0.26799273 9.333333
-3.4347174 4.7150078 0.2321396 8.333333
-3.4461591 -1.9768395 0.42313135 10.666667
-3.4235332 4.6997938 0.5567416 10
-3.4165933 -1.9854428 0.84410447 13.5
-3.4419875 4.7097931 0.90978092 11.5
-3.3707814 4.6807809 1.2857151 13.5
-3.4326415 4.7090206 1.6902975 15
-2.8308198 -2.4037862 0.015680581 8
-3.0547631 -2.062031 0.21148305 9.1999998
-3.0155177 4.609838 0.28480718 8.5
-3.0406208 -2.0731502 0.43399441 11
-3.001694 4.5941534 0.55323356 10.166667
-2.9004109 -2.6308246 1.0797116 15
-3.0160115 -2.1329739 0.87375861 14
-2.9596157 4.5806575 0.99553525 12
-3.0252433 4.5910096 1.2851562 13.666667
-2.9791615 4.5925221 1.63348 15
-2.4056494 -2.9076867 0.2690188 9
-2.7733765 -2.2004664 0.098644704 8.333333
-2.6373451 4.5058961 0.26720333 9
-2.4832261 -2.9166749 0.43908745 10.5
-2.5939505 4.4863315 0.56150186 10.166667
-2.618624 -2.867861 1.0611259 15
-2.7808993 -2.8058476 1.0785928 15
-2.811419 -2.1769354 0.91855615 14.5
-2.5826483 4.4766607 0.95837533 12.5
-2.6655936 4.4956145 1.4539553 14.666667
-2.2369521 -2.9588685 0.22369809 9
-2.0174048 -0.99875408 0.20317991 10
-2.1060894 4.3645396 0.35265851 9
-2.3372238 4.4266229 0.29399526 9
-2.212465 -2.9903052 0.4388299 10.6
-2.1051211 -0.89759934 0.44948664 13
-2.1231966 4.362309 0.55837417 10.333333
-2.3134317 4.4132466 0.5729019 10.5
-2.2473481 -2.9638617 1.028417 15
-2.0975363 4.3557925 0.98960376 13
-2.3330066 4.4160452 0.99734277 13
-2.1912916 4.3728967 1.3261894 14.5
-2.3775675 4.4200277 1.3434324 14.5
-1.7363251 -3.0529945 0.25156182 9.25
-1.7778149 -2.7337444 0.15347274 8.8000002
-1.6816232 -1.2647076 0.196211 10.333333
-1.7408811 -1.0617964 0.20988916 10.4
-1.8971015 4.3063087 0.33251011 9
-1.7941238 -3.0866015 0.50257492 11.5
-1.8110242 -1.2412783 0.4428364 13
-1.7778068 -0.99699277 0.46356726 14
-1.8405297 4.2871981 0.61673272 11
-1.8110408 -3.0750942 1.0105195 15
-1.8437494 4.2868657 1.0184121 13.2
-1.6373819 7.2394118 0.99252123 10.5
-1.8337277 4.2804518 1.257768 14.666667
-1.6640748 7.2460918 1.4027277 12
-1.6683735 7.232717 1.7205235 14
-1.6925361 6.9466186 2.1265993 15
-1.5611682 -3.1440597 0.10932437 8.5
-1.2865565 -1.7909182 0.21308777 10
-1.2724884 -1.6010188 0.21003664 10
-1.2852149 -1.0765272 0.25965515 12
-1.5037719 4.2497349 0.36844578 9
-1.3826387 4.5861378 0.39607605 9
-1.582309 -3.1285512 0.49955943 11.5
-1.2280841 -1.7024987 0.4479003 13
-1.2460049 -1.5342575 0.46028268 14
-1.421101 -1.0183524 0.45798779 14.75
-1.5360858 4.2221985 0.60232502 11
-1.367328 4.5866089 0.5044508 10.166667
-1.2977251 5.0223675 0.67062354 11
-1.2900487 7.156776 0.54179281 9
-1.5040833 7.2066565 0.54283494 9
-1.5759447 -3.1164422 0.98907304 15
-1.5194845 4.229918 1.0448735 13.5
-1.4279559 4.5585504 1.0223669 13
-1.3141614 4.9860311 1.0304492 12.5
-1.3443053 7.168283 0.96428788 10.5
-1.53189 7.2140465 0.92740929 10.5
-1.5533957 4.2064452 1.2704772 15
-1.4006526 4.6273022 1.3082294 14.75
-1.338678 4.9671888 1.4619143 14.666667
-1.2679496 7.1510515 1.3967243 12.5
-1.5121868 7.2146688 1.4662453 12.666667
-1.3926387 7.1671977 1.7617861 14
-1.59355 7.2115889 1.8651543 14
-1.4410658 6.998436 2.1308858 15
-0.97466296 -1.7188449 0.17884111 10
-1.0752045 -1.2745608 0.19505742 11
-1.0958778 -1.1178063 0.22768176 11.571428
-1.0872016 -1.7888135 0.45435175 13.5
-1.1571317 -1.403753 0.45372587 14.333333
-1.1365486 -1.0727158 0.40658161 14.5
-1.1420631 4.7581458 0.62603867 11
-1.033218 7.0869803 0.54342151 9
-1.038209 7.0913172 0.92656916 10.5
-0.99134904 7.0754132 1.3982168 12.6
-0.9893375 7.0704851 1.771809 14
-1.0075818 6.9747682 2.1129451 15
-0.55170858 -0.57905275 -0.20920601 0.5
-0.60026854 -0.38483101 -0.22277752 0
-0.5108037 -3.4004047 0.16634427 8.6000004
-0.50706112 -1.285486 0.25177529 12.428572
-0.47199762 -3.3798566 0.49548805 11.6
-0.67646062 -1.3942218 0.41296414 14.5
-0.60502183 6.8927994 0.64266545 9.333333
-0.53038406 -3.3647957 0.99118298 15
-0.66619086 6.9033766 0.97652584 11
-0.60565221 6.8980608 1.3801945 12.666667
-0.57243109 6.8981109 1.8185269 14.333333
-0.49266207 6.8753667 2.0772729 15
-0.079053961 -3.5219219 -0.022294601 7
-0.11221492 -2.6073284 -0.14622581 6
-0.025400309 -2.1489978 -0.14869568 5
-0.20457506 -1.7705715 -0.14763647 5
-0.20286125 -1.3523617 -0.1626852 3.8
-0.19325741 -0.97294372 -0.18604106 1.7777778
-0.24303038 -0.68260819 -0.1992837 0.25
-0.27624023 -3.4382267 0.075301193 8
-0.12911764 -2.2112591 0.25783244 10.5
-0.20972735 -1.8076659 0.18272202 10
-0.31427875 -1.3269721 0.26403293 12.666667
-0.37046751 -3.4181981 0.53375047 12
-0.1577058 -2.2202487 0.47137606 13.2
-0.18046032 -1.6866305 0.48084959 15
-0.25615594 6.895061 0.69564098 9.5
-0.21088773 -3.4300148 0.93077338 15
-0.23146079 6.8875957 0.99638557 11
-0.22361316 6.8906646 1.400322 12.6
-0.19733508 6.878056 1.7431213 14
-0.24770655 6.9013863 2.0822392 15
0.16802892 -3.6168718 -0.071469799 6.5
0.092969947 -3.5010602 -0.070279121 6.5
0.20691535 -3.1683435 -0.1316942 6
0.2348665 -2.6531153 -0.1350098 6
0.21257876 -1.8723376 -0.13509278 5.25
0.19938549 -1.3779879 -0.15742527 3.8571429
0.21127236 -0.98393989 -0.17793936 2
0.2400061 -0.68201065 -0.19065388 0.2857143
0.27971086 -3.6532555 0.21444651 9
0.047538869 -3.5574381 0.0053791348 7
0.13580239 -2.1984661 0.26779416 10.6
0.12065832 -1.8359179 0.2422799 11.25
0.21154636 -1.3846219 0.20761472 11.333333
0.3169198 -1.1485958 0.20375299 12
0.225906 -3.5649116 0.57868826 12
0.1594855 -2.2505431 0.44246414 12.666667
0.18098994 -1.7668228 0.45804039 14.333333
0.37261939 -1.5797627 0.48050851 15
0.24993467 6.758738 0.64735204 9.333333
0.057208907 6.8119106 0.69807714 9.5
0.153706 -3.5026479 0.92314374 15
0.23165995 6.7656302 1.0335755 11.5
0.046782665 6.8111391 0.89186943 11
0.30206454 6.7499895 1.3937114 12.666667
0.09033718 6.8056974 1.3965317 12.666667
0.18643354 6.7734685 1.7440431 14
0.064818628 6.8174314 1.8173056 14.5
0.32493389 6.7541475 2.0430856 15
0.081664808 6.8176579 2.0595176 15
0.74905533 -3.8407526 -0.091833629 6.5
0.78884876 -0.071456678 -0.2196645 0
0.76657033 0.21056175 -0.21344097 0
0.6862101 0.65858829 -0.22503781 0.25
0.64657152 0.93862009 -0.24376069 0.5
0.72083592 1.3148406 -0.26062223 1.6666666
0.68009245 1.6112846 -0.25724322 3
0.45095658 -3.7360826 0.31075609 9.5
0.43275815 -1.532886 0.24019289 11.333333
0.4878929 -1.7496308 0.47308782 14.333333
0.55059904 -1.5363545 0.48350662 15
0.59626716 6.6704741 0.67237812 9.5
0.42624718 -3.6988797 1.0204494 15
0.60878479 6.6639161 1.0016341 11.333333
0.56325603 6.67905 1.4211345 12.833333
0.5727939 6.6769052 1.854884 14.5
0.86781758 -3.8571675 -0.091857851 6.5
0.98615682 -0.094943792 -0.19853248 0.66666669
0.94100523 0.1895043 -0.20004815 0.5714286
0.99644262 0.60459268 -0.21809068 1.25
1.0144439 1.000015 -0.23581481 1.8571428
1.0191187 1.4135526 -0.25858176 2.5
0.96525502 1.7890241 -0.26993084 3
0.9203155 2.133399 -0.27789852 3
1.0275639 2.5634112 -0.29656109 4
1.141181 3.0195258 -0.31580549 4
1.0181931 6.6530442 -0.025738969 7
0.93748367 -5.2502365 0.18583368 8
0.99033064 -5.1969471 0.27954093 9
1.1475395 -3.9481878 0.34215531 9.5
0.97633427 -3.2760777 0.18258576 8.333333
1.1024162 -2.9775746 0.16231167 8.5
1.1752712 -2.7456691 0.16168806 8.5
0.96921694 6.6833076 0.17845216 8
1.0801233 -5.227109 0.5146538 9.666667
0.90777898 -5.1793389 0.51437938 10
1.1652262 -3.9471295 0.561804 11
1.1234248 -2.9439144 0.48929977 11.666667
1.1715391 -2.6749089 0.52815825 12.333333
0.97301447 6.5698133 0.61676019 9.3999996
0.95522243 6.5709906 1.0003995 11.4
0.93449867 -5.255167 1.5596251 15
0.96548218 6.5717134 1.4387892 13
0.93205774 6.5854831 1.9305571 14.75
1.5224361 -0.14448819 -0.13912261 3.8333333
1.4095347 0.24970612 -0.18791199 2.75
1.3593708 0.61379331 -0.19951881 2.6666667
1.3869247 1.0162113 -0.22704904 2.75
1.3970239 1.4706664 -0.23873389 3.25
1.3524613 1.7485753 -0.25373402 3.5
1.3520416 2.168865 -0.28422377 3.6666667
1.4199978 2.6022785 -0.31171694 4
1.540833 2.9076831 -0.32594752 4
1.2904133 3.6201382 -0.33966628 4
1.2807996 -3.8828902 0.30981535 9
1.3681417 -2.5009518 0.25333619 9.6000004
1.4289824 -2.2606354 0.29390427 10.25
1.4435297 -0.82594085 0.25147584 11
1.422451 -0.76363093 0.19899677 10.25
1.3162247 -3.9024239 0.61306989 11.5
1.439055 -3.2573895 0.77894735 13
1.528348 -2.932986 0.75518918 13.333333
1.4070809 -2.5925074 0.5766719 12.428572
1.4185629 -2.2440717 0.60332942 13.333333
1.3940006 6.4557414 0.64653307 9.6000004
1.380247 -3.7442546 1.0714762 14.333333
1.4749979 -3.3427005 0.9590804 14.333333
1.55695 -3.0410218 0.90983212 14.666667
1.3890234 6.4566917 1.0491372 11.5
1.3285019 -3.8881986 1.2077754 15
1.3656328 6.4625602 1.4676795 13.142858
1.3580751 6.4694166 1.8539321 14.6
1.8870912 3.7831995 -0.36617532 4
1.7282609 -0.17252724 -0.099876106 4.6666665
1.9417876 0.11986426 -0.081412092 5
1.8350508 0.63368911 -0.18686764 4
1.6986579 0.90756732 -0.20830262 3.3333333
1.765956 1.3348302 -0.23461837 3.6666667
1.86245 1.7706088 -0.24809583 4
1.7658088 2.1570675 -0.26475653 4
1.7415433 2.4555314 -0.28116712 4
1.6950824 3.297251 -0.34454489 4
1.6429335 -2.4769864 0.18126541 8.5
1.7277595 -2.2013109 0.23856112 9.272727
1.8194754 -1.7930572 0.22012703 9.333333
1.906332 -1.4275005 0.2547062 9.818182
1.7834558 -0.83588272 0.23124841 10
1.6358393 -0.79475552 0.21606126 10
1.7886294 2.6253619 0.38818723 10
1.8654037 3.0344009 0.40666887 10
1.8099256 6.423769 0.24061915 7.5
1.6257111 -2.5283098 0.64826691 13
1.7412565 -2.141151 0.58951747 13
1.8255348 -1.8578233 0.60634583 13.416667
1.9413987 -1.4148203 0.58033466 13.5
1.9843023 -1.1775564 0.54971027 13.333333
1.7572113 2.6437232 0.59247613 12
1.8581604 3.0075219 0.62130827 11.6
1.9344759 3.4533052 0.78639984 12.5
1.7879997 6.3515215 0.65544295 9.5
1.60337 6.4037809 0.56360799 9
1.5963213 -2.8768356 0.86460644 14.5
1.6626557 -2.6228724 0.89445072 15
1.6793761 -2.2165716 0.83322072 15
1.770586 2.6710355 0.93788993 14.5
1.8064395 3.0270004 1.0222112 14.666667
1.908744 3.4211025 0.96146369 13.333333
1.9337753 3.6205883 0.85058331 13
1.831879 5.6334419 0.95677376 11.5
1.797091 6.3504419 1.0745776 11.333333
1.6041667 6.4013424 0.97459143 11
1.8574139 5.4852862 1.5664787 14.5
1.7498459 6.3656344 1.4716026 13
1.5933484 6.3969016 1.6250596 14
1.9053439 5.4600205 1.7535269 15
1.8187917 6.3515091 1.9136147 14.666667
1.6337208 6.3972993 1.7663412 14.5
2.22492 4.6298337 -0.4167296 4
2.1078429 -0.08051651 -0.049514402 5.5
2.2706692 0.37637743 -0.17831913 4
2.3066974 0.62784302 -0.19077276 4
2.1015689 1.0864837 -0.20513305 4
2.0914776 1.3969129 -0.22972172 4
2.2096922 2.1874111 -0.26595077 4
2.3133399 2.6356316 -0.27688965 4
2.0915945 3.0929558 -0.30292228 4
2.2353032 3.4081378 -0.19966637 5
2.3624232 3.724659 -0.029256435 6
2.0381413 -0.88569337 0.30704802 10.666667
2.1484153 -0.59108168 0.23440124 9.833333
2.1915286 -0.20201686 0.25712326 9.869565
2.2500699 0.14204384 0.24792777 9.909091
2.179297 2.6074266 0.16369052 8
2.0417171 3.5265729 0.39077064 9.5
2.2091575 3.78127 0.27383658 8.5
2.2491457 4.3762155 0.37003091 9
2.1570563 6.2431021 0.45493367 9
1.9995584 -1.2586062 0.5985195 14
2.0456703 -0.99261957 0.5389114 13.5
2.1522954 -0.56855243 0.55750322 13.727273
2.1837564 -0.19183961 0.56345433 13.846154
2.2506742 0.15827343 0.58083385 13.75
2.0256033 3.5035858 0.59679544 11
2.0566819 3.754509 0.59363443 10.5
2.2197278 4.2970877 0.68402559 11
2.2354376 4.5080919 0.68282127 10.5
2.3735852 4.992156 0.71068537 10.5
2.2063904 6.2132316 0.67811465 9.6000004
2.0798419 3.8400507 1.2463897 15
2.1712074 4.2478576 1.1816052 13.666667
2.2165029 4.4813371 1.0425577 12.5
2.358443 5.0775585 1.0629537 12
2.3623204 5.2969804 1.0947218 12
2.2404284 6.2096338 1.1098001 11.5
2.0100062 3.8669622 1.3676777 15
2.1643476 4.3235741 1.3936677 14.666667
2.11585 4.4387364 1.3829323 15
2.3133852 4.9795208 1.4853787 14
2.1242647 5.4296174 1.5061982 13.666667
2.1230316 6.2577195 1.4834532 13.25
2.1059394 5.4025788 1.748304 15
2.1578627 6.2479358 1.8592469 14.5
2.8001754 0.79056573 -0.19234291 5
2.4297333 0.96331799 -0.19545224 4
2.4399083 1.3018879 -0.20941842 4
2.6292319 1.8379793 -0.25015616 4
2.5552733 2.2799537 -0.27428305 4
2.5911829 3.0164771 -0.29035169 5
2.4540114 -0.23435299 0.10133338 7.5
2.7909596 1.8971566 0.30240422 9
2.6091611 4.3645873 0.35474473 8.5
2.6169434 6.1148281 0.31706837 8
2.4248841 5.2517114 0.52747196 9
2.5949426 5.8761024 0.66189009 9.666667
2.4895511 6.0400901 0.70475566 10
2.5496111 5.8798923 1.0148323 11
2.4865406 6.0429502 1.119626 11.5
2.4470007 5.2785254 1.5140245 14
2.5773392 5.8843684 1.5631799 13.5
2.4682341 6.0561814 1.4380461 13
2.5493526 5.9011226 1.8934904 15
2.8928003 1.1827574 -0.19888397 5
2.9537196 1.628683 -0.21785977 5
2.9601877 3.522285 -0.30821288 5
2.8175628 1.9119073 0.19647077 8
3.0477173 2.7482107 0.45899433 10
3.1861503 3.1422749 0.41837707 9
3.161159 3.0466092 0.53211647 10
2.8981962 3.3192389 0.49650598 10
3.507066 2.5595441 -0.2761009 5
3.2414124 3.0034523 -0.3013519 5
3.5765581 2.2718053 0.40386745 9
3.3987446 3.761966 0.33461609 8.6000004
3.4614079 2.3584831 0.5461219 10
3.3929229 2.4508379 0.5700931 10.5
3.4219773 3.0373502 0.69516677 11
3.3250656 4.1121631 0.71284807 10
3.6604278 0.65786302 -0.17228402 5
3.8597586 2.2111695 -0.19441719 5
3.8690286 3.7108469 -0.16002892 5.6666665
3.8420758 1.9533998 0.21026067 7.8000002
3.7050395 2.1454258 0.25919101 8
3.6736898 3.5847664 0.13861774 7
3.7582774 3.7038803 0.24422309 8
3.830534 1.9509834 0.6185742 10.666667
3.7658355 2.1558702 0.63453633 10.666667
3.7780743 2.4835656 0.63775015 10.5
3.5985508 3.0403724 0.80758774 11
3.8734696 1.877251 0.93921459 13
3.7893832 2.0302377 1.0116756 13
4.3895955 4.2168913 -0.3366468 5
4.1757407 0.76216042 -0.17154709 5
4.2514653 1.8257097 -0.21629485 5
4.0147023 2.3375704 -0.025722239 6
4.1371927 3.0767095 -0.29840454 5
4.3985515 5.5899577 -0.10968439 6
4.0501199 1.8656386 0.16096435 7.5
4.1127791 2.0384605 0.39160737 9
4.2098932 3.1106584 0.45876381 9
4.1029382 3.2218363 0.372888 8.5
4.281332 5.7021956 0.38250893 8.5
4.3589096 1.9968717 0.51709265 10
4.3174438 5.6859412 0.73969746 9.5
4.2685227 5.7070293 1.1152639 11
4.2716074 5.7105827 1.4907486 12.5
4.2737513 5.7264557 1.9230469 14
4.2563353 5.7214904 2.1713109 15
4.4382854 5.5684958 -0.32355371 5
4.6308713 1.3931524 -0.211143 5
4.4536405 3.4852958 0.39041466 9
4.6278028 5.5926871 0.45255718 8.5
4.5733466 5.6398292 0.44961646 8
4.4135036 2.0751019 0.54492176 10
4.4975352 3.2933333 0.68473482 10
4.7301736 5.5768476 0.85935277 10
4.4746652 5.6309605 0.62643743 9
4.741354 5.582943 1.1788301 11
4.5199647 5.6485729 1.0708638 10.5
4.5310569 5.6388922 1.4954537 12.5
4.5813751 5.6327162 1.8888215 13.75
4.604641 5.6250043 2.186075 15
4.8458257 2.1085348 -0.21076089 5
4.9225268 2.2945414 0.48251182 9
5.0919275 3.4923489 0.46580064 9
5.0417213 5.0246253 0.29139328 7.5
5.0637937 5.3241186 0.22265209 8
5.0670834 5.1004186 0.89759088 10
5.0683436 5.443614 0.8496722 10
5.0299377 5.0739837 1.1386483 11
4.9807968 5.4805975 1.0842583 10.6
5.0737367 5.1029577 1.5169463 12.5
4.9485116 5.3675537 1.4444339 12.333333
5.1233907 5.0808806 1.9045179 14
4.9416347 5.4855514 1.8567166 13.666667
4.9532661 5.137228 2.1106632 15
4.9375696 5.4907608 2.1923165 15
5.5572152 2.4621017 -0.077407666 6
5.3220987 4.0605254 -0.28708777 5
5.3496981 4.6411033 0.15997048 7
5.4004812 4.9914923 0.35941651 8
5.2942891 5.035347 1.1171037 11
5.3484535 5.0267768 1.4875466 12.5
5.3792567 5.0257478 1.8817726 14
5.3665695 5.051332 2.3580813 15
5.981935 1.869593 0.062869363 7
5.9105964 2.0842166 0.086343363 7
5.6788344 4.4109597 -0.028603977 6
5.9586177 1.8449273 0.22936076 7.5999999
5.9293337 2.1079664 0.23662761 7.5
5.7510877 4.5768614 0.18026568 7.3333335
5.7822433 4.870141 0.22815679 7.5
5.9269471 1.4242282 0.58850694 9
5.8768129 1.8281829 0.61652642 9.5
5.8434792 2.1226902 0.61284947 9.333333
5.6704216 4.9155421 0.51394045 9
5.7608047 4.7840161 1.4046059 12
5.6128325 4.9574156 1.3479669 12
5.8468766 4.990026 1.8440099 13.5
5.5861793 5.0261021 2.3854337 15
6.3421092 1.9640757 -0.13238579 6
6.1733999 1.6935087 0.23104604 8
6.3510094 2.9307499 0.33334115 8
6.3149838 5.1548109 0.84770191 9.5
6.2302246 5.1598802 1.2618679 11
6.1852331 5.1863604 1.6586709 12
6.3390279 5.193253 1.806013 13
6.2728271 5.1582508 2.2824392 14
6.0743818 5.2249961 2.5096285 15
6.2880936 5.1683941 2.5299108 15
6.6682086 2.9535615 -0.074804664 6
6.7232337 5.0457997 0.071490951 7
6.4505477 2.8679941 0.26493469 7.5
6.6924329 5.0210896 0.32294208 8
6.7403002 1.5863862 0.70491612 9
6.6418309 5.1123729 0.89315248 10
6.3997712 5.1517911 1.1605892 11
6.5752597 5.1093302 1.5930207 11.666667
6.5262957 5.1349764 1.9217838 13.333333
6.6055441 5.0569844 2.3029177 14
6.5565538 5.1469932 2.5675566 15
6.8615441 1.4118408 -0.0072863786 6.5
7.056881 1.1755967 0.66594744 9
6.847362 1.4520514 0.70067734 9
6.8020988 1.6099318 0.71890008 10
7.0078917 3.0937123 0.74485874 9
6.972724 5.0079403 1.6087493 11.666667
6.9188218 5.0340004 2.0880237 13
6.9173598 4.9283171 2.3165996 14
6.8846893 5.0369787 2.5934143 15
7.4482312 0.95290571 -0.10688137 6
7.2356863 0.88672143 0.31367117 7.5
7.3370776 0.91493756 0.5869 9
7.213388 1.3548983 0.70100874 9
7.374517 4.9290442 1.8457886 12
7.3229394 2.3355446 2.4613957 15
7.2975454 4.8832927 2.2847431 13.666667
7.3286829 4.8755288 2.6291513 15
7.6970782 0.93107635 0.65586478 9
7.9002504 1.2949115 0.71490747 9
7.7986617 2.9810951 0.897838 10
7.9030056 1.304931 0.96318215 10
7.9525547 4.7573943 1.4488077 11
7.6574807 4.8259234 1.584543 11.5
7.9591928 4.7757807 1.8705707 12
7.6373262 4.8571043 1.9923942 12.5
7.8385878 4.7770805 2.2741437 13.5
7.7681012 4.8106518 2.2067506 13
7.7562981 4.6773138 2.6564744 15
8.1975641 3.4546947 0.049313169 7
8.0564852 1.128832 0.6993432 9
8.1607695 1.0646712 0.9458431 10
8.2504864 4.6835594 1.4550841 11
8.1645508 4.7274389 1.881184 12
8.2173481 2.6403813 2.310744 14
8.1286182 4.7251544 2.28508 13.333333
8.3479319 2.5194619 2.7359605 15
8.0820198 4.5151486 2.6762218 15
8.4937963 2.9358139 2.4177079 14
8.468812 4.6356869 2.3293362 13.5
8.6730719 4.3526602 2.7422743 14
9.14398 4.473031 2.0901952 12
8.9776611 4.5163913 2.3754022 13.5
8.993536 4.2668805 2.7796419 14
9.3437786 1.081462 0.35798717 8
9.5771856 4.3347454 1.4825388 11
9.5211401 4.3529859 1.8166454 12
9.3292227 4.4324946 1.9427232 12
9.5653524 4.3507471 2.2666156 13
9.1967611 4.4434681 2.2374613 13
9.2696199 1.4184844 2.7556641 15
9.3812103 1.8242091 2.8528807 15
9.4315681 2.0303633 2.8972859 15
9.3389196 4.1814666 2.8224709 14
9.5016727 2.286792 2.9589152 15
9.9219627 2.7357247 -0.035484578 6
9.936821 2.8469872 0.96866673 9
9.6792908 4.3150163 1.1449084 10
9.6274118 4.2903538 1.4676178 11
9.8029194 4.2942009 1.8991704 11.5
9.9250145 4.2364521 2.2908974 13
9.8836946 3.7888281 2.8386338 14
9.7428093 4.1903954 2.7334316 13.5
9.5835171 2.5954194 3.0383947 15
9.6367788 2.816885 3.0893106 15
10.093566 1.9647803 -0.052504178 6
10.360291 4.0751467 -0.044382554 6
10.029803 4.1583366 0.9137128 9
10.121634 4.1802959 1.1245178 9.5
10.201135 4.1899509 1.9202617 11.5
10.346534 4.1300774 2.3251774 12
9.9854603 2.7339883 2.6486504 14
10.161834 4.1833344 2.6355479 13
10.773276 3.4313498 -0.067533478 6
10.493417 4.0992489 1.1410804 9
10.381958 4.1391716 1.5022854 10
10.650775 4.0861263 1.94672 11.5
10.648056 1.463933 2.5387812 13
10.496502 4.0418777 2.65905 13
10.809152 1.5783918 0.082937554 7
10.851748 1.6498753 0.044211913 7
10.804857 4.0248861 1.5113951 10
11.084978 3.9616547 1.9688284 11.5
10.773061 4.0106788 2.3588984 12
10.77933 3.873522 2.6713202 13
10.962728 4.0058775 2.6474407 13
11.554634 3.8307891 1.9941941 11
11.223561 3.8789988 2.3944561 12
11.209724 3.7439439 2.7138958 13
11.826295 0.9120149 0.4862833 8
11.765586 3.7837727 1.5348101 10
11.731944 3.7504032 2.4383337 12
11.713792 2.3956792 2.9022419 13
11.647147 3.5965054 2.7543249 13
12.006092 0.92382777 0.2464889 7
12.309271 1.7589443 1.6777283 10
12.257509 3.6345053 1.5425663 10
12.293022 1.7535968 1.8597672 11
12.151497 3.6922493 2.1061969 11
12.075122 3.4716468 2.7914112 13
12.718005 3.3255942 1.1133916 9
12.465858 2.3424041 1.7768747 11
12.493526 2.5035646 1.4024704 10
12.726377 3.0026937 1.4840673 10
12.748426 3.4720895 1.550665 10
12.417462 2.2297339 1.934306 11
12.519915 2.5991309 1.9078535 11
12.666495 3.149029 2.0731778 11
12.68723 3.4044793 2.1258738 11
12.382997 3.6423583 2.5051041 12
12.745392 3.3179364 2.8769042 13
12.906732 2.5920761 1.2548628 9
12.786737 3.4268136 1.6624651 10
12.815015 2.9989939 1.9062992 11
13.146294 1.9341328 2.3465266 12
13.004972 2.2233701 2.3687787 12
12.995303 2.537004 2.4152501 12
12.772099 3.0157127 2.8280981 13
12.878342 3.4886847 2.6837225 12
12.969162 3.2489896 3.2909315 14
13.458257 1.6622169 2.3491986 12
13.551844 2.0256691 2.3137982 11
13.253906 3.2668426 2.7138317 12
13.976062 1.7108065 -0.018841377 7
13.743165 3.0556333 2.7651451 12
14.000438 2.9713643 3.0134354 13
14.489581 1.8408091 3.0657153 13
14.649453 2.7663226 3.0820525 12
14.967257 2.281611 0.57618338 8
14.953863 2.2367337 0.6681 8
