# .PCD v0.7 - Point Cloud Data file format
VERSION 0.7
FIELDS x y z intensity
SIZE 4 4 4 4
TYPE F F F F
COUNT 1 1 1 1
WIDTH 73
HEIGHT 1
VIEWPOINT 0 0 0 1 0 0 0
POINTS 73
DATA ascii
-0.57225287 -0.7322244 -0.18046655 132
-0.50811362 -0.68299693 -0.17935568 139.5
-0.44881463 -0.63828659 -0.18290706 151
-0.39936396 -0.60218227 -0.19261108 162
0.76347768 -0.63495564 -0.21108299 195
-0.33278203 -0.55108893 -0.19156057 165
-0.27062911 -0.50301921 -0.18845068 169
0.68381935 -0.50694656 -0.19922403 191.33333
0.74339455 -0.52192181 -0.20400077 194
-0.66506249 -0.449411 -0.18175861 135.66667
-0.58548856 -0.41617793 -0.18822987 151
-0.24539101 -0.48482168 -0.19473474 171
-0.15483022 -0.41528133 -0.19308087 170.25
0.6492911 -0.43175173 -0.20190141 187.25
0.7397064 -0.4522424 -0.20323916 191
0.80699074 -0.41512227 -0.2052988 193.66667
-0.67762339 -0.30613074 -0.18098938 136
-0.50224745 -0.38081351 -0.18874905 163
-0.46249568 -0.36358052 -0.18538477 166
-0.37681133 -0.32726783 -0.18693484 168
-0.11983642 -0.38965204 -0.19952458 172.5
-0.080954857 -0.35935998 -0.19631337 173.33333
0.57019484 -0.31361398 -0.20659877 179
0.67767543 -0.37508875 -0.20032378 186.25
0.74259949 -0.34267381 -0.20581044 187.44444
0.85072565 -0.3549338 -0.20790166 193.33333
-0.6322636 -0.29349703 -0.18562371 151
-0.53664225 -0.2664403 -0.18854612 161
-0.41667086 -0.23238043 -0.1904971 173.5
-0.30930439 -0.2015025 -0.18582369 177
-0.2793943 -0.2833266 -0.16070645 159
-0.14502507 -0.22148989 -0.11157661 143
-0.057936311 -0.25844166 -0.17298776 168.3
0.072407342 -0.23684211 -0.16610628 173
0.76629031 -0.26680291 -0.20513417 186.16667
0.85347694 -0.26873621 -0.20897263 191
0.90667653 -0.25796425 -0.21094415 193
-0.34825021 -0.11712708 -0.14874236 177.92857
-0.27525935 -0.15553531 -0.19069603 175.71428
-0.18294413 -0.16604625 -0.19501187 172.75
0.073133729 -0.13438688 -0.11966218 136.89999
0.16533405 -0.13692752 -0.11460139 131.75
0.8226034 -0.14355643 -0.20870329 188
0.92707098 -0.15177412 -0.21060346 194
-0.71167326 -0.039612982 -0.18861291 124
-0.67364061 -0.038411394 -0.18961501 150
-0.56016135 -0.03482933 -0.18803222 164
-0.31339118 -0.027003331 -0.18982783 178
-0.23215716 -0.049113248 -0.19474897 173.33333
-0.19673182 -0.094939202 -0.1959441 170
0.83968526 -0.067860872 -0.2101309 188
-0.66945159 0.093219198 -0.19094194 150
-0.55735207 0.082690775 -0.18950728 163
-0.31605262 0.060146477 -0.18921311 181
-0.24902685 0.054035231 -0.19339459 171.2
-0.19031811 0.048688661 -0.1972408 169
-0.31162685 0.15075512 -0.19150732 180
-0.25914079 0.13901633 -0.19207831 174
-0.15969686 0.16165775 -0.16847242 157.66667
-0.096486837 0.16660067 -0.18355358 131
0.047242403 0.12395465 -0.17529817 136.89999
-0.25016865 0.22249177 -0.1889527 173.75
-0.030436894 0.20357426 -0.18628834 159
-0.67766029 0.37636203 -0.18798336 126
-0.1661569 0.37181464 -0.19626738 169
-0.023040025 -0.28276044 -0.012026008 152
-0.35386017 -0.11635727 -0.092168815 183
0.077474743 -0.14138468 -0.073504291 126.71429
0.16327047 -0.14394267 -0.096024096 123.45454
-0.0028752231 0.16375506 -0.0042957063 134
0.014100948 0.15829661 -0.026541386 130.84616
0.083651289 -0.1952977 0.021539774 144
0.103167 -0.17892165 0.029823862 131
