# .PCD v0.7 - Point Cloud Data file format
VERSION 0.7
FIELDS x y z intensity
SIZE 4 4 4 4
TYPE F F F F
COUNT 1 1 1 1
WIDTH 790
HEIGHT 1
VIEWPOINT 0 0 0 1 0 0 0
POINTS 790
DATA ascii
-6.4770913 -1.4110163 1.8889889 15
-6.5567522 -0.95254672 1.9345565 15
-6.6115422 -1.1438429 2.1033881 15
-5.1972547 1.9908056 1.2054895 13
-5.1932263 2.2897098 1.1399071 12.5
-5.2059174 2.6067126 1.256688 13
-5.219048 1.9228799 1.3787036 14
-5.1855922 2.5391207 1.4389864 14
-5.1880469 2.9178164 1.4973174 14
-5.1055689 2.5777481 0.32713449 8.25
-5.119298 2.888087 0.36096027 8
-5.1471601 2.6487758 0.54185826 9.5
-5.1126132 2.8894975 0.49509194 9
-5.1455989 -1.3908423 1.0447589 12.5
-5.1832094 2.2345452 1.2185676 13
-5.145916 2.5486593 1.1479106 12.333333
-5.1238613 2.9834764 1.1559876 12
-4.8704486 3.2276516 0.99779278 12
-5.0355945 4.9687648 1.1751264 11.5
-5.0279703 5.3564835 1.1205714 11
-5.0136247 5.7216005 1.1623842 11
-4.9346266 6.2131891 1.1611991 10.75
-5.1307569 -1.3707639 1.5504814 15
-5.1591325 0.72125858 1.5632354 15
-5.1254911 1.0150095 1.6256377 15
-5.1631131 1.3586551 1.6097472 15
-5.1333451 1.8058516 1.5622442 14.666667
-5.1440091 2.1658516 1.4944197 14.2
-5.1384258 2.6519871 1.496177 14
-5.0646787 2.9512339 1.4418334 13.714286
-4.9012666 3.2241859 1.4502614 13.5
-4.8748078 3.9913883 1.5566646 14
-4.8295388 4.2680655 1.3497189 13
-4.8430033 4.5725217 1.6035208 13.5
-4.951304 5.1163211 1.4822078 12.5
-5.0361471 5.4213614 1.3479644 12
-5.0157766 5.6623836 1.3868272 12
-5.1260023 1.3584166 1.6780328 15
-5.1674705 2.2706838 1.716707 15
-5.121819 2.6102109 1.7816415 15
-5.124373 3.0564909 1.7949852 15
-4.997345 3.2094655 1.7227582 15
-4.8560715 5.0342159 1.7358264 14
-4.8635983 5.3739467 1.747035 13.5
-4.8814583 5.8575845 1.8569415 13.5
-5.0565996 5.436657 2.2682545 15
-5.043932 6.1719284 2.2307637 15
-4.9057508 6.476028 2.2961602 15
-4.5252914 -0.98289037 0.28506204 8
-4.7890539 2.230516 0.23298471 8
-4.4525509 3.401103 0.36674458 8.5
-4.4224834 3.7828455 0.35050821 8.333333
-4.4403553 4.1167045 0.37388107 8.333333
-4.4330091 4.5981741 0.26114246 8
-4.4261475 4.8397493 0.36575308 8
-4.4120159 5.3057628 0.39444843 8
-4.4672437 3.4333584 0.62953311 10
-4.3970547 3.7470565 0.48917183 9
-4.4169102 4.1800551 0.6240322 9.333333
-4.4057188 4.5211639 0.58629727 9.333333
-4.4602046 4.9316063 0.64370012 9.5
-4.5757651 5.3391829 0.81489617 10
-4.4023566 5.7330694 0.78219759 10
-4.4013391 6.31532 0.68697494 9.5
-4.6234198 -1.4507257 0.89414257 12
-4.7307296 -1.1808836 0.88076425 12
-4.5081472 3.3656592 1.0727096 12.4
-4.4571257 3.7942522 1.0431616 11.8
-4.4652658 4.2424483 0.97004163 11
-4.5316792 6.3969803 1.2213563 11
-4.6935844 -1.4319793 1.4395733 15
-4.5844336 3.1213009 1.3512979 13.5
-4.5750322 3.3003533 1.4599234 13.875
-4.5297141 3.7493913 1.3931371 13.5
-4.5968504 4.2223701 1.4491235 13.4
-4.6646819 4.7199979 1.5143394 13.5
-4.6642852 4.9427152 1.5546998 13.5
-4.6692643 5.3992562 1.4682353 12.666667
-4.6342492 5.8013339 1.5380789 12.666667
-4.6255484 6.1940923 1.4633104 12
-4.4287748 6.392406 1.491599 12
-4.4856181 3.4411645 1.7068895 15
-4.4779005 3.8364968 1.7994165 15
-4.5435543 4.2645659 1.8509275 14.666667
-4.5068846 4.6322937 1.8123262 15
-4.5303149 5.0119963 1.8196485 14.666667
-4.6532211 5.3816142 1.7362653 14
-4.5525484 5.7814093 1.8049958 14
-4.5681767 6.2268162 1.7924445 13.5
-4.4254875 6.5019798 1.8372955 13.5
-4.6168704 7.1174831 2.0711498 14
-4.5973854 5.7182045 2.2935295 15
-4.5783753 6.5313206 2.2863243 15
-4.3986888 5.1277347 0.2541694 8
-4.3846812 5.4773026 0.34796613 8
-4.1828175 5.832787 0.33002526 8.25
-4.365582 6.1341496 0.38174617 8
-4.3885174 3.8364582 0.77433753 10
-4.3850594 4.713109 0.68605775 10
-4.3695626 5.0196476 0.68443918 9.666667
-4.3665867 5.3778367 0.67010134 9.333333
-4.3281913 5.8047228 0.67832696 9.666667
-4.3390484 6.1834946 0.6647144 9.5
-4.2597899 6.6211252 0.78176862 9.666667
-4.0935879 -1.1901876 1.0469239 14
-4.3233047 6.6261501 1.1394613 11
-4.0545158 6.8147364 0.88948488 10
-4.2917938 -1.4201514 1.3412416 15
-4.0891905 6.6799045 1.3084911 12
-4.2312894 6.3642406 1.9260126 14
-4.0129027 6.6356735 1.7273142 13
-4.2637072 7.1006565 2.0414145 14
-4.147028 6.5863547 2.2736325 15
-3.6672175 -1.06274 0.20279987 8.5
-3.7627883 5.9199214 0.35297242 8
-3.6387575 -1.2567282 0.55014116 11
-3.6938927 -1.0797329 0.62631845 11.333333
-3.6117103 2.0367715 0.52403176 10
-3.7166917 5.922473 0.49985054 9
-3.8422847 6.7450509 0.82419997 10
-3.6357667 -1.3938293 1.1810391 15
-3.7154899 -1.1949977 0.93270743 13.5
-3.8040166 6.6644192 1.0810392 10.8
-3.9398575 -1.4067321 1.2548237 15
-3.7805912 6.6364007 1.4123003 12
-3.8115792 6.3739924 1.900767 14
-3.6960783 6.6247864 1.7108722 13
-3.7758312 6.9983668 1.9847108 14
-3.7634888 6.6871405 2.2783337 15
-3.2807102 1.8070068 0.23421375 8.5
-3.2989824 2.3608255 0.27426517 9
-3.4689369 5.8947663 0.35822138 8
-3.5861423 -1.3989042 0.752464 12
-3.4330714 -1.0938982 0.68066603 12
-3.2451117 2.7526336 0.51795125 10
-3.3797548 5.9333868 0.55289286 9
-3.3740346 -1.3807582 1.0523801 15
-3.4253981 -1.1000754 0.88217503 13.75
-3.3542073 6.6316614 1.0882764 11
-3.3558722 6.6120205 1.4061677 12.25
-3.3538964 6.3774986 1.8727517 14
-3.1833849 6.5900545 1.6819304 13
-3.3079531 6.877027 1.9273958 14
-3.3759863 6.7587156 2.2788393 15
-2.8846376 -1.1952523 0.39812255 10
-3.0593021 1.1827409 0.2805742 9
-3.0662265 1.3102043 0.34476057 9.5
-3.0614319 1.8791924 0.3208617 9.5
-3.0463569 2.0363932 0.33628127 9.5
-2.9580238 5.8860149 0.38091671 8.333333
-2.9802868 -1.2911243 0.6617561 12.25
-3.0562797 -1.1981514 0.63464892 12.2
-3.0168316 1.1885568 0.55690628 12
-3.056694 1.3791622 0.52691871 11.333333
-3.0252366 1.8371025 0.55466884 11.333333
-3.0213475 2.1829159 0.54168814 11
-3.0291357 2.6399 0.55004978 10.666667
-3.0238242 2.9720511 0.5613271 10.333333
-2.983706 5.9485688 0.67425323 9.5
-2.9066973 6.140296 0.84130317 10
-2.945159 6.6124129 0.77030504 9.666667
-2.8555617 7.0970373 0.57092112 9
-2.9996557 -1.3643579 1.0078751 15
-3.0981445 -1.1993104 0.83669782 14
-3.1010785 6.6144695 1.1094776 11
-2.9132397 7.0508075 1.1524372 11
-2.9925528 6.635241 1.3770984 12.333333
-2.847188 7.0162768 1.4733285 12.5
-2.8862882 6.6729007 1.7706473 13.5
-2.9300272 6.9278865 1.8415388 13.5
-3.0780344 6.7841654 2.2742202 15
-2.8920145 6.816011 2.2758429 15
-2.5807364 -1.1973678 0.3882283 10.5
-2.6729364 6.0288496 0.41830656 8.666667
-2.5653269 6.4043932 0.4012844 8
-2.626364 7.0385599 0.42367399 8
-2.4334102 -8.377244 0.44940087 9
-2.5692251 -1.2568437 0.62752396 13
-2.7045851 -1.1977538 0.44089022 11
-2.5304823 6.4040608 0.46832719 9
-2.451865 6.9733176 0.53931516 9
-2.5638857 -1.3489363 0.84808576 15
-2.5992033 6.7480369 0.98222846 10.333333
-2.5605264 6.9371896 0.98365492 10.5
-2.5137091 6.7729807 1.3405242 12
-2.5347738 6.9985609 1.5036262 12.666667
-2.5781336 6.7335391 1.8231971 13.75
-2.6025782 6.8250833 2.26929 15
-2.3039913 -8.2142925 -0.22832093 6
-2.070096 -6.6172318 0.14320204 8
-2.0895472 -3.1070514 0.16585858 8
-2.0757544 -1.2061173 0.31361806 10.5
-2.1850722 -1.0455341 0.2524024 9.666667
-2.2021666 -0.67278361 0.24710894 9.8571424
-2.1076033 -6.667768 0.41956472 9
-2.1702666 -1.2733983 0.62064332 13.555555
-2.1380796 6.7850561 0.51289117 9
-2.1401274 7.0002079 0.55737805 9
-2.2761261 6.7792859 0.90797204 10
-2.1763101 6.9183121 1.0873126 10.75
-2.1633885 6.9094968 1.4886748 12.666667
-2.1535563 6.7542162 1.8274716 14
-2.226656 6.8865128 1.7854265 13.5
-1.7615244 -8.2846069 -0.25703564 6
-1.7182324 -8.3478632 0.062073287 7
-1.7242849 -3.2264988 0.21954934 8.75
-1.8106508 -3.121062 0.13539626 8
-1.7924936 -1.2354779 0.275056 10.25
-1.7970121 -1.1986811 0.20205647 9.5
-1.8022591 -8.3548498 0.45833674 9
-1.7376688 -3.2234333 0.46789855 11
-1.8449253 -1.2717482 0.55808878 13.5
-1.789777 6.965816 0.58167446 9
-1.6040696 6.7639456 1.1465093 12
-1.8139256 7.0126653 0.94615084 10.6
-1.6668779 6.7731256 1.4412186 12.5
-1.7794253 7.0215516 1.5673388 13
-1.8672373 6.7131257 1.8494734 14.25
-1.6480683 6.9759607 1.9117266 14.5
-1.2394769 -12.201097 -0.19156562 6.5
-1.2193079 -8.3348217 -0.26510039 6
-1.2304041 -8.3302612 0.046017144 7
-1.5020661 -3.225579 0.30861318 9.5
-1.3424487 -3.1620619 0.16239269 8.333333
-1.3396717 -1.2476064 0.28407991 11.25
-1.4174358 -1.1424422 0.2780399 11.2
-1.2118869 -12.061966 0.41803086 8
-1.3328921 -3.1588023 0.50981677 11.333333
-1.344285 -1.2404683 0.45455194 13.75
-1.3712696 -1.1480492 0.4894689 14.5
-1.5618702 6.7874355 0.84454322 10
-1.4041317 7.0211511 0.57975882 9
-1.3702108 -3.1420422 0.91999906 14.5
-1.387804 7.0005469 0.92678195 10.75
-1.3788781 7.0426264 1.4898283 12.5
-1.4173383 6.9997306 1.841936 14.4
-1.1873788 -11.760685 2.3016121 13
-0.96837211 -12.165459 -0.10387154 7
-1.1394048 -8.4420509 -0.19784407 6
-1.0414747 -8.3466663 0.038563892 7
-0.95771784 -4.3098559 0.21728723 8.5
-0.95929706 -3.3329186 0.19965006 8.75
-1.0287136 -3.1107914 0.19886714 8.666667
-0.93448895 -2.0733783 0.2038957 9.333333
-0.91577554 -1.2805979 0.31010643 12.555555
-0.99308163 -1.166743 0.29757828 12.166667
-0.93713117 -12.079698 0.39622742 8
-1.1225973 -11.961269 0.60381138 9
-1.090529 -9.3689442 0.55169648 9
-1.1470805 -8.4347925 0.58472264 9
-1.0819515 -4.2889342 0.47896197 10
-0.97796327 -3.3098059 0.53581011 11.333333
-0.90270877 -3.0672755 0.56513983 12
-0.92705774 -2.0804379 0.43696019 12.333333
-1.0098079 -1.2510973 0.4473677 14.5
-1.0333941 -1.154357 0.42960384 14.666667
-1.0555375 7.0500355 0.67470348 9.333333
-1.1378577 -12.949032 0.78320044 9
-1.0235599 -4.1604981 1.0191445 14
-0.97384453 -3.2959738 0.92399871 14.6
-1.0206931 -3.0385942 0.88678664 14.75
-0.96530664 7.0476274 0.92576563 10.5
-1.0076598 7.0289364 1.4943966 12.75
-1.0279083 -9.3738451 1.7949541 13
-1.1359105 -8.4503508 1.7522186 13
-0.95102262 6.9876065 1.8517224 14.5
-0.95677489 -13.057652 2.1380091 12
-1.1060227 -12.66176 2.2940645 12
-1.0440729 -11.925502 2.1593239 12.5
-0.79268551 -11.09591 2.3009014 13
-0.84804273 -8.859376 2.2015004 14
-0.41153932 -12.068686 -0.11697503 7
-0.5024125 -9.4300823 -0.32100433 6
-0.65918219 -8.4943714 -0.10561477 7
-0.5005548 -0.52081805 -0.19716488 0
-0.59576869 0.34794316 -0.1985551 0
-0.53552401 0.65670252 -0.21305779 0
-0.43805712 0.94570756 -0.21337444 1
-0.5335995 -9.4175959 -0.016707588 7
-0.73676413 -4.3372602 0.091655143 7.5
-0.67045605 -13.036463 0.49025825 8
-0.51459849 -9.3079557 0.70421249 9
-0.73581016 -4.2787476 0.56807888 10.5
-0.59898633 7.0338635 0.6796909 9.333333
-0.39271793 -12.019998 0.82613099 9
-0.51911026 -8.5097933 0.89398038 10
-0.76341087 -4.2792788 1.0778146 14.5
-0.61533844 7.0306678 0.92036784 10.5
-0.49772787 -12.048202 1.2230374 10
-0.60099036 7.0170736 1.5015167 13
-0.57919794 6.9932218 1.8455878 14.5
-0.61029488 -13.050884 2.2140982 12
-0.54829144 -11.91417 2.2985978 13
-0.55221552 -8.6858425 2.1528859 14
-0.21426916 -12.096408 -0.23042201 6.3333335
-0.37316146 -0.58170283 -0.19007167 0
-0.2090347 0.74172676 -0.21915135 0
-0.28649244 0.97290444 -0.2191451 0.80000001
-0.11439997 -12.908604 0.33692181 8
-0.3846024 -12.089234 0.35480681 8
-0.041415967 -13.011316 0.5701111 8
-0.25345036 -12.562361 0.74566835 9
-0.1893414 7.0151019 0.68790364 9.3999996
-0.20099597 7.0118413 0.92769885 10.5
-0.2533755 -13.035376 1.2903787 10
-0.1944232 7.0088859 1.4774756 13
-0.19715671 6.9948254 1.8398744 14.5
-0.14091234 -13.062164 2.148314 12
-0.15930739 -11.960243 2.2929835 13
-0.31266993 -11.117254 2.2982292 13
-0.27761889 -8.7405291 2.1567121 14
-0.13539842 -12.643938 2.9754009 14
0.13230135 -12.106376 -0.13458481 7
0.16895802 -12.081032 0.31659257 8
0.22994666 6.9974122 0.64116853 9.333333
0.16575533 -13.189967 0.89392924 9
0.02572084 -12.795776 0.748317 9
0.19067499 6.9953294 0.9149859 10.5
0.24768461 7.0011806 1.4829451 13
0.25507605 6.9953952 1.8642287 14.6
0.22621174 -13.077063 2.0491035 12
0.23127414 -12.019833 2.2947342 13
0.16230614 -11.092089 2.2943645 13
0.081178322 -32.260006 2.7260914 10
0.2690061 -12.620547 2.9661589 14
0.60520113 -12.117162 -0.46440065 6
0.50663006 -12.082805 -0.18944916 7
0.69758534 -6.0246634 -0.1151573 7
0.55559617 -5.9776001 -0.11152886 7
0.70166326 -0.50792402 -0.20571011 0.66666669
0.70043731 -0.28456438 -0.21192443 0.2857143
0.77430385 0.16969211 -0.23138793 0
0.77596432 -12.926659 0.2800971 8
0.4487665 -12.097271 0.2989428 8
0.59619224 -6.2616158 0.28288856 8.5
0.75236434 -5.7770615 0.27481338 9
0.73262191 -1.2762344 0.28337315 13
0.78754181 -1.1851929 0.27912334 13
0.53876269 -12.825562 0.66758084 9
0.4517484 -6.1612377 0.61065859 10
0.55188942 -5.8800197 0.55274391 10
0.65656686 6.977725 0.62073177 9.333333
0.62870651 -13.02768 0.97315603 9.333333
0.63677138 6.9748254 0.92897975 10.6
0.77862257 -32.232059 1.4045603 8
0.61467075 -13.117303 1.2853339 10
0.64377874 6.9906459 1.507455 13
0.58576292 7.0016289 1.8553654 14.5
0.67389488 -13.074059 2.021152 12
0.62483174 -12.055112 2.2954469 13
0.63330686 -11.045094 2.2932711 13
0.78692085 -32.140335 2.7059007 10
0.670398 -12.585001 2.9564543 14
1.0194076 -12.072174 -0.44890222 6
0.91107613 -6.0466986 -0.11807945 7
0.98386824 -5.2904673 -0.0655315 7
1.0611522 -0.85621196 -0.2078474 3
0.98182583 -0.61112893 -0.21504113 2.090909
0.95777839 -0.21338564 -0.22158316 0.89999998
0.97310477 0.20785424 -0.23639131 0.66666669
1.0959934 0.48182741 -0.25341982 1.3333334
1.024895 -5.8055849 0.062054195 7.6666665
1.148195 -2.4282987 0.27109581 10
1.0437446 -2.1851726 0.23217848 10
1.1604532 -1.9799591 0.11015654 9
0.98341662 -1.3046558 0.19097024 10.714286
0.91058052 -1.1638837 0.23956996 12
1.1996318 -0.1923148 0.22100516 12.666667
0.89455611 -8.0910549 0.43703243 9
1.098799 -7.8253083 0.70442456 10
0.94342792 -5.9392982 0.7500385 11
0.90244448 -4.9231906 0.47310317 10
0.92304397 -4.4689698 0.45892587 10
1.0544753 -4.3635378 0.45680636 10
1.1576972 -2.8852413 0.45235613 11.5
1.1578704 -2.6175411 0.55627704 13
1.0621672 -2.2086167 0.59090275 14.142858
1.167935 -1.529415 0.4448964 14
0.98005062 6.969841 0.61045903 9.25
0.90996212 -13.143378 0.74824226 9
1.050543 6.9558148 0.93133134 10.6
0.97996753 6.9791574 1.5199206 13
0.98795754 6.9933 1.7607445 14.333333
1.0062543 -13.079566 2.1271312 12
1.0198205 -12.04859 2.2922828 13
1.1023084 -10.984082 2.2929423 13
1.0406513 7.0228906 2.0335565 15
1.2114866 -12.581007 2.9602015 14
0.87149262 -11.643786 2.7608535 14
1.3558806 -12.144836 -0.25694835 6.6666665
1.3691068 -5.3147635 -0.10298542 6.6666665
1.4424154 -1.3361014 -0.21204539 4.5
1.375928 -0.99455583 -0.21726528 3.75
1.3872776 -0.59393746 -0.22118132 3
1.4279101 -0.19182019 -0.1781223 3.5714285
1.4190882 0.2157556 -0.24865404 2.25
1.3913815 0.58645374 -0.26003036 2.3333333
1.5849031 0.82113373 -0.25890824 3
1.2920854 -7.8100405 0.24885741 8
1.2686458 -5.7543616 0.055957589 7.5
1.3703827 -4.4862337 0.084280871 8
1.4636589 -4.3029518 0.2367471 9
1.3799379 -2.4379399 0.20901924 9.5
1.2629064 -2.0541258 0.16260554 9.5
1.5587207 -1.9309202 0.21051429 9.5
1.4366964 -1.3663813 0.19173464 10
1.5762267 -1.1154864 0.083686471 9
1.348622 -0.11446756 0.20716482 11.7
1.358601 -7.7821779 0.5825609 9.333333
1.418402 -4.2417932 0.5330261 10.75
1.4256558 -2.1646404 0.61725742 14.166667
1.5607829 -1.9844351 0.61148 14
1.3917153 -1.3818386 0.46364588 14
1.4119518 6.9451456 0.61217541 9.5
1.348336 -13.068676 0.93746191 9
1.5080936 -4.1249824 0.83104098 13
1.4166666 6.9354186 0.93011367 10.6
1.4785582 -13.040223 1.2739625 10
1.4157792 6.9933491 1.5491956 13
1.4193962 6.984158 1.7306716 14
1.4491193 -13.07234 2.1138759 11.5
1.4178287 -12.035242 2.2909384 13
1.4223777 7.0295668 2.0494757 15
1.4017768 -12.603135 2.9016266 14
1.609632 -12.326273 -0.44469503 6
1.996289 -7.8582764 -0.21905978 6
1.6039162 -4.467948 -0.11291184 7
1.7368277 -2.2903612 -0.16168211 6
1.7479836 -1.7207135 -0.21552837 5
1.7213879 -1.3168499 -0.16259751 5
1.8187441 -1.0348725 -0.18709734 4.5999999
1.7378409 -0.5592401 -0.21939971 4
1.6990192 -0.10231414 -0.19502661 3.75
1.7456714 0.23180611 -0.2472464 3
1.7983873 0.56741196 -0.25706649 3.25
1.8870656 0.89343429 -0.2806015 3.5
1.8468515 -7.6037621 -0.0040341699 7
1.7937793 -4.2060471 0.14908028 8.25
1.6746111 -1.2867899 0.16411942 9.333333
1.7812207 -1.1298474 0.26718342 11
1.8912081 -10.466851 0.70774722 9
1.6770718 -7.6576891 0.72911012 10
1.9011736 -6.1115499 0.71697921 10.5
1.8768568 -5.1398335 0.65047669 11
1.8121588 -4.1610894 0.47460032 10.4
1.9222895 -4.0000553 0.64990282 11
1.7051338 -2.1151149 0.55372459 13
1.7882007 -1.8543786 0.53563231 13
1.82112 -1.3323156 0.51286572 13.8
1.8830081 -1.1411588 0.45088503 13
1.9837339 3.4810107 0.66068393 12
1.9930342 3.9152746 0.70160687 12
1.813001 6.9263968 0.64933008 9.5
1.6722063 -6.5524001 0.78332478 10.5
1.6485337 -4.0642605 0.8277685 13
1.9726593 3.5467606 1.0953294 14.5
1.9837182 3.8268902 1.0711576 14
1.9971309 4.1600075 1.1170548 14
2.0006862 4.5955148 1.1783619 14
1.8648009 6.9164572 1.0142419 11
1.7695711 -13.030405 1.2735294 10
1.8395816 3.8661866 1.2219943 15
1.8353968 4.2306862 1.3012533 15
1.829391 4.5794497 1.4340035 15
1.9163239 5.072473 1.4475106 14.5
1.7952811 5.5018649 1.5811828 15
1.7525856 6.4442282 1.4835376 13
1.8260639 6.9604545 1.5414279 13
1.7563905 -10.506494 1.6372445 12
1.8073673 5.3116269 1.6601101 15
1.7893071 5.8212328 1.7153068 15
1.7834822 6.1732259 1.8625668 15
1.7748507 6.7293119 1.9934831 15
1.8025837 6.9660764 1.7026685 14
1.6655533 -11.907247 2.2725282 13
1.8205611 -10.506454 2.0486383 13
1.6825708 7.0401196 2.0636327 15
1.6869069 -12.542785 2.6737528 13
1.8851975 -12.564306 2.933624 14
2.0522323 -2.1405365 -0.11303762 6
2.1945207 -0.92048049 -0.24070159 4.6666665
2.167141 -0.56945944 -0.24017175 4
2.1593821 -4.1391473 0.1327133 8
2.2785859 -2.1979766 0.22457156 9.5
2.0160437 -1.3450952 0.33053979 11
2.188869 3.4503384 0.29733413 9.333333
2.0250304 3.8543837 0.30056125 9
2.0420377 4.2403936 0.31622225 9
2.0480418 4.5281606 0.3278363 9
2.0620389 4.8571129 0.34045273 9
2.1020107 6.1329689 0.388156 9
2.0240517 -2.4317732 0.45311016 11
2.1932378 -2.1785696 0.45786235 11.666667
2.0960171 -1.7873087 0.560637 13
2.0699501 -1.4399757 0.56596196 13.5
2.1550727 -0.9394486 0.44300324 12.5
2.2133501 3.4403746 0.55573779 11
2.0508196 3.8067255 0.58698201 11
2.0676296 4.2320065 0.61501622 10.833333
2.0802248 4.669867 0.58663857 10
2.0975628 5.0531235 0.58868223 10
2.1109638 5.4464831 0.61613947 10
2.1481299 5.8937078 0.70644999 10
2.1072657 6.0052466 0.48302606 9
2.1553288 6.6024022 0.57097965 9.5
2.0925219 6.9134345 0.61886495 9.5
2.1699455 3.5178423 1.0759084 14.333333
2.2842724 3.6046438 1.064851 14
2.0978067 4.6322274 0.83048773 12
2.1207101 5.146194 0.88268763 12
2.1340225 5.544241 0.92307568 11
2.140727 5.7184815 0.82679987 11
2.1506972 6.0869617 0.9184702 11
2.190841 6.5840869 1.0288219 11
2.0822713 6.9011168 0.99665117 11
2.3596601 -13.009396 1.2777716 10
2.3223038 3.6015391 1.1864344 15
2.0152118 4.9453187 1.2338843 14
2.0183077 5.4098334 1.3393784 13.5
2.0295856 5.8148065 1.4171894 13.5
2.0389373 6.1678267 1.4590687 13.5
2.0487492 6.5419593 1.578153 13.5
2.0611029 6.8552027 1.5389447 13
2.3027806 -10.506926 1.7047055 12
2.0257733 6.9349833 1.6753151 14
2.1823153 -10.544659 2.0650091 13
2.254539 -12.537154 2.7207057 13
2.3088741 -12.551058 2.9853592 14
2.7698622 -3.0461729 -0.11454714 6.5
2.5618672 -1.2266054 -0.2499295 5
2.7375991 0.2532461 -0.28992146 4
2.4217546 0.47493178 -0.28697568 4
2.6667626 -3.0565314 0.12707539 8.25
2.6288717 -2.717788 0.12510827 8
2.4761553 -2.0125411 0.31574476 10.5
2.6427186 -1.7007954 0.152835 8.75
2.655592 -1.4268469 0.19771722 9.416667
2.6147022 3.1109655 0.30121508 9
2.4604313 3.3546019 0.34991467 9.5
2.6292052 -3.1390691 0.39327049 10
2.6089759 -2.5371604 0.70470011 12.666667
2.7784142 -1.2694423 0.44337711 12
2.6583397 -1.1715413 0.36236337 11
2.5555158 3.1658132 0.46803603 10
2.5216112 3.3342497 0.59196764 11.125
2.483125 -2.5883203 0.84805989 14
2.6037831 3.4728279 1.0584937 14
2.6036217 3.6259146 0.9521082 13
2.5642695 3.6112347 1.2621917 15
2.6853988 -11.680378 2.2627459 13
2.738461 -8.8553495 2.2192218 14
2.7087493 -12.540716 2.8935852 13.666667
3.1559868 -1.135272 -0.28012294 5
2.8805127 0.58274084 -0.31120053 4
2.9957807 0.96100563 -0.32897487 4
2.9478204 -2.9559259 0.21917608 9
2.9749792 -1.844898 0.34496343 10
2.9514053 -1.4747282 0.18274276 9.166667
2.8940127 3.3707991 0.19503672 8
2.8946874 -3.0376401 0.39480409 10
2.8916416 -2.6266937 0.47080442 11
3.1149244 -1.400281 0.55635387 12
2.9056525 3.3668506 0.54834437 10.8
2.9437346 -1.2474062 0.82700992 14.5
2.8935914 3.4634287 1.0808755 14
2.8407247 3.6192966 1.2173789 15
3.0256603 -10.515843 1.7498163 11.5
2.9444158 -11.633489 2.2643149 13
3.1792684 -11.505741 2.2561138 13
3.1387768 -9.0982561 2.2322605 14
3.0047624 -12.515474 3.0132623 14
3.3790045 -1.6993427 -0.17884502 6
3.3179924 -0.79377788 -0.29430073 5
3.279016 -4.0957704 0.21771784 9
3.4819427 -2.9217918 0.25670958 9
3.4501798 -2.1950729 0.30437818 10
3.2283633 -2.9447298 0.43369937 10
3.6095145 -10.348276 1.1241285 10
3.4041345 -10.516449 1.8847995 12
3.4484539 -11.501635 2.2693536 13
3.574636 -8.0040684 2.1817703 14
3.3782458 -12.490795 2.9110961 13.5
3.9866552 -2.999001 -0.13066855 6.5
3.6017466 0.75217277 -0.35027277 5
3.7461765 -2.6633084 0.39834511 10
3.6712933 -10.52512 1.8954641 12
3.6985021 -11.438003 2.2741311 13
3.8840239 -11.174594 2.2451687 13
4.0179763 -10.736535 1.9393089 12
3.9405851 -9.6776295 2.5076838 14
3.8651037 -12.482011 2.7576447 13
3.6672387 -12.310365 3.0153563 14
4.3038559 -5.1973329 -0.2429633 6
4.3179817 -4.9729414 -0.22423585 6
4.3170266 -3.6085408 -0.16699265 7
4.1940084 -3.5155499 -0.1506549 6.6666665
4.2106085 -2.6601484 -0.12249088 7
4.1884851 -1.5547104 -0.32414743 5
4.0254169 1.3414073 -0.38424006 5
4.1190848 -3.6153309 0.2367796 9
4.228436 -3.446018 0.084843151 8
4.0483518 -2.9115562 -0.032360666 7
4.0708036 -0.84662545 0.12452385 8
4.2820382 -3.4405072 0.45783156 10
4.0332208 -10.331605 1.0190699 10
4.4029155 -2.629544 1.0167276 13
4.1428528 0.5992865 0.90152216 13
4.180676 0.80217463 0.93490642 14
4.4047379 -3.330955 1.4130098 14.5
4.4066138 -3.0004628 1.4160612 14.666667
4.3937979 -2.6767871 1.2644196 14.5
4.3263593 -10.816622 1.9647367 12
4.2824559 -10.776007 2.2132399 13
4.2331128 -12.268161 3.0033977 14
4.4008322 -11.891387 2.9948411 14
4.69595 -4.9276056 -0.22738521 6
4.6352797 -4.5299435 -0.30453017 6
4.6759858 -4.2545996 -0.21780476 6.5
4.7357812 -2.161201 -0.23841016 6
4.7445602 -1.7646406 -0.18739998 6.3333335
4.7650638 -1.3819985 -0.20201765 6.3333335
4.7664475 -1.0963831 -0.15693556 6.5
4.7079844 0.065954246 -0.10786566 7
4.7266517 -4.281446 0.17226665 8.333333
4.740829 -2.0340219 0.015899856 7.5
4.7508001 -1.8111342 0.11921639 8.1999998
4.7599483 -1.422439 0.14088795 8.3999996
4.7707725 -1.0291557 0.11044349 8.25
4.6862416 -0.062637798 0.066966631 8
4.68296 0.061969101 0.16885211 8.5
4.7929907 -4.5013652 0.55530572 10
4.761312 -4.2530966 0.4646084 9
4.7823405 -2.0284209 0.39501494 10
4.7800231 -1.7821401 0.45027301 10.333333
4.7919388 -1.3994776 0.61067349 11.2
4.799262 -1.0404148 0.53700411 10.5
4.6985927 -0.03921061 0.53372109 11
4.7177348 0.094326928 0.45060611 10.5
4.7814322 -4.1618352 1.1146911 12
4.7315741 -2.4831266 0.94013023 12.333333
4.78514 -2.3444393 0.84437311 12
4.792738 -1.7505457 0.97501111 12.5
4.7956462 -1.3107405 0.80581897 12
4.806076 -1.071414 0.92236608 13
4.7136273 -0.017963905 0.81585068 12
4.7541704 0.20626935 0.95526403 13
4.8077488 0.62245941 0.77054584 12
4.787291 2.9868572 0.9466635 12
4.7136049 3.4274549 0.94961452 12
4.706131 3.7817745 1.0054735 12
4.7411232 4.102314 1.0570892 12
4.7173924 4.6056619 1.1382846 12
4.7670827 -4.5359912 1.3111088 13
4.7732062 -4.2429614 1.2926391 13
4.6481552 -2.5413818 1.356281 14.75
4.7986593 -2.2597044 1.3932791 14.666667
4.8003983 -1.7754934 1.2953146 14.5
4.8065515 -1.4004846 1.3023084 14.5
4.8139701 -1.0228779 1.3804094 15
4.7529583 0.19821931 1.3017055 15
4.8120875 2.7460029 1.3587552 14
4.8025417 3.0477731 1.3538349 13.666667
4.7457323 3.3546407 1.394658 13.666667
4.7210045 3.7720358 1.5523262 14
4.7462296 4.2734942 1.4704093 14
4.7262783 4.5594029 1.5254554 14
4.5564599 -10.541497 1.6635532 11
4.7665896 -6.5655031 1.9086857 14
4.7791138 -6.1350565 1.6487617 13
4.7822218 -4.5818195 1.678602 14.5
4.7845984 -4.2126408 1.6434699 15
4.7887006 -3.9570096 1.6218745 15
4.7367496 3.3647285 1.6950998 15
4.7605033 3.9806976 1.6000148 14
4.7535634 4.2549529 1.6554598 15
4.7436628 4.5418587 1.7145346 15
4.7643304 -8.2601166 2.1398711 14
4.7676678 -7.5196609 2.0366287 14
4.773314 -10.753088 2.5182948 13
4.6883178 -9.9892435 2.3898563 13
4.6387229 -11.739947 2.9905634 14
4.9253273 -1.2260607 -0.34498149 5
4.8119798 0.28653422 -0.12669337 6.6666665
4.8670592 0.55609548 -0.16934456 6.1999998
4.9568052 1.011456 -0.23241168 6
4.8615956 1.3908269 -0.16735384 6.5
4.8743682 1.9121032 -0.12520067 7
4.885488 2.1902008 -0.10477854 7
4.9011555 2.5989437 -0.075432301 7
5.0083013 -2.1195023 0.30723649 9
4.8112297 0.25986317 0.13360333 8.1999998
4.8583217 0.58602536 0.15304294 8.166667
4.8646846 1.0119207 0.11349783 7.875
4.8578763 1.387816 0.14495826 8
4.8968248 1.8174555 0.088787511 8
4.8938012 2.2273195 0.13658226 8.1999998
4.9111891 2.6231551 0.16962209 8.1999998
4.880507 3.0152118 0.19256166 8.1999998
4.8738718 3.3898988 0.13231894 7.8000002
4.932529 3.8028357 0.10097471 7.5
4.958704 4.1597996 0.22829424 8
4.9971852 -2.074631 0.61834103 11
4.9823012 -1.9443974 0.63275015 11
4.9718552 -1.4190252 0.5361011 10.25
4.9375148 -0.93459821 0.54387462 10.666667
4.924953 -0.63180935 0.49779847 10.5
4.8150487 0.25589871 0.52510327 10.8
4.8374472 0.61055535 0.55482727 10.8
4.8477716 0.99775332 0.55131179 10.5
4.8537946 1.3980492 0.4969312 10
4.8682199 1.77148 0.534298 10.4
4.8991065 2.2175186 0.54262102 10.5
4.9241972 2.5884669 0.57427502 10.5
4.8588386 2.9828115 0.61473262 10.5
4.8919139 3.3233283 0.52309024 9.8000002
4.9373965 3.7981329 0.54150057 9.833333
4.9631095 4.1348596 0.52835733 9.5
4.9870152 4.6454344 0.59057808 9.5
5.0643978 -4.1859345 0.94988728 12
5.0722914 -4.0003738 0.94873482 12
4.9763794 -2.2395442 1.0057065 12.5
4.9612598 -1.8476199 0.90219134 12.333333
4.9759965 -1.3659288 0.99288905 13
4.9083514 -1.0305859 1.0077318 13.2
4.9367342 -0.668917 0.79738539 12
4.8211803 0.31757289 0.91226053 12.5
4.8469458 0.60475153 0.89474475 12.5
4.8432608 0.97504002 0.91786134 12.6
4.8488374 1.392902 1.0066735 13
4.855072 1.793759 1.0112199 12.5
4.8589358 2.170634 0.98932403 12.4
4.864687 2.5949016 1.0021367 12.25
4.8708458 2.9102798 1.0536406 12.333333
4.9359603 3.4564891 0.90231752 11.333333
4.9670467 3.7636042 0.79734325 11
4.9709191 4.18261 0.8434872 11
5.0065813 -2.1847599 1.2227902 14
4.9768643 -1.8668325 1.1584934 14
4.9657512 -1.3415831 1.2498189 14.5
4.9082313 -1.010245 1.2748897 14.666667
4.8363967 0.33329436 1.3680519 15
4.8647232 0.61265773 1.2953171 14.5
4.8571672 0.98667639 1.311582 14.6
4.8530898 1.3831159 1.3648139 15
4.8885112 1.7538301 1.3264298 14.5
4.8514571 2.210438 1.2872874 14
4.8471446 2.5479822 1.3075219 13.8
4.8769503 2.9712429 1.2368611 13
4.8820467 3.5394709 1.306633 13
4.8926644 3.7860017 1.3256452 13
4.8949471 4.2064381 1.3845853 13
4.8256464 2.7257338 1.5616524 15
4.8251848 2.9630911 1.6139268 15
5.1528225 -6.5613699 2.2036493 15
5.0851235 -6.2436543 2.1211605 15
5.0627174 -5.8215055 2.079004 15
5.115613 -5.4101844 2.0334551 15
5.1210561 -4.9942718 2.0053706 15
5.1090193 -4.7336774 2.0128169 15
5.2300577 -7.3697562 2.3094995 15
4.871603 -11.586402 2.9856031 14
5.1249146 -10.840737 2.8788471 14
5.58322 6.2559566 0.2285365 8
5.5198979 6.1640887 0.83668411 10
5.2366099 -10.303409 1.2029144 10
5.3242207 -9.9165058 1.1865532 10
5.4573355 6.3150196 1.8333732 13.5
5.4300685 6.6715164 1.7466433 13
5.8211689 6.2259588 0.30141112 8
5.7690163 6.2245374 0.58811337 9.25
5.8226876 6.266326 0.98132879 10.666667
5.6640382 6.7194319 1.5057718 12
5.7404714 6.2988443 1.8151858 13.333333
5.7082405 6.6877828 1.7592701 13
6.1641212 6.2358646 0.29579827 8
6.2160277 6.2292805 0.56643373 9
6.214962 6.2282572 0.91956103 10.333333
6.1766891 6.3498549 1.8185591 13
6.2078586 6.4037561 1.7941474 13
6.4686813 6.25631 0.33935148 8
6.7184663 6.4415817 1.7611767 13
7.0157299 6.5032964 1.9021827 13
7.1443419 7.3258696 1.6241736 12
7.4411817 6.7713318 0.27387691 8
7.5361562 6.7189393 0.54783213 9
7.524374 6.7508316 0.80542392 9.5
7.3473458 6.8594127 1.0474515 10
7.6008344 6.6962214 1.1579466 11
7.4448476 6.8626018 1.1665493 11
7.3033953 6.8201814 1.7667304 12
