# .PCD v0.7 - Point Cloud Data file format
VERSION 0.7
FIELDS x y z intensity
SIZE 4 4 4 4
TYPE F F F F
COUNT 1 1 1 1
WIDTH 158
HEIGHT 1
VIEWPOINT 0 0 0 1 0 0 0
POINTS 158
DATA ascii
-4.5429254 -3.4944155 1.4215126 14
-3.7906075 2.1111348 0.091372371 8
-3.0893424 1.9305844 0.29337856 10
-2.9143486 1.985373 0.18191318 9
-2.8985784 2.5363646 0.24471553 9.5
-2.9643896 1.9347839 0.46581322 11.5
-2.8692586 2.3467095 0.49354887 11
-2.9182887 3.0979941 0.36055458 10
-2.9536266 3.4630105 0.49693677 11
-2.9352257 2.3081744 0.71319485 13
-2.8766348 2.579179 0.63879436 12
-2.8957353 3.4948442 0.61931378 12
-2.9091961 4.4278564 0.52827024 10
-2.9458785 1.9901032 0.79629862 14
-2.8636093 2.0232155 0.87680554 15
-2.937151 2.4519756 0.81125891 14
-2.8439825 4.4227343 0.72736567 12
-2.8144665 6.2478566 0.72054625 11
-2.9193671 2.9606264 0.92957652 14
-2.9303765 3.5625045 0.96616077 13.5
-2.9196267 4.8119454 1.1191653 13
-2.6301503 -3.1375663 0.22050413 8
-2.6183486 4.4323926 0.54641813 11
-2.7883437 5.4209566 0.84563249 12
-2.5970733 3.1466095 0.11406738 8
-2.4588299 4.7949743 0.25507244 9
-2.0143626 -3.722743 0.37751073 9
-2.0165367 -1.6430428 0.77229017 15
-1.9986986 -3.6531334 0.079156667 7
-1.9383196 -3.7501702 0.26281458 8
-1.6402775 -3.8750658 0.48597401 10
-1.7266693 6.1626706 0.75077271 11
-1.7378483 6.1759377 1.3260018 13.5
-1.5503235 -3.8742454 0.38031122 9
-1.4591991 -3.8506303 0.81075007 12
-1.259843 6.1183696 1.3294492 14
-1.038088 -3.828398 1.0218542 14
-0.97745645 4.0416131 0.35646749 10
-0.88604707 -3.8416717 0.90727055 13
-0.71671671 6.0640593 0.76385534 11
-0.60476184 3.967829 0.39451191 10
-0.59929484 -3.9045186 0.82704329 12
-0.60599577 6.0548587 1.2403828 13
-0.57634056 6.0738974 1.3893495 14
-0.26576701 -3.9269848 0.5482952 11
-0.26559094 -3.8874605 0.86092407 13
0.090940855 -3.9390531 0.13812594 8
0.062595367 6.0911255 0.84295928 12
0.16502199 6.0922232 1.1294705 13
0.21816546 -0.74779248 -0.18594192 0
0.28224677 -1.0278223 -0.17013365 2
0.4599877 0.80647761 -0.2838338 0
0.45266491 -3.9283841 0.83705932 12
0.43000954 6.132421 0.79718363 11
0.42420566 6.1239681 1.4426239 14
0.77818918 0.55171174 -0.27821243 0
0.71619862 0.74269408 -0.28468853 0
0.85853368 0.91887611 -0.28871644 1
0.9109779 -3.8926208 0.13613494 7
0.92635125 -3.9674211 1.0976803 14
0.91503155 6.0681643 1.3548913 14
1.1519774 0.50440216 -0.28411576 1
1.1866312 -3.884248 0.17564695 8
1.021929 -1.650244 0.17858076 9
1.0930982 -3.9799321 0.57116824 10
1.0533146 -3.9755437 0.99143845 13
1.0403051 6.0608063 1.1029561 13
1.2986379 -0.011761656 -0.23654553 2
1.2909933 -3.8729968 0.1355097 7
1.3229846 -1.6685497 0.17438914 9
1.2960491 -1.6570067 0.27785537 10
1.34374 -1.463807 0.30600509 11
1.3359432 -3.8756025 0.58598351 11
1.267323 -1.649408 0.46936262 13
1.1937276 -3.8555009 0.83102328 12
1.3857888 -3.871058 0.93670809 13
1.3044064 -3.8545487 1.0894476 14
1.5980647 -1.654318 0.16624251 9
1.4615099 -3.9008117 0.30207598 9
1.4963536 -1.6312095 0.2440809 10
1.503358 -3.8727791 0.54052705 10
1.4161639 -1.6009388 0.59726542 14
1.5660785 -1.5400045 0.49424291 13
1.3986795 -1.55905 0.64962602 15
1.5175699 5.4378982 0.65174818 11
1.4853262 5.4443893 1.0119872 13
1.4840208 5.4363542 1.2684922 14
1.6325848 -1.0898851 0.20092833 9
1.6156251 -1.4749914 0.32037115 11
1.6289639 -1.0808935 0.30668923 11
1.6044245 -1.5431066 0.45607269 12
1.6269951 -1.3797973 0.6096198 14
1.653463 -1.075158 0.51054651 14
1.6264645 -1.3747315 0.66843355 15
1.6076993 5.3743539 0.86220443 12
1.8683677 -4.0216098 0.10142252 7
1.9429313 5.3506947 1.3945587 14
2.1893139 -4.0282941 0.22022399 8
2.0120749 -1.111262 0.14887674 8
2.0677032 -1.0958086 0.4123055 12
2.1319928 5.3135977 0.38927037 9
2.0023031 -4.0019164 0.8866865 12
2.0905807 5.318162 0.76832998 11
2.3610904 -4.0183301 0.13432012 7
2.2775686 -4.000175 0.63601762 10
2.2308967 -1.1030934 0.61406952 14
2.2790449 -3.9981146 1.1388482 13
2.5132627 -1.1173494 0.35278788 10
2.572031 5.3105402 0.72060412 11
2.4696372 5.3195724 0.98598295 12
2.6168532 -1.1174123 0.62109733 13
2.6757414 5.473361 1.7483608 15
3.0446062 -1.1541278 0.20704383 8
3.1835883 5.2982273 0.21719927 8
3.0592756 5.3104577 0.36208168 9
2.9959068 -1.1281424 0.83952397 14
3.0950675 -1.147688 0.9339174 15
3.3837943 -1.1978635 0.077967383 7
3.3586795 -1.1533252 0.31146812 9
3.5795803 5.4929228 1.5473616 14
3.7121229 5.8809748 1.2523375 12
4.0562301 5.2244921 0.15217306 8
4.1773872 3.9446473 0.5114215 10
4.3069715 3.4284601 0.24187002 8
4.4837089 5.4792018 1.4264077 13
4.6679573 5.827909 1.0544586 11
4.6611042 5.7463279 1.2632132 12
4.9563928 3.2609448 0.75937146 11
4.9491897 2.5228248 1.0289065 12
4.9834337 4.4555569 1.1597482 12
4.9515839 2.5489666 1.2064981 13
4.8418169 4.0833192 1.2401809 13
4.9310017 2.4792726 1.4957528 15
4.9811878 5.1874905 1.3850693 13
4.9452939 5.0675697 1.8218626 14
5.120862 -0.40073165 -0.059473597 6
5.1791062 0.66110742 -0.121673 6
5.1637669 -0.40465793 0.72960484 11
5.1731033 -0.19284549 1.0186521 12
5.1550927 -0.75758892 1.3720955 14
5.0980015 -0.32773682 1.2565469 14
5.1065249 -0.081250824 1.4124097 15
5.0480466 2.6344595 1.3748957 14
5.1237888 0.36022905 1.4796509 15
5.1550303 0.94898903 1.4333525 15
5.193161 0.19666594 0.77704948 11
5.2121329 0.8693586 0.64671141 10
5.2620897 1.197444 0.75195009 11
5.2704144 1.7558641 0.6973297 11
5.2274404 0.71875131 0.95116526 12
5.24788 2.334492 0.84854996 11
5.1947546 0.26413953 1.0422772 12
5.266006 1.1008867 1.0979954 13
5.284462 1.6174427 1.0301546 12
5.3141403 2.1497574 1.1084336 12.5
5.2320056 0.34488845 1.3453647 14
5.2040267 1.9578409 1.2892761 14
5.2003856 1.839082 1.5867524 15
