# .PCD v0.7 - Point Cloud Data file format
VERSION 0.7
FIELDS x y z intensity
SIZE 4 4 4 4
TYPE F F F F
COUNT 1 1 1 1
WIDTH 82
HEIGHT 1
VIEWPOINT 0 0 0 1 0 0 0
POINTS 82
DATA ascii
-0.27617785 -0.93196905 -0.14791974 167.5
-0.11385281 -0.94277823 -0.15939608 184.66667
0.024972776 -0.96803671 -0.16634412 191.25
0.16836439 -0.9399727 -0.16855991 191.5
0.29200798 -0.93006355 -0.17032152 191
-0.57105505 -0.80325747 -0.14454889 143
-0.38167191 -0.83145905 -0.14902528 164.66667
-0.23049191 -0.87279731 -0.15918519 179.33333
-0.18369183 -0.80706662 -0.16011535 188
-0.058496434 -0.84253788 -0.16635513 196.25
0.069856822 -0.854128 -0.17383754 199
0.18789458 -0.86590451 -0.17631532 196.25
0.29854622 -0.88652861 -0.17747484 197
0.30452985 -0.82853919 -0.17821808 197.5
-0.55448377 -0.79200208 -0.15311068 146
-0.49096677 -0.73880386 -0.15349406 155
-0.33413231 -0.78482318 -0.16183278 175.5
-0.27404192 -0.72094411 -0.16514738 185
-0.14857139 -0.76170868 -0.1690318 196.75
-0.021513911 -0.77711427 -0.1734685 198
0.030303527 -0.73730499 -0.17548345 196
0.11136646 -0.74701238 -0.17873326 196.33333
0.20974271 -0.77342331 -0.17798403 196
0.30987605 -0.77735102 -0.17908759 196.5
-0.6547913 -0.67325884 -0.15305392 137
-0.57662803 -0.62410659 -0.15742677 147.5
-0.42911756 -0.68989509 -0.16317503 167.66667
-0.3471081 -0.62204808 -0.16634151 183
-0.22502679 -0.66834009 -0.16654421 192
-0.1468555 -0.63840783 -0.17005454 196.33333
-0.070570759 -0.65544522 -0.1773784 195
0.045678947 -0.65226418 -0.17684712 193.5
0.15358928 -0.63252831 -0.17736186 191.66667
0.24064732 -0.64176196 -0.17976972 191.33333
0.32257298 -0.64589119 -0.17802678 192
-0.67028576 -0.51214391 -0.15756579 140
-0.51279902 -0.58428055 -0.16221984 159.5
-0.43663877 -0.53727448 -0.16994993 177.75
-0.35200521 -0.5537554 -0.17668514 192.5
-0.24726623 -0.54182959 -0.17782684 195.33333
-0.14313501 -0.58466536 -0.17984481 194
-0.048337225 -0.54359591 -0.17088059 191.83333
0.048439845 -0.56019425 -0.17862716 190
0.17189629 -0.53077412 -0.17927566 187.25
0.26257467 -0.5439285 -0.17786951 187.33333
0.33240512 -0.55752015 -0.18156938 187.66667
-0.62806684 -0.49333566 -0.16445541 151
-0.54856575 -0.45642659 -0.17011026 164.66667
-0.45657045 -0.41282475 -0.17226349 182
-0.32263774 -0.46565303 -0.17649223 195.75
-0.27542394 -0.43704879 -0.18336812 193.5
-0.13858289 -0.45058298 -0.17768341 190.85715
-0.037142295 -0.45588243 -0.17709063 188.44444
0.041785087 -0.45712152 -0.1827369 186.11111
0.12785448 -0.49797192 -0.17848875 186.33333
-0.41167036 -0.39211816 -0.1761039 192
-0.35022196 -0.36351088 -0.18002766 194.8
-0.23182575 -0.33875376 -0.17709015 191.55556
-0.13902724 -0.34888721 -0.18137442 187.88889
-0.064315841 -0.3734369 -0.18099955 186.5
-0.15645023 -0.27133346 -0.18274719 186.71428
-0.42864433 -0.17998807 -0.1887687 191.5
-0.32085893 -0.15817428 -0.19161817 192.33333
-0.238851 -0.13996877 -0.18109572 185.71428
-0.1921123 -0.13217902 -0.19544132 186
0.026497543 -0.12357569 -0.13327263 150.42105
-0.01908041 -0.096656471 -0.19625188 143
-0.75969017 0.033603352 -0.20459425 141
-0.22854623 0.012267405 -0.20113444 187.66667
0.38783342 0.15844776 -0.1256673 131
0.4345789 0.14829311 -0.10994951 126.9
0.51806521 0.1580316 -0.1790112 137.39999
0.38411185 0.24616314 -0.13121749 157
0.45519537 0.25203866 -0.15629551 153.2
0.51426965 0.26093417 -0.18308383 171
0.39939395 0.30070427 -0.17186436 177
0.44240698 0.299474 -0.18161283 177
-0.24159358 -0.12749328 -0.078421019 160.375
-0.018395333 -0.12363494 -0.041906171 162.91667
0.0086326096 -0.12244163 -0.089787267 163
0.37476808 0.1820706 -0.09092468 124.75
0.4254415 0.16643994 -0.088456273 120
