# .PCD v0.7 - Point Cloud Data file format
VERSION 0.7
FIELDS x y z intensity
SIZE 4 4 4 4
TYPE F F F F
COUNT 1 1 1 1
WIDTH 134
HEIGHT 1
VIEWPOINT 0 0 0 1 0 0 0
POINTS 134
DATA ascii
-4.9095988 2.0923584 -0.20477691 8
-4.9953418 2.4874072 -0.28131947 7
-4.9105673 2.4051139 -0.0099851564 9
-4.9807696 2.8284674 -0.13167551 8
-4.8688769 4.6669436 -0.17095658 8
-4.9337749 2.1502497 0.26310566 10
-4.9341607 3.3510752 0.013040994 9
-4.8863211 4.6542029 0.045206293 9
-4.9361415 2.3345575 0.44346914 11
-4.9526577 3.3597429 0.20117585 10
-4.9437108 3.595077 0.34238103 11
-4.9605656 4.2090435 0.23598056 10
-4.9475684 2.2325053 0.60331845 12
-4.9644809 2.282115 0.77350038 13
-4.9332037 4.152256 0.57572824 12
-4.9768591 2.3104467 0.92875826 14
-5.0099292 2.9435158 1.002072 14
-5.0274992 3.1188302 0.89795172 13
-4.9861465 3.6362214 0.90497971 13
-4.9465461 4.3431602 0.78409189 13
-4.9139786 5.1853256 0.86401594 13
-4.9822488 2.4353995 1.256349 15
-4.9683619 3.9873126 1.1353768 14
-5.0067048 3.4912548 1.2437172 15
-4.9471846 4.8224473 1.2556353 14
-4.9545083 4.6102858 1.4151781 15
-4.6653714 4.3882089 0.43434578 11
-4.7770019 6.2455201 1.4802866 15
-4.5031447 3.0557148 -0.14705199 8
-3.9686816 -1.830476 1.0988618 14
-3.5778592 -3.9685454 0.58158422 9
-3.4717698 -3.3151348 1.4651562 15
-3.3342037 -3.2523773 0.81079918 11
-3.2916431 -3.9244261 1.566388 15
-3.3965249 6.1030512 1.4355875 15
-2.9133098 -3.9746976 0.78047311 10
-2.7715738 -3.9617617 1.2548437 13
-2.7107852 5.9965696 0.78970766 13
-2.700351 5.9974303 1.0966661 14
-2.4194415 -4.0090976 0.59039438 9
-2.4409184 3.9390323 0.034826878 10
-2.6429138 -3.9685264 1.4993736 15
-2.1688676 6.0353718 1.2070036 15
-1.864687 -4.0325089 0.30277395 7.5
-1.9556299 -3.9951603 1.4455715 15
-1.6477019 3.9275174 -0.015581404 9
-1.6556561 3.9099195 0.15758918 10
-1.838032 6.0115457 0.95673722 14
-1.210453 6.0058947 0.71858752 13
-1.1860603 6.0329137 1.0844262 14
-0.7515415 -1.5973072 0.47679952 13
-0.6433847 -1.5335734 0.32739708 11
-0.59164292 -1.6472629 0.28046554 10
-0.48584008 5.2742214 0.063098818 9
-0.4339166 5.2887144 0.50139546 12
-0.46495315 5.2935357 0.90830618 14
-0.47367057 5.3180742 1.1606787 15
-0.22356568 -1.3827697 -0.10174895 3
-0.32187328 -1.1678181 0.35283276 13.5
-0.33536386 5.2669458 0.29883683 10.5
-0.42643818 5.286932 0.71996099 13
-0.072461046 -1.3626219 0.091467485 7
0.10066469 -1.0094824 -0.1505798 1
0.051829852 -0.79231489 -0.1644956 0
0.1181298 5.2374544 0.45273817 12
-0.014535999 5.2556696 0.84679663 14
0.26313627 -0.83727431 -0.15163928 0
0.37384319 -0.64408809 -0.14834736 0
0.29583693 0.84445691 -0.27106759 0
0.31067106 -1.4243549 0.041345131 6
0.27683583 -1.4233925 0.16410927 8.5
0.2783106 5.584651 1.2548727 15
0.60484922 -0.91988629 -0.12222587 1
0.47373834 -0.50583565 -0.15554409 0
0.60460132 0.38410345 -0.22379863 0
0.58780718 0.52244514 -0.22202799 0
0.44305989 0.59261477 -0.22799048 0
0.49969772 -1.3767675 0.023055211 5
0.41185939 -1.2092315 0.30165029 11
0.44253406 5.2443805 0.79484743 13
0.47672758 5.2273707 0.8773306 14
0.80239391 0.070638828 -0.18794344 0
0.75685412 0.22221254 -0.19611992 0
0.7151534 -1.4368827 -0.038897447 4
0.75016576 -0.97429883 -0.10020443 2
0.69855148 -1.1816905 0.28583395 10
0.86078775 0.67015266 -0.20384471 2
0.82431424 -1.3894513 0.28381103 9
0.89008653 -1.2208688 0.41971961 12
0.96251404 1.6940385 0.39636049 14
0.87632734 5.2302103 0.11181057 9
1.0506734 -1.2177488 0.40536523 11
1.2276248 0.17203112 -0.14252947 3
1.3471867 -1.2309811 0.42493358 11
1.2066288 1.0619558 0.35440356 14
1.482199 0.23203261 -0.11884271 4
1.4748241 -1.252666 0.29300663 8.5
1.5834579 -1.2568223 0.39271441 10
1.4609665 -1.2336543 0.63659483 13
1.4962528 5.4461498 1.2228084 15
1.7058308 -1.2478213 0.26763701 8.5
1.6263824 -1.2527608 0.65686965 13
1.9476848 -1.2420222 0.5372228 12
2.1649659 -1.259993 0.44613355 10.5
2.1085844 4.7173686 0.34119478 10
2.1063595 -1.2477138 0.78183687 14
2.2734668 -1.2706633 0.30307391 8.5
2.3254428 -1.2509729 0.89941639 15
2.358536 5.7603731 1.0476605 13
2.5376065 5.7714977 1.1355227 14
2.5374339 5.4020109 1.4397912 15
2.9541867 2.3402588 0.10522792 8
2.9361107 2.4141235 0.25052464 9
2.9659214 -1.3025954 0.78165394 12
2.9542713 2.3315778 0.42237711 11
3.0370216 -1.340295 0.17112352 7
3.0487192 -1.327068 0.33948538 8.5
3.1548831 0.39960405 0.22233541 8
3.171623 0.59446794 0.10934496 7
3.1842048 0.91967392 0.11387282 8
3.0164468 -1.3161813 0.59337604 10
3.0001438 -1.3159472 0.6890012 11
3.0511622 -1.2687631 0.89145553 13
3.078476 -0.7998299 0.78439695 13
3.1449628 0.66595489 0.70705038 13
3.1687186 1.3273729 0.75667572 13
3.0122082 -1.2861301 1.0785979 14.5
3.0878391 -0.25301561 0.9640947 15
3.2348411 1.5543356 0.13905376 8
3.257695 2.203995 0.24416724 9
3.251018 2.1171961 0.43999949 11
3.2284405 2.255532 0.39498535 10
3.208739 1.7996104 0.74539095 13
3.2301817 2.1490829 0.92774647 14
