# .PCD v0.7 - Point Cloud Data file format
VERSION 0.7
FIELDS x y z intensity
SIZE 4 4 4 4
TYPE F F F F
COUNT 1 1 1 1
WIDTH 136
HEIGHT 1
VIEWPOINT 0 0 0 1 0 0 0
POINTS 136
DATA ascii
-5.9230003 0.97430664 1.7691437 15
-5.2710023 1.328739 1.4694158 15
-5.1299939 -0.75320441 1.4691827 15
-4.6629939 -1.1146545 0.71196657 11.5
-4.6970091 2.2931335 0.78896964 11
-4.6469936 -1.0901045 0.98033512 13
-4.7940044 1.6479467 1.5119331 15
-4.6090074 2.2026193 1.4226913 15
-4.4370084 2.4811795 1.2175623 14
-4.3409929 -1.4358901 0.33127263 9
-4.3380094 2.2961607 0.28772658 9
-4.2579923 -1.5453748 0.45404881 10
-4.3260098 2.2671638 0.43632388 10
-4.2469916 -1.5960813 0.71586138 12
-4.3250089 2.2419524 0.77071047 12
-4.3089914 -1.4621527 0.90827799 13
-4.3180079 2.237514 1.033066 13
-4.3279858 -2.6941855 1.3106843 14
-4.3499908 -1.4774579 1.3526413 15
-4.0919867 -3.0333951 0.064112015 7
-4.1474919 -1.720749 0.058207713 7.5
-4.1179914 -1.7472016 0.30682883 9
-4.0099897 -1.9386692 0.65843636 11
-4.0219889 -1.9479876 0.91113794 12.5
-4.0429893 -1.9099669 1.0970265 14
-4.0369887 -1.9470121 1.2204794 15
-3.9450109 2.5474648 0.17499869 8
-3.950984 -3.084594 0.98158026 13
-3.8560095 2.5532308 0.92911172 13
-3.984983 -3.1791465 1.3146569 14
-3.8390086 2.5736172 1.3949019 15
-3.705013 3.0618253 0.22795343 8
-3.6389816 -3.5327253 1.23979 14
-3.5639801 -3.7276061 1.3774507 15
-3.5280116 3.1556737 1.2706864 15
-3.2279801 -4.0108037 0.94443375 12
-3.2029793 -4.1037002 1.0883482 13
-3.2139792 -4.0371337 1.2212728 14
-3.1749804 -4.0993009 0.61748838 10
-2.8269753 -4.7195988 1.6436104 15
-2.7279923 -1.4894452 0.30768764 10
-2.6589751 -4.9156389 1.2729764 13.5
-2.5910165 3.8450089 0.23173344 8
-2.3140149 4.025126 1.4027156 15
-2.1104901 -2.0731885 0.15772718 8.5
-2.0379896 -2.161068 0.31433311 10
-1.8059717 -5.770771 1.2227443 13
-1.6854879 -2.669517 0.13719141 8.5
-1.5800073 1.8093572 0.40730357 12
-1.0129788 -4.7432384 0.0019701349 7
-1.0720212 4.9243746 0.40216687 9
-1.0860204 4.9051557 0.74533397 11
-1.0420202 4.9282079 0.85488117 12
-1.0030196 4.8962741 1.0696025 13
-1.0250193 4.9144173 1.2198548 14
-0.99502081 4.9044619 0.50048983 10
-0.86897516 -5.0845785 1.0284896 13
-0.77497727 -5.0077982 0.17453977 8
-0.64697814 -4.7372208 0.38645452 9
-0.64897823 -4.6602187 0.46624631 10
-0.57297885 -4.7640014 -0.009599749 7
-0.40501732 4.0986199 0.47584304 10
-0.45901725 4.1715775 0.68105274 12
-0.5339765 -4.8473291 0.90701646 12
-0.59397572 -4.9005704 1.1564369 14
-0.25601637 3.886539 0.4804877 11
-0.20401484 3.7904994 0.98461586 14
-0.17902932 0.88160473 -0.21328647 0
-0.12397884 -4.5326447 0.45241758 10
-0.074015297 3.6315567 0.4316116 10
-0.081014097 3.6173072 0.97581935 15
0.059015866 -3.5258036 0.063147582 8
0.11298608 3.3693848 0.52590436 11
0.089986265 3.3904366 0.66039163 13
0.010022002 -4.4530206 1.020031 14
0.36498755 3.0173473 0.46331084 11
0.24898709 3.1778357 0.6025244 12
0.54601818 -4.0193543 0.088243261 8
0.42901763 -3.9396129 0.02835892 7
0.46101937 -4.1118097 0.50416648 11
0.41902018 -4.1532016 0.79731977 12
0.76090074 -0.64285827 -0.21145697 1
0.62827945 -0.418165 -0.20348577 0
0.66428721 -0.35556507 -0.22979991 0
0.77839833 0.17466462 -0.22080939 0
0.97256958 -0.76009494 -0.22323808 2
0.94384515 -0.44051319 -0.20524041 1
0.80152833 0.074334733 -0.22570357 0
0.83501774 -3.8342073 0.30697972 9
0.99599111 2.1506634 0.36686406 11
0.98301721 -3.6285946 0.46875679 10.5
0.97499138 2.158982 0.52063239 13
0.98799175 2.1520474 0.65610987 15
1.1431241 -0.59629965 -0.20703496 2
1.0040162 -3.6099136 0.059046723 8
1.0085181 -3.6209064 0.88114268 13.5
1.2061824 -0.14670384 -0.19672699 2
1.2180156 -3.4547806 0.050556224 7
1.3990158 -3.3129387 0.43630981 11
1.4330148 -3.3087521 0.059098266 8
1.4140154 -3.3017976 0.2603783 9
1.5309908 2.2210355 0.37635526 11
1.4360156 -3.3036296 0.40922937 10
1.496991 2.2497835 0.45536497 12
1.4140165 -3.3202152 0.73055464 13
1.4899908 2.3565264 0.61428612 13
1.4790171 -3.370044 0.95167959 14.5
1.5259917 2.2888865 0.83275992 15
1.7489904 2.2613053 0.30969611 10
2.7740109 -2.4185269 0.11909585 8
3.0000105 -2.2055798 0.19916314 9
3.1829829 4.0804486 0.40112102 9
3.0400052 -0.74004316 0.80898911 14
3.338984 3.689214 0.19580916 8
3.3909853 3.6284668 0.51583827 10
3.3509867 3.6156018 1.2072706 14
3.3949873 3.585336 1.4916929 15
3.4509854 3.5563173 0.35403752 9
3.468986 3.5190523 0.65473878 11
3.4849861 3.4841604 0.9023425 12
3.4909866 3.4704146 1.0497571 13
3.7929857 3.3028238 0.13410914 8
3.6819878 3.3794682 1.3278692 14
4.2880006 0.12211277 0.43349504 10
4.3508334 2.6596146 0.84772122 12
4.3579922 2.4121995 1.347214 15
4.6799927 2.0097184 0.66714114 11
5.1919942 1.3264557 0.051921692 7
5.1007743 0.35558888 0.22803073 8
5.1409955 1.3517889 0.82753205 11
5.132997 1.3466833 1.5632112 15
5.3369961 0.96110266 0.0078677693 7
5.239995 1.269582 0.26464286 8
5.2169952 1.290225 0.41922578 9
6.2280412 -7.8344903 3.0347037 15
9.5850573 -11.57083 2.5458994 12
