# .PCD v0.7 - Point Cloud Data file format
VERSION 0.7
FIELDS x y z intensity
SIZE 4 4 4 4
TYPE F F F F
COUNT 1 1 1 1
WIDTH 146
HEIGHT 1
VIEWPOINT 0 0 0 1 0 0 0
POINTS 146
DATA ascii
-5.2329955 -0.64530778 1.4852216 15
-4.8559895 1.6091536 1.2826469 14
-4.6519918 2.2861488 0.14551236 8
-4.6115003 -1.1700225 0.67860442 11.5
-4.6609893 2.3291147 0.78324193 11
-4.6599879 2.3045516 1.0955472 13
-4.7809892 1.6653063 1.3599246 15
-4.3360043 -1.4423887 0.084727474 8
-4.2329907 2.6500936 0.15111916 8
-4.3899918 2.2536581 0.28965849 9
-4.2920027 -1.4881393 0.43073872 10
-4.3319907 2.2711394 0.4871712 10
-4.3340025 -1.4527171 0.64653111 11
-4.2550044 -2.6978238 0.92346942 12
-4.3360004 -1.4755561 1.0698411 14
-4.3259878 2.2374754 1.1589724 14
-4.3489871 2.2158782 1.3547952 15
-4.347002 -2.6772695 1.5131712 15
-4.1130047 -1.7566348 0.084607042 7.5
-4.1840038 -1.6470722 0.27861837 9
-4.0640025 -1.8702587 0.70949852 11.5
-4.0580044 -3.0119476 1.0225773 13
-4.0430012 -1.9059365 1.0471557 13.5
-4.0289998 -1.9364485 1.2751426 15
-3.8639886 2.5503325 0.76962304 12
-3.9099877 2.5248635 0.93073279 13
-3.9059868 2.5248041 1.1734713 14
-3.8479865 2.5637696 1.2345752 15
-3.6659887 3.0886238 0.22313167 8
-3.6700053 -3.476615 1.300952 14
-3.6750047 -3.4803483 1.4405086 15
-3.4450078 -3.8889668 1.0034487 13
-3.2089853 3.4009492 0.90743959 13
-3.206007 -4.047081 1.2956209 14
-3.2380066 -4.0390201 1.4376069 15
-3.1860089 -4.0115952 0.8426109 12
-2.8710103 -4.6531997 0.99288332 12
-2.9020081 -4.6049442 1.4781498 15
-2.7349873 3.7372079 0.22377516 8
-2.6870098 -4.8602448 1.3567138 14
-2.4990096 -5.3067589 1.7017412 15
-2.2190058 -2.0057344 0.12053801 8
-2.1140056 -2.0599174 0.21069963 9
-2.056011 -5.9219761 1.716699 14.5
-1.7220082 -2.6730871 0.08337944 8
-1.7250073 -2.6318488 0.26764119 9
-1.7270142 -5.7076507 0.87480032 11
-1.434011 -5.5064979 1.4369217 14
-1.1820154 -4.8104534 -0.025269968 7
-1.0319823 4.9465342 0.41894147 9
-1.0859817 4.9136925 0.62448823 11
-1.0179803 4.9215121 0.91048068 12
-1.0609788 4.915565 1.3106468 14
-0.813016 -5.0270357 -1.7028708e-05 7
-0.97798198 4.8878579 0.58813387 10
-0.99598014 4.8860722 1.0039099 13
-0.84801048 -5.0726476 1.2887909 14
-0.86300999 -5.0954332 1.4109416 15
-0.75101548 -4.9865417 0.098538883 8
-0.7280122 -4.6350079 0.55792475 10
-0.62701261 -4.8121305 0.61513233 11
-0.71301198 -4.9731236 0.87271249 12
-0.43383232 -0.75594628 -0.26097837 0
-0.52301401 -4.82759 0.28389931 9
-0.44998425 4.1714344 0.59038419 11
-0.5959807 4.3241796 1.2866772 15
-0.2812686 -1.0429318 -0.25311556 0.5
-0.32998359 3.9786925 0.87737417 13
-0.24700965 -4.6426969 1.1563056 14
-0.082007445 -0.99467146 -0.24596818 0
-0.12662797 0.92779201 -0.21423936 1
-0.0040119179 -4.4288073 0.48508251 10
-0.10248628 3.6676893 0.48280534 10.5
-0.10601144 -4.5282388 0.66648453 11
-0.13298544 3.7003412 0.64639068 12
-0.052010704 -4.4888024 0.8072173 12
-0.081984714 3.6281314 0.86934954 14
-0.19898359 3.7797201 1.0155481 15
0.19046615 -1.1070096 -0.25419259 1
0.12005314 -0.85417092 -0.25269613 0
0.10415951 0.72001839 -0.2104291 0
0.11698743 -4.3484654 0.27821216 9
0.19801234 3.2584574 0.46015179 11
0.15301369 3.3102496 0.7323091 13
0.089015134 3.3778427 1.015437 15
0.30187342 -0.75818545 -0.23574226 0
0.26263955 0.71463424 -0.22168805 0
0.27647066 0.99251491 -0.213827 1
0.43551451 -0.62118685 -0.2141439 0
0.54452097 -0.44993514 -0.21309234 0
0.51439911 0.55744392 -0.2148439 0
0.49949226 0.72264069 -0.21148492 0
0.40550581 0.8538537 -0.20901608 1
0.55970472 1.1560653 -0.20137392 3
0.52901208 2.7756658 0.76353675 15
0.53599197 -4.0644541 1.0970986 15
0.71353334 -0.48998237 -0.20592216 0
0.6713807 0.26930025 -0.21814485 0
0.6942367 0.50127763 -0.20236592 0
0.74499023 -3.9147327 0.61555821 11
0.84492153 0.33183646 -0.208211 1
0.93798882 -3.7618573 0.17468794 8
0.97250891 2.1526475 0.49653271 13
0.97199148 -3.6574342 0.71205258 12
0.99700958 2.1484773 0.63553309 15
0.99199259 -3.6360807 0.94427872 14
0.86499286 -3.835201 1.1338055 15
1.0754148 2.5009995 -0.1110203 6
1.0199897 -3.6018684 0.2846306 9
1.0150083 2.1625345 0.36023608 11
1.013009 2.1588712 0.51591706 13
1.087992 -3.5663011 0.73311317 13
1.3949897 -3.3272035 0.011545732 7
1.2758706 2.2166538 0.053824753 8
1.3734916 -3.3312109 0.45827863 10.5
1.3819927 -3.3340402 0.71982056 13
1.4499909 -3.3119552 0.29440495 9
1.4150099 2.3413136 0.59834862 13
1.4890102 2.4962108 0.47903317 11.5
1.4549924 -3.3266683 0.67538333 12
1.4259933 -3.3261285 0.91315794 14
1.4480107 2.2813063 0.80364132 15
1.6880085 2.2367609 0.35860741 10.5
2.8509934 -2.3729076 0.17495465 8
3.3669991 -0.55753154 0.1722535 8
3.3690171 3.5919168 1.328301 15
3.4670134 3.5260515 0.48787203 9.5
3.4770145 3.516434 0.74305576 11
3.445015 3.5336277 0.81765068 12
3.4230163 3.5649943 1.042019 13
3.407017 3.5580349 1.2668025 14
3.7480116 3.3396754 0.22919963 8
4.01299 -2.6815729 -0.1805571 6
4.0220146 2.8763661 1.3316634 15
4.2940025 0.15044855 0.4822318 10
4.5273986 2.3846602 -0.049879275 7
4.4080076 1.1426331 0.99972814 13
4.4430079 1.1694804 1.0694432 14
4.6730118 1.9789689 1.3896496 15
5.1360044 1.4472373 -0.031224128 7
5.1650076 1.1524743 1.0099769 12
5.3520031 0.93926966 -0.011895224 7
5.2440047 1.2497576 0.13633998 8
5.2910061 0.97030604 0.7915985 11
6.0220037 0.15003149 0.78636211 11
7.0439868 -7.7721143 2.4167151 14
