# .PCD v0.7 - Point Cloud Data file format
VERSION 0.7
FIELDS x y z intensity
SIZE 4 4 4 4
TYPE F F F F
COUNT 1 1 1 1
WIDTH 149
HEIGHT 1
VIEWPOINT 0 0 0 1 0 0 0
POINTS 149
DATA ascii
-5.8969846 1.0133424 1.7709109 15
-4.8999653 -1.3423532 1.2259735 14
-4.875998 1.5933218 1.3382125 14
-4.961966 -1.0039066 1.4430513 15
-4.6250205 2.3283236 0.44678563 10
-4.6489782 -1.0748414 0.61963296 11
-4.6534743 -1.0824307 0.8705287 12.5
-4.4080172 2.2349861 0.60272998 11
-4.5780039 2.1885877 1.4553095 15
-4.3680277 2.5586894 0.14015366 8
-4.3494754 -1.4456018 0.48678866 10.5
-4.313971 -1.4680902 0.74847776 12
-4.335012 2.2207496 0.95052558 12.5
-4.260962 -1.599033 1.2413461 15
-4.3390079 2.2269745 1.2121524 14
-4.1244774 -1.7370868 0.1016212 7.5
-4.0999742 -1.760138 0.30532619 9
-4.1149702 -1.826152 0.52701807 10
-4.0299664 -1.9134284 0.70786923 11.5
-4.036953 -2.9754691 0.81147659 12
-4.0629635 -1.8852454 0.94192672 13
-4.0229592 -1.9410208 1.1789539 14
-4.0279431 -3.0022104 1.3924533 15
-4.0379567 -1.9566681 1.3170739 15
-3.9130251 2.534338 0.30038324 9
-3.855016 2.5609057 0.93210554 13
-3.9040122 2.5225353 1.1500804 14
-3.9020097 2.5318279 1.2902005 15
-3.8310139 2.9446678 1.3581092 15
-3.7920327 3.0106287 0.18456557 8
-3.7119403 -3.4709799 1.2120335 14
-3.5619349 -3.7206821 1.3783351 15
-3.2059352 -4.0701022 1.1186321 13
-3.3950191 3.2492273 1.2548181 15
-3.1989386 -4.0570312 0.90163624 12
-3.1559293 -4.191143 1.3790139 14
-2.8989217 -4.6138463 1.5516489 15
-2.7600405 3.7255268 0.22844525 8
-2.6829264 -4.8573804 1.0695246 12.5
-2.6869209 -4.8695011 1.4331887 14
-2.1949742 -2.0224059 0.11654091 8
-2.0900135 1.4275036 0.22430596 10
-2.0989063 -5.9236212 1.5881035 14
-2.0329015 -5.9306927 1.8722996 15
-1.7589638 -2.5759404 0.38016531 11
-1.7089182 -5.6840262 0.97940189 12
-1.572964 -2.7937913 0.19877873 9
-1.5479615 -2.8019042 0.35795179 10
-1.5750414 4.5624452 0.80576563 12
-1.5040333 4.5969987 1.3629072 15
-1.1589409 -4.7191553 0.23655652 8
-1.0540509 4.9357057 0.47103328 9.5
-1.0930486 4.9074087 0.6096431 11
-1.0620446 4.9239392 0.87351912 12
-1.0410405 4.8997893 1.1239285 13.5
-0.81993604 -5.0144815 0.32181019 9
-0.95595217 -3.6214864 0.33869058 10
-0.92792821 -5.1244993 0.74971879 11
-0.93192679 -5.126183 0.84721839 12
-0.91803408 4.7749152 1.4578792 15
-0.7519384 -4.9753304 0.1976027 8
-0.65992695 -4.9402719 0.98445636 13
-0.53904259 4.2840586 0.52087384 10.5
-0.31293347 -4.6789312 0.75508654 12
-0.37803546 4.0456915 0.79782766 13
-0.34403169 3.9700036 0.99115682 14
-0.32192323 -4.7032518 1.4078696 15
-0.096485391 -1.0505294 -0.24028695 1
-0.032860998 0.95713353 -0.24277033 0
-0.16394383 -4.5463881 0.1737708 8
-0.036943745 -4.4558787 0.25015283 9
-0.17903781 3.779568 0.44039619 10
-0.19993502 -4.5938787 0.7179997 11
-0.19203472 3.7747285 0.639247 12
0.16991392 -1.2377349 -0.24348469 2
0.1197998 0.72651583 -0.22672756 0
0.047484454 1.1446923 -0.21589075 2
0.16496877 3.3006918 0.50251049 11
0.11697263 3.3454852 0.79094756 14
0.062064726 -4.4004197 0.85111177 13
0.28634438 -0.90602124 -0.24732755 0
0.27310434 0.73681045 -0.227835 0
0.35441172 1.1681668 -0.21052559 2
0.20397007 3.231252 0.53543383 12
0.20206106 -4.2954392 0.69052202 12
0.36697534 3.012841 0.70953691 14
0.31497639 3.0726261 0.8235144 15
0.47728401 -1.0634165 -0.24141198 1
0.45960176 -0.86686099 -0.23059168 0
0.54256463 -0.71989316 -0.22950079 0
0.56889504 -0.42993617 -0.21786857 0
0.56140202 0.45035556 -0.21352145 0
0.4895663 0.68628716 -0.20693034 0.33333334
0.47904688 -3.9872499 -0.0025730387 7
0.44555306 -4.1092954 0.31208012 9.5
0.41505867 -4.152873 0.64425242 11
0.42897528 2.92908 0.64403784 13
0.62810212 -0.68112016 -0.22846241 0
0.78929538 -0.59920996 -0.22473668 1
0.66704416 -0.32173863 -0.22653057 0
0.6439141 0.31175545 -0.21214214 0
0.61167169 0.40905958 -0.2169129 0
0.73264539 0.64118558 -0.20825152 1
0.65883392 0.89734048 -0.21143089 2
0.64905643 -3.970778 0.64606047 12
0.81442153 -0.84844404 -0.22812724 2
0.83610159 -0.3172645 -0.20315814 1
0.86796248 0.51561356 -0.20325679 1
0.84242523 1.2161201 -0.18769397 3
0.96334422 2.6342931 -0.028012279 7
0.99798018 2.1624646 0.3692804 11
0.9734816 2.1660018 0.46942428 12.5
0.81797916 2.3879766 0.4871271 13
0.98098445 2.1494 0.64469731 15
1.0847436 0.98243725 -0.18882397 3
1.0550443 -3.5608714 0.15358257 8
1.0555463 -3.5655129 0.28396454 9.5
1.0269836 2.1663067 0.59637296 14
1.027553 -3.6044097 0.69425905 12.5
1.3730406 -3.3330626 0.085357882 8
1.3850483 -3.3303361 0.59736603 12
1.3689826 2.3784721 0.69547844 14
1.4740392 -3.3268223 0.0085509373 7
1.4240429 -3.2959993 0.2791878 9
1.5453885 2.3693519 0.22312449 9
1.4994781 2.4762816 0.46905699 11.5
1.4470509 -3.3303158 0.77262771 13
1.4189831 2.3407986 0.70302194 14
1.4290521 -3.317812 0.85270065 14
1.7469774 2.2416456 0.26398972 10
1.7099813 2.1800959 0.45701018 12
1.7149804 2.211092 0.42549407 11
1.6654828 2.3151894 0.66064751 13.5
3.3269794 3.6536388 1.4767156 15
3.5009632 3.4752502 0.27471384 9
3.4499674 3.5388567 0.58254272 10
3.4209673 3.5774417 0.61338395 11
3.4804733 3.4809742 0.96234441 12.5
3.6179795 3.4615529 1.315557 14
4.2930055 0.15953252 0.47420773 10
4.5039921 2.2150741 1.1612155 14
5.1859837 1.3577924 -0.02394443 7
5.2209868 1.2870481 0.13674162 8
5.2739944 0.99692696 0.42105469 9
5.2370009 0.80859971 0.69649112 11
5.3521414 -8.5888872 2.6253784 14
5.4009938 0.84297448 0.24435204 8
6.4970913 -4.8112206 2.2871554 15
7.2721252 -7.1788778 2.7268701 15
