# .PCD v0.7 - Point Cloud Data file format
VERSION 0.7
FIELDS x y z
SIZE 4 4 4
TYPE F F F
COUNT 1 1 1
WIDTH 231
HEIGHT 1
VIEWPOINT 0 0 0 1 0 0 0
POINTS 231
DATA ascii
0 0 0
1 0 1
2 1 2
3 2 3
4 3 4
5 4 5
6 5 6
7 6 7
8 7 8
9 8 9
10 9 10
11 10 11
12 11 12
13 12 13
14 13 14
15 14 15
16 15 16
17 16 17
18 17 18
19 18 19
20 19 20
21 20 21
22 21 22
23 22 23
24 23 24
25 24 25
26 25 26
27 26 27
28 27 28
29 28 29
30 29 30
31 30 31
32 31 32
33 32 33
34 33 34
35 34 35
36 35 36
37 36 37
38 37 38
39 38 39
40 39 40
41 40 0
42 40 41
43 41 42
44 42 10
45 42 43
46 43 11
47 43 44
48 44 45
49 45 46
50 46 13
51 46 47
52 47 14
53 47 48
54 48 14
55 48 49
56 49 15
57 49 50
58 50 16
59 50 51
60 51 52
61 52 18
62 52 53
63 53 54
64 54 55
65 55 10
66 55 56
67 56 57
68 57 27
69 57 58
70 58 13
71 58 59
72 59 14
73 59 60
74 60 61
75 61 62
76 62 63
77 63 15
78 63 64
79 64 65
80 65 66
81 66 16
82 66 67
83 67 68
84 68 18
85 68 69
86 69 18
87 69 70
88 70 20
89 70 71
90 71 38
91 71 72
92 72 8
93 72 73
94 73 24
95 73 74
96 74 25
97 74 75
98 75 43
99 75 76
100 76 44
101 76 77
102 77 45
103 77 78
104 78 46
105 78 79
106 79 80
107 80 14
108 80 81
109 81 15
110 81 82
111 82 16
112 82 83
113 83 84
114 84 85
115 85 20
116 85 86
117 86 20
118 86 87
119 87 88
120 88 89
121 89 90
122 90 23
123 90 91
124 91 92
125 92 93
126 93 94
127 94 95
128 95 96
129 96 97
130 97 98
131 98 99
132 99 100
133 100 101
134 101 102
135 102 103
136 103 104
137 104 23
138 104 105
139 105 23
140 105 106
141 106 23
142 106 107
143 107 23
144 107 108
145 108 24
146 108 109
147 109 25
148 109 110
149 110 11
150 110 111
151 111 76
152 111 112
153 112 45
154 112 113
155 113 46
156 113 114
157 114 14
158 114 115
159 115 31
160 115 116
161 116 15
162 116 117
163 117 118
164 118 17
165 118 119
166 119 37
167 119 120
168 120 21
169 120 121
170 121 122
171 122 38
172 122 123
173 123 124
174 124 74
175 124 125
176 125 43
177 125 126
178 126 27
179 126 127
180 127 58
181 127 128
182 128 59
183 128 129
184 129 14
185 129 130
186 130 64
187 130 131
188 131 132
189 132 133
190 133 18
191 133 134
192 134 19
193 134 135
194 135 20
195 135 136
196 136 137
197 137 138
198 138 23
199 138 139
200 139 140
201 140 103
202 140 141
203 141 93
204 141 142
205 142 94
206 142 143
207 143 95
208 143 144
209 144 145
210 145 96
211 145 146
212 146 99
213 146 147
214 147 95
215 147 148
216 148 94
217 148 149
218 149 93
219 149 150
220 150 93
221 150 151
222 151 103
223 151 152
224 152 23
225 152 153
226 153 107
227 153 154
228 154 9
229 154 155
230 155 10
