# .PCD v0.7 - Point Cloud Data file format
VERSION 0.7
FIELDS x y z intensity roll pitch yaw time
SIZE 4 4 4 4 4 4 4 8
TYPE F F F F F F F F
COUNT 1 1 1 1 1 1 1 1
WIDTH 260
HEIGHT 1
VIEWPOINT 0 0 0 1 0 0 0
POINTS 260
DATA ascii
0.00034583831 0.00067604997 7.5187373e-08 0 -0.00015839985 6.7129506e-05 -0.00019569555 4.9406565e-324
0.0070824893 -0.019312032 -0.0087802894 1 -0.010936715 -0.0095940297 0.00045864237 4.9406565e-324
-0.0097735077 -0.0081671569 0.0077915387 2 0.0017329297 -0.0019000681 -0.00022254087 4.9406565e-324
0.01174996 -0.014357077 -0.012771905 3 -0.0099277357 -0.013724569 0.0016884926 4.9406565e-324
-0.0047119684 -0.0091097215 0.007535914 4 -2.6741149e-05 -0.0028165353 0.00063314824 4.9406565e-324
-0.01445944 -0.012148155 0.0026131547 5 -0.0076392246 -0.0028282753 0.00042299394 4.9406565e-324
-0.005262244 -0.0050535961 -0.0016344868 6 -0.0036397052 -0.0029780921 0.0018287774 4.9406565e-324
-0.010429042 -0.01584178 0.0096985493 7 -0.0051200986 -0.0065714126 0.00088660512 4.9406565e-324
-0.011977558 -0.0090072593 0.0072883461 8 0.00056898291 -0.0025939003 0.0017914242 4.9406565e-324
-0.0091446787 -0.015566282 0.013335017 9 -0.0087260986 -0.0052341036 0.0013170857 4.9406565e-324
0.55656886 -0.0065994053 0.02170505 10 0.013433279 -0.014813491 -0.0077402811 4.9406565e-324
0.88573301 0.0067949886 -0.0036013918 11 0.018633926 -0.015603697 0.0051120548 4.9406565e-324
1.2854429 0.0074745417 0.0072276099 12 0.0063972995 -0.023204127 0.0056245597 4.9406565e-324
1.7821527 0.017382134 0.0068825893 13 0.014265828 -0.0320464 0.001816088 4.9406565e-324
2.5684791 0.039190974 0.0021402338 14 0.015978694 -0.033206739 0.0086079799 4.9406565e-324
3.191771 0.055808943 0.019108614 15 -0.0019513359 -0.03819792 0.02350639 4.9406565e-324
3.596137 0.033150624 0.010004762 16 -0.00088417908 -0.028658571 0.052815888 4.9406565e-324
4.0027862 0.06148893 0.031038111 17 -0.012541518 -0.01526691 1.0641007 4.9406565e-324
4.1155882 0.38494107 0.076435685 18 0.0012941691 -0.016229307 1.6370131 4.9406565e-324
4.1009536 0.83740938 0.068325758 19 -2.7367894e-05 -0.00780054 1.6270156 4.9406565e-324
4.069777 1.4004929 0.0083183004 20 0.00020566968 -0.037205204 1.6198909 4.9406565e-324
4.0613527 1.7955555 0.031078983 21 0.0018966722 0.025383683 1.6371295 4.9406565e-324
4.0297022 2.5867212 0.038167216 22 0.00099130103 -0.017390998 1.6260809 4.9406565e-324
3.9683452 3.258795 0.0026062478 23 -0.00094425317 -0.071340784 1.617467 4.9406565e-324
3.9829617 3.7089181 -0.0065090097 24 0.020781389 -0.04972994 2.5029874 4.9406565e-324
3.4067543 3.8017704 0.061518215 25 0.022017032 -0.027727917 -2.766156 4.9406565e-324
2.9256918 3.6599133 0.066614807 26 -0.0013485625 -0.016765587 -3.0852282 4.9406565e-324
-0.14401281 2.3895211 -0.010813047 27 0.0005771768 0.0048227897 -1.8601938 4.9406565e-324
-0.87469536 -0.29409653 -0.0029760813 28 -0.0045547867 -0.02736273 -0.049166523 4.9406565e-324
0.53694284 -0.19312818 0.012915426 29 0.0098752454 -0.015196517 0.11633216 4.9406565e-324
1.4577309 -0.013882512 -0.0084698815 30 0.0067796167 -0.048189115 0.14921895 4.9406565e-324
1.7856019 0.0045649996 0.00086436485 31 0.013446291 -0.05070683 -0.08077462 4.9406565e-324
2.349932 -0.030777866 0.016023383 32 0.015446398 -0.04205307 -0.10068713 4.9406565e-324
2.9567461 -0.10149398 0.023908196 33 0.0078609884 -0.028434617 -0.046748575 4.9406565e-324
3.4968071 0.0071761576 0.026653355 34 0.0031799763 -0.04255259 0.51629317 4.9406565e-324
3.764173 0.088037349 0.025130223 35 -0.013533178 -0.014641312 1.0768095 4.9406565e-324
3.8780696 0.44960767 0.022829561 36 0.0083810873 -0.010855371 1.9186456 4.9406565e-324
3.7247646 0.89641672 0.02996847 37 0.0036495673 -0.0030465776 1.9170418 4.9406565e-324
3.4781067 1.4375756 0.015515376 38 0.0062011927 0.017930366 1.9156518 4.9406565e-324
3.420764 2.3601892 0.020855874 39 0.00053227274 -0.033427026 1.4723402 4.9406565e-324
3.4806077 3.1947083 -0.0046098763 40 -0.00032639303 -0.01359746 1.5030257 4.9406565e-324
3.5868177 3.3491223 0.021756586 41 0.029894046 -0.0022869636 2.8502622 4.9406565e-324
3.589653 3.4289491 0.040232193 42 0.010173129 -0.0080388105 -3.1335237 4.9406565e-324
3.187573 3.422658 0.020650279 43 0.0020734894 -0.023446688 -3.1343656 4.9406565e-324
2.7879145 3.4083934 0.019346375 44 0.015883133 -0.01716923 -3.1225703 4.9406565e-324
2.2346106 3.3858283 0.015106602 45 -0.0064619184 -0.018506285 -3.127948 4.9406565e-324
1.7051041 3.3778601 -0.0097319074 46 -0.0079540033 -0.013510082 -3.1225283 4.9406565e-324
0.99979603 3.3563416 -0.026602088 47 -0.0047231042 -0.014162584 -3.1184909 4.9406565e-324
0.25006136 3.336941 -0.011719783 48 0.006628585 -0.015738396 -3.0972302 4.9406565e-324
-0.55712378 3.3326199 -0.015196319 49 0.034648184 -0.028579341 -2.4906902 4.9406565e-324
-0.67237461 3.2999792 -0.044249233 50 7.4830882e-06 -0.020412937 -1.5682414 4.9406565e-324
-0.67555845 2.7493248 -0.0045919893 51 8.3131257e-05 0.0019098074 -1.560064 4.9406565e-324
-0.66072839 2.2484303 -0.01532528 52 -2.1871361e-05 -0.028195294 -1.5632743 4.9406565e-324
-0.64196652 1.1331539 -0.038746294 53 0.00039122472 0.022139886 -1.5530881 4.9406565e-324
-0.62591988 0.43604529 -0.02490624 54 0.00040454499 -0.0009264393 -1.5522832 4.9406565e-324
-0.82791424 0.22171374 -0.048520662 55 -0.0078255925 -0.041694064 -0.40662697 4.9406565e-324
-0.70357865 0.16140459 -0.037259463 56 0.011328082 -0.014240834 -0.060326789 4.9406565e-324
-0.29919243 0.16004214 -0.039500415 57 0.014771559 -0.024766801 -0.050895721 4.9406565e-324
0.10331436 0.12383429 -0.046402406 58 -0.0012663921 0.0024022157 -0.035901297 4.9406565e-324
0.54050255 0.084000923 -0.025757654 59 -0.0070636133 -0.032470085 -0.055369534 4.9406565e-324
0.94089317 0.051212393 -0.027966181 60 -0.0035352507 -0.030315703 -0.048468649 4.9406565e-324
1.476756 0.045279048 -0.027899152 61 0.0072797695 -0.030842373 0.012976316 4.9406565e-324
1.9393132 0.057937156 -0.024256399 62 0.019754402 -0.049788926 0.027438154 4.9406565e-324
2.4500468 0.066099867 0.00047813848 63 -0.0066517601 -0.040825859 0.044554826 4.9406565e-324
3.0457752 0.1043237 -0.014878858 64 0.012908379 -0.046022423 0.028518146 4.9406565e-324
3.4369352 0.13784978 0.0075305882 65 0.017944748 -0.048049301 0.029499378 4.9406565e-324
3.6766648 0.095606416 -0.041136004 66 -0.016291175 -0.019731643 0.34346637 4.9406565e-324
3.8896332 0.081067093 0.020839423 67 -0.0059153773 0.018776767 1.3519827 4.9406565e-324
3.9880531 0.94269872 0.027226252 68 -0.0002081047 -0.018095765 1.4378711 4.9406565e-324
4.0256352 1.7010843 -0.012648983 69 -0.00012052063 -0.045102321 1.5402398 4.9406565e-324
4.0434785 2.56182 0.0073720114 70 9.421297e-05 -0.048866391 1.5058975 4.9406565e-324
4.0933061 2.9779332 -0.023047391 71 0.00013414242 0.0094868401 1.50712 4.9406565e-324
4.2329588 2.9282122 -0.072830647 72 0.028709922 -0.024024658 2.3847334 4.9406565e-324
3.7452846 3.0523348 -0.011241902 73 -0.0032590446 -0.034251627 -3.0843363 4.9406565e-324
2.4421844 2.9510682 -0.025316976 74 0.009621961 -0.02840957 -3.1255755 4.9406565e-324
1.0989125 2.8870068 -0.011467589 75 -0.006464574 -0.018386466 3.1407886 4.9406565e-324
0.29854143 2.8889871 0.0013112655 76 -0.016581837 0.001749185 3.1337039 4.9406565e-324
0.12239889 2.9398563 -0.01984011 77 0.022673976 -0.021246234 -2.6642547 4.9406565e-324
-0.047917634 2.9905379 -0.015461343 78 0.0054023843 -0.05020925 -1.7515012 4.9406565e-324
-0.18841025 2.0642509 -0.024221642 79 -0.00017265424 0.0063846824 -1.6841121 4.9406565e-324
-0.45735705 -0.26619303 -0.059096508 80 -0.0018247067 0.009732781 -1.7640123 4.9406565e-324
-0.60817373 -1.2563816 -0.028897896 81 -0.0013380147 -0.0037132511 -1.7515699 4.9406565e-324
-0.80006212 -1.9661764 -0.044625945 82 -0.00033256749 -0.038413465 -1.4643898 4.9406565e-324
-0.53815728 -2.2262866 -0.030598851 83 0.0020076116 -0.028477255 -0.0034308389 4.9406565e-324
0.54499662 -2.2461312 -0.023040902 84 0.0022623311 -0.033757035 -0.035522711 4.9406565e-324
1.5643669 -2.2257919 -0.094335251 85 0.0035215716 -0.040247858 -0.0086175185 4.9406565e-324
2.5402162 -2.2044234 -0.02790747 86 0.019940013 -0.028052794 -0.05014319 4.9406565e-324
3.4079697 -2.2043982 0.097726479 87 0.050000466 -0.040839497 -0.069422208 4.9406565e-324
3.4516857 -2.0217166 0.048981246 88 0.046006173 0.048231132 -0.88450253 4.9406565e-324
3.572542 -1.9244461 0.0012344087 89 -0.006658081 0.06978526 -1.9278134 4.9406565e-324
3.3587503 -2.0509295 -0.044922862 90 0.0085648624 -0.027712023 -2.7512977 4.9406565e-324
2.6138449 -2.3637745 -0.016449768 91 -0.028000575 -0.057328355 -3.141031 4.9406565e-324
1.9310883 -2.3514042 -0.0078727975 92 -0.019892555 -0.020561986 3.1061945 4.9406565e-324
3.524478 -2.2743907 -0.0098009724 93 0.053583145 -0.032778967 3.0043607 4.9406565e-324
3.1637623 -2.2018924 0.005297909 94 0.024962824 -0.019386532 2.9892533 4.9406565e-324
2.2570467 -2.1527824 -0.016185457 95 -0.01719854 -0.03693448 2.9635043 4.9406565e-324
0.11216377 -1.5827876 -0.053693332 96 0.013838663 -0.076892734 -2.2963355 4.9406565e-324
0.16861068 -1.8848977 0.0065768743 97 -0.00029071755 -0.052799813 1.5847051 4.9406565e-324
0.16754548 -0.55293882 -0.037906211 98 -5.7012723e-05 0.019577373 1.5638189 4.9406565e-324
0.075888455 0.21583092 -0.044408176 99 -4.5269924e-05 0.031222425 1.5649152 4.9406565e-324
0.092959695 0.51510841 -0.056790479 100 0.012373613 0.0027602348 2.060555 4.9406565e-324
-0.22987613 1.1153477 -0.047135379 101 0.019108882 0.0048330803 2.6240129 4.9406565e-324
-1.1544425 1.3795941 -0.015774949 102 0.0035733818 -0.043206651 -3.0821443 4.9406565e-324
-2.9631231 1.1909913 -0.058465168 103 -0.0098892562 -0.041462716 -3.0779502 4.9406565e-324
-4.0750432 1.1815175 -0.016880194 104 0.053730138 -0.028355971 -3.1345856 4.9406565e-324
-6.5405493 1.247606 0.0093315626 105 0.0018132656 -0.018481564 3.068296 4.9406565e-324
-8.0809717 1.2957278 0.024836672 106 0.020461557 -0.047503132 3.0261471 4.9406565e-324
-10.228371 1.4789813 0.0091942828 107 0.075270735 0.015084439 3.081259 4.9406565e-324
-10.550767 1.513568 0.010442174 108 0.033845771 -0.061447203 3.0528507 4.9406565e-324
-11.062449 1.519616 0.02039491 109 0.036742866 -0.042673852 -3.1030936 4.9406565e-324
-11.5827 1.4968637 0.030621286 110 0.066226989 -0.031361479 -3.0985763 4.9406565e-324
-11.89852 1.4903013 0.017928796 111 0.033552695 -0.018233927 -3.1132994 4.9406565e-324
-11.972526 1.5888178 0.047052626 112 0.051165212 -0.048979625 -2.5585291 4.9406565e-324
-12.330221 1.2961261 0.04519457 113 0.0035671899 0.021191819 -1.7989976 4.9406565e-324
-12.608633 -0.43389797 -0.082670934 114 0.0012991128 -0.019282719 -1.6314965 4.9406565e-324
-12.714793 -1.9231462 -0.16080029 115 0.00082872604 0.018727073 -1.6317569 4.9406565e-324
-12.7374 -1.472486 -0.10441362 116 0.0012496521 0.034806918 -1.6589417 4.9406565e-324
-12.743093 -1.0237687 -0.1216231 117 0.0039784545 0.017294293 -1.6725849 4.9406565e-324
-12.722843 -0.69008636 -0.087897524 118 0.0055831284 0.031869486 -1.702366 4.9406565e-324
-12.661386 -0.37067261 -0.090302855 119 -7.7140656e-05 0.041127957 -1.709065 4.9406565e-324
-12.655596 0.11599782 -0.056540366 120 0.00080889283 0.050867822 -1.7160065 4.9406565e-324
-12.551016 0.73860842 -0.031644508 121 0.0034735554 0.02883965 -1.7554959 4.9406565e-324
-12.445327 1.3362108 0.061446495 122 0.0055787507 0.043355089 -1.7796097 4.9406565e-324
-12.398021 1.8566871 0.096804731 123 0.0046388111 0.027667703 -1.7977983 4.9406565e-324
-12.46014 1.6446967 0.080596991 124 0.016582489 0.088408247 -1.091719 4.9406565e-324
-12.005033 1.2183453 0.04822677 125 0.067483559 -0.044998255 0.06760747 4.9406565e-324
-11.315731 1.2508277 0.028562261 126 0.064165793 -0.025573326 0.00060924178 4.9406565e-324
-10.776333 1.2666255 0.022764463 127 0.052898154 -0.0049443538 0.014321437 4.9406565e-324
-10.002202 1.2782004 0.065161094 128 0.065266781 -0.020959241 0.0045618508 4.9406565e-324
-9.6024475 1.2642541 0.014196181 129 0.051070422 -0.02716955 0.025158135 4.9406565e-324
-9.0408487 1.2595619 0.048442617 130 0.055072751 -0.029687321 0.012792997 4.9406565e-324
-8.2866964 1.253154 0.06641043 131 0.026265716 -0.024966473 0.02731193 4.9406565e-324
-7.5664325 1.283746 0.078752942 132 0.055699084 -0.029533336 0.0029565408 4.9406565e-324
-6.9619045 1.2769498 0.065424599 133 0.045190543 -0.018535206 0.023790823 4.9406565e-324
-6.3067226 1.2828554 0.082672723 134 0.030941291 -0.045740366 0.014368327 4.9406565e-324
-5.5819836 1.2915648 0.049430467 135 0.040509686 -0.023046819 -0.0028795348 4.9406565e-324
-4.7760963 1.3024505 0.067663848 136 0.041816957 -0.02585935 -0.014689313 4.9406565e-324
-5.4613519 1.2829685 0.020849051 137 0.027188793 -0.0037556705 -0.053596869 4.9406565e-324
-6.2553515 1.2483672 0.029667929 138 0.049864762 -0.040041178 -0.082366884 4.9406565e-324
-5.1897292 1.3100338 0.020738536 139 0.0054821563 -0.073186107 0.87983817 4.9406565e-324
-4.9682956 1.6028457 -0.00818827 140 4.6952646e-06 -0.061833441 1.5713755 4.9406565e-324
-5.1204967 2.8692641 0.20493799 141 0.0010719437 0.028960576 1.5919585 4.9406565e-324
-5.078239 3.5581734 0.21111517 142 0.0013309846 0.02505436 1.5937735 4.9406565e-324
-5.1002522 3.916049 0.17357221 143 -2.6754306e-05 0.014753793 1.570078 4.9406565e-324
-5.0978031 4.4835 0.1150877 144 0.0029247513 -0.041136574 1.7294295 4.9406565e-324
-5.1083694 4.7515812 0.11767554 145 0.010385152 -0.068013653 2.1790197 4.9406565e-324
-5.5139523 5.1122527 0.1877024 146 0.026149113 -0.013216817 2.3671138 4.9406565e-324
-5.8467278 5.3943162 0.16714285 147 0.014387849 -0.048507761 2.3717048 4.9406565e-324
-6.233254 5.7199326 0.22152638 148 0.043153062 -0.02724158 3.1158283 4.9406565e-324
-6.771287 5.6467352 0.23413979 149 0.036249861 -0.0049999142 -3.0530617 4.9406565e-324
-7.0504947 5.6412134 0.2471875 150 0.063783385 0.018924313 3.1138175 4.9406565e-324
-7.4226909 5.6891851 0.22787105 151 0.052439645 -0.0082430113 3.1364214 4.9406565e-324
-7.6171675 5.5856099 0.29841551 152 0.067831412 0.0044522816 3.0681586 4.9406565e-324
-8.0277147 5.6943092 0.31463242 153 0.085061118 0.01627758 3.1203096 4.9406565e-324
-8.2691231 5.7031603 0.3285664 154 0.10136733 -0.055451415 3.1278815 4.9406565e-324
-8.5339174 5.668467 0.24305856 155 0.048159633 -0.027810764 -2.5490792 4.9406565e-324
-8.8656006 5.472476 0.20138247 156 0.058377031 -0.077046141 -2.4374423 4.9406565e-324
-9.0399141 5.2578464 0.073388681 157 0.00013126551 -0.036998015 -2.2721119 4.9406565e-324
-9.2351503 5.0995131 0.13937509 158 0.0086640548 -0.067799546 -1.7548196 4.9406565e-324
-9.2242985 4.6601033 0.20533787 159 -0.0025646805 -0.0048368899 -1.7424139 4.9406565e-324
-9.2365026 4.2385931 0.17271979 160 0.001230649 0.0056092553 -1.6384635 4.9406565e-324
-9.3659086 3.9318175 0.13366659 161 -0.0031325407 -0.02366334 -1.4049461 4.9406565e-324
-9.3700151 3.3960495 0.089759991 162 0.016357673 0.01495566 -0.82603037 4.9406565e-324
-8.8309221 3.0458651 0.083692655 163 0.0091163013 -0.00088244822 -0.55673361 4.9406565e-324
-8.3904848 2.8822072 0.070333786 164 0.056588516 -0.025375519 -0.047150683 4.9406565e-324
-7.7697163 2.8477068 0.10001007 165 0.049051888 -0.019215744 -0.04343098 4.9406565e-324
-5.7340193 3.33096 0.10534515 166 0.013027575 -0.069498599 0.95195347 4.9406565e-324
-5.7109294 5.6357808 0.22968438 167 0.070413053 0.0011931963 2.9022155 4.9406565e-324
-6.293767 5.7297139 0.21371427 168 0.0404425 0.017999822 3.0437825 4.9406565e-324
-6.7739782 5.7328377 0.23115286 169 0.042377073 -0.0020377494 3.0785825 4.9406565e-324
-7.0905342 5.7543993 0.1941258 170 0.029005263 0.0017927098 3.1108682 4.9406565e-324
-7.4150271 5.7812262 0.15179873 171 0.015203111 -0.012193946 3.1033363 4.9406565e-324
-7.6310234 5.6814966 0.22118071 172 0.041342083 -0.010911221 3.0717413 4.9406565e-324
-8.1601915 5.7056866 0.2198647 173 0.011421602 0.003548027 -2.7556148 4.9406565e-324
-8.5562716 5.6156864 0.21890767 174 0.02590818 -0.017445831 -2.4743657 4.9406565e-324
-9.0925026 5.1969967 0.12853046 175 -0.0020579603 0.01580135 -2.1040432 4.9406565e-324
-9.3078108 4.7839346 0.19725986 176 0.0019816172 -0.02521803 -1.6736947 4.9406565e-324
-9.2880478 4.3434649 0.13403977 177 0.0007669474 0.0090780426 -1.6779805 4.9406565e-324
-9.3731117 3.7174134 0.15333416 178 0.00067330204 0.002121605 -1.0128635 4.9406565e-324
-9.1391993 3.3149362 0.12082434 179 0.0055082142 0.026035678 -0.87261075 4.9406565e-324
-8.8985977 3.0440228 0.078936867 180 0.039039113 0.012284772 -0.58339089 4.9406565e-324
-8.3583527 2.8234544 0.077768229 181 0.04483388 -0.040096793 -0.13670591 4.9406565e-324
-7.9400344 2.8070745 0.12147974 182 0.058893885 0.0019844272 -0.1124225 4.9406565e-324
-7.4118881 2.7297094 0.059504781 183 0.038241901 -0.0041186251 -0.10925858 4.9406565e-324
-6.8016381 2.6570196 0.041066449 184 0.0043568714 -0.021307386 0.0047930009 4.9406565e-324
-5.8825092 2.7948015 0.076720141 185 0.024547614 0.051580355 -0.8920989 4.9406565e-324
-5.5255389 2.2744477 0.030728398 186 0.0013253874 0.0063711535 -1.1348037 4.9406565e-324
-5.4955788 1.9739631 0.045436684 187 0.010242985 0.012346903 -1.0594863 4.9406565e-324
-4.4494295 1.2345568 -0.030967014 188 0.0027696015 -0.014647726 -0.0037671085 4.9406565e-324
-3.7508428 1.2710351 -0.0541295 189 -0.017720025 0.050681621 0.00048200166 4.9406565e-324
-4.3482394 1.2142427 -0.097786166 190 -0.02090735 0.0048423875 -0.0021956419 4.9406565e-324
-4.7558556 1.260934 0.0021443365 191 -0.027835267 -0.041591659 -0.034392845 4.9406565e-324
-4.368094 1.245562 -0.0059798332 192 0.0079184463 -0.042314928 0.60548049 4.9406565e-324
-3.9994621 2.111686 -0.034421884 193 0.0008738903 -0.034537159 1.4699959 4.9406565e-324
-4.0176287 2.9645374 0.070284583 194 0.00031375219 -0.043052062 1.6103989 4.9406565e-324
-4.1040158 3.7014418 0.17385572 195 -0.00080810819 -0.092386059 1.5808274 4.9406565e-324
-4.1261921 4.0491347 0.17247622 196 -0.0027510501 -0.090242393 1.6068203 4.9406565e-324
-4.1311698 4.52001 0.16602801 197 0.0012537595 -0.082730591 1.5484451 4.9406565e-324
-4.2126403 4.3639846 0.16008757 198 -0.010314312 -0.080873191 1.9021313 4.9406565e-324
-4.1190896 4.6946793 0.13369511 199 0.036728032 -0.0082802223 2.2542307 4.9406565e-324
-4.0464973 4.791832 0.16812307 200 0.076394044 -0.013108121 2.7759285 4.9406565e-324
-4.0448475 5.1003699 0.28688154 201 0.045851566 0.10962167 -2.6981621 4.9406565e-324
-4.1489277 5.1101513 0.16583607 202 0.0063972231 0.029156875 -1.998144 4.9406565e-324
-4.0698128 5.14048 0.16333793 203 0.0065777423 -0.064074554 -1.6431434 4.9406565e-324
-4.1351056 4.6072111 0.19145976 204 -0.0010794598 0.056383878 -1.6293858 4.9406565e-324
-4.1511087 4.211514 0.12525308 205 -0.0017676343 0.039061267 -1.6654947 4.9406565e-324
-4.098177 3.9020941 0.10308423 206 -0.00099500432 0.060909074 -1.6333923 4.9406565e-324
-4.1529102 3.2293153 0.043639995 207 -0.0010073715 0.034002468 -1.6591182 4.9406565e-324
-4.2132444 2.6625707 -0.0050992621 208 -0.00044093901 -0.022493353 -1.7076479 4.9406565e-324
-4.3360362 1.674349 0.031612042 209 -0.00039229242 0.015117715 -1.3777974 4.9406565e-324
-4.0702171 1.4761066 0.01343137 210 0.034851506 -0.0014759878 -0.44764391 4.9406565e-324
-3.6747096 1.258131 -0.03661095 211 0.00066176249 0.026741933 -0.4627341 4.9406565e-324
-4.0637021 0.87455577 -0.068442695 212 0.0005315796 -0.015369503 0.89206201 4.9406565e-324
-3.716099 1.0168495 -0.03772689 213 0.01859661 -0.010504993 -0.11011676 4.9406565e-324
-2.4699085 1.1019253 0.0104072 214 0.026224224 -0.018514873 0.17221799 4.9406565e-324
-1.4488879 1.1357734 -0.031564053 215 0.0021213831 -0.030990032 -0.13796785 4.9406565e-324
-0.072887115 0.84869409 -0.020300373 216 0.038747281 -0.00029226375 -0.5563755 4.9406565e-324
0.80641955 0.1702279 -0.034234025 217 0.017281886 -0.036703564 -0.41666099 4.9406565e-324
2.1275682 0.18595177 -0.035500031 218 -0.00047336251 -0.027547546 0.11589725 4.9406565e-324
2.9790523 0.31184757 0.0095552336 219 -0.00053652789 -0.042715121 0.1152794 4.9406565e-324
3.8011501 0.48956776 0.056604031 220 -0.018273722 -0.043026809 1.0008948 4.9406565e-324
4.1758914 1.3354399 -0.010064265 221 -0.0019390322 -0.0041413503 1.3848071 4.9406565e-324
4.149147 2.198848 -0.0065086274 222 -0.0011407131 -0.0076910802 2.2193165 4.9406565e-324
3.4835968 2.9304309 0.018259598 223 0.013807427 -0.019450527 2.5828323 4.9406565e-324
2.1440461 3.2969174 0.0053562149 224 -0.0029630207 -0.02679277 -2.915828 4.9406565e-324
0.87162691 2.8422077 -0.035726868 225 0.033195689 -0.034992039 -2.7943406 4.9406565e-324
0.36101815 2.6889312 -0.02945134 226 0.018973317 0.024807295 -2.6273406 4.9406565e-324
-0.047956746 2.1914246 -0.032527521 227 -0.0044254544 0.008118337 -2.0293012 4.9406565e-324
-0.43383494 0.91533428 -0.070364475 228 0.0044015716 -0.024201104 -1.2872423 4.9406565e-324
0.03105435 0.19252005 -0.050033741 229 0.030669615 -0.039813098 -0.29865307 4.9406565e-324
1.8842539 0.1611758 -0.02597384 230 0.01443479 -0.025859393 0.035374586 4.9406565e-324
2.9578271 0.22131476 0.0053199148 231 0.014182966 -0.041458439 0.066674702 4.9406565e-324
3.6465108 0.40421972 -0.001959475 232 -0.0073241671 -0.034608118 1.1557912 4.9406565e-324
3.6512067 1.3584001 0.0040173652 233 0.00044247883 0.001936699 1.7750338 4.9406565e-324
3.0570126 2.6900563 -0.010170153 234 0.03357631 -0.045448963 2.78227 4.9406565e-324
2.2963262 2.6778066 -0.018842421 235 -0.0078293355 -0.046786044 -2.9556398 4.9406565e-324
1.0031911 2.4326904 -0.042862985 236 -0.0031581118 -0.0088305557 -2.7573667 4.9406565e-324
0.31074029 2.164597 -0.026342604 237 -0.0098349312 -0.006857974 -2.6830964 4.9406565e-324
-1.0967225 1.4174589 -0.0746084 238 0.0086456183 -0.021865083 -2.7588575 4.9406565e-324
-2.4367011 1.1974878 -0.068435475 239 0.0069912616 -0.0053545055 -3.1315269 4.9406565e-324
-3.5902867 1.3131126 -0.10975524 240 0.0096048415 -0.030703584 2.3097024 4.9406565e-324
-3.8107395 1.7468836 -0.044687729 241 -0.0054670284 -0.09392231 1.9500839 4.9406565e-324
-4.1708827 2.5945544 -0.015755638 242 0.0015762018 -0.02099428 1.9673787 4.9406565e-324
-4.2522388 2.7538545 0.0349438 243 0.0029042391 -0.11213282 1.5082437 4.9406565e-324
-4.0378466 3.4713707 0.087555774 244 0.0081166178 -0.067740947 1.2695934 4.9406565e-324
-3.8862705 3.9254925 0.1840599 245 0.0021509139 -0.055975735 1.2439462 4.9406565e-324
-3.7806365 4.1428127 0.18735836 246 0.0017498725 -0.043150261 1.656822 4.9406565e-324
-3.9026668 4.6478167 0.16491888 247 -0.03427349 -0.28808376 1.8352019 4.9406565e-324
-3.9306891 5.0122914 0.17411275 248 -0.018104844 -0.23188609 1.7029746 4.9406565e-324
-3.8059661 4.6638994 0.11766463 249 0.0032393683 -0.2356158 1.548889 4.9406565e-324
-3.8114307 4.2691169 0.064848296 250 0.0020220715 -0.17941137 1.5556574 4.9406565e-324
-3.7969754 3.6947627 0.09916997 251 -5.8056015e-05 -0.042490266 1.5309544 4.9406565e-324
-3.7601349 3.1356885 0.08106558 252 -0.00016992752 -0.02934429 1.5228955 4.9406565e-324
-3.8788283 2.8040082 0.096860282 253 -0.0024468002 -0.041160513 1.4790301 4.9406565e-324
-3.8826368 1.9780566 -0.090077899 254 -0.0012489171 -0.023538947 1.4522823 4.9406565e-324
-3.9589672 1.1116722 -0.13839461 255 -0.0013232514 -0.00046393072 1.4248805 4.9406565e-324
-3.9102869 1.3492206 -0.074654751 256 0.041486468 -0.035371333 0.24415851 4.9406565e-324
-3.2919853 1.3716266 -0.067962095 257 0.030701036 -0.039698035 -0.27928749 4.9406565e-324
-1.7756798 0.91771978 -0.089594193 258 0.01119138 -0.027678082 -0.36363947 4.9406565e-324
-0.80220622 0.56862426 -0.086140998 259 -0.014026113 0.0090129515 -0.35890067 4.9406565e-324
