# .PCD v0.7 - Point Cloud Data file format
VERSION 0.7
FIELDS x y z intensity
SIZE 4 4 4 4
TYPE F F F F
COUNT 1 1 1 1
WIDTH 79
HEIGHT 1
VIEWPOINT 0 0 0 1 0 0 0
POINTS 79
DATA ascii
0.27349669 -0.50770444 -0.19694744 188.66667
0.36341107 -0.51757628 -0.19722699 189.66667
0.43465358 -0.54335725 -0.19859935 187
0.54722542 -0.5468486 -0.19728085 189.125
0.08903905 -0.46627417 -0.19751443 189
0.2997416 -0.49622241 -0.1988966 188
0.36420909 -0.49282369 -0.19616166 189
0.46722117 -0.47373557 -0.1953167 184.625
0.54485983 -0.43692943 -0.19218349 184.60001
-0.059616469 -0.31599495 -0.1909178 187.5
-0.50447208 -0.21257056 -0.12344977 153
0.039425172 -0.22753555 -0.11473776 180.5
0.16014969 -0.20614427 -0.18390854 153
-0.22885723 -0.14742343 -0.13776813 186.52942
-0.18935345 -0.14285323 -0.18352748 137.5
0.035643462 -0.17439376 -0.11740962 178
0.14472309 -0.16718552 -0.14035363 137.46153
0.20769143 -0.15572201 -0.16185133 126.77778
0.72320682 0.094921328 -0.18812411 149.8
0.66055715 0.18076542 -0.19076982 153
0.74453706 0.14689019 -0.18412313 154.45454
0.84356123 0.1529593 -0.18255731 162
0.95956874 0.16212453 -0.19623098 167.5
0.54755557 0.27202186 -0.1974154 150.60001
0.65619153 0.24511604 -0.19126897 154.61111
0.74026239 0.24159126 -0.17998135 160.92308
0.84834576 0.25091392 -0.18394779 168.875
0.93989301 0.23430222 -0.19351365 168.25
0.47937214 0.33991617 -0.19819607 158.83333
0.5590145 0.35258809 -0.19627365 163.08333
0.64384001 0.34502324 -0.18607241 167.94444
0.75946414 0.34350652 -0.18610914 171.84616
0.84975582 0.35504076 -0.19119295 169.25
0.92072201 0.34809959 -0.19595361 168.60001
0.17926762 0.49172002 -0.19635794 185.33333
0.25154477 0.49340025 -0.19698574 185.5
0.36483046 0.49366 -0.19827715 186
0.44776559 0.4759022 -0.19164979 186.66667
0.5358296 0.44365573 -0.19225712 178.92308
0.65521282 0.44741055 -0.19031705 176.33333
0.72264946 0.43497211 -0.18829505 176.75
0.85706592 0.46736115 -0.1907248 163.5
0.15243796 0.55411434 -0.19467616 187.75
0.24255894 0.5241192 -0.195218 187
0.34565121 0.51587647 -0.19328766 187
0.45856839 0.5493325 -0.19544497 189.33333
0.5372017 0.56388813 -0.19048907 177
0.62202156 0.52775985 -0.19338973 179.5
0.75101197 0.56673962 -0.19435632 167.66667
0.80737495 0.5427525 -0.19260326 165
0.12542532 0.61630923 -0.19220465 186.5
0.21561286 0.61995631 -0.19317009 189.33333
0.35472161 0.62476307 -0.19508471 190.375
0.46661973 0.61884803 -0.19238907 192.5
0.57011229 0.6825099 -0.19384794 166.66667
0.65854502 0.64832431 -0.19420889 165.66667
0.75214034 0.62490565 -0.19792257 163
0.082495674 0.72186506 -0.19707932 178.66667
0.18379569 0.73796511 -0.19496845 182
0.28391346 0.76511312 -0.19748934 186
0.38607898 0.7471813 -0.19592993 189.5
0.4844701 0.74342769 -0.19758104 190
0.5923546 0.76741678 -0.19229996 155.39999
0.68547738 0.70945174 -0.19846064 156.5
0.031612393 0.84099716 -0.19511296 176.5
0.15230541 0.8520292 -0.19447984 176.5
0.26944801 0.85792577 -0.19165707 177
0.38426903 0.85410851 -0.19090924 177.5
0.49696743 0.84631211 -0.19503458 184
-0.016569642 0.95418447 -0.19375518 168
0.11763982 0.97306514 -0.19012436 171
0.26533318 0.9018271 -0.19731855 171
0.38683879 0.92076403 -0.19918163 178
-0.32261431 -0.16337551 -0.07579843 144
-0.28559998 -0.15541865 -0.085057452 167
0.046266276 -0.15605018 -0.044378571 136.07143
0.10871768 -0.17077091 -0.081998967 130
-0.0034754078 -0.22179958 0.028426912 157
0.021728016 -0.15626022 0.012419178 133.5
