# .PCD v0.7 - Point Cloud Data file format
VERSION 0.7
FIELDS x y z intensity
SIZE 4 4 4 4
TYPE F F F F
COUNT 1 1 1 1
WIDTH 115
HEIGHT 1
VIEWPOINT 0 0 0 1 0 0 0
POINTS 115
DATA ascii
-0.85130244 -2.6745603 -0.28940886 4
-0.80307788 -1.8795011 -0.25887245 3
-0.61655587 -3.2453337 -0.30409825 4
-0.49018186 -2.8257797 -0.2793383 4
-0.4088341 -2.5616429 -0.26918375 4
-0.63340747 -2.1983788 -0.26398891 4
-0.52727866 -1.7625605 -0.24683602 3
-0.50501317 -1.4048088 -0.23357365 2.5
-0.5289107 -0.96546692 -0.23119044 1
-0.49143982 -0.69727218 -0.23093474 0
-0.19164266 -3.4077039 -0.29463023 5
-0.12029345 -2.9692225 -0.27204436 4
-0.052895412 -2.5691068 -0.25843865 4
-0.30937606 -2.2369862 -0.25508574 4
-0.23166004 -1.7822006 -0.23834172 3.25
-0.15931357 -1.3743075 -0.23276821 2.1666667
-0.20220986 -1.0126758 -0.23436919 0.71428573
-0.19171482 -0.75695866 -0.22950834 0
-0.025396794 1.4808664 -0.17926686 3.5
-0.13036807 1.8571478 -0.17430812 4.3333335
-0.23535639 2.2379217 -0.17307174 5
-0.022780119 2.9535828 -0.16665734 5
0.27588063 -2.86201 -0.26846021 4
0.28542033 -2.5898001 -0.25821662 4
0.01642452 -2.1532583 -0.24206062 4
0.2151089 -1.8122231 -0.20316797 3.75
0.2243198 -1.3613181 -0.22950436 2.2857144
0.23179923 -1.0249138 -0.22874594 1
0.20250517 -0.72691882 -0.22189981 0
0.30591127 0.69822073 -0.19941974 0.2857143
0.22307517 0.97113138 -0.19652247 1.5384616
0.25441676 1.3828405 -0.17654757 3.6666667
0.22840054 1.827437 -0.16814372 4.4000001
0.22861423 2.2307746 -0.16883454 5
0.14491378 2.5672956 -0.16712828 5
0.37178701 2.813071 -0.16370574 5
0.76770496 -4.1989002 -0.25629827 5
0.74683464 -3.7983818 -0.29804263 5
0.69952142 -3.3176186 -0.27955756 5
0.63692093 -2.6723392 -0.25752351 4
0.60098094 -1.7590591 -0.158228 4.5
0.61330456 -1.4098746 -0.21368185 3
0.61000001 -1.0114709 -0.21976861 1.7142857
0.55235088 -0.65338385 -0.20501162 0.66666669
0.68478292 0.24036126 -0.19190465 0.2857143
0.6022895 0.62454247 -0.19765429 0.71428573
0.57877541 0.97487688 -0.19391748 2.25
0.63707972 1.3783784 -0.17583738 3.8
0.60805964 1.783551 -0.16412516 4.6666665
0.65770626 2.1828909 -0.15808187 5
0.70483613 2.5572383 -0.15421946 5
0.75097835 2.8982942 -0.16050974 6
0.78949243 3.2050858 -0.15699627 6
0.86343509 -1.3643448 -0.12730356 4.5
0.82545167 -1.1833129 -0.21444134 3
1.0069672 0.2641111 -0.19438079 1.8571428
0.98590207 0.58056474 -0.19603595 2.1818182
0.97161788 1.000602 -0.17928244 3.5
1.0250872 1.381478 -0.16947354 4
1.0127646 1.7289243 -0.16208294 5
0.96763951 2.2175701 -0.15358487 5
1.0574286 2.559231 -0.14869434 6
0.84383452 3.6279526 -0.15599835 6
1.0817006 5.28967 -0.22660665 6
0.82348984 -1.4054763 0.042308271 7.5
1.3617111 0.27969399 -0.18749763 3.5
1.3596385 0.58856213 -0.18178643 3.6666667
1.3816408 0.9956547 -0.17438215 4
1.368522 1.4052353 -0.16724508 5
1.3558401 1.8733754 -0.1590745 5
1.2684237 2.1413584 -0.15476479 5
1.4813716 2.6599293 -0.14463261 6
1.2050656 3.1209877 -0.14066546 6
1.32383 3.5661623 -0.13968123 6
1.7640517 0.39804268 -0.17440714 4
1.7966455 0.60157901 -0.17191215 4.5
1.8130676 0.96958315 -0.16939232 5
1.7013491 1.31758 -0.16862501 5
1.7196312 1.7390965 -0.16105905 5
1.8010993 2.1228063 -0.15363266 5
1.7679681 2.4065399 -0.14668348 6
1.660015 3.0948341 -0.13629121 6
1.7624371 5.1961918 -0.14747001 6
2.1872981 0.64028633 -0.17110181 5
2.2215176 1.0822637 -0.15956119 5
2.2264209 1.4293801 -0.14962502 5.5
2.1642847 1.7834445 -0.15802178 5.5
2.0835528 2.2160411 -0.14951859 6
2.2709756 2.4606104 -0.14600432 6
2.0954325 2.9769127 -0.13725424 6
2.304631 3.3429031 -0.12843376 6
2.3289421 1.5608966 0.042257875 7.5
2.4379401 0.88820827 -0.13430068 6
2.5225766 1.2643293 -0.13609728 6
2.7743044 2.3965476 -0.14637227 6
2.7888546 3.1369386 -0.13505375 6
2.4838676 5.118526 -0.075051516 7
3.046231 0.94874394 -0.16471739 6
3.1731498 5.0083952 0.16163193 8
3.4883549 0.89989758 -0.16504389 6
3.3091147 2.2635694 -0.15774366 6
3.5940554 4.2155881 -0.056324691 7
3.2680416 5.0367541 -0.073281698 7
3.5968752 4.2905755 0.10616877 8
3.6301084 1.3967178 -0.16090204 6
3.6838024 3.3290591 -0.07552328 6.5
3.628129 4.2117009 -0.16582432 6
3.6757472 3.4045103 0.16710815 8
3.6047046 4.3492522 0.21672343 8
4.3500438 2.3460214 -0.10324951 6.5
4.5492711 1.2192429 -0.074019909 7
4.5911407 1.8290521 -0.047530159 7
4.5526547 1.2468199 0.14121535 8
4.5925674 1.8700134 0.1950154 8.5
4.6504664 2.5806465 0.16616279 8
