# .PCD v0.7 - Point Cloud Data file format
VERSION 0.7
FIELDS x y z intensity
SIZE 4 4 4 4
TYPE F F F F
COUNT 1 1 1 1
WIDTH 456
HEIGHT 1
VIEWPOINT 0 0 0 1 0 0 0
POINTS 456
DATA ascii
-3.7714391 11.129486 0.67856324 9
-3.8392754 11.129778 1.5357461 11.5
-3.4554751 11.147116 0.7100293 9.333333
-3.3757441 11.151312 1.5257176 11.5
-2.832082 11.182353 0.4741331 9
-3.0440328 11.190147 0.76630378 9.666667
-3.0717309 11.223095 0.90746307 10
-3.0624588 11.169591 1.5111212 11.5
-2.8495262 8.3052864 2.0597277 14
-2.9106798 9.428854 2.0105984 14
-2.9827912 10.613225 1.9611416 13
-2.4208322 3.5001905 0.14517187 9
-2.5038447 6.4945135 0.18653886 9
-2.5462184 3.4739308 0.48835173 10.833333
-2.6886921 3.6598415 0.5531438 11.333333
-2.5439649 6.5109868 0.43083936 9.5
-2.6138685 3.6968138 0.89656794 13.5
-2.5672913 3.4688129 1.1740173 15
-2.472542 6.5126462 1.175632 12.5
-2.7877562 11.222397 0.92392933 10
-2.5794616 11.243186 1.0648313 10.5
-2.4800017 6.1824579 1.7532461 15
-2.4570937 6.5398426 1.6482793 14
-2.6388149 11.235299 1.6083846 12
-2.5224583 11.295415 1.4063131 11
-2.4268115 6.734592 1.8735498 15
-2.5640595 7.5884142 2.0871987 15
-2.5559425 7.7475867 2.0820906 15
-2.661463 8.3994942 2.0608566 14
-2.465409 8.4767694 2.0604057 14
-2.5381947 9.3964291 2.0061455 14
-2.5708113 10.605534 1.9711314 13
-2.2286289 3.5192921 0.1839411 9
-2.1388135 3.7817616 0.25748104 9
-2.1610639 4.1584363 0.26273125 9
-2.1862776 4.5912428 0.26923701 9
-2.3388491 6.5192566 0.20018195 9
-2.2190738 3.5268357 0.49028623 11.166667
-2.1581514 3.8162298 0.40909261 10.5
-2.1636143 4.1341248 0.49815202 10.666667
-2.1749942 4.5610309 0.50144708 10.333333
-2.3592501 6.5573087 0.47391367 10
-2.1944122 3.5603611 0.84310365 13.6
-2.1258492 3.8201737 0.83162022 13
-2.1378872 4.213479 0.87892854 12.8
-2.1594167 4.6111002 0.90175146 12.666667
-2.2372751 5.0260835 0.88624024 12.333333
-2.2927353 5.3817954 0.90988839 12
-2.3877611 6.5513883 0.79874027 11
-2.3167539 3.5029674 1.1654153 15
-2.2035396 3.8128078 1.2175001 15
-2.1823485 4.2729454 1.2437263 14.666667
-2.2107105 4.6392908 1.316128 14.666667
-2.2161274 5.0686817 1.3446091 14.5
-2.1371889 5.4070086 1.2123287 13.5
-2.331825 6.6151481 1.188512 12.5
-2.2114205 6.899859 1.3751806 13
-2.1388125 5.1524348 1.5002589 15
-2.3207846 5.2950168 1.5445069 15
-2.3768325 6.5771031 1.4972337 14
-2.26156 7.5694008 2.0793731 15
-2.0963838 7.7835093 2.0606022 15
-2.1063247 8.5296755 2.0298045 14
-2.1856899 9.4143248 2.0114136 14
-2.2918456 10.558082 1.9721445 13
-1.6909771 -1.3858467 0.30096278 10.444445
-1.7477733 -0.99918431 0.30052614 11
-1.7730243 -0.61814046 0.30120811 11.333333
-1.7894317 -0.37266713 0.32508436 12
-1.6496637 0.69712788 0.28497961 12
-1.6883144 1.0245464 0.30092525 12
-1.746894 1.4227439 0.28390989 11.2
-1.8076254 1.7551672 0.26960802 10.714286
-1.8291749 2.1939518 0.2726523 10.5
-1.6761276 -1.3838042 0.56775743 13.875
-1.7487094 -0.9881168 0.52907908 14
-1.7756245 -0.59777504 0.4836072 14
-1.7930143 -0.3719832 0.48517925 14.5
-1.6659737 0.70001268 0.44933429 14.5
-1.7096996 1.0399628 0.4586435 14
-1.7429686 1.4309155 0.51498252 14
-1.8082813 1.8247149 0.52005869 13.384615
-1.8287686 2.1940188 0.52889597 13
-1.7508248 7.8224049 2.0402122 15
-1.8913244 8.5131645 2.0225749 14
-1.4158095 -1.3603579 0.28653067 10.571428
-1.2103676 -1.1760417 0.35929477 13
-1.3316749 0.62462205 0.30518362 13.25
-1.4351847 -1.376384 0.53856337 14
-1.3464415 0.63367587 0.39992356 15
-1.3783209 12.64681 1.5924941 11
-1.2212076 8.6468401 2.0071046 14
-1.4424825 12.113235 1.7822721 12
-1.0269014 -1.2011141 0.33647719 12.375
-0.97397035 -1.1788679 0.2865212 11.714286
-1.0584846 -1.202904 0.47959843 14.666667
-1.0200645 -1.1745274 0.48630211 15
-0.94166702 12.676236 0.86576271 10
-0.96625423 12.679841 1.5646303 11
-0.85209852 7.4761419 2.0643554 15
-0.9130376 8.2311153 2.0363123 15
-0.92062539 8.7932234 2.018846 14
-1.0035594 12.007719 1.7856184 12
-1.1450371 12.609557 1.7149218 12
-0.42492589 0.77668303 -0.24047488 0
-0.4679282 0.81966096 -0.24834129 0
-0.79925406 -1.1967112 0.27766579 12
-0.61082709 -1.1657596 0.32148436 13.222222
-0.70165664 -1.177309 0.43750879 15
-0.63874263 12.59451 0.87865794 10
-0.5724178 11.481771 1.4641664 11
-0.52200216 8.2773018 2.0342591 15
-0.45730332 8.5202751 2.013519 14
-0.50404751 8.9064722 2.0191226 14
-0.58312416 10.157506 1.9764252 13
-0.57163209 11.913072 1.79098 12
-0.1087245 -1.2513334 -0.18151765 2
-0.031416286 -1.0507711 -0.17669079 1.3333334
-0.006953619 -0.72057009 -0.18330151 0
-0.14827408 0.75580174 -0.20355089 0.75
-0.1514038 0.8293277 -0.18007125 1.8888888
-0.22809136 -1.1359687 0.31319743 13.714286
-0.16741452 11.962125 0.39107621 9
-0.044156242 11.996286 0.88162851 10
-0.17042552 11.978575 1.5273528 11.25
-0.36168745 8.0050879 2.0335314 15
-0.1289627 8.3483105 2.04057 15
-0.15679795 8.5396996 2.0188465 14
-0.18698363 9.012208 2.0250602 14
-0.21519127 10.068017 1.980661 13
-0.15460755 12.015996 1.8209212 12
0.24299519 -1.2760347 -0.13986304 3.2857144
0.21801339 -0.98572922 -0.17371702 1.3846154
0.25165054 -0.68127227 -0.17631616 0.25
0.21712312 0.70820415 -0.22077154 0
0.22266589 0.87128872 -0.13765588 3.1875
0.30022928 -1.3011091 0.10488293 9
0.24887396 -1.1025355 0.30156153 13.5
0.25366867 0.92788726 0.040639244 8.8571424
0.35453847 9.6566477 0.37049758 9
0.11362199 11.987232 0.37882707 9
0.19043526 9.7182636 0.78431863 10
0.32902649 7.2319131 1.2367655 13
0.34898403 9.6804628 1.0572349 11
0.20743212 12.008951 1.1514056 11
0.21523963 9.7030392 1.5442717 12
0.27312323 7.7709222 2.0527201 15
0.16957051 8.4151697 2.0488482 15
0.14570284 8.5530558 2.0246115 14
0.14575043 10.005589 1.9909451 13
0.57907867 -1.256265 -0.10134708 4.2857141
0.58085096 -0.96334875 -0.16745599 2.2222223
0.63263834 -0.62723613 -0.17391032 1.2222222
0.6464802 -0.2406119 -0.17814989 0.33333334
0.58449799 0.34772623 -0.20255314 0
0.59911555 0.59734231 -0.19736101 1
0.56313533 0.86434519 -0.15133092 3.2727273
0.62552345 -1.2737695 0.15807998 9.75
0.59091437 -1.0752577 0.31704926 13.5
0.64529431 0.95016772 0.13197209 10.6875
0.50584888 6.6129165 0.43759203 10
0.55194879 6.4334383 0.93605411 12
0.57393301 6.510613 1.6213249 15
0.56323779 6.9575038 1.6221478 14
0.95908171 -1.2602129 -0.076551497 5.2222223
1.0269274 -1.0015779 -0.15501678 3.5
0.96010655 -0.62816918 -0.16915834 2.4285715
0.95546776 -0.3257474 -0.17060548 2
0.8161872 0.71251518 -0.19501834 2.5
0.91012144 0.89990973 -0.12867084 4.5
1.0229416 -1.2345285 0.15361886 9.333333
0.99462354 -1.0389354 0.29982293 12.363636
1.1405637 0.78874117 0.30680197 13.5
0.94592172 0.91880447 0.20944624 11.769231
1.0221553 -1.054823 0.44786638 15
1.1009891 0.88210732 0.39561886 15
1.338284 -1.2817008 -0.093141556 5.3333335
1.3679479 -1.0291381 -0.13901955 4.25
1.3425658 -0.61264271 -0.1506592 3.6666667
1.5915037 -1.2112089 0.42883787 13
1.2750778 -1.0335022 0.29880813 11.666667
1.245488 0.79675597 0.29466864 13
1.3950355 0.81967318 0.28526464 12.5
1.5048213 0.81066096 0.4721694 15
1.4181663 0.83008325 0.4196586 14.5
1.7233982 -1.5415224 -0.049983099 6
1.8177319 -1.0089406 -0.12604132 5
1.696838 -0.71008414 -0.13764207 5
1.7024528 -1.3790525 0.22831358 9.6000004
1.9190773 0.96945029 0.24449608 10.5
1.8635474 0.96099734 0.50028026 14
2.2106845 -1.8369336 -0.090236194 6
2.1840086 -1.4233695 -0.10809194 5
2.3748927 -1.0712487 -0.11322231 5
2.2244363 0.99493551 0.25096953 10.142858
2.1912179 1.0071056 0.56136149 13.8
2.6040201 -2.5167465 -0.078886382 6
2.6020277 -1.9836726 -0.088555112 6
2.5658803 -1.1728513 -0.10765342 6
2.5898123 1.0146917 0.20205195 9.2857141
2.5683324 1.0401791 0.59771281 13.142858
2.6634948 1.0678959 0.79554486 15
3.0626507 -1.4372473 -0.091769405 6
2.9908283 1.0486373 0.18880571 8.8000002
2.99844 1.0763128 0.5599106 12.285714
2.9861171 1.0701796 0.87889636 14.75
3.2149899 -2.5281634 -0.063909113 6
3.4385841 1.0619922 0.20230585 9
3.4782362 1.1096787 0.5530417 12
3.3868275 1.094646 0.9154954 14.5
3.7916989 1.1055899 0.201287 8.5
3.9808207 0.52358365 0.66966468 12
3.8436041 1.139342 0.59777248 11.25
3.9977922 0.51226252 1.0035993 14
3.7616558 1.1100643 0.95233172 14
4.262794 1.094897 0.16810186 8.1999998
4.0785818 0.53384525 0.50656688 11
4.2943382 1.1380224 0.60762089 11.2
4.0188842 0.35167587 0.87403053 13
4.0384059 0.50391746 0.9265452 13.5
4.2677279 1.1644909 1.0106263 14
4.463223 -2.8444874 -0.029424913 6
4.4105191 -2.1546156 -0.048543077 6
4.7635674 0.78532314 -0.014070081 7
4.7496963 0.84878892 -0.069394156 7
4.7822313 -0.39551264 0.32389843 9
4.7694182 -0.091211423 0.17747228 7.75
4.7428074 0.1763574 0.28557813 8.5
4.7422686 0.54863471 0.23332414 8.5
4.5372024 1.0459861 0.12055778 8
4.788846 -0.36861387 0.58256358 10
4.763556 0.13117291 0.66718298 11
4.7204614 0.56769651 0.47081676 9.8000002
4.5829072 1.0059947 0.57016295 10.8
4.7891002 -0.097314477 1.179585 14
4.7519894 0.2039687 0.97727472 12.8
4.7158375 0.68711364 1.0520086 13.333333
4.6833224 1.092396 0.91864479 13
4.7436047 0.25454566 1.3313683 15
4.6880836 1.0759474 1.2786945 14.333333
4.9575152 -2.1018829 0.033159375 7
4.9229202 0.53994977 -0.027844178 7
4.9148092 0.99988937 -0.075006276 7
4.9298115 -2.2226524 0.1106489 7
4.9895406 -1.6924645 0.19726056 8
4.8916397 -1.3070639 0.14219044 7.5
4.8288984 -0.55909628 0.14416173 7.75
4.8238845 -0.17300133 0.32329395 9
4.9940362 0.68838018 0.17706664 8.166667
4.9505982 0.96309286 0.1514349 8.166667
4.9418983 -1.7447566 0.79993564 11
4.8547359 -1.4737208 0.80920905 11
4.8601732 -0.97049707 0.67847604 10.666667
4.8315558 -0.64732981 0.64632022 11
4.8054466 -0.35317537 0.63191921 11
4.8242216 0.37078401 0.66620839 11
4.9319625 -2.0649352 1.045022 12
4.8896232 -1.7652515 1.0733837 12.5
4.920547 -1.5010829 0.9182328 12
4.9014792 -1.0193046 0.85251594 12
4.8500309 -0.54608035 1.0275031 13
4.8222356 -0.084456921 1.098737 13.5
4.8134904 0.2965568 1.1031617 13
4.9718266 -1.2389914 1.4953873 15
4.9024382 -0.96105862 1.3858131 14.666667
4.8485394 -0.6060136 1.3965112 14.75
4.8292451 -0.18617733 1.3686614 15
5.9602404 -1.9307878 -0.035001524 6.5
5.9469929 -1.9726346 0.10567754 7
5.7108769 -1.3242164 0.14366561 8
5.9660382 -0.64371169 0.33964586 8.5
5.9705324 -0.39229068 0.13328387 8
5.9282165 -5.0478873 0.62550116 9
5.9791236 -1.5426143 0.53135669 9
5.9162679 -0.55901259 0.65688825 10
5.9236264 -0.29423797 0.757128 11
5.9582257 -0.57886314 0.88911802 11
6.1032457 -5.0979447 0.074393585 7
6.3016014 -4.6015925 0.056419313 6.6666665
6.2672019 -0.4825691 -0.12247834 6.6666665
6.0663719 -5.1108217 0.31452584 8
6.2819457 -4.5899386 0.375882 7.6666665
6.1736741 -2.8361852 0.25134084 8
6.1517444 -2.6960707 0.26749349 8
6.0994854 -1.7686446 0.19993505 8
6.1216526 -0.93845791 0.24388351 8
6.0410724 -0.46042719 0.39818287 9
6.1560116 -0.16692236 0.2456758 8.5
6.3138099 -4.4660354 0.73059118 9.5
6.3785725 -2.3280416 0.53950894 9
6.1499324 -1.878813 0.50604767 9
6.262085 -1.5112385 0.56992084 9
6.0657291 -0.86617678 0.44042328 9
6.0200286 -0.3086049 0.49277753 9
6.2201948 1.3165786 0.45909798 9
6.2253118 -4.6595616 1.2857696 11
6.2805305 1.3469993 0.89897579 11
6.1902661 -4.9240847 1.5194757 12
6.3315711 -4.5642729 1.6101873 12.4
6.2062955 1.3715425 1.3807698 13.5
6.2839022 -4.6484776 1.8743209 13.666667
6.2627563 -4.5986571 2.3095293 14.75
6.4999638 -4.5037704 -0.025461866 6
6.4887094 -2.6144152 0.0060340459 7
6.4425836 -0.91817331 -0.13034257 6
6.5033278 -0.034035686 -0.21886291 6
6.4563031 0.037918154 -0.17199701 6
6.4780002 0.13223587 0.063904144 7
6.478323 -4.3648367 0.76699084 9.5
6.4316978 -2.278373 0.48098758 9
6.4906955 -1.3014624 0.591524 9
6.5752926 -1.0962249 0.6194973 10
6.766149 1.4061741 1.169489 12
6.4834681 -4.3304567 1.6511018 12.5
6.4902697 -4.3202314 1.782648 13
6.6010971 1.4408175 1.8594967 15
6.7752318 -4.7248211 2.2703748 14
7.1759644 -4.4944649 -0.021480355 7
6.9400496 -1.6265122 -0.098711908 6
7.0841231 -1.204687 0.039618678 7
6.8794169 -1.0756689 -0.092213109 7
7.1397767 -4.5636578 0.38878587 8
7.0718288 -2.5190485 0.29165941 8
7.0124636 -2.2465091 0.32572746 8
7.108808 -1.1795614 0.25294793 8
7.1440678 -2.4551477 0.80802679 10
7.0591316 -2.3359823 0.60582381 9.333333
7.0365424 -1.9086708 0.74373013 10
7.041111 -1.3655204 0.61803341 9
6.833127 -0.042968955 0.54719919 9
7.1882024 1.3463112 0.46848774 9
6.8775749 -0.17817672 0.84190804 10
7.1962991 1.2042835 0.98547572 11
7.0129027 1.3015369 0.96167922 11
7.1815071 1.3456057 1.3412448 12.666667
7.1947961 1.2117937 1.952424 15
7.1851578 1.3913994 1.7995512 14
7.066752 -4.5767474 2.3229392 14
7.2106843 0.5466429 -0.192241 6
7.3008409 0.10124981 0.15372825 8
7.3360329 -2.1226327 0.65680188 9.5
7.2063203 1.0300039 0.89477795 11
7.2317233 1.088594 1.3041022 12.333333
7.2686963 -4.3905249 1.7993994 12.5
7.2391753 1.1420829 1.6787678 14
7.2631493 0.85215813 2.2089937 15
7.5826106 1.0899183 2.0179293 14
7.8830886 -1.6605319 -0.13754262 6
7.8336439 -0.32905626 0.09103024 7
7.9252815 -0.092663139 2.351238 15
7.8194442 -4.7498798 2.7658932 15
7.8356223 -4.5263977 2.7497706 15
7.8379021 -4.1856189 2.7200463 15
7.8948588 -2.9438343 2.6520927 15
8.2911549 -5.7081876 -0.034358997 6.5
8.3387966 -5.4298711 -0.0035916879 6.5
8.2555618 -5.0595765 -0.010256288 6.3333335
8.3003941 -4.738627 -0.083040632 6.5
8.2653484 -5.6469355 0.51072824 8
8.356842 -5.5074129 0.25481346 7
8.2684956 -4.8685489 0.32947376 7.6666665
8.3122511 -4.721694 0.33766192 8
8.2790394 -4.9297042 0.80887181 9
8.3284197 -4.6830282 0.88772428 9
8.1698895 -5.1977878 1.0007743 10
8.314476 -4.9054089 1.0737001 10
8.3431025 -4.6767015 1.0927408 10
8.1640415 -5.168817 1.5579246 11
8.1812124 -4.9273558 1.553538 11
8.3385963 -4.7803621 2.0135746 12.5
8.3736238 -4.5680876 2.0898387 13
8.1509809 -4.93891 2.3388572 13.5
8.2068214 -4.5150476 2.3064864 14
8.1891222 -4.1088896 2.2919166 14
8.4237118 -4.3969955 0.1845669 7
8.4207001 -4.6225028 0.73486823 9
8.4046698 -5.3438501 2.0400457 12.5
8.7606401 -4.0464516 2.3082576 13
8.4110012 -0.43911105 2.3797147 15
8.6299019 -2.9778817 2.6094055 15
9.035141 -1.6919545 -0.18382515 6
9.0875273 -1.8702346 0.13095234 7
9.163723 -1.3053609 0.25450006 8
8.9987383 -0.22596186 0.077505834 7
8.8695707 -0.10630921 0.8780151 10
9.2948818 -1.8006897 -0.065062858 7
9.2267838 -1.8599677 0.2933521 8
9.8406744 0.29170537 0.13257132 7.3333335
9.6377048 0.30707321 0.97437984 10
9.7240753 -0.47412419 2.317286 14
9.6299381 -2.5732622 2.7655876 15
9.5957909 -0.41239646 2.5267773 14
10.299926 -5.6783705 0.12839513 7
10.032764 -5.4291272 2.2646813 12
10.245051 -4.9390244 2.2960441 12
10.562264 0.56757414 0.08937417 7
11.169033 -4.1506462 3.2957354 14
11.453732 -5.8957191 0.15804312 7
11.20935 -5.8164525 2.3607452 12
11.383599 -0.29628614 2.0614936 12
11.231767 -4.4738116 3.3247099 14
11.329099 -2.7715631 3.2197654 15
11.52441 -0.90820462 3.1954165 15
11.633818 -5.7441354 0.16857126 7
11.611456 -5.6214256 0.45528236 8
12.080499 -4.965322 3.2808762 14
12.240003 -2.9163976 3.2166657 14
12.772302 -3.4242024 2.8031704 13
12.617524 -4.8282118 3.3257771 14
12.64776 -4.4895291 3.3235226 14
12.654055 -4.229372 3.2485588 14
12.530315 -3.8823977 3.2337763 14
12.551501 -3.4636104 3.2982996 14
12.548323 -1.1193793 3.1601477 14
12.398093 1.1726787 3.0329211 14
12.406244 1.4756782 3.0684564 14
12.861606 -4.4416151 2.802063 13
12.872824 -4.1078386 2.8093607 13
12.835058 -3.7662163 2.8082764 13
12.968275 -4.2669415 3.0908566 13
12.851546 -3.904851 3.0754983 13
13.378175 -5.0585222 -0.077504516 6.5
13.465197 -4.8532491 0.31859329 7
13.449864 -4.5967507 1.9276495 11
14.499133 1.3273547 0.51071841 8
15.193128 0.83465159 -0.34203103 6
15.177798 1.1773087 0.019611299 7
15.198865 1.0808737 0.57505739 8
15.156924 1.8231381 1.5045615 10
15.217191 0.92988956 0.94156253 9
15.314156 -0.69378632 1.5343196 10
15.291623 -0.042590771 1.520184 10
15.260832 0.32257199 1.5464351 10
15.23772 0.75309181 1.486438 10
15.363573 -0.78927547 1.8659168 10
15.313585 -0.58018154 1.949779 11
15.323969 -0.078537069 1.9236437 11
15.199245 1.0574075 1.6043831 10
15.384435 1.440649 1.6507642 10
15.316197 -0.40970838 2.2731636 11
15.984287 -1.8729547 2.2139988 11
15.837673 1.3991375 2.1216795 11
15.762049 -2.5570655 2.7077641 12
16.559727 -2.6947775 2.2129877 11
17.076145 -3.5708511 2.2017581 10
17.334558 1.0886825 2.7015834 11
17.298759 1.4843969 2.7447603 12
17.550901 -3.6654124 2.9589999 12
17.463978 -2.0201378 2.9910254 12
17.440231 -1.619444 3.0025494 12
17.496841 -0.83873713 2.9565263 12
17.449228 -0.081361532 3.0417268 12
17.21801 1.4245566 3.2000277 12
17.664028 -4.9506345 2.9538414 11
18.079105 -2.6245408 2.0020931 10
18.044357 -2.1923883 2.0316238 10
