# .PCD v0.7 - Point Cloud Data file format
VERSION 0.7
FIELDS x y z intensity
SIZE 4 4 4 4
TYPE F F F F
COUNT 1 1 1 1
WIDTH 142
HEIGHT 1
VIEWPOINT 0 0 0 1 0 0 0
POINTS 142
DATA ascii
0.016819084 -0.92702979 -0.17565186 135
0.25807959 -0.95259345 -0.17361973 137
0.16892716 -0.82539886 -0.17349926 140
0.27178478 -0.83871263 -0.17129287 142.5
0.37441662 -0.8251394 -0.16933222 147
0.4749082 -0.819359 -0.16547135 147
0.57529068 -0.80672967 -0.16457784 148
-0.031242756 -0.76264107 -0.17801204 140.5
0.068614185 -0.79366702 -0.17383832 136.5
0.16599004 -0.74159366 -0.17372 146.25
0.26397541 -0.72883427 -0.17433256 156
0.37561324 -0.72664469 -0.17305797 160.5
0.46838424 -0.75087714 -0.17265448 156.8
0.5664013 -0.76294154 -0.172639 154
0.66023314 -0.73867011 -0.17358449 154.33333
0.027487474 -0.65363711 -0.1768007 140
0.11927145 -0.66737628 -0.17787054 148.5
0.25026533 -0.64400798 -0.17470884 162.42857
0.35715765 -0.63076091 -0.17285323 169.75
0.45861056 -0.66388184 -0.17609586 166.25
0.5423981 -0.6656878 -0.17403342 159.8
0.62570596 -0.64722049 -0.17690554 162.5
0.71737975 -0.64307034 -0.17448187 161
0.081295505 -0.55329686 -0.1747461 155.8
0.1514148 -0.54897141 -0.17636463 165.36363
0.2383655 -0.55685556 -0.17746393 172
0.34502253 -0.55920362 -0.17653289 176.26666
0.44463518 -0.55759615 -0.17249495 176.5
0.54517752 -0.54628414 -0.17175457 172.69231
0.67309391 -0.55981934 -0.17526968 169.2
0.76503575 -0.56000328 -0.17765768 165
0.82810074 -0.51155114 -0.17092113 167.5
0.14811462 -0.4826276 -0.17925963 175.875
0.25491405 -0.49654129 -0.18170714 181
0.35181987 -0.4940697 -0.179859 180.71428
0.46787483 -0.46683535 -0.17537539 178.25
0.5517258 -0.43750826 -0.17031689 172.46153
0.64955437 -0.45837304 -0.17050253 171.77777
0.73444682 -0.44905815 -0.16902488 169.2
0.84524465 -0.46248534 -0.17820318 166.14285
0.28698409 -0.37865576 -0.18865599 170.5
0.36691567 -0.36168396 -0.18606508 163.17647
0.44996658 -0.34723863 -0.18189266 157
0.55193084 -0.35442334 -0.18086013 156.8
0.64044154 -0.34727791 -0.16660514 164
0.7497893 -0.36165598 -0.16594549 166.89999
0.83415407 -0.34098202 -0.1656829 167
0.92215699 -0.36072567 -0.17395684 165
0.46744746 -0.29214069 -0.18485974 147
0.55663788 -0.25576362 -0.18367863 147.63333
0.65145302 -0.25177124 -0.17785615 151.58064
0.74226481 -0.25383055 -0.16074643 158.11765
0.83993739 -0.25371587 -0.16387342 165.33333
0.92862594 -0.29963091 -0.17591722 163
0.58909363 -0.17966869 -0.19201535 154.125
0.63966572 -0.16420272 -0.1847267 150.96001
0.71925414 -0.18896483 -0.17033109 149.75
0.18671872 0.15427078 -0.12897427 130.75
0.20693383 0.15963912 -0.11823516 126.8
-0.11661053 0.2829175 -0.19483295 185
-0.053463127 0.23884915 -0.12814021 174
0.090562418 0.26406795 -0.15832382 177
0.15178043 0.22882301 -0.14991403 162.5
0.20642105 0.20876747 -0.20203453 157
0.53842199 0.2712222 -0.19852751 174.23077
-0.14834312 0.38840896 -0.1736248 173
-0.026858794 0.38671947 -0.20508949 184
0.049351647 0.31283557 -0.20176293 179
0.15576819 0.35259897 -0.20683418 178
0.23620243 0.3690429 -0.20780444 176.42857
0.34080955 0.36995807 -0.20559171 175.22223
0.44516844 0.34334394 -0.2021392 175.17857
0.53958464 0.32394758 -0.19733565 177.25
0.61027318 0.37063485 -0.19314246 181.85715
-0.21931431 0.44702622 -0.20639145 180.5
0.060152009 0.45186111 -0.20654403 185.5
0.15161425 0.47682855 -0.20028841 185.2
0.25241458 0.48510146 -0.20524012 184.16667
0.33959132 0.45328453 -0.20484725 180.8
0.44117647 0.47227064 -0.1974529 183.5
0.54833525 0.43415499 -0.19071911 183.42105
0.65456504 0.44759816 -0.18658139 187.66667
0.033508759 0.54629892 -0.21160573 189
0.14535224 0.57172436 -0.21174102 188.71428
0.24565138 0.53076917 -0.20037606 186.25
0.34200299 0.53281689 -0.19832201 186.33333
0.44556352 0.5524627 -0.19776641 187.28572
0.55019295 0.54396701 -0.19441521 188.42857
0.63123095 0.52604312 -0.19123116 190.14285
0.73571205 0.57611072 -0.20041597 192.75
0.094345294 0.60228288 -0.21178706 190
0.17999069 0.60444403 -0.20821789 191
0.25966653 0.61404097 -0.20796408 190
0.3369433 0.61602616 -0.20359911 189.60001
0.43031418 0.62994039 -0.20118575 189.60001
0.56364262 0.66170013 -0.20585714 190.85715
0.67253035 0.63761669 -0.2026424 192
0.75725782 0.61561191 -0.19270247 189
-0.13443315 0.79557079 -0.17298682 95
-0.003022711 0.79127192 -0.18417965 127
0.23635653 0.74254674 -0.21886346 187
0.32955664 0.75751537 -0.21704029 187
0.42353004 0.73940581 -0.21432959 195
0.52695769 0.72307783 -0.20424035 193
0.61896658 0.75906545 -0.20742315 188
0.70168179 0.70180976 -0.20471579 190
-0.5076918 0.84584576 -0.19156724 70.75
-0.48397082 0.81809157 -0.16813189 92.666664
-0.30939162 0.82440203 -0.15738863 95
-0.29012606 0.80968928 -0.18844642 91.5
-0.14027795 0.80082798 -0.16260955 97.25
-0.013704664 0.79967779 -0.15733585 103
0.091469623 0.83408451 -0.16390608 136.66667
0.1770976 0.86401725 -0.15808351 169.5
0.23051055 0.85397452 -0.17672312 167.25
0.31107956 0.84784627 -0.17357041 158.55556
0.41633976 0.8492589 -0.1682387 165
0.51990443 0.83291847 -0.16575038 161.8
-0.23652077 0.94404489 -0.14152144 119
0.058946934 0.16443127 -0.019796813 131.64285
0.14979175 0.16363817 -0.065923557 127.32353
-0.032952681 0.29054394 -0.10371278 163
0.039989278 0.2286212 -0.059133638 143
-0.020611847 0.79233229 -0.11529893 113
-0.16477892 0.82229483 -0.11759959 116
-0.052302834 0.83551884 -0.070991322 99.727272
0.074456364 0.84430081 -0.11050524 136.33333
0.1840549 0.86434358 -0.1128162 159
0.28108737 0.88611937 -0.071311772 197.72728
0.40215808 0.86955762 -0.11188731 170
0.50628638 0.84615082 -0.10745877 151
-0.24799466 0.95446432 -0.12144576 41
0.029617136 0.94881612 -0.072468936 90.199997
0.16044161 0.92696041 -0.070911355 114.4
0.40377241 0.90533823 -0.11156081 203
-0.0036759807 0.19475055 0.012135732 137
0.023746395 0.17947417 0.0049488274 141.875
-0.034539472 0.21350169 0.0056537716 142
-0.085767359 0.88003743 -0.022187216 77
0.25531277 0.86919284 0.031005595 148.90909
0.0088996645 0.96138388 -0.0077605136 62
0.13895723 0.92649078 0.01206231 77.714287
