# .PCD v0.7 - Point Cloud Data file format
VERSION 0.7
FIELDS x y z intensity
SIZE 4 4 4 4
TYPE F F F F
COUNT 1 1 1 1
WIDTH 73
HEIGHT 1
VIEWPOINT 0 0 0 1 0 0 0
POINTS 73
DATA ascii
-2.7884905 11.234867 1.4001876 11
-2.1238132 3.5965865 0.17581095 9
-2.1821871 3.5363929 0.38901815 10
-2.1183138 4.1010427 0.39751941 10.5
-2.1516469 3.5464005 0.68831915 12
-2.0657365 3.7292519 0.82618153 13.5
-2.1692319 3.5713825 1.0743252 15
-1.8561811 1.9382255 0.32464674 11
-1.8288976 2.1619992 0.2412736 10
-1.8488617 2.3541224 0.30249625 11
-1.8543255 1.9028583 0.40167716 12
-1.8171014 2.2958512 0.43065548 12
-1.8103343 2.4038804 0.62764502 14
-1.8081918 2.4333653 0.54906362 13
-1.6263266 -1.4724123 0.20218675 9
-1.7797538 0.96165991 0.26307666 11
-1.6725911 1.1600962 0.24575077 11
-1.7474427 1.5092098 0.30406895 11.5
-1.7057612 1.3730656 0.44852561 13
-1.2153516 -1.1779953 0.34805441 12
-1.3160044 0.63436478 0.28026158 13
-1.2116295 -1.1651683 0.53206968 15
-1.3371285 0.68313718 0.38123691 15
-1.174165 -1.1865145 0.22478193 10
-1.1271994 -1.1981878 0.24183999 11
-1.1415637 -1.2115582 0.46956545 14
-0.91724575 -1.1845896 0.27760959 12
-0.67417353 -1.166077 0.23956853 11
-0.27823755 0.80529231 -0.22420835 0
0.024960458 -0.90963054 -0.18038569 1
0.12888639 -0.78306109 -0.18218347 0
0.15543146 0.69484556 -0.23124537 0
0.054115359 0.82337338 -0.22858402 0
0.24843709 -1.0347335 -0.17618111 2
0.29032177 -0.71563959 -0.18245167 0
0.28700706 0.73236406 -0.2256557 0
0.3645854 -1.300403 -0.13585287 3
0.38604251 0.96655732 -0.03473451 7
0.28962889 -1.3009206 0.14445731 9
0.35129747 0.96417898 0.093969516 10
0.3192609 -1.0942835 0.31422374 13.5
0.51840287 -1.2559625 -0.12650977 4
0.5103476 0.93118155 -0.068512008 5.5
0.44840416 -1.304953 0.16269386 10
0.52363884 0.94501311 0.11344828 10.5
0.49489245 -1.0587907 0.24552859 12
0.64694756 -1.2251924 -0.035422251 6
0.7444098 -0.69252163 -0.1768989 2
0.66851604 0.96383798 0.094681248 9.5
0.77266401 -1.0692877 0.38761917 15
0.63114417 0.87328798 0.29182762 15
0.60569906 9.715888 1.2558388 11
0.8373825 -0.87072295 -0.16751097 3
0.90519369 0.86566007 -0.18403341 3
0.96846604 -1.223887 0.06813027 8
0.88450205 0.9501496 0.068684757 9
0.86890233 -1.0439723 0.24602269 11.5
0.83114004 0.8806473 0.29786646 14
1.1445543 0.78747714 0.31221387 13.5
1.0356419 0.90329522 0.30685684 13.5
1.0690061 0.90842801 0.39628416 15
1.2349913 -1.007202 0.20537834 10
1.2524604 -1.0070939 0.33230767 12.666667
1.3810403 0.82437974 0.33766276 13
1.2295702 -1.0393165 0.46148822 15
1.4826363 0.81541431 0.27220008 11.5
2.073396 0.98057598 0.17870638 10
2.0587988 1.0144824 0.57660496 14
2.4204578 1.0051434 0.15044332 9
3.081269 1.0435137 0.28871116 9.5
3.2400568 1.0653613 0.4346543 11
4.7951875 -0.32860413 1.022251 13
12.754512 -3.1003625 2.8094866 13
