# .PCD v0.7 - Point Cloud Data file format
VERSION 0.7
FIELDS x y z intensity
SIZE 4 4 4 4
TYPE F F F F
COUNT 1 1 1 1
WIDTH 433
HEIGHT 1
VIEWPOINT 0 0 0 1 0 0 0
POINTS 433
DATA ascii
-4.4546981 2.7215207 0.14401688 9
-4.4030614 2.9383988 0.20477456 9
-4.5447302 2.731807 0.46126854 10.5
-4.5523477 2.7543714 0.87031472 12.5
-4.550458 2.7777293 1.2002331 14
-4.3055091 2.7377052 0.19341393 9
-4.3637395 2.9524152 0.15498127 9
-4.2484279 2.7745447 0.46774611 10.666667
-4.1797853 2.8980913 0.47398075 10.5
-4.2402372 2.7840712 0.83907086 12.8
-4.1275005 2.9112978 0.89846545 13
-4.2871685 2.798305 1.3125756 14.666667
-4.090241 2.887675 1.1698152 14
-4.0017891 2.89885 0.31906077 9.5
-3.9760776 2.9366109 0.83336276 13
-3.2389109 1.4664747 0.31459987 10
-3.2836456 1.7879549 0.22674735 9.666667
-3.551332 2.0671496 0.23407896 9.5
-3.2204294 1.5197295 0.55270773 12
-3.2702689 1.8332862 0.47455722 11.5
-3.5388033 2.1090634 0.62072033 12
-3.2667828 1.8695805 0.84827805 14.25
-2.8025186 -0.56108636 0.2179621 9
-3.1542609 1.4135313 0.18635903 9.666667
-3.140528 1.4095116 0.53510398 12.2
-3.167675 1.3680218 0.74460042 14
-2.4718697 -1.6905125 0.28992182 9.3999996
-2.569047 -1.3530967 0.27826509 9.333333
-2.6782417 -0.98795891 0.29017213 9.8571424
-2.7464416 -0.67490548 0.27435544 9.75
-2.4498372 -1.6377143 0.6495989 12.5
-2.5485299 -1.349167 0.62839788 12.75
-2.6464458 -0.98615819 0.60184085 12.75
-2.7229764 -0.6704368 0.61137855 13
-2.4348567 -1.5666113 0.87851095 15
-2.5518889 -1.3277054 0.86135954 15
-2.6827576 -0.98479265 0.85972553 15
-2.7803116 -0.59826815 0.82921988 15
-2.388581 -1.7285262 0.28605449 9.5
-2.1102099 -1.5650128 0.38815263 10.5
-2.3760936 -1.7300329 0.65895152 12.5
-2.049819 -1.5422237 0.56190264 13
-2.3923709 -1.6564291 0.87914729 15
-1.7859533 -1.4463689 0.31776279 10.285714
-1.791736 -1.4349267 0.58101457 13.5
-1.4172018 -1.3472457 0.3089917 10.909091
-1.2812041 0.65483183 0.26512694 13
-1.4670786 -1.3499593 0.57061249 14.285714
-0.98110855 -1.2276284 0.32600799 12.1
-0.81247914 -1.1818037 0.36315399 13.333333
-0.97333956 0.77410966 0.29813689 14.5
-0.83439231 0.8217721 0.29206833 15
-1.0103108 -1.231136 0.49149436 14.5
-0.47648218 -0.9315936 -0.15279879 2
-0.46504283 -0.65687424 -0.16415586 0.33333334
-0.45211843 0.62417722 -0.22590472 0.25
-0.7974624 -1.1876011 0.36044738 13
-0.59905654 -1.1259859 0.34178516 13.5
-0.66196781 0.86962128 0.26016578 14.666667
-0.29026139 -0.93316931 -0.15866394 1.25
-0.22880231 -0.67774534 -0.16745114 0.16666667
-0.35568336 0.58554167 -0.21955085 0
-0.1639735 -1.0095804 0.30026618 14
0.1958582 -0.90591848 0.29157716 14.5
0.71687335 -0.16878718 -0.17947754 0.40000001
0.73214024 0.19551198 -0.1982456 0.33333334
0.73822123 0.48813152 -0.22036676 0.60000002
0.72941309 -1.2790551 0.36756349 13
0.64532584 -1.000879 0.33454281 13.833333
0.49928448 1.1931183 0.33569914 15
0.65728176 1.2363266 0.33442593 14.666667
0.77864283 1.2641491 0.3934561 15
1.0925204 -0.51612347 -0.18276089 2.3333333
0.97648174 -0.21867114 -0.18628223 1.5
0.97017968 0.21378188 -0.20686495 1.3
0.98359478 0.60872662 -0.23618749 1.8571428
1.1104625 0.82838929 -0.24057736 3
0.80653596 -1.2067298 0.28744888 11.5
0.85472918 -1.0445454 0.3389689 13
1.0239172 1.3300915 0.2522428 12.3
0.89002067 -1.0395284 0.44928429 15
1.0030689 1.327631 0.40948635 14.5
1.3784373 -0.5632351 -0.17675677 3
1.3332486 -0.24568585 -0.20052536 2.75
1.4166611 0.15322351 -0.21093537 3
1.3821344 0.61490983 -0.23080055 3
1.4362652 0.98280507 -0.24509816 3.5999999
1.4015623 1.4139862 0.2426583 11.1
1.4133513 1.43468 0.45275354 14
1.7233064 -0.61845988 -0.16967702 4
1.7235897 -0.28589877 -0.18605356 4
1.7708354 0.22564253 -0.21317434 4
1.7718718 0.64015675 -0.22693293 4
1.6912178 1.0277076 -0.24552107 4
1.9084059 1.3569756 -0.26485926 4
1.8277038 1.5069077 0.2096134 10.142858
1.7911428 1.5351068 0.48293257 13.5
2.147979 -0.99181789 -0.15714802 4.5
2.2612665 -0.76595891 -0.17117147 4.5
2.1922624 0.6556353 -0.22977339 4
2.1788218 1.0640428 -0.2464339 4.5
2.2252676 1.2584442 -0.26100996 5
2.0644512 1.5970731 0.22526301 10
2.2734995 1.6544632 0.21947481 9.666667
2.0484545 1.6067688 0.55029905 13.75
2.20345 1.6451398 0.47961408 12.428572
2.2951841 1.6855752 0.78990132 15
2.4670348 -1.168661 -0.15464228 5
2.5245626 -0.57990396 -0.18404725 5
2.5892549 -0.17834511 -0.19703874 5
2.5922194 0.2276087 -0.21807341 5
2.5545208 0.59216934 -0.23725751 4.6666665
2.5617247 1.726351 0.21259134 9.5
2.7854748 1.183387 0.73696077 14
2.5526454 1.7371627 0.54603708 12.444445
2.5913577 1.7666368 0.86932242 15
2.9447048 -1.4333462 -0.15160158 5
2.9670389 -1.0490148 -0.16946413 5
3.0771735 0.27981365 -0.22975384 5
2.996803 0.95140463 -0.25725654 5
2.9435675 1.317529 -0.26741791 5
2.9746196 1.7934842 0.17937653 9
2.8888149 1.1514369 0.68366289 13.5
3.0408535 1.8185443 0.52619523 11.8
2.8517194 1.1428703 0.88563788 15
3.0412383 1.8436494 0.88704121 14.285714
3.3280499 -0.41741952 -0.19834621 5
3.4681842 1.6373086 -0.088683233 7
3.4945807 -6.2019434 0.58914888 8
3.5575547 1.063184 0.23675244 9
3.4790738 1.3884259 0.2419564 9
3.3545258 1.8214312 0.27382654 9
3.5764773 1.1116583 0.54269916 11.5
3.4915223 1.45103 0.47119668 10.8
3.3684621 1.7622875 0.49589112 11
3.5700967 1.1022547 0.95321774 14
3.5243952 1.4300208 0.91234142 14
3.416842 1.8408477 1.0058479 14.75
3.9950385 -0.46565524 -0.0016988982 7
3.9538469 0.82193071 -0.27392617 5
3.8785119 1.2806073 -0.26119351 5
3.9312472 -0.34527695 0.12385881 8
3.757946 0.30176744 0.23418607 8.666667
3.6959229 0.61463523 0.19639799 8.8000002
3.6320066 0.92691875 0.23556292 9
3.7932787 1.4089108 0.094505914 7.75
3.6538415 1.8423318 0.069751307 7.5
3.941972 -0.11455432 0.58821648 11.333333
3.8406122 0.26707745 0.59300005 11.4
3.7115123 0.69107145 0.62105656 11.666667
3.7299964 0.9198823 0.56922728 11.5
3.6539683 1.3109225 0.56428725 11.5
3.9460464 -0.023173604 1.0981505 14.5
3.8782368 0.18937427 1.0546352 14.333333
3.7732067 0.63680071 1.0219479 14.6
3.6642938 0.97275794 0.94911647 14.2
4.2798066 -2.1729014 -0.1456784 5
4.1816654 -1.536943 -0.14666654 5.5
4.1492105 -1.0105327 -0.17356028 5
4.0868597 -0.50393593 0.02593407 7
4.3559046 -8.1485653 0.66219944 8
4.2649002 -1.5840148 0.18357569 8
4.1919041 -0.85638189 0.16905403 7.5
4.0203056 -0.44871992 0.11317402 8
4.3026757 2.2060862 0.26041168 9
4.127264 -0.94052666 0.71619576 11.5
4.0393591 -0.65469295 0.68675387 11.5
4.3328338 -1.64779 1.0676682 13
4.2832637 -1.2889073 0.96429861 12.5
4.2534008 -0.96354616 1.0530787 13.4
4.1004047 -0.64191484 0.99238235 13.5
4.0326662 -0.097142741 1.0594 14.333333
4.3228312 2.2676647 1.1743426 14
4.4165754 0.93759251 -0.23532119 6
4.7903185 0.58952522 0.4446556 10
4.4328256 2.2533062 0.70691723 11.5
4.5668287 2.2996092 0.96778351 12.666667
4.9673295 -0.076775856 -0.23137654 6
4.9718809 0.2709856 -0.038534354 7
4.8867435 0.59283495 -0.011667368 7
5.1609445 -0.48822582 0.4067609 9
5.0090103 -0.088561542 0.231984 8.5
5.0457187 0.20582232 0.23563209 8.3999996
4.9295487 0.55655462 0.2328766 8.5
5.182034 1.041642 0.18626471 8
4.9053984 2.3583984 0.15227395 8.5
4.9643426 -0.6161676 0.52194136 10
4.8578639 0.401858 0.59063911 10.5
4.861753 0.63509655 0.53401804 10.5
5.0697331 2.4290547 0.72651702 11
5.1220441 2.4445493 0.83442616 12
4.8103194 2.3825834 1.257857 14
5.1341271 2.4677978 1.1343052 13
4.9518161 -6.2097321 2.4307067 15
5.1270351 -5.8784189 2.4030669 15
5.36589 -0.32207742 0.41881242 9
5.437655 2.4939759 0.27258319 8.5
5.4547963 -0.6760022 0.72941554 11
5.5709677 2.5614514 1.006132 12
5.5218935 -7.7637415 1.7677522 11
5.4219685 2.547102 1.3175306 13.5
5.2671452 -5.6501484 2.3905621 15
5.4278088 -5.3335443 2.3711867 15
5.529459 -5.0847368 2.3525484 15
5.7914834 -4.5952353 0.13330822 6.5
5.7831755 -4.206357 -0.0070393533 6
5.9947462 -3.9800661 -0.0132244 6
5.9841733 -3.3566084 0.087571844 7
5.9611626 0.59125555 -0.29104781 6
5.8957672 1.9562409 -0.22179288 6
5.9713802 -3.3590589 0.44543442 8.5
5.8232455 -1.4552734 0.47956836 9
5.7004504 -1.0936183 0.39656991 9
5.9053607 -0.7300778 0.41783625 9
5.6728787 1.1936302 0.37106851 9
5.9487433 1.8832146 0.014996439 7
5.9874177 2.0356362 -0.0092212735 7
5.6612401 2.5512776 0.026783602 7
5.8858671 -4.1904778 0.99611437 10
5.6975546 -0.16714698 0.553339 9.666667
5.7557597 0.1964415 0.56698036 9.75
5.8800273 2.2649462 0.52401155 10
5.8186107 2.4866128 0.51470399 9.5
5.8784795 2.3288505 0.76685274 11
5.8621449 2.5077989 0.90039343 11.5
5.8359318 2.5942845 1.3254513 13
5.9389038 -6.3843155 2.4171002 14
5.7449145 -4.8584623 2.3381941 15
5.7382712 -4.5118423 2.3147883 15
5.8953185 -4.0797548 2.2897143 15
5.9666529 -3.7254643 2.2700953 15
6.3735785 -6.1532474 0.13096468 7
6.010334 -5.1662259 0.029753959 6
6.2863207 -4.2668066 0.049051929 6.5
6.1420965 -3.8401358 0.065253645 6.3333335
6.0431442 -3.4608579 -0.013824729 6.3333335
6.3629422 -1.2238299 0.0072185108 7
6.2198505 -1.0496846 0.024196275 7
6.2097192 -0.68204117 -0.080273278 6.3333335
6.2717681 -4.5119677 0.33906704 7.3333335
6.2720871 -4.1978731 0.45105168 7.6666665
6.1353993 -3.8286524 0.35638323 7.75
6.070509 -3.361434 0.47781578 8.666667
6.315475 -1.0830071 0.31684107 8.5
6.3730969 -0.75432366 0.46003395 9
6.3895168 -4.5368671 0.79462445 9
6.2791829 -4.1295686 0.85372317 9.5
6.0948353 -3.7117364 0.83694422 9.5
6.0562034 -3.3414967 0.86420512 10
6.3162708 -4.1338573 1.2044859 10.666667
6.1623478 -3.746397 1.2511063 11.333333
6.0912385 -3.3061466 1.2105907 11.5
6.1994572 -7.6218147 1.8405935 11
6.0156603 -4.3837585 1.72034 13
6.3105621 -4.0820708 1.5762477 12
6.3213239 -4.0637274 2.0823851 14
6.171442 -3.6763411 1.9663413 14
6.1000786 -3.3064299 2.0164397 14.75
6.0865932 -6.0333395 2.3943627 14
6.1543779 -5.6927066 2.3562427 14
6.182703 -5.3365602 2.3120847 14
6.0656562 -5.0601664 2.3238375 14
5.9896517 -4.6855922 2.3311403 15
6.3634629 -4.220675 2.2141025 14
6.2140923 -3.7294476 2.2803934 15
6.0343876 -3.296062 2.2415602 15
6.5092888 -6.245995 0.17510258 7
6.6083503 -5.7250609 0.1751319 7
6.4979792 -6.7515192 0.52647716 8
6.5360045 -6.1364012 0.50770748 8
6.6389747 -5.7538381 0.54572046 8
6.5898252 -5.3821559 0.41954035 7.5
6.5094185 -4.9896293 0.52881622 8
6.4234781 -4.4784241 0.48951459 8
6.4133835 -1.611212 0.185857 7.5
6.4189048 -1.0020165 0.25148013 8
6.5186458 -0.61684746 0.22112857 8
6.7552071 2.181973 0.18493359 8
6.7042532 -5.7101097 0.81547117 9
6.6213293 -5.3916392 0.80922848 9
6.5006905 -4.9504657 0.87748235 9.25
6.3936148 -4.515017 0.93583643 10
6.4174652 -1.6131101 0.71864814 10
6.546278 -1.0501821 0.6612711 9.5
6.6462278 2.4168034 0.49789378 9
6.7441487 -5.7269659 1.2221812 10
6.6346917 -5.3853445 1.2211251 10
6.5412674 -4.9672356 1.2946534 10.666667
6.4366422 -4.5950375 1.398726 11
6.6171207 -7.6139135 1.8945632 11
6.721139 -5.610405 1.6160502 11.5
6.6363797 -5.2963877 1.5838593 11.5
6.5668325 -4.9891558 1.6746176 12
6.4441676 -4.578805 1.6292979 12
6.7651691 -5.6958032 2.2345142 13
6.6725683 -5.3512692 2.1781211 13
6.5819426 -5.0250754 2.1252944 13
6.4720807 -4.581284 2.1114807 13.666667
6.6752048 -7.311275 2.4336996 13
6.4180455 -6.2968354 2.3980541 14
6.4724312 -5.7941823 2.3471832 14
6.6676641 -5.1902223 2.322346 14
6.4877377 -4.8637657 2.3161178 14
6.6287842 -3.1768496 2.1836488 15
6.7247119 -3.0324776 2.1977794 15
6.8674159 -3.1924882 -0.022590678 6.5
6.8437271 -3.1726129 0.31942591 8
7.1413875 -7.448215 1.0769796 9
7.0327802 -6.914722 0.94676489 9
6.8950849 -6.4163914 0.82961148 9
6.8359551 -6.1709976 1.0103089 9
7.1605315 -7.3380461 1.3687851 10
7.0368114 -6.8868046 1.3327377 10
6.9515929 -6.4587903 1.3743376 10
6.8152995 -6.0763845 1.2705234 10
6.893146 -3.1307871 1.1918424 11
7.057807 -7.3687792 1.7412052 11
7.0705962 -6.8930092 1.7568103 11.5
6.957427 -6.4907126 1.7119123 11.5
6.8612208 -6.1229482 1.6723958 11.5
6.8110666 -5.909215 1.778397 12
6.9598765 -3.0968828 1.5470939 12
7.171792 -7.4035549 1.9515065 11
6.9039168 -6.8743658 2.4093032 13
6.9522724 -6.4451957 2.3615639 13
6.8677225 -6.0669723 2.2978764 13
6.8825855 -3.1582496 2.2158518 15
6.810658 -2.8838799 2.2091734 15
7.2188306 -0.22036603 0.045552131 7
7.2108417 -7.2704782 1.4778234 10
7.4360495 -2.8328526 2.151041 14
7.5710239 -3.6417453 2.2188413 14
7.509769 -3.2820959 2.1869278 14
7.5567813 -3.0885994 2.1886098 14
7.5828776 -2.6807079 2.1811659 14
7.557703 -2.118722 2.5307758 15
7.5189438 -1.2728697 2.352175 15
7.9744973 -3.3149221 -0.07315354 6.5
7.9815812 -3.2864566 0.34373063 8
7.8429441 1.5271417 0.061458059 7
7.7208405 1.4705129 0.5447157 9
7.9578476 -2.7349296 2.4982634 15
7.7824488 -3.1870856 2.7078788 15
7.723228 -2.8655765 2.6699283 15
8.3192663 -4.3204803 -0.24916628 6
8.0244026 -3.5605149 -0.25768784 6
8.2228785 -4.1906071 0.02139901 6.3333335
8.153904 -3.8027101 0.050374527 6.5
8.0411024 -3.4083855 -0.051836979 6.5
8.2760429 -0.064317062 0.018625284 7
8.1385441 0.11839254 -0.13472277 6.5
8.2332468 -4.1593685 0.30284342 7
8.0274515 -3.4463463 0.36137441 8
8.0612411 -3.1754849 0.39923492 8
8.2865953 0.28574473 0.094752669 7
8.0955057 -3.6157684 0.66230422 9
8.0675354 -3.3268321 0.76675147 9.333333
8.0444956 -3.166116 0.6717397 9
8.1347256 -3.6543281 1.0958709 10
8.0627537 -3.2989216 1.2146561 10.5
8.0905676 -3.3755331 1.5938277 12
8.3064699 -4.0672402 1.9097471 12
8.2406464 -3.8116155 1.8865658 12
8.0789948 -3.3194613 1.8404946 12
8.0730677 -3.1141987 1.8327433 12
8.0040417 -4.4385519 2.2425911 13
8.6436024 2.0469668 -0.18540142 6.5
8.4247351 1.9818826 0.49469206 8.5
8.6194792 1.250289 2.3176029 14
9.1718044 2.4069383 -0.20899479 7
8.8700628 1.1179504 1.990648 13
8.9548759 -0.8882581 2.5304854 15
9.2310324 2.3977504 -0.24445912 6
9.2486811 2.5971034 0.43866953 8
9.3831263 1.8147465 2.8540471 15
9.8875942 -0.7756623 3.0480425 15
9.8718491 0.93283516 2.883183 15
9.6270094 1.3825818 2.8652999 15
9.7812576 3.2198522 2.8602684 15
10.184944 -0.48576382 -0.43610924 6
10.115866 -3.8507588 0.035718605 6.6666665
10.064112 -0.66585416 -0.15329242 6
10.110839 1.6138076 1.8043902 12
10.24426 1.6552893 2.0523288 13
10.195191 -2.0317936 3.0893221 15
10.727746 3.624748 2.7942839 14
10.942068 3.6472437 2.1985455 12.5
11.090156 3.1677198 2.4888105 13
10.980631 3.5740778 2.4999373 13
10.817599 3.7439566 2.5074182 13
10.844946 -1.87907 2.9762518 14
11.374239 -4.3034716 2.1072147 11
11.91788 0.00055184314 2.2431419 12
11.840926 0.27460465 2.2404187 12
11.628992 1.0647465 2.2438631 12
11.808197 2.1706247 2.076354 12
11.653325 1.0720735 2.5044303 13
12.382916 -1.5414177 2.5234742 12
12.255625 -1.11448 2.2637603 12
12.285326 -1.2394418 2.6989057 13
12.222688 -1.0363998 2.5677221 13
12.671228 -1.0903083 2.3275411 12
12.55816 -2.1898963 2.6304035 12
12.828012 2.5134563 1.9587424 11
13.223715 -3.1037183 -0.43772399 6
13.276183 -3.0123816 0.11563084 7
13.270944 -2.8149126 2.0303836 11
13.510394 4.643796 1.627337 10
13.607581 3.9101856 -0.44493383 6
13.813932 3.5430646 0.58749819 8
13.800826 3.5954275 0.76112807 9
13.986619 -1.2745517 1.4866326 10
13.873738 3.8678875 1.326545 10
13.903334 4.0699348 1.3152541 10
13.686687 -1.1643826 1.7894335 10
14.282917 1.6751249 0.40146858 8
14.028441 3.0124493 1.2799081 10
14.474115 2.5618966 1.6360877 10
14.423534 2.9663577 1.7342172 10
15.029868 1.9728807 1.6659293 10
15.216879 -0.061285302 1.9403535 10
15.791583 0.31058627 1.6827583 10
15.671638 0.94410908 2.1538336 11
15.69597 4.4704914 2.4782455 12
15.74061 4.9248123 2.5428388 12
16.046465 -0.038444731 1.695693 10
16.380682 2.4629834 2.3326325 11
16.301517 2.5771155 2.3602843 11
16.233383 2.9691195 2.3880875 11
16.161245 3.3640344 2.4171007 11
16.467571 2.1941156 2.3458645 11
16.933996 0.19402196 2.2445867 11
17.486286 -1.7569003 2.6343281 11
