# .PCD v0.7 - Point Cloud Data file format
VERSION 0.7
FIELDS x y z intensity
SIZE 4 4 4 4
TYPE F F F F
COUNT 1 1 1 1
WIDTH 123
HEIGHT 1
VIEWPOINT 0 0 0 1 0 0 0
POINTS 123
DATA ascii
-0.25821212 -0.93948174 -0.20186664 183
-0.093172692 -0.9369005 -0.20106617 195.5
0.048991118 -0.95573705 -0.20453943 196
0.19020167 -0.95279825 -0.2110099 195
-0.5563696 -0.80589962 -0.18674707 133
-0.41411716 -0.88557345 -0.18875374 134.5
-0.35846952 -0.82423699 -0.18959998 143
-0.21499179 -0.87693161 -0.20218866 195.5
-0.16526102 -0.80391842 -0.20034522 204
-0.039431985 -0.83492988 -0.20499527 202
0.085355528 -0.85286164 -0.20352519 200.25
0.2089804 -0.8568303 -0.20627151 200
0.32327515 -0.88291246 -0.20973575 199
0.43957528 -0.85369408 -0.21045657 199.66667
0.54470927 -0.80696356 -0.2043504 200
-0.52955693 -0.78393149 -0.1902335 133
-0.46258938 -0.72635943 -0.18937542 141.33333
-0.31793049 -0.78325981 -0.20043139 187.33333
-0.25216213 -0.71008325 -0.1995184 201.33333
-0.12971729 -0.75399131 -0.20381235 201.25
-0.011159795 -0.7817238 -0.20776123 199
0.021831572 -0.71300179 -0.20044343 198
0.12583496 -0.73886466 -0.20298819 197.33333
0.23248553 -0.74080551 -0.20305152 196.75
0.33455542 -0.73107725 -0.20847794 196
0.43039158 -0.73668551 -0.20246309 196.5
0.52827835 -0.7285623 -0.20021258 196.60001
0.63043392 -0.72663885 -0.19792952 199
-0.64275283 -0.67665929 -0.19096896 128.5
-0.54826766 -0.61428487 -0.18967709 135
-0.4049547 -0.67696691 -0.18917641 150
-0.35246494 -0.63464832 -0.19838709 187
-0.22430791 -0.68128085 -0.20516522 200
-0.17068112 -0.61879402 -0.19663994 198.25
-0.060623281 -0.65278035 -0.20173833 196.66667
0.05563334 -0.64565653 -0.19782896 194.66667
0.16582225 -0.6150648 -0.19012345 193.2
0.25336838 -0.62722498 -0.19333968 192.39999
0.33956766 -0.62150592 -0.19791967 192.33333
0.43326768 -0.62263989 -0.1889824 193
0.53859472 -0.63917154 -0.19621591 193.66667
0.64750326 -0.64993471 -0.20170061 196.14285
0.7031377 -0.64850563 -0.19200382 197.5
-0.74012393 -0.5555082 -0.19261576 123.5
-0.68102461 -0.52664363 -0.19395153 121
-0.45293286 -0.55292928 -0.19547722 161
-0.38987336 -0.51088107 -0.19268078 181.5
-0.24357031 -0.54119444 -0.19749378 197.16667
-0.1257897 -0.57016516 -0.19964652 194.33333
-0.056888003 -0.51604766 -0.18729064 192.2
0.046271328 -0.55139083 -0.19163676 191.8
0.1513335 -0.53682756 -0.18826531 189.625
0.25851136 -0.52069896 -0.18505341 188.10001
0.34457472 -0.52692914 -0.19099304 189
0.45573249 -0.5488559 -0.1892982 189.84616
0.56809974 -0.54824668 -0.18992363 191.83333
0.64077646 -0.52362937 -0.18853532 192.83333
-0.61116475 -0.49146712 -0.1893014 126.5
-0.54104471 -0.45760641 -0.19311504 141.66667
-0.43971965 -0.40725592 -0.19024017 171.25
-0.32283214 -0.46744516 -0.19541094 197.75
-0.25840166 -0.42476988 -0.1938217 195
-0.13739307 -0.44790441 -0.18896505 191.28572
-0.03765431 -0.44864994 -0.18867576 189.33333
0.044853561 -0.44133198 -0.19141676 187.16667
0.15033497 -0.4592602 -0.19432405 185.25
0.2435493 -0.4672887 -0.19783725 184
0.3446312 -0.44750771 -0.20054954 182.83333
0.44675329 -0.47052494 -0.19368702 185.69231
0.55640209 -0.43507496 -0.18891042 186.88235
0.61523622 -0.47103029 -0.18936838 190.5
-0.35337633 -0.36558402 -0.19498733 196.60001
-0.23752186 -0.32063389 -0.18471985 193.14285
-0.15037596 -0.35196188 -0.18547769 189.55556
-0.066762738 -0.3532635 -0.19046627 186.72728
0.065849997 -0.32351255 -0.19497664 180.72728
0.15992555 -0.36492193 -0.19649591 179.90909
0.23528552 -0.37338778 -0.19766605 178.22223
0.330585 -0.37790471 -0.19940482 178.18182
0.45246467 -0.34853268 -0.19755314 178.47826
0.5358153 -0.34254509 -0.19684333 180.66667
-0.15184905 -0.2651763 -0.18758106 187.66667
-0.028755056 -0.22541405 -0.19492817 180.60001
0.030459378 -0.26888049 -0.19679032 178.625
0.24245507 -0.20917165 -0.20164396 169.55556
0.3084383 -0.22381517 -0.20251045 171
0.52613479 -0.28229785 -0.20116399 177.2
0.055814419 -0.10868108 -0.13741915 145.59091
0.16065623 -0.1493786 -0.19978291 168.82353
0.24370423 -0.1786835 -0.20022497 168.63637
0.12715229 -0.091693819 -0.20100568 169
0.27117428 0.19658907 -0.17515314 127
0.35327777 0.186472 -0.16232145 131
0.67090952 0.11226606 -0.1986047 176
0.75205696 0.16851929 -0.19010675 179.64285
0.84700382 0.18321879 -0.18813302 187
0.27933267 0.27420968 -0.1273952 172.5
0.35833588 0.24896729 -0.14311261 150.5
0.41240603 0.24147364 -0.15732628 144.66667
0.68477839 0.26825944 -0.19339363 179
0.73420697 0.2483481 -0.18889219 181.69231
0.83459342 0.25718588 -0.19180454 188.57143
0.91014892 0.20740533 -0.19423203 191
0.18414044 0.35339129 -0.17153141 179
0.28122216 0.3389765 -0.17670907 177.66667
0.37288025 0.33202097 -0.18175282 174.8
0.64171958 0.35491806 -0.19051002 183.45454
0.75593174 0.34811294 -0.19301653 187.8
0.8252942 0.31838489 -0.19368775 189.66667
0.12091963 0.47933936 -0.19017188 186
0.39941925 0.49568564 -0.19369133 186
0.54722071 0.4315106 -0.19169462 185.5
0.64155489 0.41344064 -0.19121502 186
0.74351871 0.43565872 -0.19448057 191
0.1876505 0.50838822 -0.19265458 188
0.26045161 0.5134418 -0.19275866 186
0.40002304 0.51912028 -0.19351186 187
-0.016777074 -0.11986303 -0.026655179 158.6875
0.015593482 -0.11505441 -0.077218913 153.9375
0.25999552 0.18144962 -0.063741796 123.95238
0.33817154 0.19248655 -0.069532655 125.5
0.25330055 0.21889329 -0.077796862 162.5
-0.039428461 -0.12312744 0.0095993057 145.66667
