# .PCD v0.7 - Point Cloud Data file format
VERSION 0.7
FIELDS x y z intensity
SIZE 4 4 4 4
TYPE F F F F
COUNT 1 1 1 1
WIDTH 77
HEIGHT 1
VIEWPOINT 0 0 0 1 0 0 0
POINTS 77
DATA ascii
-4.6635156 -1.4520215 0.045314621 7
-4.4463682 -5.1175342 -0.19316754 7
-4.4410529 -5.1219668 0.21352908 8
-4.2196856 -6.0198474 -0.052140228 7
-4.0017557 -5.922523 1.1714873 12
-3.5545144 -7.9750099 2.3247116 15
-3.07535 -1.0896785 0.12190956 8
-2.9992347 0.92256021 0.93217063 15
-2.4555562 1.010426 0.219602 9
-2.0162866 -0.88763309 0.15534621 9
-2.0041649 0.97477204 0.33719763 11
-2.0412834 0.99993354 0.61193758 14
-2.0301435 0.94163066 0.65080535 15
-1.986179 0.97691709 0.33290675 11
-1.9685584 0.97136432 0.52459443 13
-1.6288897 -1.1224335 0.25942525 11
-1.6912719 -0.83706653 0.26653802 11.333333
-1.7448587 -0.7940284 0.29463002 12
-1.6477665 1.0634524 0.36361077 12
-1.6377268 -1.094407 0.46676952 14
-1.7130812 -0.85013127 0.53086853 15
-1.6283953 1.0489676 0.58042479 15
-1.6256129 1.1997005 0.52482897 14
-1.6886024 -8.6582022 1.6223919 13
-1.449475 -8.3080111 -0.16845095 7
-1.5220929 -1.719908 0.15016772 9
-1.4370341 -1.7587306 0.47470409 13
-1.315158 -1.0893939 0.28164026 12
-1.3984351 1.2078642 0.27056006 11
-1.2842119 -1.0561014 0.47379518 15
-1.2924355 -1.0050298 0.40857974 14
-1.3057381 1.2313424 0.48802039 14
-1.0784589 -8.2109852 0.15296341 8
-1.1493518 1.2780665 0.30133554 11
-0.85826266 1.3330029 0.33275294 12
-0.9000448 -8.1607018 1.0584384 11.5
-0.65841269 -8.1299219 -0.13666362 7
-0.77180582 -8.2334785 0.35283083 9
-0.51994956 0.70290488 -0.18220322 0
-0.55911338 1.393227 0.38311961 13
-0.53277916 -8.0939484 0.68095022 10
-0.23652208 0.83134401 -0.19273572 0
-0.2658031 1.1504827 -0.17001615 2
-0.069802299 -8.0371351 0.9870311 11
0.061400544 0.68188941 -0.18854415 0
0.071837977 -8.053668 0.56462997 10
0.26519468 0.66361505 -0.18935914 0
0.30676657 -1.0017583 -0.21309023 2
0.25244498 -8.031498 1.3729508 13
0.46205977 0.51300269 -0.19256942 0
0.52266002 0.83316451 -0.18207684 1
0.57092673 1.1531168 -0.1636945 3
0.41176099 1.6814801 -0.097800322 4.5
0.62693244 0.79851657 -0.16935998 2
0.76785588 1.6474972 0.39104226 12
0.85570014 -0.68537527 -0.20283136 2
0.82876772 1.7049776 0.086902723 8
1.0863649 -0.7780695 -0.19925416 3
1.0175855 -0.11761198 -0.20549585 2
1.1088045 1.7037781 0.3790291 12
1.1048512 1.6609609 0.49334911 13.333333
1.248826 1.6213616 0.37904245 11.5
1.432631 -8.4656334 1.3949811 12
1.620434 1.0067403 0.51909846 14
2.3842809 1.9742948 0.23587035 9
2.2431042 -8.2118959 1.0957016 11.5
2.7166591 -8.1082783 1.7386953 14
2.8318441 0.038575489 0.10487308 8.5
2.9966159 -8.1379328 1.1036507 11
3.1088643 -8.1211557 1.1815728 12
3.483953 -0.56476229 0.5549947 12
3.5031757 -7.9865208 1.5974162 13
3.6551187 -3.6818357 0.9838984 13
3.6498258 -7.939919 1.8019397 14
3.9157565 1.916043 0.066598602 7
3.9347799 -3.5238159 1.2003893 14
3.9452507 -3.5220859 1.3461713 15
