# .PCD v0.7 - Point Cloud Data file format
VERSION 0.7
FIELDS x y z intensity
SIZE 4 4 4 4
TYPE F F F F
COUNT 1 1 1 1
WIDTH 98
HEIGHT 1
VIEWPOINT 0 0 0 1 0 0 0
POINTS 98
DATA ascii
-5.6669645 -1.5484369 1.0812984 12
-4.6551919 -5.3028841 0.07735575 7
-4.5350008 -5.5430956 0.27286631 8
-4.4133272 -5.5225129 1.892891 15
-4.2982917 -6.2247076 0.025903139 7
-4.3651705 -5.8037663 1.0896082 11
-4.3239746 -5.8733015 1.2824131 12
-4.2863107 -6.0659318 1.9344752 14
-4.0903783 -6.7620134 0.93490529 11
-4.1270995 -6.1606579 2.1431494 15
-3.8549912 -6.9583955 1.3192188 12
-3.5704813 -6.8412604 1.8072946 14
-3.4520824 -6.9598699 2.198457 15
-2.41242 -7.7099757 -0.027221678 7
-2.5217521 -1.3405421 0.30694157 10
-2.5085225 -1.3498067 0.52950472 12
-2.4163356 -1.5014541 0.71800834 14
-2.4853621 -1.3638214 0.68544918 14
-2.3848174 -1.6109258 0.25677234 10
-2.3906331 -1.5928844 0.43440312 11
-2.2452042 0.88483775 0.72780132 15
-2.3564401 -7.8447986 0.92736465 10
-2.0405777 0.98109442 0.36172414 12
-2.1365206 -2.1917903 0.57270569 12
-2.0035148 -1.5536282 0.54676574 13
-2.1663821 0.91615725 0.55426925 13.5
-2.1193914 -2.2328949 0.69955987 13.5
-2.1183481 -1.6357969 0.71194327 15
-2.0404351 -1.510615 0.62173742 14
-1.9659082 -1.5350026 0.16507895 9
-1.8808203 -1.5437222 0.25057167 10
-1.9985939 -1.6352154 0.47404498 12
-1.834751 -8.9771681 0.6820426 9
-1.741146 -9.0476046 0.30324057 8
-1.7576833 1.1116062 0.25282735 10
-1.3390161 -9.5486574 1.4211789 11
-1.0956434 1.3702993 0.27853781 11
-1.0645375 -8.8698683 1.8506882 13
-0.74254864 -8.5411854 -0.11199737 7
-0.6542846 -8.6241446 0.14760849 8
-0.6355809 1.5502303 0.32985392 12
-0.20654407 1.5882742 0.36341068 13
-0.25245902 1.701615 0.44015512 14
-0.011361932 0.6704309 -0.1970104 0
-0.0038374984 1.3446317 -0.20143142 3
-0.16945361 1.5934485 0.45069486 15
0.14349777 1.7058281 0.39794782 12
0.14406994 1.7086542 0.46784189 13.5
0.10787589 -8.313653 1.255067 11
0.27041632 0.73568857 -0.20704433 0
0.24842964 0.88153583 -0.20973876 0
0.30244669 1.4341981 0.36170924 13
0.58310306 -8.0986824 0.49643353 9
0.49526054 -8.0899286 1.6163139 13
0.74259412 -0.74202383 -0.20613655 2
0.70235068 -0.17826585 -0.21220009 0
0.74884903 0.022624403 -0.22961757 0
0.60752034 -1.1340309 -0.18032432 3
0.6865145 -0.90440005 -0.19456004 2
0.82732683 -0.68478346 -0.20890364 2
0.9979248 -0.45020872 -0.18994685 2
0.8115167 -8.0670938 0.89522958 10
0.80986339 -8.0465078 1.2293891 12
1.1598902 -0.73430067 -0.14577946 4
1.1481353 -1.0701622 0.18287706 10
1.1823192 -1.0327728 0.35886145 14
1.1482022 -0.87346411 0.2377758 12
1.1032211 -0.59438568 0.24258065 12.5
1.2862533 -1.1662438 0.1098597 9
1.2181475 -1.2115724 0.20135567 11
1.2398965 -1.1375128 0.27780837 12
1.2533098 -0.98700321 0.34739441 13
1.2404599 -1.2111934 0.50372964 15
1.7772421 0.58789402 0.20469306 9
1.7493806 0.59937936 0.33818769 11
1.7435228 0.69458741 0.47107157 13
1.8554418 0.57975328 0.39810342 12
1.8043503 0.72379714 0.30233258 10
1.8590276 -7.6148486 2.3346128 15
2.0243611 0.30664498 0.33345002 10.5
2.1477251 2.6918607 0.56891137 11
2.0446148 -8.2002831 1.9637047 14
2.3523281 -0.10813925 0.32141674 11
2.3236213 2.6975343 0.46714717 9.5
2.245775 -8.0936823 1.145404 11
2.3652482 2.741643 1.0717906 14
2.5561686 2.4409962 1.0097089 14
2.5289838 -7.4827666 2.2849772 15
2.9987783 -7.7190065 1.1301335 11
2.9619467 -7.751688 1.2943809 12
2.9322419 -7.8009148 1.5825257 13
3.3226855 -6.452692 1.9456892 15
3.2166462 -7.69416 1.9685171 14
3.4510384 -0.4937188 0.059288248 8
3.6998899 -7.4791946 1.226 11
4.1460099 -7.3326502 1.3346217 12
4.191525 -7.4624629 1.8393466 13
4.5479283 3.6757729 0.71602219 9.5
