# .PCD v0.7 - Point Cloud Data file format
VERSION 0.7
FIELDS x y z intensity
SIZE 4 4 4 4
TYPE F F F F
COUNT 1 1 1 1
WIDTH 657
HEIGHT 1
VIEWPOINT 0 0 0 1 0 0 0
POINTS 657
DATA ascii
-5.6613011 -1.7535526 0.28172693 8.666667
-5.7889185 -1.45707 0.2499302 8.1999998
-5.6640701 -1.6947151 0.62328738 10.25
-5.7809324 -1.4066381 0.62173575 10
-5.6648989 -1.715415 1.0315099 12
-5.7690859 -1.4382209 0.95799029 11.333333
-5.6333494 -1.7426606 1.362955 13.333333
-5.765079 -1.4039786 1.366084 13.666667
-5.8336234 -1.200631 1.394172 14
-5.635818 -1.7078793 1.7138447 15
-5.7212791 -1.5113528 1.7421025 15
-5.3828969 -2.4349701 0.22203393 8
-5.4930015 -2.1817656 0.22933032 8.25
-5.5989552 -1.9324632 0.14114515 8
-5.3428154 -2.4968135 0.62543327 10
-5.463232 -2.1884348 0.55876619 9.666667
-5.5559945 -1.9544356 0.58758664 9.5
-5.3411379 -2.4384167 0.95677161 11.5
-5.4331951 -2.2304845 0.9724406 11.833333
-5.5585566 -1.9375129 1.0119085 12
-5.3018122 -2.4599364 1.2730116 13
-5.4236088 -2.2605333 1.2984755 13
-5.5582066 -1.9155012 1.3480923 13.5
-5.244463 -2.5334988 1.614454 15
-5.411159 -2.2244408 1.6516142 15
-5.558352 -1.9050277 1.6905564 15
-4.815958 -4.99473 0.28849933 8
-4.8781943 -2.36009 0.89808899 12
-4.4301462 -6.0192251 0.15561053 8
-4.4878316 -5.7610736 0.12504986 7.3333335
-4.6270795 -5.4287829 0.19188659 7.6666665
-4.7554693 -5.1119432 0.28281027 8
-4.4686894 -5.6658874 0.58091527 9.5
-4.592165 -5.3704653 0.59011757 9.5
-4.6941442 -5.1196327 0.59723419 9.5
-4.4252677 -5.6737981 0.98956198 11
-4.5837727 -5.3572774 0.96919537 11
-4.6747222 -5.1103954 1.0057883 11.5
-4.5147109 -5.4315395 1.2740042 12
-4.665946 -5.0908694 1.2720275 12
-4.4622693 -5.4443889 1.7019272 14
-4.6296906 -5.0562768 1.8400412 14.666667
-4.4446383 -5.4065447 2.0692217 15
-4.6238246 -5.0684652 2.0336902 15
-4.039351 -6.8228059 -0.0029979099 7
-4.1845474 -6.5465245 0.11535994 7.5
-4.3281579 -6.1516981 0.15098906 7.5
-4.3990369 -5.9027963 0.25584316 8
-4.0428939 -1.9248745 0.19895269 8
-4.0901341 -6.6111937 0.51977712 9.333333
-4.2197294 -6.2603011 0.57087922 9.5
-4.3579583 -5.9353561 0.57573611 9.5
-4.0636587 -6.5559263 0.97650844 10.666667
-4.2049155 -6.1900787 1.0329412 11
-4.2921753 -5.9796529 1.0936824 11
-4.263123 -2.1011586 0.95411259 13
-4.0329857 -6.595952 1.3063939 12
-4.1977315 -6.1764526 1.2906317 12
-4.3979702 -5.7126718 1.2794503 12
-4.1369433 -6.1963153 1.8126547 14
-4.2880101 -5.8372569 1.7303414 14
-4.0352817 -6.4204535 1.9804688 14
-4.1566687 -6.2540922 2.0805681 15
-4.2796388 -5.8400011 2.0897846 15
-3.6064086 -7.3512034 -0.033416316 7
-3.7745354 -6.9099679 0.14520605 7.6666665
-3.9503837 -1.9071461 0.2081355 8.5
-3.8811626 -6.9520473 0.50772977 9.333333
-3.8526165 -1.869212 0.4647494 10.333333
-3.644804 -7.3690395 1.0372227 10.5
-3.803803 -6.8855658 1.013603 10.5
-3.9751892 -6.7253742 1.1167593 11
-3.8160589 -1.9072109 1.0061918 14
-3.6729922 -7.3599129 1.3382262 12
-3.6050217 -6.8523459 1.2848916 12
-3.9529881 -6.7884617 1.3144239 12
-3.6154134 -7.3433852 1.8975699 14
-3.9134612 -6.7127481 1.8197298 14
-3.8098443 -6.9039593 2.104044 14.333333
-3.9378002 -6.6152515 2.1326497 14.666667
-3.4711843 -7.4263372 0.18781729 8
-3.3960376 -8.2615366 0.37024653 8
-3.4999881 -7.5485845 0.38315496 8
-3.4344552 -1.742238 0.61428273 12
-3.275316 -7.6738124 1.0399492 10.5
-3.4800832 -7.4670877 1.0131696 10.5
-3.5764184 -6.9650736 0.90589231 10
-3.5044954 -1.7415988 1.0593921 14.5
-3.2539856 -8.2247229 1.3865792 12
-3.3335075 -7.6891809 1.3394234 12
-3.5060041 -7.4233003 1.3290987 12
-3.3533866 -7.695426 1.9398321 14
-3.2751918 -7.6716881 2.1281695 14
-3.4154782 -7.4369364 2.161108 14.333333
-3.4824767 -6.9636497 2.1402318 14.666667
-3.2136829 -8.2833815 2.6500578 15
-3.3269279 -7.9684792 2.3973882 15
-3.1134849 -7.6046085 -0.094923966 7
-2.8589621 -7.4989495 -0.077905595 7
-2.9310179 -7.6059074 0.35724193 8
-3.161371 -1.6217189 0.68958396 13
-2.9363008 -1.5309616 0.75313997 13
-2.8474245 -8.1144361 0.9565447 10
-3.0550797 -7.9191022 1.0386972 10.5
-2.8426166 -8.1874828 1.2577922 11.5
-2.9500256 -7.9522142 1.3347712 12
-2.8865352 -8.6736326 2.1664131 13.666667
-3.0317197 -8.2959671 2.1312752 14
-3.0566773 -7.8833728 2.152297 14
-2.9571953 -8.3898754 2.6429915 15
-2.6290233 -7.6167121 -0.13170943 7
-2.6684144 -7.654892 -0.024083236 7
-2.6245277 -7.5463815 0.34423447 8
-2.4472163 -5.2848768 0.051142231 7
-2.5746064 -4.9395795 0.23768178 8.3999996
-2.4039154 -1.6395409 0.16350691 9
-2.5460739 -1.4222492 0.23441596 9.454545
-2.5436878 -9.2260981 0.7553643 9
-2.5926418 -4.9767265 0.59183043 10
-2.5136077 -1.4405751 0.61290675 13
-2.4532022 0.80806881 0.73350632 15
-2.4615812 -9.2391653 0.85946357 10
-2.5832744 -7.8303981 0.84499741 10
-2.7092421 -1.4286644 0.80503929 14
-2.5079901 -9.0942583 1.4239258 11
-2.6947401 -8.5625954 1.3181075 11.666667
-2.6893044 -9.1186914 2.0892401 13
-2.5943034 -8.5524673 2.062382 14
-2.5839376 -9.8556547 2.4808195 14
-2.7909606 -9.3041258 2.430928 14
-2.5857272 -8.4453907 2.614989 15
-2.0960352 -8.5067005 -0.099732392 7
-2.2124991 -8.17342 -0.081003048 7
-2.0161018 -8.4343662 0.31591541 8
-2.1340795 -8.1267576 0.32235712 8
-2.3005118 -7.7999978 0.21098171 7.6666665
-2.3368468 -5.3633809 0.17069165 8
-2.1980333 -2.136297 0.21634643 9
-2.2032468 -1.8578566 0.3369886 10.5
-2.2105021 -1.520848 0.23499921 9.6000004
-2.2135539 0.9292652 0.27133632 10.2
-2.1897218 -9.1287966 0.7183215 9
-2.2616501 -5.2110457 0.59536761 10
-2.186713 -2.1002398 0.5229165 12.125
-2.149621 -1.8212687 0.57810956 12.75
-2.2395623 -1.551836 0.61168158 13.5
-2.1657846 0.92989784 0.53300351 13.428572
-2.2199018 -9.2677116 1.034526 10
-2.213438 -8.0215597 0.93831217 10
-2.3342493 -7.813365 1.1106774 11
-2.2354937 -9.2702818 1.4287859 11
-2.082109 -9.7606869 2.3094583 14
-2.2663612 -9.1620417 2.0365059 13
-2.2888603 -10.014051 2.5621097 14
-2.0308859 -9.9035378 2.5323653 14
-2.2192526 -8.4995394 2.5922008 15
-1.7466583 -8.9789448 -0.19609147 7
-1.8825043 -8.7857437 -0.056833971 7
-1.8841236 -8.7349081 0.30933791 8
-1.9333671 -1.6741581 0.21184608 9.5
-1.9363326 -1.5196363 0.21747191 9.5
-1.792359 1.0912229 0.32568723 11.5
-1.6137692 -8.9222231 0.66149372 9
-1.9805197 -1.6108086 0.54461145 13
-1.8385172 1.0598185 0.52552432 14
-1.8075345 -9.6019011 0.92215431 10
-1.8426162 -9.1518612 0.82139891 10
-1.7999851 -9.7500811 1.460897 11
-1.9729927 -9.5209732 1.4424343 11
-1.6844636 -8.9183636 1.9248629 13
-1.948218 -9.6835022 2.2000751 13
-1.6121695 -9.5738888 2.2416937 14
-1.9184198 -9.047368 1.9734285 13
-1.7809117 -9.7827301 2.5008969 14
-1.8487806 -8.5205736 2.5665069 15
-1.3915592 -8.8985605 -0.1042387 7
-1.412148 -8.9292278 0.29506984 8
-1.5602494 1.1805233 0.34681976 12
-1.3770677 1.2553974 0.32922438 12
-1.3947854 -8.8512802 0.64194518 9
-1.550058 1.1794456 0.47819614 14
-1.3814411 1.2473148 0.47392803 14
-1.3528953 -9.2918835 1.041187 10
-1.4781338 -9.0391865 0.79836708 10
-1.5670002 -9.6549501 1.4413432 11
-1.3730009 -8.8970928 1.8874005 13
-1.3733865 -8.8202953 1.9942863 13
-1.5429317 -9.6910725 2.476871 14
-1.3079506 -9.5844049 2.4537232 14
-1.4368056 -8.5416412 2.5430338 15
-1.1916555 -8.76439 -0.20402476 7
-1.055483 -8.8138275 -0.035000946 7
-0.97001642 -8.7536306 0.17200986 7.75
-1.0121448 1.4019573 0.34081137 12.625
-1.0713093 -8.708025 0.61220759 9
-1.012758 1.3973321 0.47578943 14.6
-1.0223912 -9.2219439 1.0415545 10
-0.93358982 -8.7687674 0.82718027 10
-0.95942181 -9.4096851 1.3438143 11
-0.85756242 -8.8242245 1.8239483 13
-0.95124364 -9.3154011 2.1565182 14
-1.1892582 -8.8755474 2.1212106 14
-1.1664132 -8.7461205 1.9650772 13
-0.970976 -9.4332733 2.4214315 14
-0.93333328 -8.5350504 2.5158796 15
-0.49163866 0.27737561 -0.14961888 0
-0.45194176 0.58041257 -0.17127556 0.5
-0.4604308 0.96433437 -0.16444808 2.5
-0.41300496 1.3469014 -0.17514729 3
-0.55604649 -8.5834608 0.13446797 7.5
-0.6479333 1.5421209 0.36768484 13.2
-0.44914973 1.6208364 0.35645506 13
-0.53669786 -9.124733 0.73980927 9
-0.65933532 -8.5426321 0.57860392 9
-0.62477493 1.5516666 0.44649878 14.5
-0.45317054 1.6168438 0.45742202 14.5
-0.68439323 -8.9185658 1.024825 10
-0.51556957 -8.6090364 0.8387168 10
-0.69005013 -9.2930365 1.3749613 11
-0.45713168 -9.1847343 1.2905426 11
-0.61956125 -8.6307392 1.8157144 13
-0.54026979 -9.2453308 2.1275921 14
-0.6439957 -9.289957 2.3952253 14
-0.4330045 -9.2067366 2.3822634 14
-0.56985646 -8.4876165 2.4907155 15
-0.40078434 -8.4303503 -0.3453694 6
-0.17785391 -8.3282528 -0.22435381 6.4000001
-0.21820545 0.65886337 -0.17998841 0.16666667
-0.19721745 0.99436563 -0.18703908 1.6363636
-0.18987164 1.3977671 -0.19151521 3
-0.23578747 1.7025186 -0.1843603 3.75
-0.25978377 -8.454978 0.14019573 7.5
-0.068275385 -8.3774071 0.14418276 7.5
-0.18153426 1.5962079 0.37244242 13
-0.19967833 1.6533992 0.36876205 13
-0.35985258 -8.4163103 0.55533433 9
-0.16586278 -8.3370552 0.54189259 9
-0.19394699 1.5951836 0.45698455 14.5
-0.20220506 1.6518359 0.45986935 14.5
-0.39237437 -9.1643038 1.0551894 10
-0.2555868 -8.4203825 0.81272137 10
-0.047626019 -8.3559093 1.0135916 10.5
-0.27906761 -9.1175394 1.3491769 11
-0.072120041 -8.3617725 1.2613122 11
-0.2299358 -8.5152245 1.7700006 13
-0.1612848 -8.4363747 2.0734317 14
-0.22999029 -9.2378836 2.3972981 14
-0.26487631 -9.0196199 2.4972661 15
-0.30087212 -8.4411106 2.4730904 15
-0.12088151 -8.4004326 2.4618804 15
0.24229628 -8.1951561 -0.27958515 6.3333335
0.23939903 0.6474821 -0.19388472 0
0.21479417 1.0160774 -0.20394962 0.5
0.24963862 1.2936183 -0.14454876 2.8571429
0.10092009 1.744096 -0.15898977 3.3333333
0.21535303 -8.2163601 0.13939309 7.5
0.23231773 1.4184476 0.26600328 11
0.095231034 1.6907663 0.38250303 13
0.16237253 -8.1897421 0.51996595 9
0.22068462 1.4041791 0.43244082 14
0.086905986 1.6862544 0.47141191 14.5
0.24227604 -8.227603 0.91222197 10.25
0.28486884 -8.2083521 1.242893 11
0.22178733 -8.2107983 1.648303 13
0.11581891 -9.0727386 2.2049985 14
0.2150498 -8.2682428 2.0662441 14
0.11910252 -8.8751287 2.4696367 15
0.14160843 -8.3576488 2.4498427 15
0.55934387 -8.1839857 -0.23382959 6.5
0.59449178 -6.4472122 -0.17583358 6.5
0.62161463 -3.4845243 -0.16589783 6
0.78655314 -2.0299482 -0.17061003 5
0.67153567 -1.7392849 -0.16619495 4.75
0.6610297 -1.3105986 -0.17908885 3.6666667
0.66024137 -0.94006938 -0.19173929 2.5714285
0.62080312 -0.56422263 -0.1966974 0.80000001
0.68225157 -0.26222831 -0.20066516 0.2857143
0.73531568 0.024650548 -0.16435909 1
0.57725573 -8.1059656 0.16067454 7.5
0.7251336 -6.6741357 0.13336986 7.6666665
0.59855968 -8.120162 0.9393872 10.4
0.54786414 -8.1059093 1.233296 11.5
0.61434513 -8.1900024 1.702915 13
0.49080065 -8.8971138 2.1782587 14
0.57771987 -8.0912199 2.0605209 14
0.49509206 -8.7430449 2.4525545 15
0.61708498 -8.2146492 2.4199169 15
1.0843136 -8.5621262 -0.24499805 6.5
1.0033718 -6.685092 -0.28066069 6
0.81970584 -6.366394 -0.14118864 7
0.96539229 -2.9101441 -0.17225808 6
1.0530713 -2.5278864 -0.17624879 5
1.1249937 -2.2151628 -0.17901935 5
1.0625117 -1.671306 -0.18431056 4.5
1.0012386 -1.3798987 -0.18961672 4
1.0101695 -0.97492898 -0.17596151 3.6666667
1.0564257 -0.55658019 -0.13767156 4.0952382
0.97095543 -0.22647256 -0.20823552 1.3
0.80374855 0.029630288 -0.16446431 1
0.99034524 -6.6114235 0.17405131 7.6666665
1.1621163 -0.94471794 0.25895694 12
1.0542322 -0.54743648 0.16762625 11.15
0.92257267 -0.35743085 0.24862583 14.333333
0.91907638 -8.6207619 0.49613416 9
1.180884 -1.0776983 0.42377794 14.5
1.0625491 -8.5983696 0.95231843 10
1.0549039 -8.5889492 1.2951623 11
0.88778502 -8.2377481 1.1630005 11
0.99702913 -8.5999489 1.7393039 13
1.0047855 -8.6516237 2.1514025 14
0.85307235 -8.5490618 2.424103 15
1.0617301 -8.1605854 2.3960044 15
1.4841744 -7.9904704 -0.4080497 6
1.5263715 -6.5035906 -0.29018605 6
1.2783573 -2.6681049 -0.18062909 5
1.4296789 -2.1669397 -0.19966416 5
1.2700106 -1.8388977 -0.19553588 5
1.2243671 -1.3239334 -0.14495867 5
1.273981 -1.0828094 -0.1193977 5.3333335
1.5811421 -0.48972276 -0.26447546 3
1.3423401 -0.27295795 -0.26210827 1.75
1.4008009 0.069448456 -0.25216481 2
1.4308486 -8.393218 0.26411963 8
1.2007289 -6.4792714 0.054852553 7
1.3685851 -6.2640085 0.19535512 7.8000002
1.3830041 -1.4482092 0.25093642 10.875
1.254169 -1.0401915 0.23055737 11.363636
1.3814385 2.3466866 0.30872563 9
1.3626609 -8.4759712 0.57052422 9
1.5860612 -8.3867331 0.46936318 9
1.4114859 -1.4568672 0.54077762 14.5
1.2506444 -1.1370263 0.4366757 14.5
1.3548275 -8.4933968 0.97475511 10
1.3441342 -8.4914942 1.2710551 11
1.5959063 -8.3834486 1.2871158 11
1.396281 -8.4530382 1.6535082 13
1.3808802 -8.4881134 2.2346761 14
1.5266171 -8.4093857 1.9763151 14
1.4760437 -7.8322101 2.3606622 15
1.5240431 -8.1267385 2.374578 15
1.238055 -7.9558048 2.3781638 15
1.662771 -7.9130549 -0.31840336 6
1.7580746 -6.5733242 -0.25146395 6.3333335
1.8185701 -6.141552 -0.11558411 7
1.7238245 -2.7712851 -0.20722444 5
1.7218837 -0.54689854 -0.27240613 3
1.6910037 -0.25280005 -0.27177513 3
1.6300281 0.086250715 -0.25725809 3
1.7451257 -7.8929725 0.023669237 7
1.8138478 -6.6033826 0.17572549 8
1.8969787 -5.9880877 0.2719405 8
1.8212078 -0.21332556 0.30746284 11.6
1.8441312 0.31830454 0.26539883 10.1
1.79765 0.6020633 0.2812579 10.2
1.8236773 0.88586468 0.28853598 10.142858
1.8605583 -8.2586756 0.46044636 9
1.9854159 -0.23851639 0.41328365 13
1.8241583 0.30930483 0.47569016 13.2
1.7563108 0.56992263 0.4559105 13
1.6929985 0.87048352 0.43875614 12.5
1.7662972 -8.3176003 0.93653584 10.25
1.8338923 -8.2956066 1.2694147 11.5
1.7712662 -8.3249836 1.6323942 13
1.7876157 -8.3098574 1.9698818 14
1.8400269 -7.7790308 2.341929 15
2.1501784 -6.1081195 -0.17371415 6.6666665
2.1963058 -0.71141624 -0.20797828 4.6666665
2.2260721 -0.078958951 -0.2928828 3
2.2262256 0.13214758 -0.23090488 4.5
2.2478726 -8.0976267 0.27262929 8
2.0809829 -5.8882389 0.2710858 8.5
2.2098823 -0.57612062 0.22979568 10
2.2871356 -0.15300375 0.32565659 11
2.1480176 0.18544395 0.24854404 9.875
2.2371142 2.6967137 0.2996653 8.666667
2.2290561 -8.1068115 0.45038709 9
2.1789324 -5.8942523 0.53964245 10
2.0584104 -0.50066781 0.43014055 13
2.2519875 -0.20605861 0.48057303 13.25
2.1274281 0.10834182 0.40775034 12.5
2.2352681 2.6986995 0.60989141 10.6
2.2399418 -8.1112957 0.82371891 10
2.2053905 2.7096272 0.96967703 13.5
2.1934843 -8.1342316 1.2534519 11.4
2.1352541 -8.171936 1.6129133 13
2.3066216 -8.1173811 1.9652642 14
2.1920033 -7.7086902 2.3149455 15
2.331007 -7.4348874 2.3052943 15
2.5865927 -7.8763213 -0.49313226 5.5
2.642278 -6.5277991 -0.3800334 6
2.5270398 -6.3290591 -0.13629574 7
2.5809319 -5.7271943 -0.27051225 6
2.5071361 -5.5249615 -0.082817823 7
2.5622313 -0.21808958 -0.32036912 4
2.6875708 -1.2419456 0.12800938 8
2.4485958 -0.097783349 0.25744337 10
2.5882957 0.17195727 0.276173 9.5
2.7273335 0.4185012 0.30039343 9
2.5459743 1.2805158 0.39455771 10
2.5010564 -8.0039968 0.4458662 9
2.4373713 -0.9008072 0.41274601 12
2.522264 -0.19040892 0.54353839 13.166667
2.5751832 0.17977583 0.61019206 13.5
2.5746982 0.40026373 0.65503556 13
2.5662153 1.3028551 0.46553466 10.666667
2.5834546 -7.956768 0.82863259 10
2.6431756 2.3427515 1.0214887 14
2.5697119 2.5771103 1.0454072 14
2.4639263 -8.0077925 1.2879753 12
2.6430478 -7.9373312 1.2401881 11.333333
2.4102488 -8.0694313 1.6028076 13
2.694978 -7.9337721 1.6564794 13
2.5626261 -8.0171118 1.9649762 14
2.7306318 -7.9458003 1.9666903 14
2.5289993 -7.2382951 2.28842 15
2.7759774 -7.1656137 2.2630138 15
2.9751086 -7.7493939 -0.48416692 5.5
2.9603019 -6.4587355 -0.36061397 6
3.1166492 -4.4618759 -0.122483 7
3.0937219 -0.56711131 -0.21706483 5.4285712
3.0548744 -7.7095571 0.25495133 8
3.0177097 -6.5062513 0.19775447 7.6666665
3.0390148 -6.0620856 0.30986497 8
2.8754015 -5.7708578 0.18580079 8
2.9206789 -1.0959666 0.37317318 10.5
3.0953603 -0.67778897 0.16722462 9
2.9284198 0.27838922 0.14958462 7.5
3.1432903 1.5551718 0.20262912 8
2.9410627 -7.7811894 0.44059756 9
2.960223 -7.7749548 0.83693331 10
3.1913021 2.5777271 1.1320235 14
2.9775393 -7.7576303 1.2633848 11.5
3.0634081 2.6702261 1.2304269 14
3.1143534 -7.7937713 1.6900644 13
2.969635 -7.8053417 1.9633964 14
2.8199699 -7.458838 2.2705457 15
3.0209005 -6.9646268 2.1788659 15
3.2781148 -7.5990791 -0.48578677 6
3.2326605 -4.4146276 -0.11365426 7
3.4513643 -4.2966938 -0.08330173 7
3.3887944 -0.84047443 -0.18118003 6
3.2359331 -0.75972855 -0.029276365 7
3.2269146 -7.7159691 0.29378006 8
3.3603661 -0.80442441 0.39130399 10
3.3597815 -0.59215164 0.11569207 8.2857141
3.4273517 2.5030253 0.21637401 7
3.3165684 -7.6688342 0.44019061 9
3.5920758 -7.5653415 0.44230229 9
3.4812663 -0.85931069 0.53950369 11.5
3.494514 -0.66877216 0.59757584 11.714286
3.3484941 -7.6284952 0.84986007 10
3.5415056 -7.6035786 0.85984099 10
3.5904377 -0.9476409 0.85093641 14
3.322639 2.6654549 1.1314667 13.333333
3.3184152 -7.6480298 1.2588885 11.5
3.4989302 -7.5583358 1.2686902 11.5
3.3184614 2.7599959 1.277703 14
3.407259 -7.6813731 1.5929958 13
3.4006369 -7.4491305 1.9471488 14
3.5706258 -7.192812 1.9241872 14
3.2226894 -6.5930991 1.9564058 15
3.4636817 -6.239789 1.9314231 15
3.8950586 -7.4576564 -0.54755026 5.5
3.9154301 -5.8832998 -0.26525331 6
3.6127126 -4.2070284 -0.073904082 7
3.9077816 -7.4107909 0.14968526 7.5
3.9567857 -5.8800855 0.078777693 7
3.9830222 -5.4698586 0.28741047 8
3.899929 -4.5843191 0.15363033 8
3.6827805 -4.1372242 -0.011808308 7
3.6598122 -0.4819001 0.19216038 9
3.9852304 -0.060928047 0.22386856 9
3.8258665 -7.6071973 0.70031101 10
3.8631968 -7.4949479 0.5556649 9
3.8864079 -4.4968028 0.61310291 10
3.893249 -4.2814465 0.44886321 9.5
3.6286581 -0.77831298 0.67296785 12.5
3.815594 -7.4883523 0.93985242 10.333333
3.9647539 -4.5948005 0.9524675 12
3.9814606 -4.2909875 1.137689 13
3.8258579 -7.4289236 1.3131785 11.75
3.9472508 -4.5479736 1.43103 14
3.7216742 -7.5578794 1.6659402 13
3.74212 -6.9588852 1.9069829 14
3.9076178 -6.7304168 1.8931316 14
3.6086822 -6.0456166 1.921859 15
3.7361779 -5.833766 1.9079788 15
3.8529055 -5.438519 1.8662101 15
3.9504116 -4.492589 1.584107 15
4.2849789 -7.3737054 -0.62888473 5
4.1826782 -7.386301 -0.43584767 6
4.2073092 -6.639276 -0.34522721 6
4.0735369 -6.2756772 -0.14227666 7
4.0005894 -5.8601685 -0.11227348 7
4.1016402 -5.4516144 -0.083321095 7
4.0668025 -2.8785233 -0.051909596 7
4.1698341 0.22659525 -0.25617105 5.3333335
4.118289 -7.4229918 0.15826951 7.5
4.1283126 -5.8510165 0.26466385 8.666667
4.1839218 -5.5171318 0.19258754 8.333333
4.0648866 -5.0020695 0.13333006 8
4.1008954 -2.8148048 0.034655891 7
4.1217504 -0.59661269 0.27088115 9
4.0436673 -0.19220069 0.16888273 8.5
4.0671453 0.15076868 0.13090102 8
4.2940621 -6.5010104 0.37649468 9
4.0841079 -5.8443637 0.38849881 9
4.2057757 -5.43294 0.5311709 9.5
4.1262479 -5.0191994 0.48419589 9.333333
4.0401626 -4.6210046 0.38169545 9
4.1274433 -2.8609028 0.56703025 10.5
4.1595297 -2.782794 0.64733952 11
4.0851507 -7.4835296 0.99477124 10.5
4.3845944 -5.6797147 0.85127336 11
4.3097868 -5.450686 1.0262038 11
4.1785874 -5.1717696 0.81943202 11
4.0777731 -4.7174244 0.97779286 11.5
4.2160425 -7.3456898 1.3661731 12
4.3282027 -5.3794365 1.4251492 13.333333
4.2161202 -5.024148 1.3279618 13
4.1230059 -4.6265306 1.1972607 13
4.2241306 -2.724226 1.2250495 14
4.1507802 -7.4620185 1.7635207 13
4.0601153 -6.4998999 1.8790466 14
4.2506127 -6.1883898 1.8619766 14
4.3566046 -5.9176188 1.8403888 14
4.2755351 -5.3068309 1.7437116 14
4.0924034 -4.9632516 1.8411518 15
4.4612126 -7.2886486 -0.40726003 6
4.4920993 2.1352956 -0.011230879 6
4.5882244 2.2933915 0.10222226 7
4.487596 3.6007326 0.39827865 8
4.7123828 -6.5807824 0.69058412 10
4.455389 -5.9335461 0.66517472 10
4.4461055 -5.5886168 0.37383482 9
4.5743432 3.6157696 0.63590753 9.5
4.7598314 -6.5777259 1.1242859 11
4.5228076 -5.9764981 1.0719227 11
4.54321 3.6524737 0.99025917 11
4.5712981 -7.0282135 1.1950526 11
4.5782509 -6.1532936 1.5092683 13
4.637073 -5.8118186 1.321736 12
4.5995927 3.5379674 1.3648661 13
4.5155435 -7.2538557 1.8470298 13
4.686543 -6.9927049 1.8337436 13
4.7665229 -6.6114736 1.7952945 13
4.4586101 -5.7894964 1.8392162 14
4.7921071 3.8035774 1.8504894 14
4.9249945 -8.6056786 -0.55423337 6
4.9265242 -8.512228 -0.045656361 7
5.1818786 0.35814199 -0.14085384 6
5.0879149 0.4698256 -0.10830234 6
5.0899992 0.8504017 -0.044962786 6
5.0574651 -8.4392385 0.21599111 7.6666665
5.187079 0.3508701 0.056577865 7
4.9245977 3.7658036 0.39131653 8
4.9908204 -8.5755577 0.56648862 9
4.8783727 -7.1504893 0.70867521 10
5.127624 2.3551102 0.48532817 8
5.0471172 3.7868772 0.65108186 9
5.0065985 -8.6555214 1.0005637 10
4.844604 -7.2161889 0.93529654 10
4.9026136 -6.9648967 0.93248022 10
5.0160608 3.852205 0.83542383 10
5.0438614 -8.6206417 1.2528253 11
5.0028744 -7.0515552 1.3501755 11.666667
4.8400865 -6.2914233 1.35663 12
4.9573622 3.8138309 1.3706179 12
5.1596932 -8.4767647 1.5680573 12
4.8573279 -6.8604717 1.6188518 13
5.2147532 0.32171723 -0.25751808 6
5.3249416 -8.3391857 0.35004136 8
5.4186735 -0.19601327 0.2281165 8
5.3705392 0.17468068 0.026738409 7
5.4736018 3.9863124 0.38413587 8
5.2870131 -8.3717089 0.42058191 8.5
5.5608759 4.0786133 0.6445542 9
5.3126225 -8.5145149 1.0169221 10
5.4233661 -8.3524332 0.76098591 9
5.5853338 4.0845199 1.0877078 10
5.3598948 -8.5203247 1.2801969 11
5.5199103 -8.3641758 1.2885257 11
5.4945979 4.0695424 1.3439274 11.5
5.4552226 -8.3527851 1.5895983 12
5.5659142 3.8929157 1.6593306 13
5.3190417 4.0265942 1.7751132 13
5.7644882 -4.094614 -0.29835501 6
5.7994194 4.0611572 0.20472166 7
5.6239066 3.9886723 0.67856407 9
5.7578363 4.036694 0.60886061 8
5.8027492 4.0366626 1.006904 10
5.6647921 3.9485257 1.5371994 12
5.8650384 4.119782 1.7665846 13
6.1490569 -2.4412925 0.58786523 10
6.074852 4.2123084 0.61443001 8
6.0860863 4.2109799 0.84202176 9
6.0707731 4.0998373 1.5114108 12
6.2269754 4.1354771 1.7051915 12.5
6.6283784 -2.7521353 1.89215 15
6.5988855 -1.4921941 1.8931038 15
7.0032334 4.5480528 0.64415336 8.333333
7.0974436 -1.8437132 1.8251135 14
6.9783506 -1.436818 1.856825 14
6.9760246 4.3863473 1.7409179 12
7.359973 -3.0480862 1.8398596 14
7.4953041 -1.4448894 1.8119454 14
7.4698343 -1.167739 1.8280783 14
7.2151942 0.26166704 2.1073482 15
7.8895159 -1.7048463 1.5456315 13
7.8205357 -1.3353447 1.5486974 13
7.8246298 -3.2331219 1.7728401 13
7.6691403 0.44263431 2.045923 15
8.2462769 4.9163241 1.9572417 12
8.1102247 -0.82098413 2.1883667 15
8.336338 0.68018281 2.2241828 14
8.7743444 -2.4011726 1.415082 12
8.7635269 1.137663 2.3849142 14
8.6625462 1.3371128 2.3939013 14
8.5965757 1.5384177 2.4121561 14
8.9576721 -0.8407923 1.6538858 12
9.0901155 1.1178287 1.98803 12
8.8765106 0.93982464 2.3791401 14
8.9296513 1.3903959 2.0087662 12
9.1417246 -1.8261087 2.7198927 15
9.1087627 -0.42245641 2.6898291 15
8.9067898 -0.018962976 2.6952779 15
9.0665302 0.18702641 2.4347186 15
9.4696655 -1.3026065 1.6710407 12
9.2666779 -1.0717671 1.6709667 12
9.4403782 -1.3997425 2.3653808 14
9.4923763 -0.57812297 2.3232219 14
9.3414001 -0.23658758 2.3284085 14
9.4807081 -1.2817835 2.6784482 15
9.3552942 -0.94651669 2.5848942 14.666667
9.5156116 -0.63365585 2.5530753 15
9.3376427 -0.19493999 2.562916 15
9.214674 0.12593992 2.5760655 15
9.6063662 -0.81305075 2.3238821 14
9.6961441 -1.3636353 2.6195874 14.5
10.031659 -0.49093628 -0.30994081 6
10.322086 -1.5789144 1.1245484 10
10.309442 -1.2493538 1.4500934 11
10.289741 5.2430086 1.4226496 10
10.208599 -0.98508376 1.5891558 11
10.464061 -1.8574983 1.1116436 10
10.461289 -1.5335988 1.3175442 11
10.893764 5.2401166 1.444847 9
12.17556 0.81634521 1.4622911 10
12.653371 0.69222897 1.2859924 10
12.790539 0.1815 2.4412873 12
13.922139 0.61857355 2.0323348 11
13.918486 0.83786666 2.3571458 12
14.058106 0.29608274 2.0159461 11
14.160147 0.8812694 2.0267322 11
14.766922 -0.37902153 -1.0324568 5
14.961955 -1.0038191 -0.96889591 5
14.869022 -0.6468603 -0.92202586 5
