# .PCD v0.7 - Point Cloud Data file format
VERSION 0.7
FIELDS x y z intensity
SIZE 4 4 4 4
TYPE F F F F
COUNT 1 1 1 1
WIDTH 133
HEIGHT 1
VIEWPOINT 0 0 0 1 0 0 0
POINTS 133
DATA ascii
0.43773821 -0.83960342 -0.18092337 171.25
0.5470739 -0.82712269 -0.18688697 179
0.43137118 -0.73809075 -0.18403974 183
0.53026336 -0.73908025 -0.19071731 185.60001
0.62941062 -0.73603767 -0.19340926 187
0.42306519 -0.63393998 -0.18047754 189.60001
0.54569966 -0.64655459 -0.19276066 191
0.64519602 -0.66324419 -0.19539498 192.28572
0.71665794 -0.68988454 -0.20324501 190
0.45532936 -0.5550139 -0.18327104 188.14285
0.56416792 -0.545645 -0.18931933 189.71428
0.63454318 -0.5262416 -0.19128181 190.60001
0.71318495 -0.51074117 -0.20248294 192
0.44824338 -0.46630701 -0.18997455 183.75
0.55420923 -0.43408093 -0.18642674 184.93333
0.65920943 -0.45691907 -0.19571099 188.88889
0.73888057 -0.42386326 -0.19928882 190.8
0.44660807 -0.34286162 -0.1925047 174.76666
0.53454143 -0.34690922 -0.19540128 177.45454
0.64635342 -0.35037163 -0.19271176 183.86667
0.73633814 -0.34373915 -0.19687559 187.5
0.84800303 -0.34023374 -0.19579701 160.25
0.91931373 -0.33808282 -0.18926616 143.60001
0.48183948 -0.29205054 -0.19963655 172.5
0.53879488 -0.28286406 -0.1984286 173.57143
0.68529201 -0.28238446 -0.19649974 182.2
0.7394926 -0.23012371 -0.1984356 182.33333
0.84916806 -0.24675933 -0.18078029 130.25
0.94416136 -0.23362559 -0.19682266 153
0.77837217 -0.14206858 -0.1836296 123.44444
0.83520269 -0.15569735 -0.17826617 136.55556
0.94628501 -0.15978523 -0.19717093 149.5
-0.64903533 -0.036023345 -0.1623662 160.5
-0.54719442 -0.032668542 -0.16108519 177.5
-0.4576062 -0.030004941 -0.16694191 193.5
-0.33839831 -0.026036067 -0.16392542 191.71428
-0.22566161 -0.022860432 -0.17508875 186.81818
-0.13594809 -0.020471523 -0.18745238 182.28572
-0.092562914 -0.01912383 -0.18885724 180.33333
0.061544158 -0.01430407 -0.19677778 170
0.10393755 -0.012907444 -0.19913688 168
0.77074885 -0.049046557 -0.17483093 124.66666
0.83848792 -0.045695089 -0.17146853 139.63637
0.95159119 -0.054153144 -0.19075184 151.28572
-0.63495594 0.080208801 -0.15851998 162
-0.55842918 0.073906094 -0.16038585 178.33333
-0.46355247 0.066069514 -0.1649517 194
-0.3403019 0.055941537 -0.16147305 192.83333
-0.2305503 0.04682415 -0.171148 187.18182
-0.13510621 0.058500104 -0.18415672 182.44444
-0.089451179 0.0683285 -0.18615624 180.5
0.070594639 0.051167607 -0.19646347 169.63637
0.10960349 0.066324286 -0.19675443 168.66667
0.76828223 0.027056362 -0.16421458 131.33333
0.83960956 0.032039374 -0.16902687 139
0.93465471 0.038230866 -0.18539183 149
-0.63730878 0.19969675 -0.15439273 164
-0.54843444 0.18184875 -0.1528285 178
-0.44343239 0.16096973 -0.15877147 194.2
-0.32547498 0.13726662 -0.15688361 192.33333
-0.2230483 0.13931882 -0.16080534 187.76923
-0.17107281 0.15228091 -0.18396643 184.61111
-0.063745089 0.1658884 -0.18427242 180.71428
0.079530932 0.14217763 -0.15265359 159
0.13627759 0.15021996 -0.18087317 161.91891
0.23941652 0.18360537 -0.19773184 169.25
0.31572318 0.18820775 -0.19913764 169.5
-0.51837415 0.28603229 -0.14932254 178.33333
-0.43415049 0.25921738 -0.15748443 193.60001
-0.33696297 0.22740345 -0.15319419 193.66667
-0.2635605 0.22924101 -0.14464507 192.33333
-0.14763495 0.23696369 -0.15027176 175.77777
-0.076530054 0.20732804 -0.18194559 182.5
0.018637471 0.28412318 -0.18698956 181
0.23434681 0.21643722 -0.19921452 170
-0.56506979 0.30083781 -0.14389624 169
-0.20965995 0.34959522 -0.11562037 197
-0.10793446 0.3809737 -0.16833681 190
-0.055355992 0.3701669 -0.17995991 187.16667
0.06247326 0.32737479 -0.1861624 181.33333
0.13840814 0.36082867 -0.19060105 180.76923
0.24354577 0.38373482 -0.19330643 179.5
0.34971765 0.37623805 -0.19353971 178.54546
-0.42938063 0.49183261 -0.16438819 193
-0.36247736 0.45030317 -0.16185489 200
-0.24618107 0.45082831 -0.16721202 196
-0.14343165 0.43608907 -0.17119817 192.375
-0.053332843 0.44409484 -0.17343229 189.66667
0.044032451 0.45426634 -0.17851487 188.5
0.14067705 0.47839108 -0.18534677 188
0.24480762 0.47011277 -0.18976113 185.33333
0.34057558 0.46083555 -0.19385232 184.125
-0.60452926 0.59862208 -0.15779716 159
-0.54058176 0.56053454 -0.16640757 172.75
-0.35010731 0.57459843 -0.17521362 199.75
-0.25988144 0.52886891 -0.1769416 198
-0.16918121 0.5503487 -0.17807445 197
-0.036820833 0.53553486 -0.17785947 192.66667
0.054102141 0.55271214 -0.18366286 192.42857
0.13749325 0.56375593 -0.18834336 191.57143
0.26077139 0.54677731 -0.185174 189.76923
0.35340968 0.51405144 -0.18532448 188.2
-0.65488148 0.62996763 -0.16038764 154
-0.46046576 0.6615743 -0.17193282 183.33333
-0.39308438 0.60725194 -0.16764751 194
-0.27171412 0.65383661 -0.17729694 201
-0.12506846 0.6527403 -0.18577319 199
-0.043523163 0.65860307 -0.19006263 197.33333
0.018509075 0.61467844 -0.18630797 195
0.15494017 0.62880546 -0.18686271 195
0.24313579 0.61605293 -0.18725616 193.33333
0.36470821 0.62187243 -0.1888369 193.25
-0.60021615 0.76976985 -0.15787666 150
-0.54198849 0.72488481 -0.1647201 164.66667
-0.3708801 0.75332642 -0.17421833 188.25
-0.21250646 0.76369596 -0.17797747 203
-0.18734074 0.73340136 -0.18517514 202.66667
-0.046257854 0.72791922 -0.19218251 200.5
0.070158318 0.72552127 -0.19623564 199
-0.438508 0.81950319 -0.16555278 167
-0.30833778 0.88910854 -0.18096915 188
-0.26567435 0.83471042 -0.18396845 196.33333
-0.1064764 0.82993388 -0.1902127 204
-0.091172993 0.80379468 -0.19022807 204
-0.33520973 0.92176723 -0.17424183 177.5
-0.1699736 0.93882227 -0.19113767 196
-0.043148004 0.17441179 -0.0096391644 167.5
0.057257786 0.17684905 -0.056769256 137.07692
-0.3269704 0.2185348 -0.064023189 157
-0.16302939 0.23688136 -0.079356261 195.5
-0.062648416 0.22677206 -0.045784697 182.66667
0.0093492894 0.2020999 -0.027442021 152
-0.040937826 0.17151329 0.0087749446 149.25
