# .PCD v0.7 - Point Cloud Data file format
VERSION 0.7
FIELDS x y z intensity
SIZE 4 4 4 4
TYPE F F F F
COUNT 1 1 1 1
WIDTH 99
HEIGHT 1
VIEWPOINT 0 0 0 1 0 0 0
POINTS 99
DATA ascii
0.35092556 -0.91230488 -0.16166689 193
0.35548502 -0.86159825 -0.16933098 198.5
0.4713898 -0.86045837 -0.16545707 196.25
0.35857773 -0.7543667 -0.167097 196.25
0.45771641 -0.73604542 -0.16230369 195.8
0.55889738 -0.73871541 -0.15853368 196.8
0.65376514 -0.71427041 -0.15123214 198
0.35883686 -0.6382727 -0.15600087 192.39999
0.4426837 -0.62210792 -0.1523028 191.5
0.53833157 -0.65271837 -0.15890768 193
0.63371181 -0.65832525 -0.15577152 195.2
0.72567374 -0.63600409 -0.1514909 196.75
0.362968 -0.54431844 -0.15816467 188.125
0.44538701 -0.54438609 -0.15755227 188.25
0.55551022 -0.55499405 -0.15455489 190.61539
0.66516644 -0.5294835 -0.14538758 193.5
0.77215505 -0.56992364 -0.15496144 196
0.83296788 -0.54943699 -0.15119886 197
0.37075633 -0.4679935 -0.17261037 183
0.46959123 -0.46674928 -0.16527371 184.60001
0.56300431 -0.43479386 -0.15768071 185.69231
0.64928079 -0.45112944 -0.14955303 189.33333
0.7438004 -0.44956592 -0.14653423 192.55556
0.86027104 -0.44771636 -0.15653569 194.75
0.90475702 -0.43178087 -0.15247573 196
0.37471271 -0.37936902 -0.17515901 177.14285
0.44731951 -0.36131793 -0.17253795 177.83333
0.54987323 -0.34878719 -0.16913445 180.40909
0.66147822 -0.34521273 -0.15714441 185.44444
0.75359738 -0.35133618 -0.15032615 189.5
0.83726907 -0.34691629 -0.1446586 192.5
0.93138909 -0.34731334 -0.15494303 196
0.50244868 -0.29842654 -0.18000345 177
0.57169682 -0.26370838 -0.17052449 178.04347
0.63658184 -0.23567475 -0.16664876 180
0.73726815 -0.25540689 -0.1559718 185.88889
0.84942114 -0.2552627 -0.14929235 191.18182
0.93424714 -0.26079258 -0.1511593 194.5
0.65309888 -0.15930238 -0.17042609 178.41379
0.76915276 -0.15563051 -0.16021347 185.27777
0.85427928 -0.16393626 -0.15040241 190
0.92890966 -0.13296998 -0.15055928 193.33333
-0.44549394 -0.091606349 -0.20984554 178
-0.31898069 -0.07810466 -0.19999105 178
-0.23599738 -0.069373965 -0.19782647 172
-0.17864737 -0.063447878 -0.19990584 177
0.67436934 -0.059758816 -0.1718365 177.95833
0.76677924 -0.054727696 -0.16728102 183.1579
0.85595101 -0.060340609 -0.1538417 188.78572
0.94451421 -0.040550977 -0.15027106 193.33333
-0.30371162 0.030569226 -0.20246425 180.5
-0.2342663 0.057975851 -0.2024473 174.72728
-0.18500279 0.042829745 -0.20353881 176
0.67569107 0.011817925 -0.17555316 177.22223
0.76973039 0.01774581 -0.16968551 183.22223
0.85142815 0.023002639 -0.15485153 188.42857
0.94012618 0.028317776 -0.15406753 193
-0.30435964 0.13626714 -0.16129233 183
-0.25467166 0.16678613 -0.15254684 170.33333
-0.17585251 0.14984718 -0.19903551 170.5
0.25641418 0.1886563 -0.19538012 134
0.3163397 0.18255152 -0.17072295 133
-0.24012814 0.25581348 -0.20865139 177.39999
-0.13672636 0.2524223 -0.20417865 176.5
-0.01896375 0.29387793 -0.16675059 176
0.085292138 0.29104128 -0.19598196 177
0.17121817 0.24420162 -0.1215464 175.5
0.28133342 0.24939598 -0.13338995 155.5
0.3517144 0.22726095 -0.17333132 141
-0.23226559 0.34750876 -0.20147811 179.39999
-0.18439311 0.32178247 -0.20699374 177
-0.034068558 0.33889875 -0.18251374 173.33333
0.095418036 0.35848039 -0.17682636 180.5
0.1836035 0.33533943 -0.18726201 179
0.26675916 0.30961251 -0.18394928 172.33333
-0.10229691 0.47289252 -0.20441772 178
-0.068273887 0.43384063 -0.18410553 173
0.056236655 0.43499854 -0.20365809 183.85715
0.17926992 0.48720276 -0.20298661 184
0.38940015 0.49279287 -0.19790721 185
-0.32708761 0.53091943 -0.20514281 165
-0.020131052 0.51519072 -0.20897672 178
0.1560837 0.54089046 -0.20485274 186
0.23848003 0.53342474 -0.19963007 186.66667
0.36544091 0.50471479 -0.1966449 185.66667
0.21843435 0.60707188 -0.20421074 190
-0.30603513 0.17432827 -0.083995305 163
-0.29337415 0.1721518 -0.097489506 173
-0.0053898017 0.1891354 -0.034992781 146
0.004682513 0.17841579 -0.0080958912 136
0.16943371 0.17775665 -0.048608527 126.05
0.23150605 0.1730047 -0.068203226 127
-0.10251869 0.254619 -0.094017059 176
0.040507298 0.22286658 -0.058313202 142
0.15286173 0.25276482 -0.094954617 169
0.26176843 0.2041661 -0.084489532 147.66667
-0.09264522 0.32802096 -0.085782938 148
0.039764743 0.30418181 -0.10217974 149
0.01331456 0.17023863 0.0096324403 133.83333
