# .PCD v0.7 - Point Cloud Data file format
VERSION 0.7
FIELDS x y z intensity
SIZE 4 4 4 4
TYPE F F F F
COUNT 1 1 1 1
WIDTH 690
HEIGHT 1
VIEWPOINT 0 0 0 1 0 0 0
POINTS 690
DATA ascii
-12.789372 -3.1021185 2.5294054 12
-11.376455 -2.9323246 2.5896323 13
-9.5257521 4.5600986 -0.11248745 7
-9.4779444 4.903203 -0.071634322 7
-9.5441027 4.1546812 0.13106669 7.3333335
-9.5173826 4.656805 0.19093646 7.6666665
-9.065443 -3.1975601 2.1186159 13
-8.9196453 3.053663 2.1839459 14
-9.0166502 2.5079381 2.7330966 15
-9.0018816 2.863276 2.6681662 15
-8.6780558 -3.143337 0.24246646 8
-8.4796238 -3.2106392 1.5114614 12
-8.5524569 -3.2283325 2.0170069 13
-8.5703478 3.3936129 2.1855247 14
-8.0980606 -3.1405616 0.23049326 8
-8.0454397 4.2485819 0.29760656 8
-8.1048183 -2.843451 1.5838009 12
-8.272543 -3.2372839 1.7166692 13
-8.2155781 2.9454575 2.190774 14
-7.9213924 4.0978565 0.16153572 8
-7.6144962 -3.2558641 1.8320254 13
-7.7532058 2.5978234 2.1884627 14.666667
-7.6070695 2.9373739 2.202158 15
-7.8423133 3.3353088 2.1837566 14
-7.3965621 -3.2849278 1.5645397 13
-7.2509394 2.705663 2.1791167 15
-7.4043369 3.3644948 2.1609211 14.5
-6.9064507 4.1462941 0.065258577 7
-6.9699955 2.7825804 2.1439662 15
-7.1584325 3.5434172 2.1985195 15
-6.8996444 3.8680387 2.1388574 15
-6.6728973 4.1132274 0.17348988 7.5
-6.7481046 2.9651039 2.1432292 15
-6.1673923 -3.3470769 1.9937208 15
-6.3343625 3.4104421 2.1690762 15
-5.6884999 2.6054573 0.16907102 8
-5.8998127 -3.0191607 1.2636275 12
-5.7046509 2.6708808 1.4264538 13.5
-5.8404126 -3.3544216 1.9141456 15
-4.9337025 -2.9916196 1.6745148 15
-4.5507388 -1.4523594 0.20743604 8.333333
-4.7164679 2.5858612 0.23583767 8
-4.4848518 3.0256805 0.24396494 8.5
-4.4661894 3.3968415 0.27335584 8.5
-4.4698586 3.688329 0.28886658 8.5
-4.4686451 3.1319911 0.71557873 10.5
-4.4477429 3.2009161 0.53250617 10
-4.7589183 -1.3692808 0.86787826 12
-4.5039406 3.0607176 0.97165096 12.166667
-4.4151216 3.2285373 0.97599047 12
-4.693151 2.7010648 1.4829246 14.666667
-4.5209475 2.9903398 1.4046962 14.4
-4.4125295 3.2421105 1.3019593 14
-4.0696316 -3.2998977 0.23123248 8.333333
-4.1941848 -2.9370842 0.21921355 8.333333
-4.2816343 -1.3827524 0.14236648 8
-4.131855 -3.3030894 0.58038521 10
-4.1883392 -3.0287886 0.62053555 10.166667
-4.3936853 3.2415423 0.79725379 11
-4.1339808 -3.3100026 0.96902025 12.5
-4.1976404 -3.0475824 0.95800805 12.25
-4.0460587 -1.1148173 0.89929974 13
-4.4016342 3.2458847 0.9700194 12
-4.2107577 -2.973273 1.5298977 15
-4.3099003 -2.7552722 1.4882355 15
-4.3904328 3.1699407 1.4745518 15
-4.3795166 3.3281131 1.5077233 15
-3.7777581 -3.3642504 0.23653905 8.25
-3.8250067 -3.3806031 0.58700323 10.2
-3.6598566 -1.5506309 0.71464872 12
-3.7940993 -3.3913307 0.91416031 12.4
-3.6498654 -1.4792017 0.82398313 13
-3.7635236 -3.4064131 1.4528174 15
-3.9116657 -3.1666033 1.4556043 15
-3.4503751 2.4713559 0.31421366 9
-3.5827534 -3.4136879 0.69543058 11
-3.3216636 -1.0209244 0.74213666 13
-3.3824134 2.6060703 0.45029518 10
-3.490087 2.4601583 1.2254423 15
-2.9445133 -1.255591 0.23558885 9
-2.9832451 -1.162928 0.20480937 8.666667
-2.883831 -3.2923191 0.67782021 11.5
-2.831933 -1.5824851 0.40630409 11
-2.8206737 -3.4217346 0.93691581 13
-2.8863254 -3.2598729 1.2969086 15
-2.7729392 -1.6219491 0.3078489 10
-2.7095315 -1.3841175 0.28950018 9.666667
-2.4044158 -0.88986349 0.17741887 9
-2.6251667 2.3778343 0.27013791 9.166667
-2.5290258 2.5745399 0.2565181 9.1428576
-2.5199432 2.9566679 0.2197856 9
-2.5449514 3.4128151 0.26254734 9
-2.516906 3.7709062 0.29178539 9
-2.5108714 4.140697 0.30741814 9
-2.486639 4.5916262 0.31016514 9
-2.4658566 4.9669938 0.32973826 9
-2.7507284 -3.4259737 0.75104505 12
-2.6883264 -1.6428396 0.63391095 12.5
-2.6879866 -1.4327215 0.58097321 12.555555
-2.4983232 -0.87542909 0.50554264 12
-2.5902801 -0.66639167 0.5076189 12.333333
-2.6679175 2.3591857 0.60820287 12
-2.5252683 2.5773594 0.59406781 11.8
-2.5465379 2.9960108 0.59659123 11.5
-2.5498185 3.396493 0.57305062 11
-2.5473201 3.7798147 0.58597946 10.833333
-2.5431683 4.1525116 0.58307749 10.5
-2.4986427 4.5614676 0.56186938 10.2
-2.505228 4.9140062 0.6436674 10.5
-2.4557066 5.7461152 0.69715589 10
-2.4344037 6.0929418 0.72789216 10
-2.4146774 6.5674529 0.75639957 10
-2.7086689 -3.4362369 0.92404485 13
-2.6808407 -1.5054097 0.85369253 15
-2.5223002 2.5371988 0.95300692 14.5
-2.5065045 3.026742 0.96612161 14
-2.5226302 3.4103999 1.0288448 14
-2.5129304 3.7500498 0.98094386 13.2
-2.4960845 4.1764569 0.98068631 12.8
-2.5067692 4.6143537 1.0097591 12.666667
-2.5445693 4.8822064 1.0951223 13
-2.5168872 5.4561462 1.1733885 12.666667
-2.4514019 3.8464665 1.2587622 15
-2.4204686 4.2591839 1.2992872 14.666667
-2.4995494 5.7619581 1.2379593 13
-2.4836104 6.1634197 1.2736073 12.333333
-2.4557512 6.5713701 1.3355501 12.5
-2.473305 8.0231199 1.5312721 12
-2.5647225 5.5277038 1.843796 15
-2.549897 5.8602042 1.9181328 15
-2.4452693 8.0110092 1.623475 13
-2.540097 6.2397575 2.0031819 15
-2.4952881 6.6293707 2.1365199 15
-2.2983618 -2.6509159 0.19365707 8.5
-2.3973863 -0.92696702 0.20114471 9
-2.2818022 4.8820667 0.34158614 9
-2.2149928 5.2120671 0.36171436 9
-2.3186173 4.9858088 0.60038191 10
-2.16837 5.3927779 0.56731081 9.666667
-2.0053904 5.9396057 0.47706804 9
-2.1624789 6.7339268 0.64017689 9.666667
-2.1208942 6.8028445 0.50969577 9
-2.2376339 8.0309801 0.48157385 9
-2.3936651 4.9531498 0.9209727 11.666667
-2.3678904 5.3783412 1.0118552 12
-2.3197231 5.862164 0.86722153 11
-2.2929237 6.2174516 0.90300477 11
-2.1917043 6.7355323 0.99238569 11.25
-2.140836 8.0948181 1.0301259 10.666667
-2.3916452 4.5644011 1.3159375 14.333333
-2.3641994 4.9768119 1.395877 14.333333
-2.323813 5.4748998 1.4475324 14
-2.262156 6.1156273 1.5721152 14
-2.2621849 6.6417909 1.4158183 12.666667
-2.0688634 8.1167183 1.5212528 12
-2.3138609 5.6453419 1.6211835 14
-2.256223 6.3263273 1.7627095 14
-2.203105 6.6719518 1.7311752 14
-1.6762365 -3.2902794 0.17717336 8.5
-1.658241 -2.8406069 0.22022912 9
-1.7526402 -2.585696 0.22750242 9.25
-1.6536478 -2.1265414 0.27930903 10
-1.6482835 -1.0792879 0.23990393 11
-2.0001028 5.4109545 0.38813445 9
-1.6548592 -3.2839522 0.60055143 11.5
-1.7569263 -2.9230816 0.54036152 11.666667
-1.7310867 -2.5664551 0.59927177 12.6
-1.6547935 -2.1657488 0.54074585 12.25
-1.6562698 -1.765628 0.57942826 13.5
-1.975832 6.7212524 0.55217803 9
-1.6850059 -3.2812238 0.94008166 14
-1.8187398 8.0907822 1.0630071 11
-1.758983 6.7623577 1.7617173 14
-1.9825253 6.8022733 1.7011448 14
-1.3761287 -3.3763273 0.25174439 8.8999996
-1.5689472 -1.6614841 0.2069345 10
-1.5740138 -0.9608134 0.26289198 11
-1.5622164 -0.65078849 0.31199113 12.2
-1.5226859 -0.34780312 0.34720376 13
-1.3575056 -3.3885794 0.59948832 11.5
-1.5954543 -2.2931895 0.58402723 13
-1.5702479 -1.0144466 0.47935978 14
-1.5364149 -0.76474404 0.42182833 14
-1.2705078 4.4420481 0.44526926 10
-1.3528401 -3.3798907 0.9628697 14.125
-1.3210043 6.5877542 0.81584424 10.333333
-1.4286232 6.6137505 1.3451041 12.6
-1.4039102 6.6717653 1.8213323 14.333333
-0.98593277 -3.4716094 0.20285642 8.5
-1.1695486 4.4828081 0.39172578 9
-0.98808151 -3.4540505 0.5644877 11.5
-1.1018516 4.4512134 0.42851561 10
-1.0205905 6.5592246 0.75034374 10
-0.99054772 -3.4391935 0.90501517 14
-0.96859705 6.5508552 0.98425454 11.5
-0.97307193 6.5462117 1.3793925 13
-1.0350331 6.5816126 1.7896718 14.333333
-0.42887184 -1.4147967 -0.1668279 4
-0.43513799 -0.9578805 -0.17282082 2.5
-0.47108805 -0.57704008 -0.18598473 0.33333334
-0.46982616 -0.39123905 -0.1801738 0
-0.59901619 -3.4898927 0.20121774 8.5
-0.58978629 -3.4796851 0.5786891 11.555555
-0.58799756 6.5366926 0.7387324 10
-0.59974289 -3.4616892 0.93049622 14.5
-0.61596107 6.5356922 0.9894684 11.5
-0.61611795 6.539422 1.432896 13.333333
-0.61359793 6.5445585 1.7773206 14.5
-0.12292024 -3.5044217 -0.022907522 7
-0.31822094 -2.5888188 -0.16547306 5
-0.22502208 -2.2366781 -0.16139019 5
-0.17993453 -1.7634584 -0.15975098 4.3333335
-0.2097427 -1.345908 -0.16319802 3.6666667
-0.19405422 -0.97503519 -0.17282833 2
-0.19708234 -0.65271443 -0.17406231 0.33333334
-0.12740183 1.8464075 -0.2153911 4
-0.055834185 2.1159725 -0.22057164 4
-0.15028186 2.594228 -0.24315551 4
-0.059553068 4.9648051 -0.012530035 7
-0.1959331 -3.5101988 0.18774778 8.5
-0.2223969 -3.5044575 0.62302881 12
-0.12445738 4.3686495 0.46619895 10
-0.18511541 6.4623461 0.75294799 10
-0.19148067 -3.5000477 0.92290771 14.5
-0.20717745 6.4760785 0.98350888 11.5
-0.21443146 6.4974947 1.4160367 13.2
-0.24014996 6.505137 1.8024741 14.666667
0.25637549 -3.4623425 -0.054814644 6.6666665
0.35777807 -2.9646726 -0.13956796 6
0.18907616 -2.6268618 -0.14426534 5.5
0.21593232 -2.2516751 -0.1431751 5
0.24502651 -1.8134773 -0.13884029 5
0.2147962 -1.4074445 -0.14683306 4.1428571
0.20598257 -1.003029 -0.16283317 2.5
0.21670251 -0.6520918 -0.16669497 0.5714286
0.24767233 0.67493647 -0.18953454 0.16666667
0.23300213 0.96460426 -0.20158345 1.2
0.20017526 1.3462168 -0.20071256 2.7142856
0.16703638 1.7821301 -0.20237745 4
0.21637842 2.1455252 -0.21146065 4
0.1848985 2.5953867 -0.22711748 4.5
0.14899315 3.127768 -0.25076804 5
0.11651896 3.6016757 -0.26988998 5
0.21251568 -3.5324717 0.17415188 8.5
0.18632643 -3.5229335 0.62261063 12
0.21568024 6.5068316 0.71652704 10
0.18285769 -3.5346122 0.92602777 14.6
0.21992299 6.5020132 0.95348626 11.333333
0.17549212 6.4985919 1.4014586 13
0.17701744 6.4974961 1.7898105 14.666667
0.67686671 -3.4704781 -0.051744521 6.6666665
0.72939324 -2.8994508 -0.12297506 6
0.67674798 -2.4988325 -0.11543334 6
0.63682854 -2.1764047 -0.11866766 5.5
0.65989077 -1.7709508 -0.12348978 5
0.63595027 -1.4027162 -0.13575977 4.5
0.59804356 -0.98133326 -0.15323573 3.25
0.55281699 -0.62244332 -0.16220969 1.625
0.47667128 -0.35230967 -0.16974187 0
0.66315085 0.24858196 -0.16383652 0.66666669
0.60038847 0.59311366 -0.16638683 1.5
0.57055837 0.96896362 -0.18537174 2.2857144
0.57898974 1.37156 -0.18554842 3.5
0.61387801 1.8093002 -0.18529533 4.1999998
0.5838564 2.1349053 -0.19539557 4.6666665
0.51484615 2.5656874 -0.21155182 5
0.54193944 3.0334513 -0.2255521 5
0.56981289 3.5007627 -0.24258859 5
0.61152065 4.3454633 -0.24068476 5
0.68057954 6.5343084 -0.088888533 7
0.59220988 -3.5454938 0.20306584 8.7142859
0.55747718 5.0033412 0.086626358 7.5
0.60758114 6.4810266 0.17578298 8
0.5993219 -3.5405638 0.6454525 12
0.61207348 4.3380075 0.50654197 10
0.59886235 6.4826694 0.71959478 10
0.62643009 -3.5624995 0.89066029 14.2
0.65260595 6.4793825 0.96217579 11.333333
0.62550646 6.4773459 1.406711 13
0.56117755 6.4837546 1.7419676 14.5
0.82413703 -3.6723516 -0.11165377 6
1.0063688 -3.5634181 -0.010810799 7
1.1580733 -3.0926709 -0.10173275 6
1.0316576 -2.5989537 -0.10738867 6
0.9206652 -2.1619394 -0.11585523 6
0.96410251 -1.8283501 -0.1194315 5.25
0.926911 -1.4016445 -0.12828098 4.75
0.81525105 -1.1152619 -0.14151275 4
0.94521576 0.22735687 -0.14119308 2.6666667
1.0026383 0.59789783 -0.1527333 3.25
0.96017432 0.98799765 -0.16582923 3.6666667
0.98785377 1.3581958 -0.16530772 4
1.009277 1.7295537 -0.16832186 4.6666665
0.97766709 2.21878 -0.18279605 5
1.0074497 2.5263333 -0.18828002 5
0.9105472 2.8988185 -0.20225257 5
0.98476326 3.2943344 -0.21139951 5
1.0881788 3.8426602 -0.22606425 5
1.0616678 -3.6016207 0.074457839 7.5
0.96522421 -3.563575 0.23959821 8.833333
1.1883026 4.73628 0.39722016 9
1.1133094 -3.6140652 0.50781548 11
0.91389292 -3.5516186 0.69641119 12.25
0.94981146 4.3603973 0.5103724 10
1.0051113 6.4934058 0.73685068 10
1.0534515 -3.6149778 0.96615046 14.5
0.92683548 -3.568749 0.88238055 13.75
0.95360035 6.4858003 0.95628792 11.333333
1.0018015 6.465445 1.4134783 13
0.99182957 6.4626913 1.788115 14.5
1.2438065 -3.5274084 -0.053071313 6.5
1.5850891 -3.057265 -0.10036276 6
1.4219356 -2.6509643 -0.10092597 6
1.26805 -2.264451 -0.1065601 6
1.4423077 0.31170839 -0.12615003 4.5
1.3932226 0.60167837 -0.13123585 4.5
1.361014 1.0339279 -0.14715958 4.5999999
1.3816588 1.4014572 -0.15153995 5
1.4065242 1.8811752 -0.16090173 5
1.3533045 2.0954919 -0.16961297 5
1.4187242 2.6669755 -0.18112661 5
1.361442 3.081378 -0.18889739 5
1.5205293 3.5729773 -0.1990066 6
1.2227041 4.687633 -0.15519679 6
1.4672027 6.0556841 -0.14096723 6.5
1.3122829 -3.6539237 0.10269939 8
1.3563205 -3.5396144 0.22486378 8.7142859
1.4923975 -1.310536 0.26201105 10.857142
1.4586384 -1.1678376 0.21910301 10.25
1.4465811 6.3087759 0.10925426 7.5
1.4329411 6.477119 0.27525827 8
1.2928134 -3.6173384 0.51490682 11
1.4832816 -3.5307219 0.57849538 11.666667
1.5713223 -1.2914068 0.44073546 13.5
1.5838087 -1.1394639 0.41977102 13
1.4145645 4.3421721 0.48407543 10
1.3961254 6.4548469 0.5800218 9.5
1.4160645 -3.5417805 0.93322057 14
1.351733 6.4532518 0.96261948 11.333333
1.381032 6.4417791 1.4199765 13
1.4455988 6.4297605 1.786615 14.5
1.8743554 -3.7973554 -0.06881132 7
1.9743687 0.5452382 -0.11907463 5
1.8127382 0.97224498 -0.12863657 5
1.7167226 1.3796175 -0.14154279 5
1.6982824 1.6043313 -0.14664653 5
1.7800599 2.2248306 -0.16713615 5
1.7385135 2.9155221 -0.18033108 6
1.9540393 3.3732297 -0.18826656 6
1.9037478 -3.7043521 0.14936949 8.333333
1.7306962 -3.5030148 0.2872282 9.25
1.7939032 -1.2922444 0.22858752 10.083333
1.8780937 -1.036669 0.22846593 10.125
1.9724511 -0.74507779 0.23823544 10.4
1.7264684 4.5354991 0.17818704 8
1.8107741 -3.7340579 0.53060514 11
1.7065474 -3.5562465 0.58028466 11.5
1.9008638 -1.6861773 0.62265623 14
1.7586269 -1.3374249 0.60584289 14.428572
1.8910371 -1.0520109 0.50665551 13.666667
1.9704748 -0.75585848 0.48288009 13.5
1.7095772 4.3284588 0.49892893 10
1.9605979 6.070641 0.68676448 10
1.8386023 6.4188218 0.56360996 9.5
1.8983567 -3.6852357 1.0626553 14.333333
1.7319384 -3.5252206 0.96139747 13.75
1.9698679 5.7701492 0.98190796 12
1.9760034 6.3367996 0.89361155 11
1.7727321 6.4261212 0.99662334 11.5
1.8969768 5.8051682 1.4011436 14
1.8269851 6.3827801 1.462431 13.333333
1.7716079 6.420289 1.3930771 12.8
1.9030972 5.8267045 1.8323213 15
1.8727072 6.3792181 1.635566 14
1.7840178 6.4386868 1.9459518 15
2.2249022 -3.6174119 -0.0084689995 7
2.0889108 0.70224458 -0.12099076 5
2.072932 0.95220393 -0.12138621 6
2.0765676 1.3723657 -0.13181801 5.6666665
2.0260065 1.9976319 -0.15531582 5
2.2039671 2.2131262 -0.15395413 6
2.0456276 2.6435902 -0.17189877 6
2.2697568 2.9980836 -0.17334795 6
2.2373531 5.8677239 -0.14920515 6
2.1592071 -3.6773272 0.16246207 8.1999998
2.1620109 -3.5920465 0.39272732 10
2.1645935 -0.7120297 0.22149897 9.8999996
2.1032023 5.7323565 0.372953 9
2.1512094 6.1962848 0.24800655 8
2.2382689 -3.6759837 0.57878757 11.2
2.2077625 -3.5892451 0.40312007 10
2.392657 -0.80415523 0.5747239 13
2.1966712 -0.69932562 0.55369723 13.833333
2.2090003 5.7288914 0.68282688 10.2
2.1854191 -3.709708 1.0824677 14
2.2403355 -3.5774279 0.9324131 13
2.1914937 5.7394633 1.006024 11.6
2.1768425 -3.7084203 1.2408898 15
2.2454917 5.7243528 1.4013711 13.4
2.1327219 6.3346758 1.5968565 14
2.1986012 5.7792182 1.753457 15
2.6254113 -3.6307678 -0.0044405679 7
2.6554291 1.2778914 -0.11587589 6
2.5202355 1.7987349 -0.13165022 6
2.7444654 2.8659737 -0.15499119 6
2.5967391 -3.6824975 0.14805736 8
2.5687907 -0.74130678 0.22930825 9.4444447
2.5580637 -3.6718655 0.57201076 11
2.4852684 -3.5962515 0.40821293 10
2.7596657 -0.83771229 0.53729826 12
2.6094248 -0.71458423 0.53457689 12.666667
2.6045375 5.7079935 0.60143447 9.833333
2.5205622 -3.7448542 1.072688 14
2.5956879 -3.5816486 0.98506874 13
2.6187563 -0.84514666 0.81546217 15
2.535902 5.7294674 1.0142227 11.333333
2.4576187 -3.7276423 1.2888269 15
2.4540327 5.7016425 1.3824039 13.333333
2.7658823 6.0072322 1.4835997 13
2.5213559 5.7750373 1.7603842 15
2.9684868 0.70955372 -0.10418932 6
3.1762068 1.1474046 -0.10308017 6
3.0583649 2.53878 -0.13478076 6
3.0121634 5.6712704 -0.13769944 6
3.160192 -3.6379554 0.080608413 8
3.1786156 -0.85018229 0.35030198 10
2.8962579 -0.75299489 0.19039412 9
3.0000112 5.6845675 0.22087504 7.6666665
3.0590448 -3.6978729 0.56865025 10.666667
3.1712966 -3.588558 0.51464015 10
2.9981186 -0.72956848 0.59381199 12.5
2.9466927 5.699152 0.59958875 9.8000002
2.8649468 -3.5741065 1.0281799 13
2.9497943 -0.87517184 0.88222253 15
2.8764164 5.7164664 1.0345165 11.5
3.0426266 5.8600717 1.4523182 13.333333
2.9083509 6.0245123 1.4161296 13
2.9834027 5.8368616 1.7614521 14.333333
2.8079545 6.0194178 1.7419006 14
3.4347618 1.7173592 -0.081533082 6
3.2083392 2.0886998 -0.11582122 6
3.4300115 -0.83136988 0.049294077 7.5
3.3805285 -0.77740049 0.20917414 9
3.4375346 1.4566745 0.21843944 8.666667
3.3389738 1.829874 0.20254293 8.5
3.4057095 5.6690106 0.27366221 8
3.4031451 -0.74399543 0.65058988 12.5
3.42577 5.6940002 0.51756752 9.333333
3.4443667 -0.91938478 1.029804 15
3.5037591 -0.71399027 1.0767092 15
3.5023277 6.2249131 0.91806495 10.5
3.345968 5.8739395 1.5032638 13.4
3.398623 6.2976317 1.2041178 12
3.274518 5.9599905 1.8317558 14.5
3.4629958 6.0622964 1.9573361 15
3.8945241 -0.88382006 -0.010591794 7
3.656173 2.418781 -0.10908012 6
3.8828449 5.5924177 -0.081030078 7
3.9145985 5.6136618 -0.15046738 6
3.6744919 -0.80435139 0.039364967 7
3.8078747 -0.79289991 0.22065617 8.333333
3.6171896 1.4462774 0.16071148 8
3.6269858 1.7893798 0.16380733 8
3.6321511 2.1131339 0.24380821 8.333333
3.8470616 5.5927086 0.05509311 7
3.811729 5.6462407 0.29174596 8.333333
3.9099615 -0.77690941 0.53260916 11
3.8984091 5.7343349 0.50546402 9.333333
3.9519129 -0.96858001 1.0851202 15
3.7417419 5.8923168 0.80811417 10
3.7752478 6.2634535 1.00344 11
3.8141665 5.8580275 1.4678267 13
3.7796378 6.2723622 1.2024361 12
3.830832 5.8092551 1.7478958 14.25
3.6879728 6.1147599 1.9827145 15
3.859941 6.3005414 2.2387331 15
4.2805877 -0.88730198 0.1912975 8.5
4.2337279 5.6005406 0.20213717 8
4.204742 5.6281681 0.29865009 8.5
4.1237426 -0.938999 0.59003538 11.5
4.114491 5.6336389 0.5758329 9.333333
4.129086 -0.74555504 0.99611408 13.666667
4.1455846 6.2244353 0.93614441 10.666667
4.0269465 -0.96117997 1.2078602 15
4.2139597 5.8615637 1.4516324 12.5
4.1816502 6.2520099 1.2018433 12
4.2227397 5.80797 1.7172064 14
4.14397 6.2593384 2.2517867 15
4.7350044 -5.0611048 -0.03394473 7
4.7507634 -4.6779695 -0.074623205 7
4.6694698 4.0527868 -0.16052219 6
4.5685506 -5.3074746 0.18326777 7.6666665
4.598093 -5.021409 0.33090043 8.333333
4.6317849 -4.618866 0.10848156 7.6666665
4.6675777 -4.2730398 0.10442554 7.75
4.6385798 -0.84090501 0.25089553 8.5
4.7097826 3.8472841 0.23478691 8
4.600738 4.1241703 0.22264038 7.75
4.5433226 4.654335 0.30296278 8
4.5626283 4.9931145 0.32316041 8
4.6197848 5.5845275 0.35341224 8
4.7227526 -5.014957 0.53301275 9.3999996
4.7129135 -4.5780501 0.60343063 9.8000002
4.6794605 -4.223525 0.6293748 10
4.5826221 -0.8165924 0.43741912 10
4.5646839 -0.78521925 0.69503492 11
4.7075181 3.8315282 0.42946839 9
4.5986824 4.1915226 0.57524091 9.5
4.5563917 4.6354895 0.48853636 9
4.589282 4.8337116 0.51544923 9
4.7148399 5.5818925 0.52605253 9
4.5588164 5.6415305 0.65732449 9.5
4.525507 -5.3785386 0.98118204 11
4.5573239 -5.0745964 0.97501433 11
4.5555687 -4.6516247 0.96306854 11
4.7397299 -0.79758078 0.82341212 12
4.783751 -0.77299756 0.9371568 13
4.5753393 6.206398 0.91995609 10.5
4.4900889 -5.3358092 1.3283076 12
4.5303884 -5.0108442 1.3065418 13
4.5162334 -4.7623816 1.2841326 13
4.6782055 -4.1850996 1.4946997 13.75
4.6441941 5.8266602 1.455112 12.4
4.6146574 6.2394381 1.2036877 11
4.4937005 -5.2395988 1.8752592 15
4.5160017 -4.9695616 1.7534542 14.5
4.502985 -4.5468912 1.7021937 14.5
4.4950705 -4.2448621 1.7534753 15
4.5006175 5.699779 1.6523484 13.5
4.557035 6.1574998 2.2650335 15
4.8835425 -0.90659416 0.0074372971 7
5.0070386 3.7804072 0.12462538 7.5
4.8855724 5.5155544 0.040938325 7
5.1462083 -6.7335238 0.63523608 9
4.9468713 3.7937639 0.41659728 9
4.8397322 4.1248927 0.60614502 10
4.9588814 5.5452251 0.58902311 9.333333
4.8418384 5.6063294 0.56621915 9
5.1323404 -6.8378367 0.865408 10
5.1420145 5.5980043 1.1211001 11
5.0701337 5.7480311 0.98964334 10.5
4.9906869 6.0924492 1.0148393 10.5
5.0414968 -6.7581296 1.5237204 12
5.1909962 4.1248426 1.4601487 13
5.1760898 5.5887179 1.3486117 12
5.0056987 5.7308521 1.4359881 12.333333
5.1835041 4.2240796 1.6770929 14
4.963141 5.7042551 1.7342987 13.333333
5.0221553 5.9521041 2.2602327 15
5.0039215 6.2652965 2.1061273 14
5.3995023 -0.89226109 -0.09754695 6.5
5.4614019 -0.58640373 -0.10240377 6.5
5.4912858 -0.16600691 -0.11814155 6.3333335
5.507689 0.18049097 -0.1227527 6.3333335
5.5423646 0.59250152 -0.11219607 6.5
5.5750642 0.96305633 -0.098244168 6.6666665
5.5863957 1.4225478 -0.025966849 7
5.5950031 1.6738477 -0.0049827565 7
5.4558163 3.6605194 -0.017167484 7
5.2462173 -6.9614697 0.2289858 8
5.3673258 -6.7573328 0.16340812 7.5
5.444078 -0.83565342 0.25701374 8.5
5.4574037 -0.62190205 0.21241215 8.1999998
5.4821973 -0.22460914 0.20463578 8
5.5076532 0.19249566 0.17225888 7.8571429
5.5354981 0.58561987 0.19317913 8.1428576
5.550663 0.95642233 0.20918207 8.1999998
5.5769787 1.3898082 0.17657381 8
5.5910478 1.7087507 0.20672014 8
5.3814201 2.7751994 0.23266442 8.5
5.3769794 2.8184299 0.15379073 8
5.4453454 3.3350356 0.25960937 8.5
5.51086 3.7236857 0.24442235 8.333333
5.4348812 -6.6218138 0.60604107 9
5.4317141 -0.85783553 0.65598226 10.5
5.453167 -0.63115329 0.6159755 10.4
5.4827671 -0.14991063 0.57219851 10
5.5073113 0.20614959 0.59143549 10
5.5206695 0.6516152 0.58565891 10.25
5.5513568 0.99287367 0.63720787 10.5
5.5625496 1.4225258 0.58921432 10
5.5830908 1.8130486 0.54665506 9.5
5.5924435 2.0755832 0.57679975 9.5
5.4635353 2.7789996 0.61080819 10
5.358017 2.8808057 0.74752009 10.5
5.4206967 3.3677568 0.65009487 10.25
5.4211154 3.790447 0.66346318 10
5.2567058 4.21665 0.69914168 10
5.25453 4.5463066 0.76357335 10
5.4034963 5.4031534 0.68755454 10
5.4357953 -0.91507113 0.80696434 11
5.4514174 -0.57895148 0.98632312 12.2
5.476047 -0.17474081 0.96759611 12
5.4912734 0.24987794 1.0371703 12.4
5.5147672 0.60824561 0.95327973 12
5.5272079 1.0292625 1.0333396 12.4
5.5450172 1.3592051 1.0524722 12.25
5.5716319 1.8170046 0.95683336 11.5
5.5861855 2.196202 1.0521621 12
5.4426937 2.7133119 0.99672788 11.5
5.4595733 3.0121891 1.1828424 12
5.4509053 3.4304376 0.9079423 11.333333
5.410562 3.7209239 0.89539522 11.25
5.2381973 4.194077 1.0303283 11.5
5.3005896 4.5800109 1.0209424 11.25
5.2903466 4.9991546 1.0427846 11
5.3389053 5.4291868 0.98365897 10.666667
5.3202758 -0.97632831 1.4334303 14.5
5.4491639 -0.59529209 1.4280783 14.2
5.4726019 -0.24310966 1.4721844 14.5
5.4830456 0.185238 1.3113062 14
5.5204582 0.58510399 1.3930029 14
5.5344443 0.96213305 1.3461499 13.8
5.5377798 1.437113 1.4049376 14.2
5.5561686 1.7902524 1.401686 13.8
5.5790086 2.1969821 1.4243098 13.5
5.5909686 2.4522476 1.3831959 13
5.4066901 2.9009976 1.3487436 13.333333
5.5102549 3.4228332 1.4076035 13.142858
5.4122353 3.6914427 1.396721 13
5.2304387 4.1615109 1.3441899 13
5.241992 4.6602817 1.3997998 12.666667
5.2605071 4.9125724 1.3952147 12.5
5.3222628 5.3403401 1.429401 12.5
5.413115 -1.0031196 1.6706438 15
5.3189611 -0.77232134 1.6189395 15
5.4922075 -0.071533374 1.610715 15
5.4997935 0.22280112 1.642345 15
5.5900936 0.6756255 1.5990462 15
5.5910182 0.81227422 1.6185462 15
5.5658627 1.9194678 1.6332177 15
5.5911736 2.2770338 1.7085589 15
5.5895576 2.4952209 1.7535048 15
5.4361863 3.1249442 1.7657934 14.5
5.3665743 3.3878922 1.9090812 15
5.443275 3.7310557 1.6029351 14
5.3501501 4.0763302 1.8631793 15
5.3942056 4.4968715 1.7755475 14.333333
5.2950678 4.9904108 1.7417634 13.5
5.2587767 5.4710889 1.7272208 13
5.4772611 5.7784395 2.2658088 15
5.3639393 6.248004 2.1300931 14
5.6406841 1.4351987 -0.15170611 6
5.6298509 1.845769 -0.16506444 6
5.6626492 2.1976902 -0.14102085 6
5.6183639 2.6984863 -0.098995015 7
5.7345848 4.0469165 -0.021040112 7
5.6016941 1.3855622 0.059463788 7.5
5.627212 1.8369629 0.17801663 8
5.627183 2.1761835 0.10885386 7.3333335
5.6571674 2.5427339 0.17896746 7.5
5.7251601 3.1278131 0.066555612 7
5.6440854 3.2605619 0.084609255 7
5.5979476 3.6460755 0.37889829 9
5.7457275 4.0481277 0.14304428 7.5
5.6069908 1.4205207 0.54916942 9.666667
5.6472545 1.6619401 0.78727037 11
5.6251316 2.1581202 0.53461564 9.5
5.6439943 2.6485353 0.63378567 9.75
5.6372967 3.1488452 0.55159563 9
5.6207681 3.2700043 0.69111091 10
5.732193 4.0904093 0.41178098 9
5.6720915 1.9473345 0.80958974 11
5.6262259 2.2235124 0.96856546 11.5
5.6232839 2.5811179 1.0319611 11.5
5.7334638 3.0469525 0.89583647 11
5.678349 3.2225981 0.86315095 11
5.6696219 4.1182628 1.0429291 11.5
5.6196566 1.2395878 1.274218 13
5.6728444 1.7950603 1.3331245 13
5.6075706 2.6728153 1.3312228 13.25
5.7092962 3.1412287 1.343855 12.5
5.6179552 3.2632823 1.285583 12.5
5.8241477 3.8509307 1.4208329 12.5
5.6671562 4.1321745 1.4172547 12.75
5.6134033 1.0239878 1.6546441 15
5.6407471 1.3128015 1.7070889 15
5.6755471 1.6864797 1.778326 15
5.6441259 2.3203084 1.6218343 14
5.6024199 2.7010405 1.7047909 14.5
5.6113353 2.861634 1.7387586 14.5
5.6390471 4.1689291 1.7105585 14
5.6033955 5.3931775 1.9614474 14
5.6473527 3.8339753 2.0534201 15
5.6721973 4.131494 2.1255491 15
5.6957979 4.7690139 2.0593901 15
5.7126713 5.0101414 2.1146495 15
5.7289739 5.3867979 2.2028723 15
5.7177391 5.7653933 2.1704702 14.5
5.6974845 6.1764307 2.1404729 14
