# .PCD v0.7 - Point Cloud Data file format
VERSION 0.7
FIELDS x y z intensity
SIZE 4 4 4 4
TYPE F F F F
COUNT 1 1 1 1
WIDTH 145
HEIGHT 1
VIEWPOINT 0 0 0 1 0 0 0
POINTS 145
DATA ascii
-0.27801535 -0.93006611 -0.16254942 165
-0.11964619 -0.94946522 -0.15143864 175
-0.099143974 -0.91339177 -0.15707831 185
0.02109986 -0.95628381 -0.14379027 189
0.16626334 -0.93446249 -0.1460402 191
0.29440251 -0.92613447 -0.14075148 198
-0.43316746 -0.87409407 -0.14813788 147
-0.38688922 -0.82440531 -0.14972019 157.5
-0.2367757 -0.87342781 -0.16686334 176.66667
-0.19705625 -0.81803048 -0.16919401 189
-0.059067614 -0.83651537 -0.15791252 196.25
0.061361648 -0.8488912 -0.14744213 198.5
0.18232027 -0.86738294 -0.15062316 198
0.29881865 -0.89851868 -0.1477903 200
0.30259591 -0.85302424 -0.14835545 198.5
0.42284742 -0.86421067 -0.15861264 200.25
0.53026831 -0.82432473 -0.14458294 170.33333
-0.54116791 -0.76805335 -0.16041479 144
-0.47626278 -0.71447158 -0.16302292 157.5
-0.32803175 -0.76251495 -0.15533848 176.33333
-0.1519483 -0.75435024 -0.17018668 197.75
-0.01847592 -0.75895184 -0.15923816 198.5
0.050231621 -0.732903 -0.15135363 197
0.13157882 -0.73888123 -0.15190181 195.25
0.20987168 -0.74761766 -0.15531279 195.25
0.31017286 -0.7604562 -0.14917427 195.39999
0.41637081 -0.74602002 -0.15970531 195.8
0.51329452 -0.73465025 -0.14663535 183.75
0.61653394 -0.73908091 -0.14021222 176.5
-0.6637252 -0.67134029 -0.17118117 136
-0.57847446 -0.61628753 -0.16992019 150
-0.42657185 -0.6743052 -0.16801773 170.5
-0.35979721 -0.61696005 -0.16286671 185.5
-0.2525048 -0.68176877 -0.15884963 194.5
-0.18891522 -0.61165637 -0.15589909 196.5
-0.079628102 -0.65018362 -0.16732737 196
0.031466689 -0.66268212 -0.15953131 193
0.14282821 -0.62281227 -0.1448901 191.8
0.2331796 -0.6324923 -0.14987557 191.33333
0.31825393 -0.64327252 -0.14547144 191.8
0.44331032 -0.62360549 -0.14557593 192.33333
0.58818012 -0.65227151 -0.14340246 184.75
0.67000061 -0.65143842 -0.14523309 179.2
0.71459794 -0.69618791 -0.14576633 175
-0.51835048 -0.57839203 -0.17315571 166
-0.43601534 -0.52592576 -0.17502205 180.25
-0.32730818 -0.59168833 -0.16959871 193
-0.25549081 -0.53146613 -0.16914405 196.2
-0.14639904 -0.56657308 -0.15888909 194
-0.033205893 -0.54809326 -0.15752131 191.8
0.059635479 -0.55912453 -0.15522283 190.25
0.17042376 -0.52153456 -0.15297784 186.38461
0.25919789 -0.52689201 -0.15955828 185.63637
0.33962232 -0.52995914 -0.14945647 186.38461
0.43696943 -0.53509665 -0.15169148 187.38461
0.55500162 -0.55540597 -0.14212774 186.66667
0.63797939 -0.54053146 -0.14857364 185.85715
-0.33184037 -0.45913842 -0.17555304 195.39999
-0.27917665 -0.42590329 -0.17815062 194
-0.14986444 -0.44111916 -0.16223007 191.42857
-0.036085658 -0.44588965 -0.15638925 187.75
0.046650257 -0.44780385 -0.17263743 185.2
0.13416223 -0.46890303 -0.16695723 184.27272
0.25018215 -0.43434021 -0.16208544 180.66667
0.35075194 -0.43417683 -0.16139929 180.39999
0.44532335 -0.46746156 -0.16624308 183.22223
0.55501604 -0.44375622 -0.15952949 184.08696
0.6069718 -0.47849241 -0.14826593 185
-0.78656662 -0.3890942 -0.18844533 136
-0.21688372 -0.38327214 -0.16649425 192.75
-0.13368577 -0.33077335 -0.17061989 187.3
-0.062164221 -0.35446328 -0.17684846 184.8125
0.061121397 -0.33702788 -0.17748293 179.29411
0.15397483 -0.37059745 -0.17773099 178.36
0.24835335 -0.36558858 -0.18482174 174.44827
0.343647 -0.36575821 -0.18577588 174.32259
0.45257673 -0.34571132 -0.1826943 175.45833
0.53748631 -0.33354896 -0.17167823 178.28572
-0.50028878 -0.28536907 -0.11760029 154
-0.35848185 -0.24777538 -0.18727151 194.25
-0.24511237 -0.24717374 -0.17306349 190.55556
-0.15429972 -0.25536644 -0.16446394 182.10001
-0.039629038 -0.237756 -0.18454815 180.45
0.03477446 -0.27642649 -0.18840225 177.91667
0.15916666 -0.23696375 -0.18208565 170.35484
0.2548542 -0.24105975 -0.17920205 168.03572
0.35045063 -0.23802587 -0.1789145 169.13235
0.45076323 -0.23395362 -0.18364167 171.07895
0.5194084 -0.27321875 -0.19672805 174.375
-0.21537265 -0.19430012 -0.13944629 191.5
-0.18018667 -0.18844616 -0.1830124 185.28572
-0.055041242 -0.14525947 -0.1684704 163.09091
0.078488223 -0.13897139 -0.19132161 170.18182
0.147929 -0.15664186 -0.1897459 167.22449
0.23200795 -0.18949538 -0.19189519 166.57895
0.36705038 -0.1822349 -0.19456598 166.60606
0.43827096 -0.15874648 -0.19276945 167.08928
0.097833812 -0.097903505 -0.19372483 167
0.11394172 -0.092891395 -0.19657922 167
0.47916064 0.068118297 -0.1984756 167.08333
0.51955897 0.07016062 -0.20034911 167.5
0.64351892 0.097198039 -0.19312371 172.60001
0.34604096 0.16227233 -0.14198311 128
0.46136373 0.13697687 -0.20006743 167.06383
0.53070712 0.13772157 -0.20062497 169.23077
0.65037215 0.14838198 -0.18464001 160.08571
0.74070138 0.15869129 -0.16832151 149.38889
0.84782153 0.17883237 -0.16525111 162.5
0.24924487 0.24979691 -0.15079291 155.75
0.32202566 0.25072661 -0.1724432 154.75
0.47827664 0.29800448 -0.20174846 167.5
0.55256134 0.2614598 -0.19155306 170.69565
0.65705454 0.24698497 -0.18816893 168.17857
0.74826843 0.25195777 -0.16996145 160.30769
0.83835053 0.25638455 -0.17079273 163.14285
0.93873024 0.24596633 -0.17854252 153
0.17893164 0.36499116 -0.19548342 180
0.25794819 0.30999655 -0.18462381 171
0.38873169 0.3765451 -0.20055558 176.28572
0.46205238 0.34062997 -0.19703248 174.05556
0.54571921 0.34291008 -0.19486459 176.25
0.63923579 0.3517471 -0.18759367 181.18182
0.74746245 0.34912172 -0.17931406 166.625
0.83331841 0.32204238 -0.17542817 164.33333
0.90863675 0.37195516 -0.19064319 159
0.33225483 0.49745032 -0.20219845 184
0.43964165 0.48018602 -0.19832584 184.625
0.55193597 0.43647647 -0.19252521 184.23077
0.66430908 0.46377477 -0.18826351 188.14285
0.75433421 0.44188944 -0.19350968 173.33333
0.84846115 0.44472259 -0.19637099 162.16667
0.3301394 0.51111025 -0.20016463 186
0.45031789 0.53288335 -0.19796172 187.66667
0.55997914 0.56120527 -0.20245853 190.66667
0.6246199 0.52373362 -0.19747098 189.75
0.74185759 0.56216657 -0.19883555 191.25
0.81576598 0.51478702 -0.19523436 158.5
0.68167716 0.64387447 -0.20460159 191
0.77505344 0.6148771 -0.1985355 185
-0.12060125 -0.22466661 -0.081255369 190.5
-0.22143614 -0.18726224 -0.070848361 174.7
-0.057134639 -0.18444714 -0.024668487 159.55556
0.25547311 0.18687972 -0.083604045 127.72222
0.22229955 0.22637755 -0.08657407 164
-0.051007826 -0.17549694 0.0096986732 139.39999
