# .PCD v0.7 - Point Cloud Data file format
VERSION 0.7
FIELDS x y z intensity
SIZE 4 4 4 4
TYPE F F F F
COUNT 1 1 1 1
WIDTH 147
HEIGHT 1
VIEWPOINT 0 0 0 1 0 0 0
POINTS 147
DATA ascii
-6.6501055 -2.2326105 0.86502099 10
-4.2707639 3.0463269 0.38099113 9
-4.2982812 3.0550222 0.48391438 10
-4.2371378 3.0443597 0.72206509 11
-4.3062863 3.0744283 0.90634584 12
-4.2949929 3.0726259 1.3875632 14
-4.0993166 -2.1710844 0.19524154 8
-4.0149679 4.3462434 0.14415069 8
-4.1477718 3.3654513 0.2245883 8
-4.1235094 3.5481143 0.52156061 10
-4.1151171 3.919359 0.45864803 9
-4.1273441 3.4281528 0.9553169 12
-4.1576476 3.0300291 1.0322087 13
-4.0657167 3.5980296 1.1165895 13
-4.1824703 -2.5405068 1.358712 15
-4.0887599 4.0625262 1.3985275 14
-3.9121013 -2.8925154 0.11411074 8
-3.9930046 4.5469894 0.5913949 10
-3.9638433 4.6566582 0.43428591 9
-3.9594281 -1.7062066 0.88237619 13
-3.8397505 5.3435349 0.9932279 11
-3.9315708 -1.3812625 1.1189802 14
-3.9657605 4.7190547 1.0925602 12
-3.8059459 5.4803953 1.1858974 12
-3.8568132 5.007277 1.3414522 13
-3.877707 5.1109533 1.5918188 14
-3.6152689 -2.9631548 0.065844662 7
-3.7895424 5.5020223 0.22444576 8
-3.6741323 5.4601002 0.51294553 9
-3.6228771 6.3147736 0.9253279 11
-3.6812446 -0.59095925 1.1146506 15
-3.6968443 5.878222 1.4863249 13
-3.7958267 5.4353418 1.8331298 15
-3.543731 5.4777985 0.60007292 10
-3.4333267 -2.3180957 0.79572451 12
-3.4214177 7.2737226 1.6084707 13
-3.4186687 6.7031956 2.0864062 15
-3.2881896 -2.2871127 1.039512 14
-3.1471026 -3.0548451 0.083702825 8
-3.0425212 -3.0424974 1.0476687 14
-2.7591047 -3.1079452 1.1229869 15
-2.4288855 7.0395951 2.097105 15
-2.2181165 -3.2483275 0.044699874 7
-2.2388372 -3.212754 0.94963205 14
-2.2214766 7.0062962 1.7566365 14
-2.0288925 6.9444032 1.027992 11
-1.8921775 6.897522 0.74968439 10
-1.9183189 6.9475107 1.5687515 13
-1.6444216 -3.3339825 0.27934489 9.5
-1.7247902 -3.308903 0.52150017 11
-1.2840044 6.7179523 0.75320917 10
-1.2937442 6.7418337 1.0220733 11
-1.2906259 6.739665 1.2564971 12
-1.2858299 6.7405815 1.4237968 13
-1.3212256 6.7990742 1.9810318 15
-1.1397957 6.7603087 1.6440576 14
-0.85141915 -3.3754365 0.16571501 8
-0.82027584 -3.3831453 0.40436891 10
-0.65698367 -3.4177318 0.24930295 9
-0.67394966 -3.4089403 0.46802622 11
-0.52175617 -1.2042702 0.262568 13
-0.26917353 -0.63331074 -0.20768203 0
-0.23011936 6.6412544 0.92314297 11
-0.34207726 6.6237125 1.5591874 14
-0.11103816 -0.8119154 -0.20140013 0
0.19265258 0.6922673 -0.21619359 0
0.044848021 6.5510273 1.3198558 13
0.37827539 0.79535639 -0.21594903 0
0.25522631 0.92720699 -0.22097455 1
0.45268026 0.55253696 -0.20390448 0
0.47713125 0.74442321 -0.21044157 0.5
0.50374293 -0.96657252 -0.054586012 5.5
0.53136379 -0.93616599 0.040759135 8.5
0.56178552 -0.80853933 0.2326453 14
0.60503584 -1.034945 -0.11707726 4
0.6035018 -0.97298276 -0.15826687 3
0.7638343 0.68026423 -0.19787505 2
0.63198924 0.98299277 -0.2003274 2
0.74985331 -0.85747695 0.23789845 13
0.75665021 5.7291012 0.71331513 11
0.75389135 5.7449226 1.6067048 15
0.92586005 -0.89158112 0.23291707 12.5
0.91362894 5.68258 0.4903543 9
0.83826733 5.7031569 0.62818837 10
0.84812927 5.717999 1.0217762 12
0.81216455 5.73245 1.4518028 14
1.1296574 -0.93427664 0.18243992 11
1.1724309 -0.94067097 0.34363407 14
1.1217017 -0.90995365 0.4060201 15
1.3339841 0.18360355 -0.16560289 4
1.3246688 -0.96898156 0.17830075 10
1.2700021 -0.95757848 0.25045717 12
1.2030824 5.6120448 0.78260481 11
1.2461706 5.622262 1.2228152 13
1.3725282 5.6260452 1.5082284 14.5
1.5221711 -0.98258173 0.49098074 15
1.7096214 -1.045529 0.15407407 9
1.6621994 5.5863118 0.14868432 8
1.7163482 5.5713997 0.62006783 10
1.7164816 5.5284066 0.85057473 11
1.9968957 5.6902394 1.5950532 14
2.1310728 -1.1246086 0.23412305 10
2.1115351 -1.0998235 0.54545069 14
2.0420659 5.6801167 1.6288645 15
2.4199836 5.9947467 1.0355239 12
2.7982464 -1.2690728 0.6636672 13
2.7851436 5.3488698 1.7957064 15
2.9891124 5.8774166 1.0407238 12
2.8205457 5.5102015 1.2781588 13
3.1652851 4.0829463 0.55384022 10
3.0419888 5.8696628 1.013339 11
3.2561395 -1.1609346 0.028841605 7
3.2591674 -1.1500206 0.24671707 9
3.2921448 -1.3087091 0.63431019 12
3.3403919 -1.1106136 0.72049195 13
3.3456721 -1.0633329 0.78763127 14
3.400955 -0.80003726 0.89274639 14
3.5247517 -0.16729543 0.75010276 13
3.4652207 -0.48085818 0.79405206 14
3.5123434 0.090243369 0.91931802 15
3.5685072 0.32021141 0.78368115 13
3.641542 0.7276848 0.021740049 7
3.6847408 0.90525693 0.094383292 8
3.7772226 1.337466 0.060597356 8
3.665837 2.2762787 0.14348088 8
3.7375572 1.2026321 0.31745818 9
3.6882057 2.2668886 0.42931721 10
3.6610656 0.7722196 0.76941413 13
3.6704061 0.91193539 0.65532088 12
3.7017822 0.95171046 0.95109028 14
3.7790494 1.2856716 0.85512805 13
3.6681719 2.3827028 0.8624624 13
3.6003959 5.7604108 0.86847281 11
3.6465781 0.50077373 1.0398456 15
3.7920551 1.3267372 1.0735805 15
3.6861207 2.2958622 1.1515422 14.5
3.823755 1.5128716 -0.0070526134 7
3.9231486 2.0170927 0.16325572 8
3.9025218 2.1745245 0.26902846 9
3.9459014 2.17869 0.55942446 11
3.943593 2.1930423 0.70723075 12
3.8546634 1.4509566 1.0127554 14
3.8769906 1.7634149 1.1360655 15
3.821547 2.8733897 1.2363605 14
3.8105164 3.8053846 1.3924717 14
3.8085692 5.3173509 1.6670485 14
4.0382185 2.7779882 0.31014338 9
