# .PCD v0.7 - Point Cloud Data file format
VERSION 0.7
FIELDS x y z intensity
SIZE 4 4 4 4
TYPE F F F F
COUNT 1 1 1 1
WIDTH 139
HEIGHT 1
VIEWPOINT 0 0 0 1 0 0 0
POINTS 139
DATA ascii
-0.25298446 -0.90628487 -0.15990789 141
-0.11886127 -0.95596004 -0.15881404 147.33333
-0.089756608 -0.90337425 -0.16443126 156
-0.42249209 -0.88116801 -0.16122597 123
-0.37403694 -0.82764769 -0.16074793 131
-0.20749544 -0.8440097 -0.16644621 153.66667
-0.070546672 -0.86889046 -0.16848715 161
-0.53202128 -0.77485639 -0.16219467 117.5
-0.46554223 -0.71872407 -0.16360109 129.5
-0.3216902 -0.77271724 -0.16792645 146
-0.2796303 -0.72751528 -0.1708435 156
-0.1367144 -0.74333781 -0.16879386 166
-0.024425561 -0.7780391 -0.16564617 169.25
0.011959107 -0.703879 -0.15952265 175
-0.65655422 -0.68005759 -0.17445382 115
-0.57103974 -0.62369633 -0.17238948 121
-0.41284344 -0.67483532 -0.16676037 141.5
-0.36856499 -0.63829219 -0.17053118 150
-0.22708422 -0.66945028 -0.17023076 165.75
-0.17732482 -0.61355114 -0.16721167 173
-0.067671083 -0.6453132 -0.17143947 177
0.033554528 -0.66811991 -0.16877647 181.8
-0.74124587 -0.55705082 -0.19396061 143
-0.65782946 -0.51599371 -0.19346108 120
-0.53210056 -0.59934646 -0.17706263 129
-0.47132006 -0.55969065 -0.17729574 139.66667
-0.35016325 -0.54753262 -0.17344533 159.66667
-0.2378272 -0.5278101 -0.17288926 178
-0.13957852 -0.57378089 -0.17193452 180.8
-0.039886557 -0.53927821 -0.16273534 186.60001
0.051192913 -0.55246848 -0.16583562 186.33333
0.10690346 -0.52143759 -0.16087328 186.5
-0.60938269 -0.49146453 -0.18943395 125
-0.55267119 -0.46415919 -0.1923801 138.33333
-0.4598954 -0.41796842 -0.18889029 154.33333
-0.31626815 -0.45830739 -0.17688867 176.75
-0.26046744 -0.42274228 -0.18065219 186.66667
-0.14366125 -0.4468008 -0.16972706 186.14285
-0.033944074 -0.45536128 -0.16619092 185
0.04875138 -0.43512669 -0.17865333 182
0.14079615 -0.46539316 -0.17562728 181.23077
-0.41787353 -0.397856 -0.1916997 150
-0.35381353 -0.36629227 -0.19105223 174.39999
-0.24449761 -0.32636663 -0.18032195 184.33333
-0.14443621 -0.34510666 -0.17275789 184.8
-0.060069289 -0.35029119 -0.18298331 182.05263
0.064978033 -0.33369225 -0.18094492 176.73334
0.15486328 -0.36281025 -0.18126555 174.95653
0.20309283 -0.35787225 -0.19602838 171.5
-0.21123038 -0.29503426 -0.18412219 184
-0.14944974 -0.26447386 -0.18284027 183.88889
-0.032964896 -0.23700567 -0.18793727 177.25
0.033987399 -0.2761904 -0.18702245 174.58333
0.16606443 -0.22540915 -0.19347742 163.47368
0.24333411 -0.23621254 -0.18887416 162.30556
0.77944118 -0.20822588 -0.14673695 162.66667
0.8462562 -0.24171144 -0.14911459 167.16667
0.9428857 -0.24787533 -0.16033451 164
-0.34789822 -0.16154717 -0.19119504 185
-0.24375613 -0.13669869 -0.16673309 182.54546
-0.16903928 -0.12331781 -0.19369754 182.2
-0.034489799 -0.13860205 -0.15154807 162.46666
0.087823279 -0.13235949 -0.19658153 165
0.15415768 -0.14742811 -0.19149683 159.15517
0.24610043 -0.17668973 -0.19193386 162.08824
0.30975598 -0.15062912 -0.19794755 152
0.59572613 -0.10944922 -0.19413893 143.5
0.65037674 -0.1257534 -0.17203458 145.7037
0.74408197 -0.15411669 -0.15534404 150.13637
0.85225123 -0.14067346 -0.14665899 161.38461
0.93734574 -0.14819477 -0.14895386 165.5
-0.31499648 -0.067511976 -0.19772105 188.5
-0.22526191 -0.059195057 -0.19401273 183.75
-0.1623278 -0.05365501 -0.19619603 181.66667
-0.062897094 -0.0700766 -0.18366171 154.25
0.080058448 -0.061281279 -0.19750364 159.55556
0.13760854 -0.058948211 -0.19251329 151.86046
0.48199451 -0.024074441 -0.1961239 158.78787
0.52826136 -0.029169345 -0.19507675 149.65384
0.64147747 -0.043596584 -0.18065839 145.70175
0.74684244 -0.06306155 -0.15582941 145.69565
0.8539831 -0.053201716 -0.1467807 161.71428
0.95178664 -0.063656121 -0.15210803 163.66667
-0.55068958 0.024932817 -0.19803558 152
-0.44781232 0.021784479 -0.19551417 170
-0.32505462 0.017964058 -0.19458184 187.75
-0.23548104 0.037055418 -0.19126333 184.8
-0.17402534 0.047617838 -0.19387633 181.75
-0.08591228 0.029007813 -0.19682305 177.33333
0.088628657 0.013765182 -0.19882689 156.375
0.14056884 0.038091559 -0.19583565 153
0.47904229 0.034096345 -0.19315924 157.37143
0.52755165 0.040995065 -0.19368285 149.09525
0.64985299 0.052813642 -0.17673931 145.64583
0.74846017 0.044229604 -0.15579592 144.53125
0.84956115 0.033581723 -0.14504914 159.08333
0.94017452 0.040173676 -0.14746656 163.875
-0.31858465 0.10173369 -0.19758098 188
-0.24433827 0.16792652 -0.19815154 186.33333
-0.18361284 0.15111549 -0.19390479 183.66667
-0.057911877 0.14677374 -0.1981335 177.75
0.046208512 0.18233672 -0.17102183 152
0.17440662 0.11446831 -0.19911791 155.5
0.43169111 0.12688048 -0.14629191 131.88889
0.5804494 0.17227164 -0.19323055 148.91667
0.64109766 0.14482868 -0.1783829 147.10811
0.74343765 0.15002115 -0.15880758 151.41667
0.85170633 0.15552309 -0.15022397 163.83333
0.94845432 0.14855881 -0.15513505 165.33333
-0.15311334 0.24669856 -0.18727475 183.8
-0.043080457 0.22578523 -0.11826679 177
0.48173138 0.21538806 -0.18267515 147.5
0.54503042 0.24853662 -0.18740641 145.4375
0.65298724 0.25021532 -0.182888 148.86208
0.74752146 0.24407227 -0.16594857 163
0.84817392 0.25664067 -0.16321221 185.85715
0.9205448 0.21416686 -0.15558976 168.5
-0.21544641 0.33222803 -0.19573 188
-0.17880331 0.31028622 -0.18475777 187.5
0.56162846 0.34307519 -0.19027187 154.94444
0.63870478 0.34614488 -0.17771071 160.23529
0.74807179 0.35067993 -0.17704977 170.22223
0.83349001 0.32378173 -0.17696929 187.39999
0.91858637 0.38190067 -0.18925317 178.5
0.57570666 0.41978914 -0.1809573 172
0.65232283 0.45713577 -0.1897621 172.25
0.74005967 0.44816139 -0.18760344 169.33333
0.85140467 0.45105189 -0.19267596 160
0.62086326 0.51174909 -0.18961181 171.66667
0.74395174 0.56660312 -0.1956916 161.66667
0.81783718 0.52043182 -0.19144355 161
0.67383105 0.62149209 -0.19729069 161
0.7710315 0.60812408 -0.1987166 160
-0.24551964 -0.12748441 -0.070620984 172.63637
-0.028761014 -0.12619823 -0.04681601 166.64
0.04697267 0.16817504 -0.061803579 135.5
0.11290477 0.13350874 -0.080239549 125
0.41393259 0.13721815 -0.085138999 117
-0.05222334 -0.12650654 0.0091273785 163.2
