# .PCD v0.7 - Point Cloud Data file format
VERSION 0.7
FIELDS x y z intensity
SIZE 4 4 4 4
TYPE F F F F
COUNT 1 1 1 1
WIDTH 20
HEIGHT 1
VIEWPOINT 0 0 0 1 0 0 0
POINTS 20
DATA ascii
-0.63083696 0.6306085 -0.21928105 0
-0.24160367 1.1192952 -0.22682899 1
-0.059004396 0.79212219 -0.22104333 0
0.14411804 0.95584744 -0.24205579 0
0.2944639 0.74504763 -0.21576175 0
0.34998122 -1.0570933 -0.087674491 5
0.50588149 0.44234276 -0.20168787 0
0.53046405 0.69003797 -0.21648902 0
0.50117952 0.82492679 -0.21289384 1
0.4017086 1.0545336 -0.23971881 1
0.56300831 -1.1167738 -0.15394752 4
0.41706571 -0.9501158 -0.18638286 2
0.75330889 -0.51813251 -0.2042723 1
0.78503126 -0.64592582 -0.19797499 2
0.85392767 -1.1803178 0.073754705 9
1.0321325 -1.2024986 0.2003517 11
1.3314658 -0.14505982 -0.21391681 3
1.3566053 -1.2255316 -0.10247252 5.5
1.3048022 -1.2115519 0.059595358 8
1.6104937 -1.2203597 0.022825798 7
