# .PCD v0.7 - Point Cloud Data file format
VERSION 0.7
FIELDS x y z intensity
SIZE 4 4 4 4
TYPE F F F F
COUNT 1 1 1 1
WIDTH 153
HEIGHT 1
VIEWPOINT 0 0 0 1 0 0 0
POINTS 153
DATA ascii
-0.30567667 -0.94629782 -0.1515841 125
-0.2776942 -0.90753591 -0.15133746 127
-0.12830631 -0.93436259 -0.15056993 124.5
-0.002455825 -0.9944731 -0.15196684 128
0.021873495 -0.93344474 -0.15533084 130.66667
0.15752992 -0.94159758 -0.16143981 132.66667
0.28702089 -0.94532204 -0.16612445 130.5
0.4139007 -0.90395987 -0.17217515 141
-0.43859228 -0.86876476 -0.15200017 126
-0.38204676 -0.80779546 -0.14888592 126
-0.23080952 -0.84549528 -0.15804505 133.5
-0.10003194 -0.88210362 -0.15039183 128
-0.080899648 -0.85237074 -0.16062789 137.66667
0.055557277 -0.84702909 -0.15748267 135
0.1828441 -0.83292991 -0.16017286 136
0.29739112 -0.83888417 -0.16545047 141.60001
0.40998569 -0.82214183 -0.16860054 145.5
0.5205707 -0.81904209 -0.16814911 149.5
-0.55033803 -0.76308483 -0.15124163 121.5
-0.48493472 -0.70868051 -0.14783412 125
-0.33724108 -0.7635175 -0.15927656 132.75
-0.29583788 -0.72260422 -0.16889827 136
-0.15378204 -0.7394473 -0.15898719 143.25
-0.023350475 -0.74558103 -0.15949222 142.2
0.081864491 -0.78204846 -0.16243067 139.66667
0.14981315 -0.75295472 -0.16122492 141
0.20818163 -0.7261672 -0.16050789 144.66667
0.30934674 -0.72939944 -0.16916256 152.8
0.42368954 -0.72520691 -0.17252503 158.5
0.51639217 -0.77923357 -0.17739466 154
0.62093288 -0.77685601 -0.17028944 150.5
-0.43185142 -0.6674605 -0.15720733 131
-0.37851685 -0.62534273 -0.16373892 141
-0.23036262 -0.6508196 -0.1615447 141.25
-0.11373612 -0.68643814 -0.16468795 145.5
-0.070207395 -0.62342769 -0.15767424 144
0.027306443 -0.6544196 -0.16370873 147
0.12569155 -0.6673795 -0.16229528 146.83333
0.2268874 -0.65307969 -0.16536082 155.66667
0.34584412 -0.63168937 -0.16770165 165.66667
0.46776724 -0.67105335 -0.1763615 165
0.59061676 -0.67424178 -0.17549399 161.5
0.67693788 -0.6401149 -0.17637426 162
-0.54037398 -0.58057755 -0.15501083 125.66666
-0.46368033 -0.53354871 -0.16130939 131
-0.31946936 -0.57565898 -0.15836154 142.66667
-0.25968012 -0.52670401 -0.15852369 148.33333
-0.14178732 -0.55695301 -0.16195542 145.14285
-0.028149573 -0.56645387 -0.16046973 143.2
0.060921717 -0.53916085 -0.15876061 149.7
0.16298638 -0.54918021 -0.16302815 163.5
0.25116557 -0.5548799 -0.16888054 173.625
0.35181788 -0.55547059 -0.17227116 175.41667
0.45768932 -0.56383532 -0.17551705 171.72728
0.55014229 -0.54408091 -0.17478307 172.39999
0.62192988 -0.52301389 -0.17295358 170
-0.35449994 -0.46420944 -0.15739717 141.2
-0.24513024 -0.45267504 -0.1600582 149.33333
-0.14465718 -0.43142369 -0.15431175 147
-0.040891279 -0.44808528 -0.15621459 147.88889
0.058129769 -0.45045367 -0.16827175 159.63637
0.15492216 -0.47624698 -0.17462036 173.42857
0.25114471 -0.48000562 -0.18138595 178.66667
0.37232575 -0.48190701 -0.17935915 178.45454
0.46269622 -0.46809569 -0.1754552 175
0.54303879 -0.43919602 -0.17184791 170.73334
0.60863215 -0.49256048 -0.17562288 173
-0.22060123 -0.37878957 -0.15059264 150
-0.14101605 -0.34572124 -0.15233247 148
-0.043102879 -0.35108748 -0.16622375 155
0.045831118 -0.35359433 -0.17986301 167.94444
0.15969749 -0.36376312 -0.18590827 174.64285
0.2727958 -0.37713167 -0.18472645 171.38461
0.36861089 -0.34740242 -0.18318525 155.88889
0.46017811 -0.33300823 -0.18027867 149.73685
0.54617721 -0.35675511 -0.17581648 157.33333
-0.35051298 -0.24169897 -0.16705088 153.66667
-0.26232335 -0.21169655 -0.15313675 154.25
-0.051634807 -0.27693349 -0.17416865 160
0.029524321 -0.27033859 -0.18663079 172.81818
0.19091609 -0.21431895 -0.19304065 152.5
0.24373567 -0.20433976 -0.19073233 144
0.32144746 -0.28251004 -0.18701325 139
0.45572507 -0.29424545 -0.18300991 142.75
0.5150305 -0.28458992 -0.18271753 145.33333
-0.20923667 -0.19423816 -0.15134135 149
-0.14250107 -0.17420441 -0.16992825 150.28572
-0.045106102 -0.1589151 -0.16664681 157.76923
0.040187247 -0.15767489 -0.16389085 144.6842
0.16013016 -0.14485872 -0.19014819 147.20409
0.2263546 -0.16751197 -0.1906615 148.89473
0.097382315 -0.09848614 -0.19310501 154.33333
0.14637153 -0.085409559 -0.18859613 145.94737
0.40493932 -0.00084823591 -0.19061004 158
0.67069495 0.073980682 -0.17982145 174.33333
0.71244204 0.085668497 -0.17939545 178
0.5941999 0.19445723 -0.18623924 174
0.64592683 0.14245626 -0.18246828 175.31818
0.76212204 0.14075936 -0.17315474 181.2
0.85185081 0.15013076 -0.16956159 185.10001
0.93214601 0.14729035 -0.17073701 190
0.3003712 0.25737509 -0.12039796 150
0.36931705 0.27099949 -0.17772031 160
0.5644744 0.25812179 -0.18661419 175.2381
0.646128 0.25242731 -0.18229143 178.8
0.74578387 0.23833251 -0.17421031 183.92308
0.84765762 0.23579265 -0.17545907 187.71428
0.91842222 0.21517776 -0.17924109 188
0.2521151 0.34373507 -0.18234196 170
0.34383157 0.34877867 -0.17135039 166.5
0.46366113 0.34421924 -0.18925098 175.875
0.54034621 0.32613078 -0.18704759 178
0.64825416 0.35562995 -0.17723708 182.73334
0.75866729 0.33784178 -0.17839651 187.2
0.81851125 0.31817213 -0.17737094 189
0.19180025 0.44885883 -0.14779702 185
0.26183873 0.44710982 -0.15694745 183
0.36533022 0.45878887 -0.17878865 182.08333
0.45678839 0.47171065 -0.1818396 184.39999
0.54685932 0.44069725 -0.18149689 184.07143
0.65989149 0.44745329 -0.18106554 188
0.72627634 0.42168692 -0.18005091 188.2
0.80677491 0.40134579 -0.18229908 192
0.1557928 0.56773978 -0.1909554 188.2
0.24538368 0.54115826 -0.18413422 186
0.35425153 0.5474031 -0.18495017 186.46666
0.47023299 0.55528367 -0.1851496 188
0.54768008 0.54867941 -0.18878378 188.2
0.63076687 0.51748478 -0.18582842 189.33333
0.13391773 0.6251691 -0.19572613 189.5
0.22817977 0.61839193 -0.19340366 189.75
0.35285571 0.6237033 -0.18649834 189.5
0.4802691 0.61656809 -0.18812528 189
0.5874514 0.68135107 -0.19352004 185
0.097731426 0.71730864 -0.19942659 180
0.15207583 0.72098124 -0.20166743 184.5
0.29962605 0.74972314 -0.20147926 185
0.40067467 0.73317492 -0.1982681 190
0.49999541 0.73413432 -0.19533862 184.5
0.051959563 0.83290988 -0.20269789 171.5
0.1714368 0.84847975 -0.20141929 171.5
0.2858277 0.85818809 -0.19890609 170
0.011885834 0.93374467 -0.20500475 158
0.1443589 0.95967263 -0.20646101 161
-0.20606051 -0.18479453 -0.059766557 157.66667
-0.18885693 -0.18086128 -0.0778969 151
-0.0035202932 -0.16211978 -0.012393223 139.33333
0.0095739588 -0.1580493 -0.027504811 134.92308
0.33702868 0.19726543 -0.051877853 118
0.26946047 0.21974476 -0.035287712 127.27273
0.33121589 0.21377459 -0.04780909 125.1875
0.22414708 0.32068968 -0.078064911 169
-0.01402826 -0.16353351 0.0133943 138.14285
