# .PCD v0.7 - Point Cloud Data file format
VERSION 0.7
FIELDS x y z intensity
SIZE 4 4 4 4
TYPE F F F F
COUNT 1 1 1 1
WIDTH 97
HEIGHT 1
VIEWPOINT 0 0 0 1 0 0 0
POINTS 97
DATA ascii
0.79175001 -0.60701513 -0.1072073 160
0.7615236 -0.56099188 -0.11530897 163.8
0.8298282 -0.51155776 -0.10565936 165
-0.45209733 -0.43338525 -0.2045989 159
0.68663234 -0.45398995 -0.11736564 169.5
0.75174445 -0.44050661 -0.11170064 169.71428
0.86503839 -0.45081005 -0.11387943 165.8
-0.48024762 -0.31950888 -0.20601434 162
-0.34141466 -0.37797943 -0.20099938 182
-0.2256348 -0.31897062 -0.19278602 187.25
0.59605134 -0.31890416 -0.13365449 149
0.64782715 -0.35284361 -0.12212729 165.05
0.74980217 -0.3417455 -0.11090528 167.875
0.84087771 -0.35225287 -0.11340895 169.39999
0.92212659 -0.36920899 -0.12300541 165
-0.51450044 -0.21222906 -0.21179381 161
-0.24775803 -0.23735464 -0.19896014 187.60001
-0.13667345 -0.2611568 -0.18430421 184.85715
-0.062706776 -0.230038 -0.15647607 180
0.5677644 -0.2465577 -0.14361216 144.90909
0.65773231 -0.25342104 -0.12708271 149.62962
0.75314558 -0.24277146 -0.11838178 159.92308
0.84593451 -0.26152846 -0.11693826 168.375
0.95201027 -0.2397805 -0.13127412 169.33333
-0.42117822 -0.19159789 -0.20897371 179
-0.31317529 -0.16727686 -0.20251645 190
-0.23930867 -0.15069763 -0.19847189 186.2
-0.16494486 -0.17008114 -0.19474655 183.75
-0.043585207 -0.16562988 -0.19517234 177.5
0.013216658 -0.17914644 -0.099823385 167
0.15902138 -0.12651497 -0.13377352 145.66667
0.48408097 -0.13140689 -0.17119813 150.8
0.56003374 -0.16031395 -0.16471158 151.7742
0.64994508 -0.15011753 -0.14709619 148.15384
0.74413264 -0.16411382 -0.131842 151.25
0.85138613 -0.14559698 -0.12563579 164
0.94011593 -0.15238515 -0.1301495 167.25
-0.53852195 -0.10027787 -0.21450524 156
-0.44953313 -0.092089534 -0.21464442 179
-0.32571343 -0.079791538 -0.20555782 189
-0.23442149 -0.070645116 -0.19802174 185.66667
-0.19033836 -0.066934019 -0.20154944 183
-0.069259025 -0.055447575 -0.19834247 177
0.4777444 -0.091467366 -0.17536791 159.91304
0.51266539 -0.085425191 -0.17605343 156.60001
0.65769607 -0.064819828 -0.16091174 152.63637
0.75405443 -0.068482213 -0.14125964 150.8
0.85103333 -0.064102262 -0.12871566 162.28572
0.95531368 -0.067513764 -0.13145272 168
-0.54163587 0.012347694 -0.21977632 157
-0.44607773 0.0099079125 -0.21642257 174
-0.31357154 0.034948114 -0.20719834 189.16667
-0.23438697 0.049843039 -0.20320134 185.83333
-0.1697533 0.031208271 -0.2037608 182.8
-0.069777988 0.056458563 -0.20446874 178
0.15904751 0.022157105 -0.19136877 160
0.66080034 0.037510179 -0.16575164 154.375
0.75352842 0.034350727 -0.14847288 151.94286
0.85733384 0.028975699 -0.13127117 162.25
0.94555658 0.03501391 -0.13527821 168.16667
-0.53050077 0.12403113 -0.22011881 154
-0.44125608 0.11090891 -0.21911146 180
-0.31134719 0.15720217 -0.20204659 188.25
-0.23475154 0.15877949 -0.17254496 182.7
-0.17420363 0.143002 -0.20061107 184.33333
-0.032166474 0.12517393 -0.19254917 166.42857
0.010189166 0.13901888 -0.11170471 141
0.19278073 0.13600746 -0.19594871 160
0.27096787 0.16991892 -0.19303969 164.75
0.60556847 0.14514126 -0.17797388 153
0.65260202 0.14034124 -0.16760641 153.36667
0.74815559 0.14221832 -0.15064615 155.62962
0.85580927 0.14649235 -0.14068507 165.54546
0.94484574 0.1404133 -0.14279985 167.66667
-0.1220409 0.27699986 -0.20736386 184.60001
0.6918382 0.21072473 -0.1666308 151.83333
0.75090593 0.23935768 -0.14987233 162.64285
0.85315424 0.24078116 -0.14804624 168
0.94714773 0.24271064 -0.15589306 170.66667
-0.2071794 0.32504371 -0.21419235 187
-0.15866877 0.29791275 -0.21241111 187
-0.052648481 0.35326135 -0.20854998 184.42857
0.15732321 0.34364021 -0.20307134 176.8
0.80532277 0.29737523 -0.15163964 172
0.84421158 0.32479087 -0.15389642 172.25
0.92492318 0.35638174 -0.16138071 166.25
-0.094115086 0.45098662 -0.21730168 188
0.067569464 0.44531202 -0.20510235 185.22223
0.040881313 0.55042988 -0.21449995 189
-0.050732732 -0.24958657 0.00043382662 132
0.073939525 -0.13814566 -0.053259756 138
0.117501 -0.1506407 -0.044817969 138.26086
-0.23175433 0.15585056 -0.083543092 164.54546
-0.01575432 0.14403942 -0.030427065 164.85715
0.0090760654 0.13693047 -0.07424619 150.23077
0.0097876508 -0.20417906 0.019292433 129
-0.02876124 0.1467849 0.0068019722 160.5
