# .PCD v0.7 - Point Cloud Data file format
VERSION 0.7
FIELDS x y z intensity
SIZE 4 4 4 4
TYPE F F F F
COUNT 1 1 1 1
WIDTH 497
HEIGHT 1
VIEWPOINT 0 0 0 1 0 0 0
POINTS 497
DATA ascii
-9.740633 15.078292 1.9421203 11
-9.9728489 16.254557 2.0321116 11
-9.8288212 16.907307 2.1112211 11
-9.3140974 13.836143 1.3689427 10
-9.4951591 14.261209 1.7137239 11
-9.504384 14.850697 1.4594485 10
-9.3994789 17.077106 2.1425259 11
-8.885952 11.260577 1.4656392 11
-9.0805149 12.120847 1.6645805 11
-9.1572933 12.657373 1.6473949 11
-9.1650438 15.08661 1.4905314 10
-9.0384626 15.684995 1.5497392 10
-8.9067135 17.121956 2.1584699 11
-8.5265217 10.433903 1.070803 10
-8.5423355 9.9215984 1.259506 11
-8.567071 12.268025 2.2691257 12
-8.7049646 17.204887 2.1373606 11
-8.4783392 17.28986 2.1885557 11
-8.2634802 8.7899389 0.99683082 10.5
-8.1634445 9.937686 2.2513504 13
-8.243783 17.299952 2.1733608 11
-7.6641603 6.2271962 -0.24762556 7
-7.7154493 6.3208213 0.30482513 9
-7.7602434 6.4946308 0.80800778 10
-7.7419372 6.3991804 0.93190742 11
-7.8009644 6.9638939 0.97462767 10.666667
-7.7749782 6.2553263 2.1160743 14
-7.7615304 7.1582818 2.1660161 14
-7.9112201 17.400013 2.2115731 11
-7.3628707 7.1739507 -0.40754068 7
-7.2092433 4.1608353 -0.16872695 8
-7.4693294 7.1417294 0.012365876 8
-7.2185569 4.1776342 0.21461496 9
-7.5112133 7.7927079 0.187328 9
-7.2389836 4.2058263 0.66106403 10.5
-7.2334995 4.612658 0.86282212 11
-7.4223595 7.1951265 0.79398245 10
-7.3854036 4.9516253 0.89648145 11
-7.5140328 7.1609597 1.0181221 11
-7.50808 7.4410257 0.87176889 10.5
-7.6091952 7.7177091 0.96316606 11
-7.2682343 4.2723322 1.610078 13.5
-7.2554841 4.1094737 1.7347645 14
-7.4466171 5.3810024 1.8071355 14
-7.6309075 6.4112911 1.6440357 13
-7.2867408 6.2832136 2.2850273 15
-7.6155348 7.3961539 2.2905829 14
-7.3716626 17.563459 2.254061 11
-7.1312127 3.8487544 0.029754635 8
-7.1552434 4.2230062 -0.099234052 8
-7.1720781 4.5484958 -0.032237947 8
-6.8151941 5.2624712 0.021959087 8
-7.0642118 3.4659626 0.32956111 9.5
-7.1363988 3.7973719 0.31742784 9.333333
-7.1936378 4.1245131 0.18302032 9
-7.1835032 4.5230203 0.26950973 9
-7.072865 3.4356985 0.75757796 11
-7.1376243 3.8147709 0.68238777 10.5
-7.149982 4.1743083 0.51787829 10
-6.9911251 3.5217395 0.93828321 12
-7.0654163 3.878063 0.98648906 12
-7.1570692 4.2697692 1.1658021 12.5
-7.2299504 4.5541129 0.97883475 11
-6.9596972 4.8389592 1.1141813 12
-7.038765 18.007147 0.84671485 9
-7.0674863 3.5471761 1.4578632 13.333333
-7.1553411 3.8180134 1.563154 13.666667
-7.215898 4.2408862 1.5990036 13.5
-7.0949354 4.4620752 1.3176122 13
-6.8943324 15.469035 1.2010362 10
-7.0231652 3.8576002 1.9944563 15
-7.0290322 4.1880126 2.0627608 15
-7.1310091 4.7161689 2.1872525 15
-7.0158753 12.691467 1.9533086 12
-7.0170221 17.586199 2.2718005 11
-6.5647221 4.0936265 0.093059786 8
-6.597908 4.0266004 0.23329197 9
-6.6684847 17.426743 -0.11479028 8
-6.4700871 18.190413 -0.07952366 8
-6.5031996 3.9837961 0.68425012 11
-6.5725455 4.0559893 0.56058854 10
-6.737299 4.7462339 0.86542434 11
-6.6266761 4.8366828 0.84737986 11
-6.7234235 18.122334 0.33353877 8
-6.4600053 4.2734437 1.2586523 13
-6.6427169 4.7271585 0.96536976 11.5
-6.4891086 15.52314 0.75993967 9
-6.5763869 18.114481 0.80855924 9
-6.5361414 4.1607208 1.5313634 14
-6.5050378 15.579451 1.2323893 10
-6.6025553 16.917372 1.3371375 10
-6.4946284 9.7817116 1.8733405 13
-6.6438265 11.362169 1.7670561 12
-6.6434302 7.7809801 2.2735152 14
-6.6695004 12.789059 1.9811338 12
-6.6521239 11.469395 2.4899759 13
-6.5835838 11.982014 2.5823088 13
-6.7906189 12.684003 2.3542857 13
-6.4914761 17.773026 2.3317394 11
-6.6930966 10.94318 2.8358996 14
-6.0162616 4.8734818 0.063868098 8
-6.3372169 9.5894222 -0.20748499 8
-6.0333281 18.317165 -0.029086888 8
-6.4233809 4.820384 0.77239001 11
-6.2472119 4.8630581 0.79249364 10.666667
-6.2772484 18.210339 0.36941043 8
-6.3373137 4.402966 1.2729294 13
-6.3030343 4.5962477 1.300874 13
-6.2237258 4.8716464 0.95720518 12
-6.2759981 18.181271 0.80085266 9
-6.3916736 4.3351102 1.5034248 14
-6.2149992 4.7807088 1.5748155 14
-6.3069725 4.9391146 1.3548717 13
-6.2817035 17.284084 1.3864874 10
-6.1987576 9.8307323 1.8828624 13
-6.1256027 6.1174364 2.1594303 15
-6.2539544 7.2112589 2.1187871 14
-6.294899 12.812191 2.0005066 12
-6.4618602 7.8553538 2.5967615 15
-6.2827206 12.81042 2.3841774 13
-6.3420029 11.237132 2.8594322 14
-5.9547029 4.9957643 0.86068976 11
-5.8882751 4.9431896 0.94798476 12
-5.9855518 18.239336 0.89251935 9
-5.9798784 4.9212871 1.5764101 14
-5.7056832 16.926571 1.3886909 10
-5.9210577 9.904253 1.898262 13
-5.7654147 8.3386812 2.2946839 14
-5.9416938 10.493451 1.996446 13
-5.9434028 12.871063 2.023694 12
-5.9810333 15.669714 1.8849608 11
-6.0434108 17.777864 2.2007179 11
-5.9498835 12.13815 2.6042504 13
-5.7848125 12.933858 2.4134824 13
-5.9346924 17.859632 2.3486323 11.5
-5.8480473 11.129622 2.8665526 14
-5.9207048 11.411586 2.858285 14
-5.4159284 6.2220793 0.2772522 9
-5.5655994 18.35355 0.021476477 8
-5.4228568 18.482338 0.3730163 8
-5.4647255 5.0316992 0.93699694 12
-5.5552602 18.368834 0.92493981 9
-5.4678922 18.461729 0.88131636 9
-5.3707857 17.272373 1.4364133 10
-5.4887123 18.418402 1.0775064 10
-5.4198346 7.3331542 2.0950613 15
-5.4950967 8.375308 2.2658839 14.666667
-5.6015153 8.4729443 2.3026016 14
-5.6030674 12.949458 2.0524797 12
-5.6246467 17.90992 2.216964 11
-5.5753298 12.075132 2.5900724 14
-5.4943304 17.933201 2.3778949 11.5
-5.4037209 11.232966 2.8636601 14
-5.0968151 5.1223474 0.9130128 12
-5.0855041 5.1925631 1.1408507 13
-5.0112672 5.0937891 1.6319726 14.5
-5.2146411 8.442811 2.3121059 15
-4.9669557 8.5480032 2.3111162 15
-5.1630816 18.14068 2.2421119 11
-4.4826317 7.2321091 -0.067367837 8
-4.5889249 11.191789 0.00283705 8
-4.4152565 6.5469909 0.28281724 9
-4.532721 7.0780568 0.30510736 9
-4.5088034 7.3167033 0.41357401 9
-4.7611814 7.8357568 0.32917416 9
-4.5817738 5.1645627 0.86904621 11.5
-4.6735296 5.2433219 0.82678449 11.5
-4.5172911 11.31939 0.56023401 9
-4.7317238 5.2041316 1.6279056 15
-4.7773695 5.2449694 1.54812 14
-4.6410179 8.5751305 2.3269274 15
-4.6071515 12.144893 2.5993946 14
-4.7788858 13.10987 2.4674754 13
-4.5577173 11.507685 2.8803515 15
-4.6825571 12.002683 2.8808053 14
-4.1283784 1.9943783 0.084617965 9
-4.1925907 2.0966771 0.0077766073 8
-4.2902694 7.3014207 -0.041836455 8
-4.3682804 6.5435314 0.21652031 9
-4.2168913 7.38448 0.26950857 8.75
-4.3122892 5.2056985 0.8403272 12
-4.2387147 8.6642351 2.332458 15
-4.0791631 10.038801 2.2021174 14
-4.2736111 13.244333 2.162842 12
-4.4594927 13.204491 2.4942124 13
-4.1329327 13.26556 2.5148664 13
-4.245811 12.140367 2.8810446 14
-3.6167405 1.5578233 0.13147373 9
-3.6402094 1.6846919 0.12642479 9
-3.6346738 1.5700588 0.46787563 11.5
-3.6478384 1.6787511 0.45800444 11.5
-3.646517 1.5564241 0.90814531 14.333333
-3.6648011 1.7000538 0.90564173 14.5
-3.9715228 5.334321 0.83835006 12
-3.8616698 8.6164913 2.3188412 15
-3.9473193 13.31856 2.1928155 12
-3.7991972 13.290092 2.5291464 13
-3.720979 11.770488 2.9056561 15
-3.8203225 12.3133 2.8904276 14
-3.5873892 1.4568647 0.13114531 9
-3.595794 1.4855449 0.42885119 11.5
-3.6027021 1.7926707 0.50665992 12
-3.5237567 1.0254498 0.9079119 15
-3.5977213 1.419621 0.85607845 14.2
-3.5990319 1.8233061 1.026435 15
-3.4731164 8.7042875 2.3580141 15
-3.6212018 12.028603 2.5800023 14
-2.9411776 -1.3723755 0.17785326 9
-3.0200682 -1.0234432 0.15189305 9
-3.0948715 -0.72651362 0.17287306 9.333333
-2.9038992 -1.5974395 0.55538124 12
-2.958257 -1.3561536 0.56553209 12.5
-3.0401416 -0.99247235 0.55887306 12.615385
-3.0895765 -0.73301917 0.58343661 13
-2.9551663 -1.3085977 0.7893033 14.333333
-3.0384614 -0.97723663 0.79853219 15
-3.1408057 -0.59023923 0.81002432 15
-3.0168188 8.748208 2.3722858 15
-3.115006 8.9001312 2.3626163 15
-2.7477841 -1.6033612 0.19805133 9
-2.547461 -1.5495043 0.21912482 9.5
-2.7703736 -1.5963459 0.4548972 11.5
-2.5951021 -1.5464358 0.60149902 12.833333
-2.226644 -1.4852918 0.17744716 9.25
-2.2326612 -1.468766 0.55423081 13.222222
-2.2623796 7.4035449 2.0596385 15
-2.2182102 8.0372314 1.8273453 14
-1.8052186 -1.3857399 0.22756217 10.111111
-1.8214837 -1.3807367 0.52359051 13.714286
-1.7615 7.0000591 0.38136935 9.3999996
-1.6611048 7.049706 0.80041814 11
-1.7694913 7.0344043 1.1884981 12.25
-1.7250725 7.0911641 1.578089 14
-1.7924464 7.044776 1.9108171 15
-1.3960228 -1.2954398 0.23244534 10.636364
-1.4336087 -1.291127 0.48696801 14.142858
-1.4228045 7.1075263 0.4474766 9.5
-1.3234959 7.156323 0.73563361 10.75
-1.4324677 7.1441431 1.2113283 12.5
-1.4338261 7.1697936 1.6006711 14
-1.4727328 7.1377568 1.9097601 15
-1.0420988 -1.2168243 0.27262211 11.818182
-0.89635807 -1.1732869 0.28776985 12.5
-1.083813 0.79048002 0.27791652 14
-1.0232502 1.0029083 0.29651639 14
-1.0857834 -1.2184997 0.44535655 14.666667
-0.88315368 -1.1712216 0.43114242 15
-1.0090263 7.2463989 0.32778555 9
-1.001394 7.2679648 0.73303628 10.666667
-1.1932175 7.2270255 1.084898 12
-1.0043399 7.2720752 1.1941512 12.5
-1.0814965 7.296504 1.5148309 13.666667
-1.2555852 7.2321754 1.9771785 15
-1.0614463 7.2812729 1.9422344 15
-0.48419371 -0.94003034 -0.18484211 2
-0.47143069 2.6071651 -0.34387529 4
-0.62302703 -1.1246408 0.29499599 13.222222
-0.70610338 1.1054173 0.3067162 14.333333
-0.766325 -1.1441896 0.4221622 15
-0.59622127 7.3442297 0.37024784 9
-0.64523906 7.3455968 0.74103945 10.6
-0.62228435 7.3595691 1.2246833 12.5
-0.63110811 7.4070692 1.6308678 13.8
-0.66840452 7.3701205 1.9818933 15
-0.17641252 -1.0071067 -0.17203303 1.6666666
-0.18924935 -0.70741016 -0.18529449 0.16666667
-0.050727282 0.73594397 -0.2247916 0
-0.064359635 0.96368003 -0.23306851 0.33333334
-0.14343058 1.3577533 -0.25041005 2.2
-0.2097239 1.8053168 -0.28504816 3.3333333
-0.22619464 2.1525495 -0.3056426 4
-0.090051927 2.4995093 -0.31908455 4
-0.15844032 2.8562026 -0.33926359 4
-0.19273286 -1.0284758 0.27128515 13.666667
-0.19868292 7.4330268 0.3959626 9
-0.2322548 7.4436636 0.8021096 10.714286
-0.24909797 7.4470067 1.2191913 12.285714
-0.1897154 7.5041037 1.7475443 14
-0.2623691 7.4674187 2.0107849 15
0.20876817 -1.0165751 -0.11467495 2.8571429
0.23294915 -0.66052771 -0.15542449 0.33333334
0.19229203 0.67875355 -0.21396539 0
0.20606592 0.98107874 -0.22912718 0.25
0.21802218 1.3552849 -0.23985791 2.3333333
0.18815756 1.8125893 -0.26740363 3.2
0.26195028 2.2377203 -0.29275569 4
0.24398041 2.6475327 -0.32932228 4
0.2294244 2.9231524 -0.34696764 4
0.20954612 3.3532238 -0.3824662 4
0.20754071 -1.0259925 0.18671265 11.357142
0.18145068 7.5209398 0.477451 9.333333
0.18179387 7.5340238 0.80475932 10.5
0.19114484 7.5455313 1.250459 12.25
0.14725377 7.5692906 1.7545847 14
0.11838415 7.5517712 2.0430238 15
0.5945009 -0.96485937 -0.044609886 4.8235292
0.65294629 -0.62826258 -0.095413364 2.8333333
0.60897279 -0.33101466 -0.16064139 0.25
0.65964335 0.29744902 -0.16583879 0.60000002
0.57784152 0.614833 -0.19015922 0.61538464
0.57913512 0.969791 -0.20205691 1.5
0.60282809 1.3998946 -0.21506678 3.2
0.63323885 1.8277673 -0.23538743 4
0.53698939 2.1407242 -0.25803819 4
0.56688356 2.5501823 -0.27892232 4.5
0.59686708 2.9628708 -0.29955867 5
0.63798988 3.4695554 -0.33687237 5
0.58582669 -0.94115049 0.20680027 11.235294
0.67429918 -0.65346479 0.2143254 12.285714
0.65119427 5.8506393 -0.011067927 8
0.66646659 5.1936822 0.34611619 9
0.52215832 7.4200678 0.49082261 9.25
0.46380764 7.6053801 0.83213764 10.666667
0.65367877 7.6415873 0.85963738 10.5
0.41861436 7.6014991 1.3234718 12.5
0.6688419 7.6622624 1.3119332 12.5
0.42293432 7.6266947 1.7703598 14
0.67822587 7.6843815 1.7312788 14
0.57852376 7.639112 2.1254828 15
0.56324255 7.652029 1.9825493 15
1.0030761 -0.84274089 -0.021916995 5.3333335
0.93999219 -0.64002728 -0.084644862 3.8
0.8225497 0.38909036 -0.16461168 1
0.93196708 0.59849536 -0.1718002 2.2
1.0105121 1.0101131 -0.17247777 3.5
0.96310979 1.4021912 -0.18821815 4
1.0655802 1.6528659 -0.19428755 4
0.97277308 2.1950457 -0.23089287 4.75
0.90718871 2.5993633 -0.25951871 5
0.96258742 2.8751342 -0.27024949 5
1.2060034 4.0993328 -0.31097594 5
0.82357854 7.5250459 -0.23597951 7
1.1371651 -0.87053615 0.23601478 10.5
1.0405091 -0.58933979 0.29530743 12.666667
1.1354584 3.5078812 0.42015275 10.5
0.97816849 3.9762087 0.44342637 11
1.1720896 5.18821 0.33239245 9
0.9594788 7.7015147 0.52468014 9.3999996
0.93148911 7.7091646 0.87546462 10.5
0.99901742 7.7316957 1.333964 12.4
0.91694367 7.7391872 1.7847419 14
0.99432105 7.732841 2.089143 15
1.231303 -0.88227892 -0.0064550117 5.5
1.209717 0.74378502 -0.15446711 4
1.3850759 0.98210168 -0.15583323 4
1.372352 1.3982909 -0.17100367 4.25
1.3581185 1.7846946 -0.17899276 5
1.4717759 2.221875 -0.19678099 5
1.3831102 2.5717213 -0.22709715 5
1.4369822 3.0923448 -0.25423065 5
1.5711395 3.4886575 -0.26506338 5
1.5913167 3.7427585 -0.093859732 7
1.4262027 5.532424 -0.1807594 7
1.5632535 5.7803473 -0.43004319 5
1.5032173 6.0119395 -0.14632472 7
1.3109096 -0.52155972 0.34030536 12.785714
1.4391202 -0.37228194 0.30895314 11.857142
1.4719069 0.18273057 0.30088523 12
1.4363471 0.42443398 0.3548055 13
1.5569379 3.9031894 0.14187321 8
1.2042054 4.7996354 0.053278934 8
1.4705101 -0.43573695 0.49725303 15
1.4636184 -0.3541539 0.46933752 14.5
1.4530228 0.21299921 0.47015566 15
1.5785121 0.4794991 0.52153832 15
1.4592673 3.4952383 0.4453328 10.666667
1.5256138 5.5203495 0.32504934 9
1.5306715 6.095397 0.33214235 9
1.3654019 7.7995811 0.56868738 9.5
1.4030769 7.8128891 0.89377141 10.5
1.309202 7.799901 1.2859412 12
1.3729918 7.8304629 1.5541772 13.333333
1.3618965 7.7948942 2.0354156 14.6
1.6767875 1.1687392 -0.15111198 5
1.7915621 1.4364125 -0.16322149 5
1.830429 2.1842167 -0.18825755 5
1.7519296 2.7898858 -0.21420464 5
1.93489 3.1627836 -0.22308959 5
1.6424005 3.7214448 -0.25102675 6
1.8022819 -0.10004102 0.30647928 10.916667
1.6600529 0.58384049 0.29117197 11.125
1.6295691 3.9396315 -0.02238939 7
1.8316655 4.6349998 0.048763119 8
1.9901224 5.0505443 -0.010750223 7
1.6268038 7.2759566 0.16290852 8
1.7883995 -0.08337687 0.53447425 14.5
1.7781328 0.21227486 0.58207911 15
1.716204 0.53595865 0.54240972 14.666667
1.6967747 3.5518935 0.44382232 10.5
1.7292212 7.8739347 0.5982756 9.5
1.7397534 7.890995 0.91940534 10.666667
1.760929 7.8992419 1.286479 12
1.8452257 7.9322019 1.6112605 13.333333
1.7428514 7.8455148 2.0162482 14.5
2.0344684 1.4923919 -0.15348646 5
2.2169294 1.8648744 -0.17079271 5
2.2416003 2.1444771 -0.19378263 5
2.1024446 2.5934129 -0.19867913 5
2.1165257 -0.41341394 0.33442518 10.666667
2.0747323 -0.29464987 0.3175981 10.4
2.0972109 -0.42655537 0.58169144 14
2.0670338 -0.20609973 0.62458354 14.5
2.1927078 7.9521923 0.59550905 9.333333
2.1132994 7.9635472 0.89909667 10.5
2.346101 6.888813 1.4259341 13
2.1173151 7.9720707 1.3983757 12
2.3500307 7.0063324 1.7350743 14
2.3124692 7.4944339 1.8289087 14
2.1277692 8.0000391 1.6884028 13.5
2.3179841 6.9450307 2.0739243 15
2.3173211 7.5258403 2.2070608 15
2.1246884 7.8723698 2.0820358 14.6
2.7602744 2.6173968 0.29331952 9
2.6572251 3.0032909 0.29020521 9
2.5852687 3.3485785 0.31000978 9
2.617821 6.1982193 0.29393372 9
2.5051548 6.5807948 0.30386454 9
2.4230545 6.8452349 0.31019071 9
2.7410703 2.6348093 0.63870031 11.8
2.659353 3.0068371 0.6041292 11.285714
2.5679672 3.3783307 0.5765847 10.875
2.7486715 5.4731064 0.58881229 9.666667
2.6630549 5.7151399 0.55012381 9.5
2.5748079 6.1588559 0.71652669 10
2.4878073 6.7184472 0.62238443 10
2.7174709 2.620429 1.0106903 14.5
2.620611 3.0531433 0.99059725 14
2.5557706 3.3637831 1.0210479 14
2.7472856 5.3695402 0.95308679 11.5
2.6274691 5.7405028 0.90856302 11.333333
2.5372009 6.2451978 0.95806384 11.5
2.4624095 6.5781422 0.84782904 10.666667
2.400188 6.83181 0.74546403 10
2.6073635 3.5325847 1.1991488 15
2.7108502 5.4723091 1.3951257 13.666667
2.6114669 5.7726941 1.321022 13
2.5348351 6.2273951 1.3032154 12.666667
2.4430716 6.6400805 1.3002886 12.333333
2.7437899 5.1981034 1.7207872 15
2.7041767 5.4448524 1.6658268 15
2.6409602 5.8566823 1.7238055 14.5
2.5592546 6.2135868 1.6758522 14.25
2.4506803 6.6972413 1.7774547 14.5
2.4638977 7.0247717 1.7754266 14
2.456352 7.5741544 1.8701066 14
2.4760363 6.40449 1.9644563 15
2.4083939 6.689939 2.0235231 15
2.4062128 8.1250839 2.1536605 15
2.9617064 2.357486 -0.088917837 6.5
2.8879168 2.9206362 -0.14581554 6
3.0135293 3.9707429 -0.22203462 6
3.0566428 4.0836358 -0.14168707 6.3333335
3.0872309 5.5120325 -0.27824426 6
3.0170069 1.4324214 0.31258279 9.1111107
2.9440718 1.7899035 0.26458108 9
2.8554838 2.1957314 0.28823861 9
2.8262796 2.4445374 0.30577374 9
2.8644056 3.0009801 0.089028679 8
3.0101109 4.2427683 0.23014216 8.5
3.0201321 4.5808492 0.30219591 8.5
2.9153111 4.9679422 0.28792155 8.5
2.9869928 5.5801034 0.07564579 8
2.8947327 0.12975593 0.8328793 14
3.0281706 1.400591 0.61128777 11.444445
2.9506371 1.821962 0.6084373 11.6
2.8342929 2.231745 0.57881379 11.6
2.8384302 2.6229706 0.74134332 12.333333
3.0542219 4.3626313 0.59688252 10.5
2.9905033 4.5724788 0.61223882 10.166667
2.8663874 4.9853835 0.6030755 10.142858
2.791863 5.3440213 0.48499653 9.5
3.0170465 2.5616553 1.0455137 14
2.9844337 2.9048095 1.1755892 15
3.014457 4.3705721 1.1473317 13
2.9499414 4.6434474 1.0128503 12.166667
2.8684897 4.9340334 0.95808828 11.75
2.7799921 5.4459057 0.87155199 11.5
2.9768317 4.3551526 1.489495 15
2.9656389 4.617424 1.3757424 14.166667
2.846664 5.0745516 1.3436017 13.5
2.8248765 5.5252724 1.5209479 14
2.9125531 4.5745034 1.6030165 15
2.8291428 4.9367995 1.6721429 15
3.2206192 4.5466442 0.22137074 8
3.1913595 1.1961274 0.76493216 13
3.2677743 1.4494121 0.78139085 12.5
3.319674 1.7858319 0.74845546 12
3.3562155 2.3154171 0.78973192 12
3.3458796 2.5702865 0.80495214 12
3.5598199 1.5681314 1.1162595 14.5
3.5001478 1.8517096 1.0757809 14.166667
3.4112158 2.2527056 1.0746543 14
3.3206058 2.5808814 1.0861262 14
3.2570093 3.0387557 1.1791513 14
3.3408911 2.5141745 1.2439541 15
3.6029439 1.4410149 1.1174765 14.4
3.5937905 1.7778898 1.1040894 14
