# .PCD v0.7 - Point Cloud Data file format
VERSION 0.7
FIELDS x y z intensity
SIZE 4 4 4 4
TYPE F F F F
COUNT 1 1 1 1
WIDTH 633
HEIGHT 1
VIEWPOINT 0 0 0 1 0 0 0
POINTS 633
DATA ascii
-4.0578651 -7.653398 3.3664021 13
-3.9509118 -7.6528249 3.3612473 13
-3.3758075 -7.9574518 3.2437098 13
-3.3145857 -7.9213543 3.4486678 14
-1.6750523 -0.48903519 0.43151861 12.2
-1.6810755 -0.30974329 0.45477447 13
-1.680048 -0.44098821 0.54483825 14
-1.6847754 -0.32233277 0.48641011 14
-1.4505769 -0.44447443 0.33925858 12
-1.4137447 -0.3028878 0.33953688 12.5
-1.2338889 0.65148717 0.24325208 14
-1.4621328 1.0510262 0.1546817 12
-1.3969051 1.4571419 0.089791 11.5
-1.3312669 1.8280566 0.029790049 11
-1.2742918 2.1861815 -0.015054576 10.8
-1.2216966 2.4631286 -0.054907385 10.5
-1.4726648 0.85052115 0.33154079 15
-1.4595217 1.0945987 0.2840412 14.2
-1.3966392 1.4817507 0.28269547 14.222222
-1.3229052 1.8922986 0.24139304 13.714286
-1.2687786 2.2810199 0.22357966 13.5
-1.2157868 2.6107881 0.17455916 13
-1.261852 -2.5228448 1.3012842 15
-0.82866174 -2.1449475 0.70519435 11
-0.90160275 -0.37530071 0.35042351 14.5
-1.0023396 -0.32582888 0.35458964 14.333333
-1.1831574 2.6942255 -0.078677416 10.5
-1.1346308 3.0109098 -0.14667858 10
-1.0583935 3.4620643 -0.20047237 10
-0.98530942 3.8895292 -0.26368314 10
-0.99553919 -2.6444173 1.212832 14
-0.88416511 -2.4468803 1.1802889 14.5
-0.9414795 -2.1036897 0.99021 14
-1.1677974 2.7454085 0.10452297 12.25
-1.1253316 3.0530677 0.085249193 12.285714
-1.0391537 3.4719369 0.078984581 12.333333
-0.9691866 3.8192358 -0.0083126947 11.625
-0.88754612 4.1788702 -0.11109514 10.8
-1.1203043 -2.5676095 1.2910391 15
-1.1390328 2.7986271 0.43798363 15
-1.1114053 3.0652859 0.40689602 14.666667
-1.0412118 3.4811351 0.42240191 14.6
-0.981067 3.9004271 0.42926693 14.5
-0.89477289 4.2669559 0.21248166 12.8
-0.82714409 4.3744097 0.55582595 15
-0.65145683 -0.4831745 -0.13470614 0
-0.68740845 -0.348133 -0.15075564 0
-0.49279124 0.63895822 -0.30518103 0.40000001
-0.49231473 0.96952635 -0.35900241 2
-0.44588882 1.2905115 -0.4043873 3.5
-0.51688713 1.622665 -0.4683173 4
-0.56370717 -2.1811519 0.62101895 10
-0.72536957 -1.7348071 0.60565293 11.5
-0.63390821 -1.3001111 0.51350218 12.285714
-0.56784046 -0.95240223 0.45968634 13.875
-0.62803954 -0.62793416 0.37398413 14.6
-0.71825933 4.2773733 -0.29837918 10
-0.4234556 -2.647723 1.2184745 14.5
-0.55165547 -2.421392 1.1497335 14.666667
-0.6136139 -2.1579573 0.89396632 13
-0.65751821 -1.3209845 0.6631518 14.333333
-0.59293443 4.2847657 -0.12712911 10.8
-0.48186615 -2.6604538 1.278221 15
-0.57033265 4.334765 0.2273635 13
-0.56350231 4.4033785 0.56159884 15
-0.24288443 0.61396295 -0.30396292 0
-0.19790649 0.93414527 -0.35498071 1.3636364
-0.17812143 1.314189 -0.40556136 3.2
-0.29567617 1.7283752 -0.47015554 4
-0.38939011 1.9764894 -0.51580971 4
-0.17936893 -2.2705209 0.61445528 9.7142859
-0.17529528 -2.7459254 1.2542987 14.5
-0.16355343 -2.4689231 1.1231428 14.4
-0.19404988 -2.2363911 0.84438956 12.5
-0.23059157 4.2244391 -0.12718336 10.875
-0.2023996 -2.7384841 1.2907891 15
-0.2095201 4.2837753 0.22533841 13.111111
-0.22026162 4.3359337 0.53381383 15
0.10249428 0.66500652 -0.31583953 0
0.048372872 0.83531082 -0.34288672 0.66666669
0.23557948 -2.3472602 0.62754822 9.8571424
0.11972234 -2.314878 0.62340397 9.833333
0.21487921 -2.9285326 1.2534516 14
0.24513657 -2.3391411 0.90485758 12.8
0.044925902 -2.2811642 0.85109711 12.5
0.20564885 4.1528726 -0.10726227 11
0.25951272 -2.8310559 1.3281611 15
0.20368329 4.225112 0.32033658 14
0.1955166 4.256793 0.51980448 15
0.66361314 -0.52850622 -0.12941766 0.5
0.66370207 -0.26787937 -0.16102822 0.25
0.69413698 0.043188673 -0.20640275 0.33333334
0.59732765 -2.4034903 0.60977745 9.3999996
0.76913762 1.1124996 0.1941174 15
0.78180546 1.3619659 0.15478091 14
0.57619888 -2.4476151 1.0262572 13.7
0.57402498 1.4128888 0.16569735 15
0.62613094 4.0889511 -0.045085296 11.444445
0.59432697 -2.8984466 1.4397317 15
0.72659469 -2.5625203 1.2461071 15
0.6448828 4.142241 0.32191563 14
0.57885742 4.1856937 0.51820576 15
1.1811842 -1.352383 -0.015801415 3
0.98430473 -0.96586931 -0.067832835 2.6666667
0.99334466 -0.64467573 -0.12202325 1.8571428
0.97247726 -0.26604939 -0.16796072 1.5
0.98145032 0.17348242 -0.22624408 1.8571428
0.98322564 -2.4655952 0.62845433 9.3999996
0.8187995 1.0736718 0.18599093 15
0.85010082 1.3773063 0.13135217 13.5
0.93452948 1.685569 0.055592395 12.5
0.99099135 -2.4942942 0.99555308 12.833333
1.0119873 4.0230432 -0.028580962 11.444445
0.8250559 4.0580606 -0.035839286 11.333333
1.0026224 -2.5409198 1.2424862 15
1.0313044 4.0746307 0.3405945 14
0.81503093 4.1410203 0.51947433 15
1.3911858 -1.6963388 0.026928343 4
1.3791554 -1.3975464 -0.011388218 4
1.3881302 -1.0140146 -0.066408232 3.4000001
1.4161555 -0.62008756 -0.12042743 3.3333333
1.3869073 -0.24260405 -0.17374712 3.3333333
1.3735054 0.17032689 -0.23235217 3.5
1.3593544 0.40617859 -0.26244187 3.6666667
1.3783612 -2.5009472 0.64957309 9.3999996
1.3563212 3.9283552 -0.27253512 10
1.4580506 -2.6780031 1.167505 13
1.3335037 -2.5210764 1.0148187 12.5
1.3924866 3.960289 -0.037619498 11.142858
1.4350328 -2.6428988 1.3021519 14.666667
1.2674204 -2.588021 1.2801011 15
1.4249185 4.0090714 0.35460791 14
1.900213 -2.5326698 0.14224443 5
1.5967829 -2.0340228 0.072980732 4
1.8392693 -1.8632226 0.04812051 4.5
1.8501704 -1.3500086 -0.030006342 4
1.8188912 -0.99150008 -0.076188549 4
1.6634065 -0.67840827 -0.11246349 4
1.6603719 -0.40598452 -0.14840212 4
1.8909011 0.15409914 -0.22277513 4.3333335
1.7634169 0.57732284 -0.2859239 4.75
1.7119105 -2.5406728 0.66009426 9.25
1.8382487 -3.6561053 1.1428142 11
1.741498 -2.5262349 0.87648416 11.333333
1.8285143 3.8955672 0.056755714 11.75
2.0059564 -3.4989197 1.4337593 13
1.8218629 3.9377959 0.3598375 13.777778
1.9333619 3.940253 0.54172951 15
2.0212677 -2.0915668 0.082440868 5
2.1530123 -1.760327 0.032023534 5
2.2565455 -1.456374 -0.02592806 4
2.255347 -1.1223 -0.059450842 5
2.1678905 -0.71126592 -0.1082545 4.6666665
2.1855247 -0.22342847 -0.18260619 5
2.0338955 0.30580676 -0.24940366 5
2.1836367 0.8333407 -0.32926565 5
2.3500845 -1.973861 0.41351095 8
2.3309252 -1.7198204 0.64991426 11
2.344882 -1.4662017 0.62138981 11
2.1715574 -2.378418 0.85586035 11
2.2272825 -1.6863843 0.76894933 12.25
2.3743393 -1.3246605 0.60172653 11
2.2380664 3.8144596 0.021105971 11.2
2.154238 -3.4842899 1.5732654 13.857142
2.2002976 3.8649077 0.37078193 13.5
2.2892158 -3.4765553 1.7881567 15
2.2017784 3.8911338 0.57914639 15
2.6067533 -2.2110572 0.24606065 6.5
2.6450477 -1.7506698 0.070021093 5.5
2.4106994 -1.573018 -0.0090467045 5
2.6863127 -1.0160906 -0.065908484 5
2.417577 -0.36782709 -0.16981025 5
2.4109402 0.64679033 -0.31201738 5
2.5950737 -3.3781631 0.71081871 8.333333
2.5350149 -1.6094089 0.34484056 8
2.6259115 -1.4765655 0.42494294 9.25
2.5493944 -3.8096113 1.2162002 11
2.6230924 -3.3490951 1.1261209 11
2.7863481 -2.4216001 0.85358495 11
2.6047721 -1.298178 0.61693645 11.2
2.4773581 3.7806847 0.14173029 12
2.5927432 -3.5843179 1.607312 13.285714
2.4891195 3.8000307 0.37849122 13.5
2.6441216 -3.5304947 1.861168 15
2.6364009 -3.2903473 1.8587515 15
2.4971108 3.8477705 0.67908895 15
2.8890078 -3.1424127 0.49053249 7
2.9029188 -2.4907484 0.15056652 5
3.1334951 -2.2725985 0.34288943 7
2.8223846 -1.4504507 -0.016964588 5
2.9631023 0.49729329 -0.28683892 5.5
2.991941 0.84405977 -0.34177005 6
2.9861851 -3.4683316 0.76501733 8.3999996
2.8949432 -3.0733709 0.61301035 8
3.1456935 -2.2412281 0.3788957 7
2.891475 -1.6810178 0.35497633 8
3.1708109 -1.4445381 0.46123928 9
2.9726052 -3.3529754 1.1116204 10.666667
3.0843151 -1.3687054 0.65329146 11
2.9164855 4.180202 -0.27319804 9.5
2.9646962 -3.6589406 1.6550786 13.25
3.191426 -3.4193861 1.3586646 12
3.0407271 -3.5669694 1.9012249 14.6
3.4293575 -3.5754681 0.52126312 7
3.3725398 -3.4556358 0.51248932 7
3.2051036 -2.0137434 0.24745424 7
3.4829037 -1.8601764 0.12384269 6
3.3506887 -0.89429623 -0.09754657 5
3.2851355 0.20657514 -0.23817161 6
3.3954434 -3.5437403 0.78673053 8.5
3.3318822 -3.357759 0.90795511 9
3.5135729 -1.9953411 0.67083693 10
3.310643 -1.7202746 0.55353802 9.333333
3.3470404 -1.4616822 0.40609631 8.666667
3.3877108 -3.9188979 1.196967 10.5
3.3350871 -3.4746494 1.3376055 12
3.3468621 -3.3549557 1.0493217 10
3.3503728 -1.3325851 0.64937556 10.75
3.4677405 -3.6267836 1.5054457 12.5
3.5803006 -3.7110438 2.0813918 15
3.3366294 -3.690042 1.9815739 14.666667
3.7847168 -4.2864408 0.28191945 5
3.7312326 -3.5861876 0.46200815 7
3.818037 -3.5288224 0.47804627 6.5
3.6229515 -2.0390439 0.23618369 7
3.7138102 -1.9590006 0.22719023 7
3.7363682 -1.4748858 0.094245419 6
3.6458795 1.0645561 -0.38028923 6
3.7396033 -3.54509 0.79248619 8.333333
3.740088 -3.4820142 0.66496855 8
3.7893231 -2.3742564 0.68140429 9
3.8574147 -1.6861975 0.36106461 7.6666665
3.7011211 -3.3967109 1.0815015 10
3.7758679 -1.9757228 0.6950717 10
3.8494768 -1.5243654 0.65121377 10
3.7689371 -3.8613515 1.6947263 13
3.8456826 -3.4820905 1.3936324 12
3.8325145 -3.831696 2.0073113 14
4.2337823 -3.6890392 0.45482177 6.6666665
4.286643 -1.9107528 0.22245513 7
4.2343659 -3.6523328 0.82276201 8.6000004
4.3568554 -2.3886755 0.68458933 9
4.108685 -1.5962608 0.3977724 8
4.075398 -1.5103984 0.44724941 8.5
4.3313155 -3.4789042 0.97094023 9
4.0576544 -1.501243 0.66200316 10
4.1765022 -3.9841766 1.7740231 12
4.1789947 -3.5693667 1.5371867 12
4.1531887 -3.8964982 2.0766647 14
4.2825603 6.5877948 0.20022528 12
4.2878962 -3.9049284 2.2738347 15
4.2677031 -3.5139141 2.2645421 15
4.5795178 -3.7548778 0.47415507 7
4.7215967 -2.5327499 0.20970115 6
4.5836673 -2.2492206 0.22623204 6.5
4.733418 -1.8820562 0.085219391 6
4.7822771 -1.3948219 0.11805255 7
4.5947919 -3.6793132 0.83566236 8.333333
4.5058823 -3.1620491 0.87033963 9
4.5513854 -2.6150782 0.68867952 9
4.6779742 -1.6873959 0.4425821 8
4.735404 -1.4948385 0.29670891 7.5
4.4218316 -4.0189619 1.8120416 12
4.6908398 -3.656028 1.634789 12
4.6181889 6.3789663 -0.079002902 10.5
4.488636 -3.9972403 2.0761468 13.5
4.7279811 6.4440546 0.30208376 12
4.5699425 6.5432353 0.24524677 12
4.5485001 -3.9663332 2.3439181 15
4.8040833 -3.5983496 2.4128408 15
4.5840244 6.4733763 0.65265495 13.5
4.663444 6.5006618 0.97443998 14.5
4.8315058 -3.7822096 0.47773397 7
4.9933286 -1.7336646 0.14902839 6.5
4.8399515 -3.751394 0.8977102 9
4.8643084 -2.00422 0.64000833 9
4.8762641 -1.6534621 0.26979759 7
5.1407938 6.2851734 -0.53102553 9
5.1017313 6.3284721 -0.050377801 10.666667
5.1117263 6.3961372 0.30219558 12
5.0196567 -4.2404933 2.3212097 14
5.0156512 6.3886261 0.63322425 13.333333
5.06112 6.432198 1.0043561 14
5.5106091 -1.5095713 0.038183168 6
5.2362442 0.37199718 -0.26225564 6
5.4060845 -3.8442962 1.1698723 10
5.3990598 6.1950622 -0.43894354 9
5.4186053 6.2353711 -0.10746881 10.4
5.5485787 -4.6763864 2.2155437 12.5
5.5901246 -4.3791809 2.1537437 12.5
5.325954 6.2914553 0.29812407 12
5.5780945 -4.5649843 2.7202823 15
5.5123825 -4.3042011 2.4984033 14.333333
5.4433246 6.3084769 0.64933354 13.333333
5.3727746 6.3806725 1.0289128 14
5.5366011 6.3857331 1.3943506 15
5.8399301 -2.6697247 0.17003666 6
5.8703837 -0.88382775 -0.066545963 6.5
5.8588676 -0.63246423 -0.12037206 6
5.9014969 2.6532197 -0.57355976 7
5.9760008 -4.4765215 0.91323358 8
5.9267397 -4.0895543 0.94647229 8.333333
5.8022776 -2.9108887 0.75851125 8.333333
5.7760072 -1.5300394 0.50948352 9
5.8422642 -0.971277 0.20906 8
5.773737 5.4711318 -0.59932601 8
5.9461112 3.2716274 0.11603084 10
5.8384576 6.1199732 -0.45838815 9
5.9870915 -4.2790861 1.7902099 11
5.9512329 -3.9409249 1.7288916 11
5.8951273 2.8990269 0.48863155 12
5.7311902 5.5575366 -0.046660893 10.5
5.8316689 6.1798792 -0.12330978 10.333333
5.6452165 -4.2089195 2.124516 12.5
5.8053732 -3.966831 1.9601277 12.4
5.826427 -3.5643685 1.9846251 13
5.9337578 -3.1584609 1.9257737 13
5.9996214 -2.9095798 2.0170419 14
5.7609982 6.221529 0.31553319 12
5.6620035 -4.153522 2.5237827 14.5
5.7383442 -3.8763938 2.4705245 14.5
5.8635588 -3.4174569 2.3885887 14.5
5.9714346 -3.0429215 2.3125205 14.5
5.9212537 5.382019 0.81360418 13
5.8827624 5.5943894 0.8155086 13
5.8789563 6.2577505 0.8308841 13
5.9691725 -3.6649084 2.7178981 15
5.8130112 6.3123794 1.0643795 14
5.7968202 6.3702674 1.4173325 15
6.0234675 -4.5936131 0.6476931 7
6.2905421 -2.5285978 0.098912142 6
6.257174 -2.1700137 0.080198921 6
6.2049947 -1.7404512 0.095877282 6.3333335
6.1563711 -1.2640506 -0.1014692 6
6.2044263 -1.2216431 -0.057825465 6.5
6.0565181 -0.66228747 -0.12436879 6
6.3380814 -0.086599194 -0.19966488 6
6.320024 0.11449747 -0.21765848 6.3333335
6.0399265 -3.9869998 0.74898559 7.5
6.1443214 -3.8396308 0.65769839 7
6.3345275 -2.1795945 0.48390812 8
6.2340837 4.9298496 -0.49633586 8
6.1807795 6.0175881 -0.71867931 8
6.0015235 -4.4818368 1.1084094 9
6.1863027 -2.9427269 1.1286248 10
6.2770357 -2.4236991 0.98729938 10
6.3000655 -2.0969892 0.8934654 9.75
6.3902349 -1.8037425 0.74811858 9.5
6.1609759 3.3392894 0.18281625 10
6.161108 6.0554485 -0.45538834 9
6.0430722 -3.6046617 1.6863363 12
6.1189613 -3.2225645 1.6383921 12
6.1994534 -2.7642102 1.58348 12
6.2593455 -2.4425223 1.5494215 12
6.3735347 -2.0644481 1.1228548 11
6.4037786 -1.753166 1.1010863 11
6.1867347 2.300199 0.69579566 12
6.1367002 3.4282577 0.42484635 11.5
6.2725191 4.1791906 0.14402354 10
6.2397428 5.2992134 -0.082984872 10
6.0396962 6.1315918 -0.079121746 10.5
6.0612135 -3.5369024 1.7807138 12
6.119894 -3.1867788 1.9120703 13
6.1206131 -2.7341478 1.8394481 13.142858
6.212698 -2.3576746 1.7246338 12.833333
6.322525 -1.9419515 1.6183336 12.6
6.3725362 -1.622519 1.6251228 12.666667
6.1868839 3.9586787 0.67014569 12.4
6.1891961 4.3775611 0.61351943 12.333333
6.2203326 4.7391191 0.41814211 11.666667
6.2560229 5.2030568 0.46922991 11.75
6.3570237 5.9549084 0.30986017 11.666667
6.1418819 6.2051377 0.28189537 11.5
6.0761805 -2.63027 2.2963688 14.666667
6.1842709 -2.22767 2.1190324 14.666667
6.2678142 -1.9268131 2.0656037 14.6
6.3755631 -1.543287 1.9581479 14.5
6.2365766 3.7912545 1.2919717 15
6.3340173 4.1977186 1.0515074 14
6.0750985 5.2739959 0.82182962 13
6.2355599 6.1999693 0.85174447 13
6.0353312 -3.3283699 2.6580825 15
6.0583529 5.4989038 1.3725245 15
6.2572231 6.220191 1.1028776 14
6.0321126 6.2667689 1.0831381 14
6.3010912 6.2891078 1.4587091 15
6.0349154 6.3216162 1.4360274 15
6.3983798 -1.9927092 0.15586199 7
6.4691768 -1.4427432 0.061911754 6.5
6.5178924 -1.0518974 -0.040445879 6.5
6.6028547 -0.61151952 -0.026277401 7
6.6129351 -0.28215271 -0.12372313 6.5
6.6715636 0.011200008 -0.08091937 7
6.4111066 -1.9507946 0.6003226 9
6.4211168 -1.7394321 0.38628429 7.75
6.4756708 -1.3822131 0.32621452 7.8000002
6.5565643 -0.91115147 0.2846106 8
6.613142 -0.55313528 0.2122543 8
6.6080141 -0.1944176 0.25800645 8.3999996
6.6674914 0.17460263 0.035935793 7.6666665
6.5010486 5.9156847 -0.7680372 8
6.4233499 -1.6334809 0.80921721 9.666667
6.4892778 -1.3121988 0.72259945 9.5
6.5614653 -0.89562774 0.69175315 9.5
6.6132979 -0.57786661 0.69687134 9.6000004
6.6187773 -0.12996969 0.54736561 9.75
6.6556816 0.10015991 0.46284178 9.5
6.4962478 5.4522901 -0.45392135 9
6.4251199 6.0247731 -0.59293532 9
6.4397187 -1.6632271 1.0991826 11
6.4922571 -1.2259291 1.0535163 11
6.5575185 -0.85504842 0.99701035 11.333333
6.6145577 -0.55045617 1.003706 11.5
6.6280456 -0.066106848 0.99096292 11.5
6.6962304 0.26631746 1.078632 12
6.4378815 -1.4970937 1.5339781 12.5
6.4890928 -1.1845845 1.5806568 13.4
6.5707083 -0.74390411 1.5223202 13.2
6.6102524 -0.37101769 1.4467739 13.333333
6.6528268 0.058919389 1.3741801 13
6.4465051 5.0352578 0.47974724 11.5
6.5413365 5.5740247 0.34350094 11
6.5088534 5.8924675 0.32257205 11
6.4233885 -1.3422754 2.0284758 15
6.4968791 -1.0880147 1.9227157 14.5
6.5527105 -0.69826233 1.8437318 14.5
6.6215677 -0.35457042 1.8157759 14.6
6.6767836 0.17970423 1.5351942 14
6.5011182 5.1443491 0.85018384 13
6.5873742 6.2698989 1.4885916 15
7.0542803 1.8273525 -0.22535335 8
7.0925207 2.69471 -0.34694171 7.5
7.0745521 3.0085931 -0.30149895 7.6666665
7.2024288 3.9212725 -0.10046609 9
7.0571852 -0.1868961 2.0371301 15
7.305306 2.2727342 -0.36707553 7.5
7.3125501 3.8112032 -0.49711758 7.5
7.5157084 4.1617737 -0.41685304 8
7.3501205 2.5220411 -0.012319207 9
7.4405856 2.8950174 -0.050998729 9
7.4957366 3.4409707 -0.062017366 9
7.2670722 3.7496376 -0.096962154 9
7.2656298 4.0766125 -0.11609705 9
7.4463186 5.9571939 -0.37240916 9
7.4910197 3.724272 0.18287061 10
7.5463662 5.8609982 -0.20297739 9.5
7.9516578 2.1491325 -0.45742545 7
7.9146667 2.5764296 -0.55125439 7
7.8946509 2.3460581 -0.30948108 8
7.9837251 1.9968033 0.25480595 9
7.9990697 2.0726826 -0.017037679 8
7.6546516 3.0711763 0.20313857 10
7.8343048 5.8753519 -0.26170719 9
7.8529053 5.871201 -0.03522747 10
7.7948122 1.0253224 2.1122205 15
8.063015 1.9930298 -0.48514035 7
8.0012493 2.6868711 -0.80837744 6
8.2257671 1.9262146 -0.014864041 8
8.1644526 1.8436284 0.26176772 9
8.1429758 2.3728967 0.09863998 9
8.1921072 1.9034382 0.50305605 10
8.6699457 5.2006068 -1.1111956 7
8.7523022 5.5429082 -1.1534212 7
8.7450132 5.5934248 -0.80824006 8
8.6277122 5.6408043 -0.41471151 8.5
8.7280235 5.6976666 -0.15803847 9
8.5558672 5.9018197 0.35868204 11
8.6047325 0.92022538 2.1234245 15
8.4449291 -0.040019263 2.3563135 15
8.491931 0.2474723 2.3404398 15
8.636879 0.6357789 2.3445473 15
8.7591648 0.94315165 2.351016 15
8.6034813 1.3026286 2.3025169 15
8.7889566 2.3102758 2.1232936 15
8.7453632 2.5073583 2.1189291 15
8.7371063 5.5807099 1.700063 14
8.5918779 5.1019073 1.9773045 15
9.0393114 3.1602333 -0.43306807 8
8.969223 5.526207 -0.53429902 8.5
9.121686 5.1915088 0.11175713 10
8.9326038 5.5339904 0.028832672 10
9.1576099 5.2372432 0.43016961 11
9.0166759 5.5353746 0.38709915 11
8.8655167 5.7182055 0.17194642 10
8.9995003 0.22659914 2.252948 14
8.9428635 0.53750038 2.2190964 14
9.0876637 1.8618042 2.0010917 14
8.9003849 1.4728702 2.3498304 15
8.935379 1.6916716 2.2525697 15
9.0629215 2.143115 2.1749485 14.6
9.1964827 2.5799849 2.0158303 14
9.0978813 3.0645769 1.9471117 15
9.0158501 3.5079508 1.9421303 15
9.1007223 3.7840457 1.9639084 15
9.1679411 2.4867382 2.368675 15
9.0305605 3.4857686 2.2072482 15
8.8941126 5.0001912 2.0207257 15
9.5356464 5.4552054 0.71925062 12
9.3764105 1.4507879 2.0665164 14
9.2445593 1.6638045 2.0343373 14
9.3047581 3.1789904 1.7165748 14
9.2629137 2.7924016 2.2018247 15
9.3306484 3.050107 2.214596 15
9.4589386 3.4036305 2.0672746 15
9.450551 3.3342032 2.2376492 15
9.2822313 4.8718367 2.154532 15
9.9570255 2.3679566 0.28649792 9
9.799058 5.1926627 1.1036359 12
9.6592875 4.2247772 2.205575 15
10.247829 2.1903467 -0.68663943 6.3333335
10.32806 3.5761523 -0.7485528 7
10.250062 1.765391 -0.057984784 8
10.124573 2.0958645 -0.30571434 7.3333335
10.343798 3.443367 -0.3603667 8
10.097319 2.0241034 0.10221396 9
10.010689 2.2733493 -0.013149623 8
10.228847 5.5293465 1.4864599 13
10.73243 1.4594014 -0.053357664 8
10.541156 3.3186591 -0.44344857 7.5
10.461174 5.418972 0.4848989 11
10.528596 5.4334106 0.80988783 11
11.060827 1.6648033 -0.63861722 6
11.104271 1.9451081 -0.65863639 7
11.004163 1.948215 0.09907721 8
11.161985 3.5939102 0.19588798 9
11.036322 3.6651638 1.5574591 13
11.145781 2.8734117 1.9570923 13
11.495661 1.1749544 -0.74037659 6
11.575358 1.1371237 -0.66544223 6
11.505494 1.0147434 -0.048580565 8
11.592947 1.3419822 -0.27037546 7
11.235189 4.7962165 -0.91585058 7
11.593076 5.2524762 0.12207118 10
11.456468 5.5570283 0.18895072 10
11.537416 3.0070965 1.6136969 12
11.326444 3.3522236 1.5889456 12.5
11.586984 -0.12608239 2.8436635 14
11.814883 1.4854709 -0.78967637 6
11.676849 0.96450979 -0.43654352 7
11.994984 0.77367252 -0.046936087 8
12.001853 5.1099415 0.13016185 9
11.906355 5.1907687 0.54498726 10
11.964885 5.1442299 0.89382309 11
11.911581 5.4767742 0.69529456 11
12.012422 1.1956997 2.7819874 14
11.798071 3.7059166 2.0962007 14
12.318048 5.001852 1.7073421 13
12.077992 0.93108177 2.7991562 14
12.123028 1.4145173 2.598841 14
12.372766 2.911396 2.5281675 14
12.650123 5.046505 0.55063242 10
12.60491 3.0576408 1.3559463 11
12.587146 5.0667491 0.93279231 11
12.605568 5.4424677 0.98584419 11
12.805592 -0.20858182 2.8175223 13
12.742946 0.1062621 2.7820559 13
12.684162 2.3729622 2.5880499 14
12.529181 4.9420085 2.2123353 14
12.905643 5.2756677 0.068184391 9
13.163266 4.9441514 0.96826166 11
12.85148 5.0341253 1.3549206 12
12.843402 4.8873053 1.7640067 13
13.111834 1.8285196 2.6750083 14
12.924062 2.1103725 2.6353285 14
13.267685 4.9420767 0.1443865 9
13.432766 4.8481169 0.5562911 10
13.599051 4.9745469 1.4187986 12
13.397359 0.54783124 2.4320524 13
13.601521 1.5328965 2.4198201 13
13.449908 4.7831421 1.8323667 13
13.414396 1.0840137 2.748718 13
13.614913 1.5156571 -0.13124557 8
13.832233 0.87559444 0.13639197 8
13.930554 4.8281493 0.15352827 9
13.651538 4.8935676 0.61902499 10
13.838473 4.8276768 1.0104223 11
13.838528 5.2419143 0.82769477 11
13.64424 1.8679105 2.4143758 13
13.705048 2.2161381 2.4141555 13
13.780887 2.5664635 2.4166868 13
13.820689 2.916693 2.415597 13
14.171831 4.7289138 0.58488888 10
14.266421 4.8548102 1.4772049 12
14.611615 1.555431 0.30596367 8
14.591749 4.7103362 1.0588084 11
15.002604 0.74086452 -0.4765256 7
14.944875 4.5877452 0.61611521 10
14.96476 4.7130704 1.5372725 12
15.389277 5.0317774 0.93791831 10
15.384013 4.5710621 1.11077 11
15.828958 4.4435458 0.6513145 10
16.237028 4.4038486 0.18430936 9
16.403618 1.3341657 0.82558298 9
16.409433 1.6528192 0.83327246 9
16.379345 1.2919221 1.2892179 10
16.343969 1.8259013 1.2306359 10
16.36322 0.9288612 1.7421104 11
16.421026 1.3028457 1.7357631 11
16.265301 4.41782 1.1674261 11
16.279184 4.325613 1.6569233 11
16.460337 1.7365421 0.80496162 9
16.54254 2.2811806 0.79922295 9
16.6113 2.6782589 0.78371757 9
16.691664 2.9928393 0.74826062 9
16.809065 4.2804122 0.69235814 10
16.444132 1.6856471 1.2769078 10
16.537945 2.0843894 1.2660698 10
16.55652 2.5471735 1.2181176 10
16.613253 2.9506159 1.1989499 10
16.76564 4.6469064 1.0507953 10
16.460823 1.6798242 1.7284702 11
16.785906 2.0154958 1.659963 11
16.984646 3.4662249 0.73598838 9
16.876017 0.57209253 1.7987443 11
17.072615 3.7888207 1.2371598 10
16.873215 4.1624613 1.2125112 10
17.461536 0.96737206 1.3734568 10
17.531307 3.4644284 1.2768964 10
17.857677 0.79978424 -0.78648984 6
18.12785 0.37644845 -0.77337378 6
18.208809 0.72697216 0.10502032 8
18.169214 3.9554067 1.8278077 11
18.600477 0.73276484 -0.21869643 7
18.815912 1.2330943 1.4394057 10
18.460783 1.0479279 2.4304695 11
18.755306 2.7685831 1.9048326 11
18.654728 2.2920566 2.4357712 12
18.657648 2.7063079 2.4322021 12
18.952402 2.230144 -0.94415802 7
18.924751 2.632009 -0.71160233 7
18.828461 0.61982507 0.95620275 9
18.912271 1.0760398 0.93188417 9
18.823839 0.60111183 1.4766386 10
