# .PCD v0.7 - Point Cloud Data file format
VERSION 0.7
FIELDS x y z intensity
SIZE 4 4 4 4
TYPE F F F F
COUNT 1 1 1 1
WIDTH 128
HEIGHT 1
VIEWPOINT 0 0 0 1 0 0 0
POINTS 128
DATA ascii
-0.47266573 -1.5955639 -0.22505979 4
-0.4207595 -1.4976283 -0.22092438 4
-0.41449627 -0.99031365 -0.211281 2.5
-0.42545977 -0.68339097 -0.21545589 0
-0.40577236 -0.38331226 -0.18430199 0
-0.4083041 1.4955306 -0.20719475 3
-0.45572823 2.2388301 -0.21481507 4
-0.24163401 -2.6050508 -0.24434833 5
-0.1362742 -2.1613543 -0.23166393 5
-0.1775362 -1.803207 -0.22563604 4
-0.2067662 -1.3891717 -0.21435034 3.5
-0.19808286 -0.96772712 -0.21046795 1.7777778
-0.20235966 -0.67803031 -0.20835422 0.33333334
-0.040297545 1.1255882 -0.19511446 1
-0.16082895 1.4446741 -0.19548625 2.6666667
-0.16773646 1.8079525 -0.19659543 3
-0.2168052 2.1589134 -0.20084597 3.6666667
-0.20154655 2.5168872 -0.20178582 4
-0.31601137 3.0272253 -0.21930298 4
0.069530189 -2.9250541 -0.23624015 6
0.10825197 -2.5648358 -0.23110761 5
0.14955424 -2.1711633 -0.22176144 5
0.19184244 -1.7642788 -0.21064518 4.3333335
0.14175776 -1.369025 -0.20371056 3.6666667
0.19663759 -0.9886291 -0.2064192 2
0.21104379 -0.66368717 -0.20079975 0.33333334
0.21680354 0.70301443 -0.1316978 1.5555556
0.25688824 0.96638447 -0.14427339 2
0.24138643 1.341126 -0.16828416 2.75
0.13315554 1.7432885 -0.18184341 3.3333333
0.15444511 2.2375016 -0.1823528 4
0.12396442 2.5472651 -0.18564306 4
0.096686408 2.8302031 -0.19070403 4
0.50914425 -4.7763691 -0.33658847 6
0.43079549 -2.8265193 -0.17842123 6
0.55528331 -2.6227174 -0.21528269 5.3333335
0.52682769 -2.2023466 -0.20280708 5
0.55180639 -1.7480028 -0.19706069 4.5999999
0.58770144 -1.342827 -0.19532956 3.8
0.56760424 -0.97424155 -0.19955735 2.5
0.61743391 -0.58811373 -0.19566886 1.1428572
0.55507207 -0.33271313 -0.19397587 0
0.66420531 0.27336884 -0.17646143 0.2857143
0.60517812 0.63367808 -0.17418975 0.69999999
0.60393167 0.96899056 -0.17954089 1.6666666
0.65031183 1.2985033 -0.14860746 3
0.68356293 1.9511158 -0.15719397 4
0.72786194 2.2246001 -0.16037738 4
0.77245796 2.5104303 -0.15738715 5
0.49153101 4.08283 -0.15771018 5
0.88771719 -3.3378329 -0.21750511 6
0.82550162 -2.9382646 -0.20753779 6
1.1429392 -2.6669776 -0.20109309 6
1.0366853 -2.2994552 -0.19373731 5.5
0.98718691 -1.812261 -0.18855131 5
1.0414 -1.3867993 -0.1841161 4.5999999
0.9201842 -1.0061185 -0.18491581 3.5999999
0.83894855 -0.76441497 -0.19268173 2.5
0.9658004 0.29970533 -0.16371913 1.8
0.97192037 0.61546361 -0.16581349 2.2222223
0.97373396 1.031157 -0.16172287 3.125
0.98524553 1.3960443 -0.1553714 3.8
1.0141783 1.758477 -0.1466969 4
1.0016582 2.1382535 -0.14913289 4.5
0.95457685 2.6137357 -0.15338048 5
0.89140093 3.237479 -0.17022724 5
0.9719829 3.7938001 -0.14135085 5
1.3827108 -3.5228765 -0.19054332 6
1.2291099 -2.9668341 -0.20521961 6
1.5658069 -2.7409239 -0.18090515 6
1.3590009 -2.2554529 -0.19160523 5.5
1.3577722 -1.8210181 -0.18072949 5
1.2624975 -1.4838088 -0.18011431 5
1.3528868 0.59546089 -0.14218667 3.6666667
1.3976365 1.0155641 -0.14379315 4
1.4089705 1.4090537 -0.14427173 4
1.3728029 1.8422549 -0.14528677 4.3333335
1.3492913 2.2229314 -0.14277372 5
1.5239561 2.6177893 -0.14494507 5
1.2945888 3.1261232 -0.15533502 5
1.3781804 3.4985542 -0.056747288 5.5
1.3346118 3.5022566 0.11110347 7
1.8772959 -3.4613037 -0.18158881 6
1.7091722 -2.2373471 -0.17738664 6
1.6548311 0.61741519 -0.1246617 4.5
1.7705579 0.99061757 -0.13418195 4.6666665
1.7781444 1.3956308 -0.13685086 4.8000002
1.723394 1.7221704 -0.1382079 5
1.709496 2.2265139 -0.14936778 5
1.7591975 3.2305946 -0.011411815 6
1.7107801 3.2534401 0.21195979 8
2.0585761 -3.8987811 -0.15371713 6.5
2.3244522 -3.2834196 -0.15638879 6.5
2.1304748 -2.9447651 -0.18182403 6
2.2840726 0.99791133 -0.12746456 5
2.273381 1.4717144 -0.12625307 5
2.1657212 1.777097 -0.13975939 5
2.1434438 2.2550452 -0.13999315 5
2.0199828 2.7450137 -0.14420566 5
2.1362097 2.9716361 -0.066026717 5.5
2.1948218 -4.2894144 -0.036906485 7.5
2.2761312 -3.3274493 0.10977913 8.5
2.0769401 3.0095422 0.25374237 8
2.7438879 1.0462514 -0.11581211 5
2.7934828 1.4432495 -0.11619474 5
2.7200816 1.81718 -0.11918081 5
2.6733823 2.2821801 -0.12522753 5
2.4641259 2.6980066 -0.027517883 6
2.6712513 -5.5007572 0.1317092 8
2.5737681 2.6507852 0.28705043 8.1999998
2.8323195 2.4653869 -0.015613397 6
2.8175526 2.4770052 0.094226509 7
3.166918 -4.9552932 0.38060287 9
3.4122555 1.8124312 -0.099571884 6
3.5133977 2.4441838 -0.030541403 6
3.5106163 2.4718091 0.1374743 7
3.7607574 1.4942073 -0.095023535 6
3.6350546 2.5951149 0.29229084 8
4.6257191 2.534677 -0.080681488 6
5.2210345 2.1368093 -0.073316522 6
5.4971704 4.0651841 0.49121678 8
5.4669027 4.0782337 0.69652086 9
6.2764792 3.5225277 -0.012843673 6
6.2364421 3.5444496 0.34810275 7.5
6.2054019 3.5624731 0.63614893 9
7.1190457 2.9699838 -0.070037998 6
7.041853 2.9710183 0.35566017 7.5
7.005352 2.9896727 0.77884197 9
