# .PCD v0.7 - Point Cloud Data file format
VERSION 0.7
FIELDS x y z intensity
SIZE 4 4 4 4
TYPE F F F F
COUNT 1 1 1 1
WIDTH 665
HEIGHT 1
VIEWPOINT 0 0 0 1 0 0 0
POINTS 665
DATA ascii
-3.2298787 -1.3302168 0.36676872 9
-3.2022624 -0.91081202 0.46320468 10
-3.2235804 -1.2993551 0.70089793 11.833333
-3.2175562 -1.1280236 0.76310331 12
-3.2016251 -1.4397041 1.1637921 15
-3.1724601 -1.2480425 0.46376616 10
-3.063302 -0.98378938 0.3578403 9.333333
-2.9628825 -0.7058953 0.28609329 8.75
-2.9625444 1.4652095 0.15621525 9.666667
-2.9225037 1.7908245 0.13891433 9.5
-2.8688695 2.2081523 0.10088866 9.333333
-2.8947961 -2.8082964 1.0332819 12
-2.9683805 -1.2409313 0.84991258 13.5
-3.0275469 -0.92205453 0.6675297 12.25
-2.9844553 -0.6537289 0.67594469 11.875
-2.96734 1.2474337 0.69536918 14
-2.9521346 1.4770664 0.54057187 12.8
-2.9190328 1.7856344 0.37974659 11.6
-2.8557463 2.2734499 0.40304604 11.6
-2.8139472 2.730371 0.25138131 10.5
-2.9048581 -2.7617862 1.2608391 14
-3.0012608 -2.6178877 1.275251 14.25
-2.8299744 -1.6493416 1.0825487 14.666667
-2.8463993 -1.327929 0.98880863 14.5
-3.0312004 -0.90919441 0.96407282 14.8
-2.933821 -0.62622678 0.92030799 14
-2.9789934 1.1019816 0.79072434 15
-2.934031 1.5185447 0.76856005 14.666667
-2.9043493 1.8213711 0.72954261 14.333333
-2.8435516 2.2873642 0.69262964 14
-2.8101275 2.6377859 0.65565032 13.5
-2.4497342 -1.1893964 0.35168159 9.333333
-2.5203948 -1.1479527 0.3752858 9.75
-2.7743576 3.0579295 0.0044117654 9
-2.5982494 3.4098902 -0.0019755161 9
-2.5789063 -2.8905542 1.0108768 12
-2.5261033 -1.2799634 0.68778449 12.666667
-2.5384257 -1.1152954 0.59672838 12
-2.7667422 3.0802796 0.34070203 11
-2.6591561 3.4627645 0.29024723 11
-2.5746739 -3.4032519 1.3829371 13.75
-2.6992269 -2.8904181 1.2380217 13.857142
-2.7928925 -1.4981835 1.0796461 15
-2.7953932 2.7652612 0.71268499 14
-2.758014 3.0863652 0.66845334 13.5
-2.6264577 3.5047095 0.67209685 13.444445
-2.6063321 3.5550666 0.92588204 15
-2.1876407 -2.9669793 0.50818574 9
-2.1824772 -2.5432198 0.46172097 9
-2.1274817 -2.1442275 0.4138155 9
-2.0725811 -1.7512968 0.40583208 9.625
-2.1827269 -1.359079 0.39501879 9.833333
-2.2922964 -1.1588939 0.50236017 11
-2.2047517 3.4899244 0.05470717 9.5
-2.1841471 -2.9365146 0.79384655 10.888889
-2.1727192 -2.5113125 0.69743091 11.333333
-2.1207695 -2.1736555 0.68256652 11.5
-2.125706 -1.7018787 0.77974522 13.222222
-2.2124765 -1.3387476 0.69024026 13.1
-2.2171872 3.5145483 0.28989252 11
-2.0722163 -3.5011921 1.3878794 14
-2.2206924 -3.4775257 1.3318875 14
-2.1682432 -2.9603264 1.0836847 13
-2.2962508 -1.4946328 0.94931996 15
-2.1980631 3.5516319 0.63940907 13.6
-2.2030935 3.5931587 0.91312748 15
-1.8029757 -3.0215321 0.50347835 9
-1.7818986 3.438364 0.027245959 9.5
-1.8048922 -3.0002384 0.81851941 11.333333
-1.7863795 3.4598594 0.24772714 11.142858
-1.8153038 -3.5330434 1.3628329 14
-1.7595944 -3.3425879 1.21776 14
-1.9228191 -3.0495028 1.0749992 13
-1.7977449 3.5134473 0.67554945 14
-1.3968331 -3.0752487 0.50075471 9
-1.3724867 3.3924584 0.094524719 10
-1.4195071 -3.0525165 0.81269157 11.333333
-1.3810766 3.4097755 0.24254945 11.285714
-1.3032005 -3.5781889 1.3188735 14
-1.4081656 -3.2450333 1.1710483 14
-1.4094638 3.4564433 0.62454242 13.875
-1.0084305 -3.120522 0.46094045 8.5
-1.0576996 0.6337086 0.27427167 14.333333
-0.98829091 1.0456065 0.2737563 14.333333
-1.0177679 3.3536434 0.091069497 10
-1.0088277 -3.097126 0.88605553 12
-0.9674989 1.039083 0.32011682 15
-0.99155688 3.3746412 0.26356319 11.5
-0.99421108 -3.6260335 1.2948121 14
-1.1278542 -3.277843 1.1096344 13.5
-0.99583417 3.4110196 0.63908738 14.5
-0.42448786 0.3302421 -0.19049801 0
-0.44742271 0.54861748 -0.22955957 0
-0.41439429 1.0351641 -0.26155266 3
-0.50841022 -3.1857402 0.43430674 8.1999998
-0.64830679 -3.1521151 0.48329374 8.7142859
-0.76857585 0.71558964 0.24112859 15
-0.72661614 1.0418708 0.27702096 15
-0.62128717 3.3166678 0.09156318 10
-0.55883795 -3.1379395 0.90532458 12.333333
-0.63495427 -3.0963588 0.9506942 13
-0.58891445 3.3338573 0.30645633 12
-0.69757789 -3.5158026 1.2590181 14
-0.47623685 -3.143141 1.1223786 14.5
-0.5919736 3.3672955 0.62009317 14.5
-0.18824366 0.64728212 -0.23661074 0.33333334
-0.17978448 0.97529078 -0.26288974 2
-0.20135678 1.3860421 -0.29183608 3.5
-0.075314842 1.824748 -0.33539379 4.3333335
-0.17250733 2.2205825 -0.37186614 5
-0.27059415 2.6342897 -0.42171001 5
-0.33869228 2.9122932 -0.44784474 5
-0.20567158 -3.1929197 0.48452061 8.7777777
-0.34024662 3.288954 0.11153205 10
-0.22827742 -3.2143009 0.92290586 12.5
-0.25851753 -3.1166801 1.0156077 14
-0.19181572 3.2954102 0.33135852 12.4
-0.19583097 -3.1378145 1.1169682 14.5
-0.20898481 3.3229742 0.6025331 14.5
0.28657776 -1.1825651 -0.08549457 3
0.32955793 -0.64743131 -0.12678036 0.33333334
0.20476383 0.65707809 -0.24121153 0.33333334
0.18918619 0.98168755 -0.26786616 2
0.15505277 1.3541874 -0.29262614 3.5999999
0.19262944 1.7169412 -0.32361448 4
0.14308761 2.1935463 -0.37062031 5
0.10704912 2.5565572 -0.41187623 5
0.079609461 2.8176877 -0.43665758 5
0.043199044 3.174088 -0.47383016 5
0.16131991 -3.248806 0.44806141 8.4444447
0.19257343 -3.1865819 0.92769402 12.666667
0.32682422 3.2359734 0.34198752 12.5
0.15714352 3.2564082 0.33583239 12.5
0.19543412 -3.1722615 1.1291306 14.5
0.18693675 3.2813733 0.60358542 14.5
0.60654336 -4.0005379 0.32556051 7
0.60664862 -3.5361943 0.082909733 5
0.57058549 -3.0303638 0.056857854 5
0.54250222 -2.5993927 0.026264053 5
0.60752833 -2.1524801 -0.0043711294 5
0.5652808 -1.744441 -0.03271934 4
0.57254755 -1.3938882 -0.062190484 3.5
0.56957942 -0.98685199 -0.10295006 2.2857144
0.61004007 -0.62946928 -0.12345785 1.4444444
0.67351586 -0.23985371 -0.15645976 0.40000001
0.73409027 0.00084680592 -0.18148172 0
0.40524417 0.61968768 -0.24067879 0.33333334
0.41519397 0.94240201 -0.2650696 2
0.42439044 1.3336254 -0.28604668 3.6666667
0.43887722 1.7904828 -0.32214624 4.5
0.45011008 2.1271837 -0.35045862 5
0.47126836 2.5721061 -0.40735209 5
0.48615032 2.9844179 -0.44548228 5
0.63548666 -4.0086646 0.54309386 8.25
0.62385303 -3.9468312 0.54519671 8.333333
0.79107302 -2.7115417 0.46328843 9
0.65767878 3.1713126 0.10831314 10
0.40887851 3.2820139 -0.20100993 8
0.64673978 -3.8987997 0.89353329 10.666667
0.4090673 -3.2238555 0.70847964 11
0.76994073 -1.8490402 0.72979349 15
0.58267647 3.2076423 0.33945891 12.5
0.75169736 3.2561321 0.27650598 12
0.6449132 -3.8698349 1.2811683 13.6
0.58226717 3.231935 0.62444073 14.5
1.084299 -3.5247195 0.095794506 5
0.86064476 -2.4327919 0.025895039 5
1.0258374 -2.2097905 0.001390798 5
1.0019653 -1.831889 -0.028163474 4.5
0.97336948 -1.4158978 -0.060390674 4
1.0205464 -0.9990918 -0.09200608 3.5
0.98320597 -0.58236557 -0.12644579 2.5714285
0.97782415 -0.22150569 -0.15693285 2
0.9802385 0.014122331 -0.17922711 1.5
0.84458315 -3.9770899 0.69390315 9
0.99369681 -3.7813866 0.42647663 7.8888888
1.1403031 -2.5044956 0.3446472 8
1.0795615 -2.0563557 0.42745119 10.333333
1.0294101 -3.9900737 0.9138034 10.666667
0.86718976 -3.9059474 1.0764549 12
0.81194806 -1.8300089 0.72831756 15
0.93651509 3.5877554 0.23013684 11.25
0.94253302 3.7326794 0.11593544 10
1.0042853 -3.9303508 1.3104298 13.5
0.90833932 -3.8937397 1.3072175 13.666667
1.45 -3.1294763 0.065853313 5
1.2881614 -2.6597283 0.03058677 5
1.4803931 -2.1864364 -0.00082469825 5
1.3873807 -1.8060602 -0.030384872 5
1.3319331 -1.4069618 -0.05887175 4.5
1.4074404 -1.021592 -0.083455853 4
1.3657769 -0.61939859 -0.11385516 3.8
1.3823355 -0.26599166 -0.15183754 3.3333333
1.3202524 0.032028284 -0.17727023 3
1.3034663 -4.0051832 0.65716904 9
1.399016 -3.7290282 0.45375556 8
1.4047321 -2.1692898 0.36254641 9
1.2436295 -1.9384409 0.36676773 9.5
1.4089653 -4.0103297 0.83747411 10
1.4903985 -2.5201175 0.67642474 11.5
1.4685019 -2.1813664 0.64170641 12
1.4920914 -1.9364473 0.62179434 12
1.395964 -3.9527624 1.348949 13.5
1.5645744 6.0806589 0.52952409 11.5
1.5449362 6.1235471 0.91999567 13.5
1.823082 -4.2434955 0.18649632 6
1.9198692 -3.0482626 0.060279842 5
1.7016345 -2.6166728 0.022990894 5
1.8931816 -2.2220473 -0.0016479341 5
1.7946436 -1.8080604 -0.033962686 5
1.7361953 -1.3929965 -0.063386485 5
1.736674 -1.0335755 -0.087315239 5
1.7452377 -0.59575248 -0.10972999 4.5999999
1.7925129 -0.24765521 -0.13905011 4.3333335
1.6955428 0.05216717 -0.16855317 4
1.8063734 -4.0983043 0.5170328 8
1.670759 -3.9282632 0.38609055 7
1.7002728 -2.8280067 0.33703303 8
1.7210892 -2.5453641 0.36782387 8.5
1.761373 -2.1003811 0.39013785 9.4285717
1.7932215 -1.9580597 0.43304402 10
1.8375355 -4.0633616 0.87335867 10
1.6801581 -2.1391351 0.58794427 11
1.8429017 -1.914796 0.64913058 12.2
1.8556083 6.0108914 0.13689692 10
1.6240046 6.0432787 0.15288623 10
1.7813091 -3.9560108 1.3682449 13.5
1.8049979 6.0522099 0.50776482 11.5
1.8126286 6.0837655 0.90740967 13.5
1.6658125 6.107091 0.87883425 13.5
1.9061211 6.0948329 1.0818739 14
2.1209915 -3.4451911 0.093072176 6
2.148196 -2.6063659 0.062015168 5.5
2.3221066 -2.1960199 0.067330875 6
2.2895648 -1.4452438 -0.062054347 5
2.0498877 -1.1080391 -0.087037735 5
2.194447 -0.15422302 -0.14703822 5
2.169688 -4.0772748 0.63116807 8.666667
2.1920235 -2.9324746 0.39759099 8
2.3615453 -2.4528298 0.35435143 8
2.2395866 -2.1399701 0.35847327 8.8000002
2.1521702 5.9558659 -0.12917681 9
2.1981955 -4.0936065 0.92495096 10.333333
2.153363 -2.053266 0.67931598 11.666667
2.1869388 5.9729033 0.12338952 10
2.1966715 -3.9964893 1.3748386 13.4
2.1891544 6.0094285 0.5125578 11.5
2.1536231 6.0483613 0.85249442 13.333333
2.2071407 6.0636678 1.0950005 14
2.5524807 -4.388401 0.3390792 7
2.5503731 -4.3054419 0.18768953 6
2.6136923 -1.9187715 -0.024494357 5
2.4673703 -1.028805 -0.10096843 5
2.4247048 -0.69943005 -0.12739059 5
2.6844981 -4.0991769 0.68670738 9
2.7512934 -2.4187608 0.25586638 7
2.5853782 -2.1142082 0.3815968 8.7777777
2.6170537 5.9010491 -0.15982397 9
2.6413653 -4.0733943 0.81326705 10
2.7106583 -1.9869199 0.65474892 11
2.5539105 -1.9324527 0.73406112 12
2.6410465 5.9173851 0.085399844 9.6000004
2.5581038 -4.007731 1.3791562 13.25
2.6266303 5.9576278 0.4845061 11.5
2.6480041 -4.0057569 1.567457 14
2.6020267 6.0018806 0.82717657 13
2.6251702 6.0161715 1.1152586 14
2.8310804 -1.6176953 -0.051421728 5
2.9542058 -1.2645041 -0.087565683 5
3.1617701 -0.94533062 -0.1157876 5
3.1717033 -0.58247411 -0.14575635 5
3.1505122 -3.2533355 0.6491124 9
3.1105609 -3.0178545 0.47882676 8.5
2.9500864 -2.7156763 0.24431203 7
3.1414731 -2.1339848 0.25938112 7.5
3.0955243 5.8436637 -0.15907712 8.5
2.9994123 -4.1024146 0.83581388 10
3.0023334 5.8758922 0.089007095 9.6000004
2.9845109 -4.0541282 1.4000535 13
2.9748964 5.9169002 0.49834749 11.5
2.9994011 -4.0639892 1.6421241 14
3.0212574 5.9516912 0.89024001 13
2.9714973 5.9891505 1.282863 14.5
3.4984734 -4.5861659 0.25030488 6.5
3.2518198 -2.4617026 0.01673218 6
3.2613032 -1.8447722 0.13671969 7
3.2676518 -1.4164157 -0.076959372 6
3.5333512 -1.0693051 -0.10987945 6
3.3032758 -0.24030681 -0.17243555 5
3.2949893 0.13171291 -0.20488922 5
3.3312094 -4.4399109 0.49404839 7.5
3.2767253 -2.9872005 0.47139597 8.666667
3.5328248 -2.1430576 0.38706794 8.5
3.4468327 5.7974033 -0.21863905 8
3.2549374 -4.1502466 0.85450834 10
3.4137888 -2.5806692 0.67878264 10
3.312408 -2.1313856 0.59452134 10
3.3924949 5.8303576 0.084293798 9.3999996
3.3803411 -4.08285 1.5243142 13
3.3944476 5.8622613 0.45587483 11.4
3.3713417 -4.0985179 1.7074161 14
3.4137492 5.9052625 0.92640507 13
3.4388945 5.9371834 1.3012078 14.5
3.9907508 -2.3753512 0.0095768534 6
3.8704338 5.1600418 -0.22727725 8
3.7997868 5.7639747 -0.22849497 8
3.6514709 -2.1172571 0.61373866 10
3.7836952 5.154283 0.22752798 10
3.7655046 5.786973 0.09630964 9.6000004
3.8180363 5.8201947 0.47825143 11.25
3.6436963 -4.132194 1.662004 13.5
3.9812882 5.0633812 0.99861145 13.5
3.8397176 5.861834 0.89383119 12.5
3.817924 5.8984065 1.319616 14.5
4.3325148 -3.6211376 0.22949439 7
4.3594809 -3.4057152 0.20875171 6.6666665
4.3880935 -3.133347 0.15372437 6.5
4.2856922 -0.31603831 -0.18223579 6
4.3879519 -3.2702923 0.49130577 8.5
4.3927412 -2.9997127 0.5379312 9
4.3437176 -1.3390756 0.17678364 7.5
4.18437 5.6997242 -0.18544586 8.5
4.209094 2.7176797 0.40856889 10.333333
4.2777371 3.0150232 0.42673633 10.5
4.3389196 3.5877213 0.28077009 10
4.3421183 5.6214724 0.099646136 9.5
4.1242108 5.7479625 0.10651131 9.5
4.3594308 3.5420692 0.83349162 13
4.365005 3.8997006 0.69444048 12
4.4034753 5.6316366 0.40549359 11
4.1877651 5.7805519 0.59804726 11.333333
4.3759551 3.8954391 0.94691074 13.5
4.1237688 4.9557757 1.0143533 13.5
4.1883364 5.8096614 0.90211636 12.5
4.1922054 5.8574758 1.3389652 14.5
4.6769099 -4.4801683 0.19409466 6
4.5917225 -2.985405 0.1686527 7
4.7748666 -2.2868667 0.071615495 6
4.4955978 -1.9779935 0.073120981 6.6666665
4.7059326 -1.3878212 0.040971756 6.5
4.4197679 -3.2458992 0.41999868 8
4.5225091 -2.9891777 0.51216292 8.5
4.7192664 -2.6354167 0.46925837 8.5
4.7333922 -1.338429 0.23876487 8
4.471683 4.2667961 -0.12846172 8
4.4360275 5.5948553 -0.10712757 9
4.6356583 -4.4078341 1.1661996 11
4.7210979 -4.1834335 1.0969809 10
4.7614398 -3.7461958 1.0667434 10.666667
4.7999091 -3.4213688 1.0468978 11
4.6974268 -2.5870123 0.6960783 10
4.4220881 2.9970665 0.46675584 11
4.4642911 3.7655144 0.37646595 11
4.4759617 4.7036619 0.32824898 10
4.5528722 5.5895133 0.19754387 10
4.6953688 -4.3490229 1.4091538 12
4.7369709 -4.1241775 1.2781196 11.5
4.7783585 -3.7462924 1.2771467 11.666667
4.4186592 3.0505693 0.66067785 12
4.4825325 4.2764316 0.71381378 12
4.5125122 4.640471 0.62906688 11.5
4.5954576 5.6025062 0.40498218 11
4.6663604 -4.3122172 1.7576725 13
4.7582402 -3.9954131 1.7669262 13.333333
4.7835808 -3.6977181 1.7062629 13.5
4.7808433 -3.0849965 1.5486391 13
4.4373493 3.5338414 1.1651889 14
4.451077 3.8982718 0.98999029 13.666667
4.5048962 4.4203296 0.99350744 13.5
4.5157952 4.7214065 1.0133779 13.5
4.6285267 -4.3109317 2.0568242 14.333333
4.7491083 -4.0840716 2.0376201 14.666667
4.796917 -3.6247771 1.9910952 15
4.4753137 4.5399132 1.29804 15
4.6041288 5.7764096 1.6875471 15
4.846137 -2.897095 0.1186456 6.5
4.8809962 -2.5994864 0.10041118 6.4000001
4.921113 -1.8326025 0.063504755 6.6666665
4.9285159 -1.3092763 0.097126961 7
5.0449853 -1.0143034 -0.016603887 6.3333335
5.0801487 -0.57244247 -0.07174129 6.3333335
5.0933189 -0.30058011 -0.068287194 6.5
4.8407912 -2.8883722 0.41170478 8
4.8812151 -2.5270703 0.46345651 8.3999996
4.9267316 -2.1611714 0.35544828 8
4.9637756 -1.7993549 0.40230006 8.3999996
5.0055833 -1.335685 0.3066445 8.2857141
5.0480642 -0.99178255 0.252244 8
5.0303493 -0.55333555 0.25555983 8.166667
5.0553122 -0.25169265 0.27816191 8.666667
4.818975 -3.2689948 1.0379714 11
4.8542948 -2.9298384 0.90096718 10.25
4.897655 -2.5496156 0.76995182 10
4.9331012 -2.126045 0.66043061 9.666667
4.985158 -1.7252511 0.67554253 10
5.023273 -1.3419657 0.67539465 10.2
5.0612569 -0.95197624 0.67062026 10.4
5.0477862 -0.53269684 0.66799778 10.666667
5.0657883 -0.2425964 0.59695464 10.5
4.8220048 -3.3342671 1.3022493 12.166667
4.8651361 -2.9019501 1.2274793 12
4.9185305 -2.4784126 1.3091418 12.666667
4.9520788 -2.1247571 1.1312975 12
4.9878097 -1.7057585 1.099803 12.142858
5.0353341 -1.291352 1.141832 12.8
5.0740337 -0.9230631 1.0545279 12.5
5.060389 -0.460282 1.0988004 13
5.0877128 -0.17412162 1.0042659 12.333333
4.8392096 -3.2183154 1.7705405 14.333333
4.8751369 -2.9025276 1.7368898 14.666667
4.9241986 -2.4659598 1.6506203 14.4
4.9758863 -2.044194 1.5720892 14.2
5.0182633 -1.6876345 1.5968064 14.5
5.05616 -1.2658186 1.5318487 14.5
5.1066985 -0.90541691 1.4559141 14.4
5.0794864 -0.49226537 1.4702299 14.666667
5.0959435 -0.16426326 1.3846257 14.666667
4.8274775 -3.3532722 1.9553002 15
5.048964 -1.3958479 1.713802 15
5.3336301 2.4127247 -0.29387346 7
5.5651836 3.5557022 -0.33804733 7
5.369236 1.5396743 -0.070244744 7
5.5212483 2.1910408 0.095031857 8.333333
5.3827934 2.4932878 -0.072669879 8
5.59305 2.9948754 0.092235118 9
5.5033255 3.4690878 -0.1789525 7.5
5.4875479 3.5545506 0.21244255 9.5
5.6549315 1.9048904 0.10186361 8
5.7655954 2.2273328 0.091910884 8
5.665432 2.6636896 0.12039835 9
5.6689067 3.5266609 -0.072159894 8
5.8056059 5.5692821 0.1043504 9
5.8196993 5.6041493 0.48970568 10.333333
5.9204559 5.7272453 1.8133289 15
6.1963 2.2811527 -0.38573867 6
6.2634006 1.7859745 0.1146863 8
6.1869063 2.0933697 -0.12788923 7
6.2719522 1.7056701 0.33008131 9
6.6753254 1.7321993 0.09872891 8
6.5045214 2.017139 0.1088018 8
6.5975485 5.4549232 -0.16284002 8
6.4578805 1.598587 0.32696009 9
6.4368219 1.7766407 0.44758329 10
6.583498 5.4814115 0.083231345 9
6.4478955 1.7787087 0.65323967 11
6.5692096 5.5534625 0.56330448 10.666667
6.699697 5.5376644 0.86124903 12
6.683167 3.1504605 1.8964949 15
6.6161509 5.5385299 1.7430124 14.5
6.6689339 5.4387455 2.0456793 15
7.0195765 5.0937915 -0.16616856 8
7.0263839 5.1061101 0.1213917 9
7.0054193 5.4291968 0.065297775 9
7.0450606 5.1461773 0.53542584 10.5
6.8412762 5.4908557 0.54009843 10.5
7.0731931 5.1655402 1.118333 12
6.9596815 5.4832721 0.86670262 11
7.0898943 5.1207113 1.3794264 13
7.0261326 3.0821283 1.8982477 15
7.1203442 4.8933821 1.9490122 15
7.3352957 2.9969072 -0.18166339 7
7.4244246 3.2431867 -0.18761925 7
7.4902411 5.1324539 1.1415806 12
7.3897605 2.7961009 2.0947235 15
7.5837979 3.7035146 2.0046945 15
7.4021521 4.235455 2.0191176 15
7.4932108 4.922997 1.8939487 14
7.3549676 3.6723759 2.0723159 15
7.3920884 4.8877087 2.0376213 15
7.7814102 5.0194426 0.86681408 11
7.764637 5.0795817 1.2946299 12.5
7.6927805 3.1987605 2.105453 15
7.6948442 5.2478032 1.693215 14
8.3823891 2.0650177 -0.3110106 7
8.3799458 1.8797396 0.2880989 9
8.3751945 5.4164071 1.7830656 14
8.4484196 1.8811957 -0.26135486 7
8.632741 3.3389301 -0.45538419 6.5
8.4770489 1.5671142 0.032156724 8
8.5151644 1.9073474 0.00049106329 7.6666665
8.5347509 3.3926988 -0.10410234 7.5
8.5460424 5.378973 1.376101 12
8.4066515 1.1783509 2.1284561 14
8.5538177 2.8753633 1.8270258 14
9.0599194 1.452441 0.0086722067 8
9.1564341 3.3149166 1.954237 14
9.1529512 3.6644468 1.706876 13
9.445776 1.2876432 -0.0079523539 7
9.580616 3.0535297 1.7151269 13
9.5207481 5.3154321 1.2822163 12
9.225091 2.8625374 1.9267976 13
9.4407263 3.2598662 1.7114596 13
9.2467566 3.5185719 1.8472846 13.5
9.8970957 1.0059803 -0.37339237 6
9.8907375 1.2163814 -0.36678565 6
9.9085493 0.99936992 -0.028949941 7
9.9327402 5.1541286 0.95345914 11
9.7084885 2.8363078 1.7154589 13
9.7873392 5.2557077 1.3269945 12
9.8843327 2.8148382 2.0224259 13
9.9420872 2.9737673 2.6199591 15
9.7677927 3.1709337 2.6515982 15
10.122245 0.77681869 -0.4512758 6
10.366121 1.2112904 0.13101453 8
10.335988 1.8003809 0.31704208 8
10.178561 2.7091477 1.7679086 13
10.312464 5.0188837 1.9604307 13
10.25491 1.8873258 2.7866039 15
10.309856 2.4805326 2.6408458 15
10.07499 2.7773628 2.6259818 15
10.387345 3.9509027 2.5045698 14
10.318842 5.0806723 2.4427695 14
10.411481 0.99838156 -0.054386422 7
10.638856 1.604279 0.31059828 8
10.583743 5.0943007 0.60744905 10
10.57597 5.2093587 1.0235829 11
10.70923 3.1043706 1.5641364 12
10.609526 5.1975055 1.2262067 11
10.776772 5.1791873 1.6773858 12
10.665524 5.0268664 2.3399415 14
10.778489 0.53465092 2.9216831 15
10.670607 0.88196653 2.8906591 15
10.515693 1.2246834 2.8486044 15
10.674219 2.0838914 2.6755023 14.5
10.700077 2.543093 2.7064123 15
10.443241 2.9927423 2.6702435 15
10.782187 3.5535135 2.5311124 14
10.738925 4.9685326 2.4958639 14
11.138415 5.0284138 0.502639 9.5
10.993794 5.0651026 0.99055266 10
10.832829 5.1060109 1.3535819 11
11.180916 5.0653181 1.7524782 12
10.83158 4.9516268 2.0157645 13
10.930346 0.062638968 2.970396 15
10.85842 0.30062473 2.9465952 15
11.026521 3.2243142 2.5413573 14
11.020375 3.5006731 2.60972 14
10.877768 4.7194233 2.492089 14
11.564812 5.0000267 1.0097952 10
11.470049 5.0207629 1.4505068 11.5
11.550907 4.9291315 1.777885 12
11.410716 4.884099 2.0779269 13
11.606221 0.85181051 2.7569835 14
11.347866 1.2054588 2.7340939 14
11.397898 2.8093843 2.5841336 14
11.228432 4.660821 2.383085 14
11.921593 1.6460629 -0.15380158 7
11.697685 4.9491858 0.61549121 9
11.80378 5.0112381 1.3552103 11
11.914106 -0.024545347 2.1822937 12
11.783335 0.38643903 2.1774924 12
11.797634 0.79949415 2.1973741 13
11.84596 1.2192892 2.2243931 13
11.985001 2.4239745 1.9839406 12
11.988923 4.8026977 1.8094354 12
11.711261 0.068331055 2.5777075 13.5
11.747614 0.39222404 2.5163124 13
11.895573 1.685424 2.3460228 13
11.929003 1.964515 2.4413836 13.333333
11.983883 2.3719029 2.3118775 13
11.992579 2.6400461 2.5049942 13
11.752511 0.47989574 2.760057 14
11.906545 1.7163768 2.6892312 14
11.901603 2.2024395 2.6065662 14
11.716366 2.49211 2.6398513 14
12.219807 0.84610856 0.092576593 8
12.069788 0.63742441 0.45984989 8
12.180538 4.9298983 0.92568552 10
12.291612 1.7255944 1.9920803 12
12.094731 1.9953665 1.9777005 12
12.014354 2.8837414 2.0128591 12
12.202803 4.5792599 1.8143235 12
12.030254 2.8213451 2.3499064 13
12.01683 2.9493845 2.5293579 13
12.503705 4.9353118 0.62480378 9
12.600025 4.9180627 1.4614347 11
12.623607 4.1047306 1.8431979 12
12.579766 4.4051251 1.8374316 12
12.452477 5.0376019 1.5989462 11
12.922867 1.6470051 0.30272615 8
13.049305 4.8108501 0.50653851 9
12.888874 4.8684316 1.0577353 10
13.446718 0.66317308 -0.62037861 6
13.435164 4.8916302 1.51627 11
13.921622 4.7308478 0.63600963 9
13.637904 4.7899551 1.0850397 10
13.792711 4.8504677 1.7210132 11
14.209251 4.8094335 1.5643919 11
14.6796 1.6238482 0.56824738 8
14.716839 1.9897534 0.57647139 9
14.670028 1.4039705 0.7689839 9
14.756083 2.3576226 0.5857566 9
14.519169 4.6664505 0.48610547 9
14.680849 1.5046803 1.4027072 10
14.732999 1.8778474 1.0169097 9
14.775253 2.2375174 1.0319139 9
14.799502 2.5952666 1.0449018 10
14.457936 4.6963439 1.1146401 10
14.568248 0.42158064 1.7757571 11
14.691436 0.67671144 1.7885158 11
14.659726 1.2813866 1.7644527 11
14.665118 4.7383447 1.1705142 10
14.85095 3.2853391 0.34059638 8
14.974684 4.3999715 0.36780629 8
14.814257 2.7303061 0.74873942 9
14.849586 3.1183376 0.60512722 9
14.906845 3.5061512 0.61603528 9
14.837601 4.6418509 0.64548892 9
14.848765 2.9648929 1.0612226 10
14.905035 3.3394785 1.0786916 10
14.981312 3.7260458 1.0965091 10
15.006856 4.4893618 1.1291627 10
15.008232 4.5584421 0.89034885 9
14.856844 -0.22369565 1.7672249 10
14.929217 3.2282979 1.5271369 10
15.030832 4.5247083 1.8316878 11
14.962307 4.6853399 1.6091592 11
15.46561 2.2527928 1.5147977 10
15.212784 2.568269 1.5111176 10
15.507255 4.4719934 1.6344846 11
15.860733 1.2726706 1.048434 9
15.767173 1.5685983 1.5029174 10
15.611393 1.9146963 1.5090064 10
15.688893 0.29296625 2.392684 11
16.10956 0.084023654 -0.91740394 6
16.026585 -0.36871347 -0.81236124 6
16.077818 0.016408207 -0.81053239 6
16.385004 0.40898106 -0.8271699 6
16.026001 -0.47164705 -0.2815229 7
16.118534 -0.2418329 -0.31856033 6.5
16.357225 1.8857358 2.5315554 12
16.559025 0.54667604 -0.84902585 6
16.640976 0.52090257 -0.32331985 7
16.501791 0.80838978 -0.27072415 7
16.406586 -0.43076342 0.27912316 8
16.713539 -0.12805073 0.19742309 7
16.791477 1.2214897 2.0437088 11
16.410324 4.3304505 1.6892557 11
16.656013 -0.085007362 2.5143545 11
16.724831 1.1163039 2.553642 12
16.777124 1.5238733 2.5722332 12
16.926414 0.28970239 -0.29737899 7
16.969927 1.0896274 -0.28255257 7
16.827557 -0.17276148 0.57181633 8
17.083824 0.23295783 0.58177733 8
17.138092 0.64889193 0.58963895 8
17.182367 1.068796 0.59866244 8
17.070875 -0.23231392 1.0574162 9
17.100222 0.24114014 0.96222496 8.666667
17.144423 0.57221985 1.0833215 9
17.160856 0.87133986 0.81719714 9
17.094149 -0.23982248 1.5173618 10
17.125433 0.14573811 1.5362703 10
17.1917 0.97492945 1.0977606 9
17.123348 0.7302056 1.561973 10
17.167276 1.3185089 1.5916804 10
16.816765 1.5948585 2.0682268 11
16.871069 1.9730724 2.0968299 11
16.877354 2.3485191 2.1194687 11
17.088736 3.4754379 2.0177772 11
17.064278 4.0917497 1.7224307 10
16.965685 2.7445009 2.1545796 11
17.015541 3.101856 2.3866088 11
17.097647 3.9410257 2.2455614 11
17.239637 1.4887258 0.60665035 8
