# .PCD v0.7 - Point Cloud Data file format
VERSION 0.7
FIELDS x y z intensity
SIZE 4 4 4 4
TYPE F F F F
COUNT 1 1 1 1
WIDTH 166
HEIGHT 1
VIEWPOINT 0 0 0 1 0 0 0
POINTS 166
DATA ascii
0.3095665 -0.95469469 -0.11726854 158
0.31483969 -0.86083895 -0.11760451 166.75
0.43514261 -0.86458236 -0.11498886 167
0.54382795 -0.8344062 -0.11154085 173.5
0.3227993 -0.76750481 -0.12622739 180
0.42758614 -0.75749612 -0.12081266 179.75
0.52609736 -0.75062466 -0.11508091 178.75
0.63122028 -0.74938792 -0.11734315 174.5
0.32824835 -0.65303963 -0.12369785 188
0.43440965 -0.65019983 -0.11981688 185.2
0.5343262 -0.67413932 -0.12544368 184
0.64422077 -0.66110229 -0.12502551 181.85715
0.73573643 -0.65125245 -0.11973811 177.33333
0.33585659 -0.55493462 -0.13056163 185
0.44595364 -0.5690968 -0.127037 185.64285
0.56657231 -0.56544292 -0.12708867 187.33333
0.64770609 -0.54835397 -0.12732117 188.60001
0.76067144 -0.57233274 -0.13142189 185
0.83799726 -0.528 -0.13045309 181
0.34743521 -0.47433105 -0.15265249 179.875
0.44529641 -0.47248009 -0.14524651 180.39131
0.54786015 -0.45093104 -0.13801371 182
0.66146427 -0.4716931 -0.13274725 186.66667
0.74453026 -0.44466418 -0.13225842 188.83333
0.84629577 -0.47071958 -0.14358522 189
0.35331777 -0.37903863 -0.15507284 173.22223
0.44724852 -0.3598187 -0.15527341 173.67857
0.54959381 -0.37405121 -0.15463178 177.1579
0.64675498 -0.35883287 -0.14862803 181.04347
0.75505441 -0.36083958 -0.13859208 185.75
0.83215368 -0.34896135 -0.13745396 188.39999
0.90894258 -0.36271688 -0.14893571 190.5
0.36830878 -0.29911041 -0.12425469 143
0.44958428 -0.28170773 -0.15730445 155.39999
0.5588975 -0.27392039 -0.16446137 173.79311
0.65339589 -0.25586993 -0.16204098 177.28572
0.72910076 -0.26701692 -0.15057489 182.25
0.8344022 -0.26025519 -0.14891604 186.8
0.94027448 -0.28863573 -0.15786397 189.5
0.38151458 -0.18619861 -0.17116901 151.57143
0.4431099 -0.16044325 -0.1854973 156.53334
0.56765246 -0.17451656 -0.18420574 168.66667
0.64188141 -0.16400932 -0.17218865 174.24243
0.75342572 -0.16969052 -0.1651119 180.29167
0.86685538 -0.1581085 -0.15791456 185.44444
0.92380178 -0.15581834 -0.15668848 186.8
-0.63251108 -0.11135232 -0.16666467 118.66666
-0.53059375 -0.10144933 -0.16419458 132.66667
-0.43780041 -0.092913695 -0.16715334 141.60001
-0.34718922 -0.083978333 -0.163679 148.33333
-0.25107569 -0.074152552 -0.15631983 145.57143
-0.1545319 -0.066607438 -0.17384766 144.42857
-0.078944534 -0.060535517 -0.18563876 162.83333
0.092145875 -0.045517206 -0.19617365 151
0.13554803 -0.041210465 -0.19240843 142.27272
0.48109415 -0.077809207 -0.19317383 162.30435
0.51817745 -0.058568113 -0.19573586 159.22728
0.65844798 -0.072555669 -0.18201141 172.93333
0.75970548 -0.070297316 -0.17513368 179.41667
0.84616816 -0.069158569 -0.1621076 183.89999
0.93881094 -0.059100661 -0.16494042 186
-0.63561666 0.017623343 -0.17968321 119
-0.53206223 0.014375623 -0.17545554 133.33333
-0.43784133 0.011143235 -0.17665915 145
-0.34831271 0.0083756633 -0.17248748 147
-0.24400996 0.032905873 -0.16692185 143.09091
-0.16068442 0.036384653 -0.18409684 144.24001
-0.081133418 0.024885407 -0.19425413 162.46153
0.095333785 0.010015663 -0.20130768 150
0.14414982 0.02849951 -0.19993411 141.45454
0.48360637 -0.015090107 -0.19845277 165.66667
0.52352351 -0.012672643 -0.19885509 156.25
0.67066747 -0.0029989216 -0.18567419 173.60001
0.7639755 0.002462853 -0.18148465 178.81818
0.84976828 0.0080187768 -0.1702906 184.5
0.92903495 0.012175009 -0.17066348 185.75
-0.63329089 0.14394973 -0.19117902 121.33334
-0.52908069 0.12752151 -0.18565685 134.66667
-0.43756548 0.11297835 -0.1871922 144.2
-0.34780553 0.098843656 -0.18221928 150
-0.25530779 0.14001162 -0.17814437 146.7
-0.15285753 0.13618982 -0.18921918 144.45454
-0.057418637 0.13817072 -0.20524783 164.2
0.084806174 0.15177533 -0.13411258 150
0.14298916 0.12121196 -0.1682997 135.85715
0.23301189 0.13898623 -0.21121177 145.6875
0.34501415 0.12837471 -0.21152435 149.125
-0.52912343 0.24393933 -0.19318692 128.5
-0.46170905 0.2246913 -0.19586457 141.25
-0.35474795 0.21066304 -0.19144909 148.16667
-0.25955206 0.25842986 -0.17666061 151
-0.12324326 0.20096812 -0.19510512 146.8
0.02011309 0.26657897 -0.22075456 168.5
0.25193083 0.19956478 -0.21726216 137.42857
0.35346678 0.24919881 -0.21971498 140.66667
-0.43226939 0.33318505 -0.18400994 133
-0.34856871 0.29716471 -0.18380208 147.66667
-0.23222853 0.34156695 -0.16726373 143
-0.12064104 0.37216809 -0.20622581 146.66667
-0.046602238 0.33498958 -0.20653076 153.14285
0.047520474 0.32539207 -0.22216076 169
0.14933197 0.33761787 -0.22727373 174.36363
0.26494303 0.35314938 -0.22794411 169.61539
0.37205252 0.33029675 -0.22193627 156.78572
-0.40589273 0.4481535 -0.20926018 134
-0.35423651 0.41774768 -0.20850085 142.75
-0.22849952 0.45676628 -0.21746224 145.5
-0.16334216 0.40532768 -0.2086779 143.25
-0.059789393 0.42956868 -0.21024269 145.5
0.041742485 0.43261448 -0.21733595 158.41667
0.14598992 0.45756575 -0.22536834 170.61539
0.26129609 0.44366011 -0.2328786 176.66667
0.35459226 0.47279233 -0.23095213 178.16667
0.40184224 0.45672345 -0.23366953 177.25
-0.54073751 0.52901191 -0.22458233 120
-0.48243481 0.49455476 -0.22252595 128
-0.33023933 0.5366925 -0.22879601 138.75
-0.2740308 0.49245095 -0.22203313 147
-0.15010053 0.52282906 -0.22385876 142.16667
-0.033428747 0.5315032 -0.22335182 146.66667
0.073834464 0.52448839 -0.22238077 152.71428
0.16205809 0.53801751 -0.22684099 162.66667
0.24615589 0.53433102 -0.23194505 171.375
0.33212194 0.52816421 -0.23192549 172.22223
0.40320212 0.54907888 -0.23580515 176.5
-0.44550914 0.62670422 -0.23830925 125.4
-0.243718 0.61874467 -0.23479028 139.39999
-0.13269502 0.66502416 -0.24025224 144.66667
-0.063586906 0.61429006 -0.22995406 145
0.017989513 0.62675565 -0.23840624 148.60001
0.11797484 0.65343487 -0.24170084 149.60001
0.22306913 0.62631088 -0.23864968 157.60001
0.3141588 0.61326104 -0.23673387 166
0.40521923 0.63054603 -0.24034204 168.2
-0.60358894 0.74914241 -0.24520917 110
-0.54618567 0.70443654 -0.24124603 114.5
-0.35464531 0.73174179 -0.24496061 126.2
-0.21291377 0.77201027 -0.25113869 134
-0.16564862 0.70704806 -0.23890397 138
-0.039606102 0.72720915 -0.24407521 141.5
0.075989351 0.7577334 -0.24764459 140.75
0.16111514 0.73683017 -0.24821694 140.66667
0.228962 0.71611661 -0.24758512 146
0.30572248 0.70227265 -0.24808671 151.8
0.40771505 0.71381015 -0.24638458 155.25
-0.44778174 0.82576531 -0.24988608 116
-0.25952682 0.8324523 -0.25223538 123.33334
-0.11165386 0.85425639 -0.2541782 130.5
-0.08842051 0.81650031 -0.25788969 138
0.043918815 0.84108227 -0.25759771 134.5
0.17836596 0.80435562 -0.25172523 139
0.29193437 0.82071209 -0.25497016 138.25
0.41064039 0.80617368 -0.25361422 144.25
-0.30984479 0.89941108 -0.2585915 118
-0.14868867 0.91995782 -0.26022273 128.5
-0.0088304076 0.97193027 -0.26480994 128
0.015866945 0.91097981 -0.26189265 134.33333
0.15171917 0.91778243 -0.26624158 134.75
0.28267244 0.92282754 -0.26939675 135
0.3436076 -0.16626745 -0.059122644 119.76923
-0.27662483 0.16966105 -0.087565772 125
-0.10656989 0.18844651 -0.10996626 136
0.078947879 0.15002385 -0.086926296 134
-0.12608787 0.26615939 -0.048838619 131
-0.046088297 0.22196859 -0.073888272 134.5
-0.019848937 0.19866762 -0.002489581 126
