# .PCD v0.7 - Point Cloud Data file format
VERSION 0.7
FIELDS x y z intensity
SIZE 4 4 4 4
TYPE F F F F
COUNT 1 1 1 1
WIDTH 15
HEIGHT 1
VIEWPOINT 0 0 0 1 0 0 0
POINTS 15
DATA ascii
-0.22439 0.90573227 -0.21180953 0
0.059540097 0.96918917 -0.20925938 0
0.34543043 0.59821236 -0.19177546 0
0.24265921 0.72305417 -0.19874915 0
0.31572923 1.1393056 -0.2035448 2
0.3429673 -1.1358269 -0.17585005 3
0.35155866 -0.93628025 -0.18555853 2
0.53123009 0.70189822 -0.19012354 0
0.5094142 0.89013481 -0.19713268 1
0.65397209 0.7675252 -0.19255887 1
0.69919658 0.89200282 -0.1964509 2
0.64124715 1.2112631 -0.19362478 2
0.74785817 -0.95664418 -0.15935048 4
0.75726748 -0.6782276 -0.17606816 3
1.0078049 3.1452007 -0.010564407 6
