# .PCD v0.7 - Point Cloud Data file format
VERSION 0.7
FIELDS x y z intensity
SIZE 4 4 4 4
TYPE F F F F
COUNT 1 1 1 1
WIDTH 16
HEIGHT 1
VIEWPOINT 0 0 0 1 0 0 0
POINTS 16
DATA ascii
-0.4843103 0.6893115 -0.24996336 0
-0.34474418 0.96669137 -0.24691524 1
-0.14614609 0.70401001 -0.25023869 0
-0.052863926 -1.1773722 -0.13309874 3
0.14886783 0.91389287 -0.25746346 0.5
0.27202854 -0.71144193 -0.17203422 0
0.39224619 0.73828119 -0.23778677 0
0.50837719 0.86824501 -0.2397292 1
0.40142077 1.1909566 -0.27322763 2
0.56393069 1.2625991 -0.25416881 3
0.73460674 -0.56972116 -0.17902935 1
0.76662546 0.88458186 -0.24926488 2
0.67441696 1.032111 -0.25361753 2
0.78731537 -0.65493023 -0.17156154 2
0.92054653 -0.40700713 -0.17485246 2
3.4983051 5.4240451 -0.16555326 7
