# .PCD v0.7 - Point Cloud Data file format
VERSION 0.7
FIELDS x y z intensity
SIZE 4 4 4 4
TYPE F F F F
COUNT 1 1 1 1
WIDTH 9
HEIGHT 1
VIEWPOINT 0 0 0 1 0 0 0
POINTS 9
DATA ascii
-0.29409274 -0.56731629 -0.23442596 0
0.66290873 0.16309477 -0.16905436 0
0.69939053 0.23648877 -0.18417594 0
0.92904365 -0.59019047 -0.19743635 2
0.98227704 -0.28380772 -0.18404803 1
0.99009371 0.59636146 -0.13993736 2
0.86109883 -0.51822424 -0.18716441 1
1.045053 -0.13333419 -0.17483535 1
1.6467447 -0.10630998 -0.14819044 3
