# .PCD v0.7 - Point Cloud Data file format
VERSION 0.7
FIELDS x y z intensity
SIZE 4 4 4 4
TYPE F F F F
COUNT 1 1 1 1
WIDTH 157
HEIGHT 1
VIEWPOINT 0 0 0 1 0 0 0
POINTS 157
DATA ascii
-8.6537313 -5.4734249 2.5285404 15
-5.1653004 2.3774958 1.0258967 13
-4.4184833 1.8898658 0.149425 8
-4.4277749 1.928 0.35771438 10
-4.464293 3.3834257 1.4333595 15
-4.4060607 1.9044152 0.22611915 9
-4.2642426 3.5936317 1.1171491 13
-4.3156514 0.86321914 1.2414759 15
-3.5126836 -0.4024342 0.92400968 15
-3.5038173 3.9420538 1.1704054 14
-3.5267951 3.8777003 1.4713116 15
-2.6505132 4.5711055 1.30337 14
-2.7824295 4.3831544 1.4140602 15
-2.5635979 2.1728868 0.29596037 10
-2.2782042 2.3657873 0.31095704 10
-2.3809838 2.4496627 0.24188255 9
-2.3202479 2.2852306 0.46828771 11
-1.8414377 2.5737624 0.30770308 10
-1.6427528 2.7969832 0.25523651 9
-1.7216496 2.5881329 0.56497014 12
-1.6108595 -3.95316 0.83645397 13
-1.679544 5.0588837 1.417791 15
-1.599492 2.7545161 0.34549743 10
-1.6072451 2.7313743 0.38475749 11
-1.4726695 -4.0480151 0.73849994 12
-1.3622506 4.5332603 0.86262721 12.5
-1.2997168 4.5245376 1.2327741 14
-1.136264 4.6143203 0.51244891 10
-0.95827013 4.7182574 0.40616545 9
-0.94346696 4.7196717 0.90971798 12.5
-0.69905353 -0.32946691 -0.24810751 0
-0.8161571 4.7768555 1.334868 15
-0.49852061 5.0068021 0.6434285 11
-0.46082777 5.0600872 0.90095115 12
-0.46495059 5.0554442 1.1049401 13
-0.27211633 5.126348 0.61469358 10
-0.15540646 -0.89378154 -0.22226363 0
-0.027955713 -0.68145782 -0.20657827 0
-0.16576655 -1.2228171 -0.20852347 2
-0.19547787 -3.9544623 0.33835644 10
0.07124766 -0.70827341 -0.20649381 0
0.021442644 5.4561934 0.80647135 11
0.060862202 -4.3981295 1.1059885 14
0.16429399 -4.2979546 1.2739754 15
0.16167051 6.0831461 1.2817892 13
0.21583368 -1.0435503 -0.20559877 1.5
0.35447672 -0.87371027 -0.20503148 1
0.30582097 5.445806 0.64349329 10
0.24730295 5.6142077 1.5417458 15
0.59940094 0.37029222 -0.18794566 0
0.49612567 0.54496711 -0.19252437 0
0.5271576 0.70382297 -0.19313693 0.5
0.53502607 -5.0386734 0.026265536 7
0.38053614 6.1590633 1.1354765 12
0.62346148 0.31423211 -0.18732776 0
0.70320392 0.77493894 -0.18238555 2
0.63191491 -4.9811339 0.076820128 8
0.67269772 -4.9396744 0.62729436 11
0.96185416 1.0347745 -0.15620014 3
0.96132416 -4.3165059 0.73913789 12
0.86954081 5.7689414 0.68255562 10
0.79691833 -5.0191898 1.3163667 14
1.1282803 5.5771685 0.51829445 9
1.1130167 6.5517926 1.1322807 12
1.327263 0.090424441 -0.13279976 4
1.3180213 6.1953726 1.7103062 14
1.5702221 4.696578 0.45907739 9
1.5678645 4.8044896 0.71363646 11
1.3856544 -4.6915927 1.3050776 15
1.6451117 4.8007727 0.55441326 10
1.750349 6.0888376 1.4121032 13
1.7877004 6.0821633 1.0994735 12
1.8215983 6.0339465 1.5537775 14
2.1641617 -0.90305537 0.17180195 8.5
2.1281354 -1.6549932 0.36579254 10.5
2.1675532 -1.437852 0.27609894 9.5
2.152895 -0.89558154 0.30761689 10.5
2.1635797 -0.92196 0.52326643 13
2.0886326 -4.2947884 1.2766023 14
2.2223029 -1.6482549 0.16034275 8
2.3565605 -1.2476156 0.16129547 8
2.1968648 -1.4244566 0.35853007 11
2.3329275 -1.2239228 0.38763404 11
2.3646424 -1.4558952 0.6210435 13
2.3531194 -1.3741862 0.54041553 12
2.1877377 -0.88549703 0.75923461 15
2.2243629 5.1036224 1.1371446 12.5
2.2348113 5.107439 1.3863504 14
2.4091139 -1.2508622 0.33231759 10
2.5303316 -0.67078292 0.51601166 12
2.5324233 -0.69648659 0.71141112 14
2.3726914 4.8472714 1.6152935 15
2.7337935 -0.57236469 0.48616078 11
2.6466613 -0.63585842 0.79395711 15
2.7256203 4.5820565 0.80746984 11
2.9053242 -0.47384229 0.25505787 9
2.8986578 -0.4711999 0.60862273 12.5
2.9529879 4.4159641 0.51073509 9
2.9181776 4.7334485 0.66917145 10
2.8846807 -0.46689203 0.82917327 14
2.8655858 4.4313655 1.0714772 12
2.8748112 4.3335218 1.4151667 14
3.0199759 -0.40490806 0.16828211 8
3.0890722 -0.37019563 0.35855246 10
3.0964763 3.8899724 0.58618498 10
3.1101019 3.881253 0.8031193 11.5
3.113812 -0.37801877 0.91557646 15
3.0928876 3.9160807 1.0572077 13
3.3531749 -3.4362617 0.047491509 7
3.2576876 -3.4973507 0.22436254 8
3.3178179 -3.4559367 0.31347612 9
3.3650475 -0.20220627 0.34702083 9
3.2465627 -0.28559697 0.47625029 11
3.3701048 -0.18363824 0.63881636 12
3.2519758 -3.5101631 0.80383778 11.5
3.3494473 -3.4487081 1.0227597 13
3.2680459 -3.5071421 1.4422098 15
3.5024283 3.7911763 0.30557221 8
3.4475663 -3.3822355 0.46855852 10
3.5345738 3.7471561 0.59906471 10
3.5178781 3.7570164 0.87924141 11
3.4275515 -0.14938444 0.95985782 14
3.473274 -3.3877904 1.1750982 14
3.5709233 -0.060478829 1.0828587 15
3.5061667 3.7931137 1.2071971 13
3.4505889 3.8886464 1.3744383 14
3.7571802 3.3413854 1.4484453 15
3.7498338 -3.3614964 1.5428698 15
3.8982809 0.10364833 0.11511277 7
3.9415522 3.0167813 0.2274736 8
3.9091368 0.093823008 0.32076198 9
3.8631849 3.1426427 1.2701638 14
3.9976411 0.13746192 0.19396821 8
4.0383158 0.15800157 0.45547295 10
4.1513114 0.21791899 0.59940255 11
4.1319189 0.26538375 0.86109513 12
3.9988165 2.8786604 1.5610853 15
4.2407875 2.4604595 1.5049515 15
4.5578403 2.0566933 0.12701461 7
4.4752994 2.1823041 1.0150026 12
4.4374371 0.43327251 1.2181246 14
4.4234738 0.43000555 1.3152243 15
4.4101915 2.1455402 1.4664818 15
4.3816876 2.3158445 1.4259602 14
4.6968164 1.7846754 1.6201307 15
4.8754344 1.4363663 0.83359015 11
4.8036251 1.4949998 1.0648977 12.5
4.9418092 1.1777108 1.3828998 14
4.8327894 1.5501364 1.446993 14
4.8363252 1.3603643 1.5369765 15
5.1480007 0.80083883 0.22531514 8
5.1605711 0.83732104 0.14448807 7
5.1462193 0.85242069 0.40722755 9
5.1511717 0.78873461 0.71180195 10
5.1297941 0.85606289 0.87212634 11
5.150866 0.82029229 1.0202564 12
5.1479869 0.77455568 1.1666456 13
