# .PCD v0.7 - Point Cloud Data file format
VERSION 0.7
FIELDS x y z intensity
SIZE 4 4 4 4
TYPE F F F F
COUNT 1 1 1 1
WIDTH 755
HEIGHT 1
VIEWPOINT 0 0 0 1 0 0 0
POINTS 755
DATA ascii
-30.350008 -16.049072 3.4973891 11
-29.252188 -17.968088 1.3741466 9
-28.908085 -18.332884 1.7522616 9
-28.569075 -19.022625 1.670772 9
-28.38554 -19.311832 1.2779381 9
-13.839445 -5.9138927 0.32947585 8
-13.965687 -5.2512345 0.37752062 8
-13.637255 -7.025497 1.1163645 10
-13.824986 -6.8104434 0.88374025 9
-13.29604 -6.9131894 0.40748855 8
-13.320948 -5.3083744 0.25415137 8
-13.293938 -7.465704 0.79936689 9
-13.439482 -6.7570806 0.85788172 9
-13.306062 -5.362051 0.51179862 9
-13.32841 -7.6388907 1.0358647 10
-13.367495 -7.4253354 1.2667607 10
-13.475208 -7.047924 1.3153803 10
-13.338384 -7.4293857 1.7063937 11
-13.476938 -6.3964782 1.7355058 11
-13.294858 -6.9348321 2.5239494 12
-13.317701 -6.559804 2.5306149 12
-12.799643 -6.1636062 -0.17026733 7
-13.139668 -5.6042995 -0.12546389 7
-12.812828 -6.158452 0.28278956 8
-13.037485 -7.0640488 0.81650466 9
-12.928402 -7.9624929 1.217669 10
-12.98735 -7.6035428 1.2306514 10
-12.996811 -7.8013406 1.6666741 11
-13.00567 -7.5697699 2.4776325 12
-13.181018 -6.5134025 2.7902563 13
-12.920332 -6.9288063 3.1431603 14
-13.098439 -6.6528344 3.1704791 14
-13.255506 -6.3683848 3.1952591 14
-12.576103 -6.5917339 -0.20433414 7
-12.685374 -6.3579726 -0.016141837 8
-12.602531 -8.1808538 0.30937409 8
-12.417371 -6.8408961 0.37675825 8
-12.499817 -6.6995754 0.23672162 8
-12.685698 -7.390851 0.7867353 9
-12.773922 -5.9287496 0.85905993 9
-12.427523 -8.8596001 1.1635911 10
-12.596455 -8.5590353 1.1800909 10
-12.55342 -7.6440182 1.143481 10
-12.574894 -6.234477 1.28308 10
-12.743785 -5.9936328 1.253714 10
-12.624513 -8.5408764 1.6254225 11
-12.778414 -8.2482204 1.6412219 11
-12.519543 -8.4939299 2.4137871 12
-12.65458 -7.5237517 3.1145408 14
-12.777812 -7.1462016 3.0897746 14
-12.078629 -7.4245205 -0.26899314 7
-12.291399 -7.0635886 -0.15550187 7
-12.067282 -7.4283381 0.33162078 8
-12.296569 -7.0523849 0.28386265 8
-12.418553 -8.7983217 1.6040294 11
-12.154871 -8.3638086 3.0636249 13
-11.880765 -7.6688228 0.47833326 9
-11.716847 -7.899929 2.1844122 12
-11.805614 -7.5572729 2.1896949 12
-11.918768 -7.0391564 2.1975343 12
-11.975875 -6.5062933 2.2023118 12
-11.998601 -6.1488714 2.2047358 12
-11.978253 -5.7816863 2.203208 12
-12.014068 -5.4493537 2.2122777 12
-11.761479 -9.0885077 3.0413067 13
-11.984066 -8.6447773 3.0516579 13
-11.607059 -8.2342329 2.177582 12
-11.502899 -9.5138121 3.0299745 13
-10.921192 -6.2135687 2.4114339 13
-11.101055 -5.8059773 2.4021895 13
-10.982072 -8.3252239 3.2301025 14
-10.504003 -4.7682142 -0.060680229 7
-10.491437 -4.7590418 0.30568978 8
-10.52769 -4.6649914 1.0992042 10
-10.509225 -4.711319 1.4264086 11
-10.591761 -6.8473105 2.3411219 13
-10.731571 -6.593822 2.3562808 13
-10.655523 -11.043566 2.6184845 12
-10.641075 -6.4985747 2.5707693 13
-10.793436 -6.2771554 2.6158977 14
-10.681987 -11.016551 3.0337143 13
-10.731512 -8.6859121 3.2136793 14
-10.156074 -3.0246906 0.081185721 8
-10.071001 -3.2338347 0.29536361 8
-10.219576 -2.9645839 0.42072001 9
-10.158715 -7.467773 0.86993003 10
-10.049007 -7.7943563 1.3600956 11
-10.181731 -7.5515165 1.3720326 11
-10.048892 -7.8765769 1.9545978 12
-10.167564 -7.5864439 1.9596939 12
-10.323649 -8.6650715 2.457262 13
-10.37229 -7.9708409 2.4735525 13
-10.305236 -7.3558922 2.3157799 13
-10.383639 -6.9668307 2.4965138 13
-10.191266 -4.7453513 2.2249231 13
-10.120156 -10.907311 2.9388101 13
-10.194972 -9.5790415 3.2011447 14
-9.6162663 -6.3722258 -0.18637216 7
-9.6685724 -4.3232269 0.13231644 8
-9.9374762 -3.4585924 0.044777241 8
-9.7200098 -4.1906748 0.43740299 9
-9.9941034 -3.5087907 0.37603807 9
-9.6163626 -4.4248548 0.92199928 10
-9.9112873 -8.0361938 1.3483849 11
-9.7597656 -8.196331 2.0303237 12
-9.9440928 -7.7763195 2.1538756 12
-9.717248 -4.2549982 2.1341372 13
-10.011754 -10.858998 2.5206358 12
-9.8474722 -4.9125924 2.4515979 14
-9.2238798 -9.2996063 1.3041197 10
-9.2877827 -9.2599525 1.9369565 12
-9.5085945 -4.4621496 2.0737934 13
-9.2563229 -10.424653 2.7631099 13
-9.2976475 -4.3364978 2.6100979 15
-9.1422682 -9.5571184 1.9405816 12
-8.8389463 -10.048547 2.1707971 12
-8.9317923 -5.0058279 2.5594521 15
-9.1215429 -4.6165676 2.5832281 15
-8.9696569 -3.5938721 2.2488801 14
-8.5732784 -10.287752 1.273782 10
-8.6195326 -10.183621 2.0004885 12
-8.5280104 -7.8797727 2.3959718 13
-8.5506439 -7.3926735 2.3573387 13
-8.5926008 -5.183764 2.4958408 15
-8.8150158 -3.878881 2.2204523 14
-8.5058708 -10.012077 2.6115589 13
-8.2044668 -5.8622189 0.58088255 9
-8.2846899 -8.1762323 2.3855128 13
-7.9207721 -5.9172616 0.85079521 10
-7.976872 -9.8788576 2.3577247 12.5
-7.8376656 -3.3552299 2.238723 15
-7.9224315 -3.0936332 2.2514729 15
-7.3438692 -9.5851641 2.0899804 12
-7.590116 -9.7724695 2.4626048 13
-6.8970799 -5.3966179 0.7788775 10
-6.8110185 -4.4070344 0.78381687 10
-7.1260295 -9.4800634 1.7446971 12
-6.9711738 -9.3910675 2.3377473 13
-6.8703394 -8.6870022 2.5286548 14
-6.6651883 -4.9164886 -0.072664648 7
-6.5937119 -4.6399369 0.076419331 7.5
-6.6895914 -4.3834162 0.21861084 8
-6.4054985 -4.6105781 0.28730005 9
-6.770484 -9.2696352 1.9982194 12
-6.6599531 -8.9929237 2.5400324 14
-6.257895 -4.748857 0.46935242 9
-6.0711927 -2.2219586 0.54831898 10
-6.0479169 4.2127223 0.63048363 10
-6.0168557 -2.2938795 0.73639637 11
-6.2030048 4.1415887 1.3311563 12.5
-6.0451007 -8.8820648 1.6050752 12
-6.1248121 -2.1898248 1.4642104 14
-6.3185053 3.9367735 1.7193048 14
-6.2742977 -9.0117025 1.9208138 12
-6.0830722 -6.4861493 2.1221941 14
-6.3105021 -9.0040779 2.3495269 13.5
-5.6683183 -4.9869618 -0.074228391 7
-5.7923055 -4.6239104 -0.052115612 7
-5.6896725 -4.5253434 0.44347546 9
-5.6480904 -4.8427782 0.69147378 10
-5.859519 -4.8012781 0.70660657 10
-5.9708591 -2.1756425 0.77546465 11
-5.8913922 -9.1404419 1.6450253 12
-5.9851794 -2.3663073 1.5495261 14
-5.8936977 -8.7986183 1.9987444 12.5
-5.979804 -6.6524124 2.1254044 14
-5.5883083 -4.9925685 -0.12273676 7
-5.2069325 -1.8422947 0.015306165 8
-5.2969146 -1.3182034 0.21188487 9
-5.2458806 -1.7439164 0.44763291 10
-5.2822676 -1.345457 0.38011897 10
-5.4490914 3.0263143 0.42582339 9.333333
-5.2771907 2.5417016 1.0041058 12.333333
-5.4507203 2.9540675 1.0396998 12
-5.2672024 -1.7122458 1.4480422 15
-5.3464789 2.5965433 1.3458829 14
-5.4589415 2.9734766 1.2462463 13.2
-5.3479114 2.5821989 1.5290385 15
-5.4870977 2.876466 1.6083473 15
-4.8416567 -4.524447 -0.09191376 7
-4.9516134 -1.5714278 0.026459103 8
-5.048562 -4.1073909 0.5046528 10
-5.0835776 -1.7018343 0.5456813 10.666667
-5.1161075 -1.5655656 0.47657686 10.333333
-5.0063653 -1.6562239 0.78689343 12
-5.0867486 -1.5594562 0.79601532 12
-4.8541036 1.8316151 0.92172456 13
-5.0352869 2.123704 0.94303954 12.5
-5.1916089 2.4207356 0.93808901 12
-4.8889232 3.2970366 0.82616556 11
-4.8765683 -1.6978167 1.4193771 15
-5.2102323 -1.5653871 1.4365104 15
-4.9092317 1.8224783 1.2657717 14.666667
-5.1128597 2.174978 1.3320037 14.5
-4.9630494 -8.2250767 2.1947892 14
-4.7177634 -5.8171577 0.083737798 8
-4.4940319 -4.5887489 -0.11325433 7
-4.530705 1.8350791 0.20544183 8.666667
-4.5687952 2.1444786 0.17923534 8.3999996
-4.7382059 2.4408016 0.15551719 8.5
-4.4504352 3.4700224 0.099189118 8
-4.6342344 -5.0575361 0.43255395 9
-4.4579177 1.9133043 0.50300473 10.666667
-4.6274381 2.2144537 0.48540071 10.333333
-4.7378874 2.4938965 0.43117088 10
-4.7272024 3.4589446 0.57969797 10
-4.6427794 3.4602141 1.102773 13
-4.7300162 -8.1314001 1.4461043 12
-4.7051086 1.4943961 1.2263315 15
-4.8017545 1.6445094 1.1198887 14
-4.5639582 3.4322133 1.2384233 13.666667
-4.57652 -8.03901 1.6614926 13
-4.6500044 3.3675532 1.6161618 15
-4.7144217 -8.1290512 2.0339735 13.5
-4.4368792 -7.9783945 1.8725832 13
-4.0995293 -7.3601484 -0.22311546 7
-4.2240405 -7.8659306 0.19331311 8
-4.0587759 -7.3664508 -0.012389395 7
-4.0802402 -5.6510696 0.14775869 8
-4.1230435 -1.1204975 0.088504046 8
-4.2757511 3.5955601 0.10495898 8
-4.1439805 -7.8050966 0.43247548 9
-4.0846448 -5.6474915 0.41428035 9
-4.1899571 -5.51721 0.4165577 9
-4.1439261 -1.1111013 0.51371491 11
-4.3463421 3.5209267 0.97978127 12.5
-4.162704 3.6838529 1.1326129 13
-4.1935296 -8.140604 1.3543581 12
-4.1852655 0.632438 1.1792647 15
-4.3815589 0.98782605 1.2740694 15
-4.3207493 3.5112727 1.3878857 14.666667
-4.1431165 3.6479499 1.2737652 14
-4.1280584 -7.818223 1.8203933 13
-4.382091 3.4810646 1.6126984 15
-4.3299756 -7.9111233 2.0697463 14
-3.7470114 -7.8338375 0.24321666 8
-3.8088555 -7.2906852 -0.012923027 7
-3.6583941 -4.7197185 0.12281454 8
-3.814435 3.8602235 0.04484595 8
-3.802089 -4.7734876 0.40752107 9
-3.9424701 3.752425 1.0922645 13
-3.8308263 3.8211672 1.269233 14
-3.400387 -4.6774516 0.096528724 8
-3.2040999 -3.0167184 0.078699455 8
-3.4589479 -0.83607036 0.1382883 9
-3.3815281 -0.7400583 0.076540962 8.333333
-3.2161448 1.7369207 0.1097822 8
-3.2666452 2.3163943 0.22846383 9
-3.466409 2.6158397 0.24874149 9
-3.476052 3.9633746 0.093907438 8
-3.3904605 4.0561295 0.18044883 8.5
-3.2938993 -2.9081254 0.56397778 11.25
-3.4080377 -0.83268464 0.55443013 12
-3.3511529 -0.75981587 0.53748375 12
-3.2981362 1.7364233 0.5200839 11.333333
-3.4998789 2.7239482 0.51261622 10.666667
-3.2996061 4.1618404 0.45037359 10
-3.5155973 -4.6076751 0.71652281 11
-3.298866 -3.0299511 0.94803631 13.666667
-3.3497946 -0.84159565 0.9059841 15
-3.3892484 -0.60717851 0.91040528 15
-3.5035009 3.9169126 1.0583481 13
-3.3253882 4.1195583 0.92473322 12
-3.5169706 3.9561598 1.3493648 14.5
-3.355732 4.0942097 1.3264555 14.5
-2.9021196 -4.9948339 0.093063287 8
-2.8446145 -3.6068182 0.038959078 8
-2.8590267 -3.3002186 0.146018 8.5
-3.0869443 -3.1489732 0.084474787 8
-2.8858356 1.7621844 0.21652636 9.1999998
-3.1869614 2.3748264 0.23946832 9
-3.1222894 2.441293 0.25018066 9
-2.9731088 -5.0267777 0.39105999 9
-3.145139 -4.7407227 0.31492642 9
-2.9293246 -3.2824125 0.36412457 10
-3.0874288 -3.0078909 0.49530023 10.8
-3.030668 1.8741381 0.54042548 11.666667
-2.8465307 2.9751127 0.46236858 11
-3.0939333 -3.2217426 0.95475715 14
-3.1768916 -3.1401467 0.94426495 13.5
-3.0408075 4.2761502 0.87210917 12
-3.0614944 4.2614322 1.3598375 14.6
-2.8463066 4.3902726 1.5548263 15
-2.7519698 -3.5857382 -0.092622519 7
-2.7523532 -5.0780187 0.26196629 9
-2.7038035 -2.5307364 -0.0005195156 8
-2.5401225 -2.2295008 0.16185071 9
-2.5647602 2.24194 0.22660366 9.25
-2.5047162 2.7444954 0.24948829 9
-2.6539655 2.9954553 0.27545241 9.333333
-2.514401 4.5936775 0.27658331 8.666667
-2.7173231 -4.8427138 0.38720712 9
-2.4638131 -2.8898032 0.48007873 11
-2.541599 -2.787318 0.48392716 11
-2.5775304 2.1368124 0.49885646 11.666667
-2.733223 3.013423 0.4941842 11
-2.5453293 4.6172309 0.52569407 10
-2.506469 4.6262903 0.96009558 12.333333
-2.5906332 4.5581012 1.3742232 14.5
-2.0492704 -2.9760208 0.13216974 8.5
-2.2825401 -2.4342957 0.080605358 8
-2.3636127 -2.3821754 0.12792009 9
-2.3538585 2.3286903 0.27185744 9.5
-2.3840842 2.4908347 0.24299705 9
-2.2962334 2.9529138 0.28255171 9
-2.192086 4.836854 0.3117862 9
-2.0332799 -3.7195482 0.58434111 11
-2.1722944 -2.993228 0.44233137 10.75
-2.3660026 -2.3681011 0.34338522 11
-2.2918713 2.3014407 0.51845866 11.75
-2.0864127 2.4399722 0.55706972 12.5
-2.3394661 4.7204618 0.5661481 10
-2.1976364 4.8251166 0.48813227 10
-2.2737823 4.7493482 1.0132005 12.333333
-2.1435649 4.8200936 0.87655681 11.75
-2.3245313 4.70825 1.4060107 14.5
-2.1050034 4.8306031 1.4325646 14.5
-1.9370006 -2.988517 0.11978588 8.333333
-1.811339 2.6291933 0.2815395 9.666667
-1.9555775 4.9403701 0.3165116 9
-1.6963511 -6.3798041 0.56602693 9.5
-1.7024962 -3.2482686 0.45601338 11
-1.8457307 -3.1706519 0.45893374 11
-1.7595611 2.5871916 0.53559816 12.222222
-1.8755873 4.9835501 0.4592312 9.666667
-1.8287371 4.9921575 0.93098861 12.125
-1.7527736 -6.3359747 1.1501414 12
-1.8218601 4.9864216 1.3974926 14.285714
-1.3437691 -4.0950036 0.20382899 8.75
-1.4979459 -3.9788344 0.07883358 8
-1.2877343 3.6186645 0.33001038 10
-1.3221927 4.5515413 0.36468098 9
-1.2175782 -6.1639881 0.68558651 10
-1.3542821 -4.0620918 0.54904836 11
-1.4101146 -3.9524837 0.56709164 11
-1.5758201 2.7081449 0.58021706 12.5
-1.4036658 2.8311696 0.54033452 12
-1.3666767 3.2778294 0.4319956 10.5
-1.3645879 4.6169829 0.66851449 10.666667
-1.5523548 4.8764811 0.51309311 10
-1.4299028 -6.4358954 0.95921481 11.5
-1.336041 -4.0602231 0.78404969 12.5
-1.4658208 -3.9937582 0.83976573 13
-1.3413568 4.6059809 0.9518919 12.833333
-1.275919 -6.1731787 1.3940166 13.5
-1.3761005 4.6542597 1.2883208 14.666667
-1.5947286 4.9403849 1.3893735 14.5
-1.3570529 -6.4392018 1.8688688 15
-0.88078183 -0.38402313 -0.25862712 0
-1.0239736 -6.1130452 0.11805746 7.6666665
-0.87645191 -5.9810491 0.023955779 7
-0.96739316 -2.6391695 0.20451106 9.5
-1.1314365 -2.2514937 0.070318706 8
-1.1117859 4.6320958 0.3886624 9
-1.1182599 -6.105278 0.52966273 9.5
-0.88621426 -5.9729867 0.52987403 9.5
-1.1689799 -4.0375919 0.70657903 12
-0.98101085 -2.4703789 0.76244545 15
-0.99350411 3.1830666 0.47309574 11
-0.98309213 4.7003469 0.57574368 10.333333
-0.82358384 4.8056617 0.61248088 11
-0.87811631 -6.1134529 0.88377482 11.5
-1.1777811 -4.0775571 0.79913896 13
-0.8844474 -2.8410175 0.81930923 15
-0.94720936 -2.6342013 0.78776246 15
-1.0332358 4.6733479 1.0039814 13
-0.83580542 4.7956996 0.96988469 13
-1.0484062 -6.0619216 1.3730766 13.5
-0.84116423 -5.9832311 1.4176784 14
-1.0304885 4.6677966 1.2953557 14.5
-0.87014478 -6.1410427 1.7520075 15
-0.49797165 -2.9213166 -0.25033674 5
-0.40984869 -2.6273742 -0.24010155 5
-0.59072298 -2.1655312 -0.23848994 4
-0.44283587 -1.8337018 -0.22313826 4
-0.42066479 -1.3130248 -0.21468166 3
-0.63234568 -0.54394758 -0.23065677 0
-0.71282667 -0.33259204 -0.24077603 0
-0.73146176 -5.9857244 0.19093433 8.333333
-0.68643081 -3.0048294 0.20853285 9.1999998
-0.52660394 -3.2931142 0.72440833 13.5
-0.61645192 4.9533987 0.63553512 10.285714
-0.72691375 -6.0255108 0.8671791 11.5
-0.60733259 -5.9662838 0.80951893 11
-0.77832592 -2.8225727 0.81267732 15
-0.65322042 4.920558 0.97572672 12.6
-0.43436211 5.4460053 0.99063534 12
-0.45028788 5.7199578 0.91206264 11
-0.65964216 4.9336314 1.3294402 14.333333
-0.64257264 5.3358512 1.4350289 14.5
-0.46506259 5.7197504 1.295854 13
-0.71959221 -6.042222 1.7171159 15
-0.57612699 -5.9694719 1.6888653 15
-0.27735499 -3.9942789 -0.2656275 5
-0.19751051 -3.513454 -0.25438762 5
-0.1237573 -3.0531769 -0.23591882 5
-0.049166162 -2.5950537 -0.22092851 5
-0.19212522 -2.2373109 -0.21984014 4.6666665
-0.22297131 -1.7345641 -0.21173503 4
-0.18665515 -1.3672702 -0.21023396 3
-0.18951505 -0.99258006 -0.2131995 1.3
-0.14140441 -0.71720439 -0.20980178 0
-0.013242917 -4.2685728 0.35771164 10
-0.113066 -3.9634836 0.29500929 9.5
-0.34574994 -5.6694865 0.6078254 10.5
-0.040812772 -4.2632771 0.43445072 10
-0.32187089 -3.7500794 0.53509092 11
-0.37558174 -3.5371733 0.72276473 13
-0.35227019 5.0864625 0.60048151 10
-0.092017777 5.3428583 0.69038779 10.333333
-0.22651201 -5.6723228 0.92675513 12
-0.055510484 -4.2336655 1.0421336 14
-0.22363922 5.8064098 1.0070573 11.75
-0.36963627 -5.6814594 1.269713 13.5
-0.41646621 5.0540018 1.3532342 14.5
-0.22034152 5.3853545 1.4714702 14.6
-0.14722818 5.882947 1.308638 13.333333
0.093940638 -4.9624467 -0.031574514 7
0.20908515 -4.2536106 -0.26323494 5
0.23221594 -3.6595156 -0.2460465 5
0.24982443 -3.1993613 -0.23184231 5
0.26343256 -2.8543069 -0.2223517 5
0.27443203 -2.5713072 -0.21409979 5
0.20456937 -2.1615283 -0.20451485 4.3333335
0.1971831 -1.7833288 -0.19992211 4
0.22800857 -1.3584628 -0.20370406 2.8888888
0.20670356 -1.0016274 -0.20749451 1.3333334
0.24859054 -0.64606535 -0.19529967 0
0.39189628 0.65634912 -0.19011335 0
0.38610935 1.1493849 -0.17350638 3
0.38460597 1.5007865 -0.16937423 4
0.36033157 -4.6906986 0.27347043 9
0.34184805 -4.9540596 0.61784345 11
0.14535157 5.417366 0.69238436 10.25
0.29825303 5.8269253 0.83371437 11
0.24109596 -4.7485728 1.0299711 13
0.026304927 -4.3973842 1.059015 14
0.086607724 5.9904943 1.0951586 12
0.22466038 6.0883865 1.0273017 11.666667
0.29759714 -4.8966551 1.2664254 14
0.15257955 -4.7389412 1.2018152 14
0.26712397 -4.3792734 1.2909492 15
0.12057599 5.540051 1.5029836 14.5
0.24061063 5.7600012 1.4965429 14
0.27265307 6.10502 1.3558378 13
0.61086738 -4.9737697 -0.069862343 6.5
0.71042007 -0.0091724321 -0.17075352 0.5
0.70008487 0.22070123 -0.17272305 0.40000001
0.62837076 0.62709802 -0.18340008 0.71428573
0.61541843 0.99488288 -0.18091027 2.25
0.6630953 1.3698026 -0.16696398 3.5999999
0.61362714 1.856087 -0.16494246 4
0.66208327 2.2557003 -0.16179347 5
0.73378193 2.8460672 -0.15745153 5
0.79215831 3.2888124 -0.16742615 5
0.67005378 -5.0051804 0.13015868 8
0.60209286 -5.0158391 0.58942723 10.4
0.49146479 5.5867348 0.69931799 10
0.69979393 5.685102 0.6102441 9.5
0.71399283 -4.9849172 0.9198072 12.5
0.55787951 6.2667542 1.0313686 11.4
0.60186034 -5.0244346 1.3300717 14.25
0.56168777 5.7883725 1.5345367 14
0.53051484 6.1246195 1.3799462 13
0.5715735 5.7857652 1.7010051 15
1.014523 -4.8981657 -0.055745151 7
0.93768817 -0.014332987 -0.14343923 2.5
0.9586724 0.2193003 -0.15608074 2
0.94226843 0.57066417 -0.17311643 2.0999999
0.99066263 0.94972229 -0.16355152 3.1666667
0.98376101 1.3275912 -0.1553603 4
0.97155291 1.7862883 -0.15301943 4.5
0.94677293 2.1908164 -0.15181048 5
1.0425195 2.5675642 -0.14641143 5
1.1481404 2.9815571 -0.14164799 5
1.0163853 -4.9028273 0.1435162 8
0.96119374 5.6600761 0.19238152 8
0.94729489 -4.9278193 0.59542054 10.5
1.1424774 5.5182853 0.51415306 9
0.98842394 5.8581643 0.62202245 9.6000004
0.93969488 -4.9474187 0.93265414 12.666667
0.95477474 -4.2408414 0.85796654 12.5
0.78848714 6.391541 0.87362945 11
0.94093698 6.497376 1.0962428 11.5
0.95952106 -4.9407277 1.359206 14.5
0.86650169 5.9695153 1.5794358 14
0.9805215 6.0744934 1.4546965 13.333333
0.86463773 6.4361415 1.3566536 13
0.76518333 5.9029422 1.7237388 15
1.0259532 6.0559163 1.74008 14.666667
1.2827899 -0.022187594 -0.13055146 4
1.3610759 0.27921662 -0.13521308 3.5
1.3544481 0.57492679 -0.14177273 3.8
1.3909419 1.0411494 -0.14375132 4
1.4011877 1.3858932 -0.14390318 4.5
1.3660902 1.7626846 -0.14358655 5
1.3718256 2.1851664 -0.13914077 5
1.3871108 2.5052695 -0.13692003 5
1.2852794 3.5197384 -0.13497524 6
1.2611661 -4.8041286 0.30134767 9
1.4592806 -4.6614609 0.13326085 7.875
1.4003019 -4.6986866 0.61960989 10.625
1.3870947 5.0240812 0.48256615 9
1.2360867 5.3306904 0.50237358 9
1.1868128 5.9601574 0.70402616 10
1.3550042 6.0537791 0.79258281 10.5
1.2006991 -4.8513622 0.89603907 12.5
1.4099005 -4.7253213 1.0000201 13
1.3613814 6.1706986 1.0635788 11.5
1.1781088 6.4614 1.1120654 11.5
1.2597208 -4.8367977 1.4127265 15
1.4411372 -4.6746392 1.3156424 14.6
1.35421 6.130403 1.417246 13.25
1.3818539 6.1135774 1.7761755 14.666667
1.3905109 6.8217216 2.1720929 15
1.7998427 -4.4935842 -0.10099514 6
2.0082202 -4.3522806 -0.081214242 6
1.6562051 -0.030275362 -0.10633831 5
1.6643016 0.20368853 -0.10901848 5
1.7487017 0.61950111 -0.12364724 4.5999999
1.7721874 0.97004795 -0.12710799 5
1.8301333 1.4059914 -0.13431884 5
1.7847025 1.9101824 -0.1366237 5
1.968987 2.1830437 -0.088254154 6
1.8266603 2.5953588 -0.12403951 5
1.6165867 3.0804105 -0.12805957 6
1.7928126 3.5189407 -0.12488652 6
1.6924102 5.1134276 -0.11813367 6.5
1.7779353 -4.4777784 0.19150738 8.1999998
1.9554064 -4.3772087 0.084199391 7.5
1.9735676 -1.5402852 0.13474651 8
1.9465046 4.3907237 0.42791218 9
1.7831516 4.5327525 0.44286427 9
1.6291559 5.1881251 0.11879849 7
1.6151377 5.2057343 0.17211618 8
1.7722958 -4.4906492 0.66265833 11
1.9597875 -4.3851085 0.73280162 11.5
1.7870251 4.6964149 0.69120127 10.5
1.6105806 4.8065176 0.82665509 11
1.8844094 5.8127623 0.79410952 10
1.7300696 6.0925074 0.81633264 10
1.7967898 -4.5007138 0.98039711 12.666667
1.9591666 -4.3995705 0.9129343 12
1.944496 5.5781584 1.2566088 13
1.8446492 5.8602509 1.1330267 12
1.6803566 6.1070304 1.0883729 11.5
1.7370896 -4.506979 1.3079472 14.6
1.9447061 -4.3831058 1.3043861 14.5
1.8856701 5.7676859 1.5014604 13.5
1.6571395 6.1137896 1.4685918 13.5
1.8856013 5.763103 1.7768661 15
1.7158452 6.0803804 1.7707638 14.5
1.8736737 6.689662 2.1811869 15
2.2441049 -4.2149253 -0.061130181 7
2.3286104 -0.045050807 -0.077677578 5.5
2.3854661 0.19534218 -0.076498598 6
2.3426335 0.55749094 -0.090302497 5
2.164448 0.99738806 -0.11433045 5
2.209126 1.5092689 -0.12191103 5
2.2192371 1.7840947 -0.047874328 6.1999998
2.0002766 2.9076982 -0.11913739 6
2.1612573 4.5084848 -0.034348037 6.5
2.186353 -4.2478747 0.23221563 8.333333
2.1821871 -1.626258 0.25003377 9.5
2.2540526 -1.4212532 0.26998186 9.5
2.2482216 -0.99014318 0.27466425 9.833333
2.363235 -0.78654629 0.24585135 9.5
2.1019943 1.7033455 0.34137213 10
2.0880084 2.244554 0.30690202 9
2.0786362 4.4011555 0.42179528 9
2.151576 4.4829659 0.29585737 8.5
2.2266905 -4.2309513 0.67871743 11.125
2.3226955 -1.3808116 0.61286336 13
2.2426057 -0.95135784 0.6016565 13.583333
2.3696382 -0.78005743 0.58340365 13
2.0692847 4.7681279 0.52852887 9.5
2.2828593 5.0219612 0.74548328 10.4
2.172997 5.216466 0.8726424 11
2.2389033 -4.2409186 1.0458093 13
2.2903752 5.0064559 1.1276842 12.5
2.088027 5.3841524 1.1115357 12.2
2.1454794 -4.2652435 1.3169743 14.75
2.2852247 5.0006528 1.5343497 14.4
2.0769944 5.396965 1.459982 13.666667
2.1415334 5.3775449 1.7526988 15
1.9755253 5.5968618 1.7475511 15
2.5253568 -4.049706 -0.036612522 7
2.7138653 -3.9405293 -0.02053793 7
2.5608149 0.62416124 -0.075257719 6
2.7194655 1.1323819 -0.097070731 6
2.6769657 1.4655814 -0.097083651 6
2.5210936 -4.0541267 0.22859755 8
2.7178948 -3.938904 0.23027885 8
2.4630082 -1.4467753 0.21866566 8.7142859
2.6178112 -0.63720554 0.26356372 9.5
2.7253697 5.122407 0.42417085 9
2.5050428 -4.067987 0.67994177 11
2.6876781 -3.9615891 0.62410724 10.5
2.4360445 -1.399542 0.62960273 13
2.4048605 -1.1802322 0.63454652 13
2.6165543 -0.64262253 0.65053648 13.307693
2.6129103 4.7059622 0.7373383 10.5
2.6141071 4.9552326 0.63912392 9.8000002
2.662354 5.2204475 0.56335157 9
2.516078 -4.0756836 0.96707791 12.333333
2.7018418 -3.9647036 0.96215409 12.666667
2.5869381 -1.4732056 0.90659928 15
2.7587922 -0.56469768 0.88081795 15
2.7246814 4.6644783 1.1301603 12.5
2.6393538 5.0554943 1.1277683 12.25
2.6327643 5.229352 1.2333114 13
2.5168672 -4.0579963 1.3626864 15
2.6932666 -3.9604282 1.3851149 15
2.7514579 4.6806431 1.5473518 14.5
2.6668403 5.099699 1.5052543 13.666667
2.6850181 5.1781454 1.7198659 15
2.9898381 -3.7650571 0.0044151526 7
2.9738498 4.6876879 -0.046245258 6.5
2.9908745 -3.7805285 0.27483585 8.6000004
2.9487944 -0.4496693 0.28355014 9.375
3.0981946 -0.36487818 0.24346815 8.8000002
3.1655238 4.2489462 0.43605611 8.666667
3.0167968 4.5898585 0.38127622 9
2.9365034 5.0156832 0.33624735 8.5
3.0094891 -3.7744951 0.68444902 10.8
2.9128423 -0.47276306 0.68564183 13.142858
3.1265631 -0.35372671 0.65413427 12.5
3.1353567 3.85743 0.66954845 10.5
3.0451753 4.3029127 0.68902272 10.4
2.9229143 4.5595856 0.64581943 10
2.9605205 -3.8107944 0.98697317 12.666667
2.9744945 -0.45099437 0.91187197 15
3.0795603 -0.35197955 0.87584227 14
3.0993176 3.9108686 1.1106142 12.5
2.9973514 4.2144599 1.1374067 12.666667
2.9353383 4.5595345 1.0560724 12.333333
2.7720387 5.018764 1.1419079 12
3.0273581 -3.774123 1.4367142 15
3.1274052 3.8501515 1.408466 14.5
2.9996698 4.2784972 1.4614488 14.333333
2.9633555 4.5648651 1.4912412 14.166667
2.8040023 4.9928684 1.4674309 13.5
2.763757 5.0402775 1.6969417 15
3.2460287 -3.6423292 0.023307122 7
3.39379 -3.4226551 0.040952519 7
3.3875141 1.0401981 -0.06605237 6
3.3534763 1.8963789 -0.085465677 6
3.2867193 3.9829354 -0.056665387 6
3.4041448 4.1759973 0.014019088 7
3.2207673 -3.6479721 0.29160517 8.333333
3.4244442 -3.4031222 0.25407311 8.2857141
3.3771756 -0.20673755 0.2411124 8.5555553
3.485764 3.8288453 0.31000462 8
3.3397021 4.2430582 0.28128138 8
3.2425025 -3.6398687 0.7238906 11
3.4132593 -3.4209826 0.72150213 10.875
3.3879154 -0.2050554 0.63388669 11.888889
3.4473026 3.8242431 0.65027839 10.142858
3.2058425 4.2785306 0.63199073 10
3.2358365 -3.6510956 1.0828418 13
3.4650052 -3.4137018 1.0548744 13.166667
3.406173 -0.20323075 0.98823899 14.6
3.4113479 3.8495023 1.0873965 12.285714
3.2137494 4.1810789 1.0901309 12.5
3.3372772 -3.4837048 1.4725217 15
3.4651284 3.8589149 1.4762374 14.5
3.2394745 4.2099261 1.5062345 14.4
3.7974439 -3.3005588 0.026170142 7
3.8981781 1.7014757 -0.079979554 6
3.8106434 -3.2911952 0.22407244 8
3.9718325 -3.1894062 0.24535859 8
3.6838708 -0.031160275 0.26498538 8.5
3.8448057 0.064441532 0.28979641 8.5
3.9551368 3.0082092 0.47114241 9
3.7577288 3.335566 0.261439 8
3.7334142 3.6910362 0.31586808 8.5
3.7848518 -3.2739716 0.70462221 10.8
3.6574435 -0.052099444 0.70338619 12
3.8591127 0.067047827 0.6819191 11.5
3.8996665 3.0958233 0.6584993 10
3.7373536 3.3802066 0.65585011 10
3.5911052 3.6533086 0.70552236 10.5
3.7697973 -3.2838194 1.0727038 13
3.6903746 -0.049363792 1.0443131 14.666667
3.825906 0.061528273 1.0914696 14.333333
3.916692 3.072809 1.0546038 12.666667
3.7397032 3.3750093 1.0654083 12.5
3.603265 3.6334906 1.0699806 12.5
3.7412169 -3.3347256 1.5460845 15
3.9188848 3.0478358 1.533002 14.666667
3.7332542 3.3911102 1.4591309 14.5
3.5771897 3.6601062 1.4166125 14.5
4.1431255 -3.0984476 -0.03089764 6.3333335
4.279325 2.4901235 -0.051983085 6
4.0719819 -3.1412778 0.2468995 8
4.1826487 0.25018185 0.25912824 8.125
4.337966 2.3185031 0.29425353 8
4.1878223 2.5812593 0.31735137 8.166667
4.0401068 2.855372 0.32854858 8.333333
4.0089259 -3.1808763 0.83292758 11
4.184381 0.23878421 0.68609452 10.857142
4.3374834 2.3154852 0.74429041 11
4.1965399 2.562567 0.71251231 10.714286
4.0214901 2.8711567 0.7057448 10.5
4.1667662 -3.093384 1.0380373 12.5
4.1821766 -0.064571962 0.91266382 13
4.1731477 0.22190911 1.0888033 14
4.3382397 2.31654 1.0854249 12.666667
4.1874957 2.5874591 1.0832472 12.666667
4.0248337 2.8690224 1.0881426 12.666667
4.1799722 -3.0828352 1.4915992 14.6
4.2899308 0.28234109 1.3543584 15
4.3241544 2.3086669 1.4029808 14.5
4.1750579 2.6123133 1.4801697 14.6
4.0107336 2.9143689 1.5003108 14.5
4.754509 1.5848638 0.049470294 7
4.6216278 1.8146791 0.082692429 7
4.4474263 0.40495464 0.1349905 7
4.615602 0.49565282 0.2430882 8
4.7403793 1.5892228 0.27758557 8
4.6022849 1.8410776 0.29730514 8.166667
4.4298105 2.1611834 0.27559939 8
4.4180803 0.37735209 0.74690324 11
4.6142769 0.51024848 0.76399034 11
4.755116 1.5611724 0.6554203 10
4.6009455 1.8392583 0.6612578 10
4.4418535 2.1222875 0.75727773 10.666667
4.4499002 0.37481198 1.0032942 13
4.6740947 0.51021755 1.1216984 13.2
4.7476988 1.5507371 1.0884732 12.666667
4.6059394 1.8098321 1.0977495 12.888889
4.4526935 2.1108601 1.0997008 12.8
4.4498496 -2.9155095 1.5079561 14.5
4.5086989 0.39395928 1.3083371 15
4.7446117 0.52697444 1.5002698 15
4.7450938 1.5408655 1.4813669 14.5
4.5988793 1.8086138 1.4903381 14.8
4.4279389 2.1821949 1.4881095 14.75
4.5679264 -2.8348689 1.6954404 15
5.0944586 0.99818975 -0.026017932 6
4.8904371 1.3491281 0.018668612 6.6666665
4.9831543 0.69702047 0.30959621 8.1999998
5.0393033 1.0528177 0.29589719 8
4.8633657 1.3714299 0.31940058 8.1999998
4.9460812 0.65961474 0.76319212 10.5
5.0556822 1.0178162 0.70663399 10.125
4.8625264 1.3766941 0.67475796 10.2
4.9486442 0.654037 1.0445737 12.5
5.0482812 1.0394484 1.0912986 12.285714
4.8433719 1.3697131 1.1470462 12.666667
4.9629664 0.67800522 1.5039221 14.666667
5.0727501 0.98148012 1.4752885 14.666667
4.9241395 1.3159927 1.483619 14.6
4.7817497 1.6258146 1.5402328 15
5.1877041 0.88205695 1.4179623 14
