# .PCD v0.7 - Point Cloud Data file format
VERSION 0.7
FIELDS x y z intensity
SIZE 4 4 4 4
TYPE F F F F
COUNT 1 1 1 1
WIDTH 723
HEIGHT 1
VIEWPOINT 0 0 0 1 0 0 0
POINTS 723
DATA ascii
-31.993498 -14.917333 1.1609194 9
-32.027359 -14.764408 3.0564556 10
-15.34902 -4.9708176 0.39044186 8
-14.829649 -6.4585776 1.0273675 9
-15.063759 -5.9012742 1.9590559 11
-14.428699 -5.0094824 -0.21779054 7
-14.430984 -5.0628924 0.35204637 8
-14.76861 -4.3916945 0.42121884 8
-14.424762 -7.1418853 0.67160577 9
-14.447405 -5.9343653 0.74225098 9
-14.607204 -6.8886166 1.1608055 10
-14.795352 -6.5764332 1.1885743 10
-14.723392 -6.1472611 1.2004385 10
-14.642627 -6.6689544 1.81828 11
-14.771952 -6.1564255 1.8899159 11
-14.082543 -5.6226268 -0.26742014 7
-14.372811 -5.0603271 -0.26046932 7
-14.187378 -7.8651361 0.62029928 9
-14.396535 -7.5500169 0.64805895 9
-14.049924 -7.8272977 1.0861751 10
-14.051522 -7.8362474 1.5587915 10
-14.251708 -7.448091 1.5804315 10.333333
-14.36959 -7.2111382 1.6023657 10
-14.399231 -7.128541 1.7382113 11
-14.053304 -6.845818 3.0863461 13
-14.219442 -6.5406609 3.1146364 13
-13.660208 -6.5685143 -0.34538412 7
-13.78235 -6.2468982 -0.31826696 7
-13.923976 -5.7873225 -0.30692965 7
-13.626177 -6.5349841 0.14329031 8
-13.813194 -6.2006979 0.24391335 8
-13.92496 -5.7947006 0.24149674 8
-13.892861 -8.1534376 1.064158 9
-13.791992 -8.2895651 1.5256655 10
-13.9108 -5.674417 1.5637605 11
-13.655681 -8.4422283 2.1843128 11
-13.813742 -8.090538 2.2034738 11
-13.968839 -7.7390904 2.2246733 12
-13.895511 -6.8484979 2.2219505 12
-13.686052 -6.3428817 2.199523 12
-13.674951 -5.9445868 2.2064135 12
-13.730995 -5.5791755 2.2240932 12
-13.475181 -6.8611107 -0.36873227 7
-13.549683 -6.6290336 -0.42155963 7
-13.569022 -6.8791785 0.11720768 8
-13.364784 -6.9972634 0.17358506 8
-13.573913 -6.6931829 0.20096643 8
-13.36717 -8.0509119 2.994678 13
-13.546174 -7.7550783 3.016525 13
-12.895537 -8.9892836 2.9548345 13
-13.051375 -8.6728096 2.9655788 13
-13.223294 -8.371253 2.9822247 13
-12.531966 -5.2466302 2.4174752 13
-12.550842 -5.1067104 2.7794564 13
-12.742747 -9.307128 2.9468863 13
-12.048759 -6.0563293 2.332515 12
-12.184736 -5.7775307 2.3550124 13
-12.361828 -5.5129547 2.3850634 13
-11.663163 -4.4098678 0.31755498 8
-11.68289 -4.4243393 1.949383 12
-11.779906 -6.6207614 2.2936621 12
-11.91082 -6.3353753 2.3120379 12
-11.90241 -9.9428377 3.2782969 14
-11.755157 -9.4053144 3.2083571 14
-11.386248 -2.5476406 0.016179442 8
-11.338753 -2.6061709 0.37962455 9
-11.550624 -4.4331665 0.67550802 9
-11.527662 -7.0064735 1.3364788 10
-11.334289 -7.4418392 2.2418766 12
-11.549048 -7.025825 2.26457 12
-11.354803 -4.4484091 2.2244275 13
-10.811959 -4.0341206 -0.10982581 7
-10.927796 -3.5181389 -0.065234326 7
-11.164497 -3.0383606 -0.025349304 8
-10.93112 -4.01057 0.38895097 9
-11.159039 -3.091145 0.33906937 8
-10.847106 -3.9936867 1.1002136 10
-10.907128 -8.2837181 1.8333308 11
-10.870026 -9.0837746 2.2425416 12
-10.956618 -8.7367659 2.2372 12
-11.060259 -8.4126177 2.2367435 12
-11.192492 -7.7259674 2.2299025 12
-10.815047 -4.0231433 1.3198625 11
-10.586598 -8.8696413 1.8148842 11
-10.742329 -8.5697842 1.8215271 11
-10.814185 -10.347351 2.715831 13
-10.106512 -9.77911 1.8020079 11
-10.210716 -9.8011179 2.1985602 12
-10.041171 -4.4744453 2.5885255 14
-10.067649 -4.2306437 2.5884359 14
-10.093148 -3.990067 2.5899746 14
-10.260684 -10.258526 2.6290898 13
-10.111507 -3.791023 3.0269296 15
-9.9298544 -10.07533 1.799222 11
-9.9659824 -10.013847 2.1832955 12
-9.6904507 -7.754353 2.3541622 13
-9.8300848 -7.5171032 2.3623018 13
-9.8561697 -5.039547 2.5682404 14
-9.9364471 -4.6836019 2.5721986 14
-9.8132133 -3.7403855 2.2403052 14
-9.6592464 -3.4387865 2.21141 14
-9.7590675 -3.2282586 2.2330377 14
-9.7605553 -4.4486651 2.9385314 15
-9.875474 -4.2317195 2.9647257 15
-9.9954681 -4.0142889 2.9949214 15
-9.5418444 -7.9897251 2.3474278 13
-9.4869041 -4.9987497 2.881911 15
-9.6386051 -4.6643548 2.9106054 15
-9.3003769 -5.2969546 3.0237043 15
-8.8491821 -6.1374793 2.9423599 15
-9.02285 -5.8228483 2.9712005 15
-9.1895409 -5.5073366 3.0012851 15
-8.4504242 -2.7250795 2.2109268 15
-8.4941931 -6.5060949 2.3823004 14
-8.5464058 -2.960202 2.2340963 15
-8.5865726 -1.9702408 2.2468543 15
-8.6147289 -6.5587211 2.9097877 15
-8.7838736 -6.2610288 2.8569486 15
-8.5910168 -6.6052599 3.0404508 15
-8.174448 -6.7798414 0.39911231 9
-7.7204218 -4.5741477 0.029156521 7.5
-7.7880988 -4.3126593 0.083468832 7.6666665
-6.9039845 -4.5517802 -0.18166144 7
-7.1300063 -2.1155293 0.10570847 8
-7.0636692 -4.5851331 0.68069315 10
-7.0169392 -2.0459006 0.863433 11
-7.0439725 -1.9966768 1.0243653 12
-7.1116581 4.3026767 1.3072144 12
-7.0575643 4.3566756 1.8041131 14
-7.1058955 4.3931937 1.5437297 13
-6.9067183 -8.4651775 2.3058751 13
-6.9735785 -5.8100505 2.4527452 15
-6.8409157 -5.620791 2.5071325 15
-7.014554 -8.5861826 2.7201667 14
-6.433589 3.0608656 0.24938913 8
-6.7550125 -4.1673884 0.43833518 9
-6.4546275 3.0804541 0.41376269 9
-6.8002219 -8.4867573 2.007714 13
-6.4674525 -8.2772264 2.220459 13
-6.5054054 3.2802351 2.0800116 15
-6.6761212 -8.3719997 2.7314899 15
-6.0598402 -4.3058562 -0.15322076 7
-6.067462 -4.4276996 -0.10616728 7
-6.0999398 -1.4753331 0.070598058 8
-6.3562984 3.2124505 0.27284643 9
-6.2168207 -4.0376992 0.41894898 9
-6.2360201 -1.4969394 0.45083535 9.333333
-6.0673876 2.3943024 0.64197838 10
-6.309485 -1.6364974 0.96589649 12
-6.0159631 -1.4575977 0.81119972 11
-6.1651201 2.5828991 0.96279049 11.5
-6.3771257 3.0095274 1.0160995 11.333333
-6.2028794 3.2980447 0.71745616 10
-6.0560079 -1.4450836 1.3604144 14
-6.0555482 2.3673453 1.2022882 13
-6.1707749 2.6071761 1.188007 12.666667
-6.3689022 2.9921989 1.2480569 12.75
-6.376143 3.211539 1.2788832 12.5
-6.3404608 -1.6345376 1.5673736 14
-6.3677363 -1.6064099 1.743796 15
-6.0465484 2.3667917 1.6685901 14.5
-6.1642127 2.5887175 1.7259371 14.666667
-6.3436408 2.9131486 1.7313769 14.333333
-6.2807274 3.2356031 1.7205999 14
-6.0502791 -8.0930405 2.1402199 13
-6.3511677 2.9723287 1.9367518 15
-6.0932469 3.2739425 1.9112409 15
-6.4124823 -8.3250895 2.611587 14
-6.3640118 -6.3394952 2.4838908 15
-6.4125166 -8.2934914 2.6649492 15
-5.8011332 -4.7620225 -0.19579183 7
-5.9366894 -4.649704 -0.12363948 7
-5.6125112 2.3444514 0.21952283 9
-5.6800294 2.5731149 0.085750602 8
-5.7100716 2.8218989 0.033805881 8
-5.8749514 3.4753506 0.72378939 10
-5.7446074 1.8135433 1.377212 14
-5.8919024 2.082001 1.4455838 14
-5.6411252 3.5581386 1.2202301 13
-5.7804761 1.8481174 1.6036829 15
-5.9990077 2.2492316 1.6793734 15
-5.9600492 3.420795 1.7214093 14.5
-5.8768902 3.4171698 1.9149818 15
-6.0197411 -8.0030308 2.5401649 15
-5.4182115 -5.5227718 0.11268861 8
-5.5376544 2.2147589 0.17332853 8
-5.4408302 2.1566672 0.36836874 9
-5.4528651 3.5579851 1.0431622 12
-5.2751093 3.6263006 1.0509101 12
-5.2984681 0.92808962 1.4408313 15
-5.5458326 1.3895292 1.4457963 15
-5.4582071 3.5593307 1.2811278 13
-5.271656 3.6226256 1.3692968 13.5
-5.5754566 1.456048 1.5732379 15
-5.5503998 3.5345564 1.8967935 15
-4.8885016 -4.6137872 0.091254488 8
-5.0424428 3.8078713 0.0099081956 7.5
-4.831398 -4.4759812 0.72952616 11
-4.9476533 3.821898 0.9600327 11.75
-5.093926 0.54236138 1.3993306 15
-5.0009894 3.7837551 1.3810523 13.6
-4.9870105 3.7654667 1.6914924 15
-4.8861432 -7.4594069 2.1124094 14
-4.7322474 -4.6707811 0.084889717 8
-4.4597664 2.6794701 0.26319611 9
-4.4815788 3.9997096 0.16657279 8
-4.6541858 -4.5596838 0.59140873 10
-4.7069831 -4.3259449 0.58227336 10
-4.5104389 -3.5970738 0.53121042 10
-4.4832492 2.7253211 0.36681563 9.5
-4.4970908 3.9833219 0.36079901 9
-4.4635143 4.0073771 0.49143562 10
-4.4148536 -2.8770797 0.91671318 12
-4.6687741 3.9662859 1.0566484 12
-4.4973884 4.0063729 1.0602316 12.5
-4.5071344 -7.2699823 1.4004499 12
-4.4393229 -0.72850722 1.2063464 15
-4.671248 3.9534371 1.2622638 13.5
-4.4358554 4.0214419 1.1670575 13
-4.5451341 -7.2891564 1.8408861 13
-4.6499715 3.9500866 1.7000844 15
-4.6226535 -7.3245573 2.160383 14
-4.0156965 -3.4677656 0.15213959 8
-4.1029081 -3.0057676 0.18214819 8.5
-4.235599 2.3869557 0.23249815 9
-4.1744957 2.543611 0.11467441 8
-4.1378036 -4.9818206 0.31859565 9
-4.3586292 -3.446228 0.36237583 9
-4.1914225 -3.013783 0.58322507 10.571428
-4.1559644 1.856306 0.46228224 10.333333
-4.3032045 -3.1081808 0.90682614 12
-4.3804793 -0.62351954 1.0945916 15
-4.2210946 4.1928682 1.0130292 12.25
-4.1981125 4.2092929 1.3333348 13.8
-4.361855 -7.2086596 1.599267 13
-4.1516657 4.2372813 1.6115656 15
-3.9236834 -4.8500695 0.13537879 8
-3.9109869 -3.2903991 0.08155103 8
-3.9660728 -3.0728526 0.13107349 8
-3.7820539 -2.5031385 0.070879549 8
-3.7233458 -2.1934998 0.1914756 9
-3.8365188 1.7618082 0.17055237 8.666667
-3.8593881 2.0002189 0.21084338 9
-3.7315662 2.4233232 0.17658155 9
-3.7387216 3.042701 0.24686967 9
-3.7526259 4.4552054 0.28260568 8.666667
-3.9712965 -3.2250981 0.65316087 11
-3.720449 -3.1084173 0.48685598 10
-3.9311159 1.9823198 0.47140571 11
-3.7473857 2.0907991 0.46717042 10.666667
-3.7831078 3.0536458 0.42645359 10
-3.7533164 4.4736819 0.47391817 9.666667
-3.976403 4.3397298 0.97539967 12
-3.7688777 4.44765 0.90952885 12
-3.9045751 4.3677912 1.2841352 13.5
-3.7583809 4.4543753 1.2777622 13.333333
-3.9237177 4.3481836 1.5681096 15
-3.7436905 4.4573059 1.5840489 15
-3.3797443 -4.1688695 -0.066121861 7
-3.4315329 -2.3654068 0.094824232 8
-3.4622176 2.2817338 0.2390738 9
-3.4244308 2.4503949 0.15997154 8.333333
-3.4969609 2.9748125 0.16893718 8.25
-3.3412981 4.2885461 0.24050879 9
-3.3477323 4.7443447 0.27043611 9
-3.3875256 -6.2395 0.66399646 10
-3.2150762 -3.3586047 0.49778321 11
-3.4056475 -2.877012 0.4485082 10.5
-3.3316722 2.2737904 0.46947616 10.75
-3.4494374 4.6654282 0.52228981 9.75
-3.3542595 -6.2261214 1.0321873 12
-3.3608828 -4.5520768 0.88754576 12
-3.4700696 4.6223822 0.94071954 12
-3.419853 -6.254981 1.3963171 13
-3.4418814 4.6481466 1.3415394 13.5
-3.3868475 -6.2038121 1.7815984 14.5
-3.4678605 4.6092796 1.6070946 15
-3.0220907 -6.0703592 -0.19725478 7
-3.1544125 -4.137332 -0.11304303 7
-2.9483109 -6.1869874 0.12408409 8
-3.1143589 -5.9088106 0.046168286 7.5
-3.0610797 -4.1357327 0.088761166 7.6666665
-2.8304195 -3.972403 0.20179884 8.5
-3.0623183 -2.8995299 -0.0027609393 7.5
-2.968174 2.5363305 0.24147297 9
-3.119076 2.8589001 0.16369438 8
-3.1331589 4.7679157 0.23844872 8.5
-2.9329917 4.9250398 0.28749305 8.666667
-3.0117815 -6.1838884 0.55216008 9.5
-2.851584 -3.7512491 0.57091939 11
-2.9872699 -3.3110218 0.4917309 10.5
-3.0273597 -3.1149378 0.45247325 10.333333
-3.0214422 2.4861996 0.48042589 11
-2.9913163 4.9026732 0.54662663 10
-2.8574491 -4.0663223 0.81650269 12
-3.2273715 4.7515101 0.96399564 12
-2.9940772 4.8898172 0.99010378 12
-3.0305843 -6.1663532 1.3537712 13
-3.0332589 4.8549094 1.3580815 13.8
-2.9785192 -6.2132287 1.7176539 14.4
-3.1874659 4.7458839 1.6282921 15
-2.9531829 4.8846259 1.6549766 15
-2.7235231 -6.2059259 -0.046622366 7
-2.7852488 -5.9803109 -0.031486366 7
-2.5419867 -4.1034975 0.30442578 9
-2.5773222 -3.9537334 0.30647579 9
-2.5487862 -3.4089909 0.21917892 9
-2.6250923 2.720634 0.23873778 9
-2.617636 2.9612668 0.18809564 8.5
-2.6733568 5.0643644 0.32243514 8.666667
-2.7916739 -6.4196601 0.64200372 10
-2.7207117 -6.3919563 0.36753914 9
-2.4727051 -4.1175699 0.48307985 10.5
-2.6507113 -3.9259288 0.49328399 10.5
-2.6092722 -3.3937831 0.42647737 10
-2.6368663 2.6405618 0.52089924 11.4
-2.6651926 5.021327 0.59363705 10.285714
-2.4409511 -4.0564384 0.79197294 12
-2.6439681 5.0481415 0.97042698 12
-2.6546955 5.0287538 1.3550941 13.857142
-2.7032597 4.9983473 1.6767833 15
-2.0017781 -5.958919 0.057369813 7.5
-2.0701022 -2.6407235 0.24114245 9.5
-2.249382 -2.1922009 0.14658742 8.8000002
-2.3081388 3.3005545 0.32852054 9.666667
-2.1982582 3.6375718 0.31840196 9
-2.2101626 4.532238 0.27232054 9
-2.1626451 -6.0252166 0.6040864 10
-2.0899773 -2.4615624 0.4069348 11
-2.3093486 -2.0615776 0.46482819 11.5
-2.197881 2.9137387 0.52887547 11.333333
-2.3397386 3.2549512 0.43915349 10
-2.1047382 4.5876508 0.60517293 10.666667
-2.0302238 -5.9598818 1.1237268 12
-2.0740573 -2.8957102 0.9514457 15
-2.0743861 -2.4703181 0.8143636 15
-2.0815113 4.5968766 1.0261703 13
-2.1760285 -6.012599 1.2818124 13
-2.0391345 -5.9335661 1.4998398 14
-2.0901015 4.6095886 1.2216566 14
-2.1660321 -5.9923267 1.5541842 14
-1.8351399 -5.9030342 -0.036941808 7
-1.8266817 -3.0049112 0.089191034 8.1999998
-1.8328104 4.7108173 0.31968781 9
-1.6163586 -3.3642659 0.69316596 13
-1.9444999 -2.7034545 0.73701179 14
-1.9427218 3.0629814 0.54465467 11.5
-2.0081885 3.2383738 0.41380331 10
-1.8197496 4.7208505 0.54392761 10
-1.6577879 4.8335123 0.4440923 10
-1.868138 -5.9168916 1.1159152 12
-1.736165 -3.2761135 0.78171831 13
-1.9729644 -2.8494596 0.88750529 14.5
-1.9701422 -2.6879258 0.82519108 14
-1.8292897 4.7092466 0.94402254 12.6
-1.636361 4.8571692 0.80227274 12
-1.9312364 -5.9347086 1.2597127 13
-1.8409003 4.7113347 1.35287 14.5
-1.6663992 4.9952698 1.346948 14
-1.9589925 -5.9284897 1.5744972 14.5
-1.2600292 -4.0507574 0.31294638 9
-1.359933 -3.9160643 0.23751602 9
-1.4094296 4.965889 0.37144426 9
-1.3022032 -4.038394 0.4578878 10.5
-1.4400623 4.9618044 0.57085013 10.25
-1.2344887 -4.1873498 1.1208074 15
-1.5910631 -3.5701795 0.80887622 13
-1.4373698 4.9644814 0.90283173 12.166667
-1.3452814 5.6574221 1.0198193 12
-1.279622 5.0827508 1.4539379 14.5
-1.4680399 5.355319 1.3088897 13.5
-1.3090142 5.6889377 1.3007404 13
-1.4368234 5.2759752 1.607434 15
-1.1050701 -5.461843 0.30277485 9
-0.82781374 -4.9327512 0.015374685 7
-0.92914897 -4.6931214 0.22661056 9
-1.1335279 5.1209583 0.40395278 9
-0.92042828 -4.7508841 0.52242118 10
-1.1264527 -4.3054476 0.4194372 10
-1.0461651 5.1621122 0.48405588 9.666667
-0.8976863 5.2334714 0.48507944 9.5
-0.85049266 -4.8259311 1.1104956 13.5
-1.0761603 -4.4253182 0.91030163 13
-1.1157285 -4.3412957 1.0143948 13.5
-1.0393113 5.800106 1.0138397 11.857142
-0.88714582 -4.8831272 1.3440717 15
-1.0250759 -4.6505299 1.2263609 14.6
-1.0645422 -4.4005275 1.2029268 15
-1.0664796 5.3775573 1.4044217 14
-1.055415 5.819561 1.3111283 13
-1.0168476 5.3965588 1.6545825 15
-0.4425315 -1.2316523 -0.18873051 3
-0.46633813 -0.90608293 -0.20102614 2
-0.40880346 -0.7183367 -0.20181908 1
-0.46664673 1.4989133 -0.21805617 3
-0.55792999 1.6623731 -0.22693288 3
-0.47284752 2.0985901 -0.22806245 4
-0.60050476 2.4167404 -0.24268606 4
-0.58072728 -5.0497451 0.17623405 8.166667
-0.5509671 -5.0514474 0.53263891 10
-0.64855313 5.4109855 0.56348908 9.8000002
-0.59349984 -5.059885 1.0559921 13
-0.44709778 -4.2798095 1.0890856 14.5
-0.78574497 5.9473238 1.0986732 12
-0.58802986 6.0702486 0.94149297 11.333333
-0.63325232 -5.0528836 1.2972417 14.666667
-0.78247041 5.5257354 1.4303302 14
-0.63857859 5.8221903 1.378515 13.5
-0.58834881 6.0634246 1.3405899 13
-0.7936281 5.4911489 1.6893818 15
-0.15718085 -4.9683557 -0.13730811 6
-0.38329303 -3.6751108 -0.21269691 6
-0.29087022 -3.2267833 -0.2047534 5
-0.21629205 -2.8634007 -0.19715355 5
-0.15931699 -2.5878344 -0.19287123 5
-0.086675629 -2.2392018 -0.18943438 5
-0.17372927 -1.8504969 -0.18911721 4
-0.18963607 -1.4069688 -0.1889118 3.4000001
-0.19285817 -1.0097787 -0.19473609 2
-0.22126234 -0.69137734 -0.1995126 0.2857143
-0.058978103 0.72762519 -0.20952787 0
-0.11185493 1.0253441 -0.2075983 1.2
-0.1852784 1.3911073 -0.20597242 2.8
-0.23196425 1.7513902 -0.2094118 3.8
-0.1935837 2.1719966 -0.2139288 4
-0.2749027 2.4839325 -0.22406244 4
-0.036305465 3.2370615 -0.23111916 5
-0.12279779 3.8603499 -0.22083567 5
-0.31481504 5.481461 -0.3100794 5
-0.18512976 -4.9810324 0.18548715 8
-0.23561892 -4.9979792 0.51075667 10
-0.30793875 5.5532703 0.54334027 9.5
-0.16286221 5.6212387 0.55608493 9.5
-0.15259211 -4.9493017 0.99845195 12.8
-0.31525499 -4.2946577 1.0182468 14
-0.26582342 6.2303147 1.012031 11.5
-0.22345303 -4.9617596 1.276715 14.6
-0.2761277 5.7999701 1.5148832 14
-0.1911432 6.1628351 1.331496 13
0.079673409 -4.8512673 -0.12136167 6
0.18916591 -4.789 -0.071752764 6.5
0.11863348 -3.3588831 -0.19050968 6
0.14758287 -2.975167 -0.18475586 5
0.17840286 -2.581197 -0.18271324 5
0.20890886 -2.1942451 -0.18154591 5
0.16492365 -1.7784764 -0.17401773 4.3333335
0.19932534 -1.3851049 -0.17711276 3.5999999
0.19877382 -0.96961331 -0.19493583 1.5
0.25321826 -0.64588958 -0.19393873 0.125
0.2882061 0.66710126 -0.19064113 0
0.22092593 0.98025131 -0.20182487 1.1111112
0.20639874 1.3689791 -0.19589403 2.6666667
0.26477745 1.8087912 -0.19568466 4
0.23692347 2.2063415 -0.20129201 4
0.27125189 2.5906568 -0.20731835 5
0.19571561 2.943435 -0.21668373 5
0.38742605 3.3841434 -0.21950528 5
0.098392792 -4.8390298 0.16712628 8
0.29892829 -4.7268901 0.18246953 8
0.28545216 5.7101135 0.12147058 7
0.059684362 -4.8474102 0.45333487 9.5
0.21845709 -4.7593489 0.4730781 9.666667
0.18851365 5.7996426 0.6156134 9.8000002
0.028959801 -4.8431005 1.068216 13.5
0.2457439 -4.7352815 1.0233036 13.333333
0.1826492 6.4516201 1.0321087 11.333333
0.048423301 -4.8091531 1.2038735 14
0.23160668 -4.7179437 1.2863325 15
0.039140966 5.9493995 1.532775 14
0.19388364 6.1586938 1.4711297 13.333333
0.12897654 6.4384193 1.3441551 13
0.55425805 -4.5970683 -0.10306633 6.3333335
0.58988172 -4.0519762 -0.18487193 6
0.53821659 -3.0905313 -0.17447267 6
0.51292402 -2.6234162 -0.16875613 5
0.63965738 -2.2114158 -0.16313991 5
0.61086911 -1.7799169 -0.1629874 4.5999999
0.56298602 -1.3567908 -0.17350107 3.6666667
0.57362056 -0.96358359 -0.18612559 2.25
0.60073131 -0.62792206 -0.18397056 1
0.60610056 -0.32478374 -0.17915882 0.25
0.66145438 0.29243955 -0.17626472 0.2
0.60911173 0.61984283 -0.1770816 0.81818181
0.6219874 0.97505838 -0.18315393 2.1538463
0.65670609 1.398299 -0.1796578 3.25
0.60781735 1.7388273 -0.18310688 4
0.65373319 2.092715 -0.18453111 4
0.71684676 2.5760672 -0.18789093 5
0.7733283 3.0028389 -0.19352463 5
0.40194702 5.7999592 -0.28838155 5
0.58031893 -4.5784988 0.18206504 8
0.57281673 -4.5681524 0.51237667 10
0.68717474 4.8676443 0.62866718 10
0.41628647 5.9366455 0.6703884 10
0.63736206 6.0245676 0.70002741 10
0.58053684 -4.5560174 1.0315466 13.375
0.39259309 5.95472 0.87081277 11
0.5480389 6.1229153 1.0236312 11.6
0.60365498 -4.5196524 1.256783 15
0.51951641 6.1212435 1.4726865 13.4
0.48205048 6.1303401 1.6504997 14
0.81929857 -4.4376717 -0.083313905 7
1.0982953 -4.3087993 -0.077497557 6.6666665
1.0416912 -3.6084113 -0.16689198 6
0.92349613 -2.9731081 -0.16133387 5.5
0.84763074 -2.5582087 -0.16238411 5
0.990399 -1.7700888 -0.13714385 5
1.0006379 -1.4406407 -0.16350785 4
1.0073367 -0.99670422 -0.16777834 3.4285715
0.89614958 -0.6530866 -0.17789298 2.3333333
0.88590938 0.33522555 -0.16204375 1.5
0.9819566 0.58610994 -0.16772074 2.25
0.98321033 0.96476489 -0.16765675 3.125
1.0107173 1.3481174 -0.16886431 3.8
1.0685823 1.8479966 -0.10448006 5
1.0236785 2.1329558 -0.10743893 5.3333335
1.0438284 2.5259967 -0.17480601 5
1.1507871 2.9324181 -0.17642893 5
0.81998926 3.3591619 -0.1964822 5
0.87832695 3.8054209 -0.19983734 5
0.98825145 4.6589241 -0.20046386 5.5
0.86130613 -4.4246821 0.19863129 8
1.0329911 -4.3360338 0.16391531 8
1.1343464 -1.6845691 0.25356272 10.4
1.1054354 -1.524823 0.27714682 11
1.1655724 -1.0074599 0.27142876 11.727273
0.96532685 2.2077284 0.35849002 11
0.89811361 4.8800454 0.21610796 8
0.83115625 -4.4326568 0.52738178 10
1.0590569 -4.3076262 0.50787604 10.333333
1.0884336 -1.7078006 0.44288629 13
1.1106721 -1.4927055 0.44268787 13.5
1.15508 -1.020083 0.44429374 15
0.91150916 4.6158962 0.64991045 10.666667
0.85258418 -4.420908 0.99646074 13
1.0090564 -4.3280277 1.0192181 13.5
1.1347123 5.4819126 1.113566 12.5
1.007228 5.7827563 1.1159692 12.333333
0.83614135 6.0383401 1.0004317 11.5
0.97341257 -4.3171 1.2152954 15
1.110708 5.5085726 1.448962 14
0.99425507 5.7463636 1.4930357 14
0.81734073 6.0484524 1.4270005 13.5
0.76424158 6.0528741 1.6508852 14
1.281672 -4.2013865 -0.015071426 7
1.5732083 -2.5399027 -0.15860394 5
1.2937658 -1.9708047 -0.11822732 5
1.3342534 -1.5257843 -0.10232694 5.5
1.2769846 -1.1071931 -0.089843228 5.5
1.3309226 0.68835205 -0.14955533 3.5
1.3600389 1.0023439 -0.14891106 4
1.4198382 1.4073179 -0.16096064 4
1.2708923 1.6435947 -0.048820615 5.5
1.3592014 3.7257752 -0.17828113 5
1.4901882 4.3216982 -0.089615643 6
1.3665767 -4.1605868 0.17347313 8
1.4433391 -1.7036765 0.25240657 10
1.2978923 -1.4094818 0.26542157 10.909091
1.3137022 -0.95992255 0.25044486 11.2
1.53905 -0.76029539 0.28666869 11.5
1.3716493 1.9107046 0.12715207 8
1.3168334 2.1566148 0.17280182 8.5
1.3886374 4.2766623 0.22633809 8
1.3917234 4.4224844 0.43320861 9
1.393693 -4.1304703 0.52203947 10.4
1.2334969 -1.6470604 0.46169478 13
1.2873589 -1.4173349 0.46899369 13.666667
1.3183506 -0.97658145 0.46165621 14.6
1.5282712 -0.77381039 0.4694463 14.5
1.421473 4.7789769 0.65593964 10.333333
1.38896 5.0033822 0.6950658 10.571428
1.2402089 5.2707491 0.80820292 11
1.3771635 -4.1033087 1.0452927 14
1.5575202 -3.9991221 1.016265 14
1.5269383 4.7851124 1.0695441 13
1.3688564 5.0117731 1.0867405 12.8
1.2477974 5.2714815 1.0775729 12.5
1.3923795 -4.0901308 1.2378639 15
1.5108178 4.7703543 1.3792144 14.5
1.3854866 4.9421411 1.4235727 14.666667
1.200011 5.32306 1.4438123 14.5
1.8797046 -3.8916304 0.010408179 7
1.9215261 -3.2755857 -0.16467845 6
1.7019699 -2.8144374 -0.15651587 6
1.7599877 1.0469843 -0.14574917 4.3333335
1.7206534 1.4041657 -0.15501101 4.5
1.6942284 1.7705499 -0.16053842 5
1.6302495 -4.0231357 0.14765921 8
1.8416467 -3.8788431 0.13756347 7.875
1.8143317 -0.61641288 0.2900463 10.9375
1.9635011 4.3561454 0.40290502 9
1.9358492 4.5803394 0.41444361 9
1.8102839 5.1063581 0.44298467 9
1.6307343 -4.0055799 0.51225662 10.5
1.8063385 -3.9169369 0.52933633 10.5
1.817984 -0.61499262 0.50886232 14.125
1.9631008 4.257751 0.57248491 10
1.7897266 4.5978837 0.72266883 10.833333
1.7377872 4.9144487 0.57230276 10
1.759652 -3.9004595 1.0620745 14
1.964462 4.2539077 1.1289579 13
1.8881769 4.530561 1.0595218 12.666667
1.7902983 5.0021162 1.0792826 12.5
1.7914193 -3.8764491 1.2211074 15
1.8576045 4.5659199 1.3428031 14.333333
1.7918273 5.0511026 1.4171197 14.2
2.0898058 -3.6385989 -0.1548502 6
2.0813048 1.0801575 -0.14748377 5
2.0929308 1.4086349 -0.15066312 5
2.1459956 1.8475246 -0.15842023 5
2.1182363 2.3362074 -0.17307976 5
2.3377151 2.6305342 -0.17549197 5
2.0794907 -3.73823 0.19613174 8.25
2.2171576 -3.5710473 0.13953608 7.75
2.1333487 -0.44666064 0.28102487 10.222222
2.3087704 -0.35512936 0.27748281 9.833333
2.1842415 3.8285813 0.36580199 9
2.2671545 4.021472 0.40563765 9
2.1881912 4.8134017 0.32305813 8
2.1098418 -3.7120357 0.51600379 10.5
2.2110188 -3.5749409 0.56570709 11
2.1089025 -0.4602195 0.59842086 14.25
2.3282135 -0.34974244 0.60379201 13.6
2.2784228 3.7626936 0.62886477 10.666667
2.2163374 4.2278252 0.68844771 10.875
2.0118959 4.5894227 0.68584222 10.5
2.1937518 4.9435415 0.48927993 9
2.0623803 -3.6507642 1.0736463 14.333333
2.2002237 -3.5389214 1.1044902 14.4
2.2195625 3.7903159 1.0450681 13
2.2006764 4.2161698 1.0411471 12.75
2.0127087 4.5894823 0.97037792 12
2.0171776 -3.7593279 1.2330781 15
2.2796855 -3.484076 1.2330667 15
2.243871 3.7124636 1.2766423 15
2.1537969 4.2527146 1.3319029 14.6
2.012697 4.5291376 1.3065321 14
2.449451 1.3125937 -0.15077049 5
2.4863312 1.7306956 -0.15325205 5
2.7941351 2.5217912 -0.16816564 5
2.4320898 3.7266011 -0.012265508 6.5
2.7331045 -3.4165118 0.11014473 7.5
2.6025012 -0.20246743 0.283241 9.4444447
2.7113833 3.4559062 0.38441384 9
2.5278039 3.7784121 0.34350404 9
2.4987874 -3.4794626 0.62571973 11
2.6061146 -0.20086633 0.62018603 13.222222
2.7181025 3.4319916 0.57612056 10.5
2.5285251 3.7322912 0.61053675 10.571428
2.5315075 -3.4262521 1.1475873 14.333333
2.6642351 -0.16306525 0.85177696 15
2.7166927 3.4243526 1.0381944 13.166667
2.5438282 3.7558603 1.0485896 12.888889
2.6276293 -3.4147723 1.2868415 15
2.6622648 3.5234458 1.2790728 15
2.5323398 3.7856476 1.3189144 15
3.0619564 1.698454 -0.16131529 5
2.9844718 2.1372292 -0.16223374 5
3.1484377 2.9200363 -0.070339493 6
2.9086862 3.4157796 -0.12957785 5.5
2.8255703 -3.3603578 0.1617035 7.5
2.8955705 -0.046389986 0.29471409 9.3999996
3.085875 0.052422523 0.31765768 9.5
3.1122806 2.6836836 0.32998103 8.5
2.997977 2.9732039 0.33547321 8.727273
2.8637121 3.4382589 0.25902951 8
2.8940918 -0.050056856 0.67298496 13
3.0839238 0.054127958 0.67127395 12.5
3.1324315 2.6337085 0.65828431 11
2.9569373 2.9734013 0.67792386 11
2.8068161 3.262954 0.68155968 11
2.8086269 -3.364337 1.2283921 15
2.9040284 -0.06262511 0.85459661 15
3.0631912 0.044398453 0.89056122 15
3.1291611 2.6304202 1.037104 13.5
2.9640501 2.9534144 1.0700264 13.875
2.8002613 3.2673802 1.1250648 14
2.81148 3.6779883 0.91762102 12
3.1229792 2.6332779 1.2844007 15
2.9936292 2.8916121 1.3296471 15
3.3653002 1.8914474 -0.15513398 5
3.5850205 2.0605505 0.025623288 6.5
3.3845661 2.5008283 -0.0022270388 6.5
3.3744557 0.19966108 0.30602962 9.1428576
3.5507512 1.8374829 0.31783584 9
3.3925133 2.1759996 0.27204573 8.5
3.2687609 2.4948866 0.23289694 8
3.405215 0.22239096 0.62660486 11.714286
3.5189412 1.8921709 0.63342798 10.75
3.3599777 2.1928236 0.63896829 11.125
3.2211199 2.4576237 0.62904716 11
3.3802245 0.21064654 0.92874205 14.5
3.5391569 1.8356577 1.0551428 14
3.365721 2.188494 1.0818622 13.857142
3.2296128 2.5160825 1.0960845 14
3.5576077 1.8098526 1.2870597 15
3.9573889 1.0857768 0.063723668 7
3.8738422 1.2548528 0.074892446 7
3.712038 0.38240153 0.30208308 9
3.9006486 0.47562635 0.2375541 8.5
3.9379063 1.0912265 0.3606118 9
3.7751415 1.4088739 0.29570761 8.5
3.6330886 1.6775628 0.3430762 9
3.6948764 0.36618847 0.73301834 12
3.825464 0.44086874 0.68947625 11.5
3.9316447 1.0840254 0.60613251 10.75
3.7817667 1.3810892 0.65603232 11
3.6322529 1.6752061 0.64813918 11
3.6444438 0.35504374 1.040845 14.5
3.8700314 0.46640211 1.0993818 14.333333
3.9342189 1.0748128 1.0955282 14
3.7712319 1.3964944 1.1206528 14.142858
3.6304686 1.6631694 1.0824517 14
3.5989757 1.7257199 1.2762268 15
4.0282888 0.96058261 0.055823889 7
4.0987253 0.68922681 0.28088742 8.666667
4.0312195 0.90443766 0.28503624 8.5
4.0948014 0.66386735 0.66938704 11
4.0291166 0.90266848 0.6781981 11
4.0935335 0.66265941 1.106217 14
4.0371957 0.87811774 1.0798953 14
4.0914555 0.76812714 1.3018808 15
4.0317268 0.91753662 1.2979034 15
