# .PCD v0.7 - Point Cloud Data file format
VERSION 0.7
FIELDS x y z intensity
SIZE 4 4 4 4
TYPE F F F F
COUNT 1 1 1 1
WIDTH 110
HEIGHT 1
VIEWPOINT 0 0 0 1 0 0 0
POINTS 110
DATA ascii
-5.9764872 2.6591339 0.068337396 7
-5.8176861 3.5951262 0.10954262 7
-5.8295984 2.9797969 0.29214314 8
-5.9399118 2.6417196 0.45497933 9
-5.8570075 2.8327031 0.56754506 10
-5.8107438 3.036165 0.94356257 11
-5.8399882 2.7716279 1.22393 12
-5.8079991 3.6163516 1.3107274 12
-5.8074937 2.9792457 1.7656614 15
-5.7996025 3.7714891 0.33426705 8
-5.8025856 3.1507292 0.46180588 9
-5.7043662 4.4718285 0.45792881 9
-5.7347198 4.2318707 0.6848582 10
-5.7741456 4.0118604 0.87996286 11
-5.7002015 4.3345814 1.1444232 12
-5.7964344 3.2107067 1.3252054 13
-5.7276063 4.2658319 1.4967676 13
-5.7480922 4.0612354 1.6644921 14
-5.7870317 3.6152768 1.9874424 15
-5.6154637 4.8819714 2.1763191 15
-5.6037383 5.1849236 0.86817592 10
-5.5897732 5.3774924 1.025362 11
-5.5236349 5.6266837 1.3565044 12
-5.5769401 5.4707737 1.696355 13
-5.5804291 5.3260918 1.9186255 14
-5.2167125 -0.86534959 1.4950854 15
-5.3379679 6.9961843 1.7118779 13
-4.9959416 5.2699256 2.2060437 15
-4.3560615 6.7593727 1.4218614 12
-4.1324 6.7039943 1.1317817 11
-4.1248527 6.7555737 1.5640658 13
-3.3111398 6.5657806 1.1832948 12
-3.1684678 6.536602 0.92571676 11
-3.1036983 6.5868011 1.5118542 13
-3.1793358 6.5582666 1.7391925 14
-2.387532 6.506207 0.8513059 11
-1.9437598 6.4518104 2.0406585 15
-1.5476336 -0.76848638 0.2358261 11
-1.5042905 -0.77550006 0.46960199 15
-1.3085605 -0.81626433 0.24176636 11
-1.3494488 -0.79494101 0.34009463 13
-1.0469019 5.6685524 0.50229943 10
-1.0342947 5.6767292 0.93538046 12
-1.0246953 5.6927252 1.3704172 14
-0.96053523 -0.83676535 0.23974589 12
-0.95342445 5.6622548 0.83076429 11
-1.0019441 5.6818032 1.1857415 13
-0.51986694 5.6041131 0.46548042 9
-0.21717404 5.5464363 0.89619547 12
-0.23709698 5.8869858 1.2707338 13
-0.35086143 5.8725905 1.4222804 14
-0.011397057 0.89798468 -0.21991339 0
-0.070257783 1.3202019 0.3616865 15
-0.10175718 5.6206956 0.5574705 10
0.18586633 0.6957472 -0.22013269 0
0.1184792 0.92350352 -0.22259745 0
-0.0062629408 5.5805774 0.86573416 11
0.12019736 5.7375364 1.3357297 14
0.32912457 0.70195472 -0.22145261 0
0.37099788 0.9434464 -0.2238349 1
0.2011316 1.2262081 -0.22472695 2
0.45416373 0.57055575 -0.21374685 0
0.51643425 -1.2535043 -0.17194937 3
0.49119645 -0.9829396 -0.18567561 2
0.43038613 -1.176847 0.068621412 8.666667
0.57073593 -1.0490831 0.22780107 12
0.69710016 -1.317804 -0.14569511 4
0.79623717 -1.0540355 -0.17543516 3
0.69012481 -0.7887941 -0.17158742 2
0.62128294 -1.2870674 0.065825641 8
0.85037357 -1.2968316 -0.045756035 6
0.90571535 -1.0597763 0.20281093 11
1.0474437 -1.290832 -0.023054313 7
1.1277783 -1.1185659 0.191333 11
1.1581358 -1.1167134 0.44332308 15
1.3625228 -1.3361307 -0.16930099 5
1.2281053 -1.3207469 0.20956624 10
1.3961339 -1.1434214 0.41655406 14
1.3645164 3.9727912 0.59697437 11
1.5214192 3.9342332 0.49235237 10
1.6296426 -0.23549214 -0.15549804 4
1.8238305 -1.2048937 0.14555988 9
1.8319191 -1.1980194 0.2138631 10
1.8290911 -1.1934628 0.33881408 11.5
1.9726539 -0.15664457 0.30810699 12
1.8173438 -1.20138 0.50860751 14
1.8331751 -1.129757 0.45779896 13
1.8600348 -0.91283047 0.56351244 15
1.9303712 -0.48519927 0.50119483 14
1.9659992 -0.25699601 0.45515221 14
1.9923183 3.9858751 0.46963355 10
1.8764777 -1.1843386 0.61834717 15
1.9366883 5.4971175 1.4508836 14
2.0748219 -0.78599411 -0.10338144 6
2.1440978 -0.5752005 -0.018615764 7
2.1445487 -0.58937216 0.10268873 8
2.0476437 2.4499242 0.30228889 9.5
2.1630604 3.3264265 0.36861506 10
2.0524352 2.4621327 0.51830101 11.5
2.0756569 3.8390517 0.56862175 11
2.0545413 2.4957008 0.62408257 13
2.0549042 2.4432952 0.82877731 14.5
2.1909199 3.3137057 0.95829636 14
2.0045316 5.4810505 1.3259506 13
2.3363204 2.3246884 0.30786663 10
2.2792819 1.8997092 0.58200753 13
2.3334477 2.3692737 0.43915996 11
2.2279325 1.5056874 0.66648215 14
2.3467116 2.3465412 0.60259277 12
2.3491557 2.311502 0.88039231 14.5
