# .PCD v0.7 - Point Cloud Data file format
VERSION 0.7
FIELDS x y z intensity
SIZE 4 4 4 4
TYPE F F F F
COUNT 1 1 1 1
WIDTH 79
HEIGHT 1
VIEWPOINT 0 0 0 1 0 0 0
POINTS 79
DATA ascii
0.23878329 -0.95335788 -0.19819573 165.5
0.36542916 -0.90098453 -0.19059402 170
0.25320917 -0.84657699 -0.19114204 170.25
0.36758953 -0.83900124 -0.19307046 175
0.47637165 -0.837497 -0.18920518 172
0.58142006 -0.80690694 -0.18001325 172
0.26943403 -0.74851644 -0.19385809 182.8
0.36916766 -0.74044633 -0.19128498 187.5
0.46343541 -0.73123038 -0.18529043 186
0.56458968 -0.73705971 -0.18160558 180.5
0.65904284 -0.70475519 -0.17831421 177
0.28408834 -0.63580966 -0.18470661 188.60001
0.36887088 -0.62894773 -0.18286416 189.16667
0.45376667 -0.64855868 -0.18350568 188.66667
0.54817301 -0.66444373 -0.18665862 188.25
0.63995779 -0.65257591 -0.18318881 186.2
0.72500521 -0.61679691 -0.18469404 187.75
0.29561737 -0.56263524 -0.18502843 186.2
0.34784448 -0.52822882 -0.1816636 184.77777
0.44249585 -0.55602348 -0.18018182 186.875
0.5530768 -0.54734898 -0.17979321 188.07692
0.6551159 -0.53844273 -0.17620391 190
0.77421123 -0.5548209 -0.18685447 190.33333
0.34787887 -0.45922086 -0.19324078 179.84616
0.46990797 -0.45760319 -0.18740368 181.73685
0.55355114 -0.43616578 -0.18116872 182.89999
0.64190644 -0.43831465 -0.17627898 185.66667
0.73929805 -0.44752359 -0.1733941 189.5
0.85959589 -0.45816404 -0.18268484 187.33333
0.35510883 -0.37273189 -0.19511308 174.07692
0.44783431 -0.34889212 -0.19247602 174.94737
0.54809564 -0.34237185 -0.18978859 177.4762
0.65315926 -0.3411442 -0.1807905 181.8
0.75701588 -0.3525331 -0.17119713 186.81818
0.84587049 -0.35501459 -0.17340462 186.25
0.9230364 -0.33535287 -0.18689883 187.5
0.5628081 -0.25396952 -0.19186427 174.18518
0.64794022 -0.24899 -0.1882457 177.89473
0.73431671 -0.24643002 -0.17580923 182.60001
0.84904587 -0.24518698 -0.17521703 187.10001
0.94288915 -0.25656107 -0.18566573 187
0.64407575 -0.15368478 -0.18990567 175.0303
0.75532544 -0.14699005 -0.18334113 180.91667
0.84313101 -0.15646054 -0.16943116 184.71428
0.93399066 -0.14012896 -0.17303316 189.16667
0.66287106 -0.0549688 -0.18841869 174.3793
0.75804871 -0.047978498 -0.18447113 180.125
0.84469366 -0.057051565 -0.16853201 185.30769
0.93386644 -0.048722014 -0.17438106 189.60001
-0.31410742 0.041526847 -0.19366048 150
-0.24844411 0.053810481 -0.19187623 151.61539
-0.17417629 0.047817834 -0.19240212 153.09091
0.27074882 0.1002996 -0.17276426 122
-0.38239652 0.19717601 -0.11615725 184
-0.25591043 0.171317 -0.19465484 145.8
-0.1729728 0.14896788 -0.19274814 158.33333
0.071179658 0.16316006 -0.13034397 157
0.16997676 0.14224638 -0.11645348 131.89999
0.24689008 0.12896287 -0.1450109 123.15151
-0.39293894 0.20412882 -0.15712917 178.625
-0.23161255 0.24856906 -0.19259176 147.75
-0.1508994 0.2161956 -0.193937 155.375
0.040791418 0.21372305 -0.16622099 166.5
0.1582917 0.20235291 -0.153513 143
-0.33003742 0.39732611 -0.18271561 137
-0.2382476 0.33913571 -0.1463874 128
-0.055111825 0.34185529 -0.18952727 149.88889
-0.38345078 0.43016407 -0.19847098 142
-0.057246327 0.45870793 -0.1987156 152.16667
0.067983828 0.44877303 -0.19914617 171
0.1020354 0.46042293 -0.19931175 175
-0.027011279 0.50853795 -0.19623601 148.5
-0.38722467 0.19656578 -0.097276196 183
0.083472528 0.14688742 -0.080702715 129.8
0.14281727 0.15134798 -0.087193191 129.38889
0.037962984 0.22679073 -0.078497633 127
-0.00930556 0.31835914 -0.014716105 183
0.10939523 0.18483528 0.0523609 123
0.07850381 0.22191705 0.027406193 139
