# .PCD v0.7 - Point Cloud Data file format
VERSION 0.7
FIELDS x y z intensity
SIZE 4 4 4 4
TYPE F F F F
COUNT 1 1 1 1
WIDTH 547
HEIGHT 1
VIEWPOINT 0 0 0 1 0 0 0
POINTS 547
DATA ascii
-11.016982 14.596459 2.3622427 13
-10.669833 14.852364 2.4174871 13
-10.463741 12.823701 2.0940812 13
-10.106244 12.982597 2.1216683 13
-10.492403 14.939683 2.5047486 13
-10.124402 15.164809 2.5445676 13
-10.3775 15.147233 2.9271483 13
-9.9956856 8.2356243 1.626068 13
-9.5330248 13.273785 1.1176528 11
-9.488924 15.604912 2.5279047 13
-9.0084 6.6620798 1.3552361 12.5
-9.1693792 13.495071 1.5412475 11.333333
-8.8894558 13.722542 1.5234182 11
-9.1373463 9.2243309 1.9523287 13
-8.9222174 13.535962 1.7962945 12
-9.2040205 10.27054 2.6607316 14
-8.7444391 8.4421854 1.8223736 13
-8.5846519 13.795251 1.4888453 11.5
-8.7510977 16.017956 2.6085396 13
-8.0020933 7.7818365 -0.058949176 9
-8.2468739 7.5037374 0.67716849 11
-7.9867334 16.934767 0.42198652 9
-8.1861839 7.3224773 0.99625808 12
-8.1660519 8.2249699 1.0764483 12
-8.1834135 7.2227588 1.6213641 13
-8.4012756 7.7569251 1.7086767 13
-8.2714491 13.933642 1.5246396 11.666667
-8.3720379 16.199202 2.6453214 13
-7.8374004 7.9127717 -0.22813898 8
-7.9145164 7.5537944 0.85293519 11
-7.9359145 7.6980371 0.74819773 11
-7.7167158 5.3709164 1.2117183 12.5
-7.9004831 7.6006026 1.0245891 12
-7.751863 16.913963 1.0564725 10
-7.7774868 14.124967 1.5952364 12
-7.934227 16.872562 1.461357 11
-8.0681868 12.602364 2.0931664 13
-7.917418 16.875896 1.9054698 12
-7.8853436 16.92137 1.7890606 11
-7.9910383 16.37936 2.6831324 13
-7.1523404 16.107542 -0.33193001 8
-7.3353291 17.127693 0.38546145 9
-7.5066171 4.8524504 1.1463772 13
-7.4530129 4.918303 1.0565881 12
-7.2369304 17.319773 0.70504773 10
-7.6631074 15.493148 1.6649418 11
-7.5463095 17.042904 1.8727223 11.5
-7.4067698 11.168774 2.8421619 15
-6.8228521 5.8350363 0.037745971 9
-6.9357228 16.27413 -0.42868283 8
-6.9737315 5.6208129 0.29071906 10
-7.0908246 5.6690197 0.56226397 11
-6.9733243 11.000377 0.366644 10
-6.8747783 5.2522163 0.83356136 12
-6.9876242 5.5078597 0.7904042 11.666667
-7.0271554 5.7414408 0.75561142 11.5
-6.9250131 17.48724 0.40292099 9
-7.0635896 5.5674691 1.3409721 13
-6.8234849 17.479145 0.75208467 10
-7.1252785 5.9758387 1.567215 13.5
-7.1952701 3.9013762 1.8779925 15
-7.103076 5.9426794 1.9859568 15
-7.0763893 9.8381739 2.012897 14
-7.0964508 14.445432 1.6657075 12
-7.1055222 17.231325 1.9389099 11.666667
-7.1372261 11.348362 2.8843586 15
-7.2293553 16.750227 2.7646499 13
-6.6038327 5.7744622 -0.22174515 8
-6.6882291 16.376162 -0.50892913 8
-6.8008685 4.5176797 0.476538 11
-6.7947178 5.8182049 0.23855762 10
-6.5892048 6.183454 0.2553834 10
-6.8267417 5.0549326 0.72229403 11
-6.7759361 5.8719678 0.79309165 11.666667
-6.8388715 4.4249339 1.4355766 14
-6.7729826 8.3352613 2.2059929 15
-6.6328039 11.845391 2.3429506 14
-6.7014542 17.39525 1.9753845 11.666667
-6.8159118 11.446087 2.9106772 15
-6.8321972 16.892637 2.7982323 13
-6.1681695 16.591436 -0.33071649 8
-6.2823009 16.60914 0.10079146 9
-6.2321439 17.699476 0.5554598 9
-6.0408735 16.606054 0.7693283 10
-6.5101209 8.4178133 2.2205229 15
-6.2435274 11.863855 2.2153387 13.5
-6.3275666 17.525446 1.9727108 11.5
-6.3787432 11.653503 2.965682 15
-6.4435015 17.069363 2.841239 13
-5.6910834 5.3168173 -0.29097265 8
-5.820797 3.8686006 0.23284002 10
-5.6542988 5.4397693 -0.093461066 9
-5.9105616 16.665234 -0.39715683 8
-5.6857715 5.2703967 0.34480324 10
-5.6061678 6.9676323 0.22400472 10
-5.7212887 16.710274 0.50354946 9
-5.8960938 12.001692 2.2425654 13.5
-5.7448783 16.93774 2.0825219 12
-5.2239966 6.7598624 -0.18495499 8
-5.3145466 7.2599287 -0.2025239 8
-5.3190341 10.661679 -0.40297213 8
-5.2267132 6.6350131 0.14215223 9
-5.5647125 6.9712477 0.21772513 10
-5.3677521 7.3561425 0.024584197 9
-5.1572652 17.05512 -0.29141468 8
-5.31845 3.741765 0.52294546 11.5
-5.4198303 7.1228442 0.23206124 10
-5.2936964 8.48909 0.28923306 10
-5.3465738 3.5706539 0.80292827 13
-5.3429389 3.5891783 1.39431 15
-5.5347843 16.745447 1.7722045 11
-5.7086334 12.063817 2.3790696 14
-5.5312481 12.167162 2.2816982 13.5
-5.5059066 16.836891 2.0339484 12
-5.1598954 5.0777016 -0.24032637 8
-4.8320236 5.4755125 -0.19036546 8
-4.9554806 5.8863978 -0.19829734 8
-4.9428358 6.0952716 -0.16387664 8
-4.8947558 10.525412 -0.30076194 8
-4.9121947 3.8939118 0.26786065 10
-5.0111499 5.1417456 0.14850405 9.5
-5.0209556 5.3844705 -0.066506773 9
-4.8163586 5.752142 0.21988766 10
-5.1210127 6.8263397 0.16052034 9
-4.7871084 14.243358 -0.093956262 8
-4.8709292 3.6150489 0.77461708 13
-5.1134233 3.8912008 0.46879554 11
-4.9179106 5.1383452 0.61121088 11.333333
-5.1729875 7.3105869 0.52290899 11
-4.9198208 10.351433 0.29985076 9.5
-5.142756 17.093752 0.10878631 9
-5.2259245 3.6666846 0.91067058 13.5
-5.1346478 6.0680003 0.82470745 12
-4.9632511 3.840353 1.2379674 15
-5.1401997 12.280435 2.4170156 14
-5.2294393 18.048494 2.0478296 12
-5.1277275 11.598672 2.98264 15
-4.6048026 4.1487117 0.11456393 9.333333
-4.7335024 5.1782575 0.160414 9.5
-4.7730756 5.8051052 0.09220922 9
-4.3973083 13.388709 -0.20908864 8
-4.5644436 4.1540527 0.60095954 12
-4.7210255 5.2324033 0.68042523 12
-4.6722236 5.3299036 0.41105646 11
-4.7173719 9.6159515 0.32687038 10
-4.6952596 10.480415 0.34617215 9.5
-4.8198686 5.5506363 0.74255896 12
-4.5477538 6.0255942 0.75699663 12
-4.6272917 14.194555 0.53773272 10
-4.5825148 4.0097785 1.254251 15
-4.8587422 13.399987 1.9861403 13
-4.5027156 14.368904 1.8445827 12
-4.8718848 12.429148 2.4444764 14
-4.5852981 12.541267 2.4659221 14
-4.7445164 11.477248 2.9670448 15
-4.1136398 6.6145616 -0.15733321 8.5
-4.1154332 6.493156 0.027366962 9
-4.2751408 13.426555 0.047655698 9
-4.1997938 4.2175817 0.68880051 12
-4.2513442 5.1998663 0.42713389 11
-4.1896553 5.3752193 0.44355199 11
-4.2109141 5.6665936 0.46279708 11
-4.1161165 3.9841499 0.93265057 14
-4.1133323 4.1833534 0.91875714 13
-4.1150889 5.8739738 0.76743382 12
-4.2714763 4.1668754 1.2754065 15
-4.4642644 10.081348 1.7794603 13
-4.3201933 12.710662 2.4979491 14
-4.4195333 11.466022 2.9763665 15
-3.7898595 5.5000796 -0.20326336 8
-3.8304396 6.6998739 -0.19011873 8
-3.8393209 4.3958254 0.12531981 9.5
-3.7665315 6.6403966 0.15047285 9.3999996
-3.7808566 13.448042 -0.05988941 8.5
-3.7321663 4.5202513 0.73352879 12.5
-3.9127126 6.7828002 0.56142086 11
-3.6624699 7.0852785 0.59773701 11
-3.8267243 4.2359066 0.94685024 13.6
-3.7833514 6.9112029 0.84531707 12
-4.050684 11.519368 2.0276425 13
-3.3617387 4.6373758 0.24968791 10
-3.1926022 6.3572726 0.016488064 9
-3.5487368 6.8201861 0.30371237 10
-3.5253775 4.5097008 0.73420733 12.333333
-3.5302808 4.4011621 1.0144714 14
-3.3743725 4.5378938 0.94326371 14
-3.5544295 7.0135436 0.95198309 12
-3.2977386 8.4989882 1.5517138 13
-3.4833803 11.127128 1.9846073 13
-3.0856261 4.7045879 -0.04239849 8.5
-3.1157558 5.939487 -0.085492581 8
-3.0437415 4.7455339 0.25926247 10
-3.1588485 5.9358764 0.016193075 9
-3.0838151 6.0329237 0.26004067 10
-3.1231785 13.742792 -0.036199287 8
-3.0299037 4.7505255 0.77907026 12.5
-3.0614181 4.7223577 1.0477638 14
-3.2259068 8.4636431 1.6394628 14
-3.1287441 9.9388962 2.0227683 14
-2.589361 9.6473904 0.15440263 9
-2.8012748 4.8647075 0.73893726 13
-2.6653204 9.5149975 0.53382385 10
-2.5198684 9.6626587 0.48754478 10
-2.7607183 9.6476526 1.0188479 11
-2.7590845 9.6817083 1.5686929 13
-2.8056617 9.6908712 1.9838939 14
-2.0674796 1.0411043 0.47623524 15
-2.1061335 8.6314516 0.13344972 9
-2.1105959 8.7439613 0.51394546 10
-2.1968298 8.6013212 0.87178749 11.5
-2.1800616 6.6334691 1.3726232 14
-2.2075412 8.492321 1.427956 13
-2.4452469 9.7350817 1.3465464 12
-2.4198849 8.7896748 1.6464546 14
-1.7443242 0.74447685 0.19323671 12
-1.8642893 1.0079448 0.15390156 11.142858
-1.9653246 1.2601883 0.17930721 11.5
-1.7782708 0.76869637 0.37649563 14.5
-1.8808806 0.98186779 0.37818149 14.2
-1.9858133 1.2779566 0.41412655 14
-1.8021448 7.6046982 0.60726732 11
-1.9294174 8.7107067 0.53146422 10
-1.8771061 6.801815 1.2389274 13
-1.9863715 8.6244984 1.0661945 12
-2.0288711 6.703156 1.3945127 14
-1.7410512 6.903686 1.450617 14
-1.9045477 8.6611404 1.2767097 12.5
-1.834623 7.6209168 1.6310987 14
-1.2247214 -0.402147 0.24799456 14
-1.251458 -0.33318844 0.25406989 14
-1.3875338 6.8020859 0.16021092 9
-1.2264063 6.8317151 0.18132927 9
-1.3159648 6.8105392 0.61027092 10.5
-1.2886102 6.8419943 0.60675365 11
-1.36285 6.7988272 0.98725432 12.5
-1.4118792 6.8682547 1.1113231 12.666667
-1.5828304 7.6927109 0.98559672 12
-1.4656408 6.816144 1.4076756 14
-0.83733338 -1.2367806 0.2170056 11.333333
-0.95664954 -0.91538036 0.26685634 13.25
-1.1054127 -0.61674273 0.2648305 13.875
-0.86910188 -1.0849749 0.40503898 15
-1.0227196 6.9279485 0.31630778 9.333333
-1.0059732 6.9555478 0.58837569 10.6
-1.1748596 6.8356447 1.0965271 13
-1.0012568 6.9210024 1.0677872 12.666667
-1.0865859 7.0068579 1.4760833 14
-0.4079859 0.77154207 -0.22575033 2
-0.56394833 -1.720602 0.27187794 10.875
-0.66660112 -1.4028459 0.30320075 12.3
-0.760346 -1.0738311 0.32410049 14
-0.54044724 -1.7326638 0.44235113 13.333333
-0.66044515 -1.4014604 0.42301965 14.5
-0.82617116 -1.1666296 0.40737635 15
-0.68157899 7.1688156 0.25783908 9
-0.47281355 7.2709713 0.28471097 9
-0.62786049 7.1769061 0.58700973 10.5
-0.42954114 7.2638035 0.58575481 10
-0.66867948 7.1089725 1.0840762 12.4
-0.44961864 7.2445183 0.95791352 12
-0.766316 7.2242026 1.4671715 14
-0.58182448 7.3034329 1.4120903 14
-0.1847783 0.64255965 -0.20994709 0.33333334
-0.18960899 0.96758717 -0.21709713 2.1111112
-0.18643141 1.3662614 -0.22349659 3.6666667
-0.10602427 1.8209063 -0.23473278 4.5
-0.16564943 2.0386603 -0.24303211 5
-0.23776972 -1.7115364 0.32522666 11.533334
-0.039428137 -1.5846875 0.24351601 10.5
-0.33027658 -1.7360163 0.46319446 14
-0.18093523 7.3938789 0.31324306 9
-0.22303034 7.3722992 0.67243463 10.714286
-0.24348606 7.3302102 1.1546874 12.5
-0.20347373 7.4905744 1.545835 14
0.29369953 -1.6071726 -0.092119172 4
0.25508183 -1.4129287 -0.16916592 2.4000001
0.27133286 -1.0012383 -0.1807562 0.75
0.242954 -0.73829401 -0.18677402 0
0.2494501 0.68651879 -0.20586146 0.2
0.24400853 0.96599114 -0.20975599 1.7
0.19980529 1.3547045 -0.21238481 3.5999999
0.28102973 1.8099577 -0.22269821 4.3333335
0.31326079 2.1508975 -0.2331503 5
0.23860987 2.5497236 -0.24773443 5
0.41440481 2.9379296 -0.25548503 5
0.41385457 3.1952355 -0.25776577 6
0.41758829 3.6153502 -0.27329946 6
0.079990104 -1.6150362 0.34675691 12
0.18986964 -1.4933684 0.31245652 11.692307
-0.020992521 -1.6041726 0.47268143 14
0.21405721 -1.5033977 0.48023516 14.5
0.12932418 7.5306888 0.34789172 9
0.36822081 7.6492743 0.36302561 9
0.17761193 7.5571465 0.65625316 10.666667
0.10142787 7.4772949 1.1763018 12.5
0.031976074 7.6045709 1.4722468 14
0.18182622 7.6847544 1.6020042 14
0.58977103 -1.4345627 -0.091902964 3.5454545
0.60220468 -1.0056317 -0.1679471 1.25
0.60923231 -0.64343405 -0.16958475 0.33333334
0.69499779 -0.28266767 -0.16245955 0
0.56146961 0.62021339 -0.20034966 0.40000001
0.63206935 1.0307333 -0.20104176 2.2727273
0.64896494 1.2983516 -0.17996326 3.8
0.65565652 1.7976669 -0.21293853 4
0.70467007 2.1436312 -0.22026603 5
0.754807 2.4983423 -0.2274847 5
0.56036568 -1.3677154 0.33606955 11.909091
0.77596807 -1.1742985 0.28279635 11
0.62386602 1.0898875 0.34169084 14.6
0.50388092 -1.370937 0.49431604 14.75
0.5546096 7.7364926 0.39200154 9
0.61331975 7.7628741 0.73358124 10.6
0.62644756 7.7175479 1.1619684 12.25
0.3525593 7.5927076 1.3696656 13
0.54209316 7.7835298 1.5152175 13.6
0.71552205 7.9288945 1.7713935 14
0.98683554 -1.3151788 -0.034332108 4.5
1.0133712 -0.98255539 -0.14949456 2
1.0325189 -0.63100368 -0.16176678 1.2
1.0150496 -0.2401648 -0.16928625 0.5
1.0129774 2.140717 -0.210705 5
1.1420486 2.5990906 -0.21442214 5
0.85963929 3.2172973 -0.25015327 5
0.94122982 -1.2934378 0.26399577 9.7857141
1.0041413 -1.1174866 0.36309662 12
0.97774357 1.0507234 0.33975548 13.2
0.83769053 1.244095 0.3332347 13
0.80292523 -1.2078372 0.51279306 15
0.98740655 -1.1186726 0.53291142 15
1.041752 6.5727534 0.3506285 9
0.92676169 7.8147616 0.43000799 9
0.94889307 7.8632231 0.72899967 10.4
1.0620703 8.0486021 0.79677206 11
0.95212233 7.8543363 1.1434966 12
1.0138458 7.8795261 1.4758394 13
1.0240116 8.0905352 1.6877272 14
1.3473206 -1.0717056 -0.065502584 3.8
1.4078697 -0.60324258 -0.14922519 2.25
1.391098 -0.24201348 -0.16147524 1.75
1.2521362 2.9870236 -0.21965922 5
1.3654157 3.3784096 -0.23038399 6
1.5414801 7.8600922 -0.40858272 6
1.3676041 -1.0025792 0.32971162 10.56
1.2531611 1.1631913 0.30788869 11.5
1.3692991 7.7377043 -0.017396072 8
1.2743909 -1.1915716 0.54851204 14
1.3751004 -0.97527248 0.56005174 14.285714
1.4618731 5.6992097 0.3653906 9
1.3266025 8.070509 0.47932333 9
1.2553859 8.0149536 0.79537565 10.5
1.4295495 8.1540861 0.80939746 10.5
1.2193258 7.9699726 1.2161938 12.5
1.5412902 8.1126585 1.2508597 12
1.3134297 8.005991 1.5238944 13
1.3469963 8.1711388 1.59743 13.666667
1.3421621 8.2534113 1.864105 14
1.7262764 -0.94281876 -0.039384879 4.2857141
1.7852716 -0.64467019 -0.13115148 3
1.6741041 -0.40970659 -0.14274813 3
1.6798 -0.84951818 0.33073404 10
1.8107326 -0.75130516 0.40585935 11
1.848195 4.8710237 0.29349646 9
1.8679787 5.7599468 0.16410926 8
1.6101129 -0.83762044 0.6243071 14.5
1.8209223 -0.66955286 0.64956683 14.333333
1.956082 4.7388234 0.37623966 9
1.8344083 4.9304137 0.39845777 9.5
1.7471548 5.2457533 0.42962095 10
1.7966157 8.2680321 0.50352931 9
1.7136618 8.2138338 0.77535152 10.333333
1.7634951 8.2086954 1.1518508 11.333333
1.7473726 8.2747841 1.6028078 13.333333
1.8708482 8.4988976 1.7965628 14
1.7115206 8.4263496 1.8443196 14
2.1461444 -0.688712 -0.021310331 4.5
2.247251 -0.34946796 -0.12880808 3.5
2.1492264 -0.64391565 0.34116545 9.5
2.1439462 -0.57751757 0.69553071 13.769231
2.2519619 -0.29419631 0.82210058 15
2.0559764 4.5146894 0.39447182 9.5
2.1583805 6.6089649 0.29035854 9
2.195111 8.4814119 0.57332516 9
2.0896392 8.3768415 0.81812215 10
2.2073894 8.4848375 0.83722788 10.333333
2.1098802 8.3549223 1.242385 11.666667
2.3609543 8.4674931 1.1303986 11
2.081444 8.3410215 1.5980802 13
2.1742532 8.6478243 1.9505328 14
2.6353068 -0.42783159 0.019078718 5
2.6331391 7.8280354 -0.30267921 6
2.5660508 -0.43427458 0.38306388 9.4285717
2.6402836 -0.23372966 0.39457291 9.6000004
2.4929936 7.906352 0.096036889 8
2.4930251 -0.43405443 0.7221415 13.2
2.6120396 -0.23514253 0.75579864 13.307693
2.7031856 0.11184923 0.79232353 13.6
2.791121 8.208333 0.5339855 9
2.6072803 8.5332489 0.56850809 9
2.5488064 8.5514507 0.80431753 10.25
2.5995579 8.5540104 1.2842271 11.666667
2.5608351 8.5466728 1.6730382 12.666667
2.4251893 8.7114677 1.9539661 14
2.80317 -0.20322546 0.45034784 9.5
3.1624875 0.12912594 0.42813912 9.666667
3.1569617 7.0170035 0.2810159 8
2.8142204 -0.20453675 0.77650946 12.8
2.853462 0.13940775 0.94763392 14.5
3.1724036 7.0838623 0.54843646 9
3.0737133 7.2859225 0.60180414 9.5
2.9068522 7.7863421 0.63803691 10
2.7900989 0.3069413 0.99466538 15
3.1278095 6.9558697 1.0074999 11
3.045146 7.3564734 0.93176168 10.5
2.854634 7.7253904 1.0037723 11
3.064923 7.4817214 1.2686944 12
2.8247879 8.5338869 1.1504866 11
3.0677707 7.0727506 1.7406002 14
2.9446058 7.4310751 1.746105 13.75
2.8942528 7.756618 1.755188 13.5
2.8701053 8.2024708 1.7214193 13
2.7810209 8.5148029 1.5674975 12
3.2165346 -0.018778581 0.45777118 9
3.2903819 0.15466298 0.37518951 8.5555553
3.3606887 0.73472041 0.3344107 8.5
3.3875735 1.0284919 0.36547342 8.666667
3.457962 1.2335551 0.36342162 8.5
3.5446835 6.2246761 0.2720387 8
3.3075261 0.23101485 0.77277988 11.923077
3.5166731 0.42986664 0.64054918 10.5
3.5544798 6.2353277 0.68267316 10
3.3003314 6.5936699 0.58665067 9.5
3.2596693 6.8499823 0.55102342 9
3.3150036 0.31461498 1.0461113 14
3.3267353 0.66096658 1.1477197 15
3.5292203 0.852256 1.2805346 15
3.5218949 6.3618798 0.90149736 10.5
3.3508356 6.6379313 0.92904669 10.6
3.2326472 7.0780439 0.96906006 10.666667
3.5176637 6.4132881 1.382084 12
3.4645746 6.4828415 1.3772445 12.5
3.2698567 7.0008183 1.3632023 12.333333
3.4652555 6.2568007 1.6457698 14
3.2950599 6.7438293 1.6233753 13.5
3.2105188 7.0267129 1.6507107 13.333333
3.7337282 0.62472206 0.41817057 8.5714283
3.6391625 1.0506101 0.49852544 9.5
3.9898658 3.7598567 0.23575537 8
3.7330589 4.2578335 0.25135717 8
3.8222325 0.55219805 0.7941674 11.142858
3.6037207 1.1439986 0.68875295 11
3.5819757 1.2721844 0.57208747 10
3.910943 3.8841965 0.66621423 9.833333
3.8137033 4.1029162 0.68326026 10
3.9135854 5.5271378 0.80624849 10
3.7863386 5.7767467 0.76491094 10
3.6600199 6.0760107 0.63431627 10
3.7971671 0.75271714 1.1274837 13.5
3.6895106 1.1065782 1.2431113 15
3.8983111 3.9029169 0.99498928 11.333333
3.8205326 4.1421552 1.0044754 11.666667
3.9361136 5.545577 1.0529238 11.5
3.7864377 5.8357296 0.95259488 11
3.642004 6.1304889 0.94381869 10.75
3.8681645 3.9635909 1.3638141 13.5
3.7481284 4.2446055 1.3758138 13.5
3.9045999 5.4579849 1.5131501 13.333333
3.7918096 5.7993851 1.4685367 12.8
3.6176713 6.2347069 1.4911157 12.666667
3.8358462 3.8176317 1.7414199 15
3.7109456 5.7920275 1.6378318 14
4.0656147 0.37590051 0.53643483 9
4.032392 0.47821864 0.38568944 8
4.3415213 0.84165114 0.57093155 9
4.3282614 2.9697745 0.29527768 7.5999999
4.1606913 3.3504891 0.36592531 8
4.0644674 0.37648594 0.91139126 12
4.0739913 0.67362273 0.81700695 11
4.1416135 0.90806311 0.92252672 11.5
4.1600351 3.4061937 0.6555773 9.666667
4.0340824 3.6960928 0.65892559 9.666667
4.1676087 4.9622841 0.76642054 10
4.044775 5.2937632 0.77194679 10
4.0458245 0.60826069 1.1710665 13.5
4.1969948 0.99761415 1.2610836 13.666667
4.1679988 3.445291 0.93738997 11
4.0702367 3.7429159 1.1282899 12
4.1640158 4.9874563 1.0965554 11.5
4.0171909 5.3736634 0.98278451 11.333333
4.1349697 1.4432267 1.4441984 15
4.1494246 3.4249432 1.5812297 14.4
4.1943879 3.8642359 1.437217 13.6
4.1066618 5.0804462 1.4581183 13
3.9849944 5.3767176 1.4748961 13
3.975739 3.5850236 1.7180879 15
3.917136 3.7110889 1.7332605 15
4.1316204 4.7666249 1.9906908 15
4.6935787 2.1672897 0.16411516 7
4.5570297 2.4459436 0.17996107 7
4.7609124 1.9487611 0.29699558 8
4.6627674 2.2022882 0.40911928 8.5
4.5050182 2.5853169 0.37676114 8.1999998
4.4285684 2.9297616 0.41847271 8.333333
4.418148 3.2914617 0.54045576 9
4.519865 0.89711028 0.81038094 10.5
4.7023911 3.5073607 0.82148737 10.333333
4.6677704 0.9614597 1.0568122 12
4.6644573 2.789794 1.2608011 13
4.5451713 3.0204997 1.2743903 13
4.478518 3.4738076 1.1755069 12.2
4.6091857 3.7136481 1.0673808 11.5
4.5245399 1.6761662 1.6362485 15
4.6122589 2.6869681 1.6013985 14.666667
4.5064178 3.0044906 1.4967802 14
4.3891225 3.3509874 1.4292401 13.666667
4.8253098 1.8727498 0.47437185 8
5.0284071 1.1180806 0.87881124 10.5
5.0334582 1.2719634 0.89474708 10.5
4.8918324 1.8620173 0.68702614 9.5
5.1542678 2.3440111 0.71304196 9.5
5.0275044 2.6382627 0.78230405 10.25
4.9169021 3.0134859 0.82342094 10.4
4.84129 3.3049874 0.80952203 10.25
4.8986506 1.1863227 1.2638832 13
4.9815898 1.4199883 1.2747115 12.6
5.0890255 1.8008288 1.4101193 13
4.9801655 2.2437646 1.2630012 12.25
5.0439682 2.628099 1.136291 11.75
4.9703174 3.0281222 1.1452332 12
4.8068924 3.396584 1.0740527 11.5
5.0260487 1.4677278 1.4705697 14
4.996942 1.8446074 1.5846776 14.333333
4.9019446 2.239831 1.5477974 14
4.7626886 2.5692856 1.4427677 13.333333
5.0572128 2.9833488 1.9810237 15
5.3669205 1.5573266 1.0389516 11
5.3183622 2.1982937 0.81155944 9.666667
5.1928887 2.511106 0.8987968 10
5.4015551 1.856275 1.18058 11.6
5.3049979 2.1728418 1.1428274 11.333333
5.2071691 2.4720907 1.1124997 11
5.1273694 1.8201571 1.512293 14
5.3705482 2.4346316 1.9554623 15
5.2502074 2.6488805 1.9648387 15
5.5488801 1.6670243 1.2540283 12
5.7511067 1.5188446 2.0779154 15
5.6574092 1.7191484 2.0806644 15
