# .PCD v0.7 - Point Cloud Data file format
VERSION 0.7
FIELDS x y z intensity
SIZE 4 4 4 4
TYPE F F F F
COUNT 1 1 1 1
WIDTH 121
HEIGHT 1
VIEWPOINT 0 0 0 1 0 0 0
POINTS 121
DATA ascii
-4.0750527 11.391545 2.9744854 15
-3.6900451 6.7502131 0.57191128 11
-1.9101164 1.0981574 0.20689756 12
-1.8969222 1.0238198 0.267773 13
-1.7990526 0.88005269 0.12979268 11
-1.7975346 0.82581568 0.32134956 14
-1.4578179 6.8848143 0.20119953 9
-1.4410447 6.776958 0.589203 11
-1.3949232 6.8915043 0.49301538 10
-1.0729032 -0.68435329 0.25185758 13.5
-1.1473196 6.8506804 0.99588406 12
-1.0763457 6.9974155 1.4125633 14
-0.84345692 -1.14228 0.26062047 12
-0.89191461 -0.87248665 0.31513616 14.5
-0.91970253 6.985528 0.22054899 9
-0.81340426 7.0271468 0.49174726 10
-0.84411246 7.0015111 0.56919301 11
-0.76530069 -1.3349299 0.2500523 12
-0.69590753 -1.1694558 0.33043557 13.5
-0.64906293 -1.2389438 0.42387822 15
-0.67019838 7.144659 1.2098373 13
-0.58944243 -1.80497 0.19881652 10
-0.54606754 -1.7358795 0.3328729 12
-0.57465774 -1.3761971 0.32727408 13
-0.45244017 -1.5561486 0.45309269 14
-0.25157836 -1.8475302 0.3781718 12
-0.22237155 -1.688058 0.24857047 10
-0.30731934 -1.7717085 0.47775054 14
-0.31771058 7.4232531 1.4130776 14
-0.12167659 1.204082 -0.21586221 3
0.086769417 -1.6546798 -0.15872914 3
0.16115841 -0.73702401 -0.18602724 0
0.088613853 1.1163542 -0.2123103 3
0.12655026 -1.536135 0.35297117 12.5
0.069528662 7.5090384 0.34150991 9
0.15128784 7.5188456 0.7040748 11
0.32131901 -0.72302669 -0.18658094 0
0.21984485 0.66449833 -0.21478389 0
0.29923326 -1.4069711 0.23487467 10
0.25670716 7.5605874 0.65152591 10
0.2462085 7.5455322 0.99746692 12
0.5125224 -0.71576446 -0.17119959 0
0.54477346 -0.50012231 -0.16963677 0
0.50209838 0.47714618 -0.19306792 0
0.50980586 0.74149835 -0.20024596 0.5
0.49060977 -1.4983395 -0.057908844 4
0.45290062 -1.3406068 0.24858926 11
0.57883042 1.1093351 0.36682266 15
0.70779145 -1.4119061 -0.12274846 3
0.66627103 -0.29647347 -0.16999659 0
0.62045813 0.7318362 -0.20996335 1
0.67675066 -1.465451 -0.008769447 5
0.6565451 -1.4631131 0.18211901 8.5
0.99028653 -0.82328367 -0.15964317 2
0.93127793 -1.1787945 0.31577554 11
0.8166545 7.7960205 1.3248931 13
0.78883392 7.9664388 1.6009742 14
1.0949507 -0.57685745 -0.15658915 1
1.0328348 -1.3281974 0.063085347 6
1.1009475 -1.0812112 0.28079408 10
1.147567 -1.0448372 0.49371791 14
1.1268947 7.8471026 0.60471851 10
1.2018189 -1.1949583 0.0085390201 5
1.354877 -1.1488595 0.21017663 8
1.3267032 -0.95159501 0.45089123 13
1.3267797 -0.94916266 0.51745009 14
1.3288951 8.0187445 1.2293249 12
1.4996562 -1.0789775 0.01912624 5.5
1.4654238 -0.90310627 0.25914282 9
1.5416815 -0.84795672 0.54779023 14
1.4316225 8.0554399 1.0696299 11
1.5260006 8.0957394 1.5591631 13
1.6049086 -0.83624673 0.32634225 10
1.6626682 -0.79117966 0.43610927 12
1.6664523 -0.78135645 0.67742687 15
1.8054872 -0.91339129 -0.0069162324 5
1.9011635 -0.68852133 0.43178326 11.5
1.852735 -0.70006162 0.59782839 14
1.8610823 8.2897024 0.79921299 10
2.0336754 -0.79076594 0.091906324 6
2.0473316 -0.64911544 0.34225306 10
2.1275496 -0.56079984 0.58265775 13
1.9817137 -0.62659353 0.74136221 15
2.2028189 -0.55793774 0.27573052 9
2.2514772 -0.52924758 0.43685859 11
2.2682776 -0.50990832 0.57721078 12
2.2847698 -0.2778782 0.80179971 15
2.4831786 -0.45745018 0.23249272 8
2.6587188 -0.10446882 0.28118694 8.5
2.6703243 -0.40469471 0.4923436 10
2.6791215 -0.33654064 0.39807451 9
2.6546111 -0.071915261 0.43699095 10
2.6067672 -0.09241008 0.58422178 12
2.7157049 -0.0016055927 0.91500896 15
2.684701 0.044132471 0.76421189 13
2.7016606 7.7707648 1.7856472 14
2.762645 -0.25281188 0.83633286 14
3.3177576 0.89297324 0.30228928 8
3.207195 0.30238819 1.0220873 14
3.1446278 7.2668481 1.4508721 13
3.4171908 1.2741644 0.31817359 8
3.4160709 6.3691812 0.99735743 11
3.4094441 6.5719008 1.3910158 12
3.7851968 4.2320471 0.77403361 10.5
3.9337676 5.4015923 0.71243399 10
3.8558784 5.6632786 0.97613257 11
3.7621329 5.9192767 1.1519548 12
4.1046128 3.5148852 0.38279918 8
4.0714965 3.4989905 0.53531373 9
4.1287236 3.5286491 1.448994 14
4.2438645 3.3846474 0.7651394 10
4.2559576 3.1369867 1.6819441 15
4.4648819 2.6795769 0.19214264 7
4.4613934 2.7218964 0.52422982 9
4.4501872 3.2395442 0.53798914 9
4.3590026 3.6501267 1.3221124 13
4.7095881 2.6750574 1.2538242 13
4.9447322 3.0433159 0.77001625 10
4.8404994 2.468039 1.2481977 12
4.9986124 2.0688646 1.4160011 13
5.2241354 2.4336705 0.92529893 11
