# .PCD v0.7 - Point Cloud Data file format
VERSION 0.7
FIELDS x y z intensity
SIZE 4 4 4 4
TYPE F F F F
COUNT 1 1 1 1
WIDTH 145
HEIGHT 1
VIEWPOINT 0 0 0 1 0 0 0
POINTS 145
DATA ascii
0.28731993 -0.96329457 -0.12161667 135
0.19776256 -0.82449168 -0.13784482 138.5
0.30165103 -0.83823091 -0.12837335 140.5
0.40600139 -0.8493703 -0.11847199 144
0.50773895 -0.82218719 -0.10674582 149
0.51638937 -0.8675729 -0.11028226 143
0.090953283 -0.80553657 -0.14643659 137
0.12427141 -0.71716475 -0.14736478 138
0.24330741 -0.73959208 -0.13870992 144
0.37011865 -0.7442984 -0.12587936 153.25
0.50341612 -0.77787447 -0.11580639 149
0.60141838 -0.76978374 -0.10715943 150
0.68682212 -0.71625119 -0.10358782 155
0.14119999 -0.67515194 -0.15080459 146.33333
0.24099618 -0.64273727 -0.14216878 150
0.3616775 -0.66893917 -0.13200977 160.875
0.4909288 -0.68713099 -0.12328945 161
0.573228 -0.66624123 -0.11585515 160
0.65728211 -0.6477955 -0.10639076 160.2
0.74510545 -0.6317445 -0.094635017 157.5
0.17996882 -0.56953198 -0.14894776 163.66667
0.25759766 -0.57263082 -0.14357246 168.85715
0.36263376 -0.57106644 -0.13219179 169.86667
0.4714765 -0.56725919 -0.1241191 170.125
0.56106848 -0.54322982 -0.11538017 171.55556
0.6505478 -0.55723947 -0.10565903 169.8
0.76249516 -0.56050581 -0.098161981 164.625
0.20658448 -0.50010723 -0.15080504 172.66667
0.2592313 -0.4981066 -0.14784184 176.25
0.37510127 -0.48727113 -0.13853981 174.5
0.47701856 -0.4539628 -0.13096879 167.84616
0.55086917 -0.45973963 -0.11605652 170.92308
0.65536773 -0.45443949 -0.10257353 171.7
0.74276823 -0.44860536 -0.095340759 170.16667
0.86266655 -0.45572853 -0.090550683 163.22223
0.29728368 -0.38188767 -0.15600124 171.66667
0.37220606 -0.35483611 -0.14803331 153.64516
0.4629513 -0.35466659 -0.13669439 151.34782
0.56235075 -0.36213824 -0.12314043 156.82608
0.65454704 -0.3499302 -0.10578217 164.88889
0.7615729 -0.35552266 -0.090936154 170.27272
0.8520813 -0.34949675 -0.084103063 169.5
0.92628562 -0.35306007 -0.08614023 162
0.39049318 -0.29453021 -0.15253332 137.5
0.47511631 -0.29206172 -0.14240688 141.4375
0.56489927 -0.26008686 -0.13036004 147.42857
0.65974534 -0.25745255 -0.11259183 149.84
0.73813909 -0.2524856 -0.093527108 162
0.84378892 -0.25864896 -0.082242019 166.60001
0.93872917 -0.27534762 -0.081804857 167
0.44879395 -0.11774316 -0.1620129 159
0.59354365 -0.19120964 -0.14203028 155.25
0.65082127 -0.15825462 -0.12546943 149.79546
0.75261998 -0.16075486 -0.098633312 155.24001
0.85840654 -0.17265332 -0.080528572 167.85715
0.93676758 -0.19910382 -0.0751983 166.5
0.49294403 -0.061866414 -0.16196539 161.54546
0.52423459 -0.067569688 -0.15977213 158.8
0.64914834 -0.1003422 -0.13425538 152.09091
0.39568219 0.017593496 -0.17254655 161
0.060859643 0.15489611 -0.13421768 152.5
0.19059797 0.13690023 -0.12309454 136.92308
0.25785831 0.12772617 -0.14701945 137.41861
0.36444858 0.16383033 -0.1817183 162.16667
0.44500408 0.13460876 -0.17610714 157.65384
-0.19383673 0.21194333 -0.2238982 186
-0.15758203 0.19790326 -0.21969192 184.5
0.0084361946 0.18910266 -0.20807756 174
0.063846827 0.26099229 -0.18760131 176
0.12983359 0.2186075 -0.18813996 161
0.28257325 0.20633537 -0.19208476 163.5
0.36836132 0.2154012 -0.18497887 167.32259
0.44836912 0.21070123 -0.17979217 167.69231
0.52169991 0.27924034 -0.17183058 173.16667
-0.13707705 0.35166028 -0.2134832 184.22223
-0.042596851 0.3453075 -0.20167595 165.07143
0.085034721 0.31537694 -0.20820813 177.875
0.17294331 0.34932283 -0.20079184 176.5
0.28251079 0.36572766 -0.19243957 174.46666
0.37776369 0.35867918 -0.1826888 173.64999
0.47274312 0.33860898 -0.1704835 174.32001
0.54048461 0.33223316 -0.16184777 176
-0.45775959 0.43482494 -0.24776827 125
-0.12392248 0.44653004 -0.22815073 190
-0.026763512 0.44534907 -0.21594878 181.85715
0.061803378 0.42990476 -0.20946755 184.16667
0.16598304 0.46276173 -0.2008701 183.36363
0.26746407 0.43941143 -0.19752142 179.72728
0.38427177 0.4501062 -0.18777855 179.83333
0.46444455 0.4514479 -0.17629252 181.16667
0.54304117 0.42572096 -0.15236509 170.125
-0.09230984 0.52997679 -0.20529372 124
-0.050983492 0.52070773 -0.21759787 163.25
0.064391822 0.53559911 -0.21399452 187.60001
0.17054681 0.53543299 -0.20306669 186.75
0.26693666 0.52244711 -0.18805297 185.10001
0.3633222 0.52716601 -0.17670774 184.88235
0.47490692 0.54803503 -0.16675983 186.42857
0.5473578 0.53935903 -0.14352675 163.54546
0.6257351 0.54526639 -0.14677763 189
-0.28828374 0.59411383 -0.25326037 168
-0.21208109 0.67522061 -0.25229496 171
-0.1075089 0.65625602 -0.22656406 147.66667
-0.056793507 0.64067578 -0.22090198 186.5
0.045169827 0.65628332 -0.21783122 187.14285
0.15227936 0.63730854 -0.20831464 194
0.23174886 0.64151734 -0.17129482 196.69231
0.34979287 0.63921523 -0.18164064 192.41667
0.48754498 0.62810421 -0.17006283 189.66667
0.55614167 0.61308974 -0.13013138 136.5
0.67165965 0.64437807 -0.15656014 186
-0.11051251 0.71407396 -0.21579577 146.5
-0.013816008 0.77597332 -0.23785168 172.5
0.13000271 0.69094092 -0.20414785 194
0.31265444 0.72594017 -0.18308173 191
0.4103066 0.7209087 -0.18581772 191.33333
0.50043625 0.71372175 -0.17175716 188.83333
0.59953308 0.7278493 -0.16184919 178.5
-0.18074474 0.82974625 -0.25796211 158
-0.038400438 0.82660806 -0.24754676 165
0.087263726 0.82720727 -0.2378924 170
0.3080782 0.84202951 -0.21032152 174.5
0.41675231 0.85122621 -0.19966808 170.33333
0.51888925 0.83555549 -0.17443176 139.5
-0.24122047 0.91768283 -0.26537806 173
-0.10089348 0.93603867 -0.23737766 190.25
-0.080356479 0.9065693 -0.25244188 181
0.027582895 0.97592723 -0.2329742 209
0.30138808 0.94232959 -0.2256079 170
0.073890433 0.14098802 -0.058859654 132
0.14280847 0.1386847 -0.080696501 127.40909
-0.04633677 0.2336618 -0.068900757 149.5
0.03710014 0.20769241 -0.04003251 144
-0.11060128 0.65796286 -0.076602578 166.14285
0.19483687 0.64628577 -0.06059679 170.58333
0.21153615 0.64998436 -0.11522293 195.66667
-0.1346845 0.71338338 -0.13002357 140
-0.14945877 0.95324337 -0.10714394 171.2
0.091164358 0.19959994 0.053320818 147
0.077950329 0.21300873 0.044174839 159
0.1699408 0.66893864 -0.00099802588 151.28572
0.14443752 0.74724287 0.017375845 57.5
0.53273034 0.74842811 0.04157915 196.92308
0.48273623 0.71748066 0.15744407 95
0.50235075 0.7511965 0.12891714 180.77777
