# .PCD v0.7 - Point Cloud Data file format
VERSION 0.7
FIELDS x y z intensity
SIZE 4 4 4 4
TYPE F F F F
COUNT 1 1 1 1
WIDTH 121
HEIGHT 1
VIEWPOINT 0 0 0 1 0 0 0
POINTS 121
DATA ascii
-2.8075399 2.4348414 0.10188425 9
-2.8446274 2.8484766 0.017135147 8
-2.8482747 3.6553988 -0.081264839 8
-2.80866 2.619422 0.45729214 12
-2.8346097 3.0274477 0.35050881 11
-2.8761592 3.7231159 0.3768692 11
-2.9024687 3.5099432 0.55086398 12
-2.8176632 2.6467068 0.77278787 14
-2.8532925 2.8253629 0.73979384 13
-2.8706543 3.8419614 0.93716502 14
-2.756624 1.8019068 0.33827132 10.5
-2.7761579 2.2237449 0.32429722 11
-2.7995293 2.3033502 0.23757508 10
-2.7505457 3.697628 0.12266882 9.5
-2.7660027 1.7845603 0.55043542 13
-2.7692695 1.9592228 0.46056709 12
-2.7668378 1.8430644 0.68851727 14
-2.5623591 -0.63292152 0.27082968 9
-2.5808995 -0.70091933 0.6565479 13
-2.2903504 -0.8126992 0.24531515 9
-2.2935851 -0.52803189 0.32147378 10
-2.2300613 -1.095564 0.78367066 15
-2.2859445 -0.83239549 0.7240749 14.5
-2.190846 3.7150953 0.018072011 9
-1.8856307 -0.87368578 0.28182253 10
-1.8441305 -0.83405 0.52085334 13
-1.8810031 -1.1854796 0.76328397 15
-1.8702385 3.8218203 0.40614572 11
-1.794446 -0.87007326 0.40949911 12
-1.6283908 3.761802 -0.044468801 8
-1.5012387 -1.0672679 0.3507989 11
-1.4983867 -0.88916671 0.34671488 11
-1.4807932 -1.0901212 0.58956027 14
-1.2657224 -2.2310882 0.26518241 8
-1.2474171 -1.7134628 0.28969738 9
-1.3108698 -1.225014 0.27214837 9
-1.3219864 -1.168467 0.29810762 10
-1.2999856 -1.7992337 0.44383097 10.5
-1.3228105 -1.4729007 0.53962308 13
-1.3319861 -1.1374429 0.38012138 11.5
-1.3137915 -1.6103555 0.67321181 14
-1.3435553 -1.0950528 0.5523479 14
-1.3681806 3.7862966 0.082675457 9
-1.1201159 -2.5580242 0.74827766 12
-1.1574978 3.8221402 0.13769329 10
-0.74302763 1.1938409 0.1676777 12
-0.71468675 -2.5661325 0.68173003 11
-0.61304557 3.9114549 0.70392603 15
-0.48116228 1.5573853 0.23997466 13
-0.2121613 0.99691904 -0.27432516 2
-0.38905844 -3.0885201 1.2904618 15
-0.24509151 3.9449399 0.71690661 15
-0.10393094 -3.082412 1.2724057 15
0.17637581 0.76459324 -0.2804614 0
0.19124779 3.9794521 0.67033499 15
0.38999999 0.67927074 -0.2767458 0
0.38858938 0.91487968 -0.299243 1
0.3883464 0.98027438 -0.30596441 2
0.20193417 -1.0048898 -0.06526453 2
0.33450669 -2.5046067 0.66360188 11
0.53336251 0.50213438 -0.25443748 0
0.52782601 0.66232342 -0.27035308 0
0.57443303 -2.645875 0.20951702 6
0.48975849 -1.2598306 -0.044883922 3
0.50722396 3.9445877 0.12563694 10.5
0.49413228 -2.503448 1.0337198 15
0.52931315 3.9660344 0.34820962 12.5
0.55423754 3.9889224 0.51881713 14
0.54845011 4.0377636 0.80371886 15
0.69500422 0.69810343 -0.27826926 1
0.63474578 0.86000949 -0.30369583 1
0.6822921 1.0467687 -0.31472075 2
0.77573711 0.64247882 -0.2601983 2
0.83617705 -0.51415426 -0.14453392 1
0.8551656 -0.69161463 -0.1209999 2
0.97655106 -0.3114861 -0.155204 2
0.87601745 -2.4629784 0.358289 8
1.3513488 -2.4494417 0.33609262 8
1.3007314 -2.3772283 0.96069276 14
1.4241036 6.945622 -0.1360506 9
1.9257771 7.1260848 1.0306721 14
1.9955422 -2.6957948 0.32577044 7
2.135396 6.9847603 -0.1737652 9
2.3713808 -2.9341235 1.0970099 13
2.2105067 7.0605345 0.44220784 11
2.4380286 -2.6618707 0.25622362 7
2.523104 -3.0073872 0.66357768 9
2.4697533 -2.669306 0.60935849 10
2.4506757 7.0375142 0.10227416 10
2.4774418 7.0792613 0.61129862 12
2.5604537 7.1083331 0.76939011 13
2.4575024 7.0912986 1.3815314 15
2.7708137 -2.8672168 1.1958154 13
3.3828206 7.0798707 -0.066983774 9
3.4724698 -2.9157145 0.31129161 7
4.0599818 5.1137977 0.88187963 13
5.4728246 0.96776456 0.17962007 8
5.5967374 0.70039672 0.46762022 10
5.470726 1.0434862 0.36101419 9
5.4556761 1.1223463 0.53538042 10
5.458312 1.1560011 0.83006269 11.5
5.4762053 1.0289259 1.2179439 14
5.4861655 1.4827348 1.2872555 14
5.4615273 1.5713912 1.0876687 13
5.4485583 1.0921475 1.4829623 15
5.6728883 -0.13990952 0.63889492 10
5.6867771 -0.19692621 0.80398041 11
5.6205144 0.42873812 0.77590126 11
5.7384682 -0.62747461 1.1035566 12
5.6602931 0.28060463 0.94550103 12
5.7610607 -0.96567059 1.2755973 13
5.6323066 -0.30859411 1.1726714 13
5.6684446 -1.0709096 1.5121349 14
5.6913424 -0.0080729574 1.3645407 14
5.6546388 0.35176894 1.2128053 13
5.594306 0.99518901 1.198089 13
5.742281 -2.159518 1.697892 14
5.6748018 -1.1753095 1.7533262 15
5.6361556 -0.59082937 1.6236588 15
5.5976601 -0.066608883 1.6179218 15
5.725472 -1.7527468 1.8801985 15
