# .PCD v0.7 - Point Cloud Data file format
VERSION 0.7
FIELDS x y z intensity
SIZE 4 4 4 4
TYPE F F F F
COUNT 1 1 1 1
WIDTH 666
HEIGHT 1
VIEWPOINT 0 0 0 1 0 0 0
POINTS 666
DATA ascii
-2.8078876 2.160918 0.040066846 8.5
-2.8299303 2.6211169 0.045734663 8.5
-2.8628273 2.9980319 0.029984042 8.5
-2.8854544 3.2719145 -0.028953014 8
-2.8169432 2.4030993 0.28978258 10.333333
-2.8241096 2.6833472 0.32489944 10.714286
-2.8566487 3.0325882 0.25715724 10.285714
-2.8794932 3.3962841 0.24080871 10
-2.811713 2.4298959 0.59485894 13
-2.8338137 2.7092898 0.66479921 13.2
-2.8704689 3.1182561 0.6782245 13
-2.9084933 3.4840274 0.6288693 12.666667
-2.8265314 3.7138288 0.5373835 12
-2.8702817 3.4990468 0.88343531 14
-2.8677833 3.753217 0.86706007 13.5
-2.5042419 -0.96675384 0.34787998 9.8571424
-2.519546 -0.68071783 0.3193306 9.75
-2.7286582 1.071179 0.099647991 8.333333
-2.7533815 1.4135017 0.067661047 8.3999996
-2.7780192 1.7942877 0.05642638 8.3999996
-2.7962847 2.2051532 0.082118697 8.666667
-2.6794617 3.6723888 -0.094663173 8
-2.4802182 -1.1817716 0.63971817 12.5
-2.5166187 -0.91667634 0.65176278 13
-2.5469217 -0.60582948 0.67548192 13.666667
-2.72628 1.1747701 0.45450875 11.6
-2.7409923 1.4383286 0.43450564 11.555555
-2.7711418 1.8553027 0.38593322 11.222222
-2.7871499 2.2186263 0.40014765 11.375
-2.7938869 2.4785123 0.39531904 11.5
-2.5937524 3.725421 0.22406304 10
-2.7234871 1.1712775 0.69635832 14
-2.7485836 1.4937812 0.66527605 13.5
-2.7689772 1.823922 0.69015634 13.666667
-2.7956553 2.2703733 0.66741472 13.5
-2.595289 3.7361414 0.53805578 12
-2.607146 3.8633521 0.91374618 14
-2.3125727 -0.85836422 0.35136306 10
-2.3017015 -0.61381644 0.32753277 10.333333
-2.0995626 3.7200832 -0.076933809 8
-2.0419705 -2.5091941 0.96276486 13
-2.1026168 -1.1624633 0.74452055 14.5
-2.2589109 -0.94452721 0.70633483 14.142858
-2.3121262 -0.56057525 0.56310022 13.25
-2.1552427 3.7690086 0.2559486 10.25
-2.0812118 -2.441328 1.1652811 15
-2.0481837 -2.2318568 1.112285 15
-2.1961739 3.7703187 0.49682832 11.8
-2.2113628 3.8838856 0.89979082 14
-1.7647781 -0.88529629 0.36184263 11
-1.6974047 3.7543373 -0.043548711 8.5
-1.7913867 -2.6097934 0.91071081 12.5
-1.7684994 -1.1805445 0.70148671 14.6
-1.8295369 -0.98316759 0.62176025 14
-1.6843778 3.7687998 0.18767388 10
-1.8299519 -2.5890493 1.1699702 15
-1.8301686 3.8144875 0.49813315 12.142858
-1.9761257 -3.9189012 1.6472362 15
-1.7768556 3.9075112 0.85155159 14
-1.353803 -2.63428 0.49842218 9.1999998
-1.2809516 -2.1456971 0.40901756 9.2857141
-1.2943434 -1.768612 0.4259474 10.222222
-1.3120041 -1.3665348 0.39241764 10.833333
-1.4464424 -1.0434014 0.37306181 11.285714
-1.3667789 -2.6036911 0.82270718 12.333333
-1.2922904 -2.1551795 0.69076747 12.2
-1.3103381 -1.765175 0.66867381 13.25
-1.3584443 -1.3410335 0.64346021 14.428572
-1.4785912 -1.0382087 0.56537867 14
-1.4551969 3.7859128 0.16262271 10
-1.2707435 -3.1127486 1.3130131 15
-1.5766683 -2.5788021 1.1410322 15
-1.3069113 3.8774014 0.52042943 12.5
-1.4059469 3.9232502 0.80430096 14
-1.0288975 -2.5747097 0.45899403 9
-1.1940123 -2.2597241 0.46216133 10
-0.92203349 3.8131878 -0.012813558 9.666667
-1.0099665 -2.5665452 0.7812534 12.25
-0.99466717 3.829525 0.14894973 10.285714
-0.96200067 -3.1171963 1.3274794 15
-0.89906079 -2.8268921 1.1699013 15
-1.0038458 3.8869488 0.59322137 13.333333
-0.47042009 -1.8246181 -0.0038834976 4
-0.43173376 0.65992284 -0.25728112 0
-0.42439765 0.90879959 -0.28040734 1
-0.62587678 -2.5963717 0.45136306 9
-0.63175917 1.154532 0.2089555 13
-0.55513525 1.4065959 0.23016018 13.2
-0.72061706 3.8252549 0.0025391274 10
-0.61099142 -2.548521 0.78314883 12.375
-0.77727246 1.5154207 0.25030759 13
-0.60424912 3.8600926 0.17275007 11.142858
-0.62701571 -3.12237 1.2783122 15
-0.58470684 -2.882436 1.1859213 15
-0.61448449 3.920752 0.60276139 14
-0.08817742 -2.5869079 0.10838284 5
-0.16476928 -2.1947553 0.066041522 5
-0.24241723 -1.7515727 0.018475667 4.5
-0.17673726 -1.4149985 -0.019249616 3.75
-0.060781535 -1.0492334 -0.064449571 2.4000001
-0.053543441 -0.71074545 -0.12791263 0
-0.20325483 0.64633363 -0.2520467 0.16666667
-0.16628337 0.9486919 -0.28031239 1.5714285
-0.13346386 1.4259328 -0.33068237 3.5999999
-0.17200711 1.7352985 -0.36939281 4
-0.19381043 2.1148751 -0.41117734 4.3333335
-0.3101621 2.5547805 -0.46780571 5
-0.19291876 2.8840263 -0.51618028 5
-0.059803013 3.4082413 -0.60004842 5
-0.12782991 3.8896601 -0.64099979 5
-0.20502995 -2.5675669 0.41401419 8.8000002
-0.24807765 -2.526978 0.76507843 12.5
-0.16751322 3.9010334 0.20430022 11.285714
-0.34681186 -3.11779 1.2481948 15
-0.21729694 -3.0374074 1.2314847 15
-0.16816217 3.9581385 0.57698226 14
0.25863087 -2.6878259 0.11561366 5
0.18865967 -2.1941473 0.055960737 5
0.17848726 -1.8003216 0.019362517 4.25
0.20771642 -1.3808694 -0.022246322 3.5999999
0.21248052 -0.98938596 -0.071807161 2
0.20769782 -0.67987192 -0.10649011 0.33333334
0.24274987 0.66003793 -0.26391834 0.14285715
0.21899448 0.91625351 -0.2953867 1.0909091
0.26851091 1.3291558 -0.33574986 2.8571429
0.24157973 1.771976 -0.38497642 4
0.29265511 2.1388309 -0.42978561 4
0.16134124 2.5639949 -0.48699796 4.6666665
0.38847229 2.8274164 -0.51739371 5
0.393325 3.2663572 -0.58225435 5
0.39606762 3.7339084 -0.64397162 5
0.19474159 -2.5546343 0.40128559 8.416667
0.23750533 -2.4911635 0.74626964 12.2
0.20846936 3.9362452 0.22926359 11.4
0.18165024 -3.0484495 1.2226276 15
0.20596708 3.9821892 0.56100094 14
0.59068799 -2.6045568 0.1433484 5.75
0.57856292 -2.277081 0.058646832 5
0.59569204 -1.8003666 0.0083101811 4.25
0.59457713 -1.3871168 -0.037173368 3.6666667
0.60941315 -0.99878508 -0.086966939 2.2
0.63873875 -0.60776335 -0.12905873 0.90909094
0.67530394 -0.28576466 -0.16314983 0.25
0.58798093 0.33658448 -0.2152206 0
0.63535005 0.59233159 -0.25994954 0.64285713
0.61217469 0.95840156 -0.30746549 1.8571428
0.66679657 1.3428729 -0.34662691 3
0.62720907 1.7612746 -0.38963172 4
0.67108101 2.0832393 -0.42768991 4
0.74110109 2.5895581 -0.49051613 5
0.79506022 2.9863675 -0.53709054 5
0.60889417 -2.5044937 0.45720598 9
0.59407741 -2.4650931 0.86207783 13.333333
0.43607107 3.9498129 0.24717098 11.5
0.65887117 4.4032955 0.16694491 11
0.65971071 4.4455667 0.042194206 10
0.44969606 -3.0302267 1.1839029 15
0.46714607 3.990761 0.55896366 14
0.95273316 -2.6501207 0.1386437 5.3333335
1.0153629 -2.1667466 0.026103739 4.75
0.93311423 -1.7603515 -0.013036124 4
0.99621075 -1.3837703 -0.062778912 3.5
0.98342848 -0.98978722 -0.096500561 2.8333333
0.96121824 -0.59145874 -0.13236104 1.9166666
0.96731299 -0.35742068 -0.15575573 1.5
0.83909112 0.75171226 -0.27084467 2
0.93492752 0.99735326 -0.28858832 3.25
0.99548084 1.3722318 -0.3392162 3.75
1.065915 1.7972517 -0.39888063 4
0.98574811 2.13763 -0.45102313 4
1.0993277 2.5450547 -0.50262952 4.5
0.84985018 3.3780425 -0.58749372 5
0.94485497 4.0319362 -0.68188989 5
1.0028037 4.4838791 -0.72474521 5
0.97064513 -2.4692724 0.43677989 8.833333
0.83480495 4.1720438 -0.32349667 8
0.99053216 -2.4094398 0.86518937 13.333333
0.83201826 4.6188841 0.018944744 10
1.0374564 6.9714937 0.35601938 11.5
1.1022127 7.0004482 0.63151288 12.5
1.0532066 7.0473895 1.1056368 14
1.0648568 7.0974493 1.3226604 15
1.3204504 -2.6251578 0.14714791 5.5
1.3850685 -2.2687461 0.005577493 4.5
1.4305879 -1.8153323 -0.038899373 4
1.3404989 -1.3858796 -0.065730937 4
1.3920344 -1.0385674 -0.076650314 4
1.3502263 -0.6179992 -0.12299182 3.1428571
1.2360722 1.4470766 -0.32339868 4
1.4000167 1.7321635 -0.34803289 5
1.2984165 2.1340766 -0.43224111 4.5
1.527346 2.6755412 -0.49414495 5
1.2166238 2.9646614 -0.55666763 5
1.2950591 3.2543399 -0.58692735 5
1.4112093 3.673924 -0.63780111 5
1.5762614 4.2652683 -0.71325326 5
1.3042734 -2.4508979 0.45313868 9
1.3555092 -2.3863404 0.80745178 12.6
1.5085655 -1.6479384 0.77723056 14
1.5270722 -1.3437009 0.68457383 14.5
1.506974 -1.0797986 0.63700348 14.5
1.4918156 6.9631314 -0.010773427 9.666667
1.4551502 -2.3555481 1.0545981 15
1.3920711 6.9948683 0.34252539 11.4
1.4217882 7.0234876 0.6434918 12.5
1.412239 7.1065392 1.1100239 14.5
1.3640465 7.108252 1.3345362 15
1.9286977 -3.045393 0.23399189 6.4000001
1.7429868 -2.584986 0.010282953 5
1.6262401 -2.3634262 -0.0084953858 4
1.8106868 -1.8050776 -0.017305952 4.75
1.8038568 -1.320812 -0.0055319094 4.75
1.8207338 -1.0526987 -0.079063393 4
1.8029133 -0.71863711 -0.094808914 4.5
1.6565441 2.1738372 -0.39258695 5
1.7829515 2.3918955 -0.41397715 5
1.660411 2.9890835 -0.53131509 5
1.8227016 3.3723316 -0.57580566 5
1.8908679 -3.0019042 0.52264482 8.6000004
1.7337087 -1.6038402 0.52843505 11.5
1.8170674 -1.2963806 0.36001977 9.666667
1.8007933 -1.0820279 0.36944908 10.142858
1.832768 -3.1568699 0.82421672 10.5
1.8791076 -3.0006318 0.92349595 11.833333
1.5982972 -1.6615039 0.58402675 12
1.6168416 -1.330086 0.55404317 12.333333
1.7394843 -1.0125667 0.58422971 13.5
1.8113688 6.976459 -0.074484907 9.5
1.9231175 -2.9213483 1.2938906 14.5
1.8500727 7.0155129 0.32071298 11.333333
1.7920984 7.0471888 0.65806025 12.5
1.7649456 7.1273694 1.1596832 14.25
1.8341794 7.108779 1.3543279 15
2.3772507 -2.8763673 0.117427 5.5
2.1598592 -2.6140912 0.1794395 6.3333335
2.3951466 -2.2237034 0.012193654 5
2.3070683 -1.2823411 -0.076646954 5
2.1422572 3.0099611 -0.47716331 6
2.3935301 3.4426982 -0.52066618 6
2.046052 3.8974855 -0.63932669 5
2.1905544 6.8079877 -0.77301884 7
2.193233 -2.9745266 0.53217936 8.8571424
2.126266 -2.7034605 0.32922411 7.5
2.2176237 -1.2687303 0.25789702 8.25
2.315228 -0.98985469 0.27027428 8.8000002
2.1000051 6.8528123 -0.49270949 8
2.3597755 -3.1441042 0.93232292 11
2.1793337 -2.978745 0.9721899 12
2.1930337 -1.2044092 0.61265737 12.5
2.2227232 -0.96169555 0.5650773 12
2.2693715 7.0073614 -0.13528486 9.3999996
2.1926062 -2.9341559 1.3336517 14.5
2.2480698 7.0388513 0.31278223 11
2.2178857 7.078887 0.67750692 12.5
2.151593 7.1566863 1.1809599 14.25
2.1890819 7.1037178 1.3700252 15
2.557045 -2.6629219 0.2539708 7
2.4956217 -1.0637753 0.0076081236 5.75
2.7058387 3.9822669 -0.57240403 6
2.5304697 -2.9542346 0.58447975 9
2.4888301 -2.6850743 0.47854605 8.5
2.5955698 -1.6554317 0.2344965 7.5
2.5681157 -1.4831855 0.2511982 7.75
2.5998623 -0.97963822 0.30875033 8.8999996
2.7994082 7.0558968 -0.31922379 8
2.5422685 -2.9560945 0.98227429 11.833333
2.668504 -1.5852689 0.66049004 11
2.55126 -1.377573 0.63232666 12
2.5653167 -0.88692069 0.56720805 11.8
2.6554697 7.0332823 -0.15086359 9.333333
2.5854914 -2.921335 1.3052598 14
2.6158664 7.0856242 0.36509323 11.166667
2.7119157 7.1115031 0.69841009 12.5
2.5072975 7.1794581 1.1924165 14.25
2.7022281 7.2085443 1.4412463 15
3.0081191 -2.9417477 0.15354115 6
3.0581946 -1.7824864 0.023377456 5.3333335
3.1984136 6.8246136 -0.74863636 7
2.9907677 -2.9265604 0.53974837 8.7142859
3.1634932 -0.8869912 0.30311131 8.666667
3.0444818 6.9777513 -0.35686705 8
3.0617995 -3.1410224 0.80200756 10
2.9853609 -2.8544691 1.0353992 12
2.966841 -1.3248165 0.62846041 11
2.9505713 -0.94324666 0.61961097 11.666667
3.0657146 7.0705862 -0.11500392 9.1999998
2.9338002 -2.8475261 1.3438337 13.833333
3.200295 6.4623437 0.23969212 11
3.0050197 7.0906339 0.26533934 10.666667
2.9580441 7.1256275 0.68124861 12.333333
3.0109029 7.2067657 1.1036398 13.666667
3.0139925 7.2039237 1.5171849 15
3.3434043 -2.9828253 0.24258636 6.5999999
3.580533 -2.8020699 0.16202216 6
3.5832553 -1.2947587 0.10337934 7
3.2725816 6.7971301 -0.97233504 6
3.3500929 -2.9213452 0.52439296 8.2857141
3.410023 -1.6646551 0.45061594 9.333333
3.3920879 -1.3210785 0.20492175 7.5
3.3885546 -0.98670208 0.26160786 8.181818
3.3554101 7.0616307 -0.35579482 8
3.4634237 -2.8401315 0.86487406 10.666667
3.3986638 -1.6922684 0.64532781 10.5
3.3489451 -0.81413025 0.60651767 11.333333
3.3029854 6.4352713 0.12884188 10
3.5579469 7.0755029 -0.1644529 9
3.3950412 -2.7790005 1.3692197 13.5
3.3708687 7.1124568 0.2412543 10.333333
3.5403843 -2.7390232 1.5941731 15
3.4864876 6.3388205 0.97143006 13
3.4326162 7.1602159 0.70227081 12.333333
3.338443 6.5025187 1.0784664 13.5
3.3837104 7.2290468 1.1573308 13.5
3.5519724 6.5263081 1.4668456 15
3.4150584 7.2300076 1.550748 15
3.8215148 -2.8809471 0.22382145 6.6666665
3.756995 -1.717145 0.085831039 6
3.8811145 -0.85860795 0.031198826 6
3.9784579 -0.49657297 0.028394617 7
3.8264139 -2.8640251 0.56168103 8.25
3.8643682 -1.7292117 0.41536486 8
3.9176326 -0.83322233 0.18767373 7.5
3.9743121 -0.66075301 0.18391766 7.6666665
3.9736221 5.7459583 -0.21941024 8
3.9789896 6.054266 -0.23378399 8
3.9542663 6.5387506 -0.36517653 8
3.7788205 -2.9206789 0.89825541 10.5
3.9562993 -1.7771065 0.65313202 10
3.8709624 -1.2065064 0.62893146 10
3.794749 -0.81048787 0.56128049 10.333333
3.9137342 6.0875196 -0.18959279 9
3.7198958 7.0194426 -0.08591228 9
3.8727393 -2.7526109 1.3436459 13
3.9998059 4.5213938 0.51567459 12
3.9980533 5.4119968 0.60083932 12
3.9594169 6.0503774 0.47715107 11.5
3.9364674 6.2253423 0.38982847 10.666667
3.9464705 6.6849561 0.47908267 11
3.752291 7.0405092 0.32242101 10.666667
3.7486887 -2.6953511 1.6313142 15
3.9513438 6.0906081 0.96091872 13
3.8371115 6.2867351 0.71269572 12.5
3.7457373 7.0766306 0.64692777 12
3.9103458 5.9208574 1.2091208 14
3.7098668 7.189961 1.2648677 14
3.5998547 7.3181591 1.6730604 15
3.812737 7.320641 1.6924809 15
4.2668395 -0.78405839 -0.06998238 6
4.1643534 -2.8522027 0.54794502 8.333333
4.0821719 -1.7348475 0.52368581 9
4.2113914 -0.7151472 0.26847357 8
4.2351894 6.8083544 -0.57602775 7.5
4.0761328 -2.8592753 0.84030253 10
4.1272678 -1.7384291 0.66393733 10
4.1190705 -0.75605816 0.59769756 10.5
4.0981636 4.2863684 0.27199852 10.333333
4.1211095 4.9098864 0.21144891 10
4.0946102 6.9110456 -0.083118685 9.333333
4.1630106 -2.7291725 1.3445164 12.8
4.1168041 3.7438006 0.56382763 12
4.133925 4.4378142 0.48601669 11.5
4.2614279 4.5221076 0.57538402 12
4.0542631 5.2144208 0.46309081 11.5
4.0278616 5.8687677 0.61632246 12
4.2076521 -2.7037861 1.6631236 14.666667
4.0708919 4.882081 0.86374187 13
4.1190076 5.1452918 0.9213385 13.5
4.0390668 5.3465061 0.90097088 13
4.1006856 5.880445 0.8790521 13
4.1054325 4.7406154 1.3824937 15
4.1220655 5.0644498 1.173438 14
4.0523772 5.3726621 1.1675806 14
4.5282497 -2.8282473 0.51671809 8
4.5271783 -2.8126559 0.77204132 9.333333
4.550179 -2.7091413 1.3741792 12.666667
4.5325718 -2.6797359 1.6283134 14.333333
4.6050763 -2.6318579 1.8160174 15
4.870358 0.29127979 -0.077083573 6.5
5.035964 0.5297907 -0.13770014 6.5
4.9534984 0.19808982 0.12179796 7.5
5.1627879 4.1484604 -0.22973864 7.5
5.1093984 5.3133974 -0.24094658 8
5.0489898 4.4816041 0.0181193 9
5.075067 5.1949439 -0.050281767 9
5.0319357 5.2993655 -0.015658386 9
5.0423174 7.2165647 -0.11982282 9
4.9943194 7.271657 0.04289791 9
5.1003561 7.2436957 0.29311994 10.333333
4.9188643 7.329299 0.12147225 10
4.830771 -2.6139517 1.8668056 15
5.0252895 7.3179626 0.52102625 11
5.3865113 -2.4940541 0.28670046 7
5.3642449 -2.0983837 -0.00074878242 6
5.334569 -1.6644642 0.0089353593 6
5.3787813 -1.4065099 0.011901357 6
5.4103107 -0.52969313 -0.026492575 6.5
5.3746305 -0.36954957 0.023692707 7
5.4176388 0.078208111 -0.070923105 7
5.5374351 0.5262984 -0.13203202 6.5
5.5366507 0.94878477 -0.14579013 6.5
5.4149351 1.3073865 -0.17965694 7
5.2531896 3.394383 -0.31885561 7
5.3441124 -2.4773881 0.34430856 7
5.5180402 -1.0252661 0.49180517 9
5.5918846 0.30062556 0.27254882 8.5
5.5669556 0.58034307 0.18348303 8
5.4818716 0.98312032 0.14325023 8
5.4469409 1.3239179 0.11352857 8.25
5.2974858 3.3245213 -0.21881938 7
5.4773726 3.8273196 -0.027168345 8.333333
5.2553992 4.1546364 -0.14234705 8.333333
5.2221074 5.2476354 -0.20440692 8
5.5155582 -1.0013293 0.88129574 11
5.5877376 0.33014831 0.59770149 10.333333
5.5666099 0.67444688 0.54855359 10
5.4756532 1.0919441 0.4829478 9.833333
5.4505243 1.3535372 0.43535706 9.666667
5.2646751 4.2021947 0.028940734 9
5.5243201 4.5155759 0.20633252 9.5
5.5856824 0.3350648 1.0477777 12.5
5.5653343 0.72099453 0.9375788 12.2
5.4742646 1.0985801 0.90713781 12
5.4491062 1.4674758 0.88976622 11.8
5.5877681 0.064396493 1.6192355 15
5.5784822 0.32070741 1.4464194 14
5.5540762 0.70206386 1.3486639 14
5.4930716 1.1311878 1.3827721 14.5
5.4543467 1.4554832 1.2746788 14
5.3613639 -2.663841 2.0028439 15
5.584888 -0.0099124005 1.7458919 15
5.5640354 0.38740978 1.6224443 15
5.4088483 1.5683777 1.5038517 15
5.5755644 7.1901665 1.8625009 15
5.8054619 -2.8101096 0.17921241 6
5.7041879 -0.99704689 -0.097259477 5.6666665
5.6723781 -0.79450977 0.0048963162 6
5.6273737 -0.16339806 -0.062454429 6.5
5.6115956 0.074019849 0.013766059 7
5.9227858 -3.3070955 0.52701473 7.5
5.6992455 -1.3253853 0.34099886 8
5.6771078 -0.89460403 0.42218789 8.5
5.6630678 -0.56856465 0.31799418 8.166667
5.6310835 -0.21045572 0.26152566 8.166667
5.6077266 0.18780981 0.32036272 8.666667
5.659606 3.4663131 -0.13889897 7.5
5.6924901 3.7053072 -0.16535546 8
5.7874269 5.0413761 -0.43655083 7
5.763176 7.2685022 -0.47730285 8
5.8869429 -3.3474991 0.96363163 9.5
5.8468132 -2.0650277 1.0061518 10
5.7239037 -1.819249 1.0258232 11
5.6968231 -0.91492391 0.7662878 10.333333
5.6605868 -0.49772176 0.72683942 10.166667
5.6212549 -0.12911789 0.64809322 10
5.604712 0.12995578 0.65168828 10.333333
5.7719936 4.2390532 0.18065575 9
5.755137 7.3005943 -0.077698268 9
5.8208323 -2.7300351 1.2219576 11
5.9147282 -2.6095152 1.4107844 12
5.8097477 -2.0793858 1.2476972 11.5
5.773572 -1.6724865 1.1758342 11.5
5.7135301 -1.2843906 1.1270806 11.6
5.7014318 -0.82850367 1.1434778 12.2
5.6704259 -0.43717581 1.058663 12
5.6298962 -0.050432984 1.0606254 12.166667
5.5961103 0.18005571 1.1152945 12.5
5.6206431 0.68966347 0.94766849 12
5.8486586 7.3001418 0.26921025 10.25
5.9340372 -3.1319003 1.7569942 13
5.7781129 -2.8195472 1.7103155 13.333333
5.7672791 -2.4699435 1.7174239 13.4
5.7348061 -2.0042605 1.6119785 13.333333
5.7396512 -1.6785265 1.5981841 13.4
5.7219405 -1.283213 1.5613863 13.666667
5.6995101 -0.87674248 1.4978557 13.6
5.6595664 -0.4506101 1.5016648 14
5.6026969 -0.11365071 1.5277506 14.333333
5.6560369 0.33764637 1.3433324 14
5.6247892 0.67501706 1.2859921 13.666667
5.7088242 7.4088669 0.60809511 11
5.9505148 -3.2090318 1.9832428 14
5.9023986 -2.8501639 2.050957 14.5
5.9154286 -2.4481251 2.0243311 14.5
5.7873092 -2.0140536 1.9472011 14.666667
5.8168688 -1.6191581 1.9345964 14.75
5.6774769 -1.1253457 1.8107607 15
5.6710234 -0.82249963 1.7809589 15
5.6206069 -0.3259922 1.7458867 15
5.6901383 0.24909618 1.7432694 15
5.614397 5.7829771 1.6931858 15
5.7200909 7.4377723 1.6598871 14
5.8543639 7.2133141 1.8977232 15
6.2504253 3.5250838 -0.17853385 7.5
6.18751 3.686173 -0.013985698 8
6.0746512 4.0125475 -0.30234399 7
6.380661 7.035666 -0.34952623 8
6.138412 7.2694416 -0.43486068 8
6.308919 3.5016031 0.28600296 9.5
6.1675887 3.9609408 0.16740535 9
6.3186522 4.0669203 0.32833138 10
6.3747892 7.1383214 0.11138406 9
6.1666379 7.261425 -0.15977336 9
6.3558383 7.1913671 0.42228228 10
6.1777391 7.2823558 0.44979092 11
6.327086 7.2235265 0.54370296 11
6.091372 7.3982935 0.67838055 11
6.0483346 -3.0410182 2.0349309 14
6.0200868 -2.9565423 2.3963487 15
6.7960892 4.9627624 -0.39147112 7
6.6752453 5.4676156 -0.34608051 7.5
6.5527105 3.516098 0.16581421 9
6.4158292 7.1800046 0.73352003 11
6.4340754 7.1560898 1.0032537 12
6.7838225 7.2394152 1.522115 13
7.0195379 5.045825 -0.29350632 8
7.0829086 5.3431191 -0.30970672 8
6.8449421 7.1099548 0.55197972 11
6.8190246 7.0460601 1.1527647 12
6.9981322 5.0250325 1.7893646 14
6.869803 7.2286091 1.5627303 13.5
6.9763293 7.1931481 1.7485573 14
7.2932529 4.3213134 2.1405616 15
7.2211242 5.9486485 1.9195842 15
8.3368931 4.4823794 -0.57829666 6.5
8.3210545 4.2029486 -0.25340876 7.5
8.2257347 4.4187503 -0.1997637 7.6666665
8.1405706 5.5625911 -0.37892368 7
8.1335421 5.645144 -0.51849693 7
8.3197508 5.252141 1.7289879 13
8.6596527 7.1669064 -0.78954524 7
8.5889711 7.4804711 -0.48425415 8
8.5642042 7.651154 0.74791181 11
8.6817694 5.6010704 1.7756603 13
8.7486992 5.8093224 1.8158778 13
8.5766506 6.4298682 1.9090466 14
9.1341496 7.7872052 0.77705729 11
8.8914766 5.178062 1.7633332 13
8.7976151 5.3960185 1.771685 13
8.8038054 5.9642119 1.8210441 13
8.8776932 5.4761567 1.9266843 14
9.0602331 7.5365005 1.9737542 13.5
9.3843069 3.86181 -0.56980807 6
9.362566 4.1209502 -0.5742467 6
9.5982094 3.938879 0.079088643 8
9.3470631 4.0970554 0.12284901 8
9.3479109 7.5375929 0.46884799 10
9.3555298 7.5667915 0.8434962 11
9.2082319 7.7516398 0.91491491 11
9.3854876 5.2625728 1.852566 13
9.5128517 5.5754919 1.6065186 12
9.3933277 7.6192675 1.5048149 12.5
9.5566015 7.6367173 1.7762332 13
10.002164 3.5388246 -0.43466344 7
9.922946 3.6262503 -0.23355012 7
9.8459234 7.560163 0.47146609 10
9.8594551 7.6080627 0.86249489 11
9.9153061 7.6360583 1.3564541 12
9.7709675 7.5667348 1.7103323 13
9.7181101 5.2780695 2.6926453 15
10.172229 3.3521347 -0.62599081 6
10.14312 3.7523215 -0.63141793 6
10.076261 3.3608978 -0.085349873 7.5
10.120108 3.3780079 0.48534882 9
10.195824 7.823494 0.99159503 11
10.221725 7.5387392 1.7457347 13
10.181006 4.9053555 2.7363725 15
10.350621 6.7490826 2.4303637 14
10.084909 3.7781684 2.9058316 15
10.418135 3.6985495 0.060006205 8
10.692355 4.1335931 0.24270053 8.5
10.40495 7.607656 0.47593004 10
10.46035 7.8172431 0.44308385 10
10.424851 7.6890473 1.2806841 11
10.439762 5.6333275 1.631544 12
10.472126 7.6660118 1.3905911 12
10.789436 7.5723729 1.7970116 12
10.653382 4.6657653 2.80158 15
10.725268 6.6609817 2.4741859 14
10.660096 7.6885972 2.1768575 13
10.443285 3.3650808 2.9466519 15
10.911025 7.6673026 0.47427213 10
10.98529 7.6984434 0.90439552 10
10.954656 7.7070088 1.3154293 11
11.011975 6.5052786 2.4992127 14
11.544438 7.7408228 1.3558501 11
11.587909 7.3437538 1.8500167 12
11.398117 7.6068802 1.853569 12
11.527412 6.1391163 2.5378959 14
11.279683 6.3326325 2.5218089 14
11.46321 4.0522194 2.9016826 15
11.790164 4.637835 -0.19865963 7.5
11.845324 4.1368589 0.096160024 8
11.645003 7.7005515 0.48460567 9
11.624197 7.7525187 0.92849678 10
11.849203 4.1246552 1.9803125 12
11.794438 4.4176741 1.9842775 12
11.74052 5.6033044 1.8249145 12
11.921695 7.8701048 1.490651 11
11.858611 3.6555176 2.3964379 13
11.844311 4.0347047 2.4177303 13
11.836332 4.3368826 2.3008068 12.666667
11.779182 4.8499465 2.0840414 13
11.721355 5.1388049 2.0969129 13
11.684079 5.6063619 2.1271622 13
11.665977 6.0166211 2.2000034 13
11.753775 4.8401904 2.4572701 13
11.707972 5.277751 2.4874203 14
11.683997 5.6588912 2.4841812 13.666667
11.669858 3.8116202 2.9236522 14
12.394032 3.8746717 -0.36014724 7
12.287388 3.800786 -0.11462938 7.5
12.349038 7.7469516 0.48798349 9
12.307092 7.8015385 0.95379007 10
12.775794 8.0778265 1.1958677 11
12.639437 7.9116759 1.5390381 11
13.062518 7.8475628 0.5074091 9
13.04998 7.8594666 0.98163211 10
13.356166 4.021544 -0.66834128 6
13.385709 5.2393594 -0.42800885 7
13.437104 8.1288586 1.0010177 10
13.431159 7.9571266 1.5909728 11
13.906862 7.9472151 1.0147505 10
13.856674 7.9931393 1.5173535 11
14.336268 6.9943614 0.043046817 8
14.35564 7.7696261 1.0264213 10
14.463575 6.747704 -0.038623784 8
14.624376 4.5580459 0.46677375 9
14.558673 4.9141002 0.46981186 9
14.520318 5.422843 0.51780486 9
14.489609 6.0521193 0.4820188 9
14.462632 6.3694658 0.52211076 9
14.435472 6.7615151 0.52405018 9
14.624668 7.3629103 0.4996767 9
14.55764 5.0891223 0.96607292 10
14.536918 5.4540625 0.97356272 10
14.495192 5.8230023 0.98199004 10
14.490477 6.2079067 0.9909454 10
14.472761 6.5988045 1.0009263 10
14.57448 7.5429997 0.55363113 9
14.465055 7.0006914 1.0111709 10
14.61938 7.4903264 1.0290529 10
14.627376 8.0086136 1.5686088 11
15.001159 5.742382 1.5999011 11
15.019996 6.1677294 1.5287272 11
15.264833 5.4209986 1.6067693 11
15.533036 8.0607796 1.6314013 11
15.905098 4.7602468 1.0087937 9
15.651177 4.7184796 1.6125121 11
15.65112 5.2448997 1.53905 10
16.34317 4.6825151 -0.56808698 7
16.273972 5.4277635 2.6785917 12
16.464813 4.5772057 -0.91527861 6
16.686543 4.8570218 2.2008047 11
16.669804 5.2767854 2.2183168 11
16.624084 5.6956306 2.232625 11
16.604342 6.1263595 2.252317 11
16.554588 5.1082025 2.6946037 12
16.585594 6.56705 2.2741966 12
16.554867 7.0058055 2.2929637 12
16.867279 5.509901 -0.93476552 6
17.107796 4.8536377 0.60616142 9
17.135584 4.8997283 0.49015522 8
17.063683 5.3448443 0.38074848 8
17.142797 4.6984987 1.0516543 9
17.119289 4.9011393 1.6252862 10
17.042582 5.2891073 1.6338335 10
