# .PCD v0.7 - Point Cloud Data file format
VERSION 0.7
FIELDS x y z intensity
SIZE 4 4 4 4
TYPE F F F F
COUNT 1 1 1 1
WIDTH 147
HEIGHT 1
VIEWPOINT 0 0 0 1 0 0 0
POINTS 147
DATA ascii
-0.21365266 -0.95387834 -0.09630616 144
-0.055316202 -0.94919038 -0.089051016 159.75
0.074665055 -0.96860254 -0.071100332 159.33333
0.21460477 -0.95554972 -0.081017889 163
-0.17382471 -0.89663684 -0.10900059 157.5
-0.011129672 -0.85477793 -0.096708134 169.5
0.051134244 -0.85886967 -0.089092478 170
0.11391442 -0.84671915 -0.083325662 172.33333
0.23118782 -0.8577891 -0.08791443 172.25
0.34783781 -0.86130768 -0.095705502 173
0.45768136 -0.85136074 -0.097727865 171.75
0.56459516 -0.83139843 -0.098234139 172
-0.10856161 -0.79286474 -0.11492465 167
-0.096273065 -0.77508682 -0.118666 171
0.035489526 -0.76009715 -0.11037996 179.2
0.14541988 -0.7548278 -0.097771607 180.66667
0.25008124 -0.7592299 -0.10109296 182
0.35243201 -0.75251728 -0.10619411 186.5
0.44685763 -0.74354202 -0.10437112 183.5
0.54554152 -0.74609637 -0.1066525 179.2
0.65594482 -0.75310683 -0.11705567 175
-0.041669268 -0.68895662 -0.12465703 178
0.075862192 -0.67559606 -0.11938945 186.75
0.1798076 -0.64424032 -0.10556081 187.8
0.2673786 -0.65368652 -0.10685444 188.8
0.35388601 -0.64540881 -0.10737817 189
0.43734005 -0.64903963 -0.11013956 188.2
0.52838767 -0.66736627 -0.11587241 186
0.63052708 -0.68761188 -0.11894313 183
0.7202239 -0.65710694 -0.12887387 185
0.037563782 -0.56487107 -0.13471216 188
0.13499641 -0.58877891 -0.12261573 187.44444
0.25513637 -0.54146487 -0.11603875 184.25
0.35840583 -0.55468071 -0.11829607 185
0.43751141 -0.55442935 -0.11975078 186
0.54888022 -0.57212138 -0.12484363 188.15384
0.65426427 -0.5346657 -0.13440999 190
0.78559881 -0.59174573 -0.13223444 189
0.84865421 -0.52919257 -0.1378585 191.5
0.086459689 -0.48758578 -0.13990301 184.5
0.16175082 -0.49194992 -0.13429049 182.875
0.24965972 -0.48484313 -0.14054151 179.91667
0.33894256 -0.4694283 -0.14082539 179.07692
0.45626155 -0.47884077 -0.13695329 181.61111
0.5544312 -0.45277858 -0.13812095 183.18182
0.65136117 -0.47083858 -0.14292133 186.89999
0.73676527 -0.4621653 -0.1371122 189.66667
0.16585574 -0.38411734 -0.15401931 177.16667
0.23687367 -0.39382678 -0.14864144 174.46666
0.34619099 -0.38957158 -0.14880213 173.88235
0.44241753 -0.36958891 -0.15283103 175.11111
0.54276061 -0.36990342 -0.15509897 179.08333
0.65729427 -0.3627834 -0.1481998 183
0.75585502 -0.3716692 -0.14772192 187.10001
0.83167845 -0.35727796 -0.14558133 190.5
0.92948323 -0.37798524 -0.15644471 188
0.25839478 -0.24838728 -0.16221586 143
0.33248499 -0.24577859 -0.17208318 167.10001
0.57423097 -0.27094913 -0.1669967 175.78572
0.65631777 -0.25752565 -0.16434531 178.60001
0.73786247 -0.26352221 -0.15499093 183.38461
0.83831453 -0.27002555 -0.15614277 188
0.28114575 -0.16151622 -0.10666187 129.45454
0.33841473 -0.15362631 -0.12558718 124.05556
0.59997022 -0.20346111 -0.17507245 174
0.64539659 -0.17754059 -0.17600672 175.1875
0.75252992 -0.20210174 -0.16120239 182.57143
0.051793251 0.12276661 -0.14657761 143.33333
-0.11755626 0.27842763 -0.2085678 152
-0.086533375 0.2605643 -0.21276847 152.57143
0.38730919 0.25015885 -0.22167154 137
0.46359685 0.25891787 -0.22069927 141.42857
0.53032964 0.25061888 -0.21258056 145.88235
-0.25775746 0.36276323 -0.22508486 149.8
-0.14824149 0.33014396 -0.21472509 149.27272
-0.043702271 0.33978751 -0.21888486 155.69231
0.0053492989 0.36293527 -0.23305286 165
0.17692149 0.34159938 -0.23251671 176
0.38736805 0.33010089 -0.23007363 159.39999
0.45205322 0.30442899 -0.22596428 148.93333
0.56356341 0.32873064 -0.2235392 158.11765
0.60623068 0.36457813 -0.21255934 169.33333
-0.42397219 0.46181807 -0.23548116 138.5
-0.36164171 0.42488965 -0.23373537 147.25
-0.24198836 0.44675359 -0.23250073 151.66667
-0.16591337 0.40758461 -0.22458713 149.66667
-0.060072485 0.42561927 -0.22664849 151.25
0.048233856 0.43545887 -0.23041144 161.61539
0.14763887 0.44985613 -0.23593916 172.72728
0.25569794 0.46877223 -0.24622266 180
0.37040406 0.47167316 -0.24392211 179.25
0.45076805 0.45429742 -0.2406878 179.25
0.54067117 0.41615716 -0.23264328 174.36363
0.64566082 0.42807281 -0.22512899 176.71428
-0.60858572 0.57147205 -0.24314736 114
-0.54900599 0.53627819 -0.24262007 118.33334
-0.4866401 0.4996281 -0.24389379 126.5
-0.3333084 0.53865838 -0.24349026 141
-0.24456894 0.53649688 -0.24553041 146.5
-0.14910065 0.51648164 -0.24244514 147
-0.033598483 0.52377617 -0.24030656 148.66667
0.068021581 0.52055943 -0.23375763 152.14285
0.15349159 0.53088731 -0.24156992 161.625
0.2414889 0.51724768 -0.24774557 173.39999
0.34213656 0.51749229 -0.24775189 176.75
0.45946231 0.52194679 -0.24694054 176.5
0.53600013 0.51977527 -0.25025123 174
0.63533491 0.50204283 -0.24294411 176.33333
0.72682858 0.56253803 -0.24603234 164
-0.64795625 0.5949772 -0.24593067 110
-0.44705495 0.62742633 -0.25436991 127.4
-0.24106805 0.6084618 -0.25051618 144.25
-0.13178338 0.65174776 -0.25466865 144
-0.051182959 0.60976696 -0.24543905 147.8
0.044525329 0.62642461 -0.24969162 149
0.1322072 0.63383824 -0.25735292 151.8
0.22135255 0.58699828 -0.25101283 163
0.34522018 0.59223312 -0.2545242 170.5
0.46789849 0.58087909 -0.25494075 173
0.65581751 0.6143924 -0.2587581 164
0.75158405 0.60375726 -0.25216383 159.5
-0.60046822 0.74609917 -0.26227227 110
-0.54314971 0.70140642 -0.25709674 114.5
-0.40348437 0.7704438 -0.26267344 121
-0.34555611 0.71447986 -0.26629749 130.39999
-0.22289632 0.77143633 -0.27093095 135
-0.17484552 0.70666885 -0.25718182 146
-0.051315662 0.7262888 -0.25743183 145.60001
0.066648901 0.73668998 -0.26189905 143.8
0.19327863 0.69273579 -0.26422662 151.5
0.28984055 0.71409947 -0.27203381 150
0.386951 0.69870937 -0.26967347 162
-0.45395887 0.82156569 -0.26986113 114.5
-0.26847112 0.82909995 -0.27212158 129.66667
-0.11863033 0.84187907 -0.26977581 135.5
0.029601838 0.82623708 -0.27336505 138
0.1652506 0.80029237 -0.27947003 141
0.2777845 0.80285639 -0.28110459 141
0.38470423 0.79666698 -0.27397606 145
-0.32684991 0.90428162 -0.27777639 118.5
-0.16745383 0.92336226 -0.27340215 130.5
-0.024371279 0.95155102 -0.28198195 131.66667
0.0052913367 0.88443434 -0.28000468 134
0.13024797 0.93148839 -0.29538256 133
-0.010986936 0.1436213 -0.024007067 128.57143
0.023715977 0.13106439 -0.07201682 137.60001
-0.030305607 0.15116386 -0.0075001814 134
