# .PCD v0.7 - Point Cloud Data file format
VERSION 0.7
FIELDS x y z intensity
SIZE 4 4 4 4
TYPE F F F F
COUNT 1 1 1 1
WIDTH 141
HEIGHT 1
VIEWPOINT 0 0 0 1 0 0 0
POINTS 141
DATA ascii
-0.51032287 -0.86024052 -0.026309678 106
-0.47300947 -0.82478768 -0.031565439 108
-0.56334752 -0.72630668 -0.059684675 107
-0.42963484 -0.78455609 -0.040140878 112.5
-0.37090912 -0.73096484 -0.05397122 121.33334
-0.52971184 -0.70143414 -0.064345494 111
-0.45152852 -0.64478141 -0.078663349 122.2
-0.31937081 -0.6838969 -0.066033028 132.5
-0.26431832 -0.63135231 -0.073228836 140.66667
-0.60100955 -0.58262593 -0.08963301 110
-0.5416764 -0.54954594 -0.097437046 118
-0.49886182 -0.52698004 -0.10773486 124
-0.34240776 -0.56369591 -0.092668816 138.25
-0.25959215 -0.56102806 -0.088726886 145
-0.17969109 -0.55128062 -0.086069785 147.60001
0.82634777 -0.55030638 -0.083297648 186.75
-0.61583215 -0.43953916 -0.11247732 114
-0.56795412 -0.41845122 -0.11085665 119
-0.43172252 -0.48711267 -0.1078942 135
-0.36027747 -0.4472281 -0.11715589 143.75
-0.23980813 -0.4870393 -0.10463131 150
-0.13978232 -0.46800444 -0.095680542 145.8
-0.066276424 -0.44125783 -0.096464589 143.83333
0.75100601 -0.46226898 -0.093530655 189.14285
0.8717553 -0.46694797 -0.1165534 188.75
-0.53628671 -0.40637317 -0.11781761 124
-0.44752687 -0.36857802 -0.12042107 138.75
-0.34247178 -0.34227648 -0.12527068 148.66667
-0.25157386 -0.3837257 -0.12120084 148.2
-0.15170704 -0.36991492 -0.11594022 142.5
-0.037069 -0.3696163 -0.12658411 154
0.047570202 -0.34644398 -0.14601833 171.54546
0.66736144 -0.3620708 -0.11494477 181.81818
0.74581712 -0.36307493 -0.11820498 185.81818
0.83055127 -0.35222706 -0.10755526 188.85715
0.92185122 -0.40168184 -0.1139331 191
-0.25018063 -0.28429726 -0.12523463 149
-0.13793312 -0.2552433 -0.1380312 146
-0.053730763 -0.2710048 -0.15492351 161.64706
0.029923992 -0.29982859 -0.15686901 172.44444
0.17502162 -0.22831449 -0.17024733 148
0.58392853 -0.26052061 -0.1438358 174
0.64782089 -0.27008751 -0.14095865 177.84
0.74586248 -0.25833464 -0.12486982 182
0.85050946 -0.27153561 -0.11860874 187.5
0.91871274 -0.2531985 -0.12459727 190.33333
-0.69981527 -0.20415519 -0.16965723 115
-0.62582016 -0.19163403 -0.16929227 122.33334
-0.52203268 -0.17429711 -0.1702811 136.5
-0.43375671 -0.15934147 -0.16980053 146.33333
-0.3622219 -0.1472975 -0.16992678 147.75
-0.26067981 -0.12883307 -0.16124842 147.5
-0.049058154 -0.20704331 -0.16725595 167.875
0.032740194 -0.12376349 -0.16936012 134.5
0.1868394 -0.18835026 -0.17431644 143.8
0.21551184 -0.17735672 -0.17615652 148.33333
0.48423326 -0.14036405 -0.17758968 156.42857
0.55015206 -0.17120767 -0.17243238 165.2
0.647053 -0.16736576 -0.15572697 174.51428
0.75741655 -0.1697157 -0.14793588 180.52
0.85835606 -0.16958849 -0.13531519 186.38461
0.92683423 -0.1569877 -0.13286957 190
-0.63893533 -0.068231583 -0.17874531 120.66666
-0.53383493 -0.063588351 -0.1786758 136.25
-0.43520072 -0.059139453 -0.17788899 147.75
-0.34341812 -0.054369062 -0.17179856 151.5
-0.23574837 -0.056855917 -0.16458829 147.66667
-0.17095748 -0.083333202 -0.17293699 145
-0.084646463 -0.074271284 -0.19061613 166.375
0.032348894 -0.11442477 -0.12024046 145.33333
0.15761025 -0.082774661 -0.18781731 141.85715
0.48417255 -0.09733852 -0.18347365 161.08333
0.51643789 -0.088067301 -0.18423174 157.8
0.66317904 -0.068776496 -0.17548379 173.52942
0.75840634 -0.065124825 -0.17064752 179.41379
0.84936005 -0.051062413 -0.15714179 185.35715
0.93206549 -0.055987917 -0.15794808 189
-0.70247668 0.05853736 -0.20523255 116
-0.63302356 0.05327737 -0.20388108 121.66666
-0.52662814 0.045330714 -0.20049512 138.5
-0.4293659 0.0380559 -0.19761002 151
-0.35879171 0.032797311 -0.19531482 151.33333
-0.24903381 0.025476752 -0.18098426 146.25
-0.17173196 0.018954232 -0.18811363 144.71428
-0.080416553 0.010876337 -0.20094748 168
0.15905105 0.0084612882 -0.2000517 143.39999
0.66044778 0.032530881 -0.18997517 173.86957
0.75907135 0.043407604 -0.18501593 180
0.85719371 0.035132553 -0.17049238 186
0.92524713 0.043632064 -0.16960834 189.66667
-0.51302731 0.15486555 -0.2162476 140
-0.46006423 0.1442208 -0.21705487 141
-0.36372921 0.12513153 -0.21202604 147.39999
-0.23980597 0.11790828 -0.1984558 145
-0.16019601 0.12153237 -0.20228834 147.17647
-0.050713368 0.14863077 -0.21914694 166.5
0.15907754 0.14045264 -0.15149401 135.42857
0.22769068 0.12164272 -0.14756803 131
0.65069884 0.12321249 -0.20581953 176.05263
0.7524783 0.13348055 -0.19968045 181.52942
0.85601634 0.12272447 -0.19198287 187
0.93734759 0.11017943 -0.18440352 191
-0.70788699 0.19355802 -0.22515045 112
-0.63571829 0.17897615 -0.22782703 123
-0.50628036 0.26815492 -0.23117229 134
-0.45634824 0.25179917 -0.23165238 141.66667
-0.35021326 0.21705298 -0.22198252 148.60001
-0.2398092 0.21775194 -0.21034807 145.85715
-0.13781716 0.22158287 -0.2110922 145.27272
-0.079980284 0.26590034 -0.17589723 134
0.16047889 0.21353166 -0.20453161 153
0.74558926 0.2234838 -0.21058041 184.15384
0.83401501 0.22697164 -0.21018463 187.875
0.91612196 0.20958164 -0.21488743 190.5
-0.7114768 0.33536625 -0.24563029 112
-0.63493359 0.31029156 -0.24048629 119.66666
-0.58279735 0.29320544 -0.24245904 128
-0.42550656 0.35729307 -0.24433947 141.33333
-0.3325004 0.31339252 -0.2330078 146.33333
-0.24719 0.32223287 -0.23341289 145.75
-0.13645478 0.30348805 -0.20095289 144.75
0.020768233 0.36622038 -0.23906013 166
0.83980662 0.28918374 -0.21884392 190.33333
-0.62162638 0.44938582 -0.25658852 115
-0.54018724 0.41135633 -0.25656247 127
-0.33747739 0.43414658 -0.256632 148.5
-0.26846653 0.38975963 -0.24252345 145
-0.02777366 0.41678646 -0.24048313 153.25
0.0093544628 0.37745306 -0.23648833 159
-0.70685405 0.48956418 -0.2654182 111
-0.13197555 0.52926046 -0.26097599 140.66667
-0.082699373 0.47664651 -0.25379327 142.5
-0.013489647 -0.10566221 -0.0043697781 132.39999
0.003680368 -0.10631505 -0.034099106 131.85715
0.01838791 -0.10713965 -0.060938835 135.30769
0.14778744 0.15328901 -0.087316796 132.21875
0.21620727 0.13487048 -0.11240289 119.42857
0.063955605 0.28210446 -0.065592043 142
0.1105504 0.18743517 -0.1135872 146
-0.037127074 -0.1079695 0.019736784 132.33333
0.12786785 0.19562055 0.023937907 126.41666
