# .PCD v0.7 - Point Cloud Data file format
VERSION 0.7
FIELDS x y z intensity
SIZE 4 4 4 4
TYPE F F F F
COUNT 1 1 1 1
WIDTH 17
HEIGHT 1
VIEWPOINT 0 0 0 1 0 0 0
POINTS 17
DATA ascii
-0.12338173 0.82068533 -0.2799111 0
-0.071449906 -1.1235708 -0.038745668 4
0.11113922 0.75305563 -0.27825126 0
0.13015532 -1.9418966 0.10673484 6
0.29043174 0.66902792 -0.27466875 0
0.39306986 -1.6305635 0.070682637 6
0.39834517 -1.1030418 -0.038848016 4
0.53511775 0.51843804 -0.25636199 0
0.46375468 1.0756942 -0.32540697 2
0.53044826 -0.97436476 -0.06177488 3
0.68635792 0.57254976 -0.26191711 1
0.64946395 0.7297287 -0.28328478 1
0.79114836 0.78524441 -0.2785666 2
0.68082196 -1.0152295 -0.064137504 4
0.65351677 -0.92813784 -0.070127226 3
0.72195542 -0.76342559 -0.096827887 3
0.98184961 -0.73794073 -0.091077276 3
