# .PCD v0.7 - Point Cloud Data file format
VERSION 0.7
FIELDS x y z intensity
SIZE 4 4 4 4
TYPE F F F F
COUNT 1 1 1 1
WIDTH 144
HEIGHT 1
VIEWPOINT 0 0 0 1 0 0 0
POINTS 144
DATA ascii
-5.1278858 2.5797677 1.1174415 13
-4.9546356 2.1945972 1.3928338 14
-4.6381764 2.9217451 0.90701151 12
-4.6548338 3.2075241 1.2161783 13
-4.7306929 2.8563063 1.5226288 14.5
-4.5613875 3.391027 0.90884697 11
-4.5242224 3.4386244 1.5687336 14.5
-4.228374 2.2878859 0.4336344 10
-4.0707235 1.9572639 0.18289469 8
-4.0738211 1.9678299 0.29976973 9
-4.0253887 2.6684844 0.31600916 9
-3.9290431 1.6785896 0.37577119 10
-3.9338512 2.7111552 0.23004347 8
-3.5440786 1.0377173 0.95398909 15
-3.5042458 3.7366307 1.1258894 13
-3.4250066 3.7752018 1.2798488 14
-3.3080251 3.9022219 1.5581834 15
-3.0515821 3.1423042 0.21315488 8
-3.1602385 3.0864108 0.30591124 9
-3.1953144 3.1700439 0.5870806 11
-2.9567204 -1.7403424 -0.0027451185 8
-2.9227026 -1.8082763 0.16559023 9
-2.8760111 3.5113156 0.39777985 9
-2.9628441 3.6980693 0.2718395 8
-2.8298745 4.3798099 0.59425014 10
-2.9279029 4.5898776 0.53437185 9
-2.8403592 4.4155045 0.73200756 11
-2.8875782 4.5741196 1.2984999 13
-2.8744252 4.5967193 1.7361553 15
-2.7881005 4.3830004 1.0537473 12
-2.3150895 4.5765705 0.49473417 9
-2.3714979 4.5694242 0.74049026 11
-2.4202833 4.5196061 1.2874354 14
-2.282342 4.6209865 1.1221924 13
-2.3480484 4.8909283 1.1549389 12
-2.2008021 4.9944301 0.74941689 10
-1.257318 -0.44888088 0.23994109 13
-1.3046401 -0.3105036 0.31018957 14.5
-1.0471803 -0.88103509 0.21598996 12.5
-1.2016349 -0.52899927 0.31576622 15
-1.0652676 -0.84369892 0.35942504 15
-0.90172571 -1.1372317 0.24424934 12.666667
-0.95903105 -0.96532387 0.34992981 15
-1.0223328 5.605731 1.5572836 14
-0.92643005 5.6593547 1.7856522 15
-0.62423319 5.7859912 0.65803957 9
-0.6290344 -3.4061546 0.9107269 15
-0.33587453 -3.3732414 0.010496342 8.5
-0.30576909 -3.1145101 0.2223085 10
-0.29157802 -1.5011148 0.17525756 11
-0.36864516 -3.3495646 0.44344878 12
-0.26093403 6.0080476 1.8676946 15
-0.087308049 0.8852374 -0.19536525 0
0.0029681851 -2.1374853 -0.16509485 6
-0.11919568 -3.1313887 0.30400628 11
-0.14030135 6.0191817 0.88419169 10
-0.024961915 -3.2429512 0.74094105 14
-0.06154589 6.0301538 1.2332407 12
-0.042999361 6.0383663 1.4260164 13
0.17249876 0.69035965 -0.18559377 0
0.056482766 -3.1576445 0.10082968 9
0.19305003 -3.1021118 0.40406299 12
0.014300332 -3.2282269 0.83795983 15
0.11726934 6.1512218 1.0191133 11
0.33423561 1.2589382 -0.16968681 2
0.33551309 -0.9520933 -0.15591823 3
0.44794047 0.73457921 -0.17077209 0
0.56100518 0.80666685 -0.16531059 1
0.46439889 -1.0122074 -0.15891996 4
0.57455784 -2.8719006 0.094806604 9
0.53006411 -2.0776758 0.21565722 10.5
0.47873142 -2.8781261 0.5868355 14
0.61275834 1.0393974 -0.16193724 2
0.65322155 1.2112423 -0.16747719 3
0.70345211 6.4961591 1.8437263 14
0.96827328 -2.6296685 0.27620977 10.5
0.84112591 6.5017247 0.69074035 9
0.82358468 -2.6981006 0.59403431 14
0.862674 6.467711 0.8285982 10
0.83307266 6.4908223 1.0288472 11
0.79631394 6.4576344 1.4065565 12
0.87704068 6.4617891 1.5340708 13
0.84232098 6.4436288 2.1326103 15
1.3214632 -2.4728909 0.15357292 9
1.3026539 5.6205916 0.74117023 10
1.3144648 5.5988088 1.0314442 11
1.2898847 5.6720839 1.3410709 12.5
1.3431224 5.3570075 1.5587054 14
1.2451911 5.7858315 1.8234038 15
1.5762324 -2.2507288 0.10790049 9
1.592507 -2.2434328 0.2600317 10
1.5780613 -2.2553859 0.50833583 12.5
1.4944371 5.2433105 0.65188301 9
1.7246124 4.7813745 0.65462077 10
1.6243477 4.9682131 0.88758093 11
1.5932398 -2.3455935 0.7796784 15
1.5832154 5.0967917 1.0591317 12
1.6179311 4.8234043 1.5280871 14
1.6169174 5.0386987 1.6356301 15
1.9393394 -2.14222 0.046899874 8
1.9455414 -2.057477 0.28496903 10.5
1.9187267 -2.0958848 0.69392937 14
1.872762 4.4989266 1.2122368 13
1.8983628 4.3269553 1.4060966 14
1.9897381 4.2664461 0.49414304 9
2.1265426 3.9926343 0.568299 10
2.1164858 -1.9639976 0.76200414 15
2.015085 4.2206831 0.92264432 12
2.3707151 3.4818406 0.73988879 11
2.1870003 3.8290224 0.71448112 11
2.3289087 3.594527 0.94947881 12
2.2875371 3.6595418 1.0800103 13
2.2523236 3.7259099 1.2017528 14
2.2278066 3.7846377 1.3407348 15
2.4009256 3.4436109 0.5059939 9
2.4318743 3.4373832 0.62092602 10
2.5172069 3.3994422 1.3855233 15
2.7377975 3.4872799 0.098542713 7
2.719398 3.5733817 0.87028581 12
3.1277506 3.3897603 0.35601309 8
3.010757 3.3725975 0.46664283 9
3.0429475 3.7115858 0.83939165 11
3.6135633 0.10289211 0.1102643 7
4.1312079 -2.1643813 0.74427313 12
4.2384958 -0.92395037 0.031212823 7
4.1981678 -2.0004294 0.63177818 11
4.2121091 0.22509496 1.143046 14
4.4964557 0.52078807 0.3938503 9
4.902699 4.6939406 1.1826539 11
4.9589891 4.5483851 1.8959918 14
5.0648026 4.4707398 0.45767057 8
5.0317993 4.4833255 0.68053913 9
5.0267854 4.4566617 0.84938794 10
5.0867791 4.3720574 1.35455 12
5.0882258 4.3438582 1.5536299 13
5.1088748 4.2530632 2.2453115 15
5.2427111 4.3123913 1.1378531 11
5.518363 3.736753 0.83784258 10
5.5707932 3.598479 1.5431129 13
6.1374593 2.5803018 0.026815431 6
6.0913305 2.6873274 1.7058681 13.5
6.3701892 2.162658 1.6164874 13
7.7102828 -0.43301308 2.3518705 15
8.7709389 -3.2870905 2.4451442 14
