# .PCD v0.7 - Point Cloud Data file format
VERSION 0.7
FIELDS x y z intensity
SIZE 4 4 4 4
TYPE F F F F
COUNT 1 1 1 1
WIDTH 155
HEIGHT 1
VIEWPOINT 0 0 0 1 0 0 0
POINTS 155
DATA ascii
-4.4990001 -1.6240811 1.0879232 15
-4.4863114 -1.1174816 0.99143595 15
-4.4776163 1.4566256 1.2040659 15
-4.3512788 3.8336887 1.0555117 12
-4.3205528 4.6551003 1.0412264 12
-4.3298283 -2.8003707 0.90285027 14
-4.4371457 -0.59517157 1.0304353 15
-4.3291612 4.7283082 1.3011773 13
-3.9352009 -2.8116381 0.98202533 15
-3.7800744 1.6344284 0.012932072 8
-3.7212369 2.2104597 0.10019577 8
-3.7457745 2.8791711 0.19318907 8.5
-3.7289784 3.5629544 0.3009254 9
-3.7314394 3.7635891 0.2071795 8
-3.7760894 1.7823943 0.3228597 10
-3.7613926 3.0791306 0.45317253 10
-3.7466917 3.8457623 0.56280422 10
-3.7283695 4.797369 0.78350896 10
-3.7698755 2.1190722 0.79318684 13
-3.7858281 2.6230192 0.89495099 13
-3.7928326 1.6070747 1.0187707 14.5
-3.7743967 2.2520328 1.1133369 15
-3.53144 5.0845013 1.1611599 12
-3.6028214 5.0248094 1.3942943 13
-3.6042299 5.0252728 1.7122233 14
-3.1106544 -2.3247681 -0.12361907 8
-3.0652115 -2.765682 0.012836019 9
-3.130662 -2.3571882 -0.00012969314 9
-3.2273946 -2.8009398 0.85873079 15
-2.9954944 -2.7897742 -0.020917205 9
-2.8744326 -2.800281 0.33154652 11
-2.9329219 -2.8062723 0.77358067 14
-2.7283432 -2.7934632 -0.2239185 7
-2.7593904 -2.8150444 0.60173231 13
-2.7286503 -2.814611 0.77292186 15
-2.5800304 4.2127824 0.32979658 8
-2.3665729 -0.53620046 0.1918067 10.5
-2.3658159 -0.50571191 0.31031558 12
-2.4361186 4.2501621 0.78907645 11
-2.2948608 -2.8167 0.70524329 15
-2.412379 4.9588122 1.0425913 12
-2.3909841 4.9323001 1.3651335 13
-2.2070813 4.9708753 0.64934802 10
-2.1496277 -2.8198652 0.68330771 14
-2.2688386 4.9268036 1.4269981 14
-1.722695 5.3952794 0.65308625 9
-1.8584576 5.1457376 1.2639853 13
-1.5226343 -2.1196868 -0.023647869 9
-1.5063508 5.1275229 0.65125537 10
-1.2911792 -2.7406301 -0.089281857 8
-1.3907299 -2.7793536 0.043489158 9
-1.3844122 5.1015077 1.5221665 14
-1.434286 5.3704939 1.4357917 13
-1.0344367 -2.8186958 -0.16027619 7
-1.2404504 5.3687043 1.0518092 11
-1.2467448 5.3199787 1.8831546 15
-0.85534352 -2.7619431 0.15167075 10
-0.9486143 -2.8412485 0.27881366 11
-0.85854411 -2.7675815 0.27954561 12
-1.0032762 5.1065402 0.66191304 9.5
-0.95488745 -2.8504729 0.59383202 14
-0.98237842 5.0844131 1.0359676 12
-0.91560757 5.3625889 1.6200854 14
-0.79345763 -2.75418 -0.0095584514 9
-0.80111796 -2.7755201 0.64358157 15
-0.77174997 5.3858266 1.0693549 11
-0.41278419 0.90497237 -0.21733361 0
-0.42157358 -2.8653316 -0.14259011 7
-0.40248725 -2.752661 0.00052875717 9
-0.57094085 5.3896828 0.78926426 10
-0.52960956 -2.7657065 0.47459072 13
-0.33693343 -2.7849824 -0.050579127 8
-0.31047329 -2.7849946 0.167557 10.5
-0.28930274 -2.7765417 0.28836197 12
-0.30225244 -2.7882042 0.59654468 14.5
-0.016354725 0.79188901 -0.18852314 0
0.035326876 -0.65521991 -0.23460607 0
0.09118405 0.82653296 -0.17819129 0
0.099119909 -1.1617882 -0.22887442 3
0.26451197 -0.72297305 -0.22568399 0
0.27069327 0.76885504 -0.16880043 0
0.28818399 1.1153471 -0.16082034 1
0.40807086 -1.2523631 -0.21005359 3
0.51802015 -0.42680767 -0.20163471 0
0.48480991 0.58043617 -0.15433881 0
0.50842839 0.73488462 -0.14732227 0.33333334
0.4270871 1.1191354 -0.13908364 2
0.75798422 0.61288124 -0.13624981 1
0.70645642 -0.89542669 -0.18757512 2.5
0.79247838 0.91315436 -0.11606797 2
0.82367063 0.7212795 -0.12946115 2
0.88063568 1.1057173 -0.11297426 3
0.96321863 -0.57243115 -0.16004431 3
1.4738572 5.2972617 1.4414451 13
1.4673208 5.2844954 1.6999799 14
1.7151647 -4.2121811 0.40997848 10
1.861672 -12.305896 1.1053499 11
2.6701782 1.9083992 0.39106908 8
2.6771894 1.8363247 0.50450891 9.5
2.6716921 2.4953809 0.60743779 10
2.6879952 2.6013901 0.49840018 9
2.7053444 3.4749198 0.67724913 9
2.7142727 -3.0570173 0.55568558 11
2.6565399 1.8358679 0.63090086 11
2.6639853 2.3519406 0.70438921 11
2.6889489 3.1212759 0.77790821 10.5
2.710604 3.8158791 0.79581094 10
2.7322476 5.2706203 0.84483361 9
2.6703999 1.8513497 0.92302489 13
2.645901 2.2765367 0.94300544 12.5
2.6769447 3.2603247 1.0768998 12
2.7101297 4.0878024 0.95001268 11
2.7351503 5.1265364 1.0945464 10
2.7335079 5.2532125 1.1903033 11
2.6881473 1.8032517 1.1143914 15
2.6425354 2.260972 1.1052303 14
2.6707587 3.0598836 1.1631496 13
2.7067549 4.1755757 1.2259158 12
2.6398137 2.8314052 1.347 15
2.6596186 3.1685855 1.3102167 14
2.6922545 4.1699014 1.4009743 13
2.6537447 5.2621956 1.4723711 12
2.6827967 4.3125186 1.57526 14
2.6547794 5.2349739 1.7089918 13.5
3.1740818 1.4866599 0.46722266 8
2.959609 1.7959131 1.1527138 14
3.2049806 1.7940428 0.63511217 9
3.4008334 1.7865685 1.3238615 14
3.5737462 1.7775878 1.1235077 12
5.2945433 -8.4545822 2.0369637 13
5.5307851 -1.3848492 0.13865112 6
5.5585961 -0.43889189 0.10187373 5
5.4423819 1.2177209 0.18588264 5
5.5187511 -1.4096413 0.32477626 7
5.4819903 1.4024267 0.40124241 6
5.456871 1.5695585 0.60943705 7
5.4505019 1.683938 0.65816802 8
5.4250841 1.531023 0.93445027 9
5.5086551 -1.4839935 0.8011288 9
5.4287672 1.7178687 1.1474178 10
5.5031323 0.078003258 1.1830842 11
5.433434 1.3693681 1.2575971 11
5.4769044 -0.62557018 1.5173992 13
5.5055809 -0.43842033 1.5041121 12
5.5288744 1.2083877 1.581022 12
5.4203019 1.7508277 1.672695 12
5.4698958 -1.3082031 1.6825455 13
5.4855666 -0.12678088 1.7515171 14
5.3929391 1.3565873 1.9065468 14
5.412971 1.6803168 1.8237958 13
5.3235316 -7.2574048 1.9965353 14
5.5906024 1.1388502 0.49444011 7
5.5897937 2.1220691 0.4697642 6
5.5356631 1.0481162 1.7712717 13
5.5383983 2.0149393 2.0862553 14
