# .PCD v0.7 - Point Cloud Data file format
VERSION 0.7
FIELDS x y z intensity
SIZE 4 4 4 4
TYPE F F F F
COUNT 1 1 1 1
WIDTH 85
HEIGHT 1
VIEWPOINT 0 0 0 1 0 0 0
POINTS 85
DATA ascii
-0.48817956 -0.81631094 -0.30715734 136
-0.46561581 -0.79615241 -0.30803525 137
-0.39949787 -0.73332459 -0.29413021 146.5
-0.34797776 -0.68505549 -0.28632143 156
-0.30621737 -0.64634544 -0.28182501 161
-0.26666641 -0.60808265 -0.27053818 164
-0.33094642 -0.51253051 -0.26407233 165.66667
-0.19720063 -0.542997 -0.26003057 167.5
-0.17505306 -0.52236837 -0.25721997 170
0.8292082 -0.52929515 -0.15938687 197.5
-0.24376617 -0.44908562 -0.25065431 171.66667
-0.11651167 -0.43571222 -0.23775727 170.75
-0.054820832 -0.40834346 -0.23297204 173.83333
0.75728822 -0.42917967 -0.14899886 192.5
0.85923481 -0.43607378 -0.14613383 195.25
-0.1220364 -0.36086428 -0.23430809 172
-0.038337845 -0.33883926 -0.22648905 179.22223
0.67754024 -0.32351568 -0.15481979 185.17647
0.75715524 -0.33234218 -0.1376148 189.2
0.84659106 -0.32821012 -0.13101794 192.83333
0.9375754 -0.34231889 -0.13464876 196
-0.28449932 -0.2554031 -0.23838793 160
0.063157126 -0.22605281 -0.20493965 176.66667
0.16954309 -0.19413015 -0.17993043 161
0.60075384 -0.22347184 -0.16125767 177.83333
0.65882057 -0.23432516 -0.15609367 180.38889
0.7550925 -0.22672246 -0.1358849 186.04546
0.8722207 -0.23389626 -0.12172651 192.09091
0.9358508 -0.21318012 -0.12004235 194.5
-0.60453808 -0.12216888 -0.25833836 157
-0.43227619 -0.10124097 -0.18997517 162
-0.35668135 -0.10770578 -0.19460422 146.2
-0.24103531 -0.15241513 -0.23208381 170.75
-0.16814762 -0.13316932 -0.22248675 174
-0.045036696 -0.1593475 -0.19351478 151
0.065841362 -0.13575135 -0.14982449 151
0.17861538 -0.12764615 -0.10946187 135.5
0.22769497 -0.12720403 -0.11551071 124.75
0.6628713 -0.13904145 -0.14591402 178.25926
0.77850407 -0.12469292 -0.13119304 184.52174
0.86677146 -0.13572995 -0.11364089 189.625
0.93977743 -0.14166209 -0.10296822 194.33333
-0.29926816 -0.079795375 -0.23163705 173
-0.21593918 -0.05018976 -0.22102118 169
-0.1722534 -0.062270809 -0.21846995 170
0.68312162 -0.028229823 -0.13312244 177.84616
0.77271032 -0.024414163 -0.12541422 182.41667
0.85327512 -0.031183779 -0.10216451 188.38461
0.93452388 -0.032692157 -0.093695782 192.77777
0.68029469 0.076159991 -0.12604794 177.47826
0.77668166 0.074087732 -0.11729441 182.81818
0.85425478 0.066195026 -0.09452273 188.72728
0.95227164 0.065483063 -0.086066924 193.33333
-0.17345774 0.15098166 -0.20174257 161
0.088666737 0.17082277 -0.095789038 137.58333
0.11834004 0.18390235 -0.10410336 140.25
0.6613825 0.16898231 -0.11859132 178.34782
0.7698769 0.17032519 -0.10358462 184.38095
0.87887573 0.15677737 -0.088617526 190.39999
0.92911732 0.15792412 -0.079024076 194.2
-0.16523273 0.28028381 -0.18940698 175
0.65499592 0.23629971 -0.11501728 180.14285
0.74550641 0.26982769 -0.09621314 186.52632
0.85904974 0.27054518 -0.082697973 191.63637
0.97248942 0.25597847 -0.082300946 194.5
-0.30444828 0.372426 -0.17352714 170
-0.24629828 0.34271696 -0.17144503 174.125
0.78901464 0.35277772 -0.08709503 190.2
0.84064901 0.36117736 -0.073646203 194.60001
0.93166924 0.36755213 -0.081509918 195.5
-0.27752164 0.45181891 -0.10943425 154
0.89290917 0.4389393 -0.084778406 195
-0.068243958 -0.2976248 -0.07013274 161
0.007588326 -0.23650667 -0.020083306 151
-0.10076329 -0.17849171 -0.12195382 153
-0.028632106 -0.14835595 -0.077737011 132
0.073410586 -0.14882748 -0.061030593 131.17647
0.13936684 -0.12882587 -0.09113387 125.86364
-0.0455948 0.18880582 0.0013984521 144
0.092597879 0.17758287 -0.041692451 131.75
-0.14874323 0.25787392 -0.055079307 159.66667
-0.035425972 0.25099486 -0.0086329775 148
0.014681257 0.21092835 0.0082824938 131
0.071922928 -0.15142339 0.0064539746 135.39999
-0.019378997 0.17031302 0.018785056 133
