# .PCD v0.7 - Point Cloud Data file format
VERSION 0.7
FIELDS x y z intensity
SIZE 4 4 4 4
TYPE F F F F
COUNT 1 1 1 1
WIDTH 109
HEIGHT 1
VIEWPOINT 0 0 0 1 0 0 0
POINTS 109
DATA ascii
-0.42934191 -1.3289814 -0.28079724 3
-0.4571352 -0.95332378 -0.27340874 1.8
-0.4767096 -0.73018658 -0.26568604 0.66666669
-0.46100628 1.8291466 -0.15965934 3.5
-0.60681707 2.1455836 -0.16364111 4
-0.051002834 -2.6442719 -0.29806283 5
-0.24352436 -2.1045945 -0.30627418 5
-0.15724774 -1.8150704 -0.28591934 4
-0.17067781 -1.4058652 -0.26991159 3.5
-0.19038203 -0.97093916 -0.26330212 1.4166666
-0.21140841 -0.67092341 -0.25013381 0
-0.084270619 1.0294331 -0.17403622 1
-0.18031096 1.3845563 -0.15670843 2.5999999
-0.24316694 1.7474589 -0.14754263 3
-0.26085249 2.0199795 -0.098850913 4
0.29161933 -3.0601573 -0.32755736 5
0.30438435 -2.641691 -0.30413175 5
0.31448826 -2.3273032 -0.28815714 5
0.23761216 -1.7425224 -0.2398151 4.5999999
0.23101857 -1.37795 -0.25024992 3.4000001
0.21226665 -0.98655581 -0.24413006 1.5
0.26031071 -0.65121973 -0.22745875 0
0.20934226 0.74268502 -0.16927531 0
0.2057488 1.0184298 -0.16521472 0.8888889
0.24149023 1.4525489 -0.10301004 3.25
0.11568382 1.7433892 -0.069331907 4
0.79151183 -4.0176554 -0.34338552 6
0.7442795 -3.5436747 -0.3232297 6
0.70259315 -3.1357491 -0.30268463 6
0.64833105 -2.6230733 -0.27108842 5
0.61426944 -2.2867594 -0.2551066 5
0.67153448 -1.7637051 -0.20585337 4.8333335
0.61860603 -1.3605608 -0.2283913 3.6666667
0.59187901 -0.99921441 -0.22632845 2.2
0.61696154 -0.58349836 -0.20310788 0.66666669
0.61606532 -0.35231283 -0.18810499 0
0.74617833 0.26421535 -0.14456969 0.2
0.63082391 0.60944176 -0.1391672 0.5
0.61255717 1.0052907 -0.13636303 1.5555556
0.61678821 1.4183751 -0.11155833 2.8571429
0.63021177 1.7464105 -0.092539914 3.8
0.53005284 2.0178835 0.0019663314 5
0.86098123 -4.700861 -0.37673295 6
0.98974818 -2.5746374 -0.25582471 5
0.9933266 -2.1688478 -0.23268946 5
1.0186065 -1.6737413 -0.21378884 4.5
0.93396026 -1.3046657 -0.2108881 3.75
0.96728051 -0.99623919 -0.20236009 3.125
0.88088375 -0.69603825 -0.19588596 2
0.92648661 0.31868356 -0.13881186 1
1.0146238 0.63978356 -0.12343341 2
1.0119574 0.9843148 -0.10679139 2.7142856
1.0010287 1.4059602 -0.088294111 3.5
1.037186 1.8268514 -0.070021994 4
1.0023901 2.155937 -0.059707168 4
1.0416322 3.0274153 -0.021121824 5
1.1766106 3.643923 0.0032358796 5
1.5936222 -3.2035503 -0.2614367 6
1.4707555 -2.8752844 -0.25276557 6
1.3329228 -2.5058153 -0.24436688 5
1.4208331 -1.8042843 -0.1846025 5
1.3204666 -1.4096054 -0.18432249 4.5
1.3389438 0.59086972 -0.10384845 2.8
1.358031 1.0166578 -0.080333136 3.5
1.412125 1.3760751 -0.063996918 4
1.4005359 1.7981142 -0.054737732 4
1.5167376 2.2163908 -0.037125889 4.5
1.328346 2.6411698 -0.029364686 5
1.4202888 2.9006908 -0.01357425 5
1.5517507 3.2673411 0.0035164915 5
1.2867588 4.1536655 0.028098091 5
1.4280705 4.9093528 0.13631384 5.5
1.9580896 -4.2142477 -0.24688639 6.5
1.7618816 -3.6503179 -0.2763378 6
1.6955477 -1.8800886 -0.11453072 6
1.6597176 0.66024417 -0.078815699 4
1.8118415 0.97809821 -0.0544433 4
1.8566045 1.4658995 -0.043086302 4
1.8008013 1.8174226 -0.037801493 4.5
1.827234 2.1106391 -0.025379751 5
1.6873057 2.5498085 -0.018384514 5
1.9865824 3.1377988 0.019915713 5
1.8959097 -2.3953619 0.35089356 11
1.7307341 -1.9973006 0.021331238 8
2.2250545 1.0428112 -0.04806935 4.3333335
2.3099508 1.3122787 -0.036295742 5
2.4023061 1.7778351 -0.0019944538 5
2.175036 2.018822 -0.012330499 5
2.1591065 2.5946386 0.0046902862 5
2.1278756 4.9324298 0.15076078 5.6666665
2.0314672 4.9292073 0.46805611 8
2.5377042 -4.0917525 -0.16256496 7
2.581681 1.1415144 0.074155428 5.5
2.459578 1.4308909 0.087093778 5.5
2.4098752 1.805811 0.097991176 5.5
2.5133474 2.4029322 0.028359344 5
2.5357542 2.467288 0.16386563 6
2.4944906 3.1447895 0.18847696 6
2.7647119 4.8220787 0.40185648 7
2.5063658 -4.1082392 -0.045293871 7.5
2.5608475 1.1609759 0.38586819 8.75
2.4418364 1.456943 0.33888566 8
2.40013 1.8410357 0.30141225 7.5
2.525856 2.5150363 0.36404786 7.5
2.5342393 3.2777033 0.38044441 7.5
2.4910917 4.4009137 0.57814544 8
2.7716575 4.8670754 0.4596608 7
2.800988 4.8304286 0.29225177 6
3.5023417 4.7936344 0.72968024 8
