# .PCD v0.7 - Point Cloud Data file format
VERSION 0.7
FIELDS x y z intensity
SIZE 4 4 4 4
TYPE F F F F
COUNT 1 1 1 1
WIDTH 121
HEIGHT 1
VIEWPOINT 0 0 0 1 0 0 0
POINTS 121
DATA ascii
-0.40636477 -0.82048178 -0.22990575 146
-0.33005106 -0.74157625 -0.22681879 159
-0.23078464 -0.63792282 -0.21906397 169
-0.73281527 -0.50368488 -0.23092712 129
-0.14445992 -0.5478273 -0.21249677 166.75
0.80389237 -0.50597954 -0.15962131 194
0.8309927 -0.53906286 -0.15878616 197.66667
-0.66715783 -0.47377476 -0.2265842 138.5
-0.57149875 -0.43016979 -0.220008 149
-0.042522855 -0.44071144 -0.20201448 174.39999
0.74678892 -0.44085124 -0.15132469 193.5
0.85550779 -0.43958753 -0.15136845 196.66667
-0.71553719 -0.33744267 -0.22718863 137
-0.62095529 -0.30809036 -0.22245032 149
-0.47437766 -0.38626811 -0.21730971 165
-0.33510354 -0.3232117 -0.2125169 174.39999
-0.063910507 -0.35795987 -0.17815512 172.1875
0.0088783167 -0.38877428 -0.20436972 182
0.66905892 -0.34285036 -0.16091175 185
0.75143588 -0.34437943 -0.14707577 189
0.84249598 -0.32872432 -0.13858092 192.33333
-0.73522294 -0.19684784 -0.22462484 140
-0.51522696 -0.2753115 -0.21794359 164
-0.39505163 -0.23777767 -0.20749414 172
-0.35111716 -0.22424635 -0.20753351 171.5
-0.24309255 -0.2490039 -0.19716497 171.66667
-0.14199384 -0.23467734 -0.1942561 172.75
-0.090439208 -0.21119858 -0.19099596 168.5
0.034756701 -0.27971148 -0.20561488 178
0.15098251 -0.20254834 -0.19882086 169.66667
0.59101313 -0.23318589 -0.17412435 177.16667
0.6441505 -0.24187236 -0.16392912 180
0.74935883 -0.23915379 -0.14754237 185
0.86349607 -0.240309 -0.13057029 190.77777
0.9202553 -0.23391847 -0.12336666 194.66667
-0.65291709 -0.18206848 -0.21908148 149
-0.53857809 -0.16154329 -0.21267727 160
-0.43008655 -0.14208487 -0.20928293 171.66667
-0.31814429 -0.12192307 -0.19746605 175
-0.23789448 -0.1368411 -0.19524208 170.09091
-0.17051104 -0.13478424 -0.19479027 173.27272
-0.054747794 -0.1400647 -0.19264279 174.42857
0.10071746 -0.12176133 -0.152283 145
0.16834284 -0.13147065 -0.16561106 156.14285
0.2429511 -0.11737725 -0.11880829 127.47059
0.48956594 -0.1101445 -0.18399139 168.33333
0.52861041 -0.11842977 -0.1838498 169.75
0.65787065 -0.14112343 -0.16296133 177.13158
0.76546478 -0.14602214 -0.14867435 183.71428
0.84213632 -0.14140224 -0.13173042 188.63637
0.93175918 -0.13295804 -0.13446642 192.60001
-0.4447324 -0.042379934 -0.21270429 176
-0.33346844 -0.036281768 -0.20186658 178.33333
-0.24504837 -0.031358205 -0.19577101 170.71428
-0.18521166 -0.027813789 -0.19883801 173
-0.077059284 -0.078776903 -0.20036437 177
0.12835254 -0.048042513 -0.19673641 165.66667
0.4908393 -0.051870342 -0.18258199 167.67647
0.53679502 -0.039416537 -0.17653045 168.65384
0.67669833 -0.052062467 -0.1625587 176.83333
0.75868624 -0.059402902 -0.15230793 182.06667
0.82511336 -0.049102254 -0.12938592 187.57143
0.92455125 -0.060443908 -0.125503 191.83333
-0.438463 0.062460765 -0.2079415 170
-0.32917953 0.054390963 -0.19805405 178
-0.25060314 0.048786975 -0.19373187 172.28572
-0.16900967 0.043475978 -0.19652888 173.39999
-0.081454366 0.037720002 -0.19891851 176.5
0.1133885 0.024055483 -0.19640374 166
0.49329928 0.054928355 -0.18126078 167.73334
0.53988314 0.051028758 -0.17780763 168.87692
0.67715198 0.040569536 -0.1600067 176.8125
0.75795275 0.04500233 -0.14949259 182.18182
0.83331048 0.03044432 -0.12930055 187.26666
0.93410712 0.03970312 -0.12386578 192.81818
-0.53163373 0.18754067 -0.20867606 165
-0.4188807 0.16492923 -0.20339827 172.5
-0.30631119 0.14156245 -0.19100612 178
-0.2452974 0.13947445 -0.18131402 172.57143
-0.17925216 0.13457216 -0.16707571 168.57143
0.027867557 0.11422513 -0.12236851 139.75
0.50046146 0.10754853 -0.18122143 169
0.52323377 0.11627816 -0.18153134 169.39999
0.6574133 0.15137346 -0.15999062 177.75
0.76861596 0.14675657 -0.15179352 184.27272
0.84929395 0.15293725 -0.13281423 189.58333
0.9280386 0.14664853 -0.12981571 194
-0.45718458 0.28481212 -0.19321269 165.5
-0.35712495 0.2478952 -0.16755109 169
-0.23068622 0.27894145 -0.18234588 173.39999
-0.14526545 0.2587913 -0.18983413 175.16667
0.65468758 0.24896796 -0.16096611 180.57143
0.74912226 0.24163945 -0.14721261 186.09525
0.86506557 0.25385883 -0.13280337 191.88889
0.93750888 0.22670147 -0.12865673 194.5
-0.34857467 0.3566888 -0.19919738 175
-0.23214236 0.35059226 -0.19294322 178.5
-0.14350681 0.34776267 -0.18649407 176
-0.061378893 0.35832313 -0.18569711 178.8
0.02823142 0.40437907 -0.18759495 183
0.74619532 0.34959969 -0.1380482 189.54546
0.83597118 0.33537796 -0.13756497 193
0.93284553 0.35449624 -0.14340702 195.5
-0.1215905 0.43855205 -0.18528758 175
-0.039900534 0.46292725 -0.18538146 176.75
0.015719539 0.41692752 -0.18472177 182.66667
0.84325951 0.43988144 -0.14009283 195.33333
-0.22161759 0.52451545 -0.18927282 176
-0.077311896 0.51963085 -0.18588538 170
0.0054583261 -0.27555025 -0.068803698 161
0.070014395 -0.16738443 -0.046947479 137.5
0.13102151 -0.13488546 -0.069143303 129.5
-0.11532557 0.15608262 -0.088883571 152
-0.044405475 0.15784769 -0.026573813 134
0.016718682 0.11102793 -0.078389779 130.33333
-0.190258 0.25980479 -0.091018043 166
-0.094761319 0.20480776 -0.042590432 156
-0.0066903797 -0.20548619 0.020423397 140
0.086891539 -0.17779534 0.038526528 145.625
0.10612169 -0.17345519 0.043117832 129.83333
-0.048434053 0.17272249 0.0073634195 137.75
