# .PCD v0.7 - Point Cloud Data file format
VERSION 0.7
FIELDS x y z intensity
SIZE 4 4 4 4
TYPE F F F F
COUNT 1 1 1 1
WIDTH 120
HEIGHT 1
VIEWPOINT 0 0 0 1 0 0 0
POINTS 120
DATA ascii
-0.65832406 -0.67412502 -0.2012369 135
-0.31982741 -0.5917697 -0.19969855 170
-0.3474195 -0.47315866 -0.19973809 169.5
-0.28670126 -0.43368533 -0.19810806 174
-0.12723745 -0.42991573 -0.19878355 177.5
0.68681598 -0.44426289 -0.19379158 192
0.74397129 -0.44221568 -0.19085047 194.16667
-0.70036781 -0.3628304 -0.20023257 146
-0.20274247 -0.3787252 -0.19354783 175
-0.14501581 -0.34044206 -0.18736576 178.71428
-0.055500027 -0.36954179 -0.19798756 183
0.65264511 -0.35005796 -0.18809384 187.30769
0.75538599 -0.35133147 -0.19133121 190.55556
0.84119624 -0.34098744 -0.18784057 195.39999
-0.69411021 -0.21927099 -0.18672051 145
-0.50682414 -0.29803386 -0.19819106 167
-0.39643019 -0.26126099 -0.19965848 181
-0.27413943 -0.2201308 -0.19613029 181.25
-0.061194498 -0.25787297 -0.16261217 167.33333
0.12988259 -0.21256067 -0.19020827 170
0.57764482 -0.25672033 -0.19469403 179.125
0.62232286 -0.22768581 -0.19546242 180.125
0.73823136 -0.25079894 -0.1850947 187.13333
0.84392643 -0.25879771 -0.18946823 192.2
-0.56028861 -0.19086286 -0.15543711 146
-0.32746238 -0.14489275 -0.19328493 182
-0.24685299 -0.13586777 -0.18664397 174.3
-0.18110366 -0.15684058 -0.19603992 180.42857
0.0848637 -0.17679788 -0.12863229 154.3
0.16038004 -0.15875635 -0.13946223 132.72728
0.20102905 -0.14639512 -0.15897992 122
0.65158105 -0.15381657 -0.19421908 179.3158
0.76601279 -0.16264188 -0.18558873 186.33333
0.86491013 -0.14267135 -0.18769944 191.3
0.91922283 -0.15237588 -0.1865886 194.25
-0.68366402 -0.087389313 -0.19545142 151
-0.55812949 -0.077129766 -0.19515938 167
-0.44787621 -0.068109885 -0.19504367 178.5
-0.33274716 -0.058673952 -0.1899641 181
-0.25232312 -0.052092556 -0.19363952 178.22223
-0.19687863 -0.047560178 -0.19802797 179
0.66935438 -0.057250757 -0.19494286 178.64285
0.76256329 -0.058634859 -0.18991747 184.75
0.84729576 -0.059166431 -0.18125342 189.7
0.93605649 -0.050036501 -0.18441871 194.5
-0.68030697 0.045597877 -0.19525972 152
-0.56868052 0.040791601 -0.19456342 168
-0.46471173 0.03646221 -0.19790155 180
-0.33243445 0.030543303 -0.19010885 182
-0.24371198 0.034188006 -0.19071649 176.8
-0.19128071 0.082543395 -0.19425605 178
0.67806816 0.045302328 -0.19378388 179.35294
0.76887923 0.036001522 -0.18834853 184.75
0.8539257 0.044555124 -0.18379775 189.57143
0.93130076 0.052336033 -0.18403608 193.66667
-0.72030979 0.18680511 -0.19765209 148
-0.66520309 0.17706773 -0.19169194 153
-0.53855115 0.15593895 -0.19516885 167.75
-0.4383859 0.13893068 -0.19370042 180
-0.33782765 0.12177275 -0.19099291 182.75
-0.25966227 0.15322612 -0.19077528 176.23077
-0.17951366 0.16798007 -0.1891069 178
0.65074849 0.1484586 -0.19465852 179.23529
0.7714467 0.13839959 -0.18514983 185.86667
0.85266221 0.15184918 -0.18320538 190.8
0.94424742 0.15847582 -0.18832439 194.5
-0.52511024 0.27150756 -0.19300644 164
-0.4284513 0.24266832 -0.19300292 174.75
-0.35216677 0.22007278 -0.19442719 180
-0.25023749 0.26479971 -0.18546253 179.57143
-0.14803109 0.24994384 -0.18839826 179.2
-0.096939325 0.29008812 -0.19249976 182
0.029883113 0.28242862 -0.19941804 180
0.14591679 0.29533139 -0.13831098 178
0.65235347 0.20317043 -0.19447316 180
0.7399959 0.24035609 -0.1856709 186.76471
0.85435259 0.24623014 -0.183421 192.72728
0.93707234 0.23431863 -0.19196832 195
-0.702456 0.32449648 -0.1935275 143
-0.63918746 0.30528086 -0.19057643 150.5
-0.46365541 0.37383842 -0.19401674 170.75
-0.35247073 0.32461831 -0.19226524 180.16667
-0.22717033 0.36689928 -0.18501402 180.39999
-0.14220281 0.34216526 -0.17872868 178.2
-0.068924427 0.35711613 -0.18666029 181.125
0.02673615 0.37184229 -0.1706655 177.42857
0.12834711 0.34216934 -0.1919903 178.5
0.7934171 0.31166741 -0.19180438 191.5
0.82773685 0.33910131 -0.18571651 194.2
-0.65945446 0.45909619 -0.18782066 144
-0.56993836 0.42033294 -0.19206408 156
-0.41219732 0.47818992 -0.18486509 168.33333
-0.33905137 0.43535876 -0.19058703 176.8
-0.29698178 0.41157213 -0.19797622 181
-0.13119899 0.41784117 -0.16168748 174
0.020267213 0.46383309 -0.1410332 167
-0.51461995 0.53935921 -0.18260561 150
-0.48217943 0.52190995 -0.19267622 159
-0.028122144 0.54030013 -0.16859762 171.66667
-0.25352627 0.64346761 -0.16680287 171
-0.12459078 0.67474163 -0.18247683 173.5
-0.085919082 0.62398612 -0.18407282 172.75
-0.34924033 0.74775314 -0.18632257 166.5
-0.17098325 0.73601913 -0.18144746 174.25
-0.43435633 0.83267933 -0.18058677 152
-0.25287908 0.84576857 -0.18321897 165.75
-0.3232536 0.93568575 -0.174697 150
-0.29778951 0.90213186 -0.17545731 155
0.040299013 -0.20457348 -0.087966286 144
-0.3173013 -0.13875496 -0.084788054 138
-0.22883648 -0.12047499 -0.077411227 150.66667
0.063239202 -0.16310723 -0.058273692 130.07143
-0.1157451 0.26640147 -0.022702381 155
0.045013223 0.26786658 -0.068927877 163.5
0.16589037 0.22368345 -0.044969782 131.93333
0.017274125 0.32271537 -0.035670858 133
0.02996478 -0.14710593 0.003623859 123.5
0.064985164 0.19540663 0.024390487 119
-0.039896626 0.24882704 0.009800409 135.5
0.040573504 0.21450737 0.025055233 127
