# .PCD v0.7 - Point Cloud Data file format
VERSION 0.7
FIELDS x y z intensity
SIZE 4 4 4 4
TYPE F F F F
COUNT 1 1 1 1
WIDTH 88
HEIGHT 1
VIEWPOINT 0 0 0 1 0 0 0
POINTS 88
DATA ascii
-5.9906154 -2.3178113 -0.025066335 7
-5.2097826 7.4751825 1.524963 12
-5.3123803 7.3047886 1.8839185 13
-5.3798079 7.2908697 2.1319277 14
-5.0624275 7.4982061 1.3184844 11
-5.0103583 6.8490195 2.4880562 15
-4.8377247 3.03952 0.14875451 8
-4.8839812 3.1456122 0.28742549 9
-4.9333572 3.0987196 0.50830799 10
-4.8143945 4.3961625 0.41671413 9
-4.9201612 3.3393521 0.95044124 12
-4.9877267 3.0622582 1.3005741 13
-4.9273162 2.9503992 1.6507756 15
-4.4779525 7.7382922 1.6003647 12
-4.1062107 7.9308739 1.733095 13
-4.1203771 7.1074719 2.477545 15
-3.8937342 -2.4050207 0.052592337 7
-3.1491904 -0.77559751 0.17449304 9
-3.0873621 7.436667 2.4405849 15
-2.5332072 8.02034 1.1482873 11
-2.3428106 8.0778723 0.91483194 10
-2.306946 8.0945826 1.5676293 12
-1.8171366 8.2634697 1.6634473 13
-1.7040097 -1.6155995 0.14482795 9
-1.6093463 8.4302168 1.1934285 11
-1.5531794 -1.7853116 0.25751305 10
-1.405032 8.5175714 1.0049051 10
-1.4233907 8.1191893 2.3991141 15
-1.1161276 -1.6156172 0.21332364 10
-1.1583408 -1.52818 0.3285909 12
-1.1126435 -1.6041564 0.5098545 14
-1.0127153 -1.5705013 0.54834664 15
-0.92238408 8.7527533 0.61112857 9
-0.71723419 -1.4525136 0.26094258 12
-0.66846699 -1.4999648 0.39932764 14
-0.7586019 8.956809 1.8720555 13
-0.57515901 -1.4385278 0.21654323 11
-0.45952234 -1.3236142 0.41599002 15
-0.58726621 9.0477066 1.6708095 12
-0.38978067 -1.308094 0.27545536 12.5
-0.19939204 -1.2207084 0.33218876 15
-0.012205278 -1.1392684 0.21746027 12
0.087263137 9.1348 1.9353379 13
0.37586799 9.4951601 1.5553689 12
0.5326274 1.6612233 0.3588469 12.5
0.69216013 0.22997606 -0.21257702 0
0.64908737 1.6309525 0.38459536 13
0.68989414 1.6916568 0.49072635 15
0.65265363 7.8630013 0.66833735 9
0.90744871 -0.90006363 0.076193869 8.333333
0.87314588 -0.91148949 0.20416257 12
0.87710232 1.7338668 0.3672215 12
0.92154789 1.7203217 0.49593574 14
1.1386936 0.57299989 -0.20209253 2
1.073144 1.482343 0.3653253 12.5
1.0739077 1.4687432 0.50268775 14.5
1.2917929 -0.62113488 -0.12447848 5
1.3881898 1.6444689 0.32504714 11
1.2433872 -0.55278832 0.40239561 15
1.327975 1.6008049 0.45262316 13
1.4921995 -0.24009854 -0.19267759 3
1.5399212 -0.64088118 0.19062728 10
1.4950956 -0.46946979 0.12771529 9.5
1.4550354 -0.48477232 0.31126711 13
1.4423115 -0.34651887 0.28415799 12.5
1.5370637 1.6977215 0.3931919 12
1.4353453 -0.49971956 0.42224175 15
1.4602979 -0.34523726 0.43594202 15
1.4548554 1.6555276 0.51687884 14
1.579525 1.6943603 0.70411277 15
1.7937524 -0.16245893 0.1584581 10
1.7266514 -0.20725027 0.22041161 11
1.7304174 -0.18812037 0.35368156 13
1.7811239 -0.21286693 0.52503633 15
1.8012604 -0.32433042 0.0080434587 7
1.9472001 1.9283488 0.29488477 10
1.8574446 7.5604897 0.81611866 10
2.4238229 2.1095593 0.49693009 11
2.661947 0.055861458 0.60439539 13
3.9685369 2.3761199 0.063445047 7
4.1322293 0.77757519 0.37997735 10
4.1019969 0.83611047 0.22080487 8.5
4.0357971 2.252697 0.50090122 10
4.1708179 2.0921299 1.0790294 14
4.3041692 1.8420054 0.89890355 12
4.4615898 1.4004025 0.69464064 11
4.4181118 1.4135063 0.9691292 13
4.5732093 1.2829883 1.3877254 15
