# .PCD v0.7 - Point Cloud Data file format
VERSION 0.7
FIELDS x y z intensity
SIZE 4 4 4 4
TYPE F F F F
COUNT 1 1 1 1
WIDTH 18
HEIGHT 1
VIEWPOINT 0 0 0 1 0 0 0
POINTS 18
DATA ascii
0.086421743 0.72300279 -0.20876475 0
0.18246022 1.0285748 -0.20559734 1
0.14052792 1.2317784 -0.20305561 2
0.35033277 0.57521719 -0.20268257 0
0.33482873 0.81411886 -0.20509231 0
0.46100757 1.1293406 -0.20024674 2
0.58315957 -0.86541063 -0.027725788 6
0.5848524 1.0859984 -0.15217054 3.5
0.46259615 1.4697356 -0.13909756 4
0.50827616 -0.90786487 0.047321174 8
0.75916398 -0.91834146 -0.10778938 4
0.79535758 -0.69739932 -0.16367605 3
0.72848558 0.69581527 -0.19251515 2
0.60267961 1.1630797 -0.16086784 4
0.9249782 1.1797274 -0.071209244 6
0.86281157 1.1550658 0.079198822 9
1.6461438 1.1680572 -0.034441113 7
1.9422474 1.1539674 0.17851363 9
