# .PCD v0.7 - Point Cloud Data file format
VERSION 0.7
FIELDS x y z intensity
SIZE 4 4 4 4
TYPE F F F F
COUNT 1 1 1 1
WIDTH 163
HEIGHT 1
VIEWPOINT 0 0 0 1 0 0 0
POINTS 163
DATA ascii
-0.082018293 -0.95367461 -0.16671441 120
0.073275134 -0.93602282 -0.15633065 122.5
0.20238894 -0.95656395 -0.14336073 129
-0.39882532 -0.86416775 -0.1159604 95.5
-0.38740698 -0.86780834 -0.15417609 97
-0.21937385 -0.90461576 -0.17686045 119
-0.030707765 -0.85288304 -0.1669085 130
0.11235998 -0.81538761 -0.14908113 131
0.22874726 -0.82268375 -0.14338745 136.5
0.33958861 -0.82776529 -0.1337795 138.66667
0.45045066 -0.83296174 -0.12535389 140
-0.45752341 -0.72812909 -0.15599838 103.71429
-0.27027267 -0.75417084 -0.18964675 127
-0.10230613 -0.73427582 -0.17361458 133
-0.083982199 -0.70899951 -0.17565434 139
0.010798147 -0.76834434 -0.16294228 134
0.1366857 -0.74838525 -0.15221953 141.66667
0.24883541 -0.72454697 -0.14551894 150
0.34551421 -0.73543727 -0.13598379 150
0.44441631 -0.74854445 -0.12817329 148
0.55215561 -0.78008866 -0.11867814 143.75
0.64900804 -0.73824632 -0.11294665 150.33333
-0.5330857 -0.61262876 -0.18393822 119.66666
-0.20118766 -0.67460203 -0.18092787 139
-0.1680872 -0.63920754 -0.18320549 139.66667
-0.032737095 -0.6334483 -0.17241387 141.60001
0.065236948 -0.66031271 -0.16162446 143
0.16483496 -0.66863632 -0.1537306 149.33333
0.26526454 -0.64142734 -0.1456598 154.5
0.35102201 -0.63784969 -0.13612582 165.33333
0.43981704 -0.67319691 -0.13293351 162
0.52986962 -0.67274457 -0.12380613 158.83333
0.61889184 -0.65318114 -0.11765864 160.60001
-0.62321627 -0.50792938 -0.21868372 166
-0.42579061 -0.54943711 -0.20568985 131.5
-0.29652002 -0.60472047 -0.19298309 135
-0.23327813 -0.55009037 -0.18897672 144
-0.12279304 -0.55822343 -0.18088524 140.60001
-0.046431769 -0.5482412 -0.17550035 144
0.044939939 -0.5389576 -0.16353051 151.42857
0.15514031 -0.56225008 -0.15621175 161.18182
0.2624937 -0.55487174 -0.14791609 170.90909
0.35647258 -0.55962515 -0.13910784 173.125
0.45296812 -0.5662719 -0.1307417 172
0.55639017 -0.5598678 -0.11921911 168.33333
-0.61074334 -0.49937299 -0.20557259 133.66667
-0.53069979 -0.46435156 -0.22124454 139
-0.4275566 -0.41225234 -0.20646901 141.5
-0.32611936 -0.48321104 -0.19690053 141
-0.24360935 -0.42902204 -0.19209152 146.2
-0.13909577 -0.4686873 -0.1828723 142.33333
-0.039586186 -0.45203096 -0.16999732 150
0.057815883 -0.44744146 -0.16741419 164.91667
0.15273084 -0.48727134 -0.1601706 172.60001
0.26624754 -0.50165689 -0.15204898 177.39999
0.36413166 -0.48141253 -0.14822078 175.2
0.45950776 -0.47132748 -0.13517061 173.05556
0.54327798 -0.44561666 -0.12234221 168.89999
-0.40780738 -0.4039765 -0.21219343 143
-0.32682478 -0.36258122 -0.19815455 145.39999
-0.24642378 -0.32210335 -0.1873489 145.66667
-0.13567643 -0.35512435 -0.17416251 146.25
-0.044400785 -0.35437036 -0.17425095 156.16667
0.041343369 -0.40546417 -0.17431563 172
0.25953555 -0.37378615 -0.16454987 170.60001
0.35128069 -0.36588013 -0.15284884 160.5
0.45033184 -0.3473739 -0.13701786 149.96666
0.52132934 -0.37862468 -0.13102813 155.60001
-0.69782406 -0.23766609 -0.23608963 112
-0.66237998 -0.23036554 -0.23419127 111
-0.29454082 -0.237858 -0.15049656 141
-0.22243161 -0.25895229 -0.15946551 143.5
-0.1225981 -0.26108995 -0.17736849 149.83333
-0.033484347 -0.2470095 -0.18651366 166.18182
0.024165925 -0.25610963 -0.18756998 171.5
0.38040522 -0.27244884 -0.1594642 143.5
0.46375746 -0.2932367 -0.14206551 138.88235
-0.50686193 -0.19410953 -0.18248154 114
-0.31639409 -0.15674256 -0.19178765 147
-0.23331124 -0.13917507 -0.18285228 147.71428
-0.14211477 -0.12640528 -0.18373854 148.53847
-0.045139816 -0.14702386 -0.19317266 167.8
0.06134912 -0.17198192 -0.16961561 165.2
0.18653789 -0.1465617 -0.16450347 143.71428
0.22902502 -0.1205199 -0.16770533 153
0.38783774 -0.16144311 -0.16131988 151.66667
0.43485689 -0.13940889 -0.15954396 152.44444
-0.051562477 -0.10411181 -0.19773279 168.5
0.11323192 -0.070399314 -0.18841887 157
0.16996849 -0.061385632 -0.16196938 135.57143
0.22842693 -0.079107493 -0.15719341 129
0.49355718 0.049288679 -0.15832996 159.56
0.54117346 0.042295896 -0.15423696 158.7
0.6735568 0.051708512 -0.13229473 172.52
0.7647298 0.057307217 -0.11544533 179.39999
0.850438 0.063838318 -0.093034439 185
0.93465692 0.077173591 -0.08887247 188.8
0.37597033 0.1620371 -0.17279167 159.81081
0.46072829 0.1359072 -0.16502315 157.97873
0.52588362 0.12379768 -0.1616966 161.54546
0.65605026 0.13903427 -0.13629249 173.89473
0.77734393 0.13384229 -0.11658173 180.82608
0.86247611 0.13655619 -0.096407108 186
0.9496336 0.15255471 -0.093043797 190.66667
0.31388947 0.26591694 -0.18234164 167.5
0.36100119 0.22809605 -0.17250484 167.15218
0.4508796 0.22037871 -0.16743799 168.30302
0.57804292 0.24251573 -0.14987949 173.625
0.65414846 0.23414016 -0.13537756 177.1875
0.74853057 0.23185843 -0.12168547 181.80952
0.86542022 0.23646741 -0.10497712 188.36363
0.94135785 0.22857346 -0.099920511 191
0.27961707 0.37122074 -0.1804295 173.875
0.36130461 0.36284494 -0.17123216 173.04762
0.46113351 0.34825233 -0.16009241 173.5
0.5603143 0.33484223 -0.14844406 176.84
0.6723938 0.32486209 -0.13244446 181.33333
0.7626009 0.33466309 -0.11655793 186.875
0.83925301 0.34211335 -0.11022679 190
0.91731828 0.30140612 -0.10775582 191
0.2663191 0.4555006 -0.18419588 180.16667
0.35730815 0.44735473 -0.17510332 178.75
0.47853097 0.45307425 -0.15816247 181.17392
0.56767559 0.42936563 -0.14441416 182.33333
0.64459497 0.42845505 -0.13019143 185.2
0.74981153 0.42640361 -0.1205883 188.55556
0.86635661 0.44733179 -0.12144178 192.39999
0.21662857 0.57432133 -0.1845476 187.5
0.27612421 0.51663792 -0.16765411 184.86667
0.37683493 0.52444482 -0.15823591 184.77777
0.45056331 0.53719103 -0.15128183 186
0.56500506 0.54079425 -0.14287205 187.63637
0.6653626 0.52227193 -0.12817998 190.25
0.77673018 0.54628885 -0.13282268 190.66667
0.85226196 0.52614111 -0.1179768 188
0.20185138 0.61928499 -0.18284652 188.8
0.28993556 0.62281734 -0.17278351 187.5
0.37523058 0.62319428 -0.16260938 188.25
0.4605841 0.62323338 -0.15344472 189.39999
0.55608052 0.64391667 -0.15103151 189.75
0.6534009 0.64248383 -0.14333566 189
0.74718571 0.61983597 -0.13208501 185.5
0.17281212 0.72360051 -0.19467257 183.60001
0.27509513 0.73808205 -0.18703701 185.33333
0.37727237 0.73845756 -0.17887941 187.39999
0.47768164 0.73792022 -0.16678721 187.5
0.57328957 0.71307456 -0.15058883 189.66667
0.67614669 0.70100689 -0.14079654 185
0.14231299 0.82459539 -0.19890054 173.25
0.25651699 0.8501997 -0.18868068 170.5
0.37386563 0.83655924 -0.17789717 174.5
0.48964083 0.83222872 -0.17180888 179
0.5984211 0.79392791 -0.16390552 180
0.11121889 0.93081403 -0.20630115 159
0.2416658 0.95697892 -0.19859301 161
0.37329054 0.91844612 -0.1835897 163
-0.40687457 -0.86354047 -0.093617983 102
-0.12964568 -0.13831466 -0.068258777 142.5
0.1449835 -0.11370564 -0.076994799 131
0.098710567 -0.091792382 -0.04172634 118.33334
0.13379475 -0.091732495 -0.064455524 120.47059
-0.024637997 -0.12448454 0.014395256 146
-0.023409799 -0.078971393 0.0032342877 126
