# .PCD v0.7 - Point Cloud Data file format
VERSION 0.7
FIELDS x y z intensity
SIZE 4 4 4 4
TYPE F F F F
COUNT 1 1 1 1
WIDTH 439
HEIGHT 1
VIEWPOINT 0 0 0 1 0 0 0
POINTS 439
DATA ascii
-14.9797 9.4936171 0.37498292 10
-14.506287 10.17943 0.37395462 10
-14.294416 10.474332 0.41859007 10
-14.14234 10.654968 0.62258685 11
-13.924832 10.858568 0.39660963 10
-14.026589 10.771282 0.43226323 10
-13.78706 11.095346 0.50396132 10.333333
-13.599227 11.283494 0.66240662 11
-13.331695 11.605238 0.68287772 11
-13.092245 11.948921 0.70479685 11
-10.676309 7.1114712 0.36666402 10
-10.567823 6.7888279 1.0651917 12
-10.15991 5.3682256 -0.62996823 8
-9.9856396 7.7151828 -0.80253458 8
-10.217364 5.353261 -0.27699551 9
-10.352634 6.1329956 -0.27537972 9
-10.310209 5.221972 0.23787333 10
-10.121226 5.5736971 0.10253941 9.5
-10.265559 5.2885818 0.31415322 10
-10.132711 5.5095201 0.32328734 10
-10.120444 5.5649018 0.96261179 12
-10.055377 5.7457247 0.78711486 11
-10.402811 7.4658937 0.52166653 11
-10.407884 5.2077298 1.2946407 12
-10.182646 5.5236144 1.3095106 13
-10.376636 6.0828629 1.3674439 13
-10.221003 7.0737901 1.0805348 12
-9.7614183 7.9276857 -0.77753627 8
-9.9785862 5.6133113 -0.2523056 9
-9.7078285 8.2045889 0.036075376 10
-9.8497992 5.9091659 0.28663111 10
-9.8999109 5.956109 0.78290522 11
-9.7294064 6.1565232 0.77804941 11
-9.8790684 6.2407284 1.3569244 13
-9.8429985 7.3218832 1.0920846 12
-9.4561338 8.4067411 -0.082244493 9
-9.365016 4.4042487 1.5109413 13
-9.4940615 6.4491782 1.3569901 13
-9.4751196 7.5678864 1.1061143 12
-8.8081417 8.0963678 -0.89335763 8
-8.799408 8.1333866 -0.39800683 9
-8.9864759 7.9582114 0.063621104 10
-8.9812012 8.0977373 0.79248792 12
-8.9051018 4.72402 1.5049672 14
-8.9905386 5.2004657 1.4965079 14
-8.8756609 8.335968 1.1635081 12
-8.6335173 8.3191509 -0.87827438 8
-8.7554827 8.1525745 -0.061893351 10
-8.7207212 7.5132575 0.40272209 11
-8.6380339 8.3927155 0.46696684 11
-8.7676134 7.5408468 0.75504428 12
-8.4462032 7.942111 0.66934788 11
-8.6809368 8.3485956 0.68544531 11.5
-8.7119999 4.8971424 1.5092603 14
-8.7703609 5.3586459 1.499535 14
-8.5421362 5.5028625 1.5014706 14
-8.5631123 6.8459182 1.3507032 13
-8.433073 8.7005787 0.69849747 11
-8.1486902 4.5005398 1.5989329 14
-8.4644699 5.0305805 1.5047066 14
-8.3169508 5.6440496 1.5041732 14
-8.1510201 7.1330838 1.3615484 13
-7.8256292 5.325386 1.5485549 14
-8.0383701 5.7395215 1.498789 14
-7.791996 5.8478427 1.4973766 14
-7.7870817 7.2899752 1.3620003 13
-7.5856595 4.4117837 1.620939 15
-7.3963652 4.6439118 1.610445 15
-7.3085523 5.6267791 1.5400558 14
-7.5648332 5.9630094 1.5003272 14
-6.8243279 6.8982348 -0.6374014 8
-6.8284478 6.95403 0.143416 10
-6.8850656 6.9619637 0.422553 11
-6.9943943 6.9053473 0.87099141 12.5
-7.1109552 3.5412536 1.6827631 15
-7.1794415 4.8516359 1.5974019 15
-7.115222 5.1877985 1.5686132 15
-7.0038681 5.5779567 1.5421942 14.5
-7.1565113 6.0681787 1.4925926 14
-6.5962276 7.072084 -0.65454262 8
-6.4739475 7.189395 -0.25663599 9
-6.6134682 7.1269622 -0.054623209 9.5
-6.4264178 7.2627673 -0.11090157 9
-6.4376616 2.9938133 0.68483961 12
-6.6391921 7.1726818 0.54461747 11.333333
-6.7057056 7.1652761 0.85436022 12.5
-6.7830014 3.7680171 1.6718359 15
-6.8371444 5.2066646 1.5807574 15
-6.6565013 5.6067772 1.5422603 15
-6.5835872 5.9513454 1.5168064 14.666667
-6.7086673 6.2585211 1.4974084 14
-6.1428437 3.0734708 0.59654784 12
-6.3746734 7.3693523 0.58594269 12
-6.3163586 2.7913876 1.1003951 14
-6.1630483 3.1400547 1.1902022 14.5
-6.2657461 5.989048 1.5353583 15
-6.2249045 6.3782768 1.5150791 14.666667
-5.9489889 6.4614382 1.524199 15
-5.7382703 6.6295085 1.5151012 15
-4.9584475 2.2971532 0.98235631 14.5
-5.0053878 5.3989344 0.85229534 13
-5.1756516 2.4968932 1.1733295 15
-4.415688 5.1709638 -0.2191778 9
-4.4487209 5.3972707 0.51678056 12
-4.5820613 1.9864812 0.96723241 14.666667
-4.8270626 5.8517389 1.3657452 15
-4.2706661 5.0365758 -0.32916307 8
-4.1964345 5.0782986 -0.13217096 9
-4.2812448 1.7264436 0.79710549 14
-4.056468 4.749773 0.22305626 11
-4.1013107 5.1068702 0.53405738 12
-4.3422008 1.7743686 0.98419845 15
-4.2212186 4.8230119 0.61460984 13
-4.1224666 5.2457995 1.2496948 15
-4.3115625 5.3935637 1.3160621 15
-3.7237265 4.6104183 -0.25420499 9
-3.7439773 4.7113519 -0.0034691084 10
-3.8147397 1.2497495 0.82373559 15
-3.6939132 4.4269891 0.59250909 13
-3.8557158 4.9090328 0.50166696 12
-4.0295324 1.5232292 0.96212006 15
-3.7607982 4.9350195 1.2168778 15
-3.2498293 4.2373772 -0.24592014 8.5
-3.3951266 4.2849169 0.074569233 10
-3.3606558 4.1688895 0.72436899 14
-3.5883255 4.7958074 1.1640599 15
-2.8734844 3.9230604 -0.13797474 9
-3.1857395 4.2562757 -0.02408392 10
-3.1721652 4.3386893 0.47545812 12
-2.5472898 3.6537871 -0.093928918 9
-2.4701674 3.5323231 0.21459043 11.5
-2.5109437 3.5389154 0.59755665 14
-2.1580341 3.3697188 -0.11662551 9
-2.2016461 3.3922901 0.16657631 11.166667
-2.2551236 3.4040446 0.55643392 13.714286
-2.0026085 3.2999907 0.18758364 11
-1.9647866 3.3346176 0.44830561 13
-1.2525574 -0.79139805 0.30562019 12.5
-1.3553685 -0.58951247 0.3033261 13
-1.2418468 -0.7688641 0.44771555 15
-1.3958352 -0.57912964 0.41521457 14.666667
-1.4372243 -0.35296473 0.39027593 15
-1.0198905 -0.9681918 0.31904522 12.5
-0.81538242 2.1816516 0.15081614 12
-1.0165613 -0.9620195 0.45883763 15
-0.96683884 2.1754911 0.29076529 13.5
-0.51142478 -1.2644229 -0.12708722 2
-0.51970673 -0.96327567 -0.15188994 1.5
-0.55485266 -0.63718361 -0.17832267 0.33333334
-0.62555063 0.29127461 -0.26032931 0
-0.53726435 0.45114177 -0.26480693 0
-0.57305437 -1.3248408 0.38382959 11.9375
-0.78834611 -1.1383678 0.3357203 12.5
-0.51707399 1.1882163 0.24928516 15
-0.59999323 -1.3133806 0.52209139 14.333333
-0.80249971 -1.140211 0.47486246 15
-0.7644698 2.2193584 0.33210489 14
-0.29784822 -0.95387399 -0.13873976 0.25
-0.2098273 -0.67264986 -0.14970754 0
-0.31852418 0.54630029 -0.25206935 0
-0.159465 -1.6602432 0.4241375 10.727273
-0.34191859 -1.5104119 0.38721192 10.833333
-0.025392557 1.2890792 0.26870444 15
-0.15310091 -1.6800284 0.61979651 13.5
-0.36505839 -1.5143515 0.56000578 13.5
0.17125456 -1.7958709 0.420829 10
0.32908195 -1.3733429 0.38979352 11.111111
0.15050864 1.5200497 0.24518374 13.8
0.30857277 1.6996891 0.25328302 13.5
0.1553424 -1.7803587 0.63505065 13
0.35856247 -1.4869833 0.57673472 14
0.14962709 1.5142902 0.29771775 14.75
0.32049897 1.7114464 0.32475963 14.5
0.7423687 -0.21503113 -0.11917271 0.80000001
0.71028835 0.20742032 -0.15298027 0.66666669
0.79842132 0.38999039 -0.15141943 2
0.4360922 -1.2323115 0.41217861 12
0.61712289 -1.0066965 0.39749452 13.5
0.51240218 1.8057139 0.23355339 12.25
0.79060435 2.2574759 0.23267454 12
0.37285435 -1.7112333 0.61218446 13
0.55851477 1.8593895 0.33275658 13.857142
0.76490599 2.2702541 0.26998827 12
1.0399615 -0.52306896 -0.084262699 2.5
0.98396599 -0.2276769 -0.10203619 2.1428571
0.97073066 0.18682204 -0.1281188 2.5714285
1.0424408 0.53387767 -0.15736069 3.1666667
0.79136205 -0.78249532 0.38379824 14
1.0198884 -0.57374042 0.33740169 12.705882
1.1526628 -0.33604354 0.35914019 13.5
0.99519306 2.6131275 0.16201897 10.5
0.85417914 2.4087768 0.42872724 13.5
1.0417452 2.6325717 0.4077591 13
0.99207407 2.6774735 0.63193029 15
1.2399349 -0.51560217 -0.070670038 3
1.4140761 -0.2602945 -0.032841567 4.3333335
1.3755574 0.18481721 -0.1081843 3.6666667
1.4061971 0.58849454 -0.13032265 4.5
1.4638759 0.9472788 -0.16436404 4.6666665
1.3231101 -0.46793917 0.23612082 9.4285717
1.3970897 -0.14017121 0.29454663 11.476191
1.5304035 0.14819963 0.31095412 11.714286
1.3780962 3.0937526 0.14551139 10
1.3814164 -0.032585435 0.47687468 15
1.513651 0.13520744 0.47674927 14.5
1.191855 2.8246088 0.46542165 13
1.3985684 3.0771496 0.35531363 11.714286
1.3415648 3.050873 0.70023346 14.8
1.3864418 3.3277891 0.75188273 15
1.6366168 -0.13157612 -0.04040489 4.5
1.8114862 0.12682861 -0.0079676388 5.5
1.7641875 0.56648082 -0.10314632 5
1.8505085 0.99488604 -0.14606597 5
1.6424135 1.2072421 -0.17428526 5
1.7314119 0.2147301 0.24151595 9.7692308
1.7988849 0.50553912 0.32817337 11.428572
1.6763412 0.32609782 0.53542304 14.75
1.8008883 0.53216553 0.53106278 14.333333
1.6999412 3.4382908 0.40119207 11.666667
1.8681353 3.7003682 0.33546507 11
1.7124516 3.446888 0.74940133 14
1.9539789 3.7658818 0.80266374 14
2.0880065 0.5520072 -0.056499153 5.3333335
2.2295051 1.0417786 -0.12574308 5.5
2.1050115 1.2773131 -0.1522031 5.5
2.0990803 1.6513594 -0.18131375 6
2.0461388 0.48777506 0.14834501 8
2.0104864 3.8909602 0.061110381 9
2.3733089 4.3094401 0.078492515 9
2.0466638 3.871207 0.22435108 10
2.2495837 4.1208911 0.44489285 11.5
2.0743909 3.8930752 0.76079661 13.666667
2.3168225 4.2868381 0.69867253 13
2.2377632 4.447546 0.95570326 14
2.7458718 0.97600412 -0.090652503 6
2.7454228 1.3360705 -0.1236332 6
2.5917728 1.6411477 -0.15808865 6
2.6598532 2.1935816 -0.19790785 6
2.5408838 4.3218441 0.30290544 10
2.632894 4.4935322 0.43650925 10.666667
2.6163604 3.5673943 0.7399646 13
2.6737549 3.6712885 0.62272567 12
2.4768219 4.3027587 0.77283549 13
2.6930742 4.4768715 0.80391043 13
2.4676514 4.2837405 1.1390374 15
2.6608763 4.5309882 0.98599011 14
3.1904449 2.0897629 -0.16174354 6
3.0658474 4.1869464 0.095395721 8.666667
2.9574065 4.5815811 -0.0033818763 8.333333
3.0060928 4.2687597 0.42193559 10.5
3.0189538 4.2408113 0.81095856 13
3.1149433 4.0511827 1.0775597 14
2.9995632 4.3584967 1.0928227 14
3.4928603 3.8018179 0.073967449 8.5
3.2054567 4.0487161 0.13510586 9
3.2670689 4.5052185 0.12862341 9
3.3957698 3.9336951 0.34647864 10
3.4375138 3.9028246 0.73150116 12.25
3.4308851 3.9745789 1.2145973 14.5
3.2322557 4.1304221 1.152015 14.5
3.7823942 1.4103274 -0.068320841 6
3.8393831 1.9614694 -0.11375734 6
3.6822674 3.1827636 -0.2266248 6
3.8728201 3.5607741 0.01944959 8
3.632612 3.7418609 0.13741699 9
3.8052216 3.5902715 0.35912696 9.5
3.6933274 5.9267936 0.083685435 9
3.848254 6.1080441 0.26880097 10
3.8165448 3.5751977 0.91850883 12.5
3.5823922 3.8384271 0.98658246 13
3.820174 3.6692088 1.1983073 14.5
3.6286342 3.8222995 1.1153404 14
3.6743312 5.860867 1.3486432 14
4.3691144 1.6559658 -0.056661796 6
4.3113079 2.9275396 -0.17528389 6
4.328876 3.186152 0.69565105 11
4.0861936 3.467783 0.58115506 10.75
4.2400913 6.4468374 0.15220761 9
4.3015461 3.1761291 1.1132386 13
4.190578 3.4069288 0.7796914 11.5
4.297576 6.4299254 0.47574535 10
4.2163095 6.5072041 0.63633204 11
4.2776618 3.2683349 1.2778968 14
4.1137419 3.4180005 1.2441616 14
4.3154321 6.4561634 1.0572904 12
4.1417365 6.5153599 1.0473709 12
4.2134848 6.5457335 1.2549005 13
4.1846271 6.5340114 1.8952066 15
4.47996 2.3273308 -0.1092909 6
4.5301232 3.1034336 -0.13912863 7
4.5226736 3.0639706 0.14758252 8
4.7889338 4.2614946 0.096192092 8
4.5844088 4.5548611 -0.070787892 8
4.7076802 2.8230305 0.70397669 11
4.7408485 2.8991659 0.70192713 11
4.6727905 4.2672982 0.56336993 10
4.6173468 4.5568361 0.28680781 9
4.4177871 6.3275447 0.27253455 9
4.6755304 2.8556662 0.96248174 12.5
4.6979175 3.0093493 0.78969109 11
4.6408591 4.3348889 0.76192254 11
4.4960608 4.5185452 0.6787135 11
4.4903245 6.2931061 0.5506134 10.5
4.403151 3.1473911 1.3627661 14.5
4.44836 6.3351188 1.0603658 12
4.4358568 6.3864479 1.8346514 14.666667
5.1048894 2.5668507 -0.067296006 7
4.8933368 2.7491877 0.1150413 8
4.9050727 2.8392928 0.14452702 8
5.0167766 4.3304257 0.1056893 8
4.8205967 2.7379789 0.70731503 11
4.9691 4.2538853 0.35194802 9
4.9447861 2.682801 0.96291381 12
4.8324523 6.5340176 1.7581533 14
5.2248902 2.4586048 0.10655897 7
5.4461503 3.6470456 0.52056456 10
5.568367 4.3865895 0.55001307 10
5.5168734 4.5205369 0.50595701 10
5.3000755 2.3894567 1.1289424 12
5.4406681 2.4219236 1.4938718 14
5.6589561 3.416014 -0.09527076 7
5.9186959 3.1930988 0.071071856 7
5.8595982 3.8643057 0.58930051 10
5.6469302 4.1901956 0.55345672 10
6.3512173 3.0864952 0.32137626 8
6.2698207 3.9889829 0.55073416 9
6.2016048 4.0465417 0.53249621 9
6.1851473 6.2915044 2.1477957 15
6.7657032 3.8606532 -0.17020264 7
6.5000916 3.0375643 0.33802089 8
6.7211795 3.8681295 0.33715862 8
6.68224 6.9459753 -0.256372 7
6.6599841 7.84688 -0.16211087 7.5
6.7815313 3.8828452 0.56736028 9
6.5904284 4.0480428 0.58963251 9.5
6.4853811 7.6368961 0.27791974 9
6.4845958 6.6622972 0.68300706 10
6.6945729 7.5910125 0.5888297 9.5
6.8368077 4.3653646 0.31305277 8
6.8452115 7.7652564 -0.03071047 8
6.8196793 3.9236686 0.62097895 9
6.9181981 5.1941156 0.30548999 9
6.8189254 5.2682972 0.57683641 9
7.0048428 4.0465102 0.83411062 10
6.814219 4.1457605 0.82272136 10
7.4613709 6.1244855 0.014560234 8
7.53614 5.9468126 0.4523555 8.5
7.4226127 7.8770709 2.2518981 14
7.4524107 10.550832 2.1795454 13
7.7719636 6.048285 -0.281378 7
7.730135 5.7665553 0.37404868 8.333333
8.0645914 5.780004 -0.072448835 7
8.2023687 4.1139193 2.8052158 15
8.1702051 10.04359 2.2605817 13
8.1838074 10.013816 2.6247916 14
8.404891 2.7602308 2.3924444 14
8.4060793 3.9630094 2.8365548 15
8.4044275 9.8297625 2.2582092 13
8.610796 3.8051016 2.867713 15
8.5038872 7.5600004 3.021498 15
8.8793592 10.64362 -0.49634305 7
9.085825 3.4070995 2.3173838 13
9.0435848 4.0037346 2.1515112 13
8.9209127 3.0811276 3.018503 15
8.8273182 3.6470592 2.9034047 15
9.4694538 3.075592 -0.013645761 6.5
9.4055414 3.2191741 -0.093003616 6
9.470706 3.0758648 0.30290565 7.5
9.2432575 3.5526254 0.35816282 8
9.4173479 3.113379 0.67295182 8.666667
9.2617741 3.4571955 0.8346439 9
9.4483967 3.0737233 1.1164156 9.666667
9.3287516 3.4429715 1.2919011 10
9.353797 3.1523476 1.6321579 11
9.2792072 3.5746031 1.6599909 11.5
9.4351664 3.0469227 1.9243618 12
9.2972355 3.5616512 1.9373101 12
9.5363827 12.47173 0.94052142 10
9.3963289 12.593376 1.0733536 10
9.3532267 3.1453252 2.3444996 13
9.1731853 3.6789701 2.3591666 13
9.3838053 4.4078412 2.2259994 13
9.2477655 9.2658443 2.3626001 13
9.118475 2.9021068 3.0526612 15
9.1379528 7.0856595 3.0727837 15
9.7377129 12.248506 -0.59799546 7
9.6181393 2.8897567 0.6941272 9
9.8480473 12.21684 -0.20344694 8
9.7722158 4.0894914 1.0664101 10
9.5462551 2.9829717 1.6463675 11
9.9044523 12.327823 0.94544393 10
9.8053398 12.529725 1.1037518 10
9.5938072 2.8666711 2.3668559 13
9.9219942 12.187049 1.8650963 12
9.7667322 6.5851097 3.1299939 15
9.6948309 8.5757074 3.0179226 14
10.217123 11.908845 1.1322619 10
9.9593239 12.297662 1.4156611 11
10.501396 11.693345 1.152122 10
10.328234 4.2451301 2.3023646 13
10.524328 5.0190387 2.2921877 13
10.381707 6.0326905 3.1818976 15
11.08003 11.251408 1.1899393 10
10.795752 11.474906 1.170338 10
11.055797 11.277267 1.9057841 11
10.752238 11.482558 1.8917353 11
10.695841 5.8993859 3.2287993 15
11.008985 14.055619 2.557477 12
11.406146 4.0783944 0.37152338 8
11.329154 11.030614 1.4343911 10
11.350423 11.058022 1.9179773 11
11.379191 7.7319112 2.7039776 13
11.189808 7.43993 3.1266665 14
11.83879 4.3021064 0.30312127 7
11.957067 4.6653681 0.304187 7
11.776642 7.396131 2.6098688 13
11.515805 7.6009469 2.580704 13
11.807859 7.9113779 2.4566917 12
11.862685 6.9683828 2.7831829 13
11.599818 7.5039344 2.7365892 13
11.736866 4.8745818 3.3276834 14
11.663682 7.0011482 3.1568589 14
12.265093 5.0772672 0.33791527 7.5
11.981524 10.63943 1.9468971 11
12.133934 6.7448606 2.8031971 13
12.160081 6.5640278 3.1981361 14
11.92874 6.7944918 3.1811469 14
12.38461 10.498821 1.974537 11
13.074982 6.8247399 0.35837755 8
13.278484 10.246414 2.0387087 11
13.833359 6.2978659 -0.1282662 7
13.909651 9.1815033 0.30303127 8
13.74298 5.6595407 2.3137867 11
13.500249 11.981382 2.69277 12
14.048492 6.0019627 -0.1301502 7
14.229218 12.009938 1.6438912 10
14.505878 11.219757 2.7585158 12
14.883431 11.184902 2.8875811 12
15.263888 10.905542 2.9047012 12
