# .PCD v0.7 - Point Cloud Data file format
VERSION 0.7
FIELDS x y z intensity
SIZE 4 4 4 4
TYPE F F F F
COUNT 1 1 1 1
WIDTH 70
HEIGHT 1
VIEWPOINT 0 0 0 1 0 0 0
POINTS 70
DATA ascii
-3.4415703 -0.72587639 0.45311514 11
-3.3901923 -1.1479324 1.016205 15
-2.8331141 -1.344983 0.90056449 15
-2.6413963 -1.3697752 0.15912014 8
-2.7095327 -1.3609978 0.30074164 9.5
-2.6618333 -1.3420265 0.61347497 13
-2.5236828 -1.3418961 0.45878059 11
-2.3226759 -1.3253927 0.45467839 12
-2.0144124 -1.3182662 0.18525554 9
-2.067898 -1.2956239 0.6883108 15
-1.8730177 -1.2919228 0.29826033 10.5
-1.9447111 -1.2956089 0.49638644 13
-1.7566202 -1.2800759 0.40569764 12
-1.4101719 0.67884469 0.29783064 13
-1.3145443 -1.2474645 0.33414569 12
-1.3366627 0.68623495 0.28962952 13
-1.3076954 -1.2397681 0.49081045 14
-1.2952594 0.70016062 0.39168024 15
-1.1534128 -1.21383 0.2051096 10
-1.0046183 -1.213886 0.41640383 14
-1.0336637 -1.2186804 0.4621245 15
-0.99543828 -1.2264113 0.22908367 11
-0.89413279 0.7233904 0.26581272 13.5
-0.72640961 -1.1809806 0.20797387 11
-0.71614718 0.7405867 0.28388104 15
-0.25786671 0.7034449 -0.23665273 0
-0.27946863 -1.7873056 0.15989275 9
-0.3744337 -1.2408121 0.22215617 11
-0.37951237 -1.1854793 0.31291956 13.5
-0.30268151 -1.496967 0.43063945 14
-0.13060848 0.7344203 -0.24153732 0
0.033342794 -1.4638478 0.41182375 14.5
0.12996799 -8.5529127 0.54954761 8
0.26981339 -8.5396919 0.71094602 9
0.69634199 0.11583134 -0.21590717 0
0.59949106 -8.4762449 2.0803654 13
0.85482776 0.87688994 0.33493078 15
1.0671277 -0.044061497 -0.2052823 2
1.0991979 0.89293951 0.29998896 13
1.3262701 -0.29164082 -0.2099511 3
1.3408637 0.90581781 0.30325556 12.5
1.3967178 0.91850269 0.45546487 15
1.5068977 0.91679466 0.2703853 12
1.7079757 0.92699099 0.19222085 10
1.675758 0.93456161 0.41720688 13
1.8088908 0.94166148 0.28234288 11
1.9193075 -9.0129519 2.173178 13
2.0638292 0.95980287 0.34885019 12
2.0636141 0.96569145 0.57067519 14
2.3950908 -6.9059305 0.72055072 9
2.5827923 0.99929827 0.39372793 11
2.6929369 0.93855816 0.23463106 10
2.7076576 0.9316951 0.52048981 12
2.7265079 0.97309947 0.6817081 14
2.7312653 -8.9118948 2.2348595 13
2.8432167 -8.8923712 2.2882981 14
3.1355264 -0.67503202 0.36643654 10
3.2209961 -8.9432344 1.4789468 11
3.5523927 -8.9161634 1.0769039 10
3.416795 -8.8944635 1.6944048 12
4.0431275 -8.836854 2.3908341 14
4.5888443 -4.6573968 0.35230145 8
4.6184287 -4.7516303 0.76173365 10
4.6212893 -4.5789442 0.93670845 11
4.6767435 -5.1014276 1.4027947 12
4.6436486 -4.7867379 1.5564332 13
4.6612635 -4.9074669 1.9308984 15
4.8897362 -7.0532775 1.0594889 10
4.8776402 -7.0298944 1.1624788 11
4.8746738 -6.8507824 2.1867533 14
