# .PCD v0.7 - Point Cloud Data file format
VERSION 0.7
FIELDS x y z intensity
SIZE 4 4 4 4
TYPE F F F F
COUNT 1 1 1 1
WIDTH 748
HEIGHT 1
VIEWPOINT 0 0 0 1 0 0 0
POINTS 748
DATA ascii
-3.365907 -3.2831845 1.1602057 14
-2.8837688 -3.6517072 0.30735168 8.5
-3.1137419 -3.4913707 0.33959851 9
-2.908586 -3.6505394 0.63987947 10.5
-3.129215 -3.4898481 0.58658111 10.333333
-2.8921366 -3.604521 1.0900054 13.333333
-3.0777481 -3.4593301 1.1125648 13.5
-2.9423983 -3.6132734 1.3348645 15
-3.1628056 -3.4878199 1.3463998 15
-2.4704196 -3.9190774 0.040758505 7
-2.6105056 -3.8277943 0.25253987 8.166667
-2.5951366 -3.7969496 0.62659144 10.333333
-2.6591067 -3.758086 1.1021527 13.333333
-2.4905879 -3.247638 1.011006 14
-2.6111503 -3.7849901 1.3217077 15
-2.1725574 -4.0315232 0.031883076 7
-2.1507657 -4.0293932 0.29946345 8.333333
-2.3420939 -3.9659171 0.25395569 8
-2.3371899 -3.4218857 0.31052247 9
-2.0087545 -2.1605299 0.19884723 9
-2.1455472 -4.018043 0.66462326 10.5
-2.3380387 -3.9541428 0.64585966 10.5
-2.3047953 -3.4157155 0.57540542 11
-2.1649315 -4.0000205 1.0802993 13
-2.3416617 -3.8827164 1.0905319 13.166667
-2.2992172 -3.4255669 1.0565645 13.5
-2.0428016 -2.0737698 0.83252579 15
-2.1413066 -3.9953864 1.3070505 15
-2.328577 -3.9327109 1.3142571 15
-1.7939492 -4.17979 0.033742599 7
-1.7692077 -4.172616 0.32719558 8.5
-1.9518267 -2.2142172 0.3515037 10.5
-1.8264875 -1.7957953 0.29487801 10
-1.6868747 -1.4123244 0.32399839 11.2
-1.782871 -4.1530447 0.66573536 10.5
-1.9348145 -2.2143114 0.64908034 13
-1.8251809 -1.7684804 0.61950541 13.545455
-1.6731088 -1.3748935 0.51810318 13.714286
-1.6451762 -1.1479335 0.43733999 13
-1.840919 -4.1516376 1.1225486 13.2
-1.9200128 -2.2409952 0.88014311 15
-1.840281 -4.1518707 1.3109947 14
-1.4258978 -4.3252339 0.037560757 7
-1.399823 -4.3133883 0.27185082 8
-1.4117379 -0.94876957 0.30675578 12.125
-1.3514704 -0.57672572 0.29945496 13
-1.3022094 -0.32278022 0.31146106 14
-1.4091538 -4.2878428 0.67994285 10.6
-1.613331 -1.2541076 0.59298992 15
-1.4106739 -0.94130707 0.44425321 14.4
-1.3675932 -0.63132459 0.41285819 14.75
-1.2485143 -4.3862262 1.0124553 12.5
-1.4310971 -4.3085704 1.1233243 13
-1.0018225 -4.4878588 0.045972645 6.5
-1.0056028 -4.4655724 0.27804223 8
-0.96854758 0.5568369 0.25314152 14.5
-0.83953822 0.88789725 0.26787022 14.5
-1.014212 -4.4344206 0.67269486 10.5
-1.0331382 -4.430017 1.1187037 13
-0.46561015 -3.4559302 0.10952213 7
-0.40939471 -1.075173 -0.12947631 3
-0.52560961 -0.52170163 -0.17631173 0
-0.6031608 -0.34582284 -0.1952537 0
-0.57179594 0.31557465 -0.20520657 0
-0.54179847 0.58530474 -0.22747119 0.42857143
-0.64903075 0.82483411 -0.25653112 1
-0.74644989 -4.5457602 0.29177713 8
-0.55453998 -4.0077009 0.44371527 9
-0.54122227 -3.8353925 0.31947005 8.3999996
-0.4817282 -3.5270519 0.32501855 8.666667
-0.77114719 1.0389652 0.27708775 14.5
-0.61218143 1.4641852 0.29310697 13.75
-0.46522641 1.8344573 0.29196784 12.666667
-0.71814775 -4.5210118 0.69026268 10.5
-0.60236847 -3.7650526 0.78281718 11.666667
-0.46536347 -3.2930062 0.76952577 13
-0.73389739 1.18027 0.35221341 15
-0.61089432 1.4838922 0.37670672 14.75
-0.48815536 1.8175331 0.41593254 14.5
-0.70626962 -4.4735594 1.257217 13.666667
-0.51813418 -3.7456656 1.0108756 13.666667
-0.28396672 -0.91049808 -0.14162084 2
-0.21143369 -0.66851562 -0.15474088 0.33333334
-0.36940849 0.59787804 -0.22876897 0
-0.32092732 -3.3246236 0.30869028 8.333333
-0.22285995 -2.9367487 0.32259193 9.1538458
-0.072870225 -2.562757 0.31277138 9.5
-0.036554635 -2.3253207 0.33047372 10
-0.33257106 2.0027328 0.29760811 12.5
-0.28160319 2.0452099 0.29305577 12
-0.33159208 -3.3927929 0.71831375 11.666667
-0.21414882 -2.9344161 0.73815906 13
-0.09631443 -2.6125252 0.66661501 13
-0.055946503 -2.3257072 0.64260727 13.5
-0.34983483 1.9731622 0.4578051 14.5
-0.20185578 2.1655855 0.43068653 13.777778
-0.10505404 2.884798 0.53723758 13.333333
-0.41043678 -3.6371512 1.0726449 14
-0.31098709 -3.3572428 1.027817 14.5
-0.20072557 -3.0435894 0.9837423 15
-0.071158677 3.0235319 0.77972066 15
0.072993211 -2.1895366 0.31702498 10
0.22755393 -1.8253044 0.31497845 10.714286
0.061550245 1.4838263 0.3446092 15
0.22455458 2.1170638 0.31530181 12
0.0055758231 -2.4511297 0.68051028 13.5
0.10015956 -2.1393828 0.59115863 13.5
0.21073167 -1.8106101 0.52883625 14
0.026803024 1.4744438 0.37200639 15
0.19973423 2.1377716 0.43742707 13.833333
0.039244354 3.0705788 0.54568309 13
0.1102531 3.2476537 0.42127576 12
0.29965562 3.9315314 0.52148497 11.75
0.37898713 4.1512718 0.61603945 12
0.070599303 3.2990549 0.77983195 14.5
0.26953334 3.9643159 0.94889086 14.5
0.32301566 4.0855436 0.83794051 14
0.68903112 -0.17165577 -0.15186071 0.40000001
0.69995165 0.1981068 -0.17849799 0.33333334
0.72388583 0.46880504 -0.19566798 0.66666669
0.56471378 -1.7476764 0.3252055 10.8
0.67021507 -1.5167458 0.33240613 11.5
0.62440544 1.9572635 0.31468177 12
0.54111421 -1.710709 0.54916328 14.285714
0.66538674 -1.4990509 0.51446646 14.5
0.62727982 1.9591275 0.46311519 14
0.51170969 2.046983 0.47197658 14.2
0.42632324 4.1506629 0.46769282 11.333333
0.73504919 4.6175442 0.46711704 11
0.42107207 4.3017206 0.81738913 13.5
0.62007874 4.6243019 0.86770344 13.166667
0.41881454 4.3324318 1.105967 15
0.56445599 4.635325 1.1320474 15
1.0486075 -0.47985792 -0.13533475 2.3333333
1.0003533 -0.20162438 -0.14988893 1.875
0.97550005 0.22055885 -0.17060207 1.7142857
0.97442067 0.55039907 -0.2000598 1.9
1.1629014 0.86222923 -0.21398909 3
0.93047303 -1.735909 0.30515018 10.166667
0.79274487 -1.5323876 0.37583762 12
1.0821931 1.7910305 0.29550901 11.333333
1.0928872 -2.0199881 0.61606646 13.5
0.94571131 -1.7044622 0.54912966 13.75
0.79108119 -1.5226148 0.49973929 14
0.96530229 1.8294235 0.49887902 14.4
0.98771286 4.6094713 0.45980665 10.75
1.1832981 5.0372496 0.34992513 10
0.90074193 4.5916924 0.89784408 13.2
0.8808223 4.5898714 1.1849499 15
1.0703329 4.9701591 1.1664443 14.5
1.3988622 -0.57488352 -0.12215646 3.8
1.4056581 -0.26896295 -0.1506919 3.2
1.387889 0.22580102 -0.16764283 3.1666667
1.3988321 0.58949906 -0.18167681 3.5
1.3947759 0.99840498 -0.20213835 3.8333333
1.603947 1.3669466 -0.2194422 4
1.3805733 1.7286403 0.22672351 10.4
1.3268751 1.6963927 0.51743615 14.25
1.3835584 5.2878671 0.52771354 11
1.1957437 5.2565312 1.2257411 14
1.900229 -0.85718626 -0.094878666 5
1.7582003 -0.66181165 -0.11145911 4
1.744393 -0.28919572 -0.13381457 4
1.7221537 0.22084129 -0.14841439 4
1.7903234 0.60153347 -0.16265886 4
1.7936153 1.0097595 -0.18391182 4.25
1.8560598 1.3968078 -0.2056582 4.6666665
1.9335102 1.7494061 -0.21218246 5
1.8662647 2.693665 0.28196868 9.666667
1.6894486 2.8549621 0.3256498 10
1.7268853 1.5545614 0.6193642 14.5
1.6285868 1.6570092 0.62394387 15
1.7268111 2.7201056 0.58575159 12.8
1.6139643 2.855803 0.54741591 12.5
1.9099128 3.830292 0.38052988 10
1.7401952 2.8623755 0.74521357 14
2.2511842 -1.0523523 -0.085024431 5
2.3022578 -0.64136511 -0.12004574 5
2.1804142 -0.15227155 -0.1260588 5
2.0979333 0.28081462 -0.14295347 5
2.283319 0.67845118 -0.16045299 5
2.048635 0.84249002 -0.16934483 5
2.1808584 1.3849257 -0.18356045 5
2.2565525 2.1035085 -0.2498948 5
2.2442994 1.3793794 0.21208003 9.2857141
2.286521 2.3000596 0.35879803 10
2.2816033 1.3265578 0.65249306 13.666667
2.1741676 2.5933571 0.48056713 11.333333
2.3456995 1.4149103 0.81681538 15
2.2267187 8.7655487 0.68186694 10
2.5511224 -0.58056861 -0.12484277 5
2.6400261 0.51037908 -0.15122132 5
2.6082747 1.1480184 -0.094176434 6
2.6807652 1.3731432 -0.11189242 5.5
2.5478959 1.8871025 -0.22672234 5
2.78123 2.6941016 -0.27782765 5
2.7229948 -4.2340174 0.56212586 9
2.5850403 1.2598246 0.25945389 9.5
2.5735939 2.2205091 0.30721363 9.5
2.7786901 -4.0392523 0.62899959 9
2.6078513 1.1609672 0.70437318 13.5
2.6142499 1.2914325 0.68855041 13.5
2.7116649 2.3336849 0.42721879 10.5
2.7319257 2.6771007 0.45313278 10.5
2.7083826 2.9989438 0.51723301 11
2.504349 6.4144125 0.35835767 9
2.6302392 6.4616685 0.47558481 9.5
2.5980439 1.3745503 0.84483182 15
2.6844802 6.4304514 0.6536265 10
3.1378555 -0.38968006 -0.1152715 5
3.0376191 0.96844119 -0.074089304 6
3.2008708 2.4572892 -0.25220916 5
3.1728661 3.1346998 -0.29920173 5
2.9662795 -4.4250464 0.3138738 7
3.0108395 -4.2027569 0.37926498 8.25
3.0230286 1.0120388 0.17826211 8.333333
3.1415133 3.3588755 0.261242 9
3.0065804 1.0725392 0.52105004 11.333333
2.9215801 2.7020001 0.59116012 11.666667
2.789865 2.9061739 0.62246329 12
2.9475174 6.4078908 0.61866421 10
2.9489133 1.0445631 0.96785951 15
2.8907642 9.9345016 2.0787442 14
3.3968701 0.30883372 -0.1321694 5
3.2110441 1.9491252 -0.053341478 7
3.3811545 2.0167742 -0.21312411 5
3.4500952 -4.2263975 0.40060058 8
3.4511383 2.3502192 0.38220498 10
3.4228623 2.4408076 0.33577424 9
3.2613199 2.1619196 0.53751087 11
3.5744023 3.0696132 0.53767025 10.5
3.5807085 3.246249 0.52542073 10
3.5450788 12.119129 0.7611745 10
3.3766313 12.158118 1.0359383 10
3.4905 12.157281 1.3029295 11
3.2232943 6.3703856 2.0082102 15
3.310976 6.9475088 2.1298125 15
3.4288108 7.6633339 1.9475557 14
3.4362206 9.671072 2.0704925 13
3.2210495 9.7756805 2.0734091 14
3.490453 12.522165 1.9355466 12
3.339854 11.427639 2.073396 13
3.2057836 9.3609257 2.6809576 15
3.8570013 -6.679368 0.27386391 7
3.8522913 1.8038386 -0.022826491 7
3.6625121 2.8939214 -0.18041058 6
3.8077948 -6.6907635 0.57876039 8
3.8303246 1.9633806 0.10325693 8
3.7592096 2.0639949 0.10603026 8
3.849062 3.0269318 0.12617387 8
3.8414137 3.4148602 0.14190543 8
3.8621507 -6.6001434 0.97522408 9
3.6834784 3.0609496 0.53636664 10.5
3.7429409 -6.6779766 1.3168846 11
3.9335701 11.993317 0.89766884 10
3.664747 12.088565 1.0358878 10
3.7511868 12.096417 1.5417712 11
3.8869953 -6.7097721 2.6943333 15
3.9092884 7.7546005 2.0102091 14
3.6730838 9.6247692 2.0790284 13
3.8123484 9.0652609 2.2229652 14
4.1527848 -6.6491284 0.32296944 7
4.344656 0.40897104 -0.12517834 6
4.0438471 2.9323671 0.37926504 9
4.0274301 3.821758 0.27809727 9
4.1754837 -6.743659 0.91198319 9
4.0984182 2.9875894 0.64410323 10.666667
4.1774521 -6.5531535 1.2037531 10
4.2189531 2.9648421 1.0357801 13
4.0729127 -6.7245636 1.6576492 11.5
4.071147 12.013346 0.8779341 10
4.2096076 -6.6855698 2.3034871 14
3.98276 -6.2986383 2.1809959 14
3.9695098 7.6012526 1.7802483 13
4.1986609 12.034617 1.5677254 11
4.1041403 12.124819 1.3247441 11
4.091186 -7.0274568 2.5986247 15
4.1374531 -6.4530473 2.6792386 15
4.2507968 -6.3082862 2.6672144 15
4.3364196 9.3375225 2.0769827 13
4.2381086 8.9084492 2.2384305 14
4.3147411 14.152928 2.1504717 12
4.4415417 -1.0773451 -0.10789013 5
4.6931 0.9817633 -0.15685619 6
4.6290989 -6.0920234 0.3705326 7
4.7752666 -5.9038763 0.49549961 8
4.4845929 4.8138885 0.067344673 8
4.7550707 -6.2857251 0.83964205 9
4.5360942 -6.9019017 1.4099174 11
4.4355822 -6.5554929 1.2272224 10
4.6380858 11.662158 0.59193581 9
4.577271 -6.9804521 1.7889522 11.666667
4.4569526 -6.7222743 1.8101944 12
4.4903793 11.754253 1.0252545 10
4.4889579 -6.9656196 2.1716025 13.333333
4.5351458 -6.6618395 2.0271146 13
4.5875607 11.818964 1.5778108 11
4.5319309 -7.1890182 2.7079535 15
4.6700678 -6.9647665 2.5732105 14.5
4.470387 -6.0230827 2.6466315 15
4.662919 8.742754 2.2521281 14
4.6522293 14.032391 2.1374707 12
4.4677124 14.036849 2.4892378 13
4.9774518 -6.0438595 0.15703285 6
4.9208546 -6.0060329 0.36443794 7
5.0237193 -5.8728862 0.40738004 7
4.8355598 -6.8147388 1.0859197 9
4.9422765 -6.0946493 0.85202247 9
4.981647 -6.9283795 1.383045 10.5
4.8360257 -6.6250563 1.2909187 10
4.9342279 -6.8653421 1.7885354 11.5
5.0497675 11.551366 1.0193987 10
4.840404 -6.7923284 2.0967407 13
4.8623333 -6.8511939 2.6087286 14.666667
5.0591192 -6.5552354 2.6673939 15
4.8776903 8.6700373 2.2638974 14
5.1083746 13.763632 2.4746995 13
5.3384829 -6.1908817 0.16153504 6
5.3113279 -5.9385266 0.44478205 7.5
5.5315776 1.4174429 0.28482014 8
5.5279927 1.4111909 0.71467501 10.2
5.5495219 1.6244473 0.75366002 10
5.5512743 -6.7741303 1.3664992 10
5.2008791 -6.6346688 1.3385665 10
5.5183535 1.5005211 1.0890019 12
5.2970333 -7.0297475 1.8573895 11.5
5.4814305 1.5400773 1.5197579 14
5.5369735 1.6750599 1.6298403 14
5.3289905 11.449008 1.0153785 10
5.1803393 -6.9508777 2.179019 13
5.5023074 1.5662975 1.7664238 15
5.4062471 11.471199 1.5155145 11
5.2799287 -7.0218601 2.5682826 14
5.2693434 -6.4843822 2.6056523 14.5
5.405756 -6.1548657 2.6089377 14.666667
5.4595566 -5.6359687 2.4933286 15
5.3717613 8.9749298 2.0987413 13
5.7445345 -6.3648882 0.16600716 6
5.9387012 -6.4239287 0.42328954 7
5.7154136 -6.1034355 0.46652052 7.5
5.975873 1.1470681 0.35803315 8
5.774735 1.2569382 0.30404502 8
5.6965857 1.1670537 0.75572383 10
5.8022556 1.2881342 0.69434589 9.666667
5.8248663 -7.2513065 1.5740905 11
5.6490579 -6.7979317 1.4504634 10
5.8658843 1.1143279 1.0449852 11
5.7321396 1.3683516 1.0695366 11.75
5.8700294 -7.1730113 1.8287494 11
5.6266556 1.2108933 1.6453586 14.5
5.7549114 1.3934854 1.5528113 13.75
5.9555707 11.20062 1.0035297 10
5.6579056 11.342422 1.1724486 10.5
5.7501822 -7.2083945 2.2311389 12.666667
5.932322 -7.0942998 2.0788836 12
5.6648197 1.4239063 1.8061309 15
5.7998948 11.308454 1.6216397 11
5.6110606 -6.5268273 2.5465574 14
5.7088356 -6.0774188 2.5228016 14
5.7842278 -5.7003031 2.500967 14
5.6323838 -5.2083979 2.4718647 15
5.7738028 -4.8354793 2.4561391 15
5.785274 -4.4793 2.4368701 15
5.7118835 -3.9986498 2.4106121 15
5.7738199 8.3673058 2.3099813 14
5.8630772 7.9847479 2.7503588 15
5.6161718 8.4585695 2.7409563 15
5.7876987 13.569731 2.4728122 12
6.306973 -6.5259986 0.17675579 6
6.2915268 -3.1013937 0.081592001 6
6.3790274 -2.4383342 0.13504796 7
6.3445764 1.0669188 0.095264636 7
6.347126 -6.415072 0.41291282 7
6.0831738 -6.238359 0.536955 7.5
6.2368736 -2.9256299 0.63779604 8.666667
6.3610234 -2.514061 0.54484981 8
6.2875767 1.1167742 0.36723348 8
6.0387959 -7.0283289 1.0944611 9
6.1846313 -6.6559205 0.97023332 9
6.3308945 -6.3688517 0.97945595 9
6.2794423 -2.6853638 0.67798537 9
6.2941465 1.1852244 0.6869579 9.5
6.1248918 -6.9426126 1.5010313 10.5
6.2676535 1.1350782 1.1147192 11.5
6.0229435 1.2485685 1.1185844 11.5
6.0457802 -7.0490808 1.8397573 11
6.1243548 1.0335265 1.6083477 13.5
6.2525301 1.2963687 1.5463095 13
6.1193552 -6.9379086 2.2188714 12.5
5.9563055 1.0927801 1.8868145 15
6.1485405 1.3082862 1.7864249 14.5
6.1005416 11.252526 1.6391196 11
5.9519472 -5.6366687 2.4947011 14
6.0433602 -5.3421388 2.4789793 14
6.134665 -5.0589862 2.4673281 14
6.2388816 -4.5707531 2.4394445 15
6.313817 -4.1928487 2.4221802 15
6.1049805 -3.7580035 2.4482026 15
6.2353721 2.6498895 2.1030555 15
5.9557853 7.1471028 2.1341312 14
5.9442778 8.7337627 2.107121 13
6.2106638 13.412497 2.2758617 12
5.9700775 7.9457321 2.7519972 15
6.5268469 -6.2039022 0.12679107 6
6.6223688 -5.8392262 0.16870709 6.3333335
6.7634134 -5.5729051 0.17991269 6
6.6956677 -3.3551445 0.17625116 6.5
6.4146619 -2.9335821 0.26347452 7
6.680079 -2.7495151 -0.084499918 6
6.7104821 -1.7028238 0.19304916 7
6.4990911 0.56420439 0.099532917 7
6.584465 0.82702672 0.066708684 7
6.4809046 -6.2252526 0.55966949 7.5999999
6.6572142 -5.7883186 0.56552786 7.6666665
6.7260242 -5.5131974 0.54725075 7.5
6.5897789 -3.352361 0.59875125 8
6.5678592 -2.9645143 0.53755224 8
6.4650221 -2.5454812 0.36033046 7.3333335
6.4810128 -2.1909108 0.41854319 7.4000001
6.6049352 -1.788493 0.54004675 8.3999996
6.6968913 -1.4263558 0.50652081 8.5
6.7544136 -0.73739707 0.26545182 7
6.50914 0.29947519 0.26676267 8
6.5492511 0.74283314 0.1491065 7
6.5657787 0.99492502 0.25859132 7.5
6.5160747 -6.1261635 0.99255937 9
6.6618257 -5.7201738 1.0016161 9
6.6096568 -1.6803869 0.66901535 9
6.6386657 0.74255329 0.73383182 10
6.5204287 1.0920622 0.73581648 9.666667
6.6574411 -7.1726103 1.3028574 10
6.5020494 -6.8105755 1.4499061 10.333333
6.5497184 1.0212747 1.0794585 11.25
6.529449 -6.7960224 1.6338758 11
6.6736064 -6.3617511 1.6648153 11
6.7130876 -5.7944226 1.8304839 12
6.5405841 1.1626242 1.4371939 12.333333
6.3924465 -6.5412326 2.0960639 12
6.5252056 -6.2395949 2.0865605 12
6.6814208 -5.8431993 2.0785384 12
6.6016202 1.0478045 1.9212385 14.5
6.3586493 1.2739644 1.9156953 15
6.4914069 3.9306164 1.9493878 14
6.6180749 -6.9835434 2.4503157 13
6.3685899 -3.7685246 2.401207 15
6.396554 -3.2512789 2.3721812 15
6.4089441 -2.8896596 2.3558986 15
6.4122667 -2.5382969 2.3420329 15
6.392117 -2.2742183 2.3273079 15
6.7334914 2.037425 2.1458254 15
6.5887923 2.2955313 2.1188929 15
6.7388659 2.6269526 2.0915854 15
6.6536784 13.277521 2.0772846 12
6.4411111 13.319852 2.4675829 12
6.5713015 7.1102715 2.8306949 15
6.5870819 8.0770311 2.7594092 15
6.8441868 -5.326426 0.1323058 6
6.9653497 -4.9497089 0.15683907 6.3333335
7.1006384 -4.5635705 0.20323871 6.5
7.1681633 -4.3139062 0.24375039 6.5
6.9842973 -2.4849224 0.13337985 6
6.9533033 -1.4768949 0.065272383 6.3333335
6.9180217 -1.0215954 0.097657122 6.5
7.0787296 -0.73122734 0.059526462 6.3333335
7.0301948 0.17940383 0.011794344 6
7.1555243 2.7859378 -0.12450751 6
6.8356133 -5.3199964 0.52576852 7.3333335
6.9669328 -4.9642949 0.55091888 7.5
7.0970278 -4.5912662 0.60299027 8
7.1653509 -4.3248115 0.66486996 8
7.1242456 -2.1500936 0.35870877 7
6.9000525 -0.92321128 0.35630539 7.5
7.0568094 -0.59039652 0.48354512 8
7.1174526 0.77998489 0.29795259 8
6.9122005 0.86947429 0.45295951 8.5
7.1327882 2.6294627 0.36781332 8
7.1118608 2.8355474 0.27160224 7.6666665
7.0743823 -5.4148736 1.0405872 9
6.978858 -4.9039674 0.9071691 9
7.1108665 -4.5284905 0.83217907 9
6.8871188 0.96503061 0.69712836 9.5
7.1099415 2.647085 0.63352072 9.333333
7.0928731 2.8841026 0.64285731 9.5
6.8541927 -6.9447346 1.5368819 10
6.9695997 -6.5889707 1.5288024 10.4
7.0835118 -6.1863151 1.4309253 10
7.1357946 -5.9070921 1.3265523 10
6.8974257 -4.8723903 1.2756701 10
7.0804839 -4.4423513 1.2922454 10
7.1512947 -4.2711835 1.2993425 10
7.1162686 0.70002842 1.2544285 11.5
7.0606184 0.92945683 0.9974646 10
7.151103 2.9293334 1.1932497 11
6.8707275 -6.907249 1.6659184 11
7.0020061 -6.0659561 1.6527201 11
6.9649653 -5.5992765 1.632634 11
6.9333501 -5.3215308 1.8335524 12
7.154294 -4.9850106 1.7871578 12
6.9565344 0.74287277 1.6702802 13
6.9215574 1.0348614 1.5184493 12.5
7.1390233 2.7705891 1.3644296 12
7.0807495 2.9808669 1.4285276 12
6.830585 -5.4590125 2.0723228 12
6.9062772 -5.0151215 2.1880553 13.25
7.0373282 -4.5439119 2.0425265 13
7.1442261 -4.2790647 2.0463352 13
7.10326 0.45704249 2.1679235 15
6.9142137 1.0637499 1.8288231 14
6.8075509 2.9634564 2.065191 15
6.9216361 3.9638274 2.0209222 14
6.8503585 5.0984883 1.9311417 13
6.7884474 -6.5761023 2.4365649 13
6.959239 -6.1804523 2.4258611 13
7.0893164 -5.8979554 2.4232266 13
7.040309 0.68445706 2.1826284 15
6.8707666 0.97222745 2.1804149 15
6.8463521 8.293416 2.1188366 13
6.9358711 13.135561 2.4655523 12
7.0634484 6.7865868 2.833569 15
6.7363782 7.2277536 2.7921956 15
7.2456231 -4.1641068 0.13381168 6.25
7.3268695 -3.977685 0.19917244 7
7.4445863 -2.0684309 -0.059543312 6
7.3805261 -1.3850625 0.099439271 6.6666665
7.5385885 -1.1805094 0.23462202 7
7.3469968 0.05479062 -0.013142858 6
7.2574329 -4.1249247 0.47583708 7.6666665
7.376245 -3.937099 0.54550231 7.6666665
7.4488997 -1.9639486 0.33773232 7
7.3719368 0.6900146 0.48234439 8.333333
7.2257357 2.7158339 0.12952951 7
7.1921239 -5.7658873 1.0537182 9
7.242578 -4.1492424 0.84265083 9
7.3573523 -3.9170163 0.90719891 9
7.3128104 0.59045631 0.80942506 10
7.2841916 0.84257424 0.79347801 9
7.2019773 -6.0565128 1.5447767 10
7.3148394 -5.7265148 1.5496444 10.5
7.4092202 -5.3747501 1.4852238 10.666667
7.4817286 -4.9285493 1.5517019 11
7.3523684 -4.5994644 1.52439 11
7.2100644 -4.1866941 1.401299 10.5
7.3704395 -3.917577 1.5183214 11
7.4713039 0.78720421 1.1271656 10.5
7.1719251 0.90294755 1.2110581 11
7.285428 -4.8449697 1.8203903 12
7.3621559 -4.6602116 1.7002888 11.5
7.2809143 -4.0567155 1.7049447 11.666667
7.4016528 -3.7968614 1.7148998 12
7.2446251 0.91342002 1.5581881 12.5
7.1621313 0.6799109 2.0234075 14
7.2538691 0.94256365 1.8840854 14
7.3899865 2.4203436 2.0969188 14
7.2656584 2.6335433 2.087713 14
7.2666411 -5.7883873 2.4501476 13
7.4458237 0.022360904 2.2283208 15
7.3728871 0.27112305 2.2112393 15
7.2137299 0.66334748 2.1880412 15
7.3401299 8.0965872 2.13481 13
7.3039312 6.6654773 2.5589321 14
7.4070811 7.7506094 2.399955 14
7.9591045 -4.1240287 0.10661976 6.5
7.8542104 -3.420006 0.12853336 6.3333335
7.9918432 -3.0980265 -0.019011969 6
7.8475823 -1.2418668 0.46267441 8
7.8347588 -1.1559269 0.41827998 8
7.7756166 0.51617193 0.35794422 8
7.7744946 0.19862428 0.7922644 9
7.7886376 0.62791049 0.71038377 9
7.8859406 -4.2544494 1.3967564 10
7.9177327 0.35788214 1.1380985 10.5
7.8492913 0.64454883 1.1520606 10.5
7.6372595 -4.3262 1.9030811 12
7.6190357 0.78152323 1.6044594 12.5
7.8066702 -4.352057 2.1519997 13
7.9063792 -4.1549783 2.1990855 13
7.8614225 0.3793959 2.0794454 13.5
7.7395954 0.64736027 2.05127 14
7.8970389 6.0024505 1.8963802 12
7.8098683 -4.3937731 2.5448277 14
7.8527665 -4.1835365 2.4447179 14
7.6105771 -3.0261247 2.5281556 15
7.8913002 -1.9670756 2.4138954 14.5
7.8405404 -0.43428922 2.246635 14
7.629406 -0.15839943 2.2473359 14.5
7.9059253 0.6688416 2.1900265 14
7.5820932 7.9843454 2.1400089 13
7.7746377 7.6036315 2.4222031 13.5
7.6974573 6.244307 2.8446672 15
7.7335114 7.5988569 2.7986352 14.5
8.0423698 -3.0920706 -0.14966251 5
8.1405869 -3.7833679 0.033410303 6
8.2306395 -3.3248835 0.29076609 7
8.3839684 -3.1607196 0.13085765 6
8.1730976 -0.095945604 -0.0049894494 6
8.076498 0.22972171 0.070181139 7
8.3709917 2.2735107 0.063292891 7
8.0327196 -3.9116588 0.51171416 7.5
8.2250605 -3.4947469 0.49934095 8
8.1964407 -0.075133517 0.37329406 7.5
8.0842552 0.15989834 0.37743878 7.6666665
8.181283 2.4670944 0.1977585 7
8.1159735 -3.7568507 1.0422757 9.5
8.2756519 -3.3681231 0.97364759 9.333333
8.3513422 -3.1250176 0.82356966 9
8.0246191 0.25646672 0.82788289 9
8.0428848 0.5394029 0.81676096 9
7.9766555 -4.0805373 1.4076277 10
8.2817268 -3.3031933 1.3025185 10.5
8.3546181 -3.1410432 1.1857042 10
8.2811699 0.48857316 1.181813 10.5
7.9979563 -4.011806 1.6196944 11
8.1155872 -3.7224534 1.7153683 11.4
8.2399845 -3.3621628 1.7394258 11.5
8.3189754 -3.1103337 1.8417833 12
8.0153265 0.60242653 1.5068613 12
8.0678158 -3.7723877 2.1581008 12.666667
8.2477293 -3.3340211 2.1117766 12.6
8.1818552 0.21699204 2.1491683 13.666667
8.0114851 0.66851526 1.7983377 13
8.190197 2.6515164 2.0427706 13
8.1398449 5.8997593 1.9074149 12
8.3384809 6.8256469 1.8441681 12
8.0548353 -3.6901941 2.4607925 14
8.1999893 -3.2855108 2.4734888 14
8.254571 -2.897682 2.4690509 14
8.1411943 -2.4626746 2.4233692 14
8.100667 -2.162102 2.4036021 14
8.016901 -1.6805815 2.3726199 14
8.123641 -0.98795325 2.3417737 14.333333
8.0172453 -0.70552909 2.2614567 14
8.0115891 0.046092939 2.4339752 15
8.1819944 7.4781728 2.4523273 13
8.1826324 5.7464442 2.8845708 15
8.054472 6.2583141 2.8674669 15
8.2314177 6.9506764 2.8123314 14
8.4637327 -3.0251629 -0.15787733 5
8.5411711 -2.7095742 -0.13759245 6
8.5661039 -2.1627076 -0.10049547 6
8.7449713 -1.9862099 -0.094067991 6
8.4373798 -2.8348713 0.0027862154 6
8.6477861 -2.4847302 0.32363108 7
8.6029892 -2.2526877 0.053624514 6
8.606513 -0.28953192 0.060826067 6.5
8.6490431 -2.3977664 0.38811132 7
8.4496555 -0.13125116 0.31319439 7
8.4193678 -2.8937008 0.93396556 9
8.5075674 -2.6471839 0.92637914 9
8.643054 -2.2928815 1.0943168 10
8.7085514 -1.9375601 0.92585647 9
8.4063396 -2.9158466 1.2948188 10.333333
8.5603752 -2.4787621 1.33044 10.333333
8.644208 -2.1215632 1.3110247 10.333333
8.7018518 0.32372251 1.0885639 10
8.3945131 -2.922358 1.7473468 11.333333
8.5179024 -2.5776603 1.8070884 11.75
8.6957645 -2.1042244 1.6755564 11.666667
8.5583782 -0.020342927 1.5921423 12
8.4373856 0.44645211 1.5483958 12
8.4086885 -2.8768251 2.1378121 12.666667
8.5541573 -2.4748664 2.0705712 12.666667
8.6477575 -2.1765449 2.1099308 12.75
8.7326536 -1.8395252 2.1502664 13
8.6568899 -0.43870252 2.244607 13
8.4631901 -0.14387976 2.2292812 14
8.4877977 0.50126058 1.8684983 13
8.3575792 2.2627728 2.0887299 13
8.682807 -2.0705366 2.3745143 13.5
8.6966896 -1.7304484 2.3340342 13
8.4344959 -1.394491 2.2987068 14
8.3490553 0.027145909 2.2690413 14
8.4455976 7.3778944 2.4711485 13
8.496706 12.621559 2.4767947 12
8.3453226 5.5800467 2.8991992 15
8.4688492 5.849874 2.8797772 15
8.4385548 6.7817063 2.8108757 14
8.9736624 -1.7637268 -0.210967 5
9.0371981 -1.2551394 -0.17701906 6
8.8257227 -1.6740682 0.100682 6
9.0236797 -1.156619 -0.046727359 6
8.8337841 -0.40519118 0.20337014 7
8.8088055 -0.27925852 0.015417711 6
8.8722134 4.4015756 0.065808617 7
8.8989658 -1.6188303 0.46459728 8
8.9773808 -1.660424 0.82260948 9
8.9482431 -1.4281956 0.80750465 8.75
9.0923834 -1.1010231 0.78386694 9
9.1113281 0.16859519 0.85378337 9
8.8372526 -1.697626 1.2724859 10
8.984828 -1.3408588 1.2882909 10.25
9.0376291 -1.1191679 1.3510511 10.5
8.8032322 0.30236903 1.336449 11
8.8362331 -1.7507453 1.6642964 11.5
9.0246181 -1.207163 1.8543255 12
9.0999527 -0.99529743 1.8789804 12
8.8243074 -1.7037891 2.0892282 12.5
8.9722528 -1.2950392 2.1778743 13
9.0930967 -0.94716424 2.0966091 13
8.7797108 -0.64289212 2.2540193 13
9.005806 0.31631097 2.0622785 12.5
8.8823748 6.0058169 1.8598872 12
9.0736952 -1.1325645 2.501895 14
8.9681616 -0.86018991 2.2781575 13
8.7733946 12.562701 2.0456882 11
8.9113045 5.999414 2.8679562 14
9.0118275 6.7391009 2.8086789 14
8.8116207 6.9249296 2.8127263 14
9.3288221 -0.85739034 -0.16121571 6
9.4225187 -0.64237005 -0.14985833 6
9.4597397 -0.41539544 0.58572584 8
9.5492001 -0.2011209 0.60594171 8
9.1962214 -0.93574643 0.79035753 9
9.5479555 -0.38716269 0.87652797 9
9.5281191 -0.15783262 0.88753098 9
9.1874161 -0.93522102 1.266974 10
9.3863115 -0.13364209 1.2506174 10
9.28829 0.11714079 1.2487562 10
9.1919231 -0.92719102 1.5086769 11
9.5313816 -0.12456183 1.6407318 11
9.4540243 0.083043836 1.6518971 11
9.2037687 -1.147486 1.9624718 12
9.2680054 -0.86005896 1.952958 12
9.3829708 -0.62091982 2.1034098 12.5
9.3529587 -0.21502435 2.2253506 13
9.3805294 0.10955101 2.115886 12.5
9.2524204 7.4472609 1.7437223 11
9.1806278 12.179197 2.1562448 11
9.8345385 6.4271564 1.8642763 11
9.6106596 6.6029301 1.8558103 12
9.9249372 12.092013 2.4902091 12
10.089056 7.1291981 -0.16547476 7
10.288984 11.949062 2.4941266 12
10.800801 -0.60478973 -0.067552261 6
10.781574 -0.62790328 0.53631043 8
10.731764 -0.57700121 0.90057522 9
10.71461 -1.1861662 1.5049611 10
10.726039 -0.8474353 1.450111 10
10.702617 12.164325 1.5815594 10
10.731331 11.577243 2.4891522 12
10.361104 11.705655 2.4547496 12
10.815077 -0.92991728 0.2591438 7
10.847261 -0.74099463 0.21448128 7
10.820122 -0.84281951 0.88988513 9
10.814905 -0.77230465 0.9347555 9
10.835337 -0.48861161 1.4944201 10
10.791234 -0.85242349 1.7415483 11
10.851987 -0.50132984 1.7869222 11
10.914886 -0.40666816 2.2376552 12
