# .PCD v0.7 - Point Cloud Data file format
VERSION 0.7
FIELDS x y z intensity
SIZE 4 4 4 4
TYPE F F F F
COUNT 1 1 1 1
WIDTH 133
HEIGHT 1
VIEWPOINT 0 0 0 1 0 0 0
POINTS 133
DATA ascii
-3.6059752 -3.8090699 1.6167547 15
-3.0914717 -4.1104732 1.3190994 14
-2.9439034 -3.6581552 0.28478876 8.5
-3.013423 -3.9816024 0.66975743 11
-2.9780781 -3.6585262 0.81822413 12
-2.9880593 -3.6057773 0.97940379 13
-2.6341395 -4.243906 0.25778824 8
-2.6252878 -1.9753671 0.14181891 8
-2.6476398 -2.1438735 0.31792942 10
-2.6515014 -2.1037788 0.79850775 14
-2.5993228 -2.0437858 0.46773556 11
-2.4685328 -1.3245372 0.80185795 15
-2.2536738 -4.405664 0.00052890391 7
-2.3227336 -1.1934853 0.16342388 9
-2.3269999 -1.2362617 0.21470717 10
-2.254329 -0.84994191 0.26935321 10.5
-2.3313191 -1.2218872 0.38964632 11
-2.3019457 -1.155808 0.47616503 12.5
-2.2427635 -0.81174421 0.40866378 12
-2.3393817 -0.70630008 0.47301778 13
-2.2950745 -1.1243478 0.6232903 14
-2.2556612 -0.82559544 0.60696352 15
-2.1972625 -0.8087545 0.51049078 14
-1.9364307 0.91526943 0.56063211 15
-1.871523 1.1556077 0.52461147 15
-1.7166526 -4.5212407 0.24944697 8
-1.7490826 1.6566321 0.4271026 13
-1.8044041 1.4305973 0.56106454 15
-1.7522469 1.6796012 0.59581357 15
-1.5517186 1.9772534 0.17158304 10
-1.5774801 1.9268419 0.4857915 14
-1.3759059 2.2016325 0.50545883 14
-1.1827388 1.4575979 0.29862833 13
-0.73914111 2.0968466 0.27974147 12
-0.72032005 2.127187 0.4898324 14
-0.40463105 0.94273591 -0.28158858 0
-0.54893339 -1.6691624 0.19351962 10
-0.52514297 -1.6457812 0.35088092 12
-0.52779013 -1.6517782 0.49188852 14.5
-0.33873871 1.1318299 -0.28151485 1
-0.3157883 -1.7215892 0.19053842 9
-0.28845859 -1.6984572 0.33959505 12
-0.31921816 -1.6959636 0.49155346 14.5
0.0052847764 0.81079143 -0.26136646 0
-0.091737404 1.0156977 -0.27401415 0
-0.068370581 -1.4492723 0.27790371 11.5
-0.15687405 -1.35904 0.43901262 15
0.12117364 -1.8383445 0.23801976 10
0.16127758 -1.8083231 0.39638141 12
0.0083297854 -1.4046707 0.39228126 13.5
-0.0028386561 -1.384845 0.43948787 15
-0.00044984819 1.8378679 0.34195608 13
0.051878773 1.8877985 0.49136379 15
0.35378101 0.73875844 -0.23185055 0
0.21481751 0.99271041 -0.27094391 0
0.27703881 -2.0348608 0.037003238 7
0.25322142 -2.026587 0.11905235 8
0.34640405 -1.8723954 0.2314755 10
0.36564076 -1.8677026 0.36394218 11.5
0.37829235 -1.8660451 0.64160329 15
0.44594473 -0.57163244 -0.17338642 0
0.45116055 0.69266546 -0.23511097 0
0.49203411 1.1514361 -0.26369914 1
0.53151888 -0.9002794 -0.15086114 2
0.39107919 -1.880155 0.50857735 13.5
0.56134832 2.8871126 0.47839192 12
0.66384286 -0.30527994 -0.17767996 0
0.62965119 2.9082651 0.34539089 11
0.93137556 -0.77850884 -0.12834167 3
1.1727273 0.013901332 -0.15786654 3
1.3699685 -5.714426 0.58683407 9
1.8002386 -5.8286448 0.33809629 8
1.9335243 -5.8433475 0.89546663 10
1.9282339 -5.8342619 1.0287275 11
2.1515946 -5.9240232 0.69271874 9
2.0005183 -5.89184 1.6259283 13
2.2623546 2.8142533 0.33705866 9
2.5453703 -5.9516449 1.6791909 13
2.4108813 -5.8976583 2.1025558 15
2.8900039 -6.1116281 0.88789845 10
2.9657996 -6.0960064 1.1402537 11
2.8473382 -6.0148344 1.8868479 14
3.1477265 -5.7896557 1.7126586 13
3.1031156 -6.0712595 2.2637086 15
3.5568841 -6.1373186 1.0225698 10
4.3151588 1.9641681 0.12741859 7
4.2488332 2.0788567 0.30182198 8
4.2758937 2.1970613 0.46177322 9
4.2710404 2.2407193 0.7799437 10
4.2900543 2.2284799 0.86066341 11
4.3200803 1.9908642 1.1031548 12
4.3035746 2.2056174 1.2044343 13
4.2706108 2.1054142 1.3241619 14
4.4526973 1.9293981 0.026245002 6
4.7421427 -5.2833652 0.17557068 7
4.7376304 1.8809711 0.43768862 8
4.701438 1.8987812 0.60712862 9
4.9120193 4.1208525 0.66671252 9
4.8215241 -5.3657293 1.0931108 10
5.3397231 1.3589102 0.11731166 6
5.2191834 1.8298279 0.25916833 7
5.2018991 1.8639973 1.4861156 13
5.5798106 1.7599179 0.64342934 9
5.5860753 -1.4386834 0.67404526 9
5.9098868 1.6723609 0.44182247 8
5.8377128 1.7139904 1.0152612 10
5.7912102 -6.3132982 1.4827057 11
6.1419997 -4.9715061 0.74794602 9
6.3740683 -4.4306316 0.27955627 7
6.5227327 -3.8929863 0.13276076 6
6.4804568 -3.9884658 0.46761358 8
6.4110365 -3.9985645 0.70836204 9
6.4047351 -4.0672913 1.253751 11
6.5285134 -5.4695668 1.6741744 12
6.4537921 1.5000079 1.6680506 13
6.518651 -6.0620065 2.4462769 14
6.5962868 -3.4389496 0.23269355 7
6.6084452 -3.3736212 0.3885217 8
6.6972017 -3.1045105 0.92614847 10
6.6258917 1.4880141 0.73416418 9
6.6946483 -3.1919227 1.2727517 11
6.6844945 -3.055552 2.0892577 14
6.8601618 1.4474145 1.0908271 10
7.6730375 -1.7459421 1.2282004 11
7.6604881 -1.726176 1.6555126 12
7.6761627 -1.6521918 1.8714632 13
7.645081 -1.8362019 2.3201494 14
7.606535 -2.0375655 2.5039506 15
7.8316178 -0.99688792 1.2874877 11
7.8693285 -0.93078172 1.5022687 12
7.8134065 -0.97504759 1.9036642 13
8.1158543 -0.11826926 1.1596657 10
8.0249443 -0.3223266 1.7627529 12
