# .PCD v0.7 - Point Cloud Data file format
VERSION 0.7
FIELDS x y z intensity
SIZE 4 4 4 4
TYPE F F F F
COUNT 1 1 1 1
WIDTH 709
HEIGHT 1
VIEWPOINT 0 0 0 1 0 0 0
POINTS 709
DATA ascii
-4.4214373 -3.7208605 0.24769269 8
-4.4724083 -3.6968641 0.44845924 9
-4.1088877 -3.7811477 0.29685095 8.333333
-4.1830387 -3.7441001 0.57890266 10
-4.2420721 -3.709487 1.0911458 12.5
-3.7764139 -3.8189931 0.30537605 8.5
-3.8218229 -3.783869 0.61919087 10.4
-3.8190033 -3.7813401 1.0254449 12.333333
-3.9377363 -3.7496572 1.2382874 13
-3.4380784 -3.8903761 0.31621617 8.5
-3.4513991 -3.8618073 0.61775404 10.5
-3.455627 -3.8618159 0.99164259 12.5
-3.4503322 -3.8856108 1.5115985 14.666667
-2.9626842 -4.1552453 0.31360081 8.3999996
-3.0302532 -3.8231881 0.29793239 8.5
-2.9546058 -4.1410403 0.58337307 10.333333
-2.9297106 -3.6346266 0.52026534 10
-3.0016115 -4.1146288 1.0085081 12.5
-3.0319047 -3.7519801 0.95913529 12.333333
-2.9437258 -4.1525927 1.4477627 14.5
-2.4807961 -4.353148 0.0026625148 7
-2.6072407 -4.2684021 0.33822703 8.5
-2.7123621 -2.4287169 0.34643325 9.5
-2.6437011 -2.065531 0.26191628 9
-2.5887303 -1.811799 0.27766487 9.6000004
-2.4988663 -1.4424217 0.2599017 9.8000002
-2.637588 -4.2554135 0.74676454 10.857142
-2.7074802 -2.4005654 0.62143308 12
-2.6301699 -2.0177331 0.69077766 13
-2.5863273 -1.8122741 0.6110757 12.545455
-2.4937406 -1.4167253 0.58713019 13
-2.6318731 -4.2560425 1.0270857 12.666667
-2.6428268 -1.9990493 0.97386616 15
-2.5695372 -1.7342405 0.89204639 15
-2.5039475 -1.4897494 0.81825149 15
-2.6325557 -4.2524939 1.4261556 14.5
-2.0905702 -4.4522939 -0.0016509048 7
-2.3707318 -4.3859243 0.0014247842 7
-2.0792029 -4.4042802 0.32802507 8.5
-2.2608433 -4.3472595 0.35623756 8.666667
-2.2966096 -1.0006311 0.24900188 10.125
-2.3284726 -0.66225004 0.22897775 10.2
-2.1995075 -4.4144788 0.80488437 11
-2.2594662 -4.3521085 0.69664347 10.333333
-2.3479772 -1.2086563 0.69976491 14.5
-2.2699766 -0.95830601 0.54419607 13.444445
-2.2905405 -0.61192101 0.50660354 13.5
-2.1789122 -4.3956308 1.1288151 13.166667
-2.3774698 -4.3446636 1.030745 12.666667
-2.1709144 -4.3868217 1.4970616 15
-2.3565404 -4.3427014 1.4019582 14.5
-1.9234695 -4.4868836 -0.0036524702 7
-1.7954506 -4.4795361 0.31963503 8.5
-1.9726824 0.78618175 0.2563549 11.5
-1.9196444 0.99867254 0.22276688 11
-1.8169292 1.4244397 0.2243726 11
-1.7314788 1.7713786 0.21519892 10.8
-1.8516134 -4.4583549 0.71385902 10.5
-1.9207069 0.81038129 0.40996599 14
-1.8792145 1.0562774 0.46009707 14.166667
-1.8002156 1.4099655 0.46781662 14
-1.7189704 1.8268998 0.47339186 13.555555
-1.8204356 -4.4932194 1.0877855 13
-1.8884414 -4.4592223 1.4724088 15
-1.5462164 -4.5361032 0.33517501 8.333333
-1.256914 1.5350827 0.18325038 11
-1.5645795 1.9714048 0.18605538 10.5
-1.4587311 2.0963171 0.23060735 10.75
-1.5423096 2.6031494 0.19551294 10
-1.4285198 3.0176253 0.22558677 10
-1.6090953 -4.5082955 0.69417536 10.5
-1.5750053 1.9673254 0.47669131 13.75
-1.4629445 2.1554551 0.4504883 13.142858
-1.5426697 2.5903549 0.34517172 11.666667
-1.4398496 3.0113111 0.54271472 12.8
-1.2328466 3.86695 0.36260876 10.5
-1.5354401 -4.5386324 1.0332341 12.5
-1.5239123 2.637424 0.74692327 15
-1.416525 3.0452187 0.77297348 14.5
-1.2320265 3.9246719 0.7143243 13
-1.5967264 -4.5299568 1.510069 15
-0.85131711 0.48045322 -0.27244356 0
-1.1855237 1.4784583 0.28989166 12.5
-1.1883571 1.4695016 0.44519138 15
-0.94697607 2.1144133 0.45507744 13.666667
-1.1086079 4.2865763 0.45567358 11
-0.86939627 4.6477022 0.40944061 10.666667
-1.1928927 3.9638917 0.93224424 14.5
-1.1429064 4.1991534 0.83882016 13.5
-0.89015591 4.6725783 0.8361733 13
-1.0704973 4.3784342 1.0594559 15
-0.91399014 4.6934619 1.1218063 15
-0.61528599 0.59306741 -0.27151495 0
-0.46155018 1.009756 -0.28348815 1
-0.50780189 1.3970386 -0.30215409 2.5
-0.53865713 1.7596966 -0.32501408 3
-0.55821359 2.0048671 -0.34229347 3
-0.46661177 -1.6635022 0.30982023 11.5
-0.63832551 2.0035691 0.27835345 12
-0.63611978 2.0502882 0.27340677 11.666667
-0.48723522 -1.6578503 0.49016705 14.5
-0.76560235 2.1100214 0.42979616 13.5
-0.69141757 4.6210089 0.55432755 11
-0.52685863 5.0800242 0.47282463 10.666667
-0.44449946 5.3848977 0.48623103 10.666667
-0.49273133 6.8584561 0.54871505 10
-0.69069481 4.6378231 0.84921175 13
-0.5737167 4.9616804 0.80081934 12.5
-0.46008775 5.3902798 0.8678149 12.5
-0.44687292 6.9753895 0.65628779 10.5
-0.65169126 4.7253833 1.158523 15
-0.51564479 5.0665369 1.1531693 14.5
-0.43665826 5.3622723 1.1546218 14
-0.51436961 6.8936911 1.0605562 12
-0.22233559 0.74908751 -0.2654531 0
-0.20878477 1.0192156 -0.2778078 0.66666669
-0.17305516 1.3919237 -0.28939816 2.1428571
-0.24538077 1.7197199 -0.30549166 3
-0.14415054 2.1527503 -0.31506926 4
-0.091498673 2.6985002 -0.36875004 4
-0.20107019 3.3243272 -0.4146181 4
-0.35785934 -1.6901654 0.28878587 11
-0.1685919 -1.4223905 0.33014059 12.692307
-0.37690166 -1.6864185 0.48307949 14.5
-0.22349843 -1.4433147 0.45338425 15
-0.068690605 1.8733035 0.40489373 14
-0.13374676 8.4192219 0.67496634 10
-0.40477541 5.455368 1.2812972 15
-0.40537995 7.183949 1.0622563 12
-0.079061948 8.6478662 1.21514 12
-0.40680104 7.1184783 1.4440057 14
-0.12930596 8.4753342 1.3460087 12
0.27100596 -2.0375614 0.057431363 7
0.35613468 -0.85673964 -0.14478469 2
0.36897358 -0.57909083 -0.16740988 0
0.21415462 0.73870867 -0.24584091 0
0.20545541 1.0172714 -0.26523361 0.625
0.22011408 1.3935624 -0.27897739 2.1428571
0.1953093 1.822238 -0.27827036 3.4285715
0.15176688 2.0511148 -0.28178245 4
0.24117823 -2.029978 0.15993677 8
0.14815204 -1.7814648 0.33818829 11.5
0.035993289 -1.4684219 0.33198664 12.5
0.070120543 1.8161137 0.33998236 13
0.14460917 -1.7841288 0.5322758 14.285714
0.058694068 1.8439358 0.42701337 14.25
0.31343463 2.7591472 0.48807162 12.6
0.24648683 2.944206 0.50714439 12.5
0.074976437 9.2779417 1.4584489 12
0.32358977 10.286002 1.5985116 12
0.72237617 -3.5131364 0.0012425808 6
0.62800592 -2.5501337 -0.042611517 6
0.57842505 -2.030755 -0.07086952 5
0.63018578 -1.7783192 -0.08028397 5
0.63955152 -1.3854215 -0.10271703 4
0.62080616 -1.0018172 -0.13422862 2.7142856
0.60468221 -0.57984614 -0.15786581 0.80000001
0.6812582 -0.25886142 -0.16505118 0.44444445
0.70589697 0.00012905418 -0.17298862 0.33333334
0.43726254 0.5857749 -0.21345508 0
0.4765456 0.98524499 -0.25107592 0.25
0.51064026 1.4088122 -0.26487115 2.6666667
0.53966326 1.8206171 -0.26415569 3.5
0.5887661 2.3326077 -0.30757138 4
0.61032414 2.5670617 -0.32429785 4
0.62326264 2.8924227 -0.28974348 4.5
0.69723356 3.5408599 -0.38482904 5
0.41453168 -1.8716905 0.40948349 12
0.67625171 1.6623266 0.36244437 12
0.6183483 3.0383773 0.24734393 9.75
0.67744809 1.6738662 0.4490495 13.5
0.41854814 2.8019652 0.42803293 12
0.53528357 2.9582996 0.48405591 12.2
0.70846713 3.3128533 0.57658929 12.5
0.73214555 3.7301612 0.50877851 11.5
0.94752353 -5.7871828 0.096700132 7
0.97581601 -2.5753081 -0.030193066 6
1.0007997 -2.2368851 -0.047260132 5.3333335
0.9627955 -1.9179087 -0.065366693 5
1.0053291 -1.3859351 -0.086299747 4.5
0.98046052 -0.94934636 -0.1227209 3.3333333
1.0199159 -0.58980018 -0.13838758 2.75
0.99627006 -0.2109196 -0.14900227 2
0.83363837 0.0056080394 -0.14228052 2
0.87049627 -5.7752452 0.36016637 8
0.97449994 1.5860659 0.33582494 11.5
0.93816996 2.5329733 0.32826465 11
0.79695463 3.0457392 0.29460412 10
0.97243553 1.6017516 0.45996729 13.25
1.018275 3.4576151 0.54022056 11.9
0.88192058 3.6771057 0.61767596 12.5
1.1168387 9.5817413 2.1251688 14
0.80692714 9.6963978 2.3608479 15
1.4061168 -5.7351198 0.13553983 6.5
1.5407543 -3.0991428 0.015802227 6
1.3750284 -2.6563346 -0.011757484 6
1.410617 -2.2787704 -0.032188568 6
1.320666 -1.768922 -0.055437051 5
1.3882788 -1.428727 -0.067123964 5
1.3654611 -1.06043 -0.085472435 4.5999999
1.4136736 -0.63651365 -0.11243536 4
1.354201 -0.24114178 -0.13847403 3.5999999
1.4783074 0.024229487 -0.13553402 4
1.3239636 -5.7070689 0.28254586 7.6666665
1.3880187 1.4782884 0.29967278 10
1.1940331 1.6096563 0.29666555 11
1.4029082 -5.7066708 0.82065064 10.2
1.3650637 2.6773579 0.38845789 10
1.398335 3.0637405 0.5256986 11
1.1988904 -5.6431785 1.0741235 11
1.5236992 4.932796 0.92130339 13
1.3489422 -5.6504807 1.6569293 14
1.4930301 8.6948967 2.0817449 14
1.7827017 -6.0409884 0.1389713 7
1.7772037 -5.8364735 0.13155973 6.5
1.7772418 -3.7449553 0.075004317 6
1.9924407 -3.0265207 0.021298254 6
1.6743488 -2.4307826 -0.015564327 6
1.6669316 -1.8218173 -0.03935086 5
1.7664393 -1.3942142 -0.049309719 5
1.7523481 -0.9861058 -0.069273673 5
1.7627468 -0.581559 -0.099422731 5
1.7331647 -0.23886324 -0.10703599 4.6666665
1.7863222 0.034123141 -0.12097173 4.5
1.7290961 -6.0384364 0.32729557 8
1.8032355 -5.8276496 0.33825985 8
1.7198764 -5.791779 0.80801439 9.8888893
1.5905441 4.8541861 0.40165234 10
1.7271613 6.4279461 0.37795386 9
1.917006 -5.8189321 1.1593909 11
1.7641052 -5.7750044 1.6316136 13.4
1.7426617 -5.7439761 1.8397681 15
1.7835435 9.4227676 2.1453958 14
1.8217134 9.9160519 2.0983398 14
1.8085492 9.4229803 2.3278186 15
2.209177 -5.9563227 0.15658557 6.6666665
2.0169525 -4.3849754 0.11418692 7
2.1929338 -2.5630157 0.010822466 6
2.1138041 -1.0000824 -0.061431963 5
2.2895122 -0.53428966 -0.074253656 5
2.2059479 -5.9261436 0.35490257 8
2.2547798 -3.7913685 0.45636836 8.666667
2.3448255 3.4927456 0.25805274 8
2.1885257 -5.9161448 0.83374274 9.6000004
2.1267748 3.0098436 0.41961306 9.5
2.3438566 3.435009 0.40875649 9
2.3563979 3.6512272 0.70095754 11
2.1682174 -5.8911004 1.0526356 11
2.3794384 3.6414685 0.8211695 12
2.3312786 -5.9813361 1.6802722 13
2.1500447 -5.8585014 1.7026736 13.5
2.1650047 -5.8449326 1.9121641 15
2.0465806 9.822443 2.1065128 14
2.1649957 8.0367031 2.2941909 15
2.0692627 9.3505116 2.2413571 14
2.5849917 -6.0388131 0.21602003 7
2.4409771 -3.8603773 0.060500503 6
2.7655931 -2.5980308 0.036211535 6
2.683537 -0.21758023 -0.070830144 5.5
2.6056268 -6.1203032 0.37441036 8
2.5263245 -3.7020619 0.43763214 8.333333
2.4416628 3.4377246 0.28612316 8
2.5628157 -6.016252 0.84082586 9.5
2.4367926 -5.9619246 0.93136424 10
2.5444858 3.4557183 0.53189814 9.8571424
2.5721238 3.6364436 0.62694794 10.333333
2.5927305 -5.9956355 1.0978963 11
2.4161692 -5.9460373 1.0779155 11
2.4896953 3.5871177 0.79188162 11.5
2.6191773 -6.0123243 1.7081919 13
2.4263065 -5.9233384 1.7410688 13.5
2.6745884 -5.9646831 2.0096278 14.666667
2.4365075 -5.8824019 1.9559186 15
2.9459634 -6.0922308 0.22162904 7
3.128319 -5.9354186 0.2297001 7
2.9573154 -6.0696964 0.47088131 8
2.9094651 -3.7704711 0.4839519 8.5
2.928242 -6.0808935 0.87365621 9.5
3.1041577 -5.9260812 0.88427573 9.5
2.9364901 -6.0330915 1.1321367 11
3.1580093 -5.8158979 1.1340554 11
3.017983 -6.0953031 1.7615378 13
3.0923271 -5.8992429 1.768718 13
2.9682701 -6.0357571 2.0126562 14.666667
3.0994518 -5.8444529 1.8853081 14
3.026427 9.099472 2.2263193 14
3.3282773 -5.9775171 0.23385975 7
3.2309954 -5.8667231 0.40614408 8
3.392242 -6.0606313 0.92497385 10
3.2159379 -5.8517151 0.97558337 10
3.5423772 -6.1929207 1.2050195 11
3.5479436 -6.1748753 1.8304805 13
3.4467576 -6.2295141 1.8772992 13
3.2979758 -5.8649364 2.0286388 14.666667
3.362659 -5.9461246 2.2853966 15
3.2619951 9.3368874 2.1656246 14
3.3903778 8.9944363 2.4151683 13.5
3.7072906 -6.1467304 0.23802783 7
3.7115865 -6.0715022 0.42870086 8
3.773834 -6.1104031 0.93104327 9.5
3.7406838 -6.0608687 1.215273 11
3.7080081 -5.9566431 1.3840414 12
3.7955887 -6.0940604 1.8478856 13
3.6852174 -6.1252332 1.9628764 13.5
3.6835661 -5.9217305 2.1040189 14.666667
3.9044054 -6.2692728 2.4645255 15
3.8429272 8.891408 2.2769592 13
4.0071616 -6.1518888 0.24697472 7
4.3256607 -5.6469111 0.23172295 7
4.3830147 -5.3809929 0.13582207 6
4.2682137 1.9716065 0.043568507 6
4.3300505 -6.4161549 0.45814008 8
4.0314622 -6.0627131 0.64026618 8
4.2065034 -5.7121897 0.55963475 8.5
4.3200002 -5.3823733 0.47327662 8
4.2938218 1.9796482 0.32312849 7.5
4.2580099 2.0801334 0.1799679 7
4.1244178 -6.0969357 0.98765379 9.666667
4.297874 -5.7004867 0.696504 9
4.2875419 1.9888012 0.67883378 9.5
4.2415619 2.0836771 0.64706939 9.5
3.9932108 -6.0628872 1.3388337 11.5
4.2691374 2.0010247 0.87733603 11
4.2722187 2.1317918 1.0867881 12
4.3789625 11.627162 0.74167848 9
4.0778537 -6.0587711 1.8811297 13
4.2825522 2.0144811 1.286141 13.5
4.2925577 2.2019536 1.3062761 13.5
4.2867656 11.681626 1.1942523 10
4.0891547 -6.1387744 2.1122375 14
4.1838603 8.8335724 2.2028346 13
3.9721229 8.9226494 2.1895564 13
4.1928077 8.799283 2.4279561 13.5
4.4382429 -6.4814434 0.249043 7
4.4670291 -6.2110958 0.25801894 7
4.4411902 -5.6821609 0.086977795 6
4.6837087 -5.3663316 0.11142117 6.5
4.6532192 -5.3248987 0.4955475 8
4.5586591 1.9118972 0.26646331 7
4.5560112 2.8153441 0.13616179 6.5
4.4631 -6.4699807 0.90351367 9
4.3922696 -6.0908017 1.0172484 10
4.6512194 -5.5916772 1.0223684 10
4.6012511 -5.3645353 0.73676169 9
4.5001469 1.9421109 0.6366924 9.25
4.4846296 -6.4348264 1.3280305 11
4.5539713 -6.0293865 1.2035332 10.5
4.6757588 -5.4513841 1.0818025 10
4.5771499 1.9323635 1.0427186 11.5
4.4599247 -6.3841562 1.5763845 11.5
4.5848484 -6.1191316 1.5229647 12
4.5365653 1.9237248 1.4204984 13.666667
4.3667145 2.1869664 1.4021704 14
4.5280428 -6.3938327 2.0006828 13
4.5433273 -6.0435038 2.0838161 13.666667
4.4072757 -5.9219518 1.9086077 13
4.3646107 12.398376 1.5660121 11
4.4772573 -6.4007568 2.5451703 14.666667
4.5029087 8.6977377 2.2250986 13
4.3907876 8.3863163 2.4920878 14
4.396626 8.6244793 2.2555525 13
4.9880986 -5.3532352 0.13986607 6.3333335
5.188951 1.1138386 0.025243243 6
5.2006001 1.8186886 -0.041588318 5
4.9364829 -5.3449473 0.40733111 7.5
4.9987416 1.8599935 0.24903485 7
4.8602104 -6.1242633 1.0659616 10
4.9865608 -5.3737826 0.83700377 9.333333
4.9985623 1.8829223 0.70706773 9.5
5.1490698 3.8543327 0.78918231 9
4.8810148 4.0814276 0.42336389 8
4.9531255 -6.1152668 1.2528604 10.5
5.0208564 1.8920678 1.0263587 11.333333
5.1570268 3.868012 1.0949272 10.5
5.0049734 14.092388 0.58633542 9
5.0024638 -6.1073132 1.5842199 12
4.9500327 1.8756824 1.4016068 13
4.9325018 -6.1188097 2.1288271 13.5
4.8794074 12.879525 1.6210256 10
4.9194055 -6.4892406 2.6189265 14.5
4.9048157 -6.1538553 2.6628165 15
5.0401468 -5.9260807 2.6510057 15
4.7970223 11.532063 1.7980021 11
4.7878962 8.6248531 2.5735793 14
5.3903098 -5.473175 0.13632038 6.3333335
5.5342102 -2.3659153 0.019837353 6
5.3135824 1.3753548 0.031521749 6
5.3158269 1.7553067 0.051968113 6
5.4322343 3.7136519 0.01618851 6
5.4197044 -5.4749494 0.42463166 7.5
5.5479155 -2.3300226 0.55872321 9
5.2359672 1.0745289 0.10622623 6
5.3803458 1.4212047 0.17363693 6.5
5.4176331 1.7598261 0.31769201 7.1666665
5.3145356 3.7606838 0.23545982 7
5.4466801 -5.4517727 0.7703681 9
5.4153452 -2.5085907 0.62072915 9
5.4620981 -2.3091316 0.63130033 9
5.547287 -1.8263358 0.63133091 9
5.3858433 1.8087239 0.68019509 9.333333
5.3767972 3.7685556 0.66123825 8.6000004
5.3347211 -6.2169318 1.4158331 11
5.3483419 1.8322095 0.98369175 11
5.3671594 3.7916694 1.0759676 10.6
5.3012528 -6.1947284 1.6369574 12
5.3814411 1.8093512 1.4562517 12.75
5.3813562 3.7838085 1.4896023 12
5.3070283 -6.1633487 2.0918806 13
5.4280992 1.7734573 1.6834146 14
5.3622303 3.7926168 1.727451 13.25
5.5273933 -6.838553 2.4041336 14
5.7161469 -5.5352864 0.18748377 6.5
5.8787289 -1.8867962 0.029956026 6.3333335
5.6703296 -1.2698946 0.016397543 6.5
5.98137 -0.23973639 0.018377662 6.5
5.9957099 0.19588433 0.12623885 7
5.8713117 1.1105247 -0.021484511 5
5.6640673 -5.5302873 0.5547412 8
5.7239995 -2.1820638 0.39942226 8
5.7252197 -1.8018003 0.30532569 7.5
5.6785574 -1.3980759 0.37312773 8
5.7704978 -0.92380297 0.4463633 8.25
5.8473773 -0.65566421 0.36500743 8
5.873342 -0.15111524 0.37269843 8.25
5.8776617 0.067775048 0.36991027 8
5.7560949 1.6905947 0.33019361 7.5
5.7406664 3.6565921 0.19492891 6.5
5.9420147 -6.1255131 1.0061802 9
5.8079777 -5.5643744 0.80329883 9
5.6133485 -1.8335842 0.72009093 10
5.6902847 -1.2393132 0.68703109 10
5.7580996 -0.80145729 0.71556365 10
5.7920637 -0.60410899 0.59581727 9
5.8704457 -0.37910515 0.62177181 9
5.845953 1.7007296 0.7220062 9
5.6934867 3.6722901 0.67776579 8.5
5.8880706 -6.1973381 1.3679827 10.5
5.770977 1.7199705 1.0847911 10.333333
5.7171097 3.6919498 1.105292 10.333333
5.8143625 -6.228159 1.7199317 12
5.7740541 1.7238401 1.5375899 12.75
5.7013817 3.7081366 1.5127863 12
5.8456278 -6.3983645 2.043555 13
5.7858024 -6.2532611 2.1880059 13
5.9441695 1.6455086 1.7679977 14
5.7173862 1.7018255 1.8171841 14
5.817153 3.6294413 1.8882035 14
5.6425228 3.6910992 1.7900124 13.5
5.9063907 -6.7998767 2.5304625 14
5.6726742 -6.5674567 2.566705 14.5
5.7622375 3.6626697 2.0866907 14
6.1088252 -5.6560068 0.20539339 6.5
6.1689835 -5.4076467 0.15403365 6.5
6.259099 -5.0111532 0.17163494 6.5999999
6.3589821 -4.6368399 0.14110512 6.25
6.2718062 -0.62922049 0.024636237 6.5
6.0862293 0.13351004 -0.015238833 6
6.0512147 1.093038 0.065747537 6
6.0726027 -5.6670713 0.57862657 8
6.1187758 -5.412312 0.50460702 7.6666665
6.2198381 -4.9861178 0.49307549 7.75
6.3299375 -4.6269445 0.54100883 7.6666665
6.0346346 -2.4646299 0.29246977 7
6.236742 -1.3903003 0.33088899 8
6.2536254 -0.97629237 0.41678059 8
6.0079675 -0.086987056 0.48072219 9
6.0726032 0.2084776 0.47087392 8.25
6.0729384 1.6264356 0.32018769 7
6.183754 3.5424795 0.14621477 6.6666665
6.071063 -5.6864171 1.0057033 9
6.1506739 -5.4189548 0.88058943 9
6.2811246 -4.9483709 0.9347055 9.5
6.3425837 -4.538692 0.86613625 9
6.2824025 1.5915886 0.7294842 8.5
6.0725832 1.6369578 0.63849956 8.5
6.0798125 -6.0892172 1.3706473 10.5
6.1051698 1.6332022 1.2837564 11
6.108386 1.6458274 1.0318769 10
6.0331917 -6.5378923 1.8142455 12
6.1813121 -6.0739393 1.7669764 12
6.2675085 -5.7734137 1.7599988 12
6.3379426 -5.3490443 1.743191 12
6.1881928 1.6197813 1.6079972 12.5
6.3372359 10.017512 1.1603593 9
5.9867001 -6.023479 2.194566 13
6.0713282 -5.6882486 2.1700847 13
6.184494 -5.2624836 2.1444137 13
6.2525015 -4.943274 2.124608 13
6.2987528 -4.7394872 2.1149676 13
6.2972693 1.5531073 2.0114486 14
6.240818 10.012671 1.7029035 11
6.3248897 12.138517 1.5789596 10
6.2460938 -6.9631834 2.6075084 14
5.9873233 -6.0938816 2.6758542 15
6.1770535 -5.7554688 2.668817 15
6.295372 -5.4860916 2.6573179 15
6.1264715 3.6022363 2.1424685 14
6.2941113 5.4738679 2.1789889 13.5
6.3226528 13.393164 2.0744951 11
6.1075096 13.428504 2.4017909 11
6.0794663 8.2789135 2.8906922 14
6.4213753 -4.438343 0.065099798 6
6.4607916 -4.2130733 0.10945011 6.5
6.5540891 -3.7727518 0.12376838 6.5
6.6356826 -3.3720453 0.10008419 6.3333335
6.6981721 -3.1125951 0.05618291 6
6.602098 -1.1857299 -0.0032427812 6
6.6792417 -0.72287965 0.03228943 6
6.5655584 -0.18155661 0.13947453 7
6.611135 3.4403913 -0.086771987 5
6.4200511 -4.2519345 0.38884151 7.6666665
6.5351491 -3.7467418 0.47733068 7.8333335
6.6157031 -3.3614514 0.47943422 8
6.7025909 -3.0776577 0.34316477 7.5
6.4447436 -1.3088398 0.21178669 7
6.6881962 -0.44670245 0.27732199 7
6.7532535 -0.38115698 0.27578878 7
6.62322 0.01153583 0.31596115 8
6.6271811 1.47926 0.41854542 7
6.4912257 3.4685497 0.1106589 6
6.5364351 -4.6780992 1.0366445 10
6.4573631 -4.1553211 0.93042791 9.333333
6.5256476 -3.8369772 0.98721653 9.666667
6.6251998 -3.3545022 0.81398827 9.5
6.6769409 -3.1505632 1.0580943 10
6.5784192 1.4259634 0.7162587 8.3999996
6.5518146 -6.1033292 1.3662143 10
6.6469612 -5.7114167 1.3006438 10
6.7129955 -5.4791012 1.4012733 10.5
6.4811187 -4.0750241 1.2512636 11
6.5449152 -3.7826405 1.3007504 11.25
6.6116261 -3.4306436 1.2456988 11
6.5965285 1.5236696 1.0625592 10
6.5397367 -6.0972557 1.5718517 11
6.6204219 -5.7686629 1.5652559 11
6.7030277 -5.4549165 1.561891 11
6.4246831 -4.9625111 1.7344276 12
6.5008841 -4.5896931 1.7271825 12
6.558928 -4.1587033 1.7064393 12.2
6.5884094 -3.3967326 1.4736539 12
6.701767 -3.0539706 1.5921727 12.5
6.4390903 1.5489275 1.4531437 11.5
6.3754978 -4.4488316 2.1058638 14
6.4896212 -4.1286883 2.0714908 13.666667
6.5484724 -3.6893458 2.0886085 14
6.6307635 -3.3172317 2.1284039 14
6.5551872 1.5042894 1.8964149 13.5
6.5352612 8.801281 1.5875721 10
6.4075623 -6.5608163 2.5566523 14
6.531363 -6.1143227 2.5593901 14
6.6291165 -5.6812563 2.4995968 14
6.5877991 -5.3381691 2.5827732 14.666667
6.5429082 -4.8653555 2.6384532 15
6.6388793 -4.4945388 2.6204679 15
6.6935639 -4.1084294 2.5932992 15
6.4835315 5.1985979 2.2859371 14
6.4493074 5.5292387 2.0918894 13
6.689424 13.356594 2.0882919 10
6.435288 13.327654 2.4148655 11
7.1647115 -2.5168402 0.080482043 6.3333335
6.8522344 -0.54309726 -0.086861454 6
7.0049562 1.0258483 -0.053850293 5.25
6.8813243 -3.0706809 0.59929144 8
6.8462229 -0.44845715 0.44025388 8
6.8514729 -0.24208196 0.38966009 8
6.9539547 1.0764236 0.33862749 7
6.9184971 1.3206233 0.32156822 6.6666665
6.7938633 -4.501173 1.0629421 10
6.9302778 1.0388297 0.60081083 8
6.8660035 1.4496423 0.85414594 9
6.8075905 -5.1415257 1.3174905 10.5
6.9585762 -4.6251926 1.2793119 10
6.9458337 -3.1162963 1.3088597 11
7.0732102 1.407666 1.091504 10
6.8016138 -5.0503612 1.5595616 11
6.8961697 -4.6544509 1.5583634 11
6.9159732 1.4327265 1.4638299 11.333333
6.866816 1.4554819 1.7937557 13
6.9595504 8.7211637 1.6013799 10
6.7755351 -5.1400404 2.4944293 14
6.8165245 -4.8913431 2.5155673 14.5
7.0496387 -4.5150938 2.5745227 14.5
6.7644544 -3.7479763 2.5782816 15
6.8110833 -3.2907939 2.5532937 15
6.8523831 -2.9412465 2.5415862 15
7.1401739 0.92209738 2.3500783 14
6.9454298 1.3928707 2.1345513 14
6.7779698 13.245547 2.4320035 11
7.3133883 -3.2099121 0.17660332 6.5
7.4192076 -2.9795704 0.12437219 6.25
7.255548 -2.1049397 0.057698801 6.5
7.5921335 0.76967108 -0.073964894 5
7.2568474 0.91871017 0.13606064 6
7.4099426 -2.9747777 0.47266471 8
7.5565262 -2.6084373 0.47778916 8
7.5808883 -2.2880611 0.54438943 8
7.3594308 0.87310779 0.31627479 6.5
7.3174486 -3.3167992 0.88677579 9.5
7.3805923 -2.9429388 0.99974447 10
7.514101 -2.6182599 1.0212178 10
7.2484136 0.91216296 0.59927118 8
7.4045811 1.2868301 0.63484251 8
7.3791184 -3.2107918 1.3431886 11
7.4036164 -3.0159111 1.2962199 10.666667
7.517673 -2.6604445 1.3897866 11
7.3742871 1.3258979 1.0313152 9.5
7.2613769 -3.3716497 1.7637694 12.333333
7.387188 -2.9191916 1.7050874 12.333333
7.500576 -2.546458 1.7210995 12.5
7.1850286 1.3755456 1.7080417 12
7.3306465 -3.1411502 2.2531769 14
7.4058952 -2.8608425 2.2641964 14
7.5446129 -2.5502343 2.1038845 14
7.2169042 1.3310943 1.8755666 12.666667
7.223289 -4.1967502 2.5502169 14.5
7.3563023 -3.6793313 2.5106878 15
7.3686862 -3.3696678 2.4951785 15
7.3734393 -2.956928 2.4646542 15
7.4753447 -2.5388677 2.3967333 14.6
7.5018167 -2.3278332 2.491307 15
7.4512482 -1.2956506 2.4729927 15
7.3562059 -0.9260999 2.4531918 15
7.2660971 -0.65568382 2.4361389 15
7.4762912 0.41521826 2.3900838 14
7.3062515 0.67173553 2.3693049 14
7.3058171 1.3000386 2.2043915 14
7.7618861 -1.1679878 -0.18292429 6
7.7109795 -2.0668628 -0.025052791 6
7.6958981 -1.886319 -0.0085042175 6.3333335
7.8030295 -1.3962713 0.080266394 6.5
7.8521676 -1.0358492 -0.031205952 6
7.719738 0.70057356 0.10575648 6
7.7985268 -1.4501376 0.49060377 8
7.965704 -0.66188419 0.37385365 7.5
7.7638817 0.68411392 0.32330775 6.5
7.5942087 -2.274708 1.0380499 10
7.8260369 -0.96858269 0.90573519 9.5
7.9299679 -0.63048321 0.9502843 10
7.9788985 -0.33583653 0.75103188 9
7.6715207 1.2559997 0.88371742 9
7.5725207 -2.3860426 1.410149 11
7.6544666 -2.1465404 1.3187326 10.666667
7.7037158 -1.8005462 1.2416186 10.75
7.7928834 -1.354086 1.1750355 10.5
7.8642249 -0.94298434 1.2025023 10.5
7.9436903 -0.64856744 1.1237514 10
7.8961577 1.2109665 1.1443304 10
7.6326303 1.2609634 1.1624125 10
7.5991554 -2.1787634 1.6885858 12.333333
7.7253809 -1.7037072 1.5998807 11.75
7.8000436 -1.343853 1.6599773 12
7.8602281 -0.94286019 1.7088565 12
7.9411693 -0.62392974 1.631093 12
7.5757904 1.2615469 1.6009657 11
7.6233926 -1.9927952 1.8615973 13
7.6652083 -1.8267465 1.8695415 13
7.7433214 -1.4023461 1.8860691 13
7.8899651 -0.92187136 1.9562056 13.333333
7.951612 -0.63741082 1.9374677 13
7.64856 1.2086377 2.0569856 13
7.6174779 1.2692047 1.8572859 12.5
7.5623326 -2.0845575 2.4002035 14.5
7.6314492 -1.6884307 2.4536355 14.666667
7.7373543 -1.4662464 2.3507066 15
7.8064919 -1.1250713 2.5890141 15
7.9390702 -0.52450001 2.445477 15
7.7517929 -0.090737447 2.4239063 15
7.5690942 0.23487806 2.3992422 15
7.7099843 1.1994286 2.2836516 14
8.3013124 0.35494879 -0.2343975 5
8.3701096 0.55911434 -0.22536935 5
8.0960302 -0.45082411 -0.14426936 6
8.1196938 -0.18972288 -0.049376193 6
8.2005386 0.041127853 -0.16369422 6
8.24685 0.13010542 0.31047058 7
8.0359488 -0.38430837 0.91178554 10
8.0600348 -0.37418792 0.98962152 10
8.1152973 1.1402104 0.89831048 9
8.0193024 -0.53207487 1.3429992 11
8.0918322 -0.12628916 1.2007843 10.5
8.2502613 0.1627541 1.0637404 10
7.9928226 -0.53075594 1.6457766 12
8.1212435 -0.095987722 1.6403756 12.25
8.2847404 0.17250632 1.530984 11.5
8.0483494 1.1433583 1.6652664 11
8.0164661 -0.58290851 2.0252011 13.5
8.0805998 -0.21685539 2.0407765 13.333333
8.244833 0.29733109 2.0230699 12.5
8.0839968 1.1347051 2.0041668 12.333333
8.0793352 -0.61763811 2.4592021 15
8.229228 0.013723087 2.2399571 14
8.3968773 0.6735242 0.6352669 7.5
8.4496222 0.92578715 0.76774532 8
8.597188 0.34182483 1.3411304 11
8.4416637 1.0224319 1.1441737 9.333333
8.5794907 0.35818622 1.5608213 12
8.4501915 0.99600685 1.7171613 11
8.5630617 0.40601277 2.1911781 14
8.4096556 0.68872833 2.0626206 12.5
8.4638777 0.98009038 2.0339425 12
8.4774208 0.94710118 2.1945133 13
9.8251657 0.50339967 0.083989203 5.5
9.7785921 0.32238838 0.4208293 8
9.7618895 0.62578309 0.530083 7
9.7397194 0.58216023 0.94191062 8
9.6340084 0.34326985 1.2733365 10
9.7163363 0.66772926 1.3015614 9
9.7912588 0.17511821 2.1363659 13
9.7931156 0.63281858 2.1826327 12
