# .PCD v0.7 - Point Cloud Data file format
VERSION 0.7
FIELDS x y z intensity
SIZE 4 4 4 4
TYPE F F F F
COUNT 1 1 1 1
WIDTH 88
HEIGHT 1
VIEWPOINT 0 0 0 1 0 0 0
POINTS 88
DATA ascii
-0.27726331 -0.94243371 -0.16939622 174
-0.11188404 -0.9501003 -0.17153871 187
0.026352348 -0.9777199 -0.16180964 188
0.17175668 -0.94817716 -0.15657938 195
-0.2307014 -0.88085002 -0.17651053 187
-0.048413128 -0.83102411 -0.17232634 198
0.066480212 -0.87106878 -0.16391189 201
0.19203067 -0.85986292 -0.15799196 199.2
-0.15973245 -0.78041685 -0.17532934 197
0.012289576 -0.71733522 -0.17335635 196.5
0.11463708 -0.74441445 -0.16777892 197.33333
0.21906085 -0.74515092 -0.16176006 195.60001
-0.07948105 -0.6688357 -0.17762694 196.5
0.063245654 -0.61816919 -0.16901529 193
0.15521425 -0.62903881 -0.16245306 192.5
0.24182189 -0.63182038 -0.15466997 192
-0.039873514 -0.5478875 -0.17412633 193.60001
0.055548258 -0.55781519 -0.17564888 191
0.1694954 -0.54065335 -0.16216676 189
0.26425117 -0.5348261 -0.15678985 187.55556
-0.13048063 -0.44544488 -0.1867049 192.33333
-0.030573297 -0.4614647 -0.17829333 189.39999
0.048076019 -0.45053008 -0.17524871 187.2
0.14567281 -0.48744398 -0.16847724 186.33333
0.2552903 -0.45554939 -0.17273839 181.91667
-0.10884532 -0.32674944 -0.17834452 188.2
-0.06771528 -0.35084414 -0.180629 187.57143
0.08500538 -0.34035364 -0.18586276 181
0.16981359 -0.37563133 -0.17943133 179.7
0.27759573 -0.38964626 -0.1713181 177.88889
0.30612651 -0.38106257 -0.17801979 175
-0.058695585 -0.27672222 -0.11355878 189
0.0095433025 -0.25386047 -0.18693998 180
0.14393899 -0.20505291 -0.15269469 159
0.20674522 -0.20800996 -0.18395279 148
0.33171567 -0.22417699 -0.18376827 169.33333
-0.33055684 -0.14919282 -0.13260184 179.375
-0.19493251 -0.13110068 -0.20102093 187
-0.1675549 -0.19720669 -0.19753407 187.5
0.068468548 -0.17796847 -0.1402742 175
0.17762962 -0.13743834 -0.10623479 131
0.26082522 -0.13318522 -0.13174963 128.94643
0.31580848 -0.13691735 -0.15471245 129.625
0.79532719 -0.10704356 -0.14791594 181
0.84756428 -0.11953578 -0.14563712 185.42857
0.93540972 -0.14049014 -0.14331253 190.25
0.6800248 -0.043615539 -0.1751768 174.66667
0.76242775 -0.052588396 -0.16481024 175.58621
0.85297644 -0.035035569 -0.14954031 183.21428
0.94071716 -0.039817117 -0.14740843 189.75
0.67721301 0.04642804 -0.17900747 174.6875
0.76699108 0.063963234 -0.16743089 175.10001
0.85934621 0.050734349 -0.15396422 183.5
0.93321288 0.060192727 -0.14981934 189.75
-0.21186005 0.158806 -0.14205246 184.5
-0.17800181 0.15024149 -0.19002005 178.71428
0.66135037 0.14082468 -0.18358649 174.5
0.75616413 0.15724736 -0.16927688 175.6842
0.85540634 0.13846135 -0.15824164 185.15384
0.93232954 0.14244263 -0.15588607 190.39999
0.54627174 0.2652353 -0.1930538 165
0.66128832 0.23825556 -0.18346775 173.5
0.74574304 0.23952001 -0.16830997 181.53334
0.84580898 0.25343549 -0.16874087 187.75
0.94523424 0.25801897 -0.17415239 191.33333
0.4936806 0.30300322 -0.19675528 165
0.55955142 0.34165147 -0.19402568 174.25
0.65083039 0.33990496 -0.18414989 181.33333
0.7522524 0.34703961 -0.17868815 186.72728
0.84555221 0.32872331 -0.17022651 190
0.93011123 0.36866263 -0.18534276 191
0.56754011 0.42943645 -0.19111821 184.27272
0.68521309 0.44426489 -0.19239593 188
0.74986875 0.41434529 -0.18563934 189.75
0.89289647 0.44865593 -0.18617785 194
0.57608736 0.55747843 -0.20235834 190
0.64291251 0.51658159 -0.1965321 190.33333
-0.08551503 -0.35528907 -0.034940474 178
-0.13320917 -0.23163907 -0.06427066 157
0.0075535127 -0.22041073 -0.06286519 179
-0.335722 -0.14385845 -0.085010149 159.60001
-0.0064899134 -0.15989731 -0.011726648 128
0.079015382 -0.13230355 -0.047501024 127.73077
0.13543013 -0.13464737 -0.08111959 128.38095
-0.25805038 0.17079073 -0.090707615 173.55556
-0.40986764 0.21435414 -0.10781688 154
0.020655803 -0.24968927 0.014747312 170
0.08816576 -0.16478565 0.047190428 130.5
