# .PCD v0.7 - Point Cloud Data file format
VERSION 0.7
FIELDS x y z intensity
SIZE 4 4 4 4
TYPE F F F F
COUNT 1 1 1 1
WIDTH 145
HEIGHT 1
VIEWPOINT 0 0 0 1 0 0 0
POINTS 145
DATA ascii
-0.25153467 -0.9227252 -0.19540173 147
-0.10535755 -0.94500256 -0.18969679 154
-0.085355669 -0.90507847 -0.1869759 157
0.032842852 -0.95454037 -0.18450496 158.66667
0.16661662 -0.95068461 -0.18240418 158.66667
0.29308492 -0.94704753 -0.19012548 157
-0.54056859 -0.80737638 -0.19377215 135
-0.402955 -0.88504177 -0.19950426 145
-0.36546177 -0.84176803 -0.19495988 150
-0.21701972 -0.87238252 -0.1939977 151
-0.041586608 -0.8209343 -0.18695296 163
0.075445652 -0.83907914 -0.18478508 167.2
0.1932404 -0.83721471 -0.18506218 166
0.29885328 -0.86127079 -0.18095589 162.33333
0.30415997 -0.83498001 -0.19074789 169
0.40810907 -0.85091913 -0.17890769 170.5
0.51062095 -0.82670408 -0.16787435 174
-0.68467194 -0.72613686 -0.20134103 130
-0.45463118 -0.73367614 -0.19763839 151.5
-0.32095325 -0.79298079 -0.19779453 156
-0.25400588 -0.71782583 -0.19642866 166
-0.13366219 -0.75133693 -0.19193798 163
-0.015987059 -0.7745868 -0.1922186 166.5
0.060244914 -0.73593658 -0.18513264 167.5
0.11959592 -0.7168172 -0.18165675 171.66667
0.21450855 -0.74332511 -0.18453576 172.25
0.30958733 -0.75693035 -0.18302171 178.5
0.44248688 -0.7374081 -0.17978115 187.5
0.55054045 -0.75579208 -0.17938103 184.5
-0.6233936 -0.68467456 -0.20064786 137
-0.55803168 -0.63974738 -0.19616522 147
-0.40523642 -0.69140285 -0.20023568 161
-0.30821306 -0.60510379 -0.19192547 168
-0.22170791 -0.68097758 -0.19389211 167
-0.17385654 -0.62787092 -0.19487187 170
-0.058452796 -0.64257222 -0.19118331 169
0.046199914 -0.65386993 -0.19001724 173.75
0.14134251 -0.66015875 -0.18474403 174.75
0.23789671 -0.63845265 -0.18259722 185.8
0.36107263 -0.62824237 -0.17970996 189.39999
0.4824416 -0.64084417 -0.17355995 190.8
0.5859741 -0.69576687 -0.18279009 188
-0.72742665 -0.57193905 -0.20219979 131
-0.64391124 -0.5290429 -0.20030917 145
-0.48959154 -0.59417427 -0.19936158 154.5
-0.37727669 -0.51835859 -0.1991552 168.33333
-0.2305427 -0.53814834 -0.19406529 172.66667
-0.12798429 -0.57633018 -0.19380181 171.66667
-0.051155172 -0.53049201 -0.18697141 170.33333
0.057954051 -0.55097723 -0.18693861 178
0.16251124 -0.54877299 -0.18345359 184.75
0.25883168 -0.54771376 -0.18331553 185.625
0.36195302 -0.54833668 -0.18164121 185.76923
0.46924609 -0.5556969 -0.17502339 187.33333
0.54486942 -0.55550754 -0.18270902 184.14285
-0.55187321 -0.48237696 -0.20265082 154
-0.45450208 -0.43246606 -0.20127708 165.5
-0.31939414 -0.47863972 -0.19559845 173
-0.26470336 -0.44193494 -0.19667071 173.25
-0.11968547 -0.44037831 -0.18803312 173.66667
-0.039961975 -0.46023831 -0.19027519 175.57143
0.045698319 -0.44768244 -0.18917435 182.63637
0.14931847 -0.48257267 -0.18619858 183.39999
0.24933718 -0.47734544 -0.18989794 182
0.37588221 -0.47133356 -0.18499954 182.25
0.45620397 -0.46493486 -0.18007627 182.55556
0.51615423 -0.46001977 -0.17983343 184
-0.65600187 -0.38572875 -0.20389368 149
-0.54667431 -0.34504303 -0.19829223 159
-0.33495793 -0.37078407 -0.19672658 167.75
-0.23937809 -0.32112822 -0.1906691 169.39999
-0.14998609 -0.36266372 -0.18667755 169.66667
-0.061185412 -0.35210913 -0.19018583 179.08333
0.19326343 -0.37354398 -0.19366494 179
0.27198991 -0.38323277 -0.19127436 177.25
0.37349775 -0.37020373 -0.1873371 174.66667
0.45828417 -0.3426351 -0.18486412 171
-0.51976049 -0.21716347 -0.20246986 166.5
-0.43188611 -0.30050513 -0.17348632 164
-0.3621774 -0.27339831 -0.15781108 159
-0.28077489 -0.24164331 -0.13846515 159
-0.16319506 -0.25460121 -0.16742855 168
0.048479538 -0.29664537 -0.19735603 179
-0.41578445 -0.19218309 -0.19694139 171.5
-0.35941389 -0.17880392 -0.19689243 173.25
-0.26594263 -0.15533298 -0.17407756 170
-0.15022077 -0.176432 -0.1612085 159.5
-0.0037149522 -0.093391448 -0.17824396 172
0.084327683 -0.069486186 -0.12425775 129.33333
0.10909341 -0.06427598 -0.13480729 130
0.35254139 0.093492597 -0.15218964 118
0.47481278 0.068104476 -0.19214229 168
0.67419428 0.07043957 -0.17377153 177.73685
0.77110893 0.071654677 -0.17398112 183
0.84502989 0.086809278 -0.15473008 188.85715
0.90303433 0.098015197 -0.15306206 192
0.3498776 0.13194947 -0.16134213 135.90909
0.45484346 0.12808232 -0.19350684 168
0.64805108 0.15582971 -0.17689078 178.11111
0.76050442 0.1480255 -0.17087489 184
0.8486774 0.15484832 -0.15645291 189.5
0.9287287 0.13801955 -0.15109161 194.16667
0.35777926 0.22231108 -0.19329314 170.73334
0.41956055 0.22070964 -0.19310021 171
0.56781763 0.26093143 -0.18256672 178.04762
0.64069635 0.23826568 -0.17853573 179.93333
0.73662382 0.24304056 -0.16983525 185.36363
0.85554439 0.25106978 -0.15907288 192.08333
0.9439075 0.25478193 -0.16411655 196
0.29152548 0.38129944 -0.189541 178
0.37245533 0.37462962 -0.18903068 177.76923
0.45804343 0.35551897 -0.18401597 178.26315
0.54374325 0.32690486 -0.18313356 180.15384
0.64798802 0.34958324 -0.17614809 184.92592
0.74846089 0.35247925 -0.16769773 189.44444
0.82537007 0.35144326 -0.16201463 193.33333
0.92220902 0.32850936 -0.1691988 195.5
0.27906722 0.43326536 -0.1902961 181
0.36919913 0.45992696 -0.18861064 183.8
0.45769414 0.46523261 -0.18306157 185.11111
0.54041231 0.44989538 -0.17789854 186.83333
0.65093887 0.45048067 -0.16674745 189.77777
0.74074149 0.44167992 -0.16365601 193.625
0.85675055 0.45063186 -0.17764924 196.75
0.25448668 0.52075338 -0.17836528 188.375
0.35710278 0.53517753 -0.18116356 188.75
0.46188825 0.5565176 -0.17237052 190.28572
0.54371464 0.5475328 -0.17415667 191.625
0.63248682 0.53681779 -0.17301549 193.57143
0.7530601 0.55195975 -0.17496949 195.75
0.81289405 0.56233925 -0.17215019 197.5
0.23194157 0.62234646 -0.18597881 192.8
0.36175561 0.62524593 -0.18282385 193.10001
0.47321096 0.63445592 -0.1722315 194.33333
0.56584328 0.65290856 -0.18142617 194.66667
0.66354811 0.65495664 -0.18869317 197
0.74258339 0.6182245 -0.17498526 198
0.19902849 0.7674616 -0.19416332 199
0.20992181 0.7280708 -0.19905521 196.25
0.39766487 0.75002366 -0.18991351 198.25
0.48937532 0.72545123 -0.18244046 196.75
0.58729851 0.72840601 -0.18280318 198.75
0.17824946 0.85739213 -0.19781238 201
0.40077463 0.86197001 -0.19423479 199.33333
0.50648695 0.82226086 -0.19296981 199.5
