# .PCD v0.7 - Point Cloud Data file format
VERSION 0.7
FIELDS x y z intensity
SIZE 4 4 4 4
TYPE F F F F
COUNT 1 1 1 1
WIDTH 95
HEIGHT 1
VIEWPOINT 0 0 0 1 0 0 0
POINTS 95
DATA ascii
-0.28255406 -0.9167946 -0.1881907 146.5
-0.4017323 -0.83472526 -0.19395846 149
-0.22994503 -0.84498447 -0.19053741 157.33333
-0.5356645 -0.75705314 -0.19910021 140.5
-0.33474457 -0.76499647 -0.19947924 162
-0.15531017 -0.74166429 -0.18988983 167.39999
-0.24821116 -0.67115498 -0.19301517 169
-0.15185273 -0.64658237 -0.19363257 170.5
-0.07186874 -0.62676442 -0.19085553 170.8
-0.32906425 -0.58660609 -0.19688217 168
-0.23511644 -0.50907904 -0.19582891 172
-0.1468406 -0.56366909 -0.1943002 170
-0.020026004 -0.55244821 -0.18336156 174.33333
0.0084267454 -0.51456571 -0.18724282 178.25
-0.30519581 -0.43121341 -0.17343323 169
-0.27027544 -0.40989277 -0.17797714 172
-0.1302795 -0.42152032 -0.18968724 173
-0.04372824 -0.45238486 -0.18850973 177.8
0.039805122 -0.44526276 -0.18926547 182.88889
0.87003976 -0.43390793 -0.16150044 173.33333
-0.228361 -0.38330805 -0.17713025 174.25
-0.14219449 -0.33950576 -0.19061716 178
-0.061856739 -0.36586419 -0.19269404 180.33333
0.0096306363 -0.39865074 -0.19935365 182
0.12769563 -0.3538774 -0.19783713 178.33333
0.7561565 -0.33623567 -0.15523377 185.75
0.83506316 -0.33759683 -0.15222 180.28572
0.91449469 -0.36350366 -0.16202196 160
-0.2494961 -0.20740762 -0.19946074 173
-0.055601057 -0.27642021 -0.19052422 179.5
0.15169136 -0.21015558 -0.17739271 163.5
0.65055239 -0.234053 -0.1782936 176.94118
0.73995328 -0.24872048 -0.16400053 181.80952
0.85093838 -0.2500518 -0.15422806 186.25
0.94378728 -0.24457552 -0.15619658 190
-0.20572732 -0.15483154 -0.19731902 163.5
-0.19412112 -0.11434884 -0.19824903 174
0.053234551 -0.17248149 -0.12634514 159
0.17166544 -0.14399238 -0.1154718 134.66667
0.25466236 -0.13922548 -0.14282759 123.7619
0.51204258 -0.11207392 -0.19892752 169.60001
0.64936066 -0.1516913 -0.17940094 175.39394
0.75424159 -0.15789886 -0.16969274 180.39131
0.86149555 -0.14178115 -0.15300705 186.41667
0.92061681 -0.15192223 -0.14664637 189.8
0.49136129 -0.058145363 -0.19702482 168.55556
0.52484316 -0.052905452 -0.19796216 169.38461
0.66743326 -0.058575563 -0.18287693 174.61539
0.76361024 -0.064210974 -0.17110392 179.54167
0.83972991 -0.052548084 -0.15279239 184.375
0.92726517 -0.053873286 -0.15034421 189.25
0.48511139 0.048783898 -0.19771312 168.25
0.52527386 0.027620394 -0.1983162 169.14285
0.67464882 0.042929482 -0.18106064 175.79311
0.75967443 0.044078577 -0.17616567 178.92
0.84236407 0.040716838 -0.15717283 184.5
0.92826158 0.044672776 -0.15391567 189.55556
0.079670437 0.17043771 -0.12479568 135.375
0.12037767 0.17398806 -0.113639 130.69231
0.49150693 0.11812826 -0.1993835 169.2
0.51864481 0.11099546 -0.19943766 169
0.64879876 0.14695987 -0.18119088 177.39999
0.75951356 0.14426683 -0.17366064 180.65218
0.84374642 0.14738058 -0.15700538 185.7
0.92785525 0.15196836 -0.15333207 189.66667
-0.10985076 0.29490471 -0.17248425 169.42857
-0.059364978 0.2741302 -0.17701779 175.125
0.12179924 0.20305637 -0.1725259 142
0.5813002 0.24821402 -0.1875848 177.77777
0.63948268 0.24565962 -0.18613958 180.39131
0.74122047 0.23898342 -0.17428726 182.72728
0.85939842 0.24575189 -0.1629007 188.63637
0.93248802 0.23056617 -0.16113129 191
-0.11470523 0.39692527 -0.19571142 173
-0.07827343 0.36464858 -0.18289775 171.33333
0.66960627 0.33968017 -0.17830794 185.5
0.75416917 0.35462043 -0.1691494 187.7
0.8359099 0.34132341 -0.16979937 189.5
0.9228887 0.35483742 -0.17769305 190.5
0.73450172 0.44427204 -0.17528804 192.16667
0.85463202 0.45878732 -0.1779768 191.39999
0.78628236 0.50638521 -0.18314369 191
0.81301528 0.53973186 -0.18330005 192
-0.1522705 -0.32033524 -0.082361795 162
-0.10745246 -0.21005157 -0.0049889586 140
-0.0433065 -0.24308141 -0.028560081 156
0.085526802 -0.12650104 -0.070441283 122.3
0.12974139 -0.14594392 -0.089366324 132.13333
0.048153251 0.17663871 -0.062091965 127
0.11602494 0.18521468 -0.087110929 129.66667
-0.03168118 0.2301022 -0.087267086 154
0.062060613 0.2284396 -0.088646598 142.33333
-0.029116791 -0.1708717 0.014814809 135
0.026220592 -0.19383153 0.0054913391 128
0.036483813 0.16807957 0.013837716 125
