# .PCD v0.7 - Point Cloud Data file format
VERSION 0.7
FIELDS x y z intensity
SIZE 4 4 4 4
TYPE F F F F
COUNT 1 1 1 1
WIDTH 571
HEIGHT 1
VIEWPOINT 0 0 0 1 0 0 0
POINTS 571
DATA ascii
-13.158895 -3.2875841 2.0436642 11
-10.660883 -3.4720826 1.6745867 11
-10.558864 -3.293247 2.3468168 13
-10.343854 -3.375484 2.2190239 13
-10.132375 2.321898 2.500083 14
-10.115436 2.5650556 2.5384665 14
-10.141819 -3.2614133 2.8522067 15
-10.189087 1.4228303 2.918467 15
-10.0872 1.8579226 2.9774649 15
-9.946887 -3.4968905 1.5727884 11
-9.7843046 2.2435358 2.9836326 15
-9.3548851 -3.5380247 1.4891832 11
-9.4718266 -3.3000538 2.6812613 15
-9.4593735 2.4961255 2.9611661 15
-9.1260281 3.8124306 0.098113023 7
-8.7998857 -3.5626504 1.4105951 11
-8.9388247 -3.3571799 2.5463803 15
-8.7215176 -3.4976323 0.29937646 8
-8.4944735 2.5154977 2.050808 14
-8.1221027 -3.285296 0.030784108 7
-8.0163631 2.1158068 2.0670111 14
-8.2695704 2.8708441 2.0613942 14
-7.7038622 -3.6197886 1.4942085 12
-7.605895 -3.4736085 1.5601697 12
-7.6928067 -3.5386403 2.2412946 14
-7.7473779 2.1600916 2.0511622 14
-7.8614564 2.4583468 2.0750554 14
-7.9606543 3.183846 2.0557837 14
-7.7826939 3.3229024 2.0473466 14
-7.6167612 -3.6261168 2.457366 15
-7.4308867 -3.6314337 1.2238333 11
-7.4297881 -3.6349616 2.1802893 14
-7.2124901 2.5692332 2.0339472 14
-7.0567884 -3.6656289 2.0929391 14
-7.0108023 -3.5378499 2.2946813 15
-6.7904172 2.1816285 1.7242607 14
-6.6293855 2.1962919 2.0624263 15
-6.3724318 2.3555501 2.0453348 15
-5.6136565 2.4521444 0.10987706 8
-5.6929731 -3.3283505 1.1866153 12
-5.6417398 -3.2362423 1.2644449 12.5
-5.7874713 2.2884386 1.4796535 13.5
-5.6095281 2.4829342 1.4416404 13.5
-5.7239122 -3.3304026 1.7715807 15
-5.6889424 -3.1532462 1.9480537 15
-5.630507 2.4892938 1.6645072 15
-5.2344565 -3.7259173 0.2955502 8.5
-5.2315459 -3.4498847 0.16012125 7.6666665
-5.5269856 -1.8411989 0.14110929 8
-5.5622139 2.6562448 0.09217681 7.5
-5.5507565 2.8200436 0.10789766 8
-5.2419086 -3.7256129 0.76496357 10
-5.238843 -3.4638731 0.47101679 9.333333
-5.2608876 -3.731761 0.94955754 11
-5.2586808 -3.5318849 1.0544902 11.5
-5.2484193 -3.4812191 1.3025886 13
-5.5700455 2.559479 1.4710097 13.5
-5.2278061 -3.7513592 1.6885214 14
-5.3318868 -3.4178894 1.7946203 14.8
-5.5965285 2.6093397 1.7716445 15
-5.0100155 -3.6204622 0.0020336357 7
-5.0485463 -3.4874756 0.051817436 7
-4.400959 -3.7054718 0.32409081 9
-4.4990482 2.0887439 0.20238751 8
-4.7049379 -1.8240365 0.64165306 10.5
-4.5195203 -1.531867 0.6164239 11
-4.4099016 -3.6685181 0.97822034 12
-4.2739806 -3.7707455 -0.061513785 7
-4.2956223 -3.7901647 0.13289584 7.6666665
-4.2693996 -3.7875521 0.67930138 10
-4.0681887 -1.8794931 0.48480013 10.5
-4.3850713 -1.338722 0.627105 11
-4.1910424 -3.7650771 0.98173988 12
-4.2383156 -3.7891445 1.4944692 14
-3.6750848 -2.1927307 0.18146622 8.1999998
-3.7874675 -1.8615311 0.25291169 8.666667
-3.6831782 1.9659332 0.22859706 8.333333
-3.6025226 2.0047991 0.22387177 9
-3.6323783 2.7113056 0.25367001 8.5
-3.617044 3.0221896 0.27856472 8.5
-3.6108754 3.3495181 0.348755 9
-3.7608948 -3.7645423 0.79028583 11
-3.7294741 -2.2483785 0.55668139 10.571428
-3.8337295 -1.8826852 0.56607091 10.8
-3.693692 -0.95902079 0.46177918 10
-3.6954858 1.9910458 0.54655856 11
-3.6064346 2.1323659 0.61034018 11.166667
-3.6430621 2.6781113 0.65004826 11.2
-3.6408379 2.9711289 0.64125401 11
-3.6195118 3.3323331 0.59983796 10.666667
-3.768548 -3.7696681 0.90516621 12
-3.7368984 -1.8338686 1.0009295 14
-3.710418 1.9588075 1.1201595 14.333333
-3.6446753 2.1646967 1.1079782 14.2
-3.6145949 2.6070201 1.1143732 14.5
-3.6469672 2.9580052 0.85150528 12
-3.6278522 3.4437418 0.82445854 12
-3.6064296 3.7494614 0.88070965 12
-3.812407 1.952108 1.2116964 15
-3.6269851 2.247329 1.2321613 15
-3.6500776 2.5932534 1.2451705 15
-3.6678441 2.9844537 1.310811 15
-3.6515343 3.4139221 1.4058231 15
-3.6381466 3.8601034 1.4958837 15
-3.6199558 4.1001101 1.5583129 15
-3.612021 4.3576784 1.6024644 15
-3.604073 4.5681415 1.6530225 15
-3.4181428 -3.0761619 0.19436379 8
-3.5681534 -2.1396854 0.14086017 8
-3.4346323 -1.3018591 0.1313246 8
-3.5829487 2.1940308 0.22603871 8.5
-3.5659857 2.4837961 0.22908117 8.333333
-3.5899034 3.3904819 0.1886716 8.333333
-3.5690036 3.785733 0.25630635 8.5
-3.5477715 4.1409407 0.21469486 8.333333
-3.4219453 4.4931831 0.26403505 8.5
-3.3342819 4.8112483 0.26678696 8.333333
-3.4296768 6.2700911 0.28591728 8
-3.3028924 -3.7770004 0.77764183 11
-3.4561064 -1.2861886 0.42733231 10
-3.5616565 -1.0984354 0.43487778 10
-3.5853882 2.2484455 0.55265236 10.833333
-3.586447 2.4845204 0.60588062 11
-3.5865357 3.427738 0.62174594 10.666667
-3.5745022 3.7950788 0.62094831 10.4
-3.5598314 4.1985679 0.5936541 10
-3.400414 4.4696965 0.508982 9.5
-3.5229909 5.083106 0.57625037 9.666667
-3.4994109 5.400435 0.57313067 9.5
-3.4763577 5.845655 0.6440208 9.666667
-3.4121251 6.2147012 0.64297682 9.75
-3.2339923 7.6187387 0.78795582 10
-3.3078814 -3.7891982 0.85372937 12
-3.5559292 -1.7810638 0.83906245 13
-3.5631287 2.19927 0.92292529 13.5
-3.5514786 2.5771103 0.95325017 13.5
-3.5887129 3.0085356 1.0298294 13.5
-3.5707991 3.3478813 1.0891285 13.5
-3.5582612 3.7929018 1.0099162 12.666667
-3.5434537 4.2528954 1.0056183 12.2
-3.5255041 4.640882 0.89124167 11.333333
-3.5309155 4.9631505 0.99188012 11.666667
-3.4991114 5.3889275 1.0214775 11.5
-3.4702129 5.781014 1.0715225 11.5
-3.3331144 6.3246894 1.0403663 11
-3.306989 7.6144586 0.80658728 10
-3.5499096 3.8134265 1.2462385 14
-3.5155182 4.2425122 1.3256733 14
-3.4891193 4.6220322 1.3455809 13.666667
-3.4712052 4.9390125 1.3508976 13.333333
-3.4440603 5.3664412 1.4586723 13.5
-3.3994279 5.7968984 1.4536629 13
-3.389061 6.2397151 1.3314613 12.333333
-3.2706013 6.402359 1.3695235 12
-3.3034585 7.7132888 1.363171 11.5
-3.5941074 4.7135339 1.7002668 15
-3.5921466 4.8729429 1.7481951 15
-3.5602815 5.4142518 1.8638256 15
-3.4816389 5.7808175 1.7894131 14.5
-3.2405567 6.3789206 1.7393733 14
-3.4044979 6.2892652 2.0753284 15
-3.1570864 -3.2355413 0.32216755 9
-2.9401591 -3.0024242 0.23542233 9
-3.1172686 4.7980561 0.35716182 9
-3.0700691 4.9464903 0.26022825 8
-3.0548959 5.2523508 0.32782871 8.5
-2.9026687 6.3278666 0.51793164 9
-2.8156087 -1.1258752 0.82832193 15
-2.8079653 -3.3159492 1.2904582 15
-2.9655757 6.3796959 1.5581256 13
-3.1695845 6.4157758 1.56754 13
-2.9385443 6.3253212 1.7167535 14
-3.051513 6.3421454 2.0698221 15
-2.5758314 -3.7509973 0.22421834 8.5
-2.7385898 -3.2541275 0.24331908 8.5
-2.7596154 -3.1650233 0.22687083 8.5
-2.6907954 -2.4712234 0.31631356 9.5
-2.7470145 -2.2837634 0.29855198 9.5
-2.6449583 -1.3100123 0.17975718 8.666667
-2.5284762 -3.7441316 0.59118688 10.833333
-2.7869725 -3.518383 0.68889463 11
-2.6991854 -2.8314571 0.43025854 10
-2.7566543 -2.2519481 0.64585978 12
-2.6897891 -1.7282569 0.7204144 13.333333
-2.6024625 -1.01999 0.74894863 14.4
-2.595757 -0.73728245 0.41282484 11
-2.4543848 6.236939 0.60888994 9.5
-2.5642262 -3.7351022 0.88701147 12.666667
-2.6890752 -3.000541 1.0514829 14.333333
-2.6781542 -2.6966016 1.091153 15
-2.7229226 -1.8094249 0.82545722 14
-2.729116 -1.1036435 0.81537867 15
-2.4746134 6.2940693 0.96202177 11
-2.6361043 -3.7068088 1.3350888 15
-2.7654345 -3.418715 1.3158324 15
-2.612828 6.3408542 1.4320213 12.75
-2.5191832 6.2513485 1.7937284 14.333333
-2.0969419 -3.8909597 -0.0037833103 7
-2.1916108 -3.879039 0.20830686 8.5
-2.0730677 -3.2811131 0.38501793 10
-2.1715634 4.0441136 0.35727662 9
-2.2026422 -3.869838 0.69233251 11.4
-2.1656091 6.1561952 0.64150262 9.666667
-2.2096012 -3.8655722 0.94547302 13.25
-2.0350211 -3.2257688 0.98696762 14
-2.0350242 -3.1838744 1.0655482 15
-2.197587 6.185091 0.93222368 11
-2.1953123 -3.8696105 1.3099842 15
-2.1700428 6.1887283 1.3698864 13
-2.1543238 6.1742201 1.8424628 14.666667
-1.7759385 -3.9060392 -0.011688595 7
-1.79831 -3.8965619 0.18184082 8
-1.8215623 4.0369878 0.35099787 9.333333
-1.8019577 -3.8877103 0.66042632 11.333333
-1.8270981 6.1413794 0.70732331 10
-1.8005873 -3.8906846 1.0136521 14
-1.9650093 -3.2383053 1.066026 15
-1.7720751 6.1577439 0.97755176 11.333333
-1.7883136 -3.8821542 1.2666159 15
-1.7921394 6.1652589 1.3442581 13
-1.7878726 6.1704698 1.7640252 14.5
-1.3991841 -3.9257979 -0.022432024 7
-1.385332 -3.9210343 0.17395155 8
-1.4515566 4.0187025 0.35864738 9
-1.4019547 -3.9027567 0.6503318 11.333333
-1.3883586 6.0981612 0.65333545 9.8000002
-1.4468398 -3.9091563 0.93788975 13.666667
-1.4198081 6.1144652 1.0243262 11.5
-1.3875614 -3.9009326 1.2373534 15
-1.449527 6.1332521 1.377998 13.5
-1.4044838 6.1286716 1.7867581 14.75
-1.0392627 -3.9479978 -0.032460257 7
-0.83510119 0.54718798 -0.24278001 0
-0.9816469 -3.9385247 0.17206751 8
-1.0339665 -3.9255633 0.63435364 11.4
-1.0000343 6.0989799 0.67532265 10
-1.0238361 -3.9108396 0.97029787 13.8
-1.0280454 6.1017656 1.116919 12
-1.0095588 -3.9174008 1.2202076 15
-1.001022 6.1144567 1.3771816 13.5
-1.0017314 6.11129 1.7647144 14.75
-0.5724265 -3.9626939 -0.044619948 7
-0.43714213 -1.1278638 -0.18152009 3
-0.44572574 -0.68576348 -0.21191365 0
-0.68796557 -0.35306594 -0.23095813 0
-0.59030336 0.59324938 -0.24026962 0
-0.61266202 0.80355465 -0.24044663 0
-0.56343776 -3.9560606 0.18745868 8.1999998
-0.59378844 -3.9466078 0.63105345 11.5
-0.58616519 6.0875998 0.72476006 10.5
-0.60044569 -3.9297249 1.0716588 14.5
-0.58904505 6.0884953 1.0852101 12
-0.78180581 -3.9299459 1.2161459 15
-0.58426839 6.1040769 1.3851485 13.5
-0.58798569 6.1119714 1.7244509 14.6
-0.20742106 -3.9862986 -0.05481831 7
-0.3146697 -0.96200442 -0.19055282 1.6666666
-0.26656845 -0.67735368 -0.1953115 0.2
-0.18933237 -3.9756234 0.22805415 8.5
-0.1965646 -3.9673736 0.62548435 11.5
-0.18008047 6.0840106 0.72825921 10.5
-0.20196958 -3.951843 1.050589 14.333333
-0.16729231 6.0816493 1.0934763 12
-0.18926306 6.0866809 1.3913909 13.5
-0.17472555 6.0868263 1.7563645 15
0.21558844 -4.0162067 -0.041862432 7
0.12306935 -3.9364581 -0.016369533 7
0.33210129 -4.0005031 0.12469965 8
0.21453854 -3.9784973 0.22094214 8.3999996
0.34497017 -1.6693608 0.15499015 10
0.37543863 -1.5428365 0.18333685 10.5
0.3171334 -4.0091724 0.41374263 10
0.18448019 -3.9802468 0.62145025 11.4
0.21769881 6.0661545 0.69540113 10.333333
0.19546764 -3.9715476 1.0627642 14.333333
0.21182449 6.0585957 0.95240092 11.5
0.39920387 -3.9687383 1.2062719 15
0.17969702 6.0677729 1.3579203 13.5
0.21203116 6.0670171 1.7690321 15
0.73806387 -0.19464964 -0.16338086 1
0.73227161 0.23245575 -0.17098069 0.80000001
0.73398274 0.44322178 -0.17648776 1.5
0.60297328 -3.9034646 0.21687368 8.5
0.60995638 -1.6906377 0.28860995 11.625
0.60270923 -1.5550053 0.26215711 11.444445
0.58879042 -3.8919444 0.63068116 11.714286
0.60238212 -1.6547555 0.47330996 14.5
0.64289159 -1.5691215 0.46593654 14.5
0.58043039 6.028039 0.68557411 10.4
0.58546436 -3.8936477 1.0208025 14.4
0.6096583 6.0304446 0.96305382 11.6
0.59804207 6.0342126 1.3834046 13.5
0.59220177 6.0445056 1.7477158 15
1.0146863 -0.50437528 -0.15085755 3.2
0.97673929 -0.21926074 -0.15041171 2.6666667
0.94433743 0.18331176 -0.16135699 2
1.0402443 0.57517201 -0.16929509 3
1.0359471 -4.0193233 0.19653508 8.1999998
0.85910428 -3.9648454 0.24778262 8.5
0.8776359 -1.76489 0.25335619 10.777778
0.90686595 -1.39837 0.2577194 11.545455
1.0286353 -1.1272904 0.26262239 12
1.0260788 -4.0156708 0.67659301 11.5
0.83589995 -3.9787681 0.65555167 11.5
0.87015802 -1.6395295 0.44054437 14
0.90710258 -1.4239218 0.47058937 14.666667
1.0271881 -1.1391668 0.43589106 15
1.0646129 5.3346663 0.62496543 10.2
0.93343705 5.9973412 0.66943556 10
0.87142527 6.0063529 0.57786411 10
0.98360962 -4.017292 0.97186136 14
1.0893177 5.3414364 1.0152125 12.333333
0.92050028 5.9266376 1.0970482 12
0.87695849 6.0104122 0.91175061 11.5
1.0293455 5.3771729 1.3786123 14
0.873254 6.0144897 1.3644954 13.5
1.0612046 5.375524 1.6248482 15
1.016541 5.9699378 1.6068857 14
0.84303921 6.0180616 1.7169617 15
1.3972317 -0.60842127 -0.12481774 4.5999999
1.3771179 -0.19973217 -0.13009262 4
1.3987398 0.21048036 -0.13886085 4.1428571
1.4035782 0.57525474 -0.14253303 4.4000001
1.4490291 0.97281128 -0.16138768 4.25
1.2161204 -4.0202756 0.25716624 9
1.4061556 -1.1402583 0.26347491 11.25
1.5086001 5.2960072 0.3974413 9
1.3969449 -1.1488218 0.47429493 14.5
1.3869044 5.3023682 0.59622008 10
1.2386897 -4.031918 0.90089893 13.5
1.4970469 5.3403897 0.97158509 12
1.3985908 5.3182211 1.3389869 13.8
1.4324579 5.3647218 1.6275243 15
1.9964464 -1.1022956 -0.11064284 6
1.7731467 -0.57083946 -0.10597342 5
1.8296332 -0.1999844 -0.10036744 5.3333335
1.8951731 0.13696249 -0.10623992 5
1.8119965 0.5924055 -0.12762807 5
1.6891757 0.98019552 -0.15489122 5
1.8091402 1.3841819 -0.16313653 5
1.770963 -1.3177489 0.16823111 9
1.7979367 -1.160347 0.26149747 10.5
1.7870951 5.3082266 0.38024279 9
1.8078957 -1.1659356 0.53069156 14.142858
1.8030306 5.3071899 0.56150359 9.833333
1.7844524 5.2994237 0.91433042 11.6
1.9455798 5.6723261 1.1951706 13
1.8386639 5.4608788 1.4549398 14
1.7646167 5.6244249 1.4291433 13.5
1.9326776 5.4912467 1.669405 15
1.7496495 5.6033597 1.6915106 15
2.2675581 -1.2873808 -0.098296374 6
2.1767616 -0.91275299 -0.10162786 6
2.2330163 -0.66713357 -0.093787864 6
2.1865661 0.75492191 -0.12452111 5.5
2.1380334 1.0003734 -0.14317702 5
2.1711664 1.339565 -0.15334764 5
2.1421564 1.7060865 -0.16130681 5
2.2931457 -1.2774771 0.17170432 9
2.1724946 -1.1806267 0.22475499 9.6999998
2.2782235 1.096535 0.2092412 9
2.2963133 1.4012656 0.26881501 10
2.3280656 1.6966308 0.26547986 10
2.2001038 5.2646098 0.35025001 9
2.2996371 -1.2127814 0.55350268 13
2.1870196 -1.1707743 0.56367952 13.428572
2.20735 5.348454 0.5341087 9.5
2.3004825 5.8664002 0.76425767 11
2.2671666 5.8843522 0.97727668 11.333333
2.1713614 5.4559746 1.4178076 13.6
2.1735258 5.8845243 1.2318072 13
2.2381759 5.5025425 1.6807983 15
2.6469531 0.6292721 -0.10343642 6
2.5688088 1.0746044 -0.10943249 6
2.7436864 1.7676044 -0.14522089 6
2.5448139 2.0951922 -0.15951854 6
2.6364307 -1.2077324 0.17962298 8.833333
2.4983556 -1.1942805 0.29608947 10
2.5307457 1.0810117 0.38863906 11
2.5722818 1.3669393 0.22034988 9
2.5905571 1.7049202 0.20147662 8.5
2.7946069 5.2369165 0.30553308 9
2.6195233 -1.230096 0.61633873 13
2.6307766 -1.1862817 0.52406895 12.2
2.5973601 5.3276305 0.57955688 9.833333
2.4727614 5.743742 0.72098935 10.5
2.6289065 -1.1745031 0.84236836 15
2.5605037 5.8655996 0.96775699 11.333333
2.6271625 5.4534483 1.4194894 13.5
2.4865298 5.8708658 1.2371682 13
2.6345379 5.4135695 1.7275965 15
3.053441 -1.3555853 -0.078046605 6
3.1427939 -0.99268061 -0.066480584 6
3.1014037 -0.61408281 -0.062459253 6
2.8565919 1.4120237 -0.10852343 6
3.0087578 -1.2487892 0.14818698 8.333333
3.0856111 5.2286453 0.32464102 8.333333
2.999294 -1.220567 0.60036349 12.4
2.8953905 -1.1954981 0.63281196 13
2.9721243 5.238265 0.47954702 9.5
3.0585201 5.7246699 0.75512272 10
3.194423 -1.201188 0.93123662 15
3.0289197 -1.1908261 0.92847967 15
3.0059149 5.8329668 0.98958057 11.4
2.9646649 5.4527783 1.4403887 13.5
2.8905373 5.8465667 1.2432488 12
3.0002217 5.3642378 1.7602096 15
3.4880934 -0.29948547 -0.068256654 6
3.5599611 1.8069208 -0.13198708 6
3.520622 2.3461089 -0.14658348 6
3.3911917 -1.2500383 0.17290835 8.5
3.479739 3.8075163 0.24223883 8.5
3.4953732 4.219944 0.20396051 8
3.5227776 4.5757508 0.21865813 8
3.4543955 5.0966511 0.31119281 8.5
3.273612 5.2043839 0.26729879 8
3.3282313 -1.2296191 0.61739123 12.166667
3.5433671 3.7915936 0.63510793 10.333333
3.5212846 4.0741124 0.58087611 10
3.3759794 5.1844001 0.54740721 9.666667
3.3295147 5.7452159 0.75655609 10
3.4514325 -1.2434427 0.91049445 14
3.5350425 3.8271792 0.81331748 11
3.3982701 5.8024364 0.96086645 11.25
3.3391807 5.4134374 1.4963224 13.666667
3.4005468 5.8148685 1.2524515 12
3.5467656 5.2392883 1.8578798 15
3.3506687 5.62675 1.9353485 15
3.8043458 -1.2860684 -0.042509913 7
3.8421566 0.099851727 -0.087065309 6
3.6073668 0.8951416 -0.085559383 6
3.9336455 3.4567263 -0.075393602 7
3.9869759 4.5316324 -0.084576212 7
3.7873664 -1.2774545 0.18150972 8.5
3.8137 3.4184663 0.22686727 8
3.599036 3.6581454 0.30239847 9
3.9901912 4.5746613 0.035020996 7
3.6526198 5.1868343 0.30088848 8.5
3.8132062 -1.2688073 0.58869487 11.4
3.7815583 3.41361 0.41322961 9
3.7843704 3.767823 0.6016559 10
3.8023977 5.1897836 0.57746053 9.5
3.7576406 5.2390118 0.64106721 10
3.6185079 5.7717237 0.75870609 10
3.8127811 -1.2241319 1.1117047 14.666667
3.9296587 5.2346764 0.80268753 11
3.7855275 5.7980204 1.0192052 11
3.7510092 5.4095798 1.4345278 13.333333
3.7640519 5.799315 1.2611027 12
3.791734 5.3243914 1.7749386 14.333333
3.6486599 5.671073 1.9693593 15
4.2783389 -1.261915 -0.037143566 7
4.3942862 -1.0627546 -0.032533411 7
4.223166 0.57573807 -0.085236683 6
4.2135391 1.5987444 -0.097292654 6
4.3033671 -1.2686834 0.2111619 8.5
4.3937998 -1.0326421 0.18667591 8.333333
4.3326893 2.4355617 0.17972158 8
4.3472161 2.9450629 0.16997814 8
4.152102 4.8582759 0.28522757 8
4.24054 -1.2531137 0.64240241 11.2
4.3869762 -0.9891268 0.62742114 11
4.3982749 -0.73274404 0.73272723 12
4.3324332 2.3534868 0.71558309 11.5
4.2933922 2.4513798 0.56774449 10.5
4.3527608 2.9447587 0.59852302 10.5
4.3443389 3.4162772 0.6609211 10.4
4.1961522 3.7245097 0.63958794 10.2
4.1366701 5.1462307 0.6832118 9.666667
4.0176449 5.2521844 0.71614939 10
4.2009683 -1.3147589 1.0345169 13.5
4.3818803 -1.0273699 0.98334372 13
4.392786 -0.72000313 0.88182533 12.5
4.3254557 2.3839936 1.0138813 13
4.3136621 2.5496557 1.024542 13
4.3672929 2.9640234 0.96294814 12.5
4.3266659 3.4424493 0.99848443 12
4.2205591 3.8052495 0.91563559 11.6
4.2381968 4.2397766 0.97037154 11.5
4.2558689 4.5723453 1.1004937 12
4.242825 5.0250316 1.0578829 11.5
4.0213223 5.3457351 1.0735854 11.333333
4.0485287 5.7585583 0.92728442 11
4.2989678 -1.2308218 1.2921358 15
4.3786478 -0.98565114 1.2617574 15
4.3936329 -0.61428434 1.2900844 15
4.3019814 2.4215958 1.3618891 14.5
4.3168306 2.985498 1.3903497 14.5
4.3287482 3.298641 1.4142581 14.5
4.1824574 3.7553525 1.411769 14
4.2020226 4.1294675 1.4185692 13.6
4.2608986 4.6124434 1.4894661 13.5
4.1787491 5.1275744 1.4102013 13
4.0116596 5.4195223 1.3039101 12.5
4.0355611 5.7682104 1.2648695 12
4.1710505 4.1161132 1.6553779 15
4.222425 4.5837021 1.674486 14.5
4.2391391 5.0523267 1.7580194 14.5
4.3446307 5.8141832 2.0620651 15
4.4187236 -0.84836382 -0.070896655 6.5
4.4256692 -0.64829892 -0.067757443 6.3333335
4.4651437 -0.14678384 -0.067835167 6.6666665
4.4868608 0.18230344 -0.058261201 7
4.5044241 0.57211554 -0.036020335 7
4.5217481 0.92373419 -0.0068015535 7
4.5936112 1.396667 -0.086265229 7
4.5920305 1.7018428 -0.061049342 7
4.5670824 2.1413486 -0.025004361 7
4.6077943 2.4032147 -0.10972614 6
4.7185097 3.2412238 -0.13189937 6
4.4046016 -0.92758584 0.1475253 8
4.4236803 -0.59966463 0.16560453 8
4.4425168 -0.21485098 0.19768569 8
4.4666829 0.18141325 0.22577488 8.666667
4.5014668 0.58657295 0.14873403 8
4.5287189 0.99669254 0.17196742 8
4.5525393 1.3834203 0.19230373 8
4.5762081 1.7524629 0.17344926 7.8333335
4.5890379 2.2295692 0.19219954 8.5
4.5273104 2.6166389 0.22100335 8.5
4.5652261 2.9343371 0.24268767 8.5
4.6064482 3.3327243 0.20779102 8
4.6505089 3.7206264 0.21460541 8
4.4598217 -0.95163667 0.54630846 10.5
4.4229579 -0.60037667 0.61151779 11
4.4362321 -0.15763776 0.62226284 11
4.4785495 0.18046102 0.6267513 11
4.4860287 0.58568394 0.61346507 11
4.5158834 1.0203133 0.59891754 10.8
4.5475497 1.3798079 0.57162076 10.2
4.5635347 1.8249488 0.57582808 10
4.5599294 2.1827991 0.63151395 10.333333
4.5585699 2.723814 0.59149414 10.5
4.5259333 2.9164093 0.58618385 10.333333
4.5544815 3.3458741 0.56779474 10
4.6700191 3.7892914 0.48678046 9.5
4.4053249 -0.81105864 1.0063183 13
4.4206333 -0.52953136 0.978486 13.333333
4.4404664 -0.18817626 0.9252997 13
4.4479151 0.19213514 0.96649075 13.2
4.4856372 0.6202606 1.0313388 13.4
4.5024939 1.0060884 0.98061377 13
4.5243478 1.3807662 1.0140152 13
4.5491314 1.8457007 0.98614299 12.6
4.5722346 2.2101996 0.990004 12.6
4.6067376 2.715142 0.9666853 12.333333
4.5392866 2.976155 0.94310975 12.25
4.5356774 3.389576 1.0460361 12.4
4.6364279 3.7187462 1.0327661 12
4.4611731 -1.0285558 1.2168138 14
4.4027629 -0.4999823 1.233191 15
4.4230185 -0.19832508 1.2751027 15
4.5116487 0.18883678 1.2907647 14.666667
4.6627164 0.67354745 1.4089226 15
4.4968209 1.1262521 1.2414234 15
4.5072665 1.3408914 1.2824124 15
4.5377402 1.8182261 1.3192174 14.6
4.5757928 2.1895912 1.3457953 14.333333
4.586369 2.6074798 1.3877835 14.2
4.5094457 2.983907 1.4250776 14.333333
4.4672127 3.4101062 1.3672454 14
4.5476203 3.7486153 1.3584461 13.5
4.4045177 5.5054131 1.3017228 12
4.4893551 2.9789054 1.6103694 15
4.4952803 3.2799881 1.6778986 15
4.5881524 3.7610431 1.7107122 15
4.4727864 5.1916022 1.9295619 15
4.556633 5.8120866 2.0799136 15
4.915204 2.5980442 0.039099827 7
5.0283294 3.5147452 0.093827724 7
4.8110003 1.9970065 1.4437592 15
