# .PCD v0.7 - Point Cloud Data file format
VERSION 0.7
FIELDS x y z intensity
SIZE 4 4 4 4
TYPE F F F F
COUNT 1 1 1 1
WIDTH 154
HEIGHT 1
VIEWPOINT 0 0 0 1 0 0 0
POINTS 154
DATA ascii
-5.2558188 -3.6364918 1.8635353 15
-4.1239634 -3.8127558 -0.005157962 7
-3.7094734 1.9585743 0.58192736 11
-3.6188228 3.1841376 0.42550945 10
-3.6144664 1.9868754 0.72331953 12
-3.6298401 3.3854017 0.78619951 12
-3.7204146 1.956936 1.1467953 15
-3.6284487 2.062911 1.0950979 14
-3.6315732 2.5573843 1.1960204 15
-3.6348364 3.6130748 1.4290797 15
-3.6239893 4.2433329 1.6068082 15
-3.5775766 2.1848226 0.17607626 8
-3.5302012 4.4866323 0.19073831 8
-3.592504 1.9786246 0.33654723 9.5
-3.5816121 2.3461759 0.25798246 9
-3.6008625 3.261493 0.24345842 8
-3.5829434 3.566339 0.2630921 9
-3.5875928 2.3452351 0.44118825 10
-3.5730836 4.1743178 0.50864142 10
-3.5650992 4.2021265 0.42839232 9
-3.5925655 2.344645 0.70501566 12
-3.5536134 2.4810176 0.6015926 11
-3.5947962 3.1834006 0.68226457 11
-3.5614998 2.145576 0.81899959 13
-3.5771155 4.4587822 0.94785541 12
-3.5528471 3.506485 1.0435352 13
-3.4964938 5.9349613 1.1772159 12
-3.5409062 3.7997088 1.2430722 14
-3.5831842 5.0182548 1.7626942 15
-3.5254517 6.1036472 2.0335729 15
-3.2601583 4.503479 0.65304345 10
-3.3375719 6.3663292 1.5595858 13
-3.3885369 6.3005686 1.7289382 14
-2.7310324 -3.5439243 0.032105826 7
-2.7539504 -3.596616 0.69456518 11
-2.7710869 -2.9275157 1.1348355 15
-2.4248815 -3.853199 0.68473315 11
-2.5849226 -3.6927674 0.70712197 12
-2.5457256 -0.74319494 0.70420587 14
-2.4814808 6.2059655 2.0226023 15
-2.2759311 -3.8723519 0.15057865 8
-2.3589177 -3.8734393 0.27636424 9
-2.2875199 6.2188888 1.6736138 14
-2.0556023 6.150054 0.69127715 10
-2.0950341 -3.1200707 1.1377137 15
-2.107547 6.149138 1.225013 12
-1.8485335 6.1041231 1.2396947 13
-1.7469324 -3.8764038 0.12685168 8
-1.2535702 6.0469913 0.72910303 10
-1.3698308 -3.8757186 1.1159967 15
-1.2355287 6.053546 1.1509188 12
-1.2235236 6.0725937 1.2519239 13
-1.2145047 6.0986228 1.5038508 14
-1.3844645 6.0827284 1.8524783 15
-1.1765684 6.056004 0.77147627 11
-0.86582482 -3.908766 1.0862588 14.5
-0.55176932 0.75598168 -0.24313484 0
-0.59387988 -3.9403462 0.4674913 10
-0.50353307 6.063602 1.1359164 12
-0.31359681 6.0638113 0.51646072 9
-0.22451286 6.0907688 1.4040594 14
0.34416384 -3.9881594 0.76578641 12.5
0.55007327 -3.8831875 0.16299027 8
0.5285064 -1.7885966 0.19195694 10
0.42008245 -3.8768096 0.26853028 9
0.57248545 -1.6661328 0.3124786 12
0.55346972 -1.5971699 0.34194908 13
0.41310909 -3.8921082 0.48727292 11
0.50551844 -1.7237154 0.48080462 15
0.51715261 -3.879673 0.94403231 14
0.54316741 -3.8790345 1.089149 15
0.64020312 0.31765831 -0.20092668 0
0.68407255 -3.9199467 0.058822393 7
0.76809353 -3.9018385 0.30978373 9
0.69546241 -1.5882865 0.29364604 12
0.69051009 -1.6719483 0.53637671 15
0.78813559 -3.8881099 0.75563097 12
0.89550102 -1.790608 0.13425165 9
0.91336209 -1.2601196 0.18713742 10
0.84947699 -1.6321645 0.31955871 12
0.90644807 -1.5243449 0.32348707 12
0.91937053 -1.2851076 0.20225389 11
0.94199777 -1.106554 0.29193816 12.666667
0.82049835 -1.6493239 0.48268151 14
0.8294884 -1.5907748 0.54010254 15
0.92239481 -1.2884547 0.43049422 15
0.98459649 5.3211851 0.42975837 9
0.92311025 5.3619156 0.67238772 10.5
0.96364576 5.3628182 1.0199902 12
0.96817106 5.3701744 1.2847744 13.5
0.86270344 5.3795614 1.6243547 15
1.1785623 0.022511447 -0.15526047 3
1.0056615 0.26002529 -0.17078717 2
1.1461166 -4.0253496 0.20720895 8
1.0283353 -1.1278486 0.27660024 12
1.0073497 -1.1215901 0.43348059 15
1.3906325 5.296865 0.71584976 11
1.3087026 5.3330922 1.4927853 15
1.4773308 -1.1556573 0.15735307 9
1.4473447 -1.1298485 0.36091077 13
1.412349 -1.1252819 0.41485006 14
1.41065 5.2966146 0.88503385 12
1.4136708 5.3124399 1.1296874 13
1.7008429 -1.148487 0.29466891 11
1.7643557 -1.150126 0.41281378 13
1.6336033 5.3655772 0.61431277 10
1.989347 -1.1648498 0.29316038 11
1.8926481 5.2907681 0.85102439 11.5
1.9926476 5.5682211 1.582487 15
2.0503433 -1.1658814 0.25173068 10
2.2883668 -1.1719141 0.46098131 12.5
2.417346 -1.1918898 0.20926224 9
2.5466204 5.2385588 0.4417426 9
2.5526633 5.4917517 1.5329003 14
2.6023691 -1.1887169 0.44229311 11
2.7434075 -1.1792563 0.84026885 15
3.0943708 -1.2242807 0.36239469 10
3.1325455 5.8176198 1.2457688 12
3.2733653 -1.2309834 0.29306957 9
3.2376947 5.3961563 1.5837293 14
3.4798853 4.2190785 0.31969136 9
3.4536362 5.1580582 0.38457206 9
3.5109558 4.014432 0.46321997 10
3.496664 5.4275279 1.3658835 13
3.6551247 3.3752432 0.41835701 9
3.8440886 3.400084 0.12922595 8
3.9536848 5.42377 1.5567447 14
4.1661024 3.8380797 1.4259433 14
4.3323455 -1.2995104 -0.07190159 7
4.3973169 -1.1209235 0.11783388 8
4.3952579 -0.79934937 0.39129838 10
4.3903236 -0.96127355 0.60646158 11
4.2794695 2.3867178 1.158252 14
4.3754115 -1.027912 1.2843611 15
4.2817788 5.0533519 1.4969254 13
4.3028049 5.0257673 1.6839656 14
4.4749198 0.50712329 0.55789095 11
4.5525656 1.811577 0.57416123 10
4.5276957 1.3736548 0.6724453 11
4.461133 -0.17839526 0.82172298 12
4.4830561 0.1568826 0.96488768 13
4.4870243 0.239549 0.86405849 12
4.4599543 0.50208676 0.88363278 13
4.5116973 1.4485096 0.88695121 12
4.570519 2.1216288 0.93487114 12
4.4311361 -0.11140244 1.0262178 14
4.4510136 0.36871347 1.1042539 14
4.5478354 1.0032166 1.0548455 13
4.5557928 1.2043914 1.1657254 14
4.5886726 1.5975341 1.0378671 13
4.4221396 -0.028787317 1.2849703 15
4.4540029 0.50391555 1.3612878 15
4.5147257 1.5048193 1.3137617 15
4.5926719 1.6675289 1.2175381 14
