# .PCD v0.7 - Point Cloud Data file format
VERSION 0.7
FIELDS x y z intensity
SIZE 4 4 4 4
TYPE F F F F
COUNT 1 1 1 1
WIDTH 91
HEIGHT 1
VIEWPOINT 0 0 0 1 0 0 0
POINTS 91
DATA ascii
-0.40454051 -0.92528373 -0.061856929 132
-0.22852743 -0.9377892 -0.05846357 142
-0.10966451 -1.0088209 -0.036917645 151
-0.080755115 -0.955284 -0.049207039 159
0.054768097 -0.97222745 -0.039167456 161.25
0.18563263 -0.98188996 -0.032792449 166.66667
-0.3458392 -0.85845762 -0.070079215 143
-0.029219601 -0.85333151 -0.064038172 170.5
0.092167318 -0.86398011 -0.053858124 171
0.10503713 -0.83620799 -0.066141523 176
0.21061265 -0.8596319 -0.049895685 175.8
0.31934121 -0.86922538 -0.045294568 173.8
0.43391618 -0.85930532 -0.045199893 175.75
-0.26637405 -0.76937234 -0.083578356 162.5
-0.12121437 -0.7815246 -0.083038591 177
-0.0087422198 -0.81677967 -0.074230768 172
0.026712975 -0.74427122 -0.081866503 183
0.13319917 -0.75310594 -0.076003857 185
0.23386997 -0.75545979 -0.069946311 187.39999
0.32906228 -0.76244062 -0.066418841 187.2
0.4277274 -0.76061743 -0.060090702 186.75
-0.25891179 -0.67573708 -0.10041831 175
-0.14842118 -0.6380589 -0.10518502 186
-0.05689856 -0.68889564 -0.099204309 184
0.059387568 -0.67858207 -0.090142004 188
0.16484052 -0.65492743 -0.083430424 189
0.25177523 -0.65983933 -0.078848854 189.75
0.33414984 -0.64127207 -0.072957955 188.60001
0.41885397 -0.64938927 -0.070960023 188.16667
-0.059380833 -0.53387785 -0.11278069 188.66667
0.053287286 -0.58514374 -0.10538849 188.71428
0.14960057 -0.5835501 -0.099531457 187.5
0.25475749 -0.55191422 -0.090839356 185.33333
0.3413879 -0.55339533 -0.088213533 185.25
0.41280898 -0.55735326 -0.084100053 185.16667
-0.22388203 -0.43910792 -0.11430017 179.5
-0.12035915 -0.47733149 -0.12813166 188.5
-0.027828692 -0.50046247 -0.12152469 187.33333
0.0501411 -0.46403077 -0.12415513 184.5
0.14530979 -0.50528008 -0.11138204 184.33333
0.25129536 -0.49114573 -0.11632354 181.23077
0.34365872 -0.47335783 -0.11817085 179.27272
0.41435218 -0.48635265 -0.11395765 180.5
-0.17361107 -0.41319221 -0.13846996 190
-0.05937152 -0.38791916 -0.13906303 184.625
0.092015103 -0.36747241 -0.14444391 178
0.15948161 -0.38629925 -0.14108106 177.5
0.2408236 -0.39452246 -0.13540083 175.36363
0.33764151 -0.39808479 -0.13062949 174.25
0.40805006 -0.38749897 -0.12910931 174
-0.17456721 -0.23831132 -0.16478913 184.33333
0.040864825 -0.28570414 -0.14554614 177
0.14606434 -0.2251499 -0.12118841 147
0.40316153 -0.2613067 -0.15951608 168.5
0.064250678 -0.18905225 -0.142793 170
0.1714436 -0.15279475 -0.087362342 133.17647
0.25738889 -0.15392488 -0.11921477 128.76086
0.31933895 -0.15601054 -0.14591961 128.39999
0.67122549 0.010402006 -0.1944962 153.83333
0.74833542 0.017255252 -0.18329576 150.29033
0.85243565 0.016482638 -0.17017888 159.71428
0.95659631 0.024241541 -0.18220314 163.83333
0.65122336 0.11536242 -0.21086615 151.96153
0.74628812 0.12044285 -0.19564778 152.8
0.84500635 0.12496893 -0.1917834 162.60001
0.95120639 0.12754521 -0.20105194 167.5
0.47567704 0.26160419 -0.23597899 144
0.55063558 0.23694256 -0.23128848 149.3125
0.65809876 0.21335968 -0.2199906 152.125
0.75291324 0.21970433 -0.20865378 161.53847
0.85122323 0.21649241 -0.20902622 168.25
0.94537705 0.21912667 -0.22229145 167.25
0.39787918 0.30059171 -0.24392316 150
0.47221005 0.27690047 -0.2390819 148.39999
0.56713593 0.30745637 -0.23961249 157.07143
0.64529127 0.31273025 -0.23083892 164.70589
0.75546241 0.31454566 -0.22982778 170.44444
0.848638 0.31276944 -0.23277381 169.60001
0.92115957 0.33146706 -0.24109986 167
0.4016135 0.45593718 -0.26551589 180
0.4639245 0.44035038 -0.26469085 178
0.5470382 0.39259756 -0.24918811 173.18182
0.66295505 0.41662773 -0.2538923 176
0.71917665 0.38007477 -0.24534295 172.5
0.85037804 0.40950924 -0.25497597 167
0.62166762 0.48872942 -0.26841956 175.33333
-0.078570858 -0.25731 -0.013945393 151
0.003800553 -0.22918756 -0.00034317447 160
0.074259773 -0.14183961 -0.024710864 128.47826
0.13397235 -0.15076107 -0.063540161 127.26316
0.07106743 -0.15681842 0.054554619 127
