# .PCD v0.7 - Point Cloud Data file format
VERSION 0.7
FIELDS x y z intensity
SIZE 4 4 4 4
TYPE F F F F
COUNT 1 1 1 1
WIDTH 598
HEIGHT 1
VIEWPOINT 0 0 0 1 0 0 0
POINTS 598
DATA ascii
-3.6096618 2.7267246 -0.27151111 8.5
-3.6223733 2.942374 -0.3273468 8.25
-3.6513989 3.4833171 -0.43068263 8.333333
-3.611747 2.8151915 0.15627939 11
-3.6286807 3.0260103 0.015993522 10.5
-3.6436303 3.4835992 -0.0047127828 10.666667
-3.6253603 3.1587858 0.46311653 13.4
-3.6446762 3.5296295 0.47102782 13.5
-3.3367193 -1.1885099 0.31060034 8
-3.3320892 -0.95620662 0.40769136 9.166667
-3.5278993 1.4867156 0.01659124 9.1999998
-3.5547676 1.8315848 -0.078257903 9
-3.5670526 2.1415529 -0.15910643 8.75
-3.584151 2.4481373 -0.26728237 8.5
-3.5662615 3.5580301 -0.48458034 8
-3.3683221 3.5920312 -0.40003732 8.5
-3.3129489 -1.1474295 0.87274235 12.5
-3.3398178 -0.85764432 0.72408515 12
-3.5306997 1.559954 0.34051195 11.8
-3.5495396 1.8643243 0.21365823 11
-3.5619483 2.1885827 0.24030627 11.4
-3.5953403 2.6138847 0.17424221 11
-3.5910039 2.9681494 0.18971431 12
-3.4145286 3.6544511 -0.082993381 10.5
-3.3151782 -0.78258795 1.0577567 14.666667
-3.4709249 1.1859485 0.8228243 15
-3.5074463 1.5532967 0.69470567 14.5
-3.5366018 1.9307363 0.61996508 14
-3.566036 2.3283198 0.53993583 13.833333
-3.588311 2.7190709 0.52391148 13.666667
-3.6080883 2.9866846 0.45496094 13
-3.4213171 3.7551868 0.39203882 13.2
-3.5342689 2.2574513 0.79837799 15
-3.5600533 2.8601127 0.69921923 15
-3.5840607 3.2414896 0.75992715 15
-3.6003864 3.5675533 0.73074561 15
-3.4256077 3.8088138 0.68238443 14.666667
-3.1295488 -0.90804911 0.37717271 9
-2.9646702 3.6183021 -0.40439615 8.666667
-2.9030962 -2.4502645 1.2034345 13
-2.8587356 -2.2080567 1.1454169 13
-2.9766195 -1.1059443 0.95849359 14
-3.068985 -0.85108232 0.75195611 12.4
-3.053659 3.674494 -0.10843495 10.5
-2.8951731 -2.3859749 1.454192 14.5
-2.8531415 -2.0586324 1.3527039 14.75
-2.9365966 -1.2180717 1.1013621 14.75
-3.1284082 -0.83465654 1.0046089 14.5
-2.9720573 3.7662854 0.31144297 12.8
-2.8265676 -3.4907768 1.8281538 14
-3.0193303 3.8326585 0.67450374 15
-2.6415308 -0.96196526 0.41848668 10
-2.5860221 3.6503842 -0.3445819 9
-2.5974057 -2.6007025 1.2040752 13
-2.5962772 -1.2073462 0.9550969 14.5
-2.5350449 -0.90752977 0.57887053 12
-2.6051447 3.7080309 -0.057793394 11
-2.5173142 -2.6282914 1.4390764 14.5
-2.6590142 -2.5421636 1.4378057 14.25
-2.6331432 3.7836394 0.31000045 13.2
-2.5272276 3.8488066 0.60025626 15
-2.1738172 -2.650764 0.68927205 9
-2.0843832 -2.090538 0.58152026 9.25
-2.1002815 -1.7316737 0.51986033 9.4444447
-2.1716282 -1.3178051 0.46480832 9.8999996
-2.3222399 -1.0186788 0.41109103 10
-2.245497 3.6760285 -0.31966043 9.333333
-2.1735494 -2.597837 0.98467052 11.625
-2.0853105 -2.1048694 0.8511076 11.5
-2.1074791 -1.6883098 0.8002131 12.285714
-2.2042429 -1.2401834 0.79897684 13.363636
-2.3258388 -0.96013206 0.63176888 12.5
-2.1975453 3.7309546 -0.074642494 11
-2.1943479 -3.1142673 1.5641869 14.5
-2.3768647 -2.6130426 1.3880876 14
-2.267 -2.5729301 1.3645703 14.5
-2.2611439 -1.2923054 1.0207665 15
-2.186744 3.8114245 0.31365544 13.5
-2.2179487 3.8573673 0.5525803 15
-1.765344 -2.6596525 0.7043649 9.2857141
-1.8055686 3.7074318 -0.31782487 9.5
-1.8046923 -2.5856533 1.0470451 12.5
-1.8269826 3.7527146 -0.088715248 11.166667
-1.9282448 -3.0713801 1.5680766 15
-1.7143296 -2.6999354 1.3615657 14.333333
-1.8020465 3.8342586 0.2968134 13.5
-1.7929854 3.8862817 0.54996163 15
-1.4067276 -2.6510735 0.70750916 9.3999996
-1.5052431 0.80419582 0.090262935 11
-1.3337332 0.99876761 0.15169437 13
-1.3879666 1.4557452 0.075605936 12
-1.506346 3.7284107 -0.30661112 9.333333
-1.4112679 -2.5852306 1.0251648 12.5
-1.2080059 0.88922668 0.25101379 15
-1.4341321 3.7717266 -0.11708246 11
-1.441837 -2.7866182 1.4160355 15
-1.3857307 -2.5735509 1.2624904 14.5
-1.376976 3.8641958 0.30798736 13.8
-1.5235023 3.8976765 0.54973662 15
-0.99645174 -2.6285644 0.69674289 9.5
-1.0268012 -2.5541537 1.0449618 13
-1.0160022 3.8069901 -0.062383059 11.5
-0.87919748 -3.0485356 1.4569092 15
-1.0019726 -2.7255445 1.3530316 15
-0.99227422 3.8956211 0.31665677 14
-0.59413189 0.29903316 -0.26024187 0
-0.59438634 0.53687274 -0.30721542 0.2857143
-0.4680469 1.843734 -0.56877273 3.5
-0.62899333 2.2027497 -0.65143508 4
-0.60319209 -2.6023457 0.68335104 9.5
-0.60439241 3.7891996 -0.26293007 10
-0.58687818 -2.5330112 0.99390745 12.714286
-0.62525558 3.8286865 -0.056692503 11.5
-0.61929637 -2.5638103 1.2704186 15
-0.61578602 3.9084201 0.29559875 14
-0.20235902 0.61983997 -0.30998227 0
-0.19437496 0.93812907 -0.38075 1
-0.15289058 1.3276172 -0.4456268 2.8
-0.21732762 1.7305446 -0.52225399 3.75
-0.28542453 2.1658609 -0.61058247 4
-0.38575578 2.5012693 -0.68279445 4
-0.18959908 -2.5720122 0.68147391 9.5
-0.20213252 -2.4909854 1.0488127 13.333333
-0.29410911 3.8352096 -0.1021937 11
-0.059923522 4.274025 -0.24539661 10
-0.13148531 4.4671302 -0.2449494 10
-0.13763084 -2.5496221 1.2513286 15
-0.30544025 3.9224336 0.29316017 14
-0.15591492 6.7142301 -0.15370102 11.333333
-0.11664666 6.8068943 0.24762842 12.75
-0.13783272 6.8987432 0.66738355 14.5
0.14178942 0.65315777 -0.31449547 0
0.087724492 0.89549369 -0.36149493 0.80000001
0.013041829 1.1779939 -0.41177619 2
0.212869 -2.5282111 0.65024853 9.363636
0.16795747 -2.461925 1.0034717 13.066667
0.19628873 6.7586546 -0.56798303 9.5
0.21299477 6.850616 -0.18041028 11.166667
0.097597234 6.9363513 0.26286092 13
0.22769314 6.9646387 0.34979257 13
0.029186936 6.9267774 0.83245772 15
0.21102983 7.00247 0.51266968 14
0.27907124 7.0544405 0.85989308 15
0.78928214 -0.82905132 -0.015122391 3
0.66306937 -0.551714 -0.071426809 1.5
0.66350311 -0.25950834 -0.12807466 0.5714286
0.71919984 0.050918523 -0.18667755 0.5
0.7798152 -3.1487947 0.76063854 9
0.47661808 -2.5249753 0.66202569 9.4285717
0.76434898 -3.101789 1.0049186 11
0.46564224 -2.4466078 1.0411371 13.5
0.51755214 6.7958379 -0.5264675 9.5
0.71783358 6.8177295 -0.50912434 9.5
0.75821185 -3.0262125 1.4158055 14.5
0.77805114 -2.9942491 1.4231248 15
0.46481141 6.8440199 -0.30639082 10.5
0.59290564 6.8931675 -0.10764258 11.5
0.39645955 6.9031348 0.079200409 12
0.56540877 6.982862 0.28416553 13
0.53867829 7.0326867 0.55960989 14
0.61227638 7.0760961 0.88604641 15
1.0892204 -1.4170715 0.11433248 5
1.0171272 -1.0176286 0.031294219 4
0.96896482 -0.63113219 -0.054234821 2.8571429
1.0038892 -0.22937737 -0.13254753 2.1428571
0.97240299 0.14753293 -0.20669533 1.6666666
1.0280298 -3.1581252 0.75846595 8.7142859
1.1179824 -2.9764798 0.76294732 9
1.1585774 -1.6122793 0.32807499 8
1.0389134 -1.2738588 0.50106966 11.555555
1.1680521 -1.0981299 0.40945148 10.5
1.0129045 -3.081521 1.1253083 11.714286
0.90463942 -3.0457292 1.1155628 11.75
0.88678449 -1.6282086 0.75263798 13.5
0.90385973 -1.3495018 0.70471442 14.333333
0.97023493 6.8383851 -0.50368828 9.5
1.0071751 -3.0163252 1.4441642 14.5
1.0137089 -2.9810534 1.4344128 14.5
0.96081305 6.9163809 -0.12659429 11.4
0.94579303 6.9950585 0.25530878 12.75
0.98823917 7.0643306 0.56351525 14
0.86404884 7.0888014 0.90736234 15
1.41579 -2.9669905 0.46576852 7
1.4539424 -2.1266918 0.2554343 6
1.2240282 -1.276435 0.1505429 6
1.4048573 -1.0206383 0.034714054 4.5
1.3276321 -0.58223641 -0.059519183 3.75
1.3881843 -0.23258281 -0.1334748 3.5
1.3933567 0.13619107 -0.20192976 3.4000001
1.4966232 0.39951715 -0.25152737 3.5
1.3603438 -3.141422 0.89924932 9.666667
1.418022 -2.9786241 0.69664115 8.3999996
1.3708836 -1.5509492 0.49543563 10
1.3565563 -1.3320029 0.42043409 9.6000004
1.4025165 -1.0623068 0.48223898 11.5
1.3255786 -3.0797555 1.093621 11.333333
1.3712384 -3.0320394 1.1559325 12
1.5722107 -1.6565149 0.79865199 13
1.4222808 -1.3292239 0.7340408 13.8
1.5583665 -1.0017328 0.69018453 14.5
1.3834063 6.8602252 -0.52170539 9.5
1.380048 -3.0174038 1.4073601 13.5
1.3548877 -2.973619 1.467629 14.5
1.3671553 6.9350586 -0.16596994 11.2
1.3935211 7.0272031 0.26338518 12.75
1.378507 7.0871177 0.58298713 14
1.931361 -1.7614965 0.17424236 5
1.7360079 -1.3642942 0.096628413 5
1.6575619 -1.008114 0.032170985 5
1.7681494 -0.65436178 -0.045456804 4.5999999
1.6536463 0.29191238 -0.22918284 4
1.6962359 0.4766863 -0.26687253 4
1.9745041 -3.2458334 0.78656638 8.5
1.7459366 -2.8532071 0.76387179 9.1428576
1.7968199 -1.7050285 0.53569698 9.5
1.7275964 -1.3358067 0.51156342 10.666667
1.7977595 -1.0575336 0.44795442 10.4
1.8852006 -3.1571054 1.0152259 10
1.7656659 -3.0304513 1.0707523 11
1.6961396 -1.6359872 0.78311503 12.666667
1.6354721 -1.274574 0.71790081 13.333333
1.770996 -0.94284499 0.68038803 14
1.790679 6.8871241 -0.52130485 9.5
1.8113534 -2.9018431 1.5437329 15
1.7521522 6.9617438 -0.13496587 11.25
1.7961032 7.0512028 0.27582106 12.75
1.7966794 7.1205735 0.6531691 14
2.1875842 -2.0599003 0.34537351 7
2.2015624 -1.8176503 0.19301564 6
2.2152128 -1.4235413 0.11611169 5.5
2.1378686 -1.0582886 0.04317091 5
2.0590785 -0.52789223 -0.071224041 5
2.1618886 -0.22580414 -0.13028669 4.5
2.3056641 0.10334376 -0.19414458 5
2.1676869 0.5404489 -0.27634835 4.5
2.1930413 -3.0468326 0.7485882 8.333333
2.1256003 -1.6250131 0.47608632 8.75
2.3708794 -1.37402 0.33332422 8
2.3655069 -0.99083167 0.43183765 9.666667
2.1588225 -2.9975226 1.0534847 10.666667
2.0061634 -0.9556098 0.69992477 13
2.1743603 6.9034395 -0.54320562 9.5
2.267765 -2.8813107 1.5666311 14.5
2.1913614 6.9848766 -0.15632676 11.2
2.1647451 7.0701952 0.27028522 12.5
2.1483791 7.1339064 0.60382426 14
2.758575 -2.087954 0.29447648 6.5
2.7954853 -1.6478347 0.23365824 6.5
2.644856 -0.85183966 -0.0075463047 5
2.6397769 -2.9703119 0.75559551 8.5
2.5989602 -1.7343526 0.5718888 9.333333
2.7906444 -1.4566666 0.33260486 7.5
2.5567749 -0.97415984 0.44971147 9.666667
2.6234751 -2.930958 1.0781697 10.666667
2.5376723 -1.7915373 0.79588395 11
2.6560357 -0.90034038 0.5952484 11
2.5470707 6.2553453 -0.46014217 9.5
2.5468447 6.9182978 -0.54411185 9.5
2.5925131 -2.8224359 1.6119941 14.5
2.4661396 6.3128409 -0.22304066 11
2.522146 7.0163827 -0.12053715 11
2.6798069 6.3263612 0.35912293 13
2.6197684 7.0935278 0.25009391 12.5
2.6474957 6.4463773 0.53892457 14
2.5636475 7.1700206 0.65431607 14
2.8277168 -1.2726139 0.078759149 6
3.1268597 -1.0257927 0.029982759 6
3.0719457 0.65431553 -0.29515803 5
3.0320597 -2.9493237 0.77409405 8.666667
3.0935056 -0.92243397 0.34527114 8.333333
3.1763916 -0.67369336 0.23046577 7.5
3.0069222 6.8208733 -0.76949018 8.5
2.9965971 -3.0507507 1.3131394 12
2.9575469 -0.90568823 0.62347668 11
3.0497684 6.8479738 -0.55166519 9.333333
2.9303098 -2.7590086 1.7033135 15
2.978615 6.9314508 -0.21165684 10.333333
3.0161068 -2.7418473 1.7460752 15
2.8789897 6.2381506 0.36756587 13
2.9216094 7.0356789 0.19401766 12.5
2.9211221 7.1534066 0.73373038 14
3.4765017 -1.1384468 0.19612782 7
3.4088359 -2.9494429 0.7751134 8.3999996
3.3793576 -1.7479477 0.61055064 9
3.3294287 -0.92679846 0.32358998 8.25
3.4315886 -1.5156038 0.7263478 10
3.2928932 -0.8405562 0.64792812 11
3.3551085 3.9979708 0.061655145 11
3.378427 4.2663417 -0.017347246 10.333333
3.356873 4.7882748 -0.25611469 10
3.3745303 5.1216784 -0.1107729 10.5
3.2145908 5.8275127 -0.33016068 10
3.2210765 6.0907607 -0.30300418 10
3.2621346 -2.7810619 1.6776155 14
3.3682625 3.6208375 0.26381412 12
3.3045502 4.2889481 0.24205084 12
3.321435 4.7597036 0.3222833 12.5
3.2938013 5.0844436 0.21228413 12
3.2383008 5.3351154 0.16287974 12
3.2640934 5.8815427 0.072853938 11.5
3.2027094 6.274322 -0.057723992 11
3.2073328 6.5902228 -0.21802758 10
3.4234045 -2.733681 1.801924 14.75
3.3821263 4.9591336 0.71421605 14
3.3655672 5.1515374 0.49483413 13.4
3.249413 5.4817247 0.47392085 13.5
3.2914279 6.0615711 0.38559759 13
3.3369143 6.2046461 0.36169928 13
3.3073499 4.5843601 0.90789241 15
3.3234189 4.8427572 0.92787957 15
3.1856065 7.1033964 0.75186729 14
3.6992075 -3.0044184 0.48163342 7
3.686542 -1.2263517 0.088160515 6
3.6877429 -0.79588127 -0.018050261 6
3.6384273 -0.38543031 -0.097451888 6
3.9106362 0.0019690951 -0.18235305 5
3.7254455 -2.9065025 0.79430968 8.5
3.8417387 -2.7949226 1.5167131 13
3.8280041 -2.6738772 1.9065928 15
4.1179276 -3.2593122 0.49742633 6
4.1229458 0.0089306431 -0.16043635 6
4.1079183 -0.041648202 0.14733994 7.5
4.0932202 0.046457652 0.089119911 7
4.357275 5.1036239 -0.59750086 8
4.1319952 7.0662513 -0.47824216 9.5
4.2098217 7.0639553 -0.30163318 10
4.1950955 7.2297769 0.40571263 12.5
4.4989219 -2.1381047 0.31176615 6.6666665
4.4883189 -1.781732 0.31610692 7
4.7735071 -1.3200232 0.19395682 6.6666665
4.5953231 -0.61316061 0.082777925 6.75
4.7226872 0.18763125 0.000881535 7
4.7157645 0.53373915 -0.26518348 6
4.5242729 -2.1050684 0.66974419 8.3999996
4.4720874 -1.5619161 0.48378479 8
4.6929789 -1.3064778 0.57666999 9
4.790132 0.025421899 0.2131042 8
4.7807817 0.27235079 0.19044493 8
4.7634807 0.59747016 0.16149317 8
4.6750998 0.99853289 0.063040368 8.166667
4.659359 1.2335876 0.034902401 8.5
4.598484 3.0200071 -0.41084707 6
4.5984674 3.8326218 -0.37396073 7.6666665
4.6737733 4.1644921 -0.36566812 8
4.42734 5.1144857 -0.55482 8.5
4.3915954 5.3107972 -0.48359427 9
4.712472 7.0186582 -0.87773567 8
4.5178227 -2.072655 0.87500393 9.5
4.648807 -1.2739167 0.79437411 10
4.7875714 0.37285283 0.50798619 10.333333
4.7415295 0.74403983 0.53812653 10.75
4.6759939 1.101292 0.42754418 10.333333
4.6651139 1.3549532 0.39099172 10.5
4.3916893 5.2258425 -0.36309227 9
4.7582421 7.0461559 -0.70446283 9
4.7717376 0.76416075 0.96501839 12.8
4.6789732 1.1931463 0.79952401 12.75
4.6609583 1.420832 0.82425624 13
4.7744503 7.1627555 -0.079916172 11
4.7507572 0.918118 1.2283841 14.75
4.6926417 1.2280645 1.1731696 14.5
4.6804762 1.5105605 1.2496045 15
4.7249122 7.2169995 1.2175885 15
4.9034176 -1.4194221 0.19896299 6.5
4.8830996 -1.0675523 0.12636654 6.3333335
4.8256397 -0.41867349 0.083951205 7
4.8184352 -0.22334303 0.046606332 7
4.8925376 -1.3624728 0.588476 9
4.8687305 -0.8863219 0.43191919 8.1999998
4.8430028 -0.58750844 0.34133866 8.166667
4.8198504 -0.1490152 0.29082119 8.5
4.7989888 0.2864112 0.33302438 9
4.9232221 3.4489465 -0.30112767 7
4.8567801 3.6641171 -0.3197836 7
4.9602013 -2.4730527 0.95800924 9.666667
4.9013004 -1.6048694 0.79582185 10
4.8608966 -1.2679938 0.83668071 10.5
4.8763347 -0.86607236 0.81883353 10.5
4.8521771 -0.43329829 0.76243842 10.8
4.8309245 -0.096298337 0.6909557 10.714286
4.8047495 0.25449741 0.66474152 11
5.0368514 7.0379295 -0.71185726 9
4.9843626 -2.3263855 1.4885894 12.285714
4.9635706 -2.0242374 1.3818289 12.2
4.9265885 -1.606705 1.3511415 12.5
4.9014883 -1.2197887 1.31688 13
4.8793707 -0.77852851 1.2111206 12.8
4.8637028 -0.39666221 1.1639408 13
4.8232279 0.048093274 1.0086753 12.833333
4.8111854 0.38280156 1.012343 13
4.8031774 0.74465561 1.0402869 13.666667
4.9851122 7.1404037 -0.19389054 10.5
5.0066524 -2.2850072 1.8327048 14
4.986867 -1.9181336 1.76956 14.2
4.9621868 -1.5257407 1.7096276 14.5
4.93258 -1.1037954 1.6330658 14.5
4.8992953 -0.76010609 1.5463257 14.5
4.8758469 -0.34673452 1.4951707 14.5
4.8337226 0.037736557 1.3399199 14.5
4.8309107 0.45314878 1.3292825 14.75
4.8093662 0.69227904 1.2982032 15
4.9935608 -2.5707657 2.155273 15
4.9808021 -2.2716222 2.0922887 15
4.9596801 -1.8814216 2.0138025 15
4.9461732 -1.6436704 1.9692206 15
4.9968104 4.9480271 1.2831739 15
5.4797983 3.3322656 -0.53309804 6
5.4830346 3.3453894 -0.24735074 7
5.5293684 3.6190567 -0.31196478 7
5.5183678 7.0071535 -0.96396774 8
5.559123 3.3578308 0.0020872436 8
5.5392909 7.0898767 -0.56144565 9
5.3794813 7.2993336 0.19333223 11
5.463666 7.3354802 0.58282727 12.5
5.3795605 4.9405723 1.3398345 15
5.8010826 3.3355472 -0.56219661 6
5.6587534 6.8427711 -0.95420212 8
5.7059388 3.33848 0.028030837 8.5
5.6938767 6.9565754 0.46624589 12
5.7941813 6.9544473 0.64506668 12.5
5.8226681 7.2252102 0.9844743 14
5.8179507 7.2643747 1.3098687 15
6.2421136 3.4993112 -0.29793522 7
6.1905141 4.7564268 -0.40377295 7
6.227335 5.2290835 1.4644716 14
6.2255726 6.1092944 1.2797567 14
6.2082806 5.7492247 1.5233057 15
6.6540174 4.0731297 1.6904346 14
6.6743288 4.4073505 1.7145972 14
6.584825 5.0624247 1.5175128 14
6.513525 5.241508 1.5472178 14
6.4486232 6.031702 1.2989028 14
7.094872 7.2674489 -0.35318202 9
7.5117245 4.1209455 -0.75200981 6
7.3230367 5.186511 -0.89644426 6
7.4801297 3.9963646 -0.33789399 7
7.5063648 4.1333966 -0.50836819 6
7.2480369 7.3884678 0.53732347 12
7.4605527 3.3370643 1.8074837 15
7.6005969 3.9084184 -0.35976711 6.5
7.7870383 7.3351316 -0.25631079 9.5
7.8201876 7.4267507 0.25101691 11
7.8461843 7.4740858 0.65639901 12
7.5812292 7.3539338 1.1581497 13
7.8651257 6.3533034 1.4714172 13
8.3263912 3.4141691 -0.39555436 6
8.2293577 5.743206 -0.25423589 8
8.2090321 7.2921844 -0.37169078 9
8.2157736 7.3620033 -0.10332829 10
8.0948343 7.4380279 0.23357469 11
8.2933712 7.4535856 0.80246997 12
7.9784546 3.4009056 1.9058671 15
8.1534977 5.3794799 1.2025729 12
8.0167685 5.676353 1.189072 12
8.0150003 5.9427166 1.1894532 12
8.1710176 7.4109955 1.2185234 13
8.2070265 7.5955749 0.90051645 12
8.6244955 3.8694215 -0.12254903 7
8.6486979 7.2985187 -0.49342522 8.5
8.5445967 7.3680468 -0.13750175 9.5
8.6478424 7.4760866 0.27653956 11
8.4729052 3.4290526 1.7479999 14
8.625658 7.6262221 0.93204409 12
8.5943546 7.4634633 1.4317279 13
8.6720448 5.8819146 2.0450714 14
8.7408247 6.1866317 1.8719424 14
8.8427143 3.2950053 -0.65790808 7
9.1491909 3.2444518 -0.42396554 7
8.9540939 7.3843274 -0.16616006 9
9.0159664 7.553555 0.60909444 10
8.7945766 5.1307549 1.2725712 12
9.0204239 7.6166472 0.96139175 11
9.0098438 5.9163704 1.9003843 13
8.8377361 6.1419268 1.5807692 13
8.7816172 7.439599 1.6220158 13
9.0663786 3.5715702 2.3923349 15
9.0523643 4.7222953 2.1526127 14
8.8069439 4.9768114 2.118696 14
8.8123665 5.6872873 2.0704019 14
8.9258413 6.1913238 1.9746317 14
8.9464216 6.6679249 1.8753588 13
9.3153858 3.0807939 -0.49910197 7
9.5645809 3.088016 -0.31080529 7.5
9.1946106 7.3995404 -0.3546147 8
9.3545456 7.525846 0.29636246 9.5
9.5006685 7.5849805 0.63321191 10
9.328166 7.5855994 0.94693547 11
9.3207254 5.6656651 1.9372442 13
9.4227085 3.2463195 2.4574795 15
9.2455177 3.4135187 2.4261851 15
9.4164162 4.5153871 2.2112803 14
9.4842062 4.9657116 2.2029285 14
9.1687222 5.3441634 2.1384635 14
9.2653503 6.5685558 1.9145713 13
9.9221859 3.962393 -0.058655314 8.5
9.6443205 4.0534739 -0.15412377 7
9.655509 7.4141016 -0.34588739 8
9.6665144 7.5309467 0.35219565 10
9.7722902 5.4470677 1.1076548 11
9.6679115 5.6765985 1.0778836 11
9.7997074 7.6069975 0.99096429 11
9.6137171 5.5392566 1.9775889 13
9.7636213 3.6809371 2.4425635 15
9.9472303 3.967134 2.2935238 15
9.6504173 4.7747159 2.2393394 14
9.682889 5.457037 2.0896077 13
10.159103 7.4359388 -0.41221997 8
10.053122 7.5898881 0.27281892 9
9.9924011 7.6044421 0.65800869 10
10.252841 7.5223517 1.0572603 11
10.289368 5.0129542 2.0711281 13
10.120517 3.7757514 2.3220117 14
10.19212 5.0154243 2.1484156 13
10.618143 7.5052147 -0.067851111 8.5
10.696864 7.633532 0.34241232 9.5
10.640854 7.7056561 0.68815482 10
10.530898 7.5060182 1.0577849 11
10.544957 3.5332723 2.4556818 14
11.116188 4.232141 -0.60561776 7
11.033693 4.0285029 -0.17843954 8
11.105229 3.6607361 1.8677986 13
11.103625 4.637876 1.5324311 12
11.045945 4.9006753 1.5244424 11
10.984839 5.3136263 1.5157516 11
11.024068 6.9668102 1.1522192 11
10.844268 7.2198777 1.106495 11
10.79838 7.5498786 1.1001908 11
11.130569 3.5639102 2.1759048 13.5
11.118774 3.8515899 2.1725953 13.5
11.070202 4.2061844 2.0208123 13.5
11.038869 4.5408301 1.8501897 13
11.008577 5.0011916 1.8468838 12.5
10.990199 5.4788208 1.8478165 12
10.915426 5.7726326 1.8400789 12
10.842614 6.0705976 1.8351525 12
11.090542 4.713357 2.1472814 14
11.055695 5.0135822 2.1456106 13
11.474027 3.4452968 -0.55991316 7
11.212231 3.7993147 -0.16499044 8
11.332201 7.4986415 -0.43510345 8
11.476914 7.5534964 -0.21120185 8
11.265671 7.6772795 0.30012441 9
11.287373 7.7769561 0.7208128 10
11.959643 7.6200004 0.0093704667 8
11.958393 7.7328115 0.31601202 9
11.843809 7.7853317 0.78034908 10
12.731071 7.8026056 0.33294651 9
12.676446 7.8840809 0.79287887 10
12.512066 5.5947886 1.2057506 10
12.975197 7.7415018 0.65386224 10
13.529783 7.8486071 0.35335228 9
13.364124 7.8826447 0.83065653 10
13.80408 5.2257009 -0.040585957 8
13.70187 6.5035973 -0.40332165 7
13.854868 6.9777021 -0.44010156 7
13.869998 4.3501182 0.23163202 9
13.827103 4.7891946 0.50766814 9
13.782032 5.2039204 0.18061188 9
13.749369 5.9226341 0.13853757 8
13.729456 6.2534647 0.029803764 8
13.704675 6.6631823 0.09322717 8
13.888117 7.0993447 -0.030938573 8
13.664858 7.4658494 -0.010286579 8
13.844621 4.6895843 0.69317514 10
13.798631 5.2610507 0.5723846 9.5
13.785261 5.6260362 0.55359167 9.5
13.755459 5.9044838 0.44894272 9
13.738541 6.2909307 0.42901793 9
13.706591 6.6824317 0.41069186 9
13.885316 7.186646 0.39365003 9
13.656143 7.5118904 0.31271464 9
13.741552 5.6963 0.92107725 10
13.995985 4.6822 0.97239411 10
14.31313 7.1966934 0.726726 9
14.008112 4.9229426 1.4108101 11
13.970053 7.8007703 0.86574733 10
14.592204 5.2631502 0.98751605 10
14.758653 7.7980351 0.91257972 10
14.989799 4.7879181 0.5460341 9
14.970673 7.0028996 0.626849 9
14.860435 7.8202963 1.5583003 11
15.329146 4.7295485 1.0529834 10
15.395454 5.2506571 2.0173171 12
15.421047 7.8974071 1.4736722 10
15.690572 4.2807918 -0.84617078 7
15.914926 5.1850085 1.5710922 11
15.893494 5.8147674 1.5316726 11
15.88384 5.9809041 1.5501205 11
15.918271 5.0420885 1.9969987 11.5
15.915447 5.8299265 1.8465366 12
15.868735 6.3055744 1.6730609 11.5
15.827229 6.7111249 1.4992148 11
15.681099 7.0602336 1.6166317 10.5
15.738561 7.6164527 1.5061349 10
16.392344 4.1043139 -0.76143098 7
16.374807 4.1986609 -0.42640114 7
16.381981 4.9006224 0.081119597 8
16.365433 4.788506 0.59137452 9
