# .PCD v0.7 - Point Cloud Data file format
VERSION 0.7
FIELDS x y z intensity
SIZE 4 4 4 4
TYPE F F F F
COUNT 1 1 1 1
WIDTH 71
HEIGHT 1
VIEWPOINT 0 0 0 1 0 0 0
POINTS 71
DATA ascii
-0.49312761 -0.56383365 -0.082946047 133
0.64482301 -0.46609044 -0.082009919 170
0.73238868 -0.4543747 -0.08338321 170.5
-0.38924593 -0.38164151 -0.1187023 168.5
0.59438378 -0.38338643 -0.10245777 162
0.64607328 -0.37888405 -0.097003467 164
0.75333226 -0.3727912 -0.10013869 168
0.80981797 -0.35877669 -0.10095917 167.5
-0.30085751 -0.32260323 -0.076203406 162
-0.22501929 -0.31310323 -0.13747984 189
-0.14391288 -0.27707162 -0.14157739 185
0.55896616 -0.32508633 -0.11727102 155
0.67016399 -0.29187456 -0.11724761 154.30769
0.74015647 -0.271557 -0.11583555 157.30769
0.84802616 -0.2684963 -0.12178157 164.5
-0.68010825 -0.21826561 -0.14590377 121
-0.20373984 -0.14586517 -0.17548467 185
-0.17685682 -0.18885584 -0.16492742 184.66667
0.12292679 -0.18919928 -0.1255299 126
0.69505823 -0.21828778 -0.13225867 152.33333
0.74916768 -0.17740074 -0.13935642 152.54546
0.84219342 -0.18519348 -0.13581769 158.125
0.9177044 -0.19283935 -0.14162466 163
-0.20917468 -0.073630251 -0.18956512 185
0.7626397 -0.078412801 -0.16249311 151.6875
0.84877908 -0.088597164 -0.15776797 156.07692
0.9200688 -0.083979614 -0.16394956 160.33333
-0.21548043 -0.0011153617 -0.2073302 185
0.69015795 0.056554511 -0.20407146 153
0.76478797 0.014880444 -0.18174653 150.94118
0.84573418 0.017881554 -0.17956768 156.63637
0.92663527 0.0020800508 -0.1840089 164
-0.20619784 0.15362616 -0.19562672 166
0.028489633 0.12899987 -0.15669268 162
0.16233307 0.098725408 -0.15939254 135.71428
0.20950423 0.067556567 -0.18388326 131.5
0.69439322 0.15345411 -0.2210243 149
0.7480036 0.10717274 -0.20323889 150.52174
0.86366516 0.10173373 -0.20306177 160.375
0.93338841 0.068397172 -0.20221011 165
-0.27641523 0.18115088 -0.17240933 164
-0.053656366 0.20239511 -0.24503763 180.60001
0.027041808 0.18373488 -0.17085882 175
0.70025849 0.15948319 -0.21724193 151
0.74284345 0.18825823 -0.22012858 156.22223
0.83629799 0.2052367 -0.22630304 163.33333
-0.51644278 0.25000724 -0.25356981 147
-0.13653456 0.28138971 -0.26915619 186.8
-0.062029228 0.29000741 -0.26931086 185
0.93240297 0.30495131 -0.2563898 170
-0.13835211 0.38229847 -0.29430282 191
-0.024641071 0.38676327 -0.29091117 187
0.044502113 0.38240796 -0.28977132 185.16667
0.12927547 0.42242146 -0.29334655 185
-0.47110647 0.4907203 -0.32302395 146
0.072421148 0.52726769 -0.32316697 190
-0.15477468 -0.30808821 -0.0020784221 144
-0.07195428 -0.2466078 0.015386318 142
-0.32797801 -0.12457685 -0.043199245 131
-0.022999834 -0.15227114 0.021146577 154.5
0.074237011 -0.15718773 0.0064870538 130.7619
0.11938591 -0.15159309 -0.042169318 122.95
-0.21220949 0.16605513 -0.12954119 155.5
-0.19071899 0.15794027 -0.13469219 117
0.046794537 0.13247003 -0.073484972 133.2258
0.12047118 0.12816468 -0.11194055 124.875
-0.22886935 0.34623784 -0.17513548 148
-0.0042920881 -0.13188508 0.048900805 135.5
0.010090788 -0.1245757 0.050357461 134.85715
0.038863808 0.16276723 -0.016012764 124.75
-0.0011189005 0.20998447 -0.042440325 141
