# .PCD v0.7 - Point Cloud Data file format
VERSION 0.7
FIELDS x y z intensity
SIZE 4 4 4 4
TYPE F F F F
COUNT 1 1 1 1
WIDTH 613
HEIGHT 1
VIEWPOINT 0 0 0 1 0 0 0
POINTS 613
DATA ascii
-4.5813489 1.9296151 -0.16792384 9
-4.6001844 2.1477191 -0.35761175 8.5
-4.643342 2.5212741 -0.41726074 8.666667
-4.6923299 2.9501033 -0.50593191 8.5
-4.5775595 3.2930272 -0.55383676 8.3999996
-4.582046 2.0110641 0.12861475 11
-4.6094856 2.3092296 0.075414211 10.75
-4.6428943 2.6267018 -0.013881836 10.5
-4.6921263 3.0478678 -0.1170117 10.5
-4.6100082 3.3700967 -0.20808417 10.166667
-4.5595412 2.0340679 0.52617532 13.333333
-4.5952601 2.2809129 0.3735975 12.6
-4.6442413 2.7238121 0.26562351 12.2
-4.6881123 3.0843759 0.20775971 12
-4.6031933 3.4922752 0.13178647 12.333333
-4.4492354 0.82568949 1.0284612 15
-4.4879041 1.2532356 0.96696842 15
-4.5232801 1.6706114 0.88975042 14.75
-4.5593061 2.0212724 0.86323112 14.8
-4.5860553 2.3838327 0.74829501 14.6
-4.6397729 2.8464553 0.70920122 14.5
-4.6774092 3.2401869 0.63889968 14.2
-4.5666032 3.5487473 0.5896427 14
-4.6970453 3.3539245 0.84281087 15
-4.570374 3.6140263 0.78239059 15
-4.1556745 -1.2340227 0.44417039 8.5
-4.1905975 -1.0311114 0.40982708 8.5
-4.2280345 3.3738537 -0.54287833 8.5
-4.1864719 -1.2337029 0.82526612 11
-4.1837211 -0.94979435 0.73060924 11
-4.168622 3.4413908 -0.30404419 10
-4.1845355 -1.1039073 1.2405522 13.75
-4.1803265 -0.75062752 1.1467131 13.8
-4.0698643 -0.29849011 1.1178193 15
-4.2722654 3.5418692 0.15203701 12.5
-4.1778665 -1.1648601 1.4263761 15
-4.2300434 -0.69636565 1.3337326 15
-4.2365928 -0.41611487 1.2783353 15
-4.4247832 0.95325089 1.0626572 15
-4.1345124 3.6280315 0.47014096 14.333333
-4.3133974 3.6810684 0.76553804 15
-3.9413171 -1.1176852 0.38077316 8
-3.7774093 3.4009335 -0.6574524 8.333333
-3.6391971 -2.6286354 1.2804378 11.5
-3.6487398 -2.3833094 1.2212422 11.666667
-3.6912696 -1.4668888 0.96816444 11.5
-3.7839544 -1.2913839 0.9659484 12.25
-3.9416625 -1.0138084 0.74470532 11
-3.8329399 3.4772568 -0.2939105 10.2
-3.6515429 -2.5770276 1.636847 13.5
-3.6592457 -2.3180215 1.5331078 13.5
-3.6658583 -1.9949701 1.4562491 13.666667
-3.7093165 -1.5066943 1.3311652 14.25
-3.7929997 -1.239987 1.1478505 13.25
-3.9538846 -0.81678474 1.1104685 13.833333
-3.8092237 3.5837719 0.11677778 12.6
-3.6308188 -2.5034015 1.8558221 15
-3.621851 -2.3367522 1.8627954 15
-3.6436408 -1.8597867 1.6330711 15
-3.6659751 -1.5318482 1.5364795 15
-3.7990379 3.6499429 0.42103627 14.333333
-3.5032115 -1.1280911 0.41047722 8.5
-3.3985019 3.4573841 -0.60477585 8.5
-3.4544511 -2.7285674 1.2787848 11.666667
-3.3835332 -1.3392388 0.91845423 12.333333
-3.4453309 -1.0669572 0.65304935 10.5
-3.3741705 3.5371006 -0.27609235 10.5
-3.5599198 -3.3588462 1.7871678 13
-3.373404 -3.1274035 1.7826065 13.666667
-3.4167135 -2.6993287 1.6243907 13.4
-3.4580204 3.6207266 0.088837497 12.5
-3.2312589 -3.043566 1.9569868 14.666667
-3.3890584 -2.6434803 1.9054725 15
-3.6033585 -2.1835268 1.7597215 15
-3.4244545 3.6972797 0.42652404 14.5
-3.0296996 -2.8361957 0.82063526 8.3999996
-2.8606379 -2.3816929 0.72851306 8.5
-2.8884442 -2.0804241 0.62348205 8.8000002
-2.9201696 -1.7255882 0.5862332 9
-3.0844769 -1.3193051 0.49744567 9
-3.1652021 -1.0560523 0.58865869 10
-3.040211 3.4979606 -0.58317149 8.5
-3.0256016 -2.763623 1.1437923 11
-2.855336 -2.3864188 0.96239001 10.333333
-2.8767354 -2.1042411 0.92361516 10.5
-2.965467 -1.63245 0.92111927 11.857142
-3.0302072 -1.3191018 0.80313748 11.75
-3.0116537 3.5830882 -0.23751555 11
-2.9654224 -3.217375 1.7588596 13.666667
-3.1570158 -2.7056043 1.5385865 13
-3.016237 -1.5581042 1.1986386 14
-3.0621555 -1.3634555 1.1335716 14
-3.0302656 3.6816709 0.16569583 13.5
-2.9965489 -3.1767418 1.9508203 14.666667
-3.0144911 3.7595131 0.4910242 15
-2.5859215 -2.7550552 0.85195386 8.8000002
-2.5040638 1.3129463 -0.001993611 10.5
-2.6629214 3.5350089 -0.60258347 8.666667
-2.441474 3.575712 -0.5347243 9
-2.621382 -2.6828296 1.2024693 11.714286
-2.6774161 3.613374 -0.2695671 10.75
-2.5169461 3.6436446 -0.22859471 11
-2.6023519 -3.1721251 1.7515333 14
-2.6804068 3.7088554 0.13335855 13.333333
-2.4796665 3.7169862 0.062777221 13
-2.7435274 -3.1519213 1.9067774 15
-2.7146013 3.7870967 0.47754961 15
-2.1895318 -2.7351444 0.84037071 9
-2.2070801 1.0403999 0.036418308 10.5
-2.2385061 1.3392919 -0.067250207 10
-2.1842787 3.6119075 -0.50500149 9.5
-2.1919641 -2.6613235 1.200434 12
-2.2198904 0.94184929 0.19009762 12
-2.1997271 3.6695564 -0.2709631 11
-2.251951 -3.1076396 1.6996918 14.2
-2.1993971 -2.7849677 1.4527249 13
-2.2185547 3.7629273 0.14163873 13.714286
-1.859784 -2.6986051 0.83814669 9
-1.6715001 -2.6800275 0.8242507 9
-1.83541 3.654505 -0.50028729 9.5
-1.8200028 -2.6846724 1.2701013 12.571428
-1.6846942 -2.6046257 1.152222 12
-1.8090271 3.710001 -0.28074872 11
-1.7126989 6.6307864 -0.72285008 10
-1.8177595 -3.0771291 1.6987252 14.75
-1.8279029 -2.8031507 1.5187225 14
-1.7961848 3.8101919 0.12796807 14
-1.7024635 6.6664615 -0.54939383 11.5
-1.7925617 6.7802439 -0.033947252 13.333333
-1.7908267 6.8399453 0.17908916 14
-1.3995327 -2.6546574 0.7997281 9
-1.4790392 3.6950312 -0.50204992 9.666667
-1.317129 4.0767641 -0.58486116 9
-1.3349835 4.4906926 -0.66441727 9
-1.3996737 -2.5757499 1.1631436 12.285714
-1.3911865 3.8100808 -0.28051189 11.111111
-1.3208596 4.2652521 -0.41824448 10.75
-1.3362552 4.4417844 -0.35165653 11
-1.40368 6.5374117 -0.79251975 9.666667
-1.56627 -3.0717168 1.638907 14.5
-1.415729 3.8578422 0.11118091 14
-1.3277415 4.3052697 -0.037318915 13
-1.3579392 4.7162189 0.025662608 13.5
-1.4170029 6.5956717 -0.53669119 11.5
-1.3306789 4.4777546 0.22591694 15
-1.5059623 6.7406683 0.0012988757 13.5
-1.3723694 6.7944074 0.1713613 14
-0.98982131 -2.6090281 0.79350185 9
-1.1638349 4.2899384 -0.60924721 9
-0.9995411 -2.5282526 1.1914456 13
-1.1740459 4.2796011 -0.36836675 11
-1.0608526 4.4507003 -0.45916572 10.5
-1.0639415 6.6612749 -0.85342979 9.6000004
-1.0338159 -2.5035822 1.3867929 15
-1.0663196 6.7258797 -0.62614638 11
-1.0416222 6.8605165 -0.080937773 13
-1.0646482 6.8782296 0.16425036 14
-0.56470579 -0.60989708 -0.083318591 0
-0.5775885 0.26823029 -0.26987806 0
-0.45217904 0.53000766 -0.34012681 0
-0.47627145 0.90602952 -0.42761087 1.6666666
-0.47048703 1.3128172 -0.52142113 3
-0.53699714 1.6404448 -0.59928787 4
-0.59053189 -2.5338206 0.79860622 9.3999996
-0.5984931 -2.4507415 1.1517017 13.2
-0.59415656 6.7269878 -0.88523388 9.5
-0.66131747 6.7773256 -0.62409115 11
-0.6536904 6.9051785 -0.097443856 12.8
-0.62796569 6.959106 0.10500039 14
-0.23518372 0.62803274 -0.36413237 0
-0.20484756 0.89791608 -0.42312917 1
-0.31462231 1.2339084 -0.49705306 2.6666667
-0.044502854 -3.1443183 0.9441269 9
-0.14234942 -2.8661551 0.89643925 9.3999996
-0.26554537 -2.5392842 0.81117415 9.5
-0.023477633 -3.0468535 1.1356021 11
-0.13638699 -2.6924615 1.0765862 12
-0.28924128 -2.4399714 1.1207826 13.166667
-0.074934706 -1.484753 0.82043511 15
-0.018488154 -1.4379232 0.80955982 15
-0.25548938 6.7641001 -0.8934176 9.666667
-0.13514422 6.7813382 -0.88412732 9.5
-0.34440777 6.8174586 -0.61417443 11
-0.12747827 6.8373928 -0.63306272 10.666667
-0.35737973 6.9201708 -0.16756149 12.5
-0.16636682 6.9638295 -0.095202707 13
-0.43802798 7.0010734 0.15388443 14
-0.277044 7.0135765 0.15251084 14
0.021646367 0.62288612 -0.3573339 0
0.20450181 -3.1115525 0.95030028 9
0.13896373 -1.57871 0.6878041 12.5
0.14730446 -1.2440226 0.55237597 12.444445
0.32265997 -1.0859257 0.47009647 12
0.21275207 -3.0583818 1.1567048 11
0.20233062 6.8087196 -0.92393202 9.333333
0.17161365 6.8670769 -0.64685386 10.5
0.1456413 6.99509 -0.11034624 13
0.12430678 7.0624981 0.14973392 14
0.15561575 7.1411481 0.50362712 15
0.73478121 -0.57037669 -0.067315325 0.83333331
0.68821669 -0.27291954 -0.12635921 0.25
0.75275058 0.12643167 -0.21120565 0.40000001
0.56471276 -3.0659871 1.0536308 9.666667
0.58398861 -3.0167608 0.9019655 8.833333
0.50221187 -1.3166726 0.58083808 12
0.76129192 -0.99300176 0.537067 13.333333
0.63029963 -3.0299904 1.1493193 11
0.69826525 -3.0061097 1.1445597 11
0.7812106 -1.6399653 0.8401534 13
0.63552469 6.8570399 -0.93304729 9.333333
0.58774769 6.918611 -0.62816352 10.6
0.57996893 7.0298381 -0.16962048 12.666667
0.50560784 7.0883865 0.10021562 14
0.53625733 7.184629 0.50003183 15
1.0794475 -0.90326774 0.017813582 3
1.0282842 -0.63772684 -0.050950501 2.25
0.97062451 -0.23838603 -0.13298079 1.5
0.97826636 0.16462396 -0.2253737 1.5555556
1.1453348 0.43964627 -0.29039094 2.5
0.96462929 -2.9086294 0.89888376 8.833333
1.0095992 -2.6787603 0.83014095 9
0.98218244 -1.665413 0.5691908 9.5
1.0403594 -1.3667121 0.54087794 10.5
0.95151651 -0.95316315 0.52373981 12.625
1.0186776 -2.9696555 1.1445042 10.666667
0.87259555 -1.5652022 0.82919174 13.5
0.92784709 6.8941498 -0.94731522 9.333333
1.0079372 6.9735022 -0.6234737 10.6
0.98752308 7.0778332 -0.16942242 12.666667
0.92833674 7.1280818 0.088565364 14
1.0113139 7.2353501 0.49992374 15
1.4521447 -1.3655268 0.13362703 4
1.3974901 -1.014591 0.087345913 4.4000001
1.4113576 -0.62420505 -0.037970178 3.3333333
1.3809507 -0.22019602 -0.13559775 3
1.3797126 0.20856301 -0.23364161 3
1.427905 0.55488157 -0.30153301 3.5
1.3793268 -2.9843736 0.85461545 8.2857141
1.3869915 -1.6804842 0.56301028 9.1428576
1.5358226 -1.3257065 0.47066236 9
1.5462012 -0.93631697 0.46126097 10.444445
1.3854518 -2.9164612 1.1474901 10.8
1.4552234 -1.211386 0.74205744 13
1.3978037 -0.9144972 0.68440747 14.142858
1.3187846 6.360096 -0.63728523 10
1.3457907 6.9343243 -0.96815258 9.333333
1.3701786 -2.7562299 1.6483077 15
1.2751036 6.3457818 -0.42542911 11
1.4703268 6.7973948 -0.57539666 11
1.2332842 6.9981737 -0.61836636 10.666667
1.4803202 6.3729324 0.082969755 13.666667
1.5017869 6.8643403 -0.0005701303 13
1.3566371 7.1196437 -0.16822824 12.6
1.3987679 7.1656814 0.10423346 14
1.3686103 7.2741561 0.50292331 15
1.8194602 -1.8193598 0.23226903 5
1.8109617 -1.4121934 0.14276257 4.5
1.8423537 -0.98731267 0.051655825 4
1.685786 -0.67913944 -0.018822426 4
1.6591188 -0.26917335 -0.1128614 4
1.8280536 0.14533895 -0.20336127 4
1.856647 0.55760199 -0.29328728 4
1.7883906 0.86146015 -0.36404335 4
1.8718221 -2.8534534 0.94943368 9
1.8347597 -1.6835058 0.66609007 9.833333
1.635632 -1.3072783 0.55787671 10
1.7235823 -0.87545693 0.46836203 10.3
1.7863327 -2.848079 1.1232845 10.6
1.7300969 -1.4860175 0.80831176 12
1.6326973 -1.2560388 0.74960822 12.666667
1.7573252 -0.77361178 0.69084251 13.8
1.7801253 6.8791289 -0.9179821 9.5
1.8403062 -2.7061582 1.6270881 14.666667
1.9718488 6.2376571 -0.48390827 11
1.7219696 6.9894271 -0.56964266 10.75
1.6763949 6.328577 0.094349056 13.5
1.8151661 7.0456171 -0.26306382 12.333333
1.6337079 7.2582278 0.50490016 15
2.2232437 -3.0692499 0.67884159 7
2.2015395 -1.3918052 0.13585807 5
2.2274151 -1.0795187 0.14213739 5.5
2.1819234 -0.66280329 -0.016171742 4.5
2.3421118 -0.22689494 -0.11674292 5
2.3403516 0.12435805 -0.19622217 5
2.3399911 0.48638946 -0.27859393 5
2.1300137 0.79914504 -0.34698385 5
2.2800078 -1.7056789 0.63229471 9.25
2.2666082 -0.82254636 0.36829415 8.5
2.30057 -0.62494624 0.32398883 9
2.3214657 4.0400095 -0.571845 9
2.0674648 5.7761621 -0.88366902 9
2.0006866 -2.7623584 1.1711839 11
2.3313494 -1.9265836 0.90273309 11
2.3363578 -1.7385521 0.87732112 11
2.246218 4.0088353 -0.15368001 11.5
2.2367315 4.303772 -0.20311618 11
2.1745198 5.0517602 -0.38005191 10.5
1.9996915 6.6838179 -0.95110726 9
2.0797319 -2.6417215 1.5839293 14
2.2647042 3.8891258 0.081832655 13
2.2435577 4.3727841 -0.052167766 12.25
2.1683631 4.8604627 0.13948262 13
2.1095798 5.1318827 -0.013490537 13
2.0803666 5.9125137 -0.20478022 12
2.010783 6.2245965 -0.30636951 11.5
1.9926286 6.689836 -0.35657367 11.5
2.0107946 6.911953 -0.57541478 11
2.1933496 4.9131017 0.18072283 14
2.1923511 5.1688809 0.25232428 14
2.1304398 5.4335074 0.18396415 13.666667
2.1312547 6.0101366 0.073087521 13
2.056191 6.1794877 -0.089181013 13
2.1785533 5.3704519 0.47982508 15
2.0558891 5.8409681 0.48397604 15
2.4860134 -1.599009 0.30956671 6.5
2.7203877 -1.3632766 0.14628817 5
2.7591898 -1.0258845 0.068023466 5
2.5143199 0.67315489 -0.32604575 5
2.7078259 -2.9714942 0.97723722 9
2.4711149 -1.6647704 0.65501511 9.1999998
2.5554163 -1.1120062 0.68295699 11
2.5871401 -1.0567137 0.68181121 11
2.4885211 -1.6765305 0.87868297 11
2.59848 -0.73018539 0.63734847 11
2.7324173 -2.5998816 1.7363106 14.5
2.8062027 -3.060853 0.70501924 7
3.1212671 -0.80640501 0.023943527 5
3.0856383 -0.11912939 -0.059318971 6
3.0798595 0.54241168 -0.20475198 6
3.1183162 7.1504655 -0.95000845 9
2.9710121 -2.548209 1.7620316 14.5
3.1418781 7.2887287 -0.34654015 11
3.515429 -1.8142716 0.23273402 5
3.5437241 -1.3533021 0.12540881 5
3.4409459 -0.87795675 0.1489197 6.5
3.4118059 -0.49659187 0.0240137 6
3.2264612 0.23400968 -0.092934564 6.5
3.3498242 0.98683703 -0.3023679 6
3.3773706 -2.8614466 0.8376112 8
3.3229923 0.15550901 0.097640857 8
3.566438 3.8780401 -0.45180553 9
3.4361506 4.2389688 -0.51986283 9
3.2449477 7.1003175 -1.1948749 8
3.2849073 4.337501 -0.50974262 9
3.3078923 7.1378832 -1.0050657 9
3.2453918 -2.5664945 1.8171308 14.5
3.2544394 7.2340484 -0.58616483 11
3.3826706 -2.5838478 1.9209942 15
3.3499515 7.2843742 -0.34731159 11
3.6429236 -2.4541173 0.60805398 7
3.6905401 -1.7120394 0.40609416 7
3.7450032 -1.4879444 0.29771388 6.5
3.7664638 -0.42547783 0.14150751 7
3.9501543 -0.18864278 0.10189383 7
3.8746023 0.62064534 -0.074870609 7
3.6042931 -2.4213486 0.73388952 8
3.7110507 -1.6628399 0.61014688 8
3.7878428 -1.3257787 0.652004 9
3.9298863 -0.95227104 0.47930446 8.5
3.9619663 -0.52898639 0.39633662 8.5
3.9410079 -0.12763496 0.31356907 8.5
3.8789508 0.27415127 0.22292426 8.5
3.8507323 0.64470732 0.12012892 8.5
3.7481518 1.0181016 0.050582737 8.5555553
3.7008064 1.3515084 -0.062462766 8.333333
3.6513126 3.7672241 -0.45205778 9
3.6062834 4.3134189 -0.52047014 9
3.7090561 -1.6135012 0.8549735 10
3.7400889 -1.2997409 0.79904205 10
3.8590209 -0.9057582 0.86609447 11.25
3.9762337 -0.34474358 0.7951687 11.5
3.9439497 -0.034158453 0.70312244 11.444445
3.8941686 0.35460684 0.62947309 11.5
3.8468199 0.7844978 0.5036031 11.5
3.7455049 1.1090741 0.45064536 11.555555
3.697248 1.4705114 0.35901427 11.142858
3.6780884 4.3913512 -0.36335361 10
3.8609345 4.472928 -0.37804422 9.5
3.9711933 -0.25690767 1.0856011 13.5
3.9482028 0.038919352 1.0904249 14
3.8996 0.4321048 0.96946937 14
3.8578968 0.80316585 0.88734365 14
3.7436612 1.2042782 0.79350168 14
3.6931069 1.5132052 0.73260087 14
3.8569691 1.0913101 1.0579091 15
3.9370732 7.5251379 0.59366953 14
4.0917873 -1.5537198 0.38377643 7
4.0753469 -1.1727347 0.2685762 7
4.0065084 -0.6569922 0.21269852 7
4.0650883 -1.1828289 0.58266836 8.5
4.0338545 -0.93528891 0.46139944 8
4.0012259 -0.67170751 0.49669266 9
4.3169198 3.7521796 -0.48935875 8
4.1174197 -1.5533762 1.1610386 11.5
4.0695467 -1.1976917 1.0014327 11.25
4.0233545 -0.81353611 0.81005496 10.8
3.9979923 -0.46168599 0.86386669 11.666667
4.0288925 0.52444655 0.6474176 12
4.3727865 3.5822484 -0.25950584 9
4.3206067 3.9297624 -0.32876316 9
4.0540276 4.0858579 -0.37500176 9
4.1943521 5.577405 -0.62603432 9
4.0430317 7.2510958 -0.91365081 9.5
4.164887 -2.5655224 1.7413266 13
4.1746259 -1.8262863 1.5470077 13
4.1144156 -1.4642152 1.4410449 13.2
4.0848589 -1.1150782 1.3396219 13.5
4.0441089 -0.69745076 1.2664524 13.8
4.0077538 -0.37547722 1.2326189 14.2
3.9863017 -0.033797491 1.2461139 15
4.0062075 0.6378932 1.0386658 15
4.1878939 -2.502774 2.0267344 14.6
4.2105656 -2.1887012 1.9542774 14.6
4.173625 -1.8942416 1.8409719 14.666667
4.1261358 -1.4505273 1.7266057 15
4.0845666 -1.1155183 1.6221395 15
4.039567 -0.76007235 1.54029 15
4.0744543 7.518508 0.29319206 13
4.0534568 7.6396089 0.82020241 15
4.6913595 -3.8538461 1.1005447 8
4.6624832 -3.7892592 1.0168806 7
4.5574193 3.5226562 -0.57623851 7.3333335
4.5444555 3.8756602 -0.49904141 8
4.432303 4.03579 -0.54086548 8
4.5393534 3.5266669 -0.18104847 9.25
4.6322775 3.6757762 -0.20063236 9.5
4.6071768 3.6618321 0.091466531 11
4.5294724 7.1689286 0.34790578 13
4.8161449 3.6229005 -0.57036614 8
5.0753102 5.4486465 -0.94245666 8
5.0729003 6.9956007 -0.71868896 9.5
5.1242204 7.0768652 -0.42252114 10.5
5.0483608 7.2525921 0.38992137 13
5.1044374 7.4404759 0.66704798 14
5.0935092 7.3897223 0.90440738 15
5.210001 4.9869022 -0.80953854 8
5.2550616 5.2483988 -0.92137092 7.5
5.2964497 6.691155 -1.2465676 8
5.1868501 6.8908534 -1.2753638 8
5.2194009 7.1060786 -0.29963198 11
5.2653866 7.2520208 0.27780622 12.5
5.3948913 5.3125763 1.1308736 15
5.2969241 6.3801723 1.1377618 15
5.3362341 7.3719192 0.92778963 15
5.8520522 7.5022326 -0.65002155 10
5.7747707 7.5703483 -0.34528494 11
5.8707314 7.7102304 0.17939711 12
5.7769337 5.32023 1.1863334 15
5.7744126 7.7685022 0.57380062 13.5
5.8099294 7.6443357 0.97851831 15
6.3909578 4.2705383 -0.91358721 6
6.3243799 4.4527755 -0.93777096 6
6.3268704 4.5125408 -0.70159948 7
6.1017828 5.7659321 -1.1416986 7
6.3363223 4.3288035 -0.30323219 8.5
6.0802321 5.7042623 -0.58363199 9
6.090775 7.5699177 -0.56822729 10
6.11766 7.6715999 -0.084578775 11
6.1014314 7.7628341 0.29529291 12.5
6.1497922 7.8266568 0.65103954 13.666667
6.1192803 7.6727943 1.0093703 15
6.4975195 4.1207218 -0.89807636 7
6.4845433 4.2856889 -0.66809613 8
6.3928285 4.4478121 -0.6785816 7
6.6830416 7.5513701 -0.85412276 9
6.5169716 7.681169 -0.27067047 10.666667
6.6116285 7.8151484 0.27303645 12
6.6333165 6.5943465 1.0624987 14
6.5360689 7.8124833 0.62940675 13.5
6.8883905 4.2112122 -0.94315791 7
6.9971409 6.1271682 -0.47407877 9
7.024003 7.6700635 -0.54649562 10
6.8049698 7.7594614 -0.06606546 11
7.103519 7.7340903 -0.36868697 10
6.8682332 7.8410997 0.2332987 12
7.1094623 3.7947428 1.6397675 15
6.9575801 5.4806309 1.111802 13
6.7915583 5.7428799 1.0870359 14
6.9383988 6.2533646 0.96827519 13.5
6.8651524 7.8281159 0.52419186 13
6.8016391 7.7582593 1.0823423 14
6.8310795 7.8416629 1.370849 15
7.3394608 4.3348413 -0.44440052 8
7.4532781 4.257483 -0.40913942 8
7.4094152 7.8072023 -0.15651257 10.666667
7.3495479 7.9103289 0.31182516 12
7.3197265 5.4949112 1.1591706 13
7.2641921 6.0562801 0.87455446 13
7.2869873 7.9457521 0.55788529 13
7.1810341 7.7826819 0.83032238 14
7.2633963 7.7934251 1.4285131 15
7.8492699 4.0061779 -0.38382098 8
7.625793 4.1228433 -0.39500618 8
7.7471251 7.7966166 -0.33124429 10
7.7260895 7.9350843 0.33373192 12
7.7284336 7.9888692 0.58007497 13
7.5653043 7.8158379 0.86507213 14
8.1940918 3.4839854 -0.32222795 8
8.0810719 3.6372883 -0.65195239 7
8.100111 7.8580222 -0.22358093 10.333333
8.094183 8.0755596 0.62752384 13
8.0132685 7.8909512 0.90466863 13
8.001852 5.9539309 1.8076996 14
8.3207436 6.2527957 1.8377658 14
8.2045689 7.196249 1.5555606 15
8.4765291 3.4572957 -0.64662641 7
8.5351553 4.274879 -0.45351595 8
8.5834045 4.4849696 -0.13660751 9
8.4263391 7.9601336 -0.020082593 11
8.4871206 5.9144821 0.7929942 12
8.4440918 6.1656227 0.77313912 11
8.3980846 7.9868307 0.32454771 12
8.5866537 6.0124307 1.015909 13
8.7238846 8.0251694 0.44014543 12
8.5787907 6.1227326 1.3130043 14
8.4722986 7.9482203 0.94632304 13
8.5582561 5.586771 1.9411753 15
8.6023035 6.8879652 1.6129785 14
8.3900318 7.0307827 1.5821853 15
8.4730844 8.0215778 1.2745671 14
8.8949986 4.2734871 -0.44076008 8
8.8447723 4.3671432 -0.11857551 9
8.8004866 7.9144902 -0.2930705 10
8.858676 8.0170193 0.17346491 11.5
8.8520231 8.0787382 0.69936889 13
8.8649559 5.185596 2.0752985 15
8.8042116 5.437232 1.954513 15
8.897995 6.8033724 1.6593553 14
9.2153225 7.8990526 -0.55739367 9
9.3434944 7.9866762 -0.36707079 10
9.3550539 8.0768471 0.19492199 11.5
9.3444157 8.0610218 0.74389732 12.5
9.5262785 4.8021693 2.09708 15
9.3321638 5.4241314 2.0228424 15
9.3234053 6.3345323 1.7284393 14
9.9472294 4.6528621 -0.89938551 7
9.9511518 4.452703 -0.49438447 8
9.9297848 8.1393766 0.026977705 11
9.8837986 5.9050941 1.1664171 13
9.8116379 6.1841321 1.1451408 13
9.7629509 7.7627349 0.80970597 11.5
9.5692921 7.9896693 0.77503341 12
9.8894157 5.1160755 1.6854554 13.5
9.8582621 5.4370594 1.5102379 13
9.848877 5.7312975 1.4975786 13
9.7801743 6.3133245 1.4700073 14
9.6206541 7.6866746 0.90500927 13
9.6867132 4.6211686 2.1298892 15
9.859622 5.6277885 1.8262907 14
9.708231 5.9793978 1.7950164 14
9.9747972 4.6322856 1.5598279 13
10.02541 6.6480007 1.0736768 13
10.302183 6.8349495 0.91852444 12
10.113353 7.4921837 0.87390006 11
9.9535351 4.6951861 1.8656282 14
9.997139 4.6043963 2.170491 15
9.9499702 4.8699565 2.154089 15
10.527101 8.2248602 0.045098823 11
10.519455 8.3199615 0.44735032 12
11.046884 4.3716183 -0.50011456 8
11.14459 8.2005806 -0.36442831 9
10.915225 6.6877437 0.85453361 12
11.130483 8.3954477 0.4848612 10
11.534229 8.1728544 -0.55754578 8
11.556099 8.2727976 -0.12911364 9
11.990211 5.817317 -1.1811854 7
11.812815 8.3636055 0.087361276 9
11.783444 8.4734612 0.52589285 10
11.992763 5.9514012 -1.1970886 7
12.290417 8.2735376 -0.22487028 9.5
12.313467 8.4218225 0.6585995 11
12.696807 5.0931025 -0.19401763 9
12.64289 5.5119457 -0.21541621 9
12.607863 7.5462885 -0.95444649 8
12.566144 7.7607675 -1.0368329 8
12.688756 5.287571 -0.025336413 9
12.663566 5.6322651 -0.064646035 9
12.606385 5.9709215 -0.10290725 9
12.559129 6.3246531 -0.14154878 9
12.513881 6.6812773 -0.18145972 9
12.478884 7.1423759 -0.32405227 9
12.547417 7.5743032 -0.37373358 9
12.709985 5.3093395 0.4634994 10
12.644952 5.6350207 0.32655841 10
12.611018 6.0645719 0.25597784 10
12.583529 6.4906058 0.29313982 10
12.528976 6.6478782 0.10585474 10
12.4997 7.2844272 0.12260818 10
12.616658 7.8777905 -0.16972254 9.5
12.719707 7.7285643 0.18503772 10
12.620432 8.0753603 0.14918296 10
12.368616 8.326314 0.1154755 10
12.635255 7.0734029 0.69404525 11
12.383755 8.4810457 0.56825554 11
13.056767 6.027421 0.8788625 11
12.846382 5.5750732 1.2639291 12
12.855648 8.3824568 0.60925251 11
13.264215 5.9187984 0.83260763 11
13.328992 8.5173197 1.174035 12
13.735102 8.5169716 0.66363442 11
13.671701 7.4021716 1.5375577 12
14.124364 6.8558788 1.6730108 12
14.57838 7.7245708 0.78756696 11
14.438358 8.5058441 0.71585691 11
14.689275 6.7536554 1.3762084 12
14.644529 7.1479216 1.268038 11.5
14.598495 7.5392904 1.2335504 11.5
14.446094 7.8303981 1.2779304 12
14.547858 8.3063078 1.2584734 12
14.520815 8.4614201 0.81751007 11
14.536025 8.3800011 1.3390852 12
14.7541 6.3931789 1.2720778 11
15.267459 5.1178327 -0.85436875 7
