# .PCD v0.7 - Point Cloud Data file format
VERSION 0.7
FIELDS x y z intensity
SIZE 4 4 4 4
TYPE F F F F
COUNT 1 1 1 1
WIDTH 153
HEIGHT 1
VIEWPOINT 0 0 0 1 0 0 0
POINTS 153
DATA ascii
-5.5909214 3.1101959 0.8655498 11
-5.5756898 3.0747283 1.0385212 12
-4.9587507 3.733423 1.129861 12
-4.9736676 3.7263389 1.316452 13
-4.9725862 3.7202487 1.5033418 14
-4.7219667 2.3221743 0.11398134 8
-4.7585559 2.3557603 0.46226752 10
-4.6805511 1.6054626 1.4525174 15
-4.5389171 1.8765281 0.31495643 9
-4.5230775 -0.85686034 1.1716801 15
-4.2111616 2.993223 0.12012627 8
-4.2568173 3.0340431 0.37746501 9
-4.2901292 3.7594249 1.1694913 13
-4.2984786 -1.3447802 1.2230569 15
-4.3529477 0.89508605 1.3144182 15
-4.0972419 -1.8980328 0.82436264 13
-4.2095737 0.38294399 1.1931601 15
-3.9974387 -2.3213041 -0.022006107 7
-3.9098623 -2.4405208 0.89825523 13
-3.860677 -2.5009267 1.2710418 15
-3.9645593 -1.9599161 1.1493655 15
-3.6807921 3.1948864 0.27695021 9
-3.8057497 3.26405 0.56253731 10
-3.69085 3.9904802 0.94549966 12
-3.6197748 3.9438505 1.231568 13
-3.5629904 3.966361 1.2523485 14
-3.3793044 3.2167888 0.2305242 8
-3.3365715 -3.9969301 0.71388352 11
-3.3842177 -4.0249982 1.45839 15
-3.0077245 4.6498933 0.43515188 9
-3.0509751 4.3640637 0.6604616 10
-3.1497309 4.4317441 1.2185873 13
-3.0286574 4.6240687 1.4022485 14
-2.93558 -3.4468017 0.12027518 8
-2.8414533 4.6982036 0.31118807 8
-2.6843209 -3.8171155 1.2726622 15
-2.4118929 -0.72150624 0.18832977 10
-2.4771681 4.4653692 0.4852708 10
-2.4568088 4.5135446 0.74125284 11
-2.5565464 -3.8622973 0.80970824 13
-2.5040843 4.4956622 0.86550367 12
-2.4250617 4.8451366 1.1476854 13
-2.4693036 4.821507 1.5608166 15
-2.2342834 -3.6710012 0.10017518 8
-2.2829106 -1.0850099 0.19903584 10
-2.378288 4.8424516 0.48882642 9
-2.1203489 -3.5806928 0.20235738 9
-2.1518521 -1.4288187 0.2992129 10.5
-2.1735282 -1.2792705 0.16682817 9
-1.9958175 -3.3135688 0.53442037 11
-1.6833572 -3.6015773 0.011262886 7
-1.7884593 -3.6162958 0.31295952 10
-1.7999195 -3.631675 0.84460342 13
-1.6477456 -3.5877721 0.92475688 13
-1.3039173 -3.4174552 0.45278597 10
-1.2085171 -3.3898487 0.51098073 11
-1.2459881 -3.4003007 0.94614577 14
-1.3124219 5.128778 1.4739395 15
-1.1513519 -3.421134 0.7878803 13
-0.85164493 -2.5549526 0.11688533 8
-0.87861282 5.2555928 0.51867181 9
-0.75016385 -2.8926671 0.07832057 7
-0.62337661 -3.279212 0.6923883 12
-0.47060141 0.66890883 -0.22749898 0
-0.46963778 -3.1795335 0.083784983 7.5
-0.057555974 -2.9862757 0.12220848 8
-0.17782085 -3.136765 0.44273201 10
-0.050100546 -2.979506 0.75896478 14
0.071919791 -3.0628386 -0.019015154 7
0.069825314 -2.9507554 0.084922351 8
0.0097511532 -3.0763688 0.28933695 10
0.022111431 -2.9674191 0.44648385 12
0.3362979 -2.8643451 0.1356644 9
0.36227196 -2.8805754 0.72257525 14.5
0.40552178 -2.9372003 0.01854437 8
0.51348764 -2.8400419 0.4581432 11.5
0.94976246 5.756146 0.67470926 10
0.95219427 5.7566361 1.0219481 12
0.95127779 5.7575464 1.5003992 14
0.94121063 5.7535419 1.7015846 15
1.0600184 5.7262616 0.55372775 9
1.0502144 5.7256489 0.92390269 11
1.0430052 5.7186875 1.3336118 13
1.322891 0.030571438 -0.12703048 4
1.3103963 4.6969428 0.63914108 10
1.3352233 4.4899526 1.3420353 15
1.2652088 4.7629943 1.3368583 14
1.546434 3.8464088 0.55885923 10
1.4337082 4.226438 0.62018526 11
1.4113915 4.3001022 0.84385592 12
1.5043525 4.2216959 0.9472326 13
1.5662738 3.6801081 1.1622516 15
1.4880304 4.2345629 1.1728362 14
1.7643356 3.3008082 0.38742 10
1.6705364 3.3771899 0.56026828 11
1.7637806 3.0251317 0.73967469 13
1.6342262 3.5238092 0.78154933 12
1.6876551 3.5253937 0.93469268 13
1.9204018 2.4697766 0.40078813 10
1.9474076 2.4389307 0.59569705 11.5
1.9540633 2.4697635 0.77451688 13.5
1.9134296 2.4567528 0.98224473 15
2.0405486 -2.5092525 0.20920579 9
2.0072181 2.4816396 0.32154024 9
2.3369451 2.4495304 0.21240079 8
2.3852172 2.5577459 0.71110624 12
2.5723643 2.2421353 0.41301942 10
2.4778295 2.568013 0.45711905 10
2.425308 2.5398214 0.50827271 11
2.476933 2.4933515 0.74067825 13
2.6320839 2.3012915 0.34190622 9
2.6086063 -3.2794366 0.61345267 11
2.6344063 2.3438582 0.69886941 12
2.9751294 -1.9743156 0.047898859 7
2.8212938 -0.96339267 0.78647226 14
2.8315783 2.6832321 1.0646552 14
2.8299193 2.6866834 1.1286814 15
3.1890006 -0.82014906 0.8136425 14
4.7339706 2.9131808 0.25241029 8
4.7123857 2.9154463 0.60115695 9.5
4.6826315 2.9681482 0.86783367 11
4.6855426 2.9698682 1.2657012 13
4.6237984 3.1330366 1.4314375 14
4.7023478 3.2536221 1.6675313 15
4.8084769 2.9114921 1.0794395 12
4.8595328 2.7522011 1.467132 14
5.0511374 2.1848814 0.15719289 7
5.0803614 2.4155393 0.3249127 8
5.0311627 2.5514696 0.53553426 9
5.136847 2.2142711 0.8664313 11
5.12779 2.232626 1.1634921 12
5.1407442 2.152894 1.6564109 15
5.1162877 2.2248642 1.5044267 14
5.2663264 1.4274175 0.060015138 7
5.3253226 1.5568871 0.34958541 8
5.3525057 1.46815 0.52859586 9
5.243114 1.440492 0.85877377 11
5.2360702 1.473236 1.0568854 12
5.2580409 1.3300717 1.2577494 13
5.3622861 0.95480031 1.340279 14
5.202786 1.5422319 1.3746728 14
5.2315598 1.9077586 1.2911791 13
5.3298383 1.5308146 1.56516 15
5.581574 0.70210207 0.24875267 8
5.5296602 0.87126088 0.13889258 7
5.5679994 0.73988998 0.74164671 10.5
5.4078541 1.264197 0.69433606 10
5.3923292 0.84896404 1.7279195 15
5.5802193 -11.086553 2.1102335 12
5.6837707 0.16421843 0.094299696 7
5.6110229 0.15735114 0.36361015 8.5
5.6667547 0.17397676 0.73022753 10
7.2091002 -5.6054173 2.1020298 14
