# .PCD v0.7 - Point Cloud Data file format
VERSION 0.7
FIELDS x y z intensity
SIZE 4 4 4 4
TYPE F F F F
COUNT 1 1 1 1
WIDTH 728
HEIGHT 1
VIEWPOINT 0 0 0 1 0 0 0
POINTS 728
DATA ascii
-5.7928462 3.6460242 2.0126889 15
-5.3273754 2.2269156 0.73671967 11
-5.4129782 2.5357287 0.76346648 11
-5.3382344 2.2317226 0.94985265 12
-5.4472299 2.6355617 0.93636161 11.8
-5.5154009 2.9539869 0.95267826 11.5
-5.3770537 3.2304747 1.012972 11.8
-5.2737689 2.1957932 1.2139212 13
-5.4027982 2.9968064 1.213927 13
-5.2322221 3.2227995 1.3320067 13.5
-5.4644003 4.008481 2.0600121 15
-4.8980699 -4.5654769 0.086168855 8
-4.9828572 -4.3178654 0.2540037 9
-4.8072567 2.6566658 0.23132631 8.333333
-4.8859773 2.9338288 0.23637234 8.3999996
-4.8612556 -4.4566636 0.39391118 9
-4.8249331 2.6665392 0.49149531 10
-4.8770103 2.9187036 0.49292991 9.666667
-5.031776 3.3693488 0.55639279 10
-4.9830594 3.6695769 0.55308038 10
-4.8694148 -4.5882754 0.92324537 11.25
-4.986537 -4.3341417 0.90434915 11.333333
-5.0750737 3.3724346 0.98651689 11.5
-4.9767585 3.6513531 1.0350732 11.5
-4.863843 1.9061172 1.4731236 15
-4.9467425 2.1782513 1.375607 14
-5.0279894 2.5509005 1.3419863 13.666667
-5.1442933 2.9138572 1.4275419 14.333333
-5.0535512 3.38499 1.3125402 13.333333
-4.9720969 3.6288986 1.3604792 13.333333
-4.9543262 2.5370619 1.6268798 15
-5.1844931 3.0470955 1.6059351 15
-5.1032825 3.3897731 1.6752986 15
-5.0067143 3.8355019 1.7725439 15
-4.958818 -4.5578518 1.9101117 15
-4.7849331 -4.6658077 0.075781427 8
-4.6082692 1.888059 0.25121936 9
-4.6803956 2.2066455 0.23423801 8.666667
-4.7446237 2.4696136 0.22299291 8.5
-4.4984503 2.9851732 0.26860252 8.5
-4.7854548 1.9106001 0.65712094 11
-4.671371 2.1593778 0.44922397 10
-4.7750893 2.6112266 0.47578156 9.666667
-4.4226246 2.9230354 0.45763639 10
-4.642652 3.7592845 0.65422177 10.4
-4.4134102 -1.2922094 0.8253271 13
-4.4494061 -1.0885812 1.0255022 13.666667
-4.558239 -0.8094033 1.0889307 14
-4.5634856 3.7697225 0.98366112 11.75
-4.7489896 -4.5991459 1.2477036 13
-4.5369501 -0.96046185 1.1615674 14
-4.5666614 -0.62504089 1.2148538 15
-4.718955 1.1011238 1.3571944 15
-4.6683025 1.3267064 1.3698794 15
-4.7781653 1.6808105 1.4127606 15
-4.6385412 3.7220891 1.3789767 13.5
-4.775732 -4.5867987 1.6113838 14
-4.6843863 3.9659882 1.7716225 15
-4.4711981 3.9777696 1.7542077 15
-4.2275987 -1.692933 0.12391643 8.25
-4.2966266 -1.4862815 0.20677818 9
-4.1671257 3.067944 0.28545815 8.5
-4.1943674 -1.6961844 0.44228825 10.666667
-4.2621293 -1.4682654 0.40143201 10.25
-4.0900784 3.8899834 0.77342254 11
-4.0868063 -2.2714076 0.90013289 12.75
-4.1935358 -1.8255154 0.90854919 13
-4.3079414 -1.4699619 0.98546869 13.6
-4.3536162 -1.0631856 1.1324019 15
-4.1728139 3.8676121 1.0396242 12.5
-4.0239682 -2.1466064 1.2905308 15
-4.1027131 -1.8060294 1.1763247 15
-4.2125988 -1.3871037 1.20375 15
-4.3542204 -1.0278879 1.1904004 15
-4.2279463 0.62988704 1.2236676 15
-4.3056054 0.78525949 1.283908 15
-4.2328115 3.8358169 1.3804711 13.5
-4.1975527 4.0199256 1.7405094 15
-3.6109102 -4.0834222 0.16352044 8
-3.7110558 -3.9956746 0.14273795 8.333333
-3.9063826 -3.2533221 0.1889641 8.5
-3.978045 -2.5387797 -0.055246949 7
-3.9702489 -2.1703188 -0.011405805 7.3333335
-3.9320018 -1.9450351 0.024490325 8
-3.8515692 3.1290088 0.25586602 8.333333
-3.6378832 3.2078538 0.3830854 9
-3.6642461 4.4501553 0.29243305 8.5
-3.7998478 -3.2943885 0.52761441 11
-3.9071639 -3.0279536 0.69776332 11.5
-3.8361328 3.1568093 0.40745521 9
-3.657455 3.2781656 0.61541331 10.5
-3.8278196 3.9619799 0.73168546 10.666667
-3.6396637 4.0575395 0.63418072 10
-3.7005486 4.4197354 0.51702553 9
-3.6780324 -4.0630474 0.7584632 11.5
-3.7495055 -3.9716651 0.75343502 11.5
-3.8307467 -3.0255876 0.90885353 12.833333
-3.9666348 -2.6083272 0.88122594 12.8
-3.9703031 -2.1984253 1.0325439 14
-3.8230927 3.9470129 1.0545727 12.5
-3.7112503 4.1460905 1.0457159 12.333333
-3.741677 4.4277444 0.99622637 11.8
-3.8194885 -3.0732605 1.275825 14.6
-3.8405976 -2.6904469 1.1997081 14.4
-3.9675677 -2.2761238 1.2303725 15
-3.8549876 3.932013 1.3486558 14
-3.6929071 4.1728024 1.2875067 13.5
-3.7382631 4.419323 1.3892461 13.75
-3.7161171 -4.0543823 1.5448682 15
-3.7681317 -3.9862971 1.5444582 15
-3.954006 4.0789742 1.7358505 15
-3.5852334 -4.0451436 0.19418748 9
-3.408735 3.4024806 0.24641429 8.5
-3.2784512 3.7934201 0.28075761 8.5
-3.3505819 4.2932005 0.23305093 8
-3.3586462 4.4861455 0.34836441 8.666667
-3.5278425 -4.0883718 0.42507219 9.5
-3.2884555 -3.993329 0.70275354 11
-3.4927788 3.3650181 0.54844737 10.333333
-3.5753961 3.6643782 0.52012515 10
-3.39412 4.2287254 0.65970618 10.4
-3.3697476 4.5092082 0.50358224 9.666667
-3.4525399 -4.0824409 0.92627585 12.2
-3.3393633 4.3013253 1.0875009 12.5
-3.4103985 4.4683485 0.98946792 11.8
-3.3894534 -4.0698686 1.2714638 14.333333
-3.2688107 -3.9921851 1.418597 15
-3.3882644 4.345984 1.4009969 14.333333
-3.379518 4.4993796 1.4221621 14
-3.590785 -4.0903745 1.5140387 15
-2.9147315 -3.4627001 0.13549478 8.5
-2.9017737 -2.1685724 0.25397712 9.5
-2.8293626 -1.7139294 0.059968065 8
-3.0512214 -1.3357198 0.23110482 9.5
-2.8993101 -0.91321319 0.23083311 10
-3.1947675 3.5246401 0.26949537 8.5
-3.0223098 4.5592146 0.33191919 8.333333
-3.0506542 -3.9215648 0.6730125 11
-2.8788042 -3.4902701 0.33800206 10
-2.8373075 -2.1698847 0.47859666 11
-3.0365317 -1.4350706 0.36095417 11
-3.0177281 4.3744702 0.53909296 10
-2.9431319 4.6367607 0.62140375 10.166667
-3.1253314 -4.0265551 0.93556899 12.5
-2.9132302 -3.9658201 0.97404134 13
-3.0332565 4.347096 0.9802683 12
-2.9498038 4.570148 0.97051024 11.8
-3.0084333 -3.9336617 1.2967257 14.75
-3.0504894 4.3519115 1.4893545 15
-2.9876063 4.6100769 1.3843228 14
-2.6012688 -3.387398 0.13896368 8.5
-2.6448145 -2.0942719 0.16231321 9
-2.5919542 -1.8519131 0.08949285 8
-2.4960947 -1.2100817 0.12141135 9
-2.7214625 -1.1645149 0.10634166 8.5
-2.4129057 -0.61124438 0.17076588 9.333333
-2.5290568 4.6672602 0.33980674 9
-2.6661167 -3.811625 0.62016618 11
-2.6462376 -3.4431159 0.3316226 10
-2.7365947 -1.2210261 0.36370051 11
-2.6007624 4.6131845 0.56827217 10
-2.4556787 4.8344679 0.68878418 10.333333
-2.6333189 -3.8839276 0.96281928 13.2
-2.6281459 4.5589342 1.0478747 12.5
-2.5168197 4.79918 1.0517268 12.5
-2.5690536 -3.7912004 1.2465676 15
-2.6200013 4.6168718 1.4380072 14.5
-2.5082145 4.8100729 1.3575464 14
-2.0972514 -3.6841359 0.14672871 8.5
-2.2489557 -3.4063611 0.19039023 8.909091
-2.3689237 -2.153161 0.22428618 10
-2.1899877 -1.8653398 0.17622776 9
-2.1692476 -1.3324999 0.22508271 10.142858
-2.2404881 -1.1544544 0.23675476 10.25
-2.3532958 -0.61904508 0.29035476 11
-2.2801354 4.8764839 0.3763625 9
-2.1854281 -3.6841495 0.50407183 10.5
-2.0965838 -1.2461295 0.439522 13
-2.2669888 -1.0131686 0.41460365 12.2
-2.3481607 -0.6069994 0.46024999 12.75
-2.1758301 4.8864641 0.63571012 10.2
-2.2175272 -3.75371 0.9165417 13.5
-2.2086723 4.8976073 1.0610429 12.5
-2.2039263 -3.6820314 1.1606209 15
-2.2059307 4.8946471 1.4674003 14.5
-1.944131 -3.65852 -0.10809564 7
-1.7808797 -3.5500739 0.20097657 8.5
-1.804482 -1.8208865 0.21555346 9.8000002
-1.8776648 -3.4834228 0.52729905 11
-1.818586 -2.1449299 0.48601562 12.333333
-1.9359285 -1.7996643 0.49465972 13
-1.8008797 5.0050678 0.66322249 10.75
-1.898882 -3.6395991 1.0028049 14
-1.7954011 -3.5740242 0.93885267 13.5
-1.8156202 4.9921966 1.0342406 12.166667
-1.830124 5.0002713 1.4591187 14.428572
-1.402362 -3.4858031 0.20244302 8
-1.3857509 -3.4604983 0.55533266 10.857142
-1.3500504 5.1301961 0.65090996 10.5
-1.4210763 -3.4844141 0.93953943 13.5
-1.4301034 5.1040282 1.1103828 12.5
-1.4363999 5.1058741 1.4749216 14.4
-1.0563049 -3.370506 0.17439884 7.8333335
-0.84948826 -2.6237462 0.12753716 8
-1.0266151 2.8711894 0.37811118 10
-1.0210819 -3.3653622 0.56865138 11.142858
-1.1672238 5.1814642 0.5783518 10
-0.97654623 5.2286606 0.64854693 10.2
-1.0534104 -3.3761013 0.89033669 13.5
-1.1796654 5.1739197 1.1080173 12.5
-1.0135571 5.2172961 1.008109 12
-1.1324059 5.1640811 1.4724836 14.5
-0.99601758 5.2260046 1.3988299 14
-0.54393536 -0.47208422 -0.20121889 0
-0.60927439 -0.32249725 -0.21477617 0
-0.54417533 0.66835725 -0.2247079 0.33333334
-0.5834648 -3.2592771 0.31151077 9
-0.6203618 -3.0403273 0.096226238 7.5
-0.72916877 -2.6781416 0.12267695 7.5
-0.71461266 2.9604099 0.40985298 11
-0.63489032 -3.2472172 0.52669436 11
-0.47000304 -3.184303 0.42759308 10.5
-0.59380263 5.3335567 0.69090325 10.5
-0.64139098 -3.2548034 0.83508188 13.5
-0.49759954 -3.1887081 0.8343274 14
-0.58782047 5.3318758 0.95626986 11.5
-0.59970862 5.3376083 1.4265566 14.142858
-0.26917008 -0.85414839 -0.1989197 0
-0.2220078 -0.63204521 -0.19294415 0
-0.16268745 -3.088764 0.20369084 8.5
-0.15719834 -3.0816627 0.46556404 10.857142
-0.20693173 5.4445195 0.72319812 10.5
-0.19394997 -3.0910037 0.80492079 13.75
-0.16116935 5.4554935 0.94499117 11.666667
-0.23260163 5.4296856 1.4321462 14
0.17285109 -2.9614649 0.15117258 8.9230766
0.18342218 -2.93905 0.59662044 13.111111
0.14272 5.536521 0.69595146 10.333333
0.36404377 5.5988688 0.64794946 10
0.18040043 -2.9175508 0.80729336 15
0.18786541 5.5495691 0.94665337 11.666667
0.35209504 5.5925817 0.9593091 11.5
0.14166933 5.5386229 1.4492432 14
0.3379409 5.5952749 1.4729335 14
0.72312278 -0.20419987 -0.15660793 1
0.70637292 0.22470808 -0.16945308 0.40000001
0.7546466 0.45137659 -0.1587677 1.5
0.523718 -2.8901205 0.14010403 8.8000002
0.50140548 -2.8538077 0.50695229 12.25
0.61822057 5.6667104 0.67915183 10
0.55241072 -2.8577254 0.80683076 15
0.5795995 5.6578832 0.97072077 11.5
0.58728462 5.6606965 1.493983 14
1.0339015 -0.47636685 -0.14262536 3.3333333
0.9606511 -0.22084129 -0.13960288 2.625
0.94851661 0.21361807 -0.14967354 2.125
0.99363959 0.54420394 -0.16181096 2.3333333
1.0269756 -4.8639984 0.021739559 8
1.0179833 -4.86763 0.50756693 10.5
1.0841113 -4.7449117 0.46025038 10
1.1424917 5.3822932 0.66196328 10
0.90629268 5.7112508 0.6823222 10
0.95697892 -4.6471248 1.054112 13.666667
1.1720831 5.1576905 0.95028687 11.5
1.1118438 5.4234443 1.0523299 12
0.91561341 5.7265334 0.98167866 11.333333
0.90261614 -4.6375051 1.2186744 14.5
1.1614782 5.0720711 1.497672 15
1.0766424 5.3994727 1.5223984 14.4
0.86741447 5.7364793 1.5357963 14
0.79727751 5.7299924 1.694908 15
1.236993 -5.8635836 -0.15061039 7
1.4174879 -0.58408868 -0.11336016 4.6666665
1.3963532 -0.22664897 -0.11629159 4.3333335
1.3237025 0.20553742 -0.13411507 3.6666667
1.3716559 0.54959357 -0.13802366 3.8333333
1.4405313 0.96172935 -0.13845816 4.3333335
1.4601113 -5.8324933 -0.064398371 7
1.5029204 4.2220178 0.45403919 9
1.4131066 4.5536032 0.47650519 9
1.5568415 3.8015575 0.65003258 11
1.4569665 4.1449018 0.69437027 11
1.3667084 4.5837803 0.71505266 10.75
1.2566278 4.9896202 0.67775702 10.2
1.2174969 5.2033229 0.51995981 9
1.5477791 3.8366666 1.1418537 14.333333
1.4489902 4.2051444 1.1772386 13.8
1.3614644 4.6228209 1.0561771 12.666667
1.2651427 4.8988905 1.0481967 12.5
1.2101343 5.1972561 1.2365699 13
1.2654115 -5.8724532 1.3336145 14
1.3921244 4.2478037 1.3088703 15
1.3284712 4.5583878 1.355255 14.4
1.2299348 4.9860411 1.4717727 14.666667
1.9922745 -1.3718553 -0.096630342 6
1.7481097 -1.0322946 -0.10207872 6
1.8387218 -0.64886862 -0.091151163 5.3333335
1.7135085 -0.20367324 -0.082974277 5
1.8165706 0.13220146 -0.090873234 5
1.7919267 0.58129853 -0.11255561 4.6666665
1.8045006 0.93702155 -0.14411578 4.5999999
1.8375376 1.3738101 -0.13008764 5
1.9218644 2.6413705 0.3761943 9.5
1.8098086 3.0035033 0.41651407 9.6000004
1.7106365 3.4985511 0.40199971 9
1.6338444 3.7891872 0.42335168 9
1.8859124 2.5910058 0.63402367 12
1.790149 2.944859 0.66988832 12
1.6879398 3.385463 0.67702866 11.5
1.6146209 3.6294839 0.69194573 11.5
1.905364 2.6036732 0.96090299 14.666667
1.8087239 2.9825792 0.98428673 14.333333
1.7146952 3.3609869 1.0130402 14
1.6278715 3.7693679 1.0244864 13.6
2.3242028 -9.8631001 -0.26847696 7
2.3510506 -1.6752278 -0.088410728 6
2.3792849 -1.3110286 -0.069681287 6
2.0704474 -1.108279 -0.084740259 6
2.2362547 -0.50785333 -0.072578341 6
2.1637166 0.27696002 -0.092634581 5
2.0893278 0.60116982 -0.095456108 5
2.2739542 0.91726863 -0.12168998 5.5
2.3227024 1.4243035 -0.12724869 5
2.0979614 1.6184517 -0.12471051 5
2.1457949 -2.5023711 0.20995294 9
2.2600274 -2.3474801 0.23786715 9.1999998
2.2208138 2.498502 0.32067841 9.1999998
2.1441479 2.4945862 0.66938138 12.25
2.3200164 -9.9287271 0.82157177 10
2.2226446 2.522903 0.99385148 14.666667
2.3593023 -9.8675966 1.7657217 12
2.3460712 -9.8535223 1.9824377 13
2.2826838 -9.5217342 2.304163 14
2.6393778 -0.98796004 -0.060102057 6
2.6565473 0.6395812 -0.068221942 6
2.5452113 1.5865463 -0.12599789 5
2.5019219 1.9973176 -0.11889894 5
2.7455335 -3.2021337 0.13284144 8
2.5053339 -2.4863667 0.28063789 9.5
2.4622004 -1.0970502 0.11558706 8.5
2.63046 2.3153496 0.32448193 9.3999996
2.5416627 2.5516448 0.35726869 9.3999996
2.7506738 -10.75359 0.38951543 8
2.63271 -3.2951505 0.57945031 11.25
2.6868525 -3.1819794 0.62003005 11.333333
2.6882727 -2.5478439 0.5646674 11.5
2.6529357 -1.2451876 0.66084784 13
2.5629911 2.2857356 0.59424204 11.333333
2.459156 2.4852729 0.6677261 12
2.7437112 -10.667241 0.87037331 10
2.6933093 -3.3562779 0.96890742 14
2.7103009 -0.98672587 0.8830955 15
2.6054199 2.6319151 1.067073 14.4
2.7148485 -9.9361229 2.1052289 13
2.4895225 -9.4993744 2.3204052 14
2.8353603 -2.0867736 -0.070618927 6
2.8194222 -1.1942618 -0.043091197 7
2.8135629 -0.5189786 -0.047309723 6
2.9321837 -0.22697368 -0.036175117 6
3.0191648 1.0953041 -0.075885139 6
2.9046412 1.4028044 -0.15089937 5
2.8106575 1.7803175 -0.12326927 6
3.1477516 2.026381 -0.11984576 6
2.9023604 -3.3942342 0.1548968 8
3.0602484 -3.0213709 0.1337624 8
3.0009062 -2.0938511 0.16981786 8.1999998
3.0157702 -1.970265 0.11546675 7.6666665
2.9293771 -1.0016638 0.23484033 9.1999998
3.1131032 -13.455299 0.41143215 8
3.0076318 -3.8789418 0.52942282 10
3.0394371 -3.2559216 0.53425866 11
2.96665 -3.076263 0.65501767 11.5
3.1289501 -2.7521355 0.66787356 12
3.0029418 -2.2433522 0.51714146 10.833333
2.822355 -1.2939125 0.48478276 11
3.0040126 -0.89554435 0.74024802 13.5
2.8418922 -10.631321 0.75513744 9
2.9731979 -3.2744672 0.94684249 13
3.0619521 -0.97551918 0.93406802 14.75
2.8738849 2.7136757 0.937006 13
3.1218448 -11.926917 2.3478436 13
3.4433439 -13.292664 -0.19795193 7
3.4086535 -2.9326303 -0.076215632 7
3.5592027 0.099668436 -0.032520659 6
3.2330258 0.44187164 -0.057469528 6
3.2594295 1.5990891 -0.15272325 5
3.3853967 -6.9277902 0.088793211 7.75
3.5985727 -6.2020078 0.0074564014 7
3.2285984 -2.933578 0.074193314 7.5
3.2920346 -0.90386325 0.25988761 9
3.3752751 -7.1152792 0.44547239 9
3.4697521 -6.3487902 0.5766446 10
3.4597194 -6.0030432 0.57182044 10
3.3729296 -5.3434296 0.5602057 10
3.3434358 -2.2004485 0.6334005 11.5
3.3393419 -1.914161 0.4980706 10.333333
3.2869456 -1.0119141 0.65379661 12.2
3.210099 -7.050087 0.84952664 10.5
3.4182122 -2.3299265 0.82883489 13
3.2040668 -0.87775558 0.90591425 14.5
3.5722146 -0.80182362 0.89169574 14
3.3987784 -11.881989 2.3547366 13
3.7531636 -13.268434 -0.17939219 7
3.9593556 -6.0789499 -0.16697596 7
3.9474225 -5.2298636 -0.095694482 7
3.6453888 0.91596955 -0.037823658 6
3.6961 1.8409613 -0.15274163 6
3.6412911 -6.9901285 -0.044166375 7
3.6751053 -6.7689281 0.1636972 8
3.8119998 -5.0930557 0.16058335 7.75
3.6528094 -1.1393827 0.074939102 7
3.735147 -13.292173 0.40655732 8
3.7247086 -7.1983871 0.60163474 9
3.6933699 -5.3858585 0.39830643 9
3.7538419 -5.0712323 0.57901078 10
3.8667591 -2.9795806 0.40349442 9
3.955869 -1.8444263 0.56191766 10.5
3.6423898 -0.74371755 0.72770596 12.5
3.849602 -6.1166582 0.78246671 10
3.8327456 -0.77032048 0.93798083 14
3.6661308 -13.894472 2.3679478 12
3.8155994 -11.829813 2.3731251 13
3.9110632 -13.727441 3.2477903 14
4.0529552 -13.187907 -0.1593786 7
4.1960292 -9.0225182 -0.16390955 7
4.2092304 -5.069181 -0.079361223 7
4.057601 -2.4640806 -0.013619555 7
4.1523113 -2.3119075 -0.053297147 7
4.2026362 0.59130275 -0.033089403 6
4.3507452 -13.112469 -0.1390646 7
4.1363478 -6.1316023 0.030557787 7
4.3278661 -3.6973684 0.21732183 8
4.2971029 -3.4295819 0.23656069 8
4.1403375 -2.5586247 0.14431922 8
4.0881987 -2.2959363 0.13943931 7.75
4.051672 -1.9480093 0.1946829 8
4.1931367 -13.150181 0.40673193 8
4.00249 -1.9516964 0.79614329 12
3.9931731 -0.69966823 0.70092565 12
4.0497012 -14.423484 0.76947391 9
4.2693267 -14.307278 0.85303003 9
4.3900995 -8.5693512 0.89033258 10
4.1707325 -7.3744154 0.94620347 10.5
4.2460942 -7.1960382 1.0533379 11
3.9944856 -6.0431576 0.79287916 10
4.1326184 -3.4788826 0.93764716 12
4.2181549 -1.9063032 0.82870942 12
4.0582371 -0.58659881 1.1790701 15
4.1993852 -13.945799 2.3957369 12
4.2294168 -11.756421 2.3913236 13
4.0836053 -10.79666 2.7395852 14
4.199863 -13.651872 3.2670212 14
4.6729937 -10.17741 -0.32626644 6
4.4322796 -9.0078306 -0.28463823 6
4.7314844 -8.6020527 -0.11772323 7
4.6135464 -3.5071728 -0.11127619 6.3333335
4.5301824 1.719631 -0.041670192 6
4.6475244 -13.025004 -0.11814413 7
4.4130569 -3.6511617 0.0034378148 7
4.5630488 -3.5587499 0.1651409 8
4.5789719 -0.51573658 0.25711557 8.5
4.7336388 3.1303365 0.2919842 8
4.7011871 3.4082355 0.34961715 8.333333
4.6456747 3.7255027 0.39194325 8.333333
4.6511073 -13.003365 0.40856731 8
4.5161257 -8.5970421 0.40247843 8
4.6009703 -3.680145 0.46767175 9.5
4.7116976 -3.4266987 0.48894417 9.666667
4.6489315 -0.48051095 0.57681906 10.5
4.6967921 -0.40850574 0.83226794 12
4.6926527 3.0304863 0.6535666 9.666667
4.6762471 3.4410346 0.68022257 9.8000002
4.629952 3.6763914 0.67417973 9.75
4.5839872 4.0638928 0.9049713 11
4.7185717 -14.065772 0.87464225 9
4.5058961 -2.658015 0.92125916 12
4.6343012 -0.45969602 1.1728637 14
4.717329 2.9800675 1.0674679 11.75
4.7099748 3.4031959 1.0678352 11.5
4.6334615 3.7615547 1.0849329 11.666667
4.627049 -14.056234 1.4113578 10
4.4739442 -0.51925427 1.3054589 15
4.6785569 2.9745562 1.3979574 13.5
4.6407075 3.3699341 1.4543217 13.6
4.5462966 3.8114369 1.4887257 13.5
4.4714942 4.0838928 1.535728 13.5
4.750042 3.0699172 1.7990965 15
4.7356114 3.3785419 1.7851716 15
4.6437421 3.7934113 1.7868363 15
4.5613451 4.0631661 1.8431507 15
4.5398288 -13.743323 2.4957268 12
4.6213098 -11.604119 2.4002883 13
4.3821039 -13.657483 2.8553872 13
4.6226487 -13.488809 3.286335 14
5.0615454 -12.950803 -0.50904429 6
4.9511123 -8.6127911 -0.1774741 7
5.0931654 2.3867648 0.052719574 7
5.0319791 2.5780027 0.037107646 6.6666665
4.9422951 -12.937674 -0.096253239 7
5.0289259 -4.556839 0.28339028 8.5
4.8823004 -3.4441626 0.26934513 8
5.1163211 -0.33721867 0.39208633 9
5.1532464 1.8143711 0.27379051 8
5.0657644 2.1527855 0.34030166 8.1999998
4.964169 2.6386342 0.2892994 7.75
4.8770967 2.8715549 0.27839705 8
4.9540648 -12.897365 0.4118742 8
5.1417542 -4.5747533 0.44712031 9
4.8749194 -0.41876963 0.72371691 11
5.0146255 -0.36879587 0.58961439 10.333333
4.9595017 0.35518211 0.84435958 12
5.1454787 1.7999402 0.64424431 10
5.0699596 2.1691403 0.62905353 9.833333
4.9480724 2.5697138 0.64077687 9.75
4.798481 2.8191001 0.59456313 9.5
4.8185439 -13.56039 0.76890689 9
4.8290563 -0.46468943 1.0031328 12.5
4.959486 -0.36142433 1.0569463 13
4.8677545 0.30805314 1.0799166 13
4.9662876 0.4677543 0.86267632 12
5.1345229 1.8103166 1.0337046 11.8
5.0719209 2.1952825 1.0540125 12
4.9571476 2.5810256 1.071183 12
4.9425402 2.8365302 1.0757236 12
4.8785653 3.5309687 1.2372006 12
4.9268436 -13.945308 1.4304354 10
4.9110675 -0.35528588 1.3649031 14.5
5.0194778 0.076857977 1.3886148 14.5
5.1350145 1.7960788 1.3463622 13.5
5.053987 2.1889558 1.4856466 14.166667
4.907505 2.5928738 1.3872713 13.666667
4.8310099 2.8252919 1.3702564 13.5
5.0161781 2.568656 1.7257265 15
4.8799596 2.8341341 1.7645129 15
5.0327053 -13.785439 2.4138453 12
5.0390987 -11.503771 2.4206583 13
4.9875412 -13.496322 2.9096169 13
5.4753923 -4.7368994 -0.096142232 7
5.4669147 -0.23733458 0.04185174 7
5.4859066 0.66939259 -0.042912032 6.3333335
5.3819861 1.0191927 0.005755391 7
5.3055253 1.3035537 0.043670189 7
5.2705221 1.8126509 -0.016524652 6.5
5.3492174 -13.120512 -0.082493037 7
5.2426562 -4.5171604 0.26117444 8
5.5800109 -0.47696656 0.30716079 8
5.5564456 -0.14496288 0.2740415 8.1999998
5.5460224 0.16164923 0.27291805 8
5.4866924 0.61422819 0.25493938 7.8000002
5.4096003 1.0068842 0.23025566 8
5.3165817 1.385862 0.26582408 8.1428576
5.2379513 1.6941469 0.33344138 8.5
5.5951543 -13.599077 0.42246652 8
5.4722409 -9.8477716 0.42482084 8
5.4944215 -0.18987775 0.66302139 10.4
5.5480609 0.20434473 0.65046793 10.2
5.4820132 0.60573733 0.6537258 10
5.3806534 0.9776265 0.66666579 10
5.2927275 1.373333 0.73058969 10.5
5.2587008 1.7028927 0.64969122 10
5.402194 -11.140291 1.0425457 10
5.4935589 -0.21403067 1.0394902 12.4
5.5524764 0.11308365 0.98522139 11.666667
5.4881458 0.65570498 1.0816401 12.25
5.3821254 0.99370962 1.1326678 12.428572
5.3169374 1.3137515 1.183235 12.75
5.2280483 1.7118517 1.0048002 11.5
5.2706971 -13.871684 1.2743747 9.5
5.370172 -11.194363 1.3376522 10
5.5418692 -0.097718269 1.454628 14
5.5327625 0.098797552 1.4116403 13.666667
5.5022373 0.63846695 1.3772794 13.5
5.443264 0.95232338 1.430487 14
5.2985458 1.369813 1.3830208 13.8
5.2503505 1.8117667 1.6058627 15
5.1935248 2.1354587 1.5851465 15
5.5604749 0.26397246 1.6793114 15
5.4759169 0.55843663 1.7021104 15
5.3728414 1.3756422 1.6983485 15
5.2537503 1.7972422 1.761866 15
5.3199706 -6.9400468 2.3301134 15
5.4538345 -6.816195 2.3411653 15
5.3626194 -13.698208 2.4219546 12
5.4224267 -11.330565 2.4353883 13
5.3900375 -8.4018354 2.5519931 14
5.409245 -13.29337 3.0332081 13
5.6386213 -13.070228 -0.51070106 6
5.6299558 -4.5683322 -0.2513971 6
5.6726856 -0.0098488545 -0.03729964 7
5.6741257 0.38563547 0.0081117302 7
5.6759996 -13.079564 -0.060490131 7
5.6960979 -0.47667679 0.14097451 7
5.6117129 -0.16958973 0.25533351 8
5.6022286 0.22489327 0.19605048 7.5
5.729023 -13.050037 0.42339164 8
5.7011499 -0.089027993 0.69804889 10
5.6122952 0.1334379 0.77565539 11
5.6268344 0.52546924 0.71426886 10.5
5.7387853 -13.736638 1.0461497 9
5.7002535 -13.129155 0.79184031 9
5.806324 -11.025797 0.93198532 9
5.6055217 -5.3145533 1.1702707 11
5.696033 -0.12407907 1.0020576 12
5.6488085 0.19987254 0.96766764 11.5
5.7212801 -13.760208 1.1282254 9.666667
5.8747172 -11.000494 1.380133 10
5.6819062 -0.10166524 1.5004359 14
5.6529436 0.18392983 1.344112 13.5
5.6170034 0.53289729 1.4436105 14
5.8521218 -13.684704 1.4993681 10
5.6614485 0.40337539 1.727954 15
5.8600612 -10.99829 2.1250336 12
5.7035108 -13.617322 2.4323461 12
5.7847986 -11.11328 2.4447629 13
5.9364266 -13.142849 3.4040892 14
6.0552864 -5.0251908 -0.17358135 6
6.170042 -1.2628492 -0.1380347 6
6.2438254 -3.3894141 0.22409151 8
6.2705555 -2.2035656 0.22322902 8
6.0772195 -1.2916378 0.28281546 8
6.1313472 -1.1500403 0.25121555 8
6.0588284 -3.6832108 0.52154934 9
6.2637157 -2.1196048 0.54633796 9.5
6.3885407 -1.9963715 0.80445564 10
6.0562677 -1.2876137 0.6428228 10
6.2639327 -10.888826 0.96931994 9
6.2564487 -2.2007461 1.0121167 11.5
6.0238552 -1.3427856 0.95165235 11
6.1254859 -1.1705019 1.1788256 12
6.0518241 -2.8779409 1.5739061 14
6.1951218 -2.7553732 1.3482356 12.5
6.2385325 -2.1253707 1.2940899 12
6.142972 -1.1327683 1.3253875 13
6.0485172 -2.9119453 1.8478004 14.5
6.0163398 -1.3731788 1.7810242 15
5.9922915 -1.2210003 1.7821789 15
6.156848 -10.93402 2.1458459 12
6.0769868 -6.9451647 2.2352524 14
6.2067976 -13.483019 2.4526331 12
6.1800303 -10.954494 2.4692705 13
6.1361427 -9.5567303 2.5720222 14
6.1134939 -13.069867 3.2507744 13.5
6.6214976 -3.6120656 0.36033121 8
6.4256358 -2.1324928 0.11736543 7
6.7574725 -3.8543074 0.66098344 9
6.6049304 -3.556052 1.0953319 11
6.6908789 -10.798223 1.4612529 11
6.4149008 -3.3826351 1.3852651 12
6.7825775 -4.0557456 1.7259064 13
6.7395291 -3.8555412 1.8231739 13.5
6.444653 -10.836113 2.1640494 12
6.7493935 -10.769404 2.1893096 12
6.7380924 -3.8948567 2.2558153 15
6.4056416 -3.4207354 2.0924788 15
6.583199 -10.801601 2.5001271 13
6.4927192 -9.4222994 2.6120148 14
6.5621066 -12.922721 3.2873743 13.5
6.7497735 -12.741764 3.4626122 14
6.848711 -13.260239 -0.50885665 6
7.1651039 -13.14548 -0.4507429 6
6.93642 -4.5360231 0.58528066 9
7.1078296 -4.4932261 1.1291862 11
6.9516153 -10.695182 1.4859287 11
7.0733714 -5.1553116 1.3834391 12
7.1556172 -4.5881753 1.346925 12
6.986464 -4.0609531 1.3488597 12
6.9013896 -3.7785621 1.2519509 12
6.9611716 -6.1515574 1.934467 13
7.1209064 -5.2364526 1.8200092 13
6.9458957 -4.6760573 2.0019615 14
6.8482714 -4.2915678 1.8911436 13.666667
7.0431442 -10.676263 2.2129846 12
7.1256037 -5.2957435 2.1914818 14
7.026669 -4.966454 2.0311403 14
6.8887196 -4.4578485 2.2084877 15
6.8209457 -4.2059102 2.1802979 15
6.8759069 -10.727237 2.5283175 13
7.0758529 -5.4237342 2.5591626 15
7.0137014 -5.0421472 2.5162661 15
7.0272541 -4.8010244 2.5056114 15
6.8245668 -4.2798185 2.4135478 15
6.9751163 -9.9300022 3.0740824 14
6.8742948 -8.2291479 2.8226509 15
7.0756569 -7.9498825 2.830682 15
7.031455 -12.631322 3.4925396 14
7.5773892 -6.0082946 -0.25053832 6
7.3979015 -10.550745 1.3596652 10.5
7.5090017 -10.533709 1.5447538 11
7.5807309 -6.7678642 1.9718838 13
7.4201379 -6.317266 1.9211625 13
7.3164225 -5.9340158 1.8841196 13
7.2126875 -5.570262 1.8494862 13
7.3807759 -10.639306 2.2496967 12
7.3067708 -5.9548421 2.1425745 13
7.3248668 -7.6502075 2.5614197 14
7.5160079 -6.9962935 2.5337172 14
7.4936881 -6.5787811 2.5875819 14.333333
7.4187174 -6.3341894 2.5949903 14.5
7.3554034 -5.9220605 2.5183678 14.5
7.3028955 -7.703609 2.8516743 15
7.503696 -7.4342661 2.865927 15
7.5103045 -6.6979403 2.7899544 15
7.4039693 -12.711156 3.2029998 13
7.2742848 -12.451149 3.506268 14
7.8559918 -6.9663014 1.1738563 10
7.8605018 -6.9141388 1.4150778 11
7.5963044 -6.1203637 1.4147388 11
7.7780333 -7.613101 2.3520939 13
7.6724334 -7.1816506 2.01073 13
7.9184828 -8.1091299 2.4176586 13
7.880497 -8.0058508 2.7057216 14
7.7092237 -7.4295712 2.6209209 14
7.685657 -11.587337 3.0631552 13
7.7238979 -7.3225937 2.8449335 15
7.5947986 -7.0659027 2.8480411 15
8.1499348 -7.9264307 1.3003542 10
8.0019827 -7.4309092 1.1862047 10
8.2674704 -9.3498945 2.2544901 12
8.0860939 -8.7193146 2.1784413 12
8.0366907 -11.020448 2.3673584 12
8.1762991 -9.1701345 2.5584037 13
8.053894 -8.6319981 2.4876163 13
8.3582907 -10.579313 3.0791793 14
8.1471233 -9.0329199 2.8642642 14
8.0437412 -8.5349541 2.7922769 14
8.2958803 -11.296535 3.5244932 14
8.6026258 -11.610089 2.8767254 13
8.8167925 -12.216233 3.362093 14
