# .PCD v0.7 - Point Cloud Data file format
VERSION 0.7
FIELDS x y z intensity
SIZE 4 4 4 4
TYPE F F F F
COUNT 1 1 1 1
WIDTH 103
HEIGHT 1
VIEWPOINT 0 0 0 1 0 0 0
POINTS 103
DATA ascii
-0.44377491 -1.2774698 -0.23156703 4
-0.49722201 -0.90670258 -0.2490197 1.75
-0.48953158 -0.6514284 -0.24042158 0.5
-0.10080713 -2.8302996 -0.25027207 6
-0.055418767 -2.5637102 -0.24059696 6
-0.22166198 -2.271004 -0.23900883 5
-0.24629277 -1.7167279 -0.22237904 5
-0.15502456 -1.3653939 -0.21495993 3.8
-0.20249212 -0.97906774 -0.2236658 2
-0.24028867 -0.67036551 -0.22865206 0.2
0.00018378493 2.6609809 -0.18181092 4
-0.048910253 2.9686794 -0.17259128 4
0.28226337 -3.8228695 -0.29152256 6
0.29407573 -3.2724521 -0.26395321 6
0.30341986 -2.9262848 -0.25186667 6
0.31421933 -2.5374293 -0.23911527 5
0.22141834 -2.1404262 -0.22441803 5
0.20395541 -1.8097026 -0.21250497 5
0.23859334 -1.3585839 -0.20796593 3.6666667
0.19686912 -0.98188043 -0.21172892 2
0.20997551 -0.65425694 -0.19652614 0.33333334
0.3019211 0.70280707 -0.18332352 0
0.33123574 1.0246983 -0.17970392 1
0.24878949 1.4140065 -0.16866803 2.4000001
0.24278675 1.8010304 -0.16144985 3
0.21710676 2.1501558 -0.16328022 3.75
0.24732666 2.4954641 -0.1586124 4
0.35247684 3.0232439 -0.15709512 4
0.34705746 3.3069685 -0.15072764 4
0.34111705 3.6851835 -0.14574207 5
0.68909508 -3.015497 -0.18632744 6
0.6438511 -2.5419464 -0.18820854 6
0.60327929 -2.1447139 -0.18268447 5.5
0.64153218 -1.7568895 -0.17285477 5
0.62520778 -1.396118 -0.17449532 4.5
0.5701251 -1.0199791 -0.18269487 3.1428571
0.49188805 -0.58778191 -0.16958441 1.2
0.47229892 -0.3727304 -0.17275906 0
0.74167109 0.2168413 -0.16052772 0.33333334
0.65133363 0.57774031 -0.16823553 0.2857143
0.60342985 0.97946584 -0.16945542 1.2857143
0.63976204 1.3738761 -0.14684983 2.8
0.60913008 1.7611074 -0.13925564 3.5
0.66444641 2.1992054 -0.13351075 4
0.71229005 2.5849297 -0.12607743 4
0.75867707 2.9605663 -0.11826895 5
0.79852903 3.2830288 -0.11165063 5
1.1146606 5.5519099 -0.16377561 5
1.1876915 -3.3117514 -0.16822702 6
1.0919077 -2.9207652 -0.16372961 6
0.99290395 -2.5123873 -0.16180509 6
0.87252229 -2.0174301 -0.15843116 6
0.82555473 -1.8209138 -0.15929914 5
0.96182168 0.23987366 -0.1604771 1.125
1.0183054 0.63607246 -0.15737955 2
0.98728865 1.0055628 -0.14920691 2.5
1.0666635 1.4052908 -0.1311823 3.4000001
0.97287476 1.7746873 -0.13189325 3.8
0.96553713 2.156538 -0.12661837 4
1.0998579 2.6615109 -0.1144785 4.5
0.84419012 3.6584432 -0.10191073 5
1.0695117 5.517374 -0.051506314 5
1.3485926 0.24998005 -0.151115 2.8
1.4213146 0.5527401 -0.13878074 3
1.3997374 0.99200714 -0.12016265 3.5999999
1.3546968 1.358508 -0.11622535 4
1.4562597 1.8142711 -0.12236424 4
1.4189823 2.176317 -0.11769699 4
1.5004889 2.6336844 -0.11713565 4
1.2137412 3.0885687 -0.10501576 5
1.8762476 5.4218545 -0.16588156 5
1.710936 0.30168954 -0.12344873 4
1.7561759 0.65984583 -0.11555 4
1.8803428 1.0270649 -0.1036034 4
1.7118198 1.2979312 -0.10049079 4
1.7258929 1.7064648 -0.10575829 4
1.8245995 2.1760533 0.016089438 6
1.6731539 3.0471175 -0.10336318 5
1.7677647 3.3923566 0.048134446 6
1.8644221 2.0119777 0.19741713 7.5
1.7075315 2.4308732 0.21316664 8
1.7663291 3.5680895 0.26534584 7
2.1852443 0.24563585 -0.10853343 4.5
2.2404552 0.62627095 -0.099855572 4.5
2.38837 0.97514838 -0.0943572 5
2.2986715 1.4662277 0.025321985 6
2.2393792 1.8319294 -0.01951802 5.4000001
2.2309566 1.4590957 0.19623767 8
2.2798066 1.9519186 0.22602491 8
2.5932643 0.59190261 -0.087716512 5
2.7939932 0.98163879 -0.083147161 5
2.6479187 1.6997654 -0.074321359 5
2.828783 1.380897 -0.078625858 5
3.9422758 1.4468493 -0.056693371 5
4.3343577 0.53516638 -0.053912077 6
4.7719946 2.4451592 -0.18279956 5
4.5603952 0.56681758 -0.018871505 6
4.4483895 1.0937339 0.05486881 6.5
4.6027365 1.7304871 0.07929951 6.5
4.67698 2.4515481 0.13449904 6.5
4.5896358 1.154599 0.33091798 8
4.6226916 1.7708632 0.32240912 7.5
4.6753268 2.5045362 0.4221718 8
