# .PCD v0.7 - Point Cloud Data file format
VERSION 0.7
FIELDS x y z intensity
SIZE 4 4 4 4
TYPE F F F F
COUNT 1 1 1 1
WIDTH 141
HEIGHT 1
VIEWPOINT 0 0 0 1 0 0 0
POINTS 141
DATA ascii
-6.1290517 3.4952981 1.8766271 15
-5.3040218 2.2641463 0.5473482 10
-5.366622 2.3613372 1.4763527 15
-5.0642009 2.4647579 0.19421384 8.5
-5.1405911 4.1127977 0.93918139 12
-5.0801134 4.1682863 1.7674788 15
-4.9226375 4.1818886 1.1443115 13
-4.8765869 1.6187501 1.2736074 15
-4.9022388 4.1557794 1.5380123 14
-4.5931168 4.4567742 -0.028848138 7
-4.6080065 0.95074159 1.1477495 15
-4.3187513 4.6100559 1.0394899 12
-4.2454505 4.663784 1.1636925 13
-4.3370662 4.5925784 1.3887866 14
-4.2910223 4.6439228 1.6228588 15
-3.5951765 5.223393 1.143005 12
-2.9751432 -4.1427274 -0.052392539 7
-2.9887431 3.0390968 0.23858428 9
-2.645669 5.8003998 1.8961599 15
-2.3920329 3.4348955 0.24232049 9
-2.2855883 3.5497901 0.39365754 10
-2.2557027 5.3199377 1.0416917 12
-2.2682805 5.3304625 1.3312552 14
-2.0985405 -2.1789722 0.10306647 9
-2.0324686 5.4528341 0.72764385 11
-1.8586665 5.5329876 0.42945871 9
-1.8561174 5.5223551 1.2907894 13
-1.6131169 -3.3973422 0.0064640832 8
-1.6294848 4.0116057 0.45014992 10
-1.7932661 5.6281576 1.3942523 14
-1.5243549 5.7749162 0.65153378 10
-1.5125456 5.8138223 0.99496478 12
-1.3071668 5.9828758 0.84352326 11
-1.438038 6.1808238 1.4386353 13
-1.3502773 6.209661 1.5146061 14
-0.85818559 6.2700162 0.56940496 9
-0.68399113 7.0686917 1.0088931 11
-0.66171479 6.5700006 1.4921942 13
-0.49217275 -2.8060987 0.070355557 8
-0.52613729 -2.6725059 0.70631588 15
-0.58958572 -4.847611 0.80241394 12
-0.54817522 7.1354685 2.2323532 15
-0.35824502 -0.59485751 -0.22017461 0
-0.37044221 -4.8636293 -0.078073688 7
-0.37465438 -3.0362017 0.29999661 10
-0.38018683 -3.0034969 0.35052177 11
-0.33221984 -4.8649869 0.92979848 13
-0.38727835 6.8053975 1.3373353 12
-0.42623565 6.7476473 1.6081142 14
-0.055762645 -0.80321753 -0.21199325 0
-0.069230117 6.8157058 0.62967634 9
0.1453397 -3.6855402 0.26469472 9
0.1274482 -3.3823206 0.89203173 15
0.08039169 7.5847812 1.0554903 11
0.13016225 7.1257234 1.6224715 13
0.36034039 -4.0588098 0.7216391 12
0.16680171 7.2554579 1.7656235 14
0.52326578 -4.0343189 0.015305298 7
0.66297704 -0.081758022 -0.18307762 0
0.66532832 0.09254054 -0.18253486 0
0.64038986 0.31196177 -0.18985485 0
0.63612384 0.47728655 -0.18525317 0
0.70745713 0.61719126 -0.18541975 1
0.76803303 -3.9533317 0.36201435 10
0.61942708 -3.220876 0.72482449 13
0.95829213 -3.8941686 0.11706082 8
0.84368163 -3.9646511 0.27397361 9
0.84519088 5.7405205 0.53415453 9
0.87468594 -3.1503181 0.92014611 15
0.82292575 7.1498084 1.1324576 11
0.79756331 7.1808925 1.37994 12
0.81228703 7.1705389 1.6605145 13
1.0455503 -3.8283753 -0.028153939 7
1.0297978 0.05246792 -0.1688306 2
1.0447323 7.2493854 2.2547805 15
1.2832775 0.073917791 -0.16465569 3
1.2165824 -0.35904372 -0.1674881 3
1.2029696 -3.6579852 0.32565713 9
1.2669688 6.3936081 1.4027996 13
1.3909942 6.1629763 0.97271478 11
1.7696564 -0.41158098 0.32391945 11
1.7737927 0.23014043 0.59965378 15
1.8304532 -0.38104886 0.21215934 9.5
1.8345927 0.1404455 0.23860233 10
1.7983676 0.20965137 0.20925489 9
1.8226804 0.29237089 0.38759896 12
1.9782642 -3.1510363 0.61251748 12
1.8702261 -0.47705778 0.47773024 13.5
1.8913687 -0.2104647 0.56466913 15
1.8552654 0.11861663 0.4875831 13.5
1.8418794 0.32310736 0.49274114 14
1.8478111 5.8148236 0.82964987 10
1.8961232 5.7965679 0.95581114 11
2.0956671 -0.23423778 0.23714434 9.5
2.026403 -0.057755452 0.3821364 12
2.0077996 -0.13199027 0.531946 13.5
2.0341771 5.596221 1.4371386 13
1.9906893 5.6399617 1.8572627 15
2.2739472 0.61381453 0.55356038 13
2.3130567 5.1132498 1.0068647 11.5
2.3859417 0.64999032 0.52022022 12
2.3908427 5.0622506 0.62816733 10
2.6333394 5.1328592 0.54465187 9
2.7497694 4.9991245 0.90894419 11
2.7114272 5.0914021 1.3900499 13
2.7034779 5.1045861 1.7598039 15
2.9048367 4.7452197 0.41114837 8
2.8114583 4.908648 0.75465024 10
2.7655089 5.0006204 1.2223755 12
2.8241062 4.9158583 1.5106542 14
3.0086944 -2.3102813 0.17566822 8
3.0654318 -2.2706385 0.35303319 9
3.0367029 -2.4323566 0.58630347 11
3.1023088 -2.3591499 0.53020775 10
3.1617141 4.3529534 0.63680214 10
3.0134976 -2.4395647 0.69465274 12
3.015583 -2.4610407 1.0985097 14
2.9977083 -2.334867 1.0892589 15
3.136369 4.3621035 1.3919418 14
3.277329 -2.1166127 0.15088488 7.5
3.2340004 -2.1103158 0.66852504 11
3.3121917 -2.059083 0.79658103 12
3.3305271 4.0803485 0.8926633 11
3.3618939 -2.0297523 0.9754172 13
3.1696637 4.4037161 1.1441096 12
3.1974096 4.2615089 1.3614144 13
3.5055642 3.8423481 0.32791778 8
3.541311 -2.0523973 0.40667495 9.5
3.3593354 4.1194973 1.574622 15
3.6954937 -1.9858671 0.011290543 7
3.6749949 -2.0101502 1.2464935 15
3.5991933 -1.9809784 1.1360846 14
3.5712137 3.7321122 1.3596907 14
3.9771917 -1.7705699 0.20361562 7.5
3.9781117 -1.7725636 0.52775705 10
3.8524473 -1.8698125 0.78880125 12
3.9550173 3.4149334 0.98808634 12
4.1318226 2.9267044 0.22762534 7
4.021009 -1.6771376 0.66357976 11
4.0608206 3.0184145 1.1364961 13
4.0571799 3.0413332 1.5631418 15
