# .PCD v0.7 - Point Cloud Data file format
VERSION 0.7
FIELDS x y z intensity
SIZE 4 4 4 4
TYPE F F F F
COUNT 1 1 1 1
WIDTH 128
HEIGHT 1
VIEWPOINT 0 0 0 1 0 0 0
POINTS 128
DATA ascii
-0.2953791 -0.91377622 -0.20221859 167
-0.29269049 -0.91598743 -0.21424411 174
-0.13314196 -0.93548298 -0.20727594 185
-0.42173317 -0.8317306 -0.21330644 160
-0.39091247 -0.80241722 -0.21788009 171
-0.25344566 -0.86262321 -0.21039648 183.5
-0.06822221 -0.82035756 -0.20465256 201
-0.54883772 -0.7420975 -0.21799396 152.75
-0.34863463 -0.75648546 -0.2086619 177
-0.17250025 -0.75422305 -0.20594469 197
-0.011053738 -0.71900952 -0.20239459 199
-0.68219882 -0.64177638 -0.21758576 140
-0.45610687 -0.66961932 -0.21616775 172.5
-0.24957587 -0.6569404 -0.20890053 193.33333
-0.10485882 -0.66480684 -0.20466372 198
-0.027418802 -0.67711926 -0.20313175 197
0.041764334 -0.62307638 -0.19668506 193
-0.59854949 -0.5914951 -0.21284442 153
-0.53087014 -0.55243081 -0.21620519 171.5
-0.46478191 -0.51357925 -0.2163211 183
-0.35698164 -0.59047323 -0.20841242 192
-0.27238607 -0.52495021 -0.20876014 198.5
-0.13620782 -0.54081827 -0.20321321 194.33333
-0.013902538 -0.54129851 -0.19610973 190.83333
0.067795202 -0.55482936 -0.19373228 190.625
0.10704893 -0.50168306 -0.1852203 189
-0.41828743 -0.48505235 -0.21107273 190
-0.31942901 -0.42581502 -0.20620766 197.33333
-0.27752522 -0.40223333 -0.21093723 194
-0.1454515 -0.42374918 -0.19930165 191.5
-0.037958551 -0.43917084 -0.19558108 188.33333
0.048534259 -0.45603639 -0.18927994 187.33333
0.12504531 -0.47283354 -0.18940623 186.83333
-0.72464067 -0.33258295 -0.22249125 147.5
-0.64576119 -0.3083955 -0.21278089 156
-0.2170106 -0.36134663 -0.1873572 194.5
-0.12347995 -0.35044637 -0.17488942 190
-0.063060284 -0.35852468 -0.19479768 186.85715
0.069086611 -0.31708446 -0.19634546 180.33333
0.15765499 -0.36102718 -0.19414397 180
0.89160419 -0.29933617 -0.16371217 191
0.93410403 -0.32298458 -0.17149071 192.5
-0.47299427 -0.25150037 -0.15965199 163
-0.27699119 -0.19992644 -0.20439053 190.5
-0.14438447 -0.2336124 -0.18281987 187
-0.091921322 -0.27402231 -0.12611915 190
0.035699535 -0.2823731 -0.19661847 180.5
0.75274038 -0.21791509 -0.16301142 180.10001
0.85563326 -0.24063581 -0.16002674 188.3
0.94636327 -0.24250403 -0.17109214 191
-0.73965597 -0.18950476 -0.22077554 148
-0.66901714 -0.17793728 -0.21981306 161
-0.55691999 -0.15935364 -0.21535653 176
-0.44485205 -0.1408596 -0.21184976 197
-0.31069106 -0.11826514 -0.20187443 191
-0.23327394 -0.13211468 -0.19944513 188.55556
-0.17505771 -0.15277714 -0.16497095 169.41667
-0.048171818 -0.16319495 -0.20111769 180.375
0.082434028 -0.16750646 -0.10863341 150.5
0.1320425 -0.14494784 -0.13888142 131.60001
0.25721526 -0.18297748 -0.19407335 170
0.6599257 -0.14056031 -0.17890249 175.45454
0.76384181 -0.14335372 -0.16457731 177.83333
0.8539052 -0.15195332 -0.16005705 186.11111
0.95803773 -0.14263515 -0.16658255 191
-0.77187586 -0.049520459 -0.21875665 149
-0.56774861 -0.041331321 -0.21333088 179
-0.46821821 -0.037373126 -0.21128878 196
-0.32782084 -0.031490941 -0.2005858 193.75
-0.22814111 -0.027466509 -0.19672547 187.83333
-0.14546984 -0.02444097 -0.20163444 183.5
-0.071225628 -0.07938505 -0.20235895 181
0.68332708 -0.08704634 -0.17821871 175.66667
0.76985842 -0.040186446 -0.16612045 175.92857
0.85479963 -0.048929457 -0.16092546 183.71428
0.92495751 -0.049219482 -0.15813574 190
-0.73848641 0.091887727 -0.21914725 153.5
-0.60385072 0.080602206 -0.21663712 178
-0.56093699 0.076997787 -0.21046236 184
-0.4617542 0.068672575 -0.20835133 196
-0.3270568 0.057352982 -0.20030212 192.75
-0.22910704 0.049119532 -0.19762357 188
-0.097866237 0.038109239 -0.20157616 181
-0.068524621 0.09342242 -0.20099957 181
0.68731922 0.086898379 -0.17675868 175.33333
0.77568257 0.058140039 -0.16409804 174.15384
0.84993207 0.062268078 -0.16027805 182
0.94105643 0.045448791 -0.16128403 189.5
-0.5507887 0.19442454 -0.21243539 184
-0.31104252 0.14386253 -0.19827908 192.66667
-0.22611274 0.1569211 -0.18643057 183.8
-0.17740478 0.16548808 -0.1952918 187.16667
-0.04332808 0.16573827 -0.19749722 180
0.63552409 0.15961146 -0.17796218 175
0.76207495 0.1548357 -0.1641899 175
0.86900896 0.14916368 -0.16193885 183.22223
0.93876165 0.13863952 -0.16305012 185.66667
-0.73347026 0.23269673 -0.21760707 152
-0.65975398 0.21726052 -0.21563412 163
-0.22867818 0.21647392 -0.15002832 184.66667
-0.1475639 0.25871375 -0.1940937 187.83333
-0.026113847 0.22189291 -0.19601049 181
0.69796956 0.26490581 -0.16894647 178.66667
0.74037343 0.24443971 -0.16342686 178.60001
0.84364128 0.25143731 -0.16320936 187.10001
-0.25864062 0.31307477 -0.19825926 193.66667
-0.14308387 0.34290737 -0.18403484 190.66667
-0.088919453 0.30972287 -0.19509007 187.5
0.58815968 0.39190212 -0.17290625 182.66667
0.65949619 0.34535646 -0.16832139 183
0.75488096 0.35649943 -0.17019291 186.75
0.82589751 0.34401849 -0.16314395 190.66667
0.59824127 0.4155302 -0.1673414 185
0.65888977 0.45387053 -0.17334555 188
0.7463913 0.4253245 -0.16721353 190.5
-0.64823914 0.50382006 -0.21372993 158
-0.00094823149 -0.20807755 -0.070737928 184
-0.20869118 -0.16540027 -0.085966475 173.42857
-0.1891069 -0.16215827 -0.10592103 169
-0.015605867 -0.15236245 -0.032481287 160
0.053696536 -0.16289027 -0.059073463 137.25
0.040993936 0.19296341 -0.014421832 143
-0.27209178 0.21361746 -0.080016695 171.5
0.0012340243 0.22539829 -0.051324975 177
-0.015150692 -0.14541167 0.0070566558 154.60001
0.0056427587 -0.1331481 0.026358517 131
-0.011210581 0.2197887 0.02491672 142
0.007785935 0.20703198 0.02729054 134
