# .PCD v0.7 - Point Cloud Data file format
VERSION 0.7
FIELDS x y z intensity
SIZE 4 4 4 4
TYPE F F F F
COUNT 1 1 1 1
WIDTH 167
HEIGHT 1
VIEWPOINT 0 0 0 1 0 0 0
POINTS 167
DATA ascii
0.27277431 -0.91924661 -0.16500069 208.16667
0.38603091 -0.91419291 -0.12600289 208
0.40262741 -0.91117078 -0.17741676 209.5
0.27993363 -0.84782135 -0.16199972 187.5
0.40559965 -0.83852941 -0.19188495 173.75
0.51863343 -0.82502806 -0.18945993 172
0.29715002 -0.76695585 -0.18660678 177.5
0.30339342 -0.72490185 -0.19109623 181.66667
0.44393548 -0.72630537 -0.18813643 182.85715
0.50949925 -0.77135348 -0.18817876 176
0.61531508 -0.75538343 -0.19199832 175.5
0.35778219 -0.62023443 -0.17811736 188.22223
0.46754014 -0.66110617 -0.18698861 187.25
0.58510542 -0.66064245 -0.18791814 184.16667
0.67226821 -0.62908798 -0.18718545 182
0.73238856 -0.64762318 -0.18518917 179.5
0.34635577 -0.5373382 -0.17709757 185.28572
0.4735679 -0.56312656 -0.18183726 187.71428
0.54821265 -0.54657638 -0.18147072 187.83333
0.62374061 -0.52932966 -0.17899974 189
0.73647219 -0.55793184 -0.18670827 190.60001
0.82169652 -0.52239329 -0.18994682 190
0.36509743 -0.46173871 -0.19079666 180.25
0.45926541 -0.4660328 -0.1867113 182.33333
0.54683697 -0.43964556 -0.18177773 183.1579
0.65814376 -0.45396915 -0.17809722 187
0.74527746 -0.43521398 -0.18009016 189.16667
0.87371737 -0.44886643 -0.1922487 192.75
0.3703222 -0.37116954 -0.1910093 173.8
0.46620899 -0.34383029 -0.19142154 175.45
0.53911006 -0.33928457 -0.1915457 177.38461
0.64433658 -0.35409233 -0.18271758 182.38889
0.74541092 -0.34540153 -0.17922147 186.22223
0.83381188 -0.34180826 -0.18259664 190
0.91717267 -0.37479365 -0.19489208 189
0.36189973 -0.22849482 -0.20029721 168
0.55620867 -0.25988159 -0.19090004 174.47826
0.64494246 -0.25073752 -0.19079186 178.26315
0.74085152 -0.24062596 -0.18127905 182.875
0.84413463 -0.25415498 -0.18245123 188.57143
0.93804276 -0.23459704 -0.1910979 190.33333
0.39024231 -0.15132983 -0.19997165 160
0.59431416 -0.19250651 -0.19674149 173.66667
0.64859945 -0.14599508 -0.19069509 175.08
0.74889034 -0.15728858 -0.18616287 180.6842
0.85306567 -0.14232467 -0.17924038 186.30769
0.93876368 -0.13164246 -0.18494745 190.33333
-0.64817125 -0.069095358 -0.1819746 120
-0.53865182 -0.061761875 -0.18101735 134.5
-0.43250889 -0.054640703 -0.18225983 147.60001
-0.33707964 -0.048255835 -0.17443408 152
-0.24649407 -0.042181157 -0.17086232 148.75
-0.15849079 -0.036238033 -0.18426956 150.33333
-0.082125537 -0.031099526 -0.19613487 166.60001
0.13797158 -0.016826242 -0.19885018 140.5
0.66280705 -0.058213655 -0.19208391 174.31818
0.76387787 -0.067384966 -0.18739593 180.17647
0.84316421 -0.049970955 -0.17977589 185.5
0.93874407 -0.05951253 -0.18887009 189
-0.63965833 0.060122374 -0.18020283 120
-0.53232217 0.053747457 -0.17968468 134.75
-0.42623982 0.047507651 -0.18049651 149.39999
-0.32525 0.041114833 -0.16969696 151.66667
-0.24669622 0.036411915 -0.1680121 145.42857
-0.15374179 0.045778573 -0.18655206 149.57143
-0.075129665 0.05902762 -0.19551431 165.81818
0.15363823 0.046091687 -0.19850183 142
0.3429901 0.040586054 -0.18847625 151.5
0.6659984 0.0045791478 -0.19210985 174.25
0.75570637 0.0067075002 -0.18929657 179.81818
0.84955066 0.0087744547 -0.18165913 184.83333
0.9365896 0.01074215 -0.18630494 189.75
-0.63955724 0.19008395 -0.1814864 120.66666
-0.54210997 0.1717831 -0.17993754 130
-0.45549804 0.15570138 -0.1808683 143.75
-0.35904449 0.13759638 -0.17928921 150.39999
-0.23946714 0.16670966 -0.14887229 156.7619
-0.15658028 0.14230824 -0.17936906 146.39999
-0.060955379 0.14289191 -0.19699918 169.8
0.19393706 0.12148402 -0.19890538 145
0.24726292 0.15729849 -0.19872375 149.25
0.33029041 0.10448489 -0.19786476 149
-0.23243876 0.26635712 -0.16062008 153
-0.13701433 0.24020821 -0.17819986 146.45454
-0.050056942 0.26201099 -0.18332779 159.92308
0.031437006 0.27018839 -0.19802864 172.83333
0.17392142 0.25899619 -0.10533375 139
0.23732598 0.26749045 -0.16728017 139.66667
0.33116975 0.26161802 -0.19980803 131
0.40329647 0.28830546 -0.19124788 139
-0.42911875 0.37705475 -0.18436785 140.66667
-0.34589842 0.33841407 -0.18476672 149.60001
-0.25203285 0.34459171 -0.17777531 148.5
-0.1502216 0.33473894 -0.17126696 144
-0.047426246 0.34605491 -0.17285706 153
0.077402137 0.3373118 -0.17835133 165.44444
0.14815086 0.34751049 -0.18324828 171.5
0.24302717 0.35351858 -0.14646024 171
0.35183501 0.35410923 -0.19392553 161.28572
0.40770409 0.34545955 -0.1931846 158
-0.63352913 0.47204819 -0.18374433 114.33334
-0.53959817 0.4286882 -0.18585959 125
-0.4808034 0.40121505 -0.18510546 134
-0.30295253 0.43034703 -0.16530128 144
-0.27594605 0.41484845 -0.17291807 154.16667
-0.081222154 0.48277447 -0.13351704 137
0.046138011 0.46209615 -0.15255655 151
0.14034823 0.45782468 -0.1731229 172
0.24137285 0.47391754 -0.19014765 178.7
0.35098124 0.46980381 -0.19290532 177.25
0.41602007 0.48184812 -0.19155815 179.25
-0.14522623 0.56388307 -0.16720323 144
-0.02538275 0.57633132 -0.18032229 145
0.064790443 0.54321623 -0.17517889 152.33333
0.16223754 0.54685849 -0.18260305 163.63637
0.26569179 0.55170125 -0.18777831 172.33333
0.34454712 0.55450737 -0.19222155 174.33333
0.42154676 0.55699986 -0.19385104 174.8
-0.23286624 0.66503739 -0.18539339 154.25
-0.14111261 0.6477887 -0.1849947 142
-0.060679402 0.62499291 -0.17732719 142.66667
0.04414684 0.6510545 -0.18687721 144.83333
0.14495423 0.66256696 -0.1872374 148
0.24546708 0.6481337 -0.18913634 158.5
0.33874819 0.61847401 -0.18888476 169.33333
0.42575336 0.62039524 -0.19442986 169
-0.33201 0.77273536 -0.18696377 125.66666
-0.29615679 0.73603022 -0.19272268 133
-0.13031629 0.726556 -0.18346052 139.5
-0.016030282 0.76549697 -0.18522485 140.25
0.0094165467 0.71856022 -0.1882607 137
0.11429007 0.74697608 -0.18648025 138.5
0.22768757 0.7314719 -0.18943901 145.39999
0.33177289 0.74244195 -0.19573621 151
0.43262127 0.71573418 -0.19705914 155
-0.42504275 0.87262589 -0.18511121 113
-0.38227618 0.82673401 -0.18604377 117
-0.22157031 0.8590734 -0.1902514 136
-0.19389752 0.82339448 -0.19795275 163
-0.067776337 0.86773854 -0.18997414 134.33333
0.085821047 0.82478338 -0.18517216 139.33333
0.19606292 0.88584709 -0.19411172 138
0.20894982 0.81696939 -0.18823929 140.33333
0.32370451 0.83811331 -0.19276828 145
0.44017726 0.83170658 -0.19786614 144.5
-0.26078579 0.91331053 -0.1872931 120
-0.12708302 0.98199064 -0.1907104 156.5
-0.098559171 0.92642814 -0.18937296 130
0.04647712 0.93787432 -0.18956986 129.5
0.18366958 0.94142723 -0.19269104 133
0.31623176 0.93620223 -0.19222504 131
0.37469316 -0.90392524 -0.09178403 207
0.2436299 -0.84059423 -0.047946744 205.72728
0.35805717 -0.88673168 -0.041744336 207.22223
0.15068245 0.19807015 -0.03737643 120
0.27978015 0.19914372 -0.088571601 121
-0.2896592 0.20243602 -0.081421062 170.33333
-0.071064427 0.25726053 -0.044176791 140
0.17294791 0.21381484 -0.043228362 125.33334
0.2541706 0.21574008 -0.065269567 130.96875
0.30128664 0.21185178 -0.072756357 122
0.19905645 -0.8173517 0.097225823 201
0.21426839 -0.82728732 0.046938125 203.27272
0.32776499 -0.8638652 0.050009802 205.09091
0.031213531 0.23490691 0.021441463 129.5
0.418657 -0.90048152 0.15747702 204
0.30612677 -0.84026474 0.11509559 202.5
