# .PCD v0.7 - Point Cloud Data file format
VERSION 0.7
FIELDS x y z intensity
SIZE 4 4 4 4
TYPE F F F F
COUNT 1 1 1 1
WIDTH 45
HEIGHT 1
VIEWPOINT 0 0 0 1 0 0 0
POINTS 45
DATA ascii
-0.50318819 0.41216001 -0.18839484 0
-0.44109431 1.1687304 -0.18672399 3
-0.1476173 0.63390148 -0.1750592 0.2
-0.19442637 1.0004742 -0.18949023 1.7777778
-0.21636422 1.4145525 -0.18638219 3.4000001
-0.18934737 1.7920923 -0.19482262 4
-0.18960293 2.2120264 -0.20349665 4.3333335
-0.15394802 2.5363326 -0.20761132 5
0.33616337 -0.63125044 -0.18044229 0.33333334
0.27109143 0.68269241 -0.19392443 0.2
0.21811444 0.99431866 -0.19127925 1.8888888
0.1803735 1.4178859 -0.19060986 3.3333333
0.17519942 1.7148643 -0.1732447 4.3333335
0.64692318 -0.92844707 -0.18083048 2.375
0.62240821 -0.59246635 -0.18278767 1.1428572
0.65588313 -0.23936544 -0.19185153 0.22222222
0.73581362 0.0062028444 -0.1857489 0
0.42999631 0.65536106 -0.20074734 0.33333334
0.44877258 0.94154829 -0.20311528 1.5
0.47351408 1.3391834 -0.20257331 3
0.49325037 1.7782269 -0.17873208 4.5
0.53268403 2.3292615 -0.19391082 5
0.55035621 2.5772984 -0.20049928 5
0.60964435 3.2615216 -0.25109035 5
0.64682466 3.761884 -0.26908207 5
0.70379692 -0.97726846 0.059221476 8.166667
0.97310627 -1.0186092 -0.13170676 4.181818
0.97574055 -0.59979421 -0.18764764 2.25
0.9866401 -0.2158287 -0.1873443 1.75
1.014117 0.012588182 -0.20042257 1
0.97259229 -1.0689477 0.083868966 8.5
1.3916228 -1.2039241 -0.18445452 4
1.3667176 -1.0223715 -0.1494208 4.5
1.3722575 -0.58120853 -0.17967144 3.5999999
1.4054893 -0.19990897 -0.18884265 3
1.3669195 0.020021882 -0.19882587 2.5
1.2616595 -1.1309271 0.025947565 7.5
1.6842663 -1.2191346 -0.10116775 5.5
1.8097893 -0.97216511 -0.09047281 5.5999999
1.860302 -0.66669166 -0.13948499 4.6666665
1.9391463 -0.37292627 -0.11424255 5
1.623608 -1.2157233 0.071314991 8
1.8288928 -0.93479162 0.054333303 7.5
2.0483832 -0.26542395 -0.11931158 5.1999998
2.0454173 0.033928398 -0.19037537 4
