# .PCD v0.7 - Point Cloud Data file format
VERSION 0.7
FIELDS x y z intensity
SIZE 4 4 4 4
TYPE F F F F
COUNT 1 1 1 1
WIDTH 112
HEIGHT 1
VIEWPOINT 0 0 0 1 0 0 0
POINTS 112
DATA ascii
-5.2709775 7.2296944 2.3389845 15
-4.5019598 7.3446846 2.3403175 15
-4.2524066 4.1437359 0.96469086 12
-2.5056272 6.65312 2.0645821 15
-2.2408202 1.1100526 0.28327855 10.5
-2.2762494 1.1376657 0.46759769 12.5
-2.2464702 6.6880026 0.45288277 9
-2.3096271 6.7143283 0.68222117 10
-2.0948703 0.80264068 0.38475281 12
-2.0856726 0.84123439 0.54441154 14
-2.0399487 6.7569642 0.94537663 11
-2.0862305 6.7478614 1.7919006 14
-1.8946818 6.8884044 1.2918661 12
-1.7442628 6.9388604 0.41952613 9
-1.7059097 7.0622549 0.74841505 10
-1.7587683 6.9314737 1.5080757 13
-1.2125796 7.3567367 1.2850367 12
-1.3948989 7.2154965 1.7397243 14
-1.069294 -0.86841512 0.231396 12
-0.89726543 7.527987 0.83254427 10
-0.72112799 -1.5251006 0.18300265 10
-0.74687284 -1.4781466 0.33138582 13
-0.72147447 -1.4880971 0.45016673 15
-0.79863828 7.5617847 0.51178831 9
-0.54020941 -1.8020383 0.19258569 10
-0.54176742 -1.8119842 0.30267155 11.5
-0.51869524 -1.8077666 0.48637792 14
-0.23056537 -0.86305195 -0.20416588 1
-0.25188392 0.90540463 -0.24606444 0
-0.19513656 -0.81444877 -0.20637333 0
-0.0052841031 -1.5823292 -0.17128842 4
-0.14378673 -1.591498 0.31303811 13
-0.20162849 -1.6180944 0.47877559 15
-0.09220504 8.0262194 1.2306162 11
0.12843417 -0.67218518 -0.20228973 0
0.16027367 0.97461104 -0.23298964 0
0.075565822 1.0295367 -0.23763491 0.5
0.10144019 1.2342865 -0.24478239 2
0.14896959 -1.4092439 0.16883957 10
0.096061803 7.87322 0.58120108 9
0.18427861 8.1671324 0.94150329 10
0.30826536 0.74712402 -0.21337989 0
0.29164585 -1.4605585 -0.086298518 5.5
0.39818081 1.3459642 -0.12901862 4
0.33907777 -1.4812704 0.096750818 9
0.23393476 -1.3267072 0.17798489 11
0.21407565 8.2163792 1.3784186 12
0.28248072 8.009409 2.0844085 14
0.5564065 0.69001544 -0.20625673 0.33333334
0.53802085 0.94398785 -0.22293095 1
0.54714972 1.0055602 -0.22144024 2
0.41334587 1.2986233 -0.18928887 3
0.50988334 -1.1812763 0.19248581 11
0.42675367 8.3382998 1.6435748 13
0.66315192 0.27048537 -0.20909786 0
0.74223208 -0.8397277 -0.17216237 3
0.66842139 -1.3370974 0.18208839 10
0.7048229 -1.1123664 0.20662542 11
0.8991791 -1.2212174 -0.1365961 4
0.92461932 -0.54540479 -0.16417579 3
0.83346218 8.5107164 1.1131432 11
1.0473944 -1.1618556 -0.082313567 5
1.1514713 -0.84136134 0.28410798 13
1.1707592 -0.85388482 0.42470723 15
1.2995634 -0.97440779 0.075825468 8.5
1.9437373 -0.37625331 0.24523577 10
1.920294 -0.41478691 0.52956575 14
1.9715314 7.8068686 0.88698888 10
1.9183301 7.8772149 1.3239547 12
2.0491424 -0.30471694 0.36495775 12
2.0760913 -0.28423354 0.50746959 14
2.1254153 7.5440454 1.101496 11
2.357379 -0.15949066 0.12484632 8
2.4730844 -0.11008919 0.18461877 9
2.4613564 0.24310049 0.13956326 8.5
2.4964921 -0.053556636 0.30316472 10.5
2.489846 0.29091644 0.34068313 10.5
2.4924643 -0.087466791 0.50556982 13
2.5395002 0.0087466268 0.50102985 12
2.4435863 0.26172152 0.49006248 12.5
2.5358119 -0.065465301 0.63525379 14
2.5162711 0.068539508 0.74558902 15
2.4447079 0.2674233 0.66393095 14.5
2.4124558 6.9730611 0.68428284 10
2.4158235 6.9621253 1.2045993 12
2.3991706 6.9799604 1.5318525 13
2.500968 6.8483591 2.1623073 15
2.623939 6.6682854 1.768152 14
2.9781506 1.3422389 0.209214 9
2.9551687 1.363598 0.40393594 10
2.9058511 6.2623558 0.78734386 10
2.8250411 6.3630042 0.94982749 11
3.1194637 1.1045752 0.141661 8
3.1038086 1.6802477 0.18672998 8.5
3.1345997 1.0569084 0.31132853 9.5
3.0650761 1.7208812 0.43147099 10
3.0790219 4.6991835 0.71486944 10.5
3.0773411 5.9703102 1.0790526 12
3.2780061 0.70845234 0.22268133 9
3.209516 1.5864224 0.53921169 11
3.3241138 4.2617874 0.48838302 10
3.2026582 0.73322904 0.68739605 13
3.2500737 0.87125498 0.80660015 14
3.2358563 1.7116554 0.67291266 12
3.5291758 3.943871 0.66645318 11
3.7827213 3.5462379 0.15369147 8
3.7899358 3.8779657 0.91073745 12
3.9796362 3.5766072 1.3585219 14
4.382194 2.4790673 0.035065304 7
4.2071171 3.1339133 1.4505173 15
4.4637122 3.369909 0.94393063 12
4.5686164 2.5420556 1.5356929 15
