# .PCD v0.7 - Point Cloud Data file format
VERSION 0.7
FIELDS x y z intensity
SIZE 4 4 4 4
TYPE F F F F
COUNT 1 1 1 1
WIDTH 100
HEIGHT 1
VIEWPOINT 0 0 0 1 0 0 0
POINTS 100
DATA ascii
-0.11636069 -0.93208838 -0.19276693 125
-0.0022029532 -1.0001364 -0.18533215 132
0.023976924 -0.9366377 -0.19188158 136
0.15311332 -0.94429618 -0.18560122 136
0.28064695 -0.94224983 -0.18577819 136.66667
-0.23046112 -0.86018181 -0.19697212 127.5
-0.08535061 -0.87516689 -0.19433556 135
0.058570717 -0.84565693 -0.19054808 139.5
0.17774619 -0.84212691 -0.1851944 142
0.29156291 -0.83264351 -0.18276662 146.25
0.39938793 -0.83770412 -0.18164584 147.25
0.50355166 -0.81711102 -0.17198405 151.66667
-0.12446579 -0.71224928 -0.19691871 139.5
-0.029020611 -0.76953846 -0.19278084 141.66667
0.084642708 -0.77976626 -0.19331601 143
0.16564836 -0.7595095 -0.18958449 147.33333
0.2444575 -0.73902452 -0.18623497 152.39999
0.36296719 -0.72977883 -0.18525818 156.75
0.49059245 -0.72316539 -0.17783199 161.25
0.5764367 -0.76292521 -0.17435591 157
0.64531428 -0.75239331 -0.16887696 153.5
-0.21114463 -0.64556783 -0.19897857 145
-0.06463252 -0.62849551 -0.19623439 145
0.028783685 -0.66234058 -0.19353028 148
0.12765743 -0.66574264 -0.19035757 151.75
0.22420447 -0.65616232 -0.19033746 160
0.35949162 -0.6417616 -0.18636015 168.44444
0.48262382 -0.65937817 -0.18484066 164.75
0.5696829 -0.66185313 -0.17922561 167
0.65687323 -0.64080077 -0.17712416 168.16667
0.742414 -0.61396807 -0.16998306 165
-0.24600352 -0.53239745 -0.19826522 147
-0.14313187 -0.57210696 -0.19884689 149
-0.0023350888 -0.54131716 -0.19556439 156
0.063374974 -0.54001814 -0.19163425 159.66667
0.16998793 -0.55642998 -0.19145523 169.25
0.24914898 -0.55125344 -0.18848602 174
0.35642633 -0.55518389 -0.18806258 175.46666
0.46511015 -0.5538826 -0.18025978 172.625
0.55130386 -0.5414412 -0.17858455 176.55556
0.63716847 -0.53480679 -0.17278585 175.16667
0.75592196 -0.55175483 -0.17771624 169.25
0.80295414 -0.54821181 -0.16427138 167
-0.11825748 -0.42346194 -0.19156301 152
-0.056816019 -0.45865211 -0.19501851 154.83333
0.052168485 -0.44168371 -0.19569501 171.60001
0.16161604 -0.48507196 -0.19425021 177.5
0.26463288 -0.49121571 -0.1917844 178
0.36981243 -0.47965866 -0.19021171 179.5
0.45925966 -0.46079028 -0.18650234 176.75
0.53741437 -0.44438177 -0.17915288 175.42105
0.65121871 -0.44557357 -0.16996948 174.75
0.74359041 -0.43761382 -0.16733874 173.14285
0.84771079 -0.46812513 -0.16940746 168
-0.058733311 -0.37445554 -0.19620012 159.71428
0.016156483 -0.39891887 -0.19450085 170
0.37701797 -0.34951338 -0.19438003 158.26315
0.45356634 -0.33838674 -0.18808408 152.04347
0.55474138 -0.34497929 -0.18331718 156.18182
0.64262033 -0.34677923 -0.16792831 165.64999
0.73706466 -0.36091602 -0.16067487 171.16667
0.46650356 -0.27927735 -0.18979317 146.60001
0.55685812 -0.25353625 -0.18332244 149.47058
0.6377126 -0.26431993 -0.17053257 150.46666
0.17211176 -0.17812796 -0.184239 134
0.23431259 -0.11939477 -0.15373649 123.30769
0.57529187 -0.19218312 -0.19328301 157
0.58903342 0.19848117 -0.19546349 174
0.62252367 0.1801769 -0.19275232 175.28572
0.56292033 0.26137918 -0.19369316 175.88889
0.63988501 0.24601462 -0.19065687 178.38461
0.72171003 0.25923625 -0.18071158 183.33333
0.47420895 0.33605903 -0.19702642 176.60001
0.54038107 0.3386068 -0.19548963 178.5
0.64331168 0.35322219 -0.1832018 183
0.75761914 0.34420574 -0.18383016 186.72728
0.83371866 0.34547246 -0.1802929 190.8
0.9051342 0.39728513 -0.19497226 194
0.16027534 0.48589692 -0.19841342 185
0.26649305 0.49195692 -0.19892631 184
0.36977115 0.4875077 -0.1949714 184.39999
0.45675451 0.47570559 -0.19018668 184.66667
0.54776549 0.44666964 -0.18829891 184.46666
0.65327132 0.45148307 -0.18542884 187.375
0.73112893 0.42698553 -0.18397225 189.125
0.84822226 0.4569608 -0.18802306 194.66667
0.18861708 0.51071155 -0.19995978 187
0.26116046 0.51469445 -0.19934897 185
0.36719972 0.52751023 -0.19397092 185.85715
0.47114533 0.56378359 -0.1932209 188.33333
0.54445404 0.5481869 -0.19278461 189.16667
0.62574774 0.52496499 -0.1902476 189.57143
0.74479836 0.54630494 -0.19599637 193.33333
0.81427425 0.54542434 -0.18858071 193
0.37887841 0.62002695 -0.19625889 189.75
0.47678891 0.60378671 -0.19129954 191
0.56412756 0.61090177 -0.19781563 189
0.67023391 0.65018541 -0.19446915 192.5
0.74989831 0.61095744 -0.19028312 194.5
0.59049529 0.702178 -0.19678342 189
