# .PCD v0.7 - Point Cloud Data file format
VERSION 0.7
FIELDS x y z intensity
SIZE 4 4 4 4
TYPE F F F F
COUNT 1 1 1 1
WIDTH 23
HEIGHT 1
VIEWPOINT 0 0 0 1 0 0 0
POINTS 23
DATA ascii
-0.32068053 1.0076115 -0.19306843 2
-0.018863054 0.78354114 -0.20679812 0
0.12341847 -0.72751516 -0.22366041 0
0.27553269 -1.2994398 -0.23860532 2
0.23408423 -0.68666226 -0.21167123 0
0.32748449 0.73938447 -0.20588437 0
0.20530756 0.82991159 -0.20459238 0
0.29521805 1.0834103 -0.19669954 2
0.43655223 -1.096123 -0.22596738 1.5
0.55698305 -0.95184147 -0.21674061 1
0.4185054 -0.74024332 -0.20995775 0
0.50459504 -0.49806708 -0.20447642 0
0.46938416 0.69391841 -0.20592882 0
0.42997965 0.84759068 -0.20199284 1
0.59926301 1.2053843 -0.17562233 3
0.7327342 -1.0850382 -0.2225794 2
0.60267788 -0.68027472 -0.20996553 1
0.61406004 -0.31292313 -0.20761664 0
0.99570233 -0.23973955 -0.20314044 1
1.1553905 -0.92553341 -0.19770509 3
1.2290456 -1.4437604 0.015695911 7
1.5442978 -1.4335421 -0.096168652 6
1.8669957 -1.4582018 0.062814452 8
