# .PCD v0.7 - Point Cloud Data file format
VERSION 0.7
FIELDS x y z intensity
SIZE 4 4 4 4
TYPE F F F F
COUNT 1 1 1 1
WIDTH 119
HEIGHT 1
VIEWPOINT 0 0 0 1 0 0 0
POINTS 119
DATA ascii
-0.60061222 -0.8030917 -0.0041867248 127
-0.59891129 -0.80743879 -0.016461987 126
-0.63356137 -0.65789139 -0.059184831 111.25
-0.089660875 -0.66234267 -0.089934506 177
-0.33035615 -0.61358666 -0.098647535 165
-0.24563457 -0.54538888 -0.10970846 182.5
-0.13915907 -0.57278299 -0.10384476 185
-0.014901043 -0.56200701 -0.1028813 185.75
0.064493999 -0.57090062 -0.10553505 187.42857
-0.34590983 -0.48975876 -0.11403072 174
-0.13844803 -0.45729038 -0.11987727 188.33333
-0.04300905 -0.47188836 -0.11497457 186.66667
0.04209245 -0.47226384 -0.11633375 184.25
0.11809844 -0.49452338 -0.10994404 184.2
-0.75376636 -0.41337761 -0.13124698 113
-0.63572317 -0.37389183 -0.1360119 129
-0.21024886 -0.4039965 -0.12406067 189
-0.14711326 -0.36453193 -0.1298233 186
-0.072341658 -0.3677808 -0.13169868 184.39999
0.05212684 -0.35790324 -0.13958058 178.5
0.15107845 -0.38270634 -0.13620159 177.14285
-0.74994856 -0.27599162 -0.15331712 117.5
-0.67974025 -0.26182491 -0.15798444 125
-0.55435932 -0.22738983 -0.13264129 132
-0.45889255 -0.31473342 -0.14307053 163.5
-0.35689843 -0.28145891 -0.14983313 181
-0.25630826 -0.24657413 -0.14983897 186.5
-0.025430417 -0.25861266 -0.15294634 178.375
0.027660035 -0.30231404 -0.14936006 177.5
0.7933985 -0.22909705 -0.12592818 159.5
0.84957141 -0.25615492 -0.12592618 163.39999
0.95005929 -0.27247959 -0.13715801 162.39999
-0.14826457 -0.15808262 -0.12070862 175.85715
-0.061864585 -0.16977528 -0.16402064 177.46153
0.059152048 -0.17861418 -0.13653 143.06667
0.18072574 -0.13221826 -0.17675719 164
0.65646774 -0.15528329 -0.158269 148.45454
0.7407921 -0.17522223 -0.14018625 148.95238
0.8515895 -0.16521583 -0.14224976 158.81818
0.94701713 -0.16954747 -0.15371095 160.60001
-0.54047787 -0.12155223 -0.17577472 155
-0.44122484 -0.11316412 -0.18034203 171.75
-0.33649114 -0.10240185 -0.17696297 184.66667
-0.23661134 -0.091863625 -0.17255384 184.66667
-0.15144755 -0.086114943 -0.18265367 180.5
-0.084052138 -0.080301054 -0.18528682 178
0.12313918 -0.091644652 -0.18700036 163
0.65092224 -0.090352923 -0.17677929 149.97144
0.74934179 -0.091549069 -0.16096893 145.32001
0.84707105 -0.077710599 -0.15850879 154.83333
0.95465606 -0.090621166 -0.16940981 160
-0.74435741 -0.0081933206 -0.19885273 121
-0.67010355 -0.010046615 -0.1981753 129
-0.53242224 -0.013344735 -0.19616576 155.25
-0.43890038 -0.014968852 -0.19163702 169.33333
-0.33083013 0.013948021 -0.19066229 187.5
-0.24228083 0.017641915 -0.19100136 184.625
-0.15772358 0.018824406 -0.20104386 180.88889
-0.085494265 0.0024524943 -0.1976366 177.5
0.14513004 0.024070002 -0.20395632 158.72223
0.65219498 0.011768905 -0.19655323 150.63414
0.7450459 0.01580549 -0.18286777 146.59459
0.85391605 0.0012792777 -0.17211436 154.07143
0.96343458 0.010389035 -0.18673116 160.33333
-0.72874236 0.12175804 -0.2169455 121
-0.65711093 0.11150868 -0.21553014 131
-0.52875686 0.093717471 -0.20937851 151.66667
-0.44837981 0.082026206 -0.20889783 171.5
-0.3485257 0.12582637 -0.21365359 188.33333
-0.26248693 0.13368306 -0.21226507 186.28572
-0.17163271 0.10920251 -0.2131197 182.25
-0.066530235 0.10596938 -0.21544321 177.18182
0.16554947 0.079088636 -0.2142076 156
0.59436649 0.14850508 -0.22265835 153.75
0.64268762 0.11559321 -0.21293063 149.80556
0.73791641 0.12193301 -0.19936027 150.375
0.84718907 0.11709482 -0.19506383 157.33333
0.94045562 0.10871429 -0.20524561 160.33333
-0.70223755 0.24772742 -0.24314868 133
-0.62055951 0.22678018 -0.23561263 138
-0.52535295 0.20211014 -0.22880572 152.66667
-0.44532144 0.18084292 -0.22726071 171.75
-0.38376775 0.2598165 -0.24203447 183
-0.25141224 0.20931175 -0.22555797 187.71428
-0.14836282 0.20915653 -0.22344321 184.2
-0.025531402 0.18015878 -0.22676873 177.16667
0.55481368 0.21284582 -0.22878444 147.96552
0.65544218 0.2159932 -0.22497915 152.57143
0.74416667 0.21356873 -0.21128894 160.57143
0.83872837 0.21698612 -0.21520063 164.71428
0.9467867 0.21766324 -0.22880425 163.33333
-0.55961823 0.32764688 -0.25561625 145.5
-0.46369007 0.29078215 -0.24670143 163.33333
-0.35431889 0.3266632 -0.24973516 180
-0.23058701 0.28932676 -0.23728171 188.60001
-0.18539692 0.26548275 -0.23040663 187
0.56800032 0.31317183 -0.24367376 160.46666
0.63926864 0.30561614 -0.23410416 164.63158
0.74813145 0.31396735 -0.2354904 170.60001
0.84471512 0.30069718 -0.23252262 168.39999
0.9178831 0.33048975 -0.24655981 166
-0.53533971 0.45065677 -0.272286 139
-0.42976797 0.39462531 -0.26325837 165.33333
-0.39508191 0.37598631 -0.26495191 175
0.59037554 0.37382707 -0.23983197 172.5
0.65429693 0.4220002 -0.25902137 177
0.74726373 0.39496213 -0.253748 175
0.84778798 0.41759214 -0.26512063 167.22223
-0.60480839 0.48742121 -0.28029376 142
0.67421746 0.52390152 -0.279129 171.83333
0.76044333 0.50787967 -0.2793656 169
0.83721203 0.47342604 -0.26745707 166
0.69713771 0.57271767 -0.28133553 167
0.71808207 0.60977763 -0.29167888 159
-0.22370636 -0.13515857 -0.060557824 167.14285
-0.19158691 -0.13232881 -0.076104902 178.5
-0.0089149084 -0.15958466 0.011254932 162.875
0.019245809 -0.16034284 -0.029851165 152.22223
-0.017019983 -0.15332697 0.04001727 158.5
