# .PCD v0.7 - Point Cloud Data file format
VERSION 0.7
FIELDS x y z intensity
SIZE 4 4 4 4
TYPE F F F F
COUNT 1 1 1 1
WIDTH 147
HEIGHT 1
VIEWPOINT 0 0 0 1 0 0 0
POINTS 147
DATA ascii
-0.25976163 -0.96932453 -0.068661943 126
-0.11064711 -0.9780004 -0.050532009 122
-0.090087488 -0.94052285 -0.059596635 124
0.040338997 -0.95357949 -0.057365403 125
0.16734044 -0.9504078 -0.061870579 127
0.28814071 -0.95115113 -0.060039759 127
-0.21651785 -0.90293664 -0.071717389 127
-0.17116785 -0.83747238 -0.082509913 134
-0.059595358 -0.88545108 -0.073773548 131
0.074953407 -0.85622382 -0.067344032 131.5
0.18841796 -0.85402298 -0.070872553 134.33333
0.29540968 -0.86156029 -0.066154122 132
0.34963849 -0.83301508 -0.068566464 138.5
0.42570072 -0.84085858 -0.06584733 139.25
0.50136137 -0.84075123 -0.054763176 138
-0.11615023 -0.7545867 -0.089284122 140
-0.032614157 -0.77247429 -0.08407107 136.5
0.051559813 -0.77821529 -0.082502112 137.75
0.13445579 -0.76795417 -0.081345923 139.5
0.21217558 -0.75123191 -0.084812306 146
0.34740451 -0.74335831 -0.083168037 152.88889
0.47374219 -0.77622384 -0.072177969 148.39999
0.59323806 -0.77817023 -0.072945699 149.25
0.68034774 -0.73425066 -0.081969343 149
-0.046160642 -0.65231967 -0.10369513 143.66667
0.050808955 -0.66711944 -0.098017804 143.5
0.14216541 -0.67495465 -0.094793193 151.83333
0.23306958 -0.66043276 -0.09677919 159
0.34849042 -0.6538409 -0.095023356 165.3
0.48089734 -0.6894173 -0.087175973 162.2
0.56447816 -0.67578709 -0.089128464 161.16667
0.64892673 -0.660487 -0.091837868 158.16667
0.73627311 -0.64500219 -0.087053157 156.66667
-0.0060887532 -0.59201175 -0.10873473 144
0.042783704 -0.55265683 -0.1092229 151.5
0.15264699 -0.56343192 -0.10844392 165.84616
0.25554046 -0.56700617 -0.11232369 175.625
0.36444083 -0.56563222 -0.10886121 175.3125
0.46188793 -0.5733754 -0.09827771 174.125
0.5579862 -0.55580729 -0.1021736 173.2
0.64634925 -0.56282794 -0.098830231 169.5
0.75206387 -0.57164341 -0.10083678 163.625
0.80629039 -0.59535766 -0.090419278 157
0.073753282 -0.47616169 -0.12656926 168.25
0.13857552 -0.49832326 -0.12396901 174.71428
0.23768091 -0.49469292 -0.12940815 178.16667
0.37522784 -0.48290661 -0.13099606 177.86667
0.45419136 -0.47348601 -0.12642667 174.61539
0.53097826 -0.46428996 -0.11689461 172.95
0.64647824 -0.46620369 -0.1066212 171.8
0.73352045 -0.45968378 -0.10927128 171.5
0.85475075 -0.46871716 -0.12009563 163.66667
0.18072847 -0.39406726 -0.14913169 176
0.26536787 -0.40071249 -0.14617181 173.90909
0.3615475 -0.37062919 -0.14478031 160.19354
0.45227507 -0.36014283 -0.13506366 153.16
0.54868168 -0.36608574 -0.13011268 155.26086
0.64496076 -0.36353064 -0.11923057 163.75
0.75413948 -0.36407948 -0.11891846 166.2
0.84739172 -0.35044375 -0.12604757 165
0.91794938 -0.36883479 -0.13634446 164
0.39130977 -0.31382978 -0.15560529 141.66667
0.46759713 -0.30037108 -0.14928123 142.26315
0.55610085 -0.26895013 -0.14569597 146.48781
0.65257746 -0.26380435 -0.1376922 147.59259
0.73520029 -0.26827261 -0.12916039 155.91667
0.81524265 -0.30386409 -0.12716232 164.66667
0.45474195 -0.15238699 -0.17980182 153.21739
0.58178443 -0.19891535 -0.16705504 151
0.63276178 -0.19347456 -0.15769847 147.47368
0.46286872 -0.10770531 -0.18581685 161.39999
0.50593376 -0.10470113 -0.18598945 154
0.092828877 0.17193499 -0.16182382 151
0.17836237 0.13262308 -0.21023884 159.26315
0.24711928 0.14122178 -0.17551392 145.14285
0.322483 0.12349185 -0.17052563 129.2
0.053840086 0.20142578 -0.22258566 171
0.16197941 0.20665473 -0.20542571 164
0.25279552 0.20481075 -0.21632273 156.83333
0.33423781 0.19230756 -0.22351125 166.7
0.55089748 0.24274942 -0.22408228 175.1579
0.60108095 0.26499996 -0.22761971 179
-0.14198017 0.33488584 -0.14716294 155
0.082652569 0.30943477 -0.23179872 177.625
0.15185253 0.33016199 -0.2376795 176.6875
0.26501042 0.34877348 -0.23836386 174.92308
0.3651444 0.34306926 -0.2372521 173.9375
0.45638373 0.32073072 -0.23370014 175.1579
0.55164564 0.31408983 -0.23250039 178.21428
0.64186448 0.33382189 -0.22648722 183
-0.33252177 0.47122189 -0.24200387 167
-0.28157899 0.4349781 -0.22209227 162
-0.035881236 0.4425489 -0.24492142 187
0.045067247 0.41563129 -0.24309888 184.15384
0.15642011 0.45528832 -0.2461224 184
0.25064811 0.42392859 -0.25000632 180.3
0.36536419 0.43624091 -0.24672963 181.25
0.4491294 0.44915372 -0.24298398 183.5
0.53318357 0.41595706 -0.23861504 183.66667
0.64712566 0.41934636 -0.2373745 186.90909
0.71594268 0.42470092 -0.2356292 189.2
-0.42821011 0.53865254 -0.26241142 151.5
-0.35980389 0.49042684 -0.24726017 166
-0.1444986 0.56672871 -0.27089176 186
-0.043332126 0.51611865 -0.25861922 187
0.052161627 0.52150691 -0.25947845 188.125
0.15999046 0.51861513 -0.25454736 186.55556
0.2518197 0.51128352 -0.25014931 186.14285
0.35200489 0.51485682 -0.24805517 185.76923
0.46006003 0.53216171 -0.24968293 187.33333
0.55627578 0.51200485 -0.25172937 188.27272
0.64462692 0.51282471 -0.24901921 190.5
0.76485193 0.52422631 -0.25964957 191.57143
-0.55784762 0.62957108 -0.27888426 129.66667
-0.48914 0.58141208 -0.27083254 141
-0.2203877 0.65209472 -0.27983662 171
-0.15213433 0.57463241 -0.26728326 184
-0.060343824 0.61890531 -0.27865234 179
0.044413276 0.62203252 -0.27777663 185.5
0.15069462 0.58821195 -0.2626279 190
0.23258042 0.59898186 -0.2682761 189.75
0.3557868 0.59678817 -0.25998399 189.33333
0.47142491 0.60619104 -0.26124004 190.33333
0.56727147 0.63817078 -0.2741614 187.5
0.6518963 0.61969769 -0.2727063 185.60001
0.73076993 0.58608288 -0.26443878 188.66667
0.059039183 0.70151806 -0.28825352 178
0.11362708 0.6926589 -0.28489515 181.5
0.20531909 0.72032559 -0.29049543 181.5
0.36493844 0.70978183 -0.28739798 186.33333
0.48725849 0.69945663 -0.28106856 188.39999
0.58995056 0.72061932 -0.28361401 179.33333
0.68498009 0.69547403 -0.28695965 177
-0.35534123 0.80486506 -0.30215216 139
0.076041229 0.79385257 -0.29856989 172
0.18030281 0.82598197 -0.304277 178
0.2904233 0.82484132 -0.30204982 173.5
0.39767757 0.82451439 -0.30022383 178
0.50358826 0.80377048 -0.29834023 176.66667
0.14801082 0.16334479 -0.088138938 127.93182
0.218069 0.15048669 -0.11424484 126.76923
-0.033110369 0.25675395 -0.086834669 154
0.067040466 0.21174653 -0.087195136 150.5
0.10458462 0.20811643 -0.095756315 154.5
0.12384347 0.18210971 0.0038956059 122.85714
0.1282599 0.21924445 0.028477205 137.66667
0.060497079 0.30104104 -0.01612447 143
