# .PCD v0.7 - Point Cloud Data file format
VERSION 0.7
FIELDS x y z intensity
SIZE 4 4 4 4
TYPE F F F F
COUNT 1 1 1 1
WIDTH 95
HEIGHT 1
VIEWPOINT 0 0 0 1 0 0 0
POINTS 95
DATA ascii
-1.7351385 -0.80026579 0.34886482 10.5
-1.7595576 -0.40081432 0.37165073 12
-1.7746298 -0.31385982 0.36905485 12
-1.7365019 3.0461268 -0.11013293 10
-1.766971 -0.62337643 0.62166107 15
-1.7241288 -0.33604649 0.57961214 15
-1.7538667 -0.33101013 0.47143039 14
-1.7494292 1.8671862 0.29502547 13
-1.7464073 2.3409765 0.11151361 11
-1.7416557 2.5484495 0.13581191 12
-1.7310874 3.1134565 0.1027089 11.5
-1.716291 3.9927783 -0.13904957 10
-1.7369117 2.0038285 0.44063196 15
-1.7460413 2.3107853 0.38009945 14
-1.7171854 2.7053142 0.29308757 13
-1.6895732 4.0814233 0.14597498 11.5
-1.7254193 2.5142407 0.45851785 15
-1.722827 3.1024144 0.40697706 14
-1.7107782 4.1118369 0.42092255 13
-1.6915917 4.1454196 0.53588706 14.5
-1.4799625 -0.49266645 0.36723897 12.5
-1.311169 4.0419369 -0.20593688 9
-1.0808064 -0.56509846 0.39894828 14
-0.83032739 -0.58149666 0.34618786 14
-0.74680531 -0.85233587 0.43726268 14.5
-0.7053358 -0.60914558 0.35999542 15
-0.42566496 0.5965538 -0.31638306 0
-0.56701201 -2.3693044 0.4718951 9
-0.56542701 -1.7769673 0.62481052 12.5
-0.57876885 -1.4795469 0.45091987 11
-0.57707709 -1.2964814 0.5086534 13
-0.56550962 -0.87016529 0.39169088 14
-0.066690311 0.72368699 -0.33159992 0
-0.023055691 -2.3294857 0.88159722 13
0.090638511 -2.3122704 0.99958998 15
0.52650374 4.0300293 -0.066144451 10
0.67197388 -0.18557125 -0.18452571 0
0.91616929 0.29708585 -0.26433164 1
0.81064349 -0.66968167 -0.10491159 2
0.81055897 -2.3110609 1.0323586 15
1.1155255 0.032484174 -0.222791 2
1.1908849 4.1277657 0.55585325 15
1.262491 -2.3419642 1.0720392 14
1.4645151 -2.416888 0.48128605 8.5
1.4890198 -2.3187587 0.84914875 12
1.454257 4.0415726 0.030964818 11
1.515494 -2.2905917 1.052243 14.5
1.5878499 4.1243954 0.57190055 14
1.7285595 3.9959118 -0.074554197 10
1.7315319 4.0674286 0.31623566 12.5
1.9761778 -2.3492792 0.79689491 11
1.9005395 -2.3059809 1.0399714 14
2.0311115 -2.4145994 0.44214341 8
2.0476851 -2.3807044 0.60260344 9
2.0481699 -2.2892692 1.1840615 15
2.2577057 -1.686864 0.74471521 12
2.7725191 -2.7974377 0.41883746 7
3.1735644 -2.7457449 0.38189954 7
3.0271847 -2.9388683 0.60703379 8
3.1953275 -3.0477796 0.9954657 11
3.2055078 6.9292355 -0.32149178 9
3.3958011 -2.8815691 1.5540761 14
3.5974791 -2.8432953 1.6709094 15
3.9496894 6.956677 0.0019145729 10
4.0182166 6.9810162 0.18467841 11
4.0490003 7.0653467 0.64731926 13
4.1993704 -2.7962723 1.6985637 14
4.5857334 6.302865 -0.1798232 10
4.5827098 -2.8050647 1.9707161 15
4.9398594 -3.0212674 0.7722795 9
4.8151603 7.0010061 0.20129867 11
5.7223687 -0.074994214 -0.11371648 6
6.3883734 0.62929446 0.03133915 8
6.3956323 0.66247547 0.31980976 9
6.4159684 0.55049628 -0.18121532 7
6.4047914 1.0848751 0.50529438 10
6.4292545 -2.4300869 1.2074506 11
6.4601903 -0.40536579 0.89319724 11
6.5013142 0.52802396 0.9045766 11
6.4502354 -1.5215106 1.2862356 12
6.4703994 -0.015121185 1.0702592 12
6.4245868 1.1835234 0.95815009 11.5
6.4604416 -1.3528144 1.5462809 13
6.5311742 0.069806635 1.3406297 13
6.4209242 1.2126484 1.2161613 13
6.493721 -0.87760234 1.663868 14
6.4832683 -0.063570268 1.5472372 14
6.4223495 0.92270023 1.5564157 14
6.4829497 -2.6627727 2.2289202 14
6.4906983 -1.1285495 2.1714396 15
6.4635715 1.3208283 1.725412 15
6.484859 -1.7646208 2.3408504 15
8.0096359 2.8981209 1.9320174 15
8.1959524 4.3541389 2.0784142 15
15.816027 4.5612102 0.76438177 9
