# .PCD v0.7 - Point Cloud Data file format
VERSION 0.7
FIELDS x y z intensity
SIZE 4 4 4 4
TYPE F F F F
COUNT 1 1 1 1
WIDTH 72
HEIGHT 1
VIEWPOINT 0 0 0 1 0 0 0
POINTS 72
DATA ascii
-0.72169119 -0.67158616 -0.10496461 116.5
0.77972722 -0.62401664 -0.10852715 161
-0.62683487 -0.61308891 -0.10235739 114
0.74488908 -0.57185298 -0.11544897 167.75
0.81785089 -0.53164816 -0.12138335 168.5
0.67539048 -0.46919304 -0.12328083 177.16667
0.73464108 -0.43682206 -0.12588327 174.75
-0.74914652 -0.36488086 -0.14991255 118.5
-0.64227676 -0.33406141 -0.15613952 132
-0.43286455 -0.38151327 -0.14115128 166
-0.38050067 -0.36072826 -0.14954576 182
-0.14322418 -0.33173847 -0.13532917 185.2
0.59471875 -0.34615928 -0.14734074 157
0.64127284 -0.36959526 -0.13499267 166.14999
0.74644506 -0.36793098 -0.13791853 170.33333
0.81349611 -0.36161879 -0.14026146 170.66667
0.9124493 -0.40364084 -0.14149177 168
-0.60680324 -0.32339498 -0.15656963 136
-0.52452433 -0.29832137 -0.15631269 154.5
-0.41143125 -0.26568738 -0.16275071 180.5
-0.30315575 -0.23288311 -0.16306943 191
-0.26275876 -0.27881229 -0.15691498 189
-0.13992064 -0.28545392 -0.15046568 185.08333
-0.009198932 -0.26132125 -0.16533729 179
0.56329542 -0.29843163 -0.15537898 152.28572
0.66168541 -0.28426123 -0.15333983 155.1579
0.7546252 -0.27084506 -0.14984991 158.13333
0.83954388 -0.26177946 -0.15482183 164.2
-0.42263925 -0.16076834 -0.1391124 162
-0.31726581 -0.14069086 -0.13198066 174.125
-0.24053493 -0.16437805 -0.16895425 173.90909
-0.18286394 -0.17445491 -0.17318366 184.66667
0.67916912 -0.2045183 -0.16912837 148.66667
0.74645221 -0.17463486 -0.16557306 152.25
0.84114468 -0.17733586 -0.16793264 158.63637
0.90691406 -0.16887543 -0.17576405 164
-0.54366285 -0.078801222 -0.1875708 158
-0.45183659 -0.074464999 -0.18986072 180
-0.32164237 -0.067809679 -0.19039395 189.33333
-0.21585238 -0.062146258 -0.18946907 184.75
-0.19300459 -0.061723091 -0.19345964 184
0.75699311 -0.07515648 -0.18229353 149.22223
0.84450006 -0.06861259 -0.18356891 152.41667
0.90495652 -0.074682191 -0.18824379 159
-0.54947907 0.030266142 -0.20579992 159
-0.21638578 0.0083856964 -0.20020878 185
0.76693743 0.028166046 -0.1977368 149.78572
0.83775473 0.04538092 -0.20240772 153.375
-0.26154178 0.16904129 -0.2160631 189
-0.1774753 0.14856459 -0.14494903 158
-0.017015012 0.14680533 -0.20896998 178
0.039647236 0.12356398 -0.16386138 157
0.12242579 0.085734814 -0.19069952 132.09091
0.68256849 0.15916489 -0.21660554 152
0.74793851 0.1239692 -0.21270478 151.125
0.82924867 0.11959744 -0.2143442 156
0.72735953 0.1870386 -0.22184226 155
0.82232136 0.17835465 -0.22298674 159
-0.17925516 -0.23512629 -0.035828896 157
-0.32075828 -0.12558831 -0.063180149 167.83333
-0.039621461 -0.15661578 0.015493463 144.5
0.045504462 -0.16428563 0.010378987 134.2
-0.21322306 0.16381364 -0.095577389 168.3
-0.0067638177 0.15008159 -0.029302673 151.66667
0.036887798 0.12885602 -0.069991909 135.85185
-0.3893916 0.2172963 -0.11575908 133
-0.045764413 -0.21206118 0.031249609 131
-0.01910308 -0.14129163 0.035144594 141
0.023756303 -0.16874255 0.034403078 134.42857
-0.011430223 0.15290737 -0.012115286 153.33333
0.010169518 0.14395155 0.0031319389 138
-0.029668227 0.21579529 -0.0081713758 149
