# .PCD v0.7 - Point Cloud Data file format
VERSION 0.7
FIELDS x y z intensity
SIZE 4 4 4 4
TYPE F F F F
COUNT 1 1 1 1
WIDTH 107
HEIGHT 1
VIEWPOINT 0 0 0 1 0 0 0
POINTS 107
DATA ascii
-0.21121636 -0.94653177 -0.12029669 146.5
-0.18868594 -0.91418129 -0.12844159 155
-0.064532973 -0.96710896 -0.12421495 153.33333
0.08003097 -0.96692228 -0.12665853 158.5
0.21488944 -0.96043772 -0.13183911 157.5
-0.49969721 -0.83328277 -0.12301558 126
-0.33356169 -0.87232119 -0.1236504 142.5
-0.16448498 -0.87431055 -0.12837587 157
-0.0079681119 -0.84606487 -0.13312013 165
0.0052431277 -0.81688327 -0.1340065 169
0.11234629 -0.86527747 -0.13476494 170
0.23099837 -0.86384201 -0.13590364 169.66667
0.34249359 -0.86065501 -0.13960719 173
0.45434958 -0.86193401 -0.14063928 173.5
0.55730635 -0.82246178 -0.13783424 173
-0.63166457 -0.74378192 -0.12874371 117
-0.59050238 -0.71401513 -0.13074963 121
-0.45429656 -0.79162443 -0.12792151 136
-0.38986573 -0.73298401 -0.13613801 154
-0.24970314 -0.7735576 -0.13578111 163
-0.15775287 -0.75542259 -0.13792093 172.5
-0.099868253 -0.77320373 -0.13740051 172
0.050275285 -0.72176403 -0.14273985 180.5
0.14562942 -0.76066303 -0.14319763 182
0.24762183 -0.77174735 -0.14386043 180.33333
0.34761015 -0.74898559 -0.14772889 184.5
0.44362825 -0.74726003 -0.14616138 184.2
0.54039341 -0.74735337 -0.14203894 182
0.64280742 -0.74638325 -0.14367218 183
-0.54288787 -0.68044126 -0.13578486 132.5
-0.4655154 -0.62495899 -0.14102435 148
-0.29565597 -0.64533472 -0.14311254 170
-0.12597607 -0.62599748 -0.1496862 187
-0.04078009 -0.67993665 -0.14426102 182.5
0.0028168536 -0.61326635 -0.15302597 189
0.16332877 -0.6260491 -0.14656727 187
0.26835296 -0.63454062 -0.14279899 187.66667
0.34913045 -0.65261835 -0.14512436 187.75
0.43426067 -0.65746516 -0.14716285 187.66667
0.52553403 -0.67498213 -0.15128648 189.75
0.61623639 -0.67265075 -0.14913812 186
-0.38033724 -0.56440991 -0.14845215 170
-0.20822258 -0.56474727 -0.15156518 182
-0.051071782 -0.53473878 -0.15395901 188.66667
0.03704128 -0.55621457 -0.15180781 187.60001
0.13200447 -0.57140172 -0.15054405 186.42857
0.2535457 -0.55403662 -0.15099274 185.46666
0.35300669 -0.56291157 -0.15098491 186.5
0.43948856 -0.56323302 -0.1525334 186.39999
0.54188865 -0.57089961 -0.15136848 188.45454
-0.44545808 -0.46577176 -0.14473639 160.66667
-0.25032067 -0.47154552 -0.15835978 187.5
-0.14475738 -0.4573544 -0.15607052 188.39999
-0.064122133 -0.45835975 -0.16076902 187.25
0.047590878 -0.46115974 -0.15854506 184.5
0.14523584 -0.49151045 -0.15925622 183.83333
0.24223183 -0.49156281 -0.16384403 182.16667
0.34582818 -0.47168395 -0.1684235 180.875
0.4585146 -0.47947723 -0.16218328 182.92857
0.53778923 -0.45739326 -0.16226055 183.27272
-0.79781646 -0.32422036 -0.15447886 114
-0.34266582 -0.41170737 -0.15741596 179
-0.23275992 -0.35162258 -0.16234279 189.75
-0.16300222 -0.36637881 -0.16509785 187
-0.062508792 -0.37356603 -0.16276193 184.44444
0.051821124 -0.32491058 -0.17657909 178.5
0.1389696 -0.36617243 -0.17577572 176.83333
0.23575327 -0.38993496 -0.17405315 176
0.33994511 -0.39310139 -0.1771553 175.5
0.44849735 -0.36029544 -0.17878397 175.39999
0.50445586 -0.36011562 -0.17665343 177.5
-0.71542567 -0.30294061 -0.15798 125
-0.51912022 -0.25185391 -0.16411047 161
-0.42237681 -0.22749023 -0.17152759 178
-0.13526569 -0.29491407 -0.15385513 185
-0.073616363 -0.25295085 -0.12545252 183
0.023799771 -0.2889502 -0.17836757 178
0.48805732 -0.30951014 -0.18803345 173.5
-0.31390679 -0.19882849 -0.17244276 190
-0.25706956 -0.1839761 -0.17382428 187.39999
-0.1895728 -0.16641758 -0.17590585 184
-0.061151367 -0.17459299 -0.15374148 177.8
0.09189155 -0.15636672 -0.11014721 147
0.15083984 -0.13013279 -0.1316241 128.74193
0.18907791 -0.11082395 -0.14502509 123
0.75867724 0.12543616 -0.22208418 182.27272
0.83426267 0.13710772 -0.22653948 186.71428
0.89778942 0.13908306 -0.22913557 191
0.67435777 0.26115221 -0.231618 181
0.73654073 0.22554845 -0.2274984 183.66667
0.84038967 0.22945477 -0.23308618 189.375
0.89631903 0.20942116 -0.23650119 192
0.64374399 0.34034932 -0.23401502 184.375
0.74841708 0.34253833 -0.23820454 188.625
0.81171578 0.31971785 -0.23928106 190.66667
0.38172844 0.48007616 -0.24352667 186
0.44396031 0.46569043 -0.2417749 186
0.5401969 0.41937801 -0.2400059 185.11111
0.64090437 0.43236461 -0.24568796 188.66667
0.70976549 0.41230574 -0.24514826 189.33333
0.7949338 0.40008456 -0.24631527 193
0.2456135 0.48664394 -0.24171762 186
-0.094127357 -0.23392424 -0.01038051 155
-0.011791123 -0.13426092 -0.0050833859 150.16667
0.048911318 -0.13896523 -0.051155854 133.71875
-0.0040001371 -0.16205457 0.023670869 145
0.019903768 -0.13604403 0.030571654 131.75
