# .PCD v0.7 - Point Cloud Data file format
VERSION 0.7
FIELDS x y z intensity
SIZE 4 4 4 4
TYPE F F F F
COUNT 1 1 1 1
WIDTH 798
HEIGHT 1
VIEWPOINT 0 0 0 1 0 0 0
POINTS 798
DATA ascii
-4.8925309 -1.1854084 1.3462611 13.5
-4.856761 -1.1693083 1.4958348 14
-4.9246001 -0.9355467 1.5535225 14.666667
-4.8990841 -0.59902894 1.6237109 15
-4.3851614 -1.5822895 1.4026974 14
-4.5978174 -1.4121714 1.2969035 13.25
-4.4166303 -1.5457177 1.6022173 15
-4.6247921 -1.3625076 1.5453669 14.75
-4.648078 0.44655931 1.4270563 15
-4.5107584 0.58317435 1.4085032 15
-4.5409884 1.2279973 1.3543068 15
-4.4145107 1.3578112 1.3427154 15
-4.0797377 -1.2562903 0.38053823 8.5
-4.273982 -1.060716 0.46799725 8.75
-4.0363936 1.7835923 0.23016147 9
-4.0501409 -1.2008247 0.78608805 11
-4.1762905 -1.0943656 0.81128001 11.2
-4.0317426 1.7919297 0.57642055 11
-4.0078816 -1.9272808 1.2529998 13.5
-4.1386666 -1.7398996 1.2888197 13.6
-4.0809422 -1.361182 1.0579913 12.333333
-4.3164978 -1.1289961 0.99560189 12
-4.076972 1.3965414 1.1568829 15
-3.9844363 1.7935125 0.97888345 13.5
-4.0170598 -1.9182895 1.5861145 15
-4.20366 -1.7345679 1.611618 15
-4.3094206 0.80096233 1.3841456 15
-4.2162733 0.93717855 1.259022 15
-4.1444774 1.5191491 1.2223794 15
-4.0093541 1.8121755 1.1916726 15
-3.6346159 -1.6136827 0.48847902 9
-3.8442972 -1.4439403 0.42849115 8.625
-3.8102183 1.9054596 0.25387239 9.1999998
-3.6706419 2.2236154 0.16800995 8.5
-3.6237335 -1.5710058 0.72787148 10.5
-3.813525 -1.4029366 0.79897016 11
-3.8373127 1.892814 0.54901779 11.125
-3.646914 2.2205725 0.52452797 11
-3.8260632 -1.9357078 1.3041629 14
-3.9148185 -1.4695643 1.0818354 13
-3.8867099 1.6168783 1.0893586 14.5
-3.7930133 1.8932996 0.93631625 13.5
-3.6451876 2.2856534 0.93710989 14
-3.8317325 1.9259986 1.1763085 15
-3.1952403 -1.9837009 0.470588 8.5
-3.4037316 -1.8071532 0.47840023 9
-3.5505276 1.9419872 0.23433644 9
-3.5595255 2.3918867 0.17616612 8.5
-3.3956997 2.5760319 0.14749514 8.666667
-3.3968418 -1.7426634 0.85799438 11.714286
-3.5256853 1.9674107 0.56003034 11
-3.5457551 2.3597336 0.47640911 10.8
-3.3816118 2.5823269 0.47579929 11
-3.2932849 -1.7825857 1.1575485 14
-3.5133681 1.9803395 0.93251705 14
-3.521806 2.3433485 0.92797303 14
-3.3224046 2.6597524 0.93658125 14.111111
-3.5641329 2.3883729 1.194543 15
-3.1779306 2.8398106 1.0858936 15
-2.859478 -3.2068405 0.40250507 8
-2.9355597 -3.0397174 0.5198673 8.5
-2.8505046 -2.7261937 0.5279156 9
-2.9671175 -2.1419959 0.47264111 9
-3.0357852 2.9984963 0.15878768 9.25
-2.8307822 3.2273231 0.097995274 8.5
-2.9386466 -2.9419487 0.91717982 11.166667
-2.963064 -2.0813627 0.84428287 11.818182
-3.1465414 -1.9380845 0.75540912 11
-3.1524148 2.814698 0.49325633 11.333333
-2.9982467 2.9874756 0.46921715 11
-2.79093 3.2762368 0.24850193 10
-2.9072134 -2.959866 1.3118371 13.5
-2.927824 -2.0712783 1.2285007 14.5
-3.161298 -1.8759685 1.2320957 14.5
-2.9249561 3.1156759 0.87585688 14
-2.7898335 3.2837629 0.7730611 13.5
-2.9089413 -2.9366546 1.5383238 15
-2.9545286 3.0967252 1.1012048 15
-2.6214855 -3.2692263 0.56801212 8.6000004
-2.6976867 -3.1663935 0.46947113 8
-2.6668546 -2.4462156 0.51061273 9.1999998
-2.7508609 -2.3014824 0.5092594 9
-2.7165759 3.3606284 0.087439716 8.8000002
-2.4134698 3.7118852 0.071235657 9
-2.5644245 -3.3336127 0.86693889 10.6
-2.7529233 -3.1381505 0.9398213 11
-2.6472754 -2.3668368 0.8612377 12
-2.7157731 -2.2782433 0.84982598 12
-2.6804595 3.3925951 0.378077 10.8
-2.4031396 3.7296596 0.34369135 11
-2.5271628 -3.2782211 1.3824364 14.125
-2.7621665 -3.0402136 1.244053 13
-2.6188717 -2.4118953 1.2349645 14.5
-2.7118371 -2.240845 1.2071012 14.5
-2.598309 3.4887452 0.86873573 14.125
-2.3989387 3.7351031 0.91263837 14.5
-2.7036967 -3.1278381 1.508878 15
-2.7288103 -3.092412 1.5021473 15
-2.7602069 3.3116751 1.116611 15
-2.1207736 -3.7177169 0.54261267 8.25
-2.1203182 -3.2462721 0.39796814 7.6666665
-2.2318656 -3.1663375 0.39630395 7.5
-2.2637444 3.8776574 0.11348908 9
-2.107589 4.0608974 0.10824908 9.5
-2.149966 -3.7069769 0.83687663 10.5
-2.3510675 -3.5160747 0.84530193 10.5
-2.2549605 3.8962464 0.34917334 10.777778
-2.0504251 4.1367373 0.36435688 11
-2.1140776 -3.6301694 1.4268728 14.166667
-2.3103826 -3.4705458 1.3735756 14
-2.2327602 3.9176049 0.77121603 13.25
-2.0454462 4.1416636 0.7139532 13
-2.0445619 -3.6106098 1.5800529 15
-2.1768785 3.986352 0.98145992 15
-2.0180216 4.1882391 0.99296421 15
-1.8441166 -3.9605684 0.33698267 7
-1.6834803 -4.0984397 0.54058707 8
-1.9405633 -3.8496103 0.53133428 8.25
-1.8952265 -3.421757 0.33542502 7
-1.6673871 1.4064522 0.26734817 11.5
-1.8647125 4.3455582 0.080229163 9
-1.671652 4.5665569 0.094781451 9
-1.7339008 -4.0182767 0.86061621 10.333333
-1.9069862 -3.866678 0.85261154 10.5
-1.8125948 -2.022609 0.69737875 12
-1.9036061 4.3080068 0.27304396 10.75
-1.6968133 4.5455852 0.32562479 11
-1.6782914 -3.9877539 1.4156892 14
-1.840023 -3.8224204 1.3734128 13.75
-1.8926413 4.3266802 0.73963106 13.166667
-1.6931109 4.5481229 0.734474 13
-1.649901 -3.9457977 1.6051266 15
-1.9002429 -3.7270966 1.585868 15
-1.8983558 4.2832761 1.004783 15
-1.6317012 4.6248102 0.98587054 14.666667
-1.4488482 -4.2719183 0.34463054 7
-1.5879774 -4.2537079 0.35995772 7
-1.2812793 -2.8272309 0.36399809 8
-1.3189551 -2.1635888 0.41100743 9.333333
-1.4369067 -1.8124948 0.37637576 9.5
-1.5588965 1.2191745 0.33892068 13
-1.4837594 1.4153142 0.25507408 11.555555
-1.4095126 1.7779509 0.23853987 11.333333
-1.2272131 4.8147221 0.069304638 9
-1.3824852 -2.4818745 0.71363747 12
-1.3845801 -2.0714612 0.66095841 12
-1.4181976 -1.7621374 0.63658696 13
-1.4676818 -1.514447 0.67890644 14
-1.3782294 1.4422376 0.34972185 13
-1.2184016 1.638288 0.32502866 13
-1.4604261 4.7556887 0.23890851 10.4
-1.3530264 4.8794432 0.29433966 10.571428
-1.1973615 -4.3523493 1.4291469 13.5
-1.3844235 -4.1829839 1.3753384 13.5
-1.4774804 4.7986908 0.67094648 12.666667
-1.3354523 4.9088731 0.76611775 13
-1.3898395 -4.1453695 1.6250385 15
-1.4741458 4.7997909 0.98827624 14.5
-1.3034735 4.9306121 1.0005844 14.666667
-0.84132427 -4.8585749 0.3391259 7
-1.0001137 -4.6816711 0.30703965 7
-0.96639687 -4.6990619 0.44683567 8
-0.94431347 -3.1016152 0.33760655 8
-1.1588414 -2.6476786 0.32729566 8
-0.91491491 -2.2123809 0.42301136 10
-1.138144 -1.8884538 0.38183203 10
-1.1585606 1.711225 0.22255705 11.5
-1.0800874 4.6936135 0.081009015 9
-0.83712906 -2.0699537 0.63197732 12.5
-1.1567928 1.6821322 0.32554805 13
-0.98338264 4.6412406 0.32222062 11
-0.82288551 -4.7404394 1.430717 13
-1.0108043 -4.5464063 1.4516454 13.5
-0.97281575 4.6877952 0.67565626 13
-0.97134352 -4.5272121 1.686558 15
-0.98481405 4.7462611 0.97315282 14.6
-1.1533903 4.8893023 1.0182856 15
-0.53625655 -5.1799474 0.32050857 7
-0.44395885 -2.6090522 0.01040396 5
-0.60262418 -2.1117153 -0.030217458 4
-0.45086709 -1.7849427 -0.051578674 4
-0.50592095 -1.4072227 -0.07824403 3.3333333
-0.55048406 -1.0202134 -0.10707456 2.25
-0.46387514 -0.68998015 -0.14024635 0.25
-0.55979145 -4.996573 0.4468379 7
-0.57696146 -3.3536313 0.49275994 9
-0.57677156 -2.9820938 0.39643836 8.5
-0.72935086 -2.5325303 0.35354742 8.5
-0.6507417 -2.2530973 0.44554719 10.1
-0.58340251 -4.9682083 0.84831196 9.666667
-0.54186451 -3.3390326 0.71807373 10.75
-0.65158021 -2.1915979 0.62813056 12.4
-0.54997873 4.2613535 0.30155733 11
-0.77793545 4.435626 0.14153647 10
-0.39675644 -5.2110395 1.5237774 13
-0.59542125 -4.8885651 1.5050182 13.4
-0.52794564 4.3074374 0.6907962 13.5
-0.77339977 4.5126257 0.67877436 13
-0.37923557 -5.1369085 1.639468 14
-0.53105116 -4.9301891 1.6983793 14.6
-0.5583092 4.3499532 0.91165864 15
-0.70539176 4.5078988 0.9792856 15
-0.064650975 -5.6846471 0.29417926 6
-0.26935509 -3.5314138 0.15447961 6
-0.16380325 -3.0777059 0.039258022 5
-0.085673586 -2.6288126 0.0098758917 5
-0.24565494 -2.2353349 -0.018114852 4.75
-0.19084796 -1.8073035 -0.048186488 4
-0.17273135 -1.4146415 -0.077155203 3.3333333
-0.2064455 -0.97986388 -0.1185946 1.4545455
-0.24448411 -0.69440335 -0.14490554 0
-0.024199646 1.4874054 -0.32080796 3
-0.093479574 1.7509011 -0.34808242 3.5
-0.19656388 2.1357486 -0.38101515 4
-0.15811166 4.2010713 -0.61607331 5
-0.14019583 -3.7310092 0.33639589 7.75
-0.19213338 -3.2918985 0.28863567 7.5
-0.16763358 -2.922967 0.39602676 8.666667
-0.25083798 -2.6078978 0.44358221 9.75
-0.35403064 -3.1460915 0.74560869 12
-0.12056654 -2.6344392 0.65115219 12
-0.12840322 3.8991899 0.30907771 11.272727
-0.32244647 4.0793557 0.34085879 11.5
-0.13122603 3.9687343 0.68633032 14.142858
-0.26780757 4.0899043 0.69916338 14
0.013352617 -6.6577044 0.48204032 7
0.11369003 -5.2555957 0.26892427 6
0.19786251 -3.7489161 0.10967101 6
0.23802599 -3.0257039 0.034069791 5
0.25723782 -2.597563 0.0045262584 5
0.18263888 -2.2122362 -0.022356499 5
0.17574409 -1.8319592 -0.05034668 4
0.20332502 -1.4179103 -0.083740532 3.4000001
0.19401519 -0.99105805 -0.12676452 1.4545455
0.23824751 -0.67466921 -0.14848596 0.14285715
0.22898956 0.71199 -0.27204901 0
0.2168895 0.95912951 -0.28978765 1
0.2396924 1.3525569 -0.3117297 2.8
0.24319601 1.7326442 -0.33936 3.8
0.28989476 2.1392043 -0.37707701 4.3333335
0.15179963 2.5936933 -0.42069617 4.6666665
0.19166781 2.9081223 -0.44867602 5
0.38839608 3.2380283 -0.49011156 5
0.38007727 3.7059143 -0.50014359 5
0.227009 -5.8006506 0.76617783 9
0.29248989 -5.1094518 0.49546808 8
0.13452171 -3.3153229 0.27780169 7
0.097158797 -2.9068685 0.40138575 8.8571424
0.2986035 -5.7622886 0.93342662 9.666667
0.26989037 -2.9683228 0.73715973 11.75
0.051234867 -2.7387524 0.72254539 12
0.25541332 3.5584037 0.30068979 11.5
0.092001051 3.7008848 0.31171769 11.5
0.26482829 -5.7325864 1.5354967 12
0.29642946 3.5863709 0.70192063 14.75
0.14034279 3.7181256 0.69949102 14.666667
0.28710821 -5.7010031 1.7580643 13.5
0.56126142 -4.861712 0.26504648 7
0.73178363 -4.6384993 0.22456598 6.5
0.7106452 -3.8450336 0.078599572 6
0.66586226 -3.3458202 0.048439007 6
0.62934488 -2.9436369 0.02565798 5
0.59719115 -2.5675597 -0.0025128846 5
0.55765742 -2.1056125 -0.036974363 5
0.6214813 -1.7855482 -0.058195107 4.4000001
0.58452863 -1.3804293 -0.09094774 3.6666667
0.597458 -1.0137653 -0.12407161 2.5
0.5589329 -0.63888931 -0.14813595 1
0.5055598 -0.36489844 -0.1738946 0
0.72363138 0.22342578 -0.2360654 0.2
0.66183549 0.57070476 -0.26986948 0.60000002
0.6130572 0.97870797 -0.30464107 1.8571428
0.6820727 1.3828454 -0.3263298 3.2
0.6070655 1.7116443 -0.34952813 4
0.65275359 2.0584247 -0.38069984 4
0.72179699 2.5679545 -0.4327198 5
0.77503401 2.9677322 -0.47049043 5
0.41768119 -5.6447992 0.73968786 9
0.59023625 -4.8570347 0.47383803 8
0.69945973 -4.6635389 0.46448687 8
0.59297132 -3.2912719 0.32972676 7.6666665
0.55611187 -2.9702485 0.35334128 8.666667
0.71520889 3.1449273 0.12579679 10
0.62340409 3.3449497 -0.032154951 9
0.46224645 -5.6419325 0.92197049 10
0.5493474 -4.833611 0.76785976 10
0.78347826 -4.5462084 0.7299211 10
0.67135113 -3.2818761 0.7442584 11.25
0.46134043 -3.125663 0.72879237 11.5
0.73062682 3.1567554 0.31059209 12
0.54081881 3.3192873 0.32407856 12
0.46681648 -5.5697589 1.5410968 12.5
0.68983668 -5.3116713 1.4741905 12.5
0.72450888 3.2130919 0.62240481 14.5
0.53642011 3.3817062 0.66780901 14.75
0.53743565 -5.5026431 1.7607867 14
0.7016148 -5.3229346 1.7800224 14.5
1.0991237 -4.6854377 0.24039197 7
1.1904943 -3.7068164 0.078971945 6
1.0896231 -3.2521389 0.04860403 6
1.0145019 -2.9116573 0.024380062 6
0.95454663 -2.6393237 0.0045405678 5
0.95049405 -2.1718373 -0.029855493 5
0.93459046 -1.8122914 -0.053652979 5
0.8973015 -1.4637493 -0.07660377 4.3333335
0.94338745 0.22348294 -0.24625306 1.125
0.96887678 0.56485409 -0.28001541 1.75
0.95640004 0.97927088 -0.30873239 2.6666667
1.0246941 1.3303736 -0.33125064 3.5999999
0.97996742 1.7248919 -0.36580467 4
0.98488998 2.2169719 -0.41303766 4.5
1.0971014 2.6324 -0.45250946 5
1.1688895 2.9919038 -0.40732104 5.5
0.80629706 3.2217991 -0.48612764 5
1.0558233 -4.6000752 0.5185954 8.5
1.162204 2.7495143 0.10102039 10
1.0141191 3.0034819 0.008125321 9.333333
1.057403 -4.5594258 0.82964122 10.5
1.1524373 2.7872548 0.31165463 12.25
0.96148044 2.9570405 0.30991805 12.181818
1.0195352 -4.9274659 1.4296259 13.2
1.170629 2.8421521 0.59257823 14.5
0.98088682 2.9920692 0.61924863 15
1.0478245 -4.919579 1.6688519 14.5
1.3526505 -4.5725846 0.23035519 7
1.354688 -4.2498279 0.19202743 6.6666665
1.4603487 -3.0536985 0.074946359 6
1.2776216 -2.5178597 -0.0021906975 5
1.2059505 -2.3172817 -0.018930815 5
1.3771236 0.32326168 -0.27452722 2.6666667
1.3953305 0.61720586 -0.29015288 3.25
1.3646612 0.97688544 -0.31154758 3.8
1.4018433 1.4102074 -0.34148413 4
1.4286872 1.7994167 -0.3763386 4.5
1.2948834 2.16659 -0.41742429 4.5
1.4446909 2.5528624 -0.42039379 5.5
1.3536308 -4.5421977 0.47662467 8.125
1.5684367 -4.2789636 0.4390083 8
1.5536548 -3.894644 0.3206664 8
1.4093263 2.7606602 -0.072819769 8.666667
1.4170234 2.8472502 0.1037631 10
1.3603177 -4.4639931 0.83475202 10.6
1.5832186 -4.2851219 0.79134697 10.5
1.2688305 2.7211263 0.36201191 12.6
1.4622245 2.9034731 0.32783157 12
1.3896999 -4.4978743 1.3342223 13.5
1.6004903 -4.2546349 1.2877046 13.333333
1.3552214 2.8099947 0.62295103 15
1.6081212 3.015907 0.57455766 14
1.2355851 -4.7112169 1.6622908 15
1.4193746 -4.4983664 1.5964966 14.5
1.6008946 -4.2849116 1.6000508 15
1.8370819 -3.871516 0.18065101 6.5
1.5964385 0.35112986 -0.27085465 4
1.7713753 0.52679712 -0.28970718 4
1.7604403 0.9999038 -0.32177454 4
1.8139811 1.4299672 -0.35609409 4.5
1.7336158 1.7530793 -0.38003647 5
1.8045455 2.1231382 -0.41640174 5
1.9076371 2.624692 -0.46567288 5
1.9846404 2.7974088 -0.41740078 6
1.7558959 -4.0960526 0.49939108 8.6000004
1.7838678 -3.8181963 0.35679346 8
1.9007072 -3.3689947 0.36166623 8.5
1.7880981 -3.1047044 0.34011438 8.333333
1.8677448 2.8167164 0.12917973 10
1.7808233 2.9176164 0.096256487 9.75
1.8087653 3.2615035 0.019272566 9
1.7090776 -4.1346898 0.79024893 10.5
1.953256 -3.8441885 0.75498718 10.666667
1.6952072 3.02794 0.26199862 11.375
1.9107178 3.3962331 0.4075799 12
1.7844555 -4.0373206 1.3071507 13.875
1.9716856 -3.8091214 1.2996534 14
1.7481626 3.204376 0.73160625 15
1.8583974 3.34319 0.69981015 14
1.7188025 -4.1459713 1.5650656 15
1.9547851 -3.8577931 1.5211091 15
2.3923113 0.5935778 -0.31582722 5
2.206219 0.97690076 -0.33738649 4.6666665
2.2195821 1.4210346 -0.37226167 5
2.2712009 1.8907368 -0.40909728 5
2.2660787 2.448283 -0.45499563 5
2.1691415 -3.5930257 0.51174307 9
2.2502584 -3.3668969 0.37588182 8.5
2.0349188 3.0908017 -0.1032311 8.5
2.1286292 -3.661906 0.77498287 11
2.3015485 -3.4446528 0.75431085 11
2.1322527 -3.6293066 1.2720957 14
2.3513589 -3.3728821 1.202448 14
2.2193253 -3.5512087 1.4778042 15
2.4855604 2.1063042 -0.43507868 5
2.5017059 2.7559743 -0.48807967 5
2.4731414 -3.2576668 0.33398935 8
2.6312218 -3.0146265 0.30437824 8
2.7754622 -2.7626159 0.23810355 7.5
2.4664137 -3.255008 0.72570443 11
2.6494043 -2.9846513 0.72207499 11.125
2.788614 -2.7492759 0.58388466 10
2.4916804 -3.2086294 1.1938999 14
2.6539156 -2.9851213 1.159533 14
2.8090897 -2.7161348 1.2017902 15
2.8084733 -2.8590872 0.10458925 7
2.8829126 -2.7435777 0.11314986 7
2.8380442 1.0682459 -0.36756417 5
2.9442592 1.7432934 -0.42431819 5
3.0845063 2.7090273 -0.50670528 5
2.8060606 3.1532147 -0.53121156 6
3.1962836 4.9615059 -0.52403241 7
2.8132744 -2.8045857 0.37339312 9
2.9248652 -2.597275 0.30926028 8.5
3.1649115 5.0134544 -0.35229129 8
2.9305546 -2.588649 0.75820929 11.6
3.1627955 4.7855539 0.23716405 10.5
3.0801687 4.9434094 0.088383123 9.666667
2.9410584 -2.5694346 1.0976887 14
3.1896656 4.8280807 0.58947736 12
3.1382263 5.0019112 0.6003921 12
3.1769826 4.8480706 0.90166378 14
3.0847757 5.0778069 0.91846114 14
3.221457 4.872088 1.1990981 15
3.1299894 5.100369 1.2255725 15
3.3379073 0.88075477 -0.37417102 5
3.5838547 2.4860947 -0.50908017 6
3.5335712 3.1607215 -0.56091553 6
3.2484057 3.7286758 -0.5976553 6
3.2124701 4.9018507 -0.66403234 6
3.4075253 4.5985408 -0.11439358 8.5
3.4093685 4.6173401 0.099917941 9.7142859
3.3900995 4.6682992 0.46508613 11.333333
3.4486947 4.6905255 0.89446223 13.5
3.481473 4.7295461 1.1964775 15
3.9696355 1.5663035 -0.4555451 5
3.8986089 2.0872552 -0.49150193 6
3.7047024 4.3287997 -0.65322369 6
3.6835175 4.3825507 -0.48805222 7
3.86708 4.2766109 -0.14143498 8.3999996
3.6596577 4.4376054 -0.21541955 8
3.9526255 0.36099184 0.57829595 12
3.880465 4.3049579 0.17104489 9.875
3.6694279 4.4884129 0.20690742 10.5
3.6802428 -0.016156925 0.84681404 14
3.7206328 0.070397198 0.85586792 14
3.9006295 4.3622909 0.56177026 11.5
3.7434628 4.4918504 0.5679853 11.5
3.8801544 4.4035063 0.90760577 13.666667
3.6995745 4.5595212 0.8990342 13.5
3.9430532 4.4120831 1.186168 15
3.7445076 4.5849543 1.1946875 15
4.0751991 -1.4684436 -0.02006443 7
4.2516675 3.9139831 -0.57171959 6.5
4.1294522 -1.3465223 0.081093363 7.5
4.1893435 -1.1451789 0.081848122 8
4.1736841 0.61566377 -0.10825586 7
4.3024106 3.9039922 -0.12483205 8
4.081068 4.0868955 -0.1653465 8.5
4.1407628 0.55502003 0.58119392 12
4.3460374 3.9067988 0.18022643 9.666667
4.158093 4.0731339 0.2065355 10
4.0795708 0.41701525 0.92474651 14
4.1857066 0.53512132 0.79361236 13.333333
4.3153992 4.0038409 0.54244542 11.5
4.1188121 4.1933498 0.59194589 11.8
4.3590956 0.88865519 1.1296294 15
4.3387957 4.0197339 0.93115175 13.5
4.1686039 4.1851854 1.0476048 14.25
4.4739523 -1.3786478 -0.081356585 6.5
4.5696239 -0.48893017 -0.17829698 6
4.6152768 1.8503649 -0.50623971 6
4.7733903 3.4465065 -0.53452748 6.5
4.6601739 -0.97036439 0.2372922 9
4.7187309 -0.54775023 0.13393955 8.25
4.788229 -0.35425621 0.21461755 9
4.7146873 3.5273407 -0.22939815 7.5
4.5190196 3.7063406 -0.21119192 7.5
4.7410264 -0.80321687 0.39907086 10
4.5017843 0.92730016 0.45778388 11
4.7178149 3.5956163 0.22860585 10
4.5810509 3.7056334 0.19957793 9.8571424
4.5407863 1.0530123 0.94303554 13.5
4.7168045 1.2955002 0.88441259 13
4.7573614 3.609777 0.52303129 11.5
4.5476985 3.7971432 0.53267241 11.5
4.6654997 1.1707069 1.1088367 14.333333
4.7623677 1.3415745 1.2239095 15
4.7919865 3.6478693 1.0662122 13.5
4.6080599 3.7972186 0.96872097 13.4
4.71242 3.781863 1.3959106 15
5.0590315 -1.6936673 -0.10346849 6.3333335
5.0983567 -1.4180986 -0.090217523 7
5.0441942 1.3968523 -0.49038213 6
5.1816449 3.1020079 -0.37749103 7
5.0821152 3.209832 -0.36496398 7
5.0949526 -1.673661 0.31249034 9
5.1243911 -1.3711166 0.18822123 8.5
4.9503236 -0.47119391 0.2646988 9
4.8283806 -0.050433077 0.15873808 9
4.9635167 1.5017158 -0.046883214 8
5.1648941 1.7174886 0.030806696 8.5
5.1626806 3.1619635 -0.079301029 8.5
4.9507298 3.3350475 -0.18703014 7.8571429
5.084187 -1.7178715 0.55236131 10.333333
5.0920048 -1.4918776 0.48229501 10
4.9878907 -0.96926379 0.40218672 10
5.1766081 1.8038596 0.4741725 11
4.8640237 2.6142263 0.39769107 11
5.1691027 3.1904671 0.31015143 10.5
4.9529109 3.3812168 0.20780466 9.8999996
5.1714253 -1.7087674 0.83418179 11
5.0468903 1.5716571 0.90439695 13
5.1188593 2.3611662 0.67670047 12
5.2131987 3.2360938 0.75758046 12
4.9733243 3.4251823 0.60796249 11.6
5.1502924 1.7910022 0.94388348 13
5.1203046 2.3593538 1.1203058 14.25
5.1012883 2.4957218 1.0551833 14
5.2233095 3.2597415 1.000775 13
5.0134654 3.4624214 1.0600113 13.5
5.189528 1.7892523 1.3539015 15
5.1251459 2.2468758 1.3874294 15
5.0575781 3.4891365 1.388402 15
5.2209311 -1.3374439 -0.12787883 6.6666665
5.3629661 -1.147867 -0.14824331 6.5
5.5829568 -0.11032259 -0.22433457 6.5
5.3602676 2.9252789 -0.47096729 6.6666665
5.2069669 -1.2391297 0.10071508 8
5.444932 0.34719139 -0.055293452 8
5.4291506 0.44994518 0.053385042 8.333333
5.5825448 2.7253582 -0.17960082 8
5.3678455 2.9815428 -0.12176613 8.2857141
5.3414626 -1.3773139 0.48946342 10
5.3951144 -0.95868284 0.68596649 11
5.2677817 -0.51433539 0.4826051 10
5.4789915 0.3754676 0.46591207 10.333333
5.4370265 0.49837127 0.45918739 10.5
5.2770171 1.9715934 0.47752112 11
5.3087049 2.7652528 0.30858043 10.5
5.3978615 3.0034144 0.25692189 10.25
5.3376875 1.9591683 0.77184618 12.333333
5.4527678 3.0448768 0.71063131 11.666667
5.3666101 1.9317776 1.0242019 14
5.4433866 3.1040597 1.0922643 13.6
5.4707341 3.1289592 1.384725 15
5.8442006 2.4165306 -0.49500921 6.5
5.8589606 -1.5644158 0.31562716 9
5.6253452 -0.16851647 -0.084910907 7
5.7908716 0.54769766 0.024095714 8.5
5.7177939 2.340307 0.036185168 9
5.7035546 2.5490105 -0.14025703 8
5.7574353 -2.0108917 0.40741575 9
5.6795282 2.6502004 0.26884073 9.6000004
5.7369871 1.8834327 0.87155288 12.5
5.6880136 2.307272 0.8094644 12
5.7309093 2.6576602 0.62809998 11.5
5.7423525 2.3701079 0.91820323 13
5.6645422 2.8645463 1.0323976 13
5.6525583 2.9113154 1.0499048 13.5
6.2206898 -0.11314633 0.27840152 9
6.1136632 -4.676878 2.4438572 15
6.6261883 -1.0566421 -0.18164614 7
6.6207042 -1.120414 0.064104661 8
6.6704478 -0.57874596 -0.0049183718 7.5
6.6301351 1.9539968 0.26605189 9.5
6.677772 1.9995049 0.78897786 11.5
7.0446391 -2.8880451 -0.14029951 6
6.9898357 -2.6612923 -0.14768752 6.6666665
7.0795417 1.478155 -0.45159629 6.5
7.1745977 -3.612149 0.30826879 8
6.9654284 -2.88027 0.21252501 7.5
6.9600873 -2.6464686 0.22259581 8
6.8599367 -1.0069113 0.062465016 8
7.1243424 1.4684138 -0.13872565 8
6.9768767 1.6103778 -0.12541206 8
6.9562802 -2.6213083 0.50926757 9
7.0718336 1.5700039 0.245363 9.5
7.1091242 1.5954263 0.62565756 10.5
7.1397562 1.6210119 1.0296586 12
7.1152182 -5.5375309 2.3536475 14
7.1265888 -1.5175382 2.1258759 15
7.5882459 -4.5232463 -0.20829664 6
7.4461613 -3.6687598 -0.18981749 6
7.5285563 -3.4989483 -0.18692532 6
7.5742955 1.1165575 0.078965992 8
7.255836 1.3747237 0.026362771 8.5
7.5721822 -4.4290981 0.58461201 9
7.6007466 1.128965 0.17602482 9
7.2905922 1.4331118 0.7136907 11
7.2801685 1.5297055 1.1110194 12.5
7.6331024 0.78750128 1.6973979 14
7.3429699 -1.7315631 2.1935971 15
7.6695528 -4.5574508 0.025914339 7
7.8007131 -4.2445588 -0.10761026 6.4000001
7.603817 -3.4271686 -0.1423779 6
7.8604336 -1.5558631 -0.29252589 6
7.9162531 -4.5841522 0.3534995 8
7.6998858 -4.1001763 0.30742118 8
7.8328719 -1.6617938 0.13380627 8
7.8827629 -1.5147568 0.058331829 7.5
7.6437445 -3.3305678 0.58916903 9
7.7154522 1.1032953 0.5254665 10
7.6676693 1.1584022 0.89174104 11
7.6441412 0.67761672 1.1452161 12.5
7.6727867 1.2011969 1.1539809 12.5
7.7953506 0.61590755 1.7173796 14
7.702024 1.2369373 1.5014116 14
8.0408678 -2.3347669 2.1830683 14
8.0449276 -2.1430488 2.1719096 14
7.7153811 0.77525038 1.8687727 15
8.1788769 -1.5087447 -0.44244185 6
8.1328564 -4.4824162 0.44800675 8
8.0426311 -0.1060257 0.012118687 8
8.4538336 -6.2871771 2.6948586 14
8.4505968 -6.140655 3.2765996 15
8.5462923 -4.1385779 0.62655586 9
8.6591206 -4.2645049 0.95783436 10
8.5390739 -3.8050005 0.96529567 10
8.6376286 -2.6706128 2.2095945 14
8.6390162 -2.0851686 2.06371 14
8.5593872 -1.7527877 2.0361786 14
8.5874271 -6.0000892 2.77707 14
8.8233232 -5.7023845 2.8291953 14
8.7835846 0.077486694 2.2734613 15
8.5802984 -5.9732938 3.2111075 15
8.7207975 -5.7787061 3.2157166 15
9.1386271 -0.12958121 0.96213323 11
9.1211758 -0.043919738 1.2189285 11.5
9.0058498 -3.1978853 2.1907883 13
9.1077662 0.026525335 2.0797589 14
8.9613209 -5.5054874 3.2345362 15
9.2231216 -5.2378597 3.2645817 15
9.5526752 -4.9287581 0.013285807 7
9.4853439 -0.74795198 -0.37324002 6
9.4871254 -5.2163839 0.77404034 9
9.2277842 -0.21322489 0.7326895 10
9.4726763 -3.0082717 2.0243223 13
9.5190983 -4.868566 2.7127137 14
9.5285177 -0.58094072 2.3277752 14.5
9.5391808 -4.8382187 3.154752 15
9.9808855 -0.84214354 1.0119942 10
9.7994032 -0.70298523 0.74462831 10
9.894516 -0.71880907 1.2702634 11
9.8456163 -0.59167117 1.6269177 12.5
9.8704882 -5.1440973 2.50282 13
9.9366455 -4.8874187 2.4901524 13
9.9601068 -4.4786148 2.4596279 13
9.9931011 -2.8976004 2.0871582 13
9.9975357 -0.66025138 2.0675583 13
9.8274174 -4.4870834 2.7349131 14
9.9391432 -0.91810751 2.3513579 14
9.7094364 -4.652668 3.0295184 15
9.9218607 -4.3696537 3.0439873 15
10.056428 -1.1469951 2.8184054 15
9.9077044 -0.80279088 2.7671089 15
10.212944 -0.97447252 1.3014543 11
10.424149 -1.1281166 1.598447 12
10.11942 -0.8709178 1.5549704 12
10.408144 -8.1914225 2.5761883 12
10.253571 -0.95928699 2.0667272 13
10.265511 -4.0020099 2.6289253 13.5
10.146492 -1.1107153 2.3361883 14
10.193521 -3.8542018 3.0508351 15
10.108773 -3.5713704 3.0020862 15
10.167478 -3.230397 2.9855368 15
10.211578 -2.7676649 2.9565217 15
10.164762 -1.9443632 2.8865542 15
10.163852 -1.6060482 2.8663564 15
10.750597 -1.728824 -0.67090601 6
10.396849 -6.4072928 -0.12695612 6
10.56024 -1.2998616 1.1447406 10.333333
10.755951 -1.4086175 1.6461684 12
10.68114 -1.4844518 2.1812325 13
10.557055 -1.2098043 2.1601169 13
10.766159 -1.6117109 2.5106366 14
10.499963 -1.399554 2.4110203 14
10.596223 -3.6071496 2.8160498 14
10.941626 -1.6317744 1.2255416 10.5
10.858809 -1.4829502 1.3236892 11
11.104809 -1.7023213 1.6968534 12
11.093174 -3.8156731 2.3413012 13
11.221589 -2.9670379 2.2967014 13
10.975008 -1.7971315 2.2343998 13
11.214899 -2.0294685 2.564049 14
11.037037 -1.8122345 2.5966613 14
11.454889 -9.4509535 -0.17525887 6
11.243443 -1.857545 1.4107574 11
11.491777 -2.0224373 1.7533662 12
11.438334 -7.2567215 2.4651241 12
11.348488 -2.7139103 2.313401 13
11.486422 -1.9187574 2.2129879 13
11.577903 -3.1368148 2.4371171 13
11.473044 -2.8345118 2.4228261 13
11.592036 -2.4082291 2.4978938 13.333333
11.353251 -2.1438575 2.3039041 13
11.781676 -9.0504055 -0.16589528 6
11.83646 -8.9863024 0.30139413 7
11.844606 -6.4949212 1.6154397 10
11.852841 -2.4212058 1.1379062 10
11.646017 -2.1920185 1.452191 11
11.842597 -2.3462055 1.8045989 12
11.755394 -6.5698061 2.4953887 12
12.118724 -8.6780205 -0.15434931 6
12.262233 -9.7553616 0.30088717 7
12.158769 -8.5948505 0.30218178 7
12.355884 -10.09185 0.79052514 8
12.236015 -10.105944 1.3996968 9
12.026185 -6.2807803 1.2203828 9
12.173919 -2.7409158 0.71840745 9
12.15303 -6.1413255 1.623814 10
12.288111 -2.8134396 1.170817 10
12.353314 -9.8727903 2.3159616 10
12.242575 -2.7045362 1.8640071 12
12.064655 -2.5537705 1.4979568 11
12.416175 -9.805171 2.5253534 11
12.119935 -6.4073439 2.3807671 12
12.416612 -5.8527493 2.4053469 12
12.091494 -2.4392238 2.0444078 12
12.287781 -9.2015095 2.9298136 12
12.251272 -9.1709194 3.3487365 13
12.459678 -8.8809004 3.3421028 13
12.625709 -8.5015316 -0.21377596 6
12.609506 -9.8435192 0.79483628 8
12.714025 -9.6715927 0.92245293 8
12.730163 -9.494504 0.79514807 8
12.483437 -9.0330343 0.89697933 8
12.603724 -9.6928158 1.3943614 9
12.75268 -9.4268732 1.8532311 10
12.675145 -7.3253727 1.7251675 10
12.567904 -5.6612635 1.6399647 10
12.806454 -3.2481937 1.2086849 10
12.572866 -9.6091824 2.3168275 10
12.759285 -9.3181257 2.3107893 11
12.635826 -7.2730341 2.1501846 11
12.786312 -6.8127818 2.1354318 11
12.536422 -2.9510441 1.5507536 11
12.670175 -9.5352755 2.4430413 11
12.637567 -3.0849743 1.9255092 11
12.635615 -8.7720041 2.9287426 12
12.507106 -4.6367931 2.5791578 12
12.698602 -3.0374238 2.4038858 12
12.631006 -8.571558 3.3312871 13
12.795537 -7.4491534 3.2315047 13
12.880899 -8.3454294 -0.2603845 6
13.188476 -8.6679564 0.30269694 7
13.004375 -8.1308632 0.30336443 7
12.953837 -5.2607355 0.84247833 9
13.031076 -5.1461177 0.76280415 8
12.865404 -9.2050686 1.3841383 9
13.163039 -8.9649 1.388976 9
12.97122 -9.1501846 1.8527315 10
13.215827 -8.882719 1.8551583 10
12.964235 -5.2207661 1.4970045 10
13.125611 -5.0172291 1.2551686 10
13.057606 -8.9025412 2.3107989 11
13.206505 -8.3913975 2.2889535 11
12.878519 -7.7881517 2.2111754 11
12.872712 -6.3371515 2.1169839 11
12.951043 -6.0275984 2.1074891 11
13.025361 -5.7230334 2.0978606 11
12.993357 -5.3684001 2.0731905 11
12.908885 -9.2499123 2.4484546 11
13.059715 -5.0679107 2.065572 11
13.163215 -5.0213675 2.2414234 11
12.990815 -5.0716648 2.4716763 12
12.954097 -3.4135938 2.4470255 12
13.289629 -8.627532 0.54541367 7
13.302747 -8.8067923 0.80307329 8
13.460088 -8.7164011 0.80839723 8
13.379579 -8.6630945 1.3866971 9
13.461475 -8.6173449 1.8594632 10
13.621242 -3.8730114 1.6749114 11
13.360229 -8.6649208 2.4555895 11
13.357546 -3.5714846 2.0300455 11
13.50831 -7.7958107 2.9572237 12
13.721256 -8.4929619 0.91650313 8
13.651211 -8.3927279 1.3895887 9
13.768953 -4.1084228 0.8761251 9
13.694089 -8.3317852 1.8610318 10
13.837108 -4.2160521 1.2899835 10
13.764645 -8.0437946 2.4635797 11
13.943155 -4.0620055 2.1217127 11
13.71164 -3.7987096 2.2859945 12
13.739098 -7.4934988 2.9646282 12
13.978974 -7.193388 2.9757094 12
14.046295 -4.4014449 2.6310053 12
14.391501 -4.3562126 2.3912108 12
14.254072 -6.9088359 2.9962022 12
14.451876 -6.5783558 3.0027413 12
14.777205 -5.0079265 2.2599983 11
14.613116 -6.4895668 2.7635503 12
14.860436 -6.1993461 2.7930107 12
14.75653 -4.9978929 2.7536721 12
14.535052 -6.5330381 3.2060773 13
14.628754 -5.4616222 3.2378561 13
15.348247 -5.5961022 2.8571727 12
16.404764 -3.0786424 1.4045281 10
27.090609 -21.99943 3.7173638 9
28.607872 -20.399551 1.3911803 8
29.05228 -19.767458 1.3976879 8
