# .PCD v0.7 - Point Cloud Data file format
VERSION 0.7
FIELDS x y z intensity
SIZE 4 4 4 4
TYPE F F F F
COUNT 1 1 1 1
WIDTH 772
HEIGHT 1
VIEWPOINT 0 0 0 1 0 0 0
POINTS 772
DATA ascii
-5.977284 -1.5033853 1.6982318 14
-6.2148452 -1.3162065 1.653797 13.25
-6.1030664 -0.89555889 1.7277621 14
-6.0021143 -0.84793013 1.8522297 15
-6.0665832 -0.57506311 1.8647799 15
-5.6755776 -1.1119524 0.29798093 8
-5.765254 -1.6953115 1.2907182 12
-5.7318449 -1.6834775 1.5811723 13.5
-5.5738363 -1.2460468 1.7550819 15
-5.6004395 0.94943953 1.6485138 15
-5.652988 -1.1785055 1.8485401 15
-5.8564181 -1.0327067 1.8195374 15
-5.6954584 0.84133971 1.8115472 15
-5.3088851 -1.3532584 0.34037694 7.6666665
-5.2928963 -1.3070215 0.71599114 9.666667
-5.4768982 -1.118603 0.8548032 10
-5.1812663 -1.9856385 1.3013396 12
-5.5120187 -1.7948967 1.3063407 12.5
-5.3062654 -1.9809368 1.5636933 13.5
-5.3530726 -1.7563777 1.6265367 14
-5.3061008 -1.4427336 1.6978554 15
-5.2919521 0.68609315 1.5817573 15
-5.2488465 1.0891964 1.5895545 15
-5.2079635 1.5450684 1.4781439 15
-5.3311591 -1.4051305 1.8497076 15
-5.3105178 0.60506541 1.6877528 15
-5.4467683 1.1370907 1.6451052 15
-5.2191243 1.5106015 1.6286879 15
-4.8874969 -1.6559252 0.34372249 7.6666665
-5.0871 -1.5142291 0.3668417 8
-4.8940525 -1.6126833 0.73045063 10
-5.1134939 -1.4530905 0.70019084 9.666667
-5.0192022 -2.1284025 1.2957394 12.4
-4.9228134 -1.7585377 1.1263475 12
-5.026063 -2.1731606 1.5723457 13.8
-4.9603972 -1.6897714 1.7718017 15
-5.0653872 1.2475674 1.4196447 15
-5.0129604 1.5601695 1.4929713 15
-4.8565254 2.0295696 1.4869711 15
-4.7951908 2.1206963 1.324295 14
-5.1410623 1.6157986 1.6250945 15
-4.4261699 -2.0111232 0.42933971 8
-4.6070018 -1.868118 0.35853097 7.75
-4.6282477 2.2521808 0.16195019 8.3999996
-4.40766 2.5509684 0.1209337 8
-4.4239507 -1.9582369 0.89073956 11
-4.6495495 -1.80091 0.76825231 10
-4.6035872 2.2993703 0.52025568 10
-4.4442272 2.5152187 0.61649483 11
-4.606801 2.3030491 0.93894833 12.571428
-4.4297113 2.5409677 0.88580167 12.666667
-4.5289073 -2.3992357 1.7299811 15
-4.5123267 -2.0508506 1.687627 15
-4.6860247 1.760359 1.4051528 15
-4.6139436 2.3655188 1.4188725 15
-4.4579258 2.5906701 1.3337451 15
-4.191144 -2.1713462 0.41032398 8
-4.3106318 2.6864738 0.090757228 8
-4.1143332 2.9516039 0.090094902 8.333333
-4.1626997 -2.14028 0.83876699 10.8
-4.3165832 2.6878252 0.46638045 10
-4.0567465 3.0393708 0.45059457 10.5
-4.1829576 -2.1413808 1.2347955 13
-4.320755 2.6898987 0.91300172 12.5
-4.1093583 2.9791639 0.89046699 12.8
-4.1434484 -2.0510957 1.4947526 14.5
-4.3015552 2.7907929 1.3400013 15
-4.1178188 3.0443823 1.3532473 15
-3.7474146 -3.3094702 0.41575643 8
-3.7480764 -3.1184289 0.31780985 7
-3.7114804 -2.4819696 0.39001292 8
-3.8996277 -2.3427582 0.41085416 8
-3.9631352 3.1483979 0.091921896 8.333333
-3.7861574 3.3880684 0.086733453 8.333333
-3.6196184 3.6167009 0.053575639 8
-3.7270112 -3.3134637 0.80282342 10
-3.7785075 -3.1163325 0.8704766 10
-3.7424061 -2.4200034 0.77747315 10.6
-3.9252009 -2.2893045 0.85728848 11
-3.9436724 3.1896045 0.47077692 10.5
-3.7457683 3.4554031 0.42166153 10.142858
-3.5975611 3.6593347 0.52437276 11
-3.7035747 -3.2210128 1.267321 12.333333
-3.5993893 -2.8437395 1.2947638 13
-3.7166061 -2.4522679 1.1479037 12.714286
-3.894429 -2.2833333 1.2106577 13
-3.9389708 3.2019014 0.85521829 12.5
-3.7528558 3.4575474 0.90557152 13
-3.7239795 -3.1907711 1.6163733 14.6
-3.767909 -3.0345876 1.7333732 15
-3.6887312 -2.3828342 1.5210403 15
-3.9089251 -2.249275 1.4921708 14.5
-3.9679968 3.2453413 1.3656857 15
-3.8550789 3.3976665 1.3775989 15
-3.4988084 -3.5115929 0.29998675 7
-3.5142424 -2.6365147 0.42264944 8.25
-3.4138334 3.8899646 0.084225938 8.4285717
-3.2523389 4.107049 0.088475071 9
-3.2648904 -3.6570411 0.78547984 9.5
-3.4528539 -3.4832661 0.76601821 9.5
-3.5319152 -2.5986295 0.75135368 10.5
-3.4228494 3.886821 0.41436017 10.25
-3.2493236 4.1228418 0.4107022 10.333333
-3.2422678 -3.5881007 1.3496552 13
-3.4141779 -3.4558725 1.4005984 13.333333
-3.5107014 -2.5780444 1.2447201 13.5
-3.4229083 3.9075458 0.90997648 13.125
-3.2337432 4.1563196 0.88327885 13
-3.2707503 -3.5473483 1.7667146 15
-3.4686129 -3.3695924 1.6216942 14.5
-3.5342028 -2.5068057 1.5021138 15
-3.3256087 4.0536308 1.0191743 14
-3.2426803 4.1632366 1.0082226 14
-3.0634577 -3.6416838 0.53080958 8.5
-2.9935083 -3.4050953 0.37256703 7.5999999
-2.8676016 1.2687926 0.25557998 9.5
-3.1112022 4.2977467 0.01343351 8.25
-2.9209697 4.5646744 0.057040218 8.6000004
-3.1013882 -3.76842 0.80357015 9.666667
-3.1171575 4.3022118 0.39605212 10.666667
-2.8971646 4.6047206 0.3154003 10
-3.04597 -3.7563076 1.4123461 13.5
-3.1099794 4.3178835 0.79065353 12.333333
-2.8706708 4.6429095 0.78777713 12.5
-2.9715447 -3.7537916 1.7103434 14.75
-3.0666089 4.4237785 1.0822777 14
-2.935991 4.6369858 1.1270638 14.142858
-2.5551162 -4.154418 0.25990558 7
-2.5365372 -4.1819611 0.46586883 7.75
-2.6743863 -3.6000769 0.34541091 7.5
-2.754214 -3.5366435 0.35149822 7.5
-2.4940457 -2.1616752 0.46083939 9
-2.6736887 1.0861249 0.18790171 9
-2.5578835 1.4138576 0.26539844 10
-2.5024922 1.6888187 0.26607624 10.5
-2.5694871 4.6647568 0.067880586 8.5
-2.3982093 -4.2008576 0.83131737 10
-2.5905643 -2.2319877 0.70015389 11
-2.4627237 1.4074637 0.37448236 11
-2.5658188 4.6840234 0.35259071 10.2
-2.5646439 -4.0584373 1.3874477 13.4
-2.5361605 4.6847539 0.76308751 12.5
-2.5730264 -4.0303421 1.6559874 14.666667
-2.7582533 -3.8874989 1.6506807 14.5
-2.5630291 4.709218 1.0955542 14
-2.2779391 -4.3493867 0.51965213 8
-2.081243 -2.9076624 0.28083393 7
-2.2055597 -2.2030222 0.39441267 8.875
-2.2374649 -1.9006565 0.38646135 9.333333
-2.294718 1.5968616 0.25761634 10
-2.3253219 1.6421638 0.17142132 9
-2.1486788 4.3557391 0.15018624 9
-2.302705 4.4711275 0.14357708 9
-2.3040967 -4.3060131 0.90776342 10.5
-2.1068602 -2.1152818 0.72553498 12
-2.2204883 -1.844829 0.74256039 12.6
-2.1115386 4.3604512 0.40085 11
-2.3303001 4.5151949 0.34542775 10.5
-2.1355145 -4.3373542 1.3435615 13
-2.2783508 -4.2355361 1.3998387 13.5
-2.111428 4.3703561 0.7894187 13
-2.3067269 4.5144396 0.78470749 13
-2.0708961 -4.3306565 1.6231976 14.5
-2.2448323 -4.2501612 1.6075506 14.333333
-2.17156 4.4245229 1.0936342 14.5
-2.3147686 4.5350451 1.1822139 15
-1.8887578 -4.6127801 0.29891971 7
-1.8360647 -4.6665163 0.44232175 8
-1.6489516 -3.2444987 0.38990799 8
-1.8636942 -2.9839618 0.33801445 8
-1.7107939 -2.2402687 0.42533493 9.5
-1.9864641 -1.9443058 0.36920536 9
-1.6210703 3.9645591 0.095110394 9
-1.8807137 4.1528511 0.1052961 9.333333
-1.6436048 -3.283437 0.80234653 11
-1.6694076 -2.917202 0.79160559 12
-1.6664563 -2.7442284 0.7789768 12
-1.8006027 -2.1405663 0.73209041 12.5
-1.6257182 3.991972 0.33849651 11
-1.8062636 4.1291981 0.37593231 11
-1.8373208 -4.5509191 1.3806412 13
-1.6616181 4.0289397 0.85599434 14
-1.8566893 4.1840343 0.7710892 13.5
-1.8094926 -4.5674319 1.6613446 14.5
-1.8876829 4.2103133 1.0446328 15
-1.265483 -3.5474625 0.24536581 7
-1.4649141 -3.3541694 0.50758642 9
-1.3890306 -2.9847021 0.3594749 8
-1.5203754 -2.4765382 0.39378086 9
-1.5406173 -2.2796369 0.49405017 10.5
-1.3958436 3.7931969 0.11474827 9
-1.2549311 -6.8110228 1.091144 9.5
-1.5455451 -3.3152595 0.80636919 11.333333
-1.5602463 -2.9749017 0.7892881 12
-1.4751939 -2.4143589 0.66713732 11.5
-1.5283048 -2.2874656 0.68062091 12
-1.3789881 3.8077929 0.3358244 11
-1.3494413 -4.907373 1.4043405 12.6
-1.5552517 -4.7038479 1.3730161 13
-1.3760117 3.8191483 0.79696059 14.125
-1.2463428 -6.76965 1.7990427 12
-1.3656696 -4.8921657 1.6931422 14.6
-1.451521 3.8895004 1.0152887 15
-0.94560838 -6.8123956 0.42551053 7
-0.8892507 -5.5062962 0.31548455 7
-1.1051575 -5.303092 0.41516429 7
-1.1889244 -5.1157317 0.41726881 7
-0.98416597 -3.7840359 0.42981836 8
-0.97036505 -3.3899424 0.4312405 8.333333
-0.92466331 -3.0347605 0.3945564 8.333333
-1.0732477 -2.6514838 0.4128677 9.25
-1.0745374 3.5611498 0.14116612 10
-1.0940411 -6.8803701 1.0355951 9
-1.1003819 -5.2996545 0.97825432 10
-0.97110164 -3.880686 0.76977444 10.666667
-0.86505747 -2.799139 0.67771459 11.5
-0.98360157 -2.6753557 0.64320606 11.5
-0.94002151 3.485388 0.33970544 11.333333
-1.1433926 3.6334453 0.33687431 11.333333
-1.1616083 -5.025434 1.4215747 12.5
-0.93896735 3.4905727 0.7459113 14.444445
-1.0962214 -6.8245163 1.8071227 12
-1.0903887 -5.2048154 1.6257687 13.5
-1.1656686 -5.0907855 1.6313556 14
-1.0582004 -6.8493052 2.1491089 14
-0.64219522 -5.6461115 0.27186492 6.5
-0.67261434 -3.6284442 0.23752509 7
-0.60720533 -0.28541499 -0.17105882 0
-0.63587976 0.35029194 -0.22181639 0
-0.43365914 0.70348257 -0.25667807 0
-0.48406613 0.9690575 -0.26654461 1.6666666
-0.47138417 1.2546668 -0.28170177 3
-0.45195222 1.6682936 -0.31789729 3
-0.44476563 2.4155629 -0.3806898 4
-0.48050421 -5.7870932 0.68059862 9
-0.76701546 -3.7924852 0.54065549 9
-0.67814702 -2.9572811 0.43210763 9
-0.52205396 3.1664171 0.18408954 10
-0.70420837 3.2952929 0.17025952 10
-0.43368679 -5.8018546 0.93282241 10
-0.62142569 -3.0063632 0.7422365 12
-0.50316697 3.1745553 0.41059786 12.333333
-0.67756808 3.2992418 0.38187304 12
-0.5579958 3.2090349 0.69906735 14.666667
-0.70473158 3.317992 0.7427972 14.5
-0.43364778 -5.7140884 1.7662054 13.666667
-0.14019851 -4.8961377 0.22327875 6.3333335
-0.27050617 0.64004153 -0.2480035 0
-0.20691013 0.97328645 -0.27663788 1
-0.1919937 1.3583975 -0.29655623 2.6666667
-0.2216486 1.7557305 -0.3262133 3.5
-0.19895291 2.1441059 -0.36375913 4
-0.1256766 2.550482 -0.40493834 4
-0.34537181 -5.8118224 0.68765193 9
-0.11631749 -4.8209205 0.36929813 7
-0.0062790038 -4.732789 0.36513814 7
-0.1460188 -3.2581961 0.29436237 7.5
-0.1983579 -2.9163954 0.30955192 8
-0.37216109 -5.8022079 0.80290335 9
-0.1728621 -4.8436556 0.760912 9.5
-0.04486056 -4.6431007 0.87880331 10.5
-0.21971597 -3.2667408 0.75576252 11.666667
-0.033935543 2.8030422 0.41582805 12.75
-0.24007596 2.9817288 0.41080162 12.692307
-0.36450246 -5.7611103 1.4622191 12
-0.035715025 -5.3826275 1.4782119 12.5
-0.10185612 2.8446531 0.62732548 15
-0.27948335 3.0031421 0.65672904 14.75
-0.23732787 -5.6226244 1.7130038 13.6
-0.065374494 -5.4070206 1.6284221 13.5
0.0095151793 -4.7605557 0.19898894 6
0.15239602 0.72317177 -0.26829818 0
0.1172798 0.9748531 -0.28599125 0.80000001
0.10550894 1.3703188 -0.30129927 2.6666667
0.027647931 1.7557913 -0.32706004 3.6666667
0.16691075 -4.4928131 0.47707787 8.166667
0.16560175 -4.4581962 0.81178117 10.6
0.036578923 2.7837472 0.38434845 12.5
0.23879582 3.0034294 0.39550403 12.5
0.27474105 -4.9250331 1.4594289 13.25
0.032189913 2.8241992 0.62963086 15
0.26252189 3.1098142 0.65141147 14.666667
0.37205806 3.296519 0.74885583 15
0.095462292 -5.1945558 1.6495618 14
0.26837403 -4.9332309 1.6302654 14.5
0.46232402 -4.6119704 0.21522972 6.5
0.71515554 -4.363605 0.2549136 7
0.76227683 -1.3283858 -0.1108887 3.6666667
0.71326339 -1.0179056 -0.14373472 2.5999999
0.59656829 -0.59203452 -0.1645759 0.69999999
0.67099983 -0.25785685 -0.19151129 0.25
0.7395643 0.047668058 -0.21589635 0
0.52271539 -4.5865979 0.41660625 7.5
0.69289672 -4.3051949 0.48651919 8.5
0.73645055 -3.5102756 0.29893625 8
0.73676974 -3.0332668 0.35615605 9
0.52724135 -4.5185494 0.88883132 10.75
0.66248983 -4.2984529 0.73090494 10.333333
0.54443282 3.1152244 0.30247498 11.6
0.50844336 3.2515628 0.48277172 13
0.46540239 -4.7160058 1.4930797 14
0.58404225 -4.5207357 1.3624419 13.4
0.77732342 -4.2340097 1.3272541 14
0.49044722 3.4136262 0.66978031 14.5
0.59684479 -4.4916754 1.5716282 15
0.7563656 -4.2601047 1.5141428 15
1.0268015 -3.6885455 0.17758963 7
0.8403334 -3.2143764 0.10819497 6
0.84136325 -3.1114655 0.04450921 6
1.072925 -2.4898286 0.055642024 6
1.016897 -2.2064981 -0.054527387 5
0.97525859 -1.7236359 -0.085238561 4.5999999
0.98605311 -1.4029373 -0.10776762 4
0.98981631 -0.97736788 -0.14639865 3.1428571
0.9801845 -0.6257872 -0.17498323 2.0999999
0.96957159 -0.22486305 -0.19406299 1.5714285
0.97270131 0.10220034 -0.21038774 1.6666666
0.87784606 -4.0930967 0.63966072 10
1.0406924 -3.7688878 0.42202556 8.5714283
1.0482556 -2.9692843 0.30660045 8
1.1005473 -2.7072945 0.19439319 7
0.92298853 -4.0815234 0.77669084 10.5
1.0871463 -3.8271501 0.80094391 11.285714
1.1504668 5.5747681 0.42121673 11
0.89096707 -4.097486 1.2734438 14
1.1114883 -3.777245 1.2433839 14.4
1.164628 5.5942178 0.68975902 12.5
1.139968 5.6212163 1.0721632 14.5
1.0237714 5.7039285 1.0930501 14.333333
1.4477115 -2.5004554 0.055046584 6.25
1.3141631 -2.1354387 -0.065514795 5
1.3859787 -1.8499148 -0.086485654 5
1.3678244 -1.417479 -0.10962187 4.6666665
1.4090905 -0.99808162 -0.14008829 4
1.357397 -0.58086073 -0.17258361 3.5
1.4344131 -0.20620011 -0.19773969 3.25
1.4575413 0.16278556 -0.22457954 3.25
1.343913 -3.3274324 0.44650325 9
1.4636554 -3.1575727 0.37800992 8.666667
1.2717508 -3.5975754 0.72409695 11
1.4249899 -3.341804 0.74812293 11.5
1.5971069 -3.1035893 0.71959609 11.5
1.604297 5.2215314 0.21941559 10
1.4151938 5.3750763 0.26790088 10.142858
1.260263 -3.5718906 1.2156186 14.5
1.4326609 -3.3277421 1.160702 14.5
1.5968226 -3.1162908 1.0975524 14.5
1.3896559 5.4402776 0.6820519 12.5
1.5960714 5.27351 0.98883706 14
1.3937309 5.4359341 1.0288949 14.333333
1.7223126 -2.2353489 -0.034694266 5.3333335
1.8568064 -1.8503649 -0.090934813 5
1.8331431 -1.4079605 -0.12123265 5
1.6972498 -1.0601728 -0.14126487 4.5
1.6994859 -0.6881305 -0.15559062 4.3333335
1.7714325 -0.23390627 -0.18897882 4
1.8080606 0.25374237 -0.22422576 4
1.706293 -2.999382 0.37367651 8.7142859
1.8844796 -2.6121817 0.37700182 9.1428576
1.7586856 -2.370379 0.14544255 7
1.9900948 4.7951488 0.020813385 9
1.7918218 4.9614601 0.033602718 9
1.7295038 -2.9257109 0.70631272 11.571428
1.8741535 -2.6064701 0.66872448 11.875
1.7947592 5.0060158 0.24456371 10.111111
1.7086744 -2.9452026 1.0874995 14.666667
1.8813449 -2.5885806 1.0123005 14.5
1.8009377 5.0483794 0.64617831 12.4
1.6216468 5.2764459 0.75710827 13
1.9833528 4.8629947 0.97141439 14
1.7737316 5.0566416 1.0255252 14.5
2.1739643 -2.2439058 -0.072135516 5.5
2.2563791 -1.8131775 -0.10440774 5
2.1349816 -1.317615 -0.13350202 5
2.1123817 -0.98408484 -0.15527445 5
2.1003315 -0.59141898 -0.15996645 5
2.0936279 -2.4179158 0.33101171 9.1999998
2.129091 -2.3340826 0.30819762 9
2.2270133 4.7598281 0.016314864 9
2.1398947 4.8296576 0.0068724058 9
2.0325384 -2.4022148 0.67105186 12
2.0889912 -2.3182509 0.67185366 12
2.3008761 4.7275648 0.21724392 10
2.0920279 4.852088 0.30055681 10.5
2.0396094 -2.3791518 0.98701501 14.5
2.1319051 -2.3005757 0.97088593 14.5
2.3188128 4.7611508 0.66052204 12.5
2.1287246 4.8974314 0.68682873 12.5
2.3133039 4.7803798 1.0445459 14.666667
2.0992467 4.9119563 1.0403247 14.5
2.5098648 -2.6605506 -0.052731417 6
2.5924728 -1.8806756 -0.10731962 5
2.5772483 -1.4380379 -0.13764676 5
2.4298716 -0.8503927 -0.1701095 5
2.6568489 -0.19730535 -0.21012112 5
2.5508308 0.48175865 -0.2626932 5
2.4878833 0.12940784 0.27615255 11
2.7406158 4.3822536 -0.039733022 9
2.5420434 4.5265231 -0.023835095 9
2.7482796 -2.9415083 0.6616984 10.666667
2.7476802 0.60773325 0.61863035 14
2.7745357 4.3736176 0.12617823 9.5
2.5778811 4.5242014 0.22325037 10.142858
2.8113036 -2.8332608 1.1468912 14.5
2.7943494 4.4061384 0.62408179 12
2.5892076 4.5597291 0.63873619 12.166667
2.7611306 4.4504442 1.0285749 14.5
2.575706 4.5862842 1.0264182 14.4
2.8217902 -2.909976 0.13110714 7
3.0447495 -1.991919 -0.11322733 6
2.9056554 -1.4275787 -0.14649823 5
3.0158648 -1.0792143 -0.079782113 6
2.9693091 -0.7124666 -0.1914783 5
2.9582253 0.25546291 -0.25742051 5
3.0319905 0.59075588 -0.28326994 5
2.8440244 -2.8777621 0.35037509 8.5
2.9089956 0.27841535 0.13579535 9
3.1782196 0.9229098 0.084170207 9
3.0643682 4.1444473 -0.012906249 8.666667
3.1215649 0.33758885 0.64958811 14
2.9668071 0.76808596 0.59641188 13.333333
2.9624784 0.85380483 0.57426208 13
2.982208 4.2290506 0.22799131 10.166667
3.0550897 0.80636716 0.74168831 14.666667
2.9751163 0.87668186 0.72381693 14.5
3.0457659 4.2299991 0.6928727 12.5
2.8809321 -2.8113997 1.3346211 15
3.0103135 4.2730584 1.0296991 14.5
3.3642797 -3.7237482 0.0075293742 6
3.5215354 -1.2955021 -0.16725457 6
3.2673352 -0.60805243 -0.20760214 5.5
3.4495387 -3.8827655 0.18381621 7
3.5792401 -3.472738 0.31946182 8
3.3382339 -0.93061137 0.12141935 8.333333
3.4018974 -0.77090818 0.0067950366 7
3.5770009 -0.18542036 -0.023509976 7
3.2941337 0.6795879 -0.014882038 7.5
3.4056084 3.8917835 -0.038893662 8.3999996
3.2322555 4.0268188 -0.016482307 8.5
3.5931029 -3.6580033 0.75857973 10
3.5614972 -3.4591804 0.74180096 10.5
3.2173851 0.71671003 0.50713366 12
3.4821301 1.4055893 0.48415339 11.666667
3.467818 3.8721828 0.27842987 10.1
3.2397621 4.0514321 0.374441 10.5
3.5809484 -3.480109 1.1584884 12.5
3.5665278 1.5898536 0.99878258 15
3.4704211 3.9079432 0.65028811 12.4
3.5812144 -3.4186714 1.482497 14.5
3.4731965 3.9388673 1.1002591 14.4
3.3210299 4.089354 1.2480538 15
3.8784263 -3.6653676 0.093568251 7
3.8791618 -3.6259117 0.44338068 9
3.702141 -3.5323176 0.28171504 8
3.6843922 -0.79673702 0.18828762 9
3.709445 -0.57768101 0.32182872 10
3.7247224 -0.1879078 0.18222098 9
3.809557 1.8400038 0.059869092 8.666667
3.9147763 3.5150082 -0.044473741 8.5
3.6918185 3.6752524 -0.06686645 8.333333
3.6258886 -3.6079781 0.90101069 11
3.6641393 -3.4480722 0.85216361 11
3.8391809 -0.041442543 0.34096238 10
3.6860511 2.911809 0.4253802 11.5
3.8521345 3.58426 0.27140635 10
3.7072737 3.6937394 0.27155331 10
3.8592608 -3.584954 1.2043917 12.5
3.8296964 1.9552662 0.91411495 14.333333
3.9405553 2.1290867 0.83461231 13.5
3.968281 3.5505245 0.71992397 12.333333
3.7376645 3.7134769 0.7283833 12.5
3.9078884 -3.5598323 1.5489794 14.5
3.9098573 1.9652761 1.0954685 15
3.9432697 2.1708667 1.0001937 15
3.8872123 2.72595 1.0700101 15
3.8954787 3.6220083 1.0898564 14.333333
3.7381096 3.760355 1.1511621 14.666667
4.188838 -2.1448371 -0.13372816 6
4.3211288 -0.9601534 -0.083473876 6.6666665
4.2997127 -0.76488572 -0.064082511 7
4.0979366 -1.3805256 0.18933003 8
4.209547 -0.97069603 0.082005508 7.5714288
4.2922993 -0.77449799 0.071758039 8
4.3229098 0.82051164 0.11519227 8.5
4.3544145 3.0736058 -0.059370682 8
4.1648474 3.328465 -0.058469146 8.4285717
4.0769849 -1.570675 0.51343596 10
4.1386447 -1.3510182 0.60315365 11.2
4.1412606 -1.1527983 0.58982903 11
4.1853218 -0.12659079 0.53293538 11.5
4.3296065 0.87601483 0.48816502 11
4.3605862 2.5450075 0.20683767 10
4.3626947 3.1762712 0.20193727 9.5
4.116961 3.4015472 0.31402755 10.333333
4.1444016 -1.6340933 1.0154519 13
4.2352881 -1.3016325 0.87344098 12.5
4.0756612 2.3267627 0.76633853 13
4.358552 2.6273527 0.82758337 13
4.3511753 3.1458683 0.69940811 12
4.2063203 3.3628373 0.7131896 12.166667
4.1408491 2.3258021 1.1764301 15
4.3364701 3.1389155 1.0290432 14
4.1543708 3.4425139 1.0994073 14.333333
4.6855526 -1.7733833 -0.11874855 6
4.6245861 -4.2066822 0.37016195 7.6666665
4.5883932 0.30557907 -0.023813808 7.3333335
4.6784787 1.0035734 0.078624733 8
4.4794402 2.974129 0.033667695 8.666667
4.4773116 -4.162436 0.84260905 10
4.4587011 -0.62358862 0.5528971 11
4.5710511 0.97493112 0.29419193 9.5
4.4978771 2.7680092 0.20773061 10
4.4439244 3.0267525 0.35252097 10.333333
4.5439496 -4.1078329 1.1073669 11.5
4.4292393 2.8161349 0.85186619 13
4.491046 3.0243711 0.72975242 12.2
4.4595566 3.0573347 1.0501626 14
4.6795597 -4.1117778 1.9485404 15
5.0401106 0.31866723 0.40941483 10
5.4095635 -1.2777597 0.31319293 9
5.5567446 -0.60814708 0.020926995 8
5.5007615 -0.2714811 0.0028395767 8
5.2324553 0.37655124 0.36993 10
5.314096 0.46406791 0.47596952 10.5
5.5648623 -4.8260832 2.3633606 15
5.7594872 -1.4672991 -0.14976813 6
5.8871517 -0.88195413 -0.12797774 6.5
5.7005138 2.1925452 -0.36443627 7
5.9152622 -2.655798 0.42498866 9
5.7749949 -0.56349891 0.12345596 8
5.7121458 -0.079386115 0.11428309 8.5
5.8218136 2.1348941 -0.0067670709 8.166667
5.8274341 -0.78498673 0.42945114 9
5.822484 2.1712804 0.34509462 9.6000004
5.801733 2.1953959 0.87447101 12
5.8051047 2.2430401 1.1211115 13.4
5.645895 -4.6906567 2.3564 15
5.6847005 -4.522337 2.3360646 15
6.3449974 -3.0305393 0.42880109 8
6.1581717 -2.2321444 0.25351456 8
6.0610132 -2.1180346 0.51001853 9.5
6.2873373 1.8269783 0.37385604 9.666667
6.232717 1.9266834 1.0680381 12.5
6.2054796 -5.2169027 2.3599114 14.333333
6.7260537 -3.0234652 -0.068929546 7
6.6472435 -7.9126406 0.57267559 7.5
6.5923586 1.4845985 0.026073465 8
6.6602039 -2.4528 0.45524418 9
6.6184402 1.5449616 0.2879214 9
6.5588999 1.444648 0.63203359 11
7.1241803 -3.7746296 -0.03123055 6.6666665
6.834929 -2.8385229 -0.19184707 6
6.9927087 -2.7356553 -0.097583428 6.6666665
7.0746188 -0.97436082 -0.21416543 6.5
7.1630063 -4.0559344 0.42872989 8
6.8706217 -3.7405734 0.1927322 7.3333335
7.0208058 -1.2105771 0.097409822 8
6.9768238 -0.96964145 0.084735364 7.75
6.9420018 0.53742617 0.006770784 8
6.88129 -3.8881049 0.72402197 9
6.8681231 -2.9953852 0.58508843 9
6.8958492 -2.642858 0.60235894 9
7.1106663 -5.6923046 2.3363142 14
7.1040659 -1.560968 2.1432672 15
7.1729827 -1.3251634 2.1506908 15
7.2591224 -7.2845216 0.2555522 7
7.2352805 -3.5934644 -0.21183693 6
7.4061866 -1.6009837 -0.43875945 6
7.2010283 -0.86347741 -0.38340095 6
7.3816538 -3.7416728 0.44221371 8
7.2612839 -1.8547512 2.1963937 15
7.5818424 -1.1783201 2.0524697 15
7.5534577 -0.90428823 2.0428598 15
7.6079068 -5.8015156 2.97785 15
7.9581761 -6.6779661 0.16409726 6.5
7.8851795 -3.6564178 0.61671561 9
7.7940063 -3.4032586 0.80297405 10
7.9027009 0.66661417 0.91532159 11
7.9369087 0.68940961 1.1859236 12
7.8691702 0.75442082 1.4578357 13
7.8861341 -2.2854888 2.1552727 14
7.7074156 -2.0419114 2.1052458 14
7.6793699 -1.8457856 2.091754 15
7.8311644 -5.9014702 2.7335668 14
7.7481127 -5.6208644 2.8111858 14.5
7.9462509 -5.3435936 2.7960186 14.5
8.1039705 0.43403533 -0.052249756 8
8.1206522 0.48753047 0.92114073 11
8.0880928 0.5752064 1.3053513 12
8.1440754 0.5952211 1.6424994 13.5
8.166111 -6.542521 2.3465643 13
8.1026258 -5.102984 2.8393605 14.5
8.2792215 -4.8886995 2.7605429 14.333333
8.2971792 -4.8440309 3.0168223 15
8.7696924 -0.062321343 -0.17497116 7
8.7950001 -7.1506219 0.54032338 8
8.6389294 -7.086287 0.95262569 9
8.7665625 -2.2262566 1.9043939 13
8.7475653 -4.6744318 2.5175493 14
8.7795095 -4.4341617 2.5003846 14
8.8205156 -4.2001162 2.4867041 14
8.6218929 -2.3624358 2.0878336 14
8.4467268 -1.6733286 2.0407276 14
8.7383451 -4.2332883 2.7418559 15
8.6858244 -0.028570313 2.3138859 15
8.618185 -4.3824944 3.0047383 15
8.8148575 -4.1330829 3.0235126 15
9.0297394 -4.4587998 -0.05023662 7
8.8449497 -4.2909508 0.21415727 7.5
8.8126116 -4.5837626 0.63208675 9
8.9292803 -0.055403057 0.87321824 10
9.0345507 -0.11838033 1.2951735 11.5
8.981946 -0.022294473 1.6374136 13
8.918808 -3.9971523 2.489219 14
9.0615311 -0.10690702 2.1513894 14
8.9993029 -3.8788111 2.7688129 15
9.1105394 -3.7127345 2.5090525 14
8.9738264 -0.23799659 2.3757682 15
8.9372845 -3.9627116 3.0347557 15
9.0928001 -3.688149 3.0442076 15
9.5335503 -0.49488699 1.2206811 11
9.4867916 -0.3991842 1.6289877 12.666667
9.300787 -0.4797945 2.2277255 14
9.3970556 -3.3278611 2.6328979 14.333333
9.611577 -3.0327442 2.5712545 14
9.4463902 -3.2546494 2.8374228 15
9.3254442 -0.45307201 2.6785455 15
9.8404255 -5.6883636 -0.15980941 6
9.9353828 -5.4281383 -0.17805687 6
10.017071 -0.85530281 1.0028839 10
9.6339569 -0.58904994 0.98507589 10
9.8848906 -0.74768788 1.2498682 11
9.9830818 -0.75021726 1.7817907 12.5
9.7645073 -0.60515255 1.6147929 12.5
9.7951174 -3.3299196 2.3537145 13
9.775178 -2.9366591 2.3341124 13
9.9882956 -2.4861112 2.364373 14
9.8359528 -0.85471165 2.4491534 14.5
9.7308626 -2.8497403 2.8750288 15
9.8544807 -1.1512847 2.8205717 15
10.383164 -1.1415625 1.0208946 10
10.259268 -1.0177115 1.2816558 11
10.217408 -0.97582275 1.6789988 12
10.091626 -0.85371059 2.0243466 13
10.156139 -2.2708161 2.3943031 14
10.409293 -1.2518308 2.2884381 14
10.574183 -9.3948383 -0.016367441 6
10.600172 -9.2407522 0.23521984 7
10.58262 -9.3563862 0.42239821 7
10.8059 -8.6189775 1.9081055 10
10.686713 -1.3131471 1.3180159 11
10.672461 -1.3327082 1.8811787 12
10.766914 -2.0089679 2.3092105 13
10.641006 -1.7497758 2.3001254 13
10.6289 -1.1386994 2.1022747 13
10.575387 -1.7028484 2.4748123 14
10.471415 -1.3003123 2.4538271 14
11.026248 -8.734724 -0.16020921 6
10.976492 -8.6925211 0.077187762 6.3333335
11.022017 -8.6289558 0.50129658 7.3333335
11.151721 -5.68677 1.0454333 9
10.984394 -8.600771 1.826586 10
11.00525 -5.9469137 1.4032617 10
11.139644 -5.6940684 1.4078897 10
11.219354 -1.6505321 1.3660419 11
10.843638 -8.5473652 2.3081048 11
11.11806 -8.0074434 2.2961364 11
11.192139 -7.7023215 2.2818108 11
11.087732 -7.2829361 2.2372375 11
11.14676 -6.9756322 2.2203162 11
11.148697 -6.6458516 2.197732 11
11.151074 -5.6951489 1.9530686 11.5
10.961712 -1.4739519 1.638326 12
11.152316 -8.4041691 2.3323009 11
11.147342 -5.911119 2.2410343 12
11.212944 -5.6386771 2.256089 12
11.044731 -1.4332461 2.158942 13
11.107014 -8.494173 3.4200256 13
10.961704 -7.9836283 3.3232505 13
11.264952 -8.5241642 -0.13790682 6
11.381823 -8.2214432 -0.1111095 6
11.2342 -8.4720964 0.23825842 7
11.443426 -8.1305971 0.12372428 6.5
11.569601 -7.9728308 -0.086700037 6
11.405528 -8.1540003 0.58377415 7.6666665
11.347191 -5.4473085 1.0541555 9
11.296533 -1.8003256 1.0696528 10
11.315075 -5.4564691 1.4148864 10
11.261694 -5.5841789 1.9256371 11
11.410997 -5.3561754 1.7700572 11
11.429543 -1.7997319 1.6962537 11
11.245182 -6.2826085 2.2533619 12
11.412711 -5.3394799 2.146121 12
11.403118 -1.7627475 2.0554609 12.333333
11.493104 -8.7728367 3.1235292 12
11.749843 -8.0216503 0.24070588 7
11.757878 -7.6717501 0.09141168 6.5
11.942159 -7.4655595 -0.03826173 6
11.677718 -7.7434726 0.48009801 7
11.879239 -7.4880972 0.49060032 8
11.851294 -9.2996826 0.80810434 8
11.849336 -9.2601223 1.1740019 9
11.723145 -4.9452934 1.0711793 9
11.909653 -4.687849 1.0810827 9
11.815742 -2.1786201 1.0976051 10
11.776758 -4.8507686 1.4371015 10
11.878117 -9.0503178 2.0387363 10
11.694001 -4.9991035 1.7989939 11
11.864299 -2.1463306 1.7516392 11
12.005753 -8.9494839 2.3785574 11
11.950298 -4.6973772 2.2127602 12
11.787174 -2.038759 2.1578526 12.5
11.703424 -8.4947777 3.1221154 12
11.913811 -8.2219372 3.1244137 13
12.313983 -7.5222073 -0.25689989 6
12.306264 -7.4563494 0.015418003 7
12.35625 -8.3247423 0.69195849 8
12.351081 -8.8435402 0.87027776 8
12.261739 -7.9881139 0.90801311 8
12.039701 -8.9630718 1.1740353 9
12.244068 -8.6650381 1.1738572 9
12.135216 -8.1588516 1.1532776 9
12.394993 -2.594317 1.129324 10
12.041046 -4.4767079 1.4540757 10
12.116241 -2.3620465 1.4452093 11
12.062453 -8.7752819 2.0386498 10
12.34246 -8.4832487 2.0977998 10.5
12.265046 -4.2806354 1.8064249 11
12.395239 -2.5308185 1.8180887 11
12.269431 -2.5006077 2.1412449 12
12.242509 -2.5635352 2.5674765 13
12.114216 -7.9400992 3.1274085 13
12.644342 -7.7804198 0.24421142 7
12.562908 -7.3267508 0.24820817 7
12.741007 -8.1738663 0.71914202 8
12.631816 -8.0539169 1.1737447 9
12.539564 -8.1629572 1.6121558 10
12.730986 -2.7953277 1.5033126 10
12.639289 -8.0661507 2.1140666 10.5
12.607772 -5.2115383 2.1042228 11
12.796566 -2.8761513 2.1912391 12
12.793786 -2.968137 2.6524436 13
12.677526 -7.0676403 3.1396301 13
12.826852 -6.7482991 3.1366897 13
12.798621 -6.3476424 3.1016326 13
12.745304 -5.9446797 3.0621748 13
12.716113 -5.5612192 3.0301766 13
12.753288 -5.2241626 3.0193508 13
12.809679 -7.6657739 0.51496804 8
13.134508 -7.6121998 0.76122087 8
12.848289 -7.766274 1.179764 9
12.876684 -3.3528705 1.1526593 10
12.865703 -7.7468581 1.6182907 10
13.061148 -7.4580812 1.6227715 10
13.078896 -3.5171251 1.5372744 10
13.062338 -3.0646989 1.1683121 10
12.831324 -7.8245721 1.9692035 10
13.138622 -7.3765411 2.1387749 11
12.954876 -5.2005768 1.9489573 11
12.848782 -4.8233013 1.9230876 11
12.958031 -3.2615933 1.8965344 11
12.935207 -2.9455504 1.8876759 11
13.109488 -3.2243071 2.4396954 12
13.249235 -7.1698174 1.1905972 9
13.252708 -7.1952457 2.0270734 10.5
13.581191 -5.8661151 2.4686263 12
13.48145 -3.5213795 2.3467937 12
13.815872 -5.6142783 2.4873137 12
14.012447 -5.3439789 2.4997509 12
14.230125 -5.0770345 2.517607 12
14.216371 -4.0457482 2.4706168 12
27.717253 -19.723299 4.0302258 10
