# .PCD v0.7 - Point Cloud Data file format
VERSION 0.7
FIELDS x y z intensity
SIZE 4 4 4 4
TYPE F F F F
COUNT 1 1 1 1
WIDTH 21
HEIGHT 1
VIEWPOINT 0 0 0 1 0 0 0
POINTS 21
DATA ascii
-0.30118352 0.61496711 -0.19906484 0
-0.0084133316 -0.68262166 -0.21449901 0
-0.11406264 0.76204932 -0.1896763 0
0.12748861 -0.98653489 -0.22192496 1
0.14980735 -0.71074748 -0.21909375 0
0.10897884 0.70324844 -0.20052409 0
0.20261984 1.0094663 -0.18585059 1
0.052758016 -1.2522696 -0.21966963 3
0.39547127 -0.59299606 -0.20781747 0
0.31407019 0.71135569 -0.20465267 0
0.53938353 -0.71135145 -0.2027961 1
0.53918821 -0.41334453 -0.20271741 0
0.58844262 0.37369394 -0.18639998 0
0.65863937 -0.93458152 -0.22041844 2
0.60682064 -0.3520799 -0.20733719 0
0.68824911 0.65335578 -0.20086496 0
0.60604644 0.932693 -0.20483892 1
0.72517532 -0.77745867 -0.19599222 2
0.81818545 -0.71002507 -0.20076701 2
0.82228196 -0.54036063 -0.19867487 1
0.92600882 0.99312377 -0.20646274 2
