# .PCD v0.7 - Point Cloud Data file format
VERSION 0.7
FIELDS x y z intensity
SIZE 4 4 4 4
TYPE F F F F
COUNT 1 1 1 1
WIDTH 99
HEIGHT 1
VIEWPOINT 0 0 0 1 0 0 0
POINTS 99
DATA ascii
-0.39404395 -0.84223098 -0.19715646 151
-0.55036485 -0.79070598 -0.19952285 138
-0.4823547 -0.73316175 -0.19860153 144
-0.32222939 -0.76542574 -0.19943063 157
-0.65290838 -0.68306041 -0.20564622 135
-0.41146129 -0.67465526 -0.2042082 157
-0.23610277 -0.67181873 -0.19706964 165.66667
-0.17108151 -0.60182428 -0.19760522 171
-0.32061553 -0.59686875 -0.19895317 169.5
-0.22605912 -0.51653534 -0.19630536 173
-0.14953633 -0.57854468 -0.19748805 172.5
-0.083826244 -0.50539064 -0.18975335 173
-0.28985181 -0.44398701 -0.19934747 172.5
-0.12675188 -0.43195289 -0.19258802 174.83333
-0.036591496 -0.45493218 -0.19144833 180.44444
0.0090188002 -0.40612373 -0.19276132 183
0.7851032 -0.40729049 -0.16983472 189
0.8519904 -0.45181867 -0.18112242 190.33333
-0.14803772 -0.34967253 -0.19158205 175.14285
-0.069026127 -0.35685492 -0.19381449 179.60001
0.68772936 -0.30887118 -0.1722652 183.2
0.75776309 -0.34638894 -0.17347583 186.27272
0.84313756 -0.3437188 -0.17445254 190.39999
0.9305594 -0.32908219 -0.18123357 193
-0.38546297 -0.27209204 -0.20364539 175.5
-0.25632414 -0.22605015 -0.19621842 172.25
-0.18600689 -0.20129849 -0.19601053 171
0.5929929 -0.20887807 -0.18825722 174.2
0.64274365 -0.24313618 -0.18659906 177.90909
0.73936701 -0.24158362 -0.17505951 183.26315
0.85446769 -0.24410258 -0.16823335 188.09091
0.94347382 -0.24888556 -0.17761077 189
-0.21698451 -0.13247032 -0.12354382 172
-0.18155847 -0.14784534 -0.17956546 169.7
0.083944924 -0.14027053 -0.12180443 140.57143
0.11675393 -0.12331639 -0.11556783 130.5
0.64951384 -0.15325324 -0.18726793 175.42857
0.75960845 -0.1437832 -0.1768856 181.72728
0.85161841 -0.15226236 -0.16553017 187
0.93976396 -0.14805913 -0.16750439 190
-0.31731194 -0.073305078 -0.19789711 177.5
-0.22621828 -0.063784525 -0.19778551 174
-0.18512076 -0.059515234 -0.20038895 178
0.66803789 -0.05201605 -0.18547891 174.74074
0.76063037 -0.050947461 -0.17823808 180.04762
0.85307759 -0.056075871 -0.16341724 185.8
0.93954164 -0.046672594 -0.16288066 189.8
-0.3154408 0.032678388 -0.20125687 175.75
-0.25244167 0.054774124 -0.19995379 174.85715
-0.18707681 0.0094593754 -0.20101342 175.5
0.19751997 0.097415663 -0.16459352 121.5
0.20460948 0.092035048 -0.1567363 122
0.66962808 0.049272999 -0.18472746 175.03847
0.75921392 0.050316971 -0.17947343 180.27272
0.85526866 0.05516335 -0.1654283 186.06667
0.92724049 0.049014878 -0.16199547 190.25
-0.32038099 0.18185671 -0.18417738 174.5
-0.24350683 0.1603298 -0.16743565 148.16667
-0.18916073 0.1495543 -0.19920368 177.5
0.093147568 0.14520155 -0.11529645 142.60001
0.16060367 0.13594839 -0.12234189 130.56522
0.21615492 0.11201545 -0.15186781 121.78571
0.58954442 0.20006117 -0.19222552 174
0.64453256 0.15242897 -0.184861 175.10345
0.76151872 0.14905992 -0.17531887 181.33333
0.84932208 0.15009195 -0.16580302 186.375
0.95074874 0.14404123 -0.16976856 190.60001
-0.35702953 0.29309624 -0.20014189 178
-0.25015005 0.25092277 -0.19817261 177.16667
-0.1584526 0.21496603 -0.19805838 179
0.081886269 0.21544798 -0.1798017 175
0.5956803 0.20750496 -0.18741733 174.66667
0.64509261 0.24878561 -0.18284105 178.76923
0.73765242 0.24058864 -0.17154843 182.78947
0.84873086 0.24545605 -0.16581705 187.36363
0.92968827 0.24212639 -0.1705979 187.5
-0.37690467 0.3009567 -0.2006277 180
-0.15790284 0.39196604 -0.20020398 178.5
-0.030260893 0.3862347 -0.19838953 184
0.69385773 0.30977535 -0.16975988 182.5
0.75652409 0.34713462 -0.17162944 186.27272
0.83773667 0.35253263 -0.1703696 189.60001
0.92616749 0.32330418 -0.17880762 187.5
0.78944927 0.40482369 -0.16803342 191
0.85190833 0.46341902 -0.17966096 193.2
0.9095524 0.40516657 -0.18379803 192
-0.11952978 -0.22881591 -0.026335316 135
-0.25531271 -0.13907585 -0.079423822 151.55556
-0.12076001 -0.16290908 -0.010555087 143
-0.0609635 -0.19786708 -0.010210818 128
0.063341439 -0.14364202 -0.06774766 134.25
-0.38480332 0.18959281 -0.096754916 135
-0.25759178 0.15563621 -0.085625984 137.25
0.083230607 0.14109017 -0.065603346 125.52941
0.127487 0.13496456 -0.098115832 128.66667
-0.067219473 0.2821447 -0.018075777 159
-0.015142909 -0.17363372 0.0025609557 124
0.065658033 0.17287099 0.039846584 119
0.006251839 0.22158715 0.014507289 141
