# .PCD v0.7 - Point Cloud Data file format
VERSION 0.7
FIELDS x y z intensity
SIZE 4 4 4 4
TYPE F F F F
COUNT 1 1 1 1
WIDTH 587
HEIGHT 1
VIEWPOINT 0 0 0 1 0 0 0
POINTS 587
DATA ascii
-15.056878 -4.1238565 2.6133819 12
-14.970715 -4.648756 2.880785 13
-15.108258 -3.9445312 2.9520454 13
-14.705489 -6.1392922 2.8954246 12.5
-14.549004 -5.0255351 3.0715518 13
-14.299485 -5.2733908 -0.064139158 7
-14.353723 -5.3645277 0.40280113 8
-14.19183 -4.2095075 3.053144 13
-13.290654 -5.207305 2.3124795 12
-12.905428 -5.5060139 1.4707469 10
-12.979844 -3.9593167 1.4163278 10
-13.040445 -3.468817 1.2003838 10
-12.837792 -4.9176717 1.8612343 11
-12.866329 -4.6234646 1.5038531 10
-13.007334 -3.8337133 1.5592867 11
-13.039937 -3.5161462 1.5814779 11
-13.033952 -3.6882412 1.928313 11
-13.210031 -4.8486447 2.3054447 12
-13.021153 -3.8371994 2.2921269 12
-13.040621 -3.537271 2.3022203 12
-12.576956 -5.9995799 -0.33812633 7
-12.803909 -4.994266 1.0251534 9
-12.788953 -5.1052256 1.4741993 10
-12.79428 -5.2364316 1.8490722 11
-12.645796 -5.9299912 2.212393 12
-12.766737 -5.3262653 2.2322979 12
-12.241731 -5.8216972 2.7299407 13
-11.572411 -4.1789927 2.2648528 13
-10.852419 -2.9601576 2.4286954 13
-10.518064 -5.8189516 2.5586882 13
-10.670355 -3.041858 2.5947123 14
-10.697619 -2.6511948 2.5170391 13.5
-10.534455 -2.1769648 2.5442879 14
-10.518061 -1.7264301 2.5495126 14
-10.485047 -1.5372102 2.6302421 14
-10.462654 -2.0182581 2.8671329 15
-10.49214 -1.7728856 2.88662 15
-10.544419 -1.4049433 2.9207997 15
-10.621794 -0.94723171 2.8996785 15
-10.289731 -3.1148243 2.4855654 14
-10.366159 -2.5431006 2.5624318 14
-10.073673 -4.2471409 2.7387414 14
-10.236277 -3.2406631 2.7759995 15
-10.291743 -2.996074 2.793139 15
-10.351662 -2.5813553 2.907819 15
-10.407124 -2.2589037 2.8424149 15
-9.8972597 -5.2929597 2.7270489 14
-9.9769278 -4.7603207 2.727608 14
-9.5167761 -5.5214057 2.6539016 14
-8.9186039 -5.5700464 0.55051076 9
-8.9551096 -3.4695795 2.0965307 13.5
-8.8578978 -5.554637 2.5133502 14
-8.519742 -2.9151442 2.3608425 15
-7.6977363 -5.3354249 2.2574749 14
-7.7820592 0.73865986 2.2335622 15
-7.7123432 -2.9898055 2.3858581 15
-7.3715467 -3.9681916 0.015964767 7
-7.5604711 -5.2924442 0.39824381 9
-7.3253703 -5.3053966 2.0549963 13.5
-7.4691482 1.0257605 2.1705925 15
-7.5638561 -5.3254385 2.4845662 15
-7.0869665 -2.2458043 -0.11353888 7
-7.1432314 -2.0415251 -0.05899686 7
-6.8650708 -2.2148459 0.37782684 9
-6.8401222 -1.9429415 0.77680016 10
-6.9170775 -5.2424431 1.8558426 13
-6.8722086 -5.2460752 2.0855005 14
-6.9907002 -5.1544366 2.3403556 15
-6.7708869 -1.9642668 0.75469375 10
-6.0628324 -2.5636094 0.080346413 7.5
-6.2044258 0.83275229 1.838359 15
-5.6351428 -3.0328007 0.28562185 9
-5.623734 -2.7047694 0.30545869 9
-5.6732659 -3.0395174 0.56804049 9.5
-5.8646393 -2.2962468 0.66924298 10
-5.3786497 -3.1309369 0.21123095 8.666667
-5.3238602 -2.6383862 0.15055831 8
-5.2487483 -1.5624698 0.37120655 9
-5.2374034 6.6273675 1.0677922 11
-5.2859344 -4.5762472 1.3836024 12.5
-5.2935448 6.6316648 1.4042736 12
-5.5100665 -4.6115804 1.6699048 13.5
-5.4637299 -4.6145835 1.9565707 15
-4.860498 -4.5149636 -0.11917888 7
-4.8504004 -4.4974861 0.15436615 8
-4.8038063 -4.2167592 0.1966458 8
-5.1417961 -2.8379138 0.11739089 8
-4.927237 -1.7999142 0.13473703 8
-4.8245101 -1.290823 0.20411912 8.5
-4.9416461 -1.1831144 0.16795318 8.333333
-4.8474665 3.7647784 0.22316831 8.5
-4.9308062 -4.5146394 0.61159241 9.666667
-5.1487126 -4.2498393 0.40404162 9
-5.1826563 -3.0786829 0.4564552 9
-4.9097071 -1.4022714 0.50812912 10
-4.9544392 -1.1757437 0.66370374 11
-4.8270116 3.7413023 0.55344886 10
-4.9129276 4.1986966 0.67979538 10.333333
-4.9536138 4.4596329 0.62904239 10
-5.0321259 4.9119377 0.62337172 10
-5.0616932 5.2647214 0.42219853 9
-5.016674 -4.5381656 0.92225569 11
-5.0103745 -1.4109708 0.79527456 12
-4.8614998 3.8099759 0.88284409 11.666667
-4.9083467 4.170033 0.96128017 11.666667
-4.9686847 4.5613441 0.9094075 11.333333
-5.0431647 4.9775648 0.88713002 11
-5.019145 5.3024988 0.9492687 11
-4.8890228 -4.5035062 1.3316082 12.5
-4.8222146 3.5904419 1.3471203 14
-4.8378878 3.7683342 1.3419079 13.5
-4.9016571 4.1672363 1.3977534 13.5
-4.959415 4.5972505 1.4484538 13.333333
-5.0105958 4.9723825 1.3102441 12.333333
-5.0071054 5.3194251 1.3185519 12.333333
-5.0425534 -4.5388331 1.7684095 14.5
-4.8489528 3.8233707 1.6099192 15
-4.9114542 4.2166548 1.64675 14.666667
-4.9787202 4.6502585 1.7247059 14.666667
-5.0407782 4.9943242 1.756229 14.333333
-4.9793658 5.3168745 1.8124599 14.333333
-4.5411453 -4.6100416 -0.14292338 7
-4.7265959 -4.8292041 0.30976868 8.5
-4.7201061 -4.6350064 0.10593216 7.6666665
-4.7512889 -1.7399132 0.025777169 7
-4.7613392 -1.43104 0.15100659 8.25
-4.5273066 1.8299382 0.17553003 8.3999996
-4.5630469 2.1480041 0.23987378 8.666667
-4.6198053 2.5434983 0.26230696 9
-4.7180409 2.9984543 0.21303962 8.5
-4.7563004 3.3716431 0.14819247 8
-4.6024795 3.8224769 0.20908904 8.166667
-4.4754357 4.177042 0.30087528 8.5
-4.5279484 4.4732018 0.23565951 8
-4.7717776 -4.6936111 0.57945371 9.5
-4.5750823 -2.9049723 0.69671011 11
-4.5107656 -2.6649334 0.60942161 10.4
-4.6934814 -1.7395686 0.63733977 11
-4.538765 1.8606415 0.56423002 10.75
-4.5888286 2.1841824 0.56352317 10.666667
-4.66401 2.5965745 0.54552537 10.2
-4.7232871 2.9886594 0.57653165 10.2
-4.6876335 3.4574535 0.67653227 10.5
-4.4384413 3.9799829 0.46211541 9
-4.5030084 4.2610555 0.37782902 9
-4.5124283 4.4776649 0.39400303 9
-4.7428703 -4.8397231 1.1459979 12
-4.7764602 -4.6819596 1.0270238 11.666667
-4.59515 -3.2294345 0.85453105 12
-4.6325159 -2.9558482 0.8572278 12
-4.5587478 -2.6976724 0.84798783 12
-4.4244232 1.5607573 1.1050127 14
-4.5381322 1.8595018 1.0227265 13.4
-4.5946555 2.2067688 0.96254569 12.833333
-4.6336322 2.5324626 0.92534792 12.5
-4.7150702 2.9683936 0.84231418 11.666667
-4.7951341 3.3985217 0.86298007 11.666667
-4.7890525 -4.6209135 1.4582795 13
-4.4360704 1.5296118 1.1786894 14
-4.5001106 1.7297215 1.3171076 14.666667
-4.5926323 2.2110655 1.3084584 14.4
-4.6724968 2.6180267 1.2213714 13.666667
-4.7312541 2.9979815 1.2803577 13.6
-4.7808995 3.3631232 1.3437045 13.833333
-4.7899055 3.6150486 1.2033267 13
-4.7875752 -4.6658969 1.7351494 14.5
-4.812283 3.623441 1.5647931 15
-4.6055231 5.4022093 1.7303042 14
-4.0512547 -4.7558832 0.17694896 8
-4.0870457 -3.6411409 0.041490003 7
-4.1418824 -3.5269582 0.0085287942 7.5
-4.2236695 -2.6087744 0.07760068 7.75
-4.2078395 -0.89215893 0.189229 8.5
-4.2515631 2.2514036 0.15175937 8.333333
-4.0574703 -4.7770066 0.66828811 10
-4.0044756 -3.4264226 0.38165379 9
-4.3466511 -2.3530242 0.68531346 11
-4.0989637 -1.9768252 0.66985261 11
-4.0748281 -1.4323192 0.47535434 10
-4.4079528 5.4233036 0.64693338 10
-4.045301 -4.7530909 1.0228915 12
-4.3589163 -2.3851855 0.82534999 12
-4.1154695 5.4184561 0.99086958 11.333333
-4.0970712 -4.7817202 1.3775728 13
-4.3118849 1.0817587 1.2190681 15
-4.3506222 1.3176644 1.2665341 15
-4.2113671 5.4624529 1.3314774 13
-4.3461242 5.447165 1.7363834 14
-3.8604228 -4.7707887 0.090584137 7.6666665
-3.734417 -3.1302903 0.2297307 9
-3.7272656 -2.6674631 0.20547213 8.5
-3.8194344 -1.5083672 0.050711289 7.6666665
-3.978946 -0.89728683 0.094999045 8
-3.9892573 2.2904181 0.132881 8
-3.9495213 -3.3941126 0.48984811 10
-3.8223035 -3.1401258 0.43324041 10
-3.7891643 -2.7381485 0.579629 10.75
-3.695893 -2.2 0.47918352 10
-3.752739 -1.8094659 0.41029039 10
-3.7954118 -4.7490287 0.91727793 11.6
-3.7911668 -2.6567817 0.89122063 13
-3.8180921 5.395021 0.99057692 11.5
-3.8504503 -4.7490892 1.4509596 13.666667
-3.8611665 5.4032984 1.3194346 13
-3.8463449 5.4015393 1.7684575 14.4
-3.5806954 -2.7651205 0.10427573 8
-3.2442648 3.8543277 0.14346866 8
-3.3170519 4.2482395 0.21083987 8.333333
-3.560173 -3.020046 0.67287707 11.5
-3.5240026 -2.1197743 0.37365267 10
-3.4199164 3.3242319 0.44436032 10
-3.3628309 -4.6670585 0.85675931 11.5
-3.4218597 5.4712701 0.97082031 11.5
-3.4308627 5.47469 1.3330637 13
-3.4539528 5.4673347 1.7329053 14.5
-2.8104162 -1.5833895 0.13512042 8
-2.8188171 -0.94049448 0.25349975 10
-2.9990826 3.3175485 0.14291494 8
-2.9063137 5.4677048 0.31097803 8.5
-2.8593526 -4.5919752 0.74407053 11
-2.8377979 -0.94885534 0.5746789 13
-3.1045346 3.4177198 0.42220894 10
-3.02368 5.5185628 0.66515177 10.5
-2.8215964 -4.5981708 0.87865543 12
-2.8195682 -1.8257779 0.88177365 14.5
-3.0871854 5.5137134 0.952434 11.666667
-3.0120246 5.5275817 1.3453459 13
-3.0721688 5.5192766 1.6704363 14.5
-2.422168 -4.3257785 0.15383284 8
-2.7920649 -3.9389732 0.30425498 9
-2.5094268 -3.1481297 0.29268038 9.5
-2.6830237 -2.0489278 0.26303732 10
-2.6750722 -1.9168152 0.17910285 9
-2.7681899 -1.3243783 0.25098899 9.5
-2.5141268 3.478236 0.32539168 9.666667
-2.6446207 4.3269095 0.27659875 8.666667
-2.4347172 -3.7225976 0.66930044 11
-2.466799 -3.443265 0.42592999 10
-2.5643837 -2.982183 0.53414893 11
-2.5839255 -2.4261436 0.73286897 13
-2.6423697 -2.3604684 0.77154756 13
-2.6714232 -1.7606717 0.69712061 13
-2.7487063 -1.3583707 0.53930819 12.25
-2.5997295 3.4610796 0.43677816 10
-2.7963734 -4.5859475 0.85317272 12
-2.4323089 -3.5393479 1.0305928 14
-2.6251454 -2.6410942 0.78493619 13
-2.6595955 -2.3481333 0.79404485 14
-2.7230887 -1.7480431 0.90092289 15
-2.749871 -1.4412636 0.82757956 14.666667
-2.7209496 5.568687 1.0915883 12.5
-2.5738087 5.6224303 1.0252581 12
-2.4155326 -4.0116858 1.3324617 15
-2.4820249 -3.7470121 1.2960306 15
-2.4373395 -3.3497324 1.2233469 15
-2.6902437 5.5785651 1.5247434 14
-2.5764723 5.6293912 1.274573 13
-2.7352631 5.5716267 1.6617538 14.5
-2.5213485 5.6374426 1.6631521 14.5
-2.1627493 -4.3258882 0.12547024 7.7142859
-2.3843434 -3.8667037 0.21905811 8.5
-2.3156166 3.527792 0.22913653 9
-2.1148238 5.6927681 0.33954662 9
-2.1796365 -4.3137846 0.590294 10.8
-2.2535264 3.5117342 0.46051958 10.333333
-2.1817303 5.6779771 0.65329295 10.333333
-2.1815491 -4.360302 0.96569711 13
-2.1960464 5.6724277 1.1085476 12.5
-2.2618105 -4.2485876 1.3086953 14.6
-2.3803248 -3.5900643 1.2540878 15
-2.2494822 5.6673412 1.5405818 14
-2.2100811 5.6769795 1.6575043 14.5
-1.8533868 -4.4225931 0.12853554 7.8000002
-1.6162975 -4.3939619 0.14486681 8
-1.7088597 3.6145358 0.32709271 9.5
-1.7643987 5.7736635 0.37425116 9
-1.8100616 -4.4129109 0.64020896 11
-1.7851666 -4.3781815 0.60401064 10.8
-1.7605791 -3.8239806 0.67120993 12
-1.7924609 3.5851817 0.45783436 10.333333
-1.648725 3.598309 0.44932982 10
-1.8050902 5.7692423 0.57419223 9.75
-1.8349499 -4.4144812 0.78938955 12
-1.7539651 -4.4013529 1.1118306 14
-1.7102134 -3.6908686 1.0439721 14.5
-1.7983708 5.7601004 1.1103159 12.4
-1.859605 -4.4151125 1.2892638 14.5
-1.7751164 -4.3791471 1.3397937 14.8
-1.7634103 5.7721124 1.5748982 14
-1.8306791 5.755825 1.6831723 14.666667
-1.4139496 -4.355679 0.14810082 8
-1.554988 3.646636 0.31049389 9
-1.4137107 -4.3467102 0.60836607 11
-1.4723556 3.6475921 0.47551799 10.666667
-1.3480225 5.8321171 0.66808498 10.333333
-1.3293111 -4.3294139 1.0876966 14
-1.430656 5.8130999 1.1248626 12.4
-1.4404544 -4.3480663 1.2661353 14.666667
-1.4638835 5.816267 1.5406992 14
-1.4268224 5.8213267 1.7484236 15
-0.96132046 -4.2855449 -0.042973477 7
-1.0278287 -4.2852669 0.16159223 8.1999998
-1.0230826 -4.2796135 0.6075455 11
-1.0269622 3.7306991 0.47351369 11
-0.98455799 5.8780193 0.59230614 9.8000002
-0.99450636 -4.2732949 1.0759274 14
-1.0309142 5.8695717 1.1406708 12.5
-0.96269721 -4.263166 1.2473658 15
-1.0457767 5.8733244 1.5504591 14
-1.0229093 5.8751011 1.7614322 15
-0.66806906 -4.2373624 -0.02133302 7
-0.46023554 -0.91528887 -0.20282081 1.5
-0.48368791 -0.67718232 -0.20700608 0.40000001
-0.59781915 0.38914108 -0.21157175 0
-0.46927175 0.67768997 -0.22569948 0
-0.53919262 -4.2098413 0.14549063 8.125
-0.60247135 -4.2143292 0.59998894 11
-0.69035268 3.8026667 0.49403593 11
-0.51827484 5.2746563 0.58849263 10
-0.75251031 5.8328271 0.59790367 9.666667
-0.57608384 -4.2064748 1.1176027 14.5
-0.47735173 5.2891374 1.0484375 12.5
-0.7296055 5.7560754 1.0122283 12
-0.5970695 -4.2065296 1.2367811 15
-0.60957271 5.2794766 1.5024061 15
-0.7282002 5.9093761 1.4852184 14
-0.65398383 5.9078798 1.7310193 15
-0.37963042 -0.82840937 -0.20305698 1
-0.27098873 -0.65440291 -0.20260181 0
-0.33169371 0.6697523 -0.21912548 0
-0.18841544 -4.1545062 0.13536045 8
-0.25062266 -4.1563935 0.58798712 11
-0.23337428 5.3059416 0.62379616 10.4
-0.20493874 -4.1478028 1.1093731 14.5
-0.23266551 5.316371 1.0170237 12.333333
-0.22601713 -4.1480718 1.2251247 15
-0.24157891 5.3255033 1.4569173 14.333333
-0.080666125 5.3831778 1.6085107 15
0.21176676 -4.0864596 0.15186067 8
0.35851619 -1.5979537 0.15935875 10
0.19480588 -4.083549 0.62448996 11.5
0.15113842 5.411407 0.62961566 10.285714
0.29068783 -4.0622439 1.1672558 15
0.19120409 5.3945999 1.0545757 12.428572
0.19641231 -4.0815911 1.2258276 15
0.001970673 5.4193816 1.4283066 14
0.26731753 5.68327 1.5539901 14.666667
0.045720216 5.5565081 1.6518967 15
0.24920154 5.6964226 1.6899117 15
0.69422519 -0.20696178 -0.18340451 0.2857143
0.72217709 0.20876569 -0.17780846 0.40000001
0.78944945 0.40482345 -0.16803291 1
0.57024276 -4.0261168 0.18060572 8.1999998
0.70951021 -3.966289 0.13740815 8
0.58298862 -1.6930887 0.29880112 11.714286
0.64233392 -1.4858721 0.28703779 12
0.7776742 -1.098088 0.27997056 12.833333
0.57045603 -4.0220771 0.62969643 11.4
0.79667521 -3.9756649 0.67619628 12
0.62244475 -1.696431 0.47673509 14.333333
0.61512536 -1.5618672 0.45727879 14.5
0.7900582 -1.1536176 0.41982079 15
0.70382845 5.4890509 0.47106096 9
0.62992895 6.0696039 0.72856593 10.333333
0.60095268 -4.0120621 1.1872807 15
0.72751403 -3.9918411 1.1249136 14.5
0.45821336 5.8963389 0.91121477 11
0.62131429 6.0716085 1.056753 11.666667
0.47955549 -4.0283074 1.2315415 15
0.39990759 5.4745669 1.4295948 14
0.61985558 5.6657805 1.464427 14
0.62303871 6.0669894 1.2301526 13
0.43782511 5.5094666 1.6487623 15
0.65666968 5.6829243 1.6970403 15
0.99788111 -0.53438914 -0.17172889 2.4285715
0.976753 -0.22290827 -0.16959004 1.8571428
1.0163403 0.21092997 -0.16918921 2
0.99402916 0.49410671 -0.1730393 2.2
0.97386402 -3.8562734 0.14864384 8
0.86627185 -1.801387 0.26117396 10.714286
0.82523352 -1.4133399 0.29349345 12.1
1.0215219 -1.0031778 0.27500552 12.375
0.92828882 -3.8655078 0.64770681 11.5
0.83790958 -1.6265447 0.4453702 14
0.82610822 -1.4557201 0.4638474 14.666667
1.0382097 -1.007779 0.43898496 15
1.031186 5.5404911 0.48106927 9
0.98722452 5.7550144 0.66289514 10
0.83612961 6.096571 0.78790945 11
1.0227017 -3.8348472 1.1523288 14.75
0.99739474 6.1333818 1.0103283 11.5
1.0575354 -3.8263111 1.2095128 15
0.93566221 5.7216678 1.532922 14.5
0.95576388 6.1148887 1.2548904 13
0.96823812 5.7105236 1.7143317 15
1.5470836 -3.8667352 -0.02297296 7
1.4653678 -0.99793768 -0.083903179 5.5
1.3654037 -0.59634435 -0.15750907 3.6666667
1.3683847 -0.2390458 -0.15624693 3.5
1.3819088 0.22028744 -0.1581572 3.3333333
1.3920406 0.57877892 -0.15105948 3.8
1.4594181 0.83654386 -0.14783049 4
1.4027132 -0.96818572 0.2385022 10.866667
1.5938474 1.4286152 0.37039503 12
1.56452 1.6105765 0.38116682 12
1.3970305 -3.8725355 0.73453045 12
1.410967 -0.94494861 0.46137184 14.666667
1.3812591 5.5695834 0.4889046 9
1.3782707 5.7107568 0.6119858 10
1.4287673 6.0252199 0.73177534 10
1.3943098 6.1946368 1.0355572 11.5
1.3144784 -3.8818903 1.2242504 15
1.3149779 5.797049 1.5265465 14.333333
1.3739508 6.1614184 1.2842747 13
1.4542036 5.7259593 1.6914459 15
1.6379979 -3.8400612 -0.016882369 7
1.6993892 -1.0493419 -0.11227009 5
1.7870249 -0.62838233 -0.13808015 4.5
1.7432004 -0.15907428 -0.12970135 4.3333335
1.6741717 0.19828823 -0.13719143 4
1.6964198 0.63690829 -0.13584857 5
1.843972 1.0016462 -0.14757179 5
1.6905296 -3.8389659 0.14088714 8
1.7548424 -0.92180723 0.24283972 10.285714
1.7205628 1.4568027 0.37095308 11.5
1.9164439 1.7155082 0.27853626 9.5
1.8431721 5.6328988 0.42040947 9
1.8266722 -0.89340055 0.51177222 13.875
1.8067064 5.6673908 0.54616481 9.5
1.789844 6.2327375 0.7512458 10
1.7738225 6.2538562 1.0057275 11.5
1.6908247 5.9197164 1.3852295 13.5
1.5845293 6.0932107 1.2859707 13
1.8135481 5.782342 1.7130769 14.8
2.0303831 -1.0207046 -0.034846999 6
2.1041632 -0.52943474 -0.1305379 5
2.0445871 -0.3036274 -0.1217296 5
2.1940396 0.21838073 -0.11970663 5
2.2117131 0.68101704 -0.13890208 5
2.3289688 1.1632965 -0.14624874 5
2.117126 1.341054 -0.15914381 5
2.0848508 1.7316626 0.012144864 7
2.1219013 -0.8635481 0.24560061 9.8999996
2.3403201 -0.79204524 0.21655974 9.5
2.0758164 1.7296575 0.038105235 7
2.230608 4.2633772 0.39698467 9
2.1515443 4.5672975 0.41658726 9
2.0791652 5.0997148 0.38595676 9
2.1666291 -0.82104862 0.5661208 13.714286
2.3426595 -0.78943604 0.56462097 13
2.2772813 4.3267064 0.62069607 10.5
2.1908014 4.6387753 0.55861425 10
2.1076491 5.0796056 0.44421721 9
2.1793902 5.714201 0.57028037 9.6000004
2.0422301 6.2782788 0.75859088 10
2.1488831 6.3142104 1.0493342 11.4
2.182529 5.9321747 1.4042189 13.5
2.1947076 5.8253856 1.7215247 14.5
2.3268142 6.3587728 2.0826252 15
2.4739506 -0.94681239 -0.048726749 6
2.7219563 -0.42436096 -0.13665825 5
2.7487273 -0.1401002 -0.12749323 5
2.7824779 0.14738961 -0.13290991 5
2.762538 1.0549543 -0.1394207 5
2.7837176 1.4338654 -0.14618321 5
2.5986207 1.7122298 -0.1583723 5
2.4327402 -0.95229763 0.099562466 7.5
2.6007006 -0.75133449 0.24407998 9.4444447
2.7020674 3.9754992 0.3345716 9
2.3948023 4.0647731 0.34966201 9
2.5988667 -0.74679929 0.60228986 13
2.5443401 4.2936473 0.54843712 10
2.5282435 5.7618446 0.68514675 10
2.6191797 -0.73581481 0.84298611 15
2.5463948 5.8037896 1.0243672 11.5
2.4210949 6.1305299 1.1168389 11.666667
2.561254 5.7971234 1.3596623 13
2.5437634 5.7763677 1.7013434 14.333333
2.5055826 6.3857327 2.1046665 15
2.6913309 6.417542 2.1283689 15
3.1240747 -0.84320545 -0.10050942 6
2.8525751 -0.75492233 -0.14947632 5
2.9634924 0.62738949 -0.14070137 5
3.0957792 -0.85433459 0.069342911 7
3.0236249 -0.68369383 0.23977026 9
2.9656956 -0.68839854 0.59877878 12.285714
3.1815896 3.8725483 0.72403729 10.666667
3.0396008 4.2430367 0.66507161 10.285714
2.9207866 4.6014538 0.63128269 10.25
2.8751974 4.8897662 0.736435 11
3.0619688 -0.6758517 0.87767088 14.666667
3.0077188 4.3338542 1.0416286 12.333333
2.9170098 4.5779114 0.93262213 11.5
2.8748889 4.9507842 0.9869374 11.6
2.8190126 5.4143391 1.0082282 11.333333
2.9773545 4.3291187 1.4391193 14.5
2.8975587 4.6000557 1.4165078 14
2.8452909 4.9966216 1.463704 13.8
2.7969806 5.3975086 1.49709 13.5
2.807471 5.6523647 1.4642 13
2.8827093 5.5380373 1.7763817 15
2.7872851 5.6786671 1.8026789 15
3.1475356 6.2521429 2.130573 15
2.9774575 6.4591904 2.1642604 15
3.3701231 0.91079134 -0.14801994 6
3.4755898 1.3694055 -0.14211835 6
3.4328089 -0.61752689 0.21309283 8.5
3.3999844 3.0531669 0.25502515 8.5
3.5047085 3.5178585 0.29468209 8.333333
3.4031878 3.7849977 0.29667887 8.5
3.2910612 4.1220651 0.31849742 8.5
3.3108251 4.5925527 0.28118208 8
3.4314513 -0.6149298 0.64810032 12.142858
3.4111314 3.0917542 0.68158543 11
3.4474447 3.4899254 0.62004852 10.4
3.313695 3.8242042 0.64307123 10.285714
3.2952187 4.224844 0.6816079 10.333333
3.3567452 4.5650368 0.50844955 9
3.3876619 -0.6224857 0.92290533 14.333333
3.3196802 3.0851381 1.0615817 13.5
3.4421148 3.436707 0.94174218 12.333333
3.3424499 3.787828 1.0042644 12.428572
3.2312071 4.1537051 1.0142189 12.333333
3.3538585 4.4960833 1.0065968 12
3.3374813 3.1000564 1.3763578 15
3.5051665 3.5295084 1.3894725 14.666667
3.3447616 3.7448173 1.4060961 14.571428
3.305815 4.2494621 1.3660393 14
3.3452797 4.5175405 1.4238417 14
3.3339341 4.4952946 1.7323216 15
3.2183285 5.7210684 2.0092337 15
3.1933968 5.9953713 2.0725763 15
3.7212951 -0.60454583 -0.1321746 6
3.9788373 0.80907357 0.035857473 7
3.8992684 1.3225818 0.028047485 7
3.8024745 -0.55862576 0.22055514 8.5
3.9837673 0.70460117 0.27801886 9
3.9436698 0.99147159 0.21853535 8.2857141
3.8811975 1.4116658 0.20781241 8
3.8177085 1.8339069 0.27020994 8.666667
3.7654994 2.1788323 0.25923291 8.4285717
3.7422202 2.6279604 0.23384567 8.1999998
3.651166 2.968235 0.24800803 8.5
3.7861516 -0.56272227 0.63515985 11.8
3.9782493 0.72173077 0.64758569 11.333333
3.9354908 0.99141812 0.62381434 11.285714
3.8774276 1.4064255 0.63079041 11
3.8228862 1.7748828 0.64608419 11
3.7656529 2.1580405 0.56742144 10.6
3.6933138 2.6216421 0.63142985 11
3.6386635 2.9770494 0.67364216 11
3.7543707 -0.56444424 1.0734346 14.5
3.9760432 0.68993354 1.0247897 13.8
3.9319441 1.0406072 1.0269493 13.833333
3.8742261 1.4083092 1.0479748 14
3.806139 1.8296897 1.0180089 13.444445
3.7577882 2.1725423 1.0293622 13.285714
3.7032175 2.5536034 1.0114113 13
3.6876545 3.0148544 1.0833365 13.25
3.9304783 0.97800732 1.2598011 15
3.8464487 1.7226847 1.2437885 15
3.7549171 2.1941798 1.2778571 15
3.683543 2.663095 1.3162742 14.666667
3.6380122 2.9970784 1.3702853 14.666667
4.1330895 -0.62363243 -0.030583763 6.5
4.1500039 -0.19697042 -0.014134016 6.6666665
4.107872 0.25581145 -0.044439934 6.5
4.0630441 0.60785544 -0.0093652271 6.6666665
4.1092253 1.1426938 -0.045540486 6
4.0422273 1.6284091 -0.061047323 6
4.1216044 -0.44314435 0.23290116 8.5
4.1228142 -0.19090737 0.25737619 8.5
4.0583477 0.22747214 0.24089912 8.4444447
4.0110707 0.5323981 0.25005203 8.6000004
4.0539856 1.6475925 0.066687234 7
4.1349049 -0.46131691 0.68204701 11.333333
4.1115065 -0.12799606 0.65169805 11.5
4.0548916 0.21522307 0.6263476 11
4.0365438 0.5401969 0.60385603 10.833333
4.1349688 -0.46986264 1.0700349 14
4.1177893 -0.19181737 1.0789157 14
4.0539365 0.23957779 1.0270747 14
4.0088558 0.56982523 1.0439532 14
4.0728893 1.204408 1.0065836 13
4.0092416 1.7324265 1.0213392 13
3.9980445 -0.50759739 1.2631556 15
4.0672889 0.097906366 1.2638636 15
