# .PCD v0.7 - Point Cloud Data file format
VERSION 0.7
FIELDS x y z intensity
SIZE 4 4 4 4
TYPE F F F F
COUNT 1 1 1 1
WIDTH 74
HEIGHT 1
VIEWPOINT 0 0 0 1 0 0 0
POINTS 74
DATA ascii
0.54888469 -0.81310213 -0.18793832 155
0.52778453 -0.70868897 -0.18834724 163
0.64556098 -0.75503469 -0.19084871 158
0.52401441 -0.68944114 -0.18884411 166
0.65445143 -0.64476472 -0.18957119 167.25
0.49732295 -0.55456394 -0.1912168 177.2
0.56039774 -0.55225849 -0.18755601 174.33333
0.64482903 -0.52171838 -0.18786928 173.66667
0.76956046 -0.57022774 -0.19012418 168
0.84326059 -0.51980025 -0.18995541 167
0.47866347 -0.46651068 -0.18816811 179.8
0.55024004 -0.42686173 -0.18459408 175.69231
0.65496957 -0.4516806 -0.18516111 175.39999
0.74997181 -0.41665924 -0.18215351 171.25
0.86187291 -0.42023185 -0.18805267 167
0.47642821 -0.32317325 -0.19239391 152.22223
0.56716084 -0.34903148 -0.18838197 160.91667
0.64151239 -0.33890092 -0.17935307 164.70589
0.74721551 -0.34728768 -0.17876954 169.39999
0.85184735 -0.3362349 -0.18172702 170.8
0.91687757 -0.36271313 -0.18200681 168
-0.73971701 -0.26027861 -0.19285189 117
0.47518682 -0.28898451 -0.19372332 147.5
0.55326992 -0.27183029 -0.19182697 149.60001
0.66411912 -0.25083452 -0.18323894 153.73685
0.7498768 -0.24593027 -0.17436576 161.07143
0.84375405 -0.24645028 -0.17697249 165.42857
0.94247603 -0.25781727 -0.18700217 166
-0.23067078 -0.1392218 -0.14275108 181.47058
-0.19085291 -0.13533397 -0.19175994 174.5
0.65970445 -0.15936811 -0.18968062 153.28572
0.73792613 -0.15315111 -0.17594196 151.60001
0.84578097 -0.13759421 -0.17473881 155.66667
0.91652811 -0.15778397 -0.18401791 162.5
-0.30655429 -0.074591242 -0.20277448 189
-0.20317455 -0.06395185 -0.199654 184
0.40399477 -0.013270638 -0.17941757 159
0.66854173 -0.044416409 -0.19035925 152.8
0.75201768 -0.063131265 -0.17891176 149.26086
0.84988153 -0.048951086 -0.1737068 154.66667
0.90596932 -0.054611307 -0.17551236 160
-0.32324424 0.011621128 -0.20310141 192
-0.21017283 0.038723577 -0.19913594 184.8
-0.19289555 0.080482282 -0.19822106 184
0.19897817 0.097805448 -0.15454182 126
0.2036971 0.095797919 -0.15893358 123.66666
0.67172486 0.0041207578 -0.19179112 154
0.75041229 0.046307903 -0.17787848 148.28
0.84648323 0.034633625 -0.17414308 153.69231
0.94004577 0.06223445 -0.1826199 161.75
-0.22290987 0.16041106 -0.13710424 160.5
-0.18700898 0.1536379 -0.19975738 185
0.097882822 0.14808518 -0.10837026 144.33333
0.14157149 0.12861641 -0.13175021 132.14285
0.78369993 0.10870229 -0.17101121 150.25
0.8592205 0.12875031 -0.1765006 158.16667
-0.26004511 0.26272088 -0.19836685 188.8
-0.15690795 0.23535636 -0.1735822 181
-0.36166531 0.30147228 -0.16463086 152
-0.13448016 0.33141705 -0.17067884 178.5
-0.020335672 0.38849932 -0.19725412 184.5
0.065889455 0.45197317 -0.1942915 185.5
0.16838163 0.48887995 -0.19478007 185
0.30910483 0.49529815 -0.1928023 186
0.30741334 0.50680983 -0.19309515 185
-0.42154577 -0.17860949 -0.10444247 129
-0.322694 -0.15360375 -0.080485217 127
-0.27532354 -0.14348973 -0.086815894 155.60001
-0.24569111 0.16367887 -0.076447152 177.36363
-0.043275405 0.17567004 -0.05179476 158.14285
0.06036479 0.16143817 -0.050651636 140.3125
-0.18492396 0.22247708 -0.093894385 154
-0.073385566 0.24251769 -0.091901749 168
0.023498802 0.17190684 0.02597763 147.85715
