# .PCD v0.7 - Point Cloud Data file format
VERSION 0.7
FIELDS x y z intensity
SIZE 4 4 4 4
TYPE F F F F
COUNT 1 1 1 1
WIDTH 491
HEIGHT 1
VIEWPOINT 0 0 0 1 0 0 0
POINTS 491
DATA ascii
-8.5259924 37.311832 0.69144326 8
-8.2551517 16.947348 1.7365489 11
-7.647212 17.787277 0.022721333 8
-7.6472282 15.322555 0.94233477 9
-7.8932781 15.298688 1.5980906 11
-7.7291374 13.725639 2.3377101 12
-7.7540193 14.177596 2.3802674 12
-8.0527411 16.796282 2.6485658 12
-7.4975805 12.158666 0.62568533 9
-7.41361 12.201158 0.86082381 10
-7.4690361 15.540477 1.0381204 10
-7.2684307 11.376639 1.2651625 11
-7.4358497 12.183388 2.0683789 12
-6.8827934 9.2956266 1.0890954 11
-6.9858742 9.9052362 1.1413757 11
-6.9642916 10.070301 1.1996659 11
-6.9102135 15.479548 1.0510315 10
-7.1822429 10.693205 1.2070702 11
-6.9622712 9.7624273 1.6957099 12
-7.1742954 10.723687 1.8673056 12
-7.2324624 11.236709 1.9216431 12
-7.0982971 15.466747 1.6123827 11
-7.2270007 11.437403 1.9850906 12
-7.1720433 12.017175 2.5401387 13
-7.1221399 12.578847 2.6328063 13
-6.9672208 17.600424 2.6194117 12
-7.0681558 17.600967 2.9636877 12
-6.4499812 7.3863473 0.020605737 8
-6.4768233 6.9690371 0.35415518 9
-6.4582133 7.4028645 0.37792963 9
-6.4832377 7.1539149 0.60571909 10
-6.4855728 7.3324747 0.57375759 9.5
-6.5272779 7.3144312 0.91921687 11
-6.5063429 15.547656 1.081883 10
-6.4770551 7.1082273 1.2939782 12
-6.463203 7.4448409 1.3451014 12
-6.6781764 15.490617 1.6135941 11
-6.6840386 11.315123 2.9580736 14
-6.6863775 17.659981 2.8236597 12
-6.1953988 7.4229388 -0.11390302 7.5
-6.1339655 5.3736234 0.25571686 9
-6.2215242 5.7484951 0.39952394 9.5
-6.2387657 7.4282289 0.20921703 9
-6.2541895 8.1677446 0.47179735 9
-6.1082497 5.40833 0.69315052 10
-6.2225871 5.81247 0.78993052 11
-6.3748684 6.6158676 0.60170186 10
-6.1823325 7.4403825 0.67685825 10
-6.2601562 7.9579911 0.65976727 10
-6.2541018 8.0682402 0.58248454 10
-6.1414337 5.3525696 0.98881269 11.5
-6.4028172 7.4820266 1.2156726 11
-6.0324588 15.639359 1.0942897 10
-6.1431713 5.338285 1.4231471 13
-6.2400961 7.456768 1.4214439 12
-6.2341347 7.9678659 1.3556067 12
-6.2744341 8.3663473 1.4904341 12
-6.1644011 5.345149 2.1280165 15
-6.227726 7.429492 1.7548145 13
-6.3042264 15.604061 1.6225703 11
-6.224719 5.7442393 2.185981 15
-6.2507091 6.4408255 2.3148088 15
-6.355751 6.6576943 2.4353194 15
-6.3044338 7.0916529 2.5288196 15
-6.363893 7.4520841 2.5914843 15
-6.2663469 11.227846 2.935034 14
-6.4215455 17.703131 2.9504519 12
-6.29176 37.638248 2.6901054 10
-5.8661404 7.4842672 -0.1056021 7.6666665
-5.8645239 5.0069118 0.48639417 10
-5.9900346 7.479548 0.22381276 9
-5.9719687 4.9407945 0.59763443 10
-5.6301746 5.017333 1.0755932 12
-5.9555068 4.9456496 1.353546 13
-5.9159417 4.7936788 1.9093879 15
-5.9590416 12.79041 2.3000789 13
-6.017735 7.8965416 2.6564786 15
-5.88907 17.807539 2.9023128 12
-5.3605661 4.3975034 0.15398386 9
-5.3193073 4.3509045 0.7817359 11.5
-5.2694926 4.4428225 0.6172955 11
-5.2311769 4.443594 0.99234658 12
-5.4688325 5.0933385 1.0659311 12.333333
-5.3793278 4.49789 1.4614151 14
-5.3449306 18.366108 1.3677927 10
-5.3148975 4.5210366 1.7941418 15
-5.5211582 15.732327 1.6325725 11
-5.4934411 18.330753 1.8489952 11
-5.6044245 7.9635019 2.4577434 15
-5.2944531 11.567578 2.0301001 12
-5.4666424 12.909064 2.6413865 13
-5.3582339 17.901308 2.8399973 12
-5.1622076 6.7969413 -0.15879835 7
-5.1420236 6.8603129 -0.04838727 8
-5.0244632 5.1530623 0.32373065 9
-4.8083978 6.5092907 0.27298605 9
-4.8317218 17.850636 0.3121374 8
-5.0191307 5.131958 0.73595178 11
-5.2116051 4.7369161 1.2855921 13
-5.0197363 5.1309667 1.1254674 12.6
-5.1137424 18.406004 0.82283527 9
-5.1294098 4.6156268 1.4701194 14
-4.9873815 5.1924758 1.5787566 14
-4.8507371 15.844138 1.2016983 10
-4.8994069 18.435835 1.3933512 10
-5.2052732 4.6460576 1.8125055 15
-5.1603632 11.590098 2.0287907 12
-5.1411381 15.810946 1.6382216 11
-5.0453796 18.39152 1.853617 11
-4.8822403 8.1082172 2.4627867 15
-5.0150576 11.687837 2.0594244 12
-4.9875784 13.015795 2.3377481 13
-5.1345139 12.955963 2.6416163 13
-4.9282932 17.997709 2.8497248 12
-4.5604019 6.3930492 0.0033839643 8
-4.5330415 7.8299685 0.056353614 8
-4.5441613 8.3009253 0.070002779 8
-4.5166335 6.3411942 0.47602257 9.666667
-4.5492153 6.543786 0.30862203 9
-4.6326661 8.3505201 0.20537345 9
-4.6526356 7.3312063 0.60957074 10
-4.6841455 8.431633 0.6695767 10
-4.5704432 18.60335 0.35801592 8
-4.724957 5.2096162 1.1213038 13
-4.6361661 5.2663879 1.1316297 12.666667
-4.6384282 5.1995153 1.5658841 14
-4.4845533 15.964652 1.2403345 10
-4.7220988 18.477436 1.4232198 10
-4.6023016 18.445328 1.8574131 11
-4.6445951 13.031046 2.3431356 13
-4.4984822 13.087982 2.6511998 13
-4.7755837 18.033058 2.6702275 12
-4.5003958 18.089935 2.8609915 12
-4.386374 5.3039932 -0.016604627 8
-4.3350215 6.3918409 0.030215826 8
-4.1845846 6.8501792 0.062874638 8
-4.3954735 7.9102001 -0.039624918 8
-4.3097782 8.334836 0.097565211 8
-4.3955264 6.3463912 0.47348151 10
-4.2416596 6.5670137 0.4462572 9.5
-4.3590851 8.3079939 0.22429435 9
-4.2705832 9.7545338 0.27277365 9
-4.0690455 13.419952 0.093756147 8
-4.1552811 5.3517256 0.75720125 11
-4.1908183 7.200624 0.65874219 10
-4.0445194 18.311739 0.4007825 8
-4.2083836 5.3176398 1.223913 13.5
-4.2364669 18.54417 0.82621652 9
-4.1347098 5.3783693 1.586777 15
-4.27493 18.554823 1.4626565 10
-4.1742721 18.549095 1.8638061 11
-4.1983743 8.2496662 2.4795792 15
-4.3404336 13.509507 2.3888285 13
-4.0694976 18.194197 2.8725352 12
-3.7013006 6.3144007 0.39578262 9
-3.8962851 8.5831842 0.43673334 9
-3.8981934 5.3697085 0.60279995 11
-3.617655 6.8312783 0.57532275 10
-3.7924502 18.220963 0.53495812 9
-3.8511205 5.3725982 1.2194425 13.5
-3.8105779 5.4457183 1.6838485 15
-3.9046609 18.638027 1.3619469 10
-3.7292013 18.605885 1.8679527 11
-3.9460409 8.2361059 2.4696825 15
-4.0191159 13.193021 2.3745437 13
-3.9785433 13.466239 2.3968949 13
-3.8825035 13.662911 2.3617549 13
-3.5247538 5.434258 0.050423682 8
-3.2933843 7.5206857 0.079657212 8
-3.4152765 6.6808295 0.40567034 9
-3.2038152 9.9378805 0.26045212 9
-3.4554658 11.069062 0.42037293 9
-3.2482274 5.4433141 0.61393821 11
-3.5912485 7.0428085 0.64140242 10
-3.5924568 18.289423 0.44243556 8
-3.3537965 18.920282 0.57406056 8.666667
-3.4123685 18.655039 1.7247521 10.5
-3.4635541 8.7956724 2.3712802 15
-3.6044519 13.374608 2.3964176 13
-3.476774 18.27092 2.6603251 12
-3.6304476 18.23686 2.8771231 12
-2.9876523 7.5405312 0.11369354 8
-3.1833904 6.7113619 0.33631876 9
-2.9175885 6.9756088 0.35255119 9
-2.8581192 7.608922 0.23146197 9
-3.064786 7.7997746 0.25826764 9
-3.1320977 10.560738 0.28440645 9
-2.9711118 11.544599 0.38348234 9
-2.9308305 18.993876 0.28575948 8
-3.0675151 5.4906602 0.73469746 11
-2.8610406 7.82974 0.76443267 10.5
-2.9566398 18.928612 0.58619118 9
-3.2050745 5.5392056 1.1132373 13
-3.1069934 18.788666 1.6007644 10
-3.0980737 8.7958879 2.3767517 15
-3.0531633 13.477963 2.394403 13
-2.8607388 13.68588 2.3844998 13
-3.0536311 18.371103 2.6622121 12
-3.1964622 18.298338 2.8844666 12
-2.4279923 1.5095426 0.22000158 10
-2.4722738 1.7528949 0.21634489 9.8000002
-2.4359043 1.5146207 0.51471126 13
-2.4853528 1.8172491 0.48895556 12.5
-2.7219737 7.7191529 0.28773835 9
-2.4613628 1.8190898 0.79102397 15
-2.6636033 7.8829489 0.74144524 10
-2.6353395 17.754305 0.51725698 9
-2.8176739 18.51737 1.8575871 11
-2.7421799 8.7957592 2.3854589 15
-2.6195834 13.447247 2.4543407 13
-2.7717695 18.439917 2.9046094 12
-2.0307298 -0.57413965 0.23243073 10.75
-2.3436742 1.0411736 0.23030424 10.5
-2.3887117 1.3003497 0.21204476 10
-2.0437787 -0.55198187 0.47090414 13.875
-2.3376372 1.0353101 0.48466125 13.375
-2.3931789 1.3344432 0.53412348 13.428572
-2.4095445 1.5210508 0.73490542 15
-2.1489096 15.263076 1.038663 10
-2.1378613 8.6891365 2.3788931 15
-2.1775897 13.591705 2.3857462 13
-2.2980134 13.476936 2.475698 13
-1.7888503 -1.3399067 0.262146 10.428572
-1.9497031 -0.97582829 0.20809709 10.222222
-1.9970535 -0.72915024 0.26889238 11
-1.811581 -1.3283457 0.53402245 13.875
-1.954738 -0.97265923 0.50561213 13.875
-2.0041242 -0.64781147 0.47713196 14
-1.8698194 14.321045 0.32433477 8
-1.7875394 14.340007 0.50831717 9
-1.8742888 14.333967 1.4062363 10.5
-1.807657 8.6967821 2.3947496 15
-1.9806023 13.546131 2.5039144 13
-1.3922223 -1.3232135 0.25351849 11
-1.4251765 -1.3231232 0.48265091 14
-1.3277787 10.848264 2.0800412 13
-1.5591333 11.436348 2.0635083 13
-1.5560611 12.281034 2.0385072 12
-1.5940866 13.515496 2.0242898 12
-1.3705904 8.7034769 2.4173021 15
-1.0039914 -1.2496589 0.29965842 12.222222
-1.0627486 -1.2589723 0.44989806 14.666667
-0.91251004 9.0278616 0.45398942 9
-1.1018238 10.106774 0.48463121 9
-0.8540827 8.9908857 0.80492508 10.5
-1.1200799 10.227273 1.0380828 11
-0.93069339 9.128252 1.4296788 12
-0.90035999 9.111764 1.8616076 13.5
-1.1876173 9.6823101 2.0142848 14
-0.52541286 -0.81334394 -0.19169247 1
-0.54391694 -0.59808874 -0.20044737 0.2857143
-0.62089747 -0.3798292 -0.20927082 0
-0.48150674 0.59717423 -0.21776214 0.25
-0.48107952 0.91673183 -0.21279877 2
-0.74722999 -1.2003976 0.30658436 13
-0.59282714 -1.1740096 0.300533 13.222222
-0.50024086 7.1637988 0.47071812 9.5
-0.48425075 7.1626415 0.81936181 11
-0.51146132 7.1701598 1.291409 12.5
-0.68527716 7.2567663 1.2256984 12
-0.5403204 7.1705184 1.4982967 14
-0.33954743 -0.65251952 -0.19712962 0
-0.271649 0.6578899 -0.21000491 0.25
-0.35032135 0.84160948 -0.20951517 1.5
-0.22262985 -1.1089505 0.28483069 13.5
-0.3341037 7.191226 0.642138 10
-0.27971482 7.2057219 0.86013722 11
-0.14821908 7.2272987 0.84308374 11
-0.3320089 7.2058401 1.3252649 12.5
-0.17933349 7.2445197 1.3888863 13
-0.37359807 7.1896391 1.5115675 14
0.20959166 -1.0311978 0.28570926 13.857142
0.30304894 1.249543 0.33569941 15
0.15445024 7.3511763 0.87186533 11
0.18812476 7.3750348 1.2688769 12.333333
0.15430944 7.3672371 1.5254216 13.5
0.79209512 -0.43596932 -0.16312858 1
0.67844766 -0.2184536 -0.16618104 0.33333334
0.71668011 0.17717977 -0.17864807 0.33333334
0.56323534 -0.9688915 0.31967342 14.125
0.60015106 1.1515653 0.34013215 13.333333
0.57667428 1.2854259 0.35442275 13
0.60701907 7.4302869 0.43182257 9
0.53429496 7.4352498 0.91340947 11
0.57798517 7.4488368 1.2742993 12.333333
0.54833513 7.4517655 1.5601742 13.5
0.6050967 7.478395 2.1217618 15
0.98506027 -0.51664066 -0.16431805 2
1.0058495 -0.24711967 -0.15844487 1.875
1.0126147 0.2246882 -0.17405653 1.7777778
1.0577978 0.54205596 -0.19077949 2.1666667
1.0089076 -0.87427676 0.32224402 12.818182
1.1038669 -0.85735464 0.45398489 15
0.96564454 7.5087905 0.4331359 9
1.0062947 7.5251789 0.93095171 11
0.96475446 7.5272336 1.3090882 12.5
0.97834015 7.5309782 1.5960814 13.5
0.88589674 7.5229807 2.1340017 15
1.3846211 -0.62280625 -0.14555611 3.4000001
1.4018308 -0.21471624 -0.15096048 3.5
1.4330488 0.16191645 -0.15855803 3.4000001
1.3448397 0.56653416 -0.1734847 3.4000001
1.4190469 0.84885448 -0.174155 3.5
1.3402427 -0.87034684 0.27543983 11.153846
1.5072197 -0.77562362 0.30275425 11.2
1.3692524 -0.8381725 0.48789996 14.666667
1.5142114 -0.7808609 0.51834881 14.5
1.1985325 7.5458879 0.37351507 9
1.3701153 7.5977831 0.95367521 11
1.506971 7.6226387 1.0195252 11
1.341033 7.5978918 1.3238975 12.5
1.4821491 7.6262302 1.2444341 12
1.4003069 7.6078568 1.61077 13.333333
1.309809 7.5435405 2.1432743 15
1.8441113 -0.54766607 -0.10435604 4.75
1.8367475 -0.31059989 -0.13270238 4
1.6082029 0.33412981 -0.15029494 4
1.6872005 0.63025385 -0.1581343 4
1.9641342 1.0259784 -0.16492714 4.5
1.7470994 -0.918769 0.16749892 9
1.6852043 -0.59357119 0.29752728 10.928572
1.716673 -0.55817008 0.54663944 14.6
1.9734659 7.659431 0.34966338 9
1.7580274 7.6675396 0.98277026 11
1.7200236 7.6682668 1.3047351 12.333333
1.7376381 7.6719165 1.6647929 13.5
1.8157238 7.4532604 2.1320229 15
2.3002467 -0.66612196 0.034046311 7
2.2177465 -0.27487329 -0.12868759 5
2.2160585 0.19356233 -0.14411274 4.6666665
2.0908401 0.54547453 -0.1447397 4.6666665
2.1283121 0.98028958 -0.15798131 5
2.264447 1.3835149 -0.17063819 5
2.2225387 -0.51170313 0.26255026 9.5555553
2.2388771 -0.35955736 0.28295508 9.5
2.1475229 4.3731337 0.36321196 8
2.2242651 -0.4536258 0.61110622 13.8
2.2470622 -0.36225283 0.5852493 13.5
2.2998698 3.5955338 0.41403159 9
2.1806753 4.153811 0.4114981 9
2.1198962 4.4288688 0.38817808 9
2.0007682 5.0581908 0.40381193 8
2.1564445 7.7416072 0.95388293 10.5
2.1471944 7.742662 1.3502238 12
2.1393306 7.7453465 1.7026551 13.5
2.1878583 7.3973999 2.1305492 15
2.5655556 -0.46357107 -0.0011469988 6.5
2.6567168 0.20914918 -0.018968714 6.5
2.5247247 0.88033754 -0.14227377 5
2.7512577 1.3335844 -0.15354685 5
2.6349869 1.6588653 -0.16777349 5
2.5832322 -0.46861708 0.13849075 8
2.5391502 -0.31924751 0.30444559 9.5
2.6039445 0.22092375 0.24539286 9.1000004
2.654762 0.53836077 0.29776263 9.636364
2.7794108 5.542285 0.28241175 8
2.5984297 -0.25555515 0.68302518 13.7
2.7515233 0.62153745 0.50120223 11.5
2.6404302 3.5519791 0.43458554 9
2.5195835 7.8063135 0.96092844 10.666667
2.5223107 7.8141317 1.3970872 12
2.5404241 7.8267012 1.7203085 13.5
2.6141541 7.4732571 2.1647685 15
3.0204334 -0.23397876 0.031833239 7
2.8969901 0.69398856 -0.133959 5
3.0402241 -0.17788364 0.29347673 9.0769234
2.851485 0.023547396 0.33765841 9.5
2.9422176 3.6278989 0.39018437 8
2.8164618 5.2997761 0.27620253 8
2.9492307 -0.10056678 0.65611672 12.555555
2.8688397 0.21375895 0.54540867 11.5
2.8827522 0.57547539 0.71446455 13.166667
3.1357625 -0.18696497 0.96142673 14.666667
3.0740561 7.9223042 0.96495175 9.5
2.9621396 7.8985901 1.3723651 11
2.9806852 7.9083834 1.7706776 12.75
3.0012307 7.3991313 2.1653738 14
3.3768017 1.2323672 -0.14064847 5
3.4278169 -0.1602686 0.33194393 9
3.225791 -0.15950774 0.58816904 11
3.337219 0.030758148 0.81844413 13
3.2701375 0.024943732 0.96566606 15
3.3928816 7.9767971 0.97690606 9.5
3.3165123 7.9629846 1.2838389 10.6
3.2905748 7.9633942 1.7864735 12.333333
3.3850772 6.5097232 2.1783345 14
3.3932416 7.3182359 2.1684451 14
3.5149868 7.9999294 1.9417162 13
3.985465 2.3139777 0.27187285 8
3.9398799 2.5845623 0.27016932 8.166667
3.8512261 3.0010688 0.25888065 8.5
3.7777557 3.3350406 0.23911461 8.333333
3.9156358 5.8036833 0.25481635 7
3.8173215 0.11103929 0.88993752 13
3.9448829 2.6377063 0.65469283 10.75
3.8418884 3.0481942 0.58589494 10
3.7696769 3.3787456 0.63610822 10.333333
3.943306 5.8160276 0.57755089 8.666667
3.7908649 0.1114473 1.0813099 14.5
3.9193523 2.6438541 0.98761821 12.75
3.8505697 3.0320113 1.0452514 13
3.7643657 3.3830638 1.0980645 13
3.9333229 5.828114 1.0411185 10
3.8660691 6.2571983 0.94720912 9.5
3.7927818 6.6830549 1.0445868 9.666667
3.7449818 6.9196153 1.1117496 10
3.620049 8.0064592 0.97394794 9
3.9402356 2.5167713 1.3670206 15
3.855108 3.0195858 1.3921933 14.6
3.7642789 3.3485508 1.3869585 14.4
3.9400494 5.8242755 1.3611051 11.5
3.875181 6.2180099 1.427296 11.666667
3.8088591 6.559772 1.4068189 11.333333
3.7278237 6.9892716 1.3897111 11
3.6105039 7.9913335 1.3813547 10.5
3.9270864 5.7988524 1.7457786 13.5
3.8948188 6.1463523 1.762447 13.333333
3.7972169 6.7012353 1.6921067 12.666667
3.7819471 7.4487481 1.6652873 12
3.6733892 7.8663945 1.7226012 12
3.9086473 6.0337343 2.1151321 14
3.8663206 6.2903743 2.1708741 14
3.7038178 6.5167942 2.1410573 14
3.7334738 6.9124393 2.0979631 14
4.3252678 1.107818 -0.014810234 6.5
4.2955093 1.6135956 -0.13030417 6
4.099319 2.7893691 -0.017434595 7
4.174067 1.1438196 0.20896228 8
4.1507902 1.3832953 0.23156138 8
4.1078653 1.7878191 0.25923303 8.1428576
4.0153246 2.1535385 0.23484258 7.8333335
4.3027139 4.3234787 0.27318418 7.6666665
4.2345657 4.6062193 0.28479043 7.4000001
4.1469893 4.9698505 0.2666204 7.1999998
4.051033 5.4251938 0.32409456 7.6666665
4.1937151 0.24259432 0.84348482 12
4.2475133 1.1313713 0.61141539 10.333333
4.2420707 1.3722738 0.64473987 10.6
4.1492982 1.8554062 0.64391351 10.75
3.9995141 2.2747114 0.60459006 10.333333
4.2044749 2.5749071 0.81117284 11.5
4.2911763 4.2483454 0.65334076 9.5
4.2346406 4.6009402 0.59893101 8.8000002
4.1616936 4.959352 0.57295257 8.75
4.0328813 5.4698086 0.64644021 9
4.2819824 0.27091414 1.1657296 14
4.2994795 0.43010235 1.0509688 13.5
4.1236944 2.5782959 1.1052855 12.8
4.0972896 2.9917898 1.0350274 12.5
4.294714 4.3034539 1.0010074 11
4.2206454 4.6578064 1.0144298 10.5
4.1347337 4.9798188 1.0210427 10.5
4.0443611 5.3779206 1.0581067 10.333333
4.3009171 0.32518664 1.3414379 15
4.3455577 0.45037198 1.3970065 15
4.3341484 1.400689 1.3731493 15
4.2624431 1.8550034 1.3975822 14.666667
4.1831093 2.2285557 1.4081196 15
4.2120447 2.6739006 1.3616343 14.5
4.1536613 2.925972 1.3999152 14.5
4.2674026 4.2656088 1.3697406 13
4.232502 4.5595517 1.4001683 12.333333
4.1525993 4.9084358 1.3634638 12
4.0404072 5.4070549 1.4049076 12
3.982492 5.6543007 1.4185898 12
4.2622313 4.3309536 1.7740012 14
4.1859689 4.691071 1.7515004 13.5
4.0926137 5.0581875 1.8194845 13.5
4.0159702 5.4716382 1.7837105 13.5
4.0029492 5.5752745 2.0184312 14
4.505815 3.9961002 -0.032138444 7
4.7165461 1.113887 0.71900284 11
4.7651548 1.3046085 0.89315659 12
4.5501237 1.8414911 0.78596932 11
4.5542231 2.2676392 0.75179887 10.5
4.5385365 2.4992652 0.8342129 11
4.7400751 1.420539 1.1289618 13
4.6671023 1.8213154 1.0747989 12.5
4.5907598 2.2231803 1.1292326 12.833333
4.5501442 2.4963584 1.1159372 12.666667
4.5184727 0.60495889 1.371154 14.666667
4.4270854 1.0275115 1.3791932 15
4.7082815 1.4704783 1.3161865 14
4.5201173 1.7382618 1.3252808 14
4.5580716 2.3562615 1.2815226 14
4.5110397 2.5442474 1.3051413 14
4.7843804 1.1931547 0.8825053 12
4.8680344 0.71499193 1.197081 13.333333
4.7924142 1.1733451 1.1645684 13
4.7847309 1.3226557 1.0648665 12.5
4.8284502 1.4692073 1.4849592 15
