# .PCD v0.7 - Point Cloud Data file format
VERSION 0.7
FIELDS x y z intensity
SIZE 4 4 4 4
TYPE F F F F
COUNT 1 1 1 1
WIDTH 79
HEIGHT 1
VIEWPOINT 0 0 0 1 0 0 0
POINTS 79
DATA ascii
-2.9138365 3.0814221 -0.10463145 10
-3.0288048 2.9998295 0.49688229 14
-2.3740628 1.8144071 -0.080972329 9.5
-2.392097 1.9004682 0.138658 12
-2.1102383 1.4531854 0.11669009 11
-2.0165789 1.3144038 0.21101774 13
-2.1858354 1.6408935 0.4230243 15
-1.8852514 1.0790449 0.059946924 11
-1.9076257 1.1912876 0.36889604 15
-1.6690004 0.75093907 0.14786762 12
-1.7402663 0.91802794 0.38851833 15
-1.4023099 4.065217 -0.2457857 9
-0.64970255 -0.77042848 0.38322288 15
-0.63389176 4.5732999 -0.094281383 10
-0.6579082 4.6230874 0.61789715 15
-0.49280182 -1.0124155 0.43463969 14.5
-0.60060751 4.6041708 0.087988012 11
-0.30633417 -1.271068 0.51047575 14
-0.24561302 4.8417153 -0.18865217 10
-0.37638715 4.7869205 0.50102645 14
-0.14459239 -1.2427214 0.48962915 14
-0.1263102 1.9900967 0.13571385 13
-0.17498529 4.9347315 0.72126311 15
0.72090125 8.9655952 0.16401218 11
0.84572351 -0.63430506 -0.087506562 2
0.78644323 8.2918005 -0.14513145 10
1.2374805 -0.17416753 -0.11949871 3
1.9052905 -1.4361941 0.44962761 9
1.9050339 -1.417115 0.56153905 10.5
1.8385835 -1.4430389 0.80022192 13
1.8541214 8.3231277 0.24065001 11
2.0567596 -1.2705917 0.6655997 12
2.2611163 -1.185007 0.34304976 8
2.3378701 -1.1275707 0.46483204 9
2.3687568 -1.1163697 0.68222004 12
2.4607029 7.429049 0.43972939 12
2.7912953 -1.0928018 0.26401863 7
2.7296088 -0.91689301 0.29308274 8
2.6921451 -0.91492677 0.61379075 11
2.6332107 -0.88825345 0.70415235 12
2.7211297 -0.93703651 0.90348202 13
2.6880441 -0.88172013 0.94761175 14
2.7389362 -1.0547352 1.0829984 15
2.5918796 7.4643655 0.84125936 13
2.8765771 -0.73996955 0.54379082 10
2.8242087 -0.75199401 1.0782045 15
3.127919 -0.60809946 0.33787727 8
3.0589244 -0.69912171 0.46396762 9
3.0928652 -0.57924128 0.6464197 11
3.0475986 -0.65651417 0.94553304 13
3.0797479 -0.52961564 1.0267501 14
3.350461 -0.47246009 0.22180447 7
3.1865861 -0.52650702 1.1042674 15
3.5323427 -0.38838944 0.26866832 8
3.48364 -0.37610799 0.52224559 9.5
3.7980742 1.4923153 0.13482302 8
3.9404178 7.2315893 -0.43622211 8
4.9179354 8.7416945 1.9205643 15
5.2019706 -0.018481251 0.70950115 10
5.3510365 5.0112996 0.71100086 10
5.3131986 5.153388 1.1474698 12
5.5293455 4.6451035 -0.095798522 8
5.4096365 5.0218134 1.3659599 14
5.6055923 0.27319983 0.53347683 9
5.6304798 4.544898 0.055528715 9
5.5929561 4.6872931 0.93841994 12
5.5386958 4.5113654 1.7956082 15
5.7770576 4.4899426 0.5276258 10
6.0001206 4.2625256 1.3668575 13.5
6.291913 3.7945988 1.8710321 15
6.5029626 3.3686335 0.76589656 11
6.3779807 3.5653241 0.98399562 12
6.4224072 3.5670643 1.6674706 14
6.9003606 2.7725992 1.2486461 12
6.8700681 3.025111 1.8295163 14
7.2345672 2.2762277 1.510599 13
7.3076315 2.3996725 2.0489845 14
7.4288168 2.0873392 0.83290356 10
7.4045401 2.1790788 1.3324767 12
