# .PCD v0.7 - Point Cloud Data file format
VERSION 0.7
FIELDS x y z intensity
SIZE 4 4 4 4
TYPE F F F F
COUNT 1 1 1 1
WIDTH 152
HEIGHT 1
VIEWPOINT 0 0 0 1 0 0 0
POINTS 152
DATA ascii
-0.46611708 -0.6704424 -0.091412053 164.09091
-0.34189951 -0.59138495 -0.13394773 169
-0.27282956 -0.53861547 -0.1380562 177.5
0.79733479 -0.57181555 -0.088984303 162
-0.62351304 -0.45184195 -0.14156274 171
-0.57471234 -0.43858391 -0.16531643 143.5
-0.2271799 -0.50420415 -0.14179774 182.66667
-0.14840238 -0.4402397 -0.13811474 187.60001
0.70018309 -0.44407323 -0.10051722 173
0.74145579 -0.45790219 -0.096528448 171.33333
0.87456435 -0.46515676 -0.097675256 160.75
-0.70073789 -0.33230737 -0.16084258 154
-0.49354821 -0.40329421 -0.16333388 157
-0.44058523 -0.38156256 -0.16608723 166.66667
-0.3607367 -0.34773645 -0.16690193 178.66667
-0.10006271 -0.399169 -0.13182645 186
-0.057382159 -0.35867465 -0.11690809 184.66667
0.64972264 -0.35591763 -0.10679632 160.58824
0.75764096 -0.37001559 -0.10126994 166.89999
0.84960276 -0.37444013 -0.10246377 165.8
0.92242563 -0.34961414 -0.106512 162.33333
-0.65150833 -0.31759748 -0.1576304 158
-0.23775809 -0.29455525 -0.1647485 187.85715
-0.14736921 -0.25570291 -0.16390964 183.42857
-0.017769342 -0.26697537 -0.16243425 177.71428
0.05618117 -0.21873635 -0.083855912 166
0.5810101 -0.26084852 -0.13221729 151.14999
0.65733916 -0.26949579 -0.12128969 150.20833
0.73786914 -0.25675306 -0.10873967 157.71428
0.83934247 -0.25835046 -0.1064452 161.66667
0.94997007 -0.27662009 -0.11320731 164.25
-0.72930574 -0.20087191 -0.20088069 134
-0.64061749 -0.18741983 -0.19962366 135
-0.52917224 -0.16979872 -0.19475518 156.66667
-0.43522105 -0.15563506 -0.19375244 175.33333
-0.3354131 -0.13997339 -0.18987273 189
-0.25434276 -0.17170025 -0.18075733 186.54546
-0.16666901 -0.17508383 -0.13453355 162.60001
-0.044596303 -0.18293436 -0.17620042 177.75
0.1416461 -0.17516384 -0.12267962 153.22223
0.21100162 -0.1685873 -0.16808257 164
0.59140706 -0.19475952 -0.14561799 156.2
0.65138495 -0.17263177 -0.1396596 152.10257
0.74962217 -0.15767331 -0.12416799 150.73914
0.85243279 -0.1753087 -0.11506629 158
0.95779204 -0.15413684 -0.12463738 160.2
-0.72848517 -0.061678033 -0.21969265 125.33334
-0.62243021 -0.058531076 -0.21538371 143
-0.53646731 -0.055281047 -0.20790108 153.5
-0.44865692 -0.053370547 -0.20820068 175
-0.32247323 -0.04877441 -0.19811805 188.5
-0.22233014 -0.063964933 -0.19002987 184.91667
-0.15529619 -0.080808997 -0.19317707 181.16667
-0.075714678 -0.079203025 -0.1914409 177.625
0.14673223 -0.058313683 -0.18706954 159.5
0.6613304 -0.074598722 -0.15471475 151.94286
0.75240678 -0.066368178 -0.13698047 148.36
0.85440898 -0.073931351 -0.12451978 156.84616
0.9524399 -0.052980896 -0.13476641 159.66667
-0.62304872 0.066097796 -0.23311226 144
-0.52854747 0.057563983 -0.22555207 162
-0.45409656 0.050655097 -0.22094618 174
-0.31250277 0.037884112 -0.20937037 188.60001
-0.22478688 0.02984998 -0.20309082 185.14285
-0.1254964 0.01955935 -0.20496395 180.33333
-0.069590785 0.048644364 -0.20866856 178
0.16701336 0.041132942 -0.1965428 159.69231
0.66329223 0.029025113 -0.16802682 150.70589
0.75433975 0.02557545 -0.14976791 148.73077
0.85585433 0.041090079 -0.13977724 153.91667
0.96369833 0.016932745 -0.14510383 156.5
-0.73221427 0.07617072 -0.24019349 132.66667
-0.51132715 0.17003904 -0.24049692 162
-0.42450985 0.15107699 -0.23258553 180.33333
-0.32466197 0.12928273 -0.22327188 189.33333
-0.24582611 0.11210334 -0.21557727 186.71428
-0.16201098 0.12713392 -0.21651106 183.18182
-0.060255788 0.11316609 -0.21573938 177.42857
0.18190216 0.12044349 -0.20763059 160.25
0.23995946 0.14606842 -0.20538901 162.06897
0.59912163 0.13915533 -0.18952355 148.33333
0.65202659 0.12822069 -0.17954214 148.36363
0.74502385 0.11962847 -0.16108407 147.67999
0.84448117 0.137582 -0.15515937 158.14285
0.95945746 0.13090569 -0.16265936 160.57143
-0.72689056 0.21729086 -0.25803959 128
-0.62971163 0.19608048 -0.24917509 139.5
-0.55087531 0.17879014 -0.24284571 154
-0.40782848 0.2550621 -0.24306327 179
-0.36094269 0.23829322 -0.24161845 186.33333
-0.23430508 0.212935 -0.22733235 187.55556
-0.13879372 0.22804712 -0.22292422 184.22223
-0.020387774 0.20024288 -0.22114465 177.88889
0.038965531 0.24443813 -0.22323813 176.27272
0.19452308 0.20762251 -0.19807751 159.75
0.24133688 0.19420195 -0.21298818 162.11111
0.66706693 0.20812264 -0.18418461 147.5
0.74269843 0.22346285 -0.1719102 156
0.84673566 0.22339433 -0.16960192 160.875
0.95020103 0.23999152 -0.18303545 159.66667
-0.7194379 0.36533827 -0.27662528 122
-0.63370872 0.33509958 -0.26537558 134.66667
-0.54432333 0.3032926 -0.25951308 151
-0.47263491 0.27792436 -0.25169829 164
-0.34973669 0.34321934 -0.25166932 184
-0.23351726 0.30149007 -0.23560852 189.16667
-0.14438273 0.32987821 -0.2321445 186.55556
-0.049524944 0.32278445 -0.22302514 182.86667
0.070693657 0.31363264 -0.22385646 177.375
0.14476547 0.32254365 -0.2173011 175.36363
0.77990299 0.30541658 -0.18647464 163.2
0.85288435 0.33013704 -0.19501124 164
0.92441237 0.31538761 -0.19439653 162
-0.75035501 0.3764599 -0.27600488 119
-0.54538101 0.44141683 -0.27706847 143.5
-0.42875788 0.3828845 -0.26138082 167.25
-0.25867906 0.40692914 -0.25358197 185.25
-0.01612607 0.41251081 -0.15728138 166
0.062063176 0.44391656 -0.20358421 186
0.88908827 0.38979661 -0.20960006 160.33333
-0.72167736 0.52987516 -0.29388633 115
-0.63699776 0.48738769 -0.28348923 125
-0.11832685 0.53961068 -0.23726015 185.5
-0.0096590277 0.56118399 -0.25746864 189
0.020806123 0.51228106 -0.23766376 188.33333
-0.21416889 0.65298826 -0.28202698 177
-0.17881529 0.61298138 -0.27495161 180
-0.046793323 0.61743861 -0.27021748 183.2
-0.30588841 0.75505453 -0.29144132 151
-0.27660775 0.72371447 -0.29489115 160.33333
-0.12018538 0.7259596 -0.28637731 172.75
-0.088375501 0.68008512 -0.28331518 181
-0.39856187 0.86065453 -0.31384778 131
-0.34904999 0.80420816 -0.30172515 143.5
-0.19331846 0.83289737 -0.29841372 155
-0.17908871 0.8148489 -0.3054305 160
-0.22884722 0.88612235 -0.30859265 145.5
0.066378191 -0.2262976 -0.040528346 148
-0.21657309 -0.16781594 -0.05498407 172.71428
-0.18235372 -0.16125315 -0.066416755 166
0.042299759 -0.17767037 -0.010709783 139.92308
0.114338 -0.19157885 -0.047716878 134.58333
-0.079845428 0.28066769 -0.11342634 172
0.071417965 0.21312666 -0.03624538 135.08333
0.16262196 0.21761106 -0.052795231 129.75999
-0.10287648 0.38705263 -0.11528696 146
-0.046678428 0.33394662 -0.072290741 138.33333
0.077027954 0.29503363 -0.075911976 150
-0.12166671 0.40364131 -0.11962044 148
0.016138896 -0.16796759 0.045821387 145
0.042455856 0.19367138 -0.0055441954 120
0.055356648 0.23984094 -0.014144998 133.66667
