# .PCD v0.7 - Point Cloud Data file format
VERSION 0.7
FIELDS x y z intensity
SIZE 4 4 4 4
TYPE F F F F
COUNT 1 1 1 1
WIDTH 121
HEIGHT 1
VIEWPOINT 0 0 0 1 0 0 0
POINTS 121
DATA ascii
-3.0926116 1.4638206 -0.051375892 8
-3.005039 2.6075921 -0.25898153 8
-3.032788 2.0852299 0.42497021 13
-3.0793071 1.0636479 0.81353503 15
-2.9832137 2.9178994 -0.10683578 9.5
-2.9480016 3.4550662 -0.32052645 8
-2.9811094 2.9816265 0.062618211 11
-2.866544 -0.58780742 0.82077909 14
-2.998215 2.3599801 0.29263672 12
-2.9984457 2.6497052 0.36895239 13
-2.8905001 -0.5127095 0.94234967 15
-2.9959047 2.3954847 0.63463545 14
-2.9422934 3.4399245 0.36036056 13
-2.9157073 3.7296314 0.25654885 12
-2.9964323 2.0559676 0.74409711 15
-2.9688683 2.4869969 0.76661068 15
-2.8731894 4.2772989 0.3551746 13
-2.6044164 -2.1904316 1.2375662 14
-2.1158757 -0.76011169 0.31354234 9
-2.0574949 -1.8534541 0.52831578 9
-2.0516551 -1.6370336 0.59658217 10.5
-2.1758187 -0.73853362 0.39192078 10
-2.1366293 -0.48002782 0.35668311 10.5
-2.0713742 -1.7788255 0.7249347 12
-2.033957 -1.2304565 0.72548652 13
-2.0395322 -0.7140556 0.6991387 14
-2.1527491 -0.67700881 0.52490759 12
-2.1360314 -0.4471283 0.4871515 12
-2.0868726 -1.2151953 0.82408154 14
-2.0961523 -0.97746104 0.79759371 14.5
-2.0945082 -0.71017581 0.72707808 15
-1.9941 -2.2380772 0.51415962 9
-1.9863524 -1.0500414 0.52476907 11.5
-1.9823929 -0.80567431 0.41233042 11
-1.7236691 4.1231751 -0.27913499 9
-1.7865925 4.1433558 -0.18269657 10
-1.3586028 -2.2390068 1.0018432 14
-1.1820941 4.1839147 0.34964961 14
-1.1219728 4.2151008 0.50162935 15
-0.80653352 1.5955348 0.16108121 14
-0.49250913 -2.2576559 1.073661 15
-0.30620295 0.70675981 -0.31680274 0
-0.30291981 0.9230808 -0.33535296 2
-0.248519 -2.2421701 1.0799055 15
-0.037494574 0.74898881 -0.31921023 0
-0.010455023 0.99259418 -0.33916342 2
-0.039427213 -2.3155367 1.0931714 15
0.11704902 0.66744971 -0.30808833 0
0.3982383 -0.82444865 -0.0835528 1
0.20810123 -0.72923422 -0.093067586 0
0.35565403 -0.60453779 -0.11497934 0
0.2822156 0.93849212 -0.33679274 2
0.27367127 4.0364451 -0.037043966 11
0.46544579 -0.57405794 -0.11705129 0
0.41747093 1.2230431 -0.36852792 3
0.48708805 -2.4191885 0.50730497 8.5
0.50273621 -2.3975062 0.67565662 10.5
0.51090044 -2.3628318 0.87359607 12.5
0.51758575 3.9902294 -0.16980615 10
0.57358098 -2.3239133 1.091851 15
0.53679585 4.0202618 0.06830097 12
0.56696153 4.0508604 0.26335412 13
0.55610979 4.0896263 0.44966838 14.5
0.76598734 -0.66911131 -0.10565389 1
0.69363558 -0.74613297 -0.084637851 1
0.72570097 0.73045039 -0.29670566 2
0.85719955 -0.63385677 -0.10776304 2
0.85347968 -0.81722516 -0.074594595 2
1.0568566 -3.1051743 0.54530025 8
1.1432071 -3.1418164 0.85161889 10
1.1239694 -3.076349 0.68634623 9
1.1274421 -2.9854834 1.2466081 14
1.5875052 -2.8044851 0.51366657 8
1.5852354 -3.1538353 0.86659759 10
1.5442833 -3.0817204 0.98928565 11
1.4096975 -1.0207411 0.60100007 14
1.4424657 -3.0226986 1.2305399 13
1.4357408 -3.0029078 1.5220466 15
1.6176039 -3.0716965 1.3150611 14
1.7873967 7.0380249 0.86320102 15
1.8699198 -1.2231374 0.6073482 12
1.831671 -1.0160004 0.5794152 13
2.0455928 -1.1086667 0.40521857 10
2.0395794 -3.0140033 1.3507304 14
2.0767336 6.8943033 0.060290124 12
2.0700121 6.9442859 0.38680267 13
2.288254 -3.1420529 0.89652985 10
2.5749273 -3.1342669 0.58281046 8
2.50244 6.9967408 0.86188567 15
2.689539 -1.1097951 0.35059458 9
2.6746552 -2.9775193 1.4629467 14
2.7887769 6.836421 0.04152501 11
2.9500988 6.8839283 0.40797845 13
3.1473031 6.9481726 0.67577922 14
3.7043002 6.6852493 -0.58665103 9
3.6991868 6.0509396 0.60632437 13
4.1283326 3.8839581 0.45057333 12
4.3393703 -0.35265324 -0.009647022 7
4.209311 6.5088391 -0.76132149 8
4.2904639 6.5525527 -0.56475776 9
4.9407382 -1.6811985 0.92990035 11
4.9992247 -1.1304234 1.0013908 12
4.9420161 -2.1486721 1.6980282 14
4.9039917 -2.8266714 1.9489709 14
4.9865136 -2.3762991 1.9497691 15
5.0275731 0.28346166 -0.12874655 7
5.021657 0.36928603 0.043474793 8
5.0209546 0.28928426 0.25328001 9
5.0514064 0.78073722 0.22773498 9
5.0260019 0.38527444 0.40013501 10
5.0630703 -0.20547925 0.83317786 12
5.1165586 0.15447797 0.70496726 11
5.0366268 -0.49131751 1.0819414 13
5.1306987 0.25989926 0.95355415 12
5.0315275 0.40220958 0.93386209 13
5.0144286 -1.122391 1.210224 13
5.0733504 -0.11808792 1.200441 14
5.06388 1.0043415 0.92660964 13
5.0545249 0.65626186 1.1984589 14
5.0349636 -1.5836238 1.7464926 14.5
5.1139913 0.49805555 1.4908775 15
