# .PCD v0.7 - Point Cloud Data file format
VERSION 0.7
FIELDS x y z intensity
SIZE 4 4 4 4
TYPE F F F F
COUNT 1 1 1 1
WIDTH 10
HEIGHT 1
VIEWPOINT 0 0 0 1 0 0 0
POINTS 10
DATA ascii
-0.049134139 -1.125764 0.012806954 2
-0.040235478 1.0405318 -0.37259674 1
0.27815086 1.0568392 -0.40251112 2
0.46087354 0.64086276 -0.34444568 0
0.42491576 0.8810904 -0.38488427 2
0.49337217 -1.1122099 -0.014270159 2.5
0.62591046 0.23155786 -0.27314374 0
0.5922603 0.58508879 -0.34223244 0.5
0.66586089 0.80180943 -0.38771015 2
0.79404747 0.55954683 -0.35146436 1
