# .PCD v0.7 - Point Cloud Data file format
VERSION 0.7
FIELDS x y z intensity
SIZE 4 4 4 4
TYPE F F F F
COUNT 1 1 1 1
WIDTH 163
HEIGHT 1
VIEWPOINT 0 0 0 1 0 0 0
POINTS 163
DATA ascii
-0.30958965 -0.93724352 0.0085990774 131
-0.15113269 -0.97254848 0.0010245903 147
0.011639574 -0.9754684 -0.021881428 152.5
0.15308644 -0.9726404 -0.021750886 159.25
0.28936166 -0.93049836 -0.037126381 164
0.41440642 -0.923751 -0.046995707 166
-0.45129034 -0.86039484 0.0065266998 124.66666
-0.2500807 -0.8623687 -0.014207321 150
-0.11425336 -0.91137552 -0.018087961 157.5
-0.085196242 -0.86105704 -0.030466845 163.5
0.058465779 -0.85370147 -0.043100968 169.5
0.18049826 -0.85839576 -0.043603618 171.5
0.29350126 -0.87282521 -0.042465925 168
0.29866797 -0.84451836 -0.055731997 169.5
0.41072768 -0.86696684 -0.052045096 169
0.52433908 -0.84006709 -0.063815638 173
-0.61906826 -0.79858279 0.0010455083 112
-0.55638343 -0.7499004 -0.0096375635 119
-0.36457053 -0.77686214 -0.019789824 143.5
-0.16673855 -0.75373954 -0.040161148 171.75
-0.043116014 -0.78568858 -0.045238778 171.25
0.086233251 -0.78819996 -0.06188963 169
0.12707876 -0.75275797 -0.064369075 176.5
0.20691267 -0.74979335 -0.065515943 179.25
0.30521488 -0.76891017 -0.066557474 177
0.40566382 -0.74843365 -0.07235273 183.75
0.50926954 -0.76164025 -0.074457683 178.75
0.62014848 -0.77580726 -0.079002462 172.33333
-0.45408922 -0.67303467 -0.032790203 140.39999
-0.30425313 -0.71666384 -0.034083523 164
-0.25804046 -0.67173916 -0.047309112 174
-0.11889365 -0.69002843 -0.052916702 178
-0.070428774 -0.66350836 -0.064292535 181.8
0.015664209 -0.68200392 -0.067897849 184.60001
0.1382799 -0.64552093 -0.078744091 186.5
0.22537011 -0.66432667 -0.075526714 188.25
0.31184828 -0.66612691 -0.073600739 188
0.41666749 -0.65192962 -0.082126766 188.2
0.54365301 -0.68868273 -0.093735769 182.5
0.63911504 -0.68491906 -0.09426634 181.75
0.73975235 -0.67146671 -0.10318259 180
-0.34528649 -0.59051996 -0.055702932 169.75
-0.25677198 -0.55585021 -0.065218024 181.5
-0.16313247 -0.57769537 -0.071067728 185.83333
-0.027043525 -0.56704307 -0.076343268 186.60001
0.054808501 -0.57012236 -0.084102839 187
0.16285451 -0.58173555 -0.090053782 186.85715
0.24678345 -0.56535608 -0.087301023 185.25
0.33426648 -0.56470978 -0.092162453 185.09091
0.44226792 -0.58413708 -0.096774451 186.66667
0.55230737 -0.57475799 -0.10507333 188.14285
0.63156098 -0.56111377 -0.11480662 189.2
0.74600685 -0.59227228 -0.11519764 190.39999
0.82537097 -0.54931802 -0.12568299 187.25
-0.2376302 -0.51087046 -0.082782872 186.66667
-0.15834494 -0.44595188 -0.088808432 188
-0.061940055 -0.47368723 -0.089288913 186.10001
0.044628244 -0.47426918 -0.099745609 183.44444
0.14240864 -0.50223619 -0.10293422 183.33333
0.25014642 -0.47657925 -0.11999235 179.90909
0.34288949 -0.49408403 -0.11583192 180.33333
0.43240774 -0.4924145 -0.12005405 181.64285
0.53771597 -0.4642607 -0.12464347 182.60001
0.64792526 -0.48456094 -0.1239031 187.10001
0.73495746 -0.464084 -0.13039279 188.42857
0.85170734 -0.47614273 -0.14473237 188.60001
-0.11191857 -0.40883598 -0.094334982 185
-0.057605322 -0.39343044 -0.10910613 183.58333
0.04660017 -0.37167305 -0.12700225 178.25
0.14570515 -0.38908932 -0.12806484 176.11765
0.26168814 -0.40645927 -0.131496 175.10001
0.35861 -0.39769951 -0.13726965 174
0.46326485 -0.37300903 -0.14717178 175.42105
0.54878277 -0.3718504 -0.15001814 178.5
0.64061099 -0.37832406 -0.14346826 181.88889
0.74684119 -0.37242386 -0.14549519 186.44444
0.8060028 -0.4146359 -0.14093761 189
0.021428199 -0.31344515 -0.13530466 176.75
0.12969579 -0.23418322 -0.16520621 166
0.54818231 -0.29270473 -0.16517025 174.34782
0.63724726 -0.28122133 -0.1676351 178.0625
0.69900715 -0.32113388 -0.15091749 183
0.18191718 -0.20730016 -0.16998972 161.66667
0.22640926 -0.21718654 -0.17098096 164
0.36465728 -0.1564299 -0.18270639 156
0.58927017 -0.22426471 -0.1819749 174
0.59413266 -0.2288996 -0.17452987 175
0.59720755 0.14584659 -0.25242046 153.75
0.25163952 0.24348694 -0.17128055 147
0.32927474 0.22677116 -0.15801476 126
0.45247611 0.24439545 -0.26307124 144.66667
0.54604185 0.2135808 -0.2598955 148.125
0.64379227 0.20826519 -0.25946987 152.3158
0.706101 0.24403517 -0.26088202 162.66667
-0.068204254 0.31706357 -0.23145369 151.28572
0.021547126 0.33020493 -0.24497452 162.25
0.12503521 0.32571214 -0.24209653 165.75
0.2284738 0.30493414 -0.24062243 165.75
0.3418223 0.32180423 -0.25712419 160.25
0.4275223 0.29171258 -0.27031788 153.36363
0.54748517 0.30937821 -0.27623972 161.42857
0.63251138 0.30176735 -0.27127439 165.88235
0.7417444 0.30658633 -0.27995324 168.39999
0.038846042 0.41020712 -0.21581788 137
0.14109224 0.43616015 -0.26451048 169.66667
0.22854312 0.42153597 -0.28203785 177.39999
0.33462116 0.44487157 -0.29432049 180.5
0.43942189 0.4304488 -0.29429334 179.89999
0.53757197 0.39010188 -0.28714117 175.41667
0.64557499 0.40766099 -0.29813111 174.85715
0.73065591 0.38941735 -0.29820457 172.33333
-0.13121499 0.48395556 -0.22838922 146
-0.037290473 0.52288514 -0.28103745 146
0.064805113 0.50642246 -0.2808753 153.25
0.16527751 0.50992531 -0.28820989 166.75
0.24921085 0.50670356 -0.2969417 175.66667
0.3283509 0.50727808 -0.30321234 175.77777
0.44396406 0.51253217 -0.31082666 173.8
0.5559845 0.48912928 -0.3112815 176.5
0.6312381 0.46995291 -0.30850473 175.66667
0.75664282 0.51256496 -0.32816106 164.5
-0.24607722 0.60731125 -0.28515747 140.66667
-0.1648605 0.60325903 -0.29374471 142.5
-0.077849492 0.57810062 -0.29104036 144.5
0.023058984 0.6059472 -0.3032335 145.8
0.12636977 0.61400092 -0.31140709 151.8
0.22600606 0.60425168 -0.31286725 160
0.31927404 0.60037875 -0.31767952 164
0.40708435 0.56643796 -0.31673411 168
0.5053494 0.63701487 -0.33713111 158
0.63149333 0.59467566 -0.33653527 162.2
-0.34628102 0.71184725 -0.30722794 130.60001
-0.15042165 0.67685288 -0.30873632 139.75
-0.03646329 0.71449208 -0.32189539 140
0.054673944 0.72361112 -0.32579017 142
0.099892259 0.68121189 -0.31993759 144.66667
0.20472457 0.6938237 -0.32769975 144.2
0.31153014 0.69006896 -0.33557832 153.5
0.41245183 0.66640502 -0.3372792 159.33333
0.51750404 0.70154536 -0.34981036 153.5
0.62938648 0.70672077 -0.35533839 150.5
-0.4316515 0.79971319 -0.31530553 116.5
-0.24419999 0.80400461 -0.32923585 127.25
-0.20543 0.75300813 -0.3288469 135
-0.0950194 0.82182944 -0.34205922 136
0.046219341 0.82369548 -0.3498975 135.5
0.18157531 0.78922802 -0.34148684 133.5
0.18926971 0.75979531 -0.33958897 139
0.30325851 0.7790162 -0.3510977 137.75
0.41840348 0.7820124 -0.3602255 143.33333
0.53277606 0.77828485 -0.36754271 142
-0.30703145 0.8896032 -0.345043 123
-0.13832986 0.89869034 -0.34882388 126.5
0.015991174 0.89918077 -0.35716817 130
0.15975006 0.88646352 -0.36311486 129.5
0.29455334 0.88459367 -0.3738369 130.66667
0.14243758 0.18797834 -0.074615814 122
0.033586681 0.22997889 -0.098893642 131
0.17388204 0.20852408 -0.094208151 128.92308
0.25341046 0.20013273 -0.11040086 130.06061
0.29677901 0.18795446 -0.12451871 120
0.094085313 0.32536033 -0.15257129 127
0.030689865 0.22821444 -0.016844083 139.60001
