# .PCD v0.7 - Point Cloud Data file format
VERSION 0.7
FIELDS x y z intensity
SIZE 4 4 4 4
TYPE F F F F
COUNT 1 1 1 1
WIDTH 11
HEIGHT 1
VIEWPOINT 0 0 0 1 0 0 0
POINTS 11
DATA ascii
0.10217235 0.71094638 -0.1618347 0
0.045352042 1.0394166 -0.15605524 1
0.25042361 0.73372561 -0.15278268 0
0.35589886 -0.94971389 -0.17580472 3
0.44241193 0.71636862 -0.14008525 0
0.46322581 0.95040435 -0.14113303 1
0.62265605 0.65827167 -0.14515738 0
0.62509209 1.1287928 -0.11287472 2
0.99190378 -0.82163227 -0.15521432 4
0.94016159 -0.57062083 -0.16013646 3
2.531553 4.32551 0.22757249 6
