# .PCD v0.7 - Point Cloud Data file format
VERSION 0.7
FIELDS x y z intensity
SIZE 4 4 4 4
TYPE F F F F
COUNT 1 1 1 1
WIDTH 697
HEIGHT 1
VIEWPOINT 0 0 0 1 0 0 0
POINTS 697
DATA ascii
-6.5584254 -3.6891372 1.111197 12.5
-6.5798898 -3.4501569 1.0964296 12.5
-6.5895095 -3.4494152 1.5313827 14.5
-6.2062459 -3.7105391 0.94533914 12
-5.2605343 -3.4205511 -0.087488398 8
-5.2608938 -3.4653792 0.10350335 9
-5.3107224 -3.4184592 0.83608282 12
-5.3211079 -3.4196951 0.90235221 13
-5.2707133 -3.4257596 1.4865034 15
-5.2650399 -3.0951595 1.5289754 15
-5.0320811 -3.518079 0.001258285 8.5
-4.922792 -1.4419183 0.12533447 9
-5.0544248 -2.0356102 0.22275987 10
-4.9476395 -1.6679288 0.42652529 11
-5.0093923 -1.5701829 0.44658607 11
-5.0243154 -3.5195732 0.77395201 11.666667
-5.1562176 -2.5065949 0.743361 12
-5.0234261 -2.0544741 0.80827516 13
-5.0224414 -1.8455389 0.84171182 12.75
-4.9152842 -1.3887705 0.88094193 13.25
-4.9349976 -1.1538738 0.88357741 13
-5.1331196 -3.4784403 1.1231643 13.6
-5.1684871 -2.5797498 1.0707859 13.5
-5.0163975 -2.2957637 1.1552403 14.166667
-4.9991093 -1.8351859 1.1137754 14.5
-4.9415412 -1.4604772 1.1137869 14.5
-4.9214268 -1.0200148 1.1398025 14.75
-4.9464722 -0.78464139 1.1481431 15
-5.016252 -3.5407939 1.4129596 15
-4.5388656 2.3400881 0.6722486 11
-4.4390259 3.3365757 0.73653495 11
-4.6676097 -3.5505502 0.718835 11.666667
-4.5543227 2.2437732 0.94448346 13
-4.5130906 2.551441 0.90694863 12.5
-4.4878788 2.9712965 0.98142105 12.5
-4.4575191 3.2284753 0.84716862 11.5
-4.7221417 -3.5531669 1.09756 13.8
-4.7989936 0.30831155 1.1957169 15
-4.7967119 0.5830912 1.2488848 15
-4.7635341 0.84241903 1.2962043 15
-4.4452796 1.6479807 1.1574029 15
-4.5454931 2.3501406 1.1353383 14
-4.5152335 2.461339 1.156746 14
-4.452445 3.2729304 1.1656481 13
-4.5690022 -3.5909684 1.3999684 15
-4.1470156 -3.192327 0.030022152 8.5
-4.021203 1.5641996 0.11811713 8.5
-4.034328 1.5609586 0.44169402 11
-4.0334396 1.6495167 0.5158264 11
-4.2106767 2.3409605 0.5521968 11
-4.0964003 2.4912663 0.63974744 11
-4.2319822 2.8817236 0.64745969 11
-4.4257712 3.4272919 0.67414945 11
-4.1976466 -3.6058536 0.72122097 12
-4.0785527 0.94351411 1.0864092 15
-4.0448833 1.1746697 1.0131673 15
-4.0612869 1.8415614 0.71926993 12
-4.4284768 3.5053875 0.87504798 12
-4.3251214 3.7682824 0.97172427 12.285714
-4.3241916 -3.5966311 1.1101686 14.25
-4.0625291 1.0895627 1.1142409 15
-4.2242537 1.7684314 1.2259219 15
-4.1671147 2.1478519 1.2425574 15
-4.2151608 2.5707734 1.235575 14.4
-4.0962148 2.9692624 1.3425162 14.5
-4.2299085 3.3587441 1.2291759 13.333333
-4.3015499 -3.6202524 1.3503454 15
-3.6732585 -3.655988 -0.085773796 8
-3.7827671 -3.3723376 -0.047396157 8.125
-3.9276869 -3.2001057 0.094415687 9
-3.7914793 -2.1245849 0.051787678 9
-3.6965315 -1.4002621 0.060096368 8.5
-3.6753805 -1.1715096 0.11598703 9.5
-3.9921229 1.788276 0.19237021 9
-3.9467626 2.1754386 0.18488142 8.5714283
-3.9058044 2.5962784 0.17569554 8.333333
-3.8531177 2.9888437 0.22882661 8.5
-3.8029461 3.418153 0.28630668 8.6000004
-3.7688015 3.6063342 0.24154146 8
-3.702724 -3.6576498 0.22379066 10
-3.7290485 -3.4863009 0.33487529 10.333333
-3.7171183 -1.3554102 0.23982711 10
-3.6480105 -1.1913786 0.23843777 10
-3.9977579 1.8664101 0.43647391 10.666667
-3.9580767 2.1703892 0.35392269 10
-3.9256825 2.5950966 0.40717098 10
-3.8889019 2.9920478 0.46824622 10
-3.8251722 3.310761 0.44863728 9.75
-3.8128481 3.8157153 0.56009138 10
-3.7231522 4.0779948 0.65015364 10.5
-3.8219361 -3.6428235 0.68256384 12
-3.9499347 -3.6292436 0.6709609 12
-3.993583 1.5340335 0.92301732 14
-3.9852052 1.6710156 0.88511527 13.5
-3.888757 3.9106958 0.98538524 12.2
-3.7068925 4.1196752 1.0472103 12.5
-3.7933698 -3.6607537 1.2011337 14.666667
-3.9274445 -3.6377304 1.019812 14
-4.036046 1.3641707 1.1715428 15
-4.0515895 3.3309016 1.4648397 14.666667
-3.9308305 3.8376904 1.3124206 14
-3.7294996 4.0961623 1.4048901 14.5
-4.0115743 -3.6499209 1.3561549 15
-4.0354733 3.5307994 1.5923505 15
-4.0089521 3.6843162 1.6343782 15
-3.3625338 -3.6676497 -0.079514273 8
-3.4394217 -3.5512795 -0.067510247 8
-3.4122488 -2.0658188 -0.059119821 8
-3.4169204 -1.9033347 -0.040110253 8
-3.3947437 -1.2039818 -0.043023124 8
-3.3994818 3.3774221 0.25265294 8.5
-3.3918536 -3.6891239 0.4093082 10.666667
-3.464613 -3.5445697 0.42949781 11
-3.3341734 -1.089337 0.27671412 11
-3.4069805 -3.6856291 0.75613797 12.8
-3.4592233 4.1796789 0.97746295 12
-3.5043085 -3.6910672 1.1534772 14.666667
-3.3855963 4.1263995 1.3999228 14.5
-3.0142848 -3.7252021 -0.040867656 8.166667
-3.1007752 -3.5810153 -0.20949599 7
-2.8319609 -2.0788236 -0.042819437 8
-2.8712204 -1.9741045 -0.0082083028 8.5
-2.8927014 -1.3851846 0.086790688 9.272727
-2.8440278 -0.81663245 0.1149428 9
-2.822921 -0.7689606 0.12640156 9.5
-2.9822786 3.3170748 0.26828024 8.666667
-3.0027719 -3.7297325 0.40851197 11
-2.9617519 -2.4532154 0.26850012 10
-2.9305575 -2.172276 0.28518385 11
-2.9291446 -1.8470523 0.28607714 10.666667
-2.8425121 -1.3471752 0.33616441 11.333333
-2.8491046 -0.99881053 0.32433304 11.5
-2.8215568 -0.80515593 0.38082126 12
-3.0259261 -3.7291439 0.85420644 13.5
-3.0408204 4.0980835 1.0232085 12.6
-3.050653 -3.7441418 1.1919945 15
-3.0480947 4.0804319 1.3779455 14.5
-2.5625172 -14.698526 -0.35806224 7.5
-2.6704073 -3.7440295 -0.034811676 8.25
-2.747086 -3.4296103 -0.17325447 7
-2.7376952 -2.0810537 -0.013703043 8.5
-2.771728 -0.64807087 0.12686142 9.666667
-2.6506312 3.2734463 0.27313626 8.666667
-2.6524639 -3.763299 0.3906801 11
-2.7972674 -0.93682265 0.31718045 11.5
-2.7739758 -0.69962841 0.34484026 11.5
-2.6173697 3.331888 0.51418465 10.5
-2.5304101 4.0238461 0.74130803 11.5
-2.6238432 -3.7653406 0.78244054 13.166667
-2.6314154 4.0407596 1.0553741 13.2
-2.622654 -3.7852697 1.1276507 15
-2.6215358 4.0222011 1.3745615 14.666667
-2.1228466 -3.7721362 0.052358594 8.8571424
-2.10711 -3.4066491 -0.042638548 8
-2.1367753 -3.1217344 0.0038679575 8.5
-2.2295747 3.3810291 0.32732221 9
-2.1650536 4.4381042 0.43249801 9
-2.1852748 -3.8092504 0.44862455 11
-2.365967 3.4170306 0.53552365 10.5
-2.295963 3.7521074 0.56066602 10.333333
-2.2527499 4.0557446 0.66298407 10.857142
-2.2532558 4.4385281 0.57116425 9.666667
-2.1441715 -15.822481 0.57037181 9
-2.0925245 -14.670153 0.33310089 9
-2.2367816 -3.8033581 0.7411592 13
-2.2316301 4.1052437 0.99811 13
-2.2279654 4.4314241 1.1252648 13
-2.243655 -3.8189449 1.0624512 15
-2.2857194 4.0819402 1.34778 14.4
-2.1959321 4.4132628 1.5009295 15
-1.6791904 -3.8609338 -0.20090242 7
-1.8881831 -14.747499 -0.34144035 7.5
-1.836693 -12.041344 -0.12507169 8
-1.667745 -11.099654 -0.28554979 7
-1.7993103 -3.8366637 -0.0057067522 8.333333
-2.0081079 3.462029 0.33706826 9
-1.9759381 3.7382429 0.36140704 9
-1.8306184 4.3179774 0.4260993 9
-1.7565618 4.3982043 0.43996355 9
-1.7641653 -3.8507659 0.40971097 11
-1.8343532 4.2008924 0.64585125 10.666667
-1.7402114 4.3891878 0.68117166 11
-1.9080669 -15.965595 0.32066768 9
-1.8993378 -11.940466 0.49087843 9.5
-1.9372008 -11.109154 0.61365741 10
-1.8405446 -3.849905 0.8245554 13.875
-1.8276072 4.2412472 1.0394039 13
-1.7735997 4.3865476 0.98386097 12.5
-1.9254364 -3.8512661 1.0178937 15
-1.9086471 4.1752248 1.3397448 15
-1.7408687 4.3645535 1.3679422 15
-1.7894336 -11.280256 1.903748 13
-2.0235434 -11.146818 1.9029099 13
-2.0032434 -10.314184 1.9246942 13
-1.8124361 -9.831955 1.9346021 14
-1.816932 -14.37374 2.1885409 12
-1.898075 -15.313321 2.4395893 13
-1.9400007 -15.301661 2.6596384 13
-1.9007813 -14.446424 2.8233352 14
-1.3424715 -6.9548874 -0.3891629 7
-1.2394586 -5.6860638 -0.27332211 7
-1.4330822 -3.8830674 -0.19954893 7
-1.3937593 -14.816544 -0.33060655 7.5
-1.3844436 -6.9542341 0.054993477 8
-1.2599297 -5.6800599 0.045857888 8.5
-1.3878341 -3.8327653 0.013990977 8.2857141
-1.4631075 4.2728381 0.4647795 9
-1.3637516 -6.9050627 0.38438734 10
-1.266561 -5.7236381 0.40677398 10.333333
-1.4380952 -3.8280048 0.38581052 11
-1.4355448 4.2151322 0.67463773 11
-1.4868519 -15.964629 0.43367445 9
-1.3031013 -6.8558726 0.91066027 12
-1.4481279 -3.8402772 0.85424596 14.25
-1.4606383 4.2647843 1.1083328 13.285714
-1.2418956 -15.809282 0.94104487 10
-1.2616723 -6.0881925 1.3190526 14
-1.3095971 -5.739356 1.1497778 14
-1.4555956 4.2122788 1.3774805 15
-1.5058019 4.3644667 1.3703003 15
-1.4167721 -7.0304542 1.4282943 13.5
-1.5900114 -10.633025 1.9527739 13
-1.6003283 -9.8764391 1.9353102 14
-1.4601175 -9.5112371 1.9606535 14
-1.5020834 -14.376577 2.1984017 12
-1.3810092 -15.369529 2.4190547 13
-1.6056641 -14.585002 2.8529088 14
-1.0610206 -3.7676194 -0.18038732 7
-0.79619819 1.4311935 -0.25319645 2
-0.80146891 1.8898518 -0.25442365 3
-0.89691472 -14.88795 -0.31752104 7.5
-1.1875844 -6.065918 -0.15834564 7
-1.0972686 -4.7418351 -0.19032003 7
-1.0663736 -3.8732512 -0.0026116665 8
-1.0653056 4.1548033 0.50039178 10
-1.0710058 -3.8486619 0.36200884 11
-1.0409813 4.1939702 0.70497042 11
-1.1626813 -15.769426 0.29591799 9
-1.0458379 -3.8594406 0.82279241 14
-1.0400318 4.1860662 1.1286453 13.571428
-0.89738786 -15.879269 0.96077526 10
-0.94274914 -15.345619 0.74841845 9
-1.019635 4.2017918 1.3809687 15
-1.1456504 -15.810716 1.827306 11
-1.1893235 -14.382841 2.2106926 12
-1.0467632 -15.453551 2.4180079 13
-1.2673371 -15.402183 2.6529984 13
-1.1467187 -14.643819 2.8764627 14
-0.47932169 -14.888399 -0.67473066 7
-0.58383954 0.75150627 -0.24751607 0
-0.59127223 1.0191953 -0.23758999 1
-0.56211269 1.3696709 -0.22794144 2
-0.51788747 1.7495781 -0.22701706 3
-0.60091174 2.1310816 -0.23644012 3
-0.41215646 2.5344977 -0.20846227 4
-0.50641793 2.8398023 -0.2193913 4
-0.64479077 3.2929573 -0.24056055 4
-0.55864352 -14.879426 -0.30505264 7.5
-0.618025 4.2979031 0.70612943 10.8
-0.45155537 -16.097486 0.27656165 9
-0.59592503 4.2831035 1.168583 13.833333
-0.58255297 -15.891317 0.87350923 9.5
-0.65173465 4.2897005 1.3812704 15
-0.78461272 -15.816933 1.8605793 11
-0.72056061 -14.439385 2.2395093 12
-0.70050889 -15.55369 2.4169128 12
-0.81486791 -15.431211 2.8429718 13
-0.095570907 -2.9108512 -0.24753946 6
-0.033807062 -2.5361102 -0.23725353 5
-0.25931656 -2.1495202 -0.25319323 5
-0.15617028 -1.8039091 -0.23866206 4.3333335
-0.16762835 -1.4830199 -0.2378563 4
-0.19573769 0.76401734 -0.21277176 0
-0.20644422 1.0339593 -0.20850158 0.83333331
-0.19873886 1.4197836 -0.19752526 2.4000001
-0.18909818 1.817201 -0.18795428 3
-0.16403104 2.2094059 -0.17256121 4
-0.062177427 2.4330108 -0.13736841 4
-0.1785056 3.1600683 -0.18485209 4
-0.26653641 -15.726742 -0.22118545 8
-0.20063917 -15.210161 -0.41093114 7
-0.23665532 1.980655 0.43641165 12
-0.3394728 1.9958897 0.42394555 12
-0.051053856 -9.17875 0.28577498 9
-0.24084532 4.2556825 0.73286831 10.8
-0.24478284 4.2440352 1.1442721 13.777778
-0.23236287 -15.912447 0.8883791 9.5
-0.24900082 4.2463927 1.370278 15
-0.42769644 -15.860105 1.8970747 11
-0.34978896 -15.514222 2.4032457 12
0.21502866 -8.8742046 -0.33949944 7
0.23535576 -4.41014 -0.26109251 6
0.25563341 -3.7539372 -0.24077497 6
0.28203079 -2.9512286 -0.22119676 6
0.29533187 -2.555434 -0.21249834 5.5
0.16893682 -2.1670623 -0.21640329 5
0.20408297 -1.7966475 -0.20293869 4.75
0.24034691 -1.3544056 -0.19939302 3.6666667
0.18827641 -0.96515477 -0.2104387 1.7777778
0.2394553 -0.65130007 -0.20340954 0.2
0.25159186 0.71476257 -0.1741299 0
0.20649035 1.0062923 -0.17659461 1
0.24371295 1.3882245 -0.15993561 2.5999999
0.17764413 1.7756289 -0.15571374 3.5
0.27137676 2.2007399 -0.13032982 4
0.24838477 2.7987175 -0.1459524 5
0.23260041 3.1653619 -0.15000571 5
0.21055345 3.710068 -0.16063327 5
0.17002085 4.3273077 -0.12171809 5
0.18059489 -8.920393 -0.11055005 7.5
0.075641729 -8.7024231 -0.092343234 8
0.040317941 1.9536709 0.4420698 12
0.36647394 -9.1055403 0.27874061 9
0.15122069 -8.7167263 0.28282773 9
0.21566986 4.2040024 0.73928654 10.833333
0.33123267 -13.423702 0.62303841 9.5
0.15477316 4.1992049 1.1312765 13.5
0.15327951 -15.951988 1.0165963 10
0.18127608 4.2008848 1.3771486 15
0.17148283 -15.909576 2.236989 12
0.090558238 -13.392909 2.1742582 12.333333
0.084349692 -15.513919 2.6578779 13
0.096265271 -14.63473 2.9270992 14
0.71191514 -8.1492872 -0.28223976 7
0.774701 -3.9419801 -0.21854937 6
0.72659248 -3.4589109 -0.21112067 6
0.68682176 -3.0642455 -0.20353328 6
0.63870281 -2.5956161 -0.19160849 6
0.59280753 -2.1472838 -0.18066338 5
0.63126045 -1.78219 -0.17061235 5
0.61682606 -1.4285649 -0.17176411 4.3333335
0.63140428 -0.99753302 -0.1762653 3.1428571
0.6143285 -0.60562557 -0.17023587 1.4444444
0.68087626 -0.22535965 -0.14959969 0.85714287
0.56126517 0.34985998 -0.15722378 0
0.5623461 0.6373992 -0.14624634 0.77777779
0.60813016 0.99512678 -0.14480312 2.0999999
0.61369371 1.4120194 -0.13264249 3.2
0.64951676 1.8039666 -0.12215045 4
0.5724147 2.2588871 -0.12752241 4
0.60157812 2.5929489 -0.12609214 5
0.62598282 2.8742771 -0.12437577 5
0.65693015 3.2292135 -0.12273573 5
0.70889801 3.7967188 -0.12837385 5
0.73213273 4.248158 -0.072768748 5
0.63943815 -10.891493 -0.33230954 7
0.540703 -10.798554 -0.034835141 8
0.68598479 -4.166748 0.12381572 8.666667
0.46288824 2.3184416 0.25328988 9
0.61956978 4.2985764 0.3152602 8
0.67977768 -10.74525 0.27211401 9
0.63999146 -9.5324106 0.46323457 9
0.7527194 -8.3817749 0.44763961 9
0.73588187 -5.2575779 0.58931136 11
0.53714424 4.1670399 0.77663833 11
0.52418953 -10.655693 0.64803123 10
0.68042415 -9.5229807 0.61906219 10
0.55134863 4.1547823 1.185021 13.857142
0.53244996 4.1602812 1.3854834 15
0.48024482 -14.642844 2.1128137 12
0.61347371 -13.483181 2.1115098 12
0.43228489 -15.562827 2.6658177 13
0.51412112 -15.542253 2.8947382 13
0.558631 -14.690988 2.9668696 14
0.93412578 -8.1795664 -0.27490956 7
0.96099687 -5.7461972 -0.21878263 7
1.0023686 -5.2564139 -0.17155291 7
1.1100916 -5.1723433 -0.16170408 7
0.8443799 -4.6317096 -0.23239471 6
1.0753868 -3.007967 -0.15846039 6
0.97775269 -2.5829477 -0.15926558 6
1.1297424 -2.0210717 -0.1320487 6
0.97475803 -1.777951 -0.14098264 5.25
0.97062153 -1.3518076 -0.13701428 4.8000002
1.0097488 -0.9641577 -0.13809673 4.2857141
0.99590063 -0.55896896 -0.13757905 3.1428571
0.97390091 -0.25270265 -0.12517761 2.8333333
0.91329062 1.0576365 -0.10987709 3.3333333
0.96456116 1.3647552 -0.098946072 3.8
1.0461353 1.7217791 -0.081347004 4.75
0.95933908 2.205528 -0.09389098 4.6666665
0.94577104 2.6167517 -0.097081318 5
1.0514997 3.0997303 -0.090845764 5
1.1683849 3.625273 -0.090257034 5
1.0750632 -7.4081645 0.028271828 8
0.93111527 -5.0379472 0.015787777 8
0.89346004 -4.4198809 0.048723422 8
0.92020446 -4.1813564 0.094013304 8.333333
1.1202903 4.2025738 0.50390303 9
0.90986443 -8.1025248 0.44706827 9
1.1393425 -7.204546 0.43994415 10
0.98309278 -5.0381246 0.48253268 10.6
1.1212039 -4.4606953 0.35233176 10
0.96633428 4.1191864 0.77661717 11
0.86849606 -9.2803802 0.62099445 10
1.0345799 -8.14779 0.59641129 10
0.97675127 -5.1951361 1.0431088 13
0.94844139 4.1061568 1.2251592 14
0.96271032 4.1103354 1.3997645 15
0.97917843 -13.482411 2.070595 12
0.777978 -15.626951 2.6804259 13
0.8662256 -14.666617 2.9837368 14
1.2294465 -7.3145852 -0.23011321 7
1.4427643 -5.232913 -0.1606818 7
1.3952019 -5.0655179 -0.14548829 7
1.5821698 -4.1011629 -0.1807851 6
1.2616121 -3.794122 -0.17520604 6
1.4696043 -2.9402535 -0.12086372 6
1.3174592 -2.5279372 -0.1268629 6
1.403731 -1.8050114 -0.10497014 6
1.3778009 -1.3600408 -0.10175344 5.6666665
1.4188555 -1.0021485 -0.090050302 5.1999998
1.3660923 -0.61174953 -0.098729976 4.5999999
1.4437699 -0.36323702 -0.086381696 5
1.2701098 1.7750027 -0.059981003 5
1.4795096 2.1908345 -0.039951794 5
1.4116478 2.5792477 -0.050882697 5
1.4990526 3.1649122 -0.046995051 5
1.2611884 4.117485 -0.033593927 5.5
1.3803059 -4.9416885 0.10697392 8.333333
1.5862767 -4.0646386 -0.04432977 7
1.5206535 -3.0552711 0.093695208 8.25
1.3608547 4.0870624 0.5532524 9
1.2302281 -5.3987646 0.42108464 10
1.3844924 -5.0215235 0.58449841 11
1.3294114 -4.5452099 0.48473585 10.666667
1.3787892 -4.3302574 0.41755685 10
1.3652314 4.0719495 0.78102577 11
1.3584167 4.0568838 1.2292238 14
1.341861 4.0623732 1.4092265 15
1.3206145 -13.502273 2.2595224 12.5
1.4231433 -12.268008 2.1937742 13
1.4784255 -15.701293 2.7082195 13
1.1200285 -15.603553 2.6852152 13
1.195021 -15.627107 2.9374104 13
1.1767392 -14.647646 3.0029066 14
1.7705442 -5.0378709 -0.13428535 7
1.6729641 -4.0098867 -0.15928555 6.5
1.924228 -2.9396467 -0.076278664 7
1.7686392 -2.2768862 -0.085508913 6
1.7740982 -1.3555889 -0.062564187 6
1.6274326 -0.93906289 -0.066358224 6
1.6856169 -0.63725007 -0.073237784 5
1.7393575 2.7060919 -0.01645338 6
1.9878097 3.1923554 -0.005545042 6
1.6980772 3.7199013 -0.037363742 5
1.802328 4.099916 0.078856423 6
1.6595997 -4.0994372 0.14985576 8.5
1.9559739 -3.048857 0.23771296 9.5
1.7383738 4.0730729 0.49083924 8.666667
1.8796664 -4.4729667 0.67337257 11
1.7965924 -4.1620255 0.44137621 10.25
1.9739531 -3.3544419 0.46886542 11
1.7924011 4.0235324 0.80130619 11
1.8703808 -2.9887083 0.8888706 14.333333
1.7514471 4.0154152 1.210384 13.5
1.6156477 -13.56176 1.0102644 10
1.7905873 4.0107422 1.4317576 15
1.7047852 -13.603453 2.1360853 12
1.6998141 -12.286891 2.2078707 13
1.851227 -11.185516 2.4523346 14
2.0876975 -1.871671 -0.04885523 6.5
2.0202785 -1.3993541 -0.038586695 6
2.3516953 3.9535704 0.099038355 6
2.312973 -6.164535 0.16730943 8
2.061192 -3.3166041 0.12725645 8
2.3724616 -3.057672 0.12017248 8.5
2.3650947 0.59117043 0.37446645 10.285714
2.383723 0.84087729 0.47029176 11
2.3211114 3.968961 0.60484719 9
2.2477207 3.9977288 0.43839657 8.25
2.0863485 -4.1287265 0.57531667 11
2.3566957 0.60764307 0.64478606 13.428572
2.3783891 0.81479692 0.59085488 12.5
2.3080487 3.9636891 0.86943364 11
2.1207209 3.9887562 0.81413716 10.833333
2.1817274 -3.0767124 1.0111054 14.75
2.2974417 3.9563169 1.1755252 13
2.1008987 3.977174 1.19529 13.25
2.1499727 3.9712126 1.4459547 15
2.0983307 -13.55906 1.9748513 12
2.1970792 -9.5399494 2.0207806 14
2.1890039 -13.648881 2.1525016 12
1.9842657 -12.333002 2.2281404 13
2.0971577 -11.224881 2.4864464 14
2.1800239 -9.4548874 2.1893351 14
2.0120871 -13.559977 2.4536278 13
2.5281804 -3.0633194 -0.045500252 7
2.4503708 -7.724812 0.043670781 8
2.5661101 -7.4394274 0.1650949 8
2.6072145 -6.2198534 0.16574147 8
2.7923408 -5.9436898 0.22189774 8.5
2.705426 -4.4771295 0.10076348 8
2.638005 -4.3100781 0.31581968 9
2.4504342 -3.0834668 0.080484957 8
2.755707 0.18266056 0.36448175 9.666667
2.5449567 0.5655337 0.37488079 10
2.4122612 0.98893112 0.35736781 9.4444447
2.4454691 1.3193816 0.39948398 9.5
2.4910302 1.7791835 0.44610032 9.5
2.5287497 2.166333 0.48682529 9.5
2.5751643 2.6140826 0.50268257 9.25
2.6191978 3.0004478 0.50807005 9
2.6739459 3.4433362 0.54494774 9
2.622859 3.8057983 0.58442491 9
2.5368495 -7.4313874 0.31111357 9
2.577132 -4.4635472 0.43040636 10
2.7321403 -4.3914537 0.64781582 11
2.6937714 -3.1472886 0.75778151 12
2.4812739 0.51853764 0.7314021 13.666667
2.4012995 0.99208075 0.72451711 13.5
2.4372506 1.3777014 0.71545881 12.777778
2.4739091 1.7540442 0.74680567 12.5
2.5147612 2.1350904 0.78213769 12.25
2.561758 2.6013463 0.78917623 11.666667
2.6047988 2.9605126 0.75560379 11
2.6447878 3.3591342 0.80929017 11
2.626014 3.8012316 0.84842986 10.714286
2.4612663 0.91563219 0.93025994 15
2.4457607 1.3543906 0.98338002 15
2.4902649 1.7779914 1.0157949 14.5
2.5273576 2.1876035 1.1036251 14.6
2.5548279 2.5700285 1.1348425 14.5
2.5930202 2.9476235 1.1484457 14
2.6356874 3.3373315 1.2429644 14
2.57253 3.8710256 1.1943847 12.857142
2.5997696 3.8100345 1.4701478 14.5
2.5226045 -13.701299 2.169507 12
2.4582138 -9.7303162 2.2719667 14
2.9544861 -4.3859587 -0.10991102 7
2.8438268 -2.1024938 0.015897954 7
3.0298259 -4.4002886 -0.034494981 7
2.8476791 -4.2579169 0.25450051 8.666667
2.9573896 -0.1550079 0.23688722 8
2.9179106 0.20839736 0.3875688 9.8888893
2.9216375 0.43109199 0.35801381 9.4285717
2.8623817 -4.2911949 0.59491503 10.5
2.9330385 -3.2091248 0.7962622 12
2.8749413 0.26210457 0.71363217 13
2.8833861 0.42401966 0.74953073 13
2.8158591 -8.0964689 0.89928204 11
2.8865936 -4.5050445 0.80482346 12
2.9076102 -4.3319287 0.80514324 12
3.1085453 0.41033742 0.97473276 14.5
3.0238686 -3.1515815 1.276311 15
2.8542092 -13.734482 2.1863928 12
3.0056276 -10.927571 2.5460603 14
2.9231806 -15.865914 2.7963235 13
3.4446306 -3.2588291 0.21033166 8
3.518857 -3.31464 0.61661381 11
3.5005281 -3.206717 0.45855394 10
3.1683125 0.42094427 1.0519457 15
3.5481937 -3.2458737 1.2764477 14
3.3956788 -3.2432692 1.3716234 15
3.3198807 -14.10278 2.3980339 12
3.2408805 -15.640483 2.7830317 13
3.3299129 -14.459902 2.6193426 13
3.4619668 -13.638792 2.5106959 13
3.3819094 -10.943588 2.6006367 14
3.6804416 -2.8161056 0.068721987 7
3.8343587 -3.228297 0.46922165 10
3.9521799 -3.2776728 1.2283022 14
3.7506695 -3.2765586 1.4617368 15
3.6707964 -3.2164812 1.3826352 14.666667
3.8147066 -12.476238 2.0812802 12
3.8985693 -11.776741 2.0046585 12
3.7211406 -13.70466 2.2596493 12
3.7526922 -13.378929 2.1898913 12
3.8043873 -12.618258 2.3960471 13
3.8012021 -11.661701 2.2640984 13
3.704854 -13.35914 2.4909906 13
3.5366573 -12.787493 2.6618917 13
3.7395496 -10.89033 2.6450572 14
3.8366446 -10.45613 2.5894494 14
4.0413661 -8.1361227 -0.15143323 7
4.3267074 -8.7039728 0.20498952 8
4.2958136 -8.7194138 0.36856583 9
4.3154068 -5.7871265 0.35919058 9
4.0552163 -4.1843233 0.51759094 10
4.3012052 -5.8401766 1.0329568 11
4.2912545 -2.569217 0.9693352 12.5
4.0254469 -3.228498 1.5008527 15
4.233501 -2.5952494 1.2816904 14
4.2139349 -9.0765772 1.727814 12
4.2595277 -8.6376028 1.6852742 12
4.1073027 -6.551723 1.6657691 13
4.3041954 -5.8307338 1.8132547 14
3.9672241 -11.123709 1.9334329 12
4.0284367 -10.617132 2.0133522 12.5
4.0816097 -10.168415 2.0941167 13
4.1931047 -9.9097071 1.9993459 12.5
4.2343054 -8.8019638 1.9413503 13
4.0062904 -12.535275 2.2075958 12
3.9622915 -12.437438 2.4298246 13
4.0151114 -11.362854 2.2989924 13
3.9853847 -10.720979 2.4037602 14
4.1855311 -10.308442 2.2370985 13
3.9790289 -10.040606 2.3037093 14
4.6982841 -5.4146438 -0.11016387 7
4.7225666 -5.1314845 -0.1308511 6.5
4.7890091 -4.4615078 -0.008133376 7
4.8017473 -3.2149932 -0.025584484 7
4.4643807 -5.909183 0.23613214 8
4.696198 -5.4402885 0.19623506 8
4.7446904 -5.0594945 0.16568524 8
4.6638093 -4.7462177 0.24484952 8.333333
4.5762038 -3.3790219 0.16174932 7.8333335
4.4483385 -5.9134254 0.63469666 10
4.6637454 -5.3535585 0.56592715 9.5
4.7060375 -5.0917554 0.56611174 9.5
4.7588148 -3.2572079 0.77946442 11
4.7655478 -3.1478322 0.6944285 10.333333
4.3991818 -6.049542 0.75787574 10
4.384881 -5.8212109 0.84853452 11
4.651794 -5.3901887 0.88461024 11
4.6766591 -5.183322 0.88930094 11
4.7609425 -4.4213986 0.9125216 11
4.6399484 -3.0681555 1.110284 12.5
4.4057097 -2.5946169 0.94469088 12
4.381392 -5.8331733 1.4470476 13
4.6171021 -5.4544244 1.4602069 13
4.6605854 -5.1274853 1.4482793 13
4.734086 -4.5225186 1.5206414 13.5
4.5055656 -5.7963977 1.7230444 14
4.63974 -5.4005866 1.7563456 14.25
4.6470027 -5.0922437 1.6314938 14
4.3680878 -8.6721344 2.0615249 13
4.4556785 -8.2740278 2.0197124 13.5
4.3667746 -5.8373456 2.0210552 15
4.9208007 -2.9444497 -0.038244739 6.5
4.9851594 -2.5968986 0.014995936 6.5999999
5.0446506 -2.1274221 0.035045907 6.6666665
5.0817189 -1.7472864 0.021915521 6.5
5.115901 -1.3610147 0.041955318 6.3333335
5.1440392 -1.0138881 0.081980385 7
5.1819048 -0.61687231 0.12909634 7
5.135468 -0.24357216 0.064688258 6
5.1758876 0.20454846 0.12439552 7
4.8845301 -2.9544308 0.27049223 8
4.9747548 -2.5693655 0.31504154 8.2857141
5.0110469 -2.1977842 0.32168061 8.1428576
5.0526466 -1.7924776 0.28522155 8
5.0893607 -1.4112655 0.32345855 8
5.133884 -1.008729 0.34285235 8.1999998
5.1774697 -0.60562646 0.32995054 8
5.1161838 -0.20556645 0.41124731 8.1999998
5.1270332 0.044111356 0.40071014 8
4.8648949 -3.0262756 0.67056257 10.166667
4.9417334 -2.6270523 0.73309278 10.333333
4.9964938 -2.1880693 0.73199737 10.4
5.0285397 -1.8100504 0.7082563 10
5.0704412 -1.4399627 0.75323927 10.4
5.1134233 -1.0305965 0.76008785 10.5
5.1465898 -0.65638816 0.7290467 10.333333
5.1222105 -0.21208467 0.72937739 10.333333
5.1052823 0.054201737 0.87316364 11
4.8524914 -3.0229135 1.0566164 12
4.9851718 -2.5927389 1.0834899 12.285714
4.9962673 -2.2817688 1.0836489 12.166667
5.0202503 -1.8392987 1.083559 12.2
5.0619407 -1.417689 1.1361709 12.5
5.102067 -0.99978042 1.1329279 12.4
5.122767 -0.72860014 1.1483256 12.5
5.0952544 -0.14417189 1.191334 12.5
5.1178045 0.11245774 1.231321 12.8
4.8318424 -2.9893322 1.4978894 14
4.9223704 -2.6420588 1.5204327 14.5
4.966248 -2.2513573 1.5394419 14.5
5.0205765 -1.8744313 1.5466361 14.5
5.0562911 -1.4779149 1.6035625 14.666667
5.0906401 -1.068747 1.6727778 15
5.1094418 -0.79317647 1.7350168 15
5.1072974 -0.23621155 1.6706195 15
5.1371651 0.1339633 1.5573291 14.5
4.7583127 -5.063838 1.83383 14.5
4.8492427 -3.0322733 1.7376599 15
4.9045787 -2.7418075 1.7508694 15
5.2113132 -0.58314049 0.013878523 6
5.2674932 0.33157092 0.13730283 7
5.2785749 0.45601419 0.12159957 6.5
5.1863728 -0.42642245 0.49961117 9
5.2053623 -0.28979653 0.44482023 8.5
5.2771173 0.52941489 0.37126389 7.6666665
5.1767578 -0.46841767 0.80893666 10.5
5.1888657 -0.27126428 0.78338987 10.666667
5.2093735 0.2493228 0.91938168 11
5.1712584 -0.49378374 1.198715 12.5
5.1845236 -0.31862545 1.2198327 12.5
5.2119317 0.20438236 1.2937492 13
5.3332529 0.48245576 1.3712003 13
5.1594787 -1.3123524 1.4272668 14
5.1821713 -1.0665951 1.4437466 14
5.2152781 -0.59551036 1.5144395 14.333333
5.2111287 -0.26297373 1.5761421 14.5
5.2193995 0.17056012 1.5697696 14.5
5.2754617 0.45266554 1.5963889 14.5
5.2537923 0.52338707 1.8283706 15
