# .PCD v0.7 - Point Cloud Data file format
VERSION 0.7
FIELDS x y z intensity
SIZE 4 4 4 4
TYPE F F F F
COUNT 1 1 1 1
WIDTH 477
HEIGHT 1
VIEWPOINT 0 0 0 1 0 0 0
POINTS 477
DATA ascii
-15.284688 -4.3294897 3.0085044 13
-14.778962 -3.157021 2.9417493 13
-14.549964 -2.7787347 2.9112661 13
-14.133288 -4.8591895 2.3867023 12
-14.220761 -3.837358 2.4303546 12
-14.247982 -3.4449224 2.511966 12
-14.28108 -3.1690979 2.4666059 12
-14.268383 -4.6658602 2.8032169 12.5
-14.285675 -3.3812289 2.8458388 13
-14.274654 -2.9216626 2.935791 13
-13.053192 -4.938498 2.7518101 13
-11.328666 -4.8709993 2.2991955 12
-11.287222 -4.8344865 2.3733528 13
-11.559851 -2.5817389 3.1351476 15
-11.484219 -2.2668707 3.2824833 15
-11.136842 -4.8618655 2.9954147 14
-10.488451 -4.7610679 2.2084074 13
-10.438128 -4.726892 3.142581 15
-10.192895 -4.7885404 1.7957455 12
-10.290868 -4.7881823 2.7965164 14
-8.9272766 -4.6862984 2.4810297 14
-8.8373766 0.98126668 2.5301044 15
-9.2101307 1.8659486 2.5243316 15
-9.1885786 -2.9422283 2.785423 15
-9.1019945 -2.4561789 2.7671919 15
-9.1787968 -2.2500467 2.7927279 15
-8.6167583 1.144856 2.5088356 15
-8.1670828 -2.6527689 0.70979786 10
-8.1800575 -4.5985703 1.7302622 12
-8.3536291 -4.6422191 2.3515675 14
-8.3820858 1.2989221 2.4834712 15
-7.264411 -2.1447453 0.249017 8
-7.3040056 -1.951365 1.0010046 11
-7.4647412 1.3380209 2.0732756 15
-7.1227303 -3.9582117 0.16874754 8
-7.1157703 -3.9412358 0.66946429 10
-6.9781308 -2.5157678 0.64992124 10
-7.1077485 -4.1508512 1.1115258 11
-6.9919467 -1.7187058 0.86974561 11
-7.0480418 -4.1582408 1.3325745 12
-7.066328 -4.1500654 2.0466442 14
-6.7362294 -2.4072559 0.27508172 8
-6.5670848 -3.7770517 0.5539009 9.5
-6.4500194 -2.4695952 0.44138369 9
-6.5115876 -2.3659363 0.48179546 9
-6.7243619 -4.1324029 0.95472926 10.5
-6.6647868 -4.1351748 1.279083 12
-6.6438584 -4.1200833 1.953916 14
-6.0460176 -4.491241 0.25024062 8.5
-6.0940804 -4.3878217 0.12247657 8
-6.2269926 -3.8508906 0.15954609 8
-6.1748137 -4.4488854 0.52864021 9
-6.2400732 -4.1745405 0.51112646 9
-6.2224169 -3.8742123 0.41059232 9
-6.2170119 -4.4558191 0.90077657 10.5
-6.1984024 -4.1992307 1.0825413 11
-6.2001042 -4.445231 1.3297597 12.5
-6.2351899 -4.1531258 1.3578795 12
-6.1772995 -4.4719243 1.8796731 14
-6.1914229 1.3992008 1.8248833 15
-6.1928716 -4.2538195 2.11199 15
-5.8081512 -4.4770575 0.1822703 8
-5.8229365 -2.2285855 0.051495876 7.5
-5.9935956 -1.283252 0.25011837 8
-5.6154404 3.8478911 0.20462818 8
-5.6271195 4.1284781 0.17054136 8
-5.7155733 5.5221386 0.35037008 8
-5.7614264 -4.464354 0.5572809 9
-5.7283525 5.5030475 0.49102661 9
-5.7251153 5.6242418 0.55507696 9
-5.8145728 -4.4643464 1.0007087 11
-5.7840586 -2.2158346 0.98754472 12
-5.6336365 -2.0093858 0.97611004 12
-5.620697 4.2719054 0.86234254 11
-5.6391001 4.5891037 1.0144718 11.25
-5.6632056 4.9537306 1.0076152 11
-5.7027111 5.3992138 1.0250683 11
-5.6748738 5.6839061 1.1538774 11
-5.8228531 -4.4621 1.2980932 12.5
-5.6480646 4.7485938 1.1757641 12
-5.6659756 4.9891443 1.201767 12
-5.6790752 5.3581514 1.2755839 11.75
-5.6694632 5.6732907 1.2583907 12
-5.848958 -4.4493337 1.811715 14
-5.6327825 5.093411 1.7852224 13.5
-5.6562734 5.3887448 1.7676293 13.333333
-5.6340976 5.0643682 2.020937 15
-5.6599383 5.4148607 2.0330091 14.666667
-5.6703544 5.5941515 2.1201344 15
-5.3579884 -4.4327245 0.21734942 8.5
-5.5090275 -3.2894125 0.095884718 7.6666665
-5.5545273 -3.1796715 0.06577079 7.5
-5.2827888 -2.4677343 0.23860499 8
-5.4795966 -2.298738 0.28415769 9
-5.5513096 3.0551615 0.18153286 8
-5.4923515 3.2914271 0.23187366 8.5
-5.5900393 3.8128233 0.26767883 8.666667
-5.3514047 4.2313161 0.2770378 8.333333
-5.325573 4.6332502 0.23334089 8
-5.5152788 -3.2309561 0.38665551 9
-5.2100792 -2.3892419 0.74915195 11
-5.4727249 2.2726071 0.55885822 10
-5.4859562 2.5696468 0.58782333 10
-5.5286875 2.9622467 0.67104679 10
-5.5586109 3.3446622 0.66614348 10
-5.5319076 3.7391601 0.52925575 9.5
-5.4444838 4.2311954 0.5344187 9.5
-5.2497053 4.554028 0.54903299 9
-5.2487159 4.9259133 0.52254516 9
-5.5925474 5.749835 0.56195766 9
-5.3418183 -4.409853 1.0149833 11.5
-5.3220868 -2.3825934 1.0817465 12
-5.3856816 -1.6416574 0.95855671 12
-5.4211416 -1.5162003 0.96951908 12
-5.4446735 2.2331333 1.0113481 12.5
-5.4912639 2.5484552 0.91596407 11.666667
-5.5146766 2.9601409 0.90800959 11.5
-5.5505443 3.3791454 0.9511956 11.5
-5.5356755 3.7533937 0.90874463 11.166667
-5.6130176 4.2031717 1.064257 11.666667
-5.3474474 1.4461703 1.4721452 15
-5.3428121 1.8106128 1.3915904 14.4
-5.433136 2.1598136 1.3975722 14
-5.4685998 2.5488896 1.419299 13.666667
-5.4937096 2.9732332 1.339669 13.5
-5.520391 3.3975539 1.4189739 13.5
-5.5418816 3.7901385 1.4828814 13.5
-5.5799632 4.212049 1.3858439 12.666667
-5.6005707 4.5708547 1.5221806 13
-5.6129746 4.8175921 1.4598159 12.5
-5.5676665 5.7950277 1.3405175 12
-5.4683862 1.3651384 1.6716847 15
-5.427043 2.3083019 1.620406 15
-5.4573574 2.6455238 1.6629131 15
-5.4800844 2.9763649 1.7223177 15
-5.526988 3.4681361 1.6983258 14.666667
-5.5501614 3.856163 1.7464361 14.5
-5.5647836 4.163415 1.7936285 14.5
-5.6001029 4.5432363 1.835641 14.25
-5.6272621 4.9991083 1.9153638 14.5
-5.5750985 4.6752253 2.0587654 15
-5.6120296 4.8143201 1.9736611 15
-5.3515768 5.7131886 2.0539787 14.5
-5.1137657 -2.704684 0.10861734 8
-5.0022173 -1.3487566 0.057340402 8
-4.8878326 1.9774925 0.084977843 8
-4.8346543 2.0707669 0.090020508 8
-5.033937 2.5529921 0.23883355 8.75
-5.0199041 3.1588819 0.14467792 8
-5.0606413 3.2906916 0.19868745 8
-5.205512 4.2812538 0.15764789 8
-5.1715236 5.1381631 0.21122283 8
-5.1190605 -2.8276107 0.55807811 10
-5.0196209 -2.5505562 0.54245961 9.8571424
-5.1014004 -2.3541193 0.49160492 9.5
-4.8655372 -1.750461 0.74229115 11
-4.8658981 2.6780918 0.39757997 9
-5.1743364 4.2545934 0.64515823 10
-5.1194429 -4.4028869 1.0331855 11.5
-5.0135102 -2.6104054 0.98059022 12.25
-5.1309748 -2.3879168 0.89883721 12
-5.103622 -1.630571 0.77612752 11
-5.0297217 5.7581463 1.9300164 14
-5.0541835 5.7453523 2.0141211 14.666667
-4.5026741 -3.4386292 -0.020651463 7
-4.7974629 2.165345 0.09210974 8
-4.7758036 2.4903474 0.14568317 8
-4.5163832 -4.3460813 0.66014642 10
-4.5424504 5.6698432 0.42416334 9
-4.4156713 -4.3586526 0.96692258 11.5
-4.6050854 5.7051225 1.1264925 11.666667
-4.4684663 -4.3492498 1.1787995 13
-4.5228276 5.705986 1.4742457 13
-4.6433043 5.7320843 1.7915198 14
-4.5989561 5.7196641 1.9912239 15
-4.0067234 -1.3519669 0.31534794 9
-4.0025706 -1.0279905 0.11888437 8
-4.1084185 3.5419881 0.20018215 8
-4.0279446 4.2150021 0.10180728 8
-4.0677824 4.4645967 0.11065102 8
-4.0942349 -4.3359442 0.63149697 10
-4.1916542 3.6126006 0.57946366 10
-4.0706987 -4.3187966 1.0356246 12.5
-4.2648587 5.7046204 1.1179228 11.666667
-4.0593305 -4.3203921 1.4777079 14
-4.0569148 -1.5432123 1.2861357 15
-4.3218813 5.7270732 1.4728843 13
-4.2608709 5.7280002 1.8062562 14.5
-3.6754317 -4.1264434 0.24838321 8.5
-3.7941735 -3.8977778 0.19599573 8.333333
-3.945425 -1.6764972 0.26884258 9
-3.9827459 -0.99146783 0.21306835 8.5
-3.8553543 3.4667511 0.31386784 9
-3.848901 3.6475866 0.22650467 8
-3.7785323 -4.1992216 0.61052847 10
-3.8291614 -3.6725528 0.60601854 10.5
-3.9008832 -2.888669 0.4814356 10
-3.9199622 -1.6065176 0.57360929 11
-3.9612706 -1.1595435 0.64109522 11.5
-3.7847297 3.6579812 0.58370507 10
-3.7762008 4.6402535 0.4246622 9
-3.7099953 -4.1304002 0.86175561 11.5
-3.8317375 -3.9556489 0.85176259 11.5
-3.8222935 -3.4481502 0.84526712 12
-3.9614127 -2.4674039 1.0186374 13
-3.9141638 -2.2267909 0.96207595 13.333333
-3.9064939 -1.4600648 0.94884652 13.6
-3.9506729 -1.0678474 0.98164958 14
-3.9687498 -0.67674857 1.1376919 15
-3.8840802 5.7518659 1.1177109 12
-3.7800422 -3.7889011 1.4438938 14.5
-3.8278592 -3.3743031 1.4041731 15
-3.806915 -3.0424471 1.4343967 15
-3.8705299 -1.5793949 1.2414957 15
-3.8450277 5.7778025 1.4726235 13
-3.7134759 -4.163218 1.5883205 15
-3.8622677 5.7628694 1.7930608 14.5
-3.3675666 -4.2340822 0.17520387 8.25
-3.3127007 3.6903021 0.34010348 9
-3.368202 4.1709385 0.17066877 8
-3.4115229 4.5193777 0.26432347 8.666667
-3.3118856 5.7765288 0.33381879 8.666667
-3.3653808 -4.2134414 0.58030677 10
-3.3858614 3.6673324 0.56329197 10.4
-3.4224088 4.5281334 0.47803488 9.5
-3.2661302 5.8049917 0.47182974 9
-3.4108703 -4.2070603 0.91030246 12.166667
-3.3881321 5.7627659 1.1225557 12
-3.344696 -4.2024984 1.4377999 14.5
-3.3995736 5.7704411 1.4020287 13
-3.4937408 -4.1294312 1.6157994 15
-3.4425349 5.7661853 1.7749045 14.5
-3.0066967 -4.2431579 -0.048260015 7
-3.0041482 -4.2289972 0.16664256 8.25
-3.0998952 3.7451146 0.17702001 8
-3.1401241 4.3981543 0.20650415 8
-3.0248559 5.8275466 0.28905037 8
-2.9970946 -4.2271252 0.59079176 10.142858
-3.1309545 -3.6510074 0.56266397 11
-3.0314891 3.7174335 0.5093869 10.2
-2.9991884 5.8191557 0.55889457 9.5
-3.0420384 -4.2240586 0.89579868 12.2
-3.1154332 -3.603548 0.95329255 13
-3.0549634 5.8226962 1.1477896 12
-2.995343 -4.2157621 1.3868976 14.5
-3.0292182 -3.5461676 1.2226241 15
-3.1007836 5.829433 1.3514078 13
-3.0230691 5.8377814 1.7724009 14.5
-2.7010677 -4.2212672 -0.03836244 7
-2.628582 -4.2028465 0.2228512 8.3999996
-2.5028822 3.7824528 0.24128458 9
-2.5365503 5.8890882 0.33297366 9
-2.6162324 -4.1998801 0.5762437 10.2
-2.6041539 3.7410235 0.51787812 10.5
-2.6084266 5.8749967 0.57085961 9.5
-2.6166956 -4.1989994 0.89375407 12.6
-2.6468952 5.8648868 1.157611 12
-2.5819154 -4.1826272 1.3412658 14.6
-2.6281571 5.8747201 1.3640634 13.333333
-2.6912439 5.8593078 1.8055691 14.666667
-2.2401373 -4.1735954 0.27598435 8.666667
-2.3419929 3.7875614 0.34151879 9
-2.1886134 5.9303617 0.36509684 9
-2.1699033 -4.1652179 0.63867122 10.8
-2.2534058 3.8093135 0.4975076 10.5
-2.1652405 5.918519 0.60236019 9.666667
-2.2187788 -4.1637926 0.86276639 12.666667
-2.2827852 5.9123373 1.0689665 11.666667
-2.2038858 -4.15975 1.2767594 14.5
-2.2136858 5.9266534 1.4059492 13.5
-2.24786 5.912313 1.7570035 14.5
-1.9059318 5.9100003 0.3883858 9
-1.9375991 -4.1457319 0.76830977 12
-1.8168731 3.8185697 0.50622869 10.5
-1.7714543 5.9422598 0.63412744 10
-1.8469174 5.9428663 1.0184913 11.5
-1.8089597 -4.1236563 1.2460361 14.666667
-1.8224847 5.947629 1.3626999 13.5
-1.7854494 5.9400764 1.7339447 14.6
-1.4940048 3.8576915 0.5194419 11
-1.2556263 5.3067846 0.65744156 11
-1.5107938 5.8621655 0.5931142 9.8000002
-1.5361061 5.9561968 1.0233519 11.5
-1.5380973 5.9630547 1.3535643 13.5
-1.546543 5.9559617 1.8092256 15
-0.85269922 -1.6963229 0.16938253 9.5
-0.91224569 -1.5959516 0.20789647 10.5
-1.0119013 5.3097186 0.5818181 10
-1.032321 5.3174815 1.054114 12.4
-1.0463123 5.3336139 1.4087855 14.5
-1.0198461 5.3439269 1.6395987 15
-0.67248845 -0.41851929 -0.19629708 0
-0.56314266 -0.31602263 -0.18151812 0
-0.64004624 0.36718181 -0.2031485 0
-0.55321634 0.60218132 -0.20701678 0.25
-0.45077601 1.0135934 -0.20212105 2
-0.54227209 1.4270405 -0.20364109 3.25
-0.53195292 1.7511435 -0.21037449 4
-0.70029163 -1.6355143 0.20932664 10.5
-0.68294638 -1.5669134 0.26207238 11.5
-0.41736132 -1.0988252 0.30258068 14.5
-0.76161641 -1.6046778 0.44289002 14
-0.64156884 -1.5462118 0.43250749 14.5
-0.6496917 5.3752661 0.63461614 10.333333
-0.63749027 5.3589654 1.0405908 12.285714
-0.681952 5.3701491 1.4212878 14.5
-0.51005661 5.9309425 1.2418422 13
-0.66319406 5.3834472 1.6365542 15
-0.45840737 5.6662202 1.6079701 15
-0.18556944 0.71687233 -0.21037611 0
-0.22999714 0.97251409 -0.2058506 1.125
-0.32904232 1.3597484 -0.20089306 3
-0.20952241 -1.0826509 0.26360542 13.714286
-0.36582184 5.3898854 0.64980733 10.333333
-0.1560955 5.9071541 0.71738487 10.5
-0.37947577 5.356945 1.0282723 12.5
-0.18710619 5.8728704 1.0724214 12
-0.040912278 6.0004888 1.0151553 12
-0.18847036 5.5607138 1.3398368 14
-0.22730459 5.7546215 1.3534561 13.714286
-0.21634823 5.5414224 1.6647241 15
-0.21977173 5.6339064 1.686983 15
0.025262553 0.68769562 -0.20711942 0
0.20377877 -1.0546563 0.27104148 14
0.33284411 5.5082774 0.56227505 9.5
0.16834326 5.974802 0.67928761 10.333333
0.15341941 6.0112638 0.759 10.666667
-0.026001291 5.9930739 1.201702 13
0.14626192 6.0112967 1.0927223 12
0.20422453 5.7207375 1.3920021 13.875
0.11694226 6.0042033 1.2058624 13
0.15010892 5.613873 1.6770533 15
0.71610498 -0.52732748 -0.20663287 0.5
0.67866021 -0.26444611 -0.19603975 0.14285715
0.76318628 0.16658603 -0.19681108 0
0.64193535 -1.0177695 0.28123105 13.5
0.64399588 1.2645563 0.34282649 14
0.53010923 5.52461 0.5434953 9.6000004
0.60311836 5.9354854 0.71145606 10.5
0.67747456 6.0439205 0.7625227 11
0.57850873 6.0408382 1.009498 11.8
0.55189192 5.661387 1.3965373 13.833333
0.54677421 6.0370984 1.2182896 13
0.55611336 5.6170588 1.676181 15
1.0697248 -1.0639906 -0.11812121 5
1.003998 -0.6079734 -0.21580829 1.8571428
0.959153 -0.19640212 -0.20259345 1.1111112
0.96196812 0.19191192 -0.20600091 0.89999998
1.1332176 0.4373619 -0.22369084 2
1.000504 -1.2158912 0.15854949 10.2
0.98715526 -0.99491072 0.28234637 12.647058
0.83121467 1.3936256 0.32273206 12.5
1.131547 -0.97484154 0.42621821 15
0.93589383 5.5344462 0.50056529 9.5
0.87299347 5.76231 0.65699136 10
1.0505798 6.0597496 0.73798215 10.666667
0.9745723 6.0768304 0.98138243 11.666667
0.95229757 5.6878757 1.4167037 13.8
0.97923172 6.0361252 1.2276381 13
0.98770964 5.5395188 1.6606406 15
1.3883172 -1.0079193 -0.15092203 4.5
1.3317603 -0.59437335 -0.21480605 2.8
1.3879859 -0.25615731 -0.21581344 2.5999999
1.4235951 0.22714196 -0.22288266 2.5
1.4083148 0.54186112 -0.22615141 2.75
1.3764268 -1.0214392 0.20376958 10.388889
1.4236633 -0.94921958 0.45722589 14.5
1.5059624 4.1825447 0.55386955 10.75
1.346192 5.5006943 0.48391211 9.333333
1.2974769 6.0853524 0.61688173 10
1.5037481 5.768497 1.2001783 13
1.3849528 6.1073198 1.0009223 11.5
1.3507752 5.7447648 1.4390945 13.857142
1.3720682 5.52982 1.6490214 15
1.7754096 -0.93689615 -0.15533717 5
1.7698281 -0.62065697 -0.22405158 3.5
1.8579159 -0.27571973 -0.22958779 3
1.6722772 0.22632903 -0.22547233 3
1.8206885 0.69306916 -0.23631553 3.3333333
1.922546 0.90571803 -0.24378513 4
1.7760025 -0.94875276 0.24603124 10.5
1.8189942 -0.9179917 0.52149504 14.142858
1.7051005 4.109333 0.53503686 10.333333
1.6515726 5.5442977 0.59389508 10
1.8325886 5.6259165 0.63274103 10
1.903077 5.5477543 1.039358 12
1.7960989 5.7183781 1.043134 12
1.7209828 6.1258893 1.0479002 11.666667
1.92265 5.5450964 1.419744 13.5
1.8431984 5.7175355 1.4322877 13.5
1.7661092 5.545547 1.6773016 15
1.8445771 5.6764035 1.6140052 15
2.1646044 -1.0888634 -0.14812957 5.3333335
2.0678408 -0.52656782 -0.24103145 4
2.0830669 -0.21718089 -0.24406061 4
2.0791836 0.22467847 -0.24984044 3.6666667
2.1401229 0.64338899 -0.25822917 4
2.2357979 1.0883718 -0.26671603 4
2.1862862 -0.91428334 0.20302807 9.333333
2.206495 -0.88842684 0.55799377 13.555555
2.3760045 3.5398076 0.65819621 11
2.3302453 3.8298976 0.54868132 10.333333
2.2179601 4.1723313 0.63219982 10.5
2.1850195 4.589026 0.6470437 10.5
2.1712592 4.8661094 0.75417501 11
2.2233813 4.1779189 0.94991815 12.5
2.1907117 4.6018252 1.0272509 12.5
2.1737406 5.0370355 0.96073413 12
2.1423786 5.4436469 1.0166395 12
2.2328343 4.1481872 1.2738336 14.333333
2.2022095 4.5791283 1.4000452 14.6
2.1784902 5.0314188 1.4108559 14
2.1297138 5.4476981 1.4612365 13.75
2.1197577 5.4984055 1.6786053 15
2.2096877 6.181953 2.0011067 15
2.6263037 -1.0179367 -0.16431384 5.3333335
2.6380098 -0.70419556 -0.2517218 4
2.6005187 0.96359283 -0.27174574 4
2.7582037 1.3980677 -0.28188771 4
2.5837173 -0.86650062 0.23080871 9.5
2.7838931 2.3294904 0.22634445 8.5
2.7252209 2.6350951 0.30544552 9
2.5938189 2.9486792 0.330975 9
2.5296526 3.3891158 0.35002995 9
2.5869868 -0.87801379 0.63283324 13.4
2.7847683 2.3028839 0.51273197 11
2.6475227 2.7090511 0.6118443 11.5
2.6282024 3.0056796 0.65587735 11.5
2.5668669 3.3553691 0.59612626 10.9
2.4295664 3.7060668 0.64420873 11
2.539814 4.2079949 0.72993928 11
2.6706972 -0.84918869 0.84363663 15
2.6112442 2.767828 1.025631 14.5
2.5600617 2.93701 1.0004495 14.2
2.569505 3.3832464 1.0798104 14.111111
2.4454255 3.7811863 1.0265199 13.25
2.5585442 4.2212634 0.99974108 12.571428
2.5121555 9.7277393 1.0616478 10
2.4690375 3.6585798 1.2610346 15
2.6224437 4.2680454 1.3754048 14.6
2.6174002 5.7805009 1.9270762 15
2.5425694 6.1822042 2.0221353 15
3.0812373 -0.85658848 -0.014275432 7
3.0977383 -0.17543355 -0.036299117 7
3.0989599 0.15412179 -0.037963156 7
2.9974287 0.62324995 -0.14733063 5.5
3.0764875 0.83797419 -0.022853114 7
2.9038064 -0.82765001 0.21872769 9.166667
3.0006218 -0.5703696 0.25398138 9.416667
2.9776101 -0.20585749 0.23340271 9
2.9372942 0.20260072 0.24242772 9.3999996
2.9088371 0.58786833 0.24654196 9.2222223
2.9034352 0.98964775 0.22308277 8.7777777
2.8556581 1.4168423 0.23705667 9.2222223
2.8316596 1.7817802 0.2408343 9
2.8028178 2.1760669 0.2733359 9
2.9169621 -0.82365757 0.60231733 12.8
3.0006425 -0.5558067 0.58672577 12.428572
2.9802554 -0.19623891 0.60533077 12.636364
2.9722331 0.19377744 0.62950528 12.75
2.9357405 0.60483056 0.60207343 12.7
2.9144795 0.98866981 0.61921293 12.444445
2.8879101 1.399927 0.63300711 12.444445
2.838136 1.7822162 0.62377638 12.285714
2.8103566 2.2220535 0.6004743 11.714286
2.7895687 2.5145121 0.77006519 13
2.8564186 -0.83518201 0.88364053 15
3.0151353 -0.60412568 0.89386678 14.666667
2.9999752 -0.16044478 0.83591264 15
2.9595399 0.21440108 0.84725368 15
2.9280274 0.61865252 0.87937683 15
2.9066877 1.0005867 0.88870841 15
2.8774371 1.3940573 0.89728123 14.5
2.8527629 1.8137617 0.95043176 14.6
2.821615 2.201936 0.94950956 14.2
2.8025541 2.5630741 1.0194107 14.5
2.8053076 2.8484733 1.0989327 14.5
