# .PCD v0.7 - Point Cloud Data file format
VERSION 0.7
FIELDS x y z intensity
SIZE 4 4 4 4
TYPE F F F F
COUNT 1 1 1 1
WIDTH 112
HEIGHT 1
VIEWPOINT 0 0 0 1 0 0 0
POINTS 112
DATA ascii
-6.2464342 2.9790373 0.18992147 8
-6.2500348 3.0988781 0.6072886 10
-6.2442083 2.7234602 1.6649244 14
-6.1927199 3.3247688 0.38979053 9
-6.1680799 2.5493038 0.48958981 9
-6.1860514 3.6784506 0.63090825 10
-6.1509728 4.508707 0.73816812 10
-6.1602354 2.5411477 0.89956659 11
-6.1933088 3.4192855 0.975335 11
-6.2067146 4.4013081 0.99212718 11
-6.125104 5.0880098 1.0216265 10
-6.1393743 2.5385308 1.2306391 12
-6.1922894 4.8180075 1.2871848 12
-6.141757 2.6201022 1.4560374 13
-6.1470585 3.8623354 1.4619311 13
-6.1503196 3.6201482 1.6825 14
-6.1074138 4.5072613 1.736187 14
-6.0646863 5.1676564 1.7071112 12
-6.1794057 2.1776254 1.8579117 15
-6.2120118 3.4722784 2.1380622 15
-6.1215796 5.924571 2.3192172 14
-5.2976456 6.2937169 1.8551309 12
-4.8542275 6.2750573 1.0712602 10
-4.9267745 6.3225937 1.9271207 13
-4.487895 6.1636081 1.1958138 11
-4.1212339 6.1618428 1.972207 14
-3.8308868 6.1847458 1.0231215 10
-3.9429052 6.1212435 1.5543364 12
-3.6524868 6.2542729 1.8292665 13
-3.4143362 6.1746788 2.1117711 14
-3.0619271 6.1943398 1.0494835 10
-2.7130098 6.2170634 1.0633165 11
-2.60271 6.2257333 0.3270537 7
-2.6171846 6.1608701 1.890546 14
-1.7031543 5.4829612 0.37341076 8
-1.7082794 5.4905777 0.59391195 9
-1.6605079 5.5037665 1.0034447 11
-1.4662967 -0.96776837 0.30697608 12
-1.5992709 5.4672117 0.75729257 10
-1.5978603 5.5294347 1.5937753 14
-1.3558459 -0.96766043 0.41779068 14
-1.0966908 -0.99720597 0.30293036 13
-1.1981536 5.4547696 0.59665614 9
-0.86567724 5.7815385 1.4791797 14
-0.94978946 5.7928519 1.6417041 15
-0.64636844 5.5070214 0.68053758 10.5
-0.63547564 5.4968729 0.99861377 12
-0.35537785 -1.1294721 -0.1802475 3
-0.035480633 -1.2447627 -0.12564555 4
-0.18253265 -1.1623703 -0.15260589 3
-0.093830422 -0.99684995 -0.18093798 2
-0.0611341 -1.1790587 0.016549755 7.5
-0.10559726 5.5790567 0.6419068 10
0.19387764 0.68867922 -0.21287987 0
0.38372725 0.80360812 -0.21554124 0
0.24057274 1.0381833 -0.2122269 1
0.33843234 -1.301749 -0.1909422 3
0.3249965 -1.130428 -0.13049388 3.5
0.26000655 5.9708185 0.73654252 11
0.22833619 5.4687576 1.6489559 15
0.49732473 0.79464883 -0.22294924 0
0.49634051 0.80305648 -0.21665701 1
0.57895344 -1.2737298 0.14158133 9.5
0.65390396 0.25712907 -0.20119566 0
0.64846766 0.43990892 -0.20185624 0
0.62651473 0.68558425 -0.21948349 0
0.7418741 0.81772584 -0.22759102 1
0.63538355 -1.2762198 -0.030304259 6
0.64745063 -1.1042601 -0.19256383 3
0.77795929 -1.2187111 0.042711053 8
0.63653445 -1.0497563 0.22965622 12
0.94228959 0.69351923 -0.22302555 2
0.91156852 -1.0547782 0.19581875 11
0.90102452 -1.0449209 0.21816055 12
0.93894571 5.3829741 0.20360777 8
0.90890241 3.9956436 0.61299461 11
0.86756551 5.4021754 1.6600764 15
1.1276724 -1.0815377 0.1734575 10
1.1015638 -1.0692186 0.32099587 13
1.034978 3.9892511 0.49437764 10
1.2725478 -1.0685498 0.35381746 13.5
1.3759481 5.9607453 0.96098536 12
1.2919788 5.5941944 1.4918859 14
1.4626898 -1.0940037 0.23642719 11
1.6307583 -1.0998235 0.13097499 9
1.6957598 2.6347215 0.29465044 10
1.7207867 3.4813936 0.39079699 10
1.7134877 2.5450792 0.47873583 11.5
1.6225585 3.8147881 0.55492598 11
1.71978 2.5809348 0.66588086 13
1.7587227 3.450284 0.77483743 13
1.7568744 2.5266292 0.87488073 15
1.7736484 2.8840616 0.85154259 14
1.9192919 0.76459527 0.16463114 9
1.9356247 1.2422063 0.19709556 9
1.816681 -1.0989641 0.29896042 11
1.9314002 2.4535804 0.26675105 9
1.8474972 -1.0694277 0.48215383 13.5
1.8820653 -0.65804869 0.50058132 14
1.9160547 0.78789616 0.51393986 14
1.9348961 1.1323442 0.43967906 13
1.9709252 1.6972358 0.47562763 12
1.9810101 1.9686823 0.42176613 11
1.8224741 -1.0798711 0.61385047 15
1.9741085 1.9143103 0.62169123 13.5
1.827546 4.0132155 1.2869831 15
2.1623082 1.3368379 -0.16127864 5
2.1203744 0.74580592 0.053158253 8
2.1720047 1.3876352 0.0029885001 7
2.0072017 2.4968581 0.37773871 10
2.0181139 2.5041873 0.51762515 11.5
2.0183275 2.5553334 0.76151109 13.5
