# .PCD v0.7 - Point Cloud Data file format
VERSION 0.7
FIELDS x y z intensity
SIZE 4 4 4 4
TYPE F F F F
COUNT 1 1 1 1
WIDTH 150
HEIGHT 1
VIEWPOINT 0 0 0 1 0 0 0
POINTS 150
DATA ascii
-0.2315204 -0.91477019 -0.17011002 147
-0.10761595 -0.98325604 -0.16718113 148
-0.080981858 -0.93286556 -0.17396452 153.66667
0.058931038 -0.94825077 -0.17500009 161
0.19066241 -0.96944517 -0.17675494 161.5
0.2023008 -0.89806879 -0.17035812 168
0.31698933 -0.91243994 -0.17189685 169
-0.53111202 -0.80396438 -0.1724484 134
-0.40698183 -0.89657521 -0.17046006 132
-0.34905347 -0.83037412 -0.17144899 148
-0.18829893 -0.85243291 -0.17675188 158.33333
-0.032315671 -0.83539748 -0.17762744 168.5
0.089216255 -0.85259956 -0.16988608 166.5
0.10216366 -0.82092977 -0.17790243 171.5
0.21512732 -0.83593351 -0.17376029 173.25
0.32203215 -0.84933966 -0.17569754 174.75
0.43618208 -0.84166867 -0.17328759 171.5
-0.66514534 -0.70906812 -0.17690547 132
-0.4493534 -0.73182905 -0.17412284 143.66667
-0.27584761 -0.7486642 -0.17824192 162
-0.1263878 -0.75921983 -0.17770487 168.75
-0.095654584 -0.71532965 -0.1833688 177
0.017036544 -0.73380005 -0.17688282 175.75
0.12952447 -0.73901701 -0.17827168 180
0.23504828 -0.73686832 -0.17744181 181.2
0.32919911 -0.74249125 -0.17759433 180.60001
0.43045762 -0.74948716 -0.17700979 180.5
-0.62537485 -0.68219662 -0.17789538 133
-0.55709916 -0.6362341 -0.18036403 139.33333
-0.35387102 -0.64869094 -0.18007693 161.39999
-0.24630533 -0.65803438 -0.18359743 173.33333
-0.16838537 -0.62645698 -0.18173683 180
-0.054850109 -0.65302622 -0.18209973 181.60001
0.052496612 -0.6637159 -0.18107288 183.75
0.16080838 -0.64062726 -0.17347486 184.25
0.2537989 -0.63037992 -0.17256354 186
0.3341136 -0.6293903 -0.17075588 187.60001
0.41972563 -0.63830507 -0.16883521 188
-0.75390667 -0.57811081 -0.18010621 135
-0.66552621 -0.53298998 -0.18026015 136
-0.60186338 -0.50020421 -0.1786347 138
-0.46982357 -0.5775677 -0.18390206 152
-0.3792156 -0.51594204 -0.1841837 167.75
-0.23954318 -0.54861569 -0.18523818 181.60001
-0.14385073 -0.5630033 -0.18832476 186.75
-0.059981357 -0.52939361 -0.17867577 188
0.040915538 -0.55608791 -0.17547467 187.77777
0.14601052 -0.55199081 -0.17598425 185.72728
0.25108904 -0.52068681 -0.17456274 183.66667
0.3413786 -0.52650887 -0.17394055 183.8
0.41210681 -0.53706062 -0.16863003 184.75
-0.55310738 -0.4745416 -0.17403388 141
-0.48581484 -0.43898696 -0.16685683 149
-0.3193081 -0.4746297 -0.1817141 180
-0.27574366 -0.44625479 -0.18767612 183.39999
-0.13402288 -0.45336002 -0.17946036 186.83333
-0.048466697 -0.44765452 -0.17845234 185.66667
0.04794953 -0.44061434 -0.18755123 182.95
0.14817889 -0.45313171 -0.19201975 180.71428
0.25019911 -0.46098077 -0.1934903 179.58824
0.33786651 -0.43899596 -0.18834099 178.08333
0.4125213 -0.45976859 -0.18941277 179.36363
-0.52634931 -0.3235786 -0.1512302 131
-0.45667326 -0.33721682 -0.15196767 144
-0.34935063 -0.36558074 -0.14439797 163
-0.25909358 -0.33275211 -0.15026535 180.125
-0.15663846 -0.36311874 -0.17807332 186.85715
-0.063033871 -0.3531988 -0.1857134 183.39999
0.054497331 -0.33425027 -0.19088577 178.07143
0.14371419 -0.35696381 -0.19261242 175.89473
0.23525856 -0.37015548 -0.19742544 173
0.33286062 -0.36912975 -0.19648065 172
0.40609139 -0.3576448 -0.19394118 172.69231
-0.63587493 -0.22935377 -0.1728221 134.66667
-0.53601271 -0.20757465 -0.18188952 158.33333
-0.44966236 -0.27427897 -0.16882855 158.60001
-0.36535314 -0.26895565 -0.17972068 180.16667
-0.25506753 -0.2268573 -0.16121863 186.5
-0.16179429 -0.2451998 -0.16898753 183.13043
-0.029807651 -0.22479977 -0.19102752 177.88889
0.026653154 -0.26892743 -0.19495615 175.89999
0.18005179 -0.21934006 -0.2052175 162.5
0.2513192 -0.23257326 -0.20327415 162
0.3390418 -0.23299851 -0.20155258 165.625
0.39929298 -0.23728645 -0.20292905 166.28572
-0.7317484 -0.11114258 -0.18282445 130.5
-0.66552961 -0.10448518 -0.18043391 136
-0.43542993 -0.18528788 -0.18680906 180.25
-0.34983265 -0.16578293 -0.18463407 189.25
-0.25716057 -0.14468327 -0.18245043 186.71428
-0.17424959 -0.15273231 -0.1840883 178.5
-0.077744029 -0.12195019 -0.18958981 177.71428
0.046289686 -0.11185011 -0.11109968 131.55556
0.17310382 -0.14985053 -0.20274326 157.625
0.24869826 -0.17585042 -0.20238051 162.64516
0.35734358 -0.1681878 -0.2052203 157.90741
0.39610627 -0.19090082 -0.20495997 159.5
-0.53751963 -0.092090428 -0.18513268 162
-0.45336449 -0.083650805 -0.18231897 176.5
-0.3336941 -0.071860127 -0.18235478 188.5
-0.2533578 -0.064032786 -0.18405247 185.85715
-0.16997433 -0.056150161 -0.19072965 181.66667
-0.086716332 -0.048242766 -0.19694236 177.5
0.14680973 -0.075331673 -0.20113668 160
-0.74562573 0.026821388 -0.18014078 124
-0.6723417 0.024921151 -0.18164127 140
-0.55425334 0.021913173 -0.1802967 155
-0.4623878 0.019474754 -0.18481351 178
-0.33762535 0.016288072 -0.18291266 189.5
-0.24472439 0.013848095 -0.18531848 185.66667
-0.11910433 0.010419963 -0.19711751 178
-0.090713434 0.0097280024 -0.19522779 178
0.64887178 0.049221613 -0.2103118 152.84
0.74087387 0.043383412 -0.20144983 150.89999
0.84577131 0.034567043 -0.19844128 157.38461
0.9453342 0.044255778 -0.21168704 163.66667
0.58549774 0.18544136 -0.20801215 154.75
0.64402479 0.15331443 -0.20657815 152.32143
0.73588657 0.15167373 -0.19572265 152.3
0.84025836 0.14922917 -0.19878621 163.15384
0.96022105 0.15600407 -0.21604469 168
0.37266374 0.28633547 -0.20272081 137.33333
0.45888034 0.27939382 -0.20108901 139.69231
0.54814154 0.25454801 -0.20062451 146
0.64528346 0.2522566 -0.20085901 150.25926
0.74291992 0.25148675 -0.19353555 159
0.84070623 0.24966133 -0.20194626 165.14285
0.92317158 0.22117138 -0.2153178 170
0.37305248 0.34809184 -0.20055623 154.4375
0.44510743 0.33433625 -0.19911967 148.27777
0.55992681 0.3500739 -0.20050932 157.25
0.6421628 0.35223183 -0.19458479 162.78572
0.73428524 0.34427482 -0.19892514 166.625
0.81656384 0.32548296 -0.20380232 166
0.93051869 0.3097316 -0.21469466 168
0.36961696 0.49024323 -0.19819935 173.25
0.44776532 0.47890553 -0.19858907 172.5
0.53606856 0.44019082 -0.19760187 171.25
0.64580756 0.46030858 -0.20378426 170.5
0.71335858 0.41966894 -0.20037213 171
0.80109549 0.40557232 -0.21171397 165
0.33667877 0.55415726 -0.19746248 168.83333
0.45870227 0.54860014 -0.20247737 173.5
0.53635037 0.55173641 -0.20285875 172.5
0.60487825 0.51789057 -0.20376639 167
0.34594297 0.61381239 -0.19878526 165
-0.22815466 -0.20338117 -0.049658123 142
-0.28359196 -0.13920952 -0.048615426 144.5
-0.11973223 -0.15920809 -0.0089023132 144
-0.060835954 -0.13505067 0.014562196 143
