# .PCD v0.7 - Point Cloud Data file format
VERSION 0.7
FIELDS x y z intensity
SIZE 4 4 4 4
TYPE F F F F
COUNT 1 1 1 1
WIDTH 81
HEIGHT 1
VIEWPOINT 0 0 0 1 0 0 0
POINTS 81
DATA ascii
0.68425769 -0.70837718 -0.18028548 183
0.65902948 -0.64808381 -0.18186545 189.2
0.74386817 -0.61776376 -0.17761022 186.25
0.59926134 -0.50801003 -0.18211262 188
0.63296485 -0.537862 -0.17353263 190.28572
0.76615739 -0.55076087 -0.18271326 191
0.81397885 -0.56068176 -0.17191398 187
0.56319362 -0.42768583 -0.1768744 183.39999
0.65050799 -0.44752431 -0.17223626 187
0.74253589 -0.44053617 -0.16867064 190.25
0.86538959 -0.46360505 -0.1748244 191.2
0.90912634 -0.41492742 -0.17392008 192
0.53837973 -0.33303699 -0.18689409 177.5
0.64696336 -0.3528831 -0.17648822 182.65218
0.75327462 -0.35104349 -0.16584401 186.39999
0.8340227 -0.3441909 -0.16272257 190.16667
0.91651839 -0.32483059 -0.16967167 192
-0.2419762 -0.22132948 -0.19669272 148.60001
-0.18803349 -0.20223299 -0.19467533 149
0.5598374 -0.25944516 -0.18738638 175.15384
0.6480785 -0.24922299 -0.18452685 178.28572
0.73183811 -0.24301025 -0.17140768 182.28572
0.84685802 -0.246488 -0.16262791 188.16667
0.94364321 -0.25263897 -0.16897619 192
-0.24730687 -0.1433222 -0.19764967 151.39999
-0.16267481 -0.16215323 -0.19538863 153.44444
0.067089669 -0.14978722 -0.1297189 135.25
0.57711738 -0.19251549 -0.19570298 173
0.64256966 -0.15357237 -0.18383127 175.23334
0.75261348 -0.14759 -0.17623006 180.85185
0.84670997 -0.15361242 -0.15962417 186.625
0.94249052 -0.14690883 -0.16029891 190.2
-0.30377507 -0.073015541 -0.20054792 153
-0.2704922 -0.069511697 -0.19805136 149.33333
-0.18341149 -0.060425907 -0.19732568 154.33333
0.66717893 -0.055448797 -0.18351752 174.96428
0.75887281 -0.046501353 -0.17781208 179.64
0.85156554 -0.061117962 -0.15946518 185.66667
0.93146509 -0.048015755 -0.15625702 189.8
-0.24797739 0.085697196 -0.19969076 153.33333
-0.17956479 0.04203698 -0.19951631 152.75
0.6640029 0.050756782 -0.18435796 174.5
0.75726032 0.044552322 -0.17920992 179.88461
0.84661007 0.051896565 -0.16175447 185.84616
0.92774642 0.063427985 -0.16081704 189.75
-0.35876116 0.18768393 -0.15139346 141
-0.25703642 0.16248669 -0.16335553 144
-0.16517772 0.1398416 -0.17528772 136
0.087791413 0.14749882 -0.1220517 136.27272
0.10375827 0.14013246 -0.12925377 129
0.65424663 0.11729319 -0.1843276 175.09091
0.75728434 0.14083093 -0.17616226 181
0.84213334 0.15279484 -0.16078983 186.22223
0.94806039 0.15252793 -0.16616423 191.25
-0.45714328 0.21799412 -0.20181049 144
-0.22972389 0.24118595 -0.19798626 153
-0.1593204 0.21361068 -0.19841747 155
0.056235533 0.23461159 -0.19675004 168.25
0.86794811 0.21444745 -0.16281357 189
0.92707807 0.24005003 -0.16709538 191
-0.13687743 0.37230238 -0.1970273 153
-0.055483151 0.35078627 -0.19815175 159.14285
-0.11762179 0.45803541 -0.1888521 140.60001
-0.063505933 0.45516175 -0.19878535 152.8
0.057797011 0.44817266 -0.19785029 168.88889
0.15416816 0.48289391 -0.19525982 178
-0.14648236 0.55037194 -0.18689588 114
-0.046456326 0.50866151 -0.19724222 150
0.042255469 0.52971709 -0.19653982 155.25
0.11469421 0.56559998 -0.19641414 159.75
-0.14990044 0.625929 -0.18649645 108.33334
-0.031774312 0.64534587 -0.20031933 147
0.06159775 0.67815745 -0.19998837 145.5
-0.17085049 0.83692449 -0.15645026 162.10001
-0.014675693 0.82745278 -0.18690178 167
0.081962176 -0.13411553 -0.06430576 124.5
0.10831256 -0.12386245 -0.085667804 125.5
-0.25831288 0.15438297 -0.075249784 146.85715
0.047456048 0.15978143 -0.06959644 124.53333
-0.18919766 0.82364434 -0.07388524 186.5
0.026732165 0.15565132 0.014004852 127.33334
