# .PCD v0.7 - Point Cloud Data file format
VERSION 0.7
FIELDS x y z intensity
SIZE 4 4 4 4
TYPE F F F F
COUNT 1 1 1 1
WIDTH 114
HEIGHT 1
VIEWPOINT 0 0 0 1 0 0 0
POINTS 114
DATA ascii
-1.2714084 -3.942657 -0.39830318 4
-1.0478326 -3.4073765 -0.36527964 4
-0.84208286 -2.9082301 -0.32621762 4
-0.71239114 -4.0284243 -0.36766246 4
-0.57568562 -3.5251944 -0.34374785 4
-0.44904563 -3.0495887 -0.31334755 4
-0.70905662 -2.5890832 -0.30568376 4
-0.56540412 -2.2461474 -0.28575432 3.5
-0.59118348 -1.7923462 -0.25327209 3
-0.58246022 -1.3677394 -0.23506072 2.5
-0.54417461 -0.99890941 -0.23237106 1.1666666
-0.53857982 -0.72717077 -0.23352262 0
-0.020037897 -2.8774505 -0.26485845 4
-0.32856229 -2.6041074 -0.29053435 4
-0.21290515 -2.1773555 -0.26939511 3.5
-0.22858642 -1.7564782 -0.25429845 3
-0.18388917 -1.3739024 -0.24249096 2
-0.20283724 -1.0136217 -0.23621845 0.75
-0.20420051 -0.75347352 -0.23247124 0
-0.043539174 0.68608844 -0.20082755 0
-0.096927688 1.0528306 -0.19566931 2
-0.1400115 1.4534812 -0.18077683 3.5
-0.24865256 1.7666221 -0.17847002 4
-0.1249254 2.1537802 -0.17298019 5
-0.062023673 2.6100273 -0.17074817 5
-0.13533777 3.0487287 -0.1732215 5
0.36612937 -3.5593145 -0.29444242 5
0.36674988 -2.9486456 -0.26808912 4.5
0.36734363 -2.5073116 -0.24948491 4
0.068206429 -2.2368624 -0.24152268 4
0.26851884 -1.7861211 -0.20839982 3.5999999
0.19877747 -1.3766749 -0.23246384 2.2857144
0.21758974 -1.0128442 -0.23461995 0.71428573
0.2970663 -0.66846126 -0.21397382 0
0.26320875 0.68679887 -0.20028999 0.16666667
0.200435 0.98733151 -0.19820987 1.5384616
0.2486776 1.392606 -0.17847115 3.5999999
0.16749308 1.8274117 -0.17011383 4.4000001
0.21071465 2.1442699 -0.17137244 5
0.28904271 2.6234474 -0.16775106 5
0.27440739 3.02338 -0.16460505 5.5
0.62828612 -2.1858549 -0.13714424 5
0.59747803 -1.8695418 -0.15811716 4.5
0.66447902 -1.4147989 -0.15193678 4.125
0.59745574 -0.98096418 -0.2182035 1.5
0.61099106 -0.59590095 -0.20085484 0.63636363
0.59052426 -0.38110259 -0.19745553 0
0.68233037 0.24379411 -0.19116542 0.2857143
0.61155188 0.63319576 -0.19776812 0.80000001
0.57184452 0.97120959 -0.19397464 2.25
0.60825109 1.3553519 -0.17644104 3.6666667
0.63282508 1.7727596 -0.16593985 4.6666665
0.59060949 2.1507175 -0.16009441 5
0.65064383 2.7351251 -0.16556893 5
0.67568445 2.9978406 -0.16206303 6
0.70843208 3.3349864 -0.15943527 6
0.71626043 -1.5700949 0.027548973 7.5
0.83409363 -4.2642446 -0.0094856266 7
1.0223347 -1.3784225 -0.13814747 4.5454545
0.90434182 -1.0132201 -0.20855004 2.5999999
0.80542189 -0.73905593 -0.20338257 2
1.0094721 0.32331851 -0.19522595 1.8333334
0.96413535 0.58989835 -0.19579005 2.2222223
0.96704614 0.96782517 -0.18166912 3.2857144
1.0231467 1.3954443 -0.17054932 4.25
0.93192285 1.8159055 -0.16419804 5
1.0312934 2.149941 -0.15724741 5
0.97569847 2.5590668 -0.1537036 5.5
1.0653685 2.9475348 -0.1488692 6
1.146856 3.2985485 -0.14590842 6
0.99289399 5.9707327 -0.22597118 6
0.98158252 -1.4098086 0.072008029 8
1.2006106 -1.444714 -0.19478822 4
1.3766235 0.59123296 -0.18191606 3.5
1.4085603 0.99933374 -0.17235148 4
1.4088422 1.3328605 -0.16834149 4.75
1.4124098 1.7748214 -0.16272342 5
1.224877 2.2272794 -0.15590565 5
1.3406695 2.5354896 -0.15070927 5.5
1.4943644 2.9430919 -0.1455346 6
1.8459657 0.6788829 -0.16993667 4.5
1.7721894 0.95333803 -0.16847062 5
1.7723007 1.351149 -0.16865139 5
1.690369 1.8200958 -0.16081317 5
1.7761639 2.2347939 -0.1533087 6
1.7441671 2.5411954 -0.14761224 6
1.8838278 2.8037455 -0.14172834 6
1.6173247 3.2714381 -0.13879693 6
1.6259543 5.2026534 -0.24272808 6
2.2379992 1.0679469 -0.14808249 5.3333335
2.2257743 1.4061216 -0.11065736 6
2.0066171 1.72698 -0.15804657 5
2.3157628 2.0578461 -0.14975567 6
2.2667663 2.6265864 -0.14614806 6
2.2382789 3.4731793 -0.121789 6
2.31742 5.1276569 -0.11571532 6
2.3292871 5.2045894 -0.062886298 7
2.2608812 0.92092663 0.1067273 8.5
2.293628 1.2573987 0.094992019 8
2.6013856 1.0359257 -0.13819852 6
2.4969649 2.9486742 -0.14030717 6
2.9598706 2.1232929 -0.14859666 6
2.8294501 2.6045542 -0.14442761 6
3.081387 5.0598426 -0.083517253 6.5
2.9978795 5.0308213 0.1198082 8
3.5793657 3.4412313 -0.030871779 7
3.5116944 3.4485307 0.18607049 8.5
3.8513803 1.6145649 -0.15471129 6
3.6144266 3.4425945 -0.12915832 6.5
3.655853 4.5457296 -0.16302545 6.3333335
3.9819257 3.1024873 0.33404672 9
4.0617661 3.096802 0.087220229 8
4.4318829 3.345125 -0.10598771 6.5
4.4359407 2.0135617 0.56099302 10
