# .PCD v0.7 - Point Cloud Data file format
VERSION 0.7
FIELDS x y z intensity
SIZE 4 4 4 4
TYPE F F F F
COUNT 1 1 1 1
WIDTH 107
HEIGHT 1
VIEWPOINT 0 0 0 1 0 0 0
POINTS 107
DATA ascii
-2.4629319 3.415736 -0.40417871 9
-2.452111 3.455399 -0.08241979 11
-2.4904666 3.4721675 0.04896399 12
-2.4318542 3.4921403 0.18263438 13
-2.5141852 3.406256 0.44040895 14
-2.5063388 3.5263662 0.55560464 15
-2.206512 2.3227036 -0.24508977 9
-2.2365792 2.5433707 -0.062925257 11
-2.3230827 2.9240091 -0.15588686 10
-2.285162 3.512428 -0.20234302 10
-2.2336483 2.6245687 0.17134872 13
-2.1041431 1.9913647 -0.03157049 10.5
-2.060312 1.7263118 0.17704527 12.5
-2.1888211 2.3436491 0.043753352 12
-2.1008475 2.0529742 0.26933256 14
-1.9731773 1.4085125 0.10050352 12
-1.8370677 0.87836355 0.34167019 15
-1.8996249 1.194346 0.25665966 14
-1.979686 1.4964772 0.27208701 14
-1.4668224 -0.55923682 0.41926312 13
-1.5513895 -0.27322569 0.29718104 12
-1.5619372 3.661443 -0.33398429 9
-1.4731145 -0.53963327 0.48870808 14.5
-1.3289188 -1.1749994 0.4375214 11
-1.3975478 -0.84452301 0.40703359 12
-1.2504047 -0.54790366 0.32498702 12
-1.1253527 -0.84082639 0.42891759 13
-1.1819084 -0.57468736 0.34813529 13
-0.70553857 -0.83336568 0.42111871 14.5
-0.41477603 -0.78117961 0.37018472 14
-0.30211496 -1.0328124 0.45948291 14
-0.36175838 -0.76219445 0.36854172 15
-0.13848926 -1.0092559 0.4346917 14
0.10446186 4.1061063 -0.088434897 11
0.33883893 -0.75556797 -0.080068178 0
0.49520451 -0.84571463 -0.053789917 1
0.53269881 -0.56881005 -0.092962265 0
0.48731187 0.97890997 -0.33357683 3
0.51714343 -2.3827209 0.52153152 8
0.42440152 -2.3249652 0.98197186 13
0.4761138 -2.4020128 1.040346 14
0.74214983 -0.8837409 -0.038224336 2
0.68997425 -0.75573152 -0.062320385 1
0.78917134 -0.5515219 -0.088411964 1
0.72944486 -2.2817304 0.98044145 13
0.69570869 4.2388291 -0.30070111 10
0.75311553 -2.3985627 1.0832319 14
0.93140405 4.302062 0.066594966 12
0.93182015 4.3263841 0.24664842 13
1.1657122 -2.164983 0.96541148 13
1.1715831 -2.3131065 1.1024225 14
1.3269 -2.3745842 0.32263204 6
1.2761462 -2.3585594 0.47870475 7
1.4417667 -2.1442451 0.56765556 9
1.5155098 -2.096504 0.77339518 11
1.3933958 -2.6231427 1.3774601 15
1.602447 -2.2804813 0.55829942 8
1.6406851 -2.0525112 1.0026654 13
1.6982348 -2.1679995 1.150316 14
1.645166 7.5765982 -0.19363856 11
1.9691726 -1.9371229 1.1762956 15
2.0080667 -1.9652607 0.78608477 11
1.9912173 -2.4673102 1.4185865 15
2.1955194 -2.0200412 0.53673029 8.5
2.301137 -1.9201049 0.78315073 11
2.3362436 -1.810357 0.96868473 12
2.2781756 -1.8181813 1.0507574 13
2.2526317 -1.8807628 1.1965796 14
2.2870913 7.6424599 -0.22788474 11
2.4852931 -2.1555517 0.38671309 7
2.4816773 7.7913423 0.73193485 14
2.7624621 -1.8515917 0.53185058 8
2.7616708 -1.8289386 0.64084244 9
2.7521639 -1.8127147 0.85812426 11
2.7135468 -1.7841457 1.2373017 14
2.6846042 7.8810196 1.127086 15
3.3634169 7.8182149 -0.7586484 9
3.2494869 7.897706 0.064734928 12
3.844183 -1.9970555 0.48958957 7
4.040298 -2.1677771 1.0582805 11
4.1153703 6.5934319 0.35030982 12
4.2955828 -2.0037806 0.79784065 9
4.2068706 -2.0521545 0.94834316 10
4.28689 5.4039631 0.19470814 11
4.9597049 -1.8301194 1.144225 11
4.9969707 -1.8402767 0.57875687 8
5.655333 -1.6516656 2.1061726 15
6.1901875 2.4000413 0.18461429 9
6.0334601 -1.6145208 1.2684222 11
6.1508498 2.7038903 1.0854414 13
6.2119393 2.3275049 -0.037463032 8
6.3222823 2.2070832 0.55651069 10
6.2665396 2.1417718 0.63059276 11
6.222044 2.36728 0.82917058 12
6.4815459 1.5342877 0.96288866 12
6.4768114 1.6495321 1.8563008 15
6.6331177 0.89853734 1.1948751 12
6.7047997 0.61037731 1.3918661 13
6.6008945 1.0559152 1.5475292 14
6.5787311 1.3382533 1.4502528 13
6.7003288 1.1414611 1.9613116 15
6.9137597 -0.26734096 1.6297861 13
6.8751488 0.27200273 1.4487058 12
6.9411287 -0.43698889 2.0669444 14
7.0432935 -0.3620533 1.5387892 12
7.0232539 -0.0093329689 2.1060338 15
11.879443 6.913662 1.8092172 13
