# .PCD v0.7 - Point Cloud Data file format
VERSION 0.7
FIELDS x y z intensity
SIZE 4 4 4 4
TYPE F F F F
COUNT 1 1 1 1
WIDTH 99
HEIGHT 1
VIEWPOINT 0 0 0 1 0 0 0
POINTS 99
DATA ascii
-1.8287358 -0.81579465 0.37572238 10.5
-1.8097241 -0.39871356 0.30392891 10.5
-1.8184602 -0.38373265 0.5171724 14
-1.8174491 -0.31381121 0.51270252 14
-1.7946357 -0.38276166 0.37309086 12
-1.7114985 1.2283574 0.17212805 12
-1.6123469 2.5936608 0.030318191 11
-1.6981736 1.3683829 0.41022533 15
-1.6912099 1.5560385 0.34426346 14
-1.6362994 2.334487 0.11980729 12
-1.621135 2.473762 0.22688897 13
-1.6540233 1.9855723 0.41321743 15
-1.6328385 2.3204463 0.49918166 15
-1.5423263 -0.46589425 0.3701919 12.333333
-1.599376 2.7395966 -0.021772292 10
-1.5512465 3.2896745 -0.023377581 11
-1.4795668 4.0782032 -0.029517556 10.5
-1.5989379 2.7112238 0.34190312 14
-1.5610037 3.1852551 0.19587453 12
-1.4907999 4.0962062 0.18466567 12
-1.5816259 2.9815269 0.54425311 15
-1.5327624 3.4394045 0.34353825 13
-1.457234 4.1815844 0.63093114 15
-1.2156645 -0.5611921 0.38412744 13
-1.3527081 4.1226573 0.25495651 13
-1.3503518 4.1626101 0.53817761 14
-1.1158612 -0.58022511 0.43141484 14.25
-1.1742944 4.0578036 -0.21200457 9
-0.82866806 -0.87595659 0.4422718 14
-0.96871442 -0.61638969 0.35397613 13
-0.73793089 -2.372371 0.51858598 9
-0.6768949 -1.4533167 0.36918762 10
-0.7376706 -2.3340545 0.72382671 11
-0.70075697 -1.594404 0.50920922 11.5
-0.67671067 -1.3754573 0.50458306 13
-0.69046813 -0.89543891 0.40500271 13.5
-0.79169774 -0.60867119 0.36609939 14.5
-0.26722732 0.73267323 -0.30988249 0
-0.21247692 0.8749609 -0.32811329 1
0.55990964 3.9423637 -0.023669569 11
0.61582494 3.9349244 -0.09159717 10
0.71898752 -2.9756129 1.38565 15
0.975622 -2.4370227 0.98194104 14
0.97588456 -2.4683969 1.2026479 15
1.0410789 -0.36634606 -0.12412532 3
1.3532056 -2.5104713 0.65544683 10
1.29357 -2.5196679 0.95527935 13
1.3435007 -2.4770327 0.8903088 12
1.3827529 -2.4528065 1.0917966 14
1.4238979 0.081396908 -0.19006994 4
1.7840101 -2.5791562 0.50882709 8
1.7536674 -2.5615177 0.63402176 9.5
1.7646843 3.8356364 -0.18794525 9
1.7765427 -2.5262227 0.93381912 12
1.7828228 3.848959 -0.077222653 10
1.7132051 3.8863921 0.22814463 12
1.8763624 -2.5442653 0.79004341 11
1.8706223 -2.5248811 0.99868977 13
1.877833 -2.4943829 1.1650776 14
1.9763678 3.8741663 0.36310786 13
1.866572 3.9145424 0.52243048 14
2.282773 -1.3140763 0.81742865 14
2.5643306 -3.1693966 1.7025214 15
2.7826877 -3.2152922 1.1861025 12
2.9644082 -2.9915769 0.50503308 7.5
3.1240876 -3.2654819 0.70463026 9
3.2055058 -1.1724036 0.63958359 11
3.3367941 -3.2145977 1.2724265 12
3.2451122 -3.174274 1.5247484 13
3.2045085 -3.1117067 1.8365541 15
3.5408144 6.6995678 0.17784253 11
3.9538083 -3.1975596 1.2803128 12
3.9960845 -3.1759138 1.5018556 13
4.0652819 -3.2613688 0.86242294 9
4.1597104 -3.1562922 2.0093548 15
4.5872178 6.657577 1.3326939 15
5.0500598 -3.1873672 2.3009787 15
5.4983139 3.0785186 0.47150698 11
5.6182699 4.7972522 0.9183836 13
6.3832445 0.080557868 0.18028101 8
6.3940253 0.26706341 -0.035694614 7
6.3917427 0.18469959 0.5671702 10
6.396543 0.35460904 0.3705546 9
6.3659062 -0.97898388 0.92770654 11
6.2445049 -2.6890974 1.7489312 13
6.2844782 -2.0241299 1.5978916 13
6.3444233 -1.8457578 1.5190564 12
6.2927718 -1.9314494 1.819985 14
6.3797727 -1.0772449 1.6549126 13.5
6.4641933 -0.080546685 0.98774153 11
6.4481139 0.72497582 0.76580489 11
6.41221 -0.51756966 1.0859998 12
6.4154501 0.46773738 1.0903159 12
6.4937406 0.13996345 1.3911661 13
6.411943 0.38053307 1.5102435 14
6.4358449 0.82113427 1.3439294 13
6.4255624 -0.50849414 1.7804464 14.5
6.438261 0.86311549 1.6761186 15
13.108665 2.9267216 2.4177775 13
