# .PCD v0.7 - Point Cloud Data file format
VERSION 0.7
FIELDS x y z intensity
SIZE 4 4 4 4
TYPE F F F F
COUNT 1 1 1 1
WIDTH 109
HEIGHT 1
VIEWPOINT 0 0 0 1 0 0 0
POINTS 109
DATA ascii
-2.0062199 -0.89991313 0.3494775 10
-1.9752524 -0.39737725 0.38961387 12
-1.9597994 -0.34069267 0.36095521 12
-1.8733104 2.2201915 0.072010748 11
-1.8350178 2.9452105 -0.019461773 10
-1.9603488 -0.37526307 0.5688737 14.5
-1.8664898 2.3174622 0.26488882 13
-1.8487313 2.5641594 0.23600805 12
-1.8281271 3.0220902 0.054646704 11
-1.8329811 2.78971 0.28037894 13
-1.7068714 -0.51103234 0.35355422 11.5
-1.781938 3.918081 -0.2118347 9
-1.7666068 4.0145974 -0.041445874 10.5
-1.798613 3.4232578 0.23497801 12
-1.6682699 4.0614767 0.23856635 12
-1.7313421 4.0838146 0.35828668 13
-1.7997004 3.3489304 0.63487464 15
-1.743416 4.0567179 0.60761571 14
-1.6775261 4.1268811 0.70082903 15
-1.3177563 -0.62579918 0.36156151 12.5
-1.3706088 -0.59798735 0.54222625 15
-1.1805347 -0.64745563 0.48588124 15
-1.0292554 4.038404 0.26210737 13
-0.93870127 -2.444968 0.5170154 9
-0.81369579 -1.4116654 0.35496783 10
-0.82481402 -1.3248519 0.42495227 11
-0.80909699 -1.0692327 0.47497168 14
-0.9330169 -0.92883646 0.41627285 13
-0.93715072 -0.65348095 0.37704691 14
-0.93186349 -2.3996525 0.7995075 12
-0.84853399 -1.6930898 0.66526693 13
-0.80714494 -1.0523545 0.54978019 15
-0.78408951 -1.068441 0.45497161 13
-0.6383974 4.0592551 0.55704832 15
-0.3608214 -0.72609669 -0.10606305 0
-0.27061367 -2.4914136 0.42083383 8
0.067207232 -0.71140152 -0.11443208 0
0.054333802 -1.051263 -0.057157714 2
0.051946364 3.9547086 -0.019477058 10.5
0.2605491 -0.72867841 -0.1133318 0
0.29669887 0.78614855 -0.31612945 0
0.20840076 -2.5020261 0.41215935 8
0.53858936 0.68741828 -0.31095996 0
0.52089572 0.87772661 -0.33580893 1
0.52795428 -2.656409 0.27045143 6
0.452528 -0.97939932 -0.070714645 2
0.50440514 -2.5105932 0.42338511 8
0.67879248 0.14374603 -0.23368464 0
0.72131717 0.53580117 -0.28794232 0
0.6505478 0.57604003 -0.29902738 0
0.74436384 0.80413723 -0.32381994 2
0.77831966 -2.5040543 0.61643738 10
0.83485031 0.41530129 -0.2751756 1
0.84212685 0.73760879 -0.32452679 1
1.0028589 0.58026427 -0.30849966 2
1.1472158 -2.5105159 0.88668698 13
1.027076 -2.4183464 0.99656546 14
1.3032717 -2.4905331 0.70050609 11
1.6994396 -2.5618358 0.46949154 8
1.7590088 -2.5399606 0.65293998 10
1.7181808 -2.4953687 0.93475372 12
1.6950355 3.8640311 -0.0067226551 10.5
1.7780957 -2.4764249 1.0955684 14
1.725137 -2.4815087 1.0075994 13
1.6998729 3.9044969 0.28882617 12
1.7108473 3.9071631 0.34480342 13
1.6457114 3.940984 0.5913974 14
1.6866626 3.9462659 0.69735986 15
2.484539 -3.1088407 1.6002997 15
2.861896 -2.9668076 0.37271291 7
2.9910569 -3.2383335 0.65996373 9
2.9986911 -3.1310084 1.2847543 13
3.2517288 -3.1521921 1.2471061 12
3.7842011 -3.2716522 0.39266962 7
3.8439546 -3.19187 0.79578906 9
3.9176102 -3.1025808 1.4118177 13
4.1483302 -3.3661964 0.31492391 6
4.1431637 -3.3110578 0.58329499 8
4.1495337 6.7754016 1.2463362 15
4.7083073 6.6418014 -0.30597153 9
4.6568341 5.9674277 0.09792424 10
4.9869275 6.7284007 0.40418148 11
5.0055647 6.8026175 1.104369 14
5.3045359 6.4903183 -0.48396018 8
5.3638477 4.7877336 0.58205748 12
5.5394731 -0.42228559 -0.087959677 6
5.7056594 -2.6367526 0.12703334 6
6.1568508 -2.4623058 1.6632879 13
6.1656404 -2.3359771 1.8608271 14
6.1966743 -2.5438292 2.2993021 15
6.2008419 0.20023462 -0.10496527 7
6.2064943 0.45469213 0.10307436 8
6.2144494 0.37629777 0.4110159 9
6.2098722 -1.2293849 0.96083742 11
6.2154007 0.34266448 0.61342365 10
6.2323322 -0.7625916 1.109396 12
6.2538204 0.86401397 0.72234792 11
6.2111363 -1.5952111 1.2341366 12
6.3192716 0.24821299 1.1646104 12
6.2566266 0.88687104 1.1371101 13
6.2146134 -1.2765776 1.7134432 14
6.2461686 -0.78912306 1.575744 14
6.2507691 0.6458534 1.3939452 14
6.2421761 -0.90203041 1.8410816 15
6.3212776 0.06052823 1.6198381 14
6.2991867 0.053349279 1.8629295 15
6.273283 0.98777318 1.7249765 15
8.1331034 4.0469966 1.8199756 14
8.0858393 3.2551196 2.0102339 15
