# .PCD v0.7 - Point Cloud Data file format
VERSION 0.7
FIELDS x y z intensity
SIZE 4 4 4 4
TYPE F F F F
COUNT 1 1 1 1
WIDTH 673
HEIGHT 1
VIEWPOINT 0 0 0 1 0 0 0
POINTS 673
DATA ascii
-2.2165816 -0.77817261 0.45900753 11.5
-2.1198239 -0.56076795 0.36109468 10.833333
-2.1020777 0.83323818 0.21555291 11
-2.0982015 1.0252049 0.15396212 10.444445
-2.0626688 1.4194137 0.079641588 9.8571424
-2.0380871 1.8315262 0.047418114 10
-2.0093675 2.1466212 0.031571276 10
-2.1982055 -0.79113835 0.64467961 13.333333
-2.1736796 -0.6562956 0.59503937 13.285714
-2.1238544 0.82631862 0.40803808 13.333333
-2.0868516 1.0835922 0.40737912 13.555555
-2.063988 1.4564638 0.40564534 13.555555
-2.0351741 1.8361034 0.38893273 13.428572
-2.0112028 2.1939971 0.26719874 12.166667
-2.0237379 1.969589 0.57678771 15
-2.003505 2.2458012 0.58615327 15
-1.9353962 -0.58040631 0.3412993 10.8
-1.9928998 2.3085854 9.7639359e-06 9.75
-1.9720668 2.5866489 -0.0057791718 9.8000002
-1.9312717 3.0153017 -0.053893726 9.5
-1.90311 3.334605 -0.098334812 9.333333
-1.8677063 3.7222822 -0.16067524 9
-1.7304811 4.022646 -0.17395675 9
-1.6909224 -2.33795 1.0155962 13.5
-1.8080682 -2.2697706 1.0575954 14
-1.8018762 -0.84155869 0.67539591 15
-1.9161679 -0.46013612 0.59299624 14.5
-1.9921943 1.9585049 0.38655028 13.333333
-1.9801857 2.3357768 0.34468126 12.8
-1.963595 2.6507235 0.29244632 12.4
-1.9294488 3.0649469 0.2195622 11.714286
-1.901531 3.4321902 0.16315359 11.285714
-1.8649186 3.8572156 0.13112773 11
-1.7123122 4.076664 0.10037788 10.8
-1.6925312 -2.3511851 1.1436257 15
-1.8259571 -2.2443478 1.1343143 15
-1.986834 2.4319506 0.60412514 15
-1.950894 2.6565588 0.58962005 14.666667
-1.9059471 3.079926 0.56223661 14.5
-1.8561685 3.5316787 0.56212217 14.166667
-1.8121333 3.919349 0.54018813 13.666667
-1.6981624 4.136384 0.43927231 13
-1.847928 3.9851203 0.73876262 15
-1.7144334 4.1717014 0.74888659 15
-1.2702588 -2.4201908 0.57676464 10
-1.391966 -0.62244153 0.38044667 12.5
-1.374445 4.0234227 -0.14438136 9
-1.2912149 -2.385226 0.84281838 12.4
-1.2040395 -0.86079538 0.54997504 15
-1.4191041 -0.59023982 0.50927335 14.666667
-1.2380034 4.0211487 0.01846168 10.5
-1.4154292 4.0547743 0.10502023 11
-1.282522 -2.9008131 1.2414373 14.5
-1.4012433 4.1078024 0.41791162 12.8
-1.4071234 4.1482801 0.7445696 15
-0.98682863 -2.4292748 0.53297985 9.4444447
-1.1434262 -2.0706689 0.51501918 10
-1.1048515 -1.7362757 0.47312257 10.555555
-1.0609713 -1.3360524 0.43427569 11.363636
-1.0751001 -0.98590004 0.4106026 12.333333
-1.1695304 -0.68583357 0.41106504 13.5
-1.030681 3.9979563 -0.11573711 10
-0.98934174 -2.4165306 0.89711595 13.2
-1.1582962 -2.0440013 0.71185738 12.5
-1.1153886 -1.7448902 0.68489039 13.2
-1.0669812 -1.2923945 0.60958993 14.333333
-1.0873613 -0.96262193 0.55822116 15
-0.99489862 4.0252438 0.13883147 11.5
-0.99544942 -2.9285452 1.3213204 15
-0.98671448 -2.5757573 1.1402497 15
-0.97608751 4.0696859 0.44155186 13.75
-1.126163 4.0954809 0.46567708 14
-0.96891809 4.1081572 0.733715 15
-1.1128365 4.1224999 0.7226063 15
-0.53413427 0.61534387 -0.29461324 0
-0.46387857 0.98189259 -0.33889848 1.5
-0.48481274 1.3616756 -0.40650639 2.5
-0.56705457 1.7271143 -0.46944436 3
-0.69693476 1.9678202 -0.51137543 3
-0.57862222 -2.4809332 0.52473646 9.4444447
-0.72742355 3.9705145 -0.091040842 10
-0.58202988 -2.4453328 0.86428767 13.285714
-0.6047129 4.000174 0.14508629 11.5
-0.53860098 -2.9015746 1.2686107 15
-0.6010502 4.0449419 0.48907405 14
-0.70488441 4.0791492 0.71121109 15
-0.13717988 -2.6008816 0.1611257 5
-0.20263454 -2.200309 0.098744161 5
-0.2112702 -1.7688857 0.041803487 4
-0.079954468 -1.3748784 -0.00062572886 3.6666667
-0.080362737 -1.1341798 -0.035324477 3
-0.19324681 0.68926376 -0.30060515 0
-0.17386477 0.96797007 -0.32679272 1.4
-0.267777 1.2959342 -0.38695017 2
-0.051593956 1.772114 -0.46504265 3
-0.12827706 2.105108 -0.53070021 3
-0.21014543 -2.5163281 0.49871355 9
-0.18982862 -2.4843225 0.87464094 13.375
-0.20946547 3.9713633 0.18843672 11.75
-0.1851014 -2.9756842 1.2714545 14.666667
-0.17509294 4.0097113 0.48839059 14
0.20061027 -2.5445807 0.16164082 5
0.22787714 -2.1568472 0.11117027 5
0.13830893 -1.7881144 0.062270746 4.5
0.21000926 -1.3705649 0.01146997 3.8
0.18153411 -0.98009694 -0.05322843 2
0.23355384 -0.64873016 -0.098259047 0.2
0.28340492 0.61528081 -0.28700206 0
0.20502906 0.99073631 -0.31457353 1.9090909
0.14535543 1.308448 -0.37477326 2.8333333
0.19768812 -2.5607078 0.46904674 8.5714283
0.32577509 1.6320673 -0.10662257 9
0.21417272 -2.5079033 0.82439488 12.625
0.2168299 3.9411535 0.21637358 12
0.22639681 -2.916182 1.2759542 15
0.24152197 3.9757032 0.48082274 14
0.5374009 -2.6156125 0.21334521 5.5
0.6111111 -2.1690445 0.1288138 5.3333335
0.6179629 -1.8309824 0.085371606 5
0.56856525 -1.3999048 0.027230036 4.25
0.59832221 -1.0061957 -0.030503213 3.2857144
0.59676337 -0.59774864 -0.086583033 1.7
0.69603926 -0.25504389 -0.13481702 0.85714287
0.55295646 0.3519817 -0.24501872 0
0.59968901 0.58891153 -0.277899 0.55555558
0.62699187 0.94627881 -0.33130896 1.875
0.55320722 1.3089311 -0.37665975 2.8
0.5429014 1.6981167 -0.4325141 3.6666667
0.57585788 2.1363809 -0.48876595 4
0.61271071 2.481097 -0.54105294 4.5
0.46456274 2.9262183 -0.61543322 5
0.48469484 3.4477642 -0.70969665 5
0.57451862 -2.5906703 0.4734548 8.636364
0.57181269 -2.5423536 0.90454769 13.285714
0.61744881 3.9062328 0.18469696 11.714286
0.58698153 -2.5351903 1.1362966 15
0.61460525 3.9506667 0.53071296 14
0.91130245 -2.8199029 0.29225427 6.5
0.90342391 -2.7093475 0.22932054 6
1.0313333 -2.2990119 0.17149377 6
0.95925355 -1.7693558 0.099205725 5.5
0.98518074 -1.403386 0.041218247 5
0.97680795 -0.98254353 -0.028614569 4
0.98313791 -0.60176331 -0.080284499 3.1428571
0.95075178 -0.29867384 -0.12633154 2.4000001
0.8756687 1.092291 -0.33680749 3
0.95351535 1.4391918 -0.38419843 4
0.99230623 1.7647667 -0.43352821 4
1.0026606 2.0866003 -0.48139858 4
1.1198097 2.4843717 -0.53904688 5
0.82161939 2.7506902 -0.59464735 5
0.8930921 3.1759398 -0.67044067 5
0.96382278 3.7477589 -0.69776326 5.3333335
1.0448717 -2.7651331 0.67524427 10.333333
0.99245661 -2.6011333 0.51570588 9
0.89599919 3.8442547 -0.072209477 10
1.0090145 -2.5485821 0.90183401 13
0.99210083 3.8676012 0.10286833 11
1.0055166 3.9162099 0.52830559 14
1.3022783 -2.8053455 0.2635552 6
1.4120286 -2.5521429 0.20516847 6
1.4281391 -2.1748095 0.15096891 6
1.345287 -1.7948081 0.097099304 5.6666665
1.4120437 -1.3857644 0.028905645 5
1.3606879 -1.0071956 -0.019803749 4.6666665
1.4125932 -0.59201491 -0.06537126 4.5
1.3118043 -0.38352954 -0.11711515 3.5
1.3234121 2.111315 -0.47427142 5
1.4535383 2.4072335 -0.51448792 5
1.2418793 2.897455 -0.60005832 5
1.3672948 3.3159611 -0.66672748 5
1.4477564 3.726769 -0.61330056 6
1.2701795 -2.8097889 0.38497439 7
1.3492475 -2.6405115 0.49452272 8.5
1.3809824 3.8005283 -0.19645648 9
1.3192501 -2.5698752 0.94660175 13
1.3633999 3.8353226 0.13051608 11
1.4379265 -2.538008 1.2317916 15
1.3663971 3.8815126 0.51863575 13.875
1.9340048 -3.3493018 0.36803731 7
1.953932 -3.1223037 0.33975491 6.5
1.8167385 -2.5521522 0.20692608 6
1.7789726 -1.8019905 0.085082941 5.3333335
1.8040084 -1.3108482 0.046461925 5.5
1.8324403 -0.97876692 -0.0048491154 5.25
1.8565497 -0.59444839 -0.059937768 5
1.7111306 2.9904099 -0.59677267 5
1.9063801 3.4300728 -0.66157007 5
1.9558583 -3.3252051 0.61009556 8.8000002
1.9846261 -3.1301312 0.53535944 8.5
1.9370559 -1.898441 0.48637971 10
1.9684235 -1.395028 0.45580587 10
1.8858399 3.759917 -0.26961541 8
1.8072658 4.2683969 -0.13516559 9
1.9104214 -3.3254285 1.0251181 11.5
1.7164196 -1.9216007 0.80869055 13
1.7602652 -1.7290914 0.76751357 13.25
1.7831235 -1.3262857 0.68342686 13.5
1.6941559 3.9517374 -0.013378825 10
1.9070686 -3.2360351 1.4016721 14
1.6560043 3.8310411 0.36191598 13
2.1790004 -3.0348878 0.364932 7
2.1856031 -2.7665117 0.23811325 6
2.1397197 -1.8266087 0.1008009 6
2.2287352 -1.3211881 0.054578852 6
2.1486447 -0.96229106 -0.016350759 5
2.3872807 -0.7994166 -0.048493192 5
2.1024473 3.879576 -0.71845269 6
2.2071462 -3.3270009 0.68525094 9
2.1376724 -3.0335569 0.50931215 8.333333
2.0976408 -1.6250112 0.36314592 8.666667
2.2482646 -1.3800073 0.38568273 9.3999996
2.2030125 -3.3310935 0.9568246 11
2.1027968 -1.2312146 0.65980953 13
2.2047193 -3.2516134 1.3982673 14
2.258852 -3.2458112 1.646775 15
2.4934108 -3.2594223 0.38129604 7
2.4471989 -3.0931289 0.32915229 6.5
2.7277043 -2.7455261 0.20271118 6
2.7284977 -2.2295845 0.23912068 7
2.610136 -1.5889241 0.10128194 6
2.4872761 -3.29214 0.66572124 8.75
2.5118659 -3.0515361 0.54365468 8.5
2.5548332 -1.7157048 0.31485239 8
2.679276 -1.3653593 0.37149486 9
2.6140928 -3.3813431 1.0069971 11
2.7380385 -1.3167646 0.63956428 11.666667
2.5711029 -3.2669647 1.4506969 14
2.5294163 -3.2184544 1.6823972 15
2.9597938 -3.3479359 0.40214911 7
3.1916285 -2.0409913 0.22118212 7
2.9137492 -1.8014311 0.13265078 6
3.1984334 -1.5199463 0.080789872 6
3.1577067 6.3607945 -0.96116692 6.5
3.0859389 -3.4243052 0.62276822 8.333333
3.1708593 -1.9666756 0.36605412 8
3.0116868 -1.351369 0.33110124 8.5
3.1099992 6.4908381 -0.60227025 7.5
2.9536419 -3.354739 0.98083872 10.666667
2.9625547 -1.5738485 0.68649369 11
2.9579849 -1.2854334 0.64315516 11.5
3.0095408 6.6332269 -0.23921341 9.25
2.9843922 -3.2991171 1.2945217 12.5
3.0675442 6.6741977 0.15718438 10.8
2.9417377 -3.2234654 1.6752511 15
3.009371 6.7294698 0.606341 12.5
2.9949584 6.7757921 0.99993044 14
3.0776682 6.7907133 1.2368854 15
3.4704411 -3.6086431 0.32953748 6
3.2836766 -3.4337807 0.36094093 7
3.3032663 -1.8396213 0.20113479 7
3.4274261 -3.4158139 0.64323395 8.1999998
3.4664674 -2.1974046 0.61267877 9.5
3.3264003 -1.8096151 0.29387909 8
3.4706771 -1.3873231 0.41030517 8.8000002
3.3913956 6.5591488 -0.45209846 8.333333
3.2667491 -3.557513 1.0550354 10.5
3.4513686 -3.3867786 0.91214651 10
3.5900757 -2.2112973 0.71306074 10
3.3428826 -1.7826625 0.68197173 10.5
3.4425864 -1.3254315 0.65003681 10.75
3.3627687 6.6054225 -0.16915905 9.333333
3.4334247 -3.3129013 1.3308501 12.333333
3.377686 6.6480651 0.18894479 11
3.4104347 -3.2580733 1.7239324 15
3.3786089 6.7014403 0.61446005 12.5
3.4093206 6.7344217 0.98135668 13.75
3.4324138 6.7617111 1.2522737 15
3.8566878 -3.4397118 0.37377241 7
3.7769399 -3.4148455 0.56941652 7.8000002
3.6604764 -2.2025375 0.62345886 9.5
3.8268991 -1.8023618 0.28743619 7.5
3.8517189 6.5401225 -0.44827288 8
3.8788927 -3.4105461 0.94818753 10
3.707139 6.5805793 -0.12135015 9.666667
3.8230116 -3.3317859 1.4168432 12.5
3.8275235 6.6184301 0.17709635 10.5
3.8116069 -3.2620902 1.8714644 15
3.7617326 6.6554785 0.53909928 12
3.7841866 6.7010803 0.9611463 13.333333
3.8059402 6.7397394 1.2893753 15
4.1496825 -3.4554336 0.37995675 7
4.1640148 -1.4738876 0.16285901 7
4.2050152 -3.4974413 0.68877834 8.3999996
4.2685709 -2.1805754 0.47706571 8.25
4.2187748 -1.4040774 0.3346507 8
4.2433867 6.496727 -0.488399 8
4.2533488 -3.4328909 0.92628872 9.5
4.1594729 -2.345495 0.71691066 10
4.3176355 -1.4609513 0.67715126 10
4.1714931 6.5366802 -0.21531177 9.333333
4.2088542 -3.6294794 1.2799706 11
4.1992741 -3.3787372 1.4168427 12
4.2353501 6.592773 0.25866482 10.75
4.2611046 -3.3113871 1.9020321 15
4.1630774 6.6338515 0.63291711 12.25
4.3298178 -3.2930973 2.0694132 15
4.1955562 6.6711059 1.0118032 13.5
4.196938 6.6977315 1.3159974 15
4.4053121 -2.3550756 0.16638677 6
4.5311136 -3.4723005 0.75453943 8.666667
4.4661636 -1.5158128 0.31658679 8
4.6530447 6.4458089 -0.53203094 8
4.5118184 -3.4691024 0.92405623 9.5
4.657712 -1.4001753 0.70012224 10
4.6785269 5.814136 -0.11975939 9.5
4.4993162 6.5154295 -0.20932409 9.333333
4.5535626 -3.3994133 1.4203647 11.8
4.6478872 5.8237729 0.17725801 10
4.6538248 6.5561948 0.26199302 10.5
4.6674809 -3.3488746 1.8231263 14
4.7186656 5.9149404 0.77148801 12.5
4.5630865 6.6045032 0.66041923 12
4.5522656 6.645679 1.0646816 13.666667
4.7349076 6.5571918 1.3846477 15
4.5956912 6.6479855 1.351626 15
5.1994748 3.4124939 -0.22643352 8
5.1525826 6.3191524 -0.41436329 8
5.0285397 6.4370117 -0.53045887 8
5.1631088 3.5134842 0.24015307 10
5.1824989 4.3290124 0.017700229 9
4.9179497 6.4654388 -0.20405173 9.333333
5.09514 3.0552306 0.57642823 12
5.1594224 3.4476233 0.54887736 11.666667
5.1490941 4.197258 0.60901272 12
5.1496239 6.4108319 0.40045375 11
4.9534225 6.5095034 0.16448303 10
4.9851875 5.6876478 0.7331391 12.5
4.8933492 5.8158879 0.57148379 12
4.9895267 6.5636988 0.63757992 12
5.0527177 -3.4636128 2.0999057 15
4.8029375 -3.3132398 2.1838932 15
4.8679366 5.7784815 1.0920924 14
5.057672 6.584486 1.1672076 14
4.8988361 6.610949 1.0066749 13.333333
4.9654069 5.9619651 1.3645995 15
5.101418 6.5379419 1.4057522 15
4.8949451 6.6170449 1.3753346 15
5.4327946 -2.9819276 0.15245678 6
5.5021763 -2.4820149 0.13634495 6
5.4858069 -2.31251 0.13201538 6
5.3381667 -1.2049394 0.10791019 7
5.4967461 -0.96076894 0.0092187682 6.5
5.320466 -0.15695079 -0.067560486 6.6666665
5.559113 -2.9684937 0.41227978 7
5.4568491 -2.4428644 0.67731977 9
5.4757524 -2.2902603 0.49198255 8
5.5643158 -1.2507993 0.26373637 8
5.4707623 -1.1434665 0.14612617 7
5.4351783 -0.56077433 0.10346854 7.25
5.2342443 3.4030812 -0.41345596 7
5.2475038 5.033989 -0.45482993 8
5.4251666 5.7629838 -0.38954189 8
5.3984547 6.1614509 -0.4163307 8
5.4082475 -2.8334591 0.85568213 9.5
5.4611583 -2.2196414 0.78685528 10
5.2774105 4.5793023 0.19507271 10
5.2702837 5.3398991 -0.0044855522 10
5.385632 6.1859851 -0.28336561 9
5.3309789 3.7471669 0.39372289 11
5.2498899 4.2651601 0.60100323 12
5.297296 4.6358786 0.48193309 11
5.3816891 5.0973506 0.50071609 11.333333
5.3958721 5.5385442 0.35695717 10.666667
5.3661518 5.8166661 0.40441984 11
5.3867793 6.2931662 0.33108082 10.666667
5.2264018 4.2736216 0.81576425 13
5.2666531 4.6578236 0.76725835 12.666667
5.3309035 5.1466942 0.64784211 12
5.3491025 5.5309267 0.76727968 12.5
5.404623 6.3676882 0.42923969 11
5.3127894 -3.457706 2.1555846 15
5.3264074 4.1615767 1.3183777 15
5.2561154 4.2109241 1.4598601 15
5.2416224 6.5123529 1.1741376 14
5.3278832 6.5127358 1.3935351 14.5
5.8888826 -2.1941166 0.11554269 6
5.8109012 -1.8493173 0.10867537 6.5
5.9497609 -1.0890491 -0.031722084 6.3333335
5.8563004 -0.72479063 -0.10469459 6
5.6871715 0.35435653 -0.10021567 7
5.7183099 0.48838603 -0.074028596 7
5.6438918 -3.7598445 0.76080948 8
5.8896871 -2.1663983 0.42381886 7.6666665
5.9213357 -1.7444848 0.36142904 7.8000002
5.9323158 -1.4011329 0.36610901 8
5.9985046 -1.0565881 0.29182073 8
5.9759116 -0.48815334 0.25067702 8
5.9229236 -4.058598 0.98909366 9
5.6562543 -3.7222779 1.0407182 10
5.8882318 -2.5074565 1.0429412 10
5.9016008 -2.0510397 0.76431811 9.333333
5.8784218 -1.7199947 0.77695584 9.5
5.9670882 -1.3038495 0.78686857 10
5.9878235 -1.0321045 0.68428409 9.666667
5.9948974 6.335001 -0.16039582 9
5.8870358 6.4351883 -0.11147386 9
5.8272605 -3.879817 1.5738409 11.5
5.7826176 -3.5532389 1.5132214 11.333333
5.7832398 -3.2233624 1.5340416 12
5.8323698 -2.8818185 1.4122794 11.666667
5.8578095 -2.409065 1.463776 12
5.8981242 -2.031373 1.2484831 11.4
5.9610782 -1.6694603 1.1896297 11.5
5.9707637 -1.2559702 1.0667664 11
5.9918394 -0.95926863 0.92963004 11
5.8438721 -3.9765012 1.7335207 12
5.7439809 -3.5206833 1.7277008 12.5
5.8024869 -3.1924918 1.7214557 12.75
5.8515215 -2.8717327 1.7442368 13
5.8571572 -2.4343932 1.6682042 13.25
5.899229 -1.9889288 1.6263065 13.333333
5.9224367 -1.6145855 1.6234639 13.4
5.9589715 -1.2306516 1.540313 13.5
5.9918461 -0.82901168 1.4789883 13.5
5.9790726 6.4998236 0.71828604 12
5.8623981 -3.5228672 2.2910659 14.5
5.8718357 -3.1140258 2.1744187 14.666667
5.9393644 -2.7828968 2.1839509 15
5.954103 -2.2796123 2.0637658 14.666667
5.9893761 -2.0028834 2.087785 15
5.9961424 -1.6094741 2.0459669 15
5.9641676 -1.1570323 1.7620724 14
5.99544 -0.8285414 1.769359 15
5.870605 -3.5724454 2.4991593 15
5.9093671 -3.1366272 2.4252155 15
6.0297613 -0.90225118 -0.018035043 6.5
6.0381308 -0.6511485 -0.086562201 6
6.1078939 0.094898939 -0.15868142 6
6.2075238 2.4893205 -0.40373072 7
6.1789856 3.103291 -0.42996112 7
6.0165806 -0.85346258 0.35971457 8.333333
6.0400863 -0.47908023 0.39208254 8.666667
6.0606475 -0.20766936 0.15424858 7.5
6.050499 0.20652111 0.15558636 7.8571429
6.0440822 0.51456237 0.13803108 8
6.2928367 2.3060493 -0.016453637 8
6.2358003 2.4313569 -0.13214417 7.5
6.3168635 3.1822267 -0.16478667 7.5
6.2486238 3.4065876 -0.097334087 8.666667
6.3868766 4.3399529 -0.51475459 7
6.014605 -0.79042804 0.61825454 9.5
6.0303664 -0.5312472 0.66340226 10
6.0503922 -0.12148188 0.61869562 10
6.0234489 0.25348583 0.51784426 9.5
6.038146 0.55109966 0.51788056 9.5
6.3585491 3.1111138 0.039310843 9
6.3139048 4.2919931 -0.038067944 9
6.2842731 4.6504092 0.030479481 9.5
6.1723695 6.3413005 -0.18861969 9
6.0231209 -1.2826464 1.2444263 12
6.0341315 -0.87785596 1.0857044 11.75
6.0354133 -0.51813829 1.0094204 11.5
6.0542164 -0.032751262 1.0421485 11.666667
6.0228152 0.34037849 0.9441117 11.833333
6.0847545 0.56149793 1.0933888 12
6.0366864 -0.7086826 1.4740623 13.5
6.0472393 -0.44642478 1.4816766 13.5
6.0745993 -0.012788903 1.4362843 13.4
6.0446639 0.33723333 1.338099 13.6
6.0797467 0.67619789 1.4311594 14
6.0160379 -1.7714462 2.067277 15
6.0092506 -1.4565095 2.0336363 15
6.052917 -1.2355624 2.0246294 15
6.0116053 -0.63204247 1.7749351 15
6.0330496 -0.40303949 1.7844384 15
6.0622497 -0.018750612 1.692862 15
6.0222702 0.37320617 1.6558523 15
6.0365028 0.64671898 1.6672723 15
6.3297443 6.5396533 1.256789 14
6.5755806 2.3603034 -0.26890194 7
6.7519755 2.7642846 -0.20994315 8
6.4453425 2.9771225 -0.044016633 8
6.45123 4.4084177 -0.26397136 8
6.6436462 3.5080819 0.13398828 9.333333
6.6992693 6.309 -0.25167942 8.5
6.7402787 6.3550372 0.14667824 10
6.6430955 6.5489988 1.5463983 14
6.7642303 6.5341573 1.6702849 15
7.0910273 2.6223016 -0.070053183 8
7.1159658 2.9357393 -0.33372894 7
7.1842546 2.5097766 0.19706848 9
7.0415869 2.9308825 0.19237086 9
6.8480272 6.2776208 -0.013290814 9
6.8293605 6.4207535 1.0144393 13
7.1383572 6.2914152 1.941341 15
7.2543449 2.5780029 -0.47499046 6.3333335
7.2017775 3.1021116 -0.60517424 6
7.4123082 2.474369 -0.15513055 7.5
7.5198317 6.2334371 -0.5704996 7.5
7.2648988 2.5903497 0.26380697 9.5
7.3599334 2.6546142 0.67156297 11
7.3986349 6.3611193 0.44188437 11
7.4202275 6.2395358 1.8666129 14.5
7.5291595 6.4934783 1.6374604 14
7.7753353 2.4777517 -0.55656993 6
7.9029565 5.7146988 -0.53638643 8
7.8412766 6.1941376 -0.59080058 7.5
7.8628788 6.2485909 -0.11943697 9
7.8249979 5.9462485 0.18523142 10
7.7372646 6.3017879 0.17010356 10
7.9086614 5.9303551 0.75516629 11
7.7176251 6.3388782 0.4485513 11
7.9772696 3.8874607 1.8062942 14
7.9744029 5.9675388 1.3550133 13
7.8811612 6.431284 1.6801703 14
8.2301388 3.8003104 -0.35283285 7
8.3088713 4.0977387 -0.35753885 8
8.0130262 5.9338994 1.0600359 12
8.3256702 6.0850577 1.5003544 13.5
8.2972221 2.5251479 2.2657208 15
8.2525005 3.7278626 2.1082966 15
8.0431824 3.9784975 2.0920293 15
8.0600157 4.3410592 2.128263 15
8.5218534 3.4247346 -0.76140732 6
8.7116051 5.7081881 0.014667743 9
8.6572733 5.8701625 0.46640009 10
8.567915 5.90031 0.98894554 11.5
8.4313831 3.8992801 1.8947303 14
8.4173918 3.5687654 2.1254282 15
8.4829674 4.6092634 1.9062073 14
8.4720945 4.6863861 1.9610614 14
8.5750046 6.1628313 1.7298988 14
9.1605759 2.9501395 0.16881375 9
9.1245661 6.2129264 1.7471428 13.5
9.5555553 2.6674447 -0.50007528 7
9.4187222 2.8715582 -0.49833298 7
9.545536 4.3498154 -0.81152827 6
9.5230837 2.7332938 -0.10067117 8
9.3141603 2.9243312 -0.1638165 8
9.5198946 4.0808315 -0.32744256 7.5
9.3540716 2.3089995 0.17690402 8
9.3688431 2.6564758 0.17067097 8.5
9.2234945 2.8940268 0.13885456 9
9.3436069 4.2629542 0.14889315 9
9.7034693 4.4484344 -0.93491924 6
9.9809914 2.215486 0.17135185 8
9.9241819 4.5057549 1.7332079 13
9.748868 4.6769805 1.774564 13
9.9363966 4.9483714 2.036783 14
10.299386 2.3330173 -0.41827005 7
10.360023 2.6173127 -0.49442774 6.5
10.190261 5.5948253 -1.0428585 6
10.17901 4.6095042 0.25418743 9
10.3504 6.0657554 0.4409858 10
10.167541 4.1782699 1.8355938 13
10.041576 4.2897768 1.7900133 13
10.33193 5.9525847 1.8072444 13
10.426446 2.5117726 -0.48778933 7
10.620985 5.8224239 -0.58583754 7
10.503218 2.4037008 0.23534407 8.5
10.73731 5.950449 0.4427636 10
10.483504 6.1067767 0.50274342 10
10.694209 3.7543635 1.8433404 13
10.420313 3.9215295 1.8173219 13
11.0083 1.7185379 -0.49634731 6
11.137078 2.1141167 -0.5298149 6
10.840238 1.815796 -0.19384705 7
10.891849 1.7706273 0.35118619 8.5
11.193969 2.2044888 0.15793341 8
11.192198 3.654084 1.9009553 13
10.893229 4.5199089 2.1845286 14
11.007055 5.9932032 1.8843592 13
10.967532 2.6642191 2.8512633 15
10.86455 4.7002373 2.3321915 14
10.965815 1.4386801 3.0757892 15
10.922741 2.9162707 2.8587971 15
11.327767 1.9543837 0.15928937 8
11.390792 2.690088 0.5247007 9
11.53747 6.0299745 0.52264941 10
11.449477 6.0793557 0.91665339 11
11.504252 4.1642189 1.6015335 12
11.340096 6.0519295 1.8805095 12.666667
11.445288 2.2430012 2.9315631 15
11.452385 3.927556 2.7160859 14
11.221525 4.143683 2.6879146 15
11.208998 5.1401305 2.413877 14
11.214631 5.8452415 2.4694188 14
11.711636 2.4858451 0.53174019 9
11.715088 3.9400766 1.6147445 12
11.852444 6.0683637 1.3191984 11
11.741978 6.1562548 1.7091497 12
11.67116 4.0747848 2.4265215 14
11.770286 5.9630346 2.0985153 13
11.85099 1.7728125 2.9980495 15
11.658149 2.014905 2.9677801 15
12.134451 5.9895196 0.5340237 10
12.307995 6.1009078 1.7605913 12
12.119884 3.3199966 2.7045436 14
12.013013 3.6698222 2.5779495 14
12.202003 4.9276376 2.5601354 14
12.737592 2.3990657 0.55170006 9
12.680973 5.992485 0.97186947 10.5
12.48246 6.0229464 1.3615435 11
12.700356 1.6781613 2.5262339 13
12.799709 2.1310661 2.5181835 13
12.743924 5.9606314 1.7953627 12
12.660627 1.5408546 2.8475649 14
12.689891 1.8458614 2.861902 14
12.71715 2.1508698 2.8762417 14
12.715408 2.4548934 2.8866179 14
12.743279 2.7871888 2.5548995 13
12.572244 4.6387925 2.5367901 13.5
13.123063 1.9206344 0.0072256238 7.5
12.907802 2.6821628 -0.30608752 7
13.144472 5.9705124 1.4078653 11
12.820611 2.4174783 2.2405682 13
12.890388 3.7299459 2.0077822 12
12.897671 3.983578 2.0742512 12.5
13.144526 5.4383454 1.8129622 12
13.051784 5.75143 1.8174278 12
12.833959 2.4400382 2.5175068 13
12.844716 3.3207917 2.56268 13
12.885565 3.7490983 2.5652499 13.5
12.814807 4.0581465 2.5606976 13.5
13.464402 5.8915071 0.55864543 10
13.38693 5.9234405 0.98167294 10
13.335244 5.8321519 1.3069234 11
13.821648 2.8177109 0.31454942 8
13.886634 2.4671209 0.53919482 9
13.885492 5.918025 1.4590932 11
14.211389 5.8469448 0.57584983 9
14.193935 5.8738699 1.0178164 10
14.382265 3.7674854 1.877932 12
14.642493 5.8405294 1.5123534 11
14.721938 5.7004275 1.9795494 12
15.057364 5.7913013 0.5919593 9
14.983984 5.8433666 1.0804406 10
14.996375 5.7661448 1.4630859 11
15.590496 2.7508616 1.0745877 10
15.591964 2.6548023 1.5317852 10
15.577434 2.5957146 1.9689255 11
15.584532 5.7879119 1.5783429 11
15.661996 4.0628448 0.60680008 9
15.759174 4.3681526 0.55105585 9
15.641818 3.1488221 1.0747075 10
15.663148 3.5578101 1.07684 10
15.689474 3.9627926 1.0779748 10
15.693117 2.6479969 1.6656793 11
15.718163 3.2951558 1.2663161 10
15.699615 3.4417536 1.5490369 11
15.712808 4.3767772 1.0790948 10
15.738114 4.7173171 1.1078633 10
15.945464 5.0907378 1.1493484 10
15.746037 5.810894 1.1471025 10
15.924926 1.9244862 1.9938945 11
15.778188 2.2655847 1.9843665 11
15.856293 5.4707208 1.5916731 11
16.119675 1.9928024 1.7375218 11
16.030571 5.3035622 1.0968089 10
16.402802 4.8163438 1.6213713 11
16.2651 5.1904459 1.6167645 11
16.486492 4.4252748 1.6210773 11
16.814917 2.454015 1.6247458 10
16.84326 4.1030369 1.6443168 11
17.454922 1.8121995 -0.46369871 7
17.571865 2.1712444 0.088424586 8
17.472994 1.9578432 0.34098217 8
17.294321 5.3547773 1.6922036 11
17.591848 2.078537 2.6655989 12
17.976316 2.3806775 -0.5154888 7
17.877571 1.8030059 0.091819614 8
17.762056 4.2185192 2.2349892 11
17.678192 2.4735167 2.6886833 12
17.690533 2.8735387 2.7038448 12
17.73588 3.2795467 2.7249551 12
17.731222 3.6805825 2.740135 12
17.67556 4.0846515 2.7513692 12
18.089754 3.8799994 -0.3167102 7
18.055079 1.9982033 1.2272102 9
18.100851 2.3531504 1.2189246 9
18.145205 2.7856212 1.2214817 9.5
18.097845 2.2181962 1.7257075 10
