# .PCD v0.7 - Point Cloud Data file format
VERSION 0.7
FIELDS x y z intensity
SIZE 4 4 4 4
TYPE F F F F
COUNT 1 1 1 1
WIDTH 124
HEIGHT 1
VIEWPOINT 0 0 0 1 0 0 0
POINTS 124
DATA ascii
-2.568161 -0.85864288 0.3085444 9
-2.5468509 -0.54039067 0.26399902 9
-2.4486852 2.7182064 -0.18298034 9
-2.5549788 -0.46245199 0.3736372 10
-2.4406407 3.0624249 -0.058976706 10
-2.5018358 1.1432086 0.39960697 13
-2.4844949 1.3926162 0.30725336 12
-2.4781928 1.7875686 0.30134544 12
-2.4109397 2.9355071 0.062314913 11
-2.4136424 3.4585149 0.11515798 11
-2.5167041 -0.4760862 0.79600561 15
-2.4961693 1.0811743 0.56972933 15
-2.4960051 1.1207842 0.49002352 14
-2.4672844 1.8751937 0.39384326 13
-2.4594314 2.7139049 0.25614488 12
-2.4762115 2.5577726 0.64891219 15
-2.4193273 3.1552424 0.38750252 13
-2.4447258 3.3619924 0.71288902 15
-2.3031521 -0.53541851 0.44434917 11
-2.3046641 3.9692953 -0.23966037 9
-2.2863646 -0.53220683 0.57134074 13
-2.3314569 -0.50298661 0.63876361 14
-2.3388486 3.9823327 -0.12492836 10
-2.2028315 -0.66346473 0.789814 15
-2.2232935 4.0221634 0.1556115 11
-2.3515744 4.0478644 0.33247316 12.5
-2.3480282 4.0863562 0.61734915 14
-2.2562881 4.0980725 0.7763226 15
-1.8481393 -0.65448344 0.38552311 11
-1.848511 -2.4180422 1.0161759 13
-1.9509202 -2.347178 1.2888049 15
-1.9036454 -2.9403369 1.4582999 15
-1.6272095 4.0625091 0.7149927 15
-1.4242889 -2.0259452 0.4659355 9
-1.4860679 -0.75763363 0.29859114 10
-1.4284433 -2.0616229 0.54156518 10
-1.5368757 -0.86273295 0.43436766 12
-1.506115 -0.71631074 0.34434071 11.5
-1.4533522 -1.436671 0.76061106 14
-1.5119436 -1.1012385 0.66562271 15
-1.5148065 -0.914195 0.66634196 15
-1.5644425 -2.9487584 1.3349979 14
-1.3706592 -1.3986051 0.36802241 10
-1.36956 -1.3180031 0.34460887 9
-1.3463701 -1.0710586 0.3403219 10
-1.3237877 -2.4300132 0.58420002 10
-1.393259 -1.7934628 0.54992872 11
-1.3557372 -1.1740577 0.51213676 12.5
-1.3534508 -0.96371555 0.43477777 12
-1.3122792 -2.3976839 0.88870013 13
-1.366679 -0.95091015 0.57521975 14
-1.3014206 -2.9552326 1.3195509 15
-0.92560798 -2.5108006 0.44326195 8
-0.98016751 3.9634669 0.056712169 11
-0.62111753 -2.48153 0.75730932 11
-0.65442294 -2.8932128 1.3485557 15
-0.54130512 1.2853582 0.15037146 14
-0.48894584 3.9023278 -0.10041621 10
-0.23368682 -2.5306606 0.48177788 8
0.27347949 0.71631503 -0.30854282 0
0.29620951 1.0304569 -0.35788617 2
0.3621985 -2.4932828 1.1572286 15
0.41565412 0.68439174 -0.30092219 0
0.43885607 1.2015055 -0.37684712 3
0.58927381 -2.6004157 0.47538084 8
0.58105361 -2.5588062 0.62366122 10
0.4153018 3.9336772 0.35862449 14
0.62722403 -0.97210371 -0.03865052 3
0.63873899 -2.4769554 0.84535873 12
0.72724205 -2.4536991 1.149147 15
0.85600811 3.8644969 -0.088492878 10
0.96824664 3.9156911 0.38387209 14
0.92698795 3.9446251 0.54932159 15
1.0710803 -2.7543268 0.33691618 7
1.1844387 1.7333262 -0.43390399 4
1.1067916 -2.5687425 0.47919589 8.5
1.1750572 -2.5421607 0.62936819 10
1.1386803 -2.5214067 0.86097944 12
1.0187943 3.8726523 0.041657865 11
1.0724953 3.8999193 0.23029965 12
1.1491637 -2.4844463 1.1823994 15
1.1044307 3.9066129 0.27124238 13
1.7322611 -3.1356258 1.4318229 14
1.9933524 -3.2641137 0.73140365 9
2.3100622 -2.9104388 0.46669981 7.5
2.2799628 -3.2965543 0.94748658 10
2.3125336 -3.2054253 1.2409906 13
2.4514277 -1.1716074 0.41947392 10
2.5885682 -3.144516 1.2473882 12
2.683229 -3.1988471 0.83343488 10
2.6495132 -3.1389492 1.2823986 13
2.6529019 -3.1104043 1.6559621 15
2.703855 6.8728204 0.7270456 14
2.9115982 6.7963772 0.25466022 12
2.9152017 6.8287306 0.50313801 13
3.0142338 6.7312174 -0.14908864 10
3.0520327 6.7473941 -0.023288943 11
3.0542371 6.9001622 1.1042135 15
3.302258 -3.1885345 0.82129204 9
3.3240373 -1.1167942 0.67501897 11
3.3813839 -3.0837293 1.3836764 13
4.3044891 6.6449308 -0.33643925 9
4.3739629 -3.1324968 1.6122329 13
4.6135402 3.7566764 0.14474273 10
4.9594326 -0.37969953 0.17477793 8
5.1788883 -2.4923794 0.16414894 6
5.5807528 -2.1468904 1.5769913 13
5.5940442 -1.6056869 1.6415443 14
5.624073 0.37606287 0.12664941 8
5.6565046 0.56908393 -0.043703295 7
5.6157451 0.34320962 0.30623862 9
5.6226397 0.5821631 0.47309071 10
5.6192226 0.5199936 0.69220787 11
5.6188507 0.37571362 0.84875852 12
5.6182532 0.90568572 0.84247404 12
5.6929584 -0.21673101 1.1173013 12
5.7159729 0.09755116 1.2458553 13
5.6417909 1.0132922 1.1626782 13
5.6143894 -0.96931022 1.7154436 15
5.6774297 0.88298321 1.3190446 14
5.5961361 -2.1364398 1.9458913 15
5.6621556 0.049673297 1.707675 15
5.6109362 0.77328801 1.5628922 15
15.097057 4.1814623 1.2170762 10
