# .PCD v0.7 - Point Cloud Data file format
VERSION 0.7
FIELDS x y z intensity
SIZE 4 4 4 4
TYPE F F F F
COUNT 1 1 1 1
WIDTH 608
HEIGHT 1
VIEWPOINT 0 0 0 1 0 0 0
POINTS 608
DATA ascii
-2.9905818 -0.78692079 0.285236 9
-2.9623079 -0.68517065 0.35515055 9.333333
-2.8978367 1.1610522 0.061527096 9.5
-2.8821337 1.4412385 0.02401085 9.333333
-2.8527665 1.8263701 0.02189178 9.5
-2.8269475 2.1927686 -0.015893469 9.5
-2.8049133 2.4860511 -0.030262286 9.5
-3.0031462 -0.78399283 0.62511951 11.5
-2.9961171 -0.65635324 0.63944054 12.25
-2.8915091 1.2309959 0.41083431 12.333333
-2.8835518 1.4889563 0.40781039 12.444445
-2.8611104 1.8723738 0.31931505 12
-2.8256881 2.2803624 0.25686485 11.777778
-2.8073654 2.6368763 0.26738298 12
-2.9873228 -0.74235791 1.0403018 15
-2.9821889 -0.54205388 0.9203046 15
-2.9175298 1.2055304 0.69947582 14.666667
-2.8868523 1.5066279 0.65167093 14.5
-2.8546836 1.9493483 0.64906114 14.6
-2.8252871 2.2897608 0.62374496 14.6
-2.8094809 2.7360344 0.72496569 15
-2.7907743 2.6744907 -0.098920524 9.25
-2.7650793 3.1296577 -0.17476062 9
-2.7435572 3.3753548 -0.23756056 8.5
-2.5007255 3.9977176 -0.32935861 9
-2.4783275 -2.3175454 1.0051631 12.333333
-2.7118599 -2.1575725 1.0062503 12.5
-2.6047652 -0.84891498 0.79084468 13.727273
-2.6737766 -0.61791825 0.80146128 14
-2.7880082 2.7510462 0.24817374 11.8
-2.7797749 3.057332 0.16167028 11.2
-2.7476137 3.4941156 0.13773109 11.2
-2.6615102 3.8928699 0.025477028 11
-2.528079 4.0530453 0.011770682 11
-2.4398234 -2.7033257 1.5626897 15
-2.4915891 -2.3395073 1.3152132 14.5
-2.6747196 -2.0620146 1.2078459 14.2
-2.6596189 -1.7620704 1.2585305 15
-2.7270989 -0.41902578 0.8723582 15
-2.7977853 2.4558017 0.49400288 14
-2.7809036 2.7025177 0.51745856 14
-2.7760594 3.0693636 0.52164167 13.8
-2.7466829 3.5078042 0.37568802 13
-2.7118502 3.8948898 0.39452454 13
-2.5668104 4.1195326 0.39748296 13
-2.7851033 3.1695313 0.76867664 15
-2.7566867 3.5597501 0.78146946 15
-2.7230544 4.0183759 0.76555502 14.666667
-2.5857346 4.1807833 0.81927836 15
-2.0678716 -2.4239557 0.59177631 9
-2.2140999 -0.64110518 0.37029222 10.285714
-2.3737156 3.9901512 -0.27267173 9
-2.0780959 -2.9098651 1.2260717 13
-2.1633878 -2.3709242 0.95469207 12.166667
-2.1930041 -0.91569376 0.72909766 13.833333
-2.1113653 -0.61964613 0.54050076 13
-2.1823936 4.0203528 -0.043177389 10.5
-2.1908019 -2.8674126 1.5387344 15
-2.1804261 4.0832648 0.33385786 12.8
-2.3194005 4.1202097 0.42753103 13.5
-2.1964397 4.1535401 0.76754433 15
-2.3132563 4.1642079 0.79446757 15
-1.7948006 -2.4359879 0.58398145 9
-1.8863722 -2.0518179 0.54220641 9.3999996
-1.8601413 -1.7451946 0.52240336 9.8571424
-1.8178014 -1.3090184 0.48214301 10.636364
-1.8403455 -0.99667591 0.4158766 10.6
-1.9515454 -0.70303679 0.37755522 10.75
-1.8597407 3.9578793 -0.26645342 9
-1.8012885 -2.3820333 0.91760057 12.142858
-1.8844224 -1.9465824 0.75161952 12
-1.860191 -1.655799 0.70368046 12
-1.9193943 -1.2686812 0.76566303 13.714286
-1.8917844 -0.95015407 0.66134131 13.666667
-1.8002551 4.0047903 0.023358537 11
-1.8161799 -2.8955259 1.4668547 15
-1.7694854 4.0538535 0.33012709 13.333333
-1.8056637 4.1145148 0.68420213 15
-1.3993349 -2.4776754 0.58030856 9
-1.3344928 3.9394186 -0.2211 9.5
-1.4248916 -2.4153934 0.93994856 12.75
-1.4039888 3.9715328 -0.015320296 11
-1.3560538 -2.9342 1.4383347 15
-1.3666731 4.0436916 0.40015259 13.8
-1.4256182 4.0858884 0.63651031 15
-0.90540648 -0.58072257 -0.17381096 0
-1.0010133 -2.501673 0.58328491 9
-0.89806968 1.0435644 0.17291239 13.666667
-0.87825584 1.4341434 0.12006257 13
-0.99925435 3.915823 -0.19255309 10
-1.0004791 -2.444201 0.93690997 13
-0.99876195 3.943969 -0.014558842 11
-0.9831903 -2.9374962 1.4083374 15
-0.99837303 4.0205216 0.42778543 14
-0.64475983 -0.58834505 -0.13488448 0
-0.7480641 0.35350671 -0.29558265 0
-0.59183407 0.65469962 -0.34186348 0
-0.52212864 0.93722719 -0.38249534 1
-0.50766104 1.2215716 -0.42586449 2
-0.58191365 -2.5276456 0.58299267 9.1428576
-0.68219447 1.1936764 0.16731244 14
-0.63281661 1.4572923 0.12969209 13.333333
-0.60395753 -2.4689436 0.92068273 13
-0.59525907 3.9169753 -0.0230102 11
-0.61898452 -2.9858356 1.3969922 15
-0.58598977 3.9885805 0.40578029 14
-0.22489965 0.71197867 -0.33923331 0
-0.32193002 0.93373007 -0.37849164 0.66666669
-0.21111754 -2.5513525 0.59779674 9.2222223
-0.21148084 -2.494379 0.96086699 13.4
-0.20283352 3.8886364 -0.0067179846 11
-0.3310886 -2.9403329 1.3363905 15
-0.34879252 -2.5437317 1.2055542 15
-0.20067009 3.9607081 0.39155078 14
0.19201717 -2.5588892 0.60436589 9.333333
0.18592265 -2.5042453 0.94082785 13
0.20189607 3.8635876 -0.0049271667 11
0.20077653 3.9292791 0.39415556 14
0.74486637 -0.4650214 -0.11384785 1
0.69966489 -0.24839136 -0.14009437 0.85714287
0.71709877 0.13509558 -0.20063429 0.66666669
0.5420835 -2.5803306 0.620745 9.4444447
0.65915376 3.7946191 -0.15976582 10
0.54741204 -2.5187049 0.98523718 13.428572
0.58714688 3.8435574 0.055226866 11.444445
0.58693987 3.9047992 0.4055233 14
1.026931 -0.60764074 -0.086612932 3
0.97100407 -0.20994553 -0.14348792 2
0.97960496 0.18829355 -0.20593905 2.1428571
0.98461908 0.43909141 -0.25918701 2
1.0398949 -3.2705839 0.71232527 8.666667
1.1686339 -1.8273129 0.59635246 11
1.1920483 -1.3166651 0.54042727 12
1.0342181 -3.2122838 1.0786123 11.833333
0.96462274 -1.9208715 0.82804877 14
1.0404837 -1.6692728 0.76628822 14
1.0608807 -1.3472176 0.71095496 14.75
0.9007141 4.2376051 -0.091539159 10.333333
1.0088978 -3.1281083 1.4021022 14.5
1.5764644 -1.2145829 0.03241143 5
1.3866506 -0.96381742 -0.0058598551 4.75
1.4096587 -0.61715162 -0.058526527 4.5
1.3154916 -0.27419737 -0.12797768 3.5999999
1.3626083 0.23442821 -0.20416911 3.5999999
1.3730434 0.53689694 -0.24871489 3.8
1.3838615 -3.2853494 0.73476571 8.75
1.4475369 -2.9800601 0.51110446 7.4000001
1.5750879 -1.630047 0.5394311 11
1.4322916 -1.3890209 0.41741964 10
1.4294919 -3.2582963 1.0503516 11.363636
1.3778031 -1.219552 0.69874442 14.4
1.3742487 -3.1749227 1.4547803 14.6
1.4537116 6.7618403 0.028300986 11.333333
1.5183569 6.815896 0.36843556 12.5
1.4502112 6.8917971 0.79038125 14.333333
1.4786543 6.9315634 1.0515532 15
1.8484919 -1.9207431 0.25089094 7
1.9788951 -1.2600764 0.057402287 5
1.7520918 -0.96241885 0.0075129042 5
1.8726053 -0.57240832 -0.052714735 5
1.6649011 -0.19492249 -0.11681599 5
1.69716 0.15229939 -0.17328399 5
1.7208576 0.53447837 -0.22981571 5
1.76815 0.84271413 -0.28660244 5
1.7512492 -3.2419178 0.79499012 9
1.7354165 -2.9981279 0.66406202 8.833333
1.7986934 -1.6326771 0.40264595 9
1.9395101 -1.3283355 0.44294509 10.166667
1.7805765 -3.2572019 1.1032611 11.714286
1.9788139 -1.6657332 0.74442089 12.333333
1.8545055 -1.2112796 0.65922749 13
1.8463898 6.6864567 -0.28505409 9.666667
1.6797972 -3.1512344 1.5515751 15
1.792304 6.7441583 0.053084809 11.4
1.8038459 6.7991834 0.37880421 12.5
1.8122888 6.8736625 0.82281405 14.5
1.8066351 6.9055133 1.0601618 15
2.0988245 -1.3522831 0.076930352 6
2.2063007 -1.0066296 0.02815631 6
2.3706319 -0.6170482 -0.038551141 6
2.3742604 -0.24279788 -0.090847149 6
2.2086182 0.68633854 -0.24527377 5
2.2655809 -3.3391912 0.6697787 8.1999998
1.9993615 -2.0843093 0.40501344 8
2.1006978 -1.6797168 0.38763085 8.333333
2.1370263 -1.3095477 0.44273245 9.875
2.1866512 -3.2721848 0.97349256 10.5
2.191828 -1.6462681 0.7371546 12
2.1960073 -1.2082988 0.65670419 12.333333
2.1787553 6.6552157 -0.37054873 9.5
2.2022369 -3.1967611 1.4753709 14
2.2535274 6.7058315 -0.014067787 11
2.2002056 6.776557 0.39117432 12.5
2.2079804 6.8329625 0.74089158 14
2.1843693 6.8815718 1.0741997 15
2.6492891 -3.3869052 0.49429113 7
2.465384 -2.0996816 0.25858545 7
2.4226372 -1.6011077 0.12584858 6
2.5381939 -0.66631502 -0.026351517 6
2.5351698 0.53301346 -0.21787111 6
2.4929254 0.96221167 -0.27354136 6
2.5716817 1.349167 -0.34886569 6
2.5984848 -3.3338978 0.69771266 8.545455
2.5645847 -2.0974686 0.54324931 9
2.4211736 -1.9027095 0.37626082 8
2.6995692 -1.3674482 0.41528717 9
2.6536608 -3.2766223 1.0177323 10.75
2.6193049 -2.2034101 0.82013583 11.333333
2.7071249 -1.2635162 0.64679205 11.5
2.6632156 6.6169224 -0.39654404 9.5
2.6752763 -3.1904705 1.5923437 14.5
2.6329191 6.6775327 -0.046104111 10.8
2.5473514 -3.1505251 1.732849 15
2.626811 6.747869 0.40695134 12.5
2.5886588 6.8218851 0.81109881 14.333333
2.6591058 6.8582659 1.096192 15
2.9688325 -0.46453336 -0.04704719 6
3.1413984 -3.3908646 0.87838584 9
2.9528475 -2.1442835 0.52789021 8.5
3.0696883 -1.6943017 0.39605844 8
2.9529538 -1.3819305 0.40493077 9
3.0383403 6.5479751 -0.62562102 8
2.9770901 -3.4915268 1.3026484 12
3.0672522 -3.3106785 1.0012726 10.5
2.9184651 -2.0931323 0.78277004 11
2.9888554 -1.6102535 0.72491843 11
2.9144902 -1.2855959 0.67808908 11.25
3.003463 6.5964842 -0.34682688 9.5
3.032737 -3.2023325 1.4921833 13.333333
3.0206513 6.6672502 0.092738129 11
2.891891 -3.122788 1.7885062 15
3.0428007 6.7209587 0.4494015 12.666667
2.9904804 6.7989292 0.83760661 14
3.0125885 6.8314404 1.113817 15
3.399725 -3.4533577 0.46485189 7
3.4624987 -2.4006386 0.29760626 7
3.2350461 0.18953116 -0.12821437 6
3.2207892 1.304903 -0.30547991 6
3.3309462 -3.3321822 0.87172651 9
3.5319612 -2.4596398 0.47331554 8
3.5662389 -2.2232604 0.38329241 7
3.2399664 -1.9403386 0.34818277 7.5
3.4208474 -1.358295 0.39792901 8.5
3.5199411 -1.0822049 0.34999126 8.5
3.3633165 6.5273457 -0.64767027 8
3.4333017 -3.3484182 0.99501508 10.333333
3.2978361 -2.2531295 0.80284536 10.5
3.5026326 -1.2769328 0.71117991 11
3.4142675 6.5660014 -0.35613045 9.333333
3.3717067 -3.2507381 1.5275401 13.2
3.4061151 6.6356063 0.05988203 11
3.3713026 -3.2249539 1.7801323 15
3.3660293 6.6998806 0.43528447 12.5
3.4804685 6.7696838 0.88076383 14
3.3820736 6.8066673 1.133882 15
3.7968748 -1.3838096 0.13828346 7
3.6869316 -3.3569016 0.89329487 9
3.7223125 -1.3682466 0.39503431 8.333333
3.8052893 6.5058455 -0.67973655 8
3.8314564 -3.3502562 0.95809239 10
3.9745538 -1.5376697 0.9081831 12
3.8711219 -1.2874444 0.70384699 11
3.7899694 5.9337177 -0.12595631 10
3.9172044 6.2312746 -0.179114 10
3.8551211 6.5417843 -0.33190155 9.3999996
3.7474601 -3.2538881 1.5464643 13
3.6990356 5.9432631 0.074887104 11
3.8456039 6.6127448 0.087959178 11
3.7958245 -3.2280514 1.8631132 14.5
3.9284763 5.8672853 0.65943217 13
3.8183839 6.6697049 0.45234442 12.5
3.9052734 5.9357705 0.90833443 14
3.8631868 6.7390361 0.85996938 13.75
3.7655628 6.785006 1.1583599 15
4.3809342 3.528795 -0.14570099 9
4.2232194 6.3825884 -0.56447136 8
4.0902791 6.4769096 -0.63152111 8.5
4.0133972 -3.406533 0.91755152 9
4.2830353 3.5148375 0.2388522 11
4.3048024 3.8428943 0.20040318 11
4.3956628 4.3335757 0.019453777 10
4.3618116 4.5125113 0.013592499 10
4.2752957 6.4030628 -0.36196995 9
4.1293859 6.5121183 -0.3658933 9
4.0486751 -3.3065493 1.578064 13
4.2783136 3.1371522 0.56775415 13
4.2496529 3.5685291 0.48299202 12.5
4.3153872 3.8767772 0.39805099 12
4.3447704 4.2706156 0.57138759 13
4.3914928 5.190906 0.38725936 12
4.3986888 5.4586883 0.28393123 11.5
4.3628554 5.693409 0.17751518 11
4.3814521 6.4563541 0.018687174 11
4.2190113 6.507565 0.075866014 10.5
4.3109908 3.2609534 0.81696683 14
4.3516622 4.4613681 0.79260945 13.666667
4.348536 4.8203526 0.74724072 13.5
4.3989258 5.705955 0.38223815 12
4.1272292 6.6297684 0.46471336 12.5
4.2969503 4.2731261 1.1765587 15
4.3576431 5.1946011 0.88935548 14
4.3989034 5.496244 0.91014105 14
4.0395584 5.9405208 1.0134517 14.5
4.1507301 6.6813326 0.88962644 13.666667
4.131506 6.7107291 1.1787728 15
4.7246203 -2.9138749 0.25867546 6
4.709147 -2.6117139 0.33348483 7
4.7306733 -2.2486148 0.23180877 6.5
4.5489788 -1.2716144 0.16700339 7
4.5370822 -1.1355534 0.13029067 7
4.7699513 -0.67537671 0.064169131 7
4.5448356 -0.18615481 -0.033109851 7
4.6320105 0.02790672 -0.049469054 7
4.4787164 1.3104174 -0.28262958 7
4.6622734 -2.5407023 0.47497961 8
4.7092104 -2.2493002 0.36213249 7
4.729537 -1.2300905 0.24634573 7.5
4.7281284 -1.1159446 0.23173432 7
4.6156111 -0.50727707 0.12816676 7.3333335
4.5337195 -0.3681612 0.097395241 7
4.6980357 3.6496089 -0.34621111 8
4.4557629 5.8763943 -0.66780716 8
4.4271932 6.3560987 -0.57581902 8
4.6823707 -2.5369275 0.88416207 10
4.4614472 5.4095321 -0.39900383 9
4.4703102 6.400876 -0.30770192 9.5
4.4873676 3.8498054 0.40473318 12
4.4197817 5.643466 0.071817316 11
4.4667172 6.3458977 0.10403141 10.666667
4.4390116 4.4295235 0.93616831 14
4.4042401 4.7878594 0.68533456 13
4.4739556 5.6231246 0.72259486 13
4.4972744 6.1190186 0.3819657 12
4.4927382 5.2898951 0.93973798 14
4.4559155 5.4990664 0.94205803 14
4.536118 6.7585263 1.4219348 15
4.814065 -3.651042 0.48579311 7
4.830934 -2.5399673 0.25346422 6
5.1653194 -2.0738168 0.22616245 6.5
5.0860696 -1.8052583 0.1181165 6.3333335
4.9682288 -0.95859134 0.12133531 7
4.9057221 -0.3478983 0.044706862 7
4.900372 0.49699035 -0.16702993 6.6666665
4.8249569 -2.5583885 0.38501614 7
5.0443583 -2.1081395 0.45909601 7.5
5.130528 -1.7566285 0.45275021 8.25
5.1223888 -1.3451654 0.41521597 8.1999998
5.0401406 -1.1040217 0.23831378 7.6666665
5.0146008 -0.55720913 0.23543946 8
5.1595163 -2.069777 0.88879985 10
5.11376 -1.6468558 0.84198731 10.2
5.1859164 -1.3115004 0.80019385 10.142858
5.145134 -0.8917107 0.74782991 10.5
5.0419888 -3.562747 1.67826 12
5.1244159 -2.2843437 1.1637521 11
5.1623082 -1.8855375 1.3544573 12.5
5.1280785 -1.6188276 1.2258289 12.166667
5.1852341 -1.2844689 1.0800462 11.666667
5.1984744 -0.97980231 1.0211732 12
5.1753826 -3.792702 1.9810883 13
4.9726434 -3.4263015 1.8131185 13
5.0630026 -3.1458406 1.8075804 13.5
5.0795126 -2.7807 1.7868385 13.666667
5.1100225 -2.3659172 1.7627699 14
5.1354175 -1.9749116 1.6993593 14
5.1582875 -1.5711429 1.6585152 14.5
5.1834617 -1.2302219 1.5843683 14.2
5.1985955 -0.9924922 1.4736861 14
5.0794911 -3.826921 2.4482229 15
5.0100632 -3.489063 2.2893243 14.666667
5.0650058 -3.1381607 2.2213991 15
5.0935702 -2.7264831 2.1098952 15
5.1876154 -1.0817924 1.7942386 15
5.2373791 -0.71628141 -0.064412802 6
5.2648463 -0.19085844 0.018309947 7
5.3109303 0.26063588 -0.14280155 6.5
5.2127109 -0.93448889 0.37111139 8.166667
5.2288594 -0.56770366 0.2944293 8.5
5.2626119 -0.14511803 0.2236419 8.1999998
5.2370443 0.21626748 0.17139088 8
5.2485342 0.58878291 0.11999221 8
5.5149121 2.3070457 -0.12180053 8
5.4075403 2.4568393 -0.11634117 8
5.4682651 3.3402359 -0.18542726 8
5.5466003 4.4395995 -0.49698621 8
5.2046781 -1.2775807 0.86821854 10.5
5.209641 -0.92890376 0.75988775 10.4
5.2331734 -0.52559155 0.67575651 10.166667
5.2579489 -0.12234901 0.62747329 10.4
5.2272973 0.26233062 0.63238257 10.666667
5.2385306 0.57786435 0.48186943 10
5.574666 3.1456671 0.038417179 9
5.5157752 3.2845395 0.011646431 9
5.4286923 4.3882141 -0.036379926 10
5.4282684 4.5268431 -0.1743703 9.333333
5.2106385 -1.1971072 1.3532062 13
5.2161241 -0.84842741 1.1515989 12.5
5.2376976 -0.43943316 1.0806437 12.5
5.2640853 -0.049962845 0.99850541 12.5
5.2347665 0.33089235 0.94729757 12.5
5.2286415 0.65744644 0.8599357 12
5.5615373 6.5277009 0.10340457 10.5
5.2093754 -0.75978392 1.5428128 14.5
5.2393155 -0.37017021 1.4537965 14.2
5.2628655 -0.0013283978 1.3870345 14.5
5.2285762 0.42306435 1.3104258 14.5
5.2467856 0.78075856 1.2810912 14.5
5.5648484 6.6509814 0.81031024 13
5.7304659 2.6294403 -0.30104211 7.3333335
5.8155651 3.0256629 0.038106948 9
5.7080336 3.5881183 0.016325701 9
5.7350049 3.7174609 0.11983555 9.666667
5.6133437 6.4265943 -0.26499677 9
5.6614509 6.4556246 0.012800802 10.5
6.276648 2.619946 -0.21659154 7.5
6.2408805 2.9576821 -0.3973386 7
6.2821503 6.3304477 -0.65273494 8
6.342041 2.660078 0.15718415 9.5
6.3187137 4.418098 -0.050479375 9
6.3322706 6.3691125 -0.35169142 9
6.353457 6.4431105 0.070444375 10
6.3030777 6.4874239 0.35535979 11
6.1350079 6.6530929 1.3462712 14
6.1859922 6.5492172 1.5926734 15
6.564127 2.6753395 -0.45127675 7
6.4052238 2.8397372 -0.59075224 6
6.5801091 2.5652821 -0.19419135 8
6.5536156 6.2952271 -0.67036855 8
6.4542427 2.5630217 0.27008185 10
6.4670219 2.9500401 0.10973588 9.5
6.5972395 6.3327932 -0.35478777 9
6.705431 6.4118252 0.071185 10
6.6055617 6.4486251 0.40934029 11
7.0879588 2.5426109 -0.64390123 6
6.9873757 2.1429143 -0.30798018 7
7.0703068 2.7247715 0.020392997 9
7.02209 6.1920471 -0.45913017 8
6.9688821 6.3804913 -0.0060739708 10
6.922606 6.4880137 0.45118386 11
7.1005874 6.1661787 1.312205 14
7.0013456 6.5185523 1.1772636 13.333333
7.444241 3.952507 -0.3252655 8
7.4273949 4.1420774 -0.34417632 7.75
7.4318643 4.5090132 0.19978775 10
7.2334566 6.1631699 0.87508321 12
7.2076845 4.9908466 1.6132696 15
7.3140693 6.1644063 1.2536641 13.5
7.2977405 6.3045268 1.4394251 14
7.5748944 3.9271331 1.9802378 15
7.2678256 6.3099556 1.7113878 15
8.3316717 3.0705218 0.26567626 9
8.6542749 2.9211762 -0.65370172 6
8.6185398 3.2186208 -0.60576755 6.5
8.5716228 2.8928185 -0.23724966 7.25
8.6280041 4.2742624 -0.35740745 8
8.5534954 4.3576899 -0.62075204 7
8.4813747 2.983129 0.079438329 8.333333
8.6514177 6.3619242 0.17196615 10
8.7125731 6.4205432 0.526483 11
8.7506762 2.3425281 2.3831408 15
9.1778011 4.7916665 -0.82883674 7
9.181097 2.4453533 0.11036437 8
8.9373293 6.2547498 0.17579401 10
8.9394455 5.8806906 0.4853029 11
8.9344673 6.3204598 0.45811129 11
9.117528 4.8200741 1.5722988 13
8.9419985 4.1076112 1.8168343 14
9.0808725 4.5362239 1.8561404 14
9.4651051 2.7063882 -0.61809909 6
9.4091539 2.7978694 -0.71360642 6
9.5270023 6.117538 -0.5469256 8
9.4964113 2.755928 0.28387693 9
9.4430723 2.9457018 0.28973132 9
9.2970514 4.7221503 0.22240703 10
9.4773684 6.2993603 0.17741011 10
9.4685307 6.3681426 0.53567392 11
9.4716787 6.4207306 0.88737196 12
9.4338388 4.5845475 1.60262 13
9.5788202 6.4244623 1.358411 13
9.250927 4.007422 1.8574785 14
9.2968397 6.3428435 1.6588328 14
9.9358854 2.2399545 -0.025334271 8
9.6590118 2.342016 0.11402719 8
9.7677555 2.5627604 0.30705687 9
9.8584824 6.305191 0.55026931 11
9.7391558 6.3676624 0.96726125 12
9.6941166 4.3138628 1.6259131 13
9.6657982 6.2815895 1.6983978 14
9.9738693 6.4450889 1.4667652 13
9.987833 4.8623977 2.492213 15
10.23049 1.8855259 -0.35790473 7
10.186689 2.1253922 -0.36742234 7
10.229891 2.4508379 -0.61138326 6
10.004675 2.0566826 -0.21443833 7
10.080211 1.9450437 0.22523892 8.5
10.308456 6.2366681 0.65603137 11
10.223147 6.3455653 0.99722111 11.5
10.005901 3.9935381 1.811601 13
10.122857 6.4523816 1.4084982 13
10.360817 3.8689454 1.8759032 13
10.136799 6.2636409 1.751757 13
10.221057 4.5267606 2.517283 15
10.502767 2.1022549 -0.031768128 8
10.441331 6.2526994 0.18337801 10
10.802428 6.2292662 0.58305001 10
10.773594 6.2918859 0.97149867 11
10.721089 4.3300166 1.4790951 12
10.68968 6.3522282 1.0909271 12
10.789323 4.3900065 2.1046727 14
10.701259 6.2110524 1.7665155 13
10.651006 2.5770626 2.8253217 15
10.583331 4.2378416 2.5720518 15
10.543956 6.3054452 2.1606429 14
10.914296 2.6140833 0.29829508 9
10.890953 4.1399579 1.5582429 12
11.129778 6.1988497 1.8642492 13
11.199862 6.4221249 1.5060177 12
10.930741 2.246269 2.8827572 15
10.947965 3.785845 2.6262577 15
10.805163 4.0285215 2.6066909 15
10.997931 6.2547684 2.2239017 14
11.348412 6.202333 0.60261774 10
11.24765 5.632349 0.97876078 11
11.286576 6.2583365 1.004262 11
11.397682 4.9140573 1.8241149 13
11.251817 3.5909948 2.6804848 15
11.497833 6.16851 2.1390607 13.5
11.258991 2.510576 2.9739943 15
11.938254 2.5614567 0.30740747 9
11.914386 6.1653867 0.62245196 10
11.859565 6.2318425 1.0408157 11
11.884157 2.9643161 2.2241707 13
11.91252 3.3903968 2.2405722 13
11.954051 3.7477248 2.1755607 13
11.993148 4.1717796 2.1362433 13
11.989787 5.0024381 1.9285611 13
11.737831 6.3679981 1.5553393 12
11.842725 2.261622 2.7765121 14
11.870984 2.5649486 2.7852514 14
11.844227 2.8569989 2.782311 14
11.935009 3.9641724 2.2619581 13
11.982273 4.2707267 2.2796068 14
12.079221 2.8052225 -0.50857329 7
12.288692 2.0090003 -0.021790199 8
12.335819 2.1126795 0.11342344 8
12.319432 2.0904527 2.2728333 13
12.080214 3.0372968 2.2101176 13
12.025536 4.7032194 1.9256921 13
12.106524 5.8821507 1.9095763 13
12.268682 6.1552963 1.6589987 12
12.004536 4.5752492 2.2953184 14
12.565373 6.142499 0.64687836 10
12.499629 6.2470069 1.2132647 11
12.802712 6.1927233 1.6538097 12
13.204613 6.2097874 1.264074 11
13.417138 6.0167665 0.20686832 9
13.257347 6.1025567 0.6707558 10
13.216404 6.0962834 0.88001698 11
13.385767 4.4666257 1.6916151 12
13.301605 6.0514989 1.6995125 12
13.954578 6.1505919 1.3174682 11
14.113153 6.0985041 1.7239865 12
14.703503 2.6882267 0.78626209 9
14.761097 3.3971059 0.77394766 9
14.796704 4.1219983 0.76120389 10
14.725158 2.8925414 1.2978843 10.333333
14.740127 3.2660499 1.2506973 10
14.772486 3.6677017 1.325284 10.5
14.788714 3.9661579 1.2466272 10
14.694973 2.8817754 1.8323851 11
14.749288 3.2529464 1.8352674 11
14.639508 6.0994196 1.2226093 11
14.873243 4.925303 0.28614199 9
14.831022 4.5009384 0.75487781 10
14.845338 4.8758955 0.7486667 10
15.106732 5.343884 0.7498486 10
14.892988 5.652813 0.73650384 10
14.817021 4.3292718 1.2467363 11
14.836637 5.0584207 1.2428851 11
15.091744 2.5955541 1.877066 11
14.995633 5.6221509 1.3220227 11
14.853574 6.1226144 1.3829702 11
15.440069 5.507163 1.4295516 11
15.959814 2.8060246 1.5139292 10
15.903158 4.4096694 1.4772907 11
15.676791 5.1704149 1.4506493 11
16.268608 4.9341464 1.4989102 11
16.676556 2.0594544 -0.64277816 6
16.507023 2.4601088 -0.18846008 7
16.637089 2.3465793 0.34878761 8
16.493475 5.8278971 1.8886601 12
16.781746 2.9427922 2.5943482 12
17.035116 2.5619524 -0.17939501 7
17.15045 2.9766941 -0.22773637 7
16.844084 4.120337 2.0490804 11
16.903446 4.5535898 2.0542724 11
16.970829 5.0019116 2.0620527 12
16.815493 3.2598498 2.5196812 12
16.834423 3.7463181 2.5859606 12
16.869173 4.0644593 2.5327718 12
16.841515 4.4646878 2.5348892 12
16.940378 4.2635384 2.6453731 12
16.847864 4.8749943 2.5407231 12
17.229538 4.288434 -0.28948274 8
17.265577 2.7456028 0.87792587 9
17.253677 2.605866 1.624009 10
17.254642 2.631356 1.4212399 10
17.222734 2.5438247 1.9898429 11
