# .PCD v0.7 - Point Cloud Data file format
VERSION 0.7
FIELDS x y z intensity
SIZE 4 4 4 4
TYPE F F F F
COUNT 1 1 1 1
WIDTH 118
HEIGHT 1
VIEWPOINT 0 0 0 1 0 0 0
POINTS 118
DATA ascii
-3.2625539 -0.82249463 0.26675674 8
-3.2184083 2.1406677 0.016243514 10
-3.2022693 2.2536163 -0.045619819 9
-3.2063744 2.7082744 -0.034194101 10
-3.2089097 2.8338263 -0.22461258 9
-3.2159085 1.3037665 0.26705885 11
-3.2018938 2.1741271 0.20425074 11
-3.2214761 1.3762621 0.48469025 13
-3.2130935 1.2018297 0.73783475 15
-3.2089002 1.4987434 0.64262104 14
-3.2088556 3.0366135 0.52488482 14
-3.1989429 1.9088106 -0.15086496 8
-3.1999164 2.6931505 -0.21276495 8
-3.0458088 -0.5660578 0.74180883 13
-3.1932528 1.8724461 0.36469895 12
-3.1905487 1.8973726 0.47891966 13
-3.1769073 3.1147571 0.14806804 11
-3.1657636 3.9444618 0.037616741 11
-3.182106 4.0043802 0.55983102 14
-2.8791385 3.9061713 -0.20448203 9
-2.9439805 -2.2086008 1.3086549 14
-2.9422493 -2.2030053 1.4135295 15
-2.8115838 4.1136489 0.74014241 15
-2.6249242 -2.3860257 1.2985407 14
-2.6145945 -2.657578 1.5790323 15
-2.2106316 -0.79337668 0.29646575 9
-2.2489288 -0.99804807 0.42645386 10
-2.2141109 -0.73903567 0.48070455 11
-2.3777242 -0.74323452 0.32934085 10
-2.2439058 -2.9522867 1.3289251 13
-2.1097386 -2.1816323 0.42934507 8
-2.0969715 -2.0127826 0.50964254 9
-2.093734 -1.7873409 0.40186661 8
-2.0577295 -1.0386306 0.35128799 9
-2.0992985 -2.0093985 0.63759619 10
-2.0809474 -1.5768238 0.47173101 10
-2.0501075 -1.0056118 0.49726284 11
-2.1128018 3.8767929 -0.33359343 9
-2.0934916 -1.8630507 0.70363808 11
-2.1638317 -1.4661485 0.81092894 13
-2.0663834 -1.2944354 0.62418723 12
-2.0515175 -1.0230848 0.65895301 13
-1.956549 -2.4343216 0.76358759 10
-1.9421345 3.8752766 -0.2030282 10
-1.9816102 -2.4674497 0.78967333 11
-1.8630414 4.0016761 0.53628123 15
-1.6965537 -2.5566022 1.165677 14
-1.6312127 3.9696312 0.21378101 13
-1.461781 -2.5433862 0.47041428 8
-1.6004128 3.8940237 -0.094732933 11
-1.5672805 -2.8623271 1.4706573 15
-1.416688 4.000988 0.39836428 14
-1.233003 3.8636205 -0.25284597 9
-1.0918041 0.9541955 0.25145039 15
-1.1762859 -2.4463153 1.0541639 14
-0.98781002 -2.5519259 0.48292556 8
-0.97672707 1.0360355 0.21592082 15
-0.96055812 1.579875 0.11427756 13
-0.84917331 -2.462759 1.011538 13
0.10567156 -1.0298526 -0.0059273234 2
0.08056435 3.8565998 -0.081146754 11
0.28174931 3.8341796 -0.15190649 10
0.29713595 3.8733492 0.085931726 12
0.3246108 3.9093404 0.28938937 13.5
0.26222023 3.9275446 0.44119602 15
0.49902293 -2.5679755 0.5513159 8.5
0.49400851 -2.5366237 0.75084692 10.5
0.5016098 -2.5158057 0.90574479 12.5
0.50275558 -2.5255373 1.0451633 14
0.73241949 -1.407264 0.71225691 15
0.88746381 -1.2321293 0.68363845 15
1.0006808 0.2298921 -0.20389357 2
1.0572388 -3.2541721 0.51221943 7
1.0909462 -2.9457498 0.60679901 8
1.0830861 -1.3911928 0.4504483 11
1.1672074 -3.2573085 0.91684657 10
1.0805402 -1.141281 0.6479997 15
1.1502448 6.7248616 -0.53390807 9
1.3276045 -0.10780214 -0.14827457 3
1.2560979 0.2168714 -0.19931686 3
1.2642974 -1.1653794 0.35312071 10
1.3264214 -1.1037199 0.69236797 15
1.4062265 -2.887569 0.4935455 7
1.5334431 -1.1588928 0.6877839 14
1.4484673 6.9028845 0.54339278 14
1.6441448 0.0208505 -0.14854594 4
1.637863 -2.8846664 0.63612223 9
1.7381743 -1.1806465 0.40288413 10
1.6748762 -3.2258554 1.0451427 11
1.7703885 -1.061294 0.70305616 14
1.9882889 -1.2500377 0.36287621 9
1.7993828 -3.0818756 0.83740759 10
2.1538341 -3.2516105 0.67202878 8
2.1924455 -1.7522848 0.33458164 8
2.5729129 6.8351498 0.37448704 13
2.6159539 -1.1426436 0.48787639 10
2.8840101 6.7889605 0.33984351 12
2.8650348 6.8763256 1.1082562 15
3.2624331 -0.93234158 0.28720823 8
3.5167298 -1.2078384 0.18923527 7
3.4981828 6.6730719 -0.50311518 9
3.924933 4.8737063 0.8884185 14
4.9661012 0.55944401 -0.069736421 7
4.8964477 0.33157873 0.20104885 8
4.9044333 0.68020386 0.18412009 9
4.9047132 0.42029402 0.48319814 10
4.8973598 0.4040654 0.62281758 11
4.931181 -1.0946416 1.1825598 13
4.9497313 -0.69368672 0.94073325 12
4.8970032 0.51566035 0.75507289 12
4.9079442 0.96870446 0.74858183 12
4.918191 0.57845521 1.0691618 13.5
4.8803048 -2.3188758 1.6056052 13
4.8994198 -1.8032655 1.5269496 14
4.9231834 -1.1351863 1.5761598 15
4.8989458 1.0524666 1.1344178 14.5
5.0193806 -0.94916552 0.74537408 10
11.470289 3.5297494 2.4136298 14
