# .PCD v0.7 - Point Cloud Data file format
VERSION 0.7
FIELDS x y z intensity
SIZE 4 4 4 4
TYPE F F F F
COUNT 1 1 1 1
WIDTH 647
HEIGHT 1
VIEWPOINT 0 0 0 1 0 0 0
POINTS 647
DATA ascii
-3.2537408 -0.85118622 0.34193125 9
-3.2550104 -0.73451406 0.43986508 10
-3.240309 1.4239163 0.024071792 9.166667
-3.2257297 1.7810551 -0.035615239 9
-3.2189004 2.1514802 -0.11837408 8.5
-3.2095106 2.5569773 -0.12787594 8.8000002
-3.2103643 2.8409216 -0.046754397 10
-3.2706521 -0.82662511 0.69738156 11.75
-3.2612367 -0.71850902 0.52735275 11
-3.2354209 1.5076231 0.36578822 12
-3.2269075 1.864298 0.28134289 11.571428
-3.2208965 2.2597594 0.18884379 11
-3.2124374 2.6480265 0.1902861 11.2
-3.2063515 2.9891143 0.19965947 11.333333
-3.2030933 3.34288 0.206223 12
-3.2713683 -0.84929419 1.1101493 15
-3.2288346 1.2174394 0.73350745 14.75
-3.2294304 1.4836602 0.68794507 14.5
-3.2323442 1.9398047 0.55904579 13.666667
-3.2261019 2.3057761 0.53854424 13.5
-3.2198765 2.7082717 0.55461884 13.666667
-3.2099669 3.0915117 0.56477541 14
-3.2029274 3.332092 0.53378594 14
-3.0269632 -0.62720376 0.3492195 9.333333
-3.1899335 2.2301438 -0.17586125 8
-3.1907587 2.6487126 -0.17369664 8.5
-3.1803927 3.407711 -0.30115515 8.5
-3.0318944 3.796133 -0.34206021 8.5
-2.8847699 -2.3204484 1.0374768 12
-2.9147305 -2.1387796 1.0101626 12
-3.0478282 -1.288606 0.79658085 12
-2.872283 -0.89746213 0.78637809 12.666667
-3.0213728 -0.62383348 0.70549512 12.333333
-3.1950169 1.8853953 0.40193969 12.333333
-3.1823001 2.278415 0.3568193 12
-3.1812487 2.7183173 0.25882402 11.5
-3.1856956 3.0653026 0.19893593 11.666667
-3.1827435 3.493042 0.033130333 10.8
-2.9920268 3.9169481 0.044590514 10.833333
-2.850929 -2.2897801 1.326475 14.25
-2.9136267 -2.0308344 1.2889665 14.333333
-2.8813963 -1.6962365 1.2422289 14.666667
-2.8336649 -1.1503593 1.0374358 14.5
-2.8835957 -0.91274697 0.98599046 14.666667
-2.9867218 -0.49737802 0.96473932 15
-3.193697 1.6689497 0.74789292 15
-3.1828692 1.9949253 0.66370744 14.333333
-3.1742344 2.2980185 0.65634525 14.333333
-3.1706765 2.7437012 0.47398362 13
-3.1707771 3.5147002 0.51185155 13.5
-3.0807569 3.9084339 0.45089507 13.166667
-3.1129768 3.6639194 0.72726613 15
-3.0636659 4.0049038 0.77924514 15
-2.5561581 -0.71525884 0.43198726 10.25
-2.6450348 3.8912592 -0.30926812 8.666667
-2.6379788 -2.4240503 1.0284002 12
-2.5461333 -0.98741883 0.76653075 13.333333
-2.5728285 -0.69422626 0.56280148 12
-2.6049702 3.9409115 0.032474227 11
-2.6053362 -2.695981 1.4803129 15
-2.5829589 -2.4015965 1.329491 14.125
-2.5683355 4.0184846 0.55149525 14
-2.5990536 4.1022968 0.729568 15
-2.1869516 -2.4994068 0.63134402 9
-2.1042173 -2.0926359 0.53283912 9.1999998
-2.091445 -1.7605482 0.50875133 9.3999996
-2.0704641 -1.322348 0.48207286 10.285714
-2.1898749 -0.94140399 0.40656149 10
-2.2937224 -0.72741443 0.42582065 10.5
-2.1390195 3.8828645 -0.24881828 9.333333
-2.2116771 -2.4553809 0.9128558 11.333333
-2.0973904 -2.0482452 0.77413696 11.5
-2.0849187 -1.6921314 0.712937 11.5
-2.1336741 -1.249874 0.78810674 13.625
-2.1986597 -0.97022057 0.67697525 13.111111
-2.3017735 -0.70641047 0.54239953 12.5
-2.2121625 3.9275012 0.00034221853 11
-2.2204366 -2.902411 1.4030707 14
-2.1957302 4.0087161 0.42979375 13.5
-2.2044592 4.0793242 0.6617403 15
-1.7791133 -2.5031359 0.63350427 9.3999996
-1.8183721 3.8647912 -0.30491287 9
-1.8466607 -2.6510296 1.2135551 14
-1.7629728 -2.481173 0.95903534 12
-1.8127881 3.9153922 -0.025438936 11
-1.8070662 -2.8474538 1.4343885 14.75
-1.8043114 3.9930127 0.42055976 13.8
-1.9591749 4.0443821 0.58560205 15
-1.4040064 -2.5239639 0.66866374 9.7333336
-1.2540306 0.95675027 0.14388484 12.5
-1.2271414 1.3795043 0.12696569 12.5
-1.4119626 3.8643088 -0.26883632 9
-1.4572058 -2.7075193 1.1701263 14
-1.3971286 -2.498419 0.97386438 12.5
-1.3921012 3.8999813 -0.037356853 11
-1.3886566 3.97686 0.41485524 14
-0.99803668 -2.5272236 0.68115377 9.8999996
-1.0431908 1.0291225 0.2021796 14.2
-1.0063177 1.4271096 0.11168247 12.5
-0.8880716 3.8620868 -0.2253956 10
-1.0243413 -2.4826264 0.98965108 13.2
-0.97180927 0.97923499 0.25189984 15
-1.017679 3.8918493 -0.038441461 11
-1.0062428 -2.9426312 1.4618361 15
-0.97355282 3.9630904 0.38566834 14
-0.40382117 -1.3931258 0.047130268 4
-0.43468547 -0.95244551 -0.03317178 2
-0.44341123 -0.64013392 -0.086616091 0.33333334
-0.62662655 0.26408479 -0.25009117 0
-0.61211413 -2.544992 0.61027765 9.25
-0.62712216 3.853312 -0.20466588 10
-0.60493147 -2.4792435 0.98017502 13.2
-0.5934006 3.8876014 0.00022103279 11.5
-0.61068332 3.9581132 0.38627839 14.142858
-0.19879451 -2.1689229 0.16775426 5
-0.17905223 -1.7847447 0.11394223 4.3333335
-0.2056759 -1.3566555 0.048304703 3.6666667
-0.1814397 -0.97716349 -0.020390261 2
-0.21167026 -0.68201017 -0.075506546 0.33333334
-0.18850133 -2.5479035 0.61555189 9.3571424
-0.1555386 -2.490057 0.95157713 13.1
-0.22010645 3.8765941 0.012694854 11.5
-0.20719087 3.9513421 0.44507933 14.5
0.021215834 -1.3382477 0.04774534 4
0.097041138 -0.96713895 -0.018058075 2
0.15005125 -0.64199662 -0.067286126 0.2
0.17890862 -2.5403187 0.61903912 9.3076925
0.1742354 -2.4936557 0.91760355 12.636364
0.15644161 3.8667812 0.032656051 11.714286
0.37101397 4.3509955 -0.093343019 10.5
0.14458384 3.9339778 0.43696412 14.5
0.75774693 -0.13993974 -0.15432601 0.5
0.69852334 0.23429188 -0.20826927 0.66666669
0.64041477 0.52809662 -0.25591394 1.2857143
0.77732861 0.81476986 -0.31192636 2.5
0.71805763 -3.2081988 0.7267797 9
0.44099656 -2.5542898 0.62599295 9.5
0.74011254 -3.1770108 1.1441393 12.5
0.43389699 -2.5075192 0.94497782 13
0.72365201 -1.7761902 0.7759065 14
0.75874913 -1.4042163 0.71355391 15
0.4700141 4.3135686 -0.090806745 10.5
0.7708025 6.7507114 -0.36266229 10
0.7901985 -3.1739531 1.3062581 14
0.65786326 6.722681 0.0070605199 11.666667
0.73545808 6.8149247 0.42117742 13.333333
0.63640696 6.8345127 0.70108509 14.333333
0.95501935 -0.16996221 -0.14596111 1.8
0.95400435 0.19062215 -0.19947919 2
0.98290658 0.57618272 -0.25800151 2.75
0.98606139 0.98872715 -0.33080852 3.5
1.045953 1.2886478 -0.38416088 4
1.1485525 1.6026212 -0.43595013 4
1.0243177 1.9682293 -0.50127983 5
0.9626987 -3.2278073 0.73840266 9
1.0948381 -2.95751 0.5519293 7.75
0.92461514 -1.757288 0.65870357 12
1.0329404 -1.3163685 0.4568114 11.333333
0.9822194 -3.1676712 1.1305238 12.25
0.92684013 -1.7050951 0.74130398 13.666667
1.0264053 -1.2856673 0.67493194 14.6
1.1535172 -1.1110125 0.65515387 15
1.0356369 6.7532315 -0.39559096 9.5
0.98843229 -3.130533 1.3100299 14
1.0118639 6.8097982 -0.037577853 11.2
0.99504358 6.8841057 0.416177 13.25
0.99309236 6.9396024 0.73633516 14.5
1.5720218 -0.4325411 -0.079363018 4
1.3436753 -0.25140479 -0.12403127 3.5
1.3575554 0.21426809 -0.19577594 3.3333333
1.3938954 0.53675312 -0.23870428 3.8
1.4337341 0.97534907 -0.31297407 4.1999998
1.3748274 1.3502505 -0.37572658 4.75
1.3375775 1.7930739 -0.46348628 5
1.3458425 2.0191734 -0.50445223 5
1.5722232 2.4920146 -0.58943266 5
1.4040729 -3.2247396 0.77175111 9.1999998
1.4334576 -2.9502296 0.61708391 8.1428576
1.2807443 -1.5343469 0.59394073 12
1.2467353 -1.2966056 0.41207135 10.333333
1.3738875 -3.1767261 1.1242095 11.666667
1.3881377 -1.1748704 0.68419093 14.4
1.2144756 -1.1054573 0.67112875 15
1.4081211 6.7434268 -0.42098483 9.333333
1.3563312 -3.1510968 1.351449 14
1.4007339 6.7973285 -0.076813318 11
1.3428153 6.8761172 0.40858498 13.25
1.3971823 6.9281392 0.75126958 14.5
1.8123891 -0.51413703 -0.060975671 5
1.6231189 -0.20795332 -0.11462677 4
1.6843868 0.17656204 -0.17308584 4.5
1.7868112 0.55693823 -0.22524127 5
1.8844692 1.0762559 -0.33719727 5
1.7044032 1.3983575 -0.37727278 5
1.8563392 1.7748147 -0.43204647 5
1.7168647 2.0762596 -0.50360894 5
1.7160691 2.7940764 -0.64142466 5
1.8975821 3.1753066 -0.70694065 5
1.8807665 -3.2114952 0.82621467 9.666667
1.7076035 -2.9617035 0.59604007 8
1.8339571 -2.0003622 0.54178339 9
1.8796953 -1.7394866 0.43140104 9
1.7517928 -1.2500751 0.43289769 10.1
1.7998933 -1.1309475 0.50990295 11.5
1.7873439 -3.2173247 0.99210668 10.333333
1.7269043 -1.1258782 0.68477094 13.75
1.8017919 -1.0697275 0.74157292 14.5
1.8010775 6.7400837 -0.3868458 9.5
1.6514806 -3.1834083 1.3933347 14
1.7735438 6.8081589 -0.0025209058 11
1.7945348 6.8600478 0.32424024 12.5
1.812012 6.9233055 0.76988119 14.5
1.8123052 6.9224906 0.99791938 15
2.1703262 0.71532041 -0.26256549 5
2.2165983 1.0080197 -0.3181048 5
2.0920432 1.4062825 -0.38506398 5
2.2205343 1.7144831 -0.43198934 5
2.0212541 1.9738405 -0.46512228 5
2.156172 2.7620625 -0.61966139 5
2.1470478 -3.2540908 0.71099442 8.5
2.3966582 -1.9733267 0.65786421 10
2.1886947 -1.676618 0.36249718 8
2.1982355 -1.3954853 0.34450811 8.25
2.3367743 6.5579243 -0.70246077 8
2.2115328 -3.2129152 0.98353487 10
2.3868737 -1.9780054 0.76956528 11.5
2.2503414 -1.6785839 0.76245797 12
2.1072628 -1.1633959 0.7594471 14
2.187129 6.7366028 -0.37373215 9.5
2.1395404 6.7974319 -4.9870563e-05 11
2.2263548 6.8445692 0.34726247 12.5
2.1937201 6.9111848 0.78753233 14.5
2.3301775 6.9053011 1.0498621 15
2.5379212 -0.57522058 -0.060040262 5
2.750823 -0.22795156 -0.11400261 5
2.7037666 0.19064306 -0.17947181 5
2.6077452 0.59457886 -0.2386335 5
2.5241873 0.86084259 -0.28516933 5
2.549305 1.3755406 -0.3803505 5
2.4161911 1.8993274 -0.46001682 5
2.6718841 2.1401312 -0.49843216 6
2.4389462 2.4805434 -0.54372603 6
2.7323985 2.8367121 -0.59858698 6
2.4135597 3.164669 -0.68636668 6
2.7572033 3.7021096 -0.7755658 6
2.5576069 -3.1976857 0.75801474 8.75
2.6322572 -3.1207345 0.69428271 8.5
2.5794873 -1.9979497 0.59588826 9.5
2.566206 -1.2408596 0.4352484 9.4444447
2.4719861 -3.1942828 1.0010729 10
2.5500486 -1.995231 0.76773781 11.333333
2.7936368 -1.1423652 0.61239433 11
2.5894148 6.716855 -0.40225282 9.5
2.6346931 -3.0621321 1.4992568 14
2.606647 6.7713389 -0.065701142 10.8
2.5757554 6.8397093 0.38709557 12.5
2.6097944 6.9055543 0.80842584 14.5
2.6850824 6.8926349 1.0882258 15
2.9800022 1.0497835 -0.30851325 6
3.1250806 1.5179473 -0.39675489 6
3.0699141 1.9425896 -0.47439682 6
2.9832904 -3.2145805 0.75309527 8.666667
2.9389603 -2.0648746 0.35020408 7
2.803462 -1.6635773 0.32309863 8
2.9846594 -1.2997736 0.36912984 8.5
3.1852179 -1.0502697 0.37910375 9
3.0215185 6.6605277 -0.63448131 9
2.9242008 -3.2480204 0.92102164 10
2.9671693 -1.1472011 0.66553485 11.5
3.0060296 6.7059388 -0.39693606 9.5
2.9515247 -3.1427011 1.5708679 14
3.1747439 6.0873055 0.09847343 11
3.0645318 6.7672133 0.0065196641 11
2.9843087 6.8223882 0.31869262 12.25
2.9876797 6.8961716 0.7760942 14.2
3.5209029 -1.2321196 0.12303843 6
3.4451716 2.867846 -0.61588401 6
3.3703527 -3.2243702 0.74294716 8.3999996
3.4128528 -2.0247314 0.58617967 9
3.4154568 -1.1912214 0.29480296 7.6666665
3.2948267 -1.0140219 0.33436614 8.5
3.3810873 6.6541576 -0.66060948 8
3.4003267 -1.8319933 0.77966118 11
3.4809794 -1.1182089 0.67335993 11
3.2207108 6.0973201 -0.2809757 10
3.356566 6.6767778 -0.45791069 9.333333
3.3416989 6.777791 0.071237341 11
3.417104 6.0234938 0.54979444 13
3.4280372 6.233582 0.3662695 12
3.4350367 6.8202887 0.32817224 12
3.4816444 5.9779921 0.73287582 14
3.3473074 6.8793097 0.77327251 13.833333
3.345881 6.8749456 1.1690683 15
3.6559415 -3.2775342 0.43761766 7
3.7076421 -0.3093802 -0.096142985 6
3.8330605 0.93637222 -0.27640992 6
3.9932041 2.0058339 -0.46984908 6
3.7088745 4.0198879 -0.78506172 6
3.7457027 -3.2420058 0.72479981 8.333333
3.8945222 5.2718768 -0.5441401 8
3.9195569 5.5769138 -0.57754225 8
3.7624717 6.5466938 -0.67321193 8
3.8049641 3.8751991 0.079230152 10.2
3.9022527 4.6619172 -0.0069143386 10
3.8652971 5.5877914 -0.084762804 10
3.8503153 5.8451238 -0.10862797 10
3.7981806 6.5818906 -0.39803872 9.5
3.6575663 -3.1751122 1.5577748 13
3.9332328 3.2289789 0.48652914 13
3.8306055 3.5008655 0.42041674 12.5
3.87837 3.9661694 0.38470757 12.25
3.8973668 4.6953616 0.43618914 12.5
3.8062444 5.0507979 0.3627404 12
3.8911788 5.4250717 0.36414069 12
3.8251569 5.9044752 0.066291727 10.833333
3.7491951 6.6494975 -0.016379172 10.5
3.8851957 4.7488523 0.64670026 13.5
3.8230705 5.0169015 0.62910116 13.5
3.9109113 5.5664363 0.45990631 12.5
3.86361 5.8752484 0.36165178 12
3.802515 6.7006531 0.34488496 12
3.8957462 5.5530844 0.91709441 14
3.7194166 6.7944446 0.96515977 14
3.6280186 6.1498389 1.1631182 15
3.7383881 6.8020973 1.2371067 15
4.3172245 -0.9202472 0.075615227 6.5
4.0522041 -0.79177618 0.052376177 6
4.2219548 -0.24336465 0.038919158 7
4.3482122 0.12070644 -0.12518792 6
4.2231212 1.5638915 -0.37663862 6
4.0615087 2.6653452 -0.59443444 6
4.0345998 3.4232545 -0.70370531 6
4.3260832 6.1827359 -1.1393918 6
4.2719069 -0.31024775 0.16015886 7.5
4.2010636 6.2918196 -0.61697608 8
4.3103404 5.0682926 -0.26927844 9
4.1703863 6.3754101 -0.39751777 9
4.1809106 6.4379201 -0.32624817 9
4.0064197 4.0531139 0.35941732 12
3.9980078 5.4563327 0.42938167 12
4.5250387 -2.6218138 0.3578358 7
4.4906874 -2.152422 0.26884261 6.6666665
4.6012368 -1.9600474 0.23729615 6.5
4.6163659 -1.0063636 0.12410764 7
4.5170245 -0.58169919 0.034257386 7
4.7290521 -0.38935924 0.011198729 7
4.5989418 0.65333396 -0.20997298 6
4.7462506 2.4274354 -0.53851873 6
4.4809012 -2.5039029 0.5998832 8
4.5513291 -1.9093664 0.52410209 8.333333
4.6126738 -1.0332441 0.20106417 7
4.4284625 -0.42044133 0.24363199 8
4.4822402 -2.4643152 0.85645998 9.666667
4.6434894 -1.8749537 0.72027487 9
4.7867265 -3.2819517 1.5032878 12
4.9060121 -1.7577703 0.18161501 6.5
4.9150662 -1.4659501 0.12511098 6.5
4.881999 -0.84338516 0.061668284 6.5
4.960927 -0.60286045 0.03979075 6.5
4.9390717 -0.059135117 -0.017590515 7
4.9653273 0.18063597 -0.035745472 7
4.973527 0.56272072 -0.23692825 6
5.187326 1.313001 -0.32326323 6
5.0241795 1.8938414 -0.4256711 6
4.8932395 -1.736006 0.61359179 9
4.9312911 -1.3302966 0.41476095 8
4.9366608 -0.93747848 0.39622766 8.3999996
4.9523335 -0.60243851 0.30694112 8.1999998
4.9242601 -0.16260731 0.20888208 8
4.9580908 0.20282046 0.16741759 8
4.9130635 0.58860368 0.092367887 8
4.9112291 0.86442477 0.056002915 8
5.0498557 3.4554892 -0.26056471 8.25
5.0546403 3.7129517 -0.22593261 8.666667
4.9462309 4.7333059 -0.39341879 8
4.8621888 -1.6432668 0.82346028 10.5
4.9238825 -1.2811599 0.81354439 10.5
4.9423399 -0.88225442 0.74733579 10.5
4.9559321 -0.5260452 0.66458315 10.285714
4.9660053 -0.095111087 0.59807354 10.5
4.9496975 0.31943727 0.57782304 10.5
4.907671 0.65736014 0.51026976 10.2
4.9140444 0.93695575 0.58125275 11
5.0047874 3.836247 -0.16091077 9
4.9762702 4.750607 -0.08325161 9.666667
4.891674 4.8810263 -0.18499424 9
4.9706383 6.6471434 -0.41641262 9
4.8945603 -3.1064982 1.5570861 12
4.9102373 -2.7738717 1.5054047 12.4
4.9123321 -2.386338 1.4033779 12.4
4.9204092 -2.023962 1.3497571 12.4
4.9238448 -1.630967 1.3002696 12.5
4.9320493 -1.2125729 1.280992 12.8
4.9431276 -0.84177166 1.1379039 12.75
4.9673653 -0.38910639 1.0870523 12.857142
4.9567385 -0.073237337 1.0541699 12.8
4.9425139 0.37755486 0.95573741 12.6
4.9081416 0.78538746 0.90723962 13
4.9422746 6.7183652 -0.14826594 10
4.8979011 -3.625787 1.8495514 13
4.8440771 -3.172406 1.7508289 13
4.8624082 -2.6858463 1.7198611 13.333333
4.8791394 -2.3657112 1.771804 14
4.9066424 -1.969921 1.6469129 13.666667
4.923408 -1.558403 1.6180065 14.333333
4.9313564 -1.1424576 1.5415761 14.5
4.9494729 -0.79875815 1.4881893 14.6
4.9519453 -0.39035264 1.4251364 14.6
4.9600821 0.033865903 1.3697296 14.6
4.9550238 0.41697142 1.3020234 14.6
4.9081049 0.87546003 1.2795887 14.75
4.7996764 -3.2464886 2.3045788 15
5.0652966 6.8615355 1.4015596 15
5.304657 2.7014773 -0.42743954 7
5.316215 2.9699757 -0.27151313 8
5.2108765 3.2170963 -0.15517682 9
5.4889975 6.6154733 -0.81623888 8
5.3843584 3.8485253 0.0067377761 9.5
5.5243964 6.6335206 -0.58162802 8
5.542624 6.7321439 0.1064468 11
5.5880179 6.7412682 0.34339017 12
5.4860816 6.9692841 1.4789906 15
5.7547874 3.1081204 -0.50426048 7
5.8098116 3.320457 -0.52740532 7
5.9181309 2.958555 -0.13900541 8
5.7880502 6.5665994 -0.63719511 8
5.9273558 3.0065181 0.06349501 9
5.7506142 3.324615 0.03938533 9
5.9584684 5.0166945 -0.1118707 9
5.829565 6.6120396 -0.45003474 9
5.7799759 6.6802092 -0.027580308 10.333333
5.8699827 6.7667451 0.35624593 11
5.7365265 6.8866968 1.5064753 15
6.3872595 2.4882815 -0.38186833 7
6.0358472 2.8887138 -0.51303333 7
6.1332068 3.2415321 -0.54177815 7
6.0386739 2.8365419 -0.049966242 9
6.1013107 4.1208949 -0.38298732 8
6.0715938 2.8493185 0.176814 9.5
6.1078362 2.940629 0.27183563 10
6.3488297 6.6182404 -0.35786551 9
6.3540592 2.7543812 0.69922769 12
6.1372695 3.0081332 0.48972762 11
6.1229019 6.7299056 0.39017397 11
6.2758327 6.8081574 0.80462945 12.5
6.0139141 6.8398118 1.5538179 15
6.7761049 4.3070016 -0.70582658 7
6.7301021 4.3459711 -0.70727956 7
6.6487937 6.2081609 -0.33215347 9
6.5333276 6.3276153 0.44603318 11.5
6.5175362 6.4517417 0.94403553 13
6.6316133 4.4421687 1.6330546 15
6.5278668 6.4607158 1.2059089 14
6.7518406 5.2580023 1.6869541 15
6.5649257 6.7004523 1.5590018 15
6.9341478 4.2455497 -0.71832544 7
7.0105581 4.342319 -0.49331146 8
6.9645076 4.5052123 -0.48450252 8
7.1007857 5.2253337 1.7109789 15
6.8481498 6.5224934 1.6793911 15
7.4461641 5.2712245 1.5602012 14
7.4667373 4.2506466 1.7943432 15
7.9912348 3.6718788 -0.32174337 8
7.9353509 3.3742323 0.044189602 9
7.9884019 4.801187 -0.06927672 9
7.8768482 6.7054658 0.023277517 10
7.7009726 5.0951128 1.6469347 14
8.1804113 3.4344926 -0.76739293 6
8.0264359 4.8278327 -0.86856335 7
8.2848387 2.7796881 -0.10831253 8
8.1878338 3.1720991 -0.1320132 8
8.0441456 3.3714716 -0.3461346 7.5999999
8.1574478 4.5925117 -0.46543187 8
8.0686388 4.9104147 -0.56110245 8
8.1078157 6.5901194 0.043830261 10
8.0708351 5.0700388 1.7027719 14
8.7447014 6.2520113 -1.0646164 7
8.6561947 6.451777 -1.0746901 7
8.6618729 6.500196 -0.75664604 8
8.7365179 6.6670508 0.15586868 10
8.6877508 6.7202578 0.45309734 11
8.7128859 6.7847729 0.78814965 12
8.5105314 4.4714417 1.6653737 14
8.5309134 4.882369 1.6853646 14
8.5217791 4.5537195 1.7596401 14
8.7027483 5.2599921 1.7258955 14
8.416729 5.6555414 1.7066066 14
8.6418791 6.5358143 1.7865831 14
8.6672077 6.8551683 1.4410071 13
8.6129694 5.4171653 2.020457 15
8.8815489 2.7227621 0.010232091 8
9.1014595 3.0883837 0.021612896 8.333333
8.902523 3.4269409 -0.02585138 8
9.1705046 6.6702943 0.1618703 10
9.145669 6.7064567 0.48726049 11
9.1342545 6.7206793 0.8439545 12
9.0700369 5.0023727 1.4339848 13
8.9451551 6.7600589 1.4679908 13
8.9091454 6.5050464 1.8808753 14
9.5636988 2.5244424 -0.23087485 7.5
9.5964918 6.6455503 0.16881064 10
9.5867004 6.6981058 0.47616711 11
9.3715019 4.7717614 1.4631698 13
9.4808931 6.7752013 1.1786705 12
9.2797604 4.4532142 1.7740277 14
9.2840824 6.6931825 1.5011669 13
9.4864979 5.0399299 2.4268484 15
9.2873068 6.6820393 2.1979678 15
9.8408232 2.7852507 -0.88398361 6
9.8479757 2.2475264 -0.51633316 7
9.6028357 2.595789 -0.48486799 7
9.6334667 2.3311925 -0.32263243 7
9.7437649 2.3989244 0.33972049 9
9.7706518 6.5695682 0.11182429 10
9.9824553 6.6209741 0.96911085 12
9.7593317 6.5942335 0.62725472 11
9.9927855 6.7996778 1.2201654 12
9.6390038 6.6314096 1.5372105 13
9.7964783 4.6533785 2.4603987 15
9.8641596 6.5123944 2.2682934 15
10.046623 2.3165779 0.0091197146 8
10.227494 3.1861196 0.19941537 8.5
10.06748 6.6348062 0.17538638 10
10.228123 4.8014913 1.2191973 12
10.064712 6.7513475 0.86079234 11
10.332243 4.6964612 1.5702677 13
10.100878 6.6251683 1.5876346 13
10.336509 2.6725085 2.774302 15
10.124583 2.8522029 2.7335827 15
10.1849 4.2900777 2.5153656 15
10.332464 4.8400893 2.257755 14
10.179745 5.8154449 2.2809753 15
10.668724 6.5231838 0.47892478 10
10.621624 6.6822476 0.50737387 10
10.465329 6.6087413 1.0197939 12
10.569643 6.7363324 0.88861352 11
10.702212 4.3095384 1.6074861 13
10.56166 6.8403597 1.267254 12
10.595739 6.6210694 1.6420721 13
10.478482 2.4662018 2.7977443 15
10.475838 4.0038905 2.5579352 15
10.764139 5.3476667 2.352531 14
10.607674 6.7521815 2.0518544 14
11.145558 6.7415218 0.92192745 11
11.115544 6.8449569 1.3125389 12
11.159579 6.6342807 1.7050979 13
10.979755 3.36813 2.6330402 15
10.871007 6.3388233 2.3398528 14
11.572675 2.9480228 -0.050639842 8
11.220583 6.685894 0.52478987 10
11.410563 6.5648065 0.93266296 11
11.394012 4.298367 1.6886845 12
11.533047 6.5767074 1.1336871 12
11.462191 2.5979917 2.2517564 13.333333
11.5142 2.9974184 2.0917826 13
11.453175 3.2792768 2.082969 13
11.481082 3.7377491 2.0888424 13
11.49299 4.2032495 2.0954349 13
11.51491 4.5297804 2.1053143 13
11.487855 4.8400049 2.106622 13
11.381773 5.474628 1.70538 13
11.517632 2.6709933 2.7273448 14
11.417892 3.1180723 2.5957017 14.333333
11.541453 3.3795099 2.5550401 14
11.53791 3.8750877 2.3444347 14
11.47715 4.1246347 2.4292839 14
11.445058 4.5671406 2.4365516 14
11.222056 4.9405246 2.4126804 14
11.572544 4.0738707 2.6704085 15
11.41359 4.5933733 2.6181803 15
11.966772 2.5829446 -0.45636919 7
11.93301 2.5751896 -0.15701336 8
11.854539 6.6765876 0.54374039 10
11.722402 6.7085614 0.79095364 10.5
11.652436 6.8155375 1.3579456 12
11.72277 5.0194664 1.7368581 13
11.598504 4.5372396 2.2643661 14
11.631428 4.8647027 2.2722402 14
12.355409 6.6030974 0.20833948 9
12.387386 6.7130413 0.99311888 11
12.185335 6.7610626 1.4021991 12
12.5357 3.5058966 -0.095310085 8
12.545615 6.4749651 0.52740192 10
12.550481 6.6754584 0.567572 10
12.590277 6.6121435 1.4353539 12
13.074425 2.5533745 -0.70867425 6
12.986187 6.6714392 0.68289119 10
13.015985 4.8857336 1.4665841 11.5
13.094283 6.7035346 1.0352762 11
13.215576 2.3596611 -0.7557072 6
13.296128 6.5982218 1.4946699 12
13.712676 3.7980218 -0.88777351 6
13.693984 4.0029793 -0.62968814 7
13.721783 5.5077472 -0.83667326 7
13.85417 6.688179 1.0817717 11
14.343818 2.9324718 -0.1020547 8
14.331806 3.9720323 0.4221223 9
14.318509 4.200932 0.32769364 9
14.332947 5.1067824 0.2931878 9
14.36941 5.6778674 0.27121031 9
14.316344 3.3589768 0.83982432 10
14.300614 3.6139181 0.7169807 9
14.313586 3.985702 0.70427406 10
14.324553 4.3625169 0.69239044 10
14.337489 5.1301022 0.66712117 10
14.357449 5.5329719 0.65636891 10
14.372369 6.3517008 0.63435555 10
14.308498 3.4931023 1.1624012 10
14.325936 4.0325451 1.1514652 10
14.362364 4.592083 1.1428907 10
14.378037 6.5937395 0.74814802 10
14.350409 3.4218514 1.594203 11
14.352354 3.76999 1.5922843 11
14.381269 4.3761535 1.5865955 11
14.387112 6.5312853 1.1155267 11
14.410148 5.5435863 0.38197845 9
14.543385 6.0140638 0.65036505 10
14.45781 5.4127636 0.91489476 10
14.587079 5.9173427 0.77686352 10
14.744353 3.1650615 1.6330271 11
14.745154 3.7817216 1.670933 11
14.75709 6.2870388 1.1408519 11
15.054045 3.1532664 1.7552947 11
15.014088 5.9865661 1.1608109 11
14.862791 6.5520339 1.6323366 12
15.469317 3.3928218 1.2408484 10
15.344123 5.2992644 1.1922107 10
15.44505 5.744534 1.1922199 11
15.733604 6.5127044 1.7089546 12
16.055311 3.0474384 -0.69296598 7
16.386618 3.8025093 2.273772 12
16.386478 4.5650897 2.277658 12
16.384331 5.3507934 2.2847493 12
16.292288 5.7177339 2.2769427 12
16.720039 3.6587389 -1.0173934 6
16.630714 3.2112513 -0.46897319 7
16.406675 3.4313195 2.2745357 12
16.438738 4.7099819 1.7755334 11
16.455671 5.1191907 1.7745619 11
16.447607 5.5273604 1.7725617 11
16.440533 4.1950078 2.2814727 12
16.411398 4.9615121 2.283149 12
16.435375 3.4657114 2.7817307 13
16.870501 3.3108394 0.39273733 8
16.856718 3.4742723 0.88439506 9
16.868355 3.8233418 0.80742496 9
16.942513 3.4596856 1.5535085 10
