# .PCD v0.7 - Point Cloud Data file format
VERSION 0.7
FIELDS x y z intensity
SIZE 4 4 4 4
TYPE F F F F
COUNT 1 1 1 1
WIDTH 80
HEIGHT 1
VIEWPOINT 0 0 0 1 0 0 0
POINTS 80
DATA ascii
-0.4725734 -0.50931239 -0.11673924 0
-0.49502328 -0.39170483 -0.1355982 0
-0.60554761 0.30695459 -0.23890294 0
-0.57768065 0.52079934 -0.2735655 0
-0.41325545 1.5017761 -0.39388609 3
-0.46848947 1.6087768 -0.41143528 3
-0.39287576 -0.46455616 -0.12595876 0
-0.20018421 0.68118519 -0.28776425 0
-0.20441157 0.94815332 -0.32302085 1
-0.31578833 1.3159782 -0.36929888 3
0.02000593 0.67513829 -0.28287685 0
0.67389947 -0.55374569 -0.10197368 1.5
0.67909753 -0.24671827 -0.14495809 0.5714286
0.75559622 0.13093086 -0.19011085 0.80000001
1.0200744 -0.96247566 -0.042717077 3.75
1.0179626 -0.59979749 -0.089319229 3.1428571
0.97773725 -0.21992575 -0.13551605 2.4000001
1.0091425 0.18590738 -0.1950056 2.1428571
1.5114067 -1.8099049 0.073227987 5
1.3757678 -1.3780988 0.021644216 5
1.3974655 -1.0101517 -0.029583426 4.5999999
1.3886715 -0.60616541 -0.068876274 4.25
1.3783734 -0.22743241 -0.12607141 3.6666667
1.3821093 0.20566396 -0.17858855 3.5999999
1.4789205 0.5157789 -0.23930785 3.6666667
1.9894062 -2.5644033 0.17300798 6
1.7522941 -2.1906173 0.12479474 6
1.8246096 -1.7502637 0.074296236 6
1.8276277 -1.4698528 0.029402364 5
1.7286668 -1.1123617 -0.012190079 5
1.7586983 -0.5857392 -0.061230425 5
1.8813741 0.25938746 -0.15753846 5
1.8639582 0.63710999 -0.23576446 4.5
1.7111756 -1.7487918 0.55913961 11
1.8697835 -1.4788519 0.49673006 10.5
2.2440305 -2.2506266 0.1391191 6
2.3004572 -1.7854997 0.067165472 6
2.0759711 -1.2319477 0.0087983236 5
2.0922232 -0.94006753 -0.014324401 5
2.371047 -0.65182853 -0.058711305 5
2.3174818 -0.25982857 -0.098847963 5
2.3936844 0.46816841 -0.19239469 5
2.5035083 -3.3734176 0.27378422 6
2.4888062 -2.5426168 0.17685124 6
2.7557831 -2.2040565 0.12471686 6
2.4669077 -1.5150639 0.082704514 6
2.4713356 -0.97915798 -0.010840821 6
2.4178853 -0.028798476 -0.13293751 5
2.5872622 0.24256188 -0.16840237 5
2.5028422 -2.0470905 0.50235319 9
2.5738626 -1.476061 0.33032513 8.333333
3.1291125 -2.5460935 0.16567044 6
3.1805885 -1.5238295 0.077566199 6
3.0964575 -0.70249188 -0.044247068 6
2.8227773 0.57137716 -0.20159051 6
3.2643538 -3.4669039 0.29317459 6
3.4376481 -1.1964427 0.010686177 6
3.3849344 -0.7742551 0.0061575524 6
3.66132 -3.0333452 0.22216628 6
3.7657976 -1.8366158 0.11077873 6
3.8257012 -1.3457394 0.037249036 6
3.6232555 -0.029674198 -0.064941078 6
3.9195352 0.40402985 -0.14364131 6
3.6439967 -3.0703621 0.5069707 8
3.7671235 -2.4871244 0.57639796 8.5
3.7539139 -2.5141737 0.87272191 10.5
4.1143332 -0.4826926 -0.047255535 6
4.2691417 -2.116601 0.29869449 7
4.3439708 -1.5566534 0.57324165 9
4.0135565 -1.4252983 0.36756992 8
4.3980007 -1.0246221 0.28047195 8
4.3054662 -0.48827484 0.28322533 8
4.2573242 -2.1515346 0.89700669 10.5
4.3341041 -1.5576519 0.78015512 10.5
4.3929224 -1.015628 0.72736418 10.5
4.3857951 0.02074169 0.53546834 10
4.4030299 -1.0235757 0.41433018 8.5
4.4518766 -0.4891738 0.59794647 10
4.4264231 0.54302883 0.47008315 10
5.2862291 1.1651136 -0.24670577 6
