# .PCD v0.7 - Point Cloud Data file format
VERSION 0.7
FIELDS x y z intensity
SIZE 4 4 4 4
TYPE F F F F
COUNT 1 1 1 1
WIDTH 154
HEIGHT 1
VIEWPOINT 0 0 0 1 0 0 0
POINTS 154
DATA ascii
-4.3320584 1.7684722 -0.10306794 8
-4.2584095 2.8760924 -0.23234896 8
-4.3106961 2.1306603 0.66549993 13
-4.3348937 1.577564 0.85914159 14
-4.2172103 3.440619 0.59697819 13
-4.2396941 -2.0228126 1.590562 14.5
-4.331696 1.5377998 1.0140047 15
-4.2943225 2.1008646 1.0091832 15
-4.2507505 2.8453143 0.90103656 14.5
-4.1984677 3.7503769 -0.32672563 8
-4.1664987 4.0784788 0.007449897 10
-4.0383949 4.131041 0.17026152 11
-4.0946107 4.1842208 0.51577872 12.5
-4.0769072 -0.68942487 1.3474445 15
-4.1307778 4.228241 0.90047699 14
-4.1396189 4.2296219 1.0624921 15
-3.9202542 -2.803992 1.6686189 14
-3.8299804 -2.8338199 1.911209 15
-3.4393132 -1.9989811 0.48804587 8
-3.4928617 -0.83125627 0.22660114 8
-3.4343154 -1.935524 0.55672807 9
-3.4666457 -0.90234405 0.36509392 9
-3.5437417 4.0298967 -0.29220232 9
-3.4740138 -0.81143177 0.59924972 10.5
-3.5331089 -0.91027975 0.89744133 13
-3.4356034 4.0986433 0.93152279 15
-3.3534403 -1.1148844 0.33542597 8
-3.2774377 -1.7454668 0.64461774 10
-3.3621264 -1.2842406 0.46400711 9
-3.252995 -1.2782116 0.60280567 10
-3.3152521 -0.93565476 0.7247234 12
-3.2903826 3.9242654 -0.048183408 10
-3.3407159 -1.2466798 0.91930014 13
-3.3151 3.9958839 0.31642169 12
-3.0479212 -2.4564843 0.87782741 10.5
-3.1543324 4.0658016 0.15976822 11
-2.9621358 -2.9416788 1.6335648 15
-2.8678248 4.1298285 0.74227858 14.5
-2.7177622 -2.4686005 0.52018267 8
-2.6333048 3.909271 0.012507214 10
-2.7510219 3.9756832 0.37231031 13
-2.4634016 -2.5076234 0.84032315 10.5
-2.4398527 1.0286143 0.28766933 12
-2.5253747 3.9959571 0.038594235 11
-2.4120281 3.9400814 0.32571679 12
-2.311739 -2.5116665 0.49568534 8
-2.3465059 3.8407416 -0.26639754 9
-2.0156684 -2.5917404 0.47707024 8
-2.0643146 3.8605492 -0.052038353 10
-2.0832899 -2.4986413 0.96229392 12
-2.1570146 3.9314482 0.32965127 13
-1.9894404 -2.5447979 0.75912446 10
-1.9563416 -2.5364811 0.86794209 11
-1.9941372 -2.4501784 1.170239 14
-2.0038204 4.0402713 0.64629519 15
-1.6277007 -2.5807331 0.45645955 8
-1.7002798 3.8586421 -0.01934384 11
-1.6231967 -2.532974 1.0175788 13
-1.5304047 3.8161964 -0.19265816 9
-1.5863225 3.8250799 -0.09976954 10
-1.4509362 -2.5230513 1.2912643 15
-1.3117297 -2.5717838 0.43696195 8
-1.3455262 -2.5223689 0.69701755 10
-1.2713619 -2.5412691 0.84137303 12
-1.3522286 -2.4708934 1.0540252 14
-1.1535803 -2.5827186 0.57506794 9
-1.1483188 3.8041494 -0.11976021 10
-1.1662424 -2.523205 0.98192394 13
-1.068971 3.926446 0.36671025 14
-0.83054429 -2.6675997 0.51651871 8
-0.82447082 -2.608654 0.65630978 10
-0.98621207 -2.5069842 1.0304208 14
-0.8927331 3.958411 0.64193094 15
-0.7515282 -2.6210778 0.58448333 9
-0.7493012 3.8080492 -0.098223537 10.5
-0.69267398 3.9260705 0.16130851 12.5
-0.69400829 3.9578116 0.36368987 14
-0.47565669 -3.3034267 0.70352316 9
-0.48981082 4.3380413 -0.022550488 11
-0.23611493 0.82407874 -0.32862863 0.5
-0.34104171 -1.3199763 0.50583774 13
-0.28965074 6.5831151 -0.38781154 9
-0.23701178 6.7137237 0.40157717 13
-0.0373763 0.74577326 -0.31789994 0
-0.16026631 -2.9782991 0.4503575 7
-0.0055914791 -3.3260653 0.74355036 9
-0.20720349 6.696301 0.18886641 12
-0.024564883 6.9110231 1.0713893 15
0.11880779 0.66627449 -0.30630991 0
0.11919595 1.1119527 -0.37539911 2
0.073624037 -1.705536 0.74755853 15
0.024405207 6.7178073 -0.18188953 10
0.30819982 0.79812288 -0.33517668 0
0.30092126 -3.0003519 0.61440831 9
0.37690836 -1.2808185 0.49832109 13.5
0.27157477 -1.6705347 0.73663181 15
0.2064942 6.7322245 -0.076344572 11
0.41224146 0.71568817 -0.30480343 0
0.4397411 1.1583245 -0.406643 2
0.51623756 -0.9723289 -0.043100003 2.5
0.41487354 -1.3045688 0.43676794 12
0.42497158 -1.2461165 0.60057074 15
0.6508919 -0.9777739 -0.046086155 3
0.69747502 -0.75091583 -0.085828476 2
0.73740608 -1.3127191 0.4601312 12
0.92166221 -0.54999846 -0.12794627 2
1.0143383 0.030895617 -0.20329674 2
1.1609265 -1.3568593 0.43113846 11
1.1639864 -1.3166461 0.53631699 12
1.0993357 6.7974949 0.84362656 15
1.2763549 -0.16394038 -0.1854625 3
1.3085786 6.6246901 -0.11216929 11
1.4600023 -1.314943 0.55399841 12
2.4126737 6.5368443 -0.11540102 10
2.4728825 5.9311795 0.42933607 13
2.599396 6.5208154 -0.41331178 9
2.786092 3.9024603 0.39948514 13
2.9988124 -0.60158426 0.14648853 8
2.8920107 3.7359412 0.13180894 11
2.8261249 3.0308044 0.47070485 13
3.4784889 -1.2100893 0.15076017 7
3.5823283 -1.7765809 0.36656311 8
3.6072571 -1.7883302 0.28176624 7
3.6525893 -1.2056793 0.25652248 8
3.764786 0.32128981 0.13742982 8
3.6518109 -1.2321342 0.45011935 9.5
3.6822073 0.099889345 0.31618264 10
3.710664 0.47322273 0.18331249 9
3.7502663 -1.4018997 0.72063643 11
3.6886866 -0.90757811 0.68634295 11
3.6951604 0.23713444 0.4213208 11
3.7358334 0.6018579 0.49766487 11
3.7260554 -1.0726388 0.87430245 12.5
3.7745292 -0.69583416 0.76284492 12
3.7069626 0.1781318 0.6600967 12.5
3.7061501 -1.0091684 1.0405298 14
3.7205663 -0.59985822 0.90692014 13
3.7294247 0.39649445 0.86504978 14
3.7889366 0.81100893 0.83431011 14
3.7117598 -2.1899595 1.3493049 14
3.7410865 -1.6453229 1.2768621 14
3.6679785 -1.5094913 1.3190993 15
3.7713685 -1.0514867 1.2133905 15
3.7970514 -0.71217185 1.2712767 15
3.7621615 -0.088323854 1.0682095 15
3.7316632 0.33406901 1.0363919 15
3.814183 -0.10736205 0.06033624 7.5
3.9425213 2.4896257 -0.23720561 7.5
3.8132377 0.0023807003 0.23807938 9
3.80387 -0.26968351 0.57285595 11
3.8520381 0.074603416 0.91547567 14
8.2267838 6.2018042 0.62514162 11
8.4540272 6.2247233 0.89550126 12
13.434523 4.4859309 0.46497345 9
