# .PCD v0.7 - Point Cloud Data file format
VERSION 0.7
FIELDS x y z intensity
SIZE 4 4 4 4
TYPE F F F F
COUNT 1 1 1 1
WIDTH 675
HEIGHT 1
VIEWPOINT 0 0 0 1 0 0 0
POINTS 675
DATA ascii
-4.4853578 -0.69034982 1.3968705 15
-4.4806886 -0.53636372 1.4023111 15
-4.3443089 1.8839175 -0.05846243 8.333333
-4.3111372 2.2267764 -0.075373977 8.3999996
-4.2988343 2.570328 -0.15997791 8.5
-4.2586164 3.0203905 -0.19573577 8.5
-4.233655 3.3701255 -0.23251259 8.3999996
-4.2022719 3.7905791 -0.22854178 8.5714283
-4.1228218 4.0561848 -0.34320274 8
-4.243958 -2.0421011 1.0516015 11.5
-4.1890373 -1.7624207 1.0304402 12
-4.3406324 1.8940622 0.29856676 10
-4.3181949 2.2883327 0.25436696 10.5
-4.2814674 2.6460254 0.21008554 10.5
-4.2558594 2.9992223 0.12281613 10.333333
-4.2241783 3.4510977 0.13628951 10.5
-4.1893163 3.8375001 0.091867357 10.333333
-4.1141796 4.0915332 0.0071260044 10
-4.2809887 -2.8690012 1.5289649 12.666667
-4.0881267 -2.2434072 1.4129931 13
-4.1134067 -2.0445626 1.2519205 12.8
-4.1080346 -1.6695598 1.3051451 13.666667
-4.1038427 -1.2290077 1.3147563 14
-4.0879159 -0.86665428 1.1409763 13.857142
-4.3558197 1.5427706 0.89439768 14
-4.3219628 1.9759007 0.81261533 13.5
-4.2994885 2.344856 0.71021587 13.2
-4.2692108 2.7164953 0.59668362 12.8
-4.2398014 3.141109 0.56370568 12.666667
-4.2149482 3.4925816 0.54075098 12.5
-4.17979 3.9282296 0.5115096 12.5
-4.1644635 -2.0144439 1.5801867 14.5
-4.132864 -1.626964 1.5229925 14.666667
-4.0938449 -1.1900083 1.4412081 15
-4.0667086 -0.86050045 1.3570173 15
-4.2383337 -0.37215856 1.2699436 15
-4.3763247 1.2505127 1.069406 15
-4.3609519 1.5850171 1.0613053 15
-4.3235307 1.9986439 1.0211866 14.666667
-4.2932386 2.3548236 0.99853128 14.5
-4.2621717 2.7369504 0.9869594 14.75
-4.227859 3.157373 0.93759131 14.6
-4.1972909 3.5498242 0.93108004 14.5
-4.1487722 3.9556549 0.90500039 14.2
-4.1554422 4.0583067 1.0500906 15
-3.7698138 -2.4159782 0.52822721 8.5
-3.7982528 3.9302185 -0.24619284 8.666667
-3.8287859 4.047555 -0.31730127 8
-3.7689941 -2.3557339 1.0182481 11.2
-3.7077684 -0.84787005 0.80628425 12
-3.8944619 3.968982 -0.077540569 10
-3.782846 4.0955062 0.011889535 10
-3.6768084 -2.8719659 1.5380272 13.5
-3.9370842 -2.2837887 1.4109412 13.5
-3.9744384 -0.90196949 1.0792347 13.5
-3.8661427 4.0301843 0.31223667 12
-3.8103566 4.1697865 0.50380296 12.5
-3.815975 -2.7769911 1.7284662 14.5
-3.921442 -2.3784816 1.6169116 14.5
-3.6236126 4.1207662 0.94724536 15
-3.8269367 4.2062092 0.71560323 14
-3.8856657 4.2524476 1.0402637 15
-3.3546789 -2.4315784 0.54553038 8.3999996
-3.3759553 -2.0262833 0.56607306 9
-3.3656325 -1.7560469 0.49930933 8.875
-3.3609464 -1.338567 0.44094741 9
-3.3834796 -0.97538096 0.35963166 8.909091
-3.3797779 -0.74534053 0.40673304 9
-3.30265 3.8836565 -0.36289069 8
-3.3617105 4.0164361 -0.27609342 9
-3.4270692 -2.3685892 0.94687021 11
-3.3964729 -1.9773599 0.85563254 11
-3.3968456 -1.7540473 0.82885325 11.2
-3.3802347 -1.2467934 0.82839233 12
-3.3930793 -0.95594615 0.76431543 11.888889
-3.5583668 3.9560511 0.0034222628 10
-3.4050562 4.0599775 0.028804267 10.2
-3.3937414 -2.8938656 1.4800485 13.4
-3.3007205 -1.1689153 1.0006517 14
-3.4653893 -1.0088911 1.0089639 14
-3.4861109 4.0036511 0.31442431 12
-3.3965132 4.116962 0.41286266 12.5
-3.3937278 -2.9074285 1.7479577 15
-3.4308405 4.1811724 0.78442532 14.5
-2.9875131 -2.479835 0.54947722 8.5
-2.9852493 3.9292419 -0.28676054 8.5
-2.9753444 -2.4217322 0.94592565 11.285714
-2.9634204 4.0050569 0.0030701908 10.333333
-2.9843175 -2.9155416 1.4797555 14
-2.9827235 4.0733066 0.37849301 12.6
-3.1671212 4.0959511 0.40620372 12
-3.1021204 -2.9353528 1.6565731 15
-2.9851749 4.0970817 0.85660273 15
-3.0888958 4.1388049 0.68129158 14
-2.5700128 -2.5310705 0.53426677 8.5
-2.4259796 1.0330539 0.164536 10.5
-2.4106941 1.3170372 0.096229397 10
-2.6617472 3.9287167 -0.24359506 8.666667
-2.5848947 -2.4539204 0.90718871 11.285714
-2.5942719 3.9963527 0.042053305 10.6
-2.6681507 -2.9065211 1.4895124 14.333333
-2.4809442 -2.5538211 1.2503972 13.5
-2.588243 4.0472245 0.39666066 12.833333
-2.6273153 4.1112294 0.73080748 14.5
-2.1946743 -2.5375535 0.5945937 9
-2.1429319 0.98908925 0.1634317 10.5
-2.1811609 1.4205025 0.12439548 10.428572
-2.0957215 1.6451544 0.097390719 11
-2.1711771 3.9275432 -0.17469727 9.333333
-2.218538 -2.4874279 0.93009061 11.777778
-2.2391503 1.0726962 0.28830251 12
-2.1365266 1.5559613 0.19481836 11.5
-2.1056149 1.6454042 0.20541878 12
-2.2060547 3.9670222 0.059895162 11
-2.3103681 -2.8285487 1.3566716 14
-2.2644615 -2.5618918 1.2235172 13.666667
-2.2112191 4.0117249 0.38078502 13
-2.1825657 4.0670505 0.68091542 15
-1.8037732 -2.550715 0.63082802 9.454545
-1.8442799 3.8512866 -0.19575585 9.333333
-1.8037955 -2.4954727 1.0102674 12.8
-1.7900211 3.9210212 0.016862076 11
-1.8276998 -2.4820504 1.2394266 14.5
-1.8236892 3.9867797 0.42452458 13.5
-1.8362912 4.0382719 0.67318022 15
-1.386773 -2.5665052 0.59496808 9.1111107
-1.3213753 3.8058064 -0.17463924 10
-1.3809315 -2.5164218 1.0006654 13.142858
-1.421186 3.8921466 2.2105101e-05 10.888889
-1.5289402 -2.5140138 1.297152 15
-1.3920679 3.9704704 0.47234723 14
-0.85843694 -3.2305214 0.75462931 9.5
-0.84316856 -2.8381929 0.7056427 10
-0.98325378 -2.5904727 0.60343397 9.5
-1.0193254 3.783668 -0.14946297 10
-1.0032941 -2.5412116 0.97397459 13
-1.0025258 3.8584085 0.011639941 10.888889
-1.0075104 3.9198296 0.42461455 13.75
-0.81008637 6.8814616 0.51364636 13
-0.41682673 -3.3613102 0.4676258 7
-0.63680494 0.29784957 -0.24522217 0
-0.63004619 0.43978286 -0.26574811 0
-0.43288633 1.0947239 -0.36442864 2
-0.52819908 1.3208109 -0.40353006 2.75
-0.51525944 1.628582 -0.45402938 3.5
-0.44108167 2.1474321 -0.54448301 4
-0.56954342 2.4915535 -0.60788441 4
-0.58812505 -3.2844062 0.72307158 9.1999998
-0.7130056 -3.0166428 0.67107719 9
-0.75357175 -2.6414783 0.51789767 8
-0.68745375 -3.2060876 1.0167598 11.5
-0.70796537 -2.7942262 0.95914727 12
-0.74859476 -2.5714464 0.90867972 12.666667
-0.47059363 -1.6516095 0.75679243 15
-0.75194865 3.8464878 0.047881588 11.5
-0.61833662 4.2752442 -0.046259865 10.714286
-0.44290361 4.4620495 0.021818427 11
-0.53265172 6.6442666 -0.32034129 9.5
-0.68760097 -3.1257591 1.4616766 15
-0.73719639 3.8851106 0.34524924 13.5
-0.66345525 4.2600183 0.24931037 12.5
-0.62435073 4.6905856 0.32952872 13
-0.59125185 6.7941403 0.08133366 11.666667
-0.64903635 4.2634506 0.675318 15
-0.63491011 4.643003 0.72087067 15
-0.61915243 6.8406954 0.40154004 12.75
-0.64171427 6.9101706 0.92047179 15
-0.50351518 6.8490891 1.0531452 15
-0.19716606 6.5951533 -1.3697557 5
-0.19499803 0.69312513 -0.30886495 0
-0.18563968 0.93264455 -0.34472173 1
-0.23356463 1.3090326 -0.39897686 2.6666667
-0.17783654 1.7268698 -0.46566379 3.5999999
-0.12665473 2.1824512 -0.54765254 4
-0.21065731 2.5545976 -0.6140694 4
-0.31338429 3.0284374 -0.717363 4
-0.0093632312 4.253376 -0.88548446 5
-0.18639791 -3.3036969 0.74326777 9.375
-0.18449989 -2.9759226 0.46958542 7.5
-0.15623435 -1.7162948 0.54258633 11.75
-0.17129974 -1.3646566 0.426862 11.75
-0.29639477 -3.2694037 1.0052035 12
-0.11110295 -1.9271898 0.77638286 14
-0.19582982 -1.6899939 0.71759439 14.2
-0.19914471 6.6355748 -0.32348305 9.5
-0.20271684 6.6877246 -0.0020837798 11.333333
-0.20955066 6.7487559 0.40131721 12.666667
-0.188366 6.8329296 0.93315196 15
0.36113599 -3.3253961 0.46912089 7
0.35955206 -1.9812232 0.25321075 7
0.38554081 -1.5857662 0.079852663 5
0.38444883 -0.54961854 -0.10685769 0
0.25724843 0.61095589 -0.28850335 0
0.20368126 0.95638448 -0.35757071 1
0.16371845 1.3309222 -0.41334113 2.6666667
0.14693747 1.7063979 -0.46910688 3.3333333
0.1836592 2.1481497 -0.54825705 4
0.1481868 2.5549362 -0.62079149 4
0.12430776 2.829041 -0.66976917 4
0.093748271 3.1840549 -0.73470217 5
0.055962529 3.618582 -0.81263852 5
0.19404998 -3.2407558 0.72881836 9.5
0.21262556 -3.0183966 0.57986385 8.375
0.33888456 -2.323724 0.39609671 8
0.14472511 -1.596221 0.46697357 11.166667
0.27869764 -1.4056101 0.44118217 11.625
0.2212099 -3.2962565 1.0802808 12
0.28839901 -1.9456422 0.75737786 14
0.21525267 -1.6836842 0.71937454 14.5
0.22083248 -1.489702 0.69363695 15
0.20199279 6.6755919 -0.30878928 9.5
0.20222318 6.7490592 0.047209501 11.5
0.19967157 6.7952609 0.37424174 12.6
0.17434238 6.8933702 0.95804125 15
0.58253682 -3.3827431 0.47310752 7
0.67731136 -2.1357734 0.16267657 5
0.63241595 -1.8177251 0.11001176 5
0.71269017 -1.4215956 0.074451789 4.8571429
0.61793339 -1.0067028 -0.035240859 2.8571429
0.62588447 -0.61495888 -0.10484242 1
0.65956861 -0.24632344 -0.16034339 0.25
0.70067197 0.00085150538 -0.19610696 0.33333334
0.40650779 0.57901835 -0.28351945 0
0.4268752 0.9299401 -0.35908115 1
0.44369814 1.3339508 -0.42088813 2.6666667
0.46123067 1.7617794 -0.48518607 3.5
0.48480865 2.2641058 -0.57191223 4
0.49640027 2.4929285 -0.61461771 4
0.51587009 2.8990738 -0.68627566 4.5
0.54160964 3.4361112 -0.78101623 5
0.56821162 3.9720991 -0.87900484 5
0.61008465 4.7887926 -1.0333458 5
0.64974737 6.5311942 -1.1763836 6
0.56071913 -3.3226531 0.74474323 9.5
0.41012743 -3.0654123 0.74969387 10
0.44149214 -2.0986288 0.42885926 8.5
0.46744949 -1.8061501 0.45921952 10.5
0.60513133 -1.3271556 0.42275128 11.428572
0.55363834 6.6292114 -0.81597078 7.5
0.47467628 -3.2777534 1.066645 12
0.44517145 -1.9611109 0.76255083 13.5
0.43509418 -1.5639564 0.70656949 15
0.56589842 -1.3294107 0.6355685 15
0.58010411 6.6495719 -0.30990288 9.5
0.61527318 6.7146354 0.058907289 11.5
0.57963526 6.7785273 0.4193337 12.8
0.57952946 6.8513441 0.93143898 15
0.85796964 -3.5395923 0.46827698 7
1.1634587 -1.8226893 0.08997909 5
1.0399175 -1.4195474 0.029150961 4.25
0.99741185 -0.99704176 -0.041657437 3.5
0.97195876 -0.61953604 -0.11360862 2.2222223
0.9677909 -0.24844486 -0.16407992 1.6
0.84993821 0.017485108 -0.18748441 1
0.92828006 -3.3802605 0.7488929 9.1999998
0.99040371 -2.39903 0.46825135 8.5
1.1037225 -2.0309799 0.48331392 9.5
1.1171342 -1.7751982 0.44400573 9.6000004
1.1191257 -1.3916187 0.48200265 11.571428
1.0644916 -1.6227981 0.70485783 14
1.0663013 -1.313554 0.66837585 14.5
1.0141094 6.6267438 -0.28016403 9.6000004
1.0033188 6.6822629 0.068336062 11.5
1.0132427 6.7304969 0.33933479 12.666667
0.97720528 6.8321962 1.0028034 15
1.4134855 -2.4326553 0.26866049 6.5
1.3039807 -2.1422784 0.13450123 5
1.4121326 -1.868453 0.099283822 5.25
1.3330368 -1.3958359 0.018910334 4.5
1.3468637 -0.96070153 -0.052355997 3.8
1.378412 -0.61095566 -0.11202455 3.5
1.3314171 -0.19593264 -0.17894907 3
1.2652981 0.054918818 -0.21086876 3
1.3511835 -3.5865376 0.54405206 7
1.2625438 -3.4805155 0.79607397 9.5
1.3796555 -2.1446667 0.62534606 10.666667
1.3472654 -1.6680714 0.42622021 9.25
1.3670955 -1.3458828 0.43011713 10.583333
1.3307496 -2.1478686 0.71659166 12
1.3950764 -1.2606131 0.66094786 14
1.392923 6.595562 -0.30168301 9.5
1.3524512 6.6757812 0.15211007 11.333333
1.4029433 6.6970615 0.33582297 12.5
1.3824451 6.7927032 0.94827551 14.6
1.9611187 -3.6953421 0.48360234 7
1.8247637 -2.1126251 0.20950367 6.5
1.821901 -1.8312238 0.086811848 5
1.7093669 -1.4001008 0.013856702 4.75
1.8913089 -1.1561662 -0.039718639 4.5
1.7631705 -0.66886276 -0.10295723 4
1.7361751 -0.17853446 -0.17674623 4
1.6100327 0.090547994 -0.20928721 4
1.8794935 -3.5927651 0.6575107 8.5
1.7813927 -2.2831657 0.62584174 10.25
1.9806038 -1.6149222 0.48995832 10
1.8397478 -1.3276558 0.34995189 9
1.9955938 -1.1393486 0.33675694 9.5
1.8063111 -2.3021588 0.7743727 11
1.7551801 -1.3253419 0.66517681 13.333333
1.783488 6.5757341 -0.25851199 9.5
1.7442727 6.6405149 0.10074913 11.25
1.777613 6.6678548 0.34794894 12.5
1.8239141 6.7648444 0.8854503 14.333333
1.80107 6.790544 1.0711426 15
2.236059 -3.4649713 0.48572955 7
2.2101715 -1.7966572 0.091754228 5.5
2.0816474 -1.2996302 0.024380246 5.5
2.2015073 -0.90873611 -0.076020978 5
2.154355 -0.60001451 -0.11553748 4.6666665
2.2445443 0.15151663 -0.22916779 4.5
2.3005278 -1.7122742 0.64051896 11
2.2128778 -1.4253416 0.30452493 8
2.0075071 -1.0956403 0.29782209 9
2.23542 -1.5958902 0.66115075 11
2.1982284 -1.3202256 0.66280663 12
2.3044376 5.8860574 -0.068665601 11
2.2000046 6.5495939 -0.27137113 9.5
2.2035594 -3.326926 1.3960718 13.5
2.1874752 5.9968162 0.092164896 11
2.180089 6.6078205 0.046541113 11
2.2413578 -3.2927852 1.734895 15
2.3252223 5.9291334 0.76959676 14
2.1973023 6.6398993 0.38150984 12.5
2.1898944 6.7329197 0.82991868 14
2.1739738 6.7650075 1.1133246 15
2.6884489 -3.849684 0.44551349 6
2.5539515 -1.2593489 -0.035931379 5
2.5588622 -0.21767241 -0.19046198 5
2.5588109 -3.559232 0.88697785 9
2.4805956 -3.4410815 0.80156195 9
2.5452743 6.5089121 -0.54904008 9
2.6572874 6.348073 -0.21120833 9.5
2.5455377 6.4838786 -0.31146425 9.333333
2.5828376 -3.3471377 1.4016284 13
2.7800212 3.1186299 0.46390995 13
2.7778344 6.4106727 -0.094109394 10
2.7358108 6.4966464 -0.022352295 10.5
2.5034301 -3.3165278 1.7811481 15
2.6115289 5.8616586 0.49929711 13
2.5654769 6.6230779 0.41226211 12.5
2.5294487 5.8615561 0.92284685 15
2.4583991 6.7297387 0.83072531 14
2.6998262 6.6306829 1.1506346 15
2.5782449 6.7096982 1.1571004 15
3.061733 -2.6132243 0.16014366 6
3.13293 -2.3672669 0.3163498 7
3.0750039 -1.5530833 0.064456835 5.5
3.0912755 -1.1438968 -0.015165862 5.5
2.9111309 -0.60696572 -0.085188642 5.6666665
3.0717719 -0.086709015 -0.13168129 6
2.9504004 -3.2935457 0.61604774 8
3.1313455 -2.806457 0.58271271 8
3.1434374 -2.5266147 0.5493257 8.3999996
3.1759534 -2.1485941 0.58279002 9.5
3.0450876 -0.5348621 0.16188399 8
2.8789606 5.0905156 -0.42765108 8
2.9105351 5.4418244 -0.46604267 8
2.8554027 6.3840308 -0.55872905 8
3.1028128 -2.7187171 0.86336631 10.5
3.1320891 -2.5304446 0.79937184 10
3.1492925 -2.2846589 0.77370542 10
2.8073316 3.4621799 0.15062462 11
2.8698032 3.7463052 0.18612541 11.5
2.9307597 4.3109059 0.014462156 10.5
2.9649918 4.5629625 0.024655893 10.5
2.988745 5.4780426 -0.046117604 10.333333
2.8975096 6.3904824 -0.4438796 9
2.8075767 3.0845237 0.48160088 13.5
2.8175659 3.5212758 0.45269412 13
2.8361104 3.8342907 0.34160078 12.5
2.8687439 4.2554998 0.44102556 13
2.9233086 4.6463084 0.43679249 13
3.0161035 5.282753 0.43438199 13
2.9622014 5.5571551 0.33416912 12.5
2.8837981 5.6922331 0.07786192 11
2.9724948 6.263824 0.029677667 10.75
2.9049079 6.48 0.05734976 11
2.8409541 4.2661567 0.66487855 14
2.9191589 4.7597623 0.74815714 14.333333
2.9792027 5.6360617 0.42352104 12.5
2.8122709 6.4477911 0.3871859 12
2.9988539 5.483737 0.9102968 15
2.9389296 6.5568914 1.1724523 15
3.4062748 -2.5244114 0.26145321 6.5
3.336318 -2.183378 0.15256567 6
3.5294163 -1.1552752 0.13856098 7
3.3735881 0.26966253 -0.21893553 6
3.5005777 -2.8382671 0.44487944 7
3.2567544 -2.5406158 0.4501372 7.75
3.4529364 -2.1310892 0.56112683 9
3.5218577 -1.8461416 0.48710388 8.666667
3.5398424 -0.55015635 0.23290712 8
3.5761006 -2.698875 1.1270386 12
3.5269384 -2.4425302 1.0191389 11.666667
3.6001246 -2.0133314 0.9056192 11
3.3958085 -1.725112 0.90811867 11.666667
3.5472074 -3.2495093 1.6297013 14
3.5720491 -2.8462172 1.4151063 13
3.5990584 -2.4282162 1.3854085 13.666667
3.5624518 -3.1919742 1.9405507 15
3.5850737 -2.9113293 1.8716398 15
3.6031606 -2.4377024 0.28844693 7
3.7320492 -2.1003695 0.22866431 6.5
3.7494843 -1.6634948 0.14548585 6
3.755815 -1.4700147 0.18994014 7
3.683629 -0.98713475 0.11930504 7
3.7968473 -0.72999895 0.037379138 7
3.7851238 -0.24518825 0.015905879 7
3.7733269 0.12863626 -0.035584413 7
3.6605003 -2.0093184 0.53264475 9
3.6498549 -1.7099559 0.45630008 8.5
3.6896663 -1.3367928 0.38018638 8.5714283
3.7096336 -0.94399464 0.33973485 8.7142859
3.7262571 -0.54110736 0.3092669 8.7777777
3.7387638 -0.15352669 0.19865589 8.5714283
3.7329798 0.21439679 0.15774849 8.5555553
3.755657 0.56561267 0.097024657 8.333333
3.9311619 2.4322269 -0.15947624 8
3.6760523 -1.955407 0.89733142 11
3.6640799 -1.689095 0.83959663 11.2
3.6820347 -1.309965 0.80979806 11.625
3.7048399 -0.9361499 0.75268984 11.5
3.740411 -0.46839064 0.68691379 11.75
3.7681615 -0.070690617 0.58784461 11.444445
3.7439299 0.29495731 0.54806328 11.625
3.7523999 0.62515783 0.52360034 11.6
3.9089115 3.6294611 -0.087995902 9
3.8805742 4.7546768 -0.18353891 9
3.6203878 -3.4206417 1.6212102 13
3.6580813 -3.1947589 1.5634335 13
3.6775556 -2.7990193 1.4741125 13.5
3.6713531 -2.3209298 1.4657778 14.333333
3.6538439 -2.0335548 1.3269207 14
3.6637208 -1.6634519 1.2477386 14
3.6988411 -1.2488861 1.1820613 14
3.7281513 -0.83370882 1.0893263 14
3.754504 -0.42967606 1.0457014 14.142858
3.7912021 -0.079176337 0.99297327 14
3.756454 0.31155252 0.96762383 14.4
3.7729192 0.66671842 0.85785061 14
4.0596962 2.330977 -0.23699871 7.5
4.2367415 2.7895989 -0.18575743 8
4.1536207 3.0053546 -0.067833252 9
4.3314204 6.4075761 -0.51664227 8
4.2299914 3.5557692 -0.089764975 9
4.1748896 3.6313355 -0.10829718 9
4.2875843 6.4474249 -0.30688769 9
4.3109131 6.402853 -0.024415506 10
4.615499 3.0961063 -0.089518085 9
4.4410939 3.6411695 0.10828663 10
4.4770603 6.6285224 1.382009 15
4.8589997 2.5782456 -0.16218163 8
4.9856982 2.9062424 -0.10090552 9
5.1894512 6.3539066 -0.54635674 8
5.0129623 2.582788 0.20900559 9.6000004
4.9858694 4.4960365 -0.1751947 9
5.0576134 6.3992519 -0.332131 9
5.0856299 2.5865006 0.48281768 11
5.104804 6.430048 -0.10577148 10
5.125104 6.5024481 1.285249 14.5
5.5490265 3.9962275 -0.57336712 7
5.3728547 2.6627636 -0.21370953 7.5
5.5012102 4.2678752 -0.59050995 7
5.2272506 2.5333958 0.040694848 9
5.2468538 6.279737 -0.22228889 9.5
5.5100365 4.9089389 1.4600148 15
5.8639779 4.0108814 -0.60698628 7
5.6098385 2.7584198 -0.12442151 8
5.8971677 3.9812319 -0.4483631 8
5.9413619 4.2634697 -0.44231153 8
5.8176165 4.4561639 -0.47623205 8
5.6270857 5.9759102 -0.3268213 9
5.6951365 4.8467846 1.4911431 15
5.9161978 5.7637753 1.5647539 15
5.9109697 5.9544554 1.5477642 15
6.2097054 5.8119478 -0.64127314 7.75
6.1098461 5.9211411 -0.1260986 9.5
6.1991887 5.9272423 0.057060659 10
6.1808252 5.9713206 0.57893711 11.666667
6.1101179 6.1564441 0.91320455 13
6.1861739 3.9716482 1.562999 15
6.0671468 4.8556118 1.5106027 15
6.3349314 5.1462097 1.6172845 15
6.0688643 5.6149759 1.5677208 15
5.999949 5.9336162 1.5031043 15
6.2764239 6.3516788 1.4390726 14
6.4075251 5.9427958 0.58181518 11.5
6.7767849 6.5063806 0.9662466 13
6.4702525 3.9501178 1.6181868 15
6.6381083 4.8134303 1.4239131 14
6.7383041 6.5154929 1.4992101 14
6.9771581 3.0586209 -0.47810653 7
7.1352134 6.2383142 -0.91690361 7
6.9639239 2.7771502 -0.019102044 8
7.0166698 3.0147886 -0.26268008 7.75
6.9669924 3.2690709 -0.41048628 7
6.9569821 4.5355115 -0.019896122 9
6.933702 6.1949239 0.031407915 10
7.0580029 6.3459711 0.5032298 11
7.1068072 6.4032784 0.8730644 12.5
7.0262671 3.9064977 1.5830535 14.5
7.0747032 6.2275171 1.5809293 14
6.9404292 6.4149895 1.5131207 14
7.4122643 6.1731524 -0.93881297 7
7.3019748 6.2072873 -0.68786544 8
7.4293089 6.1778479 0.12080491 10
7.34237 6.2727842 0.62317926 11.333333
7.4228544 6.288435 0.79314435 12
7.565032 5.0975404 1.6631215 14
7.4361019 6.5108886 1.2895845 13
7.5942097 5.1075482 1.8529261 15
7.2983022 6.1951008 1.6449051 14.5
7.9509444 2.7377458 -0.043238692 8
7.6103568 6.2593503 -0.74976742 7
7.8059249 6.0567904 -0.40264124 8
7.8917975 6.13305 0.058280677 9.5
7.8787327 6.2350993 0.6097787 11
7.8613777 6.2602482 0.78480756 12
7.9613919 3.875931 1.6733068 14
7.6188278 4.2402501 1.5119785 14
7.7457252 4.4675436 1.6601312 14
7.7961321 6.5109348 1.3202417 13
7.7842307 6.2447815 1.6268909 14
8.178215 2.4970596 -0.037920415 8
8.1510115 2.752743 0.041272175 8
8.2655592 6.1534567 0.093249284 9.5
8.1376543 6.194798 0.48634428 11
8.2084341 6.2357545 0.81449044 12
8.0336123 2.1318762 1.9718034 15
8.1711702 6.5050411 1.3530087 13
8.1018867 6.1619902 1.6923302 14
8.167655 6.1796594 1.9834604 15
8.5518055 1.7555163 -0.26731285 7
8.77215 2.0713267 -0.57820415 6
8.4675808 1.9564003 -0.27043626 7
8.4784431 2.1090696 -0.24063548 7
8.6621742 1.979672 0.35302505 9
8.6214685 6.0817633 0.17317243 10
8.7133598 6.2617722 0.26233554 10
8.6048298 6.1765833 0.64230704 11
8.6831808 3.9807584 1.5773925 13
8.5492268 6.4831123 1.3841084 13
8.6224241 6.2089381 1.7808627 14
8.4997835 6.0819354 2.0036888 15
8.8892078 1.8696611 -0.072652616 7.6666665
9.042098 6.1746969 0.91098195 11.666667
8.9153051 6.4381547 1.4147013 13
9.1889391 4.04074 2.4088299 15
9.0393572 5.2301459 2.137022 15
9.1777163 5.7469296 2.066057 15
8.804287 6.0895 2.0142376 15
9.2232285 2.4626663 -0.064718753 8
9.3590679 2.6836517 0.020543447 8
9.4079685 6.0165963 0.099758372 9.5
9.4093637 6.2626553 0.26714417 10
9.3207998 6.084589 0.50950974 11
9.45578 4.1747179 1.3885437 12
9.245574 4.3441343 1.3701975 13
9.5406847 6.1167421 0.9347173 11.5
9.4352026 4.1172638 1.7508454 13
9.5595703 6.2459335 1.4671118 13
9.2962751 6.3462586 1.2807264 12.5
9.3983974 4.2310009 2.0735714 14
9.3890715 6.1326199 1.8447317 14
9.5241957 4.560595 2.2350872 15
9.285696 4.9663854 2.1858144 15
9.4253216 6.0274663 1.9799265 14
9.8345213 5.9803061 0.11110719 9.5
9.8570089 6.0682039 0.70137548 11
9.9687719 6.0750294 0.97368413 11.5
9.9556847 6.1750765 1.5012187 13
9.9649992 2.250972 2.4925547 15
9.7931938 6.0650425 1.8917649 14
9.693656 3.4546397 2.4786229 15
9.9550762 3.8499744 2.3330636 15
9.7162104 4.1326442 2.2793677 15
9.9839249 4.7641692 2.1878707 14
9.7746887 4.9432282 2.1523185 14
9.6664257 5.1678305 2.136719 14
9.6465378 5.8552089 2.0053232 14
10.307416 3.0136817 -0.27134645 7
10.275085 5.9325433 0.12318274 9.5
9.9960566 6.3038778 1.010376 12
10.350703 2.6003938 2.5838881 15
10.235237 3.3182182 2.4069376 15
10.047343 3.6295638 2.3585932 15
10.327576 4.2256603 2.2463214 14
10.667168 2.7783082 -0.78388131 6
10.522462 2.8695018 -0.38556233 7
10.776641 5.8963876 0.13695659 9.5
10.434417 6.1820197 0.23033063 10
10.483834 6.0615945 1.0209768 11.5
10.5017 2.8727643 1.8738853 13
10.527745 3.2925994 1.8840754 13
10.615025 5.9169288 1.5569949 13
10.460973 2.2775764 2.4945178 14
10.500054 2.4988573 2.1531072 13.333333
10.504718 2.911598 2.1878884 13.75
10.538452 3.3789978 2.1883242 14
10.562528 3.6801372 2.0949774 13.5
10.618334 4.2087817 1.9818349 13.333333
10.633756 4.8595886 2.1242304 14
10.454759 6.1506171 1.5482571 13
10.497694 2.5276251 2.4922483 14
10.409139 2.9968388 2.4545059 15
10.571969 3.9108257 2.2921839 14
10.821447 2.1056571 -0.24283412 7
10.913341 6.0079718 0.9686715 11
10.95219 6.2402663 1.0737952 11
10.908555 2.1502504 1.9306252 13
10.835214 3.280478 1.8380212 13
11.149462 6.084548 1.173885 12
11.514807 2.7746625 -0.14348549 8
11.418447 5.9493794 1.0094175 11
11.650588 6.0202665 1.2297573 12
12.161266 3.7489645 1.4028363 11
12.089942 4.0224495 1.3791769 11
12.063507 5.9401407 1.0589968 11
12.125742 5.9278789 1.2822421 12
12.498956 5.7914982 0.33752742 9
12.64214 5.848877 0.58624262 10
12.676372 5.8713312 0.84479618 10
12.485967 5.7651916 1.3273079 11
12.669593 6.1321306 1.3584573 12
12.670344 4.8898754 1.7415396 12
12.94979 3.2990894 -0.5879488 7
13.157033 5.7457795 0.36385283 9
13.076117 5.6881995 1.3923621 11
13.2616 2.391252 0.22492766 8
13.300852 3.0356736 0.18839459 8
13.33147 3.3643844 0.16948117 8
13.458876 4.7361789 0.090630241 9
13.294621 2.6964042 0.58558822 9
13.320071 3.1653695 0.55374163 9
13.360669 3.5545721 0.58106279 9
13.386311 3.8156936 0.5110575 9
13.377774 4.2178373 0.41862929 9
13.485109 4.8415737 0.44147608 9
13.517281 5.5477219 0.39165506 9
13.435634 6.0385365 0.28643879 9
13.288312 2.7906563 0.88368726 10
13.339952 3.175189 0.950104 10
13.345873 3.624517 0.86517566 10
13.380487 3.9685428 0.86094099 10
13.352753 4.5696044 0.78737223 10
13.579496 5.7060671 0.78536707 10
13.513844 5.491302 0.89795029 10
13.33749 5.7978101 0.8807025 10
13.448358 3.1247482 1.8077426 12
13.68413 5.048007 -0.31520328 8
13.692621 5.2624178 0.41846219 9
13.64335 5.4151945 0.31328937 9
13.757915 5.1797571 0.62317389 10
13.800151 5.2340088 0.91906255 10
13.815249 5.6427221 1.4736159 11
14.206476 2.6232541 1.3664075 10
14.181434 5.0009418 0.94557691 10
14.038871 5.9758325 1.4634253 11
14.718678 4.8091626 0.97707713 10
14.592122 5.5783648 1.2721659 11
14.504355 5.9816861 1.9569598 12
15.447583 2.9290607 1.8129033 11
15.461165 3.2867048 1.7914001 11
15.486725 3.6653154 1.767446 11
15.506301 4.0320058 1.7477483 11
15.559861 4.4147925 1.7306812 11
15.460277 5.5038466 1.3449006 11
15.413496 3.1995482 2.0263219 12
15.434658 3.9628236 2.0303276 12
15.477014 4.5547013 2.0399017 12
15.370393 5.1120877 2.0343382 12
15.656467 3.1733084 -1.0560409 6
15.675211 2.7900274 -0.73196632 6
15.945833 2.6501527 -0.2611976 7
15.628884 5.604207 2.0687954 12
