# .PCD v0.7 - Point Cloud Data file format
VERSION 0.7
FIELDS x y z intensity
SIZE 4 4 4 4
TYPE F F F F
COUNT 1 1 1 1
WIDTH 697
HEIGHT 1
VIEWPOINT 0 0 0 1 0 0 0
POINTS 697
DATA ascii
-8.0994787 -1.3724947 1.6230876 14
-8.1301241 -1.2311634 1.554939 14
-8.0773211 -1.3887386 1.7337321 14
-6.8818145 -13.09974 -0.26253903 8
-6.644702 -13.262621 -0.23286192 8
-6.5905175 -9.1223478 -0.23917267 7.5
-6.7035913 -1.7545727 0.044360392 8
-6.759563 -1.6520514 0.27202138 9
-6.6258841 -1.782952 0.72107911 11
-6.6385183 -1.7969267 1.5351517 14.4
-6.7784491 -1.4392476 1.6524535 15
-6.6565537 -1.0678012 1.6502392 15
-6.5590334 -0.82071537 1.4934789 15
-6.8230543 -14.177353 1.8113617 11
-6.6725502 -13.738327 2.8607271 13
-6.0364237 -13.349901 -0.66052175 7
-6.1621752 -13.216676 -0.23957631 8
-6.0954738 -9.3093214 -0.24604312 7.5
-6.1414804 -13.278108 0.14249 8
-6.1098719 -1.9239933 0.49314067 10
-6.2286706 -13.621394 0.5195325 9
-6.2416182 -1.9346559 0.67004853 11
-6.1755409 -14.410809 0.89005226 10
-6.0636568 -1.9337475 1.319702 14
-6.2415237 -1.9069875 1.4418739 14.5
-6.4439898 -0.88108623 1.5229459 15
-6.3943973 -0.64976782 1.4779962 15
-6.2703028 -14.28757 1.8138202 11
-6.3730831 -12.021739 1.9337231 12
-6.1085896 -13.917444 2.4988472 13
-6.3679996 -13.846407 2.8502934 13
-5.7498651 -13.518652 -0.67146027 7
-5.6593947 -13.492709 -0.31044066 8
-5.6350689 -9.4834452 -0.37865666 7
-5.7388339 -1.6439146 0.068090051 9
-5.7125006 -1.5967636 -0.11316215 8
-5.8404622 -13.425862 0.1473016 8
-5.9206295 -9.3914595 0.11051866 8.666667
-5.6345482 -7.9780769 0.064698294 8
-5.6616974 -2.1422789 0.46735704 10
-5.6504927 -1.7863525 0.36112252 9.5
-5.8477621 -1.5664238 0.26491144 9
-5.7308316 -2.0809841 0.70902354 11.666667
-6.0215859 -1.9611444 0.6586293 11
-5.8681831 -14.5571 0.88518667 10
-5.7527404 -2.041908 1.0980755 13
-5.8359604 -2.0088613 1.2750537 14
-5.9452405 -1.9878505 1.5393648 15
-5.9776077 0.59576142 1.4763718 15
-5.8572135 0.98681724 1.51241 15
-5.7371359 1.3844635 1.5312064 15
-5.6711764 1.6210293 1.5692829 15
-6.0174999 -14.44589 1.6661901 11
-5.913969 -13.353163 1.59486 11
-5.7651248 -14.492345 1.8319783 11
-5.7673655 -12.176856 1.9237962 12
-5.9086933 -13.991414 2.8352394 13
-5.4453564 -13.63904 -0.6806832 7
-5.1893258 -10.824124 -0.47760853 7
-5.3177037 -2.0068738 -0.27237481 7
-5.2645993 -1.8071293 -0.23867984 7
-5.3462873 -13.600426 -0.33670598 7
-5.306942 -10.711947 -0.14648388 8
-5.4265738 -9.5312567 -0.20751876 7.6666665
-5.286953 -2.1560452 -0.04948581 7.75
-5.3186784 -1.8465759 -0.032220393 8.1999998
-5.4350886 2.2412643 0.097964905 8.333333
-5.376174 2.3997967 0.024865339 8
-5.5144968 -13.512102 0.15399721 8
-5.3075023 -2.1415722 0.30061153 9.666667
-5.3449483 -1.8307749 0.27912518 9.3999996
-5.4271412 2.3165555 0.36731902 9.5
-5.3334227 2.4445868 0.29091829 9
-5.3343172 -14.087667 0.52520061 9
-5.4670987 -2.1455305 0.70698172 11.666667
-5.42097 2.2033491 0.93154532 12.333333
-5.378499 2.4031084 0.96647316 12.5
-5.5186725 -14.594468 0.87667298 10
-5.4239902 -2.1575606 1.1576638 13.75
-5.532321 1.8730539 1.2027864 14
-5.4366298 2.1991074 1.3008041 14.111111
-5.5283337 -2.1194112 1.4489601 15
-5.5805769 1.8150845 1.5966157 15
-5.5152359 2.0140505 1.6308751 15
-5.3970866 -10.763246 1.749452 12
-5.417263 -14.595144 1.842044 11
-5.4792171 -12.27354 1.9245924 12
-5.4822149 -14.131583 2.4991114 13
-5.4515686 -14.135178 2.82535 13
-5.0342684 -13.704476 -0.36044419 7
-4.9794874 -2.2568057 -0.052623477 7.6666665
-4.9082985 2.2444005 0.094043709 8
-5.0994635 -13.725223 0.064772047 8
-4.9841452 -2.2535994 0.38347563 10
-4.8534904 3.7570212 0.7022053 11
-5.0462599 -14.275721 0.52865225 9
-5.1845517 -10.693093 0.47556612 9
-4.9994273 -2.2172792 0.76763052 12.333333
-4.8737979 3.7845094 0.9258194 11.75
-4.8590298 -14.768967 0.86980397 10
-5.0533657 -2.2955794 1.1734246 14.142858
-4.9571223 3.3548312 1.2924845 14
-4.873817 3.7602057 1.2132796 13
-5.0421085 -2.2838032 1.422366 15
-5.1060634 -14.723343 1.5405873 11
-4.9284449 -12.525816 1.9408503 12
-5.2093396 -12.410851 1.9328982 12
-5.1057458 -10.380484 1.9740649 13
-4.6809878 -13.816905 -0.31924719 7.5
-4.5613313 -2.44964 0.056650907 8.5
-4.7650781 -2.3656712 0.0063417573 8
-4.7106318 2.2540836 0.13575062 8.333333
-4.5927544 2.5896239 0.10015683 8
-4.5042901 2.9794047 0.15883902 8.3999996
-4.4197116 3.2381005 0.20001461 8.5
-4.5421176 -2.449605 0.44169545 10.5
-4.7516885 -2.3844843 0.35400215 10
-4.7113485 2.2842114 0.44475847 10
-4.6179934 2.5336051 0.48106736 10.125
-4.5155716 2.9799061 0.52912414 10.5
-4.6239209 3.3861732 0.66138673 11
-4.6168404 3.8344955 0.71636391 11
-4.5575461 -14.979292 0.54573643 9
-4.4848704 -2.4738309 0.78704965 12.5
-4.6704044 -2.3949416 0.79908383 12.5
-4.7255573 2.2870252 0.94374108 12.5
-4.633698 2.5279441 0.94062936 12.4
-4.5364256 2.9497204 0.94652367 12.5
-4.7493396 3.4749022 0.9867453 12.5
-4.7253909 4.1699448 0.89145118 11.5
-4.6206231 4.5601964 0.93921643 11.5
-4.4893222 4.975646 1.0283039 11.666667
-4.537766 -14.871144 0.86790693 10
-4.6039014 -2.443594 1.0655357 14
-4.6875215 -2.3940561 1.206167 14.666667
-4.7206898 2.289506 1.2416582 14.5
-4.6384654 2.5423095 1.3082459 14.6
-4.5819468 2.7919919 1.3588084 14.5
-4.56004 3.355819 1.3543998 14.5
-4.580801 3.7535844 1.4007959 14.25
-4.7362199 4.1229119 1.2844115 13
-4.5738311 4.4310021 1.3189906 13
-4.512948 -14.887735 1.418594 11
-4.8075089 3.0525603 1.5645008 15
-4.6665459 3.1840925 1.5823123 15
-4.7705655 -14.805685 1.5178465 11
-4.7602296 -8.8358898 1.9932344 14
-4.6465511 -12.633707 1.9488726 12
-4.6145062 -9.0105715 2.0038159 14
-4.8572698 -13.368966 2.3677697 13
-4.554893 -14.459556 2.8217583 13
-4.3459029 -2.4782817 0.001510971 8
-4.2685599 -2.2253191 -0.12903731 7.5
-4.3631549 -1.9719136 -0.099378161 8
-4.3719993 3.3865147 0.15166259 8.333333
-4.2372375 3.7960427 0.22279882 8.5
-4.0918193 4.1981287 0.27769542 8.5
-4.0376072 -7.3188872 0.065235615 8
-4.1901979 -2.5674288 0.35866746 10.142858
-4.1823635 -0.9778775 0.3969661 11
-4.3601727 3.4354596 0.44209 9.666667
-4.2679629 3.8737371 0.55955392 10
-4.1872087 4.1416631 0.61952877 10.25
-4.134778 4.4477186 0.58283293 10
-4.3989749 5.1075916 0.75208879 10
-4.1941843 -2.5598311 0.79396623 12.8
-4.4263248 5.0996847 0.87640166 11
-4.2457232 5.3217716 1.0295366 11.333333
-4.2630296 -2.5346038 1.1648499 14.75
-4.4012303 3.917809 1.3193446 14
-4.3321633 4.2208385 1.3500205 13.6
-4.202888 4.5542107 1.3772234 13.333333
-4.0869002 4.9641018 1.3865627 13.5
-4.1819901 -14.988966 1.3969458 11
-4.4266176 3.914418 1.5738661 15
-4.3729405 4.1444016 1.6269766 15
-4.2176027 4.4331083 1.6915668 15
-4.29318 5.7835279 2.0504119 15
-4.2279196 5.9825525 2.1013665 15
-4.3466063 -12.760617 2.1135142 12.5
-4.2097754 -9.3922939 2.6785796 15
-4.2507157 -14.550011 2.8220119 13
-3.7742531 -4.711936 -0.31449568 7
-3.6813743 -5.9368262 0.035432678 8
-3.7683113 -4.7240901 -0.020123187 8.1999998
-3.7158172 -2.6484103 0.085418984 8.5
-3.6456273 -2.2099237 -0.030181112 8
-3.6184855 1.4162598 0.15097409 8.5
-3.9439204 4.5998831 0.30928066 8.333333
-3.9049764 4.8260183 0.21582085 8
-3.7478027 -4.73523 0.3328661 9.5
-3.811373 -2.6859655 0.38607559 10.571428
-3.9016023 4.6538773 0.51363111 9.5
-3.8628881 5.0054588 0.59261459 9.8000002
-3.7574463 5.2557383 0.61179465 10
-3.6231084 -4.8312964 0.57334077 11
-3.8568964 -2.6669562 0.84083796 13.285714
-3.742856 5.3161798 1.0468885 11.6
-3.7679586 -5.9327111 0.96865737 12
-3.6899657 -4.8240938 1.1992035 14
-3.9112215 -2.6518521 1.1693739 15
-4.0305438 5.047204 1.4777033 13.5
-3.8225899 5.2834678 1.4658141 13.5
-3.7694328 -5.9340639 1.326476 14
-3.7183647 -4.7722564 1.3535649 15
-3.9263377 4.9212236 1.8035645 15
-3.7743161 5.9056106 2.0633154 15
-4.0357594 6.0039501 2.1001101 15
-3.8923669 -12.744195 1.9567983 12
-3.8815901 -9.4737644 2.6359894 15
-3.9385927 -14.637642 2.8239729 13
-3.27373 -4.7518444 -0.033887479 8
-3.3527565 -2.8269958 -0.0067442665 8
-3.5279028 -2.7578995 0.080444187 8.5
-3.531661 -2.1729321 -0.091788307 8
-3.4507642 4.5831995 0.25362796 8.5
-3.5104673 -4.899632 0.29876998 9.333333
-3.3237481 -4.7287431 0.32434043 9.5
-3.3530631 -2.8332946 0.38456303 10.833333
-3.4963512 -2.7766955 0.46679819 11.25
-3.4738283 1.4752244 0.43582895 11
-3.4965186 1.5983413 0.38346848 10
-3.6160641 5.4230356 0.71077746 10
-3.4267647 -4.9473882 0.82801688 12
-3.333739 -4.7936716 0.72555482 12
-3.4540298 -2.83424 0.91733271 14
-3.4511077 -2.7911839 0.82278454 13.5
-3.4354203 5.3921599 1.0923246 11.666667
-3.5209074 -12.500657 0.77379966 10
-3.5028715 -4.949995 1.1137589 13.5
-3.5146253 -4.7719774 1.0203432 13
-3.4312537 -2.8046718 1.101033 15
-3.4101748 5.3541398 1.4825671 13.666667
-3.6222003 -4.8562293 1.3505579 15
-3.3079147 5.2942147 1.7159767 15
-3.2866168 5.7151241 1.9944733 15
-3.3995984 -12.630473 1.9432786 12
-3.6064916 -14.734458 2.5400288 13
-3.4599247 -9.6202812 2.595629 15
-3.4867146 -14.80329 2.8354435 13
-3.2044249 -4.7608519 0.15938088 9
-2.9886119 -3.8051574 -0.013619944 8
-2.9954472 -2.8771148 -0.01174556 8
-2.8930478 4.3789968 0.37915233 9
-3.0579493 4.4430633 0.26824781 8.333333
-2.8953907 -3.8656075 0.22074547 10
-2.9975629 -2.865931 0.40750027 11
-3.1781878 -2.8015411 0.29556146 10
-3.0192862 4.4826097 0.48415592 9.5
-2.861187 -8.0841093 0.61911219 10
-2.9970815 -2.8777499 0.81205249 13.833333
-3.1839459 -2.7982075 0.90528154 14.5
-2.8554618 5.1544785 1.1658759 12
-3.0111804 5.2285686 0.98293602 11.666667
-2.9592454 -2.8852069 1.0469075 15
-3.0888994 -2.8286738 1.0633976 15
-2.9307103 5.1623497 1.3151296 13
-3.0589221 5.2472725 1.4575891 13.666667
-3.1767018 -12.643743 1.5485356 11
-2.8699777 5.120585 1.6681243 15
-3.0231755 5.3241858 1.8001376 15
-3.0374444 -9.7650557 2.5606117 15
-3.2192073 -9.6550179 2.6509748 15
-3.0309627 -14.972493 2.8505688 13
-2.4326706 -8.1333141 -0.27750447 7
-2.5186243 -7.9348407 0.035130322 8
-2.6810505 -3.0259633 -0.019947497 8
-2.6403229 4.3112974 0.33053172 8.5
-2.6296284 -7.9582667 0.23413682 9
-2.6995347 -3.0306396 0.37132931 10.857142
-2.6416352 4.3210588 0.47214976 10
-2.4878004 4.5686665 0.61809832 10.333333
-2.8119149 -10.027926 0.46965203 9
-2.690392 -3.0425761 0.82845098 14
-2.6353524 5.0916476 1.0207882 12
-2.820596 5.1994467 0.88344848 11
-2.8144896 -2.9220672 1.0277877 15
-2.6066859 5.0717278 1.477891 14
-2.6762197 5.0535369 1.649785 15
-2.559983 -12.911166 1.997772 12
-2.6476912 -9.8449554 2.5745165 15
-2.7293918 -15.108996 2.868192 13
-2.2700727 -8.0637865 0.023700831 8
-2.2783961 -7.9576225 -0.024598945 8
-2.0016389 -7.2792125 -0.21392876 7
-2.2016611 4.3272233 0.32277474 9
-2.2592223 4.4974785 0.42385429 9
-2.3098845 5.4710112 0.38412365 9
-2.2576547 4.3605895 0.45068079 9
-2.2422814 4.6517611 0.52617949 10
-2.260695 5.0153699 0.5447163 9.5
-2.1986473 5.4080024 0.58583122 9.6000004
-2.3145447 4.9901476 1.0199871 12
-2.2431505 5.4094729 1.0910099 12
-2.3174524 4.9797492 1.457168 14
-2.2006459 5.3411336 1.498046 13.75
-2.264616 -12.89621 1.3325843 11
-2.3002081 5.389101 1.7419044 15
-2.2713075 -12.957287 2.0121398 12
-2.3462455 -15.170303 2.612525 13
-2.33167 -9.9521179 2.5651243 15
-2.4093354 -15.157463 2.8721802 13
-1.8565124 5.0418897 0.41025543 9
-2.00437 -7.8123646 0.43836939 10
-1.9041001 -7.4347091 0.26006672 9
-1.8475301 5.1285753 0.55072248 9.5
-1.7594613 5.2463989 0.58248782 10
-1.810914 5.0853853 1.0082401 12
-1.7518446 5.2175522 0.95223165 11.5
-1.8324902 5.0604758 1.4523153 14
-1.8151381 5.2300453 1.5093772 14.333333
-1.8367603 5.1342998 1.6798915 15
-1.8233873 -14.552365 1.9656307 12
-1.8488035 -13.103971 2.0481515 12
-1.8427726 -10.099301 2.4905961 15
-2.0101354 -10.045562 2.5554264 15
-1.7791024 -15.36936 2.9052782 13
-2.0957358 -15.273598 2.8891916 13
-1.5107385 -11.292903 -0.48747993 7
-1.5211313 -7.5073419 -0.36344463 7
-1.473748 5.0787992 0.61012715 9.7142859
-1.4536721 5.0606346 1.0037783 12
-1.4381204 5.0564027 1.4623951 14.222222
-1.3213583 -13.180767 1.4852014 11
-1.445559 -10.226903 2.5846882 15
-0.89508802 -6.7003288 0.16221654 9
-0.90346962 -4.5384402 0.085933775 8.5
-0.97657394 -3.7514412 0.072935782 8.5
-0.96794599 -3.5536411 0.054975461 8.25
-0.83776116 2.6357832 0.37891448 11
-0.92204946 -6.6719055 0.30405876 9
-0.98698926 -4.5242248 0.45796305 10.8
-0.98212963 4.7619581 0.72063428 10.666667
-0.97473395 4.9461255 0.67347133 10
-0.91371566 -6.5642505 0.72488403 11
-1.1202077 -4.6698303 0.66278976 12
-1.0853001 4.7537513 1.1349183 13
-1.0172411 4.9507933 1.0318576 12.428572
-0.96421784 4.7568779 1.3641568 14
-0.97835773 4.9272809 1.4515159 14.666667
-1.0831697 -13.268324 1.412272 11
-1.1779444 -10.30333 2.4785252 15
-1.0364513 -15.463371 2.6987808 13
-0.95836687 -10.445074 2.4945357 15
-1.132908 -15.534874 2.9397304 13
-0.42420244 -1.4251944 -0.23059329 3.5
-0.42523345 -0.93382943 -0.23212549 2
-0.42132995 -0.66476601 -0.23774575 0
-0.59586829 -4.5210495 0.051089175 8.1999998
-0.80019212 -3.6106544 0.10801939 9
-0.61731368 2.5531359 0.39864525 11
-0.76490915 -5.2630172 0.50291604 11
-0.80181754 -4.9529996 0.29869017 10
-0.77308202 -4.6044326 0.47873741 11
-0.53258824 -4.3125801 0.46862492 11
-0.67684329 4.9611068 0.72626883 10.4
-0.50653505 -4.6493073 0.66851854 12
-0.65405911 4.9405432 1.0924023 12.714286
-0.64845783 4.9451661 1.4577463 14.666667
-0.7793566 -13.791112 1.9538991 12
-0.59295881 -14.713696 2.3477912 12
-0.74624616 -14.421872 2.7548389 13
-0.8761211 -10.401336 2.6323385 15
-0.05227381 -3.6479158 -0.10607798 7
-0.19320542 -2.8213677 -0.12537239 7
-0.10769263 -2.552767 -0.23184037 5
-0.1916707 -2.18505 -0.23164375 5
-0.21815376 -1.7932031 -0.22814497 4.3333335
-0.1825144 -1.3763214 -0.22187941 3.5
-0.18555653 -0.95983076 -0.22640339 1.5
-0.20763436 -0.65834844 -0.22262691 0
-0.11752421 1.4519745 -0.2001408 2.6666667
-0.14461945 1.7956001 -0.19921927 3
-0.23853974 2.1178834 -0.20859163 4
-0.1083901 2.6064384 -0.14133246 4.8000002
-0.088357836 3.0040138 -0.16792323 5
-0.36099359 -4.6102304 0.067422844 8.5
-0.18694116 -3.6889932 -0.0055906228 7.5
-0.061317753 -2.6923332 0.12406732 9
-0.27541834 -6.0485053 0.5407753 10
-0.23130172 -4.2417283 0.52300036 11.5
-0.093784548 -3.8135834 0.40278086 11
-0.17477688 -2.5556669 0.47944456 13
-0.083450966 4.7639365 0.74552786 10.666667
-0.24828155 4.8209748 0.76107645 10.5
-0.077942222 4.7525172 1.0896246 12.666667
-0.26844677 4.815033 1.1425773 13
-0.26796067 4.8179426 1.4489816 14.5
-0.14779598 -13.501191 1.9773706 12
-0.25184193 -13.932278 2.2639542 12
-0.32244888 -13.508389 2.4233646 13
-0.25378436 -10.297833 2.4326739 14
-0.41175237 -13.48582 2.6026254 13
-0.11794384 -12.818861 2.4981728 13
0.17807148 -2.8515816 -0.096844673 7
0.23375972 -2.5185413 -0.21006493 5
0.25598496 -2.1459014 -0.20366998 5
0.18067504 -1.7840714 -0.19960366 4.5999999
0.21303473 -1.3669057 -0.20022963 3.6666667
0.20509137 -0.98470116 -0.21018426 1.7
0.27271494 -0.65781015 -0.20461985 0.14285715
0.29780361 0.65481848 -0.1822826 0
0.23640637 1.0205299 -0.1906909 1
0.27201977 1.3916456 -0.17605822 2.5999999
0.20026712 1.8208404 -0.17350017 3.4000001
0.19360428 2.1689172 -0.17124476 4
0.32988954 2.6080041 -0.16286889 4
0.32264587 3.1080687 -0.17255487 5
0.31561533 3.5253701 -0.17738694 5
0.27921632 4.8132696 -0.14377514 5
0.15528738 -7.1117101 0.19864683 9
0.0030099873 -3.6740394 0.058880359 8
0.15437153 -2.8067522 -0.0085792141 8
0.20773883 -2.707499 0.098459207 8.75
0.17515177 4.8753023 0.19538085 7
0.038652387 -7.1432095 0.24352559 9
0.1711392 -4.092423 0.54598778 12
0.20379588 -3.7797067 0.45585251 11
0.22221394 -2.6794503 0.65880752 14.5
0.1650051 4.6875567 0.74398309 10.666667
0.13049221 -4.3454609 0.70739114 12
0.35832939 -2.7738235 0.75832146 15
0.15580016 4.6788626 1.131862 13
0.14077336 4.6850309 1.4285384 14.5
0.05430482 -13.584853 1.3469294 11
0.098399147 -10.765817 2.5198236 14
0.62288064 -4.5691247 -0.15567239 7
0.59581655 -2.9316359 -0.19209926 6
0.58455944 -2.7395141 -0.19903389 6
0.53951281 -2.1568749 -0.18413341 5
0.636931 -1.797166 -0.1758478 5
0.57255584 -1.3230374 -0.18398353 3.6666667
0.60993975 -0.97397095 -0.19196849 2.4444444
0.5773682 -0.58069235 -0.18688469 0.66666669
0.57274616 -0.35253879 -0.18832994 0
0.70146751 0.25553012 -0.15877852 0.2857143
0.63246781 0.60901773 -0.16111358 0.66666669
0.6282863 0.97545391 -0.16471934 1.6666666
0.63743383 1.4001334 -0.15478545 3
0.583215 1.77701 -0.15506999 3.6666667
0.63016886 2.2151449 -0.14477713 4
0.66701424 2.5360837 -0.14542019 4
0.71878791 2.9852242 -0.14702454 5
0.79454744 3.63486 -0.15226814 5
0.68904167 -4.6049228 -0.0042081866 7.5999999
0.61743098 -3.6466165 -0.057240501 7
0.63935131 -2.8652682 0.11717478 8.666667
0.39984873 -2.7971959 0.070008688 8
0.7584362 4.6628757 0.35913131 8
0.56348509 -5.8529758 0.31424072 9
0.6930505 -4.8610878 0.52930701 11
0.66763246 -4.2324734 0.47362307 10.666667
0.54304183 -3.6639519 0.44031322 11
0.5387066 4.5582976 0.77800643 11
0.53751338 -2.9050567 0.79926032 15
0.50169235 -2.7787795 0.79343873 15
0.54819119 4.5499797 1.0800704 12.875
0.51564533 4.5577788 1.4489703 14.75
0.55837566 -11.659903 2.0125763 13
0.83909684 -4.3015676 -0.18691759 6
1.034135 -3.1402194 -0.15497078 6
0.92061836 -2.5719688 -0.1703243 6
0.94270718 -2.177552 -0.16319428 5.3333335
1.0103925 -1.7795097 -0.15166807 5
0.96410465 -1.3935727 -0.15271838 4.5999999
0.86960816 -0.94343919 -0.172474 3
0.97093928 0.25168604 -0.14259425 1.8571428
0.98984098 0.58481324 -0.1463819 2
1.0196779 0.99214053 -0.13633284 3
1.0465941 1.3606023 -0.1283593 3.8
0.95297807 1.7878054 -0.13075052 4
1.0003142 2.1116092 -0.12228581 4.3333335
1.0308617 2.6278245 -0.1247194 5
1.1466099 3.0929093 -0.12119932 5
0.88412917 4.3845983 -0.16549307 5
0.89436346 4.5646834 -0.13104188 5
0.84807628 -4.2370019 0.21541397 9
0.82911801 -2.8857167 0.11284307 8.5
0.80652505 4.6497345 0.19406788 7
1.0554118 -5.1159887 0.61143261 11
1.0216208 -4.1236758 0.49824736 10.8
1.0969172 4.3705916 0.69357526 10.5
0.95447683 4.4199739 0.77222896 11
0.96506453 -5.0943785 0.72021645 12
1.1296532 4.3561273 1.1224623 13
0.93728846 4.4187388 1.1112255 13
1.1075288 4.3528647 1.4651172 15
0.92684841 4.4186416 1.4742836 15
0.9016335 -11.353489 1.5520185 12
1.0553159 -9.9610806 1.9647762 13
0.78260499 -10.737234 2.8700802 15
1.5295247 -8.186902 -0.21400322 7
1.4118598 -4.9426432 -0.16411316 7
1.3871306 -4.7664852 -0.20308006 6
1.2324498 -4.0361152 -0.19407459 6
1.4147209 -2.9246817 -0.14748022 6
1.3094031 -2.6267931 -0.14810848 6
1.3193496 -2.2090225 -0.13902667 6
1.2726856 -1.7543715 -0.13408348 5
1.4436392 0.35356933 -0.11859607 3.3333333
1.3520213 0.60967046 -0.11456193 3.5999999
1.4003726 0.97337276 -0.10967476 4
1.4000831 1.3809388 -0.1143575 4
1.4491286 1.7486714 -0.11051092 4.3333335
1.240497 2.1831486 -0.11057682 5
1.4190565 2.6361947 -0.10101214 5
1.5561144 2.9809282 -0.097797282 5
1.2938244 3.6698332 -0.12909108 5
1.4531173 4.3554091 -0.085693404 5
1.4046994 4.4311852 0.14173575 7
1.5080416 -6.0397701 0.26731721 9
1.5193239 -6.0023818 0.20508091 8
1.3596709 -4.9902472 0.038886361 8
1.5813487 -3.1876869 0.13382873 8
1.54722 0.62945014 0.36089301 11.777778
1.5834689 0.81149286 0.37235808 11.5
1.3863236 4.2776623 0.55791289 10
1.3364128 4.4502583 0.38786456 8
1.4703933 -8.8316994 0.39148 9
1.2178208 -4.0375624 0.65939623 12
1.2996583 -3.0575132 0.67936659 13
1.5369865 0.6401462 0.52173936 14.333333
1.5787644 0.81428385 0.57895261 14.5
1.3463314 4.2889023 0.76576364 11
1.3423343 -3.1498399 0.84723508 14.5
1.3939279 4.2640581 1.1257337 13
1.3847827 4.2615228 1.4818333 15
1.3811299 -9.5425787 1.4018559 12
1.3766197 -9.4732456 2.2626312 14
1.633732 -8.1574459 -0.21814647 7
1.9266273 -3.0439379 -0.11466486 6
1.6923157 -2.5816104 -0.1220675 6
1.7853658 0.55524391 -0.040043436 4.8571429
1.7649592 0.9291507 -0.048721079 4.75
1.8765985 1.3521117 -0.032463793 5.4000001
1.7809151 1.8960849 -0.098467425 5
1.7883465 2.1913328 -0.096635975 5
1.7972277 2.5535359 -0.094638646 5
1.9791889 2.8802667 -0.088689536 5
1.7484286 3.4627063 -0.095941141 5
1.9748415 4.1419988 0.059776932 6
1.7932558 -3.2395167 0.3123298 10
1.6625489 -3.1761222 0.072119623 8
1.9058137 0.20293848 0.33090767 10.75
1.7783821 0.53419119 0.3020297 10.4
1.7054667 0.97565818 0.32952726 10.5
1.8556519 1.3800896 0.33606315 9.8000002
1.9075097 1.7995402 0.44271481 10.5
1.8578522 4.1828127 0.42711425 8.25
1.6027999 -8.9289227 0.26740739 8
1.9436494 -6.0271935 0.56316477 10
1.9210887 -3.2221363 0.41975218 10
1.9237114 0.26623315 0.53917563 13.75
1.8078908 0.48833811 0.56226426 14.2
1.6442325 1.0098068 0.59057862 14.2
1.7697173 1.3924848 0.62920773 13.545455
1.8878098 1.7546556 0.72220248 13.5
1.966122 2.0160398 0.83306414 14
1.7346052 4.158 0.76474309 10.666667
1.9514091 1.9517272 0.93935347 15
1.7400454 4.1469641 1.1445608 13
1.7554777 -6.6771102 1.3970454 13
1.7309132 4.1430087 1.4921534 15
1.775025 -7.7408314 1.7551236 14
1.8272706 -7.6290641 1.6915584 14
1.7689487 -6.7151403 1.6228446 14.333333
1.6069595 -8.9069099 2.1562426 14
2.171731 -5.8971639 -0.12375017 7
2.0074391 1.3254012 -0.048301123 5
2.1606312 1.8741671 -0.028955169 5.3333335
2.3229246 2.6270869 -0.081548616 5
2.0073686 4.1441474 -0.048571609 6
2.0082328 -6.011807 -0.054882012 7
2.2032328 -5.8692193 0.070382208 7.75
2.362638 -4.0496106 0.11087268 8
2.072515 0.19013663 0.34160811 10.7
2.0817225 0.40300867 0.35961556 10.5
2.2026067 1.9830372 0.20458417 7.5
2.1091125 2.1342285 0.39220417 9.1999998
2.1480238 2.5400102 0.43718153 9.333333
2.2800825 2.9368534 0.48063675 9.5
2.3107302 3.9697974 0.50513434 9
2.1350243 4.0332723 0.51750541 9
2.3097107 -6.044971 0.68254238 10
2.1981442 -5.9686775 0.61934191 10.2
2.2386928 -3.3282285 0.4510335 10
2.0284002 0.2094588 0.56309897 13.8
2.0256293 0.41837311 0.57167369 13.666667
2.0295622 2.1851408 0.71926707 12.5
2.1564641 2.5675797 0.75697553 12
2.2829785 2.9586065 0.78487837 11.5
2.3708565 3.2082515 0.64636743 10
2.3145797 3.9641223 0.85058558 11
2.1211982 4.0280623 0.85055196 11.166667
2.1861372 -3.341677 1.0780472 14.666667
2.0195355 2.1694007 0.99418038 15
2.1440732 2.5411136 1.038121 14.5
2.2857285 2.9736693 1.1306071 14.2
2.3019922 3.955735 1.2290032 13.5
2.112987 4.0224166 1.177054 13.2
2.0909038 -6.0028887 1.4979243 14
2.3294156 -3.3848557 1.2064617 15
2.3207486 3.9465001 1.4801533 15
2.1495323 4.0026135 1.5048671 15
1.9595946 -6.5195389 1.7127314 15
2.2436335 -6.057467 1.5442302 14
2.1696897 -5.9569182 1.6273394 15
2.0379777 -7.5039387 2.0765107 15
2.6115186 3.038214 -0.014132767 5.5
2.524179 3.9211364 0.051116332 6
2.549067 -5.8201013 0.094447158 7.8571429
2.7807424 -5.0025325 0.058239453 8
2.421428 -4.0357785 0.20398244 8
2.6158562 -3.4654315 0.21393158 8.666667
2.6119411 3.3289468 0.36025864 8
2.4964688 3.8791974 0.40830415 8.333333
2.4708915 3.9987426 0.38867217 8
2.4695334 -6.0202317 0.71908903 11
2.5393989 -5.8101945 0.70254725 10.5
2.7151184 -5.0401993 0.68222392 10.666667
2.7458041 -2.8217328 0.71463692 12
2.427655 3.3915799 0.7570374 10.75
2.5050828 3.801688 0.8228178 11
2.5250254 -5.8827014 0.92581207 11.333333
2.3683758 -3.3902216 0.95010597 14
2.4111297 3.352387 1.1053158 13.5
2.4825394 3.7838595 1.2320696 13.5
2.7000232 -5.0259962 1.4688065 14
2.5951695 -3.6037188 1.2756329 15
2.3968022 3.3000009 1.3941895 15
2.469857 3.8108351 1.4844906 14.666667
2.4874828 -5.8562927 1.6626745 14.666667
2.8588498 -4.9353495 -0.13476276 6.3333335
3.0804408 -3.6067734 0.27226326 9
3.151839 -3.4178123 0.20460895 8.166667
2.802742 -2.8567922 0.28710985 9
3.1009138 -3.4759245 0.70604867 11.166667
2.8300567 -4.9545083 1.0684509 12.5
2.9019477 -4.817328 0.85760838 12
3.1520803 -3.513787 0.9722985 13
2.8232832 -2.7799811 0.94604897 13.5
2.8197317 -4.9127803 1.4935331 14.5
2.9257958 -3.6476529 1.3638568 15
2.9728751 -3.5425587 1.3623426 15
3.3593204 -3.2141585 -0.035159282 7
3.4341238 -2.996835 -0.018756768 6.6666665
3.5469644 -2.5900185 0.0067075342 7
3.3064973 -3.2945218 0.16924894 8
3.3975232 -3.0378664 0.20583504 7.8888888
3.5427954 -2.5893342 0.24507578 8.4285717
3.282506 -3.2973812 0.66773635 11
3.4174356 -3.0312221 0.64914423 11
3.5241752 -2.6413562 0.64336807 11
3.1903381 -3.4032276 1.0611403 13.666667
3.4048357 -3.0437875 1.0026391 13
3.5062945 -2.6573312 0.99106044 13.333333
3.2167742 -3.3930297 1.4124545 15
3.3582137 -3.0893989 1.4069525 15
3.6749132 -2.202585 0.053262778 7
3.800756 -1.8331238 0.016754327 7
3.9476757 -1.3878812 0.046931867 6.6666665
3.6652107 -2.1997116 0.27882725 8.5
3.795315 -1.8040538 0.29172426 8.4444447
3.9308965 -1.3979784 0.28254268 8.1999998
3.9831476 -1.2028131 0.46740645 10
3.5895796 -2.5034711 0.64956647 11
3.6516671 -2.2378905 0.6746434 11
3.8005161 -1.7873857 0.68699557 11
3.9193068 -1.4142276 0.67936331 11
3.5819349 -2.506552 1.1556042 14
3.6547732 -2.2189114 1.0243284 13.333333
3.7782254 -1.8087972 1.0270212 13.6
3.908124 -1.4187702 1.0854919 13.777778
4.0635829 -1.0364213 0.048265576 6.6666665
4.1279035 -0.57754987 0.08935225 7
4.2300754 -0.26649106 0.12909776 7
4.3844657 0.044216111 0.1491182 7
4.0608592 -0.98164248 0.32156545 8.5
4.1151552 -0.6240651 0.33135644 8.5
4.2582574 -0.20477928 0.31081188 8
4.376174 0.036602899 0.27211627 8
3.9782181 -1.2501925 0.78086597 12
4.0345416 -1.0495685 0.71508664 11.166667
4.1129804 -0.601933 0.69890654 11
4.2279553 -0.23191608 0.71579039 10.888889
4.3708797 0.046371225 0.75855929 11
4.0355415 -1.0141395 1.1388415 14
4.0680799 -0.635005 1.1576798 14
4.1930571 -0.27300519 1.1576068 13.714286
4.3566523 -0.015763327 1.176055 14
4.0718532 -0.51725811 1.3376824 15
4.2167125 -0.23839551 1.3907143 15
4.40835 0.10748608 0.22455831 7.5
4.4147029 0.18048482 0.91733485 12
4.4031501 0.15154661 1.1385916 13.5
4.4093943 0.17641358 1.4472461 15
4.5074582 0.4584797 1.3991923 15
