# .PCD v0.7 - Point Cloud Data file format
VERSION 0.7
FIELDS x y z intensity
SIZE 4 4 4 4
TYPE F F F F
COUNT 1 1 1 1
WIDTH 119
HEIGHT 1
VIEWPOINT 0 0 0 1 0 0 0
POINTS 119
DATA ascii
-4.8274822 3.9687936 0.29704913 9
-4.8606067 3.7146292 1.3567908 14
-4.6237607 2.5383642 0.061381016 8
-4.7902846 4.3126507 0.047199927 7
-4.6561313 2.8514235 0.23621261 9
-4.7996354 3.5340879 0.74002463 11
-4.7124734 2.8011317 1.0112689 13
-4.4685068 1.9330806 0.03055851 8
-4.4605765 1.8427099 0.32589436 9
-4.478478 1.8227106 0.68796563 11
-4.465878 1.6997441 1.1103475 14
-4.5036726 1.8573172 1.3457564 15
-3.5058675 5.889317 1.5476929 14
-3.4938569 5.9267907 1.9100373 15
-3.3642144 4.7271872 0.17541614 8
-3.0314426 5.9379559 1.0438741 12
-3.0791163 5.8262248 1.3974677 13
-2.8431659 5.970962 0.55423725 10
-2.8883317 -0.86152846 0.77869183 15
-2.9597104 5.8289285 0.80769318 11
-2.496578 -3.761626 0.74467951 12
-2.4992015 6.0608912 0.9154371 11
-2.5984521 6.0478473 1.400398 13
-2.529593 6.0730329 1.732635 14.5
-2.321255 -3.9513609 0.1894682 8
-2.1195281 -4.0244546 0.68644083 12
-2.0423551 6.0798903 1.3900902 13
-1.970503 6.1481972 0.65769386 10
-1.8123368 -4.1141167 0.86718428 13
-1.7730709 -3.9918327 0.64172721 11
-1.6521257 6.1590457 1.4522626 14
-1.5756103 -3.9659328 0.13621028 8
-1.3036146 -4.1239233 -0.024212694 7
-1.0093212 -3.8764901 0.19244865 9
-1.1374023 -3.8926346 0.56993312 11
-1.0355097 5.627708 1.2882894 13
-0.95922172 -3.9966016 0.47654939 10
-0.704247 5.6974487 1.6247287 15
-0.54014236 0.6414749 -0.21259141 0
-0.56068087 5.6598864 0.47317827 9
-0.56191069 5.6672101 0.67756498 10
-0.61178249 5.6742721 0.94084036 12
-0.1754576 0.8589465 -0.22141477 0
-0.15102249 1.1195121 -0.22187552 1.5
-0.15998805 -3.8176014 0.012679733 7
-0.17405428 -3.8154051 0.25616068 9
-0.138258 -3.8025777 0.45758328 11
-0.079550445 5.7082434 0.64137226 10
-0.21668442 5.7241235 1.1113203 13
-0.10753965 5.8012547 1.4563639 14
0.0050433017 0.79333603 -0.209158 0
0.081178725 0.94669247 -0.21826392 0.5
0.2604537 0.69237596 -0.20471886 0
0.22308663 -1.1998724 -0.14528182 4
0.29407609 -3.6779213 0.089521743 7.5
0.37953386 5.8063879 0.71465385 10
0.51251191 0.71252555 -0.20375039 0.33333334
0.45349535 0.81801134 -0.198061 1
0.53314018 -1.2852062 -0.082929887 5
0.51838535 -1.0522807 -0.13605079 4
0.42422238 -3.6758225 0.30676308 9
0.478385 -1.1511123 0.31085625 14
0.43202183 5.7852864 0.76502967 11
0.74709409 -1.1003368 0.151847 10
0.74313229 -0.89705169 0.10724441 9.5
0.70317185 -0.72037387 0.27206969 14.5
0.65356481 6.166563 1.5845791 14
0.82340115 -0.8041063 -0.051752202 5.5
0.88005012 -0.50510186 -0.11924531 3
0.8246755 -0.92416322 0.2545689 13
0.90728307 -0.64769596 0.25288403 13
1.0079778 -0.27186477 -0.12225328 3
1.0747452 -0.7670849 0.093689293 9
1.120201 -0.61127728 0.25657371 12
1.1290992 6.4096851 0.67530215 10
1.3180896 -0.68299413 0.12305201 9
1.2646677 -0.61280626 0.21460849 11
1.524601 -0.67947137 -0.055600461 6
1.5916501 5.9063911 -0.057101592 7
1.439671 -0.55441797 0.48351854 15
1.768766 -0.61326444 0.011985967 7
1.6041448 -0.55450159 0.25657055 11
1.5856699 6.5325551 0.88455594 11
1.6100466 6.4243345 1.4176666 13
1.9432385 -0.53409797 0.1548789 9
1.9793135 -0.4883697 0.32606164 11
2.1410086 -0.46675318 0.25990042 10
2.12779 6.7393107 1.9532286 15
2.2570865 4.7375131 0.36159763 9
2.4639838 6.6496072 0.93640804 11
2.7588968 -0.39070445 0.17099005 9
2.8916836 -0.38582417 0.28281534 10
2.8668642 4.9125524 1.0060086 12
2.7829566 5.9930153 1.1237268 12
2.8489759 4.8524489 1.5566235 15
3.0085168 3.7758703 1.0120156 13
3.1303496 4.3379502 1.5029527 15
3.3211434 3.4761567 0.44486323 9
3.2431376 3.4956832 0.90279001 12
3.2322152 3.4732559 1.359341 15
3.4121349 3.3573928 1.1073618 13
3.575305 3.2373056 1.3856205 15
3.7509453 2.0882835 0.10496795 7
3.6785846 2.667932 0.14966953 8
3.6420033 3.1577549 0.41148898 9
3.6083341 3.2989168 0.2691589 8
3.6971004 2.4507711 0.59287083 11
3.6444013 3.1517646 0.55988824 10
3.6814697 2.1113737 0.79009843 12
3.6768663 2.5143571 0.78980839 12
3.6365764 3.2753849 0.71088141 11
3.780426 1.6448619 0.85921085 13
3.6884899 2.0833743 1.1605275 14
3.9569948 0.87033862 0.6387319 11
3.9679608 0.39861053 0.70727664 12
3.9578018 0.82802737 0.7544778 12
4.0602646 0.40755343 0.58644205 11
4.0120802 0.61394608 0.8508628 13
3.9973192 0.66830176 1.1897928 15
