# .PCD v0.7 - Point Cloud Data file format
VERSION 0.7
FIELDS x y z intensity
SIZE 4 4 4 4
TYPE F F F F
COUNT 1 1 1 1
WIDTH 615
HEIGHT 1
VIEWPOINT 0 0 0 1 0 0 0
POINTS 615
DATA ascii
-15.511933 -3.8656306 1.8252071 11
-15.243861 -3.2814763 3.2130044 13
-14.961198 -4.3464303 2.8403816 13
-15.036035 -4.6585827 3.052388 13
-15.021697 -4.1521707 3.3197956 13
-15.029503 -3.7106647 3.4249132 14
-15.186878 -3.6226225 3.1700115 13
-14.969294 -3.358861 3.4493001 14
-14.67656 -5.6996365 3.1549885 13
-14.817233 -4.9269595 3.2013352 13
-14.570389 -2.9420307 3.4026163 14
-14.380723 -6.6422329 3.117794 13
-13.235826 -4.2865829 2.4389298 12
-13.247547 -2.6680694 2.5575233 13
-13.010414 -4.1894584 1.2835151 10
-13.118071 -3.2987959 1.4040366 10
-13.012959 -4.0668697 2.145705 12
-13.123611 -3.3527987 2.1983247 12
-13.071903 -3.4224772 2.4654186 12.5
-12.645305 -4.9847574 1.4775892 10
-12.756541 -4.3945389 1.5090599 11
-12.76506 -5.3489308 2.0575497 12
-12.663987 -5.0123563 2.050796 12
-12.676505 -4.9967937 2.4187706 12
-12.402057 -6.1614161 1.9875669 11
-10.937417 -4.4685111 2.4392691 13
-10.552433 -5.8462148 2.7257671 14
-10.395633 -2.3903875 2.6349096 14
-9.4782629 -5.1676564 1.9772103 12.5
-8.882411 -5.1011496 1.8007636 12
-9.0539064 -5.7550793 2.1201866 13
-8.8918619 -5.699326 2.3856149 14
-9.0497942 -4.8946514 3.0038843 15
-8.8056335 -5.0493608 1.9066273 13
-8.7790146 -3.4775229 2.2768426 14
-8.4721251 -4.8343816 2.8451214 15
-8.3780422 -5.0522752 1.7627392 12.5
-8.3076849 -5.5780311 2.2635765 14
-8.2115974 1.0003264 2.2353647 15
-8.3232327 1.293164 2.1912889 15
-8.3135214 -4.9972296 2.8128581 15
-7.6280508 1.6347617 2.2232232 15
-7.436224 -3.4088635 0.083133668 8
-6.942801 -2.5632911 0.2982679 9
-6.8603268 -2.0797539 0.55656201 10
-6.8695455 -4.7959771 2.4266484 15
-6.5288496 1.1411178 1.8644819 15
-6.4551063 1.5800574 1.7817622 15
-6.5266042 -4.779367 2.3396471 15
-6.1233354 -2.1790977 0.20675923 8
-5.8901396 -3.8981261 -0.03254379 7
-5.8289847 -2.7616019 0.2567651 8
-5.7446842 -2.6052384 0.48426256 9.5
-5.735714 -4.1920195 1.1674157 12
-5.8117585 6.7099514 1.6875961 13
-5.34166 -4.4477167 -0.089656167 7
-5.5042143 -3.8212817 -0.034169108 7
-5.4805493 -2.8993242 0.23765068 8
-5.3089375 -2.4270458 0.30108395 9
-5.525321 -2.377949 0.23625222 8.5
-5.3958826 -3.8222437 0.48873374 9
-5.5756779 -2.910517 0.43474782 9
-5.2464232 4.0890183 0.54902357 10
-5.3342032 -4.0869255 1.1079453 12
-5.2680359 7.0607734 0.83851939 10
-5.4857469 -4.1684184 1.2606097 13
-5.2300534 4.1510234 1.2433405 12.5
-5.3362055 4.5992661 1.2867743 12.5
-5.4102082 4.9553676 1.4215766 13
-5.4720016 5.3724537 1.4364997 13
-5.3204699 7.1132264 1.4236429 12
-5.3010793 7.1918035 1.1926459 11
-5.4394197 -4.5607066 1.6535429 14
-4.990222 -4.1115565 0.19384132 8
-4.9686594 -3.8992662 0.20483816 8
-5.1105456 -2.8502982 0.23246436 8
-4.8376732 -2.1234767 0.052971378 8
-4.9977818 -1.5594389 -0.015987024 7
-4.8134861 3.8532114 0.1753106 8
-4.8624272 -4.4894042 0.72641903 10
-4.9739733 -4.2181492 0.39309102 9
-4.9934983 -3.7882793 0.45082575 9
-4.9589443 -1.3615499 0.70873481 11
-4.9499764 2.822753 0.59277034 10.5
-4.9995241 3.501843 0.59493113 10.5
-4.8415804 3.9005911 0.5918299 10
-4.8259673 4.3369842 0.47493321 9
-4.9398961 4.6102648 0.66016436 10
-4.9731903 4.9178662 0.6138553 9.666667
-5.0358815 5.3043752 0.60825044 9.5
-5.0452161 5.7256403 0.67276877 9.666667
-5.1536202 -4.5547495 0.75161386 10
-4.9595032 -4.2103019 1.0626514 12
-4.9915357 -2.625381 0.75380009 11
-5.0109878 3.1879425 1.0955343 13
-4.9429083 3.4715166 1.0723965 12.5
-4.8482471 3.8268006 0.87064481 11.5
-4.9100003 4.2537498 0.92656541 11.5
-4.9751124 4.6291695 1.0304873 11.666667
-5.0161576 4.988955 1.0228631 11.5
-5.0849967 5.4787602 0.87077421 10.5
-5.0546126 5.8051062 1.0206941 11
-5.0967231 -4.4878807 1.2127216 12
-4.9657054 -4.1215706 1.1610506 12
-4.8288369 3.5223553 1.4968997 14
-4.9493575 3.8495722 1.2456052 13.25
-4.9416046 4.2656155 1.3719639 13.5
-4.989893 4.6207151 1.4411821 13.5
-5.0407805 4.9325137 1.2952901 12.5
-5.1029372 5.4050999 1.3590363 12.5
-5.0658221 5.7511635 1.2316097 12
-5.1328554 -4.4920969 1.5936491 14
-4.882412 2.6806858 1.5740616 15
-4.9495897 2.9555402 1.6441259 15
-4.9518108 3.5091283 1.7720333 15
-5.1291761 3.7769918 1.8597147 15
-5.0632825 5.0327129 1.6959757 14
-5.1220317 5.4277635 1.7099245 14
-5.070363 5.767127 1.6322931 13.333333
-5.2027369 4.1273894 1.9545352 15
-4.6282058 -4.4415603 0.2400886 8.333333
-4.6194878 -4.2663155 0.14971641 8
-4.778687 -1.4764891 0.33345827 9
-4.4614267 1.8335238 0.20286292 8.3999996
-4.5591507 2.2127833 0.16569272 8.333333
-4.5535607 2.6680262 0.16357046 8.25
-4.7010455 3.0176988 0.26641303 8.666667
-4.7499847 3.4369931 0.21012895 8.5
-4.7917013 3.7626736 0.20782703 8.5
-4.6878152 4.2215137 0.22111717 8.2857141
-4.4980917 4.6255312 0.15663083 7.8333335
-4.5217571 4.9665008 0.13984638 7.5
-4.595942 -4.5061431 0.57031089 9.75
-4.670887 -1.2074347 0.59156698 11
-4.4898028 1.9390907 0.56350613 10.5
-4.6014853 2.2148814 0.51275516 10.375
-4.640449 2.555495 0.49078965 10
-4.7204847 2.9950225 0.59392983 10.5
-4.7758136 3.4019027 0.60595667 10.333333
-4.7769947 3.7947528 0.522192 9.666667
-4.663909 4.0213127 0.54497242 9.666667
-4.5803409 5.5111356 0.67055571 10
-4.5632796 5.9371929 0.55997038 9
-4.5158615 -4.4033604 1.0327698 12
-4.5380206 -2.8247662 0.92071503 12
-4.7387543 -2.5302739 0.94641209 12
-4.6051173 -2.1877804 0.93317139 13
-4.4595571 -1.8107799 0.92224962 13
-4.4953427 1.8508523 0.99395764 13
-4.6130762 2.1616437 0.94404656 12.4
-4.6762805 2.5758951 0.9673233 12.5
-4.7443447 3.0268319 0.95646006 12.5
-4.791995 3.3999152 0.97595096 12.333333
-4.5055838 5.4857655 0.83499545 11
-4.5396247 -4.710393 1.51393 14
-4.6189098 -4.4033251 1.4971206 14
-4.6422915 1.0929868 1.3236402 15
-4.5142603 1.425367 1.2958981 15
-4.5773664 1.8204751 1.2991729 14.75
-4.6420074 2.1896846 1.3481246 14.6
-4.6867328 2.5853045 1.4106336 14.5
-4.7376604 2.956917 1.3752973 14
-4.798131 3.3378394 1.4576076 14
-4.5837827 5.5715885 1.3936881 13
-4.7499919 2.9502213 1.6138731 15
-4.8120103 3.3664055 1.7188513 15
-4.6145477 5.8530669 1.5631758 13
-4.0871205 -4.7372184 0.20705196 8.5
-4.2284527 -4.3820457 0.26835918 8.5
-4.2987933 -3.1275911 0.021953234 7
-4.1646886 2.7531791 0.11966871 8
-4.1083999 -4.7168255 0.66745287 10
-4.1387839 -3.0426598 0.37856549 9
-4.2931561 -2.378716 0.68856221 11
-4.0381665 -1.2388095 0.53304052 11
-4.3164654 5.4868107 0.64068681 10
-4.1667643 5.9135122 0.65601695 9.5
-4.1804552 -4.6985865 0.94595832 12
-4.1806092 -4.3766799 1.0076138 12
-4.3085208 -2.2694609 0.891119 13
-4.2530608 -1.8186376 0.9708463 13
-4.2293582 5.5128517 0.81202924 10.666667
-4.1365204 5.8631678 0.90173179 10.666667
-4.1074677 -4.6766815 1.3589399 13.5
-4.1596227 5.5722976 1.3811749 13
-4.2285538 5.9306993 1.2327117 12
-4.26298 -4.3899627 1.7801034 15
-4.2331171 5.872961 1.7531978 14
-3.7704513 -4.6693597 0.23759386 8.666667
-3.8816743 -3.3814306 0.17504127 8
-3.8149662 -2.5845728 0.24166085 8.75
-3.6167974 -1.7578801 0.29694915 9
-3.9141355 -1.1316795 0.078451358 8
-3.9770446 2.8366272 0.14191854 8
-3.8082862 -3.220119 0.63549674 11
-3.6320024 -2.9734948 0.48408464 10
-3.7517564 -2.5298336 0.49142817 10.5
-3.9482615 -2.2217641 0.44817737 10
-3.780488 -1.8025508 0.61147189 11.666667
-3.8744998 -1.4480201 0.54756749 11
-3.8209891 5.8830767 0.63685566 9.5
-3.6756091 -4.2826982 0.90532833 12
-3.726325 -2.5290878 0.88163519 12.666667
-3.7955787 5.8564172 0.90992093 11
-3.8351781 -4.6150842 1.3406422 13.666667
-3.8485291 5.8281946 1.3717213 12.714286
-3.8272746 5.8728209 1.8274884 14.5
-3.4227977 3.80688 0.35627782 9
-3.3996816 4.7268949 0.21832278 8
-3.2671423 4.8059516 0.25053123 8.5
-3.5525589 -2.8732541 0.61401737 11
-3.5563838 -2.6796482 0.57108533 10.666667
-3.4638393 -2.0197587 0.61423159 12
-3.4532561 5.959125 0.60689825 10
-3.2609711 -4.4844971 1.1531384 13
-3.5752399 -4.314641 0.87631178 12
-3.4840555 -2.6630034 0.90735531 13
-3.3902283 5.8672447 0.92141026 11.2
-3.3498936 5.9014659 1.3496826 12.833333
-3.393898 5.9397159 1.7897698 14.333333
-2.8249018 -1.643299 0.11082486 8
-2.8289797 -1.5663962 0.1534021 8.5
-2.8961504 -0.97575217 0.22510581 9.5
-2.9699898 -0.73868871 0.14634159 9
-3.2079287 3.8278797 0.36667213 9
-2.887141 5.938796 0.27984783 8
-2.8840494 -1.0353276 0.54648829 12.25
-2.9376614 -0.53823167 0.57981551 13
-2.9863539 3.8717146 0.37790665 9
-2.8986995 5.9169464 0.70271248 10.5
-3.0797608 6.011591 0.57908082 9.5
-3.0310471 -4.1959262 0.82203972 12
-2.8205917 -1.3074611 0.81874824 14.5
-2.8460214 -1.1011884 0.84496534 15
-3.0463521 5.9513655 0.96450114 11.5
-2.9735904 5.936173 1.4111573 13.166667
-3.0710745 5.9615827 1.8355078 14.666667
-2.8326774 6.0050879 1.8863405 15
-2.4748027 -3.8216329 0.19810246 8.5
-2.489116 -3.5506551 0.21234453 8.5
-2.5589483 -2.6535974 0.25647512 9.333333
-2.7036848 -2.3631124 0.28328878 10
-2.5679533 -1.9284884 0.34074154 10
-2.7831488 -1.4142251 0.28628421 10
-2.7507546 -1.082263 0.20418684 9
-2.4680629 3.9208539 0.27810445 9
-2.6191609 4.7958865 0.25722766 9
-2.6476643 -4.3947382 0.56312805 10
-2.5169487 -3.8032269 0.63092107 11.333333
-2.446372 -2.875576 0.41901186 10
-2.5768692 -2.5566406 0.69627327 13
-2.6799624 -2.1989181 0.74683976 13.5
-2.743861 -1.7874371 0.63411725 13
-2.7452891 -1.3422091 0.60034949 12.75
-2.6303039 3.9027388 0.39405218 10
-2.8032761 5.9340701 0.47762883 9
-2.6515884 6.0375786 0.60033554 10
-2.5818624 -4.3255029 1.124862 13.5
-2.6338179 -2.3001788 0.87065953 14.333333
-2.734308 -1.9392018 0.78849798 14
-2.7840688 -1.4286948 0.81829584 14.666667
-2.7960436 -1.0271134 0.77561092 15
-2.6703122 5.9548755 0.84729183 11
-2.6268525 6.0415144 1.0080928 11.666667
-2.70924 -4.24226 1.3316157 14.5
-2.5381298 5.9547524 1.4299917 13
-2.5878847 6.0520592 1.3936361 13
-2.7198565 6.0316181 1.8076634 14.5
-2.0598021 -4.0616546 0.2105487 8.333333
-2.2346435 -3.7531605 0.25972146 8.666667
-2.3477759 3.9561625 0.24742398 9
-2.0919821 3.9987905 0.35408154 9
-2.1432214 -4.1227403 0.6409604 11
-2.2732627 -3.9496286 0.7198633 12
-2.3409603 -3.2150891 0.52080131 11
-2.364583 -2.9044907 0.46597746 10.5
-2.2129984 6.1113558 0.60883886 9.8000002
-2.3197958 -3.3338726 1.0289148 14
-2.310328 -3.1041715 1.0000956 15
-2.1954138 6.1045084 0.98822206 11.5
-2.0133588 -4.0089722 1.3140857 15
-2.1792369 6.1052432 1.3442014 12.666667
-2.2546844 6.1179361 1.7363412 14.666667
-1.6633328 -4.2280636 -0.037724569 7
-1.8406355 -4.0912795 0.24655257 8.666667
-1.7672623 -3.9934506 0.15297431 8
-1.8064829 4.0274534 0.32872006 9
-1.8581823 -4.0739012 0.55542314 10.666667
-1.7645075 -3.9872007 0.65833479 11.5
-1.802761 6.1945853 0.57232702 9.5
-1.8526621 -4.0977921 0.9959861 13.4
-1.8052965 6.1925836 0.95585573 11.5
-1.9474709 -4.0131822 1.3253579 15
-1.7779837 -3.9813802 1.2770606 15
-1.7997085 6.1759014 1.4014624 13
-1.8227731 6.190433 1.7445838 14.666667
-1.4759985 -4.1654987 -0.030113261 7
-1.4116173 -4.1052384 0.29526937 9
-1.3827544 -3.9367588 0.14652656 8
-1.5729514 -3.54794 0.29398352 9
-1.3972491 4.0974655 0.34582013 9
-1.4255421 -4.0988474 0.49462113 10
-1.3849388 -3.9325457 0.61889392 11.4
-1.4098305 6.248353 0.59075713 9.5
-1.4098573 -4.0688691 0.98399633 13.5
-1.2568489 -3.9040055 1.1646954 15
-1.550823 -3.4890544 0.91897058 14
-1.4326786 6.2416182 0.99783897 11.5
-1.4475455 -3.9328341 1.2087632 15
-1.4337261 6.2320485 1.3604803 13
-1.4205235 6.252511 1.7535901 14.666667
-1.1387266 -4.0818019 -0.018829355 7
-0.93035042 -4.038188 -0.012295964 7
-0.99306351 -3.879813 0.15775354 8.5
-1.1097307 -4.0329022 0.48160002 10
-0.97407144 -3.8845067 0.57650506 11.142858
-1.0099523 6.2895598 0.60806584 9.5
-1.1480602 -4.0159302 0.94694287 13.5
-0.97686958 -3.9376936 1.0090441 14
-1.0362933 6.2896371 0.97707015 11.5
-1.2001758 -3.8901908 1.1931783 15
-0.87651885 5.6537528 1.3324525 13.5
-1.0452927 6.2955108 1.4060283 13.333333
-1.0269548 6.3101392 1.7644798 14.75
-0.70764792 6.3970251 -0.5925386 4
-0.59249479 0.36329448 -0.20981868 0
-0.5186187 0.55684942 -0.20752752 0
-0.51364183 1.3679837 -0.22829862 2.6666667
-0.47767183 1.8028802 -0.24935481 3
-0.42883843 2.5481956 -0.29646477 4
-0.58152854 -3.8499136 0.11621541 8.125
-0.60211545 -3.8370862 0.55604547 11.125
-0.48208794 5.682394 0.61545449 10
-0.74762625 6.3119531 0.60708922 9.5
-0.61658007 -3.8636639 0.95747852 14
-0.59040481 5.6761422 0.96732247 12
-0.72672176 6.080349 0.97047734 11.5
-0.56629449 5.7165265 1.3815646 13.8
-0.50134641 5.7208395 1.6317606 15
-0.098865248 -3.6066613 -0.089651503 6
-0.037284594 -3.1273453 -0.093271241 6
-0.012517762 -1.4381375 -0.12395693 5
-0.19469722 0.66093063 -0.20234428 0
-0.20834269 0.99385667 -0.2212946 1
-0.15220933 1.3938906 -0.22951341 2.4000001
-0.26703531 1.7643864 -0.24763335 3
-0.22483619 2.2423518 -0.27674654 3.6666667
-0.079279885 2.6043656 -0.28945938 4
-0.15903649 3.063668 -0.31531394 4
-0.17137092 -3.7834177 0.14274359 8.2857141
-0.15546662 -3.771426 0.55341703 11.333333
-0.20880751 5.7012572 0.69984031 10.5
-0.20062028 -3.7768571 0.93737882 14
-0.31797323 5.7117329 0.98249394 12
-0.23179527 5.8022189 1.44226 14.2
-0.15541787 6.1216617 1.4465533 13.5
-0.29848155 5.7530427 1.6408738 15
0.17620061 5.7652044 -0.53117669 4
0.14396392 -3.7751205 -0.025682529 7
0.030115424 -2.5989928 -0.095827416 6
0.23455761 -2.1411428 -0.11514149 5.5
0.21577893 -1.8268459 -0.11360559 5
0.30207345 -1.3988292 -0.10347842 4.8571429
0.32081634 -1.0111419 -0.1488402 3
0.3017346 -0.64355588 -0.15229467 1.2
0.38197982 -0.38995939 -0.16313121 0
0.26429176 0.68378282 -0.19920953 0
0.19459124 0.99418408 -0.21285933 1
0.24274105 1.3843696 -0.21529831 2.5999999
0.17890263 1.8036593 -0.23400398 3.25
0.18843079 2.1984894 -0.24934247 3.6666667
0.26147935 2.7127302 -0.2692 4
0.2487873 2.9977117 -0.27964643 4
0.23269223 3.3789423 -0.29623389 4
0.021483079 5.7541523 -0.070455648 7
0.21108034 -3.7079024 0.16190495 8.375
0.34537604 -1.3588606 0.2143337 11.375
0.36407048 -1.160344 0.29440627 13.666667
0.19565085 -3.6998317 0.56873024 11.5
0.19387704 5.787848 0.65169173 10
0.19507998 -3.6859043 0.95253426 14.25
0.16452898 5.8627286 1.0285171 12
0.15985255 6.3583035 1.0682257 12
0.16463311 5.8698978 1.5245583 14.5
0.13404962 6.0974469 1.4353154 13.5
0.043264195 5.8072453 1.6586846 15
0.79207456 -3.1311202 -0.08300323 6
0.71981323 -2.6038871 -0.088021703 6
0.66048926 -2.1595516 -0.096915781 6
0.70313305 -1.7609228 -0.047225203 6.5
0.64861786 -1.3307413 -0.065530889 5.625
0.62852854 -0.95762283 -0.1052954 4.0999999
0.60237503 -0.56730348 -0.13577354 2.0999999
0.65974438 -0.23736893 -0.14786363 1
0.48164696 0.62332982 -0.19705832 0.2
0.5409112 1.0089937 -0.2123125 1.6
0.57786554 1.367851 -0.21730949 2.8
0.622284 1.7966244 -0.23431033 3.3333333
0.57523769 2.2177835 -0.24667378 4
0.60630715 2.5715218 -0.25988936 4
0.6437394 2.9977133 -0.27580592 4
0.69823974 3.6060567 -0.3016839 5
0.77592373 5.8420749 -0.03367598 7
0.60294843 -3.6346173 0.20253728 8.625
0.60352576 -3.5143793 0.15381473 8.5
0.76796913 -1.6011872 0.22885813 11
0.62585217 -1.3504201 0.25837913 11.947369
0.67400742 -1.0178937 0.23299794 12.111111
0.72019768 -0.72767645 0.21012092 12.666667
0.71683067 5.8397794 0.14093846 8
0.56174093 -3.628552 0.55148971 11.285714
0.75946873 -3.5120962 0.53959948 11.25
0.74600619 -1.3852267 0.42571408 14.5
0.38888535 5.8332601 0.4943735 9
0.55535614 6.1565094 0.49928641 9
0.66121233 6.425878 0.67026752 9.666667
0.53593981 -3.6198614 0.95204562 14.2
0.68817294 -3.5661323 0.96080762 14.4
0.40364569 5.8737311 1.0636418 12
0.58633697 6.3213315 1.1231773 12
0.6132077 6.4481945 0.99486256 11.666667
0.49272856 5.8719435 1.6094099 15
0.56275147 6.1262102 1.4227862 13.5
0.58619326 5.8931866 1.6563179 15
0.89638448 5.8595295 -0.38644305 5
0.83758348 -3.485527 -0.070534572 6
1.0129738 -0.80877167 -0.070338912 5
0.97283643 -0.6565094 -0.092708237 4.4000001
0.96521276 -0.21847661 -0.12430656 3.125
0.82171673 1.9561206 -0.24624436 4
0.87511426 2.1949596 -0.25498745 4
0.96906972 2.6147766 -0.27064094 4
1.1693165 3.4985251 -0.3108485 5
0.79565006 5.8425322 -0.09200602 7
0.97657007 -3.4382417 0.21417636 8.666667
0.91999966 -1.4024678 0.26847371 11.5
0.82766789 -0.97559255 0.24746168 12.166667
0.99099994 -0.68926626 0.2110194 11.608696
1.0184492 -3.4432333 0.47407132 10.714286
0.99442875 6.0957971 0.50340021 9
0.94644916 6.4569063 0.75063866 10
0.96781987 -3.4505978 0.95023286 14.166667
0.93583488 6.1402602 1.1043313 12
0.96936297 6.4850826 0.97356653 11.5
0.97304744 5.9662981 1.569621 14
0.98905826 6.2413588 1.4615223 13.5
0.96964931 5.950398 1.6545395 15
0.94161266 6.5626855 1.8953619 15
1.5108835 -3.5097706 -0.0014141035 7
1.3978019 -0.61803633 -0.075209342 5.1428571
1.4293576 -0.25842446 -0.10086633 4.5999999
1.572668 5.9130478 0.0030167601 7
1.2353368 -3.6383514 0.31538677 9
1.5594414 -3.4763594 0.081003293 7.5
1.3480484 -0.6200583 0.22031163 10.952381
1.5319873 1.7802936 0.3157537 11
1.5133024 5.9215636 0.18344826 8
1.2282214 -3.3669555 0.45273432 10.5
1.4671996 -0.5393669 0.44056329 14.666667
1.4633665 6.1560574 0.50338197 9
1.3972946 6.4770947 0.7005986 9.666667
1.4097271 -3.3816512 0.96189892 14
1.3167232 6.1664615 1.1131016 12
1.3459665 6.5210371 1.0049139 11.4
1.1977915 5.9828219 1.5921683 14
1.3544599 6.2723341 1.4913626 13.5
1.5103165 6.0323944 1.6307632 14
1.3653051 6.5652714 1.8949943 15
1.7294232 5.9645476 -0.42696133 5
1.7757596 -0.60589015 -0.054453347 5.5
1.7444969 -0.3006475 -0.082776487 5
1.7936852 -3.3921127 0.20937914 8.5
1.7689855 -0.54333752 0.23169689 10.307693
1.8181477 -0.36677635 0.41573086 13
1.6521579 1.7445928 0.30563214 10
1.7870706 -0.50831729 0.49322075 14.166667
1.9125538 -0.34729496 0.51431823 14.5
1.7849659 6.1978569 0.49024937 9
1.7863178 6.5643568 0.68337333 9.666667
1.7474368 6.2466497 1.1153842 12
1.8157307 6.5933771 0.96394032 11
1.8743612 6.4750547 1.4291892 13
1.8008348 6.2231698 1.6964107 14
1.792977 6.6995225 1.9051365 14.5
2.1892257 -0.52341759 -0.051806398 6
2.1787634 -0.48630449 0.22325832 9.5
2.3100474 -0.25207657 0.41179165 12
2.3685791 4.6284704 0.42404693 9
2.16399 6.050529 0.41840634 9
2.1909044 -0.43163574 0.53362155 13.5
2.1678736 -0.32134548 0.6024152 14.4
2.2762558 4.6777864 0.49254331 9.5
2.2130754 4.8076959 0.5369215 10
2.1358089 6.6061502 0.69572437 9.666667
2.1767087 6.3098054 1.1223756 12
2.2098248 6.5979986 0.98751599 11.333333
2.2410586 6.2703528 1.4413958 13
2.1881492 6.759376 1.9484274 14.666667
2.592623 -0.43231323 0.2471326 9.5
2.6466885 -0.30330288 0.27386481 9.8000002
2.6399367 4.6121383 0.39489648 9
2.4312253 -0.40465823 0.50933528 13
2.5970166 -0.31152457 0.64895719 13.625
2.5592604 4.6425176 0.54465979 10
2.5949421 6.0801806 0.62836438 9.5
2.4329443 6.5645514 0.79045677 10
2.7576549 -0.33199629 0.82995957 15
2.5521224 5.0097351 1.1973499 13
2.7717137 5.7833786 1.0829397 12
2.5550659 6.1710482 1.010964 11.5
2.4621558 5.4585242 1.2697359 13
2.384938 5.8328099 1.32965 13
2.4602757 6.786108 1.9806166 14.666667
2.6099145 6.8192711 1.9640921 14.666667
2.840441 -0.38807377 -0.032639284 6
2.8913569 -0.40184999 0.31511185 10
2.9861145 -0.36589336 0.27542257 9.5
3.0385261 4.6370888 0.38540134 9
2.9624097 -0.28216136 0.61650699 12.571428
3.1539781 4.2617249 0.58981895 10
2.9946032 4.6647434 0.64398235 10
2.9436407 4.9221401 0.74933165 10.5
2.9142113 5.3600941 0.72810501 10
2.8862615 5.7759733 0.75785029 10
2.8277302 6.0075121 0.7743687 10
2.9844761 -0.20091332 0.87556124 15
3.099283 3.6728289 1.1404603 13
3.0776179 4.200809 0.99033797 12.333333
2.8766904 4.6323848 1.0608685 12.5
2.9150496 5.0240812 1.0198666 12
2.8469443 5.4203773 0.98962289 11.666667
2.8787224 5.8290906 0.8921923 11
3.0971727 3.7123361 1.2832758 14
3.0471785 4.2947831 1.3399751 13.666667
2.9411433 4.606596 1.4223013 14
2.974777 5.0686035 1.453598 13.5
2.9330115 5.3534832 1.6686345 14.333333
3.0753796 5.6675014 1.7762691 15
3.1463845 6.2768979 1.9067239 14.666667
3.0342729 6.6739669 1.9841547 14.666667
2.9199789 6.8508658 1.986197 14.333333
2.8002691 6.2603979 2.071279 15
3.3657806 -0.33062994 0.2573278 9
3.3607039 3.3896194 0.34784299 8.75
3.4038396 3.8558893 0.34393966 8.666667
3.3085711 4.2514396 0.39013389 9
3.3724859 4.5354786 0.35894874 9
3.4009278 4.8058376 0.37306783 9
3.4234803 -0.25095204 0.60817772 11.75
3.3510506 3.3859842 0.62395245 10.571428
3.3926966 3.8845139 0.60384846 10
3.2887347 4.205514 0.63921076 10.2
3.2682843 4.6869392 0.81655961 11
3.334389 4.8441834 0.6933744 10
3.2423346 -0.18473843 0.90312093 14.666667
3.5612328 0.026440535 0.96181989 14.5
3.564472 2.6184549 0.99523455 13
3.4896414 2.9887414 1.0508245 13
3.4380965 3.3929033 0.98025942 12.4
3.2936342 3.761832 1.0046582 12.5
3.2861612 4.1436024 1.056784 12.333333
3.3358254 4.7778711 1.0308646 12
3.298619 4.8999352 1.0327541 12
3.5806205 3.1857362 1.2715926 14
3.4414575 3.4389746 1.358235 14.5
3.4337296 3.9211814 1.4352366 14.5
3.301378 4.1255379 1.4569222 14.6
3.2563303 4.7123132 1.5917426 15
3.1824303 4.8766561 1.6054466 15
3.1871698 5.98491 1.844364 14
3.1726778 6.066361 1.8783174 15
3.9871042 0.26002392 -0.00053007802 7
3.9491568 0.51916468 0.027632361 7
3.8527384 1.3670921 0.040303651 7
3.8105268 -0.26861399 0.28608972 8.666667
3.9808187 0.22308648 0.23136972 8.5
3.9367459 0.59862453 0.24934879 8.5
3.8865426 0.99531013 0.25486916 8.5
3.8385835 1.3835542 0.23982662 8.4444447
3.7908366 1.78063 0.21769924 8.1999998
3.7353566 2.2419667 0.27292526 8.3999996
3.6944056 2.5649126 0.29410797 8.3999996
3.6499789 2.987716 0.29916719 8.3999996
3.6206923 3.2914648 0.42151618 9
3.8584001 -0.1846371 0.65482146 11.666667
3.9817836 0.3048093 0.5831542 11
3.941431 0.61358672 0.60074681 11
3.8919399 0.98363525 0.62777764 11
3.8377919 1.387536 0.62245297 11
3.7843299 1.7776932 0.61845887 11.125
3.7343905 2.2039399 0.63636023 11
3.6973083 2.576812 0.5972116 10.666667
3.6421604 2.985095 0.62241048 10.625
3.6030419 3.3339446 0.64428526 10.666667
3.8141825 -0.16478133 0.94826174 13.666667
3.9676998 0.30764413 1.0817062 14.333333
3.9490883 0.64370376 1.0167625 14
3.895947 1.0129994 1.0419157 14
3.8378952 1.3810688 1.0711125 14
3.7669239 1.7970878 1.0718472 14
3.6975753 2.2042873 1.0976219 14
3.6534107 2.5711088 1.0125763 13
3.6156771 3.0047238 0.877141 12
3.7139328 2.2263002 1.2613375 15
3.6668954 2.5752575 1.2852398 15
3.6087594 3.002346 1.3073823 14.5
4.0300756 -0.082415365 0.02669175 7
4.0213103 -0.15069935 0.2283894 8.2857141
4.0022779 0.059360173 0.22250178 8.5
4.0441704 -0.10056234 0.60782301 11
4.0378656 0.18275633 0.68342227 11.8
4.0116076 0.61167139 0.6490885 11.333333
4.0315809 -0.078264527 0.99286348 13.5
4.0256915 0.19026802 1.0467927 13.8
4.0299778 0.49467674 1.061178 14
