# .PCD v0.7 - Point Cloud Data file format
VERSION 0.7
FIELDS x y z intensity
SIZE 4 4 4 4
TYPE F F F F
COUNT 1 1 1 1
WIDTH 499
HEIGHT 1
VIEWPOINT 0 0 0 1 0 0 0
POINTS 499
DATA ascii
-12.125203 -3.4657598 2.6487398 13
-11.730128 -3.0378463 2.8397253 14
-11.752781 -1.1424417 3.2839196 15
-11.629678 1.2027495 3.2748551 15
-11.37503 -3.1961293 2.9881582 14
-11.539513 -3.0747561 3.2403617 15
-11.269496 1.697608 3.2694132 15
-11.180213 -3.1943588 3.1517241 15
-11.131916 1.9444623 3.2791743 15
-10.894263 2.1645737 3.261627 15
-10.617815 2.497313 3.2587097 15
-10.118449 -3.4188554 1.9058297 12
-9.6095772 -3.4951603 2.1368144 13
-9.3567553 -3.478899 2.2729721 13
-8.8550644 -3.4753082 -0.14555413 7
-8.9091482 -3.4629815 1.7051965 12
-8.8155708 -3.5075474 2.1511543 13
-8.8400574 2.124913 2.2434094 14
-8.9316654 3.1031947 2.2233531 14
-8.8423595 -1.794964 2.5410569 15
-8.8308897 -1.4941005 2.5688024 15
-8.4447079 -1.9520454 -0.050049618 7
-8.6028147 -3.505846 1.021418 10.5
-8.6342936 2.2810724 2.2211392 14
-8.7627077 -1.2458516 2.4824758 15
-7.2276769 -3.2490382 0.51628721 9
-7.4642754 -3.1418135 1.7905891 13.5
-7.2619591 2.3376524 1.8394128 14
-7.5001612 2.1802776 2.255342 15
-6.9393773 -2.9063425 0.18470718 8
-6.8731709 -1.8675581 0.2415944 8
-7.0767088 2.7881908 0.044622172 7
-6.9800763 2.3584099 1.9136894 14
-7.0854902 2.6463647 1.8546578 14
-7.0173144 2.3206863 2.1840839 15
-6.46104 -3.6344266 0.073637009 7.5
-6.5536156 -3.3801525 0.21049324 8
-6.5048966 -2.9034526 0.19854698 7.5
-6.5058775 -3.4517827 0.55309016 9.333333
-6.5379853 -3.4697237 1.1243582 11
-6.5011554 -3.500746 1.3236105 12
-6.7118783 -3.1616216 1.4650552 12.5
-6.627584 -3.4278307 1.748454 13.333333
-6.6577935 -3.209549 1.9090604 14
-6.6129341 -3.3165278 2.195349 15
-6.5942469 -3.1194613 2.1818719 15
-6.1937695 -3.6621919 -0.12638609 7
-6.1425829 -3.6764355 0.17613214 8
-6.3209753 -3.4612558 0.056884464 7.3333335
-6.1445441 -3.669683 0.57934183 9.5
-6.0861998 -1.8675582 0.71672869 10
-6.2170634 -3.5590496 0.88019282 11
-6.3198552 -3.5728269 1.6107084 13
-5.6577163 -2.5566018 -0.031799871 7
-5.7780018 -3.6195722 0.019143313 7
-5.7466044 -2.387465 0.063564025 7.5
-5.8562417 -3.5560441 1.0360014 11
-5.9715271 2.290318 1.5246476 14
-6.0038261 2.3342996 1.7273453 15
-5.4232459 -2.1760037 0.32355615 9
-5.2008581 -1.9962534 0.15608133 8
-5.2715678 -1.5960666 0.19422315 8
-5.2381644 2.0842516 0.16282807 7.5
-5.5946903 -3.6192181 0.63679838 10
-5.5297074 -2.314976 0.4970637 9
-5.2402816 -1.3965824 0.53660911 10
-5.5891709 -3.5757136 1.0026479 11
-5.2451625 2.1555431 1.4002687 14
-4.8162303 -3.7068253 0.35599005 9
-5.1209435 -1.7914453 0.20667344 8
-5.1746559 -1.5916222 0.26736996 8
-5.0812516 2.2232511 0.12343509 7.5999999
-5.0892353 2.5777938 0.20689306 8.1999998
-5.1356759 2.9931371 0.25000802 8.3999996
-5.1315684 3.3319063 0.30538568 8.333333
-5.1315794 3.7652481 0.26550087 8.25
-5.1191745 4.1806836 0.29120475 8.5
-5.0753908 4.5679994 0.24152684 8.166667
-5.0415187 4.9142165 0.19841436 7.8000002
-5.0761719 6.3106685 0.13196096 8
-4.8463702 -3.6491544 0.395152 9
-5.1653371 -2.0458775 0.65979624 10
-5.0955443 -1.8122824 0.49666342 10
-4.8636341 -1.1094187 0.4245382 10
-5.0727229 2.3207741 0.75960326 11
-5.0940418 2.559164 0.61450851 10.166667
-5.1412902 2.9308519 0.62594926 10.2
-5.1379442 3.3337183 0.60958683 9.8000002
-5.1263981 3.7904484 0.51381153 9.5
-5.1270318 4.2316589 0.64711529 10
-5.0402703 4.5781593 0.56695151 9.666667
-5.0343695 4.9682989 0.52253175 9.5
-5.0855637 5.3063016 0.63947731 9.666667
-5.0925136 5.830678 0.70810419 10
-5.0742974 6.1351438 0.65738887 9.333333
-4.9580865 6.4794545 0.70087969 9.5
-4.8486228 -3.6005492 0.99831378 11.5
-5.1773114 -1.6781013 0.98417008 12
-5.093092 2.256093 1.1869141 13
-5.0842433 2.6174242 0.93186331 11.666667
-5.1372261 3.0774906 0.97661567 12
-5.130548 3.3486488 1.0101318 12
-5.1106591 3.7910757 0.97119349 11.5
-5.1048517 4.1734257 1.0216067 11.5
-5.0928335 4.5852809 1.0623649 11.5
-5.1075692 5.0321293 1.0535331 11.2
-5.0885901 5.430305 1.1505897 11.5
-5.0823941 5.7629199 1.1509356 11
-5.074245 6.2018232 0.80879849 10
-5.0738201 6.4231582 0.99464661 11
-5.0996261 2.2320104 1.4031357 14.333333
-5.0638299 2.5608151 1.3937601 14
-5.129446 2.9656718 1.4304219 13.8
-5.1178889 3.3805995 1.4168986 13.666667
-5.1323624 3.6989639 1.3659835 13.333333
-5.1386933 4.0847473 1.3853232 13.333333
-5.1393018 4.6309171 1.4139447 13
-5.1284103 4.9578342 1.4720284 13
-5.1233029 5.4360585 1.5574259 13
-5.0620618 5.7926536 1.2575327 12
-5.0464511 6.2194653 1.2669014 11.666667
-4.9592671 6.4897017 1.2963928 11.5
-4.9410625 -3.5704863 1.7955699 15
-5.0592275 2.661659 1.5994904 15
-5.1195645 2.985229 1.6424999 15
-5.108222 3.4209344 1.6560153 14.666667
-5.0938778 3.8212008 1.6829407 14.5
-5.0758338 4.2283936 1.7757962 14.8
-5.0957017 4.6365271 1.7646813 14.333333
-5.0793738 4.9771867 1.8581709 14.5
-5.1299644 5.3938375 1.7653599 14
-5.1190877 5.7908101 1.7311703 13.5
-5.1163754 6.2105837 1.8105212 13.5
-5.0360756 6.5179968 1.979127 14
-5.04144 5.5210838 2.0018833 15
-5.0335121 5.7985244 2.1005807 15
-4.925159 6.1461139 2.162003 15
-4.4333205 -3.6651733 0.37546626 9
-4.5733204 -2.9762521 0.2428986 8
-4.6438103 3.3664467 0.17200482 8
-4.6775937 5.0828815 0.10406664 8
-4.6725149 5.3838034 0.18133624 8
-4.4825382 -3.6522205 0.55123836 10
-4.7457423 4.9538064 0.42989084 9
-4.6174049 6.4555988 0.57391727 9
-4.5244308 -3.6412876 1.3366641 13.5
-4.5965524 -3.5946672 1.3749583 14
-4.6305127 6.4935894 1.5112032 12
-4.5049348 -3.5798638 1.6961265 15
-4.8050656 6.523396 1.9628663 14
-4.709496 6.3299193 2.190418 15
-4.6082201 6.4555411 2.2026441 15
-4.1052222 -3.4240003 0.15128581 7.75
-4.04917 -2.1436963 0.20985335 8.5
-4.0649152 -3.5069981 0.67288643 11
-4.0915327 -3.0454671 0.53716397 10
-4.0550518 -2.6420124 0.39952901 9
-4.0719633 -2.1578934 0.49417919 10.5
-4.015348 -1.4705846 0.70909834 12
-4.1121006 -3.1241751 1.1642326 13
-4.078423 -2.5807686 1.0400096 13
-4.1051564 -1.7069252 0.89051586 12.5
-4.052763 -1.3435943 0.89158815 13
-4.0934238 -0.91069543 1.0618764 14.5
-4.150764 6.3918133 0.99271584 11
-4.2500715 6.4407668 1.1949449 11
-4.1504364 -3.0404222 1.3408756 14.5
-4.1136446 -2.5908184 1.3035738 14.5
-4.1020217 -2.2538259 1.2875401 14.666667
-4.0622454 -1.7749127 1.2960815 15
-4.0350709 -1.4048386 1.2596686 15
-4.04251 -0.51743346 1.2239413 15
-4.1097822 6.4414392 1.3835099 12.5
-4.0437007 6.3618069 1.8775892 14
-4.2436705 6.458725 1.705779 13
-4.2642441 6.4778957 2.1915536 15
-3.7291355 -3.6483643 0.18541664 8
-3.8052795 -3.5715187 0.19923435 8
-3.9805381 -3.1465108 0.24505956 8.5
-3.9899917 -2.6720819 0.39092454 9
-3.9904566 -2.315726 0.27577683 9
-3.7398088 6.3092809 0.25942436 8
-3.6721129 -3.6414702 0.60363817 10.5
-3.8178518 -3.5305743 0.65213734 10.666667
-3.756011 4.219121 0.42500812 9
-3.8127606 6.3221059 0.64567494 9.5
-3.7628491 -3.6290443 1.0962573 12.666667
-3.7761862 -3.5213785 0.93833703 12
-3.9636557 -0.91692841 1.0549477 14
-3.6926327 6.3178773 0.98622906 11
-3.7510569 -3.5449634 1.5308001 15
-3.7468212 6.346405 1.4113237 12.666667
-3.8169384 6.359231 1.7965698 13.666667
-3.6270297 6.3879161 2.1349466 15
-3.8000555 6.3970938 2.143954 15
-3.4404619 -3.683651 0.20808744 8.166667
-3.237438 4.22577 0.35048854 9
-3.3525429 -3.65727 0.56542724 10.333333
-3.4215586 4.227283 0.45626423 9.5
-3.401794 6.3242092 0.67299622 10
-3.3902063 -3.6494327 0.99912059 12.5
-3.3701396 -3.0055649 1.0228798 13.285714
-3.3966122 6.3064561 0.98512173 11
-3.3771133 -3.6176136 1.4664747 15
-3.4162059 6.3315744 1.3683714 12.5
-3.3971691 6.3543568 1.7124276 13.666667
-3.3579965 6.3792996 2.1185408 15
-2.9994531 -3.6967223 0.18068099 8
-2.9388683 4.2084975 0.31443101 8.666667
-2.848278 5.0750351 0.28408179 8
-2.9806406 -3.6642873 0.57432139 10.6
-2.9501712 4.1905146 0.4633387 9.666667
-3.0122652 6.2976933 0.68778014 10
-2.9553597 -3.6636074 0.94895607 12.6
-3.0190771 6.28723 0.98314703 11
-3.0158019 -3.6334064 1.3606489 15
-3.0665436 6.3297529 1.3382534 12.333333
-3.053683 6.3350964 1.6796125 14
-2.9731913 6.3627501 2.0944841 15
-2.6079783 -3.6967592 0.16890714 8
-2.6265478 4.2188644 0.31109846 8.666667
-2.728817 5.0879521 0.29985085 9
-2.650914 6.305511 0.36119306 9
-2.6226208 -3.6685884 0.56355345 10.6
-2.6834912 4.15837 0.49999437 10
-2.6135499 6.3055735 0.7077291 10
-2.5997965 -3.6665642 0.8826136 12.5
-2.6548274 6.3103271 0.94950145 11
-2.6284583 -3.6425004 1.290825 15
-2.6038191 6.3235402 1.370914 12.5
-2.5671797 6.3426375 1.6661099 14
-2.581887 6.3556414 2.0569677 15
-2.2909031 -3.6919353 0.044823647 7
-2.1680591 4.2108574 0.3342216 9
-2.3226404 -3.6726482 0.67766064 12
-2.2595809 6.3169394 0.71899247 10
-2.2813337 -3.6692712 0.99539 13.666667
-2.2145569 6.3194208 0.9182651 11
-2.2528532 -3.6531677 1.2874472 15
-2.2501075 6.326314 1.3126981 12.6
-2.2501087 6.3435426 1.8261578 14.5
-1.8428823 4.2050905 0.33399096 9
-1.7538464 4.4683976 0.35694045 9
-1.7958788 6.3243151 0.63972586 9.5
-1.8589846 6.3304977 0.98690856 11.333333
-1.804206 6.3320131 1.2583436 12.5
-1.8292012 6.3454847 1.7944187 14.5
-1.4969927 4.2488952 0.36846611 9
-1.3962171 6.3202581 0.6511429 9.5
-1.4247649 6.3266001 1.0208298 11.5
-1.4338259 6.3327932 1.2532363 12.5
-1.3818167 6.3386016 1.7523222 14.6
-0.87152719 -1.2884892 0.30417791 12.333333
-0.99176252 6.3057294 0.6768297 10
-0.98507649 6.316546 1.0919529 11.666667
-1.0320917 6.3210235 1.3680675 13.2
-1.0649958 6.3279839 1.7997903 14.666667
-0.46638826 6.4453168 -0.63728112 4
-0.52586478 -0.56820184 -0.20668907 0
-0.59174049 -0.3885079 -0.20999512 0
-0.73206502 -1.2618067 0.31029093 13
-0.41792688 -0.82239318 0.26580516 15
-0.53606898 5.6233993 0.62682521 10
-0.74904215 6.1042018 0.78082752 11
-0.5161075 5.6327143 1.0960871 12.5
-0.50793332 5.6582041 1.3503948 13.666667
-0.42323264 5.6471252 1.6355306 15
-0.77853161 6.3117323 1.807045 15
-0.14078465 -0.9404434 -0.1578154 2.5
-0.20828174 -0.6906895 -0.18849863 0.33333334
-0.024295645 2.9238884 -0.31433257 4
-0.074778378 3.2988298 -0.33584365 4
-0.1391326 -0.87824148 0.17182638 12.666667
-0.26508349 5.598865 0.67699355 10
-0.20525475 5.6153574 0.69389486 10.5
-0.20603479 5.6254168 1.0422316 12.25
-0.28267616 5.6537223 1.3959234 14
-0.18446851 5.646666 1.6241102 15
0.36426532 5.6074123 -0.44166487 5
0.22691658 -0.97995782 -0.11293561 3.9444444
0.20043114 -0.66794199 -0.18025301 0.33333334
0.2580708 0.72310883 -0.21553062 0
0.2776936 1.0211823 -0.23179168 1
0.26677564 1.4334403 -0.24193646 2.3333333
0.24961232 1.8099977 -0.25705263 3
0.22760919 2.1804967 -0.27486458 3.25
0.26219824 2.5801103 -0.29431826 4
0.36938789 3.1222682 -0.32124525 4
0.36908314 3.5381057 -0.34346196 4
0.23945168 -0.91496307 0.13282102 11.3
0.22691891 5.6607499 0.07049492 7
0.1889168 5.6615787 0.63983655 10
0.20857905 5.5957661 0.98527139 12
0.095876902 5.6791434 1.0418123 12
0.1651765 5.8708644 1.383716 13.666667
0.25129357 6.1806264 1.2643692 13
0.20722824 5.782814 1.6932701 15
0.58155227 -1.0009164 -0.10634238 4.1538463
0.53235936 -0.6442619 -0.16581474 1.5
0.48006135 -0.35406092 -0.17457771 0
0.69312668 0.23821844 -0.18853205 0.2857143
0.62530476 0.62388951 -0.19738366 0.69230771
0.61239171 0.95120609 -0.21301626 1.625
0.64212155 1.3942084 -0.22095923 3
0.60141569 1.8051184 -0.24336 3.3333333
0.64356661 2.14693 -0.25525698 4
0.69196087 2.5376902 -0.26963729 4
0.74104989 2.9329658 -0.28469527 4
0.78572625 3.2901757 -0.29948568 5
0.60765684 -0.95007986 0.16856536 11.0625
0.60377204 5.7118087 0.52710503 9.5
0.59711361 6.1984892 0.72695369 10.25
0.38925233 5.9019785 0.8209278 11
0.58661503 6.19944 1.008216 11.6
0.56488931 5.8043356 1.3678292 13.5
0.54181355 6.1678443 1.2661141 13
0.59964609 5.6895866 1.6828852 15
0.97172487 0.25160253 -0.175798 1.8571428
0.96586126 0.58854383 -0.18536165 2.3333333
1.0016229 0.9619931 -0.19294076 3
1.0197843 1.3918108 -0.20784706 3.5714285
0.97242761 1.8359931 -0.21659178 4
1.0074292 2.1055655 -0.22547205 4
0.98633611 2.4119754 -0.23835592 4
1.1225555 2.9498131 -0.25424942 5
0.838269 3.7150624 -0.31484112 5
0.87161052 4.0214972 -0.30885616 5
1.0676115 5.6153798 -0.36235791 5
1.0179017 -0.85525233 0.26967347 12.727273
1.087731 1.431338 0.34668773 12.5
1.0336493 1.7639848 0.14726384 9
0.91437137 5.6185117 0.21239422 8
1.1779571 -0.86909145 0.44293448 15
0.94218087 5.5992384 0.44143742 9
0.99834943 5.6668429 0.56304443 9.666667
0.82842076 6.1527452 0.74430954 10.5
0.98872626 6.1864619 0.98069501 11.5
1.0166183 5.8238673 1.3580915 13.5
1.0568256 6.1563277 1.2732534 13
1.0091293 5.7124228 1.6646101 15
1.3245392 0.27678683 -0.17003284 3.3333333
1.3433263 0.63129562 -0.16919816 3.6666667
1.3506154 1.0417842 -0.18480241 4
1.3588927 1.3519406 -0.19034164 4
1.3557141 1.6843532 -0.12271052 5.25
1.4276316 2.1214597 -0.22014211 4.6666665
1.4327071 2.6481228 -0.24973677 5
1.5563375 2.9579334 -0.25926045 5
1.2100948 3.2972782 -0.26278132 5
1.3277421 3.7619987 -0.27631894 5
1.3894111 -0.86398774 0.26478001 11.666667
1.2879515 1.7806695 0.059946001 7.5
1.4274936 -0.86953694 0.45591763 14.666667
1.4551171 5.5928559 0.50895751 9.666667
1.3645853 5.7395239 0.58737355 9.6000004
1.3823348 6.1682286 0.79956406 11
1.3763351 6.1821456 1.0024359 11.5
1.397772 5.8183517 1.3788847 13.5
1.5013759 6.1244597 1.276866 13
1.4517922 5.5888863 1.703747 15
1.4352711 5.7389522 1.6479709 15
1.6388621 0.2758911 -0.15320468 4
1.7445624 0.54966038 -0.15286288 4.5999999
1.7643474 0.95751923 -0.17865567 4.25
1.8124146 1.4114387 -0.19381033 4.6666665
1.6613343 1.7625902 -0.21219428 5
1.9346554 2.1363385 -0.22471936 5
1.7701513 2.5126407 -0.24980047 5
1.7022047 3.3247869 -0.26856622 5
1.8846958 3.7842236 -0.27950996 5
1.7825257 5.5404119 -0.34523147 5
1.8020278 -0.87283272 0.23607074 10.454545
1.9076353 4.1998849 0.332928 9
1.7097901 5.5633454 0.28540641 8.25
1.7677699 -0.87696797 0.4987053 14
1.7581755 5.5662885 0.497132 9.5
1.7377198 5.7353034 0.65297872 10
1.7816151 6.1761403 1.0599985 11.5
1.7852724 5.8102627 1.3911892 13.5
1.877434 6.0880108 1.2798628 13
1.7780344 5.5885024 1.711805 15
1.8755399 5.7984695 1.6176136 14
2.2265835 0.40422541 -0.15522623 5
2.13289 0.99902654 -0.1841592 5
2.218503 1.533331 -0.1950068 5
2.1627636 1.9072995 -0.20406857 5
2.2224543 2.2331824 -0.21772297 5
2.268724 4.7346749 -0.32652816 5
2.2909343 4.857585 -0.22973427 6
2.1792579 -0.88083822 0.20860051 9.5555553
2.3023515 3.8011963 0.28720483 9
2.0729082 4.0482616 0.31478691 9
2.171875 -0.88695043 0.54509896 13.5
2.1163397 4.1606731 0.62002915 10.75
2.0059476 4.4976058 0.50491399 10
2.1512995 5.5814147 0.51352942 9.333333
2.2673795 5.6105399 0.697335 10.5
2.1049993 6.1557326 0.67180312 10
2.1772003 6.1653781 1.0375317 11.5
2.1721845 5.8941994 1.3451369 13.25
2.2230549 5.5705523 1.7211258 15
2.2186081 5.761713 1.6122336 14
2.4327886 0.99922007 -0.19010788 5
2.6636448 1.472142 -0.2070138 5
2.7068865 1.9380059 -0.21102558 5
2.5628755 2.9988935 -0.24390379 5
2.5871706 -0.89100844 0.22221284 9.4285717
2.7338891 4.0236731 0.36983764 9
2.5892389 -0.89607424 0.62504369 13.5
2.7750657 3.8265343 0.65615773 10.666667
2.629698 4.17027 0.6211943 10.333333
2.7046185 4.5156775 0.77465385 11
2.4068129 5.6935387 0.63344252 10
2.7765026 -0.89280081 0.88875401 15
2.6946843 4.2217779 0.97559035 12.8
2.7058091 4.6042447 0.919707 11.8
2.7277703 5.0765657 0.99611485 12
2.635936 5.499238 0.99256378 11.6
2.4681759 5.82025 1.0159284 11.5
2.437079 6.1493897 1.0591329 11.5
2.7070417 4.1777468 1.3486888 14.5
2.7080891 4.5977292 1.3511348 14
2.7259142 4.9577541 1.4187585 14
2.6066041 5.5234699 1.4116063 13.5
2.4894423 5.6887517 1.4216182 13.5
2.7476597 5.1149449 1.635667 15
2.7039292 5.4957256 1.7223586 15
2.4866798 5.7222896 1.6069669 14
3.0293818 -0.81798154 -0.011536567 7
3.0233111 -0.63143522 -0.0028867058 7
2.9369526 0.55879176 -0.16964194 5
2.8987823 0.87443912 -0.17327842 5
3.1193902 1.3337821 -0.19094388 5
3.1689074 1.7990019 -0.20603892 5
2.9501226 2.1416719 -0.20920129 5
2.8973386 2.6921129 -0.21721475 5
2.9168556 3.4841299 -0.25684187 5
2.9168994 -0.85943288 0.22661114 9.2857141
3.015929 -0.58997756 0.20052314 9
3.029943 -0.20526424 0.20024522 8.8000002
3.0395129 0.22070575 0.23204708 9.4444447
3.0505991 0.5803358 0.25330248 9.4444447
3.0629737 1.0148615 0.2124429 8.75
3.0741105 1.4020358 0.23089613 9
3.0841305 1.7900317 0.22179005 9
3.0908644 2.2028637 0.24834292 9
3.0430219 2.6414423 0.2619758 8.875
2.8169789 2.8491127 0.25087664 8.5
2.9778028 3.3142931 0.25218102 8.3999996
2.951864 3.646996 0.2830449 8.5
3.0185468 4.2567048 0.329382 8.666667
2.9367583 -0.85042995 0.5962854 12.5
2.9901302 -0.61323339 0.60147786 12.545455
3.0058239 -0.16879483 0.6304965 13
3.022649 0.1908368 0.62374109 12.818182
3.0467448 0.58899713 0.59152311 12.555555
3.0603747 1.0182376 0.61461514 12.25
3.0739543 1.4006354 0.61723465 12
3.0799785 1.8056425 0.64705986 12
3.0901446 2.1832688 0.55969799 11.2
2.992902 2.689647 0.55898798 11.125
2.8790028 2.9301312 0.55709124 10.75
2.9364185 3.3896179 0.65647584 11.125
2.8993986 3.6586511 0.60798258 10.5
3.0946624 4.1901283 0.47728267 9.666667
2.9184439 -0.85043931 0.87787819 15
2.956553 -0.58860964 0.86749804 15
2.9606719 -0.18593396 0.87666386 15
2.9778261 0.21968368 0.87944806 15
3.0087802 0.6386621 0.86793631 15
3.0292256 0.9844448 0.88852376 14.6
3.0574965 1.4152259 0.9208445 14.5
3.070189 1.8131433 0.93868566 14.333333
3.0873897 2.1887314 0.97006488 14
3.0296268 2.6395104 0.98029 13.777778
2.8848374 2.9889197 1.0662194 14.333333
2.9610887 3.370127 1.0182682 13.5
2.8922119 3.6638172 1.0674021 13.5
3.0656719 4.1991577 1.0208433 12.6
3.1163135 2.5946693 1.228964 15
2.9814138 3.409657 1.2663068 15
2.8737938 3.7782159 1.2710534 14.5
3.0574782 4.2112532 1.3562994 14.4
2.9587183 6.1450496 2.0630634 15
3.2251999 0.62580812 -0.074664406 6
3.2524168 1.0044489 -0.081666149 6
3.2377472 1.3980552 -0.13581441 6
3.3119111 1.9100512 -0.092734516 6
3.305249 2.4507036 -0.15257615 6
3.3209877 3.1816833 -0.09364105 6
3.3187878 4.1131129 -0.05859654 6.5
3.2274799 0.6316461 0.051057126 7
3.2480204 1.0133182 0.049227789 7
3.2874367 1.4423887 0.032814253 7
3.3113565 1.9309585 0.037016258 7
3.3395545 2.540071 0.1279579 7.5
3.2990215 3.196357 0.042154241 7
3.2708008 4.1232543 0.1503457 7.5
3.2967465 2.0333016 0.71901888 12
