# .PCD v0.7 - Point Cloud Data file format
VERSION 0.7
FIELDS x y z intensity
SIZE 4 4 4 4
TYPE F F F F
COUNT 1 1 1 1
WIDTH 402
HEIGHT 1
VIEWPOINT 0 0 0 1 0 0 0
POINTS 402
DATA ascii
-15.37759 -4.2138958 1.6580342 10
-15.473688 -4.256773 2.5208945 12
-14.734461 -4.2083597 2.0046887 11
-13.776421 -3.9614725 2.659219 12
-12.679727 -4.1693048 2.0927682 12
-12.539432 -3.5823975 2.8650033 13
-12.248035 -1.6419778 3.2741923 15
-11.817469 -4.12887 1.9697258 12
-11.287389 -2.8720236 3.27198 15
-11.245761 -2.5854609 3.2683959 15
-11.299652 1.7294329 3.3278475 15
-10.938179 -4.0996065 1.8393314 12
-11.037502 -4.0959997 2.1668956 12.5
-10.831082 1.4333156 3.2589462 15
-11.048883 1.9385632 3.3093596 15
-10.008765 -3.7752621 -0.10062955 7
-10.290742 -4.0964236 0.86216754 9
-10.13186 -4.0679359 2.0968537 13
-10.32527 -2.2432048 2.4899366 14
-10.198796 -1.873477 2.5036409 14
-9.7096148 -3.8418262 -0.1250903 7
-9.7924366 -3.8247077 0.19507802 8
-9.9263849 -4.0569868 1.0994499 10
-9.761179 -4.0870337 1.8345323 12
-9.976593 -4.085135 1.9994497 12
-9.7512064 -2.1545222 2.6183219 14.5
-9.7742491 -1.7934408 2.6432242 15
-9.264823 -3.7881155 2.7360089 15
-8.9214725 -3.8922076 2.6517217 15
-8.4007797 -3.4312592 0.52584493 9
-8.1010666 -3.6490965 0.55715734 9
-8.2050991 -3.4948158 0.68784946 9
-8.2756052 -3.619051 0.95673501 10
-8.1361961 -3.6150205 1.1922394 11
-8.3115101 -3.6152694 1.7175915 12
-8.033926 1.6094868 2.3046644 15
-7.9131331 -3.3055935 0.20069197 8
-7.978682 -3.5774553 2.168144 14
-7.851263 1.8517493 2.3111699 15
-7.4033308 -3.7104237 0.095596455 7.3333335
-7.3781352 -3.2865663 0.19215116 8
-7.3354225 -4.0118637 0.69394034 9
-7.4284682 -3.799613 0.54899311 8.75
-7.4316587 -3.8169887 0.98492163 10.5
-7.5320916 -3.5601928 1.1217024 11
-7.3792305 -3.8053906 1.4416432 12
-7.5005889 -3.6084454 1.3466141 12
-7.4924808 -3.6211627 1.7107345 13
-7.4175682 -3.8667455 2.2775619 15
-7.5224047 -3.5925415 2.0656545 14
-7.5644832 2.0562027 2.2901876 15
-7.1455112 -3.9127762 -0.12431057 7
-6.8057113 -4.0194931 0.013346362 7
-7.1632895 -4.0133452 0.6417858 9
-7.1276612 -4.0087886 0.38758141 8
-7.0470276 -2.1092658 0.72385424 10
-7.1078286 -3.9636033 0.83124214 10
-6.7332149 -2.0559692 -0.030469876 7
-6.7776065 -1.7834715 -0.018829562 7
-6.6133437 -2.7514348 -0.0083855437 7
-6.4107456 4.1659718 0.20401217 7.6666665
-6.4133639 4.5046802 0.13778983 7.5
-6.455584 5.8572011 0.306007 8
-6.4734616 6.013154 0.17370258 8
-6.7832451 -3.9964578 0.61550134 9
-6.4158902 4.2417121 0.48879805 9
-6.426373 4.541882 0.52198887 9
-6.431416 4.9798803 0.70680469 10
-6.4357796 5.2237945 0.7221387 10
-6.4663415 5.8390336 0.61906207 9.5
-6.7577219 -3.9833686 0.79945576 10
-6.4153104 4.2598248 1.0480025 11
-6.4174562 4.7366972 1.0526853 11
-6.4203868 4.9423151 0.98197883 10.333333
-6.4356441 5.3648019 1.060143 10.666667
-6.439507 5.7244358 1.047227 10.5
-6.4460778 6.0943303 1.1787425 11
-6.4135318 5.3980966 1.5314164 12
-6.4281521 5.8396635 1.3444567 12
-6.4136314 6.1174583 1.3880994 12
-6.4150705 4.6403313 1.9511198 14
-6.4204459 5.4444318 1.8734196 13.5
-6.4213099 5.763658 1.8490012 13
-6.7937474 -3.8513842 2.3423159 15
-6.4232783 5.3949885 2.0326352 14
-6.4323483 5.8100934 2.0399177 14
-6.4185271 6.0743632 2.1705649 14
-6.1014304 -2.1682017 0.18325129 7.6666665
-6.0902748 -1.9999673 0.16514309 7.5
-6.3452458 2.6242797 0.17162259 7.8000002
-6.2390718 2.955178 0.14604297 7.5
-6.3558645 3.5843177 0.027823258 7
-6.3715687 3.7303846 0.13179289 7.75
-6.3961778 4.0536227 0.10301913 7.5
-6.1935706 4.6132979 0.16299929 7.6666665
-6.0206013 5.2697563 0.22603251 8
-6.0735207 -2.182209 0.4609732 9
-6.1396122 -1.9501786 0.54053622 9.333333
-6.3494458 2.7342472 0.5134576 9.5
-6.3672056 2.9975646 0.52745146 9.5
-6.3759561 3.3717468 0.5785709 9.3999996
-6.3890433 3.731164 0.55481279 9.333333
-6.3217282 4.235436 0.57752883 9.5
-6.2697916 4.6194873 0.44862401 9
-6.3392029 6.1881666 0.77834958 10
-6.1152415 -2.2738793 0.89854485 11
-6.3223481 2.7078125 1.0895059 12
-6.3508329 3.0079987 0.99020171 11.333333
-6.3657351 3.3017273 1.0613842 11.333333
-6.383121 3.8263018 0.96330798 10.8
-6.3872981 4.2032123 0.87276882 10.5
-6.403872 4.5494738 0.91830885 10.5
-6.3878593 6.1207714 1.077315 11
-6.2812796 1.8727591 1.507533 14
-6.2692976 2.1888602 1.5467285 14
-6.335072 2.6633501 1.403411 12.666667
-6.3627529 3.0366628 1.4771205 13
-6.3622808 3.4303067 1.4119974 12.666667
-6.3607488 3.7990775 1.3359842 12.333333
-6.3810453 4.15835 1.3967682 12.333333
-6.3979206 4.7676177 1.4226038 12
-6.3913317 5.0014811 1.4629388 12
-6.3296576 6.2324629 1.3377142 11
-6.2367864 2.1782165 1.7479796 14.5
-6.3032136 2.5357757 1.7785248 14.5
-6.3607411 2.954911 1.7163019 14
-6.3487792 3.3835752 1.8034592 14.5
-6.3703208 3.8336737 1.7601672 13.8
-6.3953242 4.1649156 1.7718937 13.666667
-6.4027424 4.6273007 1.7765778 13.5
-6.40624 5.0573215 1.7970058 13.5
-6.4073586 5.2358532 1.7490549 13
-6.2149191 6.1190262 1.9034642 13
-6.3066726 2.77388 1.985924 15
-6.3130112 2.9545081 2.0248392 15
-6.3264194 3.4318085 2.1343029 15
-6.3452401 3.8791523 2.0245826 15
-6.3543754 4.2128716 2.10111 15
-6.2107439 4.6908689 2.1944048 15
-6.0439076 4.8021297 2.2011752 15
-6.3765521 6.1904244 2.1192021 14
-5.7318912 2.9968748 0.085278004 7.6666665
-5.990881 4.7004094 0.24097198 8
-6.0052638 4.9475613 0.26271695 8
-5.9843898 5.5019875 0.017445652 7
-5.9721251 -2.1381152 0.71314454 10.333333
-5.9762473 4.6760492 0.4012419 9
-5.9873004 5.0371637 0.43020523 9
-5.8013554 6.1223769 1.8771346 13
-5.7756104 4.9465704 2.2056406 15
-5.4601665 6.0773149 0.42354316 9
-5.5579448 6.1520863 1.0961279 11
-5.3097458 6.0550933 1.2688239 12
-5.3218861 6.0628777 1.7214928 13
-5.4058304 5.1107283 2.2066801 15
-5.3062725 6.0741687 2.0703979 14
-5.0083389 -2.2411535 0.12092589 7.5
-4.9950428 -1.4416236 0.11054017 7.3333335
-4.9960332 -2.5918729 0.58577204 10
-5.0865483 3.9599867 0.50422567 9
-4.9529896 6.088285 0.74837607 10
-4.976512 -2.9301193 1.0383413 12.2
-4.9564962 -2.7065265 1.0333496 12.25
-5.0310826 -1.8541472 1.0136942 12.5
-4.9854956 -1.5516689 1.0180839 12.5
-4.9791985 6.0658879 1.1442355 11
-4.9825253 -2.8978035 1.3471271 13.5
-5.0343347 -2.5537612 1.4877549 14
-5.0359025 -2.1148276 1.481312 15
-4.9867029 -1.7969359 1.3820601 14.5
-4.9846349 -1.5507991 1.4739778 15
-5.0098071 -1.0386809 1.2698253 14
-4.9511561 -0.79829484 1.2818588 14
-5.0322051 6.0726576 1.2438924 12
-5.0412679 -2.9303532 1.6618592 15
-5.0174537 -2.7644219 1.6476996 15
-5.0189071 6.085341 2.0192845 14
-4.6447139 3.9241412 0.1896857 8
-4.5784111 4.9615183 0.3165859 8.5
-4.4760675 6.0904164 0.17812519 8
-4.742537 3.9772537 0.49099731 9
-4.5056028 3.999522 0.5058223 9.5
-4.6050162 6.0772424 0.56503725 9.5
-4.5916257 6.0954704 1.1331831 11.333333
-4.6711516 6.0854502 1.2158103 12
-4.6244216 6.0904684 1.7220874 13.333333
-4.5986309 6.0997438 2.0016079 14.5
-4.1222324 3.9885759 0.36387566 9
-4.1065326 4.045095 0.25364107 8.5
-4.0787725 4.7616682 0.16822201 8
-4.1503477 6.0631328 0.23888172 8
-4.140615 3.979543 0.52188987 10
-4.2184811 4.8647776 0.39690509 9
-4.1289396 6.0645137 0.60876411 9.666667
-4.2047691 6.0763922 1.1351409 11.333333
-4.2495394 6.0765219 1.5770726 13
-4.1280332 6.0888286 1.8689339 14.5
-4.3660936 6.0794444 1.9976857 15
-3.8996124 4.1382909 0.23641635 8.5
-3.8617907 4.4591117 0.13673617 8
-3.7783258 6.1308627 0.31142649 8.5
-3.8303001 4.0380888 0.49862501 9.666667
-3.9282446 6.1036072 0.44338894 9
-3.829206 6.1246991 1.0678996 11.5
-3.9651055 6.1236048 1.5788881 13
-3.7799606 6.1344562 1.8659378 14.5
-3.3366244 4.0481439 0.22315483 8.333333
-3.3395755 5.9453435 0.26046637 8
-3.3860247 6.1381435 0.3377735 8.5
-3.4201963 4.0403342 0.45637351 9.666667
-3.2131209 4.5103164 0.443086 9
-3.3875229 6.1455088 0.5333128 9.5
-3.3665504 6.1503248 1.0627564 11.4
-3.4416354 6.1511536 1.4766663 13
-3.3088231 6.1582932 1.8490149 14.5
-3.1435702 4.0835295 0.24970153 8.5
-3.025532 6.1975408 0.30952445 8
-3.0858936 4.0545034 0.46171868 9.666667
-2.9708166 6.1915226 0.5269981 9.5
-3.0185211 6.1823187 1.0343931 11.4
-2.9874341 6.182405 1.4804926 13.5
-3.0133133 6.1751432 1.8365042 14.5
-2.5741119 6.2008414 0.34043944 9
-2.6716101 4.1133852 0.45099211 9.666667
-2.6420376 6.1866879 0.55855852 9.6000004
-2.5792816 6.1770763 1.0389073 11.5
-2.6085746 6.1896 1.4833789 13.5
-2.6030316 6.1776762 1.8231628 14.5
-2.3991342 6.1913347 0.35480928 9
-2.231823 4.1794853 0.50180018 10
-2.2123618 4.5521455 0.51896638 10
-2.0394769 5.5433259 0.43757495 9
-2.2967851 6.1492505 0.63804513 10
-2.3321862 6.2005291 1.5728496 14
-2.1299016 5.8549089 1.6434041 14
-2.3600106 6.1756454 1.9162792 15
-1.8508097 5.5361156 0.37469476 9
-1.8408213 5.5330176 0.62132514 10.2
-1.8037978 5.5380907 1.0144311 11.666667
-1.8051755 5.5469656 1.3670063 13.5
-1.8154569 5.5568404 1.7582372 15
-1.3469527 -0.88313711 0.28283164 12
-1.3541529 -0.8808431 0.42860982 14.5
-1.4704033 5.5431995 0.60936785 10
-1.2852182 5.6122179 0.69896513 11
-1.3978691 5.5481334 1.0472347 12.2
-1.4547312 5.5626206 1.3981699 13.666667
-1.4593648 5.5539947 1.6899793 15
-1.3204256 5.7208776 1.7258109 15
-1.0068771 -0.88122833 0.30505833 13.5
-1.1058928 -0.88204259 0.42556128 15
-1.1060417 5.5408731 0.66659629 10
-0.96638095 5.6094985 0.69938141 10.666667
-0.8890124 6.165484 0.72286588 10
-1.0986258 5.5604696 1.0905192 12.5
-0.9882102 5.6136026 1.0961841 13
-0.93538606 6.143672 0.98427904 11.5
-0.92922127 6.1459966 1.2175038 13
-1.0363842 5.7675867 1.7515869 15
-0.60073572 0.60603565 -0.22315709 0
-0.46088064 0.9466027 -0.21615563 1.5
-0.46948415 1.3850651 -0.22443782 3
-0.45452747 1.8743653 -0.2354622 3.5
-0.60407418 2.2141662 -0.25070447 4
-0.6107139 -0.86873764 0.26693642 14
-0.46391496 5.8010268 0.67851746 10.333333
-0.69505942 6.1786904 0.73498583 10
-0.63194144 6.1765919 1.0672768 11.666667
-0.77666187 5.7681808 1.5958037 15
-0.59929734 6.1729841 1.2341231 13
-0.55497682 5.7759366 1.718129 15
-0.20393915 0.71969515 -0.2114685 0
-0.19793729 0.98725486 -0.21191135 1
-0.18382122 1.404092 -0.20910484 2.8571429
-0.24260727 1.8014175 -0.2096861 3.6666667
-0.26330698 -0.85425371 0.25084084 14.666667
-0.18900818 1.4428741 0.3655242 14
-0.22713394 1.6883495 0.3551566 13
-0.18304507 5.8103466 0.69272137 10.5
-0.22163169 6.182394 1.1633662 12
-0.28713462 5.7886467 1.5747395 15
-0.19736136 6.1872382 1.2528986 13
-0.22112675 5.7905035 1.6708077 15
0.14160436 0.70122272 -0.20066831 0
0.0735282 0.97847688 -0.20632492 1
0.0093645006 1.2427813 -0.20793138 2
0.23719284 -0.8361463 0.24484561 14.666667
0.21229261 5.6490707 0.62014246 10.142858
0.23582818 6.1978321 1.171922 12
0.15653598 5.8144817 1.493277 14.333333
0.20382372 6.2014599 1.2719206 13
0.15944973 5.8033743 1.6673744 15
0.75936043 -0.87729847 -0.12888841 4
0.66451174 -0.5497629 -0.18141811 1.1666666
0.67966402 -0.216232 -0.1721978 0.75
0.73054087 0.087257594 -0.16787815 1
0.67458993 -0.92954218 0.18979284 11.928572
0.72188336 4.2295022 0.63082254 11
0.45827276 5.5929065 0.51536876 9.5
0.59909981 5.6194358 0.57077432 9.75
0.52638358 6.1574469 0.7710312 10.5
0.57674164 6.2120738 0.99921542 11.5
0.60862905 5.8268127 1.5502136 14
0.60692745 6.2091475 1.2602756 12.666667
0.58624989 5.8289537 1.6677657 15
0.97578186 -0.94761497 -0.097960331 5.1428571
1.0088896 -0.62406135 -0.17543066 2.8571429
1.0033029 -0.2215125 -0.17192619 2.3333333
1.0012336 0.17736737 -0.17157154 2.1428571
1.0153745 -0.89190412 0.20258145 11.470589
1.1786461 -0.79577112 0.16733521 10
1.0127459 3.8623927 0.4480972 10
0.96454072 4.1994915 0.61755383 10.833333
0.80691695 5.6434097 0.63156778 10
1.0969512 5.650991 1.0149128 12
0.94440567 6.1816235 1.0839881 11.666667
1.055372 5.7470531 1.4461898 13.75
0.95255238 6.2143378 1.2748038 12.666667
1.0120585 5.7596974 1.7152953 15
1.4070617 -0.96340567 -0.10401751 5.4444447
1.3496039 -0.57398546 -0.16292243 3.8
1.349059 -0.19268374 -0.16576692 3.75
1.3550522 0.19636177 -0.17079201 3.6666667
1.5736377 0.4781273 -0.16865554 4
1.3720539 -0.84862632 0.2316976 11.142858
1.429914 -0.79489046 0.27925897 11.857142
1.5905892 3.4477453 0.33207074 10
1.4416176 4.111042 0.36747786 9
1.3890953 -0.80454051 0.42639011 14.5
1.537735 -0.79674232 0.46671 14.5
1.5889616 2.9470108 0.44990277 11
1.5860025 3.4486053 0.56685621 11
1.5557547 3.7926292 0.54939193 11
1.3993887 4.1887436 0.58475941 10.5
1.390839 4.5558462 0.70947015 11.333333
1.5877609 2.9387617 0.93541229 15
1.549208 3.530215 0.84153259 13
1.5843607 3.8299038 1.0211607 14.333333
1.4162402 4.2024159 0.97097206 13.166667
1.398589 4.7029815 0.99820447 12.666667
1.394634 5.039382 0.93438673 12
1.3751603 5.4727464 1.0266799 12.2
1.2270135 5.6156635 1.0089372 12
1.4802269 4.233664 1.2602013 14.666667
1.3896339 4.5563345 1.3256358 14.5
1.3999023 4.9427147 1.4125949 14.666667
1.3686833 5.4776831 1.4154098 14
1.2244663 5.6153455 1.2284764 13
1.344433 5.5556769 1.674318 15
1.7872674 -0.96695691 -0.086711176 6
1.7060919 -0.5774557 -0.14999597 5
1.744833 -0.25663999 -0.15228625 4.6666665
1.8334609 0.11050874 -0.15642264 5
1.7367046 -0.95968074 0.082333274 8.5
1.8767978 -0.66694003 0.24795122 10.6
1.9828022 -0.22039844 0.2529887 10.615385
1.9687312 0.19787261 0.2623502 10.7
1.9586849 0.61231101 0.26302424 10.636364
1.9490937 0.99895251 0.27113506 10.5
1.9426638 1.3887483 0.28653672 10.285714
1.9333346 1.8021415 0.29386133 10
1.9225152 2.1935654 0.31870604 10
1.9048573 2.5971587 0.30308357 9.5
1.7447772 2.8673666 0.34412241 9.666667
1.7441959 3.4348218 0.36332548 9.666667
1.624164 3.7498562 0.34142455 9
1.7112879 4.3759298 0.35878775 9
1.8849355 -0.67727321 0.49557453 13.909091
1.9705324 -0.1876414 0.49438128 14
1.9655594 0.19850254 0.49151364 14
1.9556911 0.61923045 0.53893304 14.142858
1.9450878 0.99927175 0.56695557 14.25
1.9454079 1.4207444 0.56462413 13.6
1.9365443 1.7897384 0.58921576 13.333333
1.9202294 2.2344046 0.61474383 12.75
1.9046595 2.5901167 0.60435498 12.285714
1.7557827 2.8707075 0.58751172 12
1.6900078 3.4458048 0.61649454 11.5
1.6337664 3.7438092 0.57104445 11
1.6782597 4.2591605 0.56587601 10.666667
1.9421693 1.8517454 0.81793928 15
1.9257179 2.2124281 0.88968867 15
1.908802 2.6557913 0.920048 14.75
1.7435356 2.9576173 0.94913208 14.666667
1.6993614 3.4352829 0.93114913 13.75
1.6377684 3.6663909 1.0455297 14.5
1.6937299 4.3561754 0.99362361 13
1.7112502 4.3564291 1.2858855 14.5
2.0975242 -0.88078839 -0.09055911 6
2.1276164 -0.52483356 -0.053580318 6.5
2.1513574 -0.18615268 -0.032160159 7
2.1762524 0.14732039 -0.026361832 7
2.1940529 0.62493533 -0.024545118 7
2.1209409 -0.91035944 0.069480479 8
2.0424578 -0.55256224 0.23038155 10.142858
2.0783496 -0.26325768 0.20128568 10
2.1703806 0.15125172 0.05323457 8
2.1982052 0.68629658 0.093699262 8.333333
2.0106478 -0.59985071 0.56442124 14.5
2.0046501 -0.20018199 0.5306524 14.2
1.9984574 0.23590325 0.59572268 15
2.1927087 0.56386524 0.54229289 14
