# .PCD v0.7 - Point Cloud Data file format
VERSION 0.7
FIELDS x y z intensity
SIZE 4 4 4 4
TYPE F F F F
COUNT 1 1 1 1
WIDTH 115
HEIGHT 1
VIEWPOINT 0 0 0 1 0 0 0
POINTS 115
DATA ascii
0.060440287 -0.95082021 -0.18885151 163
0.10060878 -0.83440512 -0.1881953 174
0.21522164 -0.85703117 -0.18727249 173
0.3270089 -0.87383199 -0.18562987 171
0.43947083 -0.85979426 -0.17811425 177
0.54447937 -0.8177796 -0.17169908 179.66667
0.13522314 -0.73601693 -0.18958749 183.5
0.23869407 -0.74388707 -0.18882376 181
0.33562502 -0.7524538 -0.18614893 186.5
0.43226323 -0.73202622 -0.18093112 188.8
0.52691495 -0.73444259 -0.16872938 187.33333
0.63417733 -0.7475177 -0.17063144 182
0.17327836 -0.62299341 -0.18626742 189.5
0.25974759 -0.62599206 -0.18049924 189.33333
0.34080034 -0.64018184 -0.17840926 190
0.43869737 -0.62525976 -0.17200765 189.60001
0.54351652 -0.6611408 -0.17560114 188.5
0.65206295 -0.65620273 -0.16980028 187.5
0.74914342 -0.64527738 -0.16322972 182.5
0.1895512 -0.57909298 -0.18933655 187.39999
0.26177964 -0.54576433 -0.18189827 186
0.34639353 -0.55774009 -0.17809407 186.28572
0.45439458 -0.54972965 -0.17127377 186.71428
0.56456268 -0.54591906 -0.16682264 188.83333
0.64458001 -0.53792304 -0.16525035 189.66667
0.75604486 -0.56559676 -0.1669715 191.2
0.83337235 -0.52400869 -0.16207348 193.33333
0.2419118 -0.48344633 -0.18627915 183
0.34910697 -0.46151489 -0.18648203 180.625
0.45315537 -0.47398034 -0.1778456 182.76923
0.55188805 -0.43846378 -0.16861162 183.11765
0.66278344 -0.45554641 -0.16212127 187.22223
0.74221337 -0.43868119 -0.15532683 189.14285
0.85639882 -0.45570585 -0.16097949 192.25
0.25819689 -0.38237241 -0.19107705 176
0.33789158 -0.37899119 -0.19042882 174.89999
0.45365596 -0.35028645 -0.18286228 175.10715
0.5590418 -0.34979662 -0.17835848 178.64285
0.64933068 -0.35005081 -0.16822426 182.13637
0.75319606 -0.34808207 -0.15418226 186.33333
0.83415645 -0.34123775 -0.15148231 189.375
0.92302996 -0.37769255 -0.16333254 192
0.56308675 -0.26098502 -0.17973155 174.25926
0.65217477 -0.24933648 -0.17324333 177.85715
0.74093342 -0.24992301 -0.15760896 182.5
0.85281163 -0.25040814 -0.14948604 188.28572
0.93441468 -0.23787011 -0.15014175 191.66667
0.59750664 -0.19234025 -0.18321829 173
0.64994729 -0.14898106 -0.17355405 174.67567
0.75740409 -0.1577972 -0.16350003 180.95454
0.85917825 -0.15101178 -0.14899017 186.28572
0.93806195 -0.13805975 -0.14715008 190
0.4840886 -0.027874894 -0.19083717 167
0.65871388 -0.077762023 -0.17769192 173.4375
0.75606114 -0.09314879 -0.16744907 179.3
0.28160506 0.097845152 -0.16348447 119
-0.3395406 0.13903072 -0.20166644 151.66667
-0.2393387 0.13691185 -0.19928235 151.11111
-0.16711496 0.14412233 -0.19588041 153.63637
-0.056034986 0.19846635 -0.16397807 151
0.0038270322 0.16221276 -0.10927158 137
0.1720276 0.13985914 -0.11287888 131.88889
0.2481322 0.11706518 -0.14496914 121.63636
-0.24045575 0.23662952 -0.19360068 151.57143
-0.1518959 0.2423622 -0.16167688 141.5
-0.088029847 0.21853071 -0.19758962 157
0.11937518 0.20580858 -0.15502521 163
0.4749032 0.28495893 -0.19439463 140.2
-0.31693673 0.32480258 -0.20136702 150
-0.28845486 0.3120119 -0.20362955 152
-0.10298994 0.39726406 -0.19556542 146
-0.063069664 0.36601898 -0.19976151 154.28572
0.0081291478 0.39732218 -0.19806525 163
0.39794934 0.33930847 -0.19631632 154
0.4598448 0.32789281 -0.19384494 150.25
-0.21722226 0.49276337 -0.20613526 146
-0.12620644 0.41757187 -0.20103011 147
-0.035799477 0.44447029 -0.20162848 155
0.053046964 0.45607632 -0.1986604 163
0.14189813 0.47581142 -0.1989937 173.39999
0.26724765 0.49790326 -0.19998758 178
0.38410339 0.48742327 -0.19484098 180.25
0.46191418 0.46884945 -0.19208361 178.60001
0.52033687 0.4423531 -0.19063106 174.875
-0.00020326594 0.5287044 -0.19946942 149
0.05774463 0.54163277 -0.19681987 149.77777
0.17314146 0.55307728 -0.19882225 166.66667
0.25640166 0.54274529 -0.2008688 174.66667
0.34820765 0.53839451 -0.19838731 177.5
0.44450188 0.55940008 -0.19462951 174.71428
0.55499637 0.55733579 -0.19274913 171
0.04278072 0.61637783 -0.18320861 103.8
0.13755298 0.64762127 -0.20341465 152
0.23969942 0.60742575 -0.19898893 165
0.32243973 0.60959095 -0.19747657 174.5
0.47069055 0.64918703 -0.19662423 166.75
0.58981955 0.67219085 -0.19564866 165
-0.020973433 0.74518967 -0.2063859 142
0.082130648 0.79063904 -0.20567434 141
0.11629796 0.69979644 -0.20111559 147
0.31054887 0.73116624 -0.20271589 155
0.43777928 0.71365291 -0.19644274 156.66667
0.55574286 0.74806559 -0.19610193 155.5
0.61650616 0.76515305 -0.19369215 150.5
0.40957096 0.82958376 -0.19874777 144
0.51849443 0.82896942 -0.19593735 145
0.024094341 0.92843282 -0.19396578 173
0.15351886 0.95017707 -0.19648448 217
0.061323039 0.16525999 -0.049350556 133.06667
0.12419669 0.14003731 -0.084473088 127.8421
0.022737252 0.24470998 -0.0086594215 141
-0.017229784 0.92149705 -0.061661545 196.8
0.077964351 0.16011903 0.0094226832 127.25
-0.030802868 0.90859038 -0.0055940729 210
0.33303127 0.93282759 0.034347311 98
