# .PCD v0.7 - Point Cloud Data file format
VERSION 0.7
FIELDS x y z intensity
SIZE 4 4 4 4
TYPE F F F F
COUNT 1 1 1 1
WIDTH 519
HEIGHT 1
VIEWPOINT 0 0 0 1 0 0 0
POINTS 519
DATA ascii
-8.6096134 16.713198 0.97354299 9
-8.5289297 16.738039 1.7148476 10
-8.3439503 14.174167 1.5005603 10
-8.2834625 14.949716 1.64737 10
-8.030323 15.264632 1.6411688 10
-8.332675 14.258773 1.9227347 11
-7.7561831 11.377111 0.23527381 8
-8.004755 12.760991 1.5525818 10
-7.7526665 11.503221 2.3284373 12
-7.9664063 17.176144 2.3015115 11
-7.7150488 37.251297 2.6662657 9
-7.5365839 10.791504 0.17424734 8
-7.4640989 10.292204 1.10337 10
-7.5152783 10.512598 1.3005328 10
-7.5134492 15.143064 1.6535105 10
-7.4552932 10.037254 2.096344 12
-7.4971657 10.594103 2.1823168 12
-7.5289059 11.741035 2.3545392 12
-7.5027828 12.318965 2.4416215 12
-7.5316625 17.303381 2.328686 11
-7.4080615 11.20544 2.6280627 13
-7.4782429 11.569353 2.7384238 13
-7.556282 12.187816 2.8399384 13
-6.9960899 15.260985 1.7152896 10
-7.0888834 17.397821 2.3522825 11
-7.0869937 9.6192141 2.6886985 14
-7.190526 10.266915 2.8344555 14
-6.8637605 17.441854 2.7884247 12
-6.7228637 6.6744609 0.051906161 8
-6.6963592 7.1349406 0.073527128 8
-6.4810681 7.2340689 0.079994053 8
-6.452322 5.4762635 0.61022812 10
-6.7255969 6.69872 0.47371331 9
-6.54741 7.1569114 0.64320147 9
-6.4665427 7.498075 0.57158273 9
-6.5454135 7.7433186 0.47435459 9
-6.4472823 5.5558763 0.91957152 10.5
-6.5920019 6.1635604 0.68051022 10
-6.7288356 6.6697049 0.91001642 10.333333
-6.7103939 7.0658298 0.84719807 10
-6.5043578 7.3665938 0.82009965 10
-6.5127687 7.745234 0.86236185 10
-6.4430151 5.478229 1.384398 12
-6.6853189 7.0854397 1.0784396 11
-6.5610027 7.9429865 1.0640688 10
-6.7047329 6.6858487 1.8214537 13
-6.7917953 7.2485228 1.6570007 12
-6.5928049 15.336878 1.7378762 10
-6.7774897 7.0861206 1.8945944 13
-6.5939512 6.7758512 2.4662344 14.5
-6.7283292 7.1004148 2.4149914 14
-6.5394487 7.2309036 2.4286947 14
-6.6511059 17.494251 2.376045 11
-6.5779672 7.3832374 2.7441735 15
-6.1872544 7.2615261 0.14322698 8
-6.1621823 4.3426456 0.55988771 9.5
-6.1550589 4.5792642 0.54509521 9.666667
-6.1376386 4.9275937 0.45377362 9
-6.1573148 4.3949046 0.86189222 11
-6.3534317 5.0976186 0.70382762 10
-6.1778436 4.3506908 1.3311861 12.5
-6.1388059 4.5541449 1.3830643 12.333333
-6.3506117 5.1196947 1.3880975 12
-6.1007991 4.4303141 1.7963108 14
-6.3876524 5.0159602 1.5234994 13
-6.4135661 5.5472956 1.6128352 13
-6.319366 15.408719 1.7459701 10
-6.1861382 4.3005295 2.0022185 15
-6.1321793 4.5769467 2.0548792 15
-6.2969551 5.0337958 2.1745725 15
-6.3812923 6.3958583 2.4920311 15
-6.2299418 7.5636568 2.4794631 15
-6.3483057 7.6296024 2.7793486 15
-6.4278541 17.534538 2.8006783 12
-5.7212567 5.4153628 0.073269248 8
-5.857039 4.8549891 0.53434402 9.5
-5.8440824 4.7662225 1.0267037 11
-5.8938069 18.155703 0.76092947 9
-5.8182817 15.512303 1.787346 10
-5.7399178 17.413759 2.006973 11
-5.8099513 18.115454 1.9312197 10
-6.0019431 7.6451163 2.482084 15
-5.9579983 9.4277163 2.6034989 14
-5.8297153 12.643356 2.8952272 13
-5.9969544 17.623137 2.8134239 12
-5.4905066 6.5177546 -0.064465627 7
-5.409368 4.8985496 0.49259636 9.333333
-5.3944898 17.611105 0.28197277 8
-5.4992714 4.1393819 0.76876056 10.5
-5.3451929 4.8769755 0.9297359 11.5
-5.3200893 15.595746 0.83925545 9
-5.5713105 18.157978 0.8966375 9
-5.4994636 4.2705159 1.4705632 13.666667
-5.3953362 4.4996204 1.4039454 13
-5.292891 4.9013777 1.3710461 13
-5.2666006 4.4233179 1.5161047 14
-5.3928342 4.9845753 1.6338229 14
-5.5073128 15.582406 1.7483712 10
-5.3979096 10.417699 2.0795314 12
-5.4491096 11.417993 1.9342476 12
-5.4335113 15.59709 1.8112222 11
-5.2440376 17.287226 2.0185227 11
-5.4694929 18.152409 1.981952 10
-5.2937422 7.8041406 2.4706073 15
-5.4285131 9.6007347 2.298744 13
-5.4610295 9.7406321 2.2576749 13
-5.5004835 12.697536 2.4320304 12
-5.3259516 11.190809 2.9859543 14
-5.432303 12.709958 2.8913829 13
-5.562036 17.693844 2.8242142 12
-4.8915644 5.067327 0.27813792 9
-4.9729009 6.212966 0.19154181 8
-5.0882854 7.7437434 0.025884092 8
-4.9571743 6.1778073 0.39357406 9
-4.9848361 7.0679035 0.59950191 9
-5.1837997 18.456949 0.32361686 8
-5.0175433 4.9634438 0.95676363 11.666667
-4.8763199 6.1895137 0.89693081 11
-4.9916101 18.280725 0.83940524 9
-5.0748458 4.9953976 1.414206 13
-5.0240598 4.9854703 1.6114047 14
-5.2079444 7.8239675 2.2222157 14
-5.1908555 9.7937164 2.2445142 13
-5.0541034 10.639429 2.1021652 12
-5.0449519 17.446878 2.0144711 11
-5.0274968 18.223894 1.9858643 10
-5.0496311 7.8334823 2.462548 15
-4.8538952 9.8990526 2.3405921 13
-4.9030252 10.391064 2.4484124 13
-5.1844697 12.770147 2.4336457 12
-5.0340314 11.257458 2.9956875 14
-5.0132937 12.737931 2.9527276 13.5
-4.6322289 6.2249241 0.22287586 8
-4.6972284 7.7339859 0.067431323 8
-4.4317474 5.136435 0.65431601 10
-4.6168566 6.1401725 0.48235074 9.3999996
-4.5258546 12.896072 0.60354865 9
-4.4552565 5.08743 0.92127717 11.5
-4.7009854 6.235445 0.86882102 11
-4.4118943 17.800018 0.8605808 9
-4.6907687 18.320576 0.94485855 9
-4.4780436 5.0643592 1.4361815 13.5
-4.7350397 17.050377 2.0178797 11
-4.5849738 17.37756 2.0179291 11
-4.698329 18.338676 1.9299541 10
-4.7175918 7.9133801 2.4621394 15
-4.5594554 12.919234 2.4382348 12
-4.7320485 11.297602 2.9995501 14
-4.7746124 12.679121 2.9815388 14
-4.5911999 12.907818 2.9493105 13.5
-4.1311054 5.1571221 0.68818885 10
-4.2476521 18.427801 0.40434811 8
-4.254005 5.1314473 0.90079182 11.5
-4.2172136 18.570459 0.94644088 9
-4.2780995 5.1602898 1.4141093 13.333333
-4.1224785 5.2185206 1.4347851 14
-4.2480559 16.829435 2.0187685 11
-4.1335044 18.365868 1.9936903 10
-4.3905578 7.987205 2.4620011 15
-4.1775475 8.0386305 2.4631064 15
-4.2444272 12.978928 2.4383936 12
-4.4270763 11.326592 3.0042117 14
-4.4216213 12.667134 2.9841688 14
-4.3201175 12.968831 2.9147408 13.333333
-4.2763295 17.930592 2.8611369 12
-3.8282783 6.2390661 0.41010791 9
-3.8268564 6.6210604 0.46744734 9
-3.9040782 10.649823 0.41461179 8
-3.8302433 11.516919 0.264891 8
-3.7920735 5.1623688 0.90995079 11.5
-3.6204648 5.250216 0.72447342 11
-4.0017161 5.1830139 1.4115425 13.5
-3.6950622 5.1840897 1.7557454 15
-3.9053228 5.2175674 1.7782574 15
-3.7891111 16.676409 2.0239203 11
-3.6619391 17.177418 2.0169938 11
-3.6894755 18.396498 1.9940615 10
-3.8479922 8.0885496 2.4608257 15
-3.9539738 13.061081 2.9796622 13.5
-3.8625581 18.086214 2.8862193 12
-3.3271866 7.5398011 0.20200352 8
-3.4943299 9.7331867 0.24724662 8
-3.451 5.285953 0.59553349 10
-3.5270038 6.4036078 0.34536192 9
-3.3901894 6.5143342 0.36431909 9
-3.3858788 7.0559483 0.43401238 9
-3.221741 7.4401169 0.42851928 9
-3.3951917 11.370377 0.61666656 9
-3.3377357 5.3028007 0.81035095 11.333333
-3.5837617 18.587261 1.7559588 10
-3.324075 16.407766 2.0192258 11
-3.4279852 8.171689 2.4637816 15
-3.3154354 13.192234 2.4475489 12
-3.3695307 12.532902 2.9799829 14
-3.4444733 13.139292 2.8723803 13.25
-3.4296074 18.127106 2.8936524 12
-3.1575384 6.8434653 0.40174225 9
-3.1040292 7.5086775 0.5004068 9
-2.9524651 7.7323885 0.49896109 9
-2.8467267 5.4460611 0.93320167 12
-2.8720593 16.210243 2.0173097 11
-3.2158985 17.040415 2.0137296 11
-3.016526 8.2583609 2.4710619 15
-2.9785833 13.260031 2.8792207 13.333333
-3.0584064 13.238551 3.070471 14
-2.5162411 1.0833632 0.24198791 10
-2.5827849 1.3891296 0.24077494 9.875
-2.64237 1.7177353 0.1927229 9.5
-2.5156114 1.0685363 0.55999321 13.333333
-2.5887353 1.4305381 0.56144279 13
-2.6410706 1.7098949 0.49837944 12.2
-2.5910277 1.4142396 0.78124338 15
-2.6528137 1.7525712 0.81151962 14.666667
-2.5824919 7.9313173 2.3764663 15
-2.503571 8.3485479 2.4793746 15
-2.6924453 13.321001 2.4538674 12
-2.6122742 13.335597 2.7064681 13
-2.7345145 13.256713 3.0821841 14
-2.0165379 -1.261992 0.25235033 10
-2.0584521 -1.0087056 0.25964415 10.444445
-2.146035 -0.62372893 0.2575492 10.5
-2.0205491 -1.271596 0.48810285 13
-2.05776 -1.0209705 0.51162517 13.285714
-2.1531641 -0.58617395 0.4935334 13.5
-2.1691751 14.18308 1.8225982 11
-2.3066711 8.4079208 2.4902439 15
-2.1047411 8.4505081 2.498286 15
-2.1863172 8.8845749 2.4221504 15
-2.3885076 13.422984 2.4626575 12
-2.3936386 12.44991 2.993753 14
-2.4035447 13.233465 3.0863259 14
-1.8535454 -1.4601533 0.27154437 10.363636
-1.8776168 -1.4509034 0.53301162 13.5
-1.9989798 -1.1610105 0.68162668 15
-1.9575703 11.857997 2.001616 12
-1.9938976 13.187628 1.9617695 12
-1.9017804 8.4853687 2.5034626 15
-1.7499778 8.9344063 2.4396777 15
-1.3864088 -1.4643084 0.26245764 10.7
-1.4120036 -1.4647042 0.51670146 14
-1.2632411 8.9938688 1.2200936 11
-1.3706466 8.706522 2.1417203 14
-1.355611 9.1207457 2.1449559 14
-1.5751789 9.5578957 2.1118896 13
-1.3583354 9.6689415 2.1287644 13
-1.5060543 8.6104031 2.5319645 15
-1.0249611 -1.3884281 0.27817288 11.571428
-1.0329297 -1.3871964 0.42982268 14
-0.8831442 7.0224414 1.027734 11.5
-0.82261163 7.0236273 1.3145887 13
-0.88482171 7.0406532 1.8229688 14.5
-1.0145365 7.5425358 2.1161461 15
-1.2178303 7.6691027 2.1431122 15
-0.62792802 0.47235969 -0.22655424 0
-0.42576036 1.117725 -0.2254453 2
-0.4361161 1.5097712 -0.23339882 3
-0.52359247 1.6735605 -0.24352904 3
-0.60720587 -1.3003778 0.28285608 12.461538
-0.62335521 -1.3045851 0.42674917 15
-0.52371597 7.0669103 0.43573931 9
-0.62108248 7.0588741 1.057651 11.5
-0.58314359 7.074863 1.3974806 12.75
-0.65707099 7.0587006 1.7843797 14.4
-0.20531014 0.71180326 -0.22092216 0
-0.13494487 0.98483205 -0.18167625 2.2307692
-0.32382375 1.302526 -0.22540553 2.5
-0.044348419 1.8014718 -0.23897238 3.6666667
-0.12736596 2.1548622 -0.25394771 4
-0.23377371 -1.2264841 0.27947828 13
-0.041168574 -1.1878839 0.29087594 13.5
-0.28091159 7.1655273 0.45604354 9
-0.11404911 7.2305336 0.47022423 9
-0.29660314 7.1557384 1.0516759 11.5
-0.11861852 7.2315583 1.0997283 11.5
-0.26701957 7.210886 1.5349965 13
-0.059900194 7.2610812 1.259165 12
-0.29743859 7.176774 1.7497088 14.5
-0.1184864 7.2455173 1.7114869 14
-0.27388686 7.2027702 2.0572877 15
0.24248426 -1.3408757 -0.032131623 6
0.25549138 -0.99419177 -0.18916222 1.4
0.24481176 -0.65574896 -0.18907191 0
0.22522835 0.66468126 -0.20415069 0
0.18616003 0.96736199 -0.20727357 1.4
0.12137773 1.325061 -0.20612416 3
0.19802715 1.7632961 -0.21363267 4
0.1566785 2.2221699 -0.2443461 4
0.11554091 2.6243057 -0.25664905 4.5
0.074990593 3.0183084 -0.26796266 5
0.037010685 3.39908 -0.28249121 5
0.35665384 -1.3196551 0.09663628 8.666667
0.191801 -1.1405445 0.28399992 13.5
0.32592317 0.9695735 0.057712533 9
0.053825434 7.2635159 0.4828465 9
0.22448337 7.3118868 1.0641042 11
0.16895217 7.3054352 1.3187773 12.5
0.18371339 7.3073673 1.8120956 14.4
0.027298551 7.2799888 1.9545958 15
0.58445776 -1.2786139 -0.079630814 5
0.60172284 -0.99969363 -0.16240244 2.5999999
0.62083602 -0.57471198 -0.1673996 1.2222222
0.66809887 -0.26623765 -0.16872258 0.5
0.53503752 0.67617851 -0.19867334 0.66666669
0.56249762 0.97292089 -0.17017742 2.9333334
0.59139961 1.3175921 -0.19116262 3.3333333
0.55246794 1.7922251 -0.20498706 4
0.63218981 2.1808791 -0.21203193 4.3333335
0.56197304 2.5391977 -0.22618271 5
0.47145772 3.0194919 -0.24556217 5
0.48316267 3.3961842 -0.25674617 5
0.62675005 -1.2858319 0.12663929 9
0.59660113 -1.0526396 0.29666126 13.5
0.57146615 1.1092579 0.11947101 9.666667
0.57939166 7.3780613 1.0381824 11
0.61357826 7.3994489 1.3263298 12.5
0.54852557 7.3911381 1.7905849 14.166667
0.76334238 7.4364591 1.957235 15
1.0013885 -1.0765567 -0.094265088 4.6363635
0.99826461 -0.58729494 -0.14726546 3
1.0065031 -0.22538432 -0.14847288 2.3333333
0.84805697 2.9296796 -0.22074457 5
0.90713924 3.2969441 -0.22940032 5
1.0622535 -1.2064017 0.19908567 10
0.94943672 -1.0287827 0.26127726 11.863636
1.137699 -0.93806797 0.46411479 15
1.0315408 7.4757094 1.0511738 11
1.0735357 7.4943638 1.2896265 12.333333
0.93146282 7.469089 1.6986229 13.6
0.95076537 7.4485888 2.0395272 15
1.3828942 -1.0321312 -0.088305287 5
1.3913109 -0.61114895 -0.1168222 4.4000001
1.3407248 -0.31947854 -0.13291702 3.6666667
1.399724 6.7750764 -0.11436286 7
1.4694234 6.909996 -0.25872785 6
1.3703718 -0.98420823 0.21627977 10.25
1.554605 -0.63064712 0.31081456 12
1.4252015 7.3907509 0.087686256 8
1.4050877 -0.92432016 0.47377408 14.4
1.5625303 -0.62301552 0.47520652 14.5
1.3823025 7.5536375 1.0978 11
1.4218588 7.5664153 1.2935549 12
1.3660928 7.5615239 1.7175758 13.6
1.2655928 7.0717297 2.1102626 15
1.411647 7.570478 2.0248041 15
1.6405139 -0.89697975 -0.053922489 6
1.8394219 -0.63940316 -0.060941249 5.4000001
1.8363688 -0.35730246 -0.093285568 5
1.6875584 -0.96712303 0.10956667 8
1.6756479 -0.64925718 0.26553002 10.9
1.9139627 4.3464832 0.34752178 9
1.852885 4.4943552 0.35633236 9
1.9728707 5.7665272 0.13630056 8
1.6400779 -0.92130113 0.53050882 14.5
1.6365472 -0.61199248 0.49282798 14.5
1.8521878 4.4914384 0.41838881 10
1.6605608 5.4920483 0.3993606 9
1.6064974 5.7410183 0.40849015 9
1.6435127 7.6094084 1.1482358 11
1.7592145 7.6374407 0.99770296 11
1.8669567 7.6568222 1.2887594 11.75
1.5900749 7.6088614 1.8992797 14
1.8153526 7.6597943 1.7429814 13.333333
1.7872615 7.0345154 2.1421576 15
1.7981828 7.6579542 2.0696306 15
2.1112533 -0.54105914 -0.053944822 6
2.0364461 5.5746856 -0.21322444 6
2.0358124 5.7033186 -0.10127245 7
2.1952708 -0.61991644 0.24461468 9.6153851
2.3820698 0.37872499 0.28008905 10
2.3878083 0.41476572 0.27429003 10
2.1817787 -0.56805944 0.56330979 13.714286
2.0711226 3.6531205 0.41260836 10
2.2701821 7.7418199 1.0050647 11
2.1868665 7.7250834 1.2550882 11.5
2.144649 7.7218046 1.8529953 13.5
2.3050148 6.9398847 2.1655726 15
2.1942489 7.2826939 2.1493409 15
2.2022152 7.7373657 2.1147575 15
2.5014105 -0.52290934 -0.017897185 6
2.4645956 7.1834931 -0.08336734 7
2.4751182 -0.46384102 0.204009 9
2.6184709 -0.23317948 0.25448421 9.4444447
2.4374921 0.18366736 0.27459532 9.8571424
2.6277535 0.55484402 0.27272898 9.666667
2.4616315 3.577996 0.36834568 9
2.6216938 3.6259007 0.36443594 9
2.4145827 7.455812 0.29571024 8
2.4281561 -0.42020261 0.59442598 13.5
2.6428308 -0.24131903 0.61380249 13.090909
2.6742129 0.23002192 0.55795991 12.625
2.7142217 0.49350178 0.5803414 12.6
2.6372812 3.5104048 0.48854816 10
2.3978684 7.4900708 0.37383369 9
2.6413572 7.8204484 1.3192554 11.666667
2.5561571 7.8101506 1.7223488 13
2.6980917 7.0754318 2.1630192 15
2.568512 7.8062487 2.0692248 14.5
3.0633178 -0.41200572 0.16072246 8
2.983496 -0.31443918 0.25935319 9.2857141
2.9801371 -0.13570125 0.64690381 12.888889
2.8280671 0.18640715 0.60640562 12.666667
3.0000596 -0.14353485 0.9295066 15
2.7909596 0.56845176 0.82935685 15
2.93663 7.8862586 1.015638 11
3.0050681 7.9015713 1.311206 11.5
3.0363231 7.9206781 1.7119383 13
2.7939558 6.7567058 2.1707079 15
2.94699 6.9670525 2.1718087 15
2.9896677 7.8409414 2.1027496 14.25
3.2481744 -0.22328717 0.35548753 10
3.580868 3.3989718 0.29147553 8.666667
3.4600708 0.020788986 0.72580773 12.5
3.5755825 3.3981447 0.61367524 10.333333
3.5435882 0.036370203 0.99214113 14.5
3.5779827 3.3882966 1.0172004 12.8
3.582407 6.3072801 1.0596051 11
3.5354574 6.6112003 0.90363926 10.5
3.4879155 6.8622193 0.9777261 10.5
3.4397399 7.8633103 0.87482995 10
3.5756645 3.3720179 1.3480363 15
3.5327685 6.6036057 1.4175658 12.333333
3.336478 7.9204412 1.3436282 11.666667
3.5745645 6.3799801 1.7589779 14
3.522464 6.6438522 1.8013273 14
3.4585769 6.9115462 1.8543701 14
3.4965131 7.3673258 1.7337056 13
3.313195 7.9270988 1.7546817 12.666667
3.5227294 6.704556 2.1942048 15
3.3437657 6.8378329 2.1029484 15
3.3042192 7.8363481 2.1221268 14
3.9736946 1.5581121 0.25135127 8.5
3.9185328 1.8372431 0.21037076 8
3.8400519 2.2077849 0.22375274 8.333333
3.7667255 2.5698392 0.22724713 8.3999996
3.6622529 3.001796 0.2664516 8.5
3.611351 3.2149551 0.26066726 8.5
3.9001915 5.0533185 0.33421907 8.666667
3.8131781 5.3760085 0.26568922 8
3.6777058 5.7680178 0.29065877 8
3.667798 6.2973285 0.31277758 8
3.9814045 1.5373505 0.4550297 10
3.9266827 1.8593961 0.51403207 10.333333
3.8593302 2.2005622 0.57199007 10.6
3.7882519 2.5977678 0.63864231 10.888889
3.6572776 3.0156922 0.5884707 10.333333
3.6038451 3.2284081 0.66209203 10.5
3.9880214 4.6286893 0.71437711 10
3.9238241 4.9426618 0.63254988 9.666667
3.8074236 5.407186 0.77855176 10
3.6802969 5.8563023 0.70685774 10
3.6454489 6.1530771 0.6531229 10
3.7874353 2.6114635 0.95732683 12.833333
3.6487815 3.0198834 0.99871594 13
3.5983603 3.283612 1.0770993 13.333333
3.8959377 3.8829651 1.1552089 13
3.9793131 4.6600623 1.0005592 11.5
3.9062748 4.9706388 1.0824472 11.666667
3.7992814 5.4154224 1.0286925 11.333333
3.6905024 5.7370501 0.90948379 10.75
3.6346796 6.1571259 0.85521787 11
3.9143119 2.5453598 1.4280943 15
3.7537198 2.9786234 1.3699324 14.857142
3.6034446 3.2789838 1.4108982 15
3.9761844 4.7047095 1.3540339 13.333333
3.8832755 5.0109591 1.4316922 13.5
3.8064423 5.3700361 1.3996749 13
3.6582375 5.8624887 1.3800135 12.5
3.6281548 6.1840649 1.3624823 12.333333
3.9009602 4.97194 1.763463 15
3.788635 5.4566636 1.7843894 14.75
3.6680622 5.8355427 1.7514534 14.5
3.6183181 6.2223949 1.823352 14.5
3.7997525 5.5324254 1.9977719 15
3.7010095 5.9730096 2.0700984 15
3.6040788 6.4820485 2.1601663 15
4.0652413 1.0947748 0.018031908 7
4.021102 1.2365103 0.032384343 7
4.0435839 1.1071279 0.30489644 8.75
4.0079331 1.3860246 0.20860411 8.2857141
4.0852561 4.3054457 0.25867763 8.333333
4.0268555 4.6313314 0.30655158 8.5
4.1600947 1.0601008 0.63661057 11
4.1124177 1.3636796 0.6241805 10.6
4.2300439 1.8190937 0.73035312 11
4.2672272 2.5154326 0.75449556 11.333333
4.0767632 4.324132 0.64429635 10
4.0194035 4.6205769 0.65076125 9.666667
4.1826253 0.25277025 1.0068082 13.5
4.2176113 0.43635988 1.1335266 14
4.2736783 2.5114615 1.0704378 12.666667
4.0713425 4.2423382 0.94756979 11.5
4.0315781 4.5112939 0.97494519 11.5
4.1663156 0.20677581 1.2896587 15
4.2847977 0.57611108 1.3421191 15
4.3166819 0.94894964 1.3804122 15
4.2399712 1.4105692 1.3391118 15
4.1356449 1.8163686 1.3737736 15
4.0457468 2.2435498 1.400339 15
4.1301918 2.5558858 1.3585759 14.5
4.0810223 2.8519409 1.3111404 14
4.0517793 4.269155 1.4284259 13.666667
4.0188546 4.4936528 1.3506944 13.5
4.0769353 4.2742529 1.7856773 15
4.0222635 4.5379076 1.7602164 15
4.6463623 1.1519027 0.8128556 12
4.6226764 1.3193067 0.83181906 12
4.3920493 1.8045235 0.76023167 11
4.4102402 2.3228045 0.79577249 11
4.6745057 1.0980848 1.0813687 13
4.6042686 1.3934362 1.0408769 12.857142
4.5123982 1.8239694 1.028993 13
4.4388895 2.2049158 1.035225 12.857142
4.3892899 2.5033658 1.0164925 13
4.5263963 0.6331327 1.3354504 14.666667
4.6257205 1.0454439 1.3431102 14.666667
4.5958109 1.4929681 1.3120807 14.5
4.4989538 1.7731092 1.3029997 14.333333
4.4136119 2.2783494 1.2517232 14
4.7871089 0.60561001 1.3621392 15
