# .PCD v0.7 - Point Cloud Data file format
VERSION 0.7
FIELDS x y z intensity
SIZE 4 4 4 4
TYPE F F F F
COUNT 1 1 1 1
WIDTH 488
HEIGHT 1
VIEWPOINT 0 0 0 1 0 0 0
POINTS 488
DATA ascii
-7.2241712 12.278274 1.7867793 11
-7.428463 12.929132 1.8115414 11
-7.4881768 16.506805 2.2668412 11
-6.8261962 7.0930219 0.39272502 9
-6.8254762 7.4375162 0.41607744 9
-6.8209329 7.1677523 1.056806 11
-7.0328212 9.815774 1.4428008 11
-6.5786209 4.5087414 0.10717761 8
-6.5936451 5.0145054 0.11187987 8
-6.5764194 4.4079995 0.54693663 10
-6.5968881 4.5196576 0.35525635 9
-6.611218 5.0725098 0.42150164 9
-6.5937786 5.3322449 0.42781824 9
-6.5602694 4.5489616 0.72643703 10
-6.5871587 4.8150215 0.98535514 11
-6.5601892 4.5069904 1.0618962 11
-6.543129 5.4371243 1.1390293 11
-6.6289434 7.9821129 1.2157124 11
-6.5162749 8.2788095 1.3193456 11
-6.4388833 11.416862 1.3092 10
-6.5147972 4.3465805 1.7150434 14
-6.5375795 4.5761509 1.6617216 13
-6.5589752 4.8394475 1.8072402 14
-6.4693279 12.679353 1.502293 11
-6.5430374 15.558237 1.6491106 10
-6.4508667 16.401873 1.7178359 10
-6.5745845 5.0947742 1.8548934 14
-6.6780429 6.2307386 2.1238151 14
-6.5438471 10.930753 1.9863458 12
-6.5118723 11.482224 2.0678055 12
-6.5481648 12.509749 1.8681151 11
-6.5986485 15.632167 1.847544 11
-6.782609 7.2840991 2.3243964 14
-6.5282383 8.160943 2.4552009 14
-6.501709 11.223419 2.3577089 13
-6.6277614 15.201987 2.2329922 11
-6.03088 5.8756075 0.062705263 8
-6.1526012 8.4035406 0.2079832 8
-6.3091111 4.707047 0.60306692 10
-6.3204346 4.9576807 0.62914127 10
-6.4060693 5.4767284 0.45202422 9
-6.3104243 4.6988277 0.85465533 11
-6.3174787 5.0606556 0.89890194 11
-6.3248301 5.3776865 0.76290363 10.333333
-6.2372942 5.9027829 1.0045264 11
-6.3245764 6.282805 0.87565988 10
-6.3538404 6.6400709 0.85976601 10
-6.3699698 7.6021957 0.98923016 10
-6.372797 7.8574319 0.97768933 10
-6.3105574 4.6750045 1.0924923 12
-6.3206711 5.0323167 1.1412379 12
-6.3398333 5.4163632 1.1937748 12
-6.1817656 5.7935166 1.2425326 12
-6.3268852 6.2768288 1.051025 11
-6.3797612 8.3656607 1.0539382 10
-6.1277847 8.4259377 1.0577706 10
-6.3177094 4.7497182 1.6361945 13.5
-6.3218122 4.9950476 1.6834158 13.5
-6.3283396 5.4103289 1.6499813 13.25
-6.2538452 5.8216186 1.5014937 13
-6.3203049 4.7641006 1.9852858 15
-6.3279557 5.0009918 2.0360703 15
-6.3404293 5.4263725 2.0492587 14.666667
-6.0949888 16.616217 1.7307217 10
-6.1556315 7.3927703 2.5587354 15
-6.2284017 8.4629745 2.2434902 14
-6.3554807 15.580218 2.2917547 11
-5.6297946 5.5812192 0.36093521 9
-5.9428148 4.7830901 0.96321446 11
-5.7081137 5.1509023 0.91371733 11
-5.8192825 5.4821286 0.94052517 10.666667
-5.7123632 5.9397416 1.0134457 11
-5.7135882 5.7922287 1.1814965 12
-5.9932117 8.5588169 1.0538605 10
-5.9794226 9.0741777 1.111038 10
-5.8595781 5.0614066 1.7450018 14
-5.6621752 14.750258 2.1161597 11
-5.9016266 17.320766 1.7846643 10
-5.756813 13.645615 2.3852189 12
-5.9105763 18.243341 2.583926 11
-5.5829387 5.5673966 0.22022088 8
-5.3145599 5.9192863 0.84092289 11
-5.4562097 5.5252018 1.3047605 12.666667
-5.3468175 5.8919954 1.2399212 12
-5.4222207 5.4720521 1.6092731 13
-5.3655105 5.9867902 1.4828557 13
-5.4972792 14.812028 2.0495954 11
-5.3003573 14.842469 2.1329567 11
-5.472353 8.5266285 2.4540162 14
-5.4814696 8.8482695 2.8635633 15
-5.3297052 18.279238 2.6357179 11
-5.0563726 5.977674 1.2465173 12
-4.8694263 6.0346498 1.2521526 12
-5.0787077 16.17067 1.0297539 9
-5.1343851 6.0024323 1.702878 14
-5.0135603 16.464434 1.4005339 10
-5.1021562 14.803245 2.0427811 11
-4.8874984 18.480272 1.8646446 10
-5.0331359 6.9838157 2.3741751 15
-5.1629734 8.7842064 2.8276031 15
-4.9854531 18.296606 2.6190033 11
-5.1099405 18.532557 2.7325284 12
-4.4555879 5.9805169 0.81110877 11
-4.5066781 7.1263981 0.93844771 11
-4.6398721 18.739956 0.68090725 8
-4.5264702 18.87121 0.5759446 8
-4.4969721 5.9423203 1.3335422 12.5
-4.6511683 16.177303 1.0295688 9
-4.599627 16.477219 1.4083823 10
-4.6475978 10.698179 2.2063694 13
-4.5064116 11.423968 2.0456481 12
-4.6279001 8.6112661 2.4446609 15
-4.4856968 13.663663 2.6886168 13
-4.6440287 18.332499 2.5891738 11
-4.6380901 18.534641 2.7470193 12
-4.4559226 12.035553 3.0000231 14
-4.4016414 7.0118842 0.29010803 9
-4.2010283 5.9790506 1.0361201 12
-4.0637493 18.881268 0.60023528 8
-4.1431036 5.9618664 1.3269993 12.5
-4.2140427 5.8640003 1.7200837 14.5
-4.1897039 16.497955 1.4170419 10
-4.2158928 10.705167 2.1937034 13
-4.2013764 11.427467 2.0450175 12
-4.3623142 12.322935 1.8927138 12
-4.2835288 8.6883745 2.4382105 14.75
-4.2415967 8.9949846 2.4265535 14
-4.295609 13.626111 2.3792143 12
-4.1355987 12.039436 2.9775045 14
-4.1355462 13.667136 2.6795235 13
-4.1913567 18.605106 2.7706201 12
-3.8320065 2.4499593 0.14201421 8
-3.8554184 13.469904 0.39181438 8
-3.7517529 5.8370552 1.004649 11.666667
-3.6119263 6.0687346 0.84287417 11
-3.8297069 16.486712 0.81195158 9
-3.7370293 18.817644 0.69923067 8
-3.977102 5.99265 1.233191 12
-4.0110545 16.490963 1.1409882 9
-3.9647267 5.8167105 1.8112831 15
-3.7797642 16.49671 1.4243197 10
-3.9348829 6.1464553 1.9013201 15
-3.97276 11.637563 2.0768905 12
-3.9210052 18.238682 1.8320183 10
-3.8797719 8.6449633 2.4400709 15
-3.816853 8.9045839 2.4862077 14.5
-3.8050234 9.2432556 2.3873515 14
-4.002533 11.300043 2.2852864 13
-3.9606755 13.673027 2.3867121 12
-3.9960022 18.408918 2.4400296 11
-3.9227836 18.599955 2.3490798 11
-3.852598 12.148186 2.9799702 14
-3.793396 13.671601 2.6704335 13
-3.7244532 18.568413 2.7808337 12
-3.2169201 -0.95071477 0.28347948 9.666667
-3.2291472 -0.72415763 0.27037582 9.5
-3.3396714 1.3939823 0.18178914 8.8000002
-3.3828068 1.8028526 0.20894009 9
-3.4039049 2.0777268 0.16019562 8.666667
-3.213855 -0.89978325 0.51687193 11.8
-3.2214165 -0.75156575 0.56291997 12
-3.2954385 1.4166013 0.52181059 11.5
-3.3211882 1.7831703 0.53703761 11.5
-3.348151 2.1620519 0.44771138 11
-3.5616491 7.0123572 0.29619676 9
-3.3758936 7.3114214 0.35578132 9
-3.3881578 18.502783 0.48150355 8
-3.2882745 1.1113743 0.91742426 15
-3.2982671 1.4288777 0.89464772 14.6
-3.3168354 1.8223939 0.87370974 14
-3.3209422 2.1907542 0.90482503 14
-3.3317757 5.9494529 0.98450184 11.666667
-3.4250908 16.499889 0.84386337 9
-3.6032715 16.488422 1.1601688 9
-3.4834676 19.05282 0.9635185 9
-3.3788109 16.505627 1.4305711 10
-3.3331723 19.054935 1.4737436 9.5
-3.494966 18.329744 1.8324347 10
-3.595583 8.7321444 2.4281373 15
-3.3539946 8.9640589 2.4877019 14.666667
-3.5500634 9.2561598 2.392112 14
-3.4486885 13.693851 2.3911934 12
-3.460151 18.616325 2.380091 11
-3.4563251 13.695521 2.667413 13
-3.313091 17.361778 2.5968156 12
-3.30038 18.41791 2.6252098 11
-2.9895086 -1.2403857 0.22667044 9
-3.0680146 -1.0258029 0.24898601 9.4444447
-3.1323657 -0.74398828 0.19253975 9.5
-3.0943542 -0.996782 0.60183251 12.416667
-3.0298653 11.776668 0.34498361 8
-3.0236537 19.023645 0.52478606 8
-3.1180589 -0.97741944 0.9063648 14.666667
-2.8753815 5.9860349 0.8818205 11
-3.1689849 12.315589 0.66023463 9
-3.1552804 18.941797 0.6469478 8
-3.0208955 19.045568 0.99900419 9
-2.977052 19.070824 1.6189855 10
-3.0456359 8.7506523 2.4358857 15
-3.026931 9.017128 2.460052 14.5
-2.9693055 12.355221 2.9648075 14
-3.1201856 13.697892 2.6590219 13
-2.9733956 18.492165 2.7049859 11.5
-2.5344679 -1.2240908 0.16334742 8.5
-2.6123929 -1.0376925 0.27218673 10
-2.7663832 -1.2030504 0.76314211 14
-2.5490243 -1.0764595 0.57353503 13.166667
-2.5973711 8.3212299 0.78307039 10
-2.5643196 19.055428 1.0342582 9
-2.6468403 19.057001 1.4910582 9.5
-2.6257944 18.421177 1.8256526 10
-2.6724608 9.0261536 2.4646974 14.5
-2.6813359 12.45768 2.9696739 14
-2.6210139 13.705158 2.6492863 13
-2.2869828 -1.206867 0.12824057 9
-2.1939282 -1.0738335 0.23841098 10
-2.1944065 -1.0786886 0.54001063 13.5
-2.1067433 19.065292 1.0695258 9
-2.1765592 18.325895 1.8101543 10
-2.1282437 8.0384512 2.3318672 15
-2.1857045 8.8711596 2.4854565 15
-2.0981467 18.629078 2.4648094 11
-2.2301741 12.534194 2.9607933 14
-2.1268585 13.715294 2.6408026 13
-2.3821268 18.667246 2.8414476 12
-1.7970079 -1.0781245 0.2565268 10.555555
-1.8083606 -1.077525 0.51121736 13.875
-1.8670796 19.103071 1.4007102 10
-1.834919 9.0100098 2.4416199 15
-1.9457536 13.728947 2.4062569 12
-1.8007795 13.724195 2.637012 13
-1.3873868 -1.0354342 0.28194359 11.777778
-1.4285392 -1.0557634 0.47140163 14.5
-1.4505761 8.9617491 2.4431167 15
-1.6207969 13.749907 2.4118094 12
-1.475739 13.751873 2.6362541 13
-1.0089231 -1.0220758 0.28973827 12.692307
-0.96815366 1.0899765 0.32296002 14
-0.97977179 1.2481363 0.31292436 13.5
-1.1673377 -1.0053306 0.40430859 14.5
-0.92534792 7.1798158 1.810799 14
-0.9992407 7.2426653 2.1063728 15
-1.1048987 8.9675531 2.3939793 15
-0.44300383 -0.99679822 -0.19366743 2
-0.4196806 -0.63143861 -0.1980648 0
-0.60007632 -0.3761012 -0.21042073 0
-0.51573759 0.56585634 -0.22334291 0.25
-0.44368267 0.83404213 -0.22633944 1
-0.59907991 -1.0096818 0.2705546 13.307693
-0.65351665 1.0964996 0.32516024 14.4
-0.66746855 1.2502656 0.31727034 14
-0.55674797 7.1878009 0.53340757 9.5
-0.46333313 7.2266135 0.44580278 9
-0.5073908 7.2038326 0.7915675 10.5
-0.60105503 7.2017541 1.2085075 12.333333
-0.46883118 7.2186613 1.1671534 12
-0.49519464 7.2250786 1.8022705 14
-0.59815258 7.2056494 2.0261521 15
-0.61264092 7.3805947 2.0452192 15
-0.3320823 -0.86381763 -0.1933963 1.3333334
-0.25924745 -0.64494693 -0.1967153 0
-0.32796547 0.69264406 -0.22508918 0
-0.20568642 -0.99682957 0.27196607 14.1
-0.37243545 1.2509923 0.34202656 15
-0.28582153 7.2041988 0.63583487 10
-0.22336188 7.2827706 0.46889752 9
-0.10220256 7.2098145 0.81792694 11
-0.18670884 7.2216043 0.81792659 10.666667
-0.2491679 7.2407489 1.3082529 12.6
-0.23628411 7.3089447 1.8112719 14
-0.24954158 7.2813721 2.0394754 15
0.16467692 -0.97465712 0.26820672 14.142858
0.16635801 7.303298 0.58147025 9.5
0.2107027 7.287806 0.82767236 10.666667
0.17817912 7.3130407 1.3041327 12.5
0.11681812 7.3381572 1.8060204 14
0.18934187 7.3062725 2.0703459 15
0.77806687 -0.4356918 -0.16817956 1
0.69960147 -0.21663956 -0.18118961 0.2857143
0.71819061 0.20479959 -0.1847416 0.33333334
0.77207863 0.41976389 -0.18165472 1
0.59014624 -0.91287667 0.28896004 14
0.57954252 -0.64246982 0.2625342 15
0.6304943 7.3431683 0.58836263 9.3999996
0.58239609 7.3061013 0.81974697 10.666667
0.58935297 7.3224344 1.3126664 12.5
0.60861421 7.3850904 1.8060304 14
0.59734786 7.1605711 2.0717125 15
0.61210382 7.3842425 2.09168 15
1.0220957 -0.57486618 -0.17139226 2.125
1.0089186 -0.22524768 -0.17691937 1.75
1.0006543 0.21467035 -0.18113777 1.625
1.0211269 0.56718355 -0.18450581 2.1428571
0.99280173 -0.87442392 0.2726925 12.272727
1.0485929 -0.66829467 0.30067188 13.333333
1.0083945 -0.88382244 0.42706195 15
1.025292 7.4072661 0.54213119 9
0.98581839 7.3149958 0.81464159 10.5
0.97641116 7.3422513 1.3298949 12.5
1.0203625 7.4285622 1.8091362 14
0.84642053 7.0562844 2.0671844 15
0.95764023 7.3350043 2.090883 15
1.4125396 -0.63120252 -0.1415382 3.8333333
1.4741459 -0.18483593 -0.12742434 4
1.4317293 0.18409072 -0.15201391 3.5714285
1.3978933 0.61678857 -0.16813582 3.6666667
1.452826 0.89555991 -0.16972697 4
1.3510919 -0.9121033 0.18739791 9.5
1.3967073 -0.65023863 0.26596528 11.466666
1.4492921 -0.17552681 0.27708986 11.952381
1.4468881 0.09849754 0.27805415 12.166667
1.4155177 4.2132249 0.33732879 9
1.362011 -0.61404246 0.44116244 15
1.4196516 -0.18810436 0.45240095 15
1.4121411 0.11735694 0.43602774 15
1.5309736 3.3044133 0.44985953 11
1.2796893 5.1905251 0.36727333 9
1.4669049 7.1572185 0.51600552 9
1.4345359 7.402452 0.54523969 9
1.3817492 7.3258905 0.80993426 10.5
1.375167 7.3674316 1.3322258 12.5
1.4888769 7.4561224 1.8112617 14
1.4633191 7.1995873 2.0798156 15
1.263495 7.3492832 2.0280581 15
1.6853527 -0.54944897 -0.090316325 4.8000002
1.6412548 -0.1617963 -0.068955779 5
1.8169785 0.27845246 -0.12852016 4.3333335
1.7928561 0.56459719 -0.15175995 4.25
1.7941476 0.96546984 -0.17309475 4.25
1.9273735 1.2896413 -0.18379094 5
1.8668457 -0.87251079 0.2789731 10.25
1.7869962 -0.60276514 0.26298574 10.642858
1.7091388 -0.26042783 0.23685405 10.375
1.7285503 0.26107121 0.27370828 11.142858
1.8984945 -0.82946146 0.53959167 14
1.8206313 -0.57314301 0.53752214 14.285714
1.736376 -0.16067185 0.53164887 15
1.7179101 0.17724821 0.50658602 14.75
1.6944315 0.41767389 0.43666208 14
1.7217938 3.2463582 0.42645004 10
1.8392131 7.4906173 0.53500056 9
1.7874436 7.4041924 0.87739599 10.5
1.7718318 7.3935308 1.3224735 12.333333
1.7813114 7.4909487 1.8183948 14
1.7188257 7.1535654 2.0806971 15
1.7015414 7.4852495 1.9902545 15
2.0212474 -0.79258114 -0.021477794 6
2.1501644 0.57442403 -0.14796279 5
2.3453965 0.92504978 -0.17944182 5
2.1775963 1.3110259 -0.18790229 5
2.021862 -0.81682509 0.13047439 8
2.0232675 -0.60978276 0.23614971 9.75
2.1884305 5.0735722 0.31624177 9
2.2013347 5.457787 0.32596257 9
2.2202373 5.9013042 0.33616939 9
2.0045364 -0.8604902 0.45844388 13
2.0811903 -0.60663277 0.54625565 13.75
2.1303165 7.5177917 0.52921361 9
2.1938286 7.4266939 0.90795511 10.5
2.1998835 7.4256392 1.3367655 12.2
2.1802406 7.5227838 1.8266069 14
2.1334977 7.1762533 2.1084931 15
2.1873069 7.5198121 2.0114756 14
2.7387617 1.4990361 -0.19952735 5
2.4779518 1.7466046 -0.20104365 5
2.6527035 7.4178963 0.89510524 10.333333
2.5476925 7.409586 1.3990567 12.2
2.6995969 7.5661602 1.8411798 14
2.6144211 7.0864673 2.116895 15
2.4936304 7.5472026 2.0270376 14
2.8783286 0.98668301 -0.18263198 5
3.0681412 2.2373931 -0.21551755 5
3.160748 0.67012525 0.31930915 9.75
3.1652486 1.0012133 0.26394334 9
3.1337245 1.4203464 0.27531716 9
3.1030784 1.7637092 0.26947051 8.8000002
3.05617 2.1844079 0.20016249 8.6000004
3.0156066 2.6026394 0.23426256 8.666667
2.9693654 2.9744439 0.26808375 8.8000002
3.1654923 0.66664344 0.53816921 11.5
3.1677945 0.97663736 0.55319208 11.5
3.1515579 1.3445964 0.56208456 11.333333
3.1312799 1.8072296 0.50554103 10.5
3.1394053 2.2114561 0.62671989 11.25
3.0835276 2.6075544 0.61994421 11
3.0591025 2.911711 0.63003224 11
2.9944434 7.5914574 0.6396423 9
3.143714 1.9472361 0.85179579 13.5
3.0882645 2.2323823 0.97168738 14
3.0493522 2.6155801 1.0472326 14
3.0138519 2.9772348 0.99857831 13.25
2.9880424 7.430686 0.90963137 10.333333
2.9868126 2.928535 1.2289571 15
2.9241178 7.4448047 1.384638 12
2.9115503 7.5769715 1.846153 14
2.9633884 7.0054917 2.1212466 15
2.9128478 7.58283 2.0515215 14
3.2619622 0.93317652 -0.17818534 5
3.3197503 1.3852472 -0.18338303 5
3.282778 1.8634483 -0.10731678 6
3.5992751 3.5459628 -0.023235798 7
3.298701 0.96832979 0.082172267 7
3.2920644 1.4114062 0.11190432 7.5
3.2799196 1.8914514 0.05688902 7
3.2823753 2.5008242 0.13571393 7.5
3.5901856 3.9389596 0.18528838 8
3.5544741 4.1515331 0.24043863 8.333333
3.4707234 4.5604181 0.24871607 8.333333
3.4082227 5.0887699 0.32113788 8.75
3.3419545 5.3306007 0.28559268 8.333333
3.3207688 5.7964826 0.30239561 8.333333
3.2690291 6.3065681 0.28537139 8
3.3083296 0.75486869 0.67228073 12.5
3.3782449 1.0190032 0.7010262 12.4
3.268522 1.4190056 0.67407835 12
3.3057177 1.9159495 0.73939073 12.333333
3.5688469 3.9998794 0.43909442 9
3.5575452 4.1915894 0.51376033 9.333333
3.4745038 4.5824904 0.54406893 9.333333
3.3416915 5.3556924 0.76145667 11
3.3146386 5.8741465 0.50255752 9.5
3.305933 6.1522956 0.5578106 9.5
3.4389207 1.9085188 0.89473581 13
3.2969294 2.1047187 1.0082388 14.25
3.254313 2.6404946 0.81739485 12
3.5741534 3.9547412 0.94730532 12
3.5549529 4.1387424 0.88757104 11.5
3.4772928 4.5391593 1.0155574 12
3.4304905 4.9698839 0.9775694 11.666667
3.3625631 5.3542323 1.1131597 12
3.3430204 5.8606734 0.99271661 11.333333
3.3189361 6.2086062 0.93781763 11
3.2549336 6.4718122 0.97713846 11
3.4186425 7.3634601 0.89182168 10
3.5670938 1.9399747 1.2433808 15
3.5597494 2.1271141 1.2706572 15
3.5754056 3.94243 1.4218086 14.5
3.5323391 4.1832566 1.4660155 14.5
3.4894524 4.5679078 1.4594561 14
3.4479163 4.9895735 1.5404314 14
3.3421984 5.9444838 1.4481266 13.5
3.2995265 6.3442292 1.2354771 12
3.3287508 7.4379673 1.4530718 12.2
3.4712903 4.6729102 1.6431483 15
3.4519801 5.0619726 1.7259043 15
3.3912437 5.4056268 1.7076139 14.5
3.3746302 5.8239083 1.7945859 14.5
3.3447869 6.1646485 1.7718592 14.333333
3.3156703 6.4624157 1.8329988 14
3.3704059 7.3977385 1.8211577 14
3.3334091 6.3704019 2.0043101 15
3.3064044 6.8977833 2.1216085 15
3.2366378 7.6044278 2.0697026 14
3.4734027 7.6458616 2.089395 14
3.7120075 1.7737755 0.76884669 12
3.6669691 2.0701032 0.7226519 12
3.7727969 3.8197246 0.65207338 10.5
3.7568638 4.2010412 0.67769796 10.5
3.713872 4.5978494 0.67728657 10.4
3.6767848 5.0323229 0.69133961 10.333333
3.6517093 5.2836566 0.76173908 10
3.686183 5.6856537 0.72840738 10
3.6386907 6.2394633 0.76883525 10
3.7670324 0.71060878 1.0298809 14.25
3.7480593 1.0194178 1.0095567 14
3.7515283 1.3862897 1.047871 14
3.7063303 1.7798078 1.0300696 13.857142
3.6630218 2.0802794 1.0224787 14
3.7430983 3.8182561 1.0657309 12.5
3.7224576 4.262238 1.1232511 12.5
3.6869223 4.5797577 1.121315 12
3.6703312 4.995399 0.91543067 11.333333
3.678231 5.5476241 0.79982018 10.5
3.6785398 5.8365541 0.81612462 10.5
3.6668453 6.1284661 0.83259493 10.5
3.7598653 7.3282242 0.91487211 10
3.7500496 1.397406 1.2446886 15
3.7165065 1.8478754 1.2504332 15
3.6636724 2.0793009 1.2768916 15
3.703572 4.7254472 1.2248819 13
3.6719995 5.0122781 1.2508497 13
3.6469913 5.3732171 1.2914937 13
3.6560919 5.8335404 1.343636 13
3.6344895 6.2075272 1.3915269 13
3.6238699 7.4029403 1.521762 12
3.7896948 7.4115539 1.5741752 13
3.7370298 7.7283993 2.1199431 14
4.1287198 7.5847697 1.6135559 12
