# .PCD v0.7 - Point Cloud Data file format
VERSION 0.7
FIELDS x y z intensity
SIZE 4 4 4 4
TYPE F F F F
COUNT 1 1 1 1
WIDTH 568
HEIGHT 1
VIEWPOINT 0 0 0 1 0 0 0
POINTS 568
DATA ascii
-2.916507 2.1928656 -0.051519752 9.5
-2.9373462 2.5598826 -0.09794534 9.4285717
-2.8574905 2.0335336 0.43148997 13
-2.983767 2.3039439 0.23341016 11.571428
-2.9337857 2.5967846 0.15780662 11.125
-2.866009 2.0372784 0.55580676 14
-2.9570205 2.3676372 0.57182378 14.2
-2.9269593 2.6503458 0.57836396 14
-2.4693842 1.5021247 0.036948223 10
-2.6638792 1.7768366 -0.022187553 9.8000002
-2.6374497 2.7580926 -0.10309027 9.1999998
-2.490814 2.8563921 -0.11368839 9
-2.4784088 1.5310346 0.32736504 12.833333
-2.6339769 1.8038808 0.28968406 12.222222
-2.7897148 2.0676663 0.18761121 11.5
-2.6364293 2.790796 0.19171426 11.5
-2.4913054 2.8860724 0.20851167 12
-2.6423562 1.9032918 0.54966789 14.666667
-2.79562 2.1491539 0.59249657 14.5
-2.6616316 2.8198094 0.55347192 14
-2.4697988 2.9254429 0.51887375 14
-2.13694 1.01621 0.11517986 10.777778
-2.327353 1.2940748 0.04329202 10
-2.2143269 3.0339398 -0.12023846 9.3999996
-2.1660318 1.0766299 0.34822816 13.636364
-2.3487377 1.3911349 0.34656623 13
-2.2360034 3.0498388 0.16710348 11.5
-2.2344522 3.0936251 0.55099821 14.5
-1.9818212 0.77332211 0.13087821 11
-1.991871 3.1842489 -0.105078 9.5
-1.7873719 3.3193746 -0.10953264 9.3999996
-1.9775331 0.80539662 0.32749215 14
-1.9923581 0.86936259 0.42766511 15
-1.9960257 3.2162981 0.20947997 12
-1.7831171 3.3510978 0.16237138 11.5
-1.9789321 3.2641616 0.5669117 14.5
-1.7675767 3.4018991 0.51294613 14.2
-1.2178969 -0.38774842 0.31939122 14
-1.2623564 -0.30867845 0.29579502 13.5
-1.5300595 3.4954498 -0.096004918 9.5
-1.2895733 3.6591542 -0.1114298 10
-1.4441991 3.5759659 0.13168518 11.285714
-1.276925 3.6863494 0.15173483 11.5
-1.4754087 3.6038811 0.52982616 14.2
-1.2857516 3.7356176 0.57770765 14.5
-0.87031168 -0.84593463 0.37484267 14
-1.017006 -0.54215497 0.32410657 14.125
-1.0104384 3.8562455 -0.093849696 10
-1.0293008 3.858084 0.14837556 11.5
-1.0460881 3.8982508 0.58468854 14.5
-0.55027622 -0.37268516 -0.17619587 0
-0.50228477 0.32721838 -0.23993108 0
-0.44771445 0.52636391 -0.25438815 0.5
-0.40269169 1.2322234 -0.33506104 3
-0.53784406 -1.2945879 0.43459201 13.111111
-0.62236649 -0.97986293 0.39401564 14.090909
-0.7275669 -0.64763141 0.30119127 14.25
-0.71462595 4.0577297 -0.076622598 10
-0.52194202 -1.3816479 0.55322951 14.75
-0.78013307 4.0231767 0.21053118 12
-0.60163939 4.1433191 0.14034805 11.25
-0.785263 4.0472374 0.50662786 14
-0.59449613 4.1835761 0.46589631 13.8
-0.63209271 4.1641583 0.74375445 15
-0.20337845 0.64273751 -0.2631447 0.2
-0.17786409 0.9562521 -0.29882562 1.7777778
-0.2530551 1.3380898 -0.33918202 3.25
-0.38982999 1.6753275 -0.38509002 4
-0.2232184 -1.7214829 0.49002451 11.909091
-0.17030624 -1.3314487 0.41029042 12.5
-0.29607585 -1.1157111 0.40023276 13.6
-0.19466405 1.6374521 0.21322788 14
-0.2155432 -1.7045655 0.64736772 14.428572
-0.19678168 -1.4520931 0.60532779 15
-0.1588074 1.602495 0.22068146 14
-0.081873685 1.6677728 0.2186155 14
-0.28982994 4.3355312 0.16580318 11.333333
-0.19548005 4.9800868 -0.035599921 10
-0.25735703 4.3786969 0.54716688 13.8
-0.23194234 7.9469328 0.28793347 11
-0.3059133 4.3679523 0.76502293 15
-0.1018618 7.9864869 0.47816899 12
-0.14177154 8.1225948 0.65721023 13
-0.12546124 8.004858 0.98985922 13.5
-0.11250179 8.0314112 1.2928065 15
0.078068092 0.65441114 -0.25001189 0.33333334
0.018819826 0.78323919 -0.26640561 1
0.0049047116 -1.3575603 0.41668624 12.5
0.12516133 -0.95111442 0.37296084 14.285714
0.21514009 1.3686311 0.23688796 14.75
0.054208688 1.7609358 0.19745454 13.5
0.0036510178 -1.3574961 0.56174368 15
-0.0057382933 8.0338612 0.16890211 11
0.16425152 8.1470289 0.2597467 11
-0.0081792427 8.0445604 0.4010841 12
0.1795941 8.1741343 0.47389007 12
0.061839145 8.1303596 1.0023981 13.5
0.29377466 8.2722321 0.94166392 13
0.014143409 8.1041803 1.2575905 14.5
0.2044023 8.2395515 1.2843453 14.5
0.70129067 -0.81440479 -0.050030012 3
0.66393691 -0.54630202 -0.082312554 1.5
0.68093354 -0.24217862 -0.12485459 0.40000001
0.75336426 0.11174326 -0.16443901 0.5
0.57530224 -0.96488333 0.42498732 14.222222
0.39474761 1.2693608 0.21487978 14
0.46079257 8.3418121 -0.27645677 9
0.63799667 8.4645243 -0.28882843 9
0.5384022 8.3975887 0.228264 11
0.58055997 8.445487 0.50613016 12
0.69250685 8.4978666 0.3028937 11
0.60480386 8.4721079 0.95792478 13
0.511334 8.4348507 1.307042 14.5
1.1084405 -1.3003165 0.012190214 4
0.9943282 -1.0105137 -0.020886717 3.75
0.98993891 -0.61554766 -0.068270788 2.75
0.99786413 -0.21452351 -0.11768391 2
0.98945481 0.17059267 -0.1687883 1.6666666
1.1641037 -2.376076 0.65344906 11
1.1544925 -2.3953846 0.71035075 11
0.87915546 8.555398 -0.29620063 9
1.0093017 7.8477864 0.31187117 11
0.80172998 8.562685 0.15538888 11
0.9225806 8.6300125 0.46690336 11.75
1.0446873 7.9948578 0.92505223 13
0.92775893 8.6810093 0.97570843 13
0.94522065 8.6735306 1.333918 14.4
1.5896736 -2.1443346 0.10717096 5
1.3648973 -1.7479743 0.058550302 5
1.3763127 -1.4290693 0.029944155 4.5
1.3530619 -1.0128489 -0.0082923509 4
1.3521974 -0.62832052 -0.056558602 3.5999999
1.4059482 -0.23120005 -0.099688679 3.4000001
1.3721604 0.26564172 -0.16160098 3.25
1.4658083 0.4780401 -0.18084989 3.5
1.5566092 -2.0942037 0.54056191 10
1.4712771 -2.1807683 0.80176967 12.25
1.4906546 8.4163256 0.31997022 11
1.4064589 8.3151512 0.51154858 12
1.3983847 8.5774679 0.47835222 12
1.276152 9.0234032 0.44636002 11
1.2855922 7.9348512 1.0059763 13.5
1.275076 8.1032314 1.2687123 14
1.1728715 8.7383099 1.3314002 14
1.2987013 8.8150864 1.4978367 15
1.8169566 -2.206007 0.13982163 5
1.7869246 -1.8752698 0.083035856 5
1.766283 -1.4292642 0.036881611 5
1.7667375 -0.98030442 -0.016632978 4
1.7873454 -0.64226967 -0.0325501 4.5
1.7914783 -0.213475 -0.07943666 4
1.8069096 0.19767378 -0.1284111 4
1.7968713 0.53179866 -0.16563188 4
1.7206616 -2.0021386 0.57314944 10.25
1.9088724 -1.9025768 0.51103765 9.5
1.7772352 -1.9816138 0.81576824 12.333333
1.8957649 -1.8801768 0.73677528 11.5
1.7067699 8.0029507 0.32666683 11
1.8009306 7.9747195 0.58397299 12
1.5707626 8.4069624 0.48489138 12
1.8484457 8.0633574 0.94082898 13
1.7894013 9.2553654 1.2307993 14
1.802871 9.2897491 1.6018915 15
2.2396059 -1.9129483 0.10462113 5
2.1947622 -1.4471679 0.035186034 5
2.1771221 -1.0952679 -0.026630372 4
2.1228848 -0.54471439 -0.035576276 5
2.1989417 0.56563497 -0.15857174 5
2.1898763 -1.7397993 0.48911959 9.2857141
2.018477 -2.4768965 1.1428765 14
2.190398 -1.9986279 0.96056247 13.2
2.183435 -1.7713244 0.83618659 12.625
2.103164 9.4188681 -0.23374756 9
2.196106 -2.3566589 1.1535114 14
2.3221576 -2.2568021 1.160074 14
2.3425858 6.9871964 0.50865757 12
2.294023 7.2644005 0.16942945 10
2.1928241 7.2339153 0.58975965 12
2.0321181 7.6660905 0.57124722 12
2.2542691 7.3740764 0.89859998 13
2.1520848 9.8977804 1.7186804 15
2.5760679 -1.7638091 0.16332941 5.5
2.5619814 -1.3259407 -0.0028153583 5
2.4266403 -0.92353314 -0.02334754 5
2.4845748 -0.38439384 -0.048402049 5
2.7806728 0.44267482 -0.15218309 5
2.436703 -1.6064746 0.46822295 9
2.632041 -1.4314518 0.49615002 9.333333
2.5718935 -2.0447321 1.0856751 13
2.4404066 -1.6602652 0.84458679 12.5
2.6301439 -1.4083681 0.80724639 12.166667
2.7691128 6.5378304 0.17937127 10
2.4877574 9.6801796 -0.23672494 9
2.5743506 -2.0686433 1.1785909 14
2.7319798 6.405292 0.22073349 10
2.680207 6.5394907 0.43735281 11.5
2.4386966 7.0208268 0.17323469 10
2.5756154 9.7249107 0.12415498 10
2.4767864 6.9080582 0.87097836 13
2.4021828 7.0992785 0.77412009 12.5
2.417949 9.6522655 0.33887607 11
2.6051316 6.8519602 1.2273132 14
2.5935888 7.0015407 1.0642742 14
2.5812819 6.9018803 1.4050739 15
2.4904625 9.7917566 1.529732 14
2.9390666 -1.5643551 0.12764873 5.5
3.1760144 -0.86287016 -0.001992384 5
2.9230967 -1.2811207 0.44109023 8.636364
3.1240058 -1.1046782 0.40881151 8.6000004
3.166187 0.42931652 0.43192124 10
2.8628421 -1.9383541 1.0607469 13
2.9562714 -1.6855164 1.0183766 13
2.9365535 -1.2491552 0.89403439 12.636364
3.124017 -1.0741471 0.84267247 12
3.0616555 0.50550145 0.47993362 11
3.059092 7.7816715 -0.072227277 9.333333
2.8550262 -2.0626531 1.2086426 14
2.9118583 -1.6543093 1.1399124 14.25
2.9194889 -1.1988379 1.1090815 14.6
3.1393895 -1.024044 1.1099173 14.5
2.8893337 6.668469 0.35815153 11
3.1133411 7.8582778 0.15499395 10
3.0539715 8.1639814 0.16690685 10
3.3665538 -1.3451889 0.12134658 5.5
3.440964 -0.89490074 0.2008111 7
3.3045993 0.91458207 -0.19427133 5
3.3401072 -0.93823922 0.45064592 9
3.4104738 -0.028507488 0.49323174 10
3.2832005 0.24639173 0.46234995 10
3.4504211 0.52452892 0.20199411 8
3.266608 7.6735783 -0.33164766 8
3.3530538 -0.88392967 0.81763291 11.9
3.2500498 0.25884956 0.50630581 11
3.3120396 0.7391783 0.49633795 11
3.4436224 9.9061365 -0.31677315 8.666667
3.3792372 -0.87720162 1.1786935 14.666667
3.4187796 9.9697952 0.11510124 10
3.5029957 9.9136143 0.36376271 11
3.3233252 10.163084 0.35874942 11
3.4873099 10.113463 1.3879123 13
3.247179 10.064865 1.7224745 14.5
3.4257135 10.048691 1.8503629 15
3.6643677 0.20778118 -0.1120272 5
3.7027051 0.62047911 -0.14755332 5
3.595048 -0.79042834 0.39072984 8.5
3.6025789 0.25414535 0.34263897 9
3.8356433 1.068746 0.28642589 9
3.6039572 -0.76867789 0.72300351 11
3.6202521 -0.65422076 0.88535041 12.5
3.795857 7.0522661 -0.12655774 9
3.7832198 8.5646648 -0.162939 9
3.5882504 9.9114943 0.60699737 11
3.8661907 10.173749 0.3715069 11
3.8199537 10.372485 0.78911245 12
3.8732519 7.9584432 1.7095847 15
3.5949795 10.11926 1.6470487 14
4.3214731 -1.2108209 0.16761675 6
4.2120981 -0.96157742 0.11084922 6
4.2050672 -0.70640785 0.065847091 5.5
4.3704653 0.26880884 0.0084711155 6
4.3269119 -1.2150002 0.34474644 7
4.3405027 0.49571219 0.1768937 7.5
4.0445065 1.2142237 0.33396918 9.5
4.323648 6.1053624 -0.26901665 8
4.0859165 7.5404696 0.15501049 10
4.0259805 10.233562 0.74815077 11.5
4.1282411 7.8106542 1.6713079 15
4.2056909 10.552093 1.4653394 13
4.6688337 -0.54501879 0.15236422 6.6666665
4.6272392 -0.87182838 0.3832587 7.75
4.7345648 -0.49487442 0.29501042 7.3333335
4.5448461 1.525931 0.21176551 8.666667
4.7303967 6.9089775 -0.29229161 8
4.6658959 -0.84999996 0.96236676 11.25
4.574162 1.6321855 0.41586432 10
4.6253309 -0.83473969 1.3234724 13.25
4.7024155 11.172818 -0.059564523 9
4.6674705 -0.80424714 1.5917406 14.666667
4.6984439 8.8259039 1.8421973 15
4.3205385 9.9342432 1.6874821 14
4.8612885 0.84343845 -0.14463454 6
4.7990727 -0.80076498 0.5232842 8.5
4.9768701 -0.6412074 0.46198159 8.2857141
5.1203799 0.91002655 0.34036365 8.333333
5.0026646 2.0590227 0.071387857 8
4.9248686 6.8376522 -0.29597017 8
4.9306927 8.4327145 -0.39290056 8
4.8814135 -0.76818907 0.8303051 10.666667
5.0990605 -0.5575546 0.84416807 10.5
5.1282892 6.8908119 0.16124308 9
4.7764683 -0.75195533 1.2949975 13
4.9733906 -0.54975319 1.2705245 12.6
5.0832343 6.9397898 0.35123593 10
4.8832083 -0.66343462 1.5822792 14.333333
5.0598354 -0.51414526 1.6296942 14.666667
4.8896875 11.259964 1.1029005 12
4.8806996 8.4458523 1.8555063 15
4.8823667 8.6813316 1.8594204 15
5.4178858 -0.89550006 0.099652797 6
5.4745393 -0.32608077 0.12518342 6.5
5.5342884 1.4342247 -0.078721397 6
5.3314638 2.0926583 -0.08549016 7
5.2647305 -0.41580421 0.4317455 8
5.4872546 -0.31426641 0.40158114 8
5.415339 1.0295249 0.1786135 7.3333335
5.5588217 1.6928726 0.076029569 7
5.3977861 3.2463946 -0.13160266 7
5.5115442 4.2610226 -0.067143314 7.6666665
5.3288937 4.5316052 -0.14352067 7.5
5.3321376 -0.40490383 0.84425068 10.5
5.5184641 -0.27828383 0.86977458 10.5
5.4975824 4.3039217 0.31004575 9.666667
5.345809 4.542623 0.30351648 9.5
5.3326488 6.8184853 0.16091482 9
5.2476416 6.8702631 0.15535213 9
5.2441754 -0.41023895 1.3045892 12.5
5.4557519 -0.17556936 1.2159415 12
5.4616909 4.4005909 0.75419188 11.333333
5.3204641 4.6121292 0.74805671 11.4
5.2269678 6.9616389 0.41469932 10
5.3182178 -0.3343462 1.6276703 14.333333
5.5128608 -0.20699231 1.7504042 15
5.4704423 4.4305472 1.3018606 13
5.455647 4.481966 1.5586861 14.333333
5.3223505 4.6737232 1.4890621 14
5.4681125 4.5606542 1.7974246 15
5.3163123 4.772644 1.7995501 15
5.1550603 8.4466257 1.6157719 14
5.3625493 8.0842104 1.8770949 14.5
5.1654849 8.3087015 1.8639467 15
5.6762581 -0.17257802 0.11725914 6.5
5.7986698 3.9357491 -0.23228538 7
5.6936278 -0.12444873 0.43942854 8.166667
5.6943436 1.2460567 0.19338258 7.5
5.8735323 3.8318868 -0.052987508 7.6666665
5.7088017 4.0689373 -0.078098431 7.5
5.7059908 -0.092930891 0.88504618 10.5
5.836802 3.9268911 0.38218889 9.5
5.6814013 4.1372347 0.36415365 9.5
5.6940804 -0.042758517 1.2142233 11.666667
5.7563686 0.15448502 1.0763495 11
5.8350296 3.9835143 0.83706051 11.4
5.6401701 4.2261434 0.79060012 11.5
5.6924815 -0.084445633 1.6207024 13.666667
5.8500772 3.9794271 1.2105273 12.5
5.6303525 4.2475009 1.308323 13
5.7308445 -0.045131493 1.9142729 15
5.8180623 4.0697112 1.6020465 14.2
5.5978165 4.3527989 1.5717161 14.333333
5.8335953 4.0777855 1.8023304 15
5.5468717 4.4029717 1.7906946 15
5.871006 12.390035 0.92356437 11
5.8889537 7.2929897 1.9190201 15
5.7684011 7.7959843 1.9326901 15
5.625946 7.9453845 1.8960021 14.5
6.3102384 -0.32846358 -0.056805033 5.5
6.0575814 0.062082261 0.10313942 6.5
6.2845058 3.0872662 -0.17764063 7
6.1515784 3.4132638 -0.1947071 7
6.1631603 0.17356533 0.41419181 8
6.3400884 3.1572051 0.10076503 7.5
6.1201062 3.4825518 0.095175296 8.25
6.0019312 3.6513028 0.13248581 8.5
6.102664 0.1336275 0.92431349 10.5
6.3572593 3.135515 0.37886563 9
6.1705046 3.4351311 0.45828122 9.25
5.9900088 3.6886835 0.44464773 10
6.1437135 -0.047069386 1.3780338 12
6.2679281 0.26796755 1.1990783 11.666667
6.3104796 3.2287836 0.79239577 10.5
6.1527638 3.4848282 0.82333928 10.714286
6.1177707 10.259549 0.030590145 9
6.2076917 12.188232 0.0020819986 9.5
6.0498323 0.11649676 1.6795132 13.5
6.1222253 0.33152926 1.6340809 13.333333
6.3155317 3.2542915 1.2238872 12.5
6.1273756 3.5501194 1.218029 12.5
5.9828987 3.7745719 1.2137899 12.5
6.103157 0.18135382 1.9147562 15
6.2687759 0.28194323 1.8096787 14
6.2904358 3.3047769 1.5464609 14
6.1564264 3.5645404 1.6535869 14.333333
5.9676709 3.8500283 1.6693134 14.5
6.1379452 3.2740519 1.9739376 15
6.2245703 5.5349722 1.7194685 14
6.2575159 9.8210907 1.5393314 13
6.2664075 12.398294 1.0295281 11.5
6.2062712 6.5942874 2.193718 15
6.0694528 6.7697873 2.1995244 15
6.1941833 10.243619 1.5682795 13
6.201736 11.914954 2.0525825 14
6.6879811 0.50712907 0.10889661 7
6.6586905 1.8897773 -0.16154768 6
6.5691633 2.0344775 -0.16034126 6
6.5889149 2.7598195 -0.1844009 7
6.4733214 2.8964143 -0.18121707 7
6.4727631 0.33093014 0.36002713 7.5
6.609962 0.44045991 0.25150847 7
6.6704731 1.8809762 0.32863614 8
6.5553303 2.0734239 0.24583332 8
6.6282868 2.5997946 0.18493608 7.75
6.5139513 2.8957133 0.10594835 7.5
6.7364564 8.1615057 -0.27619004 8
6.4307699 8.4782715 -0.45421293 8
6.5278349 0.37297741 0.88030618 10
6.7707553 2.4806535 0.70201564 10
6.6385612 2.7045009 0.55976737 9.3999996
6.4496331 3.0270252 0.57693088 9.666667
6.5562668 0.43137181 1.1541109 11.5
6.6441927 2.7332439 1.0191818 11.5
6.4161191 3.1130612 0.97108835 11.4
6.4994826 0.41979146 1.7003255 13
6.6093817 0.69697928 1.5169405 12.5
6.5349722 2.9017031 1.1269882 12
6.4549975 3.0471764 1.2303699 12.5
6.4557848 0.41077667 2.0163772 14.75
6.485857 0.70618778 1.8598047 14
6.6189752 2.8555503 1.718984 13.833333
6.4274416 3.1610286 1.687482 14.2
6.6179714 1.7289623 2.1349914 15
6.6544929 2.6002362 2.0229337 15
6.4746323 2.796381 1.999868 15
6.6568851 9.4373827 1.5399505 13
6.6729918 12.413644 1.1299632 12
6.4531026 6.2212377 2.177913 15
6.3213124 6.3987627 2.1829205 15
7.0650997 1.2684079 -0.13328859 6
6.8745441 2.3087685 -0.18757232 6
6.8167858 1.6490915 0.1619972 7.5
6.813592 2.463589 0.11498149 7.5
7.076746 2.0545135 0.71484083 10
6.913178 2.2991791 0.66166157 9.666667
7.133472 8.9120274 -0.19227193 8
7.1037846 2.0046575 1.0128647 10.666667
6.9080024 2.3148949 1.0390639 11.25
6.769702 2.5385044 0.91970855 11
7.0843825 2.0596957 1.483961 12.5
6.9114261 2.3687508 1.523567 12.75
6.7759008 2.5592341 1.3544463 12
7.0131822 0.62239438 1.8120141 13
7.1095276 2.0591097 1.8808947 14
6.9306417 2.4000003 1.8468019 14
6.7725992 2.7339287 1.7903782 14
7.0876713 1.0137336 2.2098973 15
6.9552102 1.2370213 2.188319 15
6.7999396 1.4502822 2.1618118 15
7.0656614 2.1090086 2.0794456 15
6.8293924 2.3930771 2.0457094 15
6.9574213 13.088497 1.0409302 11
6.8135242 10.594583 1.9834857 14
7.2569094 8.3824415 -0.29716766 8
7.2428694 1.8681788 0.70198184 9
7.3918462 8.8028421 -0.18901128 8
7.4034719 1.5411867 1.0737898 10.5
7.2266312 1.811106 1.0580754 10.5
7.4313331 12.933906 0.042830374 9
7.3943892 1.1253431 1.7447815 13
7.407536 1.5562344 1.5092689 12.5
7.2379107 1.8438156 1.4966191 12.5
7.2216682 13.031337 0.13228022 10
7.3391538 0.82776171 1.8849105 13
7.5245991 1.4068668 1.9394411 14
7.3643956 1.6640035 1.9044241 13.666667
7.2009158 2.0551798 1.8031073 13.5
7.1919017 12.855342 0.82993746 11
7.2116833 0.78292549 2.2305944 15
7.3462715 1.6300778 2.1637285 14.5
7.211267 1.8782934 2.097923 15
7.4044933 7.8601685 2.1066508 14
7.1385541 8.1462393 2.2149618 14
7.9399233 0.76111525 0.36124179 7.6666665
7.6973767 0.99959558 0.33416143 7.3333335
7.8431153 0.66252327 0.92477435 9.5
7.7492032 8.8000517 -0.19211152 8
7.8633022 0.8850289 1.2229806 11
7.6862063 1.1043465 1.0720565 10.4
7.8933339 0.86534256 1.5556053 11.5
7.6472964 1.1817178 1.5485569 12.2
7.6847754 1.1388516 2.0604792 14
7.5973372 13.019409 0.45297968 10
7.8795424 0.90134436 2.2094264 14
7.8240614 10.642192 1.3480767 12
7.7900143 13.198988 0.86503446 11
7.9194369 13.675462 1.065616 11
7.6589184 12.842522 1.474161 12
7.6511087 9.7493601 2.3826327 14
7.6350107 10.023519 2.3627737 14
7.7966895 11.529041 2.1695206 13
7.9982409 0.65659779 0.50007272 8
7.9775181 0.70929348 1.2333658 11
8.0948267 13.380494 0.15687674 9.5
8.307785 13.503618 0.46953154 10
7.9854054 0.72448575 2.2295048 14
7.9794517 12.672523 1.4790645 12
8.1938105 8.9202633 2.4680502 14
8.1412754 9.3021879 2.4094219 14
8.0264978 9.7436333 2.3791554 14
8.0768585 11.367824 2.1830573 13
8.5326233 9.5417013 0.10935222 9
8.6414728 13.72331 1.3223999 11
8.6771164 14.305367 1.2304368 11
8.5210886 8.4639692 2.5033603 14
8.6549368 11.065389 2.2159767 13
8.3441706 11.187587 2.1939368 13
8.8500977 13.883946 0.16373587 9.5
9.0672235 13.990978 0.48688841 10
8.9164009 8.8436575 2.4158936 14
8.9419765 10.909162 2.2328146 13
9.4022655 10.178404 -0.27559584 8
9.4820013 14.335686 -0.052041911 9
9.4564085 12.759372 1.2792308 11
9.200243 14.06983 0.95181638 11
9.4048204 10.464543 1.8398442 12
9.2177029 10.751901 1.8439462 12
9.2709332 14.006824 1.3810475 11
9.2317848 8.5610056 2.433995 14
9.2720261 10.553673 2.2387104 13
9.6936035 10.093014 -0.1898468 8
9.7278652 14.41794 0.0047154231 9
9.9274149 14.555651 0.50666445 10
9.5886631 12.636205 1.3398285 11
9.679966 10.032481 1.8344816 12
9.8252487 9.5221682 2.2159114 13
9.6910658 10.059477 2.2439413 13
10.029057 10.040092 -0.44041446 8
9.9997778 14.378277 -0.039873846 9
10.095387 14.307362 0.18553619 9.5
10.230167 14.268554 0.51475751 10
9.9777603 14.51496 0.99842632 11
10.120105 9.3219652 1.8273073 12
10.117136 9.3669138 2.236937 13
10.727013 13.344997 0.023166165 9
10.691203 13.516904 0.52794278 10
10.585183 13.424492 1.1416162 11
11.107697 12.836209 0.024860881 9
10.859647 13.181443 0.021330772 9
10.962048 13.076512 0.50382793 10
10.776729 13.331973 0.44713369 10
11.034876 15.614049 1.449968 11
11.482042 12.23209 0.057396054 9
11.379941 12.474907 0.5494734 10
11.840613 11.841438 0.038456008 9
11.763876 12.867971 1.0786626 10
11.702198 13.409785 1.079842 10
12.115812 11.361672 1.3195256 11
12.124098 12.663981 1.0956714 10
12.222148 15.259889 1.6585361 11
12.655248 12.619821 0.58008522 9
12.682305 12.07855 1.1200399 10
12.467406 12.436943 1.1118373 10
12.680084 14.440144 1.6799352 11
12.565253 14.710155 1.8445925 11
13.113233 11.927746 1.1421415 10
12.941259 12.280701 1.1924787 10
12.913896 14.06077 1.6926156 11
12.930816 14.070445 1.8324231 11
13.435977 13.043913 1.6443182 11
13.119844 13.656324 1.7030361 11
13.309095 13.469733 1.8251066 11
13.726221 12.272942 -1.0007424 7
13.895158 13.238646 0.00272004 8
13.752516 13.377417 -0.021072203 8
13.927198 13.242762 0.609348 9
14.002971 12.741593 -0.66781473 7
14.159276 12.933421 -0.19190852 8
14.153267 12.851421 0.0081962487 8
14.169256 12.852471 0.6162138 9
13.96675 13.128666 0.63165557 9
