# .PCD v0.7 - Point Cloud Data file format
VERSION 0.7
FIELDS x y z intensity
SIZE 4 4 4 4
TYPE F F F F
COUNT 1 1 1 1
WIDTH 84
HEIGHT 1
VIEWPOINT 0 0 0 1 0 0 0
POINTS 84
DATA ascii
-0.81996548 -2.4784579 -0.27605209 4
-0.82249904 0.49153408 -0.22649437 0
-0.58440179 -2.9288366 -0.28072321 4
-0.48755306 -2.633563 -0.26839185 4
-0.57522899 -2.2258074 -0.25806722 4
-0.57848448 -1.7744131 -0.24509877 3
-0.56734717 -1.3677441 -0.23359802 2.5999999
-0.5140143 -1.0162191 -0.23379995 1.2
-0.54993778 -0.67803657 -0.23215404 0
-0.67776036 0.43189985 -0.22183645 0
-0.31488854 -2.1073341 -0.2465862 4
-0.21078275 -1.7908267 -0.23422499 3
-0.21308827 -1.4055278 -0.22874314 2.4000001
-0.22188804 -1.0390742 -0.23326339 0.875
-0.19786724 -0.77526367 -0.23509881 0
0.042858306 -1.027419 -0.23097266 1
0.094962686 -0.75125879 -0.22633786 0
0.74193537 -0.10203775 -0.18967749 0.33333334
0.68640649 0.21388455 -0.19267447 0.2857143
0.65915108 0.56175703 -0.1984577 0.60000002
0.77625966 0.88580549 -0.1898599 2.5
1.0120691 -0.18263233 -0.19654797 1.7142857
1.0329208 0.22345193 -0.19413267 1.8888888
0.96473044 0.58397579 -0.19601491 2.1818182
0.98590928 1.0073847 -0.18096758 3.5
1.0492744 1.3970051 -0.1711431 4.25
1.1433947 1.739257 -0.16594945 5
1.5211982 -0.41214287 -0.1878491 4
1.3955364 -0.20633823 -0.19026339 3.5
1.3680599 0.21019484 -0.19047238 3.1666667
1.3688464 0.59355825 -0.18143232 3.6666667
1.44998 1.0265135 -0.1712411 4.1999998
1.3940309 1.4021858 -0.16789439 4.75
1.4755298 1.8143748 -0.16233951 5
1.32511 2.1580231 -0.15905324 5
1.4966059 2.5541625 -0.151325 5.5
1.8714613 -0.53769797 -0.18469641 4
1.8076681 -0.32654294 -0.18299749 4
1.8044499 0.26201206 -0.17481194 4.3333335
1.8252776 0.58388656 -0.17134576 4.5
1.8372918 0.98922539 -0.1685538 5
1.7539831 1.3216494 -0.16696872 5
1.8012316 1.7769397 -0.16097431 5
1.7711327 2.3078036 -0.15415797 6
1.900723 2.5251796 -0.14866386 6
1.6760534 2.9673195 -0.14502662 6
2.2004941 -0.65563607 -0.18140478 5
2.0458925 -0.27714702 -0.17490916 5
2.0360663 0.030561125 -0.17367701 5
2.2309256 0.6186074 -0.17143868 5
2.2230327 1.0404738 -0.15043242 5
2.2851863 1.4194584 -0.14063749 5.5
2.080359 1.6387378 -0.15854593 5
2.0493205 2.0895495 -0.15456255 6
2.0750098 2.8155847 -0.14478487 6
2.3458333 1.3778129 0.25138274 9.5
2.7253532 -0.53380835 -0.17849529 5
2.7254355 0.33432832 -0.17068633 5
2.4932699 0.98233736 -0.096837007 6.3333335
2.5330551 1.2337716 -0.061602656 6.5
2.4864268 1.7932576 -0.14256351 6
2.4184914 2.554522 -0.14553295 6
2.6802375 2.8836169 -0.14049216 6
2.4679356 1.2624449 0.25276524 10
3.2837477 0.59967399 -0.17258005 6
3.3940794 2.2409408 -0.14753111 6
3.5287759 3.9480195 -0.12997635 6
3.5625608 4.011075 -0.08086028 7
3.5669606 4.0607901 0.023292216 7
3.6249859 0.87849122 -0.16907459 6
3.6507134 3.1786005 -0.075697795 7
3.6941943 3.2038896 -0.12543161 6
3.657491 3.2562163 0.1374772 8
3.6559103 3.384505 0.52685308 10
4.3384342 2.2468774 -0.086279184 6.5
4.3771544 2.9759381 -0.12819131 6
4.5380988 1.1390541 -0.064102821 7
4.4202209 3.0209854 -0.078638107 7
4.4914165 0.61744827 0.1871503 8.5
4.5470781 1.1794276 0.25692365 9
4.6336031 2.4904628 0.28430933 9
4.7243986 3.3175948 0.18955468 8
4.5387626 1.1989453 0.44105989 10
4.595058 1.825081 0.47352526 10
