# .PCD v0.7 - Point Cloud Data file format
VERSION 0.7
FIELDS x y z intensity
SIZE 4 4 4 4
TYPE F F F F
COUNT 1 1 1 1
WIDTH 104
HEIGHT 1
VIEWPOINT 0 0 0 1 0 0 0
POINTS 104
DATA ascii
-1.6527903 -1.0302212 0.3238104 10
-1.6817228 -0.99840528 0.4974989 12
-1.6508435 -0.50496727 0.34589815 11.5
-1.5539924 1.1753223 0.082044229 10
-1.4943079 1.9970534 0.056559935 11
-1.4782491 2.0863245 -0.013367749 10
-1.4568821 2.505923 0.044305954 11
-1.4124098 3.0920508 -0.039749764 10
-1.44014 -0.29884118 0.47122884 15
-1.5590489 1.0205501 0.39565706 15
-1.53475 1.4025716 0.30070922 14
-1.5033244 1.9404088 0.18765284 12.5
-1.4809268 2.4008656 0.23140448 13
-1.450626 2.7732947 0.17655611 12
-1.4083202 3.1806817 0.021339107 11
-1.4606218 2.7040279 0.44128644 14
-1.4284565 2.9530811 0.25370196 13
-1.4293785 2.9804819 0.48643205 15
-1.3793873 -0.56393194 0.37169054 12.5
-1.3441517 -0.27109122 0.3252449 13
-1.3763193 -0.52732629 0.52757084 15
-1.3386645 3.9799523 -0.047918513 10
-1.3360983 4.0044332 0.1443388 11.5
-1.3960038 3.4177604 0.51391912 14
-1.3515319 4.0115685 0.39878258 13
-1.2954617 4.0559721 0.53931868 14
-1.03746 -0.66135132 0.40786251 14
-1.1484802 4.0251594 0.56960171 15
-0.97147149 -0.67008162 0.39093542 14
-0.64372897 -0.98554683 0.42260763 13.5
-0.69752151 -0.71847934 0.35061473 14
-0.65951562 3.9885333 0.54885805 15
-0.40496922 -0.8201561 -0.10685299 0
-0.52332145 -1.6950027 0.44039032 10
-0.50573868 -0.99619311 0.41968328 14
-0.36700842 -2.6877437 1.0656158 14
-0.16173524 -0.73775119 -0.12120575 0
-0.079954639 -2.6152978 1.0347972 14
0.15146782 -0.85288745 -0.097380407 0
0.14692312 -2.5714164 0.36225346 7
0.22342964 -1.0681686 -0.062714279 2
0.25716254 -0.85990089 -0.091576234 1
0.60024035 0.88754237 -0.29796079 2
0.51023984 0.98918891 0.010277677 11
0.53710485 -2.5168316 0.93562567 13
0.85315853 0.86057299 -0.28125399 3
0.90394104 -2.5915473 0.50828284 9
0.87724513 1.6088277 -0.047766913 10
0.883973 -2.5757172 0.58712882 10
0.94161505 -2.5534029 1.1074125 14.5
0.7996968 -3.1043525 1.2976351 14
1.2940515 0.57587743 -0.24077679 4
1.2101171 -2.5062644 0.94835222 13
1.4432324 -2.8654549 0.25272343 6
1.5809089 -2.6166103 0.46037245 8
1.5534799 -2.5788782 0.62599915 9.5
1.4359814 -2.6288807 0.81055307 11
1.4560834 -2.6004982 1.1402732 14
1.9938397 -2.6748414 0.37486669 7
1.9330395 -2.5737963 0.85886592 12
1.9471284 -2.535347 1.0974789 14
2.0528762 -2.657923 0.46868283 8
2.0804508 -2.6176651 0.64127028 9.5
2.0489936 -2.6259847 0.85037482 11
2.1130927 -2.558207 1.0276701 13
2.0332696 3.8007536 0.3051194 12
2.0461805 -2.5264733 1.2873733 15
2.0852699 3.7891531 0.34822848 13
3.1235266 -3.046844 0.37142286 7
3.1105576 -3.0493901 0.51145971 8
3.3074605 -3.3343568 1.1143802 11
3.3557103 -3.1975503 1.6809884 14
3.429662 -3.2739081 1.7497611 15
3.9471622 -3.4622257 0.30649796 6
4.155292 -3.3730042 0.53853971 8
4.1077099 -3.2609119 1.9014685 15
4.5176406 6.598526 0.37368092 11
4.5806966 6.6018014 0.59964371 12
4.6417727 6.6280785 0.82536995 13
5.1951342 5.8695397 0.82205099 13
5.239758 -3.3205843 2.3168278 15
6.5611191 0.054678869 0.29761264 8
6.5704226 0.37997311 0.42226467 9
6.5813847 -0.97658455 0.86126524 10
6.5715756 0.50892359 0.61094552 10
6.5392962 -1.1114805 0.9656713 11
6.5654826 0.34681296 0.79462725 11
6.431325 -2.3976738 1.4299772 12
6.4274521 -2.3083775 1.6520697 13
6.5898728 0.70179307 1.1809838 12
6.5820532 -1.625347 1.7609987 13
6.5923147 -1.3056102 1.7346996 14
6.5508175 -0.68636006 1.655324 14
6.5839715 0.72429055 1.5197713 14
6.5312581 -2.7140739 2.2742586 14
6.4215646 -2.3403103 2.2404315 15
6.4612336 -1.5231084 2.1619959 15
6.6341453 -0.11311836 1.0033615 11
6.6452379 -0.050378751 1.1727211 12
6.6076207 -0.88664442 1.5363677 13
6.6362886 -0.083927222 1.5070869 13
6.6106272 -1.0272391 2.0618439 15
6.6637049 0.28369892 1.9563154 15
8.530323 3.316226 2.2406211 15
