# .PCD v0.7 - Point Cloud Data file format
VERSION 0.7
FIELDS x y z intensity
SIZE 4 4 4 4
TYPE F F F F
COUNT 1 1 1 1
WIDTH 132
HEIGHT 1
VIEWPOINT 0 0 0 1 0 0 0
POINTS 132
DATA ascii
-2.7791169 -0.61573166 0.36910528 10.5
-2.6305494 -0.50540191 0.61320686 13
-2.6116421 2.1216748 0.28051856 11.5
-2.7404466 -0.58637947 0.77939379 14
-2.6442473 1.4409484 0.62108499 14
-2.624388 1.7025467 0.5142116 13
-2.606447 1.921526 0.56037706 14
-2.5406585 -0.60263395 0.28378364 9
-2.5599866 2.778652 0.035410427 9.5
-2.5718369 2.6024587 0.23231804 11
-2.529129 3.3725095 0.19743712 11
-2.5023193 3.7593348 0.082509577 10
-2.5399671 3.1333287 0.37185356 12
-2.47824 3.9161336 0.39027959 12
-2.5512543 -0.94777054 0.92183185 15
-2.5397825 2.8547387 0.56334114 13
-2.4151614 3.9679084 0.61353362 13
-2.4550598 3.9929702 0.8652119 15
-2.2165415 -2.5778115 1.2063457 15
-2.1355798 -0.78131026 0.31640062 10
-2.1045091 -0.74674076 0.50525391 12
-1.8388658 -2.5949428 0.45356393 9
-1.9033979 3.8647845 -0.01129927 9
-1.6930743 -2.2002277 0.30275905 8
-1.6642283 -1.7269623 0.33991003 9
-1.6193211 -1.4659479 0.34304217 10
-1.6213835 -1.3321602 0.31118721 9
-1.6084778 -1.1024653 0.28458729 10
-1.764586 -0.81224841 0.27649444 10
-1.6675215 -2.0587509 0.53914756 10.5
-1.6291778 -1.6305023 0.53422159 12
-1.6212932 -1.3957967 0.46473014 11
-1.7197846 -1.0505834 0.38755506 11
-1.7521807 -0.82322836 0.43127313 12
-1.7698499 -1.0587326 0.61228126 14
-1.6782782 3.8752389 0.26992455 11
-1.5702938 -3.0979698 1.3438363 15
-1.1643538 -3.0819046 1.2199988 15
-0.91536236 3.788667 0.0074701197 10
-0.97431302 3.7978144 0.12774551 11
-0.67943019 1.4601043 0.21954601 13
-0.69054741 -2.757534 1.0453829 14
-0.40921944 -0.7883631 -0.12474112 1
-0.25226888 -0.8220433 -0.1349231 0
-0.40039656 1.3995618 0.24600178 14
-0.14189856 -0.88818944 -0.11738238 1
-0.15685858 0.66690898 -0.26945415 0
-0.082210645 0.88722724 -0.3023532 0.5
-0.061811704 -1.020648 -0.096546508 2
0.033024553 -0.81756115 -0.12596692 0
0.18264075 -0.72263467 -0.14077865 0
0.19200437 0.67191595 -0.28411511 0
0.036252163 1.1967508 -0.32487258 2
0.10634989 -2.6635244 0.88819832 14
0.25544333 -0.85661072 -0.12178069 1
0.27617753 -0.73322034 -0.13632628 0
0.37612441 0.79231352 -0.29248935 0
0.22344528 1.0925267 -0.32364759 2
0.35439688 -1.2467872 -0.076908782 3
0.21735714 -1.0685103 -0.089595787 2
0.20947908 -2.7340782 1.1245551 15
0.36387494 3.7373555 0.50582713 14
0.48324957 0.77054 -0.29332983 0
0.51740676 1.0963353 -0.31775725 2
0.57776225 -0.83444542 -0.1005266 2
0.46328083 -2.7009764 0.7001037 11
0.6296367 -0.35497063 -0.17028439 0
0.67083853 0.20665932 -0.22636425 0
0.63574946 0.42301887 -0.24783643 0
0.63615507 0.58684063 -0.28073403 0
0.61515588 0.86259991 -0.30655608 1
0.79493821 0.99973518 -0.31062061 2
0.7454617 -2.6770425 1.1316614 15
0.83085364 0.66736054 -0.28446388 1.5
0.86404729 -0.90622467 -0.097188666 3
0.84113616 -0.65220731 -0.12762272 2
0.84817547 -2.7688887 0.40424889 8
0.8492074 -2.7558486 0.48757893 9
0.91132969 -2.7338104 0.78415287 12
0.88574499 3.6590164 0.14514722 10.5
0.89037657 -2.7117591 0.9092167 13.5
0.94882196 3.6795194 0.33715561 12.5
0.9309352 3.7157371 0.6250971 14
0.89396805 3.7296925 0.71146655 15
1.1746145 -3.4218814 0.8678425 11
1.1529649 -1.831357 0.69428807 14
1.1827812 -1.3957932 0.63352287 14
1.2787776 -1.3415989 0.66976708 15
1.5077673 -1.3458788 0.64255631 14
1.5486797 -3.4605176 0.98479718 12
1.6058273 -3.306715 0.27291608 7
1.7015682 -3.4869726 0.70902878 10
1.8703796 -3.1874917 0.52495992 9
1.8616316 -3.4559071 0.87873638 11
2.1717212 -1.4060159 0.48779905 11
2.1448603 -3.3677616 1.4718516 15
2.5165195 -3.5066791 0.58116412 9
2.8840103 6.5676885 0.85950089 13
3.0877702 -1.3935649 0.60971659 11
3.1568129 6.4879022 0.34435546 11
3.0458798 6.5206571 0.52322674 12
3.118238 6.5979638 1.4032606 15
3.5652459 6.2754498 -0.047838617 9
3.4567401 6.4467134 0.14419486 10
3.5251062 6.5412827 1.0556463 14
4.1729188 6.4326406 0.53965282 11
4.2473302 6.4296265 1.4748082 15
4.7242184 -0.61419874 -0.0088198027 7
4.6999207 3.6756392 0.55744749 11
4.6006427 4.6087279 0.69051903 12
5.1085334 -1.3823458 0.07892967 7
5.3298593 -2.3071506 0.063031316 6
5.3465548 -2.3634088 1.6011252 14
5.376267 -1.6819233 1.5041457 14
5.3150911 -3.1227071 2.198411 15
5.4210324 -0.00067361508 0.0713498 7
5.4259858 0.12836318 0.071388602 8
5.4350591 0.23437269 0.32695392 9
5.4016848 -1.1703919 0.59693766 10
5.4357228 0.20223729 0.67179209 10.5
5.4040823 -1.7222232 1.0500573 11
5.415029 -1.5790702 1.0454248 12
5.427815 -1.066346 0.97848392 12
5.4915605 -0.40969709 0.93841958 11.5
5.4582143 0.50786805 0.90354919 12
5.4383645 0.25363114 1.0376039 13
5.4564295 0.37582809 1.2855443 14
5.4231482 -1.2134411 1.6171969 15
5.4574847 0.39254683 1.4249767 15
5.4868236 -0.25624987 1.6637396 15
9.3183899 3.8841801 1.7936397 13
15.003386 3.1140358 1.153769 10
