# .PCD v0.7 - Point Cloud Data file format
VERSION 0.7
FIELDS x y z intensity
SIZE 4 4 4 4
TYPE F F F F
COUNT 1 1 1 1
WIDTH 695
HEIGHT 1
VIEWPOINT 0 0 0 1 0 0 0
POINTS 695
DATA ascii
-2.8089058 -0.89931089 0.33155003 9.25
-2.8086331 -0.92683917 0.64536333 12.25
-2.7094767 -0.94392383 0.41685292 10
-2.5610747 -0.65800899 0.33587718 10
-2.6934013 1.1343868 0.16056678 9.75
-2.6726999 1.378253 0.13235381 9.666667
-2.6377587 1.8219094 0.072174415 9.3999996
-2.6046641 2.2824903 0.078207478 9.5
-2.5775752 2.6058483 0.070772246 9.5
-2.5439558 3.1210783 0.0074654673 9
-2.5227258 3.3560233 -0.036630373 8.666667
-2.4943449 3.7121375 -0.015633618 9
-2.4657257 -2.4062886 0.92792219 13
-2.4579115 -1.961795 0.86987799 13
-2.6416593 -0.8984763 0.71371686 13.222222
-2.5843143 -0.61962944 0.62750852 13
-2.6852484 1.1385049 0.56030595 13.666667
-2.6640749 1.4607866 0.44797823 12.6
-2.6378903 1.8060144 0.42505711 12.333333
-2.6012061 2.3031564 0.35927939 11.7
-2.574023 2.6063428 0.3798683 11.833333
-2.5493298 3.031775 0.31444851 11.5
-2.5202544 3.425508 0.24069418 11
-2.4815803 3.8191574 0.29613617 11.333333
-2.4563954 -2.3797791 1.1966729 14.666667
-2.5307076 -2.1904051 1.1465997 14.666667
-2.6423264 -0.75513279 0.91691101 15
-2.6874423 1.1762372 0.71822608 15
-2.6648993 1.4790835 0.70459121 15
-2.633532 1.8888988 0.67194295 14.5
-2.5983818 2.3092413 0.70140719 14.428572
-2.5625789 2.6909673 0.67461795 14.142858
-2.5310953 3.0766826 0.665124 14
-2.4991608 3.4713323 0.69453371 14
-2.4680741 3.7864521 0.66179436 13.5
-2.4847612 3.8498557 0.85735041 15
-2.0533745 -0.79591364 0.39254081 11
-2.0023959 3.8656309 -0.0062335934 9
-2.2157955 -2.5220487 0.92713749 13
-2.0511012 -1.5591433 0.76815701 14
-2.2087286 -1.1575073 0.80720383 14.5
-2.1977468 -0.93129414 0.68641329 13.6
-2.0904753 -0.73969424 0.58843678 14
-2.1919119 3.9162424 0.37931767 12
-2.2302613 -3.0861678 1.4274328 15
-2.2298608 -2.8748708 1.3748976 15
-2.2701406 -2.5094643 1.2269863 14.666667
-2.1534393 3.9467611 0.59513527 13.333333
-2.2134728 3.9741502 0.85740817 15
-1.7596582 -2.5873585 0.4767136 9
-1.6956729 -2.1346347 0.46395501 9.625
-1.6647046 -1.7623259 0.4291572 10
-1.6267842 -1.3727314 0.39810941 10.555555
-1.7724891 -0.92348546 0.38573486 11
-1.9299083 3.8549969 -0.042026587 9.5
-1.791006 -2.5560923 0.79933202 12
-1.6967562 -2.1480296 0.6909321 11.666667
-1.6868389 -1.6930391 0.68623257 13.166667
-1.6692352 -1.3714161 0.67090732 13.714286
-1.7963961 -0.97416788 0.61438668 14
-1.8461674 3.8850462 0.27806646 11.333333
-1.7811368 -3.0976851 1.321556 14.5
-1.9243236 -3.0852456 1.2867786 14.5
-1.8384982 3.9213648 0.56683242 13.333333
-1.8173022 3.9425793 0.84114909 15
-1.3778547 -2.6132145 0.47978675 9.2857141
-1.593344 -1.2076405 0.50316256 12
-1.5834129 -1.1117655 0.42489585 12
-1.3633832 3.8262448 -0.0091151632 9.666667
-1.2705569 -2.7199421 1.0545309 14
-1.3932245 -2.5855584 0.82507783 12.444445
-1.5813583 -1.1460303 0.52061403 13
-1.3529707 3.8511631 0.30039874 11.428572
-1.4199691 -3.1211758 1.3050447 14.666667
-1.3173651 -3.0499687 1.2208202 15
-1.4227681 3.8971801 0.63714367 14
-1.4365447 3.9157515 0.83567828 15
-0.97298169 -2.6571293 0.45319191 9
-0.81935638 3.7805388 0.014237508 10
-0.99962741 -2.7577233 1.052352 14
-0.98754764 -2.6134167 0.78313094 12.25
-1.0116074 3.8257465 0.28728771 11.75
-0.96980542 -3.1211863 1.2980077 15
-0.98833328 -3.0632966 1.2818758 15
-0.94719756 3.8712621 0.70406884 14.666667
-1.1740404 3.899189 0.83141935 15
-0.51919645 -2.0426211 -0.0016652859 4
-0.52850235 -1.7610923 -0.024085512 4
-0.45934278 -1.3917783 -0.047327802 3.5
-0.4890826 -0.97944111 -0.095484585 2
-0.4520922 -0.69063634 -0.13178682 0.5
-0.59102499 -2.678905 0.47716329 9.2222223
-0.71426862 1.0114926 0.21848878 14
-0.55991751 1.4320689 0.22533351 13.8
-0.61034262 3.7627182 0.030728573 10
-0.7585513 -2.7485135 1.0436254 14
-0.61030447 -2.6467118 0.75324428 12
-0.61385185 3.7877116 0.24428487 11.5
-0.58452046 -3.1887941 1.2270557 14.5
-0.66246003 -2.9407218 1.0940667 14
-0.5972895 3.834095 0.63811529 14.5
-0.083290495 -2.8579438 0.12034432 5
-0.029467221 -2.611655 0.054772422 5
-0.27623019 -2.2446439 0.017523089 4.5
-0.21156067 -1.7370044 -0.019353759 4
-0.17864254 -1.4222045 -0.045326713 3.3333333
-0.20147268 -0.96885723 -0.10083885 1.3846154
-0.26279265 -0.67898703 -0.13462615 0
-0.072200127 0.71129096 -0.2823028 0
-0.14397722 0.99756843 -0.31138101 1.1666666
-0.16339867 1.3921332 -0.34424323 3
-0.13432536 1.79084 -0.39052323 4
-0.22890007 2.1136241 -0.4196946 4
-0.16241507 2.526325 -0.47372571 4.5
-0.046079997 2.8960323 -0.51840419 5
-0.094068281 3.2231231 -0.55659837 5
-0.16708384 3.7391064 -0.62559015 5
-0.20742854 -2.697917 0.49928343 9.3999996
-0.38142571 1.4648805 0.23352924 14
-0.17465504 -2.6754537 0.82924324 13
-0.19875759 3.7560856 0.23793747 11.6
-0.24780227 -3.1853666 1.2519927 14.666667
-0.16653287 -2.7276967 1.1028676 15
-0.039559361 -2.669337 1.0901828 15
-0.18034755 3.7967336 0.57929033 14.2
0.30106631 -2.9129996 0.10988849 5
0.30955648 -2.7934966 0.082150266 5
0.18119931 -2.2019322 0.019133255 4.5
0.2196696 -1.7801931 -0.01635539 4
0.24404323 -1.4388187 -0.049040876 3.3333333
0.20644157 -1.0186778 -0.098451518 1.6363636
0.24563581 -0.6925357 -0.12875156 0.2
0.22211756 0.71285802 -0.28443843 0
0.19358316 0.95875043 -0.30920836 1
0.23495205 1.3286231 -0.33941892 2.6666667
0.21562578 1.754059 -0.38199541 3.8
0.21004967 2.0867853 -0.41643158 4
0.1855225 2.4629376 -0.46727321 4.5
0.33686554 3.113909 -0.54766208 5
0.33226898 3.5570514 -0.60539556 5
0.20749703 -2.7283704 0.45807829 9
0.20121035 -2.6922851 0.81230694 12.666667
0.21128236 3.7288609 0.2496907 11.5
0.18694298 -2.6800156 1.0868288 15
0.18509308 3.7671714 0.55259496 14
0.66714811 -2.8760812 0.1365142 5.5
0.65156698 -2.5735595 0.056307565 5
0.61948806 -2.2690375 0.028092314 5
0.63871586 -1.7473624 -0.016758919 4
0.63733214 -1.3888923 -0.053247519 3.5999999
0.5904488 -1.0026476 -0.096561924 2.25
0.63473165 -0.59856725 -0.12792583 1
0.60944396 -0.37080738 -0.15533629 0.25
0.71923178 0.26144215 -0.22444583 0.25
0.63696003 0.56904304 -0.26864827 0.42857143
0.60902792 0.96483344 -0.31129497 1.8571428
0.63103855 1.4244146 -0.34877384 3.4000001
0.58543253 1.7059233 -0.37603405 4
0.64316678 2.2045183 -0.42997912 4.5
0.68156105 2.5351906 -0.46606353 5
0.73382533 2.9718347 -0.51838523 5
0.78119534 -2.7719257 0.44721919 8.5
0.5884369 -2.7367048 0.45661438 9
0.71341151 3.7265141 -0.27750748 8
0.60908461 -2.6939087 0.84761554 13
0.59434801 3.703105 0.24984585 11.5
0.56327754 -2.66466 1.1022767 15
0.58890992 3.7442167 0.59091181 14.142858
1.1595846 -3.2542281 0.13013189 6
1.097476 -2.9871783 0.097660169 5
1.0152749 -2.6527579 0.071801268 5
0.89487845 -2.1516547 0.023769859 5
0.96917063 -1.8093741 -0.007012276 4.5
1.0132861 -1.3909307 -0.043604966 4
0.97227335 -0.98253763 -0.085929401 3.2857144
0.9020623 -0.74000585 -0.10935052 2.5
0.94157499 0.33272445 -0.24074368 1.25
0.99313307 0.60097194 -0.27627569 1.8571428
0.98350412 0.93344033 -0.30614784 2.6666667
1.0144048 1.3514583 -0.34518433 3.5999999
0.96442431 1.7608937 -0.38715249 4
0.92472023 2.1170902 -0.42551523 4
1.0198952 2.4947965 -0.46702769 5
0.81244802 3.6155021 -0.60022622 5
1.0671241 -3.5732291 0.72731709 10
1.1652321 -3.4762483 0.52196932 8.5
0.83902216 -2.7684405 0.43460536 9
1.0085381 3.6623614 -0.049646277 9.5
1.1686503 -3.4149361 0.95503312 12
0.8735292 -2.7133121 0.87584502 13
1.140384 -2.0455344 0.71325141 13
1.1614934 -1.7681588 0.6844098 13.666667
1.1796374 -1.4431289 0.64716244 14.5
0.8682515 3.6925948 0.31404892 12
1.144704 4.15693 0.080747925 10.333333
1.1818413 -3.3514059 1.4426599 15
0.83309108 3.7229812 0.60630643 14
1.2488104 -3.7175765 0.24851608 6
1.4935347 -2.9103134 0.09474998 5
1.3901513 -2.6401951 0.0675487 5
1.2413021 -2.2576091 0.037504844 5
1.4193692 -1.8317652 0.014963749 5.1999998
1.3625836 -1.3820151 -0.036197904 4.6666665
1.3776232 0.6316998 -0.27293247 3.3333333
1.3699687 0.97708088 -0.30511802 3.75
1.3874881 1.3376091 -0.34161216 4
1.4729103 1.7544156 -0.39095944 4
1.3360879 2.087503 -0.42759168 4.6666665
1.439245 2.6200645 -0.48788509 5
1.5439262 2.8843889 -0.51566124 5
1.2048439 3.2241778 -0.55050111 5
1.304698 3.621315 -0.59352255 5
1.4012522 4.0443816 -0.61122936 5.5
1.4069206 -3.4120691 0.50725275 8.363636
1.4883208 -3.1727576 0.40344432 8
1.5083294 -1.7060788 0.4290919 10.4
1.5123825 -1.5368003 0.36831194 10
1.2030102 3.6425853 -0.28921911 8
1.5570486 -3.6055217 0.87597787 11
1.3754936 -3.4000275 0.99044067 12
1.3023562 -2.039444 0.6553064 12
1.3846484 -1.7803065 0.61960971 12.5
1.4099213 -1.3704607 0.63156772 14
1.4900043 -3.3789148 1.3482641 14.333333
1.6136433 -3.2631514 0.18265143 6
1.9724149 -2.9564812 0.11387876 6
1.8043034 -2.6459594 0.082855329 6
1.9351571 -2.1741052 0.036245558 5
1.7962847 -1.9815778 0.017475296 5
1.7303776 0.94076604 -0.30059868 4
1.7075919 1.360329 -0.34295422 4
1.8391761 1.7088883 -0.38126871 5
1.7679557 2.1258931 -0.43038151 5
1.7582319 2.4454095 -0.46518767 5
1.652882 3.163527 -0.54064047 5
1.8101782 -3.4431026 0.56818312 8.875
1.8434926 -3.1586833 0.42695701 8.333333
1.6551626 -1.4519255 0.3166506 9.5
1.9341154 4.2057691 -0.29021758 8
1.6191703 -3.6844678 0.77170122 10
1.7560265 -3.4565372 0.97108608 11.5
1.7310984 -1.3597506 0.62612486 13.333333
1.7737796 -3.3903406 1.3963536 14.333333
1.9068161 6.5869088 0.4327724 11.5
1.9498976 -3.3825727 1.5456104 15
1.887944 6.6223602 0.75320536 12.5
1.916101 6.6643796 1.145792 14.5
2.3968835 -3.7660384 0.245795 6
2.152936 -2.5059304 0.15328245 6
2.1116803 1.0529938 -0.31593004 4.5
2.2268429 1.3493922 -0.34753978 5
2.2148254 1.8902078 -0.40255982 5
2.2255282 2.4628041 -0.46856123 5
2.0879703 3.0381057 -0.53125703 5
2.3236022 3.4611011 -0.57920575 5
2.0435131 4.1437397 -0.65030456 6
2.2872524 -3.6836281 0.4778609 7.5
2.2380798 -3.4058812 0.57406229 8.8000002
2.0543683 -3.1534591 0.52668017 9
2.1003551 -2.4894226 0.3113434 8
2.1313689 -1.7135203 0.28751445 8.25
2.1986353 -1.4472064 0.37273434 9.3999996
2.1690865 -3.6820962 0.91194302 10.666667
2.1979072 -3.4706397 0.92525166 11
2.1929939 -1.9944276 0.62596077 11
2.1123905 -1.7365654 0.60181719 11.5
2.2315083 -1.3948147 0.5810622 12
2.1955254 6.5207925 0.00096520496 9.5
2.2385688 -3.3988063 1.3527951 14
2.1683714 6.5529199 0.30421883 10.8
2.161922 -3.3945532 1.5902456 15
2.1998277 6.5999079 0.75553727 12.5
2.2068813 6.6560197 1.2077321 14.5
2.7671766 1.9096323 -0.4128617 5
2.4151926 2.0988643 -0.42749968 5
2.4359787 2.7477772 -0.49907917 5
2.6725707 4.084043 -0.65491408 6
2.6549718 -3.5367813 0.51176244 7.8333335
2.662466 -2.1198323 0.3327139 8
2.6107666 -1.8233429 0.24870102 8
2.445195 -1.4648992 0.38013417 9.5
2.7282445 6.3541741 -0.36064669 8
2.5639787 -3.4782948 0.8912313 10.666667
2.5194097 -1.7999802 0.59288812 11
2.6017618 -1.4276226 0.56211817 11
2.573858 6.4867191 -0.12329159 9
2.5861135 -3.4431939 1.227142 12.666667
2.5808849 6.5328484 0.31736478 10.8
2.5929101 -3.3893511 1.566919 15
2.5872121 6.5821433 0.76169705 12.5
2.5833025 6.6304917 1.1965423 14.333333
2.6077111 6.6509757 1.3852332 15
2.993166 1.6011312 -0.38290831 5
2.9481151 2.6552474 -0.49087089 5
3.0693288 3.6034064 -0.59435904 6
2.8591809 6.272593 -0.79894012 6.5
2.9783788 -3.491744 0.52609992 8
2.9664423 -2.2781401 0.50309438 9.1999998
3.0245886 -1.6430378 0.37129933 8.666667
2.9484837 -1.4779614 0.37493896 9.1428576
3.0735648 6.4342203 -0.26504177 8
2.9476008 -3.4749947 0.7922768 10
2.9661028 -2.2766128 0.64196908 10
2.9342701 -1.4551688 0.55806911 11
3.015388 6.470849 0.026095061 9.5
3.0048113 -3.4168904 1.319767 13
2.8815889 6.5259562 0.43390027 11.5
3.0423007 6.543201 0.74081999 12.333333
3.0076239 6.5887332 1.1355182 14
2.9747267 6.617166 1.3927746 15
3.5746369 -1.5934194 0.14165883 7
3.4217222 2.4405568 -0.47401863 5
3.3076618 3.0316846 -0.53139424 6
3.5855606 -3.6021914 0.59643936 8.5
3.4495521 -3.5326085 0.63415056 8.5
3.4761446 -2.4616401 0.58486456 9.5
3.2111168 -2.3361547 0.6254518 10
3.2302699 -1.7722652 0.29764131 8.5
3.2406478 -1.5396576 0.21109453 7.5
3.4885809 6.4040713 -0.25293455 8
3.2795722 6.4221449 -0.25891685 8.5
3.5491772 -2.4638224 0.65730065 10
3.455286 -1.4737619 0.58015406 10
3.5436492 6.4230785 -0.082463875 9
3.3313582 6.448082 0.034752805 9.666667
3.4453325 -3.4958794 1.303704 12.5
3.43154 -3.4772067 1.2221274 12
3.5288205 6.4601617 0.3385337 11
3.3738549 6.4823494 0.43465239 11.5
3.4319868 -3.4514842 1.6903636 15
3.3689904 6.5237732 0.77772611 12.5
3.5881896 6.5496602 1.2528702 14
3.3136747 6.5763483 1.2411188 14
3.4017456 6.5905652 1.4137121 15
3.9616189 -1.5569834 0.12934098 7
3.719959 2.0535874 -0.43664524 5
3.8793623 2.812428 -0.51510525 6
3.804626 3.5510361 -0.58943099 6
3.7849622 6.158998 -0.77680457 6.3333335
3.8390689 -3.5821779 0.6316824 8.5
3.6868949 -2.1839492 0.24371983 7
3.8918312 -1.6594806 0.53006804 10
3.7184472 -1.4398626 0.34121329 8.666667
3.7648258 6.3833547 -0.28230453 8
3.6826441 -3.5226662 0.85234118 10
3.9959476 5.8206949 0.10318886 10
3.8191957 6.4105396 0.013269025 9.5
3.8605077 -3.5061572 1.3144456 12.333333
3.8789086 6.4556456 0.53532535 11
3.755271 -3.4691331 1.754321 15
3.7936575 6.492013 0.75228083 12.333333
3.6420279 6.5169759 0.85796642 13
3.8506584 6.5317798 1.1665574 13.5
3.7775283 6.5487394 1.4538193 15
3.7162545 6.5737619 1.4204276 15
4.2851839 2.4046667 -0.48084944 6
4.1665878 -3.623584 0.64268816 8.5
4.0547776 -1.505488 0.53462553 10
4.1543193 6.3521557 -0.32147494 8
4.033978 5.7602305 0.12275225 10
4.1813226 6.3798981 -0.007495936 9.5
4.1378751 -3.5134192 1.3861704 12.333333
4.248878 6.4220748 0.43734136 11
4.1910615 -3.4767628 1.8404701 15
4.2490568 5.6002884 0.92777717 12.666667
4.0916133 5.797338 0.84080034 12.666667
4.1875019 6.4662619 0.75433153 12.333333
4.2481775 6.4975319 1.182577 13.5
4.1313024 6.5105495 1.4772682 15
4.7472129 -0.63550067 -0.038340315 6
4.6543918 2.6761014 -0.38259944 6
4.5857525 3.3838146 -0.58516228 6
4.7333102 -0.7098394 0.1234589 7.5
4.6641464 4.9508581 -0.15868221 8
4.6970382 5.2322874 -0.17306849 8
4.6240511 6.1273127 -0.34455264 7.75
4.561861 3.546236 0.31639263 10
4.5525346 4.1973557 0.10668343 9
4.6375241 4.4658098 0.30402705 10
4.6602359 5.2209039 0.26680195 10
4.6172571 6.2207565 -0.046009012 9.333333
4.599144 3.0207415 0.70670968 12.5
4.5146694 3.5403674 0.635364 12
4.6068649 3.8669043 0.58950561 11.5
4.5572877 4.2075639 0.69208461 12
4.5911679 4.5897036 0.73358691 12
4.6684589 5.0207472 0.61067665 11.5
4.669961 5.4947691 0.43504843 10.75
4.7456183 5.9017634 0.55789053 11
4.5915661 6.2899046 0.37738994 10.333333
4.6463084 4.4189215 0.91408747 13
4.6705141 5.1222091 0.81862468 12.333333
4.655355 5.4098668 0.69487631 12
4.5930114 6.3432226 0.67572868 11.666667
4.6597352 -3.6049654 2.1303198 15
4.5556273 4.031167 1.3221031 15
4.5987334 4.9100819 1.1457484 14
4.6446457 5.19243 1.1773908 14
4.5332608 6.4029565 1.2950017 14
4.5638518 6.4249249 1.5198184 15
4.8930945 -2.9103897 0.10202085 6
4.9049516 -2.5388167 0.082266986 6
5.0323987 -2.3458045 0.12126958 6.3333335
5.0590525 -1.4255632 0.086935513 7
5.0993128 -0.91246182 -0.038024902 6
4.8177648 6.0245247 -0.75614458 6.5
4.8612781 -2.8072402 0.6056059 9
5.0717888 -2.2882495 0.48796025 8.5
5.0703468 -0.82300961 0.1131382 7
4.9918027 5.0914631 -0.096840255 9
4.8942966 -2.7405102 0.70319098 9
5.1719909 -3.6944754 1.500806 12
4.8900104 4.2224574 0.88686335 13
5.1802526 -3.7033551 2.089757 15
5.3328223 -2.2026429 0.063993186 6
5.3249187 -1.8323815 0.080727346 6.6666665
5.383471 -1.2569577 0.039750833 6.6666665
5.3888602 -0.99191684 0.0058602672 6.5
5.415307 -0.48409781 -0.079082377 6.3333335
5.4707913 -0.20919725 -0.077878207 6.5
5.4614787 0.21013771 -0.066071585 7
5.442822 0.44022924 -0.046301819 7
5.5610251 2.3682663 -0.2779808 7
5.5577421 3.0740023 -0.34336534 7
5.3249855 -2.162425 0.46880701 8.5
5.371563 -1.754668 0.4103795 8.5
5.3930259 -1.3716806 0.35563067 8.25
5.4199886 -0.95418072 0.25276259 8
5.4386454 -0.57047129 0.24017461 8
5.4704537 -0.20478785 0.21091324 8
5.4290261 0.18157169 0.20747903 8.3999996
5.4464097 0.46062109 0.17073745 8.5
5.3133497 -2.6185319 0.92393953 10
5.3406825 -2.1381788 0.93625128 11
5.3634734 -1.7527695 0.77790505 10
5.4015427 -1.3246986 0.71775132 10
5.4282131 -0.95235026 0.68865651 10.2
5.4603066 -0.56157863 0.61643142 10
5.4544411 -0.11436071 0.60600424 10.2
5.4358478 0.25156572 0.61777288 10.25
5.4567404 0.48880136 0.56667364 10
5.3237896 -4.1037335 1.4667504 11.333333
5.2329378 -3.6391771 1.4260613 12
5.2693071 -3.3099306 1.398797 12
5.306972 -2.8346848 1.4039814 12.333333
5.3279552 -2.5191202 1.3722337 12.333333
5.3687792 -2.0914016 1.1970134 11.8
5.3918223 -1.6585619 1.1923026 12.2
5.416749 -1.2910104 1.1311651 12
5.4420705 -0.89242846 1.1362869 12.5
5.4676604 -0.54024768 1.0588871 12.333333
5.4845061 -0.11431178 1.0580424 12.5
5.4492459 0.27112338 0.97466022 12.166667
5.4628544 0.55246234 0.87892455 12
5.3452816 -4.3456268 1.6294186 12
5.377284 -4.1366806 1.804377 13
5.2425137 -3.609791 1.6223038 13
5.2831154 -3.2835395 1.5524553 13
5.3037329 -2.9350398 1.5356545 13
5.3354931 -2.3458881 1.4730074 13
5.3622813 -2.0479336 1.5212809 13.5
5.3882685 -1.6841559 1.5070885 13.666667
5.4214377 -1.2478527 1.4892678 13.833333
5.4466033 -0.85035545 1.48785 14.142858
5.4725685 -0.47133246 1.4134409 14
5.4830222 -0.05332515 1.430584 14.5
5.4655313 0.38410199 1.3620424 14.142858
5.4886093 0.62065542 1.3280617 14
5.2692323 -3.5479727 2.1721516 15
5.3077388 -3.198245 2.0929377 15
5.3443937 -2.8341372 1.9871398 15
5.3672166 -2.4048049 1.9359835 15
5.3938856 -1.9969099 1.8961564 15
5.4259 -1.60621 1.8680087 15
5.4824519 0.67494172 1.5816643 15
5.3894949 -3.9368663 2.4512603 15
5.6697545 3.086143 -0.30511871 7
5.6691489 2.1998866 -0.13495767 7
5.9382157 2.6432121 0.0019079479 8
5.734592 3.0571957 -0.013949008 8.6000004
5.7507868 3.3484163 -0.015393424 8.5
5.7380109 4.242137 -0.29023495 7.3333335
5.6889896 4.3379679 0.12049276 9
5.603375 4.573092 0.053053584 9
5.9097571 6.2779078 0.043091375 9
5.9538708 6.2856507 0.30932811 10
5.9664054 6.4517965 1.6631141 14.5
6.0078573 3.4360747 0.21612172 9
6.092021 6.3189926 0.67915457 11
6.6129198 2.5326691 -0.38360611 6.5
6.4727287 2.9965224 -0.43762684 6
6.5691943 2.3763864 0.1138685 8
6.5847464 2.5829234 0.023037091 8
6.4708791 2.8619957 -0.20473169 7
6.6296048 6.1848559 -0.38004118 7.5
6.5822649 2.3579543 0.2594687 9
6.6492634 2.5067501 0.3769781 9.5
6.5270829 2.8689342 0.26553735 9
6.6157551 6.2213559 -0.0085715214 9
6.5559874 6.2935004 0.5793187 11
6.6670375 6.29283 0.69428509 11
6.7203708 3.8930421 1.7610019 15
6.6884875 6.3350997 1.7550668 14
6.6071663 6.2066426 2.0581594 15
7.1843042 4.1269736 -0.47531408 7
6.9210596 2.4297223 -0.14910501 7
7.0085812 6.1243258 -0.48349923 7.3333335
7.1744881 5.7943325 -0.03992052 9
6.942739 6.1619477 -0.09314137 8.5
7.1949673 5.9984136 0.2919988 10
6.9287648 6.2203069 0.39420891 10.333333
6.9165993 5.9284387 0.85454172 12
7.557384 3.8726976 -0.50348139 7
7.2810841 2.5355217 -0.0067330427 8
7.2588043 5.8196669 -0.3046076 8
7.2172103 6.0248594 0.86777192 11
7.202158 6.1188889 0.82498282 11
7.218329 6.0872517 1.1913319 12
7.5446963 3.3590152 2.0651317 15
7.414638 3.5111852 2.0577743 15
7.4624186 3.8373048 1.8238736 14
7.5082068 4.5898418 1.9591259 15
7.3715754 3.7038803 2.0723388 15
7.4289694 4.0632286 2.126297 15
7.4783597 4.4365234 2.1825879 15
7.5238085 5.6470633 1.9200237 14
7.6834693 3.98404 -0.21783431 8
7.6754012 4.0523758 -0.31624758 7
7.8629942 5.7420731 0.14361757 9
7.6531625 5.817534 0.58861339 10
7.8132238 5.800602 0.71517777 11
7.6484165 5.857141 1.1997187 12
7.6932325 2.0090017 2.1792812 15
7.7127872 3.1143723 2.0707929 15
7.8403978 4.0470419 1.949182 15
7.9551735 4.6672883 1.9477479 14
7.9519653 5.4617066 1.5859182 13.5
7.6548266 5.9507332 1.6425446 13.5
8.7279043 2.6868379 -0.29389396 7
8.6488056 2.8764069 -0.35940918 7
8.7452068 4.2150712 -0.62497759 6
8.7075071 2.7466073 -0.0078967363 8
8.6958685 2.8191769 -0.26475266 7
8.7783422 4.1205931 -0.39315462 7
8.5640841 2.8381958 0.24189524 9
8.6544714 4.2982912 0.044210173 8
8.5082092 2.0124967 2.1279848 15
8.8128691 4.1776733 -0.28929594 7
9.5385056 4.4498305 0.24844275 9
9.3442612 6.1701164 1.1023091 11
9.3984604 3.6763136 1.7867033 13
9.345336 4.0954642 1.8481224 13
9.3447056 4.3844395 1.788916 13
9.7511625 2.601449 0.22478005 8
9.9701452 4.2984858 1.5830538 12
9.6923037 6.090486 1.1332853 11
9.7925053 3.7162623 1.9225062 13
9.9648275 5.9952321 2.2502289 14
10.393111 1.8884791 -0.47550431 6
10.198117 2.0196381 -0.35629293 7
10.220282 1.8348695 -0.13459566 7
10.194106 6.0412555 0.64076388 10
10.261336 6.0835371 1.2031364 11.5
10.0005 3.6597438 1.8620642 13
10.186101 5.9936056 1.7284465 13
10.092703 5.9871645 1.9579004 13
10.234964 2.0585499 2.7459695 15
10.080346 2.3837454 2.7392006 15
10.242351 3.5830135 2.5958517 15
10.325266 5.0066862 2.4368227 14
10.292999 5.7213249 2.4176731 14
10.603942 1.6936418 0.112473 7.5
10.419584 1.5967442 0.35884041 8
10.717213 2.6359398 0.36720037 9
10.584658 6.0072842 0.72981334 10
10.730449 6.0342293 1.4135729 12
10.598137 1.639918 2.7944543 15
10.542973 3.2798221 2.6260803 15
10.735433 4.5771518 2.4605224 14
10.643806 4.9326372 2.4639423 14
10.451869 5.9706697 2.3234522 14
10.912199 2.4900517 0.21513276 8
11.193142 5.958168 0.6583637 10
11.019297 6.0143013 1.0538741 11
11.101325 3.9127147 1.6704804 12
10.84166 5.8905392 1.7822396 12
10.883146 2.8371017 2.6565027 14
11.052612 4.0958576 2.4720414 14
11.04098 4.5006166 2.5080955 14
11.053018 5.6559234 2.4027879 14
11.21302 5.9450378 0.36696449 9
11.478308 5.9995699 1.0703262 11
11.374081 5.9474916 1.6443048 12
11.563403 1.7787462 2.3721771 13
11.320837 5.9245415 2.2139463 13
11.477468 2.0111239 2.7182884 14
11.31133 2.3908944 2.7088101 14
11.395696 3.9129241 2.5145884 14
11.416865 5.9418044 2.289331 13
11.697695 5.9369979 0.75766665 10
11.670478 3.5249898 1.7050982 12
11.958495 6.0046525 1.4983503 11
11.971734 5.8114934 1.8848999 12
11.841622 1.6534046 2.7712097 14
11.889884 3.4478409 2.5624199 14
11.659788 3.6903267 2.5412319 14
11.807887 5.8524175 2.2680438 13
12.321815 2.5328145 -0.62322295 6
12.199954 2.6423109 -0.220476 7
12.213294 2.1974912 0.19114923 8
12.392053 5.8701773 0.3776758 9
12.134332 5.9741058 1.0994408 11
12.153413 1.546748 2.2084 12
12.253119 2.1677132 2.0489459 12
12.214027 2.4374826 2.0613244 12
12.167891 2.8485694 2.0830393 12
12.258136 4.6334891 1.8329949 12
12.116496 1.6836953 2.5087278 13
12.131853 2.0670187 2.4997523 13
12.122292 2.2832243 2.5358617 13
12.21406 2.8862569 2.5005229 13
12.216749 3.2853525 2.1193213 13
12.228609 3.638072 2.0931215 12.5
12.268526 4.0208845 2.219327 13
12.351802 5.6539903 1.9100243 12
12.161531 1.8495971 2.7276783 14
12.159261 2.4968681 2.6389091 13.5
12.159086 2.9005005 2.5744035 13
12.085984 3.1914406 2.5792942 14
12.069479 4.5172119 2.5195296 14
12.417175 5.8940854 0.67931157 10
12.617321 4.1253595 1.8378602 12
12.675522 5.9927354 1.5477624 11
13.198112 2.6961083 0.18545815 8
12.914442 5.8905444 1.2824235 10.5
13.212221 2.626559 0.37786627 8
13.562393 5.8801389 1.1606044 10
13.358562 5.9408174 1.596247 11
13.69358 1.7677454 -0.65137476 6
13.729096 5.7593837 0.38746944 9
13.81422 5.7980022 0.70242882 9
13.855634 5.7773104 1.6231785 11
14.390428 5.8295555 1.1970522 10
14.627245 5.749908 0.71793592 9
14.56369 5.6724401 1.6694032 11
14.526596 5.8166971 1.574793 11
15.068713 4.0532093 0.3946625 8
15.090429 4.5892782 0.18622851 8
14.970364 2.5598235 0.64658171 9
15.00393 3.071614 0.65137953 9
15.036984 3.6434991 0.67409879 9
15.048856 4.0143766 0.68383658 9
15.093652 4.4117708 0.54514349 9
15.118588 4.7781425 0.70381069 9
14.980032 2.6853054 1.1369207 10
15.006321 3.2921522 1.1509645 10
15.037187 3.6800086 1.1620945 10
15.070593 3.9562082 1.1785934 10
15.117827 4.4221115 0.95549035 10
15.046562 3.1705921 1.598206 11
15.130486 5.7050557 1.2277954 10
15.409425 5.2549973 0.71992314 9
15.278 2.0926278 1.7147305 11
15.318679 2.8563535 1.6086816 11
15.208901 4.5065818 1.1925062 10
15.402602 5.3870058 1.230179 10
15.203168 4.3355942 1.6566079 11
15.392747 5.5833492 1.7269485 11
15.6508 2.538043 1.6230354 10
15.843703 5.1157928 1.2425933 10
15.935747 5.5649519 1.7092671 11
16.176683 2.3373306 1.1919501 10
16.038055 1.8397402 1.6334078 10
16.381807 5.5080066 1.7977505 11
16.682035 2.2161751 -0.38656971 7
16.89348 1.7731547 -0.87574095 6
16.822109 1.9645028 -0.4225736 7
16.916401 1.8224458 0.13119021 8
17.027273 1.9131814 2.1818488 11
17.193188 4.4685965 1.814896 11
16.866817 5.4711676 1.797665 11
17.039137 2.3008657 2.199985 11
17.125004 2.7103591 2.2276046 11
17.148733 3.5136018 2.269536 11
17.185596 3.9310982 2.2963662 11
17.163452 4.3357663 2.3149183 11
16.862331 4.6720119 2.3039742 12
17.388712 2.5833187 -0.82335478 6
17.300331 1.6086586 -0.2141158 7
17.546356 2.2717018 0.38956788 8
17.504377 2.5795999 0.69392753 9
17.489798 2.0971968 1.2567214 9
17.514675 2.4303725 1.2535615 9
17.528833 2.2848079 1.4881897 10
17.260885 5.3568563 1.8578115 11
