# .PCD v0.7 - Point Cloud Data file format
VERSION 0.7
FIELDS x y z intensity
SIZE 4 4 4 4
TYPE F F F F
COUNT 1 1 1 1
WIDTH 122
HEIGHT 1
VIEWPOINT 0 0 0 1 0 0 0
POINTS 122
DATA ascii
-3.6317265 2.2235901 -0.13544725 8
-3.6909578 1.6148251 0.029701201 9
-3.6263945 2.2408371 0.011512353 9
-3.5972154 -2.2727816 1.4419357 14
-3.6054299 2.3703032 0.88825256 15
-3.504977 3.5683849 -0.30897382 8
-3.5721598 2.8926201 -0.14069568 8
-3.4528909 3.9146347 -0.17866896 9
-3.460026 3.9382546 0.19831015 11
-3.4808524 -0.92226487 1.1044232 15
-3.5589311 -2.2545469 1.5688165 15
-3.2742782 3.9491975 0.092858322 10
-3.3702822 -2.9072602 1.6704596 15
-3.3667972 4.0532384 0.75590432 14
-3.3991907 4.0836611 1.0239305 15
-2.8386717 -2.1669991 0.41698685 8
-2.8069551 -2.5286329 0.62651348 9
-2.8254132 -2.0352488 0.56323802 9.5
-2.9056427 -0.77510703 0.37633452 9.5
-2.83005 3.8608906 -0.26203281 8
-2.8169219 -2.0163858 0.77868783 11
-2.8663199 -0.77085108 0.51573634 11
-2.8521125 -1.3732549 0.87070376 13
-2.8724504 -1.2264417 0.76550728 12
-2.760344 -1.3670686 0.34447727 9
-2.7490981 -1.1221323 0.30154464 8.5
-2.6438179 -2.5464401 0.68016273 10
-2.7186644 -1.08929 0.49642 10.5
-2.6765814 -2.5222826 0.78819954 11
-2.734607 -1.4035454 0.65047902 11
-2.6815403 3.8703501 -0.041393943 10
-2.7328794 3.9168081 0.25464994 11.5
-2.7957759 3.9945869 0.74866968 14
-2.5434375 3.9182422 0.4442066 13
-2.3045261 -2.6903734 1.1946121 14
-2.3376274 -2.6704574 1.1566563 13
-2.2051911 3.9116278 0.54742897 14
-2.2936029 3.9520078 0.81056935 15
-2.1793339 -2.6615651 0.42726925 8
-2.1125529 3.8066721 -0.06461551 10
-1.9507847 -2.6460242 0.66671151 10
-1.9573703 -2.6187215 0.85168231 12
-1.8815722 -3.11462 1.4883307 15
-1.6908591 -2.625694 1.0685732 13.5
-1.4433084 -2.7311137 0.41866797 8
-1.4474069 1.4725688 0.22470531 13
-1.5246279 3.8097017 0.33200991 13
-1.3456241 3.7280703 -0.11727407 9
-0.77296466 -2.6707098 1.0100068 14
-0.48771656 0.66708642 -0.28516778 0
-0.44832146 -2.8285387 0.38550878 7
-0.22761497 0.60462469 -0.27971369 0
-0.32662466 0.92488688 -0.31711394 1
-0.36453921 0.97683316 -0.32852843 2
-0.32016248 -2.8333478 0.45221817 8
-0.30688387 -2.8071299 0.57864422 9.5
-0.28891101 -2.785773 0.78706777 11.5
-0.25303888 -2.7654769 0.95195109 13
-0.097395629 0.83762217 -0.31745037 0
-0.1372107 3.6120744 0.027100541 10.5
-0.007757056 3.6635013 0.23521417 12.5
-0.024827112 3.6891623 0.6407131 15
0.097151279 0.70208693 -0.29366511 0
0.086524643 -3.5219116 0.56041199 8
0.0086336089 3.6857994 0.40863967 14
0.37398523 -3.1539478 0.42813075 7
0.23727681 -1.5558206 0.55579978 13
0.2513845 -1.5527335 0.60276192 14
0.46838057 -3.3216829 0.55218929 8
0.52767277 -1.6774106 0.69232476 14
0.73149168 -0.19699575 -0.17965606 0
0.7430687 -2.1191914 0.7425552 13
0.69635689 6.4511476 -0.25055319 9
0.75152749 6.5480566 0.27715969 12
0.92725182 -1.794655 0.69408727 13.5
0.99242288 -1.4651994 0.64188856 14
0.84039134 6.5837426 0.6568948 13
0.87398392 6.6131973 0.91876876 14
1.1233367 0.17809778 -0.22202468 2
1.0954603 -1.5144852 0.43022916 10.5
1.1050379 -1.4630456 0.69162261 14.5
1.3645055 0.12413853 -0.20257142 3
1.3373172 -1.5170802 0.58217001 12
1.2376258 -1.4218808 0.74024522 15
1.3700062 6.4440303 0.024888637 11
1.7530172 -1.6230783 0.42437556 10
1.8336314 -1.4625192 0.73092258 14
2.0648992 -1.6489763 0.36669087 9
2.0281146 6.4412313 0.49836028 13
2.5307946 6.4300265 0.78620768 14
2.628711 6.3502822 0.30010965 12
2.8788161 6.4132547 0.79042381 13
3.2962534 6.3240776 0.52459705 12
3.2809317 6.4193015 1.269478 15
3.4675152 6.193893 -0.25558978 9
3.5387368 3.2509058 0.33112732 11
3.5071206 3.1351063 0.46439356 12
3.6008253 -0.78838378 0.13668047 7
3.6074059 4.5102787 0.52887928 12
3.6853485 4.1488357 0.8352983 14
4.3579388 0.040836602 -0.020461164 7
4.3250179 -0.74076897 0.23091285 8
4.2983518 -0.2090199 0.089092597 8
4.3452435 0.12008052 0.13143763 8
4.3089857 -0.2325739 0.35410792 9
4.3515425 0.24835448 0.29421088 9
4.3129039 -0.17424858 0.54900289 10.5
4.3489938 0.24166927 0.48522869 10
4.3155007 -0.92380363 0.81724101 12
4.3177848 -0.16096869 0.71597022 12
4.3593583 0.33097556 0.66605711 11.5
4.3822708 -1.4406873 1.0315337 12
4.3339367 0.037238352 0.83460432 13
4.2253122 -1.9300257 1.3221223 14
4.398932 -0.31117031 1.1670319 14
4.3775487 0.18676747 1.1372558 14
4.3694329 0.36576074 1.1359781 15
4.3326077 -0.82196128 1.3190343 15
4.3972411 -0.15588149 1.3417792 15
4.2156978 -2.3892541 1.7919081 15
9.0215826 3.7065914 1.6665896 13
9.9426241 2.16309 0.40999573 9
