# .PCD v0.7 - Point Cloud Data file format
VERSION 0.7
FIELDS x y z intensity
SIZE 4 4 4 4
TYPE F F F F
COUNT 1 1 1 1
WIDTH 115
HEIGHT 1
VIEWPOINT 0 0 0 1 0 0 0
POINTS 115
DATA ascii
0.63899755 -0.76346415 -0.093366951 177.5
0.5868569 -0.61770892 -0.10526816 190
0.64791232 -0.66482085 -0.10610515 186.55556
0.70580363 -0.66809887 -0.098361999 182
0.56663698 -0.56041163 -0.11101631 188.33333
0.64561725 -0.54973608 -0.11099583 189.5
0.76259899 -0.58174962 -0.11717012 189.5
0.83895278 -0.53620142 -0.12185448 190.66667
0.55172235 -0.45384675 -0.12606043 183.13333
0.65291291 -0.47353408 -0.12301104 187.25
0.74227613 -0.44876894 -0.12373541 189.33333
0.85074162 -0.47315958 -0.13447848 190.8
-0.74220777 -0.38771257 -0.15187307 107
-0.66665947 -0.36224636 -0.1493873 108.5
0.49362981 -0.34021774 -0.1512064 175.71428
0.54722774 -0.37210402 -0.14805332 178.35715
0.64667439 -0.3627404 -0.14140984 182.10001
0.75634658 -0.36708009 -0.13393982 186.7
0.84626108 -0.3518655 -0.1356355 190.2
0.92132467 -0.38254264 -0.14692563 191
-0.24336122 -0.26421309 -0.13640802 147.16667
-0.15819934 -0.26115921 -0.098758437 143
0.48847395 -0.31984347 -0.1609963 174
0.55806035 -0.281095 -0.15984696 174.54546
0.64213991 -0.26672032 -0.15904264 177.8
0.73517936 -0.26811621 -0.14766553 182.3125
0.83462858 -0.26540551 -0.14661276 187.55556
0.93991679 -0.2732473 -0.15720138 190.33333
-0.34025043 -0.16448027 -0.17177954 148.33333
-0.23866577 -0.16351549 -0.1593263 144.18182
-0.16231363 -0.16766365 -0.16775647 150
0.087047376 -0.14497006 -0.10541269 142
0.12363026 -0.12809268 -0.10797112 128
0.59402341 -0.20644386 -0.17389135 173.66667
0.64835483 -0.17026892 -0.17235991 175.86667
0.75500923 -0.17888939 -0.16467719 181.72223
0.85984898 -0.16207738 -0.16029765 187.07692
0.93246472 -0.16791235 -0.16221493 189.66667
-0.73232722 -0.10711192 -0.18447737 116
-0.66298318 -0.10205212 -0.18604034 124
-0.52316135 -0.09130539 -0.18484242 139
-0.42654774 -0.084414467 -0.18844177 151.33333
-0.32944107 -0.076349258 -0.18280128 152.5
-0.24810284 -0.069716953 -0.1791002 146.5
-0.17534336 -0.0647057 -0.18330723 147
0.17333224 -0.11802884 -0.16428249 120
0.66369402 -0.080696002 -0.18534239 174.85715
0.76148576 -0.082989834 -0.17951545 180.2
0.84296197 -0.077718042 -0.16634426 185.66667
0.94110155 -0.075051449 -0.1706287 190.66667
-0.53793418 0.021267658 -0.20003341 139
-0.32029492 0.011118758 -0.1935529 148
-0.25099334 0.0079665771 -0.19061041 148
-0.17518948 0.038502064 -0.19778854 150
0.66735977 0.016175278 -0.19911458 175.16667
0.7527042 0.021261089 -0.19460224 180.04167
0.84216315 0.019409738 -0.18118976 185.58333
0.93335134 0.023158867 -0.18655927 189.77777
-0.72556961 0.16901344 -0.21839522 116
-0.52240568 0.1336963 -0.21478423 139
-0.40244702 0.1130088 -0.20952281 152.5
-0.32454962 0.099628009 -0.20510094 148.5
-0.25106069 0.14551283 -0.17813976 141.5
-0.16694212 0.13520579 -0.20580672 149.33333
0.22241613 0.16499366 -0.12710586 128
0.30495194 0.16437399 -0.20079958 121
0.65631413 0.087930739 -0.20689489 175.33333
0.7663548 0.11071001 -0.1993352 182
0.84876102 0.12827446 -0.20077747 186.90909
0.93638378 0.12869179 -0.20494767 189
-0.22864912 0.24749744 -0.22102202 147.2
-0.14223596 0.20932662 -0.21788177 148.8
-0.089018181 0.26188859 -0.22659878 156.2
0.0074957968 0.269566 -0.1924178 153
0.11747709 0.24096856 -0.18383901 167
0.219032 0.22316788 -0.19861884 147.75
0.87904447 0.18335593 -0.20569256 189
0.93616021 0.20524544 -0.21636075 191.5
-0.44940728 0.34536535 -0.24010743 141.5
-0.35317194 0.30278769 -0.23454139 152.33333
-0.14858517 0.29670179 -0.21731915 147.89999
-0.011671027 0.31727114 -0.21639967 157.33333
0.074813746 0.34294158 -0.19640553 156.33333
0.16124626 0.32194173 -0.20834161 169.33333
0.24435116 0.32850713 -0.23805346 174
-0.63651764 0.42812437 -0.24951138 119
-0.54422891 0.38734275 -0.24616852 130
-0.15259397 0.39235923 -0.18055652 133
-0.065470584 0.43436205 -0.23733421 149.66667
0.04188364 0.43240803 -0.24804762 160.88889
0.13082504 0.450831 -0.25369936 169.16667
-0.32129771 0.53446209 -0.2610817 140
-0.2828888 0.50342345 -0.25236267 141.5
-0.16174279 0.53574121 -0.2638838 147
-0.011962124 0.5045405 -0.25865471 147.5
0.068789452 0.50830954 -0.25932777 155.66667
0.15570629 0.54972208 -0.26521057 162.5
-0.23487222 0.61070865 -0.27414376 144
-0.077925548 0.59297144 -0.27195358 146.5
0.14591534 0.57637608 -0.27184761 159
-0.091013163 -0.21518306 -0.041209459 140
-0.24049792 -0.12675045 -0.059101049 164.8
-0.11371882 -0.16409169 -0.071434334 145
-0.0033347411 -0.15920509 0.016972879 147.5
0.072054207 -0.13986439 -0.053944126 130.375
-0.29258779 0.18263312 -0.10475539 131.16667
0.040618822 0.16805202 -0.022040293 127
0.17050026 0.17238477 -0.069253564 122.875
0.23459327 0.1702099 -0.087352648 126.09677
0.043416459 0.19676298 -0.089869358 132
0.15638018 0.24937922 -0.12534179 151
0.23819306 0.2031344 -0.10079902 148.66667
-0.0043841689 -0.1574669 0.02638787 145
0.012013668 -0.14702298 0.037152156 140
0.015287384 0.18185084 -0.0055354317 130
