# .PCD v0.7 - Point Cloud Data file format
VERSION 0.7
FIELDS x y z intensity
SIZE 4 4 4 4
TYPE F F F F
COUNT 1 1 1 1
WIDTH 103
HEIGHT 1
VIEWPOINT 0 0 0 1 0 0 0
POINTS 103
DATA ascii
-0.2855247 -0.91873807 -0.059185572 145
-0.2524032 -0.87898731 -0.071921021 149.5
-0.54921645 -0.76716703 -0.091041267 122
-0.16519882 -0.76333088 -0.088222928 171.5
-0.45418909 -0.69233721 -0.1009495 142
-0.091359541 -0.66527271 -0.10182372 184
-0.33424899 -0.59881359 -0.1155255 171
-0.25384408 -0.53464532 -0.12194459 184
-0.012379338 -0.55655247 -0.11038125 188.66667
0.0043925364 -0.53802186 -0.11934234 188
-0.14621925 -0.44999987 -0.13335882 188.33333
-0.033609431 -0.4590866 -0.13157313 185.42857
0.046429865 -0.48017055 -0.12395779 184.5
-0.38092598 -0.36415085 -0.1296265 168.33333
-0.065192066 -0.38416988 -0.13720898 184.625
0.039696991 -0.36287981 -0.14633891 181
0.12625684 -0.37707844 -0.14349072 178
0.78621125 -0.3311041 -0.13522455 166
0.84847784 -0.37709177 -0.13790244 163.33333
0.92096704 -0.35385585 -0.14131707 159.39999
-0.26309565 -0.27965483 -0.15692824 188.8
-0.15634304 -0.26929012 -0.1550485 184
0.059735946 -0.26605737 -0.10554054 172.66667
0.67640156 -0.24896994 -0.15400866 148.75
0.74441391 -0.26871032 -0.13984458 159.06667
0.84777373 -0.27240762 -0.1429479 161.28572
0.94343024 -0.26279116 -0.15445846 161.25
-0.70480883 -0.21919352 -0.16700716 119
-0.30723709 -0.15097685 -0.17555115 189
-0.21266536 -0.17308477 -0.17168321 185.75
-0.18331663 -0.17801572 -0.17180343 184.33333
-0.032537982 -0.21738423 -0.17040041 179
0.12996696 -0.19094065 -0.12812923 129.5
0.64998549 -0.17924081 -0.16974659 149.41176
0.74218094 -0.16938703 -0.15433103 151.04347
0.84201407 -0.17557707 -0.15284546 157.3
0.9612813 -0.19190386 -0.16791467 162.33333
-0.55522043 -0.078309551 -0.19058138 154
-0.32446617 -0.067084886 -0.19089212 188.66667
-0.21672636 -0.061501332 -0.18925959 184.25
0.66040343 -0.076222844 -0.18723127 151.45454
0.74733049 -0.074353531 -0.17479044 149.07408
0.84745198 -0.071061052 -0.16770889 154.91667
0.95336443 -0.08280313 -0.17911157 160.625
-0.31946924 0.019848343 -0.20174153 189
-0.22476017 0.013133379 -0.19824255 184.5
-0.19939807 0.010793984 -0.20071878 184
0.65943921 0.026429402 -0.20124526 151.89285
0.7526952 0.030102566 -0.18748222 147.58333
0.84480441 0.033579484 -0.18261449 154.11111
0.95152169 0.021587035 -0.19312958 158
-0.31793022 0.10537287 -0.21642905 189
-0.21867843 0.12012491 -0.20632616 184.14285
-0.18339987 0.13562593 -0.19622466 174.375
-0.027314201 0.1598313 -0.21044526 176.33333
0.047377404 0.15333281 -0.13492166 159
0.15796821 0.10920316 -0.15625983 134.51613
0.5955258 0.14836258 -0.22125967 156
0.65090132 0.12426474 -0.21502423 151.09677
0.74115115 0.11998212 -0.19985521 152
0.8652187 0.11779743 -0.1972113 159.33333
0.95221579 0.12849213 -0.21286882 160.5
-0.38307112 0.22418816 -0.14870153 137
-0.27451274 0.18183316 -0.22641595 188
-0.067958042 0.25045016 -0.22741425 182.28572
0.033220265 0.1870393 -0.15446067 177
0.57276314 0.2146278 -0.22865574 150
0.65505892 0.22059228 -0.22436643 154.08333
0.74651951 0.21662489 -0.21174116 158.21428
0.83576906 0.2159294 -0.21341975 164.42857
0.94874191 0.22481342 -0.22849923 164
-0.65188766 0.30499721 -0.24210374 129
-0.20781322 0.33805251 -0.24845684 190
-0.13929521 0.29513106 -0.23929657 185.60001
-0.066472948 0.33482006 -0.24636461 184.60001
0.6401453 0.31183383 -0.23073372 161.29411
0.74679059 0.32032934 -0.23160709 167.25
0.85546076 0.30860272 -0.23704387 169.33333
0.91925812 0.31933925 -0.24301834 165.33333
-0.14813982 0.40156403 -0.25814745 188
0.67978877 0.40166771 -0.24920668 171.5
0.72636843 0.40766212 -0.24779092 172
0.86237097 0.40625551 -0.2570878 163.75
0.76925331 0.52675843 -0.27639541 166.5
0.84995544 0.48400041 -0.27020386 166
-0.18644871 -0.32411146 -0.013600638 134
-0.11504458 -0.20630085 -0.018551735 156
-0.02769007 -0.21017188 0.024850452 130
-0.41445401 -0.14669801 -0.076748081 131
-0.30705833 -0.11927924 -0.04078364 132
-0.02243609 -0.15266465 0.015970532 141
0.078136772 -0.15841724 -0.013977814 136.32001
0.12896062 -0.16072477 -0.057088565 124.44444
-0.2188115 0.17351732 -0.10701198 167.83333
-0.19981158 0.1660835 -0.12088425 153
-0.0043369946 0.15670191 -0.035740037 154.25
0.048877228 0.13221709 -0.063935034 131.96001
0.12282068 0.13093087 -0.10657705 121.6
-0.073326103 0.25368193 -0.0485106 142
-0.0032545601 -0.13400151 0.046572018 133
0.028357467 -0.14325424 0.034861263 126.55556
0.020915175 0.15822753 -0.0037263536 129.25
0.0036416107 0.20544927 -0.0099991933 135
