# .PCD v0.7 - Point Cloud Data file format
VERSION 0.7
FIELDS x y z intensity
SIZE 4 4 4 4
TYPE F F F F
COUNT 1 1 1 1
WIDTH 65
HEIGHT 1
VIEWPOINT 0 0 0 1 0 0 0
POINTS 65
DATA ascii
0.46156004 -0.8309989 -0.10384449 148
0.56909704 -0.82135975 -0.1080522 155
0.4403165 -0.60650223 -0.13147424 175
0.55623174 -0.55469173 -0.13667247 175.66667
0.48968592 -0.48298809 -0.14253086 178.39999
0.55036992 -0.44960326 -0.14369416 173.375
0.64332408 -0.45507112 -0.14445628 171
0.74803269 -0.44450185 -0.14563386 170.5
0.56998026 -0.37515864 -0.15354189 161.44444
0.6489948 -0.36263356 -0.14889656 161.9375
0.75434333 -0.3640236 -0.14965673 167.88889
0.83666164 -0.35991853 -0.1556731 168
0.92758203 -0.37606606 -0.15544024 168.5
0.59077907 -0.31548908 -0.15988514 150
0.6664322 -0.27106327 -0.16169204 150.53334
0.73974848 -0.26691869 -0.15621831 157.25
0.83849353 -0.26239121 -0.16021781 162.25
0.67603594 -0.21343951 -0.17195505 149
0.74070114 -0.1687047 -0.16964938 152.77272
0.85689789 -0.15950255 -0.16970812 157.10001
0.91675836 -0.13544162 -0.17596087 164
-0.32379976 -0.022804687 -0.19732752 190
-0.21637361 -0.023084885 -0.1947163 184.5
0.75826126 -0.079740055 -0.17682257 151.1579
0.84426641 -0.074266836 -0.17316462 154.77777
0.96429896 -0.073817655 -0.18694656 157
-0.3127501 0.062437929 -0.2070757 189.5
-0.21998207 0.050776903 -0.2036131 185
-0.19709709 0.047793798 -0.20372103 184
0.75617111 0.015503749 -0.18973581 150.7
0.84703505 0.021183439 -0.18542175 156.30769
0.94956732 0.036800515 -0.19761558 161.71428
-0.337172 0.15951522 -0.17668778 167.33333
-0.24722677 0.13700975 -0.16953973 151.75
-0.18879032 0.11894494 -0.2114466 184
0.069517307 0.14296438 -0.18351917 158
0.16882536 0.12146481 -0.14290541 132.91667
0.21525814 0.092464648 -0.17248404 133.76923
-0.7844243 0.26989681 -0.2323783 124
-0.6626302 0.23955958 -0.22113085 127.5
-0.54512703 0.21142116 -0.19481608 137
-0.30048868 0.23980017 -0.2276022 192
-0.26703709 0.226842 -0.22445729 188.66667
-0.16702868 0.18800409 -0.21789853 184.5
0.065944679 0.19814612 -0.18746382 174.5
-0.47592989 0.30810603 -0.23399806 165
-0.17275828 0.36987072 -0.24269725 188
-0.062983498 0.33564374 -0.23551217 184.5
-0.14406919 0.41991904 -0.24846607 189.66667
0.054490823 0.42507496 -0.24509959 185.33333
0.15118577 0.46192545 -0.24657471 184.25
0.24098147 0.46775979 -0.24832042 184.75
0.35881656 0.46579215 -0.24879229 184.5
-0.049957577 0.48769256 -0.25459319 189.5
0.025324531 0.52965015 -0.25845072 189.75
0.12302725 0.52166528 -0.25435078 187.5
0.2663596 0.49616286 -0.24880856 186.14285
0.35665676 0.49695486 -0.24992652 185.75
0.26923639 0.59818923 -0.26405463 190.33333
0.35223964 0.59507585 -0.26252833 190.75
-0.25900924 0.14427052 -0.11207056 141.25
0.058233023 0.14803542 -0.060288861 133.5625
0.11991605 0.12518407 -0.10040263 126.63636
0.038980685 0.16553116 -0.0014556421 135.83333
0.0077597699 0.22943856 -0.0096985335 139
