# .PCD v0.7 - Point Cloud Data file format
VERSION 0.7
FIELDS x y z intensity
SIZE 4 4 4 4
TYPE F F F F
COUNT 1 1 1 1
WIDTH 109
HEIGHT 1
VIEWPOINT 0 0 0 1 0 0 0
POINTS 109
DATA ascii
-0.42984268 -2.0756629 -0.11815988 5
-0.58633548 -1.7560767 -0.12979558 4
-0.4512504 -1.5067948 -0.12944266 4
-0.47370517 -0.97308916 -0.13409045 2.6666667
-0.43566802 -0.61508697 -0.1609979 0.33333334
-0.23837553 -1.7836272 -0.10249875 4.6666665
-0.18754677 -1.3783799 -0.123228 3.8571429
-0.20038736 -0.96330225 -0.1415749 2.125
-0.22977906 -0.67125756 -0.15168846 0.5714286
-0.044491503 6.3160329 -0.53400952 5
0.27918935 -1.7666677 -0.039408986 5.75
0.14169943 -1.3957822 -0.10427541 4.1999998
0.17259651 -1.0119146 -0.13145247 2.7777777
0.23047164 -0.63726163 -0.14938536 0.625
0.32629171 0.67495668 -0.21600221 0
0.29327717 0.91678119 -0.22619037 1.2
0.27959231 1.3731486 -0.23466314 3
0.1715703 1.7674612 -0.24599063 4
0.22030474 2.2106512 -0.27136114 4
0.19741943 2.5539608 -0.29095188 4.5
0.1672653 3.0101061 -0.31778777 5
0.14306189 3.3506289 -0.33236432 5
0.74769163 5.0977802 -0.54092664 5
0.50971639 -1.645957 -0.072399043 5
0.4833467 -1.3959295 -0.13052358 3.75
0.47830674 -0.97738862 -0.15128301 2.6666667
0.46517175 -0.60220551 -0.15944791 1
0.43855867 -0.38399643 -0.16733935 0
0.68362552 0.25698528 -0.19636095 0.5714286
0.58575255 0.61012554 -0.21475244 0.76923078
0.61973423 0.96976089 -0.23149674 2.0999999
0.59033316 1.4333202 -0.24953568 3.2
0.6172297 1.7958429 -0.26133153 4
0.51213461 2.0796962 -0.27166906 4
0.54609787 2.5876887 -0.29892647 5
0.56850106 2.9059217 -0.31957969 5
0.61759198 3.5311837 -0.3762832 5
0.58322972 -1.724916 0.10004105 8
0.98448491 0.20578571 -0.19673972 2
0.95248568 0.58494222 -0.22189939 2.0999999
1.0145831 0.98232281 -0.22381344 3.2857144
0.94940621 1.3888624 -0.22689077 3.8
0.95932883 1.7109734 -0.24697776 4
1.0180668 2.1911178 -0.27589127 4.6666665
0.89787358 2.5915704 -0.30973589 4.5
0.99071133 3.0498891 -0.33677658 5
1.3864003 0.2402951 -0.20248121 3.75
1.3522385 0.62178975 -0.21059912 3.5999999
1.3765485 0.98217398 -0.22500823 4
1.3672094 1.3407496 -0.23429511 4
1.347618 1.7696763 -0.23717922 5
1.4965632 2.273 -0.25054348 5
1.2642592 2.6069937 -0.28900829 5
1.4212707 3.0687885 -0.31022745 5
1.259428 4.2766786 -0.47248217 5
1.7677705 0.22970791 -0.19048572 4.5
1.8455459 0.6324445 -0.2096357 4.5
1.7102411 0.96830887 -0.21370023 4.5
1.7790444 1.3971593 -0.2478081 4.75
1.6920139 1.9520735 -0.26017973 5
1.824234 2.1486056 -0.26978463 5
1.8297414 2.9517243 -0.27321208 6
1.6631254 3.7775984 -0.34543592 5.5
2.2096109 0.66149896 -0.21673992 5
2.0810468 1.0095367 -0.22273032 5
2.1710367 1.7830051 -0.27154881 5
2.188123 2.041091 -0.29366058 5
2.1718917 2.666281 -0.29327333 5
2.0905852 3.5023246 -0.2630918 6
2.1314015 3.6618249 -0.15520646 7
2.1144745 3.6830764 -0.073265202 7
2.5075555 0.48845926 -0.20209406 5
2.6153135 1.1355805 -0.24183238 5
2.4344256 1.3955979 -0.2372485 5
2.6830614 2.599545 -0.32973987 5
2.4256208 3.043349 -0.31186256 5
2.7758868 3.5630298 -0.3391743 6
2.8882136 0.26468813 -0.12148456 6.5
2.9768806 0.59746855 -0.21104534 6
3.0954342 0.98379517 -0.24479623 5
3.17347 1.4202732 -0.26068822 5
2.9352376 1.7366794 -0.25450864 6
2.8508203 2.1852977 -0.29041234 5
3.056401 3.0203044 -0.3581802 5
2.9814253 0.28723276 0.018092996 8
3.4411964 1.1098657 -0.25416869 6
3.5960929 1.6353139 -0.27746949 6
3.2400961 2.5290956 -0.31262022 6
3.5616136 3.5899527 -0.3960138 6
3.9298496 0.82633597 -0.17013462 6.5
3.8396616 2.3506188 -0.29345655 6
3.9499545 5.3616958 -0.32090673 6.3333335
3.9356668 0.85732412 0.062750451 8
3.9063647 5.4582505 -0.0053691729 8
4.360342 4.5869055 -0.2173268 7
4.3958302 4.7150035 -0.0019635046 8
4.647387 1.5476841 -0.2988233 6
4.7411356 3.8507075 -0.41075522 6
4.4085717 4.5790172 -0.37507629 6
4.7890186 4.0300827 0.0070405891 8
5.1536179 2.4256585 -0.34966996 6
5.1988144 3.3108053 -0.20860811 7
4.810823 3.9798279 -0.20741986 7
5.1761708 3.366694 0.064297006 8
5.5585637 2.6651793 -0.20649603 7
5.2080355 3.3012023 -0.26955402 6
5.5538411 2.694679 -0.054585531 7.5
5.7963185 1.9839528 -0.22579087 7
5.8085251 2.028759 0.016264351 8
