# .PCD v0.7 - Point Cloud Data file format
VERSION 0.7
FIELDS x y z intensity
SIZE 4 4 4 4
TYPE F F F F
COUNT 1 1 1 1
WIDTH 136
HEIGHT 1
VIEWPOINT 0 0 0 1 0 0 0
POINTS 136
DATA ascii
-4.8711691 4.9646511 1.1343478 12
-4.7682247 1.8096777 1.0265326 13
-4.6530681 -1.4500278 1.2002223 15
-4.6689329 0.47569221 1.3061932 15
-4.5788288 -1.2987006 -0.046746228 7
-4.5690584 -1.4112955 1.0828377 14
-4.6173968 -1.0214496 1.2190301 15
-4.6103468 -0.48185918 1.273994 15
-4.4810743 4.4625492 1.4266018 13
-4.5117598 4.80827 1.524646 14
-4.2343602 3.3081689 0.15548369 8
-4.2182808 3.1329448 0.26871791 9
-4.3035245 4.6894903 0.33832386 8.5
-4.2221298 3.1105964 0.49476162 10
-4.3709221 4.9536624 0.77176219 10
-4.4178357 3.8425045 1.4141541 14
-4.1631398 2.3908122 0.3209452 9
-4.1975765 2.6802418 0.22832943 8
-4.1594691 1.9123927 0.39988184 10
-4.164156 2.3925273 0.43930909 10
-4.1566033 2.0489519 0.87735569 13
-4.1986818 1.8440009 1.0581689 14
-4.2119703 2.9085116 1.1024795 13.5
-4.1279821 1.8534929 1.2525485 15
-4.158576 5.3286667 1.5747557 13.5
-3.7969689 -2.0982246 0.32189098 10
-3.5933959 -2.0969019 -0.0036431225 8
-3.472852 -0.79102939 0.25675505 10
-3.488276 -2.5091336 0.87182409 13
-3.2327714 -2.0461771 0.13880125 9
-3.3963189 -2.0674453 0.46325275 11
-3.2609308 4.6138754 0.60607952 10
-3.1431909 -2.4919088 0.22374646 9
-3.0748041 4.6117549 0.83514148 11
-3.2067661 5.3061695 1.182916 12
-3.0809736 5.299047 1.5485933 14
-3.0017738 4.5402575 0.24683569 8
-2.8223438 -2.3940611 0.41144761 11
-2.9073522 -2.4121027 0.88107204 14
-2.8673089 5.7537308 1.0994717 12
-2.7150218 1.7196901 0.50370216 12
-2.8053234 5.6613517 1.3946493 13
-2.4256985 -2.4542153 0.5532226 12
-2.3550906 -0.90362847 0.2217562 10
-2.3459368 -2.4483356 0.80279112 14
-2.3283803 5.7610936 1.63677 14
-2.1368139 5.5371871 0.60720474 10
-2.1151497 5.5319309 0.97944665 11
-1.965466 -2.437048 0.83709276 15
-1.697687 5.6017694 1.0144423 12
-1.5216726 -1.969488 0.088730209 9
-1.5890224 -1.697741 0.10820848 9
-1.456574 -2.3834605 0.28975943 10.5
-1.5959568 -1.8872452 0.22209431 10
-1.5761089 5.5438056 0.45307964 9
-1.5994079 -2.4113665 0.48439038 13
-1.5259085 5.5826039 0.61786336 10
-1.5613248 5.5569024 1.346777 13
-1.5579307 5.5485792 1.6173046 15
-1.4942253 5.8551817 1.6933401 14
-1.3064294 -2.3994632 0.077029496 8.5
-1.3174807 5.8584032 1.0051069 11
-1.0294238 -2.3867421 0.607584 14
-1.1556348 5.8835559 1.7202168 15
-0.89820081 -2.3103404 0.12565728 9
-0.89636385 -2.3047745 0.2526834 10.5
-0.8920787 -2.3021991 0.41215289 12.5
-0.92222172 -2.311331 0.65523827 15
-0.2926966 0.81762338 -0.21176556 0
-0.35448325 -2.3305809 0.088175043 8.5
-0.34305459 -2.2914796 0.23921376 10.5
-0.33344004 -2.2820864 0.43809322 13
-0.35114989 -2.2766364 0.59708309 15
0.65026349 0.13983801 -0.18743101 0
0.89573139 5.9487934 1.5986142 14
1.0195367 0.44108531 -0.18953158 2
1.1644304 -0.083872497 -0.16748799 3
1.0616612 5.9511003 1.8390554 15
1.2519906 -2.3254409 0.19146949 9
1.3866043 -2.2011883 0.21507987 10
1.532408 0.2937791 -0.16060956 4
1.6169697 -3.1780226 0.54966927 12
2.1186082 -1.1715728 -0.026092881 7
2.1649344 4.704453 0.48385963 9
2.1800263 4.4402866 0.71395832 10
2.0524325 6.0067215 0.68627125 9
2.1599677 4.856595 0.89268357 11
2.1732261 4.6664968 1.1128563 12
2.1582143 4.802103 1.5242583 14
2.124337 5.9484234 1.3973325 13
2.2636364 2.5472608 0.38850954 9.5
2.2284098 3.4471755 0.39996412 9
2.2607379 2.5457122 0.6174621 11
2.2407663 2.9570229 0.55617893 11
2.2361104 3.2294664 0.53542101 10
2.1998801 3.9827421 0.66480398 11
2.2639694 2.5599666 0.78005236 12.5
2.2574136 2.5480897 0.98882556 14.5
2.2332385 3.1268883 0.93915033 13
2.1836691 4.2529616 1.1464039 13
2.2157586 3.6232219 1.3774511 15
2.185087 4.3064346 1.4153938 15
2.4059455 -0.98115003 0.78884304 15
2.7203238 2.5455441 0.5576092 10.5
2.6361318 -11.473272 1.7379117 12
2.8212941 2.4986861 0.41346407 9
2.8836129 2.574208 0.98241919 13
5.0761271 2.5588078 0.3249073 8
5.0848594 2.492837 0.45825881 9
5.1511917 3.2478914 0.49673674 9
5.0735464 2.2999728 0.77052695 10
5.1600285 2.9350052 0.85930163 10
5.0889897 2.2859187 1.0970098 12
5.0613046 2.5411 0.96036524 11
5.1738844 3.2533567 1.2784332 12
5.0818739 2.3561327 1.4560324 14
5.1528378 2.9538512 1.3989959 13
5.0907764 2.306608 1.638123 15
5.1144867 -4.1955743 1.90158 15
5.1565752 2.8580196 1.9431241 15
5.3295865 -0.44921479 0.070449911 7
5.2083344 2.1661472 0.079686761 7
5.224288 -0.72462368 0.20504664 8
5.3437357 -0.47770736 0.35552183 9
5.3181005 -0.4660202 0.56876171 10
5.2897663 1.0656905 0.93780333 11
5.3733988 1.3911872 1.0163977 12
5.2147765 2.1058428 0.93476093 11
5.3598857 0.73728412 1.1913804 13
5.1970344 2.2356546 1.2715976 13
5.3496885 -0.27760342 1.3563615 13.5
5.2922416 0.33074105 1.322346 14
5.2860427 0.85495305 1.538528 14.5
5.2380686 1.3225334 1.6239411 15
5.5314822 -6.3991575 2.2616124 15
5.5211735 -9.2539988 2.5783288 14
