# .PCD v0.7 - Point Cloud Data file format
VERSION 0.7
FIELDS x y z intensity
SIZE 4 4 4 4
TYPE F F F F
COUNT 1 1 1 1
WIDTH 128
HEIGHT 1
VIEWPOINT 0 0 0 1 0 0 0
POINTS 128
DATA ascii
-0.31075993 -0.90132874 -0.20323347 166
-0.14693047 -0.91425467 -0.20699114 184.66667
-0.012206091 -0.94592577 -0.20551626 187.33333
0.13052794 -0.94790822 -0.20696433 194
0.25891373 -0.94159019 -0.20146033 193
0.38458315 -0.91229093 -0.20312946 195
-0.26147258 -0.84038615 -0.20712771 181
-0.11446274 -0.86031508 -0.20751253 194
-0.079531901 -0.79905915 -0.2025623 199.33333
0.032510739 -0.83985543 -0.20110829 196
0.15602621 -0.85059208 -0.2004156 198.8
0.27110526 -0.85229993 -0.19808538 197.8
0.38680696 -0.85488874 -0.20631686 198.5
0.49585646 -0.83289903 -0.19518211 199.25
-0.22084762 -0.78840297 -0.20636426 192
-0.17653424 -0.73163974 -0.2053875 198
-0.038677361 -0.72900391 -0.19948402 198
0.08021868 -0.72916234 -0.1994632 196.16667
0.18830745 -0.7330544 -0.1966835 195.39999
0.28624007 -0.74650198 -0.19601922 195.5
0.38686007 -0.75226647 -0.20124212 196.5
0.47926366 -0.71933562 -0.18589056 196
0.58118242 -0.73524588 -0.1838998 197.39999
0.67291588 -0.69826305 -0.17961848 199
-0.11212577 -0.64755881 -0.20038973 196.75
-0.036341608 -0.6500333 -0.20259717 195
0.020280676 -0.62901711 -0.19694462 194.5
0.12470949 -0.61564261 -0.18523678 192
0.26089889 -0.62858778 -0.18427494 191.72728
0.38245818 -0.63205284 -0.18304247 192
0.46196598 -0.61571109 -0.17157173 193
0.55899441 -0.65026051 -0.18191499 194.33333
0.65143979 -0.64249736 -0.18158861 196
0.7426756 -0.62163085 -0.17708825 197.25
-0.022045314 -0.52772802 -0.18834005 190.66667
0.06419488 -0.54971087 -0.18681341 190.14285
0.15564747 -0.54522282 -0.18589774 188.85715
0.24861708 -0.52637321 -0.17850661 187.39999
0.34690955 -0.52119499 -0.17844343 187.29411
0.4543204 -0.54554331 -0.17300373 188.83333
0.56109345 -0.54250413 -0.17330229 191
0.66853029 -0.52818739 -0.16805424 193.8
0.76972175 -0.53886968 -0.17792587 195.5
0.81325585 -0.56237304 -0.17463249 197
0.053927712 -0.44909364 -0.1912535 185.71428
0.15450013 -0.46156031 -0.19819163 183.80952
0.25300926 -0.44168937 -0.19488312 181.42857
0.36341187 -0.45379069 -0.1951583 182.05556
0.46372586 -0.45404404 -0.18456547 183.93333
0.54048818 -0.43835202 -0.17894265 185.14285
0.64720988 -0.43157196 -0.166115 188.89999
0.73838007 -0.43361491 -0.16284676 192.42857
0.85179001 -0.44292793 -0.17416625 194.75
0.093671687 -0.38416511 -0.19650771 181
0.15132532 -0.35273588 -0.19245423 178.44444
0.26288515 -0.37366244 -0.19226167 177.2
0.36420438 -0.36991951 -0.18880188 177.125
0.45884389 -0.35070017 -0.18333441 178
0.55115187 -0.33086303 -0.1791503 180.25
0.65962154 -0.33931646 -0.17249292 185.10001
0.76272053 -0.34674081 -0.16548604 189.60001
0.84054971 -0.34312287 -0.16109569 193.2
0.91529638 -0.31954321 -0.17157182 195
0.20527828 -0.24403128 -0.20164904 171
0.2638258 -0.22467282 -0.19429238 168.94595
0.34773085 -0.22245327 -0.19197692 169.40625
0.42191914 -0.21655828 -0.19132036 170.5
0.57097757 -0.25135496 -0.17923319 177.69565
0.63913125 -0.23553923 -0.17487501 180.42857
0.73913658 -0.24392943 -0.16546535 186.27777
0.83775514 -0.2739372 -0.1632987 191.39999
0.26841521 -0.18107702 -0.19241886 168.0625
0.33662421 -0.18094133 -0.1928971 167.55556
0.41778815 -0.1807109 -0.1921926 169
0.63694334 -0.16387267 -0.17528297 177.92308
0.23636782 0.20129329 -0.091823161 149
0.38436857 0.1608445 -0.086077191 133
0.44439426 0.14684793 -0.10040928 134.5
0.51737577 0.19698407 -0.144471 157
-0.11626294 0.29016042 -0.18177143 178.33333
0.062727414 0.26765314 -0.14705321 163.5
0.15803935 0.27038613 -0.1401774 165.5
0.26493493 0.26293987 -0.1597237 151.75
0.35015449 0.26763329 -0.13388185 153.2
0.45408839 0.2481719 -0.13283925 155.8
0.53163499 0.24064568 -0.16160281 168
-0.31062308 0.40080264 -0.19159473 177.66667
-0.23277052 0.35533714 -0.18308192 179
-0.17672604 0.32477325 -0.18559076 175.25
0.066528514 0.32722047 -0.14550251 167
0.14383999 0.35937241 -0.16333574 179.33333
0.24913225 0.35864425 -0.15261315 178.16667
0.34733278 0.35356817 -0.1469152 176.33333
0.45061406 0.33246288 -0.15822142 173
0.59516734 0.39255568 -0.16352969 182.33333
0.64075255 0.36061242 -0.16154283 182.2
-0.42557046 0.46524656 -0.19342929 171
-0.33129245 0.41028392 -0.18352285 178
-0.26221943 0.47453168 -0.14584011 160
-0.011677662 0.4996081 -0.18129219 180
0.054625362 0.45998693 -0.17780396 183.75
0.16674381 0.4959276 -0.17222168 185.66667
0.49415392 0.46012738 -0.16431108 184
0.56886435 0.42884824 -0.16144402 183.66667
0.60615104 0.41659635 -0.15788209 184
-0.6367175 0.58355254 -0.19640164 145
-0.53936875 0.52947384 -0.19691132 157
-0.34908271 0.54654199 -0.17308095 167.5
-0.034825936 0.52508408 -0.1756596 175
0.041765578 0.56445688 -0.17402352 179.5
0.2369177 0.50807089 -0.17196852 184
-0.69008303 0.61299294 -0.19528854 135
-0.5269531 0.68085152 -0.1866644 148
-0.45871139 0.63173038 -0.18918858 159
-0.10868827 0.61703879 -0.17969605 178
-0.60891986 0.74217868 -0.19108514 142
0.14273816 0.17276429 -0.053026579 128.54546
0.25380802 0.1754863 -0.049546346 122.16
0.33667243 0.17751977 -0.050516732 123.45
0.41703117 0.14329767 -0.058827739 126.14286
0.091106117 0.25108638 -0.077792734 147
0.12435924 0.20348735 -0.03578791 134
0.25450045 0.21802436 -0.054931343 159
0.34083515 0.21103236 -0.054729525 140.66667
-0.078757346 0.31383649 -0.060712598 139
0.13571513 0.19630209 0.073705509 126
0.077339038 0.29163283 0.023803372 160
0.12514533 0.21404158 0.063683756 146.25
