# .PCD v0.7 - Point Cloud Data file format
VERSION 0.7
FIELDS x y z intensity
SIZE 4 4 4 4
TYPE F F F F
COUNT 1 1 1 1
WIDTH 76
HEIGHT 1
VIEWPOINT 0 0 0 1 0 0 0
POINTS 76
DATA ascii
0.55143243 -0.42163974 -0.19539309 173.85715
0.65050155 -0.44391796 -0.19301985 159.33333
0.74625158 -0.40899968 -0.19379373 172.5
0.56172454 -0.36629939 -0.19547465 161.83333
0.64389795 -0.34118789 -0.18966773 158.5
0.74591357 -0.34450552 -0.19072671 167.5
0.8225913 -0.34060103 -0.1919761 167
0.91570312 -0.36033222 -0.19585468 165.5
0.59412158 -0.23735125 -0.19880934 154.5
0.66665405 -0.25453573 -0.19331011 154
0.74021035 -0.24399856 -0.18475597 158.8
0.83249307 -0.25129101 -0.18728909 163.14285
0.93184155 -0.27981904 -0.19782497 164.66667
0.69258016 -0.15920019 -0.19547325 151
0.73068482 -0.17953272 -0.18648219 154.5
0.090850636 0.19719167 -0.11636017 164
0.17668281 0.17782658 -0.13482097 133.42308
-0.11093754 0.26665089 -0.14767754 192
0.079886399 0.23817737 -0.141343 177.5
0.13539104 0.21415348 -0.12303477 154
0.20419723 0.21342482 -0.1907279 141
0.55548054 0.264431 -0.19751827 176.2
-0.22816683 0.33857146 -0.19702682 195
-0.14031722 0.37056229 -0.13332322 198
-0.030579099 0.38869682 -0.19571605 188.33333
0.050383404 0.30765906 -0.17803797 182
0.36900198 0.37543941 -0.19853814 179.25
0.45165616 0.34761754 -0.1973545 179.33333
0.55496621 0.35856348 -0.19489908 180.22223
0.63846499 0.36638188 -0.18552117 183.375
-0.22180773 0.43502396 -0.15854391 196.5
-0.14266722 0.45236671 -0.18399151 195.66667
-0.05486292 0.41226023 -0.19778284 189.5
0.057184123 0.45044786 -0.19587636 189.5
0.15668851 0.48776072 -0.19153379 188.75
0.25222963 0.49432066 -0.19620661 188
0.36288643 0.49395299 -0.19309463 187.66667
0.46197376 0.47176325 -0.18950103 186
0.55462354 0.43543351 -0.1855638 184.39999
0.65428597 0.4529576 -0.18687259 187.81818
0.70864666 0.46941647 -0.17836019 190.5
-0.046400245 0.52214861 -0.19916119 193.5
0.12212419 0.56406426 -0.19284603 192.66667
0.25569034 0.53218174 -0.18964191 189.84616
0.35983986 0.55038095 -0.18981066 190.28572
0.4419578 0.54413033 -0.18915194 189.71428
0.54683346 0.54662132 -0.1876684 189.23077
0.66663498 0.54347187 -0.187759 191.39999
0.77398306 0.55778819 -0.19121815 192.60001
0.097595759 0.62125665 -0.19913176 195
0.19122601 0.61518186 -0.19382958 194
0.27408162 0.62822425 -0.19201154 193.75
0.35616279 0.63459063 -0.18807888 193.8
0.4400177 0.63028789 -0.188235 194.60001
0.53006357 0.64682287 -0.19317497 191.33333
0.62707943 0.6611706 -0.19238226 188.8
0.71242976 0.6286881 -0.19201389 191.75
0.25334638 0.75798714 -0.1970083 200
0.353993 0.75939596 -0.19777195 198.5
0.45199767 0.73896754 -0.19483119 198.66667
0.55007643 0.73665625 -0.19131218 185
0.65537769 0.73552912 -0.19536464 183
0.46457067 0.86673725 -0.19681691 204
0.56725276 0.81067961 -0.19231099 174
0.34903884 0.90186024 -0.19938956 203
-0.0096676871 0.19713153 -0.045495816 166
0.080548622 0.19156541 -0.058518343 140.05882
0.12675755 0.18326363 -0.081173129 132.28572
-0.025561659 0.26989973 -0.040646177 180
0.039228827 0.22149828 -0.037070435 152
-0.10093243 0.33303103 -0.084268078 191
-0.068269402 0.31132355 -0.098037019 189
-0.015523555 0.19308545 0.013504696 136
0.023380568 0.18540388 0.021134028 129.33333
-0.038649332 0.2064718 0.010199885 143
0.035253864 0.21595907 0.011875157 151.16667
