# .PCD v0.7 - Point Cloud Data file format
VERSION 0.7
FIELDS x y z intensity
SIZE 4 4 4 4
TYPE F F F F
COUNT 1 1 1 1
WIDTH 134
HEIGHT 1
VIEWPOINT 0 0 0 1 0 0 0
POINTS 134
DATA ascii
-7.1507792 4.5546017 1.3471737 12
-6.6843147 -1.4139273 1.1385894 12
-6.7072053 -1.9797995 1.4453425 13
-6.7039933 -2.291033 2.0553312 15
-6.6427794 -1.2223222 1.9387983 15
-6.6190438 -0.64525741 1.8989757 15
-6.5998583 3.0218194 1.916415 14
-6.7026486 4.2344313 1.9440241 14
-6.5069671 4.3807878 0.1608143 8
-6.4210901 2.3902798 0.43716744 9
-6.4156108 3.5954309 0.50344205 9
-6.4721303 4.4877262 0.42621899 9
-6.4835711 3.3065386 0.79943973 10
-6.4327998 4.9764538 2.0639834 14
-6.4604297 3.7612915 2.265429 15
-6.397162 2.9935827 0.28054374 8
-6.3506393 2.4129441 1.3701054 13
-6.2827859 1.5429982 1.7848815 15
-6.3046074 1.8996528 1.6651971 14
-6.1779833 5.0050821 1.6025275 13
-5.2096982 4.3819146 0.19524963 8
-5.0286107 4.4665976 0.49638438 9
-5.0419908 4.8408298 0.72983712 10
-5.0899439 4.4684472 0.88244772 11
-5.1190534 5.0518985 1.7333212 14
-4.8664417 -2.4238474 0.82709986 11
-4.8942971 -2.514982 0.9931376 12
-4.951057 -2.7412961 1.7519825 15
-4.7040429 4.6609316 0.2875908 8
-4.5242696 -2.6945617 0.85160345 11
-3.8078012 -1.8501056 0.33595207 9
-3.8066392 -2.6314404 0.79538608 12
-3.9169655 5.3354344 1.3071151 13
-3.947067 -2.6505463 1.4573877 15
-3.8101716 5.3351531 1.7108974 14
-3.6414523 -2.0145135 0.096899487 7
-3.6573822 -1.9180113 0.10687343 8
-3.7874682 5.4762216 0.65487003 10
-3.7028804 5.6774163 1.1730778 12
-3.4617703 -2.4978073 0.19619629 8
-3.5691569 -2.4815946 0.28531045 9
-3.4429903 5.6964393 1.734967 14
-3.2667797 5.6778369 1.7648634 15
-2.8476503 -2.4663665 0.6453315 12
-2.804261 -2.4622483 1.135587 15
-2.8977754 5.709403 1.3301204 13
-2.7114391 -2.4485283 0.53066957 11
-2.7650347 5.7411456 1.0026966 12
-2.4553516 -4.5432363 0.11381812 6
-2.517123 -2.4582171 0.1417979 8
-2.4813676 -2.3729076 0.25078857 9
-2.5780122 5.7940211 0.28178343 8
-2.5064099 5.791019 0.51341677 10
-2.4918118 5.7348037 1.4680461 14
-2.3512194 -2.6505647 0.56177801 11
-2.2832415 -2.5165493 0.70270073 12.5
-2.3128197 -2.5020602 0.98077971 14.5
-2.0059834 5.8197551 1.5859624 14
-1.955657 5.8221998 0.33097422 9
-1.3270721 5.8271556 1.4261206 14
-0.84045774 5.9055271 1.5131001 14
-0.61471218 -2.2170558 0.19405767 8
-0.35378143 0.73156357 -0.21834213 0
-0.32282439 -3.2251706 0.32403365 10
-0.20620835 -3.3626766 0.84714115 14
-0.044710521 5.9499402 0.46097052 9
0.098581396 2.478549 0.36683509 11
0.15240033 2.4777615 0.48512346 12.5
0.050738234 5.9747987 0.52550447 10
0.45644739 2.495687 0.34616563 11
0.58475822 2.1473134 0.39157706 12
0.50177765 2.4968672 0.49022847 13
0.45696411 2.4939227 0.71026123 15
0.73815906 0.15269341 -0.20787534 0
0.77223778 2.1456559 0.31562507 11
0.7592063 2.2686884 0.52782428 13.5
0.63062704 2.3030553 0.6613965 15
0.82077467 -0.9944908 0.25643745 13
1.054005 2.5224984 0.49701488 12.5
1.0280529 2.5355232 0.72106427 15
1.5511822 -2.1014593 0.17097835 9
1.5256637 -2.1002388 0.2407302 10
1.5915886 -1.0652547 0.22703835 10
1.4480309 -1.9425048 0.58307815 14
1.7283338 -1.1790904 0.028884307 7
1.6930554 -1.2458539 0.39591274 12
1.6050234 -1.0693252 0.28988692 11
2.0917833 -0.90766543 0.32536307 11.5
2.3929896 5.6719928 0.40979767 9
2.5272152 -0.27439025 0.16776232 9
2.5081513 -0.11909819 0.73686504 15
2.4906776 5.6545053 0.65370792 10
2.7579086 5.2082953 0.25340301 9
2.8831534 2.2468374 0.29583058 9.5
2.8840868 2.6133206 0.28527853 9
2.9371176 3.3003106 0.28782621 9
2.8683958 2.6493676 0.47461531 11
2.9692726 3.2230866 0.45501623 10
2.8711772 2.5218685 0.58804059 12
2.9592493 3.3400421 0.5960657 11
2.9995823 2.272424 0.79152167 13
2.8752522 2.5333419 0.88819003 14
2.8716936 2.6874068 0.80694675 13
2.8876607 3.6489494 1.0167874 13.5
3.0435815 -0.87125945 0.075828254 8
3.1149342 -0.54777312 0.053405121 7.5
3.0892034 0.87431157 0.01652508 7
3.0284598 -0.94908321 0.27548054 9.5
3.1679106 -0.59602451 0.26698777 10
3.141556 -0.092152618 0.35914913 11
3.0193763 1.8626478 0.32859892 10
3.0938032 5.5229321 0.23620568 8
3.0499578 -0.63920838 0.41892248 11
3.1194069 0.64391285 0.48045525 12
3.0222132 2.214412 0.44871056 11
3.1236868 -0.60502231 0.66881895 13
3.1620495 0.29701731 0.71883762 14
3.1530693 0.88103324 0.72027808 13.5
3.090632 1.1856467 0.65639961 13
3.1613514 1.3933209 0.75981152 14
3.066906 1.5204175 0.69527918 13
3.0392702 2.145823 0.60188228 12
3.1973586 -0.80140591 0.91085827 15
3.1476262 0.69511235 0.94592834 15
3.1823897 1.0552821 0.91078222 15
3.0181091 2.2084789 0.86771762 14
3.1137581 2.1604099 1.1061847 15
3.0270991 3.0487638 1.153513 15
3.3087296 -3.130409 -0.042609308 7
3.2939329 -3.1570654 0.13160762 8
3.2535303 -0.00037814016 0.49953827 12
3.2247918 0.38795522 0.53643495 12
3.2478194 -0.3730925 0.61458462 12.5
3.2132087 0.56820256 0.74098003 14
