# .PCD v0.7 - Point Cloud Data file format
VERSION 0.7
FIELDS x y z intensity
SIZE 4 4 4 4
TYPE F F F F
COUNT 1 1 1 1
WIDTH 11
HEIGHT 1
VIEWPOINT 0 0 0 1 0 0 0
POINTS 11
DATA ascii
-0.17671739 0.71044892 -0.21495958 0
-0.10647818 1.1213491 -0.20510758 1
0.068120807 0.72086138 -0.19656754 0
0.6608997 0.10952843 -0.18999955 0
1.0790162 -1.0719497 -0.087792829 5.5
1.2959156 0.013330289 -0.18666454 3
1.259302 -0.31936726 -0.17820965 3
1.5811324 -0.12814209 -0.1633838 4
2.3505135 -0.45889664 -0.085298598 6
2.3468759 0.035243873 0.0049174605 7
2.3474896 0.043594271 0.32884353 11
