# .PCD v0.7 - Point Cloud Data file format
VERSION 0.7
FIELDS x y z intensity
SIZE 4 4 4 4
TYPE F F F F
COUNT 1 1 1 1
WIDTH 82
HEIGHT 1
VIEWPOINT 0 0 0 1 0 0 0
POINTS 82
DATA ascii
-0.57590014 -1.3461264 -0.21096183 3
-0.46382821 -0.91411334 -0.22635844 1
-0.45722017 -0.61375993 -0.20963897 0
-0.30701387 -1.3049475 -0.2070255 2.5
-0.2171852 -0.98310983 -0.21389389 1.2222222
-0.18598966 -0.72746694 -0.18037698 1.3333334
-0.036488701 1.1117406 -0.18288496 2.5
-0.12765649 1.3461831 -0.17553042 3.5
-0.14885178 1.8252696 -0.16653112 4.1999998
-0.13915312 2.2294717 -0.16324235 5
-0.21051235 2.5375397 -0.16350418 5
0.2114961 -1.4106712 -0.16011535 3.8181818
0.17713334 -0.98717171 -0.21414004 1.1111112
0.21161062 -0.68115228 -0.18283601 0.80000001
0.18456364 0.69249159 -0.19546033 0
0.20746678 0.98800236 -0.19031195 1.6363636
0.17801341 1.3759197 -0.17150684 3.5999999
0.20909604 1.8251222 -0.16266504 4.3333335
0.17503554 2.1821673 -0.15961406 5
0.13811636 2.5719633 -0.15706897 5
0.097052537 3.0285542 -0.16067447 5
0.37006962 -1.4139754 0.035968848 7.5
0.46417317 -1.3070385 -0.1411507 4
0.64008522 -1.0439793 -0.15979937 3.0769231
0.57728219 -0.61023587 -0.20112006 0.5
0.57737178 -0.39595097 -0.19965038 0
0.70076835 0.24477415 -0.19209683 0.2857143
0.59494686 0.61440277 -0.19624977 0.53846157
0.56385171 0.95042586 -0.19256899 2
0.54497409 1.370007 -0.17021899 3.6666667
0.56894845 1.7710314 -0.15925293 4.5
0.61625481 2.2194693 -0.15624551 5
0.58609653 2.5510621 -0.13044368 5.6666665
0.54206377 -1.2859972 0.034725189 7.5
0.73626369 -1.054121 0.044891685 7.75
0.82075906 -0.94099343 -0.1503839 3.5
0.9183042 0.27089518 -0.1942801 1.1666666
1.0155562 0.62118876 -0.20041952 2.1111112
0.97742182 0.99158037 -0.18633045 3.1428571
0.96425724 1.4033103 -0.16755551 4
1.0142381 1.7855164 -0.16150342 5
1.0757283 2.1705127 -0.16655588 5
0.97877878 2.4985588 -0.11698057 5.5
1.2782538 0.32072222 -0.1997371 2.5
1.369725 0.63162446 -0.18904981 3.4000001
1.4232516 0.99113423 -0.17629491 4
1.378433 1.3325964 -0.16439958 4.5
1.3356752 1.8056052 -0.1655539 5
1.4139591 2.1721835 -0.17388749 5
1.5670017 2.504282 -0.16034538 5
1.7784348 0.60760051 -0.17710388 4
1.9098697 0.95524937 -0.17504475 4.6666665
1.7875046 1.3673412 -0.17571971 5
1.8070484 1.8189987 -0.16942027 5
1.7756542 2.1495302 -0.16228692 5
1.6589044 2.7459729 -0.092602357 6.5
2.2251375 0.67304993 -0.15582864 5.3333335
2.0613232 1.1501707 -0.17987821 5
2.3661041 1.3596389 -0.18019433 5
2.3001196 1.7181973 -0.17870146 5
2.2514918 2.1762195 -0.16756302 5
2.0707424 2.6070602 -0.15629295 6
2.2427573 2.8759236 -0.14867839 6
2.389751 0.75873369 0.018999515 7
2.4471202 1.0633906 -0.17570952 5
2.5751998 2.241966 -0.1687741 5.5
2.4221611 0.78417981 0.11193635 8.5
2.7045603 3.7360499 0.13611902 8
3.1473 1.4258424 -0.17197432 5
3.0643065 1.8401579 -0.17832428 5
3.0502131 2.3917773 -0.17883503 6
2.8506997 3.8456924 -0.084434062 6.5
3.3427038 1.5399086 -0.10417499 6.5
3.3656533 2.0487432 -0.17272028 6
3.5042303 1.6770152 0.17293069 8.5
3.787673 3.9592493 -0.1809344 6
3.834821 4.0051823 -0.20327722 6
3.7262392 4.0655065 0.2623845 8.5
4.2773347 3.5068877 -0.13735881 6.5
4.195148 3.5526171 0.24197417 8.5
4.7217951 2.9899135 -0.13757713 6.3333335
4.6612563 3.0299022 0.19179802 8
