# .PCD v0.7 - Point Cloud Data file format
VERSION 0.7
FIELDS x y z intensity
SIZE 4 4 4 4
TYPE F F F F
COUNT 1 1 1 1
WIDTH 137
HEIGHT 1
VIEWPOINT 0 0 0 1 0 0 0
POINTS 137
DATA ascii
-0.246015 -0.94442439 -0.19202356 186
-0.10307718 -0.98134702 -0.19344735 194
-0.082878299 -0.9392904 -0.19086638 197
0.044489812 -0.98707235 -0.19403821 197
0.19006003 -0.95146865 -0.19664985 200
0.31308746 -0.92129791 -0.19078274 204
-0.54359883 -0.82999986 -0.19395788 158.5
-0.36075297 -0.85738546 -0.19471362 182.75
-0.20230551 -0.87941712 -0.19214959 195
-0.031943463 -0.83782971 -0.19126973 202.5
0.086481996 -0.86686438 -0.19453529 201.25
0.15335287 -0.84930915 -0.19150634 201
0.21217093 -0.84183294 -0.19439894 199.66667
0.31908619 -0.86151409 -0.19466701 200.75
0.43275854 -0.86478144 -0.19233987 201
0.5361852 -0.82031524 -0.18796293 201
-0.43946642 -0.73721576 -0.1930718 180.33333
-0.24347875 -0.72315985 -0.19393551 203.5
-0.1389423 -0.78523988 -0.19244526 203
-0.050494123 -0.7572701 -0.19813374 200.5
0.023835866 -0.72772276 -0.1932276 198.5
0.13206032 -0.7345705 -0.19317006 197.60001
0.23317705 -0.73854572 -0.19283397 196.8
0.32640266 -0.75769436 -0.19191496 198.25
0.42505816 -0.74954075 -0.18780348 198
0.52071595 -0.74124736 -0.18542163 198.60001
0.6183455 -0.73377919 -0.18505555 199
-0.34333584 -0.65224797 -0.19445142 200
-0.16038851 -0.62879062 -0.19524212 198.5
-0.062637463 -0.67228377 -0.19370815 198.33333
0.061470896 -0.65171069 -0.1919674 194.25
0.1669732 -0.62557483 -0.18406579 193
0.25213209 -0.62543124 -0.17877463 193.25
0.3309015 -0.6355952 -0.17610413 193.60001
0.42674991 -0.62965512 -0.17785451 193.28572
0.54744196 -0.65357029 -0.18506192 195
0.60689986 -0.69209826 -0.19103079 196.5
-0.63675064 -0.53654754 -0.19933358 160.33333
-0.23533762 -0.55625415 -0.19422993 199
-0.17711982 -0.50520784 -0.19636919 195
-0.058034491 -0.53510314 -0.18509853 193.39999
0.045075428 -0.55729735 -0.18620975 191.66667
0.15336272 -0.54548538 -0.18248762 189.875
0.25902802 -0.52950358 -0.17772192 188.27272
0.3391467 -0.53795016 -0.17782071 188.77777
0.45045733 -0.55129468 -0.17746009 190.76923
0.55846846 -0.55325902 -0.17909595 192.14285
-0.71233141 -0.41534054 -0.19866236 152
-0.53711206 -0.48256874 -0.18786894 163
-0.49153817 -0.4577114 -0.18175054 156
-0.21792866 -0.41526526 -0.17309266 195
-0.12125254 -0.45310777 -0.18834457 191.5
-0.035356905 -0.46324232 -0.18642595 189.66667
0.046877276 -0.4424935 -0.18640335 187.07143
0.14899905 -0.47390532 -0.18763012 185.57143
0.25013915 -0.4648042 -0.18982932 184
0.34994984 -0.45408836 -0.19092107 182.83333
0.44175518 -0.46972835 -0.18483455 185.06667
0.5262987 -0.4518179 -0.18051134 186.22223
-0.51202363 -0.34020084 -0.19672461 188
-0.41438264 -0.3036049 -0.19591871 198
-0.15099144 -0.36833209 -0.16979447 191.5
-0.044258177 -0.36441857 -0.17103817 187.33333
0.056446217 -0.34549436 -0.16361484 182.75
0.16373308 -0.37299046 -0.18286115 180.88889
0.23846292 -0.37363544 -0.19012569 178
0.33290109 -0.37857813 -0.18984853 177.84616
0.44885519 -0.35520047 -0.18906772 178.52
0.50275016 -0.37020057 -0.18914561 181
-0.538513 -0.22808293 -0.19439149 183
-0.42740679 -0.25377929 -0.19973089 197
-0.30807126 -0.26304856 -0.19020526 195
-0.24930865 -0.24121596 -0.19097015 191.42857
-0.16955017 -0.21108331 -0.18865442 187.2
-0.032142676 -0.23061238 -0.18210879 181.33333
0.021044582 -0.25501478 -0.1912404 178.5
0.16992837 -0.24163537 -0.16544721 172
0.24957815 -0.2305842 -0.18938819 168.42857
0.33819577 -0.22515628 -0.19742694 170.57895
-0.32768211 -0.17672573 -0.19102865 194.5
-0.25421724 -0.15901004 -0.19146653 190
-0.18556486 -0.14249982 -0.19229852 186.66667
-0.066984855 -0.15109025 -0.19753154 180.875
0.046136536 -0.19163817 -0.12415905 177
0.1658117 -0.15673441 -0.19111024 168.3125
0.25705364 -0.1879359 -0.19094284 166.375
0.33643818 -0.18408726 -0.19829133 168
0.090240061 -0.076244652 -0.19880065 169
0.12220171 -0.084944762 -0.19741294 168
0.48411003 0.034285929 -0.19874837 168
0.66913509 0.079013646 -0.1885231 174
0.72702402 0.095324293 -0.18995766 173.66667
0.6477161 0.14582247 -0.19171663 173.24138
0.75193763 0.14770135 -0.18044722 176.33333
0.84853464 0.15089646 -0.16932894 184.8
0.94320625 0.15894805 -0.1752035 190
0.56046593 0.26558924 -0.19434594 173.52942
0.64668936 0.24733903 -0.19306876 174.85001
0.73692489 0.24092282 -0.17654456 180.3125
0.8554576 0.24574097 -0.17536126 188
0.93157208 0.22987184 -0.17968625 189
0.37495843 0.36680633 -0.19869773 177.25
0.45847157 0.34289169 -0.1972506 175.72728
0.53009033 0.31898281 -0.19683483 175.8
0.64780325 0.35239801 -0.1849277 182.6842
0.75839955 0.35204318 -0.18356837 186.55556
0.82897639 0.33426869 -0.18357822 188.83333
0.93698943 0.3145175 -0.19115822 190
0.23762468 0.49378985 -0.19609614 184.5
0.33764181 0.49318865 -0.19582625 185
0.43252245 0.48360738 -0.19267204 185.625
0.5466243 0.43689448 -0.18989396 185.16667
0.66557735 0.45851514 -0.19058697 188.28572
0.72939378 0.42847782 -0.18887685 189.2
0.87848145 0.47545195 -0.19228299 190
0.18681537 0.53625757 -0.19410425 186
0.26529634 0.52003801 -0.1944775 185.33333
0.33516553 0.51362729 -0.19444372 185.66667
0.44902396 0.56145644 -0.19635007 188.39999
0.55445588 0.55919331 -0.19747175 190
0.62171221 0.52634907 -0.19415867 190
0.82329828 0.54222435 -0.19762786 191
0.1564955 0.62043053 -0.19697767 185.5
0.24370725 0.61564887 -0.19644037 188.66667
0.32540146 0.61515087 -0.19552614 190
0.43400788 0.61686313 -0.19756402 190.66667
0.081465334 0.82237852 -0.19697094 166
0.18828873 0.85595167 -0.19804816 172
0.30285734 0.85139072 -0.19888206 171
-0.082250215 -0.25538898 -0.051570136 173
0.040860403 -0.22913571 -0.065426014 181.33333
0.15564236 -0.21821707 -0.067726597 177
0.2267549 -0.20890126 -0.078243442 153.5
0.062901817 -0.14727288 -0.052432921 136.1875
0.17033209 -0.16803935 -0.051641788 128.80952
0.23319326 -0.17417063 -0.065916836 123.30769
0.056707039 -0.16411576 0.023296267 124.25
