# .PCD v0.7 - Point Cloud Data file format
VERSION 0.7
FIELDS x y z intensity
SIZE 4 4 4 4
TYPE F F F F
COUNT 1 1 1 1
WIDTH 92
HEIGHT 1
VIEWPOINT 0 0 0 1 0 0 0
POINTS 92
DATA ascii
-4.6176167 4.677422 1.4135722 13
-4.4911771 5.2827482 0.2618365 8
-4.456111 4.872251 0.41681606 9
-4.5624971 5.8672667 0.42597201 9
-4.5002332 4.6741295 0.75651288 10
-4.5672727 4.6793466 0.82156986 11
-4.5552459 5.8102365 0.89048922 10.5
-4.5641046 6.8585176 0.81748414 10
-4.4185476 4.8899708 1.1552713 12
-4.597414 7.2845354 1.068284 11
-4.471035 5.4346728 1.6329045 14
-4.4996872 6.7167764 1.9094028 14
-4.5777659 7.0491724 1.8255601 13
-3.7397363 9.0816364 2.155757 13
-3.3078191 -0.77994496 0.20005344 9
-3.268343 8.9787226 1.549322 12
-3.1112177 -0.87921131 0.94865823 15
-3.1812177 1.8320308 0.88380843 14
-2.8047495 -0.94674802 0.19027764 9
-2.8438945 -0.90610987 0.41272351 11
-2.9789224 8.9726334 0.83259004 10
-2.7769232 -0.94199038 0.48498267 12
-2.7569914 -1.0164295 0.65127617 13
-2.485163 8.9637156 1.2507943 11
-2.2207272 -1.0148388 0.19748741 9
-2.2697682 -1.0164093 0.26878619 10
-2.3283496 8.9722042 1.5651561 12
-2.3455751 8.9937763 1.9374089 13
-2.0858669 -0.99693334 0.42534286 12
-1.9389241 -0.99002284 0.51892203 14
-1.6727736 -0.99004334 0.26120701 11
-1.5767188 -1.0115633 0.18110496 10
-1.5158188 -0.98315668 0.33414012 12.5
-1.3605016 9.0719013 1.7610198 12
-1.079758 -0.94577849 0.20542221 11
-1.0435879 9.0724134 1.9083096 13
-0.98900372 9.0679922 0.90962338 10
-0.63876247 -0.95646036 0.22048655 12
-0.45011804 -0.6634441 -0.20149477 0
-0.44992957 9.1012917 0.76082754 9
-0.24029772 0.80018598 -0.21362673 0
-0.099770896 -0.94499874 0.22769819 13.5
0.010177487 -0.83950502 0.24702808 15
0.13413899 1.5887296 0.43319955 15
0.004998982 8.4454746 1.3145242 11
0.31322128 1.4005594 0.41563645 15
0.53919178 -0.90496212 0.26560566 14
0.60317004 -0.90217948 0.30122933 15
0.61638921 1.0369149 0.36690328 15
0.945225 -0.89515752 0.20254236 11
0.89339072 1.0527164 0.35384911 14
1.1115183 -0.24870838 -0.19592127 2
1.1424946 0.20416372 -0.1915428 2
1.0513033 -1.0649159 0.10485724 9
1.0421492 -0.87823427 0.32147634 14
1.1923996 1.0526414 0.33889186 13
1.2451856 -1.0304923 0.10509013 9
1.3832253 -0.87520373 0.18906827 10
1.3291671 -0.86931109 0.28476691 12
1.261422 1.050029 0.30235294 12
1.3453603 1.0537322 0.40558389 14
1.483457 1.0591297 0.23608424 11
1.4448307 1.0602356 0.4522514 14
1.6904268 1.0661106 0.28337076 11
1.8648151 0.041713722 -0.17271703 4
1.9433894 1.0747708 0.34196419 11
1.8228089 1.0807003 0.47607487 13.5
1.8532339 1.0693307 0.6122092 15
2.0704806 1.0777344 0.18425196 9
2.1923413 1.0891989 0.41535252 12
2.3674412 1.0919912 0.24253683 10
2.674365 1.1046649 0.36409268 11
2.6502023 1.0942366 0.6508947 13
2.9246204 -0.74384809 0.28329691 9.5
2.9094293 1.1092309 0.25195786 9
2.9500527 -0.76448876 0.41277045 11
2.9617968 -0.73340142 0.83151221 15
3.3264971 -1.4062132 0.072681606 8
3.4461658 -0.66568935 0.15501082 8
3.5997148 0.088688821 0.033575021 7
3.4759524 -0.59545583 0.47473729 11
3.4407499 -0.23837945 0.58728594 12
3.4957736 -0.18485597 0.51117688 11
3.459435 0.56938744 0.59608436 12
3.4103146 0.93488628 0.56359053 12
3.4446981 -0.24232496 0.67847174 13
3.4032083 0.93517125 0.74492556 13
3.4817011 -0.59062797 0.90239549 14
3.5105033 -0.024657305 0.86994892 14
3.4633842 0.15097074 0.958592 15
3.4491651 0.74169493 0.94623089 15
3.4575918 -0.5057261 1.0334926 15
