# .PCD v0.7 - Point Cloud Data file format
VERSION 0.7
FIELDS x y z intensity
SIZE 4 4 4 4
TYPE F F F F
COUNT 1 1 1 1
WIDTH 103
HEIGHT 1
VIEWPOINT 0 0 0 1 0 0 0
POINTS 103
DATA ascii
-5.7996564 6.5339479 0.55213135 9
-5.8023601 4.4129233 0.5980249 10
-5.799511 6.2929978 0.76970249 10
-5.7557478 7.3709855 0.82114065 10
-5.7938037 6.3652787 1.0545164 11
-5.6306663 4.7533598 0.15172996 8
-5.6101556 4.486331 0.49418557 9
-5.6334648 4.4460502 1.0492524 11
-5.572207 4.6623483 1.1050507 12
-5.5747132 4.6211238 1.5362166 13
-4.0631099 -0.96526349 0.64242917 12
-4.1088924 0.89004672 1.2480166 15
-3.695168 -1.187044 0.40807506 10
-3.7127113 -1.1522394 0.84686852 13.5
-3.6381299 -1.1742885 1.0123384 15
-2.8205323 -1.1455635 0.11785839 8
-2.6963634 -1.1235348 0.22599623 9
-2.4420376 -1.1034561 0.62374139 14
-2.1935282 -1.0944489 0.38145235 12
-2.0425196 -1.0730714 0.67098546 15
-1.9142382 -1.0819072 0.16998652 9
-1.9346203 -1.0765061 0.22391608 10
-1.5194625 -1.0540478 0.17962563 10
-1.4933119 -1.0457343 0.30367818 12
-1.4835917 -1.0387639 0.4959746 15
-1.1998692 -1.0386754 0.22963376 11
-1.0837057 -1.0232824 0.26741439 12.5
-1.0192889 1.2328727 0.36518812 14
-0.86183512 -0.88490778 0.30660829 14.5
-0.91690826 1.3200183 0.37533075 14
-0.92120749 1.2814792 0.46028513 15
-0.42578396 -0.83994853 0.25660306 14.5
-0.46828467 0.97510189 0.31386137 15
-0.1356757 -0.88406473 -0.20589249 1
-0.18392444 0.68538511 -0.20436908 0
-0.11109003 0.90937358 -0.2129406 0.5
0.1583271 -0.83822399 -0.20925418 0
0.17418024 0.6966778 -0.21293093 0
0.10182201 0.92771798 -0.21582544 0
0.029713726 1.1180353 -0.18061759 2.5
0.15230328 -1.0880982 0.048745159 8
0.27036145 -0.8533895 -0.2047407 1
0.2894116 -0.73395073 -0.21065949 0
0.26643479 0.71972555 -0.204576 0
0.210048 1.0579996 -0.21307662 1
0.23517531 -0.99524039 -0.16008404 3
0.279964 1.1730585 -0.008386272 7
0.28884012 -1.102412 0.077803418 9
0.44456306 0.56103373 -0.20415053 0
0.45762846 0.71637082 -0.19949831 0
0.47017786 0.80929065 -0.21106905 1
0.49595723 1.1293091 -0.19859879 2
0.54970622 -0.88734949 -0.17354892 2
0.49252352 1.1330667 -0.18722618 3
0.56634033 1.1670866 0.076046124 9
0.46648291 -0.88729829 0.26798749 14.5
0.54691762 1.0570545 0.36278021 15
0.70461315 0.58231419 -0.20610677 1
0.64719248 0.67198855 -0.20952199 0.5
0.62596577 -0.96860397 -0.13627571 4
0.61508763 1.118917 -0.10287401 5
0.72093052 1.1280462 0.082459524 9
0.7446233 -0.82309216 0.26173362 14
0.7520135 1.0663424 0.33988181 14
0.82083362 0.79912585 -0.20640415 2
0.88801378 -0.92494452 -0.091502592 4.5
0.86993855 -0.64042324 -0.16840322 2
0.92382967 1.1107209 -0.01807468 7
0.98986697 1.0752364 0.35539979 14
1.1927313 1.1139203 -0.21199612 3
1.0536522 1.1152141 0.33514807 13
1.6045239 -1.0044634 0.023398008 7
1.4953498 1.1159574 0.39845231 13
1.4047557 1.1094145 0.49687415 15
1.6633362 1.1258982 0.31397524 11.5
1.9954596 -0.66935354 0.2975229 11
1.8272876 1.130941 0.47316295 13.5
2.0052447 -0.72003788 0.22595216 10
2.3567874 -1.2109394 0.16637169 9
2.3593225 1.3554364 0.16946635 9
2.373497 -1.2560228 0.25669494 10
2.3714147 -1.1784263 0.34769163 11
2.3818564 -1.2516369 0.50760007 12.5
2.3590198 -1.082104 0.62423879 14
2.5785315 -1.9932855 0.20971663 9
2.5277498 -1.0096666 0.12829109 8
2.5394213 -0.56838799 0.12849942 8.5
2.4561353 0.17395939 0.13245904 8
2.4125483 0.89222366 0.12969197 8
2.4222467 -1.5435498 0.27145025 9.5
2.5054181 -0.56193978 0.35574263 10.5
2.5137391 -0.55911398 0.53644753 12.5
2.4874651 0.12188311 0.52220613 13
2.5110619 0.50746834 0.43413046 12
2.5105751 0.91963124 0.56572247 13
2.5611725 -1.9050958 0.64440995 13
2.483242 -0.63746464 0.7695412 15
2.5721564 -0.49311885 0.63947421 14
2.5244286 -0.20611568 0.69970834 14.5
2.5540729 0.43613276 0.65942407 14
2.5432854 0.64520001 0.72904837 14.5
2.4160762 1.0128185 0.70543343 14
2.4908457 -2.115454 0.90458071 15
