# .PCD v0.7 - Point Cloud Data file format
VERSION 0.7
FIELDS x y z intensity
SIZE 4 4 4 4
TYPE F F F F
COUNT 1 1 1 1
WIDTH 13
HEIGHT 1
VIEWPOINT 0 0 0 1 0 0 0
POINTS 13
DATA ascii
-0.41025668 -0.72336596 -0.19974793 0
0.28886852 -1.3977064 -0.040751226 4.5
0.32891822 -1.0427133 -0.10623096 2
0.53575468 0.88926232 -0.13586582 3.5
0.94308138 1.5664155 0.029299231 8
1.1853596 -0.18225229 0.015488545 4.5
1.1048533 0.21636815 -0.0027235288 4.5
1.1736667 0.63738668 -0.024595203 5
1.0446658 0.9273591 -0.009877705 6
1.031431 1.1776593 -0.081709757 5
1.1626848 -0.072549216 0.11319048 7
1.1306268 0.49576798 0.12497155 8
1.1359624 0.64198774 0.077955008 7
