# .PCD v0.7 - Point Cloud Data file format
VERSION 0.7
FIELDS x y z intensity
SIZE 4 4 4 4
TYPE F F F F
COUNT 1 1 1 1
WIDTH 29
HEIGHT 1
VIEWPOINT 0 0 0 1 0 0 0
POINTS 29
DATA ascii
-0.46257186 -1.3034723 -0.19223663 2
-0.49591333 -1.0056444 -0.20082971 1.5
-0.45746237 -0.64838433 -0.20391582 0.25
-0.58324909 -0.35940135 -0.22573613 0
-0.13948418 -1.3090966 -0.15694152 2
-0.18364829 -1.0007582 -0.1694022 1.1428572
-0.194389 -0.67403752 -0.17364988 0
0.20015652 -1.3429577 -0.094246112 3.2
0.21656139 -0.9891054 -0.12474597 1.3
0.2416677 -0.66284823 -0.12734298 0.2
0.69244397 -0.063905261 -0.10577606 0.33333334
0.66441518 0.22118787 -0.10676279 1
0.60655481 0.55175477 -0.11674743 2.1818182
0.66262883 0.95656514 -0.12633364 4
0.72469252 1.3986312 -0.12778142 5
0.68644756 1.7818977 -0.14166853 6
1.0787383 -0.088925809 -0.013037823 3.8333333
1.0446342 0.17704143 -0.030892003 3.7692308
1.0363955 0.56524765 -0.039895553 4.5555553
0.99227893 1.0239415 -0.058502827 5.1666665
0.93589097 1.4481144 -0.073557623 5.75
0.82039636 1.7973253 -0.12674278 6
0.85711986 2.000107 -0.094055928 6
1.183656 -0.18643877 0.12272834 7
1.1510258 0.21039227 0.1185891 7.5
1.1083275 0.60512441 0.082888991 7.5
1.0307128 1.0448157 0.052405898 7.3333335
0.99401873 1.2031212 0.050796069 7.5
1.2177385 -0.13246992 -0.049535409 3
