# .PCD v0.7 - Point Cloud Data file format
VERSION 0.7
FIELDS x y z intensity
SIZE 4 4 4 4
TYPE F F F F
COUNT 1 1 1 1
WIDTH 54
HEIGHT 1
VIEWPOINT 0 0 0 1 0 0 0
POINTS 54
DATA ascii
-0.4183467 0.73708153 -0.23559526 0
-0.21220055 0.66317189 -0.22206825 0
-0.15476167 0.87453127 -0.19719265 1.8181819
0.34922379 -1.3124871 -0.07591527 4.6666665
0.23593748 -0.99430919 -0.1512298 1.8571428
0.25143456 -0.64051503 -0.16069748 0.2
0.25390428 0.73337579 -0.17284836 1.8181819
0.18206133 0.83885044 -0.14840616 3.0769231
0.36593196 0.81535524 -0.022863965 7
0.63210636 -1.3636541 -0.068829648 4.909091
0.61395884 -0.97615242 -0.14396594 2.5999999
0.60693121 -0.59786397 -0.15789992 1.25
0.67063719 -0.22975497 -0.1625206 0.75
0.52524894 0.34100837 -0.19480215 0
0.5771417 0.66299653 -0.15791555 2.5333333
0.49550346 0.81112999 -0.12275149 4
0.61051679 -1.369537 0.10169172 8
0.59876198 0.75585932 0.0066091828 7.8000002
1.0213255 -1.406677 -0.067623474 5.1999998
0.98316586 -0.99240124 -0.13682581 3.5
0.98633391 -0.5977717 -0.1529637 2.75
0.92862695 -0.28624886 -0.16003531 2
0.95722818 -1.4031209 0.1094341 8.1999998
1.3543943 -1.3975556 -0.058544725 5.5
1.4101371 -1.0319704 -0.12548822 4.4000001
1.3796269 -0.557612 -0.14722557 3.8
1.3152447 -0.34934634 -0.16015676 3.5
1.3387965 -1.4491706 0.176838 9
1.9770381 -1.7655489 -0.034461983 6
1.7296607 -1.369264 -0.11471168 5
1.6521089 -0.9734363 -0.1255922 5
1.808385 -0.66102475 -0.13699847 5
1.9690237 -1.8072978 0.18642694 8.5
2.1949685 -1.7595819 -0.074003749 5.5
2.1619992 -1.3533787 -0.10801215 5
2.0958865 -1.0079846 -0.12048114 5
2.2845402 -0.69986099 -0.1275955 5
2.5768168 -1.8840342 -0.086588755 6
2.7023368 -1.5567572 -0.094530411 6
2.7433536 -1.2002329 -0.10719597 6
2.860173 -2.1249774 -0.077479199 6
2.9793141 -1.7408478 -0.085578851 6
2.9393246 -0.93615645 -0.11923655 6
3.2567906 -1.0507373 -0.11453466 6
3.6237731 -2.7754304 -0.04591918 6
3.7753077 -2.2699542 -0.059307579 6
3.8119161 -1.7369952 -0.081989169 6
4.9543686 -3.0556309 -0.0032647762 6
5.0285463 -2.3490067 -0.040498577 6
4.8859072 -1.6387587 -0.088503256 6
5.0135069 -3.1146629 0.17198989 7
5.1373048 -1.7385753 0.2237003 8
6.2854004 -2.1540799 0.28031462 8
6.9844279 -3.3345513 0.050413914 7
