# .PCD v0.7 - Point Cloud Data file format
VERSION 0.7
FIELDS x y z intensity roll pitch yaw time
SIZE 4 4 4 4 4 4 4 8
TYPE F F F F F F F F
COUNT 1 1 1 1 1 1 1 1
WIDTH 119
HEIGHT 1
VIEWPOINT 0 0 0 1 0 0 0
POINTS 119
DATA ascii
-0.0014906208 0.00051893789 0.00058567547 0 -2.6252776e-05 8.0071441e-05 -0.00020184087 0
-1.1346783e-07 -2.7030143e-07 1.6154077e-05 1 -4.0021082e-06 2.4255667e-06 4.2893637e-07 0
-0.0018524895 -0.00037344158 0.00087563274 2 -0.00011706762 0.00022271555 -0.00021075856 0
0.027688604 0.0022910044 -0.0071633179 3 -0.00086084398 0.0038921856 0.090802588 0
0.028037727 0.00077422027 -0.0072857542 4 -0.00070342416 0.0039627939 0.091080643 0
0.027567256 0.0013864316 -0.0061561619 5 -0.00063132035 0.0042391615 0.091060735 0
-0.13374497 -0.0052322615 0.0065243347 6 0.0061837845 0.02921568 0.029592646 0
-0.13077459 -0.005184371 0.0067586186 7 0.0067187799 0.028830839 0.029695626 0
-0.13054584 -0.0042877407 0.0056473492 8 0.0063844458 0.028520722 0.029326556 0
0.061633356 0.040419284 0.0026813636 9 0.0073266663 0.0038114621 0.04225881 0
0.96149611 0.5896101 -0.23521911 10 0.067959696 -0.089161746 0.29019508 0
1.9560287 0.88200808 -0.064672656 11 0.10994904 -0.12717985 0.25951728 0
3.0102074 1.2263809 0.0044643837 12 0.11836372 -0.13195944 0.25752634 0
3.6453896 1.4023312 0.13605265 13 -0.0045547201 -0.13754697 1.279132 0
3.5223985 2.4769235 0.16854604 14 0.015823068 -0.040529463 1.7833587 0
3.2965121 3.5317695 0.26285335 15 0.0050829509 -0.10875236 1.7160807 0
2.8125427 4.5188174 0.41146064 16 0.14792027 0.021493578 2.8164153 0
2.6406729 4.496819 0.42352879 17 0.15328176 -0.0025107088 3.0688517 0
1.640215 4.0327568 0.42097256 18 0.12299139 0.023932036 -2.7140431 0
0.66762751 3.7785068 0.31469458 19 0.14790452 0.021888353 -2.8931699 0
-0.097820625 3.2822516 0.25764415 20 0.0086700432 0.092564829 -1.768075 0
-0.16786115 2.2387378 0.15099053 21 0.0044137752 0.14170758 -1.7019826 0
-0.23490407 1.1601815 -0.082254656 22 0.0014238113 0.1760816 -1.5126327 0
0.1461104 0.66522074 -0.19726534 23 0.14158691 0.069219142 -0.36511397 0
1.123082 0.8866601 -0.094226338 24 0.12233695 -0.14379878 0.31609702 0
2.6884086 0.8427096 0.017973503 25 0.05921004 -0.15974894 0.50024331 0
3.4243646 1.527307 0.058756288 26 0.087685652 -0.11867274 0.21493427 0
4.3933101 1.8399894 0.16062313 27 0.050660364 -0.16435555 0.54964834 0
4.5513163 2.2626474 0.204458 28 0.00047278902 -0.077534832 1.5781224 0
4.4105973 3.3868902 0.32008708 29 0.0051505296 -0.091291353 1.6692727 0
4.1313357 4.3898993 0.45489004 30 0.090893909 -0.05631277 2.4441421 0
3.4075041 4.7573333 0.51497859 31 0.082708359 -0.085989892 -2.7659972 0
3.6326096 4.5026383 0.44814065 32 0.13277419 0.0099707665 -2.9446995 0
2.64096 4.2261219 0.42958754 33 0.12891236 0.0080005163 -2.8090897 0
1.6342447 3.8895869 0.40046611 34 0.14003013 -0.010862099 -2.8681431 0
0.59723783 3.5655692 0.33696374 35 0.12581475 -0.016637068 -2.8544397 0
-0.42922023 3.2800941 0.30140945 36 0.14862865 -0.014462214 -2.8221765 0
-0.87587863 2.8394597 0.26824883 37 0.01092517 0.091313161 -1.7623352 0
-0.70710731 1.7602804 0.057726238 38 0.0035384998 0.21465364 -1.465953 0
-0.30822778 0.82905388 -0.1518061 39 0.052449919 0.18071102 -0.97523516 0
-0.018266592 0.28300846 -0.066832624 40 0.050585717 -0.085174665 0.11161491 0
0.9321335 0.76990449 -0.10562887 41 0.12012398 -0.12448498 0.33133185 0
1.9227204 1.1186917 -0.032030724 42 0.11019258 -0.10315403 0.28709489 0
2.9450841 1.447866 0.062086642 43 0.11832339 -0.1121138 0.27745637 0
4.0015454 1.7262503 0.12498816 44 0.10064285 -0.11964935 0.25174525 0
4.4349399 2.1582196 0.20371234 45 -0.0057977485 -0.12214823 1.4466159 0
4.3202391 3.1739068 0.26203623 46 0.0037999682 -0.1187015 1.6663127 0
3.8136282 4.1101809 0.36606836 47 0.15095328 -0.0018185846 2.8293707 0
3.6471279 4.1219187 0.42776731 48 0.15540382 0.0066773556 3.0821183 0
2.6431081 3.8979697 0.37376049 49 0.12417299 0.0038073291 -2.8252585 0
1.666512 3.5700269 0.24928692 50 0.14789361 0.0033397761 -2.8843784 0
0.70430374 3.2771318 0.23805636 51 0.1294051 -0.0015015845 -2.8715613 0
-0.26830184 2.8679416 0.21353145 52 0.038005177 0.07572367 -2.1123784 0
-0.38106632 1.8905106 0.010675794 53 0.0074258838 0.17282566 -1.4168488 0
-0.21706791 0.82486916 -0.16059738 54 0.0075102709 0.1940219 -1.4324143 0
0.23482059 0.10386804 -0.35499361 55 0.1253268 0.022326561 -0.37823293 0
1.2204611 0.25619814 -0.27764151 56 0.1121018 -0.13685361 0.1756632 0
2.1716809 0.55114007 -0.13563089 57 0.11522826 -0.15023378 0.28840935 0
3.2585177 0.98131812 0.034925405 58 0.076923668 -0.22387922 0.28003418 0
4.3066249 1.1386085 0.10314251 59 0.10764379 -0.16015591 0.2390151 0
5.3708925 1.2818255 0.27249092 60 0.1188127 -0.16098671 0.26991788 0
5.9457135 1.9368434 0.29403347 61 -0.016942427 -0.058875889 1.3614684 0
5.548399 2.9910679 0.32666558 62 0.044122305 -0.015449624 1.9485651 0
5.1826448 3.9202406 0.44235387 63 0.032870051 -0.056223884 1.9060552 0
4.7703185 4.8270636 0.53522068 64 0.031632919 -0.06645032 1.9031651 0
4.3596148 5.807611 0.74291664 65 0.021716526 -0.13231984 1.9174955 0
3.8452041 6.3030105 0.81273913 66 0.16914374 0.020821186 3.0364897 0
3.9042821 6.1454015 0.8489815 67 0.23637365 -0.065402441 2.9609466 0
3.6043303 6.2845082 0.78360146 68 0.17462277 -0.041281741 3.1365645 0
3.5683868 6.2790351 0.78264552 69 0.1753408 -0.044173524 3.1320913 0
2.3604932 6.3841462 0.86497378 70 0.18491493 -0.031558368 -2.8074336 0
1.4520338 5.9619632 0.81097025 71 0.15932049 -0.037058003 -2.8689592 0
0.47199577 5.6953845 0.79960829 72 0.2484771 -0.10633419 -2.8603132 0
-0.50274265 5.4990296 0.76298255 73 0.32791132 -0.089441612 3.0013521 0
-0.8973847 5.966969 0.90912777 74 0.021311386 -0.33117098 1.8905644 0
-0.71418464 6.5160813 1.0861058 75 0.19834988 -0.43146732 0.79864854 0
0.25412685 6.9239836 1.1225247 76 0.22582331 -0.081199542 0.25569737 0
1.2846291 6.8231373 1.1178806 77 0.21938744 0.028082203 0.015287846 0
2.3008206 7.0104966 1.0931547 78 0.21581845 0.077223979 -0.049106084 0
3.0650053 6.7063551 0.91496605 79 0.028950829 0.28694323 -1.1347362 0
3.4953094 5.5907664 0.74499905 80 0.0005348578 0.25175714 -1.6043178 0
3.177778 4.5535479 0.35122028 81 0.01214954 0.12286066 -1.7556412 0
2.8625305 4.1967044 0.40994573 82 0.17092429 -0.032609332 -2.820755 0
1.7924118 3.8643372 0.40080184 83 0.16863312 -0.051485788 -2.890157 0
0.73652315 3.5731592 0.43132827 84 0.18682088 -0.050715048 -2.9358261 0
-0.25898278 3.3551638 0.46717852 85 0.15116125 -0.041286699 -2.5208569 0
-0.55812132 2.5910411 0.31403443 86 -0.0029896183 0.15710382 -1.4568533 0
-0.29722828 1.5419812 0.016451798 87 0.013058934 0.13675836 -1.1585517 0
0.40863848 0.78513533 -0.16878755 88 0.14969741 0.058824115 -0.12359714 0
1.4067755 0.89016432 -0.1860397 89 0.11948277 -0.20887081 0.58767879 0
2.2666075 1.5502373 -0.11423995 90 0.12594414 -0.13233581 0.60382223 0
3.0505946 2.4268351 0.035963651 91 0.14465217 -0.21867557 0.45580792 0
4.0981355 2.8073905 0.091683865 92 0.13811344 -0.18021452 0.50702929 0
4.9074774 3.4256713 0.23286833 93 0.10567288 -0.25105438 0.7816506 0
4.9882751 3.9431348 0.29664287 94 0.0082499096 -0.18394932 1.8769478 0
4.5800309 4.352664 0.43014416 95 0.19188143 -0.030358018 2.9480019 0
3.5587306 4.3836031 0.46420828 96 0.20860258 -0.020421404 3.0400825 0
2.8890796 4.413784 0.45281124 97 0.20526549 -0.023005826 -3.1201391 0
1.9110236 4.6562319 0.57216281 98 0.1838185 -0.041790191 -2.8428988 0
1.1485448 3.8396349 0.43989244 99 0.20015556 -0.079471484 -2.8631165 0
0.23057699 3.3891084 0.36489907 100 0.16122718 -0.093792401 -2.6900401 0
-0.52237862 2.6987791 0.26803091 101 0.0054283328 0.13102391 -1.6744294 0
-0.19125006 1.762015 0.030743029 102 0.0059143966 0.1880167 -1.226018 0
0.14933886 0.82605731 -0.16593751 103 0.029777087 0.25271264 -1.157524 0
0.53705347 0.44174075 -0.19572785 104 0.18691804 0.021670789 -0.072995596 0
1.5521744 0.62346613 -0.23212643 105 0.19181558 -0.067579947 0.20687263 0
2.6602452 0.76695591 -0.19792293 106 0.146606 -0.052333023 0.12351263 0
3.7272525 0.94479686 -0.12699322 107 0.15193017 -0.068589769 0.13703963 0
4.5244651 1.5519392 -0.014882623 108 0.052216832 -0.22643761 0.88144785 0
4.8183293 2.5904024 0.12506643 109 0.002095296 -0.21465674 1.4607708 0
4.8765225 3.6719191 0.27712068 110 0.00058332813 -0.23271361 1.5419484 0
4.7158275 4.149684 0.42582703 111 0.12580821 -0.032042135 2.606672 0
4.2439084 4.3090682 0.43819445 112 0.22367349 -0.043231968 3.13661 0
3.9808369 4.3606143 0.4242394 113 0.21351574 -0.014338622 -3.0810361 0
3.9803896 4.3600807 0.42325953 114 0.21344523 -0.014428426 -3.0807841 0
3.985302 4.3560596 0.45025772 115 0.2108672 -0.0089504085 -3.0827372 0
3.9852021 4.3552179 0.44952407 116 0.21112546 -0.009264525 -3.0828066 0
3.9838097 4.3525882 0.44729552 117 0.20913249 -0.0076953755 -3.0815227 0
3.9839714 4.3529668 0.44772774 118 0.20901027 -0.0074725756 -3.0817347 0
