# .PCD v0.7 - Point Cloud Data file format
VERSION 0.7
FIELDS x y z intensity
SIZE 4 4 4 4
TYPE F F F F
COUNT 1 1 1 1
WIDTH 74
HEIGHT 1
VIEWPOINT 0 0 0 1 0 0 0
POINTS 74
DATA ascii
-0.46590844 -1.3838923 -0.26195803 2
-0.5484876 -0.97773039 -0.25256747 0.75
-0.57995492 -0.62172592 -0.24181752 0
-0.14251676 -2.5607367 -0.30327615 3.6666667
-0.25698051 -2.1417441 -0.28951862 3
-0.22965908 -1.7606685 -0.26530257 3
-0.19025879 -1.3851222 -0.24559072 2
-0.17403777 -0.9758755 -0.23088031 0.66666669
-0.19356582 -0.73371804 -0.22519293 0
0.27625018 -2.8295195 -0.22375044 4.6666665
0.3003023 -2.5649247 -0.27450904 4
0.17172092 -2.1481874 -0.26262501 3.75
0.20366885 -1.7906982 -0.24074167 3
0.25180957 -1.3701584 -0.21894559 2.5999999
0.18173659 -0.99503404 -0.21498221 1
0.26115009 -0.65902466 -0.20268744 0
0.74428242 -0.04246993 -0.15247799 1
0.65978771 0.22759415 -0.15143102 1
0.59381974 0.55074412 -0.14312914 1.875
0.63410765 0.9470644 -0.11951365 4
0.67252064 1.430746 -0.086254328 5.3333335
0.53260833 1.9643869 -0.10446233 6
0.64004844 0.85836011 0.013060532 7
0.9706037 -0.057338987 -0.14081818 2.5
0.97275829 0.20908825 -0.12960069 3.25
0.99654919 0.58253211 -0.12239984 4
0.98057079 0.9762426 -0.1198239 4.5
1.042739 1.3194196 -0.10276693 5.3333335
1.1909357 1.6126026 -0.088365696 6
1.3525646 -0.14308716 -0.12308997 4.5
1.3637903 0.22392337 -0.11031502 4.5
1.4170229 0.63552749 -0.099237345 5.1999998
1.3918676 1.0098128 -0.094159178 5.4000001
1.3448284 1.3503681 -0.086738147 5.8000002
1.2830129 1.7948619 -0.079215318 6
1.4980336 2.2189682 -0.060804576 6
1.6817235 -0.10965591 -0.096730188 5
1.6734281 0.21579686 -0.088435084 5.5
1.7409909 0.58880389 -0.08763437 6
1.891654 0.88952625 -0.075336136 6
1.8190818 1.3806069 -0.065231659 6
1.778663 1.8068426 -0.056588326 6
1.6781416 2.5751975 -0.043453116 7
1.9331406 3.0778141 -0.022292431 7
2.2648194 0.68024075 -0.063659549 6
2.1453643 1.0376873 -0.061767243 6
2.2415395 1.2631063 -0.051025063 6.5
2.184391 1.7989604 -0.041080531 7
2.1226654 2.5696654 -0.023223193 7
2.7728274 0.24373141 -0.05673581 6
2.4828861 0.61594433 -0.05656264 6
2.4236083 1.0397285 -0.048395567 7
2.5800037 2.1941035 -0.0096716909 7
2.6426251 2.5652118 0.0057911426 7
2.7284575 3.4642258 0.035523374 7
2.9135091 -0.052143965 -0.059712514 6
2.8459852 0.88977629 -0.032279328 7
3.1216044 1.3948355 -0.0045722821 7
2.9756517 1.7614112 0.00051717472 7
3.0724854 2.3696902 0.017100962 7
3.4846928 2.7320216 0.045281559 7
3.4092729 3.4327533 0.063622601 7
3.2539647 4.2340136 0.070094898 7
3.9658375 1.823796 0.044058956 7
3.8275418 2.3380353 0.05073946 7
4.2265668 0.3920666 0.007157228 7
4.2314396 0.87842613 0.020732129 7
4.4628224 1.4728656 0.057238709 7
4.8298249 1.0151045 0.054652173 7
5.929184 0.56574667 0.078097694 7
5.7080822 6.0444379 0.27266535 8
6.6111598 3.1877618 0.35886109 8
7.6456575 6.4168854 0.45253563 8
9.8010645 3.4105363 0.50699353 8
