# .PCD v0.7 - Point Cloud Data file format
VERSION 0.7
FIELDS x y z intensity
SIZE 4 4 4 4
TYPE F F F F
COUNT 1 1 1 1
WIDTH 44
HEIGHT 1
VIEWPOINT 0 0 0 1 0 0 0
POINTS 44
DATA ascii
-0.42297679 -0.89100933 0.14255701 1.5
-0.53181493 -0.61281073 0.04983801 0.16666667
-0.59346908 -0.36753476 -0.036525536 0
-0.54630393 0.44806919 -0.33786088 0
-0.1889638 -0.93137777 0.13681336 1
-0.20510785 -0.72308969 0.060414102 0
0.023550639 -0.70866865 0.045861159 0
0.70492315 -0.18805054 -0.18977574 0.5
0.71614993 0.12046572 -0.30754113 0.33333334
0.68416917 0.51175791 -0.48218238 0.33333334
1.147616 -0.47586507 -0.14068753 2.5
0.9980526 -0.28472856 -0.18892613 1.8
0.93079585 0.14991175 -0.35255221 1.125
0.92918766 0.46480972 -0.48387697 1.2857143
1.0109668 0.79185379 -0.61193401 2.5
1.140752 1.0625992 -0.72829258 3
1.4544351 -0.5769363 -0.12161303 3.6666667
1.3289589 -0.30364901 -0.22112286 2.75
1.3425695 0.12025927 -0.38291055 2.75
1.3480657 0.47778782 -0.5266363 2.8
1.3202199 0.88571924 -0.67251623 3
1.3366305 1.2498286 -0.81689459 3.5
1.4479665 1.5163591 -0.93202299 4
1.8569428 -0.63014179 -0.13650495 4
1.7716146 -0.27414724 -0.25779599 4.25
1.7280214 0.168137 -0.43160793 3.6666667
1.7270477 0.51941872 -0.57552332 3.6666667
1.6734219 0.84385562 -0.69734573 3.5999999
1.7520156 1.2054012 -0.84380263 4
1.7962688 1.5094411 -0.96527523 4
1.7424409 1.9502054 -1.1285764 4
2.0098021 -0.169643 -0.24948987 5.5
2.1362724 0.46079725 -0.49019441 5.5
2.1918049 0.83625233 -0.68334597 5
2.1734328 1.1068494 -0.81937736 4.5
2.1765356 1.6098255 -1.0336225 4.3333335
2.0781903 0.019857015 -0.047207925 9
2.1079783 0.25316608 -0.070992783 9.75
2.193424 0.64710671 -0.24904785 9.333333
2.2594717 1.0612988 -0.34607723 9.5
2.3286669 1.4577875 -0.45033222 9.5
2.3478692 1.6583741 -0.97689301 5
2.3829741 1.8860811 -0.69271022 9
2.408752 1.9775221 -0.59855288 10
