# .PCD v0.7 - Point Cloud Data file format
VERSION 0.7
FIELDS x y z intensity
SIZE 4 4 4 4
TYPE F F F F
COUNT 1 1 1 1
WIDTH 559
HEIGHT 1
VIEWPOINT 0 0 0 1 0 0 0
POINTS 559
DATA ascii
-4.9987125 6.0327883 0.29333922 8
-5.1127763 7.5820293 0.20183034 8
-5.092813 7.9520931 0.22588944 8
-5.1011753 5.4666491 0.5345583 9.5
-5.0417132 5.7675128 0.66272134 9.75
-4.9813986 6.1299849 0.61871707 9.5
-5.0346837 6.4964991 0.68801975 9.5
-5.1290283 7.4873424 0.64301878 9
-5.0821629 7.935699 0.67787486 9
-5.0437794 8.2073936 0.42389613 8
-5.0184922 8.438777 0.54319221 8.5
-4.8867888 12.59151 0.8046428 9
-5.0646682 5.4999971 1.1216702 11.5
-5.0659685 5.7204523 1.0297498 11
-5.0963573 7.5481119 1.1600497 11
-4.9829578 7.6627784 0.89661455 10
-5.0000291 8.230854 0.87227935 9.666667
-4.8852754 8.482501 0.99555069 10
-5.1358862 5.4753871 1.379549 12
-5.025948 5.7504082 1.2154548 12
-5.0695925 6.5800467 1.2826214 11.333333
-5.110785 7.9610581 1.2104046 11
-5.0406156 8.2107534 1.4204582 11.333333
-4.9043822 8.4785767 1.4330622 11.5
-5.1416259 5.3618231 1.7881469 14
-5.076858 5.7001386 1.7456862 13.5
-5.0993915 6.7981462 1.8577785 13
-5.0390673 8.2774382 1.770462 12.5
-4.8985109 10.547684 1.8697962 11.5
-4.9987183 11.283262 1.893834 11
-4.8993163 15.123329 2.0937231 11
-5.0783863 5.4905605 2.0483336 15
-4.9833198 5.8229213 2.0746868 15
-4.919404 6.0369163 2.1237128 15
-5.1017337 8.1541691 2.3892066 14
-4.8861136 8.4026785 2.1824763 13
-4.8244944 11.24382 2.0639787 12
-4.9635329 12.777085 2.0930269 11
-4.871594 16.335201 2.2433901 11
-5.0415502 6.8120847 2.485043 15
-4.9631042 7.6935344 2.5403795 15
-5.0002851 11.177873 2.4771025 13
-4.9366536 11.779412 2.5970626 13
-4.9347525 13.55606 2.9531765 13
-4.7572865 6.0724516 0.14818195 8
-4.6744995 8.5862284 0.30854675 8
-4.5270677 5.3931055 0.46662754 9
-4.7956038 6.0650826 0.78316116 10
-4.6115723 8.5679359 0.65142459 8.75
-4.5963478 9.0453568 0.7579568 9
-4.4668374 5.287004 1.1244588 12
-4.5532126 6.0597215 1.191972 12
-4.5689869 8.6906157 0.96167094 10
-4.5666714 9.0405865 0.90106684 10
-4.5625033 9.1991806 0.83838046 9
-4.4581552 5.2271352 1.3255118 13
-4.6317792 5.9857402 1.4684206 13
-4.4635167 6.0880985 1.3671834 12.5
-4.6910696 8.5696812 1.4516295 11.5
-4.6806269 8.8498764 1.5640246 11
-4.4657574 5.3409004 1.7389303 14
-4.6565256 8.6353626 1.6379352 12
-4.6506433 8.9035702 1.7532094 12
-4.4766612 9.3084135 1.7178049 12
-4.7781453 10.700269 1.8879138 12
-4.7889962 11.437123 1.9831929 11
-4.7395997 11.81347 2.1659436 12
-4.7176709 12.948085 2.1751556 11
-4.48071 16.415394 2.2583745 11
-4.7668839 7.9460101 2.6047308 15
-4.542592 16.08922 2.8477697 12
-4.6008301 8.8622494 2.9488306 15
-4.726953 12.043485 3.2488019 14
-4.7062163 12.862016 3.4361093 14
-4.0799336 5.9724979 0.74226594 10
-4.0074863 6.0412636 0.65771621 10
-4.3015509 8.7407722 0.50861216 8
-4.3734694 5.3525481 1.1064086 12
-4.2145939 6.0639133 1.3006312 12.333333
-4.1733532 16.550316 1.5690062 9
-4.2789097 5.4868474 1.7582662 14
-4.0487356 5.9558973 1.6535844 14
-4.3739352 5.6865091 2.0171754 15
-4.1089511 16.588659 2.2863672 11
-4.149178 8.9420767 2.7783766 15
-4.2975268 8.937151 2.8600414 15
-4.281611 16.677599 2.9470215 12
-3.9326973 7.6467133 0.3336007 8
-3.7214692 5.9934759 0.59453344 9
-3.9622161 6.0555468 0.58064735 9
-3.8753588 6.0105753 1.2036202 12
-3.8500073 5.9314799 1.4548625 13
-3.7507715 16.510946 1.5959319 10
-3.8546436 5.9666762 1.6501139 14
-3.6776021 5.9940629 1.6505796 14
-3.6547961 16.395773 2.2692893 11
-3.8676889 16.48531 2.5742507 11
-3.2976091 7.0398273 0.35954776 8
-3.3621528 6.0478907 0.76599753 10
-3.3143539 7.0999088 0.6347335 9.5
-3.4099534 7.232986 0.57595092 9
-3.2020354 14.136328 0.86202502 9
-3.395921 6.9552555 1.1124648 11
-3.3353312 5.8774142 1.4450319 13
-3.2903514 5.9741149 1.6371249 14
-3.3146296 8.8676958 2.6237993 15
-3.2698345 10.90014 2.6936402 14
-3.4779439 16.517336 2.5949509 11
-3.5889299 18.549557 3.3895907 12
-2.9630947 7.1890903 0.40090618 8
-3.01073 7.1704597 0.80826175 10
-2.8977516 7.354104 0.59530675 9
-3.0154634 7.8763113 0.83295572 10
-3.0627728 8.9942274 0.67034894 9
-3.0352151 10.189036 0.61346537 8.5
-3.0668905 5.9236054 0.99146461 11
-3.1302369 7.1152925 0.83532763 10
-3.0838828 5.913063 1.4523472 13
-3.0379066 5.9656491 1.6729218 14
-2.8478775 16.374193 2.2796328 11
-3.0853977 8.8946228 2.6129518 15
-2.9634864 10.794881 2.6685855 14
-2.8833234 12.328713 2.7487109 13
-3.0646052 16.476078 2.5750682 11
-2.9310586 18.553764 3.2798471 12
-2.8929536 13.532953 3.5353553 14
-3.1392603 18.568974 3.4146471 12
-2.4250379 -0.9039073 0.23247726 10
-2.4231768 -0.66809517 0.22263622 10
-2.7610488 2.8890765 0.27221826 9
-2.5518737 5.9646382 0.38084224 9
-2.4442096 -0.92145389 0.58215332 13.8
-2.4382265 -0.64479297 0.55874091 13.857142
-2.5903034 5.9460635 0.46754363 9
-2.5792701 6.7761564 0.51397473 9
-2.4609642 6.8543239 0.80872643 10
-2.4876099 9.1543789 0.98240978 10
-2.4170644 9.2257786 1.0152034 10
-2.8133657 5.9032202 1.452948 13
-2.654084 5.9868922 1.9962651 15
-2.593888 6.1865969 2.0579677 15
-2.6866481 12.296644 2.3370855 12
-2.5957589 8.8365469 2.7590563 15
-2.6913931 10.72482 2.8766341 14
-2.5756676 10.88255 2.6880395 14
-2.6633513 16.46517 2.5620296 11
-2.6637878 13.551515 3.0043492 13
-2.6088974 18.572248 3.1811287 11.5
-2.5627828 13.532364 3.5275626 14
-2.6824744 18.519249 3.4286559 12
-2.2421606 -1.045465 0.22261652 10.142858
-2.3872254 -0.76615715 0.25786412 11
-2.3523703 1.0285699 0.22666268 9.75
-2.3363314 1.4140462 0.26645571 10
-2.3213058 1.7916905 0.29438472 10
-2.3044717 2.1907332 0.2921007 10
-2.2604795 -1.0143775 0.52620995 13.583333
-2.3733673 -0.69321215 0.51742911 13.666667
-2.3518379 1.0182949 0.55782282 13.5
-2.328722 1.4078532 0.5751195 13.25
-2.3129206 1.8202541 0.55593383 12.777778
-2.2984397 2.1831524 0.58239514 12.5
-2.1595633 5.9659553 0.54985744 9
-2.2900326 7.315742 0.84128648 10
-2.0353627 10.07974 0.71675056 9
-2.3216784 1.4849449 0.78724128 15
-2.3144028 1.773047 0.84363091 15
-2.3060527 2.1244013 0.83744967 15
-2.1659412 5.9030342 1.1008335 11.5
-2.125365 7.3966603 0.86779904 10
-2.2001297 5.9013057 1.2661268 12.5
-2.2784569 16.413496 1.6444503 10
-2.3168304 5.9839764 1.9832367 15
-2.2590265 16.422796 2.542861 11
-2.2876618 8.8378315 2.7864604 15
-2.2599828 13.521794 3.1411991 13
-2.278425 18.509159 3.0586407 11
-2.2305758 13.513066 3.5163205 14
-2.237787 18.525785 3.4519272 12
-1.7985859 -1.086592 0.20969124 10.444445
-1.8375361 -1.0749775 0.48360541 13.875
-1.7248399 7.8778248 0.55867535 9
-1.945739 7.8380985 0.91803491 10
-1.675473 8.0714684 0.9482826 10
-1.8686893 9.9575253 1.1007947 10
-1.9837855 5.924273 1.2402945 12
-1.9169394 8.81569 2.7436926 15
-1.6958033 11.948984 3.2586432 14
-1.766493 13.502753 3.1447351 13.5
-1.8353537 18.50979 3.0579004 11
-1.7900538 18.507666 3.4709775 12
-1.4205644 -1.0974344 0.24027042 11.333333
-1.3809216 -1.0958831 0.43989477 14.5
-1.2065957 7.0859995 0.56329101 9
-1.3786428 7.9219217 0.6135518 9
-1.415194 7.9265728 0.95556718 10
-1.2394434 8.0466957 0.97937673 10
-1.4665234 16.40694 2.5174084 11
-1.4209515 8.8035431 2.6963937 15
-1.4004829 11.922579 3.2398038 14
-1.4375811 13.498578 3.1525893 13.5
-1.3922281 18.478828 3.0519731 11
-1.3483287 18.482475 3.4900033 12
-1.0013449 -1.1173404 0.25098723 12.363636
-1.0500112 -1.1130638 0.40304115 14.666667
-1.0457976 7.1544552 0.58102989 9
-1.0133393 8.1247225 0.91773331 10
-1.0712088 16.346474 2.4977164 11
-1.0445659 8.7552567 2.7242422 15
-1.0942529 8.8259668 2.616262 15
-1.1124272 11.980126 3.2420394 14
-1.0088929 13.497269 3.0519862 13
-1.0512122 18.44932 3.1752133 11.5
-0.94015205 13.535665 3.5020812 14
-0.57463539 -0.47841018 -0.214524 0
-0.61675799 -1.1352884 0.25722712 13
-0.6696378 8.0752478 2.538023 15
-0.51606029 8.7533627 2.7280965 15
-0.44998893 8.8211718 2.6049802 15
-0.52007455 13.457823 3.0648518 13
-0.51004785 18.448368 3.0462322 11
-0.61793381 13.495428 3.488914 14
-0.11910753 -1.2385521 -0.2208809 2
-0.1996281 -0.96574312 -0.2105846 1.375
-0.19341594 -0.6281628 -0.19003622 0.14285715
-0.21615709 -1.1589646 0.24430445 13.333333
-0.05668946 17.91725 1.0867623 8
-0.075196579 18.656799 1.2226262 9
-0.21727252 18.845352 1.2371738 9
-0.20042139 8.7049742 2.7192924 15
-0.24323894 12.108876 3.2450411 14
-0.23484746 13.476166 3.2185624 13.666667
-0.068960585 18.436113 3.0437551 11
-0.40209979 18.286924 3.7187088 12
0.2141085 -1.2875831 -0.16670769 3.625
0.18722749 -0.94877362 -0.21505782 0.89999998
0.2365841 -0.66515774 -0.19737804 0.14285715
0.26172608 0.63093406 -0.16340558 0.2
0.27328858 0.97272265 -0.15311231 2.4000001
0.2009629 1.3653471 -0.14128318 3.8
0.22295679 1.8084096 -0.13497984 4.75
0.26659498 2.1610334 -0.13178499 5
0.24579737 2.5543759 -0.12628891 5
0.22612216 2.8899748 -0.11595216 6
0.1882057 3.5652742 -0.10001661 6
0.2612685 -1.2808231 0.065156072 8.75
0.19926718 -1.1747371 0.23915742 12.833333
0.023972154 0.90715742 0.029750396 8
0.36157852 17.934481 1.0746975 8
0.13520785 18.914955 1.5225171 9
0.21105947 8.6818504 2.7224596 15
0.18692951 8.8856602 2.6188848 15
0.36137193 13.873101 2.9455507 13
0.20046052 12.125559 3.2373545 14
0.12046774 13.481229 3.0996113 13
0.264256 18.405176 3.1853423 11.5
-0.0022972415 18.309525 3.6429906 12.5
0.62307918 -1.3218538 -0.142883 4.25
0.58417851 -0.97397029 -0.20410626 1.8571428
0.55531961 -0.67216688 -0.18514363 1
0.48584965 -0.36692014 -0.18151326 0
0.68264896 0.22498752 -0.15697347 0.75
0.60478711 0.60152787 -0.16265383 1.1111112
0.58066422 0.98836344 -0.14482717 3
0.59558672 1.3562859 -0.13653372 3.8
0.6392163 1.7901883 -0.12190472 5
0.54640228 2.1281941 -0.11266375 5
0.58676469 2.6031876 -0.11178083 5.5
0.61434352 2.9712331 -0.10029715 6
0.6415925 3.3195903 -0.092767917 6
0.61040926 -1.3143061 0.14538075 9.909091
0.58309084 -1.1855819 0.27083901 13
0.70543975 0.9816587 0.1247427 10
0.73076504 -1.1884546 0.40298343 15
0.75046366 6.9854202 0.72374028 10
0.78082991 17.896526 1.0603931 8
0.58248174 18.965267 1.5122764 9
0.70534289 7.5390472 2.2726815 15
0.6251235 8.0978975 2.2565181 14
0.63090998 9.7906904 2.4916389 14
0.52104479 8.6592503 2.7245405 15
0.61496532 8.8769894 2.6196949 15
0.58755493 11.767849 2.5668485 13
0.62701398 13.865477 2.7844455 12
0.64410615 12.14581 3.2331667 14
0.54918152 13.484729 3.3058293 14
0.38972467 18.286848 3.5510674 12
0.94502813 0.24312063 -0.14711973 2.2
0.96057552 0.58388633 -0.16109718 2.2857144
0.99425381 1.0025109 -0.15003084 3.5
0.99394792 1.3953216 -0.14709119 4
1.0326566 1.7964321 -0.14419174 4.5
0.94853836 2.1803293 -0.12290942 5
0.94854838 2.6713364 -0.10520259 5.5
0.98496461 -1.2130947 0.24167415 11.428572
1.0079271 -1.1731855 0.26188529 11.8
0.97784454 -1.1951714 0.43872198 15
0.9862774 6.9731712 0.74413639 9.5
0.79946345 8.90236 0.80510527 9
0.95603836 14.240536 0.89741665 8
0.87327218 9.9706402 1.0646547 10
1.109267 14.214987 1.1911256 9
0.8229295 19.066259 1.307623 9
0.99656665 6.9554491 1.4724476 12.666667
1.0297384 19.001436 1.5021821 9
0.96584123 6.9606676 1.9100109 14.5
1.0756657 6.9617467 2.1297348 15
0.82900411 8.1610203 2.2692115 14
0.82865906 10.277241 2.4755025 13
0.94676787 11.753255 2.4325821 13
1.0206549 12.819987 2.4407256 12
0.96119189 14.287844 2.431149 12
1.033186 18.359964 3.3473012 12
0.80022025 18.366608 3.0356634 11
1.3361732 0.28131166 -0.12555364 4
1.3638104 0.60223478 -0.13763267 4
1.3950683 0.95729256 -0.13811938 4
1.4155686 1.3695904 -0.1369497 4.6666665
1.3991796 1.7875407 -0.14171155 5
1.4759048 2.1225171 -0.14223172 5
1.3251328 2.6053138 -0.13403648 5
1.427448 2.8886087 -0.13013418 5
1.5549241 3.2413976 -0.12545396 6
1.2681738 -0.99630523 0.27371866 11.75
1.32188 -0.96446025 0.46254405 14.75
1.3266542 7.0028605 0.70540863 9.3999996
1.4185697 6.9830756 1.5235267 12.75
1.3229411 6.9862494 1.9416411 14
1.4275199 6.9826331 2.1427927 15
1.7678815 0.6277855 -0.11478891 5
1.7132487 1.0158443 -0.13242294 5
1.6556728 1.4133445 -0.13330014 5
1.8767961 1.6586385 -0.1286833 5
1.8922685 2.1980085 -0.12972343 5
1.713654 2.5833423 -0.13848266 5
1.8672214 2.8818617 -0.13476428 5
1.7161988 6.2452669 -0.054488845 6
1.8042194 -1.0194079 0.25567335 10.214286
1.7250994 6.9715858 0.38577384 8.5
1.7774537 -1.0010862 0.51578927 14
1.7567525 6.9907641 1.4846773 12.5
1.7860694 7.002387 1.9178911 14
1.7848365 7.0007091 2.1580904 15
2.1773162 0.39574534 -0.077767953 6
2.2573969 0.66089791 -0.089357622 5.5
2.2463672 1.0714135 -0.11096509 5
2.0163496 1.4063376 -0.13364132 5
2.3564754 1.6985903 -0.12961541 5
2.2969201 2.1242154 -0.12116341 5
2.395458 2.9294949 -0.12066248 6
2.0835555 3.2997916 -0.13344321 6
2.1028192 -0.98931831 0.25518811 9.7142859
2.2668984 -0.52086252 0.23695065 9.75
2.2558174 -0.26259938 0.23670186 9.5714283
2.16556 -0.96107471 0.54835683 13.25
2.2541792 -0.46371809 0.44239268 12
2.2022517 6.9687786 1.5178586 12.4
2.1782408 6.9869447 1.9301659 14
2.2460692 6.8864169 2.2332411 15
2.5672657 1.0892849 -0.092903353 6
2.4359777 1.3626704 -0.11384974 5
2.6698811 2.5373926 -0.11485232 6
2.6456118 -0.98555905 0.24536724 9.25
2.4907463 -0.74358147 0.25442532 9.5
2.5398035 -0.13295805 0.24838094 9.5
2.7845254 3.2677701 0.30406699 9
2.7918599 3.6997404 0.43194869 9
2.7737224 4.5459642 0.48962048 9
2.6472592 6.9953289 0.50588357 8.5
2.6125953 -0.96639395 0.57401997 12.583333
2.5662172 -0.59242314 0.60782892 13.090909
2.6186271 -0.20376508 0.62393391 13.363636
2.7449524 2.9900427 0.56933409 10.5
2.7473726 3.4018047 0.59828573 10.666667
2.7687407 3.6265426 0.55808163 10
2.7845035 4.2312279 0.60806429 10
2.7640574 4.6291051 0.58671683 9.666667
2.6739409 6.9847288 0.80235857 9.666667
2.6678364 -0.96433479 0.87928677 15
2.6151168 6.9471712 1.5652343 12.4
2.6129665 6.9674258 1.9494909 14
2.597723 6.6146045 2.2723942 15
2.6064959 6.9680262 2.1838529 15
2.8440797 0.86770064 -0.069845229 6
3.0223818 1.7492899 -0.11155866 6
2.901896 2.1660814 -0.12703326 5
3.1421797 5.4586287 0.04427658 7
3.0138371 3.1396883 0.27927291 8
2.8796504 3.2217419 0.29448992 8
2.9807718 3.7637732 0.31942141 8
3.0285356 3.9984124 0.18778056 8
2.9159877 5.1997037 0.31114754 8
3.0316393 6.9909401 0.48536026 8
2.9695055 -0.86243343 0.63590592 12.5
2.8809514 -0.79474497 0.78111881 14
3.060837 2.7653859 0.59673798 10.5
2.9953287 2.812438 0.53782916 10
3.0682771 4.2767177 0.62960505 10
2.9847755 6.9633007 0.73680556 9.5
3.0000472 -0.85725713 0.95739824 15
2.9312069 -0.79190856 0.95079291 15
2.9526682 6.9338708 1.6349243 12.5
2.9328227 6.9512906 1.9599866 14
2.9507961 6.4768534 2.2627218 15
2.7904685 6.9428053 2.1855433 15
3.3182764 0.64732295 -0.036057256 6
3.2063179 1.4057791 -0.086044222 6
3.3716083 3.3711839 0.043623354 7
3.3214405 6.9738917 0.46817288 8
3.2317121 -0.83526444 0.73475307 13
3.3852026 2.7523293 0.60687399 10
3.5869205 6.6772223 0.58862668 9
3.336988 6.9289842 0.73386574 9.3999996
3.3995862 -0.8850373 1.0490369 15
3.3589845 6.9194083 1.4638666 12
3.3395047 6.9286442 1.8789001 13.6
3.5484817 6.3452549 2.2793024 15
3.2841642 6.3927469 2.2686503 15
3.2791369 6.9261694 2.2089906 15
3.8379648 2.2902942 -0.094541214 6
3.6301248 2.7949901 -0.10796862 6
3.6643012 3.613811 -0.16363707 6
3.7071369 4.8813639 -0.0069581056 6.5
3.9497054 6.8470907 -0.20920043 6
3.6366274 4.5386047 0.45585039 9
3.7477791 6.7915754 0.29356006 8
3.6799467 6.6561551 0.62035316 9
3.7638159 -0.85060561 1.0398769 14.5
3.9774008 -0.73847491 1.1969197 15
3.910279 -0.87368333 1.2576346 15
3.7591095 6.8969278 1.4734905 11.5
3.7657278 6.9038534 1.8825923 13.5
3.9330401 6.3157053 2.3079135 15
3.7690632 6.3829384 2.3090808 15
3.7897596 6.9041619 2.2351127 14
4.0547695 0.23549798 0.045541912 7
4.0798759 0.45806056 0.067575388 7
4.2443852 0.85176778 0.0001888235 7
4.2448134 1.3646319 -5.7959827e-05 6.5
4.3056245 1.9591457 -0.025465993 6.5
4.0235329 -0.020670721 0.43006641 10
4.0497541 0.16637599 0.29109719 8.7142859
4.0850444 0.59167248 0.22417675 8
4.1017642 1.0109835 0.27890944 8.25
4.1145802 1.3421243 0.30833736 8.625
4.1306977 1.7993858 0.29195482 8.5
4.1282468 2.2276371 0.28081316 8.1999998
4.1501241 2.4548907 0.29251888 8
4.0498605 -0.15646705 0.6486029 11
4.1488318 0.21255326 0.64186943 11
4.141994 0.52249068 0.62254888 10.833333
4.1562443 0.92740577 0.64838052 10.8
4.1518097 1.4220611 0.6598376 10.5
4.1471391 1.7501584 0.65269291 10.833333
4.1639276 2.1813891 0.73562145 11.142858
4.1608605 2.4488664 0.73982447 11
4.2126212 6.4948263 0.55960673 9
4.0211515 -0.67112845 0.99065155 13.666667
4.2092419 1.4698122 1.0557148 13
4.1332092 1.7900255 1.0493945 13
4.1405163 2.1613033 1.1292017 13.333333
4.1525946 2.4194658 1.1857446 13
4.2041006 6.9401937 1.2953166 11
4.2766194 -0.65082151 1.375833 15
4.3074379 0.14057495 1.3718188 15
4.2070675 1.395968 1.3438081 15
4.2179632 1.8483305 1.3690217 14.5
4.1438622 2.2281377 1.3967397 14.75
4.1822424 6.8787708 1.483054 11.5
4.1783748 6.867156 1.797727 13
4.1884499 6.2264166 2.3103681 15
4.1030593 6.8725505 2.248162 14
4.7066379 2.8881009 0.014597257 7
4.6612382 3.1317832 0.14426319 7
4.6616588 3.4883723 0.26239643 7.6666665
4.5671897 3.649652 0.36154827 8
4.7787666 4.0102773 0.28711283 7.5
4.7956486 4.7554841 0.39958706 8
4.538888 6.2951908 0.41725865 8
4.6192064 -0.087360829 0.75919843 11
4.564373 0.33048463 0.83442515 12
4.5797038 0.60328543 0.80955976 11.666667
4.6905646 1.1374969 0.7475282 11
4.7090688 1.297659 0.7875132 11
4.7725282 4.7168336 0.8975094 10
4.4738173 6.2960596 0.60699886 9
4.571115 6.9195433 0.74170613 9
4.6409478 -0.097030401 1.0597092 13
4.6557851 0.18299901 1.0969362 13.2
4.6681347 0.600326 1.0685216 13
4.6938767 0.99412549 1.0808713 13
4.6383996 1.3525528 1.1497409 13.166667
4.5283055 2.7834549 1.2894732 13
4.6154909 6.7173219 1.0404236 10
4.7654839 6.9282641 1.3372219 11
4.5994611 -0.57545024 1.3618277 15
4.5679493 -0.20769553 1.3939868 15
4.4360437 0.028296273 1.390596 15
4.6811705 0.73920929 1.3030205 14
4.6787381 0.94992155 1.3419518 14
4.4975328 1.2770672 1.3721757 15
4.5792456 1.7159076 1.3750683 14.333333
4.5559106 6.8549848 1.5309131 11.666667
4.6317315 6.8843713 1.9653038 13.5
4.6267252 6.0780129 2.3190911 15
4.5496593 6.8498449 2.2751625 14
5.167624 4.1474266 0.013655169 6.5
4.8431921 3.0515561 0.37496603 8.5
4.8564162 3.388133 0.37060893 8.333333
4.8888178 3.7005804 0.51327103 9
4.8653736 4.2808404 0.35862121 8
4.8223605 4.5807295 0.40742436 8
4.8825374 5.4527802 0.44785136 8
4.8488846 5.8223734 0.50930697 8
4.8354316 3.0399852 0.74456316 10.5
4.8825765 3.4030981 0.77566308 10.4
4.8666224 3.8130507 0.73500246 10
4.87427 4.2360363 0.68601072 9.5
4.8433318 4.6192603 0.72737139 9.5
4.8673353 4.9728255 0.6992082 9.333333
4.8620901 5.3355708 0.71482456 9.333333
4.8887258 5.7171249 0.79061866 9.5
4.8361979 3.0419624 1.2520337 12.5
4.8753772 3.4218936 1.1864117 12.5
4.8684201 3.7903001 1.0511703 11.5
4.8719831 4.166121 1.1154457 11.5
4.8932323 4.5412574 1.1947327 11.6
4.9008641 4.9498954 1.199548 11.5
4.9006028 5.4030685 1.108585 10.666667
4.9451447 5.7714825 1.2305173 11
4.9862399 6.9022956 1.3525301 11
4.7874265 1.1021885 1.4154531 15
4.849966 3.0113323 1.5727184 14
4.8527627 3.3369355 1.4563718 13.6
4.8711753 3.7150486 1.5086079 13.5
4.8679404 4.1516805 1.5670205 13.4
4.8462982 4.4898109 1.6384325 13.333333
4.9146171 5.0741048 1.5507197 12.666667
4.9130297 5.4239664 1.4019318 12
4.9325743 5.7055683 1.4465648 12
4.9644799 6.830442 1.5028234 11.5
4.8580198 3.074842 1.8196751 15
4.8526664 3.383754 1.8902124 15
4.8631482 3.7258694 1.9729674 15
4.8730507 4.0933676 2.0620971 15
4.872201 4.5013847 1.7685106 14
4.9164581 4.996954 1.9745153 14.5
4.9051805 5.4389257 1.8658326 13.666667
4.9217725 5.7886343 1.9166524 13.5
5.0146317 6.1748753 1.9639683 13.5
5.1160617 6.7310677 1.8475223 13
4.9507713 6.8538761 2.0252535 13.25
4.8791313 4.387733 2.1359415 15
4.9423327 5.3723407 2.1814711 15
4.9545155 5.6430035 2.24774 15
4.9000468 5.9915214 2.3272531 15
5.0042577 6.8066134 2.3010919 14
5.2796135 6.7482462 2.0623095 13
5.333746 6.9884038 2.191813 14
