# .PCD v0.7 - Point Cloud Data file format
VERSION 0.7
FIELDS x y z intensity
SIZE 4 4 4 4
TYPE F F F F
COUNT 1 1 1 1
WIDTH 117
HEIGHT 1
VIEWPOINT 0 0 0 1 0 0 0
POINTS 117
DATA ascii
-4.3379965 5.7210426 2.0233407 15
-2.4331183 -1.0272485 0.25620344 10
-2.4387023 -1.0285119 0.45636865 12.5
-2.4334848 -1.0309147 0.56610006 14
-2.4458103 -0.96063781 0.71340668 15
-2.3860753 -0.577757 0.25960183 11
-2.3224144 1.9172187 0.24162775 9
-2.2827897 2.3495359 0.35192454 10
-2.3791811 -0.62481469 0.38665703 12
-2.3249779 1.6811906 0.44744167 12
-2.3110864 2.1107428 0.47927055 12
-2.279146 2.3885407 0.49939087 11
-2.365845 -0.50537783 0.68111563 15
-2.3025572 2.1022334 0.66189402 13.5
-2.2950156 2.3020272 0.85591501 15
-2.099045 -1.0868236 0.10716838 9
-2.0551076 -1.1008886 0.54184705 14
-1.8762453 -1.0655503 0.24578539 11
-1.9374709 -1.0567664 0.5677672 15
-1.7341218 -1.1044154 0.11383676 9
-1.7032101 -1.0732517 0.24457039 11
-1.6133066 -1.0738368 0.4976702 14.5
-1.7415369 8.8065786 2.6273217 15
-1.5435497 -1.1019635 0.23430426 11
-1.4133494 -1.1226286 0.4374868 14
-1.5852222 18.471535 3.2960274 12
-1.2763844 -1.1256578 0.2557168 11.5
-1.2953347 -1.0934663 0.4392395 15
-1.1464577 -1.1304764 0.44585842 15
-0.93335104 -1.1242667 0.19492804 11
-0.21678345 -0.80814517 -0.21374798 0
-0.3980349 -1.144827 0.30184886 15
-0.19615956 -1.026467 -0.2122467 2
0.085820384 -1.2799239 -0.14144802 4
0.16043276 1.2419547 -0.16863503 3
0.13070971 -1.2739413 0.070144109 9
0.15513766 -1.1612219 0.17152551 11
0.33133757 -1.0365323 -0.22042409 1.5
0.338496 -1.2863743 -0.035022005 6
0.31384775 1.1780152 -0.13166712 4
0.32508829 -1.2810869 0.0041279681 7
0.6567964 -0.96928066 -0.20548236 2
0.72802776 -1.316613 -0.14058453 4
0.68165618 0.83249325 -0.1492715 2.5
0.66964406 -1.3663374 0.067756228 8
0.68026912 0.82559758 0.21467963 12
0.73560661 6.9766045 0.68349057 9
0.97257298 0.6503281 -0.16162623 3
0.99410594 0.88806134 -0.15468615 3
0.89557099 6.9528847 1.7947155 14
0.82016969 6.973258 2.128087 15
1.0175906 0.13818184 -0.14279984 3
1.0510753 -1.2086642 0.17990455 10
1.0404541 -1.2198536 0.34067452 13
1.1412553 -1.1619776 0.2955018 12.333333
1.0409516 6.9703412 0.72599262 10
1.2269226 -0.96463478 0.20497356 11
1.2222953 -1.1350307 0.35688725 13
1.2420107 -0.94906336 0.3238017 12.5
1.2516419 -1.1453953 0.4583939 14.5
1.3215905 -0.89951885 0.44565672 14.5
1.3069 6.9531484 1.3464898 12
1.7845919 -0.95246512 0.41545635 13
1.8037289 -1.1001843 0.1520882 9
1.8465594 -0.95972562 0.41752717 12
1.9162476 6.9808221 1.5164887 13
2.114243 -1.003896 0.12854202 8
2.1385159 -0.93269837 0.17770234 9
2.0853224 -1.0048156 0.55468845 14
2.0517609 6.9861188 2.164057 15
2.2321858 -0.57391793 0.15809387 9
2.2523963 -0.23195851 0.22686362 9
2.2223005 -0.59070772 0.30401129 10.5
2.2364874 -0.26433358 0.28083366 10
2.2580807 -0.20055549 0.30980057 11
2.2583466 6.9882741 1.8216881 14
2.5005362 -0.70418739 0.131127 8
2.5418854 -0.085785463 0.17678505 8.5
2.5403438 -0.055254493 0.30438206 10
2.5217736 6.9960303 0.81212574 10
2.7231858 -1.1203201 0.068623938 7
2.6391509 6.980238 0.66567403 9
2.677681 -0.20821466 0.70708233 14
2.9328463 6.9399018 1.3622535 12
3.5914931 6.9048576 1.5721778 12
3.9348009 6.8936129 1.3705015 11
4.0431404 0.064801566 0.028067596 7
4.098527 0.96474576 0.1187651 7
4.1477432 2.4989328 0.25694337 8
4.1103415 1.9800166 0.37432352 9
4.1530504 2.5041878 0.42317578 9
4.0512967 0.22951399 0.58265966 11
4.1308298 1.4810714 0.62341565 11
4.1192932 1.9291788 0.68250442 11
4.1444278 2.507997 0.5849539 10
4.0969043 1.9438912 0.83036679 12
4.1489167 2.5127125 0.74000424 11
4.1168966 1.4265778 0.98572063 12.5
4.1611071 2.4639769 0.91030419 12
4.1504312 1.9137254 1.1046841 13
4.1649981 2.4437137 1.1931905 13.5
4.1575599 2.4397373 1.558753 15
4.1341262 6.8713679 2.0285854 14
4.5297017 3.7048371 0.33292556 8
4.444829 6.134882 2.314559 15
4.6754093 0.79650593 1.0451797 13
4.6503778 1.1572165 1.3759718 15
4.5968513 6.8581901 2.0485349 13
4.8234391 4.0438504 0.55609745 9
4.8712106 3.678015 1.0421634 11
4.8464303 3.8435574 1.346133 13
4.8325038 3.488477 1.5672863 14
4.8482051 4.6072516 1.5894334 13
4.8308253 4.6270471 1.7370411 14
4.8704462 5.4027505 1.8060015 13
4.8699641 5.7911649 1.9199229 14
4.8717036 4.6057267 1.9901268 15
