# .PCD v0.7 - Point Cloud Data file format
VERSION 0.7
FIELDS x y z intensity
SIZE 4 4 4 4
TYPE F F F F
COUNT 1 1 1 1
WIDTH 21
HEIGHT 1
VIEWPOINT 0 0 0 1 0 0 0
POINTS 21
DATA ascii
-0.23717849 0.78823215 -0.20329951 0
-0.33880609 0.91805881 -0.20978622 1
-0.10742868 0.83511978 -0.21362936 0
-0.13782628 1.2306925 -0.21415371 2
0.10110274 0.67029774 -0.1999258 0
0.10599399 1.0138284 -0.20360897 1
0.35575357 0.84682816 -0.21220334 0.33333334
0.38951358 1.2937884 -0.20840856 3
0.50487417 0.41691011 -0.19275458 0
0.53869772 0.72324961 -0.21192011 0
0.49072438 -1.1200587 -0.18754047 3
0.65966666 0.96056795 -0.21194813 2
0.62198758 -1.0045489 -0.19153945 2
0.82395262 -0.81372088 -0.17937018 2
0.91918206 -0.73883355 -0.17869206 2
0.94187701 -0.34574607 -0.18501006 1
1.1515381 -0.47606954 -0.18408079 2
1.1438785 -0.1387721 -0.18349645 2
1.480461 -2.1853023 0.063173048 7.5
2.561059 -1.831349 0.022865621 7
2.4876378 -1.8472463 0.28886479 9
