# .PCD v0.7 - Point Cloud Data file format
VERSION 0.7
FIELDS x y z intensity
SIZE 4 4 4 4
TYPE F F F F
COUNT 1 1 1 1
WIDTH 659
HEIGHT 1
VIEWPOINT 0 0 0 1 0 0 0
POINTS 659
DATA ascii
-2.3872473 -0.61035043 0.38551834 10
-2.5513482 1.0551544 0.40744388 10
-2.5791671 1.3929814 0.369017 9.5
-2.6090686 1.7775273 0.38656273 9.5
-2.6380749 2.182795 0.41790336 9.5
-2.6657205 2.5630436 0.45567563 9.5
-2.7056916 3.0076368 0.4598783 9.333333
-2.7343051 3.4022913 0.40102163 8.5
-2.6414206 3.7665837 0.43164638 9
-2.3778172 -0.61798149 0.67971528 13.5
-2.5465519 1.0682243 0.72318864 13.285714
-2.5700681 1.395727 0.69231218 12.461538
-2.6011581 1.7852402 0.71179992 12.25
-2.634665 2.2283103 0.69129032 11.777778
-2.658252 2.5863039 0.72082907 11.555555
-2.700676 3.0336604 0.7032699 11.2
-2.7257874 3.4014468 0.70889676 11
-2.5793784 3.7812481 0.74020398 11
-2.5546789 1.0729942 0.92838311 15
-2.5743437 1.4134299 0.94779849 14.75
-2.5968127 1.8284912 0.97699338 14.666667
-2.622196 2.1993825 1.0406345 14.5
-2.6493704 2.6288469 1.090834 14.2
-2.6811752 3.0027738 1.1488622 14
-2.7053232 3.3614035 1.1622999 13.666667
-2.5912728 3.7725973 1.15536 13.285714
-2.716336 3.4107854 1.3391752 15
-2.589138 3.7663074 1.4167867 15
-2.3227239 -0.96790195 0.36356226 10.2
-2.2808983 -0.68302166 0.38303772 10.285714
-2.2948205 3.8152921 0.42786026 9
-2.274636 -1.2446297 0.69061947 14
-2.257014 -0.9846732 0.67066908 13.666667
-2.2259185 -0.6909439 0.64275199 13.6
-2.1692338 3.8316176 0.71992904 11
-2.1666715 3.8414609 1.0881331 13.2
-2.1403797 3.8529081 1.3957412 15
-1.6122371 -0.81825137 0.31705087 11
-1.6851729 -0.79870868 0.32847378 11
-1.9400394 3.8434377 0.39215004 9
-1.6693506 -2.5565727 0.72449321 13
-1.8043997 -1.1102815 0.65394199 14.666667
-1.6515851 -0.80013299 0.49373037 13.5
-1.8163425 3.8649185 0.67910296 10.833333
-1.7397432 -2.5109181 0.96580577 15
-1.8040856 3.8730686 0.97899091 12.8
-1.742607 3.8836677 1.3678683 15
-1.1812247 -2.5634561 0.43261871 11
-1.3476887 -0.92907214 0.35831261 12.111111
-1.3729845 -0.78291512 0.3538067 12.285714
-1.3836561 -2.5746531 0.67128986 13
-1.2079692 -1.3291645 0.57129228 15
-1.3788968 -0.9981218 0.51181984 14.2
-1.4436991 -0.77955061 0.48119944 14.5
-1.3718419 3.9012959 0.69744784 11.2
-1.4649097 -2.6248801 0.89489305 15
-1.3189642 3.9180584 1.1047448 14
-1.3523463 3.9160075 1.3162183 15
-1.0047622 -2.5362453 0.29060408 9.75
-1.0656892 -2.1282833 0.28732947 10
-1.0851713 -1.7840711 0.28845125 10.444445
-1.1057339 -1.4121537 0.30788535 11.222222
-1.1236527 -1.116412 0.32356164 12
-0.82214779 3.9375629 0.4393073 10
-1.0011244 -2.5305827 0.5744853 12.6
-1.0572522 -2.1219351 0.51884687 12.666667
-1.0813471 -1.7483584 0.51283246 13.666667
-1.1196483 -1.4225415 0.51082629 14.2
-1.1344388 -1.0961521 0.48121008 14.5
-0.97207743 3.9324396 0.62933004 11
-0.98741144 -3.1208074 0.9532851 14.666667
-0.98085338 3.9455166 1.0810026 14
-0.94593233 3.9524536 1.2768394 15
-0.5704878 -2.0221078 -0.17316619 4
-0.45174915 -1.7623501 -0.16649018 4
-0.48655316 -1.3578029 -0.16431759 3.5
-0.48535028 -1.0420485 -0.17234635 2.3333333
-0.43499547 -0.64991975 -0.18383317 0.33333334
-0.47904992 2.1735368 -0.2501775 3
-0.59989214 -2.5105412 0.24349146 9.4444447
-0.44458038 1.1538745 0.35486689 14
-0.5386889 1.257846 0.35675293 14
-0.72793281 3.9478266 0.44265488 10
-0.54208279 -2.5256488 0.56794482 13
-0.57328725 3.9665785 0.6078617 11
-0.54834747 -3.019803 0.92686248 15
-0.56372803 3.9775636 1.0510418 14
-0.38140926 4.0016975 1.1599916 15
-0.58238244 3.9843261 1.2533293 15
-0.41396296 3.9945736 1.242184 15
-0.081626765 -2.4788959 -0.15401007 5
-0.16500527 -2.1532049 -0.16170321 5
-0.18934806 -1.7528785 -0.16050735 4.5
-0.18593141 -1.3672132 -0.16161941 3.6666667
-0.20112662 -0.98706394 -0.17082287 2
-0.24685995 -0.69085574 -0.18278669 0.33333334
-0.03739702 0.74955565 -0.21740817 0
-0.099321812 1.0413406 -0.21200579 1.4
-0.17806822 1.4105103 -0.21382399 2.75
-0.21467297 1.8214428 -0.23657204 3
-0.18084906 2.2126012 -0.25900993 3.5
-0.24395543 2.4587796 -0.2610395 4
-0.074164823 3.9228354 -0.34806541 4
-0.21157588 -2.4831367 0.18888666 9.1999998
-0.29370812 1.2946808 0.35200065 14
-0.14458668 -2.4936895 0.5516603 13.166667
-0.32198268 3.9875813 0.60368752 11
-0.1408643 4.0053868 0.62995416 11.2
-0.30533797 -2.9020541 0.86550713 15
-0.19120964 -2.7661083 0.81012648 15
-0.14632094 4.0139604 1.0245986 14
-0.17422582 4.0205836 1.2315054 15
0.16624115 -2.1831522 -0.15541226 5
0.13878764 -1.7781509 -0.158742 4.8000002
0.19190216 -1.375116 -0.16380022 3.8
0.20647112 -0.97458357 -0.17514248 2.3333333
0.22605056 -0.65926802 -0.17997588 0.625
0.27825922 0.67243147 -0.21841428 0
0.19697258 1.0180882 -0.23076122 1
0.12068011 1.4235259 -0.2357766 2.3333333
0.1630643 1.8026806 -0.24786913 3
0.11931507 2.1752622 -0.25809416 3.6666667
0.068144612 2.6362073 -0.28134376 4
0.033299815 2.9487247 -0.29655513 4
-0.0171376 3.4145405 -0.32461101 4
0.22821982 -2.4463539 0.15244307 9
0.22219552 -2.4385436 0.49556625 13
0.22498612 4.033886 0.60660338 11
0.26166454 -2.9840968 0.86348569 15
0.24990632 4.0488286 1.0110918 14
0.21163104 4.0542746 1.2148439 15
0.54881382 -2.4442568 -0.13964899 6
0.65622514 -2.0719342 -0.14883627 5.5
0.61821675 -1.7780107 -0.15586345 5
0.56921118 -1.4110038 -0.1658909 4.5
0.57096004 -0.96533918 -0.17743091 3.1666667
0.53060651 -0.57831764 -0.17692615 1.625
0.47173357 -0.34639239 -0.18649365 0
0.6583339 0.24579263 -0.20505293 0.40000001
0.62573302 0.59769863 -0.22496596 0.63636363
0.60020643 1.0004079 -0.23454204 1.8571428
0.57739437 1.3609165 -0.23826569 2.8
0.52815288 1.7674814 -0.24834298 3.4000001
0.54266971 2.2328327 -0.26303825 4
0.62966973 2.6231475 -0.27507144 4
0.40712416 2.8263204 -0.28019786 4
0.42199165 3.4264894 -0.32638437 4
0.59793377 -2.4193592 0.17062734 9.4444447
0.7706213 -2.3950396 0.18241662 9.5
0.56646168 -2.4116354 0.4854959 12.8
0.70709211 -2.3971069 0.48615947 13
0.5411483 4.0594721 0.57348728 10.833333
0.56991631 4.0753589 1.0367966 14.333333
0.60659724 4.0780826 1.2003402 15
0.87914836 -2.5187902 -0.11461022 6
1.0085219 -2.1543765 -0.15690297 6
1.0535598 -1.7501237 -0.1673158 5.6666665
0.95942199 -1.4047017 -0.16954286 5
0.88877141 -1.0459239 -0.17693692 4.3333335
0.9712826 0.3085632 -0.22017583 2
0.9443031 0.59832126 -0.23280507 2.1111112
0.97214735 0.99064082 -0.23602825 3
0.98603904 1.4104123 -0.24539693 3.75
1.0041133 1.8190588 -0.25494984 4
0.95941925 2.1381092 -0.26159859 4
1.1063215 2.6728692 -0.28040564 5
0.99061328 3.00755 -0.288423 5
0.86056292 3.4842811 -0.30599099 5
0.93105292 3.9862385 -0.32350442 5
0.90192711 4.0601249 -0.18463534 6
1.0292518 4.6821351 -0.34947369 5
0.98905724 -2.4762497 0.054995775 8.333333
0.98890471 -2.3710718 0.15406822 9.4444447
0.82891411 4.0776396 0.085257642 8
1.017337 -2.3591719 0.48408461 13
1.2447537 -2.5762379 -0.11964613 6
1.4416419 -2.1640344 -0.16479906 6
1.231231 -1.7412018 -0.16460577 6
1.3355303 0.58743256 -0.23189178 3.6666667
1.3627813 1.0135264 -0.23803385 4
1.3573536 1.4177545 -0.24968642 4
1.4306103 1.8351104 -0.26184091 4.5
1.2941664 2.1991918 -0.2702435 4.5
1.4193501 2.4998786 -0.27867597 5
1.2769154 3.2976499 -0.29867852 5
1.3812546 3.6837606 -0.30609325 5
1.4344853 -2.5113761 0.023312693 7.6666665
1.3843127 -2.3296373 0.16838956 9.5
1.4316947 -2.3144326 0.50642371 13
1.4551668 7.0723686 0.63912863 9.5
1.623153 -2.2969313 0.76786137 15
1.4139769 7.0815611 0.9556514 10.666667
1.431025 7.0859771 1.2942424 12
1.4410547 7.1098175 1.8463014 14
1.4775099 7.0430717 2.0502386 15
1.6628594 -2.6117637 -0.15936442 6
1.7411056 0.67428786 -0.2402425 4.5
1.7833239 0.992046 -0.24405037 5
1.7506391 1.4087777 -0.25192419 5
1.7534202 1.8231783 -0.26220319 5
1.6707658 2.2535689 -0.27519554 5
1.7990631 2.477211 -0.28215387 5
1.6400368 3.0319796 -0.2906217 5
1.8128601 3.445086 -0.30517352 5
1.9184937 -1.4787498 0.26779339 11
1.8854933 -0.98886967 0.20113461 11
1.6365279 -2.3000429 0.37350687 12
1.766454 -1.6395856 0.50322896 14
1.8089592 -1.3795887 0.45333248 13.8
1.784758 -0.98597097 0.48589289 14.75
1.7992762 7.1052713 0.63523251 9.5
1.8883744 7.1207294 0.94412971 10.6
1.8557957 7.1237564 1.3281409 12
1.8844838 7.1415081 1.753062 14
1.9216418 7.0573945 2.0917261 15
1.9973752 0.74058998 -0.24957317 5
2.2291541 1.1355946 -0.25938791 5
2.1239834 1.3967828 -0.26080707 5
2.07549 1.7424639 -0.26284 5
2.1557834 2.3553295 -0.28242299 5
2.3682473 2.6363714 -0.29299223 5
2.1670403 3.1170332 -0.30533773 5
2.0215657 3.9459014 -0.319942 5
2.3215878 7.0752769 -0.45618537 6
2.1994445 -2.9078219 0.13781959 9
2.2545409 -2.6795893 0.022589123 8
2.2090464 -1.2040455 0.067996487 9
2.077636 -1.0153953 0.11768266 9.6000004
2.1276855 7.0122447 0.17622198 8
2.25946 -2.9232712 0.51244885 12
2.2573206 -0.80805999 0.48577634 14
2.2800655 7.1425409 0.57061493 9.25
2.2177181 -2.8840206 0.90286732 15
2.2759709 7.1540394 0.94494879 10.5
2.2929025 7.1585608 1.3202918 12
2.3013971 7.1794543 1.7865578 13.666667
2.1865039 7.1389971 2.078881 15
2.4217908 0.93480802 -0.26407966 5
2.6139836 1.3711051 -0.27557114 5
2.6699805 1.8342769 -0.2771813 6
2.5711832 2.250617 -0.2829228 5.5
2.6401877 2.9959102 -0.30698302 6
2.428076 3.5710783 -0.32145488 5
2.7604568 4.1501508 -0.34012985 6
2.5900974 -2.886822 0.20182648 9.5
2.5993776 -2.5672209 0.061068214 8.5555553
2.7801249 -1.676978 -0.0245435 8
2.6446364 -1.3079884 0.070310093 9
2.5805669 -0.93663025 0.072083369 9
2.6959321 -0.77762872 0.20143229 10.5
2.6488116 -2.901273 0.46847266 11.5
2.6525862 -1.2195717 0.42653832 12
2.6583793 -0.93619984 0.39270997 12
2.6627319 -0.76593369 0.3786715 12
2.697042 7.1799664 0.50191087 9
2.6220298 -2.8548527 0.94386655 15
2.63641 7.181788 0.91088241 10.666667
2.6741996 7.1866693 1.3752462 12
2.5122213 7.1912065 1.9243547 14
2.6774905 7.2130485 1.706581 13.333333
2.5627811 7.1607022 2.0898714 15
2.822711 7.2059593 2.1904478 15
3.1137855 -2.7987962 -0.16111344 7
2.8438723 1.1279538 -0.2786074 6
2.9737175 1.3792735 -0.28388155 6
2.9912171 2.681941 -0.29754257 6
2.9747949 3.4391685 -0.32195979 6
3.111146 -2.7523148 0.11717612 9
3.1368876 -1.6031153 -0.012242118 8
3.1742854 -1.3383963 -0.060506497 7.5
2.9022703 -0.84775251 0.082948193 9
2.9973965 7.1528177 0.27243233 8
2.9818971 -2.8336277 0.45880911 11.285714
3.1942894 -2.7849705 0.41822752 11
3.0281441 -1.2591269 0.38348079 12
2.8840811 -1.1250656 0.38822779 12
3.1555877 -0.75126266 0.37969509 12
3.0547988 7.0505543 0.5130015 9
3.0922835 7.2088189 0.5276199 9
2.9566638 -2.8166013 0.84017098 14
3.1391253 -2.7813499 0.84215564 14
3.0477879 7.2181311 0.92583507 10.5
3.0275333 7.2205906 1.2994682 12
3.0730538 7.2400932 1.7319653 13.5
2.8797996 7.1297832 1.99994 15
3.0785899 7.2463651 2.0883403 14.5
3.3734202 -2.8247676 -0.17587084 7
3.4509654 1.8857244 -0.29828525 6
3.2701054 2.3149076 -0.29619238 6
3.3988619 3.0999334 -0.31375009 6
3.4498906 4.0675116 -0.34587303 6
3.2741816 7.0287561 -0.29700565 6.5
3.3900578 -2.8120782 0.089729689 8.7142859
3.4875865 -2.7742417 0.0164403 8
3.419698 -1.5141891 0.14529073 9
3.3841295 -0.85700577 0.065243758 9
3.412137 -0.74168819 0.067581944 9
3.4086206 7.2252045 0.24493012 8
3.2947044 -2.810878 0.25942025 10
3.4012003 -2.7762096 0.42972642 11
3.5128903 -1.5544046 0.29702449 10.666667
3.4200897 -1.1550484 0.40009603 11
3.4703646 -0.68280882 0.3614907 11.333333
3.3808112 6.6350155 0.50854725 9
3.4173968 6.8290501 0.47886181 9
3.3336086 7.2318645 0.51103902 9.333333
3.3750529 -2.7637129 0.85958976 13.666667
3.3792477 6.5272889 0.75334322 10.5
3.4697006 7.2458124 0.90664095 10.5
3.5448022 -2.7329686 1.1825708 15
3.5550487 6.4714737 1.3242064 12.5
3.4953096 7.2582779 1.3306096 12
3.4363527 6.6065416 1.4911646 13
3.508455 7.2746067 1.7271779 13.5
3.6605515 6.5295959 2.0580864 15
3.5000777 7.1802573 2.0183225 15
3.5537083 7.2821069 2.1609561 14.666667
3.755197 -2.7158413 -0.24194032 6.3333335
3.763365 -2.7124314 0.032124087 8.1999998
3.6699531 -1.5314293 0.14564253 9
3.7764058 -1.0899464 -0.096064128 8
3.8076003 -0.7389226 0.0051122587 8.5
3.8281333 7.1868014 0.23545963 8
3.8574901 -2.6999419 0.37544701 10.5
3.7019725 -1.5280936 0.32324642 10.5
3.6747127 -1.1946003 0.36115286 11
3.8699417 7.1552544 0.48208141 9.333333
3.8473942 -2.6865706 0.86427933 13.4
3.6909614 6.3917236 0.84086013 11
4.0122809 6.4385819 0.88083977 11
3.8587778 7.1732774 0.86593795 10.5
4.0261703 -2.6555772 1.1355658 15
3.7224705 6.3788233 1.3521559 12.5
3.9328525 7.193336 2.0278559 14
3.7981706 7.236721 2.0985122 14.5
4.2285104 -2.7190871 -0.26037917 6.5
4.254365 -1.1829485 -0.27523792 6
4.3168874 1.8040515 -0.31585726 6
4.3358397 3.167377 -0.33439857 6
4.3259673 6.9795394 -0.22563669 7
4.2089543 -2.7128584 0.049895674 8.5
4.1962185 -1.5355592 0.15258946 9
4.1066046 -0.66001183 -0.020948354 8.25
4.1371622 -0.35094383 -0.16297534 7
4.3423333 4.3311253 0.13772288 8
4.2805986 7.0230141 0.020230113 8
4.2508149 -2.7051978 0.37077785 10.5
4.2028837 -1.6221586 0.35177055 10.333333
4.3578053 -1.5717883 0.33992058 10.5
4.2613759 -0.63641417 0.34220394 11
4.2301908 4.5738363 0.53350598 10.5
4.2064471 5.1032887 0.39861926 9
4.0756664 6.2704234 0.62986737 10
4.1279125 6.7013044 0.28346562 9
4.083241 7.027288 0.35145614 9
4.2891812 -2.6643176 0.9286477 13.5
4.3229179 3.8085067 0.79125094 12
4.2348514 4.2240362 0.88438034 12
4.2895837 4.5417151 0.74067241 11.5
4.1388454 5.1064429 0.90724277 12
4.1553965 5.4798255 0.82220364 11.5
4.1629605 5.84868 0.95082498 11
4.1074438 6.1601553 0.96295995 11.333333
4.0668507 6.6575828 0.77988547 10
4.0784445 6.9481745 0.80076379 10.5
4.0394173 7.2160358 0.97309023 11
4.2287507 5.0611005 1.2101165 13
4.1872606 5.3747711 1.2305404 12.8
4.1647487 5.9576249 1.2801298 12.5
4.1234422 6.1959991 1.0779849 12
4.1409101 6.8007135 1.0912479 11
4.2833085 4.9349656 1.7168646 15
4.2044907 5.4583817 1.4509081 14
4.7469802 -2.6896157 -0.23577766 7
4.4483852 -0.63575864 -0.2895242 6
4.4788022 2.5172803 -0.32840335 6
4.6451507 -2.6698537 0.18559335 9
4.4273934 -0.60408074 -0.074852742 8
4.6373696 -2.6554048 0.40460694 10.5
4.4722409 -0.59161544 0.34746033 10
4.6437817 -2.6387882 0.93599194 13
4.6784916 -2.6276214 1.0589839 14
5.1394525 -0.25466499 -0.25792351 7
5.1254416 0.52965033 -0.23922749 7
5.0623622 0.3710393 -0.11319635 7.5
5.0818858 0.65158266 -0.18931799 7
5.1897244 5.4244981 0.012903973 8
5.1396956 5.6696978 0.37459338 9
5.1366858 7.4026837 0.47489813 9
5.1407409 7.3884912 0.70091695 10
4.939239 -2.5908778 1.1510613 14
5.0633101 7.4473686 2.0208848 13.5
5.5131826 -1.6526529 -0.29361716 7
5.5013623 -1.4391971 -0.30772212 7
5.5849853 -0.86866051 -0.37593752 6
5.3557806 0.17259555 -0.2327058 7
5.2647834 1.3963724 -0.29638806 7
5.3872657 4.0059886 -0.3820987 6
5.5473218 -0.42098525 -0.16692984 7
5.3360519 -0.27004668 -0.13368413 7.6666665
5.4059472 0.31886569 -0.16707243 7.5
5.4289427 1.4392816 -0.11336983 7.3333335
5.5832324 1.6264393 0.044769939 8
5.5667825 3.2027164 -0.18871368 7
5.520422 3.4244328 0.022268964 8
5.4309649 4.1915436 0.0078767175 7.6666665
5.2996192 5.3239169 -0.089088373 7
5.5317101 -1.8398186 0.25912485 10
5.4957585 -1.3469524 0.30829465 10
5.603303 1.4768958 0.28340843 9.333333
5.6063485 1.6331056 0.26049069 9.5
5.5499668 4.0782857 0.20416974 9
5.6114874 4.6518331 0.40659413 9
5.3276725 5.4929576 0.40437263 9.25
5.4620533 7.1311064 0.59536767 10
5.6194758 1.4617544 0.74261439 11.8
5.6032801 1.62061 0.61412144 11
5.4466114 7.1452279 0.68573552 10
5.2338572 7.3802428 0.82001066 10
5.6387472 1.4175152 1.2452502 14.4
5.6160941 1.5928904 1.390848 15
5.3508301 7.4312639 1.6001765 13
5.8767948 -2.0742388 -0.36790782 7
5.8919439 -1.1671818 -0.27201962 7
5.7359066 -0.75613463 -0.37831518 6
5.7273412 -0.10273745 -0.34044799 6.5
5.7591662 0.16520616 -0.32704511 6.6666665
5.6908035 1.2963126 -0.23619018 7
5.7812967 -1.2028099 -0.096281864 8
5.7867403 -0.89398837 -0.22071613 7
5.8482757 -0.57923734 -0.028837193 8
5.775279 -0.12730141 -0.033058032 8.1999998
5.7822361 0.17351727 -0.043667004 8.1999998
5.7244496 0.66497928 -0.02395916 8.166667
5.6916246 1.0125368 -0.04970463 7.8333335
5.639792 1.3469895 -0.10385875 7.75
5.7874374 3.5158765 -0.19411831 7
5.6527662 3.9960585 0.088638686 8
5.9103632 5.1486669 -0.1833238 7
5.8650584 7.4320416 0.054326098 8
5.8956985 -0.94951934 0.3078745 10
5.8604107 -0.53118384 0.38482979 10.166667
5.8254004 -0.17483205 0.3136262 9.6000004
5.7942934 0.19806279 0.35142201 9.833333
5.7587767 0.58731651 0.39065635 10.5
5.6910334 1.0365613 0.38514429 10.166667
5.6290007 1.3444186 0.33259478 9.8000002
5.6787429 4.5689912 0.37369317 9
5.8693871 7.4492812 0.32310781 9
5.9276733 -1.2872598 0.65405965 11.5
5.9112272 -1.0175086 0.76875585 12
5.879148 -0.57541806 0.73989177 11.666667
5.8474131 -0.19699506 0.75156409 12.125
5.8157606 0.16171704 0.76575017 12
5.7747426 0.57806748 0.71990556 11.6
5.7052512 1.0312293 0.76314986 12
5.6411443 1.3499583 0.73103958 12
5.9670758 7.4650455 0.9065032 10
6.031477 -2.5776865 1.135532 13.4
6.0283523 -2.229615 1.1527578 13.4
5.9923282 -1.831809 1.1505766 13.4
5.9554005 -1.3827405 1.1503187 13.5
5.92522 -1.0147755 1.1534555 13.5
5.8906307 -0.57594579 1.1407789 13.666667
5.8610687 -0.17681946 1.1770895 14
5.8266935 0.19976455 1.2094758 14
5.790143 0.61058027 1.1190627 13.5
5.7390275 0.99415243 1.1912868 14
5.6633768 1.3049928 1.1368996 13.666667
5.9971566 7.4945297 1.1691717 11
5.9912281 -2.6640103 1.498129 15
6.0578547 -2.1138535 1.5128113 15
6.0129199 -1.7579056 1.4645052 15
5.9788952 -1.4179285 1.4608929 15
5.9328904 -0.96043909 1.4548627 15
5.8949699 -0.61186182 1.3947444 15
5.8619704 -0.22135147 1.440292 15
5.8201447 0.21673256 1.426105 15
5.7909694 0.59932429 1.407958 15
5.8574996 7.5182037 2.1524711 14
5.858963 7.2339315 2.3462648 15
6.0215158 -2.625412 -0.43807083 6
6.063848 5.8568234 -0.33975428 7
6.3397241 3.6482272 -0.0062446338 8
6.2410245 4.1031413 -0.21135138 7
6.1837554 7.4625087 0.01740923 8
6.1144762 -2.9202514 0.28665316 9.333333
6.3770361 3.544492 0.30599716 9
6.3110218 3.8588572 0.29674724 9.25
6.2492814 7.454443 0.28900102 9
6.1804614 7.4634113 0.85186696 10
6.1571321 -2.9715021 1.1255736 12.666667
6.2478447 7.4693613 1.1321979 11
6.2046504 -3.0288928 1.4080542 14
6.0992327 -2.5091965 1.6062618 15
6.0839562 -2.3112109 1.6877053 15
6.2237315 -3.0350742 1.7332942 15
6.1656299 7.4985123 2.2670746 14
6.4957891 3.7715144 -0.36054093 7
6.7305226 3.6682227 -0.042484686 8
6.7351141 5.5460234 -0.17350464 7
6.565732 7.1995783 -0.044836581 8
6.4518747 3.5170026 0.41840973 10
6.7893252 3.6983685 0.16558881 9
6.5427423 7.170877 0.54768103 9
6.4976873 7.2336717 0.24072336 8
6.4879055 7.3083067 0.82848394 10
6.5031843 7.3187814 1.1549635 11
6.5375175 7.259088 1.4214064 12
6.9933209 5.2213225 -0.22917032 7
6.8449407 5.6672792 -0.034853578 8
6.9754572 7.1583867 1.1239349 11
7.004756 7.1763744 1.4744667 12
6.9820023 7.1513944 1.8238366 13
7.1199975 4.7488661 2.2613218 15
7.0181146 4.9286075 2.2942162 15
7.0661559 7.2808695 2.2198095 14
7.2005634 5.1966667 -0.015087488 8
7.3332396 4.6412926 2.25999 15
8.1780357 5.8098326 -0.34177509 7
8.3272085 5.6950121 -0.14208035 7.5
8.3325262 4.3433471 0.35455006 9
8.5886793 3.9091861 0.046188153 8
8.4480228 4.4223495 -0.14378864 7.5
8.4589577 5.6958013 -0.044169329 8
8.7695599 7.6154408 -0.10927244 8
8.5624952 4.2756114 0.086663164 8
8.754117 7.6468368 0.26047066 9
8.6577702 7.6905241 1.001848 10
8.7026033 6.1063328 1.9901763 13
8.7743101 6.3994031 2.3678389 14
9.1683216 3.9122541 0.0018448436 8
9.0998936 7.0334773 -0.27597082 7
9.2244081 5.3996749 1.9576854 13
8.9288063 5.8214121 1.9479123 13
8.9306679 3.4858971 2.2089159 15
9.0582762 5.3818541 2.2104647 14
8.9663296 5.8088565 2.2080235 14
9.1312771 7.5643334 2.3161366 13
9.5060015 4.1477461 -0.43384045 7
9.5415468 4.4314442 -0.41492206 7
9.2216873 4.0036998 0.082663514 8
9.3915453 4.3605981 0.30933055 9
9.4672365 7.7530942 0.77214521 10
9.3878574 7.7618937 0.97835332 10
9.5196133 7.7855339 1.5311992 11.333333
9.3767614 5.3851457 1.8914095 13
9.3994284 5.7439828 1.9626564 13
9.5978155 5.3190536 2.1945333 14
9.4821196 7.5758414 2.3289442 13
9.3825274 7.5600266 2.6721258 14
9.9928465 7.8016233 0.7529363 10
9.7667446 7.7537189 1.4414259 11
9.7617064 5.3184214 1.9040637 13
9.8109236 7.574429 2.3410652 13
9.9623175 5.4962058 2.7717214 15
9.8295021 7.5685253 2.7097356 14
10.111964 4.093452 2.7978799 15
10.284749 3.6455913 -0.56304866 7
10.167636 3.550051 -0.39958897 7
10.096352 3.7290695 -0.21097448 7.5
10.255191 3.5097151 0.28614566 9
10.365881 4.5306568 0.43109486 9
10.079823 7.8045635 0.75062925 10
10.104335 7.8129444 1.5444982 11
10.465177 5.9484 1.7020481 12
10.183459 7.7477369 2.2078028 12.5
10.405115 5.2630253 2.7756896 15
10.530084 3.6251369 -0.13418832 8
10.817421 4.3592238 0.31180295 9
10.503398 4.521637 0.34545967 9
10.587078 7.8552003 1.1500691 10
10.710124 7.8751678 1.6466715 11
10.620439 7.7999382 2.033432 12
10.650038 5.0679169 2.7640634 15
10.659949 5.8500519 2.4248929 14
10.718817 7.6642723 2.5584803 13.5
10.80288 3.5279222 2.7915478 15
10.555374 3.7157125 2.7892532 15
10.778489 7.494905 2.7823653 14
11.185478 7.9143391 1.1482722 10
10.864835 7.8503027 1.4937654 11
11.095193 7.7577415 2.0403121 12
10.928318 4.8837543 2.7604651 15
11.227393 7.6511459 2.7506518 14
11.2713 4.7175136 2.772512 15
11.586585 7.3130999 1.7045815 12
11.312958 7.9078889 1.6544893 11
11.65736 7.7503572 2.0559211 12
11.70266 4.2514567 2.7371876 14
11.963512 4.7700367 -0.12707581 8
11.897745 4.4770231 0.27576044 9
11.830132 7.9594975 0.7009474 9
11.814946 7.921917 1.1225578 10
11.832886 7.9763799 1.1457711 10
11.945459 7.9786649 1.6310191 11
11.981607 3.7474833 2.1966896 13
11.967587 4.21135 2.2312093 13
11.940426 4.6446195 2.3093557 13
11.907417 5.4760528 2.0689659 13
11.810165 6.092134 2.1745055 13
12.007535 3.8194156 2.5753083 14
11.987575 4.2645359 2.4095178 13.5
11.941024 4.7941418 2.5641079 14
11.9107 5.017519 2.479403 13.5
11.889374 5.394887 2.5087707 13.333333
11.865825 5.793189 2.6024728 13.5
11.823188 6.0937014 2.6487491 14
11.943645 4.0200024 2.7262161 14
12.365414 3.9979389 -0.58281773 7
12.169981 6.0020242 -0.58866662 7
12.061929 4.8541937 -0.47273836 7
12.520175 8.0286636 1.1393497 10
12.691707 8.018362 1.598331 11
12.916469 5.0576849 0.1429764 8
12.94106 4.9821091 0.39170262 9
13.269277 8.0836115 1.6249131 11
13.328762 8.126092 1.1384914 10
13.331761 6.0137329 1.8228295 12
13.655177 4.0636268 -0.70890796 7
14.047661 8.1325073 1.6424521 11
14.255217 8.1868877 1.2733035 10
14.512072 7.0716558 0.45589682 9
14.741585 4.8940191 0.69577366 9
14.642742 5.6103239 0.78973126 10
14.597156 6.3679814 0.88964319 10
14.564817 6.748971 0.93876106 10
14.522505 7.1339207 0.98879755 10
14.729761 4.9169393 1.2458689 10
14.687991 5.3717794 1.2313416 10.333333
14.671526 5.6936846 1.3547602 11
14.649027 6.2485056 1.214426 10
14.751608 7.5279913 1.3512684 10
14.667723 7.622499 1.04993 10
14.711948 4.6773043 1.6715199 11
14.739698 5.1074233 1.4145752 11
14.501548 7.9723387 1.6263524 11
14.728447 8.3192101 1.7459534 11
15.259959 6.7820129 1.5207005 11
15.107183 7.544405 1.6065805 11
14.923184 7.7767882 1.6041582 11
15.343087 10.874294 0.86095101 9
15.510674 6.4548211 1.4771448 11
15.518294 7.3464823 1.6077358 11
15.968556 5.1484103 1.1255665 10
16.011829 7.2065535 1.6540251 11
16.28854 5.1803761 -0.42125976 7
16.726751 6.1846347 1.9919547 11
16.693064 6.6179628 2.0577757 11
16.82686 5.1370487 2.346658 12
16.81431 5.5478225 2.4148099 12
16.762564 5.9532232 2.4789045 12
16.69212 6.2994437 2.5373843 12
16.537632 6.7263269 2.5984359 12
16.524023 7.0930676 2.6641397 12
16.961218 5.1714697 -0.32478151 8
17.214817 5.2873092 0.70586371 9
17.247761 5.3040495 1.3440723 10
17.370344 5.632792 0.15449376 8
