# .PCD v0.7 - Point Cloud Data file format
VERSION 0.7
FIELDS x y z intensity
SIZE 4 4 4 4
TYPE F F F F
COUNT 1 1 1 1
WIDTH 112
HEIGHT 1
VIEWPOINT 0 0 0 1 0 0 0
POINTS 112
DATA ascii
-0.0036766145 -0.97193033 -0.20605166 153
0.017009033 -0.91876149 -0.20424174 158
0.14386678 -0.95010978 -0.20765473 159
0.2723738 -0.94624591 -0.21613143 162
0.39871681 -0.90762258 -0.21617819 163
0.049354274 -0.83830184 -0.20494413 168.25
0.1724357 -0.83640319 -0.20672937 169.2
0.28269455 -0.84220105 -0.20842472 168.5
0.39531779 -0.84350359 -0.20761061 174
0.39758769 -0.81588769 -0.21621701 173.5
0.50229686 -0.81222665 -0.21042594 172.5
0.081823073 -0.75716412 -0.20516703 177.66667
0.13161674 -0.72596288 -0.20548162 181.66667
0.24149373 -0.73269856 -0.2063507 179.57143
0.36241308 -0.72904539 -0.21039453 186.5
0.48882824 -0.73049736 -0.20473507 179.25
0.58867514 -0.72170037 -0.21823707 175
0.60274577 -0.77036035 -0.22003171 176
0.12308528 -0.65340728 -0.20462497 187.5
0.21956062 -0.64521992 -0.20223251 189.33333
0.34684438 -0.63201547 -0.19587713 189.875
0.47958675 -0.65984559 -0.20772713 189
0.57472694 -0.67502224 -0.21506052 183.33333
0.65770829 -0.64110082 -0.21292536 189.33333
0.74919027 -0.61759126 -0.21918419 200
0.1600941 -0.55187815 -0.19300757 186.57143
0.23960802 -0.55379272 -0.19191426 187
0.35069689 -0.55013996 -0.19449839 186.5
0.46155685 -0.5552119 -0.19796376 187.57143
0.5358209 -0.5451746 -0.2059705 189
0.61774731 -0.52361566 -0.2003431 191.16667
0.75842267 -0.55158013 -0.2190183 197.5
0.80675858 -0.54351974 -0.21414749 198.5
0.18959485 -0.47903398 -0.19449341 183.83333
0.25698134 -0.45550725 -0.20167302 180.83333
0.35716707 -0.46773818 -0.20149338 181.5
0.44789901 -0.45217821 -0.20200945 181.54546
0.53616989 -0.44006762 -0.19919659 183.83333
0.65306574 -0.44565374 -0.2061324 191.66667
0.73122853 -0.43433788 -0.20064612 194.28572
0.8507601 -0.46469024 -0.21501365 198
0.26131284 -0.36351329 -0.20228165 175.0625
0.35876042 -0.35659373 -0.20549589 174.71428
0.45092171 -0.33229333 -0.2057754 176.05556
0.54526013 -0.34085652 -0.20956232 179.23077
0.63772899 -0.35047123 -0.20067619 186.83333
0.75496691 -0.34320354 -0.20212215 191.75
0.83111262 -0.34866533 -0.20488669 195.25
0.91876781 -0.31634584 -0.21996185 196.5
0.46587408 -0.2891891 -0.21145107 174.5
0.54989183 -0.25201809 -0.20622231 177.60715
0.6472891 -0.2543453 -0.20674515 182.71428
0.72728115 -0.23292845 -0.19934872 186.94444
0.84169251 -0.2395553 -0.20285057 193.45454
0.9258216 -0.23618014 -0.21291119 196
0.5845806 -0.18363447 -0.21192394 178
0.6321249 -0.14672658 -0.20501116 179.15384
0.75373739 -0.13615039 -0.2015691 186.22223
0.84265691 -0.15092394 -0.1994542 191.88889
0.93486398 -0.1645004 -0.21085085 195
0.65628558 -0.08117865 -0.20638242 179.25
-0.3611882 0.19150935 -0.18455085 157
-0.24652857 0.16005115 -0.16570568 151
-0.14910509 0.16257122 -0.18184026 155.53847
0.068508357 0.16553108 -0.16566414 164.66667
0.13049126 0.16895898 -0.16889021 139.375
-0.35207188 0.28589672 -0.18027475 154.39999
-0.24510612 0.24314304 -0.17324193 154.5
-0.16854395 0.21344161 -0.17432947 155.33333
-0.62293541 0.39122272 -0.17787841 123.5
-0.56599551 0.36875036 -0.17615348 133
-0.45002487 0.32407531 -0.18005897 147.5
-0.14046547 0.36943871 -0.1769796 154.57143
-0.049493462 0.34458306 -0.18210116 162.26666
-0.72116125 0.42952916 -0.17768371 114
-0.66360885 0.40638831 -0.17304175 117
-0.25488031 0.45215285 -0.18158008 152.66667
-0.14503269 0.44110429 -0.1790261 155.33333
-0.051076248 0.45225665 -0.18183738 156.54546
0.053095594 0.43983027 -0.18637338 168
0.14120001 0.4709827 -0.19270219 179
0.22169565 0.48691788 -0.19555123 175
0.35260764 0.48519471 -0.19595431 187
0.44519478 0.46191156 -0.19898678 185.75
0.53143483 0.431633 -0.20012966 185.25
-0.44308943 0.58558583 -0.1781663 134.5
-0.3571775 0.52452493 -0.17910546 146.33333
-0.24722868 0.57487929 -0.1819431 147.33333
-0.15004565 0.54954672 -0.18036002 150
-0.062437024 0.52212507 -0.18538813 155
0.031439647 0.53729802 -0.18470979 155.60001
0.12501107 0.56321889 -0.18923661 166.16667
0.21154867 0.51510644 -0.19257428 176
-0.60565209 0.69948089 -0.16946347 113
-0.54508764 0.65747207 -0.17448263 120
-0.28002506 0.60316908 -0.17582965 147
-0.17029075 0.64852333 -0.18249981 147.66667
-0.031446051 0.6349116 -0.18533389 150
0.059742842 0.66810477 -0.18689781 146
-0.65314245 0.73368263 -0.17077701 108
-0.46496651 0.77337879 -0.17681499 121
-0.2703712 0.7652657 -0.17837226 136
-0.092497863 0.72840345 -0.18335021 147.5
-0.52949822 0.83201569 -0.17462322 115
-0.16441026 0.83886796 -0.18171623 136
-0.39512575 0.91101944 -0.17379361 123
-0.22382225 0.92980564 -0.17969216 123
-0.22983317 0.14421292 -0.05957729 144.875
0.077697784 0.1378478 -0.045994624 127.7619
0.11141717 0.1273782 -0.087103128 131
0.041693974 0.14745691 0.0059622834 121.6
-0.007489325 0.22579925 0.02599738 137
