# .PCD v0.7 - Point Cloud Data file format
VERSION 0.7
FIELDS x y z intensity
SIZE 4 4 4 4
TYPE F F F F
COUNT 1 1 1 1
WIDTH 105
HEIGHT 1
VIEWPOINT 0 0 0 1 0 0 0
POINTS 105
DATA ascii
-1.811482 3.0613883 0.3861199 10
-1.8008369 2.4448736 0.63710177 13
-1.814667 3.0736625 0.62052381 12
-1.828752 3.5385509 0.56047362 11
-1.804529 2.6824338 0.79358965 14
-1.8090236 2.7770829 0.93239677 15
-1.8380721 3.5301974 0.95320743 13.5
-1.800527 3.5706925 1.1554694 15
-1.6017984 -1.5327897 0.28945509 10.5
-1.618847 -1.1985213 0.23042582 10
-1.6207381 -0.93813705 0.381639 12
-1.6373537 -0.6188103 0.26834133 11
-1.652882 -0.59786379 0.36751607 12.5
-1.7868315 2.2594693 0.38505945 10.5
-1.6917552 3.6017115 0.42629984 10
-1.6227808 -1.2142223 0.51983732 14
-1.6480149 -0.57614315 0.53388011 15
-1.7483661 1.2944885 0.48848751 13
-1.7732745 1.7446853 0.53065759 13
-1.7793463 1.8033197 0.63480252 14
-1.7777984 2.0164061 0.50897038 12
-1.7613568 1.5102142 0.67472053 15
-1.7878802 2.1048064 0.73883784 14.5
-1.6855383 3.593946 0.67616385 12
-1.5648099 -0.93082887 0.28258541 11
-1.4080167 3.6226187 0.36642116 9
-1.3625358 -0.94726396 0.32261491 12
-1.3735753 -0.63590431 0.3238644 12.5
-1.2883348 -1.3173337 0.51810515 14.5
-1.3615478 -0.92955154 0.48604539 15
-1.3724567 -0.6506806 0.4472377 15
-1.0112967 -1.0111097 0.28608188 12
-0.87225819 -1.0289658 0.31518438 13.333333
-0.60072649 -1.2771783 0.25852108 12
-0.61545658 -1.0032229 0.27562609 13
-0.61560529 -1.2481668 0.41461706 15
-0.65907866 -3.417593 0.99147409 15
-0.39241195 -2.0934248 0.21247818 10
-0.39828241 -1.7191999 0.24181208 11
-0.45815763 -1.2967972 0.31681022 13.5
-0.58728319 -1.0120348 0.28199932 14
-0.38958025 -0.7722491 -0.23521447 0
-0.16485725 -0.94350427 -0.23511785 0
0.11098699 -1.0099282 -0.2355196 1
0.15809548 -0.82229227 -0.21801865 0
0.051958468 -0.79104918 -0.22787857 0
0.1590101 -3.3670945 0.75559556 13
0.32413375 -0.89010113 -0.22015293 0.5
0.32659146 -2.7566478 0.3196688 10
0.29344007 3.677696 0.42881301 10
0.34812412 3.6692257 0.65236366 12
0.52783328 -1.1381845 -0.2186985 2
0.4693675 1.1561508 -0.12971544 4
0.45008457 -3.2672563 0.82325554 14
0.68610042 -1.1494292 -0.2179119 3
0.64045125 -0.97703654 -0.21510604 2
0.79765433 3.7018542 0.72748387 13
0.80734062 0.61751211 -0.15917578 3
0.82299197 -2.7504802 0.5275858 13
1.0968258 -2.8286197 -0.13370211 6
1.0997431 0.79559153 -0.13978541 5
1.215748 -2.7732384 0.74823248 14
1.1174165 -3.3362236 0.8912462 14.5
1.238312 -2.7213244 0.15853535 9
1.2743989 -2.7817278 0.82555646 15
1.5155102 3.7315633 0.3329258 10
1.4048967 3.7224238 0.54377913 11
1.7186751 -2.7072897 0.24581592 9.5
1.6925942 -2.6942849 0.43745863 11.5
1.6827514 -2.6951623 0.80643672 14.5
1.6511911 3.6975677 1.0807223 15
2.1774299 -2.6724205 0.067036308 8
2.2045059 -2.6754489 0.26261932 10
2.2285039 -2.696897 0.9810831 15
2.2414849 -2.6714385 0.16557555 9
2.2520485 -2.6786816 0.48041904 11.5
2.2621601 -2.684495 0.62915194 13
2.2340879 -2.6927118 0.81720096 14
3.4100702 -2.9316494 0.13170828 8
3.6710238 -3.2614894 1.3169264 15
3.8534524 -3.2478852 0.6152792 11
3.860173 6.700223 1.6757438 13
3.9865568 6.6955142 1.7883803 14
4.3294415 -3.2398396 1.1413392 14
4.3397517 -3.2402637 1.3970644 15
5.0820904 5.0072198 1.625577 14
5.2334795 -3.2017622 0.80332589 11
5.2469006 -3.2226815 1.5906143 15
5.5527792 -3.2116899 1.3425831 14
6.4229188 0.94482309 1.3117168 13
6.4755473 0.83909625 0.16466844 8
6.4502673 0.68359923 0.41101697 9
6.4433618 0.63691062 0.50314456 10
6.4341259 0.96925586 0.69970816 11
6.5538573 -0.41912338 0.90318024 12
6.4408517 0.82274693 0.99587524 12
6.6317067 -2.0748577 1.2064638 13
6.5598965 -0.54263359 1.3634681 14
6.5771503 -1.2700534 1.5743712 14
6.4504848 0.46845618 1.488987 14
6.6190681 -2.4915397 1.7230622 14.5
6.4388747 0.60517997 1.6785095 15
6.6037912 -1.6865889 1.9112571 15
6.6871986 -3.4539175 1.5454926 13
15.632882 4.2419248 1.9829495 11
