# .PCD v0.7 - Point Cloud Data file format
VERSION 0.7
FIELDS x y z intensity
SIZE 4 4 4 4
TYPE F F F F
COUNT 1 1 1 1
WIDTH 120
HEIGHT 1
VIEWPOINT 0 0 0 1 0 0 0
POINTS 120
DATA ascii
0.37720966 -0.82414669 -0.21006122 168
0.48507199 -0.81272483 -0.20985994 178
0.58963454 -0.80301005 -0.1966382 171
0.37653247 -0.72180349 -0.20461382 186
0.47492918 -0.74301386 -0.20473969 179.75
0.57928276 -0.75650078 -0.20242807 176.5
0.26519853 -0.62506884 -0.20039453 189.33333
0.3764216 -0.64364487 -0.20183744 188.60001
0.46363851 -0.65811294 -0.20206067 184.75
0.55498952 -0.66587478 -0.20006971 184.75
0.15405546 -0.53328234 -0.20048097 186
0.24230585 -0.56234086 -0.19753656 187.88889
0.34199047 -0.54333144 -0.19341783 186.54546
0.44596556 -0.54681391 -0.18907931 187.28572
0.52050364 -0.54878807 -0.18680672 188.57143
0.066885829 -0.44260019 -0.19772933 185.33333
0.1493239 -0.46291694 -0.19603223 183.90909
0.24680535 -0.48081559 -0.19628023 183.2
0.35089812 -0.46047246 -0.19717456 181.29411
0.46340826 -0.44032329 -0.19290304 181.45454
0.50133985 -0.48299435 -0.18011695 185
-0.23506634 -0.35272738 -0.17337805 175
-0.060401976 -0.33819917 -0.19887508 185
0.07891392 -0.30038336 -0.20145726 177
0.1600759 -0.33814421 -0.2008868 176.09091
0.25465977 -0.36045179 -0.19940236 174.66667
0.3538146 -0.35401928 -0.1976691 174.04546
0.44388232 -0.33525258 -0.19483018 174.34616
-0.20379561 -0.24683678 -0.18498117 182
-0.17771952 -0.2457628 -0.16317108 178.33333
-0.087492913 -0.25453594 -0.10594968 170
0.061265178 -0.26189351 -0.19909759 176
0.10632031 -0.20037808 -0.1551023 165
0.26811746 -0.22367747 -0.20242387 166.95238
0.34926409 -0.22752361 -0.20181361 167.65715
0.42607388 -0.22690387 -0.20128565 167.8421
-0.16282931 -0.15545386 -0.19506481 183
0.065084703 -0.17869279 -0.1691276 171.5
0.17521067 -0.13709605 -0.15229282 140.06451
0.24911568 -0.14512214 -0.19797589 161.61627
0.34770456 -0.1448791 -0.19980614 156.36607
0.41151044 -0.15330866 -0.19868423 157.80556
-0.22053571 -0.08980523 -0.12689762 185.69231
-0.18788128 -0.088290371 -0.17396908 167.33333
0.16422987 -0.056640688 -0.19605294 161.89189
0.23942913 -0.071716405 -0.19914491 156.23334
0.36069828 -0.034997158 -0.19938764 154.04546
0.40374786 -0.088004217 -0.20480067 164
0.38295418 0.040934488 -0.20266642 157.20833
0.44868547 0.056052998 -0.1981784 160.50331
0.53365594 0.06050374 -0.19770607 150.88524
0.63704669 0.069497012 -0.18197528 149.65854
0.75002885 0.075184308 -0.16283266 153.54546
0.84229368 0.094456375 -0.15152907 165.42857
0.35920468 0.14867964 -0.19398962 153.125
0.44093063 0.14607826 -0.19193944 151.45
0.54907221 0.15577434 -0.197395 152.03448
0.62834769 0.1454026 -0.1734972 149.30952
0.74384433 0.15162502 -0.15693854 159.84
0.85425919 0.16085953 -0.15132396 167.83333
0.93004525 0.1367728 -0.15847768 165.33333
0.29084498 0.29294413 -0.2023696 151.66667
0.33910987 0.24363486 -0.19068629 149.45097
0.43946242 0.25150299 -0.1891014 149.33333
0.5399909 0.24392688 -0.17643028 148.38461
0.65212369 0.25277013 -0.16580591 158.42857
0.72424078 0.24560118 -0.1535573 167.33333
0.82868671 0.25173938 -0.1522769 170.88889
0.93001169 0.26498106 -0.16658393 166
0.26701155 0.35918525 -0.19114873 170.5
0.34058169 0.349733 -0.18661016 164.58824
0.43737897 0.33818066 -0.1733079 161.67647
0.55065799 0.35652947 -0.16978101 166.4375
0.64150095 0.34420311 -0.16106761 170.33333
0.74675423 0.3545709 -0.15568751 172.11111
0.84438539 0.35716829 -0.15845466 168
0.92136264 0.35190654 -0.16118819 162.33333
0.24995176 0.47489101 -0.18206954 177.63158
0.33634105 0.46473709 -0.18733232 178.11111
0.44818065 0.46097171 -0.17541592 178.75
0.54975295 0.43448004 -0.1651914 178.0625
0.65101385 0.45169619 -0.15748128 177
0.73869252 0.44628114 -0.15359668 173.60001
0.84723121 0.45371547 -0.15882824 164.5
0.18803245 0.58165771 -0.15887876 160
0.24784 0.54684216 -0.16232246 170.92308
0.34886011 0.5541907 -0.16179016 175.44444
0.43791014 0.55199152 -0.16198583 177.33333
0.53901917 0.55451608 -0.15895244 175.90909
0.66245008 0.55300349 -0.15905739 169.66667
0.7613523 0.55341566 -0.15729816 163.8
0.83485293 0.5052259 -0.15120988 164
0.16425332 0.66415268 -0.16539322 152
0.25757056 0.65317434 -0.16150698 156.75
0.34426349 0.66727096 -0.1610923 160.39999
0.4318251 0.6584354 -0.15997206 165.60001
0.52109063 0.66520452 -0.15847759 165.16667
0.63317472 0.63459641 -0.15720232 164
0.71512961 0.6539197 -0.15664056 158
0.14009473 0.73837811 -0.16213949 149.25
0.24370143 0.73260158 -0.16101299 155.75
0.34065565 0.74806911 -0.1595715 166
0.43948719 0.74892873 -0.15718596 157.25
0.54411256 0.7673527 -0.15765014 158
0.64186341 0.73418504 -0.15370291 152.75
0.10664603 0.84162867 -0.15815008 183.8
0.22317155 0.83888555 -0.15385693 191.83333
0.33301502 0.84109211 -0.14631017 196.28572
0.44579884 0.8448931 -0.1482739 192.60001
0.54649222 0.80911458 -0.13415316 157
0.072634839 0.94789404 -0.15541843 133
0.20461975 0.93915445 -0.14982045 133
0.32502186 0.91678947 -0.12965974 122
-0.079441272 -0.23500085 -0.029200831 143
-0.02508237 -0.15936016 -0.052220535 153.71428
0.070335783 -0.14517686 -0.048961353 136.84616
0.12892188 -0.13688882 -0.089575507 132.60001
-0.27306628 -0.093730636 -0.070964158 181.8
-0.015704514 -0.16109397 0.022087349 152.5
0.029128313 -0.15225554 0.023253581 140
