# .PCD v0.7 - Point Cloud Data file format
VERSION 0.7
FIELDS x y z intensity
SIZE 4 4 4 4
TYPE F F F F
COUNT 1 1 1 1
WIDTH 136
HEIGHT 1
VIEWPOINT 0 0 0 1 0 0 0
POINTS 136
DATA ascii
-0.37177229 -0.91877729 -0.19821882 115
-0.19902074 -0.93255669 -0.20900592 156
-0.049936827 -0.95096505 -0.21268561 154.33333
0.088776916 -0.97458333 -0.21690615 155
0.09930262 -0.93808728 -0.21514827 156
-0.46753883 -0.80512077 -0.20194995 114
-0.32805392 -0.86643356 -0.20326456 153
-0.27773583 -0.8041476 -0.20174201 157
-0.14853942 -0.85145307 -0.21012694 161.33333
0.0048178309 -0.82819456 -0.20965689 166
0.12947397 -0.83551866 -0.2126732 166.5
-0.62690312 -0.73472446 -0.19738704 109
-0.57526755 -0.69712228 -0.19933596 114
-0.4167006 -0.75605178 -0.19938472 120
-0.24566209 -0.76618373 -0.20703012 162.5
-0.19454972 -0.70103294 -0.19872731 171
-0.08626873 -0.74923903 -0.20570657 169
0.034959082 -0.75979084 -0.20640701 168.33333
0.16216148 -0.72669142 -0.21284409 177
-0.73544818 -0.61515564 -0.19302654 107
-0.54129303 -0.67222071 -0.19957982 117
-0.47644615 -0.62442482 -0.19832639 141.5
-0.2866495 -0.63187045 -0.19930431 170
-0.15094304 -0.64872074 -0.20341973 172
-0.025817214 -0.65138686 -0.20509055 172.2
0.045724548 -0.66120332 -0.20861527 173
0.1485457 -0.61183494 -0.20518671 184
0.19778238 -0.60189927 -0.20518294 188
-0.64371163 -0.56391519 -0.19036901 114.66666
-0.56226319 -0.51896977 -0.19315149 123
-0.36733088 -0.54468703 -0.20074394 173
-0.16763306 -0.55151296 -0.1997942 175.25
-0.063758343 -0.54097158 -0.201419 175.2
0.041817199 -0.5404911 -0.20056166 183.14285
0.12529725 -0.5575152 -0.20182471 187.75
0.21222223 -0.55511069 -0.20678887 187.8
-0.51492232 -0.49264583 -0.19292581 143
-0.42199633 -0.44101211 -0.19288942 172
-0.37528387 -0.41549933 -0.19702941 177
-0.25999647 -0.46564114 -0.19919476 179.25
-0.14480624 -0.44620252 -0.19470808 177.39999
-0.055965874 -0.44773588 -0.19774066 180.66667
0.044435296 -0.44445664 -0.19700642 183.5
0.13840061 -0.4659752 -0.20149523 185
0.23263979 -0.48578125 -0.20503001 185.25
-0.32156077 -0.38492057 -0.1902495 183
-0.25273019 -0.34654632 -0.18908258 178.8
-0.14483365 -0.35483357 -0.18867317 178.75
-0.046819929 -0.35245252 -0.19600847 181.66667
0.12138746 -0.33222598 -0.20787337 178.8
0.24545729 -0.36552677 -0.20844887 177.71428
-0.66807932 -0.27543578 -0.19091366 121
-0.56733227 -0.24857275 -0.19002852 149.5
-0.4688068 -0.2218391 -0.17464803 172
-0.14004555 -0.2822046 -0.17298687 179.5
-0.068677314 -0.24022044 -0.15123655 169.25
0.021843037 -0.25963831 -0.2047897 178.5
0.85849816 -0.20689411 -0.1824687 192.2
0.93276548 -0.23749411 -0.19176146 194.5
-0.42831564 -0.10829198 -0.19170539 180
-0.34273604 -0.14100316 -0.16214664 176.5
-0.25288031 -0.16460985 -0.18467632 179.75
-0.16189924 -0.15408555 -0.19102854 178
-0.041881178 -0.16392043 -0.1586632 167.66667
0.093116246 -0.1458471 -0.1090079 139.75
0.13901171 -0.12415351 -0.1426053 136.76666
0.641397 -0.11163932 -0.1944792 177.66667
0.75063318 -0.13671747 -0.18932702 184.375
0.84207648 -0.14153014 -0.18028675 190.625
0.92885697 -0.15851732 -0.18304861 195
-0.73573339 -0.012363622 -0.18399176 119
-0.66247642 -0.011343065 -0.18481791 132
-0.57535601 -0.010040881 -0.18810929 170
-0.44517714 -0.0082877772 -0.18746127 183
-0.32758626 -0.035833132 -0.18476582 187
-0.26072335 -0.045391791 -0.18804906 179.125
-0.18457042 -0.039396435 -0.1881015 175.25
-0.080138505 -0.0029727877 -0.19640009 176.5
0.15590873 -0.032670572 -0.19642363 165.2
0.48401552 -0.024638116 -0.20570678 168.95454
0.52295774 -0.032127555 -0.20663893 169.35715
0.65790129 -0.041447818 -0.19535194 177.72223
0.75700814 -0.039069124 -0.19268464 183.70833
0.85013962 -0.045986958 -0.18141501 190.23077
0.92760658 -0.038429603 -0.18422179 194.5
-0.43318775 0.095069848 -0.18656448 186
-0.3276014 0.082764991 -0.18253574 187
-0.2628229 0.075410903 -0.18276294 179.60001
-0.18754798 0.067050368 -0.18561246 177.60001
0.14185059 0.045287147 -0.20115548 164
0.48371729 0.040939014 -0.20602545 168.89999
0.51757205 0.031425159 -0.20724739 168.86957
0.65382475 0.059132043 -0.19481939 177.90909
0.75992686 0.062932879 -0.19140448 183.73914
0.83686435 0.061827924 -0.17680518 190
0.92681694 0.053432286 -0.1815802 194.66667
-0.73224258 0.12877454 -0.18144938 118
-0.32685822 0.17349678 -0.18851912 185
-0.26052877 0.15717781 -0.18613119 179.71428
-0.16849263 0.15524292 -0.18610996 179.85715
0.59017426 0.18589626 -0.1994262 176.5
0.63487464 0.15246177 -0.19327164 178.26666
0.74512857 0.15901735 -0.19208518 184.52
0.86320376 0.15396196 -0.1819168 192
0.92525905 0.14088218 -0.18125038 194.75
-0.38519064 0.29210308 -0.18476978 183
-0.25879633 0.24386941 -0.18326694 179.8
-0.16884491 0.20983508 -0.18419194 179.8
0.48227555 0.29564697 -0.20106836 177.5
0.55396771 0.25520921 -0.19462746 178.25926
0.6526792 0.25090063 -0.1937556 182
0.72758365 0.2452652 -0.18485394 185.9375
0.83678615 0.25864494 -0.1840786 192.54546
0.9585436 0.24825819 -0.19899531 195.5
0.48804212 0.31851888 -0.19200574 178.42857
0.55165029 0.35291108 -0.1942852 181.69231
0.64542598 0.34681892 -0.18630908 185.55
0.75357169 0.3579002 -0.18262571 191.2
0.83025551 0.33622596 -0.1782251 194.66667
0.91079146 0.35717925 -0.19887653 196
0.54490072 0.43359461 -0.18352751 186.28572
0.65094 0.45867059 -0.18557334 191
0.73738182 0.44624445 -0.18214306 194.16667
0.84856939 0.45560285 -0.19647931 196
0.56697172 0.54828227 -0.18511605 192.85715
0.64834309 0.53870296 -0.18570472 193.8
0.76135617 0.56281042 -0.19397946 196.8
0.83624738 0.5175184 -0.18980122 197.66667
0.64678895 0.65142894 -0.19211268 196.85715
0.70486367 0.64877242 -0.18762997 198
0.63535422 0.73627031 -0.1943033 198
-0.17804408 -0.14149605 -0.08350385 135.66667
0.054368012 -0.14945109 -0.080934294 135
0.10124532 -0.13719165 -0.070652194 121
-0.0013645941 -0.13602437 0.011729032 141.5
0.020053113 -0.12771264 0.0067664012 129
