# .PCD v0.7 - Point Cloud Data file format
VERSION 0.7
FIELDS x y z intensity
SIZE 4 4 4 4
TYPE F F F F
COUNT 1 1 1 1
WIDTH 766
HEIGHT 1
VIEWPOINT 0 0 0 1 0 0 0
POINTS 766
DATA ascii
-13.339211 -3.4925909 2.7604356 9
-13.50416 -3.224328 2.8060873 9
-13.229357 -3.2687149 3.2152591 10
-13.360409 -2.8261428 3.0482557 10
-13.431472 -2.5282056 2.935607 10
-13.238397 -2.9020863 3.8908234 12
-13.360124 -2.4929361 3.7261808 12
-13.047497 -3.9794223 3.0381656 9
-13.011305 -3.7830875 3.5323334 10
-12.95129 -1.9074736 4.3665853 14
-12.82445 -2.1362011 4.6817956 14
-12.901589 -1.7280308 4.5534315 14
-12.998389 -1.3319093 4.2966199 14
-12.566907 -3.4538612 1.408803 7
-12.543892 -3.1600125 1.3124237 7
-12.457856 -3.2175128 1.542116 7
-12.606136 -2.7953191 1.412091 7
-12.547186 -2.7858622 1.8993937 8
-12.407915 -3.182668 4.9682169 14
-12.750789 -2.4512417 4.5288882 13
-12.653058 -2.6701629 4.8365197 14
-12.332983 -3.299803 2.0558279 8
-11.84547 -2.8238192 3.9381421 12
-11.736663 -2.2315195 3.6604803 13
-11.663521 -1.668519 3.4096012 13
-11.778218 -2.2139132 4.4210172 14
-10.900498 -1.6963435 3.5148854 13
-10.812571 -3.3474119 5.3034635 15
-10.870326 -3.0838611 5.1824207 15
-11.019583 -2.4339421 4.9002628 15
-10.601966 -5.1228032 4.9671664 12
-10.679571 -3.5783422 4.2689919 13
-10.658532 -2.5248225 3.8032725 13
-10.70501 -2.2837868 3.712044 13
-10.393902 -4.6541414 5.9061432 15
-10.652003 -4.1626835 5.700264 15
-10.71095 -3.5998697 5.4091821 15
-10.096642 -4.4505963 4.1016731 11
-9.8208094 -5.3930411 4.5247974 11
-9.6677742 -5.0699587 5.0373831 13
-9.7784653 -4.7101908 4.9058509 13
-9.2397594 -6.144918 5.4232192 12
-9.349968 -5.7440176 5.2312927 12.333333
-8.6697245 -5.5252728 4.4209251 11
-8.5538969 -1.5455141 3.7133958 15
-8.5500755 -1.3375672 3.6133728 15
-8.1923037 -2.3128588 1.9740232 10
-8.0985003 -2.2412856 2.1979976 10
-8.011178 -5.6936641 4.8545837 12
-8.1744251 -5.822732 6.0521879 14
-7.4653373 -4.8105965 2.1095376 7
-7.4998312 -5.6283031 5.7705879 14
-7.0407281 -1.9282027 1.5788579 9
-7.0910358 -5.4468598 4.5892916 12
-6.9545174 -5.4948378 5.5591311 14
-6.8555408 -4.1126485 4.6431975 15
-6.9894657 -3.6854298 4.7020664 15
-6.7240176 -2.0528281 1.3511341 8
-6.4708881 -1.5511329 1.0525937 8.5
-6.5017347 -1.3235792 1.4336925 10
-6.7056561 -5.5832124 5.565063 14
-6.4158268 -4.6935954 5.2058568 15
-6.4948258 -4.5067058 5.0991521 15
-6.351501 -4.175838 4.8404284 15
-6.331264 -1.8694497 1.1014807 8
-6.2190771 -5.0452833 5.3991508 15
-6.3060942 -4.8572192 5.289928 15
-6.0858922 -3.78439 4.5106292 15
-5.6463552 -1.782903 1.4297763 10
-5.7233849 -5.2767773 5.1529293 14
-5.7450857 -5.1554408 5.3651943 15
-5.3316627 -5.1732345 5.0042372 14
-5.4661822 -5.1575279 5.3039107 15
-4.8060093 -4.9715347 2.9007795 9
-4.8801599 -3.2073634 2.6904001 12
-5.1271105 -5.0863209 5.1766763 15
-4.3893752 -3.6239924 1.6611701 7
-4.5998611 -5.022891 2.7367992 8
-4.6737795 -3.2393317 1.7796983 8
-4.5028486 -4.8923769 2.8510571 9
-4.4352064 -2.9015629 1.9014859 9
-4.546392 -2.5516503 1.7284195 9.5
-4.4525561 -2.1028287 1.5310348 9.5
-4.3169956 -4.9080491 2.2367847 7
-4.1586709 -3.5949979 1.6463165 7
-4.1995363 -4.9095159 2.5615559 7.75
-4.3602047 -3.62395 1.7414322 7
-4.2268715 -3.1213462 1.7810303 8.333333
-4.1579037 5.899375 -2.5269625 8
-4.2225952 -4.8219442 2.8074343 9
-4.0176301 -3.2087593 1.9717195 9
-4.1834989 -3.0149505 1.9597147 10
-4.3401117 -2.2888837 1.6142639 10
-4.165236 5.9694767 -2.135247 9.5
-4.1294947 6.0456424 -2.3890812 9
-4.1013861 6.172297 -1.7731164 11
-4.13939 6.2508802 -1.5416303 12
-4.1442585 6.5299406 -1.0591732 14
-3.852169 -4.9821854 2.7565498 8
-3.6574686 -4.87185 2.6322665 8
-3.6769018 -2.4862902 1.2890998 8
-3.9445333 -4.7332315 2.7555027 9
-3.6161182 -2.4773686 1.6968691 10
-3.87234 6.0654702 -2.1743193 9.5
-3.8833458 -4.6832409 3.5368538 12
-3.6905415 4.4828615 -0.90983862 13
-3.7333364 4.8897457 -1.2358332 11.75
-3.8629339 6.3457565 -1.8518717 11
-3.6532722 4.3814707 -0.76457715 13
-3.7589974 4.7385159 -0.68928957 14
-3.7258022 5.140882 -0.92379111 13.5
-3.8420699 6.342062 -1.5790673 12
-3.8250945 5.0725403 -0.4213843 15
-3.8244493 5.172473 -0.61415195 15
-3.9641988 6.5673203 -1.103847 14
-3.9854391 6.6806402 -0.94640857 15
-3.3965588 -2.5499368 1.3961434 8
-3.3064995 3.4422207 -1.3001157 9
-3.4789708 -2.0222778 1.4372237 10
-3.4522533 -1.8986374 1.3837423 10
-3.2430272 3.3803749 -0.88314551 11
-3.2450047 3.6843512 -0.93019116 11
-3.5063951 4.9631786 -1.5295796 11
-3.6148434 6.1208863 -2.2292445 10
-3.2444482 3.1882799 -0.52452803 13
-3.3165851 3.3994839 -0.58772701 13
-3.4461274 3.7691247 -0.60542512 13
-3.5065773 4.155911 -0.97552925 12
-3.5793266 4.512774 -1.1489736 12
-3.626756 5.0229311 -1.4306465 11
-3.3692777 3.9954569 -0.45344329 14.333333
-3.4677839 4.3150754 -0.52050018 14.333333
-3.527257 4.7708387 -0.67253828 14
-3.622081 5.2024937 -0.7824825 14
-3.5575325 5.3518033 -0.80185896 14
-3.627512 6.7495804 -1.1525706 14
-3.3567362 -4.5441465 4.4331694 15
-2.965553 -4.138556 2.3137965 9
-3.0562997 -2.531075 1.594781 9.5
-3.0895691 3.1764123 -1.1095037 9
-3.0717924 3.4517481 -1.3772099 8.3999996
-3.0595207 3.7919619 -1.5226238 8.5
-3.173604 4.2042508 -1.7226372 8.5
-2.9447412 4.9460001 -2.0178149 8.5
-2.8499532 -1.9170521 1.4297034 11
-3.0788467 -0.83342868 1.135118 13
-2.9903419 -0.67833328 1.1206704 13.666667
-2.8416853 2.0296495 -0.15893599 13
-2.8878772 2.2462156 -0.39316159 12
-2.9967279 2.5785036 -0.56787062 11.666667
-3.0817719 2.9133718 -0.67034805 11.5
-3.1147318 3.3020694 -0.86023337 11.25
-3.0216551 3.6402225 -1.1087793 10.4
-3.058692 3.8721375 -1.363169 10
-3.124563 4.1495605 -1.4773076 10
-2.9148152 5.0424194 -1.8588173 9.5
-2.8687875 -0.78502828 1.3744619 15
-2.8771079 -0.72416496 1.2598585 14.5
-2.8413775 2.4297683 -0.11396679 14.5
-2.9749982 2.7453661 -0.23240401 14
-3.091572 3.152271 -0.32316282 14.2
-3.1199071 3.4316766 -0.48227811 13.5
-2.8793886 5.2439361 -1.4661841 11.5
-3.2023156 3.6334946 -0.36175719 15
-3.0161905 5.4078078 -0.87409645 14
-3.0184686 -4.4419799 4.3007231 15
-2.9983857 5.4603868 -0.73193204 15
-2.4043565 -1.4619384 0.90378273 9
-2.5410328 -1.1462287 0.81842059 9.5
-2.6383705 -0.93873465 0.64441019 8.5
-2.4601431 1.1028512 -0.23724893 10
-2.5707607 1.3515809 -0.38261008 9.6000004
-2.7627807 1.7333541 -0.52647763 9.5
-2.6190891 2.0334601 -0.67416012 9.4285717
-2.6362822 -1.3890431 1.3476279 12.333333
-2.5901449 -0.96159953 1.1261746 12.888889
-2.7409728 -0.80426413 1.0321159 12.5
-2.4554892 1.2551032 0.095407046 13.666667
-2.5402341 1.4708855 -0.07383357 12.6
-2.7353139 1.8494195 -0.24084182 12.142858
-2.8036749 2.0285211 -0.39555112 11.5
-2.7779562 5.0650616 -1.8272743 10
-2.5445631 -1.3049878 1.5098264 14
-2.6385527 -0.99234706 1.4194465 14.666667
-2.7658792 -0.68445468 1.3067068 15
-2.5600011 1.7001255 0.1008499 15
-2.717968 1.9975419 -0.0064376262 14.5
-2.7954602 2.2631938 -0.072518438 14.5
-2.6383224 5.2396121 -1.4597056 12
-2.6636176 5.4256339 -1.0037283 13.833333
-2.7139747 -4.358676 4.1915255 15
-2.6824121 5.4607635 -0.74966574 15
-2.0127909 -4.3333259 2.2541285 8
-2.0561876 -0.95367962 0.88661784 12
-2.1478672 -0.82112551 0.68850327 10
-2.080827 -0.49192911 0.52528977 10.5
-2.2821016 2.166775 -0.74796313 9.5
-1.9672508 -4.1270766 2.7211902 11
-2.0815444 -2.4515626 1.9699451 12.5
-2.2879615 -1.3339792 1.4227908 14
-2.2449594 -1.0566556 1.1282536 13
-2.0839915 -0.85755217 0.93742681 13
-2.4041333 1.2187726 0.2440664 15
-2.1705368 5.3234963 -1.5371295 11.666667
-2.2597191 5.5061884 -1.0546942 14
-2.2065196 5.5979562 -0.90597332 15
-1.7745513 -4.3979001 2.0735452 7
-1.8742836 -4.1826606 1.9841362 7
-1.7451946 -4.2819252 2.2871549 8
-1.8098892 -2.263936 1.2244061 8.333333
-1.5996387 -1.3428775 0.96972221 10.666667
-1.6640135 -1.3020482 0.93738365 10.5
-1.880514 -0.69153076 0.58927196 10.333333
-1.9009143 -0.57805097 0.56720638 10.5
-1.7088784 3.09815 -1.1638402 9
-1.9704655 3.7438433 -1.3818643 9
-1.8386196 4.0202422 -1.559496 9
-1.6523392 4.1069584 -1.594309 9
-1.8678836 5.1652875 -2.0730014 9
-1.8169204 -4.0386238 2.7969661 11
-1.9604909 -2.5585213 2.0650959 13
-1.741365 -1.1415037 1.0838768 12.666667
-1.8397334 3.3250964 -1.0224986 11
-1.7729543 3.6337316 -1.165107 11
-1.8822309 4.0038009 -1.4223428 9.666667
-1.7761002 4.1981387 -1.4648509 10
-1.8483325 5.2374387 -1.9158224 9.6000004
-1.790656 5.4389219 -1.5056736 12
-1.8969866 5.5902357 -1.1200335 13.8
-1.93988 5.6852884 -0.92735755 15
-1.7374398 5.7424841 -0.94071126 15
-1.4970225 -4.3109164 2.3120303 8.333333
-1.5619521 3.0125134 -1.1124892 9
-1.4842834 -4.1008601 2.8120818 11
-1.2388269 -2.384171 1.7259442 12
-1.1849501 -2.2631226 1.7356657 13
-1.4613453 -1.4304607 1.2643492 13.5
-1.3981446 3.419049 -1.0425925 11
-1.570526 3.6899288 -1.188417 11
-1.4285355 -4.0656791 2.8487899 12
-1.6070167 5.4670711 -1.5018729 12
-1.3650321 5.5764132 -1.5764956 11.666667
-1.6370398 5.683279 -1.0187346 14
-1.4454972 5.7075534 -1.1772106 13.8
-1.5883299 5.7322092 -0.93812352 15
-1.3828835 5.8200231 -0.96871209 15
-0.98821568 3.436326 -1.2438619 10
-1.0239736 -2.376004 1.8062947 12.25
-0.99817723 3.4696386 -1.1553828 10.5
-1.0045625 5.5040827 -2.0526547 9.666667
-1.0748739 5.6718225 -1.6169218 11.6
-1.0732777 5.8315454 -1.2673028 13.5
-1.0646279 5.9471402 -0.99525046 15
-0.58128524 -4.0934343 1.8813972 7
-0.48105344 0.48862916 -0.4573991 0.33333334
-0.46695817 0.80570728 -0.60347027 1.8
-0.47450444 1.0807872 -0.72571743 3
-0.45651317 1.4507593 -0.89434439 4
-0.43806392 2.1044302 -1.2172079 5
-0.55480802 -4.0019751 2.1053174 8
-0.37676486 -3.3306019 1.7551122 8
-0.4051663 -1.4651523 0.98190439 11
-0.54411238 -1.0694418 0.86321276 13.166667
-0.66450185 -0.55966568 0.58040172 15
-0.81984812 3.5007839 -1.2581297 10
-0.55176985 -3.7958479 2.5481071 11
-0.43406895 -1.2799499 1.1006526 14.5
-0.5504601 -0.91791421 0.88458192 15
-0.72034001 3.5732191 -1.1688865 10.666667
-0.77171874 5.5743499 -2.0797608 9.5
-0.63663441 5.6461072 -2.1156318 9.666667
-0.41681483 -3.7472129 2.701854 12
-0.66558391 5.7934113 -1.6694152 11.5
-0.47814536 5.8603034 -1.7183623 11.5
-0.6911841 5.9664555 -1.2579618 13.666667
-0.54564601 5.9651818 -1.4847322 13
-0.62802339 6.0862522 -1.0026722 15
-0.54352152 6.1535931 -1.0565467 15
-0.09483885 -2.8134651 1.1804751 5.5
-0.0056027509 -2.5001776 0.91265571 4
-0.22661079 -2.0213084 0.70664942 4
-0.12830521 -1.7020829 0.56674504 3.5
-0.026230525 -1.3759527 0.41931456 3
-0.26487803 0.52193761 -0.47225943 0.16666667
-0.19509727 0.79517817 -0.5997079 1.4166666
-0.17677362 1.1760135 -0.76268256 3.4000001
-0.22151783 1.5231593 -0.92453927 4
-0.14976768 1.8990848 -1.1084403 5
-0.12849222 2.2648265 -1.2927037 5
-0.20986257 2.6409667 -1.4747862 5
-0.33910048 3.2467856 -1.7798284 5
-0.034335297 -2.5601475 1.4991639 9.25
-0.094721019 -2.2278287 1.3481283 9.666667
-0.30871102 -1.5526642 1.0513631 11.25
-0.040126417 -2.5780907 1.7927816 11.5
-0.1208616 -2.0999932 1.5701882 12.6
-0.31942961 -1.4441397 1.2182617 14.2
-0.21353473 3.7140338 -1.232857 10.5
-0.25826108 5.9261041 -1.7196993 11.5
-0.30202886 -3.5258701 3.1147792 15
-0.42912248 6.0883751 -1.162081 14
-0.22669908 6.0915117 -1.3657354 13.5
-0.26917619 6.2021465 -1.0368023 15
0.27963912 -3.7858777 1.6767474 6.5
0.33336985 -3.1283474 1.2055993 5
0.3381997 -2.8279157 1.0693568 5
0.23691122 -2.3496659 0.85966289 4
0.24968871 -2.0528612 0.72758359 4
0.23243418 -1.7268831 0.58585298 3.75
0.26067007 -1.3276641 0.39441466 2.6666667
0.20562273 -0.99788779 0.23191249 1
0.25953311 -0.69549298 0.096694209 0
0.20940953 0.53377467 -0.46683389 0.14285715
0.21884619 0.79730582 -0.60114807 1.4
0.20657922 1.1407514 -0.75551933 3
0.11852258 1.5518785 -0.93639743 4.1999998
0.24453889 1.866197 -1.0862391 5
0.21987554 2.2431729 -1.2716917 5
0.19445194 2.6333961 -1.4641759 5
0.17370877 2.9366467 -1.6091585 5
0.32509014 -3.6249452 1.838635 7.5
0.32351831 -3.1410704 1.7761179 9
0.18443725 -3.0217612 1.6672096 8.8571424
0.094561026 -2.5765116 1.4921789 9.5
0.36141726 -3.4282465 2.2728457 11
0.24787286 -3.1937311 2.1813774 11.4
0.13309672 -2.7980413 1.9929274 12
0.15718521 -2.5144713 1.9050034 13
-0.0047101071 3.8096316 -1.2468103 10.5
0.23904157 3.8965256 -1.2173899 11
0.15620749 5.8543186 -2.2056661 9.6000004
0.42802528 -2.9054902 2.5928223 15
0.30324394 -2.5645089 2.3346038 15
0.13105795 6.022172 -1.7518437 11.5
0.11560536 6.1830297 -1.4105407 13.5
0.15533836 6.30165 -1.1059568 14.666667
0.81793541 -3.5079687 1.3955995 5
0.77235538 -3.14663 1.2278671 5
0.72638184 -2.7936122 1.071519 5
0.67991996 -2.4308488 0.90677738 4.5
0.64195824 -2.1363471 0.77429789 4
0.65491772 -1.6499536 0.55417037 4
0.63958424 -1.3662812 0.42059809 3
0.59884244 -0.97896206 0.22345124 1.5
0.61451668 -0.59681863 0.056364879 0.5
0.66705209 -0.3016538 -0.070562132 0.25
0.564987 0.24774429 -0.33221129 0
0.57236266 0.47281292 -0.42904076 0.75
0.56624722 0.80068201 -0.5991025 2
0.58669853 1.1881107 -0.76639479 3.5999999
0.62153673 1.559419 -0.93180841 4.5
0.52678114 1.8942877 -1.0916638 5
0.55459893 2.257036 -1.2645997 5
0.58313209 2.6267576 -1.4415352 5
0.64161557 -3.5841844 1.880201 8
0.72623676 -3.4947393 1.9417992 9
0.71009696 5.7901182 -2.5237315 8
0.65664697 -3.3905928 2.309618 11.428572
0.75237662 -3.3235252 2.2998166 12
0.67613596 4.0162034 -1.3556625 10
0.59360123 5.509388 -2.0133703 10
0.44022048 5.8234425 -2.2021804 9.5
0.65095019 -3.1539207 2.7794881 15
0.58286655 5.7294955 -1.5539694 12.25
0.47013786 6.0323219 -1.7810322 11.5
0.65633047 5.9316516 -1.2007101 14
0.46719202 6.2455783 -1.2750871 14
0.70843905 5.8793373 -0.91262841 15
0.49232161 6.354496 -1.1055481 14.8
0.89291149 -3.7273571 1.6451197 6.5
1.1221998 -3.5988266 1.6866127 7
1.1632042 -2.9015772 1.1143656 5
1.0526098 -2.5033631 0.93406814 5
0.94253105 -2.1073031 0.75537866 4
1.0206679 -1.7477812 0.59001219 4
1.0589619 -1.332818 0.4038195 3.5999999
0.98030186 -0.9754343 0.23032625 2.5
0.98171902 -0.62454408 0.067230329 1.8571428
1.002105 -0.33094907 -0.056382187 1.7142857
0.85240644 0.79548347 -0.5948931 2.6666667
0.97686774 1.1988572 -0.774472 4
0.9814111 1.5084934 -0.91230237 4.6666665
0.95573014 1.837451 -1.0629019 5
0.89785206 2.2618077 -1.2582018 5
0.97434962 2.609236 -1.4189472 6
1.0580662 2.9770598 -1.5974331 6
1.1490759 3.3860147 -1.7895888 6
0.96310532 -3.5567944 1.8857138 8
1.1313744 -3.505409 1.8617167 8
0.95754385 -3.3513017 2.309056 11.5
1.1639353 -3.2960382 2.283911 11.333333
0.95921159 -2.7130845 2.1132524 13
0.84062439 4.0655522 -1.3801246 10
0.91790795 5.4523859 -1.9575309 10
1.0129951 -3.2214689 2.6285989 14
1.2206576 -3.2130663 2.4434466 13
1.0110763 -2.5448689 2.3276622 15
0.95725441 5.6160374 -1.5778371 12.111111
1.1162646 -3.0817649 2.8465228 15
0.95846874 5.7895689 -1.1476609 14
0.96456552 5.8903074 -0.92768151 15
1.4127703 -3.5804193 1.5851026 6.25
1.4993706 -2.6352556 0.98649168 5
1.391621 -2.3893161 0.87585211 5
1.3702294 -2.0781655 0.73703486 4.3333335
1.3589855 -1.6723584 0.55759466 4
1.4579331 -1.2907343 0.39275607 4
1.3918023 -0.95024133 0.23549365 3.8
1.4123795 -0.62754309 0.080711715 3.3333333
1.3720213 -0.36921647 -0.037816484 3.3333333
1.3126878 1.6148684 -0.96817046 5
1.5408525 2.0245004 -1.1673862 5
1.2565315 2.2310989 -1.2546332 5
1.4044994 2.6197929 -1.4387188 5.5
1.5187163 5.1908441 -2.5403309 7
1.4440076 -3.4031608 1.8506098 8.2857141
1.4340446 5.2981095 -2.2608845 8
1.4438387 -3.2223895 2.2465007 11.333333
1.3439362 5.5753007 -2.0494077 9.5
1.4384642 -3.0846822 2.5668726 14
1.3514754 5.7364607 -1.5867735 12.166667
1.5538359 -2.9435418 2.7800996 15
1.1714536 5.8065152 -1.2411593 14
1.48874 6.208488 -1.2049209 14
1.3463466 6.0211563 -0.96615016 15
1.8562288 -3.4546807 1.3872223 5.5
1.6346669 -2.9439704 1.1247232 5
1.8515979 -2.4738367 0.91530073 5
1.7021681 -2.2307143 0.80734801 5
1.7102511 -1.7145078 0.58317101 4.5
1.8698969 -1.3292222 0.41136956 4.5
1.743204 -0.95542604 0.24217041 4
1.7902745 -0.6283319 0.092479691 4.1999998
1.6660055 2.249258 -1.2766086 5
1.8038117 2.4995599 -1.3947926 6
1.5984328 3.1302745 -1.6794683 6
1.5605265 5.1782866 -2.6700587 6
1.7981805 -3.2974505 1.8189362 8.4285717
1.7808362 -3.1172166 2.2292955 11.5
1.6032298 5.6370978 -2.112432 9.5
1.8256046 5.7501063 -2.143445 9.333333
1.7811409 -2.970058 2.5254564 14
1.6225607 5.822825 -1.5992022 12
1.8275505 6.4795237 -1.9779464 11.5
1.8391104 -2.8469291 2.7450323 15
1.7669015 6.0942698 -1.1733062 14
1.7680616 6.1956186 -1.3525631 13
1.7222649 6.165956 -0.91678947 15
1.664 6.2837501 -1.2217864 14
2.4211066 -3.4000294 1.3733109 5.5
2.2764533 -3.1650739 1.222188 5
2.2653971 -2.3974898 0.88935107 5
2.2264392 -2.0665047 0.74394858 5
2.0234385 -1.6361494 0.55293494 5
2.0960052 -1.3416239 0.41625684 5
2.0864191 -0.91552019 0.22187038 5
2.1146178 -0.57771099 0.07815107 5
2.2083158 3.2313616 -1.7438475 6
2.2193918 -3.1756225 1.7666899 8.4444447
2.4057457 -3.1531134 1.665526 8
2.3210976 5.5299401 -2.3263345 8
2.2124221 -3.0120258 2.123472 11.2
2.3826406 -2.9935966 1.974925 10.5
2.1379259 5.812789 -2.1903899 9.5
2.2157185 -2.8223801 2.4848187 14
2.4233906 -2.7504098 2.4701157 14
2.2056091 6.0509171 -1.9859269 11
2.069557 6.4342375 -1.9939082 10.8
2.2210467 -2.7146223 2.7080059 15
2.1847343 6.329113 -1.3918021 13
2.0923071 6.6202345 -1.7062079 12
2.1435492 6.3487878 -1.0759509 14.666667
2.6225693 -2.2043197 0.81110549 5
2.44789 -1.6010416 0.53310847 5
2.6199572 -1.3440259 0.41054875 5
2.6771967 -1.0264479 0.30684903 5.5
2.4549747 5.403522 -2.7334394 6.5
2.6491594 -3.0636184 1.7040489 8.5
2.7376969 -0.79483664 0.64135104 9.3999996
2.3762388 5.4562283 -2.5048542 7
2.6461754 5.8998046 -2.4030414 9
2.6272154 -2.9046166 2.043704 11
2.8039398 -0.63165617 0.86196983 12
2.5423639 5.9827952 -2.1773434 9.333333
2.6504712 -2.6687171 2.4550867 14
2.4669087 6.5127673 -2.0283747 10.75
2.5748956 6.6463685 -2.0299749 11
2.6187069 -2.5827153 2.656086 15
2.4744992 6.4033813 -1.4134856 13
2.5993438 6.5955706 -1.5745566 12.5
2.7272017 6.7878175 -1.7293086 12
2.4948165 6.4352188 -1.1222782 14.5
2.9722486 -3.1383841 1.3492185 6.1999998
2.9529634 -1.9728935 0.70273948 5
2.9523032 -0.81474155 0.20408896 5.5
2.9945114 -2.9577875 1.6279153 8.375
3.1328263 -1.1010846 0.59166336 7
2.9560513 -0.69450539 0.58871466 9.25
2.978229 -0.45555845 0.42654827 8.7142859
3.128197 -0.17044167 0.32342368 9
3.0534108 5.9691458 -2.4630501 8
3.02619 -2.7703414 1.9883571 10.875
3.1455467 -0.86976725 1.1383587 12.5
3.0030036 -0.57165611 0.97188121 12.666667
2.9707882 -0.25217873 0.80511057 12.857142
3.0441592 -0.049049642 0.65302217 12.333333
2.9428897 6.0195379 -2.2455828 9.5
2.9622123 6.2167888 -2.1563988 10
3.057651 -2.6376238 2.2806499 12.6
3.1665475 -0.77686024 1.4352696 15
3.086365 -0.48941261 1.2096915 14.5
3.0114815 -0.12210177 1.0000833 14.75
3.0428545 0.12856755 0.9092381 15
2.8448284 6.5150309 -2.1826215 10
2.9661045 6.7104263 -2.1258695 10.666667
3.0927358 -2.4474785 2.5556073 15
2.8952649 6.5283265 -1.4469199 13
2.9022026 6.8219361 -1.8161731 12
2.7599425 6.4366059 -1.0622765 14
2.7733576 6.5577793 -1.2690907 14
2.827528 6.7089601 -0.98661101 15
2.9471004 7.1636033 -1.0476235 15
3.3353274 -2.980655 1.3924403 7
3.5943971 -2.7880998 1.3359207 7
3.2496631 -0.85109246 0.36593929 7
3.4944282 5.56213 -2.8507018 6
3.3621979 -2.8446662 1.5249603 8
3.4903963 -2.7415252 1.467141 7.75
3.3904703 -0.10205599 0.2672033 8.5555553
3.3720706 2.046263 -0.80927283 8
3.3403749 2.4371319 -0.96357566 8
3.4415526 2.6768596 -1.069335 8
3.5385442 4.6970239 -1.9596614 8
3.4460585 5.044518 -2.0500596 8
3.3330305 5.327745 -2.2110896 8
3.3206265 5.6324191 -2.4378467 8
3.2964325 6.060658 -2.5212474 8
3.375659 -2.6900094 1.8928964 10.333333
3.5054207 -2.5532634 1.9256588 11
3.2230878 -0.68666786 1.1481969 13
3.4339774 0.057048112 0.63923967 12
3.4750531 5.100781 -1.9199539 9
3.3068416 6.1580954 -2.2472641 9.5
3.3586998 -2.540293 2.2420704 12.75
3.5716498 -2.4192908 2.1585505 12.5
3.4236715 0.17786942 0.94014227 14.4
3.347791 6.8544269 -2.1107225 11
3.4116669 -2.3337071 2.5522449 15
3.5151129 -2.1841884 2.4847987 15
3.3856752 6.6711974 -1.5697645 12.5
3.3494039 6.8990164 -1.8586998 12
3.2766724 6.5724077 -1.066554 14
3.3257453 6.7247987 -1.2960497 14
3.2825277 7.2788997 -1.0462054 15
3.8064001 -2.6845582 1.4579351 8
3.7843075 0.014316893 0.22595219 8.4285717
3.6575272 2.0945926 -0.855959 8
3.7590501 4.6042771 -1.9042375 8
3.8049657 -2.5232618 1.7911221 10.2
3.7746799 0.19109181 0.61837292 12
3.7616868 4.8217111 -1.7180679 9.3999996
3.5826235 5.0529985 -1.7486994 9.5
3.7898731 6.2430711 -2.2648168 9.3999996
3.7980466 -2.4262698 2.1919134 12.5
3.8329687 0.30476409 0.97762179 14.2
3.7536952 6.4462347 -1.8653228 11.25
3.5773978 6.6974721 -2.058872 11
3.7682419 -2.0900588 2.4885488 15
3.9049981 6.3144674 -1.6066985 12
3.762275 6.6127234 -1.5560873 12.4
3.7845592 6.6489949 -1.2608898 13
3.7443306 7.4096608 -1.0372195 15
3.5810256 7.5693645 -1.1717583 15
4.2420835 -2.7365656 1.2290845 6.75
4.2732801 0.088729098 -0.038334247 7
4.2295089 -2.6182063 1.4480535 8.1428576
4.0992832 0.086163074 0.19146591 8.5
4.3166637 0.13608353 0.11724267 8
4.0847216 4.5484438 -1.8443139 8.5
4.2091722 -2.4043953 1.8286417 10.5
4.1301279 0.24723779 0.60043782 11.5
4.2910252 0.31966776 0.51799756 11
4.284121 5.0678306 -1.7779514 9.666667
4.0501733 6.1788311 -2.1328518 10
4.2202229 -2.3238745 2.2274406 12.4
4.17309 0.401683 0.95676464 14
4.2388139 0.57921612 0.87107402 14
4.2701445 5.3969975 -1.5152948 10.75
4.1631627 5.8366795 -1.5458795 11
4.0876293 6.0000744 -1.7734324 10.666667
3.9891007 6.336091 -1.9349134 11
4.2360063 -1.9963818 2.5491734 15
4.3023715 5.5226879 -1.1232792 12.333333
4.2159147 5.8264513 -1.2380071 12.5
4.0339589 6.1333003 -1.4939604 12
4.0922265 6.4760537 -1.4891454 12.5
4.2059093 6.0207591 -1.0802832 13
4.1467566 6.2346377 -1.1390949 13
3.9906194 6.6456151 -1.2521298 13
4.2895641 6.9385099 -0.92026573 15
4.1394024 7.359941 -0.9984737 15
4.1414909 7.5515471 -1.2017146 14.333333
4.702848 -2.5985513 1.0768486 6.3333335
4.622232 0.18691166 -0.10184422 7
4.5885544 -2.509995 1.4113487 8
4.6023607 0.22926645 0.069963954 8
4.6775622 4.6065564 -1.9087629 8
4.7319126 4.8494382 -2.0754735 8
4.5867653 -2.3239534 1.7846259 10.2
4.8012509 -2.1193967 1.8676856 11
4.5300703 0.33095831 0.46727017 10.666667
4.6822534 4.5595431 -1.3216113 10
4.587574 4.7844753 -1.5788801 9.75
4.7014661 5.1401839 -1.9301251 9
4.5472975 -2.2345283 2.2062843 12.5
4.4068408 0.43131587 0.80971688 13
4.7281632 0.62948924 0.89566088 13.333333
4.7465291 4.6297026 -0.87968445 12
4.6934299 4.9696417 -1.293738 10.666667
4.6681867 5.2523856 -1.5606225 10
4.636651 -1.959057 2.500468 14.5
4.7267041 -1.7994394 2.5679684 15
4.4442692 0.56952882 1.1557002 15
4.6125259 5.2179251 -0.84580839 13
4.4877996 5.3750381 -1.0343316 12.333333
4.6798301 4.9596786 -0.36404267 15
4.571341 5.2778006 -0.5863415 14.333333
4.3839889 5.6100764 -0.75826585 14
4.3796058 5.998538 -0.85505915 14
4.3718519 6.2738891 -0.92408687 14
4.4309611 6.664556 -1.0162792 14
4.6267619 5.9334908 -0.60574085 15
4.6159925 6.2583547 -0.69682872 15
4.5706625 6.5074396 -0.76122028 15
4.4837246 6.9536467 -0.93855834 14.666667
4.3803315 7.2506862 -1.0534017 14.5
4.9667697 -2.4049208 1.3052369 7.5
4.9870811 0.32456407 -0.037931155 7.6666665
5.1336827 3.7749796 -1.6447855 7.6666665
4.9346728 4.2449298 -1.8260671 7.75
4.8345461 4.4965763 -1.9388995 8
4.9866476 -2.3021803 1.7059832 9.5
4.9922743 0.44973648 0.37596324 10.5
5.0211587 4.07693 -1.2883692 9.5
4.898891 4.4495258 -1.4225181 9.3999996
4.8939695 4.7365732 -1.6126001 9
4.781352 4.9494753 -1.893924 9
4.9676299 0.60561609 0.76815748 12.5
4.9991322 4.2693944 -0.87346166 11.5
4.8720856 4.5956273 -1.0081658 11.5
4.9046826 4.8592029 -1.2011817 11
4.7742281 5.2955427 -1.3507627 11
4.9656787 0.83352149 1.1011271 15
5.1312118 0.95627224 0.95359945 14
4.9984732 4.4551549 -0.51195562 13.5
4.8819318 4.7647042 -0.75022316 12.8
4.869525 5.053894 -0.95536339 12.333333
4.7949905 5.4429045 -1.0411565 12.5
4.9808211 4.5395122 -0.20717469 14.75
4.903039 4.8375912 -0.42203212 14.5
4.8423595 5.20433 -0.51891702 14.5
4.8343258 5.6320477 -0.58959788 14.666667
4.7732415 5.9876595 -0.61232269 15
5.575716 0.43484673 -0.20277126 7
5.5733423 2.4703281 -1.1944783 7
5.4829063 2.7507546 -1.3254993 7
5.3187828 0.42743313 0.037028354 8.5
5.4810977 2.8739724 -1.1225227 8.1428576
5.3007512 3.3080781 -1.4997666 7
5.284812 3.3595898 -1.4765886 7.5
5.4009848 0.6180895 0.50994152 10.5
5.4646006 0.80031282 0.43348175 11
5.4903183 3.0309875 -0.78412253 9.833333
5.3670568 3.3873913 -0.96415305 9.666667
5.2473145 3.7090528 -1.1409243 9.6000004
5.1718769 4.011076 -1.1288937 10
5.2714291 0.66797447 0.70934677 12
5.501637 3.1939712 -0.41727862 11.6
5.3677268 3.580586 -0.65008223 11.5
5.2630157 3.9205837 -0.76210618 11.5
5.1939974 4.1925526 -0.73423582 12
5.2479868 0.8081792 1.126915 14.5
5.5125537 3.3925757 -0.042057261 13.166667
5.4132209 3.6686895 -0.26058179 12.75
5.2997155 4.0155749 -0.40174156 13
5.2025485 4.2808208 -0.55191052 13
5.5640254 3.2703609 0.34097981 15
5.4923968 3.5553219 0.23399433 14.6
5.3822479 3.8941469 0.091223173 14.666667
5.261137 4.264503 -0.034299444 14.6
5.225347 4.6457472 0.038213342 15
5.6024513 0.44708347 -0.27340728 7
5.9332728 1.4016277 -0.8192836 6
5.8524094 1.633146 -0.89861429 6.5
5.7310252 2.0062568 -1.0613391 6.5
5.611218 2.3784311 -1.1925975 7
5.8744173 0.61037338 -0.03808387 8.5
5.9360933 1.486468 -0.52537823 7.5
5.8474298 1.7599705 -0.63715738 7.8333335
5.7349162 2.1089222 -0.77276891 7.8333335
5.61059 2.5152044 -0.8782829 8.333333
5.9619226 1.6140441 -0.083926357 10
5.8503313 1.9303235 -0.2895492 9.666667
5.7356539 2.2707629 -0.44943747 9.5
5.6197205 2.646404 -0.60864979 9.6000004
5.7397604 0.86332208 0.78408986 12.5
5.9737148 0.82163441 0.57146186 11
5.9300594 1.85974 0.18216531 11.5
5.8654785 2.0792277 0.072138831 11.6
5.7552638 2.4371946 -0.074174151 11.5
5.6312561 2.8397808 -0.19670735 11.5
5.8296728 1.0141299 1.1781274 14.5
5.6289706 1.1472012 0.97391146 13.5
5.9518547 2.0185096 0.55812114 13
5.8689585 2.3059604 0.47720414 13.4
5.7568831 2.6167994 0.2992163 13.5
5.6243405 3.0451615 0.13148306 13.5
5.9542146 2.1531539 0.85723466 14.5
5.8777738 2.4261611 0.78491414 14.8
5.7614527 2.794204 0.61305439 15
5.6544266 3.0698369 0.41852915 14.666667
5.5838971 3.3972166 0.37509307 15
6.1732254 0.6726402 -0.32915664 7
6.0861549 0.94081682 -0.57744586 6.5
6.0064321 1.2071416 -0.67094529 6.5
6.1484704 0.7512728 -0.097144701 8.5
6.0967994 1.0313779 -0.27379325 8
6.0025306 1.3173139 -0.36829752 8
6.1478643 0.91194105 0.28680119 9.6000004
6.0887723 1.261131 0.12156798 10.166667
6.0133934 1.5048093 0.049913015 10.5
6.1943517 1.0777898 0.59550297 11.5
6.0951996 1.4071912 0.46437499 11.5
6.0072355 1.7446654 0.45722571 12
6.2125044 1.1987326 0.97133815 13.5
6.1042032 1.5798078 0.84314764 13.5
6.0053806 1.9321262 0.73315829 13.666667
6.2054386 1.3634971 1.2827598 15
6.1386786 1.6524845 1.076318 14.5
6.0197229 1.9752094 1.0078783 15
6.7612562 -2.6794782 1.2122802 7
6.7395353 -2.5373323 1.5077698 8
6.8025694 -2.6267364 1.9485956 9.5
6.6867113 -2.4218328 1.7930735 9.333333
6.6251163 -2.1781209 1.9729788 10
6.8114543 -2.3830984 2.6275806 12
6.6900868 -2.1023498 2.6100972 12.666667
7.001163 -3.3218648 1.5965129 7
6.8987789 -3.0266128 1.3210831 7
6.9618793 -3.1108961 1.9335973 8
6.8935642 -2.9180233 1.6099061 7.8000002
6.8895121 -2.6344621 1.531343 8
6.9686661 -3.0409472 2.1450052 9.333333
6.8849263 -2.76683 2.0787768 10
6.9417048 -2.688638 2.9115422 12.5
6.9492836 -2.3622024 2.7941616 12.333333
6.947227 -2.0068285 2.5466857 12
6.943994 -1.8895998 2.7244639 13
6.8470368 -1.7076321 2.6162407 13
7.3627963 -3.281908 3.4796762 13
7.3226762 -3.089438 3.3399763 12.5
7.8771758 -4.1993976 1.9096022 7
7.8040648 -3.9707763 2.1720383 7.5
7.9300356 -3.7165694 2.1113763 8
7.8456807 -4.0139565 2.5045264 9
7.7393484 -3.5519447 3.469171 12
