# .PCD v0.7 - Point Cloud Data file format
VERSION 0.7
FIELDS x y z intensity
SIZE 4 4 4 4
TYPE F F F F
COUNT 1 1 1 1
WIDTH 150
HEIGHT 1
VIEWPOINT 0 0 0 1 0 0 0
POINTS 150
DATA ascii
-12.654957 -2.6120856 1.3715934 7
-3.5382216 -2.5609527 1.2733719 7
-3.3188744 3.343991 -1.4431708 8
-3.268656 3.1503589 -0.79150552 11
-3.1167245 4.1482801 -1.5592219 9
-3.1670907 3.2191792 -0.69118041 12
-3.1320629 3.4089656 -0.30354777 15
-2.8323493 2.1497858 -0.40763739 12
-2.8858714 2.2866387 -0.51319635 11
-2.9026427 2.2189128 -0.23580509 13
-2.8961461 3.4115491 -0.8078081 12
-2.8683534 2.53002 -0.12579402 15
-2.991322 2.9190803 -0.25776225 14
-2.9486117 5.276597 -1.1885512 13
-2.6191525 1.4962288 -0.4076741 10
-2.7321179 1.5833925 -0.47111991 9
-2.7921166 1.9671627 -0.64240539 9.5
-2.7630541 -0.76181448 0.87890726 12
-2.7632315 1.7485995 -0.2584205 11.5
-2.7419474 1.7824693 0.026292132 14
-2.4316175 0.9566195 -0.21089554 10
-2.4292178 1.0344419 -0.14646004 11
-2.4123957 1.1001511 0.062523939 13
-2.4319434 1.1309942 -0.057757203 12
-2.5571058 1.5596739 -0.10390297 13
-2.4123397 1.2214339 0.15868753 14
-2.5314698 1.6421629 0.092013747 15
-2.4552479 5.5099382 -0.92921102 14
-2.4022501 1.22207 0.20388475 15
-2.1538203 2.1157076 -0.79657614 9
-2.1395991 5.3204727 -1.476005 12
-1.8448312 3.2578876 -0.89713663 12
-1.715886 5.4970622 -1.3041511 13
-1.7375468 5.6453342 -0.95319343 15
-1.3996997 -1.4523633 1.2336953 13
-1.5329939 5.4616895 -1.5168626 12
-1.4992535 5.7038159 -1.0308232 14
-0.90138888 3.4548538 -1.2447665 10
-0.66710103 5.9669385 -1.2172729 14
-0.75323641 6.0178566 -1.051958 15
-0.30310681 0.62592852 -0.53056222 0
-0.24464069 -1.5464593 1.2874247 14.5
-0.11904189 3.7257245 -1.3040262 10
-0.25959796 5.9363451 -1.5971285 12
-0.11292964 6.2998829 -1.0771416 15
0.19714837 -1.2218128 0.34498459 2
0.17883703 -0.73477286 0.1175142 0
0.096310049 0.54118413 -0.48174921 0
0.056715518 0.78834778 -0.60410237 1
0.010122088 5.8305678 -2.2071738 9
0.23251574 -1.037244 0.24316519 1
0.32518056 -0.7471754 0.11974193 0
0.28945917 0.57762426 -0.49944851 0
0.29484037 6.2932143 -1.2243696 14
0.5864293 -0.81834441 0.15829141 1
0.46850213 -0.73031342 0.10187845 0
0.5298661 -0.50745022 0.01327918 0
0.46361345 1.0046811 -0.6862523 3
0.55084652 -3.3886895 2.2350991 11
0.50245768 5.6453328 -1.4723493 13
0.72097605 -3.6583316 1.8826061 7.5
0.638071 5.3497262 -2.0340536 9
0.6933369 -3.410408 2.366148 12
0.6953029 5.5250149 -1.6150876 12
0.72656155 5.6962376 -1.2011075 14
0.79586953 1.0116664 -0.68618494 3
0.75796413 5.8060379 -0.9933219 15
1.1554283 -0.6531446 0.083984032 3
1.017372 -0.44511706 -0.02096853 2
1.2053614 5.5913601 -1.7742754 11
1.2630048 5.880054 -1.1266065 14
1.5533181 5.6077251 -2.2007275 9
1.7118428 6.2309213 -1.0612931 15
2.0920022 5.7391005 -2.2467706 9
2.3842793 -3.1225476 1.7002831 8
2.2449565 -3.0088766 2.058614 11
2.7254844 -3.0723441 1.5421581 7
2.7654166 -0.8425864 0.61770296 9
2.6451526 -2.9849718 1.7774832 9
2.7300689 -0.88082176 0.75521129 10
2.8044074 -2.8833559 1.8762605 10
2.8155298 -0.9713943 0.56637776 8
2.9329586 -0.35340053 0.22405845 7
2.9212124 -0.26603702 0.26254472 8.5
3.0000739 -0.57072407 0.72116894 11
2.9058421 -0.18428059 0.45285785 10
2.8489182 -2.8051889 1.9934175 11
2.8096323 -0.69915485 0.88696003 12
2.9501283 -0.13019824 0.59242988 11.5
2.9713311 -0.076858729 0.68999445 13
2.9630961 -0.26588771 0.91452825 13.5
2.9033821 -0.034699354 0.90369856 15
2.9373262 0.053330451 0.797885 14
2.9232426 -2.5015752 2.5568602 15
3.0138581 -0.51528549 0.39514542 8
3.0311706 -0.51696014 0.53457624 9.5
3.009443 -0.47932521 0.83169234 12
3.1683905 -2.7041063 2.1886325 12
3.1410534 -0.74739999 1.334456 14.5
3.1146817 6.5875692 -1.4625325 13
2.9585042 6.483706 -1.0632389 14
3.3670802 -2.911109 1.1279335 6
3.2902327 -2.9589996 1.4452369 7
3.3019192 -2.8758755 1.6683754 9
3.3614295 -2.4934988 2.1998334 13
3.4587648 -2.9271507 1.5367788 8
3.5078127 4.8743429 -1.9838811 8
3.5058401 -2.6428092 1.7237149 10
3.5594521 -2.4596577 1.885552 11
3.5389326 -2.4486809 2.1616111 12
3.7011888 -2.6386123 1.43109 8
3.6865213 -2.6392517 1.585445 9
3.7038894 0.11804082 0.39246058 10
3.6385534 4.977169 -1.6500897 10
3.7632203 -2.0885408 2.4853895 15
3.9933367 -2.7960641 1.2630317 7
3.8421478 0.038809478 0.15760741 8
3.9017375 0.15611714 0.48641437 11
3.834281 4.8750315 -1.7673099 9
4.0203972 0.14221051 0.26107991 9
3.9567344 4.4899101 -1.8605175 8
4.1860428 -2.327213 2.2700295 13
4.0369339 6.3982425 -1.7373602 11
4.0971923 5.7092123 -1.3918941 12
4.134716 6.5380421 -1.2186891 13
4.3494482 5.1718202 -1.3182752 11
4.4266024 5.2139988 -1.059018 12
4.6940932 -2.2328959 1.760321 10
4.8540602 3.9412026 -1.3473524 9
4.8862052 3.9780786 -1.1148554 10
4.8751621 4.5305772 -1.0265064 11
4.9071712 4.3957782 -0.21002249 15
5.2782264 3.6005507 -1.1485757 9.5
5.1823921 4.1044521 -0.94090593 11
5.2895875 3.7293634 -0.63947368 12
5.3566127 3.7473316 -0.077441014 14
5.2570181 4.3215966 -0.14966248 14
5.4411235 2.8819852 -1.3436164 7
5.517169 2.9181991 -0.69061828 10
5.3784432 3.4278686 -0.64068782 11
5.5276713 3.4022806 0.2920154 15
5.3652506 4.1565671 0.16400406 15
5.58079 2.9552178 -0.23429489 12
5.6656332 2.8352811 0.097853452 13
5.9796295 1.2688396 -0.77318162 6
5.9104939 2.0627856 0.35038009 13
5.8189363 2.4531307 0.41756669 14
5.862937 2.4067857 0.68144369 15
6.0052991 1.6504287 0.30227032 12
6.0649505 1.9284873 0.90603215 14
