# .PCD v0.7 - Point Cloud Data file format
VERSION 0.7
FIELDS x y z intensity
SIZE 4 4 4 4
TYPE F F F F
COUNT 1 1 1 1
WIDTH 130
HEIGHT 1
VIEWPOINT 0 0 0 1 0 0 0
POINTS 130
DATA ascii
-3.2505245 3.308598 -1.2929794 8
-3.2557311 3.4016638 -0.63622701 12
-3.227838 3.5076511 -0.20017923 15
-3.1085284 -2.5336273 1.3385656 8
-3.0941651 2.6295469 -0.75317985 10
-3.0021567 -0.8046571 0.91093653 11
-3.0398185 2.5718811 -0.41977623 12
-3.0860467 2.7360363 -0.52687889 11
-3.0995598 3.6295464 -0.79569501 11
-3.0864491 2.9808073 0.026029922 15
-3.0723364 5.7642908 -0.66485137 15
-2.9351766 2.0332015 -0.58908582 9.5
-2.9575174 3.823158 -1.1885724 10
-2.9949939 3.6408331 -0.75453198 12
-2.634011 1.1081537 -0.23232362 9
-2.6428869 1.245777 -0.23497644 10
-2.7118285 1.4626666 -0.40048474 9
-2.6430948 1.3457309 -0.0704934 11.5
-2.7532053 1.7223183 -0.18698899 11.5
-2.6112077 1.3532817 0.26034707 14.5
-2.6732426 1.5094413 0.017492808 13
-2.7623348 1.90806 0.12718171 15
-2.7453456 5.5488687 -1.1780057 13
-2.1762462 -0.58801621 0.50144905 9
-2.0914936 5.5145907 -1.341799 12
-2.1421382 5.8086362 -0.73564845 15
-1.8286369 4.250526 -1.5452701 9
-1.5917418 -4.0721946 2.0530193 8
-1.7451619 3.4352791 -0.98432153 11
-1.5395451 5.6704717 -1.3253461 12.5
-1.6014144 5.8519049 -0.91517985 14
-1.5773852 5.9095225 -0.76696438 15
-0.92144465 -1.0197687 0.89428252 14
-0.87385702 3.601496 -1.0573366 11
-0.72328675 3.6703057 -1.1725185 10
-0.50523341 -0.87745851 0.1550072 1
-0.43596542 -0.81451374 0.13022831 0
-0.40968606 -2.6465168 1.5454705 10
-0.38083559 -2.8188763 1.85163 11
-0.33238381 -2.7457573 2.030267 13
-0.23610137 6.0296979 -1.445581 13
-0.14512785 -0.89410132 0.1699762 0
-0.1537845 3.7714577 -1.2228702 10
0.13428928 -3.6071107 1.7003609 7
0.20134969 -3.6345813 1.9337667 9
0.11296529 -3.4327438 2.1143184 11
0.20193231 -3.4165771 2.412267 12
0.042801168 6.3126884 -1.0261242 15
0.2943565 -3.6393204 1.8584586 8
0.23707265 -3.5585966 2.0571046 10
0.41591072 -2.6329534 2.2644358 15
0.26777291 6.1385803 -1.5436635 12
0.43642583 -2.6655674 2.1548936 14
0.75871575 5.3341961 -1.9339588 9
0.69603974 5.4801335 -1.6950864 11
0.71505743 5.5598006 -1.4740583 12
0.71642578 5.6344957 -1.3015769 13
0.74224579 5.7741737 -0.98742157 14.5
1.1322802 -0.21335843 -0.11839389 3
1.3572413 0.086452529 -0.23870669 4
1.2958084 -3.0025868 2.6615312 15
1.3032671 5.9103312 -0.96378076 15
1.4992231 -3.4520626 1.5213507 7
1.5414671 5.7255979 -1.6900812 11
1.6748954 -3.3272519 1.711226 8
1.6749243 5.7941942 -1.4356157 12
1.9439411 5.6589322 -1.953496 10
2.3982279 -0.956972 0.76625133 11
2.4356773 -0.94574666 0.68558049 9.5
2.4655933 -0.82814109 0.8954643 12.5
2.4085691 5.7039838 -2.1399038 9
2.570677 -0.76821959 1.0848668 14
2.3995557 6.4182754 -1.0696571 14
2.7276664 -0.86341071 0.56208271 9
2.6280031 -0.41890305 0.28432596 8.5
2.730484 -0.82186884 0.62020594 10
2.624368 -0.44577935 0.42774129 10
2.8201959 -2.9581671 1.8449867 10
2.697047 -0.67982531 0.76390767 11.5
2.6652722 -0.26358414 0.60577607 12
2.6999094 -0.66956675 0.94161278 13
2.6169498 -0.2449103 0.75649732 14
2.8044345 -2.8133483 2.1906028 12.5
2.8646226 -2.9989488 1.7293185 9
3.0082102 -2.753675 1.9023685 11
2.83588 -0.94017559 1.3404669 15
2.8721383 -2.7184508 2.348423 14
2.8981829 6.4674025 -1.2567719 13
3.2086658 -2.9398577 1.3470252 7
3.185251 -2.8672671 1.5362507 9
3.1638393 -2.6278431 2.0890441 12
3.2226732 -2.520793 2.2934916 14
3.4113255 -2.980412 1.3991166 8
3.3085592 -0.21808739 0.34194908 9
3.2942052 -2.7643931 1.6741889 10
3.5979135 -0.1919678 0.21325159 8
3.7888277 -2.7737908 1.6431662 9
3.5849597 4.5596089 -1.866009 8
3.6152999 4.5600653 -1.6136895 9
3.8023264 0.07124652 0.67357719 12
3.6078351 4.9327025 -1.5304384 10
3.6281216 -2.5750375 2.1782384 13
3.6327014 6.1761141 -1.8772932 11
3.8026457 -2.4516482 2.3570387 14
3.844022 -2.9114621 1.2915965 7
3.9516485 4.2799201 -1.7160885 8
4.198801 -2.2682893 2.5011933 15
4.0638633 6.3957295 -1.3201671 12.5
4.2848148 5.3160734 -1.2678829 12
4.3952789 5.2116184 -0.54369473 14
4.537559 6.739975 -0.65838826 15
4.6347284 4.4880614 -1.4305084 10
4.6053295 5.0370488 -0.29910624 15
4.83251 3.6744592 -1.1496958 10
4.8066392 3.8555748 -0.85324055 11
4.8394809 3.9015348 -0.64268374 12
5.0073953 4.3455563 -0.6138618 13
5.1302314 4.0922089 -0.22660531 14
5.1528339 4.2211356 0.10989451 15
5.3499112 3.034086 -0.38575065 12
5.2265 3.6265268 -0.46829402 12
5.3866396 3.1025581 0.041102491 14
5.2103224 3.7354019 -0.34000349 13
5.4654355 2.4780829 -0.37342885 11
5.5394955 2.603605 0.5269165 15
5.7467589 1.7138731 0.62401342 14
5.7065678 2.2634046 0.45992935 14
5.8777661 1.1774791 0.0081909364 10
5.8155432 1.3211795 0.5662331 13
5.8751259 1.3085808 1.0646837 15
