# .PCD v0.7 - Point Cloud Data file format
VERSION 0.7
FIELDS x y z intensity
SIZE 4 4 4 4
TYPE F F F F
COUNT 1 1 1 1
WIDTH 137
HEIGHT 1
VIEWPOINT 0 0 0 1 0 0 0
POINTS 137
DATA ascii
-8.8143559 0.19900762 2.8231614 15
-3.4707153 -2.7876024 1.3190885 7
-3.2474897 3.3580029 -0.74156851 11
-3.3614566 4.0271039 -0.4458023 14
-3.1383424 3.3731196 -1.2986954 8
-3.1643431 2.9412608 -0.82227618 10
-3.0574012 4.1025667 -1.2641553 10
-3.085098 2.7670939 -0.45058256 12
-3.1704617 3.2663629 -0.23948528 14
-2.9284642 2.0398669 -0.56170964 9.5
-2.9544814 3.795933 -1.3008718 9
-2.856245 1.8944726 -0.15646696 12
-2.9476497 2.2272506 -0.32498178 12
-2.9893603 2.3525567 -0.48395532 11
-2.9745138 3.5703783 -0.86158991 11
-2.8795958 2.1302006 0.099293038 15
-2.944273 2.3538764 -0.073278569 14
-2.6712706 1.3470531 -0.39156538 9
-2.6358047 1.1805755 -0.16468456 10
-2.645961 1.2719202 -0.19249631 10
-2.7425785 1.6155212 -0.38002902 10
-2.6509418 1.3750215 -0.046484966 12
-2.7269127 1.6036311 -0.24349251 11
-2.635498 1.3220627 0.24060243 14.5
-2.6931219 1.5838751 0.066005282 13
-2.7458744 1.8247681 0.046088241 14
-2.4324224 5.4609866 -1.415957 11
-2.5218022 5.6753035 -0.83526629 14
-2.5638011 5.7321854 -0.68274885 15
-2.3014331 5.5803323 -1.1950715 13
-2.1653733 -0.56870669 0.48277706 9
-2.0790951 5.5285454 -1.3221935 12
-1.9552701 4.2418013 -1.4455014 9
-1.5424823 -4.0713949 2.0251014 8
-1.5697706 -2.2925148 1.1390017 8
-1.5072178 5.5762062 -1.4649559 11.5
-1.6007407 5.6913037 -1.2429668 13
-1.5029249 5.8633471 -0.88304001 14.5
-0.9203819 3.566005 -1.1865557 10
-0.49322727 -0.61377949 0.041427862 0
-0.39701957 -2.6758263 1.4987907 10
-0.26947781 -1.2555798 0.3390294 3
-0.20402463 -1.1478776 0.28059301 2
-0.39133447 -0.70600593 0.068012394 0
-0.21217345 5.911427 -1.7277007 11
-0.13062482 -0.89145184 0.15791094 0
-0.14127403 -3.648612 1.8007272 8
-0.097787723 -3.4744973 2.1340036 10.5
-0.13785765 -3.3126478 2.5057111 13
0.024720358 -0.72821254 0.1054459 0
0.12749895 -3.6675591 1.7434249 7.5
0.058587268 -3.3918266 2.2303348 12
0.22853693 -3.6202555 1.9400139 9
0.29009694 -3.4832611 2.2044885 11
0.38610849 -2.7612395 2.00336 13
0.41379905 -2.6619773 2.2040896 14.5
0.2527 6.2989755 -1.1589792 14
0.74617237 5.4784751 -1.633528 11
0.74266118 5.5579782 -1.4456131 12
0.73011267 5.6515212 -1.2630038 13
0.74873036 5.7690024 -0.9903174 14.5
0.79686671 0.51949966 -0.45678866 2
0.91158909 5.3946495 -1.9101946 9
1.0513759 -0.41430888 -0.028444996 2
1.1453971 -0.17067152 -0.13810781 3
1.3756013 0.03539164 -0.21391845 4
1.3889887 -3.0447555 2.5196695 14
1.3788544 5.9291101 -1.0918894 14
1.7406232 5.7818007 -1.6540606 11
1.701719 5.7991695 -1.406515 12
1.9853327 -3.3359392 1.5415181 7
2.2900655 5.7253413 -2.0165334 9
2.4597912 -1.071299 0.71224087 10
2.4520214 -0.82573158 0.89192903 12
2.5740612 -0.69628394 0.99403167 14
2.7869627 -3.1019711 1.5482535 8
2.6348624 -0.41172487 0.28337803 8
2.7071257 -0.86626148 0.62259942 9.5
2.6866717 -0.73365521 0.72557253 11
2.6231709 -0.35148454 0.43305764 10
2.6220441 -0.7445845 0.83876187 12
2.6289582 -0.27480412 0.63203174 12.5
2.791203 -2.8958166 2.0181844 11
2.620182 -0.18519326 0.83729154 14.5
2.773308 6.3756399 -1.3811902 13
2.6746407 6.6891785 -1.5677074 12
2.74863 6.4960599 -1.0517665 14
2.9120908 -2.9475932 1.5320331 9
2.8898551 -2.9500482 1.8368683 10
2.8315876 -2.8736699 2.045325 12
2.8361681 -1.0023127 1.2137916 14
2.9653337 -2.6606419 2.1500342 13
2.8159895 -0.88204432 1.3410329 15
2.9057672 -2.6332817 2.2616999 14
2.9802704 -2.4867048 2.5198774 15
3.1504681 -2.8928597 1.4710191 8
3.1448491 -2.6853206 1.95217 12
3.2003491 0.040307574 0.97106075 15
3.2435856 -2.7574561 1.7806224 10
3.4421971 -3.0279219 1.3081906 7
3.4578669 5.1388974 -2.0228565 8
3.4803672 -0.10595432 0.51018935 11
3.5809021 -2.7060354 1.9571397 11
3.4176211 6.7780366 -1.8313355 11
3.4230583 6.5288367 -1.4311067 12
3.6975629 -0.2050852 0.13705668 7.5
3.8150337 -2.7010345 1.8037857 10
3.7667935 -0.045059152 0.45186731 10
3.6597676 4.7882509 -1.569476 10
3.657131 0.0079430658 0.63266265 12
3.7205348 6.6229291 -1.2485139 13
3.8782351 -2.9445219 1.2136717 7
3.9346061 -2.7402694 1.6133333 9
3.9548116 -0.068653591 0.29440767 9
3.8828142 4.2555423 -1.7206156 8
3.891371 -2.5005805 2.2012291 13
4.0607886 0.25573283 0.88434267 14
4.1734328 -2.3616827 2.3428228 14
4.1292925 6.307322 -1.3796444 12
4.0644145 -2.2503741 2.6468539 15
4.3804393 5.0026202 -1.0705774 12
4.4274735 6.9701762 -0.66933614 15
4.68261 4.9235578 -0.15633708 15
4.742825 5.9252205 -0.38758421 15
4.8782234 4.5620766 -1.3409607 10
4.8401279 4.1703134 0.01036885 15
5.1226711 3.9308901 -0.71585435 12
5.0536284 4.152247 -0.18999854 14
5.3389001 2.7033091 -1.3019038 7
5.2940044 3.0893984 -0.87274492 10
5.2029672 3.6601942 -0.64720196 11
5.3032651 3.4037027 -0.17679927 13
5.4015932 3.1519265 0.29530168 15
5.2519498 3.7428792 0.14555141 15
5.456625 2.6326432 -0.18151808 12
5.4262404 2.959192 0.13716309 14
5.6450305 2.5150862 0.12580149 13
