# .PCD v0.7 - Point Cloud Data file format
VERSION 0.7
FIELDS x y z intensity
SIZE 4 4 4 4
TYPE F F F F
COUNT 1 1 1 1
WIDTH 104
HEIGHT 1
VIEWPOINT 0 0 0 1 0 0 0
POINTS 104
DATA ascii
-0.23217613 -0.55402577 0.032966129 175
0.75770527 -0.58113128 0.061903864 195.16667
0.8354736 -0.54040653 0.04302923 196
-0.12162825 -0.46518189 -0.00095471746 175.25
-0.099107705 -0.45011604 -0.012052925 176
0.67376882 -0.46922544 0.021986427 190.66667
0.74412644 -0.46141428 0.017083392 193
0.86464059 -0.48324859 0.014540781 195
-0.21058153 -0.43020576 -0.019730657 175
-0.15517785 -0.3965995 -0.033570867 172.28572
-0.066853464 -0.39591819 -0.03428765 179.77777
0.58975261 -0.35739198 -0.042885683 180.5
0.64626515 -0.38659847 -0.023781324 184.45454
0.75605994 -0.38025743 -0.016355023 189.625
0.83178723 -0.37802508 -0.015181165 193.39999
0.91289449 -0.3975445 -0.022341521 195.5
-0.44832167 -0.32838643 -0.047111329 139
-0.13602786 -0.28624868 -0.037672363 167.14285
-0.067986399 -0.24683787 -0.035691045 157
0.56821746 -0.29994667 -0.07273747 177.16667
0.65219015 -0.30259573 -0.066940017 180.60001
0.73147207 -0.28961778 -0.061621204 185.11111
0.835756 -0.29982927 -0.053432733 191.22223
0.92405343 -0.31799728 -0.050528079 194
-0.30985144 -0.20939007 -0.11553241 171
-0.23564154 -0.19083513 -0.11306667 153
-0.15493822 -0.21987487 -0.10710635 171.77777
-0.041952383 -0.22912088 -0.030462341 151
0.087255225 -0.22579485 -0.099758282 166
0.17229657 -0.1582942 -0.057355415 130.72223
0.23046888 -0.17084299 -0.09171509 126.66666
0.47410741 -0.1933611 -0.13576351 167.72728
0.5458377 -0.21582794 -0.12418097 171.91667
0.63801718 -0.20998381 -0.10869344 177.54546
0.74748963 -0.21285626 -0.10193536 183.54167
0.86616588 -0.20193888 -0.094188139 191.27272
0.93739122 -0.19538863 -0.099027283 194
-0.31842446 -0.13339831 -0.15211402 180
-0.25003234 -0.12783404 -0.1541298 172.57143
-0.18288864 -0.12210292 -0.15550968 172
0.16345726 -0.12332534 -0.16367121 165
0.22758695 -0.14569242 -0.098728582 120.90909
0.48016661 -0.13344054 -0.16179767 167.92857
0.52433306 -0.12702404 -0.16561505 168.85417
0.65394956 -0.12806435 -0.15013577 177.02856
0.76108128 -0.12607156 -0.14037476 183.08333
0.84489179 -0.11644591 -0.13029858 189
0.92514974 -0.11040285 -0.13132775 193
-0.31375384 -0.054729313 -0.18946756 174
-0.23169647 -0.043232322 -0.19199313 172.2
-0.18617553 -0.025421282 -0.19901793 173.33333
0.17696159 5.5171458e-05 -0.21946537 164
0.483179 -0.047300555 -0.20063502 168.64865
0.5197233 -0.042083312 -0.20355837 168.92592
0.6588738 -0.035786327 -0.19019422 177.3421
0.75853801 -0.035318844 -0.185201 182.54167
0.8470661 -0.025242886 -0.17220114 188.71428
0.9280827 -0.012633564 -0.17686276 193.85715
-0.31203794 0.025428845 -0.22304246 174
-0.23784752 0.063208282 -0.1911058 172.16667
-0.18326053 0.086517833 -0.203293 169.76923
0.047301963 0.11905646 -0.19005583 174
0.16683142 0.090656608 -0.17016682 136.77777
0.2292359 0.061544817 -0.19935821 123.42857
0.52650142 0.016087823 -0.23183687 170.5
0.63501716 0.057768885 -0.23178248 178.05
0.75641161 0.058448274 -0.22555006 184.03999
0.84701425 0.068871245 -0.21637692 190.33333
0.93033767 0.076752439 -0.22292861 193.5
-0.22858964 0.16367379 -0.28529081 175.8
-0.16084614 0.13686171 -0.27291033 177
-0.0077284486 0.13253495 -0.27385804 178
0.057411183 0.16768734 -0.19960836 171
0.66952926 0.12640344 -0.26521149 181.25
0.73190701 0.14697121 -0.26032424 185.72728
0.85513538 0.15909497 -0.25976351 192.8
0.9262796 0.14423767 -0.2585279 195
-0.34980538 0.21157408 -0.30769485 172
-0.11518439 0.27634019 -0.33844578 180.5
-0.054013126 0.24261886 -0.31730214 182.33333
-7.9150428e-05 0.27452794 -0.33896533 184
0.78338599 0.21418892 -0.29077843 191
0.83242458 0.24997532 -0.30454329 194.83333
0.927921 0.21841921 -0.30338228 195
-0.24010462 0.36584562 -0.37767377 172
-0.14682126 0.29939082 -0.34623337 175
-0.055374891 0.32598674 -0.35981899 183.25
0.0438825 0.3290801 -0.36070862 184.71428
0.90858668 0.29662308 -0.33863074 197
-0.17583293 0.43729711 -0.41198647 179
-0.020941649 0.4072862 -0.39654386 180.33333
-0.003842867 0.38661098 -0.38883972 185
-0.083070025 0.48215961 -0.43289 176.5
-0.072234422 -0.22629529 0.0031625561 156
-0.10472229 -0.15994512 0.019311979 137
-0.037761353 -0.16166595 -0.031884566 152
0.060667086 -0.14384963 0.016305188 130.23077
0.123635 -0.14054063 -0.032253776 130.90909
-0.24192654 0.12583545 -0.13832714 170.60001
0.083346419 0.12492501 -0.092840977 123.7
0.12902007 0.11488649 -0.13553762 130.53334
0.047082242 -0.1192664 0.070882902 132.5
0.061533455 0.14126015 -0.058416195 121
0.020071145 0.21922155 -0.071945451 142.5
