# .PCD v0.7 - Point Cloud Data file format
VERSION 0.7
FIELDS x y z intensity
SIZE 4 4 4 4
TYPE F F F F
COUNT 1 1 1 1
WIDTH 95
HEIGHT 1
VIEWPOINT 0 0 0 1 0 0 0
POINTS 95
DATA ascii
0.77539015 -0.64888924 0.074363038 184
0.69286096 -0.5299536 0.035119478 191
0.74046749 -0.59886825 0.052011769 189.39999
0.81453329 -0.55831808 0.035502769 191.5
0.66338181 -0.48767963 0.016487258 188.66667
0.74120051 -0.47663224 0.0090223178 190.16667
0.85424465 -0.48463666 0.0059978515 191.83333
-0.14810537 -0.38840753 -0.040863138 190.33333
-0.095287845 -0.35540262 -0.050952353 188.33333
0.58481532 -0.37561852 -0.049714468 177
0.64255601 -0.39192009 -0.024342485 182.65218
0.75652003 -0.38053572 -0.024210958 187.44444
0.82817805 -0.37237006 -0.029453522 189.5
0.91931093 -0.40723652 -0.033136621 193
-0.26128387 -0.26905894 -0.085007839 192.5
-0.03228154 -0.32237232 -0.07165277 182.33333
0.014675758 -0.29218191 -0.079514146 179.66667
0.56301659 -0.30258337 -0.077813335 170.13637
0.65185773 -0.3074204 -0.071842715 173.60715
0.74119985 -0.29020247 -0.060678951 182.84616
0.84520423 -0.29895124 -0.061222747 188.71428
0.91902268 -0.29754969 -0.069179587 190.66667
-0.58628112 -0.22194482 -0.044371735 144
-0.24652377 -0.18157841 -0.085367307 179.43478
-0.1844998 -0.22239551 -0.10921807 188.25
-0.056686927 -0.21409675 -0.1213451 180
0.071742214 -0.21467778 -0.074997783 173
0.17203024 -0.15172684 -0.056649998 133.25
0.44856277 -0.178312 -0.14370243 168
0.58603847 -0.24632046 -0.1111861 172.57143
0.6422888 -0.21091381 -0.11834495 172.41667
0.74329072 -0.20968017 -0.10522228 176.62962
0.84437144 -0.21128933 -0.098530367 185.27272
0.93787748 -0.20917319 -0.10516588 190
-0.18957962 -0.11907722 -0.16253866 187.5
-0.059340548 -0.16237393 -0.14552972 180
0.15093675 -0.13366365 -0.15748012 166.90909
0.22308663 -0.14553338 -0.098273493 128.15384
0.47184831 -0.12863344 -0.16676082 168.09091
0.65560591 -0.11865136 -0.16146855 173.62857
0.74941504 -0.11399361 -0.15470965 173.65625
0.84843689 -0.10491733 -0.14094944 183.84616
0.94320554 -0.10761461 -0.1476097 189.71428
-0.21429259 -0.05256965 -0.18941467 188
-0.19412225 -0.011163278 -0.2097628 187.66667
-0.074930914 -0.061291572 -0.18995243 180
0.15011494 -0.043952201 -0.19733289 166.81818
0.47696701 -0.057328921 -0.19801356 168.38889
0.51615864 -0.065020949 -0.19571348 168.85715
0.65380079 -0.027617076 -0.20145844 173.60715
0.75373775 -0.017849943 -0.19674432 174.88461
0.84952301 -0.017550042 -0.1826853 183.875
0.9428699 -0.015999075 -0.18750647 190
-0.21103495 0.09993048 -0.18201844 187.75
-0.17837624 0.079407826 -0.21920587 178.14285
-0.044846289 0.071318045 -0.24925388 179.66667
0.064036563 0.11009684 -0.19556941 168
0.17160559 0.075521849 -0.17984253 141.8421
0.2443909 0.0688283 -0.22401617 150.55556
0.63965476 0.053079952 -0.23711598 173.89285
0.73935509 0.065825261 -0.23491849 177.48
0.85568696 0.060904529 -0.21932797 187.5
0.92143565 0.066877887 -0.22364095 191
-0.14787079 0.13440077 -0.27071789 188
0.042075682 0.15615946 -0.23857458 179.5
0.25009644 0.11155331 -0.27057397 169.39999
0.68846875 0.10803536 -0.2718204 174
0.73852658 0.14264536 -0.26134026 182.125
0.83563858 0.16170909 -0.26919341 189
0.93379235 0.16036825 -0.27911326 191.33333
-0.11011986 0.27139619 -0.33511883 191
-0.053651579 0.25138271 -0.32377514 188.75
0.054365315 0.22036016 -0.31354976 182.25
0.14649363 0.24085604 -0.32415447 180.13333
0.83816946 0.21896721 -0.29325223 191
0.90920085 0.25101277 -0.33075014 194
-0.12302098 0.33113363 -0.3636753 194
-0.052631538 0.32062188 -0.35491833 191.2
0.046179775 0.33302107 -0.35971808 189.5
0.11186109 0.34330812 -0.36128348 187.8
-0.02475513 0.40449056 -0.39468646 193.75
0.062257003 0.42213172 -0.40293467 192.42857
-0.13376178 -0.29269677 0.074329101 180
-0.41493219 -0.17246048 -0.023264784 148
-0.32717633 -0.15156755 -0.02044254 149.33333
-0.28957063 -0.14770615 -0.028367329 158.5
0.062473688 -0.13173495 0.015889766 132.78572
0.12797107 -0.14129543 -0.028055828 127.14286
-0.25374511 0.13989978 -0.14196207 174.27272
0.061252933 0.1423818 -0.092801332 140.03703
0.13009356 0.10920113 -0.13092376 132.60001
-0.0097410185 -0.18952452 0.085555576 166
-0.0061915368 -0.12390522 0.084894292 137
0.049117561 -0.11387666 0.06543225 136.83333
0.049499959 0.16446407 -0.043384537 142.57143
