# .PCD v0.7 - Point Cloud Data file format
VERSION 0.7
FIELDS x y z intensity
SIZE 4 4 4 4
TYPE F F F F
COUNT 1 1 1 1
WIDTH 61
HEIGHT 1
VIEWPOINT 0 0 0 1 0 0 0
POINTS 61
DATA ascii
-0.49393773 -0.59860981 0.033179525 0
-0.59710604 0.45032912 -0.44305643 0
-0.4569889 0.80592364 -0.59784198 1
-0.52585292 1.168103 -0.75779402 2.75
-0.59756684 1.4720454 -0.90603709 3
-0.21429251 0.5830934 -0.49762413 0
-0.24562255 0.79842329 -0.59737557 0.83333331
-0.3564814 1.0885154 -0.71916217 2.5
0.71874225 -0.54345745 0.035603929 1.5
0.66580254 -0.29264116 -0.07444565 0.5714286
0.7092911 0.08358793 -0.24534862 0.5
1.1189219 -0.88945019 0.19980915 4
1.048571 -0.63243437 0.074190475 3.1428571
0.98755872 -0.26881528 -0.085900247 2.1428571
0.95930105 0.10622509 -0.24940525 2
1.039119 0.3235442 -0.35657945 2.3333333
1.4548053 -1.255281 0.37631339 5
1.3541003 -0.94928044 0.23421644 4.5999999
1.3992169 -0.59766978 0.07010559 4
1.3672072 -0.29323292 -0.068269372 4
1.3860681 0.13359669 -0.25923958 3.8
1.2992265 0.43049619 -0.3966971 3.75
1.904582 -1.747303 0.59708989 6
1.7894676 -1.379215 0.43449599 5
1.7462374 -0.97149044 0.25517419 5
1.74481 -0.62729031 0.10063384 5
1.7342021 -0.32471257 -0.038067129 5
1.6803581 0.13977948 -0.24864729 5
1.6466103 0.45076334 -0.38713863 5
2.046133 -1.9018617 0.66855443 6
2.2318931 -1.6485308 0.5584507 6
2.146071 -1.2334452 0.37465066 6
2.1473424 -0.95310056 0.25048444 5.5
2.2231793 -0.73571855 0.15229839 5
2.195168 0.43755683 -0.37503996 5
2.3824816 0.89844447 -0.57834917 6
2.356992 -1.3155626 0.64825517 8
2.7766218 -2.7013292 1.0242845 6
2.4359553 -2.3278048 0.86323649 6
2.6450853 -1.3612971 0.46997657 6.5
2.545114 -0.93531001 0.2802954 6.3333335
2.5938165 -0.59552091 0.084801562 6
2.4515877 -0.20170312 -0.086943023 6
2.5883343 0.1633624 -0.24649477 6
2.4277043 0.50766158 -0.40558526 6
2.7709267 0.75686944 -0.51124203 6
2.5707009 -1.0732239 0.63339621 9
2.7471342 -0.8094269 0.55701321 9.5
2.856312 -0.62296259 0.19891901 7
2.8052096 -1.2343146 0.54540628 7.5
2.8159854 -0.45936003 0.57786047 11
3.3926203 0.60250628 -0.43094069 6
3.4914966 1.0189016 -0.59806317 6
3.8446932 -0.47702414 0.064115651 6.5
4.0921655 -3.2567871 1.1273229 6
5.8705311 0.51522177 -0.37706581 7
5.8157277 1.5390774 0.033191159 11
5.8034806 1.6263169 0.19054489 11
6.0179834 -0.12941869 -0.14549953 7
6.0564632 0.23887122 0.61502534 11
6.0511966 0.31860721 0.77935666 11
