# .PCD v0.7 - Point Cloud Data file format
VERSION 0.7
FIELDS x y z intensity
SIZE 4 4 4 4
TYPE F F F F
COUNT 1 1 1 1
WIDTH 101
HEIGHT 1
VIEWPOINT 0 0 0 1 0 0 0
POINTS 101
DATA ascii
3.8246367 5.1454806 0.43320593 198
3.7219658 5.1548076 0.43870768 197
3.7908392 5.0388341 0.41969264 194
3.7013655 5.0360069 0.42329332 192.66667
3.9441736 4.9658809 0.39715371 192.5
3.8555193 4.9798717 0.40222657 191.28572
3.7732661 4.9848952 0.41162941 191.60001
3.6885712 4.9650607 0.41271102 190.33333
4.2602434 4.8767633 0.3864499 198
4.0782681 4.8629827 0.37041906 193
3.9854529 4.8841305 0.37839991 190.75
3.8786352 4.8836527 0.38408422 188.5
3.7770245 4.9007263 0.39356369 188
3.6790645 4.8894506 0.3890633 185.71428
4.1539092 4.7965598 0.39294702 194
4.0943413 4.7711329 0.35455406 190.66667
3.9800768 4.809422 0.36588851 188.375
3.8753765 4.7615442 0.3530744 180.8
3.7843976 4.7829061 0.35942802 179.2
3.6776242 4.7924881 0.36746123 178.72223
4.0488081 4.7379823 0.35475743 189
4.0359974 4.7315249 0.34862363 186.5
3.9049163 4.7088232 0.34908891 180
3.6614335 4.6459579 0.32985336 169.7
3.6219621 4.6499224 0.33078566 170.53847
4.2165766 4.6560287 0.32475695 193
4.1207547 4.6209798 0.32093039 187
4.0075555 4.5812111 0.31164813 180
3.8965745 4.5770411 0.38480142 175.66667
3.7813249 4.5360279 0.38312733 133.28572
3.7079749 4.5691695 0.33562434 151.40475
3.6323013 4.6092243 0.32169133 168.11111
3.1992116 4.5027256 0.32627985 175.18182
3.1056495 4.5210967 0.34272224 185.57143
2.9951854 4.5276465 0.33468643 190.5
4.1881781 4.5445476 0.34870344 182.3158
4.1469593 4.5325837 0.30051899 188
4.0322547 4.5307941 0.29922628 179
3.7977026 4.5070395 0.30801255 161.55556
3.7301102 4.5098634 0.35123974 121.3
3.480068 4.4354444 0.28480464 168
3.2946861 4.4515224 0.30185473 173.78787
3.2037964 4.4347615 0.30995867 173.88461
3.1078963 4.4357662 0.32580075 184.15384
3.0212541 4.4257121 0.3205024 189.16667
4.182672 4.4173489 0.27436435 189
4.1572866 4.4174814 0.27592507 188
4.0407205 4.3918724 0.26994622 180
3.7762897 4.3728576 0.27820259 167
3.4830251 4.3673854 0.2701655 168.14285
3.4579296 4.3774781 0.27148598 168
3.304852 4.348115 0.27964935 173.63637
3.2084982 4.3443842 0.28894448 173.56
3.1180344 4.3210702 0.29803693 184.25
3.0381007 4.3380499 0.30246669 189.66667
4.1804314 4.3187222 0.26404804 189
4.1428676 4.2904749 0.26341477 175.81818
4.0299978 4.309092 0.25190496 181.5
3.3766997 4.2368116 0.24620049 173.5
3.334295 4.2517233 0.25858158 173.90323
3.2259376 4.2480478 0.26830429 177.14815
3.1119213 4.2353373 0.27839944 187.75
3.0364001 4.2410226 0.27781069 190.39999
4.2312517 4.2546058 0.25377619 193
3.4885383 4.131485 0.22511409 172.60001
3.4182367 4.1627903 0.23688377 173.24138
3.3236845 4.1562629 0.23979484 176.5
3.246701 4.1542144 0.25397268 182.11765
3.1391799 4.1446905 0.2568171 188.54546
3.0304258 4.116313 0.23855525 192
3.5184872 4.0907736 0.21964277 175.23077
3.4336038 4.0611858 0.21636641 178.8
3.3387995 4.0695529 0.22885002 182.63637
3.2287524 4.0461369 0.22895938 188.33333
3.1317434 4.0468335 0.22747572 191.25
3.053231 4.0410089 0.21351644 194
3.5077982 3.9674311 0.19768968 185.14285
3.4429972 3.9847949 0.20458756 184.81818
3.3434393 3.9536557 0.19974285 188.55556
3.256134 3.9532256 0.20429139 191.2
3.1455467 3.9407804 0.1894661 193
3.5012364 3.9226458 0.18905403 188
3.4573181 3.8725917 0.17703009 189.92308
3.32763 3.8665907 0.17565066 191.5
3.2230265 3.8522151 0.17053868 191.60001
3.1465576 3.8937168 0.18777393 195
3.4723155 3.759196 0.14326841 192.5
3.3794765 3.7659397 0.14695615 194
3.2950594 3.7950773 0.15931629 193.5
3.4604158 3.678859 0.12719689 192
3.3565803 3.6903169 0.12966165 190
3.4521959 3.6158204 0.11769778 181.5
4.0257812 4.6641183 0.47792232 189
4.2611737 4.5460758 0.42778841 185
4.2406039 4.5465169 0.41026521 186
4.0691066 4.6058679 0.50092673 148
3.8923388 4.5275621 0.46409246 132.16
3.8243167 4.5346122 0.42454389 128.1875
4.2368808 4.5397234 0.42965689 181.5
3.9719157 4.5462532 0.51878917 135
3.8992186 4.520669 0.52016854 120.33334
