# .PCD v0.7 - Point Cloud Data file format
VERSION 0.7
FIELDS x y z intensity
SIZE 4 4 4 4
TYPE F F F F
COUNT 1 1 1 1
WIDTH 141
HEIGHT 1
VIEWPOINT 0 0 0 1 0 0 0
POINTS 141
DATA ascii
-0.051072553 -0.94298202 -0.19410412 156
0.091287307 -0.94336545 -0.1982549 160
0.22515273 -0.9376635 -0.20431587 162.66667
0.34746873 -0.92443842 -0.20930128 159
-0.016847452 -0.87288868 -0.20236622 166
0.0017968124 -0.82767248 -0.19601843 170
0.12540187 -0.83269578 -0.19988829 174.75
0.24199909 -0.83100843 -0.20172499 176
0.34857672 -0.83251685 -0.20146938 171.75
0.45760816 -0.8226735 -0.2015157 174.75
0.56255925 -0.80502594 -0.1948366 174
0.03169122 -0.76376808 -0.19910464 177.60001
0.15630329 -0.73176706 -0.20067887 182
0.25885203 -0.72883368 -0.20172119 183.8
0.35203794 -0.73935741 -0.2015907 184.75
0.44462854 -0.71582896 -0.1918202 185.66667
0.54557008 -0.73535138 -0.19145313 183
0.64809632 -0.72980076 -0.19636877 180
0.075381175 -0.66708726 -0.19856098 184.25
0.18284781 -0.64092499 -0.19707598 189.5
0.27427393 -0.6189279 -0.19246309 189.2
0.35270843 -0.62929606 -0.19001773 189.39999
0.43813232 -0.64828801 -0.19159931 190
0.54080474 -0.64996916 -0.19433048 189.33333
0.64264083 -0.64315701 -0.19421752 185.71428
0.73381931 -0.62769943 -0.1894743 182
0.13291724 -0.55954194 -0.19072738 187.625
0.24857534 -0.53589368 -0.1852749 186.39999
0.35535717 -0.54494941 -0.18856108 186.83333
0.44216558 -0.54411852 -0.18594596 187.33333
0.54506999 -0.54544026 -0.18573552 189
0.65824312 -0.53639412 -0.18668514 190.5
0.76049471 -0.54321557 -0.19130708 187.8
0.83547539 -0.49917296 -0.18883787 188
0.16194595 -0.4699316 -0.18900169 184.14285
0.25276765 -0.475806 -0.19340084 183.07692
0.34504586 -0.45764676 -0.20144346 180.70589
0.45187825 -0.45116192 -0.19616696 181.84
0.54581213 -0.42520341 -0.18749408 183.39999
0.65084022 -0.4503381 -0.18412367 187.60001
0.74498492 -0.43421343 -0.18199843 190.14285
0.86607212 -0.43929914 -0.19401187 192.25
0.24272983 -0.36031702 -0.1988446 175.19048
0.34287265 -0.35865685 -0.19972309 174.43478
0.44563344 -0.33306119 -0.19786064 175.02942
0.55125022 -0.35145739 -0.19426636 178.7
0.64286792 -0.33704343 -0.18696652 181.5238
0.74293989 -0.33955249 -0.17952247 187.11111
0.83353239 -0.3355203 -0.17865057 190.42857
0.92652386 -0.3560248 -0.19633622 193
0.28114069 -0.21675169 -0.20650238 167.25
0.34315148 -0.22596096 -0.20808995 167.79411
0.43738306 -0.23243193 -0.20954879 168.75
0.54962832 -0.24419066 -0.19858631 174.15384
0.64843661 -0.24516657 -0.18888517 178.47826
0.72856545 -0.23432617 -0.18071823 182.73334
0.83422577 -0.24433894 -0.17760424 187.60001
0.95343864 -0.23661754 -0.19128372 191.5
0.29355019 -0.18939039 -0.20726411 166.5
0.35571763 -0.14740819 -0.20833454 158.72549
0.44291064 -0.14174207 -0.20881437 159.17172
0.54371721 -0.13429561 -0.21123154 162.94118
0.63139534 -0.14031197 -0.19392137 173.97728
0.74368453 -0.15014945 -0.18301994 180.65218
0.84802473 -0.162145 -0.17375886 187.14285
0.90995342 -0.18340155 -0.17392871 191
0.38004059 -0.01072809 -0.20701115 155.92308
0.46059203 -0.058296219 -0.20749366 162.57535
0.5240081 -0.064595819 -0.20638128 160.48485
0.62844288 -0.083719589 -0.20329484 170.61539
0.16704358 0.075400352 -0.199624 145.89473
0.23285116 0.078307539 -0.19718245 146.88235
0.34828249 0.045886457 -0.20303714 149.8
0.40367618 0.098866545 -0.20892048 164
-0.25105205 0.18654464 -0.17747891 148.5
-0.16110447 0.16034387 -0.18026875 152.44444
-0.034833662 0.18110999 -0.19722143 169
0.081719451 0.169461 -0.15451564 158
0.16609417 0.13591304 -0.17987558 142.58333
0.24447884 0.1279029 -0.16659507 134.55556
0.34529448 0.12001478 -0.20881946 155.5
-0.38235465 0.22581083 -0.18297552 151
-0.23066065 0.26283249 -0.1780975 147.66667
-0.15021835 0.22862886 -0.1814363 152.45454
-0.10219897 0.20935792 -0.19144209 162
0.036915865 0.26223743 -0.18236633 171
0.15084894 0.2213147 -0.17566496 156
0.21553898 0.21299927 -0.20362861 146
0.3777917 0.2963109 -0.21012062 147
0.45692968 0.28576127 -0.20565443 150
0.49721596 0.29715276 -0.20491609 151.66667
-0.34390321 0.31265604 -0.18505171 151
-0.19747929 0.32582599 -0.11041921 131
-0.054613478 0.34375528 -0.1768463 153.14285
0.00075786683 0.37457821 -0.1891488 165.33333
0.14994377 0.33812252 -0.20123471 175
0.27908134 0.36122435 -0.20473717 171.60001
0.35437202 0.35113907 -0.20437397 164.5
0.44142279 0.34286302 -0.20423236 159.10527
0.52344251 0.3617242 -0.20609891 164.90909
-0.36344618 0.435646 -0.17454945 143
-0.060384665 0.43374878 -0.18409665 153.125
0.031848349 0.45543545 -0.18946342 162.27272
0.13925807 0.46638605 -0.193896 176.81818
0.24255662 0.48652011 -0.19951509 182
0.34506649 0.47678038 -0.20153837 181.44444
0.45326108 0.45348325 -0.20379366 179
0.53918368 0.45916057 -0.20247674 179.41667
-0.17733325 0.55151409 -0.18983667 147.5
-0.041533247 0.53920251 -0.19037266 149.5
0.064349383 0.53229469 -0.19168098 160.83333
0.14210002 0.55590624 -0.19512945 165.85715
0.22228038 0.55705482 -0.19779707 172.57143
0.33529878 0.55940062 -0.19962724 177.78572
0.44461903 0.55727613 -0.20436631 179.85715
0.52579743 0.54307234 -0.20707075 178
0.59189558 0.53436893 -0.20437491 176
-0.1570856 0.68792665 -0.19091284 144
-0.095292285 0.60925245 -0.19285384 149
0.02980545 0.65651262 -0.19603123 148.66667
0.1308392 0.66379368 -0.19888797 153.33333
0.22612824 0.65131336 -0.20120673 162.66667
0.34434354 0.64672804 -0.20084211 168.66667
0.45662677 0.65520853 -0.20630717 170
0.55007923 0.67290163 -0.2058589 162
0.63495654 0.63693881 -0.21192841 161.33333
0.041758291 0.79345161 -0.19720723 142
0.16648567 0.75660157 -0.19859853 150.5
0.27545726 0.72216618 -0.20120826 157
0.37135333 0.72686392 -0.20309865 159.5
0.46764487 0.747778 -0.2070787 159.66667
0.57898712 0.78157312 -0.21075989 152
0.26096225 0.82444036 -0.20201761 145
0.37029061 0.81668741 -0.20299654 150.5
0.47493392 0.81763464 -0.20416284 152
0.093656182 0.14498326 -0.060917124 138.39999
0.14170681 0.14002655 -0.081851445 128.79488
0.2072368 0.14279304 -0.10062682 118.4
0.05526574 0.21709666 -0.051923204 129
0.11434487 0.19098437 0.046953723 131.5
0.05354017 0.25930044 0.020368746 152
