# .PCD v0.7 - Point Cloud Data file format
VERSION 0.7
FIELDS x y z intensity
SIZE 4 4 4 4
TYPE F F F F
COUNT 1 1 1 1
WIDTH 125
HEIGHT 1
VIEWPOINT 0 0 0 1 0 0 0
POINTS 125
DATA ascii
-0.31788135 -0.9035551 -0.18366441 137
-0.16768952 -0.94292367 -0.19319122 155.5
-0.019439194 -0.95737714 -0.19855177 157.66667
0.12467004 -0.94768786 -0.20019878 163.25
0.25273111 -0.94889557 -0.20051174 161
0.38406128 -0.91555423 -0.20899914 170
-0.46094164 -0.83687252 -0.18063411 126
-0.26612028 -0.83784854 -0.18893035 152
-0.13130504 -0.88027549 -0.19419539 157
-0.097453713 -0.82444078 -0.19994476 165
0.0410663 -0.81168818 -0.19903165 172.66667
0.1561044 -0.82924575 -0.19946371 175.75
0.26638982 -0.84310526 -0.19938785 174.25
0.38190934 -0.82806581 -0.2026293 177.75
0.4928402 -0.83175349 -0.20486388 174
-0.62585491 -0.77575618 -0.18234776 116
-0.57400978 -0.73462176 -0.17894852 122
-0.40733302 -0.78234744 -0.17858407 137
-0.36724618 -0.74410456 -0.18542622 150
-0.17849915 -0.72397006 -0.19098583 174.66667
-0.051101539 -0.74197817 -0.19601285 177
0.068820059 -0.74556732 -0.20026442 180.66667
0.18367986 -0.72538042 -0.19887517 185.60001
0.28163898 -0.73145658 -0.20112143 186
0.38149399 -0.73443633 -0.20237917 188.75
0.47607794 -0.72148681 -0.19873235 188.2
0.58396953 -0.75026482 -0.19944063 182.75
-0.50512797 -0.68137646 -0.18033463 133
-0.45708185 -0.64527816 -0.18566087 144
-0.26638687 -0.6433081 -0.18745305 170
-0.12684506 -0.65748769 -0.19387193 180.5
-0.051775083 -0.640643 -0.1927008 185
0.074836157 -0.67101318 -0.20141135 186.75
0.13992186 -0.65754545 -0.20311296 188.66667
0.25176454 -0.61541831 -0.1892283 189.5
0.37752226 -0.63111919 -0.18995199 190.25
0.46405339 -0.63853979 -0.19618498 191
0.55777645 -0.65481126 -0.1993169 188.2
0.64975744 -0.64408553 -0.20026548 187.33333
0.74296665 -0.62327474 -0.19873115 183
-0.34259829 -0.5565061 -0.18674335 169
-0.21384478 -0.59254932 -0.19429542 178
-0.167748 -0.54558492 -0.19224402 184.5
-0.029205373 -0.52726907 -0.18760629 189.60001
0.060688596 -0.54592377 -0.19213593 188
0.14399081 -0.55786657 -0.19142643 188.71428
0.24510229 -0.55828691 -0.18800184 187.5
0.34629038 -0.53854913 -0.18691607 186.5
0.45002455 -0.54870176 -0.19000171 188
0.55227745 -0.53313792 -0.19124633 188.89999
0.63872373 -0.52697307 -0.18860932 191
0.75308239 -0.55195653 -0.20285726 190.25
0.81731009 -0.56449348 -0.19967055 184
-0.25736192 -0.49069276 -0.18869823 184
-0.14960174 -0.43414092 -0.18562575 189
-0.065361232 -0.44073975 -0.18595095 187.625
0.04539435 -0.44893572 -0.1896327 185.07692
0.14729717 -0.46379432 -0.1943896 184.35715
0.25185779 -0.46904001 -0.19817731 182.89999
0.35010678 -0.46408775 -0.20216222 182.19048
0.46623173 -0.44066471 -0.19999029 182.19048
0.53969222 -0.43536839 -0.19049874 184.35715
0.64134216 -0.43850309 -0.19129081 187.66667
0.72952223 -0.43648461 -0.19305296 190.85715
0.84749776 -0.46257168 -0.20434663 192.8
-0.12959531 -0.39143249 -0.18907526 187.66667
-0.045861222 -0.35949132 -0.18746658 184.61539
0.062376931 -0.31465435 -0.19402547 178.60001
0.14800772 -0.34547836 -0.19845438 176.89473
0.25400436 -0.36344945 -0.20040073 175.88889
0.3554844 -0.35620815 -0.20279872 174.95833
0.4471181 -0.33455828 -0.20304132 176.04167
0.55584401 -0.34779763 -0.20366731 179
0.64772582 -0.32971075 -0.19539683 182.7
0.7439025 -0.3631492 -0.19297977 188.14285
0.047766753 -0.27746063 -0.19667149 177.08333
0.2764461 -0.21542411 -0.20928223 167.5
0.33739647 -0.22071436 -0.21105096 168.2
0.47359201 -0.27683282 -0.21508965 173.39999
0.54605728 -0.24809884 -0.20303622 175.45946
0.64125437 -0.26325351 -0.20577811 179.25
0.18823747 -0.14720038 -0.20462854 165.5
0.2401627 -0.15168113 -0.20423846 165.20589
0.32958949 -0.14890985 -0.20939146 163.22223
0.42727181 -0.10973725 -0.21483965 162
0.57438129 -0.18946359 -0.21396439 174.75
0.37586254 -0.0037498581 -0.21018441 157.33333
0.37293375 0.017669398 -0.20887096 154.28572
0.4206565 0.062025182 -0.21372859 164
0.57041395 0.18284765 -0.21464853 158
0.60256064 0.1915973 -0.21081954 158.75
0.36534679 0.29348573 -0.21045999 148
0.46120432 0.28621721 -0.20821357 150.33333
0.54667312 0.2502616 -0.20872872 152.93333
0.63892049 0.25575042 -0.20624919 155.65218
0.71080178 0.28716323 -0.19701327 167.60001
-0.034552794 0.37508333 -0.19496202 164
0.35541585 0.34435743 -0.20881976 162.85715
0.43378159 0.33394146 -0.209351 159.05882
0.54535669 0.35963389 -0.2066692 165.61111
0.62908322 0.33816808 -0.20149207 166.86667
0.73678952 0.3582162 -0.20516117 172.8
0.82804632 0.38190567 -0.21793367 170.66667
-0.085317798 0.44856524 -0.19310309 156.5
0.032679345 0.42851683 -0.19664128 173.8
0.24352539 0.48883989 -0.20345277 182.66667
0.32850072 0.48595133 -0.20475636 182.2
0.45470187 0.46432328 -0.20772433 181.8
0.53957778 0.44844353 -0.2051286 179.875
0.63836789 0.45089331 -0.20847672 177.72728
0.72933716 0.44007277 -0.21254739 173.5
0.85175949 0.44440204 -0.22157319 167
0.037749089 0.5258339 -0.19769365 163
0.28398776 0.51482928 -0.20366204 182.5
0.35180649 0.54381126 -0.207095 180.33333
0.42747816 0.56668103 -0.20921196 179.25
0.5432049 0.54368907 -0.20954473 180.2
0.68685126 0.59334272 -0.21683024 166
0.77043164 0.5596382 -0.22276963 171
0.26558426 0.61610156 -0.20488116 173
0.34829852 0.61539996 -0.20776436 177
0.61431539 0.64816409 -0.21527879 167.5
0.69580585 0.61074084 -0.21685225 164
0.43980348 0.70859957 -0.21098495 164
0.64897192 0.74360842 -0.21663845 153
