# .PCD v0.7 - Point Cloud Data file format
VERSION 0.7
FIELDS x y z intensity
SIZE 4 4 4 4
TYPE F F F F
COUNT 1 1 1 1
WIDTH 689
HEIGHT 1
VIEWPOINT 0 0 0 1 0 0 0
POINTS 689
DATA ascii
-4.0147347 2.1762688 0.30060866 8
-4.0457106 2.5775855 0.3298912 8
-4.0607967 2.9024377 0.38818398 8.333333
-4.075376 3.359647 0.47064498 8.666667
-3.9932368 1.9512323 0.88070667 12
-4.0095201 2.210243 0.82243133 11.2
-4.0370188 2.5941322 0.75857788 10.6
-4.0474129 2.8939724 0.76005286 10.8
-4.0597639 3.3260262 0.73463476 10.666667
-3.9953613 2.1881783 1.0822248 13
-4.0192628 2.5489397 1.1250786 13
-4.0434513 2.9410031 1.1367457 12.833333
-4.0712748 3.3088384 1.0804505 12.333333
-3.9925177 2.1628602 1.4285414 15
-4.0172701 2.5534179 1.5289501 15
-4.0333686 2.9759574 1.4953401 14.5
-4.0448465 3.3316486 1.5596924 14.5
-3.7416284 -1.2843845 0.37727261 9
-3.7322142 -1.0530913 0.40254968 9
-3.9886878 1.8336471 0.34601328 8.5
-4.0049686 2.1762078 0.41371426 8.5
-3.8398938 3.4763651 0.35986614 8.333333
-3.713773 -1.3883754 0.70780402 11.25
-3.7227495 -1.0451092 0.72125 11.666667
-3.9647977 1.4906275 0.81784636 12
-3.9799225 1.7628285 0.75585401 11
-3.9920533 2.0324495 0.72585875 10.75
-3.8038971 3.4830818 0.69003636 10.2
-3.7181227 -1.386362 1.148015 14.25
-3.7589993 -1.0491202 1.1640875 14.333333
-3.726805 -0.6372298 1.2359945 15
-3.6182926 -0.38565153 1.2065898 15
-3.8805285 0.27531821 1.308727 15
-3.9174004 0.55731815 1.3060845 15
-3.9229581 1.0104827 1.2875543 15
-3.9410136 1.3386871 1.3077133 15
-3.967134 1.7467655 1.1540399 14
-3.9771245 2.0732365 1.2055699 14
-3.7903144 3.4886172 1.1284242 12.5
-3.7786458 -1.2843802 1.3251436 15
-3.7891588 -1.1980346 1.3353413 15
-3.9398429 0.70389634 1.3363596 15
-3.938952 0.99969763 1.3525523 15
-3.9463701 1.3514779 1.3760618 15
-3.9629962 1.7437308 1.3979125 15
-3.7539928 3.496634 1.5647928 14.5
-3.4994459 -1.091295 0.39014432 9
-3.4298348 3.5056112 0.37036428 8.5
-3.2663813 -2.6554191 0.82956582 11.666667
-3.2359316 -2.3780146 0.87915295 12.5
-3.3402243 -1.4391873 0.79938489 12.4
-3.49575 -1.0614898 0.67553639 11.5
-3.4319789 3.5136633 0.69188291 10.5
-3.1893027 -3.7565994 1.198047 13
-3.1523082 -2.877423 1.0651571 13.5
-3.2409544 -2.6998451 1.0364629 13.2
-3.252274 -2.2511108 1.0636721 13.666667
-3.2691357 -1.7730242 1.0819962 14.333333
-3.3112702 -1.494578 0.98022783 13.8
-3.4889824 -1.0377971 0.97627395 13.5
-3.5437195 -0.71445644 1.1556654 15
-3.3973069 3.5201826 1.1070273 12.833333
-3.5121579 3.5160086 1.5310696 14.5
-3.0299783 -1.1439327 0.3621662 9.1999998
-3.0670681 3.5282063 0.37700251 8.3999996
-2.9737828 -2.9133773 0.83145022 12
-2.9567134 -1.4510263 0.66743982 12
-2.9658766 3.5436287 0.65776366 10.5
-2.9640429 -2.9771838 1.0493625 13.6
-3.0162141 3.5435457 1.0881063 13
-2.8871522 -3.3271148 1.3988814 15
-2.9056156 -3.0435841 1.3635261 15
-2.9438424 3.5478783 1.359163 14.5
-2.5765169 -2.9021647 0.32577598 9
-2.4721007 -2.521224 0.34169531 9
-2.490309 -2.2368858 0.31361783 9
-2.5073884 -1.845295 0.32865474 9.4444447
-2.5693867 -1.4345111 0.30520946 9.181818
-2.7125647 -1.1877645 0.29878831 9
-2.6882558 3.5490503 0.35961452 8.666667
-2.5737433 -2.8999002 0.6478771 11.4
-2.4709435 -2.4864254 0.5472104 11
-2.4873078 -2.1956546 0.55454266 11
-2.5615506 -1.7719718 0.62577462 11.833333
-2.5904453 -1.4886719 0.63422757 12.2
-2.7076793 -1.1853601 0.52162004 11
-2.6232409 3.5625825 0.68631208 11
-2.4870956 3.5755107 0.62433034 10.5
-2.4148474 -3.4763196 1.0396396 14
-2.5859544 -1.5688597 0.93969929 15
-2.6805358 3.5629354 1.0408678 13
-2.5079837 3.5777667 1.0533067 13
-2.518055 -3.4816182 1.349605 15
-2.6871858 3.5626261 1.3335077 15
-2.5107629 3.5796824 1.3179679 15
-2.149214 -2.8609288 0.30004069 9
-2.309829 3.5682299 0.376284 9
-2.1572595 3.5937111 0.43159175 9.666667
-2.1203721 -2.8971586 0.69062883 12
-2.355248 3.5686626 0.51505321 10
-2.1895056 3.5948787 0.67751032 11
-2.103883 -3.4482388 1.0813514 14.333333
-2.312443 -3.034282 0.87934399 13
-2.2078865 3.5986381 1.0854878 13.571428
-2.1417022 -3.4539721 1.2788342 15
-2.2829683 3.5995386 1.2984873 15
-1.7761343 -2.8544636 0.28104818 9
-1.6647451 0.69089723 0.37673205 12
-1.7723752 0.9710331 0.36705184 11.333333
-1.8312677 1.2702287 0.38430402 11
-1.8406112 3.6138823 0.43293864 9.5
-1.7695776 -2.8660033 0.60919511 12
-1.8105636 3.6200376 0.63831425 11
-1.8162047 -3.3744938 1.0781702 14.5
-1.8030974 3.6274526 1.107909 14
-1.3753322 -2.823833 0.27031136 9.2222223
-1.1875097 -2.8089437 0.30663899 9.666667
-1.4198453 3.6398048 0.42592698 10
-1.3932056 -2.8534935 0.59554499 12.166667
-1.2520361 -2.8068562 0.58342361 12
-1.4035302 3.645045 0.61759889 11
-1.2867986 -3.3092258 0.85936069 14
-1.3976485 -3.0526328 0.84372562 14
-1.4092778 3.6545544 1.0317674 14
-1.1271105 -2.815711 0.18017158 9
-0.95171058 -2.7933049 0.26303393 9.3999996
-1.0632701 3.6608272 0.44299343 10
-0.95765853 -2.8164017 0.76216429 14
-0.93391824 -2.7832515 0.57714802 12.285714
-1.000815 3.6684084 0.66003591 11.555555
-0.86482775 6.5578241 0.84005862 10
-1.004024 3.6778822 1.0071908 14
-0.89351249 6.5899763 0.91971064 11
-0.84852606 6.5968337 1.5523241 13.5
-0.50356537 -2.1228588 -0.19414528 4
-0.52220267 -1.8300984 -0.18907523 4
-0.47192693 -1.4658108 -0.18276213 3.5
-0.46488726 -1.0045489 -0.17779393 2.3333333
-0.40733257 -0.78234774 -0.17858364 1
-0.47862837 1.0083398 -0.20405631 1.5
-0.49639404 1.351892 -0.20599174 2.6666667
-0.48037067 1.808445 -0.21519242 3
-0.43340248 2.5128772 -0.22857596 4
-0.60228413 -2.7718735 0.24875481 9.4444447
-0.56264001 -2.7578504 0.58264577 12.714286
-0.71091425 3.7416124 0.57142931 11
-0.59920716 4.1636701 0.58468091 10.5
-0.64990205 4.4686651 0.75986391 12
-0.5449236 6.5306811 0.69552749 9.5
-0.69028556 3.7584896 1.0362179 14.2
-0.64434618 4.3060994 1.109692 14
-0.64668864 4.6131601 1.1096781 13
-0.62045097 6.5191555 1.0612381 11.5
-0.58436626 4.3677478 1.3167183 15
-0.65259296 6.5162787 1.4671642 13.142858
-0.60376918 6.5494509 1.8538274 14.5
-0.0031258846 -2.8435085 -0.18202598 5
-0.20563345 -2.1765451 -0.19346288 4.5
-0.23607747 -1.8048207 -0.19166292 4
-0.19369708 -1.4014448 -0.18480045 3.4000001
-0.19153458 -0.97306371 -0.1908519 1.4545455
-0.24649757 -0.70154989 -0.19217341 0.2
-0.18657255 0.73338085 -0.20741375 0
-0.2209349 1.001953 -0.20972985 1
-0.17346396 1.3832237 -0.20970911 2.5999999
-0.25893229 1.7775451 -0.21510352 3.25
-0.24091381 2.2579329 -0.22196026 4
-0.093258232 2.578985 -0.22508201 4
-0.16780037 2.9891014 -0.23078881 5
-0.17799094 -2.7174156 0.22829197 9.4444447
-0.15058938 -2.7095103 0.55086601 12.75
-0.42336333 4.2305884 0.49121815 10
-0.2412589 6.6514382 0.70425439 9.5
-0.20895281 6.6530223 1.0179738 11.333333
-0.2283321 6.6645145 1.4826591 13.2
-0.14902741 6.6795731 1.9100347 14.666667
0.39075866 -3.0275574 -0.20684035 5
0.15568613 -2.5758028 -0.19601652 5
0.23754331 -2.1907167 -0.19084747 5
0.2829639 -1.8285767 -0.18776813 4.1999998
0.26198658 -1.3609377 -0.18943059 3.5999999
0.19112678 -0.95066303 -0.1995381 1.5555556
0.23366517 -0.6433264 -0.19453724 0.2
0.24453965 0.69254506 -0.21185267 0
0.16574615 0.98817384 -0.21477666 1
0.21232478 1.3684578 -0.21289809 2.6666667
0.14661555 1.782052 -0.20772934 3.8
0.12744422 2.1266356 -0.21295249 4
0.2524907 2.5455942 -0.22617248 4.5
0.21876019 3.2343397 -0.2343808 5
0.19987823 3.611094 -0.23737004 5
0.17450526 4.142241 -0.24589226 5
0.34702012 -3.3580067 0.15123086 8.5
0.08316841 -2.7144344 0.21058184 9.3999996
0.35161594 -3.332953 0.59374279 12.4
0.2122732 -2.8193729 0.55757064 13
0.10747976 -2.7068679 0.5198493 12.5
0.35744134 -1.6946886 0.4902713 15
0.13240574 6.6776891 0.66882271 9.5
0.2920076 -3.3195727 0.97740048 15
0.16405289 6.6885424 1.0657493 11.5
0.19509591 6.695868 1.5437697 13.5
0.20198162 6.7058635 1.8916507 14.666667
0.77266282 -2.9965885 -0.15647493 6
0.74425048 -2.6689131 -0.21201478 5
0.66061282 -2.1026089 -0.18854006 5
0.60529238 -1.7097158 -0.18160485 4.3333335
0.646981 -1.3622357 -0.16239798 4.3333335
0.59680843 -0.98404032 -0.20478213 2.5
0.62353158 -0.59622532 -0.19532728 1.4444444
0.65234125 -0.32015994 -0.19552216 0.75
0.63409811 0.2960757 -0.20749426 0.2
0.62682569 0.61479956 -0.22008002 0.69230771
0.60946375 0.96535754 -0.22511031 1.8571428
0.59467566 1.382339 -0.22573338 3
0.60880458 1.7724117 -0.22296762 4
0.56927985 2.2201543 -0.22663766 4
0.60666358 2.6429169 -0.23513551 5
0.64064592 3.0377183 -0.23985156 5
0.68804818 3.5389194 -0.26058081 5
0.73239934 4.0391383 -0.27102518 5
0.62329555 -3.3413324 0.14001518 8.5
0.80981064 -3.0633409 0.099920355 8.5
0.54600447 -1.8884344 0.22106512 10.5
0.62289625 -1.3478796 0.22025704 11.875
0.57148969 -3.341187 0.55139291 12.142858
0.56363118 -1.8729159 0.40464061 13.5
0.56969547 6.712018 0.63712752 9.5
0.64849359 -3.3094778 0.95847458 15
0.56146884 6.7157435 1.0615523 11.5
0.57250607 6.723753 1.4537064 12.8
0.58672565 6.7323489 1.8221254 14.5
1.2126348 -3.094552 -0.15538262 6
1.0952332 -1.7715055 -0.10362463 6.25
1.0326551 -1.3704815 -0.1777072 4.5999999
0.94130498 -0.98580998 -0.20251633 3.6666667
0.96229255 -0.63363296 -0.20257024 2.8333333
0.82481033 0.37967467 -0.21584548 1
0.94821113 0.6099478 -0.22993891 2.090909
0.97009748 1.0022879 -0.2305208 2.8333333
0.995157 1.3977296 -0.22974573 3.75
0.90875059 1.8418784 -0.23220618 4
0.96192718 2.198463 -0.23894671 4.6666665
1.0365577 2.9832387 -0.25478533 5
1.1540064 3.5154366 -0.26439571 5
0.79963744 4.7814097 -0.2914522 5
0.98838729 6.7373066 -0.38534185 5
1.0291759 -3.3538086 0.28042328 9.666667
1.0577967 -3.0331206 0.084800795 8.1428576
0.84133971 -1.5969826 0.30668625 12
1.0631512 -1.4068967 0.20900923 11
0.8266722 6.6856942 0.16026737 8
1.0039351 -3.3560174 0.48026839 11.5
1.1477377 -1.87717 0.45119148 13
0.87470013 -1.590763 0.37892491 14
0.95665503 6.7386098 0.62296188 9.5
1.0991894 -3.2845173 0.95021152 15
0.93407023 6.7368884 1.0076863 11.333333
0.98824733 6.7512407 1.4073986 12.5
0.9937579 6.7625127 1.8058256 14.5
1.2240851 -2.0190516 -0.1890544 5.5
1.3815767 -1.7166506 -0.20019072 5
1.3769732 -1.406842 -0.20551424 5
1.3496805 -1.0471076 -0.20344891 4.3333335
1.2998587 0.78161085 -0.23262075 3.5
1.3732082 1.0026697 -0.23995046 3.8
1.3610256 1.4084486 -0.24130057 4
1.4221592 1.815407 -0.24361439 4.3333335
1.1995922 2.2588043 -0.24226548 5
1.3218385 2.5938861 -0.24966808 5
1.2619605 4.0039377 -0.27372885 5
1.4270588 4.7428813 -0.29405069 5
1.4677588 -3.257849 0.26317462 9.666667
1.3407077 -2.9785252 0.11974285 8.5
1.310819 -2.2043269 0.024038495 8
1.3741269 -1.8306682 0.10895766 9
1.3636717 -1.2692455 0.2073777 11
1.3921214 -1.1759742 0.28424227 12.2
1.4760051 -3.2708714 0.49590868 11.6
1.2702583 -1.772278 0.45543295 14
1.2571234 -1.3459107 0.35945475 13
1.4434003 -1.166405 0.40645379 14.2
1.3828607 6.7636986 0.61380893 9.5
1.5113579 -3.2586448 0.95879871 15
1.3912629 6.7704835 0.99339283 11.333333
1.3533317 6.7797375 1.4104879 12.5
1.4023786 6.79109 1.7891873 14.5
1.4689279 6.7728443 2.0874703 15
1.8004831 -1.8286864 -0.21249865 5
1.7491519 -1.3568351 -0.20993765 5
1.6256152 1.0571411 -0.24524747 4
1.8306432 1.4620039 -0.25886792 4.6666665
1.652872 1.8224846 -0.25555876 5
1.7389609 2.2425685 -0.25884411 5
1.700624 2.5454824 -0.25558108 5
1.8477993 2.8284349 -0.26212105 5
1.6121192 3.3908169 -0.26569134 5
1.7768483 3.8444824 -0.27303174 5
1.8492715 6.6711631 -0.31730592 6
1.7732246 -3.2725403 0.17183128 8.8571424
1.7938071 -1.7236359 0.10513271 8.666667
1.9130023 -1.3700911 0.1392794 9.5
1.9612687 -1.1598222 0.24262437 11
1.7327915 6.6873736 0.097412162 8
1.9583837 -3.2202528 0.32095054 10
1.9264814 -1.3561251 0.42749906 13
1.9787916 -1.1200864 0.40516815 13
1.740749 6.789371 0.57393259 9.5
1.8441658 -3.2161138 0.97207475 15
2.0009258 -3.1838562 0.97903919 15
1.7009749 6.7938385 1.0027319 11.333333
1.7791765 6.8054156 1.4470537 12.666667
1.9076235 6.8175054 1.2711937 12
1.6888052 6.7983546 1.6660992 14
1.9246528 6.8234015 1.8000244 14.5
1.7716657 6.7844253 2.0850391 15
2.3094246 -2.4811676 -0.22458895 6
2.0961437 -2.208252 -0.21816459 6
2.0900462 -1.6932248 -0.21818103 6
2.1892343 1.5334638 -0.26890308 5
1.9821808 1.7515417 -0.27051812 5
2.1827683 2.2535613 -0.27981788 5
2.2574267 3.6165779 -0.27925283 6
2.0434546 4.5709767 -0.29445541 6
2.1532314 -3.232698 0.12343242 8.5
2.2248826 -1.6225441 0.094913803 8.5
2.1885643 -1.2903407 0.10116243 9
2.1952839 -1.1217872 0.1949168 10.25
2.2772856 6.8241167 0.35369161 9
2.1071725 -3.203691 0.32680696 10
2.2827146 -3.1356919 0.40135449 10.5
2.1782415 -1.9897168 0.48039764 12
2.2011924 -1.6441909 0.41420206 12
2.1878123 -1.4702307 0.41415665 12.333333
2.1903038 -1.0862733 0.40665799 12.5
2.0850713 6.7477365 0.63284075 9.5
2.3295701 6.82199 0.54120904 9
2.2228887 -3.1581032 0.99655223 15
2.0587444 6.1104894 0.79297256 11
2.0617404 6.6863608 0.96250582 11
2.1822181 6.8291726 1.0117496 11.333333
2.3051374 6.0024657 1.430432 14
2.2387722 6.0405908 1.4168353 13.5
2.1462381 6.8301139 1.3191718 12.333333
2.1709766 6.8376222 1.6831421 13.8
2.2540376 6.7755013 2.0773668 15
2.6378157 -2.2445199 -0.19548991 6.3333335
2.5609689 1.8481162 -0.28267285 5
2.5306518 2.3499689 -0.29500452 5
2.4983301 3.0288424 -0.29628202 5
2.5772612 4.2305899 -0.29502445 6
2.6669505 -3.1850426 -0.055549812 7
2.6366794 -3.1507714 0.067282028 8
2.6410017 -1.8519303 0.10459753 8.6000004
2.7312133 -0.94256097 0.12561989 9.333333
2.6867547 6.6855435 0.099969678 8
2.6286077 -3.1285946 0.41279665 10.5
2.7701819 -2.0520372 0.38873899 11
2.5810153 -1.0886108 0.42532799 12.333333
2.5728769 6.7417359 0.56751376 9.3999996
2.4066315 6.8264623 0.69340491 10
2.7045655 -3.1373 0.95016485 14.4
2.716537 5.9711676 0.94439453 11
2.6444986 6.6847448 0.98934996 11
2.455271 5.9417639 1.4589772 14
2.3944476 6.0231743 1.2938126 13
2.5144861 6.7740293 1.2432916 12
2.4351873 6.8118334 1.9087849 15
2.6157551 6.7672544 2.0749495 15
2.9491639 -3.32809 -0.16992557 6.5
3.1102419 -2.6994245 -0.24469882 6
3.1260514 2.326117 -0.30483019 5
2.8089871 3.4724627 -0.31043091 6
2.7807899 6.6289344 -0.29358178 6
2.9554379 -3.1985173 0.22071975 9
2.8990922 -1.8073376 0.079716071 8.5
2.9749298 -1.0346209 0.02035553 8
2.9355853 -3.1407914 0.37790376 10.5
2.9285922 -2.0159187 0.38377795 11
2.9020288 -1.0349483 0.42570236 12
2.9210048 3.8696923 0.68653578 11.666667
2.8787189 4.1540556 0.66219103 11
2.8645539 4.6636143 0.49674797 10
3.1185215 5.6512089 0.34848669 9
2.9911544 -3.1117167 0.96924305 14.333333
3.0033686 3.3777432 0.86192316 13
2.8922274 3.7705541 0.85508537 12.5
2.9210041 4.1421251 0.88714308 12.333333
2.8606677 4.6356273 1.0636431 13
2.9133129 4.9879856 0.76472008 11
2.8450053 5.388248 1.0250829 12
2.7983479 5.8231039 0.961299 11.5
3.1162984 -3.1369035 1.1042908 15
2.9193375 4.6319056 1.2320834 14
2.8894868 5.0300708 1.2604269 13.75
2.8594072 5.6055446 1.2212942 13
2.9231088 5.9021177 1.4565195 13.5
2.9665492 4.617353 1.5341866 15
2.8432908 5.66434 1.6265618 15
3.1687369 3.0456338 -0.32515979 6
3.4278822 -3.0862846 0.98821658 14
3.3863442 -3.1017346 1.1412448 15
3.5728679 2.7030447 -0.32633942 6
3.8210084 -3.4390707 -0.1340473 7
3.9455361 -0.77219689 -0.10218345 7
3.9371305 -0.64892846 -0.092967607 7.5
3.7457161 -0.056140631 -0.0025079118 8
3.6025205 6.9467764 0.58357042 9.5
3.6719916 6.9053268 0.90018415 10.5
3.6559289 6.9430981 1.6769419 13.5
4.2308526 -3.1828563 -0.19139889 7
4.1124024 -2.0779042 -0.16300535 7
4.0692759 -1.6921539 -0.20282462 7
4.3721561 -1.3225126 -0.22332126 6.5
4.3567605 -0.9594025 -0.15802811 7
4.2922864 -0.59151167 -0.15296561 7
4.2433157 0.22931799 -0.14500241 7
4.3404417 0.7937569 -0.16217554 7
4.0704384 -1.9787625 0.048547994 8
4.1116271 -1.7718136 0.041750543 8.25
4.3750234 -1.288256 -0.066842832 8
4.3409648 -0.49835262 -0.022015564 7.75
4.3402553 -0.21097621 0.068933703 8.5
4.3469138 0.23755229 0.081628017 8.625
4.302567 0.65149152 0.030992709 8
4.2498746 1.0151906 0.062042311 8.2222223
4.1710153 2.9554651 0.096492596 8
4.3617926 4.5477772 0.22826195 9
4.1168146 6.9501696 0.16288151 8
4.0961199 -1.8650281 0.31271249 10
4.3092651 -1.3493794 0.54037911 11.5
4.4168081 -0.42642051 0.45820361 11
4.3990808 -0.13563336 0.45395142 11
4.3736191 0.25619787 0.44060248 11
4.308547 0.63512117 0.47258648 11
4.2467928 1.0180446 0.47277606 11
4.3256011 3.5260203 0.3401053 9.5
4.2084937 3.7999225 0.32646775 9
4.1716886 4.1386104 0.37262458 9.333333
3.9873013 5.1432424 0.45977208 10
4.1777077 6.9486828 0.3537119 9
4.3538852 -1.2906996 0.68083698 12
4.4313655 -0.47203085 0.81980371 13.333333
4.4091654 -0.1464985 0.84115684 13.5
4.3778687 0.27639705 0.79872882 13.2
4.3325 0.59374386 0.85136962 13.5
4.2549882 1.0301982 0.83560342 13.333333
4.2073507 6.9558196 0.99142742 11
4.4444399 -0.46598092 1.1796232 15
4.427619 -0.36009607 1.1864423 15
4.2795124 0.78871858 1.0731254 15
4.258956 1.0487483 1.1183399 15
4.2292051 6.9869747 1.2214866 12
4.2138042 6.9239135 2.1388423 15
4.4606423 -3.1712272 -0.21349423 7
4.5665131 -3.1395826 -0.17989273 7
4.557261 -2.7069435 -0.27045614 6
4.5079899 -1.6330901 -0.29222131 6
4.4604902 -1.3766756 -0.23081683 6.6666665
4.4442964 -1.0870337 -0.18110968 7
4.4267526 -0.51247686 -0.23843738 6
4.7782288 -4.4672127 0.12201139 8
4.4303403 -1.6358587 0.034828272 8
4.475122 -1.3087687 0.060646996 8.1999998
4.4456596 -0.93353599 0.070600808 8.3999996
4.421021 -0.54998845 0.092659771 8.3999996
4.4550915 3.3191931 0.178259 8.5
4.4955444 4.65446 0.10342219 8
4.3440218 6.9557605 0.13658741 8
4.5912857 -2.8428316 0.42679653 10
4.5425973 -2.0331814 0.63049704 12
4.5058722 -1.6535649 0.43539456 10.5
4.4782853 -1.3344644 0.47716022 11
4.4600945 -0.96438825 0.46734577 11
4.4376087 -0.5892455 0.42224711 11
4.4328842 -0.34972531 0.41509405 11
4.4381437 3.3443727 0.27780801 9
4.4114261 6.9438334 0.35462269 9
4.5232897 -1.7031119 0.75396293 12.333333
4.4831033 -1.2930337 0.75457817 12.666667
4.4618583 -0.90906692 0.73036355 12.666667
4.442472 -0.63911551 0.79112595 13
4.4075756 6.956037 0.99463403 11
4.5126905 -3.1702509 1.2314476 14.5
4.5910444 -2.9920342 1.2430593 14.333333
4.5723472 -2.5639846 1.2219541 14.5
4.5518785 -2.1631935 1.1901755 14.6
4.5175729 -1.7688135 1.2135587 14.8
4.5063934 -1.3538721 1.1711941 15
4.4744186 -0.95193219 1.148066 15
4.4526119 -0.62472546 1.1679771 15
4.5778418 -3.1032867 1.4952683 15
5.0299983 3.1604664 0.11832892 8.5
4.9522781 3.3969669 0.054908358 8
5.0637393 3.1525443 0.46862188 10
5.0787144 3.4133086 0.43412855 10
5.1850791 7.0481725 1.9555655 14
5.146523 6.815855 2.3825278 15
5.3516793 3.2063975 0.10140608 8.5
5.2704525 6.8934593 0.024205012 8
5.3100705 3.1155477 0.49329701 10.5
5.2075758 3.6299963 0.42126548 10
5.2594047 6.8029828 0.40248299 9
5.2011352 7.0019898 0.45906594 9
5.2548361 6.9219604 0.76650453 10
5.3094711 6.8064461 1.7434313 13
5.2266426 7.0005512 1.6869643 13
5.2937007 6.8436108 1.9120108 14
5.9274178 4.788063 0.052781541 8
5.8896346 5.0417991 -0.0056500183 7.6666665
5.8794179 6.3560915 0.62210929 10
5.7914801 6.6817331 0.46470779 9
5.8264732 6.6933951 0.79825658 10
5.8708863 6.6831875 1.1378098 11
5.767705 6.718214 1.6560409 13
5.8452525 5.4645505 2.0989733 15
6.0339437 6.6556802 1.8205256 13
6.2721739 5.4742737 2.1369011 15
7.1252518 3.9060616 -0.05324408 7.3333335
7.0319395 4.1146913 0.1509722 8
6.9735594 5.4779267 -0.044397395 7.5
7.0427785 7.1295233 0.10163981 8
7.0147643 3.8803804 0.43047032 9
6.8173609 7.1501131 0.88144332 10
6.9604607 7.1475139 1.1368649 11
6.9673791 7.1637268 1.485063 12
6.9843373 7.1470475 1.9750088 13
6.9524016 6.9754453 2.40836 14.5
7.2359266 4.0915928 -0.40150702 6
7.1756372 3.876343 0.12919283 8
7.3266573 7.1522956 0.069497973 8
7.3784981 7.1954327 0.85870641 10
7.2552624 7.1765952 1.1792595 11
7.319582 7.1889939 1.4922247 12
7.3686399 4.8426156 2.0953927 14
7.4482579 7.2125907 1.9233733 13
7.5323591 5.1986461 2.188915 14
7.3922954 5.8834748 2.3311815 15
7.3029885 7.0025983 2.2922795 14
7.6070161 7.1417117 -0.018141784 8
7.9408913 7.2067795 0.83367658 10
7.6514034 7.1870036 1.0741278 10.5
7.7027807 6.7036843 1.4608865 12
7.6848145 7.2074432 1.4980808 12
7.7945476 4.7509375 2.1180999 14
7.6358404 5.4926848 1.9873058 14
7.9642777 7.1623664 2.0051565 13
7.9114299 7.2666097 2.071501 13
7.6448898 6.9941406 2.3106875 14
8.155818 3.8196716 0.39114118 9
8.0369244 7.232368 1.1714072 11
8.2388945 5.093493 1.9506618 13
8.2421236 7.198945 1.9310894 12.5
8.3431044 7.3014469 2.0942674 13
8.053874 7.0296159 2.3433926 14
8.0993099 6.7418184 2.9026816 15
8.4681177 3.6214845 0.34606889 9
8.4229898 7.2846851 0.82078344 10
8.4309158 7.23734 1.1655031 11
8.6412754 5.0652761 1.9766039 13
8.5146379 7.229898 1.8454067 12
8.462924 7.0415282 2.3711195 14
8.6214752 6.2589936 2.8462224 15
8.9474506 3.097832 -0.43877608 6.6666665
8.9426527 3.3921888 -0.40601322 7
8.7467623 6.1124015 -0.4700895 6
8.9433079 7.2504959 -0.42268193 7
9.0761862 3.0046322 -0.11541062 8
8.8335314 3.0211439 0.29538438 9
8.9082203 7.3446374 0.80653608 10
8.9796124 7.2620621 1.1537181 11
8.9265785 7.2850528 1.5214748 11
9.1788244 4.8219552 1.9718784 13
9.1836824 5.3298826 1.7561607 12
8.9553289 7.266685 1.8691161 12
8.8088627 7.3420725 2.1206193 13
8.9331245 7.0864029 2.4119692 14
9.1874704 6.0706272 2.8706129 15
8.9019661 6.169188 2.8595581 15
9.2528715 3.3040433 -0.10003727 8
9.568346 3.7949717 0.35411498 9
9.5391645 3.8349655 0.69192255 10
9.3975878 7.3739953 0.7872951 10
9.3858929 7.309752 1.5299135 11
9.3962822 5.155437 1.8944907 12.666667
9.4875984 7.274241 1.9449888 12
9.3272629 5.2629108 2.3831608 14
9.3111963 7.3297296 2.1330061 13
9.4613276 5.815196 2.8462329 15
9.3607826 7.1124673 2.7927785 14
9.8289299 7.3375912 1.0799608 10
9.8992109 7.3581705 1.5445104 11
9.862957 7.3006992 1.9116676 12
9.8735495 7.1761045 2.253653 13
9.7427044 7.353148 2.1624117 13
9.8750505 5.4872003 2.8240509 15
9.7062254 7.0311136 2.8059437 14
10.078797 7.2331433 2.1539016 13
10.16512 5.2218771 2.8029118 15
10.68222 4.2153897 -0.47859502 7
10.64494 4.2639375 -0.080944352 8
10.636012 3.897505 0.27974808 8.5
10.424282 7.3831038 1.1533834 10
10.43856 7.3930779 1.5555044 11
10.504704 7.4214215 1.9581437 12
10.774205 3.207139 2.140631 13
10.778227 3.4702284 2.1886597 13
10.656881 3.6977499 2.2173843 13
10.606841 4.2208824 2.3110275 14
10.575386 4.6287909 2.3880467 14
10.570339 5.0807996 2.2491813 13.333333
10.494871 6.749702 2.2618713 13
10.614674 7.1992769 2.1906657 13
10.65908 3.3101811 2.4701605 14
10.626462 3.9411266 2.5928779 14
10.606719 4.330853 2.6707399 14
10.58603 4.7325344 2.753665 15
10.490061 5.1016164 2.8199658 15
10.526043 5.4794612 2.5540636 14
11.059138 3.4935205 -0.58023435 6
11.035455 3.4524734 0.16974431 8
11.042695 7.449789 0.72293437 9
10.84935 7.3965631 1.0012486 10
11.033937 7.4409337 1.5702264 11
11.081673 7.4669738 1.9903556 12
10.960889 4.8162994 2.1204739 13
10.834215 7.4395375 2.0932627 12
11.605302 4.5208716 0.25905687 8
11.659387 7.4848657 1.5854355 11
11.673718 7.4919624 2.0184548 12
11.776351 5.7660046 2.0986748 12
12.288009 3.5756264 -0.59717703 6.5
12.355831 7.5410252 1.6027561 11
12.045513 5.1792378 1.8956976 12
12.301871 7.5119691 2.0477092 12
12.594117 5.1259613 -0.66917825 6
12.729177 5.230454 -0.18775256 7
12.591556 7.4088798 2.1830983 12
13.141555 7.5706758 1.137683 10
13.099395 7.589335 1.6204916 11
13.398273 4.3338447 0.71224278 9
13.366406 4.6689034 0.75542057 9
13.31992 6.7354465 0.47804385 9
13.388267 4.4566603 1.1697115 10
13.376993 4.7690897 1.0731965 10
13.360436 5.0200906 0.7997309 9
13.313583 5.7218752 0.89149863 10
13.299581 6.0857577 0.93868834 10
13.262213 6.3606558 0.91903651 10
13.260571 6.638762 0.89149559 10
13.318809 7.0609846 1.0670555 10
13.17623 7.3478794 0.97135866 10
13.357584 4.7832928 1.2158235 10
13.347847 5.1229057 1.2638526 10
13.325123 5.4613991 1.3121886 10
13.31337 5.8107882 1.3625228 11
13.293578 6.1670446 1.4139977 11
13.286758 6.5332274 1.467279 11
13.325407 7.1265678 1.5555886 11
13.49028 4.3251085 1.8515495 12
13.600974 5.6493683 1.8093262 11
13.93968 5.4319005 1.7905035 11
14.198133 4.3417125 1.8393068 11
14.406158 4.8989191 1.7296664 11
14.0884 5.1410217 1.7538863 11
14.018136 6.2426205 1.8311235 11
14.297116 7.4815345 2.1303759 12
14.60649 4.4964538 1.1962268 10
14.604924 4.6131148 1.6949855 11
14.660007 6.0422935 2.659158 13
14.912107 4.5533905 -0.42874235 7
15.041393 4.5743823 0.15534198 8
15.141768 7.4994311 2.1700513 12
15.544765 4.4811349 0.069797836 8
15.488869 5.3741827 2.1422806 12
15.473969 5.791131 2.2082675 12
15.373957 6.1767435 2.2631693 12
15.513286 4.7726331 2.5186841 12
15.488547 5.1558752 2.5797684 12
15.429742 5.536181 2.638634 12
15.331895 5.9046955 2.693331 13
15.418221 6.2863941 2.4831533 12
15.386765 7.1003256 2.5894821 12
15.430685 6.1693392 2.7332437 13
15.378166 6.5455065 2.7691867 13
15.734204 5.0853276 -0.37415573 7
15.939665 4.6916714 0.63323039 9
15.917556 4.7402425 0.73488665 9
15.837492 4.6208954 1.7522819 11
