# .PCD v0.7 - Point Cloud Data file format
VERSION 0.7
FIELDS x y z intensity
SIZE 4 4 4 4
TYPE F F F F
COUNT 1 1 1 1
WIDTH 122
HEIGHT 1
VIEWPOINT 0 0 0 1 0 0 0
POINTS 122
DATA ascii
-0.42238247 -0.86796689 -0.15213101 2.5
-0.43979695 -0.60891795 -0.16391689 0.5
-0.10548717 -2.0541732 -0.10499074 5
-0.12446987 -1.7842425 -0.11197089 5
-0.20257272 -1.3987068 -0.1262946 4.25
-0.19116235 -1.0046686 -0.14661278 2.75
-0.20642351 -0.65395099 -0.16170166 0.5714286
0.091327861 -2.8915567 -0.082104221 6
0.11752541 -2.6292062 -0.090127438 6
0.15787421 -2.2208378 -0.10110594 5.3333335
0.2013869 -1.7939141 -0.11732318 5
0.13723095 -1.4420402 -0.12288931 4.3333335
0.20425603 -1.0113368 -0.14473219 2.75
0.22669324 -0.63779497 -0.15759698 0.42857143
0.2983081 0.66862166 -0.20085044 0
0.33695415 0.96560091 -0.22064409 1
0.22104414 1.371954 -0.23072276 2.6666667
0.17878214 1.7269485 -0.24120459 3
0.131909 2.1389215 -0.26120788 4
0.086491428 2.5371706 -0.28017837 4
0.042261507 2.9210584 -0.29685625 4
0.50366312 -3.7079012 -0.054253988 6
0.47914505 -2.8977416 -0.08906801 6
0.46569049 -2.5148151 -0.098865025 5.5
0.65412819 -2.2162552 -0.09375976 5.3333335
0.55755466 -1.793988 -0.10805011 5
0.55896676 -1.4150513 -0.12095891 4.3333335
0.58040792 -0.9922508 -0.14223827 3
0.52033454 -0.63407296 -0.15710331 1.2
0.4734382 -0.35386553 -0.16514027 0
0.71031892 0.22661658 -0.18602684 0.2857143
0.61555457 0.61594051 -0.19914098 0.63636363
0.60970938 0.95920503 -0.22110723 1.5
0.58815598 1.3746458 -0.23308593 2.6666667
0.53345144 1.7854242 -0.2434608 3.5
0.51537359 2.1795862 -0.26107824 4
0.66619366 2.6701064 -0.28255874 4
0.42964321 2.9384072 -0.2744498 5
0.43868792 3.3530264 -0.29618499 5
0.93711579 -3.3090649 -0.064230539 6
0.96389568 -2.5339005 -0.042753637 6.5
1.0474324 -2.1903307 -0.08621832 5.6666665
0.92811978 -1.801807 -0.099143334 5
0.81821024 -1.4410223 -0.11437837 4.5
1.0130436 0.22069596 -0.19550774 1.2857143
0.97309142 0.58069289 -0.20496628 1.6666666
0.98183894 0.98720688 -0.21705952 2.5714285
0.9970625 1.4030471 -0.23478049 3
1.0268977 1.7601588 -0.25020936 3.75
0.97223485 2.0173137 -0.26385444 4
1.116304 2.5075321 -0.2877543 4
0.84911841 3.0532176 -0.30341253 5
0.90424234 3.414078 -0.31806555 5
0.97563726 3.8799822 -0.33778071 5
1.1265389 4.907866 -0.3579123 5
1.4169182 -3.4461811 0.01480225 7
1.218925 -2.8112161 0.0046856296 7
1.4293171 0.24106911 -0.20390779 2.5
1.3459227 0.583094 -0.20969629 2.6666667
1.4459707 0.98486346 -0.21302518 3.4000001
1.3959956 1.4036006 -0.23176955 3.75
1.5294971 1.8943151 -0.25439754 4
1.3757628 2.2468128 -0.2760236 4
1.5290376 2.5928848 -0.29269052 4
1.2356613 2.9141595 -0.3070634 4
1.3314695 3.2429616 -0.32019803 5
1.5861529 4.2179861 -0.25575125 5.3333335
1.2433279 -2.9922318 0.12490198 8
1.5276561 4.3104033 0.040621445 7
1.755698 0.34518099 -0.19973907 3.5
1.6812282 0.61200064 -0.2039862 3.6666667
1.8490865 1.0122609 -0.21438542 4
1.725284 1.3052692 -0.2317539 4
1.7960309 1.77403 -0.24854194 4
1.709262 2.1889811 -0.27192107 4
1.901159 2.5006678 -0.29653853 4
1.7008281 2.9753711 -0.31945631 4
1.9586062 3.6923108 -0.14499962 6
1.9284198 3.7401066 0.032259755 7
2.1962543 0.63160694 -0.2020442 4
2.3561857 0.98032212 -0.22493498 4
2.1981738 1.3641177 -0.24561164 4
2.1929955 1.759303 -0.25675318 4
2.0836258 2.1343212 -0.26643604 4
2.1879773 2.5950396 -0.29587904 5
2.2891369 3.2171514 -0.1679209 5.5
2.2474275 3.2822392 0.11194168 7.5
2.4926031 0.33444008 -0.198961 4
2.4771385 0.59326804 -0.20298798 4
2.7860699 1.01106 -0.24648443 4
2.7814217 1.374541 -0.26002789 4
2.599061 1.665198 -0.26444232 4
2.6300311 2.1838434 -0.27905104 5
2.7633915 3.1501994 0.13933615 8
2.8514841 3.1335905 -0.21240336 5.5
2.8862493 3.2142355 -0.11340901 6
3.1353943 2.7820699 0.073792249 7.5
2.8058317 3.1741381 0.056990843 7
3.5823872 0.90466958 -0.25918615 5
3.3989189 1.2693777 -0.26663387 5
3.4505553 1.7580812 -0.28769735 5
3.2125866 2.1259854 -0.29315999 5
3.438271 2.998924 -0.21459481 5.5
4.3398433 2.9715559 -0.35067821 5
4.7222691 2.4857929 -0.34756082 5
4.903872 4.3779049 -0.44693387 5
4.8566442 4.5264421 0.24151269 8
5.3390779 3.7724617 -0.1663256 6
5.3116264 3.8344634 0.21363671 7.5
5.7398438 3.095633 -0.22866455 5.5
5.7219486 3.1604548 0.22694772 7.5
6.1325822 2.4229629 -0.34483123 5
6.3182054 0.95376873 -0.049083229 6
6.1705117 1.6555135 -0.11101762 6
6.1197295 2.4490368 -0.080590233 6
6.3106074 0.9600637 0.1425744 7
6.116137 2.4867854 0.24900235 7.5
6.5090966 1.7354866 -0.32722467 5
6.4297819 0.96126473 -0.31304526 5
6.5124874 1.7573776 -0.057036836 6
6.4069104 0.9856593 0.40249115 8
6.5104318 1.7828948 0.28098097 7.5
