# .PCD v0.7 - Point Cloud Data file format
VERSION 0.7
FIELDS x y z intensity
SIZE 4 4 4 4
TYPE F F F F
COUNT 1 1 1 1
WIDTH 108
HEIGHT 1
VIEWPOINT 0 0 0 1 0 0 0
POINTS 108
DATA ascii
-0.21387406 -0.93401253 -0.11911324 143.5
-0.092501774 -0.99001271 -0.097672895 149
-0.066884622 -0.9492929 -0.11123545 159.33333
0.071615018 -0.95278382 -0.09760759 159.25
0.20490906 -0.93499023 -0.087406337 203
0.32151169 -0.92607909 -0.070880122 202
-0.49045503 -0.82226145 -0.16083609 123
-0.35004774 -0.8853898 -0.14247307 138.5
-0.19208728 -0.90603173 -0.12675235 156
-0.16230269 -0.8612479 -0.12837707 163
-0.029696394 -0.87311125 -0.11327583 166.66667
0.10076693 -0.86276913 -0.098379426 172
0.11520719 -0.82896399 -0.10655577 175.33333
0.21949802 -0.8677417 -0.093698256 201.5
0.32814935 -0.87110299 -0.081127577 201.5
0.43552271 -0.87163305 -0.062788621 200.5
0.54049778 -0.82444096 -0.062160693 199
-0.23905563 -0.75897425 -0.14852779 167.5
-0.1027423 -0.77151179 -0.13138005 173.66667
-0.031451188 -0.76203936 -0.12645422 174
0.020947468 -0.77506936 -0.1219537 174.33333
0.14582142 -0.74160415 -0.11255909 186.2
0.24215896 -0.75268453 -0.099095464 197.39999
0.33624452 -0.75496858 -0.088457949 197.2
0.42904496 -0.75461459 -0.072866924 197.8
0.51904184 -0.73135686 -0.060615443 198
0.62105578 -0.75023979 -0.046624225 199.66667
-0.19208781 -0.70511562 -0.15046805 175
-0.12887868 -0.63200039 -0.15200415 181
-0.027992334 -0.66168213 -0.13891752 184.60001
0.066602521 -0.6816802 -0.12461011 185.66667
0.17441317 -0.64868534 -0.10998964 195.33333
0.26024696 -0.6507014 -0.099223979 194.75
0.34065375 -0.62801522 -0.085756525 193.60001
0.44357425 -0.62990844 -0.068138056 194.16667
0.58276951 -0.68201101 -0.060642947 196.39999
0.68511838 -0.65581822 -0.04810385 197
0.77211457 -0.62764078 -0.03343875 197.5
-0.11195713 -0.61107886 -0.15013248 186
-0.034988392 -0.55460721 -0.14628561 189.75
0.057874497 -0.56196743 -0.13127165 188.75
0.16050327 -0.57309747 -0.11941018 190.39999
0.2629106 -0.5524205 -0.10276645 190.22223
0.34631944 -0.54459691 -0.090728708 189.66667
0.45296466 -0.56228119 -0.076154284 191.46153
0.56052107 -0.56501752 -0.064720139 192.71428
0.64246583 -0.5427475 -0.0563959 194
0.7464025 -0.58363587 -0.046497539 196.5
0.82468528 -0.54666305 -0.040095147 197
-0.097340651 -0.46706337 -0.16017911 189.66667
-0.033200514 -0.46690995 -0.15549536 187.44444
0.070056967 -0.45623174 -0.1421444 185.21428
0.16016403 -0.48820907 -0.1279908 188.57143
0.26913756 -0.48793608 -0.1235004 186.38889
0.35942581 -0.4846696 -0.11632291 185.27272
0.44465536 -0.47424051 -0.10141376 185.44
0.55309439 -0.45060501 -0.081859969 187.2381
0.66202927 -0.4681862 -0.058875289 191.88889
0.7438342 -0.45133838 -0.050277036 193.57143
0.85359395 -0.45544311 -0.04617792 197
-0.013286932 -0.3906585 -0.15911479 184.83333
0.10919036 -0.35348004 -0.15269867 180
0.15953782 -0.36590934 -0.14807211 180.625
0.25210065 -0.37957108 -0.1383805 179.125
0.3523252 -0.38259119 -0.1237734 178.625
0.46039018 -0.3577531 -0.11330838 179.06061
0.5541206 -0.36092252 -0.09884689 181.11765
0.65557879 -0.36337641 -0.078853086 185.69231
0.75576103 -0.36569291 -0.056098804 191.55556
0.082927905 -0.30640259 -0.1647125 178.39999
0.26828817 -0.23910625 -0.15671356 171.17392
0.36439428 -0.24516205 -0.14472751 171.62
0.46131593 -0.25106788 -0.13637792 173.48148
0.5657388 -0.26784316 -0.11292591 177.92857
0.64891851 -0.27086195 -0.092921399 181.61111
0.18781716 -0.20312174 -0.14766133 159
0.26863599 -0.15411708 -0.1276599 142.15715
0.37180102 -0.18831693 -0.15275277 168.75
0.4634501 -0.16201381 -0.1432694 169.06061
0.54310322 -0.17578064 -0.13601565 171.92592
0.2775673 -0.11043362 -0.12552275 120
0.47720352 -0.10440737 -0.14919233 168.6842
0.2355645 0.12156654 -0.19146661 168
0.59964055 0.17641804 -0.17061995 175
0.23856989 0.27836916 -0.19016021 176
0.4877103 0.27299806 -0.18871741 174
0.56896919 0.24001697 -0.17720746 175.19048
0.6572746 0.24467854 -0.16617632 179
-0.022767738 0.34282312 -0.22949652 161.60001
0.038314436 0.37978441 -0.23267139 164
0.41192603 0.32230029 -0.19941743 175.5
0.47718751 0.31013289 -0.19194786 175.76923
0.56376141 0.3323397 -0.18508722 179.85715
0.65083021 0.32992968 -0.16833243 184
0.75608796 0.34603804 -0.16090162 189.33333
-0.076780826 0.38972515 -0.24078622 152.5
0.10029426 0.40888649 -0.23068313 172
0.28839269 0.46769986 -0.221635 187
0.38310143 0.46471328 -0.21075317 187.5
0.45904231 0.45749298 -0.20541553 186.71428
0.5530386 0.40947458 -0.18726091 185.27272
0.67216986 0.43262744 -0.18536943 189.57143
0.73263609 0.40490013 -0.17302431 191
0.87788975 0.44947165 -0.17424242 195
0.35139483 0.48936126 -0.21945889 186
0.45024222 0.488747 -0.21057498 187.5
0.56318587 0.52538353 -0.20602675 191.33333
0.63135558 0.49878991 -0.19847117 191.5
