# .PCD v0.7 - Point Cloud Data file format
VERSION 0.7
FIELDS x y z intensity
SIZE 4 4 4 4
TYPE F F F F
COUNT 1 1 1 1
WIDTH 126
HEIGHT 1
VIEWPOINT 0 0 0 1 0 0 0
POINTS 126
DATA ascii
-6.2172518 3.1374066 0.75750786 12
-6.0707655 2.8293347 1.1021329 13
-5.7180662 2.9490597 1.4631689 15
-5.5139432 3.5906546 0.86631387 12
-5.5455785 3.551244 0.94336569 13
-5.4895763 3.6070199 1.1756365 14
-5.5151353 2.0370214 1.4609867 15
-5.45081 -0.70071113 1.4878143 15
-5.1173501 -2.6966307 -0.10183546 7
-5.125598 -1.9594682 -0.11206065 7
-5.0571022 -2.1800859 1.4505427 15
-5.1112304 -1.8541917 1.3002449 14
-5.244431 -1.2160273 1.3179157 15
-4.8401175 2.849498 0.056865651 9
-5.0089841 -2.7422433 1.4320519 14
-4.9003692 -3.1074133 1.5991284 15
-4.7174702 2.8619833 -0.10555644 8
-4.6681433 -4.1926041 1.4183878 13
-4.4692988 2.9145794 0.29969096 10
-4.2517829 3.0425887 0.40178171 11
-4.3293333 3.7658827 0.83576465 13
-4.0322409 2.9943469 -0.16172071 8
-4.1014009 2.9804578 0.13292156 9
-4.1896114 3.7829449 0.72950739 12
-3.7540665 3.2265675 0.0070528798 9
-3.828923 4.3023357 0.84893703 13
-3.4899454 -3.6017177 0.19741088 8
-3.5127034 4.0964203 0.32926801 10
-3.3063331 -1.4864243 0.24946539 9
-3.3716426 -0.8088448 0.15418813 9
-3.2949839 -0.76557022 0.28076115 10
-3.3540502 4.2379651 -0.039360974 8
-3.2466795 -3.9516258 0.66746968 11
-3.4021308 -3.9599674 1.3761809 14
-3.1017187 -3.800298 0.63844913 10
-3.1839805 -1.4323788 0.35639006 10
-2.958977 -2.2031622 0.23282489 9
-2.9173598 -2.511158 0.57184768 11
-2.9157405 -2.3857324 0.60909975 12
-2.957736 4.1876907 0.3667101 11
-2.9400504 4.1940517 0.55052453 12
-3.0100036 4.2000723 0.80960017 13
-2.9142547 4.2338905 0.99228168 14
-2.6735234 4.5717978 0.61818105 12
-2.7623105 -3.8497806 1.2443978 14
-2.6936915 4.6072931 1.2617861 15
-2.4472287 -3.7517209 1.3614818 15
-2.2835815 4.6566505 0.91545272 14
-2.0244162 4.6705704 0.12944211 9
-2.1200802 -3.7628307 0.49046645 10
-2.2103941 -3.7328575 1.1372416 14
-1.8780061 -3.1175218 0.36098605 9
-1.8613092 -3.7034857 0.58744419 11
-1.8055141 -3.1597843 0.20347822 8
-1.6481702 -3.6310196 0.38176119 9
-1.7764758 -3.6369405 1.1739125 15
-1.024416 -3.4533143 0.48272705 10
-0.84567809 -3.4183679 0.40534779 9
-0.85479486 -3.4142876 0.55392855 11
-1.0211602 -3.4228296 0.94002241 14
-1.0273056 -3.3926644 1.176129 15
-0.71859241 -3.4809029 0.20291111 8
-0.75838196 4.9250512 0.20242539 9
-0.67863321 -3.3561852 0.89992869 13
-0.48804179 -3.5212786 0.54084641 10
-0.55140692 -3.3255427 1.0111603 14.5
0.098467089 5.1203146 0.85687792 13
0.33258203 5.148201 0.5951255 11
0.59899116 5.1745172 0.44176397 10
0.62512243 5.1219759 0.67232305 12
0.96669936 3.3811445 0.3532359 10.5
0.94877869 3.4865088 0.46449304 12
0.79878461 4.2534351 0.41465464 11
0.8675738 3.8537719 0.80947053 14
0.86902446 3.8709347 0.97050887 15
1.15413 0.11650126 -0.15791693 2
1.0874381 2.797482 0.31844297 11
1.1821204 2.3392835 0.36914235 12
1.1024139 2.742862 0.43702784 12
1.0848793 2.8273494 0.50847298 13
1.1364838 2.5233319 0.58616173 14
1.0478895 2.9737325 0.70770097 14
1.0000781 3.2079432 0.81223941 15
1.3006454 1.7966579 0.31047279 11
1.2727135 1.8205482 0.33653176 12
1.2794908 1.8033087 0.48896164 13.5
1.2191665 2.1354544 0.54774898 14
1.1942353 2.2849817 0.48363924 13
1.2922957 1.8069108 0.58204252 15
1.185154 2.2790945 0.63141906 15
1.533691 1.9735661 -0.0086033782 7
1.5266756 2.0123832 0.085026555 8
1.5076458 2.0854082 0.27890813 10
1.4549754 -3.8566973 0.6689052 10
1.5795364 -3.2520351 0.6405316 11
1.7157182 1.8097196 0.19145384 9
1.6320013 -3.2749541 0.62844282 10
1.7367357 1.8913244 0.48765263 12.5
1.7303091 1.8950162 0.61621797 14
1.8241608 1.5276282 0.31081364 11
1.8657477 1.8386838 0.37441447 11
1.9490008 -2.9117436 0.65450215 11
1.9712741 -1.6321701 0.84958571 15
2.3871238 -1.5964985 0.33671761 9
2.2416623 1.9904652 0.78701055 14
2.2040346 1.9885815 0.83375043 15
3.4692662 -1.4011157 0.55020809 10
3.4866745 -1.3723307 0.39251083 9
4.1146646 1.966023 0.23802793 8
4.0933909 1.9867988 0.39054617 9
4.0859261 2.0537333 0.6059767 10.5
4.104423 2.5350442 0.52237606 9.5
4.0621376 2.2046349 0.79949677 12
4.075758 2.1810253 1.0440004 13
3.9626684 -1.2539111 1.3870702 15
4.0936956 2.7069409 1.0919572 13
4.3244667 1.5726627 0.11118713 7
4.2490458 1.8882509 1.074573 13
4.3105421 2.5603969 1.3543398 14
4.2637415 1.9291677 1.4899366 15
4.4227347 0.98160303 0.9915154 13
4.4081812 1.1455015 1.4107521 15
4.7613425 -0.69771409 0.43736336 8.5
4.7266655 -0.39485818 1.467376 15
4.5846801 0.27225578 1.3615971 14
4.6910009 -0.029943222 1.5938914 15
