# .PCD v0.7 - Point Cloud Data file format
VERSION 0.7
FIELDS x y z intensity
SIZE 4 4 4 4
TYPE F F F F
COUNT 1 1 1 1
WIDTH 120
HEIGHT 1
VIEWPOINT 0 0 0 1 0 0 0
POINTS 120
DATA ascii
-6.6490612 3.7860785 0.81170338 15
-6.3026004 4.0102487 0.2477981 14
-5.9488306 2.5255897 0.21421629 13
-6.0675206 -0.35840052 1.5781585 15
-5.8003044 3.7935517 -0.27907684 12
-5.8234773 4.1071701 0.52602547 15
-5.4982677 4.5384526 0.44087479 15
-5.295733 4.2159142 -0.34530571 12
-5.266881 4.2632504 -0.22738276 13
-4.8082719 4.7763243 -0.10710727 14
-4.4505782 1.9907392 -0.33726117 10
-4.4401989 4.9082637 -0.44498128 13
-4.3846297 4.930635 -0.4992817 12
-3.7063127 2.5370982 -0.59364116 9
-3.8127973 5.5338621 -0.37475947 13
-3.5511518 5.7059331 -0.38840535 14
-3.1160359 2.9901917 -0.7783578 9
-2.9762893 5.0956602 -0.96359432 11
-2.7038734 5.1560388 -1.3805934 9
-2.6919181 5.2393403 -1.1897668 10
-2.680001 5.5669799 -0.20522627 15
-2.4951594 5.641284 -0.3512311 14
-2.2696209 5.6738734 -1.2950321 10
-2.3361773 5.636301 -1.0765268 11
-2.1029377 -4.8652468 2.2030668 11
-1.8813573 -1.0262812 0.83360046 14
-1.7252028 6.6033216 -0.5655483 13
-1.3124735 6.7189932 -0.54777867 14
-1.0869362 -2.0425143 0.78409219 9
-1.0357778 7.4360166 -1.4809403 10
-0.98408282 7.506155 -1.3223083 11
-0.88171226 7.2771711 -0.74284911 13
-0.75313932 -2.7314937 1.3529872 12
-0.25742063 7.188879 -1.1855842 11
-0.27436742 7.3749881 -0.62835443 13
-0.03639539 0.64638358 -0.4266746 0
-0.14538917 -1.1030465 0.17063135 3
-0.15176718 5.7125864 -1.2852713 9
0.17425783 0.72281694 -0.43735126 0
0.16816209 -1.130757 0.21964857 3.5
0.080970615 -3.8998866 1.2910395 7
0.40249929 0.60854453 -0.38635039 0
0.34550762 0.72298145 -0.42408738 1
0.36543044 6.3447528 -0.95096445 11
0.52849519 0.86977476 -0.4647747 2
0.4777756 -1.2558322 0.2845951 4
0.3528038 -3.5985334 1.9871341 13
0.73972744 0.49745885 -0.33040982 1
0.70026034 0.62254721 -0.37355435 1
0.6259315 -1.1288497 0.25293162 4
0.66007268 -3.5253501 1.4096255 9
0.62745231 6.6805348 -0.79545182 12
0.81796932 -0.84919983 0.17606623 4
0.82075387 -3.4965315 1.1720711 7
0.96205491 -3.3374383 1.306475 9
0.78445613 -3.5905693 1.5574297 10
0.78020674 -3.4141603 1.9806385 13
1.1343589 0.35739902 -0.25511387 3
1.1082463 -2.9807003 2.0001266 14
1.268245 -3.1933053 1.1047515 7
1.3688169 0.37555704 0.34363899 14
1.369035 0.394934 0.37670702 15
1.2136396 -3.000819 1.7342457 13
1.4610635 -3.0202687 1.1668674 8
1.4638427 0.38059357 0.14180318 10
1.5006886 -2.93806 1.3246762 10
1.4101567 -0.38267076 0.56021911 14
1.454491 -0.097127199 0.42783919 13
1.4915751 0.19275853 0.37066633 13.5
1.4295763 0.42427924 0.22053462 12.5
1.4391623 0.48870623 0.13773654 11
1.3845375 -3.0646312 1.5073254 11
1.4262174 -0.050222412 0.52664489 15
1.525587 0.17397678 0.48588327 15
1.5000713 5.1806664 -1.0437576 9.5
1.3900391 -2.7976677 1.9416703 14
1.5177199 5.2652407 -0.71487874 11
1.7526401 -2.8510814 1.0340836 7
1.7291673 -0.15994754 0.43108451 12
1.6671 0.15917312 0.30894426 11.5
1.6214837 0.037077993 0.53253603 14
1.8434224 -2.8475883 1.0808209 8
1.8206793 -2.7147079 1.2973191 10
1.9013141 -2.4862401 1.8587508 14
1.8462601 5.2090106 -0.5665223 12
1.8179923 5.4695358 -0.38017783 13
1.9157475 5.4237309 -0.040780209 15
1.9723042 -2.6402864 1.1954349 9
2.0713682 5.0159035 -0.75541562 11
2.2871459 5.1329775 -0.48006225 12
2.3028452 4.8858738 -0.12976646 14
2.6534724 -2.2354553 0.92145759 8
2.6672149 -2.0061555 1.0933437 10
2.7145243 -2.0076866 0.98705858 9
2.6882613 -2.0213854 1.3997276 12
2.7322998 -1.8912556 1.2575634 11
2.6714809 -1.8584139 1.4500121 13
2.6570551 -1.7729628 1.7287214 15
2.769001 4.285964 -0.14716893 13
2.8771422 -1.9989691 0.93666536 8
2.8997681 -1.8621743 0.7809695 7
2.9273751 4.2687421 -1.188419 7
2.8914912 -1.7013493 1.2679816 12
2.9298861 -1.62861 1.5334095 14
2.9038298 -1.5137811 1.7184724 15
3.1055114 -1.8164147 1.0884393 10
3.0935285 3.7102485 -0.76799035 8
3.1342356 3.7849333 -0.30624682 11
3.2454038 -1.7993064 0.84793484 8
3.3273604 -1.6978472 0.95644403 9
3.1756797 -1.7177476 1.1927953 11
3.2609596 3.8634939 0.31904221 14
3.5177631 -1.4115611 1.3538117 12
3.4903138 -1.3827795 1.4590884 13
3.5099185 -1.2356616 1.7687849 15
3.681803 -1.4970537 0.80263859 8
3.5801537 -1.4806362 1.0541217 10
3.7633572 -1.3970816 0.91955137 9
3.9985952 2.6714809 -0.71046215 7
3.8704019 -1.1980333 0.65623873 7.5
