# .PCD v0.7 - Point Cloud Data file format
VERSION 0.7
FIELDS x y z intensity
SIZE 4 4 4 4
TYPE F F F F
COUNT 1 1 1 1
WIDTH 151
HEIGHT 1
VIEWPOINT 0 0 0 1 0 0 0
POINTS 151
DATA ascii
-5.2977471 -1.8065535 0.75866699 7
-4.4771338 2.6756113 -0.077674761 9
-4.3586578 2.8469388 0.49357334 12
-4.3636947 3.4782562 0.17509083 11
-4.3494325 2.8484812 0.57069337 13
-4.36131 2.8984876 0.76363182 14
-4.3442855 2.9428384 -0.387981 8
-4.3665018 3.449301 -0.31111765 9
-4.308918 3.9324501 -0.5014317 8.5
-4.359416 2.7194173 0.031990383 10
-4.3590364 3.6695387 -0.098301575 10
-4.2153397 5.0926285 -0.56185001 9
-4.3327351 2.8676226 0.19200376 11
-4.2800779 4.3575211 -0.19375925 10
-4.255794 4.7303424 -0.16878694 11
-4.1565518 5.6449199 -0.36949173 11
-4.2940674 3.2675467 0.52989686 13
-4.219985 4.4958744 0.12245136 12
-4.3066497 3.5013869 0.62872142 14
-4.2634602 4.3427176 0.53835261 14
-4.202878 4.6979733 0.27757862 13
-4.2637062 3.0303104 0.99774951 15
-4.1384802 5.695745 0.39189067 14
-4.1764588 5.3149371 -0.82123286 8
-4.0955 5.7389755 0.15904333 13
-4.0928435 5.3469758 0.72566849 15
-3.9052613 6.8260965 0.66846889 15
-3.6926007 -2.3684683 0.97958469 8
-3.690382 5.9424949 -1.1324418 8
-3.6783819 -1.9062886 1.7733196 14
-3.543191 -1.3598112 1.7882806 15
-3.6457565 -2.6251187 2.2701793 15
-3.411056 -3.0786037 1.0608605 7
-3.550288 -2.9570701 1.1600828 8
-3.4875152 -2.7947292 1.7589601 12
-3.354166 -3.0281763 1.3762562 9
-3.2549336 -3.0054007 1.5009888 10
-3.2822411 -2.9637101 1.6332582 11
-2.8791749 -2.2504106 1.6899765 13
-2.7661355 6.8833661 -0.42469051 12
-2.8462284 -2.8120048 2.2651877 15
-2.8070912 7.1076798 0.36962691 15
-2.6599593 -3.0575042 1.4039495 10
-2.4507043 -3.1932654 0.95696998 7
-2.5268323 -2.9249024 1.8856951 13
-2.4652338 7.0242786 0.17487589 14
-2.2168009 -3.1483083 1.3056304 9
-2.2763629 -2.9234111 2.0523827 15
-1.9692326 7.0821204 0.45949465 15
-1.8186564 -3.2615311 0.95613009 7
-1.9305601 4.5071292 -0.56395739 10
-1.7862846 6.562964 -0.98555052 10
-1.8368264 -3.0301421 1.7441441 13
-1.7887642 6.7148881 -0.49733096 11.5
-1.7339828 6.7561078 -0.31046623 13
-1.7284336 6.9162855 0.13925737 14
-1.2380435 -3.2896841 1.0679022 8
-1.293034 -3.1811702 1.4482952 11
-1.1960065 -3.3385527 0.9135527 7
-1.1106949 -3.2436216 1.2343447 9.5
-1.0812848 4.4235435 -0.71038103 9
-1.0785909 6.5497851 -1.0083673 10
-1.0046495 6.6550293 -0.59534281 12
-1.0753038 6.8213205 -0.11184583 14
-1.0575395 6.8682618 0.11119223 15
-0.5006175 0.81820834 -0.43366838 0
-0.3822861 -3.1815863 1.3071433 11
-0.29621753 -0.98593736 0.53686434 13
-0.066964999 0.68072587 -0.40622482 0
-0.17480223 0.8623727 -0.45061684 0
-0.16757134 -3.2693949 1.031684 8.5
-0.13392273 -3.2250953 1.2435775 10
0.093167901 0.72021353 -0.42889869 0
0.089510776 0.93107402 -0.48698381 1
0.35922876 0.63466251 -0.40093443 0
0.25312439 0.74530178 -0.44052598 0
0.29592282 5.7919464 -0.85559028 10
0.28431222 5.8641477 -0.62630188 11
0.39943191 5.9073415 -0.44462016 12.5
0.45534194 6.0560808 0.095858335 15
0.44747299 0.61676794 -0.3961398 0
0.47650492 0.85464418 -0.4711996 1
0.58789724 -0.78189689 0.23081733 9
0.59600711 -0.61219627 0.40673089 15
0.63703215 0.99336296 -0.52490824 2
0.67809653 -0.82761371 0.10650244 5.5
0.66697162 5.7033982 -1.0280174 9
0.78358883 5.7211013 -0.8954733 10
0.89331722 -0.85806996 0.10669759 6
0.84743923 -0.78311801 -0.027780356 3
0.87220412 -0.83372229 0.28146002 10
0.8523497 -0.64554912 0.35850108 13
0.87021327 5.9103026 -0.23289651 13
1.042178 -0.42944562 -0.12078658 3
1.096296 -0.17287126 -0.19378553 3
1.0277358 -0.81803977 0.39820972 12
1.0992086 -0.64613724 0.42255002 14
1.284797 -0.67308736 0.38853672 12.5
1.2872686 5.7440896 -0.82941079 10.5
1.4077574 5.9957018 -0.14854684 14
1.5639209 -0.88133323 0.28386524 9
1.6958939 5.4381666 -1.6018944 7
1.7112733 -0.72650558 0.3335104 11
1.756363 5.9337726 0.16192222 15
1.8165566 -0.7517646 0.28659195 10
1.9894148 -0.71147358 0.45329455 12
1.8583279 -0.64231688 0.64119226 15
2.2037232 -0.66208071 0.68010527 14
2.1111932 6.1216559 -0.94561523 10
2.3668935 -0.81372231 0.25510004 9
2.321408 -0.7105186 0.55379564 13
2.2244923 5.528861 -1.1683437 9
2.3270476 6.0059419 -0.1905448 14
2.4083533 5.8743911 0.10211347 15
2.556438 6.1328392 -0.53340018 12
2.6511259 -0.80047661 0.37681052 10
3.1331482 5.9327502 -0.21262634 13
3.4738123 -0.88238329 0.18311903 8
3.5744131 0.03190076 -0.15815984 7
3.4771779 -0.85550672 0.27526748 9
3.5213192 -0.66957551 0.52614826 11
3.5572631 2.7236488 -0.36836419 10
3.5492365 -0.31816146 0.58622825 13
3.5621114 2.7527261 -0.23110519 11
3.509191 -0.69568223 0.89846581 14
3.563081 2.8142154 -0.034915052 12.5
3.5517459 4.3158698 -0.30192488 12
3.5958796 3.0378563 0.28368461 15
3.5521779 4.4754767 -0.1116787 13
3.547914 6.442523 0.29215986 15
3.6595666 0.96518505 -0.37380084 7.5
3.7532401 1.6621884 -0.5967049 7
3.6784434 1.2000984 -0.27689379 9
3.7568319 1.8529537 -0.39274243 9
3.7545347 1.3993337 0.0057390872 11
3.7373478 1.569291 -0.20382512 10
3.7554903 1.7328072 -0.093978368 11
3.627259 3.2728965 -0.57659799 10
3.6994269 0.96746165 0.23837115 12
3.7680442 1.9467002 -0.0069551314 12
3.6459382 0.69931448 0.47963265 14
3.679709 1.0360307 0.44839606 14
3.7431448 1.1442599 0.64927512 15
3.7416542 1.5562979 0.54086179 15
3.7891564 2.009501 0.51297885 15
3.8118286 2.5218482 -0.758214 8
3.8161392 2.486248 -0.50481504 9
3.8210788 2.3944123 -0.33669943 10
3.8272202 2.4369001 -0.19732197 11
3.8833096 2.5834689 0.024960551 12.5
3.8948901 2.7459919 0.38251942 14.5
