# .PCD v0.7 - Point Cloud Data file format
VERSION 0.7
FIELDS x y z intensity
SIZE 4 4 4 4
TYPE F F F F
COUNT 1 1 1 1
WIDTH 139
HEIGHT 1
VIEWPOINT 0 0 0 1 0 0 0
POINTS 139
DATA ascii
0.12998198 -0.96120238 -0.14803661 159
0.15585937 -0.86388046 -0.15564704 175
0.2769421 -0.85073948 -0.16123687 175
0.090031467 -0.71757656 -0.16545549 182
0.18609066 -0.74829155 -0.1630066 181
0.24180233 -0.73540008 -0.16901773 184.5
0.38918328 -0.74159801 -0.17549972 185
0.48715144 -0.72685695 -0.18213901 184
0.1324061 -0.61226368 -0.16964048 191
0.21275704 -0.64229769 -0.16621937 190
0.33483815 -0.63363111 -0.17241172 189.8
0.46828461 -0.61009151 -0.18305534 191
0.055171479 -0.57246149 -0.16921362 190
0.15199564 -0.5627774 -0.17058048 188
0.23253261 -0.55879772 -0.16461846 187.28572
0.34466833 -0.56679326 -0.17606786 187.84616
0.46091151 -0.5626756 -0.18455797 188.39999
0.53595275 -0.54881734 -0.19185655 190
0.14104433 -0.47854951 -0.17173727 184.41667
0.24825267 -0.47188443 -0.17532095 182.14285
0.35622591 -0.486435 -0.1784813 183.58333
0.44690534 -0.47784314 -0.18429758 185.16667
0.52805614 -0.44838095 -0.19376324 185.14285
0.17701817 -0.36160234 -0.18466404 176.33333
0.25975028 -0.3732892 -0.1846948 175.33333
0.35685685 -0.37008527 -0.19046097 175.17647
0.44139013 -0.34728196 -0.19882363 176.72728
0.55067259 -0.3997505 -0.20159489 183.5
0.61108369 -0.35871261 -0.205249 184.66667
0.28587842 -0.24027452 -0.19951393 168.5
0.31887493 -0.22822988 -0.19996461 167.88889
0.44378704 -0.30668196 -0.2024684 174
0.28237271 -0.16558094 -0.17664069 144.28572
0.31690302 -0.12708005 -0.16909531 132.78947
0.32888597 -0.093886577 -0.17279926 126.3
0.087371171 0.083607227 -0.11845156 129.39999
0.12088222 0.075189225 -0.15339346 135.5238
0.37809113 0.0019084665 -0.21225137 156.33333
0.4058986 0.070705622 -0.22013594 164
-0.20589642 0.18537328 -0.12665224 164
-0.15930563 0.16998421 -0.13871494 153.89999
-0.057267509 0.15435426 -0.17071706 161.86957
0.012591953 0.11183028 -0.16010399 163.33333
0.1739587 0.12459274 -0.21373397 146.66667
0.2089822 0.13687193 -0.21639559 149
-0.45854026 0.27345964 -0.14184831 145
-0.35231498 0.23686449 -0.1432689 159
-0.2491878 0.23611541 -0.14069478 160.8
-0.17492464 0.25319797 -0.1356581 153.66667
-0.070454799 0.24378598 -0.18645704 162.07143
0.028823607 0.25405517 -0.2041868 174.13333
0.27472052 0.23284739 -0.22386084 141.5
0.30713013 0.24909092 -0.22307824 140
0.44820437 0.2670756 -0.22619607 147.42105
0.51237202 0.25166249 -0.22420758 151.8
-0.55265349 0.30596414 -0.14190173 131
-0.41777915 0.37417069 -0.15189078 144
-0.34621555 0.33880964 -0.15014546 152.85715
-0.24548212 0.33979183 -0.15597466 157.5
-0.15573366 0.33523011 -0.16139136 154.22223
-0.049195059 0.34110138 -0.18418813 159.41176
0.038639251 0.34852177 -0.20620507 170.9375
0.13432997 0.33301955 -0.21796666 175.66667
0.22930218 0.3527244 -0.22328028 174.53847
0.32967114 0.3344287 -0.22683421 164.26923
0.4310787 0.31985262 -0.22599559 156.03999
0.54329354 0.34638679 -0.23102804 165.10001
-0.36539188 0.47387841 -0.15894395 149.25
-0.28172565 0.41910866 -0.16392809 157.39999
-0.1532037 0.43979707 -0.17378169 155.42857
-0.049511869 0.4429239 -0.18039557 154.375
0.053187381 0.43254569 -0.1961794 164.625
0.13663284 0.45888025 -0.21052964 176.77777
0.24084072 0.47023404 -0.22335367 180.38461
0.34659052 0.46799684 -0.23194858 181
0.44042388 0.44432056 -0.23358737 179.57143
0.5406754 0.41842121 -0.22804147 177.8
0.61869091 0.45909655 -0.23608272 181
-0.52294707 0.57667404 -0.14693271 121
-0.45498469 0.53228223 -0.15178002 132.5
-0.32988954 0.59088355 -0.16603187 143
-0.26255664 0.53407913 -0.17298141 153.85715
-0.13494144 0.55519563 -0.18762481 152.66667
-0.046435539 0.5493412 -0.19509324 149
0.047022082 0.53645486 -0.19440451 155
0.14819109 0.53785807 -0.20943238 166.8
0.248878 0.53606051 -0.2215942 174.7
0.34109661 0.54102939 -0.23243718 175.33333
0.4300482 0.5365904 -0.2388427 176.39999
0.53697228 0.53004795 -0.24288221 179.39999
0.67258024 0.55874962 -0.25147703 172.66667
-0.43869922 0.6848948 -0.16614634 125
-0.38790885 0.6415723 -0.16898939 134
-0.22156841 0.65210509 -0.18809313 162.33333
-0.19043563 0.61786783 -0.19017458 152
-0.067542531 0.63230681 -0.19744898 153.16667
0.037667334 0.65043581 -0.20730123 148.83333
0.14393772 0.64791882 -0.2187887 153.66667
0.24093606 0.65303051 -0.23053391 159.83333
0.33593938 0.63382435 -0.23985524 170
0.42425936 0.64907879 -0.24655674 166.25
0.51976717 0.6666128 -0.25180775 165
0.6110338 0.64527726 -0.25338891 162.66667
0.71018618 0.63145214 -0.25726885 162
-0.52028382 0.75384337 -0.15823077 117
-0.4657318 0.70671135 -0.15821347 122
-0.32548964 0.76629585 -0.18074487 133
-0.28466472 0.722992 -0.1895593 140.33333
-0.13431509 0.72936743 -0.19694777 155.75
-0.020060256 0.76468647 -0.21064454 165.33333
0.00018055073 0.72608751 -0.21244109 147
0.1144075 0.73194498 -0.22092548 146.66667
0.22161257 0.74660754 -0.2332574 147.5
0.32988319 0.72633064 -0.2440007 157.2
0.43073419 0.74248827 -0.25155792 156.5
0.54205358 0.7699151 -0.26075527 151
0.63848609 0.72170383 -0.25980276 155.5
-0.4248009 0.87536073 -0.1734256 117
-0.37260416 0.81811494 -0.17757662 123
-0.23499842 0.87590432 -0.19668306 129.66667
-0.1898564 0.8113851 -0.20013256 141.5
-0.067037322 0.85720807 -0.2124515 135.75
0.080081329 0.83136946 -0.22585288 152.66667
0.09413895 0.7954995 -0.23052354 167
0.20520136 0.82549065 -0.23512605 158.33333
0.32377183 0.8107627 -0.24569596 148.66667
0.43482178 0.81666219 -0.25183117 145.66667
0.54527116 0.78877407 -0.25946409 150
-0.27822986 0.93820065 -0.19480124 120
-0.11648494 0.95159465 -0.20824139 131
-0.10396977 0.92888194 -0.21170187 131
0.04472724 0.93155318 -0.22787702 131.25
0.18445092 0.92892617 -0.24047919 134.5
0.1917704 0.90128344 -0.24569264 140
0.3213082 0.89101636 -0.25952682 153
0.10262158 0.077463768 -0.10298923 126
-0.036634695 0.18086691 -0.090248257 136.60001
-0.074633375 0.20004922 -0.095472068 147
-0.020149047 0.16366646 0.0051439935 127
