# .PCD v0.7 - Point Cloud Data file format
VERSION 0.7
FIELDS x y z intensity
SIZE 4 4 4 4
TYPE F F F F
COUNT 1 1 1 1
WIDTH 469
HEIGHT 1
VIEWPOINT 0 0 0 1 0 0 0
POINTS 469
DATA ascii
-9.645339 11.99794 1.6941534 10
-9.9633055 12.999005 1.8213296 10
-9.8580379 14.542699 2.0312035 10
-9.6726809 15.396605 2.1498847 10
-9.9947987 16.772251 2.3277936 10
-9.8105612 14.979987 2.8031414 11
-10.050157 15.749263 2.9140384 11
-9.6786118 16.882797 3.1122935 11
-9.3588524 12.241801 2.2181869 11
-9.020525 11.009912 2.1159132 11
-9.2105646 16.303484 2.2823648 10
-8.952776 16.033859 2.9552028 11
-9.1385946 16.945381 3.1601102 11.5
-8.6813412 8.9550104 1.3081654 10
-8.4783831 9.1295767 1.6868204 11
-8.6716394 9.3783216 1.8215046 11
-8.8065472 10.244898 1.9888407 11
-8.8284483 9.9727526 2.6868966 13
-8.7746067 9.7941103 3.0242946 13
-8.614747 17.057638 3.1735823 11.333333
-8.2606268 14.963013 1.705294 10
-8.3306046 15.581866 2.20592 10
-8.2435436 8.0283251 2.5992799 13
-8.1791306 17.193262 3.1958621 11.333333
-7.6942639 6.1975913 0.29984361 8
-7.8123603 6.4899688 0.097506881 7
-7.6695414 5.7446322 0.59810156 9
-7.8125129 6.1432872 0.63984716 9
-7.7847443 6.5462904 0.52869368 9
-7.7269397 6.8535848 0.37418556 8
-7.8078408 6.0875797 0.94320631 10
-7.8270741 6.5251298 0.9561432 10
-7.8319054 6.5471745 1.2947077 11
-7.7236662 6.9510694 1.3584353 11
-7.8533058 15.059505 1.7391165 10
-7.9779224 6.510138 1.9427277 13
-7.7730069 6.8744068 1.6200848 12
-7.7159204 17.760187 2.0782461 10
-7.702683 6.4998217 2.5163434 14
-7.7534375 6.5158772 2.92014 15
-7.6801138 7.2442651 2.8306024 15
-8.050746 17.203478 3.1815696 12
-7.2721915 6.9929137 -0.064709321 7
-7.2837858 7.3465858 -0.037374325 7
-7.5804706 5.810957 0.26518494 8
-7.5226417 6.8702884 0.15717597 8
-7.2848907 7.3052082 0.21535628 8
-7.3303523 4.7479563 0.46196359 9
-7.3817554 5.0766802 0.56357384 9
-7.5514784 6.9768734 0.53435022 8.75
-7.598331 7.3901792 0.54136503 8.5
-7.3510599 4.7064133 0.90519536 10.5
-7.3811035 4.9194851 0.88761222 10
-7.5459647 7.1668849 0.91879237 10
-7.4699745 6.9631391 1.3329514 11
-7.5417457 7.316885 1.4497945 11
-7.632422 7.8293839 1.4808785 11
-7.4740496 15.192907 1.7755477 10
-7.2747278 17.885233 2.1180038 10
-7.6010323 15.975112 2.2770646 10
-7.4091992 5.3766932 2.5736432 15
-7.5308447 5.7412 2.6847651 15
-7.5194111 5.9641714 2.419996 14
-7.6546326 7.0876212 2.7682698 15
-7.4961214 7.3024383 2.6989012 14
-7.6274557 6.1079664 2.7947962 15
-7.5312009 7.3468013 2.7953846 15
-7.4849882 12.211811 3.1373389 13
-7.5415969 17.39559 3.1727371 11.5
-7.0638227 3.9067144 0.16704449 8
-7.0225 4.1581092 0.21834159 8
-7.1111755 4.5448089 0.17580169 8
-7.102118 3.9099317 0.57258034 9.5
-7.0707855 4.2094784 0.56158876 9.333333
-6.9946012 4.4625325 0.51543576 9
-7.0027428 3.8917866 0.92076778 10.5
-7.0442162 4.1494889 0.93155915 10.5
-7.1862316 3.9339201 1.4054482 12
-7.0143838 4.1094103 1.2286785 12
-6.9588943 4.5136838 1.2745112 12
-7.1384206 3.7890091 1.71656 13.333333
-7.0080428 4.0812221 1.836176 14
-7.0385342 4.4462314 1.9212768 14
-7.0998101 15.332252 1.8127121 10
-7.1651649 3.9427743 1.9418248 14
-7.0757709 4.2025294 2.1773894 15
-7.0574579 4.5371957 2.2087772 15
-7.2312245 4.9428673 2.1588254 14
-6.9097724 11.105537 2.1523657 12
-6.8964801 15.408225 2.2166107 10
-7.2190413 7.4338479 2.7310615 14.5
-7.0055819 9.3440523 2.5020828 13
-7.1577411 12.288581 2.7793405 12
-6.907865 11.322753 3.2770898 14
-6.9939065 12.362457 3.161772 13
-7.1896534 17.49316 3.2733378 12
-6.979466 17.544043 3.2685528 12
-6.6378093 6.3282385 -0.03683082 7
-6.4356265 3.9852369 0.64372504 10
-6.4703636 4.6747508 0.5550819 9
-6.6034408 4.6410789 1.0745447 11
-6.5073404 3.9584355 1.3768688 12
-6.6784902 4.5851345 1.2617489 12
-6.5975413 3.8274467 1.5903066 13
-6.458427 3.974386 1.8785578 14
-6.8365126 18.011412 2.1568422 10
-6.4942741 4.0434742 2.1210694 15
-6.6800175 10.043271 2.3224831 12
-6.7619233 11.313304 2.1827834 12
-6.6640091 12.445722 2.818414 12
-6.6578207 17.637356 2.9148192 11
-6.5684953 11.343634 3.2660599 14
-6.6702404 12.465905 3.1804261 13
-6.7443829 17.57225 3.309617 12
-6.21979 4.6849866 0.28571051 8
-6.1802907 4.7156816 0.43154863 9
-6.1236038 6.2659097 0.45776945 9
-6.1805496 6.8953419 0.6671648 9
-6.3457642 18.219139 0.80700839 8
-6.2963452 3.9321458 0.8405602 11
-6.2945375 4.5532203 0.89504999 10.5
-6.2316432 4.7774243 0.98489726 11
-6.3112516 4.6047664 1.3310474 12.2
-6.2069707 4.8088822 1.226997 12
-6.3984842 3.903779 1.590934 13
-6.2951827 4.1119022 1.7057203 13.5
-6.1661944 4.5620899 1.7114233 14
-6.1441278 4.7634339 1.7520264 14
-6.3973169 18.143528 2.1965578 10
-6.37078 4.305841 2.0627458 15
-6.1706595 15.726244 2.2768469 11
-6.2789416 5.5321302 2.4949605 15
-6.3814864 9.6317644 2.5494397 13
-6.1823039 12.604699 2.8584723 13
-6.2756128 11.435215 3.2751896 14
-6.3546143 12.574162 3.200587 13
-6.1974487 17.749453 3.2512989 11.666667
-5.9353247 4.6963706 0.31140015 8
-5.7413158 4.9220972 0.25304794 8
-5.7507391 5.9756465 0.29972711 8
-5.7427149 6.0342312 0.25781658 8
-5.714694 7.6931615 0.18781289 7
-5.7784939 4.8761973 0.50829893 9
-5.7041993 6.012219 0.67193872 9.5
-5.6795931 6.1868668 0.83508611 10
-5.8311982 4.8705721 1.1999763 12
-5.966105 18.278759 2.2355173 10
-5.7830501 15.818363 2.2984483 11
-5.9182467 7.8609738 2.7587292 15
-5.8082247 17.871376 2.9437349 11
-5.9686084 11.503324 3.2792635 14
-5.7061481 12.746554 3.2319503 13
-5.7272897 17.854275 3.071574 11
-5.5663519 6.1366549 0.1835808 7.5
-5.5287762 6.1275544 0.47094125 9
-5.4064283 4.9137321 1.0077623 11
-5.4968672 4.8077393 1.5006754 13
-5.4532185 4.8486166 1.7233663 14
-5.5268588 18.387968 2.2729511 10
-5.4975562 7.8992553 2.7251327 15
-5.539361 12.803238 2.9116516 13
-5.31742 18.021641 3.0833113 11
-5.6604919 11.551918 3.2785375 14
-5.3884878 12.836853 3.2505887 13
-5.6740193 17.864769 3.3512673 12
-4.815814 5.0881009 0.099692039 7
-5.0489235 5.0692763 0.64009529 10
-4.9800162 5.0368934 1.1833191 12
-5.0893884 5.0452065 1.2389696 12
-4.8521857 5.1208029 1.9801543 15
-5.028409 8.0212364 2.7464292 15
-5.0576243 12.941218 2.9502065 13
-5.0746369 11.700299 3.2928073 14
-4.6155386 7.1682215 0.27328947 8
-4.4144359 7.2903385 0.31389919 8
-4.5093241 5.1436181 0.74669009 10
-4.5270281 7.2882786 0.5857591 9
-4.5662613 5.1415 0.99209547 11.5
-4.70573 5.2252135 1.9845586 15
-4.6098704 8.1285954 2.7611165 15
-4.555779 9.8645411 2.8341923 14
-4.4960251 13.619558 2.6682074 12
-4.7786417 11.757237 3.2970302 14
-4.6680856 13.051501 3.1407063 13
-4.1133032 7.371922 0.35412869 8
-4.3533902 5.201993 0.75177783 10
-4.3224196 6.614893 0.47466829 9
-4.2204976 7.3837619 0.57859969 9
-4.3980207 5.206068 1.1090294 12
-4.2481956 8.2311544 2.7798023 15
-4.1292005 13.580735 2.6795721 12
-4.1815133 11.843678 3.2996342 14
-4.4446025 13.115235 3.310394 13
-3.8996563 5.3327074 0.93514502 11
-3.8277149 8.3725119 2.8075104 15
-3.2909598 1.4091421 0.22908522 9.166667
-3.3683498 1.7188293 0.21574597 9
-3.2950799 1.4287293 0.50822282 11.5
-3.3580835 1.71055 0.58194536 11.8
-3.3103659 1.4339195 0.90167338 14.428572
-3.3826528 1.7537718 1.0021052 14.666667
-3.5093043 8.4272413 2.8258529 15
-3.1945074 1.0967596 0.90324539 15
-3.1985106 9.8760557 2.3421314 13
-3.1857283 11.45292 2.3226137 12
-3.0736673 8.5513859 2.847156 15
-2.4859171 -1.3988951 0.15896904 9.4444447
-2.5870695 -1.0636313 0.16184491 9.5
-2.6962152 -0.69067222 0.18219556 9.8000002
-2.5054576 -1.3695632 0.53420132 13.25
-2.6115043 -1.0054559 0.49596977 12.866667
-2.7069342 -0.68133104 0.55468976 13.428572
-2.5681624 -1.2219249 0.71194553 15
-2.619252 -1.0138012 0.72362828 15
-2.7160435 -0.66406202 0.75120252 15
-2.610075 7.9703231 2.3157458 14
-2.7215424 8.6887789 2.2981298 14
-2.731333 8.6459532 2.8278453 15
-2.1648724 -1.4389521 0.17306632 9.8571424
-2.2005279 -1.4301699 0.52262157 13.6
-2.0987878 7.0390406 1.763675 13
-1.8363791 -1.3704137 0.19278657 10.333333
-1.8101679 -1.3305254 0.46346423 13.7
-1.8290452 7.1236978 0.57624459 9
-1.84354 7.1201744 1.1768483 11
-1.8468989 7.1138659 1.539802 12.4
-1.8533573 7.1093721 1.8633437 13.5
-1.6971811 7.1608496 1.9515762 14
-1.9025245 7.050344 2.2940254 15
-2.0375016 7.3570399 2.2939389 15
-1.4337556 -1.2432679 0.21673141 11.2
-1.2797344 -1.1908536 0.21433875 11.5
-1.4361609 -1.2585483 0.42129025 14.2
-1.2923269 -1.1818947 0.41326931 14.5
-1.4078006 7.3045759 1.1045829 10.666667
-1.437005 7.2485394 1.5336511 12.5
-1.3932379 7.3224006 1.9450963 14
-1.5596591 7.124239 2.3043461 15
-1.3747636 7.1954427 2.2700393 15
-1.0094726 -1.1195433 0.24186715 12.5
-0.84436721 1.2324733 0.34140685 13.5
-1.0593592 -1.135908 0.37978244 14.666667
-0.92979968 7.4603653 0.70398718 9
-1.0361265 7.429255 1.1201228 10.5
-1.0778646 7.4049296 1.5748724 12.6
-0.98444831 7.4556017 1.9390943 14
-0.94461179 7.3267298 2.2907214 15
-0.55060172 0.55183488 -0.20881608 0
-0.425414 1.0833321 -0.18954332 2
-0.59185946 1.4174008 -0.18950996 3
-0.5022139 1.7505274 -0.20631291 3
-0.52050072 2.6109672 -0.22566508 4
-0.60580647 -1.0162596 0.24842867 13.8
-0.77918637 0.97046369 0.35848609 15
-0.63242567 1.2873862 0.37274086 14
-0.62566996 7.5481882 0.72371167 9
-0.43686044 7.6026454 0.7550528 9
-0.65606189 7.542274 1.138484 10.5
-0.45601913 7.5902419 1.0307145 10.5
-0.69201028 7.5124044 1.5967953 12.5
-0.45592666 7.5820084 1.5449259 12
-0.74210823 7.5299621 1.9216201 14
-0.53409523 7.5896001 2.0069728 14
-0.68871707 7.2281609 2.3181002 15
-0.16879517 0.65569228 -0.18124409 0
-0.17073433 0.99585491 -0.18833894 1.125
-0.22602153 1.3710732 -0.16442376 3
-0.13277744 1.8885736 -0.18433611 4
-0.2120385 2.1830337 -0.19806238 4
-0.13811463 2.5910232 -0.20063201 4
-0.19590442 2.8843877 -0.20791757 4
-0.034439914 6.7644477 -0.23494551 5
-0.17056879 7.5168877 0.065984353 7
-0.26621595 -0.93114305 0.22450261 14.2
-0.39745653 1.3316602 0.35648844 14
-0.20862152 7.6681962 0.76224571 9
-0.20439261 7.6693926 1.1120445 10.6
-0.23854809 7.6358795 1.6117381 12.5
-0.22291237 7.6671109 1.9070632 13.666667
-0.29580629 7.2259378 2.3161578 15
-0.30539268 7.6161075 2.2916915 15
0.21891771 0.67147112 -0.17479916 0
0.18886973 0.94322115 -0.17930152 0.8888889
0.20070858 1.3528043 -0.17122112 2.6666667
0.1695313 1.7854981 -0.17381516 3.5999999
0.24426316 2.1709204 -0.17686467 4
0.21766801 2.6301577 -0.18700212 4
0.19081713 3.0804672 -0.19429596 5
0.1641012 3.5558789 -0.2076125 5
0.2152413 -0.84040487 0.1678223 13
0.31343538 -0.75049716 0.22836143 15
0.13287906 7.7655005 0.79476339 9
0.21111888 7.7840419 1.1492822 10.6
0.15453529 7.7476821 1.5448453 12
0.14072405 7.754683 1.9254944 13.5
0.18139151 7.1695466 2.3029034 15
0.22747451 7.7841015 2.2842588 14.5
0.59349549 -0.80709183 -0.18191695 2
0.64466679 -0.60592872 -0.16333124 1.7
0.66021073 -0.22623923 -0.15551826 0.77777779
0.70704752 0.053624194 -0.15706538 0.5
0.60319817 -0.81504351 0.10833021 10.5
0.68226671 -0.69083285 0.22541508 13.6
0.5920741 7.7767792 0.82339656 9
0.55955833 7.8821006 1.1301914 10.5
0.58799499 7.8654456 1.5976013 12.333333
0.55083865 7.8853178 1.9889271 13.5
0.74603683 7.9714837 2.1029232 14
0.53309214 7.2147245 2.3199184 15
0.5431115 7.7850013 2.3238475 15
0.80270678 -0.8075192 -0.017988767 7
0.99405354 -0.55799985 -0.10290225 4.4615383
1.061657 -0.24963018 -0.12467943 3.3333333
0.99872094 0.11561664 -0.15111139 2
0.97734451 -0.61243504 0.17877816 11.37037
1.0638661 -0.32808876 0.21112148 12.181818
1.1859611 4.0122471 0.58719617 10
1.0480295 8.0142336 0.88447565 9
0.87387925 7.9572921 1.178284 10.5
1.0533006 8.0117922 1.1634235 10.5
0.93853784 7.9560394 1.4626274 11
1.0940679 7.9965258 1.5464842 11.5
0.85431528 7.9283838 1.8850994 13
0.99964523 8.0086384 2.018894 13.5
0.89115089 7.2691593 2.3429661 15
0.94098336 7.9115472 2.3557003 15
0.87912315 8.02318 2.3086135 14
1.2268014 -0.66690427 -0.079627976 5.5
1.3158422 -0.20042181 -0.13311954 3.8
1.4245722 0.19820371 -0.13965718 3.6666667
1.2260956 -0.699763 0.069794104 8.5
1.5313222 -0.189726 0.32419232 12.3
1.5620633 -0.19554262 0.46942666 14.666667
1.2463095 3.8204648 0.59265625 10.5
1.3873218 8.1144571 0.90834862 9
1.3364202 8.0846529 1.1555611 10.333333
1.3925605 8.0773106 1.6090711 11.8
1.2856641 8.0717363 2.0151718 13.333333
1.3825582 7.2499385 2.3525805 15
1.3592385 8.1648693 2.3107765 14
1.7221954 -0.19854051 -0.054939069 6
1.8580908 0.27214956 -0.092806861 5
1.70508 -0.21872391 0.24645145 10.6875
1.8545606 0.36542648 0.26635057 10.428572
1.77828 0.5641669 0.34417444 11.272727
1.9571427 0.90639222 0.33588681 10.5
1.6926607 -0.16218714 0.50177264 14.5
1.9084384 0.034467932 0.6268627 15
1.758952 0.62964547 0.47733194 13.333333
1.9161993 0.91061521 0.49888116 13
1.7358049 8.2132797 0.91405219 9
1.7765597 8.2099657 1.2148274 10.5
1.8339465 8.2134485 1.5829219 11.5
1.7234547 8.1868267 1.9582198 12.6
1.7938645 7.2426076 2.3655064 15
1.6997417 8.0864191 2.3348396 14
2.3211279 0.21001872 0.027219733 7
2.1936312 0.19326541 0.27398294 9.8888893
2.17577 0.18625881 0.60236359 14
2.1100404 0.55725729 0.62815368 14
2.11093 0.83877885 0.65343213 14
2.3199401 7.3435397 0.87737352 9
2.1670034 8.2855091 0.91161376 9
2.2736845 7.2370353 1.3010461 11
2.1859095 8.2965822 1.2163304 10
2.109906 8.2754555 1.5607779 11.333333
2.3131804 7.0430279 1.9840311 14
2.2534373 7.2230763 1.9741193 14
2.1443365 8.2371397 1.9540982 12.5
2.1592894 7.2068992 2.3727379 15
2.1569154 7.9281483 2.373318 14
1.9547479 7.9601407 2.3780866 14
2.5346704 -0.04488026 0.017168915 7
2.5291057 -0.043686435 0.15835018 8.5
2.4422917 0.075220138 0.29361281 9.5
2.7662308 3.5576246 0.38416213 9
2.7390721 3.7410862 0.50589246 9
2.6561768 6.0863237 0.550596 9
2.5770097 6.5242214 0.58083075 9
2.4975786 6.7970204 0.59994996 9
2.5061071 -0.040051594 0.55812418 13
2.5753536 0.21376891 0.63987416 13.166667
2.6523731 0.413151 0.84885705 15
2.7540717 3.4448915 0.88709295 12
2.7324812 3.7380123 0.81557155 11.2
2.6406467 6.4068422 0.88584155 10
2.4865425 6.9439449 0.93408954 10
2.7475622 3.7444131 1.1109 13
2.6748478 6.1409879 1.0985551 10.5
2.5969493 6.5091405 1.2362704 11
2.4881825 6.9762368 1.1979854 10.5
2.7449667 3.7819471 1.4190704 14.333333
2.7027555 5.7897339 1.7682487 14
2.657253 6.1402698 1.6186415 13.333333
2.5978856 6.6102886 1.6507735 12.666667
2.5228248 6.9084468 1.5650083 12.5
2.4003851 7.2097344 1.5220028 12
2.7240994 6.1265078 2.0263815 14.5
2.5924244 6.5045009 2.0282063 14.333333
2.5201709 6.9407997 2.0275552 13.666667
2.4305158 7.3618541 1.8912328 13
2.3904316 7.8529372 1.981094 13
2.616936 6.6370068 2.2432306 15
2.5431559 6.9340787 2.318527 15
2.830745 0.20404069 0.35722125 10
3.1647785 2.2476158 0.34739706 8.8000002
3.0698762 2.6042514 0.40458548 9
2.9704309 2.9772189 0.39021808 8.6000004
2.8640127 3.3116417 0.43154892 8.666667
3.1837068 4.7193642 0.5031997 8.5
3.0912611 4.9625382 0.52254456 8.5
2.9580879 5.3343167 0.4896692 8
2.8223934 5.7149496 0.51990378 8
2.8186932 0.18829785 0.64924896 13
3.1745112 2.2113705 0.61527538 10.5
3.0588193 2.6253128 0.60906911 10.666667
2.9888725 2.9764144 0.72720432 11
2.8418007 3.3793974 0.7554937 11
2.9900348 4.3355551 0.69142461 10
3.1521275 4.6971197 0.79609436 10
3.0837998 4.9664297 0.69817442 9.666667
2.9683809 5.3345275 0.750027 9.7142859
2.821481 5.7785244 0.91051602 10
2.9768939 0.41902864 0.93485212 14.5
3.0189698 2.9677091 1.1750385 13.833333
2.8351033 3.3743548 1.1530261 13.5
2.7812989 3.5899103 1.2107666 13.5
3.0355365 4.3729563 1.0859631 12
3.1682878 4.7354817 1.3080469 13
3.0846572 4.9857244 1.1473073 11.8
2.9501753 5.3905625 1.1413027 11.4
2.8466661 5.7597589 1.2138728 11.5
2.939564 3.347748 1.4207895 15
3.1567771 4.7031789 1.5360612 13.5
3.0477145 4.9793816 1.5976002 13.6
2.9548435 5.379734 1.6441356 13.4
2.8414967 5.742146 1.5419255 13
3.0870273 4.965189 1.8378346 15
2.9744382 5.3415942 1.9261278 15
2.8384008 5.8043981 1.9504853 14.5
3.2718699 1.8525537 0.3278707 8.6000004
3.2133093 2.0826707 0.34904805 9
3.4405081 0.53985441 0.81234735 13
3.3523896 1.8149389 0.70735204 11.25
3.2557242 2.1504951 0.69812185 11.2
3.2492981 2.4154832 0.79246205 12
3.257097 2.9604349 0.8881948 12
3.5265088 0.63309395 1.0524334 14.25
3.5282896 0.82281393 1.1148759 14.5
3.4287064 2.9633386 1.14136 13
3.3709118 2.6005886 1.4228057 15
3.3591301 2.9128997 1.4057864 14.5
3.3023989 3.3385415 1.4181265 14.5
3.1699173 4.7081933 1.7791326 15
3.5949423 1.8307376 0.8481012 12
3.6692677 2.2573278 0.92185199 12
3.6136405 2.8481719 0.86904413 11
3.8820126 1.8389525 1.1630121 13.75
3.7835927 2.1898084 1.2021104 13.6
3.6722388 2.5807815 1.1476243 13
3.6122091 2.835727 1.1079054 12.666667
3.9365175 1.566714 1.4065421 15
3.869616 1.8068099 1.3828593 15
3.7773459 2.1965773 1.389182 15
3.6339691 2.4832952 1.4330114 15
3.5996089 2.9052718 1.3887724 14
4.0938902 1.0547342 1.2023147 14
4.0791492 1.1225467 1.3370212 15
4.0103316 1.3448775 1.3718776 15
