# .PCD v0.7 - Point Cloud Data file format
VERSION 0.7
FIELDS x y z intensity
SIZE 4 4 4 4
TYPE F F F F
COUNT 1 1 1 1
WIDTH 147
HEIGHT 1
VIEWPOINT 0 0 0 1 0 0 0
POINTS 147
DATA ascii
-0.30787206 -0.93894315 -0.17492062 124
-0.1496041 -0.95099109 -0.17487893 125.33334
-0.012177533 -0.97247404 -0.18177213 130
0.014007495 -0.90579069 -0.18291594 136
0.13686112 -0.92667431 -0.19261581 132
0.25943622 -0.92718071 -0.20028558 134.66667
0.38114774 -0.90260017 -0.21455359 139
-0.43470499 -0.86685431 -0.16390771 134.5
-0.38862178 -0.81697869 -0.16542187 137
-0.24251837 -0.84727323 -0.17395131 129.75
-0.11798155 -0.89436066 -0.17966659 132
-0.091745712 -0.8479721 -0.18513839 136.66667
0.028654456 -0.87356853 -0.19264978 139.33333
0.161649 -0.82876831 -0.19387695 141.5
0.27146685 -0.8264488 -0.19989792 144
0.37911052 -0.81757975 -0.20815413 149.5
0.48415127 -0.81540883 -0.20982508 150.66667
-0.54208267 -0.76805961 -0.15882775 115
-0.46689188 -0.70399892 -0.15900226 123
-0.3349869 -0.76016438 -0.17263728 137
-0.24485505 -0.75131553 -0.18062806 140.5
-0.16292933 -0.7379443 -0.1805746 142.66667
-0.037310988 -0.74788654 -0.18685615 145
0.07079275 -0.76432776 -0.19102772 145
0.18454851 -0.73909366 -0.19590896 150.25
0.28362271 -0.73277169 -0.2039039 156.8
0.37855709 -0.72770768 -0.20861077 161
0.4750399 -0.74213082 -0.21343073 158.75
-0.64548111 -0.66472375 -0.15317535 109
-0.59809929 -0.63402432 -0.15873365 114
-0.44329882 -0.68546033 -0.16810445 131
-0.38602871 -0.63767827 -0.17412381 138.66667
-0.22780803 -0.64397591 -0.17539431 147.5
-0.14121354 -0.66533661 -0.18556845 144.75
-0.056457527 -0.63180608 -0.18274578 147.25
0.022648351 -0.63906604 -0.19230822 152
0.12461811 -0.66307569 -0.19410503 151.14285
0.25052091 -0.6526733 -0.20304607 164.25
0.36537519 -0.64133412 -0.20941044 169
0.46484333 -0.6609512 -0.21690233 167.2
-0.67211616 -0.51303178 -0.15245649 111
-0.53113943 -0.59001833 -0.16181339 123
-0.46271119 -0.54595768 -0.17205037 139.33333
-0.34650213 -0.55514383 -0.17121752 144.66667
-0.28121018 -0.5491457 -0.17893855 149
-0.13772961 -0.54682612 -0.17995028 148.83333
-0.035249162 -0.56102973 -0.18607952 150.60001
0.066411704 -0.5352577 -0.18648249 161.25
0.15691283 -0.54405069 -0.19291891 171.55556
0.2314346 -0.5555324 -0.19995189 177.55556
0.34375644 -0.55031574 -0.206956 178.66667
0.44888267 -0.55382371 -0.21006559 178.14285
-0.61667424 -0.48506442 -0.14929287 116
-0.54377711 -0.44971031 -0.16080073 128.2
-0.45366323 -0.4048436 -0.16226409 143
-0.35285112 -0.47339928 -0.17444573 149.5
-0.24863257 -0.44584286 -0.175602 153.375
-0.15629964 -0.44232529 -0.17708538 151.66667
-0.047088038 -0.44748887 -0.1775457 155.88889
0.044735305 -0.44978172 -0.188006 168.41667
0.14372925 -0.4681707 -0.19688356 179.38461
0.25139499 -0.48068389 -0.20528591 182
0.34572384 -0.47678265 -0.20763624 182.2
0.43551332 -0.45178837 -0.2115659 179.2
-0.41512334 -0.38606921 -0.16749968 149.33333
-0.33477795 -0.34586698 -0.16669504 151.5
-0.26391232 -0.34299269 -0.17279004 150.33333
-0.1485592 -0.33742985 -0.17093314 151
-0.062081963 -0.3554863 -0.17878924 158.76923
0.037683628 -0.358836 -0.19378664 171.54546
0.1529534 -0.33776727 -0.20757183 176.25
0.26389587 -0.35387161 -0.20895387 173.26666
0.35442808 -0.34334609 -0.21156867 164.625
0.4197852 -0.33382359 -0.21152638 159.41667
-0.23549311 -0.2958571 -0.16208033 153
-0.14593618 -0.24999742 -0.1496163 149.125
-0.074424364 -0.27300313 -0.1729444 154.77777
0.021184074 -0.24922082 -0.20040637 174.83333
0.37674245 -0.28709608 -0.21252608 146.5
0.41448867 -0.28434962 -0.2169549 146.75
-0.71563673 -0.11175299 -0.16127628 118
-0.69389892 -0.10941778 -0.16675624 120
-0.23847997 -0.13468975 -0.16519347 150.5
-0.17223388 -0.11973464 -0.17401744 153.22223
-0.063297763 -0.14986664 -0.18373431 163.66667
0.039207485 -0.11244818 -0.15964501 142
0.13058901 -0.11021461 -0.12926027 131.19048
0.26414669 -0.15150142 -0.21104431 156
-0.62503541 -0.10207507 -0.16880414 127.33334
-0.52295119 -0.091204897 -0.16697614 140.66667
-0.46194258 -0.084673524 -0.1734762 151
-0.37312853 -0.075201556 -0.17325468 155.60001
-0.25860602 -0.063005447 -0.16792111 151.57143
-0.17468868 -0.054019615 -0.17513536 151.625
-0.07090573 -0.08290191 -0.19667539 173.75
0.14577769 -0.073191643 -0.17668001 138
0.20762151 -0.055718213 -0.20428605 151
0.40920693 0.011523725 -0.21482287 163
0.64472628 0.057081141 -0.21765237 174.43243
0.74869406 0.049005989 -0.21501705 180.63158
0.83790016 0.061407622 -0.21014489 186.21428
0.93176413 0.066037551 -0.22397973 189.60001
0.57852089 0.18604149 -0.21981826 175
0.62756753 0.1500546 -0.2176531 176.03703
0.73614353 0.15433812 -0.21599674 182
0.83072299 0.16650625 -0.21342394 187.45454
0.94795376 0.1549747 -0.23173097 190.66667
0.46375394 0.29853973 -0.21488273 176
0.53840631 0.25727928 -0.2156218 175.70833
0.64717281 0.25123042 -0.21668355 179.92857
0.73257565 0.25962383 -0.21056682 185.21428
0.82540303 0.25747821 -0.21762544 189
0.90657198 0.23959921 -0.2304793 192
0.34253284 0.35604572 -0.21100183 175
0.44085726 0.33459297 -0.21446428 176.75
0.54295748 0.36740616 -0.21400636 180.625
0.63366085 0.35280925 -0.21068825 184.05263
0.73731118 0.36431783 -0.21501441 188.3
0.81057918 0.34206539 -0.21954302 190
0.89522392 0.40588757 -0.23355275 195
0.32950148 0.48578736 -0.20534651 185
0.42032671 0.46990401 -0.20601536 184
0.52819759 0.43960181 -0.20950289 184.76923
0.6409952 0.46255022 -0.21582453 189.125
0.71509045 0.43588325 -0.2172619 190.25
0.85033059 0.47448206 -0.22911289 192.5
0.90112269 0.4113577 -0.22810176 195
0.31517115 0.52705443 -0.1574342 187.64706
0.44225031 0.55236232 -0.21149203 188.88889
0.53876138 0.55152315 -0.21382985 190.33333
0.60372704 0.52100843 -0.21437891 191
0.72693437 0.58635682 -0.22531185 195
0.79862452 0.53961432 -0.22762759 195
0.39698845 0.60902858 -0.21082146 192
0.29982468 0.76475286 -0.18395506 209
0.29353034 0.85357487 -0.19127084 205.66667
0.28710058 0.93971878 -0.19688366 168
-0.2091531 -0.12500402 -0.049319223 155.625
-0.18530074 -0.12024476 -0.076591551 164.75
0.058605671 -0.13484974 -0.091048241 124.5
0.10550526 -0.1191026 -0.090354532 125
0.30374029 0.53481948 -0.10891467 183
0.011033195 -0.11232643 0.018740004 127
0.33839354 0.5763728 0.049159687 125.5
0.33748636 0.64918625 0.065976553 212.42857
0.3547309 0.7608909 0.0072262711 29
0.32636645 0.58595812 0.10534912 214
