# .PCD v0.7 - Point Cloud Data file format
VERSION 0.7
FIELDS x y z intensity
SIZE 4 4 4 4
TYPE F F F F
COUNT 1 1 1 1
WIDTH 155
HEIGHT 1
VIEWPOINT 0 0 0 1 0 0 0
POINTS 155
DATA ascii
-5.4015841 -1.562837 1.117903 12
-5.4623456 -1.424248 1.4082673 13
-5.4212375 -1.4797646 1.6882834 15
-5.4698057 -1.3836385 1.5610909 14
-5.2820945 -2.2450469 1.64282 14
-5.1394653 -0.55465984 1.658301 15
-5.0398464 0.31192452 1.7112997 15
-4.9800553 1.1713783 1.6092727 15
-4.7872419 2.9298511 1.195132 12
-4.8509612 2.7834089 1.5292387 14
-4.7640324 -1.9724908 1.6555982 15
-4.8437333 2.8055279 1.7003748 15
-4.8053937 3.2127526 0.25283229 7
-4.6078348 3.9320657 0.59428918 9
-4.6076908 3.6539149 1.3138014 12
-4.543066 -1.2925916 0.30828398 8
-4.5824165 4.2796578 0.22501464 7
-4.4313293 -0.97473323 0.51755428 9
-4.457037 4.6220269 0.45923135 8.5
-4.5557365 -1.2052506 0.55916464 10
-4.5891995 4.1202946 0.96927696 11
-4.536047 -1.870445 0.96741408 12
-4.5238423 3.9600124 1.3650434 13
-4.4796538 4.5496697 1.3212534 12
-4.5422235 -2.434149 1.4633429 14
-4.4895029 4.4955096 1.6676518 14
-4.3791671 4.5503216 2.038492 15
-4.2313719 -1.9680272 0.3264806 8
-4.3686905 4.6949267 0.8341381 10
-4.3262677 4.6926436 1.0383023 11
-4.3124866 4.7073889 1.5452517 13
-3.9432459 -2.0015154 0.47936004 9
-3.6284781 -2.1099994 0.28666776 8
-3.7674775 -2.0520692 0.71534652 11
-3.7117593 -2.2518811 1.0195136 13
-3.4883494 -2.1129193 0.79937583 12
-3.4294198 4.4846649 0.82006013 10
-3.1758091 -2.1620238 1.0261202 14
-3.2490644 4.4787669 1.4027249 13.5
-3.0205235 -2.2521999 0.24868089 8
-3.0061169 -2.2316408 0.39315158 9
-3.1408389 -2.2046046 0.63304132 11
-3.0874133 4.3980899 0.86240631 11
-2.8428965 4.2920718 0.47151038 9
-2.7817945 -2.4069169 1.0381391 14
-2.7060335 -2.377142 0.26775044 9
-2.6988332 -2.2825546 0.57947212 11
-2.6948054 4.2101207 1.6072935 15
-2.5704207 -2.3232467 0.35919645 10
-2.4153502 4.1717772 0.87498814 12
-2.2882047 -2.4493027 0.14609325 8
-2.2035775 -2.4303553 0.29617411 9
-2.2046933 4.1880002 0.79971772 11
-2.1840303 -2.4900014 0.92543447 14.5
-2.187444 4.1472921 0.38424543 9
-2.0870345 4.136425 0.58543408 10
-1.8269686 4.0554552 0.82384241 12
-1.9000723 4.0559726 0.98162895 13
-1.6201389 4.0160131 0.56791997 10.5
-1.5793921 -2.8553412 0.052401274 7
-1.3939755 3.9477684 1.3397673 15
-1.3066659 3.9572659 0.42310333 9
-1.0683861 3.9078262 0.54675221 10.5
-1.0849909 3.9091272 0.94345891 13
-0.99135995 3.9228063 1.1884141 15
-0.85074455 -1.6350428 0.16250406 9
-0.78776324 -1.3221774 0.34746513 13
-0.99413812 3.9726963 0.78940135 12
-0.98779202 3.9170637 1.0775797 14
-0.85378259 4.8090167 1.0833368 13
-0.71715975 -3.4724154 -0.0060556396 7
-0.65310383 -1.4379215 0.18482748 10
-0.70291549 -1.3886725 0.20090064 11
-0.7655617 -3.4484391 0.27405217 9
-0.76308793 -1.3295027 0.30334628 12
-0.75340313 -1.3099693 0.42462963 15
-0.66291469 4.4891067 0.56848001 10
-0.70984042 4.3894572 0.74468702 11
-0.69784272 4.8265996 1.3379003 14
-0.51019192 -1.4458776 0.17820127 10
-0.45219591 -1.4133984 0.24715465 12
-0.45210722 -1.3876661 0.3826679 14.5
-0.28206784 6.5838823 1.2383034 12
-0.3101173 6.5880442 1.4617089 13
-0.18175608 -0.94638026 -0.20820302 1
-0.15955047 -0.68677235 -0.21054938 0
-0.14761843 -3.5265784 -0.0081568379 7
-0.085434854 6.5511484 0.57799089 9
-0.090821318 6.5443354 0.69229549 10
-0.20509161 6.600996 0.98381042 11
-0.16796198 6.6245117 1.6949555 14
0.050643142 -1.4894491 0.31547564 13
0.23379846 -1.6045591 0.16801262 10
0.27451906 -1.5432585 0.26581854 12.333333
0.26426983 -1.485144 0.42874345 15
0.35823333 6.6114478 1.5623747 13
0.39796501 6.5960879 1.7740052 14
0.56401771 0.49157038 -0.21340135 0
0.5201816 -1.6059946 0.43105379 15
0.50090373 6.5416155 2.0158529 15
0.61558908 0.62361765 -0.22237262 0
0.69116873 0.82513267 -0.22567524 2
0.80710179 -1.5278022 0.18281607 11
0.72051382 -1.5948886 0.47248501 15
0.81740516 0.46056384 -0.23278405 1
0.82411355 0.6172533 -0.22304338 2
1.0282831 0.90040934 -0.23204534 3
1.2162262 -1.7521603 0.39376223 13
1.1781949 6.396811 1.3477496 13
1.2775153 0.046047118 -0.24360251 3
1.8947526 -2.9596729 0.20488709 9
1.9605719 -2.5571795 0.30556428 11
1.9071383 -2.6241553 0.43981805 12
1.9008763 6.2184968 1.1006107 12
1.9519891 6.2085338 1.5809537 14
2.1539788 -2.3468149 0.45081723 12
2.1801782 -3.1690905 0.97362739 15
2.0892243 6.1768351 1.2606711 13
2.2481067 -2.7154562 0.080533445 8.5
2.3628414 -2.3549507 0.089936472 9
2.376519 -2.6535726 0.21511972 10
2.398958 -2.3695292 0.72957057 14
2.3729842 -2.3960609 0.91764098 15
2.425741 -2.3274789 0.026920445 8
2.4569647 -2.0974333 -0.051111627 7
2.5284915 -1.9447407 0.2489517 10
2.5427341 -1.6512165 0.27960327 11
2.4687557 -2.2447977 0.3298918 11
2.4932938 -2.1358938 0.43104395 12
2.565661 6.071517 0.48004553 9
2.5313854 -2.0232835 0.55040437 13
2.563452 -1.6019895 0.59911782 14
2.4952662 3.1009064 0.96569383 14
2.6154699 -1.0502619 0.095116735 9
2.6999795 -0.95320624 0.032385241 8
2.7600722 -0.50410491 0.022775728 8.5
2.7363191 -0.49848321 0.20789368 10.5
2.6820955 -1.0732089 0.36543405 12
2.7819934 -0.76430005 0.41854501 12
2.7568209 -0.46032223 0.42256081 12.5
2.7056198 -1.0399201 0.67572349 15
2.7556586 -0.5058015 0.63259488 14.5
2.8168492 -0.22868335 0.67373252 15
2.8261244 -0.081520244 0.038785912 8
2.8312347 -0.046134897 0.20868815 10
2.8342488 -0.099391773 0.34291592 11.5
2.8180537 4.8847108 0.52142048 10
2.8814256 0.029466381 0.64368743 14
2.899956 0.11462978 0.77221286 15
3.3281934 5.7039552 0.034486949 7.5
4.1452537 1.8492982 -0.095460765 7
5.8715405 4.8680816 0.93186265 11
5.8591208 4.9961567 2.1253283 15
7.7409067 2.9735422 1.9321129 14
9.1713438 4.3283062 2.049305 13
