# .PCD v0.7 - Point Cloud Data file format
VERSION 0.7
FIELDS x y z intensity
SIZE 4 4 4 4
TYPE F F F F
COUNT 1 1 1 1
WIDTH 168
HEIGHT 1
VIEWPOINT 0 0 0 1 0 0 0
POINTS 168
DATA ascii
0.14343746 -0.96406561 -0.12274747 153
0.2695539 -0.97023904 -0.11833028 154
0.17142659 -0.85604841 -0.12543356 164.25
0.28325289 -0.85458422 -0.11970894 167
0.38729185 -0.83714259 -0.11590233 169.75
0.49719638 -0.83590692 -0.10501847 171
0.1970737 -0.75744855 -0.12813365 176
0.28264052 -0.74497122 -0.12683144 180.5
0.38744208 -0.7386061 -0.11922888 184.25
0.48339349 -0.73919207 -0.10692308 181.5
0.58667368 -0.77725273 -0.099517003 176
0.67831337 -0.72493315 -0.10552595 178
0.25010869 -0.65389168 -0.12495799 186.5
0.36501083 -0.63826966 -0.113561 188.5
0.47594073 -0.67328984 -0.1132934 189
0.55908799 -0.66823161 -0.10770496 184.8
0.64721382 -0.65099013 -0.10686181 186.25
0.74241734 -0.6402958 -0.10117688 199
0.24394901 -0.56020081 -0.1229925 186.5
0.35026145 -0.56651855 -0.11812507 186.71428
0.45933962 -0.57052642 -0.11039249 187.42857
0.55642569 -0.55110919 -0.10584667 189.10001
0.66936564 -0.56645745 -0.1085104 191.33333
0.75993693 -0.57030225 -0.10737893 193.57143
0.81395471 -0.58415806 -0.098915666 199
0.26982239 -0.48110384 -0.13802916 181.63637
0.35972545 -0.47548264 -0.13423285 180.91304
0.47500482 -0.45601273 -0.12503229 181.28
0.55899018 -0.45376962 -0.11245711 184.08333
0.65306145 -0.45830214 -0.10750226 187.89999
0.7441504 -0.45412961 -0.10133693 194.5
0.87118536 -0.46563771 -0.10762088 197.28572
0.29761609 -0.37680635 -0.14286773 174.58333
0.36847806 -0.36961091 -0.14013889 174.33333
0.4567914 -0.34968099 -0.13431863 175.04167
0.56180042 -0.36259511 -0.12820613 178.95653
0.65654457 -0.34627295 -0.11472254 183.42105
0.76492077 -0.36597684 -0.10687818 191.90909
0.85520774 -0.36262757 -0.10608166 195.66667
0.93395519 -0.35391846 -0.11524083 197.5
0.36200178 -0.24577834 -0.15597144 167.175
0.45441228 -0.25334543 -0.15019767 168.11111
0.56894541 -0.25924745 -0.13403989 175.19354
0.66860193 -0.26750267 -0.13011922 180.3158
0.7354036 -0.25037459 -0.11570268 187
0.8460151 -0.25951084 -0.10896677 193.36363
0.95018214 -0.27380905 -0.11589757 197
0.3756564 -0.16636069 -0.15986994 157.80302
0.43831536 -0.15289028 -0.16053727 157.06779
0.59864366 -0.18827139 -0.14298511 173.66667
0.6442771 -0.15896566 -0.13661844 175.97058
0.75805712 -0.15915652 -0.12397452 185.30769
0.87913573 -0.15236749 -0.11165655 192.88889
0.95243889 -0.14310394 -0.11470164 195
0.39786893 -0.023482211 -0.16812448 150.20689
0.46229795 -0.066137224 -0.1652462 162.4375
0.51714635 -0.071297705 -0.16243288 160.5
0.65962654 -0.083833918 -0.14005677 176.125
0.76743472 -0.088271022 -0.12890156 184.75
0.84608757 -0.10399904 -0.11669999 189.33333
-0.2293638 0.082878999 -0.19201836 154.5
-0.1412448 0.069511235 -0.19509548 156
-0.061396666 0.057422251 -0.20135808 171
0.10800794 0.068077452 -0.19684631 156
0.16763186 0.050390866 -0.18912888 147.48837
0.26429573 0.06090413 -0.18180558 150.47058
0.37322786 0.047610592 -0.17458038 153.73914
0.41788015 0.078669056 -0.17709377 162.33333
-0.63019466 0.1444079 -0.23364654 124.66666
-0.5256775 0.12840074 -0.22657189 139.75
-0.42371133 0.11276576 -0.21749221 153.25
-0.33067253 0.1410007 -0.18059659 151.16667
-0.24912879 0.15433522 -0.17839608 148.86667
-0.1376607 0.13598327 -0.19735332 155.16667
-0.03643566 0.13857 -0.20508657 172.64706
0.17759079 0.13097094 -0.19480309 146.76596
0.26038191 0.13949183 -0.18918368 150.375
0.36863196 0.12712546 -0.1810839 150.05682
0.42580017 0.13617827 -0.1795709 151.625
-0.32099849 0.28322563 -0.21711771 153.66667
-0.2256044 0.24277334 -0.20018649 156.57143
-0.11602449 0.2233337 -0.19434795 153.22223
-0.038892195 0.23472476 -0.20414644 164.41667
0.052694093 0.24791762 -0.20663993 174.23529
0.19061449 0.27146932 -0.11095633 143
0.27467424 0.21834238 -0.19054854 143.51428
0.35202867 0.21487173 -0.18385679 145.82759
0.44295156 0.24599385 -0.17800742 143.16667
-0.53108567 0.37082177 -0.240309 128.75
-0.42297426 0.32591179 -0.22996865 146.5
-0.31916693 0.3536692 -0.21715008 152.33333
-0.24195585 0.34843144 -0.21090156 154.60001
-0.12899187 0.33369571 -0.19022125 151.5
-0.030398302 0.31869262 -0.19741122 157.46666
0.055102404 0.332975 -0.2001081 167.16667
0.15999253 0.32976884 -0.19916441 173.36842
0.24576448 0.33051115 -0.18470782 169.66667
0.34847704 0.34337783 -0.14943501 166
0.45063648 0.33681861 -0.17439845 161.55556
-0.61878473 0.40681636 -0.24455558 120
-0.46624491 0.47762653 -0.24033558 135.33333
-0.36924526 0.42157862 -0.22657196 145.5
-0.10723796 0.44531012 -0.14290416 145
0.063103616 0.44664621 -0.15568984 147.66667
0.15845068 0.45155126 -0.16950238 164.39999
0.27246213 0.45979148 -0.18788986 178.3
0.35518447 0.45583266 -0.19289747 177.81818
0.46515772 0.44358173 -0.1841014 177.94737
-0.62029356 0.56496161 -0.2518681 113
-0.5406822 0.51905638 -0.24121355 122.66666
-0.22569762 0.57747447 -0.21705768 149
-0.086722635 0.57386965 -0.21269631 146
-0.058441021 0.53562808 -0.20030901 151
0.045660395 0.54119295 -0.20048551 153
0.14751181 0.54892349 -0.19641538 158.85715
0.26131201 0.53606355 -0.19709565 173.14285
0.37168488 0.54590362 -0.19008869 174.375
0.45573115 0.53676105 -0.18617478 175
0.51775485 0.55331266 -0.18759778 188.8
-0.31763935 0.67076921 -0.24433377 137
-0.26898605 0.62320215 -0.23577861 142
-0.13685477 0.63783246 -0.22521053 145.8
-0.0097436728 0.63503635 -0.21772739 149.2
0.08102987 0.64190251 -0.21340922 149
0.19264056 0.64543307 -0.21063201 155.39999
0.28080881 0.63487339 -0.20431364 162.66667
0.37024909 0.65083051 -0.20311649 165.25
0.45221257 0.64558744 -0.19839513 168.75
0.54125351 0.64962351 -0.19863221 193.2
-0.39520827 0.74150193 -0.24130239 122
-0.37019491 0.71978307 -0.24584177 125.5
-0.21994984 0.74123704 -0.23948392 137.5
-0.062812202 0.71965128 -0.22453003 145.5
0.04620757 0.75023001 -0.22179721 143.5
0.16348948 0.73979014 -0.21739742 148.2
0.2645373 0.72914797 -0.21159367 147.25
0.36579865 0.7301234 -0.20444772 151.2
0.45877662 0.73086435 -0.20124364 154.39999
0.55843711 0.73002762 -0.20197573 191.33333
-0.30493146 0.84446365 -0.24782187 124
-0.27506813 0.80936086 -0.24779177 130
-0.12863341 0.82726949 -0.23788893 138.75
-0.0083027966 0.87165511 -0.23419896 137
0.018284941 0.81212288 -0.22774237 141
0.13376004 0.83813035 -0.22620793 138
0.24826385 0.82115883 -0.21770515 139
0.36186093 0.82107657 -0.20897187 140.66667
0.46659422 0.82562345 -0.20574477 166
0.57280427 0.79905748 -0.20393704 183.66667
-0.34366384 0.89168304 -0.25203806 119
-0.18695278 0.91751981 -0.2403077 129
-0.17464451 0.9009034 -0.24428108 130
-0.047660276 0.95437986 -0.23657693 130.66667
0.10301425 0.93623608 -0.23210885 136
0.1156951 0.89906782 -0.23262309 136
0.23040166 0.92921561 -0.22815055 135.33333
0.3607682 0.90866596 -0.22019893 135
-0.28412697 0.17104946 -0.10768687 133.39999
0.16459039 0.19174406 -0.020221099 120.5
0.25179538 0.19411896 -0.037101798 124.71429
0.31132236 0.18766059 -0.040774327 124.11111
0.018416777 0.23722896 -0.06508363 142
0.14076391 0.2481705 -0.063933186 130.66667
0.24463141 0.20617972 -0.033968683 130.7619
0.31739232 0.20917962 -0.044241782 131.60001
-0.0092894575 0.31753337 -0.021258067 134
0.21107425 0.31197503 -0.090003997 156
0.044968791 0.25714126 0.012242218 131
