# .PCD v0.7 - Point Cloud Data file format
VERSION 0.7
FIELDS x y z intensity
SIZE 4 4 4 4
TYPE F F F F
COUNT 1 1 1 1
WIDTH 110
HEIGHT 1
VIEWPOINT 0 0 0 1 0 0 0
POINTS 110
DATA ascii
-0.46575302 0.34335876 -0.23105825 0
-0.47507665 0.48259026 -0.24073716 0
-0.17694284 0.64053023 -0.22710441 0.33333334
-0.15854988 0.95873219 -0.24427061 2
-0.14070252 1.3568945 -0.26266438 3.6666667
-0.16661716 1.8103565 -0.29610014 4.3333335
-0.13265073 2.1937337 -0.32337201 5
-0.057432145 2.5726576 -0.34496686 5
-0.13258691 3.015403 -0.38260481 5
0.30683279 -2.5757296 0.13746141 7
0.33102977 -1.8287841 -0.050451476 4.1999998
0.28644934 -1.4876617 -0.080105707 3.4000001
0.31736702 -1.0090724 -0.11004612 1.8
0.31251711 -0.66466582 -0.12284563 0.33333334
0.21864168 0.65331745 -0.20625603 0.33333334
0.1976137 0.96805084 -0.22838175 2
0.2462343 1.3431714 -0.2393427 3.6666667
0.17377405 1.7863113 -0.27263361 4.4000001
0.21216786 2.2079911 -0.30065748 5
0.2938711 2.565629 -0.31555253 5
0.28433049 2.8237116 -0.33262083 5
0.27684134 -2.5785997 0.21300755 7
0.59644055 -1.7916583 0.0090785669 4.8000002
0.65445709 -1.3916898 -0.061755843 3.25
0.60384518 -0.9876399 -0.088905454 2.2857144
0.61412168 -0.63069278 -0.10338886 1.1428572
0.66726804 -0.23008345 -0.12451114 0.33333334
0.47078258 0.34832111 -0.17191263 0
0.48896796 0.60124129 -0.1915509 0.5
0.54845911 1.0084519 -0.21709614 2.4000001
0.59534907 1.3416421 -0.22209378 3.6666667
0.65431643 1.7469796 -0.23431423 4.6666665
0.5840497 2.2611828 -0.27222636 5
0.62409806 2.6756098 -0.30665997 5
0.67170644 3.2460423 -0.33539563 6
0.70705801 3.6584814 -0.35847226 6
0.58165187 -2.2514935 0.22518107 7.5
1.1761161 -3.0803883 0.053173114 5
1.0897321 -2.7464905 0.033524826 5
0.95837623 -2.2272367 -0.0048999465 4.5
0.96457028 -1.8416851 -0.022145096 4
0.97057056 -1.3747798 -0.049384307 3.6666667
0.97163546 -0.97194767 -0.072523482 2.8571429
0.99818701 -0.60642803 -0.094459236 2.1111112
1.0319396 -0.25655374 -0.10655337 1.875
0.87028748 2.210701 -0.25392184 5
0.93889779 2.5276287 -0.26957795 5
1.019114 2.9038012 -0.28520682 6
1.0897571 3.2337606 -0.29959479 6
1.2100817 3.7757208 -0.33360666 6
0.94999897 6.0366096 -0.58858514 6
1.4425292 -4.1061883 0.11083699 5
1.2929701 -3.5294185 0.077793494 5
1.5185542 -2.8271763 0.048845891 5
1.2629832 -2.1931791 0.0082879867 5
1.412015 -1.8386654 -0.0017872568 4.3333335
1.355173 -1.4351648 -0.024088392 4
1.3721616 -1.0439212 -0.036380794 4
1.3867192 -0.63475287 -0.063504986 3.4285715
1.3703221 -0.26869014 -0.089598276 2.8
1.8598374 -3.674046 0.10328247 5
1.6641797 -3.1890807 0.072703749 5
1.8265537 -2.5749464 0.050200395 5
1.9803776 -2.1589036 0.043170776 5
1.7966367 -1.7561635 0.015558821 4.6666665
1.7882668 -1.368018 -0.00066992664 4.3333335
1.8024838 -1.0381643 -0.012387867 4
1.8091563 -0.60229856 -0.029355362 4.1999998
1.9315896 -0.32103163 -0.034952167 4
1.774305 6.1625342 -0.56640393 6
2.1822433 -4.465672 0.14500667 5
2.1257536 -3.1056149 0.086477324 5
2.3052661 -2.0248094 0.055048924 5
2.3914385 -1.6518604 0.036315337 5
2.2073004 -1.3126359 0.0094735883 5
2.2186882 -1.0035756 -0.00600051 4.5
2.0124438 -0.54798156 -0.014834789 5
2.1562889 -0.36605233 -0.017907456 5
2.3986065 -3.590414 0.12096281 5
2.7607405 -3.2058165 0.12302385 5
2.4234252 -2.7536285 0.089275561 5
2.4679253 -2.2194092 0.14160709 5.5
2.7343128 -1.9533634 0.14837182 5.5
2.4187727 -2.2404356 0.34884831 7.5
3.0902631 -6.7879958 0.3696917 6
2.9018319 -4.4754992 0.16978109 5
3.1103756 -3.6899078 0.19203976 5.5
2.8100567 -2.0309219 0.21575986 6
3.140636 -1.2991439 0.049554847 5
2.8761165 -0.83510315 0.081954278 5.3333335
2.9531462 -2.8356786 0.50422406 8
2.7947891 -2.0883188 0.48633495 8
2.8968575 -0.85712081 0.28212452 7
3.2487187 -3.0132039 0.14668632 5
3.3145835 -1.8741784 0.17765079 5.75
3.4119956 -0.61807615 0.089586295 5.5
3.6738284 -5.9627223 0.45638153 6
3.6604652 -2.7259312 0.28793806 6
3.801373 -8.8862638 0.86860788 7
3.8299932 -4.8646636 0.72864586 7.5
4.2032199 -9.6611395 0.67592317 6
4.0125747 -4.9811425 0.46318978 6.5
4.0106344 -7.088026 1.3612189 9
4.4879498 -1.9426818 0.250112 6
4.8772445 -2.1091621 0.15535823 5
6.072854 -2.7007306 0.4937261 6.5
6.9100666 -5.3944983 0.61344373 6.5
7.0695014 -4.2581453 0.56133157 6
7.0678458 -4.3283529 0.94060737 7.5
7.3200908 -5.7767448 0.83167601 7
