# .PCD v0.7 - Point Cloud Data file format
VERSION 0.7
FIELDS x y z intensity
SIZE 4 4 4 4
TYPE F F F F
COUNT 1 1 1 1
WIDTH 134
HEIGHT 1
VIEWPOINT 0 0 0 1 0 0 0
POINTS 134
DATA ascii
-5.4358625 4.1641893 0.42700684 11
-5.5639024 3.5402329 0.93879253 13
-5.4002995 4.557312 0.66239244 12
-5.3546834 4.5208764 0.84605134 13
-5.3960094 3.002821 1.2255098 15
-5.411818 4.4836392 1.2741846 14
-5.0143909 2.522613 -0.1446657 8
-4.8847976 1.8733414 -0.20010281 8
-4.9828801 2.344523 -0.30580288 7
-4.9086747 3.7405143 -0.44747457 7
-5.0049958 2.3685539 -0.052586716 9
-4.9125285 2.0243294 0.74110615 13
-4.865869 -0.76450914 1.0668228 14
-4.6685991 -1.7551236 -0.11839026 7
-4.6740947 -1.1573782 1.1602372 15
-4.7341847 1.077029 1.0455871 15
-4.7695045 4.5731082 1.2638297 15
-4.6329842 -2.0901284 0.9227795 13
-4.6193748 -1.5492405 1.0379503 14
-4.5371447 -2.327873 1.203657 14
-4.6281419 -1.6127042 1.1699367 15
-4.5900993 -2.185488 1.3734695 15
-4.2037163 3.8945892 -0.33412537 8
-4.2677221 4.7224278 0.58078837 12
-4.2886062 -3.3172622 1.274321 14
-4.0174551 4.0565791 -0.046381 9
-4.2746429 -3.3285923 1.5662929 15
-4.1113257 4.7340803 1.0420967 14
-3.6468415 5.2762022 0.085987441 10
-3.5722647 4.2035556 -0.23484196 8
-3.5882812 5.302206 -0.020714864 9
-3.3880599 5.1046133 0.7587148 13
-3.0800209 -2.6083128 0.080715373 7.5
-3.1645272 -2.6296754 0.26312664 9
-3.2368364 5.3838844 1.3931974 15
-2.968713 -3.0521662 0.14317478 8
-2.8193252 -0.62811333 0.15717877 9.5
-2.8696558 5.1881819 0.62721258 12
-3.0668612 -3.0346768 1.3060827 15
-2.8637285 5.2046547 0.93858778 14
-2.8573833 5.560142 0.75169897 13
-2.7728179 5.1917758 -0.12306634 9
-2.7876582 -0.61653346 0.39683184 12
-2.6525674 -2.6930242 0.66580421 12
-2.7910414 5.2018285 0.24886258 10.5
-2.3365123 -2.8991036 0.17243892 8
-2.3634675 -2.8935151 1.0041614 14
-2.0476627 -2.7917466 0.49111977 11
-2.2079146 -2.8406072 1.1128577 15
-2.0673351 5.6845145 0.594657 12
-1.809285 -2.7647059 0.58640206 12
-1.6965979 5.7940984 1.1695398 15
-1.4708494 -2.3481259 0.23088731 9
-1.5548474 -2.0203359 0.22319952 9
-1.543448 -2.6716468 0.47858432 11
-1.3112832 -2.6299903 0.32564533 9
-1.1853626 -2.5622542 0.21301839 8
-1.2203071 -2.6126156 0.40568551 10
-0.86139262 -2.5394194 0.53167886 11.5
-0.81582308 5.9279027 0.089700691 9
-0.75675869 -2.441963 0.28789535 9
-0.75901079 -2.4308991 0.35068485 10
-0.71047807 -2.4595804 0.81691903 14.5
-0.44880676 -2.4034815 0.23799616 8
-0.60914248 6.0436783 1.2233866 15
-0.3819254 0.65413755 -0.2833322 0
-0.2758891 -2.364032 0.24339534 9
-0.35524529 6.044229 0.16597711 10
-0.29220513 -2.32146 0.79105437 15
-0.4295069 6.0552845 0.65346968 12
-0.10986823 0.71054232 -0.25285214 0
-0.10462452 0.96239018 -0.27941293 1
-0.14695358 -2.4426568 0.48186299 11
-0.17040816 -2.3506467 0.5466702 12
-0.068527743 -2.4124496 0.88212776 15
0.14543244 0.6858868 -0.2381115 0
0.17485617 1.0142688 -0.26256186 1
0.30909309 6.2601614 0.77377427 12
0.40394315 6.2564883 0.48847628 11
0.672961 -0.93598849 -0.074410595 3
0.83292282 -0.72553998 -0.05699157 3
1.1415163 4.3295741 0.31540224 10
1.1047692 4.4631023 0.40422186 11
1.026216 4.7674055 0.56288517 12
1.10646 4.308156 1.1299487 15
0.98860234 4.8612504 0.97924465 14
1.2859749 3.6856599 0.39852673 11
1.2285638 3.8601372 0.61528814 12
1.2760787 3.5851719 0.68864614 13
1.2177321 3.8751714 0.80530828 14
1.5101255 -1.9123911 0.47550184 10
1.4901187 2.9082944 0.29770133 10.5
1.4511179 2.9443352 0.4705393 12
1.382881 3.2806509 0.312702 10
1.4296385 2.9578629 0.5565722 13
1.4268824 2.9512868 0.80383545 15
1.6828314 2.9946501 0.75256461 14
1.849975 -0.69549805 0.33119878 10
1.9828405 2.9554811 0.25688559 9.5
1.8231833 2.993365 0.40053648 11
1.8333457 3.011673 0.57178068 12
1.8572042 3.0140631 0.88519734 15
2.0304587 -0.56478637 0.65378994 14
2.1065526 2.8250079 0.40351248 11
2.1919589 -1.7352654 0.39647672 9
2.3218093 -1.5481184 0.36083296 9
2.277127 3.1322491 0.8180244 13
2.3602393 -6.9084806 0.94692194 9
4.1464438 4.1105695 0.72753978 11
4.302979 3.3763869 0.11328527 7
4.2861753 3.2153435 0.26678002 8
4.2390003 3.8667741 0.27744436 8
4.2273779 3.5011227 0.4503749 9
4.3576579 -0.0062489021 0.89450073 11
4.2516294 3.3042638 0.68198329 10
4.3044372 0.62796336 1.0030935 12
4.2468295 3.3055296 0.85238099 11
4.1837006 3.4306245 1.0255917 12
4.1495476 3.5647895 1.1998678 13
4.1889429 3.3222535 1.584885 15
4.1403136 3.5756683 1.4559276 14
4.5598884 2.5089948 0.42687374 9
4.5116353 2.4629159 1.3615857 14
4.3756185 3.1997335 1.3073461 13.5
4.4935312 2.5131454 1.5173362 15
4.7254825 1.8129801 0.87701845 11
4.6089187 2.141125 0.95696837 12
4.6763926 1.7497388 1.3049258 14
4.6480865 2.1100461 1.2459823 13
4.7815299 1.3328722 1.1375067 13
5.0255213 0.46960413 0.38315102 8
5.0213652 0.47388369 0.52166599 9
5.0042353 0.59890294 0.88988447 11
6.1661906 -4.3355269 2.7086978 15
