# .PCD v0.7 - Point Cloud Data file format
VERSION 0.7
FIELDS x y z intensity
SIZE 4 4 4 4
TYPE F F F F
COUNT 1 1 1 1
WIDTH 111
HEIGHT 1
VIEWPOINT 0 0 0 1 0 0 0
POINTS 111
DATA ascii
-0.41427055 -1.1673875 -0.25431675 1
-0.45640245 1.1177862 -0.19506277 2.5
-0.47370777 1.3767188 -0.1915307 3.3333333
-0.16398448 -2.5713227 -0.30487201 4
-0.17573409 -2.1429732 -0.28339908 3
-0.17890355 -1.8288697 -0.26666161 3
-0.20653065 -1.4154798 -0.24608734 2.2
-0.14554316 -1.0218269 -0.2311687 0.83333331
-0.19143367 -0.75132954 -0.22787698 0
-0.14667651 0.72316837 -0.19224058 0.25
-0.19983329 0.98385239 -0.18680152 1.7777778
-0.18326864 1.3804367 -0.16905606 3.5999999
-0.221341 1.7848252 -0.16310304 4.25
-0.21087883 2.2319987 -0.15563458 5
-0.2972683 2.5646396 -0.15692517 5
0.1361672 -2.8178592 -0.22276598 5
0.1767593 -2.5317061 -0.27880213 4
0.20722514 -2.1451886 -0.26260796 3.5
0.1671377 -1.7268611 -0.23999436 3
0.1702645 -1.3871249 -0.22312906 2.5
0.19047846 -0.98427945 -0.21371368 1
0.26228729 -0.6401338 -0.20262347 0
0.24903823 0.63642514 -0.16256514 0.625
0.23347631 0.90434086 -0.13163036 2.909091
0.1526904 1.3477958 -0.14680582 3.8333333
0.13708858 1.832268 -0.1347106 5
0.094301984 2.1686935 -0.13171318 5
0.51140618 -2.8561609 -0.24186948 5
0.51429725 -2.7923887 -0.26271877 4
0.63207126 -2.2194092 -0.24196334 4
0.58395201 -1.7899801 -0.22157919 3.75
0.60895681 -1.3835633 -0.20123386 3.2857144
0.56690794 -0.96133584 -0.19577266 2.0999999
0.56203455 -0.62681657 -0.19030459 0.89999998
0.62514246 -0.25062791 -0.16643938 0.5
0.62705344 0.3071951 -0.14988455 1.1666666
0.60653037 0.56952995 -0.14248444 2.090909
0.58818847 0.97400367 -0.13182341 3.6666667
0.56071258 1.4251381 -0.1205809 5
0.6230436 1.9076132 -0.10269053 5.5
0.65684342 2.1777239 -0.088555254 6
0.69612896 2.4783821 -0.079100199 6
0.75601441 2.9018769 -0.082931511 6
0.66458005 1.0816272 0.038851295 7.6666665
0.86886066 -2.8325567 -0.17140512 5.5
0.96844167 -2.6174634 -0.24136589 4.6666665
1.0934178 -2.2553616 -0.22201724 4.5
1.009851 -1.8009576 -0.20675653 4
1.0160878 -1.3875608 -0.18450017 4
0.9819172 -0.98713815 -0.17366798 3.5714285
1.0028681 -0.60864848 -0.16944143 3
0.86337453 -0.36117977 -0.16249973 2
0.95692778 0.64339739 -0.12711033 3.8333333
0.98614258 0.98682642 -0.1181994 4.5
1.0308907 1.3912386 -0.10045393 5.4000001
1.1553438 1.90288 -0.081906587 6
0.8219651 3.3794737 -0.081286415 6
1.2651438 -2.8469813 -0.17099379 5.5
1.5897202 -2.6053691 -0.21481976 5
1.4061109 -2.2085783 -0.21394266 5
1.3576748 -1.7156962 -0.19006723 4.6666665
1.3424726 -1.3382547 -0.17241642 4.5
1.4046341 -0.97839737 -0.15674679 4.4000001
1.3193586 -0.72631681 -0.15310036 4
1.3456728 1.0405396 -0.095677793 5.3333335
1.3303504 1.3950738 -0.085781693 6
1.447867 1.7096058 -0.074340478 6
1.2998891 2.2545815 -0.067699365 6
1.693681 -2.8787766 -0.12802598 6
1.9628237 -2.5142996 -0.19616 5
1.7341583 -2.153089 -0.1910716 5
1.7796563 -1.7076325 -0.17125554 5
1.7800488 -1.4469539 -0.16243567 5
1.7954652 -1.0462587 -0.14530458 5
1.7748286 1.4379169 -0.06623175 6
1.8217368 1.7614894 -0.055935424 6
1.7679578 2.2180479 -0.048146099 6.6666665
2.1398432 -2.8330114 -0.10345459 6.5
2.1454444 -2.1520483 -0.17023368 5.5
2.2534413 -1.7785407 -0.15377869 6
2.2144365 -1.3529885 -0.1437985 5.5
2.1211042 1.793046 -0.044766389 7
2.1441834 2.34547 -0.02922255 7
2.0820549 2.9974322 -0.015908023 7
2.0863719 -2.8462064 0.139209 8.5
2.3504493 3.4673536 0.0044150003 7
2.4607916 -2.5350697 -0.16970247 6
2.6591332 -2.1633728 -0.14449236 6
2.7144237 -1.7277337 -0.091229804 6.5
2.487895 2.1711671 -0.014583618 7
2.7476125 -1.7932482 0.1492271 8.5
2.5696826 2.9125218 0.011613757 7
2.5931263 3.8985238 0.036619846 7
2.8719018 -3.051877 -0.11140624 6.5
3.138464 -3.496171 0.28635103 9
2.8689451 -3.1132274 0.10266398 8
3.0911477 2.7916179 0.02960198 7
2.8991699 3.3502719 0.039287362 7
3.1086152 -3.5235026 0.49575418 10
3.4744976 -2.3634958 0.37430939 10
3.5417001 3.2549686 0.062430833 7
3.4350591 4.0591698 0.07529515 7
3.9798667 -3.488622 0.20118943 8.5
4.0866227 -3.5098343 -0.14491171 6.5
4.2081733 3.93958 0.10796765 8
4.0237846 6.5035982 0.36554879 8
4.0046806 6.5054855 0.44189081 9
5.0133424 -3.5208919 0.56003875 10
5.1366377 6.4608779 0.63072968 9
5.0588899 6.4579701 0.9176144 10
5.2104745 6.4579482 0.34141517 8
