# .PCD v0.7 - Point Cloud Data file format
VERSION 0.7
FIELDS x y z intensity
SIZE 4 4 4 4
TYPE F F F F
COUNT 1 1 1 1
WIDTH 105
HEIGHT 1
VIEWPOINT 0 0 0 1 0 0 0
POINTS 105
DATA ascii
0.5090487 -0.84901035 0.0078366492 183
0.48997378 -0.73773354 -0.021900047 193
0.50004518 -0.79478985 -0.0084144548 189
0.63031882 -0.77500349 -0.0213324 178
0.48323458 -0.69642174 -0.034949403 193.5
0.57337564 -0.70224994 -0.035875946 193.8
0.66239017 -0.68873197 -0.039697275 167.25
0.74580711 -0.65505618 -0.056342371 160
0.46344545 -0.59072667 -0.052968044 189.75
0.53630847 -0.58548248 -0.05942646 190.33333
0.60883385 -0.57259464 -0.06512057 191.8
0.73594671 -0.58315635 -0.073441148 166
0.79727131 -0.5805968 -0.072580077 161
0.44743794 -0.49443346 -0.081157759 184.625
0.5264104 -0.47501364 -0.083866909 184.88235
0.63587356 -0.49191132 -0.083279587 182.36363
0.72536492 -0.49177793 -0.091843978 172.2
0.8443436 -0.4920637 -0.10065681 166.83333
0.44637764 -0.3784073 -0.11597802 174.86363
0.54616565 -0.38856483 -0.11751945 178.61111
0.63593656 -0.3855314 -0.10818752 179.10527
0.75088483 -0.38833725 -0.10886779 171.18182
0.84876877 -0.41494268 -0.11712465 170.5
0.91634536 -0.3727825 -0.13380209 168
0.46003634 -0.33416331 -0.13372371 170.2
0.54455352 -0.3029632 -0.14073576 174.58621
0.64558691 -0.30241567 -0.14111648 175.08696
0.73064423 -0.28534898 -0.12987807 162.26666
0.8385691 -0.2953389 -0.13788952 169
0.9368518 -0.30114445 -0.15075381 166.60001
-0.31900519 -0.14487778 -0.14541134 193
0.42852482 -0.15520747 -0.18431865 169.5
0.57823598 -0.23579769 -0.16361508 175
0.63321114 -0.20314363 -0.17197256 174.73334
0.72814274 -0.19343568 -0.16188601 156.6207
0.83669037 -0.20803881 -0.15973201 164.75
0.95715779 -0.19226138 -0.1848679 164.85715
-0.3251757 -0.064559236 -0.16912358 193.33333
-0.25173137 -0.10756548 -0.15750913 190
-0.20005241 -0.096250951 -0.16370296 189
-0.086612441 -0.097356655 -0.17419483 181.375
0.12726337 -0.080975868 -0.18903229 167.55556
0.45198837 -0.11030163 -0.19732058 169
0.65194064 -0.11114884 -0.20150609 175.37038
0.74268013 -0.098843522 -0.1895498 153.7
0.83614719 -0.11159392 -0.18468669 160
0.94502026 -0.091913126 -0.20501027 141.66667
-0.32274276 0.01577531 -0.19100496 193.66667
-0.24638717 0.0084854895 -0.1889827 189.5
-0.20009379 0.0030723438 -0.19126789 188.66667
-0.079015397 0.015234992 -0.20428438 180.5
0.14119001 0.0034336357 -0.21102548 167.75
0.65270793 -0.027452549 -0.22556131 175.2
0.74803007 -0.012006946 -0.21341495 153.72223
0.83662707 -0.0017471386 -0.21814498 160.41667
0.93989968 -0.009700818 -0.23294912 163.57143
-0.31710023 0.096236818 -0.21371764 193
-0.25697148 0.082850948 -0.21222693 190.5
-0.18179756 0.11250602 -0.22108318 188.22223
-0.045618489 0.11502685 -0.23365256 180.5
0.17345372 0.081524543 -0.23467414 168.7
0.23665324 0.10607173 -0.24248572 168.51515
0.31956768 0.12837408 -0.2391548 164.46153
0.97167748 0.042022768 -0.25461942 162
-0.25230026 0.20330198 -0.23308612 194.16667
-0.15351333 0.19794928 -0.24788052 188.75
-0.071052782 0.21813512 -0.25107881 185.57143
0.02315863 0.20972066 -0.25435793 181
0.11549268 0.2137844 -0.24172761 174.5
0.22839811 0.16996993 -0.24400796 168.63637
0.34428883 0.16492501 -0.24973281 166.75
-0.2541582 0.24660629 -0.25848678 194
-0.08897315 0.28385076 -0.23689896 191.5
0.019996647 0.31466752 -0.25036576 188
0.14941929 0.29718855 -0.26826531 181.625
0.25723049 0.29448295 -0.2851133 178.8
0.32900983 0.29660663 -0.29274768 178.60001
-0.15366501 0.37804398 -0.27888978 196
-0.050172526 0.38685 -0.29798549 192
0.046510994 0.38449559 -0.30556694 189.375
0.1464792 0.40566206 -0.31357026 188.72728
0.2532056 0.40266448 -0.31785914 186.8
0.3133595 0.41831505 -0.32230392 187.60001
-0.059630141 0.45661974 -0.32221597 195
0.041902974 0.46827787 -0.33052137 192.89999
0.14681752 0.47847536 -0.3353017 191.75
0.23249641 0.48022282 -0.33412114 191.28572
0.30538961 0.48220539 -0.33887693 190.66667
0.12953468 0.54741377 -0.35981008 194
0.21551721 0.54872745 -0.35744309 194
0.29683405 0.55373532 -0.3593646 194
0.1884484 0.65800053 -0.39461449 198
-0.013225762 0.1630197 -0.053686373 151.33333
0.083327472 0.1546597 -0.052855227 126.44444
0.1536749 0.15585214 -0.085274898 125.625
0.24811091 0.14876486 -0.11276092 124.425
0.30531931 0.13980004 -0.11683282 118.11111
-0.11209292 0.2115303 -0.060102884 153
-0.096080698 0.20065132 -0.07559374 160.66667
0.034044977 0.21307181 -0.11236697 177.39999
0.16703883 0.19009714 -0.11471117 164
0.22132987 0.2004108 -0.15432991 175
-0.016195772 0.16689317 -0.04067792 139.75
0.04677071 0.1818877 -0.031477846 142.89999
0.018920129 0.19791721 -0.047721703 166.5
