# .PCD v0.7 - Point Cloud Data file format
VERSION 0.7
FIELDS x y z intensity
SIZE 4 4 4 4
TYPE F F F F
COUNT 1 1 1 1
WIDTH 139
HEIGHT 1
VIEWPOINT 0 0 0 1 0 0 0
POINTS 139
DATA ascii
-5.0486917 4.4773641 -1.0022174 7
-5.037848 4.4168468 -0.86673272 8
-5.0008721 4.2678041 -0.49327782 9.5
-4.9898992 5.2129726 0.13076228 13
-5.0314369 5.8099422 -0.089002401 12
-4.931725 2.6820304 -0.43623939 8
-4.799644 2.0165892 -0.14066949 8
-4.9228339 2.729378 -0.29230472 9
-4.7826648 2.2742245 0.17583279 10
-4.9051275 3.1548698 0.039773591 11
-4.9259634 3.5480382 -0.10113312 10
-4.8757043 2.6969123 0.28450006 11
-4.9192967 3.5336404 0.1769824 12
-4.8807163 3.2640367 0.44468802 13
-4.9597459 4.3207026 0.081689887 12
-4.8543935 3.5274673 0.61374509 14
-4.9344692 4.1383009 0.3008697 13
-4.8782415 4.0520196 0.88934064 15
-4.9326701 5.5506611 0.67174774 15
-4.7875786 2.0683458 -0.01890452 9
-4.6884046 4.3708549 -0.28550562 11
-4.7706051 2.3666384 0.41966718 12
-4.7450261 2.2246675 0.61382192 13
-4.697907 2.1851702 0.88132656 14
-4.7156982 2.3211637 1.0703723 15
-4.573163 4.7283416 -0.62778485 9
-4.2147145 2.9843268 -0.47670957 8
-3.8556521 6.423202 0.31881163 15
-3.2830088 -2.5192976 2.0781298 14
-3.2320242 -2.2505305 2.0302134 15
-3.3400831 6.2217903 -0.54675984 12
-3.3546131 6.3542843 -0.014317221 14
-3.0834925 -3.3897147 1.9537271 12
-2.8609803 -3.5433543 1.75643 10
-2.766938 -3.7316322 1.1936073 7
-2.5687881 -2.8756678 1.821027 13
-2.7889302 6.1260924 -0.82160938 11
-2.7232707 6.3167624 -0.24423985 13
-2.7116642 6.4531736 0.23882064 15
-2.5111258 4.0559449 -0.6808539 9
-2.4740613 -2.7593167 2.0504701 15
-2.2637627 -3.5610664 1.5722467 10
-2.0026815 -3.4146895 1.9574643 13
-2.0812218 6.2022362 -0.85642076 11
-2.1394572 -3.3538389 2.1881452 14
-2.0442162 6.3867159 -0.20382363 13.5
-1.9736524 -3.6124287 1.3196701 8
-1.7727274 -3.6664534 1.1421136 7
-1.7593273 4.0778623 -0.73068982 9
-1.7180488 6.5673499 0.1893165 15
-1.462113 4.1215992 -0.68692261 10
-1.0360619 -3.5992064 1.1329997 7
-0.95447332 -3.5859268 1.1701472 8
-0.91068649 4.1567006 -0.7188037 10
-0.70639837 -3.4893374 1.4089577 10
-0.63074148 5.6484036 -0.77708471 11
-0.52672637 5.5528045 -1.0853804 9.5
-0.53558648 5.6918573 -0.70493001 12
-0.52967381 5.7908573 -0.33664459 13.5
-0.2412262 -1.1123474 0.70848125 15
-0.138106 -1.08209 0.13516468 2
-0.1319586 -1.1654896 0.65347701 13.333333
-0.06014755 -3.3175738 1.4245514 10
0.12031735 6.1221347 -0.35544008 14
0.29168239 0.5777123 -0.40690297 0
0.23187813 -0.68175745 0.44627976 15
0.33275664 5.7034516 -0.78000593 11.5
0.55960387 0.56461692 -0.40369561 0
0.58717412 -0.96385753 0.067622803 2
0.50668657 -0.86436987 0.31522486 9
0.59576982 6.0314498 -0.46678659 13
0.7034896 0.45157433 -0.38784847 0
0.61540586 0.58982658 -0.4208459 0.5
0.69673443 -0.64566642 0.41413033 13.5
0.6800282 6.0569053 -0.36278391 14
0.83529001 0.66396856 -0.45863435 2
0.80328828 0.88958991 -0.51420188 2
0.97993708 0.10003952 -0.2593109 2
0.81632531 -0.62548435 0.4623093 15
1.1600165 -0.63391173 0.34552157 11
1.0116605 -0.63734061 0.39157313 12
1.0995313 5.8292274 -1.0943309 10
1.2189286 0.053973593 -0.26478502 3
1.4076869 -0.63640487 0.30664942 10
1.2722759 -0.59844071 0.47311723 14
1.5181031 -0.60176313 0.38676971 12
1.5263301 -0.54979408 0.56445634 15
1.6137648 6.6747422 0.047818679 15
1.6723293 -0.62404114 0.28998667 10
1.7875147 5.6195345 -1.3048675 9
1.674911 6.139205 -0.34816861 14
1.9996102 -0.60749775 0.26201424 9
1.9467441 -0.56483042 0.41426286 11
1.8670206 -0.51012492 0.62036115 15
2.0291893 4.1787138 -0.96538216 9
2.1874762 -0.51526499 0.52322775 13
2.1128948 4.5166955 -0.87802202 10
2.0766923 6.3016963 -1.2689472 10
2.3067045 4.6104202 -1.3401222 8
2.2812092 -0.50981253 0.51351112 12
2.2998002 6.4374766 -0.8804484 11
2.3515708 6.1608024 -0.40003163 13
2.5872021 -0.52571076 0.40657446 11
2.4787939 5.981616 -0.70189178 12
2.8081422 5.4161654 -0.31723455 13
2.8010969 5.9301724 -0.22622354 14
2.8118205 5.1087418 -0.63436443 12
3.0224292 4.0934925 -0.16278139 13
3.0705452 2.9914765 -0.64224911 9
3.0369179 3.03826 -0.56247741 10
3.0067024 3.6126668 -0.69268352 10
3.058466 3.1570716 -0.33661807 12
3.072808 3.3038445 -0.19833897 13
3.1016524 3.2031484 0.073008589 14
3.0736375 3.283283 0.1885881 15
3.3441312 2.63994 -0.70099157 8
3.3438647 2.7479753 -0.64900857 9
3.3564708 2.843637 -0.49502489 10
3.3552105 3.1227095 -0.3173345 11
3.4158483 2.481334 0.17085584 14
3.3980515 2.5529125 0.034816045 13
3.3675108 3.0049796 -0.16018075 12
3.4022174 3.1790838 0.0082361894 13
3.5167065 -0.54737115 0.017037645 7
3.5142248 -0.5333333 0.13147444 8
3.4872658 -0.17960039 -0.057394132 7
3.443378 0.66841632 -0.30375865 7
3.410224 1.2457919 -0.45869425 7
3.4971642 -0.49197078 0.29113919 9.5
3.5530252 -0.38785708 0.51402736 11.5
3.5713842 -0.33338496 0.7461893 13
3.562017 -0.0757678 0.5889008 12
3.4366477 1.5487038 0.17150828 13
3.5189598 -0.32017374 0.83738762 14
3.46384 1.180691 0.42058504 14
3.4610798 1.3443238 0.50194108 15
3.4202816 2.0214443 0.10642575 13
3.5768604 0.09557502 0.91685081 15
3.5315945 0.91270214 0.69193226 15
