# .PCD v0.7 - Point Cloud Data file format
VERSION 0.7
FIELDS x y z intensity
SIZE 4 4 4 4
TYPE F F F F
COUNT 1 1 1 1
WIDTH 166
HEIGHT 1
VIEWPOINT 0 0 0 1 0 0 0
POINTS 166
DATA ascii
-0.4043088 -0.92141342 0.098161981 133
-0.23025781 -0.94478774 0.095640369 148
-0.079678848 -0.96901256 0.095138915 153.75
0.066189319 -0.90655804 0.13435462 209.66667
0.19231549 -0.91284478 0.135848 210.60001
0.20679115 -0.92279762 0.088209525 205.60001
0.3236838 -0.92054284 0.10883365 207.88889
-0.53073686 -0.83386421 0.070939049 155
-0.34878579 -0.86029434 0.077164933 142
-0.17005873 -0.86139846 0.061801266 164.25
-0.034243293 -0.88318622 0.06210576 162.66667
0.085144334 -0.90707523 0.081999227 209.60001
0.11008777 -0.85230917 0.047447152 187
0.22497374 -0.86269009 0.048961293 180.75
0.34027228 -0.85816759 0.04202728 177.75
0.45019495 -0.86041415 0.037732642 178.75
0.5543896 -0.82525229 0.030621141 175
-0.44446576 -0.75904471 0.047666211 155
-0.27719724 -0.78475219 0.045554426 159.5
-0.11233296 -0.7729882 0.039154056 172
-0.096259259 -0.75646162 0.023465341 176
0.014657713 -0.78407663 0.032662243 175.8
0.13923055 -0.76638019 0.020660056 183.60001
0.24375072 -0.76439852 0.018685615 182.39999
0.3441214 -0.76356632 0.015859921 185.5
0.43850356 -0.750404 0.012674935 187.75
0.54291934 -0.77360702 0.01320708 180.33333
-0.79210377 -0.63284135 0.015979584 138
-0.35867855 -0.68733585 0.020194679 164.75
-0.25273773 -0.67072076 0.012621746 174.25
-0.17116226 -0.66839117 0.0049811066 180.25
-0.042211153 -0.67439771 0.0014306275 184.16667
0.060671777 -0.69321984 0.0027667156 186.8
0.16712826 -0.68154329 -0.003403639 190
0.25980398 -0.66425157 -0.0026505874 189
0.34567815 -0.66089708 -0.0033179701 190.75
0.42971399 -0.66622072 -0.0071852962 191
0.52516961 -0.69618708 -0.010270547 190.39999
-0.73016942 -0.60339791 0.0029240719 147
-0.64284027 -0.55964643 -0.010910592 161.5
-0.59653372 -0.53802013 -0.021453602 169
-0.23731513 -0.58590031 -0.01866504 180.60001
-0.15181042 -0.59157175 -0.023529829 187
-0.077922776 -0.56146348 -0.024272546 189.33333
0.035812546 -0.57293725 -0.022726728 188.125
0.13722044 -0.59401423 -0.021598442 188.55556
0.24567799 -0.57389826 -0.024575844 187
0.34864354 -0.58328611 -0.024197496 187
0.43916309 -0.57959384 -0.030957425 187.375
0.50001937 -0.59421545 -0.032719333 189
-0.7841869 -0.46099138 -0.033713218 143
-0.53086632 -0.50531524 -0.032239586 177.5
-0.44951487 -0.46095198 -0.037747573 166
-0.12607402 -0.48422983 -0.0402551 188.25
-0.055396304 -0.49048719 -0.043684609 187.875
0.050963376 -0.46883115 -0.053861998 184.125
0.14692125 -0.49075767 -0.055551648 183
0.25211582 -0.5086416 -0.053242292 182.17647
0.34868139 -0.49432656 -0.06508448 180.64285
0.44294453 -0.4915435 -0.06453713 181.68182
-0.66844219 -0.4217265 -0.051420484 156.33333
-0.55148637 -0.38154623 -0.068146959 181.33333
-0.45963383 -0.35129687 -0.084221348 170
-0.36807442 -0.41053084 -0.03099975 148
-0.14119603 -0.38896823 -0.054933056 187.28572
-0.049998678 -0.3919785 -0.061272416 184.875
0.052606735 -0.39199516 -0.068220943 180.8
0.1582842 -0.39641082 -0.075392261 177.625
0.23550329 -0.39847815 -0.08958263 175.3
0.33738482 -0.40379494 -0.092077978 175.13043
0.43127546 -0.38471425 -0.10052394 175.75
-0.72279209 -0.2976836 -0.085133493 150
-0.65372485 -0.2832469 -0.093250535 164.5
-0.55746269 -0.26208937 -0.10195779 185.5
-0.44037524 -0.28743339 -0.098376073 176.5
-0.36175573 -0.31545436 -0.093172707 184.66667
-0.25701544 -0.27741161 -0.10344897 189
-0.17998388 -0.24780789 -0.10733498 185.25
-0.026722305 -0.26205769 -0.1138748 178.11111
0.039064351 -0.298087 -0.10351002 175.66667
0.13227846 -0.28475168 -0.095788039 169.5
0.20909457 -0.26720223 -0.12579848 161
0.3412011 -0.27721155 -0.13923702 167.9375
0.39849773 -0.27195033 -0.14447144 168
-0.73536032 -0.16624016 -0.12772648 155
-0.67576486 -0.16017036 -0.13025577 167
-0.5643121 -0.14941761 -0.13661675 187.5
-0.4221994 -0.23269299 -0.11499576 181
-0.32747453 -0.21045589 -0.11999 191
-0.25947165 -0.19565196 -0.12646362 187.28572
-0.16008653 -0.20619282 -0.12972869 182.90909
-0.063706376 -0.18383321 -0.14407526 177.5
0.037138134 -0.18896475 -0.057185333 169
0.1683445 -0.18422285 -0.1583173 161.2
0.24117534 -0.20449093 -0.14844657 162.3871
0.31426701 -0.200859 -0.15926035 159.72728
-0.44968611 -0.1381442 -0.14254135 175.33333
-0.33305761 -0.12531678 -0.14480908 190.25
-0.25747579 -0.11801155 -0.14904568 186.66667
-0.17007218 -0.11106052 -0.15807912 181.625
-0.082554951 -0.10391359 -0.16665804 177.16667
0.08449357 -0.12621352 -0.17357415 165
0.1513989 -0.10896548 -0.17415294 159.57777
0.20667018 -0.12641975 -0.17520875 160.88889
0.37017682 -0.063321002 -0.20019485 153.09091
0.3834677 -0.051158052 -0.20377998 151.39999
0.39535901 -0.055552699 -0.2073365 152.66667
0.63450629 0.0017820196 -0.22591062 152.87097
0.72773135 0.0057168701 -0.21898799 154.61905
0.83805174 0.0095426086 -0.21510363 163.5
0.94498903 0.019280471 -0.23630208 163.5
0.39360365 0.073999166 -0.23406436 154
0.57591951 0.093612529 -0.2551811 153.93333
0.63594741 0.081700608 -0.24954332 153.60715
0.72949791 0.086017534 -0.24047628 155.28
0.8316009 0.088758901 -0.24174902 163.89999
0.9513604 0.089339308 -0.26397485 161.5
0.45529497 0.20966029 -0.28633344 151.55556
0.53921503 0.17678958 -0.27647242 150.85715
0.6420688 0.18010585 -0.2741828 154.25926
0.73545939 0.18156889 -0.2655651 162.92308
0.83804059 0.17429264 -0.27364868 169.57143
0.93835425 0.17601518 -0.29093295 165.2
0.36199275 0.25223115 -0.29474774 158.75
0.44260022 0.25378105 -0.29748946 157.63637
0.55403054 0.27978441 -0.30556682 166.53334
0.63586009 0.27400768 -0.29866338 168.35715
0.73729855 0.2701782 -0.3027195 171
0.83225089 0.26953658 -0.31139627 172.33333
0.913607 0.25416777 -0.31360301 169.25
0.24590813 0.40818563 -0.33591008 183
0.34997228 0.40538403 -0.33918551 179.71428
0.44895968 0.37693229 -0.33484107 180
0.52257395 0.35813352 -0.32622689 176.75
0.63450879 0.37890676 -0.34035537 174.5
0.70251 0.33784747 -0.32665586 173.25
0.23152122 0.45853686 -0.34995207 177.66667
0.37790155 0.43007508 -0.34855279 178
0.44624078 0.42100418 -0.34972459 183
0.52054286 0.43618488 -0.35669202 174.5
0.59375465 0.4273209 -0.35424501 175
0.29807311 0.51970273 -0.37251815 174
0.0453334 -0.89241987 0.20038544 208.25
0.17336017 -0.88241333 0.2031685 208.42857
0.29324424 -0.88880181 0.21195419 208.71428
0.30680412 -0.90727609 0.16659574 209.66667
0.40892616 -0.88223839 0.21978877 208.33333
0.036617521 -0.86066818 0.24402362 208
0.17373542 -0.87336445 0.20457059 208.33333
-0.054061268 -0.25804693 0.0093448376 162.66667
0.045213547 -0.22248057 -0.017597463 171
0.14167571 -0.26001143 -0.024126664 170
0.1972941 -0.25602666 -0.033013262 159
0.083087832 -0.14091724 -0.0026911472 127.9
0.15937349 -0.16740784 -0.0054553677 127.73913
0.23578171 -0.17547594 -0.020324364 121.86364
0.022927577 -0.86552596 0.27865574 206
0.27266088 -0.85985893 0.28073323 208.14285
0.39246154 -0.86140382 0.27293193 209.14285
0.028451011 -0.84710407 0.27490559 206.25
0.15087909 -0.83907884 0.28514007 207
0.26469502 -0.84463471 0.30683434 206.75
0.3772876 -0.83851039 0.31951696 207.25
0.084225692 -0.14968315 0.059429128 129.39999
0.25323409 -0.83190793 0.34565169 205
0.36558226 -0.8245427 0.35794115 206
