# .PCD v0.7 - Point Cloud Data file format
VERSION 0.7
FIELDS x y z intensity
SIZE 4 4 4 4
TYPE F F F F
COUNT 1 1 1 1
WIDTH 534
HEIGHT 1
VIEWPOINT 0 0 0 1 0 0 0
POINTS 534
DATA ascii
-14.144199 -3.3890963 4.8444667 13
-13.822875 -3.098176 3.8912456 12
-11.84673 -3.4033675 4.2703547 13
-11.395618 -3.4836636 3.8386374 12
-11.316324 -3.3019447 4.4595723 14
-11.119823 2.204618 2.9987295 15
-11.065928 2.3987153 3.3233547 15
-10.94173 -3.4114797 4.0469451 13
-10.876879 -0.78107041 3.8192985 15
-10.679995 -2.8676195 4.7422009 15
-10.834799 -0.70357549 4.0527596 15
-10.873199 -0.32562935 3.9906833 15
-10.513616 -3.4815831 3.639807 12
-10.38267 -3.2734392 4.1944108 14
-10.135863 -3.4107001 3.8462908 13
-10.065076 -3.0852301 4.4811072 14.5
-10.052678 -2.8795497 4.7141352 15
-9.3856363 -2.9155052 4.4754267 15
-8.750639 2.1516929 2.3450165 15
-8.7913933 3.2460914 2.0076773 15
-8.625659 -0.84447432 3.3516212 15
-8.086935 -3.8313327 1.7305839 8
-8.2430143 -3.8017325 2.0108798 9
-8.2431345 -3.7570672 2.2844777 10
-8.0864305 -3.3470612 3.598804 14
-8.0960226 -3.1939602 3.9449778 15
-8.2606411 3.0109217 2.0572534 15
-7.6748028 -3.6782768 2.423203 10
-7.7005181 -3.5931501 2.726578 11
-7.7811251 -3.4260092 3.2781892 13
-7.6119952 -3.3471594 3.47136 14
-7.7193689 -3.2499535 3.8348184 15
-7.4719944 -3.4877121 2.9758506 12
-6.7832389 -1.5013295 1.1384851 9
-6.8782215 2.3549798 1.7920979 15
-6.72084 -1.5399511 0.98619598 8
-6.5481696 -3.3394294 1.9707012 10
-6.4196076 -1.8240693 1.4102325 10
-6.4483986 -3.2452352 2.2394927 11
-6.4353757 -2.9905534 3.0402825 14
-6.4681029 -2.8889503 3.3148055 15
-6.6969075 2.6221995 1.6986642 15
-6.1288691 -3.1333177 1.4690983 8
-6.2324557 -1.5310009 1.1012096 9
-6.1587195 -3.3187082 1.9192628 10
-6.3503504 -3.0941098 1.661108 9
-6.1729064 -3.2337499 2.1973476 11
-6.0955038 -2.9959838 2.9535851 14
-6.1586843 -2.9217989 3.2217226 15
-5.6675167 -3.5910192 1.5611269 8
-5.7500548 -3.1966147 1.3556755 7.6666665
-5.7464466 -3.6986706 1.7511775 9
-5.8089223 -3.0848439 1.6080656 9
-5.6187534 -3.5830977 2.2938018 10.666667
-5.6091847 -3.4648499 2.684263 12.5
-5.7201676 -3.1675565 2.6096261 12.5
-5.5467811 -3.3739977 2.949182 14
-5.6509004 -3.0371215 3.0924017 14.666667
-5.613893 2.2828584 1.2708222 15
-5.4070539 -3.8614106 1.3173813 7
-5.3896394 -3.7952173 1.5521898 8
-5.2819262 -1.8115 0.88594967 8
-5.5088773 7.0317674 -1.4915185 8
-5.5279393 -3.7438667 1.7419034 9
-5.3377624 -3.5334651 2.3526194 11
-5.4027719 -1.7788067 1.8001559 11.666667
-5.1781774 -1.382829 1.5529541 12
-5.3089728 -3.4533205 2.6171136 12.5
-5.2661524 -3.3308189 2.9652936 14.5
-5.2013373 7.6598129 -0.22213846 12.5
-4.827631 -3.7780805 1.4833163 8
-5.0040817 -2.6651814 1.153366 7.5
-5.1234255 -2.5292146 1.2267354 8
-4.7895799 -1.8984652 0.90013719 8
-5.0693994 -1.5546228 0.93707621 8.333333
-5.092576 -1.3807938 0.89426625 8.5
-4.8348303 2.2394741 -0.22213693 8.25
-4.8947549 2.5936191 -0.34381086 8.5
-4.872354 2.8424823 -0.38447541 8.5
-4.9211764 3.3627722 -0.38492647 9
-4.991425 3.8002217 -0.6310966 8.3999996
-4.9601521 4.1874561 -0.77179432 8
-4.9095249 4.5095038 -0.94159502 7.75
-4.9449868 -3.6509178 1.9715353 10
-4.9142957 -1.5604886 1.1875627 9.666667
-5.0779862 -1.3558844 1.1376017 10
-4.7985706 -0.87123156 1.265733 12
-4.7944136 2.3435233 0.058534123 10
-4.8881383 2.6701298 0.012745228 10.2
-4.9104743 3.0487149 -0.028280156 10.25
-4.9338264 3.4315414 -0.11089617 10.4
-4.9730749 3.8321233 -0.34183076 9.666667
-4.9209075 4.1994066 -0.4064104 9.75
-4.9462137 4.5553126 -0.5607031 9.3999996
-5.0404625 5.1561613 -0.51927292 10
-5.0712285 5.7287364 -0.71510166 10
-5.005641 6.0784268 -0.96853518 9.333333
-5.0905008 -3.5978129 2.2104523 11
-4.7709312 -3.5371799 2.1307831 11
-5.1354914 -1.2588671 1.6518059 12.5
-4.967104 -1.0266097 1.4825399 12.25
-4.8523436 -0.83633655 1.2924875 12
-4.7833281 2.5072598 0.35103917 11.5
-4.8648019 2.8276973 0.41355091 12.166667
-4.888907 3.2078006 0.32038811 12.166667
-4.9076018 3.5580797 0.22925541 12
-4.9387264 3.9401531 0.076533012 11.5
-4.9592619 4.3590598 -0.026195288 11.4
-4.9876051 4.8025904 -0.11382636 11.5
-5.019412 5.0785131 -0.29813564 11
-5.033011 5.4456878 -0.3639673 11
-5.0600181 5.8717999 -0.45026544 11
-4.9963379 6.1847062 -0.50098318 11
-5.1545391 7.396698 -1.0359093 10
-4.8397093 2.1286373 1.0283133 15
-4.761147 2.7584352 1.035706 15
-4.8207335 2.9174473 0.81757021 14.333333
-4.8341708 3.3039923 0.7159456 14
-4.8866081 3.6674769 0.47260419 13.333333
-4.8908768 3.9890192 0.51063401 13.666667
-4.9208722 4.4413719 0.40902606 13.5
-4.9661117 4.8417425 0.17352903 12.6
-4.9832559 5.115365 0.086592607 12.333333
-5.0096502 5.5895653 0.027203932 12.5
-5.0405068 6.0582638 -0.05603132 12.5
-4.9567351 6.346137 -0.084345765 12.5
-5.1570687 7.5130715 -0.73360175 11
-5.0538092 -3.3817329 2.939971 14
-4.8211555 2.94017 1.0310917 15
-4.8441978 3.3739491 0.96187234 15
-4.8593955 3.7657938 0.92589128 15
-4.8716273 4.1109667 0.81734401 15
-4.8931861 4.574398 0.81794369 15
-4.9163585 4.8785715 0.51138502 14
-4.9381137 5.3594999 0.54695082 14.333333
-4.9779143 5.6956668 0.3439393 13.5
-4.9730821 6.1055288 0.436645 14
-4.9874663 6.3716741 0.14826077 13
-5.1009011 7.6733556 -0.24108239 12
-4.9176145 5.0309577 0.8532877 15
-4.9389682 5.4110298 0.84344488 15
-4.9413047 5.8234572 0.6600306 15
-4.954813 6.1145358 0.64849931 15
-4.9464307 6.4902124 0.55872709 14.666667
-4.7698822 -3.8089244 1.3776013 7
-4.5384917 -2.0113778 1.0591516 8.5
-4.7613702 -1.5995605 1.008407 9
-4.6288342 1.8671108 -0.25238866 8
-4.7866664 2.1990294 -0.04380247 9
-4.6057343 2.9543045 -0.39960918 8.6000004
-4.6414852 4.5426502 -1.0356767 7.5
-4.6658797 4.8615952 -1.0230175 7.75
-4.5750141 -1.9194169 1.4117858 10.25
-4.5722551 -1.6253313 1.382617 10.666667
-4.5657349 -0.96414137 1.1953671 11
-4.4855399 -0.86484021 1.1040636 11
-4.7851844 2.2365482 0.065541595 10
-4.6537189 4.6534715 -0.5672642 9.666667
-4.6480203 4.9820304 -0.80869675 9
-4.638545 5.2054505 -0.86108631 9
-4.7194786 6.1521535 -0.80183041 10
-4.5843878 -3.4866967 2.3909023 12
-4.4066215 -1.8297952 1.603441 12
-4.7558436 2.4126813 0.55174851 12.666667
-4.7396703 4.3975391 -0.19254434 11
-4.7074661 2.2632778 0.96556365 14.666667
-4.7228789 2.5422907 0.91769361 14.5
-4.5777836 6.6793427 0.58281654 15
-4.1108308 -3.0003068 1.0966275 7
-4.3030214 2.9378939 -0.48776218 8
-4.306808 -1.0853364 1.1317278 11
-4.0203247 6.0912561 -0.80124629 10
-4.1007948 6.2125692 -0.54840523 11
-3.9523873 -3.4243245 2.419239 13
-4.0919747 6.3225727 -0.2275613 12.666667
-4.3145771 6.7895293 0.55089378 15
-3.6091521 -3.5638719 1.8738676 10.5
-3.6871288 4.0083323 -0.44242013 10
-3.6944392 6.0903797 -0.83640116 10
-3.705616 -3.4586935 2.2764831 12.333333
-3.5490565 -0.80926287 1.5536368 15
-3.7732244 6.1375132 -0.6392225 10.666667
-3.5285914 -3.34407 2.5726082 14
-3.7338622 6.2673998 -0.24377398 12.666667
-3.7638383 6.3751602 0.12228011 14.333333
-3.7171283 6.4956737 0.49803177 15
-3.3389053 -3.4922903 1.339671 8
-3.3341808 -3.2208312 1.2782949 8
-3.4157367 -2.0470946 1.0107584 9
-3.4249203 -1.20041 0.76922035 9
-3.4299443 -0.65920055 0.59748948 9
-3.3301578 3.7896793 -0.76578146 8
-3.2206507 3.9480035 -0.8425715 8
-3.3674636 4.4365492 -0.97104764 8
-3.5016098 4.8048997 -0.9389292 8.5
-3.3092847 -2.9661407 1.6576265 11
-3.308821 -2.5703175 1.5235453 11
-3.3359764 -2.2974756 1.3177507 10
-3.3756545 -1.9175439 1.4679573 12
-3.3675497 -1.3596648 1.3481158 13
-3.4092317 -1.17602 1.0862604 11.25
-3.5073652 4.0099115 -0.47825289 10
-3.2785656 4.0330424 -0.47905189 10
-3.3460827 6.1209617 -0.86527389 10
-3.2210283 -3.3675828 1.9646419 12
-3.247071 -2.4562531 2.0519681 14
-3.4271758 -1.6578754 1.6174061 13.5
-3.3821299 -1.3873843 1.4674695 14
-3.344038 -0.87079293 1.3797069 14
-3.3758917 -0.6972065 1.2868564 14.2
-3.4231606 -0.47370344 1.2318426 14
-3.3783858 6.1236067 -0.7867257 10.666667
-3.3368027 -3.3152163 2.4936948 14
-3.2296083 -2.8626127 2.2922347 14.5
-3.2159545 -2.49998 2.1696374 15
-3.2387288 -2.2790551 2.120471 15
-3.3298597 6.2743139 -0.28528541 12.5
-3.3724608 6.4227738 0.1332404 14.5
-3.5316203 6.5136609 0.47850856 15
-2.9291377 -3.6313477 1.3553034 8
-2.8488119 4.0615849 -0.84793431 8
-2.836319 4.7836657 -0.9862324 8.5
-2.9114029 -3.4681513 1.787787 11
-2.9936874 4.0686216 -0.4811188 10
-2.9125109 6.0918059 -0.85408461 10
-2.8420086 -3.3962133 2.1995265 13
-3.039963 6.1701984 -0.67256474 11.2
-2.8427124 -3.3438015 2.3747895 14
-2.9175818 6.2686167 -0.2788555 12.666667
-2.9512742 6.40626 0.10019804 14.5
-2.5581336 -3.7134695 1.1812441 7
-2.6152949 -3.6495867 1.3627928 8.1999998
-2.629838 -3.0438514 1.2295732 8.5
-2.6430349 3.9965672 -0.76038516 8.666667
-2.642792 4.8300724 -0.98126864 8.5
-2.539252 -3.508146 1.8015325 11
-2.6077166 -2.9550123 1.5400617 11
-2.6787515 4.0353675 -0.47035432 10.5
-2.5642104 4.8672185 -0.87404519 9
-2.4711227 6.0659304 -1.2361598 9
-2.5263028 -3.4001923 2.1518514 13
-2.5446274 -2.8021169 1.967081 13.5
-2.5380669 -2.7184155 2.0251374 14.5
-2.5854027 6.196372 -0.75309205 11.166667
-2.5669839 6.340456 -0.25695649 13
-2.5276742 6.4496136 0.06746462 14.5
-2.174932 -3.6845138 1.1608942 7
-2.2067635 -3.6215703 1.3540537 8.1999998
-2.2030756 6.0673928 -1.3181034 9
-2.1415079 -3.4948249 1.7599195 11
-2.2230837 6.0816193 -1.2298875 9
-2.1644328 -3.3901403 2.0921319 13
-2.2142637 6.2473035 -0.71723294 11.5
-2.1670337 6.3885965 -0.22714803 13.333333
-2.2030292 6.4937778 0.10017519 14.666667
-1.7742265 -3.667923 1.1424185 7
-1.7830729 -3.6021607 1.3213233 8.1999998
-1.860209 4.049262 -0.75943816 9
-1.8178558 6.1351008 -1.3188771 9
-1.750802 -3.4791698 1.7181126 11
-1.7717243 4.1344466 -0.65999496 10
-1.9932199 6.1301417 -1.2334461 9
-1.7424507 -3.372076 2.057879 13.5
-1.7726121 6.2936502 -0.72366345 11.5
-1.7703028 6.4343624 -0.22623883 13.5
-1.8780482 6.5462279 0.1961714 15
-1.3682125 -3.6401205 1.1212678 7
-1.3420798 -3.5665829 1.3422793 8.5714283
-1.3354639 -3.4637818 1.6793008 11
-1.3879523 4.1585808 -0.70213813 10
-1.3654112 -3.3626597 2.0090053 13.5
-1.3827137 6.3171568 -0.72629106 11.5
-1.3785868 6.4341693 -0.32794929 13.4
-0.86843145 -3.6136687 1.0709044 7
-0.97066569 -3.5442221 1.3103217 8.7142859
-0.9551872 -3.4417019 1.648124 11
-0.96319413 4.1573873 -0.7022841 10
-0.97161609 6.2015681 -1.1764463 9.6000004
-0.93590379 -3.3439608 1.963475 13.5
-1.0399246 6.3200274 -0.77928853 11.333333
-0.98191494 6.4338045 -0.39524454 13.142858
-0.44443068 -1.2532068 0.20247513 3
-0.47409362 -0.99783385 0.12512214 2.5
-0.53224105 -0.60369241 0.00076250889 0.33333334
-0.60211378 -0.39860985 -0.06015997 0
-0.73218727 -3.5036504 1.3657017 9
-0.55176163 5.6375246 -1.0961599 9.666667
-0.61831367 -3.3274996 1.9357963 13.666667
-0.45362797 5.6910906 -0.63856459 12
-0.79011059 6.3078628 -0.87170291 11
-0.54041106 5.8180118 -0.24385384 14
-0.72578639 6.2930017 -0.38375044 13
-0.29193127 -1.3636191 0.2552821 4
-0.20626803 -0.99060315 0.10812122 1.7777778
-0.24343316 -0.70722234 0.020442694 0.25
-0.36807406 -0.41053092 -0.030999681 0
-0.051072601 3.0933135 -1.180246 5
-0.18037722 -3.5038168 1.0815989 7.5
-0.037955303 -3.394151 1.1708748 8.5
-0.19633953 -1.2122443 0.63932049 12.5625
-0.13860399 -1.0472815 0.68541425 15
-0.14347664 -3.4070961 1.4590502 10
0.01978956 -3.3230412 1.4222806 10
-0.23177582 5.5649714 -1.0849544 9.5
-0.18606764 5.7022243 -0.65719587 12
-0.19791588 5.7973614 -0.33339918 13.5
0.26262715 -3.4136186 0.98941386 7
0.18096663 -0.8961761 0.1360743 3.3636363
0.18330778 -0.696742 0.0069094361 0.33333334
0.2821331 0.58789355 -0.4003408 0
0.32066858 0.86305916 -0.49100378 1
0.2402494 1.2668693 -0.60471743 2.8
0.26057312 1.6627693 -0.73088712 3.6666667
0.092637897 2.0306895 -0.84477407 4
0.059367988 2.2712359 -0.91754931 4
-0.0044274284 2.7423429 -1.0659242 5
0.32935047 5.4250975 -1.7141356 7
0.17945257 -3.3454494 1.2591493 9.1999998
0.079125069 -1.2578934 0.66168052 13
0.23092832 -0.8417154 0.3015866 8.7777777
0.34709957 -0.66623205 0.44379139 15
0.22174832 -3.2694793 1.5242592 11.333333
0.21689837 5.6528907 -1.0151947 10
0.23800644 -3.1801915 1.8318624 14
0.13216183 5.727725 -0.78266406 11.333333
0.20056942 6.0653005 -0.3591494 13.571428
0.2340139 6.3560414 -0.59991473 13
0.49294874 -0.88860768 0.13538496 4
0.47771055 -0.61907905 -0.022287056 0.66666669
0.67013043 0.1697299 -0.26832488 0.40000001
0.61394775 0.48475942 -0.38279527 0.44444445
0.6066578 0.89801633 -0.51466048 1.8571428
0.62166643 1.2411368 -0.61713552 2.8
0.61776203 1.6109992 -0.73400265 3.6666667
0.52947295 2.0732255 -0.87646091 4
0.61414266 2.3924122 -0.98083389 4.3333335
0.38571164 2.7217567 -1.0865225 5
0.38707653 3.0353496 -1.188678 5
0.38965222 3.4576745 -1.3289819 5
0.39480439 5.3882465 -1.9457347 5
0.4992879 -0.84866273 0.3288064 9.5
0.66311455 -0.65329933 0.43208468 14.2
0.58737844 5.6424146 -1.1462356 9.333333
0.60538912 6.2462597 -1.1344659 10
0.59241569 6.3125463 -0.8993926 11
0.5871039 6.0167203 -0.35940376 13.571428
0.61319977 6.3882651 -0.6340943 12
0.98028213 0.16695029 -0.28836432 1.75
0.9901486 0.50658345 -0.40728596 2
0.98161989 0.87075955 -0.5178045 2.8
0.97124022 1.2846099 -0.64282471 3.5
0.95473725 1.6327189 -0.75573301 4
1.006485 2.1077037 -0.90745801 4
1.0896233 2.3965206 -1.000386 4.5
0.7800709 2.7423682 -1.0976192 5
0.83051795 3.0855756 -1.2118391 5
0.89189667 3.5061948 -1.3503703 5
0.94306171 3.8842304 -1.4619092 5
1.0830637 5.4559898 -1.6896976 7
1.047598 -0.62935334 0.41641766 13
1.1592373 1.580368 -0.21284311 11
1.0255994 5.5143666 -1.4947159 8
1.1922457 -0.5807777 0.54843783 15
0.99818867 5.738513 -1.1565732 9.5
0.91042823 6.0208669 -1.1005305 10
1.0852418 6.3573074 -0.84819895 11.25
1.0291344 6.0947227 -0.37496951 13.666667
0.9210729 6.3978705 -0.65810627 12
1.4249079 0.17905024 -0.30895549 3.6666667
1.3685424 0.54372627 -0.42208901 3.5
1.3771709 0.87263632 -0.52917337 3.8
1.4166908 1.3562343 -0.63329047 4.875
1.3452611 1.5823295 -0.6304577 6
1.2653495 1.9614936 -0.82580072 5
1.1992837 2.7749939 -1.1242065 5
1.3018266 3.1259835 -1.2414593 5
1.1802311 5.4010034 -2.0127673 5
1.4016283 -0.60929304 0.39813551 11.909091
1.2728207 1.5952318 -0.20259982 11
1.2467697 1.967072 -0.31944558 11
1.5804268 2.0966947 -0.6126017 8
1.4832184 -0.55378401 0.57288212 14.666667
1.3865675 5.6716046 -1.2334167 9
1.3919408 6.1683221 -1.1740882 10
1.395926 6.3795562 -0.8181389 11.4
1.4561255 6.116827 -0.3938565 13.4
1.6930516 0.2819474 -0.35144058 4
1.669463 0.53968543 -0.43172425 4
1.8443608 0.901757 -0.55936581 4
1.7335502 1.1945028 -0.65382636 4
1.8915964 5.4219613 -1.7761161 7
1.8138849 -0.58203471 0.38474473 11.222222
1.8407215 5.473887 -1.6039693 7.5
1.8930687 -0.51130384 0.6018998 14.2
1.7207428 5.6931729 -1.2242006 9
1.7773222 6.3170705 -1.1287045 10
1.8294463 6.3950472 -0.85995823 11.333333
1.8402518 6.1391926 -0.37108722 13.4
1.7990324 6.1506023 -0.40118012 13.5
1.7836756 6.6846194 0.040417019 15
1.9587027 6.7048197 0.034131926 15
2.2324922 0.18902853 -0.35388398 5
2.1532288 0.50767589 -0.45164394 4.5
2.2482607 0.80076486 -0.54912221 5
2.2396069 1.2669079 -0.7033723 5
2.1351426 1.5615449 -0.79615521 4.5
2.2901618 2.999361 -1.2541229 5
2.2899339 4.4047585 -1.4634595 7
1.9931829 5.4577494 -2.0494189 5
2.206636 -0.56335378 0.35756335 10.5
2.2179465 4.2578559 -0.93741095 9
2.042228 4.4732041 -1.041447 9
2.311887 4.6719532 -1.3036275 8
2.2697022 5.666429 -1.3694423 9
2.1991444 -0.47685808 0.6485337 14.166667
2.2925737 4.3052607 -0.88564444 9.5
2.1937773 4.4515123 -0.83779162 10.2
2.2063015 5.7132845 -1.266006 9
2.2431123 6.3627806 -1.1427119 10
2.2281017 6.4235616 -0.83434635 11.666667
2.263732 6.4130325 -0.94189584 11
2.1460841 6.1612177 -0.33103943 13.5
2.2343671 6.1614237 -0.39445257 13.666667
2.2237382 6.7217879 0.026830968 15
2.3963337 0.20999336 -0.37065968 5
2.5398793 0.7800566 -0.56149054 5
2.5196979 1.679027 -0.85114408 5
2.680372 3.6984348 -1.3897737 6
2.618165 -0.54767495 0.32754853 9.8571424
2.6183727 4.2964339 -0.9669022 9
2.6279061 -0.4476248 0.65605682 13.444445
2.5136807 4.2845521 -0.91170871 9.333333
2.7631919 4.6163883 -0.81436884 10.333333
2.7954743 4.9009771 -0.80093682 10.5
2.4769492 5.7979045 -1.178797 9.666667
2.4270828 6.1733212 -1.1143504 10
2.8074226 4.6068974 -0.51895261 12
2.7980611 5.1438656 -0.60163194 12
2.7898431 5.48739 -0.65578169 12
2.6569972 5.8041692 -0.82202023 11.4
2.4675915 6.2451682 -0.84944475 11.5
2.8272603 4.7965841 -0.078089558 14
2.8196316 5.1895914 -0.19666645 13.666667
2.8193481 5.6431799 -0.19628535 14
2.613606 5.973351 -0.3848379 13.333333
2.4342475 6.2040377 -0.26240766 14
2.5903339 6.7435837 0.018230295 15
2.8165081 1.2472435 -0.73141688 5
2.9837646 1.7902982 -0.91806489 5
2.9942284 2.347944 -1.0988061 5
3.0285144 -0.53986472 0.26351833 9
3.079788 3.00457 -0.7353583 8.5
3.0583076 3.7136996 -0.90345454 8.5
2.9651527 4.3302784 -0.98534954 9
3.0427637 -0.42446321 0.62879699 12.625
3.0969634 3.0845671 -0.41863099 11
3.1083639 3.2524707 -0.61529034 10
3.0662067 3.8097696 -0.63183641 10.285714
2.9073498 4.1746435 -0.75828254 10
2.8958938 4.4521213 -0.75967717 10.25
2.8100991 4.8839817 -0.71751201 11
3.0814486 -0.34493101 0.88887769 15
3.1260896 3.2407789 -0.0067081805 13.5
3.1209419 3.8758214 -0.19508298 13
2.9791987 4.3246365 -0.43085629 12.25
3.0003731 4.6249437 -0.40654278 12.666667
2.8119555 4.8471971 -0.58563161 12
2.8215261 5.7233319 -0.74851817 12
3.1947732 3.2548561 0.19459717 15
3.1543133 3.972857 0.068981759 14.5
2.8840716 4.506403 0.017810311 14.5
3.0267639 4.7528057 -0.048541632 14.25
2.8450289 5.8030696 -0.36199051 13
2.8510003 4.9950094 0.087210804 15
2.9857287 5.522326 0.063817926 15
2.9710357 6.7623272 0.012620843 15
3.4609368 -0.54141128 0.010146874 7
3.4381239 0.48565283 -0.44368282 6
3.5667491 0.77876967 -0.54982853 6
3.500819 1.1859076 -0.65306908 6
3.5023298 1.6567534 -0.79972297 6
3.5074728 2.1947126 -1.0061567 6
3.5530851 2.2786508 -0.92875338 6.5
3.2708662 2.6598451 -1.1062799 6
3.3118236 3.5842862 -1.2962347 6.5
3.4289339 -0.46323362 0.20939001 8.625
3.5036654 -0.15930545 0.10881615 8.5555553
3.4832489 0.20618492 0.024341084 9
3.4790032 0.60071272 -0.09263891 8.7142859
3.4428179 0.97610974 -0.22802618 8.2857141
3.4063382 1.3785669 -0.33383977 8.6999998
3.3918233 1.7531126 -0.43550766 8.8571424
3.3782339 2.155488 -0.50387263 9
3.3494666 2.5097234 -0.65481746 8.5
3.2768579 2.8956406 -0.72941804 8.5
3.2611847 3.41255 -0.85102683 8.5
3.2417605 3.6178439 -0.94054073 8.5
3.2052104 4.447681 -1.0348035 9
3.4724674 -0.34463394 0.57804763 12
3.5336127 -0.050824065 0.50624508 12
3.5100758 0.30966431 0.38231742 11.777778
3.4852009 0.70607555 0.25312874 11.555555
3.4554968 1.1246969 0.16169877 11.777778
3.4294877 1.4802234 0.039093524 11.666667
3.4148419 1.8533705 -0.080165073 11.25
3.3930962 2.270812 -0.21118814 11
3.3743124 2.659523 -0.28826299 11
3.3431985 2.9852726 -0.40349013 10.75
3.286922 3.5333054 -0.49358884 11
3.2540054 3.6572292 -0.51651818 11
3.2509601 4.4010086 -0.646321 11
3.2148705 4.5692568 -0.67703122 11
3.5057607 -0.25203142 0.91658479 14.5
3.5515714 0.03900921 0.83887458 14.666667
3.5297348 0.43867683 0.6940338 14.6
3.5080464 0.7953316 0.61365777 14.6
3.4707735 1.2232791 0.46845341 14.333333
3.4541306 1.6022717 0.36755529 14
3.4398196 2.0175462 0.29943591 14
3.4270585 2.3335655 0.20308366 13.777778
3.404588 2.7454476 0.054640703 13.285714
3.3623452 3.1302807 -0.020583805 13.2
3.3353207 3.6470711 -0.042879332 14
3.2888365 3.7760019 -0.1026305 13
3.263386 4.6221018 -0.31186846 12.5
3.431566 2.5552979 0.38312775 15
3.4158134 2.8241107 0.36272019 15
3.4011693 3.2228327 0.3355459 15
3.325675 3.7278311 0.094693407 14.5
3.3135762 3.8830509 0.15601145 15
3.2837484 4.6444597 0.016384048 14.5
3.2743843 6.4070044 0.025363412 15
3.2601659 6.7603955 0.010559589 15
3.5916624 0.82598782 -0.45467487 7
