# .PCD v0.7 - Point Cloud Data file format
VERSION 0.7
FIELDS x y z intensity
SIZE 4 4 4 4
TYPE F F F F
COUNT 1 1 1 1
WIDTH 105
HEIGHT 1
VIEWPOINT 0 0 0 1 0 0 0
POINTS 105
DATA ascii
-6.0145936 4.2566185 -0.090469375 10
-5.9975557 4.4513221 0.22348063 11.5
-6.0213685 5.3811297 0.17295632 12
-6.0073142 6.3844442 0.50180686 13
-5.9469585 3.0461411 -0.15744975 9
-5.8457146 2.5014904 0.29971778 10.5
-5.9573922 3.1285923 0.11845949 10
-5.9176311 3.3291936 0.3287169 11
-5.8411798 2.5190678 0.61027294 12
-5.9461169 3.2263124 0.5197382 12
-5.8633575 2.7996333 0.78556812 13
-5.8139949 3.34376 0.74910289 13
-5.7625761 2.75614 1.1362838 14
-5.9354591 4.4301567 0.6483326 13
-5.8758774 5.0829949 0.52174401 13
-5.7505922 2.5501025 1.3258649 15
-5.8492632 4.1784234 0.82122332 14
-5.8909712 4.717607 1.0565517 15
-5.66433 4.8884783 -0.66248107 9
-5.5197463 6.3972616 0.96761358 15
-4.9925089 6.2989302 -0.053839318 12
-4.6691036 6.2272396 -0.31066146 11
-4.3766899 6.4044399 0.32265028 14
-3.8663256 6.2883072 -0.095681213 12
-3.7587864 6.5047779 0.56643403 15
-3.7901886 6.1895075 -0.5415107 11
-3.7046659 6.3488302 -0.088883512 13
-3.1147237 6.213172 -0.70752299 10
-2.8308358 4.0841017 -0.7307325 8
-2.8581264 6.2025752 -1.1288537 9
-2.8093119 6.3587356 -0.4501569 11
-2.7900801 4.1023488 -0.68629134 9
-2.6246214 6.3284163 -0.45796424 12
-2.5496733 6.16642 -1.1718192 8
-2.462667 6.5939198 0.47920176 15
-1.6336082 5.5817757 -0.8922739 9.5
-1.6279507 5.7115493 -0.43055326 12
-1.5979234 5.7933245 -0.11566405 13
-1.5457064 5.6670055 -0.63660353 11
-1.5044559 5.8177366 -0.026575183 14
-0.99782974 -0.68523902 0.52163714 13
-1.1214535 5.5597005 -0.97614604 9
-0.99209386 5.7204781 -0.63749355 11
-0.94612992 6.1297379 -0.15116866 13
-0.85440207 6.1365657 -0.07979314 14
-0.77945423 -0.68764323 0.55518353 15
-0.55253977 6.2979732 -0.7619043 11
-0.3984423 6.0236769 -0.2914668 13
-0.2684592 0.67132276 -0.3749412 0
-0.26695079 0.8903594 -0.43662441 1
0.074712083 0.82657677 -0.43576369 1
0.22352436 0.71674013 -0.40588826 0
0.29718456 6.359901 -0.65790278 12
0.47807637 0.64183801 -0.40244406 0.5
0.54782236 -0.88610971 0.088243231 3.5
0.55279016 -0.82156295 0.2507655 9
0.61103767 -0.64009488 0.40044031 14
0.65269238 -0.85294712 0.12180046 5
0.67309546 -0.82469487 0.2951245 9.5
0.7665447 -0.76566243 0.38870254 12
0.78113574 -0.62696004 0.37102774 13
0.87260568 -0.86738765 0.068015687 4
0.96857709 -0.61079872 0.45873502 15
1.0113053 -0.84729671 0.15596144 6
1.1519015 -0.79380888 0.27311757 9
1.0662352 -0.62132353 0.36762437 12
1.2183294 -0.85204613 0.057612315 5
1.3857824 -0.78346717 0.35056633 10
1.2521838 -0.6083675 0.38814908 12.5
1.3708168 3.9887204 -0.72487092 9
1.2499884 -0.58208424 0.5421924 15
1.2514189 6.1204782 -0.25767946 13
1.4566314 -0.84327662 0.15189196 7
1.6436602 -0.56649661 0.44242531 12.5
1.768909 4.8487535 -0.68161541 11
1.898949 -0.58073401 0.33883533 11
1.9947636 2.9680073 -0.50707042 9.5
1.9868644 3.0133803 -0.36100054 11
1.8982681 3.9969969 -0.53368849 11
1.9935528 3.0597405 -0.18581499 12
1.988409 3.1730421 -0.096186019 13
1.992082 3.6418619 -0.27611709 12
2.0068533 3.1543376 0.053688012 14.5
1.9663743 4.049758 -0.077837877 14
1.8278143 5.2053452 -0.10871305 14
2.3828835 0.36942339 -0.069946416 8
2.3013778 2.4141724 -0.49021244 9
2.2865512 2.8570588 -0.46283168 10
2.3395333 1.9323764 -0.096920066 12
2.316144 2.4042373 -0.11563898 12
2.2945669 2.8549387 -0.35374343 11
2.3623385 1.6496515 0.20636839 14.5
2.3461092 2.0451453 0.1206321 14
2.334738 2.2112148 0.0072492547 13
2.3286335 2.5328264 0.070215516 14
2.3088677 2.9897699 -0.17386843 12
2.3447251 2.2398303 0.19283871 15
2.322149 3.1471543 0.11102253 14
2.4261913 -0.58261013 0.20009376 9
2.405952 -0.06314981 0.043373607 8
2.4337015 -0.50836301 0.33958372 10.5
2.4739995 -0.47806659 0.61421216 13
2.4590533 -0.47608426 0.45287496 12
2.4376831 -0.44351861 0.79163116 15
2.4621539 0.0029945923 0.58166939 15
