# .PCD v0.7 - Point Cloud Data file format
VERSION 0.7
FIELDS x y z intensity
SIZE 4 4 4 4
TYPE F F F F
COUNT 1 1 1 1
WIDTH 72
HEIGHT 1
VIEWPOINT 0 0 0 1 0 0 0
POINTS 72
DATA ascii
-7.1104722 -2.0330281 0.97061187 7
-6.974648 3.2851112 0.22758745 10
-6.9460759 3.9495544 0.097647056 10
-6.9384813 3.9573491 0.35657275 11
-6.9541578 4.8770022 -0.051193163 11
-6.9237943 4.1468596 0.43952456 12
-6.7828765 3.616447 0.75794035 13
-6.7632723 2.6112428 1.5726801 15
-6.8529253 4.0540223 1.1551907 14
-6.8696837 4.7915993 0.96492875 14
-6.6898665 5.3304429 0.52804089 13
-6.3834119 3.7698541 -0.75962299 7
-5.9444604 6.2991457 -0.42306268 11
-5.4540186 6.3187337 0.50113213 14
-4.8668685 6.3936381 -0.39282215 12
-3.6157291 4.2880254 -0.57753301 10
-3.6047795 6.4675317 -0.45657596 12
-3.6812069 6.9431863 0.23639089 15
-2.658304 5.5957499 -1.0985231 9
-2.5896757 5.6736565 -0.89448941 10
-1.8109363 -0.65132993 0.49554431 10
-1.8498666 -0.59950942 0.5713141 11
-1.3855466 -0.44613236 0.6833514 15
-1.5239788 5.6009774 -1.2245131 9
-1.4978632 5.8800726 -0.44587958 13
-1.3116909 -0.56767648 0.55573767 12.666667
-1.0991964 -0.56063235 0.53869158 13.5
-0.96485144 -0.58736604 0.53697544 13.5
-0.88587356 5.8575716 -0.97446805 11
-0.76251483 6.2493386 -0.21365321 15
-0.70085025 -0.59705281 0.50113171 14
-0.4532147 5.6229181 -1.2394232 9
-0.24437444 -0.82801419 0.054894321 0
0.15229866 0.91987127 -0.47857448 2
0.29002351 1.0142395 -0.52144051 3
0.34116766 3.9386117 -0.76001757 10
0.26332697 6.1930408 -0.21166299 15
0.43553776 0.83661711 -0.47041541 2
0.69198644 -0.83160359 0.10260894 4
0.73416662 0.60645545 -0.41007388 2
0.66730893 -0.75146633 0.32248914 10
0.86644137 -0.81492329 0.15364285 6
0.81075901 -0.74976343 0.30887043 10
0.87612021 -0.63041663 0.46717295 14
0.9957574 3.0370069 -0.31120804 13
1.1953375 -0.61067116 0.50148755 14
1.0104601 2.9205894 -0.60693067 10
1.0338532 2.9800949 -0.40329894 12
1.1477189 2.9942093 -0.55628371 11
1.0280513 3.0626459 -0.10371653 15
1.362098 -0.46967068 0.25995713 10
1.3095005 -0.57397252 0.40571469 12.333333
1.2333798 -0.41030577 0.39788684 13.75
1.2491635 -0.15206073 0.31002581 14
1.2608451 -0.0058939857 0.29734653 14.5
1.3287281 0.43281114 0.15169105 14
1.2847848 0.44732749 0.0065280697 11
1.3096408 1.1033874 -0.15730783 11
1.2964598 1.9638578 -0.32696363 11.5
1.3002961 2.8584766 -0.70222414 9
1.3189776 1.5276142 0.00011361162 15
1.3202243 2.0215163 -0.084297143 14
1.308827 2.4014511 -0.22312774 13
1.2994258 2.4394991 -0.36220291 12
1.2815036 2.7376022 -0.47621414 11
1.3240302 2.457895 -0.084722899 15
1.2850429 3.0638335 -0.25533095 13
1.2269576 3.0521791 -0.17078966 14
1.4449272 0.43555817 -0.28962174 6
1.4972066 1.1792991 -0.45865685 7
1.4571382 0.53995377 -0.08857207 10
1.504882 1.2510093 -0.37006283 8
