# .PCD v0.7 - Point Cloud Data file format
VERSION 0.7
FIELDS x y z intensity
SIZE 4 4 4 4
TYPE F F F F
COUNT 1 1 1 1
WIDTH 200
HEIGHT 1
VIEWPOINT 0 0 0 1 0 0 0
POINTS 200
DATA ascii
-0.25433609 -0.81673098 0.089262173 211.75
-0.11519078 -0.83082831 0.10997937 208.85715
0.024549969 -0.83841538 0.094627097 202.33333
0.1566371 -0.83854491 0.082126454 208.16667
0.26849484 -0.83589876 0.086814702 203.8
0.3837252 -0.84072179 0.090946488 207.42857
0.4195511 -0.84312981 0.059243858 192.75
0.50586134 -0.85718113 0.070246428 199.75
-0.22773576 -0.75055802 0.12137847 210.33333
-0.15367503 -0.75223643 0.073763505 186
-0.068529889 -0.77996379 0.057492342 178.60001
0.061551176 -0.75960028 0.061559767 185.2
0.1661723 -0.7768122 0.083166234 194.60001
0.27122292 -0.76522279 0.037942011 185.42857
0.38702375 -0.76937807 0.048374347 187
0.48669717 -0.751293 0.042987343 186.25
0.54805017 -0.77775693 0.022574881 178
0.60684371 -0.78873044 0.023387054 178
0.69820303 -0.73549944 0.0031888909 181
-0.13338897 -0.68513864 0.017489037 173.5
-0.056154042 -0.66512913 0.017347082 179.66667
0.032370254 -0.68090791 0.018649761 184.33333
0.10882146 -0.66169584 0.017095238 184
0.22430526 -0.6846478 0.0067024291 186.60001
0.35706773 -0.65883821 0.0080089709 187.83333
0.48119709 -0.69108707 0.0017643879 184.33333
0.57435757 -0.68852514 -0.0039565754 185.2
0.66398263 -0.66538644 -0.013029027 185.39999
0.75772589 -0.63847286 -0.020214651 183
-0.040334139 -0.56363946 -0.011685792 187.2
0.050780259 -0.57732612 -0.00031224338 186.66667
0.1400032 -0.58470005 -0.0024297072 187.16667
0.23099637 -0.58008826 -0.01524358 186.85715
0.34147173 -0.58049363 -0.012953513 186.23077
0.46102646 -0.58757257 -0.018184397 187.57143
0.53799397 -0.57971096 -0.027284868 188.5
0.61804938 -0.57211041 -0.031367835 189.75
0.7300697 -0.59642601 -0.037129048 188.8
-0.42389062 -0.48056328 -0.03039323 165
-0.10821502 -0.49338642 -0.012598181 175.5
-0.072114617 -0.47871947 -0.029425448 185.66667
0.049202882 -0.47532097 -0.039737806 183.60001
0.14531727 -0.49490911 -0.039920736 181.75
0.24673535 -0.4907307 -0.051790733 180.08333
0.35180649 -0.50146919 -0.051796697 180.41667
0.4466241 -0.49195012 -0.057135515 181.25
0.52688557 -0.47069579 -0.060658343 182.52632
0.63811046 -0.49501252 -0.054089822 187.54546
-0.32846543 -0.43053222 -0.049708057 177
-0.22553368 -0.37333289 -0.064333193 188.33333
-0.18095928 -0.348717 -0.070963584 186.33333
-0.017748151 -0.4180038 -0.054654147 183.5
0.049518023 -0.38249862 -0.077449471 178.58333
0.14594407 -0.38361952 -0.078412935 175.04167
0.24898906 -0.40500623 -0.078659974 174.48
0.35856476 -0.40060607 -0.08400315 173.58333
0.44774547 -0.37867779 -0.09519162 175.03999
0.53803664 -0.39142489 -0.095235445 177.66667
0.6037457 -0.40732574 -0.086970784 181.11111
-0.25456879 -0.29741368 -0.097378001 188
-0.15268593 -0.27750769 -0.095569059 184.10001
-0.069707192 -0.27391967 -0.061898686 175.5
0.077725552 -0.33615759 -0.095770843 175.5
0.17294943 -0.29333043 -0.1131655 162
0.25502831 -0.29006317 -0.11414535 162.67741
0.34444341 -0.28806785 -0.12531246 167.5
0.43210521 -0.28395498 -0.13518912 167.91667
0.52081376 -0.31402567 -0.1216719 173.95653
-0.045663968 -0.21982414 -0.12993693 177
0.080243789 -0.20175785 -0.14228706 165.625
0.14672129 -0.18553141 -0.14282301 160.35417
0.24741381 -0.18228848 -0.13415964 154
0.33629552 -0.17507391 -0.11815362 135.57471
0.4414573 -0.20437917 -0.16060984 156.46297
0.15919754 -0.14230339 -0.16015838 157.8
0.23460943 -0.1422971 -0.17237556 156.16667
0.36838064 -0.098182872 -0.18102916 145.4762
0.42018434 -0.15566148 -0.17960325 162
0.36987057 -0.018133335 -0.21715708 156.81818
0.44306996 0.0011251048 -0.22142918 159.53609
0.52266139 0.011194141 -0.22823273 151.48148
0.59672695 0.029427582 -0.23989011 148.66667
0.26445916 0.101466 -0.25157222 153.125
0.34642777 0.079442285 -0.24726547 151.85294
0.43696311 0.073806018 -0.24432367 152.42392
0.54739714 0.082400516 -0.25128245 151.44681
0.62905145 0.082397819 -0.23180088 148.28206
0.73178583 0.10838866 -0.22728068 155.83333
0.80848211 0.13621426 -0.23968633 167
0.25326696 0.15777698 -0.2667442 144.15384
0.33205861 0.16323847 -0.27244976 149.4359
0.42640331 0.1799465 -0.27709195 147.89362
0.53270096 0.17782423 -0.26463383 148.5238
0.63731426 0.18248054 -0.25967678 153.80952
0.71831781 0.17700161 -0.25098899 164.14285
0.82957488 0.18014891 -0.25582829 170.7
0.94823986 0.18801874 -0.27913207 169.5
0.14389814 0.27941099 -0.29647142 175
0.23007223 0.28182617 -0.30208063 173.52942
0.32701096 0.2733463 -0.29837641 165
0.42835042 0.26157948 -0.2890718 159.76666
0.54248548 0.2888858 -0.30189738 166.5625
0.63007897 0.26685271 -0.28374609 167.94444
0.73772371 0.28195304 -0.28824833 175.66667
0.82319868 0.29510707 -0.30713195 169.66667
0.91542602 0.25901142 -0.30583751 167.25
0.055693682 0.37101513 -0.30345261 168.27272
0.13555808 0.37935165 -0.32065448 177
0.23787801 0.3889153 -0.32944673 179.8421
0.33981818 0.39077103 -0.33574936 179.66667
0.43601277 0.37202266 -0.32905582 178.47826
0.53112507 0.3518483 -0.31970841 177.18182
0.63627243 0.37188974 -0.32703948 177
0.72804844 0.3669726 -0.31880459 174.25
0.84354812 0.37167001 -0.3344036 168
-0.030409921 0.48784494 -0.33585352 149.5
0.036320314 0.45696244 -0.32156834 155.14285
0.14815995 0.46017528 -0.33042693 164.5
0.25119942 0.47783023 -0.34428328 175.5
0.33110675 0.47129878 -0.34984112 176.71428
0.43587059 0.46452537 -0.35203186 178.72728
0.54360175 0.45919839 -0.3541519 174.375
0.65420258 0.48063126 -0.37277147 166.85715
0.74912095 0.45199373 -0.36083695 167.60001
0.84271568 0.42856318 -0.34306583 163
-0.11591062 0.60427183 -0.37460044 146
-0.07192076 0.54431021 -0.35376695 148.2
0.035487846 0.56169444 -0.36191854 149.5
0.13276619 0.5765937 -0.37006393 150.5
0.23101936 0.57178092 -0.37702224 162
0.32464918 0.56086069 -0.37937275 164.60001
0.41784805 0.57368648 -0.39015812 168.83333
0.50742507 0.57085693 -0.3902224 166.83333
0.60546958 0.55884278 -0.39455345 162.39999
0.70305675 0.54468018 -0.39526996 158.5
-0.15185384 0.65287751 -0.38591534 138
-0.023045277 0.66995198 -0.39507926 145.33333
0.040517915 0.66984677 -0.39812917 143
0.098185614 0.6703794 -0.40234724 142.66667
0.21275082 0.65191019 -0.39960378 148.8
0.31760204 0.65389484 -0.4087083 155.8
0.42397436 0.66032201 -0.41762489 157.66667
0.52923983 0.67277801 -0.42299941 153.75
0.6373502 0.64265269 -0.42342296 152.33333
-0.24811468 0.78352034 -0.42305589 127
-0.20276843 0.72186553 -0.4039301 135.5
-0.072300263 0.76109684 -0.4232609 135.5
0.068949454 0.74697489 -0.42221838 139.5
0.19299267 0.73868102 -0.42422348 139.33333
0.31039983 0.7401402 -0.43312696 140.33333
0.42766303 0.72394675 -0.4349336 147
0.53843617 0.72331256 -0.4342382 144
-0.29499957 0.84707105 -0.43989784 118
-0.13380671 0.87357122 -0.45115229 126.5
-0.11024818 0.8307423 -0.44183975 133
0.03486672 0.83844227 -0.45140386 133.5
0.17276743 0.83287245 -0.45722401 135.33333
0.30543274 0.82484221 -0.4660044 134
-0.12105821 -0.78838402 0.16802748 206
0.131005 -0.78274739 0.18412697 205
0.23961613 -0.7892648 0.18899949 205.36363
0.35598725 -0.79207838 0.18075362 204.90909
0.46330562 -0.78241068 0.18886675 205.75
0.58074218 -0.78575325 0.17225528 207.14285
-0.21504641 -0.70804024 0.15080465 209
-0.12479759 -0.76229954 0.20403761 204.55556
0.01522028 -0.75442022 0.18524045 205.45454
0.1342902 -0.77354211 0.17878938 205.39999
0.25176448 -0.78757507 0.14816163 206
0.36115816 -0.78483164 0.15729499 205
0.47335699 -0.78275561 0.14157066 205.8
0.57068479 -0.77003568 0.19746676 207
-0.16682348 -0.62280649 0.1643561 209
-0.013955736 -0.36013421 0.026143048 170
0.063450783 -0.25765905 0.047470592 159
0.068856813 -0.159189 -0.00923377 139.5
0.1437401 -0.15849681 -0.0185124 130.13158
0.23136643 -0.15769766 -0.058000989 122.18519
0.2170873 -0.76412994 0.26760736 203.875
0.32919225 -0.76460445 0.27554202 204.08333
0.44169417 -0.76828456 0.27562031 204.66667
0.55493355 -0.75871003 0.26608709 206.7
0.0015338726 -0.7122193 0.25407103 203
0.066472135 -0.72302526 0.26490825 202.39999
0.14402771 -0.74274206 0.27251473 202.33333
0.21343978 -0.74369049 0.28198874 202
0.5578652 -0.75421351 0.2388216 206.5
0.0088146282 -0.36763704 0.14252669 207
0.016121013 -0.19724332 0.10055322 171
0.11802281 -0.2093931 0.12841988 191
0.083157085 -0.1430095 0.095356673 143
0.12277424 -0.15657687 0.087821141 138.0625
0.30984196 -0.73430741 0.33978775 200
0.31305489 -0.73452359 0.32712007 201.5
0.42192116 -0.73960632 0.33750921 202.25
0.53872782 -0.74120778 0.32388785 204
0.30753726 -0.72716916 0.34599611 200
0.40978399 -0.71545565 0.36826798 201
0.4626523 -0.70811003 0.37026745 201.5
0.52388442 -0.71535289 0.35533693 203.33333
