# .PCD v0.7 - Point Cloud Data file format
VERSION 0.7
FIELDS x y z intensity
SIZE 4 4 4 4
TYPE F F F F
COUNT 1 1 1 1
WIDTH 531
HEIGHT 1
VIEWPOINT 0 0 0 1 0 0 0
POINTS 531
DATA ascii
-8.6244221 14.819636 1.6071359 9
-8.5240612 15.328305 1.6974126 10
-8.2463942 15.697763 1.5671288 9.333333
-8.074791 12.125681 1.7021431 10
-8.1759787 17.625664 2.8897443 11
-7.941484 11.884953 1.2371151 9
-7.7151122 15.547487 1.7765661 10
-7.6510758 15.592814 1.4445307 9
-8.0581236 11.88044 2.0410628 11
-7.9122124 11.400055 2.2799439 12
-7.972465 12.094007 2.374161 11.5
-7.7985148 12.683251 2.454257 11.666667
-7.722168 17.710405 2.9044363 11
-7.3711953 9.5159588 1.0155869 9
-7.5990014 10.651614 1.237242 10
-7.3060541 15.650719 1.6774652 9.5
-7.5460539 12.727852 2.4855547 12
-7.3678184 12.75904 2.4516523 12
-6.8925457 7.5288329 0.54614335 9
-6.9608741 7.4694505 1.0985293 10
-6.8512278 7.5775638 0.96165228 10
-6.9715252 15.749866 1.6233407 9
-6.9030924 15.735717 1.8531705 10
-7.0416999 7.3716764 2.3004036 13
-7.1756954 9.1699467 2.3894825 13
-7.2773528 17.803213 2.9190364 11
-7.28128 11.94685 2.997668 13
-6.7034059 8.227458 0.34526369 8
-6.5489783 5.9806433 0.56857049 9
-6.547967 6.0885677 0.69115323 9
-6.7296433 6.9743958 0.57253218 9
-6.5711155 7.7443604 0.65310365 9
-6.7173443 8.4792252 0.68032348 9
-6.5622997 6.0415754 0.82119679 10
-6.6907425 7.6847181 0.99681848 9.5
-6.5677223 6.1077051 1.4249824 12
-6.6522555 7.693841 1.466964 11
-6.6547675 15.822261 1.6220105 9
-6.6537838 7.7342787 2.0735748 13
-6.554008 12.995778 2.4749293 12
-6.4967594 6.6395187 2.5104399 15
-6.6055789 7.077857 2.6317291 15
-6.6790838 7.4042473 2.6816254 15
-6.8356233 17.907738 2.936316 11
-6.7966027 7.9483056 2.8560336 15
-6.185463 7.6598806 0.13403347 7
-6.2966042 8.1099215 0.14418732 7
-6.1243176 18.523619 2.2535343 10
-6.2750082 8.0772963 2.4253197 14
-6.2957292 15.877541 2.278235 10
-6.3682122 6.0970025 2.5774593 15
-6.4584894 6.5147605 2.4402475 15
-6.401875 18.016369 2.9529393 11
-6.293066 8.1078138 2.8659594 15
-5.8232021 18.740669 1.0182908 8
-5.7526989 5.3794293 1.1983185 11
-6.0303936 15.950994 1.6383772 9
-5.7801023 16.017826 1.7255787 9
-6.0341144 18.587402 1.9474156 9
-5.8521543 11.879003 2.0482168 11
-5.7209859 16.023399 1.9651617 10
-5.7481699 18.646173 2.0153558 9
-5.8077073 11.953089 2.3695061 12
-5.9778876 13.077614 2.5124633 12
-5.9671283 18.117931 2.9695396 11
-5.8779163 8.1923819 2.8773189 15
-5.4320135 6.9180603 0.37735081 8
-5.4088268 5.3540816 0.57211369 9.333333
-5.4357543 5.3720436 1.0387268 10.75
-5.3316708 16.136414 1.1471803 8
-5.3825054 4.9577389 1.4636203 13
-5.3615274 5.3332224 1.3651989 12.5
-5.6387067 16.062782 1.686463 9
-5.6033216 10.833659 2.0999424 12
-5.6209121 18.636684 2.1456394 9.5
-5.296093 18.745728 2.0524654 9
-5.384007 10.117714 2.2935352 12
-5.4699154 13.169709 2.6140482 12
-5.5077844 16.040693 2.3259676 10
-5.3878312 6.6640596 2.4406199 15
-5.4791236 13.217409 2.6361258 12
-5.5323687 18.216526 2.9856925 11
-5.5652609 8.2699747 2.8715787 15
-5.410274 8.3213968 2.8905566 15
-5.6061268 12.217559 3.0556471 13
-5.1228576 6.8800521 0.31659392 8
-5.1594539 8.2070341 0.31140864 8
-5.0019927 8.6719198 0.33827624 8
-4.8837118 7.7320781 0.76942879 9
-5.1196551 5.4685068 1.1409342 11
-5.0315523 5.4648685 1.3938315 12.5
-4.9645419 17.796047 2.2367375 10
-5.1319647 18.802113 2.0522561 9
-5.2343864 8.3963289 2.4594402 14
-5.2182131 11.421883 2.2946513 12
-5.1223917 16.137522 2.3523595 10
-4.939743 8.4228287 2.8688598 15
-4.974885 13.319053 2.6843874 12
-5.1016459 18.324022 3.003056 11
-5.1572289 8.3629417 2.8940904 15
-5.098474 12.225786 3.0595562 13
-4.6951094 6.7342625 0.25310254 8
-4.523922 6.8287344 0.28215492 8
-4.4113331 7.8055081 0.37371984 8
-4.4700637 5.6434722 0.76618427 10
-4.6794839 6.6918993 0.62701666 9
-4.6401763 6.7923689 0.68059736 9
-4.6526957 7.4925375 0.73837823 9
-4.534142 8.8606558 0.5958035 8
-4.5626769 13.541082 0.78269893 8
-4.8208728 18.539785 1.1122524 8
-4.4778357 19.069153 1.186381 8
-4.5672832 5.532918 1.1474749 11.5
-4.60847 18.976185 1.3228258 8
-4.6561174 5.5117722 1.2313935 12
-4.5404725 5.5811586 1.4116575 12.5
-4.7646208 18.877558 1.9584537 9
-4.6393313 18.933527 2.0737679 9.5
-4.6670423 8.5424719 2.4760399 14
-4.7607017 13.374212 2.7942634 12.333333
-4.6408944 8.4978323 2.9401858 15
-4.6324821 12.3207 3.0842831 13
-4.7910061 18.413649 3.2626626 11
-4.233603 5.6500344 0.64026612 9.666667
-4.0525837 7.3458915 0.8029108 9
-4.3631992 5.5574121 1.1184778 11
-4.2614603 5.6122584 1.1668161 11.5
-4.1574483 19.073462 1.3615805 8
-4.1089377 5.6109142 1.3879608 13
-4.0654802 5.6133952 1.768222 14
-4.2601223 19.000753 2.1152153 9.666667
-4.4405966 7.4972372 2.2214501 14
-4.2059736 8.6248674 2.4830296 14
-4.3485804 16.325254 2.4043479 11
-4.2176204 8.639658 2.8203168 15
-4.4437876 13.445763 2.8739305 12.5
-4.1556425 13.516241 3.0570433 13
-4.1428595 8.6134357 2.9493685 15
-4.2839713 12.260147 3.0735378 13
-4.3600764 18.542267 3.274116 11
-3.7095826 5.730072 0.81105685 10
-3.8915608 6.7916532 0.49281499 9
-4.0232682 19.140163 1.2384876 8
-3.8915493 5.7791581 1.1104378 11.5
-3.8781972 19.259197 1.4525229 9
-3.8695002 19.077936 2.184854 10
-3.8674376 8.6841898 2.4885414 14
-3.8381522 8.6575918 2.9337604 15
-3.8234248 12.996536 2.6839719 12
-3.832855 13.593215 2.7373545 12
-3.9162328 8.6696692 2.9653761 15
-3.8222923 13.576462 3.0832632 13
-3.9129291 18.62752 3.2785451 11
-3.4866617 5.8383012 0.33492357 8
-3.4474754 7.0900035 0.41195071 8
-3.2787488 7.2509675 0.45602393 8
-3.2922647 7.8674245 0.51225859 8
-3.47721 5.7874737 0.73906016 10
-3.5266354 11.929836 0.74064666 8
-3.43241 12.016756 0.79737508 8
-3.3616278 8.037672 0.96370053 10
-3.538008 8.7536011 2.4973001 14
-3.5797684 16.521048 2.4563766 11
-3.2922013 8.7860909 2.7952032 15
-3.4569309 13.676781 2.8229008 12
-3.6813862 8.697669 2.9743564 15
-3.4618583 8.7544479 2.993247 15
-3.3544576 12.345457 3.1051006 13
-3.4930325 13.642319 3.1122227 13
-3.1182384 8.0363359 0.51723224 8
-3.048945 8.0738411 0.55555135 8
-2.8731189 15.450697 1.0988175 8
-3.0130005 5.8998928 1.0196813 11
-3.0554945 8.1203146 0.98127413 10
-2.8901331 15.557435 1.2823483 9
-2.8902469 15.036454 2.2752421 11
-3.2116282 8.8197479 2.5074878 14
-3.0254314 9.3591957 2.4231195 13
-2.9043691 8.8944693 2.8993115 15
-3.001296 13.77533 2.8885624 12
-3.0612745 8.82269 2.968266 15
-3.0466874 12.374257 3.1176314 13
-3.1607573 13.704217 3.1406839 13
-2.448797 1.4198669 0.25551262 10
-2.5335386 1.7786998 0.26815471 9.8000002
-2.6235046 2.1801105 0.28564644 9.6000004
-2.4582045 1.4081757 0.57395357 13.181818
-2.550092 1.7993487 0.57726985 12.444445
-2.6276274 2.149195 0.57278621 12
-2.5142047 14.671286 1.0334698 8
-2.4866884 1.5162559 0.77724546 15
-2.5715346 1.8638529 0.8225491 14.666667
-2.6429484 2.1649163 0.87307483 14.5
-2.5824745 14.66382 1.6908401 9.5
-2.573149 8.9789944 2.5365202 14
-2.7649589 13.836584 2.8682115 12
-2.6264215 8.9300251 2.9968724 15
-2.8201549 13.714155 3.1585381 13
-2.0133471 -0.47048286 0.24140631 11.5
-2.3552682 1.0196351 0.21941778 9.8571424
-2.4026506 1.2224023 0.28080517 10.5
-2.0253572 -0.48268548 0.4783074 14.5
-2.3623118 1.0021842 0.53489035 13.5
-2.4116824 1.2120199 0.56884295 13.5
-2.4111676 13.401081 2.2829223 11
-2.2482808 9.0365152 2.5468729 14
-2.2395015 9.0232496 2.9165227 15
-2.306067 9.0210075 3.0232606 15
-2.4420509 12.419155 3.1394014 13
-1.8151244 -0.93553907 0.1946757 10.888889
-1.9685161 -0.61848593 0.1810981 10.75
-1.8311099 -0.94678015 0.44520727 14.25
-1.9755636 -0.65103239 0.44840425 14.142858
-1.7038094 10.500113 0.87251431 9
-1.688218 10.616076 1.3711919 10
-1.6887255 10.693545 2.2652407 12
-1.9203311 9.0752449 2.5544899 14
-1.7116815 9.143651 2.5697162 14
-1.7722108 10.487905 2.3052797 12
-1.9825796 10.877722 2.289387 12
-2.0384088 12.637589 2.3135319 11
-1.9727614 9.0972805 2.8090513 15
-1.9760066 9.08319 3.0430906 15
-1.4133946 -0.92145997 0.21980782 12
-1.4731323 -0.93345433 0.40733925 14.666667
-1.375313 9.3939085 0.87417728 9
-1.4882861 9.5468836 1.4187057 11
-1.4414978 9.6146574 1.3060318 10
-1.3592496 9.3991938 2.1130445 13
-1.4382896 8.3416681 2.2158074 14
-1.6622294 9.1646252 2.2244115 13
-1.5831628 9.1818886 2.9501033 15
-1.6470835 9.1538229 3.0671947 15
-1.046716 -0.83621043 0.25118735 13.714286
-0.87808776 -0.79582053 0.24171387 14
-1.1961536 -0.86804634 0.36327189 15
-0.87302035 7.5820737 0.75175029 9
-0.97487861 7.5598879 1.153824 10.5
-1.0269086 7.5826344 1.0786312 10
-0.96647394 7.5729599 1.6058601 12.333333
-1.0445657 7.6185613 2.1022725 14
-1.0085802 6.8028502 2.26578 15
-0.55530894 -0.45896947 -0.21802668 0
-0.61153096 -0.34478262 -0.22649339 0
-0.65404421 -0.74616838 0.2275206 14.666667
-0.81207228 7.6006012 0.78490251 9
-0.60170591 7.6533279 1.1715071 10.6
-0.64885646 7.6363363 1.6855388 12.5
-0.6597454 7.648489 1.9431466 13.5
-0.63973117 6.8741097 2.2852314 15
-0.85072911 7.2553878 2.2806761 15
-0.1375939 -0.62522668 -0.18672888 0.40000001
-0.087191775 1.454977 0.40248859 14
-0.25671753 7.7886305 1.1546766 10.5
-0.30839419 7.7878308 1.6533047 12.25
-0.3288025 7.7930284 1.947787 13.333333
-0.26585612 6.9313741 2.3037474 15
-0.32348591 7.421411 2.3151393 15
-0.33800304 7.8220544 2.2466619 14
0.20675933 -0.60462427 -0.096395843 3.5238094
0.22185518 -0.60461432 0.033458591 9.1428576
0.11501449 1.4400498 0.42227694 14.333333
0.3395026 1.7787125 0.41426507 12
0.17201945 7.9020586 1.2044493 10.5
0.10200851 7.8860526 1.7040598 12.4
0.041418813 7.8824868 1.9890901 13.333333
0.11140477 6.9893861 2.3257775 15
0.22404091 7.7446251 2.3138099 14.5
0.74614382 -0.046962399 -0.14803994 0.5
0.70470595 0.23266467 -0.13621627 0.85714287
0.64253199 0.60303915 -0.1459673 1
0.7209276 0.99086022 -0.15124159 2.25
0.76856768 1.3008687 -0.12744975 3.3333333
0.74079937 -0.42668763 0.26311144 15
0.44399703 1.5172027 0.4268015 13.5
0.43029544 7.9580336 1.1937672 10
0.55616754 7.9973283 1.2185481 10.6
0.34974986 7.9430618 1.6927546 12
0.63867003 8.0081873 1.7086291 12.25
0.36258578 7.9422259 1.9399539 13
0.55302459 7.9773588 1.9606816 13
0.58309346 7.0406942 2.3514438 15
0.99905306 -0.087702096 -0.12518735 2.3333333
1.0116315 0.20362493 -0.11401196 2.8571429
1.0136324 0.62608445 -0.12165131 2.8571429
0.99511695 1.0115514 -0.13433693 2.8888888
1.0065613 1.414821 -0.13205206 3.5999999
0.99029112 1.7450621 -0.13748524 4
1.0339875 2.1588538 -0.13921639 4
0.80421978 -0.41128811 0.2567468 14.5
1.0142462 -0.36700246 0.28246793 13.714286
1.154774 8.1357079 0.98254627 9
0.99357337 8.0838623 1.245995 10.5
1.0366588 8.0957947 1.679235 12
0.84449601 8.0488892 1.9978465 13
0.93220687 7.0658312 2.3693452 15
0.87907338 7.5644503 2.3508141 15
1.3410668 -0.11242381 -0.10660806 3.6666667
1.3494992 0.25935444 -0.09586063 3.75
1.4376438 0.62591052 -0.081025966 4.1999998
1.436173 0.99535286 -0.097116679 4.1999998
1.38513 1.4536194 -0.10666781 4.25
1.403479 1.7132362 -0.088480458 5
1.4235809 2.1040547 -0.11948926 4.3333335
1.4921441 2.4823449 -0.1406683 4
1.4432559 -0.24234937 0.31366643 12.4
1.5431604 8.0403757 0.51424581 7.5
1.4478211 -0.24750493 0.46883014 15
1.3339938 8.1127148 0.9860276 9
1.3549618 8.1746407 1.2632142 10.333333
1.3428636 8.1662617 1.638981 11.333333
1.2615144 8.1485567 1.9806864 13
1.2857829 7.083745 2.3883283 15
1.3655699 7.6291633 2.3752012 15
1.7129526 -0.17127089 -0.023316048 5.5
1.7492129 0.15283254 -0.053878941 5
1.794306 0.52951157 -0.0578162 5
1.8381425 0.9969117 -0.064352408 5
1.8258811 1.3170433 -0.0747068 5
1.8195741 1.8069332 -0.11443736 4.5
1.7311772 2.2582107 -0.07325355 5
1.7610756 2.6573231 -0.10397581 5
1.8137783 3.1944847 -0.14452124 5
1.6814343 -0.15591025 0.23938315 10.153846
1.617226 0.040057123 0.34432003 12
1.8589201 4.9705296 0.57234329 9
1.6784753 5.6898799 0.62542963 9
1.6563772 -0.14804253 0.51263624 14.666667
1.6157322 0.036267877 0.49304414 14.5
1.9434059 4.6184602 0.65384996 9.666667
1.8840908 4.9186001 0.67259425 9.5
1.7537915 8.2852058 1.0247355 9
1.7006323 8.2494926 1.2095842 10
1.7196587 8.259387 1.6857779 11.5
1.7336321 8.2555456 2.0573606 13
1.5592812 7.1102314 2.4084802 15
1.7517388 7.1484799 2.4287336 15
1.6734434 7.6985207 2.400439 14.5
2.2588625 0.21309887 -0.0026965728 5.5
2.2496624 0.6485641 -0.046010721 5.3333335
2.2753298 1.1360096 -0.040299948 5
2.3140209 1.5008724 -0.04025583 5
2.2766166 1.876179 -0.060531698 5
2.0922909 2.1476276 -0.11007892 5
2.0796552 2.8384807 -0.055452313 5
2.4019537 3.3705697 -0.048879702 5
2.0591662 3.7372677 -0.14829992 5
2.3299353 4.4653163 0.049242038 6
2.2312057 0.1509624 0.28638157 9.6000004
2.2498777 4.1787267 0.59675044 9
2.0900507 5.9903741 0.24954484 7
2.0300663 6.1038513 0.57230777 8
2.1588917 0.17809007 0.58662856 13.714286
2.0550478 4.2888169 0.60540086 9
2.0150459 8.3362799 1.0524956 9
2.1511898 8.3775454 1.0511 9
2.0907969 8.349474 1.2934443 10.333333
2.2872369 8.388485 1.3244011 10
2.0500817 8.3339338 1.7024277 11.5
2.2788393 8.3867321 1.7144461 11.5
1.9830273 8.3093939 2.141222 13
2.2643304 8.3771553 2.0924816 12.5
2.1634803 7.1160674 2.4428024 15
2.1155763 7.8429408 2.4515846 14
1.9862937 8.2585659 2.3441255 14
2.483537 0.37329549 -0.022395086 6
2.6375 0.6881457 0.050324239 6
2.5339689 0.94930112 -0.039026145 5.5
2.6514542 2.2455876 -0.045160968 5
2.5744147 2.7500818 -0.10189337 5
2.4675949 0.27231741 0.36784631 10.5
2.6573737 0.66022569 0.34879386 9.3999996
2.4818637 1.0007701 0.37401721 9.6999998
2.6607373 1.234707 0.33536351 9
2.6286516 4.2016273 0.61023849 9
2.5198433 5.023942 0.26269966 7
2.5712769 7.7978053 0.49057898 7.5
2.4807398 0.28631848 0.73622191 14
2.6711271 0.54730219 0.68650723 12.857142
2.6519628 0.99866015 0.67802167 12.428572
2.6443152 1.2218914 0.56949598 11.5
2.5296576 4.1623535 0.65313643 9.5
2.52793 8.460804 1.0817326 9
2.5517037 8.4469786 1.364064 10.4
2.569535 8.4486818 1.7648102 11.666667
2.5466514 8.433013 2.1539586 12.666667
2.5948219 7.1186905 2.4698963 15
2.5538428 7.9014697 2.4820395 14
2.5950925 8.1529026 2.3584707 14
2.900538 5.5606108 -0.22017755 5
3.0089765 0.46580553 0.02879438 6
2.9067059 1.1207392 0.066512458 6
2.8437657 1.4749064 -0.012508069 6
3.0119874 1.7909034 -0.0072900159 6
3.086731 0.38751331 0.30787438 9
2.8519423 0.50775033 0.33747613 9.333333
2.8938234 1.1285052 0.21509947 7.5
2.7878489 4.2280478 0.60736507 9
2.8779345 6.0060954 0.55386144 8
3.0275984 0.35862568 0.68859684 12.5
2.93294 0.51359671 0.68847549 12.4
2.7879004 1.0031672 0.75918067 12.8
2.9652009 8.5672579 1.1279941 9
2.7716925 0.49185947 0.91070789 15
2.9172955 0.81414998 0.95785427 15
2.9518731 8.5336494 1.273247 10
2.9387586 8.5369673 1.6396159 11
2.910501 8.5233212 2.1358149 12.333333
2.9852481 7.1016955 2.4934294 15
2.9851341 7.8836966 2.4951732 14
2.8107493 8.1507492 2.3723788 14
3.2150016 2.1957772 -0.002118866 6
3.3305562 2.9110751 -0.031863287 6
3.4960084 0.50756866 0.33856618 9
3.5731165 3.9105661 0.48577842 8.5
3.5462301 4.0862889 0.5000447 8.5
3.5415397 6.4735193 0.60723561 8
3.5040781 6.9865398 0.64452326 8
3.3846922 7.3867712 0.6762253 8
3.4459751 0.48648524 0.67118663 11
3.559473 3.8906775 0.88117373 10.333333
3.5328021 4.1015348 0.89122534 10
3.5230715 6.9195385 1.0220796 10
3.3931723 7.3640938 1.014424 9.333333
3.5501578 3.8808422 1.2551262 12.5
3.5203009 4.0157995 1.3585068 13
3.5479577 6.5618701 1.2618227 10.5
3.4880812 6.9454589 1.2737582 10.333333
3.3761985 7.3609781 1.3864393 10.666667
3.1961458 8.5804062 1.4665004 10.5
3.5319042 3.819586 1.6320621 14.5
3.5156863 4.0108886 1.5584714 14
3.5344048 6.625978 1.6575968 12
3.4765179 6.9050188 1.7033894 12
3.3812814 7.2688422 1.8664917 12
3.3017766 7.5583997 1.9156858 12
3.1756973 8.5685587 1.8728349 12
3.5214345 6.5905695 2.1096969 13.5
3.4546506 6.9366083 2.2138846 14
3.3660927 7.3297467 2.1225934 13.25
3.2831657 7.6744399 2.2988985 14
3.3348103 8.0371666 2.1049559 12.5
3.1882877 8.5196695 2.1871417 12.5
3.5115855 6.7007866 2.4245243 15
3.3680248 7.0403876 2.5054619 15
3.3370969 7.4013309 2.3879454 14
3.3095958 7.8483348 2.5010962 14
3.2224276 8.2630491 2.3908486 13
3.9308023 3.5352035 0.1184248 6.5
3.8653765 0.59021842 0.18368712 7
3.9713912 2.2678728 0.45080078 8.5
3.9116693 2.5693915 0.44279858 8.166667
3.8142593 3.0002367 0.45972967 8.2857141
3.7640703 3.4176373 0.40074888 8
3.6169868 3.73034 0.48733231 8.666667
3.9315135 5.378531 0.56541008 8.333333
3.7838793 5.7253203 0.54273719 8
3.776804 6.2209487 0.61873901 8
3.8727176 0.60229886 0.69810677 11
3.9642699 2.2541142 0.74488479 10.333333
3.883244 2.6042304 0.74195641 10
3.7843406 3.0644524 0.75034356 9.833333
3.7003601 3.3923326 0.77992868 10
3.6096084 3.6834838 0.80948031 10
3.8979673 5.4132481 0.91855794 9.5
3.7831585 5.7746549 0.92844152 9.666667
3.6469698 6.3113914 0.85034549 9.5
3.7732022 3.1217949 1.2217416 12.5
3.6808941 3.3458292 1.2628071 12.666667
3.6703973 3.6521361 1.2850291 12.5
3.880224 5.4094982 1.2444952 11.333333
3.7570043 5.7978458 1.3213279 11.333333
3.6753137 6.1710358 1.2645894 10.8
3.5901961 6.3763981 1.3126185 11
3.9189146 2.9914417 1.6693162 15
3.8110356 3.4462595 1.6641093 14.5
3.6358545 3.6987779 1.550022 14
3.9349432 5.0527644 1.7570602 13.5
3.8743005 5.3413982 1.712382 13
3.7606053 5.7366009 1.7005076 12.5
3.6502433 6.1594524 1.8026258 12.666667
3.5497587 6.4099512 1.7190763 12
3.5561085 4.0041571 1.8790569 15
3.9126627 4.9644976 2.1872075 15
3.8273888 5.3760319 2.1003213 14.666667
3.7669525 5.6568794 1.9307705 14
3.6312351 6.1549516 2.1372952 14.4
3.541451 6.6187539 1.9436088 13
3.7939854 5.4438114 2.3047452 15
3.7150445 5.7558389 2.3826489 15
3.5994902 6.20294 2.4959307 15
4.178741 2.2775314 0.10125392 6
4.0874009 2.8825371 0.10668448 6
4.0498562 4.6269493 0.020202542 5.5
4.0271492 6.1418452 0.17444852 6
4.0533667 2.1442983 0.36909518 8
4.0449119 2.8786016 0.25395021 7
4.1294384 4.9757209 0.40688139 7.5
4.3722239 5.221477 0.5860281 8
4.0150919 6.2251754 0.39673188 7
4.0220737 1.9130566 0.80811286 11
4.0702295 2.0734773 0.82963914 11
4.0272374 2.5346322 0.90469742 11
4.184227 3.1425955 1.0088137 11
4.3140998 3.2454021 1.0316836 11
4.0133052 5.0193386 0.90348732 9.5
4.1754436 0.91028184 1.1690536 13.571428
4.2759314 2.1808705 1.0178708 12
4.236568 3.0952909 1.2557012 12.333333
4.1046343 3.2105253 1.193009 12
3.9985702 4.9363694 1.2177697 11.333333
4.1748009 0.97561574 1.385217 15
4.2259622 1.8159941 1.584677 15
4.1547399 2.038765 1.6243116 15
4.088654 2.4824448 1.5729359 15
4.1649079 3.0279458 1.5443575 14
4.0844398 3.3176529 1.4878006 13.5
3.9735405 4.9413557 1.6620797 13
3.9390345 4.9158888 1.9940469 15
4.3823009 2.9806654 0.99193496 11
4.7289209 1.4015701 1.2997003 13
4.7326336 1.5664147 1.3869531 14
4.5544953 2.1811306 1.2815093 13
4.4386249 2.5938399 1.2222455 12.5
4.3839788 2.9772294 1.2285564 12.2
4.6915708 1.3992382 1.5101 14.5
4.56252 1.7064806 1.5260868 14.333333
4.531424 2.1897826 1.4884001 14.2
4.4422898 2.5190446 1.4971381 14
4.3923869 2.8251448 1.5313878 14
4.782146 1.3459224 1.3684455 14
