# .PCD v0.7 - Point Cloud Data file format
VERSION 0.7
FIELDS x y z intensity
SIZE 4 4 4 4
TYPE F F F F
COUNT 1 1 1 1
WIDTH 193
HEIGHT 1
VIEWPOINT 0 0 0 1 0 0 0
POINTS 193
DATA ascii
0.041229252 -0.79680544 -0.16773614 206
0.15550387 -0.82161301 -0.17444621 199.63637
0.26398191 -0.84811342 -0.1693577 198.90909
0.49681035 -0.80518764 -0.18006058 160.5
-0.062003568 -0.75397408 -0.1871444 204.27272
0.054032419 -0.77920085 -0.18273689 198.7
0.19160302 -0.73869067 -0.20871666 155
0.29360056 -0.72243583 -0.19807656 160.5
0.37988776 -0.7350167 -0.15813661 192.42857
0.49088854 -0.74573463 -0.18305616 171.75
0.058949862 -0.64600694 -0.21417823 153.8
0.1850443 -0.67586613 -0.20811279 154.75
0.27712914 -0.63231522 -0.19417617 162.83333
0.39144832 -0.63395309 -0.18564606 170.5
0.48016459 -0.65797341 -0.18185234 166.8
0.63791203 -0.60651547 -0.14979711 194.39999
0.73294824 -0.6192587 -0.11788159 149.11111
0.084997848 -0.52336216 -0.20425035 161.14285
0.16239487 -0.54619694 -0.19740957 164.75
0.25494495 -0.55153483 -0.18922386 172.09091
0.36303195 -0.54409343 -0.18053167 175.23077
0.46333945 -0.54737633 -0.17093682 175.57143
0.5522269 -0.55675119 -0.13321473 186.875
0.6583389 -0.55619204 -0.14248441 179.5
0.76067525 -0.54147774 -0.14806587 168.5
0.11259716 -0.47548315 -0.19876394 166
0.16305701 -0.4580825 -0.1970097 176.5
0.26286805 -0.47336137 -0.18758959 180
0.36768964 -0.46771216 -0.18181261 179.76923
0.47904572 -0.43769222 -0.16787481 176.11111
0.55963016 -0.44328159 -0.15121712 176.63637
0.65841806 -0.43943787 -0.14046437 176.75
0.74695903 -0.44219682 -0.13883515 175.5
0.86744827 -0.44480765 -0.13370097 168.5
0.19225626 -0.34541631 -0.19790487 175.66667
0.27798188 -0.35251361 -0.18866009 171
0.36962923 -0.33863091 -0.17617317 160.27586
0.45872128 -0.33434731 -0.16214167 158.13637
0.56206048 -0.34482706 -0.15008019 161.8
0.65506214 -0.33472234 -0.13124393 166.33333
0.76113868 -0.35009244 -0.12190314 173.125
0.86155385 -0.34135655 -0.11795559 174.8
0.93941408 -0.33846948 -0.11660923 170.5
0.29165322 -0.22030281 -0.18488853 142.33333
0.37437221 -0.25963762 -0.17843033 142.18182
0.47041795 -0.27302316 -0.16125259 145.04347
0.56791949 -0.23847556 -0.14637811 151.23077
0.66603881 -0.24403499 -0.12924321 155.69565
0.74517894 -0.2416489 -0.11103512 164.5
0.84934676 -0.23923409 -0.10542669 172.5
0.95189714 -0.25748655 -0.11237903 171.33333
0.36959243 -0.12457155 -0.17460804 154.05
0.46200785 -0.1248149 -0.16735309 154.72414
0.56957346 -0.14002597 -0.15440285 154.51852
0.64513552 -0.14200898 -0.13183737 153.27499
0.75104988 -0.16670461 -0.11033295 159.16667
0.40495038 -0.0081896251 -0.16472182 156.05
0.47020584 -0.056902472 -0.16131948 162.38962
0.53538978 -0.07192149 -0.15537564 155.09525
0.20115134 0.10061724 -0.15704487 158.625
0.25176579 0.08978042 -0.16846289 157.15384
0.3845982 0.036837064 -0.16476867 155.41176
0.45297512 0.099922344 -0.15652071 164
0.008013512 0.20260112 -0.18153147 175.33333
0.079276569 0.16647756 -0.18082225 169.22223
0.16849105 0.15578379 -0.16529106 161.47368
0.26551378 0.14465134 -0.14216284 152.58696
0.36859238 0.15041165 -0.14269198 149.43333
0.45545557 0.15225421 -0.15448174 161.66234
0.51668638 0.18741405 -0.14929837 166
-0.19710147 0.30639642 -0.18108937 187
-0.11900022 0.26570815 -0.17531821 183.36363
-0.029045841 0.22047071 -0.17697895 178.55556
0.068045944 0.22373629 -0.16662599 162.5
0.15349346 0.29043531 -0.17075869 169.8
0.28008413 0.25279093 -0.15768521 163.53847
0.36756203 0.23826379 -0.15250112 168.02083
0.45774373 0.23807997 -0.14937134 169.33333
0.54931211 0.27537262 -0.12832628 174.73914
-0.33339125 0.37845066 -0.19659135 182.39999
-0.23989518 0.32845113 -0.18300813 189.5
-0.13634245 0.3563067 -0.14849487 183
0.078927755 0.35756329 -0.16311172 178.69231
0.16396934 0.35253632 -0.1599815 175.84
0.26326755 0.36971599 -0.15034041 174.73914
0.37420645 0.36222756 -0.14032348 174.03226
0.47517374 0.34056708 -0.12937336 175.5
0.55901605 0.35819119 -0.12077631 177.75
0.62556499 0.36979631 -0.10640717 181.63637
-0.58555889 0.50832224 -0.20766062 128
-0.53203619 0.48144904 -0.20885588 140.33333
-0.43093884 0.42880639 -0.2014406 162.5
-0.33023235 0.49845996 -0.19559975 175.5
-0.2540617 0.44482848 -0.18582132 186
-0.021195186 0.46601209 -0.15456067 187.42857
0.065424748 0.44332811 -0.15639046 183.9375
0.16303144 0.46468666 -0.15107051 182.60001
0.26437601 0.47054261 -0.14565969 181
0.36209777 0.47185937 -0.13247135 181.42857
0.44987187 0.45801154 -0.12739077 181.04762
0.55228853 0.43882802 -0.10786153 183
0.66671014 0.46550804 -0.092827149 188.11111
-0.73366159 0.58672309 -0.22522406 113
-0.65482789 0.54500139 -0.21592228 119.5
-0.43582413 0.57062113 -0.2005709 151.66667
-0.35831943 0.51584464 -0.18978526 168.5
-0.12237532 0.58623546 -0.1714049 188
-0.032031078 0.54548061 -0.15467396 190.75
0.068806231 0.55638504 -0.14903748 188.77777
0.17280403 0.55809808 -0.14072815 187.625
0.27006158 0.55307043 -0.12692285 186.57143
0.34238166 0.54632896 -0.11818302 186.5
0.45343843 0.55670607 -0.11124888 187.57143
0.56697571 0.55589056 -0.10252599 189
0.63656455 0.53181112 -0.091899551 190.8
0.75223738 0.56480765 -0.089552559 191
-0.59418672 0.67888874 -0.20826939 120
-0.52625614 0.63258827 -0.20551422 132.66667
-0.20371811 0.67693239 -0.17057768 174
-0.164281 0.63302863 -0.1711424 181
-0.046938505 0.65199089 -0.16527602 186.39999
0.050767701 0.67958874 -0.15754679 185.2
0.163219 0.64784813 -0.14428167 189.66667
0.25404868 0.63742268 -0.13057306 190.33333
0.33759511 0.63420421 -0.12186225 190.5
0.43780598 0.64290231 -0.11167831 190
0.58035606 0.66972101 -0.10563327 191.14285
0.68804157 0.63491744 -0.091392376 189.2
0.78521663 0.61666811 -0.082767852 184
-0.65094119 0.71917212 -0.21687448 114
-0.30551353 0.79132271 -0.17170936 143
-0.26962405 0.75291461 -0.17594074 160.33333
-0.10512835 0.73691148 -0.16483217 177.5
-0.0032443239 0.7875222 -0.15947181 178
0.016931821 0.74980181 -0.16237593 182
0.13392806 0.73705196 -0.14967529 186.60001
0.23684631 0.7355262 -0.13876158 185
0.33259147 0.74637467 -0.12964207 186.60001
0.43025079 0.75144291 -0.11844867 184.5
0.52428454 0.72341508 -0.10550774 188.5
0.63090473 0.744946 -0.097433731 185
-0.38770261 0.88431954 -0.17418593 120
-0.34094983 0.8307097 -0.17106591 132
-0.20271407 0.88072944 -0.16671154 155
-0.16952287 0.83400774 -0.17015453 166
-0.049457669 0.87828594 -0.15890436 165
0.097185954 0.84080786 -0.14851221 176.25
0.2069989 0.87041456 -0.13261461 174
0.21942155 0.82308513 -0.14024681 181.5
0.32360479 0.84585977 -0.12361775 178.5
0.43548942 0.85102904 -0.11430109 175.25
0.54611522 0.82729906 -0.10668423 178.66667
-0.22878172 0.91687524 -0.1629903 146.5
-0.095584296 0.96809131 -0.15724133 156.5
0.060873028 0.94431186 -0.14828672 165
0.18736705 0.9632923 -0.13094732 166.33333
0.31829959 0.93201894 -0.12541358 169
0.12342235 -0.81558484 -0.074532852 207.45454
0.22946438 -0.83575797 -0.063508332 205.54546
0.33180451 -0.88676012 -0.028722459 208
-0.1020314 -0.75012106 -0.056636773 205.33333
-0.088858679 -0.75221902 -0.1011172 207.25
0.018455977 -0.78221512 -0.079771265 207.5
0.3465659 -0.7641983 -0.064389311 193.72728
0.43276381 -0.78404254 -0.0061553484 206.5
0.49752492 -0.62268424 -0.00018175053 181.66667
0.50856143 -0.60768205 -0.041738298 187.2
0.71436244 -0.63245231 -0.046651747 133.2
0.57574886 -0.58377808 -0.034395073 189.8125
0.15753326 0.16617151 -0.041304972 128.85294
0.23498812 0.15347722 -0.065692343 125.85
-0.0025697381 0.24680509 -0.070946544 169
0.04904262 0.20370767 -0.037676699 150
0.14610039 -0.8258006 0.020317825 205.625
0.20330922 -0.84761572 0.0070117987 207.16667
0.30854905 -0.89220852 0.037520144 206.45454
-0.0026546286 -0.77470416 -0.0063438551 204
0.035059374 -0.77479947 -0.0010226653 205.66667
0.097689465 -0.79701799 0.01748807 206
0.41050401 -0.76922899 0.051832452 192.08333
0.48305172 -0.64699143 0.057671707 184.73334
0.66405231 -0.61418021 0.062652737 135.55556
0.54416275 -0.5728597 0.071462385 186.39999
0.63805878 -0.59936249 0.11081637 181.5
0.13235532 0.17324185 0.049465906 122.625
0.082057931 0.26582766 0.049512014 142
0.12728427 0.20552343 0.072875582 139
0.28844753 -0.88596177 0.095317945 203
0.3836754 -0.7729122 0.12882635 193.5
0.44959065 -0.73940438 0.14306702 183.375
0.47059631 -0.6850487 0.11970651 188.25
0.51001793 -0.5663417 0.15860906 185.23077
0.61528921 -0.60108101 0.17586863 189.13333
