# .PCD v0.7 - Point Cloud Data file format
VERSION 0.7
FIELDS x y z intensity
SIZE 4 4 4 4
TYPE F F F F
COUNT 1 1 1 1
WIDTH 487
HEIGHT 1
VIEWPOINT 0 0 0 1 0 0 0
POINTS 487
DATA ascii
-4.1893024 7.3830376 0.26235917 8
-4.0789337 7.6149888 0.3106088 8
-4.3681293 6.9801736 0.65855372 9.5
-4.2271338 7.3202987 0.71909291 9.5
-4.1058702 7.9834108 0.47950593 9
-4.3606815 7.0752921 0.90563875 10.5
-4.219357 7.4172459 0.96040469 10.5
-4.1591253 7.7980847 1.0019696 10.5
-4.1319299 8.0019751 0.89311606 10
-4.3970985 6.9709673 1.3827007 12
-4.2571883 7.3597164 1.4673647 12
-4.138308 7.6120472 1.5392599 12
-4.1260595 8.0058117 1.4114947 11
-4.420084 7.0104361 1.6587045 13
-4.2502394 7.3011546 1.6626095 13
-4.4614458 6.8837962 2.1683185 14.5
-4.3417668 7.2551231 2.0834029 14
-4.354321 6.9976387 2.3823097 15
-4.2668786 7.2579336 2.4299264 15
-4.269969 7.7782106 2.6211948 15
-3.9578748 7.8256068 0.34943229 8
-3.8036087 9.0566921 0.48247269 8
-3.8399868 7.6474299 0.73502934 9
-3.8163605 9.1146879 0.80397379 9
-3.6319978 9.7631903 0.61495614 8.5
-3.7811606 6.7287202 1.0355958 11
-4.009469 7.9259734 0.86283445 10
-3.9686985 8.451313 0.98036259 10
-3.8322313 9.0069675 1.0229341 10
-3.7246437 9.4781227 1.0850023 10
-3.6826742 9.6161737 1.0671543 10
-3.9797091 7.5323386 1.5213629 12
-3.7669592 7.5545077 1.5467168 12
-3.7392821 9.5963478 1.4720984 11
-3.8043551 6.8361406 1.8356649 13.5
-4.0966253 8.2912569 2.3487015 14
-3.9983816 8.8862724 2.271745 13
-3.9762635 8.926672 2.8278618 15
-3.804388 9.2694054 2.6056654 14
-3.2915752 9.961175 0.82488024 9
-3.4746482 10.051958 0.66126478 8.5
-3.3023283 7.4164658 1.1763506 11
-3.2778549 9.9295311 1.1632718 10
-3.5712991 10.027493 1.1359981 10
-3.4291942 7.3982053 1.5303189 12
-3.3411484 9.9144421 1.5511897 11
-3.6217952 9.9767332 1.5383952 11
-3.5604041 6.9197512 1.7202983 13.5
-3.4040928 7.3641047 1.7350485 13
-3.6468189 9.7927713 2.007395 12
-3.5337341 10.098541 1.7786202 11
-3.6949189 7.0004272 2.4028602 15
-3.7624233 8.5633078 2.900034 15
-3.680851 8.9504404 3.0286503 15
-2.8580663 1.1423962 0.10032558 9.75
-2.8300107 1.2586302 0.10678665 9.75
-2.8894153 7.305429 0.46589434 8.5
-2.8686371 1.1433121 0.45153928 13
-2.8516936 1.2296935 0.48031116 13
-3.1753874 7.3951831 0.54863894 9
-3.1718969 10.13548 0.91863739 9
-2.9295478 1.0132 0.69583565 15
-2.8748822 1.2400143 0.72753805 15
-3.1641889 10.080877 1.2172343 10
-3.0414953 10.612021 1.0423161 9
-3.1319327 7.3250494 1.5568657 12
-3.1782997 10.22428 1.6115358 11
-3.042325 10.662007 1.6876373 11
-3.1708741 11.674412 1.6042557 10
-3.025176 12.279542 1.7044199 10
-3.1560986 7.364737 1.8480569 13.5
-3.0935583 12.182623 2.025207 11
-3.2056761 11.976646 2.4782028 12
-2.990731 12.329955 2.5670097 12
-3.3943224 10.25258 2.8696225 14
-3.065341 12.39388 2.9232578 13
-3.2507815 10.117264 3.219517 15
-2.7874186 1.417047 0.1391145 9.8571424
-2.6927836 1.7847238 0.17494115 10
-2.5939784 2.1642823 0.17099269 9.4285717
-2.4870372 2.5662103 0.20366581 9.5
-2.4191 2.818064 0.19646074 9
-2.8003018 1.4190775 0.45817819 12.714286
-2.7051561 1.7947614 0.47639012 12.444445
-2.6151166 2.1427636 0.46900097 12
-2.4895656 2.604214 0.48714772 11.714286
-2.6567583 7.2781191 0.76216483 9
-2.8266616 1.3484879 0.70864689 14.666667
-2.7062898 1.8244663 0.75305325 14.666667
-2.6151857 2.1687562 0.79285139 14.5
-2.5242147 2.5240803 0.87434423 14.6
-2.5665584 7.1208968 1.5372447 12.5
-2.8168218 7.2939167 1.5835487 12
-2.6852124 13.635869 1.9314116 10
-2.8283927 7.1439466 1.9067141 14
-2.7962644 13.302299 2.107018 11
-2.8412077 13.06926 2.7270105 12
-2.7061906 13.251071 2.8689272 12
-2.8529167 10.071113 3.3681099 15
-2.3812828 2.9811766 0.23743403 9.333333
-2.2853794 3.336041 0.22757651 9
-2.4398937 2.7641194 0.53917617 12
-2.3936944 2.9786563 0.52747244 11.5
-2.2909877 3.3519917 0.53062385 11
-2.400553 3.0274897 0.91481435 14.166667
-2.3057024 3.3638806 0.93564051 13.8
-2.15995 7.0780034 0.94312912 10
-2.3327529 7.1979036 1.0681139 11
-2.2064371 7.0799932 1.5414613 12.5
-2.4357293 7.1519508 1.5749173 12.5
-2.2989147 14.832298 1.9295815 10
-2.2389383 7.0711751 1.9206182 14
-2.4415648 7.1286325 1.9233017 14
-2.3986073 14.870303 2.3751616 11
-2.5413005 14.010701 2.7803967 12
-2.2747498 15.530765 2.8749509 11
-2.3201399 14.784751 2.9364393 12
-1.8966383 8.23283 0.80545962 9
-2.0288727 7.0133123 1.5317518 12.5
-2.065331 15.860815 2.0916095 10
-1.9034816 16.522995 2.3090746 10
-1.88811 16.666559 2.6853843 11
-2.1690226 9.8689566 3.3357315 15
-1.9477062 14.852172 3.2967372 12
-1.3726748 -0.34512207 0.18502732 13.166667
-1.3644102 -0.35496855 0.29839721 15
-1.2589365 7.9651227 0.83548003 9
-1.5570025 6.9503064 1.239261 11.5
-1.4928424 17.651997 2.3524981 10
-1.5748483 17.602077 2.8506393 11
-1.4370854 11.559459 2.8827589 13
-1.6151233 16.860449 3.595176 12
-1.4823774 17.578434 3.5054531 12
-1.0166789 -0.43799135 0.18625265 14.2
-1.1641151 -0.39845529 0.19867016 14
-1.2151564 6.8316827 1.0880777 11
-1.0516977 17.847698 2.4794815 10
-1.0065756 12.217311 2.8308973 13
-1.1715168 17.880356 2.9256606 11
-1.2538887 9.41467 2.7304163 14
-1.1541595 11.539942 2.9067898 13
-1.2112476 9.6585817 3.1796362 15
-1.2915483 18.01145 3.8564272 12
-0.47619423 0.59783071 -0.20099355 0.5
-0.463202 1.6926894 -0.1565496 4
-0.77793175 -0.49775097 0.1840883 15
-0.6191594 17.468695 2.4859238 10
-0.7076562 12.142491 2.8532362 13
-0.93738014 17.7418 2.694699 10
-0.7611264 18.166826 3.0005417 11
-0.84006822 9.4676323 3.138339 15
-0.81092012 9.9562302 3.1198823 15
-0.97176033 10.460787 2.8493226 14
-0.87118632 11.450169 2.9142575 13
-0.61926746 11.904932 3.0479496 13
-0.63647884 13.124924 2.9218485 12
-0.86951554 14.59796 3.3639414 12
-0.22063349 0.66157734 -0.17244871 0.2
-0.14544305 0.98930228 -0.15645315 1.75
-0.20688096 1.3915943 -0.1331186 3.5
-0.26589227 1.8506595 -0.12204523 4
-0.2290183 1.3913896 0.404944 14
-0.1402337 1.6260931 0.42903146 13.333333
-0.26737475 1.3799719 0.45080587 15
-0.14912678 8.8627529 1.3973314 10
-0.4915913 9.3726358 3.1287363 15
-0.20404564 15.915892 3.2727189 12
-0.44796437 17.394823 3.2484453 11
-0.52165312 14.53021 3.3892329 12
-0.40627033 12.825329 3.9478288 14
0.24983177 -0.84239793 -0.1469622 2.8333333
0.28772581 -0.70209861 -0.15507098 1.9090909
0.24138914 0.6475904 -0.13316548 0.2
0.20987906 1.0025932 -0.1216132 2
0.15706074 1.4438347 -0.081856862 3.7142856
0.24185391 1.759372 -0.070146374 4.6666665
0.21038349 2.2130284 -0.069518179 5
0.18612844 2.5276322 -0.062193606 5
0.15228128 2.9704418 -0.052724127 5
0.10590682 3.5793025 -0.040184844 5
0.30382869 -0.88638788 0.05131577 9.5
0.34604365 -0.77170336 0.161743 12.666667
0.14759482 1.4805548 0.38109538 12.8
0.12694377 1.6179954 0.35122228 11.666667
0.19468544 17.251143 2.5618098 10
-0.12142735 17.274969 3.1070433 11
-0.038515508 9.3343906 3.1437097 15
0.16166431 14.270209 3.4134126 13
0.17640203 15.819349 3.2775612 12
-0.029539902 17.257162 3.240391 11
-0.175771 14.379056 3.397687 13
-0.090597495 12.793458 3.9500432 14
0.49236217 -0.90460825 -0.134459 3.6666667
0.59719169 -0.60468417 -0.093339674 3.4347825
0.66912872 -0.23324907 -0.12700815 0.77777779
0.60538822 0.36216232 -0.10790561 0.33333334
0.61891657 0.60912365 -0.096793257 1.4444444
0.59781879 1.0011407 -0.091530457 2.5
0.5639444 1.3621292 -0.071609914 3.6666667
0.60420626 1.8239007 -0.039304364 4.5
0.79514521 2.1713803 -0.023643764 5
0.54232174 -0.63316232 0.13034835 11.095238
0.67439455 7.9851241 0.57719386 8
0.47069278 11.847755 1.3199776 9
0.67566663 12.046813 1.2852234 9
0.59876555 17.130611 2.5971007 10
0.30797121 17.204681 2.754142 10
0.52501696 18.043924 3.0821109 11
0.41198933 9.2397175 3.1441772 15
0.4948186 14.175858 3.4332058 13
0.3814553 17.167887 3.2396653 11
0.53881019 14.165762 3.4604042 13
0.22231667 12.793194 3.9633086 14
0.44595632 19.207289 4.2529283 12
1.0686607 -0.8802613 -0.020152835 5.75
0.9876563 -0.62177408 -0.10454393 3.4000001
0.99821639 -0.31696004 -0.11213569 2.3333333
0.84805077 0.71337891 -0.074153855 2.5
0.95308942 1.015301 -0.051119201 3.5999999
1.0255913 1.3800033 -0.02489011 4.1999998
1.0054516 1.7200588 -0.017112581 4.75
1.0782129 2.1264613 0.00044017413 5
0.87886876 2.6109803 -0.0030945933 5
0.96177298 3.0489841 0.018879063 5
1.0624943 -0.93616188 0.20961399 10.5625
0.97181231 -0.74346143 0.32103443 13.333333
1.0273364 14.139013 1.3803736 8
0.96331257 17.037243 2.6002011 10
0.86647773 9.2771101 3.1894121 15
0.82452589 14.113767 3.4600341 13
0.78770936 17.043924 3.2339139 11
0.95590836 14.035928 3.7279239 13
0.89717174 19.118443 4.2767615 12
1.4085796 -0.85155392 0.013152749 6.3333335
1.3994614 -0.63194978 -0.082601205 4
1.2513223 -0.3952488 -0.10028588 3
1.2812076 1.3860244 -0.0015300188 5
1.3729912 1.7612491 0.01857472 5
1.4202162 2.1796002 0.036761638 5
1.4195789 2.5990429 0.049052041 5
1.3664813 3.0077322 0.0543117 6
1.4965209 3.4057174 0.07906425 6
1.3830471 -0.89518112 0.22794032 10
1.4152278 -0.60368359 0.34786296 11.833333
1.5399656 -0.35759118 0.37497982 11.833333
1.3817966 -0.66767859 0.51807046 15
1.5059376 -0.38574454 0.53322333 15
1.5074433 12.579412 1.2788389 8
1.2621199 14.262252 1.4427755 8.5
1.3740716 16.884727 2.6643231 10
1.0919164 16.922235 3.1087558 11
1.2101134 9.2898674 3.2209287 15
1.1521187 13.991136 3.4727356 13
1.2042836 17.088533 3.2575436 11
0.98877424 10.868202 3.4524858 14
1.1246774 19.03858 3.9400349 12
1.8954413 -0.93850791 -0.038679037 5.3333335
1.9126357 -0.71448123 0.013991782 6
1.6407087 1.9376208 0.044909038 5
1.8443313 2.2504554 0.072090857 5.5
1.8142624 3.0070443 0.10005969 6
1.8962725 -0.97532052 0.3566094 10.333333
1.7614626 -0.66330582 0.34404406 10.615385
1.5995359 -0.18355303 0.39677781 12
1.9198349 0.0063601653 0.3991839 10.5
1.8705231 -0.98619884 0.60260361 13.8
1.7608215 -0.66291773 0.61110365 14.25
1.7484915 -0.21728455 0.611058 14.5
1.9240139 0.028095663 0.57922137 13
1.7700924 7.2452283 1.1175991 9.333333
1.7948948 7.2033787 1.443078 10.5
1.6910384 7.2123089 1.8538526 12.5
1.6700755 7.1972613 2.1810634 13.6
1.6918365 7.147644 2.5313733 15
1.6024841 7.7997398 2.8057868 15
1.5823102 16.766954 3.21931 11
1.7865345 17.764849 3.1382544 11
1.5548698 9.2651882 3.2428558 15
1.4751446 13.90554 3.4941831 13
1.5479529 13.314869 3.6289358 13
1.5761039 18.921072 3.9470038 12
1.5069379 12.96896 4.077323 14
1.3435711 18.946529 4.2815571 12
2.0254354 -1.0431904 0.072011515 7
2.1200361 2.6735804 0.10794386 6
2.3205032 2.9844406 0.14077912 6
2.2075825 -1.0481449 0.32193115 9.333333
2.2702215 -1.066496 0.66332 13
2.1114867 -0.68230087 0.65306747 13
2.1199248 -0.084523506 0.81547785 15
2.1726034 7.1385169 1.1457105 9.5
2.1735585 7.1695209 1.0766643 9
2.2130363 7.1412644 1.4559048 10.333333
1.9746802 7.1527228 1.5700583 11
2.1757171 7.100359 1.7881104 12
1.9459053 7.1348071 1.8621434 12.5
2.0036511 7.0928664 2.2165239 13.666667
2.0126088 7.1336374 2.2923207 14
1.8934395 17.972855 2.8686223 10
2.0911398 7.0669003 2.636313 15
1.9587429 13.775257 3.5254638 13
2.0443032 17.180529 3.3068116 11
1.9412147 13.799791 3.7908149 13
1.8363154 12.978693 4.0985913 14
1.9476346 13.528667 4.012754 14
1.7840029 18.837984 4.3013258 12
2.5842659 7.0862417 0.77575678 7.6666665
2.7479706 2.753782 0.78084493 10
2.5561442 7.1057105 1.1264061 9.25
2.3722141 7.1672649 1.1081017 9
2.5158372 7.0953178 1.4930077 10.5
2.4447644 7.0810704 1.8659722 12.333333
2.4133265 7.0613713 2.2863719 13.5
2.4552007 7.0147028 2.6603336 15
2.3736832 16.933212 3.2266049 11
2.4617841 19.251278 3.0768661 10
2.4360764 13.65849 3.5604966 13
2.3271682 12.959175 4.1251721 14
3.1970439 5.9339557 0.3575201 6
2.9926162 3.2914448 0.57283503 8
2.9895477 3.7429683 0.67372227 8.5
3.1691306 4.4598732 0.67501533 8
2.909682 7.0373406 0.88501048 8
2.9610956 -1.0761809 0.87747478 13
2.9307308 2.6804698 0.85887527 11
2.818629 2.9783192 0.79767394 10.333333
2.9448845 3.7089436 0.84365916 10
3.1163564 4.2623658 0.94551736 10
3.1353559 4.4207549 0.88854516 9
2.9071567 7.0168772 1.1312208 9.25
3.0652814 -1.0947729 1.1719773 15
2.8961918 6.9977918 1.5194468 10.5
2.8629591 6.9669828 1.8640394 12.25
2.8951104 6.9353085 2.3258057 13.6
2.808939 6.9186115 2.6733224 15
2.8995085 17.2307 3.352463 11
2.9381707 19.110281 3.1424186 10
2.7510858 13.568811 3.5816658 13
3.5385787 0.21629451 0.51284975 8.8000002
3.1776209 4.5063553 0.81946152 9
3.3434186 6.4252539 0.66057581 7.5
3.3568177 6.9276962 0.87870067 8
3.5280952 0.1970626 0.79139745 11
3.2435634 2.6015954 0.86334699 10
3.2989783 6.9175568 1.1389886 9.1999998
3.1559787 -0.96197015 1.210948 15
3.3300366 6.8819313 1.5370812 10.5
3.367161 6.8344908 1.933412 12
3.2625833 6.8354025 2.3482816 13.5
3.1659789 6.8216128 2.6889613 15
3.2184477 18.990898 3.2413826 10
3.3629372 17.38273 3.3973205 11
3.3352044 18.455671 3.9811361 11
3.092582 18.49478 4.3557496 12
3.8821037 5.3154831 0.20536609 6
3.5875928 0.36580649 0.46378741 8
3.6393535 0.58152694 0.4885743 8.5555553
3.7502327 0.99340737 0.55067641 8.7777777
3.8544979 1.3726228 0.59276044 8.8000002
3.9401999 1.7595507 0.55851758 8.1999998
3.8157988 6.803534 0.86992848 8
3.5836227 0.19468108 0.91840929 11.666667
3.7062936 0.49474993 0.94633007 11.777778
3.7370241 0.97857851 0.9052732 11.333333
3.8402557 1.3619243 0.90846491 11
3.9099116 1.7326741 0.94234282 10.833333
3.7262115 6.8030825 1.1321615 9.333333
3.7787635 -0.95600539 1.4059875 15
3.8177736 -0.82166034 1.4325271 15
3.7866089 1.0831505 1.3428434 14
3.8058789 1.3190368 1.3192544 13.833333
3.8761249 1.7006652 1.4041765 13.75
3.8682806 6.7262883 1.5529938 10.5
3.6687925 6.7886033 1.5778899 10.666667
3.7261937 19.04454 2.12448 8.666667
3.8222427 1.4756995 1.6417737 15
3.8780005 1.7745543 1.5953966 15
3.8401873 6.6964302 2.0616822 12
3.5712585 6.7737989 2.0471883 12
3.7590487 6.6832547 2.5115268 14
3.6558752 6.7391953 2.3430808 13.4
3.6989033 6.5766244 2.8291688 15
3.7940688 17.354092 3.4111321 11
3.8130291 18.879854 3.2199578 10
3.5154729 18.342867 4.3670564 12
3.9862356 1.9372737 0.56234509 8
4.0364804 2.0970738 0.56800967 8
4.0218434 4.3434825 0.81011629 9
4.2317715 4.9135795 0.81794369 8.666667
4.180851 6.6780572 0.85867262 8
3.9935298 0.27439478 1.0766644 12
4.2630367 0.74295342 1.1265876 12
4.0877519 1.0196973 1.1515068 12
3.9671235 1.9453576 0.94632918 10.5
3.9926553 2.0416713 1.0242031 11
4.0073085 4.219058 0.90144646 9
4.0299692 6.5714736 1.217792 9.25
4.0716634 0.15783589 1.2859286 13.571428
4.1799011 0.55093408 1.3491791 13.625
4.1548896 0.93710405 1.3184234 13.285714
3.9233167 1.8777064 1.4684438 14
3.9712689 2.0417573 1.4478614 13.333333
4.1280165 6.6267438 1.5299445 10.333333
4.0941248 0.12435883 1.5762848 15
4.1795478 0.54778737 1.5988355 15
4.0931563 0.94132096 1.5830671 15
4.0207391 1.3976512 1.6719875 15
3.9165788 1.9034326 1.6337125 15
3.9598372 2.0397079 1.6766527 15
4.117105 6.6175556 2.0765553 12
4.0565662 18.942913 2.373281 9
4.0419464 6.6278477 2.3962483 13.4
3.9430866 6.4250951 2.8943062 15
3.9111953 18.602057 3.3387349 10
3.778291 18.360571 3.9931469 11
4.4388356 6.2487793 0.44442421 6
4.6804476 2.6560349 0.54869789 7.5
4.6772418 2.9965365 0.56159693 7.3333335
4.6529121 6.1419516 1.0015745 8
4.4547668 6.4878602 0.76616007 7.5
4.374361 6.6182113 1.3152653 9.5
4.4455681 6.5816622 1.5418342 10.333333
4.4790087 6.5297179 1.9848216 11.5
4.3791795 6.5448079 2.385993 13.25
4.4487181 6.3914571 2.8559635 14.75
4.9137602 2.6975057 0.83949518 9
4.9401383 2.953047 0.76705414 8.5
4.9346228 3.2962294 0.84635419 8.666667
5.1465077 3.7730207 0.6722402 7.5
5.161849 4.0574193 0.69681305 7.5
4.8773918 2.6909056 1.1394415 10.5
4.9556108 2.9715745 1.1775563 10.5
5.0036111 3.355809 1.1675658 10.2
5.1182656 3.7860937 1.1007884 9.5
5.116909 4.1046481 1.1448828 9.5
4.8853803 6.4961538 1.3037952 9
4.8362021 2.6915841 1.546911 12.5
4.9138608 2.94771 1.5288 12.333333
4.9786654 3.331085 1.4481663 11.5
5.0795221 3.7276433 1.5645878 11.666667
4.8628912 6.4569993 1.6302484 10.5
4.8659768 2.9503486 1.8880465 13.833333
4.9505701 3.3422401 1.9118553 13.5
5.0548167 3.727761 2.0438879 13.5
4.8326879 6.4344668 1.9620339 11.333333
4.778687 2.6389668 2.1750884 15
4.8388476 2.8921175 2.2572594 15
4.8924613 3.2265909 2.2658277 15
5.0046964 3.63781 2.3042328 15
4.8408575 6.4074173 2.4441233 13.25
4.7795806 6.1842718 2.9681609 15
4.8786364 6.3542447 2.7979002 14
5.1666789 4.0448976 0.80515754 8
5.3369279 4.5613785 0.90824908 8.5
5.4330106 4.9597702 0.82481092 7.6666665
5.1530848 3.9510252 0.98895717 9
5.2983861 4.5457792 1.2680398 9.75
5.4308248 5.0045724 1.1947801 9.333333
5.1205072 3.8969412 1.4252429 11
5.1175032 4.0726681 1.4908299 11
5.2592444 4.4675608 1.645749 11.333333
5.401166 4.9883227 1.5585474 10.5
5.3715024 6.3247066 1.5912554 10
5.1290064 6.3824906 1.6488011 10
5.0795341 3.8579826 1.9766606 13.5
5.1003413 4.0611835 2.0242116 13.25
5.2602124 4.5677691 2.0033417 12.666667
5.3658953 4.925364 1.8935746 12
5.3888621 6.2862372 2.0309525 11.5
5.175365 6.3359566 2.0183086 11.5
5.1093736 4.0836167 2.3413494 14.5
5.2416992 4.5632601 2.4242723 14.5
5.3412786 4.9369836 2.3760831 13.6
5.3475485 6.2655821 2.4584692 13
5.1722374 6.3475976 2.5753703 13
5.3260989 4.9279885 2.7156103 15
5.2736316 6.0918102 2.9084973 14.5
5.6611772 6.2396722 1.6955532 10.333333
5.7016544 6.1886096 2.044805 11.5
5.4586878 5.2804403 2.431459 13
5.6845741 5.6670084 2.4970863 13
5.7222819 6.1243858 2.6252844 13
5.6319442 5.7276278 2.9962876 15
5.6198821 6.1524415 2.860009 14
6.097178 6.1620293 2.0813193 11.5
5.9825234 6.0841975 2.9016211 14
6.356739 6.1271305 2.1020234 11.5
