# .PCD v0.7 - Point Cloud Data file format
VERSION 0.7
FIELDS x y z intensity
SIZE 4 4 4 4
TYPE F F F F
COUNT 1 1 1 1
WIDTH 109
HEIGHT 1
VIEWPOINT 0 0 0 1 0 0 0
POINTS 109
DATA ascii
-0.41758719 -2.7772772 -0.28579736 4
-0.44305161 -1.9099061 -0.29637501 3
-0.60826534 -1.2542678 -0.28274748 1
-0.53163296 -0.98538381 -0.26178476 0.66666669
-0.52851707 -0.68507421 -0.25226831 0
-0.048779711 -2.8285298 -0.26905861 4
-0.19341229 -2.6712754 -0.28405228 4
-0.23595326 -2.1932912 -0.30389029 3
-0.20195979 -1.7708156 -0.2770907 2.6666667
-0.18348829 -1.3529371 -0.25534397 1.6666666
-0.1962164 -1.0019195 -0.24364673 0.40000001
-0.19972602 -0.75904357 -0.23712391 0
-0.080284156 1.0310944 -0.16675226 2.5
-0.15716439 1.3643887 -0.15754637 3.8
-0.13992411 1.7281154 -0.14381185 4.6666665
0.31842682 -2.8393691 -0.22950134 4.5
0.232154 -2.6227827 -0.29933673 4
0.15291926 -2.253437 -0.28475583 3.3333333
0.23545168 -1.7841448 -0.25228301 3
0.25511107 -1.3835772 -0.22915511 2.5
0.20616783 -1.0070703 -0.2224371 1
0.2535806 -0.65983784 -0.20099005 0
0.23381253 0.64193571 -0.16040021 0.71428573
0.22247842 0.95436829 -0.13299105 3.25
0.18941282 1.3996934 -0.1220819 4.5
0.20233603 1.802726 -0.11887175 5
0.16430613 2.2130687 -0.11131702 5.75
0.29873961 2.6162984 -0.09127818 6
0.28617421 3.1940277 -0.089736961 6
0.27426055 3.6673117 -0.083475091 6
0.67634678 -2.8293004 -0.16933967 5
0.68222749 -2.5736012 -0.27034274 4
0.644072 -2.2504683 -0.25753957 4
0.63726628 -1.7384357 -0.22694986 3.75
0.64479637 -1.3659178 -0.20642266 3
0.59497976 -0.96543181 -0.19726594 2.0999999
0.56629717 -0.59988618 -0.17919622 0.85714287
0.54994202 -0.36286584 -0.16928539 0.5
0.65341085 0.25751537 -0.15562485 1
0.58363783 0.57766014 -0.15105893 1.8181819
0.58400041 0.99597949 -0.10819206 4.3846154
0.56188911 1.3521357 -0.086570688 5.6666665
0.55569488 1.7762239 -0.096753366 5.6666665
0.59683514 2.1654375 -0.088392183 6
0.6492573 2.6847937 -0.069632642 6
0.68028039 2.9871278 -0.060255904 6
0.65302128 0.83706272 0.0065810699 7
1.0631061 -2.8311322 -0.16192923 5.3333335
1.0346397 -2.5872369 -0.25669953 4
0.96732497 -2.3266366 -0.24416997 4
1.0031487 -1.8115149 -0.21569256 4
0.94262558 -1.3110025 -0.18796255 3.75
0.92096591 -1.0441768 -0.17766114 3.3333333
0.81997281 -0.79958749 -0.18473881 2
1.0147455 0.31381664 -0.13963398 3.3333333
0.97889352 0.61162502 -0.1312186 3.8571429
0.98203886 0.96393764 -0.11530197 4.6666665
1.04414 1.3278633 -0.091762938 5.5
0.83596599 1.9637103 -0.075235963 6
0.92503601 2.3393292 -0.062633008 6
1.0055983 2.6677547 -0.059788611 6
1.1023556 3.0653343 -0.053998496 7
0.98866403 -2.826668 0.064378239 8
1.4483687 -2.8334608 -0.091615319 6
1.4152421 -2.6224906 -0.24095078 5
1.2341684 -2.1652863 -0.22769481 4
1.3855851 -1.8214927 -0.20511132 4.5
1.4068774 0.59149176 -0.10634153 5
1.3855139 0.98943716 -0.092499264 5.4000001
1.3329394 1.4536366 -0.07827536 6
1.4429119 1.7930166 -0.06247548 6
1.5119197 2.1091957 -0.04728923 7
1.2068913 3.502712 -0.04181049 7
1.3786501 -2.8421848 0.13377707 8
1.9504782 -2.8813922 -0.15966225 5.5
1.7970909 -2.564405 -0.22110014 5
1.6664283 -2.3273139 -0.21803856 5
1.7703499 0.63945681 -0.08405707 6
1.799094 0.9727459 -0.074297339 6
1.7868009 1.3704385 -0.063191548 6
1.8404168 1.7750551 -0.044654578 7
1.754339 2.2011709 -0.034152299 7
1.7561307 2.5637147 -0.022210877 7
1.9164611 2.862632 -0.0048888917 7
1.8703781 -2.8847663 0.092393324 7.5
2.2869027 0.87766862 -0.055122454 6
2.2533438 1.3462906 -0.039243221 7
2.1641555 1.897328 -0.027920948 7
2.235543 2.5730717 -0.00075024419 7
2.371752 3.7121613 0.045463331 7
2.4553857 0.95546532 -0.045132697 7
2.7158053 1.4626014 -0.0091477381 7
2.50899 1.7490281 -0.010834695 7
2.6466477 2.4140885 0.019035852 7
2.427778 2.8427908 0.023266317 7
2.8176792 1.1242459 -0.015041863 7
3.033869 2.1814365 0.030378127 7
3.0983996 3.77529 0.088528171 8
3.3506963 3.1651008 0.07901153 8
3.8730657 1.6123106 0.051677495 7
3.7221415 2.0944977 0.062396012 7
3.9159644 2.9075346 0.097514555 8
3.89762 3.7483613 0.12519464 8
4.2851396 2.4478526 0.10168733 8
4.4307299 1.8704838 0.088536419 8
5.0473742 6.5013614 0.31345686 8
7.227931 3.171164 0.30633119 8
7.7878375 6.0895247 0.3739365 8
7.758688 6.0938473 0.47210106 8
