# .PCD v0.7 - Point Cloud Data file format
VERSION 0.7
FIELDS x y z intensity
SIZE 4 4 4 4
TYPE F F F F
COUNT 1 1 1 1
WIDTH 95
HEIGHT 1
VIEWPOINT 0 0 0 1 0 0 0
POINTS 95
DATA ascii
0.47953218 -0.82042688 -0.19700356 145
0.47161832 -0.7508902 -0.20297578 156
0.57326925 -0.76240379 -0.20198573 155
0.66445202 -0.7196098 -0.20378271 154.66667
0.45984995 -0.65689129 -0.20612448 168.39999
0.54520005 -0.65334255 -0.20523497 166.33333
0.63133496 -0.63772613 -0.20417202 163.8
0.73426723 -0.63781631 -0.20793416 153.5
0.44496307 -0.55249983 -0.20126532 177.14285
0.53889161 -0.53226113 -0.19933447 176.54546
0.64819485 -0.55189276 -0.20423286 173.60001
0.74306524 -0.54989964 -0.20710035 164.875
0.84773886 -0.4954792 -0.20456722 162
0.45899922 -0.44435 -0.20657271 178.90475
0.54213691 -0.43485269 -0.19780141 177.41667
0.64092904 -0.44096673 -0.19642527 176
0.73920852 -0.43437451 -0.20088924 172
0.85042244 -0.43911433 -0.20854586 163.625
0.43958363 -0.339627 -0.20625488 161.32001
0.54467094 -0.3412112 -0.20236933 162.84616
0.63779914 -0.33066398 -0.19399171 166.94737
0.74260622 -0.33792314 -0.19063441 169.88889
0.83395207 -0.34580636 -0.19893813 170.33333
0.90979975 -0.33482367 -0.20894191 166
0.45524815 -0.27414408 -0.21154293 149.875
0.54382628 -0.23913449 -0.20509736 152.02777
0.64513135 -0.23823948 -0.19786538 153.85715
0.73069358 -0.23753589 -0.18568747 161.5
0.83189863 -0.23854242 -0.18929608 165.66667
0.94586807 -0.23853154 -0.20677456 162.33333
-0.50766391 -0.11107046 -0.14880571 145
-0.44382897 -0.10300894 -0.15190536 176
0.44418526 -0.12447415 -0.21722125 156.5
0.56694818 -0.15508181 -0.21664324 154.25
0.62826484 -0.13647752 -0.20246299 151.51282
0.73181212 -0.14328146 -0.19031104 153.52174
0.84843206 -0.1402982 -0.18912698 166.22223
0.9438085 -0.13523547 -0.19884627 164.66667
-0.42729288 -0.10095125 -0.15322532 162
-0.3127096 -0.087978475 -0.1843209 189
-0.22257699 -0.047679909 -0.18395028 185.39999
-0.19427224 -0.045105811 -0.1861416 184.2
-0.08300107 -0.043077536 -0.19313453 177.57143
0.083330512 -0.0024333291 -0.20370251 163
0.13460912 -0.018305797 -0.19920047 158.96666
0.37667397 6.9354195e-05 -0.20856665 154.75
0.45859745 -0.034980856 -0.21671025 162.5
0.51784301 -0.033943705 -0.21830226 157.41463
0.634588 -0.048053414 -0.20523223 151.67346
0.73844963 -0.049003545 -0.18608052 151.39999
0.82962769 -0.05436758 -0.17983615 161.7
0.93782413 -0.039793424 -0.1930082 164
-0.21086085 0.066399805 -0.19018449 185
-0.1993296 0.06508024 -0.19052894 185
-0.06104587 0.083956979 -0.18820401 163.33333
0.15631564 0.051788107 -0.20152694 160.72
0.21022153 0.085744381 -0.20587641 162.75
0.34220523 0.043502104 -0.21149413 156.39999
0.4694888 0.01171356 -0.21475394 162.64999
0.51657438 0.016888572 -0.21533112 154.64999
0.63750082 0.02951977 -0.20432906 149.48485
0.7389968 0.043704383 -0.19042934 149.125
0.83942062 0.051141214 -0.18594344 161
0.94193351 0.063482665 -0.2010726 166
-0.41678187 0.18738566 -0.16366145 170
-0.24281713 0.14339411 -0.091746926 166
-0.19124933 0.13424338 -0.18957773 185
-0.03485322 0.13341714 -0.1782497 157.57143
0.0041984543 0.13197905 -0.11735978 159.375
0.20588578 0.1144672 -0.19581439 166
-0.11226527 0.25124124 -0.19248612 184
-0.037348531 0.36313373 -0.19558617 186
0.24671304 0.357795 -0.20754792 176
0.34288153 0.35885087 -0.21120648 175
0.12890191 0.47818017 -0.19983813 186
0.23171267 0.49235624 -0.20204224 185.5
0.33049646 0.4845092 -0.20533305 184.75
0.077340439 0.57490635 -0.18856058 170.75
0.15831636 0.5551284 -0.1952028 186.60001
0.23508415 0.57006484 -0.16471256 178.92308
0.32143092 0.55964345 -0.19396092 190.83333
-0.038758427 0.60547787 -0.192424 149
0.22638406 0.64380914 -0.17315364 165
0.21836984 0.7039175 -0.19578207 160
0.29430568 0.90097922 -0.20515397 211
-0.25220588 0.14454626 -0.058592007 169.7
-0.014511966 0.13340597 -0.031670585 164
-0.00050443626 0.13116485 -0.07784836 163.22223
0.21756528 0.56046563 -0.050927751 189.73334
0.24933697 0.9399206 -0.015623288 159.5
-0.028815741 0.13584994 0.012911173 157.57143
0.19324671 0.59915787 0.021888006 76
0.20387037 0.56650949 0.0055902586 188.5
0.17732443 0.67256224 0.022228228 52.5
0.23295112 0.96387047 0.049484577 218.83333
