# .PCD v0.7 - Point Cloud Data file format
VERSION 0.7
FIELDS x y z intensity
SIZE 4 4 4 4
TYPE F F F F
COUNT 1 1 1 1
WIDTH 120
HEIGHT 1
VIEWPOINT 0 0 0 1 0 0 0
POINTS 120
DATA ascii
-2.8676145 1.5303096 0.35470143 9.5
-2.8831689 2.2558942 0.41935891 9.5
-2.7790704 -0.71565479 0.64674217 12.5
-2.8590262 1.6450664 0.62803304 11.5
-2.8836684 2.1913159 0.55596417 11
-2.8262205 1.1833184 0.83752739 14
-2.8766596 1.5343981 0.73825032 13
-2.8312955 1.5801401 0.90379709 14
-2.8998446 2.4849703 0.89704871 13
-2.7759962 -0.55085969 0.89883077 15
-2.8382902 2.0348635 0.98246545 14
-2.8501866 2.580955 1.0798655 14
-2.900553 3.3510633 1.010649 12.5
-2.781991 -0.70132065 0.25281644 9
-2.770654 -1.140274 0.30506971 9
-2.5977709 -0.857526 0.49503306 11
-2.7640052 -0.7102139 0.81179357 14
-2.4997365 -0.85615766 0.31734419 10
-2.4931555 -1.176116 0.54509264 12
-2.5007606 -0.86653548 0.63979763 13
-2.505687 -1.2224804 0.81702328 14
-2.4985344 -0.8753888 0.82215071 15
-2.2537315 3.410876 0.33977297 9
-2.2526062 3.4013994 0.51906025 10
-2.2985058 3.3999634 0.81797189 12
-2.1289449 -1.245398 0.31147906 9.5
-2.051187 3.4132943 0.70721668 11
-1.9685009 -3.0596673 0.91002345 14
-2.0120335 -2.9905753 1.0251112 15
-1.8048768 -1.6273035 0.75894833 15
-1.8059509 3.4293537 0.83084637 13
-1.6181306 -3.0278752 0.18184012 8
-1.7228612 -1.2394252 0.2931349 10.5
-1.6745541 3.412293 0.42378154 10
-1.6288555 -3.0295136 0.51480597 11
-1.6022922 -2.0330708 0.61412281 13
-1.6197964 -1.6935444 0.59898144 14
-1.5998741 -1.8847121 0.74062514 15
-1.5329248 -2.4767921 0.19280382 9
-1.5453504 -1.5255347 0.22626355 9
-1.5346246 -2.1435471 0.34776759 10
-1.5379238 -1.5231115 0.36716372 11
-1.5139179 3.4168653 0.38148376 9
-1.5297405 -1.6285385 0.49210665 13
-0.97653365 -3.0419314 0.7175768 13
-0.77282095 3.4396696 0.72983062 13
-0.59426218 -3.1267979 0.85199541 15
-0.49220791 -0.51300192 -0.20072995 0
-0.28766885 -0.86712658 -0.2053052 1
-0.033807583 -0.97934306 -0.20713334 1
-0.082882315 -0.68114173 -0.20731182 0
-0.12653245 -2.9736321 0.24193084 9
0.085308999 -2.9625423 0.79671478 15
0.2916438 -1.1007047 -0.20199512 2
0.44178316 -2.9987721 0.76872331 14
0.46991155 1.0200605 -0.19429965 2
0.51246238 -2.9776258 0.37764633 11
0.48660874 3.4740431 0.46063662 10.5
0.5016095 3.4734557 0.63753742 12
0.56852913 3.4834385 0.88187665 14
0.72223151 0.9342438 -0.20367406 3
0.73034054 -2.9238756 0.1136577 9
0.95627564 -2.9407935 -0.013275943 7
0.85586393 -2.9271929 0.80576098 15
1.0160555 0.41408572 -0.20799944 3
1.0985463 -2.9349163 0.081876382 8.5
1.1271715 -2.9206526 0.30908692 10
1.0661854 -2.9193313 0.36985618 11
1.0744587 -2.9296987 0.61231875 13
1.137436 -2.9051728 0.762483 14
1.4132386 0.083841786 -0.21974654 4
1.4846557 6.4438586 0.42482731 9
1.7175295 -3.2224088 -0.0085153906 8
1.805324 -3.6159921 0.38868105 10
1.8477035 -1.4752668 0.41367805 13
1.8721817 6.4495468 1.3207796 13
1.8809127 6.4457116 1.6074135 14
2.1954362 -3.1943545 0.014782756 8
2.0405498 -3.600626 0.15758222 9
2.0859296 -1.5768195 0.39869943 12
2.1434667 -3.5111349 0.9367801 14
2.335341 -1.4400594 0.16423982 10
2.4935062 -3.5010128 0.41665402 10.5
2.5418277 6.4582858 0.44350711 9
2.5612035 -3.4675817 0.98831552 14
2.748781 6.4887657 1.300422 13
3.1256537 6.4955521 1.2912592 12
3.4267395 -3.3940976 1.1198941 14
3.4280496 5.8775415 1.3683805 13
3.7581978 -1.1204395 0.013039972 8
3.7657595 6.4112287 0.64835548 10
3.9818366 5.6506529 1.1360978 12
4.0915327 -3.4185865 1.1865851 14
4.475975 -3.3899412 1.3160578 15
5.27775 -2.0380747 -0.33256909 6
5.307271 0.55898845 -0.017723834 8
5.3165269 0.29250583 0.20960504 9
5.3083076 0.62033594 0.40747759 10
5.3067236 0.67617583 0.2521961 9
5.3331103 0.22147472 0.5096941 11
5.3918624 -1.653764 0.65076691 11
5.3157001 0.81586564 0.89574271 13
5.3538198 0.29380581 1.104015 14
5.3274598 0.77050221 1.176035 14
5.3472095 0.48741421 1.287946 15
5.4760303 -1.3554739 0.29209748 10
5.444706 -0.99577892 0.49276447 11
5.448205 -0.027347384 0.43807986 10
5.506732 -1.8839934 0.95968378 13
5.4631329 -1.0430084 0.94000018 13
5.4521751 -0.57910717 0.87373036 13
5.4749107 -0.16169031 0.84884953 12
5.4600329 0.076235041 0.86419094 13
5.5267158 -2.0836556 1.1607653 14
5.4578624 -0.87312472 1.0795631 14
5.5623627 -3.0552063 1.3367379 14
5.5014071 -0.33670482 1.2464383 14
5.5326157 -2.1936691 1.4341297 15
5.5905871 -3.1406691 1.6235142 15
11.8147 3.0826807 2.4729748 14
