# .PCD v0.7 - Point Cloud Data file format
VERSION 0.7
FIELDS x y z intensity
SIZE 4 4 4 4
TYPE F F F F
COUNT 1 1 1 1
WIDTH 658
HEIGHT 1
VIEWPOINT 0 0 0 1 0 0 0
POINTS 658
DATA ascii
-2.7852731 -0.82543087 0.42992616 10
-2.8658924 1.1130288 0.38530797 9.75
-2.8739095 1.4168472 0.36920866 9.666667
-2.8790152 1.7497132 0.37843201 9.5
-2.8866315 2.1758304 0.41780305 9.5
-2.8788629 2.4661286 0.390715 9
-2.9098384 3.070838 0.38791096 9
-2.8805721 3.3158252 0.37841001 8.666667
-2.7785079 -0.8360424 0.59828627 12
-2.7783008 -0.67823273 0.74975437 13.5
-2.8619776 1.1478204 0.71613449 12.666667
-2.8692567 1.3818043 0.70944625 12.4
-2.8780119 1.740738 0.71701974 12.285714
-2.887603 2.1890898 0.71696788 12
-2.8806119 2.4555743 0.51449931 10
-2.8952119 2.9865398 0.69194442 10.666667
-2.8797352 3.3594449 0.7109589 11
-2.7737541 -0.61881423 0.89423192 15
-2.8041477 1.1049035 0.9882493 15
-2.8100145 1.3978769 1.0070999 15
-2.8346748 1.7752992 1.0040869 14.6
-2.8561761 2.1990983 1.0213422 14.2
-2.8716249 2.5659297 1.0548484 14
-2.8676658 2.9863834 1.1148002 13.714286
-2.8617973 3.2838075 1.1074883 13.25
-2.8310769 3.1888375 1.335245 15
-2.7350018 -1.4355774 0.31022489 9.1999998
-2.6139934 -1.0532578 0.34669852 9.666667
-2.7749584 -0.74050754 0.35397202 9.75
-2.7162836 -1.6810895 0.6944676 12.5
-2.5968869 -1.4236351 0.71894038 13
-2.6103852 -0.98996854 0.65831429 12.764706
-2.711067 -0.73307174 0.72071397 13.428572
-2.598932 3.3930974 0.83405972 12
-2.7256451 -1.6648101 1.0412396 15
-2.7348716 -1.4404315 0.99215382 15
-2.5375211 -1.0469893 0.90072793 15
-2.76057 -0.80299503 0.9563095 15
-2.5493901 3.3900216 1.094837 13.5
-2.5764701 3.4186668 1.3662096 15
-2.0595677 -1.2516632 0.30740684 9.75
-2.1484532 3.4082146 0.42323872 9.5
-2.1345787 -3.0160215 0.77241307 12.4
-2.2213309 -1.6640375 0.74831444 13.75
-2.2746236 -1.483765 0.68415791 13.2
-2.1097684 3.4115274 0.71784592 11.25
-2.1580579 -2.9690037 1.0395163 14.6
-2.2923865 -1.8465232 0.9509272 15
-2.1739593 3.406728 1.0349684 13.8
-2.3586683 3.4334347 1.3517069 15
-1.6328171 -2.9873819 0.28695041 9
-1.7468429 -1.3744618 0.32277709 10.454545
-1.6637793 3.4200962 0.37396657 9
-1.7264291 -3.0257862 0.67005122 12
-1.6359785 -1.8109359 0.68737584 14.2
-1.7352483 -1.4105741 0.55918342 13.25
-1.765362 3.4146795 0.68252969 11.5
-1.5993391 -3.6264207 0.9731344 13.5
-1.627772 -3.5781283 1.0134786 14
-1.8179693 -3.0426822 0.98510993 14.5
-1.8001735 3.4206612 1.0298629 14
-1.3967828 -3.0039728 0.2716423 9.1999998
-1.531195 -2.5741653 0.26858366 9.2857141
-1.5356753 -2.2182021 0.28637457 9.5555553
-1.5412266 -1.8056651 0.31558853 10.333333
-1.5490146 -1.5581743 0.33031547 10.5
-1.4333224 3.4185815 0.43488166 10
-1.3704098 -3.0223832 0.62206322 12
-1.5221114 -2.561836 0.49737954 11.333333
-1.516251 -2.1449487 0.49116886 12
-1.523734 -1.7852857 0.49143818 12.333333
-1.5328352 -1.5217667 0.49792418 13
-1.3714477 3.4221272 0.63667721 11.555555
-1.3812308 -3.6162403 0.9890548 14
-1.3412379 -3.4814162 0.91539341 13.75
-1.4237252 3.4253244 1.0265907 14.2
-0.95827991 -3.0037291 0.27039337 9.25
-0.84680772 0.51040268 0.31520006 15
-0.86637175 0.99953115 0.39796245 14.666667
-1.1560283 3.4257605 0.44736713 10
-0.96131623 -3.0219941 0.53679979 11.666667
-1.0017694 3.4340425 0.60359931 11.5
-0.99525011 -3.4968917 0.91699076 14
-0.88169968 -3.1548736 0.83924723 14
-0.97558671 3.4350715 1.0090437 14.5
-0.71509844 -2.6127288 -0.23768182 4
-0.55939919 -2.2346904 -0.22384073 4
-0.52133918 -1.8110957 -0.20812382 4
-0.53987509 -1.3671972 -0.19456123 3
-0.54409653 -0.98316842 -0.19550878 1.75
-0.57465923 -0.64554286 -0.197209 0.25
-0.73811764 -0.32620206 -0.1931598 0
-0.57992697 -2.9886346 0.26944631 9.5
-0.67400932 1.0882101 0.40583116 15
-0.60716879 3.4510801 0.42323995 10
-0.55588824 -3.0173197 0.64061844 12.75
-0.61338663 3.4500206 0.60290217 11.714286
-0.37891915 -3.3439755 0.85048121 14
-0.50585145 -3.1559565 0.83786917 14.333333
-0.58197957 3.4540346 0.94377518 14.2
-0.048555925 -3.0475333 -0.20643979 5
-0.14769582 -2.6288538 -0.23406021 4.5
-0.20683683 -2.1505497 -0.22088207 4
-0.19694459 -1.7799629 -0.20614934 4
-0.20529327 -1.407563 -0.19308698 3.2
-0.19737391 -0.9864586 -0.20073675 1.3
-0.16217814 -0.70046824 -0.20265679 0
-0.20652831 -2.9787111 0.22648974 9.333333
-0.15742148 -2.9950459 0.58750385 12.666667
-0.21997422 3.4631331 0.57078254 11.5
-0.15371327 -3.5610774 0.87183022 14
-0.18962617 3.4687555 0.93290311 14.5
0.34204933 -3.0393186 -0.20235898 5
0.24613711 -2.5605407 -0.22407836 5
0.21482569 -2.2109504 -0.22363934 4.25
0.21869561 -1.7891049 -0.20852603 4
0.21265024 -1.414799 -0.20307586 3.4000001
0.19086464 -0.95659286 -0.20658472 1.3636364
0.21014713 -0.64264059 -0.19777292 0.16666667
0.33265522 0.66877913 -0.19982764 0.33333334
0.3344658 0.99005091 -0.20031169 1.8
0.32283533 1.428538 -0.19077347 3.5
0.30832425 1.8065856 -0.18876985 4
0.29619446 2.1796267 -0.19437544 4.5
0.28622934 2.5096416 -0.20198323 5
0.27755126 2.8034804 -0.20942776 5
0.24844626 3.5280509 -0.20100859 5
0.2425056 -2.9751542 0.17945223 9
0.21563078 -2.9937549 0.61641198 12.857142
0.22887443 3.4742775 0.55947763 11.375
0.093532011 -3.5186727 0.85499769 14
0.23648192 -3.0026295 0.80212379 15
0.21265993 3.4793506 0.92139459 14.5
0.73599011 -2.9167581 -0.21888421 5
0.69147408 -2.5517302 -0.21742712 5
0.65687305 -2.2658432 -0.21719721 5
0.59603798 -1.7988753 -0.20184395 4.5
0.54172206 -1.3560662 -0.19898021 3.6666667
0.49505475 -0.95724648 -0.20428938 2
0.44990522 -0.62234116 -0.18830152 1
0.42055908 -0.3765986 -0.1904494 0
0.69120896 0.22184885 -0.19246601 0.85714287
0.59166443 0.60723072 -0.20156987 1
0.5755865 0.95310795 -0.20076282 2.3333333
0.58829838 1.3598442 -0.18915543 3.6666667
0.60543984 1.74303 -0.18558568 4
0.57636726 2.2051511 -0.18655664 5
0.61160409 2.5906663 -0.18614107 5
0.65665156 3.0256114 -0.20403075 5
0.68852848 3.3707631 -0.20478904 5
0.63197327 -2.9501643 0.17222796 9
0.62028223 3.5378044 0.085546792 8
0.63304013 -2.9299307 0.62139112 13.25
0.44154596 3.4719284 0.6069001 12
0.63704491 3.897938 0.54396802 11
0.77188867 4.062283 0.44716716 10
0.65373635 -2.9366703 0.78912407 15
0.47712201 3.474333 0.93880057 14.666667
0.96949643 0.21977122 -0.20416568 2.1428571
0.93766075 0.58048916 -0.21013929 2.4285715
0.98891789 0.99815333 -0.20116746 3.5999999
0.99684608 1.3908104 -0.19325021 4.25
0.95382249 1.816625 -0.19244422 5
0.86871397 2.2080503 -0.18849322 5
0.94486415 2.5491979 -0.18786007 5
1.0729644 3.1217327 -0.18782952 6
1.1495626 3.4689908 -0.18400407 6
0.97003162 -2.9289019 0.17125632 9
1.1671712 3.9726977 0.14558513 8
0.97135365 -2.9262173 0.52053988 12.25
1.0242789 -2.9166245 0.77630287 14.5
1.1059998 6.4294772 1.4065387 13
1.3167483 0.25753921 -0.21151364 3.5999999
1.3681356 0.61520135 -0.20471799 4
1.4328252 1.0003202 -0.20109105 4.4000001
1.3336885 1.3266485 -0.19729276 4.75
1.3957098 1.7670417 -0.19750145 5
1.3442669 2.1872256 -0.19284715 5
1.3228061 2.5802417 -0.18929186 5.5
1.2990745 4.1224933 -0.19536671 6
1.5207402 -3.6059706 0.097497411 8.25
1.4750468 -3.5610836 0.048632726 7.75
1.5390736 -1.7051073 0.15405829 10
1.1859809 3.951297 0.063750774 8
1.4801699 -3.5561295 0.51137835 11.4
1.3578815 -2.1261094 0.41704416 12.333333
1.3908886 -1.7198913 0.43663457 13.5
1.4100666 -1.5263501 0.45768964 14
1.421603 6.4362364 0.62326521 9.666667
1.5185523 -3.5499516 0.84505177 13.666667
1.3563337 6.4322047 0.97188032 11
1.3971355 6.4409943 1.3680785 12.833333
1.4398781 6.438385 1.5980548 14
1.5476531 6.4562893 1.9914026 15
1.7286193 0.22027132 -0.21263336 4.6666665
1.7809601 0.61739904 -0.20946626 5
1.7676433 1.0412967 -0.20309831 5
1.8258256 1.3885846 -0.20303933 5
1.750803 1.7129449 -0.2012921 5
1.8538749 2.1147923 -0.20382179 6
1.7274177 2.5844593 -0.19966091 6
1.8821011 2.8802187 -0.20052435 6
1.609754 3.3633423 -0.18671626 6
1.8087416 3.9018381 -0.19069581 6
1.809095 6.3621335 -0.22605376 6
1.7790359 -3.6049557 0.11667163 8.5
1.7281016 -3.4265985 0.015668308 7.8333335
1.6618477 -1.6602865 0.13082822 9.5
1.7366043 -1.526939 0.13301121 9.5
1.6649493 6.3984113 0.3018564 8
1.8861611 -3.6215422 0.61780918 11.666667
1.8021982 -3.5726225 0.5131107 11.166667
1.8019412 -1.657284 0.40982699 12.666667
1.8346366 -1.4860339 0.4273138 13
1.7765009 6.4455099 0.60007674 9.5
1.8679976 -3.5572858 0.86069834 13.6
1.811042 6.4444251 1.0239064 11.333333
1.792825 6.4499106 1.4249247 13
1.7196972 6.446888 1.6040645 14
1.8030845 6.4708004 1.9874145 15
2.2593081 0.39073768 -0.22171189 5
2.083106 0.5796088 -0.21697961 5
2.2436047 1.0504466 -0.21242459 5
2.2868702 1.2415724 -0.21215895 6
2.177705 1.8129377 -0.20812991 6
2.0038455 2.3293982 -0.20492984 6
2.0722916 3.244194 -0.20100643 6
2.0676591 4.6042509 -0.19366939 6
2.2222154 -3.334595 0.094743848 8.7142859
2.3280191 -2.1573403 0.0053610308 8
2.1946104 -1.7064664 0.10901371 9
2.2365537 -1.4806643 0.16974612 9.833333
2.3162918 6.4673724 0.34454817 9
2.0431135 -3.5916593 0.38250664 10
2.2488213 -3.5411656 0.47498763 10.75
2.1774416 -2.057169 0.38850799 11.5
2.1213129 -1.7662699 0.39152449 12
2.2209647 -1.4371338 0.43326929 12.5
2.1782451 6.4549923 0.58715677 9.5
2.2707171 -3.5486486 0.84196562 13.2
2.2004635 6.457067 1.0410988 11.4
2.2146645 6.467392 1.4207625 13
2.2614214 6.4644985 1.6190488 14
2.1987953 6.4904051 1.982743 15
2.5658131 0.59699178 -0.22601517 6
2.5319324 1.0446604 -0.21665139 6
2.464226 1.3568286 -0.21402715 6
2.7151642 1.9817504 -0.21365075 6
2.408402 2.2224126 -0.21067519 6
2.4138656 2.9161572 -0.20791714 6
2.6980453 3.3231938 -0.20913464 6
2.7163017 4.4712291 -0.21234882 6
2.647953 -3.5264449 0.073233195 8.5
2.7062156 -2.0601451 0.017619269 8
2.6415422 -1.795063 0.029782997 8
2.5380948 -1.4967299 0.1485756 9
2.611517 6.3749671 0.17436472 8
2.4868226 6.4637904 0.32710212 9
2.6700025 -3.5106056 0.42166427 10.666667
2.5442643 -1.420561 0.42015824 12
2.6423209 6.4716363 0.61617845 9.666667
2.6317694 -3.5112743 0.92454576 13.714286
2.5797024 6.4680061 1.0069965 11.333333
2.565706 6.4846478 1.418854 13
2.6489899 6.4752016 1.6309352 14
2.7021298 6.5109429 1.9800115 15
2.7955449 0.19760379 -0.23980132 6
2.9407408 0.87161607 -0.22511777 6
2.9986017 1.2709152 -0.22175655 6
2.9387867 1.6651176 -0.219587 6
2.9504325 2.8156729 -0.21387061 6
2.7623467 6.4556813 -0.2436624 6
2.987972 -3.5174994 0.041839719 8.1999998
2.8331113 -2.0326121 0.10569297 9
3.0031235 -1.7740978 0.02948948 8
3.022135 -1.4689381 0.1039157 8.7142859
2.9413998 6.483964 0.28063008 8
2.9427786 -3.4904397 0.4310106 10.5
3.128865 -2.3026209 0.31257802 10
3.0631511 -1.7035563 0.33682233 11
2.9513495 -1.422403 0.407855 11.5
2.9863684 6.4820728 0.5702886 9.5
3.0474436 -3.4704566 0.97986627 13.666667
2.9991097 6.4788713 1.0049852 11.25
3.1171477 -3.4817162 1.1074759 14.5
2.958411 6.4871283 1.4102821 12.666667
3.0065398 6.4819174 1.6420977 14
3.0887938 6.5245986 1.9804505 15
3.3793468 2.5444586 -0.21985343 6
3.3532188 3.2561929 -0.21727729 6
3.452069 -3.455982 0.055087987 8
3.3937647 -1.9227843 -0.04308838 7.5
3.2809539 -1.4438398 0.059351563 8.5
3.3241928 6.4912515 0.23955759 8
3.2564414 -3.4519391 0.4246664 10
3.3951652 6.4911156 0.56242245 9.3999996
3.3725688 -3.4715011 0.87351686 12.75
3.3337748 5.8812866 0.80131078 11
3.3681512 6.4889503 1.0170051 11.4
3.4326935 -3.4013128 1.1260409 14.6
3.5363333 5.7550902 1.4030032 13.333333
3.4412212 6.4933138 1.3759886 12.5
3.4307759 5.752131 1.5158732 14
3.3851388 6.4929709 1.6550943 14
3.4966209 6.5456281 1.9866325 15
3.6476445 -3.4625609 -0.19832765 7
3.7381403 -2.1365354 -0.1782275 7
3.6352315 -1.468186 -0.1323756 7
3.6753209 2.1436641 -0.22790335 6
3.695262 6.3537555 -0.19862206 7
3.8028712 -3.4497159 0.073738754 8
3.9140382 -2.1750422 0.089684054 9
3.715905 -1.3356045 0.050748248 8.3999996
3.7542732 -1.1203877 0.0005762006 8
3.6162944 6.3660178 0.093879282 8
3.7115767 6.4715896 0.19644666 8
3.8512914 -1.397702 0.34300989 10
3.9015257 6.4110584 0.4913539 9.5
3.6490204 6.4740767 0.53601205 9.5
3.8430603 6.4105043 0.95116097 10.666667
3.8353994 -3.4144075 1.195219 14.5
3.697165 5.6017513 1.4967979 14
3.7700937 5.6423597 1.3453399 13
3.7061586 6.4976006 1.3702592 12.5
4.0169625 5.0408468 1.6248798 15
4.000484 5.2795897 1.6817276 15
3.6806314 6.5045962 1.666502 14
3.7510593 6.4471531 1.9634128 15
4.1938405 1.8508028 -0.23240384 6
4.0869832 -3.4492285 0.05741239 8
4.0173497 -1.3992101 -0.035058897 8
4.0810814 3.1644671 -0.025450967 8
4.2768869 3.464102 0.087595113 8
4.1286564 3.9376204 0.094443373 8
4.1721444 5.8212376 0.13426001 8
4.1228738 3.5768697 0.48186728 10
4.0870996 3.8058102 0.67631179 11
4.1168609 4.3455529 0.58456486 10.333333
4.0958929 5.1196666 0.42390305 9
4.0524392 5.4277239 0.3461971 9
4.1050901 5.89359 0.29713458 9
4.0093007 6.3077874 0.56841207 9.5
4.1887169 3.0056138 0.86501896 12.5
4.1043425 3.4476686 0.79927951 12
4.104322 3.7775614 0.92881954 12.5
4.1100507 4.6373744 0.78827602 11
4.0500798 5.2100439 1.0661631 12
4.0592279 5.4342632 0.85052508 11
4.0009556 5.6560535 0.93340981 11
4.0062714 6.435914 1.0475433 11
4.2727528 -3.4095585 1.2476068 14.4
4.118557 4.2345686 1.181677 13.333333
4.1156435 4.6039939 1.2504318 13.5
4.1991816 5.0834312 1.2810491 13
4.0936456 5.4701753 1.2500231 12.666667
4.0776415 6.0867581 1.2038219 12
4.0892754 4.6480365 1.53561 15
4.7975035 -1.2487766 -0.19540094 7
4.7783589 -1.1279689 -0.17852065 7
4.7312164 -0.06484706 -0.20541272 7
4.7686877 0.10541205 -0.19233394 7
4.7476487 0.90872383 -0.25383794 6
4.6401968 1.4496695 -0.2465708 6
4.4775124 -3.4724391 0.10652663 8
4.7888079 -1.0453743 -0.16596274 7
4.720654 -0.46457371 -0.0027450053 8
4.6112127 -3.5500443 1.2044915 14
5.1245546 -2.8038225 -0.40854478 6
5.0566344 -2.5584695 -0.27412033 6.6666665
5.0424137 -2.2380514 -0.28421736 6.3333335
5.0715508 -2.6329076 0.094342969 8.5
5.0276814 -2.0858138 -0.023344664 8
4.8621025 -0.97381854 -0.1610035 7
5.0084934 -0.53184801 -0.083198182 7.25
5.0632038 0.63079429 -0.15075384 7
5.141048 3.3696632 -0.1129458 7
5.1704798 4.610333 0.12795256 8
5.2175961 -1.7443495 0.42352629 10
5.1388068 3.7595806 0.39029229 9.5
5.1566195 4.6091766 0.45705357 9.5
4.9055429 6.5622244 0.64808929 10
5.252872 -3.5283608 1.6005116 15
5.5101352 -3.3465436 -0.34398469 6
5.2342043 -2.0507429 -0.32055512 6
5.428206 -1.7958399 -0.28736204 6.75
5.4560223 -1.5024443 -0.20575324 7
5.3654799 -0.91362172 -0.19252826 7
5.3743052 0.29781246 -0.21058501 7
5.3758931 0.50749123 -0.2161777 7
5.4873605 -3.0719838 -0.17147619 7
5.2727118 -2.0352526 -0.02293803 8
5.4519801 -1.7899156 0.001997015 8
5.4095368 -1.3637264 0.036027327 8.333333
5.4092479 -0.95151383 0.031698134 8.1428576
5.4241314 -0.65902179 0.020233206 8.1999998
5.3829494 -0.20548131 0.055717666 8.25
5.3591795 0.20983784 0.057583619 8.5
5.3138404 0.59661472 0.038722962 8.25
5.2988472 2.6241992 0.060033649 8.25
5.25494 3.404249 0.10202268 8.25
5.2940636 4.5783887 0.16705291 8
5.2405634 6.5569854 0.02166654 8
5.5195174 -2.7494555 0.59715259 11
5.5125399 -2.1500113 0.58310646 11
5.4099131 -1.7408298 0.40798521 10
5.4565787 -1.4237133 0.33750337 9.75
5.4442911 -0.94348663 0.32805365 9.8000002
5.440866 -0.54429913 0.44838393 10.4
5.4225569 -0.14948048 0.42415863 10.25
5.3505492 0.27403405 0.39163026 10.2
5.312923 0.65592772 0.39969704 10
5.309803 3.4041591 0.30748281 9.25
5.3773308 4.3811865 0.31863922 9
5.3031082 4.5602908 0.51803482 9.75
5.2121916 6.5541573 0.57191831 9
5.5377412 -3.400286 0.87528723 11.666667
5.5420499 -2.9161999 0.88901979 12
5.5228896 -2.5867858 0.83239537 12
5.5075564 -2.1702538 0.8017782 12
5.4806147 -1.7848065 0.8024388 12
5.4820004 -1.3997749 0.79480737 12
5.470377 -0.99090743 0.78307778 12
5.4578967 -0.58740377 0.85164571 12.333333
5.4388542 -0.20611779 0.83769697 12.333333
5.3941569 0.19718975 0.872118 12.4
5.3379278 0.57823104 0.79273283 12.166667
5.2529469 6.550827 0.88095498 10.5
5.5720835 -3.7287905 1.2712653 13.5
5.5686898 -3.3862357 1.3482934 14
5.5505276 -2.9212365 1.2171957 13.333333
5.5515332 -2.4972641 1.2707055 13.666667
5.5385752 -2.1777968 1.2681767 14
5.5306368 -1.8125265 1.199201 13.8
5.5067344 -1.3776982 1.1061205 13.5
5.5004706 -0.91945279 1.1774416 13.8
5.4914541 -0.59155208 1.2395071 14.4
5.4727874 -0.20861724 1.2260722 14.166667
5.4179401 0.20591106 1.2291621 14.4
5.3557968 0.61300176 1.2154648 14.4
5.5491796 -3.4292345 1.5427318 14.666667
5.5677848 -2.9221528 1.516777 14.6
5.5433283 -2.5730972 1.4338938 15
5.5354114 -2.20314 1.4633476 15
5.5301747 -1.7749802 1.4588562 15
5.5164895 -1.3502836 1.4677514 15
5.4921498 -1.0049307 1.4782882 15
5.2385402 6.5540085 1.7337739 13
5.6062913 2.9030607 0.2045112 9
5.6418538 4.2361531 0.095794581 8
5.9250197 3.345432 0.38531932 9
5.7492018 3.7836406 0.61700743 10
5.9152184 6.5721025 0.43555179 9
5.9095297 6.5871625 1.254856 12
5.7029877 -4.0038285 1.3959881 14
5.9082279 6.6603775 2.3220222 15
6.2813401 2.9702022 -0.25211549 7
6.1441946 3.3661475 -0.20054649 7
6.1541162 6.3157387 -0.25242633 7
6.2126145 2.7305434 -0.013332218 7.6666665
6.1908216 2.9111714 -0.076651745 7.5
6.0666394 3.2759953 -0.053905267 8
6.0767632 6.5709939 0.044915654 7.5
6.2578301 2.6716104 0.38578486 9.333333
6.1374383 2.8759632 0.49030653 10
6.1833086 6.5752711 0.41440308 8.75
6.3045893 2.6447058 0.64399451 10.5
6.2659059 2.9834795 0.63856781 10
6.223299 6.5945015 0.94842583 10.5
6.1845608 6.5742521 1.2487546 12
6.5882082 5.9076185 -0.18337049 7
6.3783121 6.6042891 -0.11562772 7
6.5630193 6.1863823 0.47987625 9
6.4097886 6.5516167 0.39098078 9
6.5372167 6.2302332 0.75959003 10
6.399158 6.5688372 0.96633774 11
6.513855 6.3090301 1.2059857 11
6.5697651 6.2368054 1.5640639 12.333333
6.5519452 4.0908842 2.0367644 15
7.0844483 4.3324842 -0.042851407 8
6.9215379 5.59409 -0.064931236 8
7.0680671 6.230402 1.1890079 11
7.0769444 6.2189012 1.6165322 12.333333
7.2280121 4.1766086 2.1008041 15
7.0212989 6.2704625 2.0306981 14
7.1571898 6.3779836 2.3390522 15
7.3768663 4.210094 -0.11577874 7
7.5842361 5.0473342 2.0740533 14
7.5675149 3.8888154 2.2373762 15
7.4309111 4.0414457 2.2482092 15
7.5776601 6.4383025 2.3855448 14
7.9847083 5.0483813 2.1107502 14
8.3333778 3.4407198 0.074956074 8
8.3246298 3.3316798 0.34441206 9
8.2165918 4.7764106 0.35783765 8.5
8.4660349 3.3966889 -0.26999617 7
8.5534668 3.303102 0.05001362 8
8.4479027 4.6306734 0.17542145 8
8.7824421 6.7357955 0.90286016 10
8.7982769 6.7164378 1.2488115 11
8.6999502 4.6827884 2.1014879 14
8.807292 6.6879025 1.9236194 13
8.9704685 5.3997517 -0.18654883 7
9.0841274 2.7976587 0.26854473 9
9.0167894 5.0491176 0.67736059 10
9.1325102 6.6388831 1.2365569 11
8.9044399 4.2743416 2.0419805 14
8.9315319 6.6326222 1.859919 12
8.995924 2.4797275 2.2475381 15
8.8750172 5.0465207 2.1926548 14
9.3565445 3.0759969 -0.37749425 7
9.3084593 3.4682181 -0.36326075 7
9.5168114 3.1390016 0.42865604 9
9.2615976 3.3035791 0.45518267 9
9.2564964 6.6155357 0.2551274 8
9.2223902 6.6517076 0.9678117 10
9.56287 6.433568 2.888057 15
9.61654 5.0704451 2.9082172 15
9.9048395 2.7715967 -0.09846168 8
9.9582348 6.5848355 2.2681556 13
10.016668 2.5214779 2.7610431 15
10.034114 3.6423769 2.7603679 15
9.9629869 4.6058788 2.8279078 15
9.7378244 4.8666425 2.8793702 15
9.8049374 5.4914365 2.7530005 15
9.7331924 6.230793 2.8596594 15
9.9835358 2.7638812 -0.42033437 7
10.001404 2.516901 -0.17168702 7
10.093896 2.4183078 0.59226018 9.5
10.168948 6.694386 1.2409556 11
10.409959 6.6713367 1.4989793 11
10.270976 6.6831822 1.9913716 12
10.352386 1.7669988 2.7497411 15
10.180092 2.2033422 2.7602136 15
10.309225 3.2194107 2.7449958 15
10.306987 4.2339845 2.7800241 15
10.140924 6.1737108 2.8938289 15
10.688271 3.2449255 0.41052604 9
10.435221 6.7050638 1.0394553 10
10.697535 6.7169003 1.6369598 11
10.543664 4.6373568 1.8610227 12.5
10.600547 6.6612582 2.0135109 12
10.507753 6.5882373 2.3040249 13
10.853063 2.3297703 2.7251065 15
10.741076 3.9847779 2.8354838 15
10.485839 4.149137 2.8317289 15
10.746732 5.5814147 2.8346009 14
11.010457 6.7339544 1.041337 10
11.013529 6.69418 1.5092045 11
11.109505 6.5988803 2.3470657 13
10.97125 2.0960343 2.7178102 15
11.197309 3.6123445 2.8292818 15
10.965159 3.7991588 2.8315892 15
11.228573 5.2095146 2.8164864 14
11.042933 5.4252319 2.8379674 14
11.016032 6.6130939 2.7211967 14
11.36148 6.7402525 1.2437819 10
11.294381 6.739696 1.6554798 11
11.376766 6.701427 2.0723841 12
11.394266 3.4093335 2.8190939 15
11.650094 4.7813406 2.7802646 14
11.469498 5.0117202 2.805434 14
11.81735 3.5525007 -0.18886821 7.5
11.797884 3.2760756 0.38512278 9
11.854203 3.1532564 0.60873991 9
11.947328 6.7652955 1.676445 11
11.853732 1.9857433 2.2841084 13
11.847716 2.2580462 2.3307002 13
11.88182 2.5732801 2.2249928 13.5
11.844473 3.1779356 2.1571867 13
11.790203 3.4569106 2.1982207 13
11.775161 3.9019148 2.273927 13
11.749148 4.3516917 2.3516221 13
11.75127 4.6639714 2.4090159 13
11.652701 5.4857445 2.1810684 13
11.825987 6.6260977 2.1959374 12.333333
11.865964 1.9379821 2.6074474 14
11.900996 2.1290302 2.6554995 14
11.814766 2.6273785 2.558857 14
11.782151 2.9787216 2.7938142 14
11.803877 3.507179 2.5514998 14
11.788049 3.935617 2.6306944 14
11.759095 4.2194428 2.6815481 14
11.741261 4.5117621 2.7371194 14
11.747455 4.9829116 2.4694707 13
12.189605 2.862689 0.1511049 8
12.016281 3.1108365 0.18733566 8
12.205367 6.7474222 1.3894432 10.5
12.082559 2.9430399 2.144587 13
12.389395 2.8665366 -0.3010765 7
12.692225 6.7944922 0.74972814 9
12.592232 6.2055182 1.459041 11
12.776144 6.7933617 1.2478998 10
12.659333 6.7948332 1.6988877 11
12.593362 6.7931356 2.1436834 12
12.940196 6.7650075 1.0349381 10
13.570601 6.8173184 1.251659 10
13.3125 4.5237131 1.7735829 12
13.416466 6.8152051 1.7226487 11
13.292931 6.7331657 2.1083927 12
13.727009 6.8457584 0.76373529 9
13.944924 2.4873493 1.896704 12
13.837446 6.6947474 2.1961496 12
14.247688 6.8374929 1.7481207 11
14.5069 5.573132 0.58661109 9
14.571792 4.2450209 0.88509965 10
14.557014 4.5435572 0.94336534 10
14.562775 4.9610491 0.9096694 9.666667
14.536394 5.5083399 1.047389 10
14.581733 3.6294587 1.279231 10
14.5654 3.9778559 1.3297092 10
14.549063 4.3272471 1.3803123 11
14.557762 4.6884379 1.4335519 11
14.566483 5.0594273 1.4890321 11
14.487535 6.4493418 1.19982 10
14.678401 3.1915975 1.7239959 11
14.588322 5.4005427 1.6018158 11
14.547871 5.8024383 1.5993546 11
14.745836 6.2708817 1.6756822 11
14.534841 6.5861816 1.6304029 11
14.646564 6.3082509 2.1779814 12
14.5402 6.6445913 2.2270317 12
15.240946 3.9450545 1.8306478 11
15.044281 4.2456579 1.8662225 11
15.153647 2.5752273 2.0303197 12
15.45164 3.643414 1.7954656 11
15.854886 3.5700858 1.3103911 10
15.757788 2.9961908 1.7124637 11
15.928021 3.3925362 1.7847084 11
16.193363 2.669637 -0.49079314 7
16.135931 2.6482515 -0.033644132 8
16.358154 5.860167 2.6200287 12
16.431133 2.9068995 -0.57907635 7
16.493116 3.3613398 -0.56132305 7
16.498133 3.3201663 -0.53844267 7
16.501066 3.4810882 0.048485596 8
16.775043 3.2399569 2.24648 12
16.771061 4.4526281 2.0130384 11
16.723267 5.2639604 2.1006999 11
16.695816 3.3904295 2.2671573 12
16.742125 3.9148223 2.3214889 12
16.732409 4.3203793 2.3703623 12
16.669733 4.6550179 2.4534876 12
16.642424 5.0782571 2.5178015 12
16.630163 5.5082779 2.584466 12
16.694185 6.4464145 2.5390003 12
16.464022 6.6656919 2.3395946 12
16.93321 3.8200564 -0.51678628 7
16.983212 3.0610764 0.016235933 8
16.9858 3.7238574 0.10362162 8
17.146322 2.8229072 0.72890395 9
17.146711 3.2315581 0.78134692 9
17.120052 3.6393094 0.83259499 9
17.157944 3.7610271 0.64289296 9
17.161554 3.0600967 1.2786175 10
17.134087 3.4563034 1.3334833 10
17.171858 2.8729463 1.6243106 10.5
17.138411 3.2708316 1.5177318 10
17.228189 2.9853125 0.54481941 9
