# .PCD v0.7 - Point Cloud Data file format
VERSION 0.7
FIELDS x y z intensity
SIZE 4 4 4 4
TYPE F F F F
COUNT 1 1 1 1
WIDTH 141
HEIGHT 1
VIEWPOINT 0 0 0 1 0 0 0
POINTS 141
DATA ascii
-4.0353971 3.3007252 0.27072701 8
-4.0135865 2.694453 0.48298332 9
-4.0343313 3.2568007 0.60302132 9.5
-4.0217428 3.3120668 0.82838809 11
-4.0190072 3.3131571 1.0755244 12
-3.9971697 3.341208 1.1892093 13
-3.9746246 1.7996703 0.27399239 8
-3.9663081 2.3271625 0.67098081 10
-3.8365276 -1.2069141 0.80381185 12
-3.8057604 -1.0861632 0.93389887 13
-3.8139155 -1.604364 1.2783613 15
-3.8376265 -1.1741205 1.1751018 14
-3.9151015 1.3937955 1.1677203 14
-3.9424281 2.3572834 1.3516654 14
-3.935395 2.6544123 1.5532542 15
-3.9580092 3.376462 1.3979787 14
-3.925076 3.361661 1.7317785 15
-3.7004573 -0.91883552 0.40855911 9.5
-3.4470274 3.3534784 0.59187698 10
-3.5398302 -1.5588877 0.74767673 12
-3.5543425 -0.91306746 1.1170386 15
-3.3607345 -2.9598293 1.2302653 14
-3.3863537 -2.8150103 1.4400656 15
-3.2542922 3.3544185 0.52448785 9
-3.2698054 -3.0446861 0.84209383 12
-3.2673557 3.373498 1.0921623 13
-3.2003515 3.3610141 0.72104025 11
-3.1034136 3.3860528 0.89213419 12
-2.9922564 -3.644273 1.3262935 14
-3.0029898 -3.6217313 1.3950804 15
-3.038595 -3.0799112 1.3738889 15
-2.8003266 -1.3563097 0.25167313 8.5
-2.8144672 -1.2803359 0.3762334 10
-2.8661702 3.4091179 1.1537017 14
-2.600702 -2.587677 0.21732426 8.5
-2.8127396 3.3804779 0.31104517 8
-2.6064746 -2.2026169 0.30085933 9
-2.604671 -1.9650648 0.3993156 10
-2.6092131 -1.5509305 0.39620388 9.5
-2.6038952 -2.428086 0.49826747 10
-2.6660092 -1.5838604 0.58019459 11.5
-2.6801832 -1.866381 0.83002132 13
-2.5484118 3.3815207 0.37218428 9
-2.4813557 -3.0336175 0.47499225 10
-2.3934033 -3.6225805 1.2306459 15
-2.2380347 -3.0126102 0.62513781 11
-2.2207074 -3.6278801 1.0764608 14
-2.2924612 3.4349003 1.2248862 15
-2.1134067 3.4146955 1.0211898 14
-1.8508639 -3.6034739 1.0983902 14
-1.6665704 -3.021697 0.17360742 8
-1.4793839 3.4253638 0.39035454 9
-1.5220103 3.4371052 0.7998324 13
-0.99707687 -3.0141993 0.85524446 14
-0.98778743 -2.9911115 0.8961426 15
-1.1513139 3.4597664 1.043395 15
-0.84499359 -2.9972017 0.60376126 12
-0.83946407 -2.9971235 0.67517847 13
-0.67350727 3.4536467 0.46250695 10
-0.62674671 6.2684875 0.59368837 9
-0.61559957 3.4584119 0.65767604 12
-0.64454204 -3.031075 0.86049628 15
-0.60316014 3.4605052 0.95299792 14
-0.45523277 0.68244576 -0.21444893 0
-0.49696577 -2.9575922 0.28094819 9.5
-0.58938426 3.4546084 0.46461821 11
-0.55561733 3.4630752 0.74181509 13
-0.50984287 3.5059099 1.082413 15
-0.2594195 0.87723869 -0.21337835 0
-0.23413213 1.1163082 -0.21059783 1
-0.22736396 6.4161043 0.96592599 11
-0.20344682 6.4207559 1.4729522 13
-0.12345248 0.9205156 -0.21983232 0
-0.023084527 1.0317582 -0.21943417 1
0.015735837 -2.9580247 0.079234831 8
0.0089491401 -2.9524412 0.29853889 10
0.010444514 -2.9499865 0.6946553 13.5
-0.038792156 -2.9583964 0.80027252 15
-0.17829886 6.4097805 1.672369 14
0.092720129 0.73968107 -0.22158191 0
0.033533171 0.89352238 -0.22670692 0
0.034669384 -2.9545949 0.33212954 10
0.191257 0.77385747 -0.22712494 0
0.28258306 0.89475298 -0.2254394 0.5
0.4136439 -1.65458 0.30168915 12
0.42863262 -3.5701973 0.37035233 10
0.49804652 0.41278881 -0.21589153 0
0.52327836 0.73977029 -0.23050055 0.33333334
0.3994256 0.80779076 -0.22922985 0
0.40603814 1.167132 -0.23126023 2
0.59525234 -1.0866315 -0.19879118 3
0.44027904 -0.93862128 -0.20385012 2
0.69976264 1.0979253 -0.24346089 2
0.67232543 -3.2199392 0.059715964 8
0.89393795 -0.67315811 -0.19703902 2.5
0.96525139 -0.30164173 -0.20386983 2
1.1521602 -1.591645 0.1456576 10
1.2081535 -1.4686829 0.33864734 13
1.3715098 -1.4804053 0.31510517 12
1.5763227 -3.5109634 0.32406837 10
1.4756311 -1.5091447 0.16953152 10
1.4502145 -1.4692422 0.36408424 13
1.4715984 -3.5186846 0.98246199 15
1.5771703 6.4795074 1.2997583 13
1.68645 -1.4675603 0.4515374 14
1.8737991 -1.4799037 0.25760761 11
1.8893474 -1.4759116 0.33016327 12
1.8104538 6.4808493 1.1341262 12
2.1648679 -1.5341755 0.15851188 10
2.1844561 -3.4581172 0.89261967 14
2.2456706 -1.4277496 0.4271853 13
2.2999511 5.7563157 1.4466283 14
2.7510889 -3.4969902 0.94885248 14
2.896929 6.4150581 0.40764537 9
2.9650154 5.3608832 0.79172462 11
2.9945743 4.7354894 1.2756189 14
3.0315206 3.5532148 0.61292237 11
3.5857973 -0.33002868 -0.081173845 7
3.7064133 -1.1015329 -0.1071432 7
3.6065667 -0.37102202 -0.011451727 8
3.6270311 -0.50155151 0.14482768 9
4.2262936 0.59647173 0.84139317 14
4.2342973 0.75350231 1.0989147 15
4.2638917 0.55646843 -0.083310306 7.5
4.2383122 0.22656634 0.20230979 9
4.2170615 0.69688934 0.20486911 9
4.2351389 2.5259995 0.063589312 8
4.2284756 0.54735821 0.32781649 10
4.2419543 0.26338047 0.45391563 11
4.2339129 0.51108354 0.61553091 12
4.2251067 0.64573216 0.50675017 11
4.3285532 0.17180213 0.79021162 13
4.2334208 0.52051079 0.71658486 13
4.4231248 -1.6338047 0.88311011 13
4.4186559 -1.574299 0.92289895 14
4.4398842 -1.063395 1.0371712 14
4.2607994 0.29570928 1.0210932 15
4.4353805 -2.6814611 1.2305557 15
4.5304852 2.9202998 0.25990295 9
7.3833828 3.4948232 -0.47216418 6
8.3478279 4.2683792 2.1651955 14
