# .PCD v0.7 - Point Cloud Data file format
VERSION 0.7
FIELDS x y z intensity
SIZE 4 4 4 4
TYPE F F F F
COUNT 1 1 1 1
WIDTH 87
HEIGHT 1
VIEWPOINT 0 0 0 1 0 0 0
POINTS 87
DATA ascii
0.055259287 -0.95686388 -0.19608274 159
0.19034971 -0.95540649 -0.19839004 163
0.31652567 -0.94432753 -0.20332533 164
0.090933643 -0.85068327 -0.1962613 172.5
0.10484228 -0.81420839 -0.20206584 175.5
0.21305951 -0.84021872 -0.19911812 177.39999
0.32171029 -0.84148562 -0.19788335 176.39999
0.43273708 -0.84813464 -0.19825414 176
0.54144222 -0.82093501 -0.19691092 175.5
0.1318922 -0.73236841 -0.20067105 184.8
0.23544325 -0.72730994 -0.20029002 186
0.32896757 -0.73896295 -0.19977596 190
0.42616281 -0.74192989 -0.19967499 189
0.52235156 -0.72946519 -0.19433509 184.60001
0.63063443 -0.7364822 -0.20870601 179.5
0.16046025 -0.64608157 -0.19939306 188.25
0.2524128 -0.62980056 -0.19310631 189.75
0.33254039 -0.62393647 -0.18597552 190.2
0.43183389 -0.62613738 -0.188078 190.39999
0.54139853 -0.66141045 -0.20604683 191
0.64288872 -0.64123672 -0.20086715 188.375
0.70050639 -0.66081524 -0.1935326 186
0.1839447 -0.56939715 -0.19167008 188
0.24523647 -0.53546745 -0.18699336 186.44444
0.33804315 -0.54591888 -0.18744767 186.5
0.45179152 -0.55647528 -0.18982296 188.15384
0.56316131 -0.5478766 -0.19718353 190
0.6327883 -0.52461123 -0.19071585 189.83333
0.74639499 -0.55805665 -0.19591975 190.33333
0.82537228 -0.51761508 -0.19461322 191
0.25029585 -0.47187477 -0.19862251 182.94118
0.34304619 -0.45897684 -0.20049903 181.25
0.43845817 -0.45429796 -0.19902226 182.08
0.54214102 -0.42833292 -0.19292483 183.94444
0.65523404 -0.44835079 -0.18794061 188
0.73943216 -0.42110506 -0.18682814 190
0.84796083 -0.4412308 -0.19874108 192.2
0.25563991 -0.36409271 -0.20228651 175.77777
0.33039033 -0.36191899 -0.20224328 174.64999
0.43903717 -0.3362689 -0.20206906 175.44118
0.54541075 -0.35234508 -0.20481287 178.36842
0.63545376 -0.34131393 -0.19275317 181.90909
0.74155962 -0.33792856 -0.1834157 187.22223
0.8229146 -0.32297802 -0.1871068 189.5
0.90906954 -0.36464956 -0.20318134 191.5
0.3423492 -0.23078835 -0.20798625 168.71428
0.45024836 -0.26563555 -0.21388817 172.25
0.54580051 -0.2472368 -0.20350763 174.54054
0.64506698 -0.24668059 -0.19741127 178.54167
0.73193091 -0.23793611 -0.18914628 182.94444
0.83909285 -0.2389465 -0.18859059 188
0.92697644 -0.22893439 -0.19650063 190.33333
0.37985319 -0.12457328 -0.21335733 158.5
0.45567149 -0.111114 -0.21537291 157.83333
0.56003016 -0.15870409 -0.21102639 170.66667
0.63609481 -0.13691537 -0.20028761 175.5
0.7454266 -0.15386213 -0.19465546 181.40909
0.84754092 -0.13971043 -0.18298426 187.23077
0.92662197 -0.12789084 -0.18655778 191
0.38004875 -0.0049048355 -0.21045156 156.16667
0.46656224 -0.046608593 -0.21514559 164.12
0.51323628 -0.05052752 -0.21595323 161.78261
0.64038551 -0.070787214 -0.20448337 173.19048
0.74899852 -0.085806452 -0.19410953 180.54546
0.2731927 0.086624205 -0.20685886 153
0.36232075 0.063724957 -0.19323453 162.5
-0.24551509 0.11880152 -0.18748744 148.33333
-0.15437597 0.1526911 -0.14449769 146.28572
0.02666018 0.13425343 -0.13771333 132.64706
-0.46466914 0.26669019 -0.15416498 131
-0.2735095 0.19903886 -0.095613159 137
-0.08479391 0.28940311 -0.19196196 158.25
0.44702601 0.29162902 -0.21120919 150
-0.14629437 0.32774222 -0.19164763 154.66667
-0.048700631 0.34739941 -0.19538017 162
0.38569477 0.32680666 -0.21120045 153
0.44724381 0.33195326 -0.21051893 158.92857
0.38803843 0.47280169 -0.20966366 182
0.44705731 0.45803899 -0.2117583 180.75
0.50491071 0.44396108 -0.20885976 179.28572
0.32154867 0.51000291 -0.20815983 181
0.53698254 0.55052108 -0.21534158 178.5
-0.20992266 0.17689137 -0.079312161 137
-0.19033639 0.17153791 -0.08738967 140.25
0.029994026 0.13945797 -0.045456756 137.03448
-0.0039310805 0.14475012 0.023532933 137
0.0056434791 0.14212051 0.01160871 142.66667
