# .PCD v0.7 - Point Cloud Data file format
VERSION 0.7
FIELDS x y z intensity
SIZE 4 4 4 4
TYPE F F F F
COUNT 1 1 1 1
WIDTH 142
HEIGHT 1
VIEWPOINT 0 0 0 1 0 0 0
POINTS 142
DATA ascii
-5.2066317 3.155818 0.31515363 8
-5.1936073 3.2222145 0.5186305 9
-5.1857181 3.1976202 0.83743948 10.5
-5.1139069 2.2765887 1.0740471 12
-5.1273317 3.2635956 1.1267846 12
-5.1059985 2.0774889 1.232505 13
-5.0918875 3.2577412 1.360954 13
-5.0725331 1.6677773 1.5696671 14
-5.0796695 2.0918314 1.6519178 15
-5.0635872 3.1756623 1.5676862 14
-5.1208849 3.2185869 1.9002749 15
-4.9004083 -1.2064251 1.1725596 13
-4.8868599 -1.1370314 1.4328498 14
-4.7883983 -0.65370315 1.5527666 15
-4.4225988 3.2809448 0.48802406 9
-4.4179902 3.2728305 0.617939 10
-4.450315 -2.9841259 0.83359069 11
-4.4206233 -1.6860651 1.3109685 14
-4.4374528 -2.9850833 1.4883873 14
-4.3597932 -1.7196448 1.477456 15
-4.4120836 3.2788844 0.35943866 8
-4.2724357 -3.1003716 1.0126855 12
-4.3301396 -3.0822866 1.6899943 15
-4.317977 -2.3250961 1.5500703 15
-4.0241714 3.2787566 0.82731718 11
-4.185389 3.3221049 1.2012044 13
-4.0386291 -3.7213514 1.2977105 13
-3.9502933 -3.4200335 1.5434389 15
-3.8649888 -1.325141 0.44097066 9
-3.8824079 3.2767904 1.2928504 14
-3.5863776 -2.4960027 0.26408488 8
-3.6532333 -2.0363839 0.1478042 7
-3.6671467 -1.6342247 0.19525988 8
-3.5785861 -2.7154579 0.37565354 9
-3.6562388 -2.354636 0.34818569 9
-3.6125188 -1.8513972 0.48422676 10
-3.6197815 -1.8006181 0.41615522 9
-3.7113445 3.3065865 0.49430203 9
-3.6334593 -2.4471643 0.60619467 10
-3.6902275 -2.028856 0.62763721 11
-3.6920879 3.3026569 0.9791832 12
-3.5328784 3.3292689 0.22190608 8
-3.4911809 3.3028896 1.413075 15
-3.3508563 -3.081825 0.69558513 11
-3.1692345 3.3424356 0.57417607 10
-3.1977496 3.3579977 0.70696801 11
-3.0828385 -3.6595383 1.2572247 14
-2.908339 -3.0702286 0.27119246 8
-2.8330996 3.3698745 0.3987287 9
-2.8284786 3.3643222 0.82333416 12
-2.9248381 3.3825912 1.0370141 13
-2.4166155 -3.0469723 0.22389893 8
-2.5495286 -3.0405464 0.37765774 9
-2.5669124 3.3926828 0.29827452 8
-2.5492995 -3.0505292 0.60323542 11
-2.5238464 3.3849585 1.1782022 14
-2.3390119 3.410913 0.44330573 10
-2.2460942 -3.0202413 0.46839043 10
-2.0276294 -3.0097947 0.99882978 14
-1.9376943 3.4325643 0.78548634 12
-1.7852246 3.4345357 0.37918183 9.5
-1.7278669 3.4688034 0.63990784 11
-1.7556801 3.4421902 0.9695558 13.5
-1.6510925 6.2594976 0.93187368 11
-1.7764529 3.4238946 1.1195866 15
-1.7462428 4.1803913 1.0909675 13
-1.4519525 -2.9518192 0.28006184 9.5
-1.6083232 3.9955025 0.4450556 10
-1.4436975 -2.9489658 0.4918896 11
-1.5430926 6.2741508 0.56772202 9
-1.5799701 4.1125231 0.71186709 11
-1.5503232 -2.9336982 0.91517532 14
-1.5347264 6.2740507 1.5347664 13.5
-1.412658 4.0132985 0.39839259 9
-1.4111731 6.3992591 0.63602996 10
-0.96769619 -2.9687653 0.84595114 13
-0.91255921 -2.9842913 0.075278252 7
-0.87349546 6.426672 1.2845677 12
-0.41717744 -3.6004245 0.92915165 13
-0.26601294 -1.8449775 0.34507793 11
-0.19672382 -0.77794874 -0.2003033 0
-0.13678363 -3.1803019 0.034989055 6
-0.009176679 -3.5529566 0.24002525 8
0.088731632 -3.2896373 0.055323027 8
0.11382072 -1.5338866 0.16743037 10
0.042818662 -1.4857984 0.28027102 12.666667
0.33425295 -1.5115439 0.14986928 10
0.35216412 -1.4587818 0.2473373 12.333333
0.87220013 0.48250797 -0.18383093 2
0.84265417 -2.217442 0.31776112 11
0.8666026 -1.4067991 0.25876221 12
0.91619009 -1.3880689 0.17501117 11
1.0391636 -3.4708567 0.92126584 15
1.0176311 -0.45044994 -0.20948523 2
1.0284297 0.01209379 -0.19926958 2
1.0064126 0.78719926 -0.18559857 3
1.1698828 -1.3582902 0.297061 12
1.2704705 0.015583228 -0.19684198 3
1.2928407 -3.3380964 0.027353192 8
1.4501435 -3.4550631 0.88238156 14
1.489621 6.458272 0.78620529 10
1.7790364 -3.3737969 0.89732116 14
1.9465643 -3.3751652 0.98717922 15
2.5587716 -0.39025384 0.096600249 9
2.5603969 -0.37587535 0.013662797 8
2.8986092 -2.9002094 0.04961117 8
2.9616253 -2.3479693 0.10047875 8
2.9392328 -2.143904 -0.074089468 7
3.0452857 -1.0702325 -0.016959757 8
3.1392496 0.36801475 0.03349521 8
3.0818088 2.6134164 0.086935662 8
3.1832635 -1.5943478 0.30400807 10
3.1449676 0.35467422 0.29428792 10.5
3.1185837 0.69746095 0.17894663 9
3.16066 0.33866361 0.47986516 12
3.061713 -1.5827219 0.54580015 12
3.1573596 0.34419498 0.61724794 13.5
3.1269665 0.73341072 0.53350955 12.5
3.1544273 0.44003037 0.75780201 15
3.126368 0.84379226 0.72722363 14
3.3328645 -1.7986248 0.08077883 8
3.2373497 -1.5798858 -0.092919506 7
3.3052745 -1.1609491 -0.047703627 7
3.2339849 -0.0075767748 -0.013943933 8
3.3522778 -1.9181325 0.20749137 9
3.3559318 -1.3321215 0.29247001 10
3.2342513 0.30479315 0.1237485 9
3.3905253 -1.7416456 0.37759289 11
3.3514261 -1.2123805 0.42894521 11
3.2845695 -0.678967 0.43430486 12
3.3419979 -1.5638431 0.6309607 13
3.3611863 -1.1029178 0.51543504 12
3.3949745 -1.5169659 0.86313725 14
3.3084438 -0.99809182 0.73967081 14
3.2766583 -0.40355995 0.81159043 15
3.2883675 -0.017078197 0.84023952 15
3.4074159 -2.7751842 1.0619484 15
3.442636 -2.0551281 0.98630816 15
3.409879 -1.64495 0.968759 15
6.9106321 4.3602099 2.1479993 15
7.2387819 6.8838511 1.9318318 13
9.5421867 4.4423971 2.81374 15
