# .PCD v0.7 - Point Cloud Data file format
VERSION 0.7
FIELDS x y z intensity
SIZE 4 4 4 4
TYPE F F F F
COUNT 1 1 1 1
WIDTH 66
HEIGHT 1
VIEWPOINT 0 0 0 1 0 0 0
POINTS 66
DATA ascii
-0.48705187 0.36044315 -0.2208938 0
-0.52272755 0.53698862 -0.25885263 0
-0.48788744 0.94153702 -0.27814305 1.2
-0.5168274 1.3548026 -0.29599109 2.6666667
-0.52409816 1.7444421 -0.31850612 3.5
-0.56343603 2.1457808 -0.35411668 4
-0.19541124 0.71315444 -0.25636509 0
-0.18237881 0.99013674 -0.26943034 1
-0.25659645 1.3282573 -0.27865669 2.5
-0.32710922 1.600307 -0.29339707 3
0.060553946 0.73542345 -0.24339697 0
0.036050908 0.79497015 -0.25461832 0
0.69590288 -0.5117957 -0.14003359 0.80000001
0.66833967 -0.23511021 -0.15554793 0.25
0.74152285 0.1307673 -0.1658275 0.5
1.0768656 -0.93532854 -0.1007598 3.5
0.98866928 -0.57677239 -0.12957877 2.2857144
0.98701543 -0.22650166 -0.13987987 1.7142857
0.97459924 0.18811376 -0.16028824 1.6666666
1.188285 0.40664235 -0.18475786 2
1.5077387 -1.6770859 -0.035660077 5
1.3863996 -1.4017645 -0.054222085 4.75
1.40918 -1.0370047 -0.073493242 4.1999998
1.4004729 -0.62636346 -0.10451163 3.5999999
1.4155138 -0.2120931 -0.12657474 3.4000001
1.3949105 0.2348804 -0.15322571 3.1428571
1.4250089 0.50888205 -0.16157284 3.5
1.901528 -2.2612004 0.0087756645 5.5
1.7927046 -1.8433311 -0.015490273 5
1.8127173 -1.3906412 -0.038357116 5
1.7949162 -0.98842901 -0.026160974 5.5
1.8923236 -0.686589 -0.071216702 5
1.7831028 -0.27218202 -0.096797168 4.5
1.8233081 0.26283532 -0.12377865 4
1.8877307 0.63331592 -0.13785331 4.3333335
1.7267916 -2.1607327 0.40302598 10
1.9457506 -1.1344714 0.27838254 9
2.2895968 -2.1855936 0.021178631 5.5
2.3283634 -1.7420321 -0.0038690502 5
2.1811585 -0.95324343 0.022686156 6
2.0566995 -0.10637925 -0.093803197 5
2.0365388 0.19273633 -0.10931118 5
2.216532 0.57897174 -0.12105006 5
2.2605133 -1.0238668 0.35244828 10
2.6573148 -2.0382588 0.038996723 6
2.4853432 -1.8953012 0.07459677 6.5
2.678658 -0.87474412 0.054122381 6.5
2.406781 -0.76912022 -0.046240337 5
2.6484711 0.55180085 -0.10259837 5
2.5174894 -2.0263004 0.57633519 10
2.4553318 -1.9248374 0.3464475 9
2.9717419 -2.9637847 0.085316099 6
3.0192931 -0.64941525 -0.027775783 5.5
3.0949454 1.0259162 -0.11514945 5
2.8064206 -0.93864936 0.42844242 10
3.4058285 -3.4724827 0.17412955 6.5
3.5151672 -0.37989447 -0.032640614 6
3.5128093 0.37444088 -0.071228839 5
3.5642972 0.77852035 -0.087108597 6
3.4892418 -3.7459292 0.81596631 10
3.9372592 -0.42955756 -0.01516383 6
3.6289477 -0.0044265138 -0.049195375 6
3.9318557 0.42621779 -0.058862455 6
3.7495286 -0.82662678 0.47204027 9.5
4.5601225 -0.48498657 0.45626172 9
4.5470119 -0.4743416 0.68190551 10
