# .PCD v0.7 - Point Cloud Data file format
VERSION 0.7
FIELDS x y z intensity
SIZE 4 4 4 4
TYPE F F F F
COUNT 1 1 1 1
WIDTH 820
HEIGHT 1
VIEWPOINT 0 0 0 1 0 0 0
POINTS 820
DATA ascii
-26.167639 -19.715914 7.5261083 9
-12.652293 -5.4980054 1.7181307 8
-12.797904 -5.1877403 1.5801243 8
-12.513791 -6.4512343 2.4539971 9
-12.688838 -6.8091831 3.0001523 10
-12.61456 -6.3861461 3.9951832 12
-12.804648 -6.1026196 3.9253371 12
-12.240267 -6.1748133 1.391119 7
-12.035776 -6.1456084 1.8227736 8
-12.238786 -5.9150724 1.763459 8
-12.133126 -7.856142 2.9927619 9
-12.429326 -7.2582688 2.8482666 9
-12.303146 -7.2253838 3.2202914 10
-12.279343 -7.1448936 3.5230796 11
-12.29384 -6.7910738 4.094245 12
-12.308263 -5.6543217 4.9226685 14
-12.575637 -5.2966619 4.8393807 14
-11.64453 -6.6434765 1.7336478 7
-11.703562 -6.5733986 1.9910055 8
-11.919293 -6.2695737 1.9715582 8
-11.904395 -6.4876871 2.4483409 9
-12.004882 -7.899394 3.2969048 10
-11.850121 -7.5997739 3.6365743 10
-12.004592 -7.2070479 4.2050776 12
-12.045106 -5.3816361 3.5934222 12
-11.859846 -6.3111658 4.2771139 13
-11.763891 -5.9138417 4.1231771 13
-11.954494 -6.1244946 5.0368853 14
-11.367772 -7.170577 1.8279439 7
-11.522662 -6.9158626 1.7826904 7
-11.345524 -7.0451345 2.1740327 8
-11.526433 -6.7836776 2.1058114 8
-11.371056 -6.8955755 2.5508525 9
-11.572043 -6.5268645 2.5324469 9
-11.594409 -8.400197 3.4366176 10
-11.492683 -8.0998077 3.7755523 10
-11.672421 -7.8516717 3.7068827 10
-11.662744 -7.4846516 4.6839619 12
-11.699783 -6.6595502 4.8482232 13
-11.545551 -6.7230763 5.2003512 14
-11.708338 -6.4843831 5.1353493 14
-11.078412 -7.5168214 1.8882161 7
-11.142719 -7.2914262 2.241452 8
-10.855019 -5.3742194 1.7385565 8
-11.156725 -8.7466965 3.4726815 9
-11.165092 -7.1278543 2.6116662 9
-11.180839 -7.1754332 5.3224006 14
-11.364621 -6.949554 5.2598333 14
-10.808105 -7.8717413 1.9512458 7
-10.845722 -7.500092 4.5173807 12
-10.583969 -4.7222233 3.8727844 14
-10.657109 -7.8654742 5.5253811 14
-10.268687 -5.1420369 3.9739184 14
-9.7065439 -3.0321221 0.71777165 8
-9.6799116 -2.9033284 1.1184822 9
-9.6990862 -4.3674812 2.1228144 10
-9.8077393 -7.0287457 4.64362 13
-9.8277473 -6.3897314 4.3866692 13
-9.9305801 -5.9896913 4.2437758 13
-10.05801 -5.612824 4.1183758 13
-10.120795 -5.3549447 4.0301852 13
-9.8360319 -3.8664079 3.4369907 14
-9.2514763 -3.7597535 0.7094633 7
-9.4382515 -3.4728098 0.88581938 8
-9.5001116 -3.3183377 0.79199976 8
-9.2752199 -3.5091848 1.2148321 8.5
-9.3724213 -3.3035471 1.21038 9
-9.4045801 -4.9030905 2.0769053 10
-9.535737 -7.5101442 4.8063989 13
-9.5541477 -7.1339746 4.5672612 13
-9.6244497 -6.0475535 4.2200699 13
-9.4000616 -6.6129646 4.7737589 14
-9.6346922 -9.299201 6.0076613 14
-9.0552855 -4.0494819 0.77876049 7
-8.9657373 -4.0911703 1.0011752 7
-9.1604538 -3.8432515 0.9634068 8
-8.9712849 -4.1586304 1.4195408 9
-9.1092138 -3.7068703 1.3078159 9
-9.1328239 -6.7901602 4.0987005 12
-9.0958242 -8.6194592 5.2292862 13
-9.1671505 -8.2942352 5.0941305 13
-9.1125441 -7.9901066 4.7572193 13
-9.2902813 -6.4355984 4.2742581 13
-9.2546482 -2.9374871 3.012584 14
-9.0875778 -9.0159254 5.4024897 13
-8.7428799 -4.633656 1.1273506 7
-8.7876215 -4.3622284 2.0711176 10
-8.5832968 -7.5528116 4.344903 12
-8.6743631 -3.2997496 3.3074601 15
-8.6941824 -2.9893308 3.1980791 15
-8.223156 -1.9601424 0.51449978 8
-8.1713343 -2.2798543 0.86985999 9
-8.204257 -1.8659378 0.81186956 9
-8.2510405 -7.9831796 4.4917145 12
-8.4160585 -7.7640333 4.4150567 12
-8.5150566 -8.8387203 5.2582536 13
-8.3535376 -7.6981363 5.0874987 14
-8.5117569 -7.5015426 5.0205951 14
-7.760788 -2.0696406 0.62870926 8
-7.7422271 -1.9735239 0.80591798 9
-7.8896174 -8.8056612 4.8129516 12
-7.865273 -8.285656 4.6411395 12
-7.9687123 -8.6551638 5.115582 13
-8.0545158 -8.1132021 5.2348299 14
-7.434907 -9.6499071 2.9798334 8
-7.4698596 -9.3812017 3.6330616 9
-7.4163818 -9.1142063 4.9138422 12
-7.5606956 -8.6346092 4.7189946 12
-7.6747808 -8.7318354 5.1213784 13
-7.37468 -8.4937973 5.3240757 14
-7.177156 -5.2595329 2.5460091 11
-6.9964371 -9.3400497 4.8943119 12
-7.3137956 -9.3047533 4.9279027 12
-7.0631676 -8.8217049 5.1026187 13
-7.2547007 -8.7432985 5.4287839 14
-6.4729505 3.9814672 -1.4311115 7.5
-6.4370699 4.0538664 -1.0537982 9
-6.5278649 4.270833 -0.28740698 12
-6.5773401 4.3516388 0.29406342 14
-6.8440051 -9.474678 4.9419236 12
-6.048171 -4.6800122 1.2329637 7
-6.1348033 -6.9134121 2.4903998 9
-6.3997302 4.1463079 -1.0818917 9
-6.2493863 -3.8173435 1.8951615 10.5
-6.3517847 4.34905 -0.72589344 11
-6.3744845 4.5021825 -0.32515267 12
-6.408596 4.6327295 -0.16428389 13
-6.4182076 4.5667877 -0.072614588 13
-6.2598085 -9.229372 4.7464814 12
-5.6437187 -4.6723218 1.2739435 7
-5.7211838 -4.5239434 1.246779 7
-5.9240894 -4.0329428 1.3139255 8
-5.776825 -7.1175318 2.6114514 9
-5.716753 -4.2250414 1.6321505 9
-5.8432674 -3.9730699 1.5908668 9
-5.9396887 -7.091115 2.8307464 9
-5.6796675 3.1421382 -0.32072213 11
-5.721293 3.3232269 0.44121534 14.5
-5.5630403 3.111836 -0.91567838 9
-5.604773 -1.7868018 0.80564612 9
-5.34168 2.8620541 -0.37265572 11
-5.5160055 3.2692616 -0.72349024 9.666667
-5.4252501 -1.816367 1.2921761 12
-5.5311241 -1.597358 1.1822844 11.5
-5.3881998 2.6756792 -0.2342571 11
-5.510438 3.0784621 -0.20415129 11.666667
-5.5641065 3.3837037 -0.32865772 11.5
-5.4425731 2.8870146 0.3775211 14
-5.4951987 3.2794845 0.021943824 13
-5.5482454 3.5422654 0.017650638 13
-5.6550813 -1.8465405 2.0297105 15
-5.3915095 2.8825536 0.54757404 15
-5.6285357 3.3440833 0.46135107 14.666667
-5.3952522 3.6655653 0.46975887 15
-4.8511782 -1.1915262 0.31199032 8
-4.8674893 -1.0275602 0.33226919 8.5
-4.8974538 2.6378112 -0.98967099 8
-4.8810501 2.7671216 -1.0230608 7.5
-4.9339285 3.5423112 -1.1097106 8
-4.8446689 -1.2282709 0.79617119 10.5
-5.0163097 2.4176114 -0.26732269 11
-5.1604829 2.6238344 -0.31600761 11
-5.0091343 2.3888345 -0.0025297734 12
-5.1149554 2.7123625 -0.024641931 12.5
-4.9541283 3.7262332 -0.31463441 12
-4.8822083 2.1831388 0.4972991 14.5
-5.1153975 2.4859447 0.48202458 14.5
-5.2370515 2.9415898 0.14737007 13
-5.0418186 3.8058763 0.069953479 14
-4.8628349 3.7926936 -0.1123424 13
-5.1065617 3.8543382 0.33677608 15
-5.2430925 -7.6048112 4.6476808 14
-4.6547618 -1.4203204 0.41498783 8
-4.5682216 2.0607522 -0.6365478 8.3999996
-4.677815 2.4297507 -0.74423277 8.333333
-4.7636271 3.5967968 -1.103561 8
-4.7335052 -3.8241572 1.6835493 10
-4.47752 -3.3353405 1.5536484 10
-4.5674109 -1.0979942 0.79505062 11
-4.4272246 1.8077409 -0.36393169 10
-4.5324292 2.2348936 -0.45963797 9.75
-4.6623979 2.5773766 -0.56209671 9.666667
-4.6564951 3.7995219 -0.77327383 10.2
-4.8090868 -1.0725201 1.0226872 12
-4.5854211 1.9790238 0.12414431 12.666667
-4.7364721 2.2093661 0.11637054 12.666667
-4.6388478 3.8525839 -0.36366466 12.333333
-4.765986 -1.1949886 1.6634845 15
-4.7060685 -1.0073971 1.5273002 14.75
-4.5365748 1.7421967 0.58614504 15
-4.7155442 1.9819336 0.57722777 15
-4.6429234 4.0152354 -0.068754107 13.6
-4.6275206 4.0611877 0.19684301 15
-4.3622851 -4.8506179 1.3389314 7
-4.4045177 1.7983929 -0.43950936 9
-4.1785679 3.96453 -1.2114279 8.25
-4.3739362 1.8509367 -0.18166098 10.666667
-4.2451711 4.0774112 -0.78845721 10.25
-4.2193985 1.3267801 0.60396045 15
-4.2580547 4.156538 -0.46912995 12
-4.3177161 1.4559171 0.598818 15
-4.416048 1.5929114 0.59216934 15
-4.2124162 4.3287687 -0.18579179 13.6
-4.3741784 4.1991987 0.17037554 15
-4.21838 4.3775568 0.14697872 15
-3.6201427 2.9012935 -0.84692889 8.5
-3.7951159 -3.9424932 1.6915214 10
-3.939754 4.2885504 -0.81047064 11
-3.6441591 4.495193 -0.8644743 10.5
-3.9747553 4.305048 -0.48763087 12
-3.6720197 4.5505819 -0.65576744 11.666667
-3.9237022 4.5056233 -0.25423977 13.333333
-3.7216599 4.6644645 -0.21248296 14
-3.8879917 -6.8855782 3.9388547 13
-3.9429846 4.5266247 0.12084424 15
-3.6715295 4.8344235 0.087551288 15
-3.9747167 -6.864068 4.1582727 14
-3.3494434 -6.8355632 2.0690513 7
-3.550463 3.0067906 -0.88798481 8.333333
-3.4204829 3.1467247 -0.89272612 8.5
-3.4137785 4.5391831 -1.3606124 8.5
-3.2595854 4.6614871 -1.297278 9
-3.5111117 -4.5363865 1.7683904 9
-3.6201384 -4.212626 1.6897537 10
-3.2788668 2.1920512 -0.35699385 10.5
-3.5664582 3.1411457 -0.75820971 9
-3.4210331 4.666079 -0.98764962 10.333333
-3.2700815 4.8027077 -0.89772832 11
-3.481709 4.7412958 -0.60047978 12
-3.5134854 4.8450317 -0.23600274 14.125
-3.307811 4.9618301 -0.38190445 13.5
-3.3932869 5.0286584 0.064627394 15
-2.824053 -4.0298781 1.1151496 7
-2.8816891 -3.5192528 0.94311494 7
-3.0794947 -7.3200278 2.5717716 8
-2.9576159 -3.9524677 1.3026809 8
-2.9862978 2.0926142 -0.61559713 8.666667
-2.8096211 3.4250562 -0.98257053 8.5
-3.1411641 4.7336755 -1.2991276 9
-3.1691618 -4.9449782 1.8534048 9
-3.0905085 2.3237755 -0.39362991 10.5
-2.9046807 2.4681146 -0.44410616 10.5
-2.884728 3.4710879 -0.83455431 10
-3.0341206 4.9943686 -0.9362691 10.5
-3.0303116 -3.6016369 2.0076251 12
-2.9298017 -1.9667546 1.4017363 13.5
-2.999984 5.0991235 -0.74869454 11.142858
-3.0525053 5.1671925 -0.39105475 13
-3.0661469 5.2622271 -0.10510558 14.333333
-2.7057984 -4.0554094 1.1187605 7
-2.49437 -2.3723593 0.83146673 8.3999996
-2.6403036 -2.1828239 0.75204778 9
-2.5336668 2.6481125 -0.68663609 9.166667
-2.7071462 2.690896 -0.82716465 8
-2.4380896 3.4881005 -0.81977546 10
-2.6147339 5.1829653 -1.4505392 7.3333335
-2.511158 -2.1873829 1.1838913 11.5
-2.6094153 -2.0637124 1.0968888 11.333333
-2.620919 2.653141 -0.48272982 10.6
-2.539422 5.2032671 -1.3684689 8
-2.482415 -2.4421997 1.6016209 14
-2.6328189 -2.2073085 1.5720375 14.142858
-2.7247324 -1.9394404 1.4729182 14.5
-2.8312225 5.2718844 -0.61419189 12
-2.6022103 5.3937564 -0.78766674 11
-2.6438615 5.483285 -0.41582498 12.666667
-2.6301286 5.6008883 -0.12528893 14
-2.1570137 -4.2222991 1.578016 9
-2.1942458 -2.77723 0.91298366 7.75
-2.2678068 -2.473315 0.94177121 9.1428576
-2.1204841 -1.6250829 0.67934722 9.75
-2.2482243 2.9098575 -0.72839445 9.5
-2.2848182 5.3955631 -1.5048341 9
-2.1534288 5.4523706 -1.5020754 9
-2.2655573 -4.0748177 1.8214065 10.5
-2.1306794 -3.9389405 1.6244255 9.666667
-2.1261809 -3.7047324 1.5023063 10
-2.25015 -2.3528616 1.2636858 11.75
-2.2018723 -1.5476718 0.81517923 11
-2.2417552 2.9187806 -0.55708212 10.333333
-2.2200572 3.347178 -0.76057494 10
-2.1172943 -2.4442146 1.6720748 15
-2.3149936 -2.3852358 1.5623 14
-2.2342262 5.5610509 -0.79667461 12
-2.189461 5.6605482 -0.88572609 11.5
-2.3932445 5.6611304 -0.4886823 13.5
-2.2124481 5.7805939 -0.53098941 13.5
-2.4063199 5.8034158 -0.1353368 15
-2.2382336 5.8597775 -0.20967849 15
-1.8056285 -4.1752014 1.5675336 9
-1.8441653 -3.8713865 1.4849952 9
-1.7299064 -3.3495228 1.3590753 10
-1.864604 -1.6447201 0.68762416 9.75
-1.9543889 3.0975239 -0.7724787 8.5
-1.7878699 3.247659 -0.77882624 8.6000004
-1.6844677 3.7401185 -0.95816356 8
-1.5999954 5.1250224 -1.3355056 9
-1.9461466 -3.2070558 1.5575728 11
-2.0052927 -1.4736166 0.79033804 11
-1.9631841 3.1233561 -0.67745334 9
-1.7338454 3.2887859 -0.67570299 9
-1.6764446 -2.5420892 1.7727982 15
-1.794909 5.2157717 -0.69790077 12.5
-1.7702837 5.3414731 -0.77190232 11.833333
-2.0937009 -5.7474341 3.3071005 13
-1.733633 -5.0692363 3.0910254 14
-1.831943 5.4130154 -0.35372207 14
-1.9883662 5.8859944 -0.39703178 14
-2.0922842 -5.6917157 3.4330945 14
-1.817251 5.4203877 -0.094972603 15
-1.7060472 5.5079808 -0.096053049 15
-1.4251599 -2.2456892 0.99500746 10.5
-1.4043778 -2.1594777 0.7853269 8.8000002
-1.5901922 3.4073822 -0.75621128 9
-1.4222112 5.2176123 -1.3378145 9
-1.3256428 -2.5131645 1.5041676 13.5
-1.520335 -2.3196945 1.3695834 13
-1.493925 3.471247 -0.74634993 10
-1.3083932 3.6120181 -0.75944233 10
-1.3319021 5.3125725 -1.2482934 9.666667
-1.5867597 -2.4515097 1.6334819 15
-1.4818103 -2.4106627 1.6063879 15
-1.4549572 5.3908734 -0.80121273 12
-1.5718529 -4.9737644 3.0348735 14
-1.4803797 5.5706825 -0.33656028 14.111111
-1.2765187 6.0161786 -0.6181255 13
-1.3003036 5.8808961 -0.23201336 15
-0.82212079 -4.0043831 1.3296802 7.5
-0.91109997 -2.9917271 1.3096668 10
-0.95931983 -2.9624417 1.5386765 12
-1.2255248 -2.5697017 1.5175352 13.5
-1.1161804 3.7890162 -0.78546447 10
-0.9669233 5.6324258 -1.3095915 9.5
-0.81048852 6.4499264 -1.4493129 10
-0.93406475 -2.8870244 1.8295965 14.666667
-1.033198 5.6585922 -0.93589866 11.5
-0.83978391 6.5415816 -1.0850325 11.5
-1.1332922 5.764256 -0.3695972 14
-1.1158892 5.9620252 -0.44026309 13.5
-1.0178307 6.1839728 -0.5742597 13.333333
-1.0913038 6.1118727 -0.23380327 15
-0.97176439 6.9219484 -0.14300931 15
-0.465767 -0.96049756 0.11450879 2.6666667
-0.39144838 1.5161272 -0.74253726 3
-0.45215854 2.4965522 -1.1275567 4
-0.56092203 2.8311346 -1.2626619 4
-0.62029278 -3.1546509 1.2309343 9
-0.77957201 -2.9403152 1.3002138 10
-0.5306713 -1.5735353 0.77427179 11.333333
-0.65736967 -1.3645355 0.664621 11.4
-0.73336452 -5.195775 2.2631469 10
-0.6138072 -5.1294975 2.2915385 10
-0.64660031 -2.999892 1.6576892 12.875
-0.78602397 -2.8734643 1.4206272 12
-0.80649614 -1.1288694 0.7642836 15
-0.69835728 5.8073549 -1.3960942 9
-0.50266093 6.0554838 -1.3870479 9.5
-0.69902557 6.360703 -1.4246619 10
-0.74728042 -4.9843712 2.7500012 12.5
-0.80919003 -2.9615657 1.8882022 14.5
-0.67305452 6.6728702 -1.0786865 11.4
-0.55480266 6.8259411 -1.0601569 11.5
-0.80994952 -4.9235096 3.0018086 14
-0.68123436 -4.8757496 2.9786448 14
-0.79956776 6.0726891 -0.45472044 13.5
-0.61497587 6.3768101 -0.5978812 13.25
-0.49166074 6.5308747 -0.71711284 13
-0.63233268 6.3198123 -0.26345176 14.6
-0.67230493 7.1607361 -0.13824886 15
-0.0096361376 -2.722621 0.7668196 6
-0.18813805 -2.033885 0.51315224 5
-0.22943331 -1.732767 0.41294202 5
-0.14255853 -1.3832242 0.29911557 4.4000001
-0.19524266 -0.99319512 0.15114132 2.7777777
-0.19521795 -0.6999293 0.042950224 0.75
-0.031248156 0.558918 -0.37878063 0
-0.057806138 0.84681463 -0.49030262 0.80000001
-0.1780379 1.2451754 -0.63656241 2.5999999
-0.17507227 1.6514864 -0.79541218 3
-0.18332651 1.9834483 -0.91113591 4
-0.16286282 2.3270676 -1.0313648 4
-0.13297005 2.7792935 -1.1880239 4
-0.099168509 -4.9216208 1.7873809 8
-0.16664581 -1.9950693 0.89983052 10.333333
-0.22989297 -4.8314395 2.1902456 10
-0.082964979 -4.7706766 2.0859797 10
-0.24519338 -1.7738352 1.140922 14.5
-0.2973612 6.1241593 -1.4573184 9
-0.2012866 6.4625645 -1.4624722 9.5
-0.10662983 6.9642129 -1.5150247 10
-0.36342326 -5.0260167 2.6984935 12.5
-0.26235911 -4.8822136 2.6339839 12.333333
-0.10462289 -4.5491519 2.5965064 13
-0.24746585 6.9733829 -1.1134511 11.4
-0.27032387 -4.5997791 2.7565155 14
-0.15472049 -4.5380383 2.7320626 14
-0.21265365 6.4944091 -0.40578592 14
-0.25166702 6.6553545 -0.62943149 13.25
-0.159748 7.1686797 -1.0267438 12
-0.24854653 6.4818268 -0.35948396 14.6
-0.39304602 7.3428402 -0.26430485 15
0.11964379 -4.9951053 1.4865986 6
0.23428921 -4.9130979 1.477584 6
0.27847508 -3.8955588 1.1920717 7
0.35762751 -3.2665336 0.96956772 6
0.36755815 -2.7841153 0.78740013 6
0.19273773 -2.5344641 0.69922262 6
0.36744419 -2.132911 0.57888699 5.5
0.25149891 -1.752212 0.4501732 5
0.23663883 -1.3804864 0.31730697 4.5
0.20070818 -1.0095382 0.1785181 3
0.20698826 -0.6368134 0.059029069 0.875
0.36387858 -0.41335964 -0.011887416 0
0.24045064 0.58682191 -0.37974665 0.14285715
0.23459791 0.87390816 -0.48452917 1.2
0.22117278 1.2360579 -0.60009605 2.8
0.19071364 1.6355369 -0.73684376 3.75
0.16238908 1.9262507 -0.84427577 4
0.28237844 2.3431094 -0.98226833 4
0.045133576 5.8031168 -1.9465086 7
0.12189231 -4.9099765 1.8417138 8.5
0.18248442 -4.7937374 1.7768277 8.25
0.31419834 -3.331732 1.1105951 7
0.14236182 -4.6527042 2.1730773 10.333333
0.29448065 6.9318094 -1.6194375 9
0.19384378 7.1858139 -1.5769193 9.666667
0.11650161 -4.6625595 2.552218 12.5
0.15413767 -4.560245 2.5413897 12.666667
0.052734509 7.1531873 -1.1019413 11.5
0.26117977 7.3251276 -1.2682934 10.75
0.064704269 -4.47753 2.8939281 14.5
0.056692109 6.8476353 -0.65889943 13
0.1218812 6.9779544 -0.78716362 12.75
0.086721823 6.6877594 -0.40965453 14
0.11488774 7.5136123 -0.39623529 14
0.08252193 7.6894798 -0.24064961 15
0.7617057 -2.8491175 0.83695817 6
0.72066182 -2.550643 0.73587888 6
0.67050171 -2.1908932 0.61621386 6
0.6103608 -1.7544372 0.46880513 5
0.64381474 -1.3265088 0.32544687 4.6666665
0.60363764 -0.98665881 0.19551907 3.5
0.5623458 -0.56687212 0.059101466 1.75
0.55066651 -0.38702714 -0.010155999 0.5
0.69604266 0.19523455 -0.20300166 0.85714287
0.63347262 0.52896917 -0.33235353 1
0.59079778 0.89150739 -0.46045855 2.2222223
0.60585493 1.2840894 -0.58769685 3.375
0.61896813 1.6279656 -0.70223147 4
0.57888895 1.9928474 -0.8364023 4
0.61799556 2.3951936 -0.97631812 4.5
0.65567821 2.7901251 -1.111837 5
0.71759409 3.3557701 -1.3264275 5
0.80986702 4.352252 -1.6610987 5
0.37796694 -4.6984344 1.8176897 8.5
0.76133388 -3.8079998 1.5761174 9
0.69998592 -3.0077732 1.4047474 10
0.58703136 -2.851784 1.2795645 10
0.8046273 6.2908812 -1.8349786 8
0.39472574 -4.5512657 2.2745352 11
0.63984817 -3.1226838 1.5389748 11
0.4236455 -2.7137997 1.4394883 12
0.74282527 6.944109 -1.5761477 9
0.65077525 7.2036319 -1.4907677 10
0.37680811 -4.5100064 2.4528012 12.5
0.53514344 -4.1275558 2.4755502 13.5
0.50519216 7.0890641 -1.0111868 12
0.69050229 7.306334 -1.2546482 10.666667
0.39626595 -4.3261814 2.9919543 15
0.5641225 7.1726093 -0.78845543 12.666667
0.52529007 7.2811179 -0.97358841 12
0.40681371 6.9125423 -0.4144412 14
0.37882653 7.7050133 -0.39129141 14
0.56528085 7.8544507 -0.38928029 14
0.56940681 7.6444049 -0.18369535 15
0.8826561 -3.7275891 1.1339983 6
0.81585914 -3.2404058 0.96838635 6
1.1613607 -2.8692672 0.90073705 6
1.0393742 -2.4302304 0.74330848 6
0.92463022 -2.0166883 0.59445482 6
1.0154337 -1.7166485 0.49035463 5.6666665
0.99919397 -1.3374565 0.35066426 5
0.94855297 -1.0313312 0.23088384 4
0.82545871 -0.76495439 0.13576582 3
1.0083712 0.26893035 -0.21465881 2.6666667
0.98899347 0.49873471 -0.30179518 2.5714285
0.9994092 0.86292839 -0.42699963 3.1428571
0.98188913 1.233426 -0.55421895 3.6666667
1.0371579 1.6539557 -0.68910521 4
1.0643491 1.976487 -0.80723119 4.3333335
0.95696998 2.3650763 -0.95447421 5
1.0555507 2.7807345 -1.095232 5
1.1873726 3.336684 -1.2834241 5
0.88113946 6.2634673 -2.0300183 7
0.81307203 -3.8535845 1.4489695 8
0.79958588 -3.1170347 1.3781126 9.5
1.1546131 -3.7409425 1.8296992 11
1.0577492 -3.6426895 1.7377809 10
0.83712834 -3.0380104 1.8138733 13
0.99143785 6.9977012 -1.5321398 9.333333
0.96502715 7.1141696 -1.165929 10.833333
0.79148358 7.1684275 -1.2191508 11
1.0123051 7.2666159 -0.83150458 12.5
0.76185489 7.352303 -0.72168446 13
0.9348616 7.2602596 -0.55837679 13
0.95205337 8.1019707 -0.507254 14
0.98949063 7.4510512 -0.11871706 15
0.82832468 7.572392 -0.14790455 15
0.88701934 7.9252639 -0.36601779 14
1.2817351 -3.3000708 1.0527807 7
1.5311737 -2.6846111 0.84249854 6
1.4039586 -2.3936145 0.73739761 6
1.3609829 -2.0327191 0.60854805 6
1.449257 -1.7800168 0.52232367 6
1.2587813 -1.4710101 0.40798417 5
1.3552859 0.51855427 -0.27600592 3.6666667
1.4275097 0.89951003 -0.4029277 4
1.4459574 1.2741771 -0.53186333 4.1999998
1.4168835 1.5721625 -0.6509999 4.5
1.5261792 2.0259235 -0.8226074 4.5
1.2762177 2.2691736 -0.89531511 5
1.4851694 2.8133762 -1.0724603 5
1.6158741 5.6054621 -1.7971781 7
1.368132 -3.7893574 1.4251415 8
1.4011868 -3.6658611 1.4537488 8.666667
1.5650611 5.7351823 -1.6515464 8
1.5275143 5.8091474 -1.5485361 8
1.3922422 -3.6591048 1.8463281 10.8
1.3305547 -3.5436373 1.8274559 11
1.3466349 5.6852036 -1.2701595 9
1.5096732 6.5934916 -1.2278826 10
1.273468 6.8963137 -1.4595048 9.333333
1.3500841 -3.4919586 2.3075573 14.2
1.3024399 -3.3952467 2.2203424 14
1.3375522 -2.7794468 2.0205185 15
1.50509 6.7079568 -0.96443981 11.333333
1.3435603 6.942071 -1.09009 11
1.4250512 6.637249 -0.75165886 12
1.2801561 7.111896 -0.79038483 12.5
1.5173315 7.1487927 -0.51684588 13
1.2298368 7.4887486 -0.57276285 13
1.2897737 7.4170828 -0.077462487 15
1.3747716 7.8329945 -0.31093791 14
1.7345012 5.4271731 -2.1105084 5
1.8514371 -3.6839275 1.235021 7
1.6948184 -3.05881 0.97741181 6
1.8322598 -2.4007759 0.74999285 6
1.6836206 -2.15956 0.66047841 6
1.7600533 0.63118243 -0.27437273 5
1.802343 0.86376101 -0.36997271 5
1.7741842 1.2650362 -0.50934517 5
1.6781859 1.7421305 -0.68584251 5
1.8860449 2.0283434 -0.77540022 5
1.7084876 2.3570726 -0.93214446 5
1.8699962 2.6500933 -1.0294335 5
1.634733 3.2016947 -1.1998374 5
1.6836395 5.4424558 -1.9891664 6
1.6004684 -3.7686276 1.374909 7.5
1.8076366 -3.6169088 1.4139183 8.166667
1.7810919 -3.4668634 1.8435847 11
1.5917695 -2.8095641 1.807475 13
1.695302 5.8371325 -1.3220119 9
1.8347514 6.0965881 -1.2149624 9.5
1.6309586 6.4231977 -1.1800785 10
1.6769542 -3.3507028 2.2629027 14
1.7952549 6.283812 -0.82382703 11.4
1.6261504 6.5292888 -0.920479 11.333333
1.8870451 6.3302932 -0.3927038 13
1.6662916 6.688633 -0.502186 13
1.8901144 6.9814849 -0.31546554 14
1.8447307 7.3283706 -0.28477737 14
1.6450298 7.6180892 -0.33283922 14
1.6583158 7.2914829 -0.018332133 15
1.6158166 7.690732 -0.27225778 14
2.1448343 -3.4573166 1.2015483 7
2.2922835 -3.2603605 1.1071333 6.5
2.1394994 0.94082379 -0.36795077 5
2.2186728 1.3484538 -0.51832032 5
2.0767431 1.7579652 -0.6577549 5
2.2904747 2.5975685 -0.93820906 5
2.3558564 2.7676263 -0.89215165 6.5
2.3187118 5.108098 -1.7197901 6.5
2.0744221 -3.408087 1.4593066 9
2.28774 -3.2698319 1.3680047 8.5
2.329299 -0.44517386 0.38251844 8.333333
2.1540418 2.7956581 -0.58686364 8.5
2.1805806 5.0828552 -1.4423525 7.5
2.3456292 5.8791442 -1.3437316 9
2.0797405 -3.2842767 1.796482 11
2.251281 -3.1396677 1.7528838 11
2.2807262 5.7606101 -1.129194 9.333333
2.1958184 6.0642228 -1.1690686 9.6000004
2.05439 -3.1584823 2.1701674 14
2.2174218 -2.9995525 2.1835566 14.25
2.3461649 5.9177947 -0.67729366 11.5
2.191668 6.2477026 -0.79931933 11.4
2.224606 6.06007 -0.36397716 13
2.1853707 6.3330112 -0.45618105 13
2.1615088 6.2765679 -0.21387394 14
2.1834123 6.8846998 -0.13306041 15
2.0039918 7.1335301 -0.17687237 14
2.2833183 6.5261083 0.13579676 15
1.9280232 6.9914765 0.044341654 15
2.4856699 2.1942673 -0.78386325 5
2.7722607 2.4999728 -0.87232995 6
2.5176899 -3.1012874 1.3145663 8.363636
2.7359781 -2.9577227 1.2326305 8
2.5385251 -0.36801139 0.47543535 9.4285717
2.6225739 -0.12401155 0.40874413 9.3571424
2.5670514 0.31144094 0.30208737 9.909091
2.7132249 0.52467346 0.25259712 10
2.7768476 5.4875917 -1.2239214 9
2.5180829 -2.9511662 1.7054082 11.111111
2.6928596 -2.8293993 1.6405113 11
2.6091049 -0.24721777 0.79067039 13
2.6269073 -0.013968021 0.75884455 13.3
2.5540247 0.38240284 0.62681264 13.5
2.6775949 0.64647317 0.62441492 13.8
2.5952959 5.5146079 -0.99598193 9.75
2.5275493 5.7429147 -1.0279112 9.75
2.4862926 -2.8340189 2.0979841 13.875
2.7092664 -2.6952291 2.0198073 13.5
2.676918 0.30361497 0.8845644 15
2.6187398 5.5139594 -0.44983366 12.5
2.5742133 5.8395452 -0.71752614 11.25
2.3927228 6.1767073 -0.94987464 11
2.4882596 -2.7236984 2.2747715 15
2.6462584 -2.6150107 2.2495406 15
2.5803072 5.7878246 -0.19991539 13.5
2.4736052 5.9976897 -0.31553781 13.4
2.6058924 5.7197475 0.033392504 15
2.4617891 6.096137 -0.021724774 15
2.3982029 6.5445709 -0.074594155 15
3.0227141 -2.8190632 1.027685 7
2.8532057 1.1687181 -0.38848618 6
2.9050522 1.5745158 -0.54941154 5.5
2.8232172 1.9797996 -0.68999594 5
3.1448402 5.0738292 -1.7184103 6
2.9480622 -2.7963271 1.2127171 8
2.8992643 -0.41345817 0.33364728 8
2.7892706 -0.123661 0.48420581 10
3.0029566 0.71850228 0.19454449 9.4285717
3.1979783 4.9726429 -1.1156303 8
2.8575842 5.2320065 -1.177076 9
3.1521339 5.4793506 -1.4431876 8
2.9260583 -2.6651022 1.5994035 11
2.9219515 -0.18876116 1.0063155 14.5
2.7896233 -0.097772479 0.98844826 15
2.9744079 0.8129276 0.53366596 12.5
3.0039039 5.0853662 -0.92979038 9.5
2.9177821 5.387125 -0.96807867 9.75
2.9307148 -2.5145679 1.9907933 13.6
2.9109201 -0.16104393 1.0952625 15
2.7926047 0.079562016 0.98928207 15
2.9657395 0.85851693 0.77149224 15
3.0468504 5.2697139 -0.34854397 12.333333
2.9105036 5.434679 -0.47014856 11.714286
2.7695065 5.7589364 -0.54128885 12
2.9207768 -2.4192832 2.2309036 15
2.8842494 5.3180714 -0.041353934 14
2.9233837 5.5920548 -0.146697 13.5
2.7818403 5.8722925 -0.19439508 13.5
3.1342001 5.5330386 0.11944629 15
3.3729815 -2.5577095 0.97431707 7
3.5150945 1.4957875 -0.45482746 6
3.2135208 -2.6095705 1.1508418 7.6666665
3.4460053 -2.4271693 1.1620954 8.3076925
3.2048435 0.86900628 0.21624088 10
3.4452465 1.0258282 0.086860545 8.875
3.5677462 4.5404205 -0.8514154 9
3.363991 4.7933583 -0.94258171 9
3.1709664 -2.4806898 1.5678184 11
3.4004354 -2.3025756 1.5470968 11.125
3.1770465 0.93106169 0.49248257 12
3.4025302 1.1153063 0.45962927 11.888889
3.5043426 4.6750493 -0.74595714 9.666667
3.2904909 4.9391842 -0.8186689 9.8571424
3.1464658 -2.3269491 2.0346138 14
3.3558793 -2.2099507 1.882694 13.285714
3.2190316 1.0897588 0.87905008 15
3.3840108 1.2172979 0.79006928 14.666667
3.5066113 4.7922029 -0.27201617 12
3.2999706 5.0691381 -0.35636973 11.875
3.1666305 -2.2487607 2.2245109 15
3.2804823 -2.1529579 2.218421 15
3.4884975 4.9629054 0.024241535 13.5
3.3292089 5.1830425 -0.03269973 13.666667
3.2627351 5.3462477 0.15547901 15
3.6616571 -2.3815713 0.87280637 7
3.8213105 -2.2369568 0.84994882 7
3.6442623 4.461617 -1.5216048 6
3.7418396 4.5408702 -1.614764 5
3.6208827 -2.2994871 1.0906682 8
3.838068 -2.0335405 1.0563489 8.333333
3.7055895 1.1934426 -0.0010405802 8.5
3.9177198 1.3833814 0.051738258 9
3.8441834 4.1451645 -0.8572337 8.333333
3.6300893 4.4280415 -0.90452772 8.5
3.6625011 -2.1212158 1.5305535 11.25
3.8383291 -1.8975005 1.4642115 11
3.704273 1.3072208 0.42256987 11.5
3.8587053 1.4523567 0.37947586 11
3.8287218 4.2652669 -0.52795976 9.875
3.6473625 4.5022845 -0.61832267 10
3.6643457 -2.0154114 1.8073994 13
3.8038278 -1.8014201 1.792424 13.5
3.641403 1.3688368 0.70310563 14
3.8495624 1.5835577 0.79650682 14.2
3.8278852 4.3850684 -0.18503428 11.875
3.6370764 4.6525555 -0.22533864 12
3.8391151 4.5250711 0.27133885 14
3.6302061 4.7892003 0.1436661 13.75
3.862721 4.5812778 0.54173183 15
3.6744952 4.8533878 0.49863073 15
4.1675963 -1.915162 0.80119985 7
4.1082687 3.9695051 -1.2342162 6.5
4.1751451 -1.8350233 1.0315114 8.5
4.2077527 1.5820332 -0.0044929641 8.5
4.3485942 3.4889932 -0.62253618 8.333333
4.1719537 3.719481 -0.70485228 8.5
4.1259599 -1.7216221 1.3244232 10.333333
4.3409739 -1.6220884 1.358816 10.5
4.1335068 1.6174712 0.33392736 11
4.2950253 1.7569705 0.11438078 10
4.3569999 3.5824223 -0.29368141 10
4.1717191 3.811301 -0.39314938 9.875
3.9886129 4.0758405 -0.41129151 10
4.0875797 -1.6311675 1.7328274 12.8
4.1836052 -1.4798832 1.7412201 13.25
4.1343832 1.7680706 0.69197744 13.5
4.336556 3.7324505 0.11651564 12.333333
4.1688271 3.9472969 0.013567056 12.4
4.0034528 4.1872106 -0.03229212 12.5
4.1215367 -1.3750458 1.9382503 15
4.0856462 1.7786115 0.97858036 15
4.1372042 2.0552983 0.9872511 15
4.3140235 3.8516197 0.39142045 13.5
4.1254487 4.1087942 0.33281484 13.5
3.9426882 4.3919706 0.35667318 14
4.148211 4.1700335 0.63567179 15
4.006516 4.377264 0.57672286 15
4.5679221 -1.6884217 0.73137194 7
4.7680297 2.7686913 -0.86289293 6
4.4927034 3.3627467 -1.0762023 6
4.5789919 -1.6071612 0.94321495 8.1428576
4.5928965 1.8731004 -0.087820813 8.5
4.7140408 3.0044358 -0.50189877 8
4.5046096 3.2904482 -0.54166937 8.25
4.5532594 -1.4854023 1.30889 10.4
4.7453661 -1.2712581 1.2988868 11
4.5747137 1.9385952 0.26469201 10.5
4.6444254 3.1924479 -0.20336334 10
4.4707465 3.4298239 -0.24802648 10.2
4.515306 -1.3568459 1.7431915 13
4.5619497 2.0239277 0.60908586 12.5
4.6776562 2.2718709 0.47506028 12
4.6536908 3.3047967 0.22177109 12
4.4820981 3.5301399 0.14664546 12
4.4659395 -1.2231051 1.9834514 14.666667
4.712954 -1.0212357 1.9874208 15
4.4788289 2.0687902 0.95825839 14.5
4.6059122 2.4257421 0.95987922 15
4.6386466 3.4452131 0.66731328 14.5
4.4590225 3.6807497 0.55016673 14.142858
4.7086926 3.4527912 0.92519641 15
4.459959 3.7677245 0.78611642 15
5.0226455 2.2280285 -0.62821007 6
5.0521078 2.5034416 -0.55553919 7
4.8333573 2.7617979 -0.94913048 5.5
4.8401737 -1.4382645 0.87277323 8
5.0200038 -1.2744412 0.82100254 7.8000002
5.0382137 2.1816556 -0.1615804 8.5
4.9985719 2.6450162 -0.35006014 8.166667
4.8345714 2.8502049 -0.46250436 8
4.8317394 -1.3173686 1.2406398 10.5
4.9014802 -1.1711237 1.2485268 10.5
4.8115149 2.1546316 0.34002712 11
5.1124635 2.3123853 0.10528348 10
5.0072761 2.7245033 0.027749224 10
4.8264799 2.9827082 -0.04825335 10.333333
4.7843981 -1.1912206 1.7452303 13
4.8840218 -1.0702333 1.695384 12.5
4.8288674 2.1698139 0.45622677 12
4.8745575 2.2880406 0.60505819 13
5.0077839 2.8398888 0.39572698 12.111111
4.8039379 3.0991542 0.28386235 12
4.8827944 -0.90069312 1.9225326 14.5
4.7537022 2.3115518 1.0583919 15
5.048315 2.4646986 0.85811186 13.5
5.0078621 2.9412632 0.79105961 13.75
4.7548718 3.2725401 0.61644191 14
4.9514771 3.1154294 1.0237652 15
4.7820086 3.3400209 0.9575665 15
5.1906843 -1.1151646 0.78031939 8
5.2125945 2.3523688 -0.29013771 8
5.2178745 -0.91933048 1.1111284 10
5.1899033 2.4720271 0.11480772 10
5.1973281 2.5410404 0.4313865 12
5.234941 -0.62806129 1.8655679 14
5.1932259 2.6773362 0.85564226 13.5
5.1675968 2.7246594 1.1001543 15
7.5417924 -1.487788 0.96710229 7
7.4231019 -1.3593063 0.99063897 8
7.4198837 -1.2714154 1.5873135 10
7.3881974 -1.1834098 1.7493169 11
7.4337497 -1.0185782 2.5874941 14
7.286273 -0.73316085 2.4137199 13.666667
7.8521891 -1.2582216 2.7509651 13
7.8345852 -0.8078528 2.5934763 13
8.1573172 -1.6873174 2.9206553 13
8.0116673 -1.4704438 2.8372364 13
8.2075872 -1.2263083 2.8073027 13
8.5800819 -2.2767289 0.9831081 6
8.6739712 -2.0078204 0.94541508 7
8.5438738 -2.151356 1.3268251 7.5
8.420146 -2.1123021 1.7948779 9
8.5736761 -1.9433961 1.7792962 9.5
8.4581871 -1.955681 2.0644181 10
8.466032 -1.6987058 1.8698039 10
8.4557333 -1.8287421 2.5088971 12
