# .PCD v0.7 - Point Cloud Data file format
VERSION 0.7
FIELDS x y z intensity
SIZE 4 4 4 4
TYPE F F F F
COUNT 1 1 1 1
WIDTH 105
HEIGHT 1
VIEWPOINT 0 0 0 1 0 0 0
POINTS 105
DATA ascii
0.17742431 -0.97502118 0.1131995 192.5
0.31010371 -0.93540621 0.1023533 195
0.19578506 -0.88602751 0.090323672 196
0.20753373 -0.85168439 0.069504745 197.33333
0.3162106 -0.87229329 0.08067441 197
0.43189049 -0.8785367 0.083708078 200.75
0.54099858 -0.83665556 0.073212475 199.5
0.22842593 -0.75028247 0.043488756 196
0.32497481 -0.76698929 0.048601903 196.2
0.42489684 -0.772888 0.054129355 197.25
0.52191192 -0.74958706 0.052240279 197.75
0.62807041 -0.7547012 0.050414324 199
0.2473972 -0.65175384 0.021604372 193
0.32990381 -0.64979428 0.026834706 192.75
0.41684392 -0.6752764 0.03202061 194
0.52995527 -0.67677957 0.026473299 195
0.64730114 -0.67109525 0.02471655 196.5
0.70706874 -0.68807441 0.035492808 197
0.26476863 -0.5673759 -7.5007927e-05 189.42857
0.33688125 -0.57769549 0.0019607469 189.85715
0.45046127 -0.59035236 0.0063434653 191.14285
0.56015247 -0.56612748 5.4677508e-05 192
0.63929272 -0.55720669 -0.0025187836 193.39999
0.75612718 -0.59219861 0.0036755023 196.66667
0.82944727 -0.54467309 -0.011693398 197.25
0.28284073 -0.51166731 -0.031500749 185.66667
0.3465341 -0.51168764 -0.030403281 185.71428
0.44177952 -0.50068808 -0.026319342 186.41176
0.54641217 -0.46428543 -0.033247706 186.60001
0.65697664 -0.49044716 -0.023035677 191.55556
0.74036199 -0.47010309 -0.025402069 194
0.85817254 -0.48403713 -0.036321055 195.75
0.2999762 -0.43589771 -0.055126842 180
0.33754766 -0.40881678 -0.065678433 178.1875
0.44402587 -0.38238835 -0.070774011 178.96428
0.55333 -0.39432019 -0.066981055 181.625
0.64216554 -0.38524702 -0.059039686 185.8
0.75229424 -0.39103866 -0.052138638 191
0.8370828 -0.36771852 -0.060255874 193.60001
0.91574508 -0.40226924 -0.064052284 196
0.3405481 -0.27510491 -0.11743924 171
0.48480862 -0.34033787 -0.090098679 178.33333
0.55597013 -0.29999629 -0.09671849 178.22223
0.65621501 -0.29294512 -0.097614899 181.85715
0.73671985 -0.28472379 -0.087162182 186.8
0.84007061 -0.29408315 -0.084923312 192
0.95000237 -0.29075024 -0.099586643 195.5
0.59501433 -0.23631349 -0.11941963 177.39999
0.64179909 -0.19863623 -0.12788182 178.46428
0.7473684 -0.2056639 -0.11952432 185.14285
0.8574549 -0.19002961 -0.1183491 191.76923
0.9385258 -0.19308881 -0.12203473 195.5
0.65718496 -0.11446182 -0.15624565 178.03847
0.76763773 -0.11606262 -0.14923795 184.8
0.85754746 -0.099220268 -0.14660853 190.33333
0.9493047 -0.11016071 -0.15254796 191.66667
-0.70496249 -0.004703444 -0.20595439 144
-0.64222807 -0.0083800685 -0.20643914 156.66667
-0.5336296 -0.013222588 -0.20188195 171.75
-0.42800418 -0.018439351 -0.19928375 181.60001
-0.31996861 -0.020700075 -0.18568666 182.5
-0.25234443 -0.02493575 -0.18724477 178.16667
-0.17848124 -0.0076127788 -0.19693458 178.11111
-0.071681209 -0.0064860191 -0.20622043 177.42857
0.17437893 0.0036135761 -0.1822757 149.33333
0.2110651 0.048230197 -0.16434363 120.44444
-0.71201122 0.12653089 -0.25192365 147
-0.64758366 0.11642442 -0.24445389 153
-0.53615212 0.096843258 -0.24033052 171.75
-0.43021676 0.078815959 -0.23399496 181
-0.33106664 0.064474694 -0.21750432 183.33333
-0.24939385 0.082501903 -0.22521639 178.16667
-0.17026463 0.084951296 -0.2236924 179.2
-0.059190676 0.071085759 -0.23174268 178.5
0.1612794 0.080304213 -0.14882638 131.85715
-0.3692348 0.16358984 -0.25735438 182.60001
-0.27598825 0.13802481 -0.23822498 181.5
-0.13321914 0.1685659 -0.2265982 174.33333
-0.07234855 0.21496421 -0.21762095 166
-0.49110121 0.31947744 -0.29634109 149
-0.38783491 0.27976719 -0.25090688 137
-0.21661058 0.29434207 -0.29613513 183
-0.14373243 0.2760385 -0.27147296 178.625
-0.054269645 0.27980846 -0.29397911 183.16667
0.017195087 0.30933952 -0.30569339 184.5
-0.67190671 0.39427853 -0.34122366 148
-0.53362769 0.33692786 -0.3078315 155
-0.29164475 0.3379879 -0.31342974 178
-0.1436789 0.34843984 -0.31788421 181.2
-0.033255115 0.35955679 -0.32135072 183.8
0.051792603 0.34817865 -0.3181006 185.75
0.14854781 0.39140594 -0.3323037 186.25
0.20572463 0.39239582 -0.33278838 187
-0.32102111 0.4845041 -0.36636254 178
-0.23397665 0.41757372 -0.34606826 182
-0.004065813 0.45024428 -0.35393959 189
0.0062834634 0.4365848 -0.34775525 189
0.19357245 0.42260036 -0.34295669 189
-0.21204877 0.14268573 -0.11233185 152.28572
-0.055128951 0.1532732 -0.0950431 135.5
0.089092337 0.12891816 -0.10189591 128.42857
0.11233982 0.11276492 -0.12241539 136.84616
-0.012161666 0.19088416 -0.09471257 160
0.010489124 0.1720033 -0.1464027 158
0.050338551 0.16031624 -0.022648104 129.2
