# .PCD v0.7 - Point Cloud Data file format
VERSION 0.7
FIELDS x y z intensity
SIZE 4 4 4 4
TYPE F F F F
COUNT 1 1 1 1
WIDTH 778
HEIGHT 1
VIEWPOINT 0 0 0 1 0 0 0
POINTS 778
DATA ascii
-32.009502 -9.8305149 5.652813 9
-13.825284 -3.6766288 2.0389156 9
-13.626711 -5.007297 2.7901804 9
-13.242866 -3.4197516 1.3153347 8
-13.348565 -3.1284022 1.2467707 8
-13.519452 -3.7348874 1.84936 9
-13.462079 -5.48037 2.8883438 9
-13.27634 -4.1865196 2.5430439 10
-13.461385 -4.9171724 3.1776681 10
-13.602103 -4.6274457 3.1111238 10
-13.411243 -4.8451686 3.5869248 11
-13.528917 -4.5573473 3.5158744 11
-13.461264 -3.6468887 3.9841335 13
-13.520957 -4.0148516 4.1036425 13
-13.386922 -3.1703939 4.5389514 14
-13.565826 -2.5758345 4.4553485 14
-13.543451 -2.558471 4.6294346 15
-12.997247 -4.0347462 1.4330598 8
-13.161166 -3.7150559 1.3844367 8
-13.129903 -4.2499561 1.9628661 8
-13.170098 -5.720675 2.9212925 9
-12.850129 -4.0785365 2.0759706 9
-12.987891 -3.782949 2.0134137 9
-13.17142 -5.4998813 3.3623953 10
-12.939689 -4.6643391 4.2653356 13
-13.134995 -3.2169893 3.7960858 13
-12.97015 -2.847229 3.6599073 13
-13.049359 -4.026926 4.8010354 14
-13.128216 -3.7354589 4.6410294 14
-13.23365 -3.4454947 4.6521859 14
-12.910171 -3.7415414 5.0710535 15
-13.009215 -3.1690676 4.8972416 15
-12.897272 -2.8479815 4.7567363 15
-12.921774 -2.5646462 4.6680818 15
-12.718217 -4.6162381 1.826767 8
-12.605822 -5.173048 5.1012964 14
-12.682319 -4.8709273 5.0095353 14
-12.772888 -4.5802574 4.9269862 14
-12.658774 -4.7300811 5.3665175 15
-12.782104 -4.3084702 5.2420301 15
-12.835591 -4.0204487 5.1511774 15
-12.79159 -2.1137335 4.4853201 15
-12.212401 -2.832495 3.5806968 13
-12.364103 -5.5640173 5.6136389 14
-11.730841 -7.1648769 5.675169 13
-11.697556 -7.0649266 6.065619 14
-11.879274 -6.8209796 6.0044875 14
-11.289894 -6.2183037 4.8097019 13
-11.250978 -5.8519793 4.6658669 13
-11.336492 -5.56146 4.5772834 13
-11.394609 -4.6248136 4.2590532 13
-11.428086 -4.3300858 4.1660724 13
-11.342616 -3.5756695 3.8882716 13
-11.371248 -2.8468211 3.6779985 13
-11.486347 -2.4550214 3.5863492 14
-11.618524 -2.064667 3.5029666 14
-11.189072 -7.9867611 3.529135 9
-10.979842 -4.2745876 2.7274468 10
-11.206438 -6.5216222 4.9058347 13
-10.989637 -1.6871837 3.2555995 14
-10.753313 -2.4130619 1.0361584 8
-10.500781 -5.1626735 3.914206 12
-10.76158 -4.1303411 4.0899343 13
-10.503696 -1.6983439 3.157438 14
-10.457159 -5.1316543 4.6012535 14
-10.704583 -6.7842174 5.7141099 14
-10.114339 -6.619719 4.3708405 12
-10.074427 -6.245348 4.2264776 12
-10.19101 -5.9772873 4.148056 12
-10.337856 -5.5627818 4.0262494 12
-10.378162 -7.2508955 5.0771484 13
-10.150704 -6.562789 4.7282104 13
-10.251934 -5.622232 4.7459679 14
-10.338489 -5.36766 4.6663647 14
-9.6530142 -6.9465327 4.594265 12
-9.6472712 -6.6035247 4.4719434 12
-9.7749825 -6.3606887 4.4105201 12
-9.6871948 -6.8855543 4.7145615 13
-9.5915842 -7.2522502 4.6937103 12
-9.3977318 -1.1128893 2.9863935 15
-9.2942953 -4.5301104 4.439858 15
-8.9481277 -6.7300935 4.5835056 13
-8.903966 -6.6112771 4.8766985 13
-8.9430904 -6.5274897 5.2044015 14
-8.9393263 -4.8508201 4.4838629 15
-9.179533 -4.7242517 4.4897032 15
-8.5482388 -1.19636 2.9474189 15
-8.259285 -6.4295969 4.6755071 13
-8.3433943 -0.80064791 2.8086357 15
-8.1545782 -6.2294712 4.899559 14
-7.9961658 -5.4280105 2.0508475 8
-7.6855793 -6.2053375 4.6283813 14
-7.5612526 -5.5961576 2.2993515 9
-7.3274345 -4.9470367 2.3491509 10
-6.8571901 -2.9044983 1.0468436 8
-6.9426956 -2.3455122 1.3035729 9
-7.1799207 -6.0010118 4.5885425 14
-6.4881577 -6.6471624 2.3141847 8
-6.686173 -2.7139907 1.4557095 9
-6.779747 -2.4707766 1.3252709 9
-6.5955629 -6.0085526 3.9039071 13
-6.6521006 -5.9506855 4.1712704 14
-6.7467613 -5.8992281 4.4527545 14
-6.0077157 -2.5594707 1.0115569 8
-5.8222785 -3.1192164 0.92500401 7
-5.9751172 -3.0001471 0.89237702 7
-5.9123287 -2.7345617 0.99132586 8
-5.9378276 -2.2852614 1.4236467 10
-5.2665753 5.5755119 -1.2925709 9
-5.2196608 -5.9139328 2.7180722 10
-5.2912059 5.7837033 -0.81665605 11
-5.2652102 6.0100517 -0.19404364 13
-5.2067232 -3.5024183 1.131256 7
-5.0607605 -3.1431451 1.1461504 8
-4.7994304 4.354269 -1.0488548 9
-4.9208131 -2.8027222 1.4900715 10
-4.8847079 4.4429121 -0.38028371 12
-4.8214049 4.6392293 -0.057593092 13
-5.1720848 5.8958049 -0.62636936 12
-4.9071236 4.5672541 0.2992914 15
-4.8531165 4.7243385 0.27960029 15
-4.8124609 -5.5774264 2.1159585 8
-4.7703414 -4.2382436 1.6148744 8
-4.759398 4.3749428 -1.1629919 8.5
-4.7808318 -6.2174792 2.4509199 9
-4.5211525 -3.7722645 1.7552507 10
-4.7837691 -3.4395761 1.7260985 10
-4.6978126 -3.1211097 1.5298336 10
-4.5653996 3.5943208 -0.41682523 11
-4.4981952 3.7941461 -0.46299404 11
-4.5949917 4.0546255 -0.51735348 11
-4.62009 4.558269 -0.76678735 10
-4.5070858 3.5019696 -0.22270355 12
-4.5908265 3.8422868 -0.25656384 11.666667
-4.7482133 4.2471113 -0.43635404 11.5
-4.7493896 4.5689435 -0.59182268 11
-4.4214792 3.4516695 0.36791897 15
-4.5256076 3.6930714 0.35181242 15
-4.559464 4.0559607 0.1078283 13.8
-4.6180792 4.4393458 -0.013439411 13.5
-4.69135 4.7782907 -0.047512356 13.4
-4.7669358 4.2489967 0.31838337 15
-4.5649099 4.8571653 0.24237005 15
-4.1073704 2.6099906 -0.654172 8.5
-4.09161 2.93489 -0.76849586 8.333333
-4.011147 3.3275521 -0.89626437 8
-4.144752 3.6586635 -0.96208882 8.333333
-4.0569415 4.6215043 -1.2391889 8
-4.0040488 4.6903839 -1.2357161 8
-4.0521827 -5.5488639 2.5189419 10
-4.0305386 2.4113355 -0.038286626 12
-4.0851159 2.6683292 -0.23478553 11
-4.1200261 2.9797478 -0.39219147 10.333333
-4.2153096 3.5001497 -0.48561326 10.333333
-4.3491335 4.6913137 -0.79505599 10
-4.012115 4.6992626 -1.1213915 9
-4.0534539 2.9475882 0.1577334 13.5
-4.1330585 3.1693587 0.14158198 13.5
-4.3233581 3.641552 0.0071864692 13
-4.0463638 4.8490248 -0.46314269 12
-4.0172553 2.5581794 0.56291676 15
-4.1631732 2.9045849 0.54715312 15
-4.2605658 3.2991917 0.28842008 14.5
-4.3433461 3.7105293 0.10569822 14
-4.3818388 3.8257992 0.090675399 13.5
-4.0955067 4.9501553 -0.13532466 13.5
-4.2968731 -5.1450696 3.6261837 14
-4.0673451 -5.1000862 3.5646482 14
-4.2051759 5.0090013 0.20010132 15
-3.7699416 -3.1487908 1.2266711 8.5
-3.8649781 -2.6621828 0.84592783 7
-3.9629259 -2.5319359 0.82388055 7
-3.7117815 1.8040209 -0.20706837 10
-3.9883506 2.9360311 -0.66395825 9
-3.9209347 3.180994 -0.79270399 8.5
-3.7812877 4.6565232 -1.2046512 9
-3.6621974 -3.2547159 1.7009403 11
-3.8814757 -2.5705726 1.4300325 11
-3.6647201 1.5992711 0.1905071 12
-3.7747068 1.8964905 -0.061729018 11
-3.8794904 2.2390735 -0.13522372 10.857142
-3.9912395 2.543967 -0.19496943 11
-3.9489205 2.9095933 -0.27395627 11
-3.8532431 3.284256 -0.50086266 10
-3.8913581 4.6803937 -1.0921538 9
-3.7847605 4.8437934 -0.79731804 11
-3.6504586 1.7075039 0.60922319 15
-3.7311838 2.0030441 0.26848677 13.285714
-3.831161 2.3783419 0.25067276 13.571428
-3.9659057 2.7158155 0.16761877 13.25
-3.7738199 4.8546681 -0.46726027 12
-3.8009496 4.8892317 -0.72833925 11
-3.9098222 -5.2055469 3.0884516 12.5
-3.8116887 2.0818417 0.58774191 15
-3.946147 2.3997488 0.57080925 15
-3.8213766 4.952034 -0.14837545 13.5
-3.8067095 5.0728464 -0.20827635 13.5
-3.8895917 -5.0844011 3.4278228 14
-3.9434931 5.0321965 0.17873459 15
-3.6533256 5.1203799 0.15117736 15
-3.3791337 -3.230907 1.1510128 8
-3.2376769 -1.627883 0.68997329 8.5
-3.5455174 1.5000007 -0.22486143 9.5
-3.3015118 1.669319 -0.31545606 9
-3.2504354 4.9104218 -1.2171729 9
-3.3853965 -3.4778924 1.6157143 10
-3.4416223 -3.1764452 1.5218554 10
-3.250011 -1.4213439 1.0257596 11.5
-3.3138328 -1.2645218 1.0411651 12
-3.5632637 1.5716168 0.12687305 12
-3.3795893 4.9723735 -0.8025732 11
-3.2682924 -1.4021345 1.4554051 14.5
-3.4405456 -1.1390923 1.3732262 14.5
-3.4910016 1.3538052 0.63076931 15
-3.5574815 1.6356313 0.43149334 14
-3.4155662 4.990696 -0.63601488 11.666667
-3.385293 5.1658268 -0.21761097 13.833333
-3.4391112 -4.7376742 3.2814844 14
-3.3767152 5.2280202 0.073212691 15
-3.0775816 -3.1550646 1.3721079 9
-2.9412036 -2.6924651 1.2032714 9.5
-2.9485056 -2.2927401 0.80807924 8
-3.003211 -2.0207639 0.82006603 8.7142859
-3.1388235 -1.6298463 0.75168109 9
-3.1275265 1.7367855 -0.3591516 8.5
-2.8732834 3.7517328 -0.9821074 8.333333
-3.0751312 -1.7723018 1.1365567 11
-3.1140146 -1.5228685 1.0572586 11.571428
-2.8530488 2.8904521 -0.46921298 10
-2.8497269 3.8867462 -0.84219986 9
-2.9747982 -1.7564386 1.5321931 14.5
-3.1450596 -1.5847359 1.4846362 14
-3.0435774 5.1342878 -0.69752204 11.6
-3.1463082 -4.5034266 2.9506791 14
-3.0050564 5.2894077 -0.30166918 13.5
-2.8591549 5.4029565 -0.22294356 14
-3.0487051 5.3565879 0.057978474 15
-2.6146367 -4.4895401 1.4709809 7
-2.5402746 -1.1236249 0.66030383 10.333333
-2.590342 -0.90894496 0.56898522 10
-2.4607177 2.7134998 -0.69814223 8
-2.6913261 2.8218427 -0.75489384 8
-2.72192 3.8249295 -1.0296942 8
-2.7064312 3.9476123 -0.93512481 9
-2.4892316 5.1606054 -1.3744925 8
-2.7641265 -2.5505915 1.3949678 11
-2.5134156 -1.5271001 1.0317906 12
-2.5575204 -0.94327486 0.70096749 11
-2.6434951 3.0078557 -0.49605477 10.428572
-2.7302001 3.2154145 -0.60017794 10
-2.7616823 3.9604802 -0.85563111 10
-2.5381737 5.2117195 -1.2789105 9
-2.5185399 -3.1219213 1.9437643 13
-2.4201758 -2.0025218 1.6599057 15
-2.7569287 5.2240353 -0.67628545 11.666667
-2.5495307 5.374105 -0.67537814 12
-2.6288238 5.4416552 -0.29853466 13.666667
-2.8026128 5.4059501 -0.065108098 15
-2.5980637 5.5671315 -0.035021774 15
-2.094933 -1.7282017 0.95190948 11
-2.3440685 -1.1948329 0.57543337 9.5
-2.0205276 3.1743951 -0.77295357 9
-2.0742307 4.0376873 -0.96490765 9
-2.2062802 5.2977481 -1.3845966 9
-2.289691 -4.8053756 2.166671 10
-2.367101 -4.6776471 2.1228962 10
-2.0484633 -2.1194043 1.4904618 14
-2.0992603 -1.7769233 1.0835235 12
-2.2038271 -1.6531752 1.1112233 12.666667
-2.3106205 3.1269705 -0.56891674 10
-2.0754035 3.2228684 -0.61206698 10
-2.008471 4.0458932 -0.88540542 10
-2.0571988 -4.6897421 2.5335612 12
-2.3489811 -4.597188 2.6055901 13
-2.1065333 -2.0718899 1.491926 14
-2.189065 -2.0254903 1.4892999 14
-2.2007205 5.5214043 -0.72054535 12
-2.3195324 -4.5880556 2.8266621 13.5
-2.380233 -4.4406667 2.8301711 13.5
-2.2428102 5.6306572 -0.32731637 13.666667
-2.1801169 5.7415061 -0.10274523 15
-1.7217652 -4.8469486 1.7132313 8
-1.7513474 -2.8540478 1.0971363 8.5714283
-1.7260692 -2.0892737 0.86804301 9
-1.9729067 -1.7945192 0.74112463 8.666667
-1.8219159 3.2583151 -0.72216326 9.5
-1.787719 -4.6903687 2.1363342 10.2
-1.7721112 -2.652277 1.4722409 11.714286
-1.7319646 -2.0601106 1.1328644 11.75
-1.728312 3.3229074 -0.63255191 10
-1.9659367 -4.8209591 2.5216105 12
-1.8122376 -4.4960046 2.6776698 13
-1.7807925 -2.5983429 1.874579 14.666667
-1.9615717 5.6038876 -0.79368621 11.5
-1.7598742 5.7184772 -0.78481507 12
-1.9772565 5.7269411 -0.38270396 13.5
-1.7478614 5.8410625 -0.357115 13.666667
-1.8264017 5.9154453 -0.11853471 15
-1.4121087 -4.7715912 1.7186141 8.1111107
-1.5372632 -2.8162992 1.2313308 10
-1.5088987 -2.2304919 1.0663289 10.5
-1.2342085 -0.96184808 0.56733805 11
-1.2053078 3.5149431 -0.72621095 10
-1.4900299 -4.5791183 2.1253686 10.5
-1.5981958 -2.743788 1.6480975 13
-1.2441298 -0.86680371 0.76377928 15
-1.4037222 3.4689362 -0.6766609 10
-1.3884659 5.7103014 -1.2486271 10
-1.4653771 -4.5358677 2.4826512 12.5
-1.4334167 5.8397021 -0.82174855 12
-1.4147522 5.9962869 -0.35387748 14.2
-1.3789574 6.0702138 -0.26469177 15
-1.1253952 -4.717453 1.7774271 8.5
-0.8592422 -1.8968066 0.84330589 10
-1.0088441 -1.6591741 0.83066773 11
-1.1198969 -1.2313725 0.67533416 11.333333
-1.1007916 3.5491757 -0.78583008 10
-0.92563891 -1.6647209 1.0260578 13
-1.0977147 -1.2090373 0.86956382 14.5
-1.1497395 3.5337505 -0.68145049 10
-1.065761 3.5640588 -0.68244535 10
-0.98094499 5.8559132 -1.2667465 10
-0.93494916 5.9115739 -1.2728349 10
-1.115468 -4.5408535 2.3323541 12
-0.82815826 -4.1215544 2.5737929 14
-1.0603104 5.9488282 -0.89594775 11.75
-0.86964124 6.0112338 -0.93906683 11.5
-0.84393966 -4.0956101 2.6552045 15
-1.0273584 6.1087918 -0.45896614 13.666667
-0.90956503 6.1531539 -0.63993305 13
-1.0297916 6.1720734 -0.25732857 15
-0.89166474 6.2875156 -0.26647112 15
-0.4911007 0.31947681 -0.29634213 0
-0.48985171 0.45834246 -0.36262304 0
-0.43677139 0.8868522 -0.5132876 1.5
-0.47089845 1.2403492 -0.62909865 2.5
-0.51813602 1.5209935 -0.72705925 3
-0.4417699 2.00928 -0.89834517 4
-0.75425684 -1.9108795 0.90723014 11
-0.47248366 -2.8014746 1.4208546 11.5
-0.78375077 -1.6716715 1.1209253 14.5
-0.43679416 5.4055853 -1.1172781 10
-0.59046412 5.6107368 -1.1787882 10
-0.62857878 -4.2148008 2.3609717 13
-0.60029042 5.7830343 -0.83966464 11.75
-0.73205119 6.0607681 -0.93614399 11.666667
-0.52231973 5.7224236 -0.34142357 14.333333
-0.59502894 5.9824667 -0.40497774 14
-0.65697718 6.2484865 -0.3621259 14
-0.72248536 6.2784123 -0.28399181 15
-0.01984022 -1.7716553 0.40249622 5
-0.38783488 0.2797668 -0.25090775 0
-0.23624969 0.57529652 -0.40731975 0
-0.17547408 0.87343132 -0.51368916 1
-0.21098596 1.257033 -0.63441515 2.6666667
-0.14577487 1.6789969 -0.78248775 3.4000001
-0.12726396 2.0346892 -0.90819067 4
-0.22293858 2.4274764 -1.0486889 4
-0.028160293 4.0739403 -1.5848975 5
-0.17350794 5.702733 -2.203474 5
-0.033928502 -3.9914718 1.3580289 7.3333335
-0.18184379 -3.2578182 1.354509 9
-0.066490613 -3.8185723 1.7100627 10
-0.23649786 -3.128022 1.6258004 12
-0.34352469 -2.6525266 1.5159996 13
-0.22195292 5.4825163 -1.1084843 10
-0.049281135 5.5442166 -1.1338118 10
-0.07418558 -3.6927164 2.2843158 14
-0.38268185 -3.1513436 1.9727018 14
-0.33266053 -2.950484 2.0002725 15
-0.27382132 5.5804935 -0.78118533 11.8
-0.10884784 5.6833868 -0.72873861 12.25
-0.24527533 5.716352 -0.37512368 14.142858
-0.017897187 5.9406695 -0.30315956 15
-0.27476871 5.8569498 -0.19975711 15
0.096459828 -3.2169313 0.86482608 6
0.1273807 -2.8644447 0.75303358 5
0.16136383 -2.4856057 0.63072228 5
0.1960956 -2.0870519 0.50500304 5
0.22696465 -1.7436215 0.39396572 4.6666665
0.26451638 -1.3707935 0.26176739 3.6666667
0.30089754 -1.0268959 0.13478062 2
0.30026427 -0.67571682 0.028421571 0.33333334
0.17825554 0.62584066 -0.42882276 0
0.20573941 0.89472216 -0.52274001 1
0.16631916 1.2297355 -0.62789476 2.5
0.16545729 1.610288 -0.75287724 3.5
0.18298781 2.0149949 -0.89820409 4
0.1451066 2.4203548 -1.0462489 4
0.10809106 2.8063178 -1.1839073 5
0.077107117 3.1237328 -1.2952245 5
0.015094928 3.8497806 -1.5806421 5
0.17990257 -3.9815624 1.456172 8.25
0.061516032 -3.6128321 1.4682658 9
0.2270156 -3.8186989 1.8642062 11.125
0.17596702 5.6899891 -1.1052177 10.333333
0.20265327 -3.6970041 2.263876 13.8
0.38379234 -3.0418856 2.0198879 15
0.13757876 5.7050805 -0.8531329 11.5
0.31344154 6.3397484 -0.87429583 12
0.10940447 5.9157805 -0.39716619 14
0.32636136 6.2343698 -0.5278424 13.5
0.27530658 6.0534439 -0.20226528 15
0.67044324 5.2297511 -2.145653 5
0.4845508 -4.0573211 1.2359993 6.5
0.56127232 -3.4887607 0.95582974 6
0.52926695 -2.9040468 0.77042675 5.5
0.50860083 -2.5068254 0.6409328 5
0.63589472 -2.1430881 0.52572066 5
0.6175186 -1.7600178 0.39970809 4.5999999
0.54608804 -1.3733977 0.26404539 3.6666667
0.56224543 -0.99607778 0.12656876 2.1666667
0.6022144 -0.60739744 0.0079140179 1
0.68014598 -0.29477492 -0.096030138 0.44444445
0.46979809 0.52272505 -0.39608711 0
0.49635509 0.84507412 -0.50979531 1
0.53976083 1.2492861 -0.63577676 2.6666667
0.58349317 1.6167176 -0.75790608 3.5
0.63112622 2.0219324 -0.9007172 4
0.49925238 2.4104428 -1.0347164 4
0.5082652 2.6268773 -1.1075042 5
0.53286517 3.0532131 -1.2716049 5
0.54948807 3.4194744 -1.3989215 5
0.57466233 -3.9465041 1.4464037 8.1111107
0.58031154 -3.803817 1.8690903 11.111111
0.4329617 5.7596173 -1.0216992 11
0.61107606 6.0083714 -1.3884802 9
0.67641437 6.4642272 -1.3721508 9.75
0.56994128 -3.6638029 2.2670424 14
0.45932198 -3.1611626 1.9774679 14
0.48707876 -3.0491917 2.0263519 14.666667
0.46843889 5.9109759 -0.82095307 12
0.68229777 6.5561171 -1.0458444 11.5
0.57349783 6.1372085 -0.36716479 14
0.61217362 6.2153616 -0.55800521 13.25
0.58587098 6.0969772 -0.21309856 15
0.48938179 7.0307598 -0.24746221 15
1.1170164 -3.8871825 1.1607567 6
1.0922244 -3.6712623 1.0224755 6
1.005833 -3.2322645 0.87941164 6
0.85409945 -2.4657352 0.63301945 5
1.0668862 -2.0331819 0.48849481 5
1.0256087 -1.7291965 0.38775203 5
0.9733277 -1.3916655 0.27292943 4
1.0208906 -1.0147135 0.14423041 3.4285715
0.99034524 -0.61951208 0.013917283 2.5
0.96799409 -0.24668269 -0.10658741 1.5714285
0.85525852 2.4324119 -1.0478643 4
0.92654753 2.8127799 -1.1805509 5
0.99132812 3.1555874 -1.3015577 5
0.94886404 -3.8237493 1.44017 8.5
1.1659337 -3.7336941 1.4158887 8.5
1.2071834 5.5855484 -1.5057387 8
0.97362942 -3.6750925 1.8107617 11
1.1251019 -3.6226237 1.7358786 10.5
1.0467137 6.1482892 -1.4183888 9.333333
1.0654743 6.5175633 -1.4013691 9.666667
0.95853531 -3.5367949 2.2311513 14
1.1308652 -3.4326239 2.2797704 14.5
1.0671234 6.3713155 -0.84017396 12
1.004559 6.6508698 -1.0517057 11.6
0.92847896 6.3508019 -0.49781889 13.5
1.0634073 6.5021787 -0.72445023 13
1.0663397 6.2776623 -0.31073612 14
0.99275666 6.7197227 -0.24772401 15
1.0019882 7.1533604 -0.21744095 15
1.5508783 -3.4244599 0.93484885 6
1.4161977 -3.0359163 0.80796111 6
1.354319 -2.4934251 0.63679039 5
1.4109986 -2.0699372 0.50042039 5
1.3791811 -1.711123 0.38275233 5
1.3809851 -1.3393186 0.26133332 4.4000001
1.4465129 -0.97459632 0.1457779 4
1.3792167 -0.62831205 0.026713613 3.5
1.3637224 -0.24778461 -0.11147489 2.75
1.4153734 5.4601007 -2.0842822 5
1.3839339 -3.6643848 1.3662133 8.2857141
1.2459548 5.5477405 -1.6158046 8
1.377399 -3.5111046 1.7835397 11.222222
1.3257145 6.218369 -1.4798979 9
1.5069491 6.3151088 -1.5162514 9
1.3808023 6.7574582 -1.4466624 9.5
1.3980681 -3.3589625 2.1907921 14.142858
1.3115518 6.4429927 -0.84001535 12
1.3622537 6.6358261 -0.99346656 11.5
1.4473997 6.8307695 -1.1951284 10.75
1.3980938 6.5368037 -0.5127241 13.666667
1.4633809 6.6224976 -0.68028319 13
1.4717 6.4278889 -0.31202802 14
1.2035599 7.0352397 -0.26398635 15
1.4688914 7.1322918 -0.25631568 15
1.5016025 7.1006813 -0.1668773 15
1.6414176 -3.7481146 1.1403513 6.5
1.707846 -2.6497707 0.6863637 6
1.8073916 -2.1085293 0.51462489 5
1.793108 -1.8150334 0.41942164 5
1.766735 -1.3366748 0.26300147 5
1.6334366 -0.86470014 0.12213836 5
1.7989677 -0.63899094 0.045042288 4.25
1.8411698 -0.24944191 -0.088708714 4
1.7779371 -3.4978499 1.3071085 8.1428576
1.9950556 -0.96902478 0.44646516 8
1.7772328 -3.36673 1.6934962 10.875
1.756165 6.9032583 -1.4748836 9.5
1.7818782 -3.2186856 2.1176825 14
1.7753189 6.6658645 -0.92101616 12
1.7629201 6.9453278 -1.2639626 10.5
1.7549618 6.5633283 -0.46389222 14
1.8004788 6.7552509 -0.71632439 12.8
1.645635 6.4979177 -0.31272626 14
1.8461308 7.2899599 -0.24556243 15
1.9176749 6.6630402 -0.011057657 15
2.1714969 -3.5941901 1.1062912 6.5
2.0971904 -3.4106195 0.93137658 6
2.2595417 -2.7595696 0.72624129 6
2.0462778 -2.4525197 0.62658662 6
2.2259607 -2.0755422 0.50419664 5
2.1037471 -1.5099409 0.32005307 5
2.0435874 -1.1260083 0.26787433 5.5
2.1811965 -0.67042923 0.054372028 5
2.073391 -3.4659421 1.3594435 8.5
2.2265503 -3.3040438 1.3016752 8.5
2.2054551 -0.87169695 0.54933023 9.8666668
2.3636544 -0.4570227 0.40028903 9.5
2.3242741 -0.26369408 0.34908983 10
2.0373209 -3.2457547 1.7245641 11
2.219167 -3.1783981 1.6767257 11
2.2754676 -0.733971 0.81792766 13.142858
2.3599412 -0.37206146 0.72804379 13.428572
2.3417189 -0.14426769 0.6907115 14
2.2854202 6.5062265 -1.4786372 9
2.3946922 6.7605209 -1.3220614 10
2.0416121 -3.0705063 2.2672212 15
2.188056 -3.0848122 1.929265 13
2.2154608 6.9894681 -1.2536238 10.5
2.0805273 -3.0548184 2.27474 15
2.1915684 -3.0085375 2.2651393 15
2.1923933 6.7871227 -0.66220284 12.833333
2.1463284 7.3859243 -0.38555577 14
2.3564095 6.4894695 0.04092655 15
2.2148995 7.3490109 -0.22599812 15
2.7050681 -3.4122193 1.0044311 6
2.6367865 -2.5251629 0.64181775 6
2.5355589 -1.875128 0.43112892 5
2.5266247 -1.0836298 0.24029583 5.5
2.4919245 -0.62738973 0.10812403 5.5
2.6097412 -3.171982 1.2700555 8.625
2.4917834 -0.81540805 0.47279876 9
2.4440265 -0.56555438 0.4173052 9.333333
2.6325176 -0.1421255 0.31503856 9.5
2.4021969 2.5338881 -0.53594124 9
2.6130145 5.2210464 -1.2763288 9
2.5780258 -3.0374491 1.651134 11.142858
2.622097 -0.96933049 1.0946681 14
2.4573767 -0.70737416 0.89905727 13.714286
2.4357963 -0.45756763 0.78412443 13.6
2.577945 -0.034665763 0.66119164 13.6
2.5940342 5.1554141 -1.1352158 9
2.5844879 6.5449305 -1.4216731 9.5
2.5713174 -2.9083138 1.9136503 13.4
2.5604506 6.6735201 -1.0814862 10.75
2.5959976 -2.8455303 2.2728763 15
2.7375422 6.4769258 -0.72818542 12
2.5820205 6.788435 -0.73745888 12.5
2.4243126 6.8680625 -0.86079526 12
2.7901039 6.3117442 0.097740911 15
2.6188293 6.8334231 -0.47843593 13
2.5766385 7.5615625 -0.38439777 14
2.5699542 7.2011037 -0.18511698 15
3.0562601 -2.9841218 0.78016931 6
3.1630292 -2.4056752 0.59939736 6
3.0948501 -0.29483336 -0.017525278 5.5
2.8566396 -3.0509198 1.2233973 8.5
3.0173783 -2.9165246 1.1876959 8.4285717
2.9917784 -0.044628777 0.24679549 8.75
3.0423195 0.13884977 0.39585698 11
2.8619657 -2.9028485 1.6167941 11
3.026006 -2.7823327 1.5948279 11.2
2.9692063 0.060255576 0.6196537 12.5
3.0225401 0.24448383 0.6838662 13.5
3.1788232 5.34478 -1.2139387 9
3.0891318 5.6711116 -1.1612864 9.666667
2.9450703 6.1034694 -1.1719296 10
2.8330741 6.501277 -1.3838861 9.5
2.8285732 -2.7856286 1.9155052 13.5
3.0642412 -2.6432629 1.8707427 13.285714
3.0552046 0.18117319 0.86041397 14.666667
3.0376565 0.32780671 0.87771863 15
3.1806047 5.6065235 -0.73489201 11
3.0905437 5.8624721 -0.75999475 11.4
2.9808254 6.1684189 -0.77417624 11.5
2.8531523 6.5628476 -1.0207683 11
2.8632278 -2.7430274 2.2727532 15
3.0239675 -2.5586734 2.225029 15
3.0795612 5.6393576 -0.51811063 12
3.0729098 5.9951134 -0.46399912 12.75
2.9177158 6.2966852 -0.65189099 12.333333
2.9013991 6.7086539 -0.63191766 12.666667
3.1201785 6.3182616 0.090433106 15
2.9980831 6.9354167 -0.30003178 14
3.1729133 7.3459053 -0.33093172 14
2.9979527 7.6435714 -0.3723428 14
2.9394798 7.0965691 -0.14637801 15
3.2741747 -3.2271054 0.92856789 6
3.207145 -3.1653481 1.1008438 7
3.3964334 -2.7759757 1.1150662 8
3.2067018 0.10220584 0.35968199 10
3.4314275 0.16781166 0.22000976 9
3.5301936 4.952702 -1.2045442 8.5
3.4086399 5.3024721 -1.3502578 8
3.5550134 5.4933782 -1.4133059 8
3.3848901 -2.5962789 1.4636303 10.833333
3.4270906 0.26963884 0.55991518 12
3.5510025 4.9495087 -1.0208941 9.5
3.2840574 5.319272 -1.0146061 10
3.5743155 -2.7292912 2.091836 14
3.3964558 -2.4565346 1.8474331 13.2
3.4455879 0.39597818 0.87874281 14.5
3.5367672 5.163938 -0.48021927 11.666667
3.2462101 5.489944 -0.60544777 11.666667
3.5915995 5.6972804 -0.74347067 11
3.3342206 -2.3937016 2.2195613 15
3.5285196 -2.2135 2.1796632 15
3.5738571 5.3759637 -0.082554199 14
3.3478057 5.5826578 -0.33063269 13
3.4795353 5.8549151 -0.53973109 12
3.3738062 6.0324931 0.058476076 14.666667
3.4780834 6.4629626 -0.095790558 14.666667
3.3869808 6.7983432 -0.1981989 14.333333
3.2658899 7.1165562 -0.29994607 14
3.2552803 6.9713807 -0.10797085 15
3.8624456 -2.8209655 0.87686771 6.5
3.9517882 -2.6899083 0.80295318 6
3.7833631 -2.6967421 1.1136903 8
3.7750201 0.30518898 0.22729106 9.1999998
3.8296623 4.1858048 -0.9978472 8.5
3.8674421 4.5716944 -1.1291796 8.333333
3.7688489 4.7747698 -1.2345849 8
3.629832 5.3239594 -1.372695 8
3.7077904 -2.5610399 1.4788452 10.8
3.9193361 -2.4560609 1.391732 10.5
3.7349393 0.42940331 0.5672304 12
3.9694266 0.58720291 0.4421559 11
3.8990858 4.2157273 -0.61388075 10
3.90605 4.7160001 -0.88765442 9.5
3.7673287 4.8698378 -0.96972191 9.3999996
3.638463 5.3179708 -0.97098225 10.333333
3.5860655 -2.7401426 2.044755 13
3.7850146 -2.4594605 1.821522 12.8
3.8330352 -2.274086 1.970174 14
3.7683585 0.52070761 0.87633961 14
3.8917551 4.3716331 -0.38055122 11.5
3.8092659 4.7800555 -0.42117414 11.6
3.7802029 5.042201 -0.484332 11.5
3.6664681 5.5318198 -0.708718 11
3.585547 -2.4294083 2.311604 15
3.7869947 -2.1862783 2.2343905 15
3.9129975 4.4892745 0.048209377 14
3.8217466 4.9106197 -0.012600634 14
3.7478318 5.2447662 -0.14414686 13.5
3.7238181 5.630126 -0.37934682 12.5
3.6684887 5.8162475 -0.31248805 13
3.7702274 4.9138398 0.15129969 15
3.8218749 5.280458 0.18102787 15
3.7567401 5.7385011 0.12134441 15
3.6531391 6.1569247 0.0085255681 15
3.9999027 -2.673775 0.89705247 7
4.2028193 -2.6248267 0.79273641 7
4.0278244 -2.5876732 1.1658636 8.5
4.1714468 -2.5262136 1.0645933 8
4.1065373 0.42633918 0.17969081 9
4.1992707 0.46268448 0.078299053 8
4.3335032 3.7797713 -0.8564797 8.333333
4.1274223 4.1109633 -0.90721679 9
4.2006092 -2.3311512 1.4293904 10.833333
4.0733476 0.50431418 0.5335294 11.333333
4.3424883 0.63513035 0.59378225 11.5
4.3613367 3.8228364 -0.59997058 9.75
4.2128987 4.165277 -0.66546142 9.8000002
4.0329423 4.5376916 -0.71818799 10
4.0216422 -2.4111912 1.7596216 12.5
4.1901808 -2.261842 1.8192428 12.833333
4.0969019 0.61562705 0.89316899 14
4.2997432 0.78481042 0.96285856 14.333333
4.3610849 4.0262833 -0.2094869 12
4.2224331 4.2832689 -0.322593 11.6
4.0379004 4.7854495 -0.33775482 12
4.2781854 -2.0548694 1.9834138 14
4.0594478 0.86977643 1.055516 15
4.378706 4.2062364 0.29699048 14
4.2524285 4.4463263 0.080522202 13.5
4.0316596 4.9023361 -0.082351804 13.5
4.3086314 4.2795172 0.51235175 15
4.2649255 4.5609493 0.47303003 15
4.0415869 4.8880582 0.38752398 15
4.5824914 -2.4120495 0.80405658 7
4.5458865 -2.3856096 1.0827805 8.5
4.4815664 0.57211494 0.038790509 8.25
4.7933946 2.6502824 -0.61453873 8
4.6777678 2.9450617 -0.67344785 8
4.526937 3.3030772 -0.75411814 8.333333
4.5354261 -2.2944667 1.3380305 10
4.6499128 0.78714728 0.42238775 10.5
4.7904959 2.779505 -0.31641835 10
4.6641393 3.0821812 -0.38020462 9.8000002
4.5368142 3.4310493 -0.41956031 10.111111
4.4279633 3.6949928 -0.49847069 10
4.4099684 -2.1357427 1.5842129 12
4.6451583 0.82359958 0.80651194 13
4.7255621 3.1114411 0.047171999 11.6
4.5428281 3.5687494 -0.057254631 12
4.4174585 3.9057856 -0.12665141 12.333333
4.765008 0.93466902 1.0985242 15
4.702435 1.2021151 1.1276832 15
4.7365751 3.2507858 0.447514 13.833333
4.5784268 3.6341305 0.30323538 13.5
4.4483728 3.9786391 0.21673056 13.666667
4.7251444 3.3360913 0.68223923 15
4.5914998 3.7243068 0.5956912 15
4.4281039 4.1527462 0.53138369 15
5.1595926 1.7168896 -0.58338821 7
5.012886 2.067601 -0.64973277 7
4.8821702 2.3687241 -0.71787745 7
4.9422464 0.72928512 -0.011322683 8
5.1482391 1.8317119 -0.29304504 8.25
5.0196424 2.1393533 -0.40462536 8.1999998
4.8537197 2.5095916 -0.56905454 8
4.9899473 0.88334548 0.46276036 10.5
5.1945777 0.92159289 0.17413004 9
5.1501713 1.9777713 0.06738428 10.2
5.0040216 2.3190629 -0.055376831 10.111111
4.8739309 2.6067748 -0.21566828 10
4.9658289 0.9488492 0.73811984 12.5
5.1698318 2.0770845 0.38445672 12
5.0276833 2.403748 0.31491321 12.166667
4.8627391 2.8024082 0.19625548 12
5.1770935 1.1679883 1.279336 15
5.1642528 2.2046051 0.78346604 13.75
5.0637436 2.4691963 0.70304918 14
4.8779435 2.9291086 0.60996491 14.333333
4.8033738 3.1340778 0.57410836 14.5
5.0335917 2.6290884 0.91996044 15
4.8911281 2.9875026 0.83552897 15
5.3014193 1.3851799 -0.51448435 6
5.23948 1.5023241 -0.53569376 7
5.4227972 0.99349976 -0.096997581 8
5.335001 1.3789134 -0.17731042 8
5.2241321 1.678298 -0.19470233 8.333333
5.4479866 1.1988753 0.29207295 10
5.3401537 1.4873732 0.16078632 10
5.2313771 1.7807004 0.091174066 10
5.4640045 1.2668141 0.68772256 12.142858
5.350347 1.6190199 0.61555058 12.125
5.2403798 1.8714263 0.45886022 12
5.3074517 1.1306933 1.0290629 14
5.4611382 1.4216505 1.0715059 14.2
5.3623528 1.7574358 0.92495358 14
5.2456861 2.0527401 0.83674383 14
5.488028 1.4870987 1.3030499 15
5.4443798 1.7492603 1.1785854 15
5.1962919 2.3026896 1.0111221 15
5.6476321 -2.6949525 2.9941247 15
6.7777233 -3.1066966 1.090582 7
6.727499 -3.2157235 1.6693813 9
6.6082387 -2.6705744 2.4968374 13
6.8542666 -3.0997529 1.2478427 8
7.4173727 -4.3232741 1.2800229 6
7.5567555 -4.1576395 1.2732358 6.5
7.4650593 -4.2391915 1.628861 7.6666665
7.5788317 -3.8409221 1.388901 7
7.421505 -4.1190343 1.9988875 9
7.5413489 -3.7218502 1.8595252 8.5
7.1847219 -4.3381553 2.8965747 11
7.4151173 -3.9713955 2.6725798 11
7.6194091 -4.2134972 1.2637527 7
7.6197472 -3.8261714 1.1256771 6.5
7.690496 -3.646415 1.5102103 8
7.6844378 -3.2627311 2.1193995 10
