# .PCD v0.7 - Point Cloud Data file format
VERSION 0.7
FIELDS x y z intensity
SIZE 4 4 4 4
TYPE F F F F
COUNT 1 1 1 1
WIDTH 9
HEIGHT 1
VIEWPOINT 0 0 0 1 0 0 0
POINTS 9
DATA ascii
-0.023627738 -1.0599866 0.11013994 3
0.47286823 0.59934729 -0.42013055 0
0.43346196 0.74635714 -0.44413814 0
0.69499528 0.48296738 -0.37881631 0.5
0.6755774 0.62864125 -0.4230212 0.5
0.85769129 0.65141797 -0.43308344 2
1.0115538 -0.10973503 -0.1807047 3
1.1334893 0.34360939 -0.33695585 3
1.3631682 -0.032631252 -0.22434634 4
