# .PCD v0.7 - Point Cloud Data file format
VERSION 0.7
FIELDS x y z intensity
SIZE 4 4 4 4
TYPE F F F F
COUNT 1 1 1 1
WIDTH 67
HEIGHT 1
VIEWPOINT 0 0 0 1 0 0 0
POINTS 67
DATA ascii
-0.82535356 0.62437707 -0.243044 0
-0.64808494 0.37857357 -0.2306338 0
-0.55322981 0.63464361 -0.21930087 0.25
-0.41696164 1.0445063 -0.19523986 2
-0.48628244 1.2851171 -0.19382794 3
-0.43270239 1.6112667 -0.18305378 4
-0.18884139 0.68974584 -0.19588052 0.16666667
-0.19346529 0.99446434 -0.18508475 1.7777778
-0.18741575 1.3683529 -0.16971621 3.5999999
-0.17810704 1.7679574 -0.15929441 4.5
-0.17349984 2.1600511 -0.15353984 5
-0.16954383 2.5905864 -0.14834298 5
0.17644843 0.65418798 -0.16717292 0.33333334
0.1325231 0.92305654 -0.16237514 2
0.082162611 1.3839825 -0.15127352 4
0.015587236 1.6948626 -0.14391832 5
0.74747849 -1.4123842 -0.19779575 4
0.71534735 -0.9062503 -0.19043717 2.5
0.62162477 -0.59925961 -0.18413584 1.125
0.64655936 -0.22191881 -0.16408977 0.77777779
0.6901226 0.058779277 -0.15886632 1
1.1975816 -2.0158765 -0.20755874 5
1.0832672 -1.736367 -0.20174447 4
1.0413432 -1.3754251 -0.18294941 4
0.99176037 -1.0036514 -0.17322077 3.5999999
1.0092723 -0.59440404 -0.16868834 3
0.99346155 -0.22425312 -0.15012106 3
0.98860663 0.13922648 -0.13619421 3.2
1.3666607 -2.4278986 -0.21831192 5
1.2704984 -2.1942744 -0.21109164 5
1.3974657 -1.8062562 -0.19104348 5
1.4646683 -1.3416778 -0.16859436 4.6666665
1.3576245 -1.008643 -0.15782493 4.5
1.395264 -0.60071915 -0.14535904 4.5
1.3612622 -0.18861105 -0.13327909 4.5
1.3958514 0.18342172 -0.12301423 4.8000002
1.80699 -2.5258613 -0.20597145 5
1.9913397 -2.1712828 -0.1772539 5
1.7506524 -1.6927 -0.17114024 5
1.6931756 -1.3714179 -0.16242647 5
1.8059129 -1.019771 -0.14307515 5
1.8195816 -0.56862152 -0.12254275 5
1.8507663 -0.18928152 -0.10607132 5.5
1.7576486 0.24226415 -0.099297643 5.6666665
2.1760988 -2.4189982 -0.17864135 5
2.2847161 -1.7592151 -0.14880519 6
2.2056904 -1.2964252 -0.13583316 5.5
2.1800497 -0.98311406 -0.12369841 6
2.2021515 -0.58948112 -0.11002209 6
2.0060678 -0.3136614 -0.10566641 6
2.2276094 0.33825722 -0.076222837 6
2.6424241 -2.3587873 -0.15017821 6
2.7655225 -1.9388876 -0.12781258 6
2.7418776 -1.0977908 -0.10879889 6
2.9717276 -2.7005119 -0.14904092 6
2.8690674 -1.5532516 -0.12080363 6
2.8069658 -0.46583033 -0.074841067 6
3.5164373 -2.5463355 -0.11800501 6
3.2539594 -1.8015392 -0.048587605 7
3.2880332 -1.3540066 -0.056383923 7
3.4069476 -0.57976401 -0.05416812 7
3.3200226 -3.1783905 0.30831757 9
3.2022424 -1.7798861 0.025137763 7
3.7026265 -3.4713583 -0.098020799 6.5
3.6142282 -1.0424248 -0.061647359 7
4.6716318 -3.4782078 -0.1164811 6.5
6.3312345 -1.9152824 0.056570183 7
