# .PCD v0.7 - Point Cloud Data file format
VERSION 0.7
FIELDS x y z intensity
SIZE 4 4 4 4
TYPE F F F F
COUNT 1 1 1 1
WIDTH 70
HEIGHT 1
VIEWPOINT 0 0 0 1 0 0 0
POINTS 70
DATA ascii
-0.51769847 0.53385168 -0.37834099 0
-0.55825931 0.87916023 -0.49886191 1.25
-0.56548756 1.2550603 -0.63247997 2
-0.5919891 1.6268491 -0.77637494 3
-0.45602301 1.9998449 -0.89962709 3
-0.12490768 4.998076 -2.0920129 4
-0.22370543 0.64813721 -0.42657989 0
-0.23738177 0.86958271 -0.50505328 0.60000002
-0.25759453 1.2890484 -0.65081394 2.2
-0.17529516 1.627542 -0.77084345 3
-0.1314386 1.9590217 -0.89101052 3
-0.22350186 2.327246 -1.0214765 4
-0.32658508 2.7437627 -1.1744159 4
0.29511777 -0.99981332 0.12885568 2.6666667
0.31073695 -0.62521034 0.012955149 0.5
0.39346218 -0.41290048 -0.060091428 0
0.1974874 0.64016616 -0.43477961 0
0.19615544 0.89350218 -0.52291012 0.85714287
0.11144844 1.2987967 -0.65622354 2.4000001
0.19294709 1.6669569 -0.78797483 3
0.15667987 2.0107393 -0.90795821 4
0.1112803 2.4676781 -1.0792563 4
0.06759844 2.8933737 -1.2329768 4
0.027639402 3.2856441 -1.3758543 4
0.60828978 5.1026549 -2.1277671 4
0.65384185 -1.2571758 0.25629961 4.75
0.59530663 -0.9756642 0.12286311 3.2857144
0.57249635 -0.62031037 0.015943648 2
0.67404211 -0.27419785 -0.10679919 1
0.46144783 0.53490394 -0.40125751 0.25
0.47668886 0.89790869 -0.52891338 1.5
0.53399062 1.2534856 -0.64851397 2.8
0.5547449 1.6339663 -0.78148174 3.25
0.59894544 2.0303092 -0.92048103 4
0.46868643 2.3656631 -1.040507 4
0.48411375 2.7562492 -1.1794994 4
0.51610029 3.4478598 -1.4424033 4
0.72119164 -1.1725534 0.43453991 8.5
1.0748793 -1.2336267 0.28604332 6
0.99585557 -1.0217986 0.13938129 4.4000001
0.97886634 -0.60578668 0.003102059 3.5555556
0.98020601 -0.26293072 -0.12400817 2.5
0.81127161 2.4115152 -1.0542992 4
0.88064182 2.8039143 -1.1926135 5
0.937509 3.1288927 -1.3053229 5
1.0478185 -1.1697615 0.38451344 7.8000002
1.3578482 -1.2283089 0.2293514 5.3333335
1.3691306 -1.0115831 0.1218162 4.75
1.3913811 -0.61319917 0.00019496198 4.5999999
1.3657815 -0.26113743 -0.13553965 3.5999999
1.4033446 -1.1846509 0.32850784 7
1.7542087 -1.2247175 0.24542494 6
1.729602 -1.0240839 0.13248062 5.6666665
1.7535694 -0.66661406 0.0013110291 5
1.7637717 -0.36150008 -0.10358606 5
1.6751684 -1.1494886 0.39070535 8
2.1304047 -1.1964185 0.24227807 6.5
2.2855496 -0.99152768 0.079495169 5.5
2.1572242 -0.68074828 -0.033175971 5
2.0770659 -1.1494297 0.35027421 7.5
2.7221448 -1.1999512 0.17292871 6
2.6199887 -0.70011282 -0.057758197 5
2.6090429 -1.1189567 0.33053946 7.5
3.0047727 -0.97957522 0.025250666 6
2.8962638 -0.62227058 -0.094964877 5
3.1835277 -0.35444331 -0.20160954 5
3.4204412 -1.1143336 0.11659364 6
3.4594579 -0.73240894 -0.0036548753 6
3.4603035 -1.0929853 0.30753753 7.5
3.4657745 -0.70395887 0.12956166 7
