# .PCD v0.7 - Point Cloud Data file format
VERSION 0.7
FIELDS x y z intensity
SIZE 4 4 4 4
TYPE F F F F
COUNT 1 1 1 1
WIDTH 130
HEIGHT 1
VIEWPOINT 0 0 0 1 0 0 0
POINTS 130
DATA ascii
-12.026108 -0.10798898 4.0218778 15
-6.0033703 3.8594954 -0.52423948 7
-5.9930754 3.9152215 -0.32742596 8
-6.0414562 3.6943622 -0.01066048 9
-6.0304718 4.224474 0.37132463 11
-5.9442549 4.2457595 1.1972184 14
-5.9258037 2.6350644 0.0088742552 9
-5.9255543 2.8478208 0.11763379 10
-5.9185891 3.0547853 0.33314714 11
-5.9182072 2.5600138 0.92230719 13
-5.8856263 3.1464968 0.7266534 12.5
-5.8286667 1.8653269 1.3248261 14
-5.8506999 2.7360902 1.0157405 14
-5.9345808 4.5175171 0.6520654 12
-5.9015994 3.7653308 0.87991941 13
-5.934165 4.7673225 0.75849628 13
-5.9060049 3.1301763 1.2458848 15
-5.9133825 6.2338824 0.67111635 13
-5.6296787 2.6374743 -0.30649593 8
-4.9314551 5.9989061 0.098369293 12
-4.9024992 6.0809407 0.36552283 13
-4.4300222 -3.7942789 1.3452576 8
-4.429697 5.953001 -0.13656293 11
-4.3801756 -3.2950199 2.6392233 14
-4.3949637 -2.4303322 2.2812126 14
-4.4446549 -1.5410128 2.1210887 15
-3.8199971 5.8373661 -0.44720942 10
-3.8705175 5.9931273 0.02144314 12
-3.9355931 6.0535789 0.20816445 13
-3.9084172 6.1394539 0.48089331 14
-3.7027874 3.7484198 -0.38606066 9
-3.4092069 5.9894824 -0.37585899 11
-3.2412419 6.1168575 0.13652219 13
-2.8031147 6.0087523 -0.47333708 10
-2.7746184 6.0702667 -0.21533318 12
-2.6781459 3.8240561 -0.54320621 8
-2.5559919 5.8579426 -1.1570715 7
-2.5368168 6.0424871 -0.39077494 11
-2.3379312 3.8385413 -0.43222296 9
-1.7779773 3.9362547 -0.49084362 9
-1.6054488 5.3244047 -0.6016916 10
-1.6180387 5.4677892 -0.19024968 12
-1.615566 5.5233445 0.040235467 13
-1.549772 5.2617979 -0.84185231 8.5
-1.329452 5.5455894 0.17631668 14
-0.99246395 -0.95304006 0.6991322 14
-1.0024871 -0.94613659 0.72579449 15
-1.0083997 5.468441 -0.3256062 12
-0.89678097 -0.99402159 0.57286024 12
-0.94223392 5.821486 -0.13334842 13
-0.85363674 5.8842101 0.15466236 14
-0.65111268 5.293396 -0.94511116 8
-0.70304114 5.4044828 -0.39412183 11
-0.46452138 -1.0001398 0.52611113 12
-0.5244112 5.3832402 -0.73114812 9.5
-0.23467797 -1.2554619 0.18025392 3
-0.35248882 5.7564335 0.0033708916 14
-0.046127215 -1.225556 0.21608682 4
-0.082047068 -1.1847649 0.3413122 7
0.0021786334 -0.81688827 0.011410383 0
0.12662177 -1.1716827 0.24278904 5
0.092091523 -1.1353601 0.36017478 8
0.31610471 5.7578053 -0.84599161 9
0.53949726 0.60534889 -0.40103051 0.33333334
0.57810801 -0.94649839 0.47209361 12.5
0.57631022 5.759831 -0.33297801 12
0.61339408 0.22589707 -0.29373595 0
0.70162892 0.4562138 -0.37179565 0
0.83148646 0.66709632 -0.435893 2
0.9368068 -0.93988782 0.44149634 11
0.99767697 0.02710315 -0.24636845 2
1.1936381 -0.88423908 0.56369632 14
1.0714257 -0.85585219 0.63983631 15
1.0787593 4.1281557 -0.47317314 10
1.1780574 5.8067584 -0.24624383 12
1.2802507 -0.93377936 0.38978532 10
1.431393 5.8367648 -0.16166334 13
1.357884 5.871006 0.046339054 14
1.4986023 -0.91051793 0.44829562 11
1.5691155 -0.82558382 0.67308688 15
1.4603877 3.9940941 -0.55048722 11
1.7392564 -0.93383831 0.32468036 9
1.7104685 -0.85412353 0.54370338 12.5
1.7528216 4.7372923 -0.1730759 14
1.8414869 -0.89575893 0.40748692 10
1.9137176 3.764509 -0.47705993 11
1.9848773 2.8425162 0.072217807 14
2.079397 -0.87434745 0.4534255 11
2.0431657 2.6497598 -0.45304096 9.5
2.056088 3.5159888 -0.67780709 9
2.0315378 2.7437372 -0.2609646 11.5
2.0056503 3.2660427 -0.49931943 10
2.0506864 2.7495291 -0.11589293 13
2.154577 2.827204 0.20580146 15
2.2493184 -0.92004603 0.28605971 8
2.3643374 1.7148191 -0.16166212 11
2.3373046 2.5418859 -0.44807434 9.5
2.4033051 -0.17705819 0.46831751 13
2.3926291 0.0094467122 0.37097034 12
2.3801694 0.42968848 0.36324668 14
2.3685305 0.71239489 0.31976756 14
2.3543479 1.0056425 0.23037086 13
2.3380256 2.6065466 -0.31185764 11
2.3513689 2.679862 -0.23093331 12
2.2803664 -0.77309042 0.79954582 14
2.398186 0.26379919 0.50891155 15
2.4187009 1.1979007 0.34483278 15
2.4005606 1.4253858 0.24082029 14
2.3831117 1.6162335 0.13500161 13
2.3601007 2.4007785 -0.071603246 13
2.3946285 1.7612606 0.29257524 15
2.3156993 2.2504766 0.17415649 15
2.2986803 2.7805176 0.10118473 14
2.4621198 0.22167648 -0.37122676 5
2.4950094 -0.49002704 0.0065022344 7
2.5026426 0.0031875225 -0.20955339 6
2.5144145 1.1810416 -0.45193893 7
2.4746547 -0.83208793 0.28896311 8.5
2.5010579 -0.46856686 0.098550633 8
2.5262921 0.31491029 -0.13633084 8
2.4064522 0.97224277 -0.21659623 8
2.4832623 -0.79934031 0.44214597 10.5
2.4142933 -0.58095974 0.47373229 12
2.441102 -0.78209502 0.63428491 12.5
2.43188 0.54911196 0.2743535 13
2.487143 -0.73332977 0.86721087 15
2.4930518 -0.37286532 0.79568064 15
2.5309255 -0.036243971 0.63295996 15
2.4307642 0.88928968 0.37687555 15
2.4194696 1.0246851 0.28592771 14
