# .PCD v0.7 - Point Cloud Data file format
VERSION 0.7
FIELDS x y z intensity
SIZE 4 4 4 4
TYPE F F F F
COUNT 1 1 1 1
WIDTH 106
HEIGHT 1
VIEWPOINT 0 0 0 1 0 0 0
POINTS 106
DATA ascii
0.26321542 -0.86712712 -0.1210891 170
0.4870232 -0.83876526 -0.13473007 178
0.079963684 -0.72201145 -0.1262846 185
0.37558952 -0.76428956 -0.13659833 188
0.4722988 -0.72969693 -0.14761703 188
0.57246548 -0.7326932 -0.15544662 186
0.59382725 -0.81313068 -0.14290091 174
0.2085031 -0.62536961 -0.13278528 189
0.32383388 -0.64581013 -0.14137533 190.8
0.45645621 -0.62673974 -0.15176128 191
0.56436706 -0.70593601 -0.15519567 190
0.65176511 -0.66981262 -0.16478242 190.33333
0.73795855 -0.63207662 -0.17193706 190
0.049145028 -0.57392353 -0.13570213 189.75
0.1402318 -0.57713121 -0.14168479 188.5
0.22402966 -0.57281047 -0.14362909 187.42857
0.33697596 -0.57978535 -0.15058477 187.35715
0.44968244 -0.57377726 -0.15972555 188.42857
0.52524734 -0.56805164 -0.16576815 189.57143
0.61238188 -0.54265416 -0.16882752 190.60001
0.71372855 -0.59092909 -0.17770019 193
0.79416364 -0.55610687 -0.18236803 194
0.13663664 -0.49118206 -0.14578292 185.39999
0.24289557 -0.50313133 -0.15208986 184.5
0.34424648 -0.50081319 -0.15775259 184.63637
0.43611705 -0.48269188 -0.16552919 183.71428
0.52677459 -0.46699205 -0.17199153 184.86667
0.63400853 -0.47837633 -0.17758015 188.625
0.71289104 -0.45424622 -0.18657191 190.66667
0.85366923 -0.49039653 -0.19852993 196
0.17123395 -0.37072819 -0.17020653 176
0.24737765 -0.39175236 -0.17202413 176.25
0.35145304 -0.37590039 -0.18071744 175.5
0.44503576 -0.35407427 -0.18776521 177
0.54342914 -0.38063219 -0.18852583 180
0.62858742 -0.37561843 -0.18570045 183.88235
0.74370801 -0.37538174 -0.1948128 187.88889
0.80076236 -0.34612772 -0.19898878 190.66667
0.89777291 -0.41743162 -0.21092334 194
0.45675924 -0.32206091 -0.19227161 176
0.5406059 -0.28639087 -0.20056847 176.33333
0.64173812 -0.28578761 -0.20249335 180.75
0.72562265 -0.27069128 -0.20111637 184.92857
0.82771713 -0.27243105 -0.21163945 189.625
0.91211486 -0.24612413 -0.22975747 191
0.5736168 -0.22001699 -0.21100339 175.5
0.62879187 -0.16879793 -0.21753223 176.5
0.72699904 -0.18997532 -0.21298088 182.5625
0.83195508 -0.21339034 -0.21756184 189
-0.16201299 0.16628285 -0.19659409 156.77777
0.07799118 0.11800417 -0.15065211 144.5
0.10652907 0.10778733 -0.14890394 138.16667
-0.47181624 0.27651751 -0.19606313 148
-0.35938257 0.23649301 -0.1991958 158.75
-0.24985912 0.19755673 -0.19362745 155.16667
-0.06942901 0.27475533 -0.22114846 163
0.48278686 0.27046555 -0.25712821 158
0.51997751 0.24730153 -0.26145557 154
-0.67148966 0.34759378 -0.19518135 119.5
-0.58994526 0.3185527 -0.19740023 130
-0.49396259 0.28440687 -0.19465181 145
-0.21992473 0.37674785 -0.22630699 154
-0.15610597 0.33294106 -0.21631426 153.85715
-0.069691427 0.32497981 -0.22277822 161.66667
0.024012089 0.37450787 -0.24264069 173
0.55615771 0.33889309 -0.27013886 169.27272
-0.34575593 0.46174192 -0.22690843 150
-0.27195451 0.41157076 -0.22211301 155.33333
-0.13474569 0.42158377 -0.22992052 150.5
-0.062326457 0.42245477 -0.23575628 156
0.045409765 0.41373152 -0.24442451 169.5
0.13031225 0.44005859 -0.25656894 180
0.25777873 0.46117991 -0.2658619 182
0.34942046 0.45986646 -0.27363846 182.66667
0.45611942 0.42073816 -0.27341923 181
0.52855921 0.39454979 -0.27326384 178.2
0.59908158 0.39910561 -0.2781682 179
-0.4712151 0.54666144 -0.2298333 135
-0.26952624 0.54056609 -0.2387974 151
-0.16356845 0.52734107 -0.24533284 153
-0.080161735 0.49364272 -0.25092581 152
0.036035534 0.50934565 -0.25394049 156.60001
0.13181549 0.54198194 -0.26751465 167.2
0.23413625 0.52208441 -0.27323961 177.5
0.42203489 0.54040623 -0.28826123 179
0.56706393 0.49486861 -0.29185238 179
-0.6309368 0.6546737 -0.23192346 121
-0.56066579 0.60713619 -0.23080674 120.66666
-0.35791942 0.61860669 -0.24466425 141
-0.20886576 0.63982463 -0.25603843 151
-0.043549746 0.59743458 -0.26081786 154
0.044709332 0.64468992 -0.272827 153.5
0.17374668 0.57352757 -0.27299321 171
0.25928745 0.5772143 -0.27915701 173
0.34358761 0.57331496 -0.28623626 175
-0.53518647 0.77433789 -0.24989744 131
-0.47376251 0.72043616 -0.24860665 123.66666
-0.28647533 0.72859257 -0.26246527 142
-0.10674623 0.69227904 -0.26971206 148
-0.0048688888 0.74593097 -0.28218687 148
0.14033504 0.67455906 -0.28410143 154
-0.37828135 0.83280116 -0.26572242 125
0.10664434 0.77375585 -0.291031 143
-0.23590054 0.88493717 -0.28354403 130
0.066812925 0.12533516 -0.062671579 129.8125
0.030547295 0.14176707 -0.0014162791 127.33334
