# .PCD v0.7 - Point Cloud Data file format
VERSION 0.7
FIELDS x y z intensity
SIZE 4 4 4 4
TYPE F F F F
COUNT 1 1 1 1
WIDTH 121
HEIGHT 1
VIEWPOINT 0 0 0 1 0 0 0
POINTS 121
DATA ascii
-5.8771257 15.689086 2.8886204 11
-3.7803206 5.539196 1.8781937 15
-3.4333386 13.285826 3.1453187 13
-2.4286475 1.7873707 0.19451594 9
-2.4703221 2.0454123 0.45400131 11.5
-2.4712265 1.92838 0.62917948 13
-2.4952004 5.78022 1.2148561 12
-2.3185134 1.1795812 0.14266971 9
-2.3395557 1.326259 0.52451235 13
-2.3785176 1.5254458 0.46270096 12
-2.2687287 0.85084593 0.58559251 15
-2.3132935 1.115821 0.64271611 15
-1.9164026 -1.2503058 0.18214273 11
-1.9231428 -1.2655436 0.40095326 13.5
-1.9247016 -1.2709621 0.4968566 15
-1.7692291 -1.2337619 0.048837163 9
-1.3531108 -1.1650409 0.19070898 12
-1.2922822 -1.1565754 0.39951479 15
-0.91694325 -1.1126612 0.10707992 11
-0.91412485 -1.0888255 0.19560188 13
-0.56219149 -1.0265676 0.15368125 12.5
-0.43588698 7.2459507 0.81665528 9
-0.30666751 -0.99373001 0.18082291 13
-0.42993861 7.2332373 1.0704563 10
-0.36709425 7.2059255 1.6856587 13
-0.35280913 7.1811905 2.1640747 14
-0.032116059 -1.0567806 -0.23438655 2
-0.10424826 7.2708964 1.2959461 11
-0.20012379 7.2649021 1.5226594 12
0.10976668 0.82505155 -0.16659869 0
0.10709178 -1.0257334 -0.16147096 4
0.17418924 -1.0866642 0.041384634 9
0.26352465 -0.69023293 -0.22232449 0
0.39624929 -0.559762 -0.21396518 0
0.24685559 0.71196306 -0.16877399 0
0.21660244 0.84582561 -0.15807968 0
0.30896199 1.0533479 -0.14705315 2
0.38662565 -1.0280836 -0.20127943 2
0.22435287 7.3648844 2.4932084 15
0.53180093 -0.5221101 -0.2025432 0
0.5142324 -1.0062089 -0.18878132 3
0.58991814 1.193725 -0.10650381 3
0.36024246 7.4000897 2.225476 14
0.71161765 -0.57460594 -0.19203289 1
0.74816465 0.58413017 -0.14857002 1
0.72890925 0.74240851 -0.1448881 1
0.80391949 0.90843868 -0.13418277 2
0.61497653 -1.0285866 -0.067553774 6
0.75806493 -0.94819927 -0.15341604 4
0.61908877 -0.84149635 0.23139362 13
0.60725933 1.1430944 0.405974 14
0.82686251 -0.46015319 -0.18702275 1
0.90023321 -0.99096972 -0.077342018 5
0.84032512 -0.61707211 -0.18321517 2
0.92502958 -0.95801824 0.094936743 9
0.85132688 -0.816724 0.23228233 12
0.87172109 7.5034108 1.5972408 12
1.2681603 -0.71925473 0.20508704 10
1.312393 -0.74178272 0.32727122 13
1.2311552 7.5708408 1.3027949 10
1.2009805 7.5305123 2.2319431 14
1.1347437 7.4928498 2.5928597 15
1.5806009 -0.69833183 0.24568398 10
1.5767752 -0.59196961 0.4331578 13
1.6006418 -0.56601948 0.20523904 10
1.6564068 -0.37704456 0.23553419 10
1.5976537 -0.69618618 0.3082048 11.5
1.7354989 -0.57172829 0.35881308 12
1.629311 -0.38350675 0.3789871 12.5
1.5985529 -0.70902854 0.53131807 14.5
1.7361885 -0.59219688 0.49142742 14
1.6339058 -0.38605809 0.54030538 15
1.8068918 7.656877 1.3654945 11
1.8096132 7.2112932 2.5651059 15
1.9074247 7.6287227 2.3251603 14
2.5394945 0.14767887 0.3049925 9
2.5440052 0.22192408 0.25336587 8
2.4938798 0.46614778 0.30077019 9
2.5375075 0.11894403 0.38846916 10
2.4919591 0.44574639 0.46724719 10.5
2.4531531 -0.25248504 0.85153806 15
2.4400556 7.7450171 1.7365506 12
2.7362711 0.73841035 0.28147069 8
2.7318084 0.73641992 0.42799589 9.5
2.7640252 0.63835663 0.6438365 12
2.5829334 7.7845135 1.5114305 11
2.8349078 -0.074179702 0.8053689 14
3.0691812 7.8579731 1.4978437 10
3.102134 7.7731161 2.6357555 14
3.8704617 3.12588 0.4259623 8
3.8110216 3.4821239 0.71322244 9
3.8046179 3.4868431 0.89015657 10
3.8418159 3.1731505 1.0083454 11
3.8383796 3.1629822 1.1647481 12
3.8747432 6.8890014 1.4478781 11
3.7839518 3.4145634 1.4291693 13
3.7905436 3.4055347 1.5852206 14
3.7811432 3.5426812 1.9326011 15
4.1501656 1.4511729 0.30735701 7
4.1472521 1.6166948 0.7925157 10
3.9776955 2.638288 0.79512107 10
3.9818647 2.6989191 0.94005376 11
4.0076323 5.8672075 1.1635703 10
3.9598491 2.494138 1.2526189 13
4.058907 5.7088466 1.4303681 11
4.0004315 5.8397398 1.6516755 12
4.0161963 5.6878862 1.9705768 13
4.0381589 5.633945 2.1606376 14
4.0663605 5.5370655 2.5346963 15
4.2145996 4.9966373 0.58685225 8
4.1685286 5.1179285 1.1368111 10
4.1875234 4.9968696 1.2407818 11
4.2099533 2.0475581 1.4810829 14
4.2332888 2.8234577 1.5077578 14
4.1838856 4.9656391 1.695991 13
4.1777105 2.8171096 1.813414 15
4.208571 4.8132749 1.9746659 14
4.519124 1.6117705 0.95142525 11
4.5419025 2.5596795 1.3295338 12
4.5633521 2.5629811 1.1099933 11
4.6562734 1.8279349 1.3551295 13
