# .PCD v0.7 - Point Cloud Data file format
VERSION 0.7
FIELDS x y z intensity
SIZE 4 4 4 4
TYPE F F F F
COUNT 1 1 1 1
WIDTH 550
HEIGHT 1
VIEWPOINT 0 0 0 1 0 0 0
POINTS 550
DATA ascii
-7.7245016 15.401484 2.6585658 11
-7.3618193 13.447372 2.3484485 11
-7.527173 15.455651 2.7203739 11
-7.4219794 15.702564 2.7015779 11
-7.1260905 12.697896 0.66292697 8
-7.2018509 12.576402 1.3282435 9
-7.1326385 12.654567 1.4740506 10
-7.0191278 15.835647 1.7474356 9
-7.0137558 10.93948 1.9791669 11
-7.0354786 11.509909 2.0027907 11
-7.2823281 12.97169 2.3115189 11
-6.7205944 9.6956797 1.7526602 11
-6.7773032 10.136835 1.7941979 11
-6.6860003 9.5212679 2.7493339 14
-6.7257638 15.654075 2.8181584 11
-6.8988547 12.426408 3.1236284 13
-6.7055607 10.845766 3.3711526 14
-6.0801978 5.7901835 0.62424839 9.5
-6.2581596 6.8603668 0.55168355 9
-6.3169718 7.2612548 0.5946964 9
-6.1381092 7.6684365 0.58717537 8.5
-6.0899868 8.370369 0.84947604 9
-6.1058559 6.0280142 0.94663239 10.5
-6.2309232 6.86058 1.042374 10.5
-6.2926264 7.6297855 0.90974987 10
-6.0564904 8.2025585 0.9424904 10
-6.338623 7.3695593 1.4030112 11.333333
-6.2632518 7.6345983 1.4503088 11.333333
-6.1360703 8.0450277 1.5612055 11
-6.0869246 8.5186987 1.5035304 11
-6.2827325 15.645075 2.8489635 11
-6.4440341 11.968484 3.6997669 14
-5.9068017 7.7354383 0.35552126 8
-6.0253625 5.681777 0.56412846 9
-5.8518209 7.6665058 0.54573518 9
-5.7288055 8.1056347 0.57623714 8.5
-6.0114722 5.660111 1.0298394 11
-6.053896 8.5208225 1.166702 10
-5.9618578 5.6207018 1.5440683 13
-5.9960747 7.6707082 1.4639999 11.5
-5.8385057 5.1932406 1.6803464 13
-5.9946837 7.6497002 1.7187732 12
-6.0449944 8.184165 1.6692717 12
-6.1252003 6.7198205 2.7441578 15
-6.0087824 7.6623106 2.5000787 14
-6.0827971 15.683879 2.8556619 11
-6.03157 12.533504 3.5190597 14
-5.2621899 4.6544919 0.47833475 9
-5.6306162 5.3403673 0.69992483 10
-5.4095674 5.2986298 1.3213373 12.333333
-5.4660106 13.000304 2.9382148 12
-5.4314003 14.488893 2.7809269 12
-5.4888954 15.776222 2.9364786 11
-5.4584846 9.8300819 3.1094854 14
-5.4464364 12.112686 3.7342014 14
-5.0549278 7.026206 0.19881415 8
-5.0067773 5.377924 0.64497519 9.5
-5.1874161 4.6039214 0.98958397 11.333333
-5.0004878 5.2798762 1.0956411 11.5
-4.99828 5.2965269 1.4759907 13
-5.2210064 4.641222 1.7390636 14
-5.0250602 4.8933835 1.7277259 14
-5.0274491 5.3572264 1.837909 14
-5.1386404 13.097837 2.981818 12
-5.0737414 14.555536 2.7976325 12
-5.1901307 15.830412 2.9493701 11
-5.2931371 10.831378 3.3955479 14
-4.9665246 13.039882 3.3406563 13
-5.1085982 12.360496 3.7073662 14
-4.5713158 6.6016498 0.4014118 8
-4.572825 5.4374661 0.55716348 9.5
-4.5461559 6.6506467 0.6732465 9.333333
-4.5391564 18.717022 1.5149335 8
-4.6543064 5.4224334 1.5077507 13
-4.5857511 18.570051 1.9979873 9
-4.6492491 5.3402872 1.8766334 14.25
-4.5353074 18.530079 2.8002017 10
-4.8801394 8.5590773 2.7379899 14
-4.766922 10.238464 2.6570072 13
-4.8896585 15.865791 2.9471183 11
-4.7175393 15.973361 3.034651 11
-4.6231308 13.064144 3.3619721 13
-4.832665 17.919922 3.4019926 11
-4.7489877 11.79275 3.6941929 15
-4.7377572 12.032689 3.7144122 14
-4.9073415 12.959839 3.7371807 14
-4.276042 6.532176 0.34892717 8
-4.2501655 8.1192875 0.4085401 8
-4.3472404 8.6578627 0.50048196 8
-4.328639 5.5807886 0.73507142 10
-4.2764163 6.5066686 0.74081844 9.5
-4.2351131 6.8734245 0.79556918 9.666667
-4.1452842 5.5089002 1.0678413 11
-4.058651 6.8114209 0.92947739 10
-4.1651249 5.4749074 1.5269011 13
-4.362195 16.04472 1.7309986 9
-4.2859335 5.385416 1.8661544 15
-4.3448339 16.077291 2.4404707 10
-4.4252892 17.294596 2.2143867 10
-4.294333 18.614626 2.4075537 10
-4.4535623 10.191143 2.656142 13
-4.4335046 13.140159 3.0385156 13
-4.3045068 13.161495 3.400059 13
-4.4162874 18.104282 3.4700193 12
-4.4230871 11.795444 3.7040732 15
-4.4198108 12.057745 3.7234879 14
-4.3377156 12.624156 3.5637763 14
-4.009316 6.848413 0.33437696 8
-3.9995806 7.2149944 0.36697263 8
-3.857626 8.7421188 0.91122842 9
-3.8139634 18.898464 1.3203219 8
-3.9933813 8.7532444 1.0399354 10
-3.9420593 8.8316698 1.0145447 10
-3.8151846 5.5134997 1.3475055 12.5
-4.0168548 5.5486698 1.5469558 13
-3.9166224 18.660048 2.0652728 9
-4.0468106 5.5103097 1.802743 14.5
-3.7405889 5.5829754 1.8222851 14.5
-3.844301 18.664896 2.4604857 10
-3.9303982 13.212575 3.0914869 13
-4.015058 16.011194 2.9469817 11
-3.867677 18.165661 3.4711342 11.5
-3.9492502 11.78322 3.7185812 15
-3.7868383 12.08993 3.7396035 15
-3.9890473 12.530369 3.7355506 14
-3.9195683 13.137321 3.7471373 14
-3.4811563 5.5958099 0.36612085 8.5
-3.4895818 6.5912919 0.73271763 9.5
-3.3923426 7.0018306 0.83645773 10
-3.280201 7.650044 0.95160514 10
-3.5565624 9.7949686 0.77550894 9
-3.2667701 11.138812 0.99735212 9
-3.4959183 13.676174 1.0241383 8
-3.3560197 18.890869 1.3743777 8
-3.2908227 5.5454564 1.0789927 11
-3.2995572 5.61305 1.1585171 12
-3.5229568 9.6685276 1.1196703 10
-3.440537 18.542398 1.4831491 8
-3.6388869 5.5608473 1.5568007 13
-3.6100593 18.709158 2.1035743 9
-3.3965406 18.75466 2.5197206 10
-3.6309111 18.590714 2.8774798 10
-3.7227683 16.066986 3.0434971 11
-3.6453142 13.251367 3.4551871 13
-3.5438218 18.234409 3.5672009 12
-3.4658124 11.72457 3.7199233 15
-3.4528265 12.021653 3.7251637 15
-3.5985727 13.210048 3.7559843 14
-2.9346769 7.6801915 0.5490219 8
-3.0814428 5.6887207 0.57266712 9
-3.0037189 7.5075121 0.86151546 10
-3.1275437 7.6641674 0.86786407 9.5
-2.9963374 8.0412626 0.92519653 10
-2.9294455 19.072901 1.4384555 8
-3.0238028 5.6169882 1.0702406 11.5
-3.101898 18.326876 1.5586153 9
-3.0821855 19.092297 1.5560323 8
-3.24668 18.897083 1.9597129 9
-2.950635 18.823687 2.5755017 10
-3.1101427 13.374662 3.1923838 13
-3.1534266 16.156023 2.9248354 11
-3.1558537 13.326968 3.5004179 13
-3.3235729 18.246897 3.4620738 11
-3.1003163 18.27314 3.609834 12
-3.1367097 11.623242 3.7029266 15
-3.3545401 12.611633 3.5832348 14
-3.2587445 13.201792 3.7464948 14
-2.4289925 1.7898272 0.23269467 9.8000002
-2.4635582 2.0384693 0.24312747 9.5
-2.7508018 7.7426157 0.57806015 8
-2.4438808 1.8117825 0.50276107 12.2
-2.471483 2.0534134 0.57755905 12.4
-2.8061848 7.0366044 0.70015234 9
-2.6769061 7.1952176 0.72090745 9
-2.592134 7.810307 0.84002167 9.5
-2.5650175 8.0186911 0.97048157 10
-2.6712267 11.75977 0.90443081 8
-2.4610429 1.8146051 0.86601418 15
-2.4765358 2.0735154 0.84848666 14.5
-2.6232724 5.7007589 1.2120806 12
-2.4756441 19.07929 1.5904287 8.5
-2.6022527 5.7651353 1.4659307 13
-2.8006246 18.975456 1.9703637 9
-2.761816 16.203409 2.9430742 11
-2.7772961 13.403093 3.2250299 13
-2.7789657 18.328432 3.5793557 11.5
-2.8343847 11.99577 3.7301445 15
-2.9461944 13.305313 3.7650092 14
-2.0327265 -0.60266411 0.17759274 11
-2.3048491 1.0241866 0.19842891 10
-2.3619955 1.3772879 0.22188561 10
-2.4038401 1.6256481 0.25514287 10
-2.0412109 -0.60706049 0.40548965 14
-2.3154345 1.0218781 0.50607914 13.5
-2.366668 1.3612746 0.54863608 13.25
-2.4158645 1.6833322 0.56988961 12.833333
-2.3494947 8.0850649 1.0077546 10
-2.4004014 1.4754003 0.76438969 15
-2.431972 1.6602508 0.81013817 15
-2.5058174 18.90555 2.6333144 10
-2.5160508 10.279668 3.324708 15
-2.3435094 13.441202 3.5774488 13
-2.4570558 13.486012 3.2709925 13
-2.4611921 18.41345 3.5403476 11
-2.5218227 11.947117 3.7249684 15
-2.360049 12.583014 3.7119291 14
-1.7884573 -1.2289536 0.13400824 10.444445
-1.9090408 -1.0357267 0.13130765 10.5
-2.0033715 -0.74555349 0.14210804 10.75
-1.8190316 -1.2395372 0.42957532 14.2
-1.9463618 -1.0296214 0.39201865 13.7
-2.0149202 -0.71764857 0.43705338 14.4
-1.7591945 15.342278 1.7607611 9
-1.8822919 15.405418 2.8351419 11
-1.8785874 9.0627489 2.9845877 15
-1.9775604 13.514536 3.419838 13
-1.9244349 11.904815 3.7303376 15
-1.924562 12.552115 3.7431293 14
-1.9702058 13.46594 3.7909386 14
-1.6086184 -1.2135843 0.18755679 11
-1.4001719 -1.1726043 0.15877496 11.333333
-1.6208597 -1.2253524 0.46600008 15
-1.4191604 -1.1880007 0.34868622 14
-1.5269536 14.395813 1.2408777 8
-1.4479299 14.450805 1.5801479 9
-1.5203127 14.399442 1.7752597 10
-1.6040922 14.389282 2.4846389 11
-1.6246964 13.344153 2.775444 12
-1.5697594 14.281115 2.8348444 12
-1.5339024 15.621308 2.8807075 11
-1.5360683 9.0214357 2.9916656 15
-1.4677907 12.466438 3.6100085 14
-1.6346955 11.908869 3.7427733 15
-1.614055 12.5255 3.7394047 14
-0.99164772 -1.1137046 0.20017123 12.6
-1.0050771 -1.1216875 0.33673793 15
-0.85998398 10.317676 1.0040733 9
-0.93047363 10.205853 1.2847955 10
-1.0894895 10.058917 2.5850253 13
-1.2917608 13.243915 2.7831476 12
-1.1967043 8.9519796 2.9909813 15
-0.45405653 1.2976348 -0.16341576 3
-0.5045442 1.84295 -0.16070049 4
-0.43286347 2.4063818 -0.14489175 4
-0.56626588 4.6700573 -0.10383661 5
-0.61310261 -1.0467588 0.19487271 13.2
-0.69873637 9.0849762 1.1098026 9
-0.46474248 7.219749 1.4023129 11
-0.66735238 9.058774 1.2916306 10
-0.68742603 9.1077032 1.6515642 11
-0.53129679 7.2042389 2.1704683 14
-0.67075813 9.0356159 2.015914 12
-0.88597041 10.268211 2.1398516 12
-0.63821173 7.4287076 2.5593278 15
-0.70310527 7.8709126 2.5940528 15
-0.87482619 8.9562397 2.6221163 14
-0.82160652 9.7933226 2.54757 13
-0.16573758 -0.96635544 -0.22105783 2.1666667
-0.11935937 -0.65649402 -0.20919551 0.25
-0.080076873 0.71966887 -0.17463905 0
-0.14778706 0.98675269 -0.16499922 1.3333334
-0.1609349 1.364573 -0.14705838 2.8
-0.20640241 1.7320621 -0.13895559 4
-0.33090091 2.1030693 -0.14251684 4
-0.28307849 -1.0005578 0.2103487 14.125
-0.31974852 7.2547832 0.96409154 9.5
-0.2534743 7.2481642 1.2625786 10.5
-0.21320273 7.2467737 1.6360656 12.333333
-0.3056787 7.2337956 2.0790179 14
-0.34491584 7.190855 2.3913443 15
0.24373631 -0.97553295 -0.20160851 2.2
0.23463991 -0.64446086 -0.20841578 0.14285715
0.22211248 0.69663155 -0.15747604 0
0.19172403 1.0210927 -0.12695226 2.0625
0.21952362 1.3204273 -0.091763049 3.6666667
0.24371664 1.8116326 -0.10680799 4
0.21311973 2.2211161 -0.09964814 4.5
0.18029293 2.6589653 -0.091661952 5
0.14753927 3.0886965 -0.082156226 5
0.12362134 3.3682959 -0.067801081 5
0.085916124 3.8728778 -0.059021268 5
0.21616825 -0.98795342 0.14939861 12.285714
0.300578 1.4283252 0.11844868 7.75
0.10014403 7.3350639 1.3619962 10.75
0.10450522 7.3300471 1.6844163 12.5
0.058967862 7.2997169 2.1452975 14
0.080629885 7.2961373 2.3986259 15
0.61048114 -0.97207987 -0.13848276 4
0.61607039 -0.62358594 -0.19758138 0.76923078
0.63568228 -0.32214192 -0.17584002 0.2
0.65962875 0.28958297 -0.14723308 0.2
0.63282079 0.64518112 -0.1433949 0.71428573
0.61000073 1.0037998 -0.13052353 2.090909
0.57234156 1.3399653 -0.067939036 3.9000001
0.69332767 1.7729484 -0.093029484 4
0.76145065 2.1604111 -0.080610931 4.5
0.62032157 -0.97876382 0.15113653 11.176471
0.58014774 1.1226705 0.42491859 14.666667
0.63217789 1.4296389 0.35891873 12
0.6172846 7.3429074 0.5077306 8
0.64552867 7.487442 0.8794992 9
0.52594805 7.4480276 1.4411937 11
0.5380317 7.4413514 1.7424138 12.5
0.52159083 7.4274931 2.1539404 14
0.48520714 7.4078116 2.4504862 15
0.97794878 -0.92460114 -0.12074274 4.5833335
0.9251824 -0.6348666 -0.18519105 1.8571428
0.83223867 0.34791499 -0.13043445 1
0.96185982 0.60098022 -0.12970562 1.9166666
0.98632079 0.97515649 -0.12053879 2.8571429
0.99199039 1.3873674 -0.10721857 3.5
1.000471 1.775596 -0.087473191 4
1.0558578 2.165122 -0.070470609 4.5
0.81541014 2.4643166 -0.072574876 5
0.90573519 2.9817801 -0.053882852 5
0.97076404 3.3510072 -0.042420071 5
1.0496809 3.8018281 -0.02686926 5
0.9813053 -0.91701937 0.17158687 10.833333
1.0266947 -0.7902323 0.30167896 13.222222
0.93324423 7.536283 0.89834875 9
0.94147742 7.5174975 1.4111652 10.666667
0.9121365 7.5007176 1.8000507 12.5
0.84692967 7.4802051 2.2396138 14
0.85264343 7.457633 2.5104818 15
1.2320416 -0.90775138 -0.15461399 4
1.3128515 0.71654677 -0.10346876 3.3333333
1.3671436 0.97041351 -0.091143146 3.5999999
1.4119854 1.3680037 -0.098299012 3.75
1.3766334 1.7580299 -0.11005007 4
1.3808233 2.159363 -0.091633223 4
1.3827208 2.6078367 -0.066661932 5
1.3271126 3.0359979 -0.037904602 5
1.4528806 3.4389706 -0.023666678 5
1.3855888 -0.71743894 0.30257511 11.928572
1.53571 7.5002632 0.62101364 8
1.4378811 -0.72032261 0.47185045 14.666667
1.4756572 7.4951262 0.81138462 9
1.1679175 7.5796833 0.86409122 9
1.2702197 7.5754061 1.4920126 11
1.1442555 7.5354295 1.7614717 12
1.3104149 7.5635309 1.8046311 12.5
1.2077566 7.5376153 2.2790589 14
1.3979574 7.4261856 2.5935645 15
1.3220155 7.5442724 2.4554646 15
1.8346796 1.1154985 -0.079336531 4
1.8115797 1.4050797 -0.073830962 4
1.8359569 1.8207097 -0.075473584 4.3333335
1.7530986 2.1957088 -0.10697369 4
1.8377932 2.6896334 -0.089801691 4.5
1.8271606 3.1220767 -0.066590071 5
1.6398339 -0.57603359 0.31369719 11.25
1.6885927 -0.40057737 0.35840115 11.6
1.5975572 7.5156932 0.43093935 7
1.6473563 -0.60192209 0.50772071 14.2
1.7206242 -0.38203195 0.54835904 14.666667
1.6327641 7.6314187 1.433863 11
1.691866 7.6238489 1.8051312 12.333333
1.6029179 7.5971208 2.3070414 14
1.6452166 7.281179 2.5706472 15
1.7263139 7.5998402 2.5123177 14.333333
2.092227 1.3121817 -0.068440355 4
2.2149627 1.8000783 -0.053437661 5
2.1452034 2.2067096 -0.060772985 5
2.0409613 3.5828822 -0.055137236 5
2.3263421 6.2430425 0.080917813 5.5
2.1926627 -0.43216312 0.32363936 10.25
2.1908641 -0.34046364 0.33325201 10.2
2.3661606 3.7628148 0.63822317 9
2.2155409 4.3793049 0.67839658 9
2.0118701 5.6354804 0.70731944 9
2.2184699 -0.42934176 0.65748209 14
2.164386 -0.3440038 0.6059463 13.6
2.159888 4.5305066 0.69319338 9
2.1438844 4.7877517 0.71796799 9
2.0506473 7.7022443 1.4929954 11
2.1246796 7.6895108 1.851966 12.166667
2.1365783 7.2199702 2.5526822 15
2.1275795 7.672183 2.5384493 14
2.4325545 1.5725839 -0.051383276 5
2.6678762 2.2428203 -0.033407602 5
2.6839905 2.8770719 -0.041329622 5
2.4765916 3.3505838 -0.088029161 5
2.5115597 4.7451811 0.20450798 6
2.6891575 7.6223102 0.35194275 6.5
2.5070369 -0.28420708 0.35976639 10
2.5539055 0.23427905 0.32681212 9.2222223
2.6211226 0.5680021 0.38101068 9.3999996
2.6154497 3.7327611 0.53404456 8.333333
2.6237075 5.1309185 0.43853906 8
2.7072439 5.2766471 0.38869107 7
2.6369698 7.6115432 0.51196319 7
2.5711935 -0.23760581 0.69443041 13.375
2.7698431 0.60084563 0.56297195 11
2.4773045 5.027132 0.76568276 9
2.4636953 7.7700386 1.4080632 10.5
2.50313 7.7525258 1.7945284 11.5
2.4900222 7.7416329 2.217598 13.5
2.43385 7.1121044 2.5944669 15
2.5573196 7.740787 2.5867982 14
2.8455575 1.8904231 -0.021105593 5
3.0609078 3.347095 -0.024658727 5
2.8601632 3.9621294 -0.079559818 5
2.9616275 4.2109857 0.11217701 5.5
3.034637 5.7425079 0.026531752 5
3.0210247 -0.16337869 0.3934361 9.5
2.8273566 0.044553738 0.37630782 9.3999996
2.9872906 3.6498516 0.62742001 9
2.892072 -0.13048194 0.68503392 12.285714
2.93976 0.14222036 0.7195667 12.5
2.8644094 0.54668266 0.77221012 13.166667
3.0069816 -0.14677602 1.0419813 15
2.9043665 7.8319268 1.4264302 10.5
2.8866582 7.822681 1.8620567 11.666667
2.9089148 7.8172874 2.2151878 13.333333
2.9110544 6.9770112 2.6046534 15
3.0577445 7.4746718 2.5750444 14
2.8895473 7.782958 2.622153 14
3.5031722 3.0581999 -0.00086228683 5
3.3122137 3.7447102 0.22970164 6.5
3.4945242 -0.12587237 0.36491066 9
3.5167685 7.2575693 0.80579638 8
3.2034369 -0.14255209 0.54914707 11
3.3764162 0.023439031 0.738837 11.666667
3.5009763 0.038499083 1.0795411 14.5
3.3541908 7.9084682 1.4672886 10.2
3.2946253 7.8885241 1.8629423 11.5
3.2612169 7.8671803 2.4496789 13
3.2926166 6.8337455 2.6048994 15
3.3118811 7.747642 2.6456704 14
3.9652159 2.6953311 0.52145576 8.25
3.9038222 2.9854915 0.57565439 8.3999996
3.8292236 3.3845999 0.55778784 8.25
3.9382527 6.6647506 0.74004465 8
3.6554608 0.084747083 0.87889022 12.5
3.950938 2.7183573 0.79061812 10
3.8981638 2.9510825 0.94201469 10.8
3.8289008 3.3514333 0.90722722 10.2
3.9098034 6.6885467 1.2547302 10
3.7023487 0.066313833 1.2822959 15
3.9049869 2.6595762 1.2650317 13
3.8692627 2.952966 1.3161298 13
3.8229408 3.3184505 1.249768 12.333333
3.9236588 6.5903683 1.3829619 10.5
3.8766608 6.7970366 1.490342 10.5
3.7960775 7.9536381 1.4450682 10
3.8666146 3.023834 1.6673435 14.666667
3.8228602 3.3419826 1.7299945 14.6
3.8993077 6.6593194 1.7910749 12
3.8515046 6.8807411 1.926167 12.5
3.8603981 7.8803835 1.7967929 11
3.6751239 7.9422841 1.8991824 11.5
3.8858414 6.5879831 2.2839301 13.5
3.8470252 6.7800865 2.2189474 13
3.8198531 7.7835951 2.1954813 13
3.6305664 7.916954 2.4834728 13
3.8466213 5.7810683 2.5699258 15
3.7999461 6.6313057 2.6068549 15
3.5394638 6.7230206 2.6017272 15
3.7970512 7.3432388 2.6051602 14
3.6469195 7.6701145 2.6305382 14
4.1020937 2.8632021 0.101307 5.5
4.384778 3.9419987 0.1227012 5.5
4.1618657 1.3672324 0.45515764 8.1999998
4.1038122 1.7733086 0.45846382 8.1999998
4.0413098 2.1680512 0.49724373 8.5
4.0024171 2.5201788 0.48676869 8
4.1197343 2.9241495 0.34993669 7
4.3079457 3.9472334 0.4280445 7
4.3722048 4.217319 0.60779858 8
4.3378825 4.5595188 0.61912334 8
4.2418947 5.0174961 0.69219983 8
4.1684499 5.2791405 0.66703033 8
4.0764132 5.7027421 0.70910531 8
4.2541013 0.20737545 0.89909476 11.333333
4.2927179 0.42978725 0.91506946 12
4.1672788 1.1322818 0.70062488 10
4.1730976 1.3560437 0.73847014 10
4.170743 1.78101 0.80636674 10
4.0880423 2.1256242 0.75433403 10
4.0123386 2.5589128 0.92333925 11
3.9645667 2.8342717 0.94801968 11
4.3533998 4.1896243 1.0030205 10
4.328897 4.5562396 0.9955855 9.8000002
4.2437439 4.9158587 1.0220563 9.666667
4.1613841 5.3409905 1.0431199 9.5
4.0406528 5.7626228 1.0955939 9.5
3.9574423 6.4588017 1.1334921 9.5
4.25982 0.21542779 1.1521995 13.333333
4.2884536 0.41152969 1.215152 13.5
4.3210268 1.8615804 1.45821 14
4.250649 1.9479905 1.4658427 14
4.1016331 2.482609 1.3698779 13.2
4.3310513 4.2692523 1.5798005 13
4.2970829 4.6019282 1.3570874 11.5
4.2050414 4.9448767 1.4006474 11.5
4.132853 5.3774376 1.474408 11.6
4.0529366 5.7328959 1.4650909 11.333333
3.9951303 6.1623182 1.3627653 10.5
3.9426141 6.4806848 1.5511519 11
4.2549796 0.23241137 1.4532431 15
4.291358 0.39019972 1.490736 15
4.3202415 1.4529434 1.510492 15
4.2958031 1.6945845 1.5413325 14.5
4.2172399 2.126256 1.5896699 14.5
4.1513033 2.5073338 1.6510236 14.571428
4.0536642 2.8533003 1.6777281 14.5
4.0448785 3.1486063 1.8751034 15
4.3114095 4.2145791 1.7184014 13.333333
4.2572284 4.5485344 1.8209181 13.5
4.1814151 4.9296279 1.7790239 13
4.108779 5.3756037 1.8573501 13
4.0752406 5.5810561 1.8008713 13
3.9906995 6.0622916 1.8283194 12.5
3.9423926 6.380579 1.7438166 12
4.2632427 4.5239177 2.173197 14.75
4.2000756 4.8614869 2.1910164 14.5
4.1277399 5.2540431 2.1551216 14.333333
4.0491548 5.6807933 2.2564969 14.25
3.9651375 6.2163095 2.2053065 13.5
3.9433045 6.4868255 2.3792725 14
3.920337 7.3258805 2.117337 13
4.1210084 5.2222476 2.454241 15
3.9926684 5.7089276 2.5712581 15
3.9765115 6.0739865 2.474582 15
3.9296072 6.3256769 2.5385652 15
4.5606112 5.2121768 0.027039684 5
4.5563202 5.2547517 0.16525038 6
4.4557576 1.1419321 0.86604077 11
4.5555463 1.367196 0.92904681 11
4.610446 1.8128039 1.002614 11
4.6021028 2.1991224 1.0039711 10.666667
4.5100598 2.4905672 1.044705 10.666667
4.3860035 4.2068458 0.89656711 9.5
4.5159826 0.49892029 1.2107693 13
4.5192647 0.92670554 1.4327637 14
4.6296139 1.3899893 1.3273194 13.25
4.6327496 1.7405256 1.3513682 13
4.612164 2.1427529 1.3323418 12.5
4.4963064 2.4904504 1.3820454 12.5
4.3601646 4.2412663 1.3459668 11.666667
4.4573135 0.59717214 1.5725613 15
4.3978839 0.91975081 1.6221013 15
4.3474917 1.3587629 1.483315 14
4.3384609 4.136054 1.8957541 14
4.5584249 4.5041595 1.6370094 12
4.303175 4.2220254 2.2077308 15
4.7663469 1.2604128 1.0735062 12
4.8440285 0.61474556 1.2931262 13
4.8164344 0.92473483 1.3467034 13
4.7521987 1.3312454 1.2922457 12.8
