# .PCD v0.7 - Point Cloud Data file format
VERSION 0.7
FIELDS x y z intensity
SIZE 4 4 4 4
TYPE F F F F
COUNT 1 1 1 1
WIDTH 154
HEIGHT 1
VIEWPOINT 0 0 0 1 0 0 0
POINTS 154
DATA ascii
-0.41306558 -0.9031021 -0.14476073 105
-0.24752739 -0.94589871 -0.16737071 195.5
-0.084071919 -0.98109502 -0.21097718 124
-0.069455974 -0.95195138 -0.21166207 127
0.089743301 -0.91333377 -0.20439418 133
-0.32710001 -0.81560004 -0.1749132 138.60001
-0.15069427 -0.82234812 -0.21265744 133
-0.036291704 -0.88156599 -0.20647679 133
-0.43094105 -0.71170324 -0.13546868 106
-0.31287369 -0.79337198 -0.15759499 148.25
-0.2616705 -0.75642765 -0.2192955 133
-0.04907354 -0.73617274 -0.20600566 141.33333
0.037968162 -0.7292335 -0.20320065 142.5
0.13000624 -0.78952837 -0.1990281 141.5
-0.39453894 -0.68899661 -0.17114331 154
-0.3610267 -0.6673314 -0.20115763 152
-0.15814708 -0.63553971 -0.21104592 142.33333
-0.014548696 -0.61462873 -0.20255569 149
0.068865128 -0.66279775 -0.1969905 146.5
0.17211691 -0.6620543 -0.19553775 155.66667
-0.43879929 -0.56501991 -0.19615686 155.8
-0.34573761 -0.50437737 -0.20946926 142
-0.23817171 -0.56139809 -0.2105405 143.25
-0.11671559 -0.54874706 -0.20502774 145.5
-0.044948824 -0.5017556 -0.19740708 148
0.047087725 -0.51926196 -0.19505753 158.25
0.15768647 -0.56011093 -0.19178194 167.33333
0.22165781 -0.50904524 -0.18801536 176
-0.31246454 -0.48212439 -0.21134491 147
-0.22850406 -0.42343473 -0.20317017 149.66667
-0.13736498 -0.47075844 -0.20413943 146.5
-0.043941077 -0.4475283 -0.19444107 152.42857
0.068429694 -0.43263265 -0.19398825 170.71428
0.1609983 -0.47289103 -0.19126652 180.2
0.23190868 -0.48014945 -0.18938506 181
-0.59672976 -0.35941419 -0.20831977 157
-0.54019088 -0.34057224 -0.22754732 134.66667
-0.44907683 -0.3066572 -0.21974988 145.5
-0.13042164 -0.35416952 -0.19003192 150.28572
-0.038707316 -0.3464745 -0.18995909 159.85715
0.053639766 -0.39058977 -0.20078175 178
0.28785795 -0.3156544 -0.18894404 160
-0.65201283 -0.24215741 -0.22734536 135.25
-0.51173604 -0.20903905 -0.21925806 143
-0.44793677 -0.24818119 -0.22173375 148.75
-0.33246645 -0.26344588 -0.21199362 150.39999
-0.22739561 -0.22380513 -0.19729538 151.16667
-0.17629732 -0.20449246 -0.18976627 151.5
-0.020033287 -0.26438424 -0.18320778 161.8
0.023291776 -0.241532 -0.14850029 151
0.15228021 -0.20406626 -0.16080208 155
0.26928437 -0.25321454 -0.18851852 145
0.85215664 -0.21455957 -0.12924741 188
0.95508575 -0.25875548 -0.14332364 191
-0.71060598 -0.11539465 -0.23092648 131
-0.63764083 -0.10748836 -0.22641334 133.66667
-0.43427327 -0.19112457 -0.22295654 149
-0.35836989 -0.17286974 -0.21162131 152.39999
-0.24147187 -0.14476195 -0.19435923 151.85715
-0.14119665 -0.15584041 -0.19371866 154.6875
0.062293101 -0.15657219 -0.11650636 137.5
0.16695474 -0.14597149 -0.10366381 137.30769
0.24244359 -0.1285633 -0.13063782 125.33334
0.65709734 -0.1158221 -0.15161765 175.13333
0.75721204 -0.14317961 -0.14170383 181.75999
0.86595935 -0.13503124 -0.12688971 188.375
0.94618332 -0.1391796 -0.1332541 190
-0.52769989 -0.095565602 -0.21864061 145.5
-0.43132102 -0.08511354 -0.2136039 153.25
-0.35073185 -0.076366305 -0.20861925 155.75
-0.24087639 -0.064399146 -0.19021931 153.28572
-0.16247877 -0.055918127 -0.1938989 155.25
-0.065078184 -0.045419984 -0.20185165 174
0.18325929 -0.044901542 -0.18842611 149
0.23037326 -0.081773266 -0.18815479 154
0.39906734 -0.0014682184 -0.17532328 155.2
0.4761022 -0.02421901 -0.17394993 163.89999
0.52522105 -0.032297544 -0.17268689 160
0.65983748 -0.047433261 -0.15360662 173.79411
0.76385653 -0.043126047 -0.14319125 180.56
0.85854411 -0.053229779 -0.12937862 187
0.96233445 -0.03234487 -0.13442801 190
-0.70357364 0.021525396 -0.2277257 125
-0.6354835 0.020466428 -0.22491176 132
-0.5244323 0.018595774 -0.21644299 142.25
-0.43165925 0.017173992 -0.21283816 152.5
-0.34813198 0.015762689 -0.20609748 158.75
-0.24007213 0.050678018 -0.19113268 154.06667
-0.15927628 0.047160909 -0.19118918 154.78572
-0.055988099 0.068180919 -0.20110516 173.5
0.1786676 0.052259427 -0.18773438 148.93333
0.21683572 0.076376267 -0.18564297 155
0.40247798 0.01003168 -0.17817107 156
0.46261948 0.04206942 -0.17462331 162.77777
0.51223433 0.033068907 -0.17406911 162.5
0.66343576 0.055607639 -0.15288158 173.58974
0.76904446 0.049163129 -0.14295289 181
0.86308205 0.067197479 -0.1296429 186.66667
0.9412787 0.050809242 -0.13026692 189.60001
-0.69742066 0.15822607 -0.22507833 124
-0.63147372 0.1490051 -0.22314791 131.33333
-0.52731293 0.134261 -0.21782804 144.5
-0.44421855 0.12261139 -0.21488355 150.66667
-0.34790289 0.1239043 -0.20590971 156
-0.24303576 0.17521934 -0.19187263 154.16667
-0.1514964 0.15042169 -0.1875535 155.44444
-0.032245748 0.15925975 -0.19805539 174.33333
0.47603184 0.11260731 -0.1750589 158.33333
0.59972614 0.18273859 -0.16392274 174.5
0.64806283 0.15485717 -0.15243874 175.88235
0.75878787 0.14703038 -0.13987935 181.58333
0.85124326 0.15960015 -0.12694614 187.14285
0.96889144 0.15597767 -0.13589548 190.8
-0.65694427 0.28869227 -0.22169045 122.66666
-0.57068056 0.26583865 -0.22178245 136.66667
-0.45832393 0.23505144 -0.21383162 148.8
-0.34581718 0.23740058 -0.20804207 154.83333
-0.23679557 0.2603856 -0.19055565 154.2
-0.1387047 0.22019401 -0.1859685 155.36363
0.50240147 0.29234302 -0.16222462 174.8
0.56800288 0.25334787 -0.15523586 175.17241
0.664644 0.25754139 -0.15176018 179.54546
0.74053466 0.24305725 -0.13507012 183.47058
0.84989274 0.2491394 -0.12904584 189
0.94901794 0.2608524 -0.13903902 191.5
-0.52971405 0.38281074 -0.21777706 135
-0.43307173 0.34279698 -0.21096094 148.25
-0.34857401 0.30735347 -0.2023866 157.66667
0.56002301 0.35905319 -0.15549964 179.19048
0.65172166 0.33796284 -0.14297731 182.05882
0.7608574 0.35448402 -0.13402127 187.72728
0.85748714 0.36210027 -0.13507816 191.5
0.93523067 0.34187734 -0.14419585 193
-0.69372708 0.44971752 -0.22359414 115
-0.62410742 0.42041838 -0.21605031 122
-0.58023089 0.40286267 -0.21643817 127
0.55455691 0.43687731 -0.14763248 183.60001
0.65358979 0.4498165 -0.14187704 187.39999
0.7367205 0.44867238 -0.13350165 190.85715
0.85490376 0.47362244 -0.13933958 192
0.90864563 0.4267619 -0.13526608 193
0.5915373 0.53158176 -0.14642391 189.39999
0.66191638 0.54795009 -0.14353171 191.25
0.76324368 0.56495625 -0.14531033 192.33333
0.80799025 0.57991344 -0.1343758 190
0.63971174 0.64899313 -0.15207347 187.39999
0.73102057 0.63065475 -0.14234869 188.66667
0.67209542 0.73007149 -0.15311465 182.5
-0.24229781 -0.9101721 -0.10682358 143
-0.24491686 -0.90053976 -0.077500366 134.5
0.091963537 -0.13775469 -0.053909499 124.11111
0.13859378 -0.1457687 -0.075237773 131.1875
-0.03613019 -0.25029892 0.012393793 151
0.061091524 -0.13659622 0.029839931 123.33334
