# .PCD v0.7 - Point Cloud Data file format
VERSION 0.7
FIELDS x y z intensity
SIZE 4 4 4 4
TYPE F F F F
COUNT 1 1 1 1
WIDTH 123
HEIGHT 1
VIEWPOINT 0 0 0 1 0 0 0
POINTS 123
DATA ascii
-2.2879949 3.361613 0.45376423 10
-2.3395302 3.8541551 0.4189449 9
-2.2232485 2.8050094 0.60030884 11
-2.2581725 3.0994284 0.66967767 12
-2.2718649 3.8730814 0.77646869 12
-2.2873514 3.8694155 1.0253173 13
-2.3135707 3.8539655 1.1893139 14
-2.281425 3.8555505 1.4235831 15
-2.1219335 1.831318 0.41439253 11
-2.1933079 2.5243635 0.40274289 10
-2.2185056 2.6960385 0.34891126 9
-2.0483229 1.316586 0.62233102 14
-2.0992546 1.6673499 0.58513552 13
-2.1640656 2.2255125 0.57282782 12
-2.1484556 3.9005322 0.48972353 10
-2.0816047 1.7080107 0.68144864 14
-2.1524017 2.2838058 0.81557685 13.5
-2.1977401 2.7915127 0.75224674 13
-2.1430888 3.8978465 0.73215687 11
-2.1253176 2.0058241 0.85323423 15
-2.1545274 2.5671239 1.005765 15
-2.2069938 2.7768207 0.96028399 14
-1.8164018 -0.43507341 0.34449142 12
-1.7927893 -0.62786001 0.56507528 15
-1.8218544 -0.4436838 0.52396184 14
-1.9885114 0.86306465 0.5539276 14
-1.7582128 -0.95652574 0.23449197 10
-1.5484341 -0.86247009 0.27140421 11
-1.5240393 -0.63649839 0.36353013 13
-1.5413938 -0.6018911 0.27514622 11
-1.5680077 -0.34441432 0.29340476 12
-1.489872 3.9702806 1.1803077 15
-1.1155202 -0.65471655 0.29593712 13
-1.204475 4.0053563 0.39484459 9
-0.8472895 -0.63335574 0.29883179 14.5
-0.74550456 -0.87821025 0.2939727 13.5
-0.7324723 -0.725869 0.2852374 14
-0.39097553 -2.3730071 0.20114237 9
-0.44733274 -2.3946543 0.35601106 11
-0.44932973 -1.8144829 0.30059865 12
-0.49793684 -1.5098499 0.25362986 11
-0.49834728 -1.3478804 0.32097742 13
-0.56187195 -0.89100105 0.28305042 14
-0.47645104 -2.4047198 0.66385317 15
-0.36261117 -2.3477571 0.27615511 10
-0.29073089 -2.330323 0.59711355 14
-0.39620095 4.0994406 0.4912985 10
0.17874385 -0.99007702 -0.2020683 2
0.21532597 -2.3008175 0.51732761 13
0.24175406 -0.68333405 -0.20856266 0
0.61040127 -2.4134173 0.68264782 15
0.7668736 0.33035675 -0.22048603 0
0.70518893 0.60088992 -0.22004618 1
0.67299843 0.75295287 -0.21944132 1
0.67409414 0.76023299 -0.21229152 2
0.80040348 -2.2388856 0.090972364 8
1.1365654 -2.1981287 0.16067922 9
1.0457802 4.2589831 0.5320825 10.5
1.117492 4.2564974 0.67572784 12
1.090879 -2.8059676 0.85277194 15
1.1090711 4.2630897 0.84202492 13
1.0992527 4.2517719 1.0716559 14
1.1102844 4.2618504 1.2600987 15
1.2557373 -0.11562238 -0.23467945 2
1.275087 -2.2598603 0.69506401 15
1.3786949 4.8144803 0.38665876 9
1.5141062 -2.1779923 0.64512902 14
1.6808956 -2.1079371 0.26133084 10.5
1.6552812 -2.1777682 0.51485777 13
1.7115866 -2.1023488 0.65889484 14.5
1.9549297 -2.0861845 0.088772908 8
2.2047796 -2.0546474 0.18607488 9.5
2.2205882 -2.0578432 0.46330729 12
2.2365592 -2.0596428 0.71836758 14
2.1712842 -2.0674925 0.79351062 15
2.7894046 7.4089146 1.0947248 11
2.9285641 7.4377136 1.5243543 13
3.2124579 -2.3742046 -0.057860717 7
3.040498 7.4517345 0.7091198 10
3.1952441 7.4581594 1.8350689 14
3.4984202 -2.5684838 0.60588574 12
3.5779166 -2.5158548 0.92798114 14
3.6675878 -2.5151091 1.2303394 15
3.9330606 -2.5154915 0.020700833 8
4.0262532 -2.4908435 0.26847616 9
3.7716999 6.8637743 1.3048179 12
4.3993964 -2.3262846 0.12984587 8
4.4469023 -2.3373961 -0.21732087 6
4.4916363 -2.346602 0.85586524 12
4.5214796 -2.3557396 1.0707253 14
4.4659371 -2.3452029 0.91610312 13
4.6573992 4.6640568 0.61071587 10
4.6353388 5.3100266 1.2693777 13
5.4113846 -2.2948282 0.81346893 12
5.5795798 0.77868664 -0.13887291 7
5.4977899 -2.2812359 1.0197268 13
6.1487823 1.4817513 -0.12802601 7
6.1309633 1.6263831 0.18451409 8
6.1321068 1.6811668 0.40188092 9
6.0939116 2.0449309 0.58670771 10
6.1214805 1.7940574 0.75166047 11
6.1827726 1.439474 0.89396584 12
6.1408796 1.9583143 1.0385357 12
6.1219087 1.9251472 1.1588565 13
6.1481333 1.8042672 1.3318048 14
6.1586046 1.8586353 1.7000784 15
6.1869192 4.3323364 0.20942613 8
6.2898006 1.2076378 0.54338646 10
6.3971338 0.14462677 0.90163922 12
6.3810887 0.44028318 1.3295103 14
6.3475513 0.9623329 1.3100013 13
6.3319306 1.2467017 1.4784627 14
6.3015065 1.2732215 1.7918541 15
6.6156163 -1.4004622 1.1000892 12
6.5638514 -1.2125516 1.165792 13
6.6118755 -1.5300585 1.4067092 14
6.5075994 -0.55201179 1.3694904 14
6.4882994 -0.24776034 1.335897 13
6.5850625 -0.95150751 1.6318597 15
6.4476647 0.045757465 1.5998027 15
7.5589762 5.71175 2.2430747 14
7.5467958 4.6880579 2.2824364 15
7.5124221 5.5225158 2.5725739 15
