# .PCD v0.7 - Point Cloud Data file format
VERSION 0.7
FIELDS x y z intensity
SIZE 4 4 4 4
TYPE F F F F
COUNT 1 1 1 1
WIDTH 604
HEIGHT 1
VIEWPOINT 0 0 0 1 0 0 0
POINTS 604
DATA ascii
-2.0247755 0.98369133 0.36054465 11
-2.0697672 1.3504522 0.3690716 10.8
-2.1107044 1.7330589 0.31945562 10
-2.1604507 2.1891565 0.31724465 9.5
-2.2032723 2.5778053 0.34766698 9.5
-2.2432189 2.9557984 0.38655579 9.5
-2.2891915 3.3635812 0.36635232 9
-2.2639771 3.767566 0.36677188 9
-2.0214462 0.99767554 0.59440362 13.888889
-2.0667629 1.3862938 0.60344499 13.363636
-2.107065 1.7655164 0.63347721 13
-2.1428127 2.1422966 0.62317038 12.375
-2.1933548 2.5912185 0.64693421 12
-2.2364464 2.9892492 0.66551852 11.857142
-2.2881286 3.3786776 0.63854289 11.166667
-2.2568874 3.7921648 0.65434241 10.857142
-2.1552894 2.2362418 0.88637668 14.666667
-2.1739674 2.5784073 0.96364468 14.5
-2.211421 2.9710286 1.0167843 14.2
-2.253376 3.3676505 1.0716733 14
-2.2113442 3.8073738 1.1067599 13.6
-2.2003646 3.8286445 1.2896969 15
-1.7560538 -0.86819178 0.32815582 11.25
-1.7456685 -0.62444282 0.32534641 11.384615
-1.6066986 -0.36588445 0.3420572 12
-1.9985179 0.75965154 0.36252004 11.5
-2.0021822 0.83295596 0.30311024 10.5
-1.8877513 3.9313416 0.38292879 9.333333
-1.7544558 -0.94272619 0.56932378 14.25
-1.7754658 -0.62443554 0.51266092 14.111111
-1.9839705 0.74354166 0.46954387 13
-1.993109 0.83560276 0.55770451 14
-1.8342496 3.9342768 0.63919234 11
-1.8407036 3.9297428 1.0662907 13.5
-1.8257419 3.9418051 1.3008269 15
-1.5748633 -0.85628664 0.30100596 11
-1.4678448 -0.64496011 0.32162806 12.2
-1.5611176 3.9651718 0.37204933 9
-1.3576221 3.9956088 0.38513997 9
-1.5476887 -0.63313794 0.48384461 14.5
-1.5118102 3.9708741 0.62317944 11
-1.348523 3.990593 0.62358737 11
-1.4884759 3.9670055 1.0677764 13.666667
-1.3502636 3.9890599 1.0587859 13.75
-1.5762521 3.9669602 1.2988336 15
-1.4683783 3.9810007 1.2990431 15
-1.0190492 -0.66366881 0.31361592 13.714286
-0.87506878 -2.4533932 0.72918212 14.5
-1.1781205 -0.66141236 0.43263853 15
-1.0182555 4.0260396 0.61824512 11
-1.0226066 4.0279355 1.0502158 14
-0.43520948 -1.4489851 -0.18706933 3.5
-0.45015198 -1.0478743 -0.1806545 2.3333333
-0.4985064 -0.58817613 -0.17795628 0.25
-0.60955912 -0.39422455 -0.16903879 0
-0.44350561 -2.2509973 0.30923134 10.8
-0.47233585 -1.7928494 0.27520779 11.125
-0.51090503 -1.3735896 0.27836794 12.2
-0.58116817 -1.0052346 0.28719276 13.545455
-0.75191277 -0.71937138 0.29455712 14.5
-0.63577098 -2.4242601 0.66732162 14.5
-0.43946508 -2.3373938 0.55299908 13.6
-0.46885434 -1.7896582 0.42657024 13.5
-0.5066908 -1.4449704 0.41301078 14.5
-0.65369588 4.0694356 0.64426214 11.285714
-0.41445848 -2.9798944 0.85722131 15
-0.60982049 4.0756383 1.040045 14
-0.12641658 -2.1656404 -0.20388421 4.25
-0.16962613 -1.8140272 -0.19629808 4
-0.18168496 -1.4088334 -0.18885988 3.2
-0.17342697 -0.99963045 -0.18838257 1.7777778
-0.22011393 -0.65403324 -0.18410799 0.2
-0.15706807 -2.3286071 0.22091851 9.5
-0.1689316 -2.5234458 0.7337181 15
-0.13107419 -2.3295135 0.53347749 13.333333
-0.2251773 4.1222649 0.67327803 11.4
-0.11538887 -2.8998725 0.84562832 15
-0.22646718 4.1198359 1.0389884 14
0.032062795 -1.7206099 -0.20033455 4
0.087120578 -1.4369097 -0.1931076 3.3333333
0.13810311 -0.91653925 -0.19680007 1.2
0.18507446 -0.63759875 -0.19756939 0
0.25296149 -2.2988496 0.21798716 9.7777777
0.22510415 -2.573169 0.74883509 15
0.26320836 -2.2991729 0.5200789 13.285714
0.17237723 4.1678333 0.69831812 11.5
0.3477954 -2.8438296 0.82798654 15
0.25871116 -2.7479064 0.79680079 15
0.18938367 4.1727076 1.0311481 14
0.16191681 4.1638126 1.2160786 15
0.74878997 -0.054688599 -0.19782779 0.5
0.69369674 0.22818145 -0.20654774 0.2857143
0.64644396 0.59609503 -0.21145073 0.60000002
0.75414622 0.95914131 -0.22427598 2
0.62678856 -2.256005 0.18800616 9.5
0.63003772 -2.4612584 0.72224665 15
0.62579304 -2.2562511 0.48771682 13
0.53672826 4.2128925 0.65852237 11.428572
0.82479399 -2.8299434 0.83992988 15
0.49258766 -2.776808 0.81798863 15
0.54318202 4.212069 1.0056325 13.909091
0.50262159 4.2061672 1.2317046 15
1.0011014 -0.12296463 -0.22213955 1.25
0.99633557 0.24460691 -0.22003868 1.5
0.97758633 0.60015821 -0.22297226 2
0.95288789 0.96597117 -0.2220545 2.75
1.0098277 1.4062828 -0.22730735 3.5999999
1.1236733 1.9029737 -0.23751041 4
1.0370909 -2.2160261 0.2238096 10
1.2034988 -2.7904065 0.75126505 14
1.0581366 -2.2179232 0.54167634 13.5
0.96840084 4.2564607 0.58709794 11
1.0398632 -2.8097188 0.8451069 15
1.2088615 -2.6528835 0.82932103 15
0.92531419 4.2526851 1.0304271 13.8
0.92495131 4.2469516 1.2510177 15
1.3927593 -0.18192998 -0.22878809 2.8571429
1.340127 0.21885243 -0.23171501 2.6666667
1.3974764 0.62706095 -0.22656989 3.3333333
1.3508192 0.93471527 -0.23133408 3.5
1.3733629 1.3855954 -0.23836252 4
1.3548173 1.7932204 -0.24301097 4
1.2141662 2.1326034 -0.24312687 4
1.4282415 2.6759224 -0.25625867 5
1.4171391 -2.175458 0.23157634 9.8999996
1.4233013 -2.1814537 0.56457597 13.538462
1.2597613 4.8271203 0.39806104 9
1.9858706 -0.41774678 -0.22748415 4
1.9663007 -0.11798082 -0.2302338 4
1.7123924 0.30430728 -0.23191619 4
1.8122561 0.61367977 -0.23003991 4
1.7515563 0.98220354 -0.24738073 4
1.8260139 1.4475423 -0.26521748 4
1.7926495 1.8032249 -0.25698096 4.6666665
1.7335235 2.2557638 -0.25975922 5
1.839936 2.678762 -0.2704311 5
1.6065017 3.1289349 -0.26623642 5
1.9329895 3.9628105 -0.27776548 5
1.8068846 -2.1004229 0.19656464 9.4444447
1.8276333 -2.1005795 0.58105952 13.5
1.9718026 -2.0858738 0.76467919 15
2.0538204 -0.019993013 -0.23511201 4
2.1330895 0.28981018 -0.24330296 4
2.1591401 0.63544858 -0.24246585 4.5
2.0614836 0.97368622 -0.25118273 4
2.1633725 1.504689 -0.2949746 4
2.2993524 2.0733278 -0.27425775 5
2.2872522 2.6566026 -0.2774902 5
2.1672122 3.2814407 -0.27699202 5
2.0968761 -2.0745518 0.20244046 9.5
2.3347354 -1.330784 0.33929425 11
2.4169834 -1.0132661 0.33619857 11
2.1178033 -2.0727937 0.5111171 12.5
2.3210251 -1.2562597 0.3467882 11
2.145607 7.3454432 0.69297963 9.666667
2.0890782 -2.0748 0.78143561 15
2.1787183 7.3425741 0.96420246 10.8
2.1355531 7.3419909 1.3933254 12.5
2.1649921 7.3365536 1.7678906 13.5
2.0633209 7.2059278 2.2205501 15
2.2576389 7.2203898 2.2399487 15
2.4802425 0.22320682 -0.25345451 5
2.530648 0.48829356 -0.25619352 5
2.6921017 1.1463645 -0.28758451 5
2.4068587 1.331329 -0.27710938 5
2.4019241 1.705651 -0.30533332 5
2.5164173 2.3068881 -0.28342378 5
2.546988 3.0166032 -0.29044786 5
2.4330959 3.7679563 -0.28935969 5
2.8225517 -2.3413305 0.014798136 8
2.5100164 -1.2220279 0.27098849 10
2.5689602 -0.8463546 0.13186547 9
2.7089677 -0.63344193 0.14163226 9
2.777003 -0.56260425 0.34401238 11
2.5172799 7.3898053 0.6055364 9.5
2.5938137 7.3950639 0.97237915 10.75
2.5221272 7.3875937 1.3654425 12.2
2.5205696 7.3804307 1.7158298 13.5
2.5471652 7.3723645 2.0829148 14.333333
3.0457575 -0.69207865 -0.28769153 5
3.1730838 0.9920947 -0.30755988 5
2.8786538 1.6392565 -0.29999876 5
2.893738 2.1186519 -0.33339819 5
3.1580133 2.9965496 -0.31321946 5
2.8751733 3.4718823 -0.30559421 5
2.8200712 4.4744129 -0.31105044 6
3.0291953 -2.6310232 0.11761905 8.3999996
2.99529 -0.83534551 0.14098877 9
3.1205783 -0.600725 0.14379677 9
3.0920544 -2.6426294 0.49501848 11
3.0793817 -0.51401019 0.36004627 11
2.8697171 7.4245677 0.56313378 9.333333
3.0348675 -2.6444798 0.88025999 13.833333
3.0166774 7.4383526 0.96805209 10.333333
3.1442139 -2.6020169 1.1290972 15
2.9492643 7.4326077 1.3713902 12
2.9880171 7.4328671 1.6930239 13.333333
2.9783332 7.4226217 2.0050914 14
3.1311867 7.4409428 2.3696136 15
3.5021749 2.047693 -0.32005474 5
3.301687 4.0640821 -0.32372099 6
3.4556108 -2.5552695 0.18472017 8.875
3.2848084 -2.284296 -0.0027836319 7.5
3.3662887 -1.3175288 -0.052131966 7
3.4371943 -0.8171615 0.29916266 10
3.3771434 -0.55004483 0.12135237 8.5
3.4586117 -2.5854464 0.53228897 11.125
3.3364508 -0.43964958 0.376288 11
3.3496184 7.4819636 0.55206954 9.333333
3.4079528 -2.5900152 0.8661322 13.5
3.3346491 7.4792976 1.029474 10.666667
3.444921 -2.566685 1.1871246 15
3.3161643 7.4741979 1.3685865 12
3.4325211 7.4873152 1.6325384 13
3.4060438 7.4721451 2.0349305 14
3.8403811 -0.88731718 -0.098898716 7
3.869143 -0.44241199 -0.10116013 7
3.8145907 1.4494535 -0.33608109 5
3.6448274 2.7500618 -0.37268835 5
3.6252971 3.4992294 -0.33337083 6
3.8548002 -2.4917753 0.11344474 8.1999998
3.8482609 -0.52071393 0.18866961 9.166667
3.685189 7.5231228 0.29210714 8
3.8517873 -2.5105252 0.5158028 11
3.7295527 6.8341923 0.57852674 9.5
3.6700947 7.5263782 0.56246078 9
3.8359399 -2.4986892 0.84362108 13.2
3.6574504 6.8248911 0.81994575 10
3.7480526 7.5273409 0.99173099 10.5
3.9145789 -2.4927871 1.283739 15
3.8727708 6.7724905 1.3944976 12.5
3.7826054 7.5398278 1.3714516 12
3.8868456 6.7708254 1.7149606 13
3.7635443 7.5242028 1.7848679 13.333333
3.7407141 7.5110197 2.0585835 14
4.2225494 -2.448457 -0.18695055 7
4.3062668 -1.0203894 -0.33893538 5
4.1719685 -0.51523215 -0.33179259 5
4.0997386 0.83945906 -0.34811643 5
4.096127 1.8391033 -0.34386712 5
3.990777 2.3671017 -0.34018227 5
4.2576079 3.2644837 -0.40841505 5
4.3087835 4.23387 -0.36528444 6
4.2212591 -2.4502981 0.071616739 8
4.306808 -1.209831 0.15174665 8.5
4.0826612 -0.8343448 0.25671217 9
4.1330967 -0.45919108 0.081064217 8.333333
4.1069503 -0.33930495 0.30508184 10
4.1490726 7.4338002 0.23853843 8
4.1779828 -2.4673591 0.57560939 11.2
4.4123812 -2.3358006 0.30574885 9
4.1057062 -1.0392903 0.38398314 10
4.100358 7.5126104 0.50800836 9
4.2443728 -2.4404798 0.90209395 13.2
4.2351623 7.4732146 1.0217177 10.666667
4.2405801 -2.4375737 1.3539547 15
4.0845008 6.7042408 1.377087 12.25
3.9775803 7.53935 1.2915684 12
4.0525579 6.6949778 1.7047471 13
4.0617881 7.4715657 1.8547 13
4.0198178 6.8514733 1.9364564 14
4.0513663 7.481864 2.0683653 14
4.1228027 7.3737712 2.4388635 15
4.4437046 -2.3425949 -0.18362004 7
4.6900344 -1.2023826 -0.20301996 6
4.605516 -0.38442636 -0.1092629 7
4.6021624 -0.029541338 -0.24577767 6
4.698278 2.1365333 -0.36476618 6
4.6195111 2.7784705 -0.36364818 6
4.3448448 7.2743354 -0.35959405 6
4.6519384 -2.3761797 0.078970298 8
4.8054252 -1.2377274 0.0670738 8
4.6773982 -0.15511882 -0.039339881 7.5
4.6914148 -2.3685117 0.52832067 10.333333
4.4695334 -0.3434636 0.32428652 10
4.6326804 4.7399983 0.57328993 10
4.6300316 4.9077277 0.61015689 10
4.5837274 5.4368639 0.49154022 9
4.6174798 5.7093592 0.6699785 10
4.3586998 7.3086944 0.39651826 9
4.7168517 -2.3793576 0.89811361 12.666667
4.5568571 5.3617544 1.048815 12
4.5445361 5.7384639 1.0980676 12
4.4336286 6.3580627 0.84195071 10.5
4.444726 6.6727557 0.87696123 10.5
4.3940144 7.0368905 0.94773662 10.5
4.6907735 -2.3890405 1.35946 14.666667
4.6197357 5.4427328 1.3808421 12.5
4.5083199 6.2822962 1.1956975 12
4.4424114 6.5139108 1.2328538 12
4.6278033 5.0518527 1.8580524 15
4.6048937 5.6589766 1.5257684 13
4.4487872 6.3159904 1.6446989 13
4.5020261 7.3794079 2.4921446 15
4.9678149 -2.3491223 -0.28036609 6
4.9832697 -2.3386657 -0.20889013 7
4.9116373 -1.1886841 -0.25667644 6
4.9721279 -0.29494318 -0.13000779 7
4.9617972 3.8760393 -0.34451291 6
5.1393251 -2.3516386 0.14817116 8.5
5.0209312 -2.3390012 0.025013076 7.5
4.9290843 -1.2529211 0.22355591 9
4.9825048 -0.42542535 0.13585816 8
5.03438 3.9921582 -0.064735308 7
5.0164976 -2.3422208 0.66268557 11
4.8628936 7.6565471 0.53743696 9
5.0489097 -2.3610401 0.85277557 12.333333
5.1611218 -2.3353367 1.0335494 13
4.8514271 4.9282036 0.79494894 11
4.8376451 7.6708493 0.85222363 10
5.1112885 -2.3605556 1.3238837 14
4.978622 -2.3572912 1.5244304 15
5.2428679 -2.336612 1.5883093 15
4.9183936 7.4154644 2.5221012 15
5.3230648 -2.3142242 -0.27061996 6.3333335
5.4108405 0.52828729 -0.41329345 5
5.3624053 -2.3014174 0.14119488 8.25
5.2832093 -0.71312201 0.33339989 9
5.3920202 7.731616 0.59828246 9
5.4241524 -2.3033049 0.80960488 11.5
5.4243827 -2.3008621 1.2304237 13.75
5.4897962 -2.2974122 1.6478225 15
5.1994276 7.4796438 2.5083055 15
5.93716 0.019479107 -0.24791549 6
5.6632824 0.55480283 -0.26830763 6
5.6053386 0.74509013 -0.077101283 7
5.8220572 4.5950117 0.087600239 7.5
5.6971626 5.7971864 0.11881148 7.5
5.7626295 6.1990981 0.23888887 8
5.6459513 5.8378401 0.38152096 9
5.6135287 6.091413 0.40648937 9
5.5942564 7.7504735 0.54799199 9
5.6279206 7.737247 0.82071364 10
5.7120423 7.7436161 1.6237861 12
6.2985802 1.3291066 -0.54855824 5
6.0376248 -0.94433171 -0.28544837 6
6.3010468 -0.46690875 -0.28920332 6.5
6.3199811 -0.14270428 -0.30208403 6
6.2254477 0.23265989 -0.21663441 7
6.3063006 0.62150282 -0.16571875 7
6.2550797 1.022351 -0.17808735 7
6.2592535 1.4233882 -0.26088101 6.3333335
6.1705589 1.8307284 -0.31681162 6
6.02527 3.5676329 -0.17837763 7
6.1949258 3.909415 -0.15130396 7
6.1231709 -1.2684957 0.23646846 9
6.1870604 -0.84427768 0.012634496 7.5
6.3373251 -0.45395392 0.13886915 8
6.3925805 -0.05161177 0.099697202 8.1999998
6.3562374 0.27038482 0.12719682 8.5
6.3135414 0.66847044 0.10110177 8.333333
6.2641206 1.048237 0.04947342 7.8333335
6.1740856 1.4470426 0.016967874 7.4000001
6.0973244 1.8445278 0.051014785 8
6.0093436 4.3984303 0.17537795 8
6.0196409 4.897469 0.27193752 8
6.3812838 -0.47868472 0.35046804 9
6.4034061 -0.012444608 0.44421834 9.5
6.3713112 0.28877652 0.46850255 9.6000004
6.3236232 0.64942265 0.40211323 9.6000004
6.2786551 1.0389251 0.48958832 10
6.1971183 1.434355 0.44773269 9.6000004
6.1044927 1.9076148 0.48705453 9.833333
6.1128263 4.9915938 0.44261208 9
6.2781472 7.8734169 0.50780743 9
6.4127994 0.017264321 0.79587114 11.5
6.381989 0.31405056 0.81101185 11.333333
6.3485465 0.67580187 0.89511377 11.5
6.3006101 1.0712714 0.91098076 11.5
6.2108226 1.4546032 0.83571059 11.5
6.1183729 1.8708323 0.87088627 11.5
6.4302649 0.024722125 1.4343464 14
6.4066968 0.24547756 1.2647047 13.25
6.3640051 0.6643604 1.2915238 13.5
6.3126512 1.0781108 1.3310568 13.5
6.2340517 1.4266567 1.3706648 13.5
6.1334429 1.8721941 1.2457869 13.5
6.2875957 -2.3549392 1.5514731 14
6.4129925 0.29200208 1.579239 14.666667
6.3900838 0.62327081 1.6434629 14.666667
6.3322806 1.0697472 1.6276352 15
6.224556 1.4880388 1.5834678 14.666667
6.1695352 1.8181919 1.6252946 14.6
6.1242542 7.5640135 2.5776484 15
6.1905227 7.5563807 2.766644 15
6.7457089 -2.7558212 -0.1625669 7
6.4572811 -0.80882657 -0.34862781 6
6.4503632 -0.65295851 -0.33025655 6
6.4123158 -0.26775169 -0.28640753 6.5
6.4783249 4.0470033 -0.20044918 7
6.6198001 4.3601394 -0.19640331 7
6.5808368 4.5601625 -0.17889151 7
6.642385 -2.4520736 -0.014603773 7.5
6.6755667 -2.1700284 0.18845747 8
6.4235158 -0.29097587 0.073794626 8.5
6.6219215 4.2993784 0.16316293 8
6.6870861 7.8809485 0.0032869605 7
6.7476664 -2.7311237 0.25767979 9
6.7499657 -2.5538149 0.27444711 9
6.5453844 -2.305867 0.29167256 9
6.5573516 -1.3046952 0.54886967 10
6.5265503 -0.99898982 0.58425862 10
6.4503264 -0.39324433 0.48771521 10
6.4238939 -0.19215633 0.45400009 9.666667
6.703722 4.2030773 0.3063437 9
6.3609991 7.8384228 0.29947701 8
6.7648721 -2.5932155 0.95356596 11
6.6599483 -2.1536245 0.8907941 11.5
6.6156845 -1.6976689 0.82720613 11.2
6.5725527 -1.3244171 0.91092134 11.666667
6.5311637 -0.92940336 0.94446754 11.666667
6.499372 -0.57046658 0.83133537 11.4
6.4412913 -0.14600293 0.76146793 11.333333
6.7155418 -2.5005355 1.220227 12.6
6.6863637 -2.1184912 1.2699283 13
6.6378803 -1.7587703 1.2305548 12.6
6.5903096 -1.317775 1.3213149 13.4
6.5416937 -0.95842439 1.2332535 13
6.5065241 -0.54328853 1.2457443 13
6.4616184 -0.17981191 1.2504653 13.2
6.407589 7.8379569 1.0980514 10
6.8637786 -2.7387583 1.6660058 14
6.658607 -2.2522449 1.6239679 14
6.6291051 -1.7847244 1.6626008 14.333333
6.6180997 -1.2851768 1.4559034 14
6.5695453 -0.93051714 1.5515381 14.5
6.5266814 -0.53751916 1.6002822 14.666667
6.4730844 -0.1217494 1.5750272 14.5
6.4530673 0.20944676 1.5231041 14
6.7899141 -2.5729077 1.9658464 15
6.6950464 -2.1898196 1.9492881 15
6.4507184 7.8236766 2.2774808 14
6.5523019 7.5797563 2.8320951 15
6.9718046 4.3287334 -0.37465727 6
6.8423719 -2.6375666 0.11077762 8
6.9447484 4.0649991 0.18540314 8
6.8919759 3.9096804 0.38669783 9
6.8412309 4.191855 0.48062792 9.5
6.9767895 7.485765 0.54307681 8.666667
6.7354708 7.8676615 0.285734 8
6.8118787 7.590714 1.0651436 10
6.8196673 7.8335757 0.82076949 10
6.8969607 7.5135975 1.3449076 11
6.7521954 7.8813176 1.0983402 10
6.927134 7.4647689 1.6445651 12
6.9788404 7.4649482 1.9487514 13
6.7949672 7.8721657 2.3096535 14
7.3372078 5.6196399 -0.20105635 7
7.3162675 7.5961709 1.3513031 11
7.3357496 7.542769 1.6627409 12
7.3876719 7.5484266 1.9796922 13
7.5843778 3.6651812 2.3106527 15
7.5895309 4.5518289 2.5155921 15
7.5343375 5.0470738 2.4069471 15
7.490293 5.5225668 2.4155393 14.666667
7.4563403 5.8476739 2.5832386 15
7.471478 7.5616512 2.2948122 14
7.4790335 6.3369246 2.7150867 15
7.3294768 7.1406522 2.8459048 15
7.2660942 7.3506064 2.8954484 15
7.5804629 7.563623 1.748264 12
7.8806319 3.0688457 2.2286718 15
7.8031569 3.6951547 2.222543 15
7.7898707 4.3471165 2.2377255 15
7.7075872 3.4084358 2.2730863 15
7.8363881 3.9336491 2.2683012 15
7.7452984 4.2253137 2.3749301 15
7.6113148 4.8286352 2.4705966 15
7.6346431 5.2883291 2.2747641 14
8.1070833 2.8459115 2.2185528 15
8.104023 4.0405302 2.2137241 14
8.1909027 3.4268348 2.2448716 15
8.0468531 4.3876138 2.254833 14
8.5428362 6.2548556 -0.28404748 7
8.8573093 4.9670401 -0.4280237 6
9.0745649 4.3391938 -0.12392197 7
8.9439096 4.7575264 -0.10414773 7
8.7757244 4.9525547 -0.0066176746 7.5
8.9117689 7.8819256 2.4577489 13
9.2256298 4.3813958 -0.43935797 6
9.4169559 6.577642 0.5395112 9
9.4326429 8.1577711 0.84129208 9
9.4265928 8.1679163 1.6398897 11
9.3751488 5.8447294 2.1140816 13
9.3705864 6.3844018 1.9811716 12.333333
9.3883362 3.8883271 2.3563333 14
9.8553667 4.7757568 0.14078207 8
9.9395514 5.8889322 1.9888828 12.5
9.7661829 6.2273974 1.8588085 12
10.22603 4.5983572 0.29868552 8
10.273456 8.2844019 1.0926768 10
9.9727621 8.0926857 2.1907675 12
10.154996 8.2452526 1.8253462 11
10.691421 4.323483 -0.67686117 6
10.743721 4.2544756 -0.31419685 7
10.618574 3.6632116 -0.013146243 8
10.553665 4.1206169 -0.15793341 7
10.411622 4.354064 -0.12481342 7
10.689314 4.0695362 0.38790965 9
10.41733 8.3039293 0.82261616 9
10.624092 8.295928 1.7591157 11
10.721013 8.2971878 1.8456888 11
10.494191 8.126874 2.2210529 12
10.632771 4.1657491 2.7786028 14
10.775536 4.7618756 2.718739 14
10.707047 5.1164098 2.7721186 14
10.488469 5.4027686 2.7873535 14
10.530949 6.2259269 2.7910914 14
10.549565 6.6493473 2.7254441 14
10.494203 8.1011515 2.6169877 13
11.001719 4.1377988 0.029199906 8
11.006629 8.3759546 0.82070065 9
10.86081 8.3551664 1.092667 10
11.04684 6.2997513 1.5454236 11
10.786105 8.3717804 1.4340956 10
11.05214 8.3557777 2.1051705 12
11.080547 8.1800642 2.2571981 12
11.07053 4.7482615 2.7524729 14
11.174856 6.137929 2.685523 14
11.019076 8.1226225 2.6607428 13
11.312242 8.399436 0.85674334 9
11.44155 8.4484377 1.4402707 10
11.399896 8.3098288 1.9966137 11.5
11.391786 4.2573953 2.7035697 14
11.564921 5.994782 2.6980336 13
11.600182 8.422101 0.81650317 9
11.538894 8.4294977 1.5354295 11
11.709712 5.8877783 1.9023818 12
11.860374 7.0123167 2.0274148 12
11.662024 3.9815829 2.7005186 14
11.763342 5.7429037 2.671397 13
11.610926 8.167594 2.714895 13
12.169903 8.5433207 1.4510151 10
12.240049 6.3232074 2.0051086 12
12.087513 7.9032917 2.1399994 12
12.194061 8.5524673 1.9172003 11
12.382151 5.122355 2.2336812 12
12.316687 5.4183669 2.2797737 12
12.302166 5.7369432 2.3345094 12
12.174432 6.6936631 2.4927487 13
12.214322 4.6833057 2.6924472 13
12.269279 5.2699752 2.6375082 13
12.075723 5.5367985 2.6658728 13
12.525615 6.6352487 -0.76190013 6
12.401604 4.8960166 0.224905 8
12.461264 4.3784165 2.115413 12
12.434425 6.0686712 1.9752158 12
12.67077 8.4293804 2.0591562 11
12.460249 4.3173623 2.4913945 13
12.410616 4.822186 2.1859267 12
12.447598 4.6527119 2.5491619 13
12.433885 4.9902782 2.6052122 13
12.77641 4.6365638 -0.29056635 7
12.868733 8.6083727 0.71800822 9
12.798923 8.5703335 1.139258 10
12.956275 8.6349134 1.459993 10
12.838504 8.5651312 1.9348927 11
13.275132 5.6982279 0.026168322 8
13.292246 5.6094527 0.2567049 8
13.781382 8.7174759 1.0879997 9
13.822554 8.7448139 1.4733858 10
13.587731 8.6140118 1.9606407 11
14.24364 8.5742054 1.9715952 11
14.379625 6.4063549 -0.45464647 7
14.686285 8.806922 1.4819533 10
14.91673 7.1316361 0.33674002 8
14.85544 7.5964346 0.36675891 8
14.955237 8.0306644 0.42752945 8
15.050816 6.0407515 0.75946218 9
14.994582 6.4079719 0.6946888 9
14.95186 6.8035812 0.84978527 9
14.865355 7.6669765 0.55915469 9
14.749153 8.4702406 0.61455321 9
15.088081 5.8845153 1.0971107 10
15.036495 6.2877474 1.149043 10
14.978078 6.8008852 1.1305301 9.5
14.92026 7.1503015 1.0751892 9.5
14.855604 7.5973339 0.94284922 9
15.027801 8.1217833 1.0004464 9
15.06096 6.1107512 1.3030202 10
15.0495 6.4967093 1.3508737 10
14.91941 7.5364685 1.3097744 10
14.855104 8.4574671 1.5130187 10
15.536209 5.3567786 1.5436014 10
15.228366 5.6485629 1.5736923 10
15.419215 8.262538 1.4067205 10
15.678003 8.0540438 1.5553507 10
16.225857 8.7565699 2.0503972 11
16.679653 5.8401995 -0.15004811 7
16.548708 8.0373449 1.5661333 10
16.863449 5.6826921 -0.63184267 6.5
16.983629 7.6819787 1.9132438 11
16.990484 8.7312317 2.0091863 11
17.17355 6.100533 2.2489793 11
17.126997 6.5225706 2.3121824 11
17.085377 6.9563313 2.3787305 11
16.999876 8.1875629 2.2835968 11
16.954689 8.6432171 2.335794 11
17.080143 7.1977057 2.4962952 11
17.059708 7.3933787 2.4443026 11
16.932222 7.7972183 2.5021205 11
17.203552 6.3565516 2.4300094 11
17.601686 6.1531096 0.61825699 8.5
17.583668 6.3786507 1.1690543 9
