# .PCD v0.7 - Point Cloud Data file format
VERSION 0.7
FIELDS x y z intensity
SIZE 4 4 4 4
TYPE F F F F
COUNT 1 1 1 1
WIDTH 119
HEIGHT 1
VIEWPOINT 0 0 0 1 0 0 0
POINTS 119
DATA ascii
-2.903511 2.3093719 0.30641106 8
-2.8927906 2.1183741 0.35038748 9
-2.8991354 2.2986474 0.47838438 10
-2.8936646 3.4447844 0.45500627 9
-2.8869524 1.0734097 0.57781774 11
-2.8959961 1.6551824 0.64383477 11.5
-2.8808322 2.0447485 0.62909395 11
-2.9009721 3.263309 0.59770733 10.5
-2.8963628 2.6655371 0.74871981 12
-2.895602 4.0600209 0.7539736 11
-2.8610635 1.084193 0.96252471 15
-2.8783646 2.5112751 1.0038633 14
-2.8726151 2.5824296 0.93600351 13
-2.8493376 2.5023866 1.1388242 15
-2.8733492 3.3438568 1.147542 14
-2.8696039 4.0691528 1.2786781 14
-2.8320203 3.6714942 1.5304724 15
-2.4525423 -0.80163974 0.86237139 15
-2.5195317 -0.58595878 0.81961548 15
-2.489001 -2.1530452 1.0717216 15
-2.2422574 4.111093 0.76601619 11
-2.1553843 -0.54070222 0.36271349 11
-2.1164191 -2.4082112 0.83767527 14
-1.8467939 -0.78770095 0.33890674 11
-1.8328518 -0.57095975 0.33424741 11
-1.860624 -2.3431585 0.48925751 11
-1.6693758 -1.9725245 0.24758042 9
-1.6519644 -1.2291734 0.23725168 10
-1.6649319 -1.1745933 0.22751223 9
-1.6672157 -0.90585738 0.2465326 10
-1.6679881 -1.6278518 0.3356016 10.5
-1.646212 -1.2485362 0.33444223 11
-1.6577926 -0.85094357 0.37552747 12
-1.6505387 -1.8531325 0.49904945 12
-1.6416236 -1.3361959 0.46135041 12
-1.7626449 -1.1860788 0.64634669 15
-1.739609 -0.83577156 0.64347994 15
-1.7020473 -0.82104248 0.49766439 14
-1.6192411 4.109942 0.61623502 10
-1.2738355 -2.3274653 0.641559 13
-1.2027574 4.1170125 0.43091857 9
-0.6353327 1.8148485 0.4182488 13
-0.70381814 4.1195774 1.1901022 15
-0.42516872 0.6338371 -0.19387978 0
-0.26506186 0.65032631 -0.19014247 0
-0.36272705 0.96593553 -0.18763462 1
-0.1320906 0.87653047 -0.1966062 0
-0.14877379 -2.328557 0.67556161 15
0.089715108 0.83077556 -0.20514719 0
0.36953324 0.72008127 -0.21075524 0
0.25914183 0.84367794 -0.2150116 0
0.28328121 1.2496409 -0.2161428 2
0.29522747 -1.0256453 -0.19481632 2
0.37220213 -2.2878487 0.071945086 8
0.360479 -2.3584847 0.27828956 11
0.36485165 -2.3466024 0.67706233 15
0.4260076 -0.90235674 -0.21178074 2
0.45385429 -2.3022661 0.22136422 10
0.5219481 4.1153498 0.5117867 10.5
0.58820528 4.1168036 0.94422108 13
0.57086784 4.1176109 1.1830343 15
0.75887293 0.69340873 -0.22634622 1
0.79984206 -2.4513161 -0.044577457 7
0.58862102 4.1181154 0.79104751 12
0.5933938 4.1196451 0.97767246 14
0.95946813 -0.90610623 -0.21914732 3
0.8568061 -0.74328655 -0.22681744 2
0.94733483 -2.3203959 0.09550944 8.5
0.92753428 -2.3247225 0.22381558 10.5
0.98087716 -2.3205476 0.43970582 12.5
0.96753788 -2.3175654 0.63779074 14.5
1.4062297 -1.6028491 0.3980985 13
1.3226975 -1.3669788 0.40190178 14
1.3210235 7.0396924 0.60412997 9
1.6002091 -0.99170041 0.1121611 10
1.6055702 -3.0119224 0.41470262 11
1.5154533 -0.88667089 0.4000209 14
1.9242778 -2.7136898 0.051098853 8
1.9249587 -2.9293649 0.88416404 15
1.8566771 7.0549068 1.1385871 12
2.1375349 -2.6273034 0.080215693 9
2.1118228 -3.0127299 0.43884137 11
1.9926726 7.056891 1.3838592 13
2.3423159 -2.9229314 0.2276663 10
2.3302166 7.0454402 0.67364007 10
2.3121009 7.0587025 1.0048456 11
2.2652748 7.0575657 1.6702024 14
2.5228162 -2.9095418 0.95688254 15
2.669054 -2.9616847 0.0096717505 8
2.7298141 7.0512786 1.4813766 13
2.8709249 7.0464864 0.46269104 9
3.1153054 -2.84408 0.098497376 9
3.1231701 -2.8816612 1.0456586 15
3.4677598 7.0630417 0.97382301 11
3.5060563 7.050859 1.8574874 14
3.6427691 -0.59089983 -0.011067144 8
3.9790287 6.9418874 0.191688 8
4.2262435 4.9508233 1.1817688 13
4.609694 0.03230707 -0.03518923 8
4.6121879 0.16342823 -0.14676887 7
5.2546754 0.78020602 0.014054119 8
5.2519989 0.71396029 0.30534515 10
5.2509551 1.0535822 0.24252008 9
5.2634339 1.2365522 0.36611256 10
5.3435373 -0.44527254 0.46058124 11
5.2661128 1.294154 0.53974974 11
5.3487649 -0.10474078 0.65283817 12
5.3020468 1.3114578 0.76250166 12
5.4047713 -1.3913664 0.92036712 13
5.3594623 -0.207204 0.83311826 13
5.3771954 0.46906763 0.8112483 12
5.287045 1.2959433 0.8680253 13
5.3795385 -1.0844914 1.0903435 14
5.3797975 -0.53339905 1.0451965 14
5.3404889 0.95667398 1.1609178 14
5.389236 -0.15620667 1.2268108 15
5.4208508 0.55229771 1.3487128 15
5.3451414 1.1643635 1.4069672 15
7.466094 3.8736508 2.1604671 15
