# .PCD v0.7 - Point Cloud Data file format
VERSION 0.7
FIELDS x y z intensity
SIZE 4 4 4 4
TYPE F F F F
COUNT 1 1 1 1
WIDTH 17
HEIGHT 1
VIEWPOINT 0 0 0 1 0 0 0
POINTS 17
DATA ascii
-0.24647914 0.76604062 -0.19581987 0
-0.063158475 0.97372943 -0.19625056 1
0.11303244 -0.94243002 -0.20991054 1
0.078497 0.66708171 -0.20103531 0
0.26067802 -0.82872981 -0.21141943 1
0.2990585 0.88200045 -0.20720607 0.5
0.29582879 -1.0562119 -0.19639187 2.5
0.47773832 0.55604184 -0.21428324 0
0.45931649 0.75252098 -0.21177126 0.5
0.49627405 -0.93715149 -0.21103393 2
0.69079387 0.5639019 -0.22918598 0
0.75904036 0.69534475 -0.22112481 1
0.64286023 1.0973961 -0.21530712 2
0.77081138 -0.68083936 -0.21564601 2
0.80219603 1.0882741 -0.22833176 3
0.9022181 -1.3102146 -0.18209872 4
0.87556195 -0.8671748 -0.21555625 3
