# .PCD v0.7 - Point Cloud Data file format
VERSION 0.7
FIELDS x y z intensity
SIZE 4 4 4 4
TYPE F F F F
COUNT 1 1 1 1
WIDTH 106
HEIGHT 1
VIEWPOINT 0 0 0 1 0 0 0
POINTS 106
DATA ascii
-0.43038589 -1.8937558 -0.17646584 4
-0.40194643 -1.3241749 -0.17797633 3
-0.45901433 -0.83292168 -0.17458181 1.5
-0.50746536 -0.57424819 -0.17695212 0.25
-0.47501221 -0.36933008 -0.15890554 0
-0.23539443 -1.7127681 -0.17160833 4
-0.17542586 -1.3715087 -0.17178127 3.6666667
-0.18539651 -0.99556577 -0.17671897 2
-0.19743425 -0.67347127 -0.18108007 0.33333334
0.34044921 -2.7553461 -0.18582983 5
0.34558591 -2.1845679 -0.18020386 5
0.34729049 -1.8180441 -0.16980462 5
0.27077422 -1.3075594 -0.17359938 3.5
0.1902159 -0.96130085 -0.16077003 2.6363637
0.19952707 -0.64661241 -0.18222818 0.33333334
0.29683042 0.6661883 -0.19574897 0.25
0.28058344 0.97339219 -0.2029745 1.6
0.27656758 1.4060374 -0.19607693 3
0.24764851 1.8280076 -0.1977205 4
0.14483242 2.1262107 -0.21252647 4
0.19493428 2.6316144 -0.21097472 5
0.16504163 3.0939832 -0.22049001 5
0.62472355 -2.1956398 -0.15888283 5
0.56386316 -1.8734077 -0.061376281 6.5
0.52324718 -1.3746666 -0.13923351 5
0.55640715 -0.96784222 -0.13813578 4.1999998
0.49675298 -0.63322735 -0.18240252 1.4
0.4497892 -0.35524321 -0.18570939 0
0.69074571 0.24263528 -0.18322644 0.85714287
0.57264137 0.57370019 -0.18807533 0.8888889
0.57891816 0.96539074 -0.19863026 2.2857144
0.56504571 1.3796991 -0.19615412 3.5999999
0.60158145 1.7993896 -0.20012806 4
0.49916804 2.0963864 -0.19863878 4
0.5319109 2.6160014 -0.20643592 5
0.56040221 3.0652068 -0.21397851 5
0.58619291 3.4708755 -0.22105682 5
0.62105018 4.0151415 -0.23164977 5
0.54624373 -1.8439809 -0.0010096136 7.5
0.55956221 -0.93625301 0.00721581 8
1.084563 -2.9615395 -0.088563234 7
0.97675943 0.20410536 -0.18706134 2.4000001
0.97141898 0.61596209 -0.19117573 2.8571429
0.99646479 1.0231987 -0.19849187 3.5
0.95540273 1.3954544 -0.20970717 4
0.98093402 1.8343095 -0.20863518 4.5
0.94785619 2.1937933 -0.21038443 5
0.88278842 2.636833 -0.21173684 5
0.97409379 3.1027215 -0.22007866 5
1.0547922 3.5152409 -0.22683977 5
1.0599785 -2.9375198 -0.0088657252 7.5
1.325166 0.26434201 -0.19186115 3.5
1.3810298 0.61124068 -0.18487112 4.1999998
1.3926268 1.0675856 -0.19922812 4.25
1.3517992 1.4082444 -0.19647408 4.75
1.3239008 1.7799157 -0.21825726 4.6666665
1.4406201 2.2085848 -0.24070238 5
1.2958646 2.776545 -0.22625346 5
1.4065459 3.107976 -0.23204018 5
1.7815844 0.18880157 -0.18245633 5
1.7402878 0.6355319 -0.18200286 5
1.6660873 1.0589067 -0.20300846 5
1.8110464 1.5028827 -0.20892002 5
1.761104 1.8757063 -0.20390528 5
1.796337 2.2005625 -0.20571779 5
1.7639601 2.8733251 -0.26193485 5
1.5537517 3.547631 -0.24136265 5
1.8468082 4.4751759 -0.18581797 6
2.0361106 0.32138419 -0.18348671 5
2.2913356 0.66566026 -0.16822207 5.3333335
2.1945672 0.9895997 -0.2069834 5
2.1500254 1.384051 -0.21514921 5
2.1839566 1.8801843 -0.21815671 5
2.2204707 2.1808038 -0.21999881 6
1.9654953 2.4601796 -0.21157126 6
1.9564114 3.2689018 -0.27472126 5
2.1959672 3.7622125 -0.28875092 5
2.3859141 0.26877511 0.0018452028 7.5
2.3539486 0.51194543 -0.044407107 7
2.7008579 0.30925077 -0.12936838 6
2.5028005 1.1622955 -0.15558071 6
2.5232849 1.5385422 -0.22399561 6
2.4487646 2.4491582 -0.22599605 6
2.4943399 3.2701483 -0.2346006 6
2.5682802 4.5258212 -0.31694764 6
2.4933531 0.69068372 0.0043140384 7.5
2.7181408 1.2950073 -0.0096118264 7.5
3.0376878 1.9056432 -0.23172699 6
2.8765376 2.2978644 -0.23924534 6
2.9404855 3.9695258 -0.20858787 6
2.9632545 5.4010096 -0.21184856 6
3.1519058 0.71760476 0.050306156 8
3.1396172 1.0982836 0.0024607289 7.5
2.879714 3.9710758 0.061565619 7.5
2.832727 5.2204132 -0.021334413 7
3.2712777 3.424752 -0.21473461 6
3.8857396 3.2188582 -0.27676177 6
3.7775519 7.1108093 -0.19123837 6.5
3.888849 3.3028853 0.12371985 8
4.0282831 2.6104083 -0.26072645 6
4.0492654 3.3974221 -0.13814291 7
4.7385306 4.0098648 -0.24554007 6
4.544805 4.9903994 0.0096796909 7.5
6.0363765 4.095417 0.04945327 7.5
6.6975493 5.8348098 -0.13497426 7
6.3710818 7.1262279 -0.079215504 7
