# .PCD v0.7 - Point Cloud Data file format
VERSION 0.7
FIELDS x y z intensity
SIZE 4 4 4 4
TYPE F F F F
COUNT 1 1 1 1
WIDTH 9
HEIGHT 1
VIEWPOINT 0 0 0 1 0 0 0
POINTS 9
DATA ascii
0.33571008 -0.70231116 -0.20693408 0
0.26312423 1.0358957 -0.14440991 3
0.44741556 -1.0220178 -0.20993312 2
0.4732933 -2.8280051 0.012378623 7
0.74112582 -1.0768002 -0.19059025 3
0.64304924 -0.79273778 -0.17797856 2
0.88052166 -2.8279464 -0.060008321 6
0.93397248 -0.85096812 -0.1632219 3
1.053075 -0.61032021 -0.16133066 3
