# .PCD v0.7 - Point Cloud Data file format
VERSION 0.7
FIELDS x y z intensity
SIZE 4 4 4 4
TYPE F F F F
COUNT 1 1 1 1
WIDTH 95
HEIGHT 1
VIEWPOINT 0 0 0 1 0 0 0
POINTS 95
DATA ascii
-0.66409743 0.34191161 -0.2217758 0
-0.63090426 0.47577652 -0.21958511 0
-0.42532593 1.1087682 -0.17916276 3
-0.16493244 0.64659727 -0.17976724 0.2
-0.1714226 0.96864694 -0.17582713 2
-0.20364928 1.3694066 -0.1599901 3.6666667
-0.12941077 1.7450515 -0.14215226 4.6666665
-0.15542559 2.1630228 -0.13252796 5
0.24011701 -2.1963735 -0.27631336 3.5
0.26531944 -1.7613212 -0.2479786 3
0.23488076 -1.4265354 -0.23115864 2.75
0.2739563 -1.0481635 -0.21924001 1.5
0.2926555 -0.63833296 -0.19573006 0
0.24074923 0.6387521 -0.16088498 0.625
0.27045262 0.93273878 -0.11834753 3.6363637
0.15801819 1.417459 -0.13390669 4.3333335
0.17298365 1.8327677 -0.12126489 5
0.13801275 2.147882 -0.11415516 6
0.093363322 2.5534453 -0.10609158 6
0.56703264 -2.8380351 -0.27462316 4
0.54101557 -2.4124436 -0.26565564 4
0.52381349 -2.1484926 -0.25681043 4
0.61745656 -1.7935743 -0.23095115 3.75
0.62465304 -1.3580847 -0.20572141 3.125
0.58968318 -0.97341031 -0.19699648 2.1111112
0.56747025 -0.609505 -0.18021423 1
0.66554976 -0.21552324 -0.16211492 0.75
0.43544197 0.36002329 -0.16397388 0
0.46700388 0.56950325 -0.15609096 1.25
0.47628653 0.9958753 -0.13757183 3.5
0.59429258 1.4286745 -0.11996629 5
0.64753264 1.8302044 -0.084143616 6
0.71366721 2.2473457 -0.080029115 6
0.77080023 2.6179748 -0.07138405 6
0.92049479 -2.8156977 -0.19045483 5.5
1.0495588 -2.5049651 -0.25038019 4.5
0.91992402 -2.2069974 -0.24132384 4
1.0513853 -1.738971 -0.20919549 4
0.95578289 -1.4138651 -0.19080941 4
0.99013489 -1.0103586 -0.17557611 3.5
0.98510361 -0.60795915 -0.16050407 3
0.99591672 -0.22481301 -0.14358965 3
0.85213393 -2.8267481 0.026869826 7
1.3040946 -2.8370705 -0.13139337 5.75
1.4191414 -2.1157508 -0.220552 4.5
1.4549121 -1.7864035 -0.19493593 4.6666665
1.365399 -1.3670421 -0.17590238 4.3333335
1.3766022 -0.96134317 -0.15536875 4.25
1.3591779 -0.59747607 -0.13407832 4.5
1.3711886 -0.26233178 -0.12786651 4.25
1.2489339 -2.8343005 0.035925005 7
1.7724708 -2.8868253 -0.15868516 5.5
1.683455 -2.6559241 -0.2289082 5
1.8382858 -2.2129619 -0.19519819 5
1.8121213 -1.6662778 -0.17374414 5
1.7907193 -1.3890431 -0.1616635 5
1.8423513 -1.0186034 -0.13966122 5
1.7537825 -0.58432406 -0.11425415 5
1.7691163 -0.25224182 -0.096198261 5.5
1.6860638 -2.8785892 0.09511853 7.5
2.2906992 -2.8913651 -0.21731536 5
2.0172997 -2.4825821 -0.20156135 5
2.2227299 -2.1414628 -0.17931254 5
2.2751462 -1.7103419 -0.15554832 5
2.1365621 -1.230595 -0.13636489 5
2.3078067 -0.73119587 -0.10622673 6
2.1680403 -2.8916047 0.15961178 8
2.6836169 -3.55655 -0.083480202 6.5
2.6781421 -2.084743 -0.11461569 6
2.7214482 -1.6463084 -0.096299663 6
2.4872069 -1.4756778 -0.13010842 6
2.4374099 -1.0845566 -0.1150758 6
2.6578126 -0.55559772 -0.08760412 6
2.6531839 -2.1249726 0.096085846 7.5
2.7556796 -1.7557942 0.27108246 9
2.9955277 -3.0489697 -0.15526292 6
2.9627328 -1.3704665 -0.048024543 6.5
2.9571805 -0.97631675 -0.089207537 6
2.9708359 -0.30023909 -0.067489237 6
3.1979992 -3.4832029 0.36665571 9
2.9837093 -3.1135702 0.050328247 7
2.9304302 -1.8433752 0.12605704 8
2.9400811 -1.3755003 0.045972906 7
3.1835222 -3.5382242 0.55534142 10
3.3747189 -2.095799 -0.11522564 6
3.2978256 -1.1046506 -0.082185373 6
3.2121017 -0.68997639 -0.072672747 6
3.2491772 -3.5810807 0.46743882 10
4.2477555 -3.4822946 -0.15943374 6
4.1299171 -1.4198586 -0.052161824 7
4.7194772 -1.0558213 -0.027919093 7
4.7938008 -0.51029915 -0.0032081625 7
4.9293904 -1.1148109 0.064704478 7
5.6272039 -0.60967922 0.086854182 7
6.1407814 -2.1861007 0.053867649 7
