# .PCD v0.7 - Point Cloud Data file format
VERSION 0.7
FIELDS x y z intensity
SIZE 4 4 4 4
TYPE F F F F
COUNT 1 1 1 1
WIDTH 9
HEIGHT 1
VIEWPOINT 0 0 0 1 0 0 0
POINTS 9
DATA ascii
-0.55779982 0.76680142 -0.21105488 0
0.21230485 0.71630877 -0.22915433 0
0.28442469 0.96689248 -0.22851256 1
0.44893479 0.7146824 -0.21763064 0
0.55885988 1.0555263 -0.23045377 2
0.70920295 0.71995193 -0.22826532 1
0.92854404 -0.53124535 -0.2067288 3
1.0894881 -0.18713942 -0.21594803 3
1.4698787 -0.44611579 -0.14605334 5.5
