# .PCD v0.7 - Point Cloud Data file format
VERSION 0.7
FIELDS x y z intensity
SIZE 4 4 4 4
TYPE F F F F
COUNT 1 1 1 1
WIDTH 131
HEIGHT 1
VIEWPOINT 0 0 0 1 0 0 0
POINTS 131
DATA ascii
0.76745284 -0.55831224 -0.070843168 159.2
0.47179326 -0.42721829 -0.081891932 176.06667
0.5541715 -0.41474721 -0.097242281 169
0.69017863 -0.45038182 -0.077716671 171.5
0.74988347 -0.45875674 -0.072188497 167.2
0.85274577 -0.46449244 -0.068248443 164.75
0.47490624 -0.34357086 -0.11280322 153.94118
0.55105621 -0.37807161 -0.083248585 164.35135
0.6493504 -0.35271919 -0.082570165 166.63158
0.75253522 -0.35969821 -0.071263984 165.875
0.84781086 -0.36028308 -0.069294579 166.75
0.92357254 -0.36649457 -0.066550158 163.33333
-0.52971941 -0.24020045 -0.21782459 151.5
-0.4424178 -0.21945317 -0.21303472 166.33333
0.47278625 -0.27569816 -0.13035537 144.70833
0.55431849 -0.25311506 -0.11525862 147.2449
0.66108942 -0.25611019 -0.092318252 151.52
0.74453646 -0.26037297 -0.071801312 161.21428
0.84671056 -0.25912037 -0.064167626 164.625
0.95894718 -0.26668769 -0.067676723 161.33333
-0.69693112 -0.14393097 -0.24590611 125
-0.62087172 -0.13494752 -0.23815872 142
-0.50222319 -0.12122476 -0.22803913 161
-0.42430571 -0.14493342 -0.21745659 173.66667
-0.34671068 -0.19622242 -0.20523152 187.5
-0.24083453 -0.16905731 -0.18898474 186.57143
-0.14746429 -0.14813988 -0.19040166 181.2
-0.050674696 -0.12521923 -0.18558168 176.10001
0.46370742 -0.15287839 -0.15071012 150.5679
0.57124144 -0.16117619 -0.134942 149.20454
0.65006179 -0.15470806 -0.10710755 148.41463
0.75059408 -0.1663308 -0.080738306 155.45454
0.8644498 -0.15784042 -0.067030467 163.22223
0.954871 -0.14954185 -0.069178239 161.60001
-0.40846461 -0.077469572 -0.22589877 182
-0.31168026 -0.048598289 -0.20819511 189
-0.23537633 -0.050662141 -0.19815488 186.08333
-0.14769299 -0.048746873 -0.19833581 180.88235
-0.05757105 -0.044079937 -0.19384396 175.93333
0.083465479 -0.053297449 -0.1825823 163.47223
0.16107978 -0.044785988 -0.16903402 154.58461
0.23831415 -0.040138833 -0.17550428 154.60001
0.40382046 -0.018936923 -0.16240647 151.34616
0.46834272 -0.060877685 -0.15415668 159.34752
0.54296416 -0.063279323 -0.14521356 152.25862
0.64911324 -0.067945473 -0.12058287 149.45097
0.75808078 -0.069566183 -0.090785533 152.29167
0.8424291 -0.071636476 -0.07311485 163.55556
0.9542442 -0.063339278 -0.073756501 163.5
-0.62681353 -0.0097186733 -0.24979441 142
-0.54872662 -0.01030896 -0.24222292 156
-0.43194845 0.021820365 -0.23284797 178.66667
-0.31253538 0.075284474 -0.22058833 188.75
-0.23875627 0.065739319 -0.2103477 186.39999
-0.15376602 0.054496739 -0.20330159 182.14285
-0.060261719 0.04195632 -0.19914736 176.71428
0.087313943 0.037119705 -0.19223849 162.7619
0.16742265 0.044014558 -0.17787488 157.69841
0.25417063 0.073501855 -0.17920372 157.61111
0.38583571 0.0038271539 -0.16845144 154.09525
0.48156533 -0.0012650142 -0.1520211 159.86957
0.54891151 0.0093355626 -0.14609048 152.55263
0.6567812 0.02802361 -0.12547727 150.94444
0.75446039 0.030066404 -0.097441368 150.78572
0.85829139 0.033654414 -0.080771752 165.41667
0.94769812 0.041884169 -0.080224685 169.16667
-0.61605906 0.11493444 -0.25490338 139
-0.51499557 0.10187367 -0.2409039 159
-0.40129432 0.16254517 -0.19421387 157.75
-0.33177608 0.17051011 -0.17732708 163.60001
-0.23647867 0.14552018 -0.21874757 187.14285
-0.14621373 0.13974494 -0.21188149 182.625
-0.040500794 0.12176519 -0.20507216 177.13333
0.10619877 0.09687385 -0.19616058 163.33333
0.1780204 0.12652361 -0.18185322 156.9796
0.26477778 0.12959051 -0.16195595 149.9079
0.3461256 0.12451282 -0.1761637 155.22223
0.76855344 0.097879224 -0.095321342 153.875
0.85344797 0.12294281 -0.08651413 167.83333
0.95922047 0.15062948 -0.092896052 167.33333
-0.44666842 0.20034543 -0.17069021 133
-0.35095903 0.27733648 -0.24526879 180
-0.23550887 0.23147535 -0.22773148 188.33333
-0.11988281 0.22207727 -0.21100971 182.41667
-7.7107128e-05 0.20638891 -0.19462848 175.57143
0.06798093 0.23204473 -0.19047381 174
0.16808 0.20952491 -0.14896147 157.5
0.27150607 0.20279151 -0.19153135 165.88889
0.33673596 0.20485739 -0.18593244 167.5
-0.033096056 0.34311098 -0.1989305 181.72728
0.081346996 0.32450962 -0.20870169 179.2
0.16113491 0.32487765 -0.20570281 175.92308
0.25358576 0.34755808 -0.19831592 175.33333
0.33312705 0.34913352 -0.19124793 174.625
-0.46426287 0.45224983 -0.26373944 137
-0.36737067 0.39632258 -0.22137147 140
-0.090167888 0.43537277 -0.22914092 189
-0.025494942 0.43721727 -0.22581644 187
0.071609542 0.42788884 -0.21353915 185.16667
0.16165973 0.44622034 -0.20796093 184.5
0.27185106 0.45778662 -0.19994499 183
-0.028658111 0.49448195 -0.23152223 189.5
0.054610178 0.52355456 -0.22583739 188.25
0.15646318 0.54770768 -0.21937178 189.125
0.26978952 0.53039253 -0.20247407 187.5
0.20433159 0.59955257 -0.21974896 190
0.28746882 0.59999073 -0.20437686 190.5
0.17454886 0.6978845 -0.23126443 183
0.45490414 -0.42085505 0.023184147 172.39999
0.49599463 -0.3965202 -0.0060768938 174.77777
0.53975207 -0.38213691 0.019773504 168.72223
-0.24118419 -0.14450495 -0.061324947 153.8
-0.36733168 0.18006605 -0.12062939 130
4.0726873e-06 0.1809707 -0.026495548 129
0.069737986 0.17069776 -0.036197945 134.39999
0.15211321 0.15355882 -0.066412538 129.61111
-0.064158626 0.21839911 -0.058627948 141
0.044026997 0.21051688 -0.04235911 155.75
0.46357501 -0.71806657 0.16103496 171.2
0.44769225 -0.60491461 0.12369545 165.75
0.5466271 -0.64250672 0.13951737 135
0.65520465 -0.63583255 0.114747 120
0.44619459 -0.5735597 0.10460055 178.16667
0.5181281 -0.54905838 0.11303266 140.875
0.61275822 -0.55767453 0.11135009 112
0.45572072 -0.42764986 0.070772745 169.28572
0.58071178 -0.49852178 0.10852495 102
0.52965701 -0.38827604 0.074969232 161.5
0.082493201 0.1728929 0.025076993 127.16666
0.47536781 -0.8262229 0.20690887 151.33333
0.45136094 -0.69763893 0.18243752 153
