# .PCD v0.7 - Point Cloud Data file format
VERSION 0.7
FIELDS x y z intensity
SIZE 4 4 4 4
TYPE F F F F
COUNT 1 1 1 1
WIDTH 109
HEIGHT 1
VIEWPOINT 0 0 0 1 0 0 0
POINTS 109
DATA ascii
0.77569902 -0.60349905 -0.012894346 192
0.83994508 -0.54544228 -0.015401103 190
-0.32924512 -0.45615739 -0.15193568 174.8
0.67730117 -0.45807907 -0.034561589 188.83333
0.74981284 -0.45786324 -0.031769704 190.14285
0.86673367 -0.45699999 -0.024757791 193.66667
-0.65813929 -0.35135138 -0.21969269 126
-0.20342785 -0.38377026 -0.15151571 190.66667
-0.14420174 -0.34890375 -0.14958711 187.16667
0.60306627 -0.33950946 -0.074175529 177
0.65211451 -0.36352351 -0.052802537 182.71428
0.76760834 -0.35999054 -0.038745735 188.3
0.85701263 -0.35586581 -0.03609173 191
0.93353373 -0.37876117 -0.032678396 193.33333
-0.50040346 -0.30396682 -0.20859429 158
-0.47596112 -0.29685354 -0.20757177 165
-0.32788551 -0.2507363 -0.19209066 184.5
-0.26281372 -0.23048724 -0.18533032 189
-0.092894658 -0.31674209 -0.14364405 185.5
-0.063457482 -0.30269244 -0.14986931 182.5
0.01608278 -0.23529446 -0.10233263 180
0.58456612 -0.26865816 -0.085453458 174.45454
0.6749168 -0.27295363 -0.073424593 178.75
0.75683463 -0.26112583 -0.052821826 184.1875
0.86080384 -0.26858535 -0.04280296 189.5
0.94372427 -0.26466259 -0.045225691 192.25
-0.30289349 -0.15652779 -0.20780511 188.5
-0.22793059 -0.17123 -0.18845242 184.07692
-0.15269145 -0.18667652 -0.17717166 184.71428
-0.013333648 -0.18028632 -0.16799758 176.77777
0.056970417 -0.17463538 -0.077918291 170
0.16760305 -0.13357842 -0.081018656 136.6875
0.60501301 -0.21623345 -0.098272361 174.5
0.6543588 -0.16686876 -0.096772619 175.03847
0.76256442 -0.16785674 -0.074163839 180.96297
0.86192191 -0.1786557 -0.056233067 187.90909
0.95451921 -0.17659074 -0.055789948 191.5
-0.52973682 -0.085364796 -0.24826586 157
-0.40983349 -0.078636743 -0.23517103 177
-0.29276514 -0.071231447 -0.21855439 188
-0.21711074 -0.078640424 -0.18334404 171.375
-0.15219893 -0.093163684 -0.19953649 183.44444
-0.04780826 -0.089127287 -0.19046859 177.14285
0.1812311 -0.10412176 -0.16387044 165.57143
0.22653413 -0.11344416 -0.10148448 124.25
0.46651527 -0.12560447 -0.13057092 169
0.67819816 -0.079835705 -0.11124181 174.95238
0.77681273 -0.066389963 -0.089712597 180.29411
0.86428642 -0.064546466 -0.07594166 186.84616
0.94513023 -0.074465774 -0.073121607 190.5
-0.50959557 0.024187848 -0.26265189 154
-0.41507542 0.01825428 -0.2506462 180.5
-0.30248514 0.012049322 -0.23124896 190
-0.23531534 0.0079345014 -0.22208162 187.16667
-0.15253907 0.0024864238 -0.21300654 182.83333
-0.049447563 0.024454936 -0.21002084 177.72728
0.17595503 0.012863325 -0.18468815 165.42857
0.67415839 0.024980921 -0.12975238 175.11765
0.78181475 0.028316593 -0.10592109 179.35294
0.86219233 0.036826823 -0.09502203 186
0.96100974 0.022909423 -0.090080239 192
-0.29352918 0.094306029 -0.24693617 190.5
-0.21200486 0.12534548 -0.22589473 181.64706
-0.15230399 0.11062505 -0.22999729 179.3
-0.012325699 0.1420538 -0.22612986 177.5
0.20046447 0.088722207 -0.19308364 168.125
0.25882381 0.12387197 -0.19038898 166.5
0.66231358 0.11631626 -0.14469688 175.60001
0.7678324 0.11949745 -0.12529816 179.73685
0.86709344 0.11896212 -0.1098362 187.63637
0.94290775 0.10927621 -0.10465333 191.33333
-0.30561367 0.18714476 -0.24454467 177
-0.20883113 0.23923233 -0.26367015 189
-0.11356737 0.21745041 -0.23868762 185.45454
-0.030868718 0.22641711 -0.23126213 180.89999
0.05163645 0.22663021 -0.22683537 176
0.17959663 0.22292389 -0.15735367 161
0.76006299 0.19992454 -0.13698171 182.77777
0.85422212 0.21954754 -0.13065676 189.36363
-0.33539739 0.29561514 -0.28881106 185
-0.11525674 0.27683043 -0.24450009 186
-0.013814689 0.31585225 -0.21451633 177.33333
0.070526958 0.3185806 -0.20483807 182.33333
0.18193227 0.31404337 -0.22509322 179.77777
0.95630819 0.31892869 -0.1493044 194
-0.2254938 0.45520401 -0.2871947 180
-0.12126406 0.42680836 -0.26130682 182.5
-0.031106854 0.41509035 -0.26534444 188.28572
0.082686879 0.40285975 -0.2526601 185.33333
0.13659652 0.41527522 -0.24786159 185
-0.30683023 0.5202288 -0.32172963 170
-0.1533867 0.52382511 -0.30662107 188
0.0078109517 0.47473806 -0.27615902 189.33333
0.089949936 0.49683005 -0.27204049 188.66667
-0.14007823 -0.2952069 -0.037397537 164
-0.055426519 -0.22732849 0.0047947806 157
-0.23525019 -0.11676617 -0.09921319 183
0.066339508 -0.12288828 -0.013245212 132.10715
0.13424437 -0.1405596 -0.043580905 130.53847
-0.23053068 -0.1100952 -0.077279784 151.2
0.083351351 0.15046239 -0.022003921 127
0.15140514 0.163019 -0.042590182 125.23077
0.23913254 0.15574566 -0.069444679 123.15151
0.057584953 0.2003935 -0.086241037 157.33333
0.13893443 0.20166306 -0.066118307 155
0.23779544 0.19703504 -0.096494228 163
-0.031671416 -0.13966434 0.044804826 133
0.037694104 -0.12087958 0.034041896 127.5
0.036453903 0.17777032 -0.011562463 143.52942
