# .PCD v0.7 - Point Cloud Data file format
VERSION 0.7
FIELDS x y z intensity
SIZE 4 4 4 4
TYPE F F F F
COUNT 1 1 1 1
WIDTH 723
HEIGHT 1
VIEWPOINT 0 0 0 1 0 0 0
POINTS 723
DATA ascii
-4.5387163 -0.95267981 0.62358958 12.5
-4.5865588 -0.87890989 0.9459458 15
-4.2040138 2.5158601 -0.48773351 9
-4.1486216 2.9752967 -0.64871728 8.5
-4.1967244 2.6405523 -0.43610108 9.666667
-4.1533322 2.9888015 -0.47987702 10
-4.2478709 -0.97615921 0.8003884 14
-4.2663555 1.8915799 0.16759488 12.75
-4.2869635 2.2768424 0.16305256 13
-4.2437592 2.6695476 0.079292469 12.7
-4.1995912 3.0523236 0.083424695 12.8
-4.1054649 3.3386314 0.016806504 13
-4.4671407 -0.94423568 0.93077332 15
-4.3920078 0.86472267 0.67563391 15
-4.3044224 1.1789128 0.60850978 15
-4.312922 1.5290288 0.58876836 15
-4.3005066 1.9550269 0.53592825 15
-4.2440438 2.4066916 0.49082768 15
-4.252233 2.7260234 0.46899343 14.75
-4.199245 3.1370077 0.41504648 14.5
-4.1866288 3.3837295 0.3150349 14.5
-3.642252 5.2535691 -0.47972551 11
-3.8987517 -0.99791098 0.80357343 14.5
-3.841347 3.3285582 0.065191649 13
-3.9704535 5.4315271 -0.22718231 12
-3.907089 5.7349763 -0.344372 11.5
-3.9037817 6.2264943 -0.40525711 11.333333
-3.8040345 6.4520421 -0.45919248 11
-3.8920045 3.3788059 0.32378781 14.5
-3.7604203 4.4345298 0.38348734 14.5
-4.0378308 5.2260504 0.073700272 13
-3.9419403 5.4898825 0.085930862 13
-3.963871 6.0268068 -0.047920939 12
-3.8379157 6.4338074 -0.22904433 12
-3.8613386 7.3139253 0.68699843 15
-3.2348995 -0.77002209 0.048072252 9
-3.4103532 3.7636178 -0.70813447 8.5
-3.3920484 4.319756 -0.81526053 8.333333
-3.3751645 4.594574 -0.84223062 8.333333
-3.3558462 4.851191 -0.92018467 8.5
-3.3179729 5.3268309 -0.96497315 8.5
-3.2749164 5.7033396 -0.99941814 8.5
-3.2792866 6.0439353 -1.0391072 8.5
-3.4709823 3.4832489 -0.43855414 10
-3.4450192 3.7623806 -0.48302841 9.8000002
-3.4457502 4.2221079 -0.57603651 9.5
-3.4160218 4.5546679 -0.56779033 9.8000002
-3.3968816 5.0113111 -0.62693983 9.75
-3.4262002 5.4405828 -0.60445118 10
-3.35834 5.7366819 -0.6950646 9.666667
-3.3100984 6.1272683 -0.71677852 10
-3.5833929 -1.0238267 0.77650118 14.5
-3.5401947 3.5001082 0.12718585 13.5
-3.4942086 3.9227557 0.094748266 13
-3.4560463 4.312686 0.087636404 13
-3.4849091 5.5684156 -0.47870946 11
-3.4239402 6.372581 -0.49684983 10.666667
-3.2542143 6.554574 -0.52538025 11
-3.5706198 3.4898901 0.40961614 15
-3.4964321 3.8426406 0.36151448 14.5
-3.5752132 4.4746957 0.39579138 14.5
-3.6492314 4.7588115 0.32812029 14
-3.6425014 5.1221161 0.35012484 14
-3.6096816 5.6230736 0.12645446 13
-3.5953546 5.947948 0.12123396 13
-3.4778693 6.4554243 -0.021309895 12.5
-3.2564659 6.6376076 -0.16562824 12
-3.6695192 4.9715509 0.50510961 15
-3.6215305 5.280107 0.53100961 15
-3.5270545 5.5902133 0.47313294 14.5
-3.4856198 6.0537562 0.48036391 14.333333
-3.379097 6.37253 0.45240769 14
-3.3325877 6.6466637 0.16692333 13
-3.5649281 7.3450246 0.57323158 14.333333
-3.0347848 -1.1889358 -0.0024708677 8
-2.9856949 -0.97174335 0.078491971 9.2222223
-3.0272813 1.1833947 -0.23276019 10
-2.9147377 5.7915077 -0.95865726 8.333333
-2.9470012 -1.1286018 0.40450016 12
-3.020664 -0.93481892 0.39306518 12.142858
-3.1152101 -0.69998676 0.35243171 12
-2.9096839 5.8142781 -0.80977261 9
-3.1112943 6.6483016 -0.78105003 10
-2.9791648 6.6699448 -0.51285535 10.666667
-2.91748 6.722507 -0.12557034 12
-3.0821648 6.8063288 0.19496521 13
-3.1926045 7.3310418 0.63891691 15
-2.7180021 -1.1673484 0.24275732 10
-2.6872911 -1.0694758 0.14229374 9.5
-2.6644146 1.5116153 -0.32606134 9
-2.5897391 1.7194362 -0.31127903 9.5
-2.5472255 5.7624874 -0.92416716 8
-2.6518281 -1.1393051 0.49278203 12.777778
-2.68786 -0.94844484 0.53787237 13.666667
-2.622612 1.8090785 -0.09804178 11.333333
-2.5239353 5.778635 -0.79487842 9
-2.704957 6.612474 -0.73323101 10
-2.819206 -1.0825791 0.77825654 15
-2.7077091 -0.84335649 0.65354151 15
-2.6435394 6.6441875 -0.44276994 11
-2.6049333 6.7063532 0.018246675 12.333333
-2.7239661 6.7467747 0.23778036 13.5
-2.7999365 7.3087854 0.6425947 15
-2.2394741 1.0342607 -0.15789326 10
-2.2074647 1.2529699 -0.12501071 11
-2.2012458 1.7999907 -0.2770642 9.666667
-2.2700155 2.2041874 -0.37103909 9.333333
-2.2625785 -1.1629837 0.52442259 13.222222
-2.2399609 0.83408844 0.19684994 14
-2.1625514 1.0843579 0.13273576 13.666667
-2.1401463 1.8285539 -0.083551399 11.5
-2.1686325 2.202502 -0.10378028 11.75
-2.1432366 2.6406167 -0.14546625 11.4
-2.1084273 2.91629 -0.15582991 11.5
-2.1810069 5.8118095 -0.68943691 9.1999998
-2.2105465 6.6237707 -0.29563618 11.5
-2.2795954 6.6895442 0.15071371 13
-2.3570583 6.71772 0.27925411 14
-2.4062662 7.2847018 0.68128943 15
-1.8435833 -1.2139747 0.37263232 12
-1.8417711 -1.1834511 0.56350607 14.142858
-1.8885202 5.8343244 -0.66896665 9.333333
-1.8197141 6.181066 -0.65665072 9.666667
-1.7767688 6.4863644 -0.69251782 9.5
-1.6505708 6.9235353 -0.75984621 9
-1.8257613 6.6512432 -0.28228301 11.25
-1.6517419 6.9962945 -0.23186222 11.5
-1.9481118 6.6947618 0.18591098 13
-1.7711784 7.0484719 0.11166379 12.5
-2.0036578 6.6821051 0.32051507 14
-1.8616823 7.090867 0.35358283 14
-1.955467 7.2503633 0.6712088 15
-1.3413957 -1.2303559 0.34370822 11.333333
-1.3694596 -0.9508462 0.27433068 11.5
-1.4008065 -0.61997813 0.21195185 11.75
-1.4597226 -1.2161684 0.52038121 14
-1.4007782 6.6937227 -0.56386465 10
-1.3456461 6.8705401 -0.70887548 9.5
-1.3732716 6.8518043 -0.17388275 11.5
-1.4292413 6.9285674 -0.28734994 11
-1.3960272 6.9024982 0.23255572 13
-1.4813386 7.0326219 0.15761249 12.5
-1.4680049 6.8597112 0.3950702 14
-1.5244532 7.0849371 0.37063357 14
-1.5904523 7.2264404 0.71577829 15
-1.0288403 -1.2677189 0.37611735 11.909091
-1.0726973 -1.2399575 0.55714643 14.5
-0.9816761 6.7351651 -0.62484014 9.333333
-0.83844525 6.8867955 -0.67465425 9.5
-0.98702544 6.7511153 -0.21104237 11
-1.1454623 6.943975 -0.22981249 11
-1.1152991 6.8449645 0.20021777 13
-0.97353625 7.0032425 -0.028458567 12
-1.1426514 6.8575797 0.43732744 14
-1.0439495 7.0762429 0.41151509 14
-1.1923438 7.2057028 0.76791418 15
-0.59327155 -0.33234835 -0.21661593 0
-0.63864964 0.28701481 -0.34225553 0
-0.49645361 0.5455572 -0.35628986 0.25
-0.4745771 0.92683762 -0.41649598 1.6666666
-0.49689716 1.2981901 -0.49033171 3
-0.55708772 1.6089011 -0.5603767 3
-0.88297695 -11.99056 2.2179289 8
-0.62472779 -1.2148873 0.41819659 12.666667
-0.76438141 -12.004669 2.3928266 8
-0.78331137 -8.3490181 1.8767542 8.5
-0.7793346 -1.2012064 0.51937175 15
-0.57044512 6.6600285 -0.57597536 9.333333
-0.64737093 6.8627028 -0.57436508 10
-0.98133934 -13.01687 3.0080955 9
-0.70817661 6.7516603 -0.18060847 11
-0.90285873 -8.2030725 2.823518 12
-0.6292237 6.8118248 0.18040769 12.666667
-0.66590887 7.0168328 0.16825946 12.5
-0.97992682 -12.706938 4.0000644 11
-0.6636073 6.8328738 0.50164032 14
-0.68665141 7.095861 0.50900984 14
-0.78794169 -12.662615 4.2712517 12
-0.94814289 -11.725957 4.1737247 12
-1.0728241 -10.716583 3.9954674 13
-0.82977384 -10.678322 4.0057154 13
-0.71808946 7.168263 0.83324611 15
-1.505044 -31.26207 8.9045935 10
-0.33899987 -0.45365462 -0.13422842 0
-0.24575764 0.60823917 -0.33752429 0
-0.20202298 0.90556484 -0.38604772 0.83333331
-0.32455021 1.2057576 -0.44835204 3
-0.39548728 -12.038079 2.2166808 8
-0.4669382 -4.3000355 0.93903488 9
-0.3800202 -3.2792099 0.74350148 9
-0.28143463 -1.2347802 0.45428613 12.818182
-0.40465432 -13.124543 2.8659093 9
-0.35339493 -12.019562 2.4577239 8
-0.42547566 -3.1447945 1.141414 12.666667
-0.21684828 6.9005861 -0.55608392 9.5
-0.52912426 -4.1163301 1.7238896 14
-0.19591187 6.9604821 -0.17879736 10.666667
-0.24747908 7.0281496 0.20491987 12.5
-0.57128137 -12.782771 4.0678053 11
-0.68027276 -12.683991 4.0454473 11
-0.28565878 7.0845027 0.52304983 14
-0.38229617 -12.721272 4.1103334 11
-0.43383577 -12.533648 4.3805943 12
-0.54544997 -11.639067 4.1971054 12
-0.58941805 -10.659759 4.0235538 13
-0.58968657 -7.2428241 3.5061426 15
-0.46564728 7.1567078 0.87133425 15
-0.61028177 -10.994142 5.1633983 15
-0.77407891 -31.362944 8.9709215 10
0.16598862 -12.510997 2.3958747 8
0.067792885 -12.886323 2.6829586 8
0.24488445 6.8697352 -0.50144553 9.333333
-0.097920544 -12.32691 2.9488497 9
0.16973783 6.9312506 -0.15776442 11
0.11461306 7.0174961 0.29058683 12.666667
-0.033331171 -12.779889 3.8615501 11
0.058966536 7.0672312 0.58999598 14
-0.08585079 -12.729809 4.1687889 11
-0.14929993 -11.526945 4.2141509 12
-0.23170333 -10.630307 4.0529509 13
0.074671187 7.130372 0.95712233 15
-0.34993863 -11.041925 5.1963568 15
0.70191133 -0.46545863 -0.037284024 0.5
0.68592501 -0.23790193 -0.077848211 0.2857143
0.74708742 0.13376546 -0.13313258 0.40000001
0.47581732 -12.116159 2.1042657 7
0.26707047 -12.544462 2.8667331 9
0.33594757 -12.05043 2.5723364 8
0.61662591 6.8634901 -0.39255816 9.5
0.18598109 -12.485367 3.0133147 9
0.57526147 6.9213305 -0.032053992 11.4
0.55110055 6.9958153 0.364452 12.75
0.49824205 7.0390673 0.63510311 14
0.2112741 -12.743204 4.2305474 11
0.12228895 -12.39049 4.4090433 12
0.2392616 -11.391081 4.2253132 12
0.24354462 -10.543031 4.0798392 13
0.04644046 -11.100044 5.2463717 15
-0.055492774 -10.310774 5.0921159 15
1.0863179 -6.3150864 1.050434 7
1.164029 -0.92795789 0.093896791 3.5
1.0289241 -0.56100047 0.0033164944 2.3
0.97864181 -0.20752393 -0.053719033 1.5714285
0.99692589 0.21260041 -0.1275285 1.4444444
1.1107228 0.41470164 -0.15485735 2
0.77453816 -12.350077 2.1584897 7
1.0941372 -8.2389784 1.582527 7
1.0362123 -6.0607972 1.3869926 8.5
0.83940059 -13.096613 2.9172463 8.333333
0.96173543 -6.0956874 1.669235 9.5
1.1722183 6.8105569 -0.41140011 9
0.95602787 6.8388124 -0.35969582 9.5
0.96009457 6.899281 0.019671185 11.4
0.92549866 6.9732714 0.44231397 13
0.57508671 -12.823754 3.9128475 11
0.85845631 7.0222607 0.70585835 14
0.6527378 -12.335586 4.4122229 12
0.61987305 -11.255084 4.2401185 12
0.71366477 -10.441265 4.1065469 13
0.54592246 -10.289123 5.1428614 15
1.2806545 -6.1850405 1.0805615 7
1.4937351 -1.3164078 0.20312375 4.6666665
1.3308023 -0.93077552 0.11236243 3.75
1.3862647 -0.60357773 0.055723865 3.5
1.3781995 -0.22366573 -0.0091922246 3.3333333
1.4643451 0.1830733 -0.070783719 3.3333333
1.4338524 0.55066574 -0.13455243 3.3333333
1.0642505 -12.866628 2.6235707 8
1.2260456 -12.484163 2.2067885 7
1.3230139 -5.921628 1.26738 8
1.409601 -1.6488674 0.67044824 10.333333
1.4730713 -1.4515225 0.63790721 10.333333
1.206794 -12.398854 2.7835891 8
1.2938733 -9.0569172 2.1914632 9
1.3973022 -7.8182254 2.1264336 9.5
1.4374523 -5.3036613 1.4772861 9
1.4633516 -4.9504166 1.4268231 9
1.468552 -2.3663368 1.2270224 13.5
1.4082229 6.8137002 -0.3008644 9.5
1.2934706 6.8036385 -0.48827678 9
1.0959008 -13.132555 3.2567587 9
1.4600048 -2.339505 1.4500041 15
1.4150956 6.8678346 0.026264843 11.25
1.2868445 6.8907089 0.047051158 11
1.4649938 6.942512 0.4699581 13
1.1884075 6.9506207 0.40785223 12.666667
0.99219984 -12.837328 4.03896 11
1.3636626 6.9902749 0.75022429 14
1.1617836 7.0092463 0.74109912 14
1.1121402 -12.779752 4.4298134 12
1.1843283 -11.95244 4.3904476 12
1.0638018 -10.357641 4.1277566 13
0.99230117 -11.177657 5.3602414 15
1.6939673 -6.2328377 1.0086523 6
1.7528474 -5.451426 1.0201193 7
1.9318888 -2.4373391 0.59147012 7
1.7103385 -2.096324 0.50399661 7
1.6931508 -1.8618814 0.38171449 6
1.7676079 -1.3905619 0.2401835 5
1.7461982 -1.0690637 0.18019725 4.3333335
1.8723514 -0.6801042 0.13444753 4.3333335
1.6547523 -0.20931812 0.023211498 4
1.9196125 0.30005813 -0.026619535 4
1.8110645 0.54924423 -0.087929375 4
1.793484 -7.8043127 1.7685193 8
1.623814 -2.4614134 0.85305077 9.666667
1.7241277 -2.1973429 0.80566186 9.333333
1.6205732 -1.3512028 0.60735577 9.75
1.6629783 -12.844686 2.739464 8
1.4254109 -10.488201 2.6246345 9
1.569569 -7.7466264 2.1374705 9.5
1.6342 -6.6123643 1.9396582 10
1.616146 -5.5605617 1.6903628 9.8000002
1.8499669 -5.2651162 1.6790464 10
1.8412071 -3.018651 1.1184845 10
1.6182046 -2.3890097 1.1631786 12.428572
1.7145414 -2.2051153 1.1270539 12.571428
1.8553151 -1.6971831 0.91362154 12
1.7758647 6.7899103 -0.28345093 9.5
1.7226958 -6.5220199 2.2880263 11
1.5612677 -2.3057892 1.4621586 15
1.6538101 -2.2007504 1.4615742 15
1.738287 6.854424 0.10023339 11.25
1.4585894 -31.826366 6.8951845 8
1.583491 -10.383984 3.3250508 11
1.7298117 6.9223671 0.48775804 12.5
1.4920703 -12.836391 3.9920371 11
1.6920209 6.9728875 0.7982499 14
1.446911 -11.807117 4.3982968 12
1.2322499 -10.939865 4.2387714 13
1.4051595 -10.240421 4.1395082 13
1.2699929 -11.194159 5.3978195 15
2.1760671 -1.6539227 0.32543719 5
2.2418697 -1.3384011 0.27331942 5
2.0791092 -0.93958992 0.1966868 5
2.1785557 -0.61840791 0.16602129 5
2.218643 -0.20999923 0.085007504 4.6666665
2.1891541 0.24784678 0.010354901 5
2.1273806 0.56226867 -0.053354532 5
2.1707888 0.81868982 -0.096847862 5
2.0935404 -4.4606261 1.1398219 8
1.9842594 -2.158658 0.78649867 9
2.3535118 -1.4352657 0.56601965 8
2.0164068 -0.36498642 0.55153388 10.5
2.1154597 -0.26194206 0.51711607 10.142858
1.9881436 -8.7571754 2.4058104 9
1.956548 -7.7052126 1.9425169 9
2.0659039 -5.1973281 1.6912342 10
2.0764413 -4.3234596 1.453292 9.5
2.1009777 -4.1735234 1.6502738 11.333333
2.1704612 -2.3721883 1.2649231 12.5
2.1158769 -2.0903425 1.1435913 12.142858
2.0287797 -1.5686375 0.92790049 12
1.9987043 -0.33393031 0.82465225 14.333333
1.9965326 -0.21864696 0.79719579 14.25
2.1850095 6.7673564 -0.22976029 9.5
2.1213257 6.8219867 0.10453556 11
1.9685403 -10.388548 3.3644726 11
2.0828223 6.9034362 0.52906126 12.5
1.8717878 -10.301497 3.8595831 12
2.0193715 6.9672933 0.92269939 14
1.7112217 -12.729616 4.5495782 12
1.6910013 -11.581054 4.3764777 12
1.9199675 -11.323487 4.3435798 12
1.6998873 -10.687034 4.2406316 13
1.7601082 -10.224571 4.1903262 13
1.6743577 -11.129473 5.4167933 15
2.4618781 -2.4654179 0.55882114 6.5
2.5893936 -2.0306098 0.42931753 5
2.4646478 -1.5014781 0.38578287 6
2.4601569 -1.1455687 0.2715669 5
2.6070204 0.72611678 -0.032414451 5
2.3848581 -4.353375 1.1438137 8
2.5725048 -1.6203812 0.93464512 10
2.3810923 -1.4359328 0.8198657 10
2.4555962 -0.22852068 0.58058602 10
2.648854 6.6933527 -0.40861183 9
2.5048018 -4.4405651 1.4617907 9
2.2945621 -4.1828322 1.5472908 10
2.420424 -2.1014113 1.4095229 13
2.6041651 -1.6494834 1.1390752 12
2.6089849 -1.2769258 0.92348057 11
2.4961739 -0.14283554 1.0258801 14.666667
2.609848 6.7382197 -0.20035547 9.5
2.4413104 -2.1959634 1.5367217 14
2.5263777 6.8022881 0.17837867 11
2.3627365 -10.403702 3.4129152 11
2.5035479 6.8724995 0.56735975 12.5
2.1269605 -10.31775 3.9278841 12
2.4908888 6.9331145 0.94965535 14
2.1555781 -11.136806 4.337606 12
2.3727038 -10.904922 4.3135529 12
2.374162 -10.303185 4.2477603 13
2.1211612 -10.274625 4.1862254 13
2.3844306 -7.4942613 3.9518197 15
2.0782599 -11.057622 5.4394398 15
2.8009102 -3.7531486 0.87463981 7
3.0505879 -3.13766 0.66706014 6
3.0632503 -2.4837754 0.68652052 7
2.8814433 -2.2966325 0.50184858 6
2.8268371 -0.98686808 0.29073283 5
2.8119006 0.49354523 0.03566261 5
3.0240433 -3.2089534 1.0776645 8
3.0357244 -2.3601124 1.0112 9
2.9503131 -1.1203429 0.89628887 10.5
3.0292737 -1.1158632 0.77344489 9
3.0073891 -0.26269448 0.58221537 8.666667
3.0811369 3.2143166 0.06743817 8.333333
2.961668 3.4184556 0.059772719 8.5
3.0009081 3.8049047 0.0181858 8.5
3.0313838 4.2320104 -0.040333394 8.5
3.0581453 4.5914207 -0.13653274 8
3.0863769 5.0087976 -0.18544474 8
3.1279769 5.4919629 -0.2417216 8
3.1465518 5.8765907 -0.26009718 8.5
3.1852341 6.2529631 -0.33228275 8
3.0992846 6.6513104 -0.38450062 8
2.9683578 -5.025506 1.8247207 10
3.0636568 -2.7717669 1.4370334 11
2.7506509 -1.9357777 1.2910852 12.5
2.7385433 -1.6172103 1.1819905 12
2.8159878 -1.1868961 0.96477813 11
2.9958618 -1.0641654 0.93067139 11
2.9041762 -0.21263885 0.87325233 12
3.1236782 3.2715354 0.43645403 11
2.9587355 3.4319742 0.3884131 10.888889
2.9761786 3.8332946 0.24371022 10.333333
2.9965918 4.3079133 0.32190067 10.5
3.0401487 4.6727371 0.12243418 9.833333
3.061554 5.0447321 0.081665769 9.5
3.0887513 5.4687238 0.10979876 10
3.1139874 5.8651781 0.01220207 9.5
3.1623631 6.1696081 -0.17416631 9
3.0891695 6.6335106 -0.18093677 9.3999996
2.7146237 -1.8282573 1.4315411 14
2.7333477 -1.7456146 1.4200236 14
2.9903908 3.3501549 0.8721444 13.5
2.8976536 3.5304677 0.78697044 13.571428
2.9347007 3.9290404 0.69483852 12.8
2.9564807 4.2690997 0.63254714 12.5
2.9928882 4.6879973 0.60965425 12.25
3.0177996 5.0941749 0.47338897 11.6
3.0538914 5.5017762 0.4223429 11.5
3.0697284 5.9169774 0.44012302 11.5
3.1197505 6.2729106 0.28363025 11
2.9384966 6.7610736 0.16937388 10.5
2.8873057 3.5407104 1.0806657 14.75
2.8929589 3.9599521 1.065169 14.5
2.9104054 4.3905749 1.092289 14.5
2.9477174 4.7715859 1.0116969 14
2.9803226 5.1635957 0.91374862 13.75
3.0262868 5.4460673 0.73484689 13
3.040309 5.9760613 0.81525242 13.5
3.0706809 6.2914534 0.64076775 12.5
2.8819058 6.8379307 0.6194036 12.5
2.9202147 4.8978157 1.2373968 15
2.944263 5.3547568 1.2825055 15
2.9793639 5.6748967 1.183117 14.5
2.9947836 6.0318856 1.2088734 14.5
3.0502164 6.4569826 1.0000135 13.5
2.8466096 6.9073749 0.97984302 13.75
2.5879316 -10.699637 4.2994871 12
2.65622 -10.402264 4.3276138 12.666667
3.0014267 6.5070987 1.4008166 15
2.8332896 6.7648177 1.4013643 15
2.3319407 -10.928524 5.4198022 15
2.5982327 -10.870877 5.4368382 15
3.4444361 -8.0035477 1.4568001 6
3.2039442 -3.3482001 0.84010476 7
3.2558365 -2.6377218 0.59523809 6
3.2499721 -2.1005626 0.66876191 7
3.5114937 -1.7160935 0.6027984 7
3.346354 -1.3995482 0.409825 6
3.3143773 -3.2674146 1.2742016 9
3.2780573 -1.9964992 0.79382503 7.5
3.4122977 -1.6978195 0.82815409 8.333333
3.4427207 -1.4498284 0.76192993 8
3.3976109 3.0875473 0.12924466 8.5
3.4359179 -5.9532595 2.0944633 10
3.3470454 3.2143641 0.47286901 10.888889
3.2487049 3.3417945 0.89810455 13.333333
3.1292009 6.6432624 0.36840895 11.5
3.0400496 -10.439092 3.5047326 11
3.3575728 3.3711152 1.1552207 14.666667
3.0896132 6.6620536 0.73833758 13
2.9706695 -10.348433 3.9886301 12
3.0527275 6.8005185 1.097922 14
2.9066603 -11.376139 4.4412804 12
2.8730359 -10.275265 4.3472767 13
2.9791155 -6.2529564 3.5615659 15
3.1671081 -10.789968 4.6455922 13
2.8745358 -10.834737 5.4649668 15
3.8451481 -9.0278673 1.6738952 6
3.7302198 -1.446384 0.64583552 7
3.8450081 -0.35034218 0.47486037 7
3.6510477 0.28377834 0.15727311 5
3.7785556 0.70267856 0.1013367 6
3.6776409 -1.5392691 0.9336549 9
3.6407783 -1.4404054 0.8671453 8.75
3.8687727 -0.29512462 0.75610983 9
3.5789871 2.8033822 0.24581888 9
3.6711171 -1.4711869 1.4270048 12.333333
3.7430656 -1.3414325 1.2463423 11.333333
3.7044725 3.1434159 0.50896531 10.5
3.5908222 -1.6316031 1.5231081 13
3.6855104 3.3048534 0.86024421 12.5
3.467314 -10.467971 3.5690138 11
3.666698 3.3669574 1.1942519 14.5
3.3094718 -10.820573 4.3887873 12
3.5138104 -10.594049 4.3806629 12
3.2894027 -9.5072174 4.9750376 15
3.1419916 -10.76118 5.4794407 15
4.2375584 -2.1093271 0.72793162 6.5
4.2026434 -0.56289941 0.34350479 6
4.1541529 0.33147556 0.19859849 6
4.0954299 -3.0588453 1.3171123 9
4.1402049 -2.3663588 1.2170109 9
3.6357527 -31.794046 7.2030082 8
3.9634407 -10.647518 3.685636 11
3.8167911 -10.459977 4.04252 11.5
3.7623715 -10.920967 4.812943 13
3.9989972 -7.6394095 4.364871 15
4.7240095 -3.3154082 0.97136438 6.3333335
4.7043223 -3.9946599 1.198362 7
4.7066388 -3.227201 1.2431144 8
4.7211361 -3.0376806 1.1802435 8
4.6070957 -0.36125225 0.69891334 8
4.5775189 -0.23750305 1.3207624 12
4.3746715 -10.775092 3.2019947 9
4.5110025 -0.34020531 1.4994974 13
4.5025864 -0.14734611 1.7003382 14
4.3159761 -10.786703 3.7740192 11
4.2440844 -10.531351 4.2823329 12
4.3083062 -12.093468 5.2740355 13
4.333251 -11.687536 5.1920137 13
4.202178 -7.5647192 4.3872652 15
3.9476957 -12.378901 5.3438578 13
3.914947 -10.464464 5.5012436 15
4.9483557 -3.7101963 1.0183196 6.3333335
4.8039532 -3.454705 1.089406 7
4.8931341 -0.6600101 0.42666945 6
4.9848356 -5.4825077 1.579469 7
4.8955483 -3.6807196 1.3708498 8
4.9060531 -3.2991197 1.3556013 8.666667
4.8819504 -2.9641392 1.1946256 7.6666665
4.8830266 -1.0954634 0.75886023 7
4.9148493 0.4095805 1.1669637 10.5
4.9378905 -3.5350239 1.9576534 11
4.9303741 -3.0105371 2.0512595 12
4.984817 -2.7253935 1.9978077 12
4.8890934 0.40353501 1.3773526 12
4.6429825 -10.486999 3.7476916 11
4.8948584 -8.9096069 3.3896284 11
4.9210911 -8.4596567 3.2837167 11
4.9601865 -4.4577732 2.7506897 13
4.8870683 -3.4701238 2.5393722 13
4.8599453 -3.1300573 2.5718427 13.75
4.9376631 -2.7480316 2.405757 13.666667
4.7145743 0.12938273 1.9512433 15
4.70402 0.31221113 1.8742952 15
4.7018881 -10.469687 4.0641675 11
4.78197 -10.007792 3.9526479 11
4.7939334 -9.592021 4.123549 12
4.8230495 -9.3109159 3.9083433 11.5
4.8515978 -9.0246038 3.6978886 11
4.8628473 -8.6943722 3.881423 12
4.8495622 -3.3708239 2.8649759 14.666667
4.8699527 -3.0458002 2.802685 15
4.8822579 -2.7775359 2.7827034 15
4.6278439 -10.42646 4.3300333 12
4.7868071 -8.8657007 4.3717303 13
4.7476683 -8.4547577 4.2365589 13
4.791997 -8.0036125 4.0988693 13
4.374157 -11.005178 4.973083 13
4.4349866 -10.835876 4.9021201 13
4.5665421 -10.431578 4.8205924 13
4.7359004 -9.729351 4.6350493 13
4.7764435 -9.3684435 4.5289869 13
5.368681 -4.7827787 1.0738242 6
5.5219488 -1.982772 0.82737392 6.5
5.5418591 -1.7477239 0.7986601 6.5
5.5593615 -1.5386448 0.74812841 6.5
5.458076 -0.50828505 0.58375186 6.6666665
5.5316043 -0.23980856 0.56710881 6.6666665
5.3012242 -4.4589829 1.6371119 8
5.3396115 -2.8403916 1.3338159 8.333333
5.4911013 -1.9711663 1.1188549 8
5.5067916 -1.7324338 1.1120902 8
5.5251837 -1.4047979 1.0699425 8
5.3770037 -0.49422529 0.93115759 8.5
5.5057621 -0.17804532 0.80519831 8
5.479465 -1.8432994 1.4783376 10
5.4797573 -1.640038 1.4055492 9.6000004
5.4921732 -1.3797266 1.3527203 9.5
5.4017315 -0.30266058 1.2738161 10.5
5.4671531 -0.13031581 1.1713856 9.75
5.1590457 -5.6639166 2.4315448 10
5.2483563 -4.3266153 2.2051516 10.5
5.2696257 -4.0284104 2.1436827 11
5.2920799 -2.689894 2.0087569 11.5
5.3750725 -2.4181099 2.0691493 12
5.4030604 -1.8588408 1.9720281 12.25
5.423027 -1.576008 1.948885 12.4
5.4453712 -0.24446939 1.4889179 11
5.4106903 -0.095123269 1.7755233 12.5
5.1191387 -5.451313 3.0721216 13
5.1528215 -5.2046728 2.7999814 12
5.2134209 -4.2339587 2.7367623 12.666667
5.2375174 -3.9097283 2.741046 13
5.2491536 -2.6489713 2.4367867 13.5
5.361207 -2.3210969 2.3979785 13.666667
5.3764615 -1.9121221 2.3214655 13.666667
5.3995743 -1.5220155 2.1586804 13
5.3786235 -0.13522173 2.1022234 14
5.3990874 0.0077012572 1.9251854 13.666667
4.9009905 -8.3071823 3.7815259 12
5.0444584 -5.7426414 3.4951916 14
5.0752559 -5.3352299 3.4238272 14
5.1005883 -5.0079589 3.3280849 14
5.13065 -4.5755396 3.2486908 14.333333
5.1606755 -4.2001615 3.1937973 14.5
5.1919422 -3.9030247 3.0864048 14.5
5.2039638 -2.5786316 2.7751932 15
5.3130279 -2.2416582 2.7047822 14.666667
5.341095 -1.8638991 2.6617382 15
5.3675604 -0.0097186975 2.2748954 15
4.9433913 -6.9991946 3.858325 13.666667
5.0358825 -5.7818379 3.5618734 14
4.9591646 -5.358777 3.7926071 15
5.0295501 -4.905622 3.6647744 15
5.1313138 -4.5586305 3.3702319 15
4.8685665 -6.999526 4.3525481 15
5.5803418 -1.3470128 0.73674339 6.5
5.6558146 -0.077609546 0.54141855 6.5
5.6691079 0.22726354 0.55607074 7
5.689857 0.52036804 0.54284829 7
5.8087955 0.99852347 0.37017092 6.5
5.8256922 1.8546296 0.21903151 6
5.880445 2.2307608 0.15166166 6
5.8799281 2.5588539 0.12350777 7
5.9030795 3.4521971 0.040633239 7
5.9086318 3.6455903 0.021921435 7
5.5368161 -1.2592267 1.0588553 8.5
5.6244731 -0.045980167 0.84273219 8
5.6475196 0.29852024 0.8209424 8.5
5.6777601 0.6853891 0.74877042 8.166667
5.7110567 1.0611849 0.64549232 7.8333335
5.7435083 1.4996071 0.60692632 7.8000002
5.7702274 1.8488364 0.50296164 7.75
5.7984319 2.238446 0.49598962 8
5.7925644 2.629709 0.49044231 8.3999996
5.7770495 3.0115719 0.34755376 8
5.8674855 3.4748776 0.33782843 8
5.8929019 3.857991 0.28956214 8
5.9249511 4.3194656 0.18934357 8
5.4759045 -1.597755 1.6313639 11
5.4966474 -1.2809817 1.4926345 10.5
5.5884171 0.052968305 1.2143328 10
5.6085763 0.28346515 1.1670424 9.833333
5.6421657 0.76775509 1.0921546 10
5.6675911 1.1061872 1.0444432 10
5.6919451 1.5024031 1.023904 10
5.7277946 1.902819 0.92576838 9.5
5.7647552 2.3190048 0.89503819 9.833333
5.7299709 2.7778914 0.857961 9.75
5.7955804 3.1971285 0.68371361 9.5
5.8388634 3.5388856 0.66449773 9.5
5.8632441 3.938215 0.64714646 9.5
5.4412141 -1.4367511 1.8884342 12
5.459816 -1.1579655 1.865346 12.25
5.5515952 0.068481021 1.5951145 12
5.5796065 0.4090732 1.596929 12.142858
5.6064897 0.77560151 1.4873718 11.833333
5.6238508 1.1926904 1.4393631 11.5
5.6583276 1.6380466 1.4394976 12
5.686161 1.9531929 1.3300825 11.833333
5.7225909 2.3852918 1.2689064 11.5
5.7012649 2.803329 1.2245343 11.5
5.6635752 3.1670818 1.2137681 11.5
5.8000064 3.5356767 0.99608737 11
5.8235488 4.0708194 0.99768919 11.333333
5.3930445 -1.7361737 2.3695092 14
5.4068933 -1.4968395 2.3361633 14
5.4339423 -1.1213638 2.1718881 13.6
5.5121489 0.19209403 1.9993581 14
5.5356631 0.46906075 2.0111749 14
5.5697193 0.85070598 1.8554207 13.75
5.5935102 1.273826 1.8372946 13.857142
5.6208181 1.6343584 1.7986321 13.6
5.6548066 2.039115 1.7688482 13.5
5.6939874 2.3912127 1.6306593 13
5.6813121 2.7973733 1.5790684 13.25
5.6228495 3.2164705 1.6144903 13.5
5.7636952 3.5785048 1.4398088 12.6
5.7827978 3.9861131 1.4413573 12.6
5.7776651 4.2469134 1.4570521 12.5
5.3517885 -1.652205 2.6725242 15
5.3619709 -1.4390731 2.6469383 15
5.4181066 -1.1033568 2.4427254 15
5.3844166 -0.13191029 2.2950716 15
5.5475287 0.89436239 2.1447749 15
5.5479774 1.1846627 2.1629026 15
5.5979371 1.6660229 2.0698667 15
5.6309729 2.0630996 2.0722029 15
5.6526532 2.4994133 1.9974854 14.6
5.631916 2.9166989 1.9625432 14.6
5.6115646 3.3316612 2.0224719 15
5.7295952 3.6864409 1.7409846 14
5.7463608 4.1046681 1.7592423 14
5.5523939 4.5307684 2.0286908 15
5.5471907 4.7927513 1.9590307 15
6.0208845 2.7305777 0.14842859 7
6.0136333 3.0976853 1.0482846 11
5.8819304 2.3411055 1.5346953 13
5.9571562 3.3502452 1.7267762 14
6.8510456 5.2958398 1.8053956 13
7.347476 6.1557288 1.6304747 12
7.9480782 6.2928314 1.689296 12
8.2845964 6.3110852 1.7973816 12
8.9023695 6.2924862 0.27160069 8
8.8822308 6.2824516 0.56334752 8.5
8.8420286 6.3336487 0.89557177 9.5
8.7522058 6.4416895 1.5174444 11
