# .PCD v0.7 - Point Cloud Data file format
VERSION 0.7
FIELDS x y z intensity
SIZE 4 4 4 4
TYPE F F F F
COUNT 1 1 1 1
WIDTH 136
HEIGHT 1
VIEWPOINT 0 0 0 1 0 0 0
POINTS 136
DATA ascii
-0.49300063 -0.85795665 -0.1215573 138
-0.3098585 -0.87493813 -0.10729743 151.66667
-0.59398896 -0.74555916 -0.1509998 139
-0.42359912 -0.79493642 -0.12808809 149.33333
-0.36027697 -0.73669297 -0.1325167 159.5
-0.23357858 -0.78415239 -0.11387579 161.25
-0.69967544 -0.63212961 -0.17600341 134
-0.51242226 -0.68715513 -0.15357624 150.66667
-0.4402121 -0.63508362 -0.15494703 161.5
-0.30058396 -0.68042547 -0.13387862 167
-0.25555602 -0.63705868 -0.13299805 171
-0.14766535 -0.67867619 -0.11584119 168.2
-0.63805628 -0.59793907 -0.17461587 137.5
-0.5495227 -0.54511195 -0.16133973 142
-0.3254478 -0.55231601 -0.15712617 171.5
-0.21716428 -0.60283816 -0.13795762 169
-0.14106949 -0.56663465 -0.13196677 170.71428
-0.053641077 -0.56468737 -0.12043596 171.60001
-0.23387526 -0.48373505 -0.15248445 171
-0.13395755 -0.45967296 -0.13688858 174.25
-0.033421297 -0.47383356 -0.12849861 178.81818
0.048540212 -0.44228446 -0.1278626 183.5
0.86565644 -0.47406262 -0.050735131 198.33333
0.92499644 -0.41615981 -0.053489313 197
-0.45845118 -0.37070358 -0.18816388 173
-0.3335484 -0.35912988 -0.13216197 162
-0.11860558 -0.39643878 -0.14420457 176.5
-0.032378606 -0.37158936 -0.14307547 180.57143
0.088064566 -0.34297061 -0.1467087 179.66667
0.13155389 -0.34781018 -0.14206694 178.66667
0.70350194 -0.32209238 -0.067885354 188
0.77074057 -0.36718377 -0.063409232 191.8
0.83665973 -0.35209912 -0.059268333 194
0.94269872 -0.32841241 -0.067041591 196.5
-0.69023126 -0.31936339 -0.22114986 147.5
-0.61819971 -0.299784 -0.21669468 156.5
-0.51387376 -0.27151218 -0.21067204 171
-0.39690813 -0.23990835 -0.20439616 181.66667
-0.33462527 -0.29639646 -0.1923629 181
-0.22245231 -0.27332756 -0.17230716 177.66667
-0.13589682 -0.23898774 -0.17162286 178.66667
0.058812167 -0.29761976 -0.15523927 178.375
0.60934877 -0.22760935 -0.10305706 178.66667
0.67211437 -0.26682827 -0.094116688 182.73334
0.74753982 -0.26001754 -0.076496638 187.5
0.86071634 -0.25942725 -0.067375377 193.22223
0.94227374 -0.24609214 -0.069932342 195
-0.718337 -0.18791784 -0.24501704 147
-0.64939904 -0.17706503 -0.23521487 153.5
-0.52260107 -0.15824217 -0.22408302 169.5
-0.41656357 -0.14280887 -0.21668521 182.66667
-0.32360137 -0.17271221 -0.20174344 185
-0.23205698 -0.19095786 -0.17508395 173.75
-0.15888587 -0.17087507 -0.16973482 155.10001
-0.028175537 -0.17445827 -0.18044627 177.8
0.11306664 -0.15492128 -0.077803761 136.33333
0.59931308 -0.21647668 -0.11112397 178.33333
0.64995801 -0.16154496 -0.10933236 178.86667
0.76472527 -0.16672775 -0.092830621 185.20833
0.86171961 -0.16777174 -0.078553624 191.39999
0.96285266 -0.17651847 -0.077665724 195
-0.65523642 -0.049593601 -0.24984893 155
-0.5508486 -0.04718183 -0.24211106 170
-0.41868007 -0.043954123 -0.2309431 181.33333
-0.30190086 -0.073277824 -0.20606153 186.39999
-0.23625527 -0.074826464 -0.2041157 181.39999
-0.16590515 -0.075172424 -0.19941643 179.88889
0.67303628 -0.064938933 -0.11973221 178.53572
0.76980793 -0.058847543 -0.10867431 184.16667
0.87390524 -0.063896582 -0.090467915 191.23077
0.96326566 -0.06229993 -0.090566352 195
-0.52423942 0.068999209 -0.25708708 173.5
-0.42783701 0.059381243 -0.24661943 181.5
-0.29355758 0.046748366 -0.22105202 185
-0.23921044 0.040924154 -0.22109799 181.14285
-0.16095628 0.033064403 -0.213457 180.5
-0.056758605 0.022070881 -0.21062392 177
0.49944812 0.021862602 -0.15795919 170
0.67026526 0.036028046 -0.13322714 178.5
0.77109212 0.037969723 -0.11947025 184.22728
0.86156923 0.038862299 -0.10449116 190.25
0.94708109 0.033579301 -0.099645004 194.66667
-0.65132213 0.081555679 -0.27281499 155.5
-0.39648825 0.15589918 -0.25536916 181.5
-0.34325311 0.14391008 -0.25046024 182.5
-0.23701645 0.12018611 -0.23062748 182.75
-0.14088063 0.13072181 -0.22480838 180.81818
0.087160081 0.14843506 -0.17389934 173
0.18046857 0.11062304 -0.12136202 129.55556
0.23101132 0.08529029 -0.14421968 120.33334
0.61243159 0.15866195 -0.15763849 178.25
0.65549809 0.12700966 -0.14591996 179.41379
0.76677579 0.1354574 -0.12945801 185.61111
0.87321848 0.12424037 -0.11612286 191.81818
0.94557226 0.11813173 -0.1120737 194
-0.69797933 0.22359538 -0.29537582 149
-0.62250149 0.20665532 -0.28469071 160
-0.51793593 0.1831543 -0.27182296 171
-0.35321856 0.24744473 -0.26273477 181.33333
-0.22522481 0.20141473 -0.24098489 184.5
-0.15602157 0.17646059 -0.22714894 182.5
0.061638903 0.20667093 -0.21128644 177
0.59908831 0.19719161 -0.16036983 178.75
0.67147928 0.23055029 -0.15827636 182.53334
0.75157857 0.22208314 -0.1402479 187.125
0.85421097 0.23051077 -0.13232309 192.66667
0.96026129 0.22809991 -0.1352953 196.33333
-0.4610101 0.28609306 -0.27723303 167
-0.12216406 0.33207127 -0.24769013 180
-0.033715051 0.31869084 -0.24045269 182.18182
0.68753451 0.29845893 -0.15826589 186.44444
0.77235293 0.33422416 -0.1573039 191.7
0.85320848 0.32384342 -0.14635478 195.25
0.93218136 0.32775834 -0.15398763 196
-0.2828548 0.44278127 -0.2868785 179
-0.22908042 0.40579379 -0.27415469 180.33333
-0.095078453 0.41459706 -0.25683495 180.33333
-0.064743564 0.38930571 -0.25682375 179.5
0.78099591 0.40113673 -0.16325973 194.33333
0.88340443 0.41710031 -0.17028891 196.5
-0.35874805 0.49395105 -0.2982195 172
-0.18652229 0.4964186 -0.28079316 178
0.8605563 0.48190752 -0.17932492 198.5
-0.27322859 0.57295465 -0.29902393 174.5
-0.43663648 0.71794081 -0.33650619 157
-0.18559696 -0.22589168 -0.049573787 170
-0.087882318 -0.24010535 -0.0019949651 134
-0.028588815 -0.17193715 0.018473867 137.5
0.090663351 -0.141139 0.0015841254 119.69231
0.11715794 -0.14060651 -0.041016962 122.05264
0.086095594 0.12273221 -0.0578596 126.11765
0.13731501 0.11597849 -0.092404805 128.22223
-0.05697019 0.25944409 -0.054549981 161
-0.0087471129 -0.134341 0.031638902 124
0.052934632 0.13426201 -0.0045942669 123
0.012209049 0.2073544 -0.0093762167 137
