# .PCD v0.7 - Point Cloud Data file format
VERSION 0.7
FIELDS x y z intensity
SIZE 4 4 4 4
TYPE F F F F
COUNT 1 1 1 1
WIDTH 145
HEIGHT 1
VIEWPOINT 0 0 0 1 0 0 0
POINTS 145
DATA ascii
-7.5652418 -0.49448645 1.7721552 15
-7.2625289 3.1152635 0.34217748 11
-7.2764087 2.4408212 0.8692044 13
-7.4342546 0.92310452 1.6117722 15
-7.0058589 1.5584589 1.5838423 15
-6.7679009 6.2253733 0.3518016 11
-6.7231908 5.7831469 0.66516376 12
-6.5081329 5.0909047 -0.66644228 7.5
-6.5683331 3.8129888 0.4394002 11
-6.610301 3.2183554 0.68900746 12
-6.5557985 3.9441967 0.52208179 12
-6.6433997 3.1878178 1.0317755 13.5
-6.6224937 3.389765 1.4593296 15
-6.4008522 6.5234427 0.59270257 12
-6.3485122 5.473187 1.1480795 14
-6.1047506 6.5279593 1.4993992 15
-5.5676956 6.4605656 0.16129047 11
-5.3398962 6.4494085 0.76669461 13
-5.4902124 6.4718585 1.0884522 14
-5.1703744 5.6587029 -0.31154454 9
-4.6964116 5.9345708 -0.65857226 7
-4.5617843 -1.4098798 1.1116941 14
-4.5173936 6.6066236 1.1435471 14
-3.994163 6.6337209 -0.069655493 10
-3.8704064 6.5915251 0.34907568 11
-4.057445 6.9446578 1.4875919 15
-3.7787538 6.4997897 -0.53497022 8
-3.8067396 6.5199213 -0.18104164 9
-3.7381277 6.5576854 0.45286012 12
-3.5534673 6.9003167 0.89515066 13
-3.5955508 6.966516 1.1617117 14
-3.3018582 6.8073902 -0.20406398 9
-3.4301598 6.8288879 -0.10257326 10
-3.3325391 6.8883824 0.37745109 11
-3.1469247 6.8969789 1.2888225 15
-2.5538983 6.7692461 -0.36493671 8
-2.3455307 6.8010836 0.20981053 11
-2.2939811 6.8688579 1.1475201 14
-1.2177874 -1.4795505 0.3165082 11
-1.3022628 6.7650986 0.32399917 11
-1.4972231 6.8970637 1.0711137 14
-1.0936102 -2.2265868 0.41097933 10
-0.9559086 -2.366513 0.51624542 11
-0.86711609 -0.37442413 0.26095572 15
-0.73461711 -4.5448942 0.55647606 8
-0.74443656 -2.227468 0.41845512 10
-0.56958985 -4.4367204 0.89187378 11
-0.3138324 -4.5463376 0.45387158 8
-0.31974784 -1.4438243 0.35659429 12
-0.32213491 6.7106471 -0.035312071 9
-0.35061797 6.739593 0.15652075 10
-0.0029104336 0.89781821 -0.32553831 0
-0.0043081366 -1.1434485 -0.068487518 3
-0.12962766 3.2469201 0.2222212 11.5
-0.166302 3.2786906 0.45928326 13.5
-0.17155516 3.3019774 0.67382842 15
0.1561476 0.82144862 -0.30166778 0
0.069416672 1.1235042 -0.34352818 1
0.17211376 -1.0724066 -0.067337178 3
0.38780588 0.89247787 -0.2881088 0.5
0.24231793 1.0492773 -0.32518849 1
0.20903848 3.2363303 0.24727073 11.5
0.34224108 3.2597587 0.52609885 14
0.52429962 0.68200535 -0.23764814 0
0.60511774 0.7841897 -0.25832444 1
0.53951603 1.1325161 -0.30708823 2
0.58750242 -1.005578 -0.042637337 3
0.56625015 -1.5510447 0.30658528 9
0.40327686 -1.9650875 0.43634361 10
0.5514673 -1.4625554 0.43121731 12
0.48097843 2.9629188 0.23580442 11
0.44621384 3.0563653 0.2742382 12
0.6396268 0.31018299 -0.19283 0
0.80180866 0.52945393 -0.200966 1
0.61085743 -1.1248326 -0.026682492 4
0.59674352 2.9155431 -0.014239215 9
0.65396452 -1.5774593 0.41804153 11
0.75192374 -1.3473216 0.43716562 12
0.64487737 3.197067 0.15570693 10
0.7040838 -1.3642583 0.62118322 15
0.90906876 -1.5655265 0.087848485 6
0.81527227 -0.66203558 -0.0182319 4
0.89775217 -0.4632602 0.38209209 14.5
0.90144557 -0.32340863 0.33375591 14.5
0.93411267 -1.4261317 0.63246852 14
0.79536253 3.2182395 0.27759394 11.5
0.82269233 3.221499 0.48480871 13
0.80520368 3.2601929 0.57439625 14
0.77284372 3.2655437 0.69798505 15
1.113083 0.55611628 -0.19187801 2
1.0825323 -0.34750473 0.35656431 13
1.4059626 -2.1910267 0.40425873 9
1.4969248 -0.41288689 0.33345956 11
1.4831131 -0.3695251 0.37732306 12
1.4695767 -0.31883919 0.55177855 15
1.8789054 -0.35200003 0.38269556 10.5
2.2556272 -0.36809292 0.28949758 9
2.5512609 -0.41294193 0.25714508 8
2.5777042 -0.11590391 0.29453754 8
2.5514205 -0.09114214 0.49186122 10.5
2.5386753 -0.05087617 0.59431463 12
2.4873796 -2.5866408 1.0829331 13
2.5237334 -0.027761018 0.81179208 14
2.4858396 6.3084555 0.77683645 12
2.6403925 -1.9911939 0.50283229 9
2.6623783 -1.7748296 0.33355147 7
2.6598005 -1.5550717 0.42757848 8
2.6879284 -0.066390947 0.35794881 9
2.7567749 1.5601034 0.16440226 8
2.774363 2.2521851 0.15045235 8
2.5939486 -2.3846037 0.69332004 10
2.6081223 -1.956293 0.6395272 10
2.6311994 -1.5716206 0.61374402 10
2.7240202 1.8349034 0.39196855 10
2.7612545 2.2357681 0.18717633 9
2.6495147 -1.9794211 0.87367612 12
2.6700864 -1.5259581 0.84522957 12
2.6898668 0.068665199 0.72181702 13
2.7070613 0.50019121 0.71843797 13
2.6840951 1.0466666 0.57152134 12
2.7243242 2.3538373 0.51506323 11
2.6438427 2.7655802 0.40297756 11
2.6574764 3.0157568 0.32163951 10
2.5598557 -2.1263843 1.1317095 14
2.5757809 -1.8844368 1.0291576 13
2.6647909 -1.5272174 0.9350872 13
2.6952493 0.090482138 0.95146906 15
2.6439581 0.3804698 0.86374712 15
2.7180123 1.1747861 0.7164942 13
2.7460246 1.7618586 0.61915642 12
2.7070048 2.0410001 0.61295611 12
2.6543095 2.8001323 0.613343 12
2.7160268 0.95229757 0.92081046 15
2.7216363 1.3336151 0.94800699 15
2.685122 1.9426374 0.92385125 15
2.6018999 2.8575625 0.84339386 13.5
2.7347374 4.1583562 0.70344043 12
2.6855056 2.4520221 0.97844201 15
2.6024799 2.853512 1.0121827 15
2.5801783 6.4075036 1.6319923 15
2.7810352 2.6463304 0.29445344 10
2.7951047 4.0082288 0.26951605 10
2.7538075 2.5444517 0.73020482 13
2.7597067 4.0234838 0.56268877 11
2.7400017 3.9260719 0.81961775 13
