# .PCD v0.7 - Point Cloud Data file format
VERSION 0.7
FIELDS x y z intensity
SIZE 4 4 4 4
TYPE F F F F
COUNT 1 1 1 1
WIDTH 108
HEIGHT 1
VIEWPOINT 0 0 0 1 0 0 0
POINTS 108
DATA ascii
-0.23057526 -0.93934214 -0.12207837 155.5
-0.10233626 -1.0020866 -0.10044816 153
-0.069697656 -0.93751389 -0.10561831 160.33333
0.065509818 -0.95517862 -0.095344596 162
0.1963968 -0.96079046 -0.081066594 160.5
-0.19532816 -0.88606375 -0.12299307 162
-0.16669068 -0.84721529 -0.13130365 166.66667
-0.032136586 -0.86661571 -0.11595452 167.66667
0.10078711 -0.85271406 -0.10235201 167.75
0.21977872 -0.84851307 -0.09184365 168
0.44135222 -0.85047096 -0.071059339 170
0.55070859 -0.82057101 -0.065517478 174.66667
-0.10561076 -0.7551921 -0.13341387 174.75
-0.025431179 -0.77280819 -0.12665734 171.33333
0.021128204 -0.76074052 -0.12375583 169.5
0.13600852 -0.75237978 -0.11109851 172
0.2404498 -0.75093406 -0.1022013 176.8
0.43580338 -0.75656438 -0.082047261 185.5
0.53854048 -0.75574034 -0.075857356 186
0.6447317 -0.75873405 -0.063129812 186
-0.035763267 -0.65206879 -0.13941938 176.39999
0.061772987 -0.67682964 -0.12569028 176
0.16565731 -0.66533607 -0.11613159 184
0.26119342 -0.64259315 -0.10728338 188.5
0.45692092 -0.61648244 -0.056092471 159
0.59634566 -0.64549983 -0.045841433 159.5
0.68314594 -0.62622011 -0.033915188 158
-0.053266186 -0.55501944 -0.14553383 96
0.060065471 -0.56062084 -0.13564248 186.45454
0.1730096 -0.5732857 -0.12519339 187.10001
0.26915529 -0.55572224 -0.11657359 186.28572
0.44884402 -0.55575711 -0.063450217 156.71428
0.56282145 -0.55552018 -0.048801135 157
0.63733077 -0.53834248 -0.039547592 155.75
0.74881774 -0.56293255 -0.035876777 159.2
0.82409894 -0.51564819 -0.036304925 160.66667
-0.035882577 -0.48314694 -0.11145103 120.41666
0.062763363 -0.44955909 -0.14542663 184.66667
0.15533566 -0.48760664 -0.13506991 185.375
0.26561099 -0.48545223 -0.1271807 177.57143
0.35794184 -0.4662126 -0.096729435 156.63158
0.44517282 -0.4590092 -0.098400541 161.92
0.5547213 -0.44232142 -0.076776236 160.28
0.66125286 -0.45286795 -0.053799216 144
0.75730449 -0.43692571 -0.063078552 144.33333
0.80851644 -0.49625957 -0.046589572 162
-0.13905817 -0.36454341 -0.13080212 129.94118
-0.047720738 -0.35268444 -0.15565963 154.25
0.082829162 -0.36819193 -0.15887363 180.66667
0.1668181 -0.36481923 -0.15634266 179.33333
0.24912541 -0.38160494 -0.14684087 178.41667
0.34656599 -0.37871119 -0.13636252 177
0.45410165 -0.35179263 -0.12623835 175.71428
0.56146526 -0.36037797 -0.11187834 178.47368
0.65254432 -0.35514525 -0.098331399 182.73914
0.72541881 -0.39684141 -0.085476838 188
0.052430872 -0.27841491 -0.16312025 179
0.37923807 -0.26331136 -0.15569636 169
0.48924914 -0.27562043 -0.14190017 171.83333
0.56414801 -0.26595992 -0.12681186 174.05714
0.62878472 -0.28470325 -0.11609868 177.25
0.17990437 -0.14728233 -0.089623287 137.69231
0.25752723 -0.14120635 -0.10704301 126.25
0.36235622 -0.14839089 -0.16020764 156.625
0.46821839 -0.15138942 -0.15763144 168.8983
0.51250166 -0.14858095 -0.15383986 170
0.46728435 -0.10391383 -0.16136138 168.88889
0.27799869 0.14787556 -0.19464883 168.44444
0.40293902 0.093171515 -0.1663571 166
0.60201716 0.16426626 -0.17683859 178
0.63742441 0.15090622 -0.16526692 179.25
0.50794441 0.27061924 -0.18876305 179
0.56892312 0.23603158 -0.17932625 179.33333
0.66257602 0.24309961 -0.17280364 183.3
0.74069822 0.22676615 -0.15734398 187.29411
0.84197402 0.2628451 -0.1551434 193.33333
0.36070791 0.35159683 -0.20813543 179
0.4558742 0.31721234 -0.19709121 179.15384
0.56500793 0.33401558 -0.18614137 183.5
0.6614657 0.32635933 -0.17303374 187.08333
0.76545483 0.33778724 -0.1710967 191.81818
0.83637172 0.34200802 -0.16634509 194.66667
0.93172437 0.3137714 -0.16974936 196.5
0.05407241 0.39821607 -0.229634 189
0.18849336 0.44087651 -0.22667338 187
0.24830949 0.46886745 -0.22210671 188.5
0.35419181 0.46741739 -0.21263814 188.14285
0.48024797 0.43823975 -0.20071255 187.5
0.55914712 0.42572325 -0.19308281 188.44444
0.6587038 0.43260786 -0.18782158 192
0.73895931 0.4308753 -0.18264759 194.5
0.83985955 0.4467763 -0.18149634 197.5
0.91281295 0.4002544 -0.17607334 198
0.28779438 0.50698084 -0.22486788 189.33333
0.35938093 0.49956986 -0.2166549 189.33333
0.45623103 0.53189462 -0.21600291 190.25
0.57330823 0.5241558 -0.20632075 193.71428
0.65211952 0.53028756 -0.20177154 196
0.81236911 0.54842663 -0.19277145 200
0.29853663 0.59082371 -0.23176983 193
-0.064501777 -0.47006735 -0.011562293 72.666664
0.33186463 -0.43235371 -0.035532683 142
-0.060406759 -0.28077 -0.029435188 149
0.028931541 -0.20624168 0.016951436 133
0.15556441 -0.14738797 -0.065571748 133.8
-0.048253268 -0.55597204 0.056809857 36
-0.079573214 -0.46464366 0.037813947 66
0.24374533 -0.42284283 0.12866385 142
