# .PCD v0.7 - Point Cloud Data file format
VERSION 0.7
FIELDS x y z intensity
SIZE 4 4 4 4
TYPE F F F F
COUNT 1 1 1 1
WIDTH 90
HEIGHT 1
VIEWPOINT 0 0 0 1 0 0 0
POINTS 90
DATA ascii
-0.40253845 0.54719251 -0.52471 0
-0.41234615 0.74098003 -0.61698806 1
-0.44426769 1.4070174 -0.96297717 3
-0.073896877 -1.854695 0.79283452 5
-0.14066686 -1.6977849 0.66305101 4
-0.18740161 -1.3396858 0.47331575 3.4000001
-0.072817214 -0.94885147 0.26392278 1.4
-0.029040949 -0.73154408 0.15167226 0
-0.21802898 0.5390256 -0.5105347 0
-0.20497991 0.79382217 -0.64061147 0.60000002
-0.18501881 1.1420991 -0.81513655 2
-0.14932156 1.5363109 -1.0209242 3
-0.14621206 1.8078685 -1.1644305 3
-0.13468108 2.1714323 -1.3579391 4
-0.21877854 2.5351188 -1.5582261 4
0.18383101 -1.9336836 0.82439905 4.5
0.22311324 -1.6760045 0.66157007 4
0.15078028 -1.3544387 0.49923438 3.4285715
0.2206673 -0.95228356 0.27269369 1.3076923
0.23988193 -0.67143494 0.14167769 0.14285715
0.1930144 0.5481267 -0.49746934 0
0.18153071 0.7629196 -0.61029059 0.33333334
0.19548292 1.1550691 -0.80509645 2
0.14037904 1.5110906 -0.99005008 3
0.22368535 1.938499 -1.2161905 3.5
0.20199095 2.2005892 -1.3555875 4
0.17204811 2.5717616 -1.5556109 4
0.13273823 3.055052 -1.8149592 4
0.56976795 -1.8701093 0.81129026 4.6666665
0.56061089 -1.6579145 0.66077185 4
0.59666055 -1.2975479 0.47308034 3.2857144
0.6035068 -0.96972406 0.30135348 2.1666667
0.59978783 -0.6057961 0.13152377 0.85714287
0.66069508 -0.29492033 -0.028331121 0.2
0.61294633 0.23489574 -0.31564888 0
0.5903241 0.4637436 -0.44092208 0.30000001
0.58130556 0.79929411 -0.61782885 1.8888888
0.54820877 1.1797894 -0.80587697 2.7142856
0.59499788 1.5377947 -0.98867369 3.5
0.58899802 1.8238089 -1.138732 3
0.5166589 2.1621308 -1.3182155 4
0.54507315 2.5841992 -1.5522224 4
0.56182021 2.87853 -1.7067585 4
0.58316326 3.2501731 -1.9024366 4
0.61339301 -1.7541597 1.0326434 8
0.86159295 6.8830814 -4.0119433 4
1.0564727 -1.6715591 0.76029587 5
1.031866 -1.2740065 0.48533204 3.8
0.99459755 -0.93591887 0.31121394 3
1.0132849 -0.57376236 0.12925063 2.2222223
0.92584956 -0.36005571 0.022906644 1.6666666
0.82916784 0.53381842 -0.47888765 1.5
0.95147485 0.81190485 -0.61211979 2.6666667
1.0041505 1.151439 -0.7793594 3.5999999
1.0249523 1.4805294 -0.95108461 4
1.0051486 1.9494994 -1.1981225 4.3333335
0.86207885 2.2694077 -1.3692503 4
0.93691629 2.6409807 -1.5631962 4
1.001327 2.9617579 -1.730154 4
1.0102506 -1.6409147 1.0216105 8.1999998
1.4245455 -1.5950891 0.77156401 5.5
1.4122649 -1.3249632 0.53030568 4
1.3695838 -0.90988541 0.31983852 3.8
1.3808913 -0.62961382 0.18046458 3.3333333
1.2565103 1.1689924 -0.77573234 4
1.364604 1.5386733 -0.97081566 4
1.4518459 1.9767286 -1.2025403 5
1.3857458 2.2057805 -1.3258748 5
1.3468673 2.6105237 -1.5398697 5
1.3885016 -1.5600889 0.96198356 8
1.8571898 -1.5081674 0.72223961 5.5
1.8336843 -1.221076 0.49287948 4.3333335
1.7654948 -0.88934976 0.33085516 4.25
1.8120748 1.9592267 -1.1836463 5
1.7049905 2.4605823 -1.4566272 5
1.894363 2.8198547 -1.6478637 5
1.8439451 -1.4119706 0.93539202 8
2.2646041 -1.3263153 0.62151343 5.3333335
2.1070766 -0.95212018 0.37968403 5
2.0753615 2.3309269 -1.3786787 5
2.2680871 -1.2757266 0.90517551 8
2.542407 -1.1593707 0.57605594 5.5
2.5619657 3.0258329 -1.7343104 5
2.6040695 -1.1235149 0.86416358 8
2.9750099 3.7727065 -1.9405606 6.3333335
3.0771728 4.1584301 -1.8691556 8
3.4422507 6.0482168 -3.0852952 7
3.5367446 6.0498343 -3.2572594 6
3.413377 6.3499575 -2.9024751 8
4.2922869 6.0945034 -2.634896 8
