# .PCD v0.7 - Point Cloud Data file format
VERSION 0.7
FIELDS x y z intensity
SIZE 4 4 4 4
TYPE F F F F
COUNT 1 1 1 1
WIDTH 561
HEIGHT 1
VIEWPOINT 0 0 0 1 0 0 0
POINTS 561
DATA ascii
-12.373501 -3.1535459 5.1318159 15
-12.381712 -2.8609748 5.0215821 15
-12.309186 -2.2711911 4.7785311 15
-12.321288 -1.9919627 4.6816697 15
-12.304408 -1.7111925 4.5772815 15
-12.13374 -1.1414776 4.328701 15
-12.067816 -0.86801279 4.2178316 15
-12.101805 -0.60164386 4.1414056 15
-11.187846 -1.2952476 4.1012545 15
-10.755167 -2.2818356 3.6957223 14
-9.5296364 -2.0840151 3.615551 15
-9.033946 2.8383465 1.628695 15
-8.8130913 2.9888008 1.5578671 15
-8.0932837 2.4851401 1.7310718 15
-7.717597 3.8509889 1.2130365 15
-7.5114584 3.9641938 1.1590873 15
-6.4981556 -3.7161698 2.3260617 10
-6.4001484 -3.5228112 2.7123361 12
-5.837348 -3.5940299 1.9961866 10
-5.8317518 -3.5113914 2.1833241 11
-5.8452992 -3.3804467 2.5696852 12
-5.5478396 -3.5504181 1.812699 9
-5.3511882 -3.2854741 2.353323 11.5
-5.1362338 2.7396407 -0.44034305 10
-4.999588 -3.1627479 2.322408 12
-5.1329556 2.8879979 -0.10320297 11
-4.9835219 -3.0885317 2.4201324 13
-5.1166162 3.0558064 0.431687 14
-4.9878278 8.2407846 -1.5621475 11
-5.0915146 3.2122591 0.65298635 15
-4.9247289 8.420393 -1.1809072 12.5
-4.4755354 6.9273677 -1.7025951 10
-4.7741499 8.0435829 -2.2923126 9
-4.6723962 8.1319294 -2.4077938 8.5
-4.5809336 -3.054208 2.2460694 12
-4.6250987 -3.0249398 2.2915893 12.5
-4.4879494 7.0424705 -1.296116 11
-4.5243702 6.970149 -1.2351478 11
-4.6963034 8.4440336 -1.5863554 11
-4.6383753 8.6103153 -1.222123 12.5
-4.4753127 7.2904024 -0.39279935 14
-4.0785875 5.4647422 -1.2631649 10
-4.4355812 6.5325046 -1.5828948 10
-4.2559409 6.9769955 -1.7566183 9.5
-4.1165938 7.0688076 -1.7548047 10
-4.1567259 5.8482065 -0.98527664 11.333333
-4.3599348 6.5000491 -1.1779325 11
-4.2042198 6.179368 -0.77202445 12.5
-4.3886104 6.7752199 -0.88163882 12.5
-4.4126115 7.1541023 -1.1608615 11.5
-4.4608345 8.5199194 -1.5795724 11
-4.1172481 6.0606756 -0.32695127 13.666667
-4.295033 6.6026559 -0.54979348 13
-4.374167 7.2874608 -0.76578724 13
-4.1138864 7.4020605 -0.67217284 14
-4.1676207 6.3269339 -0.12408456 15
-4.3618774 6.8992596 -0.26827028 14.5
-4.2052999 7.4825568 -0.26076725 15
-3.7591779 4.4405546 -1.2092692 9
-3.7440636 5.4614224 -1.764256 8
-3.8503072 5.8978448 -1.8731426 8
-3.9582493 6.4169493 -2.0854785 8
-3.6510668 -2.3184116 1.3791946 10
-3.6758559 4.2981238 -0.91525054 10
-3.721081 4.4661894 -0.93285555 10.5
-3.8798583 4.8132334 -1.2129666 9.666667
-3.9809318 5.1993756 -1.3453931 9.333333
-3.8170984 5.5478435 -1.4043007 9.666667
-3.8307261 6.0091014 -1.4996296 10
-3.8773472 6.2052555 -1.7096196 9
-3.8696501 7.0579343 -1.8940082 9.3999996
-3.657022 4.3630848 -0.61925852 12
-3.7340362 4.6416178 -0.63437313 12
-3.8758321 5.0094481 -0.78497946 11.666667
-3.9898822 5.3486142 -0.89826113 11
-3.7127576 4.7831736 -0.097730249 14.5
-3.8514273 5.1295743 -0.5227074 13
-3.9877326 5.5793023 -0.59774894 13
-3.7101684 7.3638949 -1.2303028 11.5
-3.8526382 5.2881851 -0.10171046 14.5
-3.9805193 5.6581845 -0.15783805 14.333333
-3.7682481 7.4867535 -0.76627922 13.666667
-3.7833581 7.5906019 -0.3051587 15
-3.2492347 -2.2151601 0.94779217 8
-3.3112879 3.3211372 -0.86512953 9
-3.4966011 3.7280631 -1.0849339 8.666667
-3.4430647 3.9786315 -1.1686178 8.5
-3.5354557 6.9909062 -2.1849749 8
-3.536881 -2.3235648 1.5231888 11
-3.2989798 3.4628143 -0.54593629 11.25
-3.4687369 3.7549453 -0.70032364 10.5
-3.6085827 4.0758352 -0.90485466 10
-3.5165656 7.1234446 -1.8490179 9.5
-3.2670698 3.592865 -0.20785134 13.5
-3.4791045 3.8876781 -0.45298901 12.333333
-3.6048253 4.2514715 -0.55934972 12
-3.3040917 3.6967783 0.01357774 14.5
-3.488776 4.0890293 -0.018677112 14.666667
-3.5840926 4.3825235 -0.06081792 14.5
-3.4508362 7.3287935 -1.3224096 11.666667
-3.4255819 7.4678392 -0.90984488 13
-3.4360247 7.6345067 -0.46321288 14.6
-2.990629 -2.119724 0.98066926 8.5
-3.1598971 2.9729424 -0.72824454 9.5
-3.0599403 4.0944157 -1.2231797 8.25
-3.0580916 -2.0590243 1.2021306 10
-2.9431119 -0.58143944 0.78419495 12
-3.1492546 3.0662766 -0.42038345 11.5
-3.2130663 3.2166135 -0.5660674 10.666667
-3.0641642 7.218205 -1.9040288 9.5
-3.139817 3.1921499 -0.085190713 13.75
-3.1904345 3.3630457 -0.22384585 13
-2.9305589 7.3827372 -1.5026757 11
-3.1471312 3.2951298 0.087190561 15
-3.207397 3.4659686 0.048908103 14.5
-3.0313468 7.4417253 -1.3663152 11.5
-3.0484324 7.5856462 -0.92522317 13
-3.03636 7.7347827 -0.53871787 14.5
-2.4817297 -2.6782537 1.1085011 8
-2.5541649 -2.4358249 1.1139127 8.6000004
-2.6156647 1.3140707 -0.16729461 10
-2.7460182 6.0058646 -1.8390468 8
-2.5385377 6.1450691 -1.8651664 8.5
-2.6933148 7.2465692 -2.231637 8
-2.6167266 -2.5001204 1.3883054 10
-2.6490307 -2.3438561 1.4965392 11.5
-2.6107082 -0.38834569 0.89585692 14.666667
-2.5869527 5.231339 -1.3399421 10
-2.6072354 5.6511345 -1.60747 9
-2.6477373 6.1178141 -1.7582692 9
-2.7106841 7.3417687 -1.9214907 9.666667
-2.5812619 -2.3368263 2.0156405 15
-2.6454198 -2.2031801 1.8207089 14
-2.7652943 7.4829745 -1.5228289 11
-2.7300661 7.538909 -1.3961922 11.5
-2.5854516 7.5705991 -1.3918406 11.666667
-2.6773422 7.7116542 -0.94046164 13
-2.4825966 7.7475281 -0.94252706 13
-2.7385798 7.8461618 -0.55051231 14.666667
-2.5744669 7.8843179 -0.58478761 14.5
-2.3083272 -2.6197996 1.1743199 8.5
-2.109271 -2.615289 1.009889 8
-2.2955391 -1.4980315 0.76499283 9
-2.1549008 -1.3062786 0.77484983 10.5
-2.1063733 -0.46405557 0.4718428 10.75
-2.0306418 -1.100263 1.0052078 14
-2.3301828 -0.55905795 0.8563922 14
-2.2120891 -0.39659113 0.75695747 14
-2.2006199 7.5162787 -1.9518683 10
-2.070308 -2.2757962 1.8954949 15
-2.216414 7.6379032 -1.5451989 11
-2.2380681 7.6743026 -1.4394628 11.5
-2.2108953 7.8583264 -0.95377582 13
-2.3498361 7.7170815 -0.41170415 15
-2.1586435 8.011795 -0.60726947 14.5
-1.9483932 -2.5083199 1.1488526 9
-1.8578935 -0.81764102 0.58511275 10.636364
-1.8574498 -0.56143516 0.46980235 10.571428
-1.7902768 5.454823 -1.5791869 9
-1.8965697 -2.3645377 1.4978709 12
-1.848647 -0.74172217 0.81116682 13.8
-1.8479859 -0.48725101 0.67302197 13.8
-1.8436806 5.4555802 -1.477236 9
-1.8250037 7.6612611 -1.9721214 10
-1.8881373 -2.2362106 1.8458393 15
-1.7696843 7.8124723 -1.5747765 11
-1.8319306 7.8352098 -1.4575174 11.6
-1.9361954 7.9696016 -0.96307993 13
-1.7980385 7.7430949 -0.44101492 15
-1.8548136 8.0352621 -0.61702633 14.5
-1.2109724 0.57738715 0.19820924 15
-1.2101104 0.99430436 0.052864872 14
-1.3391604 1.2562175 -0.11242722 12
-1.3283159 1.2947594 0.0064358898 14
-1.4729943 5.5594254 -1.5545663 9
-1.5176898 7.7560453 -1.9860346 10
-1.4051694 7.8211346 -2.0011179 10
-1.3383263 7.8434272 -2.0001049 10
-1.5627302 7.927145 -1.471802 11.666667
-1.3412726 8.0103607 -1.5058374 11.5
-1.3196012 7.8166661 -0.48863587 15
-1.5490723 8.0935163 -0.63214576 14.666667
-1.3411252 8.2737827 -0.72960371 14
-0.85960901 -1.4717536 0.84426713 11
-0.81406742 -1.4150907 0.79182851 11
-0.81965429 -0.53615862 0.51424861 15
-1.0431321 0.45635226 0.16695298 15
-1.1839303 0.67980784 0.14186241 15
-1.174215 0.87311006 0.078030691 14
-1.1622086 0.87875903 0.12395385 15
-1.0450778 5.6971121 -1.5780487 9
-0.99694645 7.8977251 -2.2363579 9
-1.0037127 7.9827518 -1.8974824 10.333333
-1.0926255 8.0950804 -1.5070922 11.666667
-1.0971384 7.8206701 -0.50276995 15
-0.98468888 8.0917397 -0.60997033 15
-1.0450081 8.3557062 -0.78185642 14
-0.49397478 -0.99464947 0.15889959 2.5
-0.42156205 -0.67974365 0.045238882 0.33333334
-0.55421454 -0.40049765 -0.06479463 0
-0.71409732 0.30314034 -0.3150484 0
-0.4828904 0.54439646 -0.40837601 0.33333334
-0.39896467 -1.5571316 0.86385274 11.333333
-0.55449212 -1.2463394 0.74539363 12.25
-0.62892944 -0.83102989 0.6423828 14.5
-0.74480277 -0.48570228 0.47610924 15
-0.41323733 -1.4926093 1.052458 14.5
-0.49476761 -1.1968675 0.89754438 15
-0.71303368 5.8372478 -1.6203038 9
-0.61699831 7.9974442 -2.2494047 9
-0.64487916 8.1155863 -1.8708953 10.5
-0.70104223 8.2248793 -1.5037769 11.666667
-0.60654598 8.4384241 -0.98513347 14
-0.65751272 7.7031522 -0.48127556 15
-0.67401218 8.4629421 -0.77629536 14
-0.38192141 -0.87805039 0.11396513 1
-0.26198006 -0.70028913 0.045576859 0.16666667
-0.36561906 0.48286417 -0.3836306 0
-0.23093094 -1.8072493 0.95514959 11
-0.20171301 -1.6865927 0.90015137 11.25
-0.37911373 -1.4108227 0.76545149 11
-0.21458836 -1.7334729 1.1335814 13.5
-0.1992877 -1.5899968 1.0680043 14
-0.20969139 7.6115561 -2.0572844 9
-0.35475418 7.9461141 -2.2143483 9
-0.17964439 7.6313291 -1.8719194 10
-0.3413645 8.0457726 -1.865091 10.5
-0.11075569 7.7909489 -1.347409 12
-0.25934801 8.0671577 -1.4528972 12
-0.1939486 7.5943112 -0.46075913 15
-0.41798818 7.9974074 -0.60097897 15
-0.26858681 8.5026684 -0.82583714 14
0.19564973 -1.8130882 0.90954167 10.4
0.17391089 -1.7651443 0.88227689 10.333333
0.22231059 -1.2660704 0.71314293 12
0.18593299 -1.7346743 1.1358099 13.5
0.1771445 -1.6780162 1.1042013 13.5
0.23187441 -1.2483119 0.90153068 15
0.20286122 7.5754905 -2.1069689 9
0.16503283 7.6943688 -1.7532797 10.5
0.11987524 7.8491669 -1.30537 12
0.23076855 7.4992146 -0.43730837 15
0.062433757 7.5437832 -0.44779778 15
0.037727877 7.9010124 -0.58849967 15
0.10990319 8.4067116 -0.78476143 14
0.13937141 8.7986917 -1.0028268 14
0.70458031 -0.23239505 -0.12066619 0.33333334
0.71908087 0.11456884 -0.24818179 0.33333334
0.75503838 0.3540456 -0.34356439 0.5
0.61765146 -1.6723403 0.87980336 10.8
0.6291362 -1.5901583 1.0943404 13.8
0.61488271 7.7656837 -2.1480794 9
0.49346793 7.7885656 -1.8170537 10.333333
0.44813985 7.9444218 -1.3653263 12
0.61553788 8.2881927 -1.5037953 11.5
0.52114749 7.415401 -0.41734338 15
0.57388783 7.8132591 -0.57233334 15
0.49920595 8.3659573 -0.78476971 14
0.49902308 8.9155788 -1.0215963 14
1.0717168 -0.55864805 -0.017368671 2
0.95891553 -0.268053 -0.11132428 1.5
0.96217281 0.15537564 -0.27109498 1.3333334
1.0151811 0.50154757 -0.41149369 2
1.0607538 0.697703 -0.48350051 2
0.95649332 -1.5608455 0.86379486 11
0.97575456 -1.4731036 1.0814756 14.125
1.0040488 8.4433851 -2.3775129 9
0.90350473 8.1861734 -1.7724743 11
0.99067664 8.5326385 -2.1128678 10
0.91901571 8.2645264 -1.5035264 11.6
0.97024703 7.3030682 -0.38601264 15
1.0120707 7.7223349 -0.55343884 15
0.88509792 8.313343 -0.78047788 14
0.93046731 8.9913359 -1.0451148 14
1.3952702 -0.599527 0.00033966871 3.1428571
1.3677279 -0.29482201 -0.1185908 2.75
1.3782684 0.15685554 -0.28097486 2.75
1.3639137 0.47987756 -0.40767795 2.8
1.4383999 0.82958907 -0.52909964 3.6666667
1.3742619 -1.4391835 0.78754765 10.444445
1.5540758 -1.3810036 0.76461637 10.4
1.3679446 -1.3463422 1.0434434 14
1.5350932 -1.2771899 1.0641729 14.25
1.2172822 8.2790604 -2.3293524 9
1.1700244 8.6542006 -1.9007972 11
1.3698242 8.6518993 -2.1198559 10
1.2228367 8.3864832 -1.5155042 11.5
1.4359573 8.4389648 -1.5239918 11.5
1.5128342 7.0909667 -0.33523753 15
1.2816954 7.1760244 -0.35724998 15
1.3576651 7.6432605 -0.53582448 15
1.3651458 8.239975 -0.77129161 14
1.175838 8.2814064 -0.77695692 14
1.1502548 9.0202503 -1.0558106 14
1.7823114 -0.65302306 0.024046635 4
1.6470042 -0.25591901 -0.12150269 4
1.7436706 0.11710531 -0.26526061 4
1.6875515 0.53322959 -0.4243696 4
1.6949073 0.92257857 -0.56607646 4
1.8039702 -1.306035 0.72611105 10
1.8142871 -1.1970985 1.0264853 13.6
1.7201421 8.6720076 -2.4128268 9
1.6946691 8.7539253 -2.0525334 10.5
1.7192179 8.5301619 -1.6153759 11.5
1.6251979 8.4294081 -1.3594149 12
1.7428995 7.0159802 -0.31403065 15
1.6954548 7.5376067 -0.51305276 15
1.7430735 8.1184769 -0.72597975 14
1.706066 9.0463181 -1.0717834 14
2.2657502 -0.86074501 0.093602441 5
2.2922342 -0.62936145 0.0083922287 5
2.0647471 0.4840036 -0.40750849 4
2.1559811 0.90542686 -0.50662482 5
2.2153039 1.1954523 -0.68571919 4.5
2.1423111 1.4883299 -0.79330784 5
2.1853621 -1.1969708 0.66763967 9.4285717
2.1321187 1.0604169 -0.12727706 9.8888893
2.2666473 1.4246181 -0.22554798 9.8571424
2.244607 1.6411283 -0.30032989 9.75
2.1873832 -1.0791837 1.0096098 13.307693
2.2395506 1.2068238 0.11924011 13
2.2982795 1.5268862 0.053051911 13
2.2476568 1.7444125 -0.054770548 12.5
2.1362913 8.8289232 -2.3992968 9
2.3326092 1.6139076 0.2874676 15
2.1687264 8.8874636 -2.1487234 10.2
2.1805987 8.6835098 -1.6461624 11.5
2.1718173 8.5541201 -1.3593482 12
2.1220481 6.8859072 -0.27544868 15
2.0322115 7.4365549 -0.49032661 15
2.1790199 8.090169 -0.74382919 14
2.232183 8.8948174 -1.0556666 13
2.5356574 -1.2424948 0.42266005 7
2.5894647 -0.59797412 -0.012263793 5
2.5315869 -0.21283445 -0.1545015 4.5
2.6427929 0.14507815 -0.29719749 5
2.7041197 0.56868172 -0.40747505 5.5
2.6277339 0.86127496 -0.4487808 6
2.4489157 1.4210724 -0.65752208 6
2.5276845 1.8277273 -0.93023938 5
2.5690174 -1.0770397 0.62136966 9.25
2.7404859 -0.95241493 0.60725695 9.3999996
2.469903 0.99443793 -0.1381391 9.25
2.4308002 1.5455662 -0.45524874 8
2.5659468 -0.96649665 0.99245763 12.888889
2.741936 -0.83077282 0.93160146 12.6
2.6100821 0.92691672 0.25650367 13
2.4641962 1.1347154 0.2339066 13.3
2.6319618 8.3001232 -2.5330324 8
2.691498 8.8021965 -2.3983557 9
2.73348 -0.7301873 1.1542039 15
2.4038379 1.4728535 0.33499283 15
2.5561707 8.9013004 -2.0169806 11
2.6659033 9.0603628 -2.144304 10
2.3677778 8.7137585 -1.7537055 11
2.6699624 8.8390388 -1.6794924 11.5
2.5215206 8.6656399 -1.3655797 12
2.6379473 6.6780305 -0.21523638 15
2.417275 6.7672391 -0.2418025 15
2.4560339 7.3278632 -0.45908999 15
2.441052 7.7260079 -0.58313149 14
2.6104486 7.9998541 -0.72431093 14
2.5576205 8.8357 -1.0509273 13
2.9606984 -1.1081412 0.37003443 7
3.0436306 0.33345562 -0.37456524 5
2.7846422 2.0543063 -1.0211964 5
2.9957578 -0.82918096 0.509597 9
2.8952107 6.9988179 -2.130743 8
2.8812838 -0.90741289 1.0031629 13
2.9423933 -0.72841454 0.84638059 12.2
3.0655947 7.0263505 -2.0554156 9
2.9588876 8.4075956 -2.4461339 8.6000004
2.972471 -0.60340995 1.1484536 14.6
3.0206249 8.5570869 -2.0438149 10
2.7673714 8.7349195 -2.0150602 10
2.9422317 8.7099886 -1.676471 11.333333
3.0827556 8.6824055 -1.029259 13
3.0014763 9.4891758 -1.5128905 12
2.9615014 6.5383024 -0.17298801 15
2.958652 7.179997 -0.41559872 15
2.9527235 7.504652 -0.51379406 14
2.989197 7.9000778 -0.70185429 14
2.8899179 8.7960424 -1.0466076 13
3.5812366 -0.81496155 0.29251811 7
3.3782942 2.5868938 -1.2197894 5
3.4750681 -0.78748292 0.48811519 8.8000002
3.3648822 7.1063886 -2.199635 8
3.4548485 -0.65900302 0.85197818 11.75
3.4703074 7.3563452 -1.9872229 9
3.4130502 7.5111823 -2.1295867 9
3.2899373 7.940938 -2.1563315 9
3.1890204 8.3177624 -2.3647926 9
3.4660718 -0.52452731 1.2016397 14.5
3.5026548 7.4387264 -1.5551263 10.5
3.4256668 7.6115489 -1.7982063 10
3.3000307 8.0434656 -1.8321301 10
3.1506846 8.5617943 -1.9549847 10
3.5088494 7.5218296 -1.2690145 12
3.4489901 7.7596087 -1.4188868 11
3.3061416 8.1795568 -1.5003458 11.5
3.1876783 8.5995693 -1.6947466 11
3.5354655 8.4126501 -1.2628766 12
3.3640134 9.4879532 -1.4943997 12
3.4236438 6.3201232 -0.10827253 15
3.2850792 6.3953924 -0.12897184 15
3.3742664 7.0319128 -0.37468126 15
3.4504871 7.2712145 -0.43857127 14
3.379353 7.8132377 -0.679322 14
3.7336085 -0.88612908 0.28565887 7
3.92149 -0.71576405 0.24910639 7
3.7764528 -0.6965785 0.45030531 8.6000004
3.9309378 -0.64738047 0.43443239 8.5
3.9374914 6.7543712 -2.1311462 8
3.7046344 7.1371651 -2.2348146 8
3.7235737 -0.59713912 0.85847628 11.666667
3.914165 -0.49194309 0.85478908 11.666667
3.915061 6.5861254 -1.7726603 9
3.8153117 6.8065009 -1.9364743 8.5
3.7164943 7.1436915 -1.9984615 9
3.6970484 -0.45024186 1.2046427 14.5
3.8939185 -0.35587686 1.2464559 14.5
3.9046056 6.9766474 -1.4313434 10.5
3.795913 7.3392773 -1.5182561 10.666667
3.8889375 7.5842648 -1.7361037 10
3.8880608 7.171279 -1.084457 12
3.6963582 7.5140562 -1.155507 11.666667
3.5745218 7.9993548 -1.1737945 12
3.8062108 8.4187069 -0.98534483 13
3.5666265 8.7019129 -1.0314308 13
3.564749 9.0517426 -1.3942276 12
3.742527 6.1699724 -0.06103323 15
3.8344646 6.9183331 -0.33766222 14.666667
3.7814524 7.7346964 -0.65460753 14
4.1915855 -0.53904068 0.43538558 8.5
4.132596 5.9508872 -1.8001652 8
4.1241121 6.4465685 -1.9751519 8
3.9797471 6.7335935 -2.0277114 8
3.9542966 7.1804895 -2.2683551 8
4.1940947 -0.39652649 0.79596126 11.166667
4.1600413 6.0712061 -1.4960102 9.5
4.125206 6.486927 -1.6806296 9.333333
4.0799065 6.7298079 -1.8994462 9
4.051239 -0.31459069 1.1931368 14
4.1963296 6.2285643 -1.0859913 11.5
4.1188393 6.5306587 -1.4029832 10.333333
4.0549726 6.8825479 -1.411043 10.666667
3.9523201 7.3822818 -1.8029963 10
4.3602395 -0.095119685 1.4232203 15
4.1716342 6.3866935 -0.65308982 13
4.1391969 6.8486891 -1.0204651 11.75
4.0117145 7.1655612 -0.97626191 12
3.9850531 7.5607553 -1.297788 11.5
4.0420094 6.8797779 -0.73616982 13
4.1670465 7.3049622 -0.65302205 13.666667
4.0381274 7.6813636 -0.86533904 13
3.9471128 7.9555554 -0.91076815 13
4.2015266 5.9381647 0.012501162 15
3.9877079 6.04671 -0.021643756 15
4.0312462 6.7690377 -0.29865962 14
4.0676804 7.6377449 -0.63030255 14
4.4860811 -0.77959263 0.12047856 6
4.6661239 5.1837239 -1.625273 8
4.5586619 5.5434494 -1.6695825 8
4.4144044 5.9045773 -1.8305229 8
4.6816287 5.2876306 -1.2971537 9.5
4.5436249 5.6844263 -1.4484277 9.25
4.4260383 6.0778594 -1.4597369 9.666667
4.7594905 5.2808714 -0.74223518 11
4.6889572 5.4647851 -0.9528814 10.8
4.546442 5.8836951 -1.0568922 10.8
4.4342837 6.1874881 -1.1817687 10.5
4.6999078 5.5902038 -0.60690361 12
4.5861907 5.9309397 -0.62600327 12.5
4.45542 6.3188396 -0.75949174 12.4
4.7115335 5.7275658 -0.16880009 13.666667
4.5751185 6.1784072 -0.18027098 14
4.5151596 6.4456773 -0.21893412 14
4.3936863 6.6838093 -0.47776532 14
4.4861288 5.7923031 0.060515545 15
4.3800807 6.6595602 -0.25958887 14
5.1362596 3.8702607 -1.0973192 8
5.0494642 4.0556927 -1.2590454 8
4.924809 4.4303098 -1.322338 8.1999998
4.8077884 4.7574487 -1.5231752 8
5.0666099 4.1920481 -0.85674304 9.666667
4.9208078 4.5345755 -1.1118361 9.333333
4.8142376 4.8869085 -1.192328 9.5
5.0928602 4.3096776 -0.45240128 11.4
4.9529052 4.6541295 -0.66341168 10.666667
4.828939 5.0792236 -0.74284768 11
5.0658059 4.4798632 -0.18920827 12.5
4.9636717 4.8006234 -0.26910442 12.5
4.8637924 5.1230073 -0.33217901 12.75
5.096508 4.6136851 0.2169188 14.5
4.9979768 4.9470639 0.1639048 14.666667
4.8435545 5.359108 -0.029759008 14
4.7887735 5.6203895 -0.034783874 14
4.8033676 5.560173 0.1250475 15
5.2090025 4.1362028 -1.9501704 5
5.5122852 -0.15674247 0.015242808 7
5.5179958 1.3333162 -0.57713753 7
5.4655662 1.5255915 -0.6250273 7
5.5279474 -0.076066442 0.25315523 8.5
5.530334 1.4351209 -0.32444674 8
5.558959 0.13722996 0.78670287 11
5.5382304 1.6227556 -0.024365053 9.5
5.4632869 1.7882073 -0.028546659 9.5
5.5704818 0.23534746 1.0092565 12.5
5.5268464 1.8162881 0.336927 11.666667
5.4737024 1.9090645 0.24980305 11
5.5973363 0.28352982 1.2064856 13
5.5346713 1.9052693 0.6835047 13.5
5.5010638 2.023268 0.67320246 13.5
5.5529375 1.9832814 1.004693 15
5.4904933 2.177887 0.95830774 15
5.9243307 0.083946139 -0.51854366 5
5.9532018 -0.025709163 -0.13716538 6
5.9021149 0.25037837 -0.1862611 6.3333335
5.7398138 0.70057356 -0.30746144 7
5.6574326 0.92884713 -0.48829243 6.25
5.5913982 1.1441787 -0.5340718 6
5.8821449 0.046444274 0.15435481 7.6666665
5.9231267 0.29592374 0.093034126 8
5.8021069 0.66530174 -0.034792449 8
5.6706486 1.0503608 -0.15049745 8
5.8705058 0.16663086 0.53928655 9.5
5.9395366 0.4676412 0.52407956 10.166667
5.8554358 0.83084899 0.4033387 10.5
5.7168479 1.168951 0.18030612 9.8000002
5.6128078 1.4467684 0.038570065 9.666667
5.9579625 0.53677207 0.97662377 12.333333
5.8613324 0.92849588 0.72913605 11.8
5.7181916 1.3916459 0.58319867 12
5.6206384 1.6454597 0.48706591 12
5.9213448 0.4253042 1.2229679 13
5.9561095 0.74525231 1.1987953 13.5
5.8633847 1.0720047 1.1131039 13.5
5.7254643 1.4746833 0.96247029 13.833333
5.6271377 1.7465125 0.88122231 14
5.9657121 0.90587813 1.5325693 15
5.8567619 1.1561601 1.3828336 15
5.7641273 1.4426092 1.3063132 15
5.6363206 1.8197247 1.2101963 15
6.1968498 -0.74076074 0.49154875 8
6.0994563 -0.46488279 0.38911426 7.8000002
6.054275 -0.21933645 0.2891742 8
6.246232 -0.65372676 1.0308959 10.666667
6.110096 -0.30369422 0.74702352 9.8000002
6.091639 -0.11718175 0.62965184 9.5
5.9994416 0.33194122 0.65642911 10
6.1522055 -0.18843009 1.0118085 11.333333
6.1370797 0.066657156 1.0487404 11.666667
6.0067329 0.37894303 0.78307384 11
6.236105 -0.2947509 1.8025829 14
6.1584144 -0.0090817856 1.5003104 13.666667
6.1183434 0.17503268 1.4184496 13.5
6.0212865 0.58304214 1.2930837 13.5
6.3054843 -0.32474074 1.9625986 15
6.180315 0.1030509 1.8664904 15
6.1273637 0.3598673 1.7599336 15
6.0328984 0.66985995 1.5244296 15
