# .PCD v0.7 - Point Cloud Data file format
VERSION 0.7
FIELDS x y z intensity
SIZE 4 4 4 4
TYPE F F F F
COUNT 1 1 1 1
WIDTH 56
HEIGHT 1
VIEWPOINT 0 0 0 1 0 0 0
POINTS 56
DATA ascii
-0.50918353 -0.52107131 -0.0013703094 0
-0.54605234 -0.42080671 -0.053198874 0
-0.61426955 0.25366718 -0.31127134 0
-0.55235124 0.56647515 -0.43966979 0.25
-0.46464518 0.84964371 -0.55344838 1
-0.48948434 1.0739079 -0.63671458 2
-0.38750911 -0.4472248 -0.004087856 0
-0.23704317 0.60166889 -0.45567334 0
-0.3076846 0.82334232 -0.54602087 0.80000001
0.68994325 -0.48012823 -0.017343044 0.5
0.65348864 -0.28688815 -0.093321711 0.25
0.73764753 0.10493137 -0.22858508 0.5
1.1109996 -0.86254543 0.13032582 3.5
1.0357879 -0.60974002 0.024911322 2.4444444
0.99962872 -0.25791508 -0.10119758 1.8571428
0.9883014 0.15438174 -0.2588596 1.5555556
1.1120625 0.38229838 -0.34978598 2
1.5649008 -1.3622829 0.32031867 5
1.3830048 -0.99183756 0.17687638 4
1.3755443 -0.57989389 0.022123883 3.5714285
1.4643147 -0.25611347 -0.10296404 3.25
1.3877099 0.2031782 -0.28129879 2.875
1.3504055 0.43596649 -0.3767204 2.8
1.8938627 -1.3576328 0.31486666 5
1.7556475 -0.97648984 0.17330083 4.5
1.7279094 -0.67160237 0.072835825 4.3333335
1.8185008 -0.26185802 -0.083439209 4
1.8466353 0.090337679 -0.21427792 4
1.7233005 0.44700727 -0.36022809 4
2.1242599 -1.5551196 0.39368829 5
2.2374871 -1.2971621 0.30046558 5
2.0180364 -0.88265288 0.13930319 5
2.1381004 -0.58389461 0.047750935 5
2.1046553 0.30585754 -0.30908874 4.5
2.0065038 0.68498009 -0.47082356 4
2.3503208 -1.3192034 0.79829878 10
2.3173113 -1.2821021 0.92306364 11
2.6914685 -1.2218875 0.26265043 5
2.4798994 -1.1153388 0.22371767 5
2.5790997 -1.1969217 0.60447478 8.5
2.6064932 -1.0695521 0.90361601 11.5
2.9649577 -1.009221 0.1770127 5
2.8637226 -0.37130812 -0.069456846 5
3.4623668 -0.81068486 0.093885891 5
3.4715793 -0.44829151 -0.047284611 5
3.4646845 0.24260072 -0.29938063 5
3.2785199 0.53670835 -0.44755936 5
3.309006 -1.0377616 0.68443596 9
3.2822552 -0.99990481 0.8129921 10
4.0035238 -0.77619547 0.79391521 10
5.9084888 -0.15813252 -0.26934904 5
5.9849749 -0.60888362 0.57817531 9
5.9184179 -0.49963954 0.91702026 10
5.8780499 0.12725772 0.5807271 9.5
5.7424202 0.77469212 0.42958611 10
6.1254883 -1.37353 0.66053814 8
