# .PCD v0.7 - Point Cloud Data file format
VERSION 0.7
FIELDS x y z intensity
SIZE 4 4 4 4
TYPE F F F F
COUNT 1 1 1 1
WIDTH 10
HEIGHT 1
VIEWPOINT 0 0 0 1 0 0 0
POINTS 10
DATA ascii
-0.3450942 0.70785457 -0.20520718 0
-0.12689397 -0.79593062 -0.23167758 0
0.094847031 -0.71189457 -0.21262757 0
0.18919437 1.1652104 -0.15420741 3
0.20790713 -0.9289149 -0.21056847 1
0.35065767 -0.56678593 -0.20293801 0
0.58372992 -0.98668176 -0.19276093 2
0.56960374 0.84053773 -0.1304038 3
0.86399621 -0.5586313 -0.17990592 2
1.691794 -2.8635015 0.26640877 9
