# .PCD v0.7 - Point Cloud Data file format
VERSION 0.7
FIELDS x y z intensity
SIZE 4 4 4 4
TYPE F F F F
COUNT 1 1 1 1
WIDTH 78
HEIGHT 1
VIEWPOINT 0 0 0 1 0 0 0
POINTS 78
DATA ascii
-7.14394 5.0626454 0.26369438 14
-6.6904883 4.4965811 0.57852495 15
-3.851948 -1.3549001 1.2244835 8
-3.9004698 -0.80984765 0.98552316 8
-3.8542118 -0.94420063 1.580179 11
-3.5515864 -1.2880044 1.426317 10
-3.5498521 -1.0439694 1.7327054 12
-3.4665046 -1.4003991 1.3345696 9
-3.270417 -1.1058139 1.8208151 13
-3.1016126 -0.42136422 1.6143887 15
-2.728164 -1.3308733 1.3619176 10
-2.8694191 -1.2400039 1.5457972 12
-2.5766814 -1.4385247 1.1678503 8
-2.5698886 -1.3950349 1.2427067 9
-2.5270829 -1.1675813 1.6143955 13
-1.9304515 -1.3836275 1.1844423 10
-1.9047385 -1.2216545 1.4650481 13
-1.756341 -1.2725379 1.3606738 12
-1.8258286 -1.1193668 1.6424611 15
-1.6520125 -1.3117096 1.283071 11
-1.4200449 -1.3052948 1.2474213 12
-1.2772057 -1.2066969 1.4084194 14
-0.83518469 -1.4102222 1.0285844 9
-0.72363496 -1.1859335 1.1451002 13
-0.80139583 -1.1946013 1.3743947 15
-0.7109279 -1.2484599 1.0458255 11
-0.69215137 -1.1512252 1.2151371 14
-0.41264787 -0.86510956 0.2801379 1
-0.4254519 -1.262162 0.95398498 10
-0.32840639 -1.2139454 1.0286195 12
-0.19390932 -1.0874543 0.40023321 2
-0.25030482 -1.3555601 0.99045759 10
-0.27113599 -1.273393 1.1361235 13
-0.29400077 -1.208613 1.0259598 12.5
-0.30722865 -1.1173899 1.1987445 15
-0.062588952 -0.86816722 0.25526771 1
0.17274185 -1.0146856 0.31997919 2
0.19190656 -0.93107206 0.26986918 1
0.09215191 -0.69418961 0.14656875 0
0.43061557 -1.5171636 0.94194788 8.5
0.49427173 -1.5710531 0.65127826 4
0.44467819 -0.92685175 0.26148823 2
0.51178128 -1.3494992 0.89677101 10
0.63387859 -1.2869823 1.0101987 12
0.55973643 -1.2326514 1.1150229 14
0.61646873 0.15794146 -0.36727592 0
0.92740297 -1.234269 1.0310485 13
0.98822325 -1.1629567 1.0774107 14
1.0539113 0.2080645 -0.26055849 6
1.0342431 0.28969994 -0.13422559 10
1.1180866 0.40383509 0.0093614189 14
1.2585702 0.38987443 -0.035292175 12
2.1952472 -1.2033006 0.84221876 10.5
2.1852925 -1.1010342 1.0313616 13
2.465637 -1.2004991 1.0665289 12
2.5319393 -1.8375372 0.9626959 8
2.674156 -2.7368739 1.6603531 9
2.587779 -1.9465284 1.1771094 9.5
2.6564472 -2.4413834 1.6982713 10.5
2.5800731 -1.7177273 1.3800085 12
2.6848116 -2.2489667 1.7768103 12
2.5542803 -1.0566512 1.2392455 14
2.7095604 -2.0029836 2.0037661 14
2.6872458 -1.9031557 1.9853714 15
2.5788758 -1.4548501 1.6345568 15
2.5384638 -0.99123299 1.3458816 15
2.7155468 -2.3589664 2.2728813 14
2.6805012 -1.1975863 0.59733534 8
2.6870232 -1.1191063 0.75322175 9.5
2.7024624 -0.98759818 0.76231062 11
2.7003694 -1.0363445 0.94581115 12
2.6844406 -0.63709664 0.80814642 13
2.6590161 -0.44898081 0.60298747 12.5
2.7083821 -0.89424574 1.0215253 13
2.7135611 -0.64401466 0.97273576 14.5
2.7108135 -0.17817533 0.72409701 15
2.6831791 0.2066884 0.36801535 13
2.7343121 0.09169963 0.67184412 15
