# .PCD v0.7 - Point Cloud Data file format
VERSION 0.7
FIELDS x y z intensity
SIZE 4 4 4 4
TYPE F F F F
COUNT 1 1 1 1
WIDTH 46
HEIGHT 1
VIEWPOINT 0 0 0 1 0 0 0
POINTS 46
DATA ascii
-2.5966749 -2.5082066 1.9005384 8
-2.3747249 -2.2772114 2.0322638 10
-1.7678211 -1.8427318 2.0908022 13
-1.4279857 -1.9142592 1.6798266 9
-1.2044208 -1.7680224 1.6756639 10
-1.3771373 -1.648685 2.0072188 14
-0.81029946 -1.3590894 1.6470543 14
-0.69781238 -1.5211489 1.3210905 9
-0.61714423 -1.4089818 1.365195 11
-0.54508775 -1.4734608 1.4430496 11
-0.29500258 -1.4061935 1.2602996 10
-0.15671438 -1.3856273 1.2208863 9
-0.14662412 -1.3070294 1.2669574 11
0.19730681 -1.2043606 1.1451476 10
0.19869301 -1.1634535 1.1711031 11
0.11063682 -1.0686153 1.3759155 14
0.27041507 -1.0681149 1.2048748 12
0.21507999 -1.0131432 1.3797494 15
0.48836008 -0.94043535 1.1439582 13
0.54860187 -0.82257396 1.1928927 15
0.72765416 -1.1804329 0.83562952 5.5
0.77175218 -0.84713531 0.4819243 3
0.77364731 -0.63114071 0.31442282 2
0.81637836 -0.75709808 1.0632633 14
1.0617678 -1.0327234 0.70741564 5
1.0129099 -0.23366214 0.033107594 2
1.2737913 0.049859997 -0.16696571 3
1.2611501 0.92654246 -0.33144265 11
1.5848758 -0.47518241 0.77782714 11
1.554108 -0.30186278 0.98663247 15
1.5857958 0.39783216 0.030906161 10
1.6053532 -0.51050133 0.78577942 11
1.8615199 0.064764343 -0.0022973157 6
1.9008924 -0.35665604 0.58593637 9
1.98865 -0.23614568 0.50008273 9
1.8111728 0.015431293 0.29017556 9
1.8552268 -0.3439965 0.71711981 11
1.835915 0.057808433 0.45126566 12
1.8880545 -0.2167784 0.8572008 13
1.836782 0.14027613 0.61070305 14
2.1339893 -0.83267415 0.94598931 9
2.0969486 -0.40040788 0.46216166 7
2.0197339 -0.23490781 0.64622736 11
2.0092454 -0.18833093 0.61942059 11
2.0061793 -0.060808528 0.79047006 13.5
2.5475535 -1.1901032 1.3518018 9
