# .PCD v0.7 - Point Cloud Data file format
VERSION 0.7
FIELDS x y z intensity
SIZE 4 4 4 4
TYPE F F F F
COUNT 1 1 1 1
WIDTH 319
HEIGHT 1
VIEWPOINT 0 0 0 1 0 0 0
POINTS 319
DATA ascii
-17.270809 -4.0464888 4.9323006 11
-17.464397 -3.7041097 4.7157245 11
-16.859892 -3.3063285 5.1906114 12
-16.507206 -3.8436773 5.8301859 12
-16.342834 -4.1532335 5.995666 12
-14.975758 -5.0322061 5.9668937 11
-14.903779 -3.9928515 5.1910372 11
-14.999561 -3.36602 4.7485867 11
-14.88463 -3.2060261 4.8128815 12
-14.638405 -3.5958741 4.867444 11
-14.279469 -4.2909551 4.8022237 11
-14.044926 -4.3840308 5.3703237 11
-13.543289 -5.3849478 5.5252886 10
-13.69533 -5.193171 5.3682022 10
-13.599488 -5.1196203 5.8864884 11
-13.761621 -4.775815 5.6893692 11
-13.559151 -5.0064621 6.3134151 12
-13.685716 -4.7409458 6.1224709 12
-13.071894 -7.0931854 4.5360026 7
-13.400311 -6.0249672 5.9861965 10
-13.368173 -5.6572251 5.7100773 10
-13.349753 -5.7659268 6.3359985 11
-13.391365 -5.4470873 6.0950842 11
-13.192665 -5.4950657 6.6509657 12
-13.325088 -5.230134 6.4554009 12
-13.021138 -6.204248 6.0913849 10
-12.966207 -3.6215889 5.1466494 12
-12.678218 -4.0924859 5.4671884 12
-12.601385 -1.5267328 3.9580917 13
-12.424375 -1.8550998 4.1707501 13
-11.307148 -5.6781816 5.5593305 10
-11.53568 -1.1817292 4.4873853 15
-11.538992 -0.82244158 4.2224402 15
-10.974679 -5.0877962 6.0187769 12
-11.103044 -3.1770906 5.8269143 14
-11.185409 -1.1547008 4.2803326 15
-10.44518 -5.5131288 4.8680449 9
-10.216471 -2.9082346 4.5759072 13
-10.063492 -3.2830799 6.218204 15
-10.317001 -2.3193052 5.4446983 15
-9.6839981 -4.5311923 2.8754339 7
-9.4372215 -4.472981 3.6560245 9
-9.3404465 -4.2017894 3.866468 10
-8.9174919 -2.8585565 1.5651094 7
-8.7597761 -2.8275986 2.1664057 8
-8.8896046 -2.6693282 2.0615959 8
-8.8771954 -2.5335631 4.8407345 15
-8.0701208 -2.0965524 4.2629156 15
-7.8555355 -2.6515889 1.7474008 8
-7.4038634 -1.4031025 3.6311202 15
-6.9106956 -2.0337799 1.4667864 8
-6.4037461 -2.2882802 1.2329298 7
-6.4246249 -3.534091 2.5676794 7.5
-6.6106567 -2.2164416 1.3164612 7
-6.3630962 -3.6391208 3.0262489 9
-6.4021239 -2.5147228 2.5067563 10
-6.472559 -1.5278063 1.643656 10
-6.4374294 -1.2983452 1.648808 11
-6.4906821 -2.952508 3.368046 11
-6.742981 -3.079529 4.1131206 13
-6.1444798 -3.8069983 2.5991468 7
-6.2703395 -3.5953341 2.5390272 7.3333335
-6.314774 -3.293478 2.4086072 8
-6.2260966 -2.8734126 1.9671575 7.5
-6.217732 -2.2843161 1.3853236 7
-6.0825801 -1.9469547 1.8417464 10
-6.0962234 -1.8213034 1.6439801 9
-6.367115 -1.4985565 1.5439203 10
-6.0866933 -3.2605488 3.4833477 11
-6.2712307 -3.087424 3.1887341 11
-6.0048637 -3.1775832 3.7975004 12
-6.1140509 -2.6807196 4.2596555 14.666667
-6.2711158 -2.5479348 4.1071844 14
-5.7229176 -3.0096254 1.871997 7
-5.9047031 -2.2315607 1.2336999 7
-5.7582712 -2.8652096 1.909981 7.5
-5.664928 -2.670166 1.9147367 8
-5.7336197 -2.2932222 1.4233023 7
-5.7307258 -1.9447548 1.4975239 8.5
-5.8165846 -3.6377985 3.2968001 10
-5.7420845 -2.3601086 2.1195643 9
-5.8676529 -1.6480289 1.6204115 9.75
-5.6566176 -1.4287755 1.4788309 10
-5.8175902 -3.5299618 3.5190308 11
-5.9391007 -2.8751814 4.4385395 15
-5.517498 -2.018657 1.5465034 8.5
-5.1329074 -3.3433738 3.0528157 10
-5.5007758 -1.8806106 1.9514072 10.25
-5.1544409 -3.1294935 3.4066749 11
-5.23698 -2.9301641 3.183888 11
-5.4492993 -1.7784969 2.1685362 11
-5.2046814 -3.0314972 3.5774257 12
-4.9711576 -3.4097705 2.8509645 9
-4.8503556 -1.0279171 1.3693905 11
-4.9007158 -0.72049457 1.6254263 13.5
-5.0183249 -0.46844006 1.5352224 14
-4.8534646 -0.70058763 1.8456748 14
-5.1295881 -2.3060145 3.8365431 15
-5.2006693 -2.5495653 4.2268071 15
-4.3616109 -2.5553703 2.0343008 9
-4.5014958 -1.8181821 1.3723036 8
-4.5462828 -3.1671371 2.7888629 9.5
-4.5221195 -1.6142883 1.4743284 9
-4.6829095 -1.2737812 1.5324174 11
-4.6936278 -2.8571179 3.371428 12
-4.5472326 -1.3166994 1.9082558 12.25
-4.7584772 -1.1365441 1.6450254 12
-4.7664118 -2.764761 3.5338154 13
-4.4407578 -1.2767066 2.6309495 15
-4.5011778 -1.2194207 2.1868773 14
-4.7077012 -0.90197259 1.9735186 14
-4.7476454 -2.5466192 3.8711019 15
-4.6208277 -2.2619598 3.5711904 15
-3.9549518 -2.9516995 2.3174386 8
-4.0322227 -2.7971783 2.1412716 8.3999996
-4.1264668 -2.5449116 1.9438224 8.25
-4.2926722 -2.0404947 1.6397642 8.666667
-4.2560349 -2.6203949 2.2827108 9
-4.0769291 -2.2176185 2.1600716 10
-4.242022 -2.0496533 1.8496126 9.5
-4.1405811 -1.8880719 2.5558748 13.333333
-4.2936187 -1.6411237 2.2984331 13
-4.1660757 -1.5531425 2.807344 15
-4.3568892 -1.4098212 2.5189826 14.5
-3.6544344 -2.7712243 2.146724 8.333333
-3.7734907 -2.6325603 2.5347757 10.25
-3.8391712 -2.4119647 2.6926758 12
-3.6104074 -1.9135586 3.1099882 15
-3.7876513 -1.5083266 2.6958899 15
-3.4017377 -2.7715878 2.2286861 8.5
-3.4006155 -2.2945101 1.7403691 8
-3.3351364 -2.4960468 2.4850161 10.6
-3.4112093 -2.3417208 2.8326097 12.75
-3.4031086 -1.8566334 2.3734982 13
-3.4507465 -1.7747329 2.3130512 13
-3.4369321 -1.9777205 3.089808 15
-2.9335778 -2.5991089 2.0805604 8.5
-2.9730389 -2.3620636 2.4694695 11.25
-2.8150251 -2.1234233 2.310405 12
-2.9062841 -2.1532102 2.6795225 13.333333
-3.003828 -2.0035601 2.9990814 15
-3.007926 -1.8131039 2.8171422 15
-2.5368862 -2.4423916 1.941009 8.5
-2.7527113 -2.2924812 2.374912 11
-2.5295851 -2.1632807 2.251328 11.142858
-2.5333757 -1.9404104 2.5710492 14
-2.6293788 -1.8873239 2.8169451 15
-2.1380544 -2.239171 1.8751698 9
-2.1931183 -2.0387216 2.2012289 11.75
-2.0455642 -1.9762056 2.0200477 11.5
-2.1390169 -1.8646539 2.3784993 14
-2.1409636 -1.6241224 2.4024155 15
-1.7243233 -2.0473371 1.7472837 9
-1.7332642 -1.8510916 2.0229194 12.1
-1.8871034 -1.6354316 2.2854481 14.666667
-1.3881497 -1.8943696 1.6711776 9.4444447
-1.1919285 -1.71936 1.7220527 11
-1.401527 -1.6953037 1.9480678 12.75
-1.2347397 -1.6018401 1.8428148 13
-0.96396512 -1.6196861 1.5062219 10.1
-1.0107343 -1.4658738 1.7529098 13.333333
-0.80928147 -1.3590028 1.5152345 12.5
-0.61689883 -1.477376 1.4118912 10.444445
-0.53384763 -1.4311256 1.3785495 10.555555
-0.60157198 -1.3047489 1.6479391 14.142858
-0.56386262 -1.2762252 1.6026702 14.142858
-0.14303644 -1.2993758 1.299722 10.882353
-0.16203548 -1.1705112 1.4962881 14.285714
0.24532026 0.3919546 -0.41154665 2.8571429
0.24810748 -1.1938742 1.2699882 11.642858
0.24949199 -1.0535812 1.1977422 12.6
0.21738346 0.47599682 -0.31647629 8.5
0.27954558 -1.1073017 1.457695 14.333333
0.2786158 -0.9593913 1.34346 15
0.7064926 -1.0695585 0.64595103 4
0.65104073 -0.82680267 0.4549104 2.75
0.61436594 -0.53542501 0.24107969 1.5555556
0.67445451 -0.2568551 0.03310312 0.77777779
0.7526834 -0.043655146 -0.13382971 0.5
0.50972998 -1.2363824 1.2037785 10
0.62362874 -0.96294087 1.0787934 11.470589
0.4460009 -1.1025208 1.5900736 15
0.57230544 -0.82557142 1.2007579 15
0.96743721 -1.0478199 0.74749017 5.3333335
1.0575576 -0.85430354 0.5354327 4.125
1.0026863 -0.54047531 0.26668179 2.8571429
0.98371309 -0.23592797 0.039985061 2.5
1.0119014 -0.0062335241 -0.14340374 2
1.246913 -3.6067166 3.2170129 8.5
0.99818689 -0.86702627 0.98786509 10.583333
1.2264699 -3.4857392 4.0866728 13
1.2145275 -3.1493189 3.679075 13
1.0434388 -3.1553161 4.0205622 14
1.3436077 -0.93374264 0.76027983 6.5
1.4709041 -0.80832523 0.55157572 4.875
1.4058331 -0.51832765 0.29122213 4
1.3217624 -0.20135476 0.036842298 3.5999999
1.4060274 -0.0040773507 -0.10250679 3.6666667
1.2265017 -0.93654621 0.8239122 7
1.5657023 -0.41660202 0.7862671 12
1.5434818 0.52824432 0.074028336 12.5
1.4044799 0.73786485 -0.10767598 12.384615
1.2527795 0.98015136 -0.27734542 12.5
1.5697607 -0.32200217 0.91425478 14.5
1.5346155 0.62599558 0.18872514 15
1.4048637 0.81149161 0.012949282 14.75
1.2173173 1.096319 -0.21733546 14.5
1.2799571 -3.2271852 3.6912725 12
1.5645093 -3.8978791 4.9038339 14
1.2829338 -3.4700875 4.4754319 14
1.9293121 -5.1725364 3.9916873 7
1.8452706 -0.70481765 0.56405109 5.8333335
1.710565 -0.46368057 0.27809441 5
1.8684924 -0.18477286 0.14558463 5.4285712
1.776165 0.11876063 -0.086676307 5.1999998
1.8938851 -4.9990158 4.3743382 9
2.0068309 -4.6922321 4.1047921 8
1.8477798 -0.57556129 0.76147252 9.2666664
1.9333205 -0.20896532 0.61033422 10.833333
1.842792 0.052130319 0.34840187 10.3
1.693589 0.32364449 0.11423982 10.3125
1.7521967 -0.33645895 0.98878449 14
1.934181 -0.048531961 0.80194461 14.142858
1.8096299 0.22015494 0.5399648 14.125
1.6231524 0.48826635 0.30052602 14.5
1.9605166 -4.0834751 4.7651038 12
1.9279965 -4.3408928 5.6476235 14
2.3949013 -1.3191698 1.0338839 6
2.0307519 -0.8207854 0.69384539 6
2.09375 -0.45775747 0.35700312 5.5
2.3434832 -5.1493444 4.5662155 9
2.3657286 -1.0468709 1.3453424 10.5
2.2245507 -0.85173148 1.096577 9.7777777
2.0831895 -0.55040294 0.90576023 10.6
2.0179884 -0.22118777 0.60757798 10.375
2.2589695 -5.0170178 4.497716 9
2.3573546 -0.87813985 1.6360765 13
2.2100646 -0.64338166 1.3401651 13.222222
2.0714028 -0.41176432 1.0615791 13
2.0003488 -0.05383119 0.85108948 14.25
2.3245149 -5.3849769 5.353034 10
2.358413 -0.61628252 1.6474185 15
2.4083459 -4.6684146 5.4134603 12
2.639853 -1.4545642 1.5653048 9
2.4972751 -1.181936 1.3436661 9.1428576
2.6283195 -1.2569612 1.8303212 11.857142
2.5097563 -1.0023671 1.531274 11.5
2.6175342 -1.0287995 2.1068439 14.75
2.5378017 -0.80146539 1.8687047 15
3.1274779 -5.2416773 6.9059572 14
3.4716184 -2.3178458 2.2799375 8.333333
3.592458 -2.2701316 2.090039 7.5
3.6456208 -2.6351044 2.903825 10
3.4599085 -2.1211843 2.6524794 11
3.5727935 -2.0015299 2.4336858 10.5
3.4929521 -2.2415051 2.9392562 12
3.5022948 -1.8669552 3.0665929 13.666667
3.5313849 -1.6518669 2.8860378 14
3.5333731 -2.0684834 3.5011272 14.5
3.4028749 -1.7061533 3.1808181 15
3.429183 -5.0346904 6.7564921 14
3.6992311 -2.2012479 2.083014 7.5
3.7478781 -2.4500232 2.7238677 10
3.7095602 -1.9099299 2.4197712 10.5
4.0376692 -3.0656188 3.7184732 11
3.7481775 -2.5771327 3.3901355 11.5
3.6880012 -2.3180952 3.2454348 12
3.6602333 -1.5611627 2.8826716 14
3.89012 -2.5664458 4.0881371 14
3.7711613 -2.2546549 3.7186244 14
3.8281579 -2.0961709 3.4242835 14
3.8349204 -2.3943868 4.1267824 15
3.735095 -4.8491926 6.6373181 14
4.1032238 -2.8732622 4.4486217 14
4.208292 -2.6262724 3.9048741 13
4.0970292 -2.4330797 3.7933087 13
4.292129 -3.0167463 4.9021907 15
4.0370975 -2.6755395 4.476222 15
4.3260727 -8.116148 9.0870962 12
4.7196913 -4.5645456 3.8091774 7
4.8329191 -4.4351802 3.8600366 7.5
4.7004485 -4.1053538 4.563004 10.5
4.7917914 -3.9765265 4.4782605 10.5
4.6001263 -3.6262407 5.0556335 13
4.8828173 -7.952971 8.8774004 11
4.6140604 -3.439162 5.2912989 14
4.769783 -3.5602174 5.0364857 13
4.7616267 -7.935555 8.9970293 12
5.0248585 -4.4770675 3.5908246 7
5.0375743 -4.0276127 4.1029868 9
4.9745183 -3.4341161 4.8731837 13
5.1514497 -7.9052782 8.7658253 11
5.1897602 -7.7603102 8.9317694 12
5.561511 -7.5815578 8.8340864 12
5.4283204 -4.6768069 6.6054382 13
5.9022031 -5.8766131 7.5489411 13
6.3197227 -7.2113276 8.6186733 12
6.2613549 -5.5860252 7.3511052 13
6.3947039 -5.3986807 7.202868 13
6.9434299 -7.8994207 6.2147284 7
6.9788027 -7.5305047 6.6767764 8
6.9239116 -6.9385414 7.4626431 10
6.6499658 -6.9947267 8.5179529 12
6.8195467 -6.7204127 8.3222742 12
7.1897707 -7.7814136 6.1575627 7
7.247561 -7.4208851 6.6199565 8
7.336864 -7.5052438 6.3875613 7
7.121634 -7.2539124 6.9155855 9
7.2655993 -7.1746893 6.7479014 9
7.154458 -7.0416865 7.1682663 10
7.0193715 -6.4542441 8.1210308 12
7.2729506 -6.149157 7.8884006 12
7.1374221 -5.9088244 7.7024894 12
7.4350328 -7.6608734 6.0988474 7
7.6023631 -7.0156937 6.6825809 9
7.3992515 -6.704493 7.3636227 10
7.4887977 -5.84093 7.663096 12
7.3919396 -5.4892287 7.4079747 12
7.8490472 -6.9073811 6.5922279 9
