# .PCD v0.7 - Point Cloud Data file format
VERSION 0.7
FIELDS x y z intensity
SIZE 4 4 4 4
TYPE F F F F
COUNT 1 1 1 1
WIDTH 166
HEIGHT 1
VIEWPOINT 0 0 0 1 0 0 0
POINTS 166
DATA ascii
-0.46393293 -0.85424858 -0.12207336 133.5
-0.39864245 -0.78697842 -0.11776362 132
-0.35948229 -0.74876761 -0.12041494 122
-0.31413978 -0.70489931 -0.1244081 127.5
-0.24877095 -0.63792765 -0.12104229 135.66667
-0.21995592 -0.61147374 -0.12707926 139
-0.15989403 -0.54935694 -0.1225722 144
0.80076122 -0.52566499 -0.063618675 186
0.81653029 -0.54770803 -0.053977594 185
-0.61637306 -0.44638672 -0.17182721 121.5
-0.55858821 -0.42098472 -0.16873759 126
-0.13025109 -0.45115337 -0.10338207 138.75
-0.052405067 -0.43724254 -0.11218626 142.39999
0.74667203 -0.44658312 -0.061788496 187.85715
0.85933262 -0.46385187 -0.058269445 186
0.92230344 -0.40553117 -0.061238255 191
-0.65973699 -0.32040572 -0.19277786 121
-0.52377021 -0.40679982 -0.17219184 132
-0.42875707 -0.36453643 -0.16480015 136.75
-0.33522868 -0.32261354 -0.1560282 146
-0.12065607 -0.38671857 -0.097919449 146
-0.036080502 -0.35542154 -0.121064 146.5
0.043172877 -0.35270929 -0.14000544 164.53847
0.67337412 -0.34513083 -0.07964018 181.29411
0.7610572 -0.35379267 -0.064059876 186.33333
0.84864271 -0.35397393 -0.060096703 188
0.92299974 -0.30742952 -0.062838919 190
-0.63031936 -0.31211928 -0.19392647 122
-0.56020409 -0.29124999 -0.18977378 129.33333
-0.45506123 -0.2598148 -0.18271545 141.5
-0.34852213 -0.24723604 -0.17271024 148
-0.23407535 -0.27641711 -0.14250576 149.25
-0.13091852 -0.23301905 -0.1463639 145.28572
0.0050450861 -0.30030066 -0.13029563 158
0.050336745 -0.2629503 -0.1450464 164.39999
0.13807963 -0.2225067 -0.14372599 156.2
0.58464235 -0.24271323 -0.11254453 172.78261
0.64884597 -0.25243485 -0.093328126 176.57143
0.74958277 -0.24589336 -0.078011945 181.85001
0.86583692 -0.248328 -0.063978598 188.5
0.92976284 -0.22817817 -0.065769948 190
-0.63011461 -0.18096283 -0.20439306 124
-0.52592325 -0.16327004 -0.19562475 138.33333
-0.43191567 -0.14743796 -0.18889491 146.25
-0.33902967 -0.15326546 -0.17857549 151.75
-0.24536109 -0.15801027 -0.15854275 149.88889
-0.13630638 -0.16470072 -0.16269763 149.28572
-0.036686003 -0.17015232 -0.168295 165.92
0.081227362 -0.15658113 -0.16635425 163
0.16650903 -0.15790439 -0.14805739 146.33871
0.24048819 -0.1399931 -0.15115479 146.21568
0.4918673 -0.13166203 -0.13502838 156.09091
0.55489522 -0.15536658 -0.12980555 162.68628
0.64871228 -0.15285203 -0.11157041 173.10638
0.76990294 -0.1456625 -0.091682017 180.33333
0.85657763 -0.15864559 -0.075796574 185.60001
0.94657153 -0.15600519 -0.073626757 190.5
-0.69325405 -0.059760317 -0.227805 124
-0.62458283 -0.056407001 -0.21866685 126.5
-0.52452242 -0.051794961 -0.2091555 140.25
-0.41667396 -0.046809804 -0.19879544 151.75
-0.34099144 -0.043303892 -0.19148436 155.66667
-0.23090959 -0.06150078 -0.16775993 149.66667
-0.14690591 -0.065865599 -0.17479981 149.72
-0.060226902 -0.059221096 -0.18142138 165.25
0.076883547 -0.061835658 -0.17763631 161.08109
0.16473974 -0.061666749 -0.16083212 146.34883
0.27827647 -0.063161008 -0.17197016 156.53061
0.35328385 -0.030482821 -0.17041528 160.3662
0.47853765 -0.057231784 -0.15035014 160.09911
0.55004752 -0.054491408 -0.13584556 157.42857
0.6591422 -0.049785845 -0.12746416 170.22414
0.76765281 -0.043322742 -0.10368945 178.75999
0.85870922 -0.040385623 -0.084954873 185.66667
0.94201154 -0.051096547 -0.079678543 189.57143
-0.70270449 0.075420186 -0.24333403 123
-0.62939274 0.069552608 -0.23723459 130.66667
-0.52119744 0.061048187 -0.22307321 140.33333
-0.43029812 0.053813968 -0.21444328 150.5
-0.35397014 0.047753796 -0.20684326 151.33333
-0.24533643 0.039448228 -0.18502839 149.14285
-0.1431517 0.030943669 -0.18863864 150.07692
-0.055070404 0.050148007 -0.19306351 166.93333
0.078368619 0.028186735 -0.18975402 161
0.1651554 0.041117534 -0.17532621 147.14999
0.26398832 0.062361632 -0.18514769 148.21875
0.36519736 0.00041334159 -0.17418881 156.5
0.48227689 0.031154921 -0.15657263 159.82759
0.54748642 0.040752523 -0.14651819 157.01428
0.65549219 0.047135022 -0.13953996 169.93878
0.77210981 0.058956012 -0.11470453 179.42857
0.86392546 0.04811959 -0.095691383 186
0.94745094 0.057966258 -0.094132595 190.33333
-0.51889735 0.17783992 -0.23390521 138
-0.45556784 0.16461684 -0.22861914 146.5
-0.34971637 0.14243989 -0.21504164 153.2
-0.2339889 0.11805733 -0.19193158 151.66667
-0.13127741 0.13127878 -0.19615033 150.80769
-0.022699159 0.15273106 -0.18203181 157.60001
0.065662071 0.12748346 -0.18858625 156
0.16704991 0.13190304 -0.19031164 148.20833
0.24798085 0.1235779 -0.183909 146.74603
0.50618649 0.094237618 -0.15127848 155
0.5704329 0.13114731 -0.1593812 164.1282
0.64642227 0.13393064 -0.14098097 173.43903
0.75853407 0.14966761 -0.12507269 180.57143
0.8622613 0.13876046 -0.10544656 186.63637
0.94174021 0.14598075 -0.10428571 189.5
-0.69770056 0.21527709 -0.25407863 125
-0.62831354 0.20079358 -0.24902882 126.66666
-0.57477498 0.18967721 -0.24851984 134
-0.42893204 0.26846239 -0.22423449 143.25
-0.34378362 0.23982546 -0.22494027 153.8
-0.22717284 0.19893762 -0.20016709 150
-0.13304158 0.23515598 -0.14178367 140.60001
-0.049722169 0.24159683 -0.18282314 156.125
0.049977411 0.2501533 -0.20989102 173.53847
0.18303868 0.20035933 -0.20051038 154.2
0.21307276 0.18935318 -0.19252005 146
0.66354984 0.23586005 -0.14140497 177.55556
0.74850816 0.23443456 -0.12983644 182.52942
0.84858477 0.24757761 -0.12345361 187.71428
0.9430052 0.2437178 -0.12400448 191
-0.52541202 0.3026593 -0.25026855 134
-0.47345772 0.28421649 -0.23583017 141
-0.2000303 0.37776852 -0.2241445 150
-0.13356104 0.33208343 -0.20620058 148.14285
-0.036635987 0.33538595 -0.20396042 156.06667
0.067519136 0.34460619 -0.21322832 171.25
0.1196257 0.29534879 -0.21018407 173.66667
0.76008052 0.33509389 -0.13200103 187.125
0.8378678 0.32803023 -0.13006704 190
0.91987872 0.36208487 -0.14611025 191
-0.31917498 0.4581297 -0.24776179 146.33333
-0.24547167 0.40847558 -0.23347755 149.25
-0.13468485 0.43914306 -0.22237055 147.33333
-0.028170027 0.43782678 -0.2099631 150.875
0.025024598 0.39303797 -0.20100434 158.66667
0.87757319 0.43755072 -0.14502592 191.5
-0.42531893 0.52954561 -0.2677809 135
-0.35955262 0.48466137 -0.25183076 143
-0.24552591 0.53651857 -0.24534437 148
-0.12384177 0.53918988 -0.23550582 149
-0.065707177 0.49680519 -0.22202088 151
-0.52746367 0.5971185 -0.28055823 125.5
-0.39940259 0.67197847 -0.27830487 128
-0.34422746 0.62378711 -0.26801121 133.5
-0.19995406 0.6484341 -0.2476043 141
-0.17314993 0.6201247 -0.24824403 145.33333
-0.51997894 0.77553868 -0.2937524 118
-0.43856344 0.70532399 -0.28217483 124
-0.25732687 0.71635491 -0.26765418 137
-0.34672096 0.81738049 -0.28482911 129
-0.11315215 -0.36702013 -0.055683583 138
-0.0065933974 -0.26638028 2.5959847e-05 133
0.095522977 -0.14619866 -0.012521888 120.6
0.15636165 -0.15913381 -0.045687873 126.94872
0.20775101 -0.15675279 -0.063956097 121
-0.21560292 0.18699972 -0.076568194 125
-0.072889969 0.19551744 -0.047181711 130
-0.23126847 0.19358519 -0.096749224 125
-0.11989015 0.22490415 -0.10755689 137.33333
-0.086650364 0.20362462 -0.060609251 131.5
0.06061992 -0.20305398 0.034697305 120
0.085453145 -0.14275485 0.022715196 122.33334
-0.037454538 0.1741899 -0.0087015731 133
