# .PCD v0.7 - Point Cloud Data file format
VERSION 0.7
FIELDS x y z intensity
SIZE 4 4 4 4
TYPE F F F F
COUNT 1 1 1 1
WIDTH 52
HEIGHT 1
VIEWPOINT 0 0 0 1 0 0 0
POINTS 52
DATA ascii
-2.1093929 -0.69318408 0.66103142 10
-2.0744686 -0.58340466 0.78536069 12
-2.042731 -0.62555236 1.07726 15
-1.9285014 -0.8039549 0.67208087 11
-2.060765 -0.59701407 0.74351567 11
-1.5684922 -0.71970576 0.58031529 11.666667
-1.5552996 -0.70452785 0.81630278 15
-1.4488671 -0.79696614 0.43562436 10
-1.3143567 -0.87591088 0.63640451 14
-1.4613984 -0.78043526 0.69934332 14
-1.0953447 1.0375032 0.74290478 14
-1.0746485 1.0512706 0.62545311 11.5
-1.0430515 1.0416642 0.84241426 15
-0.88227594 0.99969512 0.62698394 13.5
-0.7810002 1.3506292 0.6288662 12
-0.70892626 0.33032238 -0.032613505 0
-0.57661462 -1.3604752 0.22924064 12
-0.67864525 1.3279852 0.61244321 13
-0.51882923 1.6635556 0.64186227 12
-0.61876732 1.372631 0.71792603 14.5
-0.44514617 -1.4428571 0.30291095 13
-0.43667048 1.815492 0.66767371 13
-0.44917279 1.6701169 0.78843278 15
-0.26758459 2.126662 0.94871491 15
-0.35266981 -1.4999719 0.11078606 10
-0.21373121 2.1723444 0.81279075 13.5
-0.096199371 -1.6616585 0.11594744 11.5
-0.051492799 2.4760082 0.69269204 12
0.075824112 2.5481699 0.78155756 13
0.078579597 -1.7425126 -0.043774199 9
0.31639677 -1.9292024 -0.12675542 9
0.37173843 -1.9513947 0.026414532 11.5
0.3744975 -2.0011954 0.24325264 14.5
0.44328696 3.6483088 0.78330362 10.5
0.47300017 3.633317 0.94172657 12
0.49831793 3.597492 1.2658882 14
0.78410882 0.26624325 0.098603122 15
0.88863808 0.011713986 0.062672734 15
1.0187277 4.5354257 0.7457419 10
0.94453138 -0.12917982 -0.38320321 3
1.1379454 -0.1457599 0.063568823 15
1.3818158 -0.44041693 -0.11991849 11
1.3708298 -0.31940693 -0.033705711 13
1.5023832 -0.50177455 -0.054241855 13
1.4574525 -0.32630548 -0.031485558 13
1.4823821 -0.33667612 0.051386122 15
1.6465999 -0.61366522 -0.068340801 13
2.6503983 -5.1607313 -0.22422676 11
3.1406496 -4.5295119 0.4917846 15
3.4297538 -4.2243667 0.19996467 14
3.5940208 -2.5763843 0.20246656 15
6.0748048 7.059958 -0.17615257 8
