# .PCD v0.7 - Point Cloud Data file format
VERSION 0.7
FIELDS x y z intensity
SIZE 4 4 4 4
TYPE F F F F
COUNT 1 1 1 1
WIDTH 409
HEIGHT 1
VIEWPOINT 0 0 0 1 0 0 0
POINTS 409
DATA ascii
-2.037271 -0.68505907 0.68611443 10.714286
-1.9832093 -0.67726433 0.91026103 13.615385
-1.6603075 -0.75546068 0.5706681 11.333333
-1.5776918 -0.68000805 0.75694084 14.333333
-1.2656633 -0.92387331 0.4862794 12.285714
-1.3994576 -0.80097288 0.54398876 12.333333
-1.3486717 0.64030677 0.67771399 12.555555
-1.1833313 0.9097451 0.67511594 12.5
-1.2328998 -0.92687821 0.63186061 14.5
-1.4123595 -0.75803083 0.68807858 14.333333
-1.3534621 0.58953327 0.79297811 14.333333
-1.1531341 0.91465437 0.79493642 14.5
-0.7443763 -1.2538221 0.32506087 12.333333
-0.95033264 -1.1134576 0.40626171 12.6
-0.9431954 1.0224348 0.65360332 13.285714
-0.77005923 1.3232263 0.63347125 12.5
-0.9227497 -1.1077155 0.52694768 15
-0.97785372 1.041991 0.75090516 14.666667
-0.75501442 1.2847453 0.7327736 14.5
-0.61049962 -1.37703 -0.20913674 3
-0.45898703 -0.96579772 -0.19195256 2
-0.45923346 -0.67383063 -0.16840197 0
-0.69466162 0.32669541 -0.042583697 0
-0.66014838 0.45921907 -0.02954484 0
-0.52047855 -1.3923644 0.25509319 12.333333
-0.6123367 0.85586035 0.55712146 15
-0.65865773 1.3650181 0.62347281 12.8
-0.48920083 1.7117088 0.64855242 12.5
-0.34901577 2.0051057 0.67391735 12
-0.46989152 -1.4138983 0.40802205 15
-0.63268846 1.3730032 0.72379255 14.5
-0.45974076 1.6851782 0.77823436 14.5
-0.31718522 1.9877689 0.83898723 14.25
-0.26370031 -1.7000077 -0.29917899 4
-0.19978333 -1.323891 -0.26762092 3.3333333
-0.23603719 -0.97173256 -0.23012377 2
-0.225752 -0.64525717 -0.2016959 0.33333334
-0.091114044 -1.6658872 0.13219389 11.888889
-0.24840583 -1.5609974 0.15779805 11.8
-0.21648268 2.2106304 0.67082 11.666667
-0.048652023 2.4657733 0.65771079 11
-0.064987697 -1.7180039 0.30041924 14.5
-0.20518726 -1.6144499 0.33310682 14.5
-0.17402188 2.2232823 0.81529593 13.666667
-0.01937783 2.4430311 0.87466592 13.714286
0.087853454 3.6886363 0.9721868 11.5
0.15083511 3.654722 1.3652775 14.5
0.0013116534 -0.9353103 -0.26970106 2
0.096002907 -0.59443355 -0.25133955 0.25
0.22500026 -1.8575015 0.02813681 11
0.48004156 -2.4918334 0.093620904 12
0.40886563 -2.0775902 0.17250711 13.5
0.25155896 -1.9124168 0.2591635 14.4
0.30606997 3.7033117 0.91091591 11.285714
0.39561534 3.6798642 1.2685995 13.909091
0.64665824 -0.070712261 -0.31586123 1
0.6182071 0.18892327 -0.23369254 2.75
0.51499969 0.65214741 -0.16354926 3
0.62573206 1.0105367 -0.22266914 2
0.65422344 -2.475687 -0.15666899 9.5
0.44362557 -1.9639044 -0.12418083 9
0.70007253 0.25567481 -0.030344917 10.9375
0.61319292 -2.4731464 0.053527653 12
0.55370587 3.802021 0.81214631 10.75
0.74531817 4.1085362 0.88393199 11
0.91801417 4.3649521 0.98538691 11.5
0.67822331 3.817147 1.2796028 14.5
0.81459647 4.0988345 1.3060606 14
0.98818725 4.3948774 1.2988141 13.5
0.93887955 -0.14282648 -0.3433266 3.9000001
0.8167268 0.079149939 -0.18413739 7
1.0164118 -0.075999357 -0.058168557 11.846154
0.86724114 0.016189959 -0.036551315 12.166667
0.92462152 4.2283101 0.89395881 11
1.0466172 4.5734515 0.87100983 10.8
1.1684304 4.6227388 1.2829423 13.2
1.2571309 4.8382344 1.2267035 12.5
1.1232105 4.5145221 1.4912618 14
1.3045011 4.7872844 1.5425014 14
1.4837358 -0.43348306 -0.39928839 7
1.2186006 -0.26699153 -0.37838662 5.5
1.4666718 -0.45247692 -0.11225983 11.833333
1.3559349 -0.294745 -0.084589392 11.933333
1.5602573 -0.53177178 0.047911175 15
1.4260178 -0.29410335 0.069458157 15
1.4643351 5.1622181 1.2633896 12.5
1.5992436 5.1161761 1.5350901 14
1.8725585 6.2359009 1.7527835 13
1.8103744 -8.6014576 1.0597904 14
1.9137667 -8.3569736 0.94559562 14
1.7454481 -0.60101432 -0.12788494 11.75
1.795195 1.0321257 0.0076865922 11.2
1.8603189 1.2385936 0.047688421 11.5
1.7539495 -0.67594498 0.039955497 14.5
1.8403805 0.77994812 0.18757977 14
1.8464946 1.0385646 0.22271258 13.8
1.8872918 1.2239813 0.2352795 13.5
1.9095211 6.2514496 0.94409311 10
2.0753813 -8.0763273 -0.25127226 10
1.9616295 6.2273145 1.274925 11.4
2.0348353 -8.5480804 0.12874389 11.5
2.1505399 -8.22054 0.095833674 11.5
2.0263116 6.1822853 1.655917 13
2.1552224 -8.542943 0.52924085 13
2.2209837 -8.2352314 0.34024194 13
2.040561 6.1623783 1.8329328 14
2.017385 -8.1527834 0.81900805 14
2.1847069 -8.1088495 0.91482526 14.5
2.3601842 -0.87159991 -0.29350853 10.5
2.0885429 -0.76095104 -0.39457873 9
2.2566841 -7.8576336 -0.64953685 9.5
2.4505417 -0.9719516 -0.062585786 13.5
2.4830418 -5.1098394 -0.2026225 11
2.2915356 6.4424114 1.2436876 11
2.3786733 -7.9379835 0.12890112 12
2.3201652 6.0695095 1.5164403 13
2.3043087 6.4412956 1.5607202 13
2.3614211 6.4027143 1.8519783 14
2.7874677 -9.5261955 0.86623532 14
2.7079442 -8.6250143 0.9037928 14.5
2.532021 -8.4983673 0.93829352 15
2.5355792 -5.0405593 -1.1200795 7
2.6507759 -4.9974918 -0.99106878 8
2.6230528 -1.0232627 -0.40601665 9.7142859
2.8083761 -1.224095 -0.087524816 13
2.5979137 -1.0515312 -0.088733397 13
2.9489534 -9.7293844 -0.43365377 10
2.7556019 -5.0431237 -0.12048561 11.8
2.7708457 -4.769341 -0.23837698 11
2.9251163 -4.8577509 0.11328398 13
3.1192474 -9.1837149 0.81168938 14
3.006249 -8.77985 0.88003099 14.333333
2.7287614 -4.9217434 -1.1706426 7
2.8584137 -4.764473 -0.88864189 8
3.0584369 -4.3559356 -0.87882084 8
3.1005416 -4.3117251 -0.95368528 8
2.955987 -1.2196097 -0.59551644 8.5
3.1089907 -1.378365 -0.3254438 11.333333
3.1461091 -9.5066891 -0.50023514 10
3.0509782 -4.5720887 -0.20618144 12
3.1998048 -4.315196 -0.24448422 12
3.1435912 -1.7063144 -0.0066782045 14
3.082155 -1.4156135 0.052870359 14.5
3.1736882 -9.5343199 -0.40457302 11
3.0351443 -4.6925607 0.099174194 13
3.2835319 -4.3702354 0.3435775 14.5
3.4502697 -10.115859 0.44758606 13
3.368345 -8.7978687 0.80015278 14
3.5630794 9.1078691 2.4649742 14
3.667228 -9.5194826 1.2401465 15
3.3890312 -9.3377676 -1.851967 7
3.4353676 -1.5346588 -0.92468315 7
3.2981801 -9.6848907 -1.3074033 8
3.446784 -9.415122 -1.3125428 8
3.1728408 -4.2234859 -1.0735122 7
3.5054429 -3.5851781 -0.95840442 8
3.5411253 -1.6346 -0.65826172 9
3.2816062 -1.3961681 -0.53344953 9.5
3.4923661 -9.4438229 -1.0920329 9
3.5228267 -3.7113636 -0.57944518 10
3.5167489 -1.5350797 -0.48527652 10
3.588824 3.4729216 0.14435725 10.5
3.3988004 -4.1056747 -0.24048348 12
3.568836 -3.8989596 -0.15352488 12.5
3.5403526 -2.5878623 -0.097727895 13.4
3.5406518 -1.7101136 0.138065 15
3.3329601 -1.5841162 0.052490782 14
3.5343435 3.4106116 0.57419324 12.5
3.6856718 10.656704 1.4108205 10
3.7172463 -9.4005041 -0.29255494 11
3.5023665 -4.1369119 0.19429626 14
3.5958967 -3.9907708 0.18948723 14
3.6262093 -2.4874156 0.2040503 15
3.7712545 -9.4126177 0.011382519 12
3.798847 10.590309 2.0695019 12
3.5880764 -9.8471603 0.41626912 13
3.8040254 -9.5155993 0.37401474 13
3.6725214 -9.1580105 0.69430006 14
3.7680826 9.0212765 2.4058449 14
3.7915175 10.200696 2.5185897 13
3.866214 -9.130065 1.1539949 15
3.9949865 -8.8862934 1.1022091 15
3.5486405 -9.1242466 -1.8451023 7
3.6851435 -5.2840061 -1.3865856 7
3.6015093 -9.1845903 -1.3217 8
3.6647658 -5.3118148 -1.285529 7.5
3.5922925 -3.5986893 -0.98870713 8
3.7321625 -3.2604027 -0.9363814 8.3999996
3.8339753 -3.0769799 -0.96899146 8
3.7139921 -1.7088493 -0.73680508 8.5
3.6762469 3.7579939 -0.08139807 9
3.6483405 -9.2275829 -1.1015811 9
3.9846897 -8.9419451 -1.3758388 8
3.7599683 -6.0444551 -0.84413648 9
3.7497129 -5.7354097 -0.81332117 9
3.8952379 -5.2811298 -0.79299283 10
3.9100821 -4.8314013 -0.75036383 10
3.7921162 -3.3238685 -0.66652155 9.75
3.9811809 -3.0104194 -0.56220365 10.666667
3.7345977 -1.8220625 -0.31746733 11.5
3.7008989 3.7553067 0.27356416 11
4.1200418 -9.8106995 -0.76137632 10
3.840661 -3.4105289 -0.15803045 12.666667
4.0157037 -3.0333571 -0.21720953 12.5
3.8371575 -1.9137827 -0.048457835 13.5
3.8259025 3.497551 0.67602509 13
3.7983837 3.8018763 0.71170843 13
3.9785655 10.459556 1.1316003 9.333333
3.9295359 -3.3943732 0.097893529 14.4
4.080646 -3.1995308 0.04319172 14
3.7780261 -1.8630015 0.23503178 15
4.1612368 4.3622203 0.80281323 13
3.9341166 10.493117 1.6452776 10.333333
4.1299591 10.37219 1.9323256 11
4.2162042 8.9510574 2.3130846 13
4.0063758 9.0194597 2.3670387 13
4.1727653 10.159592 2.4342492 13
4.1245942 10.421288 2.2792001 12
4.1197033 -8.6524973 1.0542971 15
4.0741267 -6.3068681 -1.6698923 7
4.1974821 -2.7459302 -1.2879195 7
4.241848 -2.534236 -1.2463516 7
4.0422645 -6.416554 -1.3477463 8
4.3200469 -4.7758517 -1.2430906 8
4.2163911 -4.4552813 -1.1699456 8
4.0637546 -2.7827773 -0.918589 8.666667
4.1449165 -2.5993872 -0.98141855 8.1111107
4.108305 -2.0343356 -0.98288274 7.75
4.0316916 -1.8701634 -0.92048401 8
4.0198445 -6.4360466 -1.1236317 9
4.1400733 -6.0373816 -0.90305859 9
4.169425 -4.8147869 -0.78702843 10
4.3310041 -4.4713912 -0.77458519 10
4.132267 -2.8013885 -0.63056153 10.5
4.3083243 -2.5116642 -0.5704025 10.8
4.1924839 -2.1426232 -0.49226514 11
4.1681309 -1.9297349 -0.65955848 10
4.3155184 10.256481 0.90681404 9
4.1134562 10.391502 0.7868821 9
4.2012 -6.4815798 -0.75142753 10
4.4053884 -5.4035158 -0.6884312 10
4.336575 -4.881763 -0.38348988 11.5
4.4492631 -4.3859539 -0.60142702 11
4.1159096 -2.9991162 -0.24956372 12
4.3090243 -2.5301421 -0.19961651 12.75
4.2454457 -2.240958 -0.10070748 13.5
4.2334528 4.5349278 0.64874732 12
4.3467789 10.242509 1.1711352 10
4.3530188 -2.8520014 0.12058914 14.5
4.4025578 -2.702563 0.19613151 15
4.2559843 -2.2175181 0.15682445 14.5
4.4447703 10.187132 1.4823434 10.333333
4.5179119 10.189701 1.9907434 11.666667
4.5179448 8.8124189 2.2252512 12
4.540329 10.069112 2.3385434 13
4.6964192 -10.782034 0.34020802 13
4.4333234 -5.8367982 -1.6562997 7
4.5694242 -4.50106 -1.5088456 7
4.4551072 -2.3513143 -1.2500231 7
4.5653811 -4.1047335 -1.2982081 7.6666665
4.5642619 -2.759378 -0.90246958 9
4.497952 -2.4931715 -1.0278827 8.2857141
4.382833 -2.2030792 -0.84323084 9
4.6063199 10.253361 0.41570005 7
4.7588801 -9.4920654 -1.584612 8
4.8114514 -5.0809155 -0.90680879 10
4.4233742 -4.3704805 -0.95844412 9
4.4748354 -4.314671 -0.77769023 10
4.7956762 10.686728 0.65398198 8
4.7507267 -5.3415198 -0.72287774 10
4.6704597 -4.4790359 -0.36125645 12
4.5322742 -4.2789025 -0.59969181 11
4.7849779 10.100463 0.9739303 9
4.8162856 10.680054 1.1380376 9
4.752851 5.0575438 0.89317137 13
4.8622408 10.054558 1.5308795 10
4.9324594 10.579589 1.7882776 10
5.0222354 8.5886393 2.0812681 12
4.8208199 8.679656 2.1385093 12
4.9730086 10.014159 2.1881566 11.5
5.1107225 10.499536 2.0441334 11
4.8466535 -5.0734057 -1.58574 7
5.0511088 -3.9689953 -1.4107803 7
4.9728208 -5.4966626 -0.97359252 10
4.8854761 10.599633 0.84606951 8
5.0030088 10.081892 1.183526 9
5.3578668 10.554112 1.2479072 9
5.5352082 -9.8049135 0.21885745 13
5.3305278 9.9761076 2.1643796 12
5.4881353 10.658656 2.0068591 11
5.2621756 -6.3190227 -1.9096907 7
5.1666613 -3.9803629 -1.5440776 7
5.2419267 -3.9201102 -1.4368874 8
5.2751708 -3.8608296 -1.5462245 7
5.3233671 -4.8162198 -0.73898524 11
5.7639327 11.031088 1.2893697 9
5.7780876 8.3376846 1.8934096 12
5.8573132 10.031937 2.0529425 11.5
5.7722692 10.614882 1.934624 11
5.7595782 -8.8901854 0.67777836 15
5.8686528 -8.9107485 0.70651698 15
5.9989491 -12.777705 0.87573856 14
5.6653514 -5.1920867 -1.8760234 7
5.7688894 -4.382534 -1.5264913 8
5.8951383 7.2741733 -0.27932855 8
5.9031844 7.3136816 0.095257632 8
5.9498124 7.2660451 0.39623314 9
6.0060468 7.2402458 0.71999377 10
6.11342 10.814568 1.1474144 9
6.1842346 7.1397166 1.2178539 11
6.201438 7.1398664 1.4848564 12
6.1225076 8.2473402 1.8160111 12
6.1396747 9.8450365 1.9794078 12
6.0484357 9.9929018 1.9935868 12
6.0245905 10.500863 1.8502982 11
6.368691 -11.756127 0.88949037 14
6.4944286 -11.699041 0.88500065 14
5.9702339 7.2012925 -0.19093245 8
6.0974298 -14.642984 -2.3695507 8
6.127667 -7.328474 -1.6026447 8
6.1821218 -7.050385 -1.578614 9
6.082026 7.0814862 0.016606385 9
6.3276258 9.2227917 0.025909595 7
6.1648684 7.0805616 0.46501896 10
6.3872762 -4.1470127 -0.43035144 12.25
6.5695543 -3.888272 -0.25907102 13
6.4775519 9.1482143 0.75850534 9
6.5072255 -4.0620642 -0.064421333 14
6.5980663 -3.9258046 -0.056716602 14
6.4053631 6.9417605 1.1276222 12
6.320466 7.1672397 1.2021829 12
6.4901986 8.1731958 1.7413226 12
6.5456419 9.6345253 1.8451352 11.666667
6.4537296 10.419218 1.7397428 11
6.6371584 -11.521566 0.86011147 14
6.3598785 9.0736465 -0.12761466 7
6.5568004 -3.3937783 -1.3021743 9
6.7018824 9.5250063 0.10595736 8
6.7093854 10.32817 0.13377586 7
6.5509791 10.543002 0.16822685 7
6.8359756 9.4470816 0.40362751 8
6.7385173 10.261417 0.5828073 8
6.5567522 -3.8434827 -0.45907131 12
6.8105211 9.4644651 1.0593024 10
6.8789134 10.200212 0.88288903 9
6.6897497 -3.7863796 -0.049526256 14
6.9571843 9.3856239 1.7169545 11.333333
6.7850308 9.5249348 1.7332122 11
6.9534278 -7.6938148 -2.4115636 7
6.8382664 -5.8271308 -2.2507277 7
6.9787531 -5.6301208 -1.8445165 8
6.8948145 9.3705034 -0.24097732 7
6.9792061 9.3422642 -0.031806152 7.3333335
6.8312178 10.243383 0.34392002 8
6.8189125 -6.0222373 -1.2875028 10
7.0537758 9.3035822 0.32236555 8
7.0315852 10.097365 0.62650859 8.5
7.0525689 9.3012829 0.68790054 9
7.2567143 9.2134581 1.6242399 11.333333
7.7451301 -9.010519 0.8661024 15
7.3909502 -6.1071148 -2.2697971 7
7.1166186 9.2310381 -0.33165759 7
7.4001684 -12.551267 -2.4113111 8
7.8670573 -12.457731 -0.58263153 12
7.563663 9.0045815 1.4914061 11
7.8669157 15.462448 2.1101406 10
8.0267 -9.1018267 0.78674114 15
7.4956522 -12.197358 -3.0561218 7
7.698524 -5.3610859 -2.3528252 7
7.5817842 -5.6518164 -1.6300857 9
8.1848316 15.236404 2.0055842 10
8.2334595 -11.127049 0.07180804 13
8.1254892 -5.6067615 -2.1607742 8
8.2967768 15.108596 1.5620762 9
8.5541649 15.108038 1.9118605 10
8.6941919 -9.0971327 0.64645994 15
8.2781115 15.196892 0.023504486 7
8.969388 14.7349 1.3416648 9
8.812047 14.877275 1.420748 9
8.8508129 14.85325 1.8054831 10
9.2137289 -9.6756907 0.0082545998 13
8.9748812 -8.8052559 0.638982 15
8.8348379 -6.1862221 -1.5703875 10
9.3052912 14.532925 1.2280973 9
9.2716093 14.604918 1.7128068 10
9.4871216 -12.413546 -0.76341844 12
9.3258362 -9.399312 0.0054068984 13
9.4906836 -9.1759644 -0.00029804208 13
9.4597559 14.434994 1.1660933 9
9.6158476 14.420636 1.5993217 10
10.408779 -7.8258181 0.0024768901 14
10.659827 -16.013353 -1.6329677 10
10.768387 -15.865607 -1.6790699 10
10.919781 -14.919184 -1.5661241 11
10.873283 -8.189127 -0.37807682 13
11.284449 -15.083912 -1.6755023 11
11.346118 -13.850197 -1.4381799 11
11.059985 -11.207678 -1.4348463 11
11.789491 -12.841931 -1.440195 11
11.625309 -10.684528 -1.3343565 11
11.891997 -14.485137 -0.54168916 12
11.824057 -10.360913 -1.3341818 11
11.972054 -10.098178 -1.4321066 11
11.881536 -14.342868 -1.6047944 11
12.128396 -14.136139 -0.55880499 12
13.053969 -8.2499895 -1.8916893 10
13.25624 -8.6412992 -1.3217441 11
13.273828 -12.082833 -1.0728537 12
14.167344 -10.73105 -1.0652789 12
