# .PCD v0.7 - Point Cloud Data file format
VERSION 0.7
FIELDS x y z intensity
SIZE 4 4 4 4
TYPE F F F F
COUNT 1 1 1 1
WIDTH 46
HEIGHT 1
VIEWPOINT 0 0 0 1 0 0 0
POINTS 46
DATA ascii
-2.6050041 -1.398478 0.27903432 8
-2.5909967 -1.2766308 0.42020106 10
-2.6481726 -1.5872995 0.7391361 12
-2.6542935 -1.2434615 0.70820147 12
-2.6910751 -1.413464 0.84910268 13
-2.6885135 -1.1045495 0.83029294 13
-2.6809428 -0.69258946 0.86440033 14.5
-2.5601392 -1.4341263 1.0070894 15
-2.5506263 -1.8666273 0.28487119 8
-2.5382323 1.2888122 0.57791477 11
-2.4949558 1.2373893 1.0211741 15
-1.9551966 -1.6190069 0.26414073 9
-1.8731823 -1.6306858 0.60307813 12.5
-1.5334593 -1.6073672 0.34378532 10
-1.3890116 -1.6033456 0.62232548 14
-1.3622916 -1.6009105 0.38966468 11
-1.0228827 -1.5905988 0.35297212 12
-0.93927437 -1.5927005 0.1980554 9
-0.81475204 -1.5899383 0.52715653 15
-0.24621789 -1.6830164 -0.19506666 4
-0.20535348 -0.82159531 -0.19728404 0
0.16884574 -0.9371345 -0.22480829 1
0.22121747 -0.70185798 -0.22561282 0
0.27244332 -1.5439714 0.13799275 10
0.31696391 -1.5567366 0.31594703 13.5
0.55358183 -0.3680163 -0.23929319 0
0.43435639 -1.2608056 -0.22825868 3
0.57199711 -1.0673245 -0.23534887 2.5
0.41800013 -1.5463465 0.20753819 11
0.7712602 -0.82410097 -0.24079333 2
1.5797621 0.42334986 0.36960497 15
1.7641625 0.42944989 0.37017667 14
3.95035 -1.1534892 0.20294367 10
3.953541 -1.5132078 0.81993729 14
4.0110259 -1.5799344 0.94213438 15
3.9741728 -7.4497175 1.9129423 14
4.144362 0.26639447 -0.22949867 7
4.3893332 -6.4861598 1.882707 15
4.7311773 -5.8334689 1.8450701 15
5.0324955 -5.557261 0.10245559 9
5.2090936 -5.2321501 0.36199868 10
5.2204118 -5.2554073 1.7958008 15
5.2118449 -5.2176242 -0.064614058 8
5.4345546 -7.1540189 1.0027872 11
5.3332615 -5.6416593 0.84693003 12
5.3411903 -5.340539 1.4995711 14
