# .PCD v0.7 - Point Cloud Data file format
VERSION 0.7
FIELDS x y z intensity
SIZE 4 4 4 4
TYPE F F F F
COUNT 1 1 1 1
WIDTH 111
HEIGHT 1
VIEWPOINT 0 0 0 1 0 0 0
POINTS 111
DATA ascii
-0.52594775 0.35053456 -0.15884915 0
-0.44115832 0.59495622 -0.19209859 0
-0.16455518 0.69859636 -0.18048145 0.5
-0.006176386 0.82595336 -0.1606334 2
0.34860912 -3.4112494 -0.23767875 5
0.35154894 -3.0303938 -0.22880748 5
0.35430363 -2.5804856 -0.21610442 5
0.35664251 -2.241822 -0.20735811 4
0.2447692 -1.7544435 -0.19817594 4
0.27658355 -1.3699085 -0.20393233 2.8333333
0.30218276 -1.0152065 -0.20414461 1.6
0.28836381 -0.67576176 -0.19421028 0.2
0.24541843 0.67402494 -0.19883209 0
0.20003802 0.86872822 -0.13878153 2.6875
0.7433272 -2.9243248 -0.23440276 5
0.70983326 -2.6537662 -0.2293548 5
0.6601001 -2.262202 -0.21814664 4.5
0.58887857 -1.6766701 -0.21113417 4
0.65665472 -1.3996524 -0.21502163 3
0.5964312 -0.97028726 -0.21019018 1.875
0.62468141 -0.62341243 -0.19851817 0.80000001
0.67317814 -0.2554667 -0.19547316 0.25
0.49719125 0.61426061 -0.20438382 0.2
0.53279197 0.96875274 -0.12593767 4
0.48272136 0.97170252 0.025904311 8
0.84770191 -3.7503488 -0.2563605 5
0.7890836 -3.2865093 -0.24400516 5
1.0802289 -2.6560369 -0.24002174 5
0.95958567 -2.2017457 -0.22666734 4
0.98700869 -1.8030822 -0.22023003 4
1.0321916 -1.3786515 -0.21712001 3.4000001
0.93996394 -0.96910578 -0.21038452 2.5714285
0.95081377 -0.55023837 -0.20872438 1.625
0.95569444 -0.23738927 -0.20057894 1.2857143
1.4209429 -8.7216711 -0.2181786 6
1.4442585 -4.0330973 -0.27532917 5
1.2049352 -3.1257989 -0.25369123 5
1.4207951 -2.5324955 -0.24659826 5
1.2800428 -2.1922486 -0.23479502 4
1.4039838 -1.7888361 -0.2268113 4
1.3734567 -1.4291688 -0.22007383 4
1.3938842 -0.99226969 -0.21679772 3.5
1.4286877 -0.59468949 -0.20469795 3.2857144
1.3352115 -0.25899532 -0.21047142 2.5999999
1.875417 -3.6341546 -0.28138518 5
1.6861652 -3.175565 -0.26688585 5
1.9261026 -2.6944864 -0.26083195 5
1.7569664 -2.401454 -0.24919875 5
1.8030336 -1.8730654 -0.23731144 4.5
1.8438318 -1.3663025 -0.24402311 4
1.8009497 -0.98214394 -0.20360701 4
1.8290887 -0.64321876 -0.2009612 4
1.7942445 -0.25501484 -0.20368931 4
2.1215744 -4.231319 -0.29939061 5
2.1151514 -3.024112 -0.27017269 5
2.0353858 -2.1767612 -0.2508558 5
2.2340572 -1.8742254 -0.28078333 4
2.1759253 -1.4193597 -0.23852374 4.5
2.2615709 -1.0397508 -0.22363554 4.6666665
2.140883 -0.65985018 -0.20465356 4
2.1937177 -0.32640547 -0.2055718 4
2.6701331 -8.9849024 -0.14413254 6.5
2.7391944 -4.1073914 -0.30942038 5
2.4687264 -2.7446344 -0.27271351 5
2.4516566 -2.0931382 -0.29487762 4
2.7120738 -1.8405799 -0.26234084 5
2.4867978 -0.64441532 -0.20778827 5
2.5993125 -9.0006084 0.088261865 7
2.3636575 -8.4092941 0.34990585 8
2.7792144 -3.1515427 -0.28832284 5
3.0496778 -2.6956713 -0.33093926 5
2.8359873 -1.4813566 -0.25498518 5
2.7972689 -1.0735556 -0.24264334 5
3.0634961 -0.48021665 -0.233124 5
2.9741826 -6.7423248 0.19144857 7.6666665
3.2565429 -7.1381292 -0.19068639 6
3.229506 -3.7402458 -0.31426519 5
3.4940104 -3.1433685 -0.35771054 5
3.4191113 -2.3964279 -0.29239172 5
3.4889948 -1.3841243 -0.23268063 5
3.2251909 -0.903256 0.091583446 7.5
3.611516 -1.9622822 -0.20915882 5.5
3.9312005 -6.428555 0.056423336 7
3.8206959 -6.358932 0.27725312 8
3.7718487 -6.3556342 0.42299739 9
4.1836586 -6.7174926 -0.22069599 6
4.1302133 -1.1387551 -0.28194541 5
4.7294898 -3.4263418 -0.34913224 5
4.7428942 -6.0437927 0.35214618 8
4.8964658 -4.5589795 -0.4346647 5
5.1041265 -4.8559699 -0.18492524 6
4.9122567 -4.6185217 -0.30520466 6
5.004775 -3.7021458 -0.13430616 6
4.8143597 -1.3455799 -0.30351171 5
5.5290809 -4.1307473 -0.094053641 7
5.3193769 -0.89097726 -0.14197236 6
5.1748776 -4.9980812 0.022403419 7
5.4707136 -4.1202688 0.043441016 7
5.408154 -0.93381435 0.2290628 8
5.8083925 -0.96403271 -0.34331718 5
5.613225 -4.3069487 0.32193398 8
5.729887 -0.99027449 0.21276912 8
5.6485476 -4.3917856 0.5380035 9
6.061646 -5.9745197 0.21675773 7.5
6.0928102 -7.9165463 0.52459055 9
5.9982448 -5.9797235 0.42697495 9
7.1331658 -8.9346209 -0.32868263 6
7.14252 -8.9956589 -0.21604352 7
7.6823139 -4.4650617 -0.075911321 7
7.6687794 -4.4208641 -0.25282711 6
7.7165351 -4.5404148 0.19228487 7.5
