# .PCD v0.7 - Point Cloud Data file format
VERSION 0.7
FIELDS x y z intensity
SIZE 4 4 4 4
TYPE F F F F
COUNT 1 1 1 1
WIDTH 76
HEIGHT 1
VIEWPOINT 0 0 0 1 0 0 0
POINTS 76
DATA ascii
-4.4875097 -1.3848011 0.36081025 10
-4.4585867 -1.4750874 0.62034035 11
-4.4843717 -1.3813342 0.8126356 12
-4.5271788 -1.2442588 1.1721088 14
-4.6008577 -0.76641572 1.2752249 15
-4.545135 -1.4770594 1.3732518 15
-4.299293 -1.8635905 0.28871882 9
-4.3109627 -1.8231772 0.4959327 10
-4.2548852 -1.9733592 0.56629324 11
-4.3672686 -1.7703778 0.75427514 12
-4.3209639 -1.8679855 1.1139565 14
-4.231566 -2.0810523 1.3092225 15
-2.2147748 -1.9424168 0.15193988 9
-1.9588449 -1.8420906 0.24095441 10
-1.617695 -1.7614733 0.16982509 9
-1.2343789 -1.5534525 0.25692478 11
-1.2335707 -1.5311769 0.48380715 14.5
-1.195437 -1.5544895 0.12950253 9
-1.0710952 -1.8861067 0.29836971 11
-1.2035327 -1.5503187 0.26991278 11
-1.1553291 0.53024262 0.30517742 14
-1.1216273 -1.7605432 0.4341661 13
-1.2061673 -1.5447009 0.38137355 13
-1.11791 -1.8164588 0.60374963 15
-1.0134562 -2.0000629 0.09962298 9
-0.90329528 -1.7790678 0.26934826 11
-0.86826354 0.64569354 0.26708961 14
-0.86293894 -1.8396435 0.59010345 15
-0.75355893 -1.7468009 0.34731007 12.5
-0.71664369 0.70997071 0.28046054 15
-0.39761493 -9.27812 2.0141239 13
0.028100241 -9.101141 0.48015192 9
0.04233459 -8.9599037 0.77560163 10
0.24855854 1.0972972 -0.19951913 2
0.28656316 -1.0642904 -0.18111303 2
0.35738203 1.1560769 -0.066527165 5.5
0.50418186 0.83801937 -0.19392975 1
0.43260553 -1.1540531 -0.1873648 3
0.39474654 -8.8605614 0.37547261 8
0.58603585 1.2009994 0.38813406 15
0.71940571 -0.73751414 -0.1859428 2
0.70719123 0.77143508 -0.17897767 2
0.73949534 1.292224 -0.17407604 3
0.68819314 -8.7110987 0.032415446 7
0.73077995 1.2579963 0.38740838 14
0.80417734 -0.92668521 -0.17842364 3
0.85838938 0.82136941 -0.17399606 3
0.85861087 1.3220048 0.098276027 9
0.90112936 1.3200141 0.35145301 13
1.1408236 1.3804442 -0.032509476 6
1.1041831 1.3820673 0.10043533 8
1.186499 1.2939725 0.37524709 13
1.113236 1.4045782 0.3501676 12
1.171096 1.3142509 0.48323575 14
1.1412015 1.3914683 0.53845203 15
1.2241875 1.3113887 0.34474704 12
1.4211488 1.3922209 0.28432053 11
1.4466622 -6.9392757 0.70596319 10
1.6422957 1.3245642 0.038244937 7
1.6400436 -8.3284006 1.9147781 13
1.8210806 -8.3862953 1.0826393 11
1.8386821 -8.3797235 1.4413886 12
2.5400558 -1.3601077 0.75985122 14
3.0427828 0.31348246 0.17555051 8
3.9725263 -8.0707569 2.121223 14
4.2139807 -4.1148887 -0.13484028 6
4.195354 -8.0761232 1.6074743 12
4.4217234 -4.7799931 0.19694278 8
4.4975224 -3.5013649 0.9841212 12
4.3380451 -8.0502968 1.8467411 13
4.5681052 -3.5721476 0.30069318 8
4.6446414 -3.3798826 0.6184957 10
4.8029027 -3.3944378 -0.062679425 6
4.7592263 -4.0961499 1.7686384 15
5.0653439 -7.8029089 1.4477062 11
5.286706 -7.7455239 2.3238153 14
