# .PCD v0.7 - Point Cloud Data file format
VERSION 0.7
FIELDS x y z intensity
SIZE 4 4 4 4
TYPE F F F F
COUNT 1 1 1 1
WIDTH 675
HEIGHT 1
VIEWPOINT 0 0 0 1 0 0 0
POINTS 675
DATA ascii
-4.4402366 -1.578243 0.18699813 8.5
-4.5084 -1.3770064 0.099074483 8.1999998
-4.6103764 -1.1258354 0.13478863 8.5
-4.4555507 -1.6165334 0.51985073 10.5
-4.5391421 -1.3509272 0.50215268 10.428572
-4.6087489 -1.1185949 0.3941142 10
-4.4675536 -1.6722509 0.95743668 13
-4.571094 -1.3298666 0.95497692 13
-4.4738526 -1.5987166 1.2463379 14.666667
-4.5607066 -1.3525033 1.2004675 14.5
-4.6485944 -1.0288962 1.2521299 15
-4.3115811 -1.9412234 -0.082597874 7
-4.090486 -2.5097747 0.1063982 8
-4.2179842 -2.1585419 0.13807184 8
-4.3706245 -1.7619864 0.13153447 8
-4.0922561 -2.5372267 0.5616082 11
-4.2321091 -2.1617534 0.59598899 11
-4.3822756 -1.730108 0.47267517 10
-4.134675 -2.4898989 0.98667723 13.5
-4.2837443 -2.1691091 0.94906771 13.166667
-4.3974762 -1.83653 0.88842189 12.75
-4.1122794 -2.5374832 1.2497706 14.5
-4.283483 -2.1683567 1.2558699 14.571428
-4.4290047 -1.8166888 1.2876267 15
-4.0209103 -2.6833529 -0.069077604 7
-3.9188085 -2.6805143 0.091407456 8
-4.0166097 -2.5846882 0.56912208 10.666667
-3.9669151 -2.6412306 0.9801895 13.5
-4.0221934 -2.5433462 1.2404962 15
-3.4779532 -2.4108641 0.1175226 8
-3.490736 -2.4305446 0.51032174 10.8
-3.2524281 -2.2896647 0.62028486 12
-3.4221089 -2.3930533 0.97160888 14
-3.3828084 -2.3006506 0.9290818 14
-3.4158158 -2.2990923 1.1594301 15
-3.1838362 -2.3857577 0.11207502 8
-3.0508747 -2.2630384 0.15016092 8.1999998
-3.0197403 -2.2257333 0.45547524 10.666667
-3.0180352 -2.1665509 0.90655136 14.2
-2.5834768 -7.6196265 0.17891398 8
-2.596293 -2.0824578 0.17672542 9
-2.5640371 -7.5904055 0.56663859 9
-2.5406711 -7.5171967 0.73308539 10
-2.6143365 -2.0571318 0.54007477 11.8
-2.6626351 -2.1252553 0.86594784 14.4
-2.4495678 -1.9658223 0.77080274 14
-2.7216742 -7.5426192 1.4301822 12
-2.6891694 -7.5525064 1.7821463 13
-2.1589959 -8.189167 -0.11179883 7
-2.3690572 -7.5817213 -0.076844521 7
-2.2974677 -7.7091842 0.24034484 8
-2.3219097 -2.0027511 0.11057729 8.666667
-2.1531265 -1.9066403 0.21776685 9.6000004
-2.3252497 -8.0303812 0.7509709 10
-2.4168458 -7.7109585 0.65471917 9.5
-2.4112051 -2.0748823 0.46301517 12
-2.1687953 -1.8812701 0.56977677 13
-2.2066572 -8.2966614 0.75992799 10
-2.392216 -2.0709295 0.85975403 15
-2.20262 -1.9045008 0.81060219 15
-2.4019527 -8.3981457 1.5452774 12
-2.2577214 -7.6991773 1.2960528 11.5
-2.5149593 -7.5011878 1.4195403 12
-2.3985319 -8.4000654 1.9088025 13
-2.4021833 -7.7774291 1.8009664 13
-2.4848347 -7.4799614 1.7560993 13
-2.057411 -8.5217943 0.17091335 8
-1.8040571 -1.7920452 0.20921275 9.4615383
-1.8803148 -8.1319427 0.74409634 10
-1.8323182 -1.7769046 0.54833639 13.363636
-2.0947442 -8.5011797 1.2558317 11
-1.9810412 -8.1630125 1.38678 11.666667
-1.8585876 -8.612299 1.7475287 12.5
-2.0505977 -8.1621447 1.8483194 13
-1.7482266 -8.9508648 1.974759 13
-1.7969965 -7.5446877 2.3118892 15
-1.4810437 -7.6921573 -0.090455651 7
-1.42312 -5.3970389 0.30046564 8.5
-1.4786345 -5.1279407 0.21315074 8
-1.4183829 -1.6345556 0.22193734 10.444445
-1.2794532 -1.5678812 0.23863269 10.666667
-1.2340615 0.50814521 0.27968019 13.5
-1.5756633 -8.0169287 0.73294848 10
-1.4027026 -7.8462095 0.57052898 9.333333
-1.4938622 -1.6289144 0.49900559 13.4
-1.3199613 -1.5597601 0.51784295 14.333333
-1.4483063 -9.3947573 1.4609536 11.5
-1.4041373 -9.1840487 1.261095 11
-1.6097262 -8.5902433 1.2214261 11
-1.6965857 -8.3182116 1.3985729 12
-1.4660244 -9.3999376 1.6998087 12
-1.7190222 -9.0252953 1.6397899 12
-1.5215821 -9.3804684 2.0457978 13
-1.5574107 -7.6653275 2.3098295 15
-1.0319799 -8.3901663 -0.1303764 7
-1.1695561 -8.0053387 -0.11014832 7
-1.0096816 -8.6084309 0.26261318 8
-1.077281 -8.1399393 0.1893945 8
-1.296401 -7.8767886 0.2438564 8
-1.0515038 -5.6597199 0.16348873 7.8000002
-1.192784 -5.35111 0.22041027 8
-1.1253821 -5.0572896 0.31824738 9
-0.88409501 -2.4153275 0.33045509 11
-0.90466446 -2.1552384 0.15263158 9
-1.0405619 -1.7906077 0.23496403 10.526316
-1.1733171 -1.5683916 0.21247882 10.333333
-1.0159392 0.59046322 0.29184157 14.285714
-1.0582957 -8.4735651 0.60761589 9
-1.2224588 -8.1710205 0.66476017 9.5
-0.88866889 -2.4373956 0.61180902 14
-0.89714915 -2.2245848 0.63722157 14.666667
-1.0525818 -1.7328329 0.50667006 14.142858
-1.205024 -1.5682487 0.48381588 14.5
-1.1016229 -9.3972702 0.79699779 10
-1.1718771 -9.4939432 1.3724513 11.25
-1.1630673 -9.5675097 1.7344221 12
-1.1272941 -9.5072527 2.0601978 13
-1.1407981 -7.8203955 2.3021963 15
-0.72312617 -9.3621063 -0.18374115 7
-0.8743161 -8.8544664 -0.2858507 6
-0.87501758 -8.7439747 -0.1505435 7
-0.65070271 -9.2271881 0.29124948 8
-0.85260242 -9.0740213 0.27522254 8
-0.78225285 -8.6378994 0.34446022 8
-0.71531487 -2.1952646 0.32877153 11.5
-0.70886797 -1.7819092 0.22468647 10.545455
-0.75591642 0.69696116 0.28728914 15
-0.71774858 -9.225029 0.55686557 9
-0.73720396 -9.0378466 0.7051971 9.5
-0.90079689 -8.2483673 0.4320727 9
-0.7708149 -2.4498341 0.61278129 14
-0.82338959 -2.3270409 0.61824203 14.5
-0.75915605 -1.7666047 0.46842998 14
-0.77682996 -9.2672386 0.78901857 10
-0.77116644 -9.8164434 1.3699164 11.333333
-0.73227048 -9.5861073 1.4109575 11
-0.82843274 -9.448822 1.7277499 12
-0.70728332 -9.3844843 2.0332897 13
-0.70852828 -7.9494429 2.294627 15
-0.39702708 -9.2307405 -0.17793582 7
-0.42950413 -9.0747795 -0.22533578 6
-0.20653315 -2.5911529 -0.15637694 5
-0.13076112 -2.251919 -0.15400921 5
-0.20225117 -1.8373715 -0.1495326 5
-0.23124711 -1.3904613 -0.15528043 4
-0.17702925 -0.98332977 -0.17002878 2.3333333
-0.12097388 -0.6597181 -0.17215198 0.25
-0.016142858 0.70868856 -0.19530945 0
-0.45786974 -9.2434483 0.22601929 8
-0.32731435 -9.1312075 0.31487924 8
-0.38115212 -9.2139482 0.46563178 9
-0.33836806 -9.1066236 0.71437454 9.5
-0.2654058 -9.8370466 1.2553439 11
-0.29979891 -9.4289522 1.3818841 11
-0.46410394 -9.7322788 1.6123078 12
-0.37819541 -9.2930059 1.7785712 12.333333
-0.19744368 -9.2021284 2.0015225 13
-0.35406017 -8.0410585 2.2924783 15
0.019754699 -9.0843754 -0.17080075 7
0.047348741 -3.7994418 -0.21470529 5
0.088784948 -3.3139579 -0.20507956 5
0.11908227 -2.9677808 -0.20088303 5
0.15483542 -2.5526831 -0.19381866 5
0.18274733 -2.2279229 -0.18808444 5
0.12551156 -1.7953421 -0.16672461 4.4000001
0.1617631 -1.3917984 -0.16835859 3.5
0.20498933 -0.99425143 -0.17745744 2
0.19213821 -0.66040438 -0.17319547 0.33333334
0.20347808 0.65160513 -0.1801953 0.16666667
0.23124154 1.0003636 -0.15366243 2.375
0.09065184 -8.9775095 0.34861457 8
0.073260382 -8.9566269 0.69625568 9.333333
0.070392482 -9.6910934 1.227318 11
0.031449109 -9.418148 1.66212 12
0.081969708 -9.1171398 1.8832076 12.666667
0.0071802386 -8.1096802 2.2912197 15
-0.038826358 -7.5838389 2.2913153 15
0.42632863 -8.9110146 -0.16106452 7
0.54280561 -3.6337593 -0.20883429 5
0.52392125 -3.2186961 -0.20366579 5
0.4942638 -2.6398861 -0.18462284 5
0.56751287 -2.1842024 -0.17715989 5
0.60088497 -1.8078945 -0.17187889 4.1999998
0.57562524 -1.3791938 -0.17422435 3.5999999
0.56722182 -0.97316885 -0.18352538 2.25
0.60125583 -0.61279595 -0.1786835 1
0.57184398 -0.35893837 -0.16845018 0.5
0.69290483 0.23353346 -0.15347479 0.85714287
0.63110793 0.60149956 -0.1717011 1.125
0.59090215 0.98840541 -0.19246063 2
0.64036632 1.271166 -0.11520807 4.3333335
0.56821263 -8.8592796 0.21734335 8
0.59243912 -8.7861757 0.39285934 8
0.52169639 1.1749434 0.38842458 15
0.68354028 1.2671225 0.17597805 10
0.35251445 -8.8586464 0.65339696 9.333333
0.60350984 -8.7566719 0.72305125 9.5
0.65963185 1.2320967 0.42429253 15
0.50584704 -9.5340977 1.1992832 11
0.28850809 -9.6202869 1.214388 11
0.56906962 -9.0893602 1.4800105 12
0.62124842 -9.3439589 1.6555053 12
0.43970531 -8.9811773 1.8733114 12.666667
0.42325309 -8.1540241 2.2885392 15
0.83544755 -8.7431192 -0.19079779 6.5
0.90450305 -2.9917576 -0.17988853 5
0.82964313 -2.5672085 -0.17782214 5
1.0714265 -2.2268634 -0.17118385 5
1.0006526 -1.7381514 -0.16415001 4.6666665
0.96701831 -1.4102343 -0.16296194 4
0.9506675 -1.0508343 -0.16847585 3.4000001
0.85897714 -0.77134681 -0.17644067 2.5
0.98701251 0.32379153 -0.13976771 2.6666667
1.0108763 0.5960955 -0.15773746 2.8461537
0.97349697 0.97439927 -0.17547826 3
1.0472399 1.3350806 -0.12329151 4.5555553
1.0354162 0.71604294 0.36904499 15
1.0273203 1.3616912 0.22743861 10.384615
0.89147127 -8.6627378 0.61594427 9
1.0531236 1.3523476 0.48444161 14.5
0.82282275 -9.403574 1.1796468 11
1.0582017 -8.6573238 1.1074533 11
0.73661351 -9.21383 1.3458078 11
0.77634197 -8.6992311 1.5842477 12
0.93185127 -8.9814043 1.8588771 12.666667
0.93737423 -8.1587849 2.2832434 15
0.79378414 -7.5573683 2.2833197 15
1.2554626 -8.6019707 -0.18733011 6.5
1.3159834 -3.0076587 -0.17578502 5
1.1753315 -2.5581765 -0.17361672 5
1.4246796 -2.2882731 -0.16045228 5
1.3936006 -1.8047913 -0.15406086 5
1.249349 -1.4064156 -0.15194763 4.5
1.2376642 0.38032538 -0.1493503 3
1.3606583 0.56226897 -0.11305411 4.25
1.3133377 0.90643543 -0.13829564 4.1666665
1.3275472 1.2619114 -0.093885325 5
1.2703716 -8.5849791 0.15429455 7.6666665
1.5714128 1.1061893 0.36462152 12
1.3099637 1.3302233 0.22474305 10
1.2804182 -8.5010958 0.666372 9.333333
1.4932609 -6.953793 0.65561658 10
1.5820315 1.0784633 0.51994443 14
1.4342011 1.3510998 0.52560431 14
1.347151 -8.5587397 1.0960627 11
1.1467227 -8.4925289 1.6004469 12
1.252614 -8.4461002 1.7991146 12.666667
1.4623562 -8.3846273 1.9120214 13
1.3095264 -8.1187086 2.2777328 15
1.5278214 -8.4721565 -0.28222898 6
1.675896 -8.3901415 -0.15342267 6.5
1.7691063 -7.1024332 -0.10534871 6.5
1.9249243 -3.3773537 -0.16023655 6
1.8952806 -2.4389937 -0.15304439 5
1.7483281 -2.2035837 -0.15394953 5
1.8057563 0.64073271 -0.098133899 5
1.807434 1.0008399 -0.05972578 5.6666665
1.692741 1.3365865 -0.099309221 5
1.5309267 -8.4687376 0.30257761 8
1.8014091 -8.3731565 0.12276662 7.5
1.5954332 -7.5049114 0.17374973 8
1.9431129 0.15246034 0.33142933 11.5
1.7664297 0.5817225 0.31436405 11.375
1.7759811 0.97385412 0.26670071 10.307693
1.7626418 1.2948608 0.17697096 8.8571424
1.6093731 -8.395813 0.70415384 9.333333
1.8098686 -7.3697071 0.61044049 9
1.6090022 -6.9602437 0.60337979 9.5
1.8030521 -6.7864356 0.69960463 10
1.9546415 0.042304277 0.54045242 14.5
1.7843889 0.55550218 0.48876059 13.857142
1.6800202 0.95241535 0.54097182 14.5
1.6302125 1.2360507 0.61443776 15
1.9904946 1.7506698 0.4935528 12
1.6303433 -8.4399862 1.0850089 11
1.4781913 -8.5002985 1.4368188 12
1.5909519 -8.3679142 1.7137054 12.333333
1.6804008 -8.0582047 2.2741771 15
2.0688298 -8.9282045 -0.21970183 6
2.2715893 -6.9876003 -0.10312197 6.5
2.1516199 -6.6941814 -0.032742549 7
2.1865668 -3.9453239 -0.16289507 6
2.3002501 0.86115336 -0.10567801 5
2.2437129 -8.9216375 0.22077444 8
1.8966874 -8.3481979 0.22411397 8
2.0546312 -7.4497967 0.23709625 8
1.9694083 -7.1191258 0.060207043 7
2.3563921 -0.90384001 0.23235205 9.333333
2.354038 -0.7608034 0.1967842 9
2.0541513 -0.10635307 0.3334944 11
2.0787959 -0.012603857 0.4220255 12
2.1232917 1.7915455 0.38891417 10.666667
1.9903851 -8.9728479 0.65561229 9
1.9956887 -7.0872245 0.62417722 9
2.1233661 -6.6765432 0.71748298 10
2.3417239 -0.99485433 0.74746609 15
2.204572 -0.56915772 0.70034784 15
2.1038408 -0.16415682 0.60117829 14.5
2.0550163 0.030717216 0.57322204 14.25
2.156646 1.7988504 0.57384843 12.25
2.2291324 1.8146904 0.89925659 15
2.1521232 -8.8897619 1.4290621 11.5
2.0314851 -8.8723078 1.8759741 12.5
1.9571881 -8.8949604 2.0397222 13
2.1421082 -8.8224554 2.0405462 13
2.0405638 -7.9432607 2.2629457 15
1.9267418 -7.2751532 2.2670839 15
2.2421498 -7.1656923 2.2675323 15
2.4138258 -8.866437 -0.16510528 6
2.531188 -8.410759 -0.21108352 6
2.6339164 -7.0596414 -0.047351167 7
2.3941569 -6.5963316 -0.083789505 7
2.5110147 0.95862222 -0.079054229 6
2.6395226 -8.7734613 0.22727311 8
2.4788644 -6.5820036 0.2658546 8
2.5185103 -1.3821065 0.18859927 9
2.5062287 -1.1081054 0.31409276 10
2.4211018 -0.7453838 0.27131307 10
2.4603088 1.9097975 0.37870336 10
2.7314315 2.0357203 0.36151645 9.5
2.5531662 -8.7759466 0.6073572 9
2.4869151 -6.5350475 0.66986203 9.5
2.5826216 -1.3060321 0.76713055 14
2.4676754 -1.0876889 0.78616595 14.666667
2.5298386 1.9266365 0.57669431 11.666667
2.6923447 2.0080268 0.62238204 12
2.5604029 -8.7959776 1.1319597 10
2.6945148 -1.6357177 0.96675169 15
2.6791649 -1.4448891 0.91485447 15
2.4285083 1.8867629 0.93553245 15
2.6632705 1.9767956 0.92874289 14.5
2.3581963 -8.8749847 1.4388491 11.5
2.5462017 -8.7950125 1.4401281 11.5
2.414876 -8.7346859 1.9993615 13
2.4213164 -8.7204618 2.0475407 13
2.4024577 -7.8385415 2.2610803 15
2.9162478 -8.273901 -0.19757523 6
2.8435986 1.1107476 -0.051198293 6
2.939146 -8.67873 0.23423225 8
2.7927511 -6.4804235 0.25970301 8
3.1009686 -0.4949432 0.32773808 9.5
3.1283514 -0.4377574 0.447474 11
3.1243412 0.18812913 0.3112081 9.25
3.0891736 0.43586329 0.18413369 8
2.9290597 -8.6630802 0.64500034 9
2.7140546 -6.4583879 0.6929307 10
2.9942882 -6.3419352 0.5463773 9.333333
3.1226878 -0.53228706 0.47972882 11
3.1561971 -0.38781795 0.49833328 11
3.0430088 0.22941662 0.639525 12.571428
3.0946496 0.41305062 0.72348142 13.5
3.0079982 0.30508086 0.92300922 15
3.038132 0.37388352 0.85580271 14
2.8324766 -8.688489 1.4465317 11.5
2.7834077 -8.5882235 2.0223212 13
2.7947631 -8.5916424 2.0618925 13
2.7663193 -7.7294865 2.2648118 15
3.0316007 -7.6272726 2.2670653 15
2.6959267 -6.9515305 2.2648799 15
2.9889569 -6.7932954 2.2638216 15
3.3418715 -8.5034103 -0.14608952 6.3333335
3.1581376 -6.9519858 -0.033541217 7
3.4468451 -7.0860267 0.27339759 8
3.2928443 -6.2186079 0.2864491 8
3.5859182 -0.86139613 0.13875932 8
3.3779125 -0.69137919 0.43766612 10
3.31812 0.032038812 0.25632557 9
3.4461343 2.3054183 0.41742182 9.666667
3.3794723 -8.4835758 0.67082709 9
3.2584832 -6.2318783 0.56770349 9.333333
3.4323294 -0.64127398 0.5497762 11
3.3088577 -0.16938816 0.48661011 11
3.4174552 0.028941318 0.49487901 11
3.3143358 0.87288207 0.46462765 10
3.3825846 2.2594233 0.68799663 11.5
3.4248922 -8.4358063 0.87888503 10
3.3900473 2.2601533 1.1163902 14.5
3.2141359 -8.5462894 1.4578594 11.5
3.07004 -8.4794779 2.0725741 13
3.294498 -8.3862896 2.0717876 13
3.2708325 -7.4633155 2.256731 15
3.2575862 -6.5928483 2.2574036 15
3.7562485 -8.4102383 -0.36273319 6
3.7392216 -8.3576775 -0.12239861 6.5
3.5284863 -6.8790226 -0.14180085 6
3.6927383 -6.6341529 -0.0051243105 7
3.7063134 -6.1477199 0.02393109 7
3.6577408 -5.7620072 0.045760687 7
3.8148005 -8.3243933 0.26021233 8
3.9188049 -1.7503504 0.25975585 8.333333
3.9124839 -1.6110519 0.18622288 8
3.8517721 1.0637475 0.33562368 9
3.9525282 1.7820591 0.18171348 7.5
3.8396678 2.2153933 0.42367831 9
3.7712886 2.3829396 0.43598527 9.5
3.6545768 -6.1179767 0.48809984 9
3.796376 -6.0440378 0.49744111 9
3.7600353 -0.54418087 0.7171793 12
3.8396027 -0.33352023 0.63343376 11
3.7344625 0.68934733 0.57483149 11
3.8844512 0.93501973 0.61271471 11
3.8780932 2.0962124 0.71428233 11.333333
3.7661049 2.3872449 0.66411209 11
3.7424803 -8.3041611 0.99121946 10.333333
3.8693449 -0.45535886 0.90106905 13
3.91223 -0.36503777 0.91678351 13
3.9411707 0.68589801 0.9209305 13
3.8375726 2.2029347 1.0905105 13.5
3.7061946 2.3695586 1.0357424 13
3.6579175 -8.3577242 1.4749782 11.5
3.8529723 2.1462944 1.3458383 15
3.759299 2.400737 1.3492122 15
3.8115146 -8.2985611 1.8047404 12
3.6911247 -8.2382746 2.1064892 13
3.4973488 -7.2797337 2.2435286 15
3.7192683 -7.0972552 2.2356555 15
3.6917861 -6.1981244 2.2420876 15
4.1405306 -8.1001749 -0.1690297 6.6666665
4.0935864 -6.6374993 -0.090985678 6.5
4.035491 -6.0409918 0.037376504 7
4.1758351 -4.2093921 -0.1041352 6
4.1563926 -3.7960808 -0.12262743 6
4.2746601 -3.5597286 -0.10546638 6
4.2470565 1.7381428 -0.056841135 6
4.1954551 -6.9312396 0.30274105 8
4.3035192 -6.4225793 0.3189539 8
4.0594497 -1.819139 0.1201072 7
4.2468648 0.0096830484 0.26668447 8
4.3147864 1.2871267 0.19420522 8
4.163691 1.8055556 0.14548868 7.3333335
3.9577789 -5.9988656 0.5096646 9
4.1277075 -1.3327349 0.56314439 10
4.2534537 -0.96396172 0.61808348 11
3.999625 -0.25987476 0.71541637 12
4.2381978 -8.1208696 0.92774862 10
4.3051438 1.8930311 1.0375327 12.5
4.0599837 -8.1719532 1.4379121 11.25
4.0396476 -8.0691204 2.0936675 13.333333
4.1786089 -8.0499487 2.1352687 13.5
3.9692371 -6.9715099 2.244539 15
4.182652 -6.7830172 2.2417877 15
4.655067 -7.995935 -0.069657512 7
4.655365 -5.2960219 -0.1942486 6
4.6392174 -4.6617894 0.0013576222 7
4.5273018 -4.1203976 -0.025470776 7
4.5300813 -3.9451947 -0.00012513238 7
4.6083546 -3.5007946 -0.09082076 6.25
4.5625114 -0.71095562 0.037743263 7
4.5876498 -7.9858165 0.29212505 8
4.3545952 -6.8320947 0.31039643 8
4.7051897 -5.2681055 0.10214654 7
4.590538 -4.7137775 0.18625505 7.4000001
4.6761174 -3.8439369 0.3103148 8.5
4.6189966 -3.460835 0.29102492 8.2857141
4.5847006 -0.99184161 0.27600336 8.1999998
4.608923 -0.73696744 0.16482605 7.6666665
4.4788318 1.3234589 0.35349962 9
4.6866117 -7.9589958 0.77559596 9
4.6239305 -3.47963 0.75850451 10.666667
4.6336265 -1.1236366 0.69499928 10.5
4.7895565 0.87939727 0.47406486 9
4.7489181 2.1366415 0.48596942 9
4.4036088 -8.0793552 0.93657285 10
4.5361042 -8.0006819 0.9367618 10
4.6319976 -3.8484149 0.96830148 11.5
4.6417985 -3.414645 0.93989635 11.5
4.7197857 -1.0465324 0.96069884 12
4.5414848 -8.0106125 1.5255272 11.5
4.623652 -3.4789345 1.486154 14
4.6423936 -3.8893719 1.7600442 15
4.5794969 -3.413908 1.7119302 15
4.4820542 -7.9281263 2.1648905 13.666667
4.3871841 -6.5862308 2.2378786 15
4.5852246 -6.3851981 2.2368948 15
5.0868874 -7.7824216 -0.2722387 6
4.8162217 -5.2967992 -0.052609954 7
4.8294864 -3.9326587 0.020024121 7
4.7666202 -3.434695 -0.14272943 6
4.898118 -4.586657 0.257292 7.8333335
4.925478 -4.2962637 0.21828309 7.5
4.7852683 -3.9562557 0.30909064 8.5
4.7637124 -3.3360169 0.45454794 9
4.9159694 -0.95351028 0.4375416 9
4.8431282 -0.84688002 0.28353295 8
5.0611439 -7.7979312 0.81050408 9
5.0555372 -4.2730165 0.82374763 10
4.7951345 -3.82956 0.61680645 10
4.8027902 -3.3222022 0.72285616 10.5
4.9127898 -7.8636985 0.97482765 10
5.0086055 -4.6551375 1.0002319 11
4.8852096 -4.3526673 0.90944821 11
4.8035545 -3.8510637 1.0954098 11.5
4.8065581 -3.3175826 1.0035602 12
4.8331494 -7.895083 1.5464637 11.5
5.0380254 -4.1995497 1.50537 13.5
4.816844 -3.8421788 1.4437888 13.5
4.7856698 -3.3292215 1.4118416 13.5
4.8710198 -7.8734488 1.8237605 12.666667
5.024796 -4.7478051 1.9488804 14.666667
4.8893099 -4.3835707 1.8593467 14.5
4.8780532 -7.7897077 2.2274663 14
4.7723827 -6.175848 2.2347236 15
4.9383111 -5.9468889 2.2305462 15
5.0296235 -5.6364608 2.2007518 15
5.4071231 -7.8643022 -0.11256802 6.5
5.4981413 -7.0985084 0.0081047798 7
5.3451109 -6.5784998 0.036424074 7
5.3061252 -6.226151 0.058394529 7
5.4551415 -7.7479944 0.33253706 8
5.3531494 -6.6478219 0.10874206 7
5.370461 -6.166152 0.26573589 7.75
5.3941226 -0.78169328 0.47448692 9
5.3662515 -7.7495136 0.58474541 9
5.3995771 -5.7810321 0.61925179 9
5.5147409 -5.4294195 0.86184013 10
5.3844476 -5.1151795 0.74113739 9.5
5.2118049 -4.6777172 0.69882548 9.333333
5.4167171 -0.67929476 0.50240952 9
5.4455976 -0.46038562 0.50780845 9
5.2786746 -7.7702794 1.1498137 10.666667
5.3421674 -5.9038329 1.0236007 10.6
5.2719035 -5.370358 1.0268019 10.666667
5.1374607 -5.0236259 0.97478878 10.5
5.1576915 -4.5330048 1.2588533 12
5.2847462 -7.7501221 1.4668649 11
5.3845425 -5.0933933 1.385046 12.333333
5.2189708 -4.6572928 1.4679511 13
5.2513924 -7.7575502 1.8270892 12.5
5.2877769 -5.4552221 2.0135012 14
5.122261 -5.0239353 1.9688803 14.5
5.3099051 -7.7338386 2.2878428 14
5.4187918 -5.800333 2.1601892 14.5
5.345057 -5.5919347 2.1469738 15
5.2086177 -5.2190633 2.0831556 15
5.6292648 -7.7190022 -0.14058134 6.5
5.7811918 -7.6512723 -0.24264659 6
5.5677881 -6.8503351 0.36381111 8
5.8815861 1.4404539 0.2421447 7.6666665
5.9659576 1.7026482 0.18018393 7.5
5.5847936 -7.6892838 0.60076344 9
5.7846818 -7.6006641 0.61689258 9
5.5614967 -5.5667129 0.63640177 9
5.936872 1.2266008 0.61808914 9.5
5.7888999 -6.7716622 1.0772734 10
5.6976347 -6.1946473 1.0042381 10.5
5.7779422 -6.1015196 1.4203882 12
5.739161 -5.9782519 1.6361979 12
5.5943203 -5.6424198 1.3722913 12
5.6363177 -7.6815863 1.7510926 12
5.8341498 -7.5924301 1.7712816 12
5.8795261 -6.3257399 1.9217868 13
5.7040682 -5.8802094 1.8520296 13
5.5449429 -5.4791403 1.7902464 13
5.6975007 -7.5760498 2.3651385 14
5.7591124 -6.7574883 2.2849531 14
5.5996823 -6.3239045 2.1711969 14
6.2322812 -8.9404678 0.022495467 7
6.1512709 1.1988232 0.343274 8
6.1062613 -7.4872274 0.64210719 9
6.1392331 -7.0324807 0.65252912 9
6.3006277 2.3000398 0.65678328 9
6.0877604 3.0151258 0.63524127 9
6.0143147 -7.5473032 1.0468416 9.75
6.1025047 2.9650784 1.0041963 11
6.2201619 -7.4225669 1.4220885 11
6.1791105 -7.4198203 1.8960887 12.333333
6.1289816 -6.9703026 1.7661202 12
6.0713854 -6.8133817 1.9967815 13
5.9205146 -6.4438572 1.6965647 12
5.9804292 -7.3959861 2.3718495 14
5.9586124 -3.924439 2.2247014 15
6.6281757 -3.0485508 0.091559164 7
6.4756117 -8.7579403 0.34796113 8
6.5848794 -3.1103754 0.32209998 8
6.6762714 2.1581376 0.18393242 7.4000001
6.3264651 -8.9313536 1.0331692 9.5
6.4914346 -8.7678375 1.1696343 10
6.5151391 -3.2034256 1.2758077 12
6.6296916 1.7743131 1.0165905 11
6.3725543 -8.902791 1.672627 11
6.6263018 -8.8185406 1.6951747 11
6.7176161 -8.6625309 0.3625994 8
6.9484572 -4.2063498 0.25258136 7.5
7.1951609 2.6386051 0.20387144 7.5
7.1933794 2.7062106 0.68581688 9
6.7346997 -8.6273136 0.97467262 9
6.7876916 -8.6195707 1.701889 11
7.3069258 -4.9225593 -0.22227202 6
7.3259292 -4.864862 -0.11017055 6
7.2733889 -4.9751196 0.31516013 7.6666665
7.2333317 2.8291411 0.72357595 9
7.3584437 -2.505578 0.91527086 10
7.397871 -2.4438646 2.4427073 15
7.5208983 1.6781625 2.3104637 15
7.8999839 -2.5167081 2.1863928 14
7.9759698 1.2781301 2.4458489 15
7.6378565 1.5668049 2.4208136 15
7.8859124 -2.0080366 2.6025419 15
8.0861959 1.7025483 2.3178763 14
8.1560106 -2.9070609 2.6571186 15
8.1703997 3.7860401 2.7485304 15
8.5385714 2.6177347 2.5816498 15
8.7209864 3.8027775 2.8615615 15
8.5934086 4.1110692 2.6238177 14
8.8915253 -2.9157372 2.1676948 13
9.1763811 2.5875392 2.7085817 15
8.9346247 2.9648688 2.7332032 15
8.8987999 3.2936697 2.7911558 15
9.0625448 3.821136 2.6478777 14
8.8355293 3.9719052 2.6371827 14
9.4520521 -3.1043372 0.35182473 7.5
9.5940142 4.6016808 1.1617509 9.5
9.4570446 2.4763441 2.5134108 14
9.4513149 3.5438068 2.5089076 14
9.3544769 -1.4759222 2.5567913 14
9.4990788 1.7355614 2.8936737 15
9.289216 2.395438 2.696223 14
9.5275612 3.0016382 2.5783641 14
9.3962154 3.4522617 2.6369085 14
9.7559061 4.6634793 0.69744676 8
9.7032919 -1.5069597 2.4173274 13.5
9.8755398 0.90962929 2.7231586 14.5
9.6397352 1.329283 2.8507435 15
9.7634563 1.6402214 2.7297063 14.333333
10.080626 2.5869658 0.34805086 8
10.34885 -0.14812236 2.7689304 14
10.195593 0.0752002 2.7682815 14
10.1113 1.4205327 2.6974583 14
10.420689 -2.6698451 2.4408329 13
10.466904 -1.3542596 2.3796721 13
10.653599 2.9151647 2.4547899 13
11.085113 -1.997185 2.9658566 14
10.884924 -1.5002986 2.6581085 13
10.998528 3.5926878 2.6193995 13
10.820445 -1.9489199 3.5032525 15
11.423326 -1.3160752 -0.28759697 6
11.396008 -1.4002345 -0.073603891 6
11.384951 -0.87313086 0.062234584 7
11.457295 4.8336306 0.70032167 8
11.610336 4.2129354 1.3096046 10
11.509891 4.5240116 1.2620617 10
11.36826 4.8624401 1.1174064 9
11.269095 5.1271119 1.1448499 9
11.528842 4.3762536 1.4731404 10
11.442625 4.9512677 1.3954134 10
11.248224 5.1572752 1.5531685 10
11.615757 4.2148862 2.4614842 12
11.22528 -2.2759516 2.9928017 14
11.721446 3.9831131 1.673969 10
11.917356 3.3321261 1.9735171 11
11.824159 3.5983484 2.0042708 11
11.693355 3.9979434 2.0515926 11
11.852623 3.4324875 2.3634267 12
11.754312 3.6859865 2.3915431 12
11.730114 3.9670234 2.435329 12
12.21288 2.5365114 1.8879377 11
12.018547 3.0685432 1.945232 11
12.197175 4.6426735 2.1987684 11
12.480852 -4.5025306 0.4495433 8
12.451986 4.2471299 3.333781 14
12.984897 3.7560158 3.341542 14
13.367661 5.5294466 2.899327 12
13.277689 3.5039492 3.3511178 13
13.592792 4.8074174 3.2254994 13
13.438195 5.1245198 3.2573698 13
13.840773 4.1485214 3.1547112 13
14.18355 2.8488617 3.2777326 12.666667
14.597936 2.1550474 2.9798241 12
14.424728 2.4870961 2.9980836 12
14.548102 2.073091 3.3599405 13
14.435717 2.4031811 3.3890581 13
15.331064 0.03577942 3.228523 13
15.960429 -1.824681 -0.059585769 7
16.058178 -1.6005658 -0.18790473 6
16.036787 -1.6056455 0.02974306 7
