# .PCD v0.7 - Point Cloud Data file format
VERSION 0.7
FIELDS x y z intensity
SIZE 4 4 4 4
TYPE F F F F
COUNT 1 1 1 1
WIDTH 106
HEIGHT 1
VIEWPOINT 0 0 0 1 0 0 0
POINTS 106
DATA ascii
0.037140343 -0.40698552 -0.19612016 172
0.78751731 -0.4129712 -0.1551435 191
0.84744519 -0.46967247 -0.16366616 188.8
0.90419018 -0.40849429 -0.1627512 190.5
-0.35515946 -0.39646327 -0.19716938 140
-0.25604638 -0.33859125 -0.16103768 143.5
-0.12185292 -0.35843861 -0.19777384 153
-0.049729928 -0.34540653 -0.19660027 162.72728
0.68178642 -0.30818045 -0.15513495 181.60001
0.75269967 -0.35129738 -0.15345791 187.39999
0.83570683 -0.35820144 -0.15334369 190.5
0.92859489 -0.32717291 -0.15766206 188.5
-0.21498062 -0.23220357 -0.19765827 148.66667
-0.15520452 -0.21810713 -0.18275186 151
0.056574762 -0.2284255 -0.1763268 169.66667
0.58760011 -0.21052791 -0.16947149 173.83333
0.64752185 -0.2458643 -0.1673564 177.94444
0.7310192 -0.24219535 -0.15423724 181.95238
0.8461563 -0.25050363 -0.1449075 188.60001
0.92434847 -0.23955284 -0.14783561 190
-0.21480286 -0.15291044 -0.19842906 149.5
-0.15466878 -0.14702518 -0.1954526 154.42857
0.080962189 -0.15412472 -0.13084583 143
0.17317532 -0.1365114 -0.13948113 134.53334
0.24840902 -0.12469241 -0.19625303 152.28
0.49096671 -0.11020418 -0.18706927 161.83333
0.55246359 -0.14529197 -0.1899644 166.19513
0.6334331 -0.14362915 -0.17042521 173.88637
0.75903547 -0.14574634 -0.15367144 180.56
0.8532818 -0.15160932 -0.14076228 186.71428
0.92391747 -0.16321059 -0.13899444 190.5
-0.31391913 -0.089833766 -0.15801889 141
-0.24772808 -0.025957894 -0.18594682 148.71428
-0.17384578 -0.038476739 -0.19019127 148.41667
0.17202225 -0.033735085 -0.19462672 146.8
0.24468255 -0.05780822 -0.19343016 148.97437
0.3715646 -0.022219984 -0.19332543 154.35001
0.4691554 -0.043186311 -0.18982297 162.7234
0.53832442 -0.047504231 -0.18439628 160.30263
0.64742869 -0.048148472 -0.17486794 171.18033
0.75837106 -0.042071633 -0.15224345 179.58333
0.8479141 -0.05243348 -0.13643709 185.38461
0.93054229 -0.053318061 -0.1350842 188.71428
-0.24459636 0.072973832 -0.19443713 146.5
-0.16826217 0.063883051 -0.19079806 150.66667
0.16678445 0.058514833 -0.19317849 144.73334
0.24423333 0.070801303 -0.19372667 150.39394
0.36439586 0.019767946 -0.19453362 155.75
0.4731673 0.045934934 -0.18699533 162.01053
0.53865111 0.048105728 -0.1810309 159.44737
0.64512181 0.052460201 -0.17348723 170.6207
0.75849134 0.053407535 -0.15046449 179.52174
0.83012807 0.059110045 -0.13238578 184.10001
0.91850108 0.044231165 -0.13180949 189.5
-0.22950143 0.14264646 -0.13409877 178.78572
-0.15203993 0.1554907 -0.18431894 147.11111
0.078426905 0.19475861 -0.11190023 153
0.16838004 0.14365926 -0.19507895 145.90244
0.22793157 0.12861092 -0.19129205 150.57576
0.48832718 0.11364337 -0.17939188 159.57143
0.5480805 0.1413997 -0.18186058 165.04167
0.63685131 0.14698102 -0.16409741 173.67308
0.75907058 0.15517412 -0.14467008 180.69565
0.86107713 0.14232579 -0.13150242 186.88889
0.91872537 0.14103 -0.12830426 190.60001
-0.35880157 0.28021854 -0.19625314 147
-0.23378356 0.23259118 -0.19240019 149.16667
-0.14671965 0.26214954 -0.18014039 149.72728
-0.065253295 0.23668149 -0.19248156 161.33333
0.03034018 0.25464639 -0.18407001 170.28572
0.58399254 0.22072814 -0.16664812 173.07692
0.64109921 0.24234307 -0.15030013 177
0.73057687 0.25451672 -0.14013183 181.8421
0.84003705 0.24705346 -0.13028543 188.7
0.93123579 0.26831761 -0.13398699 190
-0.30673984 0.36318201 -0.18813558 148
-0.25047767 0.33346128 -0.18774584 148.16667
-0.0307889 0.37011215 -0.17442448 157
0.010512672 0.33121333 -0.16927405 161
0.67477298 0.3242532 -0.14535354 180.8
0.75227606 0.35047218 -0.1333552 186.5
0.83639306 0.34350982 -0.12794022 190
0.9187398 0.35108235 -0.13970698 190
-0.1271275 0.45974839 -0.18283001 149.66667
-0.082643725 0.41715652 -0.17491268 150
0.76225698 0.42175695 -0.13167921 189.8
0.85584337 0.45869341 -0.13934028 188.25
-0.25273341 0.5762682 -0.19266865 143
-0.18164118 0.5107519 -0.1885501 149.75
0.84657836 0.51167673 -0.13250843 186.5
-0.34677792 0.66277283 -0.19755384 136.33333
-0.44224277 0.7492283 -0.19794889 123
-0.52845067 0.82753247 -0.19906065 115
-0.19221382 -0.29235336 -0.069926672 131
-0.075340807 -0.22731835 -0.051579785 132
-0.098418169 -0.17547524 -0.068545908 145
0.086336344 -0.14231192 -0.063665651 135
0.12860242 -0.14097945 -0.08769808 127.16666
-0.27092043 -0.082921214 -0.075207606 154.42857
-0.28168315 0.15034638 -0.081411958 173.14285
0.14580737 0.16243692 -0.064032838 129.64516
0.10996899 0.21365629 -0.076838814 134
-0.0042989855 -0.18103138 0.010681215 131
0.029555872 -0.15987921 0.033466905 137
0.083138317 0.16823877 0.025977444 125.8
0.039257169 0.2474761 0.024066104 138
