# .PCD v0.7 - Point Cloud Data file format
VERSION 0.7
FIELDS x y z intensity
SIZE 4 4 4 4
TYPE F F F F
COUNT 1 1 1 1
WIDTH 10
HEIGHT 1
VIEWPOINT 0 0 0 1 0 0 0
POINTS 10
DATA ascii
-0.5969972 -0.5589608 -0.1835883 0
-0.12474504 -1.1036377 -0.13752946 3
0.27717036 0.91164267 -0.24401093 0
0.1964917 1.065341 -0.26515734 1
0.43901479 0.7128768 -0.22355646 0
0.44961417 0.84880334 -0.22492102 1
0.47019252 -1.0584815 -0.13503498 3
0.58921731 -0.95029181 -0.14702733 3
0.52060401 1.8392433 -0.20874254 4
0.651564 -1.2344518 -0.12686889 4
