# .PCD v0.7 - Point Cloud Data file format
VERSION 0.7
FIELDS x y z intensity
SIZE 4 4 4 4
TYPE F F F F
COUNT 1 1 1 1
WIDTH 766
HEIGHT 1
VIEWPOINT 0 0 0 1 0 0 0
POINTS 766
DATA ascii
-9.2264862 10.683427 2.937294 13
-9.3234892 11.066524 2.9089417 13
-8.2167835 11.0105 2.8399019 14
-8.2161055 11.319549 2.8221653 13
-8.3717642 12.032581 2.6935086 13
-8.0018482 9.7777758 1.1740066 10
-8.2720947 8.4067631 1.736605 12
-8.0162201 9.7899923 1.4502676 11
-7.9268661 11.163812 2.8230336 14
-7.5429025 10.024257 1.2737563 11
-7.8080039 7.621912 2.1002295 13
-7.6971855 11.217093 2.8006566 14
-7.4278274 12.491422 2.6591835 13
-7.4117222 6.4261069 0.18164361 8
-7.1848335 5.9623666 0.92837477 10
-7.1755595 6.069943 1.2885017 11
-7.3823934 10.094217 1.0699642 10
-7.2295561 10.178711 1.2158245 10.5
-7.192522 6.3855686 1.8880001 13
-7.3940086 10.126316 1.3258488 11
-7.3038735 6.1833167 2.0197327 13
-7.4457312 6.933485 1.9800668 13
-7.0600796 12.736952 2.2572076 12
-7.3041615 11.395826 2.7732949 14
-7.2044268 11.598152 2.7576499 14
-7.1272097 12.66026 2.6523347 13
-6.9236264 5.4751368 0.33192819 8
-7.0632348 5.7598529 0.36220726 8
-6.9329786 10.329903 1.1543083 10.5
-7.0112381 5.6506691 1.9167851 13
-6.7854304 10.412104 1.2958933 11
-6.7477922 8.2090187 2.2806866 14
-6.7542315 11.602747 2.7226009 14
-6.5553923 10.582379 0.69433522 10
-6.312613 4.3741374 1.6744395 13
-6.3711333 10.642282 1.1054193 10.5
-6.3139291 4.4284186 1.8554053 14
-6.6001401 10.512952 1.2668774 11
-6.4585133 13.494933 1.3379744 11
-6.280169 4.6676617 2.0602052 14
-6.6187267 11.387883 1.7553264 12
-6.3213038 4.4313455 1.1599408 11
-6.2717414 4.5900116 1.5839018 13
-6.0965691 10.761628 1.1005949 10.5
-6.1757159 4.1215901 1.8041974 14
-6.2458687 4.2583623 1.7514162 13
-6.2256942 10.698004 1.2229224 11
-6.1424484 13.657393 1.3378873 11
-5.9740667 13.745726 1.2878436 11
-6.0000515 4.4003129 2.2834885 15
-6.2897372 13.610703 1.3713393 11
-6.0012674 7.7116075 2.4421675 15
-6.1884661 11.768932 2.6861804 14
-5.875639 11.855031 2.6699502 14
-5.7844868 13.901944 -0.11060825 8
-5.8388743 3.8561432 2.162353 15
-5.5160718 14.014256 1.3404675 11
-5.7952385 13.369022 2.2510364 13
-5.4821205 14.096014 -0.12249259 8
-5.3659668 14.184174 0.28012082 9
-5.2918944 7.9957829 2.0531657 14
-5.1926737 11.889529 1.642946 12
-5.3494444 14.110428 1.3410249 11
-5.2038813 14.198707 1.3415807 11
-5.3049903 8.0620975 2.3863525 15
-5.1717515 13.709776 2.2561119 13
-4.9764404 2.3249347 0.44877356 8.666667
-4.9526019 2.6124814 0.48072502 9
-4.9295435 2.3383462 0.71159226 10.333333
-4.9408121 2.5816369 0.78136563 10.666667
-4.9350495 2.7083967 1.0178454 12
-5.0791497 14.263857 0.2883409 9
-4.8894639 2.7079179 1.5585263 14
-4.8464985 2.7153597 1.7757574 15
-4.810132 14.146162 1.3272152 11
-4.9172626 8.2707958 2.3611298 15
-4.8417172 13.848137 2.2560947 13
-4.6873403 2.4565921 0.25544238 8
-4.7151775 13.250792 -0.30135339 8
-4.5703373 13.622571 -0.1199614 8
-4.3631959 13.4069 0.26066482 9
-4.368269 13.398514 1.2475486 11
-4.3336525 12.143117 1.5740489 12
-4.4777889 14.584277 1.3275087 11
-4.3239388 9.1264296 2.1397097 14
-4.522409 14.009417 2.2597609 13
-4.0688081 12.28555 1.5573056 12
-3.9485502 8.7789955 2.3047967 15
-4.0505013 9.0938044 2.1078074 14
-4.1883626 14.139729 2.2601416 13
-3.6056132 -0.83224255 0.50820625 8.5
-3.7222013 3.4326627 0.22904883 8.3999996
-3.6499887 3.7114291 0.19199434 8.5
-3.5849366 -0.81518829 0.97985834 12
-3.7332942 3.7443175 0.72930813 11
-3.5688927 -0.79048854 1.2859789 14.5
-3.6071734 -0.69927853 1.3169488 14.5
-3.7219589 12.18334 1.5166991 12
-3.6654932 8.9594784 2.2970657 15
-3.4578285 9.03508 2.2820768 15
-3.6598756 9.4262257 2.0797398 14
-3.32183 -7.4241614 0.87580198 7.5
-3.1974976 -1.6341739 0.47497818 8.5
-3.3326788 -1.3455554 0.5471049 9
-3.5052345 -1.0114667 0.55224472 9
-3.3427067 3.3064711 0.085624397 8
-3.3994288 5.0856395 0.13052142 8.5
-3.2786973 -7.3502464 1.304523 9
-3.1792119 -1.5859905 0.88837212 11.5
-3.3095636 -1.3288267 0.91911054 11.818182
-3.50453 -0.95974916 0.92818624 11.714286
-3.5455973 1.9109259 0.55861145 10
-3.3656979 2.6889465 0.73882961 12
-3.508147 4.2672243 0.34243995 9
-3.2520928 5.1124682 0.25342101 9
-3.2026136 -7.3771157 1.7956424 10.5
-3.1638033 -1.5448151 1.243975 14
-3.2991707 -1.2904499 1.2448457 14.125
-3.4689593 -0.93795645 1.2884412 14.5
-3.3289964 2.7173631 0.84152722 13
-3.1683218 10.893142 0.21384524 9
-3.1801326 11.068816 1.0877794 11
-3.0683761 -7.0437899 2.7637107 14
-3.1228845 11.135803 1.3849128 12
-3.161478 9.1940899 2.2715642 15
-3.1754117 9.5048065 2.0617595 14
-2.7821109 -2.37714 0.59228218 8.5
-2.9158804 -2.125355 0.59448862 8.8888893
-3.0914485 -1.7972909 0.56788582 8.833333
-2.8513911 1.9343097 0.29768106 9
-2.8381457 2.2403104 0.24741629 9
-2.9022546 3.0699923 0.33913025 10
-3.118325 -7.4989161 1.4132153 9.5
-2.7617886 -2.3433902 1.0733732 12.5
-2.90099 -2.086241 0.97517091 11.8
-3.0822315 -1.7581682 0.93309557 11.555555
-2.867995 1.8647473 0.60837305 11.833333
-2.7990906 2.2348051 0.54507524 11
-2.9170454 2.6713836 0.62569022 12
-3.0968146 5.3465114 0.25365877 9
-3.0188131 7.3109741 0.30125153 9.5
-3.0773287 10.913615 -0.040813517 9
-3.062207 -7.5063744 1.7192286 10
-2.7923377 -7.3372645 1.7564788 10.5
-2.7387886 -2.3315849 1.3778222 14.5
-2.8843181 -2.0549395 1.3426732 14.571428
-3.068213 -1.7060844 1.3101423 14.428572
-2.9846792 1.9479828 0.97676426 14.333333
-3.1188853 11.114104 0.53921497 10
-2.829325 -6.9147339 2.6888585 14
-2.8888454 -6.8885717 2.8617885 15
-2.6760907 9.9351416 1.6674238 13
-2.9223337 9.3337927 2.1585526 15
-2.8332078 9.5386162 2.047406 14.333333
-2.469734 -6.4897871 0.85090315 8
-2.4177563 -2.8443768 0.61318803 9
-2.6471279 -2.613461 0.6162402 9
-2.6673465 2.1279197 0.33745795 10
-2.4498231 -2.7805469 0.97498697 11.6
-2.635716 -2.5622151 0.97205603 11.555555
-2.7626097 2.2517288 0.51940954 11
-2.6512244 2.603723 0.57537037 12
-2.4335611 -2.7638345 1.4032934 14.666667
-2.623518 -2.550123 1.3246342 14
-2.4217663 -6.5196609 2.6448743 15
-2.5552497 -6.7524824 2.7686703 15
-2.3036532 8.9844646 1.6856891 14
-2.3619485 9.689147 1.6226711 13
-2.5947046 9.6411057 2.0356269 14.5
-2.4535272 9.5606117 2.2487969 15
-2.0878024 -3.7363396 0.36417973 7
-2.2018223 -3.5102711 0.38175815 7
-2.189482 -6.4072032 0.75368732 7.3333335
-2.2306464 -6.3448687 0.74464065 8
-2.0426359 -3.7583721 0.58960491 8
-2.2171767 -3.4200971 0.64468962 8.5
-2.3315709 -2.9869146 0.60820627 8.8000002
-2.2010965 1.8835772 0.3051357 10
-2.0228045 3.2961979 0.13635296 9
-2.1235344 -6.3549738 1.2920107 10
-2.02913 -3.6947367 1.043842 11.166667
-2.2184374 -3.3461263 1.0007442 11.25
-2.2964139 -2.9792831 0.96617413 11.428572
-2.0975785 1.0513107 0.73986244 15
-2.1685138 1.9346308 0.45220524 11.333333
-2.1250558 2.2591782 0.47603938 11.5
-2.1778848 2.5895631 0.57397187 12.333333
-2.339402 3.1917231 0.58029544 12
-2.1826506 3.3723228 0.59141171 12
-2.0552917 3.7427168 0.44062215 11
-2.2183962 -6.3881192 1.5702711 10.666667
-2.0048103 -3.6421731 1.5213984 14
-2.1639225 -3.3655536 1.4310861 14.25
-2.2592039 -2.9735866 1.4319407 14.666667
-1.9638956 -3.6954029 1.6659222 15
-2.1429627 -3.3640645 1.6178284 15
-2.0454471 -6.3031464 2.4199576 14.333333
-1.9939266 -6.2035069 2.4667919 15
-2.0038965 8.2350607 1.734368 15
-2.0437093 8.6278286 1.7067971 14
-2.0063837 9.1488781 1.6658232 14
-2.1484413 9.8356752 1.6334528 13
-1.8148953 -4.1525021 0.62500012 8.1999998
-1.9431075 -3.9339573 0.59277534 8
-1.7385099 1.2063438 0.31947285 11
-1.6813688 3.456068 0.16228339 9.333333
-1.8636523 -3.9684246 1.0428971 11
-1.9150848 -3.8952887 1.0399889 11
-1.8846842 2.3890133 0.40615115 11
-1.7646863 2.5386024 0.40397599 12
-1.881417 3.1073916 0.45915231 12
-1.7417197 3.5507128 0.40667158 11
-1.6251627 3.7661397 0.43575379 11
-1.9037368 -6.2465453 1.5595057 11
-1.8332525 -3.9504843 1.5412151 14
-1.8917812 -3.8367503 1.5222987 14
-1.7603391 3.618439 0.73335147 13
-1.7062805 3.7715082 0.67401946 13
-1.8173468 -3.9370203 1.7032648 15
-1.876224 -3.8369241 1.6872902 15
-1.7882262 -6.0151191 2.4477913 15
-1.7203643 8.0485687 1.7412879 15
-1.8166537 8.3033342 1.7293915 15
-1.7435433 8.7266226 1.6879137 14
-1.3609695 1.3700064 0.289563 11.5
-1.2039043 2.8006377 0.1759477 10
-1.2536604 1.4307934 0.45698413 14.5
-1.5318676 2.9485867 0.33768833 11
-1.5272342 3.777317 0.45456198 11.5
-1.5043266 3.7663286 0.67227447 13
-1.4323797 8.0830221 1.7304224 15
-1.2849854 8.3114567 1.7068487 15
-1.400425 8.8757401 1.6805067 14
-1.0019836 1.5549878 0.29573712 12.5
-0.85477471 1.6266186 0.29333505 13
-1.099539 2.8305559 0.17710423 10
-1.0048217 1.5587568 0.43536922 14.5
-0.82100809 1.6543069 0.45987704 15
-0.84277606 6.509635 0.11879121 9.666667
-0.81054896 6.410521 0.52248585 11
-0.85579747 8.1040583 1.7045705 15
-0.93175346 8.426877 1.6787804 15
-0.51737803 -1.3241078 -0.062826835 3
-0.44566402 -1.0788931 -0.086349629 2.5
-0.53892136 -0.58991408 -0.12855053 0
-0.62378329 -0.39845654 -0.14086203 0
-0.48133904 -1.7608632 0.41591364 10.9
-0.57533425 -2.1943181 0.91824609 15
-0.4287324 -1.7606885 0.61626786 13.8
-0.38778463 5.6605911 0.25387612 10
-0.36192301 5.6945291 0.57865989 12
-0.42467946 5.7371154 1.2254095 15
-0.28477687 8.0543041 1.6729958 15
-0.62856948 8.2009335 1.6812315 15
-0.10615351 -2.027338 0.12788878 7
-0.18898794 -1.8192178 -0.036636028 4
-0.21287577 -1.4132845 -0.064321689 3.2
-0.18867254 -0.99504584 -0.10816265 1.5
-0.24792847 -0.66837811 -0.1327119 0
-0.2122014 -1.9983572 0.42484125 10.428572
-0.20414241 -1.8862822 0.42321479 10.818182
-0.176357 -1.9736509 0.64180309 13.666667
-0.1848412 -1.8839949 0.60828859 13.5
-0.17106406 5.6234889 0.22840825 10
-0.19851086 5.6654921 0.26758626 10.5
-0.028036976 5.6709838 0.57238036 12
-0.014656151 5.7276931 1.0092746 14
-0.0037346454 5.7405748 1.2475092 15
0.16964017 -2.083961 0.047552533 6
0.13881724 -1.7745177 -0.046674728 4.3333335
0.15576951 -1.3768171 -0.076469995 3.6666667
0.18401967 -1.0024371 -0.11715323 2
0.19964349 -0.65560114 -0.1434433 0.2
0.3233014 -2.0955791 0.33241832 9.625
0.16160025 -1.8472064 0.36533636 10.555555
0.37478656 -2.092968 0.61912358 13.333333
0.19010672 -1.8419751 0.60221249 14
0.41146865 3.8322737 0.35429221 12
0.18734039 4.5035477 0.25092858 11
0.12058553 5.693471 0.21333252 10.5
0.40517801 3.8799891 0.6536417 14
0.21087834 4.5249228 0.51898241 13
0.11477509 5.7213216 0.55366427 12
0.26171234 4.5791078 0.97494113 15
0.1934289 5.7607002 1.0652947 14.333333
0.23536918 5.7842274 1.2344779 15
0.71107173 -0.053503428 -0.20779073 0.5
0.66234416 0.23897871 -0.22271527 0.875
0.60021508 0.57447928 -0.24780574 1.5
0.65910023 0.9507792 -0.29435447 2.6666667
0.67884284 1.3158351 -0.32200477 3.75
0.6255669 1.9051303 -0.36463201 5
0.6444447 2.0449724 -0.37630454 5
0.59032494 -2.5725441 0.33916032 9
0.46314341 -2.3281589 0.35722652 9.5
0.7853415 3.6762207 -0.13151892 8.5
0.76681584 -2.8286242 0.70513695 12
0.60403675 -2.514895 0.6936205 12.8
0.45423749 -2.2493548 0.65357745 13
0.64599621 3.7495072 0.28089845 11.375
0.80803508 -2.8679702 1.0484973 15
0.679901 -2.6427393 0.99422485 15
0.68465263 3.7876952 0.65069562 14.166667
0.99456042 -0.082682803 -0.20517991 2.6666667
0.96555769 0.21472856 -0.23033412 2.75
0.98809707 0.59161389 -0.26650482 3.25
0.94166911 0.98494691 -0.30286419 3.5999999
1.0172322 1.3768729 -0.33083543 4.4000001
0.88993919 1.7181275 -0.35792398 4.75
0.96249998 2.205569 -0.40107852 5
1.1713444 2.9705884 -0.48517391 5
1.2072141 -3.7357478 0.43928534 9
1.0180196 -3.3804684 0.38852936 8.75
0.84522355 -3.051789 0.40728617 9
0.80562884 3.5372272 -0.30734748 7
1.1190943 -3.5609577 0.69169503 11
1.0376029 -3.3282309 0.81029075 12
0.88805145 -3.0212634 0.7860027 12
0.95835495 3.9039726 0.2286239 11
1.1720039 4.0972457 0.2308249 11
1.0584388 -3.3078229 1.2020078 15
0.98968101 3.9726944 0.6331498 13.75
1.1502293 4.1323552 0.68557507 14
1.2240105 4.1857386 0.80821842 15
1.3774986 -0.13405146 -0.2222537 4
1.3852013 0.22101566 -0.248798 4
1.3905909 0.57398438 -0.27083674 4.4000001
1.3478415 1.0102264 -0.3150565 4.5999999
1.3317199 1.4024932 -0.34050423 5
1.3577873 1.7446827 -0.36905792 5
1.3159157 2.05704 -0.39676714 5
1.4201989 2.5621445 -0.44800049 5.5
1.2606094 3.4461584 -0.35149857 7
1.5416924 -4.4141755 0.32283416 7.5
1.4712952 -4.2287087 0.49935302 8.5
1.2413009 -3.8281405 0.32578659 7.5
1.3282993 3.8168752 -0.23884289 8
1.4480078 4.1476555 -0.13162471 8.5
1.4472072 -4.0864978 0.8612715 11
1.2660291 -3.7022805 0.84067899 11.5
1.4330784 4.237483 0.22237006 11
1.4525591 -4.0886426 1.3526272 14
1.3132879 -3.6253269 1.349506 15
1.413813 4.2608953 0.59698749 13.333333
1.5322638 -4.0357013 1.5313743 15
1.4470016 4.307312 0.88217163 15
1.8730431 -4.8309097 0.19636415 6.6666665
1.6747515 -4.7539177 0.1531803 6
1.8806368 -0.1504817 -0.22168116 5
1.7990949 0.196569 -0.24641915 5
1.8543143 0.59289616 -0.28670773 5
1.757466 0.94563544 -0.31521219 5
1.7539872 1.3218853 -0.35112044 5
1.8020684 1.7549286 -0.39091536 5.6666665
1.9787118 2.1489639 -0.4326624 6
1.831344 2.5795658 -0.4619762 6
1.8717277 -4.8052492 0.50286502 8.3999996
1.9937848 -4.7510662 0.5822767 9
1.7207583 3.4162409 -0.31639358 7.5
1.8963072 3.8686318 -0.16532476 8.5
1.658103 4.3243642 -0.072016016 9
1.8328024 4.4273105 -0.078701079 9
1.8569386 -4.7726417 0.87993252 10.333333
1.8549886 -4.5832086 0.99057281 11
1.7255155 4.3956718 0.19322959 11
1.9094527 4.4971552 0.15346231 10.666667
1.9229743 -4.7546482 1.1049255 11.5
1.7014536 4.4189281 0.57088459 13.333333
1.9124285 4.5351467 0.60404187 13.25
1.9053586 -4.7163377 1.6010886 14.333333
1.9770154 -4.6423941 1.6687599 14.666667
1.7057647 4.455976 0.9346227 15
1.8901511 4.536097 0.90276021 15
2.2311401 -4.6525226 0.15299617 7
2.2113857 -0.29344991 -0.24144353 5
2.1055839 0.34941167 -0.2837387 5
2.105515 0.56797254 -0.30575955 5
2.1474316 0.96381235 -0.33235824 6
2.2563438 1.4072126 -0.37534243 6
2.3179491 2.0177128 -0.43810698 6
2.3085568 3.4273429 -0.54103774 6
2.2350864 -4.6299853 0.47145456 8.375
2.1918404 4.6211023 -0.11059557 9
2.2986448 -4.5812559 0.87425202 10.5
2.2292473 4.6549425 0.13354373 10.5
2.300493 -4.570991 1.0270976 11.6
2.2821131 4.7070918 0.4395411 12.2
2.349108 -4.5121255 1.6072564 14.5
2.2331374 4.7299542 0.8496601 14.4
2.5737121 -4.4750166 0.13849688 7
2.7674894 -4.3754287 0.12994735 7
2.5128579 0.56316102 -0.32126912 6
2.7658322 1.9459895 -0.44442713 6
2.5654137 2.2746 -0.47138333 6
2.4165337 2.7342436 -0.50239742 6
2.7401063 3.1666083 -0.55445868 6
2.5530164 3.9038699 -0.48614931 7
2.5771902 -4.455152 0.44497553 8.3999996
2.780663 -4.3479738 0.39758882 8
2.7805064 -1.798202 0.22003742 9.25
2.5549965 3.9471076 -0.39679438 7
2.6277905 4.1162062 -0.31906861 8
2.7796772 4.7349973 -0.24112643 9
2.6512063 4.8528695 -0.19045734 9
2.6447392 -4.4099998 0.82106036 10.5
2.8169816 -4.3258066 0.85509169 11
2.7951572 -1.7864896 0.39387658 11
2.6074026 4.7574749 0.037381154 10.25
2.7213018 4.9219961 0.10770421 10.5
2.629674 -4.3941016 1.0060041 12
2.8110249 -4.2966332 1.003672 12
2.5053401 4.7986917 0.44160387 12
2.7304015 4.9127531 0.36799681 11.5
2.7013299 -4.3318672 1.5757395 14.5
2.8972046 -4.2267084 1.682723 15
2.6050105 4.8382111 0.98808968 15
2.6730454 4.9707971 0.85249037 14
2.8557227 5.075964 1.1539066 15
3.0019722 -4.256619 0.12514983 7
3.1777737 -1.9337863 -0.080740057 7
2.9856935 0.2183491 -0.30869222 6
2.8995752 1.3860716 -0.40128696 6
3.0720019 -4.2035837 0.32545525 8.25
2.910085 -2.0375664 0.18383929 9
3.1076565 -1.7733781 0.15418406 8.7142859
2.9110758 3.1228511 -0.17297013 9
2.9964571 3.3893201 -0.21199988 8.5
3.1272066 4.7874165 -0.29312593 8
3.0584183 4.9050188 -0.26107106 8.5
3.0853333 -4.1920257 0.76946378 10.5
3.0495255 -1.7234571 0.35496861 10.333333
3.0612357 3.4314811 0.088340923 10.25
3.1913784 4.7046962 -0.006936538 9.5
3.0293365 4.9790921 0.033353433 9.75
3.0932264 -4.1455441 0.99422002 12
3.0350349 5.1076069 0.43072328 12
3.1208894 -4.1243439 1.497924 14.5
3.0148907 5.1504521 0.81399232 13.666667
3.2177033 5.2711 1.039973 15
3.3829458 -4.0596318 0.010419107 6.6666665
3.5335007 -3.982729 0.0033099183 6.5
3.5490508 1.0498435 -0.41170111 6
3.5131686 2.5558057 -0.52491713 6
3.2452526 2.9817891 -0.55765522 6
3.4191365 -4.0340137 0.26809832 8
3.5258412 -3.9533505 0.39171782 9
3.4528461 -1.7562002 0.18058409 9
3.32023 -1.5256405 0.087336466 8.5
3.5213785 2.5671184 -0.16669215 8.666667
3.3571954 2.9418483 -0.20928568 8.333333
3.2251356 4.6672277 -0.24541047 8.5
3.5586469 4.8656082 -0.30322593 8
3.4291904 -4.0211887 0.71852791 10.5
3.5763934 -3.9390721 0.82139164 11
3.4558702 2.665401 0.08064568 10.4
3.3136342 3.0064092 0.15686123 11
3.4952836 3.2843854 0.024427366 10
3.319953 4.7125325 -0.11208978 9
3.4626079 4.9348497 -0.00055923581 9.666667
3.4543731 5.2804489 0.16472623 11
3.4506667 -3.9691541 1.0516895 12.5
3.5827134 -3.8846843 0.99117678 12
3.4460003 5.318294 0.25165233 11
3.4872944 -3.9403601 1.4830484 14.5
3.6716192 -3.8462751 1.3980525 14
3.4276037 5.3584499 0.72245342 13
3.6226127 -3.8622427 1.6823225 15
3.4728734 5.3696132 1.176735 15
3.816941 -3.8419166 -0.043386497 6.5
3.807467 -0.53460318 -0.29714453 6
3.6994567 0.28156549 -0.34438628 6
3.9799263 0.73985058 -0.4005259 6
3.6569567 1.5441204 -0.44719917 6
3.6101699 2.0382648 -0.47984442 6
3.6759038 3.4318845 -0.60488534 6
3.9495294 4.7793245 -0.75859308 6
3.8487999 -3.8108821 0.28607067 8.5
3.9592917 1.874595 -0.21461664 8
3.8174577 2.1222963 -0.12985945 8.8000002
3.8148494 2.9733922 -0.31610653 8
3.7647417 3.4131567 -0.30362239 8
3.9266841 3.7166331 -0.16539851 9
3.8154104 4.7010474 -0.44889003 7.5
3.8290482 5.0123491 -0.37429771 8
3.8979149 -3.788094 0.67201865 10.428572
3.8730023 1.8748518 0.1741614 10.5
3.7393994 2.1436293 0.15534902 10.75
3.9707656 3.7150404 -0.11060973 9
3.8380992 4.9865065 -0.038328644 9.666667
3.8882976 -3.7396574 1.0514196 12.428572
3.8028443 5.4950023 0.30499488 11.5
3.9194031 -3.7243309 1.4757888 14.5
3.8084261 5.5478306 0.65270346 12.5
3.827616 5.5557575 1.1641736 14.666667
4.0485921 5.7113323 1.1033254 14
4.1373219 -3.672389 -0.062889256 6.6666665
4.3380513 -3.5613165 -0.085927621 6.5
4.056787 1.2191968 -0.44992688 6
4.1772313 -3.6428132 0.2231975 8.1999998
4.3515687 -3.5493207 0.2269077 8.5
4.1662641 1.4182794 -0.14417571 8.5
4.2693567 1.7549094 -0.22487304 8
4.1360197 2.1106334 -0.24988736 8
4.2101331 2.517175 -0.22796503 8.5
4.256999 2.8717194 -0.28529125 8.5
4.0492444 3.5703821 -0.17805558 9
4.1352119 -3.6545465 0.59045184 10
4.375617 -3.5214422 0.57060099 10
4.4021869 1.1701003 0.12764157 10
4.2452116 1.3874061 0.1293605 10.333333
4.2382793 1.673726 0.098001637 10
4.2769361 2.9446893 -0.046949513 9.5
4.1229892 3.565603 -0.04706594 9.5
4.0672011 3.6438024 -0.025572628 10
4.2262335 -3.5673757 0.98349315 12
4.3632402 -3.4925988 0.96622396 12
4.2999001 5.7001052 0.30899769 11.25
4.2253923 -3.5733035 1.4596342 14.333333
4.4121494 -3.4739716 1.4928107 14.5
4.0669975 5.654058 0.59417027 12
4.2993188 5.7643952 0.67606789 12.666667
4.4490037 5.6361709 1.2881484 15
4.3298268 5.7769957 1.0937421 14.2
4.3705397 5.7968836 1.3081464 15
4.6165781 -3.4308097 -0.13896453 6.4000001
4.472487 1.3801066 -0.45849007 7
4.5758381 -3.4367862 0.21413186 8.333333
4.4640689 1.4171124 -0.29386714 8
4.4239397 1.6352745 -0.28786623 8
4.4346685 2.205322 -0.39422339 7
4.6212192 -3.3816018 0.49434349 9.6000004
4.6575913 1.5263784 0.056330703 10
4.7858462 4.750124 -0.017200029 9.5
4.7530465 4.9075704 -0.078238301 9.5
4.4291611 5.5534987 -0.022044349 10
4.4616499 5.6279569 -0.12820737 9
4.6466045 -3.3572714 0.94556683 11.875
4.8209362 4.7420778 0.34002811 11
4.7550182 4.9706082 0.24782714 11
4.6775637 -3.3247054 1.4043639 14
4.7898993 4.7837706 0.68357271 12.5
4.7542596 5.0316606 0.70762676 12.5
4.4847951 5.6936746 0.48196831 12
4.7234302 -3.3056631 1.5900689 15
4.8277817 4.8090034 1.0870318 14.333333
4.765677 5.1146126 1.1532224 14.666667
4.6434407 5.4447036 1.1784261 14.5
4.80897 -3.3246548 -0.14332962 7
4.9177022 -2.9141476 -0.1364831 7
4.8153419 -3.3106492 0.065489136 8
4.9944963 -3.0771749 0.1564519 8.25
5.1622877 3.8346517 -0.54252857 7.3333335
4.9515066 4.2305307 -0.55905473 7
4.914073 4.4047699 -0.55613273 7
4.8559618 -3.2565539 0.38519007 9
4.9400148 -3.020401 0.63228202 11
4.8131409 1.4900703 -0.009079189 9
4.9495778 4.2219348 -0.10295238 9
4.8535848 4.5250273 0.12292561 10
4.9735155 -3.1673012 0.97163939 12
5.0613022 -2.9137669 1.0282475 12.4
5.1864371 3.9138918 0.33880451 11.333333
5.0425105 4.2403908 0.40757033 11.5
4.8876624 4.5220337 0.42101094 11.5
4.981297 -3.15275 1.3305035 13.5
5.1215963 -2.8142335 1.2462932 13.666667
5.2009568 3.9311602 0.80818439 13.5
5.0711274 4.2795486 0.78004867 13.142858
4.8842025 4.5680313 0.67848223 12.5
4.9967909 -3.1679733 1.6126955 15
4.969748 -2.9158082 1.5711929 15
5.2523775 3.9841247 1.0539302 14.5
5.0860586 4.2999668 1.0726367 14.5
4.921248 4.6242428 1.0832541 14.5
5.4638891 -2.9507151 -0.15737616 7
5.3791227 -2.7297194 -0.27761999 6.3333335
5.547297 -2.0456641 -0.30048588 7
5.4501915 -1.8364778 -0.29976338 7
5.564342 2.3190966 -0.64391965 7
5.4952617 2.4856713 -0.56358624 7
5.4855089 3.371119 -0.63490319 7
5.2303834 3.9523888 -0.72936934 6.5
5.4290195 -2.6621099 -0.032813527 8
5.5766802 -2.1253688 -0.033509675 8
5.5330667 -1.8189381 0.061692879 8.3999996
5.5756283 3.1109557 -0.57821459 7
5.4912229 3.3447385 -0.45978823 7.5999999
5.3915272 -2.8869123 0.56161571 10.5
5.4726691 -2.6223648 0.41846412 10
5.5786343 -2.0135145 0.27461383 9
5.4795394 -1.7617116 0.27380052 9.5
5.6041331 -1.4400777 0.27377599 10
5.461906 3.4400461 -0.030457266 9.3999996
5.5211773 6.3292866 -0.22960413 9
5.3867598 -2.7860556 1.0040895 12
5.5200176 -2.6246624 1.0050905 12.5
5.5941072 3.1803432 0.34283757 11.5
5.4586291 3.4693365 0.33984017 11.4
5.2823901 3.6986125 0.37516847 11.5
5.5168076 6.3549566 0.13987814 10
5.4332757 -2.8656323 1.3823106 14
5.5823412 -2.5959654 1.1911666 13.5
5.6408191 3.1812994 0.83837509 13
5.4694109 3.5107973 0.67503947 13
5.3104906 3.735683 0.78971112 13.5
5.5363517 6.3198147 0.38433996 11
5.5309596 -2.849925 1.6061041 14.666667
5.4899483 -2.5854957 1.6225256 15
5.6522183 3.1867867 1.2019643 14.666667
5.4969668 3.5032816 1.1131164 14.571428
5.3185577 3.7513604 1.0641884 14.5
5.6983919 -2.5460062 -0.30486453 6.25
5.6365967 -1.6522971 -0.38140374 6.5
5.7447672 -1.4453949 -0.36950731 6.5999999
5.9064603 1.0585784 -0.54957551 6.5
5.7598476 1.3597208 -0.61072946 6
5.6625891 2.1630955 -0.58975327 7
5.6848769 2.9514625 -0.66531783 7
5.7234921 -2.5725048 -0.093355194 7.5
5.6185951 -2.1912675 -0.15889639 7
5.6410265 -1.6304916 -0.1209715 8
5.7159462 -1.4434043 -0.11663841 8
5.8824439 1.1228156 -0.25222498 8
5.7682271 1.3979013 -0.36496753 7.5
5.9878693 1.6788292 -0.26241168 8
5.8502722 2.5171528 -0.29652154 8.333333
5.6278691 2.9658661 -0.58583254 7
5.7645268 -2.5166373 0.50391829 10.4
6.0076566 -2.1465204 0.46262535 10
5.7740078 -1.6932429 0.40215513 10.25
5.8140869 -1.3787943 0.28419781 9.8000002
5.9212813 1.0970788 0.15093648 10
5.7804527 1.371224 0.015211073 9.3999996
6.0031266 1.6691185 0.0079989098 9
5.9093132 2.5921624 -0.081398264 9.333333
5.7654891 -2.5204327 0.82009637 11.666667
5.9350076 -2.2027943 0.68046045 11.25
5.9276304 1.1861397 0.53783345 12
5.8016195 1.4341985 0.50989008 12
6.0344057 2.4045231 0.59252858 12
5.9306011 2.6327031 0.48701686 11.5
5.7646151 2.9566848 0.42506504 11.666667
5.7669635 -2.4244947 1.1919177 13.333333
6.0476904 -2.0256214 1.201493 13.5
5.9478226 1.2097217 0.96825475 13.5
5.8389297 1.4330797 0.98072487 14
6.0408673 2.4371495 0.88038057 13.5
5.9039106 2.7449877 0.81359196 13
5.7474742 3.0084214 0.69820136 12.666667
5.7460408 6.2187681 0.70608395 12
5.8342328 -2.6852899 1.5260211 14
5.8413897 -2.4536822 1.6323923 15
5.9781156 1.2923238 1.278066 15
5.875072 1.4891424 1.2412703 15
5.9432774 2.7212334 1.1760788 14.666667
5.7562227 3.069984 1.1081451 14.5
6.1877141 -2.5711253 -0.20666707 7
6.0001354 -2.3768995 -0.35878766 6
6.0126028 -1.3260902 -0.40278974 6.5
6.2425437 -1.1961068 -0.43991089 6.5
6.3464217 0.26852578 -0.52872407 6.5
6.1808996 0.56138968 -0.49267691 7
6.1487164 2.0324311 -0.70768017 6.5
6.1186457 -2.5550263 0.021097932 8
6.1022019 -1.2500967 -0.13290599 8
6.3153358 -1.1447532 -0.1419398 8
6.3360486 0.29207388 -0.21386349 8
6.20298 0.57651681 -0.19203736 8.3999996
6.0351868 0.87886328 -0.25748634 8
6.2345219 1.8981439 -0.35005108 8
6.1502752 2.0616772 -0.43370333 8
6.2095494 -2.5152268 0.34108254 9.3999996
6.2589684 -1.9644471 0.53823 10
6.1106157 -1.2532049 0.1477557 9
6.3623261 0.34530196 0.06960535 9
6.1868625 0.68848562 0.19363745 9.833333
6.0368381 0.93381435 0.13444485 10
6.2326279 1.8844465 -0.00031977118 9
6.1246991 2.1712875 -0.046691757 9
6.2635121 -2.4643054 0.84925586 12
6.2704296 -2.0227993 0.74734807 11.5
6.3390789 -1.9177771 0.67656016 11
6.224453 0.71444106 0.54156512 11.333333
6.0822048 0.92011178 0.68008274 12
6.2001686 1.9428672 0.48683876 11.75
6.1216846 2.2400339 0.46239677 11.5
6.2439113 -2.4428253 1.129562 12.8
6.2368717 -2.0250018 1.2100085 13.25
6.3869028 -1.8378198 1.0922052 13
6.3234935 0.72056252 1.0330511 13.6
6.1059222 0.96982902 1.0804087 14
6.2010841 1.9171156 0.84981775 13.4
6.1511917 2.262955 0.88594842 13.4
6.3054557 -2.4585762 1.5835103 14.5
6.2746572 -2.0328445 1.6067744 15
6.4050493 -1.8005252 1.3980685 14
6.4900203 0.38182375 1.4386154 15
6.251008 0.76154697 1.2737476 15
6.4256344 1.0086532 1.2626187 14.666667
6.3131223 1.9615639 1.2452488 14.666667
6.1874623 2.2703712 1.2915628 15
6.4624519 -1.0974066 -0.45242313 6.5
6.5920162 -0.18380587 -0.55573195 6.25
6.4466205 0.083464742 -0.58651978 6
6.536056 -1.0370361 -0.17609464 8
6.7267575 -0.46514538 -0.25081253 7.5
6.5859904 -0.18225123 -0.29149845 7.5
6.4529061 0.069289088 -0.25772491 7.6666665
6.4482746 -1.0464585 0.18582202 9
6.7656331 -0.46908206 0.17330049 9.5
6.6276536 -0.18741678 0.15210815 9.5
6.5230165 0.18533416 0.21595596 9.666667
6.6855254 -1.807225 0.80902219 11.666667
6.7028351 0.2097214 0.47979546 11
6.6291909 -1.7069952 1.1619848 13
6.8049517 0.01280224 1.019385 13
6.6878467 0.29219297 1.0915264 13.6
6.5206647 0.63274264 1.1396258 14
6.662456 1.0779486 0.89412129 13
6.701129 -1.6523914 1.4543006 14
6.7432809 -0.052869588 1.4524198 15
6.6035848 0.33238792 1.3753155 15
6.5253344 0.64356595 1.3062901 15
6.7718458 -2.1247501 1.8274891 15
7.0085802 -0.96709156 -0.42620954 7
6.8292189 -0.64758074 -0.49017626 6.5
6.9750237 -0.92594212 -0.12206125 8.333333
6.8270683 -0.68972182 -0.17918994 8
7.0549331 -0.96898234 0.25193527 9.666667
6.9036016 -0.67454451 0.27870336 10
7.1218133 -1.649011 0.66768384 11
7.2222509 -1.3234792 0.6235007 10.8
7.1999183 -0.018231366 0.58036351 11.5
7.0798445 0.293304 0.61181253 11.6
6.9443073 0.5848248 0.6260792 11.666667
7.1318583 -1.5670631 1.127115 13
7.2642436 -1.3242949 1.0902429 12.666667
7.1230426 -0.48793626 1.1565752 13
6.9985352 -0.080130443 1.0614258 13.25
7.1603112 0.21775685 0.86417514 12
6.9637628 0.59157348 0.8778792 13
7.0639229 -1.5993845 1.5496252 14.666667
7.2717147 -1.2829615 1.4206669 14
7.1910529 -0.81743217 1.4084184 14.333333
7.0740991 -0.47202939 1.371547 14.4
7.0357571 -0.27423459 1.3342258 14
7.1554518 -2.0679035 1.9007566 15
7.3075967 -1.2559862 1.6454154 15
7.2314019 -1.3244627 0.2682234 9
7.2617917 -1.3162856 0.56301671 11
7.4438558 -1.0389229 0.68528432 11.333333
7.4084506 -0.53255057 0.5796122 11
7.3276477 -0.27896586 0.47691011 11
7.3232145 -1.1935065 0.99369174 12.5
7.4750876 -0.97829372 1.0093783 12.5
7.4951596 -0.46431246 0.86338562 12
7.3619523 -0.17268671 0.85243392 12
7.3546143 -0.94437361 1.3179235 13.5
7.3886752 -1.9516917 1.939055 15
7.6180182 -1.826521 1.9789922 15
7.5985899 -0.40474349 1.7500067 15
7.3778367 -9.916391e-05 1.736503 15
7.694262 -0.90561837 0.6886245 11
7.8443465 -1.693307 2.0184674 15
8.0117559 -1.2370942 1.8601295 15
7.8675795 -0.92555362 1.7704405 15
