# .PCD v0.7 - Point Cloud Data file format
VERSION 0.7
FIELDS x y z intensity
SIZE 4 4 4 4
TYPE F F F F
COUNT 1 1 1 1
WIDTH 57
HEIGHT 1
VIEWPOINT 0 0 0 1 0 0 0
POINTS 57
DATA ascii
-0.45945391 -0.63746452 0.073377222 0.66666669
-0.58704239 -0.37923589 -0.023530887 0
-0.5657531 0.47839195 -0.36409131 0
-0.51266241 0.84870362 -0.51746303 1.3333334
-0.6467247 1.1849837 -0.6411587 2.6666667
-0.32122904 -0.61018515 0.04864008 0
-0.32377845 0.51950473 -0.3839336 0
-0.34232318 0.80783045 -0.51595843 0.66666669
0.73466444 -0.48208347 -0.047739223 1.5
0.66300285 -0.27428696 -0.12763369 0.5714286
0.69718772 0.1125293 -0.28881693 0.33333334
1.0413114 -0.6113351 -0.018846298 3.1666667
0.97045994 -0.27322313 -0.14287581 2.1428571
0.9680528 0.1402504 -0.31690916 1.6
1.0445181 0.45255056 -0.45287874 2.1666667
1.414345 -0.86435461 0.066374339 4.5
1.3559759 -0.5945285 -0.040172581 3.8
1.3462011 -0.26284838 -0.17532623 3.5
1.3803127 0.15486448 -0.34771508 3.5
1.407069 0.43516812 -0.46177927 3.4000001
1.3719246 0.69742066 -0.56423515 3.5
1.7270931 -0.6366967 -0.043688655 4.6666665
1.7544228 -0.40459648 -0.1360555 4.5
1.6468418 0.22348516 -0.38806105 4
1.7283803 0.48021907 -0.49868521 4
1.8164469 0.81785059 -0.64158082 4
2.1902449 -0.99400812 0.12609109 6
2.1406908 -0.60445559 -0.084849633 5
2.0098562 -0.272982 -0.20757957 5
2.1529982 0.026622245 -0.34118897 5
2.2106156 0.47220531 -0.521348 5
2.0943913 0.80056643 -0.65334076 4
2.6962383 -0.9302904 0.0050038202 5
2.487191 0.16475612 -0.4126218 5
2.4630747 0.83438379 -0.68793291 5
2.5802705 1.0471424 -0.78176415 5
3.017633 -1.0158212 0.14083131 7
2.8598356 -0.38123313 -0.22467768 5
2.9574924 -0.89441001 0.45971656 10
2.8979802 -0.78090286 0.7535997 13
3.4739053 0.63845593 -0.6813817 5
3.4893501 1.0504373 -0.85689276 5
3.6610813 1.583647 -1.0883056 5
4.4327078 -0.68600541 1.0433842 13
4.5804582 -1.0560175 0.066993773 7
4.7910795 -0.58351773 -0.14684483 7
4.8102608 -0.46915874 0.16521876 9
4.5259924 -0.83616793 0.67199707 11
4.8176203 0.47199139 -0.5475297 7
4.8221917 1.0312566 -0.71847123 7
4.8220453 1.6153787 -0.9780494 7
4.8274012 0.078926548 -0.031380259 9
4.8341951 0.61044699 -0.2417326 9
4.8352246 1.1735196 -0.43184298 9
4.8383045 0.2051001 0.27670625 11
4.8594966 0.75096732 0.065518543 11
4.8674073 2.019628 -0.25105575 11
