# .PCD v0.7 - Point Cloud Data file format
VERSION 0.7
FIELDS x y z intensity
SIZE 4 4 4 4
TYPE F F F F
COUNT 1 1 1 1
WIDTH 108
HEIGHT 1
VIEWPOINT 0 0 0 1 0 0 0
POINTS 108
DATA ascii
-6.069983 4.0202947 -1.2703449 7
-6.0449157 4.0806589 -1.0968404 8
-6.0850163 4.2789798 -0.43234065 11
-6.0026674 3.8290436 0.19313073 13
-6.0865784 4.7390337 -0.090907678 12
-6.103085 4.9311152 -0.036333632 13
-6.16752 6.0617638 -0.34309274 13
-6.0099764 4.7365203 0.3723751 14
-6.0396318 5.2941976 0.50810283 15
-5.9983826 3.0240936 -0.59050852 8
-5.932713 2.3939729 -0.099022865 10
-5.9692073 2.8721414 -0.35552186 9.5
-6.0030036 3.8255682 -0.73945528 9
-5.9566531 3.9785285 -0.58811194 10
-5.9901505 3.3216863 -0.14766353 11
-5.8630948 2.5640409 0.68232238 13
-5.9469395 3.678431 0.14156289 12
-5.8757071 3.1665406 0.64202625 14
-5.901329 3.6412413 0.75702673 15
-5.7447596 2.4762056 0.94181955 14
-5.0266275 5.8768268 -0.78558683 12
-5.0708795 6.0257621 -0.42252523 13
-5.032805 5.7765703 -0.98556584 11
-4.2651525 -1.0367148 1.5241537 12
-4.2139268 6.0840197 -0.49328786 13
-4.0457478 -3.6431644 1.6640334 7
-4.0904117 -2.4695444 2.4235554 13
-4.0970058 6.0628085 -0.47173446 14
-3.9843462 5.7639809 -1.1944447 11
-3.9755521 5.8987241 -0.85566455 12
-3.5631499 -3.8083019 1.75114 8
-3.2254019 6.233922 -0.38136992 15
-3.0542531 5.9773464 -1.0948162 12
-3.1803722 6.0780549 -0.77471972 13
-1.7834442 5.1754904 -1.5911099 9
-1.7947214 5.2413034 -1.4506875 10
-1.7553086 5.3902216 -1.1101562 11.5
-1.7111306 5.5417266 -0.77567434 13
-1.1180668 5.2723584 -1.5990875 9
-1.0319802 5.8408427 -0.99792868 13
-0.86949593 5.3779964 -1.4693365 10
-0.71097922 -0.77356184 0.63424927 13.5
-0.79058737 5.4739499 -1.1899269 11.5
-0.79597586 5.9548926 -0.6825614 14
-0.75898892 5.7884464 -0.45183328 15
-0.38157329 -0.78856778 0.57596105 13
-0.29554304 -1.0784538 0.22488701 2
-0.26221132 5.5479875 -1.5314909 10
0.49771631 6.0489044 -1.66945 10
0.67553753 6.0541902 -0.6534552 15
0.90009737 0.57944435 -0.46018574 3
0.90570259 0.80816603 -0.55094445 3
0.88295758 -0.68762988 0.48468593 12
0.78641105 5.970026 -0.85517174 14
1.2128423 -0.66646105 0.42434761 11
0.98993218 4.1752791 -1.1707503 10
0.96830434 4.2261376 -1.0632253 11
1.1270161 5.9443321 -0.9957031 13
1.4125559 -0.6665929 0.41318843 10
1.4183452 -0.58253008 0.57915807 14
1.3087077 6.0632367 -0.76221055 14
1.2470351 6.090138 -0.65399402 15
1.4899805 -0.632873 0.42082927 11
1.4224417 4.1439629 -1.1903645 10
1.7646583 -0.64327699 0.33275542 9
1.8025503 -0.60387743 0.40259704 10
1.7556375 4.1507382 -0.96760976 11
1.5948929 5.6341023 -1.1450547 12
1.7094851 4.8910031 -0.45190501 15
2.0171046 -0.56604797 0.46052229 11
1.961785 2.929141 -0.91687977 9
1.8919379 -0.50953525 0.64802641 14
1.9744987 2.9049766 -0.77337921 10
2.1837614 -0.50858086 0.57109874 12
1.9925216 2.9699223 -0.65099138 11.5
2.0111685 3.7697864 -0.99347228 11
2.0129051 3.0100505 -0.41866454 13
2.008194 3.1347275 -0.34162897 14
2.0073199 3.1226904 -0.23803212 15
2.4097168 -0.58267367 0.29376075 9
2.3553452 2.1481552 -0.70318633 9
2.2853079 2.7516296 -0.90286404 9
2.3734398 2.1327734 -0.4007678 12
2.3429074 2.3908913 -0.57415748 11
2.3092687 2.8437428 -0.68334794 10.5
2.3298745 2.7480381 -0.48974672 12
2.374172 2.4278803 -0.19500007 14
2.3490157 2.7640145 -0.16251689 15
2.3490915 3.0087316 -0.39571089 13
2.4962058 0.75914627 -0.27657947 8
2.4608626 1.0691817 -0.37238249 8.5
2.4293687 1.4191644 -0.47369495 9
2.4080675 2.6033969 -1.0937922 7
2.6111934 -0.40858299 0.60660428 12.5
2.5868382 0.039167359 0.51701123 14
2.5971377 0.28720629 0.41396502 13
2.5419748 0.51805305 0.32638085 14
2.6077702 -0.36275572 0.76905245 14.5
2.5898273 -0.0050899978 0.64343256 15
2.5760074 0.17326976 0.59077549 15
2.5467031 0.52500641 0.49408689 15
2.526237 0.74611074 0.34867343 15
2.5105634 0.97348958 0.2976616 15
2.4640763 1.727393 -0.069913335 13
2.4094319 1.9684839 -0.095017135 14
2.6131704 -0.54327744 0.22442502 8
2.7046769 0.6533159 -0.33180007 7
2.6242623 -0.47545519 0.41101915 10.5
