# .PCD v0.7 - Point Cloud Data file format
VERSION 0.7
FIELDS x y z intensity
SIZE 4 4 4 4
TYPE F F F F
COUNT 1 1 1 1
WIDTH 134
HEIGHT 1
VIEWPOINT 0 0 0 1 0 0 0
POINTS 134
DATA ascii
-0.15955812 -0.94302303 0.20498237 181
-0.011879452 -0.980286 0.17117797 141
0.010631196 -0.92218632 0.15063353 143.5
0.14387 -0.93662632 0.13630684 138.33333
0.2716195 -0.94162959 0.12232693 138.66667
-0.44835839 -0.84244883 0.19584015 201.16667
-0.26251227 -0.85828912 0.15821587 144.75
-0.1080097 -0.86978948 0.14384414 146.5
-0.092543222 -0.8464188 0.12745643 146
0.036068801 -0.86094546 0.12250403 142.66667
0.16492221 -0.84851658 0.10378762 144.33333
0.28097802 -0.84256053 0.086468741 146.75
0.39090127 -0.84938449 0.078153603 146.75
0.49946183 -0.83421433 0.064499296 148
-0.56265837 -0.75253057 0.15443282 130
-0.34758186 -0.75536191 0.12696865 140.60001
-0.21862988 -0.80478716 0.1280888 145
-0.18418485 -0.7584697 0.11154144 148.5
-0.045567907 -0.76176023 0.096883185 148.2
0.069804162 -0.77681023 0.088450953 145.5
0.1833954 -0.77461743 0.072772793 146
0.27075148 -0.75097167 0.053339813 153.8
0.37181789 -0.75341827 0.040136695 155.66667
0.48317122 -0.74490994 0.028577697 159.33333
0.49589655 -0.81077725 0.046763893 154
-0.63218212 -0.62110931 0.1146805 123
-0.4496201 -0.66793424 0.11060638 132.39999
-0.39174044 -0.62877226 0.079692528 144
-0.24311467 -0.65348577 0.076969631 149.39999
-0.13871461 -0.70107627 0.083529256 152
-0.086542077 -0.63227719 0.056230154 151.66667
0.0075203977 -0.67028439 0.056439508 151.60001
0.10676862 -0.68575585 0.049894266 151.66667
0.20712982 -0.67921156 0.033304058 160.60001
0.34110129 -0.67796153 0.015419166 166.375
0.47251412 -0.68512368 0.0017735839 167.8
-0.55575132 -0.5774852 0.091564469 124.33334
-0.47803026 -0.53576148 0.062200524 135
-0.329409 -0.57863295 0.062618785 144
-0.28439882 -0.54581702 0.043376047 150
-0.15511765 -0.56690365 0.036256667 150.66667
-0.046549547 -0.58252853 0.030392785 150.39999
0.054437075 -0.56901795 0.017239157 158.22223
0.14987536 -0.57801205 0.0067284848 166.77777
0.2305696 -0.58418888 -0.0049907002 176
0.34519118 -0.58861905 -0.01732799 179.41176
0.45311925 -0.58261478 -0.030838843 180.5
-0.61677831 -0.45894042 0.061595242 122
-0.55128443 -0.42841634 0.053428158 119
-0.37387201 -0.47593606 0.031493895 147.8
-0.25265369 -0.48017663 0.019405819 153.66667
-0.16529831 -0.45357394 0.0034719743 153.75
-0.063081682 -0.47428048 -0.0024958025 155.11111
0.039248396 -0.48159733 -0.017306847 165.28572
0.13902344 -0.50588846 -0.032610007 179.47058
0.24532592 -0.50775325 -0.049914829 180.25
0.35036606 -0.5090068 -0.060389008 179.83333
0.43760228 -0.49260131 -0.076055937 178.5
-0.24462882 -0.40084043 -0.0047204625 157
-0.14309354 -0.38600299 -0.016387636 154
-0.053751636 -0.38707346 -0.042928599 160.84616
0.03172018 -0.38621038 -0.069170795 172.71428
0.14113352 -0.39695817 -0.082483657 175.33333
0.24941923 -0.41304892 -0.086625293 172.66667
0.34082577 -0.39192113 -0.10338728 161.87878
0.41691577 -0.38314363 -0.10896004 158.91667
-0.4661662 -0.28497872 -0.020143719 142.5
-0.39072838 -0.25891078 -0.021713797 144
-0.12003896 -0.32223094 -0.025837794 152
-0.07815662 -0.26828414 -0.063856885 154.42857
0.023133406 -0.32483107 -0.094510034 174.75
0.21785805 -0.27112201 -0.14131194 146.25
0.35088018 -0.34183663 -0.12807484 142.14285
0.40971634 -0.3391192 -0.13365269 148.39999
-0.63327265 -0.21141176 -0.033706833 126
-0.54527068 -0.19860938 -0.049361199 136.75
-0.44251055 -0.18430471 -0.06944862 153.39999
-0.3597523 -0.17145957 -0.081978537 157
-0.24673794 -0.18270195 -0.05999409 161.73334
-0.17190114 -0.20399278 -0.091746837 150.41176
-0.059891183 -0.21537487 -0.11921148 170.77777
0.079349548 -0.17790778 -0.12889344 157
0.13404231 -0.18738732 -0.14474206 140.14285
0.21130446 -0.20375478 -0.16319776 152.22223
0.33164552 -0.17590462 -0.18726699 157.75
0.38037732 -0.17265819 -0.19430219 162
-0.64411217 -0.093995742 -0.077226654 124.5
-0.55033064 -0.090903372 -0.087943122 137.75
-0.44906989 -0.088968933 -0.10372188 151.60001
-0.36393666 -0.085634507 -0.11191662 159
-0.27064109 -0.080630235 -0.11688377 153.71428
-0.17357801 -0.11178373 -0.13339148 154.25
-0.094555408 -0.11579743 -0.15362208 170.33333
0.14973989 -0.11890515 -0.18420222 150.42857
0.23241113 -0.14514539 -0.1821878 154.42857
0.36127114 -0.079198584 -0.22256294 155.25
0.64133459 -0.077548914 -0.25678524 175.5
0.36723983 -0.061930753 -0.230436 160
0.63616669 -0.037925739 -0.26845497 175.60001
0.73619795 -0.03711484 -0.27494079 182.38889
0.82189643 -0.048447192 -0.28111726 186.84616
0.88632804 -0.049026821 -0.29278988 190
0.56136024 0.10428745 -0.31275529 175.66667
0.60093915 0.06511806 -0.30212328 175.71428
0.72320688 0.071285836 -0.3124994 183.60001
0.82555163 0.057688925 -0.32366362 188.14285
0.44392681 0.20636293 -0.33450943 176
0.51334172 0.16466486 -0.32703957 175.7
0.63941067 0.1696476 -0.33914047 181.88889
0.72181755 0.15575358 -0.34220231 185.45454
0.79822272 0.14888032 -0.35142842 190
0.33277991 0.26129064 -0.34118539 175.39999
0.42240694 0.24317549 -0.34431207 176.33333
0.52801168 0.29344854 -0.36925197 183
0.60883087 0.25362158 -0.36538157 184.25
0.70442063 0.25089675 -0.37775546 187.60001
0.77918124 0.2114826 -0.373281 191
0.33277443 0.38304815 -0.38056451 184.66667
0.4244411 0.37020072 -0.38382742 184.66667
0.50467831 0.33723933 -0.38243109 184.72728
0.63787585 0.35742518 -0.41057289 190
0.68477827 0.30509272 -0.39437962 190
0.32576731 0.44269195 -0.40395561 187.33333
0.43920594 0.46415129 -0.42349946 190
-0.3047699 -0.87558258 0.24342452 215
-0.16434938 -0.90338039 0.27579841 213.66667
-0.032794371 -0.96128672 0.27146792 214.33333
-0.2956371 -0.85280776 0.25625956 213
0.020981928 -0.22251248 -0.025872149 139
-0.24102052 -0.19971049 -0.0055775489 133
-0.1268536 -0.14491494 0.031607516 139
0.051548664 -0.16024038 -0.012443325 130.66667
0.14617576 -0.13822035 -0.03511424 130.12
-0.035732761 -0.1071799 0.045818157 122
