# .PCD v0.7 - Point Cloud Data file format
VERSION 0.7
FIELDS x y z intensity
SIZE 4 4 4 4
TYPE F F F F
COUNT 1 1 1 1
WIDTH 73
HEIGHT 1
VIEWPOINT 0 0 0 1 0 0 0
POINTS 73
DATA ascii
-0.42707929 -0.82979131 0.17072196 2
-0.44650626 -0.59155083 0.07913094 0.5
-0.13485543 -0.92771566 0.16612995 2
-0.22567971 -0.673621 0.083408825 0.5714286
0.39681801 -1.1727064 0.26059026 5
0.22074623 -1.0116795 0.19199447 3.4285715
0.22537571 -0.68601364 0.033817336 0.5714286
0.3161312 0.54391569 -0.45199642 0
0.2084717 1.0744159 -0.66273516 2
0.54238272 -1.2114937 0.28022435 5.5
0.5140729 -1.0135115 0.12654899 3
0.46615738 -0.65188378 -0.0078522386 1
0.71273696 0.14709903 -0.34382254 0.33333334
0.5783729 0.47394192 -0.45744851 0.25
0.53632611 0.8575362 -0.61143988 1.2857143
0.47462982 1.2579736 -0.7600435 2.4000001
0.5049535 1.6468531 -0.91989565 3
0.65757251 1.8469837 -1.0056121 3.5
0.71291643 2.1809094 -1.1597484 4
0.89746195 0.12134804 -0.36706451 0.77777779
0.92144001 0.45335814 -0.50309342 1.2857143
0.98046029 0.83967757 -0.65694535 2.3333333
0.93279737 1.197454 -0.79869509 2.75
0.99276602 1.5623808 -0.95402771 3
0.99093252 1.9649044 -1.1154407 4
0.74782896 2.4003155 -1.2533628 4
0.83787078 2.9694233 -1.4934639 4
1.3165975 0.11377274 -0.42734066 2.5
1.3256856 0.48243019 -0.56568253 2.5999999
1.3841381 0.82174289 -0.6967988 3
1.3096031 1.222609 -0.86038321 3
1.2345867 1.564499 -0.98918295 3.3333333
1.3509387 2.0047274 -1.1822717 4
1.2956141 2.3341057 -1.3048857 4
1.2293239 2.7332742 -1.4525236 4
1.3304137 3.0599766 -1.5946853 4
1.1383411 5.2443247 -2.1396961 6
1.7719445 0.039624821 -0.39448401 4
1.7526747 0.41003859 -0.57611424 3.3333333
1.8234723 0.77502322 -0.73978591 4
1.6525787 1.2100574 -0.90554017 3.5
1.6440492 1.6008303 -1.0614278 4
1.719793 1.9740142 -1.2238377 4
1.5629013 2.4474933 -1.3887769 4
1.7490361 2.8300042 -1.577862 4
1.504281 3.6108377 -1.8489715 5
1.8360602 4.9526248 -2.076998 6.5
1.8135577 0.013371155 -0.059067827 9
1.8660154 0.11338255 -0.1612334 8
1.8144372 5.0510812 -1.8977425 7
1.8788164 4.8260984 -2.3713949 5
2.0218222 0.46359408 -0.52056968 5.1999998
2.1873491 0.87730324 -0.69797504 5.1999998
2.1207106 1.2063093 -0.95731205 4
2.0299563 1.8122512 -1.2006655 4
2.2174911 2.7574866 -1.5377758 4.5
2.0912566 3.0578458 -1.5756271 5
1.9631556 3.4021711 -1.6328788 5.6666665
1.8604349 4.8635254 -2.2598238 5
2.0806823 0.56743497 -0.30268079 8.4285717
2.2614768 1.0333177 -0.44872147 8.5
2.2561123 3.0385725 -1.2321736 7.5
1.9486299 3.5860434 -1.3554063 7.5
2.3820868 1.33363 -0.87165725 5.5
2.3831127 1.7245377 -1.1030452 5
2.5271432 1.9101428 -1.0547966 6
2.4597995 2.3496962 -1.3616546 5
2.651988 2.6557705 -1.3201932 6
2.3262913 2.888689 -1.6664127 4
2.4345469 1.4515489 -0.71692932 7.5
2.4723701 1.9711243 -0.82032663 8
2.6588025 2.7638619 -1.1510186 7.5
2.7571208 2.9408367 -1.0946214 9
