# .PCD v0.7 - Point Cloud Data file format
VERSION 0.7
FIELDS x y z intensity
SIZE 4 4 4 4
TYPE F F F F
COUNT 1 1 1 1
WIDTH 137
HEIGHT 1
VIEWPOINT 0 0 0 1 0 0 0
POINTS 137
DATA ascii
-2.1814375 0.87838745 0.51854634 10.5
-2.2079694 0.89651412 0.70449531 12.5
-2.1828902 0.86972219 0.89622813 15
-2.0831363 1.1582197 0.58355182 12
-2.0399375 1.3371551 0.52113491 11
-2.0909724 1.1150383 0.76345241 13.5
-1.9847342 1.43891 0.79016948 14
-1.8068509 -2.2639697 0.392187 10
-1.7634234 -1.8162465 0.48808441 11
-1.8144888 -0.46873617 0.45030057 11.5
-1.9210235 1.6889479 0.54685271 11
-1.7979795 2.1043932 0.43555856 9
-1.8542845 1.7953129 0.90790176 15
-1.7225896 -1.6968958 0.48705977 12
-1.6407672 -0.78113639 0.39252377 11
-1.5694288 -0.54076117 0.43182066 12
-1.5541949 -1.2174855 0.54470581 13
-1.6422493 -0.7912935 0.52774072 13
-1.7709445 2.1080649 0.69146597 12
-1.7390712 2.2274225 0.64250702 11
-1.6415452 2.4046576 0.94753361 14
-1.6269693 -2.4796374 0.89301211 15
-1.5129635 -0.86567676 0.29698908 10
-1.546134 -1.1424428 0.37151632 11
-1.5052807 -0.8762874 0.41345215 12
-1.4318818 -0.86594421 0.59951621 15
-1.4668397 -0.8245846 0.54566163 14
-1.5464456 -0.54163522 0.54032421 14
-1.5755708 2.7455618 0.60890561 11
-1.5297322 2.8879657 0.73257852 12
-1.4025164 3.2295623 0.66278142 11
-1.3754042 3.3297331 0.56574708 10
-1.3049042 3.4532955 0.97466159 13
-1.2793635 3.5950582 0.814924 12
-1.3133515 3.3841236 1.0463063 14
-1.0753552 4.2215538 0.6285876 10
-1.1097082 -2.511323 0.72429997 14
-1.0715107 4.1898999 0.86043245 11.5
-1.0399494 4.1891928 1.0671355 13
-1.0115608 4.2022839 1.2796904 14
-0.96677375 4.185853 1.4317437 15
-0.82730776 -2.6379814 0.53082174 12
-0.53861737 -2.7008562 0.66573077 14
-0.42286828 4.006289 0.70241773 11
-0.36438262 4.0088844 0.60864294 10
-0.25267503 -2.778074 0.69225276 15
-0.048320666 -1.0775481 -0.20382322 2
-0.051884379 1.1341821 -0.16091281 2
-0.058268487 -2.9145753 0.19634899 10
0.022949845 -2.8962166 0.3930836 12
0.045780476 -2.9173481 0.68016928 14
0.11459908 -0.65767455 -0.23004404 0
0.067302451 0.81797951 -0.19240183 0
0.098419264 1.1601809 -0.17906781 2
0.059747111 -2.8824408 0.024859145 8
0.16902412 -2.9116569 0.24569485 10.5
0.22076844 -2.9249611 0.53759903 13
0.17162606 -2.9342 0.79291195 15
0.38120276 -0.79914731 -0.25524536 1
0.28950536 -0.69248885 -0.24557562 0
0.3396036 -0.55865026 -0.24648361 0
0.28600386 0.82163215 -0.21231504 0
0.24091056 -1.1184059 -0.24218038 2
0.24795566 1.1345485 -0.1636288 3
0.33554247 -2.9795039 -0.074440964 7
0.51386088 -0.51545191 -0.25919569 0
0.47410548 0.70461607 -0.22901119 0
0.3907212 0.85405517 -0.21159199 1
0.52545768 -1.0687482 -0.27185524 2
0.47063127 -3.0697544 0.056111325 9
0.58838546 -3.0543928 0.24528573 10
0.52197659 -3.0724874 0.36888036 11.5
0.60456675 -3.0733087 0.58599883 13.5
0.60102087 -3.0867114 0.77297676 15
0.71550465 -0.81436259 -0.28989011 2
0.75891811 -0.66792756 -0.28376952 1
0.70752692 0.58067262 -0.25606012 1
0.73640198 0.85267484 -0.26078913 2
0.76561129 3.6026313 0.55951476 11
0.72872078 3.6539917 0.73957086 12
0.89807826 3.5925629 0.3998583 10
0.99245781 -0.81295776 -0.31212947 3
1.3726059 -3.6914282 -0.07162936 8
1.3934085 -2.1629112 -0.018232152 9
1.3775247 -4.0899653 0.27994102 10
1.3825526 -3.9799654 0.72682571 13.5
1.4877877 -3.6609261 -0.20457946 7
1.6237024 -4.0927558 0.076331824 9
1.5866239 -4.0865097 0.37044784 11
1.9296739 -4.1668119 0.99320656 15
1.8919548 -4.1174459 0.19931582 10
1.9779195 -4.1451883 0.7773248 14
2.1720083 3.1838412 0.22166301 9.5
2.1946273 3.1334193 0.45372975 11
2.2223279 3.1340477 0.66856056 13
2.1646047 3.1907606 0.83999479 14
2.256705 3.1246738 1.0608861 15
2.2345285 3.1259184 0.62069571 12
2.5021353 -4.3089113 0.96941453 14.5
2.4465671 -4.3143382 -0.20686136 8
3.5884802 -4.6308298 0.92472261 14
3.6879075 -4.7164426 1.3054204 15
4.6149731 5.481802 0.17451209 9
4.8072352 5.3782077 0.88862419 12
4.8443289 -4.5190749 0.99422866 14
4.8384614 -4.6117716 1.2528729 15
4.9432673 -4.0879817 0.70164716 12
4.9460721 -3.8621271 0.70244318 12
5.0885868 -3.8675182 1.2271215 14
5.1769171 -3.0841701 -0.13846017 8
5.0734687 5.3402338 0.54628545 10
5.2270036 -3.1470265 0.54793108 11
5.3245854 -3.0930953 1.1065896 14
5.1514254 5.264339 1.7528077 15
5.3189063 -2.7064123 0.23198695 10
5.3446827 5.1259727 1.633028 14
5.5583897 -1.8404909 -0.31046739 7
5.5343184 5.1316171 0.035675317 8
5.5933366 -1.5518855 0.028406715 9
5.392375 5.2321424 0.27438772 9
5.6468425 -1.880581 0.62558544 12
5.5396914 -2.4255998 1.0602741 13
5.5757632 5.1895947 1.0956234 12
5.5423365 -2.4292653 1.0919693 14
5.6647248 -1.1815627 -0.55787861 6
5.6759639 -1.1947433 -0.38630661 7
5.6475921 -1.3769652 -0.14405824 8
5.7494025 -1.0493392 0.07325656 9
5.7410536 -1.266149 0.37160972 10
5.7480783 -1.3305843 0.58922279 11.5
5.8778033 -1.2025548 1.2002435 14
5.9870548 2.876333 0.63463002 12
5.994935 2.4777532 1.1441755 14
6.0423656 3.0487995 1.0479764 13
6.035203 4.2986574 1.3121147 14
6.5786824 1.7133259 -0.5278089 6
15.569737 -1.0261533 -0.75620514 7
