# .PCD v0.7 - Point Cloud Data file format
VERSION 0.7
FIELDS x y z intensity
SIZE 4 4 4 4
TYPE F F F F
COUNT 1 1 1 1
WIDTH 690
HEIGHT 1
VIEWPOINT 0 0 0 1 0 0 0
POINTS 690
DATA ascii
-2.4368672 -2.0970862 0.91717911 13.666667
-2.492466 -2.0353177 0.89314067 13
-2.4223499 -2.1069756 1.004663 14.5
-2.5279546 -2.0152059 1.0314467 14.5
-2.0245459 -2.2391102 0.42943442 10
-2.1764007 1.0027516 0.53367513 11.125
-2.0561242 1.352363 0.50191343 10.5
-1.9867413 1.6110271 0.58599693 11
-2.081444 -2.227237 0.78514922 13.166667
-2.177316 -0.5895375 0.81838298 15
-2.1538882 0.99624527 0.78409439 13.692307
-2.0373914 1.3684295 0.77294797 13.6
-1.9882905 1.5674839 0.66540962 12
-2.1169982 -2.8073289 1.0307577 14
-2.2299359 -2.1883409 1.015925 15
-1.7515552 -2.3080754 0.32877788 9.3999996
-1.8197769 -1.8192902 0.36757722 9.875
-1.6848007 -1.4133695 0.38784078 10.75
-1.5860989 -1.0792903 0.40406319 11.4
-1.6492386 -0.62093431 0.42026863 11.727273
-1.9793652 1.5700949 0.46928832 10
-1.9099083 1.7725731 0.49026653 10
-1.7747626 2.1654339 0.47534823 9.6000004
-1.6384683 2.5698044 0.52628464 10
-1.7110409 -2.3172989 0.69537073 13
-1.7369821 -1.7568717 0.58211303 12.25
-1.6387739 -1.2888201 0.70913154 15
-1.5860181 -1.1629624 0.6312356 14.25
-1.6902648 -0.60871017 0.60291564 14.222222
-1.9521141 1.5379273 0.76603973 13.5
-1.8944057 1.7771184 0.78786618 13.222222
-1.7719333 2.1472406 0.77768397 12.583333
-1.6265277 2.5717463 0.79631209 12.444445
-1.6896032 -2.4947569 0.90836906 15
-1.7245256 2.1819086 1.0271041 15
-1.5946426 2.5458498 1.0656983 14.666667
-1.3505007 -2.4643085 0.25950789 9.25
-1.5167729 -2.4014044 0.29435465 9.3999996
-1.525802 -0.97000754 0.38362491 11.25
-1.5309001 -0.63998288 0.38157919 11.5
-1.4999174 2.9825859 0.55487674 10
-1.3784555 3.3412251 0.56668413 10
-1.2690393 3.6765974 0.5907746 10
-1.2959001 -2.5151067 0.68765742 13.4
-1.4685254 -2.4100745 0.61538219 12.5
-1.5085506 -0.99542999 0.54402995 13.8
-1.5255558 -0.63496828 0.58236337 15
-1.5621675 2.7160792 0.81389827 12.5
-1.496154 2.9553645 0.80357331 12.222222
-1.3515503 3.3710787 0.77732325 11.6
-1.2319577 3.7394698 0.78180033 11.25
-1.4252113 -2.5718782 0.85793394 15
-1.5357213 2.6988637 1.1240807 15
-1.4415464 2.9741318 1.1188396 14.6
-1.3011457 3.3659451 1.1680114 14.285714
-1.1861296 3.7283552 1.1623101 13.8
-0.94259083 -2.5979273 0.18757832 8.8888893
-0.91097581 -2.8996501 0.79843736 14
-0.9113248 -2.6182525 0.58583874 12.909091
-1.1410106 3.9610374 0.95673609 12
-1.0028883 4.1336522 0.77428424 11
-0.72301024 -3.2341704 0.80940145 14
-0.87249899 -3.1809206 0.82547212 14
-1.1135598 3.9089425 1.2412328 14
-0.956631 4.1200218 1.203252 13.571428
-0.87940192 4.11414 1.4074183 15
-0.43180943 -1.4885215 -0.17407978 4
-0.45492107 1.0522399 -0.12657341 2.5
-0.51310301 1.2744042 -0.11912558 3
-0.54511285 -2.7342634 0.19644964 9.2222223
-0.4414528 -2.8274577 0.72106749 14
-0.52533919 -2.7270739 0.55604416 13
-0.6337961 4.0758114 0.69150013 10.8
-0.54447216 4.061461 1.1725582 14
-0.4766539 4.038167 1.3577328 15
-0.24017681 -2.5318525 -0.24496953 5
-0.17082788 -2.2398713 -0.24139522 4.5
-0.2028158 -1.8240095 -0.21993965 4
-0.23554072 -1.3630966 -0.1902425 3.4000001
-0.16074227 -1.0063982 -0.19294396 2.1666667
-0.12609418 -0.63738012 -0.18683195 0
-0.22354855 0.72982562 -0.16152476 0.2
-0.166605 0.95460624 -0.13027316 2
-0.16587929 1.4402423 -0.13792461 3.3333333
-0.29368138 1.789834 -0.12481815 4
-0.38329682 2.0356781 -0.11704066 4
-0.15960246 -2.8573434 0.17699544 9.3999996
-0.30415973 -2.7907431 0.2233882 9.666667
-0.00068656553 1.3181791 0.41848862 15
-0.11829162 -2.8682013 0.52742976 13
-0.28942215 -2.7962418 0.62548178 14
-0.065890752 3.8881834 0.58712566 11
-0.11714946 3.9247613 1.1177899 14
-0.28855401 3.9752214 1.1480843 14
0.030262373 -3.0479774 -0.27991968 5
0.086472422 -2.5612047 -0.2878058 5
0.11612511 -2.2910597 -0.28342903 4
0.16927621 -1.7720352 -0.25331032 4
0.16124976 -1.4007108 -0.23932071 3.2
0.24515484 -0.96490401 -0.24446976 1.6
0.23802318 -0.64997351 -0.23628736 0
0.17646924 0.66970944 -0.19254905 0
0.18939632 0.97803062 -0.15475862 2.2352941
0.29953456 1.405882 -0.070945159 5.5
0.17383744 1.9156194 -0.15771101 4
0.15185149 2.1425266 -0.15348931 4.5
0.11296686 2.5452654 -0.14678353 5
0.074600972 2.9403968 -0.13902701 5
-0.020433635 3.9526851 -0.13726009 5
0.25919658 -2.9751663 0.1131916 9.1538458
0.12576446 0.84070015 0.062343124 9
0.051551364 1.3629203 0.41259965 14.5
0.28680947 -2.9775534 0.47312617 12.416667
0.26966697 3.7756069 0.84947902 13
0.3451122 -2.9993384 0.78347301 15
0.28743589 3.7855597 1.0392725 14
0.43881494 -3.6514339 -0.35546964 5
0.43284792 -3.3124795 -0.34848595 5
0.42452848 -2.9458604 -0.33048919 5
0.63999122 -2.5763803 -0.3268773 5
0.55159068 -2.2377679 -0.30808696 4.5
0.49124864 -1.7779679 -0.28876936 4
0.62208092 -1.3500773 -0.28950247 3.2
0.58672631 -0.99843681 -0.28071827 2
0.58671224 -0.56532794 -0.26836258 0.25
0.60817748 -0.27723554 -0.24913989 0
0.69419622 0.35820845 -0.24935953 0.33333334
0.59361356 0.62775558 -0.23565298 0.58333331
0.55907977 0.98037159 -0.23129314 1.6666666
0.53207976 1.4562784 -0.2013662 3.3333333
0.57389027 1.7898408 -0.19919063 4
0.71422189 2.2029126 -0.20234412 4.6666665
0.752123 -3.8493679 0.033332665 8.5
0.49252331 -3.045011 0.031218573 8.333333
0.79714626 -3.8472314 0.35829574 11
0.52932686 -3.04372 0.59193486 13.5
0.71518016 3.6322074 0.70794946 12.25
0.85404569 -3.8253858 0.75283384 13.75
0.52589715 -3.0689445 0.77682078 15
0.65956819 3.6744998 1.0564821 14.5
0.90863854 -3.6655853 -0.35435396 5.5
0.82017189 -3.0276697 -0.3653945 5
1.0711464 -2.4808953 -0.36482671 5
0.989586 -2.1939981 -0.34846979 4.5
0.94510835 -1.7481661 -0.33280021 4
0.98554999 -1.3936783 -0.32443494 3.75
0.98191065 -0.96772116 -0.31090155 2.6666667
0.93243641 -0.57696176 -0.29766312 0.75
0.83121938 -0.3651588 -0.28148487 0
0.9262467 0.63203257 -0.27754802 1.5714285
0.94563699 0.9812969 -0.26799464 2.5714285
0.96122891 1.3772871 -0.26008287 3.25
0.95999491 1.7642403 -0.24906956 4
1.0173008 2.2414176 -0.24859686 4.5
0.96391034 2.6553159 -0.23781951 5
0.8520605 3.0408702 -0.21910204 5
0.94500673 3.6935821 -0.14953969 5.5
1.0694926 -4.0162416 0.018153528 8.666667
1.0000979 -3.8461251 -0.032818493 8.1000004
1.1081189 -3.5142868 -0.14200497 7
1.1022123 3.5273495 0.36654067 10
0.8896963 3.7080276 0.18020436 8.333333
1.1493717 -4.0142312 0.29704461 10
1.0973463 -3.9544299 0.36973268 11
0.94292849 -2.4875553 0.28350088 12
1.0459135 -2.1752894 0.30052844 12.4
1.1553808 -1.8768239 0.29298326 12.5
1.034922 3.5347271 0.60242325 11.5
0.87438393 3.6066229 0.69907755 12
1.1283178 -3.9430802 0.82251883 14
1.0880452 3.5332911 1.0054538 14.5
0.92522448 3.5919836 1.0377713 14.5
1.5579861 -4.1881042 -0.47041059 5.5
1.3301985 -3.3903232 -0.41949746 5
1.3530647 -2.0652184 -0.36326414 5
1.419233 -1.7964253 -0.38283497 4.5
1.4188019 -1.3716466 -0.36056852 4
1.3437831 -0.96645594 -0.3396914 3
1.2505364 -0.70005113 -0.32410997 2
1.3148236 1.043126 -0.30390757 3.3333333
1.3963054 1.4166627 -0.31175759 3.75
1.3725336 1.8673319 -0.29999778 4
1.3430301 2.2453208 -0.28775606 4.5
1.525501 2.6581004 -0.31156543 5
1.2156881 2.9117312 -0.27083367 5
1.3579996 3.458039 -0.1756122 5.75
1.4394522 -4.0772104 0.08290489 9
1.3792059 -3.7779765 -0.12092663 7.5999999
1.4454389 -2.1048794 -0.023765508 9
1.601916 -1.9517367 -0.0065693348 9
1.3889704 3.4803622 0.23803601 9
1.4496942 -4.0601802 0.33069491 10.8
1.3118894 -3.9780614 0.22790854 10
1.4117508 -1.8617431 0.27486265 12.333333
1.4267009 3.4096339 0.55173099 11.363636
1.5512174 -4.0784068 0.85994947 14
1.3599828 -3.99456 0.85926646 14
1.4729116 3.4170899 0.95675403 14.5
1.630392 -4.0941796 0.98081821 15
1.8566062 -4.1908331 -0.2761406 7
1.8121454 -1.7303946 -0.40960458 5
1.7275965 -1.3759018 -0.38928398 3.5
1.6929806 -1.0520813 -0.37577936 3
1.7126647 1.3606988 -0.35722527 4
1.8071263 1.8543768 -0.35511997 4
1.6908288 2.2292109 -0.33858159 4
1.9132006 2.6005809 -0.3621065 5
1.6534718 2.9501746 -0.3215552 5
1.8208432 3.3671236 -0.24387099 5.5
1.9033766 -4.2015152 -0.045389332 8.333333
1.7898705 -2.4995363 0.14839792 10
1.8851852 -2.1680064 0.030331913 9.5
1.6936104 -1.9721106 0.17850094 11
1.7867819 3.3342927 0.17668594 8.7142859
1.9268116 -4.1633415 0.25136855 10.5
1.778722 -2.1702156 0.26761249 12
1.7313308 -1.9333061 0.25764582 12
1.8129486 3.2782485 0.54173839 11.5
1.9189442 -4.1524749 0.8206467 13.6
1.8475986 3.3015141 0.92236853 14.5
1.9651927 -4.1884227 1.0227957 15
2.2585015 -4.4479876 -0.51602644 6
2.2129333 -4.2823954 -0.34519944 7
2.1471684 -3.0623853 -0.4238981 6
2.088768 -2.2455981 -0.45181274 5
2.1783092 -1.8320086 -0.44700292 5
2.1737328 -1.4338456 -0.43633473 4
2.1797736 1.8285364 -0.41085577 4
2.1136491 2.2461395 -0.38656744 4.5
2.1951499 3.0955067 -0.30413041 5.3333335
2.15645 -4.4381328 0.014750318 9
2.2721334 -4.2775164 -0.069764711 8.3999996
2.0869427 -2.5216746 -0.055913836 8.5
2.1772814 -2.1037276 -0.0031566406 9.25
2.157064 3.1989686 0.069484763 8
2.0973296 -4.4279208 0.31144449 11
2.2901757 -4.2681012 0.32261914 11
2.2074006 -2.0683897 0.16689274 11
2.1112506 3.1624558 0.5195179 11.5
2.051626 3.2260344 0.48039046 11
2.3271751 -4.2548261 0.80098557 13.5
2.2029307 3.1782079 0.93838942 15
2.1028636 3.2202013 0.89819765 14.5
2.3150632 -4.2905655 1.0420592 14.8
2.658978 -4.4526157 -0.39264026 7
2.488894 -2.8051391 -0.35589886 6.5
2.4819369 -2.7598624 -0.49973172 5
2.6689427 -2.3299096 -0.50256646 5
2.749474 -1.8917797 -0.50384974 4
2.5728188 2.223139 -0.4495675 5
2.4899459 2.7254837 -0.43307313 5
2.7215638 -4.4392352 -0.12418003 8.1999998
2.7288857 -3.1794896 -0.14217535 8
2.6365786 -3.1597779 -0.15587649 8.333333
2.7644033 -2.4016137 -0.17845793 8
2.6784468 -2.2899067 -0.023168879 9.25
2.7930729 -4.3911085 0.16559829 10
2.6443205 -4.3338327 0.1697762 10
2.5428452 3.6106048 0.31848076 10
2.7664313 -4.4424419 0.46961534 11
2.6861088 -4.3518558 0.74869418 13
2.837163 -4.4633393 1.0442473 14.5
2.6373363 -4.3667111 1.0443952 15
3.1772349 -4.8451233 -0.50841284 6
2.9561627 3.349654 -0.33992729 5.6666665
3.0004988 -4.5871744 -0.27095985 8
3.0917187 -3.4218223 -0.17536631 8
3.1390758 -2.3984809 0.021873584 9
2.9280715 -2.3015945 -0.046736632 8.75
2.9413075 3.3781433 -0.10196713 7
3.103929 -4.5297956 0.475108 11
3.1693106 -4.5442915 0.95616364 14
3.2951527 -4.605926 1.2532032 15
3.3019121 -4.659821 -0.4522289 7
3.3942635 -3.0639696 -0.59494412 6
3.4310086 -2.4333773 -0.58682191 4
3.4313674 3.0840061 -0.54125434 5
3.4082718 -4.6946545 -0.23096338 7.5
3.5301876 -2.5944185 -0.23099947 6.5
3.4735079 -4.662765 0.55993271 11.5
3.5234423 -4.6568923 1.0090923 14
3.9700847 -4.9528885 1.2053046 14
4.3544145 -4.0409141 -0.69029486 6
4.0557332 3.7093112 -0.61289084 5
4.3464427 -4.0321336 -0.3743445 7.5
4.3520899 5.5728116 -0.021293983 8
4.1967254 5.5681882 0.44062585 9.5
4.0555916 5.6366544 0.33449799 9
4.2955956 5.5480013 0.9199723 11.666667
4.0908604 5.6321487 0.90293992 11.5
4.3301487 -5.1089592 1.0800951 14
4.1935511 5.6431389 1.2316893 13
4.361608 5.555665 1.5915712 14.25
4.1745644 5.6184874 1.5751789 14.333333
4.4797316 5.5239921 1.8169662 15
4.498786 -3.5988071 -0.55417341 7
4.6809149 -3.4261389 -0.74222106 5
4.7725596 -1.8459578 -0.54465437 5
4.4448948 -3.9812582 -0.42757553 7
4.6954031 -3.664813 -0.35571924 6.5
4.7447481 -3.3011885 -0.10080403 8
4.7527452 -1.9491614 -0.42027873 6
4.6607313 5.4699693 0.046202864 8
4.6005187 -4.8790684 0.14452225 10
4.678443 -4.62148 0.14810936 10
4.7857375 -4.2463965 0.063960291 9.333333
4.5918474 5.4391174 0.40952438 9.5
4.5680566 -5.435514 0.5220744 11
4.6104441 -5.0202508 0.5158971 11
4.721344 -4.5608478 0.43301412 11.5
4.8545737 -4.2195582 0.39991286 11.333333
4.6240153 5.4506516 0.84062046 11.333333
4.5301352 -5.2691894 0.70396602 12
4.7083869 -4.9025955 0.94053227 13
4.7734957 -4.6253991 0.93191582 13.2
4.879528 -4.3495708 0.86389345 13
4.6857944 5.4788098 1.1814164 13
4.6596928 -5.237926 1.4777169 15
4.7208004 -5.0191517 1.3025271 14.5
4.8515906 -4.6161404 1.3143525 15
4.9386902 -4.3079205 1.2406245 15
4.6793394 5.4532156 1.5642883 13.833333
4.650929 -5.6979332 1.5333041 15
4.6706123 -5.4788189 1.5071862 15
4.8287406 5.4162669 1.7890739 15
4.9225779 -3.6015837 -0.64181697 5.5
4.9903002 -3.3060665 -0.60654789 5.5
5.143157 -2.8774047 -0.59215242 5.6666665
5.1866584 -2.6370931 -0.69608384 5
5.1167827 -2.1194992 -0.6270417 5
4.9581642 -3.6194091 -0.13216737 8
5.0247102 -3.3218732 -0.30458722 7.1666665
5.1319604 -2.9708683 -0.35367188 6.75
5.0158019 -1.9235591 -0.43955413 6
5.0275593 5.3481889 0.074587159 8
4.9125562 -4.014142 0.22166173 10.5
4.9872584 -3.719862 0.16322874 9.25
5.0902667 -3.3619165 0.1534045 9.25
5.1848083 -3.0134871 0.044346891 8.6000004
4.9712596 5.323133 0.36442709 9.5
4.9192724 -4.0439024 0.43376648 11.5
5.0081968 -3.7769368 0.43959084 10.5
5.1283283 -3.4057593 0.43099451 10.4
5.2464552 -3.0582314 0.45121261 10.666667
5.0010958 5.3115478 0.84124637 11.4
4.9820948 -4.0999451 1.0257672 14
5.0798502 -3.7604735 0.8996675 12.6
5.2045426 -3.3738983 0.88186294 12.5
5.2902975 -3.1081815 0.89220589 12.5
5.165215 5.1134791 1.222736 13
5.1507816 5.299088 1.0621839 12.333333
5.0176234 -4.0886679 1.233399 15
5.1386142 -3.721961 1.1784786 14
5.230803 -3.4167633 1.2069136 14
5.3151975 -3.1724145 1.2265162 14
5.0971513 5.3264699 1.4957062 13.5
4.9824729 5.3340139 1.7691289 15
5.2986178 4.9513578 -0.77363145 5
5.2503562 -2.5437388 -0.64960945 5.25
5.3794546 -2.0548973 -0.64002293 5
5.5109639 -1.7404025 -0.61629957 5.3333335
5.5447302 -1.4008223 -0.57409286 6
5.299376 4.9958992 -0.47994503 6
5.2916889 -2.558938 -0.29304302 7
5.4147186 -2.1507428 -0.33310932 6.8888888
5.5523996 -1.7570288 -0.28503919 7.1999998
5.5840874 -1.4421521 -0.27362201 7.3333335
5.3763165 5.1629591 -0.11042827 7.5
5.2424154 5.2757449 -0.091539554 7.5
5.2784481 -2.8474884 0.22267427 10
5.3531814 -2.5312839 0.10636245 9
5.4765306 -2.1793635 0.12468376 9
5.6108174 -1.7106199 0.10216019 9.25
5.6283145 -1.4464408 0.12522162 9.5
5.4458108 1.4942098 0.22550429 9
5.465817 1.8813839 0.16329986 10
5.5697718 2.1630087 0.20578191 9.5
5.583591 4.4219246 0.32037401 9.5
5.319262 5.1938124 0.36276275 9.666667
5.3120227 -2.8696289 0.47760597 10.666667
5.4088368 -2.5690458 0.47019905 10.6
5.5332718 -2.1803093 0.455248 10.714286
5.6337547 -1.8318485 0.40143037 10.666667
5.671309 -1.5570582 0.48768592 11
5.4658952 1.5526892 0.4525525 10
5.4777417 5.1585317 0.76013988 11
5.3658233 -2.8777208 0.89985204 12.5
5.4574165 -2.6192861 0.93249261 12.8
5.5886889 -2.1542349 0.77189046 12
5.6596508 -1.9436144 0.78561264 12
5.5027614 5.1460767 0.89803797 12
5.3770247 -2.9867651 1.2023259 14
5.5058479 -2.6084411 1.2450751 14
5.6327758 -2.1895261 1.2027702 14
5.7073288 -1.9418868 1.2190337 14
5.5864944 5.1121726 1.4664496 13.5
5.4410267 5.236187 1.3298308 13
5.4794202 5.2108555 1.8543668 15
5.6053262 -1.3269018 -0.57231939 6
5.6722088 -1.0643834 -0.543751 6
5.6370716 -1.5962059 -0.27492791 7
5.6275916 -1.2495489 -0.26761156 7.5
5.715097 -1.0419953 -0.24662715 7.3333335
5.7743912 2.7276731 -0.102823 8
5.9697995 2.994329 -0.097090535 8
5.7702675 5.0886459 -0.16007386 7.5
5.6524172 -1.6283097 -0.043605972 8
5.690649 -1.2927048 0.13981006 9.333333
5.7536421 -1.1080867 0.13574047 9.5
5.6646781 2.2336681 0.10581318 9.5
5.9076266 2.960979 0.33224335 10.5
5.6660986 4.4684291 0.10326467 9
5.7958326 5.066237 0.29936254 9.333333
5.6960759 -1.6799309 0.47863761 11
5.7381544 -1.3378356 0.50550759 11
5.8254738 -1.0426166 0.53529555 11
5.8621135 2.6701429 0.55381531 11.5
5.9709439 2.9835212 0.59854561 11.5
5.861002 4.2348657 0.75274044 11.6
5.6512675 4.4356151 0.50436848 10
5.7769828 5.0751166 0.70053101 10.75
5.7419024 -1.7017516 0.8032527 12
5.777915 -1.3400776 0.82469523 12.333333
5.8615761 -1.0768021 0.84791249 13
5.9788918 3.1104758 0.91836488 13
5.8581071 4.2154455 1.0182458 12.5
5.8495474 5.0629568 0.94783688 12
5.7474661 -1.8031065 1.1387767 14
5.8104792 -1.4323443 1.1947985 14
5.9341197 -1.0183728 1.2186451 14
6.0053473 2.4131017 1.2260643 14
5.887085 2.5481017 1.275164 14.5
6.0984697 4.2230015 1.5228528 14
5.8706746 5.0455065 1.4057845 13.333333
6.0271292 4.2399397 1.7311445 15
5.8985162 5.1130242 1.9539202 15
6.3236418 0.55170971 -0.62611574 6
6.2642303 4.3024673 -0.46529582 7
6.0284781 3.5351031 -0.25549996 8
6.1285181 3.875896 -0.21663824 8
6.0552502 4.9815774 -0.23533267 7.5
6.1082177 3.5558136 0.35046586 10
6.2136793 3.8817792 0.25212267 9.5
6.3410792 4.8401814 0.37745747 10
6.0207105 5.0099225 0.41970822 10
6.2332144 3.7835112 0.58710051 11.25
6.3720646 4.3477497 0.49136606 10.5
6.398036 4.7689047 0.63399869 11
6.1848798 4.9236627 0.74569297 11
6.2026134 3.7081895 1.1876336 13
6.1731291 4.9650111 0.95563745 12
6.4969072 -1.0153058 1.3210492 14
6.2274308 4.8957667 1.3732977 13.333333
6.2878227 4.9374886 1.7975243 14.5
6.5628614 1.4226254 -0.56126362 6
6.4915981 1.8205214 -0.49962425 6
6.7432833 0.97647822 -0.39979452 7
6.6421614 1.4400018 -0.32698432 7
6.5597372 1.9091029 -0.25796035 7
6.3592153 4.8041096 -0.18724611 8
6.3998475 4.7057118 0.04434678 9
6.502665 4.3707709 0.67298698 11
6.5875716 4.790184 1.6598961 14
7.1135678 0.67042369 -0.74882191 5
7.1463103 0.65991467 -0.51678526 6
7.1451793 1.1688164 -0.45478502 6
6.8987193 1.6285756 -0.36832526 7
7.0985141 1.7297893 -0.1591561 8
6.9461145 2.6440396 -0.31594241 7.6666665
7.1216121 2.9784656 -0.32626605 7.5
6.9861264 4.7544913 0.23064236 9
7.2505164 1.164274 -0.69959635 6
7.2824192 0.39498881 -0.26755595 7.5
7.314693 0.62955582 -0.4192352 6.5
7.3129129 1.0234473 -0.36730441 6.5
7.227355 2.5986822 -0.5215013 7
7.2937903 4.5619903 -0.29822713 8
7.3119674 0.79474139 -0.15120237 8
7.6989617 2.782732 1.5018332 14
7.8006558 4.3818097 0.15660378 9.5
7.6745868 4.5451226 0.041148249 8.5
7.7730355 4.4831295 0.33361959 10
7.7836905 4.4082041 0.80751771 11
7.8609314 2.6483855 1.3071671 14
7.7760434 -0.93584633 1.5476468 14
7.9444952 -0.58016294 1.6149242 14
8.0043344 -0.13706677 1.6779977 14
7.8767939 1.832029 1.54444 14
7.8721585 4.362473 1.5966786 14
7.8535328 4.4862418 1.6418593 14
8.3857765 4.2220502 0.21130319 9
8.3914127 1.6152103 1.1985164 12
8.1860685 -0.75914824 1.6260902 14
8.3721619 3.9811172 1.6197255 14
8.2253389 0.2875025 1.7767322 14
8.5308743 1.7934686 -0.82863766 5
8.5845985 4.1528897 -0.44205436 7.3333335
8.74265 3.6883111 0.018462047 9
8.6436863 4.1161013 0.18623407 9
8.7966166 3.9319661 0.33288154 9.5
8.5508556 4.1863098 0.38998643 10
8.7397861 1.4816939 1.2084579 12
8.8844233 3.7229037 1.2460842 13
8.562974 4.1821089 1.3235304 13
8.8549652 1.3621938 1.3799769 13
8.724082 1.7685546 1.4843748 13
8.7121716 3.9436593 1.5644125 13.5
8.6339397 4.1305137 1.4600874 13
8.8975821 3.9942801 0.15915903 9
8.9105806 4.0935659 0.50033683 10
8.939661 3.5914114 0.71794975 11
8.9331808 3.7091057 1.0442045 12
8.9495096 1.4910853 1.5878477 13
9.2636557 3.3901374 1.441606 13
9.4134264 -0.0086808493 -0.88854951 6
9.3260374 0.42559728 -0.82323372 6
9.3947535 0.57264477 -1.1222311 5
9.4662495 3.4171264 0.059318658 9
9.3199253 3.527714 0.51440603 10
9.4723263 3.4414473 0.70343184 11
9.6030188 1.1861744 1.028631 11
9.6063433 3.5024314 1.2240711 12
9.4802094 3.2546535 1.3431215 13
9.6635542 1.7427934 -1.0202681 5
10.068205 2.0281463 1.2629968 12
10.12151 0.22630373 -0.94869906 6
10.405383 1.0443263 1.0550939 11
10.198248 3.5682859 1.2430277 12
10.646563 -0.85311252 -1.1413116 5
10.733062 -0.44767773 -1.0882272 6
10.423326 -0.25490975 -1.0480338 6
10.738358 -1.0961102 -0.82427651 6
10.714631 1.7948917 -0.27601799 8
10.821103 0.8292709 0.92818236 10.5
10.752924 0.91436726 1.1163448 11
10.646877 2.0734036 1.2161227 11
10.920572 3.0841422 -1.0635717 5
11.087616 3.4148464 -1.0531123 5
11.206798 3.4010384 0.14998926 8
11.399525 3.2709737 -1.1096019 5
11.49566 -0.38367188 -0.81201285 6
11.551756 3.1521273 -0.078940377 8
11.596077 3.2441518 0.10538344 8
11.453996 3.1908457 0.42080918 9
11.418076 0.59666121 0.7946524 10
11.405852 0.70693219 1.1233356 11
11.489072 1.6908367 1.2088009 11
11.750564 -0.36606842 1.5203617 12
11.672806 -0.1141651 1.5336171 12
11.615423 0.2645936 1.5603337 12
11.576468 0.6396957 1.591053 12
11.421122 0.87841517 1.5987206 12
11.978224 0.87625867 0.454263 9
12.148878 -1.4880437 1.1723366 11
12.044751 -1.9420958 1.4355929 12
12.039351 -1.6776129 1.4517428 12
11.960624 -1.2771109 1.4717911 12
11.971588 1.09798 1.8406032 13
11.96895 2.5890939 1.6165854 12
12.027969 2.9088881 1.873859 12
11.801686 1.462837 1.8944739 13
12.167551 3.0877972 0.11659252 8.5
12.332439 2.8508773 0.65205252 10
12.530275 -1.9326589 0.83743274 10
12.186939 3.0088294 0.94010806 10
12.417654 -1.4232147 1.1543126 11
12.347972 2.7030461 1.4079159 11
12.360107 2.9110873 1.2032943 11
12.526572 -1.909858 1.3685405 12
12.186156 0.72915119 1.7925469 13
12.431191 1.2575171 1.482807 12
12.349236 1.5308144 1.5086998 12
12.215939 1.7925901 1.5311075 12
12.612551 -0.78255612 -1.8367351 4
12.595984 -0.89657307 -1.4058821 5
12.672029 -1.0027902 -0.99482256 6
12.615237 2.8140717 -0.3670218 7.5
12.475777 2.8694315 0.35979405 9
12.509577 2.9752326 0.53993231 9
12.623319 -1.6474853 0.86968809 10
12.757958 -1.3681475 0.90672624 10
12.700276 2.8468478 0.91478622 10
12.58919 -1.7745229 1.1525117 11
12.80889 -1.2775214 1.2444631 11
12.912739 -0.89158589 1.1278867 11
12.953023 -0.71636081 1.3101182 11
12.782073 2.6940138 1.1825696 11
12.698355 -1.3917478 1.4721845 12
12.893653 -0.86353731 1.5824493 12
12.872969 -0.13640597 1.3608148 11
12.801751 0.14931114 1.3845971 11
12.788962 -0.41210106 -1.7806234 4
12.764932 -0.47449458 -1.3364558 5
13.09341 2.6498439 -0.22237033 8
12.984663 2.6794469 0.32564059 9
13.084481 -0.86798215 0.65699881 10
13.033238 -0.55710489 0.69499201 10
13.129065 -0.091666244 0.75919181 10
13.289514 0.38088557 0.8291707 10
12.996194 2.7029064 0.63952446 10
13.055767 -0.3771081 1.0645242 11
13.209096 0.21991402 1.1610725 11
13.00906 -0.51135093 1.4923826 11.5
13.02454 -0.31997928 1.69226 12
13.078939 1.6735717 1.7242327 12
13.200768 2.2596905 1.3876936 11
13.260486 2.6054502 -0.63646507 7
13.315689 2.7041924 0.071314722 8
13.568611 2.4837129 0.28840801 9
13.64348 2.6121733 0.45830652 9
13.579818 2.5141344 0.62363225 10
13.361439 0.41482159 1.1466402 11
13.433107 0.72857845 1.1909899 11
13.713592 1.8877699 1.0859773 11
13.495809 1.1271248 1.661419 12
13.734381 -0.77273768 -1.0671228 6
13.691899 2.4577355 -0.27752921 8
13.836236 2.2387288 1.1447318 11
14.349242 2.2502582 -0.33887285 8
14.118219 2.2997611 0.60369372 9
14.835961 2.0303204 0.20763054 9
14.69021 2.3068011 0.83675671 10
15.065512 2.0233057 -0.40599781 8
15.026564 2.1833434 0.36029986 9
15.394487 -1.423775 -1.0943391 6
15.291488 1.938314 -0.90201718 7
15.481095 -1.3046314 -0.70365477 7
15.547832 -1.2280533 -0.18167087 8
15.319836 2.0693648 0.80070138 10
15.923935 0.064274006 -0.93738323 7
15.908439 0.19391328 -1.158358 6
15.680159 -0.68620694 -0.72543854 7
15.79277 -0.43201339 -0.62382877 7
15.92661 0.010358889 -0.66764659 7
15.855731 1.7739204 -0.47958529 7
15.665489 -0.70167696 -0.11284432 8
15.738547 -0.48363581 -0.50265217 8
15.969833 1.7015316 -0.28479564 8
15.976759 -2.6993098 0.15257733 9
15.958537 -0.35611585 -0.081334494 8
16.040176 0.0041626794 -0.044141334 8
15.811941 1.8712426 0.23222078 9
15.866538 1.5212382 0.53506196 9
15.996508 1.8082306 0.76025021 10
16.057899 0.3645159 -0.63754529 7
16.177158 0.72364044 -0.60671699 7
16.393463 1.4650023 -0.54384708 7
16.352991 -1.4793625 -0.2081078 8
16.024786 0.21402948 -0.473389 8
16.1616 0.59110683 -0.43428248 8
16.390381 -1.1118798 -0.17121658 8
16.198893 0.36860466 -0.0087346938 8
16.173193 0.53382272 0.077640109 9
16.4904 1.5060109 0.71282154 10
16.616192 -1.8366489 -0.90768337 7
16.54286 1.1066228 -0.5899725 7
16.551825 -1.8690726 -0.25488397 8
16.423391 1.3657686 -0.3510381 8
16.796358 0.92964774 0.12745287 9
16.998964 -2.3640635 -2.1449623 5
16.976936 -1.9047273 -2.0687461 5
17.176788 -2.3363984 -0.31534225 8
17.304331 -2.8788238 -2.2601948 5
17.564981 -2.9090419 -1.4618696 6
17.569241 -2.793879 -0.37109658 8
17.400919 1.1817738 0.0551771 8
17.437805 -2.5531776 0.17142174 9
17.579254 -2.1843703 0.20486234 9
17.681599 -1.8105785 0.23927112 9
17.580612 -2.168488 0.68685246 10
17.690165 -1.7580893 0.74025959 10
17.400047 1.2163481 0.67095649 9
17.608747 -1.8666574 -2.1292472 5
17.648527 -2.6170557 -1.654001 6
17.757967 -2.2225633 -1.6161169 6
17.703768 -2.4971724 -1.4188087 6
17.656654 -2.7444494 -1.0709891 7
17.821829 -2.3159492 -0.94907767 7
17.771889 -2.6150625 -0.4347178 8
17.902914 -2.2232745 -0.37875587 8
17.799824 -1.4275759 0.27269486 9
17.954416 -1.0470539 0.30879101 9
17.873201 -1.3522098 0.79597199 10
17.962669 -0.93579018 0.84992224 10
18.294365 3.1758909 -1.0450282 7
18.118826 -0.65624642 0.34355459 9
18.248209 -0.2575936 0.38038152 9
18.33449 0.14105731 0.41777572 9
18.311205 -0.088193454 0.97216141 10
18.421215 0.34522223 1.0339973 10
