# .PCD v0.7 - Point Cloud Data file format
VERSION 0.7
FIELDS x y z intensity
SIZE 4 4 4 4
TYPE F F F F
COUNT 1 1 1 1
WIDTH 124
HEIGHT 1
VIEWPOINT 0 0 0 1 0 0 0
POINTS 124
DATA ascii
0.68988848 -0.71142602 -0.18580802 153
0.65902787 -0.64032704 -0.18673602 161.39999
0.7562682 -0.62975782 -0.18331213 159.5
0.59835243 -0.50713784 -0.17733331 177
0.6309002 -0.54227293 -0.18039942 170.60001
0.74727279 -0.54431915 -0.18077937 165.77777
0.82238424 -0.56563449 -0.17961752 160
0.57108682 -0.44669273 -0.17399001 176.875
0.65648115 -0.43823656 -0.16957279 173.5
0.72829878 -0.44918114 -0.17083713 171.75
0.83035743 -0.44836491 -0.17276122 164.39999
0.90935063 -0.41068441 -0.16353253 160
0.55261433 -0.34732425 -0.17702618 163.43478
0.63862985 -0.33835036 -0.16236578 166.22223
0.75249469 -0.34566954 -0.1564503 170
0.86667657 -0.37747872 -0.16719957 165.60001
0.92584366 -0.32401931 -0.16350552 160.33333
-0.13877337 -0.22941701 -0.18389478 183
0.49374872 -0.26247582 -0.18459323 149.88889
0.54896033 -0.2408347 -0.17773378 151.82927
0.64961004 -0.24986276 -0.16317989 153.84
0.73687643 -0.24343894 -0.14816818 163.21428
0.8444733 -0.24482894 -0.14790548 167.33333
0.94266611 -0.24640651 -0.15867451 164.5
-0.15870722 -0.16385292 -0.1982345 184
-0.01311055 -0.1778045 -0.19983444 178
0.15265819 -0.10570861 -0.1992961 160.33333
0.46197969 -0.13237347 -0.19346015 155.01819
0.54989296 -0.1490999 -0.19050601 155.14999
0.63610607 -0.1449443 -0.16830269 150.51163
0.74056989 -0.14336243 -0.14937447 153.83333
0.84186327 -0.15329719 -0.14307182 165.22223
0.95797956 -0.14690462 -0.15096959 163.33333
-0.21706869 -0.097731866 -0.13074119 185.15384
-0.18349092 -0.095923759 -0.1736663 166.60001
-0.078199223 -0.023245366 -0.19714034 178
0.16098689 -0.046775594 -0.19123754 161.58139
0.22489509 -0.047759287 -0.19501916 157.09091
0.39116353 -0.0075109308 -0.19536136 154.88
0.45734707 -0.04873037 -0.19293813 162.4178
0.53571874 -0.045005295 -0.18971221 153.12857
0.64193726 -0.049572285 -0.17297865 150.93221
0.74864244 -0.043785512 -0.1490467 151.42308
0.84698659 -0.050649978 -0.13707756 162.75
0.93732023 -0.047478691 -0.14190397 162
-0.19018161 0.042546652 -0.19827807 185
-0.060639758 0.087071858 -0.19763319 177.75
0.16273788 0.055028662 -0.19014488 160.63158
0.2378666 0.067428984 -0.19394258 157.58333
0.36347821 0.032180376 -0.19327128 154.72223
0.46312496 0.021121977 -0.19031201 162.15384
0.54179406 0.04026242 -0.18770128 151.47762
0.64071 0.050731711 -0.17145716 150.55173
0.75196344 0.052488476 -0.14618684 153.39131
0.83853775 0.054426547 -0.13466479 163.39999
0.93819439 0.045034938 -0.13854824 166.33333
-0.30316842 0.13737588 -0.19966158 190
-0.22152662 0.11999355 -0.18049806 146.8
-0.17251614 0.15539499 -0.19502561 184
-0.030287243 0.16968675 -0.19550447 177.5
0.098034121 0.13314207 -0.19953454 166
0.16101921 0.14369722 -0.19396248 161.85001
0.25054732 0.13913834 -0.17081511 150.36957
0.31834248 0.14105956 -0.18570746 158.10257
0.64323229 0.12000089 -0.163467 150
0.74227446 0.15147531 -0.14266555 158.31818
0.85387927 0.14368954 -0.13396935 167.39999
0.94264734 0.13630874 -0.14149252 166
-0.23340264 0.26968873 -0.19790807 189.5
-0.1505433 0.25193411 -0.19333369 184.85715
-0.0077955117 0.24565862 -0.18582985 179.33333
0.018985003 0.22805254 -0.18327297 175
0.13696817 0.23525017 -0.17858799 168
0.26440394 0.23899217 -0.18565461 165
0.3022801 0.20316707 -0.18847249 166
0.79510999 0.20579222 -0.13533571 172
0.8509928 0.23258142 -0.13730003 170
0.95706898 0.25270873 -0.14938937 163.33333
-0.052127838 0.35564566 -0.17680119 185
0.050668858 0.3438887 -0.18300679 179.66667
0.15847176 0.34758151 -0.18358748 176.16
0.23419642 0.35821074 -0.18403076 174.33333
-0.12860721 0.42212391 -0.18923901 188.60001
-0.049045436 0.45678589 -0.1823096 187.75
0.05879622 0.43371466 -0.18178356 183
0.15129383 0.46544638 -0.17773773 182.2
0.21146344 0.43419161 -0.18179564 180
-0.3128958 0.57846731 -0.19992909 171
-0.22785173 0.50672984 -0.19704437 182.5
-0.1420064 0.56006616 -0.19444391 185.33333
-0.017443741 0.54844528 -0.17922279 189.66667
0.053649522 0.53932601 -0.17487738 188.55556
0.16257817 0.55174142 -0.16681182 187.28572
-0.24171802 0.66798794 -0.19668475 173.5
-0.10387768 0.67447412 -0.19444354 180
-0.067378424 0.62206364 -0.19031525 183.25
0.020928046 0.66056269 -0.18316533 188.2
0.12705223 0.64946043 -0.17385688 189.25
-0.31950468 0.75256842 -0.19991212 153
-0.13907771 0.72328305 -0.19349548 174.5
-0.031260096 0.75895238 -0.1865164 178.25
0.086962029 0.75708228 -0.17785825 185
0.10525032 0.70730811 -0.17503631 188
-0.22977069 0.85005659 -0.19395131 156
-0.10284059 0.88898766 -0.1807681 162
-0.082234278 0.85479462 -0.18923934 167
0.055332929 0.8343032 -0.16967522 191.5
-0.28261906 0.92324364 -0.19228114 139
-0.13636845 0.95349443 -0.18564884 151.5
0.0086770216 0.96023476 -0.17531341 159
-0.30441394 -0.10564421 -0.056359701 124
-0.27040493 -0.10176008 -0.07595671 176
-0.021509731 -0.16195486 -0.082656488 167
0.018811984 -0.1347706 -0.023936812 141.66667
-0.24612293 -0.099593446 -0.097045206 185
0.082351044 0.16491595 -0.031978093 134.76471
0.15511058 0.1644163 -0.067176566 130.2258
0.21032888 0.15911078 -0.096097238 130.44444
0.073766097 0.23413178 -0.096000992 174
-0.049471565 0.32247448 -0.022324843 146
0.03199105 -0.12223873 0.01714913 129.25
0.077363946 0.16568875 0.014627748 128.89999
0.10021175 0.18318184 0.047810648 120
0.041155361 0.23845199 0.018580448 138
