# .PCD v0.7 - Point Cloud Data file format
VERSION 0.7
FIELDS x y z intensity
SIZE 4 4 4 4
TYPE F F F F
COUNT 1 1 1 1
WIDTH 124
HEIGHT 1
VIEWPOINT 0 0 0 1 0 0 0
POINTS 124
DATA ascii
0.50799835 -0.8058008 -0.19718432 138
0.49807429 -0.74697435 -0.20281324 145.60001
0.60269928 -0.74824214 -0.2079118 141.5
0.47782055 -0.63671666 -0.2038815 163.5
0.54785079 -0.66191602 -0.20836172 156.42857
0.65673208 -0.62379646 -0.21047595 155.39999
0.69116145 -0.69462693 -0.21558987 147
0.45929721 -0.54391015 -0.19628327 170.125
0.5352217 -0.5424726 -0.20243026 169
0.61929131 -0.52133137 -0.20495832 162.85715
0.72489554 -0.56576222 -0.21311969 157.39999
0.7955333 -0.51645166 -0.21258913 158.75
0.44570732 -0.45691627 -0.21029612 175.2
0.52913046 -0.43252668 -0.20690909 174.2
0.63738912 -0.44611135 -0.20189707 170.55556
0.72931904 -0.438692 -0.20671217 168.66667
0.83461207 -0.4356066 -0.21553929 162.8
0.44138673 -0.33738258 -0.20204917 157.20833
0.53175229 -0.3377184 -0.20415181 161.14285
0.62537223 -0.3472639 -0.20436409 168.21053
0.72656614 -0.34690619 -0.20142759 167.8
0.82577771 -0.33076167 -0.21127886 166.85715
0.90702182 -0.35597688 -0.21666722 158.66667
0.43679816 -0.24131475 -0.21032475 144.81133
0.52840948 -0.23949695 -0.20472576 143.10417
0.63682133 -0.24614187 -0.20138137 152.45454
0.73082811 -0.23738647 -0.19608794 163.33333
0.83955872 -0.24567169 -0.20186417 165.66667
0.91116029 -0.24081188 -0.21273106 164
-0.36169523 -0.14407367 -0.16384953 181.66667
-0.25672385 -0.12154356 -0.13876922 182.33333
-0.18024892 -0.10786567 -0.17556684 181
0.38132039 -0.10212464 -0.20839398 152
0.4246971 -0.13621648 -0.210025 147.19658
0.5306266 -0.14330211 -0.21543075 145.25
0.62376815 -0.13932924 -0.20067012 139.70454
0.73471332 -0.1472602 -0.19444484 155.26315
0.82593209 -0.14830361 -0.19432829 163.7
0.91964495 -0.13962331 -0.20827995 165.33333
-0.44179997 -0.06008416 -0.15837011 172
-0.33635429 -0.052040428 -0.16081043 186.66667
-0.26460171 -0.046594638 -0.16355202 185.16667
-0.18510754 -0.040739395 -0.1741893 180.66667
-0.088601142 -0.061338291 -0.18229647 175.61111
0.040523771 -0.043322403 -0.19122386 164.66667
0.12915707 -0.02990244 -0.19269647 154.93333
0.2470721 -0.015217851 -0.21401657 160.06897
0.3491624 -0.0030299984 -0.22303191 157.12871
0.42947128 -0.040334072 -0.22179371 154.34694
0.52366263 -0.039125621 -0.2121155 143.09091
0.62797868 -0.038792163 -0.21008076 141.36363
0.73371834 -0.040059112 -0.19592921 148.42857
0.83257651 -0.028386433 -0.19312696 162.28572
0.94046962 -0.027874229 -0.21161593 162.8
-0.53921485 0.041759223 -0.14993231 152
-0.44616675 0.037502829 -0.1576588 177
-0.33456406 0.032386791 -0.16198844 186.5
-0.24393155 0.052495409 -0.16096379 184.22223
-0.18241858 0.059105352 -0.17263472 180.5
-0.090872355 0.052317377 -0.1807508 175.625
0.045378868 0.051338919 -0.19088206 165
0.13700694 0.05005046 -0.19109336 155.31035
0.24514475 0.050488539 -0.21331269 156.8481
0.32544509 0.025500806 -0.22085042 159.68182
0.43992171 0.017079094 -0.21834445 153.53488
0.52516752 0.032425623 -0.21052147 142.94444
0.63119453 0.052689601 -0.20782359 141.14999
0.73668474 0.067790359 -0.19513869 150.26315
0.83406216 0.059494972 -0.1935012 162.5
0.9278686 0.070536278 -0.20677897 159.66667
-0.44407529 0.13615668 -0.1563734 177
-0.32795763 0.16043693 -0.16070677 186.5
-0.27719325 0.15637256 -0.1637145 186.10001
-0.18182559 0.16206713 -0.16750798 182.16667
-0.063318156 0.15442434 -0.18214324 175.76471
0.0621427 0.15072359 -0.18585438 163.5
0.1351573 0.14318737 -0.1913714 157.18867
0.23984033 0.13872406 -0.17577656 145.22223
0.32250297 0.14843698 -0.20460567 153.21428
0.77523708 0.10584588 -0.18852195 162.5
0.83189148 0.11979891 -0.19187178 164.5
0.93525386 0.14463905 -0.20949247 160.66667
-0.24880083 0.26802093 -0.16401139 185.5
-0.16373114 0.23052835 -0.16768649 183
-0.022917297 0.29846939 -0.17712504 179
0.055286787 0.27900836 -0.18567786 174.75
0.16098112 0.24676108 -0.18850693 162
0.23898058 0.24946752 -0.19731149 161.54286
0.31148437 0.24472091 -0.20087627 164.54839
-0.31599158 0.39935905 -0.12152922 142
-0.066024698 0.35632074 -0.16532543 181.64706
0.035982832 0.33451182 -0.18103357 178.11111
0.13094462 0.34669831 -0.18852793 175.34782
0.23702191 0.36335504 -0.19695929 173.39285
0.30998367 0.36143252 -0.20237276 172.35715
-0.12506481 0.48632732 -0.16819766 184
-0.085041881 0.44612062 -0.17037196 185.83333
0.028000295 0.44806111 -0.17610028 183.69231
0.13412748 0.46224669 -0.18432459 181.58824
0.22598828 0.46440506 -0.18971434 180.66667
0.29417217 0.46669713 -0.19546613 179.90909
-0.046838157 0.5274089 -0.17313807 182
0.040747646 0.54481024 -0.17445204 184.83333
0.12408088 0.55422127 -0.17680946 186.83333
0.23894155 0.5521102 -0.17598747 186.76923
0.28581157 0.50722414 -0.17972466 185
-0.031244488 0.66989893 -0.17531592 178.5
0.070929825 0.68505079 -0.18476208 183
0.13435215 0.6496864 -0.1839435 188.25
0.25104001 0.64504516 -0.18418808 187.8
0.038998239 0.7582249 -0.17678584 176
0.15368012 0.74581867 -0.18614085 181.2
0.25483739 0.74789453 -0.19157979 180.25
0.12405293 0.85157555 -0.18131848 168
0.2403983 0.85360372 -0.19189285 168.75
0.092713639 0.96563345 -0.17956796 155
0.22485811 0.96622097 -0.19128969 161
-0.24749364 -0.11531822 -0.050952088 166.18182
0.091665946 0.15419857 -0.050196268 139.54546
0.14199939 0.14797746 -0.075679496 123.48387
0.20958333 0.14598027 -0.10494212 126.3125
-0.055835366 0.27026811 -0.067907609 155.5
0.041031886 0.22973147 -0.047507603 157
0.1119993 0.16301712 0.029026648 120.66666
