# .PCD v0.7 - Point Cloud Data file format
VERSION 0.7
FIELDS x y z intensity
SIZE 4 4 4 4
TYPE F F F F
COUNT 1 1 1 1
WIDTH 109
HEIGHT 1
VIEWPOINT 0 0 0 1 0 0 0
POINTS 109
DATA ascii
-0.53543735 -0.61552525 -0.16966736 134
-0.47581953 -0.5747034 -0.17286292 143
-0.38324782 -0.51096272 -0.17563136 167
-0.2212947 -0.52223474 -0.19084989 179
0.81165642 -0.50148851 -0.26009616 168
-0.31585351 -0.46515828 -0.18128125 181
-0.27013797 -0.43385851 -0.18370907 184
-0.13170926 -0.4420889 -0.19358183 188.75
-0.10327509 -0.41753355 -0.1986337 186.5
0.74729329 -0.4289476 -0.25267643 171
0.82651341 -0.44711375 -0.26425913 165.57143
-0.16887823 -0.36338174 -0.18209578 187.71428
-0.070205525 -0.33600262 -0.18881671 183.93333
0.030891448 -0.29756632 -0.20339896 178
0.65093786 -0.32282838 -0.22977038 164.75
0.73132908 -0.3457413 -0.23937789 170.3
0.83771515 -0.33165911 -0.25601712 167
0.89491457 -0.35523716 -0.2631171 161
-0.26334512 -0.2268676 -0.17982055 188.5
-0.16594785 -0.21534328 -0.18278651 183.66667
-0.070025489 -0.23751536 -0.17332277 181.16667
0.041303467 -0.26552597 -0.18855864 177
0.56200349 -0.21835946 -0.23677598 151.08333
0.63378924 -0.23914477 -0.23826215 158.41379
0.72740978 -0.2352712 -0.23669343 168.17647
0.82455021 -0.23029119 -0.24869084 188.16667
0.92040974 -0.23580532 -0.26727632 191.5
-0.22465636 -0.12880284 -0.11314385 186.7
-0.18730733 -0.14409211 -0.17166156 176.71428
-0.061656628 -0.13327898 -0.19295172 177.16667
0.044958171 -0.17099607 -0.13551749 169.33333
0.15666607 -0.12690867 -0.20600322 159
0.21625397 -0.11725273 -0.21684796 163.22223
0.56783789 -0.18049158 -0.24623342 170.60001
0.625844 -0.13691668 -0.24546602 175.2963
0.72921538 -0.14720526 -0.243751 180.13043
0.83764964 -0.13248298 -0.2442652 187.27272
0.91700292 -0.13893485 -0.25724685 190.75
-0.4458715 -0.080286078 -0.1643452 177
-0.33080712 -0.068518534 -0.17019369 189.66667
-0.26596785 -0.061935388 -0.17483199 186.16667
-0.20303451 -0.055526495 -0.17882507 183.75
-0.088903382 -0.04400979 -0.18989222 177.8
0.081799068 -0.026556725 -0.20747662 169
0.13936548 -0.052760448 -0.20715994 165
0.21201718 -0.076341964 -0.21176757 161
0.44351798 -0.066716559 -0.23585247 168.66667
0.64094132 -0.05175164 -0.24579076 174.5
0.74482208 -0.059103567 -0.24441154 179.7619
0.8405 -0.044346154 -0.24290468 186.66667
0.92125767 -0.05244362 -0.25415811 190.66667
-0.45011821 0.019658346 -0.16361497 176
-0.33418277 0.017217727 -0.1694455 189.66667
-0.26156881 0.054809522 -0.17252107 188.375
-0.20715155 0.050174501 -0.17586531 186.16667
-0.093974762 0.034723699 -0.18951319 179.39999
0.082874179 0.044127554 -0.2061051 170
0.14015211 0.072126858 -0.18635781 154.34782
0.19252826 0.096647292 -0.16124348 127.83334
0.44384983 0.065904394 -0.23230906 168.71428
0.64176416 0.052248131 -0.24394812 174.89655
0.74378282 0.058684599 -0.24235716 179.07692
0.83395809 0.043589592 -0.24122734 186.41667
0.91993636 0.045644268 -0.25377125 190
-0.33519912 0.13425335 -0.1681152 194.66667
-0.25790447 0.17207368 -0.14331949 178.375
-0.1827307 0.16175854 -0.16773216 187.85715
-0.079276726 0.16696835 -0.15571082 184.27272
0.14791217 0.12367121 -0.14045052 137.25926
0.21284641 0.15868069 -0.21027179 168.8125
0.57259333 0.20284013 -0.23652865 175
0.62773025 0.1565765 -0.23981267 175.28572
0.7251395 0.16697338 -0.23712844 180.40909
0.83238965 0.16059071 -0.23922159 187.28572
0.92651558 0.15812956 -0.25421911 192
-0.15265489 0.23789288 -0.16022624 188.7
-0.080205314 0.24899979 -0.12535268 188
0.019428013 0.28061998 -0.19371979 180.71428
0.58042479 0.21179067 -0.23074758 175
0.64217669 0.2602081 -0.23396593 178.94118
0.72222525 0.25381744 -0.23087698 183.60001
0.8274166 0.25631526 -0.23851971 189.28572
0.91978049 0.25966498 -0.25685921 192.33333
-0.3182233 0.3893986 -0.16028868 197
-0.27115056 0.36198673 -0.15680833 197.33333
-0.17416047 0.34577942 -0.15345399 193.71428
-0.068234831 0.3602744 -0.17691259 188.89999
0.053576764 0.32372969 -0.19471133 181.25
0.098494969 0.33559498 -0.19929208 180.5
0.7337023 0.35305709 -0.22909461 188
0.81616795 0.3424359 -0.23965009 191.2
0.90338683 0.3722142 -0.26050627 193.66667
-0.16750839 0.44331989 -0.17370741 194.60001
-0.086338721 0.43788478 -0.17929746 191.33333
0.016978832 0.43445042 -0.18160936 189.66667
0.85372192 0.47655216 -0.25143695 195
-0.055351943 0.52524638 -0.1785771 194.75
-0.26053363 -0.13367225 -0.056726128 177.63637
0.054386787 -0.13962804 -0.032074474 140.29411
0.11639921 -0.13343444 -0.094049387 124.57143
-0.23677006 0.16186021 -0.04619484 177.54546
-0.1546568 0.16922209 -0.045376223 147.5
-0.03715679 0.15680028 -0.030171119 156.5
0.052218571 0.15543886 -0.033676248 137.75
0.10724057 0.13697129 -0.083302453 137.11111
-0.031593844 0.21109279 -0.02909172 188
-0.0056721019 0.20226116 -0.087629057 184
0.023874987 -0.14718175 0.014056947 142.91667
0.044052601 0.16189155 0.026139103 139.44444
