# .PCD v0.7 - Point Cloud Data file format
VERSION 0.7
FIELDS x y z intensity
SIZE 4 4 4 4
TYPE F F F F
COUNT 1 1 1 1
WIDTH 84
HEIGHT 1
VIEWPOINT 0 0 0 1 0 0 0
POINTS 84
DATA ascii
-0.44271797 -0.89840651 -0.15134595 3
-0.45856678 -0.59216362 -0.14322713 0.66666669
-0.50878221 0.34940585 -0.10456411 0
-0.51686049 0.52508688 -0.097864315 0.5
-0.33869633 -1.3876851 -0.18240646 4
-0.22118029 -0.95249641 -0.18209273 2.3333333
-0.21809363 -0.65141499 -0.17322335 0.5714286
-0.40425116 -0.3714034 -0.10303205 0
-0.40711313 0.47563058 -0.12002544 0
0.022359509 -0.63599956 -0.19870326 0.33333334
0.70400405 -0.17051618 -0.25906238 0.5
0.64489675 0.27236933 -0.2409486 0.33333334
0.69231701 0.58281177 -0.24092565 0.75
1.075158 -0.43298534 -0.32520801 2.5
0.96082354 -0.21386772 -0.29439855 1.8571428
0.9444319 0.21471041 -0.27976659 1.6666666
0.97754854 0.61493528 -0.27803585 2.1818182
1.053955 0.94293851 -0.27057144 3
1.3769941 -0.57380766 -0.35768467 3.5
1.3610774 -0.17259064 -0.35360497 2.8
1.3574321 0.27160037 -0.33755833 2.5999999
1.3813121 0.61717975 -0.32133421 3.1666667
1.3746026 0.98498499 -0.27028468 4.1428571
1.4469292 1.3473997 -0.28115705 4.3333335
1.5182565 0.96208858 0.067995124 10
1.8573117 -0.92527974 -0.42927927 4.5
1.7946041 -0.5887934 -0.40271303 4
1.6301265 0.23722005 -0.36893535 3.5
1.7592748 0.63502026 -0.36589357 4
1.800748 0.88559365 -0.35549119 4
1.6145144 1.3139931 -0.27159008 4.5
1.7096035 1.8186846 -0.32854569 4.5
1.9207274 2.100246 -0.34981447 5
2.2908089 -1.2824371 -0.51279908 5
2.2617698 -0.64805353 -0.46328533 5
2.1623478 -0.24537018 -0.44729269 4
2.1994045 0.20902668 -0.43510818 4
2.1567914 0.68378353 -0.41074088 4
2.2557633 1.1602739 -0.42771029 4
2.1050994 -0.24350166 0.015847564 10.333333
2.4190884 -1.008862 -0.51941478 5
2.4648812 0.37344933 -0.4601368 5
2.5428617 0.6687488 -0.35582614 5.5
2.5322607 0.97892654 -0.47570288 4
2.4482296 1.2767268 -0.45111626 5
2.38411 2.7171249 -0.40347356 5
2.679502 3.111212 -0.43225926 5
2.5694818 0.67468578 -0.2211244 7
2.794265 1.10247 0.21062468 11
2.9346213 -0.88381308 -0.53056914 5
2.9502058 -0.53620565 -0.51264185 5
3.0125794 -0.20697641 -0.48887438 5.5
3.0784848 1.2219893 -0.54687512 5
3.0387373 1.6337429 -0.52991825 5
3.0991955 -0.2308888 -0.30035996 7
3.0059092 -0.61637473 0.10188116 11
3.0116382 0.092893809 0.12677345 11
2.8967912 0.76689255 0.16181253 11
2.977107 1.1838461 0.18911368 11
3.3592694 -1.4709263 -0.67796898 5
3.3008983 3.9445834 -0.46490532 5
3.3879189 1.3638453 -0.15966657 8
3.6064317 0.98110574 0.074413836 10
3.524087 1.4274012 0.13642468 10
3.6436 0.12326702 0.031640124 10
3.7876041 0.57581031 0.038111407 10
3.8872747 1.0659686 0.03429928 10
4.1806965 1.7127404 -0.66026521 5
4.0425658 2.2406998 -0.6621387 5
4.2972016 0.17522049 -0.39918846 7
4.5941792 -0.3256909 -0.78341764 5
4.5725322 0.16848323 -0.1174062 9
4.5313544 0.70425439 -0.061769087 9
4.747179 1.3263599 -0.12387655 9
4.8107357 -2.1825736 -0.93305457 5
4.8114648 0.21983883 -0.80048287 5
4.8993907 0.7951026 -0.81819761 5
4.900352 2.7646275 -0.63307214 5.5
4.8120894 0.18725801 -0.27091712 8
4.9214888 2.7952545 -0.15313722 8
4.9330649 2.8179853 0.27186695 10.5
6.111845 0.99519354 -0.73907405 6
6.1294703 0.98129457 -0.30344331 8
7.1212602 0.31926075 -0.95988864 6
