# .PCD v0.7 - Point Cloud Data file format
VERSION 0.7
FIELDS x y z intensity
SIZE 4 4 4 4
TYPE F F F F
COUNT 1 1 1 1
WIDTH 172
HEIGHT 1
VIEWPOINT 0 0 0 1 0 0 0
POINTS 172
DATA ascii
-0.2533522 -0.93469095 -0.11871777 161
-0.11218549 -0.98074436 -0.11693929 165
-0.082697272 -0.9214763 -0.11770438 175
0.048767541 -0.95868707 -0.11683162 181.25
0.18832856 -0.94241947 -0.11760519 186.5
-0.53700787 -0.81190103 -0.14466676 142
-0.40636978 -0.8872298 -0.12373353 146
-0.36016777 -0.83558863 -0.12539417 158
-0.21048233 -0.87323749 -0.12311602 171.66667
-0.16952212 -0.81351733 -0.12558232 182
-0.039286852 -0.83769006 -0.12333962 188.75
0.087950177 -0.84589636 -0.12058605 193.33333
0.20228863 -0.87002355 -0.11773997 192.5
0.2100393 -0.83856618 -0.12244486 197
0.31741408 -0.86742795 -0.11696412 193.25
-0.6562053 -0.71433473 -0.17477781 135
-0.49952713 -0.7790826 -0.14504613 146
-0.45388633 -0.73981476 -0.14740419 158.5
-0.31282082 -0.78407902 -0.13019904 171
-0.26890129 -0.73568439 -0.13329731 184
-0.12717184 -0.75220579 -0.12887773 193
-0.0087608565 -0.77956617 -0.12833518 196
0.016734432 -0.72330135 -0.12245033 196
0.12221868 -0.74826568 -0.12479058 195.39999
0.22574008 -0.75844562 -0.12329678 195.2
0.32569277 -0.74826938 -0.12057181 195.39999
-0.62165481 -0.6916284 -0.17684567 139
-0.53574628 -0.63223082 -0.1720362 154.33333
-0.40565985 -0.69936746 -0.15274502 171.5
-0.32572895 -0.62872267 -0.15172563 185.5
-0.22329605 -0.68617171 -0.13813509 190
-0.16005087 -0.61263239 -0.13410662 195.66667
-0.061434682 -0.65566891 -0.13162625 195.2
0.04282647 -0.6752333 -0.12882347 194
0.1582143 -0.63441205 -0.11897691 193
0.2477119 -0.63505512 -0.11853398 192.39999
0.33090794 -0.63793474 -0.11705897 192.5
-0.44975671 -0.57477278 -0.17394829 176.33333
-0.37400028 -0.52367091 -0.17398749 187.66667
-0.23433392 -0.54862654 -0.15239906 194
-0.13366507 -0.58634156 -0.1420821 194
-0.045796666 -0.54696047 -0.12537591 192
0.054496471 -0.5653674 -0.12779248 190.66667
0.17414683 -0.54209733 -0.12262587 188.89999
0.26134107 -0.52614617 -0.12880504 186.92308
0.33863348 -0.53441161 -0.12178718 187.3
-0.76587582 -0.42797184 -0.19534765 137
-0.30193517 -0.47236368 -0.16491434 195.5
-0.26813993 -0.45134172 -0.17090875 194.66667
-0.13533583 -0.45858967 -0.14416808 191.66667
-0.038813546 -0.46111155 -0.13204388 188.77777
0.048662812 -0.44686934 -0.1422673 185.16667
0.1485395 -0.46718925 -0.13742481 184.46153
0.25252792 -0.45772427 -0.14028451 181.71428
0.34924343 -0.45779061 -0.13916904 181.25
-0.6999346 -0.40282151 -0.18753874 143
-0.63777441 -0.3800329 -0.18504089 153
-0.56476879 -0.35229209 -0.17692752 166
-0.20672581 -0.40521926 -0.15507515 194
-0.14840531 -0.36602592 -0.15557688 189.625
-0.054015554 -0.35447651 -0.15880473 184.25
0.07116016 -0.33896261 -0.15247338 178.88889
0.15620573 -0.35971037 -0.15659472 176.55882
0.25457868 -0.36962417 -0.15748732 175.21875
0.34079668 -0.36437318 -0.15795255 174.23334
-0.70751178 -0.26278946 -0.20154625 145
-0.62210912 -0.24330106 -0.20095585 161.33333
-0.52172667 -0.21965905 -0.19515826 179.33333
-0.46903256 -0.20746285 -0.19357172 191
-0.35586619 -0.264916 -0.11140364 170
-0.21138737 -0.22121727 -0.15437706 190
-0.17454812 -0.20906059 -0.15996039 187.25
-0.014331665 -0.26805863 -0.16751377 179.5
0.053561654 -0.27029365 -0.17458433 175.85715
0.16486032 -0.24478754 -0.15738727 169.83871
0.26043877 -0.24784636 -0.15244405 168.45284
0.34209383 -0.24098761 -0.15182018 169.08
-0.72535086 -0.1291317 -0.20088707 151
-0.65385437 -0.12158624 -0.20012006 164
-0.55711365 -0.11062653 -0.19188507 177.33333
-0.42148566 -0.19641316 -0.19181809 195.33333
-0.33463782 -0.17520724 -0.18157879 193
-0.25526264 -0.15641233 -0.17622355 190.2
-0.16158824 -0.16904059 -0.16604784 183.41667
-0.051352754 -0.15266059 -0.17676213 177
0.053351562 -0.15730317 -0.15828815 168.2
0.15760948 -0.15532634 -0.16904663 166.34782
0.24756166 -0.18252848 -0.17052515 165.60001
0.35203642 -0.18233888 -0.17152792 165.89743
-0.51228523 -0.1062457 -0.1947013 187
-0.44266108 -0.098428078 -0.18938862 193.5
-0.32962844 -0.0852677 -0.17626309 192.60001
-0.22700137 -0.074068516 -0.17141637 188
-0.15422441 -0.067950748 -0.18530954 182.66667
-0.066832751 -0.058892582 -0.1859384 176.89999
0.061829384 -0.063601799 -0.17524458 169.28572
0.13487987 -0.059790384 -0.18475139 165.01819
0.28396887 -0.035192337 -0.18581983 164.24324
0.32354924 -0.02924422 -0.18601502 165.30232
0.48994303 -0.017446363 -0.17623186 166.5
0.54588348 -0.022662047 -0.16432287 167.5
0.65705138 -0.033184342 -0.16007867 171.83333
0.76671201 -0.042579606 -0.13578306 177.66667
0.84452963 -0.04905653 -0.11725273 185.39999
0.93878406 -0.057721142 -0.11853606 189.8
-0.54572576 0.0015609933 -0.21232359 183
-0.45680824 0.00042142411 -0.20861615 195.5
-0.32198355 0.042499803 -0.19395019 192.875
-0.24209332 0.042508122 -0.18871665 189.41667
-0.16197033 0.027804729 -0.19399273 183.64706
-0.075361677 0.023538992 -0.18967022 179.07143
0.061455525 0.013713351 -0.18390581 169.0625
0.1269033 0.022212984 -0.18736736 165.07143
0.29228768 0.0038066127 -0.18950528 165
0.31357267 0.001310082 -0.18947577 166.25
0.48077962 0.04643701 -0.1781542 166.44681
0.54272664 0.036084358 -0.16788277 167.53165
0.65736073 0.040349681 -0.16208206 171.21053
0.76295078 0.032492831 -0.14231132 175.70833
0.84560144 0.035850845 -0.12520784 185.25
0.93858802 0.043790102 -0.12737003 189.875
-0.57024807 0.117856 -0.21725415 180
-0.44552764 0.10120162 -0.20876418 196.5
0.39383894 0.15921125 -0.1899005 165.60001
0.45001221 0.13777348 -0.18550088 166.09891
0.54848182 0.13396142 -0.18107879 168.88889
0.64337224 0.13879208 -0.16075814 169.34883
0.76087803 0.14132528 -0.14379472 176.72
0.85758847 0.14765269 -0.1312224 186.66667
0.93923116 0.1493625 -0.128747 190.5
0.39118677 0.22163647 -0.1791072 158.09091
0.44964421 0.23685414 -0.19256121 165.5
0.54994071 0.24382064 -0.1772738 164.94737
0.65713865 0.24562164 -0.16746151 172.17392
0.74449688 0.23522691 -0.14537792 181.6875
0.85780311 0.23582704 -0.13933809 188.125
0.90906638 0.21357791 -0.13188531 191
0.39605308 0.34930944 -0.18805568 174.09091
0.46036717 0.32927853 -0.18321311 171.25
0.55980092 0.3402856 -0.18437903 174.9375
0.64242232 0.33734348 -0.1717623 179.95238
0.7501871 0.35394332 -0.16508085 186.3
0.83676958 0.33120656 -0.15590377 188
0.92531723 0.34352231 -0.16663067 189.5
0.39973107 0.46429265 -0.19487213 182.57143
0.45924038 0.44876054 -0.19271939 182.2
0.54052258 0.43051252 -0.18384023 182.5
0.6600793 0.45611849 -0.18200068 187.25
0.75324643 0.44341198 -0.18300311 189.60001
0.86304826 0.4472295 -0.18217377 188.60001
0.40086713 0.55189466 -0.1955492 186.85715
0.47592244 0.55363864 -0.19758591 187.5
0.54903132 0.54074961 -0.19219926 187.66667
0.61886436 0.514759 -0.18524215 189.25
0.73945051 0.56211179 -0.19488481 188.25
0.81191212 0.51236784 -0.19168524 187.66667
0.40283835 0.62064534 -0.19922027 190
0.48441103 0.61213297 -0.19809812 190
0.58787757 0.66430825 -0.20325859 186
0.67121196 0.62417817 -0.19830462 186
0.77568817 0.61911553 -0.19984734 182
0.4448587 0.72314334 -0.20912634 183
0.5059793 0.73413837 -0.21002637 185
0.6197769 0.77413023 -0.20598395 175
0.41056535 0.84940833 -0.21496221 168
0.5176 0.81375659 -0.211017 175
-0.31147954 -0.15246288 -0.061374202 130
-0.19891347 -0.20130433 -0.072922781 177
-0.19294053 -0.20013161 -0.078044556 173.5
-0.0064210207 -0.16897115 -0.0071928948 167.71428
0.0097215818 -0.17204706 -0.054220032 161.38889
-0.01523407 -0.16688184 0.020241708 165.375
