# .PCD v0.7 - Point Cloud Data file format
VERSION 0.7
FIELDS x y z intensity
SIZE 4 4 4 4
TYPE F F F F
COUNT 1 1 1 1
WIDTH 146
HEIGHT 1
VIEWPOINT 0 0 0 1 0 0 0
POINTS 146
DATA ascii
-4.6251621 3.7308986 -0.7069608 12
-4.4933147 3.6690559 -0.079252549 15
-4.5156202 5.1781969 -0.32543439 15
-4.2049403 2.9886978 -0.72196794 11
-4.2073064 2.817668 -0.44769704 12
-4.1498632 2.9135189 0.11216622 15
-3.9946005 3.2382417 -1.1423483 9
-3.9639285 2.3238254 -0.50624102 11
-3.8362038 2.1565754 -0.18421789 12
-3.9850984 2.5385628 -0.14051344 13
-3.8830698 2.2726707 0.16728105 15
-3.9325733 5.1495824 -0.78192008 14
-3.9029398 5.2972898 -0.42064819 15
-3.7549713 1.8271555 -0.48829797 10
-3.6604509 1.626918 -0.031325363 12
-3.6667383 1.7146344 -0.17139432 11
-3.8247995 5.004858 -1.1117738 12
-3.5353062 1.5618058 0.21115388 14
-3.6129663 1.7014903 0.060876723 13
-3.5444183 1.5680039 0.42563367 15
-3.360064 1.8159111 -0.68432999 8
-3.3083966 1.1505843 0.44914088 15
-3.0912018 -1.3617316 0.68221486 8
-2.94118 5.3496523 -1.1677532 12.5
-2.8744497 5.5847812 -0.75402808 15
-2.8173044 5.5477357 -0.89938301 14
-2.1141298 5.5423417 -1.7453802 10
-2.1301322 5.6900163 -1.4039403 12
-2.1315339 5.7577977 -1.2615582 13
-1.8689061 -4.6281776 2.0343206 7
-1.9804257 6.0097141 -0.87623268 15
-1.5817348 -1.9471411 1.0041227 9
-1.5803688 -2.607363 1.7258112 12
-1.2831956 -4.3971157 1.9805154 7
-1.3529029 6.0751562 -1.4631487 12
-1.2234313 6.2683101 -1.0644464 14
-0.60891265 -3.3676548 1.6092653 8
-0.65789878 5.5222435 -1.6222695 11
-0.6992619 5.6415977 -1.3522142 12
-0.67748094 5.7034507 -1.2158698 13
-0.67700297 5.9112492 -0.77429253 15
-0.43665731 -2.4658115 1.463848 10
-0.46943247 -2.4658599 1.6106666 12
-0.63148117 5.7915015 -1.0525053 14
-0.21369642 -1.1442057 0.27627262 2
-0.19656442 -0.87023395 0.13711095 0
-0.24528553 -2.7354319 1.7036138 11
-0.13278805 -2.6805992 2.2312496 15
-0.086090252 5.9919014 -1.0726773 14
0.040948898 -0.70012522 0.085623555 0
0.099197701 5.7274041 -1.998104 9
0.081893958 6.3896441 -1.2925653 13
0.25696474 -1.2706833 0.37934333 3
0.28147262 -1.072109 0.28194687 2
0.25591522 -3.6018274 1.6542381 7
0.21953781 -3.4933312 1.9842371 10
0.31631929 -3.3075244 2.264148 12
0.24438123 5.9552855 -1.7624756 11
0.42179391 0.44097549 -0.40906039 0
0.53265649 -3.5580921 1.8059661 8
0.50843841 -3.5458026 1.8633896 9
0.43540645 -3.4491334 2.1281996 11
0.56449765 -2.5675106 2.1083603 15
0.72242105 0.086444065 -0.24205181 0
0.75249958 0.43729174 -0.39789605 1
0.78073001 0.67565376 -0.50554377 2
0.74895412 5.9877524 -2.069948 9
0.67677784 6.551157 -1.1574081 14
0.97846246 0.57014555 -0.44222745 2
0.77427191 6.5483298 -1.3929414 13
1.1579186 -0.14054073 -0.1107431 3
1.1095822 0.19577265 -0.25847515 3
1.3709259 -0.044481385 -0.13264588 4
1.3211882 6.8193345 -1.2683942 14
1.5982291 6.3012638 -2.1966012 9
1.5783292 7.2146707 -1.8653795 12
2.1683049 -0.60018361 0.66512048 11
2.1514134 -0.5601325 0.79579407 13
1.9702113 7.278089 -1.8897886 11
1.9624822 7.1520967 -1.3563794 13
2.2118936 -0.55729502 0.50434232 9
2.2518361 0.022870345 0.20940083 8.5
2.2305393 -0.63256437 0.56552958 10
2.2805645 0.10220206 0.31228268 10.5
2.2063041 5.359602 -1.9306819 9
2.3339887 -0.29482448 0.77801722 13
2.3687236 -0.090571426 0.62504959 13
2.2304752 0.15137129 0.50098038 13
2.2855067 -0.42676285 0.92992896 14.5
2.2210095 0.20541091 0.65437865 15
2.2901964 5.4620476 -1.66313 10
2.4817932 -2.9067817 1.3519452 7
2.476965 -0.67071533 0.46131873 8
2.4315002 -0.33397344 0.49120626 10
2.406369 -0.26438558 0.68866086 12
2.4235258 -0.15641066 0.83219224 14.5
2.4836855 6.9085455 -1.5954847 12
2.5421333 6.9270921 -1.4167842 13
2.655046 4.9778337 -1.6445186 9
2.7356603 0.43722653 0.60243285 14
2.6305923 -2.3964927 2.1391947 13
2.6301394 6.7606401 -1.8000437 11
2.9927175 -2.5287786 1.256606 7
2.9787645 0.33028606 0.12952107 9
2.9842393 -2.4653397 1.4053965 9
2.9908245 -2.3038535 1.6552062 11
2.8864424 5.8606658 -1.4678558 11
2.9368165 5.8415413 -1.1051291 13
2.9255934 6.0146341 -0.76615578 14
3.0256076 -2.5827358 1.3460928 8
3.0920038 0.33212811 0.011134273 8
3.0086243 -2.4501224 1.6419123 10
2.9922097 -2.2282567 2.1227422 14
3.050005 -2.0287642 2.2877283 15
3.2415094 -2.3762937 1.2383101 8
3.3656158 -2.2709153 1.3342571 9
3.3134527 -2.2040091 1.569953 10
3.1934624 0.56631863 0.38720211 12
3.199472 -2.1923704 1.7731203 12
3.3505323 0.73198211 0.61080575 14
3.2788551 -1.9761627 2.056915 14
3.5637305 -2.1393592 1.6811935 11
3.6927404 0.69935489 0.14499675 10
3.7059813 0.86401385 0.51744276 13
3.6477962 4.5792603 -1.0775032 11
3.6336169 4.8219681 -0.62080997 13
3.7329471 4.7616129 -0.44418576 14
3.641726 4.9469776 -0.16620252 15
3.9726961 -2.1858485 1.1572915 7.5
3.8471191 -2.0691082 1.5717231 10
3.9311395 -1.9716336 1.7822112 12
3.9268594 -1.7744931 2.110816 14
3.9547393 4.7755785 -0.75641423 12
3.9362698 -1.724154 2.2200794 15
3.9885781 -1.9210778 1.7313396 11
4.1453867 4.4119959 -0.84983706 11
4.1598907 4.4083791 -0.34408951 14
4.3033471 3.7518439 -1.2714528 8
4.2017913 4.282692 -0.42699334 13
4.4723735 3.6210911 -0.40204382 12
4.526576 3.6886642 -0.13176605 13
4.6904578 3.3052831 0.30344757 15
4.9871435 2.3253007 -1.0024327 7
4.8223939 2.896841 0.0069615189 13
4.922431 2.7518113 0.2995787 14
4.991672 2.5345156 0.19727409 13
