# .PCD v0.7 - Point Cloud Data file format
VERSION 0.7
FIELDS x y z intensity
SIZE 4 4 4 4
TYPE F F F F
COUNT 1 1 1 1
WIDTH 629
HEIGHT 1
VIEWPOINT 0 0 0 1 0 0 0
POINTS 629
DATA ascii
-14.810935 -2.4150374 3.1590867 11
-14.715287 -2.7446251 3.2665544 11
-14.272615 -2.2153809 4.0383363 12
-13.648808 -3.7694154 5.0865321 13
-13.768181 -3.4752753 5.0075145 13
-13.559085 -4.2711329 5.4667511 13
-13.636832 -3.94032 5.3421345 13
-13.805231 -3.2867017 5.1047482 13
-13.850997 -2.9532011 4.9781346 13
-13.764891 -2.2581968 4.6760449 14
-13.7048 -1.9161031 4.5275812 14
-13.390653 -4.7108507 5.1172886 12
-13.264851 -4.5735993 5.5150852 13
-13.350642 -4.9232931 5.7118649 13
-13.299434 -4.2584772 5.4106121 13
-13.370233 -1.5470114 4.3008785 14
-13.396841 -1.23454 4.1908994 14
-13.368539 -0.9176662 4.0668225 14
-12.7966 -4.1351609 4.3798566 12
-13.076202 -5.5088215 5.8156796 13
-13.074406 -3.5529675 5.099515 13
-12.752039 -3.5242283 4.1114421 12
-12.645901 -3.206219 3.9584811 12
-12.64548 -2.9196084 3.838362 12
-12.448642 -1.9177958 3.3929009 12
-11.631166 -4.0455847 3.2569363 10
-11.965572 -3.0642457 3.0256925 10
-11.606238 -4.0876751 3.7547362 11
-11.493123 -4.7046804 3.6056938 10
-11.482697 -4.5682387 3.4020376 10
-11.283008 -4.7974524 4.5524931 12
-11.448731 -4.5225949 4.3119373 12
-11.321827 -1.765151 3.5309238 13
-11.123167 -5.5553865 4.7203813 12
-10.302677 -5.4224286 4.5233755 12
-10.23547 -0.43238771 3.0940583 14
-9.745142 -2.4276299 3.897455 14
-9.7776241 -1.7314043 3.5804205 14
-9.6321135 -1.2764559 3.3926044 14
-9.6122169 -0.85509533 3.2550776 14
-9.6563206 -0.59405333 3.2500522 15
-9.7872448 -0.20318724 3.1424372 15
-9.8724871 0.14780076 3.0598359 15
-9.525198 -5.3230777 4.8396955 13
-9.4595327 -2.7179799 4.1086822 14
-9.5681677 -2.0464184 3.8395598 14
-9.5584621 -1.8166938 3.7384894 14
-9.4801178 -1.3563762 3.5243325 15
-9.5312796 -1.0351161 3.4092309 15
-9.1802893 -2.0236223 4.0073242 15
-9.2798233 -1.7262313 3.9021933 15
-9.3753586 -1.426626 3.797425 15
-8.8736334 -5.2212048 4.6392021 13
-8.8699932 -3.018312 4.3898373 15
-8.989172 -2.6162355 4.228456 15
-9.1302185 -2.2245917 4.0849071 15
-8.6786413 -3.6249442 4.6443834 15
-8.4400215 -3.064646 4.000886 14
-8.6782627 -2.2679822 3.6949732 14
-8.5487432 -3.9935031 5.1307335 15
-8.6059093 -3.7923481 5.0364275 15
-8.2321911 -5.0947409 4.4303622 12
-7.6416507 -4.9733362 4.2368402 12
-7.7397695 -2.5948937 3.5952194 14
-7.9287815 -4.4322748 4.8749018 15
-7.722569 -2.0449374 3.5841744 15
-7.8064938 -4.0682778 4.9523525 15
-7.2861681 -5.4728532 2.7938488 8
-7.4134345 -5.3348675 3.0026484 9
-7.2512417 -4.9592662 4.1379185 12
-7.3458576 1.7873906 1.68119 15
-6.531004 -4.4000249 3.9579911 13
-6.4633222 -4.241353 4.2572851 14.5
-6.0777669 -4.0651879 1.6942163 7
-6.0573626 -1.862164 1.2250285 8.5
-6.073597 -4.2677579 3.9251888 13.5
-6.0373483 -4.1313109 4.2239666 15
-5.9649205 -3.418287 1.496142 7
-5.6511011 -3.0457408 1.6724275 8
-5.9227281 -2.2594991 1.2920283 8.5
-5.9527607 -1.941157 1.2872924 9
-5.6972661 -2.9661987 1.8659627 9
-5.8427124 -1.5775163 1.6780261 11
-5.8449702 -4.6130762 3.6636031 12
-5.6780763 -4.1524577 3.9029655 14
-5.6475272 -3.9665432 4.2835288 15
-5.3157811 6.4975963 -1.6275139 11
-4.9881988 -2.4084518 1.20981 8
-4.9591365 -1.7198 1.1632518 9
-4.9000616 5.0184655 -1.7989398 8
-4.8975744 -1.6409216 1.3074266 10
-4.8878202 4.5997896 -1.2793157 10
-4.9895315 4.8926163 -1.3298417 10
-4.9734259 5.0876489 -1.5575616 9.5
-4.8707461 4.6164627 -0.90080798 11.5
-4.9515476 4.9663191 -1.1135579 11
-4.9640508 5.2440677 -1.224705 11
-5.0879397 6.5374017 -1.6342145 11
-4.9194694 4.7500038 -0.59815466 12.5
-5.0432978 5.1782207 -0.62311941 12.666667
-5.0199594 5.3180337 -0.89951313 12
-4.9055414 4.9596152 -0.1962425 14.666667
-4.9747591 5.3026032 -0.33845487 14.333333
-4.9005494 5.5869155 -0.49771968 14
-5.1022735 5.6814437 -0.2166108 15
-4.527874 -2.624193 1.4117479 8.666667
-4.5071311 3.2090135 -1.1170319 8.25
-4.5022798 3.6178703 -1.262102 8.333333
-4.6170807 -2.5128372 1.6158053 9
-4.4376945 3.115392 -0.49118236 11
-4.4572997 3.3873665 -0.77226406 10.166667
-4.724421 4.1081247 -0.99585938 10.5
-4.6331668 4.3572769 -1.3003834 9.5
-4.587429 5.1836886 -1.5945967 9.333333
-4.4511232 3.2572246 -0.13167977 13
-4.5120363 3.4811454 -0.43504795 12
-4.6477432 3.9099693 -0.58629107 12
-4.6752934 4.071032 -0.77155811 11
-4.7834992 4.3986716 -0.97962642 11
-4.4639602 3.4093754 0.16106819 15
-4.5261502 3.6726658 -0.044783883 14.2
-4.6631556 4.0623341 -0.27706945 13.333333
-4.7530899 4.4180541 -0.36180225 13.25
-4.775856 4.6895237 -0.34538525 14
-4.6890116 4.1516857 0.036251102 15
-4.7995238 4.5212173 -0.024638014 15
-4.6585245 5.6623855 -0.54071867 14
-4.2549634 -2.8374686 1.6307852 9
-4.2050629 -2.7142997 1.4152561 8
-4.1401062 -2.4934499 1.2643939 8
-4.130538 -1.4519677 0.8830986 8
-4.0551333 -0.82187337 0.73066759 9.5
-4.0522542 1.8060178 -0.55743366 8.5
-4.1201625 2.0623372 -0.65184432 8.3999996
-4.2777834 2.5196221 -0.7835207 8.666667
-4.3751764 2.8740444 -0.89109731 9
-4.354558 3.3704069 -1.1251527 8.5
-4.3017545 3.7087829 -1.2667307 8.333333
-4.3408513 4.0142851 -1.4382362 8
-4.3815808 4.2484832 -1.5252742 8
-4.2109647 5.1199703 -1.9942794 8
-4.0744538 -3.9985769 2.3141465 9
-4.0874147 -3.1064916 1.9327338 10
-4.3289704 -2.7415893 1.6838818 9
-4.3371892 -1.6363505 1.3765033 11
-4.0245085 -0.80840653 0.98299623 11
-4.0452061 1.9277463 -0.17752664 11
-4.1309981 2.2312255 -0.26803094 11
-4.2545242 2.6019831 -0.45364091 10.5
-4.3449559 2.9188604 -0.57752937 10.2
-4.3390336 3.4922981 -0.81479424 10.333333
-4.2350955 3.7832739 -1.0779533 10
-4.3380294 4.0800562 -1.2549039 9
-4.2590008 5.286221 -1.6398267 9
-3.9844003 -3.8190863 2.602416 11
-4.0981383 -0.77379429 1.3356905 13
-4.1122541 -0.6845994 1.3654557 13
-4.0540848 2.1599009 0.26533589 14
-4.1324105 2.4518063 0.14190023 13.5
-4.2589245 2.7506349 -0.079153739 12.8
-4.3620162 3.093643 -0.2642855 12.333333
-4.1607265 5.4052024 -1.2573156 11.5
-4.1824532 -3.5806372 3.1729152 13.5
-4.1123381 2.2950842 0.35578138 15
-4.1832895 2.5543566 0.27339226 14.666667
-4.2844815 2.9202759 0.17087711 14.5
-4.3707867 3.219758 0.055361412 14.333333
-4.2035542 5.5721965 -0.86553502 13
-4.0936852 -3.4645677 3.3747323 15
-4.1856184 5.7653356 -0.50133675 14.333333
-3.6173725 -4.1493931 1.7078922 7
-3.6104205 -4.0069065 1.9575125 8
-3.6620917 -3.7878044 1.9170482 8.25
-3.8950813 -1.1236653 0.74763602 8.75
-3.8430758 -0.90817225 0.69167542 9
-3.8856118 1.523306 -0.30592394 9
-3.9569838 1.664198 -0.38162738 9
-3.8292618 2.2038023 -0.75122553 8
-3.6667731 2.3220577 -0.7763744 8
-3.7879531 -3.8632078 2.3596692 9.666667
-3.6918736 -1.6308287 1.4334182 11
-3.8214307 -1.3282634 1.3268807 12
-3.7757277 -1.0332605 1.1370339 11.4
-3.9526727 -0.81170702 1.08515 11.5
-3.8532662 1.5848778 -0.061459716 11
-3.9464331 1.7724414 -0.10404463 11
-3.7805672 5.3060746 -1.6422559 10
-3.7783625 -3.753655 2.6896601 11.75
-3.9208446 -1.1067946 1.3780414 12
-3.7796643 1.4319106 0.61224771 15
-3.8327951 1.6974074 0.39718729 14.5
-3.9150937 1.9368792 0.31581244 14
-3.8199084 5.4793587 -1.264114 11.333333
-3.5731771 -3.4077983 3.2279956 15
-3.8775787 5.5455298 -0.91579628 12.666667
-3.7440076 -3.4039648 3.2610476 15
-3.7947876 5.7893391 -0.5015009 14.6
-3.2594624 -4.3166895 2.2196453 8.5
-3.4016817 -4.1000462 2.0161545 8.1111107
-3.4285948 -3.8811471 1.8183509 7.5
-3.2379265 -2.1692011 1.1194177 8
-3.2579083 -0.61411023 0.48401198 9
-3.5670266 2.3828228 -0.78769827 8
-3.2615719 4.2001362 -1.4659557 9
-3.4930043 -3.9956274 2.3713458 9.5
-3.5100679 -2.1124122 1.7503053 12
-3.4030945 -1.8570185 1.6217984 12
-3.2363331 -1.3018322 1.3569518 13
-3.4396088 -0.79214078 0.88303113 11
-3.2313385 3.3644409 -1.0044128 10
-3.2480314 -4.0738859 2.8781466 12
-3.4426348 -3.9030528 2.7020714 11.571428
-3.48245 -2.5175786 2.0774262 12
-3.4172244 -1.5290847 1.6052494 13
-3.5933776 5.5436254 -1.2084514 12
-3.381731 5.5837159 -1.3207872 11.4
-3.5164406 -3.6293359 3.1749671 14
-3.3303378 5.7330456 -0.91769564 13
-3.4565091 -3.6010487 3.5049226 15
-3.4919701 5.8762774 -0.41492775 15
-3.3905194 5.8820143 -0.62129647 14.5
-2.9690118 -3.1158075 1.3718972 7
-3.0826888 -2.1470232 1.1736432 8.5
-2.9294169 -1.280069 0.72990584 8.5
-2.9228556 3.4406543 -1.054729 9
-3.088515 3.7063646 -1.2001802 9
-3.0877163 4.2439942 -1.5566965 8.3999996
-2.9024119 -2.1580157 1.5721829 11
-3.0908933 -1.3960378 1.2925839 11.5
-3.0233548 -1.1140658 1.0423758 11
-3.0540516 3.4162059 -1.0139304 10
-2.8847835 3.4705334 -1.0252203 10
-3.013185 5.5434837 -1.5325891 11
-2.7947421 -1.3925278 1.5876148 14
-3.0612321 5.6497402 -1.3474221 11.5
-3.1074457 5.7482309 -1.0480022 13
-3.0646803 5.9705048 -0.65028805 14.6
-2.4744995 -4.0854712 1.9544675 8
-2.5601258 -2.2184329 1.2911803 9.333333
-2.6896124 -2.1039634 1.2100782 9
-2.4940662 -1.6535003 1.1146954 10
-2.6926651 3.5226767 -1.094239 9.666667
-2.5979803 5.5204706 -2.0446448 8.333333
-2.4450521 -3.8375647 2.4702818 11
-2.6407626 -2.4120295 1.7220392 11.5
-2.6379724 -2.128469 1.6126319 11.8
-2.605809 -1.5183114 1.1777012 11
-2.5750608 3.5552001 -1.0725896 10
-2.6858134 5.6200242 -1.7212118 10.333333
-2.4629424 -3.7173138 2.7355366 12.5
-2.669497 -2.1956775 1.8911231 13
-2.7633049 -1.29545 1.5417495 15
-2.5966418 5.7874975 -1.4287078 11.666667
-2.5355356 -3.5442953 3.0836446 14.5
-2.6714969 5.8903937 -1.0974048 13
-2.6325638 6.0737944 -0.75405151 14.5
-2.0025613 -0.48773128 0.5233466 11
-2.1755035 3.5997639 -1.2317252 9
-2.3370473 4.3940649 -1.5339848 9
-2.2982798 -3.8088205 2.4453478 11
-2.0216498 -0.39375842 0.73853475 14
-2.1829681 3.6413357 -1.0832086 10
-2.3708398 5.7046161 -1.8279889 10
-2.1714599 5.7605977 -1.8185176 10
-2.2267478 -3.7458541 2.6641626 12.666667
-1.9864835 -3.6761727 2.4825199 12
-2.3115017 5.8522964 -1.5068439 11.5
-2.1094434 5.9067039 -1.5259651 11.5
-2.333745 -3.50631 3.0669122 15
-2.3276436 5.9626398 -1.2028881 13
-2.0871 6.0926256 -1.1228381 13.5
-2.3520427 6.1653638 -0.80360883 14.5
-2.19297 6.2148647 -0.79305553 14.666667
-1.8895121 -3.2747331 1.6345874 8
-1.7527325 -1.4657094 0.87157464 9.333333
-1.9089792 -1.1105578 0.78814769 10.5
-1.9017801 -0.82181591 0.69658452 10.833333
-1.9915982 -0.55154127 0.4807893 10
-1.855827 3.7559736 -1.2322494 9
-1.8057775 -3.7406392 2.4821589 12
-1.6608154 -1.5264028 1.4949998 15
-1.889019 -0.74805248 0.895877 13.75
-1.8914921 3.7561629 -1.1280271 10
-1.8135176 5.8816876 -1.8658667 10
-1.7760792 6.0396895 -1.5298568 11.6
-1.8338135 6.1564484 -1.1851968 13.333333
-1.8202832 6.3242517 -0.83323526 14.666667
-1.3170021 -3.1673925 1.6055669 8.5
-1.4060212 -2.4155166 1.4913452 11
-1.4940932 -2.3376851 1.2555699 9
-1.542208 3.7944613 -1.2796624 9
-1.3684473 3.916688 -1.3135312 9
-1.3472946 -2.6222243 1.6822828 11
-1.5414474 -2.1669412 1.555794 12
-1.4524703 3.8345308 -1.126106 10
-1.4162058 6.0115652 -1.8575341 10.25
-1.3377075 -2.4412854 2.1111383 15
-1.4605596 6.1088562 -1.5895457 11.4
-1.433892 6.2569294 -1.2406282 13.25
-1.441041 6.4242706 -0.87471569 14.6
-0.87474144 0.27408031 -0.37738302 0
-0.95269245 -3.5245166 1.7477995 8.5
-1.1194036 -3.167098 1.6225601 9
-1.171978 3.970186 -1.3193076 9
-0.93503171 -3.3605475 2.1074722 11.2
-1.012715 6.1127243 -1.8778721 10.333333
-0.91313678 -3.1657243 2.5425396 14.4
-1.0353183 6.2543683 -1.5494082 11.5
-1.0046755 6.3404751 -1.3569765 13
-1.0576276 6.5159273 -0.92305768 14.5
-0.83656031 6.5368104 -1.0485353 14
-0.61760569 -0.52365422 0.0026037891 0
-0.69979185 -0.41682893 -0.052751586 0
-0.71539557 0.23126177 -0.34633252 0
-0.58280468 0.51075524 -0.48049361 0
-0.56845641 0.75930154 -0.59044635 0.75
-0.68912172 -3.600734 1.7833111 8.5
-0.57584333 -3.5643454 1.7282767 8.1999998
-0.63706046 -3.4309795 2.1566019 11
-0.60584724 -3.3955762 2.1178951 11
-0.50745934 5.6272244 -1.6770927 10.5
-0.77325273 6.112637 -1.9448938 10
-0.81618911 6.1503987 -1.9121441 10
-0.53039658 -3.1728454 2.5383577 14.333333
-0.54683149 -2.5651927 2.1499615 15
-0.52273661 5.7944884 -1.2761279 12.5
-0.75360507 6.2633195 -1.5667946 11.5
-0.82626384 6.3412871 -1.4619042 12
-0.55340511 5.9490662 -0.93714106 14
-0.51472247 6.0246935 -0.74352819 15
-0.79823112 6.6276755 -0.84990793 15
-0.37455937 -0.8510766 0.15416023 1
-0.25768325 -0.69800943 0.091908701 0.2
-0.33742625 0.61910266 -0.52717984 0
-0.38857612 0.67004144 -0.54440111 0
-0.14964138 -3.4613404 1.6744878 8.125
-0.16412605 -3.2832434 2.0525026 11.285714
-0.26343191 5.626524 -1.771385 9.8000002
-0.1904521 -3.0801802 2.4977624 14.5
-0.22781387 5.8138595 -1.3839539 12
-0.32009709 -3.1320422 2.673214 15
-0.22020377 6.0237865 -0.9643386 14
-0.21774006 6.1193256 -0.73902106 15
0.31786779 -3.4220333 1.4331183 7
0.22453117 -3.3501894 1.6390036 8.333333
0.24604234 -3.1583071 2.0460927 11.8
0.049218778 5.6973038 -1.919564 9
0.16140254 5.8182406 -1.8044194 10
0.23435842 -2.956871 2.4650505 15
0.037470773 5.8702006 -1.4657646 11.5
0.081084654 6.0978851 -1.3620733 13
0.23745003 6.4601383 -1.5389314 12
0.21162745 6.29004 -1.1577979 13.666667
0.20115714 6.4249086 -1.4327295 12.5
0.19492002 6.2859492 -0.8764984 14.6
0.58628476 -3.3431156 1.417233 7
0.76730072 -3.287961 1.405902 7
0.69766933 -0.25899148 -0.089914851 0.5714286
0.67562711 0.11954536 -0.25193819 0.40000001
0.75002182 0.3341614 -0.34835199 1
0.56663233 -3.2617526 1.5917692 8.5
0.73589963 -3.2052488 1.5888528 8.5
0.54272634 -3.0710473 2.0496957 12.25
0.7195251 -3.0274179 2.0081186 12
0.61238003 5.8500524 -1.9850765 9
0.6247192 6.5086145 -1.999339 10
0.48739633 -2.9010766 2.4132252 15
0.65559447 -2.8597429 2.3894727 15
0.62153578 6.5908246 -1.7898937 11.2
0.59975237 6.3697305 -1.2479695 13.5
0.64694828 6.6764264 -1.5971476 12
0.53649533 6.4103794 -0.93678999 14.5
0.74279404 7.0985732 -0.85331178 15
0.98728538 -3.2248993 1.39333 7
0.97677654 -0.54672372 0.037105959 2.4000001
0.98548168 -0.25409219 -0.085992694 2.1428571
0.97445083 0.1356273 -0.25576639 2
1.0124766 0.45258695 -0.40417323 2.4285715
1.0644108 -3.1178939 1.5540365 8.5714283
1.1826066 -0.81779766 0.53380752 10
1.0138714 -2.9448678 1.9741379 12
0.93699908 5.9755182 -2.0280113 9
0.95886862 6.3845749 -2.0140951 10
1.0280449 -2.7548888 2.3715234 15
0.9636212 6.6666536 -1.8623792 11
0.93356627 6.4512396 -1.3180784 13.333333
0.93986017 6.7511468 -1.6164156 12
0.95034963 6.4060636 -0.96665776 14
1.0620962 7.1218672 -0.96561778 15
0.99466562 7.1448145 -0.85108948 15
1.4333102 -1.0016488 0.32549199 6
1.362088 -0.56990135 0.061131664 3.8
1.3874454 -0.2501533 -0.081795499 3.8
1.3590041 0.18979894 -0.27541572 3.75
1.3727525 0.48896143 -0.40848193 3.8
1.4332393 0.83176458 -0.55088919 4.3333335
1.3927101 -3.0292041 1.5170767 8.6923075
1.4087496 -0.76930118 0.60949719 11.4
1.5569878 -0.36968181 0.47030956 12
1.5650517 -0.20130581 0.37687606 12
1.3906474 -2.8448699 1.9256464 12
1.4432783 -0.68847907 0.80319071 14.6
1.5368997 -0.37515426 0.64452672 14.5
1.5534849 -0.13190651 0.51831156 14.5
1.3696452 6.0680542 -2.0850914 9
1.4786041 6.2578945 -2.075027 9.5
1.3912706 -2.6820612 2.293087 15
1.3641762 6.7950454 -1.8782758 10.833333
1.4259207 6.6267085 -1.4103173 13
1.3145666 6.7666721 -1.6168056 12
1.3554621 6.4984975 -0.98522168 14
1.5671396 6.721632 -1.1849421 14
1.5076587 7.2426777 -0.97719705 15
1.2544526 7.2145486 -0.85070795 15
1.7328789 -1.2722145 0.42435172 6
1.6909628 -0.95235193 0.34035334 6.5
1.7445029 -0.55757391 0.14431158 6
1.7910107 -0.24677791 -0.072725102 5
1.7501808 0.15421745 -0.2470419 4.5
1.7480592 0.52419102 -0.41584119 4.5999999
1.7263253 0.89132828 -0.57659632 5
1.8106546 1.1545582 -0.69158149 5
1.7992436 -2.9128842 1.4821275 8.7142859
1.9295834 -2.771678 1.4085749 8.75
1.775676 -1.2810117 0.60298449 8
1.7051483 -0.78929996 0.54046673 9.8888893
1.6727439 -0.4714922 0.42217422 10.466666
1.8358382 -0.10082687 0.32906738 11.2
1.9286302 2.6917109 -0.87335056 9
1.8022825 -2.7225029 1.8950554 12
1.9636371 -2.5665674 1.8672737 12
1.6440363 -0.58580053 0.73915273 14
1.6399761 -0.36848199 0.66418344 14.5
1.832778 -0.021038152 0.50569725 14.166667
1.7290522 6.1324306 -2.1112328 9
1.7306116 6.7990537 -2.1262887 10
1.8084251 -2.5536852 2.2527642 15
2.0007401 -2.4632497 2.2996333 15
1.725034 6.9113803 -1.8860836 11
1.7605336 6.6500282 -1.5118738 12.5
1.7848676 6.6859708 -1.0761448 14
1.7526814 7.2709508 -0.86911225 15
2.2884822 -0.28891709 0.014357966 6
2.2252841 0.45115069 -0.37119561 5
2.2529962 0.84579849 -0.55905843 5
2.1279027 1.0685953 -0.65389431 5
2.1942544 1.4845141 -0.83247226 5
2.2140594 -2.6605933 1.4236611 9
2.2124646 -0.049044091 0.24568938 10
2.0693765 2.1578779 -0.68520993 9
1.994998 2.4670949 -0.75641912 9.5
2.3743629 4.8260646 -1.6804326 9
2.2327299 -2.4938416 1.7956676 12.125
2.2190149 0.11215535 0.52244061 13.888889
2.3279624 5.1597366 -1.7418612 9.5
2.1852882 6.2963266 -2.1478481 9.1999998
2.1490347 -2.4331114 2.1113377 14.333333
2.1684475 6.902586 -1.950536 10.666667
2.1904178 6.9681611 -2.0673072 10
2.0535107 6.7488279 -1.4614954 12
2.2005465 6.7706265 -1.532366 12
2.1898994 6.8000374 -1.096826 13.666667
2.1450245 7.2400646 -0.85658127 15
2.2907856 7.4864464 -0.99840558 15
2.6205652 -2.7865114 1.1941197 7
2.4221621 -0.32141227 -0.013881825 6
2.7909141 0.18041056 -0.25173482 6
2.6246171 0.56992847 -0.41676128 5.5
2.653162 0.73368537 -0.48466724 6
2.6454809 1.4095808 -0.79552072 6
2.6689913 -2.6777341 1.3526179 8.363636
2.5351169 0.066227235 0.21406813 9.5714283
2.7130158 0.10156012 0.16860491 9
2.4502101 2.4199669 -0.98865968 8
2.5061934 4.7894635 -1.7316879 9
2.6223879 -2.5010798 1.7715209 11.555555
2.510597 0.2128042 0.53719461 13.6
2.6788132 0.27080446 0.52470756 13.333333
2.5584016 4.9981308 -1.6664497 9.5
2.6013079 6.356782 -2.0763452 9.333333
2.6794317 -2.3357728 2.0468709 14
2.531184 6.5073781 -1.7907798 11
2.6047647 6.6812639 -1.3573606 12.333333
2.5814261 6.8013959 -1.0927989 13.666667
2.5407648 7.0668306 -0.7494157 15
2.5408225 7.5721359 -1.0335377 14.5
3.0270567 -2.681083 1.1168692 7
2.8846188 -0.10013579 -0.13237084 6
2.8212132 1.1264113 -0.6766029 6
3.0048666 -2.577157 1.3328464 8.4444447
2.9771769 0.18017748 0.15754329 9.1999998
2.8828325 4.6363187 -1.7054129 9
2.9913697 -2.3991187 1.6904757 11.2
3.0114627 0.34984761 0.49074101 12.833333
3.0011249 5.1643553 -1.5942339 9.666667
2.9251451 5.6650114 -1.6498895 10
3.0446317 -2.2449002 2.0076942 13.6
3.2118883 -2.0831673 2.1793165 15
2.9242404 0.44520396 0.72766536 15
3.0430655 5.3470426 -1.2647136 11.5
2.9181454 5.7446365 -1.4047673 11.5
2.8398113 6.0777431 -1.5390691 11.2
2.7997131 6.3360543 -1.838411 10
3.0515108 5.5002427 -0.85443705 13.5
2.9610748 5.8190651 -0.90808994 13.5
2.8376825 6.2413592 -1.185087 13
2.7933095 6.5410018 -1.2608806 12.5
3.1562021 5.7891393 -0.63599193 15
2.9230614 6.0488825 -0.87014896 14
2.949228 6.4737568 -0.95761305 14
2.8850675 6.7392182 -1.014747 14
2.9832191 6.9419785 -0.69589633 15
3.1262789 7.184207 -0.90570056 15
2.9909515 7.4713483 -0.9799419 14.5
3.3187876 -0.057728637 -0.027573064 7
3.3590622 1.8684447 -1.0054723 6
3.2707741 -2.5224149 1.2587824 8
3.3908226 0.29437518 0.096022621 9.1428576
3.4023774 4.4363632 -1.5447397 9
3.5059566 4.5554576 -1.7311208 8
3.4618738 5.1643882 -1.9372904 8.333333
3.2790515 -2.4249632 1.4816746 10
3.3169651 -2.294822 1.6283798 11
3.4059618 0.44929647 0.45595232 12
3.4767034 4.5319886 -1.314478 10
3.3872979 4.8610411 -1.4725598 9.7142859
3.271744 -2.2489581 1.8820765 13
3.3156061 -2.1227143 2.0173943 14
3.3658953 0.55492949 0.72620213 14.5
3.5607002 4.2406163 -0.75217956 12.5
3.4548109 4.6521754 -0.99030155 11.75
3.4349883 4.9837332 -1.1281976 11.666667
3.3775349 5.3484621 -1.2706146 11.5
3.5440776 4.821166 -0.66992599 13.5
3.4520173 5.0569563 -0.75546074 13.333333
3.4751976 5.5932994 -0.89059985 13.2
3.4332082 4.9258413 -0.32025784 15
3.3653612 5.2883244 -0.44499406 15
3.3542719 5.6665125 -0.51519763 15
3.4744177 5.9913259 -0.48499519 15
3.2655034 6.6684594 -0.8001951 15
3.4264653 6.2124801 -0.53000402 15
3.3290861 6.5322022 -0.59537464 15
3.2285995 6.8764405 -0.66597116 15
3.7632053 0.28069505 -0.29165754 6
3.7560956 0.68644965 -0.45985433 6
3.6954539 1.0946585 -0.64673054 6
3.6305623 -2.341738 1.2620642 9
3.889245 0.37834957 -0.054617632 8
3.9625576 3.705055 -1.2139431 9
3.9224513 3.8229215 -1.3444899 8.5
3.7589624 4.2169204 -1.5653518 8
3.814688 0.5451929 0.35579541 11
3.9479415 3.8615789 -1.0130378 10.5
3.7276413 4.0041695 -1.1570543 9.8571424
3.7000673 4.4782538 -1.2956321 10
3.7709897 0.68490636 0.69589418 14
3.9595509 4.0342393 -0.58484834 12.5
3.8957233 4.2030973 -0.68147141 12.5
3.6732686 4.6488934 -0.97077137 11.666667
3.9648278 4.0903406 -0.17753989 14.333333
3.7533867 4.3866725 -0.32601601 14.5
3.7062345 4.7668042 -0.56634271 13.8
3.9600036 4.2623949 -0.10874478 15
3.7999675 4.4607601 -0.18103512 15
3.6317506 4.7447629 -0.23731089 15
4.2175603 3.2645967 -1.5303272 7
4.0132527 0.49359003 0.12988675 9
4.2783432 0.51057684 -0.023595614 8
4.3881645 2.3215597 -0.63955396 9
4.3168511 2.4580886 -0.90008551 8
4.2025747 2.8416061 -1.029936 8.166667
4.0875401 3.2355998 -1.1432922 8.3999996
4.1016569 3.502259 -1.2796431 8.5
4.2625332 0.69204229 0.34981647 11
4.3864937 2.4731412 -0.31746352 11
4.3126678 2.6436572 -0.54630661 10
4.2171063 2.9552426 -0.66851377 10.166667
4.0959787 3.3338094 -0.8735202 10.2
4.0149999 3.6413374 -0.9338609 10.5
4.2874575 0.87486839 0.73585218 14
4.3861971 2.6109643 -0.025710002 13
4.3263383 2.756093 -0.16599527 12.333333
4.2078528 3.1792314 -0.27705911 12.4
4.1070113 3.4855847 -0.47084919 12
4.0188661 3.8304257 -0.55446953 12
4.3278313 2.9040287 0.19312105 14.666667
4.2037559 3.3143058 0.04722831 14.5
4.0968657 3.6923156 -0.098492756 14.2
4.0255857 3.9552066 -0.20040102 14
4.7517347 0.95751721 -0.50540394 7
4.6540594 1.2886515 -0.61697716 7
4.5410576 1.7369788 -0.80995625 7
4.5715122 1.9550327 -1.0907294 6
4.4319029 2.5839503 -1.2877518 6.5
4.6593647 0.60454643 -0.11066155 8
4.7689195 0.99935418 -0.25986227 8
4.6665087 1.3422766 -0.40017366 8.1999998
4.5415015 1.7405021 -0.58536261 8
4.4634624 2.0724211 -0.71086079 8
4.6688409 0.82146204 0.41656253 11.5
4.7553282 1.2184144 0.097243801 10.2
4.6571765 1.5538909 -0.011705345 10.833333
4.5642467 1.8518265 -0.15630253 10.714286
4.4364986 2.2715716 -0.34111616 10.5
4.7660589 1.3541772 0.49252009 13
4.6658497 1.6856276 0.3642745 12.8
4.5402679 2.0739763 0.15922354 12.833333
4.4460659 2.4046748 0.042309672 13
4.5188918 2.6925373 0.029262709 13
4.7693648 1.5127293 0.80943048 15
4.6696467 1.8404288 0.63867587 14.666667
4.538043 2.2504997 0.49725786 14.6
4.4342132 2.5636666 0.32439005 14.6
4.8396902 0.65833277 -0.4148168 6
4.8081584 0.768417 -0.44757593 7
4.8524389 0.74656767 -0.12069554 8
4.8194699 0.85153294 -0.16735634 8
4.8477588 0.91895223 0.23350412 10.5
4.8083339 1.0355943 0.17916459 10.5
4.8813286 1.0287195 0.61260986 13
4.827405 1.1863844 0.54366583 13
4.8727727 1.18025 0.93508452 14.75
4.8180056 1.374025 0.84509814 15
6.2440834 -4.6067305 1.9404761 7
6.316782 -4.473443 2.0505915 7.6666665
6.2280722 -4.4259238 2.3963668 9
6.2182064 -3.9961674 3.2407074 12.25
6.2213902 -3.2710896 3.7258611 15
