# .PCD v0.7 - Point Cloud Data file format
VERSION 0.7
FIELDS x y z intensity
SIZE 4 4 4 4
TYPE F F F F
COUNT 1 1 1 1
WIDTH 136
HEIGHT 1
VIEWPOINT 0 0 0 1 0 0 0
POINTS 136
DATA ascii
-0.30595157 -0.93154442 0.19247679 154
-0.15289479 -0.96215123 0.19809252 162
-0.0071444623 -0.9725188 0.19722508 137
0.01351732 -0.92174459 0.17688459 137.5
0.14088036 -0.94176465 0.17430516 133.75
0.26900512 -0.93851221 0.16040131 136.33333
0.39251456 -0.90878242 0.13591956 143
-0.42365137 -0.84613442 0.16853827 149
-0.38786486 -0.81302166 0.14950684 156
-0.2464738 -0.85919851 0.15413482 163.2
-0.10882701 -0.89170426 0.1599862 168.66667
-0.076484099 -0.83545166 0.13695009 170
0.036122907 -0.87311554 0.14886136 142
0.16875112 -0.83499509 0.12964909 142.75
0.27989236 -0.83898079 0.12230165 144
0.38918823 -0.83682287 0.11463343 146.66667
0.49087179 -0.8133375 0.12364379 200.75
-0.53863084 -0.7558375 0.14289427 143.33333
-0.49003133 -0.72272933 0.11910785 154
-0.33552527 -0.76491457 0.1211866 165.33333
-0.16136369 -0.75056064 0.10591552 174
-0.03783232 -0.76962048 0.1079084 165.2
0.076762497 -0.77286708 0.10917572 145.2
0.19014017 -0.75570309 0.094024591 151.5
0.29074332 -0.75159782 0.083278045 158
0.38791984 -0.76101989 0.07999111 157.8
0.48483792 -0.77240163 0.10077418 182.8
-0.42894366 -0.67877167 0.093098193 165.25
-0.24697605 -0.67670512 0.083432004 176.39999
-0.12127034 -0.70176011 0.080102898 177
-0.079833709 -0.6476137 0.058258425 179.75
0.021916894 -0.66605788 0.064972624 151.66667
0.11624881 -0.68020535 0.066683836 154
0.22358297 -0.69503844 0.060576085 160.33333
0.34874299 -0.67342424 0.044335369 169.77777
0.4761253 -0.69737726 0.041387036 173
-0.71999192 -0.54313374 0.051556978 135
-0.3317115 -0.6046524 0.058601379 176.5
-0.2607471 -0.54974866 0.03476163 183.33333
-0.15409727 -0.58645564 0.040430795 180
-0.031180533 -0.58243936 0.034694515 174.75
0.067476876 -0.56471115 0.027145345 161.125
0.15304382 -0.57180548 0.02195248 173.10001
0.23456232 -0.5900526 0.020677032 179.44444
0.34735388 -0.58861029 0.0095285056 180.125
0.45748377 -0.59109664 0.0046056821 181.125
-0.64694738 -0.50972944 0.038793381 145.5
-0.55605245 -0.46949932 0.020229125 147.66667
-0.22397047 -0.52546126 0.015460778 182.33333
-0.14422713 -0.45865336 -0.002812641 181
-0.055647101 -0.4868623 0.00072180445 181.77777
0.041200463 -0.49106237 -0.0075826896 166.66667
0.14745964 -0.50804281 -0.010361575 179.33333
0.24118105 -0.51986808 -0.012986404 181.2
0.35693106 -0.51875681 -0.021295402 181.7
0.44248787 -0.50319284 -0.028638411 181.42857
-0.70718837 -0.39097509 -0.0049622483 142
-0.65221339 -0.37707177 -0.01975506 152.66667
-0.57488292 -0.35693681 -0.03932051 164
-0.150139 -0.35007238 0.0018945823 176.57143
-0.066188924 -0.39017701 -0.015527096 180.5
0.027864164 -0.39506203 -0.022009991 166.85715
0.15660965 -0.39252704 -0.057661824 175.71428
0.2605899 -0.41517174 -0.06251651 174
0.35699993 -0.40218833 -0.073246904 166.04546
0.42389297 -0.38669708 -0.080949582 159.75
-0.73116225 -0.26886469 -0.059656147 144
-0.657336 -0.25562212 -0.068544753 153
-0.50890517 -0.33359632 -0.042619877 170.5
-0.46837965 -0.32495973 -0.057052296 174.5
-0.3793624 -0.29768133 -0.070688136 179.60001
-0.26806796 -0.25887072 -0.077501878 177.39999
-0.075299807 -0.28278875 -0.027774481 163
0.034095019 -0.30509484 -0.038576849 153.39999
0.15024814 -0.29637951 -0.051172879 158.75
0.216157 -0.30571517 -0.048336852 163.5
0.37910506 -0.34345227 -0.09765549 145.5
-0.60759705 -0.24880576 -0.079498224 160
-0.53515977 -0.23189102 -0.078993589 168
-0.43748429 -0.21609817 -0.094860204 174.33333
-0.34884465 -0.19908093 -0.10294171 176.25
-0.24874045 -0.20415328 -0.10426309 175.66667
-0.17866866 -0.19872223 -0.11262824 178.69231
-0.043590717 -0.22612257 -0.12178732 175.5
0.068246961 -0.20792602 -0.033775371 134
0.11534327 -0.22630775 -0.037330981 137
0.26812798 -0.24906944 -0.12016164 131
-0.68331087 -0.14030826 -0.11563219 151
-0.5524587 -0.13116194 -0.12369268 166
-0.45141017 -0.12586218 -0.13445252 180.33333
-0.3345834 -0.11487827 -0.13447781 181.66667
-0.26559365 -0.11146549 -0.14237252 178.57143
-0.19577679 -0.10809805 -0.15057909 180.39999
-0.076924317 -0.12955207 -0.1581609 177
0.17595847 -0.10888986 -0.17373072 159
0.3765887 -0.090754047 -0.19778419 158.25
0.38291395 -0.07200934 -0.20435619 157.5
0.64402181 -0.033424105 -0.22886676 174.34285
0.74337101 -0.03907783 -0.22485352 180.40741
0.84734976 -0.031308632 -0.22463003 186.16667
0.92548901 -0.026208943 -0.23458073 190.33333
0.57633924 0.095525235 -0.28211176 174.75
0.62145066 0.059497811 -0.26670411 175.56
0.73601544 0.062502243 -0.26744398 181.66667
0.82857889 0.070283949 -0.26785627 187
0.93310803 0.068237633 -0.28327757 187
0.55003673 0.15517776 -0.30576292 176.35715
0.64288729 0.1623517 -0.30870956 180.63637
0.72831285 0.15351546 -0.30150622 184.47058
0.8391937 0.15448272 -0.30724272 189.14285
0.93257672 0.13804547 -0.31813642 189
0.53197116 0.26039645 -0.34768423 180.66667
0.62688363 0.24944071 -0.34024602 184.0625
0.73413527 0.25106198 -0.34701678 188.44444
0.80183524 0.22541676 -0.3370941 190.66667
0.90816838 0.23276639 -0.35975808 193
0.38166827 0.36432049 -0.380555 186
0.41281727 0.36801612 -0.38343921 185.5
0.5289672 0.32550427 -0.37123105 185.5
0.64298737 0.34132788 -0.38293496 188.875
0.71086401 0.31846288 -0.37587076 190.39999
0.84817004 0.34751806 -0.40284732 195
0.59620601 0.39602298 -0.40597972 190
0.79488724 0.41317892 -0.42321926 191
0.46898544 -0.78285462 0.23721871 203.7
0.47087312 -0.76918274 0.20017126 202.66667
-0.11646925 -0.21564829 0.048987303 145
-0.034615953 -0.2405951 0.045853607 160.5
0.027895633 -0.21085398 0.015554719 129
0.15616305 -0.2496524 -0.0057432312 159
-0.0043414989 -0.1501205 0.057873793 124
0.027627183 -0.17873165 0.018738303 136.5
0.1718909 -0.16653988 0.0058816308 123.52381
0.232787 -0.18062744 -0.0081578912 125.44444
0.46824059 -0.81726319 0.3003225 202
0.077018142 -0.14341205 0.072546832 121
