# .PCD v0.7 - Point Cloud Data file format
VERSION 0.7
FIELDS x y z intensity
SIZE 4 4 4 4
TYPE F F F F
COUNT 1 1 1 1
WIDTH 99
HEIGHT 1
VIEWPOINT 0 0 0 1 0 0 0
POINTS 99
DATA ascii
-0.42365125 -0.84613484 0.1685389 2
-0.50986928 -0.58085048 0.058752064 0.25
-0.12487324 -1.9205812 0.62038785 5
-0.13552614 -1.6526406 0.51661837 5
-0.1741731 -1.3542333 0.38538074 4
-0.17422293 -0.98539162 0.20789562 2
-0.21046373 -0.69646108 0.090048455 0.33333334
0.1348719 -2.0409162 0.64146286 5
0.1679053 -1.746145 0.52515268 5
0.23947842 -1.2844748 0.36862937 4.6666665
0.21610335 -0.96960336 0.18170726 2
0.21253623 -0.6832068 0.060498074 0.33333334
0.29885244 0.56379044 -0.47945231 0
0.13830957 1.98725 -1.0899839 4
0.56816059 5.1301079 -2.6634748 4
0.48072672 -0.79973006 0.17717002 4.1666665
0.47466239 -0.71648526 0.084213205 2
0.6958462 0.12477704 -0.29495829 0.33333334
0.61214626 0.44214597 -0.43472621 0.33333334
0.56921023 0.81883591 -0.60880083 1.2857143
0.51559901 1.2277056 -0.77819043 2.5
0.54346395 1.582588 -0.93561655 3
0.50674552 1.925177 -1.0850182 3.75
0.45008412 2.4664834 -1.318732 4
0.45958096 2.7489722 -1.4461807 4
0.47139105 3.1006281 -1.6047806 4
0.46944502 -0.83038026 0.31318134 7
0.9607172 0.11342726 -0.30348906 1.6666666
0.98873931 0.43470907 -0.44906434 2
0.95089942 0.85945171 -0.63116962 2.6666667
0.94203883 1.1912024 -0.7822473 3
0.97728556 1.5272411 -0.93597174 3.6666667
0.94682127 2.01702 -1.1535224 4
0.79454082 2.3161068 -1.275911 4
0.86199844 2.6957345 -1.4471585 4
1.3842549 0.11458153 -0.32404757 3.3333333
1.3409165 0.47222939 -0.47366819 3.3333333
1.36397 0.84678191 -0.64181113 3.6666667
1.414 1.225083 -0.81653023 4
1.3508624 1.6259271 -0.99695837 4
1.3530598 1.9383759 -1.1353936 4
1.4505326 2.1364601 -1.2297388 4
1.2289084 2.5426283 -1.4034106 4
1.3333328 2.8587656 -1.5512562 4
1.4592395 3.241617 -1.728436 5
1.8234347 0.10390837 -0.32601851 4.3333335
1.8006887 0.4261274 -0.46099252 4.5
1.7537827 0.79838002 -0.63192928 4
1.7978878 1.1788365 -0.82230639 4
1.7238604 1.6159598 -0.99579656 4.3333335
1.7349325 1.9742205 -1.1633605 4.5
1.5618112 2.3638456 -1.3362844 4
1.8698765 2.993021 -1.6315433 5
1.5898228 3.6462553 -1.9073255 5
1.8034344 1.7775557 -0.67599183 8.5
2.0836635 5.1517477 -2.599808 5
2.1696754 0.72267401 -0.63472664 4.5
2.0888779 1.2659506 -0.85289806 4.5
2.0859592 1.4645512 -0.89714235 5
2.0540209 1.8509208 -1.1035173 5
1.9667261 2.3200297 -1.3297713 5
2.088567 3.4399271 -1.8408934 5
2.0333333 5.2159615 -2.3891881 6
1.9779733 5.3245234 -2.1332004 7
2.6029193 1.0779546 -0.82788992 5
2.6079688 1.4370507 -0.99655449 5
2.4672225 2.3003969 -1.3572369 5
2.4258006 3.0058405 -1.6582626 5
2.8453832 0.5373975 -0.60735077 5
3.0362113 0.9244228 -0.78573608 5
2.9571688 2.1833897 -1.3494171 5
2.759377 2.6302116 -1.5201309 5
2.8864636 3.7616181 -1.9090252 5.5
2.8729024 5.1599636 -2.4825151 5.5
2.8512983 3.8904564 -1.6722715 7
2.801331 5.2434454 -2.1999676 7
3.4089103 -0.01455894 -0.40788382 5
3.2836912 1.4206709 -1.0361428 5
3.2104826 1.8418256 -1.2152226 5
3.3928084 3.5753772 -1.5572135 7
3.8778079 0.38804951 -0.60338336 5.5
3.9121804 0.79739201 -0.79147923 5
3.870954 1.2319841 -0.98015255 5
3.9516525 1.7727571 -1.2105151 5
3.7977161 2.9754264 -1.632404 5.5
3.6383653 3.6895323 -1.918129 5.6666665
3.9547412 2.6420193 -0.96627206 9
3.8353899 3.2486584 -1.2748301 8
3.9872034 0.032151874 -0.35406598 6
4.009201 0.86804432 -0.70287061 6
4.0112381 1.3535715 -0.86861473 6
4.0164437 1.8776758 -1.0934136 6.5
4.0176167 2.4229431 -1.4409356 5.5
4.0048256 0.10835795 -0.1548375 7.5
4.0159841 0.5305137 -0.31738415 7.5
4.031683 0.9981209 -0.42731488 8
4.0243607 1.4511406 -0.68025512 7.5
4.0372577 2.0683098 -0.75845432 8.5
4.0104218 2.5590172 -1.1947035 7
