# .PCD v0.7 - Point Cloud Data file format
VERSION 0.7
FIELDS x y z intensity
SIZE 4 4 4 4
TYPE F F F F
COUNT 1 1 1 1
WIDTH 150
HEIGHT 1
VIEWPOINT 0 0 0 1 0 0 0
POINTS 150
DATA ascii
-0.71311003 -0.70136875 0.15754636 110
-0.63808519 -0.65971953 0.13135384 113
0.76152992 -0.64425015 0.023623051 165
-0.70736754 -0.53367156 0.085995525 114
-0.53099644 -0.59457624 0.10232329 113.5
0.68804562 -0.53734136 -0.010573252 168
0.74590605 -0.58142173 -0.0031267789 170.14285
0.81904429 -0.57891482 -0.014363468 166
-0.64058572 -0.50406665 0.071149588 118.5
-0.55360484 -0.46969733 0.045107711 139.75
-0.40308174 -0.50311607 0.087654173 116
0.65077913 -0.48275104 -0.02452158 174
0.72100216 -0.46741676 -0.041278571 170.25
0.84731019 -0.49291199 -0.053458136 167.66667
-0.65209961 -0.37111351 0.017417355 123.66666
-0.58708495 -0.35546479 -0.00092034816 140
-0.44371921 -0.42298657 0.017498298 163
-0.34911609 -0.38542989 -0.010509364 183.66667
-0.26557416 -0.34384447 -0.021754149 191
0.58104944 -0.38246143 -0.071030334 159.25
0.64260471 -0.39262313 -0.058876049 165.29411
0.75252038 -0.39700666 -0.070137665 168.625
0.8498286 -0.40224752 -0.086894445 167.83333
0.93036711 -0.36760521 -0.1088765 163
-0.6874516 -0.25001365 -0.032313775 124
-0.5251593 -0.33443663 -0.0077331234 150
-0.4609893 -0.31805143 -0.024181236 168.60001
-0.36519009 -0.29224283 -0.046381127 185.60001
-0.25210258 -0.29756171 -0.047629334 187.89999
-0.14129116 -0.29321709 -0.056469064 183.3
-0.080661327 -0.264254 -0.066587709 178
0.55148447 -0.30080771 -0.10690311 152
0.63999248 -0.30225235 -0.10688486 152.89285
0.73765403 -0.29861569 -0.10775571 159.46153
0.82946199 -0.29934064 -0.12327522 163.8
0.95470148 -0.30017701 -0.14403561 162
-0.63177711 -0.24041148 -0.039555706 134
-0.54376167 -0.22627142 -0.052948389 148.5
-0.44207028 -0.21111141 -0.070618205 172.2
-0.35229427 -0.19598529 -0.08292643 185.75
-0.25634369 -0.1878849 -0.089837752 185.875
-0.17864226 -0.20654345 -0.099046797 182.52632
-0.063797817 -0.21145637 -0.10611188 176.72728
0.053632673 -0.20272204 -0.12033609 166.5
0.15303722 -0.19303973 -0.14033321 162.95653
0.20133491 -0.18091476 -0.14420968 165
0.57787365 -0.23501727 -0.14606048 154.2
0.63624853 -0.21757662 -0.15495773 152.65517
0.73016137 -0.20844828 -0.15270694 151.60869
0.83525485 -0.21688065 -0.16258162 159.5
-0.66535884 -0.12922224 -0.090659685 130.33333
-0.5528695 -0.12287001 -0.099803925 151
-0.45042089 -0.11905277 -0.11209891 171.39999
-0.35174227 -0.1119846 -0.11705548 186
-0.25670031 -0.10614768 -0.12378266 185.375
-0.16617915 -0.11756152 -0.14312634 180.46153
-0.083714999 -0.12927602 -0.14402807 176.17647
0.058101621 -0.11743957 -0.16839398 166.13637
0.1393427 -0.12664877 -0.16420968 161.08928
0.20554781 -0.15427901 -0.15909207 165
0.37876967 -0.083330192 -0.19920693 152.625
0.40959311 -0.11401976 -0.19241115 159
0.63748509 -0.1266551 -0.19957536 152.125
0.73401612 -0.11579695 -0.19821721 148.81482
0.83749813 -0.11478074 -0.20388688 157.45454
0.90776044 -0.12291886 -0.21774486 159.5
-0.6602065 -0.012840904 -0.139668 116.66666
-0.55495983 -0.019646881 -0.14510594 145.75
-0.45313394 -0.027289947 -0.15265797 171.60001
-0.34313142 -0.031541102 -0.1520434 189.60001
-0.25342056 -0.036899738 -0.15566193 185.14285
-0.17164592 -0.02306639 -0.18571679 180.3158
-0.087417841 -0.027218038 -0.18802771 176.25
0.058192555 -0.013456941 -0.18934377 157.22728
0.13603149 -0.032009795 -0.2038631 160.54237
0.21515426 -0.01545302 -0.21943548 157.33333
0.36895368 -0.074947275 -0.20588039 156.16667
0.6462236 0.0092581473 -0.26089498 156
0.74280542 -0.020624131 -0.24237238 150.89473
0.82572162 -0.028344361 -0.2437249 155
-0.66710538 0.10506802 -0.19284046 124.33334
-0.55629796 0.085799262 -0.19183256 146.5
-0.45162135 0.066383049 -0.19373034 173.8
-0.36438325 0.052269939 -0.19039902 188.66667
-0.26590991 0.037369866 -0.18418811 187
-0.19964437 0.024751412 -0.18613507 182.33333
-0.057356708 0.10691951 -0.22742547 167.52942
0.056918629 0.031593271 -0.23329245 164.60001
0.13949174 0.041676879 -0.24142219 162.75
0.22935444 0.058797583 -0.25029427 164.53488
0.30112523 0.033213258 -0.24534549 162
0.65457875 0.085028648 -0.28367025 152
0.72260106 0.059846215 -0.27670941 154
0.82196444 0.054142017 -0.28626457 166
-0.25603974 0.18998101 -0.25333905 189.2
-0.15793747 0.17509213 -0.24465647 183.66667
-0.076268844 0.15900372 -0.25513908 178.28572
0.021171922 0.16871782 -0.28283334 176.25
0.22232321 0.11968954 -0.28210548 164.60001
0.67533451 0.11507278 -0.29748154 155.66667
0.7319361 0.14163972 -0.30897009 161.90909
0.80879921 0.14739589 -0.32415304 169.42857
-0.45940471 0.27541077 -0.27872252 162.25
-0.36567497 0.23503681 -0.26988414 184
-0.25569749 0.25403795 -0.2883454 190.75
-0.1648339 0.24774376 -0.29355401 186.625
-0.060296301 0.25247395 -0.30742881 183.75
0.037555937 0.24275723 -0.31420562 179.5
0.13650891 0.24261358 -0.32365134 176.36842
0.81284851 0.20108064 -0.34686941 171
-0.65453947 0.35835528 -0.30020997 119
-0.56311131 0.31843525 -0.29317135 141.66667
-0.37655601 0.34487247 -0.32941571 175.71428
-0.27637464 0.33844838 -0.34156406 189
-0.15774205 0.32839572 -0.33182704 189
-0.071674615 0.33948442 -0.34074402 187.375
0.029336287 0.33644134 -0.35085618 184.60001
0.097242758 0.35750207 -0.36647192 185.125
-0.57902658 0.46091422 -0.36302584 132.66667
-0.4982923 0.41375956 -0.3524785 150.66667
-0.34341863 0.44591823 -0.38187331 171
-0.28654948 0.40388089 -0.3674891 183.66667
-0.18036541 0.43945366 -0.39119875 183.25
-0.042554464 0.42394993 -0.38542047 189.66667
0.03308063 0.41785893 -0.38974211 188.57143
-0.73913908 0.55156749 -0.39309797 111
-0.66909701 0.51229268 -0.37872174 118
-0.46431869 0.53519839 -0.41274801 146.66667
-0.39016455 0.48008662 -0.39513084 162
-0.25666785 0.51161128 -0.41752121 174.39999
-0.10681214 0.50121862 -0.42263734 181
0.00038396925 0.51191086 -0.43770224 184
-0.57275689 0.61542761 -0.43982998 127
-0.51119167 0.57103556 -0.42013127 138
-0.36249825 0.61151242 -0.45483091 156
-0.32518294 0.57526505 -0.44639534 165
-0.189217 0.60150951 -0.46258762 174.5
-0.46390465 0.70829195 -0.48566842 132.33333
-0.41293129 0.65929091 -0.47180641 149
-0.27610987 0.70755804 -0.50276387 155
-0.32857075 0.77109319 -0.53019547 143
-0.048781704 -0.22494109 0.083429359 126
0.08078412 -0.1731666 -0.0025313918 154.625
0.11891689 -0.13999479 0.0048715496 133.11765
0.03638941 0.05851974 -0.11045865 146.42857
-0.22673619 0.14601918 -0.10014261 160.39999
-0.1648414 0.12413602 -0.1059515 153.5
-0.039090667 0.095463738 -0.076940827 153.5
0.012859448 0.075706117 -0.085365415 141.72728
0.01927205 -0.17267156 0.080916315 121
